<svg viewBox="0 0 72.24746103108852 67.28589826157192" width="72.24746103108852" height="67.28589826157192" xmlns="http://www.w3.org/2000/svg">
  <title>Nové Strašecí, okres Rakovník, Střední Čechy, 27101, Česko</title>
  <desc>Geojson of Nové Strašecí, okres Rakovník, Střední Čechy, 27101, Česko</desc>
  <metadata>
    <collboard>
      <support-module name="@collboard/map-svg-geojson-import" version="0.11.1"></support-module>
    </collboard>
  </metadata>
  <polygon points="8.052549999999997,31.714338672776307 24.395189502225207,42.978215140312045 25.24752159111779,43.597327718954716 26.845871813340295,49.63617437106552 27.01342551998789,50.12206598524756 39.307323759981614,59.01333142378246 39.45055632887636,59.233348261571905 40.62051956443577,58.83295557193162 40.86183767996374,57.2426007651153 39.68459266663524,51.270488825022426 39.50575220442954,51.028173511912996 41.261243191088965,50.02675113845146 41.25592749330792,49.70797345214635 37.39163366219839,40.488059260307296 37.28910623110244,40.05912191335631 51.30900425776019,40.27648846750492 52.13133542219987,40.160476421056615 64.1870467111072,35.34320127919602 64.19491103108851,35.11854225325044 62.37337431999151,23.99067866651569 58.96368187553128,23.951920647879547 58.233683653328285,15.22736679927732 58.20594007996954,14.93657725907508 35.76452041776031,19.157306402797644 35.33773542219535,19.22323493326951 33.790066373308605,13.514550794752381 33.29403167110979,13.546609040240241 34.00735462221894,8.275501878022283 33.96715920887766,8.052549999999997 21.324973537768187,17.1885072148649 21.260165715538847,17.28444804361027 17.532186764444873,15.83395013493248 17.35735127999908,15.790184509991036 8.052549999999997,31.714338672776307" stroke="#009edd" stroke-width="5.6175356216252235px" fill="none" stroke-linejoin="round" vector-effect="non-scaling-stroke"></polygon>
</svg>