<svg width="438.22649628436193" height="463.3171250288142" xmlns="http://www.w3.org/2000/svg"><polygon points="5,399.43974287912715 39.00386332441121,393.0174599158345 39.578249955549836,393.06168746354524 40.608184604439884,406.93082935817074 42.12075548444409,408.7793270746479 58.92127317329869,397.61484360840404 60.18102072889451,397.5987611975288 63.39141091553029,399.6220086092362 64.46183224883862,400.26842531276634 60.58967409771867,404.7517442064127 59.54459335107822,404.6592733261641 62.670514915604144,409.908609485894 63.23412451555487,410.66086559847463 68.66720455104951,406.3264235230163 69.24246499559376,406.2728176037781 76.4182200889336,417.8795346437255 76.20879616006278,418.1609507340472 87.42535537772346,416.6564872013405 88.6859767466085,416.6270053311018 100.58148892445024,435.6406516552088 100.50488462217618,435.7889415472746 120.99027313780971,446.6848486904637 121.42135438218247,446.87377480987925 136.78037134220358,439.40950653288746 138.09109134227037,437.9712926832144 136.98863018664997,423.4314056177973 135.59140266664326,418.0961803959217 174.04617983999196,419.35897520708386 175.54185699555092,418.4276256496087 165.44727409770712,430.63893588399515 165.82272256002761,432.3326891178731 178.04038058663718,427.0955012203194 178.8757461332716,426.52643807500135 185.82401848887093,433.71689391101245 187.00133632007055,433.6275618218351 186.76045511115808,427.9205061661778 187.2390135466121,427.0244800761575 198.1602238577325,427.2759573579533 199.46715733327437,425.7192949684104 211.4887899023015,403.64164435782004 213.04679907555692,403.50673445739085 226.09632739552762,422.46076517319307 226.5836239644559,423.1933243954554 220.71159836440347,426.22716565802693 220.961508977809,427.20627629267983 230.86064895999152,430.8354691006243 233.25285859557334,429.8050077606458 236.50752199115232,437.00473623280413 237.13200725335628,440.0115882983664 240.21132543997373,441.55475028947694 242.9288849066943,442.473049367778 240.0828748800559,431.1802951384452 239.81665308447555,429.8626279629534 250.7632039822638,428.08041472604964 251.11622456891928,427.9294396084151 266.5387386310613,440.472528121667 267.3819684977643,440.7498955152696 270.1225383821875,452.9693466144381 270.3310884977691,454.6321114108432 275.34648576006293,457.6087997244904 275.89087146660313,458.3171250288142 279.9284716089023,451.512463134015 280.10090410662815,451.27083928254433 292.55390919116326,450.6991588738165 294.02541084436234,449.90952286770334 295.7858534400584,443.225194202736 295.2787504355656,442.39979997102637 306.74988060444593,439.9901492133504 307.646704355604,439.37824111431837 304.8869105777703,434.24573913635686 304.666709617828,433.4926702984376 308.17332252440974,429.452139526431 308.5511011555791,427.71593024162576 314.99110542226117,429.0108301032451 315.08110819547437,429.0336102672154 316.7061097244732,407.8269372463692 315.86200604436453,406.567203282204 322.0954990934115,400.51412570418324 322.56007651553955,399.1078223014483 317.2941860978026,391.7982950262958 317.12524885335006,391.41543386376 322.57201863103546,386.2103323104093 323.41612231114414,383.8983538937755 312.3810249955859,380.27955631073564 310.9552529066568,380.11201794445515 306.0106345243985,370.3423001766205 305.63984640000854,370.32487540564034 310.8722406399902,360.39387191215064 311.490900480072,359.9488495225087 306.49763982219156,347.7242330238223 306.18423210666515,347.34352935955394 285.25552896002773,340.2927963210386 283.9273326933617,340.2253219621489 280.7766530844383,329.02116350631695 279.4653505422175,328.16137840785086 281.2164724621689,316.7349444604479 279.4362234311411,316.2782144037774 306.25792369781993,316.9078938527964 307.47398058662657,316.87527033442166 307.0102769777877,310.2123739544768 307.48767032893375,306.3353861995274 317.51176561776083,287.6931600685348 317.7517730133841,284.75037668808363 330.76634880003985,286.30893044371624 333.25147391995415,285.73279872426065 349.4872169244336,274.68901406181976 351.1524138667155,274.2241510032909 343.0285713067278,271.2002822296927 335.7686388621805,273.73470277921297 330.2161376711447,260.630048076564 329.6536931556184,260.25098174181767 323.6983640177641,261.3354315694305 323.202329315478,262.4350743285613 327.87286158220377,275.5208482949529 326.8493348978227,278.8025623447029 321.03352462220937,269.70017758227186 321.62101845326833,266.87873731699074 317.28836067556404,272.6234948237543 317.0704898844706,273.77180254575796 310.62436892441474,269.8266766705783 310.4038766933372,269.39041095628636 308.34517247998156,258.50539072201354 308.2979865600355,257.4325494202785 325.727358577773,258.6435186594026 328.6225934221875,258.8048913179082 331.37364906666335,252.65029568050522 333.56051256891806,251.40844834630843 328.0741299199872,237.72844147024443 327.9625730843982,236.90853494859766 332.07328227558173,232.19736616662703 332.40882659552153,232.05296264507342 336.9820743111195,240.8470983369043 338.4492068977561,240.94187334075104 337.1952847643988,228.52287060319213 337.2427619554801,228.2233287774725 347.04986026661936,218.8076718308148 348.63583146664314,216.4925924539566 320.5433153421618,234.35401924699545 319.31910286215134,234.18815799651202 320.5205961955944,228.06908693199512 321.4296533332672,225.7657291731448 339.1007803733228,220.47578364075162 340.7380152888363,220.12436794565292 334.8295808000257,212.76731122349156 333.825569280074,211.77785662503447 330.02593763556797,215.96367074525915 327.612465208862,217.52584159036633 322.7598884977633,213.5112994586816 321.3591657244833,213.80639024917036 317.49807587557007,198.68560742156114 316.86834773328155,195.32534197717905 330.3879876266001,188.89039097505156 331.98939619550947,188.00591144838836 328.8060942222364,169.4551683581085 328.72861610667314,168.3675822664518 336.00427719112486,162.40543992968742 336.7965346133569,162.18407014687546 345.8434153244598,174.526772452984 346.33420714666136,175.16088243661216 361.421759431134,180.77298913052073 361.5420543999644,180.61468943825457 387.2076996266842,203.43505274003837 387.5723710578168,203.29197172063868 402.25971683557145,151.710117863724 402.8544924444286,148.67069998837542 411.49097216001246,138.4143671899801 411.71466837334447,138.14735266083153 429.0755916800117,138.5914821762126 433.22649628436193,141.75850662507582 417.1468745955499,129.78341684647603 416.1714076445205,129.18540561385453 414.99671125330497,119.00196844543098 414.849619342247,118.15880683681462 408.18591886223294,119.37412150634918 405.2073804800166,119.4407690432854 411.2349448533496,102.68029014940839 411.0523178665899,101.33247189118993 395.99068871105555,111.71891362406313 395.0766799644334,112.35588861454744 380.82944483554456,102.21774741011905 375.8545342577854,102.03120910550933 367.3899044977734,111.54311893740669 366.6445417244686,111.96672574279364 354.8288378311554,109.26716893108096 354.4673703822773,109.18933531851508 354.54746993770823,103.01444759662263 354.353483377723,102.73799609020352 346.56868039106485,106.57742012734525 345.25708657782525,106.92588603007607 342.952840817743,104.03257344802842 341.253273884533,103.82456481491681 341.7568816356361,93.80323623667937 341.2611382044852,93.25791469984688 328.5046286222059,96.88367359730182 327.94655317335855,96.34775396250188 334.982206862187,71.7656219531782 335.2379428978311,71.13524032046553 329.6804900977295,39.78746883792337 329.66447018668987,38.2379062337568 265.7266747733811,34.137754748924635 264.92451413336676,34.27870851394255 258.83694791106973,31.074337264697533 258.7195656533586,31.041671320912428 259.57473763555754,20.269699772819877 259.30269041773863,18.643923925235868 252.8568607289344,15.320734454493504 252.32033934223,11.796559302252717 219.0397021867102,6.793252325442154 218.6409520355519,6.731493441970088 214.79180430213455,25.908135561272502 214.39392796438187,27.684212882071733 209.32056775107048,25.1044435519143 208.43714247108437,24.606833218073007 202.75648199103307,34.52481804549461 202.2097661155276,35.696743108157534 223.1306049422128,34.66621903353371 228.09153450664598,35.7338830519584 226.80586382222828,57.494126478617545 227.60977208893746,59.66144189413171 205.7230782577535,64.69486450741533 202.4928816355532,65.6635055039078 230.32092359114904,79.87541665456956 230.53063879103865,80.42658729985124 220.66179100447334,83.17884082050296 219.53835832886398,83.44189575768542 219.5800100977067,77.70024758635554 218.03831210674252,77.10298945923569 217.3782917688368,82.38117401045747 217.0211933866376,84.26550620421767 203.45116359111853,83.20747266570106 202.52142620447557,82.99273373605683 209.65902478212956,87.41765543812653 209.28532394673675,87.78449359990191 181.5207790932618,99.95914707996417 180.98484024894424,99.69745391985634 184.842726115603,105.22962575679412 183.74521656893194,107.85497663007118 178.07329422223847,106.02363107388373 177.68153457774315,107.0945272250101 199.87085909338202,113.16910259920405 200.11290538671892,113.02730477764271 201.61586431995966,121.79802128509618 201.6950900622178,123.80904610740254 187.58358727104496,137.8807850688463 187.0033752177842,138.1589814411127 164.22364415996708,131.06978403881658 159.30232746666297,135.38997260754695 146.68038513779175,118.28315660357475 145.41393834666815,117.26822785497643 137.66612679103855,141.86540017242078 139.48278471105732,145.99574494251283 131.09068145777564,139.84291177685373 130.60571505781263,138.31149730930338 128.3288487822283,150.4319216447184 128.3282662400743,150.89346851222217 121.00396288000047,150.97039289586246 119.4742070044158,150.4533889623708 117.38055025786161,156.60324194293935 116.7059663644759,157.11799530836288 117.33103416883387,160.80352265480906 117.54337080882397,162.43942799791694 147.84343068441376,171.367822135624 149.18997703120112,172.27025623002555 137.9993409422459,192.93668294965755 137.906425457797,194.36308485257905 156.3272843377199,202.276093806664 157.91150791104883,203.84641015232773 130.6237738666823,202.81309675681405 129.62995683553163,203.03844981087605 116.69169408001471,211.8480530536035 115.75525745772757,212.1435931858141 117.74347406218294,217.94387913070386 115.71739221329335,219.8766776653938 178.81516174227,231.17268030368723 179.8395622400567,231.12171412829775 170.33392952894792,246.52816181338858 169.60837319109123,248.06061116128694 169.81634076451883,264.6437304347055 169.86818702227902,265.6266892586136 175.70380373334046,267.7557478148956 177.72901176882442,267.8022355316789 175.8462353067007,276.68478516698815 175.69681322667748,277.2958048619912 168.01075114670675,278.1763496454805 167.8825918578077,278.24563093826873 171.42415729782078,283.4845744037302 172.3457390932599,286.1833347514039 150.82284287991934,290.5205907424679 148.1981988977641,290.7668606475927 148.92229888006113,299.0107095770072 148.9100654933136,299.39596620126395 128.43516273773275,294.12656247470295 127.7474716444267,294.43495344684925 128.40865706664044,303.4652539691306 125.38002005335875,305.2904872081708 133.37803349329624,319.8882329578046 134.29699384886771,320.1469829414855 129.38558037334587,322.9252861322602 129.07100757327862,324.93626060604583 94.70043392002117,316.27732060622657 93.87001998221967,316.217883063131 89.38007580442354,325.11054419510765 88.88957525324076,325.8121459647664 80.10833379556425,328.3289563282742 79.20073301333468,329.02384474361315 80.78175260440912,324.1019318717299 81.50090097775683,322.98561563377734 64.35901354672387,314.00304106459953 63.064313457813114,313.11057320726104 40.56624156446196,315.3982689898694 40.141568284481764,315.635573051346 33.767100017750636,325.2508647280047 33.73797290667426,328.1765721444972 39.43232312879991,328.2659470451763 42.35988906666171,327.9540284841205 43.78391352889594,350.8623321542982 43.8794504533289,351.49682775023393 28.491306382231414,356.05263113602996 27.191945955506526,356.11876018869225 23.29532103112433,367.1218216503621 22.959776711068116,367.6597627957817 18.854019128950313,366.79566068103304 18.06991729780566,365.82700443209615 5,399.43974287912715" stroke="red" stroke-width="3.0218267151582774" fill="none" stroke-linejoin="round" vector-effect="non-scaling-stroke"></polygon><polygon points="115.71739221329335,219.8766776653938 178.81516174227,231.17268030368723 179.8395622400567,231.12171412829775 170.33392952894792,246.52816181338858 169.60837319109123,248.06061116128694 169.81634076451883,264.6437304347055 169.86818702227902,265.6266892586136 177.72901176882442,267.8022355316789 177.84115114656743,270.32417944679037 175.8462353067007,276.68478516698815 175.69681322667748,277.2958048619912 167.8825918578077,278.24563093826873 168.61397361778654,280.0022396540735 194.39525347552262,298.8851211349247 194.20738360879477,301.2297248535324 220.3437229511328,311.2545681197662 220.81616469332948,311.40964547451586 218.0933623466408,316.570485997363 220.91898339556064,318.7580416382989 215.48765098676085,321.94928656343836 216.28864654223435,324.9948020321317 231.1128897422459,327.95090035873 232.4058422044618,328.3714093812159 233.3215985777788,337.533033478132 233.90996622224338,337.81410546723055 259.934166186722,341.12036094628274 262.1210296888603,340.87057259946596 263.1037784178043,333.7061288963305 263.4594204444438,332.07417783595156 275.47435377782676,327.35700261278544 275.7731979377568,327.1366925071925 283.4880958577851,312.92153223004425 283.69955868436955,312.72087153524626 306.25792369781993,316.9078938527964 307.47398058662657,316.87527033442166 307.0102769777877,310.2123739544768 307.48767032893375,306.3353861995274 317.51176561776083,287.6931600685348 317.7517730133841,284.75037668808363 330.76634880003985,286.30893044371624 333.25147391995415,285.73279872426065 349.4872169244336,274.68901406181976 351.1524138667155,274.2241510032909 343.0285713067278,271.2002822296927 335.7686388621805,273.73470277921297 329.6536931556184,260.25098174181767 328.17782243562397,260.2366773390677 323.6983640177641,261.3354315694305 323.202329315478,262.4350743285613 327.87286158220377,275.5208482949529 326.8493348978227,278.8025623447029 321.03352462220937,269.70017758227186 321.62101845326833,266.87873731699074 317.0704898844706,273.77180254575796 316.4494998755399,273.6605032273801 308.84382862225175,263.97009490738856 308.2193433599314,263.38809360720916 308.34517247998156,258.50539072201354 308.2979865600355,257.4325494202785 325.727358577773,258.6435186594026 328.6225934221875,258.8048913179082 331.37364906666335,252.65029568050522 333.56051256891806,251.40844834630843 328.0741299199872,237.72844147024443 327.9625730843982,236.90853494859766 332.07328227558173,232.19736616662703 332.40882659552153,232.05296264507342 336.9820743111195,240.8470983369043 338.4492068977561,240.94187334075104 337.1952847643988,228.52287060319213 337.2427619554801,228.2233287774725 348.63583146664314,216.4925924539566 345.99167232005857,214.19671427761205 337.56141255109105,223.75295386987273 337.59024839114863,225.76438792527188 324.67936512001324,230.02862094552256 324.1792526221834,230.4546820425894 326.08736967109144,235.25574790046085 325.34579342231154,235.36661958676996 320.5433153421618,234.35401924699545 319.31910286215134,234.18815799651202 320.5205961955944,228.06908693199512 321.4296533332672,225.7657291731448 339.1007803733228,220.47578364075162 340.7380152888363,220.12436794565292 334.8295808000257,212.76731122349156 333.825569280074,211.77785662503447 330.02593763556797,215.96367074525915 327.612465208862,217.52584159036633 322.7598884977633,213.5112994586816 321.3591657244833,213.80639024917036 321.9058815999888,224.6667972720461 321.28547413332853,225.6414401610382 303.19666431995574,239.74511239363346 301.75166833773255,240.67811261548195 291.11590371560305,242.33130597422132 290.10606677341275,242.53963070269674 289.30973155552056,237.03013523644768 289.5273110755952,235.78328203759156 266.95438250666484,229.33297272142954 263.5936964266002,228.39768899430055 257.7694392888807,237.66674741078168 257.625842631096,238.68827363010496 256.3623085510917,232.9283237149357 255.45412522670813,231.85178111016285 250.82116693339776,233.27167174319038 249.94152817782015,233.1053626089124 248.20089201780502,248.20321602735203 247.34950656001456,251.91180415812414 244.48048611555714,248.81744408037048 245.5069255111739,245.8204956324189 241.31349532445893,245.55048216227442 239.45605944888666,250.53807816375047 212.00113578664605,238.97483658837155 209.66688910219818,237.7722531830659 211.59248241782188,232.71596626774408 211.3105319822207,231.96444279234856 200.05057336890604,229.3638209219789 199.36550371558405,229.3767861063825 203.63845091557596,218.87250085629057 203.54174890671857,218.50632838590536 189.84297728003003,209.1801259010099 189.53918151115067,208.94538968568668 176.68655246216804,213.15406022942625 175.19233166216873,213.08341710921377 169.40302705776412,206.9476625766256 168.70630656008143,206.95615787350107 166.09972138667945,212.77893605898134 165.7033014044864,213.08386421762407 155.1721031111665,206.94945106026717 154.8479183644522,203.59199462615652 131.56399701326154,202.94186995882774 130.6237738666823,202.81309675681405 116.69169408001471,211.8480530536035 115.75525745772757,212.1435931858141 118.52524572447874,214.68987182492856 119.89188977784943,215.88050965080038 115.71739221329335,219.8766776653938" stroke="red" stroke-width="3.2672242132232263" fill="none" stroke-linejoin="round" vector-effect="non-scaling-stroke"></polygon></svg>