<svg viewBox="0 0 155.5260951289231 173.57630430972426" width="1000" xmlns="http://www.w3.org/2000/svg"><polygon points="8.05255000000011,31.090434421762893 39.93013421339106,44.24300852881379 40.369371048851235,44.49518395399309 47.79853200886987,64.02020038277942 49.188477751194796,65.30713864192467 43.35373485330615,87.93202366281866 42.0549569689681,88.79723617734953 49.0661438844179,127.03487996347349 48.90303206220392,127.16436305913476 110.35482854230918,165.38327633424296 111.10747309329577,165.52375430972415 138.65036063115235,131.9721715374394 138.71327519111924,131.74948389057636 129.69610413336318,109.62925739357115 129.58221712892532,108.23558977570019 140.74489119111217,102.76782567144937 140.74314356441732,100.94612529074175 131.0828458934336,90.88677439277626 130.9529389777233,90.37059144888872 143.79216955553397,81.23064240141639 143.93197968891013,80.74842149866845 130.98148354664568,74.18597681212805 130.1883523111244,73.92602843276791 135.0720950311295,69.87979509853858 135.1693795822573,69.41454229443434 130.65205592007965,49.41231619186101 130.71700937776018,47.74266264527205 145.9938878845203,35.40749591330632 147.4735451289232,34.59765152427235 142.06260169784196,24.955079074926743 141.00004468448583,23.436831921549583 120.46018847110804,30.950328298007207 119.34520265783772,31.077112859791214 116.55249524440273,18.86043503540668 115.89101855117019,16.87586014366343 101.77776813341893,9.164786566608655 100.9683257156064,8.052549999999883 42.50526210675139,40.49341457602668 41.12987992002286,40.87053581668397 8.05255000000011,31.090434421762893" stroke="#009edd" stroke-width="5.608443023258066px" fill="none" stroke-linejoin="round" vector-effect="non-scaling-stroke"></polygon></svg>