<svg viewBox="0 0 76.45720239997833 89.54736953918406" width="76.45720239997833" height="89.54736953918406" xmlns="http://www.w3.org/2000/svg">
  <title>Stráž pod Ralskem, okres Česká Lípa, Liberecký kraj, Severovýchod, 47127, Česko</title>
  <desc>Geojson of Stráž pod Ralskem, okres Česká Lípa, Liberecký kraj, Severovýchod, 47127, Česko</desc>
  <metadata>
    <collboard>
      <support-module name="@collboard/map-svg-geojson-import" version="0.11.1"></support-module>
    </collboard>
  </metadata>
  <polygon points="8.052549999999997,27.106013350690432 14.379395439994937,29.46674079902698 15.805385982217217,30.827475546167648 21.154288666649904,40.68367059043487 21.719063351112368,41.62543697168405 16.675922515547086,45.93675115827466 15.930705377780782,46.67335547038931 18.262112168864064,50.23335285491305 18.235315226665648,50.66174133345305 10.848679848866254,52.15216649263277 10.873365075538118,52.4966353910346 16.883744453348868,56.46769601017115 16.941561768886118,56.68410702088261 20.073163119995684,54.71741274960334 20.076949644433284,54.43088450909238 27.171148826666126,60.37663690548618 27.21979110220093,60.4006553354335 23.463486035535993,66.55465201679147 23.021409306653027,67.2050249937962 22.882108897763487,71.83749905345724 22.111332719977895,75.56966214480747 25.840185484448398,78.57873453168543 29.21077478223708,81.16822677638959 42.75939615109348,79.50593891193387 42.99277712888545,79.61875094561367 51.75727049777163,65.6425079396937 52.38124603554718,64.87605597783806 51.73811942220311,62.049397297879864 51.788436506648964,58.508682798848554 68.12372141332128,50.93874951174769 68.40465239997832,51.07840247287061 64.10745687998826,42.22345928131074 63.17531650665444,41.15788972698613 60.32304415110377,38.62821293055424 60.16044205331821,38.59567723048497 57.49633083554329,40.099311915451494 57.36860845331796,39.94617969459034 57.73772176888417,38.10844415071881 58.08462566219498,37.68547444062244 65.02619878220833,38.6412042116641 65.04848102221843,38.30205027168961 62.1793877599772,34.65871259228845 62.21470438221115,34.54580646591023 58.89996632000077,36.09841743639083 58.78637058663992,36.01977619034699 58.97999305776432,32.89219901817671 58.92574381331326,32.65361636837008 55.3434004177758,30.148147332634494 54.40230345776183,29.864823083603937 54.41999817777071,25.620185408631755 54.42414879109822,25.572692515873882 35.3022731644229,24.26759904798348 35.226397039986864,24.354537263679617 36.84353424888798,20.84021266601451 37.1088094133371,20.599621575594597 21.398373857758656,8.424448250537921 21.02292539555458,8.052549999999997 18.862203475560477,11.376191755006971 18.8482224622054,11.400347049937068 13.08768087998726,10.414342117895671 12.919034906669935,10.381559329565448 17.5668480266537,15.432404198312383 17.634932648863128,15.493823018936041 14.128538195545502,15.874986194706821 13.809159422212929,15.8455421830364 8.052549999999997,27.106013350690432" stroke="#009edd" stroke-width="5.7348534394765815px" fill="none" stroke-linejoin="round" vector-effect="non-scaling-stroke"></polygon>
</svg>