<svg width="305.73105436435435" height="280.56843457667856" xmlns="http://www.w3.org/2000/svg"><polygon points="5,28.99918134266045 5.542638079961762,30.855673442070838 5.663224319927394,31.397258976940066 5.877017315477133,31.960274349199608 6.384411591105163,33.70869356067851 7.0324898132821545,35.89285862824181 7.167057066573761,36.49202686117496 7.386092942208052,37.48721401189687 8.153883591061458,39.28961195098236 8.542730524321087,40.8339387018932 8.60040220443625,41.984475182020105 8.640306346584111,42.91936535725836 8.744872675510123,44.50920529454015 8.75623224885203,44.6627865282353 9.038765226607211,46.38878221344203 9.975201848894358,51.302840174525045 10.860374755458906,56.106965811690316 10.943095751106739,56.670810875017196 11.42718833766412,57.10385004640557 11.571658808854409,57.400726924533956 11.5343761065742,59.392247032839805 11.714672924368642,60.88464762864169 12.049343431019224,63.35514436394442 12.832280177739449,66.01489284588024 13.003838862176053,67.76259528053924 13.039373937761411,68.82058465084992 14.40805688884575,68.72996381943813 15.63751224882435,68.57863141194684 15.554499982157722,67.37734303646721 16.211607608827762,67.27199004590511 16.657834951067343,67.19743938231841 17.5281530310167,67.03539204440312 18.018362311064266,66.91530730103841 18.653042062185705,66.77200906444341 19.04567551985383,66.661298836465 19.598508088849485,66.51398272102233 20.05259975104127,66.42336094047641 20.537857422139496,66.34880998951849 21.06214542221278,66.31845390656963 21.412835839902982,66.22604639263591 22.825209457660094,65.55731839762302 23.513191822101362,65.2890230838093 23.52338631101884,65.19438306149095 24.272535608848557,64.90912350302096 25.169941902160645,64.45690375869162 25.303635342163034,62.855154489690904 29.02054599102121,61.164555318886414 29.384343608864583,61.52571160555817 29.156569599872455,61.938205823884346 28.411789368838072,65.51356976642273 26.766398862120695,72.38244483678136 26.149486648850143,75.12734578602249 25.597819164395332,77.6365186899202 24.86614613328129,81.35625576850725 23.623583573265933,84.29254051012686 19.94075164431706,84.32958976342343 19.78783431102056,84.95585511461832 19.648024177644402,85.85842399892863 19.312771128839813,85.78254050610121 19.052957297768444,85.88743826863356 18.442453048890457,86.42576387221925 17.567765902145766,87.10960511286976 16.69424383994192,88.52191802999005 16.463265848811716,89.13165588967968 16.434721279889345,89.96055743249599 16.50986922660377,92.28833910555113 16.633950719959103,93.31942916527623 16.646184106590226,94.84730828658212 16.41054577776231,95.65163887350354 16.466469831066206,98.87428801174974 16.732109084376134,100.96496758027934 17.279990044306032,102.39281354891136 18.04865450656507,103.79208469076548 18.923632924328558,104.76599001203431 21.55555868439842,107.13110695936484 23.276970951003022,108.41519548324868 25.106153528904542,109.6104578091763 27.300590079976246,107.83496871450916 30.563117795507424,105.46807399089448 31.401978595531546,104.79232378088636 31.815292302169837,104.50890084973071 32.30841429333668,104.15540276153479 33.11203128879424,103.55909661989426 33.845451946603134,102.95654012134764 34.56896938662976,102.19463854411151 35.13927822210826,101.6126100217225 35.42559772438835,101.28231707791565 35.7477435732726,100.87837706122082 36.24290446215309,100.23073246073909 36.85515633772593,99.36348381399876 37.39342535100877,98.47569975274382 37.89907199994195,97.71110457833856 38.33364849770442,97.00810317043215 38.48132295103278,96.66842994006583 38.71171839989256,96.127451256325 38.98696959996596,95.57352698629256 39.57883249770384,94.39872086187825 39.731167288846336,94.40764798375312 40.58866943989415,94.37997390492819 41.46160895994399,94.27195569279138 42.38348202663474,94.14295866759494 43.30652017774992,94.03136948449537 44.25373383099213,93.95638152165338 45.231239679967985,93.82738431164762 46.14320952876005,93.67785457917489 47.94850787543692,93.41361074394081 48.724454115494154,93.31942916527623 49.53098382218741,93.2739006151678 49.44884536881,95.5271061945823 49.774195199948736,95.5324624403147 50.21663601777982,95.54629940772429 55.97331825771835,96.05692753463518 56.44401237333659,96.08147693402134 56.99305841769092,96.13012937188614 57.57297919993289,96.14307359670056 58.09435448877048,96.21315093839075 58.755539910984226,96.25823252857663 59.42662855098024,96.32563172042137 60.070920248748735,96.35776907613035 60.63831637322437,96.38990642724093 61.14833208883647,96.44346866861451 61.28406442666892,96.44079055683687 61.48416767991148,96.8518803305924 61.5593156266259,96.95141660992522 62.053020159946755,97.30001640837872 62.47798471106216,97.5312257015612 63.5408329955535,97.84724109963281 64.84310613328125,97.95615025609732 65.3440924444003,97.96820167580154 66.26043135987129,97.9775750017725 69.14139391994104,97.76243475195952 71.39612359099556,97.94142074213596 72.26294641767163,97.78743031050544 74.3516515555093,97.17727006343193 76.39054933330044,96.82242115406552 77.42543559102342,96.5711252912879 78.07788287987933,97.07550213276409 78.64178375096526,97.22815401107073 78.98053205327597,97.36384448083118 79.2199569066288,97.69548234925605 80.68009898660239,98.73368865216617 81.12166599102784,99.29385382088367 81.18691071996,99.50408277148381 81.43186972429976,99.66699891153257 82.12101717328187,99.68172831006814 82.73734684439842,100.01827248022892 83.27503331552725,100.71992525015958 83.30590805329848,100.94175775372423 83.56368298653979,101.23545114713488 84.4173986131791,101.43987580074463 84.89450069330633,102.14197038218845 85.3963608177146,102.68739768594969 85.66869930666871,102.77889722411055 86.13327672879677,103.46670473041013 86.03045802656561,103.8090454985504 86.2684265243588,104.11255446984433 87.01058531552553,104.41829470195808 87.0248575998703,104.91461954719853 87.46496824885253,105.53145336266607 87.90187491546385,105.88227124535479 88.11654172441922,106.62719947652658 87.96828472882044,106.92445593443699 88.90705151995644,108.52543839643477 89.29910243547056,108.77136469644029 90.42020494211465,108.93962990131695 90.79769230214879,109.76711792452261 91.26343480881769,110.29869030590635 91.93248455110006,110.58299843326677 92.22026040882338,111.51625848235562 93.37922815990169,113.02124914084561 94.63577173335943,113.85318499640562 94.97452003543731,114.37582120415755 95.15044778666925,114.72483974019997 96.13756558217574,115.3867237571394 96.47456625767518,115.26889694354031 97.09643007989507,115.90043007564964 97.58955207106192,116.21865067805629 97.79577201779466,116.7011132951593 98.11500515555963,116.92739280790556 98.30957425769884,116.98898364102934 98.74152931547724,117.1063632244477 98.8892037688056,117.21794071717886 99.36018915555906,117.61649505980313 99.50232945778407,117.64996823610272 99.60165290662553,117.77895149425603 99.69340330653358,117.87937093374785 99.804960142239,118.10163246345473 100.07089066656772,118.28104823350441 100.37585151998792,118.45153771038167 100.43177557329182,118.56132929318119 101.00179313775152,118.99692462722305 101.10781582212076,119.16696724412031 101.37753287097439,119.51463927264558 101.67404686217196,119.79848919971846 102.04891278222203,119.92925641720649 102.68970922660083,120.3581544936169 102.73048718215432,120.5268571501947 102.78524615103379,120.56836333952378 103.23759018653072,120.96468010841636 103.40128455113154,121.21817964978982 103.50497706665192,121.41946164809633 103.80527758214157,121.63948810112197 103.97101084433962,121.63234728667885 104.32607032882515,121.90369807480602 104.65229397325311,122.0076860350091 104.86259171552956,122.46469691733364 105.13667783106212,122.76594868930988 105.45591096882708,123.22385059378576 105.49173731554765,123.5420606158441 105.6204791466007,123.66122189431917 105.74485191097483,123.71700898755807 105.94903295999393,123.83081461396068 106.07602716435213,123.92230536893476 106.29418922658078,124.16062745003728 106.46778680884745,124.15125523821916 106.55545941332821,124.21061257290421 106.67313294217456,124.37931227881927 107.03401784889866,125.01974517130293 107.21897500439081,125.47853497654432 107.2562577065546,125.6574984450126 107.50908103096299,126.28855550009757 107.4685943465447,126.40726900158916 107.539081955445,126.59292607847601 107.66694997332525,126.71654861257412 107.7365637688199,126.82365833339281 107.77938062208705,127.29226274933899 107.70976682659239,128.45618254737929 107.89122872881126,128.92835377930896 108.05171911104117,129.27690297132358 108.29376540437806,129.42685482278466 108.37910783989355,129.43176395905903 108.50056789326482,129.38936686946545 109.26952362665907,130.00747099902947 109.48943331546616,130.17170342913596 109.53894940437749,130.28595200396376 109.77750044432469,130.39841538690962 109.79876323556527,130.55059788911603 110.04605240887031,130.81345832708757 110.43955967994407,131.12540944153443 110.82636771549005,131.6377402129583 110.97666360880248,131.88944235059898 111.06025841773953,132.36339133966248 111.50473813328426,133.05021391250193 111.51551516435575,133.16356843919493 111.94310115545522,133.32021180330776 113.04177578655072,133.37287251040107 113.55062641773839,133.45275610138196 113.85820871102624,133.76782741222996 114.1247217777418,133.86377680127043 114.49143210658804,134.20339267497184 114.52085048879962,134.44973658159142 114.71745848888531,134.67822923418134 114.98659299546853,135.3204172757687 115.7453542399453,135.437787090661 116.42372465773951,135.46947246720083 116.71936483553145,135.7242941330187 117.12102769769263,135.91752998065203 117.40792974212673,136.09514615300577 117.7344446578063,136.03534574911464 117.92580977769103,136.13397177960724 118.0064918755088,136.80025416816352 118.89894655998796,137.46831961662974 119.33264924446121,137.59059724153485 119.36323271109723,137.7360807506484 119.54090808879118,137.71733748179395 120.0998573510442,137.43127930082846 120.31889322656207,137.4286016873666 120.4496739555616,137.7164449451957 120.87289087986574,137.98286697419826 120.86269639106467,138.2403633359354 120.98532152886037,138.3256003668066 121.14610318210907,138.2992706068908 121.51980401773471,138.42511790565914 122.0181688888697,138.46349685476162 122.22584519104566,138.51749513240065 122.46585258666892,138.60317832260625 122.65780024882406,138.58800526009873 122.83955342217814,138.87629326886963 123.0242193066515,138.89102004555753 123.20917646214366,139.15030040731654 123.73492081777658,139.15387053065933 124.6856297244085,139.35201228491496 125.48808163544163,139.6188786001876 125.75226453319192,139.85316732281353 125.94741617771797,140.3752955797827 126.23635711998213,140.47436592984013 126.6380199821433,140.58860916108824 127.33765319106169,140.84297864278778 125.55653034662828,141.8385868947953 123.8590023110155,142.1732816209551 122.69246151100378,142.53118128550705 122.18419342220295,142.64676222507842 121.91272874665447,143.00287608988583 121.87078570656013,143.19878309586784 121.54747477325145,143.57854766130913 120.53297749324702,143.73741489992244 119.95596942224074,144.10869968484621 119.37284465774428,144.93560934258858 118.90972359105945,145.09492185577983 118.24562545772642,145.56973493722035 117.99221959104761,145.8031248266925 117.62026638223324,146.00840062450152 117.56667249766178,146.24536005756818 116.99490730662365,146.7830919121625 116.009537137812,146.68893315113382 115.49689998221584,146.51400302367983 115.65884671988897,147.8683691342594 115.78001550212502,147.84873423195677 115.83768718212377,148.05356187617872 117.36394780443516,147.66309506969992 117.64036408881657,147.92370384937385 118.00532679108437,147.78581328346627 119.87150079989806,146.77862941264175 121.33135160885286,145.71387442015111 121.70767388434615,147.5635817043949 121.60106865770649,147.68719246983528 121.39310108439531,150.10227408597711 121.23144561774097,151.4227038549725 120.94541738659609,152.84442168544047 120.54928867542185,154.29245819151402 120.16684970655479,155.3843919057981 121.68058567109983,155.70523286331445 124.40426183107775,156.4147404144751 126.10674147552345,156.91362548794132 127.32949759997427,157.50755606533494 129.69112376880366,158.39019374008058 130.07909688877407,158.47140693792608 130.43590399995446,158.45489656494465 132.16255914664362,159.40580278570997 132.52519167994615,159.7725989263272 134.3296162133338,160.67753861728124 135.51945870218333,161.36114937078673 136.6953201777069,162.00058231328148 137.7310802488355,162.17996233078884 139.09219015098643,163.2232193389209 140.23280782217626,163.8626468764851 140.8596232533455,164.0710293506272 141.2065271466272,164.38828794233268 141.74945649772417,164.7756016093772 142.19830527994782,165.31864278158173 143.64067982218694,166.01562546321657 144.29807871987578,166.91875467228238 145.8962833066471,167.38013446965488 145.99677183991298,168.01598028588342 146.59941176883876,168.02445821766742 147.88449991098605,168.496544642956 148.3782044443069,168.43630682840012 149.3682349510491,168.42515167570673 149.98951623099856,168.7357109147124 151.04945180437062,169.28498918644618 151.41965738660656,169.65712332178373 150.73808298655786,170.36078531033127 149.95835022220854,170.93415438744705 147.85886805329937,172.61543347447878 146.86009941331577,173.85496700461954 146.2726055822568,174.6112664345419 146.01832590217236,175.3639937316184 146.2845476977527,176.72264437540434 150.04107121773995,179.88298060221132 152.4085228088079,181.57043790898751 154.4500420265831,182.80188986915164 154.69383594661485,183.7656300800154 154.57703623105772,186.69474979530787 154.70927331550047,187.1311027581105 155.3323022221448,188.42632532783318 155.99698289774824,189.41190295299748 156.57195207104087,190.03117717721034 156.97944035555702,190.21231902041472 158.02626872889232,190.88022250973154 160.28041585767642,191.6908948997734 161.32520533329807,192.46899481746368 162.37465514661744,192.7041196533246 162.611749831005,192.64968849928118 163.86042908439413,193.0597064520698 165.77699299552478,193.71377050795127 165.9532120176591,193.27073824568652 166.31001912883949,193.65710882819258 166.82236501330044,194.30090957530774 167.25781532435212,195.3020762304077 167.51995932438876,196.6378503246815 167.34461411542725,199.3852186112199 167.61928277323022,201.19967641320545 168.4785325509729,202.98422815359663 169.27748920884915,204.01926154003013 169.9459564088611,205.18143762939144 170.0988737421576,205.87517129833577 170.19149795547128,206.1852316207951 170.3522796088364,206.5251821493148 170.5870441243751,206.80490482854657 170.83899363549426,207.0431372609455 170.9895807999419,207.24746374873212 171.4436724621337,207.75292562152026 173.15955057763495,205.99294965923764 173.25625258660875,205.99161126918625 173.7196649244288,205.5883093450684 174.18045582214836,205.45268552331254 174.37385983997956,205.39870364998933 174.76125041767955,205.40494948730338 175.79409777768888,205.97242767666467 176.03847423999105,206.73620104545262 175.6423455288168,209.09442383953137 175.8322542932583,209.8528329191613 175.79788430209737,210.41896128933877 175.8281764977146,211.355367433629 176.35042559995782,211.86171211872716 176.53829546656925,211.77293458837084 176.76752583112102,211.27238925092388 177.07889464881737,210.5220152332913 176.96646399993915,209.74933253973722 176.9015105421422,208.4979555704631 177.2213262221776,207.96349721576553 177.93523171544075,207.293861003418 178.7187510044314,206.80133580137044 179.43556920881383,206.6322530732141 180.20656383992173,206.73932394519215 181.647190755466,207.21266580128577 182.21953848889098,207.70295945100952 182.58537500433158,208.29942987218965 183.0732541155303,209.09130097320303 183.26141525327694,209.90949043387081 183.46909155556932,211.312539988372 184.45737443550024,209.95142590778414 185.71042275545187,209.33220767305465 186.3850066488376,209.37012814811897 187.2165856710635,209.32774644024903 187.75339832878672,209.5106569105992 188.36069859552663,210.1155987501843 189.21790947543923,211.19342611252796 189.53918151103426,211.61991594725987 189.65102961775847,212.26411032490432 189.57733802660368,212.62368060584413 188.94265827548224,213.73227759223664 188.52614058658946,214.79135054990184 187.46737009775825,214.43669104884611 186.6017123555066,215.23433953977656 185.14448298653588,216.60389704752015 185.834212977672,216.87959195952863 187.1190098488005,216.69267263135407 188.37380579544697,216.93446323578246 189.0044077510247,217.20881941216066 189.8123938132776,218.19694492372219 190.62067114654928,218.73583949788008 190.8551443910692,219.14268618403003 191.0867049244698,219.46834143309388 191.0861223821994,220.0099095075857 190.93932174216025,221.05824590241536 190.3754208710743,222.42018356529297 191.46739626664203,223.39044191426365 191.98673265776597,223.68709476356162 193.27822876430582,224.1470174138667 194.1599064177135,224.32545465312432 195.0013886577217,224.04575421637855 195.8737456355011,224.09170184039976 196.9202827377012,224.35891161940526 199.3564743109746,225.60618369694566 199.90581162658054,225.9800070717465 200.06921471992973,226.31591226020828 200.20407324435655,226.91277838335373 200.22941383102443,227.3008743225364 200.1755286755506,228.08777019754052 200.11465301329736,228.99778233119287 200.08814734220505,229.98630105680786 200.13329436432105,230.57958859566133 200.0234851555433,231.6550854673842 199.77910869324114,232.7435132904211 199.08937870222144,235.32181676250184 199.30346296878997,236.26748452242464 199.70716472889762,237.5476980897365 199.73134023102466,239.01391264400445 199.7100774399005,239.69906462496147 199.50677020440344,240.52472345886054 199.14967182220425,241.52657221688423 198.97869567992166,242.17603184550535 198.94170424889307,242.32367659022566 198.3282872887794,242.08548230060842 197.4495223466074,242.80140256346203 196.80552191997413,243.17475071246736 196.29201095108874,243.57619962911122 195.81199615995865,244.1681124198949 195.53004572435748,244.67482775822282 195.20760860433802,245.61376463179477 195.18488945777062,245.79084633954335 195.1540147199994,246.0540153653128 194.92099783103913,246.76323202240746 194.58516223996412,247.38680553692393 194.1494206576608,247.90243437775644 193.3778434843989,248.69505525159184 193.31638527999166,248.7030840360094 192.98025841778144,249.195069541689 193.07055246212985,250.0206927951076 193.4634771910496,250.96540539705893 194.23010275547858,251.39940090518212 193.73814584885258,252.41458130429965 195.47295658662915,253.97748609789414 196.51861987554003,255.9645536695025 196.6703721244121,255.7785595524474 197.30505187553354,255.53502744971775 198.44596081774216,255.59791763394605 199.22540231107268,255.71165515546454 200.09193386661354,255.8579527438851 203.69728767988272,256.9235136518255 203.84379704878666,256.9516133465222 204.26293617777992,257.02922200842295 205.77783722663298,257.31289481616113 206.63766954664607,257.41771093418356 208.6471489421092,257.86641256092116 210.02340494212694,258.2852296564379 209.04444273770787,262.3881678188918 208.42257891548797,264.8278611100395 209.32697571557947,265.38403603766346 209.37183146667667,265.70204079861287 211.12120575993322,265.826477319235 213.08437304885592,266.6694325443823 214.21683512884192,266.9968015879276 215.45852387556806,267.3103439625702 216.82895445323084,267.8178980984958 217.32877567992546,268.099773001275 217.8784042665502,268.0810408195248 219.16553130664397,268.4240178944892 219.68020735995378,268.81783876684494 220.16983409773093,269.02790601120796 221.2192839110503,269.0631402002764 222.0281437865924,269.3178073996096 222.48019655107055,269.2856952645816 223.0857491911156,269.0939143608557 223.85062712884974,268.4280319273239 224.8919213510817,268.1555235327105 228.0807574755745,268.7259621596313 232.5881779199699,269.76470079272985 234.6894077154575,269.74418474867707 235.2413664710475,269.612614420359 236.6150010310812,269.6282244633767 236.8206384354271,269.1229045081418 237.76814335992094,269.037272061978 239.36227015103213,268.36023936304264 239.65208490658551,268.07925680221524 239.53091612434946,266.8509574010968 241.35427328001242,265.37734589050524 242.19488170661498,265.0361481157597 244.3453363199951,264.4862164729275 245.1868185598869,264.2890792480903 247.15318983106408,264.1383271337254 247.48786033771466,264.1418952322565 249.0720839110436,263.84529684111476 249.2328655644087,266.24260323814815 249.4891841422068,268.08550086291507 249.82531100441702,269.5439302177401 250.0411428976804,270.6442128876806 250.27794631104916,272.1374130102922 250.48154481768142,273.77555072982796 250.72213475545868,275.0729400268174 250.84796387550887,275.07427799736615 251.76867185765877,275.07962987961946 253.2410473243799,275.56843457667856 254.27185578655917,274.922195289284 256.25715967989527,273.4009164419258 256.1866720711114,272.652091950411 259.8374641777482,272.00896608573385 261.07973546662834,271.91932079184335 263.71865173324477,271.7444900640985 267.0685607822379,271.43362998368684 268.91114183107857,271.38412424887065 271.68608170666266,270.5880169866141 272.3204701866489,270.38107322726864 274.59850154665764,270.26912727649324 276.64438983111177,270.7249387205229 280.1591583287809,272.50937347393483 281.265697279945,273.6618225312559 281.50861738657113,275.0680341345724 281.81882111995947,275.2022771454649 281.84416170662735,274.42982122686226 281.8121218844317,274.02396859106375 281.73610012431163,273.545864307438 281.0382145422045,272.2359781343839 280.988989724312,271.0652356907958 281.22899711993523,270.10901324800216 281.94115498661995,270.4354851827957 282.86914474656805,271.55984725710005 285.35281351103913,271.77927782200277 284.78425230213907,269.54437621915713 286.5327527821064,268.1220732155489 285.5564120176714,266.14626547467196 284.1329700977076,265.8202331943903 283.3555675022071,265.479928124696 282.84293034661096,265.09011538070627 282.2038815288106,264.345722767408 281.2983196444111,263.11695654154755 281.085983004421,261.90334803739097 281.11074104881845,260.4564646294457 281.3693897954654,257.6028116166126 281.5590072887717,256.3552746125497 280.49994552880526,255.80219910119195 277.95103203551844,255.14029077754822 277.1337252977537,254.8253929929342 276.6079809422372,254.42351853777654 276.0609737954801,253.8409999909345 275.2792021333007,253.27944351744372 274.49422648886684,252.90165213792352 272.39794830209576,252.06979516422143 269.8513649776578,251.2134029349545 270.0596238222206,250.36682026198832 271.36131441767793,247.15307718742406 272.197553777718,246.18604580900865 274.1828576710541,245.9411649571848 275.8629094399512,245.40099876449676 273.2746743465541,240.5318604207132 271.79792981327046,238.13427429518197 268.837741511059,237.455808443774 266.96661589317955,237.08914161112625 265.8472610133467,236.847373122524 264.3090582755394,236.50613116956083 263.4358274843544,236.36874210333917 261.57227491552476,236.24607322184602 259.50133731553797,235.85933124652365 258.6490780444583,235.26695006515365 257.92905585770495,234.67010657140054 256.90086883550975,233.99742900684942 256.3701728710439,233.68250100628939 254.20253326219972,232.62128846673295 254.14398776879534,232.5998768118443 254.87886478216387,226.52423567220103 254.77109447098337,226.44572408823296 254.64089628437068,226.3551680786768 254.89168071106542,226.0620875369059 255.2895570488181,225.3974133261945 256.11909717321396,223.96634956193157 256.7121251554927,223.0723760848632 256.8758195199771,222.83237659966107 257.1705858843634,222.53170773072634 257.5553550221957,222.12174462073017 258.03682616876904,221.64709649811266 258.51334570662584,221.1380977042718 259.00472007109784,220.65318715467583 259.45589902217034,220.22805310878903 260.1223273243522,219.73109579691663 261.2014867910184,218.9486311149667 261.5513033955358,218.67873814847553 262.69716394669376,217.5710582631873 263.810110862134,216.42322301038075 264.606154808891,215.3882478927262 265.68123648001347,214.3425611986313 266.0893073065672,213.79161079484038 266.3910641777329,213.3999221395934 268.3868538310053,210.7374915058026 268.90007352887187,209.64583211170975 269.0841568710748,208.70272683363874 269.17911125323735,208.16246934240917 269.5484430221841,207.2595091908006 269.7240795021644,206.83211865875637 269.99117511115037,206.3748366390355 270.53090047999285,205.41074919316452 271.7178302577231,203.35095174587332 271.95405112882145,202.83477249986026 272.36852991988417,201.9728352293023 273.0069961955305,200.88470153015805 273.48468081769533,200.06023256579647 274.09605887986254,198.87795296305558 274.42432142223697,198.31491795607144 274.54782037320547,198.07935296202777 275.36308821325656,196.40719118149718 275.81717987556476,195.48098298319383 276.33476863999385,194.66184763261117 276.9071163733024,193.7008320153691 277.33411982213147,193.2247841937351 278.31657727994025,192.32042434590403 279.0674742044648,191.5209082561778 279.56933432875667,190.85122206632514 279.8941016177414,190.2221345839789 280.34324167098384,188.6654699642677 280.4303317333106,188.07876204437343 280.7617982577067,186.75453644868685 280.91733703098726,186.31996741949115 281.30094108439516,185.27860447124112 281.0524868265493,184.93639029411133 280.720146488864,184.4768319579307 280.4483905421803,184.0980302396929 280.0027457420947,183.64650131005328 279.32932693324983,183.1708779387409 277.814717155532,181.49324884318048 275.36658346652985,179.90484356379602 274.7525839643786,179.6482882660348 273.4916713243583,179.3020496860845 272.10696846223436,178.81080045795534 271.1699492976768,178.62563357088948 269.98010680882726,178.24235992948525 269.1368769421242,177.84926950681256 265.1129665421322,175.9355650235084 264.77596586651634,175.52819234982599 263.6193282844033,174.77992754627485 263.14455637324136,174.52693583024666 262.2191880532773,173.6974600709509 261.5041174754733,173.00897943298332 260.81263985775877,172.10721378715243 260.01222684432287,170.70168352511246 259.51240561774466,168.636207068339 260.98711125319824,168.38856277102605 262.82794467546046,169.73163931409363 263.12533247994725,170.13411447766703 263.37145656882785,170.41700678004418 263.525830257684,170.9011355083203 263.62020209780894,171.41426617873367 263.58000668440945,171.92739565391093 263.8246744177304,172.21073185192654 264.01633080886677,172.3909959520097 264.3276996265631,172.59223119646776 264.8851925332565,172.80551358300727 265.34540088882204,172.83407020487357 267.21215744002257,172.65514505992178 269.57378360885195,172.481127946754 270.894989368855,172.2986329291016 271.8675436087651,172.24419673311058 272.22551580436993,171.36607656651177 272.4993106487673,170.0390732913511 272.4882423465606,169.7981236212654 272.5074662399711,169.23813772201538 272.64261603553314,167.93610922805965 273.1371943821432,166.2115120042581 273.5237111466704,163.25356206932338 273.9644043376902,162.16479089215863 274.11528277327307,161.82923410041258 274.4330595554784,161.35847204818856 274.9206473955419,160.82568420865573 275.9130080710165,159.84310225077206 276.21097841777373,158.68693412549328 276.23457137774676,158.5606521758018 276.52409486216493,158.1139793980401 276.5823490843177,158.03365852270508 277.05362574208993,157.54280809301417 277.0378971021855,157.1229069935507 275.9264065421885,156.5709210151108 275.81659733329434,156.55173311877297 272.7381529598497,156.37011736544082 272.42328888888005,156.27685516362544 272.1797862399835,155.9198702943977 271.2366503821686,155.71281880512834 270.7196441598935,155.81188225746155 270.722265599994,155.478546950093 271.0735385599546,154.81187482213136 271.6834602665622,153.32055677345488 272.5630990221398,153.22863199119456 274.15518691553734,153.1965029319981 274.80384767998476,153.28485783340875 275.50027690653224,153.45844387478428 275.6968849066179,153.77170162886614 276.19262833776884,155.40759599627927 277.02449863101356,155.79135559988208 277.02449863101356,155.8092048674589 277.5616025599884,156.04436883330345 277.4471330132801,156.29336569987936 277.49664910219144,156.3152310026344 277.3041188977659,156.67176900128834 277.12819114665035,156.9582484269049 277.33266346657183,157.07114442216698 277.8648157865973,157.4062622334459 277.9271478044102,157.30229098303244 278.6387231288245,157.5512864277698 280.86141297768336,159.0189259025501 282.27320405328646,159.422313087387 283.1170164621435,159.75430375611177 283.3631405510241,159.93770161265275 283.0561407998903,161.427636204171 283.8271354311146,161.8319114172482 285.3286380089121,161.91847797785886 286.5324615110876,162.09562696760986 287.479383893311,162.1473883583676 289.79382414219435,162.62439577491023 290.3888910221867,162.87472385622095 291.38474695105106,163.4391880936455 291.90146190219093,164.0116827559541 293.78016056888737,165.2030737370951 294.6085356088588,165.37308068881975 295.9017793422099,166.23694600712042 297.42017564433627,166.86119368195068 297.8093138488475,166.9321409468539 299.1491609599907,167.20611318957526 299.55315399111714,166.1856317879283 299.6297582932748,165.83000160980737 299.7270428444026,165.44849055458326 299.94112711108755,164.67921947012655 299.8534545066068,164.65780121122953 300.34715903992765,163.22277312225197 300.45522062224336,163.2432990873931 300.69435420434456,162.42315142485313 300.73105436435435,160.50886670826003 300.69056767993607,159.84444092120975 300.6928978487849,158.99170616548508 300.68678115552757,158.92164879385382 300.57172906654887,158.80786129576154 300.2787103288574,158.62981721025426 300.3987140265526,158.21795026527252 300.4785223110812,157.06623590184608 300.5207566221943,154.81365975691006 300.2044361955486,154.44239301473135 299.99006065772846,150.60429715109058 299.62480668432545,148.1102352865273 299.5030553599354,146.82013065554202 299.4692679110449,144.53665817371802 299.52752213319764,141.41910211974755 299.60878677328583,140.98890626552748 299.2464455111185,136.59050708299037 299.190230186563,136.19154079968575 299.12585927103646,134.6278002121253 298.8744923021877,130.92324374814052 298.65953422221355,129.7629072619602 297.8835879821563,128.04559804470045 295.8411949510919,124.47928241395857 295.10923064884264,123.43896597460844 294.54299960890785,122.58921436639503 294.23366968880873,121.81309908232652 293.8899697776651,120.50097156577976 293.41432405321393,118.17170281894505 293.29140764439944,116.90150680049555 293.01557390217204,114.27004437742289 292.6832335643703,112.5030729129212 292.0447672888404,110.26967925182544 291.6139773154864,110.45267199038062 291.10454414214473,109.88851827918552 290.3871433954919,108.40046666876879 290.36122026667,108.28129713376984 289.87916657770984,108.49196383345407 288.50116295111366,109.51494417991489 287.1572380444268,110.04473187233089 285.45068060432095,110.77581001573708 285.27184014220256,112.28660789178684 284.2550126933493,112.07148161868099 283.21837880881503,111.78137324133422 281.4955101866508,111.15295255358797 278.9404799998738,109.99295823660214 277.29305059544276,109.3350749432575 275.80290759098716,108.75976019480731 275.85854037327226,107.63947658194229 272.8415542044677,106.67718857864384 272.340276622097,106.36921982304193 272.20687445322983,105.9804644457763 272.7946595555404,103.60015966941137 273.65653077326715,100.49586080457084 272.47513514664024,99.89374227030203 271.24975758220535,99.54961003368953 269.784081351012,99.5259537124075 269.3757192532066,99.56523213139735 268.1197582221357,100.41685794759542 267.87945955549367,103.2859378781286 267.61848063999787,104.14201267133467 266.94331420445815,104.28707193897571 266.505242453306,106.22951791225933 265.96435199992266,107.76578772853827 265.28248632885516,107.62117708119331 264.0614778310992,107.75686114811106 263.36417479102965,107.7126745696878 262.9700849776855,107.53325019066688 260.9442943999311,106.55578645394417 260.96147939551156,106.43438426230568 260.33145998220425,106.11838118510786 260.35126641765237,105.92467285995372 259.8936795021873,105.72293036786141 260.0058188799303,105.01459851732943 258.8054906310281,105.06235631299205 255.97229653329123,104.79098477575462 253.9150486754952,104.47096231946489 252.55714275548235,104.17861224937951 252.05266119109,104.03087489079917 251.97343544883188,103.75414603704121 251.456720497692,103.5881085578585 251.06321322661825,105.34354686224833 250.99389070214238,105.46093265211675 248.92266183102038,104.96505537256598 247.20357973326463,104.54371502471622 247.07658552879002,104.50265215110267 244.50757432880346,104.12282020715065 244.21222542214673,104.07818656321615 243.93318769766483,104.03890894906363 243.7263852088945,104.00721905077808 243.60638151108287,104.26341612642864 243.48958179552574,104.49908146605594 242.18905628437642,104.60084596654633 240.9919320177287,104.09916437696666 240.33424184878822,104.13442495313939 239.96345372439828,104.16834651463432 239.71965980436653,104.08220359159168 239.48431274667382,103.93803686246974 238.7989518221002,103.83314769685967 238.07310421334114,103.68898080475628 237.72066616883967,103.63542032544501 236.97442958212923,103.51490919932257 235.87604622216895,103.48277288791724 235.44787768879905,103.41448321053758 235.1554414932616,103.39261265587993 234.275802737684,103.26317463436862 232.84711793775205,103.0797295839875 232.6222566399956,103.0078690724913 232.31176163547207,102.84986513236072 232.0522390755359,102.92038667888846 231.69048035540618,102.87932350265328 231.38027662213426,102.93690121505642 230.89793166215532,102.89539170300122 230.74297543102875,102.76282901526429 230.32237994659226,102.86370164016262 230.15664668439422,102.9779643806396 230.05324543989263,102.97439367079642 229.7913927109912,102.9110135633382 229.4593436443247,102.91726230713539 229.22632675548084,103.07928324543172 229.01078613335267,103.15114373364486 228.9035983644426,103.33994478039676 228.8703934577061,103.43680010095704 228.66912511992268,103.43546108761802 228.56018972443417,103.63586666283663 228.42474865773693,103.65238114533713 228.02658104884904,103.4921459791949 227.75599018658977,103.52205060125561 227.14635975111742,103.45286826055963 225.6113609955646,103.20381165423896 224.48821959097404,103.05205659475178 224.1582094221376,103.05785899597686 223.58236643555574,102.97707170317881 222.97273599996697,102.95341575000202 222.73738894215785,102.86995038529858 222.51660543994512,102.82040675811004 222.16678883542772,102.72176580957603 222.01445404440165,102.6704367918428 221.92066474654712,102.56956407846883 221.80590392882004,102.52894717641175 221.66929777769838,102.65615393256303 221.55249806214124,102.70078786462545 221.4391935999738,102.65213687816868 221.21462357335258,102.60661025729496 220.73606513766572,102.69096840033308 220.7538326755166,98.66941462940304 222.17581823992077,97.41785283526406 222.1845563732786,97.35670287918765 222.2398978844285,96.64432695764117 222.51340145769063,95.88017177849542 222.72311665781308,95.11422852950636 223.12769223109353,93.80551280488726 223.0184655643534,93.77158964716364 223.06099114660174,93.63500424905214 223.16934399993625,93.66982014290988 223.43003164429683,92.82352454861393 223.57304575992748,92.37270120088942 223.50226687989198,92.34770502790343 223.5625599999912,92.17764170398004 223.62896981323138,92.2008524541161 224.17510314658284,90.52654764673207 223.08749681769405,90.17391984496498 224.14947128877975,86.77125573041849 224.9414374398766,84.21978111495264 224.57327075547073,84.01712598581798 224.73317859554663,83.62609926232835 224.8782316087745,83.43460304522887 225.02823623106815,83.11722782917786 225.4363070577383,82.23562760697678 224.51181255106349,81.91646513750311 224.09995519998483,81.81558291811962 223.89635669323616,81.75219672120875 223.741400462226,81.70398748881416 223.34032014210243,81.56828737066826 222.5527230576845,81.32009878015378 221.97076337772887,81.12815417489037 221.7927967287833,81.1678822580725 221.66696760884952,81.1928796999855 221.2749166933354,81.26385456434218 220.93296440888662,81.33036557992455 220.80742655997165,81.36027321126312 220.59829390223604,81.40669698920101 220.2589630576549,81.47454710851889 219.91701077320613,81.54462911770679 219.40029582218267,81.65488548204303 218.05025422212202,81.87093423004262 218.89231900440063,82.9998301298474 219.13232639990747,83.58101508638356 218.82299647992477,82.99134892481379 218.01471914665308,81.90932303504087 217.2116846932331,80.66391536826268 217.05265066656284,80.3469825439388 216.27408298663795,78.69713895348832 215.5936736711301,77.72624307667138 214.8649133510189,76.83703261503251 214.70092771551572,76.44510035787243 214.62694485322572,74.89075622370001 214.59694392886013,74.88182831072481 212.8930079288548,73.37122022209223 212.54552149330266,73.13686076918384 209.50960270210635,70.27497693209443 208.95181852439418,69.7540216849302 207.6938185954932,68.58220267936122 206.86544355552178,67.96883664524648 207.4069165510591,67.23493792279623 207.46167551993858,67.16261930321343 208.02178986661602,66.35059564135736 207.6300302222371,65.30018346110592 205.27685091551393,64.14307253144216 203.10629859543405,63.32300219195895 201.4122658133274,62.595337874721736 201.18769578658976,62.52748193847947 199.62298737769015,62.04713273968082 198.8313124977285,61.762761948863044 197.27883747546002,61.344017478462774 196.6412450132193,61.20071561652003 194.19748039112892,60.56277566641802 192.55296369770076,59.992690606450196 192.4198527999688,59.94179805472959 189.72734264889732,61.30294654937461 188.56225820432883,62.03998999274336 187.7414562132908,62.66497947170865 187.0927954488434,63.29443136835471 185.25807871995494,65.18322267883923 184.41222741326783,65.39973400166491 183.31297023990192,65.31848647864535 179.84975672885776,64.63279190385947 179.38314040878322,64.5975250027841 178.16941368882544,64.61538166226819 176.18119708437007,64.5595795965055 172.7925489776535,64.34753161785193 168.14211441774387,64.195303364133 163.71333717321977,63.999326073157135 163.56682780443225,64.1680719058495 163.20943815109786,64.5452942654374 162.51271765329875,64.59931066876743 162.06911175104324,64.72341442125617 161.47433614218608,64.96537189593073 161.3109330488369,65.10509998432826 161.16442367993295,65.31670081848279 160.95907754660584,65.88900416565593 158.9015384176746,65.3077725173207 158.3539487288799,65.17116946494207 157.7731541332323,65.04751238034805 156.63894442666788,64.72028950747335 154.95801884436514,64.15735788852908 154.41829347552266,63.993969060480595 154.36236942210235,64.18101800943259 154.27120156446472,64.4694034284912 154.10634211543947,64.9966209968552 154.05041806213558,65.18099060223904 153.92604529776145,65.422054744442 153.90041343995836,65.54080105829053 153.7536127999192,66.0595342045417 153.73351509321947,66.17381604155526 153.67992120888084,66.88495129614603 152.42250382213388,67.71661503659561 152.19036074657924,67.7384891344118 151.87666175991762,67.72331118921284 150.96207047102507,67.48894572578138 150.71157731546555,68.24962814943865 149.51270542212296,67.86125188821461 149.42241137765814,67.76438092091121 149.04288511991035,67.69920503877802 145.78239630220924,67.0059288792545 144.4442968176445,68.55140049569309 144.92139889777172,69.43171627918491 145.0661606398644,69.67947186157107 145.41073436429724,70.74280887149507 145.43287096882705,72.27798704244196 144.8576105243992,73.1886430697632 144.23341653321404,73.77654988714494 141.22749866661616,75.45410680118948 139.54366037331056,76.55446649063379 138.51984241779428,77.00085830618627 137.19281123555265,75.62552222190425 135.6266464710934,74.79567393183243 134.9261394487694,75.03851313109044 134.19767039990984,76.03352609777357 134.33864561771043,77.50840470124967 133.428714666632,78.50340650882572 132.2213959110668,79.49974297988228 128.7835229865741,79.98898181912955 128.42671587551013,78.63151991867926 127.01871132443193,78.57438223989448 126.41228487109765,77.44412448373623 126.20227839995641,77.34547216899227 126.03625386662316,75.53490419057198 126.40762453328352,75.0327099916758 126.78744206216652,74.02519337635022 126.78365553775802,73.02302894491004 127.47134663106408,71.49410560308024 127.45998705772217,70.8526242399821 127.06065436440986,70.48925122618675 126.0977120710304,70.05534556432394 125.546044586692,69.6593835814856 124.82864383992273,69.05807354935678 124.51523612439632,68.72326769737992 124.91398627543822,67.65634965372737 122.96043093327899,67.26440105738584 121.14726826664992,66.98048341530375 119.19283911096863,66.56710581644438 118.86865436437074,66.5488029026892 117.5628859733697,66.86396993725793 115.54845496884082,67.61929759534542 114.51939413323998,67.8353601131239 112.75079594668932,67.94919461885002 111.60377031110693,67.95767640322447 110.14391950215213,68.03445885714609 108.99281607114244,67.9866930313874 108.33920369774569,67.94964102853555 107.38354318216443,67.94517693144735 106.56011975102592,67.8550021496485 107.03693055990152,64.89082045143005 107.31771591107827,64.51359868375584 107.56820906663779,62.86274363024859 106.88809102214873,62.92122464533895 106.73692131554708,62.941759959910996 105.36736455105711,62.92613526422065 104.42218979552854,63.119881412771065 104.22208654216956,63.16943397175055 102.28163839993067,63.895757138263434 101.89017002657056,62.356502743437886 101.33151203545276,61.98150874359999 100.64149077318143,61.24089371802984 99.62815857771784,59.34939003112959 99.34824703994673,56.626167613081634 99.34009144885931,55.68508554447908 99.28358485328499,55.144452613196336 98.62560341332573,54.91096663463395 98.6028842665255,54.752928183588665 98.58162147551775,51.67383437475655 99.40533617767505,51.44123760267394 99.35873279999942,48.43040423776256 99.93341070215683,48.00315186183434 100.4795440355083,47.630365673685446 101.5939473065082,46.5807571002515 103.25011484441347,44.78958025679458 103.0281662576599,41.592480890394654 102.75145870214328,39.38515604229178 106.00903480884153,38.13593609910458 106.03262776881456,38.00110207172111 107.13712782214861,37.4698016239563 107.43917596433312,37.35684430471156 108.66950513771735,36.64963194524171 110.58140871103387,35.055716973380186 111.37657884438522,34.089539928594604 111.98387911112513,33.34034797101049 112.29262648883741,32.89833245007321 112.70856163545977,32.328175765578635 113.44052593770903,30.739140848629177 113.59577343985438,30.488662536838092 113.67878570663743,30.327034669113345 114.32540757325478,29.292970697279088 114.60764927987475,28.016904058807995 114.55638556438498,27.827145442191977 114.45181923545897,27.839200700283982 113.86141269328073,27.749009493621998 113.04177578655072,27.88161734410096 112.93371420435142,27.754813879320864 111.96290759113617,27.863757705606986 111.70921045332216,27.960646227176767 111.55862328887451,27.943233085796237 111.31948970654048,28.05798119667452 109.5392406755127,28.731287972535938 109.04058453324251,28.89336350047961 108.47988764441106,29.206798480357975 106.52982755552512,29.948414227343164 106.18583637324627,29.988151544937864 105.81679587555118,30.072983996476978 105.57591466663871,30.37525515037123 105.32192625768948,30.361414087412413 105.15648426662665,30.52125598746352 104.79676444432698,30.56322562909918 104.63248753780499,30.71011931193061 104.30713770654984,30.67931183037581 103.74148920888547,30.811471431166865 103.01942812441848,30.845850773737766 102.52659740438685,30.819954646111 101.35015338659286,31.133833367959596 97.9055812265724,32.463459748309106 97.23740529769566,32.607673275400884 96.9336095288163,31.95491655706428 96.61583274661098,30.82263355597388 95.89988835551776,28.147725786373485 95.81920625769999,27.87313401605934 95.2421981865773,26.620723306026775 94.61101368884556,25.394648737390526 93.90380743111018,24.376635532127693 92.90533006214537,23.02508178068092 91.5989791288739,20.9006207602215 91.09100231097545,20.259438502020203 89.83271111105569,18.855617902241647 89.06812444445677,17.628607070655562 88.21761279995553,16.45249201694969 87.47574527992401,15.298249988700263 87.30855566216633,15.208946678205393 86.57513500435743,14.018083571339957 84.11622428440023,10.52761642925907 82.39830727106892,8.4267009338364 82.01674211549107,7.938196137314662 81.41351964441128,7.339396731811576 81.23380536877085,7.642145628051367 81.07593642664142,7.670277141558472 80.95884543994907,7.611334918648936 80.64223374216817,7.685905758582521 80.29270840878598,7.592134039732628 79.30646442656871,7.870323355891742 79.16170268435962,8.076174292946234 78.79207964439411,8.724536507274024 78.6691632354632,8.962983287754469 77.89904241776094,10.285152603697497 76.96377087989822,10.097164812963456 76.3110323199071,10.06948013661895 75.79897770658135,10.026167007046752 75.11565567995422,9.864077590638772 74.79554872878361,9.397009348904248 73.91445361764636,9.288502913841512 73.34530986659229,9.064791946788318 72.61509319103789,9.019245973555371 72.09459171548951,9.021032090298831 71.96643242659047,9.197411050554365 71.00057742220815,9.071489883237518 70.53599999984726,8.967448580777273 70.08161706663668,8.868319053784944 69.87597966217436,8.824559158296324 69.46091832884122,8.75624012039043 68.20408348436467,8.518239646218717 68.27573617780581,7.659113842993975 68.22796771547291,6.820525236544199 68.2119478044333,6.5101841278374195 68.15107214218006,6.179301974712871 67.88193763548043,5 67.56736483552959,5.038402208534535 66.73170801764354,5.0531379379099235 66.6585989688756,5.245148867019452 66.34519125323277,5.736338853661437 66.05887175106909,6.124378168373369 65.33448049775325,6.309243608324323 63.98909923550673,6.300312914303504 63.4033530310262,6.55215834651608 62.54352071112953,6.714250201126561 62.497499875491485,8.823219569516368 61.95020145771559,8.914311587577686 61.60650154657196,8.831703631556593 60.580062151071616,9.133557417953853 60.08140600880142,9.37066416995367 59.72722033772152,9.44746705563739 58.77971541334409,9.726547083235346 57.29510655999184,9.68501999747241 56.1241966933012,9.864524118136615 55.12164152879268,9.815852617262863 54.461329919984564,10.020808681088965 53.685092408792116,9.916767827235162 53.01371249766089,10.080196785973385 52.659235555445775,10.092699542758055 52.44486001774203,10.088234272610862 51.97591352881864,10.134226551628672 51.34909809776582,10.051172526204027 50.92325973324478,10.032864914217498 50.767138417693786,9.95472265087301 49.28748117329087,10.260147111141123 48.26599338662345,9.88774354592897 47.932196693262085,9.961867087520659 46.53438663110137,10.144050143950153 45.310174151090905,9.993123995198403 44.627725937752984,9.687252636649646 43.92605383100454,9.7993310962338 43.57594595546834,9.647958183195442 42.902818417642266,9.862738008145243 42.45600853324868,9.802456789417192 42.100657777744345,9.776558186742477 41.76802616880741,9.750659580924548 39.86107420432381,10.319088624848519 40.42788778664544,11.048711813986301 40.692361955414526,11.597490453044884 40.79197667550761,12.16904038877692 40.598863928811625,14.101136100362055 40.092052195454016,15.374604290467687 39.37727288878523,17.673258239752613 39.1154201598838,19.027077386621386 38.74259313766379,19.64995642111171 38.57511224888731,20.79524553124793 38.278306986554526,21.201118487981148 37.684113919967785,21.6141347552184 37.31885994656477,22.039205823326483 35.785317546571605,22.54196739301551 35.18267761776224,22.933102598180994 34.66130232880823,24.15963737189304 35.01461418659892,24.80705923354253 34.266629973310046,25.11826754757203 33.424565191031434,25.241947056667414 32.53502321767155,25.57369355566334 31.8514099199092,25.700051781197544 30.590497280005366,26.106808686163276 29.93222456879448,26.055461807642132 29.219775431090966,25.933568735024892 27.931774577707984,25.662546167033724 26.612898986553773,25.609413202735595 25.559371377690695,25.558959199581295 25.4143183643464,25.451800216455013 23.86126079992391,25.597804318065755 23.670186951057985,25.710321174410637 23.16104504885152,25.837572311691474 22.61432917334605,26.168424924486317 22.407817955478095,26.074214581982233 22.282280106679536,26.325590903754346 21.63857095106505,27.003814397146925 21.52264504879713,27.451646144501865 20.925830542226322,27.92180152545916 20.70184305764269,28.327661346178502 20.42280533327721,28.324982405873016 20.08027050655801,28.66118915361585 19.422871608869173,28.788438585586846 18.35973205335904,28.825050689221825 17.829036088776775,28.78129475977039 16.36539875541348,27.332432797178626 15.423427982139401,26.77654948295094 15.171478471020237,26.70689653500449 13.930372266564518,26.768066112184897 12.829076195484959,27.10382874472998 12.635672177770175,27.130171801894903 11.259998719906434,27.585147157195024 10.260647537652403,27.66015772416722 8.09329919994343,27.098024341859855 7.195310364360921,26.97434587526368 6.829765119939111,27.281979188905098 6.0774118398549035,28.049944365920965 5.380982613307424,28.574123710393906 5.082429724396206,28.889345100382343 5,28.99918134266045" stroke="red" stroke-width="3.8187750385004096px" fill="none" stroke-linejoin="round" vector-effect="non-scaling-stroke"></polygon></svg>