<svg viewBox="0 0 42.27593386666558 46.082632234998165" width="42.27593386666558" height="46.082632234998165" xmlns="http://www.w3.org/2000/svg">
  <title>okres Kladno, Střední Čechy, Česko</title>
  <desc>Geojson of okres Kladno, Střední Čechy, Česko</desc>
  <!-- Generated from maps/2-geojsons/world/europe/czechia/stredocesky-kraj/okres-kladno/okres-kladno.boundary.geojson -->
  <metadata>
    <collboard>
      <support-module name="@collboard/map-svg-geojson-import" version="1.4.4"></support-module>
    </collboard>
  </metadata>
  <polygon points="1.726135607196551,13.10682804279822 1.7857369583060008,13.611825469854006 1.7987713405269403,13.715178526995073 2.5083660214167995,14.000997494887628 2.515618672084014,14.004458700745085 4.19068242319517,13.335459951610023 4.281202202751951,13.323469484702578 2.719865256971747,14.143417461291023 2.6679607449728735,14.158844453715204 3.175012776973375,14.51359625513614 3.1757700818608954,14.541977674478034 4.307780691639704,14.074900591643013 4.354879230306318,14.077951876422226 4.352024773416992,14.679237823486979 4.3531024765270505,14.684713585580534 4.954504503195125,15.179683722403201 4.961130920974023,15.18890400691634 4.656068122749633,15.424027353043853 4.650024247197502,15.439951537536757 4.790781011637949,16.245911502953454 4.8004293671943685,16.283855095532267 5.756264645418918,16.365306597006924 5.828762024974634,16.404842626503154 5.648545306751107,17.106929062719058 5.645661722751169,17.113119255105627 5.952544965416377,17.361642822508653 5.935359969862105,17.46750738052978 6.883738707639345,17.089701173951102 7.062222362750976,17.051273909390506 6.868010067638892,17.591005837488407 6.8618132747495055,17.602144909753765 7.61968614230463,18.124153780598494 7.674248503196935,18.163472222075864 7.2443323431962146,18.28806975441584 7.238900136972728,18.289332552611082 7.538224894307854,18.97143956425461 7.544763930749099,18.981051540674883 8.404821985862867,19.20481809369703 8.425895450749152,19.197993304643383 8.887370835639372,20.923766204902854 8.899473150306216,20.994857494338426 7.856438583195626,20.340650615361298 7.828207130749428,20.353103228814504 7.631271450750131,20.802936168668744 7.6295820783056065,20.80776896687348 8.010484592085772,21.428696599588505 8.007659262307056,21.51995133364289 6.835001768971046,22.071017304569608 6.801447336974156,22.071801740733278 6.827865626752095,23.247430578245616 6.824916506749645,23.337154459282825 7.165885751195669,23.34103026114644 7.434394024972057,24.82249795126008 7.450515880973029,24.908230247618118 8.272978117417727,25.167600558683986 8.35500006230613,25.177792410417528 8.394081363639629,25.447761582784366 8.391787603639017,25.594801143296714 7.828906181415727,25.590801974371786 7.790756947639233,25.59108600635263 7.7598749280838035,26.446931935192328 7.779572136972632,26.484100060181294 6.141368744972346,27.460626481843423 6.121707944972508,27.476799355865293 3.7299643431953826,26.04323474049342 3.7280929263059024,26.041201240344158 2.842497676528359,26.21418235691853 2.809168979637974,26.229938621675316 2.690344929862835,26.82379267922988 2.689099745861671,26.836082781716318 3.214989736971978,27.598594089242756 3.252753036529242,27.67240327733925 2.6443459396385096,27.99714498777648 2.5933443680831205,28.038447517699748 2.4225793974172065,29.270145314923496 2.4265989387513347,29.326799449573805 3.140620940526782,29.50626086533775 3.1796731147496704,29.54139859687893 3.052926490751628,30.398246203134835 3.07833989519458,30.443140165046856 4.341721057861645,31.195748431842727 4.353517537862712,31.207427130894573 4.884963525417328,32.467818821072065 4.9114473511948695,32.54152791505512 6.594207941416602,33.31089774141619 6.679943592973354,33.32859616520472 6.975168709417989,35.532870455745794 6.9955576871947365,35.56124438830192 9.407974256085067,35.66320560847998 9.51573728541734,35.62274341538613 9.90093604808389,36.12175232789486 9.911079564529423,36.136277955903275 9.655161484530613,36.29041051041167 9.541390988529377,36.358534506619975 11.534224240084946,37.73442722778017 11.568645203639239,37.73675109584328 12.738892428529283,37.09175461647282 12.796891788528951,37.07604112011358 13.63877452630731,35.522766033969305 13.637784204529083,35.52035049601872 15.39632625608246,35.732210644598304 15.441138316529754,35.7740895274841 17.994056787640506,34.790026372524515 17.994784965417416,34.77589412462293 19.035678689861737,35.89230803079881 19.051210721860475,35.89654910732824 19.326170650752097,35.662854060453895 19.325391500526525,35.65879424609775 18.949877502305384,35.39403791441182 18.95228048897297,35.37272847287422 19.401704531639183,34.944832197191495 19.42430716986309,34.9390025316683 19.53158232008463,35.41456475897466 19.55315822763841,35.43543174812111 20.34176747919591,35.4833234538255 20.35518779563899,35.486090567680726 23.085818053417093,34.871541278684525 23.09882330852742,34.878766069536866 23.33712676808536,34.700264424606935 23.387174426751514,34.65394241562644 22.945221488083547,34.55221182052519 22.941755361859755,34.552415986852786 22.602497335193398,33.34767863199413 22.589688688084784,33.32570315756056 22.988409712085918,33.51228198337957 23.01046621697205,33.504703690453965 23.17923598052766,32.62753572460824 23.193450010750162,32.62154472336005 24.096070056972163,32.728576143800815 24.103009591195217,32.71839843474336 24.06542105430744,30.535594451426363 24.06625845875132,30.530202746758363 24.76277506674996,30.706979768890957 24.950317253418685,30.758511221049773 26.41779936541752,29.65278200236389 26.41191568897229,29.640997789120952 26.980680787640807,29.900653263969065 27.017854263195836,29.882591761503495 26.858820236528476,28.496070362719543 26.845297975193894,28.47320092268819 27.188560979640528,27.49040543031478 27.210799528971616,27.468599351313966 26.926526206308694,27.107889128996245 26.911292727194446,27.056709248158217 28.24797226497212,26.894772749347972 28.3702478774172,26.853416095298957 28.01226840008348,26.985174732507218 27.975619212528176,26.99574936056051 28.02453091386305,26.07358946791973 28.025856197417667,26.03995160300437 28.739244684529325,25.68517930413545 28.75977929786204,25.66762640369015 29.04004036097212,24.826906749121914 29.047511464973283,24.82399785196503 27.978226088972946,24.516975456006545 27.959031322751613,24.48872566067184 27.80519648541703,23.810788798398058 27.803514394750888,23.806095050841755 28.487469936082558,22.500598522299327 28.47718078408397,22.459083369862125 29.780371425861446,22.512602844601858 29.85137604097435,22.503338147433894 29.637823344084968,21.727616654067603 29.63823840541772,21.717486545301284 29.98357671652811,21.600801337998195 29.981989288972176,21.591103039293735 29.540305776083912,20.90772164093541 29.5384780498618,20.90701663420077 29.993778487194863,21.359134585303032 30.070863386751803,21.358065792908377 30.076084421416812,20.702094589040275 30.105116869417902,20.670288393489678 31.60217756274978,20.259508914467364 31.624270476527812,20.260748509485342 31.898502227639614,19.94481321420207 31.896004577861817,19.867521133875194 31.34362347919559,18.95907478377084 31.347956136970964,18.566276442203158 33.72139334941639,17.501744519973357 33.72516531030596,17.48270874260233 32.68772314852867,17.127286121056017 32.68724983297179,17.12791196568614 32.15490818674916,15.917302524285692 32.153044051638055,15.913614907210643 30.43062689964026,16.09090223030543 30.407449000970878,16.100690024542924 30.5990835467488,15.809017564956225 30.591728951195904,15.795905764664708 29.42901108452824,15.27796431921342 29.417272858748397,15.268596208402954 28.223665690749836,15.246718248741303 28.206087479195045,15.250531531095106 27.814349680084337,14.572533356758136 27.809849541417858,14.566465494643849 29.05863073963737,13.616630514043568 29.06116479830707,13.616562195909859 29.087073363639135,12.002590941005105 29.08875545430819,11.933933136679475 30.4232213316387,12.221873229141416 30.429330743196257,12.222419914677808 31.363961484529497,11.751612152591765 31.3946833049722,11.747078823349506 31.165685957418823,11.01825702762762 31.150051980528584,10.96734679238761 32.12458686408535,10.783603462216337 32.26698202852749,10.79853874981381 32.7168065689726,9.25644408168336 32.765463408084536,9.155911961735177 33.99574889074901,7.384613726096354 34.002069473862136,7.357904763837354 33.516644321861165,5.734965911196554 33.50130889786123,5.670231191093984 32.6079221458629,5.570670260094989 32.57613718586108,5.562357278676422 32.869753029417545,4.190574956724953 32.87757365875186,4.179066127640903 32.43620326230775,3.98520312993532 32.4358828640823,3.892980036266448 30.934846320083665,4.91136221577944 30.913117495195543,4.967529800719416 30.71307977786236,4.23192213414913 30.729755048973672,4.17613473714045 27.443881953861634,2.706133540212244 27.407509473861495,2.6933665343738484 26.328306316527957,3.2108796570613722 26.31282525697206,3.234357729688412 25.764361754751366,2.768998340312459 25.753948812529046,2.761742113864233 26.065528801862452,2.414219101459088 26.10680920008344,2.353529501571387 25.442871265863136,2.1526065912508727 25.381740741416067,2.1412189489918037 25.03364263652947,2.095850709786822 24.973932058750137,2.0928497288612506 24.924641704974416,3.3305734138692005 24.923549438307596,3.33350526170579 22.13919422408398,3.74346920839343 22.11906739030564,3.7538496615528802 17.238630597417426,3.258873839833899 17.1705969476392,3.264018900524019 14.369173246303758,2.0320994762751012 14.331118675640386,2.0060944173168482 13.938019184086073,2.6527264102700374 13.920615735194946,2.650341845515135 13.154361541416797,1.7659382471439984 13.136018743196104,1.726135607196551 10.38776658319584,3.390202551969918 10.352515496973133,3.3964654557046687 10.471769171640695,4.646414436570552 10.469890472972834,4.671334746257702 11.027878540529123,5.179227896164588 11.064418501417453,5.187689717920506 10.85865002497339,6.05199181522948 10.841319393860244,6.224242803820011 11.265701402751796,6.409315016419345 11.27662406941708,6.408801949154071 10.801844876529135,6.380982229276919 10.783371006306329,6.454863794472835 11.085353612529065,6.782347673199905 11.064964634752318,6.828725562488029 9.601305456085896,7.047213895823001 9.524213274750577,7.049436925194818 9.64463203386294,6.71142339343532 9.640517829418599,6.677277713323196 8.251526000084771,6.447920338383478 8.226017932528697,6.432767839289221 8.024815130750715,6.7674241234813906 8.023890344972092,6.813802140414549 8.465894256085807,7.142176338486383 8.529515148529384,7.140249746032708 8.550719685417784,8.109478699112145 8.568181388530133,8.149143315786564 7.542695905860814,8.655844667414561 7.536309786751002,8.661417685980627 7.352910931640139,9.514580424709488 7.35144729430794,9.519172594702463 5.373942184973925,10.460906905653605 5.25902844986012,10.507902743998052 5.334329313862321,10.01281389465184 5.291352261418428,9.998742383979328 2.8038460000843717,10.648956171838286 2.8019017654169094,10.648648572036832 1.923886846304589,11.825659790741696 1.8649408551940667,11.865468094083548 2.107343955639584,12.410430915044339 2.121616240083307,12.442615813670631 1.726135607196551,13.10682804279822" stroke="#009edd" fill="none" stroke-width="2.142857142857143" vector-effect="non-scaling-stroke" stroke-linejoin="round"></polygon>
</svg>