<svg viewBox="0 0 119.91062874665592 142.52137971237175" width="119.91062874665592" height="142.52137971237175" xmlns="http://www.w3.org/2000/svg">
  <title>Teplice nad Metují, okres Náchod, Královéhradecký kraj, Severovýchod, 54957, Česko</title>
  <desc>Geojson of Teplice nad Metují, okres Náchod, Královéhradecký kraj, Severovýchod, 54957, Česko</desc>
  <metadata>
    <collboard>
      <support-module name="@collboard/map-svg-geojson-import" version="0.11.1"></support-module>
    </collboard>
  </metadata>
  <polygon points="8.05255000000011,26.163672434900604 15.945997111098904,33.386417269830076 16.306153839984972,33.796564010619136 22.295343244455353,33.471615981492164 22.461950320000824,33.44601045290585 24.82394057777833,42.94964945541108 25.050258231123507,43.11450603209198 35.71413051555987,50.49671736470884 36.278905200022336,51.14399598006969 42.20874811555382,52.00591248456442 42.48166914666194,52.14020906246844 46.87796966222936,57.47920298064821 47.1028309600149,57.795742962865575 49.12053876443656,55.76253231877456 49.45870452444774,55.75071043542232 52.498337022210535,58.13328409670032 52.6422249511013,58.36374279461563 54.22615725335322,71.57341846722522 54.174966355559945,71.65832743695466 41.32830836444168,71.62505231606303 41.05225616889197,71.72304175119609 34.357098408894444,77.71945017939254 33.86230160890386,77.98894764504041 33.509208204464585,81.71886551895989 33.26614246224176,82.37896255846829 29.827031635569938,83.33823413839093 29.306238888886355,83.60001756257373 30.160391422228486,90.90053358392436 30.172988897778623,90.95157544941287 32.85705218668568,91.5121151889831 33.07550552002044,91.51807956663072 28.53822978668154,103.76075544598973 28.16897083557683,104.19204099881574 34.27059088889632,111.57805991912721 34.69002128890838,111.86538951626392 38.8069928088878,111.23156545099448 39.53553467556026,110.72179489625671 36.84280607110827,113.55631501443679 36.23273872887489,113.72668875985948 41.742641519995004,115.2141686057654 42.097992275557544,115.22884370774375 42.00383888890042,112.81485047098943 42.45428966222221,112.80040402191628 43.580343777757435,115.17862732669857 43.83047284445615,115.52727479905991 40.50677819556563,120.71487416476123 40.21383227557067,120.82630177294016 45.92340141334694,131.2696709173539 45.94510111111572,131.34864071853337 52.77111241778016,118.48478338137613 52.902548506659286,118.20826542672114 72.92066534225137,132.41225756292226 73.53888827557216,132.6764393193804 78.19230836444308,132.42348961183563 78.30393801778678,132.3152950844011 79.53550509335014,130.58151699498524 79.59477876444703,130.42105346103892 78.58253883556586,125.87973784017197 79.03051380444208,125.9514940537698 80.44033879999893,131.99460706610228 80.38288557332248,132.25030949609175 86.87801289777394,134.42390320354718 87.03085741334485,134.46882971237176 87.18697872889584,130.32271200256184 87.17722114668118,130.04258686688956 85.22060745777685,127.82033158359229 84.69449901334133,127.40596966463602 86.33413691557485,122.12478330285342 86.33136983999407,121.88152816956392 97.05458861334023,113.89557149125142 97.25228888000834,113.92457845173305 94.64053364445112,109.74936498268619 94.375258480002,109.53150892863744 94.65517001777312,105.0145816424407 94.70541428446427,104.78489533733921 106.41152742223471,93.89563448345109 106.68073474668904,93.73552070475819 104.12483074668103,91.50638020985173 103.74326559110318,91.24956722016907 104.65516262222786,89.68182302865137 104.80676923556143,89.30330026976992 110.11853485333972,92.70165139457788 110.74156375998405,92.95662233443693 111.72926409779006,87.48474817645149 111.85807874665602,87.2533813795086 102.81403792888864,79.41259243623756 102.82350423999719,79.3225330149213 99.76297304000013,82.66380903166248 99.67814032888396,82.81925220422966 96.81756674667827,82.22271508316737 96.61491487111903,82.14986827161158 95.18397272000561,75.26603207336268 94.70505019557436,74.55777386941884 89.82640471999889,72.71325287812908 89.45612632000825,72.63649208559184 80.6923611289019,61.79468358739507 80.46138313777169,61.51225177458366 75.93728742222424,50.30490836060892 75.81102139555856,49.90051167972672 77.05853556443594,43.333548671034464 77.11424116444664,42.66206766176731 74.76018804443424,35.46283920238022 74.72407042666578,35.28980709307473 69.10690704888088,28.333962038617415 68.9250082400174,28.186974440970175 54.48313119111822,19.99166750693223 53.91478843556956,19.56763350780932 47.85867949334329,22.179547288112758 47.44347252444254,22.50042886214908 37.5404732000095,11.305541119894428 37.497437893332744,11.245349125274174 28.16299977779977,13.424164649717227 28.140207813332154,13.501928634293677 21.831275546668394,8.567656375780302 21.363785413333744,8.052549999999997 19.36435487110407,8.909411348351227 19.24588034666499,9.031868233483351 15.63805072889204,19.187470182259517 15.341609555565583,19.66123826610385 10.795814142220252,20.302570057719663 10.137978337799495,20.825598973045658 8.05255000000011,26.163672434900604" stroke="#009edd" stroke-width="6.122032456392346px" fill="none" stroke-linejoin="round" vector-effect="non-scaling-stroke"></polygon>
</svg>