<svg viewBox="0 0 74.3925271288747 76.68159874911295" width="74.3925271288747" height="76.68159874911295" xmlns="http://www.w3.org/2000/svg">
  <title>Oloví, okres Sokolov, Karlovarský kraj, Severozápad, 35707, Česko</title>
  <desc>Geojson of Oloví, okres Sokolov, Karlovarský kraj, Severozápad, 35707, Česko</desc>
  <metadata>
    <collboard>
      <support-module name="@collboard/map-svg-geojson-import" version="0.11.1"></support-module>
    </collboard>
  </metadata>
  <polygon points="8.05255000000011,36.05975057604485 16.156367671100952,42.208196313549365 16.523150817760097,42.3022759376978 18.418379119982774,47.914411289624354 18.807735777758126,48.17224851676258 17.21572070220259,52.33072954937927 17.0595993866516,52.816753142563925 22.238545377774926,48.47484126175516 22.430493039988278,48.41505171123538 26.23624137775164,51.55283221355751 26.51695391111548,51.40991471400014 25.574546231080376,59.2547885019809 25.72476930663811,59.522022368102284 31.98003487109213,60.345007874398675 32.26810199997976,60.483233601676716 33.973858444434654,61.65438078443515 34.07303625776672,61.99185229946272 32.83243977776851,63.658798727475755 33.21684482665273,63.84460640018335 38.117408453319285,61.580942879146846 38.222775777779816,61.424958161521886 39.44473090666702,64.57155003638002 39.43752194665262,64.83033278972255 46.579780862208054,65.68522929585708 47.09110729775398,65.29392995604542 49.376274799993325,68.59261913369812 49.960783102207415,68.62904874911294 51.947688986670755,66.22395859810752 52.17881261333946,65.89687358805497 49.865828719986666,63.391585229990255 49.846095102205936,63.219438470921546 53.000561235537816,61.95336881165679 53.07024784887449,61.72406130965794 51.34250043554471,57.58372149864556 51.40891024887219,57.37261411584734 53.26889474667382,62.8357496159075 53.3054492710869,62.94983186742286 60.94388852443785,60.72598172052642 60.98546747555497,60.70320989810682 63.58812048886443,62.53346464620665 64.62351647110313,63.272722049943354 66.15968031110947,58.18299326788804 66.3399771288748,58.15521034145024 65.72779807111488,51.690510946813106 65.7697411110928,51.58152954656509 54.90066832886782,43.414020498755804 54.65869485331473,42.91367562214839 55.88865993777995,41.54405330935663 55.96060390221078,41.244952810294876 54.719279244432755,39.50658360748605 54.69546783110832,39.372291073093606 60.22342943109811,32.47337654207479 60.34889446220018,32.31434624086944 57.08498320886406,27.335300069018217 56.852912951122335,26.977219484797047 31.930227511103794,12.93501948632877 31.49674328001106,12.90265499967029 29.755597395538416,9.061970109214258 29.55869812443393,8.858765561664427 24.97525591997669,8.149993993407065 24.922608666652877,8.17666284531117 22.576638320002303,15.32184714766447 22.5020000977745,15.46907604732371 14.522919279995904,17.483747155092374 14.438013751095923,17.552117033722993 8.05255000000011,36.05975057604485" stroke="#009edd" stroke-width="4.910812057349824px" fill="none" stroke-linejoin="round" vector-effect="non-scaling-stroke"></polygon>
</svg>