<svg viewBox="0 0 97.82630820977502 143.3681983110917" width="97.82630820977502" height="143.3681983110917" xmlns="http://www.w3.org/2000/svg">
  <title>Olomoucký kraj</title>
  <desc>Geojson of Olomoucký kraj</desc>
  <!-- Generated from maps/3-geojsons-aggregated/world/europe/czechia/olomoucky-kraj/olomoucky-kraj.aggregated3.geojson -->
  <metadata>
    <collboard>
      <support-module name="@collboard/map-svg-geojson-import" version="1.4.4"></support-module>
    </collboard>
  </metadata>
  <polygon points="12.506763916528508,6.417572997387106 15.328467368970815,8.55407029978851 15.345149921860504,8.566279631900034 16.1805955680833,8.590401262326123 16.215052940529496,8.630295370794556 16.83547497074942,10.885610552171784 16.841256702306055,10.921868797649587 16.545601960971908,11.598949235408874 16.535451162750906,11.605318723096936 18.134274700527385,13.963911467318031 18.14567796452793,13.975389792553688 17.919018067639627,15.348870876031652 17.922731774307977,15.384563145206267 18.7717506543082,16.93427528082575 18.776025057862352,17.0351508280688 20.330517132529714,16.982193110333537 20.38706013697265,16.97377730135231 20.73796172630573,17.834197649261114 20.77035835563911,17.857149292128817 22.82809409252841,18.491011787199024 22.86120433608485,18.5154312891671 23.740216858750866,20.081276088270897 23.765994352083727,20.10489064314352 24.149161498750985,21.233437079161014 24.157695742305442,21.267221933366457 23.96135716808385,22.359641204124273 23.94713585608297,22.415827365230143 22.837574967196634,23.73072724005506 22.81101104186273,23.758186884038516 23.460705818749922,24.553932287157295 23.485245409862912,24.57460077519536 23.51312733697305,25.410475505904834 23.53703341341643,25.468975539932217 24.71904799119402,26.70734776021309 24.75997886408186,26.764695520142052 23.797262305861295,27.942376163539667 23.774018871195224,27.966491413962288 24.266682110306647,29.843157855335814 24.27828926408438,29.901405367238112 25.053325281861547,30.241833650508852 25.07134768186261,30.257486581516062 24.409463208973833,31.325442305762046 24.399640090750836,31.347813783663515 24.476004094306337,32.075513283690455 24.470397125416277,32.09532301543404 25.03185131919345,32.08333711289634 25.092457555640795,32.034699550064765 25.20650475919429,32.600355800851325 25.208550938750342,32.62901002601611 26.491811354751192,33.48005119784539 26.532567464972455,33.50762074218983 26.13199686941698,34.11792346527545 26.077871415195478,34.151457718068926 26.28093107030618,34.742467797092466 26.286086568974497,34.817200520482224 29.85230082675007,34.97551683704696 29.88231631475101,34.98818967182342 31.09837320363913,34.32087641947037 31.159379937862468,34.32314984975274 32.56399846230524,35.6824340055744 32.600807848973275,35.71797007386231 34.09531263830613,39.22488581885591 34.13431384008327,39.2829874187697 35.31715125875089,39.39681523896325 35.36246576186277,39.40277742067301 36.3266241120833,40.612953600607945 36.35696728008516,40.65597374795362 38.7014667076397,41.23721762406531 38.740249456085806,41.29003012666108 40.40689547208495,39.90780158331072 40.464275880974675,39.86418502675261 40.80718936008234,39.248417268770936 40.85302086941556,39.15805004007016 40.1308141494159,36.76798044915959 40.225156862305084,36.64076960368438 41.40579518408522,36.10290842028808 41.54241589875201,36.15028233943631 43.439734071195204,33.24966665766733 43.44643330674917,33.237603715922525 44.710928581418194,33.19851550765634 44.72889272719513,33.18489482683253 45.078731176972,31.9200692013128 45.18279506319559,31.696203256123773 47.68944511830523,31.633152934517785 48.07332587919555,31.327193812695988 50.14266876986258,27.57819895974426 50.144496496084685,27.56677214760748 51.61618019385969,29.09455345405477 51.684861921861376,29.137972097513924 53.379062184972646,29.033725808309466 53.38765468274833,29.027251594890913 54.07154468808331,23.051458288777578 54.096098842750145,22.999778109799447 53.35357596275171,21.396251932479572 53.330398064085244,21.362821105790864 52.404075831194135,21.73555063236454 52.32545447652993,21.7607530739846 50.876810323640896,20.75458108613275 50.82049305430738,20.741020309928356 49.396468592081874,20.829711730295458 49.358414021418504,20.83470292991733 49.11414678586189,22.81758930712131 49.09712198941743,22.854588003451138 48.15239142230603,22.889866389928287 48.139444421416925,22.879340992852306 47.294357701418996,20.683369539188064 47.29116100097199,20.6733754610661 48.01080453519717,20.257824308328054 48.05293690141589,20.221605666223695 47.90497117697269,19.105444622088182 47.89202417608358,19.037004223799524 48.44479849075033,17.897682135011202 48.45228415830825,17.87273537474139 47.31177571386107,17.306020780290783 47.274631365416646,17.300342160389484 47.490914728971624,16.2078839902013 47.49177397875064,16.203435977823755 48.12754599652726,15.692312239080275 48.08684814052722,15.556872852158632 43.9289748747502,16.787748095447387 43.80985955386023,16.794202719023815 40.84001561430523,15.208643268056404 40.748119578750995,15.159831391511034 37.459566789419114,11.58480620640221 37.34482053519641,11.487082460329475 37.51794480186254,9.031344464094218 37.53501328897437,8.962217121177309 37.251082209863306,8.835403326151209 37.24212562319481,8.831577395521526 36.1027604178631,8.526339366507091 36.099265164528695,8.525185811426855 34.21071425252776,9.61002437256866 34.14647440897425,9.654284433806971 33.151958327195096,9.616053628197188 33.135042757417615,9.614180905575996 31.71894086941793,8.082373830664801 31.693483774304696,8.054069365245596 30.94148001963804,8.077804919706614 30.788679194749058,8.098821878197851 30.77117380097225,6.868095807351711 30.762493921861825,6.811005609312634 28.702442579639683,7.113564233066064 28.693529683638555,7.149973406941354 26.576644065861547,6.584958160379393 26.523363297862307,6.582730200724109 22.628296673861406,4.242797912868627 22.573595959194428,4.206929273660717 20.805769640971633,5.349133824353704 20.805551187640596,5.349202392595544 16.049975038307092,1.7810723970720574 15.99140769963742,1.7261356071965566 14.07441416364054,2.499144666555003 14.045039472084682,2.5275353615539644 13.197265776082714,5.402171099077169 13.200972200972684,5.426283973937462 12.506763916528508,6.417572997387106" stroke="#009edd" fill="none" stroke-width="5px" vector-effect="non-scaling-stroke" stroke-linejoin="round"></polygon>
  <polygon points="10.05084600719456,90.09661797332701 11.483666856972924,90.35150300989517 11.501958682750775,90.35559835545173 12.667865968084152,89.63604186365883 12.68900496897295,89.64309712925933 13.420284784083561,90.79781013931097 13.47384954141635,90.8322913914355 14.984672794751896,90.94369866356611 15.019224830308303,90.956860839183 15.512223031196118,92.21379277289562 15.547495962751055,92.21760554740068 15.820387866751481,90.93639757985257 15.79321955386149,90.87603108158692 16.001281790306166,91.44865353304377 16.03416629875028,91.44248924278837 16.283829331641392,90.66071548209185 16.286086682753012,90.65803790577229 17.183347340529508,91.27825559574012 17.18443960719342,91.28002169610009 16.75603805697356,91.47751761733271 16.714954266751374,91.51093722238039 17.25256792008477,93.53150496257477 17.251380990307734,93.5437051443314 18.838262412527182,93.57793297457283 18.884858508529216,93.57692098528969 19.743139809863717,92.93818350070542 19.74852104363854,92.93659786548125 21.172778522751834,94.00023102238666 21.209209256973192,94.01529723424065 20.748680503193828,95.35901412027779 20.746787240972118,95.36638799332323 20.930775920085217,96.139454273698 20.926690842751487,96.14526486777214 21.893354124528198,97.33885723091699 21.91426739030758,97.35195909715003 23.157645509417126,97.26595364994901 23.17370911119397,97.272178808651 23.206011077417134,98.55009680431431 23.22295577430814,98.59433659577518 24.060869943195215,99.5399693957228 24.070977050751754,99.54445099862824 24.06376809075191,100.33241481577461 24.12256844630647,100.43818234227984 24.877805310306215,100.99876781113744 24.887460947638104,101.01519596357139 24.984133829416898,102.02055458346331 24.99618517163799,102.05005908486675 25.431409747638465,102.07741909132056 25.635969448973267,102.2353791994905 25.32312971208485,102.53904949198078 25.528898188528913,102.75046368570511 26.0704731289723,102.53888110276495 26.08534251919373,102.54074460980083 27.048525111195705,103.31776061680176 27.064879984084474,103.32805333892065 27.92777065075243,102.54875992802154 27.929023116529063,102.54584118605017 30.099349701418035,103.06434254018859 30.10511686941791,103.06052608240171 30.2042509920826,104.17456077987627 30.18753203030683,104.2743961132208 30.52433609786276,104.23907912293399 30.58909294764053,104.21680248044905 31.54875844097296,105.85525775645111 31.552617783194364,105.8636945583352 32.11613272008435,105.78375758323128 32.3513341423055,104.26508151759518 32.405925630305504,104.12824491747342 33.54780304897468,104.01495065134259 33.8619389423071,103.98406507236541 34.598636400081524,103.15166012364098 34.61075327830513,103.13895375625762 34.682966668530206,103.73194604899219 34.68814401252785,103.73990350838467 35.52015994141584,104.24759696886213 35.73179024897291,104.37730450816053 35.47021422763828,104.84034594400038 35.36823292986264,105.02205963870983 35.80543086763828,105.15873928902766 35.80707654941835,105.1586719655188 36.406461523638065,106.70659129810701 36.43163462941775,106.74312630925452 37.40356263652975,106.30482473151824 37.532486512083054,106.2481162328204 37.457338565418105,107.12294364428271 37.46658642319562,107.1416752796784 38.37007300097212,107.8292502783519 38.38776043919388,107.8549104200869 38.62755666319463,109.04457705249553 38.63358597519582,109.06380669464598 40.77297228630523,112.41020684106952 40.77798943119597,112.42186082377339 40.666265114750786,113.84408847061604 40.68245250675136,113.86590035273294 42.38405833786128,115.23328866707344 42.3947407058633,115.24706465448872 44.16084852452805,114.48494301928913 44.18049476097113,114.4495908756453 44.83423092452759,115.62299017143852 44.85148873786275,115.66432629631782 46.07958968719359,115.71575243619337 46.08156304897457,115.71766746825051 46.100735969860764,116.7421474734776 46.12145262763843,116.74400616304375 46.3697321227508,115.78660817756355 46.360906608084406,115.7777162633447 46.95732789875074,115.84451725659638 47.00054524986372,115.81540041057197 47.16780768541685,115.17224830699452 47.164938664973675,115.15265924761952 46.13333648897424,112.89418488445263 45.45011640719495,112.9936599892888 45.00878241963983,110.90406872767672 45.0018356036384,110.89067414757483 49.19258609608406,108.92804285801722 49.35326580452857,108.7810400694074 48.74391207652698,108.37080184363185 48.74174938852848,108.3663610914682 49.12602336541641,108.00972107136805 49.18220228097235,107.97630100206771 48.68141257786083,107.13347599085719 48.67045350230656,107.10051046382469 48.95418069164043,106.61335132105052 48.98290002319445,106.58977185534641 50.13551806408395,107.56960281774118 50.1416274756386,107.57767808267272 51.47334812274967,106.57598533676247 51.51999519119454,106.55211404932525 53.67669028808487,105.99273562084018 53.68835569608382,105.9927019642044 53.984935223196594,106.04182921491338 54.25441925519445,106.10144547939018 54.23651336364165,106.63668389903651 54.215920496084806,106.88049218398555 55.39827731741716,107.01938010080812 55.44919878941619,106.9972830015282 56.191685260528544,105.84726970866214 56.21179024897174,105.63746709673178 55.81132159830486,104.744448417459 55.80962494408487,104.7442127673643 56.009036428529726,104.14732346403362 56.01764348986217,104.13337368621906 55.39355872541674,103.49806565989456 55.3899105547509,103.44264134697478 56.035309082748796,103.16799202786243 56.06255749519514,103.16425421490021 55.7681333743054,102.53573783645007 55.760516634751184,102.53116887112738 56.51245485341824,101.67424653789385 56.63462852097182,101.48681902391728 58.0669105191937,101.78195298588145 58.09469778319654,101.7949768682669 58.427620663195924,102.49154107603135 58.45816043919658,102.53002382271116 59.97459794319475,100.88379182398386 60.034344929863074,100.86099622016228 58.990480240084075,101.63464623072542 58.97539967830708,101.64664873566835 59.0681331183052,102.0906219015571 59.129423841862085,102.19524406674937 61.48308374586232,102.99094261121536 61.538592737862565,102.98553214783061 61.72503537608609,103.49385666429481 61.7435383734166,103.55026816074424 62.584263308528534,103.43635584881595 62.61221077164119,103.42006964059584 65.12663048363939,101.36072598009378 65.14678644452833,101.35300086226962 65.59843871119556,102.03942715384365 65.60032469163889,102.04435579180318 65.98928085164117,101.07874089614089 66.03271665608227,101.05948323240919 67.75297112008448,101.52242322197453 67.79824193252898,101.52006533521381 67.55844570852824,99.66215073116365 67.56614254763882,99.65413119036712 67.82416506141782,99.73462932592265 67.82653163919349,99.73812238135761 67.61513434852714,100.41746248963064 67.61782860630665,100.42445895812017 68.39228208185996,101.30803102852697 68.40782139563998,101.30293330124442 68.07217513075048,100.37341710087094 68.0769301316399,100.31929761351094 68.71292788452884,99.39849936986758 68.72832884452838,99.39282701399243 67.94864705252876,98.7238072697528 67.93422913252907,98.71804434516126 68.03783426675254,98.3347232299264 68.07066052097252,98.2839427697636 67.36062893341769,97.11138990517394 67.33182222052892,97.08380282395265 67.7308927698632,96.22095937439481 67.73201416364064,96.21621655703821 66.61726864897246,95.95599592583494 66.5964209191956,95.95499561535726 66.36764202497325,95.36973770676305 66.35678489430757,95.33085617530779 67.21783327119374,94.05824695393277 67.2576281867503,94.007348126137 68.58537298319462,94.5165399631329 68.64929971030688,94.48055293184626 68.38505855830627,94.15895260655417 68.29762625252953,94.13419517557959 68.65064683919664,92.83908603950586 68.65079975652807,92.8359709404369 69.79250969430613,91.70061858069568 69.85074207119361,91.69136132011373 70.1986799769733,89.38120227296204 70.19929892808322,89.36371516306572 69.70185156097178,88.21283019555013 69.66487469341847,88.17443805692929 70.28421902052833,87.83026993521963 70.33998287475151,87.79802100339185 69.99470281786235,87.21193530741039 69.99150611741534,87.18534523863237 70.86909141163815,85.93866404514884 70.88112819030539,85.92651445787233 72.41263897430508,85.77224951095305 72.42593550053026,85.76523429351982 73.5008424089716,83.93399987822522 73.51389135474929,83.92008862377443 73.54318594675169,83.09914930491833 73.55495329963924,83.05743159505255 73.15398948808615,82.76018229037037 73.13893805341687,82.75128168677803 72.75209360897315,83.23063180034114 72.72485247830518,83.20493488740067 72.35626345075035,80.82129990726717 72.33283797163931,80.76619779251524 70.77358361430707,80.00110123325904 70.75903462230526,79.99321064170982 68.68165264897289,80.42503469798721 68.67512089430711,80.42569971002996 68.34910842141726,80.96343127004694 68.34010086230592,81.0127723380243 67.69272897252704,80.544273445402 67.68284760008574,80.53885202178972 67.26597310408434,81.24111267315348 67.18416961252989,81.27386234827463 67.45848874497351,81.65800837638417 67.42149003208506,81.70292582475705 66.61675892452949,81.02515825112242 66.60821011741828,81.02160815151183 65.4042482614157,81.14308786876973 65.3733298329713,81.13382399432486 64.37741564986246,80.14060501085078 64.36633278408445,80.131271805261 63.51828966230569,80.24730451125689 63.507672830306184,80.2536730506825 63.047988762749085,79.87939322747297 63.03962928186411,79.87602274399143 63.00236114319305,78.97337979885816 63.01511881786173,78.95118048887707 62.24186683563931,78.48340686672492 62.248223827638505,78.47807360165207 61.15026281075152,78.80411482921227 61.12421589163896,78.8105977977819 60.57576695297212,77.71230703439834 60.56413795386216,77.68850126170037 60.906447045419554,76.58291277584685 60.92279463652994,76.5698513088868 58.67286365697401,75.63196086661956 58.665334298751624,75.62930976456883 59.08017717875082,75.6416514797722 59.11587973519527,75.65224457506156 58.95621947563959,74.8645766859674 58.94444484097367,74.81991891341931 59.56544941341745,74.26062780719549 59.591365260527894,74.238443191427 59.52812302052808,73.64433364552569 59.52803563919625,73.60596318889475 58.56588705963986,73.80592673660904 58.50241180274934,73.84036861540118 58.54449319652813,73.13177237536183 58.58467404630683,73.02662681280526 57.89198765341899,72.61621694955866 57.88854337252742,72.61135202897167 58.13410676452804,72.42262136952813 58.16190131030635,72.33827742509493 57.67875535475214,71.14317832106644 57.67701500986186,71.13082643502166 58.40058342230514,70.98828093811062 58.406641861416944,70.98833739251022 58.18303302941677,69.57749516120712 58.18821037341732,69.57094475424711 57.12498343652879,69.13524598378318 57.12183770852753,69.13705313763822 57.30050340808412,67.15644879621577 57.29765623297317,67.15374838001917 55.54055597341685,67.10004484646525 55.519453381417044,67.08326591475816 54.828849576971336,67.90511306194131 54.81824002675021,67.92756067068731 55.93607301519551,69.24667848929712 55.95155407475141,69.26103375814455 55.74054271830719,69.74577016225267 55.74418360719465,69.77895021792975 56.45171754497169,70.76726878243244 56.45717887830579,70.78051350461647 56.397497427639976,71.81774757335843 56.38907969252796,71.83936628062402 55.78784514675099,71.40315984376393 55.75549220808498,71.40291146327836 55.55034996452923,72.29253789966934 55.4767603183067,72.39586894793793 54.69705668097486,72.60935413689768 54.58426922497347,72.81684882025475 54.324156840973956,72.61031357668581 54.31647456541723,72.49704207900541 54.64871295830708,71.97734015974166 54.76826518586204,71.85300352033993 54.0638260036405,71.51166716521439 54.02178830052908,71.51036883835513 53.711606412528276,72.18029834374066 53.61762050675061,72.23713521704376 54.01149186675212,72.68018291523367 53.958626160082716,72.73172085597945 52.637959251639046,72.4404901080652 52.576311720973536,72.46692625201432 52.428404250751555,73.17012359124965 52.43607924452991,73.19728981339759 53.05424392363821,73.79159469814658 53.04866608186167,73.84058303008679 51.34237806764031,74.09658815934127 51.28351945786162,74.00800447506954 50.899849868529785,76.49378287041509 50.8966822951963,76.51658997782397 48.64668577963785,74.05190153769254 48.6437075325277,74.05017500179274 50.45892366052904,70.03255979439892 50.47076383119457,70.0107306585709 48.86089383652907,68.48419116330807 48.819453239195354,68.45373689808366 47.22645512363997,69.42094957772534 47.21634073430796,69.43647897372321 46.917030540529595,69.29212729913307 46.89556385963988,69.28380332822454 47.15697968186178,68.66842680717127 47.13167550408289,68.6416672766125 46.51626333697532,69.44683564453044 46.525860720083074,69.48856706877886 45.72968570141711,69.11684686453263 45.69123063297193,69.12124052111358 44.96506262586227,70.29446873848538 44.966781125417405,70.30396556710802 44.40192634141604,70.07484008647626 44.39865682319396,70.07489655032296 43.42093980274986,71.1995969552565 43.423073363640654,71.20467765215326 42.01366342941656,71.52924535152452 41.99656581519703,71.5364143451112 41.67699043385983,72.5030810273198 41.677172478307696,72.51469610725944 42.08010965163885,73.39953679103819 42.07102199297406,73.40391571641412 40.25735688363966,72.53958548107657 40.21611289430476,72.52040769241466 38.42220324808332,73.42965876083655 38.40878293164024,73.43204007095665 37.918107617860734,72.43217093637395 37.918952304083,72.38601454188938 38.80649907030639,70.65266050925311 38.81654064186041,70.63223401364267 39.08397849430512,68.78689460892966 39.085223678306285,68.78074988915651 37.81054119652727,69.49232796359902 37.79793643919584,69.50000786088822 37.887829985861394,70.03173541578909 37.87657235741681,70.05722333791091 36.91883653519508,69.7221216264199 36.909770721862515,69.72418833635929 36.19322922497413,70.46446060099734 36.18197887830502,70.47789802079824 35.13101445519606,68.24452867235705 35.111848816085335,68.20715953381914 34.40647756630678,68.32893589357737 34.39606462408447,68.32823551783113 34.05229189519487,66.84165487634782 34.053617178749484,66.83164354416259 33.268117246307156,66.67822831538687 33.25050262586046,66.67979898736995 31.89502881964036,67.87430534792693 31.861350597416823,67.8982556210296 31.893004485419443,69.35537551004855 31.873809719195197,69.39635092404096 30.49864598586173,70.22779850381376 30.469453338750828,70.2427383985345 30.46240457786371,69.54220192734392 30.450666352083864,69.51035311721535 30.079572392972842,69.80919380978484 30.076361128974895,69.80963424920519 30.183330444527748,69.10044686065122 30.176849662304814,69.07510130317715 29.685584524528895,68.51107572208603 29.640532165418335,68.39874708960015 28.524796328971934,68.65533509882117 28.510276464083656,68.65388924817272 26.728017662307323,67.87580789173553 26.686729982307952,67.90671727257323 26.508726924528673,69.3991857607649 26.484544140530126,69.50199559725188 26.95817281252712,70.28667703560241 26.936829921861136,70.3743274057375 25.993817854307782,70.73906294984518 25.97479056897173,70.74399728735916 25.78140839652806,71.75619870144475 25.792738842750623,71.80474244033867 24.906073171638493,72.62408434096615 24.901245352974,72.64773159696816 25.511946209862437,74.25338340035997 25.51474241252763,74.2576036634524 25.090134668529572,74.93705734655269 25.04567213341834,74.98400453389804 24.565489861417518,74.42456097418362 24.5613683751948,74.41871597476748 24.0738242258627,74.71855186143549 24.046859802749896,74.74251726036492 24.948737107638227,75.75337996171766 24.974026721860355,75.75856923389838 22.827096488971804,77.47726700344101 22.82027346319701,77.4773797781676 21.561079322749357,79.64534822828901 21.302736410750732,80.05028190640624 22.859274664971238,81.07009216978804 22.901283240972045,81.09833487018369 22.071022220528178,82.69214300457861 22.08036474141882,82.74031927788783 21.176972826749626,83.72816602118729 21.15849167475135,83.77941963508965 20.427736147640463,83.56840936690752 20.42544966941823,83.56828545287027 19.961156236530588,84.71362688200789 19.950015116528448,84.73067836157462 18.941452485417905,85.34139937668407 18.935095493415794,85.34829126402802 18.434764542307313,85.19982097192442 18.368565900529575,85.17060842689716 17.847387219638403,83.46383618495493 17.810410352085093,83.35327910251982 16.561505363638936,84.12440591244558 16.513059696082564,84.1476993332446 15.414057384974512,83.6135364198668 15.391833399194367,83.61021329711694 14.743019717418429,84.69237440207108 14.720446206305134,84.70154214864198 12.454473470307494,84.7725747698616 12.434324791196923,84.75755066466118 11.916845253417343,85.29984516601144 11.892261971639892,85.33610658148719 12.35858702052683,85.47573330859342 12.37718468097337,85.50197133918591 12.243382014304007,85.85607109193698 12.217822974305092,85.88418774240017 11.041888680974445,86.09926351404611 11.0391070418631,86.10676246958356 11.635768631195607,86.42584138429557 11.65303372630624,86.46372788401678 11.482079429416991,88.89074304036222 11.463525459640733,88.94630354456349 10.05084600719456,90.09661797332701" stroke="#009edd" fill="none" stroke-width="5px" vector-effect="non-scaling-stroke" stroke-linejoin="round"></polygon>
  <polygon points="38.91202659386218,119.98260107317074 39.707145754750314,121.07034957111355 39.711318213418785,121.06936501741767 39.23742739741756,122.10571154125974 39.13640729430663,122.26523279564317 40.137229395639224,123.13757925784921 40.170361484527895,123.16749611398446 39.64225055119496,123.54664879994125 39.640138835639306,123.54879594889681 40.354677843639,124.15694213246498 40.39057700808517,124.27233738897522 40.09457274141787,124.48100432788816 40.047998490750985,124.5118307248722 40.338322970750234,124.86776972777044 40.36084550941778,124.90394932699165 39.51520537430661,125.20968873879792 39.500175784972456,125.23075122953779 39.839870718306706,126.48358952187446 39.83746773163912,126.6125270103763 39.34565646052834,127.76022357338115 39.34164420097259,127.76869384062194 40.43554198586389,128.03652858501482 40.445248595638624,128.03910976508814 40.00973274852913,128.86682392077236 40.01780095830509,128.90486532046526 41.0017803076411,129.25972695627317 41.02489995208344,129.26704425637908 41.33178319475155,131.166833468575 41.26994633786271,131.30798995135592 42.49262236274845,132.24931283247898 42.49311752364047,132.25017256744505 44.07969311119705,131.4316329082536 44.11659716097238,131.4227997653088 43.972687386749385,130.92824397852857 43.974507831193115,130.9252732709185 45.37662870586101,129.61328106883047 45.42441173164007,129.60901384446953 45.65102065608262,128.15899362963575 45.6581203894184,128.08922464461685 47.00105497430668,127.96704857280311 47.03525020275156,127.98264757121251 47.33094135297179,127.12194358931629 47.31037033075009,127.1055486655332 48.67298027919497,126.85621016102269 48.67801926941793,126.84606203448239 48.352654874751536,125.26170757824912 48.34492162675197,125.24634681161443 47.57383233252804,124.89071182510561 47.5596328658623,124.88427194779689 46.92441426319601,122.45583342660285 46.92243361963956,122.43720988870373 47.21816117875169,122.34842004584098 47.221612741418724,122.3394940034592 47.0641661423073,121.56183241777363 47.0688920160832,121.54703185309081 48.17548922141905,120.84781357359061 48.18857457608283,120.8244070514822 48.54021162497411,119.49247658822169 48.54214857786028,119.47467116546068 49.61088782052866,118.99792098539947 49.61336362497132,118.99075788963856 50.51209520186131,119.76067008333521 50.774566881861034,119.8563951483713 50.15624928541547,120.52372731100368 50.108662867638124,120.68277980202583 49.983212400084085,122.57447450761575 49.98544062408219,122.66088950658633 50.99288186141821,122.51928720537872 51.06618751830429,122.55158985245107 51.104023635639535,121.79397120675313 51.119359059639464,121.77065820760218 52.554539205418045,122.01239712344142 52.56575314319525,121.99616593552237 52.84053830941739,122.91724079077431 52.839562551195925,122.92565141568667 53.46556970497368,122.80125785559977 53.725725779637656,122.77589115557967 53.98243029164041,123.28316936458032 53.98702509341711,123.28593171448921 53.92989954675031,122.76928103066058 53.933926369862824,122.72657786626988 55.433674039195836,122.66010656550243 55.45857043741744,122.66418904278144 56.64472106497451,123.79249190610172 56.65460243741582,123.80615698911606 57.14723654941663,125.28980179514802 57.19343214763976,125.5019515393 60.179470760973715,122.31519898761071 60.19717276275224,122.2898971580511 59.85602147386126,121.16783070187995 59.76095786497063,121.1002553056027 60.12938669341857,120.69429316630449 60.154363191193625,120.66614188507847 59.430081164527294,120.29767799556612 59.42895977074986,120.29293356815361 60.70354030764029,120.19824557755675 60.78371996274982,120.17113241943044 61.18752366763838,120.84047387184 61.19018879830728,120.84208502672446 62.40110475208385,119.80630587881933 62.41855917341782,119.78506592110972 64.87717134052836,119.63710014391 65.00436215297269,119.58168189474856 65.77407519119625,119.96418176880144 65.78448813341856,119.96138417768125 65.72207601608424,120.73098136445515 65.72537466141694,120.73572541366775 68.69685700097362,120.33692007183745 68.718498444527,120.32313446420049 68.70662914675086,119.95453566860998 68.8792509707495,119.64089390102491 70.05449349519513,118.75471746752338 70.05450805875189,118.74915463052639 68.99449966763969,116.57014878461669 68.988972798306,116.56079904980908 68.08791833430477,115.85254675967045 68.07751267386084,115.85251316344693 68.09849147563982,114.94880120066992 68.17722933874938,114.86929887917104 68.55018015119605,115.29829310447276 68.55789883563885,115.29838270344226 69.90446702763911,114.6391971271125 69.91150850675076,114.629754494179 71.06631836274937,116.03311228890561 71.07745948275151,116.04250771553089 71.32914684986063,115.82580410135743 71.5775865440828,115.66729406356644 71.29653176719621,114.97335282613095 71.28101429875133,114.93590931323598 71.79592336897223,113.63207066897776 71.76849291208383,113.57758889383587 72.9540100249742,113.46136378121919 73.09496339741636,113.35521966921988 74.53972636274885,114.73021745124461 74.5451658507507,114.73198721369737 74.42254799475086,115.39724307528705 74.39303494941741,115.5041316798921 75.08535725341827,116.16399730885496 75.12536334052747,116.19928242679198 76.50188148452908,116.5682788389273 76.52212482674986,116.62790403911241 77.70264664008465,115.9123141144537 77.73114023652634,115.90432949330898 79.08202652275105,116.25421970595671 79.13033383652692,116.22427638141272 79.73260967652787,114.27986157132146 79.74167548986043,114.27561603109535 79.34219716097469,113.97703093870842 79.32900257963811,113.94364718856997 80.98256324097348,112.5395646621375 80.98509729964026,112.539150058608 79.96848830408308,110.61145415947868 79.98774132452854,110.53416454268773 81.51806517875121,110.28995807074571 81.58341913430668,110.2424382749643 81.99263320008359,108.95535735872873 81.99122053519423,108.92402864653451 83.75772156986241,108.78133161201586 83.78363741697285,108.77773218102412 84.11752877341824,107.24669463524953 84.11650932452649,107.19198118150707 83.66087392541704,106.77783266184161 83.66120888719634,106.77271758295137 84.06336691030484,106.58177365960765 84.07157347386129,106.56096483484035 87.15991378319632,108.07174952614187 87.26024211741642,108.27076069406358 88.25140129963876,107.98250279541426 88.2642682009715,107.97731033600176 88.2000574845286,107.29716781712087 88.19745060808383,107.27572237970054 89.09776233074845,106.39855232969458 89.11767799297414,106.38295921976425 89.54497999475171,104.7113002046437 89.55244381697158,104.69050672445775 88.99910880541611,104.66351884657234 88.98941675919524,104.65814369827314 89.18640341164028,103.99327913866473 89.18713887119557,103.96441358325865 88.59215209075083,103.49826769160173 88.58222702763925,103.50881822597913 88.83113275563993,102.93208950377193 88.83159150764004,102.92534318884027 88.25983359830752,102.51842738752057 88.2098733209732,102.42913513747953 88.41087223297109,101.78299714310889 88.39740822586064,101.77915733812733 88.12397018852826,102.22233391025839 88.1158364427498,102.3026147116343 87.0377473974153,101.59552843631718 87.01256700986306,101.59771787248211 85.58597208008469,104.12973753556908 85.58371472897306,104.15881545063058 85.280210231194,103.95595141262639 85.24805390052971,103.95421184012267 84.84234965164106,103.534375127756 84.83124494052791,103.52816830222037 84.9353088267486,102.68562472972154 84.93478453874887,102.66884236115912 84.16206412630454,102.16797446204765 84.0833189814166,102.15764588141064 84.86531637875197,101.16257551142809 84.86719507741982,101.15789311360605 85.57641838763848,101.28730323561359 85.62224261519623,101.27558065714294 85.76505284097112,100.69087962904196 85.80192048186328,100.69045289915704 84.79505450497273,99.8401388349641 84.78449592719444,99.8342310749682 84.86215608719395,99.31222276403751 84.89223711119449,99.24322072013784 84.46073352364074,99.24060350032705 84.45629892097386,99.23532412608802 84.53883059030522,98.65752765400285 84.54129911297241,98.64147438577675 83.7681782027492,97.61027071080353 83.73980839652832,97.30832728896094 80.05385258497154,94.03885216149247 80.04637419919491,94.03226353811225 79.33214830763937,94.29156373384649 79.3260753049708,94.28657190218983 78.50723211208424,92.87987455582079 78.49475114497363,92.86431040458447 78.96930460274926,92.17221198886728 78.96894051386226,92.16502501582181 76.51357601964155,89.08059400342209 76.48056772097371,89.04820614270176 76.00614533519438,90.64005985941077 76.01291010675087,90.64636005759859 75.46272810497213,90.96403814896075 75.45832262941876,90.9721716720207 72.93817215830677,89.38820160244687 72.92862574763895,89.38606354455005 72.42382378497169,85.76936685447764 72.42593550053026,85.76523429351982 71.1219001725276,85.86576611669335 71.10606958763856,85.84857179270658 70.03596865252949,87.13264878905794 69.99150611741534,87.18534523863237 70.30305697963813,87.784536053376 70.33998287475151,87.79802100339185 69.67011757341861,88.1678648815916 69.66487469341847,88.17443805692929 70.19723090319495,89.334671133124 70.19929892808322,89.36371516306572 69.83767128008367,91.67957319405724 69.85074207119361,91.69136132011373 68.73076095830656,92.85210870883785 68.65079975652807,92.8359709404369 68.36882019385995,94.06325023706486 68.29762625252953,94.13419517557959 68.64801811741673,94.46973766410557 68.64929971030688,94.48055293184626 67.32373216541782,94.07954179474218 67.2576281867503,94.007348126137 66.35953012452701,95.3217399393474 66.35678489430757,95.33085617530779 66.54607470763914,95.90453027669756 66.5964209191956,95.95499561535726 67.72614505075217,96.20323560227298 67.73201416364064,96.21621655703821 67.33959187741748,96.98861228060451 67.33182222052892,97.08380282395265 67.99764613519547,98.22854434599176 68.07066052097252,98.2839427697636 67.93536508986035,98.713225052688 67.93422913252907,98.71804434516126 68.72732395919338,99.38846884350679 68.72832884452838,99.39282701399243 68.08820232364124,100.3035861287226 68.0769301316399,100.31929761351094 68.40305911297219,101.24895773493517 68.40782139563998,101.30293330124442 67.62249622586424,100.42953504202488 67.61782860630665,100.42445895812017 67.76247384008494,99.78215041329277 67.82653163919349,99.73812238135761 67.56843630763943,99.6575232104562 67.56614254763882,99.65413119036712 67.79760841786229,101.49680079813879 67.79824193252898,101.52006533521381 66.1430938436406,101.05508147119727 66.03271665608227,101.05948323240919 65.61251438764047,102.04297487546174 65.60032469163889,102.04435579180318 65.14760928541837,101.35495459949198 65.14678644452833,101.35300086226962 62.62538350763971,103.38483694052593 62.61221077164119,103.42006964059584 61.75962382052858,103.52783158454004 61.7435383734166,103.55026816074424 61.550527571638305,103.0082291181887 61.538592737862565,102.98553214783061 59.16571622230586,102.24256419923513 59.129423841862085,102.19524406674937 58.948748371641344,101.68487917726053 58.97539967830708,101.64664873566835 60.04867546852802,100.9074407590746 60.034344929863074,100.86099622016228 58.48321703653092,102.51161320747815 58.45816043919658,102.53002382271116 58.15105874319452,101.82853567777966 58.09469778319654,101.7949768682669 56.70786136008283,101.51299166884893 56.63462852097182,101.48681902391728 55.773864133419195,102.51629444904574 55.760516634751184,102.53116887112738 56.08836411563862,103.07740827555718 56.06255749519514,103.16425421490021 55.44490982230528,103.45114920621891 55.3899105547509,103.44264134697478 56.012364200973025,104.12543924326201 56.01764348986217,104.13337368621906 55.80657387919382,104.70634029910035 55.80962494408487,104.7442127673643 56.20776342586214,105.63731002224995 56.21179024897174,105.63746709673178 55.45720146319545,106.98929661684416 55.44919878941619,106.9972830015282 54.21843270941645,106.88079504468078 54.215920496084806,106.88049218398555 54.15180444275211,106.26908330095358 54.25441925519445,106.10144547939018 53.69038003030474,105.9942052937713 53.68835569608382,105.9927019642044 51.52560944186007,106.55146342067638 51.51999519119454,106.55211404932525 50.32843420274912,107.53244523021313 50.1416274756386,107.57767808267272 48.99747086052849,106.61233051849887 48.98290002319445,106.58977185534641 48.66673251385983,107.0580217685947 48.66613540808503,107.07412892621687 49.155296112083676,107.9401218653311 49.18220228097235,107.97630100206771 48.745157260528146,108.36827868943547 48.74174938852848,108.3663610914682 49.2770911271964,108.74227597758764 49.35326580452857,108.7810400694074 45.16946940986273,110.86434445507658 45.0018356036384,110.89067414757483 45.36527641430621,112.42026960836266 45.45011640719495,112.9936599892888 46.13333648897424,112.89418488445263 47.16008900097404,115.13975663860657 47.164938664973675,115.15265924761952 47.06153742052739,115.75226111949196 47.020147795639424,115.80019239654393 46.364605751195995,115.77437899207763 46.360906608084406,115.7777162633447 46.12654987208262,116.73422004344066 46.12145262763843,116.74400616304375 46.08930357874961,115.72734340948847 46.08156304897457,115.71766746825051 44.87278065608298,115.66513263323905 44.85148873786275,115.66432629631782 44.269776638305125,114.54344830068331 44.18049476097113,114.4495908756453 41.79648440719357,115.83214261590075 41.619165836529646,115.930007903952 40.516748371640645,115.82844701643808 40.34931117341803,115.61609145435105 39.86574287474978,116.0006481106062 39.861898096085135,116.0059225727764 40.81863631475026,116.2790342446202 40.868276193862044,116.296211752194 40.68323165697402,116.67048667317177 40.68343554675121,116.67330833486812 41.90501930497303,117.5621827779618 41.926697157415404,117.65774464698808 41.02626164452995,119.39767407842774 40.97942524986175,119.45368732792159 39.31395160008287,119.08405648051885 39.27888255830513,119.0767144223577 38.91202659386218,119.98260107317074" stroke="#009edd" fill="none" stroke-width="5px" vector-effect="non-scaling-stroke" stroke-linejoin="round"></polygon>
  <polygon points="3.5991326418636165,104.36772075446389 4.931079024084102,104.19838630615742 4.965958739638518,104.19956467382326 7.7252792018600305,105.4043187360152 7.7395005138609125,105.4286999213513 8.994959102305074,105.10841473398068 9.02939462941904,105.10328687713809 10.526484449861528,105.60414476680344 10.533686128085902,105.60878970978702 8.967011639195334,105.73987870059828 8.950219859641583,105.75032394842601 8.258989822304647,106.50330546859078 8.239409121864083,106.54087386766514 8.524505285417035,107.8135827289476 8.523442145860827,107.82285765443413 7.236358796527566,108.15700246113884 7.234764087196163,108.15913320681612 7.456603447195448,108.49818037349651 7.460076855194711,108.51818567721239 7.008053217862107,109.56373131316104 7.000895230305105,109.58034684674823 7.520639400971778,109.99396996658652 7.539055016973362,110.00277035828658 7.318497249861321,110.5991013452982 7.313836912085026,110.61306831826114 7.897806362748452,111.91682847445955 7.965730785862616,112.01201796862334 7.993328723639206,114.10051544228519 7.988806739640495,114.12491402948399 9.38443955030707,114.58794012494073 9.449538643639608,114.619337335807 9.482110035639563,115.97809440843012 9.491154003639895,116.0016335731376 10.24939096008202,116.35665733928509 10.25198327297294,116.35938958056396 10.126146871193852,116.85891898380834 10.122258401861837,116.87080985459653 8.245431152083984,117.19211114348327 8.159797445418736,117.20685626850792 7.86344365341829,119.11577495439015 7.855375443639423,119.14936231302164 8.5723538471957,119.03021076206096 8.656989950307253,119.04308185063746 8.522349879194008,119.78807622569622 8.527032062305443,119.79624544543805 12.466320922751402,122.5229223811668 12.475357608973354,122.53389500488885 13.626366376971783,120.74592958111789 13.638512382305999,120.71815898452661 14.890097064971997,120.12178456170696 14.905061118306548,120.10109413756764 14.89650502941695,118.56805154857466 14.949742106748818,118.4954071637203 15.877848375194663,118.62053623906577 15.91534224897223,118.65712635684213 15.711044691638746,117.97316761962902 15.666079713862928,117.9296547451977 16.555119244529124,117.19891831318273 16.561927706750065,117.18964802079172 15.924990604528649,116.40961106849028 15.899781089862882,116.39525572015447 15.967618131639393,115.57634526780058 15.966955489862086,115.5572952184175 14.819653146750717,115.13537736077306 14.806254675639867,115.10645835911455 15.460449591196449,114.63835703587284 15.476418529860167,114.62832073592182 15.271079678305615,113.73349294064575 15.238581104083643,113.67690597473884 13.102690046305725,112.64136568945578 13.093420343195977,112.65195468075727 13.326997928972197,111.9484538933426 13.348085957418153,111.88611062702586 12.428346451638573,111.52722243225908 12.390641406305441,111.52130483351539 13.189568936975048,111.58079434265565 13.201671251638983,111.58148920500281 14.039672801860798,110.91852811217869 14.068683404529658,110.91879712362316 13.622070128082488,110.54929747576863 13.629300933417472,110.53151907750907 15.778393854307433,109.38167468766369 15.827909943195483,109.34631208306419 16.64036701697223,109.25297120288488 16.673419006304538,109.2608645952354 18.00291871119589,110.53981417592041 18.051976048083816,110.58362105523884 18.175962878305654,109.85420440153722 18.19181530852984,109.80517854685205 18.88607456541686,110.03139115242703 18.92120914319421,110.04941780395785 18.905735365416696,110.4983049294755 18.839085253417217,110.51424505530777 19.683938956527346,111.29988342812176 19.70874069163874,111.31847752102368 19.299868869416606,112.0136093023877 19.247272588526904,112.02657529340831 19.641318711194984,112.13432519207018 19.674967806304995,112.12713072495427 19.66847974230659,112.69162119674911 19.614070298751543,112.71447973679642 20.87246344363848,112.93978813555623 20.88398321608147,112.94804598105439 21.078246483639305,113.33215092332284 21.07418325164072,113.3468616015267 20.47275209786203,113.71665471022317 20.477274081863655,113.74842660412433 21.72217409252953,114.3243779352768 21.775272816083817,114.27554881935103 21.373602672086054,115.74803911546078 21.489412065862055,116.44365168211117 22.14600996808331,116.33384755065964 22.229641185862786,116.80342791307667 22.23095190586064,116.83514836174182 21.81189287652851,117.50815420956825 21.809664652527502,117.51674104822924 23.757423699640277,118.44218250929299 23.78583719652852,118.45127159299483 23.820913520084652,119.7802874788471 23.827314202751225,119.80350820731438 23.52288491919353,119.77472568015983 23.523001427638885,119.78056724724338 24.43171632186168,120.02397154568499 24.46709119830812,120.03097663137197 24.186873825859585,120.37033212347052 24.180604215195128,120.38102930805218 24.846923290750784,121.18511599677332 24.848896652528857,121.18991559328461 24.542916350307134,121.47458346480163 24.489242366307373,121.53783601731885 24.358614554749877,123.60078577358982 24.360354899640154,123.62939170963692 26.40124060275157,124.28726479610378 26.424083539641654,124.30464091784562 26.233271834750852,124.81759194146616 26.228152744971524,124.84258026795615 25.28740531030526,124.93053603770859 25.266149800971107,124.97270779791324 25.997283980528664,125.53140837096907 26.06006746852836,125.57667209053943 27.114417918304753,125.72833469544312 27.13517098497141,125.73529897937006 28.139626693415995,126.75201215142043 28.141767536082263,126.75391216497411 31.203602174304617,127.41012640686422 31.26026168719582,127.43100166876285 31.970824844528764,128.75760286318584 32.013059155638985,128.83148596197026 32.947536979640795,128.7645744848447 32.96097185964063,128.76721118560417 32.88473164630596,129.52448413943384 32.97069303297212,129.7343928996157 32.64447667030509,129.87153134733563 32.606108983194645,129.8949999205437 33.100490721861206,131.75567996595237 33.10094219208295,131.76521605610506 33.65973853697251,132.20809005798546 33.6675664480852,132.20835802934926 34.30049129075087,133.78344691113634 34.30234814408359,133.783714805813 34.06021446941486,134.25530084869715 34.04940831119493,134.26657377213016 34.439158184973714,133.9131287350454 34.44445931919508,133.91029358236884 34.70508870941594,134.92605542312558 34.70738246941655,134.92897933239038 35.301080375195674,135.08596419625283 35.596596762752235,135.09433391828824 35.68413101341758,133.2083697720027 35.69849796097442,133.16181801076783 36.82554239830534,132.65352977031907 36.872888517416506,132.62330719615895 36.62198758230552,132.13705485592837 36.55274515741803,132.0869545007914 36.80717047297403,131.92205668559365 36.8153333458602,131.91603817919278 38.12447320008541,132.85894286192962 38.15992089430693,132.88292341121743 38.308563824084196,132.22196872428648 38.30854197875197,132.2193560094125 39.48419228274906,131.80855257612166 39.5182054667519,131.77547794262247 40.228710369860714,132.21616268954713 40.27688661163739,132.25356684444887 41.242850842750705,131.60652845238403 41.25865958230461,131.60310027619016 41.42517927652989,130.94734134629434 41.53198111119455,130.88128204081914 41.02306494408295,129.2713452602944 41.02489995208344,129.26704425637908 40.03850305252891,128.91350140775066 40.01780095830509,128.90486532046526 40.45097207297404,128.0608430297816 40.445248595638624,128.03910976508814 39.347054561860936,127.76805689485955 39.34164420097259,127.76869384062194 39.823748862305735,126.65626179469874 39.83746773163912,126.6125270103763 39.49895972808481,125.24481520443842 39.500175784972456,125.23075122953779 40.35427006408463,124.90763882775246 40.36084550941778,124.90394932699165 40.06811076097256,124.54842636458525 40.047998490750985,124.5118307248722 40.37393086408447,124.28051112778667 40.39057700808517,124.27233738897522 39.64581134052605,123.55444339396672 39.640138835639306,123.54879594889681 40.13695996985953,123.19555629948337 40.170361484527895,123.16749611398446 39.18517336008554,122.27886811897224 39.13640729430663,122.26523279564317 39.69787605164056,121.07448916995527 39.711318213418785,121.06936501741767 38.91285671652768,119.98562245985123 38.91202659386218,119.98260107317074 39.25135015652813,119.19645813685094 39.27888255830513,119.0767144223577 40.96061641786255,119.42929001871853 40.97942524986175,119.45368732792159 41.915941971641224,117.6653796730494 41.926697157415404,117.65774464698808 41.085615415194845,116.84044441597835 40.68343554675121,116.67330833486812 40.86751888897161,116.30142994137896 40.868276193862044,116.296211752194 39.861898096085135,116.0059225727764 39.86574287474978,116.0006481106062 42.40666825786357,115.447585358554 42.51767167830731,115.34561235654874 40.666265114750786,113.84408847061604 40.662835397418895,113.8380165291008 40.78187790052798,112.4359912446107 40.77798943119597,112.42186082377339 38.663142711196635,109.10760293419627 38.63358597519582,109.06380669464598 38.39879233252905,107.87984146556592 38.38776043919388,107.8549104200869 37.681886746750756,107.49037486578345 37.46658642319562,107.1416752796784 37.53253020275042,106.25037112200408 37.532486512083054,106.2481162328204 36.436877509417904,106.74066971036264 36.43163462941775,106.74312630925452 35.607832545861676,105.16654881069154 35.36823292986264,105.02205963870983 35.61725516630577,104.58103947756645 35.73179024897291,104.37730450816053 34.84835040541839,103.83754699216406 34.68814401252785,103.73990350838467 34.62520032541834,103.15833881200125 34.61075327830513,103.13895375625762 33.80294197875082,103.89027375036568 33.8619389423071,103.98406507236541 32.41403024897336,104.12674107627427 32.405925630305504,104.12824491747342 32.11613272008435,105.78375758323128 31.552617783194364,105.8636945583352 30.592617328085545,104.22455723124914 30.58909294764053,104.21680248044905 30.200049406306427,104.28135399360508 30.18753203030683,104.2743961132208 30.108415514750597,103.10505499954489 30.10511686941791,103.06052608240171 27.93151348452848,102.54754752769841 27.929023116529063,102.54584118605017 27.086921925416757,103.27674667720167 27.064879984084474,103.32805333892065 25.777760225862224,102.61928075208743 25.528898188528913,102.75046368570511 25.32312971208485,102.53904949198078 25.635969448973267,102.2353791994905 25.038069957417974,102.10645175966384 24.99618517163799,102.05005908486675 24.886011873862664,101.0186657447648 24.887460947638104,101.01519596357139 23.258024816085893,98.67004220556592 23.248966284528798,98.65505619519864 23.185083248083902,97.29667485182472 23.17370911119397,97.272178808651 21.963266472974283,97.32127191523506 21.91426739030758,97.35195909715003 20.981398839193936,96.19967285865751 20.926690842751487,96.14526486777214 20.797308215195155,95.40551656511562 20.746787240972118,95.36638799332323 21.203798896084848,94.02749633809181 21.209209256973192,94.01529723424065 19.76337587030612,93.07230858533622 19.74852104363854,92.93659786548125 18.89736132097205,93.56756569772733 18.884858508529216,93.57692098528969 17.253354352082898,93.5441099425214 17.251380990307734,93.5437051443314 16.71887914497529,91.53155581331994 16.714954266751374,91.51093722238039 17.156841669416828,91.23304548234337 17.14393107741671,91.19718310143253 16.36825426319447,90.73657585012153 16.286086682753012,90.65803790577229 16.03416629875028,91.44248924278837 16.001281790306166,91.44865353304377 15.81179536897289,90.86679492612494 15.79321955386149,90.87603108158692 15.547495962751055,92.21760554740068 15.512223031196118,92.21379277289562 15.012911528973564,91.02764355193686 15.019224830308303,90.956860839183 13.527254099639322,90.85424002964464 13.47384954141635,90.8322913914355 12.539109573419047,89.59168462659764 12.536451724528526,89.59031181951178 11.502686860527684,90.3537306982431 11.501958682750775,90.35559835545173 9.645025249863465,90.5183071051888 9.604516720083849,90.53409168916588 8.440320652530136,91.6203734710627 8.412620769862043,91.65312855557022 8.169118120971325,93.59292163838873 8.162921328084849,93.59945456904134 9.71708572275129,95.37284012409401 9.736244080083635,95.38631763405465 8.962482373415332,94.94064297000041 8.9191849227489,94.95801110081848 8.448847614306215,96.382392538137 8.420011774306841,96.52118708934468 8.66470135297168,97.14918004795655 8.64613281964157,97.21883773384653 8.264706017861682,97.3756569900117 8.238389672972335,97.53791007923174 8.467845772528745,98.34493543819008 8.479817015196387,98.35127171625828 7.32181045875077,98.94192894755288 7.2897779183073,98.94396217774084 8.296461850749983,100.43538600901411 8.33211343475159,100.47537680806309 6.995994593862633,101.08071718899774 6.97387983474946,101.08625305099304 4.167540933417695,99.42734405108386 4.161176659640114,99.42839988933883 4.313911948529494,100.37192345960685 4.33870640186251,100.37416953654211 3.960192311196079,100.98626980573354 3.9565004498628698,101.02507753530118 4.705817228528395,102.50228439042877 4.7058463556390056,102.51697923464417 3.5991326418636165,104.36772075446389" stroke="#009edd" fill="none" stroke-width="5px" vector-effect="non-scaling-stroke" stroke-linejoin="round"></polygon>
  <polygon points="1.7261356071965566,52.938024870226585 3.3932913476386606,56.45490976033216 3.4182824089733916,56.49679732475379 3.169871841861823,58.42208903676983 3.156102000082683,58.433587016341704 3.9163341636409315,60.190433199436306 3.914659354750256,60.20356786708908 4.527552026750709,60.611439548699494 4.542668997416695,60.629211263309486 4.201961896971989,61.38895162054578 4.198612279193549,61.39222043020018 4.974900762750258,61.92078040110828 4.980908229416309,61.934012687563154 4.695054760972925,63.27082836793743 4.691705143194485,63.28353726454698 5.013785456084952,64.08695304105241 5.018635120084582,64.1199527291803 4.496371454307883,64.78655115955371 4.483067646307245,64.82446370122089 5.201276670305015,66.68383301334434 5.20146599652835,66.68675965777548 5.884081690751555,67.09292651810283 5.886987120083723,67.10203345717346 3.883959379639782,68.26304369789032 3.878141239194156,68.26600338498429 3.4776798703056557,72.0065781629255 3.480694526304797,72.0296523684101 5.208106977861099,73.41256069795672 5.2645698827505845,73.43110334719422 4.93773456897361,74.89097853235326 4.917127137862917,74.90174232541504 5.300483610750598,75.75318818417327 5.3045832516410885,75.77226437637474 7.104070739639065,78.18740842066946 7.091444136972496,78.19985711835798 8.195390775196211,78.5518931949413 8.226891745861577,78.56967424319483 8.36260952008488,79.13216593628059 8.353004855195833,79.17863740512439 7.56880836097298,80.10248304897578 7.551783564528524,80.11199665631757 9.053963347639728,81.28357677026834 9.084037089861885,81.29369688061743 7.316451070305266,83.47399732084196 7.315708328974506,83.4841697029322 10.377695884528293,83.46152683325818 10.387853964527677,83.43912043858036 11.459258337862048,84.36108632917932 11.478817192973294,84.3674050254067 11.245443496974259,86.16184457263044 11.262905200083697,86.16465946487915 12.392723994750487,85.6973675120029 12.396059048972166,85.69507036379692 11.998175429417826,85.3621200575366 11.892261971639892,85.33610658148719 12.429489690751144,84.76612139239916 12.434324791196923,84.75755066466118 14.681029943195245,84.7031864848559 14.720446206305134,84.70154214864198 15.440344602750338,83.72025827797953 15.391833399194367,83.61021329711694 16.4505674791948,84.14571691831406 16.513059696082564,84.1476993332446 17.70376143474896,83.43667589424041 17.810410352085093,83.35327910251982 18.392129733418187,85.13177824886698 18.368565900529575,85.17060842689716 18.93312213164063,85.34771694041447 18.935095493415794,85.34829126402802 19.911574611640027,84.75997209370144 19.950015116528448,84.73067836157462 20.31470111119452,83.69082379998181 20.42544966941823,83.56828545287027 21.119920097863726,83.76773835919921 21.15849167475135,83.77941963508965 22.546449491639578,81.97762867156308 22.576574206307487,81.94631428078756 22.547170387638108,81.66658396389867 22.901283240972045,81.09833487018369 21.70049624008425,80.31392019366795 21.302736410750732,80.05028190640624 22.837203596528344,77.49419446377033 22.82027346319701,77.4773797781676 24.96338076275024,75.76765044835375 24.974026721860355,75.75856923389838 24.046757857861305,74.74451437219578 24.046859802749896,74.74251726036492 24.536654021418144,74.42643408078038 24.5613683751948,74.41871597476748 25.041062768084885,74.98104848642143 25.04567213341834,74.98400453389804 25.485760936972294,74.27677535234143 25.51474241252763,74.2576036634524 24.9222824089713,72.65847723745283 24.901245352974,72.64773159696816 25.745050480084686,71.78229948167755 25.792738842750623,71.80474244033867 25.968506394750513,70.75179962888251 25.97479056897173,70.74399728735916 26.913877758304082,70.39862805793419 26.936829921861136,70.3743274057375 26.49951547564015,69.5301513533097 26.484544140530126,69.50199559725188 26.664447742306585,67.94495835123853 26.686729982307952,67.90671727257323 28.38723626497267,68.5928468916758 28.510276464083656,68.65388924817272 29.622968517417394,68.4026668827024 29.640532165418335,68.39874708960015 30.46497504541658,70.21110823293748 30.469453338750828,70.2427383985345 31.82360186141923,69.46026427567595 31.873809719195197,69.39635092404096 32.145667610750024,67.42274394486049 32.16735274497078,67.3810193172878 33.39332741519502,66.69921200377757 33.41078183652899,66.69165246136436 33.527537861415844,65.62105220046543 33.532423934307374,65.61076737997246 35.109773509418666,63.960277152741405 35.12133697252903,63.95734904520978 35.45298554141664,62.95864831627878 35.45254863475166,62.95581013104566 34.46780469874975,62.789451450134585 34.44363647830505,62.77421974308709 34.513403191195174,61.83107143792623 34.50682774586203,61.78040309092358 35.208514416082835,61.539235663187355 35.22999566052931,61.53468885971415 35.73913756275033,60.55794305748023 35.77505857252873,60.50849595009822 36.4893063094165,60.47188828540566 36.52259859741789,60.49196823080893 37.47914020808421,58.64073888090971 37.51517044452667,58.61044461462188 36.76214724097408,56.91274600647339 36.75718835030457,56.90693881480293 34.001166533418655,54.82317250264933 33.99900384541725,54.81227842091794 35.18371268097435,54.18218519309776 35.19744611386159,54.14436844755292 34.94535824897357,51.72836604237128 34.897640759197024,51.60941364393111 35.7979670454155,50.79209802774022 35.83072048186332,50.74863663224278 36.31144160541771,49.434522063892295 36.45791456541811,49.24903433369218 38.751062896084115,47.512354916557165 38.793814213415686,47.463855177212466 39.73733600541782,45.7338656683296 39.772521555638015,45.64094040440432 39.332250707639105,43.84386524867041 39.308046078305416,43.76308350270447 39.52949222230709,43.34124917606569 39.5728988996405,43.26964087621928 38.740249456085806,41.29003012666108 38.7014667076397,41.23721762406531 36.39936907208357,40.67258449761903 36.35696728008516,40.65597374795362 35.40355683386042,39.45128094549037 35.36246576186277,39.40277742067301 34.16038988630644,39.299715930830644 34.13431384008327,39.2829874187697 32.641119770751175,35.82712242182352 32.600807848973275,35.71797007386231 31.18478606052995,34.354784533418204 31.159379937862468,34.32314984975274 29.935895635637646,34.981472504785415 29.88231631475101,34.98818967182342 26.318417662305365,34.80750521530463 26.286086568974497,34.817200520482224 26.096119550305957,34.207521979451485 26.077871415195478,34.151457718068926 26.507831265863572,33.58249550801884 26.532567464972455,33.50762074218983 25.117048119193715,32.09363998707304 25.092457555640795,32.034699550064765 24.487938928084986,32.10111126439915 24.470397125416277,32.09532301543404 24.395030725417385,31.369423156266933 24.399640090750836,31.347813783663515 25.010617655194437,30.37680457064016 25.07134768186261,30.257486581516062 24.310045096972683,29.89274791525277 24.27828926408438,29.901405367238112 23.788968360973016,27.99408896174755 23.774018871195224,27.966491413962288 22.52929362319301,28.331222937182247 22.469845189417903,28.282119324834277 20.970286846305317,25.072385786375165 20.944596734304287,25.076826531462213 20.02040806230689,25.732935154239023 19.98653323208164,25.776915790157002 20.217292769860435,26.717490093734888 20.2108483965294,26.787791538938837 19.557956919195206,27.554184416354474 19.52275680541825,27.595953719730097 15.378442209861896,27.565577111085076 15.347385427639892,27.57750470192441 14.349337683637351,28.65099437078061 14.325977740528835,28.69176526880365 14.191403205418101,30.15409222159251 14.159276001861508,30.195625388957342 12.740479856085223,30.391308199368723 12.706736097862086,30.37741884275929 12.93557324630565,32.7694021741223 12.932813452526535,32.7958382907691 11.681192360974457,34.10353209196074 11.65415512008367,34.14454626866391 10.488713868528794,38.44833626130021 10.485509886306318,38.465976020890594 9.934796314749475,38.39480327278034 9.917349175193886,38.40934230759049 10.009281619640024,39.872701695068464 10.01097099208455,39.875847181193606 8.48666916808179,40.50565721329949 8.476853331640086,40.52273394401309 9.254015628526759,42.70861226274756 9.262695507640093,42.73980095312473 9.90218851386344,43.18416361754244 9.906441072085364,43.18759090469285 8.01615709697253,45.01870180234146 8.012144837416782,45.02647299176788 9.095877260527415,46.16216119999772 9.135490131639017,46.21499396549662 8.607947176973175,46.8945490954724 8.605471372527608,46.895320276615166 9.296679564529404,47.62273358669373 9.499025605417046,47.83657880335704 8.675798782306448,48.55203005332333 8.647232368083861,48.565771021535696 8.855258195639545,49.300386149976475 8.841604862305758,49.33842925824465 7.740854924529049,49.53130463330199 7.690319386749252,49.527495935051775 6.399667966306516,50.932033431566744 6.360171603640265,50.96422894487805 5.752390739640759,50.98570384703962 5.718821744084199,50.98680308777439 5.8458013849729475,52.00043524076646 5.825325025861457,52.07374158319472 4.444488787638329,53.458468239092696 4.39235125875166,53.48738659438132 4.018548478307276,52.740557382090266 4.012912382306604,52.738756113946515 1.7261356071965566,52.938024870226585" stroke="#009edd" fill="none" stroke-width="5px" vector-effect="non-scaling-stroke" stroke-linejoin="round"></polygon>
  <polygon points="1.7261356071965566,52.938024870226585 3.3932913476386606,56.45490976033216 3.4182824089733916,56.49679732475379 3.169871841861823,58.42208903676983 3.156102000082683,58.433587016341704 3.9163341636409315,60.190433199436306 3.914659354750256,60.20356786708908 4.527552026750709,60.611439548699494 4.542668997416695,60.629211263309486 4.201961896971989,61.38895162054578 4.198612279193549,61.39222043020018 4.974900762750258,61.92078040110828 4.980908229416309,61.934012687563154 4.695054760972925,63.27082836793743 4.691705143194485,63.28353726454698 5.013785456084952,64.08695304105241 5.018635120084582,64.1199527291803 4.496371454307883,64.78655115955371 4.483067646307245,64.82446370122089 5.201276670305015,66.68383301334434 5.20146599652835,66.68675965777548 5.884081690751555,67.09292651810283 5.886987120083723,67.10203345717346 3.883959379639782,68.26304369789032 3.878141239194156,68.26600338498429 3.4776798703056557,72.0065781629255 3.480694526304797,72.0296523684101 5.208106977861099,73.41256069795672 5.2645698827505845,73.43110334719422 4.93773456897361,74.89097853235326 4.917127137862917,74.90174232541504 5.672720808971281,76.4533344230109 5.671126099639878,76.45821848177766 7.104070739639065,78.18740842066946 7.091444136972496,78.19985711835798 8.195390775196211,78.5518931949413 8.226891745861577,78.56967424319483 8.36260952008488,79.13216593628059 8.353004855195833,79.17863740512439 7.56880836097298,80.10248304897578 7.551783564528524,80.11199665631757 9.053963347639728,81.28357677026834 9.084037089861885,81.29369688061743 7.316451070305266,83.47399732084196 7.315708328974506,83.4841697029322 10.377695884528293,83.46152683325818 10.387853964527677,83.43912043858036 11.459258337862048,84.36108632917932 11.478817192973294,84.3674050254067 11.041888680974445,86.09926351404611 11.0391070418631,86.10676246958356 11.650827347640371,86.55549881996303 11.667123966305008,86.58938758754121 11.482079429416991,88.89074304036222 11.463525459640733,88.94630354456349 10.102437402752185,90.01246752595216 10.071162167196235,90.0349595291471 10.207054704083204,90.50712398677751 10.206668769861063,90.51737330442593 8.440320652530136,91.6203734710627 8.412620769862043,91.65312855557022 8.169118120971325,93.59292163838873 8.162921328084849,93.59945456904134 9.71708572275129,95.37284012409401 9.736244080083635,95.38631763405465 8.962482373415332,94.94064297000041 8.9191849227489,94.95801110081848 8.448847614306215,96.382392538137 8.420011774306841,96.52118708934468 8.66470135297168,97.14918004795655 8.64613281964157,97.21883773384653 8.264706017861682,97.3756569900117 8.238389672972335,97.53791007923174 8.467845772528745,98.34493543819008 8.479817015196387,98.35127171625828 7.32181045875077,98.94192894755288 7.2897779183073,98.94396217774084 8.296461850749983,100.43538600901411 8.33211343475159,100.47537680806309 6.995994593862633,101.08071718899774 6.97387983474946,101.08625305099304 4.167540933417695,99.42734405108386 4.161176659640114,99.42839988933883 4.313911948529494,100.37192345960685 4.33870640186251,100.37416953654211 3.960192311196079,100.98626980573354 3.9565004498628698,101.02507753530118 4.705817228528395,102.50228439042877 4.7058463556390056,102.51697923464417 3.5991326418636165,104.36772075446389 3.5998608196405257,104.39922139012961 4.931079024084102,104.19838630615742 4.965958739638518,104.19956467382326 7.7252792018600305,105.4043187360152 7.7395005138609125,105.4286999213513 8.994959102305074,105.10841473398068 9.02939462941904,105.10328687713809 10.526484449861528,105.60414476680344 10.533686128085902,105.60878970978702 8.967011639195334,105.73987870059828 8.950219859641583,105.75032394842601 8.258989822304647,106.50330546859078 8.239409121864083,106.54087386766514 8.524505285417035,107.8135827289476 8.523442145860827,107.82285765443413 7.236358796527566,108.15700246113884 7.234764087196163,108.15913320681612 7.456603447195448,108.49818037349651 7.460076855194711,108.51818567721239 7.008053217862107,109.56373131316104 7.000895230305105,109.58034684674823 7.520639400971778,109.99396996658652 7.539055016973362,110.00277035828658 7.318497249861321,110.5991013452982 7.313836912085026,110.61306831826114 7.897806362748452,111.91682847445955 7.965730785862616,112.01201796862334 7.993328723639206,114.10051544228519 7.988806739640495,114.12491402948399 9.38443955030707,114.58794012494073 9.449538643639608,114.619337335807 9.482110035639563,115.97809440843012 9.491154003639895,116.0016335731376 10.24939096008202,116.35665733928509 10.25198327297294,116.35938958056396 10.126146871193852,116.85891898380834 10.122258401861837,116.87080985459653 8.245431152083984,117.19211114348327 8.159797445418736,117.20685626850792 7.739209242751895,118.74439767289478 7.7421001085273025,118.77438322639101 8.5723538471957,119.03021076206096 8.656989950307253,119.04308185063746 8.522349879194008,119.78807622569622 8.527032062305443,119.79624544543805 12.466320922751402,122.5229223811668 12.475357608973354,122.53389500488885 13.626366376971783,120.74592958111789 13.638512382305999,120.71815898452661 14.890097064971997,120.12178456170696 14.905061118306548,120.10109413756764 14.89650502941695,118.56805154857466 14.949742106748818,118.4954071637203 15.877848375194663,118.62053623906577 15.91534224897223,118.65712635684213 15.711044691638746,117.97316761962902 15.666079713862928,117.9296547451977 16.555119244529124,117.19891831318273 16.561927706750065,117.18964802079172 15.924990604528649,116.40961106849028 15.899781089862882,116.39525572015447 15.967618131639393,115.57634526780058 15.966955489862086,115.5572952184175 14.819653146750717,115.13537736077306 14.806254675639867,115.10645835911455 15.460449591196449,114.63835703587284 15.476418529860167,114.62832073592182 15.271079678305615,113.73349294064575 15.238581104083643,113.67690597473884 13.102690046305725,112.64136568945578 13.093420343195977,112.65195468075727 13.326997928972197,111.9484538933426 13.348085957418153,111.88611062702586 12.428346451638573,111.52722243225908 12.390641406305441,111.52130483351539 13.189568936975048,111.58079434265565 13.201671251638983,111.58148920500281 14.039672801860798,110.91852811217869 14.068683404529658,110.91879712362316 13.622070128082488,110.54929747576863 13.629300933417472,110.53151907750907 15.778393854307433,109.38167468766369 15.827909943195483,109.34631208306419 16.64036701697223,109.25297120288488 16.673419006304538,109.2608645952354 18.00291871119589,110.53981417592041 18.051976048083816,110.58362105523884 18.175962878305654,109.85420440153722 18.19181530852984,109.80517854685205 18.88607456541686,110.03139115242703 18.92120914319421,110.04941780395785 18.905735365416696,110.4983049294755 18.839085253417217,110.51424505530777 19.683938956527346,111.29988342812176 19.70874069163874,111.31847752102368 19.299868869416606,112.0136093023877 19.247272588526904,112.02657529340831 19.641318711194984,112.13432519207018 19.674967806304995,112.12713072495427 19.66847974230659,112.69162119674911 19.614070298751543,112.71447973679642 20.87246344363848,112.93978813555623 20.88398321608147,112.94804598105439 21.078246483639305,113.33215092332284 21.07418325164072,113.3468616015267 20.47275209786203,113.71665471022317 20.477274081863655,113.74842660412433 21.72217409252953,114.3243779352768 21.775272816083817,114.27554881935103 21.373602672086054,115.74803911546078 21.489412065862055,116.44365168211117 22.14600996808331,116.33384755065964 22.229641185862786,116.80342791307667 22.23095190586064,116.83514836174182 21.81189287652851,117.50815420956825 21.809664652527502,117.51674104822924 23.757423699640277,118.44218250929299 23.78583719652852,118.45127159299483 23.820913520084652,119.7802874788471 23.827314202751225,119.80350820731438 23.52288491919353,119.77472568015983 23.523001427638885,119.78056724724338 24.43171632186168,120.02397154568499 24.46709119830812,120.03097663137197 24.186873825859585,120.37033212347052 24.180604215195128,120.38102930805218 24.846923290750784,121.18511599677332 24.848896652528857,121.18991559328461 24.542916350307134,121.47458346480163 24.489242366307373,121.53783601731885 24.358614554749877,123.60078577358982 24.360354899640154,123.62939170963692 26.40124060275157,124.28726479610378 26.424083539641654,124.30464091784562 26.233271834750852,124.81759194146616 26.228152744971524,124.84258026795615 25.28740531030526,124.93053603770859 25.266149800971107,124.97270779791324 25.997283980528664,125.53140837096907 26.06006746852836,125.57667209053943 27.114417918304753,125.72833469544312 27.13517098497141,125.73529897937006 28.139626693415995,126.75201215142043 28.141767536082263,126.75391216497411 31.203602174304617,127.41012640686422 31.26026168719582,127.43100166876285 31.970824844528764,128.75760286318584 32.013059155638985,128.83148596197026 32.80413692986076,128.61404582426076 32.84541004630628,128.6452624529764 32.88473164630596,129.52448413943384 32.97069303297212,129.7343928996157 32.64447667030509,129.87153134733563 32.606108983194645,129.8949999205437 33.1646723111935,131.98372645635865 33.177488240083406,132.0184523856373 33.65973853697251,132.20809005798546 33.6675664480852,132.20835802934926 34.00951873252816,133.74377603045613 34.30155443030417,133.78096888475304 34.04940831119493,134.26657377213016 34.05285259208358,134.27162983821364 34.439158184973714,133.9131287350454 34.44445931919508,133.91029358236884 34.340395432974404,134.39068601690414 34.318142320083645,134.46925922904083 35.301080375195674,135.08596419625283 35.596596762752235,135.09433391828824 35.68413101341758,133.2083697720027 35.69849796097442,133.16181801076783 36.82554239830534,132.65352977031907 36.872888517416506,132.62330719615895 36.62198758230552,132.13705485592837 36.55274515741803,132.0869545007914 36.80717047297403,131.92205668559365 36.8153333458602,131.91603817919278 38.12447320008541,132.85894286192962 38.15992089430693,132.88292341121743 38.308563824084196,132.22196872428648 38.30854197875197,132.2193560094125 39.48419228274906,131.80855257612166 39.5182054667519,131.77547794262247 40.228710369860714,132.21616268954713 40.27688661163739,132.25356684444887 41.261346558305746,131.32141302962154 41.26994633786271,131.30798995135592 42.83198961608178,132.13261093824585 42.90117378675095,132.116979038496 44.07969311119705,131.4316329082536 44.11659716097238,131.4227997653088 43.972687386749385,130.92824397852857 43.974507831193115,130.9252732709185 45.37662870586101,129.61328106883047 45.42441173164007,129.60901384446953 45.65102065608262,128.15899362963575 45.6581203894184,128.08922464461685 47.00105497430668,127.96704857280311 47.03525020275156,127.98264757121251 47.33094135297179,127.12194358931629 47.31037033075009,127.1055486655332 48.659909488085034,126.86583298177902 48.67298027919497,126.85621016102269 48.352654874751536,125.26170757824912 48.34492162675197,125.24634681161443 47.57383233252804,124.89071182510561 47.5596328658623,124.88427194779689 46.92441426319601,122.45583342660285 46.92243361963956,122.43720988870373 47.21816117875169,122.34842004584098 47.221612741418724,122.3394940034592 47.0641661423073,121.56183241777363 47.0688920160832,121.54703185309081 48.17548922141905,120.84781357359061 48.18857457608283,120.8244070514822 48.54214857786028,119.47467116546068 48.559493772527276,119.46453178516714 49.61088782052866,118.99792098539947 49.61336362497132,118.99075788963856 50.51209520186131,119.76067008333521 50.774566881861034,119.8563951483713 50.15624928541547,120.52372731100368 50.108662867638124,120.68277980202583 49.983212400084085,122.57447450761575 49.98544062408219,122.66088950658633 50.99288186141821,122.51928720537872 51.06618751830429,122.55158985245107 51.104023635639535,121.79397120675313 51.119359059639464,121.77065820760218 52.554539205418045,122.01239712344142 52.56575314319525,121.99616593552237 52.84053830941739,122.91724079077431 52.839562551195925,122.92565141568667 53.46556970497368,122.80125785559977 53.725725779637656,122.77589115557967 53.98243029164041,123.28316936458032 53.98702509341711,123.28593171448921 53.92989954675031,122.76928103066058 53.933926369862824,122.72657786626988 55.433674039195836,122.66010656550243 55.45857043741744,122.66418904278144 56.64472106497451,123.79249190610172 56.65460243741582,123.80615698911606 57.14723654941663,125.28980179514802 57.19343214763976,125.5019515393 60.179470760973715,122.31519898761071 60.19717276275224,122.2898971580511 59.85602147386126,121.16783070187995 59.76095786497063,121.1002553056027 60.12938669341857,120.69429316630449 60.154363191193625,120.66614188507847 59.430081164527294,120.29767799556612 59.42895977074986,120.29293356815361 60.70354030764029,120.19824557755675 60.78371996274982,120.17113241943044 61.18752366763838,120.84047387184 61.19018879830728,120.84208502672446 62.40110475208385,119.80630587881933 62.41855917341782,119.78506592110972 64.87717134052836,119.63710014391 65.00436215297269,119.58168189474856 65.77407519119625,119.96418176880144 65.78448813341856,119.96138417768125 65.72207601608424,120.73098136445515 65.72537466141694,120.73572541366775 68.69685700097362,120.33692007183745 68.718498444527,120.32313446420049 68.70662914675086,119.95453566860998 68.8792509707495,119.64089390102491 70.05449349519513,118.75471746752338 70.05450805875189,118.74915463052639 68.99449966763969,116.57014878461669 68.988972798306,116.56079904980908 68.08791833430477,115.85254675967045 68.07751267386084,115.85251316344693 68.09849147563982,114.94880120066992 68.17722933874938,114.86929887917104 68.55018015119605,115.29829310447276 68.55789883563885,115.29838270344226 69.90446702763911,114.6391971271125 69.91150850675076,114.629754494179 71.06631836274937,116.03311228890561 71.07745948275151,116.04250771553089 71.32914684986063,115.82580410135743 71.5775865440828,115.66729406356644 71.29653176719621,114.97335282613095 71.28101429875133,114.93590931323598 71.79592336897223,113.63207066897776 71.76849291208383,113.57758889383587 72.9540100249742,113.46136378121919 73.09496339741636,113.35521966921988 74.53972636274885,114.73021745124461 74.5451658507507,114.73198721369737 74.42254799475086,115.39724307528705 74.39303494941741,115.5041316798921 75.08535725341827,116.16399730885496 75.12536334052747,116.19928242679198 76.50188148452908,116.5682788389273 76.52212482674986,116.62790403911241 77.70264664008465,115.9123141144537 77.73114023652634,115.90432949330898 79.08202652275105,116.25421970595671 79.13033383652692,116.22427638141272 79.73260967652787,114.27986157132146 79.74167548986043,114.27561603109535 79.34219716097469,113.97703093870842 79.32900257963811,113.94364718856997 80.98256324097348,112.5395646621375 80.98509729964026,112.539150058608 79.96848830408308,110.61145415947868 79.98774132452854,110.53416454268773 81.51806517875121,110.28995807074571 81.58341913430668,110.2424382749643 81.99263320008359,108.95535735872873 81.99122053519423,108.92402864653451 83.75772156986241,108.78133161201586 83.78363741697285,108.77773218102412 84.11752877341824,107.24669463524953 84.11650932452649,107.19198118150707 83.66087392541704,106.77783266184161 83.66120888719634,106.77271758295137 84.06336691030484,106.58177365960765 84.07157347386129,106.56096483484035 87.15991378319632,108.07174952614187 87.26024211741642,108.27076069406358 88.25140129963876,107.98250279541426 88.2642682009715,107.97731033600176 88.2000574845286,107.29716781712087 88.19745060808383,107.27572237970054 89.09776233074845,106.39855232969458 89.11767799297414,106.38295921976425 89.54497999475171,104.7113002046437 89.55244381697158,104.69050672445775 88.99910880541611,104.66351884657234 88.98941675919524,104.65814369827314 89.18640341164028,103.99327913866473 89.18713887119557,103.96441358325865 88.59215209075083,103.49826769160173 88.58222702763925,103.50881822597913 88.83113275563993,102.93208950377193 88.83159150764004,102.92534318884027 88.25983359830752,102.51842738752057 88.2098733209732,102.42913513747953 88.41087223297109,101.78299714310889 88.39740822586064,101.77915733812733 88.12397018852826,102.22233391025839 88.1158364427498,102.3026147116343 87.0377473974153,101.59552843631718 87.01256700986306,101.59771787248211 85.58371472897306,104.15881545063058 85.55521385075008,104.19103553071218 84.84234965164106,103.534375127756 84.83124494052791,103.52816830222037 84.9353088267486,102.68562472972154 84.93478453874887,102.66884236115912 84.13090539919395,101.96815787998385 84.12435179919304,101.94290803624062 84.86531637875197,101.16257551142809 84.86719507741982,101.15789311360605 85.57641838763848,101.28730323561359 85.62224261519623,101.27558065714294 85.59801614053032,100.08338476137324 85.5980889583083,100.07998177389273 84.79505450497273,99.8401388349641 84.78449592719444,99.8342310749682 84.86215608719395,99.31222276403751 84.89223711119449,99.24322072013784 84.46073352364074,99.24060350032705 84.45629892097386,99.23532412608802 84.53883059030522,98.65752765400285 84.54129911297241,98.64147438577675 83.7681782027492,97.61027071080353 83.73980839652832,97.30832728896094 82.12851845519509,95.60647182905706 82.10204191119593,95.56961522099628 80.05385258497154,94.03885216149247 80.04637419919491,94.03226353811225 79.33214830763937,94.29156373384649 79.3260753049708,94.28657190218983 78.50723211208424,92.87987455582079 78.49475114497363,92.86431040458447 78.96930460274926,92.17221198886728 78.96894051386226,92.16502501582181 77.09099915208536,89.5270385421598 77.08036775652619,89.51712494975254 76.2819717956405,89.08538802072181 76.27816342586193,89.08646836207082 76.00614533519438,90.64005985941077 76.01291010675087,90.64636005759859 75.46272810497213,90.96403814896075 75.45832262941876,90.9721716720207 72.92862574763895,89.38606354455005 72.90729742052973,89.3617571434199 72.29773980275095,86.26082657361295 72.29074201430667,86.23909594991311 73.5008424089716,83.93399987822522 73.51389135474929,83.92008862377443 73.55495329963924,83.05743159505255 73.55391200541526,83.04143390111167 72.72485247830518,83.20493488740067 72.70987386141678,83.18206554722747 72.33283797163931,80.76619779251524 72.29726648719698,80.72087816913736 70.37012943474875,79.97955989142247 70.32115219741718,79.98382082291829 68.34910842141726,80.96343127004694 68.34010086230592,81.0127723380243 67.69272897252704,80.544273445402 67.68284760008574,80.53885202178972 67.26597310408434,81.24111267315348 67.18416961252989,81.27386234827463 67.45848874497351,81.65800837638417 67.42149003208506,81.70292582475705 66.61675892452949,81.02515825112242 66.60821011741828,81.02160815151183 65.4042482614157,81.14308786876973 65.3733298329713,81.13382399432486 64.37741564986246,80.14060501085078 64.36633278408445,80.131271805261 63.51828966230569,80.24730451125689 63.507672830306184,80.2536730506825 63.047988762749085,79.87939322747297 63.03962928186411,79.87602274399143 63.00236114319305,78.97337979885816 63.01511881786173,78.95118048887707 62.24186683563931,78.48340686672492 62.248223827638505,78.47807360165207 61.15026281075152,78.80411482921227 61.12421589163896,78.8105977977819 60.57576695297212,77.71230703439834 60.56413795386216,77.68850126170037 60.906447045419554,76.58291277584685 60.92279463652994,76.5698513088868 58.67286365697401,75.63196086661956 58.665334298751624,75.62930976456883 59.08017717875082,75.6416514797722 59.11587973519527,75.65224457506156 58.95621947563959,74.8645766859674 58.94444484097367,74.81991891341931 59.56544941341745,74.26062780719549 59.591365260527894,74.238443191427 59.52812302052808,73.64433364552569 59.52803563919625,73.60596318889475 58.56588705963986,73.80592673660904 58.50241180274934,73.84036861540118 58.54449319652813,73.13177237536183 58.58467404630683,73.02662681280526 57.89198765341899,72.61621694955866 57.88854337252742,72.61135202897167 58.13410676452804,72.42262136952813 58.16190131030635,72.33827742509493 57.67875535475214,71.14317832106644 57.67701500986186,71.13082643502166 58.40058342230514,70.98828093811062 58.406641861416944,70.98833739251022 58.18303302941677,69.57749516120712 58.18821037341732,69.57094475424711 57.12498343652879,69.13524598378318 57.12183770852753,69.13705313763822 57.36062176541782,67.19589279845131 57.35017241430651,67.17616518359173 55.54055597341685,67.10004484646525 55.519453381417044,67.08326591475816 54.828849576971336,67.90511306194131 54.81824002675021,67.92756067068731 55.93607301519551,69.24667848929712 55.95155407475141,69.26103375814455 55.74054271830719,69.74577016225267 55.74418360719465,69.77895021792975 56.45171754497169,70.76726878243244 56.45717887830579,70.78051350461647 56.397497427639976,71.81774757335843 56.38907969252796,71.83936628062402 55.78784514675099,71.40315984376393 55.75549220808498,71.40291146327836 55.55034996452923,72.29253789966934 55.4767603183067,72.39586894793793 54.69705668097486,72.60935413689768 54.58426922497347,72.81684882025475 54.324156840973956,72.61031357668581 54.31647456541723,72.49704207900541 54.64871295830708,71.97734015974166 54.76826518586204,71.85300352033993 54.0638260036405,71.51166716521439 54.02178830052908,71.51036883835513 53.711606412528276,72.18029834374066 53.61762050675061,72.23713521704376 54.01149186675212,72.68018291523367 53.958626160082716,72.73172085597945 52.637959251639046,72.4404901080652 52.576311720973536,72.46692625201432 52.428404250751555,73.17012359124965 52.43607924452991,73.19728981339759 53.05424392363821,73.79159469814658 53.04866608186167,73.84058303008679 51.34237806764031,74.09658815934127 51.28351945786162,74.00800447506954 50.899849868529785,76.49378287041509 50.8966822951963,76.51658997782397 48.64668577963785,74.05190153769254 48.6437075325277,74.05017500179274 50.45892366052904,70.03255979439892 50.47076383119457,70.0107306585709 48.86089383652907,68.48419116330807 48.819453239195354,68.45373689808366 47.22645512363997,69.42094957772534 47.21634073430796,69.43647897372321 46.917030540529595,69.29212729913307 46.89556385963988,69.28380332822454 47.15697968186178,68.66842680717127 47.13167550408289,68.6416672766125 46.51626333697532,69.44683564453044 46.525860720083074,69.48856706877886 45.72968570141711,69.11684686453263 45.69123063297193,69.12124052111358 44.96506262586227,70.29446873848538 44.966781125417405,70.30396556710802 44.40192634141604,70.07484008647626 44.39865682319396,70.07489655032296 43.42093980274986,71.1995969552565 43.423073363640654,71.20467765215326 42.01366342941656,71.52924535152452 41.99656581519703,71.5364143451112 41.67699043385983,72.5030810273198 41.677172478307696,72.51469610725944 42.08010965163885,73.39953679103819 42.07102199297406,73.40391571641412 40.25735688363966,72.53958548107657 40.21611289430476,72.52040769241466 38.42220324808332,73.42965876083655 38.40878293164024,73.43204007095665 37.918107617860734,72.43217093637395 37.918952304083,72.38601454188938 38.80649907030639,70.65266050925311 38.81654064186041,70.63223401364267 39.08397849430512,68.78689460892966 39.085223678306285,68.78074988915651 37.81054119652727,69.49232796359902 37.79793643919584,69.50000786088822 37.887829985861394,70.03173541578909 37.87657235741681,70.05722333791091 36.91883653519508,69.7221216264199 36.909770721862515,69.72418833635929 36.19322922497413,70.46446060099734 36.18197887830502,70.47789802079824 35.13101445519606,68.24452867235705 35.111848816085335,68.20715953381914 34.40647756630678,68.32893589357737 34.39606462408447,68.32823551783113 34.05229189519487,66.84165487634782 34.053617178749484,66.83164354416259 33.48851481430648,66.76062583537023 33.41078183652899,66.69165246136436 33.527537861415844,65.62105220046543 33.532423934307374,65.61076737997246 34.735075070306266,64.609045972479 34.746114245416905,64.6035295753234 35.425933736972006,63.03671479239602 35.45298554141664,62.95864831627878 34.46780469874975,62.789451450134585 34.44363647830505,62.77421974308709 34.513403191195174,61.83107143792623 34.50682774586203,61.78040309092358 35.208514416082835,61.539235663187355 35.22999566052931,61.53468885971415 35.73913756275033,60.55794305748023 35.77505857252873,60.50849595009822 36.4893063094165,60.47188828540566 36.52259859741789,60.49196823080893 37.47914020808421,58.64073888090971 37.51517044452667,58.61044461462188 36.76214724097408,56.91274600647339 36.75718835030457,56.90693881480293 34.001166533418655,54.82317250264933 33.99900384541725,54.81227842091794 35.18371268097435,54.18218519309776 35.19744611386159,54.14436844755292 34.94535824897357,51.72836604237128 34.897640759197024,51.60941364393111 35.7979670454155,50.79209802774022 35.83072048186332,50.74863663224278 36.31144160541771,49.434522063892295 36.45791456541811,49.24903433369218 38.751062896084115,47.512354916557165 38.793814213415686,47.463855177212466 39.73733600541782,45.7338656683296 39.772521555638015,45.64094040440432 39.332250707639105,43.84386524867041 39.308046078305416,43.76308350270447 39.52949222230709,43.34124917606569 39.5728988996405,43.26964087621928 38.751871173417385,41.321124780287576 38.740249456085806,41.29003012666108 40.80718936008234,39.248417268770936 40.85302086941556,39.15805004007016 40.12672907208508,36.83722025642819 40.1308141494159,36.76798044915959 41.40579518408522,36.10290842028808 41.54241589875201,36.15028233943631 43.439734071195204,33.24966665766733 43.44643330674917,33.237603715922525 44.710928581418194,33.19851550765634 44.72889272719513,33.18489482683253 45.078731176972,31.9200692013128 45.18279506319559,31.696203256123773 47.68944511830523,31.633152934517785 48.07332587919555,31.327193812695988 50.14266876986258,27.57819895974426 50.144496496084685,27.56677214760748 51.61618019385969,29.09455345405477 51.684861921861376,29.137972097513924 53.379062184972646,29.033725808309466 53.38765468274833,29.027251594890913 53.769350910307914,26.874927186406058 53.77849682319393,26.81031831524051 53.57845182408528,25.65770159639251 53.576026992082554,25.586861781574044 53.97445674497176,24.9721150722693 53.98052974763741,24.95850789982542 54.07154468808331,23.051458288777578 54.096098842750145,22.999778109799447 53.35357596275171,21.396251932479572 53.330398064085244,21.362821105790864 52.404075831194135,21.73555063236454 52.32545447652993,21.7607530739846 51.08417350941636,20.779548779527616 51.02811110230578,20.75606251341269 49.396468592081874,20.829711730295458 49.358414021418504,20.83470292991733 49.11414678586189,22.81758930712131 49.09712198941743,22.854588003451138 48.04953631119461,22.77995244335798 48.04338320897259,22.770486229811286 47.294357701418996,20.683369539188064 47.29116100097199,20.6733754610661 48.01080453519717,20.257824308328054 48.05293690141589,20.221605666223695 47.90497117697269,19.105444622088182 47.89202417608358,19.037004223799524 48.44479849075033,17.897682135011202 48.45228415830825,17.87273537474139 47.31177571386107,17.306020780290783 47.274631365416646,17.300342160389484 47.490914728971624,16.2078839902013 47.49177397875064,16.203435977823755 48.12754599652726,15.692312239080275 48.08684814052722,15.556872852158632 43.9289748747502,16.787748095447387 43.80985955386023,16.794202719023815 40.84001561430523,15.208643268056404 40.748119578750995,15.159831391511034 37.459566789419114,11.58480620640221 37.34482053519641,11.487082460329475 37.50788138497337,8.943830218598668 37.49937626852661,8.936052882635341 36.1027604178631,8.526339366507091 36.099265164528695,8.525185811426855 34.21071425252776,9.61002437256866 34.14647440897425,9.654284433806971 33.151958327195096,9.616053628197188 33.135042757417615,9.614180905575996 31.71894086941793,8.082373830664801 31.693483774304696,8.054069365245596 30.94148001963804,8.077804919706614 30.788679194749058,8.098821878197851 30.77117380097225,6.868095807351711 30.762493921861825,6.811005609312634 28.702442579639683,7.113564233066064 28.693529683638555,7.149973406941354 26.576644065861547,6.584958160379393 26.523363297862307,6.582730200724109 22.628296673861406,4.242797912868627 22.573595959194428,4.206929273660717 20.805769640971633,5.349133824353704 20.805551187640596,5.349202392595544 16.049975038307092,1.7810723970720574 15.99140769963742,1.7261356071965566 14.07441416364054,2.499144666555003 14.045039472084682,2.5275353615539644 12.517329776085171,6.463104559219573 12.527021822306052,6.492628458909531 15.328467368970815,8.55407029978851 15.345149921860504,8.566279631900034 16.1805955680833,8.590401262326123 16.215052940529496,8.630295370794556 16.83547497074942,10.885610552171784 16.841256702306055,10.921868797649587 16.545601960971908,11.598949235408874 16.535451162750906,11.605318723096936 18.134274700527385,13.963911467318031 18.14567796452793,13.975389792553688 17.919018067639627,15.348870876031652 17.922731774307977,15.384563145206267 18.7717506543082,16.93427528082575 18.776025057862352,17.0351508280688 20.330517132529714,16.982193110333537 20.38706013697265,16.97377730135231 20.73796172630573,17.834197649261114 20.77035835563911,17.857149292128817 22.86120433608485,18.5154312891671 22.890127557416054,18.548355261520555 24.149161498750985,21.233437079161014 24.157695742305442,21.267221933366457 23.922676364529252,22.472092688359044 23.903328680973573,22.51147464977585 22.837574967196634,23.73072724005506 22.81101104186273,23.758186884038516 23.460705818749922,24.553932287157295 23.485245409862912,24.57460077519536 23.51312733697305,25.410475505904834 23.53703341341643,25.468975539932217 24.71904799119402,26.70734776021309 24.75997886408186,26.764695520142052 23.774018871195224,27.966491413962288 23.754707596528533,27.98664617298673 22.61769440541575,28.373156956753885 22.591844094307817,28.3705510257616 20.970286846305317,25.072385786375165 20.944596734304287,25.076826531462213 20.02040806230689,25.732935154239023 19.98653323208164,25.776915790157002 20.217292769860435,26.717490093734888 20.2108483965294,26.787791538938837 19.557956919195206,27.554184416354474 19.52275680541825,27.595953719730097 15.378442209861896,27.565577111085076 15.347385427639892,27.57750470192441 14.349337683637351,28.65099437078061 14.325977740528835,28.69176526880365 14.191403205418101,30.15409222159251 14.159276001861508,30.195625388957342 12.740479856085223,30.391308199368723 12.706736097862086,30.37741884275929 12.93557324630565,32.7694021741223 12.932813452526535,32.7958382907691 11.681192360974457,34.10353209196074 11.65415512008367,34.14454626866391 10.488713868528794,38.44833626130021 10.485509886306318,38.465976020890594 9.934796314749475,38.39480327278034 9.917349175193886,38.40934230759049 10.009281619640024,39.872701695068464 10.01097099208455,39.875847181193606 8.48666916808179,40.50565721329949 8.476853331640086,40.52273394401309 9.254015628526759,42.70861226274756 9.262695507640093,42.73980095312473 9.90218851386344,43.18416361754244 9.906441072085364,43.18759090469285 8.01615709697253,45.01870180234146 8.012144837416782,45.02647299176788 9.095877260527415,46.16216119999772 9.135490131639017,46.21499396549662 8.607947176973175,46.8945490954724 8.605471372527608,46.895320276615166 9.296679564529404,47.62273358669373 9.499025605417046,47.83657880335704 8.675798782306448,48.55203005332333 8.647232368083861,48.565771021535696 8.855258195639545,49.300386149976475 8.841604862305758,49.33842925824465 7.740854924529049,49.53130463330199 7.690319386749252,49.527495935051775 6.399667966306516,50.932033431566744 6.360171603640265,50.96422894487805 5.752390739640759,50.98570384703962 5.718821744084199,50.98680308777439 5.8458013849729475,52.00043524076646 5.825325025861457,52.07374158319472 4.444488787638329,53.458468239092696 4.39235125875166,53.48738659438132 4.018548478307276,52.740557382090266 4.012912382306604,52.738756113946515 1.7261356071965566,52.938024870226585" stroke="#009edd" fill="none" stroke-width="5px" vector-effect="non-scaling-stroke" stroke-linejoin="round"></polygon>
</svg>