<svg viewBox="0 0 200.40631301335748 182.55112588802808" width="1000" xmlns="http://www.w3.org/2000/svg"><polygon points="8.052550000000338,96.6134592505764 16.23056898671348,108.69401995061298 17.159141288932005,109.64370747298335 29.453112346680427,99.63834325972812 30.882670960018004,98.50802957933729 60.65203487114195,118.86170591242944 61.53167362660315,118.47114702748468 107.97397847995308,163.94476048774186 108.86410299558338,164.79614499511763 142.89825851561181,161.8448132305998 143.57808528896567,161.78909370388237 150.36528472006466,173.6503489741367 150.72267437328264,174.49857588802797 168.12874470229872,142.08712348101062 168.318362195605,141.46434543669557 164.8764114755686,118.69897312779312 163.69763728892576,117.49474678768411 172.8071412888603,81.4415950086327 172.71975995551475,81.20436609085982 186.4750381777776,84.17506017079677 187.63779245338083,84.39801668216342 192.2381283822251,74.32640012857837 192.35376301335782,74.06285346489267 177.7278754400104,72.71702142569802 175.48974822226592,73.1553765012427 176.71978612451494,57.98546503150237 176.729398071162,57.531470931869535 162.7495498222779,58.55630107902789 161.42717897785042,44.538726714009954 125.00838687105716,34.2998171845461 122.92696351113409,33.57593499092718 97.00529097775143,8.239898187609924 96.82586797336262,8.052549999999883 40.16897652447369,36.39473580281583 39.43526459552959,37.35989918673977 22.27327945779689,27.615301373799866 19.266487777793373,28.29638462482353 8.052550000000338,96.6134592505764" stroke="#009edd" stroke-width="5.710567158646677px" fill="none" stroke-linejoin="round" vector-effect="non-scaling-stroke"></polygon></svg>