<svg viewBox="0 0 23343.84644215119 49664.82329898277" width="1000" xmlns="http://www.w3.org/2000/svg"><polygon points="8.052550000022165,49596.73325663412 148.02433879999444,49656.77074898276 232.9785099644214,49655.94857087298 294.46904550213367,49647.72438127737 402.07740987546276,49590.1533141612 412.59550096897874,49442.92011308807 330.0687832443509,49320.34490095751 191.7150054667145,49321.990444893454 126.98815661331173,49331.86275826048 25.04326772445347,49394.38554672591 8.052550000022165,49596.73325663412" stroke="#009edd" stroke-width="6.231968127280608px" fill="none" stroke-linejoin="round" vector-effect="non-scaling-stroke"></polygon><polygon points="6683.012988613336,18260.42475406351 6710.928994444432,18460.165769714135 6805.476762195467,18638.313062011643 6955.2524453244405,18773.379614118283 7142.19140951999,18849.074222635798 7343.745484257815,18856.267116002477 7535.604308790993,18794.090557467047 7694.6272671555635,18670.044067575567 7801.633282871102,18499.089568994736 7843.716424275539,18301.84667392602 7815.80041844456,18102.105650495127 7721.252650693292,17923.958192831808 7571.4766762932995,17788.89191718088 7384.538003368885,17713.197099476733 7182.983928631176,17706.00454702662 6991.125104097766,17768.18079959319 6832.102145733312,17892.22719491736 6725.09613001789,18063.181829597714 6683.012988613336,18260.42475406351" stroke="#009edd" stroke-width="5.394639052895536px" fill="none" stroke-linejoin="round" vector-effect="non-scaling-stroke"></polygon><polygon points="11203.38072521775,6635.234607298888 11272.153038533288,6705.405143860233 11475.233665164327,6859.027711441711 11624.10553403548,6876.7835959553195 11751.132069573388,6916.731892922398 11946.12205855106,6765.795512337325 12172.666029537795,6827.064839435829 12303.738029537839,6694.747197292076 12410.537534035626,6492.190883937146 12361.992251759977,6353.540849235404 12342.574371866649,6273.528862890409 12163.76624073775,6199.726108905597 12128.975362871191,6166.8215711199155 12000.330816311063,6121.462243535294 11783.495494000032,6229.960130004649 11621.678371866583,6241.519615225116 11575.481608560076,6273.206862535415 11494.651836328907,6328.649863587314 11420.215756257763,6411.317544577381 11393.51580731559,6458.421458569443 11247.880251760012,6546.393420275563 11203.38072521775,6635.234607298888" stroke="#009edd" stroke-width="5.3198805676869405px" fill="none" stroke-linejoin="round" vector-effect="non-scaling-stroke"></polygon><polygon points="11221.799836471095,6659.637584064534 11221.799836471095,6659.637584064534" stroke="#009edd" stroke-width="5.681810654049356px" fill="none" stroke-linejoin="round" vector-effect="non-scaling-stroke"></polygon><polygon points="11222.120234693284,6659.356183231022 11222.120234693284,6659.356183231022" stroke="#009edd" stroke-width="4.8726992387839765px" fill="none" stroke-linejoin="round" vector-effect="non-scaling-stroke"></polygon><polygon points="11222.283929057769,6659.729678840289 11222.283929057769,6659.729678840289" stroke="#009edd" stroke-width="5.086582592819898px" fill="none" stroke-linejoin="round" vector-effect="non-scaling-stroke"></polygon><polygon points="11222.369854035554,6659.17487145387 11222.369854035554,6659.17487145387" stroke="#009edd" stroke-width="4.966514137824098px" fill="none" stroke-linejoin="round" vector-effect="non-scaling-stroke"></polygon><polygon points="11223.377652079915,6659.54996609877 11223.377652079915,6659.54996609877" stroke="#009edd" stroke-width="5.9136241536590335px" fill="none" stroke-linejoin="round" vector-effect="non-scaling-stroke"></polygon><polygon points="11370.05275423103,7402.015260674263 11441.252229715465,7471.166950205312 11497.8884409155,7488.009941454249 11555.333511991077,7488.009941454249 11676.696572044399,7438.365833453165 11669.414794266573,7284.962147633982 11589.315238711191,7196.263166389341 11517.306320808944,7192.7148435051495 11422.643209697912,7201.5857523882005 11370.05275423103,7303.586358700966 11370.05275423103,7402.015260674263" stroke="#009edd" stroke-width="5.154784490851239px" fill="none" stroke-linejoin="round" vector-effect="non-scaling-stroke"></polygon><polygon points="14032.59460326226,9764.32547522444 14038.42002548452,9848.103762745945 14067.54713659559,10086.01932929919 14105.412381039932,10244.872197684745 14178.230158817838,10383.066853588127 14452.025003262213,10779.017641296465 14519.017358817742,10860.37943979699 17233.664114373387,13616.012150979339 18608.463758817757,15388.738786102535 18797.789981040056,15524.692818525858 19019.156025484437,15572.298424585635 19153.140736595495,15555.07328813363 21532.82571437338,14940.490308360168 21579.429092151113,14921.3593101734 21768.75531437341,14785.223469534336 21896.91460326221,14581.883898033673 21940.605269928812,14341.71134961964 21934.779847706784,14255.97144707336 21646.42144770664,11986.45814886663 21623.119758817833,9592.591231493076 22715.386425484437,6150.210444555181 22729.949981039972,6103.141536642943 23035.784647706663,4768.177418089152 23041.610069928924,4752.433901064011 23324.14304770669,3239.4027833366126 23335.79389215121,3109.072501691495 23335.79389215121,3098.424777612934 23327.055758817703,2999.354662791331 23262.976114373305,2541.754122904531 23228.023581039975,2393.733248980221 23099.86429215118,2184.208998137183 22948.40331437334,2062.9042992503673 22881.41095881781,2027.6378685157688 22660.044914373313,1978.4535735266109 22438.67886992893,2027.6378685157688 22360.035669928882,2070.6689491163415 20746.39371437335,3145.530676803697 19543.444025484496,3863.6729297541606 19511.40420326218,3891.0444840924174 19464.800825484446,3920.024043720594 19234.696647706674,4115.740936055343 14915.146069928887,8044.747182023624 14874.368114373297,8085.21872476759 14784.074069928844,8211.069353298488 14149.103047706769,9382.351169745933 14131.626781039988,9408.716363500134 14076.285269928863,9521.464413807465 14032.59460326226,9764.32547522444" stroke="#009edd" stroke-width="5.247679446564438px" fill="none" stroke-linejoin="round" vector-effect="non-scaling-stroke"></polygon><polygon points="14856.4062987644,4688.668171855941 14871.779005466611,4746.68607594035 14903.333278746693,4793.98675489481 14947.833096559858,4835.035722781351 15048.15997442673,4891.24795554849 15117.741438888945,4899.277623021306 15166.286429893342,4891.24795554849 15217.258874337771,4869.834605769458 15272.276783244568,4802.910861770884 15298.97673218674,4730.620382729772 15281.985723191057,4641.354562933528 15222.113489946583,4525.278942228033 15146.868550000014,4523.493074692757 15077.287085537799,4477.052855947666 14987.478298764443,4493.128873650188 14856.4062987644,4552.961587283498 14856.4062987644,4688.668171855941" stroke="#009edd" stroke-width="5.755442164034876px" fill="none" stroke-linejoin="round" vector-effect="non-scaling-stroke"></polygon><polygon points="16205.153489946737,958.3219569491048 16256.935085537727,1078.17633416233 16434.124914373388,1156.557028829964 16627.49660105782,1069.165961393126 16709.21416763554,1013.2973892091832 16812.77735881775,867.2791270884045 16869.41327874665,739.2415957406338 16864.558954408858,680.6181805000815 16865.36810555565,599.432467597624 16733.48695440893,371.1166520639963 16595.133176631178,373.82498103301623 16561.15144991118,399.09982859381125 16492.379136595526,432.4957835462119 16430.888601057814,581.3890061522543 16282.016732186661,730.2231509990233 16226.18967213342,854.657584353321 16205.153489946737,958.3219569491048" stroke="#009edd" stroke-width="6.287098245619186px" fill="none" stroke-linejoin="round" vector-effect="non-scaling-stroke"></polygon><polygon points="16235.089752204483,1503.218879146123 16289.29850996437,1613.0046195693722 16416.32504550228,1749.742551322939 16535.26065211557,1795.6108915683872 16657.432863315567,1743.4466257577587 16741.577883333317,1648.9930179451185 16791.74117663107,1535.6179492333613 16752.904834302142,1410.5063520290132 16707.596156613436,1387.099683488399 16467.297489946708,1305.164676874847 16285.253045502235,1383.498554705322 16235.089752204483,1503.218879146123" stroke="#009edd" stroke-width="6.358027988569509px" fill="none" stroke-linejoin="round" vector-effect="non-scaling-stroke"></polygon><polygon points="16522.080343066715,1165.0347838718153 16522.080343066715,1165.0347838718153" stroke="#009edd" stroke-width="5.6296558071445775px" fill="none" stroke-linejoin="round" vector-effect="non-scaling-stroke"></polygon><polygon points="16529.121239635628,1145.2634387828584 16533.26398864889,1155.4034920971317 16533.920805004425,1155.78876143237 16544.382098231115,1151.1210738689115 16544.550452933297,1149.956169918616 16536.280101004522,1142.0453008154 16535.333469893318,1141.7063942411623 16529.121239635628,1145.2634387828584" stroke="#009edd" stroke-width="5.327653761764198px" fill="none" stroke-linejoin="round" vector-effect="non-scaling-stroke"></polygon><polygon points="16543.93179309345,1130.393875871814 16543.93179309345,1130.393875871814" stroke="#009edd" stroke-width="6.117785353860185px" fill="none" stroke-linejoin="round" vector-effect="non-scaling-stroke"></polygon><polygon points="16865.97336692456,182.77463592551067 16873.156112524448,199.53119860138395 16881.65744244447,205.41132705824566 16917.923899759888,188.0138650589215 16919.41404276446,179.10349046692136 16916.485311742174,172.12948329289793 16912.072554408922,164.35969695620588 16895.47272251558,162.65914058699855 16888.72688358219,163.0242893821851 16865.97336692456,182.77463592551067" stroke="#009edd" stroke-width="4.997553443795115px" fill="none" stroke-linejoin="round" vector-effect="non-scaling-stroke"></polygon><polygon points="17093.529796293238,389.1698606333521 17163.11126075557,505.5954146775475 17287.71063412435,519.1310558257101 17363.76472521783,502.88835805587587 17422.018947439967,452.3508981540508 17489.17295846215,372.0187806050235 17489.17295846215,254.64883291171282 17422.018947439967,138.14556136800093 17267.483311813325,115.5630242949992 17171.202189679956,186.9188156382006 17133.174998497707,225.7521032273362 17093.529796293238,286.25197557834326 17093.529796293238,389.1698606333521" stroke="#009edd" stroke-width="6.397128148064774px" fill="none" stroke-linejoin="round" vector-effect="non-scaling-stroke"></polygon><polygon points="17233.775671208976,619.0816615501244 17233.775671208976,619.0816615501244" stroke="#009edd" stroke-width="5.036344984298102px" fill="none" stroke-linejoin="round" vector-effect="non-scaling-stroke"></polygon><polygon points="17234.494237040053,610.7066352193069 17234.494237040053,610.7066352193069" stroke="#009edd" stroke-width="5.8977561492691475px" fill="none" stroke-linejoin="round" vector-effect="non-scaling-stroke"></polygon><polygon points="17816.924028613255,916.699308998097 17828.978866088786,922.0117469727702 17829.05692674662,921.6132599228586 17816.924028613255,916.699308998097" stroke="#009edd" stroke-width="5.051534078014391px" fill="none" stroke-linejoin="round" vector-effect="non-scaling-stroke"></polygon><polygon points="17848.408105555573,159.8231286831142 17857.3078943555,285.34931626557955 17989.998196649016,495.66922875031014 18160.715398853412,439.7157986492675 18300.687187653384,372.92155692956294 18327.387136595557,260.96986905208905 18322.532520986628,169.75850594675285 18207.64237883559,46.90434964562883 18074.952076542308,8.052549999993062 17946.30752998218,20.702498387283413 17848.408105555573,159.8231286831142" stroke="#009edd" stroke-width="4.975894732916505px" fill="none" stroke-linejoin="round" vector-effect="non-scaling-stroke"></polygon></svg>