<svg viewBox="0 0 1064.569251893335 1320.9652060695219" width="1064.569251893335" height="1320.9652060695219" xmlns="http://www.w3.org/2000/svg">
  <title>Plzeňský kraj, Jihozápad, Česko</title>
  <desc>Geojson of Plzeňský kraj, Jihozápad, Česko</desc>
  <metadata>
    <collboard>
      <support-module name="@collboard/map-svg-geojson-import" version="0.11.1"></support-module>
    </collboard>
  </metadata>
  <polygon points="8.05255000000011,402.58795967781737 11.753804826650367,410.70885669497477 11.842642515555553,410.9852987236733 11.838564719982742,419.60422445278493 11.909416417772945,419.8810722117556 16.805756613328185,424.8298415125679 16.82337851555326,424.85406484055386 17.281693608885462,428.94754046419223 17.30361176000565,428.9986872550577 26.369061004435707,430.8299136313068 26.398188115570292,430.84985343948176 29.00018576888374,442.2920762601349 29.077226977773307,442.5854784293548 38.59917087111512,460.95438830492606 38.597932968877785,460.9735289874003 48.83327263111255,463.19222647780373 49.4312522222242,462.99373406697816 68.42511419556809,471.799776843072 68.8874342666602,472.03819947805425 69.66083188445896,478.45281921655226 69.673793448899,478.92386514675275 73.29735170666368,480.5391223186376 74.22745318222564,481.015327633933 96.44350182222092,480.49466427215486 96.51377097776981,480.53473279158754 96.93618690665585,491.2886929308803 96.94507067555219,491.3364055716007 102.30744464888244,503.35461499139603 102.33016379556625,503.4434939128038 96.9084433333262,509.49907118941303 96.88623391112901,509.5225821014243 97.34848116443732,514.9681797148729 97.34848116443732,514.9763908409292 99.56206879110664,516.6446861365326 99.55587928000728,516.6742677747894 93.07793695110718,526.6659855983377 93.06257240000537,526.7053455883794 93.53049944001373,529.011004426247 93.81820248001145,529.3012431418389 101.29294736890711,532.7925335147953 101.30554484445724,532.8253673199139 96.91630765333662,542.1653356649109 96.7035341066728,542.2109803282725 97.8769925955637,546.590667387172 98.3647260711075,546.9992988996597 105.00053734222433,547.914689871344 105.46926537776721,548.4280800264456 100.53629783998599,552.6372031965217 100.10106598222751,552.73061069988 101.01398246220901,556.3417957468115 100.96803444444208,557.4006703710398 112.36911391112494,554.6232304651709 113.8429457333184,553.8502518995589 123.5730028355681,555.2941404898517 124.73481047998189,555.7070905721263 122.19186804444303,560.6377482736058 121.96758928889881,561.691932056208 125.81382431110956,567.5099198070162 125.8529274577811,567.6117299340764 127.12629193778389,581.164160143591 127.16532226667164,581.3789639524981 135.84279839113128,592.1660426713858 136.33992535999982,593.082700989347 132.06544898666448,611.9173593351076 132.0481183555455,612.1303584037447 134.54074370666763,621.964355040887 134.42540034667013,622.8624412848654 148.956260720013,642.7132382615742 149.6190481333249,643.1777116554364 144.9740020888928,646.7748625838209 144.9773517066858,646.8212056702683 163.65751469333895,657.5662460923846 163.90087170666789,658.0938676302391 167.0901447377762,657.0990898072702 167.13383540444897,657.1052602452324 168.38404383112334,659.8646105294389 168.44542921777588,660.1636926055868 173.8887037422171,659.5417436518252 174.14320187556564,659.6922954344551 175.18187465778442,656.2579965215624 175.60501876442117,655.1364065473678 179.16544400889666,654.043403632029 179.61487533333252,654.1082529039628 185.07992237332633,663.4291454383562 185.5038674755558,664.2235760637192 184.02406459555618,669.9131443919538 184.0056416977675,669.9421947514271 185.25286459556787,678.2765449446666 185.273107937777,678.2933669141563 182.04174623112317,689.1456022547133 182.03366345779045,689.2094009243807 185.24121375111986,696.2043797813454 185.25985510223086,696.2618920998572 185.51231433777843,706.8426845763094 185.51697467556346,706.8862868336943 181.43379060444545,708.8641564063361 181.35492895113543,708.8959882477862 177.82406772443915,716.6869486714637 177.82319391109172,716.7112674235465 180.31895042668452,716.9067135926085 180.33365961779032,716.9193772251816 183.65393183110405,723.6889593668235 183.68713673778234,723.7180933240958 188.62221599111922,725.4974764789437 188.67275152888737,725.5259371766075 191.42409844444023,733.193204687988 191.91350672889507,734.5111605260823 195.41436703110935,745.269959513265 195.5387397955708,745.6337657234322 193.75033517333918,747.4804259004374 193.7362813422294,747.5163795460172 195.6922396711086,756.7447114507592 195.72733783999115,756.8114552262047 193.80116198221344,763.0413383404735 193.77290868442628,763.0358516421471 210.75343191999832,772.5700104428612 211.1175936266734,772.7802596623293 231.70456294221344,774.2200757415482 232.4773052000162,774.276610786757 235.5436618222227,779.0302722658595 236.07151789332397,779.8491134021239 236.80814253332915,785.2983777667611 236.92610733333981,786.1728647978376 249.77145460443694,790.7748570686887 250.19896777778172,790.9373601827316 266.32679483557126,806.1055586934596 268.1315106400068,807.8038453268742 270.44340226666077,820.4594011245568 270.63221876443254,821.5309756681014 269.23892340443103,826.7265855783986 268.42715081779875,829.6857788444391 274.51792102220475,838.6063480733497 275.96670352889464,840.719026057304 284.4623536622164,845.113860735342 285.32968621335,846.2740626287338 283.4302344799869,857.4881974342203 283.4492399200169,859.9648767475079 288.0938490577753,862.4709520830726 288.6037919555454,862.9764901223458 300.5215135555552,867.0656671291287 301.20563657777507,867.2649378631392 325.00488934221335,868.1859549094439 326.0726892355667,868.2669804252433 329.1238997599937,866.549772743943 330.1887869421987,866.4637153673026 330.71897318220704,863.631570198129 330.6250382489013,863.3952907223935 333.63554363555863,864.1147440355195 333.6677290933219,864.1422388798889 337.0883442044503,870.3918179953977 337.83399824889034,871.1840430038498 341.6181925244525,870.2729106190305 342.1752485244431,870.4038875267503 354.48611330666586,877.0711164669407 354.96328820443136,877.4895862751215 362.16416543111677,877.6223338428459 362.19649652444764,877.6320552430476 363.6631193866558,876.5388897856388 363.6664690044488,876.4315051930531 358.0375091466774,865.3752455743594 357.93236027556827,865.1616620033961 357.2261734666606,857.4636055742518 357.2184547822178,857.4523156712454 372.59014203554375,858.2844088483322 372.78711412443204,858.319060494228 385.5656874933409,865.1242205279628 385.84428831109085,865.2322977921355 404.2966772888683,864.7413101247145 404.7506233155507,864.8411174423451 413.47819807110477,871.8445011740474 414.32652518223745,872.7226412266679 423.1266264444346,875.226459134508 424.6614067466651,875.9407292355969 447.58852098664624,900.2614995572582 447.6386924355536,900.2896465056325 450.2166602222203,906.8875864190555 449.98080344001187,907.1542795675265 465.3735350311106,908.8847382549062 465.7912178044278,908.9346577463654 466.7350818399934,927.2953701437433 466.7411257155543,927.6266032849304 463.63704948445206,936.1444266978575 463.1875453422033,937.4778405944741 468.6718162755494,952.2166878389322 469.3375164000097,954.0325438330107 484.62458939554176,953.9162719259253 484.8749369155628,954.0374535818333 488.5641768088751,969.3221691268624 488.5777937333403,969.3435875344654 493.77683743110515,969.8046390494779 493.822494177766,969.8135633088165 497.55003622221534,973.5882837874448 497.57996432888444,973.6347982776566 503.4007262133307,972.4402446384116 503.43939245332854,972.4643389822228 508.93422196445295,983.3667289006331 508.9486398844235,983.4069896946818 509.2109295199987,989.5513787401939 509.13519903110114,990.268738905717 507.22904806223937,992.5568022856384 507.36958637333714,992.8608815314288 527.4337240444509,1004.5838806267635 527.733587653325,1004.9727314100816 524.6182246666647,1021.7751974864728 524.6099234400097,1021.8351565148838 538.2374792800181,1028.608992267596 538.7817193511071,1028.789404024566 561.4234607199976,1052.359985488954 562.3752618933283,1053.4111275089158 568.4140402044357,1054.278803025612 569.0360496622231,1054.7092942185477 572.9261209866452,1063.5591810261171 573.4067183199875,1065.1701437468942 568.8928899111122,1086.5978415206405 568.5969584622142,1087.688738492077 593.9370354044438,1111.6928072393998 594.255904453348,1111.977759997731 616.4611760622136,1121.3832680448609 616.4856428355631,1121.3941702456427 644.8196955288947,1114.1481816243972 645.8628830133309,1113.8700270628829 653.2709996355477,1115.1487476199322 655.1687765599997,1115.9215508814882 695.2187727911003,1149.0037590366187 695.219209697774,1149.0040926105353 696.8365653599974,1156.5903763563178 696.8431189600158,1156.6038286537728 702.7369898933464,1160.368230806976 702.7474028355571,1160.3734557224157 709.303260186665,1170.148851392492 709.5004507288756,1171.0462589480953 713.934398035555,1172.4293539497226 714.376474764438,1172.8320277020025 718.002581644432,1182.3969723435507 718.2096025866701,1182.6925616130388 723.3310225333332,1183.8426777409545 723.9097782310926,1184.0582523983244 725.7380869955593,1188.6515705759298 725.9188207199984,1189.1003481022994 730.0485353511247,1187.4786651267273 730.1660632444325,1187.4058855007383 733.1612040800171,1190.51721226998 733.9493108888926,1191.497285016339 734.3092491644563,1196.9067603876242 733.6482093777811,1198.6583658552477 729.9077785866755,1200.6197603418473 729.8001539110917,1200.9551322759285 735.273720631121,1206.378565840328 735.6164739111043,1206.5976069855892 739.9529182133335,1220.9100414084892 740.1085298044561,1221.281824322497 736.0439142666653,1229.9894685697577 736.0724588355586,1230.357415468599 742.5814943555522,1243.1524276343039 742.7182461422124,1244.1812952657124 737.6937466577872,1253.6047164049446 737.5151246488747,1253.9265603067538 737.7944536444627,1260.9470633454835 737.8469552622189,1261.9349869679058 752.9417893244606,1272.3988141604273 753.6221258222138,1272.8255003032023 754.8126236710884,1277.9393759779555 754.9305884711282,1278.2788273101246 778.5573359199986,1288.9721416221505 779.0133936622076,1289.1733320364942 785.9510346222157,1298.1197983682719 786.2054599377805,1298.3101990593927 796.3282233155403,1301.7426218981486 796.6439612000029,1301.720888547417 799.3743365955668,1307.5697348565368 799.6186402399978,1307.9027955720007 806.3946985511063,1312.7101107585981 807.112536204462,1312.9126560695217 813.4602803466621,1312.1404965992474 814.7066294311151,1311.9409417893253 813.0803171822406,1293.6980375963826 812.9492451822223,1292.2319129386083 813.8871381600109,1282.6131936207162 813.8301946577919,1282.0270745768862 819.761493928883,1282.396782865129 820.2514119377663,1282.438379052524 832.1614148533333,1276.6131662431794 833.2471279200179,1276.6503293915807 839.3673165066646,1282.1021700397755 840.2584604710935,1283.2352450395915 844.6472607555695,1284.11218367621 845.7456441155589,1283.669944793793 844.5097079733166,1277.1692796425118 844.3043618399895,1276.18074066878 845.9349703377882,1272.0287061970953 845.7844559911243,1271.4120759773864 835.049295102224,1264.11206286669 834.871546906659,1263.6364867333245 837.3091220177955,1256.843157499919 837.4365531288856,1256.2047176399715 836.4162304266426,1250.8877243001402 836.2854496977595,1250.267084682207 842.194393911115,1242.5181587719048 842.6031929155649,1241.5361044027882 840.6030341955554,1236.6109168348698 840.429436613347,1235.9845660840724 842.3561221955531,1231.65786718166 842.5318314933463,1231.285265857026 841.1964262666659,1228.310471574186 840.1183590666694,1227.8295908651703 845.5526770044305,1219.7011744179395 846.9951971822081,1218.4816200365235 847.3116632444505,1214.3928848042192 847.514897662222,1213.766171128103 849.7976621777705,1213.0558203979376 850.290492897773,1212.4119877457483 849.9424239199795,1205.7867505330573 850.1664114044468,1205.3257788879632 860.3644683644595,1191.207520391988 860.3918478488702,1191.1348567853925 870.0450093777688,1199.0457401194212 870.4189286666585,1199.3274651509341 884.1897898933164,1186.2275088973906 884.5546069599875,1185.2180073916602 886.4930162044254,1176.2311306956904 886.64666171556,1176.1387761957808 885.7611975377729,1169.7538273926398 885.7057832088974,1169.1846277404325 877.2099146222242,1158.7427022583938 877.1153971466772,1158.044428447181 880.4581700533233,1152.8068153957934 880.589460506664,1152.4976128146295 880.3946729511151,1149.3925936562223 880.4484852888925,1149.142525609182 871.6971719377686,1143.0951817435193 871.6094993333461,1143.0211203592403 866.7159990311263,1132.2364552320137 866.504026479997,1131.922465928939 880.1133778755682,1126.9606861690913 880.145053608903,1126.9159693933248 874.3389280977788,1107.5165951068261 873.8534519733291,1107.4251270493473 881.8136001688906,1090.8763716604803 881.8221926666808,1090.418335345275 873.4964992266684,1085.0458364244764 873.3183869422135,1085.003089431782 886.0516676533223,1084.2060300627413 886.6089421066642,1084.2236189272876 887.3973401866749,1085.7854432093077 887.3401054133208,1086.0026256780761 884.9371915644222,1087.9578973041712 884.9741101777834,1088.2101350980734 900.4456306044374,1092.0735927277924 901.0630525422237,1092.119228197123 902.8977692711121,1096.2133553170493 903.1638454311249,1096.9031742510192 913.2951284888911,1087.9167109705663 913.5554520444491,1087.6530063922323 915.8068320977688,1082.661305120469 916.027834053333,1082.3918978102952 919.8364951022156,1082.0764001387065 920.3868518666493,1081.9654077623195 925.1080653066817,1076.4117186644212 925.3302323466703,1076.1801358084263 924.3507604177646,1069.7203636733389 924.539067191108,1069.3334169404911 931.2602208977694,1070.4313364203185 931.7864749777725,1070.4002698308682 940.4829565422331,1065.38562565219 941.0063707289007,1065.2029950478386 946.7706988355565,1069.9808134850678 946.7916703555745,1070.005087923891 949.9695838133409,1065.7048936765273 950.3909802933119,1064.1085350699354 943.287897342241,1064.0805830705135 943.0126461422258,1064.0645468572543 949.1929822133459,1059.7264685503974 949.9061595288874,1059.6574182581166 947.3618335555436,1044.4997886453416 947.2228244177602,1044.1057578983377 948.3611847377686,1039.9129492745337 948.2764248444362,1039.6162599153245 954.7833486488742,1033.5341661040507 954.9506110844447,1033.3385046963153 965.2422388888733,1033.9307237403332 965.5520785333426,1034.370064820359 968.1285899644497,1031.4067010002977 968.7842412355601,1031.0900200240353 964.1747302666552,1023.2323617222643 964.0272014488944,1022.9159681122325 965.2801041333366,1016.0631879562203 965.3761507822271,1015.807721913348 962.2677783022298,1015.1731756976584 961.907840026666,1015.0402020621183 962.6100218577847,1013.7439988267212 962.836557964423,1013.4341271691297 961.2738156355697,1012.2212638267007 961.2130856088841,1011.9907487783563 953.8467663911067,1011.1390162923122 953.5419511733414,1010.9339118815184 951.8045918133355,1002.6550822051864 951.9977045600024,1002.3168303813651 948.7014622133354,1002.9238760927034 948.3671557955456,1002.6721396745921 947.1170930044389,998.1275309410627 947.0285465866689,997.884023341459 949.2148275466823,997.7023954063694 949.3707304088819,997.4021337929368 947.1638420177694,997.1706647556053 946.3337193511031,997.2885178503853 946.1379851644231,994.4979966143361 946.1588838666573,993.8867323910305 950.0303138399975,992.5384035975509 950.2084261244524,992.5294830193085 950.5298437955569,989.6083619893394 950.193935386669,989.1216049389255 947.8815340355575,989.6206284344877 947.7258496266511,989.5611919066793 953.2740545688791,982.7546719863964 953.6912276177679,982.1112688199424 961.3650563111075,984.8624924346728 961.6518127200031,984.708813860219 960.0648948889063,980.395601831398 960.0507682399837,980.2436953077773 961.221095564433,978.7388835311355 961.0182980533352,978.2695415925333 957.1331055199914,976.8624956307682 956.8384847911145,976.4471229911356 958.8703920622136,977.1985614809306 958.8990822666744,977.2199768257193 958.228430533323,974.8063481307105 958.4762294311147,974.4128225962555 972.6310588000122,977.5838133380963 973.7573313688988,976.6766714160545 968.6536789599993,969.5650221456959 968.7564976622014,968.8984845392912 974.9340666577698,962.2537511989864 975.0245791555569,961.8976232449273 978.6886969155528,962.1612607957428 978.6743518133369,961.6469265275733 977.0473842044373,959.5618710685009 976.8821606666677,959.3747611506038 974.0114654133283,961.2622325941262 974.0821714755509,961.6608727478812 960.3809240444459,960.9162512130202 960.0589238311293,960.7976508390926 960.0768370044314,956.9180616433365 960.1002115111112,956.5780782890139 957.8445352088963,954.8368441211857 957.7402601511055,954.2955495346465 958.5368866400165,951.5962501387618 958.4437527022162,951.0873967347067 956.2645350666496,948.4662808403006 956.1313513511047,948.4174015573004 956.500464666671,939.9652085416525 956.5756126133563,939.8030335673608 953.144948648878,937.6243958357296 953.1399242222321,937.5819808022276 971.4662656266662,939.2627073045511 972.0225934488769,939.3757733298186 976.689630462213,936.0353724164521 976.7955803288858,935.911583825036 976.5806950666663,930.6552790017664 976.5849913155614,930.4736524645192 980.2228946755711,926.0724584304768 980.5387781955721,925.9027624911174 979.8316447555624,922.9026305217045 979.883054106678,922.6817896955978 972.5436774666666,921.7294174385821 972.4805444533192,921.7336601651256 973.4849928800029,918.8433943992055 973.3882908711164,918.352215008919 969.9156110488764,914.8609075135097 969.6140726310912,914.6742039218003 972.2891065155634,914.540764064695 972.6861818577815,914.5983833230199 974.0549376266497,911.145922941541 974.2232195111062,910.8159306704689 970.838503564453,906.1692507053591 970.4663319022291,905.9320370387646 970.4534431555437,902.0721455453673 970.4693902488868,902.0217730650544 978.7999624800066,904.905662920915 978.9327821066615,905.029744639534 980.4453529866657,896.2157844280224 980.5465696977697,895.8390106680669 988.7594683999848,893.4879422082955 989.0441859111086,893.5010120450676 990.7220531466662,888.5211794527783 990.6922706755647,888.3378497364098 994.4013170044416,885.9408775789558 994.7328563466506,885.7538523806066 1004.1398937866686,887.5103447486396 1005.3531836000109,887.637258701921 1006.19102495112,881.7415953618544 1006.2133800088848,881.5288574614311 1002.9941060533235,877.3337080404086 1002.4092336622195,877.179058516536 1006.6279316177604,874.4465844877046 1006.7027882933396,874.1985062681266 1004.2580770400016,872.6838638948899 1003.8678465688788,872.6558145686791 1004.6156123289036,867.3927926257526 1004.6096412711265,867.2187804326455 1009.1678157066706,857.815156345219 1009.2692508710968,857.6284826067782 1016.540761342221,855.9394477001985 1016.6365895377892,855.8679056985344 1014.9385517777771,854.2927284485701 1014.840393413331,854.1570180709747 1016.3985482222122,848.2491558418911 1016.4431855199871,848.1314303790783 1014.2403021066636,852.4490955771977 1014.1564888444625,852.9082209427066 1012.021180328891,851.6260811266471 1011.408637182212,851.5969031266501 1017.8081547644467,843.0049295684072 1017.9931119199971,842.2625021443743 1020.0392186577735,842.66211718745 1020.2802455022245,842.6571974899631 1019.2294121511293,838.9069182021409 1019.2364026577923,838.6705324575811 1020.8710889511055,837.6208735465403 1020.9622568088887,837.3842586281168 1015.9328057155433,830.3461764760792 1016.0815724355705,830.080564495896 1006.6668891288934,828.948763482818 1006.2894745866431,828.8720417407382 1005.8334168444342,826.3501183361728 1005.9012101955666,826.2550504429888 1009.3809533422243,825.5297329276724 1009.3811717955466,825.3021255355048 1006.1705631555594,823.9846684579312 1006.1918987644674,823.7940769258345 1008.7507154755656,822.894238847664 1009.3509524177714,822.785742770349 1000.9827333955689,815.5336925772932 1000.7877273866686,815.4965528880927 1000.6150036177785,804.9599491805926 1000.6470434400032,804.6407317274203 997.2113550488791,803.1923137835034 996.984382035567,802.9610333162924 999.7119175377663,799.801781176771 999.741335920007,799.6215123569197 997.5990368977725,799.7390060682588 997.3180330933317,799.7466151761397 997.4008997244598,797.0115206054394 997.4040308889014,796.9132686232548 1000.8142330577609,798.7221735993586 1000.9171973955597,798.0884761460981 999.0404648088804,796.4678872750297 998.9329857688933,796.106991449247 1002.0806798488845,789.9486802217649 1002.0593442400057,789.6965270515135 999.692402373337,789.3670362114132 999.3934125777812,789.3108524538326 1000.7627508888907,782.9014978429692 1000.7688675822062,782.7034880957432 999.359188222217,781.9834161072428 999.1864644533268,781.527951429765 1003.3392623199977,778.6149701822939 1003.4065459466726,778.5759025201475 1000.7111230844237,778.7267998123494 1000.4299008266605,777.0467567244701 1008.9114971289016,770.341184886776 1009.0390010577755,770.3072614361951 1010.8554405244429,764.6713113662914 1010.9934302133404,764.5216071300016 1020.1806307822187,762.8509831803891 1020.3048579111125,762.8086570610391 1011.6292022311025,760.7994725517852 1011.4601921688952,760.6461744552286 1010.321759031103,758.7510207870142 1010.1700795999857,757.169361738917 1011.7867070844584,757.8201050572894 1012.0483413600084,757.9142835840681 1011.7905664266798,755.5739945215679 1011.7068988000171,754.8336325270426 1010.8927232266649,755.9657294425193 1010.9073595999869,756.3782911579398 1006.9317273866689,752.3428027627448 1006.6020813066641,752.3205157043627 1006.3577048444492,747.6952513830835 1006.325155297767,747.6246883610362 1005.1045108888718,748.7188530234195 1005.0566696089006,748.7440536109713 1001.7863503911137,744.0033395303977 1000.9691892888875,743.1009613798157 1001.6010291466735,736.6357991529436 1001.6190879555431,736.5290370436775 1003.617134959997,736.5218672828556 1003.7302209689003,735.9694568004121 999.3190656266595,732.5627839890582 999.2830936444295,731.1777824368979 1002.444695919992,728.5068334225576 1002.8178870311019,728.3942292103089 1000.958703528893,723.1514350806461 1000.3524227111263,722.5856674350867 1002.813226693346,718.5041013192309 1004.4530830489018,718.5330139001231 999.4046265155555,717.52812468382 998.6005726133369,717.7996606308512 1002.3886262311205,715.4466780284926 1002.4303508177761,715.4118240797758 999.777307902237,711.6815391250781 999.5546311377618,711.638501068846 998.1374515466812,715.9202860834117 998.0446816977708,715.84542355821 998.9298546044517,711.8912370881513 998.9957546933217,711.5525369335879 997.4042493422237,711.2345693336898 997.2958236711345,711.1349308874848 1004.4321843466676,709.6312538127164 1004.5181093244535,709.3114817523234 997.4460467466631,707.7150594011688 997.180771582214,707.6853565161797 997.4140797422222,710.1341653027263 997.0337524888816,710.1724971238797 989.7931167555578,705.3483055505127 989.1299652533269,704.8472557688725 990.3428909777792,700.211039234178 991.3188676533243,699.3688130301376 989.1076101955621,698.5329638893232 989.0586038311083,698.4908123615238 988.9216335911258,695.5529056252777 988.8125525600115,695.0750857276358 991.6747281333444,696.0418202704383 992.0235252888885,696.1710831483284 992.0137677066739,692.7308827345765 991.9551493955439,692.5121421513537 996.0127016088879,693.3532403312198 996.7866089511151,693.2511028635996 996.7804922577704,688.30085153941 996.79527426666,687.5556571405829 991.0971375200095,682.7460729956871 991.126919991111,682.4351152590167 997.9808933244565,678.9706151216448 998.3479677422217,678.9576062929333 995.5192883466441,676.0221300720219 995.6491952622089,675.8998852485016 1001.1301893955749,674.1310058079176 1002.1694447200059,674.3423053373623 1003.2736535022048,670.295172214384 1003.38513752001,669.9766289413889 1001.1692197244627,669.569249778309 1001.3822117244488,668.4617284671327 1003.7269441688911,667.9082959286676 1004.1255486844527,667.668817410267 1006.9857581777685,650.0068904001597 1007.0140842933395,649.8270266169781 1000.1532660888695,647.6815192449354 999.8033766666847,647.7727451309253 1001.7774666222174,638.4704019756388 1001.5925822844508,638.0934271430812 989.700492542215,631.3310078359424 989.6376508000028,631.2028267272032 985.2862788533164,632.2976319048245 985.0985546222144,632.2741736265231 981.4556996533427,639.7408071551396 981.2309111733409,639.7488873765611 987.0365269600077,624.4430373397114 987.4263205244276,624.1335449531977 985.8917586755485,621.1924381562345 985.5050234577864,620.7137454363325 982.3738590133505,620.9391716094175 982.3169155111025,620.984862956822 985.8867342489027,605.0963478993432 986.04241865778,604.7298117029346 982.9220312444447,593.3692307892412 982.6223860888929,593.1015708928968 987.5225128088857,590.1922717125486 987.7180285422144,589.9851407041639 991.8523306933128,582.4580257845879 991.8950747288834,582.3398411835293 991.412511315553,572.5153603471041 991.3475578577561,572.0191628903482 988.742137768895,566.4668607844429 988.7598324888747,566.1571531608275 993.5414846844576,560.9876091706752 993.5550287911099,560.6937171763199 993.4223547999934,554.5083577957336 993.399198746665,554.3877524735213 990.9860175910942,551.8675687624997 990.9562351199927,551.7896717580221 984.0586439377873,553.0038632637221 984.0568234933378,552.832223494937 993.2778843288904,547.6328684429969 993.3128368622345,547.6261235964699 992.0546184800112,540.8099191591242 991.9951991733176,540.7686580276273 997.2970615733427,535.9128939117578 997.8675888622308,535.1414502346375 999.506644222223,537.9105463299708 999.8132798844379,538.3110349941486 1003.612474622212,538.3512860791449 1003.9314893066546,538.7123077561188 1007.4140723466478,535.234437827348 1007.7943267822045,535.125933547191 1003.1080658755452,529.1636020365037 1002.9338857511245,528.9752445710252 1002.809877075553,525.389806931889 1002.8216735555686,524.8988053472345 1000.3970600089012,523.9414183152181 1000.3140477422055,523.802976493134 1001.5417554755475,513.7235612298315 1001.5480178044306,513.576544778152 1004.3526673333324,508.91309500537284 1006.0194662666543,509.1714922644238 1009.5906685422303,498.0707850377581 1009.4429212710891,497.39579788746016 1015.3563073688781,499.27435457074137 1015.579712311104,499.2225983625027 1022.2162517600007,490.92409496312723 1017.8281796533336,486.08281389302977 1033.006681342238,472.64967336557277 1033.022264346662,472.63684058910405 1044.3589728977893,480.6920802328601 1044.4647771288944,480.68273844461476 1046.4884559910931,475.28640737826174 1046.8379085066624,474.87476375600784 1056.4500736266561,469.5540728160046 1056.516701893335,469.1494783112936 1047.7079353155348,436.81321962895856 1039.9174525422347,411.82137803124317 1041.3033933066542,407.3167214215715 1041.7923646844354,405.86790817742406 1037.2756963822246,398.23809791585484 1036.4770309955709,396.6254805512068 1026.6221642222151,391.68204855414626 1026.074938622223,391.4752921582764 1013.8563339644531,397.9505446492909 1013.7384419822263,397.8803187491063 1014.1125797244383,391.20664295742574 1014.5789047733194,390.5405946774041 1023.4483285599924,387.3044856081466 1023.6165376266651,387.0702029936434 1024.8879360266799,376.7413777210237 1024.9123299822165,376.5937670440395 1026.9401594577719,373.64304857118225 1027.0437063377537,373.493174073075 1025.0059736444452,366.51910075885064 1024.98907992,366.4789485954749 1022.3246046133352,365.6245802598638 1021.9387432088913,365.1914696240634 1019.7439425689006,351.8682565780688 1019.2177613066522,350.89384584560287 1028.5047950488877,348.1494498817698 1029.6958026222198,347.735606698821 1028.1683769155713,343.42109348778433 1027.7198922222085,343.0889073108043 1032.889153448901,339.0040030715387 1033.6685949422315,338.57147122127174 1031.9363328266552,338.50162033508934 1031.5817830666563,338.61909164496285 1032.298965360016,329.0221730456029 1032.1388390666468,328.27568287391443 1027.2250226044632,327.57241072309955 1026.8734583733383,327.1439644466078 1024.982089413337,319.0896549639507 1024.9515787644557,318.9549830868124 1030.9262774311135,311.95542627949146 1031.822227368895,311.21604131528113 1028.467439528911,303.84535331190966 1028.4257149422263,303.7380825826036 1025.4713520622242,302.6287779640621 1025.3164686488815,302.20544313132234 1030.490681484436,300.08183134314424 1030.6843039555604,300.3094861190108 1036.3379490400037,292.31333360561223 1036.6713088266622,292.0412597345345 1033.0786253066688,286.3334945674211 1032.8968721333438,285.6415420690388 1034.6282604355436,285.4596856471104 1035.5787508888823,285.330578515153 1033.1822450044344,275.8799654925748 1033.1799876533403,275.86719939322904 1039.4707882933214,277.2261508536536 1039.6424926133257,278.33879611390114 1042.051450337756,275.0903822760662 1042.4258065333195,275.0317477254499 1046.151600951103,274.93594393105707 1046.8579333955493,274.8751626629597 1048.200183493325,277.8792353631212 1048.5295383022237,278.47029213580356 1051.140274088895,276.7436473140475 1052.0979006844352,276.1752795591234 1046.8303354577872,259.6776079707994 1046.6790929333436,259.3535004383226 1047.5286579466554,250.80915967118165 1047.524143244438,250.5540588472428 1044.5006034755568,245.29625222458674 1044.3745559022134,244.99127575195564 1044.836366248877,239.71348841653491 1046.0720111200133,239.17672800755065 1040.454629288906,229.62630293268705 1040.4191670311045,229.60368889892527 1043.2007333244326,223.86100376264187 1043.2870952088922,223.51395369439672 1041.2956746222114,214.68520255959413 1041.8067826044642,213.54004159295403 1051.2679236533365,208.3558090701041 1051.2789919555432,208.22256030882238 1033.670779475571,208.8414064264431 1033.5499747822248,208.8343934043147 1015.1056685777801,193.05088517517254 1014.6268916888873,192.8318340392649 1010.3955962577672,195.10784101891443 1010.0867032444291,195.07932929018682 999.1859547288693,190.49123580197158 998.7931028177916,190.38985211264628 992.7851992444264,194.31403271332204 992.3999203822239,194.52436588575767 985.8311014666758,193.89302450091748 985.672285893357,193.81834922989185 987.2077943733382,192.19142122756568 987.3012195822155,192.10418420045573 985.2651616977889,191.32968073666382 985.139987937793,191.23191940038635 986.203200311116,189.92683402723162 986.3562632800092,189.76706245549542 989.6806861066796,192.22038705783018 990.2625729688805,192.23622773974023 991.1695912088978,189.22109728256294 991.2681136622339,188.8867262744094 989.885231244443,181.4434700162161 989.6638652000181,181.38824297059148 992.565653644451,174.43484665723338 992.6247088622256,173.91906166337833 990.2279117066716,171.53045056480153 989.9984628888849,171.09692844036147 989.543060506672,165.63346173353023 989.3013054844412,164.91507104835875 982.7869542666665,167.63372122789553 982.4734009155434,167.60361033898482 973.0940342311003,163.34286500710698 971.9000411288941,163.16116632424348 953.8296542133392,169.57640439175123 953.6762999733398,169.54652096592292 954.7268420533289,166.71125640496723 954.8847838133295,165.7353442973905 953.1497546222306,156.90130499593909 953.0215953333316,156.58711554391596 948.9736550666637,151.83159448541812 948.4290509066557,150.96094949859946 939.6999469777581,151.88662503151102 939.1246137155465,151.69503696425056 935.3294239555614,146.19327323525033 934.2348999377934,146.2886240550066 930.9576630311274,130.4528911122976 930.7462730222103,130.0561968324688 926.0675851644553,129.12595893735818 924.3504691466585,128.4929530976002 922.6787186044455,124.74721589840885 922.5909003644554,124.45912388399995 914.3751617688756,123.34333354944067 914.1228481688956,123.4160662385035 911.6000762577821,127.75017004210497 910.967653857784,127.9907798458513 904.2858217511164,126.051937570424 903.9314904444398,126.14664394401882 902.7905815022311,127.40964418113401 902.6239016088728,127.9192993607063 904.9756973777619,131.00567558182922 904.7377288799978,131.59526840778528 894.3194709599845,134.80716288633232 894.0876191555651,134.86028509548453 859.2167873688811,132.84534267163656 858.6970140711126,132.75155411560957 857.095678319987,130.75159931847122 856.947202871095,130.5682060405594 858.184231280007,129.23923766017072 858.0353189244413,129.0160783511452 853.7959407199885,126.9823412530892 853.6701115999965,126.87880021926651 854.5088267644239,125.27445545762714 854.1145184977574,124.69770904251311 848.2560370044446,121.32717193321844 848.1393101066712,121.26519949864417 850.3547909955448,119.44916059246282 850.3172170222167,118.73888471919747 847.8079892177846,116.48143981527357 847.5390003466816,116.2551689721073 834.2584940355516,109.55386257726752 834.2218666933256,109.53618472310302 825.8018014133338,111.08444835850207 824.2290830488853,111.458504425878 820.2072115466651,102.95021808871354 820.1633752444538,102.86329137514224 809.9076466044423,101.61898882572825 809.5587038133306,101.48615878372914 810.042942035572,96.03656093720167 810.3795786222106,95.36021103057249 814.5960920444411,91.78630980144192 814.768233271119,91.10775328752754 835.8320862133476,93.9306333522178 835.9027194577573,94.01791438479961 835.94313332445,90.29837144303713 835.9751003288909,90.2158455593086 825.2577069777833,89.0290687062876 825.1667575733516,88.95753705579375 823.5298139288859,80.92385528765556 823.6364919733385,80.50990636974859 807.5211895733444,81.83337537786394 807.4656296088722,81.68961280467158 803.7155868711195,88.21058683640842 803.6198314933351,88.33120599037613 799.8917797244283,89.88710109942588 799.4110367555475,90.05974886846491 793.3568938933092,86.31102664226603 792.5770154933341,86.42019986674825 794.1381558311184,82.55479019128654 794.2619460533385,82.31840119482479 788.3832940355421,82.21046688479657 788.1944775377704,82.2450467028026 787.5964251288749,78.32094748339262 787.5517878311,78.0383923507103 785.1549178577914,80.699704210179 784.7183752799826,81.1573024947935 768.8325945155591,79.36362218984107 768.7859183200123,79.36418910192845 768.7042895911216,82.50150355269545 768.6805509955518,82.75421780770523 766.1195497511142,87.30876880924154 765.8449539111241,87.66076869804931 763.4548559910979,87.71246317601583 763.0128520799988,88.2546854114695 761.1037155822339,94.47891460815265 761.0756079199853,95.08556545705471 753.6371262844257,94.65324807419495 753.4566838311218,94.58625784217259 752.9442651288771,87.57087007007033 752.8794573066768,87.41034453415307 736.7672132533405,90.29202330257215 735.6887819644251,90.3263712680124 733.4351445600112,84.42432455482015 733.4959474044515,83.46587026485179 735.7238801333367,85.2231369420548 736.1594760799851,85.57186260251149 736.1701074755472,80.44822759813508 736.2199876533193,80.2076343687146 738.2894688977756,80.07565912014218 738.9961654311116,80.12010442860594 736.5593184977549,78.317432560994 736.391546337785,77.91843069910067 737.2529806488963,74.96023785709224 737.257713804436,74.75216388879164 744.4251676710917,70.70221703487152 744.5703663200036,70.43765311125719 742.7923746399827,66.2735219599341 742.6905753866665,66.20808452855965 745.8465706933418,61.80658452404134 746.0507517422154,61.38500446438377 745.9660646666669,57.04096310793068 745.9075191733207,55.78234109695006 757.3689645777993,57.38873510914675 757.6667164711178,57.4928621057112 754.8355612710945,51.168089972612165 754.7783264977695,51.02991844290921 757.4594042577735,47.180146113699834 757.6435604177602,46.81597202375235 754.5104298933363,44.217899222937945 754.3321719733137,44.01277098550747 755.9273910310947,42.73399228313758 756.1513785155619,42.447281230553585 749.8205280977779,39.891435604825915 749.7618369688932,39.91367468001374 747.3329271733307,32.12671952009953 747.2987756355503,31.985435630012603 743.7738126489055,36.20915478659265 742.9655353155465,36.6841480656218 741.0668845777761,33.8712332514184 741.0205724711193,33.727570863665846 742.3650799200184,26.065367549271855 742.448747546681,25.98569502939756 739.5559156888701,24.157507767573065 739.4517134488631,24.146612004936856 739.6737348533131,29.488451838136484 739.6122038311221,29.625543228037373 732.2830216799991,34.39470128544019 732.4280018755305,35.29104207042076 726.2909195644386,33.447167116558944 726.2323012533377,33.44160668769439 715.5757107466704,39.234130670425316 715.1415711555526,39.00549607224059 713.0742744444358,34.84780969603855 712.9634457866557,33.8598855252709 714.6873338577641,23.743013260179964 714.6144432622311,23.433388796074382 710.6133976444614,23.918708469914804 710.5140741955618,23.9708040334732 707.348903848884,19.348518927835926 707.2890476355458,19.264409767223356 703.4304335911072,19.653399356400428 703.3107211644308,19.52627146286943 705.7589276711003,17.34450618764788 705.815288631107,17.22214040086658 705.3204918311164,14.633664912332847 705.3483082222008,14.414235351032062 700.8592378577812,12.92928808301042 700.7013689155353,12.608476933287989 704.8987312622264,10.410540448377674 705.5268574133295,10.305869184426797 703.7514871733508,8.116354457648072 703.6990583733202,8.052549999999997 693.9148976622162,14.259623819619833 693.516511600006,14.36860115618731 692.9731453422062,21.85845349716658 692.8707635466778,22.11757866145456 689.9906019822299,22.607904109310425 689.8798461422336,22.65557440320083 688.0278715999809,27.755600503609116 687.5630757244433,28.27526876914601 681.1508150311199,27.421257911620728 680.5188295377664,27.340225487255907 681.8286029066728,19.857257393937857 682.0613285244397,19.181095031839163 680.4852605422273,9.871174762279793 681.0013929510967,9.247679073152199 679.9113108177623,9.119164506475158 678.7615909244412,9.205219347080515 679.0444879911154,11.316017940400002 679.0165987822181,11.885225887926595 665.5772768977693,12.389947377224985 665.1568270488713,12.478267480175077 661.9725784444379,17.142227901720275 661.6391458399955,17.407505163449628 656.7102560977871,14.300490346423999 656.6329964355461,13.878769016729734 650.7011146222137,14.035311447798108 649.9586645599991,13.938139404395429 649.6961564711016,15.368117478901354 649.6804278311099,16.51881556772389 653.5056913333317,17.15948174668995 653.6366176977824,17.203297407387822 656.3529392622365,21.498195961255647 656.5996458933294,21.674125427809145 651.2597726133315,26.624887798759687 650.8361915999919,27.337728687961885 652.4051962577867,28.88209066121601 652.4392749777833,29.18487488998619 646.2873378400179,39.57237195394521 646.1926019111195,39.67630612252799 650.3837019288692,41.84809903967073 650.6285881155707,42.16238402631245 656.4601270311175,39.62547371553194 656.4275774844643,39.28326145369613 660.8143388711103,41.94544815741358 661.1185715466634,41.97086328302214 661.9618742311211,46.1437751285481 662.3655031733285,46.73701059108828 658.9342566666671,51.02889746969561 658.7225025688892,51.36320844815748 657.8419171822386,58.20110188062938 656.9044611111237,59.01572502095189 649.0887105689105,62.23485298651906 649.2541525600025,62.80749800279557 645.8452611111059,56.255121776680994 645.6169045599888,56.273724387392235 648.7090386755369,67.1435941585147 648.3260171644577,67.36632677597629 631.747156791105,67.08802426969453 631.722180293327,67.08859130963504 629.9554753688933,68.57444255099801 629.605367493328,68.69306394378475 630.7478784266639,72.98321955114773 630.8468377866445,73.34268276657497 628.0335229422269,74.76667806605803 627.794170906687,74.84219708223065 625.7718027644512,74.9318899518181 625.4094615022257,74.91658207680268 625.802459048871,70.21584027504252 625.7456611822197,69.9850677809078 624.4923215911037,73.36422780500254 624.2456877777947,73.61324247249979 612.7551880799945,70.71321687866987 612.6230966311193,70.76163884513483 615.5439633333369,73.34188900182892 615.7052547111305,73.47784939296946 610.4229074755638,78.46766694563087 610.4447528089001,78.63728957133537 618.2589741777699,81.95400866364764 619.183031777771,82.99684052869964 616.7748750489043,84.15653952162359 616.4132619644586,84.4271588516782 621.0316567022307,96.7966652841784 621.1215138400219,97.4037436863797 616.4333596711001,101.59224150544435 615.4742039022165,102.75199777918863 611.7452055022366,110.83639824981913 611.5629426044541,111.35096781903815 613.0383764177748,120.81915450245253 613.1500060711185,121.74364299141564 616.0740039377777,126.5847154217114 616.2117751733529,126.89239423930815 614.5295388711163,130.29113262861904 614.3163284177788,130.49548290206405 609.0786912977708,131.4908299515879 608.956794337784,131.47225302515255 595.8354676888919,127.01757234770741 594.5183397244325,126.4743765710515 581.3484436177894,115.3259416950383 580.5644146044576,114.53504926323478 579.4035535911169,112.53476532120078 578.8719838133327,111.7413394191459 579.61887576001,107.98674383531727 579.8190518310946,106.82029954368011 577.8817348533264,107.27835827253114 577.6284018044314,107.32448124123732 577.998753022235,114.75894777059841 578.0435359555484,115.49692251727504 576.2951811111195,115.00301422431187 576.1392782488908,115.08618239459577 573.3732221422322,107.06202176277986 573.3291673866695,106.73439893733996 563.468256737782,103.2600704601715 562.8996227111272,103.0185580281319 563.1469118844323,100.32886899849802 563.0355735022238,100.18708202431264 560.2124282577786,101.84430047673925 559.9305506399903,101.76745888162225 561.4460342311138,97.3928625796758 561.4177809333266,97.13307551135188 559.7771235822363,100.35391685883917 559.749234373339,101.181396481457 551.503349217797,98.13231950825832 551.1536782489054,98.06692036562129 553.3250315644325,97.48535191734084 553.5093333599868,97.60617721243 553.0631060177764,95.08205161696935 553.0197066222097,94.74676221961965 547.124524968887,98.97434062055947 546.8412638133229,99.0325981617276 539.2939196000004,99.26086738194101 538.9786186222407,99.48380864090689 536.8225570400025,95.92763369183342 536.7663417155343,95.75069729598874 532.0444729155349,100.45716832439177 531.6238046133437,101.00051035137551 526.1948751910893,95.89260917226022 526.1408443999896,95.74525657769811 523.474985555549,98.93535110292544 523.4307851644478,99.05299962055108 519.5554958488863,96.32809043222335 519.2305101066665,96.26019548321312 518.5342265155411,92.09429866600078 519.366169626657,91.66422466439656 517.2304242044409,91.08134087664769 517.1069980711106,91.20864177759324 515.972424275569,86.70577240609384 515.1269370577718,86.6914881463523 503.81178256890394,96.986859731354 503.3295832444635,97.55324533848727 506.5068413422339,102.05759766950325 506.5664791022207,102.1232186887861 505.862331191114,105.3800299084611 505.7840520799871,105.60815919067647 495.466938053323,105.25831523571799 495.3316426222225,105.28721399549215 493.6475858755655,110.61792284630758 493.7422489866801,110.82449997498009 497.5868820177636,109.66695538041643 498.2181393333374,109.70038457084559 494.55511383998214,115.69079077894969 494.48855839108705,116.10594527262549 483.95714164444485,115.08754209115398 483.396517573339,115.44604756397132 480.3457439555566,123.2320818028744 479.8419177511312,123.70167138786167 473.50465936889645,123.20070015911881 472.7351210933191,123.47089891804319 472.6424240622216,128.0497993199166 472.67417261331116,128.14201004007884 469.98435671997845,130.62371117440455 469.94700120000175,130.8419930602464 465.41533243555,129.89885498291517 464.94012361777254,129.97123908678589 466.8207883644279,131.20900370387938 467.09713183111285,131.39522667729 459.51891287999,134.3144490959745 458.4270831199899,134.89064062030923 460.36585645331775,136.07426636493585 460.4019740711153,136.1978376752155 458.1594777866628,141.4924520831188 457.2652026577923,141.931872437293 454.75277087113477,136.6443230612855 454.7474551733246,136.61147672177287 445.66627728887374,138.5789375193632 444.66758146664483,138.66512768937503 444.97013933331596,151.2133462584967 444.8636797422148,151.5246226621308 438.75652553776285,146.92765142942483 438.02186697777483,146.57603442365473 435.5726410222194,151.33699646515709 435.05388717333676,151.39440539426107 435.688639742242,153.48894069663186 435.70203821332666,153.51679482401926 425.8837259644422,151.46053315875872 425.6073096800026,151.46200518000808 415.51818811556564,153.8585162522428 415.41442278220325,153.9383415255503 413.3937294488785,156.86314947266476 413.2665167911107,156.9319879047904 412.89951519110014,162.74501179312176 412.946846746672,162.96180651155703 422.2742943555711,173.21402310439555 422.3497335733334,173.51238376835647 421.2504035822128,174.00327179172712 420.61150040000916,174.13875474934287 421.6959755644564,179.0198780512652 421.7537928799936,179.51863865827147 418.31337133332977,178.77485329916055 417.8941593866691,178.41348222022464 414.6445204177651,179.75551156623226 414.6274082399975,179.80270494663966 418.77532731553197,181.12783764284507 418.9334875288839,181.15103764647904 414.3966487022187,182.55071520466993 414.46786448886974,183.09425752923528 419.3092272622232,185.93172526588717 420.1547144799913,186.2220951032574 420.29772859556374,189.91563192805154 420.3294771466824,190.28382901261614 417.8233805066627,191.3175737288326 416.928158746661,191.38931053972158 414.3217192088848,196.95066271197686 413.79342623110983,197.66829185543577 411.0646528266732,196.433733075413 410.14358075557516,196.13810006877577 400.6753035644431,207.31220691810415 400.7866419466807,207.75290673004167 396.5219959733147,207.8325399916281 396.18142722667085,207.71275070885133 398.10439910222317,211.24206924933935 397.89162555555936,211.60729463755672 390.38928272890166,209.5758458295528 390.3717336444604,209.5739229301322 392.57243252444437,215.78973700783501 392.32900269333163,216.07350125637424 389.68870288888115,216.0871861429547 387.49790722667944,215.6575243048352 377.0142589422246,207.5839118946966 376.8836966666638,207.6362845134787 375.87873851555173,204.44451700237516 375.61513815998455,203.35140453109454 368.1293249688822,200.93885500358704 367.49464521778987,200.74970190109855 362.80030153776875,201.24170223471413 362.5646632088826,201.42960921522865 354.9488702844608,211.39012777683786 354.84379423110636,211.49758023791185 345.7303580711084,208.77749740122056 344.90555110222317,208.53351128321776 337.8660380711151,212.39858906849224 337.53945033776813,212.54019743788342 334.9978914400051,211.97297000639776 334.9832550666831,211.9756845684675 335.5074702488853,207.12499891280424 335.548175386655,206.74549068186718 327.71261840887723,200.9665717607346 327.68654964445864,200.892584957233 322.4147609866702,203.22447853336746 321.9672229244386,203.38262692375395 315.86290861335124,201.5928535858326 315.6686307822017,201.60360077258485 314.4121600266733,204.40119111542992 313.99651615112793,204.42777488825197 308.4228249866644,201.42666787072778 308.20422601776204,201.14803132463533 310.4933984977904,196.6195069955935 310.35708361777483,196.23596574601072 307.0883663911152,194.60628132880777 306.83452361776267,194.6024344737449 298.27355593778316,197.18293437999785 297.99815910222947,197.13530349512405 293.92546079110593,193.26733308273072 293.6480250577804,193.27027486752888 290.92005264887825,195.71812420826575 289.9345368444408,195.66370360805706 293.2766543910909,196.8992980692052 292.9749703377672,197.21348148138316 281.09278381334275,203.54643106763945 280.99251373334096,203.6569533369253 279.49086552000495,205.6107962171733 279.49508895111626,205.82063333063672 281.14863504889195,208.75679764776544 281.1254061777797,208.76935323684995 273.4319166844432,200.10021845969425 273.3808714222175,200.10010532828858 263.26815689777845,205.857397162246 263.22271860443993,205.89529216274207 257.92551654222893,201.43447374615755 257.8451257155464,201.2621785837324 253.48268546665327,209.76055697016238 253.47052489777684,209.78295301202854 247.89071703999775,213.21351079508133 247.94598573333474,213.60304020906153 240.98657225777401,214.793666435398 240.4939599910938,214.82601328464045 234.1466527555383,210.47699952737423 233.77528208887793,210.22860971010925 228.6556097688806,210.14174087305548 228.25110701332574,210.30020853035205 233.54554199998506,216.0125412653357 233.69452717333456,216.3069355454569 235.54446281778633,225.21785899624922 235.4468141777686,225.78822793240363 222.19761951111263,225.350613916518 221.86258491557214,225.39720244905732 206.97710196444655,230.39992338064587 206.85768080887624,230.48404631065898 211.64574096888077,234.4911550967878 211.8031001866691,234.64322066539137 213.97044852446538,246.540104508014 214.03518352888182,246.9102931631129 213.71522221333703,249.10492337834842 213.7699811822165,249.26090424181132 208.8678155644518,250.21452537283005 208.50044987555134,250.48692090441875 205.25365080001188,249.20665007901664 204.48054445331923,248.96747900144658 206.48463533333393,246.575597513896 206.75457083553897,245.59320136217104 204.9306311377802,244.18089818135888 204.61649524444488,244.10018757855107 200.98070359999087,227.9269452410732 200.82778626666527,227.57098817000917 191.12052112888318,222.08513355335856 189.23184642667889,221.49606653142075 171.29282278221922,223.78467329192029 170.35594925331657,223.8885957879753 168.80922683556105,226.64116939587223 169.1205228355609,228.25406638377865 163.97004859557615,228.18350879205502 163.54479277332553,228.18622254726472 160.40539991998935,232.70285481094436 160.14740653333843,232.87448533939425 161.87777538668138,241.1211593261902 161.7330136444432,241.33877305324825 153.76776820445207,239.92477702753206 153.66713403556037,239.90589787514875 149.56203181332216,247.64308973956906 149.51178754666012,247.7796331932983 140.2881780888781,236.0429954017087 140.12979942223296,235.81620290301328 127.42724781332777,237.86295409651177 127.29508354666882,237.89257399297605 117.50757321777178,233.72030616079394 117.42310459554551,233.66524510559213 115.68072080889374,240.55162900531252 115.51688080887084,240.94130233853468 109.91573734221288,248.96838324190287 109.54123551111093,249.5515021827374 107.87967945775722,249.6224842527805 106.32764134222066,250.03266386448342 97.27959554666427,259.28761641921994 96.2380100533262,260.33553582002753 94.0549330755673,272.98187134687726 94.02922839998041,274.59656215519465 90.0167503911141,283.90507089345886 89.29913119110984,285.5181960402766 79.90490968002246,288.1927769468963 78.94837535112288,288.3038055350113 79.05774765331421,310.1368080593162 79.03211579556933,310.22193718200253 69.09911554665428,305.4322579813521 68.29775590223267,305.24504763473635 61.918117573317204,313.4217475389811 60.88417794666725,314.5758776972867 63.22730840001145,324.50289590092837 63.24165350222734,324.5129416620108 62.188854071114974,330.81996030554694 62.19548048888805,330.94839560088406 60.92481026668224,333.76441589328863 61.10794697778306,335.5373326971236 55.226964791108685,339.5182296713971 54.29409623999504,341.23454015372374 59.153954728891904,352.34851723050053 59.16953773334512,352.4027817932289 55.243421608880226,357.5256327011954 55.32890967999242,358.08412989245664 60.78507295111899,361.63588499396394 61.705780933327105,361.6018202844931 60.58256671109825,368.188885804229 60.58846495112061,368.2431346346781 57.069764293329854,367.6822600304655 57.029496062233875,367.68259838407505 11.946116577782732,394.4045311882288 11.152912524448539,394.5437518105242 8.05255000000011,402.58795967781737" stroke="#009edd" stroke-width="5.911422420930742px" fill="none" stroke-linejoin="round" vector-effect="non-scaling-stroke"></polygon>
</svg>