<svg width="15794.25064561778" height="13110.084520343284" xmlns="http://www.w3.org/2000/svg"><polygon points="5,6545.938063976704 10.168314595532138,6624.338558729563 12.018759964441415,6637.309443914099 35.342876728915144,6734.6850523291505 41.51462030224502,6752.581827681803 76.17559125332627,6830.541619333322 87.78915299556684,6851.727247558243 147.494487893302,6937.423431182164 162.0338679466513,6954.198980773974 225.23707761778496,7018.933433839586 236.34237127110828,7029.041681174946 352.2895362844574,7123.126597255818 368.34964280889835,7135.177891248546 519.8493596444605,7239.124898054462 530.6141573688947,7246.176657624659 585.3859421866364,7277.266912866966 607.6617742222152,7288.398670839728 706.408797582204,7350.927300356736 734.7992840533261,7366.486568094173 791.4783121066866,7423.051164471137 803.1335256177699,7433.143592133012 877.0916297955555,7486.430404078448 886.0683141688933,7491.773624682566 964.5877239466645,7575.81782178767 972.107761493302,7582.3036578263855 999.458701368887,7621.299583605316 1002.0807239111164,7624.092028769897 1031.765910471091,7682.1882821987965 1038.396988586639,7693.44454091962 1102.3886691555963,7791.907783922157 1109.7359829333727,7802.702113300562 1141.407638471108,7844.1900505190715 1156.880833706644,7862.001107431832 1200.6157735821907,7906.398688766989 1211.1979443199816,7915.996178081376 1252.6868926577736,7949.547230428841 1263.2556649244507,7957.162166298891 1318.4311515022418,7991.661690576351 1329.8958737066714,7997.8237029144075 1389.068765013304,8024.784168262617 1401.2337029688642,8029.388186621247 1471.3901366044884,8050.225076979492 1493.044396088866,8064.9157835677615 1522.8227894044248,8132.2603173778625 1528.9560851911083,8143.790340513631 1570.8603861333686,8209.89539508993 1578.6638304711087,8220.351448981673 1654.581024142215,8307.882571137743 1663.6718867911259,8317.223483295355 1732.6579931022134,8376.724721632549 1743.220939946652,8384.335483550094 1787.0438436978147,8412.407913472038 1798.366425599961,8418.817003125558 1879.4248456533533,8459.131063402863 1891.87581184,8464.46519875736 2052.16579953779,8562.400882373564 2065.1259076266433,8569.66441873915 2171.6746276977938,8660.802088076132 2181.859795911121,8668.500992320012 2411.1868623644696,8824.823344543867 2430.9828121599858,8837.322234479478 2663.725032391085,8973.646307622199 2675.039458702202,8980.05084741331 2745.5885257955524,9013.132901204634 2753.4901284977677,9016.123530536599 2846.478430719988,9235.351440183294 2852.0985068089212,9247.123557760264 2970.5261366044288,9450.482509665948 2975.80600803555,9459.36939008697 3018.6155795911327,9544.437766759947 3027.3528391111176,9558.817126606707 3050.4346183111193,9593.079671246582 3062.6860637866776,9609.38516275672 3114.9418487466755,9668.102753352025 3151.5488019911572,9704.152630555851 3182.003235555545,9784.427402829519 3187.6195251200115,9796.191526139388 3233.865221973334,9874.702851463808 3241.4242898488883,9885.306417981628 3288.7666224355344,9944.823209860944 3300.235422435566,9957.425824944337 3366.0857039644616,10020.350012780109 3441.977848319977,10085.442446752102 3479.641241884441,10184.084813249123 3490.366426737746,10205.670772841899 3522.4974168177578,10260.017904590815 3529.821428906638,10270.77977408591 3573.008779093332,10326.21017755696 3581.6647739733453,10335.91784062126 3651.63712426665,10401.279153136828 3669.0443596800324,10414.659514674102 3864.98243612441,10561.199563260074 3908.803592248878,10593.214975953219 3948.4840382577386,10617.493211529043 3966.8824692622293,10629.554622258584 4052.448601031152,10744.338889951585 4060.887890204438,10754.22923243657 4135.680777386646,10826.220653573575 4145.873227377771,10834.264065267402 4209.251490986673,10882.187089715037 4256.351777279982,10914.253522609593 4312.278452053317,10945.910421775654 4323.831720675575,10951.798819580465 4395.574416782183,10981.685035332572 4408.033829831111,10985.553714964888 4500.041713493352,11052.543035810697 4505.269156124443,11055.658163594548 4580.3716644977685,11165.910367760109 4588.146272995567,11176.329628888168 4648.6153207466705,11244.1484002691 4658.067942115595,11253.050795389572 4740.15192775114,11316.387955364771 4751.1468296532985,11323.263802190428 4793.381140764395,11347.512689585332 4804.92887523555,11353.397998376517 4864.426242560032,11378.951719468809 4866.285717333376,11379.609316769172 4918.892775253335,11426.81985448848 4921.927820231125,11429.25852785894 4986.523888355587,11510.051574670651 4995.579215928912,11519.357447476359 5051.2888937244425,11568.935589681496 5055.877870080003,11572.519197312882 5127.073267768894,11646.617947424005 5137.297175040003,11655.453498948948 5199.88055978663,11701.599274481181 5210.870510080014,11708.472027311916 5296.611695786705,11751.465569848719 5304.0262931911275,11754.644946346642 5328.512290417741,11776.887190844864 5330.939452586637,11779.546341499547 5393.542061226675,11870.252704716288 5406.008756053343,11886.884937142371 5454.907932728878,11942.319347819779 5461.876885333331,11949.175641567272 5495.413258524437,11949.41576966556 5573.858102897822,11963.953636059887 5656.906778453325,11979.344589726184 5762.221965368895,12025.026695575914 5876.573838506651,12077.94630368118 5935.701291520032,12098.680080613936 5943.808822897787,12101.52313131449 6010.31562951114,12073.659350289963 6027.953842915536,12068.383207948995 6145.723491271143,12045.297557277197 6149.073982862232,12044.64046823536 6175.134009173315,12049.018381387985 6179.010245119978,12049.669531390304 6215.048054613348,12043.197185547964 6218.509520497813,12042.575412810897 6275.910609635524,12042.44215453876 6280.79347854224,12042.497060510796 6312.796891875565,12033.035968370968 6319.877110044472,12032.993230284657 6336.5934503822355,12039.615827844886 6340.221232071111,12041.815929422795 6390.726186382235,12046.220864482108 6393.029558328912,12047.010616347194 6656.287670328864,11597.81812655006 6663.214679893339,11585.530584131135 6807.4087347199675,11613.81393886637 6904.07462599111,11723.32984782895 6918.399630506639,11739.99608468113 7193.498786986631,11850.005654415058 7205.692269511113,11854.914136748179 7248.690293475578,11856.00655599829 7399.343867733318,11862.726685146336 7637.533440284431,11982.084147296904 7769.150991075556,12048.075785990455 8693.56598072889,12402.250210661616 8701.14339868445,12405.097615173669 9168.639357439999,12113.456127048528 9186.425536568859,12093.770602841105 9324.804946204415,12013.314195803541 9370.157023288892,11986.808453944803 9411.927630791091,12022.490875450021 9587.041861688893,12123.350804003188 9678.13107626664,12085.735179508454 9696.740387555561,12118.67590809788 9708.158506382199,12139.116411065392 9896.875098168908,12218.276961643482 9937.004975502205,12234.577627950232 10037.840995271108,12350.4948449129 10041.10993095109,12353.32075931516 10128.316792888916,12369.600815941812 10188.517871217802,12310.408305815828 10255.344493511133,12303.176856501785 10307.48231367115,12249.670643520833 10355.091741866665,12310.98300958419 10356.419938133331,12313.717371965584 10356.466832782258,12321.357875806163 10355.49806506664,12323.108073491661 10342.419992177747,12332.186259312846 10339.263778417779,12337.248676334333 10329.43570858665,12378.912597314396 10330.529431608913,12384.107951083919 10368.544971946685,12394.155023063708 10372.857532017806,12397.920642929035 10377.60758129775,12416.20175199781 10378.544891733327,12425.780032776936 10407.044896142208,12475.85790781054 10411.451245511125,12480.46741748252 10428.732360533322,12486.295495230705 10431.68555832887,12485.42842019099 10446.7401969778,12469.225261928339 10448.295002168918,12469.045495438506 10458.045011342212,12484.232964666153 10462.764477155579,12487.506966419984 10474.966697813303,12484.451884434442 10478.40427946666,12484.74852360005 10488.076227982237,12493.186086216825 10500.99817955558,12498.764313733962 10517.466939448903,12540.48287879076 10523.638683022233,12550.248753865133 10531.123185493343,12554.52981794416 10536.935500515508,12556.123532403028 10567.154295751126,12557.529783550708 10581.789795271121,12561.456656095455 10596.669962524436,12559.108068662172 10602.154306275537,12560.608044963737 10630.279444764426,12572.467467341456 10636.123217066634,12575.373643703351 10645.826331591117,12582.686203182093 10651.841953848896,12590.295602460857 10655.279244231118,12600.170669091283 10661.091850524419,12604.27976055973 10693.373136497801,12609.576705436513 10695.029304035532,12611.248622153653 10711.685642524448,12637.4985164979 10713.232583395555,12640.373634166666 10713.138794097817,12666.608132718597 10713.826193920046,12670.404917087988 10726.982327466656,12707.889356565895 10725.154309973295,12716.983156646427 10712.49799765338,12748.46731767978 10711.076303359994,12755.29566814797 10659.52918101335,12774.420463944087 10660.107354168897,12782.842514896649 10662.794912711135,12788.84237318288 10666.26366037334,12791.123631272407 10684.044887893368,12795.014181422768 10685.966694684466,12796.826899169362 10696.247982364439,12820.826898470754 10700.82618168887,12825.404960661603 10728.122362595517,12827.210796454165 10735.966876160004,12828.514317026478 10748.201136639982,12834.139360036119 10753.326051840035,12838.733069389302 10756.404204942228,12845.061093554774 10755.794865777774,12846.920559241145 10745.685428053315,12853.389370252262 10745.451246079989,12855.186253866937 10757.732401208894,12881.170387265505 10761.959036302229,12884.404970900796 10767.43551573332,12884.662634085049 10769.935495679965,12883.51426813472 10792.55269745778,12862.248623709776 10796.045038080018,12860.584592323925 10860.935581297788,12873.092327371705 10873.810638222203,12874.451820989314 10945.060503608896,12867.82690156222 10953.732518400007,12869.186106696608 10963.451070293318,12874.311275834625 10964.904221866629,12876.123535709106 10966.185523484426,12908.295576364035 10967.920042951126,12914.733106785628 10980.810537244484,12932.951671232935 10983.285176604462,12934.21293586964 10990.505787448841,12936.44401199621 10998.138838186627,12938.084479433484 11012.44257991109,12934.392015142483 11019.419979377766,12931.498575940437 11046.701305457798,12906.279984111898 11054.404261262214,12906.639339815825 11099.07622030226,12941.920427864185 11104.232301511103,12945.061102088948 11140.670026239997,12950.295534606325 11143.443509760022,12950.3032431787 11170.24016071111,12938.490963850694 11172.40430506668,12936.342316554452 11171.326310684439,12916.920646858169 11172.529260373325,12910.186042396002 11182.920065991115,12899.154808265332 11191.65441279998,12894.5925429177 11207.841804800031,12893.936087142385 11212.513793422258,12895.358110876696 11228.670019413345,12914.983052337542 11230.654449493333,12916.27992172906 11245.544811235566,12916.139383161732 11249.591732053319,12914.983052337542 11254.263720675546,12909.811270276201 11255.013743786665,12908.451830530656 11258.779296711145,12872.873503559851 11260.872953457816,12867.983162816323 11269.109809208894,12857.080390626681 11270.194502826664,12855.901151604718 11280.154227200022,12853.139407442533 11284.701260515547,12853.686182465462 11297.482528142224,12859.896977592376 11299.435500942229,12862.139210479916 11307.513613937772,12887.029929639422 11309.091720817785,12891.654795792536 11316.49816263112,12903.326857501059 11324.232575715578,12910.436285717587 11331.87319950218,12928.98315299768 11336.904325404437,12936.123508246848 11348.451186062244,12942.795655095542 11357.123200853355,12948.920442813309 11365.044901262212,12948.717351241503 11372.372991146694,12952.264183254272 11378.04491349333,12962.600110497617 11380.013614933356,12965.48307227908 11390.084022328898,12972.420642756042 11403.96687729779,12982.389303673932 11429.560578559991,12991.201621290704 11434.06042595557,12993.670620032062 11448.04493454221,13040.826655786543 11451.404455537791,13043.701657939528 11485.537060693314,13055.678263942245 11488.59977642668,13056.795578260848 11534.294970879972,13063.967523180763 11537.513807928888,13066.092445050308 11539.13094513776,13088.068846048729 11539.966893226665,13091.50633408816 11546.646613617777,13102.201711151109 11551.0136413867,13104.951718642376 11588.076142648875,13097.936025869509 11603.498074168863,13093.732868343533 11669.373113742215,13063.264353172504 11671.951154346694,13062.498632422765 11722.505916017806,13076.483086369582 11727.131009991106,13079.162619703973 11743.750357048877,13077.330316603882 11752.060613120033,13075.139314732107 11760.240379733325,13068.639202339866 11764.56051285332,13064.3425271968 11805.122927786666,13008.608095081581 11815.92005660449,12998.170417945832 11860.497935075546,12982.32674788608 11868.669837368885,12981.07681710471 11896.138742044452,12990.7486150185 11900.123039573315,12990.59237523668 11914.122985528898,12976.592349935672 11915.935565653315,12974.420669107523 11929.622977706662,12968.04553246207 11935.935696497734,12963.23309395567 11955.060557653313,12922.600279963634 11956.28710030223,12921.740747078846 11980.216769706632,12914.639117752144 11981.685649920022,12914.139226385858 12026.482564266655,12921.905004203145 12037.482417777821,12923.311269285914 12047.044848355581,12907.389183059102 12048.746454186621,12905.9461271154 12061.979192035564,12904.181664130127 12067.906267875573,12902.759061455552 12129.982549617765,12878.576841066475 12131.93552241777,12877.717265785264 12147.814167039993,12876.126797299134 12153.537061831099,12874.834613692889 12177.310609920009,12855.561048936623 12180.92790584889,12853.475359814707 12188.591831324447,12852.123543629888 12192.833903786668,12852.608050916693 12233.248061724473,12868.639341180504 12237.896457386669,12868.287679451169 12255.045044053346,12856.475204288028 12255.841961813334,12856.03784496832 12275.021581937792,12853.756456671283 12276.73250844446,12853.186256942456 12316.021486080019,12834.990971253195 12316.820151466643,12833.94335887127 12340.818269582232,12776.608051975782 12340.836619662237,12774.966694237432 12336.529302471143,12756.81547756982 12335.07644216891,12753.83071767888 12312.677693724458,12724.561153348885 12311.888640284422,12722.717446022085 12299.544861866627,12676.686094948323 12299.029312000028,12673.842532148468 12312.74031701329,12619.748743803182 12320.724640711094,12604.811265727389 12318.810698240006,12567.451784285251 12318.490300017816,12565.490884722443 12313.365384817764,12559.170654238085 12310.96676721779,12557.498639012512 12299.138829937787,12558.904887970653 12296.396512426669,12557.87355985638 12293.998186097771,12555.35025645583 12289.388820764434,12547.88916176313 12276.802704782225,12541.967462498578 12275.794906737749,12540.70178459736 12291.76064142224,12530.305478569528 12292.224636302213,12529.89702751441 12295.726880142232,12518.840597926639 12295.04326684447,12514.994515486818 12286.46911914664,12506.127342034248 12286.70592256001,12504.73880691611 12297.186148408859,12501.690607221099 12297.359745991125,12500.016406641924 12282.372973511112,12485.76421534695 12281.71673969779,12484.764245473023 12261.169892977807,12435.155000045488 12259.25595050666,12432.201786370773 12249.202436835563,12427.290619027975 12248.22463971551,12427.139323192765 12234.173721315514,12431.01812486758 12233.521565297793,12430.822924396547 12233.055822791124,12414.175843397505 12242.54660067556,12317.313330343284 12282.515405084414,12156.011462423077 12334.944205084408,12077.121856963786 12365.608645119995,12030.460698127223 12434.461931804428,11937.130564597319 12447.65010517335,11920.062955974892 12493.53899491555,11866.550111941702 12521.924238506646,11834.719865201158 12732.130230328883,11627.790915175574 12819.667976248893,11541.603110192984 13250.34464511997,11498.047573904798 13463.610148693318,11493.320883712557 14684.241450382222,9052.238962250005 14696.179488142254,9028.329292513314 14873.662044444412,8739.088416124287 14882.514356053318,8724.182979718957 14926.428718933312,8629.570914790209 14930.745648071112,8617.24367968546 14953.359645866673,8528.710144187324 14955.485051164462,8515.814422134252 14962.482839608914,8424.662345326273 14962.350893795548,8411.589036709047 14953.514019555529,8320.587031064788 14951.128217884456,8307.733800161921 14921.0270961778,8204.513306837296 14914.930791822262,8189.5386808071635 13961.75656647113,6231.098144042189 13956.14056817774,6219.555179233721 13921.360467342252,6138.955688917777 13919.729931662208,6135.177040620358 15382.60034816002,3072.1416635299684 15387.798372408899,3058.333392587141 15624.138664675527,2288.9032487639342 15626.845447111118,2276.005017024232 15788.997822293371,833.9486018387252 15789.25064561778,816.9410082111135 15782.33033528889,724.8053421383374 15780.203182364465,711.7666245311848 15757.481996799994,622.2260735935997 15755.730583608907,617.1977405663929 15750.583531804441,616.4370375507278 15559.639007288846,448.97748268098803 15530.511896177777,440.6036099193734 14748.125360639999,417.15546604583506 14692.94900024886,333.92122412699973 14690.842818844423,330.11965413135476 14646.610679182224,231.0161453661276 14645.187237262202,226.90998655901058 14619.332848355523,126.04725243884604 14618.605835662223,121.76578634162433 14609.725853297743,9.342579387302976 14609.771582862246,5 13975.44805632002,233.7287410608842 13884.297092266672,271.3800184595166 13853.484977777814,282.8279156969511 13788.09810858668,295.85687357152347 13783.157568000024,296.01608527835924 13768.983150648884,303.49175436457153 13756.5968466489,305.5017754913424 13696.356737991155,280.6498636638862 13686.76314140443,280.2123224885436 13668.76316928002,285.33735542331124 13648.262925937772,294.1498683138052 13592.674708195555,328.6928535231855 13587.977961528872,330.03070532676065 13572.748851484444,329.9167302304413 13565.404741688923,327.5543053824804 13535.743439359998,310.93024860153673 13529.623542044428,307.7705046859337 13496.741655040008,312.474081971508 13478.638864213368,310.29009942361154 13464.743775857787,316.57456989755156 13456.247106275521,314.4952316773706 13451.741433457762,306.4742182083428 13451.741433457762,298.97415927471593 13468.573990968871,276.2032735685352 13468.986722133355,273.23876261967234 13463.07391857775,260.51421876606764 13460.011202844442,259.20185490633594 13404.387741297774,279.5229909924674 13394.664820337784,279.95329556049546 13338.664745244489,270.64363585499814 13334.809480817756,269.8201045994647 13266.620583537791,246.1628078634967 13262.208408746636,246.78341928770533 13252.721417386667,252.3492939582211 13251.976345884439,254.96801578247687 13255.891320888884,281.5282621085644 13257.193885297806,286.47055031138007 13254.051652551105,291.9420021370752 13250.575914382236,291.5804565459257 13227.194417208899,276.9688998045749 13223.080795306654,270.66142725461395 13218.76561379555,237.16116095415782 13216.65826730663,234.28754340211162 13206.42853461334,231.10752037086058 13195.797721599985,230.68050043541007 13164.739774293324,233.1361627652077 13153.528457955574,231.18381698208395 13144.088361244416,227.3593251305865 13136.137533724424,221.46180682844715 13126.661319395585,208.49105728429276 13121.93602815998,203.02553160634125 13102.408630328893,189.5329666903708 13097.569452088908,187.93877517868532 13093.698167751078,187.7110762958182 13089.769794275577,189.36196676833788 13082.491511751141,197.72402085445356 13080.138623715553,206.74974216055125 13097.809168213338,224.73174553737044 13098.777935928898,228.3569159527542 13085.590636373323,245.23188960639527 13083.402899057779,248.73179752810393 13083.257263502222,278.789030050626 13082.658410097763,279.36950457043713 13076.591524124437,279.38820036448305 13072.583342364407,276.9097967482521 13062.624783075531,266.2325597933959 13060.710840604443,266.17255109903635 13055.379996728909,272.4809722098289 13041.252765297773,288.69109992776066 13041.524521244457,305.1728030652739 13040.491673884448,306.4742182083428 13016.829682631127,293.200625491736 13012.164393244428,291.61965666152537 12991.303264995571,292.15428569249343 12982.064727893332,294.43391719675856 12976.157749760023,297.4456719686277 12974.833340017765,299.0763799379347 12965.491692942218,317.4821675713174 12961.50710414222,321.38964743120596 12928.502592000004,334.4283798530814 12924.543926328886,335.3260022989125 12915.343254471081,332.62468865222763 12908.43954659556,327.0727736921981 12893.59578823112,309.2480087769218 12889.792370062205,306.89364963781554 12868.284619946673,306.9388794665574 12866.744960853306,305.08234315697337 12878.65125006222,267.6389931195299 12877.702871324436,265.6436300041969 12860.62972387555,263.9021678022109 12857.413216995541,263.33464611670934 12837.339977102238,247.995087488438 12833.665300764435,246.71164792904165 12809.326686720015,243.5350034016883 12804.938396160025,244.58865958766546 12786.871722951124,264.78360458347015 12783.747549013351,270.0360140308039 12769.8014882133,273.4772869933513 12767.76375551999,276.3751550791203 12766.586437688908,302.8184290555073 12764.61715370667,304.79377596487757 12761.543078399962,306.3593343544053 12758.43608945777,306.75765860034153 12742.271416604402,294.93959626799915 12737.154656995554,292.6304157424602 12729.819576604466,294.5774492811179 12726.513940764475,296.9773854308878 12722.574790257786,307.79915020556655 12724.431061048876,316.71930316695943 12738.875486720004,332.7483119145036 12740.991571342223,336.724144012318 12737.745937351137,353.0384882494691 12735.247122488858,355.86333533679135 12726.06596579554,356.29781013476895 12720.307244657772,353.0384882494691 12711.50648803555,339.72846502508037 12706.942852266657,335.49093312653713 12697.435763199988,333.69809960288694 12692.437842204468,336.95782062620856 12689.50415957335,346.6820094783325 12689.491634915583,351.97415478358744 12696.240677831112,367.5433996596839 12695.839597511105,384.0990670073079 12695.924357404409,390.59959287865786 12710.936761742225,402.26214607502334 12714.551144960045,405.2351092719473 12723.892792035535,424.9664833295392 12724.218724408885,427.8458846801077 12706.603521422192,433.30016105866525 12699.065716337762,431.37706056865864 12670.381337315543,405.3547993202228 12667.230366435542,406.4413548159064 12667.936407608911,426.0530058767181 12671.576422684419,435.88619311974617 12677.389320248913,441.7534147572005 12681.192155875557,443.87213735608384 12691.731509760022,440.83001370786224 12694.707426702196,441.58006990060676 12697.746840746666,448.25999341724673 12697.454695822205,454.6736559868441 12687.67322936887,463.4624561177916 12679.529580373375,465.09184084954904 12638.070632960007,456.84268048690865 12634.294885546668,460.8629685265478 12628.616555235581,494.4740235735662 12628.602865493333,499.9645146020921 12635.366471964458,539.1881891486701 12633.981186560006,541.4970923721557 12627.054468266666,542.5020354111912 12622.681323804427,540.410462048836 12603.938610346639,523.053066631197 12601.276683662203,521.8036321275868 12578.660064426658,545.3944782502949 12575.048885191092,544.703017994645 12564.600116622227,533.5626898679766 12559.826765653328,529.273375888064 12534.238889813307,517.7020337046706 12527.067795057781,517.0500317997066 12515.713755875593,528.9475315511227 12517.866540657764,536.5989523868775 12523.482247680018,540.6820444446057 12533.641492764466,545.0825073892483 12539.454390328901,560.7827445408911 12537.44432839111,566.486977499444 12524.079935999995,576.102829322801 12515.170535253303,577.9501488634851 12476.92459946667,577.1351467317436 12474.914537528879,578.9821619286668 12490.288991857786,592.5639520089026 12492.570518471126,597.724788954074 12492.081765546696,603.0489405952394 12490.180347733316,607.666585818457 12475.512225848914,620.2161314304103 12473.013119715557,627.6045746997697 12475.809613653342,642.2727138195187 12476.732943075534,648.6832527016522 12474.016839964432,654.2788230182487 12471.616474737762,655.5991258760332 12452.666376248933,646.2385094941128 12445.38663736888,643.3591736625531 12425.666126791097,641.838129373733 12413.388466915581,639.5564055771683 12394.265353386698,631.5701585084316 12388.832855893357,631.9505012680311 12376.989772515546,640.751365611155 12371.55698375107,642.3812091975124 12336.353374719969,640.4798250750755 12316.198287644424,647.5965003844467 12294.576359253319,672.9671424182015 12288.600349866669,678.9973650220782 12283.059208248858,680.1383093959885 12277.191842986678,679.8664839501726 12272.737142613332,677.4218579850276 12269.749283555546,673.4017060564365 12265.457403733337,651.3452758680214 12262.63236522663,644.2825877574505 12252.636231964454,636.6227919784724 12248.670575786673,636.459746083885 12240.521392640017,642.8703423019033 12239.652239644434,646.8903816404054 12245.193672533322,663.6772957684589 12246.008357831102,673.6732328425278 12237.24138865777,693.849073691119 12232.155212515558,700.3477008539485 12226.116579840018,705.0990557709592 12216.400649386691,709.4745989717776 12204.991851235565,710.6151885610307 12192.38825898664,704.2046573688858 12184.673943608883,702.6837553770747 12168.267224462237,707.953407949477 12163.16065934219,712.733937655692 12164.029812337772,731.6938887441065 12169.190845155565,735.0079588259105 12182.621064817766,725.7973455550382 12192.176796159998,720.2955043913098 12202.351769884466,718.4853529255488 12207.853007360012,718.6242710039369 12222.06587249774,723.1910733231343 12226.255807431124,728.4925015203771 12224.638378951116,747.9289948243531 12223.762817991083,756.0698993499973 12234.033619911119,778.3041719804169 12234.748107946652,785.391620104434 12229.361922560027,801.249061821145 12224.342738773325,806.2572926342255 12215.301100942248,806.5037561345962 12212.367418311129,803.7194362842129 12205.290404124418,771.8879793287488 12202.469443413313,758.7510692376527 12194.615609173372,750.9256863575429 12189.34593223111,750.8169077506755 12183.967611164437,753.2615594284143 12180.74149233778,757.5991136912489 12181.468505031138,774.6118708405993 12179.567087217758,780.8596033416106 12170.122912711115,789.501774410659 12162.986479217769,791.0526044360013 12158.733338453341,790.247209781257 12155.928980195546,787.6616843401571 12153.684736284427,764.1067468831898 12148.585744213371,758.156259068579 12133.548581831099,756.7201548720477 12129.022520035564,761.1306058051996 12134.920177493303,784.2993710900773 12141.451058346662,798.7639141223044 12139.328274488915,817.8111482984386 12133.17284209776,822.3242281455314 12125.178906453366,823.911436470109 12117.456435484404,821.5749126233859 12104.916922879987,803.2126472133677 12099.020430506673,795.3775537050096 12072.653404444456,785.4886418593815 12069.685351822234,787.9256307705073 12066.904295253335,793.5178953221184 12066.529720604478,801.8604042932857 12075.196201244427,824.7327580166748 12075.246591146628,830.447331662639 12065.615129315585,854.6891976920306 12056.875248355558,860.5038337269216 12048.127211804444,862.0035796375014 12018.56931072002,853.1617173585109 12008.258022115566,851.3808575702715 12002.572701297759,846.9432989954366 11998.8557906489,823.3823674575542 11995.608700302255,813.5068359696306 11986.702503537817,808.0201976026874 11982.532666311134,808.7586819288554 11980.62717070221,811.082898460445 11980.710182968876,814.5523351355805 11987.154265031102,823.7644059447339 11987.222131200018,830.4557677548146 11982.664029582229,856.4911378464894 11978.303992320027,861.3178786401404 11931.882367715589,877.1927567220991 11923.335308231122,879.6616387215327 11905.898071893316,911.4390379813267 11899.852157439978,912.9480057664332 11857.88785464887,887.6680428721593 11849.991494826681,889.723855681892 11844.765508551092,893.7288159328164 11842.116689066694,897.8491334316786 11833.706235733349,928.6580544434837 11825.989007644414,942.531385568087 11811.116122168896,959.1853806574945 11805.30409841775,961.6928115714109 11794.385509546672,961.1539135465864 11775.928824320028,947.6927656258922 11769.629212728876,945.2648073929595 11753.073654044478,962.0979637909331 11743.628605724429,970.1440240645898 11732.844001564488,971.6612907166709 11716.149506560003,965.8154119647224 11709.256866986689,967.0281491805799 11687.022977991088,983.8176716634771 11677.04432099557,985.224962183449 11668.185310151079,981.6760058431537 11653.5055374222,970.4660331041086 11640.907479324436,950.6373306738678 11637.883793919988,948.7473883493221 11609.921767253312,972.6601484790444 11599.641062115552,972.6601484790444 11591.602853262215,970.3636167757213 11584.044950471085,959.5477598421276 11582.869088995561,956.8041558369878 11552.592913351138,944.684023988957 11541.00585727999,947.2788686684216 11531.310898346652,955.1732904737 11529.626477511076,958.0801680896548 11532.268889031082,976.049506100826 11535.935409777798,982.6558715385618 11558.849125546694,990.8366235446301 11571.139018808899,997.2485579968197 11575.215649279999,1001.3248493578867 11587.202329315594,1016.2430220980314 11590.274948266684,1027.0443888672744 11567.599783537793,1036.771520764858 11557.694235591101,1018.5948141685221 11552.71728611557,1011.5695331917959 11531.971501226653,1004.5429720517714 11514.597761991143,1002.4348082880024 11438.823873706628,1036.4453275985434 11432.587176675559,1038.9946297948482 11410.006383786676,1037.9534048945643 11399.32168561779,1037.1757229674258 11383.31983331556,1032.4430477239657 11377.513343715516,1026.0170001353836 11366.583395271096,999.2983034799108 11360.254947840003,995.5430925752735 11351.30826439109,997.5401312944596 11344.171539626666,1001.797749321966 11319.559422008868,1035.2797052623937 11310.25447509333,1042.9426552680088 11290.129971484479,1047.708987883234 11276.530232035555,1045.6166248398367 11255.267149653344,1041.0605090738973 11220.733755448891,1024.4110054933699 11220.196068977762,1022.7977781062946 11236.328119466663,989.8167084209272 11237.493203911115,984.1706994496635 11237.435532231117,969.5768178596045 11235.060507591115,960.1080464657862 11227.591733760026,954.8892290979857 11224.279398684448,954.5141955977306 11213.310419911111,955.7956344775739 11210.31061873777,957.7331508394564 11191.3378011022,984.0360549153993 11187.6182690133,986.2319321183022 11132.422684728866,1004.2902578221401 11118.314385920006,1008.8547617945005 11111.70631822222,1003.568259658874 11107.259482168884,990.2281687593786 11119.815014684456,932.274174055201 11113.435594808892,918.9829383359756 11105.372919182235,913.1079700050177 11095.623201280017,910.4828645375674 11048.479224319977,908.6626968581695 11031.185584640014,906.5768182312022 11022.685419804417,910.6705445644911 11015.841713777743,919.6393577829585 11010.77417898667,936.2469421972055 11012.201407431101,949.0916992559796 11014.172439039976,961.4123677692842 11074.054575502232,1088.4881030248944 11073.392807537748,1090.5194931378355 11066.056270791101,1094.173871324223 11062.682768782193,1094.8036125349463 10998.733322524466,1078.673795087845 10987.233939057798,1079.1336887582438 10973.843623537745,1085.0517416107468 10962.491331982252,1091.3317462536506 10932.460115342226,1117.0152316418244 10920.222359608917,1123.7782829825883 10913.298262755561,1124.583568421076 10899.369386951148,1125.308143779519 10873.444219164434,1134.9696744862013 10866.439731484454,1137.6264048896846 10815.024846222193,1134.81458277395 10803.217589191103,1133.7744133342057 10773.608715662209,1118.135836448404 10772.425863679964,1117.659707630868 10756.177304746641,1102.2017465613317 10749.781282417767,1096.825345777208 10738.641036231129,1079.8525919704698 10733.80506197334,1077.6534142674645 10726.804652088846,1079.4324538251967 10713.072675555537,1086.1275264527067 10696.544787626655,1084.4996934413793 10688.344923306664,1079.8806011705892 10682.940970382188,1067.9627291239449 10683.504579982255,1063.0513740360038 10698.862431857793,1042.2185913450667 10701.077839928912,1038.2901390756015 10704.752516266657,1025.1371974814683 10703.42228110222,1015.9496499028755 10701.771065173321,1010.0857928899932 10697.819390008866,1005.0089418953285 10674.044968106668,996.978069429053 10666.758529991086,998.7564242911176 10646.294986808847,1015.6638076684903 10634.12975758221,1023.7739678939688 10588.209410560026,1047.0590217854478 10586.796745671134,1048.0610776828835 10564.472271359991,1072.2710900016828 10560.536324835557,1077.6781106342678 10557.702256924473,1102.8275649434072 10556.349302613293,1110.0440088852774 10584.573182008928,1175.561187289015 10586.219737600011,1185.268051608291 10575.184640284453,1214.5220813534106 10576.225060693338,1221.265159897739 10599.342374968866,1238.5919714508345 10601.240880071127,1246.1857069940306 10599.135863751115,1256.9149460244225 10581.59406108444,1266.2481639350299 10577.433544533327,1268.1597741952864 10554.156613688858,1289.862138430064 10545.948011235567,1295.259843622509 10539.08857656893,1298.0709803714417 10531.7797105778,1298.2958828365663 10518.398133191105,1291.661378404533 10513.22574080003,1290.6494570619543 10494.6717710222,1293.2357093541068 10487.475044408871,1292.8982025002479 10483.539389155572,1290.0870436954428 10478.928858737752,1284.9145042595337 10467.842497706646,1257.0326734173577 10467.363647999999,1248.4072043508058 10457.01449415111,1234.2949382085935 10449.810485759983,1227.467382192728 10438.997919573332,1228.73293187964 10425.685664711113,1234.8893161407323 10416.248189439997,1246.1549949964974 10407.004992000002,1253.0103590863291 10392.306577919982,1256.1601051814505 10375.327802311105,1256.1601051814505 10357.81046641781,1252.514154523611 10334.678588586685,1242.0516183683067 10320.904377742205,1223.951652522548 10320.810588444408,1214.545568127185 10325.294998471101,1203.3735981168575 10349.180977208889,1179.5005623736652 10349.091848248907,1175.7018151347875 10330.56059761782,1164.6080828252016 10319.851141404419,1155.5890175394015 10314.21679303114,1143.639393552905 10311.216700586665,1138.733121764497 10299.263808000018,1129.3737014157232 10292.591951928916,1128.654852426378 10288.957762275531,1132.8429573687026 10287.779279360024,1136.0923567019054 10288.591925759974,1155.732962190872 10285.170072746696,1165.8294866272481 10258.005546382221,1182.3537489019218 10253.402880284411,1189.2573551452952 10242.58448867558,1229.9614431672962 10240.254319786618,1233.4566656841198 10192.310512355529,1277.201684826694 10179.092920604453,1292.70792202116 10152.159663502185,1305.1768977551255 10143.997955697763,1312.3580055203056 10152.387728782254,1347.158114419668 10144.663801457791,1357.2583284253487 10121.16317439999,1355.642605616711 10116.623131591128,1355.7955379990744 10093.310665671132,1380.951830694219 10088.99810560001,1382.7017535173218 10077.997960817767,1380.1393326965626 10068.748064142186,1380.5767391158734 10057.935497955536,1386.3268154318794 10037.873035093362,1388.8892122529796 10008.99816476443,1383.076843889081 10003.247890488885,1384.5142869611154 9994.872972231125,1421.4517384092906 9986.6856325689,1433.7018553531962 9978.02002574224,1434.660278363328 9958.739334542188,1433.0664177237195 9907.935536071134,1421.4830442853854 9897.247925191128,1416.5141209551366 9887.841907199996,1407.7643061446142 9878.372974648897,1373.4204567454872 9871.90442581335,1371.1704805004993 9829.96691996447,1374.4518187292852 9822.81068003556,1375.9829036311712 9819.248143075558,1391.1081218658946 9818.466662684456,1393.7641206845874 9812.964842666697,1393.1602529121446 9808.633932515571,1391.3043946136022 9798.972469759989,1383.7899966648547 9790.51250033779,1370.0418770059478 9785.85449272889,1352.9635737476056 9783.935598648852,1345.264194194111 9785.74788750225,1341.639207899978 9790.175790933368,1338.4733120454475 9824.998126080027,1340.5141665805131 9828.43541646225,1338.7641319443937 9832.248155306675,1331.7642480501672 9831.685419519956,1325.0141714084893 9825.185413404484,1312.0141860267613 9818.060630755557,1308.514261982229 9790.810470684431,1313.514405846654 9769.591661511105,1316.795428592246 9751.029244871112,1309.0766596316244 9743.529305031116,1308.2330629776116 9734.498152959975,1312.5765806917916 9724.435609884444,1326.2018599415896 9721.997961955552,1329.139310078579 9717.623069866677,1320.9516282308614 9715.497955839965,1311.889242821373 9706.93545898667,1303.8265926800086 9702.62289891555,1303.5767031433643 9683.44764785777,1324.909100761055 9677.816794737766,1326.1600123971584 9661.341918151127,1320.8579973647138 9655.498145848862,1315.8265982848243 9655.560477866675,1306.8890866360161 9658.435615004448,1300.2016797629185 9654.248010239971,1282.7018613459659 9646.748070399975,1278.8266322726267 9638.579663359968,1287.7726534482208 9634.872947200027,1297.3893477997626 9620.81066922663,1305.3891528164386 9612.31050439115,1305.2642083559767 9576.935627946688,1286.2642459084163 9566.451033031102,1283.7330640634173 9545.247952497797,1292.7642233711667 9530.732456675556,1293.6391517538577 9526.02930204448,1289.9675157393212 9519.960668444459,1285.2911556200124 9519.314920391073,1279.2755470086122 9520.716808248893,1259.7018578954157 9515.435480462213,1248.8266323276912 9506.122960497742,1246.201665188244 9483.298373688885,1262.95815798681 9469.768830577785,1265.708913605311 9424.741229511157,1261.7884209713666 9414.129931662232,1263.8126518221106 9405.013437155518,1258.9506333518657 9399.31500913779,1248.1235709228204 9412.904262826662,1217.764151540934 9414.154398435552,1212.795500074746 9403.560576853342,1202.4202591342037 9395.091869297787,1194.7329721149872 9383.997935217805,1196.514404765272 9375.623016959988,1205.0143858225783 9348.817919146677,1255.3823803448468 9333.935421724454,1280.608138515032 9319.966933048854,1289.7016638095956 9308.591922346677,1286.8892870563432 9302.99806065776,1281.7016684390837 9305.906111431133,1269.231044302578 9307.888793884485,1264.3579254978686 9296.373099235585,1244.4516812829534 9295.060631608882,1235.7016920007882 9308.185599146644,1219.6391671051388 9311.310646897822,1207.7641790579655 9306.998086826643,1202.9517322371248 9297.754306844436,1201.6602367952582 9276.560546986642,1205.4516073287232 9268.810405262222,1202.576840489579 9259.69653219555,1193.5504667435307 9243.290686862194,1189.0173592321808 9234.119433386659,1181.623816133535 9230.860109653324,1164.4632367109298 9228.215950506681,1153.4470089909737 9188.601914311119,1143.5978355489206 9182.966109582223,1135.05851341167 9171.314973866683,1087.8201070966315 9171.935963875556,1081.6069293477922 9183.092521244427,1072.0443031684263 9190.480030435545,1063.271839160123 9193.404392391094,1045.4828965012566 9190.185555342177,1032.7330993820797 9178.998123235535,1029.7018574397662 9170.654370986682,1034.0454083431978 9158.369720604445,1056.118732099072 9147.498026382236,1058.7016904096818 9134.747924764466,1056.7641714455676 9105.623143822246,1035.1393485312 9102.56042808888,1033.2641074328567 9101.873028266651,1019.9517292935634 9103.435406506702,1008.0767441298813 9111.810616035538,998.3265953995287 9117.935464959999,995.2018182302127 9123.15416945779,996.5455284581985 9125.716772693326,998.4205734293791 9132.122989511117,1011.9204375831177 9136.904204800026,1020.4517239475972 9153.623166577774,1025.3266518330202 9161.708561351115,1021.3616529987194 9167.17892408889,1014.0677273997571 9169.361709795543,1009.2656077610445 9170.32989496889,982.3157953535556 9168.498090951121,971.2016228507273 9164.310486186645,961.0141433883109 9155.498078720004,955.5142844542279 9132.435523413296,952.9517043158412 9068.736861582205,905.9511135960929 9059.560656497779,897.5767962193349 9057.997986986651,887.2016881870222 9055.441209173296,867.7874208259163 9046.180826737778,843.4204061467899 9045.925381973328,842.3222286147065 9057.102328320034,836.505924213212 9051.333412693348,831.5063616683474 9042.807616000006,830.1599018851994 9035.873033386655,828.9203971810057 9025.654368995514,816.3266669172444 9024.654435271106,814.6391084780917 9000.748067555542,813.7954782699235 8997.123198577785,812.2016167917172 8971.96669525333,791.5768787609413 8968.279202986683,791.4518363596871 8945.84171548445,792.7329925497761 8943.529314133339,793.1391534880968 8935.872961706656,800.5768556123367 8934.060672853317,801.6392484330572 8919.638675057737,801.8423261604039 8916.060700728907,802.3891894588014 8908.54503224889,808.0141716153594 8906.795075413305,809.0611860789941 8893.185432746657,804.9204223674024 8891.43547591113,805.3892462392105 8882.716857742227,816.0142233791412 8876.248017635546,824.0925129527459 8873.669977031124,836.2799595153774 8869.529266915575,841.8269183083903 8863.341794702224,841.8266170246643 8851.029182293336,844.8891592175933 8820.349596159998,840.975188575685 8817.865344853315,841.3424538496765 8799.279335253348,829.6236069934093 8797.498212408915,828.8110290058539 8769.966684444458,840.6079230951145 8765.873160248913,841.7642512842431 8736.841877333296,832.2954358241986 8734.06052949332,832.4831383179408 8708.09167103999,859.5454768124619 8704.904291271116,863.6391965526273 8699.685586773325,884.1393444047426 8698.37311914668,887.608091610251 8688.341742079996,893.2956041754805 8687.185395768902,894.51419979817 8673.091660515522,919.5766982221394 8665.09189944889,926.3580546009471 8665.841922560008,938.045645103266 8660.93546069332,947.5454617168871 8648.810426880023,953.0767158049857 8641.591854933358,962.2329140655929 8637.747950079967,970.8268999217544 8640.529297920002,975.6705688376678 8659.404248462233,978.7954392065876 8663.872929848905,981.6705838954658 8660.873128675565,992.2330552606727 8650.966706915584,1003.170362124918 8644.12300088891,1006.3893793767202 8635.904203946702,1006.764383164933 8618.185599715565,1003.108011770295 8612.748150613334,1004.5453817222151 8610.154381368891,1014.2954379004077 8605.56045340444,1017.9204217880615 8563.90431544889,1008.4050598656177 8555.529397191072,1008.5143980053836 8533.638625564461,1032.8580956437509 8524.685534151096,1035.514335868298 8523.279277226655,1043.7643042087439 8518.498061937804,1056.5455112434574 8488.216934684431,1056.6078565151547 8478.1543916089,1059.3266467282083 8470.185505280038,1066.4203862760914 8458.715540195524,1093.9663667948917 8453.40566783998,1100.8675889237202 8439.06056561775,1106.6393823120743 8436.123096462223,1108.2641488098889 8417.044838684436,1132.1861491190502 8411.919923484442,1138.9517545919516 8397.695698773314,1140.6947916663485 8395.165717902244,1141.2290249786456 8375.763566648879,1159.0924648097716 8370.09193557332,1168.982962480106 8359.210629404464,1169.6502736131079 8356.388794879953,1172.3893739480409 8356.763660800003,1187.0612537687412 8359.091790791077,1193.0298264497542 8362.779283057782,1195.795629190281 8372.563662222237,1198.5213713692501 8377.404296817782,1205.4672653937596 8380.941201920039,1214.4889589787344 8369.583958755538,1233.0989542388706 8363.79494542221,1243.21747614193 8361.357588764455,1256.5455046828138 8359.513551359996,1262.811225883721 8351.226596977736,1266.0181320225238 8345.857305315556,1266.3836538981996 8316.789322239987,1264.1628193421639 8312.066652444482,1265.76521726168 8305.514800071134,1269.1879887921968 8302.2554763378,1273.4396315900958 8292.781883448886,1295.479628763278 8291.797969635576,1299.6121779214009 8292.993346275529,1324.71491570957 8293.456467342214,1327.1899429170298 8307.38650823111,1333.3764166138717 8311.531004871067,1334.2976540247328 8340.122468408896,1337.2820329231326 8344.311238257797,1338.9968479823438 8363.623969279986,1362.8641063057585 8368.185857422242,1368.6408285334473 8368.965298915573,1379.1127961909515 8370.146111999988,1382.7673792960122 8365.012458666635,1392.3366317704204 8363.10405034665,1404.1839136710041 8354.75505521777,1409.7498593075434 8343.941323946638,1414.918109426566 8315.539477902232,1444.1264370615827 8313.962536106643,1446.8186446833424 8314.102637511096,1450.7636241212022 8315.339665920008,1451.8996149061713 8327.25469326222,1457.9714435484493 8332.028918044409,1458.4139154980658 8376.215328142222,1452.2162712372956 8376.820880782208,1455.6206182284513 8369.577842062223,1471.174739426002 8364.180297102255,1481.5198712355923 8336.293127111101,1514.916959145281 8331.008012800012,1522.0012835470843 8320.10049223114,1550.675500343321 8315.377822435577,1558.0971152331913 8278.269882879977,1573.7273785088328 8267.812376177753,1576.5385356987244 8255.279271537787,1600.5612404861022 8253.77922531555,1601.8814483639435 8230.873082595586,1601.2016334203072 8222.091841137793,1603.795399047609 8190.8340818488505,1624.334511198802 8174.9714571377845,1625.6600884651998 8157.5997567999875,1623.3893022745615 8138.654318648914,1606.6705278016161 8130.498144995538,1599.154961916909 8121.917589333316,1586.2846511132666 8119.029344995564,1564.8968787735794 8113.230137173319,1554.0444302274263 8110.516946773336,1550.3477555809077 8103.77926343109,1547.4516164477682 8093.779343644448,1547.5142162842676 8087.872948053351,1545.7641272812034 8085.081114453322,1526.2344457446015 8082.130538097757,1524.6405045888387 8059.310611626657,1543.1391355960513 8048.248134826659,1553.2643472174532 8020.310574933363,1550.9204811710515 8013.24812430219,1551.7017707737396 8004.841748764447,1560.1080997428508 7997.1856876089005,1567.04537768726 7996.5917858133325,1574.2329723730218 7998.0638700089185,1581.4259062046185 8022.493943182228,1589.4674182115705 8025.112761742261,1596.6698169426527 8030.216705422208,1620.7956131871324 8029.105506133346,1628.7319268173887 8011.341754879977,1644.3894150558044 8010.23230321781,1648.795424459735 8030.6227373511065,1705.7152387435199 8034.966754702211,1725.795369181491 8014.654381226632,1755.1079564344836 8009.373053440009,1766.7017553790938 8006.28033678222,1801.7196101746522 8006.497916302178,1812.701891966397 7999.716833564453,1828.6706283693202 7992.935459555534,1834.2955902433605 7970.591761351097,1835.6081146352226 7963.716889315576,1839.139252705325 7959.245586488862,1852.467641468509 7957.622915128886,1857.7954931068234 7941.310567822191,1853.873685830913 7936.779263146687,1852.8893949236954 7906.529301902221,1874.4829963140655 7902.810643626668,1879.9204681285773 7901.498176000023,1888.7329529262497 7907.091746417747,1895.1773999014986 7912.319771591108,1899.8247990513337 7899.935506488895,1936.2018387854914 7900.280954026675,1946.3962712154025 7905.400626346644,1956.170364156831 7909.998049564427,1966.3891555986484 7914.2724531200365,1988.5391099557746 7911.989470151078,1998.8109420661349 7893.048983608896,2008.1105842685793 7890.123165297788,2011.8266756871017 7889.791698773333,2022.9835479172762 7889.872963413363,2037.5767944658292 7883.873069795547,2044.6393257105956 7881.498045155546,2058.7641650297446 7877.9981314844335,2062.6393616917194 7856.123088497785,2060.076850560028 7850.248150186671,2066.3578573832638 7850.747971413308,2081.2641117982566 7850.498060800019,2093.8268728205003 7844.372920604481,2111.076830203994 7839.435584000021,2122.9516304837307 7800.247968711134,2146.8891343178693 7795.497919431131,2153.889175274002 7797.373122844438,2173.514159157581 7800.623125902202,2177.8267799376044 7820.747920782247,2177.389295090921 7832.098173439968,2173.6299204475363 7863.105439573294,2186.6064843928907 7864.730149831099,2188.6375264122616 7862.37289272889,2203.264155255514 7861.18538040889,2213.7016737695085 7869.248056035547,2222.1393638774753 7871.810659271083,2227.014198349032 7858.685400462244,2242.9517203297 7860.185446684423,2247.2641968089156 7867.122942008893,2253.5142923594685 7873.4356608000235,2267.2018261293415 7876.99790648889,2290.5143078736146 7879.497886435536,2295.7641272593755 7883.372957297775,2296.8268326740945 7887.632506026654,2295.3420508675626 7899.704528497765,2281.944896244211 7907.59884942224,2281.494852566626 7910.8730279822485,2286.5766910366947 7912.724929706659,2292.3586486666463 7913.373007928894,2328.4516984618967 7914.247986346658,2336.951680537022 7930.846944426652,2348.0965471812524 7940.065675093327,2352.9485272514867 7987.6590833777445,2370.7368186241947 7992.878952960018,2377.7164991097525 7994.276180480025,2384.7336805453524 7993.871604906686,2386.839572223136 7978.6349218133255,2417.837442353135 7976.864867271099,2421.2864716904587 7963.0198775466415,2430.4549430983025 7955.854025671142,2435.399506088812 7952.020024035592,2444.4550769803463 7947.332306773344,2454.3923513009213 7926.538462151133,2471.522182954999 7922.545135217777,2475.3793783495785 7903.8484425955685,2529.5632285243482 7902.305579520005,2533.6475859167404 7894.863020088873,2538.0041866460815 7891.142031644471,2537.5501061634277 7865.435608462256,2516.451707005268 7858.685400462244,2513.1393014666974 7841.248164124438,2520.201659912709 7830.935419164423,2524.6391875754343 7816.020008106658,2520.4550018716836 7800.185636693321,2520.0766417817795 7791.873050453316,2523.1392788277008 7781.123107555555,2528.951669692702 7777.43561528885,2527.7018040057155 7770.519965297775,2525.455105285975 7749.998167893325,2528.264078563603 7737.81051079114,2526.8891947344528 7720.019962595543,2516.9550878487644 7712.019910257775,2512.9550781103317 7690.310600533325,2510.3891691244207 7677.748077511147,2509.451819532551 7666.020046222198,2501.4549937120173 7659.935683982214,2499.170641264529 7654.68552220444,2505.608041533793 7649.7481855999795,2507.7643465755973 7615.091874986654,2502.5456257844344 7608.02942435554,2504.982937186258 7597.810468693322,2529.9205469180597 7587.248104391096,2533.7641870320076 7581.84182129777,2534.3267570798052 7572.122978133324,2534.3580109575996 7548.310690986633,2517.795357367024 7536.77926769777,2516.9205273849075 7511.935589546687,2520.1391508501256 7509.060452408856,2520.7642412164714 7476.997911039973,2537.764374489896 7474.310643768869,2541.139166829933 7456.519804302196,2537.4551429002895 7449.701147591113,2538.4516554674483 7447.326122951112,2540.201859760622 7444.520017066679,2543.454931802815 7448.935687111109,2576.7642896546167 7446.107444622263,2586.107949383906 7439.904243768891,2591.4047562848427 7437.019785955548,2591.4549385773134 7411.020052764448,2585.9549973480753 7404.2479994311,2590.7644058683654 7403.310688995582,2593.9829794427496 7405.748045653338,2604.482977590058 7393.019789368904,2638.9551724892226 7388.519941973325,2645.9549261961947 7371.019791075552,2649.955053558806 7365.9825484800385,2643.951698756893 7370.519969848858,2619.455177901371 7366.519943679974,2612.95515548205 7348.970276693348,2611.06871906016 7338.970356906648,2610.0687073122826 7331.519933155563,2613.9551629800117 7324.18543530663,2620.108121427067 7323.3730801777565,2627.5768132172525 7329.519774435554,2633.455014952866 7343.279421724437,2633.9829478753963 7347.560524515575,2637.639405447466 7344.122942862217,2650.32673098956 7342.029286115547,2658.8190692394273 7352.019885226677,2680.455063065223 7352.019885226677,2691.455174193252 7332.7324947910965,2694.811176186893 7330.466696817777,2698.373567713599 7332.020045653335,2705.4550311242347 7333.779323164432,2710.373555329279 7347.841892408906,2727.264394004247 7347.935681706644,2734.639377012849 7342.519786666671,2741.9550961931236 7332.123155626643,2745.0143299450865 7327.019794488908,2749.455196526251 7307.126268871129,2776.990506925853 7305.5673858844675,2779.5085457413225 7283.240872675553,2792.721938682371 7280.507002026658,2797.0627610216034 7272.497337742243,2846.200145787443 7272.545397475536,2848.7422599199926 7274.655656675575,2854.785562854435 7276.790091377799,2856.607945068681 7290.02748956444,2862.147752887453 7290.0036053333315,2865.9366515842266 7285.686967466667,2876.4642969787237 7282.761440426693,2878.5028850199305 7263.216566328891,2882.6515295693534 7262.137406862224,2884.4501087373355 7264.151837866637,2914.0668127665995 7262.617130382219,2916.177372584876 7239.283401671157,2917.1126605654717 7237.019933866686,2917.4550585429533 7217.4747684978065,2939.1783581101918 7216.013752604427,2940.4361787427915 7201.081447822216,2935.074506998353 7198.0598013155395,2936.753112422186 7194.7742631822475,2939.7027506606537 7191.6387296710745,2943.904784359096 7190.724720924452,2963.639371187368 7186.998198328889,2965.756385332672 7173.583998577786,2962.608041454223 7167.584104959969,2962.9519183142693 7153.83843868447,2968.312470721663 7148.658473244403,2967.688992190466 7143.310735644423,2965.3626554345246 7139.060507591115,2963.201792046486 7127.810452195525,2946.8892307623755 7125.0369686755585,2943.228123824636 7117.578680604463,2942.4127064461354 7114.404408035567,2943.842314173584 7110.576231822255,2961.4298489465145 7109.569016319991,2964.283576071146 7095.3721710933605,2973.9240522825858 7092.998020266648,2977.264250421198 7084.556692195532,3001.5022727975156 7082.686149119982,3004.4041830383358 7077.218407822249,3007.4736537363497 7073.966948408866,3008.1391393574886 7051.846363875549,3000.926874460827 7047.74817934219,3003.8423011392006 7049.951062755543,3029.6862897138926 7048.968605297792,3032.4859791419003 7040.044932266639,3033.7018870369066 7037.373102364421,3032.0610565117095 7033.476768711116,3018.4811112900497 7031.989829688857,3017.7856052075513 7007.170035768882,3019.4985429238295 7005.169877048931,3020.9829453409184 7002.1074525866425,3026.264364823117 7002.7479577600025,3029.451755520946 7009.999152071134,3038.673303288 7010.654220800032,3041.326712519396 7004.843070862233,3055.915775510948 7001.7949186844635,3057.4829785092734 6993.188439893362,3055.795960457239 6991.197893119999,3053.8774153072154 6987.552635164408,3029.6322357456665 6986.497651199985,3026.4667678762344 6973.883573191124,3019.5841296364088 6969.185661440017,3020.3111658063717 6958.079785244423,3048.769476645626 6957.456465066702,3056.8511730175815 6965.019902008877,3091.455180235964 6963.835302399995,3095.292955941928 6956.0653542400105,3104.693479069625 6953.091767466685,3105.4129184120684 6939.146580479981,3100.498736346548 6934.986063928867,3099.777490242268 6926.592504320026,3102.319263839978 6923.331141688861,3106.1563783098827 6921.545067235595,3110.8423190675676 6921.638565262256,3113.498752257088 6932.611913102213,3124.525827818492 6933.978848426661,3128.339098002645 6929.982317511109,3141.4986210119678 6926.832220444456,3143.3992066703504 6917.560478435596,3144.0144188171253 6912.451291875506,3142.8110165042453 6905.235632640019,3137.8634735862724 6902.360495502187,3137.394479018869 6881.826173439971,3147.701776911563 6878.568306062254,3147.647131736041 6839.02941781329,3136.1706478982815 6833.641776071105,3134.7384384471225 6807.748065564432,3132.9675388614996 6805.435664213321,3133.1705109681934 6802.795000320009,3130.467313927016 6802.263721813331,3128.7330346301314 6804.872928426659,3122.2330514028436 6805.5166375822155,3119.76971944829 6823.39165439998,3095.6445733149885 6822.64163128892,3094.5822138705407 6791.482321635529,3098.0299216032145 6788.966904319997,3098.201675968943 6772.838057813351,3090.2003391325707 6769.888355271076,3090.5600664888043 6755.279361422232,3108.8344487118884 6754.828182471101,3111.2798040237976 6757.9575992889,3117.8300344888703 6759.107537635602,3121.639138192404 6759.792316017789,3152.52734913287 6759.384827733331,3153.894368259236 6751.902655431128,3155.7408756138175 6746.957454506657,3155.8300482825143 6738.233302186651,3163.7504567111027 6734.828051626682,3165.165492026077 6720.775094328914,3150.680833149934 6719.072323413333,3151.016509107081 6701.755964586686,3180.61569885246 6698.974616746709,3184.3581034816452 6691.110296746658,3188.4991938466555 6688.232538168842,3189.4584293061052 6683.5561804799945,3203.1995181808015 6681.9903069866705,3205.7096863748156 6667.416848213354,3210.441783372895 6664.299373511109,3211.9287755434634 6651.853067662218,3225.597965035122 6647.200594204478,3227.900304075971 6625.95324046223,3221.161384937179 6622.779259164468,3222.0455209555803 6619.748000711086,3226.2953623257345 6619.498090097739,3230.35814533371 6623.560448284436,3241.607903395721 6625.4356516978005,3246.6549691791297 6622.888777102227,3257.5298113307217 6620.341902506654,3259.170404093922 6599.841950435541,3254.1705616335967 6581.873144320038,3251.1391174258897 6523.341923271131,3254.405019181373 6519.23237916443,3254.498682097532 6508.247963022208,3248.045517568593 6505.701088426693,3248.951834190404 6505.591861760011,3270.045649213367 6506.154306275537,3275.1081168265664 6500.5604445866775,3283.0142456198228 6493.935483164445,3292.795541812782 6497.373064817744,3311.170519336418 6495.841852586658,3327.920491271245 6488.310455466679,3330.2642122170073 6483.2167062755325,3330.6391227829736 6471.497995662212,3342.107865837286 6465.919862613315,3347.811249367136 6460.997963377798,3347.6392570678145 6451.341743502242,3346.3578680661158 6440.966666524415,3320.5768008037703 6435.9981639111065,3317.1704305516323 6386.827813831158,3306.636031121481 6381.062393457745,3306.9073928323924 6374.890067342203,3307.924698119983 6371.634238862258,3310.502325076144 6361.324115342228,3323.3218763391487 6356.560667591111,3327.7016675341292 6336.841904639965,3336.326692216331 6332.560510577809,3339.9205707918154 6331.411446044454,3354.2520750131225 6330.529768391105,3357.2365419991547 6309.0957098666695,3374.2615345736267 6304.822471395542,3376.7710804456146 6298.039641031122,3378.195583593333 6293.3594968177495,3378.263417003327 6285.423524124431,3373.854531657533 6282.574601386674,3372.972691184026 6248.320827448915,3380.637582160649 6245.33646364446,3382.5366082703695 6240.995359004475,3396.9842833614093 6240.995359004475,3399.4262155778124 6248.535494257812,3410.7704624091857 6248.795599360019,3416.315710603958 6233.87319779559,3433.061033984646 6233.805331626674,3438.292176275223 6243.029305173317,3453.451761377859 6245.154419199971,3460.4204013465205 6247.622941866692,3490.0141318602255 6249.076093440002,3499.3579627560102 6244.8730513066985,3505.29562335863 6240.24795733334,3512.826710150228 6242.3104480711045,3528.201624875481 6242.529192675545,3535.139205380925 6238.716745102254,3541.4204481630586 6232.6856854755315,3551.607991743367 6237.1543668622035,3572.3892168806633 6235.685486648872,3579.014292549866 6215.498068479996,3623.7642305198824 6213.998022257758,3631.701784536999 6219.029439431091,3637.9518507291214 6235.873065244465,3636.1705380809726 6242.888621226652,3638.7331425584853 6248.68549887999,3645.951649483817 6256.216896000027,3655.9204407235957 6276.591892764438,3665.9517940351507 6288.654303288902,3673.170618648175 6298.373146453348,3694.826643393142 6302.974647466675,3701.3188493766356 6300.24805859552,3706.326866931049 6297.30942435551,3712.497062265931 6281.06057415111,3722.9517990811146 6278.341849599965,3726.889272288943 6290.888643982238,3749.3892925310065 6290.68562801776,3754.483060487779 6282.779364977789,3761.5767753581167 6264.873182151117,3767.0142313072574 6248.638604231121,3785.9828993050614 6248.48248291557,3789.09239897714 6242.231513599982,3786.0839897591504 6241.564211484452,3784.396047230519 6244.979073991126,3775.328723265615 6245.243256888876,3773.7169488773216 6237.99235384888,3761.3157908056746 6237.325051733351,3756.095179298136 6241.053904497763,3746.910192004114 6239.954938595591,3746.243017269182 6230.220366791065,3756.84094047948 6228.846440960013,3756.801942529157 6209.012043377792,3739.436838535883 6207.907252053323,3738.4300656248815 6185.253350115556,3738.437565428496 6183.754468977801,3738.5485625120346 6175.761115875561,3745.9316288426053 6174.428841813293,3746.6531018153764 6156.456249173323,3751.0650203009136 6152.280003982247,3752.5928509364603 6152.723901155521,3756.811542024836 6153.11245681782,3758.9210279920953 6140.622460302198,3752.315363783331 6136.95885226666,3752.2598663394456 6129.933975608903,3760.2850508604897 6127.999061617767,3760.2850508604897 6100.488213902223,3756.090079560876 6098.156879928894,3756.090079560876 6072.344142791117,3737.549288131413 6070.7899201422115,3736.8278057384887 6053.359383039991,3739.3258415937307 6052.027108977782,3738.2710697699804 6045.381758577772,3724.1616932159523 6044.978348088858,3722.260301489965 6049.456641422177,3710.3139347812394 6048.432240924449,3708.948014105961 6032.41669887997,3714.7692836077767 6031.49453454226,3713.732174785924 6033.280900266662,3698.0010516702896 6033.3385719466605,3694.9472477713134 6026.827206257789,3687.917057691666 6026.654482488928,3686.130772679171 6032.474370560027,3677.660407177522 6032.647094328888,3675.989303169423 6002.017024284403,3653.565519447322 6000.794559431088,3653.0155666240607 6002.3429566578125,3639.650949312316 6002.383734613308,3638.775147470704 5997.4129018311505,3633.2946851423476 5996.475591395516,3631.950216063822 5987.756099413324,3633.5188130756724 5987.430167040031,3632.9484418477514 6001.405937493313,3623.0474308769917 6002.017024284403,3622.578765327926 5989.711984924448,3617.7504716379335 5989.386052551097,3617.404220603057 5997.005413546634,3615.1427830429748 5997.514555448899,3614.7761276200763 5999.30732913781,3607.5233915691497 6000.000263111142,3606.586339272035 5988.611853937793,3599.37432484451 5988.347088497772,3598.701907802839 6001.01883818669,3590.43061487074 6001.793036799994,3588.8010091253673 5992.502944711072,3578.5125905847526 5992.788099128869,3577.9421742139966 6004.62477454223,3572.8492144384654 6004.665552497783,3571.626754504221 5988.57107598224,3567.878043993376 5986.961511822185,3566.2075763039174 5983.230037617788,3554.359052981192 5983.3520802133135,3553.6460826599505 5990.209184711159,3556.8325381958275 5992.091961173341,3557.00747925241 5997.511060195568,3553.6664875446586 5997.266683733324,3552.5052085938514 5982.129906631133,3543.581900319492 5980.6630653155735,3542.522630563355 5978.116481991077,3534.2512685661786 5977.219949511113,3533.0899571273476 5964.263045404456,3531.5010278622503 5963.1425254399655,3531.582349920529 5955.339663644438,3522.272262688726 5954.178365724452,3521.783123305242 5949.391033742228,3526.163459228177 5948.250124800019,3526.3059989816393 5946.905326079985,3522.5573437653948 5946.314628266671,3521.660988448304 5933.66326755553,3522.373991633707 5932.338857813331,3522.6794784644735 5927.266080142232,3518.625315168232 5925.901183715556,3517.280924180115 5909.2160093866405,3520.010815386311 5908.625311573327,3519.888680217322 5902.9411558400025,3512.7783957403153 5901.942969742231,3511.7394850675482 5880.877660444472,3507.8278013711097 5880.185017742217,3507.6648515830166 5871.526692693355,3497.254591457953 5870.752494079992,3497.274998001405 5864.192486115557,3509.2337293517776 5863.80072647112,3509.7465847615385 5851.4147137422115,3509.547324425075 5851.048003413307,3509.995360010944 5855.682709333312,3519.86617373419 5855.642222648894,3520.9662897744565 5840.637682631088,3537.1014246803243 5840.29136127996,3537.6718746085535 5844.5899403378135,3544.61896285438 5844.966845155519,3545.026165515126 5850.986836480035,3545.413262885646 5851.048003413307,3545.8207651556004 5836.929801386665,3565.1138333817944 5836.665035946644,3565.4703127456596 5840.902448071109,3572.610963947547 5840.769919715589,3572.8249092913466 5836.675230435561,3574.973961108655 5836.328909084434,3574.9334526536404 5829.2288844800205,3569.228938402841 5828.841785173339,3569.239140616264 5824.359996586631,3576.4919762498466 5824.074550897814,3576.583495143219 5809.793528320035,3566.6213677586056 5809.049913173309,3566.2750912426854 5792.935047679988,3564.278446680808 5792.415420017729,3564.013487254968 5791.254122097802,3559.154779607721 5790.714396728901,3558.9510324164876 5779.3361820444115,3560.7133386181085 5778.21566207998,3560.601112884062 5771.031460124475,3537.2757705524564 5770.909417528892,3536.5627826816635 5781.075361848925,3508.6929650741513 5781.258571377781,3508.0207602787414 5774.088059164467,3483.653196501953 5773.374444942223,3482.06595456833 5765.5194456178,3474.567245133687 5764.303388728877,3473.175651956757 5756.484798293328,3491.300056452281 5755.290004195529,3491.445004162204 5747.849483662227,3482.8819336227607 5747.4690835911315,3482.4927006298676 5735.774257208919,3482.0581518952968 5735.104333653348,3481.8951960495906 5718.231871999975,3473.612907219911 5717.516801422229,3473.594900831522 5714.864486684441,3462.5424913487514 5714.203883804439,3462.0175965481903 5680.232351573359,3452.9838816174306 5679.290963342239,3452.838925860997 5677.190898631117,3444.3483070706716 5676.593501582218,3443.51547593117 5672.085789866629,3446.3579019765602 5671.234695680032,3446.3035805660766 5661.187298702251,3433.8482588997576 5660.789131093363,3433.323342347867 5631.660272355541,3433.4860094980104 5630.556063573342,3433.232704915572 5629.795554702228,3425.647330190288 5629.288742968871,3424.7601534502464 5620.164384142205,3416.7947199994815 5619.476401777763,3416.2151666097925 5623.549828266667,3413.9341646076646 5625.124731164484,3413.1739289801335 5625.124731164484,3406.6021928947303 5624.310045866645,3405.4073523663683 5615.312681244453,3404.882414239808 5614.570522453345,3404.9367389014224 5613.773895964434,3399.306460253487 5613.828072391101,3398.6548588647856 5607.781575395551,3397.7313306492288 5607.229034097749,3396.9413633842487 5595.652172515518,3400.3203279831214 5594.185622471094,3399.7047441717004 5585.459722524451,3389.1322843269445 5584.771740160009,3388.3357040834962 5585.767596088874,3383.1218926485744 5585.260493084439,3382.0716820189264 5575.6296137955505,3378.414991634432 5575.122510791116,3378.0710222257767 5570.940731448878,3381.5650351086515 5570.488096142246,3382.035664478317 5563.228454968892,3377.1114487212617 5562.269007928844,3377.1657755645574 5561.526849137794,3388.7159857233637 5560.874984391092,3389.7115602652775 5545.142849137774,3389.2046188099775 5544.672155022214,3389.313270591898 5541.902458026656,3394.7443372190464 5541.051655111136,3394.5996694042115 5541.321663431125,3378.5011340337223 5541.214475662215,3377.238111299579 5526.622958080028,3371.7528800428845 5525.1747581155505,3371.046625216608 5527.021125688916,3365.814674192574 5526.840246328851,3364.6200633333065 5520.865984568896,3352.689749580808 5520.250528711127,3351.4224774420145 5497.023405226704,3327.1271423303406 5496.3718317511375,3326.692796156276 5482.866464142222,3326.8557885673945 5481.25515235553,3326.548114094301 5478.5035141689,3310.8883529262384 5477.435423004441,3309.9469969192287 5472.58372010669,3313.7124132442987 5471.515337671153,3314.255731346726 5463.441302471096,3312.2640631746035 5461.630761244451,3311.4313730746508 5456.875469084422,3293.676884302986 5455.779998435581,3292.8567795426934 5441.463440782216,3290.4492921478814 5439.472020195564,3290.847638834268 5430.945349688933,3302.850163910538 5428.8272261688835,3303.5381774787093 5416.733940906648,3303.5564884761698 5415.937314417795,3303.918505801703 5405.437282133324,3298.288304413203 5404.581527608854,3297.5717682371615 5456.691968284431,3202.2129814470536 5502.059774008871,3119.1923184453044 5494.413324800029,3104.784760229988 5494.252251875587,3103.0137834480265 5516.798966044444,3075.197018236853 5492.936871537764,3045.2530546768103 5433.480864711106,3054.1116408595117 5414.013468728866,3055.549723940436 5412.243414186698,3065.4078239343944 5411.917773084482,3067.19691471837 5401.917562026647,3077.0034996938193 5305.346333866706,3076.5867121731862 5302.481391217734,3096.8045190171106 5299.191484017763,3093.2117737653316 5296.293919004442,3090.8777554329718 5282.449803093332,3089.5094098505797 5276.493600142188,3089.5094098505797 5216.689815608901,3110.0343073420227 5214.274886826694,3110.2757200864144 5189.8060745955445,3135.6298915986554 5187.471827911097,3137.2395486049354 5183.6084078933345,3148.6691759480746 5181.837770808896,3151.4863951226 5163.888479857764,3151.969191409822 5161.232378595567,3151.4863951226 5148.193044764455,3139.2518397515523 5145.697725155565,3137.320316596364 5136.8439571911,3135.790827443532 5134.107465102221,3135.388487760676 5132.175463822205,3136.7567419747356 5131.290290915524,3138.2859287261963 5139.74152220448,3152.693685451173 5137.407275520032,3154.786397065269 5126.219260871119,3156.4767749681487 5124.287550862238,3157.281729663722 5113.421390791133,3168.5500957726035 5110.7652895288775,3171.5281610004604 5083.479303111148,3178.772260610829 5081.386520177766,3180.7844302494195 5069.232650524471,3209.5192041411647 5069.071868871106,3212.819528249558 5074.705925973307,3219.580444833846 5077.281636408879,3221.431879642536 5075.993926826632,3230.9294488186133 5078.006027662195,3233.9883010898484 5087.343014399987,3241.6346218403196 5089.676969813358,3242.6006880520144 5105.372404906666,3243.00296506827 5106.821478684433,3244.1299398769625 5105.613868657791,3256.6862479326082 5106.418942008924,3260.87163312512 5117.124029155588,3264.5742759059067 5118.331347911095,3265.7816681743134 5115.1923191466485,3273.910947456141 5113.985000391083,3276.4866001473274 5117.365492906654,3285.9846115544206 5117.043638328847,3287.3528667695937 5094.8283906844445,3284.3747018224094 5092.896680675563,3284.535602908116 5080.74281102221,3301.6800589805353 5078.730418915569,3304.577701040951 5069.3133326222305,3306.2680116393603 5067.705807360006,3306.2103772492264 5051.7665783466655,3334.6805797237903 5049.834577066649,3337.497939088149 5031.483040711086,3345.8689045246574 5028.988012373331,3346.9152680715197 4985.523372088908,3328.4830090372707 4982.786880000029,3326.9536440295633 4974.013502862188,3331.702618981304 4971.518183253298,3333.7953874121886 4966.769299057778,3341.6026904456085 4966.205980728904,3345.2247568140738 4978.279459555575,3359.3910652177874 4979.889314986649,3362.6105311114225 4977.393995377759,3370.74017102801 4976.991749973327,3379.9964683275903 4985.442981262226,3403.579821627587 4987.4553733689245,3407.1214271457866 4985.67658069334,3418.419627846917 4985.193653191149,3419.8683557301993 4958.22952135111,3419.3854467727942 4956.579470506695,3420.995342073147 4950.2210221511195,3442.566497390042 4949.818485475553,3444.337202662078 4956.549760853348,3455.5627685026266 4957.516489671136,3458.6890519933077 4948.846513777738,3461.4020676047076 4946.175266417791,3472.335953018046 4942.0479547732975,3475.7706693713553 4909.433454648883,3469.1236000075005 4896.941127964412,3471.5868854862056 4892.74944540445,3475.566297472338 4892.03903516446,3486.393723648973 4871.697534577805,3504.81547479023 4867.348856888886,3513.6447536236374 4867.50468693336,3526.4020257463562 4879.885748053319,3537.45911874593 4880.781115448859,3541.0450515796547 4872.4222171021975,3549.1014797945973 4870.444777528872,3561.771980478894 4865.722399004444,3565.946218412544 4824.982308693347,3569.802362578572 4818.571140266664,3573.150778229814 4812.434057955572,3600.2612782337237 4802.382583182189,3604.787843427621 4799.233651200018,3610.391249827575 4806.221827697766,3620.2105292682536 4801.080310044403,3626.211665171664 4794.104366933345,3622.260120580904 4777.970860088884,3624.377215145272 4774.790762097808,3628.201530909282 4774.563861902221,3628.4745669277618 4779.476731733361,3641.671080016182 4778.65855118219,3644.601804283855 4772.706426026649,3640.796480854915 4765.9206829511095,3640.003489995841 4755.842993777769,3644.0056393218692 4751.681894684443,3642.540277475666 4746.472219591145,3644.426885276509 4743.26561592886,3652.8292486295686 4722.924697884475,3655.0908636829117 4716.356243057817,3658.1244405994657 4721.912530773319,3670.595840120106 4722.182247822231,3680.281662242196 4719.236914346635,3684.45008850866 4714.903091484448,3685.7776553312433 4712.0920339911245,3710.0955316552427 4707.029159537808,3716.9277970191324 4695.299671893357,3724.150593279279 4683.255902719975,3723.2127979935613 4680.800778524426,3729.0375482924283 4657.7790011733305,3725.560583816492 4656.633431893308,3726.0213801055797 4656.456339057768,3728.2080583426286 4661.594361457741,3745.8311325480463 4653.955776568851,3746.7703973508324 4654.494045582251,3758.827133203391 4654.3612259555375,3765.9769002151443 4646.249325511104,3767.801977948344 4644.595196871145,3769.8748332913965 4664.162207573303,3800.3034011695418 4668.479719253315,3808.5521048964 4665.950320924458,3832.624840329634 4664.163955199998,3837.739297403954 4654.94901105779,3840.0764997410006 4642.897960106668,3840.998840658169 4642.596494506637,3861.940601100505 4638.7805516800145,3866.2972027012147 4609.616157866665,3873.9260641230503 4605.020191004442,3876.925397112267 4602.5225412266445,3896.2668869224726 4606.416253439966,3907.7775894455262 4573.218919822248,3948.567843420664 4559.17965226667,3978.568494050938 4539.121849742252,3979.9680752135464 4530.163224177784,3984.6220298542175 4522.241523768869,3980.779573103995 4518.6376263111015,3980.285657094035 4508.761788017815,3995.5246201189584 4505.675188053341,3996.8461983070592 4500.97319850669,3995.2703202409903 4490.897839502257,3987.8497012447915 4483.104880924453,3990.772076027817 4476.211367537791,3989.4022049930645 4467.6261515377555,3995.905769881385 4457.643125475559,3996.1339798288536 4443.10374542221,3989.723980982264 4430.004118471115,3972.5469943973003 4424.911825635587,3971.9490100858384 4407.425364480005,3996.3996748909703 4400.517287537805,4000.0438254518667 4385.813048035547,4002.7691291015362 4369.446524302242,3997.4324660275015 4365.92651292443,3996.8428996126167 4358.0610278399545,4001.1554795284756 4354.4562565688975,4009.462691429595 4344.846348799998,4008.8359504778055 4330.768342186697,4004.5698988668155 4316.188766720006,4009.303157422226 4312.469525902241,4008.671018555353 4296.211646293348,3992.684133226401 4288.755979662237,3989.3260343272123 4284.932172515546,3988.7346617897856 4269.690537813352,3990.8422488590586 4264.6931993599865,3995.3986697192304 4254.962122808909,3996.9487577083637 4248.115212800039,3994.3008011102793 4234.907815537765,3984.1907928786823 4226.804070684419,3968.184756108385 4227.341174613335,3955.0711873269756 4223.590476515528,3945.6626870742766 4220.097553351079,3937.666322222387 4211.333788160002,3934.5259928548476 4208.253596160037,3917.836814916751 4205.476908657758,3916.4383093042998 4192.240384284465,3927.9093918557046 4185.155505777744,3928.87210488884 4185.244343466649,3936.2720549094956 4184.680151324486,3940.024184183392 4173.335432817752,3946.376156441227 4167.532438471098,3958.8274144961033 4145.6914742044755,3971.807161174773 4134.727738311107,3972.472921142704 4129.376796728931,3955.010607689852 4124.201491626678,3954.491481971345 4118.12965404446,3966.3047208003118 4117.989843911084,3970.897887980973 4109.664733013313,3973.0313193309703 4106.239384746645,3978.8995715698693 4099.208100124437,3977.732402664202 4097.542903182213,3977.5329761280445 4088.6920479288674,3966.668792475539 4085.306021262193,3964.48106074112 4063.4796205511084,3958.5889958849293 4056.736111786682,3956.7881080320803 4038.9342040178017,3959.1291113896878 4031.0824086755165,3959.6302398394328 4009.8589391644346,3943.921146984794 4007.6793574400363,3945.4233642739127 4006.186010453326,3943.3066435159417 4004.4881911466946,3942.8729818856227 4005.936682382191,3923.016929749225 4003.84448199108,3919.001684283139 3996.9110644622124,3916.209473571391 3989.626665244461,3910.490955286543 3982.3885781333083,3900.8467169812648 3981.604767573357,3899.5135606360855 3982.0879863466835,3890.0872180319275 3979.009541973355,3883.8775015961146 3961.8761014044867,3870.9471138671506 3958.6310499555548,3870.1603833439294 3941.001283413323,3887.3668747346965 3922.4563430399867,3894.0072531127953 3917.0017089422327,3884.883764932456 3903.607898168906,3877.3345051351935 3894.0070198044414,3880.2915332097327 3883.659031040035,3885.4761249380535 3866.1996580977575,3904.73729956249 3850.6894714311347,3912.5522905165562 3835.9476579555776,3928.4681254688185 3823.055124764447,3932.4989119180245 3822.62812131556,3932.820714032685 3794.231226879987,3919.326491745014 3793.66965617775,3919.2329184197006 3778.26432711113,3929.596688030928 3777.738000213343,3930.0294581510243 3765.069745777815,3927.4559265666758 3764.7190553600085,3927.4793196244864 3752.878884693375,3940.578109646507 3752.432074808923,3940.685775671096 3747.0971531377872,3932.6212747152895 3746.3529554488487,3932.1912053774577 3732.0189215288847,3932.626073255902 3731.3871544888825,3932.509108818602 3725.421630862227,3923.853086425399 3725.0473474844475,3923.595761414035 3718.0524717511144,3922.9641450762283 3717.5377956977463,3923.127897514787 3711.572272071091,3928.742543585715 3710.262134613353,3928.9062946731574 3698.9264455111115,3921.8976538983406 3697.9203950933297,3921.663721420511 3687.3929833244183,3930.8110229155864 3685.7085624889005,3931.957276338071 3679.6763377777534,3928.2998756193556 3679.0477747200057,3928.134624836559 3674.5482185955625,3939.0194996323553 3674.0518926221994,3939.4165751315886 3666.2769928533235,3937.663023249421 3665.4168692622334,3937.8945511310594 3665.01986673777,3946.9927565362887 3664.523540764465,3948.0517119508004 3661.1488736710744,3945.5370276190806 3660.2223402666277,3945.6362955915392 3650.495632782229,3955.8926107009174 3649.502980835561,3956.4882095221546 3648.0804127288866,3949.738959610695 3647.3854398577823,3948.878841688158 3645.2349852444604,3952.0218058251194 3644.3748616533703,3952.2203399183927 3635.3425444978056,3947.456105958787 3635.904989013332,3946.364160325029 3608.279380480002,3961.0208619132754 3606.8565211022506,3961.0871390663087 3600.415351751086,3953.8571943928255 3599.877082737803,3953.5530960310716 3593.4437777066487,3955.5651211031945 3593.16299235553,3955.4715526186046 3586.7049292799784,3932.9628707445227 3420.631171128887,3924.3719349369057 3298.844311608933,3985.194513023249 3297.281933368882,3986.0069045234122 3279.7037218133337,4026.928747014783 3279.6568271644064,4027.5224863082403 3296.6725942044286,4048.6787688992918 3297.7301996088936,4050.716608850693 3297.5318439822295,4078.0538581564324 3297.4849493333604,4079.2412498140475 3311.7097565866425,4112.552465568529 3311.6098505955306,4113.6789331896 3302.6413218133384,4115.08514123637 3302.297621902253,4115.960047084489 3302.344225279987,4133.053774039028 3302.297621902253,4134.507015508367 3297.3110604799585,4137.397598914336 3296.438120959967,4137.913291417877 3284.844365653349,4166.91319110489 3284.000553244434,4168.69435272133 3287.5942562133423,4181.538310417265 3287.406968888885,4183.413273007551 3265.634162062255,4232.949273241102 3237.389893688902,4299.018142133951 3289.9506395022618,4332.157116162416 3327.724133546697,4331.423056018597 3345.4022510933573,4367.909628903086 3285.03514823108,4539.731626498047 3284.4817331200466,4554.805700538796 3289.690825671132,4562.529593828716 3299.0484926577774,4572.010178348864 3321.592294115573,4572.495890100487 3344.0536658489145,4589.633122547355 3365.029263644479,4702.055831479724 3368.1994584177737,4825.549841241736 3406.0789751466946,4890.785262758611 3419.8354184533237,4914.476492957736 3420.4170868622023,4934.545874379342 3414.4603013689048,4945.925322421943 3413.9456253155367,4949.401083851932 3417.107664497744,4965.613794174453 3426.486303004436,4978.565551167878 3427.1908878221875,4981.317945375049 3392.1978678044397,5027.496163464501 3383.4900266666664,5032.844256731507 3366.058324480022,5057.392273250269 3359.8720173510956,5065.4949111610185 3360.753695004445,5072.081755578751 3358.8045087289065,5078.853584436234 3361.953440711077,5091.000856975734 3368.6322872888995,5099.612124780018 3366.7480544710997,5106.772333543049 3380.973444266652,5140.315440296545 3407.4258127644425,5147.29860075959 3408.161272319965,5147.447700258577 3417.4350532266544,5141.414235677221 3418.440521102224,5140.920825860521 3431.280334222247,5142.689674537163 3431.6618993777665,5142.577998877387 3448.767086648906,5155.492141390743 3468.893337884452,5189.240152863436 3461.208732159983,5197.564942669764 3457.38346865779,5206.959292982065 3466.3240354133304,5312.934255424072 3476.6548391822143,5334.153905411717 3476.1885141333332,5350.385805727041 3471.1914669511025,5375.646744604921 3457.1958900621976,5388.296039088047 3455.0107741866377,5396.059758717485 3450.12994417781,5397.6065068144235 3441.7392972799717,5395.432738184114 3406.369663715537,5415.8089821652975 3329.7968187733204,5481.437839377264 3259.503487715556,5428.697898742976 3222.237096675555,5400.910395200073 3219.749058844405,5390.734107407334 3217.612002702197,5388.465740401298 3207.1836231111083,5389.413612791512 3204.5723776000086,5389.373806366173 3201.260042524431,5381.268214918266 3198.5398616177845,5375.86373859708 3163.9144257422304,5363.631461450306 3158.571639751084,5362.39412500005 3154.072374897776,5356.301394446986 3151.8039554844145,5354.276558872545 3116.6536490666913,5344.340864647587 3112.2668148622033,5344.303450268286 3101.0001570133027,5347.996389855456 3098.750378951081,5349.571076560416 3096.200882915582,5359.713222113671 3094.2886880711303,5366.8744462155155 3053.064505173359,5381.215837454307 3049.427402808855,5382.565678318613 3005.072346737783,5370.323936473404 3002.3355633777683,5370.3990618487005 2984.0384947200073,5394.451053396857 2983.3074042311055,5396.607166654256 2975.4899788800394,5422.234015664493 2974.552668444405,5425.664687322802 2979.2392206222285,5439.98725967115 2979.1267899733502,5441.524337392417 2967.334970311087,5440.999708232062 2965.4417080889107,5440.605862018943 2964.466823679977,5441.299581877305 2963.1357147021918,5447.148589581833 2957.3429148444557,5445.161416641902 2955.449652622221,5445.5738153284765 2941.9142840888817,5458.865317613934 2940.127627093345,5461.961535661831 2922.080177777796,5469.550895079214 2918.5557973333634,5470.825756041275 2908.0388713244465,5470.3945181116 2903.033377279993,5470.057248574041 2897.0905727999634,5478.099603075592 2895.7597550933715,5478.755580437253 2880.274617742223,5476.80590146227 2878.887584711134,5477.462179251248 2874.42560255999,5488.728937077685 2872.2885464177816,5492.834711034142 2860.430025671143,5502.2904716858175 2859.9377774933237,5503.751408363809 2887.3047372800065,5520.204848061083 2888.692061582231,5523.392073596537 2883.892787484452,5545.963192002091 2882.974409671093,5547.725366968545 2877.781337031105,5552.955611220212 2875.2504823466297,5554.399090978433 2867.6582095644553,5553.8179889819 2867.0771236977307,5554.94278897671 2872.5885556621943,5568.328044931986 2873.0196369066834,5570.690105799586 2865.464646826673,5581.581997852074 2865.164928853337,5583.587948191911 2870.320136248891,5585.537640458206 2872.1761157689034,5586.606438241899 2878.002703075588,5608.862928396033 2877.7399765333394,5613.174775541003 2875.227763200004,5616.136593743227 2873.6907255466795,5616.211693735328 2870.5412110222387,5614.112182279176 2862.51756572444,5610.512749264482 2841.333709084429,5609.387735801691 2839.833954133326,5611.787363485142 2860.605370879988,5641.5199509130325 2859.630486471113,5645.906702057808 2853.8190452622366,5651.86805775197 2852.769304177782,5653.142898944265 2855.131221617805,5657.829663968179 2854.7187817244558,5658.879507177917 2843.9580617955653,5659.0670965581085 2843.2459039288806,5660.679106661817 2846.6202797510778,5681.675602303643 2846.807567075535,5683.887708648166 2837.1341622044565,5702.222144657455 2834.847101440013,5706.458948303247 2830.9102811022312,5710.958094570029 2828.0983497955604,5713.057926019654 2813.663244800002,5714.670116212685 2812.57592974219,5716.694847349892 2812.125915875542,5719.956603232538 2815.425435022218,5726.593153076887 2809.709530737775,5742.929686658434 2809.5015631644637,5745.114983361622 2810.513730275561,5750.8514683477115 2812.8007910400047,5755.650684366992 2833.759786382201,5768.360991123482 2836.2719997155364,5770.760695256584 2844.4829323377926,5789.544943841582 2846.5451318044798,5794.231732484535 2864.9164745955495,5811.158423735818 2866.4840957155684,5817.127406884218 2866.3448681244627,5828.71974825213 2865.7419369244017,5829.28836799768 2853.7066146133,5828.050924041832 2849.282206435513,5829.025744098413 2838.8701380266575,5835.395992273465 2836.159569066658,5839.673901283648 2834.097369599971,5846.947964367515 2834.922249386669,5849.79726931249 2841.1837044622516,5855.571519658144 2841.895862328878,5864.982209085312 2836.7592962844647,5881.966787917772 2836.422004337772,5884.778869378439 2805.709504568891,5904.792431130656 2805.189585635555,5905.812909279019 2821.6868900978006,5916.011332138267 2824.723973973363,5921.147725792718 2828.848081635544,5950.542974754702 2828.810798933322,5958.679037624097 2823.571122915542,5973.411347925663 2823.9739508622442,5974.9888737236615 2845.4499524266575,5972.72321665613 2848.3533428622177,5971.97108634928 2858.3555928177666,5982.412619887036 2859.5929124977556,5984.812222765002 2852.844160853303,6003.521320945118 2852.806586880004,6005.658593292639 2842.4958808177616,6009.745320664777 2840.159886506677,6011.1612859690795 2833.9473649777938,6029.654410262592 2831.4727256178157,6032.616640188324 2813.1008002844756,6040.715314858884 2805.4895948799676,6045.102072292357 2780.8032031289185,6075.227954960603 2780.419599075569,6076.242515675665 2766.945980017772,6078.416954102111 2764.99854136887,6078.8971716258675 2750.261388231127,6088.695813398226 2748.246374684444,6090.816991413303 2747.27644188446,6114.259280541737 2747.185856568918,6115.950423913484 2734.4331335111056,6125.251942261821 2734.301770239952,6125.720468504762 2745.0246249244665,6167.530829836498 2744.179647431127,6169.261914400209 2727.0936840533395,6181.31092809618 2723.0182186666643,6182.775894920051 2720.881453795533,6190.55452120374 2719.9913292800193,6191.2083669556305 2699.4468127288856,6194.192072749138 2694.755017671094,6195.786167949322 2686.0838766933302,6202.589435886301 2682.2420107377693,6206.751608273073 2681.8152985600173,6214.595454821305 2680.26777514664,6217.85052061663 2659.708986311103,6216.918068899424 2658.464093582181,6216.993406497582 2651.238531128911,6210.258434108109 2647.031411200005,6210.5035824371735 2623.223201848916,6222.238020539167 2619.582021688868,6223.954926251376 2610.2435785955167,6236.689142247196 2608.2346817422076,6239.091805609874 2595.6010885689175,6244.949703607708 2593.5854924800224,6247.442323069728 2587.340931128885,6271.741186933126 2586.468865422241,6272.225763045251 2556.986403555551,6282.588919890404 2556.4959030044265,6282.513290026225 2555.250719004427,6276.608457104885 2555.7033543111174,6275.306894435023 2566.0227985066595,6267.420942234108 2565.777548231068,6265.515506633907 2548.2704068266903,6256.479119393916 2547.4394103466766,6257.020205625333 2534.02695822221,6272.910925027565 2533.7438427022425,6274.0426964445505 2543.3088947199867,6287.965495935525 2544.289895822236,6289.5312900849385 2544.4783482311177,6304.284208951285 2544.4407742577605,6307.246236153995 2532.102821262204,6321.074552934617 2528.861847608874,6323.459904811287 2525.183093475527,6320.045082915691 2488.719154346676,6323.723249580187 2487.747765191074,6323.77047825756 2485.549833386671,6316.601549136336 2485.2480765155633,6316.42249689973 2471.8816452266765,6316.346870483016 2471.4855165155604,6316.4413287731 2465.9012667733477,6323.025281117822 2465.750388337765,6323.515802062873 2470.144213048916,6332.587242535257 2470.4602422044263,6334.01634001598 2467.7531684977585,6338.495516043971 2467.262667946692,6338.269241332717 2459.0185304177576,6324.195536218933 2458.8108541155234,6323.35588210728 2470.177417955536,6304.6506890904275 2469.9228470044327,6304.150889051496 2442.0490754844504,6303.820578434388 2439.228697315557,6302.132255445933 2428.0412652089144,6286.275642223132 2426.9565715910867,6285.313682385138 2425.7585735110915,6275.10720570205 2425.7812926577753,6274.285731127369 2145.6996525510913,6291.636348337459 1716.1793299911078,6318.244104784215 1700.739339662192,6324.542577032407 1681.4973875200376,6329.25107684976 1673.313834382221,6324.503419119283 1658.9460130133666,6316.454481192282 1638.9983109689201,6311.577906891587 1580.845451093337,6279.517384618812 1577.9711877688533,6279.6034774595755 1546.5683754666825,6277.56833569071 1428.5290100622224,6249.243174131378 1416.0494993066532,6246.755941765849 1386.9963710578158,6198.938771099027 1381.9489339733263,6187.285283780249 1284.281361351139,6133.808853026654 1187.570323057822,6033.776290454669 1174.2426308266586,6019.371737808397 1173.3883326577488,6018.223129328864 1144.3640402488527,5957.964874045807 1144.327631359978,5957.749847271538 1140.138278968865,5924.526408864476 1114.74205951998,5849.351897895976 1107.4888263111352,5835.664297046838 1097.514247111103,5821.53284722066 1066.8468943643966,5786.813861578878 1024.35626467556,5748.852558521845 998.3317734400043,5739.842738280771 889.4767687111162,5766.561357434548 874.9405926400214,5770.9476576643065 782.1748215466505,5890.005806910805 770.7278668800136,5904.658141843218 747.296562346688,5906.30400640564 614.4617895822157,5915.234918282833 488.063234560017,5955.440473698312 271.0511106844642,6062.601894799387 234.75814769777935,6166.626119780936 210.74546602665214,6235.635639020242 25.364802275551483,6417.4435505914735 17.302126648894046,6424.286331302137 10.044815644447226,6467.521269396879 8.496127146703657,6480.534625228494 5,6545.938063976704" stroke="red" stroke-width="3.8871792938938405" fill="none" stroke-linejoin="round" vector-effect="non-scaling-stroke"></polygon><polygon points="12295.500853759993,12451.853004598408 12296.041744213318,12456.776790763193 12296.111649280007,12456.842943384196 12302.908751928888,12456.917698806385 12303.101573404449,12456.89841665444 12320.84813966218,12445.595739800076 12321.520684657793,12444.278899239493 12305.289601991128,12433.290516222129 12304.415497386653,12432.515649229055 12305.338244266692,12440.036458073999 12305.349603839975,12440.078286312055 12297.582859662187,12442.124011044507 12297.460525795585,12442.172958866286 12295.500853759993,12451.853004598408" stroke="red" stroke-width="3.340819064212025" fill="none" stroke-linejoin="round" vector-effect="non-scaling-stroke"></polygon></svg>