<svg width="12166.502744177822" height="5458.168450293306" xmlns="http://www.w3.org/2000/svg"><polygon points="11978.60021504003,35.13523093436379 11984.677586773294,47.901352704153396 11985.330325333285,48.28968307888135 11982.74442040897,64.64035658171633 11982.726361599984,64.87251753895544 11999.6317368889,92.73321679141372 12001.252660622238,93.6330641185632 11987.315629226621,104.40499857999384 11984.032712533255,104.84010669053532 12004.539655111148,148.1699599827407 12005.09831310215,149.6697757569491 12013.103608320002,198.5796635323204 12013.193319822196,198.70841071684845 12029.366730808979,196.0124378411565 12031.837292373297,193.8887555967085 12059.561350542237,205.9299592532916 12061.02702677343,206.47540979634505 12058.134704640019,196.73625024658395 12057.955572906649,195.61891217139782 12068.395603342215,192.76002914248966 12068.615513031022,192.70998470595805 12072.6676767288,199.2543343268335 12099.17043512885,185.11856513714883 12106.145504426677,198.0496610677801 12107.093009351054,199.76522659591865 12114.456634311122,199.3403171703685 12115.243066311115,199.2315875372151 12122.38386887114,197.46233493788168 12122.713296497706,197.35178460576572 12121.758801066666,188.29238039295888 12122.173862399999,185.1972741323989 12130.702863075538,192.07441936037503 12132.295824782224,192.92017126164865 12160.893987555522,174.4643797496683 12161.502744177822,174.35973255662248 12159.669775075628,164.12408349040197 12159.630162204383,163.8365173942875 12148.834781013313,163.66270352492575 12147.203371519921,157.8002715711482 12125.110166471102,162.80045727425022 12123.739153351053,163.04388862056658 12119.679707875592,152.06964146986138 12119.542227911064,151.77022849977948 12103.058613191126,161.47955308214296 12099.295681706746,161.44724702299573 12081.422995057772,149.60516012099106 12076.785376426647,144.93913232680643 12091.76486712892,120.11840260517783 12092.460131271044,119.30285912193358 12108.992970808875,113.46517135179602 12109.04569088004,113.24944650859106 12109.434829084435,93.11737058288418 12109.360554951127,92.83062077919021 12093.306856391137,70.13795244158246 12093.264039537753,69.97999580408214 12137.755993031082,55.078296035993844 12141.117552924436,54.142324995831586 12148.276996835484,45.91461996920407 12150.344147911179,45.11609761219006 12146.83840881777,30.739916576072574 12145.881583217764,29.657692212145776 12109.463664924493,29.28617431683233 12099.464327679947,29.602601976133883 12108.837432035478,13.222880934132263 12108.932095146622,12.63960804179078 12101.082047431148,12.081831952324137 12098.428567608935,11.722577859298326 12085.859054079978,21.546073588891886 12085.164081208874,22.36016304930672 12066.494768071105,23.28989683149848 12065.930284657748,23.13828037964413 12056.502421333338,5.231314047938213 12055.919879111112,5 12034.711264426587,10.832863642834127 12034.426401279983,10.891145954898093 11995.045964515535,37.63060443243012 11993.692427662201,38.843452131026424 11981.795750399935,30.759949285769835 11981.559529528953,30.62245201325277 11978.60021504003,35.13523093436379" stroke="red" stroke-width="3.7809264761184216" fill="none" stroke-linejoin="round" vector-effect="non-scaling-stroke"></polygon><polygon points="11984.032712533255,104.84010669053532 12004.539655111148,148.1699599827407 12005.09831310215,149.6697757569491 12013.103608320002,198.5796635323204 12013.193319822196,198.70841071684845 12029.366730808979,196.0124378411565 12031.837292373297,193.8887555967085 12059.561350542237,205.9299592532916 12061.02702677343,206.47540979634505 12058.134704640019,196.73625024658395 12057.955572906649,195.61891217139782 12068.395603342215,192.76002914248966 12068.615513031022,192.70998470595805 12072.6676767288,199.2543343268335 12099.17043512885,185.11856513714883 12106.145504426677,198.0496610677801 12107.093009351054,199.76522659591865 12114.456634311122,199.3403171703685 12115.243066311115,199.2315875372151 12122.38386887114,197.46233493788168 12122.713296497706,197.35178460576572 12121.758801066666,188.29238039295888 12122.173862399999,185.1972741323989 12130.702863075538,192.07441936037503 12132.295824782224,192.92017126164865 12160.893987555522,174.4643797496683 12161.502744177822,174.35973255662248 12159.669775075628,164.12408349040197 12159.630162204383,163.8365173942875 12148.834781013313,163.66270352492575 12147.203371519921,157.8002715711482 12125.110166471102,162.80045727425022 12123.739153351053,163.04388862056658 12119.679707875592,152.06964146986138 12119.542227911064,151.77022849977948 12103.058613191126,161.47955308214296 12099.295681706746,161.44724702299573 12081.422995057772,149.60516012099106 12076.785376426647,144.93913232680643 12091.76486712892,120.11840260517783 12092.460131271044,119.30285912193358 12108.992970808875,113.46517135179602 12109.04569088004,113.24944650859106 12109.434829084435,93.11737058288418 12109.360554951127,92.83062077919021 12092.660234524403,70.20031569327693 12091.138925511157,68.10635730018839 12074.147042702185,77.93686163664097 12073.700232817791,78.10300589940744 12067.247995164478,69.00585146632511 12066.6852593777,67.7740533510223 12054.234001919976,69.61810624483041 12049.08898901334,71.06748168088961 12050.10261247994,76.45657892257441 11984.032712533255,104.84010669053532" stroke="red" stroke-width="3.5303207120262297" fill="none" stroke-linejoin="round" vector-effect="non-scaling-stroke"></polygon><polygon points="5,5452.958363714744 5,5452.958363714744" stroke="red" stroke-width="3.4583639155582895" fill="none" stroke-linejoin="round" vector-effect="non-scaling-stroke"></polygon></svg>