<svg width="208.36174336005934" height="176.87344595545437" xmlns="http://www.w3.org/2000/svg"><polygon points="5,51.31488624995109 17.837191679980606,60.461318999761716 21.209237333387136,62.934344731795136 20.43649507558439,70.30166227277368 19.512583111179993,76.41362724418286 39.099982791231014,101.81369642983191 44.89249137789011,105.34954151080456 40.44303388451226,113.55678863916546 55.38116408896167,123.42500359931728 62.5120634312043,112.27075771207456 62.650125937885605,112.05508443404688 109.70206122670788,120.64627768087666 110.615487431176,120.75655583594926 110.660051911138,120.59291726350784 114.0425833244808,110.0984512582072 124.21027527120896,105.77067285211524 126.85443441779353,105.98768636601744 128.72031715558842,117.1849385703681 129.40946460457053,118.41224384540692 143.92350407119375,129.6337666970212 145.13460935116746,130.92903416597983 151.7447159467265,151.29659429291496 152.00365596450865,151.78521837264998 161.35608007118572,157.3125084892381 161.52006570680533,157.79356114123948 147.23234389338177,171.1870334793348 146.92738303996157,171.78897821402643 161.89027128892485,167.49308411887614 163.0614724267507,167.23122882284224 165.4860131556634,133.23853101965506 165.44115740456618,123.51082383043831 170.9627838578308,123.56329421442933 176.9309289244702,123.62777051667217 175.17805937782396,114.71607773553114 203.36174336005934,119.607081233582 194.19602403556928,105.05248111643596 184.8243760355981,104.71406302467221 184.76612181332894,85.71112178155454 167.6804497067351,79.76930961804464 165.5987350756768,79.86404185951687 165.94214371556882,48.98273659555707 166.08078876452055,48.66291480057407 186.13975637336262,51.46612150146393 187.286782008945,51.6516069478821 195.42751829337794,36.3616565434495 196.58240824891254,35.0867418826092 189.7861794133205,15.434953980729915 189.66588444449008,15.342863386846147 181.1287281778641,20.95142190583283 177.7013410134241,27.35346603608923 168.5006691556191,23.458699993789196 164.08121258672327,33.661017361679114 149.178326186724,26.341411792323925 148.9587077689357,26.254664069856517 143.78864554676693,38.30426357709803 123.49695232009981,30.55019240116235 121.0831886222586,30.71256315644132 118.26484935113695,40.27398827113211 117.38113280001562,41.65563200879842 102.76398336002603,38.0093371613184 102.63116373342928,37.314056585892104 100.13584412448108,42.205885011702776 99.83933013339993,42.77793316304451 95.37909560895059,39.10096328309737 89.42434901336674,33.66946942184586 84.11680682667065,36.98754531063605 82.37558812450152,35.34341580281034 88.25518677337095,28.726293521234766 88.41538588446565,28.54701679374557 62.012242204509676,5 61.62834688008297,5.049829133728053 39.30445511115249,16.63212820602348 37.55566336004995,17.936511314008385 5,51.31488624995109" stroke="red" stroke-width="3.2666753092901004" fill="none" stroke-linejoin="round" vector-effect="non-scaling-stroke"></polygon></svg>