<svg width="1466.7811026490526" height="3700.0954078189097" xmlns="http://www.w3.org/2000/svg"><polygon points="1167.1612475734437,3482.5549254635116 1178.2047917512245,3504.817325941636 1178.55577344005,3505.4155923511134 1194.101495182258,3505.623820921406 1195.4387208534172,3505.9807197536575 1213.0513024000684,3555.3883722227765 1213.6478256356204,3556.799523637339 1211.1836720355786,3565.764063250681 1211.4752344178269,3566.826854476938 1251.0869404445402,3567.4245044040726 1256.3184608711163,3568.524892303394 1264.9639699911932,3580.7733865774353 1264.446381226764,3581.695991389104 1305.2482210134622,3593.885112992255 1307.6002352356445,3594.055209796352 1307.5492627911735,3606.5117571329465 1307.6118860801216,3609.404113965167 1318.2712436622242,3610.7070496482193 1320.479369955603,3610.8270034898305 1335.225261226762,3643.520936550107 1337.401638968964,3649.036579319334 1343.4032802134752,3674.7481649670517 1343.582703217864,3675.014402733592 1339.9132697600871,3686.971501973341 1339.5151021511992,3687.232803171384 1355.6034619733691,3692.0708461274626 1355.810555733391,3692.448918614362 1399.6468579556094,3692.2144690066925 1399.89094314666,3692.270844316925 1409.5465804800624,3679.2526855719043 1409.6555158756673,3678.9417079259874 1443.6404465778032,3671.136696118745 1443.8548221156234,3670.960394423222 1434.3602577067213,3657.989302880538 1434.2932653512107,3657.748104120954 1436.924899840029,3617.378711265046 1439.3354595556157,3617.33842946653 1434.6864813511493,3611.056168855808 1434.6963845689315,3607.016646675882 1447.281044195639,3604.1963224139763 1450.2237562311348,3603.01688707812 1441.118330026744,3596.1267992559588 1440.7644356267992,3595.6590371369966 1443.096643413417,3585.966961063328 1443.3500492800958,3583.5698386334116 1449.5360651378287,3583.072505196091 1449.6857784888707,3582.9292586327065 1450.7672681245022,3566.2287552448106 1450.6775566223077,3565.813755794079 1461.433616213384,3541.6197686831 1461.7811026490526,3540.108227640216 1450.803385742358,3529.7747572696535 1450.4652199823176,3529.005066886253 1458.6225587200606,3527.2628432678757 1459.4946244267048,3527.361350240244 1460.7567021511495,3504.159947499633 1461.1426363734063,3502.6633742555277 1450.1602591290139,3502.409914103104 1448.6238040179014,3502.1577970889048 1440.9278387201484,3494.3115739711793 1440.0412094579078,3492.906738624093 1429.0463075556327,3509.6078895556857 1428.1742418489885,3509.6486389009515 1410.6315653689671,3491.4920419912087 1409.9590203734115,3490.4951657684287 1420.533035520115,3465.762588860409 1421.7327812267467,3465.4589230146958 1411.0108003555797,3434.3806693226215 1409.8497937066713,3432.2788853457896 1399.4441332622664,3463.238745664188 1399.1846107023302,3464.998496713466 1383.8337493333966,3474.533334348118 1382.2649631289532,3475.762276690919 1377.1225716623012,3466.462183208321 1376.812659200048,3465.8794866625685 1378.4737783466699,3446.125114620081 1378.4863030045526,3446.020748196752 1370.4014907734236,3438.805459113093 1370.294885546784,3438.628522985615 1370.1911930311471,3420.996459092945 1370.10759822221,3420.160086866352 1358.5412224001484,3427.002387210843 1357.6545931379078,3427.9457962163724 1341.406908017816,3423.215271534922 1340.6064950044965,3423.1534515038365 1324.7986292622518,3396.6203006477444 1322.1975782400696,3395.0943207651144 1316.0153489067452,3399.078602371621 1314.5758870756254,3400.187002058723 1319.9320715378271,3406.079705669952 1319.9486739911372,3406.6612168507418 1313.9645090134582,3406.903587389039 1312.7612680534367,3407.8824749195483 1314.526370986714,3412.090521604987 1313.7949892267352,3412.9506681420607 1274.288140800083,3415.8231747740647 1273.8876430223463,3416.222778147552 1277.0225939911325,3393.8555183775024 1277.5396002134075,3392.89941801416 1259.5731242666952,3391.905230513774 1259.0660212623188,3392.1444810940884 1243.349032106693,3413.077001881029 1242.81076309341,3414.1069327369332 1244.064102684497,3424.448980689398 1244.3233339734143,3424.9963977099396 1242.5066760533955,3431.606955279829 1242.389293795568,3432.520779666491 1235.1529543112265,3434.5482019627234 1233.9960254578618,3435.868300942122 1235.144798720139,3446.343253722531 1234.648764017853,3446.9721381361014 1226.626575075672,3445.6261262077605 1226.2252034845296,3445.1683458954794 1218.54933589336,3422.105196155375 1217.4183301689336,3422.3735320820706 1209.2612827023258,3437.9010676369653 1208.4431021511555,3438.5859687058255 1193.6104120890377,3439.415103767533 1193.374191217823,3439.545901665406 1195.23337472009,3446.1291459401837 1194.9292876800755,3446.740561962477 1182.9813467023196,3453.9022893044166 1182.8505659734365,3454.3936444888823 1188.2277219556272,3461.389401869965 1188.205876622349,3461.5936411354924 1176.7930006756214,3464.860547789489 1174.977507840027,3465.89023588266 1167.1612475734437,3482.5549254635116" stroke="red" stroke-width="3.7053664882740414" fill="none" stroke-linejoin="round" vector-effect="non-scaling-stroke"></polygon><polygon points="5,52.41967258637305 18.431967288954183,71.88512179936515 19.25626453338191,71.78277000552043 41.43655964452773,67.67455663840519 42.07123939564917,67.32427906664088 40.75964558229316,63.32698060083203 38.744340764475055,60.763521290617064 62.18933504004963,43.22428096330259 62.31691178679466,42.1974411070114 40.72847957338672,29.406804447236937 39.7961207467597,28.439047690364532 51.0461761422921,21.84299035463482 52.82962915557437,20.553967137355357 31.170418062247336,6.148509926628321 30.82031018671114,5 21.35225144890137,7.4822117338189855 21.16933319112286,7.503143187961541 20.974472817848437,14.453639494604431 21.05573745793663,15.907414035871625 11.412916053435765,15.53657732292777 11.304271928966045,15.57798366213683 5,52.41967258637305" stroke="red" stroke-width="3.455612213398325" fill="none" stroke-linejoin="round" vector-effect="non-scaling-stroke"></polygon></svg>