<svg width="246.41048860445153" height="206.23693079408258" xmlns="http://www.w3.org/2000/svg"><polygon points="5,78.043577860808 5.72963413328398,79.27011977729853 7.122201315476559,80.28076356556267 8.49001045327168,80.90774717647582 9.877043484477326,81.1056469391333 10.572598897735588,81.2774597699754 12.64353649772238,80.68241109244991 13.714249102165923,80.31089840002824 14.780301368795335,79.91284838720458 16.550938453292474,79.52379315590952 17.06910975999199,79.39830582984723 18.35012010659557,79.2161466802354 19.878128355485387,79.35287850053282 20.675628657802008,79.74058471107855 20.84922623995226,80.24208302574698 20.78369023988489,80.889306507539 20.660191288916394,81.41104190400802 20.342123235575855,82.16530717205023 19.892983182216994,82.92541682976298 18.849067520000972,83.66528434772044 17.60417479102034,85.78097681957297 15.608676408883184,87.3627854110673 15.050309688900597,87.90924207889475 14.63816106657032,89.35116152314004 14.918946417747065,90.62171586079057 15.67799893335905,92.38338909635786 16.418410097714514,93.39307288307464 21.220888177747838,99.25049626454711 21.505751324351877,100.1054403083981 22.681321528856643,101.97767065931112 26.08831971557811,104.25553683494218 26.78212750214152,105.19455947028473 29.949992106645368,107.22234892804408 30.905943893361837,108.87370850954903 33.71088469331153,112.30320799490437 35.02655630221125,112.60001502442174 35.28025343990885,112.42103143956047 37.00224824878387,110.76160380244255 44.77015751111321,115.55502186354715 44.68044600891881,116.75572090735659 42.59261468448676,126.83503754471894 42.30250865779817,128.19530954794027 42.05405439995229,128.74526174832135 41.85132970660925,129.23135898681358 39.262803342193365,132.36915590887656 37.850720995571464,134.04685605724808 37.74761102220509,134.15432555647567 37.172350577660836,136.1544177447795 28.161296213278547,142.86907209386118 26.899509759969078,144.0714199995855 26.451826062169857,145.37717853748472 26.3155111821834,146.07636766775977 25.950548480032012,151.14238713443046 24.359334400040098,153.6099327794509 22.670253226649947,157.270284116501 21.838382933288813,162.42146970581962 22.073147448827513,164.92440670682117 22.74190591997467,169.4882478629006 23.439208959927782,172.2532122648554 23.778831075527705,174.67511257587466 24.13767708442174,179.18300386110786 24.102433279971592,180.87428211863153 23.398139733239077,182.52149007230764 23.31600127997808,182.67748865525937 22.037903644377366,186.03390388260596 21.124477440025657,188.7496584247565 20.470865066628903,190.5878648335347 20.463874559965916,192.56271699402714 20.523002595524304,193.5809299669927 19.936091306619346,196.38874572882196 19.757542115519755,197.05810283636674 20.046774328919128,198.4156912274193 21.317007644451223,201.0274518581573 21.46206065779552,201.23693079408258 22.689185848808847,199.27204646542668 23.87757198221516,199.7507947855047 24.430113279959187,200.08973897306714 26.83543011546135,200.42193973023677 27.77128419559449,198.52447774773464 27.847305955481716,198.2408235258772 39.396788053330965,193.6114987601759 49.57875228440389,189.673483822844 50.270229902118444,189.07108716818038 52.48738559987396,186.0891993364785 52.407286044443026,184.97429643233772 52.05688689777162,183.04073564545251 52.48971576883923,179.9225463322946 51.77085866662674,175.7824250726262 54.96610275551211,174.26374658069108 57.31141774216667,173.1334976729704 59.59818723553326,172.31660372245824 63.421120568877086,170.629305693903 68.65759260440245,167.7838434779551 71.96555861330125,165.43560120888287 73.59958954667673,164.42535023746314 74.95807800884359,163.74825018306728 77.23640063998755,162.70561991154682 77.91855758219026,161.71558864414692 78.40847559110261,161.07759609719506 80.26532892440446,160.45353957428597 81.15487089776434,159.53138939768542 82.36510236444883,158.7328788440209 82.75278421328403,158.75715792400297 83.31697635550518,159.26027380966116 84.02330879995134,160.19231653946918 84.68682439101394,161.00386040465673 85.60374584887177,162.15350493369624 87.26020465779584,163.74105654575396 88.34111175104044,165.34073582850397 90.8687624533195,164.2522538091289 91.15974229329731,164.11557497427566 93.38796629325952,162.25286774820415 93.85312625777442,162.65976025140844 95.17025422211736,163.47669021086767 95.94940444442909,163.45286125678103 96.37640789325815,164.2189833111479 97.2015789510915,164.59574892552337 98.03869212442078,163.298647397256 98.51317276444752,162.88186479068827 99.1530953955371,162.92547638423275 100.35138474660926,163.6799106191611 101.37840668438002,163.870541981305 102.74592455103993,163.2946009680163 102.82893681782298,163.49557353102136 103.15894698665943,163.50456558773294 103.02991388447117,163.2190676080063 103.32730168884154,163.07429526204942 103.880425528856,163.3013450166909 104.82443519996013,162.92547638423275 105.22405916440766,163.03787735872902 105.78009571554139,163.39621128025465 106.56419754656963,163.73970773874316 107.05236792878713,163.48613187111914 110.37926655996125,162.09370738104917 110.12265671102796,161.2129280049121 110.4925710222451,160.77276179299224 111.18521372438408,160.7520798041951 112.10679551993962,161.63106260658242 113.51188736001495,161.88823747064453 114.25113343994599,161.44807261566166 114.49580117326695,160.84200148045784 114.70376874669455,160.2602075819159 114.84183125337586,160.98677530168789 115.6780706132995,162.0312121770694 116.22478648880497,162.77800621825736 117.10267761780415,163.15747193212155 118.14135039993562,163.13364294340136 119.06264092435595,162.6683027378749 119.66295068443287,162.06583182467148 120.42287701333407,161.87474928592565 121.05959566216916,162.41922168061137 121.43271395552438,162.93132123642135 122.14428927993868,162.82431545795407 122.44983267551288,162.0289641477866 123.0431519288104,161.73537132900674 124.533294933266,161.55238142528106 125.583036017837,161.79067291610409 126.97676828445401,162.2757976220455 127.4276559643913,161.4228946196381 127.83456170663703,161.00970530806808 128.41739519999828,161.14548686530907 128.93148871103767,160.93102390354034 129.89151829329785,159.9971858765348 130.4443508621771,159.61636585614178 131.12883797334507,159.63390067685395 132.14013127109502,160.2129985811771 132.72325603547506,160.20715365651995 133.5289119288791,160.35147828795016 134.70506467553787,160.655413961038 135.77024312887806,160.47691924549872 136.46259455999825,159.08762291213498 136.86163598217536,158.90283234755043 137.98361230222508,158.70275479659904 138.59266019554343,158.49952977121575 139.07121863111388,157.69247277628165 139.6316242488101,157.81431834050454 140.4171824355144,157.8520859554992 140.31057720887475,158.4460258061299 141.63236551103182,159.45990124036325 142.32675583998207,158.83673933404498 144.551484586671,159.92030254902784 145.18354289769195,159.42887807049556 145.56947711994871,158.67083229398122 145.75822079996578,158.48154524667189 146.5260114489356,159.0188322822214 147.36691114667337,158.84213468286907 148.74899256881326,157.6601005117409 149.26250353769865,157.7572172911605 149.93766997323837,159.095266314107 151.23237006214913,159.1532662382233 151.98268444440328,160.06148010032484 153.09854407107923,159.97875186480815 153.63710435549729,159.81014802714344 154.23246250662487,160.6468713961076 154.61140622221865,161.2920589153655 155.78377244446892,161.09153393877205 156.4461229511071,160.4440977833583 156.8670097066788,160.5088414850179 157.739657955477,161.19584291812498 159.26300586666912,160.07901488535572 160.46304284443613,159.9297443627147 163.132542577805,159.78541945340112 164.76977749331854,158.95408814027905 165.91884202661458,158.70949898666004 166.22176398220472,157.95504763466306 166.70410894218367,158.00630364904646 167.1188790043816,158.6586927495664 168.14590094215237,158.97162301384378 169.23263345775194,158.84303390764399 169.67216156446375,158.40825829363894 169.82537016889546,157.7536203742493 170.9857942755334,158.20278492645593 172.06087594665587,156.96994067693595 172.550502684433,157.72979079768993 173.30955519992858,157.79048877058085 174.06511246215086,157.25544680061284 174.63163477322087,156.60260390426265 175.02601585770026,156.53740943106823 175.80749624886084,156.81797033647308 177.63260103110224,158.01664477330633 178.51311359996907,158.1515289581148 179.14575445337687,159.16810342553072 181.98768668447156,161.10187491739634 183.38374911993742,162.1962174612563 185.2269127110485,162.2524181427434 185.88431160885375,162.8985001418041 187.95495793770533,162.5801802300848 190.4791133865947,163.67136817215942 190.78349169774447,164.20639447274152 193.4259032177506,164.74591546948068 194.834199039964,165.3312942481134 199.74590378662106,167.2816463568015 201.73848945775535,166.9912077470799 203.33698531554546,167.1678987737978 204.49828323547263,166.86532092362177 206.77485824003816,167.51858283218462 209.049103075522,167.1278847878566 213.77002524433192,166.7102102736244 214.84481564443558,164.8290915049147 216.5036046222085,163.61067182861734 220.28372110216878,159.61771468853112 221.21811882662587,158.83269282238325 223.026329884422,158.09937374980655 224.910853973357,156.94925832911395 225.05794588441495,156.82516420120373 226.19069923553616,155.75462462042924 230.3902461155085,153.13602948584594 230.77355889766477,152.8631074844161 233.56626631109975,150.96388466772623 235.57516316440888,149.55879090272356 236.97967246221378,148.55656011519022 239.42984504881315,146.4765456514433 241.41048860445153,144.9055056385696 241.09591580438428,144.70991171716014 240.73007928894367,144.48239305097377 239.99636735988315,144.21980204369174 239.34450261329766,144.06557464436628 238.11883377772756,143.60648894420592 237.86105884436984,143.54263953462942 236.38897464878391,143.082653449208 236.7754914133111,142.09253349539358 238.50243783113547,138.37886932922993 239.82102215115447,135.60583312576637 240.6540575288236,135.68092634738423 240.96426126221195,134.15972151327878 241.14688824885525,132.40333057771204 241.15358748438302,131.57459335419117 240.93833813327365,129.56816393393092 240.48279011552222,126.62144034716766 240.4787123199785,124.70040524331853 239.18779875547625,121.1964513832936 238.72089116438292,119.37520066037541 238.43864945776295,117.6987372271833 236.45596700441092,112.68590910476632 235.9969237332698,111.22345660522114 235.10621667548548,110.34112352947704 234.06900024891365,108.82199128239881 232.68051086214837,107.11531593301333 230.1601419376675,104.91663077636622 228.38717468443792,103.16810041927965 225.142123235506,100.64871706196573 223.27682303998154,98.24263842671644 220.89218645333312,95.37644708150765 219.2861175466096,93.76141516363714 218.15802453330252,92.27410010446329 217.40159345779102,91.41013047494926 217.01857194665354,90.45395813521463 216.47739022225142,89.3268747489783 215.54852664889768,87.93307925231056 214.8194750577677,86.7430164454272 213.63371036446188,85.58308128127828 212.36784611549228,83.79706595954485 211.84006286214571,82.53591718082316 210.53400320000947,81.28105794300791 208.78812415990978,79.60340335778892 205.74987519998103,77.36036359809805 203.89127423998434,75.9885312889237 202.8948357688496,75.34399202716304 200.0971767466981,72.97496784868417 196.40706303995103,70.53125230246224 192.0397439999506,67.62241711799288 190.80184177774936,67.4483445743681 187.73213553766254,66.09489209251478 184.84272611548658,64.0410828187014 184.46116096002515,61.529345953371376 181.64806456887163,56.80221863137558 181.26620814215858,55.229185799951665 181.13921393768396,46.41783388424665 178.50524927990045,46.78580533701461 178.1079554844182,46.75296683399938 177.76250794669613,46.72462675208226 176.78121557331178,45.90546184615232 175.26777088001836,41.6606900600018 173.6118946132483,37.983560750144534 171.91873564443085,36.78737826552242 169.61332480004057,35.66451730602421 167.48879331548233,34.435031935572624 167.2866511644097,34.329762834415305 166.50953984004445,33.954122680588625 163.45614478213247,33.31305865442846 160.8268404621631,31.752453541150317 160.003999573295,31.195959492004476 158.60415061330423,30.026732545229606 154.9670482488582,25.559859226224944 153.91876351996325,24.03743944253074 153.60506453330163,22.715660963440314 153.76497237326112,21.615672450046986 153.74370958225336,20.76896996155847 153.79468202660792,20.48373576119775 153.65428935107775,19.37383826257428 153.81565354659688,18.897394927276764 153.62894876440987,18.178453918546438 153.4364185599843,17.95440298411995 153.08077653322835,17.857224194216542 152.8666922666598,17.34343561634887 152.39891086216085,15.553264419781044 152.28007224889006,14.963436022400856 152.25327530666254,14.803268769057468 152.20463303104043,14.42444575438276 151.92239132442046,14.172496592975222 149.78154865768738,14.062268743757159 149.8045590755064,13.046820191841107 149.6586322488729,12.972584734205157 149.83164728886914,12.236977475113235 149.976117759943,12.011570719419979 149.80164636438712,11.912139721564017 149.99679800891317,11.36234397685621 149.88815388444345,11.063150131492876 150.13660814217292,10.808497604215518 150.40282993775327,9.76423917862121 151.11382272001356,8.719525852240622 151.24693361774553,7.9704066387494095 151.01799452444538,7.882671788451262 148.87045262218453,7.291472957469523 148.16033365332987,7.133999635814689 144.52119239105377,5.650145461142529 143.04939946660306,5.404935116006527 140.8412731733406,5.411684028222226 136.00792035553604,5.765776666172314 133.71124764438719,5 132.64898190216627,5.906153767020442 131.39243832882494,8.135078109044116 130.69892181328032,9.530731335398741 129.7333580799168,10.417519914335571 129.08964892441873,10.694218811928295 128.1910775466822,10.929075162857771 127.98165361781139,11.089695165865123 127.79320120892953,11.58865123038413 126.60656270221807,12.935691951890476 125.7508081777487,13.44994078320451 124.78553571552038,14.546371047850698 123.79113614221569,14.981432335625868 123.69676430220716,14.809117575292476 123.80773859552573,12.956837815698236 121.56640739552677,13.644302231725305 118.58291740447748,14.810917207971215 117.51336988434196,14.926543575595133 115.49631743994541,15.043519605125766 112.97682232887018,14.615207069320604 110.61257472005673,14.287223479128443 108.33396081766114,13.858009643794503 106.94896668440197,13.513828130206093 105.05861717334483,13.019825482857414 104.76996750221588,12.970335174468346 103.33196202665567,12.6814915149007 101.55287807993591,12.695888715679757 98.95881756441668,12.808366814162582 97.19895751110744,13.895352180697955 96.14979896892328,15.049368404957931 94.71354111994151,16.918726810021326 94.03109290660359,17.839228117314633 92.9140681955032,19.734206895693205 92.80047246220056,20.42929827689659 91.08401180442888,22.025075773359276 87.04437276441604,25.443788587115705 84.90061738656368,27.477265300462022 84.63090033771005,27.749893707456067 84.502741048811,27.943792582431342 83.9289369599428,29.41264971293276 82.87395299552009,30.232326192897744 82.09130751993507,30.688050592551008 80.67398229322862,31.902261317707598 80.02677788434085,32.72507757827407 79.43753642670345,33.38008929655189 77.04387043556198,35.02615748683456 75.41013077332173,33.81961185799446 74.41194467560854,32.73317526257597 72.73072782217059,31.43169360299362 72.4254756977316,32.23426737607224 72.27284963557031,32.67244262294844 72.08730993780773,32.975205910683144 71.61952853330877,33.36614332575118 71.38126876438037,33.47096302034333 70.00734293332789,34.9073926639976 69.17197738669347,36.17511384875979 69.15624874655623,36.37890226859599 69.10877155547496,36.793226484558545 68.91886279103346,37.487363995052874 68.8906094932463,37.70734619477298 67.97077532438561,39.576961041544564 67.35735836438835,40.4235908104456 66.35917226667516,43.29005157126812 65.123891484458,44.192448119516484 63.869678079965524,45.260384195367806 63.69899320881814,45.41423133900389 62.317785599967465,46.58247644442599 60.402969315531664,47.38949310488533 59.473814471042715,47.67244305810891 57.92454343114514,47.83483547356445 56.869559466606006,47.95764184626751 56.52236430218909,47.87981950084213 55.926714879926294,47.99317920859903 55.271354879951105,48.625203487696126 53.12119153770618,49.85505902778823 52.97555598220788,50.30129605293041 52.68166343111079,50.563999682839494 52.253786168876104,50.70389823394362 51.81687950226478,51.402040149550885 51.059574613231234,51.45871909917332 50.66694115556311,51.9319427725859 50.011872426606715,52.32419584074523 49.389134791097604,52.90177820815006 48.44978545769118,53.52299243409652 48.111619697650895,54.20808037352981 47.23838890658226,54.47482775716344 46.89643662213348,54.82029437483288 46.76740351994522,55.65966802666662 46.45428707555402,55.80900962546002 45.16774257773068,55.580049120646436 43.18826410663314,55.51617404510034 41.873466311139055,54.91745676274877 40.58692181331571,55.859389900870156 39.369699839968234,55.43520561279729 38.58734563551843,55.28811288415454 38.098301439895295,55.74063637602376 37.811981937731616,55.90932034095749 37.24749852437526,56.53007621323923 36.6489363911096,56.76758234243607 35.80104618659243,56.46890035038814 35.07578111998737,56.437862589838915 34.48712220438756,56.45810460811481 33.995747839915566,56.251635934459046 33.69602986657992,55.86703690595459 33.29087175114546,55.91336875455454 32.00782250671182,55.175206777697895 31.530720426584594,54.066834578407 30.91526456887368,54.21392812742852 30.198737635510042,54.16579661006108 29.68755683558993,53.374099105247296 28.25974584883079,53.13209100137465 27.276705848868005,52.79831730417209 25.506360035506077,52.77672545716632 24.62992526218295,51.64539966289885 24.466522168950178,51.58962042676285 21.97964942222461,50.0192491679918 21.19583886221517,49.63328968407586 20.282703928882256,48.75250780151691 19.409764408832416,47.75521372258663 18.58255445328541,47.088099270826206 17.25231928890571,46.58337613020558 16.724536035442725,46.56088398460997 15.082640782231465,46.77860785735538 14.14037873770576,46.61891371564707 12.680527928867377,47.25678990071174 12.019633777672425,47.73766994313337 11.558842879952863,47.67019385495223 11.383497671107762,47.30087436392205 10.950377528788522,46.55503602640238 10.957659306703135,45.93515156686772 11.115528248832561,45.106986789556686 11.011835733312182,45.03006312326761 10.214044159976766,44.35844189522322 10.000251164427027,44.39442968904041 9.877917297766544,44.36833853914868 9.385669119888917,44.3004115652293 7.841932231094688,44.36968808143865 7.151910968939774,44.46865449519828 5.715070577687584,44.28646628977731 5.186704782187007,44.3170559250284 5.221948586637154,44.39442968904041 5.336126862210222,44.82988152594771 5.662350506638177,45.06785019079689 5.891580871073529,45.26578234258341 6.47470563556999,45.67739067634102 6.73801472003106,45.8222406381974 7.247156622237526,46.301774300285615 7.4361915732733905,46.49295769073069 7.864360106643289,47.170870156085584 8.536322559928522,48.465960531670135 9.796361386659555,51.137088357354514 10.707166151027195,52.68585974437883 11.628747946582735,54.33088317228248 11.943029475514777,54.74922185996547 11.712342755519785,54.81894489680417 11.840793315554038,55.073996075079776 12.430034773307852,55.760878458677325 13.16811576881446,56.70325779117411 13.685704533243552,57.43061892321566 14.212905244436115,57.89618275826797 14.654763519996777,58.632536291261204 15.170604657731019,59.21819872624474 15.287113102269359,59.41476863948628 16.3616122311214,61.63595141645055 16.556181333377026,62.867083320743404 16.67531121778302,63.91288777731825 16.563171840040013,66.72461512527661 15.554791253292933,68.48738018603763 15.162740337662399,69.11844572931295 14.729037653305568,69.46838720695814 13.142483911011368,70.85600311413873 12.687809706665576,70.77009262773208 11.144655360025354,72.05020036478527 10.118798506679013,72.77526158257388 7.833485368872061,72.7325316145434 7.953489066567272,73.39057219709503 7.39337472000625,73.4440969421994 5.006699235527776,73.53855234285584 5.000582542270422,73.76299620291684 5,78.043577860808" stroke="red" stroke-width="3.7622416641824525px" fill="none" stroke-linejoin="round" vector-effect="non-scaling-stroke"></polygon></svg>