<svg viewBox="0 0 2573.754614951103 1126.227818127648" width="2573.754614951103" height="1126.227818127648" xmlns="http://www.w3.org/2000/svg">
  <title>Timór Lorosa&#x27;e / Timor-Leste</title>
  <desc>Geojson of Timór Lorosa&#x27;e / Timor-Leste</desc>
  <metadata>
    <collboard>
      <support-module name="@collboard/map-svg-geojson-import" version="0.11.0"></support-module>
    </collboard>
  </metadata>
  <polygon points="8.052549999993062,880.9803499084155 11.51787522668019,890.4244657740128 16.36520905775251,920.6974493086236 16.439483191119507,921.1476101213557 19.43666292441776,921.4634611295551 19.990806213318137,921.769718903095 21.02044959110208,926.1835612431532 21.112199991126545,926.3407518107051 25.86283181331237,926.6374215947362 26.140995724475943,926.8780048056287 26.31430203554919,929.8616981480809 26.352895457763225,930.2085556718885 29.68649332446512,932.3472747617125 30.028736879961798,932.600409360406 31.60742630221648,938.0351144734959 31.611795368866296,938.3819830504144 37.965146480011754,943.2108852131714 38.66274079110008,944.0020574421578 55.61107856887975,968.7547325056876 57.136611013324,969.710582070089 62.884118213289184,969.9268481438412 65.39778790221317,970.1084232142093 66.39976052442216,967.5973843108295 67.12211287999526,967.5900032805002 69.42242648001411,970.0205881030779 69.52582772445749,970.134257076199 71.83487945774687,967.5745031175393 72.42179074665182,967.7413144447564 80.68588034663117,979.2877281343754 81.80508959112922,981.3596867637025 89.67450683555217,980.6503324470614 90.97867323554237,980.3934595707469 93.55132532442803,982.9939403338722 93.62559945779503,983.0736602884208 94.16590736890794,979.3866384947105 94.67708816888626,978.9991167800399 96.92060390222468,979.5999602234297 97.26430381333921,979.5962695345588 103.18147643553675,976.7205010154357 103.4516303910932,976.30050571022 101.41127625774243,972.571509189911 101.37049830221804,972.0511369321102 109.72852283556131,963.3149463709051 110.06712550218799,962.859544837127 107.1951923466986,958.6185186417206 107.2621847022383,958.5137117153572 119.51741670220508,953.4867200865483 119.92810896888841,953.3081090760897 123.23403608001536,950.7197395466574 123.40442967999843,950.5625340286424 124.4238785688649,946.6973752100967 124.66053634666605,946.3475432076157 132.23140070220688,946.5446004160403 132.94938399110106,946.1549143976372 134.19456799110048,941.0019629970557 134.56885136888013,940.650662722539 138.14493243553443,940.5429110541663 138.4565925244242,940.7133948790797 142.8191055911011,937.3332605544783 143.26766310221865,937.4328926972594 152.16017012443626,944.3422917733915 152.36697261335212,944.5585363880455 154.9403528800176,944.0101758265591 156.00713332445594,944.0677425598333 158.85430843551876,949.0731456965805 159.27519519109046,949.7277964874884 163.11269208000158,951.3190403416302 164.3950131466554,952.1043331632463 168.7313118133461,957.2434847070908 169.38157456886256,957.802206675151 174.464255457744,959.2266948938268 175.08175021331408,959.6127104259867 178.80856408001273,969.4825064434335 178.6694821244455,969.6544857805493 179.93141421332257,971.5698858029573 180.10180781330564,971.8142018302242 182.48294914668077,971.5366706511777 182.68246985776932,971.7293185918315 183.8366316355532,980.3329320916164 183.90289581331308,980.7492433363004 185.1065736800083,980.7927936653796 185.51872230222216,981.0039021457269 186.1689850577386,984.1727647979933 186.25563821333344,984.4399756104467 184.45558274665382,987.6930313866251 184.51529332445352,987.8583795568629 191.4213313688815,995.3264712137243 191.83275181331555,995.5375917491692 193.52649332443252,1000.0907514183564 193.76533563554403,1000.4044854307504 191.76139039112604,1007.7991237606984 191.76139039112604,1007.8065059570727 194.50079519112478,1015.9381257030254 194.49933883553604,1016.2149670970757 191.37909705776838,1020.3860806992816 190.92762683556066,1021.0756129946458 187.41198452442768,1033.2106551490506 187.11343163554557,1038.2059994986412 193.4696954577812,1039.5009955100613 193.84834790221066,1039.5386494272461 197.50161581335124,1038.352922885686 197.74701172445202,1037.4536644983818 200.46020212443545,1038.3056711337777 200.9051187466539,1038.6903301832863 204.85693954664748,1033.4159008739298 206.1348915466515,1032.5594809661634 216.0410220355261,1032.806808831352 217.10853065777337,1032.676131093358 225.32965776888886,1026.7750310459305 225.81316781335045,1026.5018694817918 233.15319981329958,1024.3032987603 233.7757918132993,1023.6838929272853 241.6995311199862,1025.417568634126 243.31339152890723,1025.5337725063218 244.34237954666605,1010.8000042903077 244.51787039113697,1010.2116369713112 250.35057439107914,1006.9280260946325 250.59378576886957,1006.5832789456545 248.3073075466673,997.520361696319 248.23958701328957,997.2420643113219 240.32356639110367,992.0533871537264 240.11822025777656,991.8090517156015 240.3323045244324,984.567675904349 240.26749670220306,983.9085068669301 242.48843892445439,980.5632318450444 242.5932965244283,980.2524748550568 250.006801662239,976.5269635498189 250.73723679111572,975.9462044090105 253.0572111910733,973.2262201910853 253.64703519109753,972.4681727705538 254.5769182133081,967.387025030308 254.8485285244533,966.9670450905178 258.5702451466641,965.8163478812858 258.88190523555386,965.4723944945217 256.62382594664814,963.2721371159787 256.83208479112363,962.9614011874728 261.44072194668115,960.1780803075017 261.4581982133386,960.1544616973333 260.88585048000095,957.9675354705032 260.88876319109113,957.5165719101278 262.76018007998937,955.173936033716 262.7689182133472,953.6498319034072 261.0096407022502,948.577176877392 260.3950586577703,947.7756578706685 256.71047910221387,945.8080352968609 256.69154647999676,945.7379214931352 260.02077527999063,941.049934710587 260.15985723555787,940.8086001813135 261.58562932439963,932.2609286145962 261.3533406133065,930.8380663754142 269.0297907466593,933.0343549678291 269.42446310221567,933.0122148680457 276.2161772355612,927.8853572011649 276.5773534133332,927.5562145185322 278.0686615022132,925.3850641652025 278.3111447022238,925.1437443723335 278.41673047997756,918.8038306554736 278.48736372444546,918.4924106850885 282.3183070133091,916.3729937972457 282.6306952799787,915.925055208012 291.57781563553726,915.4033221181671 292.1275898577878,915.4070118816817 294.966026835551,912.4485764683996 295.3111831022252,912.2434280553207 298.39865687998827,913.7562169601806 298.741628613323,913.8624814908035 300.2657047022076,912.0722251883199 300.7477583910804,912.0065482566497 301.7562846133369,914.5199942501858 301.8341996355739,914.54434660689 303.18132852445706,913.5495916096334 303.8337758133421,913.7274369906881 305.2289644355478,899.9554838483527 305.25663519109366,899.7407525852686 309.90095305777504,893.7822158441486 310.2461093244492,893.5770822935519 315.4649594577786,895.3133437214492 315.87710807999247,895.3509763764814 321.1782423022378,888.8428223494338 321.31878061333555,888.4281360103705 321.014402302244,884.0127270318408 320.9670707466721,883.8179313152868 316.63586932441103,877.3071165301735 316.3628026577935,876.8894973338247 315.5064655911119,864.377466584272 315.5428744800156,864.0661122833917 324.10915785774705,852.0748293928409 324.42227430225466,851.4883014418665 323.13267145777354,848.4996116703333 323.0008712800045,847.4254328839379 324.8264129688905,844.5858154387752 325.1380730577803,843.8237202222008 324.1375567911018,833.1059323529553 324.13828496888163,832.9325686810844 326.12475394664216,821.6737674755059 325.9958664800215,821.3587759052243 336.51075359110837,813.6648376516896 336.5832072799967,813.3851897683126 334.14271945777,811.9232211819108 334.0393182133266,811.7838038473346 335.0784279022482,809.5339576840124 335.1483329689072,809.1879994524425 330.72188589331927,789.7766404205831 330.66516084445175,753.7814210675788 338.74939053331036,690.5205988009475 344.6543297688768,646.235643223954 313.0503219466773,642.382717532666 309.83782004445675,642.382717532666 285.4777975733159,643.0458163573712 282.2774562400009,643.327495632584 259.5615135555563,647.3398172511443 257.3534600799612,647.8857134914506 215.63979607998044,664.1722905503484 214.94038132441347,664.5582386960523 187.55856671111542,667.6882361165262 185.96997407107847,667.9521735103408 162.69085869329865,674.0998506669202 161.1685302311089,674.6385026153366 141.76565079999273,683.3103148854061 139.7267530222307,684.3698881841046 121.90423782225116,695.5246030250055 121.36094438223517,695.913398494049 73.38262132444652,711.0536387692919 68.12779920888715,712.9628575205352 47.08586441774969,722.9889152600153 46.715294746652944,723.199814159314 48.11536215999513,778.964818634653 49.30221911999979,815.6101359284439 44.73836489775567,831.4481377465781 36.39905453333631,849.3596956627225 34.14439768000739,854.2839490190163 24.656750959984493,865.4770962374532 18.59430687109125,872.7075873751091 8.052549999993062,880.9803499084155" stroke="#009edd" stroke-width="5.558268950640259px" fill="none" stroke-linejoin="round" vector-effect="non-scaling-stroke"></polygon>
  <polygon points="663.4208512266632,687.8743771216032 670.6829682044336,694.6437138981782 671.007735493331,694.8774474823513 669.4246770044556,701.8298253607136 669.4516195822216,701.8983988779437 674.0078279377776,703.5080382492233 674.4010439377744,703.7137601553477 675.1903886488872,706.1153355729257 675.447435404436,706.4036440624404 678.5319964711089,703.3885868930738 678.8851626933028,703.5264721052736 680.7267242933449,710.1398849946054 681.25465318223,710.4967736019826 686.8223004710744,710.98196590937 687.3793564710941,710.9274001648082 690.2964366488741,709.023505139754 690.9073778044549,709.1068279123647 692.2887310488732,709.9584913824874 692.4627655377844,710.4525311865509 691.772453004407,712.6329536833291 691.8649315822113,713.2361308805193 697.6495758488891,713.7906421805747 698.6253340710828,714.1755562922117 698.612955048884,716.6856229539044 698.7884458932967,716.9739429453402 701.0727395822178,716.5919743285995 701.7528576266486,716.3729694050053 704.6801322933461,712.3158806462961 705.034026693349,712.2060112406107 708.1884928266809,714.4174183190116 709.7744640266465,715.0773783267432 713.9614862488816,715.0766409403659 715.0340921155876,714.7440798826647 717.0992042933067,712.8718647805581 718.0917106044362,711.4575732127196 718.640756648907,706.5503791940937 719.3856825155672,705.4694077163076 728.6568419822142,705.5084877816334 729.1927808266482,705.2172308294175 728.2592569155386,700.0189010393588 728.7150962044543,699.1871777231063 733.8640412710956,699.8515238859181 734.7298446488858,699.6848841816318 736.0973625155457,696.690548738472 736.4709177155455,695.7755172365942 739.9792782488803,693.5296112176511 740.3542898044398,692.1567128181705 748.9278549599985,690.9489809929582 751.4830307822267,690.8236367345162 754.499871315551,687.6627690022942 755.4486869599787,687.1215838465214 761.0075961155526,688.367638513424 761.9564117600094,688.1184271128805 768.7663303377631,684.041125827418 769.1377010044525,683.916522124935 771.9914297155628,679.9240734302512 772.6140217155626,678.2607551354231 775.7073209155351,677.0958486864765 777.110519493348,676.4300848206694 780.749952026672,671.3974651689714 781.9893106044619,670.3992099820534 786.6678528266784,662.0409968881941 787.4047687377897,660.7287141227935 788.7606357599725,648.7194145721223 789.0934130044479,647.7787457541635 794.6284379289136,642.4819426664108 795.8734762933163,642.3036175824018 806.8893497155514,655.2046641820707 807.7668039377895,656.1460963538048 810.8943274932972,662.349163102168 811.7979961155506,663.4299593825781 815.5029646489129,664.676640474041 816.4903737155546,665.0504247630088 820.0365994933236,664.1760505009515 821.2708608266839,664.9243554472414 829.8575331822212,673.9041785753288 830.7211520266719,674.6517735503221 848.3226652711164,687.0810318696676 849.0610375377582,688.2039552595306 847.8508060711029,693.775878383407 847.6017692711321,694.3583674984766 851.1676558488689,701.4685243260537 851.2892615377496,702.1756425260755 850.7758962044318,709.0788078620171 850.4846250933188,710.0772083259726 847.5500686488813,713.1970496757785 847.341809804464,714.2367591622533 849.7549909600057,720.5989852857965 850.0826709599933,721.430775804889 845.6968562044203,728.0026028038774 844.95265851554,728.7931208282025 843.1067278488772,740.8547135217013 842.9392469599843,741.8119361561621 839.9639125600224,744.9734503899599 839.468751671142,745.3893837054566 844.1844309599837,753.5820763825977 844.3067648266442,754.081360247139 839.937698159978,754.4567456373261 838.7828082044434,754.9560311605237 837.6621426044148,757.9923270297659 837.6614144266641,758.2836421744214 842.2780615377706,772.7583549788178 842.400395404431,773.1743322207258 847.834786160005,774.8367726719371 848.3292188711057,774.8367726719371 853.3747626933327,782.9470369117407 853.0019356711127,783.6956779838438 849.0843392266543,784.8197499731104 848.0532394933107,785.2357463408043 840.8122396710969,796.2200596567782 840.4408690044365,796.5527236626731 838.3437170044344,795.0140639790989 837.8907904266671,794.8060579470548 827.1363328266598,794.7256584967035 826.4758755822259,795.349676897029 821.5766954933351,793.6450627762024 821.165275048872,793.5624508636902 812.2982542488899,796.3513549345153 811.3508949599927,796.2687421678056 808.7877091822156,799.4309119472236 808.5394005599956,799.8056245919506 798.760701182211,804.7580779865457 798.1417500711104,805.0494450869228 790.8708949599823,811.8321204284221 790.581080204458,812.414870736342 789.0169543377706,811.7915492528773 788.6470400266699,811.4581281945357 784.8452238489117,815.3286417913696 784.5568654488889,815.4119982521006 771.271990071109,806.512186603919 771.1074218933354,806.386787363248 767.5895950488921,797.069054442989 767.3842489155359,796.9030908667846 762.6030336266558,797.5278520770444 762.2316629599954,797.4865455046893 762.1937977155612,796.363156760468 762.194525893341,796.0717993380458 751.574781182193,792.1639531584296 751.1626325599791,792.0813417132958 744.1473678488692,795.9095244586133 743.6929849155713,796.2429256835676 739.8613134488987,796.160312951055 739.1615346044418,796.0356562880115 737.6432839377376,793.5403226772978 737.1910855377791,793.2076625002446 723.8843648266629,792.5452938277813 723.0200178044033,792.2126349150858 722.7651555822231,794.8333495092302 722.7636992266634,795.3740180704699 717.6788338044425,801.573714924838 717.4297970044718,802.0317828307816 712.3529415377707,805.3607287783889 711.8963740711042,806.0246051884387 709.3521209155442,805.1187831282805 708.0494108710845,805.0383805075617 701.2606094488583,808.7265995817215 700.6584064266353,808.5097308593176 700.2222279377747,845.5946912957661 700.0656697155209,845.7518328239166 702.6958478488959,848.7456553075826 702.9419719377765,849.0326450321081 702.1329664266377,853.9624255128219 702.0943730044237,854.0775187827021 707.2789987821889,859.3106276197141 707.733381715545,859.8079001876831 711.0320270488737,860.6275904342838 711.1827598488599,860.8762278620925 709.3834325600183,867.393269611588 709.2487196710717,868.1768307874518 711.4521856266656,874.4439299048172 711.6036466044316,874.6542131167153 709.0455580711132,881.1339711948021 708.9501667821896,881.2675229156521 710.3293354932975,883.655970594591 710.5747314044565,884.0573677375578 717.3824654488999,884.8564745681724 717.5907242933172,884.9907660787067 734.1050681155757,903.4255215915691 734.5397902488767,904.1132624252132 738.403501537774,906.4436253829699 738.5738951377571,906.5004457690884 744.0607146933326,904.7013856030899 744.4211626933247,904.8349495231887 750.3274126488832,910.0384619125471 750.4131191733468,910.1217750489086 749.4967802577594,931.7386457443718 749.5744040088903,932.2001911285406 751.3131469066429,935.7125831357625 751.5735432799847,935.965204447486 755.7098843288841,937.9320872163589 755.8363688088721,938.0039701263377 756.0206706044264,941.2789444144364 756.1232708533353,941.4727504016846 760.9401668533392,942.533372131009 761.7836879911192,943.2088187217378 762.2757905333128,947.2092821410115 762.4363537333265,947.4618409837203 770.5167968977767,954.0119257473343 770.7303714400041,954.4078972824864 769.0969958666828,964.1569615884582 769.0854906577733,964.5815130909687 772.1484248444613,971.6922652218273 772.4510555288871,972.2003102041563 769.7217723999929,974.3366493211433 769.6441486489202,974.7253449462951 771.9256752622314,978.1867255511534 772.0613347822218,978.3568654224291 770.0731909955502,981.7615320624973 770.0083831733209,982.0772364642835 771.5833588888636,982.6188139937658 771.8014481333084,982.7491707034133 770.58459024888,984.9749885991987 770.5901972177671,985.3087079491015 772.4010297155764,985.8866834385917 772.4474874577718,986.2128009668158 770.3759673155437,988.1009396116497 770.3121789422003,988.2197099723344 771.7163241511153,989.9654708919188 771.8692414844118,990.1994702002339 771.1050917244283,992.8155528302959 770.3387574311055,993.9785519275247 776.4575624800054,1000.1330501225966 776.7044875644497,1000.5592856261719 774.912077964429,1002.7733742804339 774.7172904088802,1003.0220756719718 776.65409766222,1004.3565336913816 776.8563126311055,1004.6222154717034 776.7671108533104,1008.8268013852139 776.8188114755321,1008.9286761268231 823.2665776622016,1040.457185250947 848.0201802222,1056.538416156698 870.3922773600207,1094.9440658512249 885.8941627999884,1118.1752681276485 893.0488735555264,1116.9322290862692 896.19846089778,1116.2651810367606 922.9104975911032,1107.543721055823 924.772739439999,1106.731211640239 950.7402143555519,1092.1066405595993 953.3555376621953,1090.2189061436293 986.6007853777555,1058.5930641653613 987.9070634933305,1057.4093155116498 1012.9934432977752,1039.2909458201102 1016.148928879993,1036.378766983551 1041.1364221422118,1008.4126588349536 1041.6398842577764,1007.6711165095112 1077.1555174666573,999.7804134964026 1085.6319437066268,997.0542691128285 1125.3199627644499,978.6533740942614 1129.1828730577836,976.4204515747915 1148.6235449155502,972.5663423679725 1151.7212859999854,971.6938152630828 1172.7730511910922,963.7136632588881 1174.3749694844591,962.939701352916 1202.3506858933251,964.8515081375735 1205.7706456444284,964.8115771955418 1236.8904880622285,962.1110495256798 1240.0518718844396,961.5137900732589 1276.8748754755652,949.6451347394395 1279.8594577333133,948.4382762583336 1319.453032133315,927.4382103276512 1320.3103158310987,927.0482581527394 1339.2130827644141,924.108949959751 1342.2720119733422,923.3948099341142 1364.2432472444198,916.1933016994517 1367.2070764355303,914.8386413301123 1408.0075326844235,914.6610903610199 1411.2080196533352,914.3436242204989 1446.6833846311201,906.4341799173926 1450.6309820000024,905.0506443315608 1469.8154080977547,896.5365554005039 1474.090612648899,894.3239020220135 1507.2299833155412,875.2316443173695 1512.192369235563,871.9270375816923 1538.245040951093,851.8759999578251 1542.9678563822235,847.436868142926 1573.7898740888922,829.8512146638896 1578.4247256444069,826.3801704661528 1608.2214690399996,798.5285795471355 1608.611481057771,798.368073431433 1640.822497875546,802.5043091154439 1644.0187614133465,802.6817095411898 1679.3672778221953,801.9535940493006 1682.5587353866722,801.566117347953 1713.7208121155272,793.8863339662857 1716.7290601510904,792.7459957842148 1745.1814417333226,777.8280119189658 1745.7398084533343,777.4432261252441 1781.4043540177809,779.6324634656266 1787.5102703199955,779.1971517624115 1838.079085822188,768.5250127117106 1841.111072453321,767.4510889846497 1864.3832701421925,756.5211536005445 1867.1485980711004,754.8723251758565 1890.935107724421,736.8567610255341 1895.08222580445,733.0479477325935 1921.994074479997,703.6424579569211 1923.8646175555477,701.0124009060746 1944.0818181955547,663.5566915114541 1947.062322657759,658.7880956509107 1979.0269969333021,640.2265334962649 1982.0271621955326,637.9350218484251 1999.8127587822091,636.2904679548301 2002.9938034044462,635.7084004668941 2039.5821152977587,639.3182565807729 2042.7945443821955,639.2830195382485 2074.5831452711136,635.0680982037811 2077.6950130044133,634.2648844494324 2120.8550565244514,620.0605763377171 2125.415051404445,617.9295600444093 2151.5880909066764,603.4497110934244 2154.2777611644415,601.6819822016478 2174.2878680444555,585.5053284135138 2175.515357324446,584.2954977401896 2207.9868433333177,581.4990149635778 2211.1300227110914,580.8333409106199 2244.37854722669,569.0574015613893 2247.243052968872,567.5952285954627 2257.9677280977776,561.3817448288391 2262.2303351733135,558.5712755997156 2278.628825911088,545.5405885927976 2282.9850766488817,541.3752515266897 2334.0411887200025,481.39184648558876 2334.3580188711057,480.9299063302824 2344.88783362665,470.85170022506645 2347.6419476177543,468.150680638013 2385.251820115547,443.57072734242684 2387.056171831122,442.3464980480858 2425.572334391094,410.11583690637053 2427.5282199022186,408.0264536954419 2446.9846932177898,404.17453759304044 2450.0758807022066,403.30387363641785 2470.7204488799907,395.5182513660184 2474.045308613335,393.9567634593768 2495.514028399979,381.91737538652524 2498.2015141244337,380.15107564212667 2516.4980730577954,365.5988058898438 2519.1407030310947,363.0681914864472 2536.13076539553,343.5067984939451 2537.998978302232,340.88021336810925 2551.34662260444,317.3477875253957 2552.61627337776,314.5399476983948 2561.50535796443,288.33172341303 2562.232370657759,285.1860223516196 2565.668714408879,256.3731967700369 2565.702064951096,253.1440032753817 2565.507350213331,243.46304699406755 2565.280959742231,241.2512349229728 2559.711055102205,234.71777762179408 2547.5973080444383,220.14753705033945 2520.146607813338,193.9595677910329 2491.424873271084,172.3285949785859 2430.9682045422087,141.86246468994796 2430.4886266577523,141.59019667012763 2398.796290871105,130.6110916167454 2385.57374751108,128.20353522321238 2367.285708257754,116.36273074025667 2336.907442088879,103.28890072304785 2313.960302960011,98.69653046108579 2304.1740305333224,96.04394114035676 2276.334920275549,94.55281291632127 2275.42185816,94.50248829945485 2252.4016828000313,96.75283118920197 2246.1175813955488,97.63138636426447 2218.287864631129,89.34646828144469 2193.3589168622275,80.20608676295524 2191.8942600800074,80.06851015866414 2147.5025766666513,75.7860108928071 2124.6811210222077,76.29099088238581 2100.7872779644385,76.00186324673268 2052.8640051466355,82.7378021192053 2038.3189453066734,87.46426408485422 2001.6543932000059,91.88370727466099 1999.3159959022014,92.42020452427823 1986.2103250755754,91.00443367622938 1958.5890127910825,87.73074279109278 1922.7887348888617,89.31954067623155 1921.3261898221972,89.37729524236784 1888.2163831733342,106.5549671029512 1885.4935080088617,108.17653594818694 1855.3208064266946,120.44524538514816 1853.185497911123,121.53394526660122 1840.1461640800117,117.74683834703319 1838.8652993688593,117.40145465051319 1830.736650835548,112.71850721457304 1820.0841381244536,107.55657303726912 1785.4576828000136,94.11960948090564 1782.36962647998,93.2507030345514 1760.3802595821908,89.0965419426575 1757.206132648891,88.78076837570552 1734.3358162755321,88.52841462894139 1731.13882456001,88.77451470879168 1683.820084933308,97.00798788382235 1680.6821484355605,97.67185249840986 1653.9254744444625,105.4477083708407 1649.2767875111022,107.2401172822938 1624.614644079993,119.9587311853902 1621.928541893314,121.72187076049886 1594.3504833688785,144.71783578478062 1593.503466977767,145.01755461746507 1556.119402408891,151.7866617030304 1554.2817001511285,152.2604985112048 1525.5342609333165,153.57037911602674 1491.8748985155544,159.0692196730015 1490.1697246133117,159.54895566704363 1455.0220396355144,144.3142865382324 1451.9965337866452,143.2438976995545 1420.4009000089136,135.49933363873424 1417.2261905333144,135.04333166077413 1344.1180882755725,132.85957999469974 1332.405931262212,132.389380538174 1310.044683973334,134.11057916380378 1308.4973061955243,134.36760824823432 1314.0455839555361,120.31942266916303 1314.7653148711252,118.04697078472964 1299.6439023200073,98.42165419262165 1284.6866938577732,76.75852485185169 1256.9890685422288,51.79443157555215 1227.8669818577764,38.014589781589166 1207.9200079910806,24.186110007671232 1191.564916648873,8.052550000000338 1174.9239427110879,16.91743288219004 1174.1388214311155,17.311685566797678 1162.2840143911308,18.698561830511608 1156.5159725777921,16.9006624438407 1146.8939770577708,21.077192987089802 1145.3176178044232,29.862582978334103 1142.2537369866914,35.37821774310578 1141.6065325777745,35.96919261525181 1123.871180257789,47.12114175383613 1115.3342424444563,48.08370332254708 1109.548069004435,58.14102354544593 1100.10112742224,67.8050296512738 1089.801271208882,71.1951765376507 1079.2066486311087,72.73981704063044 1074.4433465155598,78.62646110103378 1061.7385375555605,93.85444927155186 1046.1700966666685,101.49004145921936 1045.047100897762,101.98925340592541 1027.8916693600186,126.96794021331152 1016.0738537511206,143.34220906260452 996.3273472266446,206.2254453843998 994.1972087733157,222.0400275570646 961.467074017768,231.3664180509586 960.5135980355844,231.61050528800843 937.5538614311081,242.16556431237404 936.8910740177671,242.389638398432 920.3475302666484,246.84023972534487 873.0697142310964,265.54051953971066 859.4591249333171,270.6289502113432 764.231457591115,301.6328887425843 746.511906728847,307.25393492155854 711.7954486311064,323.20028049965185 710.3682930044597,324.0673077626634 705.3295212355442,358.8564922029982 704.2075449155527,364.3992227273775 703.4206031911017,388.2252698575976 700.7581667821796,405.922502609792 703.8839427111088,454.29524951216445 705.8404107644456,477.1318594338736 701.9079594933428,485.04260089994204 700.9239000444359,486.9130861715312 691.1171658222156,524.5345989549896 688.0825577511278,531.1973268070215 685.617457520013,565.077936509515 684.0220200088806,572.9152472417409 686.1379589955613,587.3132670222622 686.450638533337,597.2998954649738 678.3613115999906,611.8788484653123 670.3908232800022,616.1570921934108 678.8523946932983,641.8001207767302 678.8662300710857,642.0035835007511 670.4489318666747,651.7344426163545 670.3252144621802,651.7979902014849 670.1899918488925,655.7096606667401 670.1580248444516,655.883276466986 665.0854656266747,664.5048620711095 664.9631317599851,664.6139745202454 667.9938076710969,669.7880201357548 668.1824057155754,670.1448545681851 667.7476835822163,681.0617124507917 667.814675937756,681.2128573398586 664.5422450044425,680.9356355602285 664.1621362044243,680.9348982686424 663.4208512266632,687.8743771216032" stroke="#009edd" stroke-width="5.515295620997322px" fill="none" stroke-linejoin="round" vector-effect="non-scaling-stroke"></polygon>
</svg>