<svg viewBox="0 0 84.1557891377736 64.04840283658929" width="84.1557891377736" height="64.04840283658929" xmlns="http://www.w3.org/2000/svg">
  <title>Rájec-Jestřebí, okres Blansko, Jihomoravský kraj, Jihovýchod, 67902, Česko</title>
  <desc>Geojson of Rájec-Jestřebí, okres Blansko, Jihomoravský kraj, Jihovýchod, 67902, Česko</desc>
  <metadata>
    <collboard>
      <support-module name="@collboard/map-svg-geojson-import" version="0.11.1"></support-module>
    </collboard>
  </metadata>
  <polygon points="8.05255000000011,46.773369146765276 12.766991386662767,49.02805117582432 12.900393555529945,49.12518350249559 12.381566888892621,53.34423120762915 12.456350746658927,53.3873107315809 26.48578790220904,48.68573668790452 28.78566459555418,48.08581393381576 32.58959248886799,49.37774912885618 32.71316425776581,49.47667128199066 33.267671635526995,52.27405785496342 34.012233413326385,55.99585283658928 48.701982177771924,50.55159894334031 50.68684916443431,49.87593897685986 63.22643458666403,50.675584666350574 64.12347679111531,51.035790698726146 67.63096351110266,48.191788453833965 67.92718623110682,48.297427053904926 67.69963067555341,40.956291954301946 67.85262082666281,40.7059260256425 74.56438103999949,38.615991935111765 74.89570192885708,38.851929138567016 75.94959362666827,33.881028426672515 76.1032391377737,33.201917271151274 69.44521844443057,33.73025237136574 69.21737161777105,33.76976536426048 59.623775031104515,30.193444545620537 59.36476219553856,30.313670198643763 60.644024915563705,28.378385814990565 61.01765293331823,28.021837379775775 59.12140518220963,27.144617626261265 59.08004468444392,27.095024513815247 66.55719256000134,16.964552641562136 66.70326502223156,16.67544783201413 63.7878596533335,17.164417005616656 63.62489346665802,17.064876805415793 63.55025524443022,14.41607827629889 63.49120002665563,14.186866547482737 58.16421549331403,11.194709129231 58.03853200886056,11.171305137256809 58.782219973341626,9.357633395127436 58.848192879995395,9.32303015981563 54.21829293334281,8.262077663377227 54.051613040013535,8.280779452302909 42.94748447111465,17.231486172625978 42.86046722665901,17.318821526110355 37.95480635556282,15.860974744202053 37.89677058664506,15.916624444660215 37.44391682666151,19.78150935521228 37.43976621330489,19.90310135627044 45.18794185776619,24.08632925130189 44.988785235538444,24.471451442215425 30.622201768892182,26.744065203565356 30.204082088872156,26.837990418956565 29.84130392000202,33.053378076808826 29.61302018666879,33.11807718747116 23.929592631124024,27.54796581474477 23.710993662221654,27.476431339578653 19.334353946680267,31.237294442682128 19.22243302223046,31.37744307399373 19.058884293313668,34.12918677926757 18.608579155559482,34.65325950837689 15.026599848882825,35.83772157200258 14.949048915535741,35.90331284702518 15.581616951101523,39.7213512254599 13.013552382217085,43.98129819959979 8.05255000000011,46.773369146765276" stroke="#009edd" stroke-width="5.7546665676711175px" fill="none" stroke-linejoin="round" vector-effect="non-scaling-stroke"></polygon>
</svg>