<svg width="1813.9611209955765" height="1554.5228047706769" xmlns="http://www.w3.org/2000/svg"><polygon points="5,843.8520762107219 22.77307192888111,857.1689912273432 24.58594332449138,857.9361318823067 33.978271573316306,878.3147126312251 35.591330986702815,881.5783843488316 28.87112391111441,909.6395360337337 29.065984284505248,910.7789843606297 46.67361422220711,929.7739397469559 46.950030506704934,931.3630689522251 53.33877105778083,924.283964486327 53.722957653342746,924.1128294966766 57.27646520896815,936.6396446147119 57.37462357338518,938.1971524131368 49.649822435574606,936.7059899169835 49.694095644401386,937.3113326663733 59.15778531553224,947.6398753760732 61.69941703113727,947.595494901354 61.6743677156046,954.88337893266 62.83450055110734,958.2136072243447 58.354750862228684,959.0718910293654 59.56119580450468,961.578096858866 58.42552974226419,962.1174900463084 55.18688625772484,963.6029874901869 51.69745834672358,953.2884746972704 50.816654506721534,953.6531167767243 48.9379558400251,965.849742969207 47.52179569774307,965.8749050344923 52.02892487111967,979.8439745517098 51.76474197336938,980.8490174218896 40.43837354669813,978.383749192988 38.186265315511264,978.8668323570746 30.93710990215186,987.3023153158138 29.90164110227488,988.3324830061756 35.12354958220385,994.4392822586815 36.75262890662998,996.3220629173447 31.02798648888711,998.0817801781814 31.44304782222025,999.4796633915976 39.43465329776518,1009.0569332388113 39.506888533360325,1009.109076923749 37.24691598222125,1010.2489164426806 35.82988202665001,1011.0356400570599 39.75709041778464,1019.1986435874132 40.21030826668721,1020.4504873015103 49.88633457780816,1020.7843720527017 52.01873038220219,1022.1683874604641 50.804712391109206,1025.2624943283154 50.117895111092366,1027.0681699613924 57.21646336000413,1033.967376959161 59.50614556449,1035.397957288078 59.99315086228307,1045.7149604639853 58.74214144004509,1051.6239547451842 62.52983096893877,1057.109786322224 62.46749895112589,1057.707018347748 81.84489216003567,1073.3391864222358 82.93511992890853,1074.1188218270545 81.95237120008096,1076.072699277429 79.55404487112537,1081.1317561405594 86.3913429332897,1090.43747825647 89.28220871114172,1092.7094366303645 87.31350727111567,1097.3684998736135 86.46445198229048,1099.493164025189 89.57347982225474,1103.8023230730905 90.15340060449671,1104.6170531059033 124.41940792894457,1121.7704775882303 126.01178709336091,1122.339644418622 161.60977720888332,1059.5924498342793 165.1629934933735,1058.0998369823792 169.17991338658612,1066.004989007779 169.9459564088611,1067.429870300577 177.85309326217975,1065.398634239391 179.82062961778138,1064.8979101299192 184.02134158229455,1073.8426345913322 184.23688220442273,1074.7512161076884 198.9239367111586,1079.1468311657081 199.7625062399311,1080.3055064674118 222.40126208006404,1079.0402912549325 224.30821404443122,1079.1431731439661 224.92366990225855,1072.2787863124977 224.93182549334597,1071.0542212066357 266.65379072004,1060.96890048153 268.73113628441934,1060.5276141008944 266.5023297423031,1076.4517668362823 266.04124757333193,1080.0476171577466 297.62377415108494,1088.4270335452165 297.7670795378508,1088.4590398615692 310.96632120897993,1113.6492868395871 311.1672982756281,1113.945082007791 315.87802595552057,1158.7106453010929 315.79909148439765,1161.725555190642 308.30788977781776,1158.8582836184069 306.18714481778443,1158.1159772511455 304.524569315603,1163.9135782747762 303.6784267377807,1167.0079454384395 308.15147719113156,1168.797813261277 310.5917465600651,1169.9624077716726 308.8522754844744,1186.940186493157 308.88460657780524,1189.0671710952884 316.40959573327564,1191.1849944841233 316.4556165689137,1192.4797174858977 307.00357774225995,1193.2479557493352 304.03115605330095,1193.375462014752 304.5056366933277,1203.6552362900693 304.51961770665366,1203.7516611328465 287.8321132089477,1208.2333125007572 286.13604152889457,1208.7807741101715 283.1694452621741,1228.8695560122724 283.20381525333505,1229.7043777172803 292.7499346488621,1246.3786618729937 293.0589732977096,1246.8478974022437 292.14496455108747,1258.4843392199255 292.6928455111338,1259.6671833214932 282.69321699556895,1269.1502619482926 282.70836309331935,1270.3714231417398 258.65169948444236,1275.9435404383694 257.0584465067368,1277.4081561564235 253.4306648178026,1272.9197126564686 252.68297187553253,1271.9886630607652 249.9884228267474,1274.251408140699 249.24568149331026,1274.8727109520114 252.32878620445263,1279.3094921704032 253.1842494577868,1280.5781061733142 250.38659043551888,1292.7302935523912 250.0967756799655,1293.180699846649 258.3362528710859,1298.7636502268142 258.9773405867163,1299.9654594595195 279.49389511113986,1292.8312467686483 280.36100920883473,1292.5037196466583 313.979520853376,1331.939998440619 315.4906353778206,1333.0936683863401 341.5264861866599,1332.257418139663 341.93135303107556,1332.2770570409484 368.97966222220566,1342.0615757243359 369.80599836446345,1342.4666664638207 368.05138119112235,1335.5612957128906 367.46330481779296,1333.572307162627 381.2995564088924,1331.0767971951282 383.26068479998503,1330.7319724559202 386.4967068444239,1354.8263652646565 386.918176142266,1356.4909249832272 394.69307591114193,1369.7256605698494 394.9036649244372,1370.1795599439065 437.35846826666966,1359.293475790706 438.07645155559294,1359.3313787062652 437.5734263466438,1354.4541780090658 437.22127957327757,1352.5407144191558 447.14313870226033,1351.7671040563728 448.05219584004954,1351.5958499131375 460.3473319822224,1367.900464051927 460.53665820439346,1368.0566360841622 467.1983197866939,1358.9002897340688 468.14320327108726,1358.8769999452052 467.87465130665805,1374.7175881345174 467.94455637340434,1375.2358616205747 481.923822080018,1386.499670252495 483.77368490665685,1386.4247871275293 486.80581717332825,1395.9680676319404 487.50661546667106,1397.8519266449148 493.3125225245021,1395.9849612538237 494.0940029155463,1395.75849529478 496.7238897777861,1423.3381169273634 496.6609752177028,1423.9991666275891 506.4290431999834,1420.8500319545856 507.24955392000265,1420.9806000596727 509.2779659377411,1427.2021247441298 509.7908943644725,1427.0802342454554 507.06284913781565,1437.6301280934713 506.9533311999403,1438.5992682693177 510.2534328888869,1439.7313718894147 511.42172131559346,1439.9116862345836 500.58556216885336,1444.6723871743307 500.5675033599837,1445.2603349309065 509.966822115588,1444.5664833717165 511.210841031163,1444.8965196206118 510.74393344006967,1464.8735041504842 510.9466581332963,1466.0214458356495 503.6194420622196,1467.293531567906 503.5029336177977,1467.6029937064159 513.208087039995,1465.57915808924 517.1253922133474,1464.6338734095334 517.6828851200407,1472.4511761967442 517.6403595377924,1474.1011401395663 528.4028270933777,1478.784869770112 529.2148909510579,1479.0249412771664 529.2856698310934,1470.664271619462 530.7813469867688,1470.6546866509016 530.9132927999599,1479.4494016560493 532.8843244089512,1479.8788816881715 534.307766328915,1470.6738565874402 535.9205344711663,1470.6592509217444 546.5222203733865,1493.6656058040098 546.9215530666988,1494.0548964273767 580.461421511136,1494.0380104476935 584.054541937774,1493.9786813192768 584.1908568177605,1496.519322605047 584.2872675555991,1501.1665152228088 606.4570769066922,1507.1644090629998 606.677860408905,1507.1812940202071 608.0584854754852,1512.9814272014773 608.9273471999913,1519.4010947040515 713.6410592710599,1519.227235016413 716.2033712356351,1519.1784082549275 722.6337635555537,1520.6048752782517 729.946416071034,1520.708916651667 730.7488679821836,1527.3318686958519 730.8854741333053,1529.1872081243782 795.1593964089407,1529.809149391891 795.4952320000157,1529.8324208206614 804.6029883733718,1538.4239703718922 806.8661649066489,1538.994325145206 815.0910785421729,1532.5455785135273 815.2649673955748,1531.135616846208 868.7373917866498,1527.220073264849 875.7150825244607,1526.878298304102 881.8116781511344,1517.5242240900989 881.925273884437,1516.2743369800155 918.5083428977523,1521.9222726664157 919.0454468267271,1522.1805491513223 925.0444666311378,1489.7178946930799 925.0814580621663,1489.1286983488826 921.2707581155701,1473.3462204363314 921.0607516444288,1472.5543278375408 924.5833844621666,1472.746481869428 926.6901484088739,1473.0089247493888 966.0790320355445,1482.8514443860622 966.3758372977609,1482.9815187459462 953.127953351126,1497.9463951029466 952.2614217955852,1499.31002323766 973.8533492622664,1517.3339350608294 974.6164795733057,1518.2146478706272 977.0477195378626,1513.089122935431 977.645990399993,1511.4718559428002 1003.5516430222197,1518.2055213313433 1004.93634588446,1518.508978556085 1006.6012515556067,1510.890932884242 1006.737275164458,1509.805291667988 1002.777153137722,1507.6536159408279 1003.2128947200254,1506.1882737567648 1008.5405346133048,1507.3432982731028 1015.7582327467389,1508.9450802862993 1017.6876125866547,1498.834488563647 1018.4038482488832,1496.5750000580447 1090.8217107910896,1525.8050575419911 1091.0258918399923,1525.840649795311 1089.8503216354875,1531.4814917868352 1089.8098349510692,1531.591459825111 1113.8300896710716,1538.5457982774824 1114.484575857874,1538.8186560348258 1111.132919182186,1547.6922776640276 1111.2316600888735,1549.172395992151 1117.516708124429,1549.3375627005007 1119.871635057847,1549.5228047706769 1128.4888908800203,1521.0465944494354 1129.3522184533067,1519.3600254990743 1126.2292096000165,1517.577158178843 1127.6488649955718,1514.8629004848772 1133.8415800888324,1518.283553229703 1134.4943186488235,1518.4555883683497 1146.7515895466786,1496.486007400963 1146.8963512888877,1496.1852575869416 1154.1405550934142,1492.9965536973323 1155.4102058666758,1493.526410276594 1168.1399185066111,1455.049339446763 1169.443648000015,1452.5465551319649 1182.7194939733017,1449.5480144046596 1184.0171067733318,1448.6715872985078 1182.8354198755696,1446.8306223630207 1181.1370180266676,1444.2227521384484 1187.8674195911735,1432.2278796644532 1189.4630027378444,1429.0861687887227 1204.3801614223048,1435.1563587456476 1205.793117582216,1435.390087561158 1211.2451302399859,1446.6379888774827 1212.1352547554998,1447.3300079004257 1246.135914097773,1454.2564670763095 1249.940788622247,1454.7887006628443 1258.894753848901,1439.3625258755055 1261.33385813341,1436.3679112400278 1273.3208294400247,1440.532970715547 1276.3215044266544,1441.3975620258716 1274.6886385778198,1446.3540595889208 1274.0982320355251,1449.0531987032737 1287.836907804478,1451.542329336342 1288.8135398399318,1451.4743156937766 1284.154075875529,1428.3940915129497 1283.6973627733532,1426.9145178396138 1328.390002062195,1439.2684883012553 1330.1851059200708,1440.0897179724998 1330.3997727289097,1422.378952140396 1331.723891200032,1418.077952083957 1341.218164337799,1424.0292972979369 1342.4056766577996,1424.404104225745 1346.9783418311272,1418.601143785927 1347.5221449955134,1415.9591497377842 1374.5503564800601,1421.0910807025502 1378.2288193422137,1422.3647997485823 1376.551971555571,1425.812477691623 1376.0952584533952,1426.7666055686423 1390.6090066488832,1429.4486410976388 1392.0245842488948,1429.7755047756946 1391.2929112177808,1435.9538659910322 1391.6069014755776,1439.2780746578355 1406.0638518044725,1439.9071213163552 1409.2288036977407,1439.5026691750973 1413.5160231821937,1454.1464597997838 1413.9450655289693,1455.6582561548566 1419.3032888888847,1452.5072991201305 1419.4894111289177,1452.329277581477 1417.0969102222007,1447.8444559666677 1418.4344271643786,1447.2902944675297 1426.1842776178382,1451.071711010125 1427.31207936001,1450.020918391936 1421.5227747556055,1438.3869981822209 1421.520153315505,1437.3772288136533 1434.530651306617,1439.7414147176896 1435.7292319289409,1440.2335127310362 1430.506158364471,1446.973956172471 1429.2114582755603,1448.3525121752755 1432.6694289066363,1453.432095836848 1432.7268093156163,1453.5028476442676 1445.7632304355502,1442.5483669676469 1446.100231111166,1441.432255163847 1458.8459636622574,1441.3824978984776 1459.2828703288687,1441.4870337914326 1474.8038340266794,1405.2310538073652 1474.846650880063,1405.05801565008 1468.7649100800045,1398.702077724738 1467.2208819199586,1398.5354264601483 1471.5011108978651,1394.4512889738544 1472.7809561600443,1394.5718280635192 1473.7369079466444,1383.5518125731032 1473.8111820799531,1382.0527549429098 1469.1622038754867,1381.8294707228779 1467.9598367288709,1381.888373944268 1470.0365997510962,1371.7887488570414 1470.2442760532722,1371.0366691469098 1463.8039805155713,1369.8224681619904 1459.5831708444748,1368.8196855358547 1464.912558364449,1353.6207502409234 1465.0983893333469,1352.843490332074 1459.665600568871,1326.6273741094046 1459.6294829511316,1326.1025901007815 1484.984924444463,1331.2558318102383 1489.6242907022825,1332.0971098317532 1486.3795305244857,1259.3409766707919 1486.368462222279,1258.8717682039714 1495.1316448710859,1245.3899285694933 1495.7596253866795,1244.9672939644079 1484.3141270754859,1231.3872624845826 1483.437401031144,1230.944038603804 1463.036189866718,1229.791195334401 1462.5366599111585,1229.4951014234684 1468.0807142399717,1209.8958001536666 1467.9662446933798,1209.5430138459778 1448.1271867733449,1193.395570522931 1447.782613048912,1193.4449277622043 1448.8207032888895,1185.3958930061199 1449.34906908439,1183.6450100944494 1463.567759644473,1174.0123872507247 1464.6664342755685,1173.1883201462333 1477.706350648892,1181.9480432445998 1480.3671122489031,1182.7268306515762 1489.2945718044648,1174.8017153640394 1490.0486727111274,1174.3634032348054 1473.5965152711142,1162.1648070549709 1471.734127786709,1160.5449185529142 1474.0797340444988,1150.0382030641777 1474.6366444089217,1147.8774662324577 1466.6861081600655,1143.1618929142132 1459.3230657421518,1139.9551895440673 1457.8233107911656,1127.8044841688243 1457.5474770489382,1125.4341485802433 1469.9844622222008,1128.3846067085396 1470.2763158755843,1126.743893632025 1462.0706261333544,1109.5305142938741 1462.5354948266177,1109.0390360358288 1437.272386275581,1089.4841539469198 1438.0652262399672,1086.0160298579722 1465.042465280043,1077.7613509791554 1465.6354932622053,1077.510317481705 1463.8977698133094,1073.2367590402137 1466.4720238933805,1070.265429335821 1486.0163154489128,1060.1046185393934 1490.9594774756115,1057.3155708968989 1523.242511075572,1094.762363015965 1528.985794844455,1098.8375242453185 1600.0271101155085,1126.4645734496298 1602.7985547378194,1127.6572818272398 1607.5142340266611,1118.0372546843137 1607.8037575110793,1117.5773405761574 1623.0675288176863,1121.500751419051 1623.8152217600727,1120.5850514264894 1610.7785093688872,1110.3840836496674 1608.137845475576,1108.2101497115218 1618.1695138133364,1096.5354539243272 1620.3438526577083,1094.3133727613604 1616.0630411377642,1089.6871643674676 1611.8614553599618,1085.3777243676013 1601.6221107200254,1089.2838867238606 1600.3737227377715,1089.331438775349 1586.6667955199955,1083.9067796933232 1584.3147812978132,1081.022473713907 1597.8985008356394,1068.8035274691647 1602.5270900622709,1065.5870342436247 1612.3682670933194,1073.3080924007227 1613.5196617955808,1073.6675024363794 1619.5073220266495,1061.0146295887535 1620.177245582221,1059.6628731031087 1607.043248640024,1053.8784855492413 1604.5426861511078,1052.5166237051017 1611.495327573386,1052.328212325403 1614.7686323199887,1054.2027153300587 1627.9841851732926,1041.697337602207 1631.6643956622574,1039.882179950073 1623.3876357688569,978.9459737196448 1623.3695769599872,978.7552109641838 1675.8135230577318,1008.329207341827 1678.4104962843703,1008.9727714751498 1696.9169888710603,1010.1057507331134 1697.5085604977794,1010.3156965813832 1694.327879964374,978.3050650906516 1693.6993169067428,974.7798049681005 1724.336377457832,986.3810155456886 1725.3864098133054,986.8412084731972 1731.9015620267019,997.1083797288011 1733.4767561955377,997.6824486625264 1766.9408941511065,997.080476737814 1768.288314311183,997.0923698163824 1764.4449920000043,984.4597223753226 1764.251005440019,982.7566189546487 1768.0194710756186,964.7975085280486 1768.048598186695,964.6986897264724 1763.416804977809,954.5512225652928 1763.1934000356123,954.3210918905097 1769.868751359987,934.7128766530077 1769.9910852266476,934.6350917870295 1760.4470047288341,907.7235103993444 1760.422537955572,907.5724973877077 1748.677321671159,903.5518516000011 1748.5826585600153,903.2855143554625 1762.0064702577656,902.498398933385 1762.4765818311134,900.8793118125759 1761.3828588088509,891.7677165768691 1761.5651945244754,890.5773688413319 1766.1346557155484,885.6452046534396 1766.4352475022897,884.3184392462135 1759.0072516266955,859.9619926349842 1760.2870968888747,859.0937035327661 1749.8700768711278,849.7386629546527 1748.3778949688422,848.1626663574134 1734.8719448177144,810.4717337939073 1734.9386459022062,810.429156456783 1714.8613282133592,781.4407432987937 1714.799870008952,780.9856078790617 1732.379829191137,773.7188794595422 1739.6036440178286,769.4072634373442 1767.9017975466559,769.0546742131119 1770.4699349333532,768.1379395400872 1760.6016696888255,735.0687858330784 1756.8262135466794,722.1478562123957 1808.6829570843838,739.80791529821 1808.9611209955765,738.401483674068 1800.9901957688853,725.9799733970431 1799.19771335111,726.0431773421005 1797.5654300444294,714.0721121518873 1798.8665380978491,712.4383311980055 1788.0193106489023,703.4113200553111 1787.4239524977747,703.0380110439728 1789.740722915507,696.0549525354872 1789.3244964978658,693.0848512920202 1780.3798519467236,692.9552176282159 1777.8029764266685,692.1467232356663 1772.815541191143,669.9598160620662 1772.6163117510732,669.8672761376365 1775.4934877867345,659.6592379516806 1775.5619364978047,659.3527419636375 1761.4818909866735,653.9511942807585 1760.7499266845407,653.5855884673074 1765.906007893267,651.0185417677858 1767.9594692266546,649.6958342024009 1759.800674133352,643.1513594460557 1760.1228199822363,642.6510316058411 1730.1984998399857,640.3101966861286 1729.5320715378039,640.2744585520704 1731.7081580088707,646.7076856929925 1729.733631146606,646.8135223852005 1714.7963747555623,634.5869799505454 1714.8307447467232,634.3074818578316 1671.780291982228,627.6988503621542 1671.0713380977977,627.2635524211801 1682.081094826688,611.4703503512428 1682.39129855996,610.2935809315532 1676.0526566399494,615.2970978960511 1675.510601102258,616.0087344131898 1661.941153848893,604.5769015794504 1661.4736637155293,604.4916657774593 1672.3316681955475,586.5455732161063 1672.802653582301,586.0089089452522 1669.4678906310583,576.551300131774 1669.4859494400444,576.0201108562178 1652.7617447822122,579.3392203688272 1652.6452363377903,579.2622242053621 1661.3192900266731,568.8514486963977 1662.716808817815,566.9663182707736 1659.2029141333187,566.5139395226724 1658.1846303289058,566.0812683853437 1661.4215261866339,558.9379443880753 1661.29365816887,558.6015125280828 1647.2130301155848,553.9166215404985 1646.4461132800207,553.035643513198 1642.3147238400998,547.1253890133812 1642.2614212266635,547.014002953947 1647.7946985244052,542.7258252098109 1648.2927721245214,542.5704316022457 1636.0873474844266,534.2202674250002 1634.963040995528,533.4716889699339 1629.3289838933852,516.3261030015419 1628.791006151121,514.270888528612 1618.9384695466142,519.8790152253932 1617.4416273066308,520.0706416052417 1620.0843300977722,512.8579458938912 1620.5317225244362,511.77278867567657 1608.6347539911512,507.6182411785121 1608.5893156977836,507.587524186878 1607.0024706844706,499.90997321537 1607.061016177875,499.59362255531596 1614.3911449599545,493.81853693787707 1615.309522773372,493.24863087164704 1608.1296898844885,480.0665546293021 1607.7789994666819,478.9271269769524 1609.951008142205,467.83332698838785 1609.7421667554881,466.8598296320415 1600.745384675567,464.14428532792954 1599.7407906133449,463.85264429525705 1601.7464834843995,452.17108846566407 1602.0415411200374,451.9220792821725 1591.4922840178479,433.54780318419216 1591.4544187732972,433.4996481090202 1600.465473137796,428.28095020359615 1600.521688462235,428.246094252856 1590.5514783288818,428.18188590783393 1589.5160095288884,428.3460757805151 1589.7318414222682,415.8902226827922 1589.7050444800407,415.6911653674324 1579.2510330311488,392.72312281496124 1579.058794097742,392.037814387877 1563.6595817244379,390.01582076284103 1563.3004444444086,389.79013427492464 1577.9426432000473,387.5961007027072 1578.2414873599773,387.5818804668379 1566.3806364444317,377.47334947937634 1566.1691736177308,376.97653482167516 1571.07971328008,364.72232907556463 1571.1402976710815,364.59158076922176 1531.8577280000318,347.68171701795654 1530.201560462243,346.3846797500737 1527.2131188622443,341.7754775771173 1527.1199121066602,340.66881395544624 1531.0182846577372,332.84951414569514 1530.793714631116,332.3076310438919 1515.450717582251,311.5452805942041 1514.876039679977,309.3412744178786 1497.08898673777,302.38678309327224 1496.8087839288637,302.05041039863136 1505.2381698844256,287.47804036625894 1505.487206684542,286.91126113169594 1502.510998471058,262.2478102989262 1502.6324585244292,261.7254863595008 1492.8891485866625,245.28311099979328 1493.5433435022132,241.62836573057575 1460.3661075910786,215.47461347095668 1459.196654080064,214.96778523287503 1466.4024100977695,201.8371219591354 1467.0874797510915,200.14391022984637 1457.3881517511327,189.132659761759 1456.4980272355024,187.84936236782232 1436.8611114666564,177.91009197937092 1435.7111731199548,176.7608041933854 1455.3577008355642,143.74612850527046 1455.9128635734087,142.11721379653318 1453.4565742933191,119.18481295584934 1453.1032624355284,117.90707043750444 1443.02761215996,90.70800772705115 1442.3498242844362,89.13151815865422 1436.773730133311,87.17421132704476 1436.4038158222102,86.16086972010089 1440.0109172622906,83.3371769596124 1440.187718826579,82.21448813535972 1436.7472244622186,67.40032856666949 1436.3918737065978,64.6237089431961 1446.1054739911342,46.374953005230054 1446.1348923733458,46.23803900665371 1439.2984681244707,43.73451906529954 1438.2685334755806,41.96931099961512 1414.849462328828,49.63559394009644 1413.0782427021768,49.05394735693699 1411.2735268977704,60.83818717719987 1411.279934862163,61.727147586934734 1403.0783229155932,61.55027461890131 1400.9916566755855,60.81475716334535 1405.6001481955172,75.4171348795644 1406.125601280015,77.41910788760288 1385.9291537066456,81.44918217690429 1384.762904177769,81.75833671126748 1379.7524585244246,76.81502666231245 1378.7367961599957,76.82283608824946 1378.4181455645012,80.67422673926922 1378.2931902577402,82.74321833782597 1364.5096587378066,83.07304243021645 1363.9987692089053,83.19707085820846 1341.3434109155787,97.17369937250623 1339.7711294577457,97.73776160861598 1337.5059140266385,105.046092685021 1336.13257073774,107.64260123943677 1322.015825066599,101.3765706695267 1320.679473208962,100.53921825013822 1321.1114282667404,94.58946705498965 1321.314152959967,93.23716536181746 1311.2603480177931,94.21005174209131 1309.382523164386,93.35797254927456 1300.4358397155302,75.84481814451283 1299.230559857795,74.61091976071475 1276.038680177764,61.346296262869146 1275.434583893395,61.15931593370624 1202.9401170489145,61.21490469708806 1202.7694321777672,61.188258845417295 1200.1788669156376,70.47459836135386 1200.0571155911312,70.69143103907118 1190.4090513066621,71.65798761305632 1189.141148159979,71.85828111454612 1166.1624789333437,58.163933293137234 1165.4043002311373,57.85658263042569 1105.8192603022326,48.145638301211875 1105.3179827199783,47.959565412893426 1091.0264743822627,25.39761281927349 1089.3065184711013,23.08086456503952 1070.0896156444214,5.991665419598576 1069.8484431644902,5 1047.7313538844464,43.947243580943905 1047.2385231644148,45.156966698530596 1076.5616597332992,49.99671022413531 1077.0271109688329,50.73088625149103 1059.3760816355934,74.31783340411494 1059.0533532444388,74.84566418867325 1069.1930831643986,90.3024026825442 1069.2804644978605,90.74659299169434 1062.1751970133046,96.16407940920908 1061.6264422400855,96.50077303376747 1057.7944795022486,114.1826512630796 1057.6837964799488,115.31068536214298 1046.0390687289182,128.38461136858677 1045.9085792711703,128.45350159535883 1060.7602019555634,140.22330371040152 1061.5189632000402,141.06876853492577 1063.8695210666629,152.25881038961234 1063.8616567467107,152.74144739931216 1051.8633258666378,172.2678245899151 1051.470401137718,173.49749145965325 1039.7866430577124,181.7211103713489 1037.0090817421442,183.08112257445464 1039.7065435022814,189.00226423883578 1039.6424638577737,189.1569941287744 1022.3823203555075,187.4916906435392 1020.2577888710657,186.71987069328316 1008.9005457067396,201.09519567759708 1008.032849066658,202.3839236695203 999.3978257066337,191.60924146714387 998.0859406222589,191.50318154256092 998.0014719999162,205.53477841574932 998.415368248825,206.6866676454083 980.8980323555879,229.99308460677275 979.9650909866905,230.9203679409693 966.3895270399516,213.28018553054426 965.3852242488647,211.30472222232493 962.5954295466654,217.8296964687761 962.5814485333394,218.58028769836528 957.8832455110969,215.91257821850013 955.50938595552,212.15817233448615 956.0721217421815,201.758154679148 955.8559985777829,201.15442132216413 962.8261162666604,199.77432184765348 962.8901959111681,199.6471465685754 953.2339760356117,186.90123255958315 951.9212171377148,185.73867739742855 941.7296409599949,182.62931663484778 937.4616453689523,182.98424150241772 933.165105208871,195.31166435877094 931.5703958756058,195.5889762158622 914.7681305599399,188.42833934578812 914.6245339021552,188.45083723036805 912.8160315733403,233.45798236801056 913.1608965689084,233.94548736850265 901.6953005511314,252.8554251534515 899.4621249422198,255.79991277953377 902.6171736178221,257.927813684626 904.2136305777822,259.1602057199343 904.7306368000573,280.7500224650721 904.1562501689186,283.0497798573342 891.7545087999897,283.78408158937236 889.8994030933827,283.6229943606886 889.4607487999601,296.7183972604689 889.8126043021912,297.01622985018184 886.2066679466516,297.67935332411435 882.6846176711842,297.52011209435295 885.1487712711096,299.43467033846537 886.587068017805,302.7497713206685 882.5334479644662,306.19055736478185 882.0173155555967,306.1983584978734 874.0656142223161,301.5208403196302 870.2782159644412,299.21669057005784 863.334603946656,282.0176227639313 861.7390207999852,280.90789922949625 845.9841664000414,280.50173348298995 843.3269000534201,281.3916255738004 834.0082633956335,290.292639420426 832.9258999467129,291.1893749975716 817.96359424002,271.18541248020483 816.3767492265906,271.476854790526 810.6628838400356,277.06512764137005 808.8928292978089,279.50352628406836 806.539941262221,324.9276076349779 806.695480035618,325.83888256532373 783.6407890488626,342.58436618134147 780.4758371554781,344.42970366129884 756.9999681422487,350.8804611712112 747.6906521600904,353.37766926997574 739.3419483022299,377.8444688242744 738.4582317511085,379.99823290557833 741.1789951999672,407.6305659809732 741.1545284267049,407.7745897991699 728.4420007822337,391.5722254277789 727.3893469866598,390.1809570681071 720.4652501333039,365.30312585871434 720.385733120027,364.88840224879095 707.9697194666369,364.086478673853 707.051632924471,363.6442266414524 688.1286226488883,339.65757905476494 686.7529491911409,339.3850403451943 665.5396741689183,352.54863425076474 665.0270370133221,352.8500601903652 650.3379436088726,353.8020495508681 649.7711300266674,354.43425992596895 648.9479978666641,364.63745737692807 649.2337348266738,365.7889570395346 656.0637511111563,377.8357528025517 656.007244515582,377.91740815097 641.2989272177219,375.1493663766887 640.9330907021649,374.91953565884614 629.6571121778106,381.2010285494034 629.5006995911244,381.29827946826117 623.5675070576835,374.72089933237294 623.1824466488324,373.91075482510496 612.0151122489478,394.1840977129177 611.9338476088597,394.74417369585717 593.7987256889464,392.5185396700981 592.6977208888857,391.9781823603553 591.1114584178431,383.0653026893269 590.9492204088019,382.1960134769324 584.6292198400479,379.859236638702 583.9811416177545,379.7959313785541 563.5761439289199,390.2938001374132 562.6102889244212,390.77040090592345 566.2162252799608,377.05589679657714 566.4856510577956,376.5370616236469 561.3033554488793,367.25149039091775 557.8876191289164,362.94414532830706 540.3070774044609,363.39603293611435 536.6723052088637,360.09424961789045 529.106829368975,377.2852665024111 528.9201245866716,377.8701581497444 515.6742795378668,377.6944614527165 515.0457164800027,378.01970666175475 507.12722005334217,392.3946887932252 505.09589532436803,395.76753564405954 494.99024412443396,389.8107763415319 492.12471893336624,391.8713033774984 481.3010844443925,370.50820646598004 480.63698631117586,368.54060348443454 475.2368199110497,367.2973664338351 472.65703167999163,366.2481788979494 453.55052060447633,371.37891896866495 452.26659754663706,371.60003718029475 445.7124150044983,382.390055646596 445.57580885337666,382.48363620514283 424.6246778310742,383.52173546626 424.07388416002505,383.5318274363526 403.24945607117843,394.74142148328247 402.46477169776335,395.3267245700699 404.0708406044869,396.94822601490887 405.37748280889355,397.52205571794184 401.29852216888685,411.221041956509 401.2603656533174,411.47239138680743 406.27110257779714,410.2844416870503 407.9234835911775,410.1862864776049 403.9386035200441,437.0264057039167 403.5354843022069,437.73266753635835 377.90799559105653,424.40869487071177 376.24629390228074,424.14314266084693 378.00964920886327,412.376421317982 378.28781312005594,410.2780203195289 358.1210752000334,409.92392747459235 357.1954156089341,409.20702528732363 342.989832248888,436.00553224748 342.9120628621895,436.1541232931195 318.3404319288675,426.95504422247177 317.183211804484,426.44962928519817 291.4869831111282,432.1682706832071 289.18244608002715,432.7296240669675 283.10303544893395,437.19930248276796 278.46832952892873,441.5863399726222 276.23078485333826,456.8829484807211 277.9722948266426,462.0743591662613 260.38388878223486,452.9859839161509 259.785617919988,452.9217829229892 250.2639652977232,468.0470097589423 249.68404451548122,469.546910125704 216.10601955559105,479.6227058597724 215.52027335111052,479.8382110580569 201.4906177422963,498.63585664652055 201.43527623114642,498.68858202238334 178.4015567644965,493.50309434515657 177.34162119112443,493.6521043481771 144.3210891378112,516.8303908742382 143.05580743111204,518.1520779601415 131.03126215108205,516.3957864867989 127.58290346665308,513.6597759270808 128.6341009066673,503.7382379694027 128.26069134217687,502.0753581254976 122.96742143994197,496.8065073789912 122.94120703998487,496.5653438892332 110.5447085511405,503.1899062449229 107.37917411548551,503.32928166462807 99.43475456000306,496.99448633851716 98.13452031998895,496.24302800628357 100.16555377771147,509.7459552982473 98.54288241779432,510.20441282651154 131.16466431994922,532.436601935944 131.68225308437832,532.573208037531 124.96437617775518,533.5560359677183 124.56446094228886,534.2106408966356 126.85996856889687,541.0957911279402 127.13405468454584,542.211971585697 101.20510037336498,558.6643070702557 100.55469198222272,559.3238778386731 97.87761919992045,591.4721897882409 97.97082595550455,592.1188285202952 92.57007701334078,602.43270686717 92.28521386673674,603.1068084159633 107.07566961785778,628.0429642192903 107.03867818671279,628.5474497228279 94.753736533341,634.1287861664896 94.78606762667187,635.252733788162 103.88537713780534,633.141833457048 104.92550627561286,632.906778595876 108.5891143111512,648.6425188568537 108.57950236438774,649.9629420628189 102.22804451559205,660.8077922959928 101.17451690672897,661.8138604143169 102.91806577774696,672.5554989937809 102.5915508621838,673.2316724883276 90.14291484444402,683.0405314461677 88.8755942400312,684.9997761744889 96.77515804441646,691.6277277917252 98.1479187910445,692.2736089579412 87.70439310220536,697.8610876161256 86.60746609780472,697.9252158986055 89.82164280884899,704.3571860148222 90.17029432882555,704.9535603913828 79.30733823997434,709.6328893539612 78.18623573333025,710.2168822885142 59.959363413392566,699.3822969627217 58.77301617781632,699.0923473165603 53.49984398216475,684.4903834147262 53.09322951117065,684.1060476154671 44.53481045330409,690.5791974499007 43.504001991124824,691.3707490039524 85.21140366222244,771.5520925167366 85.19101468438748,772.6950158072286 62.80886869330425,768.0770374486456 61.19988707557786,767.873725079291 45.71212828438729,751.8430421191733 45.503869440057315,751.544919784239 37.872857599984854,754.0576523134368 35.922214968828484,752.9402753146132 36.41504568886012,766.6158400227432 36.12756110227201,766.9588170522475 11.330486328923143,776.4864007818978 10.800955448881723,776.5605793902068 7.880088746664114,783.6449771428597 7.619692373322323,785.2205281158094 13.941440568887629,796.374972546997 14.796612551086582,797.1432445239625 22.529278008965775,798.1981260346947 23.491346488939598,798.3785175835364 25.832583680050448,787.0130983086419 25.89695459557697,786.8491806296515 30.591662364429794,786.4471697069239 31.203914240002632,786.8331551516312 22.66763178666588,806.9799064973486 22.18412174214609,807.5228900297661 34.801695004454814,817.8608350274735 36.82311651564669,818.8588479402824 29.217736533260904,836.2546636872576 28.175568497739732,838.8753594160662 13.799008995527402,837.2333656492992 13.552011093357578,836.6964076375007 5,843.8520762107219" stroke="red" stroke-width="3.450149230342812" fill="none" stroke-linejoin="round" vector-effect="non-scaling-stroke"></polygon></svg>