<svg viewBox="0 0 468.6797494577761 591.0127104195556" width="468.6797494577761" height="591.0127104195556" xmlns="http://www.w3.org/2000/svg">
  <title>Saint Lucia</title>
  <desc>Geojson of Saint Lucia</desc>
  <metadata>
    <collboard>
      <support-module name="@collboard/map-svg-geojson-import" version="0.11.0"></support-module>
    </collboard>
  </metadata>
  <polygon points="8.052550000000338,315.49022397070803 9.583179688903328,336.82637379936205 9.956225164445641,339.251490345654 9.774908897779824,372.66552062554547 10.133318000000145,375.93340301854914 18.682489200007694,410.96793261398125 19.86876361778559,414.03053516214277 42.53184059556952,455.44217381402996 43.609398071122996,456.9904816095295 79.58582217779622,497.623689964581 81.84484809778951,499.995566793521 93.87987913778488,511.0811620768145 96.42689936889656,513.1361050610503 113.97758580445225,525.0775133328207 115.0468420533507,525.6828105783134 130.38962064889347,530.8995932862235 144.3455846666693,534.9743889454476 228.81005627557897,580.6980545242768 228.88440322667157,580.7380456539177 246.43392457778828,582.7454540554536 249.693976488903,582.8885666972419 272.49278580446116,581.8876744680965 275.7280796711202,581.4593822453098 294.3548672266843,577.9897205526577 297.5247707289018,577.2098050160348 316.1217758133498,571.0889898628448 319.137159991129,569.8331662815981 336.5944940355621,560.9381951639443 339.38523536890716,559.2356043742984 356.5284335200049,546.6633267399229 357.79852120001306,545.6626805861524 380.08214473778935,521.748566356102 382.01414601779106,519.1006915928083 418.94266256890114,459.1151484800721 419.73076937779115,457.7078995854463 434.2060697866618,426.3792025900548 434.73880464889953,424.8576098345293 446.7018189066657,380.54252433111105 447.34188717333745,377.318588864895 454.9573160088985,332.3441915432122 455.31587074667186,329.0754938594546 454.5937368444502,291.5786897377184 454.5630805600158,290.1094079302493 458.59580191112036,272.39835925563966 459.09584159112273,269.1474401882806 460.6079027466694,249.48052880653267 460.62719945777644,247.8029023588242 459.55612276445754,229.78114114830532 459.1321048444588,226.51846539707185 451.0011989600098,180.8147062892749 450.7688374311183,180.0053979590375 449.81740034667746,156.4091792207255 449.3932367911257,153.14518739174673 444.64100297779805,131.26647453904297 443.7076247022269,128.2304841350633 431.14175206222717,98.96846143161383 430.3260473155606,97.50819878870243 412.1368217866766,72.23913109988644 410.8711031733328,70.84721408104087 396.9451400800099,46.92078936263715 396.5052478844518,46.31614968091162 345.1955114933444,38.077616182701604 294.6759936266826,29.966098516109923 253.91820859556174,19.00934050129581 213.16049638223922,8.052550000000338 145.45853158224054,25.962145899240568 143.45596987556928,26.377383357546933 118.29757328889536,53.934797929665365 116.42222424000647,56.634242325009836 107.12244738668232,72.2844215390869 105.9145460889049,74.68096709450037 96.88885535112786,96.95533085377974 96.38495632890408,98.56834545356833 75.95549186667631,129.65008946833404 75.01876397334127,131.2389943184171 56.95973663111363,166.9862092088224 56.673854035565455,167.72809399983817 43.28171807112085,187.69712599638297 41.896942391125776,190.22580733383802 29.730183991116064,216.3078631912431 28.559346942238335,219.0683116472428 12.31894360001752,266.92075839576864 11.614067511116446,270.1330828555292 9.142704951118503,286.383676026795 8.860681697791733,289.66075203597575 8.052550000000338,315.49022397070803" stroke="#009edd" stroke-width="5.725300165213291px" fill="none" stroke-linejoin="round" vector-effect="non-scaling-stroke"></polygon>
</svg>