<svg width="1820.2985978311044" height="2309.6304416782223" xmlns="http://www.w3.org/2000/svg"><polygon points="5,1234.7506958828308 5.0771868444862776,1241.4579855701886 5.37340956449043,1254.6095700634178 5.954786702233832,1267.7516064833617 6.821026986697689,1280.877195670735 7.971547875611577,1293.9806389220757 9.405475555628072,1307.0553380232304 11.122518755611964,1320.0952951974468 12.614700657781214,1329.7957613826147 12.163230435573496,1333.8195344751002 11.039215217810124,1346.080590616155 10.164528071123641,1358.3618285523262 9.53887772449525,1370.658148102637 9.163137991155963,1382.9647493906086 9.037891413376201,1389.11991840892 8.950510080030654,1397.6412631879793 8.937985422264319,1399.3224243638106 8.922256782243494,1402.684434651921 8.919052800047211,1404.236310832901 8.99594837334007,1410.9416720785084 9.292171093344223,1424.0900642111665 9.873548231145833,1437.228911639133 10.739205973339267,1450.3516167914495 11.889435591117945,1463.4518825021805 13.323071999999229,1476.5234120741952 15.039823928906117,1489.5602091768524 17.03852629341418,1502.5559780253097 18.0862284800387,1508.9176210263977 19.31859655113658,1515.5047231832868 21.878578346746508,1528.3998498794972 24.717306595586706,1541.2356634499738 27.83361621334916,1554.0058698856737 31.225759573397227,1566.704175616498 34.89228032005485,1579.3251870910171 38.83143082668539,1591.862011835212 43.0411721955752,1604.3095569447032 45.172402915603016,1610.396215875924 47.51975680002943,1616.6615304559236 52.26485447114101,1628.9119406485697 57.27384376892587,1641.0550960104447 62.54497706668917,1653.0853053723113 68.07563292450504,1664.9965780727798 73.86260736006079,1676.7838232564973 79.90357020450756,1688.4407510795281 86.19590001780307,1699.9622712839046 89.3486185244983,1705.591794571781 92.73610154673224,1711.342694253428 99.52097080892418,1722.5769302558037 103.18457884452073,1728.356771762541 106.27525660448009,1734.3155441579293 112.56700387556339,1745.836314185639 115.71972238225862,1751.465770798386 118.5983547734213,1756.3711979165091 124.33231786673423,1765.9355284927879 130.24133489781525,1775.390909747046 136.32336696889251,1784.734648115118 139.4073454933823,1789.3781423843466 142.91716238227673,1794.5584952561185 147.22739228449063,1800.7517264381167 156.00076942227315,1813.0268138792599 165.0770685155876,1825.0768698297907 174.45075541338883,1836.8935127932345 179.14808462222572,1842.6673222683603 183.46647011558525,1847.7282843612484 192.0843084800872,1857.6049094936461 200.91419221338583,1867.2901627771207 209.95146097784163,1876.7789566001156 219.1920369778527,1886.0671026547789 228.6315511466819,1895.1504126815707 230.98735189338913,1897.320139075513 236.338876017835,1904.004616944585 240.18802375113592,1908.7135662052897 243.95503303117584,1913.1410469202092 251.4450696533895,1921.7735356289777 259.0967617422575,1930.2611577406642 266.907487857854,1938.6006216804963 274.87404401780805,1946.7892353471252 282.993808782252,1954.8237072613556 286.23216099559795,1957.9088387478841 291.1330887111835,1963.2845598583226 300.1691923911567,1972.7720671740826 309.4086033066851,1982.059253917192 318.8469523911481,1991.1410333032254 328.47928803559626,2000.0138170468272 338.30182371562114,2008.6728181367507 343.19721727998694,2012.895593683119 348.3093165511382,2017.1144483072567 358.4973974755849,2025.3342202442 368.8608236089349,2033.3282459718175 379.39493461337406,2041.0932368063368 390.0944876089343,2048.6250049961964 400.9545309866662,2055.920261717809 411.9698218667181,2062.9754183891346 423.13540864002425,2069.7871859812294 428.70014321780764,2073.0998533312813 432.97716821340146,2075.521042313252 436.92185287113534,2076.844002857106 482.85326819558395,2092.249195177923 494.3482825955725,2096.388173144893 550.1721386666759,2112.687355781789 638.1226157511119,2160.1945440960117 704.8592352711712,2196.12417882937 761.9399261866929,2227.534534957027 845.4939571199939,2273.754313889658 887.0175667200238,2295.0625825032475 888.0300251023145,2295.582018097106 888.3274129066849,2295.7419826156693 893.6801021156134,2296.6307735862792 906.5810821689083,2298.627328981238 919.5225489066797,2300.3404978723847 932.4978030933999,2301.7693836291437 945.5007280355785,2302.9133888451033 958.5254983111518,2303.771616221813 971.5657059556106,2304.3440667889663 984.6152342755813,2304.6304416782223 991.1443675022456,2304.4156605220633 997.6717531022732,2304.451607163588 1004.1973910755478,2304.4513076082803 1010.7172036267002,2304.326393021154 1013.9814789689262,2304.232332622225 1022.1300795733696,2303.863280236721 1023.7568287288886,2303.7581362186465 1033.5225665422622,2303.047290357121 1036.7641227378044,2302.748633035284 1044.8859264000203,2301.910474709235 1049.707628373406,2301.3197492368636 1062.7609432178433,2300.3404978723847 1075.7021186844795,2298.627328981238 1088.6033900089096,2296.6307735862792 1095.0646570666577,2295.5577538130456 1101.4705826133722,2294.3490319540724 1108.287782968895,2292.985435471288 1112.625683626684,2292.3015393308015 1118.269061404455,2291.356425540347 1124.662462293345,2290.1500930632465 1137.464992711146,2287.589737745002 1150.2092689067358,2284.7486822106293 1162.8888829156058,2281.629020064138 1175.4977180444403,2278.2319459189894 1188.0302401422523,2274.558953654312 1200.48033251561,2270.6118364280555 1212.8421697422746,2266.392686691135 1219.041001528909,2264.2004205439007 1225.1096351289307,2261.903297057259 1237.276903253398,2257.1457594513777 1249.3384399645147,2252.122465126391 1261.2884198400425,2246.8358051028335 1273.121017457801,2241.288170177373 1284.8309899378219,2235.4822505156044 1296.4122205866734,2229.4207360867877 1307.8597577955807,2223.106616262521 1313.6042066489463,2219.854864687426 1319.167776142247,2216.542580655776 1330.3307414756273,2209.7322174971923 1341.3439934578491,2202.6785156983533 1351.9844184177928,2194.9829984154785 1356.0936712533585,2192.2943713344866 1362.811839431175,2187.7140347562963 1365.5160004267236,2185.826524852775 1373.4237198222545,2180.0797754207742 1374.7539549866924,2179.0961631221 1381.2522134755854,2174.0971865408937 1383.7816118045012,2172.0841035940102 1388.9222556444583,2167.9126084976015 1393.8639613155974,2163.7428866544506 1398.9035340800183,2159.4431069596903 1403.9838848000509,2155.4405223446083 1413.8040903111105,2146.7830097508267 1423.4346783289802,2137.9123583033215 1432.8709885156131,2128.8321555602015 1442.1086518044467,2119.546887971228 1451.1427165867062,2110.0610420372104 1459.9693963378086,2100.379403963685 1468.584321991133,2090.5058611132554 1472.9009598577977,2085.4469319559284 1476.983415751136,2080.44579915097 1485.1628910934087,2070.203405278153 1493.118378951156,2059.7840654244064 1500.846384071163,2049.192566371232 1508.3431199289043,2038.4336950545548 1515.6053825422423,2027.5125382478 1522.6290941155748,2016.4347822733107 1529.4113419377827,2005.2052146547358 1532.7967860622448,1999.4573046404403 1534.5315968000214,1996.3945306477835 1538.1057846044423,1989.9905331684276 1542.657186986704,1983.1291501545347 1549.6814811023069,1972.0504013071768 1556.4640201955917,1960.820130807173 1559.8497555911308,1955.0718609415926 1563.0018915556138,1949.443726093683 1569.2918912000023,1937.9259754361701 1575.3308151466772,1926.27286618395 1581.1157506845193,1914.4900862772483 1586.64407637337,1902.5827245090622 1588.1062573511736,1899.2455820953473 1593.3706914133509,1892.3971075296868 1600.5700394666637,1882.6306706803734 1604.120925582305,1877.7108339935075 1605.1240632889094,1876.2909868608112 1612.3979767467245,1865.5094073889777 1617.1357926400378,1858.1834146691835 1623.7406563556287,1848.281618814799 1625.8089725155733,1845.3800552129396 1638.3898456177558,1826.2327339398325 1645.1738410667167,1815.0001486449619 1648.5604502756032,1809.250393920287 1651.7128775111632,1803.6213983417838 1658.0040422400343,1792.1012722613523 1664.0444225422689,1780.4460587391513 1669.8305231644772,1768.660847316787 1676.9468589511234,1753.0633435189375 1677.9153353956062,1750.8524026409723 1681.0074695111252,1744.7303835944622 1681.8416699733352,1743.0311623796006 1684.671951360011,1737.1048415168189 1689.4045243733563,1726.9117408804013 1691.761490204488,1721.6874198608566 1695.8381206755876,1712.7167032174766 1702.5225014045136,1696.8202479860047 1707.2670165333548,1684.5710202345508 1709.614079146646,1678.3066103602177 1711.7450185955968,1672.2202393381158 1715.9544686933514,1659.7738964473247 1719.893327928905,1647.2379830934224 1723.5595574044855,1634.6184911960736 1726.9514094933984,1621.9211132273776 1730.0671365688904,1609.1521417397307 1732.905864817847,1596.3175698625855 1735.4655553422635,1583.4236910018953 1736.6973408711492,1576.8375262853224 1737.0113311288878,1574.9351914874278 1738.4333166933502,1570.8732216543867 1742.6433493333752,1558.42508386611 1746.582791111141,1545.8876620042138 1750.2493118578568,1533.2660492116702 1753.6417464889237,1520.5671382871806 1756.7583473778213,1507.7963230357273 1759.5970756266615,1494.9598973244429 1762.1573486933485,1482.0641554595786 1763.3894254933693,1475.4767389844637 1764.437418951129,1469.114792374021 1766.436121315579,1456.1184031516314 1768.1531645155628,1443.0809835126856 1769.5868009245023,1430.0088295409223 1769.9805994667113,1425.5480154618854 1770.8791708444478,1421.01428998349 1771.9271643022657,1414.6521482950193 1773.9261579377926,1401.6547476084088 1775.2735780978692,1391.422281430685 1776.4118656000355,1387.258166215208 1779.4072977066971,1375.3562724846415 1782.1615573333693,1363.3953849483514 1784.6731881244923,1351.3799999187468 1785.8685647645034,1345.3597814554814 1786.578683733358,1341.5811454798095 1786.8970430577756,1339.8602500319248 1787.5241497600218,1336.416646614729 1787.8547424711287,1334.5682524794247 1788.9027359289466,1328.2056236960343 1790.9020208356087,1315.2066147074802 1792.6190640355926,1302.1665661728475 1794.053282986686,1289.091775437817 1795.2035126044648,1275.9882403211086 1796.0697528889286,1262.8625590828597 1796.6511300267302,1249.7204304663464 1796.9476440178114,1236.568753679283 1797.0245395911043,1229.8614169105422 1796.949391644448,1222.9812069252948 1796.6377315556165,1208.964965117164 1796.0018867200706,1194.9592420537956 1795.0430222222349,1180.972139176738 1794.4826166044804,1173.9840329467552 1794.285717333376,1171.8405715832487 1793.6618146133842,1165.7263897549128 1792.2902189511224,1153.51166687964 1791.2302833778085,1145.532525560644 1791.1647473777994,1139.1045589508722 1791.0421222400619,1133.2274317209958 1792.9761624177918,1126.5710082597216 1796.3706359466887,1113.864695780736 1799.488984462223,1101.0867347560124 1802.3297516089515,1088.2431226271437 1804.8914810311398,1075.3398572574952 1806.1247229155852,1068.7473963535158 1807.17300764448,1062.3832370225573 1809.1731663644896,1049.379560753121 1810.8907921066857,1036.3345275492757 1812.3255935999914,1023.2547372340341 1813.4766970311757,1010.1464900146821 1814.3429373155814,997.0157864574576 1814.924896995537,983.8689276984078 1815.2214109866763,970.7119152261293 1815.2985978311044,964.0014094352955 1815.2327705600183,957.551651373331 1814.9586844444857,944.3938384559588 1814.399735182291,931.2450796467601 1813.5556315022404,918.1113783272449 1812.4269559467211,904.9990384870907 1811.0142910578288,891.91436459322 1809.3182193778339,878.863661588286 1807.3396147200256,865.852934718132 1806.2578338133753,859.2317628918681 1805.0796421689447,852.8887900267146 1803.0867652267334,842.7611048881663 1802.5977210311685,837.0807829853729 1801.1850561422762,823.9948219846701 1799.488984462223,810.9428347984795 1797.510088533396,797.9308272672351 1797.0522103466792,795.1287631039158 1795.4408985600458,782.7282766317949 1793.4620026311022,769.7157364756567 1792.3799304533168,763.0933414276806 1791.044452408969,755.9569107281859 1788.1527128178277,741.4658651021309 1784.9091177245136,727.0498722142656 1781.3154147556052,712.7179437724408 1779.4314732089406,705.5740853218595 1776.7945958400378,696.0486251570983 1775.8651497244718,692.8113918361487 1775.9711724089575,690.4193362415535 1776.2679776711739,677.2573270732537 1776.3448732444667,670.5427648123587 1776.2793372444576,664.0914628235623 1776.005251128925,650.9280487265787 1775.4460105955368,637.7736907686922 1774.6016156445257,624.6343948925496 1773.472648817813,611.5167680611485 1772.0594013867085,598.4265168829006 1770.3627471645013,585.3705495669856 1768.3835599644808,572.3542733571958 1767.3009052444831,565.7293758795131 1766.1664042667253,559.6089239364373 1763.7223483733833,547.1387206676882 1761.0178961066995,534.7226473703049 1758.0539212800795,522.3664129962563 1754.8321715200436,510.07572689681547 1751.3538119111909,497.85569815617055 1747.6202988089062,485.7117365402519 1743.633379840001,473.64955251757056 1741.5767145244754,467.639705160982 1739.3499468800146,461.35048303124495 1738.4059372089105,458.7095331197488 1735.972367075563,452.1724399244413 1731.2392115200637,439.8937087834347 1726.2407079822733,427.7219860313926 1720.979186631157,415.6623835550854 1715.4575601778342,403.7212150381529 1709.6778675200185,391.9038934187847 1703.6433126400225,380.2161323297187 1697.3568082489073,368.663645726454 1694.093989262241,362.82259515480837 1690.8209757867153,357.25154709257185 1684.0393105067196,345.98555096634664 1677.0144338489627,334.87107177393045 1669.7504236089299,323.91322379239136 1662.250192497857,313.1177223486593 1654.517527040036,302.48908135696547 1646.5559224889148,292.0327161590103 1638.3694566400372,281.75344145379495 1634.1559287466807,276.5812997596222 1629.9619160178117,271.6563725284068 1621.337087146705,261.7463243995444 1616.27421269333,256.17865632416215 1612.849155697797,249.04685525473906 1610.4342269155895,244.13314565550536 1605.516405475617,234.35038652166259 1600.4229475556058,224.65912415808998 1595.1550182400388,215.06236699339934 1592.4208563200082,210.18867319007404 1589.1475515733473,204.61667727917666 1582.364138666715,193.34815625991905 1575.3378056533402,182.2311854499858 1568.0723390578642,171.27118077524938 1560.5703603200382,160.47295745054726 1558.810791537806,158.05439872364514 1558.8102089955355,158.0537977637723 1555.6502087111585,157.5462869561161 1353.5718459733762,125.10026473080507 1151.493774506729,92.65419406443834 988.4626343822456,48.82716200518189 825.4317855289555,5 614.2602299733553,64.27203789516352 554.6239263289608,76.63838359696092 546.6136795022758,78.29933343018638 546.6122231467161,78.30053549120203 545.8592873244779,78.94754451932386 538.3203171555651,85.53960874833865 530.8914474666817,92.25692119379528 523.5750084266765,99.09737460175529 516.3727476622444,106.05976324528456 509.28670407109894,113.14167938241735 502.3186252799933,120.34131630230695 495.47113272891147,127.65656681644032 492.077533013362,131.34270922892028 490.3692279467359,133.2294943604502 486.23230435559526,137.89550138957566 478.05486791115254,147.31245643121656 474.07959978672443,151.98587875982048 469.8651980800205,157.15926839440363 461.6772758755833,167.44012527551968 453.71421496896073,177.89840507874032 445.9800931555801,188.5289917186601 438.47869696002454,199.326769300038 431.2132303644903,210.28632167330943 424.1871886222507,221.40283382765483 417.4043582578306,232.67089006589958 414.1307622400345,238.24265620158985 411.4481553066871,243.02241103124106 406.2801319822902,252.42949782556389 401.27958954672795,261.9274861563463 396.44798435561825,271.51366837800015 391.7867727644625,281.18443568755174 387.2974111289368,290.9373811407131 382.98135580448434,300.7688962347456 378.84006314666476,310.6759734735242 376.81310748448595,315.64808354130946 373.57621162669966,323.79546434700023 371.8230508089182,328.3126660527778 368.3889644089504,337.3746165787452 366.75056440895423,341.8025098989019 364.54214684449835,348.1345877291169 360.3452214045101,360.6111234151176 358.329625315615,367.06318181427196 357.26269923557993,368.3728710304131 349.0771072000498,378.6505398862064 341.1166677333531,389.10557746863924 333.38487608893774,399.73286931979237 325.8855187910958,410.5273011709214 318.62238236452686,421.48375895491336 311.5986707911943,432.59682845976204 304.8175880534109,443.8613960730145 301.544865848904,449.43203823134536 298.75973148446064,454.39863277808763 293.39247871999396,464.1848449751851 292.11467235558666,466.75008708878886 284.37705528893275,478.57872924907133 276.6117674667039,491.39015787333483 272.8648558933637,497.74577727366704 270.5032297244761,501.9428804110503 265.9570702222409,510.1754347551032 261.5390700089629,518.4781653018435 257.25039416889194,526.849567929632 253.09220778668532,535.2869373147842 249.06538467557402,543.7884691787185 247.261542684515,547.7609599084244 241.0437782756053,558.0902890363941 237.77396878227592,563.6557977454504 234.5102759822621,569.4984371812316 228.226101760054,581.046933062491 222.19387704890687,592.7306647319929 216.41651455999818,604.5439199442626 210.8966357333702,616.4809867749573 205.6371532800258,628.5364539045258 200.62874652445316,640.7346368352883 199.48521614226047,643.7021759993513 196.3051181511255,647.6951068788767 188.3475913956063,658.1460386985564 180.61900373338722,668.76915822312 173.12255914672278,679.5593532438506 165.86204416002147,690.5115117524401 158.8409540267312,701.6202217118698 152.06249272887362,712.8803715651738 148.7906443378306,718.4494299384532 145.91667228448205,723.5783039855305 140.37756956450175,733.6930293353507 135.03187086229445,743.9123837802326 129.8816150755738,754.2327600771678 124.92854983109282,764.6502509422717 120.17500529781682,775.1609492879361 115.6221465599956,785.7612484323326 111.27201251563383,796.4472416819772 109.80254976003198,800.1574004517752 107.05731953779468,805.4882983769639 101.72734947560821,816.2295212509925 96.61117240897147,827.0753419196699 91.7105359644629,838.021252764971 87.02718776895199,849.0630465889699 82.56345799117116,860.1962162522832 80.38678897783393,865.7850963950041 78.41284465783974,871.0053259359556 77.603110968892,873.1713298989343 76.00053731561638,877.509921064775 75.24905784893781,879.566945252067 73.04297045338899,885.8925639140652 68.8489577244618,898.3593320787186 64.92670094227651,910.9150198893622 61.27736519114114,923.5533195285825 60.26956714672269,927.3510373575264 55.250965902232565,938.734461299784 49.92856888892129,951.6003531618044 44.903268408961594,964.586656726955 42.506689706700854,970.9937316360883 40.30089358222904,977.3185140471323 36.10746339557227,989.7836344812531 32.185497884463985,1002.3373632141156 28.53674467559904,1014.9742936032708 25.162951395555865,1027.688119073864 22.065574400068726,1040.4728335830732 19.24607004446443,1053.3221314221155 16.706185955612455,1066.2300074148807 15.52799431112362,1072.5716254651197 14.446504675608594,1079.19045681844 12.46848256001249,1092.1971752557438 10.772993422287982,1105.2438588137738 9.360619804472663,1118.3245041071787 8.232526791165583,1131.4328081439016 7.388423111115117,1144.5627684535575 6.8294738489203155,1157.7074828881887 6.555679004464764,1170.861249971087 6.4898517333786,1177.3096253804397 6.562669511127751,1183.8350492061581 6.691120071162004,1189.6799455846776 5.898862648929935,1202.0059423274943 5.339913386676926,1215.1498713630717 5.0658272711443715,1228.3025526321144 5,1234.7506958828308" stroke="red" stroke-width="3.0789209794624277px" fill="none" stroke-linejoin="round" vector-effect="non-scaling-stroke"></polygon></svg>