<svg viewBox="0 0 405.2904903644369 471.14532098776476" width="405.2904903644369" height="471.14532098776476" xmlns="http://www.w3.org/2000/svg">
  <title>okres Prostějov, Olomoucký kraj, Střední Morava, Česko</title>
  <desc>Geojson of okres Prostějov, Olomoucký kraj, Střední Morava, Česko</desc>
  <metadata>
    <collboard>
      <support-module name="@collboard/map-svg-geojson-import" version="0.11.1"></support-module>
    </collboard>
  </metadata>
  <polygon points="8.05255000000011,155.8266393495211 21.372013822204963,154.13329486645637 21.720810977749125,154.1450785431149 23.83085172443657,156.73854804975383 23.909422106640477,156.78781268311252 38.1849105333165,158.79281203686662 38.343143564423144,158.77272537493957 49.31401559996425,166.19261916503422 49.45622871997307,166.43643101839518 58.14593823109294,167.18850465573598 58.53493079997838,167.27276588130155 62.01081460441469,163.2335791446891 62.35516987555434,163.18230057626317 62.07737005330978,166.0779498007829 62.450051439991284,166.38605304827036 68.93156183997758,168.22453848398402 69.15431142220746,168.44904355923757 71.70519099554053,166.25455398613815 72.0950573777734,165.72137367024663 77.32606807997922,168.19087947291666 77.39808486222296,168.23732890275244 71.70897751997813,171.80854396423786 71.39338527111227,171.89515406410612 61.73133997331729,169.54821881086502 61.563422177779785,169.6526712891424 54.65112180441042,177.18248649078998 54.45531480000477,177.5581704815337 57.92646544887225,185.609349469603 57.96403942220036,185.75056012786047 57.3062764355343,190.28525909435814 57.295645039972214,190.37800834922348 51.36587494219543,192.46275040624425 51.320436648886016,192.464881201107 48.15650420441648,190.31957745843795 48.10560457775841,190.28952085316234 44.4248115466396,193.71945641627065 44.40886445332558,193.74076387304342 46.62725805331843,197.13123553984735 46.66199213331106,197.33128857700615 42.14175575998502,207.7867449364927 42.070175884414994,207.95290027236445 47.26761759108172,212.08913147074747 47.45177375109756,212.17713538774808 45.24619607997715,218.14044525786414 45.199592702214204,218.28011498749368 51.039287208848464,231.31771654947772 51.7185314399901,232.2696114911156 50.3290226044262,234.431878016832 50.16365343108896,235.07510645295372 51.537652079983445,236.52223081811792 51.56925499553449,236.5323159554897 51.99451081775601,253.15458622773406 51.9492909777689,253.39857209972217 54.53359391110257,253.16052345419996 55.30400599996915,253.62284098528437 57.88925556443405,257.4313513818412 58.13865645329474,257.9074106086406 65.90561908443465,258.0288330542895 66.55661001776002,258.34280516295223 64.685775671074,265.7492482920421 64.62031248887774,265.9053725211776 69.18038018665516,270.011817951519 69.3088307466603,270.2812622492271 66.88232393775957,271.93037588918344 66.9727636177629,272.16576753625816 73.37366473774432,272.5619668028154 73.43490448885836,272.585595329008 74.55513318218414,275.7160051977331 74.58105631109333,275.74332761052176 73.32269229330245,280.73862164296554 73.28380759998231,280.85753035084747 54.515535102203785,284.070543239715 53.6591980355513,284.21799448996137 52.047158071108925,288.4037878739979 51.87676447109675,288.73258775540273 53.56038431108004,293.1504283731989 53.52048016887397,293.40341578762275 49.47239426666761,298.44366732727906 49.39447924443061,298.7148750004486 50.69566011554684,303.30718134878373 50.614978017758176,303.6430549350986 57.78476205332095,302.4515394254919 58.63112308443647,302.5802503112569 57.28472237330402,310.0301940618443 57.33154420441838,310.11188625926263 72.61941819554318,316.72799145861757 72.83954633775988,316.8765859091724 79.23280159111141,325.7052619295497 79.28632265775354,325.7698139311466 91.80814054221969,331.14973861075816 91.95210128886515,331.2407959962653 96.72443280887796,337.3786556165502 96.81479967109749,337.48838185377065 99.24640372442786,330.9208639756613 99.14380347554811,330.8320433571422 108.32488735108177,319.6087276160612 108.44634740442393,319.3310216501483 115.38850306664949,317.68277093550535 116.20981478220324,317.7198070488008 120.96219423108391,313.3672774219518 121.11183476442943,313.1603731805586 119.75349193774287,310.93831350937364 119.71861222221173,310.7909339612594 121.81707494220586,305.4140518435812 121.82734224887804,305.33257649437985 120.06544329776784,302.5609996588388 120.02451970664674,302.3179036302532 121.02627387553343,297.82994729062887 121.55864464885212,297.1035034420853 127.94869591997826,295.60424519624905 128.46176998221904,295.12313961984876 130.83970733331057,298.35479419553997 131.21464607108624,298.72069537330356 132.10579003554426,296.69483258034563 132.13943184886716,296.6550958649383 129.1716704977514,291.8811080011725 128.72202071999322,291.44597925685923 137.61241602665518,284.1386149367096 137.6805006488646,284.0459120127995 131.31112962665043,276.24554248978495 131.05903447999276,276.10198900642683 132.79501030222286,271.08846734460496 132.97800137775607,270.55384087935784 131.73740489775787,267.912884482888 131.7307784799848,267.7223839890572 127.87631504887372,268.22265636167833 127.49824514665647,268.4060996222612 120.2577550488711,263.50320541261283 120.12377033776261,263.2140153960278 126.66571949332842,258.5330021636106 126.82540887996561,258.43263916410035 125.25043316442293,258.0166236138681 125.06176230218966,257.94202275379905 127.46052553776076,254.5755814580258 127.80306036442175,254.54634416558076 124.93025339552673,253.62048851919064 124.45315131554503,253.62889018326644 124.77202036442009,249.48436121133966 124.44703462220036,248.91849155227067 117.1027063732979,249.0530415681493 116.67308148442658,248.88028869830998 117.12782850664348,246.93201993076184 117.12593524443923,246.31514710440354 114.9159885066399,245.9715282323956 114.62821264885838,245.9584198076551 109.84168166222639,238.36990911496798 109.82165677331045,238.06187367285713 103.08812404442119,238.56308869944007 102.9954270133237,238.6689786124549 105.3312028710859,231.63397073830822 105.54208315554547,231.01053807514074 96.34468809774967,227.42165612747306 95.96763764441835,227.36248014003615 98.47948688886368,224.33377238701325 98.64114235554712,224.33657443643426 103.95691295111442,227.95737523143873 104.07793609775376,227.96432385491028 109.10185303996673,221.55037001561834 109.13214523552574,221.25950175713626 112.45795159997192,221.3347129266691 112.74805762666051,221.33740304111382 107.75020944886614,220.09478030959838 107.66122612442246,220.1929716196388 108.28192486218882,217.64240656256845 108.35423291553866,217.46462257997302 115.90354320884921,215.75771010202118 116.02485762665287,215.75389871901245 129.84516212443827,205.96617868151918 130.34032301331877,205.61255263552414 138.46489375108627,204.67914383373102 138.79541364440934,204.75807775723626 152.09041069332284,217.5475735640863 152.5809840622021,217.98564235727065 151.49432436441543,214.80586502678455 150.86131942220504,214.48413294967725 153.8208523644205,210.69147582025437 153.97937666666235,210.20121727340268 160.92196923553252,212.4633433291525 161.27331501330605,212.64360984446068 161.1185772355309,217.13248109963718 160.4520761155361,217.29188235795993 168.9006131466374,225.14826608609985 169.14863049775136,225.33420701511898 168.8745443822188,231.2190968691208 168.8934770044359,231.33968181779312 165.05991227553,232.28552482875932 164.53394946663298,232.41518473896542 168.47441069331376,233.49268372558402 168.8109016444139,233.42073905442487 168.74602100442985,239.0656437723734 168.20192656887934,239.29422917284649 180.78585801774875,241.54731316044456 180.90105574217864,241.62989161542612 182.843688417757,245.4709410381107 182.8030560977711,245.61804782014917 176.78874455998425,249.31597890711384 176.83396440000047,249.63369784612553 189.28296450665925,255.39321115765017 189.8139517422021,254.90491999839253 189.84642847110058,259.80678982954817 190.02810882664176,260.1824686600954 186.91427501332487,267.02051667842136 188.06770861332893,267.91602028796444 185.79725030222448,269.62982295949007 186.95534423998447,276.58594862599386 193.52132326219703,275.4879073114786 194.35763543999178,280.18371093564895 194.37074263997033,280.5009154223004 192.8651622666291,285.7793636230123 192.7414448622219,286.02656327081024 190.18015234664904,287.23097390056466 190.15787010663894,287.3168422871746 196.21667330663308,293.97285708996753 196.6305695555418,294.22819144416246 209.6354605777667,296.5712568978121 209.91959554664913,296.66214773483046 208.78057986664476,303.52878427864164 208.67848934219342,303.873833929894 210.27035878221045,309.9523065933532 210.33436560887617,310.184513878026 207.29007277329924,309.89668860648055 207.29123785775278,309.9551042773161 208.60035586663412,311.94478103995027 208.41991341330117,312.3863497017079 216.37838679998072,312.3891472617321 216.73213556444512,312.4591981186019 213.9299618399598,315.85275303958736 213.8672657333152,315.95972488540394 215.63841254221165,316.66443587817014 216.61322413333232,316.93902231293725 216.45368038220454,319.4817349331057 216.42113083552226,319.83104802043056 220.53045648887178,324.0005917726154 220.5501901066525,324.0485877377283 217.49038708443527,326.89526645289845 216.95364724443766,327.5277919780707 218.28322704887955,335.5824026142142 218.55578399109777,336.14682096026775 215.23485641775892,343.9216922754928 215.21395771555376,343.99058457106696 215.6473691288627,348.1572895407804 215.66477257776546,348.4433489012514 236.07362960887963,355.02207976592 236.30205897778046,355.19584098333837 234.39394192887244,360.3253512195439 234.34275103107916,360.57523448444374 224.93527668441652,361.4547921819682 224.72272159107501,361.87650978401473 232.0340633866506,367.46351551457303 232.66189826664754,367.9161527102766 243.20540276441147,369.43277875931346 243.41293343107805,369.5024215985828 243.83855334218947,373.2839065296645 243.84481567107264,373.8072509816335 253.4574905155239,379.6695533190865 253.47889894218656,379.6885534546233 256.9328645955609,378.813646286893 257.146511955543,378.7707276415091 266.06567028444965,383.799022577448 266.4815326133173,384.0574044573947 268.39430999998126,380.9351715339068 268.49778406220844,380.7694268284464 271.3605421777536,381.13444451377256 271.6147490399669,381.1199153809208 284.0972453244101,386.2506958735245 284.6638404533221,386.45944849251066 284.3625204888592,388.96486510957004 284.66515117331414,389.9658823564456 291.76947202665156,399.7254604367405 292.1918151377538,400.46429142458476 299.466311137752,397.96543187156897 299.51364269332385,397.9596219970041 301.53659337777185,399.79517665332935 301.67094217777026,399.821543660924 299.79013179554727,405.5759524430101 299.72554242664023,405.5872354443196 300.9085400444235,407.3942731992207 301.76815391108516,409.49336080103933 298.5059902844148,410.8647452782385 298.1223134133104,411.09943101031934 301.70363735999103,418.14165959528293 301.80041218663223,418.4355083208717 303.066130799976,429.70623146440596 303.07064550219343,429.80159236593283 305.4206936444168,434.59354404547014 305.6702401688742,434.860284805232 308.65860895108904,434.2303323847369 308.73688806221594,434.23301209837484 312.25733634664334,448.32895663131023 312.15641090664553,449.58719210944366 315.06613648887264,449.9839009162457 315.08470502219984,449.98657986301225 312.66336827551254,454.7024402918538 312.55530669331324,454.8151695261837 316.45280543110107,451.2807191553362 316.5058167733148,451.2523676285706 315.46517791110796,456.05629197392375 315.2426467822004,456.84202409529064 316.7366491288774,456.9430300388991 317.4750213955483,456.9024044661852 319.11211067552335,461.4099860361381 319.13504827552947,461.439225128786 324.579560702208,460.8851305219647 324.87068617775344,460.916155503313 325.07202733332065,463.00907376741054 328.0271912088863,463.09277098776477 330.707322337759,452.1697665130847 330.7257452355477,451.7943927133525 330.728293857748,450.7189320471731 328.7322857510951,450.8501985328836 328.9025337155397,444.23312952490926 329.04620319110813,443.7676119125605 340.3166475644173,438.684729508073 340.790108755529,438.3825037664716 338.28109940441914,433.5199803641659 337.58867515554425,433.01897681279627 340.13292831110425,431.3699986608186 340.21455703996594,431.30981359680993 341.23211266665726,433.3163191185373 344.4697367022234,432.2193938345223 345.32978747555876,436.09404169776064 345.4167319022015,436.3122072334878 353.3059555822181,440.73886042417837 353.6604325244332,440.97866591705645 355.1468618222059,434.3691190477472 355.1466433688836,434.3429918990074 359.67073908443103,435.1779379791766 359.9536361510761,435.11742212044885 366.9031464088546,430.23495756609884 367.2432782488829,429.90421123110684 374.34832727997104,434.31105870035356 374.8300896977378,434.685100249371 384.489732008871,428.2147163287224 384.64781940441003,428.1804345667839 386.31301634666283,421.6228452678257 387.3810346933094,420.9622522130736 386.36275088886737,416.15749742463925 386.4052036533028,415.96929707247875 382.9702434399876,415.52018253312383 382.87470651552553,415.3120986277132 383.84798893333186,411.1598615864856 384.1919072977396,411.1356223430263 382.2918730221934,404.8628844078263 382.3102231021983,404.81987436867314 378.2174999021879,404.0514971455192 374.9168884888711,404.33693076315797 372.446254106653,401.2844458823889 372.2392331644148,401.1980850095348 373.3454080266308,395.24969552410005 373.3965261066403,395.10946934149945 376.5709443111043,392.75786210269837 376.5137095377502,392.5405294557637 368.5988539999887,389.45420144727507 368.13107259554795,387.9132074742007 365.53176919997327,389.83000075347775 365.4776655910898,389.83637021110155 365.26634839998565,388.10731474793977 364.9475521688653,385.9361126732034 368.7552665866458,385.5398358571907 368.7691019644333,385.5312308298086 368.493559493312,379.57980553121126 368.4613012177649,379.24976041408775 370.29871220442124,378.7120497518696 370.4359008977551,378.27470190864517 367.3402715288755,371.67796135434 367.2381810044242,371.3980591010546 367.05082086221205,364.59758384926647 367.0629814310885,364.4569441002601 375.60392422221025,361.2258200824068 375.6696786755417,361.1889250747987 372.74233119108953,357.63369545073476 372.54120848887374,357.26773905360426 375.80053222220863,354.95454308274896 375.9669936622156,354.8728056946344 374.8317645066488,351.34199233573565 374.8189485777473,351.3003941204439 368.51933698662447,347.6938657445495 368.46261193775695,347.6373912938503 373.4308232799592,344.1049947997159 373.7648384266429,343.8243929447268 363.9129571822193,334.9381129946047 363.4252965244302,334.801759761314 367.12960969776736,332.1390567144623 367.3468979466486,331.7181176852388 369.03998409776955,322.89432350443496 369.17440571555176,322.84308197905887 367.1542949244392,319.52290968537966 367.2129132355401,316.7466776804282 361.1897907466407,312.0056564033945 361.1814895199857,311.97544253658964 365.3168839377538,306.43908647113824 364.5747251466453,304.1140131733915 364.85004916441517,302.9165760284592 372.957216453309,308.3091462328226 373.1393337155239,308.4522798424074 373.2856974488602,308.3643181843578 376.31236838218297,305.84560057943565 378.95594498664263,308.65741125352326 381.6673877599894,306.4423319920676 381.8554760799814,306.6863050840981 391.2206432977762,288.8032285353762 391.32819515551796,288.72687827476295 390.7525706222002,286.2772324297763 390.4717852711108,284.63425943692675 382.9173777333124,280.55387596466574 378.895579048876,278.88251515356353 380.73641247108003,275.16373121867184 380.74398551998434,275.1115493268222 370.6802045422153,272.20865753264627 370.7186523288617,272.15591291094427 374.3205837066414,269.29295739022893 375.5543353155442,268.3103463483927 387.8903222311126,270.88588327426226 388.2528819466604,271.4495108444022 396.1279061599996,266.62528539042216 397.237940364437,265.60555537036964 394.80356923555496,260.49754853576417 394.5147739288584,260.2157352662831 389.8097988533334,257.7717621529806 386.3406871022087,257.74308663141676 382.81528720886104,252.2497678137803 382.82701087109285,251.03887630924112 378.7238747288718,250.59031651104272 378.6895775555529,250.52959709589015 377.4709720444296,245.36091880028073 377.4821859822039,245.21179462086695 380.0118027644128,240.9027039362769 380.02563814220025,240.85665212717834 379.88000258664374,236.50934425098933 379.8411178933236,236.36804004261614 375.5505487910775,233.23538583797165 375.397267368862,233.01809369472141 364.2852016622271,208.62839164955187 364.1287890755409,208.3416031312878 358.6926506933303,203.22546114684485 358.39708333332214,202.787498751342 359.1563543021982,197.1583728219481 359.12402320886736,196.9495723965298 356.0491469066544,190.94784646054143 355.93882797330275,190.69853600575118 348.88009104887146,187.0531804627168 346.72708781332017,183.56618460166612 347.38652560886817,174.653143024923 347.38608870219446,174.63059413308622 336.42999867554295,179.55612890850864 336.37756987554144,179.5806948974274 330.8255784088758,165.73696971688298 330.1319890755474,163.73615146007035 328.1395490399807,163.81491991179757 325.7435528799904,162.37002819198062 328.2337752444216,157.95982658054675 329.37912607109297,155.92247688648752 320.5447276355478,150.5249017265229 318.9426637066424,149.54846688872897 318.3132268355473,143.73281992489467 318.16875636441523,143.53896936745844 310.0906433688722,151.05216930853896 310.6806130044349,151.9900825285364 296.20152607109753,153.41684256762494 296.12047988441896,153.4318809796165 293.22255078220746,169.987007637195 287.5874014133076,170.7863773882342 277.9873968622194,154.39500411737356 277.95215305776924,154.3174566093727 274.0617176444282,154.96297174093309 273.93654388443224,154.8933929370902 273.1453787288699,143.1999818003311 273.112392275543,142.7546926288993 266.62381855110993,144.9152149113139 266.3541015021981,144.8917558321333 251.37635842664872,137.62490708186635 251.35145474665455,137.60784366538394 249.92386221333413,142.4656512132857 249.90609467554145,142.5318783129984 245.45423419553094,141.30049016999658 245.4306412355579,141.29330605592224 242.9304428355315,144.91689857689892 242.71002342220868,145.42996519408882 243.46994975108078,143.62663435414254 243.94464884442982,142.69104752373062 229.83882583998616,138.34223932575662 227.35020546665305,139.65406866193337 225.2925207022124,137.53992672468996 228.4209180710966,134.50322379978718 222.4419231555437,133.2139494015206 222.02307529774384,132.65002265354963 220.92134231999057,122.33608925253031 220.93583305774496,122.30139144059615 214.20477613333037,117.74321053710412 213.28690804442863,116.53125522768062 211.6807663199795,112.0531219022156 211.1143896444189,111.24368557974924 212.7460175911035,107.82509756944603 212.77099408888148,107.59394179116464 204.64147174222285,98.84985386054143 204.5508864266519,98.6999937568686 203.99295661331394,95.66911437505735 204.02215654220322,95.46576904714277 206.4577655733226,92.39774694761547 206.46439199109568,92.21820818150411 203.91205606220296,85.11618032312947 203.7983146933036,84.87121989139234 191.69388831110678,85.36215095723276 191.20389748443972,85.66902277638258 189.18735476441339,84.23398053626408 188.86309719997348,83.92316775040638 190.1120677244396,83.17905275180931 190.5475908533042,82.53909677878949 188.4053646488535,81.91857394463261 187.63677300443646,81.99195377699618 181.8752119733033,74.14616039145733 181.3281320088788,73.60208048260358 182.15730804441387,68.8231385686737 182.34379437330767,68.75075269648335 180.03430573331548,66.20459745603841 179.52909599108511,65.81331173811452 184.0992125422124,52.424395185800336 184.15331615109585,52.30240414728871 174.80307657775825,49.6024536465917 174.64346000887576,49.55522890759278 169.69498228442512,42.87251765824442 169.54643401774933,41.515410459694635 167.04055583111017,42.06475729178749 166.7322453599843,42.239175163827554 166.33473311109242,45.808828045621 166.36080187554012,45.95433504273353 161.03483679108444,47.8250887821556 160.9098086666561,47.918641657779176 144.59476710219292,47.59053123009619 144.5750334844413,47.58648324819626 140.3880112622062,40.21337460235338 140.26414822220227,39.85755288640905 141.4094262310898,35.48415316676949 141.61309755553498,34.91831968597364 139.25001503111685,27.464989938081658 139.2107662488777,27.258804028686086 143.6296402755322,24.479886628315967 143.50053435553104,24.121262819207573 135.47208308440872,22.51890113735101 135.3032186577691,22.52340095501097 136.19916859555065,20.465483240004346 136.8825634399907,20.036970332213627 135.74376621330862,19.515190306097452 134.92209040889406,18.729810862605177 132.40288656886673,26.57432423276589 132.0740414844256,26.635967135319902 130.17917727109284,20.81738106613159 129.99341911997885,20.909742620751445 128.8773410399806,24.2596279925707 128.85585979553412,24.263677699702043 130.4906189066312,28.859564693928064 130.4645501422126,29.01062836996391 127.53618320887449,34.325487278889 127.18345389332512,34.28735953383841 124.06532383108402,32.30614237665543 123.72613862221601,32.015167914192375 122.19033887109958,22.425867324250817 122.25347188444698,21.718040196712195 118.09637776888098,23.50952707252111 117.48740269331734,23.957473999303716 115.66098719111301,21.37154805591092 115.38660980444524,20.938317296684204 111.28529410664464,21.446696537655612 110.95470139553777,21.296286973032352 110.8703055910953,18.765361873090683 110.58005392886821,18.266970599892034 107.33376457775717,20.691832101328714 106.79971899552743,20.472345719237296 102.49917385777348,16.708652940847628 102.10166160888161,17.03042312720902 100.01237392886082,9.829293829715994 99.88406900442328,9.38404431692436 97.4523193155544,8.06627807085863 97.42574082664919,8.052549999999997 92.933830568865,13.407811629490993 92.79605933331891,13.547666569771195 90.27831184885122,11.760916877530349 90.04828048888135,11.775544158451908 87.08809218664078,15.686738787313175 87.08081040887168,15.70541535939958 68.5114760799986,17.332502856770247 68.10639078220242,17.49034869654099 61.10823824886006,23.592547146348466 60.60026143110713,24.055454870110793 60.43045037333627,27.86003682134435 60.41712471997721,28.02752594055312 56.464430106665304,28.353166515509315 56.18743127998437,28.68071736058448 57.09059017775121,41.130470797280964 57.10610036442063,41.272279150208874 53.7524047910772,48.078648188769534 53.69043686221244,48.143977495295644 57.38171565332573,49.51317636762508 57.502083439969056,49.55073131129723 69.23208080887684,65.87783304582229 69.42366438220029,66.01260814542877 61.68604731551727,61.555861504886366 61.25307280885295,61.72954281306704 62.31155202666537,65.24228361098324 62.32924674664514,65.26307903108648 60.53909449774778,66.5376545992109 60.102916008858074,66.5195573849411 56.54969972442609,75.9733571862522 56.26134132443235,77.36130269832904 56.96862039998064,80.08325954685972 56.264181217738724,81.65348426718958 58.708237111080734,83.64123228444771 58.522551777779654,84.3378091433475 54.70828375998076,85.90600170499931 54.445120311087294,87.52853259719961 57.20586071999401,92.91445128978341 57.312393128878966,93.04241884424812 56.73968130665139,95.59878618678306 56.859393733327806,95.66214896746499 45.27932816887164,101.56872128041107 44.959002764436946,101.5890535822906 45.75104173331761,105.1432711464073 45.94211558221264,106.70177018442303 49.013205359958874,107.53823063171114 49.58089275554062,107.98257048099879 50.88352998221649,113.26517624880182 50.892486568867525,113.3241385498037 55.02584208886378,116.50329189502338 55.382357928879856,116.90319988551312 42.02116951999028,122.95660369485961 41.80002192885854,123.01196231481265 38.54965478220379,121.33579529940437 38.38901876443538,121.1221019366709 37.24934772443498,116.93105071242428 37.13648016885395,116.68409873347957 31.44540674665018,116.26857902239828 31.052627653298032,116.0235332186636 27.983868044429755,110.89326681296336 27.87573364441755,110.73153431868525 26.001549679996742,116.96530271802442 25.966742782191204,117.00561898574927 18.525712524431356,112.67700978465257 18.426024986641778,112.60468183248997 13.736632915540895,106.42287231572084 13.672990177765087,106.43343069827063 15.806769519964064,110.3622433341294 15.83007120886009,110.48556523530681 13.90112827553071,113.7875238729099 13.868578728877537,113.8979226581647 15.200343066658888,115.8686664009507 15.448287599989044,115.89112717030332 11.663146693324734,122.01212986221765 11.626228079992643,122.40020715789399 13.924721235532843,125.67988956264855 14.00613151110133,126.0205574545904 13.800275653316703,131.50912822221983 13.7444244177384,131.74141813978315 18.129001271103107,132.00839876247449 18.641929697747173,131.97763655347046 19.119395866647892,137.17227570916987 19.119687137754,137.31922415132397 15.835022817751224,140.05818569931546 15.670600275545212,140.30379759878963 14.488330835541774,146.99371682917229 14.525249448873865,147.13154752171943 9.98972134220071,149.51906133996783 9.693352986628952,149.7252365536184 8.05255000000011,155.8266393495211" stroke="#009edd" stroke-width="5.028350361718054px" fill="none" stroke-linejoin="round" vector-effect="non-scaling-stroke"></polygon>
</svg>