<svg width="243.7270078577567" height="247.72283907141536" xmlns="http://www.w3.org/2000/svg"><polygon points="5,93.59728009853279 5.099032177706249,93.75625763647258 5.493995804339647,93.54864105535671 5.933815182186663,93.65312491258373 6.523347911075689,94.45161412202287 6.373634559917264,95.22488036495633 5.797209031064995,96.00805171835236 5.829831395531073,96.43769139656797 5.884299093275331,96.90155718813185 6.084693617769517,97.39199286320945 6.2367371377767995,97.71174372150563 7.731540479930118,99.46360984951025 8.295441351016052,99.59286008530762 8.99128803552594,99.46315950003918 10.141808924381621,99.9918690425693 11.136208497686312,101.00019656226505 11.9552628621459,101.99996289645787 12.438772906549275,102.91325896064518 12.534601102117449,103.31046049739234 12.577709226636216,104.25752655847464 12.503435093327425,105.5022614527843 12.558194062206894,106.95684499491472 12.554407537681982,108.99639801809099 12.42916095990222,110.7062934654532 12.28294286224991,111.63846681505674 11.900212622131221,112.81065790762659 10.803868160001002,115.40224520000629 10.661727857775986,115.60398693697061 10.772119608824141,115.63145622168668 10.64862065773923,116.05925611103885 12.01176945772022,116.48480359237874 12.143132728757337,116.5978324667085 12.603049813304096,116.75274047080893 13.817941617686301,117.11389184498694 21.330988657660782,119.66490047477419 23.552804693346843,120.35882371431217 28.64888405322563,122.11681277991738 31.380424533272162,123.02867398405215 32.41967985779047,123.43304381059716 33.951474631088786,123.99096487241331 33.96399928885512,124.57545207813382 34.30653411557432,127.02685907052364 33.96895089780446,128.68978355976287 33.27863836439792,133.3871505172574 34.25905692437664,135.77857228188077 35.365887146559544,138.30189690674888 35.712791039957665,139.15785748430062 36.639324444462545,142.27188676281366 37.55741098662838,145.43675052770413 38.49122616881505,148.54123524733586 39.421546097728424,151.71366246184334 40.16312234662473,154.3002867231844 40.82372522656806,156.3294934433652 40.97722510213498,156.7261478060973 39.44076999113895,157.6131021794281 38.24277191108558,158.33301834017038 36.415919502149336,159.3982557944255 35.95571114658378,159.7296219249256 36.101929244352505,159.9497820250108 37.6922695110552,162.89378302212572 38.13907939544879,163.5119326588465 39.90563868440222,166.0569979492575 40.55517326213885,166.9488668247359 41.14237582217902,167.8645931253559 41.572874524397776,167.52423512469977 43.65517169772647,170.13498354842886 45.171529102139175,170.8755678347079 47.301886008819565,172.13252947083674 49.26592711103149,173.19905035552802 51.088119182153605,174.15526812314056 52.21708600886632,174.64012836106122 53.56421489769127,174.90349210693967 55.25941276433878,175.2857066206052 56.8841230222024,175.83314108650666 59.082637368817814,176.75468269118574 60.154806328820996,177.37459393736208 61.3321241599042,177.21657751192106 63.92734975996427,177.77436147868866 64.31124508439098,177.93057674966985 65.10088106663898,178.17863016412593 66.96734634658787,179.264929736848 67.65707633772399,179.71601483796258 68.20320967095904,180.53624903678428 68.23000661330298,180.50293552328367 68.92148423113395,181.21872476511635 69.12741290661506,181.3020082670264 69.27071829326451,181.348376905662 69.65636124438606,181.38844300294295 69.82384213327896,181.386192098842 70.72794766211882,181.46677445305977 71.35738453327212,181.7877530331025 72.30809343990404,182.21767451707274 71.91429489769507,184.63692374993116 71.88778922660276,185.37295724166324 71.83477788441814,187.32669774699025 71.83681678213179,187.487858051667 71.72409486211836,190.89650574640837 71.57088625780307,191.5649942146847 71.06698723544832,193.2634409175953 70.10054968879558,196.46673045028 69.82675484439824,197.33236683532596 69.60305863106623,197.48991859128 69.32372963544913,197.61866079905303 67.31599786656443,198.4203719345387 65.42331818665843,198.94839231931837 64.84252359101083,199.02626734075602 62.164576995535754,199.80726674594916 62.363806435489096,200.78902631025994 62.57876451546326,201.7896873044665 63.05790549330413,203.8252058076905 63.11499463103246,204.18801406188868 63.12548039108515,204.7290743860067 63.08878023107536,205.23907428217353 62.73168184887618,208.5470677074045 62.30293077323586,210.66084437613608 61.18561479111668,214.4769337848993 62.528665884397924,215.3843592676567 62.84323868446518,215.54414858366363 63.022370417718776,215.62426825310104 69.15362730657216,218.6845476088347 71.96643242659047,215.0913368667243 74.46233457769267,211.88741964724613 74.817102791043,211.22214407793945 76.01597468438558,208.40977954748087 78.77518591994885,209.593605768634 76.47530922666192,214.6704821945168 77.14523278211709,215.61436582362512 77.59845063101966,215.92899279564153 79.9021138488315,216.73918892489746 79.98512611549813,216.56544711865718 80.16891818668228,216.25487204361707 80.32824348437134,216.09418302756967 80.55805639107712,216.06357558252057 81.67857635545079,216.53033865406178 82.37325795541983,215.64992454554886 83.072017351049,214.64617612451548 83.6082474666182,213.96290438703727 84.12467114662286,213.50333767745178 85.34218439110555,212.87137561198324 88.6230621865252,214.44317532383138 87.72157809766941,216.03071758535225 87.30709930660669,217.16229015612043 88.1491640888853,217.66550949186785 89.48901119991206,215.83221916854382 93.40369493328035,217.465662237606 93.25427285325713,218.02694449061528 92.13113144878298,221.26587956084404 91.45421738666482,223.2796124187298 90.64856149326079,225.1961071739206 91.12653738667723,225.4076497189235 91.5433463465888,225.4882158684777 92.60998115548864,225.6556493359385 93.89827327989042,225.6628507724963 97.16138353780843,225.6592500541592 98.7290046577109,226.01932158728596 99.03542186669074,226.07198199932463 100.54071096878033,226.1728018982103 101.71132956445217,226.26056918303948 102.7406816710718,226.60038577462547 104.29344796435907,226.92129817756359 105.6798984532943,227.59237715159543 108.16706247103866,227.68869549408555 108.81572323548608,227.77331157325534 110.43606442655437,227.76971088961 112.30602496000938,228.01365706615616 113.03507655102294,228.10232378245564 114.00297045323532,228.2486012817244 114.19666574208532,228.34446925122757 114.89688149327412,228.43358591769356 118.03707534226123,228.4862457489362 118.46349624881987,228.5010985195986 119.37022321776021,228.67258043488255 119.6865436444059,230.78391237783944 119.83829589327797,235.6159098756034 119.77654641773552,236.1591428652173 119.50712064001709,237.31266461883206 119.25895765330642,238.47833200718742 118.74515541328583,240.05399840662722 118.3117439999478,242.69268540409394 118.37757127103396,242.70213655405678 118.64583196432795,242.71878857898992 119.58372494217474,242.72283907141536 122.05457777774427,242.69223534932826 122.86605909327045,241.9037379770889 122.95227534207515,241.8236279253615 123.45733944885433,241.35286826477386 124.24726670212112,240.61657292261953 124.68883370666299,240.13275892590173 126.18946247105487,238.3145088572055 128.6678883554414,238.64980610704515 128.73284181323834,238.60434973146766 131.36272867547814,236.7694344916963 133.4476472887909,234.8624925451586 134.44787228433415,233.9474965656409 136.0548150043469,233.525327923242 139.5119118221337,232.97038645436987 140.9097218842944,231.87040099076694 142.4289919999428,230.61333227565046 143.5276666310383,229.55429241375532 146.61310151102953,228.46779230528045 146.62562616891228,228.03886182163842 146.73019249772187,224.43500241148286 147.07884401769843,223.19679498206824 146.43659121776,221.81724992091767 145.98570353770629,220.7644689012086 145.8260869687656,219.91647913958877 145.83191239100415,218.43789040792035 144.0711785244057,218.00218868779484 143.81515121774282,217.39724601863418 142.83240248879883,214.13529791857582 142.17383850656915,211.99859879072756 141.5342071466148,210.18821720790584 140.80311665777117,208.0285231238231 144.19263857777696,207.3177729533054 146.58310058654752,206.8100285428809 144.96217685332522,204.99105153320124 144.37584810657427,204.13489825086435 148.73268138663843,203.16980872733984 151.53907854214776,202.56707575160544 153.61118122655898,202.34560810227413 155.82455040002242,201.99855164025212 157.1504164977232,202.19346149795456 157.4006183821475,202.08272751234472 159.47446869325358,201.8626097891829 162.32630414213054,201.3224426591769 163.34313159098383,201.3503513269825 163.17914595548064,198.27857596206013 162.8980693332851,196.87771684670588 162.83923256886192,196.28982150088996 162.89923441770952,195.93735362601 162.9132154310355,194.56934075069148 162.26601102214772,191.84454333246686 162.15940579550806,191.49431909946725 161.89959196432028,190.5413282144582 161.31355448882096,188.48407819413114 160.91946467547677,187.7885702578933 160.69838990212884,187.0039266126696 161.44346140441485,186.73742623784347 161.6767695643939,186.57446470012655 162.0373631999828,186.4601214492577 163.42876529775094,185.79882013774477 164.21577983989846,185.71463800308993 164.64423964428715,185.430579331005 167.18820152885746,184.04089236847358 169.79653432883788,182.98522857471835 172.5467161599081,181.93496184569085 173.43742321780883,181.4555199361057 176.1296420977451,179.7020591251785 178.4697142043151,178.60180593916448 178.9508940798696,178.43208554043667 179.31236152886413,178.29522867745254 179.4419771733228,178.2470586427953 181.12465038208757,177.62985099904472 181.89884899556637,177.39665320137283 182.30924999108538,177.19091671414208 182.61683228437323,177.03335034591146 183.22558890655637,174.50822127173888 183.28063914657105,174.28852601145627 183.3415148088243,174.00490270578302 183.38229276437778,173.84373247309122 184.36911928886548,173.24722150125308 184.97904099558946,172.9572940719081 185.25895253324416,172.74705142562743 185.72411249775905,172.305406151223 186.39986147545278,171.87591539660934 187.46737009775825,171.28255047276616 187.7825254399795,171.1056211666437 188.49147932440974,170.81884231849108 188.70061198214535,170.76076617941726 188.93887175107375,170.70178961928468 189.18528711108956,170.6743272462627 189.66646698664408,170.63921141985338 190.2594949688064,170.64641466672765 190.6058163199341,170.6693750146078 191.04738332435954,170.73150300275302 191.89206954662222,170.894926539273 192.67821027548052,169.94184595783008 192.83637048886158,169.1188708175905 193.11569948436227,169.10806587169645 193.68600831995718,170.29525610501878 193.85174158215523,171.05834995384794 194.4392354133306,172.06680028047413 195.21896817767993,172.98295536608202 195.67072967102285,173.34581474761944 196.23725198209286,173.3417629712494 196.86931029323023,173.08650090848096 198.231002737768,174.0818862108863 198.89131434669252,173.2269626094494 199.30899711989332,172.75380440457957 200.0310582043603,171.9501984489616 201.4425580088282,171.96055305434857 204.29468472884037,172.11407127557322 205.79240078222938,172.15098766458686 208.09810289775487,172.37878865917446 209.82242787547875,172.21986822749022 210.57711132441182,172.48998787277378 210.76235975103918,172.1550394629594 211.9361823288491,172.34817510057474 212.31454350217246,172.75875658896985 212.40017720882315,173.23416577116586 212.4432853332255,174.14716460031923 211.61024995555636,173.98464388417779 211.4634493155172,174.81210267206188 210.52206108439714,178.13586235418916 211.8651121777948,178.4316353535396 212.77183914661873,178.55633709195536 214.5215047111269,178.46674992970657 215.43114439107012,178.41993049357552 216.36612465779763,178.51041804853594 217.14847886224743,178.53832962515298 218.07326463994104,178.47575366625097 217.18022741319146,176.15367773699109 217.24809358210769,175.63685717561748 220.51353400887456,176.82041047373787 221.1185041066492,175.7142902991036 220.3926564976573,175.39735455054324 219.78331733332016,175.2690494649578 218.8690173154464,175.12678829964716 218.84542435558978,175.1821621186682 217.40974904887844,174.63382563507184 215.05365703103598,173.13422188116238 214.4655806577066,172.16314305970445 213.96779832884204,171.19251013128087 214.1268323555123,171.07725844020024 214.2043104710756,170.917436658754 214.6927721243119,170.74050705740228 216.18961436441168,170.74095726013184 216.95536611543503,170.88277107384056 217.53208291553892,171.0691548034083 217.98879601771478,171.0813102584798 218.36715719103813,170.35243196040392 218.5710469688056,170.4136596316821 218.83814257767517,169.82929483574117 219.18096867552958,169.47858516819542 220.25663288892247,168.76455835736124 220.97286855103448,168.36837601981824 220.10662826662883,167.67415478546172 220.69616099551786,167.05331564252265 221.20588543987833,166.24293557653436 221.54288611549418,166.06285070988815 222.0802813154878,165.89267037482932 222.17756586661562,165.86655803653412 222.4373796978034,165.89176994934678 222.9660367644392,166.0412405160023 223.23371491557918,166.17675440525636 224.5010355198756,165.6414515429642 225.27552540437318,165.36952259001555 224.30238862219267,164.7315687368391 223.81771349324845,164.3916560796788 223.0187568354886,164.05579484294867 222.0208620087942,163.60197616007645 220.20012629323173,162.8811768933665 219.3111668622587,162.56377234100364 219.21242595557123,162.53225697024027 219.11921919998713,162.47958126908634 218.37997311993968,162.06537873204798 217.90141468436923,161.70520197565202 217.67101923550945,161.52781470527407 217.54111231991556,161.45127700618468 216.91196671989746,161.01771294651553 216.6480750932824,160.73587333591422 216.33408483548556,160.42972127103712 214.44548295100685,159.31631463591475 214.0598400000017,159.17854536604136 212.86096810665913,159.21276257839054 211.5554909866769,157.61085103079677 210.0886496710591,155.05308093887288 209.78368881775532,153.43312941130716 209.60339199996088,153.1404742989689 209.12862008879893,152.48267422581557 208.81200839101803,151.68214552855352 208.66724664880894,151.24000750127016 208.3308285154635,150.3404204477556 209.47814542218111,149.50161297182785 210.54448895994574,147.92889657017076 212.09987669321708,146.1976797906682 212.28978545765858,145.9865109291277 212.76484863995574,145.4579125015298 212.7933932087617,145.42639466747642 213.39195534214377,144.76496935810428 215.04957923549227,142.93376986705698 216.06553287105635,141.75633697165176 217.1476050488418,140.52621675579576 218.064235235448,139.71438765758649 223.79412053327542,139.7864302949747 226.31681962660514,140.02462109614862 229.96149503986817,140.35466576641193 231.57309809769504,140.55323264742037 232.5211855643429,140.6977676107781 233.11159210652113,140.7671083380701 235.0765070222551,140.88417704874882 237.01491626666393,140.89048074680613 238.7270078577567,141.03186364052817 236.03508024883922,138.94713209779002 233.9297726576915,137.29914451262448 231.06570382218342,135.29407621570863 228.2368787911255,131.5891767818248 227.42976654216181,130.45941312582 227.1274271288421,130.06811458896846 224.19024924444966,121.65390104532707 223.5177042487776,121.0964243299095 222.72573809768073,120.07062743819552 222.7169999644393,119.72839386720443 222.58039381331764,119.47892326902365 222.48718705773354,119.19072583399247 222.39048504887614,118.92864596203435 221.51317646214738,116.68474307551514 220.68217998219188,114.66822793555912 219.98778965324163,112.92999318335205 219.44427775999065,111.18814202130307 219.19349333329592,110.53381844423711 218.39482794655487,110.08934563491493 217.47033343988005,110.68873074115254 217.41091413330287,110.66846605727915 216.61254001769703,110.08078941184795 216.08883456001058,109.82410256576259 215.25463409768417,108.84013353288174 215.01520924444776,107.5490333577618 214.92520647100173,107.13607783964835 215.91290680877864,106.6591740414733 216.8758491021581,106.20433564519044 216.7645835377043,105.47298954846337 216.75759303104132,105.26448340935167 216.44185514666606,103.66622996918159 216.0634939733427,102.93622641614638 215.41716337774415,102.21477695857175 215.19754495995585,101.97879671957344 213.7018678043969,100.52598147414392 213.14495743985754,100.15039158670697 213.0205846754834,99.73742210539058 213.839639039943,95.57525869476376 213.802647608798,95.00690693059005 213.58739825768862,94.4556673594052 212.36143815109972,92.41507806995651 212.1668690488441,91.65576322685229 212.18376277328935,88.23971456906293 212.01511679997202,87.54073535074713 209.3619282488944,83.68234789848793 208.0654805332888,81.8618968105875 206.54329770663753,79.63743094401434 205.71200995554682,78.37408279906958 205.31471615994815,77.95026276772842 204.73858190211467,77.65120116760954 202.84794111992233,77.46473785454873 200.09484657773282,77.07694770209491 198.5784891732037,76.00905744626652 196.9167874844279,77.28548070346005 196.5288143643411,77.76605167984962 191.8498352355091,79.57572747860104 192.13557219551876,81.12146160448901 191.65118833770975,81.33854809857439 190.28745699545834,82.10195221239701 188.34409614221659,82.78338384104427 187.85796465771273,82.82436875568237 186.5530700798845,82.81355954823084 184.76029639109038,83.07703382906038 183.3418060799595,82.49603883933742 180.75794005324133,81.68534557765815 179.11109319108073,82.02223403117387 176.83888725331053,81.80785052990541 175.70642517332453,81.23811184288934 174.98727679997683,81.13587399257813 174.45192049769685,81.06921668996802 173.36489671096206,81.21198940102477 171.12210915551987,81.42862541868817 168.4304728177376,79.9036113874754 166.57361948431935,78.81141376669984 165.9936987021938,78.45245113148121 165.33600853325333,77.84982495667646 165.22561678208876,77.74893670540769 165.14027434657328,76.61889503372367 164.913082879968,74.01243549061473 164.71123200003058,72.0464229125646 164.30723896878771,69.76465512247523 163.09700750221964,64.03220535325818 161.57919374213088,60.74544899596367 160.96577678225003,59.66666867386084 160.2501236621756,58.791478892671876 158.7559028621763,56.35957701870939 157.94820807105862,54.01953849021811 157.22206919104792,53.10333564376924 157.09624007111415,52.72811478655785 155.2734654577216,49.91956848686095 153.78565262211487,47.82315774040762 152.75397034664638,46.472236949019134 151.7895716977073,45.423116648511495 150.88954396429472,44.64742206200026 150.18233770655934,43.553246566909365 148.98055310209747,42.25365267088637 147.4840021332493,40.99954850343056 146.7532029155409,40.62025265174452 143.71553649776615,38.31968759384472 144.09914055105764,36.7695967318723 144.25846584886312,36.25875357061159 145.30121642665472,32.46117839071667 146.43134833767544,28.44279455486685 147.1295251910342,26.305182494339533 147.52536263107322,23.70578204555204 148.37092266662512,21.930333240656182 149.90650396433193,18.105027788318694 150.16427889768966,17.690551858511753 152.0837555199396,14.33146578486776 153.88118954666425,11.053423798352014 154.1252747377148,10.08027378557017 154.42528398218565,8.407887354376726 155.30084494221956,6.76927865750622 155.59794147545472,6.510217869072221 156.48457073769532,5.9218108340865 156.73506389325485,5.563179123739246 157.10323057766072,5.182470194878988 157.2209041066235,5 156.29029290669132,5.305017993377987 155.61687409773003,5.487938476726413 153.88934513775166,5.920008666173089 152.02317112882156,6.365594234608579 149.70203164441045,6.894528806908056 148.14431374217384,7.476175143849105 146.52397255110554,7.93076829938218 146.17502975987736,8.032139290473424 143.99836074654013,8.113686587079428 142.1936449421337,8.288945591077209 142.0232513421215,8.304714389145374 138.62703018658794,8.707494161091745 136.9530951110646,8.80345835967455 134.25388572434895,9.033682157634757 133.26997191109695,9.099910876597278 133.12899669329636,9.10802051430801 130.94912369770464,9.250389660010114 128.23010787542444,8.853017319110222 124.6777654044563,8.915191270411015 123.02392803551629,9.065670180832967 122.7786777599249,9.087746419478208 120.96755399100948,9.500887045927811 120.42608099547215,9.624333493877202 117.88969215995166,10.141546321450733 116.55567047104705,10.530806737020612 115.79137507546693,10.697053161798976 115.41272263100836,10.78851116815349 112.98439537768718,11.129563593596686 112.6497248710366,11.146233249339275 111.59590599103831,11.20435176906176 108.64678599103354,11.292655846802518 107.29266659542918,11.388168380712159 105.46319274662528,11.24399850226473 105.31551829329692,11.198044333490543 105.03997582220472,11.110641280072741 104.86754332436249,11.700385948061012 104.20024120889138,13.670094584231265 103.96402033767663,14.440943249734119 103.75255751097575,15.156825404730625 103.61303864885122,15.721329945256002 103.70245888002682,15.892978682881221 103.77935445331968,16.042101230006665 103.67624447995331,16.070484059746377 103.23351239098702,16.069132496486418 102.51552910218015,16.269163765013218 101.60326798213646,16.696256942523178 99.59728383994661,17.797324537299573 98.79162794665899,18.044658516999334 98.23209614225198,17.938336476217955 97.87004615110345,17.69010134076234 97.58955207106192,17.344103440642357 96.69447594659869,15.83486140880268 95.75716551113874,14.528344972641207 95.4210386488121,14.246767132368404 94.61480021325406,13.853458598430734 93.90060344885569,13.746683994715568 92.17278321774211,13.720553492952604 89.61979192879517,13.511509367031977 87.87478670221753,13.297509246796835 86.9986431999132,12.92897802265361 85.52160739549436,11.949528939789161 84.97984312882181,11.597214535693638 84.43749631999526,11.462505937204696 83.74135836446658,11.566578473779373 81.88421375991311,12.035580069874413 80.58951367100235,12.296436430187896 78.11312668432947,12.565852517320309 77.90981944883242,12.403662270517088 75.9087869154755,12.311303881753702 75.12963669328019,12.215791750932112 73.68056291551329,12.613157983287238 71.70428842655383,13.316431371145882 70.73988977773115,13.856161752250046 70.04724707547575,14.195857820217498 67.71766072884202,15.133848732570186 66.98394879989792,15.097806888981722 65.45885326212738,15.317662042332813 65.51885511097498,14.565287958364934 65.65254855097737,14.449503213865682 65.51885511097498,12.624871716136113 65.33185905765276,11.462055406649597 65.29020728881005,11.34762061201036 63.82860885327682,11.667947779991664 62.48963555553928,12.066666595404968 60.518603946547955,12.874914710177109 60.401804231107235,12.949702288839035 58.65854663110804,13.890852223732509 57.36530289775692,14.621603473322466 57.00412671989761,14.884709367586765 56.59925987548195,15.24377631873358 56.96480511990376,15.946140206768177 57.61608732433524,16.89673815702554 57.863376497640274,17.396363575244322 57.831627946696244,17.57476876815781 57.87939640879631,18.064931781613268 57.83599701325875,18.86279588204343 57.86279395548627,18.99840095359832 57.874153528828174,19.25879849656485 57.52987107553054,19.958896928175818 57.72181873768568,20.626556279603392 57.67871061328333,21.09238487656694 57.795510328840464,21.877173171029426 57.69065272877924,22.31686963001266 57.78415075549856,23.387274528387934 58.639031466678716,24.724822782736737 58.980983751127496,25.605554874171503 59.23060309328139,26.522323387034703 59.4208031288581,28.23691796930507 59.416725333197974,29.328016615705565 59.39138474664651,30.342526246793568 59.60226503107697,30.959698987251613 59.7077051732922,31.7237293983344 59.69605432881508,32.22962778364308 59.64566442661453,32.8445427675033 59.32322730659507,33.723440231056884 59.297304177773185,34.63341748237144 57.71599331556354,36.21911137067946 57.26685326208826,36.92546222067904 56.667417315533385,37.54126495931996 55.6025301333284,38.694933163933456 55.74321407999378,38.97602906351676 56.349057991057634,40.15221327752806 56.56809386657551,40.586016889312305 56.66392206214368,40.769808814278804 56.442556017660536,40.868011299171485 55.693697991082445,41.25811798259383 54.37540494219866,42.162658285640646 52.96740039100405,43.20638863928616 52.715742151020095,43.423512757057324 52.4139852799708,43.73613507091068 51.89581397327129,44.2492130874889 51.319388444302604,44.40957787481602 50.57955982221756,44.74832557851914 50.095467235543765,44.831661036936566 48.83397205325309,45.34788970975205 48.00181048887316,45.70420390338404 47.762385635403916,45.70555528358091 47.593157119932584,46.1307891595643 46.16476359101944,44.461381081608124 45.29968839103822,43.428467869292945 43.546818844391964,41.36893338011578 43.28438357322011,40.65403793839505 42.570478079956956,40.209873620187864 41.911914097727276,39.909409011364914 41.308400355512276,39.47560405789409 41.19451335107442,40.00445857993327 41.098685155506246,40.35492535273079 41.8603591111023,40.503580755146686 42.15745564433746,40.719356144429184 42.66659754666034,41.23784686718136 42.75223125319462,41.43830559228081 42.901362062082626,42.65366714308038 42.70504533336498,43.87713029095903 42.71815253328532,44.72535201406572 42.8291268266039,45.090676448191516 43.230207146611065,45.97267793142237 43.87566392880399,47.00377730210312 44.1366428444162,47.3758547808975 44.916084337746724,47.98351990804076 47.01148871111218,48.446137075545266 47.38606336002704,48.67001280246768 47.98346040886827,49.174971095868386 48.42094961775001,49.915063973050565 48.381336746620946,50.86731612827862 47.56898161768913,51.55425042187562 46.650895075523295,52.00019349728245 45.754653866635635,51.86235664365813 44.96094008884393,51.27181933738757 44.32509525329806,51.10245060140733 43.63827797328122,51.20695473055821 43.0231133865891,51.805600267020054 42.833495893282816,52.654241696815006 42.86262300447561,53.29162149771582 43.2013713066699,54.24971470842138 43.886149688856676,55.30960325006163 44.719476337661035,57.12126654747408 44.3679121065652,57.48611984733725 44.60646314662881,58.370323529990856 44.71539854211733,58.973003360501025 45.09667242667638,60.24141826748382 45.37745777773671,60.82472450088244 45.841161386691965,61.48505230608862 46.009516088757664,61.81476503459271 46.19389070221223,62.41022856644122 46.2565139910439,62.92010981857311 46.245154417702,63.979505935451016 46.402440817677416,64.6371216927655 46.60167025774717,65.14924985537073 46.89643662213348,65.76497315679444 46.98090524435975,66.11855159199331 47.02663480886258,67.05722074233927 47.17168782220688,67.59862021560548 47.44810410658829,68.39270038064569 48.30764515546616,69.01562114752596 49.54146958212368,71.12669229181483 50.05265038216021,71.5919629666605 50.70975800883025,71.85725238570012 51.41783807997126,72.03426195500651 51.70386631099973,72.460345471045 51.017049031099305,73.551223587594 50.47907128883526,73.83047309808899 49.41709681774955,74.04441401420627 49.311947946669534,74.07323972176528 47.30246855108999,74.66957069258206 46.13126741326414,74.93350518046645 44.74452565331012,75.10285546915838 43.518565546604805,75.08168669021688 42.58125511102844,74.93575717986096 41.57491342211142,74.620026640594 40.77566549333278,74.1669232447166 38.939492408768274,73.04992478166241 39.013766542077065,72.92020846158266 38.783953635487705,72.01444409682881 38.64909511106089,71.68294511258136 38.051406791084446,70.32586590910796 37.48080668435432,68.47602683329023 36.92214869323652,66.86534340283833 36.41621077328455,65.4253571536392 35.266854968853295,66.64058546011802 34.74489713774528,66.97209208423737 33.71583630214445,64.37092267570551 32.948919466580264,61.671979665290564 32.65444437332917,60.138720175018534 30.44806570664514,59.62567942100577 29.826201884425245,59.42343563248869 29.490075022215024,61.0089498530142 29.274534399970435,62.11024487169925 29.051711999927647,63.00073580886237 28.74879004433751,64.24885838187765 28.487811128841713,65.34743457450531 28.22654094209429,66.39600891945884 27.94808575999923,67.425660795765 27.927405511029065,67.53916543046944 27.93235711986199,67.59952104557306 27.706330737681128,68.57691936043557 27.445934364455752,69.71060585352825 27.20417934213765,70.77086990769021 26.962715591071174,71.83428166777594 26.716300231055357,72.90354351204587 26.592510008835234,73.43592045991682 26.548236800008453,73.63139525766019 26.404057599953376,74.14530397369526 26.094436408835463,75.30688636098057 25.877730702166446,76.16309339320287 25.668598044430837,77.05713030067272 25.552089599892497,77.55256479716627 25.46674716437701,77.90387221495621 25.232273919973522,78.83978845423553 24.414675911073573,82.33029735012678 24.014469404355623,83.6733402608661 22.20625834655948,81.54617626575055 21.26224867545534,80.84177101147361 20.236100551090203,80.5782940389472 19.74996906670276,80.17249384173192 18.918681315495633,79.82028928684304 18.880816071061417,79.42709862173069 17.967972408863716,78.56820200791117 17.29804885329213,77.88315410085488 16.920561493257992,77.52283875906141 16.78948949323967,77.23278447787743 16.599289457662962,77.23278447787743 15.754020693246275,77.10442182375118 15.828877368825488,77.75479182839626 16.128012799890712,79.00328063016059 16.12073102220893,79.88469502149383 15.924414293258451,80.33418346667895 14.582819555536844,81.60157376946881 13.496087039937265,82.54287880269112 13.222292195423506,82.3757861952763 12.921117866644636,82.8333764282288 12.769656888907775,83.36482845037244 12.493240604409948,83.63460741506424 11.400100124301389,83.80845478537958 11.060769279953092,84.05166071932763 10.690272426581942,84.85378800390754 10.23093788442202,85.47891379834618 10.410069617792033,86.27698246191721 10.515218488872051,86.96695821534377 9.90063644433394,88.58965371269733 8.180971804424189,90.4667951897718 7.927565937745385,90.71089445787948 6.772093439940363,91.4238248935435 5.738080995506607,92.30699070863193 5.384769137715921,92.74024055991322 5,93.59728009853279" stroke="red" stroke-width="3.4412495212442145px" fill="none" stroke-linejoin="round" vector-effect="non-scaling-stroke"></polygon></svg>