<svg width="251.58084209775552" height="160.5316139543429" xmlns="http://www.w3.org/2000/svg"><polygon points="5,37.23982867959421 11.402721564401872,47.457389131886885 12.997430897783488,49.56391250540037 11.924679395509884,59.594955591484904 11.907203128910623,59.65512598055648 23.08356693328824,85.62094508111477 24.51254300447181,87.80897535098484 23.63523441774305,98.15896123938728 22.97958314663265,103.03365663508885 26.87154773331713,105.6842293626396 26.870965191046707,115.07586297800299 20.333967644372024,127.309618813626 20.094251520000398,127.93329629313666 48.74921216000803,124.88680257939268 48.98252031998709,124.97816182801034 54.04976383992471,142.11458065011539 54.71444451552816,142.42979023000225 75.87645582214464,127.8839991533896 76.30025528883561,127.82429984991904 92.61143751104828,137.9910366209224 92.85930922662374,138.1022892158362 106.62303431110922,136.0314440143993 107.3523771733744,135.91024084720993 108.75135231995955,135.05865102435928 109.416032995563,130.07477138354443 104.92113720881753,125.71853214880684 104.88734975992702,125.33455298637273 108.59231829328928,121.63854938291479 109.06417749333195,121.62905149569269 119.5968321422115,136.8780553038232 120.36229262221605,137.11277227511164 131.73089536000043,126.31643475231249 133.1892898133956,125.61541413632222 143.14930545771495,129.37240605184343 143.45834410667885,129.3529586859513 147.48574975994416,124.32462576712715 147.8976071110228,124.24185946886428 160.38614727114327,132.54139900492737 160.99315626663156,133.4698821551865 157.69072440895252,143.2723065703176 158.30297628440894,143.60062928730622 168.17823203559965,133.62003103189636 168.68475249782205,133.8154053190956 174.34123747551348,154.4897194514051 175.27767409780063,155.0206159700174 181.65505507553462,145.5904533638386 184.97234175994527,144.0786409546854 199.24608256004285,148.29477608273737 201.2153665422229,148.37210655712988 223.51217009779066,136.30324639426544 225.49514382216148,133.62229230930097 231.25998165330384,121.87011679256102 231.4262974577723,121.30928904924076 227.06888163555413,112.43625955237076 223.92519253329374,109.64872043655487 246.38103011553176,72.81439843698172 246.58084209775552,72.73839831771329 243.71822961780708,62.81563150300644 239.71965980436653,48.6789579995675 211.4031561955344,61.615857244469225 210.87566421332303,62.18407694675261 204.51488568889908,44.9323393504601 203.85719551995862,45.047258932725526 206.87243406218477,37.20996662264224 204.92237397329882,32.86046910373261 183.47404316440225,26.938081318396144 179.48013368889224,28.37740511575248 168.14182314672507,18.494249186420348 167.24004778661765,17.81550672237063 153.87390776886605,24.23632589809131 149.06152647105046,5 73.94241564441472,17.665730600827374 72.99054165324196,17.86844871053472 15.556830151122995,14.496878152422141 6.941904497798532,10.241955010569654 5,37.23982867959421" stroke="red" stroke-width="3.0493397475460267" fill="none" stroke-linejoin="round" vector-effect="non-scaling-stroke"></polygon><polygon points="20.094251520000398,127.93329629313666 48.74921216000803,124.88680257939268 48.98252031998709,124.97816182801034 54.04976383992471,142.11458065011539 54.71444451552816,142.42979023000225 73.53580117330421,128.51988617505413 74.98400113778189,128.02329746459145 92.61143751104828,137.9910366209224 92.85930922662374,138.1022892158362 106.62303431110922,136.0314440143993 107.3523771733744,135.91024084720993 108.75135231995955,135.05865102435928 109.416032995563,130.07477138354443 104.88734975992702,125.33455298637273 105.0163828622317,124.34543040551944 109.24622193770483,121.64216762571596 109.7102168177953,121.69146617595106 114.75940152886324,134.62765395222232 114.78328575997148,134.74071727483533 121.59990357328206,137.30950017791474 122.98955804447178,137.41939637740143 130.56085930671543,126.97132165392395 131.73089536000043,126.31643475231249 147.48574975994416,124.32462576712715 147.8976071110228,124.24185946886428 160.38614727114327,132.54139900492737 160.99315626663156,133.4698821551865 157.69072440895252,143.2723065703176 158.30297628440894,143.60062928730622 169.7968255999731,134.66745224851184 169.98644309327938,134.86508686223533 174.47522218665108,145.30961792945163 174.59726478217635,146.2032250778284 170.8550135466503,151.40606242412468 171.00064910226502,151.85647171211895 176.83976106659975,154.65432464302285 177.996107377694,155.5316139543429 181.65505507553462,145.5904533638386 184.97234175994527,144.0786409546854 199.24608256004285,148.29477608273737 201.2153665422229,148.37210655712988 223.42682766215876,136.2480718953302 223.51217009779066,136.30324639426544 231.25998165330384,121.87011679256102 231.4262974577723,121.30928904924076 227.06888163555413,112.43625955237076 223.92519253329374,109.64872043655487 246.38103011553176,72.81439843698172 246.58084209775552,72.73839831771329 243.71822961780708,62.81563150300644 239.71965980436653,48.6789579995675 211.4031561955344,61.615857244469225 210.87566421332303,62.18407694675261 204.51488568889908,44.9323393504601 203.85719551995862,45.047258932725526 206.87243406218477,37.20996662264224 204.92237397329882,32.86046910373261 183.47404316440225,26.938081318396144 179.48013368889224,28.37740511575248 168.14182314672507,18.494249186420348 167.24004778661765,17.81550672237063 153.87390776886605,24.23632589809131 149.06152647105046,5 98.89299029333051,11.718042187276296 98.66142975992989,11.749265259946696 88.38509368896484,35.69740284100408 88.28285752888769,35.690615962201264 89.86067313782405,60.22244597575627 90.01067776000127,61.04582643782487 84.46021546667907,68.3977523233043 84.19981909333728,68.80218927335227 87.41253944882192,84.84651190770091 87.2928270221455,85.40788576146588 70.27385599992704,98.39417220372707 68.7411874133395,101.10993581463117 70.61376938666217,115.47569045779528 70.37026673776563,117.0849434240954 35.971148515469395,109.70254474831745 35.580553955514915,109.49312739341985 20.094251520000398,127.93329629313666" stroke="red" stroke-width="3.186851686976619" fill="none" stroke-linejoin="round" vector-effect="non-scaling-stroke"></polygon></svg>