<svg viewBox="0 0 73.02049455999737 78.49063287278047" width="73.02049455999737" height="78.49063287278047" xmlns="http://www.w3.org/2000/svg">
  <title>Horšovský Týn, Nová Ves, Horšovský Týn, okres Domažlice, Plzeňský kraj, Jihozápad, Česko</title>
  <desc>Geojson of Horšovský Týn, Nová Ves, Horšovský Týn, okres Domažlice, Plzeňský kraj, Jihozápad, Česko</desc>
  <metadata>
    <collboard>
      <support-module name="@collboard/map-svg-geojson-import" version="0.11.1"></support-module>
    </collboard>
  </metadata>
  <polygon points="8.05255000000011,36.16148366974778 19.006164222235157,41.43549335559476 19.05335014221032,41.533762015132766 12.72177154664655,48.96711867815577 12.518245857798092,49.03329512273888 13.741730159999634,52.14260070821149 13.719156648883427,52.50677340848017 10.59753133333993,57.885974216674754 10.680252328900451,58.4205682484677 13.397666159995197,58.480116789207045 13.742312702211848,58.48830330669409 16.07087960001786,62.83393807004143 16.12185204445973,63.02266126045254 12.91903490667005,66.58260134311388 13.083530266659864,66.97112183363754 26.021428933315974,64.91916432764958 26.387483902224403,64.83663590675098 28.714303173335566,68.05504021305353 28.804742853338894,68.05649783171941 32.603063777765556,63.914237798518684 32.92062210664858,63.74491674319836 39.87129744888057,63.70398806530977 40.07540567999945,63.707688467584035 40.65219529777073,67.88965630628047 40.81880237334531,68.27267346229166 56.32156162668957,69.83801525773708 56.87308347557678,69.74103061942844 59.30017282666063,58.913776246677685 59.3512180888863,58.51454501206865 58.27555387555162,57.266367945041225 58.27628205333144,57.19683703076555 64.60931700445485,50.13618672456471 64.96794455999748,50.10096811450023 64.73747629332479,48.22717086011073 64.84000372444984,47.65310715036287 59.653630319989816,47.55742928128859 59.33112038221566,47.67228757061059 47.47776969779056,19.581936349953708 47.471580186662095,19.565888365955857 41.17138605332707,18.784244858113766 41.059756400012475,18.74956723543403 42.54909840887535,18.50648658513785 42.76726047110401,16.96347167474562 39.40948710221687,14.650495275862 39.39222928891081,14.633772445762247 39.602818302235164,8.218114442926549 39.50152877331834,8.105530676133299 37.73081887112471,8.052549999999997 37.52022985780036,8.098908094419699 37.925460791105934,11.139262463293221 37.95691807111848,11.20088269914379 21.93394861333195,18.479889052461317 21.657823599998437,18.696709069372105 22.48153830221395,21.2590931180672 22.640863599990325,21.517872324045697 20.032093893336196,24.326434690919655 19.875025946653977,24.45637827723806 21.952153057769237,28.549443635223383 21.951643333340826,28.654804307625113 20.33618093335076,27.384403664029037 20.275086817775218,27.272756908241377 19.351320488909323,37.11284427233443 19.20634029334883,37.3215131410758 10.807392168884462,38.87910019633239 10.731443226664624,38.88224135284656 8.05255000000011,36.16148366974778" stroke="#009edd" stroke-width="5.154638226093135px" fill="none" stroke-linejoin="round" vector-effect="non-scaling-stroke"></polygon>
</svg>