<svg viewBox="0 0 317.41224851559605 300.8204734791791" width="1000" xmlns="http://www.w3.org/2000/svg">
  <title>Kynšperk nad Ohří, okres Sokolov, Karlovarský kraj, Severozápad, 35751, Česko</title>
  <desc>Geojson of Kynšperk nad Ohří, okres Sokolov, Karlovarský kraj, Severozápad, 35751, Česko</desc>
  <metadata>
    <collboard>
      <support-module name="@collboard/map-svg-geojson" version="0.11.0"></support-module>
    </collboard>
  </metadata>
  <polygon points="8.052550000000338,131.2834143622091 16.707379795589077,151.84924618280604 17.497598319991084,152.2544110103405 36.12234697779786,135.1119179616577 38.04735775115114,134.59679100276082 77.44672713775799,142.61246434300085 79.16173143997003,143.2574847164575 88.75765819554363,161.96406024616556 93.45090960883681,163.28214453053772 113.32695896001678,161.250056740049 113.74697190229926,161.2173542332381 117.0828999377336,151.62849462495763 118.18332219552394,150.6369267367187 123.38629805329401,160.96481804291363 124.3469101777082,163.31302993835527 117.41436646224611,166.66634158048657 116.92561353775818,168.2646308053296 128.02508176884294,169.80613534493716 128.6084978043582,170.64092316650897 131.5322772178115,190.68395257657505 131.57771551117912,191.24799371135998 152.10067799999524,201.43953815501993 152.4714661245016,201.679312080763 141.30267536894098,237.0766711752873 141.14072863115143,238.00700359195582 148.35434896892548,241.01636787926657 148.72222438219615,241.66881508610788 153.12857375117164,264.16092906668894 153.44984578665026,264.99399292827695 174.8597288088422,268.3806938226113 175.39508511112217,268.39431315681543 182.42287447999843,284.7405314155982 183.92059053327102,287.8740821160387 198.9021201333744,282.15893835805 200.33167874659557,281.1184845971653 196.68205172449962,291.39932945415023 197.3930445066435,292.0856702203524 242.73463583106786,285.741020999361 242.75240336891875,285.733757933696 246.79495512005087,257.88719744500816 247.51293840885774,256.52110801017955 275.75691551107593,255.32662397783827 276.6869441688541,254.78090921193473 278.3515585688656,222.33293658230798 278.88341961775586,221.39981267738733 296.791641342199,210.79415820466932 299.34492390228115,210.29283342915699 307.00739302227885,216.81132765147015 308.2767525244053,216.7413984818628 309.3407658933211,205.05382958029043 309.3596985155964,204.10473763375887 293.79038381341525,187.5476392026536 292.2868423377877,186.0062603944458 304.7485855555642,161.49487118333457 304.7861595288632,161.0933571835991 292.4517017866965,149.1202688024856 291.7742051823079,148.34671921839583 291.63002598225285,133.8322749336727 290.9732096266016,133.26172524257674 271.8285420356333,148.71237277039438 271.6462063200088,148.84001069787303 221.20562292446994,155.8904136027337 220.91289545779728,156.09435498345522 212.7182740177741,137.79519183361083 211.59862786668964,136.68908921184595 187.88799433780514,126.87110301675386 187.55740162669827,126.53539482368035 184.59808713777602,117.17033561235405 184.48216123562452,117.0440419778239 206.06855455108598,98.08190142692877 207.23946441777662,95.7470695653243 201.8529877599576,85.69914646258223 201.084323297815,85.4583359161403 209.16913552894403,80.79019349712291 209.7152688622955,79.83783288134839 197.31352749336656,76.03561877643335 197.3336251999499,75.51489928793274 228.15010875554435,81.99608688001865 228.14224443547573,83.11064629394207 227.9063148355126,74.41665872166743 228.57099551111605,73.51834197858227 247.54323060447496,62.465152634518404 248.89181584885955,61.62904063249118 247.66119540445652,32.48807411679411 247.14943206214957,31.2023733260354 224.59019323552639,10.806478723454006 224.1515389422202,9.17203373407358 196.77001559999917,19.354389467952956 194.39673858669266,21.496882184386436 164.55397435554914,62.98726659638453 163.82084496887546,63.320346475789506 161.87573648893886,56.500513735496156 161.26901876446937,54.53968134624995 136.1072725599879,58.232302560216 134.36488877339434,57.982373248239696 126.857667155542,36.41148237247364 126.1085178578287,36.005647178600725 107.19162427550327,44.313074427518245 106.42558125334472,43.766829934996736 123.44222210671433,55.78843597640628 123.42212440001458,56.07335824412405 111.68011209773977,57.68700187278557 110.58318509333913,57.89648838199321 101.1017278844738,43.152416852397096 100.75657161777053,42.423935185921096 86.60924247999355,47.29512706920616 86.51079284444131,47.37238177550137 80.99440927114483,63.80292515029544 80.76080984003056,63.93970102046262 34.346467013332585,64.65175208435505 31.17743732440431,65.03390488451225 22.558142604400928,80.72703612360749 22.457945342153835,80.97512181630702 28.367544915505277,88.47026599312778 28.460169128935377,89.21631312705688 21.92841446222883,111.06000195825584 21.42014637331158,113.07529528925772 28.404536346650275,121.74684035193752 28.18666555555683,122.51548744910508 8.052550000000338,131.2834143622091" stroke="#009edd" stroke-width="4.955303387318081px" fill="none" stroke-linejoin="round" vector-effect="non-scaling-stroke"></polygon>
</svg>