<svg width="2205.3846385779325" height="1530.1468609105214" xmlns="http://www.w3.org/2000/svg"><polygon points="5,437.0987135738833 21.448370915604755,455.1293868262437 22.06440931558609,456.58748653688235 28.182267733383924,484.5240986927529 28.540239928872325,485.6888249453041 27.26563754666131,512.1333890004316 26.85407146671787,513.159837144136 47.22149518225342,523.1855553368223 47.47111452440731,523.4440425676294 45.52484096004628,525.6962441216456 44.1177102222573,527.3248677870142 54.494534826721065,540.0483269768883 55.11639864894096,541.3615342246485 58.59213681786787,558.0306389261386 58.79398769792169,558.7837742546108 54.46715534233954,569.0920561951352 53.34022741334047,571.8522176014376 44.529858844471164,570.1084709913703 42.51746673788875,570.7567715662881 29.425121564534493,582.6909351037466 29.03714844456408,583.6868627048098 37.1851665066788,614.5961296199239 37.41876593779307,615.3202154678293 59.66517959116027,597.8527034157305 61.3761060978286,596.8994625022751 82.53666104888543,593.1792528977967 83.90272256010212,593.6640957918135 109.01873920008074,608.1489529261016 109.70410012442153,608.7469739881926 114.82552007120103,632.440980710322 114.88319175108336,632.6061177678057 123.47510698670521,641.2645426321542 124.62358897784725,647.0680056145065 152.75746560003608,667.1854095518938 153.3947667911416,667.7340040756972 142.3794759111479,677.3213170026429 142.093447680003,677.5347976446501 155.71474119124468,692.760628774704 155.9130968177924,692.9967280853889 127.40988842677325,717.3442259707372 127.15094840887468,717.8425528574153 135.18420565337874,729.1972679739702 136.02597916452214,732.0384070636355 136.02568789338693,734.4633079418563 136.11627320898697,740.660106797237 129.45082510227803,744.9408815069473 128.84935025777668,745.3832412526826 137.65301959123462,761.6075159562752 137.73632312903646,762.4708724249504 130.24395633779932,799.2650940116146 130.18977991107386,799.4571650794824 133.82804736006074,800.2210118794465 134.53700124449097,800.3833622531965 118.77049600007012,812.6284954957082 117.5398755556671,813.4393135507707 121.68699363560881,820.6358589135925 121.80728860443924,821.384995856497 105.21532103116624,828.2557362851803 104.35141091560945,828.7347419296275 106.04719132452738,850.2769489409402 106.79954460449517,852.7865885595093 98.29704960004892,846.351671824872 97.43838236446027,846.5468064408633 84.87323790229857,861.9401680651354 84.85809180443175,862.3441567709087 91.48946119123138,870.8308533252566 92.46230670227669,871.4330425448134 122.99421838228591,870.7638940398465 123.28665457782336,870.8197673522518 122.09069539560005,885.1592309989501 121.39863523561507,885.2275161597063 125.31215388455894,890.3448525809799 125.21283043560106,890.8534315846046 115.54962005338166,902.9091165402788 115.55165895121172,903.3046063722577 159.7313698133221,903.3414063990931 160.82218012446538,902.4901271021808 166.03622428455856,911.2457330423058 166.13030485343188,911.3805138177704 182.93460906669497,909.768016065238 184.7754424889572,910.9566634706571 173.3276140090311,926.6642988097738 172.29534919117577,927.450316308008 150.41389824007638,933.0724988424918 149.93155327998102,933.9799612238421 150.5982728532981,939.8608656582073 151.01712071115617,940.3041658567381 163.61197482666466,929.1717425122624 163.92800398229156,928.7182235929067 176.3754749156069,938.1279966649599 176.82898403552826,938.9653965494945 158.4162807466928,956.6143362011644 158.58871324453503,957.0500673284405 120.06432227557525,923.2949874429614 119.17128504894208,922.7620995536563 110.49169720895588,934.0167561516282 110.18003712012433,934.0987689202302 74.16349041787907,925.839708925283 73.27511352894362,925.8680819615838 30.940605155657977,961.1391604847158 30.763221048982814,961.3084849902662 72.7304365511518,1011.5695325424895 73.26987064897548,1013.628873965994 63.198880711221136,1030.2349656589213 62.883142826729454,1030.5562272359966 49.2356349156471,1037.6384864831925 48.69707463122904,1037.8334525638493 54.44531000894494,1043.9584018334863 56.040601884480566,1045.135251798958 51.58182371559087,1054.8595328678493 50.98850446229335,1056.199373912823 56.74751687119715,1060.8922982054646 57.048399928957224,1061.4478927420569 58.222805048921145,1076.7492337300791 58.37339221336879,1077.17852616671 70.84037831111345,1100.7099216817878 70.97640192008112,1101.2813635405037 69.85733831115067,1140.3618307926808 71.83390407112893,1143.053314519755 62.02622321783565,1141.0500954993186 60.615888497792184,1141.6391491807299 43.641190684516914,1167.6237159962766 43.86576071113814,1169.8485579648404 57.06063331570476,1167.668000489066 58.355333404499106,1168.4726481811958 89.61484032007866,1204.7992038040538 91.09041976893786,1206.0779218261014 141.4179899734445,1230.5678442884237 141.87965468445327,1230.8290484562167 153.99653290666174,1248.2449164646096 154.53218047996052,1248.7026511198492 181.5909754311433,1306.914455398859 182.28216177783906,1309.9632764871349 188.74983680003788,1417.454217590217 188.91702641779557,1417.521896533377 222.72515555564314,1410.81361848925 226.39138503116556,1410.037276473944 260.88604017777834,1431.1037134721992 268.6819114666432,1437.4119755227002 337.50403214234393,1375.3415239757742 340.08964579564054,1371.9400950929266 363.13064704008866,1365.3998962038313 365.14973838231526,1364.0544017828652 433.81165994668845,1431.188638679625 433.9034103467129,1431.2744484917494 424.1799068445107,1446.734269278997 423.55658666673116,1447.8585617583012 473.848039253382,1475.0742541561485 474.7460280889645,1475.3988516075187 509.2438872178318,1509.1207886562333 513.9680133690126,1512.739423638035 519.3419653689489,1505.002441389428 519.4083751823055,1505.0183595633716 521.9101027555298,1513.6493790109525 522.2578804623336,1513.9071548060165 550.8837139911484,1525.1468609105214 551.2492592356866,1525.0867310371832 620.33381518221,1468.6105089849443 621.1435488711577,1467.031692026765 628.1923097600229,1423.4527919288375 628.2738656711299,1420.7810776588158 622.2096011377871,1388.828596074134 622.4717451378237,1386.7492912307498 637.6673590044957,1355.3007457737112 638.937301049009,1353.7786433402798 723.6389401600463,1307.482267758809 727.2390510934638,1305.6633157826145 763.679979804554,1294.501439355954 764.9353582933545,1293.5321618652088 786.7195246934425,1257.0815958222956 787.878783715656,1255.576525546203 819.9739474490052,1236.585201811744 821.8526461155852,1234.7036883603432 875.3008950045332,1162.0783418573556 876.1018905601231,1161.1926279737963 904.1250841600122,1146.068516956584 904.4076171378838,1145.9135060810368 949.2924953600159,1178.2154288591119 951.1595431823516,1179.0479360427125 971.8427047822624,1175.1023556609289 971.9038717155345,1175.053644353 991.2879641600884,1189.1130546207423 992.4064452267485,1189.493864032731 1031.055208959966,1192.0399566562264 1031.8299901155988,1192.2303589288495 1051.5752587377792,1214.0989639221807 1054.4151520711603,1216.5385145277833 1073.41767936002,1223.3124434400233 1073.0506777600385,1224.2289002722828 1083.9413046045229,1226.969393501 1084.7102603378007,1227.2881562642287 1106.7711342934053,1218.7301024241024 1107.277946026763,1218.460029127018 1124.2532263823086,1224.2820280884043 1125.6571531378431,1224.923988192575 1136.6322486044373,1251.3180066258064 1136.812836693367,1251.7385500774835 1184.301678648917,1273.180781681498 1184.878395449021,1273.003727982461 1194.5660726045026,1290.8898633429199 1195.096186026698,1291.6909655522322 1207.1285956266802,1298.7060186677263 1207.3586998045212,1298.9228842798038 1226.975809137919,1299.9142672326998 1227.6399072711356,1299.9895059364499 1242.142295893398,1289.8851620042115 1242.3024950044928,1289.2743721804 1252.0862916266778,1291.367869429465 1252.9630176711362,1291.3590174742858 1261.6166823823005,1330.5431602608296 1261.948731448967,1331.4104968542233 1271.487860337831,1337.2472298537032 1272.090791537892,1337.2206794829108 1279.1599414044758,1351.28750547237 1279.232759182225,1351.5043196494225 1326.1798368711025,1375.3437361263786 1326.835196871194,1375.246401478711 1334.7199058489641,1389.2356066550128 1334.673302471172,1389.5983763256809 1347.317381404573,1394.650545899698 1347.6610813156003,1394.3541433328646 1366.9548797156895,1429.875390558038 1368.4680331378477,1431.9808300640434 1415.9059026489267,1407.9174729224178 1418.3933579379227,1406.8956071265857 1437.5415207822807,1419.538100279984 1439.469735537772,1421.0907150677522 1449.4282948267646,1418.62687400321 1450.3836640712107,1418.3747379156994 1470.4959342933726,1433.3122006111662 1471.9668534044176,1432.830077316321 1482.3972718934529,1421.108408620872 1484.7944331377512,1417.4060018599848 1488.8460142933764,1403.6353371540317 1488.9392210489605,1401.361524836102 1505.1193312711548,1395.1991107989452 1507.6096992711537,1393.898478912597 1533.3930180267198,1364.397744772199 1534.922191360034,1362.1810493547819 1559.1355588267324,1375.1711883126409 1559.8724747378146,1375.423373533471 1584.819845404476,1313.6205672906945 1585.577150293393,1312.297328915738 1606.7671236266615,1324.1442354182363 1608.1273597156396,1325.153206788411 1608.7535926045384,1311.943283864006 1609.5720644267276,1310.3367973368731 1633.0572541155852,1286.5435014399118 1636.0305496178335,1285.041729495686 1643.3216480711708,1292.7664739100146 1643.6624352711951,1293.0541604461614 1705.4314259911189,1307.954484724265 1706.8274884267012,1308.9427293447661 1800.4653252267744,1404.8297428436927 1800.960486115655,1405.0686232095468 1800.6925166933797,1397.5880066329264 1801.1119470933918,1397.4818340313504 1806.681050737854,1404.329862726794 1807.9888580266852,1404.6793365553604 1813.3977625600528,1384.3470062504057 1814.437600426725,1382.0685719519388 1817.6357572267298,1385.046016351378 1818.4221892267233,1384.7628732848098 1827.6147054934409,1362.0704352303874 1827.9205401600339,1362.1589265342918 1818.1862596266437,1410.0319681431283 1818.3784985600505,1411.5359901284683 1830.5332420266932,1435.2318370962166 1830.5186784710968,1435.3026067872415 1854.638839182211,1437.9210694796056 1855.3641042489326,1437.9785691580037 1880.8445010489086,1412.0668189817807 1883.0639869156294,1409.3020714441082 1904.5044534044573,1418.4366661040694 1906.0511030044872,1419.6265686511179 1925.5313149156282,1405.5419594706618 1926.83620949334,1404.360828784469 1932.5742503822548,1393.9869575140183 1933.6111755378079,1391.3989438336575 1913.5018180266488,1370.9326639567735 1912.942577493377,1370.4061610147473 1917.879622826702,1369.578796722286 1919.5486062933924,1369.4991572157014 1930.631472071167,1353.097233631881 1931.352076799958,1352.1684776760521 1938.6851182933897,1362.8314592897077 1939.5006774044596,1365.4065329532023 1974.9338080711896,1384.8867484209477 1977.3542710045585,1386.6165689829504 2029.3723787377821,1380.4139273195178 2031.3035062045092,1380.3519885106361 2047.7923638045322,1367.53028254112 2049.8370870044455,1365.441928946355 2057.4188740266254,1329.0607148591662 2058.065495893359,1326.7551606702036 2068.8862176710973,1311.022764082707 2069.066805760027,1310.8324638433405 2123.787909404491,1305.8978773380513 2124.6908498489065,1305.8536204597913 2123.9364576711087,1289.5753412894555 2123.4879001601366,1285.0120745979366 2159.3404612267623,1249.0957532413304 2159.73658993782,1248.9009729980608 2199.527136426652,1251.5659060202888 2200.3846385779325,1251.6796740423306 2179.9988647822756,1220.3221999578527 2176.136609848938,1215.5281630706158 2165.8075537066907,1185.6591719267308 2165.1638445511926,1184.6854329611524 2165.6744428089587,1165.5038069730508 2165.4597760000033,1165.02907211188 2173.4394393600523,1165.304081889568 2173.4799260444706,1165.2469542826875 2168.217530880007,1158.0562866433756 2167.4593521778006,1156.8512501599616 2177.441795697785,1146.8010525979917 2177.6451029333984,1145.109662229952 2163.6961294222856,1147.012752289942 2162.8261026134714,1145.5955120026483 2150.1799847823568,1154.779510961729 2149.467535644537,1155.0886344574392 2139.303047680063,1143.0174400957185 2137.9812593777897,1144.6441843743087 2137.329103360069,1135.479696142429 2136.9041388089536,1135.1182819154928 2128.182025386719,1140.6824897765764 2128.055613724515,1140.7653118420858 2137.0529783467064,1125.1875752705964 2136.5435451733647,1123.6475029721041 2079.9119943111436,1032.247163247317 2076.8216078223195,1028.4110773063148 2069.738185671158,1003.7295016639982 2069.702650595689,1003.6816389983869 2047.907998435665,998.8221950788284 2046.5553353956202,997.7634293087176 2013.078964053304,1000.111409518111 2012.1509742933558,1000.0857050753548 2005.3043555555632,988.7643806553097 2004.7355030756444,988.1696017864742 1986.8156305067241,978.8927060856367 1986.218524729018,978.7823436568142 1957.8487185066333,951.6284117543255 1957.0215085512027,950.5556786227971 1942.717184284469,950.7852971435641 1942.578830506769,950.4062934726826 1916.1579192889621,973.8908837284544 1912.4809127822518,977.0351528156898 1887.198289066786,948.7027636978892 1883.557400177815,946.3963505594875 1890.1360494934488,940.0306497390848 1891.4397789867362,936.9643203114974 1896.6057634133613,912.3448146696901 1896.7840213333257,910.9256283714785 1926.2743475200841,859.9428299731226 1927.8384733867133,858.1614410721813 1913.7747390578734,838.8965136611951 1912.3973179733148,837.7939627071028 1840.3292720356258,797.5723773454083 1839.4496332800481,797.1735934159369 1797.7136870401446,815.0223518361454 1797.536302933353,815.0622713999473 1788.1285373156425,785.3556891285698 1787.804061297793,784.5656179146608 1769.6360257422784,754.8198905697209 1768.777067235671,754.4511992877815 1764.8020903822035,776.5232333428576 1765.0697685333434,777.1474169594585 1753.724176213378,784.2728339297464 1753.456498062238,784.4068048315239 1711.727542328881,796.870623609866 1708.089857422281,797.0906427197042 1691.327787520131,771.5248209988349 1690.4082446222892,770.0528253775556 1683.0580181333935,777.2756250323146 1680.4689092267072,778.9285709032556 1677.0004528355785,773.1840207179775 1675.470405688975,770.8354065473541 1581.756547128898,825.4548630799982 1581.0470107021974,825.6996914153569 1553.0407108267536,791.4689971288317 1552.8152669867268,790.5139286500053 1533.1789337600349,783.7063401800697 1530.8216766578844,782.3732775137178 1516.4885165512096,757.8745474130847 1516.3918145422358,756.242740333546 1484.1932495645015,727.9637150439085 1476.1771773155779,725.0856939447694 1471.5584913067287,692.7823747743969 1471.2174128355691,692.1561778871692 1457.9998210845515,686.5811278757174 1457.3543643022422,686.586009767314 1429.485253120074,694.4000048783491 1425.7450407822616,695.4082994685159 1410.743413475575,715.4059322673711 1409.8008601600304,718.791278947203 1407.1033984000096,716.6155928299995 1405.9173424355686,715.5608011385775 1407.2333053156035,708.0999033424305 1407.006405120017,707.9654424583423 1385.794586453354,704.3003534187446 1385.7567212089198,704.2684017761494 1373.9876206933986,712.5179851450957 1373.308667733334,712.9435470235185 1341.2033095111838,698.252535275009 1340.7232947200537,698.0741336672218 1339.3441260089166,691.9103141314117 1339.1824705422623,691.1341106976615 1348.8063593244879,678.7411147393868 1349.002093511168,678.1255299064214 1342.3698503111955,674.7906014684122 1342.2163504356286,674.7466620968771 1361.9383173689712,654.6201807551552 1362.4349346134113,654.1319204996689 1356.0811465956504,648.3867918227916 1356.0424075378105,648.0241374965408 1364.934623288922,629.3486333590117 1364.8661745778518,628.8287986873765 1355.9419190045446,617.4587188116857 1355.9177435021847,616.5956840366707 1373.0666214401135,584.707206526713 1373.4735271823592,584.2987143520149 1356.040659911232,573.6381337933126 1355.8356050489238,573.5098076259601 1333.163353031152,577.5882343304693 1331.4072795022512,576.9861327370163 1322.1186437689466,569.5671829593484 1321.697757013375,568.965503567073 1318.072305493406,554.5104965643841 1318.7658220089506,552.0729638583143 1293.9503971555969,536.476381562592 1293.9661257956177,536.1099907612079 1266.9548080356326,550.4907069832552 1265.4113624177407,551.4197236188338 1257.3871345778462,552.2288353093318 1256.5561380978907,552.6236203446751 1250.0878805334214,544.7797445814358 1249.7808807822876,544.4289108217345 1232.4132582400925,551.0804464856046 1230.042311395635,552.1884242029046 1221.3889379556058,534.101270159299 1220.7402771911584,529.7440201976569 1201.0870502401376,523.2099828371429 1200.8884033422219,522.9177409281838 1199.953131804592,527.377719022159 1199.6507923911558,529.430024858797 1190.4020607999992,524.9523228569306 1190.2639982934343,524.9127950301045 1188.579868728877,534.22340160358 1188.527731200098,534.4761024504551 1167.6392234667437,526.1634698092821 1164.0161021156237,525.3142908297596 1164.1535820800345,534.8149609534885 1163.9295945955673,534.8531546709128 1147.2802466133144,525.4977173186489 1147.0221804089379,525.4008965759422 1142.4972836978268,537.123892548494 1138.4372556800954,541.1155027538189 1120.4110691555543,543.7969645562116 1117.7529289956437,544.5190618283814 1119.5095850666985,501.0713422616245 1118.660821048892,495.5558801049483 1103.0032512000762,487.38215361424955 1102.856450560037,487.33018123259535 1096.3244046223117,453.6095231102663 1095.0361124977935,452.82181997201405 1077.9786936888704,454.4718615671736 1076.1955319467233,454.54738821665524 1070.555649422342,462.19765982037643 1069.7159148089122,462.8769307184266 1048.9488671289291,469.0342551395879 1048.9331384889083,469.07512569538085 1047.8609695289051,435.4005564839463 1047.249591466738,434.7776290263864 987.6529006933561,426.1106686996063 986.8026803201064,426.1151120145223 970.2025571556296,457.8363266302622 969.1411652266979,459.4707815340371 963.6862398578087,459.935925909027 962.8802926933859,459.44057155022165 956.4065009778133,444.9433012934751 956.1391140978085,444.6345169983688 957.2494395733811,432.7986452683108 957.4585722311167,431.272851798858 962.5019315200625,413.88099437154597 963.5842949689832,411.45746295218123 970.3779023644747,406.6814196764608 970.5456745245028,406.43346075929 971.105497600045,393.6565344046685 967.959769600071,390.28842566144885 988.3169988266891,360.1522555318079 988.6574947555782,359.75579314975766 985.7552694045007,334.95236762595596 985.6014782577986,333.3641103419359 991.6526355911046,323.1630746117444 991.8311847823206,319.54183368670056 980.5854984533507,305.99832879251335 980.0271317333682,304.7295134664164 984.036187306745,296.41757030942244 984.1893959111767,295.52393777441466 981.5268866845872,280.57261801249115 980.2327691378305,278.3619349556393 960.6238153956365,274.2624198841513 959.7846633244772,273.93605608696816 949.9408648534445,263.20179764024215 949.3015247645089,262.3507181692403 939.0493641955545,198.68787972495193 937.8898139022058,192.59596310101915 901.9015204978641,195.3995288416627 897.6346899911296,196.2321850141161 893.5333014756907,200.08184461161727 894.0905031111324,204.2841462592478 852.2339706311468,227.63108348823152 850.2108014933765,229.06755957897985 765.6565455645323,251.66525640437612 759.2721740800189,253.7828242740943 738.9303822222864,279.733165748592 738.1486105599906,280.54282818274805 720.928662471124,265.69587737013353 718.9215132445097,265.0471258769976 699.6836388978409,274.48607218061807 698.2610707911663,275.87555701989913 680.2008055467159,275.24951181258075 678.2312302934006,275.5314102292177 642.6690665244823,262.4369823820307 635.9153632711386,262.1715197226731 653.2023037156323,250.38056495209457 655.2004235378699,248.1251107227872 664.6501321955584,224.68383223871933 665.0943206400843,223.9606889829738 659.9606673066737,204.68578034377424 659.9612498489441,202.9627071446157 647.223381617805,206.23582308925688 646.7194825955667,205.79015911585884 645.0551594666904,187.04254716675496 645.0959374222439,183.69575152505422 648.9328517689137,169.07494413055247 648.9485804089345,168.4552688350086 645.6618771911599,149.73562867048895 645.5348829866853,146.2107544875471 681.1229698845418,145.10874706105096 681.4917191111017,145.0807185404119 706.0184942933265,158.5041930967127 706.745798257878,158.7675560580101 724.7312068267493,146.63429402949987 728.3718044444686,145.58122730138712 722.7351259023417,108.18987652420765 722.5941506844247,107.65724495891482 730.1639955911087,110.29191202908987 731.2294653155841,110.4067135611549 749.1854555022437,16.093152052315418 748.9198162489338,15.059494522341993 753.8009375289548,12.86262232257286 754.1047332978342,12.73307963158004 745.4603892622981,14.79596004501218 744.3049167644931,15.692510173423216 740.8181102933595,6.205097932659555 740.3704265956767,5 736.5643869866617,12.856390029890463 736.1501994667342,13.972412775096018 745.9587541333167,23.222230085229967 747.12354730675,26.65870620001806 722.279286613455,25.029057552979793 722.1324859732995,25.035289501887746 713.4747434667079,48.82180141011486 713.9597098666709,49.49655868043192 703.933866951149,47.84215344308177 703.8115330844885,47.7451231033192 698.7070068622706,55.19185513962293 699.570334435557,56.10426393704256 669.9870927644661,66.61494129040511 668.6154971022625,65.81116986856796 659.6696874666959,91.51037849584827 659.3574448355939,92.43331725645112 663.4282498845132,94.95291152584832 664.4916807111586,96.2870121410815 631.2873565867776,112.41795552213443 630.1219808711903,113.37640376220224 627.8017152000684,119.99688034906285 627.987837439985,121.80247086455347 633.7250045156106,130.4622479090467 634.350654862239,131.1732395355939 624.8994898488745,130.244233747595 624.0952903111465,128.50144749705214 615.357156977756,137.95112610195065 614.1192547556711,138.61760259512812 565.7769884445006,147.67267430055654 561.4967594667105,144.04588527278975 551.9646210845094,154.32459864387056 549.519400106743,157.22518776188372 527.3737662578933,136.1358795229462 526.5724794311682,133.75912969728233 506.2554456178332,159.39215209515532 503.11816448008176,161.00657341000624 471.6503987200558,161.83357606397476 470.19171299564186,160.8433078615344 475.43342791113537,132.8399230717332 476.1980145778507,127.98710713343462 471.91574670223054,114.07187682966469 470.9641639823094,111.76430389477173 446.84225564450026,71.74369953252608 446.8914804622764,71.44818945025327 422.82578744902276,65.0808301747893 421.93653674668167,65.13290200632764 419.54024931555614,47.02006476483075 418.54235448897816,44.2773731861962 405.1185427911114,38.861770263756625 403.04964408895466,39.582849415775854 395.58057898678817,45.84011513256701 394.51802197343204,46.688913939346094 396.00175701337866,54.088948153017554 394.89172280894127,55.34496204997413 384.2096460800385,57.03046627814183 383.205925831222,57.77284958673408 362.16246186674107,82.79122030484723 361.10835171560757,84.16900638485095 364.23019548447337,97.09556752903154 364.157086435589,98.72156923270086 359.45451434666757,99.95285483641783 359.78860231116414,107.25231951725436 359.1909139911877,107.30349145474611 368.3324578134343,133.07973581785336 368.9321850311244,137.24949947569985 365.46605880896095,153.24754503776785 365.5231479466893,155.11381178785814 373.7192257422721,182.76830117258942 374.0795281067258,184.1459082774236 375.42753080895636,236.8715085236472 375.92269169783685,240.50166501832427 357.1712401066907,238.16606217232766 352.9553820444271,236.37254078342812 348.1272721067071,243.49450917955255 347.10549304890446,244.53554695023922 336.62148067564704,243.78267390624387 335.1674552889308,243.77778222417692 341.8180485689081,215.93346191715682 341.40123960888013,215.62257834197953 329.60388579557184,234.2783760035527 328.6007480889093,234.233459531446 282.3407789511839,222.122133289231 281.78736384003423,222.7207551835454 260.9635182933416,204.10312157700537 260.8068144356366,204.0297331500915 244.6462193777552,224.3978662773734 244.2171770312125,224.73675591411302 226.00632462231442,232.43590371421305 224.96910819562618,232.66849278489826 205.88298609782942,231.52911530440906 204.69693013338838,231.84086593298707 190.43687907559797,242.43745726364432 189.5438418489648,242.74519019032596 169.54953642666806,226.76963808148867 168.75203612446785,226.2679791150731 148.42626417789143,232.17351804417558 145.96181930671446,232.41411237389548 134.19679658673704,227.51634288980858 132.63208817783743,227.71024557185592 120.3788950756425,235.89847591461148 118.27562638220843,237.8058470443939 95.2043329422595,280.72334559698356 95.25676174229011,281.16530140239047 72.50178872898687,284.86142232333077 71.98682140454184,285.3487205511192 73.6249301333446,305.82805722224293 73.61182293342426,305.9872144642286 27.216412729001604,328.8770995773375 23.535328426747583,330.4969503132743 18.278758684522472,354.54571354499785 18.565078186802566,356.3529432678479 30.040286151110195,389.7360313735553 30.37728682672605,390.5115161248832 38.62579342222307,399.0505564880441 38.848615822265856,399.5260489064967 35.36297443555668,403.02510837552836 33.50932508450933,402.2070071048802 37.55158556450624,412.80076206981903 37.874605226679705,413.7232479022932 12.64674047997687,406.7987334759673 12.379062328953296,406.88671878463356 5,437.0987135738833" stroke="red" stroke-width="3.1283861127977692" fill="none" stroke-linejoin="round" vector-effect="non-scaling-stroke"></polygon></svg>