<svg width="8260.429276159965" height="5265.935935276037" xmlns="http://www.w3.org/2000/svg"><polygon points="5,3030.0939804466907 5.106313955504447,3035.2821743529057 7.811640035477467,3147.9448018218973 15.453428906621411,3237.0224998336635 23.908737991121598,3283.559867526288 55.716125866631046,3408.7290593547514 114.42910008889157,3586.453742019832 127.46814264880959,3732.216883824556 135.89141191111412,3778.6795119604794 147.31797759991605,3824.482439829153 178.9686616177205,3913.331310241658 199.0544261689065,3955.998874263605 221.86940103105735,3997.251025061356 247.3142627555644,4036.912813842646 287.73045959102456,4090.1499250598135 342.25087743997574,4155.461447804235 456.6225570132956,4422.987552937469 457.3708324978361,4424.731513525825 525.4784651377704,4548.1637074063765 553.3589358932804,4586.027490129578 650.8581538132858,4687.5306935002445 687.5134580621962,4716.858015706064 990.2603596799308,4926.095325363451 1030.351789226639,4950.3931216796045 1114.825945599936,4990.852118997835 1136.9977938488591,4999.31320694217 1766.0440703999484,5223.913341789041 1770.0589513954474,5225.246720374213 1860.6250430578366,5248.584285024204 1906.8491858488414,5255.752423168509 2008.3428957866272,5260.807028434356 2106.2169796266826,5258.715551205329 2201.1131076266756,4675.445851668948 2136.3938318222063,4514.178114909679 2146.2102508088574,4438.931797752564 2151.747605902143,4401.526851114701 2172.6926202310715,4399.403753320104 2175.2368733866606,4399.962688464206 2190.837354097748,4411.10716533364 2194.567954488797,4412.292994353804 2234.266750577721,4410.837271679018 2239.6634217244573,4410.059466529288 2244.441433031112,4417.243105774745 2247.07656277332,4417.47757520806 2259.9714261332992,4401.933475365047 2264.1214569243602,4395.272984140669 2265.555967146647,4382.877493696287 2267.515056640026,4372.799617029668 2271.337698702235,4372.345130282047 2279.332216888899,4362.1832886150805 2295.194259057753,4363.3902161490405 2323.1615286044544,4348.934744853526 2339.1613420088543,4320.859938842186 2341.211308088852,4314.476445950277 2345.467652835534,4315.707662732224 2419.189827413298,4315.668689042854 2438.2788622222142,4318.425533325295 2438.7524690488353,4341.491519893054 2438.236045368947,4349.820408731815 2443.758545635501,4366.077888114494 2446.6706742043607,4379.385876306274 2489.416166115552,4408.259101797128 2491.969739946653,4409.068434939545 2505.6524916621856,4421.446172152879 2512.444933973369,4434.055718286836 2544.8511752532795,4455.969460890512 2549.9137584355194,4458.949861261062 2578.2057952710893,4465.030265756068 2588.165810915525,4462.5658933536615 2604.5203925332753,4429.142724176578 2604.9750667377375,4428.407822149689 2628.991243662196,4431.446585826809 2648.2972754489165,4438.389936445688 2643.520720497705,4449.878598439158 2657.6135819377378,4462.156165974098 2664.951283768867,4458.096044809907 2669.589193671127,4439.157041765982 2676.2657100800425,4440.575437594263 2678.2183916089125,4431.105169193121 2680.4597228089115,4426.809802327829 2700.698404693394,4408.104318792932 2721.9658561422257,4392.284498240158 2818.9862243555253,4405.893073501007 2821.3749387377175,4407.011980578478 2816.653434026637,4429.280495966086 2816.455369671108,4437.44362462603 2821.9528206221294,4487.47355210979 2822.002627982176,4493.807957267156 2801.979777991073,4498.896911327436 2794.358669368783,4500.714070036542 2778.6477969066473,4498.083576904144 2772.7096527643735,4499.139459467493 2767.4344416711247,4498.092783140135 2761.3093014755286,4495.3333780289395 2757.602585315588,4486.722861683462 2745.7941631999565,4482.348989463935 2725.6740286578424,4500.314310249174 2713.6995820088778,4509.062162197544 2715.732363093295,4515.446024622419 2718.831487715477,4523.038851598976 2714.3578547199722,4524.565536670096 2714.268143217778,4524.8300149328425 2721.526328035514,4536.280597657431 2721.7791513599223,4537.1437457375 2716.078684444423,4544.563953036792 2715.987516586669,4544.754775112902 2720.0160873243585,4563.073116996908 2720.7608675555093,4564.5132164774695 2742.4474581333343,4571.98335368844 2743.9609028266277,4575.089305900678 2750.393916586647,4570.556388792058 2756.0265173333464,4566.963635004242 2759.5942971733166,4556.150770329987 2761.296194275492,4551.046169692476 2806.956436195527,4538.972350903787 2808.6737706667045,4538.04087891127 2871.7633846044773,4533.566869052651 2891.913228799938,4533.1041342222015 3046.5636252444237,4628.922480097855 3198.667147093336,4643.605181016494 3292.5700406043325,4667.23307033442 3349.6784022755455,4712.029362216068 3449.4477872356074,4803.205590361264 3524.2164989155717,4884.421936552157 3631.2496028443566,5045.706656982249 3756.2925821155077,5021.82143033843 3801.8371894044103,5010.9627121274825 3802.2752611555625,5010.842886143073 3991.99178666668,4958.923603667761 4156.617927395506,4906.060261901061 4200.402965902234,4889.376830219175 4903.62550869328,4572.957197494572 4931.168396231136,4560.034653843963 5050.470421902253,4485.548310593003 5086.737753031077,4455.6794226886705 5120.990070613334,4423.4926083904575 5153.081447822158,4389.123832215031 5223.590610773303,4293.640639204299 5285.679999715532,4193.231352716568 5082.6101501155645,3736.8281206053216 5063.048091022298,3697.9791277988115 5026.238413084415,3658.4488464635797 5016.035186062218,3647.1020045911428 4972.1755821511615,3587.4404613174265 4937.39023843559,3541.957684920635 4893.553936213371,3346.981423003541 4893.267034168821,3345.5719287383836 4893.095475484384,3277.369134983397 4898.465640959912,3274.7521410641493 4920.086986808921,3283.407331962313 4929.725147875608,3258.165328017203 4924.523919644416,3240.41364894039 4893.932879928849,3227.0177394922357 4884.8574546488235,3220.9388962619705 4882.620783786639,3214.3776714521227 4883.387700622203,3208.611182553461 4879.659721671138,3208.2679779008613 4877.860831288854,3205.9291963443393 4878.372303359909,3198.0445613589254 4881.607742862194,3197.430682571663 4894.859995875508,3186.8608096834505 4903.1868543999735,3173.591194890032 4902.946264462196,3165.236508038768 4860.264269653242,3138.737742969184 4857.055335822166,3135.520432878635 4829.981394773349,3130.5168828658643 4829.710512639955,3130.357863547164 4814.033427626593,3104.7272235805285 4813.178546915529,3095.257645135105 4818.161613084492,3060.2513967743143 4824.445787306642,3046.5948844027007 4869.797281848849,3035.824155379203 4870.916636728798,3035.3807487841696 4901.58428074664,3005.161314578203 4906.027621546644,3001.6574447473395 4926.643499520025,3006.515516020183 4938.601926257834,3021.23123909306 4916.839313920005,3096.574424570019 4916.747854791116,3100.048331197293 4906.906095217797,3095.529825107602 4898.887110257754,3098.733346436755 4909.002664675587,3106.624588857754 4913.586398151121,3110.0311342829955 4905.749166364432,3130.62218420126 4905.990630115615,3133.3422183151124 4920.03747072001,3135.272125069052 4925.416665600031,3135.403749579098 4926.37611264002,3132.413012557896 4926.072316871025,3124.841226745979 4940.353048177785,3119.362195957161 4940.95656192,3118.9872231237823 4988.383654400008,3079.9098401079536 5000.201979733305,3070.795274016331 5007.650947128888,3080.357804266503 5008.950890097767,3081.800251280889 5077.466884835507,3130.6264531735214 5077.748835271108,3130.569177790545 5101.238976568915,3101.2740083340905 5103.870902328868,3097.7154388338095 5122.909547235584,3104.9197001651046 5127.4682313955855,3106.782198054425 5152.026755128871,3097.787663783005 5155.040246044402,3096.2004897035076 5170.969280568883,3060.460627001303 5172.00882716442,3058.939078580821 5235.707197724492,3014.6299153798027 5237.678520604386,3011.9813718800433 5248.395258595585,3014.6267123721773 5256.390068053268,3016.5819640278933 5296.364697884419,3048.9602135447203 5300.595410773298,3049.213221133279 5318.783252764377,3044.177937243425 5328.132181617781,3040.156764459505 5358.863614008878,3017.230390046956 5359.850149262231,3016.525022047048 5389.45727516443,2980.8301679011784 5395.460372764501,2977.3797507222043 5379.231620266568,2934.6543940281845 5378.766169031034,2933.557593615027 5380.301167786703,2929.262197085598 5381.248963982216,2926.509991407511 5376.274635946611,2911.135464709252 5376.041619057767,2910.668726540054 5390.923242666642,2838.6011854417156 5392.178621155559,2831.173082909081 5425.581300906721,2830.7891909508035 5425.998401137767,2830.8194607433397 5431.543038008851,2856.0313203737023 5432.071695075487,2857.8747626210097 5453.8669297777815,2864.2446431641 5454.187910542241,2864.5102743644966 5470.860268942197,2900.7912173558725 5471.207755377749,2901.445598496706 5471.906514773378,2922.492172816361 5473.521904355497,2925.7492231852375 5476.884046791121,2929.2305135831703 5477.989420657745,2929.954961342097 5485.138378808857,2925.6709034609376 5489.678421617835,2921.968492381682 5520.532770417747,2961.5953667723807 5520.935889635584,2962.0203764227917 5508.03665720881,2980.6279989311006 5505.727459840011,2983.1501179431216 5483.575126755517,2994.9207847678335 5480.123855359969,2995.9806943992735 5461.857661439921,3016.626094055362 5453.064477866632,3029.1879320035223 5400.679659804446,2984.62152188021 5397.929769244511,2981.5943510990473 5382.867266275571,2990.356865087 5380.337867946713,2992.2215212778538 5367.618932337849,3013.3024436268024 5365.916452693404,3016.3773287324 5342.865548231173,3035.4462278103456 5342.084359111148,3036.07076886663 5301.198341973242,3052.3083650485496 5297.862705208827,3053.239962037769 5253.890088106622,3018.9792112916475 5241.053770239931,3016.449218017806 5176.32226104883,3059.8183466591872 5174.314529279945,3061.392909514543 5163.852653511101,3084.777988637914 5158.2401504711015,3098.260149707261 5211.293144462281,3122.2534550601267 5242.225845191162,3135.6634410051047 5259.437346417806,3158.3663340435014 5260.180379022262,3178.988462443638 5261.756155733368,3240.097508459934 5277.3114894222235,3246.574941383209 5288.086481635459,3259.360113664181 5317.525544106611,3259.646363663487 5338.0088937244145,3262.1024126416305 5342.1723229866475,3306.1242945247213 5341.515215359977,3325.63956278516 5316.157443697797,3323.769222585368 5304.651652266621,3340.3679385920987 5297.882511644508,3350.1498274442856 5291.544743537786,3347.331218253472 5284.793370453292,3356.4868883497547 5282.431453013327,3361.1513491144287 5298.956136959954,3371.073299416341 5319.563568071113,3371.495222742553 5356.5433483377565,3363.989730404457 5450.213807502179,3387.2623470304534 5451.461321671028,3387.4798725656 5522.524482275592,3412.7689519602573 5533.386855822173,3418.764181512408 5558.170823395485,3449.5291511474643 5567.90830791113,3463.788609412033 5602.513937351061,3524.484418965061 5707.963108977769,3714.3144130108412 5715.252751075546,3786.9633861780167 5720.0665887289215,3944.313443412073 5724.8807176533155,4101.66324029438 5868.284262684407,4135.965419707296 5914.581514524412,4143.804188662267 5961.288584817783,4148.591864110145 6008.206535395584,4150.308034372982 6101.877577102161,4144.5103801449295 6148.23220935103,4137.020834910101 6283.018207288813,4096.606741347234 6325.883702897816,4077.3436618951964 6367.4093513955595,4055.3093793222215 6407.41805994662,4030.5979592798976 6482.209490773268,3973.5715491131414 6516.672979911091,3941.497731057694 6548.98193663999,3907.2284408449777 6578.9982984532835,3870.9087470319355 6631.647590684472,3792.742223639274 6654.053620906663,3751.22689449694 6692.275089920033,3659.9111588936066 6697.055140124401,3646.4755770316697 6710.98488974222,3601.347591442871 6721.950664533302,3555.394175175694 6729.903530951124,3508.811765044811 6734.808536462253,3461.798695017118 6735.397486648872,3367.288047552516 6731.075897173374,3320.1945321048843 6710.5415751110995,3217.09905600769 6682.4470200889045,3115.2609487714944 6655.4549262222135,3035.7259369622916 6646.4147447466385,3014.4096195490565 6611.765133368899,2936.2228719362756 6601.604140657815,2914.2929589704727 6562.843237546622,2844.3162684681593 6435.567373937811,2641.9168183702277 6498.938064497779,2578.505352684937 6529.085498311091,2542.015788872377 6581.961982008885,2463.485782075906 6603.530316515476,2423.645230781636 7070.144306346658,2112.602800738183 7112.277837653295,2082.333304040483 7380.220462933299,1875.090598406503 7809.144262257847,1578.678870538075 7871.1430658844765,1530.761337212054 7906.050452195574,1498.5874412194826 7974.308963271091,1423.2650600228226 7997.578321066685,1394.9626281263772 8073.861351253348,1274.641954050283 8077.854678186704,1266.6041737488122 8197.037865244434,1020.7510548364371 8214.2578133333,976.3280088274041 8228.552816924406,930.8624504413456 8239.861126542208,884.5485631549964 8253.32950271992,790.1685465774499 8255.429276159965,742.505382322066 8250.307564942166,647.2531689099851 8243.105304177734,600.0721954369801 8219.563607893302,507.61111882451223 8203.322622008855,462.72874804079765 8162.24203576881,376.62538500869414 8137.576324266614,335.775491323031 8080.5180612266995,259.3591595925973 8048.36901233776,224.12366933375597 7977.518770915456,160.35725699359318 7939.121082880069,132.1031933397171 7857.2039955910295,83.46456851460971 7814.0367431110935,63.29133591084974 7724.214266595431,31.672929750871845 7677.945559324347,20.365739702887367 7536.110509226681,5 7488.502246115473,6.137525450089015 7441.071075839922,10.407790651894175 7394.022053262219,17.792673582560383 7301.877854719991,41.763542317203246 7301.877563448856,41.763542317203246 6748.763626666623,263.4567538728588 6746.463458702201,264.39239411219023 5986.571208533365,601.3860733340844 5962.191525262198,612.7951315360842 5920.203629511059,635.1475403286167 5879.767334968899,660.2144072391093 5835.181592177716,692.4341116140131 5581.006478506606,891.3996103201061 4771.1720098133665,1138.77932559693 4463.472625493305,1265.3266439875588 3731.1098643911537,1294.6783163492219 3305.9801625600085,1238.741419770522 2752.5665078044403,1122.5515558515908 2705.7033161955187,1115.144673034898 2611.029136782163,1109.6563775690738 2563.6270936178043,1111.5984293808579 2469.7148794310633,1124.8137765985448 2423.609283982194,1136.0296857972862 2291.068403768819,1187.4857769021764 2249.4475096177775,1210.325885473052 2209.4099652266596,1235.854873702454 2171.1276205510367,1263.9621012930293 2068.41319338663,1362.4835958073381 2038.7079091198975,1399.5833243741654 2011.489788871142,1438.5526171678212 1986.874176000012,1479.2232702329638 1945.8576694043586,1564.960755991051 1929.630664533237,1609.6575696310028 1916.3527796622366,1655.3189502827008 1906.0799388444284,1701.7478096944978 1898.8549589333124,1748.7446774218697 1893.64207985776,1842.625715397182 1893.6907221332658,1848.0414285425795 1711.3022865066305,1855.3183201181819 1664.7035690665944,1863.582988055423 1357.6411946666194,1944.5381168032181 1312.5468925156165,1958.8928899301682 1184.23468629329,2019.270698810753 1144.4013229510747,2044.8769042965723 1106.3278196621686,2073.047675210808 1070.177579519921,2103.660876904847 1004.2579754666658,2171.6749427635805 995.5079000177793,2182.664879271819 888.2534300443949,2153.684180220356 841.5096595910145,2146.6047149965307 699.9163645155495,2143.985343824723 652.9439462400042,2149.330791916698 560.55274979549,2169.2306948995683 515.5327217777958,2183.6988561872276 471.55573560879566,2201.099593314342 428.81199132441543,2221.357434477308 347.75269745779224,2270.0804964964045 309.7857993955258,2298.33455261006 239.79189503996167,2362.015752022504 208.06460671999957,2397.167053403624 178.70185727998614,2434.3264002280775 151.82860202668235,2473.3329261991894 105.99738396448083,2556.205810357642 87.23428152885754,2599.715449293726 41.16684259555768,2759.9007781744003 31.63616056891624,2804.5846928959945 16.43734271998983,2888.8323023307603 9.568878648919053,2935.553617760248 5,3030.0939804466907" stroke="red" stroke-width="3.5058613017218834" fill="none" stroke-linejoin="round" vector-effect="non-scaling-stroke"></polygon><polygon points="4990.63197610667,3227.751758417464 5005.580009528901,3232.3997906832374 5010.817064106581,3233.7262621677946 5022.753354239976,3226.898247864039 5033.929426773335,3223.6762229517335 5034.782851128839,3195.6402546517784 5035.470250951126,3190.845808562124 5002.987696639961,3192.0124169648043 5001.7614452622365,3192.6917507991893 4990.63197610667,3227.751758417464" stroke="red" stroke-width="3.0480728628628526" fill="none" stroke-linejoin="round" vector-effect="non-scaling-stroke"></polygon><polygon points="5008.303394417744,3329.4118470457615 5027.524375039968,3334.079585643718 5032.429380551097,3333.3365918964846 5024.9233240177855,3320.2787893623463 5022.779568639933,3315.390406022838 5019.057123839972,3315.216200301482 5017.501736106584,3315.1166541281855 5008.303394417744,3329.4118470457615" stroke="red" stroke-width="3.270636651909796" fill="none" stroke-linejoin="round" vector-effect="non-scaling-stroke"></polygon><polygon points="5008.361648639897,3333.0593018779764 5022.870445226668,3346.197226027609 5024.235341653344,3348.42148184916 5025.022647466627,3348.1534487254685 5022.972681386629,3344.9651153605664 5029.1945235910825,3345.8559610447264 5030.188340622233,3345.2146661822335 5028.039924906567,3345.2683444649447 5026.157148444443,3344.3543903675163 5033.079788942239,3338.296483607439 5033.973117440008,3336.7707002320094 5008.361648639897,3333.0593018779764" stroke="red" stroke-width="3.3819375227912873" fill="none" stroke-linejoin="round" vector-effect="non-scaling-stroke"></polygon><polygon points="5055.719418595545,3273.400255365763 5083.314443662181,3287.1108301919885 5086.157249706681,3299.2528253103374 5100.0071910400875,3302.6268944718176 5116.196039395523,3306.5733324750327 5122.403026773245,3315.365519497602 5124.03997041774,3316.04456535168 5125.947796195513,3311.5543008015957 5130.290648462251,3311.1561108940514 5129.961512106704,3316.016123672307 5133.078112995485,3317.1395678943954 5138.245262506651,3310.7259229710908 5139.66957824002,3307.6754812765867 5152.036949617788,3311.134779276501 5158.037134506623,3309.893987497955 5142.046350506716,3290.6130388997844 5138.274389617727,3285.9090473380056 5121.409792284365,3287.5197196763474 5109.633701262181,3286.6592733112047 5105.949121706653,3282.157888458227 5103.452928284416,3279.1107029471314 5074.931661084411,3270.072072329407 5069.310128639918,3268.0417197508505 5055.719418595545,3273.400255365763" stroke="red" stroke-width="3.652753056762042" fill="none" stroke-linejoin="round" vector-effect="non-scaling-stroke"></polygon></svg>