<svg width="426.2814680177253" height="398.7149385595694" xmlns="http://www.w3.org/2000/svg"><polygon points="5,194.6059613408288 17.863697351072915,176.46080577617977 18.301769102108665,177.1639949902892 34.97179733333178,206.72132022469305 36.11387135996483,208.4191007351037 20.197944035520777,212.74078951450065 20.0464830576675,212.9291700287722 18.48119210661389,231.76268448203336 18.71595662215259,232.2504862920614 48.953101937659085,253.94127401849255 49.47010815993417,254.43272754841018 69.33567175106145,284.1487678360427 70.02831445320044,285.20464143005665 71.33204394660424,293.5602958892123 71.23388558218721,293.968839682464 63.49277326208539,302.68178798793815 62.62187263998203,303.76301653304836 70.37405326217413,315.6871675318107 71.10223103989847,317.2596404097858 104.53170773328748,330.1799444700591 105.3746463288553,331.4007386318408 110.23013575107325,341.2440921719535 110.31227420445066,343.09808375441935 99.38261703099124,345.6806007511914 98.84143530658912,345.57929894997505 99.25183630222455,353.46635699586477 100.15099022223148,354.91829160868656 112.35874503105879,360.47801421023905 112.68788138660602,360.5164044734556 124.42348572437186,354.15046503342455 124.51873137778603,354.1717421923531 120.80007310211658,386.40791812707903 120.92415459547192,387.89570313162403 157.55178808886558,393.66453021927737 158.71279473777395,393.7149385595694 175.98517162667122,391.65697376657045 177.01976661325898,392.5180841300753 164.53879950218834,387.2792239927221 162.62194431992248,386.55036115355324 160.1493438576581,373.6218843801762 155.183462684392,368.9898465129081 157.49615530658048,350.7622818602249 157.6569369599456,350.20582837506663 152.55444963544142,342.35843184543774 151.823650417733,341.2778601257596 152.34182172443252,327.3085759454407 152.6802787554916,326.45044241053984 169.71614350215532,318.7034925413318 170.96278385771438,318.40833868144546 182.50847943103872,330.54724742198596 183.04237937775906,331.32394769153325 197.48767886217684,322.49049338744953 197.44835726218298,321.6166116268723 203.51640831993427,326.0068022199557 204.37827953777742,325.42900460225064 189.77219839999452,301.98224826320074 189.70578858663794,301.93783296563197 215.21356487099547,281.12038993113674 216.89390791102778,280.3749721060158 240.74784682667814,281.5206287263427 241.78011164441705,281.7542938053375 291.0931845688028,300.0094599418808 292.1245755732525,300.2431049080333 336.0593274310231,318.54388744803146 337.18829425773583,319.1679658194771 338.56338517321274,326.1256923296023 339.28253354656044,326.5619305729633 354.2594028088497,315.2314767118078 354.5984423821792,313.70386449451325 398.2005626310129,310.71291450655553 399.1731168710394,310.579211361357 409.09934506658465,303.4289790269104 410.64919864875264,302.46387605613563 397.78928782220464,277.05271843413357 397.40568376879673,276.1929959525587 414.84379392000847,255.0731888411683 415.57313678215723,254.43319031014107 406.727815679973,203.99503063375596 406.6159675732488,203.4016299083596 401.15405169769656,195.33316136873327 400.3315020799637,194.06391566956881 408.3309718754608,178.1491041177651 409.3874121954432,177.0371526031522 420.847182791098,173.02954268467147 421.2814680177253,172.5129041505861 396.6667289598845,142.4077669775579 395.87097628437914,141.7692845754791 301.79273756442126,118.80024942255113 301.3028195555089,118.46036741061835 309.62239630217664,73.86864507384598 310.4260132977506,70.87111035600537 330.25283783103805,24.186236928915605 330.43954261322506,22.981298702652566 304.8834153243806,5.008339394815266 304.27407615992706,5 285.88583964435384,17.72507613012567 278.48842723551206,19.04308163211681 288.75136483553797,54.17455769539811 288.8489406576846,55.11483859847067 284.3901624887949,110.99671913130442 284.1714178844122,112.33776849566493 233.2412077509798,103.10399228346068 230.8559886221774,102.48808435408864 233.17829319101293,85.40589155338239 233.66791992879007,83.99705707118846 220.40838513767812,78.18702230072813 219.25524280883837,77.48999281739816 205.72424334217794,57.4409739500843 205.43734129774384,57.06116066046525 172.0588370488258,54.8846322754398 170.90423836442642,54.29961992497556 117.33715086209122,94.92848097271053 116.52741717325989,95.61387622810435 107.22421788435895,105.0091278796317 106.10602808883414,106.48867582395906 107.34829937771428,112.25534236058593 107.38325191102922,112.36879405513173 75.74334492441267,130.70967169862706 74.7914709332399,131.21715028892504 40.36613831098657,133.77350914361887 39.07114695105702,133.76887892506784 29.57396110217087,123.97944756469224 29.266378808766603,123.78358029719675 16.499966008821502,140.0566237072926 16.257628444349393,140.63029022380942 5,194.6059613408288" stroke="red" stroke-width="3.007731345542" fill="none" stroke-linejoin="round" vector-effect="non-scaling-stroke"></polygon><polygon points="123.42646471096668,200.24991323589347 129.37625969771761,213.1096819145023 129.90287786663976,214.95228302152827 134.6584612976294,210.23582210147288 135.8171377776889,210.27377637114841 136.72328220435884,212.9222272609477 137.3372817065101,215.04346382629592 131.10641009768005,221.22284022404347 131.08106951101217,221.86478906212142 138.88830037333537,215.9048196702497 139.33132373320404,217.6520515679149 130.0316196976928,236.5453158840537 129.9421994666336,236.6591647239402 137.9247755376855,243.0998562950408 138.06342058663722,243.415013439022 127.81388145778328,250.17388903093524 126.74287758220453,251.44280313549098 144.0714697955409,260.97191413864493 145.8409417954972,259.96034539386164 153.46874965331517,296.6555856774794 154.27935715543572,297.54761307965964 177.47385827545077,309.7117581384955 178.49010318215005,309.55723543686327 213.09398499550298,282.00924293813296 213.64477866655216,281.6233488516882 235.86148266657256,281.67748511431273 236.67937194660772,281.5474655206199 229.06001095101237,230.85418536816724 228.5802874310175,227.94492597260978 220.65596558211837,225.18650809006067 216.95915263995994,225.88722364080604 212.0334668798605,214.1108258489985 211.59219114657026,213.61141158954706 222.29786083544604,190.9967723711161 222.40650495991576,190.77967288298532 210.01874460442923,171.81386616220698 208.82482431991957,170.91344632668188 200.98467982222792,170.22597671224503 200.0904775110539,170.18199709965847 198.99384177767206,176.80244769650744 198.7418922665529,176.77374609274557 183.6403589687543,157.40299187460914 183.01936895994004,156.8409444760182 165.39309767098166,154.68579851550749 156.40796643553767,155.59230508084875 150.93410844437312,161.87894780212082 150.83012465771753,162.0909839455271 156.69515975110698,168.7973291130038 156.800308622187,168.93019466660917 147.09020359104034,175.45578282920178 145.02742158214096,176.58672264474444 148.04761173320003,182.35983917722479 149.79523839999456,184.17354064184474 145.18266908440273,186.08952970872633 143.28095999988727,187.8564462462673 157.53314673772547,198.49281920742942 158.08801820443477,199.50745481572812 143.34329201770015,208.30616264464334 142.81376113777515,208.59822783060372 123.42646471096668,200.24991323589347" stroke="red" stroke-width="3.298807056543588" fill="none" stroke-linejoin="round" vector-effect="non-scaling-stroke"></polygon></svg>