<svg viewBox="0 0 22845.173406204398 18362.350216215782" width="1000" xmlns="http://www.w3.org/2000/svg"><polygon points="8.052550000000338,12713.073458959443 9.514730977687577,12781.320130868677 15.42607817773387,12849.30188190929 40.45063568882324,12983.311766215229 59.45025026656367,13048.767845795002 84.30004511107836,13117.736764785172 111.62855711111479,13180.115027318105 178.13303355556127,13298.800130319352 217.01918324441795,13354.607359590802 259.4399078666247,13407.740373187793 305.21607568881154,13457.975477916632 406.03083266653266,13548.926922101098 460.6383405776942,13589.262901445247 565.284769022117,13652.601044185438 592.1414218221107,13666.852924769955 804.603308400001,13763.490650757427 831.3551035999335,13811.522029630294 997.5442051110804,14135.054481282983 979.7271512443913,14502.927421161941 966.4961610220853,15084.412035042107 1306.6920806666385,15167.635348840653 1682.0211217333344,15259.453347912386 1682.0211217333344,15208.730826017018 1746.753213466589,15157.853171673058 1765.36252475551,15156.438449694171 1796.1032778222361,15163.496694943264 1829.3606132888017,15238.109817260854 1847.4864145333195,15256.767726427679 1901.0482591554537,15266.096039765318 1962.5355907111443,15259.448261541525 1968.2998460000163,15240.871987449565 1989.1432067110218,15236.48708838327 2213.136516577775,15310.53444688439 2229.1447768443977,15351.658539370728 2212.504458266638,15459.879746770232 2298.1410776444027,15588.5247226774 2327.317704844383,15609.826483917866 2349.454309288856,15625.977777037107 2460.3295704443954,15625.063874473773 2455.0371743554497,15990.186765055907 2701.8643917066292,16040.04174945903 2759.718698693301,16051.822510960374 2810.05209431993,16040.456223306923 2820.920584560001,16043.02209155888 2946.9515554399477,16127.331718487876 2957.4218780710144,16132.499222252263 3022.903992915504,16111.352298057966 3023.202837075434,16110.075875898685 3049.6153014310185,16123.59744067226 3100.378613217712,16133.026449179139 3099.469847351058,16124.913790266939 3098.768175244426,16118.633829823208 3112.394420364384,16107.426261386929 3112.577921164433,16106.924801125577 3164.0632940355936,16083.078689336406 3163.7865864799605,16072.177694319318 3173.519119386656,16070.51599877244 3199.438170479938,16065.840380953021 3219.2647037422066,16075.520802362917 3221.3732153154924,16075.657585431858 3236.7788356533056,16061.66622872206 3237.2827346754275,16061.24065190307 3269.110511528772,16065.55109606099 3274.0845482933582,16067.461078040164 3307.281590639941,16107.329008584122 3309.5039892176646,16109.158062647832 3340.6286376088174,16111.98442797966 3341.674009626593,16112.184500743962 3433.5065480799894,16071.502378829035 3434.8985327199116,16070.71205928675 3496.26527803552,16084.799045956323 3496.7050974132508,16085.457600303846 3598.1513301599553,16082.875041920903 3598.696589679901,16082.91708854316 3786.3992667288767,16162.179825417326 3792.2008047199124,16164.021553753155 3836.1212842933382,16194.801832348494 3836.424497519947,16195.060049263739 3834.7290083821645,16205.678050857598 3835.0301827110598,16205.997513923947 3888.656980790991,16237.243242594508 3889.187968026592,16237.450785593282 4013.0967375910623,16246.631061788394 4014.163372399962,16246.634605044128 4071.155516897772,16227.44747914651 4072.131857662207,16227.279411714851 4166.026886853251,16232.324411737012 4166.436414035481,16232.374020790718 4449.27872173323,16348.757062963421 4449.978354942148,16349.153202766298 4452.01288365326,16354.107667951706 4463.258278711095,16380.334025569471 4435.761703280012,16429.294230527106 4436.8868835821995,16444.4619247281 4478.289324399877,16552.79121253026 4478.352530231095,16552.993886167453 4543.065106799921,16541.557421000885 4546.014226799925,16542.2145031209 4573.877221288836,16552.551137512644 4577.844333822235,16552.896845448566 4581.6532861421365,16569.85603255753 4584.1503533777795,16580.001760476596 4605.5293616622,16591.1283296705 4609.010925253249,16593.238054487832 4600.642414959941,16570.562550560666 4604.680597644394,16556.566165538017 4707.67872287098,16573.02169931416 4709.574023991103,16573.341598732375 4744.614521199932,16597.112816853776 4751.077827155568,16600.453906598363 4755.396212648811,16591.69176729359 4756.0763306933,16590.868591982617 4755.379610195501,16590.357706189134 4746.239522728814,16583.37698828945 4748.000256595529,16574.292197364244 4749.659628115573,16565.662358215697 4753.368091902208,16566.56750779655 4759.178950568872,16567.930531170314 4782.946090693331,16529.671956777434 4788.517233235507,16524.13335901188 4808.353960986577,16524.383071773664 4808.5310538221165,16524.3507203399 4830.3667752088295,16502.763588915674 4838.900144951047,16494.923452177296 4845.713558782103,16454.449544239767 4845.754045466638,16454.12591884353 4841.471777591018,16439.777167901142 4841.482845893224,16433.261617090764 4850.065149182199,16433.288925794164 4853.517585662172,16434.483930849856 4859.336891191058,16412.326398217097 4865.025707262197,16403.590069747683 4923.759361733311,16401.006982471015 4925.652332684469,16405.29912793186 4939.189448844387,16386.28068688958 4947.615630817811,16388.555911789976 4964.987913697703,16405.779624104594 4967.689453253268,16409.376734262427 4962.96124930666,16432.209723511805 4963.403398853356,16433.529646799645 4993.601222568868,16459.62748081258 4998.597104666616,16464.572186522513 5025.041317573261,16460.133637292754 5058.8517768799575,16436.46834190502 5090.111866337691,16433.315223060643 5098.389208773246,16441.64117189087 5156.5647877955125,16414.29180564799 5199.7669928087635,16393.279780412537 5451.271441662197,16166.126076419001 5476.346097804351,16162.366682858185 5579.158100791021,16198.12875507537 5511.057749928885,16326.038701965917 5886.783502248909,16476.31178016848 5905.19358409776,16483.878601243872 6139.700907262137,16434.598222122215 6354.79559341327,16390.399138979476 6812.802813182214,16773.00912688356 6915.569377875516,16783.74049318696 7156.00028162657,16913.813989879774 7245.191573644384,16332.029952608376 7390.827129199963,16374.189398611816 7390.827129199963,16534.31674146429 7451.508513590998,16706.944485938737 7885.988018088836,17386.215314174922 8614.165795866611,17738.267401737314 8745.237795866655,17727.100052941103 9065.636018088764,17396.002495963454 8859.319078142267,17240.74719787701 8871.45518025777,17181.970977550583 8958.836513591094,17106.376938559908 9041.363522586624,16980.324735784765 9074.671539226641,16870.138352050657 9284.089351422248,16824.753392764287 9298.652906977783,17064.3683400754 9575.360462533288,17240.74719787701 9963.721846924374,17291.113232565207 10318.101795866598,17437.943050437178 10439.46485591992,17576.28648663508 10633.645402479895,17660.08568210502 10876.371522586654,17840.137386468683 11890.965795866541,18354.29766621578 12672.543180257759,18337.597442139268 12910.41468475559,18270.782442998818 12958.959967031122,17986.57466095032 13119.159078142118,17576.28648663508 13187.122240311095,17475.68235285805 14177.39741471105,16801.649755013037 14502.00217431991,16580.222094462697 14662.509158995563,16493.519495987603 14687.413130266686,16479.624510904345 14903.544159031102,16339.080489750755 14928.44813030211,16320.540116253986 14964.816241235567,16281.810534912605 14996.933832844348,16244.815388184601 15055.636030035537,16145.867372078566 15084.009622782098,16091.713760563325 15106.2059378044,15999.28036432129 15113.945011226555,15955.029953479629 15125.552165004403,15818.406637046755 15126.492970693253,15790.866536299676 15125.696344204458,15723.60110352192 15120.508805715457,15656.511443870935 15107.676856915561,15567.021649192007 15104.925801271085,15550.715847869382 15086.199981537742,15465.938170057118 15073.621438604408,15407.389071723657 15055.42573229326,15342.505994961575 15033.022614782189,15278.937284644671 14977.349345875416,15053.756301022113 14963.876018088871,15020.738716791362 14592.505351422216,14884.897966188473 14245.407180257702,14451.297851911142 14206.57112919991,13931.459620361311 14357.950259795507,13868.58645662244 14266.524335813338,13384.335328860536 14571.469169235534,13089.084226207146 14579.715054391047,13035.968867112511 14612.732382462222,12823.289738054482 15055.221842515493,12445.575967781922 15097.493436328812,12295.29577236079 15040.987714586641,12187.348020966492 14954.89525591999,12006.720576441185 14699.506998071076,11586.568542141562 14552.05099807107,11343.908039497364 14507.582637537715,11139.008040776687 14485.196705022106,11054.767297911145 14445.399459297747,11001.544446950873 14408.089377591015,10872.864458715172 14388.190609093268,10828.47291726419 14398.139847706632,10521.905089113607 14408.089377591015,10428.508691525065 14397.41458263991,10260.787748265524 14395.652683688888,10237.133965659923 14382.357322551055,10197.462654729701 14380.728534497764,10192.60202142501 14358.342601982156,10148.060739636981 14291.495008168837,10080.671186290427 14246.41264813333,10032.205662705332 14156.868626799995,9911.824782683841 14112.09647049776,9862.759585914762 13701.6864455377,9469.808824587417 13559.240891191039,9328.451963848878 13482.92436482662,9484.665850121739 12584.51464251543,8971.83257605209 12478.883426444467,8519.733144894686 11683.313086604445,8318.49046715568 11614.042990959926,8311.396768504965 11405.536566071074,8317.611335948612 11336.811147404347,8328.818653895207 11137.140431671032,8389.158417810955 11073.71469087105,8417.87848858277 11050.972242515512,8447.163144409227 10311.62916923545,9732.678554068996 10075.37596703109,9863.318019564824 10007.412513590978,9941.66096796524 9575.360462533288,10749.423380976405 8973.400069146628,11628.771419726174 8934.564018088837,11743.81179984587 8940.227493573191,11830.049346083404 8992.818240311091,11959.336396246195 8720.965300364398,12200.450720693661 8727.437926995546,11700.679468880386 8784.073846924446,11588.491636985309 8788.928462533258,11424.412622633252 8847.182684755513,11286.137738102501 9177.289846924345,10944.363888855536 9216.126189253271,10896.729524931849 9235.5440691466,10810.091926813686 10354.510684755493,8818.73298065921 10390.915495848843,8715.213913823689 10392.767980115583,8663.241468100612 10470.182016026672,8486.991320986861 10490.240401093244,8420.222533993983 10505.909330515518,8352.26039874761 10509.005542426698,8335.814355606948 10525.733242337803,8200.065183662555 10527.881366782101,8130.268401982939 10524.894381537662,8052.369264003333 10524.46038758217,8046.5760804594975 10506.570515937732,7916.190388964933 10490.587013715507,7848.125557863481 10463.176945804364,7761.319408633433 10444.142378693308,7712.187780160319 10389.572736026581,7590.101055999032 10367.182725715546,7548.3919039789835 10467.89990687112,7645.387216859883 10517.101422959917,7685.433792924196 10705.957242337732,7801.896964938474 10769.563571226645,7830.711930586236 10983.605603582204,7895.601656430845 11052.443161626557,7907.030431647821 11275.995195759904,7913.2417355256985 11345.442966782117,7906.5266613970525 11533.06525300441,7870.0329149594545 11599.914885715443,7849.953900834698 11806.81058135999,7758.561155745738 11866.279404115492,7721.884656139395 12039.694941893315,7582.210088384549 12087.76632607109,7531.369682572877 12132.438576382214,7477.481972395886 12168.139676471103,7428.621626593907 12195.561395226607,7350.784166775622 12220.975964755497,7288.680111463975 12039.433089164413,6477.094141731715 11657.382675937704,5528.545395617002 11649.376798177698,5510.264104081529 11476.64312607106,5494.360834223313 11406.06376678215,5496.485828477984 10852.30204304876,5584.866570508668 10784.772292293237,5605.422801923276 10718.745500471072,5630.378801548308 10654.505656915462,5659.62355270805 10532.495101182234,5730.454188952142 10479.399290337788,5768.540679205187 10413.158414248821,5822.55315423126 10361.83353175989,5870.9661473344095 10269.612728915505,5976.481544665505 10225.106503137715,6031.1831816533595 10114.397266515509,6211.028515280726 10085.618224382146,6275.353422160122 10061.11504216001,6341.406749322523 10040.991121093255,6408.9077513211305 10007.609995404353,6617.135327036005 10005.624982782152,6687.459558042618 10008.386232915545,6761.502011294222 10015.571891226668,6831.433341506963 10043.513528915566,6969.070843701462 10064.141349004443,7036.187801929402 10089.090176026664,7101.793949614141 10118.250783315489,7165.607505867585 10198.112952915464,7306.179084759067 10214.390638959921,7336.031002889016 10166.59013691554,7283.6780824136 10122.213526782209,7236.559313518555 10101.92503753768,7198.876415529208 10064.702045893275,7139.436907322939 9978.964937982128,7028.481572526252 9930.813454248804,6977.449772536267 9863.765757182126,6909.385319422909 9812.330191671012,6861.618752367656 9640.780245359965,6739.953016792751 9616.6120249155,6726.584202466103 9571.195576915496,6703.152791413573 9507.060590959947,6674.556959892019 9243.10634100435,6586.620875498025 9174.57461762659,6571.218518119633 9030.262889271115,6553.772937093141 8970.480950071105,6552.086715642225 8743.672504915485,6565.998280391657 8736.280044115476,6567.280782780064 8667.123544204376,6349.620675854072 8646.482616915462,6284.2826942708125 8550.103918959947,6079.667974972726 8541.78230331545,6065.844901015262 8530.47224607107,5985.826327968483 8527.61196375997,5921.477192395752 8590.775560559916,5808.093864061964 8619.143910426625,5743.407345454943 8662.975843582164,5609.094096595167 8673.282471848863,5562.47483421534 8779.072139404343,5279.389669159522 8796.90084411551,5231.741500064825 8825.186181715435,5138.900783562545 8840.544907404437,5069.697279235559 8859.007126782184,4951.453707060697 8864.201947048867,4928.5916870151195 9031.324572471065,5043.638082939877 9094.03524269336,5076.492442830386 9293.015645893269,5149.614047705523 9362.02359753775,5165.169450627676 9573.018934071042,5184.477637828539 9643.687131048857,5181.707598951041 9714.029104382127,5174.335792194506 9783.743388471055,5162.393794835465 9962.050824559854,5114.878083058145 10029.66067487104,5093.998283336499 10160.126830959904,5039.239253534099 10222.431177982224,5005.589271807265 10339.860039137748,4926.449911168173 10394.486479671068,4881.290552022379 10479.163360737708,4797.8395142422305 10928.529149182119,4304.864151330585 11030.357529626672,4174.883273333289 11051.665467760038,4140.611405251293 10490.841875937745,2865.2124610361425 10227.22142267551,2349.191278827704 9653.402478959972,2151.5992281348226 9614.257097982198,2142.7129692351227 9647.256075973368,1218.8008314927356 9503.43280927113,927.7069684748203 8778.238230213268,70.99788364311826 8735.524195582235,47.76035883915756 8664.694343137766,32.01705680715531 8549.128160737666,14.87828550858103 8485.09220695994,9.556592464658024 8340.049388115505,11.32959127191134 8267.933573715483,19.37649973945372 8101.141541004392,52.2468459572774 8078.151512204415,58.494829269686306 7862.313793448826,135.7289933498032 7796.722451937712,166.70961547815386 7528.361270071102,343.27138725246914 7490.051837182116,372.4167788708364 6985.230941893278,813.350885653148 6970.7110770043,826.8562501602937 6891.178043759988,878.5676966747051 6884.47298278215,882.1117380979485 6444.09436447113,866.7902010410689 6372.357202515566,875.4826619727319 6231.38198473768,906.9346379051349 6162.757054604335,929.5498559885673 6030.718034515485,988.0674691190725 5967.877748648847,1023.7119861852625 5907.52054900441,1063.406822188037 5849.90857958221,1106.980312390464 5698.792758071075,1248.0511317266864 5650.872834871036,1302.046341315705 5549.6648618932595,1436.6564370597262 5537.702357359907,1455.2550418858664 5409.61297353774,1691.2365012539449 5394.311045715447,1721.094954456472 5349.560152204453,1764.3712249073214 5298.43770313773,1815.073502664316 5178.4820650933325,1961.3112698361292 5138.304128026684,2021.007331261506 5048.947976559961,2183.8910229940448 5032.513004115528,2218.2890825767317 4894.805556933257,2558.998735038542 4887.343191066619,2577.294286138531 4774.249900400035,2795.439925780265 4767.855043155469,2809.771119117424 4663.078999066587,2998.090957798857 4650.289284577688,3022.714436736751 4542.331103599958,3185.4378944246346 4524.490748044314,3212.0769552212223 4468.407951955545,3255.309195686925 4435.409847777781,3283.6422450717437 4299.894506977733,3322.2950047151317 4292.611272844348,3324.9426588436836 4087.831661822136,3258.6866970060873 4017.7736778221806,3244.8172457470573 3946.9525635110695,3235.593806810655 3875.6770662666313,3231.0548316355344 3639.677561199969,3235.5155029446832 3568.428278355488,3240.4485860813656 3336.8473560444327,3286.031268935687 3269.355470533228,3309.3666035231217 3203.5485883999863,3337.0928056072225 3139.7121553332327,3369.0893069439117 3005.3852006667075,3454.486068762759 2990.820188755497,3465.460479961337 2885.33489951105,3435.308384611715 2815.2550701777,3421.8721115191947 2629.5216771111373,3409.344077349735 2593.0385140888175,3407.2559946861948 2521.682917288832,3407.8845800240306 2450.522472133256,3413.2099397871425 2241.305345733279,3457.048347407057 2173.998417377683,3480.73571973449 2044.7920088444152,3541.11587430651 1983.453225555575,3577.54862659271 1808.202679777729,3715.4391543825986 1758.468137555501,3766.549138255512 1669.5984088444166,3877.966728370033 1630.840418444459,3937.792934134988 1561.4203181776465,4072.1020793861026 1557.0162989777527,4083.187567775989 1419.6615811110023,4210.1842242397615 1373.588316755464,4264.398478161464 1317.1924042221872,4340.152749290202 1278.6295654666392,4399.909672377609 1183.9082001332208,4576.208373524343 1177.389552666551,4586.635540062074 1053.5541834222167,4717.7892845406095 1011.3286104444196,4774.839258690692 960.9459899998983,4855.091495926645 936.923405111047,4899.434783143843 790.2116027999218,5183.017757280009 767.209923155584,5225.649345494785 655.6487185333172,5461.524654851215 625.580801733282,5525.5553949529785 581.3367199555287,5643.357139951993 567.6367832444157,5679.894690717665 505.7576920444626,5867.456887195272 488.81882057767507,5936.005505792775 450.9681396888118,6111.827602002049 450.3011288444759,6114.946674135434 430.14225524440553,6253.613573506278 428.2329731110731,6276.353265236343 379.446518355493,6462.3432470719345 299.7867821777254,6671.550126032591 278.5647690221449,6738.597339355831 200.06137915558793,7044.767884325331 183.32494111100823,7112.945117531963 132.57677542218153,7352.662552731148 130.48544884435978,7364.955468101929 106.2575178221814,7582.556166808856 103.15548048876371,7652.507194065933 103.34626306661085,7808.032367084677 104.47930768886727,7835.878131417885 122.54831106667552,8006.264271224129 122.62112884442467,8007.635106210459 107.66144457771588,8403.57158786196 104.57251444433496,8473.239043494024 118.77926288880553,8700.970253357526 118.88266413330712,8702.691000118772 118.55352777775988,8817.031083287358 120.00988333320856,8886.610160300661 137.5939203110538,9075.230349805417 141.9411416443545,9106.054668414792 145.9038851110745,9234.358921750892 146.1281638666769,9241.15280568353 137.1541009333232,9420.354428250088 137.21818057771452,9428.560765194801 87.9001560443794,9866.191133561522 81.19946413333673,9928.80437253815 72.61424813335907,10210.283836997558 73.2637827110957,10227.80505893226 76.64689666659251,10301.505241209386 82.46066804437578,10367.612500862662 108.80468368888978,10573.992469351484 119.22053862221219,10642.188084258967 134.05497631114122,10709.533504471801 153.24246075549308,10775.740964667151 204.30956831106596,10903.631712534385 214.45599746666994,10923.231056587749 252.90669684435852,11259.29842147776 257.72432102214225,11310.54467371558 307.87974999994185,11618.60098683052 308.1797592444127,11621.806489164104 229.51617026664462,11924.600442583825 224.59951391103823,11942.751426702693 147.12576742211968,12184.706103140234 142.81786768881284,12197.639087381402 98.95680742219702,12290.905574558863 83.52089488876663,12329.121768989055 48.88439071106404,12433.721326007602 47.55473808883835,12438.435415145104 27.608492399893294,12523.190325403331 18.493162977720203,12576.95426901416 8.052550000000338,12713.073458959443" stroke="#009edd" stroke-width="5.314773011342516px" fill="none" stroke-linejoin="round" vector-effect="non-scaling-stroke"></polygon><polygon points="19284.667702070998,15122.837438909082 19309.252440204356,15323.385601134309 19326.089366782086,15388.640756582237 19359.238931937703,15484.140810976482 19376.96277904881,15526.880771824486 19437.4641578933,15643.74373617702 19449.668417448855,15664.367120929273 19570.532821359906,15825.444516757481 19617.49300624882,15873.468072340336 19881.340942248913,16102.376652218962 19936.61400464885,16140.333035951051 20081.238849448833,16227.650476070681 20140.91738740434,16258.092666337012 20366.390354515497,16344.691905744701 20427.21213158218,16366.344828309819 20510.808396826593,16418.760179559213 20570.366057271,16449.300299931296 20812.674494604325,16553.779307789147 20876.965310604406,16572.17065324021 21161.559031493358,16647.285563014775 21178.778979582225,16651.4760461553 21321.737753626636,16676.90252925628 21384.47900731545,16682.329904404563 21505.805075937744,16682.486485446956 21539.886708648854,16680.372631248298 21735.183988648794,16645.716951370858 21741.51767895997,16643.953827607016 21867.521561626556,16599.423591497216 21928.100127315593,16571.081571885537 22102.163743315476,16459.947052282725 22153.443478782174,16416.883828459635 22357.558991671052,16190.391335711443 22399.590869359883,16138.114802711738 22504.154285537756,15966.313313796745 22527.393351137733,15914.463498220874 22556.347155937787,15837.171240353586 22575.310361626653,15772.655763310358 22596.045952026594,15672.31132640216 22598.84652375998,15652.65075620442 22636.615648737738,15570.114550678853 22659.805198248803,15506.908970400902 22696.323313804438,15364.105481919345 22706.791597537675,15297.51517115438 22712.89518367101,15230.358753904911 22714.60640144893,15162.925734239958 22710.190731404444,15051.310832067604 22708.85234064886,15038.640052231356 22713.045188293305,14909.662275248535 22710.34656144886,14842.155994838198 22703.243915404404,14774.948504290289 22691.76492091557,14708.328263535608 22655.873038248836,14577.997577345559 22648.63786384892,14559.17521888452 22666.233551671008,14534.164507609188 22701.46861798221,14476.421394508252 22760.327227759968,14354.599319749956 22783.692996293285,14291.032738897578 22803.696039848823,14223.213266326908 22818.60620802662,14157.094570054534 22835.357209626563,14022.569039429924 22837.120856204398,13954.739157531505 22815.86534687106,13752.453354268546 22800.018742070977,13686.393803415216 22779.88462651542,13621.492066782062 22755.54309975994,13558.033927888238 22694.66161211543,13436.534186459183 22658.37651344887,13379.019473888307 22507.824301537687,13196.625065620385 22457.8217898933,13150.475284601831 22356.262835226582,13070.4301637401 22300.61461563546,13031.235251240294 22182.18902473778,12964.22510402665 22119.925455671015,12936.70432458874 21990.64040393776,12894.236426966243 21924.179618159986,12879.477216062813 21720.99821172443,12861.816725132732 21652.987281093236,12864.889344396746 21585.325584524406,12872.43430537932 21518.30788838221,12884.420230635187 21387.368416737743,12921.482561591525 21324.01403735995,12946.394514459047 21202.906422071137,13008.437265680615 21145.67660034667,13045.291786963913 21039.101374604368,13129.86494875767 21029.77196091551,13138.90086039788 20950.37291238222,13103.050384035254 20886.348609448854,13080.07282629083 20840.77545759103,13078.387514274022 20790.198559315504,13076.517613845157 20318.99355423099,13618.777014886473 19847.198142604415,14161.716062227242 19604.296094746656,14471.118753009338 19316.628298551055,14837.542816836889 19299.60262829331,14921.138713365632 19290.230980293338,14988.017797984568 19284.667702070998,15122.837438909082" stroke="#009edd" stroke-width="6.416695725385617px" fill="none" stroke-linejoin="round" vector-effect="non-scaling-stroke"></polygon></svg>