<svg viewBox="0 0 367.5432107199879 414.19940473511747" width="367.5432107199879" height="414.19940473511747" xmlns="http://www.w3.org/2000/svg">
  <title>okres Beroun, Střední Čechy, Česko</title>
  <desc>Geojson of okres Beroun, Střední Čechy, Česko</desc>
  <!-- Generated from maps/2-geojsons/world/europe/czechia/stredocesky-kraj/okres-beroun/okres-beroun.geojson -->
  <metadata>
    <collboard>
      <support-module name="@collboard/map-svg-geojson-import" version="0.11.1"></support-module>
    </collboard>
  </metadata>
  <polygon points="8.052549999999997,345.12256584958925 20.2897231911262,338.73580239610567 20.389046639996764,338.7175392587593 28.869914764428927,343.75601724923 30.791139013344605,343.86772765168973 34.984569200001374,351.74763845834934 36.10647270220909,353.110155277907 35.23083892442048,355.8241551205498 34.23156056000846,359.0636251317261 48.39083181333956,404.6452473514579 48.81747117333691,406.1468547351175 52.7695832444366,405.4317497612134 54.61886352889235,406.0381990156235 63.26510082666175,398.14797832644365 63.29080550221954,398.10383402991977 67.46282726221364,397.6732000437256 68.72687106664637,395.97641958877614 70.68676155555988,388.0360893544199 71.44268290667208,386.90354497846386 70.34743071109517,382.8674188807705 69.86297403556057,382.0117651312536 73.32677008887515,371.9238190784014 73.55163138666069,371.6401229058607 81.24024208888989,383.0069851457007 81.2856075644446,383.06882674243354 91.1832911910966,379.73919371171326 91.80595600888012,379.8770782022981 91.76095462221531,377.41988842083776 91.99630167999533,376.6588942236191 94.46220290667372,375.0137361517624 94.94476632000408,374.9024273602623 89.05424500443735,369.69341819997464 87.38606253331056,368.6277601183316 86.79987942221453,362.02828476332763 86.78968493332616,361.2124221398914 88.9779319733276,354.76882066768997 89.18924916443177,354.0971106398862 91.04712194664864,351.4243893479212 91.29746946666967,351.23368500125764 105.26552123553813,347.24204072518444 109.17386982221035,346.0360591158893 109.67689503110125,342.2037713783426 109.68920123554528,342.09927219666827 115.10538754665288,339.1971136931894 115.2812424799846,339.0986964338441 113.31130313777942,332.39418112958776 113.17469698665775,332.2350927932199 114.24999711110252,324.66269645821706 114.30948923555081,323.79485448818707 109.04418135999697,322.398001413712 108.17218847110746,322.13321890870395 106.58716390221491,318.81622440736794 106.51354512887303,318.61006857683935 107.34483287999285,311.1971895225503 107.3501485777739,310.50261056713464 109.94602953777178,309.54667591796135 110.22899942222978,308.9328386198391 113.40552934222035,296.5845812837284 113.56616535998876,296.12922816380853 120.85209375111265,289.79247592890863 121.98783263110784,289.0664814834523 130.29073410668173,288.27503047626635 126.93514527110494,286.14040262123274 142.00354648000905,285.5488712740258 142.40499088887702,285.2654033900686 141.33740944887506,285.0820286765735 141.3199331822176,284.17891333516275 143.44257140445518,276.88844378777833 143.61755252443947,276.46057810199966 149.34277748445277,271.3198331289383 149.49147138666706,271.0776036795356 148.01953282664874,268.48886453439593 147.81942957331887,268.19390709074617 153.10090299553815,268.65457280101657 153.69626114666573,268.5248733898694 153.1919252177537,271.9168236754409 153.27967063998915,272.27654993824365 157.24394327999437,278.6985121756949 157.3792387110949,279.07941118184647 162.57485997334118,276.240267161476 162.91972496888013,276.1880109012342 168.09575824888418,285.68349543448824 168.31894473775867,286.17222461438325 171.86866576888826,286.59087393205084 172.0006844000087,286.63725240565657 170.4284757599886,289.2091084464406 169.91263462222526,289.49943892208796 171.37365051554627,289.9393887691764 172.9872196533321,290.33792453016906 172.75609602666339,298.2357122081663 172.5407738577702,298.4438628545246 176.9175592088792,297.56398379074346 176.99758594667185,297.5785376179334 176.24778128887522,311.6943754012533 176.02109954666923,311.955148036846 186.6221300888643,303.5360298178781 186.94798964443146,303.381256958142 189.48780091555784,308.4781524112401 189.7541683466767,308.5601563807792 194.10080713779428,305.3096819465933 194.48033339554206,305.006462919882 193.87143113779132,310.53385440257955 193.90507295111422,311.2195223791274 198.85311376889115,312.4652978244627 199.3949508533184,312.8989721534523 200.55151561776404,314.5793853695865 200.44745901332465,315.283724688015 198.30537844444154,316.79805167085544 198.08226477332175,317.13932489908586 206.4321337155485,324.53594908823254 206.92263426667307,324.4504733827122 217.51907728889603,309.3223249378567 217.82534886222095,309.06221651451017 225.03401759110386,310.3869969411968 225.06773222223967,310.4023369095445 224.89522690667184,307.6438932024099 225.01530342220906,307.1800594241573 219.80082235555858,299.6974883469735 219.6525653599889,299.3068052306404 214.93826960886474,299.9966754916019 214.62959504887806,300.19139444977156 214.46968720888947,298.27136299847155 214.25188923555072,297.27008590785374 229.07533143999865,282.7561068002466 228.71393680887525,282.30278255967244 234.8064546400052,286.25189235980326 236.207614319988,287.33890538349044 240.26239945778036,286.79376535794984 240.4617017155466,286.81701093477716 238.70125911999605,280.8368165742064 240.4275501777662,280.0936617422627 240.51565968889156,279.96827805447504 237.39490818666638,278.65246553805594 237.34160557331745,278.31072604344047 239.34664308443428,269.31367583973736 239.61475814221888,268.60806617204037 246.89952144888923,261.2395386797358 247.270455208905,260.8018412636517 252.2926973422069,259.0300171083869 252.60654196443613,258.9461323294014 260.57207867553336,246.56070530134423 260.7224473866587,246.36692426627963 263.6699653955653,248.71336758348446 263.7482445066631,248.75548723353825 267.7211824622133,237.76668991154986 267.867764648901,237.1797167561814 276.1923658222146,232.21317649151717 276.8862464266782,231.494210003984 275.80665005333833,226.08364099117864 275.8232525066484,225.93599137150852 286.1284244177874,224.9468302882666 286.7096559199923,224.94265037812113 295.87901613332326,229.90397837035528 296.4389120266493,230.07997020069854 298.8463405777653,223.4282591606094 299.1479518133343,222.70262436519954 302.99782772444416,225.56884253650026 303.41893293333817,226.11312567991956 303.65661015999615,218.4992206769308 304.2291763466561,217.5823487144877 317.602889413312,201.2202314724924 317.8621935199841,200.9484184734971 323.3344495199923,198.5402430766768 323.56732077332674,198.37805163216365 319.6650888799992,190.7626487012236 319.49935561777204,190.58799954340031 322.752999564436,183.44600909609983 323.0106288622261,183.4089265482686 321.3977150844363,174.7176873130153 321.26882761775744,174.49323376028735 326.20121261332645,170.5146553578012 326.734966924421,170.55276442338766 327.82169943999145,166.2247839529515 328.1850601511029,165.7962758598802 331.2423873688746,168.6719315201841 331.432660222206,168.76228807146947 328.29173819555547,164.42896307149897 326.8366933599824,163.53357515195205 337.1959688800049,162.94489793280775 337.8508191555517,162.86052599891957 335.18634384888685,161.8982695607334 335.1663917777838,161.76763752918453 336.7454452888702,158.88517059353 337.7882686844456,158.0409301193646 337.16400187556394,155.85765277963185 337.11586932442844,155.7420504336111 332.75080763555127,157.08514906820312 331.2690386755636,157.17993615045964 331.56912073778915,152.83403916181817 331.3429487200116,152.38167042571115 337.8883931288798,147.99726611332846 338.84143220444787,147.7073130722198 338.15861990222004,151.91685452870263 338.693903386658,153.29092890654977 343.57866555554904,157.3189493656024 343.68010072000436,157.28637347717415 359.4830876711127,141.05505225314812 359.4906607199879,140.9416814072971 353.5614003466686,137.5276602377777 353.29095511997696,137.33428353520105 352.7937553333246,133.06782743332553 352.64207590220724,132.76919468447852 356.5192584800021,129.6359983141225 356.42394000889146,128.7590513038955 343.2788019466749,125.90392462259445 342.977481982212,125.83918797247281 342.2633580355392,124.52666975979048 342.0753425333311,124.18000213178277 346.7519914933433,118.79171370038932 347.0418790666514,118.31959338959825 339.41873154667667,115.4481852542009 339.308412613325,114.92770015508688 347.80755800000736,108.58446866948327 348.3151707288995,108.46310540966044 344.5721913155645,105.97691048634408 343.956517004444,105.97883518019046 344.4610713866492,104.08875305757795 344.1952864977717,102.99876155083587 339.12381954666455,101.4352361276757 339.30579117334094,101.13325961285557 343.05080948444777,97.20231700225088 343.0622418755735,97.11082262256934 352.4664394222269,99.87608180288919 353.49848578667263,99.76081357534679 353.1692766133125,96.94776295113081 353.15252852443484,96.2447890024265 348.76416514666164,96.03065644346464 348.4194457866612,95.90801959623752 349.2291794755507,91.7086450763087 349.2544472444348,91.50502669266245 344.9474213244463,91.17003995394737 344.5598122933076,91.33119170844259 342.3438944977894,88.0373952276492 342.22658505777474,87.38277985022398 339.2746251644345,90.24762667598372 339.1342324888752,90.30900813059236 334.97764809776675,84.12668762825308 334.9377439555607,84.03256623804157 330.5393317244376,86.77742350807932 330.1177896088699,86.71162103817153 327.74720685333125,86.18134763086675 327.41574032887695,86.15359930744273 329.5344463911093,83.83933938459779 329.60318637331477,83.2126499199436 325.3759687377675,82.51289668413631 325.1482675466756,82.46271979557753 328.4501168622297,77.31464252809349 328.4831761333113,77.15016426130717 332.7031848089024,77.28915522588761 333.33087405333174,76.72911122830521 330.88048301332276,72.56620888974396 330.4426297155511,72.5188550082454 334.38979017775966,71.10841549875443 334.43755864000525,70.93802740162175 330.1662862488953,67.5662953097268 329.7417586044536,67.69148851614557 328.71226086223726,62.68670836225613 328.69391078223236,62.55277896673181 326.49182836444345,61.38535845069384 326.21956269333134,61.267629223344215 326.47376955554466,64.30663876275469 324.8612198666739,63.75223980464909 325.1934145688789,61.24825316637691 325.28487369776815,60.878747040805706 323.2267520266538,60.62583615894948 323.1327442755352,60.16069009486057 317.96799775111833,64.25916439483228 318.0072465333284,64.48010680538539 309.54225268442644,64.97614757755184 309.5179315466445,64.98271912437451 306.9634110844414,68.3254942173586 307.0226847555383,68.94544404878218 308.493822319993,71.91831812091516 308.93211252443837,72.43230378829287 312.43340973332636,72.03930967332383 312.8665298755583,72.14568685550296 310.95950509332,73.55802534266661 310.7107595644553,73.62180458328623 305.4737049866595,74.1256919436488 305.20275003556856,74.27885102680705 299.7816121155407,69.29506907609868 299.679667226657,69.18574068755663 296.9160869244439,70.69048789317424 296.82142381332926,70.79732087166451 295.3097995644272,68.72882495370106 295.1201820710918,68.47277825944877 307.0973229777661,56.86670771770116 307.36310786667275,56.641881538591065 305.16488479110524,56.653440165180314 305.12053876443645,56.67179797885876 304.6353539110929,52.91613635900251 304.56239049777616,52.6324765501555 293.7501883999863,56.48414003619803 293.3469963644526,56.57672256821354 295.645416702209,52.15672258217057 295.6319454133114,51.451923629697944 287.774324648875,52.453530988473744 287.6819188888836,52.390520251697694 286.3920247733255,49.989371529656296 286.35343135111145,49.90074448320195 289.15021656000283,48.85726916343958 289.4475315466767,48.74676637007326 285.8450904444395,47.11696579094098 285.7061541244399,47.20627740606835 284.72886672887364,43.29751040442318 284.6494225333223,43.14925146636199 282.45615106664593,43.74239814283612 282.2956606844451,43.870593145103726 283.8704179466655,47.08013037400781 283.795342817764,47.29717562533153 277.3732517244422,46.84030286550808 275.81182011555177,47.50526623921871 276.80592841777946,37.462967131672144 276.69823092444096,37.147599237468626 271.81339593776613,35.912749710048615 271.14776863108966,35.3917307108419 269.6221633688907,29.721188847928374 269.6778689688723,29.53944692986954 264.4368094133457,27.774829471650833 264.1416789599822,27.7358267433807 260.9757804355537,22.808899811170363 260.6895337510865,22.57905713054754 258.0881914577691,23.673607585318337 257.4845320799865,23.461570627193964 258.63053826665384,21.84666098004493 258.5849543377768,21.694601649178026 253.35984187553515,17.55799398471538 253.29510687111872,17.107448880349352 257.33365364443273,14.667545699943389 257.4963285600021,14.3692837062041 252.88230288887974,15.054263189660219 252.63960123554682,15.011055301518013 251.390557893326,11.652075687037382 251.2645831377664,11.556694786478715 246.64749912001537,14.83788318507834 246.37392272888212,14.837202743444891 244.89579465776444,9.794443028971386 244.81715145777673,9.675241161654071 241.1987632622255,10.758482789263894 241.01839362664725,10.876434716737663 242.09922790222447,12.363400983616543 241.99844809776516,12.69909974370205 239.57667444446236,14.340137864790108 239.58461158219836,14.467041239367632 243.3704806666425,16.88155121474813 243.3782721688982,16.92214935830964 241.04803046221025,19.121548214032032 240.628672879982,19.25909982705309 235.6781562577595,11.646291594406307 235.7487166844436,11.234258471020098 230.7159159733343,8.554662793474222 230.0644153155514,8.052549999999997 205.11653492443259,17.60471528725577 204.5279488266748,18.03450402861165 195.95584002667567,13.743835472319574 195.21055007109646,13.338622833856448 186.6630536799854,15.531815805101019 186.49440770666808,15.497113713957901 179.6298757955443,23.719189754010245 179.5778110844327,23.795500115134587 177.43019636444626,30.637031900106763 178.08548354666675,31.054019954906494 167.87613983109588,34.14958588332922 167.61887462222478,34.123511534656814 166.93984884443455,36.80592973020214 166.74367775110989,37.09862749548449 160.20362185777742,40.4542235144105 160.11944450665726,40.5559015785326 161.92882064887783,44.27659866699071 161.9198640622268,44.52607180331654 159.50770235557104,46.04306148486614 159.28742857778673,46.25399042973697 159.58678246223246,48.873249548843546 159.42862224888052,49.15806229766861 162.54726203555003,50.88878055639327 162.72217033777963,51.268780938851364 157.39642370664626,55.669134994117144 157.40618128889002,56.07709232421587 162.6762223200127,59.38245388515463 162.74772937776982,59.65010131458223 153.27886964445463,66.00084609397857 153.01417702221772,66.0861612332152 143.6372133244364,65.46085367963644 143.44854246223224,65.30732989019418 134.6856510844442,50.072445087985784 133.5044739111105,49.22459017037875 124.66971138664633,50.8070682279282 124.47557919109352,50.770008643237475 122.36153346664616,53.30008903204691 121.84940603553662,53.52334244065389 123.13507671998343,54.6295099120249 123.23876923556202,55.080084545239174 120.4478094488801,62.22361945039995 120.34149549334654,62.86086140679947 130.81953680888512,67.57445270389837 131.10855056890398,67.38479297359993 120.97275280889119,78.28892819198484 120.57065303999809,78.82947307460529 119.71584514665994,82.56375312219427 119.69698534222664,82.61460951276933 121.79231689777919,83.17867052728946 121.89673759110849,83.20177651661618 104.17238075554599,97.4387522618996 103.50828262221296,97.77845629851038 110.75911284445431,99.17495734080842 111.08038487999113,99.07236957464886 102.39002000887524,110.95428121025145 102.2654287911206,111.21159999178019 105.62494978667348,121.2654395487258 105.51929119110684,121.4520821640541 76.89462274665823,121.519314095705 76.72000571556384,121.61404985860975 77.71593446221198,116.66776266320778 77.61216912887869,116.25244834231091 67.61530768889463,111.52710534797336 67.44243828443689,111.23061866564206 58.52378967998777,110.66605556252 58.28603963554599,110.67647065567837 55.11708276443062,114.21148732545373 54.66262701331982,115.00195844630764 50.312056062226134,113.03758881860233 50.12942907555373,112.76816592105718 46.23884802667419,114.47795989672125 45.70181691554137,114.51271217082797 39.528616986651855,109.40989016181959 39.16984379557073,109.39619173134963 33.96897965332721,115.21477128129447 33.614138622222185,115.4598446068627 24.95188141332585,114.41196447476216 24.834644791095002,114.43743441552908 21.246548791102782,120.89090735097818 20.683594551089868,121.54093242645433 20.485457377777152,131.67649493937608 20.524342071126398,131.77936083493807 25.385729733337598,134.63553765330983 25.39111824887334,134.66337445636566 31.062021146680877,133.43808903186402 31.202413822211042,133.39406967648358 30.44307003555116,134.74360321164534 30.49411529777683,134.99288870343992 35.86726630220767,137.56522660949088 35.88663583109849,137.57756014154404 33.32869293331862,141.89944266198256 33.20628624890344,142.16577989525797 34.049224844442165,147.83922323062836 34.01849574223854,148.020684024748 28.02879661333975,156.0057184401154 27.984887493344672,156.083653526926 44.82421705779382,155.44614350758604 45.59309997331695,155.4648074093053 36.16378029334703,160.74541693817412 36.12089062223788,160.78228869343695 35.609782639985156,161.92744966007706 34.909712524451265,164.01356009643462 36.27854111110321,165.00450527983014 36.89312315555401,165.3148363843717 37.59290199998179,170.65849715143088 37.601203226665916,170.75620079487965 35.18336173333921,175.8524922413559 34.73327504887823,176.8459359994082 40.2120846488757,186.04002902670584 40.38611913778698,186.41897510803358 38.677668435564215,191.5829835741821 38.639439102210986,192.00111561876076 41.67885314665148,197.42998495545874 41.83825126221166,197.79630594772573 40.969098266657625,206.39018461573107 40.993200951117274,206.59574753880554 46.027894924430825,222.4225581602874 46.41200870220894,223.41752665960632 43.632554124436524,225.19141095923953 42.84364631999745,225.7125392362865 41.52739216888551,222.32618974689797 41.17204141332297,222.11740976344265 36.367742888898306,222.35669324904268 35.2947729333315,222.64602376764344 34.060074693326555,225.546926497154 33.95660063109938,225.58104321438407 33.65498939555948,223.74209915164795 33.555229040015206,223.26241354083288 32.483205715550525,225.27546059956478 32.4896864977851,225.33364004629368 27.77036631998601,223.37504852961104 27.494095671113996,223.10944649371197 29.037250017754218,230.83962033771206 29.892858906655988,232.5728256156359 28.26137659553899,232.7702701697632 27.210980151117496,232.88378916952172 30.9959026044304,239.2039964065549 30.985416844435917,239.28350683501742 25.626683760004767,246.588710895208 24.9984119733341,247.5517332194937 20.32219991999557,249.21405858615583 19.6305766666552,249.44769023180527 20.61842263999972,251.95546931924002 20.644928311121134,252.01531405151002 22.54394313778141,251.14767192873808 22.73982295999997,250.98032968308655 25.32143163553667,257.1267154021549 26.136335386668748,258.45828841576406 19.7198512622341,265.8137578173406 19.26568678222941,266.1972301872953 20.556745982211964,273.2650795004953 21.187566391112,274.38621154709074 25.532093466673928,275.94298141994625 26.452947084420543,275.51792997439736 25.97329638220947,285.4711208742734 25.89589108442999,285.8613387454458 28.059525715543373,285.27657512193366 27.982702960005213,285.81371832175466 22.656228151092023,290.0072032418608 22.03400023998222,290.33115441128723 23.721697875538325,294.0334943369013 24.009910639993564,294.97785379930394 13.623182817776637,298.1122880898689 13.531869324425884,298.1360929460858 16.217316151108776,312.21400199556194 16.25285122666503,312.43371672454634 19.236996577768537,313.6597267370013 19.303187937773714,313.7211956959578 21.3216239200043,320.37172852644983 21.357814355527466,320.73542117355794 19.516544026678844,323.6390113440208 19.226437999990253,323.83601414452244 17.97244304887829,334.2241710621089 17.93064564443887,334.31245009412635 9.592136275554026,337.51678095434147 8.893012791093156,337.78284177788703 8.052549999999997,345.12256584958925" stroke="#009edd" stroke-width="5.81722121246312px" fill="none" stroke-linejoin="round" vector-effect="non-scaling-stroke"></polygon>
</svg>