<svg viewBox="0 0 73.01605267553465 96.99366471008331" width="73.01605267553465" height="96.99366471008331" xmlns="http://www.w3.org/2000/svg">
  <title>Chropyně, okres Kroměříž, Zlínský kraj, Střední Morava, 76811, Česko</title>
  <desc>Geojson of Chropyně, okres Kroměříž, Zlínský kraj, Střední Morava, 76811, Česko</desc>
  <metadata>
    <collboard>
      <support-module name="@collboard/map-svg-geojson-import" version="0.11.1"></support-module>
    </collboard>
  </metadata>
  <polygon points="8.052549999999883,23.89981944797148 11.24786690666906,28.922270353613953 11.383744879981805,29.08542800804537 10.148755368870752,30.971043569377457 10.105064702197978,31.16125656391489 11.528360986652388,33.87582955875371 11.573143919994891,34.020187056484815 15.05623668441649,37.02801460594458 15.07181968886971,37.0697205004177 14.054992239987314,41.78586049396074 14.02906911110722,41.88883042314376 21.484444471112056,44.8782283727993 21.56177695110773,45.03183603914624 20.335671208893018,45.489190822110345 20.328170977772515,45.570577439262365 22.65397079999775,52.19122120319628 22.69802555553133,52.5444488552381 20.95309314665019,53.9362107907433 21.0093812888731,54.22191388691829 25.626028399979532,62.89960587662756 25.720545875555672,63.27008736399114 30.064563226660084,64.05831614380406 30.483702355536934,64.23355106529891 31.33406836441236,68.59010511187773 31.352782533307163,68.62351773442754 33.83994655110973,67.82417942977156 33.906793271081824,67.85368128763332 34.660602906667464,71.22762839230529 34.62375711109007,71.31959245629662 39.83372347555223,73.5779715409659 40.102056986659136,73.76680810283108 38.33658996443364,74.15297126661574 38.06046495110013,74.42549624269998 37.362943457766505,80.4727674644306 37.39469200888516,80.66012795457902 39.835980826675495,82.37863071973663 39.93261001777819,82.51794529283472 39.94943092443964,85.55216716070538 40.121790604439866,86.08459104382894 45.38214687110258,88.7736662593885 45.519918106648674,88.9411147100833 47.56733556444624,86.59176301008085 47.60126864887525,86.33337400004496 46.07326039998543,77.03436012515851 46.12132013333712,76.86307657040709 48.84667110222608,71.91897537132138 50.92277876442631,69.50508959637193 59.653775955557194,63.217560728786 60.049904666644125,62.80874532987184 64.41336436445226,49.84566496822629 64.96350267553453,49.59448118588591 63.46156319109241,45.386898405755005 63.39864863109642,45.343186506411826 59.2965319377613,47.0247839411237 59.09766658663966,47.21315274162737 59.17434370663932,51.7255384956876 59.00161993777829,51.931999846645 53.83956767110021,52.24297590293975 48.72368187554048,50.11115614778066 48.02870900443622,47.558139862747 48.01640279999219,47.53499918709679 50.11056927109121,45.30752383136826 50.11734132443189,45.236422002628046 48.570036364435055,32.802361450616104 48.57061890667637,32.71201026182791 50.5572335199754,30.596206864800138 50.55876269331884,30.555837962244937 46.78316091554689,22.56735587625701 46.76328166219855,22.38706707033964 48.68006402665151,18.281198516698737 48.69710338663526,17.93065878116579 38.84427551110957,18.826353829506502 37.88963444441424,19.023655322518266 37.25895967108181,12.904630598953759 37.316776986648165,12.460316232310674 39.29589136885579,8.465464483051278 39.254603688873885,8.277634085497652 38.53465431999166,8.052549999999997 35.14221968886659,8.819085067887158 33.62411465775904,13.568075199138207 31.356059333316352,20.874720439743783 23.890489484423142,19.513326829626408 23.5274928622307,19.512655743288292 23.002913591109518,22.318731642597072 23.129980613309726,23.33335302463786 8.052549999999883,23.89981944797148" stroke="#009edd" stroke-width="6.255761275953267px" fill="none" stroke-linejoin="round" vector-effect="non-scaling-stroke"></polygon>
</svg>