<svg viewBox="0 0 27873.81563966228 7928.3106708609985" width="1000" xmlns="http://www.w3.org/2000/svg"><polygon points="502.3276834399221,434.89738419393643 510.20452809773997,434.1430274510999 510.2388980889009,434.1224789558687 516.7493899644833,459.49655961056806 516.8312371467255,459.74448229154905 551.8032856444843,456.1571093394664 553.2811952621923,456.4301480857898 563.2021805777695,470.2565082604192 563.6265625867309,470.8103113338361 586.8187335377806,475.37582273115504 589.0524916889626,476.3902663042313 587.9153692710461,489.5812527990561 587.5343866577387,491.0968819720215 615.7378770755386,474.7928122826047 618.085522231042,473.84273472973246 608.6334834045047,459.88784813226766 608.4869740356007,459.35867247192755 622.4443944088198,448.92145720872895 625.0087452711086,446.3452930437411 602.5240718489295,431.7671518570055 602.3530957066469,431.666234788579 616.8100460355417,418.61694224031044 617.1709309422658,418.28357585831645 581.5761448088815,427.2742419074416 581.3617692710613,427.32675638431783 592.5806586578037,399.3434130281453 592.1915204534089,397.47912887912344 580.6825250399779,403.71176712329134 579.8923065155759,403.8661307693469 571.1999027466882,395.15902723102 568.8560441155932,394.3880903181048 568.2901043466773,372.7409070504723 568.1398084533648,372.34991788832804 605.6231964711114,349.31045786196 607.0073167910814,347.9920943313987 599.9410796355005,329.85807146909747 599.9335065866835,329.1152271331298 609.8658514756025,325.8340724135992 614.839888239956,326.0035679781354 626.1114976977478,291.0129421776287 627.4094017689131,289.2505367588378 613.4546028355617,276.5097970365091 612.2003894310692,276.45861688486866 580.7445657866556,298.6710371930162 578.4225524888388,300.29674829901296 550.2289652889376,287.9912100241413 547.8029682044653,286.5294496720667 525.6605383377537,317.22525938015997 524.0725282400163,318.8485468559443 523.7768880622243,328.6131433255864 524.3506921510925,345.9126633355404 510.9772703555427,382.13585383594136 510.81153709334467,383.0479673299483 516.6576395644588,411.8714248600659 516.7857988533578,412.144519412926 502.3276834399221,434.89738419393643" stroke="#009edd" stroke-width="6.0908435548192195px" fill="none" stroke-linejoin="round" vector-effect="non-scaling-stroke"></polygon><polygon points="492.05076482668665,1745.2635105586737 506.5962615733515,1764.7592407458355 506.5289779465893,1765.1981071785917 528.0017755288645,1762.868519603136 529.0879255021937,1762.941135216773 547.0468283999726,1775.1660822037152 547.343633662189,1775.4320217420823 563.3574280800312,1834.1558566122908 563.3632535022698,1835.0745952068605 584.1664187999922,1857.547775290535 585.8884136089837,1858.21327922718 597.0347764888793,1839.7281167594842 598.4480239199256,1839.2177178199413 589.6440633155653,1842.2909818754774 588.2386802044712,1841.9366558883116 585.2650934310877,1836.0092092549671 584.6741043466391,1834.0746444709725 593.9895370221711,1832.6690798168197 593.508939688887,1831.7775533096642 581.0836053599851,1830.7880226663324 578.3575990311583,1830.141490586429 586.2769692711081,1826.78539110066 587.1394230311053,1826.1016424374898 582.6925869778279,1806.8242185472986 582.6564693599721,1805.7656032134323 606.1766115822611,1801.7384618249848 606.7393473689226,1801.8582561766157 622.2265236177263,1793.4538871854088 623.047616880016,1793.2179194391715 625.3620571288993,1780.5760272026305 625.6611925599645,1780.0037711150721 646.6542666222449,1779.8794266115651 648.425486248896,1780.0432527491134 683.7895856622854,1753.9121055481733 685.8561541955933,1751.1071934840652 699.4122029777864,1717.0305244827537 700.1575657510912,1714.0753336878038 709.844951635554,1620.1356397591076 709.6725191377118,1616.3943569181497 721.2785078311354,1625.9590696086302 722.3873769511483,1627.0998495826275 722.4319414311103,1608.4415328150858 722.8414686133401,1607.8919865158746 702.4510344799855,1590.9484748518803 701.7860625333633,1589.5685912770928 664.8796825867394,1598.296502685676 664.0958720266135,1598.4127755777222 644.5038120088648,1617.5756064853408 643.1561005777694,1618.023398762081 624.9405878310572,1606.9600254856991 621.3594095200315,1607.2061871206165 609.9150762933787,1619.5438873618618 609.3607873689398,1620.4272009775518 612.9888603288928,1646.5784710197254 612.6192372888108,1647.4893742557392 587.3141856977963,1671.235993219983 587.0622361866772,1671.5697115072176 590.8274978399058,1681.430742332806 592.0750120088705,1682.5312781102034 583.0692005244564,1692.005008300977 582.7761817866485,1692.7886031087614 542.9378668356003,1700.6012431149497 538.7182222489282,1702.5070325423508 525.2012037955938,1727.6834044980128 524.2895252177041,1729.0692210559278 510.34579458667577,1727.7605710631246 509.54800301334035,1727.7673798764367 492.05076482668665,1745.2635105586737" stroke="#009edd" stroke-width="5.052960460512068px" fill="none" stroke-linejoin="round" vector-effect="non-scaling-stroke"></polygon><polygon points="558.1384323111051,1542.7000393555277 563.6769524889314,1569.7891465055068 562.4795369511485,1572.1530540025337 607.0370264444282,1569.8977123818836 607.4611171822544,1569.7428129349496 608.4496913333205,1588.1650799112754 607.6964642399471,1590.9016915823809 614.0787968266304,1595.9015397984545 614.6703684533495,1595.9247037987002 624.5587314044606,1588.601123247157 624.9755403644886,1587.8557611398642 623.6895784088192,1569.6642275427944 623.4801544799484,1569.0428114189194 654.5369367021849,1569.5824623648436 654.9840378578301,1569.4398274806804 667.00654424003,1549.7080697585257 667.363351351094,1549.2883030008302 699.2051092177644,1538.6471267911616 701.1400232089,1538.1214828943844 665.8746647021981,1522.4151840805785 665.1287193866228,1522.123491434591 652.7884362222176,1498.5786970205731 652.1691938399817,1497.6576274422473 639.8848347288804,1492.548733083509 638.262454639982,1492.1470324836914 632.5249962933376,1493.368490828761 631.2870940711364,1493.4180215469455 632.3516899822062,1506.6514072809146 632.0554672622602,1506.8254357283363 623.2969449511511,1500.573501330196 622.8376104088748,1500.6271199633843 619.606831244404,1518.6045205022451 618.2742659111755,1519.5468560677614 586.6809623022345,1518.6799438463418 585.8965691999547,1518.2342187644458 558.1384323111051,1542.7000393555277" stroke="#009edd" stroke-width="5.0533180502030435px" fill="none" stroke-linejoin="round" vector-effect="non-scaling-stroke"></polygon><polygon points="768.2689849155504,1546.3603618999837 777.6196613955326,1566.7601821272178 777.9225833511227,1567.0531776750354 816.1842477777755,1591.5066938634623 818.0818790666308,1591.4917050885047 834.0531479022247,1583.8005104775434 836.3600151022911,1580.9420765575264 834.1486848266577,1565.071702417546 834.5075308355517,1563.0588648441258 857.6979541600231,1526.17762065956 859.1414937866866,1525.592427698582 878.229654782197,1525.6942005005908 880.0978676888408,1526.6942066153056 876.5175631911043,1531.924967839535 876.0346356888549,1534.8208463284896 902.6527374489015,1550.1528217486116 905.2368947466384,1552.4833254781329 911.5283507467029,1541.268058252615 912.3069184266278,1541.0981461633705 931.4900338044172,1548.6436596166818 936.2662974844934,1551.6238131695204 985.8854963467238,1538.2586865232802 986.6853268177729,1538.3327401015335 1005.1254095911063,1571.5906970923893 1004.4694670488607,1573.1801011169805 1013.5588733422119,1574.1935161382785 1018.526210871154,1574.6118721052549 1019.3009920266704,1612.2869555477296 1019.1431230844246,1613.1657570336024 1029.6454855378033,1652.751741062944 1029.619562408865,1654.0708319529435 1055.192292151136,1664.690924969363 1055.7701740355478,1664.4493689081642 1066.6747818933582,1680.9631037452268 1067.9051110667424,1681.7276696131808 1154.7493404710913,1689.4022365775668 1155.2637252532659,1689.4980307513392 1159.0286956354757,1671.5787922697268 1159.5253128800323,1669.8693320361558 1176.6730257333038,1682.9417075194428 1177.5322755111629,1683.4610993787423 1192.0917532710373,1658.9811399209789 1192.7398314933307,1658.7986059507598 1210.1581352088615,1674.3102684449182 1212.4111172533376,1675.6482978666095 1202.5323662488736,1692.6410550552896 1202.5812997955145,1694.1197090246492 1214.7692481688937,1707.5106717837402 1215.096636897746,1708.1226132331426 1265.3109026399688,1706.4079925274486 1268.0960370044704,1706.521937822668 1279.0993857688518,1694.2309368105848 1280.7817677067142,1693.1844853916914 1290.4074041156346,1698.2305594092245 1290.8279995999546,1698.125689426182 1300.664516293422,1681.7194973081128 1302.3113631555825,1680.1495010108697 1293.1907908533249,1662.9727835454755 1292.8319448444308,1662.3607150878302 1303.8166522577885,1638.5836102718963 1303.464214213287,1637.9719272962316 1333.0186200444368,1614.9683108313252 1331.4894467111226,1612.6675428803205 1351.5396761866068,1614.1322074881532 1352.963118106687,1613.6217332529845 1357.276260719962,1604.388028494875 1357.2133461599951,1603.4519648278142 1348.9613443111084,1594.2001145260651 1348.257050764376,1593.0091997564082 1354.656859617775,1588.3994533130094 1354.87298278229,1586.9268937563534 1342.2795850222246,1559.4201741520442 1342.1712321688901,1558.6447299513743 1348.1315129155773,1554.7156793153622 1348.5786140711061,1554.0846805234683 1343.526516648919,1540.544795177389 1343.1918461422683,1539.8824076627275 1346.8178802043913,1502.630084517506 1346.732246497857,1502.4583246687903 1356.958775208892,1490.1058003207213 1356.6744946044419,1489.4032703038897 1388.156532648929,1492.1702075383869 1389.995035902226,1492.547824259534 1379.762681768836,1465.684506714671 1378.9759584978237,1464.0038769087182 1388.40120038225,1463.0767526884224 1391.990534284363,1461.718781252835 1384.8829366310747,1457.1067051672503 1384.270393484483,1456.0391146821562 1387.8227359555676,1447.0432408834236 1386.917465342187,1444.2861830573306 1398.3845177155235,1448.3767607576806 1399.0727913511,1447.150050036354 1395.046842053278,1434.9111976393974 1394.7899409333259,1434.329849780515 1355.0835717955852,1404.6354060183871 1351.5556960977628,1402.7851931473483 1381.5601157955607,1375.2647132361085 1385.4086809865912,1374.3817670533676 1367.3475419288516,1343.2622156097564 1367.0073372710976,1342.6392425508016 1352.2867865866065,1335.3598746373095 1350.966454640009,1334.1852761209952 1324.3640815199833,1328.9856801458877 1324.1951442755308,1328.6523451477183 1309.7309121688377,1337.870938518528 1309.2439068710446,1337.8491112139086 1306.3361473688637,1330.5800421107338 1305.5240835111836,1327.4995387223094 1286.8830236710855,1323.617241890613 1286.734475404468,1323.5067338904842 1281.623249946606,1338.8313377505178 1281.4802358310917,1340.085034338735 1236.478557893286,1369.002628651309 1235.3353187822286,1369.1458497658964 1210.429017342256,1349.903361204058 1208.8279000444818,1350.0343177348036 1181.8037663554787,1306.574243319606 1179.8921540532974,1305.6350772547662 1099.713372755541,1313.4543637087113 1096.199186800026,1313.670387229627 1114.461011653395,1321.1492165003215 1115.6671653244193,1322.5312596000508 1113.802738942184,1331.5904959195536 1112.9577614489026,1332.6000355370702 1102.173448560039,1328.017051791226 1100.5274755111677,1327.9142768861852 1096.199186800026,1343.814704820957 1095.8904394221972,1344.3635548524685 1113.0020346578458,1348.3900800132901 1114.2877053422635,1346.5248373165155 1122.9154469244895,1378.6837089024261 1124.3945216267384,1381.473424031144 1094.4381616622923,1399.5761502347664 1092.8518991911333,1404.1394414104066 1072.5983624799192,1404.0239737774605 1071.2710400266587,1403.902141720267 1066.747308399972,1374.6381946356046 1066.627887244431,1374.1603479578403 1046.618726995519,1344.7400642630887 1046.4704700000366,1343.7605927709733 1002.545330088913,1306.1085266112127 1001.3511185333846,1304.8751001942214 960.3724771821653,1302.9471751884334 956.4505116711152,1303.6530369536845 930.8804033688284,1287.273906372698 930.9249678489068,1285.3590157073118 920.6693120266791,1293.4496549217506 920.2723095022156,1293.5192436644934 898.320370942216,1284.8100166247818 897.9216207910576,1284.4411357660788 885.1919081511223,1300.4120573911127 884.2773168622298,1301.6154915939328 877.6109949422316,1354.7509737877185 877.1330190489316,1356.1973702176833 860.5675571466345,1362.037421876193 859.5122819110766,1361.80007621504 830.8261552622789,1352.3683318324397 827.7948968088967,1352.504288631469 824.973353555637,1342.0340020513172 824.5836328088553,1341.7216045298624 815.0680968799643,1355.6126289031595 814.9157620889382,1356.1141606243104 818.892777840003,1375.8089372890313 819.2195840265849,1376.8246366802846 844.1879262133516,1397.5776912984215 844.871539511114,1398.2859734330336 841.1307446311475,1409.9550212358367 843.108184204415,1414.1744354412435 871.9489758133204,1441.548180048157 872.8638583733482,1442.6894733424192 861.7908958133557,1459.5568259601491 860.2139540177086,1460.5103249742892 836.1934080266874,1464.0388712258205 835.9417497867034,1464.0434159419742 849.9955808977611,1490.296655431251 850.3823889333071,1491.6458145178399 817.0175744266962,1497.8616535510878 814.5953638666324,1499.2125832894594 799.7201482221499,1537.0988133837595 799.2311040266432,1538.0233504444836 791.297752773251,1532.6573461493022 790.1880098400652,1531.8245609436194 768.2689849155504,1546.3603618999837" stroke="#009edd" stroke-width="6.263482537300803px" fill="none" stroke-linejoin="round" vector-effect="non-scaling-stroke"></polygon><polygon points="473.1289196355283,159.22478627353075 484.7066550311647,196.69610527854047 485.3963850221844,198.6316021270245 493.9218904444497,198.6864577138108 500.76384884442814,200.8770127873645 502.2178742311444,207.5710508511179 503.20761346675135,212.242218552135 491.8221170044053,217.3091262422745 492.02134644447506,218.17439686725947 505.8730354044601,218.829861061276 507.84552336889465,218.46373381678814 493.94286196443863,223.22196847826808 493.5362474933281,223.76954727658403 508.8049704088844,234.4584834604534 509.9080141066588,235.74280229883834 505.94963970661775,278.725154866675 505.62574623115506,279.6802010665774 538.6547251466909,277.98624781190983 541.3291764888927,278.4459515695703 565.8046879556277,297.7713621428479 566.4073278844371,298.17527969214234 573.8079442755334,299.1535429429855 578.4225524888388,300.29674829901296 611.1395800444079,276.62129661077734 612.2003894310692,276.45861688486866 631.5300141777625,289.9816374545112 636.0170456444393,290.7346685911539 646.4232886311147,284.6815584472856 659.4643700888628,276.55686448675215 669.1124343733318,281.3937901508539 677.7937698400128,284.8268679723619 687.8991297689281,276.1154353769739 694.986920986652,272.28236714562036 712.981067688881,282.8039495589687 719.2396100533442,285.71563008390467 765.3498658400276,281.43034657030466 773.0635986755151,280.1193381212429 872.3940380711356,255.76896386975523 872.4875360977385,255.83431619682915 878.4859733599951,243.99379786689633 878.7769532000893,241.60440989500012 872.535304559955,225.98864417416144 872.087329591137,225.52654368765752 811.613621502278,180.06218742367446 806.3742367555169,174.75530285991363 787.9309500000454,182.4933993299269 779.3177719732994,179.90949287274952 763.3025212000139,157.43158885927505 755.0974140000544,147.78592541922217 535.3176320267157,8.228699973296443 534.903735777807,8.052549999999883 528.3178046844914,56.73174443576818 528.2915902844179,56.90602507480753 498.99088159108214,85.32652954394098 498.83854679993965,85.61970303822409 509.2893542666934,113.77348530517293 511.9224451110713,116.98743017999323 510.2161789422171,141.91857673825098 510.0385035644067,142.49791133680947 490.700140684472,109.56345629637462 486.71293044437334,103.5944588420457 474.2587602755302,111.74393776638999 474.10234768896044,111.85186371175905 473.1289196355283,159.22478627353075" stroke="#009edd" stroke-width="6.304353711211893px" fill="none" stroke-linejoin="round" vector-effect="non-scaling-stroke"></polygon><polygon points="1694.2323717955514,1596.9498218877484 1701.8625098222183,1617.7786118204017 1702.099895777741,1618.2518360492318 1696.4046717422098,1633.2341641522721 1696.4958395999638,1633.36086308139 1723.6921145155575,1621.647484889348 1724.9291429244695,1621.6579301631205 1741.5187803288936,1639.658932966449 1743.5428232799532,1640.6565988039724 1731.2310846844703,1659.8869965367844 1730.942143742206,1660.8850236690846 1825.664674160049,1677.6205936205583 1826.9713163644556,1677.3504482746134 1807.2411938400255,1683.4719956981494 1805.1434592976948,1683.0179819261316 1795.23441609773,1709.8689975044467 1793.9202008445063,1711.0066138233883 1734.1627284177594,1722.9099183577705 1733.4843579999651,1723.129166925129 1732.6982172711068,1732.2230215810482 1733.4100838666564,1735.5565227025431 1723.5412360799746,1739.5090883036387 1722.4218812000254,1739.7823337546793 1727.2706713865991,1784.0671651751395 1726.4597726133434,1787.6408380329735 1765.475829217794,1789.7936356194327 1768.461066835538,1789.37796219634 1775.0601051288904,1804.6461788257361 1775.713426231152,1806.2847019887772 1803.0352389955442,1816.3211245309571 1804.1024563467145,1816.5629657943277 1841.7448783911314,1813.0047413346833 1842.2927593511777,1810.8390146489032 1852.0389819999473,1827.9174055655963 1855.3035486133085,1829.7186348821047 1868.9801836354673,1823.2953920155192 1869.3011644000435,1823.500927833818 1878.7829128799276,1846.6798579997626 1880.6482130755685,1849.2063478580453 1880.4842274399489,1842.5858750229013 1881.9210678310847,1839.7376441950105 1911.2494472800536,1834.0392559306706 1914.999271564513,1830.7807633693806 1919.6025202044766,1805.3436076672292 1918.5216131111156,1803.429189639493 1930.2971215910293,1787.7937672319017 1933.0936155288728,1784.9243982112162 1927.9748170221937,1767.0157400126113 1928.105889022212,1765.8598089789516 1910.4292278310531,1755.9086544227098 1909.341912773416,1755.1094016616476 1890.0009284532644,1766.2328663086296 1888.959925502284,1766.5569082877842 1868.7352246311275,1756.8912638168326 1868.4020104800366,1756.681580336975 1892.6110088799396,1715.4312764443234 1893.3887027466917,1714.7158554068078 1886.4981020710911,1708.8167198117367 1886.9763692355264,1707.3272705987106 1909.683282515478,1685.768382841699 1910.030186408876,1684.6728575580996 1882.3725380534088,1657.7992070459072 1883.466261075555,1653.7289134644448 1908.9128704266404,1653.5018756584973 1910.1635885777432,1653.491431913782 1929.2208748355988,1667.2286095599188 1930.1881861955408,1667.6063765006616 1939.7404222844416,1654.1448461102332 1940.9238568088986,1653.2312462842451 1929.3997152978336,1652.7726286230386 1926.9888643111117,1652.9188414873565 1933.865192702251,1637.7716654583123 1935.3410634222455,1637.4946589841052 1929.589915333294,1634.8008661542913 1929.0595106399633,1633.563853684907 1924.5116035110332,1594.3908782997528 1925.6399877955919,1593.3884582187525 1913.0227058044184,1578.3888496445502 1913.5003904266996,1576.5455656135232 1884.7676603999935,1584.5440696034125 1883.4324736266644,1585.455232665328 1903.3510485599763,1570.8897930275193 1905.9887997421683,1567.977133143147 1876.7183832444498,1557.1942284841566 1875.798549075589,1556.7454023933747 1875.5093168621897,1544.7039793125364 1875.2681443822585,1543.082565706492 1859.9219433510225,1522.7259589924138 1859.7265004354776,1522.566482448346 1811.7955089333482,1531.7441445273357 1810.2887634755825,1532.066264343251 1795.4633551910301,1523.6978092497807 1793.9656391377575,1521.824983134727 1788.889657484462,1541.2907737624842 1788.0886619288722,1541.3970823170744 1750.4206080266522,1508.8960454975963 1748.6852147467216,1506.17067001036 1728.646636115598,1510.7017356175706 1728.2100207200056,1510.8007891459633 1736.3251251466354,1534.7440656111353 1738.0025554755484,1536.9429819343854 1756.5640983022531,1531.6882619154999 1757.2797514222111,1531.3684131941768 1769.052929733276,1542.0499247379844 1769.3739104978522,1543.4905324984352 1743.2486394578373,1552.491048353469 1742.2513271734133,1553.440505641956 1715.0576736978037,1597.3345237960816 1715.298263635581,1598.2765182761718 1694.2323717955514,1596.9498218877484" stroke="#009edd" stroke-width="5.633731907262431px" fill="none" stroke-linejoin="round" vector-effect="non-scaling-stroke"></polygon><polygon points="314.4525738933371,360.30381724457357 333.47752905786183,393.712148113736 334.6641675644569,395.9171734156912 366.1010585865952,412.48748549595575 368.32345716443524,413.67713061805216 392.8819808977205,397.7773606157639 396.9536597600454,394.7109889916387 401.5802100888468,380.57698497895717 404.1573768800372,375.4216303274511 442.9852723466247,341.15529600127 451.1461063377574,333.0244968291149 444.14161865783535,306.2945937565305 416.957285857854,303.9049791856446 415.5315137689249,303.8391844535722 401.6731255734121,279.7213273633747 400.6784347288558,278.27459093891184 379.65914626673475,269.0268563030181 379.0026211822187,268.8134458961208 363.6535074399799,280.21986885139586 363.39514996446815,280.7362305026395 372.1466817689143,297.54701394795075 373.91877520885464,300.30131745301287 371.19655540443637,315.1880232378385 370.90877954659663,316.30464483737114 358.2425640088986,317.68076795773914 357.60730171550676,318.2313061335367 357.40195558217965,329.2892886728873 357.59943739555456,329.71553327001266 339.32013627558626,344.4435278225933 337.7638747289093,346.13787508159976 347.62369311109796,360.8496792323781 347.17251416002546,361.8801898301822 314.4525738933371,360.30381724457357" stroke="#009edd" stroke-width="5.242261654659115px" fill="none" stroke-linejoin="round" vector-effect="non-scaling-stroke"></polygon><polygon points="527.0871842400884,680.9784314606582 557.8646374665914,719.0984203438052 558.671167173401,719.4573183263778 544.4017954399824,735.9272237525797 543.8078936444144,737.5487466151603 550.2342081689058,733.9509193735207 553.3161477955073,733.516348874989 559.1823479733212,745.7177360628043 559.580515582209,749.0923987554629 589.8211561511052,755.1471443146943 590.6576867822805,755.4904801207372 583.7397066222984,783.9895608906877 583.9995204533698,785.0276358443439 608.2758024799186,820.1715431690459 608.4796922578025,820.6364800489168 736.4449945866145,816.9757588899006 737.7481415377479,816.5035209066477 750.5634878844503,778.5912175104381 751.5144880622174,777.4938433816783 799.8558805599823,756.4730649818443 800.5578439377496,756.7571246484072 802.1700295377304,744.8390657795021 805.6757686311394,745.5567759710025 794.0424004533343,731.992381232652 793.5277244000245,731.1268795815772 792.7937211999451,708.4858076362648 792.7651766311392,707.2202493566215 772.2733801511131,687.9632419604236 772.2535737155486,687.8560587006864 800.4355100712055,678.4798270112728 800.7908608265934,678.4200754388944 784.8781374845203,664.7046014332805 784.2865658576848,663.239905949194 791.0248317422593,642.4370601947662 791.8584496623153,642.0684546214538 772.6945581777036,631.4415784725929 770.533326533252,629.3411417198145 757.8382751554964,599.9561609519656 757.5088475289303,599.7421636421709 730.2572311023032,626.7926696339632 729.2552584799487,627.3812023673449 698.6994625688312,623.1729300828661 696.5743485422354,622.7217130393615 708.0131476177849,636.1072673335216 708.0848003111096,638.805264341157 682.8033416799517,656.9421956459769 680.2587972533438,658.3216315381355 670.0293558311896,659.1468256002768 669.2260301067508,657.1812255098262 674.9684400622282,643.9557267956911 675.9873064089115,640.463097051404 638.2269195645131,618.8007844559975 636.622015742214,618.915758004448 613.0817758133417,643.1177015126227 611.9064968799721,645.2750284083081 550.6047050222769,642.7801182842591 549.3886481333539,643.218520185655 548.2917211288368,656.7501504691095 547.2626602933524,659.2677078277115 527.0871842400884,680.9784314606582" stroke="#009edd" stroke-width="5.4405248221504054px" fill="none" stroke-linejoin="round" vector-effect="non-scaling-stroke"></polygon><polygon points="567.5779464799925,389.3682556950148 578.7050854667104,403.2619197761883 579.8923065155759,403.8661307693469 591.0561456623036,397.335721741641 592.1915204534089,397.47912887912344 580.9245713333148,426.6221480385061 581.3617692710613,427.32675638431783 612.2711683111047,419.3535431259438 617.1709309422658,418.28357585831645 602.812138977788,430.1474500644031 602.3694068889381,430.6365126935193 623.9595867289245,444.60652473304754 625.0087452711086,446.3452930437411 612.3597147288747,452.511689507613 610.1847933422323,452.42676291391354 608.5431893600398,461.82601714941075 608.8522280088873,463.37425702470455 619.0120556355469,470.78017863908417 619.1172045066269,472.0306819487373 610.0423617688721,476.4464212327507 609.8279862311683,478.5277956785644 663.6668296800708,473.3030924773552 665.6800956000588,473.1259507343998 690.2118223911166,483.08949226266805 691.7654624976931,483.7774820038826 702.5928835110753,528.6856595305503 702.6805561155561,529.2461598214354 760.1774734488936,527.9873143064101 763.3103855199661,527.6449873943707 774.1290683999905,535.0080918087401 774.5546154932599,535.1030273015854 775.3582324889503,557.204977929337 776.2469006489046,558.1409989919989 822.2560853600517,589.7091486219792 822.6455148355817,591.3591433337201 829.8833106755992,586.913346284105 831.1282034044634,587.0411134575038 835.0961897510351,568.2521419722248 837.2338284355137,568.6094643138126 849.8403333956157,502.42815677947465 850.4415169688655,500.86558810712404 862.9588929689271,499.68052997525183 863.9174661955112,500.1406765832576 867.9183661776842,519.7745143661518 868.1403147644378,520.7860114481659 888.2543326132945,498.4804009414288 890.3922625689083,499.30666013688415 891.116362551089,474.59695329124906 891.132382462245,474.45222753592634 916.378888560088,439.1006374542262 917.1332807377694,438.4741501234016 964.3148316711668,413.32640290781956 965.2608802399845,412.57014435096744 991.3442082400215,425.1179408313251 992.4393876178437,424.1936747573559 985.662091404527,386.7151089682952 984.9642058221871,384.26106775992184 998.8785180711202,363.7365582549023 1000.2425406845068,362.125940303878 963.244410337742,285.60139351283533 961.9555356711862,283.456933420362 877.9800354400431,253.1566826728881 875.9731774844477,251.54067209127925 773.0635986755151,280.1193381212429 765.3498658400276,281.43034657030466 703.7900077778395,278.4774819108784 694.986920986652,272.28236714562036 681.3516464622007,281.8192151001199 677.7937698400128,284.8268679723619 664.6953079732848,279.61988248382795 659.4643700888628,276.55686448675215 631.5300141777625,289.9816374545112 627.4094017689131,289.2505367588378 618.7330179111814,299.5528887450705 618.3453360622298,299.7900285239807 623.7795811822652,307.16179344265356 623.9301683467129,307.4848221537318 614.9645522755818,325.6906178430431 614.839888239956,326.0035679781354 600.9048957421692,329.0320795766088 599.9335065866835,329.1152271331298 606.5060392088271,347.3890979427156 607.0073167910814,347.9920943313987 569.8915129154702,371.94248450603436 568.1398084533648,372.34991788832804 567.5779464799925,389.3682556950148" stroke="#009edd" stroke-width="6.23297704776915px" fill="none" stroke-linejoin="round" vector-effect="non-scaling-stroke"></polygon><polygon points="435.34639618660003,1016.1730749623162 459.870841199976,1022.4995313280738 460.45396596447245,1022.7285955021866 455.7071206667242,1031.2866788166352 456.08868582218565,1031.7575389316548 483.5925430311836,1046.3546067026105 484.5249018578106,1047.2316016702457 537.9256735555609,1047.9537765903874 538.3343269243851,1048.4446355999457 542.3334792799797,1058.0671605138118 542.9180604000358,1058.71189496338 537.0439959022697,1068.3152975685439 537.1494360444849,1069.6716324042422 519.7777357067462,1075.0208542648247 519.1721830665847,1076.3320741713756 531.5978086666219,1097.6997451939746 531.5946046844838,1098.131766115875 508.060772720004,1096.6335739722485 505.5829293777715,1096.5634668853377 514.2700902666911,1116.5112068160447 514.6668015200194,1117.3428539469382 475.78647725340124,1164.9280669923533 474.98548169781134,1165.2671144506671 479.7847557955902,1173.8082052144814 480.9676077777767,1176.074941928709 505.3006876710351,1173.7253808190358 508.59379885331873,1172.6090687165047 550.6306281510988,1223.9325598181235 552.7435087911799,1227.5268247652343 599.4866967021735,1256.5926888841564 599.4060146044721,1257.75178530519 606.2916636711234,1239.3970309667998 606.3219558666242,1237.5058304032787 592.6316311021583,1199.621938196687 592.2404540000498,1197.995217980911 601.1189800088541,1205.1963770873622 603.24613293328,1205.0944540947453 638.6125625155182,1193.1331857807013 640.7175788355307,1193.4753744802215 670.3686866755379,1215.0540155495178 671.8227120622541,1214.7414354044954 684.4988308177344,1204.3641562530897 684.8594244533233,1203.7016534078643 677.6606589421644,1171.3102621722278 677.3868640977671,1170.3427509182725 688.1306903022123,1158.9043114335868 688.5687620533645,1158.387760700752 685.7574132889058,1176.3579979336132 685.5878935021829,1178.3553070726698 702.0694693244077,1177.373719982315 702.2873401155011,1177.5803223624603 704.8211075110376,1202.2515113511831 704.9111102844836,1202.32840961984 698.2366327732816,1209.5881206126428 697.6019530221602,1210.7183477430149 721.9606647733381,1242.6325517049768 722.1683410756305,1242.9951344768992 770.8400350132506,1234.0309282373414 773.5896343021668,1233.1082818746577 778.6513436711175,1228.4977210698194 779.193690479944,1226.049088603329 775.5877541244045,1215.2173578335564 774.5438384623048,1213.562544668071 810.4310607911102,1190.2946369297347 813.5441664266182,1188.6541954243799 833.9281925955802,1204.608954183153 834.1813071911238,1209.6136008382086 861.9971157599721,1204.7600189392465 862.6635440622704,1204.5115810619095 890.6963496089229,1183.3924127614368 891.6624958844404,1182.4431577615683 882.6869765955271,1172.6887079681978 881.7785020000083,1170.8984105424965 887.6216917600032,1158.5297553858031 888.704929022213,1155.6475181628261 874.6572146044127,1147.0442699659393 873.24600607108,1145.5418638392362 889.0760084177382,1140.2002957926375 889.918364471152,1139.349619838154 897.6306409510798,1118.9642608156205 898.8207747110646,1117.8158034671574 885.4456052889363,1103.6751237411877 884.2697438134128,1102.8579915528312 857.5718337688377,1097.4575581684253 857.0222051822129,1096.2602762355596 868.7578095199788,1047.7452294768077 868.7770334132729,1047.5239325389043 853.6673445243869,1031.49478636284 852.9307198844399,1030.153240560881 856.7830715999953,1013.829069695646 855.6823580710698,1012.8763406785797 804.2616473866874,1012.380391653081 802.9398590845303,1012.2314700991624 788.7651504622554,1034.5790352097024 787.1925777332872,1034.3955206692694 755.0365383378012,999.6966454275894 754.7930356889046,999.5021707314659 733.526749324381,1004.8289837480183 733.0310058933464,1004.2469392337148 728.5946556000054,992.4285476205182 728.1711474044496,991.3705130922967 732.5568165244549,966.4434948854391 732.4761344266371,966.0230552188364 671.5588204355226,982.4551262600357 670.1251840266414,983.1866262681792 644.1872003110839,946.025038408326 642.7695838132422,944.6560862783585 644.0596235644553,935.209853455111 644.3861384800184,933.7916302197623 631.7595358133331,930.4089048775854 631.6316677955692,930.2253022495202 639.3611292710775,919.5633269167515 642.5761797955274,919.0161359477565 632.6522817689474,909.8827181232987 632.390429040046,909.6558129967666 638.2106083822218,904.8442749428573 639.5961850577514,903.9448335516277 631.8533251110712,893.3120967055215 632.7973347821753,891.653005585867 591.0401257511476,909.4808498456619 590.9906096622362,909.643966537878 521.7452720622314,896.0738788668309 521.5236147467294,896.1317478745254 513.1291813244825,907.720730923676 512.7881028533229,907.4701303821998 514.2479536622777,922.6099844638152 515.5248862133376,923.9786200516169 487.9854939288707,944.129458799936 487.16702210668154,946.2523610709245 497.4617082577679,969.5723967897134 499.07331131559476,971.2482015217897 444.94028404446,996.5344743629462 442.69283615108725,997.4754334358508 439.1850581599647,1000.6799469028842 438.0834708177499,1002.1947416640246 443.60509727113094,1008.2692994975728 443.9281169334208,1009.2411765432694 435.34639618660003,1016.1730749623162" stroke="#009edd" stroke-width="5.568265299243843px" fill="none" stroke-linejoin="round" vector-effect="non-scaling-stroke"></polygon><polygon points="527.7195338222446,1342.3022906851033 563.8814248088529,1332.4658852724601 566.0513945866624,1331.2676241512304 571.6091386577828,1322.2288389425735 572.1142027644455,1321.7308671682617 568.5513745333083,1309.4158212978869 570.4571614133674,1308.369790192322 591.38411693331,1310.907998695016 593.6834110844429,1310.958480591747 597.4370218933109,1323.1583832013198 597.9024731288446,1324.5822517505508 611.5421167199747,1323.821886186815 611.7320254844162,1325.6036477164375 618.8055444177953,1313.2524383708146 619.2398296444226,1308.5230568039474 595.1715151911849,1271.0163574117246 594.0821612356012,1270.082041293244 559.8933407555814,1303.3869746373744 558.7850541777225,1304.3275148358439 528.6789808622343,1310.5005047569061 528.4896546399468,1310.5005047569061 527.7195338222446,1342.3022906851033" stroke="#009edd" stroke-width="5.2135615513863405px" fill="none" stroke-linejoin="round" vector-effect="non-scaling-stroke"></polygon><polygon points="736.6963615554632,1747.5297434666204 740.1694782844061,1779.8780651750053 740.294433591167,1780.7362223326704 760.6761295910474,1821.7663446258298 762.6197817155407,1822.3911228540596 761.5712057155106,1833.8609520437672 761.2216803822448,1837.571729797673 810.4054289333071,1832.7911256549191 811.1082661243636,1832.7026537717097 801.1773775911206,1826.4174284174583 801.3369941599449,1822.683774348559 842.6112756889561,1816.4803858810114 844.1017099644305,1815.8224678691254 863.7392082755468,1794.9386629803116 864.2302913688836,1794.6600413996853 860.943588151109,1780.6300306733242 860.8591195288827,1780.300563912991 852.4451709422065,1779.0816233256842 849.1733225511634,1778.7108570943597 856.3624761155588,1761.6431274679267 856.436750248984,1761.0286134066769 850.1021861245172,1757.1386174456343 848.7454452889287,1756.122877264606 863.0107392266873,1754.3882108188477 863.5740575555028,1754.2783753769831 862.2272199378131,1729.0928247989864 862.3210092355512,1728.434188622377 874.5867269956289,1702.457095443016 875.1200443999624,1701.3675558775208 866.7526991910781,1695.1434564994192 866.6557059110855,1695.035407104158 845.8280738399844,1706.6858191984716 845.2836881333278,1708.1925233485886 849.3708043644219,1688.7144240918346 849.7136304622763,1684.6837538168543 841.2405538400417,1693.8405043318412 841.1674447910409,1695.6791627925481 806.6241473689224,1682.73694692643 806.234135351122,1682.666120601039 769.4363995289677,1703.9515716723176 763.7248643111452,1704.753282211233 736.6963615554632,1747.5297434666204" stroke="#009edd" stroke-width="5.426607576828141px" fill="none" stroke-linejoin="round" vector-effect="non-scaling-stroke"></polygon><polygon points="73.11552571561333,644.0944089471373 78.29927767997287,698.7980559395869 78.25442192887567,701.0013482856807 94.89969211558491,710.0195175563344 95.56903312888608,711.0871337891799 105.32166374216467,707.9321553011318 106.11508624882117,707.1304058394521 104.98116781339195,699.1282547694641 106.96647170672804,697.6683525494659 98.38242079117481,695.555330774841 98.26154327995755,695.4586411788255 101.94117122665193,683.506198051829 102.22224784884747,682.8316129174559 113.94474498669297,685.9454511948056 114.54214203565061,685.9422584729978 104.28910765340697,675.749938748871 103.96113638216775,674.4910313308133 118.60741293335013,673.0428226350118 119.44103085340612,672.1469809812038 125.05557279111963,688.0982471824168 125.20849012441613,688.5383818665064 143.97246637332864,685.7880955652577 144.3543228000417,686.3007552254489 134.38760792007815,691.8601156514264 134.37974360000953,693.2160689729276 144.56025147552282,709.5552556325924 145.856116648858,710.4085299746143 168.0087410044871,716.6125680780747 168.28690491556335,717.7535737011126 184.8576096978286,704.5226473315047 186.71650192884408,704.7666414561459 184.94557357332815,722.1150602535122 184.83838580441807,722.4169499500781 230.67542928885814,735.8405841134149 233.47192322670162,736.6394914748157 274.57260717332974,769.5740751296757 275.7251669600155,770.5575080489284 312.1235700888574,780.5985726051508 313.25399327112973,780.9623837818867 347.1806697511129,764.5305488988301 347.229312026735,764.4562310111719 338.0766999022817,749.7079578328189 338.0667966844994,746.4222200449799 348.0562307111468,732.2650728181247 348.65158886227437,731.2787302265419 350.5745607377976,707.349313836406 351.3391474043965,704.7839718694809 388.3847549422426,693.5832193555902 388.94224784893595,693.3296348098443 450.78667778670933,743.5832952207779 453.6283187466688,745.8627368364027 459.2687838133206,773.2852914632308 461.30010854229477,772.7049051855934 474.20079732439626,750.6135104559139 474.4244935378447,749.738507756359 460.9808754044134,699.1122921303972 461.67613954665285,697.2989286864536 526.2261868355345,682.9638846778321 527.6630272266702,682.5958040962937 545.8633938755156,660.8140820755866 547.2626602933524,659.2677078277115 548.9989273866886,643.926530541888 549.3886481333539,643.218520185655 560.4388915466625,638.4690430077967 560.8082233154928,636.683913410619 537.7002297155341,628.6809872173249 534.3919724355001,628.1426427351321 533.9824452532703,619.7734952511742 532.3988042222118,616.8466810533787 510.81037200892024,622.4570959339394 508.2133987821653,622.4771703463989 493.9379103556057,595.907971356391 492.1981480088798,592.3296957511698 446.00080215998605,552.4038702345929 443.7888893421987,550.7225446444131 425.3100675111418,493.5364748623465 425.2675419288935,493.09274855789363 388.5711684534108,481.09992503430794 381.8783408622039,477.83385423719983 367.7863532355768,456.7835455509844 367.22099600893125,456.12012580384135 319.0086366133546,496.662163122302 316.9176013066681,498.7711897578333 279.67655085339356,487.07359366605624 277.29307935105317,485.8533077547104 261.8947407911546,499.25644557949954 261.2117100355463,499.589230928897 245.10296123554144,491.03570919266303 243.38824820446462,490.8097349696686 238.96500511116028,525.5430883036238 238.43401787555922,526.3487045877623 224.38659472889412,519.9968067740333 222.8769365600092,520.1049859536356 224.30154356451385,510.92645237220086 224.2590179821491,510.8570687006354 212.1488389955848,519.2340735573448 211.7279522400131,519.3440789325755 209.86352585777786,540.2363283199734 209.8646909423187,540.4809637974026 221.95535476445366,548.4296409535232 222.99897915553447,549.560122177681 204.88541129776422,558.3244604720744 204.19772020445816,559.1692027462773 210.28062608894106,572.8502833494927 210.11984443545953,573.1669838202429 180.91816792006284,569.8155939987405 180.3656266222024,570.133667943162 125.2632490932956,521.5126797233602 124.7750787110781,521.2944969167943 119.78764347555261,532.9797485555532 118.64964724446327,535.1372588393056 98.35125478215195,536.7867561302623 97.15413051562064,537.4668163840902 104.48105531556212,559.264127658425 105.32370263999474,562.136499329215 98.99088614222273,598.6794745124421 98.63786555556726,602.2626643909384 79.00240614216455,623.0392531396133 78.28558793778211,624.0771862860779 73.11552571561333,644.0944089471373" stroke="#009edd" stroke-width="4.976178844320712px" fill="none" stroke-linejoin="round" vector-effect="non-scaling-stroke"></polygon><polygon points="331.88864514660236,765.3886222977667 361.0611945511555,805.9321407823368 361.8854917955832,807.4223121806058 349.4546233155779,820.3793974267096 348.49867152886145,821.6538678633874 419.5562979823226,912.1472000626159 419.53736536004726,912.4802637228054 433.5641082577422,910.2914201322487 435.0624068534016,914.5693038876411 416.90427451555297,935.4112194464319 416.91883807114937,936.2977742815633 435.9082581599723,956.0980738952999 436.34545609783527,957.7147634886564 406.7546413778109,987.4771931219507 408.6068343732986,989.4329711474488 427.62538157331437,989.452556166601 431.05801161783893,990.1608039294147 437.24664891555585,1003.0373018241148 437.65617609778565,1002.9831048094561 497.4250080978745,971.59711710699 499.07331131559476,971.2482015217897 486.8638088800726,948.2012217425286 487.16702210668154,946.2523610709245 515.3844935378074,924.0998104032838 515.5248862133376,923.9786200516169 512.3474096621867,910.3515635066792 512.7881028533229,907.4701303821998 520.5399922043798,899.9957222947628 521.5236147467294,896.1317478745254 590.3943776978194,908.8698446099656 590.9906096622362,909.643966537878 606.1416590489462,895.9941380828163 606.4804073511405,894.6995993138767 590.9664341599928,865.8135646410879 590.4494279377177,864.861552851718 585.5933559733458,830.4441369239717 585.4579149066485,829.7061964768577 494.1455866577817,844.6577749350467 494.08471099552844,844.6609653216797 461.4099177511889,825.4275509798676 454.75029506671854,817.1576340552779 437.9145335732974,827.1144969224474 435.6356283999994,827.8378604296954 416.9124301066404,815.5307803542596 416.0639573599692,815.4883880942139 407.84457787554857,830.76729844194 405.5511091466542,830.2094001175496 389.33750274658814,806.8680006138525 388.84933236448705,806.4194448222765 371.40772696000204,806.4704999997989 369.2607676000116,804.6575779868067 349.69026164452225,766.7295261634058 348.7360574843842,765.6749499668144 331.88864514660236,765.3886222977667" stroke="#009edd" stroke-width="6.181597789067265px" fill="none" stroke-linejoin="round" vector-effect="non-scaling-stroke"></polygon><polygon points="8.052550000000338,227.29449551020616 29.824774284476007,261.03090559723887 29.735062782281602,261.77124149047404 43.19149684449803,266.99373662632524 43.50286566219438,266.9082802902335 37.21490491551958,277.2350002070666 38.296685822286236,278.53048943079875 67.33146399117686,279.6614657510431 67.61108425781276,279.4654302785998 78.86725634671893,315.8861408533771 78.72365968893428,316.6276599141197 104.62727341333084,327.0963771666061 106.5551968978034,326.73271719585273 104.21891131552547,347.8673838522295 103.10013897773024,349.37623878426484 70.31145872895286,372.6477274542917 69.2925923822695,373.73527700894147 84.63063782230165,413.1227248364371 83.98518103999231,416.46101168110135 55.81693442664255,424.3877526938227 55.3345894666636,423.62285628982454 38.45659366224572,458.32451613524563 38.17027415996563,459.3111881388827 93.22517449779116,531.1152443717942 95.40854274665617,532.835061779107 104.48105531556212,559.264127658425 105.32370263999474,562.136499329215 98.99088614222273,598.6794745124421 98.63786555556726,602.2626643909384 73.75719597339776,641.0963000358674 73.29436617773172,642.1628870495838 78.29927767997287,698.7980559395869 78.25442192887567,701.0013482856807 98.05736223117128,711.0848535379405 101.06677535115887,711.4314514448411 104.98116781339195,699.1282547694641 106.96647170672804,697.6683525494659 98.38242079117481,695.555330774841 98.26154327995755,695.4586411788255 101.94117122665193,683.506198051829 102.22224784884747,682.8316129174559 113.94474498669297,685.9454511948056 114.54214203565061,685.9422584729978 104.28910765340697,675.749938748871 103.96113638216775,674.4910313308133 118.60741293335013,673.0428226350118 119.44103085340612,672.1469809812038 125.05557279111963,688.0982471824168 125.20849012441613,688.5383818665064 143.97246637332864,685.7880955652577 144.3543228000417,686.3007552254489 134.38760792007815,691.8601156514264 134.37974360000953,693.2160689729276 144.56025147552282,709.5552556325924 145.856116648858,710.4085299746143 168.0087410044871,716.6125680780747 168.28690491556335,717.7535737011126 184.8576096978286,704.5226473315047 186.71650192884408,704.7666414561459 184.94557357332815,722.1150602535122 184.83838580441807,722.4169499500781 195.8924157421352,724.9419535099073 196.02698299554322,726.1531421847535 162.09564617774595,753.7259197993912 160.2274332711022,753.9652989791716 201.77084930669662,814.16191641664 201.96949620449595,815.5499252432269 236.41667416002747,835.5020836601975 236.68143960004818,835.7614273051508 254.28586555561196,832.4569376385548 255.44541584884428,832.7459115705929 247.7311004710864,865.2211212228062 247.67721531561256,865.524634745299 252.6442615734195,880.8542497727099 252.31512521787226,881.6740408264809 263.5325582489386,871.9489047131278 263.9616005955977,871.6280830878309 263.10293336000905,859.0632596965656 265.0672657333562,858.0146011215179 301.3054697511034,862.0907144918815 302.3426861777916,863.0637020585486 324.2238458577558,850.0357886135821 324.93367355547525,850.4468821411497 318.3978410933414,867.7207657373287 318.5618267288446,869.165396748263 337.51309030221455,942.8944303500243 337.91591824891657,944.8624546563146 390.01150409781985,963.577382983734 390.8556077778121,966.496334482486 358.1604255555212,1007.4021665393152 357.8085700534066,1007.7136789881401 365.75269833787024,1018.1490877189567 367.5702300710618,1018.5134116841141 359.8847505332451,1023.8711803876572 358.5848075644826,1026.0083307919335 358.1228515822222,1051.5386610493074 358.07187913775124,1052.079143384682 372.28590936002,1061.0599688626603 375.57319511994865,1062.2005307909926 370.51090320884396,1076.5610815580362 370.39555984884646,1077.396523952811 375.1278415911147,1096.1127779285666 375.23357300446514,1097.1953403324947 390.8623070133399,1094.835820804677 394.83233225774165,1094.2467335968754 397.58804824003164,1116.2453703892893 397.7328099822407,1117.1798932383313 388.35067622221686,1159.3457679144117 390.9863885066952,1160.9482018892081 375.11094786666945,1167.3810292839548 374.0626631377745,1168.086421474734 371.31073368000943,1185.3332304223218 369.5773792977925,1187.8210011112747 393.95356731556967,1184.106854104822 394.8139821778532,1184.4144727110756 402.8466568799704,1204.7195226745457 403.16589001773536,1205.1395004233123 421.83957222218305,1204.5215913847564 422.202787297756,1204.3509608177478 444.54386406226695,1224.6218443501052 445.98216080896236,1225.7597277592645 444.71192749331385,1257.554812134454 445.82545695114095,1258.7794091820028 463.2621107466766,1251.9849010245302 464.18747906664066,1251.0559620668423 462.4229586755173,1230.939501547116 462.84151526224014,1227.9867953923308 474.9816951732864,1215.1827784187403 476.2909588177936,1215.0940548951398 523.824947795576,1228.6255660424717 525.2213015021771,1229.1041878344035 539.7033011466046,1218.405920215569 540.407303422202,1215.7483331561448 599.1176562044784,1255.9981264287849 599.4866967021735,1256.5926888841564 577.8569039911745,1290.0798047546773 576.3990920799333,1291.4756904531746 528.6789808622343,1310.5005047569061 528.4896546399468,1310.5005047569061 527.8750725956415,1337.1897436874347 527.7195338222446,1342.3022906851033 563.8814248088529,1332.4658852724601 566.0513945866624,1331.2676241512304 570.4571614133674,1308.369790192322 571.8243880088921,1307.972297051841 610.7411211643848,1322.1642618453257 611.479493431143,1322.508521219344 603.2269090399859,1344.1343748919094 602.5925205599997,1345.434877018422 626.2099473333001,1362.892682539859 627.9520398488748,1363.9566384763234 615.4040803821772,1361.1526032084143 615.1751412888771,1361.0830361202602 598.7777428177433,1376.9046557681645 597.4865379822222,1377.7071182870782 614.785129271193,1398.9806150304862 614.7825078310925,1400.0584870934613 598.2837470134036,1410.3009599150168 596.9369093955975,1412.1624733158164 594.005265662192,1423.0012105298006 593.2872823733851,1424.9021613265863 604.8827853066396,1425.4589885771052 604.89793140439,1427.314463046357 592.1134597955752,1436.587507076772 593.1905803644113,1439.5596519292808 596.1630020533703,1446.4464721826148 598.6300683644149,1450.447018247541 610.993070675504,1449.5943745209147 612.541759173364,1449.1612338629561 617.409481982213,1467.9936472472978 618.7831165422467,1470.7099577078257 645.9062824088396,1474.1624452117608 646.7232978755856,1474.6482522032234 645.8567663199283,1482.2365164861908 646.1448334489032,1483.1285677670744 668.8162116533858,1494.644016828424 672.188257306676,1496.778813462333 685.3636147465804,1519.4914246768817 684.8250544621624,1522.296598799679 665.8746647021981,1522.4151840805785 665.1287193866228,1522.123491434591 652.7884362222176,1498.5786970205731 652.1691938399817,1497.6576274422473 638.262454639982,1492.1470324836914 636.8471683111056,1492.3274343154403 632.5949013599675,1505.4177551548123 632.3516899822062,1506.6514072809146 623.2969449511511,1500.573501330196 622.8376104088748,1500.6271199633843 619.606831244404,1518.6045205022451 618.2742659111755,1519.5468560677614 586.6809623022345,1518.6799438463418 585.8965691999547,1518.2342187644458 577.840301537748,1533.0989527222478 576.8415328977644,1533.9930669879318 558.3303799732603,1540.2454035396 558.1515395111419,1540.399869686436 563.6769524889314,1569.7891465055068 562.4795369511485,1572.1530540025337 607.0370264444282,1569.8977123818836 607.4611171822544,1569.7428129349496 612.4310761510642,1594.151515157056 613.4254757243689,1595.8983604257005 624.5587314044606,1588.601123247157 624.9755403644886,1587.8557611398642 623.6895784088192,1569.6642275427944 623.4801544799484,1569.0428114189194 667.6980218577446,1573.1414904108747 672.8616761155208,1571.4971222150848 664.4867578578196,1580.5518949151515 663.6234302844168,1582.4987081102222 664.4040368621718,1601.5757377498444 664.315199173383,1602.3047022626047 643.1561005777694,1618.023398762081 641.7585817866275,1618.2341242203615 624.9405878310572,1606.9600254856991 621.3594095200315,1607.2061871206165 609.9150762933787,1619.5438873618618 609.3607873689398,1620.4272009775518 612.9888603288928,1646.5784710197254 612.6192372888108,1647.4893742557392 587.3141856977963,1671.235993219983 587.0622361866772,1671.5697115072176 590.8274978399058,1681.430742332806 592.0750120088705,1682.5312781102034 583.0692005244564,1692.005008300977 582.7761817866485,1692.7886031087614 542.9378668356003,1700.6012431149497 538.7182222489282,1702.5070325423508 525.2012037955938,1727.6834044980128 524.2895252177041,1729.0692210559278 510.34579458667577,1727.7605710631246 509.54800301334035,1727.7673798764367 492.05076482668665,1745.2635105586737 492.07319270223525,1745.8440279062847 506.5962615733515,1764.7592407458355 506.5289779465893,1765.1981071785917 528.0017755288645,1762.868519603136 529.0879255021937,1762.941135216773 547.0468283999726,1775.1660822037152 547.343633662189,1775.4320217420823 563.3574280800312,1834.1558566122908 563.3632535022698,1835.0745952068605 578.6657638667166,1848.332128522546 580.1993062667098,1851.2433061189145 563.7978299999158,1853.4762259914783 558.6219423556249,1855.3638919099244 548.7507643999779,1868.5648470844385 545.8427136266619,1871.8890026805816 559.3690527555082,1876.5349331360553 559.4342974844403,1877.3214926842843 543.864691511124,1898.4745239480758 544.4874291466331,1901.0693538333066 559.8146975555937,1901.741981668259 560.5239427111592,1902.503504537373 545.5895990311183,1916.2907351693498 546.2260264089346,1917.4018756459477 553.8349016444772,1916.942907287484 555.892440773292,1917.3764782126304 580.9475817511338,1959.054668189819 582.4616089866977,1960.0408953848305 644.5667265688317,1974.9144735819204 644.9031447021771,1974.3404610903594 678.9177850577762,2000.246142114665 680.0351010400118,2001.3486939559002 698.640043262254,2074.70707890133 698.9499557245072,2075.602596499469 695.5281027111705,2083.508914508718 696.1866666932838,2084.742919568765 738.7894357599798,2055.797473975435 739.8222831199892,2055.079997925415 798.9608044355191,2062.609526187101 799.7696643110612,2063.1969027485243 827.9414061778007,2041.2136178716096 829.5934959200458,2040.1611275247774 866.5560911911089,2035.4584007308363 867.5303930577138,2036.391248489766 859.6220911199707,2041.2820612969585 857.5517360622543,2042.154146501423 881.4936388532878,2071.6878522581314 882.6313438133584,2072.2761107466426 877.8676047911649,2078.240182610323 876.7910667643664,2078.8034979795116 879.3076491644388,2094.013821819484 878.9266665511313,2095.619807612245 889.9544820888914,2092.4517808262967 890.3112891999554,2092.3054097154304 897.7121968621868,2115.6537572241864 897.8429775911864,2116.084214074515 884.0276975199595,2143.8967205096046 883.5823439911255,2144.767035866774 898.5979523111382,2143.9243568132874 898.9349529866377,2144.091986777122 898.3725084711114,2154.490682091076 898.298816880073,2156.0060693981136 884.4587787644487,2157.653729676654 882.7999897866757,2157.634702601273 889.1456222133493,2167.453811745952 889.6605895377943,2168.420522717853 853.5225827822942,2174.286382192025 852.1439966133112,2174.8100391643598 836.497495066702,2194.737513350475 836.9676066399334,2195.148337246595 816.3284269778305,2198.170835882985 815.475585164364,2198.2220182503584 843.2701309422046,2194.5667517015604 843.7947102132966,2194.499262312754 854.0404628177421,2206.765228659707 855.7563409333598,2209.1412523592367 850.1831594933537,2221.078952705116 850.2213160089232,2222.6110868674946 859.5317970755059,2227.0855997029353 861.346998639965,2228.0013236978916 831.2677222667044,2251.6412500707443 826.7562240266489,2254.8911885006014 867.9428329510629,2254.661606869347 875.5158818400014,2254.6290035411726 891.1597619466265,2230.3517549154126 891.484237964476,2229.780226574257 935.4772440443994,2226.810247719615 936.3088230666253,2226.5738432721478 962.1527262133095,2208.4346982658385 963.9184116888573,2207.9192746680706 1025.2688458221746,2212.229682111101 1026.4397556888653,2212.04353514294 1024.2855145510766,2204.39959640822 1023.8471515289057,2203.5539774239073 1029.6938365422902,2201.2942970972285 1032.1498345511282,2200.8852965301844 1035.0931291288944,2184.85667091146 1035.719070746658,2184.280493541482 1061.388211226651,2204.3130870644595 1063.0863218044178,2204.0748464953863 1060.4759501067238,2154.556371744467 1062.301928702138,2152.636866604363 1101.616829466635,2144.3230440835246 1102.6214235288571,2144.4222627339545 1112.8782444356257,2164.86985471208 1112.6924134667279,2165.703845596035 1121.5735609156327,2158.5316914896025 1123.2675936977394,2156.9542570523113 1125.23949912002,2142.767706547725 1125.0950286488296,2142.2734213066065 1117.465181893298,2138.381169012609 1117.3399353155182,2137.5389183281 1151.9120685778107,2123.5740271252357 1152.02013016001,2123.557262556023 1143.9621148711085,2118.3742302202513 1143.3920973066488,2117.8613121940066 1161.6440189422356,2121.407309129812 1163.4196076355656,2121.3443280878487 1173.8270157066654,2110.607380171226 1174.3282932888033,2110.5443960071784 1173.6665253244355,2092.591354425625 1174.572087208835,2091.859951519036 1200.4625937333112,2093.2783452537037 1202.9992738400833,2092.7830413983097 1218.0667284177398,2060.864609622258 1217.2176731289146,2059.7605461027483 1259.649466053328,2062.624935777661 1261.5858363999068,2062.400136937365 1276.24784159111,2038.3008995896448 1276.5041601689081,2036.7778941302454 1260.2465718311505,2043.6263489447078 1258.6005987822791,2041.2743557467834 1264.8393347111778,2019.386773710466 1264.9581733244486,2019.1252118288317 1305.679331013329,2020.1234064377272 1306.767811155507,2020.408992609569 1309.1311849510312,2009.3805612764331 1309.8975192444414,2006.4692306020074 1297.9618116533165,1989.5449336672677 1296.9499358134126,1988.1893372008121 1341.366741360027,1948.8416261943999 1344.1393510666458,1944.7423084322722 1351.6614275111133,1961.6723547499637 1352.0595951200012,1962.810922957236 1360.3031501066653,1962.674893615978 1360.5804402044523,1963.2833975423487 1359.9946939999718,1980.9528482254605 1360.5536432622248,1983.0171377797155 1376.3341295199716,1994.105841762073 1377.3547434933498,1994.1883543290674 1385.3044059288004,1980.1752774620904 1387.728946657713,1980.7968809013614 1405.6721209155876,1998.0183538028282 1410.1268212889336,2001.978397252365 1429.6358690398993,1982.5510534672426 1430.6969696976957,1980.979145030818 1438.3291466221926,1994.132136979118 1439.5460773245213,1995.9115904104906 1474.7729880444022,1993.2825278431187 1478.574949857757,1992.2615417216216 1493.432980506659,1977.6398787541325 1495.7104293243974,1976.9634047253417 1497.2550400265973,1985.0859416124654 1497.668936275506,1988.401064696583 1488.3703973244192,1989.7879427104267 1488.2463158311803,1990.2440373093482 1519.3805761688636,2000.6160778940898 1522.6285403289148,2002.701941772691 1528.3036666577464,1986.8314653911289 1529.3027265688652,1986.5086578922705 1530.7014104444315,1995.2193054150334 1531.064042977734,1997.7168707279266 1523.5553650044385,2003.6158893097668 1523.3538053955199,2005.046191373352 1534.5706558844322,1998.7736464106488 1535.7738968444537,1998.7246839441136 1535.6221445955816,2008.6942124558623 1535.2300936800675,2010.0505879593907 1576.1289267466418,2025.4669789806135 1576.9482723822366,2024.913951596223 1587.8948232800249,2055.931632216532 1588.188715831122,2058.321085425246 1593.7621885422632,2060.0270447060243 1595.805746657752,2059.964045915963 1591.0032685777187,2042.2117112542978 1590.7478238133262,2040.2273049315331 1600.944934142266,2026.5952411502144 1602.907810159937,2025.2575540215835 1601.245817200026,2048.115417131666 1602.9264515110772,2052.2884814467175 1657.4786179110888,2100.772567535612 1661.7049617332887,2103.873862131069 1736.2796868532678,2122.386004995649 1737.0731093600407,2122.209749444424 1748.0953907466974,2107.7209648816856 1748.47870352897,2105.5459328040956 1737.425256133407,2088.6189098327663 1736.2316271200325,2084.9509278125256 1730.555044435525,2048.6321254240825 1729.8833732533749,2043.3802271230156 1745.0623846667368,2009.879228151381 1745.5284184444245,2008.9843469636176 1767.132288026718,1992.2121244211226 1768.117658195646,1987.5913305923818 1750.096714551073,1936.8522649140573 1749.284650693393,1935.6849912535758 1758.1739537333851,1932.045270268492 1760.3637299466427,1929.9637179616616 1725.7438282221337,1913.2053631236554 1725.4106140711592,1912.5255141322045 1746.1159122755998,1892.37580357449 1746.4526216800805,1891.8877534187409 1734.8300305333469,1882.4091125621703 1734.123989360036,1881.0229112274023 1774.3275582844872,1891.9607795804982 1780.6143539467375,1892.4293257368622 1785.9437414665954,1878.0713071854912 1786.6142475644374,1877.9166269704942 1785.2746917244294,1896.9659615409105 1785.2694488444613,1897.6426841540738 1795.7656946044663,1897.0430681110952 1797.2768091289108,1896.7033454294792 1803.4054445777801,1892.337249466254 1807.0189539821367,1891.347086913163 1802.7378511910574,1875.4802856832753 1802.0530728088706,1872.748611622002 1810.8177118133535,1869.3332904025224 1810.5203240088667,1866.3307210854032 1876.9356714933892,1867.4416629507682 1878.4677575377063,1866.5507324809219 1866.8445838489351,1826.2236919582133 1866.099221075514,1823.071253396432 1878.7829128799276,1846.6798579997626 1880.6482130755685,1849.2063478580453 1880.4842274399489,1842.5858750229013 1881.9210678310847,1839.7376441950105 1911.2494472800536,1834.0392559306706 1914.999271564513,1830.7807633693806 1919.6025202044766,1805.3436076672292 1918.5216131111156,1803.429189639493 1930.2971215910293,1787.7937672319017 1933.0936155288728,1784.9243982112162 1927.9748170221937,1767.0157400126113 1928.105889022212,1765.8598089789516 1910.4292278310531,1755.9086544227098 1909.341912773416,1755.1094016616476 1887.2289012887995,1765.4835741143102 1886.1459552978413,1766.6258919521129 1868.7125054844437,1754.6614375868007 1868.7343508177219,1753.282592022711 1892.6110088799396,1715.4312764443234 1893.3887027466917,1714.7158554068078 1886.9763692355264,1707.3272705987106 1888.6706932888846,1704.4759070419018 1909.683282515478,1685.768382841699 1910.030186408876,1684.6728575580996 1882.3725380534088,1657.7992070459072 1883.466261075555,1653.7289134644448 1908.9128704266404,1653.5018756584973 1910.1635885777432,1653.491431913782 1929.2208748355988,1667.2286095599188 1930.1881861955408,1667.6063765006616 1939.7404222844416,1654.1448461102332 1940.9238568088986,1653.2312462842451 1929.3997152978336,1652.7726286230386 1926.9888643111117,1652.9188414873565 1933.865192702251,1637.7716654583123 1935.3410634222455,1637.4946589841052 1929.589915333294,1634.8008661542913 1929.0595106399633,1633.563853684907 1924.5116035110332,1594.3908782997528 1925.6399877955919,1593.3884582187525 1913.0227058044184,1578.3888496445502 1913.5003904266996,1576.5455656135232 1884.7676603999935,1584.5440696034125 1883.4324736266644,1585.455232665328 1903.3510485599763,1570.8897930275193 1905.9887997421683,1567.977133143147 1876.7183832444498,1557.1942284841566 1875.798549075589,1556.7454023933747 1875.5093168621897,1544.7039793125364 1875.2681443822585,1543.082565706492 1859.9219433510225,1522.7259589924138 1859.7265004354776,1522.566482448346 1811.7955089333482,1531.7441445273357 1810.2887634755825,1532.066264343251 1795.4633551910301,1523.6978092497807 1793.9656391377575,1521.824983134727 1788.889657484462,1541.2907737624842 1788.0886619288722,1541.3970823170744 1729.922986124504,1497.1827775168126 1726.3671483999133,1495.8109325282053 1760.6296604710878,1493.7951816913915 1761.7210533243851,1494.334565002216 1766.4387715111734,1484.8744873949104 1766.354594159966,1484.2196555700862 1748.5293847021894,1474.0320178926117 1748.4985099644182,1473.2689937852915 1755.9110684711268,1462.306873002824 1756.8766322044903,1460.9434430213073 1789.3874398133266,1452.9949304795368 1790.6372841510238,1452.407722531097 1791.8437290934162,1441.539544193925 1792.490933502304,1439.321936379281 1822.0741751732785,1457.2644117889936 1823.4850924355924,1457.8529700730937 1838.3180737688454,1452.4745334224785 1838.7284747644808,1451.7437029633215 1863.4588484533379,1477.6080612428264 1863.5811823199983,1477.7580274639545 1888.0578588711578,1483.418949437189 1888.7225395466448,1484.510944640649 1878.6442678310923,1460.9675303585022 1878.5909652177725,1460.9243549408634 1889.6703357421575,1448.0149749881598 1889.820049093316,1447.880441432913 1867.2800341599868,1439.5828325904217 1867.0455609155833,1439.442385017384 1878.1674570222167,1434.7366570851077 1878.4462034755634,1434.2748511925815 1873.339055813245,1424.8257963353312 1873.268276933326,1424.4357889970775 1845.9100552800592,1415.1499530758952 1844.9817742488594,1414.9326666751654 1839.9739500356154,1409.4695242372468 1838.9495495377123,1409.5627142882217 1842.2248931822614,1393.4247839486702 1841.8008024444352,1391.3967179276292 1833.8083231554847,1390.2642478114353 1833.5319068711033,1389.5545756546558 1859.7760165245054,1381.8707827577377 1860.4840965956464,1381.8776024091999 1889.3639185334105,1393.6689143590406 1889.5337295910358,1393.8662188107623 1891.5111691644197,1364.1125939729168 1889.8544190844768,1361.4677009167858 1898.2890479200069,1340.7930491294023 1898.3079805422822,1340.7161998513398 1859.9452450399767,1338.8495270889612 1859.7419378043633,1338.7435741711884 1876.2028333777344,1304.3561675922606 1876.3976937511252,1303.2546255690754 1861.2510134310942,1261.1671716134074 1861.1918853955358,1261.0056834594357 1833.3743291999926,1232.4904523861837 1832.7949909599047,1230.9608846348488 1796.2427966843607,1217.8221729253778 1790.660585839978,1216.4653980273647 1796.1085207022043,1200.114729637025 1797.044374782221,1199.843535224652 1788.2593468000196,1169.2227807216473 1787.3869898222401,1166.5204477088769 1768.1642615733217,1165.1387770857905 1767.6254100177684,1164.737836106076 1763.9443257156308,1146.0106557183094 1763.5720812355648,1144.6511564812167 1746.7441840622123,1145.4549324183968 1745.7078414488133,1145.194137947146 1736.7681485066205,1128.526309408458 1736.7696048622965,1128.36199156897 1717.712318604441,1130.6765402604137 1714.2394931466333,1131.5231536791903 1700.7440287555582,1117.0437890892276 1700.548003297743,1116.8935737084607 1679.979311244424,1123.187964315271 1679.198704666669,1122.4755984850703 1679.7119243644192,1107.826745078411 1679.644058195503,1106.472014208302 1720.2312311733622,1109.7764319637567 1722.263138444374,1109.4800879687314 1761.7498891644427,1087.7348006773168 1763.4759617688615,1085.9938817247526 1787.3706786400653,1099.7915560994074 1791.520418159991,1102.8648199683298 1796.2631856621956,1089.9468948701174 1796.583001342231,1089.3136345621674 1782.754905342219,1078.4942038699296 1782.582764115512,1078.1823376805764 1804.3777075466714,1067.9674479945456 1806.1556264088504,1063.4048301963844 1785.8412140356158,1061.7556895859084 1781.2402955643847,1059.8397203254058 1769.1006981956089,1046.5540482370193 1768.5836919733338,1044.7440412975625 1734.1673887555735,1048.1099591228772 1733.0864816622125,1047.78256762107 1712.882752311045,1016.1616897249837 1712.3211816089242,1015.3619891567864 1716.8536513688523,1009.0594622810381 1717.9272766844151,1006.0836988130827 1708.8990373244524,1001.8741125062584 1708.9293295199532,1000.2873555556648 1717.0193846311668,989.6966855600253 1714.8983483999982,986.7958094008277 1742.3087075822768,988.911462428026 1743.6692349422738,988.7447615599735 1754.4349064799972,978.941067883839 1754.8989013599712,977.2197734255237 1738.4857742488166,908.2615714697527 1731.2366188355736,909.4639914096692 1741.8738398133792,865.2612251359747 1741.6347062311615,864.7640272338535 1694.5839360266473,862.3855734797903 1687.7515895733159,863.4975574031482 1686.4309663555832,859.8097593231137 1686.0194002755234,852.0242526283614 1703.292942248845,833.9478384488389 1705.6752486666446,821.6538678633874 1645.7211682400448,835.2135691882936 1642.080570622209,832.3402540490274 1653.007023813414,821.0922995521464 1652.7020629599938,818.7439072288466 1706.5062451466001,812.2410251855977 1707.8883265689728,812.1202281823857 1698.8085322222687,802.5948308447619 1698.9442645599847,802.3737396558058 1722.5713032799322,792.2470658402667 1723.1098635643502,791.032143216034 1718.4236026578365,787.8623712179028 1715.3571004000041,786.6747775199833 1712.204964435521,766.7076413657992 1711.9317521332778,766.2909179227204 1742.5041504978217,755.9259185085316 1744.7743175377618,756.32396770476 1743.7365185689196,728.1450221048212 1743.5652511555018,727.3050420064023 1727.5925259644646,726.23978569368 1727.034741786636,726.147213943455 1726.5209395467318,710.7884206780941 1726.5634651288638,710.161805883959 1712.9506184799611,711.7082733227066 1712.8859562934158,711.7287955236166 1715.2601071200115,697.858993259702 1715.8053666399574,696.9167339534974 1704.6429838489057,682.2327401101134 1704.4259868711015,681.4153878063439 1735.410242586724,645.4944550418072 1736.3230862489218,644.6760518728765 1748.0027665332673,644.2381091092025 1749.8430174133755,642.2596004116126 1746.3014519733624,630.9091716899197 1746.302908328922,629.3133121649512 1753.516237395561,625.0448548671334 1753.6007060177872,624.4134299365464 1741.214693288879,596.9273264880535 1739.0080233511762,595.2805682100366 1753.6100266934154,579.8947059828565 1754.4442271556254,578.1770872070697 1726.3269529867466,564.2384999843557 1725.578094960052,563.2523055150882 1709.0213711911128,500.82998167831784 1708.9430192622603,500.52641381053354 1667.5114513332737,492.00168927535515 1666.92220987552,491.83186700192846 1675.5490776444567,479.5029622645593 1676.0850164888907,478.4666193512744 1672.336357288972,460.39693307455263 1671.9789676355213,460.0672835892542 1627.812072702196,496.8196560800784 1626.9306863199236,497.40169427896717 1606.4552010221887,498.2311530740476 1605.7045953689158,498.6018292857693 1599.198181288877,514.7530187620791 1598.4030111555257,515.1200150182481 1598.9095316177481,493.5127364410796 1597.3987083644388,492.4449613032407 1524.3214080267135,501.4914386122614 1524.061885466661,501.55215194947186 1497.435628115527,478.56340577148467 1496.4019069422284,478.01555753985986 1450.988371653344,466.8007999022734 1450.9586619999973,466.53416613126274 1411.4599691644326,494.79278144738737 1411.206272026735,494.99455675369927 1416.9914988355958,503.6643264099034 1418.027258906608,506.62690513706866 1404.6168456800297,510.80640034747876 1404.3325650754632,510.81872508311744 1397.1495282044416,533.8665805352862 1396.4309623733643,533.7739266176136 1382.155765217707,494.0998050965495 1381.84730911113,492.50887274635124 1369.3115830310635,494.15823797052826 1368.0809625866605,496.2312252846673 1347.5699422133403,480.20055065092265 1347.0707035287996,480.1357225053721 1333.436302817754,490.3792420101013 1333.247559137737,490.4901750602653 1332.9720166666448,477.12895355091996 1332.7692919733017,475.9953552167058 1344.63858975107,468.876788265748 1345.9953305866584,465.9292167184535 1354.1113088266939,429.5145438470422 1354.489378728882,427.7578312615874 1375.75479128,420.9454692824288 1377.091725680024,421.3980198786371 1378.6194426577786,411.1859468823891 1378.6855612,410.7790432064571 1349.2738782133456,366.4671815231336 1348.4251141955392,365.80348518954224 1297.9921038489338,372.7491287775115 1296.934498444527,373.1766581589832 1264.7149619466873,331.31497095220357 1264.5535977511681,331.1546165501127 1259.103915262247,344.9072019539085 1256.8937500711545,345.30646341547936 1202.1758504088284,334.15518865371223 1199.336248346699,334.51335404543306 1192.3821505689775,349.32279178637646 1190.8719098578222,350.4145697251438 1195.2954442222617,355.97981084036974 1191.0006516888752,356.24201271482843 1143.0603395111175,331.88283473204456 1142.6749878311311,331.6420752904155 1124.319956222178,304.24765975852597 1124.6388980889242,303.29866169705156 1050.6621525600567,326.1401694281735 1050.4894287910793,326.16803794072575 1054.532854355617,316.7281737010703 1055.2820036533303,315.8523315442503 1047.3096220710795,323.6173688868653 1045.819770337759,324.47170702167887 1026.858021004453,314.11342942200235 1026.8420010932969,314.0590599503844 989.5703671732699,331.5493348647501 987.123398568925,332.6279538135054 958.334744488915,280.3455321984143 957.4152015911895,279.44669494449727 882.0834628533121,256.3420528358324 879.6166878134027,255.08801886832907 877.0709783022539,231.83588987662324 876.118813039946,229.72380597380788 811.613621502278,180.06218742367446 806.3742367555169,174.75530285991363 787.9309500000454,182.4933993299269 779.3177719732994,179.90949287274952 763.3025212000139,157.43158885927505 755.0974140000544,147.78592541922217 535.3176320267157,8.228699973296443 534.903735777807,8.052549999999883 528.3178046844914,56.73174443576818 528.2915902844179,56.90602507480753 498.99088159108214,85.32652954394098 498.83854679993965,85.61970303822409 509.2893542666934,113.77348530517293 511.9224451110713,116.98743017999323 510.2161789422171,141.91857673825098 510.0385035644067,142.49791133680947 466.00122427554015,60.765321794409374 464.47729382219404,57.741746819148375 289.13121112003137,135.6349601307661 288.59760244444624,135.90611690501783 275.20583056889154,184.19632860660886 274.81873126221035,184.76183531279776 211.43493350220524,245.18482571349114 211.09676774216496,245.46407189311094 209.03748098665528,296.1282689634604 208.92097254223336,296.8922448730805 176.65308504002314,277.7335474181232 176.01316240893357,277.20712539795886 174.59001175998856,266.7108623154704 174.26087540444132,266.259816406156 140.17341727109306,242.15102813763178 135.40035757338774,239.88639257240675 113.76939977773145,209.5393621979524 110.3405562577318,206.93337996138825 56.823276115559565,232.82039457254677 55.715280808835814,233.09600023853227 8.052550000000338,227.29449551020616" stroke="#009edd" stroke-width="5.7192505175580335px" fill="none" stroke-linejoin="round" vector-effect="non-scaling-stroke"></polygon><polygon points="27657.38628041777,7876.61600907785 27658.0072704267,7876.901593939612 27674.85788674662,7876.732979738015 27665.19525890667,7910.973161160109 27680.34281303999,7920.258120860999 27686.622326924444,7910.087850283111 27682.196753662174,7902.6089068254005 27698.401330657747,7877.388014296048 27734.620019511065,7897.13701705353 27750.718573822152,7903.970900056571 27764.41734544884,7893.205806067075 27771.152989893315,7882.79859648992 27779.101778515593,7892.832410230047 27790.12551625781,7875.648902128196 27794.035539653363,7886.762653696271 27803.221939226707,7875.222949990748 27808.218403866726,7868.619483862516 27820.977826160008,7874.264665045637 27812.087649306726,7878.9611486996655 27825.717389679958,7887.609657748697 27830.349765431114,7880.00239511321 27854.614979155573,7892.945841419489 27858.741125715525,7896.184564328149 27862.300167422138,7886.380860818761 27865.76308966228,7875.662144150447 27859.971163617774,7874.710040737038 27850.34290576887,7873.279450234353 27857.293799564453,7861.490963063065 27849.04733186667,7857.132692837018 27834.37396710224,7861.035849407701 27828.872729626695,7857.239079262457 27824.085106373394,7852.423828510429 27831.084351173347,7842.121542896937 27814.065962693283,7836.886119361479 27824.738136204403,7821.355270198408 27782.764221466707,7800.026286214568 27782.125172648906,7800.034234133993 27739.511917822274,7749.8970730613 27733.189878355573,7742.328374459677 27662.075745306654,7789.742323251536 27659.62469890665,7792.074250297774 27688.065575279972,7805.4537658468835 27701.909399920005,7812.396436907446 27657.38628041777,7876.61600907785" stroke="#009edd" stroke-width="5.623151594443961px" fill="none" stroke-linejoin="round" vector-effect="non-scaling-stroke"></polygon><polygon points="815.475585164364,2198.2220182503584 843.2701309422046,2194.5667517015604 843.7947102132966,2194.499262312754 854.0404628177421,2206.765228659707 855.7563409333598,2209.1412523592367 850.1831594933537,2221.078952705116 850.2213160089232,2222.6110868674946 859.5317970755059,2227.0855997029353 861.346998639965,2228.0013236978916 831.2677222667044,2251.6412500707443 826.7562240266489,2254.8911885006014 867.9428329510629,2254.661606869347 875.5158818400014,2254.6290035411726 891.1597619466265,2230.3517549154126 891.484237964476,2229.780226574257 935.4772440443994,2226.810247719615 936.3088230666253,2226.5738432721478 962.1527262133095,2208.4346982658385 963.9184116888573,2207.9192746680706 1025.2688458221746,2212.229682111101 1026.4397556888653,2212.04353514294 1024.2855145510766,2204.39959640822 1023.8471515289057,2203.5539774239073 1029.6938365422902,2201.2942970972285 1032.1498345511282,2200.8852965301844 1035.0931291288944,2184.85667091146 1035.719070746658,2184.280493541482 1061.388211226651,2204.3130870644595 1063.0863218044178,2204.0748464953863 1060.4759501067238,2154.556371744467 1062.301928702138,2152.636866604363 1101.616829466635,2144.3230440835246 1102.6214235288571,2144.4222627339545 1112.6924134667279,2165.703845596035 1116.26951398221,2163.946164179338 1125.132602622245,2144.58037820689 1125.23949912002,2142.767706547725 1117.465181893298,2138.381169012609 1117.3399353155182,2137.5389183281 1151.9120685778107,2123.5740271252357 1152.02013016001,2123.557262556023 1143.9621148711085,2118.3742302202513 1143.3920973066488,2117.8613121940066 1161.6440189422356,2121.407309129812 1163.4196076355656,2121.3443280878487 1173.8270157066654,2110.607380171226 1174.3282932888033,2110.5443960071784 1173.6665253244355,2092.591354425625 1174.572087208835,2091.859951519036 1200.4625937333112,2093.2783452537037 1202.9992738400833,2092.7830413983097 1218.0667284177398,2060.864609622258 1217.2176731289146,2059.7605461027483 1259.649466053328,2062.624935777661 1261.5858363999068,2062.400136937365 1276.24784159111,2038.3008995896448 1276.5041601689081,2036.7778941302454 1260.2465718311505,2043.6263489447078 1258.6005987822791,2041.2743557467834 1264.8393347111778,2019.386773710466 1264.9581733244486,2019.1252118288317 1305.679331013329,2020.1234064377272 1306.767811155507,2020.408992609569 1309.1311849510312,2009.3805612764331 1309.8975192444414,2006.4692306020074 1299.8014799911543,1995.0506541200225 1298.511731511193,1993.651115351276 1302.671374248901,1982.1248665495436 1304.515120382166,1980.3099356881353 1289.3058167733034,1950.6754110593824 1289.1665891821976,1949.8306203954048 1296.3554514755742,1923.55295603301 1296.972072417826,1922.826427386935 1294.2198516889257,1904.0496735084812 1293.6183768444243,1902.7148618119895 1276.5195975377937,1880.9943343399568 1274.9004214311499,1880.1016449212107 1235.9414539644276,1872.2804767249395 1235.0667668177994,1872.0037686089413 1244.5994877422709,1866.4318809918254 1246.6849888977376,1866.958546829795 1242.730983564492,1858.3856657366046 1241.3858935732642,1856.854142914271 1255.7411902844688,1845.908158985992 1256.9502566666124,1845.7221523477706 1239.9994430844454,1842.4892408509982 1239.6636074933704,1842.6434925604622 1232.5973703377895,1824.3634501998672 1232.1951249333579,1824.4002014715002 1229.1752260533176,1809.2549758915334 1228.8656048621997,1808.6573850868513 1236.7243907110314,1808.321608212405 1237.197414995615,1808.8062157520103 1239.96594690669,1794.638713674423 1240.0064335911084,1793.4148617681126 1192.9722658400206,1777.2645450844207 1192.7765316533405,1777.1715124484977 1213.2866782133715,1762.985158420844 1214.7963363822564,1763.3010359944087 1214.5767179644681,1753.3883431603676 1216.8355254310663,1751.4698370626788 1228.1522819110905,1750.680099333032 1228.8626921510804,1750.833962253389 1226.2916420532638,1757.9773483912936 1226.3196040800321,1758.1570760304817 1245.2804795999327,1748.3775890066531 1246.9829592443784,1748.9136181279678 1239.5989453067086,1741.0591389307297 1239.5488466755269,1741.0128418245363 1250.770066231118,1730.9947333742525 1250.9253137332635,1730.6629218819794 1245.884284613283,1718.0528023385918 1245.3748514400577,1717.3646264773338 1206.1289819289013,1700.7678528136817 1205.0233167911429,1700.3302183460687 1212.3161628710586,1675.8153807047997 1212.4111172533376,1675.6482978666095 1193.8990905155442,1659.2399564817092 1192.7398314933307,1658.7986059507598 1178.6437660710435,1682.2021167966082 1177.5322755111629,1683.4610993787423 1160.4777694132426,1669.4497971132873 1159.5253128800323,1669.8693320361558 1155.6042211822714,1688.554615203036 1155.2637252532659,1689.4980307513392 1123.7639196710443,1680.0473464347083 1123.1059382312014,1679.8593818892036 1080.2351997422302,1687.8763341239896 1079.3069187110304,1688.2690473223697 1056.1284375021714,1664.7186221697261 1055.7701740355478,1664.4493689081642 1043.9745678489344,1665.2639384627469 1043.47125136885,1665.4460129572321 1035.0331272800468,1686.991478319374 1033.785030568928,1688.2136589141805 1011.1209341422436,1692.249257738505 1010.6537352800151,1692.6973503244003 1007.5604360799553,1708.494861640887 1007.683061217751,1708.8185356533863 1023.9662814133117,1714.4062625789443 1024.0781295199195,1715.2356253664252 1006.940028613295,1726.3370704933545 1005.76999256001,1727.8218503747844 1008.6253232621602,1740.4668075641162 1008.8312519377578,1741.4476711200327 999.4648468177547,1767.6656365075391 999.4103791200105,1768.7380522478265 1005.5398883822854,1781.5671475882186 1004.2760630311459,1784.319479749283 995.689099404357,1788.9799859151021 973.7595887200223,1795.8493991112696 972.778296346638,1812.1821035038224 969.6011110667387,1815.5184637023845 911.8630212533535,1836.5386708695219 909.8314052533606,1837.5962291594255 925.0389612355284,1862.338269486419 926.0132631022498,1863.2323926659078 916.8787097866661,1885.1715097127376 916.5390876710662,1885.476777394862 920.8429096089458,1902.1610690323646 921.0485470132917,1902.9189619897875 895.4656227822197,1904.646095389478 887.4376084178002,1904.6492702543978 884.5822777155336,1928.6608102803361 881.721995404434,1929.9582759687687 886.9838080266272,1949.9979463427221 887.5785836356008,1952.0784002290816 899.4639013244087,1955.2389471074343 914.3367868000423,1956.6899719158896 912.1828369332725,1999.9682365139956 912.3575995999636,2001.1487661786155 873.1854216800784,1989.3168857550259 872.2344215021949,1989.3196060098485 837.483447777784,2004.439617509 835.7862110133065,2005.3313439739063 847.010343280017,2021.9506981580994 847.9604696444949,2023.8477833642169 836.7992519378677,2036.6138077875144 837.9375394399758,2038.7673178816108 865.7524741955349,2036.4914228657503 866.5560911911089,2035.4584007308363 859.6220911199707,2041.2820612969585 857.5517360622543,2042.154146501423 882.6313438133584,2072.2761107466426 884.0195419288721,2075.1987982812348 877.8676047911649,2078.240182610323 876.7910667643664,2078.8034979795116 879.3076491644388,2094.013821819484 878.9266665511313,2095.619807612245 889.9544820888914,2092.4517808262967 890.3112891999554,2092.3054097154304 898.2356110488545,2119.554118339765 898.3060986577548,2119.6977525170437 884.0276975199595,2143.8967205096046 883.5823439911255,2144.767035866774 898.5979523111382,2143.9243568132874 898.9349529866377,2144.091986777122 898.3725084711114,2154.490682091076 898.298816880073,2156.0060693981136 884.4587787644487,2157.653729676654 882.7999897866757,2157.634702601273 889.1456222133493,2167.453811745952 889.6605895377943,2168.420522717853 853.5225827822942,2174.286382192025 852.1439966133112,2174.8100391643598 836.497495066702,2194.737513350475 836.9676066399334,2195.148337246595 815.475585164364,2198.2220182503584" stroke="#009edd" stroke-width="5.28604348085068px" fill="none" stroke-linejoin="round" vector-effect="non-scaling-stroke"></polygon><polygon points="1271.5275019644541,1704.795501313965 1282.2241422488369,1704.4491228414477 1283.1072762576878,1704.9584760532957 1274.9053730399828,1720.7496499571494 1276.3206593689756,1723.1482320074933 1304.849790888933,1736.9032535659858 1304.581530195639,1738.3552806391158 1331.9158676177976,1735.186136210897 1332.3781148710768,1735.4149044125584 1337.4351639022134,1748.212377393887 1336.4192102666493,1748.8732230920355 1345.0702535378296,1747.470739103715 1345.5610453600311,1747.2764784729584 1344.2174117244795,1759.065242967546 1345.377253288847,1760.7594793017265 1350.8228579822244,1749.6125872257758 1351.9850297155572,1746.860723829806 1361.0691931288238,1752.5464174428848 1362.185344026635,1753.0384110879163 1383.3793951555635,1743.0821312952098 1385.4413033511737,1740.8426317906483 1370.4985128089102,1727.195892742347 1370.2765642221566,1725.8450164723686 1384.943812293328,1703.941130349041 1385.9976311733262,1703.6301602755916 1396.7467002577396,1706.3607801166722 1400.7840091289036,1708.1099023007332 1398.879678604404,1729.7764244011264 1399.634070782202,1731.093686635118 1420.738410408936,1715.237895101403 1422.1510752978284,1715.1471056793594 1427.3945378400167,1724.4364829893234 1427.8751351733008,1724.7946317488454 1462.4059079377694,1723.0805963505768 1462.6482455022415,1722.8835903575887 1493.5127887910712,1735.2170017759559 1494.457672275581,1735.68543157864 1503.0050230311244,1775.6598399961144 1503.0760931822952,1775.7987091733735 1537.9330895910753,1758.3917202249645 1538.322810337857,1758.0254573193738 1588.3393029955696,1768.179380128487 1588.820191599989,1768.8760181718749 1633.3031156888246,1750.1268273427045 1634.1440153866788,1749.6783991355692 1648.021336204467,1780.270158553241 1648.0306568799788,1780.7711657307586 1683.0766882400276,1794.5270834187172 1684.4043019644232,1794.3451169035175 1677.1519425689257,1809.4292161817207 1680.8283665333656,1810.8671470003678 1717.8917416088298,1799.3307628848484 1720.748528666656,1799.1941775820228 1728.8904300355134,1774.8252616034365 1729.0882031200235,1772.4703627377526 1723.7206590844798,1742.999523494254 1722.4218812000254,1739.7823337546793 1733.8490294310977,1731.9819943976831 1733.4843579999651,1723.129166925129 1792.3266565955491,1711.605834712252 1793.1151274932563,1711.3897522183029 1804.8661692000242,1685.817415754987 1805.1434592976948,1683.0179819261316 1822.5288493777407,1682.5444445523676 1826.980054497697,1681.9174486107436 1731.1865202045083,1661.006257772307 1730.942143742206,1660.8850236690846 1742.1560815199991,1641.400417693519 1743.5428232799532,1640.6565988039724 1724.925938942215,1621.7569331677291 1724.9291429244695,1621.6579301631205 1698.8458149244325,1631.8985985504473 1696.4958395999638,1633.36086308139 1701.5756077777842,1619.4521497010496 1702.099895777741,1618.2518360492318 1694.394318533341,1598.1302686774648 1694.2323717955514,1596.9498218877484 1714.8741728977548,1598.351005611686 1715.298263635581,1598.2765182761718 1726.579776311155,1587.474676174846 1727.5677679199507,1587.1467336324054 1727.2861087556012,1565.4446499651308 1726.957554942208,1564.167267888995 1702.1960152444444,1571.8527973841187 1701.5875498933965,1571.830539312657 1643.019337413345,1553.9324955155384 1642.5661195644425,1553.56134536313 1637.5009149422185,1562.7554158124617 1637.1889635822517,1563.0075329268361 1648.63009282665,1579.8669177660845 1648.2558094488704,1580.893928453304 1631.7133579643923,1580.5805112875892 1630.4174927911736,1581.220063517197 1627.063797217772,1599.295266634413 1627.539151671088,1601.4281278158082 1602.9500444711666,1623.4522390929992 1602.089338337748,1623.6774917120124 1540.089952168848,1606.9509420252648 1539.2510913688238,1606.3169155457067 1538.071734640027,1585.4089024322816 1538.0705695556026,1585.1926945474474 1507.7655580711798,1551.0137027408705 1507.3997215555064,1550.6802537265826 1498.3612877066262,1521.193888896239 1497.964576453298,1520.8054174497734 1505.7520008800566,1511.804498730729 1506.1026912977468,1511.0207059927411 1494.6941844178145,1494.3922748476393 1494.6059292710634,1494.3377458603131 1444.6098255910692,1500.5962210916691 1444.2605915289387,1502.328823105759 1401.8879266399672,1487.3738273756821 1399.5644569867072,1486.8985005663485 1363.1823650400402,1489.3910010014438 1362.264278497758,1488.2654031581255 1347.1822603643886,1501.7653768111263 1346.732246497857,1502.4583246687903 1343.3057331465898,1539.8805904101823 1343.1918461422683,1539.8824076627275 1348.361908364437,1552.5119455441377 1348.5786140711061,1554.0846805234683 1342.3885204178296,1557.7130121433652 1342.1712321688901,1558.6447299513743 1354.0108202933116,1585.4020891618343 1354.87298278229,1586.9268937563534 1349.7378730933196,1596.2621712086616 1349.0560074222522,1597.5570783084036 1357.276260719962,1604.388028494875 1357.1582959199804,1604.9970808572612 1322.2255690222155,1618.8104391401644 1320.318617057732,1619.3449709987976 1320.1188050755081,1632.0180323264572 1320.0707453422729,1632.41584169292 1303.7860687911525,1637.8148057791764 1303.464214213287,1637.9719272962316 1292.8884514400052,1661.5270641811435 1292.8319448444308,1662.3607150878302 1302.3873849155862,1679.3454296941413 1302.3113631555825,1680.1495010108697 1290.175843582234,1695.3985981357177 1290.8279995999546,1698.125689426182 1282.3278347644737,1694.0897456113958 1280.7817677067142,1693.1844853916914 1271.5275019644541,1704.795501313965" stroke="#009edd" stroke-width="5.489277999669147px" fill="none" stroke-linejoin="round" vector-effect="non-scaling-stroke"></polygon></svg>