<svg width="270.6005543821957" height="339.5589160240488" xmlns="http://www.w3.org/2000/svg"><polygon points="5,328.72177637781715 5.174471395555884,329.8424092918867 5.187869866727851,330.3384779430926 5.407197013380937,331.35906333260937 6.322662115562707,334.5589160240488 7.534058666671626,331.51462875748985 8.994783288915642,329.8809567580465 12.186532124411315,328.8727546974551 14.13397077342961,328.4693807750009 15.590617600013502,327.7947947161738 18.27788487111684,326.8072336377809 19.185485653346404,326.50389728852315 19.709482382284477,326.3396090425085 21.177780053345487,325.84995590301696 24.156900977832265,325.4786998772761 27.32389176893048,325.2905476306332 29.776394524378702,325.49338492390234 30.570982115576044,325.60306383343413 32.062290204456076,325.71870848105755 34.847715839976445,326.2620539331692 36.68505400896538,326.7480348980753 38.305977742304094,326.9008502163342 41.78433735109866,327.38269961078186 42.94709162670188,325.1230461022351 44.15149767114781,323.6439790229779 44.87880163558293,322.2603560630232 45.08531285333447,321.768858012103 46.64739982225001,318.40727506176336 48.042588444426656,318.5835013242904 48.711638186709024,316.68080079066567 50.83092679118272,311.07127036887687 52.019604195607826,308.2542884911527 52.95341937779449,304.85302533279173 53.36848071112763,302.9915098188794 53.87616625789087,303.38116269290913 54.48434033780359,303.92961283796467 55.515731342253275,304.71029135317076 56.12681813328527,305.12472447997425 56.303619697806425,305.2518538621953 58.64107036450878,306.66358161112294 58.79602659563534,306.39142545172945 59.05642296897713,304.76123500301037 59.69663687120192,300.2607072845567 60.53986673778854,298.2274991048034 62.432837688946165,294.28311243641656 62.31370780442376,294.22252785781166 63.61394204443786,293.209569544706 64.42076302226633,292.62116112944204 64.59698204451706,292.47474724194035 64.43620039115194,292.4251776274177 64.29726407118142,292.20349115662975 64.18512469343841,292.2962047807523 63.91220366221387,292.11949808645295 63.71646947553381,292.1392341659521 63.398401422193274,291.7927050655708 62.153508693445474,291.5232840430108 60.93745180440601,291.40394924080465 60.321122133289464,291.43378294748254 59.1563289599726,291.627013471385 59.10739541333169,291.3043505284004 60.190632675541565,290.59797861869447 60.93308273772709,290.0885081657907 61.05629041779321,289.28574552648934 61.451545315561816,288.4650794346817 61.60679281770717,287.76053418882657 61.74339896894526,287.80000714282505 62.536530204466544,287.99599484272767 63.07246904890053,288.1011029270012 65.43962936894968,288.4705872712657 72.7310190933058,289.1104133237386 76.47705685335677,289.89573524857406 78.50576014234684,290.16240440518595 79.38481635553762,290.3239662813721 80.29008696891833,290.5378519882215 81.55886392889079,290.8889729146613 83.82961351110134,291.4916144288727 84.99702812451869,291.930857793428 83.71193998225499,290.7044623813126 83.3137723733671,290.35976690799 82.534913422307,289.20955406327266 81.77207438228652,287.99002800666494 81.21137749333866,286.50290373625467 80.62592255999334,285.7524528782815 80.37309923558496,284.71925908129197 79.17306225781795,284.44661626877496 73.76677916443441,283.73471396858804 72.39023189339787,283.55616428074427 70.20074695115909,283.35650057322346 68.931096177781,283.19906446227105 68.27136711112689,283.12837882409804 68.48952917335555,282.51561599073466 68.98323370679282,281.68344914889894 69.03362360899337,281.382803417393 69.00711793778464,281.1666136326967 68.91187228448689,280.9504236315843 68.73681834666058,280.7819697014056 68.6925451378338,280.3771289286087 65.7163369244663,279.99156558222603 61.08920405327808,279.47885706590023 60.80434090667404,279.47334899997804 57.68395349336788,279.5279706470901 55.04066816007253,279.5472488721134 54.170058808871545,279.59865746379364 52.31640945782419,279.7987836508546 52.09912120888475,278.42084683454596 52.32165233779233,276.7266426475253 52.52408576000016,275.9490760478657 52.544183466699906,275.6800942700356 52.44573383114766,275.32573551207315 52.34437148447614,275.1563591645099 51.50987975113094,274.4104590343195 51.51395754679106,274.4843606391223 51.50871466670651,274.6312457412714 51.43531434668694,274.80245856242254 51.19122915551998,274.9351139792707 51.12161536002532,274.7974093927769 51.070351644419134,274.7606881548418 50.93432803556789,274.7560979996342 50.791896462324075,274.6615407811478 50.69402936892584,274.98009745858144 50.6404354844708,275.02829403302167 50.45081799116451,275.0737365077948 50.364893013378605,274.78960613015806 50.08469020447228,275.0507857641787 50.40654478222132,275.2270474124234 50.390233600046486,275.34134199813707 50.21984000003431,275.5979308274109 50.00313429336529,275.6410781140439 49.87468373333104,275.7985197356902 50.09197198227048,276.00002648337977 49.78438968886621,275.9715676830965 49.85400348447729,276.1694021691219 49.72089258674532,276.27772909624036 49.782059520017356,276.4911697048228 49.468651804490946,276.6660531429807 49.17330289783422,276.67385633767117 49.07019292446785,276.7702487198985 49.20417763560545,277.0947694234783 49.200682382215746,277.18565349356504 49.151457564439625,277.3316187381279 49.03232768003363,277.3398809188511 48.95747100445442,277.53174702625256 49.2804906667443,277.5978444017237 49.37602759106085,277.77364496176597 49.17592433781829,277.76400577032473 49.132233671145514,277.90262648276985 48.82319502229802,277.9824940050603 48.92513991112355,278.1963919366244 48.76930986670777,278.4295679812785 48.969995662220754,278.5778274220065 48.864846791140735,278.9055584560847 48.90649856009986,279.1722411852097 49.229226951138116,279.23879706452135 49.208546702284366,279.3269261974492 49.10514545778278,279.47610303293914 49.16456476447638,279.67622933356324 49.095242240000516,279.8400940792053 49.08388266665861,279.93510803446406 49.11242723558098,280.0994315878488 49.003200568957254,280.5979095349321 48.82523392001167,280.76223258383106 48.7372700443957,280.9545546527952 48.72037632006686,281.058289158158 48.82581646228209,281.53014282824006 48.55318670219276,281.703186182247 48.614062364446,281.9698654563399 48.49522375117522,282.1750384431216 47.999771591159515,282.66708561690757 47.65082880004775,283.24129223509226 47.42363733332604,283.23670226021204 47.50606705783866,283.485478759394 47.66393599996809,283.53688641358167 47.68199480883777,284.1097137319157 47.377033955650404,284.5833967126673 46.926728817867115,284.3929138559615 46.70070243556984,284.6416890232358 46.67594439117238,284.9037747287657 46.59001941338647,284.9528870760696 46.359915235545486,285.0249490981223 46.26758229336701,285.31870486278785 46.0587409066502,285.33706458477536 45.95417457772419,285.4609926675912 45.71329336881172,285.2778544756584 45.11473123554606,285.6542285362957 45.09113827557303,286.3560267093126 44.919288320001215,286.4652665075846 44.83744113787543,286.76131526287645 45.03608803555835,286.89947120973375 44.98831957334187,287.0472658457584 44.42966158222407,286.8829475795501 44.341115164454095,287.062871484668 44.47422606230248,287.12942493200535 44.446846577804536,287.2258126469096 44.36266922671348,287.30108683241997 44.26917119999416,287.14732551091583 44.04460117337294,287.3809508787235 43.84741063113324,287.5209423826891 43.42972785781603,287.53517102228943 43.098261333303526,287.6439512359211 43.310597973293625,288.01894421037287 44.26625848887488,288.5357633260428 45.38473955553491,289.0277960060048 45.217258666758426,289.1099543386372 43.17107911105268,288.20116210367996 42.98262670217082,287.7527313947212 42.139688106719404,287.61457599373534 42.03978211560752,287.7481415156508 42.18192241783254,288.0157312991214 41.91016647114884,288.06530192587525 41.799483448965475,288.29433643317316 41.586564266704954,288.671623207978 41.35937279998325,288.98924124694895 41.04887779557612,289.26371426275 41.214902328909375,289.39911470230436 41.07305329781957,289.47806000406854 40.96848696889356,289.7970538075897 40.374876444460824,289.8080694125965 40.067585422308184,290.0173657996929 39.91408554674126,290.3189174744766 39.712234666687436,290.67279264715035 39.48096540442202,290.9385428818641 39.19814115553163,290.97893321706215 39.222899200045504,291.34933059773175 39.40348728885874,291.49712218821514 39.18765539559536,291.5622973294812 38.8317220978206,291.4783040099428 38.30918172444217,291.41909558471525 38.296657066675834,291.80142567225266 38.73414627555758,292.051569240808 38.41054407111369,292.1681498141261 38.46879829338286,292.7868519608164 38.30976426671259,292.5931634971639 38.11606897774618,292.62850477010943 38.216266239993274,292.8139316136949 37.89149895112496,292.8405522861285 37.32264647108968,292.71984127978794 37.298179697827436,292.56149403983727 36.77767822216265,292.65650239773095 36.78991160891019,292.9910967164906 36.53155413339846,292.9796222971636 36.26241962669883,293.14072308910545 36.15727075561881,293.0057839724468 35.770753991091624,293.09895622869954 35.54589269333519,293.44686016021296 35.622496995609254,293.6010759717319 35.22636828443501,293.806696882355 35.116850346676074,294.06188684748486 34.643243520054966,293.9746816775296 34.66887537774164,293.76493015076267 34.483335679979064,293.6960838722298 34.48624839109834,293.9462252460071 34.37119630223606,293.8402020569192 34.222356764483266,294.0655586433131 34.058371128863655,293.96228936099214 33.92001735116355,294.11191506066825 34.1865304177627,294.39418411970837 34.03710833773948,294.47679938422516 33.92409514670726,294.73382444959134 33.67884487111587,294.79257299308665 33.59874531556852,294.56262743117986 33.491266275639646,294.7815576423891 33.18892686231993,294.78385250712745 32.800953742233105,295.3337014032295 32.73891299555544,295.0115029712324 32.51842076447792,295.0367464554729 32.45492366224062,295.375926803099 31.8324772977503,295.7591678267345 31.638490737765096,295.8472902175272 31.4115905421786,295.8918103699107 31.300907519995235,295.70271440129727 30.961867946665734,295.87620536913164 30.912643128889613,296.1281800978468 30.715743857785128,296.0501551677007 30.484474595519714,296.1883051718469 30.224952035583556,296.55456289456924 30.062714026658796,296.49673276912654 29.879504497745074,296.46139212930575 29.744937244453467,296.6936305137351 29.476967822294682,296.7762448985595 29.22793102217838,296.5366630954086 29.14171477337368,296.92495071166195 28.962874311138876,296.9299993640161 28.29120312887244,296.62065444752807 28.057603697758168,296.8983305427246 27.96730965329334,296.74365811725147 27.883714844472706,296.7652296490851 27.776818346697837,296.85335162922274 27.691475911065936,296.80194714519894 27.577588906744495,296.99333699257113 27.37573802669067,296.85013884934597 27.31894015998114,296.9465222254512 27.420011235633865,297.04841317614773 27.338164053391665,297.11725838598795 27.173013333347626,296.98828834167216 27.00582371558994,297.29074821725953 26.948734577861615,296.99379596079234 26.732611413346604,297.3132376297144 26.887276373337954,297.42797949310625 26.89106289774645,297.56658758281264 26.615520426770672,297.73456945305225 26.47279758215882,297.771286784322 26.254635520046577,297.88924116885755 26.03822108451277,297.8190193056944 25.759474631166086,297.7520101862028 25.579177813371643,297.84885212616064 25.52616647107061,297.5886179994559 25.265770097845234,297.5877000654582 25.351986346766353,297.4252256891341 25.176058595534414,297.39906454924494 25.154504533391446,297.2076750615379 24.765657600015402,296.72759420913644 24.59905052452814,296.71198926866055 24.51312554674223,296.53620412625605 24.05320846219547,296.50912494014483 23.923010275582783,296.4375257198699 23.748247609008104,296.78496530401753 23.343963306746446,296.8157162046409 23.382411093334667,296.6665513473563 23.517269617761485,296.6950074203778 23.569989688927308,296.6146878497675 23.466297173290513,296.4981096770498 23.35328398225829,296.4375257198699 23.09026616893243,296.3604188406607 23.067255751113407,296.5109608172206 22.751809137756936,296.57062681554817 22.82084039109759,296.47332533297595 22.391215502168052,296.3879570149584 22.613455360056832,296.257609625638 22.43577998224646,296.15112860139925 22.141013617860153,296.2924913291354 22.14013980445452,296.1268031875952 21.831683697761036,296.2846888432978 21.77168184891343,296.1332287688274 21.958095360081643,295.78578813606873 21.43846769782249,295.7325475141406 20.639511040062644,297.30497621314134 20.263771306723356,297.9544143808307 19.01654840889387,300.24097194732167 18.729063822189346,300.81742663728073 18.531290737795644,301.3149388427846 17.612621653359383,303.3091067962814 16.642688853433356,305.3895390293328 15.737418240052648,306.7824490334606 15.431874844478443,307.2395602102624 14.897101084468886,308.1946257209638 12.642080142279156,312.6165102168452 12.725674951216206,312.9666773775825 11.620009813341312,313.67068145796657 10.659397688927129,314.4504068972892 10.062874453375116,315.3958030063659 9.607908977777697,316.07731171202613 9.292171093286015,316.66611514484975 8.630694400053471,317.85977953189285 8.092134115635417,319.0887742640334 7.152202240074985,321.7234253627248 6.697236764477566,323.66967807203764 5.952747804461978,325.72696881066076 5.696720497799106,326.35934199480107 5.663515591179021,326.68424709059764 5.6285630577476695,326.8416515022982 5.5557452799985185,327.59700751979835 5.350399146671407,328.026999406924 5.1208775111008435,328.2206560924533 5.083012266666628,328.5808937777183 5,328.72177637781715" stroke="red" stroke-width="3.9247382579340826px" fill="none" stroke-linejoin="round" vector-effect="non-scaling-stroke"></polygon><polygon points="10.020931413397193,181.48281900177244 10.543471786659211,182.11974770354573 11.233784320065752,182.70386523578782 11.689041066681966,182.95275760343065 14.299412764492445,183.92582298029447 15.595277937827632,185.52110802487005 16.51336447999347,187.50853933684994 16.38724408892449,188.24785176839214 16.45656661328394,188.31719087902457 17.991856639971957,189.2714049863862 17.763208817807026,189.5106466494617 19.648024177760817,191.08293075137772 22.076642702217214,193.11026031762594 26.826691982219927,196.48711083095986 27.676329813315533,197.29848382179625 29.931059484486468,198.9850462176837 28.272853048867546,201.26163200679002 29.354051413363777,202.0514060583664 29.84804721781984,202.43068024457898 30.614672782248817,203.33202772540972 32.643084799987264,204.7779410147341 37.33954019553494,208.6298361402005 38.57365589332767,209.87873719725758 38.984056888963096,210.25386525818612 40.30730154667981,211.52341867005453 41.267039857804775,212.3007581770653 41.95473095111083,212.8590818134835 44.10110776883084,214.07811401155777 45.48085902223829,213.746152253123 45.85222968889866,213.6786578912288 46.18806527997367,213.62769274692982 46.408848782186396,214.15433199179824 46.530891377828084,214.42063556739595 47.51626154675614,216.61119958327617 48.41162894223817,218.6607870364678 49.32767658669036,220.69658111821627 50.15430399996694,222.27001548931003 51.222103893291205,224.20568674628157 52.2278630399378,226.15144126384985 52.98283776000608,227.6724967051996 53.151775004458614,227.96082112839213 53.470716871204786,228.46446971478872 55.22038243548013,230.5479187494493 57.42530474672094,233.42835263558663 60.720163555582985,237.79484082688577 60.99366712896153,237.79943176783854 63.09926599112805,237.97067379765213 64.20114460447803,237.89859606977552 65.43438648886513,237.60110302746762 68.12544028449338,236.7839132399531 71.64982072892599,235.5654683407629 73.67444622225594,234.85615945863537 74.45476152887568,234.60319501522463 75.26507775997743,234.3516075797379 76.01917866664007,234.07614654768258 76.34540231106803,234.05640516022686 76.8099797333125,233.8778143870295 77.55126471119002,233.50777750764973 78.34526976000052,233.2841941229417 79.00645518233068,233.4177932573948 80.16367530659772,233.85623657150427 81.06661575112958,234.3378345364472 81.8090658133151,235.8638823844958 82.36277219559997,235.9823296905961 82.93308103107847,236.22151959501207 82.97910186671652,236.12097722978797 83.50834147562273,236.27431579539552 83.47513656888623,236.37853086611722 83.7827188622905,236.48045040207217 83.8208753777435,236.38174454588443 84.15292444441002,236.48228678968735 85.64015473786276,236.73249445320107 86.40008106664754,236.75085830700118 87.05922759114765,236.63654329173733 87.84624213341158,236.8835371042951 88.4506296889158,237.08691655565053 89.9331996445544,237.93532357749064 91.08546815998852,238.76949541282374 92.52114346669987,239.6550821280689 94.33168469334487,240.5085290299612 92.28288369788788,242.75942740391474 91.61092124448624,244.24409849679796 90.61390023119748,245.99777847289806 90.10213688889053,246.5973317628377 89.82484679110348,247.2363637581002 89.3969695288688,248.51258578919806 89.0209385243943,249.4412850648514 88.59539143112488,249.8112946372712 88.3766468266258,249.9334068383323 88.52490382222459,249.9256026771618 88.87268152891193,250.14549628662644 89.10395079117734,250.3015792972874 89.6987264000345,249.95406491064932 89.97514268453233,250.28321659599897 90.42340892448556,250.27128083934076 90.91070549341384,249.90402646549046 90.74089443555567,249.6492433764506 90.67040682665538,249.20394608471543 91.12566357338801,249.00470967951696 90.97798912005965,249.5436575037893 91.09391502221115,249.87831863586325 91.01235911110416,250.1510051006917 90.61681294231676,250.91856515267864 90.09048604441341,251.95421601779526 89.94688938662875,252.11626554850955 89.30172387557104,253.22076987562468 88.20275797334034,254.5676515463274 86.90223246230744,256.0370926198084 86.45629639108665,256.5884173529921 85.27985237329267,257.7213600128307 86.87718314665835,257.9132435537176 87.7501226667082,258.42829853092553 91.01090275554452,260.0023760465556 91.86549219558947,260.4017464694916 92.6787211378105,260.61841609107796 93.53855345782358,259.20592822739854 94.01070392888505,259.35741420602426 95.52007082663476,259.7251115483232 95.45220465783495,259.59015154786175 98.329671964515,259.77606581232976 100.60042154660914,260.21812797593884 101.92541383113712,256.6384542491287 102.37630151107442,256.6857368099736 103.71119701326825,254.15082607837394 105.36998599115759,250.91994235129096 106.97634616889991,251.20823573111556 108.44173112895805,251.85276285017608 109.2447655822616,252.38481761934236 109.37816775112879,250.11657501047011 109.5686590578407,250.16248179622926 110.03527537779883,248.92299515602645 109.75012096005958,246.79886576440185 109.76759722665884,246.62349905841984 109.1964145777747,246.35907150467392 110.09498595551122,246.26542000169866 112.56117845338304,246.29434179374948 112.58360632893164,246.18967243289808 110.95773098664358,245.843069581897 108.80756764439866,245.14251695509301 106.91605304891709,244.12657388439402 106.8123605332803,243.99114505253965 106.64167566224933,243.85250256711151 104.43820970668457,241.39915856311563 103.90081450669095,240.82300431048498 102.7290308267111,236.9491878284607 102.59621119999792,236.5644651185139 102.4907710577827,236.32022552436683 102.15085767104756,235.86204599164193 102.4048460801132,235.08295491454192 102.45174072892405,234.96863901609322 102.55426816002,234.62201815098524 104.36713955563027,234.89656028605532 105.9965101510752,234.93512470513815 107.76394325331785,234.8185132262297 108.52183068438899,234.7120018992573 110.11362730665132,234.26483739254763 111.42492984887213,233.46003076725174 111.61309098661877,233.32505434803898 111.90610972442664,233.13911730592372 113.03624163556378,232.75851974991383 113.52208184893243,232.7874433513498 113.78859491553158,232.8962511504069 114.10782805329654,233.0004678516998 114.89484259556048,233.04086902644485 115.95914723561145,232.75438780651893 116.29673045338131,232.51014390221098 116.45634702220559,231.9716126632411 117.1492809955962,231.09379927336704 117.65376255998854,231.17597965325695 117.9389169778442,231.4105838057585 117.86930318223312,231.79898855474312 118.12678684445564,231.803120516357 118.46378752007149,232.16122355958214 119.48527530673891,232.74474660505075 121.67272135114763,232.0992442292045 122.59838094224688,231.43262097338447 122.8820790045429,230.4156951684272 123.51996273780242,230.12966957560275 124.04716344887856,230.1746623906074 124.61776355549227,229.8854227019474 124.85893603553995,229.175636045984 125.92061923560686,229.5635857039597 126.52471551997587,229.55210791353602 127.8668927999679,230.3615202056244 128.18758229340892,231.02860587718897 128.66730581328738,232.65430293179816 129.73190172447357,232.71582299785223 131.57419150217902,232.20988879911602 132.98685639107134,231.97390819573775 133.47036643559113,232.29665981221478 133.22744632896502,232.54870874760672 133.3500714667607,234.14455273677595 133.62153614219278,234.24830973392818 136.4611382044386,233.0619878192083 138.82480327109806,232.08776657347335 139.58036053343676,231.67548877530498 140.3752393956529,231.28708380425815 141.54644053336233,230.50200779299485 141.8843150222674,230.29127637774218 142.41530225786846,229.8900138111785 142.778517333325,229.74860760307638 142.93230848002713,229.5612901459681 143.57019221340306,229.46579490916338 143.9811757511925,229.58011372137116 144.47604536893778,229.91756046423689 144.22817365336232,229.2252201832016 144.08370318217203,229.03193380642915 143.49067520000972,228.44289135822328 142.9384251734009,227.77442035096465 142.78812927997205,227.67708786134608 142.1863631644519,226.4774154118495 141.8656736711273,225.76440371375065 141.33963804447558,224.91365325578954 141.83887672889978,225.216673231218 146.47649536002427,226.03115208772942 151.77151288895402,227.26801545592025 154.07109831110574,227.7955396589823 155.04423509328626,227.90480908902828 155.5851255466696,227.7872755822027 156.7694338845322,227.4273288192926 158.9903761066962,226.77767848735675 161.42744149337523,226.10736584832193 164.08762055111583,225.22493740642676 168.8475730489008,223.62168149690842 170.45742848003283,223.4150754880393 173.17731811560225,224.1280949448701 175.10028999112546,224.51513542840257 175.96886044449639,224.5862993800547 177.5822111289017,224.6657275049365 179.80752241774462,224.55186521285214 182.13011825783178,226.59311316011008 182.34420252451673,226.77767848735675 182.50906197342556,226.89475342654623 184.35280810669065,226.6289243553765 184.4031980088912,226.9223004617961 184.619029902271,226.91128164809197 184.5529113599332,226.82818141009193 184.4256258844398,226.69044613838196 184.09503317333292,226.19184372015297 183.8861917866161,225.52428398339543 183.77288732444867,225.40950390323997 183.41171114670578,225.58259224082576 183.07529301336035,225.45403858157806 182.61421084450558,225.68864895193838 182.16943985782564,225.30757914087735 182.24779178667814,225.0265971145127 182.74033123557456,224.59089060197584 182.44585614220705,224.43295251298696 182.22128611558583,224.01928272668738 181.68855125328992,224.03121993481182 180.93008127994835,223.73095303948503 180.56511857779697,223.69697785994504 180.476572160027,223.32049578230362 180.38103523559403,223.27412416390143 180.33414058666676,223.10929823177867 180.13258097774815,222.8159169438295 179.87247587554157,222.53539080102928 179.4006166754989,222.131359054707 179.0426444800105,221.85220940655563 179.05924693332054,221.56341769651044 179.76820081775077,221.69702408416197 179.031867448939,221.05148867622484 178.81312284443993,221.00557570031378 178.46447132446337,221.23238570638932 178.13620878220536,221.24110916338395 178.11814997333568,221.08179123495938 178.69486677332316,220.87610105553176 178.96283619559836,220.66765589697752 178.76797582220752,220.19015962095 178.63981653330848,219.97299029224087 178.64738958224189,219.54048751102528 178.8935136711225,219.31138006044785 179.16352199111134,219.27924071927555 179.32342983107083,219.05059212539345 179.34381880890578,218.64012596965767 179.56489358225372,218.41101756354328 179.48013368889224,218.25904371711658 179.32488618663047,218.35592131735757 179.13089962664526,218.49274363613222 178.9532242489513,218.4601450378541 178.5136961422395,218.1791540994309 178.36573041777592,217.90826379612554 178.28854357334785,217.73471016902477 178.59030044451356,217.59421427338384 178.47175310226157,217.3775014708517 178.26611569779925,217.13966810243437 178.16912241780665,216.76730683911592 177.94688256003428,216.57400930859149 178.18164707557298,216.10614592337515 178.22475519997533,215.72551833908074 178.01212728896644,215.4821734520374 177.91717290668748,215.37381601787638 177.82221852452494,215.19107751001138 178.100091164466,215.2195443229284 177.91717290668748,214.94773202063516 177.6197851023171,214.99502371274866 178.16912241780665,213.5418325215578 178.6293307733722,212.5372194328811 179.57071900437586,211.47061641654 181.09435818670318,210.477472494822 182.22012103104498,210.04586899647256 184.16552078223322,207.89151182305068 184.16552078223322,206.9451857317472 184.5893202489242,206.23210952198133 185.2047761066351,205.41571931459475 185.74362766218837,205.04884779418353 185.97810090670828,204.266431355034 186.58947896887548,204.19801569823176 187.70650367997587,203.6920146641787 187.85592575999908,203.77053214376792 188.30826979561243,203.29483516316395 188.94964878226165,201.21755150950048 189.34432113787625,200.5104256347404 189.60792149335612,199.4772830172442 190.48581262223888,197.52899217407685 190.4048392532859,197.10333213588456 190.79456000006758,196.27542784553953 191.09515178669244,196.2217034973437 191.50642659561709,195.47553061245708 191.53555370669346,194.67379367223475 191.80235804442782,194.55853800242767 192.04061781335622,194.2421585767297 192.25732352002524,193.72465451073367 192.26023623114452,193.4013860351406 192.48597134230658,193.12174004572444 193.44570965331513,192.1533080318477 193.89980131562334,191.61238015105482 194.3160277333809,191.47921433579177 194.58341461338568,190.76333187287673 194.96148451557383,190.538785826182 195.09634304000065,190.15352120588068 196.3086134045152,188.6854684308637 197.43816277338192,187.6095635452075 198.79956394666806,186.03220289881574 199.95765788445715,183.96072283689864 200.59495907556266,182.23776528832968 201.949078471167,180.17956609715475 203.39698716439307,179.59360486268997 204.06661944894586,179.370424852008 205.391029191087,178.9112059971667 207.37866325338837,177.4444544314174 208.4834545777412,176.59902422025334 210.4381750044413,175.21491785650142 211.34927103994414,174.46086546592414 212.54056988446973,173.52725127432495 214.56432156451046,172.08296558540314 216.10631082672626,171.24715832422953 218.7714414932998,170.1394790993072 220.6792672710726,169.44419164059218 222.08931071998086,168.91790255066007 222.7531175822951,168.91560634761117 224.41685816890094,168.96107116306666 226.2102144000819,168.7567090386292 228.98398919112515,168.47978657030035 230.50762837333605,168.31262258661445 232.11282346665394,167.8901196331717 233.30062705778982,167.72019973397255 235.10825557331555,167.74270264722873 237.14103665784933,167.8042412144132 237.5161938489182,165.89424124010839 237.83484444441274,164.7373948552413 238.26767331559677,162.9963729880401 239.31770567118656,160.95360507979058 240.47492579557002,158.64490503823617 241.60360135114752,157.9927513592993 242.91257372451946,157.14632642793003 244.49446712888312,156.27509773371276 245.43032120889984,154.93908443395048 246.24267633783165,153.16583434678614 247.00260266673286,151.7209531343542 247.10338247113395,151.04673316230765 247.27843640896026,149.73778510530246 247.98156487115193,147.50061375054065 248.20846506673843,146.92972028255463 248.69343146670144,145.5918119753478 249.08489984006155,144.10829941905104 250.29134478222113,140.81973368342733 250.35280298662838,140.71271666616667 250.63824867561925,138.70510433166055 250.96563740447164,136.67175200849306 251.34225095110014,135.58869815885555 251.9323662222596,134.55111093836604 253.01123441779055,130.91836808179505 253.50231751112733,129.4760938778054 254.15738624008372,128.11005840386497 255.0207138133701,127.33103766519343 257.55564629333094,124.78450214117765 258.4635383466957,123.76523644733243 259.18676451558713,121.65181801881408 259.4433743645204,120.87507068313425 259.5441541689215,120.47130795381963 259.7375581867527,119.5475658084033 259.7663940266939,118.87048924347619 259.93620508443564,118.39414577395655 259.89863111113664,117.8516549685155 259.703479466727,116.00644106487744 259.9784393955488,115.60358793532941 259.45648156444076,114.35000708058942 259.6152243199758,113.95817544072634 259.2651164444396,113.46620293718297 258.9691849956289,112.73995576309972 258.99802083557006,112.48960433655884 258.81452003563754,111.70179932878818 258.70267192891333,111.34809002251131 258.4256731022615,110.41374343063217 258.2809113600524,108.76553515624255 258.07294378674123,108.13206491502933 258.13352817774285,107.41177162027452 257.87604451563675,107.25650400074665 258.32693219557405,106.3685364444973 258.09915818669833,105.20218344090972 258.57305628445465,104.5342494219658 258.6193683911115,104.11851227970328 259.181521635619,103.43725288868882 259.18763832887635,102.7803385599982 259.96183694223873,102.1261785280658 260.9073029689025,101.28826278168708 261.98442353785504,100.31390600535087 262.88619889784604,99.53019104484702 263.4990333155729,98.66424242424546 263.92632803565357,97.66093209106475 264.3713902933523,96.7641965636285 264.3032328534173,96.73341715300921 265.426374257775,93.99724783049896 265.6005543821957,91.82657170086168 265.47967687121127,91.27161015092861 265.21811541332863,89.8685801323154 264.17944263108075,87.99648101307685 263.56398677336983,86.83646052610129 262.89406321779825,85.65713825670537 262.16355527122505,84.4470283795381 261.58742101327516,83.49924206273863 260.9265268621966,81.11252952937502 260.26388508442324,79.80545440508286 259.4905602844665,78.30632826738292 258.6202422044007,76.64271333522629 257.8996374756098,75.30804474861361 257.5958417067304,74.64874758152291 257.14670165337157,73.64348781481385 256.4173587912228,72.10159033420496 254.4067143111024,68.10896192677319 253.83320149336942,67.01269912929274 252.9314261333784,65.58286266901996 252.59355164447334,65.06275271205232 252.48927658668254,64.81648112903349 251.95246392895933,63.485415114904754 251.43487516453024,62.23428827919997 250.94816113775596,60.9946409475524 250.65397731552366,60.26086561725242 250.44513592892326,59.84044844569871 249.77084330667276,58.54197450168431 249.6313244444318,58.146365706808865 249.3511216355255,57.105189732741565 249.14169770665467,55.96430137648713 248.98324622225482,55.051310658454895 247.69874062226154,55.30494510557037 245.59197667555418,56.14763422549004 245.37119317334145,56.45089122786885 243.98182997328695,56.397591543151066 242.53304746677168,56.6204392752843 239.3008119467413,58.03792925539892 237.97989745775703,58.96469157625688 237.0883165866835,59.31572990876157 235.69691448891535,59.4586262392113 234.03230008890387,59.30516200920101 232.3571999289561,59.25507934758207 230.95851605338976,58.838336015702225 229.49021838221233,58.322804562107194 228.09706865786575,57.85046271944884 226.19768974231556,57.65334699489176 224.60268913779873,57.65518490457907 223.05720462230965,57.22603256814182 221.70570666668937,56.646629612194374 221.32588913780637,56.56300431478303 219.81652224005666,55.96522033843212 219.0539744711714,55.74834518902935 218.384342186735,55.66517902514897 215.93562595557887,55.12712533422746 214.96132408897392,55.03109340718947 214.1381919288542,55.11517878109589 213.3695274667116,55.21672446210869 211.38684501335956,55.19053395168157 207.2274935466703,56.23309760564007 205.82939221337438,56.34521080565173 204.817516373354,56.52211061352864 203.23707932443358,55.73685815173667 201.0580801422475,55.1942098129075 199.4569628444733,54.15531701850705 198.20595342223532,52.22960732743377 198.04546304000542,50.88743586430792 197.58205070218537,48.53850084071746 197.55263231997378,47.56344635866117 197.02193635562435,46.11923645425122 197.30446933337953,45.24664042110089 197.2022331734188,44.31108856888022 196.92203036451247,43.50557333638426 196.27977756445762,41.642262173467316 196.6627990755951,40.40571313351393 195.81636522663757,38.06309726939071 194.49020785780158,35.70758929499425 192.44461084448267,33.960930902394466 191.65177087998018,32.82451546873199 191.6337120711105,31.678903395077214 191.7822603378445,30.986386448028497 192.195865315618,30.057665805565193 192.87947861338034,28.963966900017112 193.61493816890288,26.36204411147628 193.47891456005163,25.38642986281775 193.56833479111083,24.19436388363829 193.29337486228906,22.65119390230393 192.76850431994535,21.481171425897628 191.21865073777735,20.8763969122665 189.2569398044143,21.122718651313335 187.6403851378709,21.1774057156872 186.0899490134325,21.21968478115741 184.85175552009605,20.99450270656962 182.97771719109733,20.818492880556732 181.36553159111645,21.00691070454195 179.86199011548888,22.028040537261404 178.27631018671673,23.41267016530037 176.68684373330325,24.379102373379283 174.56376860453747,24.391510176705196 172.3454478222411,23.64841936272569 171.13230364443734,23.958155733533204 169.801194666652,23.9871073300601 166.46148010669276,23.602464373689145 162.0184305778239,24.632313329842873 161.57103815115988,24.735252000391483 159.86273308447562,25.118514297064394 159.71272846218199,25.152061204309575 157.23488511994947,24.488474837387912 155.00724366225768,24.256862494861707 153.87449031113647,24.121295631397516 152.02579256892204,23.068926234496757 149.93592234665994,21.23485009605065 148.84423822222743,20.6980892092688 146.25542058667634,20.557924545486458 144.2607960178284,20.482097722240724 142.3841362488456,20.719688346027397 141.32157923548948,20.7679417290492 140.2415459555341,21.007829815498553 138.38352753780782,21.979787436197512 136.19724657770712,22.588235273840837 134.17524252447765,23.97653770004399 133.02064383996185,24.580384428380057 131.84303473785985,24.92826187517494 129.82452593778726,25.878603216959164 127.08628622232936,25.275679214741103 124.24814051552676,24.456306471431162 122.20749511115719,23.284915131982416 121.11726734228432,23.21138702094322 119.8053822577931,23.08960603189189 117.9910545067396,21.993574037682265 113.83548956445884,20.392484169395175 110.69442190218251,19.051033769035712 109.1253444267204,18.109853586531244 106.83711857779417,16.295496609585825 105.794950542273,15.549620508914813 104.60248661332298,15.407154663524125 100.28847018675879,14.92874447471695 98.23093105782755,13.95078067277791 96.59660885331687,12.770140834734775 95.60279182216618,11.949341873638332 94.58479928900488,11.458055895171128 92.76231594674755,11.396472728229128 91.058088675607,11.595009442185983 88.62044074665755,12.46820115443552 84.49808071111329,14.01879709563218 82.92113891558256,14.258692686329596 78.45362261333503,13.194785880157724 77.00979171565268,12.341818362183403 75.98946901340969,11.49711983522866 73.31996927992441,10.1799717899994 71.81671907566488,9.728665201924741 69.26897066668607,8.512154859781731 66.480049777776,7.1407575675984845 63.86385265784338,5 63.00372906669509,5.04182264622068 62.558666808879934,5.339176831475925 61.240082488860935,5.421443218481727 60.03713280009106,6.77906386659015 58.585437582223676,7.759358095645439 57.14393685339019,9.333886058011558 56.44517745776102,10.50673187704524 55.00134655996226,12.149256801814772 54.061414684401825,13.511430829938035 53.090608071070164,14.735725654405542 52.32398250664119,15.586385873146355 51.028117333306,17.785402825917117 50.314211840042844,18.607098706183024 49.08067868440412,20.702684770454653 47.9249149155803,23.157160022994503 47.79413418669719,24.751336163142696 45.315125760040246,31.37101624114439 44.69093176885508,33.627313405508175 43.61439374217298,36.04993452085182 43.11515505774878,37.691345963976346 42.084637866704725,40.24672117829323 41.3051963733742,41.688213320448995 40.634981546667404,43.52211560757132 38.9846394311171,47.165979436191265 38.42598144011572,48.72229949547909 38.07703864888754,51.19299771531951 37.69372586661484,53.32456677092705 36.951275804429315,57.104730254155584 36.37514154671226,59.86709786450956 35.67259562667459,63.37192722875625 34.99568156444002,66.50867366907187 34.56634794676211,68.11539429891855 34.32197148445994,69.89164058567258 34.15332551114261,72.96856443909928 33.874287786660716,76.2668935492402 32.927365404437296,79.26332602009643 31.57091583998408,82.34838589793071 29.79911367117893,87.86692655913066 29.595806435565464,88.43200392654398 29.182784000062384,89.26996959128883 28.440333937760442,90.38771149050444 25.417231075582094,94.1589565858012 22.40927431115415,97.60626440681517 22.63646577775944,98.1593721024692 23.142694968846627,101.68838633183623 23.30114645336289,103.77857192186639 23.38474126229994,108.5606566593633 23.06812956451904,110.07335362269077 22.422964053344913,111.48819572618231 22.130527857807465,113.68715431232704 21.8858601244865,117.55491513642482 22.1465477689635,119.43227001692867 21.858480639988557,121.26045897731092 21.205450808862224,123.6807184809586 21.079330417793244,125.61130268324632 21.097680497798137,127.44173594861059 21.01146424887702,128.67548973788507 20.99311416898854,131.0396289131604 21.645852728979662,132.78090856631752 19.370734079973772,133.78543359349715 19.031985777779482,133.97650869819336 18.983052231138572,134.53044181957375 19.424910506699234,134.70727754983818 20.284451555577107,137.15770061244257 20.544556657783687,137.76260864082724 20.19765276450198,138.86953541939147 19.542584035545588,139.58926443272503 19.003441208973527,139.86025303724455 19.004606293397956,140.15512499667238 19.156941084424034,140.62682743370533 19.501806079992093,141.15134830982424 19.4240366932936,142.05387030157726 19.537632426712662,142.54210327158216 20.006287644500844,142.66289827635046 20.391056782216765,142.91229611390736 20.470865066628903,143.2264543059282 20.019394844421186,143.73213780357037 19.641907484503463,143.98153440572787 19.602003342239186,144.93227019067854 19.472096426645294,145.43060104281176 19.546661831089295,145.60788713296643 19.790455751121044,145.55231301154708 20.075901439995505,145.242291823728 20.383775004534982,146.13055874838028 20.056386275566183,146.29314702440752 19.69812280894257,146.5512671431643 19.992889173328876,147.42483151867054 20.147554133320227,147.31827706290642 20.336589084472507,147.35226426570443 20.541352675645612,147.83818882371997 20.151631928863935,147.88962878851453 19.963179519982077,147.9980201027356 20.06046407110989,148.2189361298224 20.033958400017582,148.50323313754052 20.360182044445537,148.663982491591 20.475816675578244,149.5255969883292 20.209886151133105,150.27744009054732 20.38027975114528,150.27744009054732 20.419601351139136,150.52728840964846 20.241634702309966,150.71375590062235 20.63543324440252,150.9241057339823 20.608636302291416,151.08347544935532 20.83641031116713,151.51565613143612 20.711455004522577,151.71544180787168 19.127522702212445,154.94505494827172 17.611747840070166,156.3113798634149 15.20264448004309,158.22146463446552 16.25529827561695,160.5692061696318 17.426208142307587,163.16400034166873 18.35798442666419,164.66988516855054 19.626470115501434,166.60331749974284 19.42840575997252,166.91606347763445 15.666639360017143,173.0514876441448 12.67528504889924,177.0858013893012 10.394049706752412,181.01947170705535 10.020931413397193,181.48281900177244" stroke="red" stroke-width="3.247864358718509px" fill="none" stroke-linejoin="round" vector-effect="non-scaling-stroke"></polygon></svg>