<svg viewBox="0 0 317.612351768955 308.00522788027524" width="1000" xmlns="http://www.w3.org/2000/svg">
  <title>Teplice, okres Teplice, Ústecký kraj, Severozápad, Česko</title>
  <desc>Geojson of Teplice, okres Teplice, Ústecký kraj, Severozápad, Česko</desc>
  <metadata>
    <collboard>
      <support-module name="@collboard/map-svg-geojson" version="0.11.0"></support-module>
    </collboard>
  </metadata>
  <polygon points="8.052549999999883,167.0754728431125 23.886630142318154,201.0131057360918 24.09954932446226,201.87691981837952 12.994838213409366,213.8505607864131 12.537833840098301,214.76759104952316 24.274894533423776,240.73579341048708 23.416518568853917,243.62059930698115 36.53362178672205,254.05571721393017 37.05965741337377,254.615842155275 31.657452115533943,258.9462016722896 29.64243856885105,260.78492538797536 31.83279732449546,273.81944363806497 34.34850591116219,277.08391816550966 51.197957146774115,257.9756430644552 51.73010946668319,257.33426395527886 68.39023448000762,265.28227200927313 70.20077570665262,263.2503056457276 76.84117449782889,252.76145574599605 78.05460994676787,250.9892369641816 63.18347209782905,241.6573009324852 59.49597983118247,239.795915966773 63.620670035575586,232.59127739413043 63.706886284496704,231.77855372647855 89.85924553775794,252.94602277232434 90.97510516455031,253.37484207013722 114.92050320897351,237.73753793104652 116.12374416899502,237.7751885642424 138.1199559378215,245.01868092761242 139.80292041783787,245.50490817716445 120.36203010669078,286.7531021857062 119.90706463109336,288.31616135288596 129.1499708000115,287.4646283198158 130.03426989340323,288.11188554057253 128.82753367999203,297.72411547447655 130.0703875111426,299.95267788027513 148.89989976000606,299.12230582265283 150.33994413339633,299.1333223882607 150.24295085340373,290.1105668683663 150.22518331555284,289.86176556148666 170.84717798219162,275.0658351108209 171.44340994672484,274.9069951979104 208.6122251644042,285.8382138464144 210.74345588449023,287.0487301029275 220.6466736623329,262.1424948713752 221.5970912978296,259.64450533226 251.85491686230625,229.68198803635414 252.25308447119414,229.16358308666486 234.68652376006457,211.08429266725534 234.45962356447808,211.00990050516657 241.05341897774588,190.73294764213597 241.3065335734059,189.52464673875465 261.3398693245613,198.39638467142458 262.5186435112041,199.78098216639 278.7905041333065,192.68293171757932 279.03342424004904,192.51346842127487 273.36033680893115,169.68522485331732 273.09178484450194,169.05965887298908 288.0127300533709,163.81392742208072 290.04551113778825,164.97552276022134 305.35239056891396,141.90090666406422 309.5598017689549,141.351973143966 308.64055014224823,121.4093511105525 308.6583176800991,121.0266692148648 268.16406018668886,106.71672748283117 266.00282854223724,104.40714589847585 288.8629504267369,84.60262914267469 288.9584873511699,84.54657257625468 292.82103355552636,66.85172743348039 291.08855298671506,63.91722684950901 254.7443262844822,34.83612613721152 254.05925663116022,33.02580934888783 244.95645186663705,43.621392949520214 241.7352846489298,46.24274873812783 231.6698288622788,26.68797235165357 230.2245416089204,24.988352497085998 204.45520386668022,8.690073961253347 203.0804042222221,8.052549999999883 231.14262815120264,58.536133204971975 232.624033022184,60.24697710175633 185.7768613244184,89.66190402975872 185.72967540447235,89.73220280887426 178.7027598488853,83.73604813669908 178.50731693334046,83.66574740395981 157.37880180447928,126.94598851245928 157.21714633782494,127.80872091194715 135.67793894230954,112.47702039450041 129.549012222305,107.74769246418828 119.43287526231825,121.94179694107834 118.91208251551825,122.27807784124843 81.65617723562855,136.44320513934463 80.59798928895134,136.2994223983037 82.51251430225193,166.2620431596074 82.38231611552283,166.4149920579871 53.8424075644939,179.05701502305556 51.7006910844716,179.42168219111727 26.977016631142305,170.2841497610566 24.88772895115062,170.11696536813497 30.262263493357295,161.53251577189758 30.868398675556364,160.45220129829931 19.13599832004502,145.099852138002 18.017225982249784,144.97720533234633 8.052549999999883,167.0754728431125" stroke="#009edd" stroke-width="5.114885034210689px" fill="none" stroke-linejoin="round" vector-effect="non-scaling-stroke"></polygon>
</svg>