<svg viewBox="0 0 34.13179699199973 37.88136476870423" width="34.13179699199973" height="37.88136476870423" xmlns="http://www.w3.org/2000/svg">
  <title>Moravskoslezský kraj</title>
  <desc>Geojson of Moravskoslezský kraj</desc>
  <!-- Generated from maps/2-geojsons/world/europe/czechia/moravskoslezsky-kraj/okres-karvina/okres-karvina.geojson -->
  <metadata>
    <collboard>
      <support-module name="@collboard/map-svg-geojson-import" version="1.1.4"></support-module>
    </collboard>
  </metadata>
  <polygon points="2.5272351424964654,10.632406980403001 3.8261805078303954,11.390610627361283 3.848142349609225,11.425499199070153 4.916903437606925,10.12152277638507 4.951098666051803,10.06158312639437 5.42927116738556,10.379920222036716 5.488100650050729,10.438217857516255 6.040110378051577,12.158085089553614 6.045702783387788,12.18012463329779 5.75339037805079,14.081798681300832 5.7397880171627556,14.094446355038787 7.250188927387171,14.67843206669623 7.258096938053313,14.693336621398164 6.910705165608488,16.748420566673854 6.908928411832131,16.801638816897874 7.5618053256095665,18.51331937109481 7.564849108719319,18.520269951842607 8.872234054497495,17.341015737394454 8.8795231140537,17.335474387244727 10.187192049162514,18.97772509068728 10.238288283831025,18.982001140648034 9.332231238495842,19.60034590397391 9.329638925607833,19.612822866158794 9.599501610052357,21.055908274127987 9.590617841164748,21.090757698556814 10.902015046498674,21.36209064661071 10.934367985164682,21.400005587212043 10.432689905163535,22.46642186176742 10.426092614495246,22.485082378328485 9.758404564720514,22.331376453835226 9.732445026942697,22.333969826153595 10.100808319385216,23.736927845321595 10.115706836720165,23.75011681222805 9.578122310497383,24.141825892402093 9.577525204719677,24.161202081970814 10.238659654499315,24.419420729439125 10.239759202941606,24.425969308629107 9.892236358497577,26.530699958397424 9.904433336274634,26.550281752469715 14.690359935385459,25.817944774684847 14.698449990496556,25.81996180791885 16.09920189094246,27.60017109108431 16.094687188719217,27.645421090202404 17.106752354942547,27.45826818008628 17.114842410053644,27.459473531109513 17.60754205805406,28.634305344633873 17.61751809360849,28.658913942986516 20.0095675300543,27.76197444196569 20.016041030495945,27.762391222471894 20.79996081716363,29.997635029717465 20.863203057163446,30.08195853357884 21.9990584456069,29.455564537992004 22.042261233163117,29.44573380648927 23.317628202054586,30.406809747573977 23.325507085610116,30.408599911200696 23.38856728116498,29.6178535107958 23.384948237609752,29.562507791704963 25.112746623385284,28.600089635771116 25.106848383386208,28.5805827566348 26.64660942160972,29.050733234075423 26.659032134496194,29.046645241169433 26.15007955849851,28.157743914903957 26.12615163671999,28.155907960310113 26.421420443829085,25.385888118385452 26.4171241949427,25.37193678794266 25.28096297183056,24.502207267669846 25.26428041894087,24.469250598588957 23.78648730960831,19.237170336308015 23.776270975384797,19.209428019040033 22.032066744274744,16.11990935212653 22.026874836717436,16.11119472825504 23.528690530941642,14.249694162570638 23.533998946944305,14.240197387542691 23.118231281163574,13.52235823921056 23.103857051831255,13.502323114113649 24.690075832273397,12.506324325238355 24.70698412027541,12.452646234242827 22.854987732719565,11.86621936470893 22.850844401164615,11.866445307984948 21.88955507138435,10.445935834671953 21.79010055049712,10.298117159107468 22.774269226053548,7.570408810957277 22.838152262498443,7.485782270981698 22.37572296471899,5.720457045860356 22.317177471387367,5.668431260851328 21.42945594249741,6.0798738001130985 21.355152682054722,6.090719267866923 19.880468891831516,5.206839018307626 19.875706609163718,5.208580906598771 19.929162139829533,6.702260180898709 19.911969862496882,6.75107600769098 20.43236939316539,7.077962300537736 20.436090381609212,7.078595497215982 18.73959635849733,8.171304276295821 18.731251441163295,8.170320757067937 16.356357873164054,7.73347372350673 16.347153706050996,7.729754138640245 14.358900692721182,5.608453962699976 14.333705741609265,5.589385047432559 12.149230662497395,4.9174289935426785 12.120081706053861,4.928050542878744 11.986708664276922,3.9644707750454544 11.965664326498336,3.7973898178765086 8.461498097164258,4.157103060999186 8.435247288274514,4.15377699599904 4.891693922941158,2.5903696753868717 4.8445080029398015,2.5272351424964725 4.964701026939839,3.5683126873698785 4.9838593842750925,3.5920728016424692 6.2033095816090285,4.102799705057812 6.206804834940522,4.1115222180711575 5.41177305538713,4.467922798938351 5.418494136276241,4.481837153502973 6.0895682127184045,4.7459995284834875 6.0871506624969705,4.7660668391135985 4.6489631424976325,4.659813322422095 4.639343914051824,4.671702326198108 3.9042994198300223,6.555629147928092 3.8837356793867004,6.6294257478743095 4.298505741607914,7.681749785342079 4.282274658942879,7.791924009720795 2.5272351424964654,10.632406980403001" stroke="#009edd" fill="none" stroke-width="5px" vector-effect="non-scaling-stroke" stroke-linejoin="round"></polygon>
</svg>