<svg viewBox="0 0 881.3495285156671 979.3723468274832" width="1000" xmlns="http://www.w3.org/2000/svg"><polygon points="8.052550000000338,358.62732381697424 108.61972653339762,412.30396512264997 108.85565613336075,412.4283385638628 90.66868795568735,444.69324583773414 91.26870644451265,446.83709612498205 73.52738306669198,458.01857983959053 69.89435849790607,460.10111383538606 89.18029257781018,486.21829045736376 93.3006137156408,483.97588339829963 92.63185524449364,507.1392837191597 92.49495782223676,508.3327157983804 111.26446822225262,523.2997557782583 116.87434982226841,522.1561333036298 117.51514626676362,546.1211545169135 119.653076222261,552.5892434782945 108.87021968895715,554.6971701612711 108.7452643823126,554.7200390589205 109.74985844453477,587.4468063413879 109.46324767111946,592.8866786684157 69.00976813337911,584.4593884326532 69.80785097784974,602.8156657959116 107.37891160007712,628.1479221894188 108.4100113333916,628.634954861518 113.57250050674338,650.8245321886861 120.90845471117791,646.2717192366035 126.73096422231902,663.3554289325621 126.87077435557876,664.1454789603376 117.93748937777855,671.5042270592894 117.87632244450651,671.5787572618356 120.70573001783487,688.2678748582039 120.75408102220536,689.2019087680164 156.21342608900886,694.706660888718 157.17753346669633,694.8209276504713 157.11927924442716,702.5064639147386 157.0755885778708,706.9576841139715 172.36149648889113,712.2930601668559 172.46926680007164,712.337769438258 151.89970093334705,768.4303269042648 151.95504244449694,768.6140815495528 178.92966004458867,781.5460239108434 180.80544600004941,782.9365070205313 187.7930399556426,804.0160747715636 187.90372297782596,806.1710845810376 198.6224998667385,811.4343778544935 198.85260404446308,811.8067755880547 201.0254865333918,819.5078098581653 201.34297204446193,819.5177400840694 190.0620419111583,829.691005157867 188.21247035565466,830.0881941930056 197.6088764000233,868.160174420489 205.02755159998924,886.8783460426857 227.17871960005868,888.8339519154179 227.2952280444806,889.0424164216747 203.29448848902393,908.1458043940147 199.81962413338624,910.746388512991 201.95755408900004,922.6620041666101 198.8904692888973,926.3293540709201 225.03787693344202,904.2547928360655 225.20972688889742,904.2250144032078 227.41173648890253,948.808435871244 238.33440315558255,961.8035020405441 293.57105666676216,971.0717238121215 294.2176785333795,971.3197968274835 296.26822715564776,960.4092634583722 347.0105674223523,938.174597409532 350.9660291111577,933.5199495419292 435.42882591111265,933.8375407971689 435.6793190667886,933.7581430292703 438.32988617788214,919.2427247068626 438.76679284449347,914.0715150660617 476.5041692711893,881.7817712608739 494.1991805422367,870.7855861128555 506.0999356000466,889.06723361076 507.57085471109167,891.479450127903 550.600335955598,883.4485457562623 567.578529022263,880.1576706982232 568.7797310844544,838.6558718061788 568.8237130222624,835.7083369863467 590.4549620889375,822.1293728843812 592.2433667111691,822.1790233773427 598.9746420889642,747.0838747310117 598.9600785333678,744.9381806674428 581.5741059111679,700.7279360956527 581.7546940000975,700.6385125038578 568.9824557777974,694.0558359499337 567.834847600061,693.3950726489784 578.2536152445027,678.9968618413914 578.8448956000866,678.3708298466881 566.180427688967,689.018083280047 565.9619743556032,688.9534959075172 516.0672330222806,652.7118180738544 512.2719704445699,649.1340102448958 513.33511000008,642.2614633707344 518.1672977334601,633.3561302567614 511.76078964453336,620.7717212704956 511.4272842223072,618.4716363936677 516.1953923111796,584.7278104491779 516.5128778222497,583.6292662783308 547.8041332888897,555.5970096503515 549.3303939112011,555.2142054863871 564.0075452000383,497.5617407852915 566.4775242223186,488.66009427581594 545.4011466222364,434.1378151604222 545.6851359556676,433.82542187881336 527.191750568898,432.3713940452799 525.5987888623276,432.3614451365793 524.9145930222949,418.1394860372893 527.0030068889973,415.3247260126882 593.8462316356381,386.09381964090426 595.5187103556018,384.4862058452345 599.8161243289724,358.73630336990027 600.8416899111835,356.18298187937035 614.2430737333852,341.48845138043544 615.7885582489907,341.8248727128739 611.9944607555881,318.788694436058 612.1901949422681,318.20038856540486 631.3916604000624,313.3584976928323 633.7294023377835,303.87098793555197 663.4894455733956,306.19798440658633 665.7057274578619,304.87645274060924 665.8834028355559,325.6421846054509 665.9643762045089,329.16141538296506 672.1361197777806,331.3865972846761 672.5200151023237,334.0960012330688 683.4895764178145,317.6956984326025 683.0864571999773,316.31302030882944 789.7411999555552,308.52843878031854 789.763919102239,308.6837351011127 855.6369197778185,264.71277470896166 873.2969785156674,252.57431651963998 844.7171658222578,210.5310122578885 843.8870431555915,209.4155297713951 807.233486533376,178.6178570296397 806.9334772889051,178.50828398715385 805.2936209334075,163.7502541518552 805.0314769333709,162.2758872360937 781.1880237777732,154.9686493023546 780.1365350667402,154.7694026425961 791.2427025333527,22.880570248329605 790.9689076889554,22.536648852496 777.6752941778177,13.444952953526808 776.9383782667355,13.469875914954173 711.1664486666923,25.646873600759136 710.7965343555916,25.73659092430171 605.7408700000742,9.267821946741606 598.3941387645682,8.052550000000338 523.9053386222586,85.08100917327829 523.4771700890051,85.37499750892312 453.9067739289967,210.41797033491457 452.91499579555966,212.19277115763543 362.1712287555929,319.75924613085954 355.722486355553,323.9450089538368 317.0300319555463,336.9098815373509 314.6532596889665,336.058853526054 311.8075409333469,316.3249657319175 304.96558253336843,308.0575716556996 278.78234854221955,293.4601564092809 278.3177711200915,293.45916084675264 220.02510111113224,332.79754225593206 217.2999685955947,333.45647761695 120.57960962676589,348.0440893350533 118.89577133346029,348.1620321732262 47.284147226695495,337.7678734671572 46.47790879125387,337.86044082823355 8.052550000000338,358.62732381697424" stroke="#009edd" stroke-width="4.86148411729144px" fill="none" stroke-linejoin="round" vector-effect="non-scaling-stroke"></polygon></svg>