<svg width="212.63527310220525" height="195.07386846188456" xmlns="http://www.w3.org/2000/svg"><polygon points="5,12.595325116650201 5.973136782180518,15.817326822783798 5.814976568799466,15.986477217054926 6.321788302157074,17.723080360563472 6.594709333381616,18.61663623806089 7.275118648889475,20.91974726540502 7.446677333326079,21.452445361413993 7.866399004473351,22.84034107683692 8.648461937671527,25.193473992403597 12.726548764389008,39.072699087439105 13.543564231134951,41.59253276011441 13.698811733280309,42.22395243291976 14.581654471112415,44.864619942731224 16.93366869329475,48.06494894181378 15.838198044337332,48.181307258899324 15.281287679914385,48.38155165943317 15.064873244380578,48.45957476575859 14.79923399107065,48.59307088330388 12.009148017852567,49.99252020759741 10.87552085320931,50.63699450175045 9.747719111153856,51.2891338057816 10.239967288915068,52.00486121739959 11.563794488902204,54.584978200960904 14.254557013278827,58.482380858506076 15.85800448001828,60.55281957105035 17.32804977777414,62.40767427964602 20.414649742189795,66.03886871226132 22.64724280894734,68.85737720725592 25.230235022259876,71.91710889071692 26.150943004409783,72.9583549022791 27.87119018670637,74.773872031481 29.004526079981588,75.79661572724581 30.29573091561906,77.396559671266 32.2679276089184,79.34190978575498 34.94762183108833,82.82987829379272 37.24749852437526,86.22490111039951 38.133253973326646,88.71307800355135 39.00764984881971,91.12772785022389 39.53310293331742,93.86745511717163 39.55494826671202,94.08253758505452 39.52203463111073,96.58099577843677 38.83317845326383,99.87345203291625 38.17344938660972,101.38123796065338 37.83907015109435,102.32855866849422 36.710394595516846,105.6682710374007 35.13199644442648,108.47589849075302 34.50488974223845,109.9944460587576 34.09652764443308,110.65272052789805 33.16416881780606,112.03103263722733 29.754549191100523,114.85931810783222 27.24932636448648,117.61047030478949 23.682129066670313,122.78310176887317 22.232472746632993,126.46063170064008 21.18651818658691,130.20797873672564 19.70773475547321,133.9890733602806 17.831948799896054,137.63170194148552 15.832663893233985,140.7882970853243 14.677773937699385,142.87102985329693 15.51139185775537,143.59367037483025 14.758164764381945,147.2812186302035 16.146362879895605,147.50481368845794 17.80660821334459,147.58505540760234 19.321800533332862,147.54358216316905 20.69019221328199,147.12614450388355 22.150043022236787,146.52748521702597 23.40192625776399,145.59613400168018 24.414384639938362,144.5606435063528 25.355772871058434,143.27179585245904 26.279102293308824,141.3684889213182 27.81206215103157,138.33677798853023 27.9696398221422,137.9887484080391 28.758693262119778,136.5024034078233 30.52700017776806,136.63539495522855 29.649109048885293,140.03679534804542 29.70969344000332,143.67977398331277 30.301556337741204,145.41355984727852 30.59632270212751,146.46797983685974 31.224885759991594,149.05103938630782 31.846458311076276,151.37396373820957 32.18870186666027,152.7339877532213 32.77328298659995,154.7178856394603 33.473498737672344,156.6368535857764 33.64593123551458,157.51000772742555 33.96953343995847,158.9101123564178 34.12303331552539,159.38207091134973 34.28585386660416,160.07220140571008 35.3527799466392,159.9595087892376 35.08015018666629,159.32392134494148 35.65541063109413,159.30543969664723 39.16784895991441,159.03632868861314 42.17609699559398,158.9434695369564 43.488855893258005,159.0818567048991 44.5988900976954,159.07779975334415 46.39282887103036,158.561664746725 48.94611143111251,159.07825052575208 53.06089841783978,159.90992401959375 58.07687822217122,160.95030028367182 59.2795366399223,161.2036320560146 61.28202552883886,161.60797059373 62.13894513773266,160.94939874653937 63.54025045328308,161.92125356197357 65.38021006213967,162.96162025659578 65.4742906311294,163.01390891999472 67.56911246222444,163.56834828818683 68.99255438218825,163.96096263296204 69.30712718213908,164.03669069183525 72.48372991988435,165.0752442816738 75.67431367107201,166.14444447378628 77.84253582218662,166.92786018300103 78.86285852442961,167.28350654925453 81.90780672000255,168.4072370842332 83.41018311108928,169.00358271214645 84.85896561772097,169.5796429309994 87.63594439113513,170.76105745858513 88.82899086212274,171.27851591299986 92.58784455107525,172.59559540927876 92.84095914673526,172.61046997841913 98.69579975109082,173.436232350301 102.934668231057,173.7783458692138 105.19289315561764,174.1682374351658 105.18532010668423,174.20069080591202 106.15379655116703,174.43687908077845 106.61575253331102,174.5193646204425 106.54176967113744,174.40127055946505 106.5516728888033,174.3958616697346 106.6370153244352,174.22548157192068 110.58373887999915,174.3142775653978 110.85665991110727,174.34988610085566 112.11990271997638,174.31833423417993 113.95112419547513,173.70352266833652 114.64464071113616,173.50609747343697 115.30466104880907,173.31588398915483 115.9646813867148,173.14189710270148 117.00015018659178,173.03146493982058 117.87250716448762,172.91337007516995 120.53676401777193,172.95934594608843 121.42018929775804,172.95889520226046 121.55854307557456,172.95754297089297 123.87181823991705,172.8412510426715 125.36778666661121,172.2313935221173 126.24101745779626,171.88206564704888 128.02447047107853,171.24200538278092 127.92136049771216,170.50413076754194 128.3367131021805,169.30964306439273 127.67552767996676,167.87084015656728 126.41490631108172,165.077047321829 125.51021823997144,162.97829853848089 125.53381119994447,162.758776185452 125.859452302102,159.62638907547807 125.67158243560698,157.35449007921852 123.39646378660109,157.45501309342217 123.23975992889609,157.4644793838379 123.26859576895367,156.81445982167497 124.01250218669884,156.5998898332473 123.97230677329935,156.12476982397493 123.63122830213979,155.74836946313735 123.62482033774722,154.7584559606621 123.81851562659722,153.6788320725318 123.59860593779013,152.8543474425678 123.7730773332296,152.16239102068357 123.7022984533105,151.72512752725743 125.42138055106625,151.64984599227319 125.20001450669952,149.4905621879734 125.18894620449282,149.01903307595057 124.89068458671682,147.42547353263944 124.95185151998885,146.53785357699962 125.14816824882291,144.7919049783377 125.1435079111252,144.63637828431092 125.02408675546758,143.69419971539173 124.80242943996564,141.80396989395376 124.59504440892488,140.31629839539528 124.89621873782016,139.90515830519143 126.01440853334498,138.87009167240467 126.31150506669655,138.52566945902072 126.38286648888607,137.4594899272779 127.46610375109594,135.82121492509032 127.89835008000955,134.13063208945096 127.93883676442783,132.63208853534888 127.9819448889466,130.38876226212597 128.19253390224185,129.85542789066676 128.3026343822712,129.2035229105968 128.4404056177009,128.2112350432435 128.83711687114555,126.58280921092955 129.2192645688774,124.0864972275449 129.3415984355379,124.00128759234212 128.7532307910733,122.75740347529063 128.51351466670167,122.2186403076048 127.88029127113987,121.01757688558428 127.75970503105782,120.80161921161925 127.0886163910618,119.5383301730617 124.93379271111917,115.54237534990534 124.06609607103746,113.91475688741775 123.70084209775086,113.32096619356889 123.65307363553438,113.26235350908246 123.70491989329457,113.03872343042167 123.9146350933006,111.86285828519613 124.16075918218121,110.98185701924376 124.57494670222513,110.34522544039646 125.39312725327909,110.09363822895102 126.30451456003357,110.1729919326026 127.170463573304,109.39748859364772 127.82553230214398,109.19504569948185 128.59186659555417,109.30956798337866 128.8272136533633,109.23021396622062 129.31451022217516,108.39068277133629 129.70044444443192,108.05297570466064 130.1795854222728,107.89381585165393 132.1838219377678,107.45736557501368 133.48522126220632,106.86761526338523 133.76979313767515,106.81080436956836 133.81727032887284,106.70980718848296 134.06368568888865,106.35000435181428 134.1892235376872,105.85764161567204 134.82128184882458,105.20701772801112 135.01672476436943,105.21062479581451 135.54217784886714,105.54743448738009 136.1290891377721,105.61641954083461 136.5881324087968,105.08708269050112 137.3142712888075,105.98929915926419 138.20905614225194,107.88795443845447 138.63897230220027,108.7013367417967 139.93338111997582,111.19872613518964 141.71537777769845,114.04460611811373 142.08325319108553,114.47788719448727 143.63834965333808,113.29346332047135 143.8509775644634,113.5202492030221 144.63449685333762,114.00267564581009 145.62015829328448,114.49862695392221 145.9149246577872,114.706475303974 147.72837859555148,112.148258650559 149.92980565328617,112.25556548452005 150.0122353777988,112.17891775129829 150.2254458310781,112.24970418831799 150.3035064887954,112.352051416412 150.2740881065838,112.60634123836644 150.45904526219238,112.78894278977532 150.71157731558196,112.81599485850893 150.6798287644051,113.9905022814055 150.70021774224006,114.76373500993941 150.84963982214686,115.0139642576687 151.17032931547146,115.15553527290467 151.33810147549957,114.92920195002807 152.0991928888252,114.45985261944588 152.78367999999318,114.14424731582403 152.93164572445676,114.14650164102204 154.09469127107877,115.017571163713 154.73723534215242,115.53425983083434 154.9973404444754,115.87466051056981 154.99238883552607,116.33408787252847 155.07248839107342,116.84310881746933 155.66901162662543,117.93193174910266 155.74386830220465,118.41434845747426 155.60988359106705,119.41209103853907 155.71881898667198,119.66637264925521 155.3736627199687,120.00947201345116 155.56153258658014,120.31740436144173 156.0325179733336,120.54733892122749 156.0587323732907,120.98646817327244 155.71794517326634,121.27861938416027 155.59036842663772,121.77500503725605 155.85134734224994,121.83632053481415 155.73979050666094,122.03739917778876 156.05028551106807,122.51439665432554 155.6270685866475,122.92466775345383 155.68357518222183,123.65413688332774 156.4493269333616,123.76188891561469 156.4804929421516,124.02969080768526 156.61243875557557,124.1351884327014 156.58622435550205,124.65501145704184 156.94361400883645,125.2604932654067 157.14459107548464,125.38267144630663 157.27071146667004,125.86552255612332 157.59926527994685,126.48993627575692 157.34149034670554,127.58186702884268 157.23808910220396,128.38210183480987 157.31906247115694,128.5858794695814 157.06740423105657,129.07142851117533 157.18566030217335,129.3094688729616 157.08371541334782,129.47898230602732 157.01817941328045,130.06190914579201 157.53926343109924,130.36531902040588 157.58208028436638,130.36892567318864 157.9249063822208,130.28191515925573 158.1226794666145,130.75754215719644 158.65949212445412,130.54610241565388 159.82399402663577,130.6524985585129 160.12371199997142,130.61327625764534 160.40362353774253,131.27644777769456 160.73275989328977,131.57805265067145 160.6704278754769,131.91076426999643 160.495373937767,132.12896511133295 160.48547071998473,132.5482347117504 160.22944341332186,133.29931136220694 159.444467768888,134.44350360531826 158.41482439101674,134.00169643538538 157.7795620977413,135.27617244666908 157.47197980445344,135.73285411926918 157.6047994310502,135.85953465121565 157.79587327991612,136.23055941669736 158.1786035200348,136.3766248867032 158.2150124089094,136.96404151723254 157.64091704878956,140.02191856282298 157.92053731554188,140.22433291602647 157.99772415996995,140.3893297779141 158.17772970662918,140.49031140247826 159.29125916445628,140.39834599633468 159.26824874663725,141.18906690180302 159.56942307553254,141.67729280609637 158.96969585772604,142.5563671705313 157.5185831822455,143.6382999981288 157.60625578672625,144.04853146214737 157.51829191099387,144.23922121035866 157.48013539554086,144.24327843717765 156.8862335999729,144.46822900965344 157.02808263106272,145.36081617424497 157.6240233243443,144.92398988083005 157.66538382216822,144.91767865855945 157.6939283910906,145.18770864536054 157.47168853331823,145.67367162113078 157.72625948442146,146.09111205337103 157.7684937955346,146.47970059490763 157.9808304355247,146.5576886992203 158.41977599996608,146.4693322320236 158.7183288888773,146.79345603624824 158.83512860443443,147.19962440885138 158.7340575287817,147.42592432908714 158.7591068444308,147.53907420142787 158.91668451554142,147.67160824028542 159.21494613331743,148.0128604809288 159.2924242488807,148.31534385797568 159.09639879106544,148.50873465032782 159.1240695466986,148.726918928558 159.44767175102606,149.01272197195794 159.64078449783847,149.03661400754936 159.854868764407,149.18357250874396 159.96700814226642,148.92616967018694 160.20963697775733,148.8864998538047 160.44964437338058,148.75351575750392 160.7860625066096,148.7607284563128 160.98121415113565,148.68454431300052 161.1620935110841,148.83646177954506 161.17811342224013,149.22865178383654 160.89674552879296,149.53068268683273 160.86907477327622,149.75427544495324 160.63867932441644,149.75517702818615 160.60489187552594,149.78718323080102 160.85480248881504,150.16584780695848 160.80703402659856,150.25375198986148 160.14002318226267,150.20281264721416 159.9999217777513,150.1257274246309 159.96380416001193,150.31731345388107 160.1604121599812,150.53098802734166 160.02671871997882,150.85330265352968 160.0337092266418,150.8961276379996 160.89907569775824,150.89387369167525 160.9978166044457,151.4524008851149 160.89266773324925,151.85495430522133 161.00160312885419,152.3499181891093 160.75460522656795,152.4801953821443 160.52013198216446,152.7321846112609 160.41876963549294,152.88049298420083 160.88130815990735,153.2456286714878 161.08927573333494,153.48905212420505 161.44637411553413,153.74284332437674 161.38112938671838,154.07822591497097 161.0027682132786,154.03495077090338 160.9095614576945,154.1224026157288 161.12714097776916,154.41090329911094 161.0540319288848,154.8558247005567 160.71761379553936,154.72825361113064 160.47498496004846,154.74132627039216 160.19711231987458,155.45536274590995 160.32614542217925,155.60412005137186 160.96927203552332,155.66181982751004 161.12218936881982,156.0778888562927 161.56608654221054,155.91110071667936 161.6135637332918,155.67263853386976 161.83143452450167,155.69112048932584 161.92347619554494,155.85340100631583 161.61443754669745,156.34024183469592 161.21714375109877,156.3992937502917 161.3409339733189,156.64271369227208 161.84541553782765,156.7824546477059 161.80376376886852,156.97313329111785 161.45103445334826,156.97133018414024 161.16442367993295,157.25036080938298 161.18364757334348,157.29183221282437 162.0085273599252,157.53480038570706 162.0149353244342,157.59475352964364 161.61968042666558,157.68265472608618 161.58822314662393,157.72322449705098 161.68929422227666,158.03966845292598 162.13726919109467,158.17444999865256 162.29047779552639,158.41065558430273 161.95027313777246,158.69509365124395 161.7475484444294,158.561664746725 161.5052108799573,158.74738333479036 161.3074377955636,158.72980318393093 161.3257878755685,159.14631714730058 161.62346695107408,158.98989911773242 161.8736688354984,159.10394455096684 161.54948408878408,159.57139497378375 161.16791893332265,160.40171428292524 161.04529379552696,160.45174971071538 161.0240310044028,160.47924665245228 161.09451861330308,160.99041868001223 160.77703310211655,160.92731108691078 160.81315071997233,160.67397899430944 160.46624682669062,160.6591036132304 160.29730958212167,161.19641976768617 160.6363491555676,161.8351571363164 160.39692430221476,162.00870225287508 160.644504746655,162.2183085087454 160.40682751999702,162.62580052565318 160.74528455117252,162.62264517013682 160.94393144885544,162.67448314954527 160.83353969780728,162.96883248677477 160.85771519993432,162.9967798764119 161.31384575995617,163.06033763638698 161.1923857065849,163.3988612809335 160.7671298844507,163.50749525555875 160.80703402659856,164.41983820672613 160.93373695993796,164.67136291618226 160.651495253318,164.94812991446815 160.64945635548793,165.02611143223476 160.88189070217777,165.12167256046087 161.11141233774833,165.0630737603642 161.24597959115636,165.0919224023819 161.22005646221805,165.89923207554966 161.02373973326758,165.97270567226224 160.89616298663896,165.54358345788205 160.6369316977216,165.3114424131345 160.60547441767994,165.33307887043338 160.62003797327634,165.81764480116544 160.49071359995287,166.13407704338897 160.31624220439699,166.0682663868647 160.24662840890232,166.2183687458746 160.5108113066526,166.454565642518 160.72198286221828,167.32227151747793 160.763634631061,167.35202137217857 160.89558044436853,167.35788119153585 160.96257279987913,167.39213859394658 160.66489372437354,167.68828459951328 160.57605603546835,167.92402915435378 160.2681824711617,167.9884869902744 160.3206112710759,167.80052247853018 160.05788472888526,167.45569507649634 159.9102102755569,167.43586184992455 159.68884423107374,167.76806815795135 159.9032197688939,167.85686677356716 159.92739527102094,167.94836987776216 159.71447608887684,168.18095887685195 159.51320775109343,168.13903878483688 159.1278560711071,168.55643633194268 158.89076138671953,168.6272045194637 159.35359118226916,169.08652105322108 159.4596138666384,169.0509116606554 159.60932721779682,168.7259193417267 159.74535082664806,168.7218625691021 160.0674966755323,168.79849048389588 160.0523505777819,168.9174890749855 159.8289456354687,169.03874136059312 159.97662008879706,169.7383071378572 159.64544483553618,169.69278134021442 159.42349624889903,169.37590349651873 159.33174584887456,169.36057795619126 159.1360116621945,169.48633750563022 158.9947451732587,169.47146272397367 158.67900728888344,169.61660448950715 159.03464931552298,170.133614902501 159.17911978671327,170.1381223985809 159.28368611552287,169.97314798273146 159.64777500438504,170.07276369683677 159.88574350217823,170.3891897816793 159.83477105782367,170.77863664214965 159.30902670219075,170.47573358839145 159.1945571555989,170.53252794290893 159.0279500799952,170.8539115919266 159.04367871989962,171.3262951162178 159.13426403549965,171.4277132016723 159.47242979553994,171.58547457441455 159.6640861866763,171.9000954864896 159.70835939550307,171.8991939945845 159.77564302214887,171.6571432746714 159.62301695998758,171.1924231714802 159.63932814227883,171.1554618793307 160.160703431,171.36055189702893 160.1604121599812,171.6210835542297 160.53440426662564,171.90325070824474 160.830626986688,171.9532835042337 160.85072469327133,172.41439603129402 161.0429636266781,172.81781235191738 161.18277375993785,172.85837931500282 161.58618424891029,173.16488501534332 161.21568739553913,173.247821778059 161.2072405333165,173.41008926625364 160.82596664887387,173.70938231761102 160.93315441766754,173.88336875254754 161.2148135821335,173.97622156015132 162.12445326219313,173.96089634217788 162.27387534221634,174.06141172267962 162.17629951995332,174.39991833700333 162.19202815997414,174.65188230760396 161.7656072532991,174.88942231459077 161.9336706844624,175.1364275891101 161.9709533866262,175.3559375166078 161.8259003732819,175.64531166350935 162.10726826661266,175.89952788787195 161.6691965154605,176.33899672754342 161.4192859021714,176.33178493834566 161.01238015992567,175.94820755667752 160.79101411544252,176.16366003488656 161.09801386669278,176.64234239596408 161.68259498663247,176.95380088378442 162.00561464880593,176.9420817591017 162.04435370664578,177.30176845251117 161.68842040887102,177.60240838024765 161.81162808882073,177.7263602540479 162.35164472891483,177.78315272548934 162.5106787555851,177.9873350605485 162.2799920354737,178.36865520227002 162.31465329776984,178.58455602789763 162.48009528883267,178.76800395228202 162.50019299553242,178.86986931809224 162.0341592177283,179.0483589596115 161.98988600890152,179.3287136075087 161.46326783997938,179.09072769153863 161.4309367466485,179.12363106268458 161.31209813326132,179.41074657154968 161.66686634661164,180.06114969728515 162.3731987910578,180.168873936811 162.79088156449143,180.4023513951106 162.55990357336123,180.81431680428796 162.1454247821821,180.87967229564674 162.1308612265857,180.91618121683132 162.1789209599374,181.0378775766585 162.33882879989687,181.08971119089983 162.65514922665898,181.43857363122515 162.94729415106121,181.19112474832218 163.706637937692,180.67594338895287 163.87644899555016,180.75662366457982 163.88285695994273,181.13343170809094 163.59945016889833,181.31146877555875 163.59653745766263,181.36104869254632 163.71712369774468,181.5079854715732 164.05791089776903,181.5665798651171 164.13276757334825,182.17866497591604 163.7479984355159,183.03098387795035 163.81178680888843,183.6637980900705 163.36089912883472,183.37218094203854 163.1406981688924,183.92025859898422 163.69819107546937,184.25334130669944 163.8103304533288,184.59002926549874 163.98363676446024,184.6274390066974 164.36811463115737,185.15432974230498 164.32413269334938,185.94579025777057 164.14791367109865,186.02917289023753 163.62537329772022,185.81688515277347 163.57760483550373,185.95255101303337 163.68624895997345,186.19143089465797 163.41449301328976,186.410028293496 163.42905656888615,186.52496085886378 163.57440085336566,186.61870973021723 163.74712462211028,186.58806106518023 163.7928541866131,187.11359493306372 163.71945386670996,187.25782356096897 163.75207623105962,187.56295693852007 163.88256568880752,187.70808669686085 163.84528298664372,187.88161128154024 164.18752654222772,187.85321635892615 164.18286620441359,188.2034201468341 164.36461937776767,188.3967756658094 164.749971057754,188.42562122980598 165.07939868443646,189.36355069675483 165.21629610669333,189.56096157617867 165.58125880884472,189.58079279621597 165.8751513599418,189.41493162768893 166.2173949155258,189.56862363865366 167.37315868446603,189.84626054600812 167.6705464888364,190.07386846188456 168.51756288006436,189.9233317677863 169.05670570663642,189.25853524764534 169.8938188799657,188.90427675109822 170.11518492444884,188.7839369022986 170.2774229333736,188.70731599017745 170.73734001768753,188.2899569037836 172.11942143994384,188.04251577332616 172.4200132266851,187.60307045280933 173.48198769777082,187.00136696605477 173.92588487104513,186.76789655315224 174.69396679115016,186.49927005532663 175.18971022218466,186.19458591018338 175.74836821330246,186.29509566770867 176.1788669155212,186.12472484074533 176.66470712888986,186.19458591018338 177.75289600004908,185.99131267191842 178.17640419548843,186.025567155506 180.17831054225098,185.78713781002443 180.30443093331996,185.7902928313706 182.25478229334112,185.47569190291688 188.25584099558182,186.3469280358404 188.3554557155585,186.337462995667 188.4492450132966,186.3487309005577 189.0192625777563,185.6365981650306 188.82061567995697,184.23486176511506 188.50662542227656,183.55021618679166 188.41429247998167,182.66589792259037 188.29399751103483,182.2516823783517 189.54296803555917,180.81116171111353 190.15988024882972,180.64394170721062 190.60465123550966,180.10982843971578 191.49448448000476,179.44680500758113 192.1480968532851,178.74096004187595 192.38985187548678,178.3700074001681 192.6170433422085,177.6335090388311 193.04987221339252,177.30807874014135 193.76610787550453,176.56481575703947 193.93446257780306,175.91350075689843 194.4572942222003,175.56823540950427 195.16683064890094,174.5297316533397 195.3480012799846,174.52342128555756 195.49101539549883,173.22663684701547 195.76364515558816,173.24015914369375 195.95792298659217,172.82908095343737 196.03277966217138,172.3995214488823 196.4798808178166,171.53228646720527 196.88037859555334,170.59968950191978 196.83756174216978,170.2841652202187 196.96339086221997,169.88750547741074 197.28786687995307,169.81989294942468 197.32485831109807,169.5435828679474 197.1620377600193,169.3551689417218 197.2001942754723,169.0910285707796 197.3557330488693,168.95490149734542 197.32806229335256,168.69526816881262 197.80895089777187,168.8945007158327 197.71865685330704,168.45456616173033 197.53282588440925,168.27561711962335 197.68224796443246,168.09216039284365 197.94643086218275,167.66214082826627 198.2717806933215,167.7779847563943 198.38974549330305,167.48364189267159 198.3014903466683,167.2158932161983 198.43430997326504,166.77279998920858 198.41450353781693,166.32294450246263 198.1232324265875,166.24135738628684 197.93594510224648,165.80051597731654 198.11303793778643,164.8805158593459 198.38275498664007,164.7344694287167 198.49139911110979,164.28145441698143 198.09119260439184,164.1444228256587 198.57703281776048,163.6905050657224 198.44275683548767,163.46512350416742 198.51557461323682,163.15770267974585 198.09993073774967,163.05718228704063 198.05973532435019,162.71189664013218 198.72878506663255,162.25166518468177 198.52780799998436,161.98210703610675 198.44945607113186,161.24735654937103 198.78004878223874,161.05938624299597 198.9658797510201,160.76323125971248 199.38822286215145,160.77450048254104 199.58279196440708,160.5360436034971 200.04649557324592,160.2984880040167 199.8740630755201,160.14612773049157 200.32378567103297,159.82517911453033 200.10620615107473,159.55020871775923 200.03717489773408,159.7102325153537 199.84988757327665,159.55697028903523 199.96057059557643,159.105296868016 199.65648355556186,158.98043289338239 199.70745599991642,158.41516332200263 199.5018185955705,158.21051193668973 199.79105080885347,157.6402818460483 199.60755000880454,157.16245943924878 199.68357176880818,156.67697277350817 199.77677852439228,156.4119155317312 200.06746709323488,156.1116972474847 200.15222698659636,155.85835957573727 200.32757219555788,155.81959257519338 200.3357277866453,155.60141537408344 200.53175324434415,155.50314540654654 200.7088460800005,155.69517750362866 200.94273678225,155.72222426440567 201.36129336885642,155.50134228740353 201.2823588977335,155.1199822674971 201.6327580444049,155.1691173427971 201.74635377770755,154.84094892360736 201.9601467733737,154.8720528196427 202.04024632880464,154.5785941464128 202.36035327997524,154.5533503710758 202.37083903991152,154.19813408196205 202.42355911107734,153.88889709638897 202.4221027555177,153.457948031486 203.5318456889363,153.5039279931225 205.34384327102453,153.08289543434512 205.44986595551018,152.7375940369675 204.18458424892742,152.37516221869737 203.9821508267196,151.70213736069854 203.700200391002,151.1201697885408 203.39232682669535,151.2856092172442 202.67813006218057,151.15082342515234 201.4760541865835,149.7578817778849 201.35255523549858,149.37470857112203 200.59204636432696,148.31354067963548 200.45077987550758,146.84574856603285 200.32611583999824,145.78411760134622 200.53262705774978,142.47251715278253 200.43825521774124,139.81770077394322 201.07293496886268,139.39889592584223 202.0673345422838,139.51385320303962 202.58171932434198,138.8020187386428 203.03522844449617,138.20288584503578 201.0545848888578,137.86342155816965 200.227666204446,136.40141994145233 198.14012615103275,135.88748550601304 198.15614606218878,135.73826396558434 194.07718542218208,134.4227657376905 191.62206122663338,133.6099299430498 191.3619561244268,133.80198126862524 190.68999367102515,133.68747181311483 188.53895651560742,134.56387336313492 187.86961550218984,134.37903587997425 186.51462229329627,134.14641092310194 185.2898272711318,134.2857154327794 184.3554295465583,134.62653774267528 183.52006399992388,135.45965670817532 182.59556949324906,135.8167067215545 182.10448639991228,136.38203471712768 181.46689393778797,136.29277249920415 181.48407893325202,136.18728074012324 181.38329912885092,136.1710512342397 181.32096711103804,135.94023146422114 181.03377379546873,135.89469862927217 181.04833735106513,135.80092800862622 180.78561080887448,135.77523124491563 180.79114495997783,135.60391941003036 179.8771362133557,134.99260555789806 179.4935321599478,134.52375011797994 178.76826709334273,134.43448714131955 178.51078343112022,133.99313077738043 178.22795918222982,133.88853955746163 178.0453321954701,133.8033337421948 176.81005141325295,133.3470988648478 176.58519011549652,133.1545963138342 175.59166435559746,133.11672693956643 175.455932017765,132.8439770861296 174.71726847987156,132.80295187211595 173.5440284444485,132.66680220561102 172.99148714670446,132.25835269741947 171.99359231989365,131.0546394442208 171.9764073244296,130.52987249102443 172.25311487994622,129.99473513429984 172.370788408909,129.35455224569887 172.45292686217,128.67379232868552 172.09408085327595,128.57100190536585 172.08243000891525,128.236481859989 172.23855132446624,127.30370021588169 172.4156441600062,126.88712559116539 172.4602086399682,126.57559578050859 172.43312042660546,125.12028132053092 172.53419150214177,125.11983047798276 172.5382692978019,124.4584436591249 172.6064267377369,123.20734860131051 172.58079487993382,121.57978719915263 172.4162267021602,119.72408190980786 172.29971825773828,119.08341809292324 172.16340337775182,116.886391323118 172.2673871644074,114.95039253006689 173.16537599998992,110.26181394176092 173.68179967999458,107.49163236375898 174.9639751110226,105.15200993703911 176.03963932441548,103.26189775986131 176.25314104883,102.7073054468492 177.12549802672584,100.50785963993985 177.67541788436938,99.87345203291625 178.53058986656833,99.2606855815975 178.48835555557162,98.15012655418832 178.38466304005124,97.04812899132958 178.29844679113012,96.27483360422775 178.14232547557913,95.53805866162293 178.01212728885002,95.10113281360827 177.8851330843754,94.75123078236356 177.68532110215165,94.15017353754956 177.39404999103863,93.37326063663932 176.7774290489033,91.98220539407339 176.44771015108563,91.20438296417706 175.77400007110555,89.75198944180738 175.5182640355779,88.33340514358133 175.98575416882522,88.56788252212573 176.63441493327264,88.94304580462631 177.3966714310227,89.04495302739087 178.64302051556297,89.17887527891435 180.0192765155807,87.65522300254088 181.50708935107104,86.4133866870543 181.98885176877957,85.92233181872871 182.816644266597,85.01146495493595 183.76444046222605,83.91616507188883 184.2843593956204,83.42510459409095 184.73408199113328,83.15274367004167 185.70197589334566,82.82085970102344 186.53530254226644,82.64184055750957 187.49678847996984,82.80778274085606 188.54856846225448,82.87722589971963 189.30732970661484,82.5926891801646 190.0547313777497,82.50746337109013 191.64245020435192,81.96048423973843 192.38023992883973,80.80113647808321 192.64238392887637,80.44715314754285 192.95579164440278,79.9398511966574 194.13194439106155,80.50893117132364 194.8522578488337,80.38086575944908 195.34654492442496,79.87536739767529 195.70335203548893,79.01362753129797 195.77879125333857,78.0711661222158 195.61451434670016,76.46897240180988 195.91277596447617,75.59414171578828 196.16589055990335,75.21489701617975 196.85736817773432,75.49583578074817 197.83225258660968,76.04914429818746 198.06497820443474,76.97898805746809 198.79228216886986,77.44345751323272 199.43278734222986,77.99585922190454 201.04875946661923,79.71573609323241 201.91441720887087,80.5607886230573 202.22607729770243,80.10218794899993 203.28018744883593,79.08442470757291 203.42960952885915,78.60913621855434 203.47446527995635,78.20374227897264 203.42553173331544,77.49802133598132 203.25135160889477,76.96410698094405 203.387375217746,75.94497629802208 203.9192362666363,76.13617639883887 204.62964650662616,76.19028960447758 205.66802801773883,76.73187186720315 206.68805944884662,77.28607913828455 207.63527310220525,77.63916570681613 206.9781654755352,74.3801956034149 206.76815900439397,73.26364783372264 206.65485454211012,72.7558782621054 205.73793308448512,68.12050985475071 205.56346168892924,67.30336885806173 205.11490417772438,65.61766768153757 204.83499263995327,64.72610779083334 204.2026430577971,62.74815769144334 203.82049535994884,61.66221669316292 203.4432992710499,60.85677690349985 202.6003606755985,58.57979248568881 202.33093489776365,57.89655724092154 201.293135928805,55.20643863896839 200.2396083199419,52.55552324524615 199.7665840354748,51.3062716035638 199.5766752710333,50.64330844627693 199.30608440889046,48.92365382326534 198.87412935099564,47.71091259631794 198.45557276438922,47.16700341197429 197.91759502212517,46.217188605922274 196.92960341332946,44.09113993647043 196.2081248711329,43.9648572265869 195.29324231098872,43.52737727452768 194.95944561774377,44.05325513117714 194.18320810655132,44.04513695766218 191.56817607104313,43.87285120622255 191.01243079116102,43.60765716637252 190.77213212440256,43.52873030665796 189.9874477511039,43.24865247728303 188.6208036977332,42.50944372912636 187.77990399999544,41.72422901389655 187.12396145774983,41.19518844521372 187.04036664881278,41.03552889166167 186.09373553772457,40.27015364950057 184.77806392882485,39.354135325644165 182.90111288882326,37.890121703152545 180.22433137777261,35.395051860949025 179.25090332445689,34.45285340049304 178.8943874844117,34.118640333239455 178.08407125330996,33.382557929260656 177.68095203558914,32.98384559212718 177.5155100444099,32.58603459422011 177.4517216711538,30.643425590824336 178.07212913769763,29.54244077729527 178.33223424002063,27.96695388649823 178.44408234662842,27.062160117726307 178.62379662215244,25.826745229423977 178.69923584000207,25.47853648569435 178.88739697774872,25.475830197974574 178.89846527995542,25.29947037436068 178.7152557511581,25.25346344045829 179.03448888892308,23.852502560592256 179.3152742399834,22.73253928788472 179.44430734228808,19.894040416227654 179.2028435911052,19.860210952698253 179.03011982212774,20.748796458123252 178.79127751104534,20.748345400439575 178.7938989510294,20.98469951597508 178.98089500435162,21.0140182338655 178.70127473783214,22.489421250589658 177.01190229330678,22.31351007183548 175.40233813330997,22.304940036381595 174.19531064887997,22.35410497180419 172.15233507554512,22.23863501427695 171.91524039104115,23.5277453759918 171.58231751108542,23.920611297828145 171.8797053155722,25.140250257914886 171.8016446577385,25.819528473424725 171.75533255108166,26.459112539654598 171.655135288951,28.845583533053286 171.57154048001394,29.101323634153232 170.71986375108827,28.880313687841408 170.28412216878496,29.001643665658776 170.04032824886963,29.18025570368627 169.79507797339465,29.39314662909601 168.71795740444213,30.63124758354388 167.99997411551885,31.479647138970904 166.06942919106223,33.91702977416571 164.05499818664975,35.65123532601865 160.69139939558227,38.90627267991658 160.23963790223934,39.31715173809789 159.1240695466986,40.39373239094857 158.60531569772866,40.70989520341391 158.51618673780467,40.787019015522674 158.45822378667071,40.86324076796882 158.37317262217402,41.0440981927095 158.5135652977042,42.236129794386216 158.55346943996847,43.41642861138098 158.52317724446766,44.24854221200803 158.46317539550364,44.59175996144768 158.11365006212145,45.57270128047094 158.03646321769338,46.02190328395227 157.88296334224287,45.93034913530573 157.73004600882996,45.83879494818393 157.1655625954736,45.28946902055759 153.95371605327819,41.66649915894959 150.89420430222526,38.43676009925548 150.30467157333624,37.89553397113923 148.90132735995576,37.076475881855 145.9562851554947,35.191187339718454 144.85062001773622,34.760906288051046 142.96726101334207,34.0559471368324 142.82861596439034,32.7123238783679 142.62268728890922,32.60407592501724 142.22422840888612,31.95594018290285 140.88146858662367,31.93834983324632 140.402618879918,31.338021923787892 139.7577446399955,28.80453879770357 139.5896812088322,28.43288062256761 138.9008250311017,26.83483347739093 138.55217351112515,26.54751752433367 137.51612216886133,25.76314755983185 136.9525125689106,25.354047214786988 136.54152903112117,25.28593892417848 135.88820792885963,25.216928515408654 135.83286641770974,25.17047051549889 134.81953422212973,23.81326109310612 135.06158051558305,23.019860255881213 131.33010631112847,21.03070734848734 130.30191928881686,20.588219852535985 129.37829859554768,20.23504111659713 128.35360682662576,19.82096876844298 127.40755825780798,19.300445335451514 126.45160647109151,18.753759078099392 126.08576995553449,18.56070452858694 124.91398627543822,17.903956933529116 123.60617898660712,17.195785955758765 122.3242948265979,16.707281963084824 120.54521087999456,16.130367716075853 117.42453219543677,15.156060291803442 115.87613496882841,14.581848372938111 114.89484259556048,15.48714487592224 112.06718264881056,15.214699287433177 110.88695210660808,14.90301029192051 110.93268167111091,14.343683049548417 109.26777599996421,12.999938606633805 108.62144540436566,11.856914843607228 108.23609372437932,10.388206237228587 107.9596774399979,9.263663154270034 108.3505632710876,8.437280433543492 98.33870136889163,8.960987312952057 96.31990129768383,8.969557871576399 95.09015466657002,9.023687707958743 94.72752213326748,8.998427119338885 93.98070300440304,8.961438395024743 93.42175374215003,8.923096418089699 92.54240625770763,8.881145776773337 92.30385521776043,8.817092093871906 89.93960760883056,8.735446175036486 87.27593329770025,8.755293804453686 85.66666040895507,8.805363952706102 85.54665671102703,8.948357015382499 85.36839879106265,8.795440140471328 80.52252131549176,8.996171709499322 77.24513877334539,9.338091575657018 76.56502072885633,9.390868077229243 73.61968725326005,9.480182127852459 73.0327759643551,9.506795903551392 72.9692788622342,9.507246984518133 72.45343772449996,9.530703190830536 71.39670613326598,9.57581127283629 68.40739071997814,9.67008713434916 66.32800625776872,9.754890266864095 65.28554695111234,9.797291820752434 65.24622535111848,9.785563732206356 64.83291164448019,9.811275310115889 61.71048533322755,13.21104099956574 59.78197930660099,15.08885096211452 59.20817521773279,15.370318084023893 59.204679964343086,15.375730909756385 58.13979278225452,17.164662465220317 58.082703644409776,17.361326765618287 57.39821653335821,19.528681932599284 56.37672874657437,23.006779717688914 56.14924600883387,23.81506529863691 53.79927068436518,23.44926231727004 51.6170675199246,23.11638558265986 48.74688199115917,22.70682922989363 45.09842005325481,22.20976751530543 43.14894250663929,21.966648896690458 41.12023921776563,21.650910027092323 36.61777038220316,20.541309810651 31.9332571021514,19.15475267940201 29.771151644410565,18.660840320866555 29.460656640003435,18.593632068892475 28.906076444429345,18.44523256685352 28.39547818666324,18.124526916013565 28.033719466649927,17.844867595704272 25.540147484396584,17.290509595302865 24.182824106654152,17.039717393461615 23.602903324412182,16.92649995634565 22.118877013330348,16.74066084867809 21.658668657648377,16.717656482127495 20.60717994661536,16.685179725231137 19.307819520006888,16.673903072369285 18.76343381323386,16.71314582170453 18.285457919933833,16.732541660720017 17.369701546616852,16.82230377709493 16.218015573336743,16.991453393595293 16.10471111116931,17.00002363731619 15.600812088814564,15.966630244278349 15.216042951098643,14.947215125896037 15.228276337729767,13.86374304885976 15.553043626598082,12.785227416432463 16.048204515478574,11.854208387201652 16.555890062241815,11.325546591659077 17.80020024883561,10.304756588186137 15.615958186681382,9.418835107062478 13.161125262267888,8.265868779271841 12.413141048862599,7.675399709260091 12.23226168891415,7.319944679387845 12.18012416001875,7.341145693673752 11.849822719930671,7.063276919070631 11.300485404441133,6.646473094820976 10.341038364451379,5.959015699918382 9.335570488823578,5 8.068541155545972,6.036151775158942 7.9558192355325446,6.085771458223462 6.33926456887275,7.047939995885827 7.9293135644402355,11.013400972064119 5.429624888813123,12.365276979049668 5,12.595325116650201" stroke="red" stroke-width="3.1551199884574093px" fill="none" stroke-linejoin="round" vector-effect="non-scaling-stroke"></polygon></svg>