<svg viewBox="0 0 336.64866650670524 484.2302035364694" width="1000" xmlns="http://www.w3.org/2000/svg"><polygon points="8.052549999999997,400.2473586079209 36.82518416885398,409.20181935743994 39.60391056884657,410.44773576022226 81.77414203561023,403.86996906848026 83.05340475563537,404.23369637467067 92.33650633783657,408.746711351479 93.82257154674846,410.3122604953601 89.00931643552724,414.2488155642418 84.00411366215087,417.92354238554935 97.56278388444446,429.675176219876 98.93088429337479,430.5770375156785 145.93417730669137,441.3687738250951 146.70196795554477,443.1076521894206 198.76842669337168,427.58168631510443 201.24160969779007,426.3868404669697 234.24786946675852,397.10553983480304 234.9110937866859,397.06787998436585 234.01805656005274,405.4451978050415 235.02964112882148,407.4961926872852 263.3717765955731,432.4877403697824 264.19665638215486,433.68438920446306 267.03829734223075,451.818822475419 268.1835753511183,452.86843691251806 286.2316072089376,450.553401259916 286.88230687109865,450.6571697520335 284.0406659111392,463.30874643379457 284.34125769776404,464.09522715883895 296.9949485778121,473.0305121856286 297.7991481155401,473.4960440818463 327.02907792884037,469.7869114967539 328.59611650670524,469.24929087851297 323.95558516446147,469.85623737142987 316.7608974488463,469.36406909043535 313.0865123822365,457.9874151169565 311.19616287117935,454.9171447038311 312.03822765334155,452.9749591771756 318.07715160001646,440.2718084968287 306.39077208002675,345.8568042506008 306.35407192001696,343.0725114246957 291.57584955552704,325.325418089727 290.978161235667,325.16921550545476 239.98736671111658,332.1192022681712 239.96260866671912,331.64831189971983 240.42718608884718,262.0031087958264 240.43272023995053,261.79493071555726 248.21228034664057,236.45498716852262 248.5294745866919,235.5077320505875 270.77151917326375,206.41978157350195 272.96828589341715,204.0143022062034 324.5462829777749,180.50510973038718 327.3503499645518,180.09181414920704 316.98488493331354,160.14464873719362 314.78695312896855,158.44073038965098 320.76558395554423,135.09440595444858 319.47408784888796,129.1423557334124 296.26560571554694,94.22731194747712 295.701122302307,93.07706990346878 284.95962626671064,93.51904688051536 283.56735035553686,92.75512980783924 272.33593631114456,108.47352380501206 271.3761980000196,109.18081999899687 243.02299423117768,99.73836254000298 241.23196816884558,99.30513642481628 237.23776742220036,108.51813228111814 236.94387487110328,108.62160551487568 231.3610814844502,92.59231991935621 231.055538088876,92.30487278218015 194.62276496887318,87.07096830514593 193.79351611561253,86.82582713405236 208.35532404445223,79.6255432959656 208.50008578666132,79.5275754639656 204.41122192898877,71.20842634523387 203.75265794664267,71.14541171686824 192.22181720004994,82.47440998905904 191.77704621337,79.20009581486329 213.16770534226782,26.937261789199965 213.08003273778706,24.494815035293414 147.5562661244545,32.204369139427854 144.7504515110992,32.59080569874595 115.01400123557653,8.34333014334652 114.77778036436177,8.052549999999883 69.72862523559127,51.35330761792238 68.39809880007635,50.93930444910757 55.31157904896065,82.27065793795146 55.09574715558085,85.3448557831357 56.61006566227991,94.25628637799628 56.60220134221129,95.65027382327344 71.47100902218483,101.0555117527033 72.93144237341005,100.46500311452064 65.20401979561541,103.12963753517352 65.51334971559811,104.16301382220217 90.73830175118167,102.00933615325584 91.56871568886675,101.74719582717034 104.4370733778702,89.02334910966556 104.61096223103925,88.88031309491589 126.73445947559196,93.58987349188055 129.1086103023041,95.02801660160867 102.38827238218039,202.15305965315883 102.40021449779272,202.62561176557892 134.94480955551956,251.07693485174195 137.93616386663746,254.8651973824958 169.0762496266758,280.4313578892975 169.16858256885428,282.4316165034902 126.5049378400214,297.8412114296584 125.70335974227748,298.2395782423914 124.00612297779992,311.50288938100084 124.13311718227453,312.23570869790956 135.8218268711131,325.0869793935922 135.53696372450906,326.4836107832157 94.0218009867018,373.6486102374979 92.7253532710962,376.5790286125625 48.58292511114962,369.7324435685073 43.47635999110173,370.5146720762491 14.434008773394112,382.2165272397465 12.23374680008385,382.57340157635144 8.052549999999997,400.2473586079209" stroke="#009edd" stroke-width="4.932669785437136px" fill="none" stroke-linejoin="round" vector-effect="non-scaling-stroke"></polygon></svg>