<svg width="1191.7702013155213" height="3087.13776076457" xmlns="http://www.w3.org/2000/svg"><polygon points="465.1346639643889,94.2731265911716 492.5295857777819,134.66444337088615 493.270870755543,135.37652367854025 514.0909297778271,123.19538325408939 517.4749175466131,119.66819740197388 538.2713836089242,146.5413319421932 540.4066921244375,148.67202808707952 547.5434168889187,143.6000696363626 548.0106157511473,143.2679891444277 555.9244518399937,154.87333792471327 556.0141633421881,155.02694528718712 560.7219783110777,148.4081771056517 561.2043232710566,147.13997110631317 586.4368483555736,140.33526725170668 589.1051830044016,138.12722832977306 584.1474574222229,133.05005473084748 582.1403081954923,129.64005437295418 588.6272071111016,126.87794666411355 592.3604289421346,126.08179527381435 585.6122598400107,118.07041677384404 585.3643881244352,116.8924075596733 589.9251111822668,116.89602248067968 593.0979273954872,116.94572763843462 588.4142879288411,101.08604492218001 588.166998755536,100.29025135515258 600.6849572977517,99.26217757398263 601.5887715555727,99.03758234961424 594.6431206399575,85.21481537411455 594.4619500088738,84.83790483511984 616.3696153599303,86.16612744890153 617.1036185598932,86.21312803297769 605.6540424533887,61.022075553948525 605.4035492977127,60.3811658261111 608.7668568177614,57.48620104446309 609.9354365154868,56.03667029319331 608.1770328177372,36.69646873732563 608.7182145422557,32.91474302986171 585.5761422222713,9.378966179850977 581.3460118755465,5 553.403791644494,19.595458767493255 552.7216347021749,19.805669642286375 551.9287947377888,42.87609964981675 553.0653346133186,43.60339602874592 539.8856081066187,56.06830967013957 539.2442291199695,56.64640548045281 520.3095679999096,58.10225999815157 514.8214377245167,58.20938085671514 514.7448334222427,74.23985404951964 514.7812423111172,74.91642729588784 495.35928462212905,60.372126183181535 493.776808675495,60.07652965374291 487.10699150222354,68.9939674649504 486.2078375822166,71.86392189993057 488.40373048884794,83.09931746096117 488.4532465777593,83.2321863375837 465.1346639643889,94.2731265911716" stroke="red" stroke-width="3.787493720570968" fill="none" stroke-linejoin="round" vector-effect="non-scaling-stroke"></polygon><polygon points="465.1346639643889,94.2731265911716 493.8551606044639,135.6584634630708 493.85370424890425,135.7646426144056 514.0909297778271,123.19538325408939 517.4749175466131,119.66819740197388 538.2713836089242,146.5413319421932 540.4066921244375,148.67202808707952 548.0106157511473,143.2679891444277 555.9244518399937,154.87333792471327 556.0141633421881,155.02694528718712 560.7219783110777,148.4081771056517 561.2043232710566,147.13997110631317 573.0925536711002,157.02383116452256 574.2920081065968,160.59694630792364 583.3351022932911,158.5684685939923 584.970298311091,158.06157211051323 582.0249648354948,151.51924904074986 583.7201627022587,151.09140021458734 603.0789145600284,155.5993576538749 604.0077781332657,154.829966414487 611.7325792710762,135.74928052758332 610.2791364266304,132.11385747266468 623.5861484088236,122.461574238725 623.6915885510389,120.90945159981493 632.5829304888612,121.5501836220501 632.7279835022055,121.63332501600962 626.0016597333597,98.65482094173785 625.2976574577624,97.34113530238392 630.5993742222199,95.74183550861198 632.9735250488156,95.34460721025243 630.7680201955372,90.16294864786323 629.9084791466594,89.83666182722664 623.0193348266184,96.87205678073224 622.5748551110737,96.17973480874207 605.6540424533887,61.022075553948525 605.4035492977127,60.3811658261111 608.7668568177614,57.48620104446309 609.9354365154868,56.03667029319331 608.1770328177372,36.69646873732563 608.7182145422557,32.91474302986171 585.5761422222713,9.378966179850977 581.3460118755465,5 553.403791644494,19.595458767493255 552.7216347021749,19.805669642286375 551.9287947377888,42.87609964981675 553.0653346133186,43.60339602874592 539.8856081066187,56.06830967013957 539.2442291199695,56.64640548045281 520.3095679999096,58.10225999815157 514.8214377245167,58.20938085671514 514.7448334222427,74.23985404951964 514.7812423111172,74.91642729588784 495.35928462212905,60.372126183181535 493.776808675495,60.07652965374291 487.10699150222354,68.9939674649504 486.2078375822166,71.86392189993057 488.40373048884794,83.09931746096117 488.4532465777593,83.2321863375837 465.1346639643889,94.2731265911716" stroke="red" stroke-width="3.5313491187335586" fill="none" stroke-linejoin="round" vector-effect="non-scaling-stroke"></polygon><polygon points="5,2580.9070686979103 10.80969358223956,2584.312208700925 11.010961920022964,2582.876167366572 5,2580.9070686979103" stroke="red" stroke-width="3.7735562955943407" fill="none" stroke-linejoin="round" vector-effect="non-scaling-stroke"></polygon><polygon points="1175.6130614044378,3081.161461074138 1182.1637486933032,3082.13776076457 1182.4203585422365,3081.9273440277902 1186.699713706621,3069.7036592435325 1186.7702013155213,3069.036261045898 1175.6130614044378,3081.161461074138" stroke="red" stroke-width="3.917224126312502" fill="none" stroke-linejoin="round" vector-effect="non-scaling-stroke"></polygon></svg>