<svg width="198.999998577754" height="283.02910778904334" xmlns="http://www.w3.org/2000/svg"><polygon points="5,173.7950382445124 5.040777955553494,175.27820213348605 5.249910613289103,176.6120486528962 5.510598257766105,177.96528333664173 5.884299093275331,178.39290375454584 7.013557191123255,177.9517510313308 6.928506026626565,178.13533923594514 6.881028835428879,184.05518679431407 6.815492835477926,184.36912729596952 6.464511146652512,187.96136840677354 6.5711163732921705,187.93024552660063 6.676847786642611,188.71778834826546 8.719823359977454,188.8332583057927 9.926850844407454,188.7840933703701 11.536415004404262,188.792663405824 13.225787448929623,188.96857458457816 13.50540771544911,187.493171567854 13.318411662126891,187.4638528499636 13.315790222142823,187.22749873442808 13.55463253322523,187.22794979211176 13.72735630220268,186.33936428668676 13.96882005338557,186.37319375021616 13.839786951080896,189.21169262187323 13.559001600020565,190.33165589458076 13.239768462255597,191.7326167744468 13.422977991052903,191.7786237083492 13.411909688846208,191.95498353196308 13.223748551099561,191.95768981968286 13.148309333249927,192.30589856341248 12.968595057725906,193.5413134517148 12.856746951118112,194.44610722048674 12.596641848795116,196.02159411128378 11.976234382251278,197.12257892481284 12.04002275550738,199.06518792820862 12.20546474668663,199.4629989261157 12.608583964407444,199.86171126324916 13.418900195509195,200.59779366722796 13.775416035554372,200.93200673448155 14.7488440888701,201.87420519493753 17.42562559992075,204.36927503714105 19.302576639922336,205.83328865963267 20.618248248822056,206.74930698348908 21.564879359910265,207.51468222565018 21.648474168847315,207.67434177920222 22.304416711092927,208.20338234788505 23.145316408830695,208.98859706311487 24.511960462201387,209.72780581127154 25.296644835500047,210.00788364064647 25.53694350225851,210.08681050036103 26.092688782140613,210.35200454021106 28.707720817648806,210.5242902916507 29.483958328841254,210.53240846516564 29.817755022086203,210.0065306085162 30.73263758223038,210.4440105605754 31.454116124426946,210.57029327045893 32.442107733222656,212.69634193991078 32.9800854754867,213.6461567459628 33.39864206209313,214.19006593030645 33.83059711998794,215.40280715725385 34.101187982130796,217.12246178026544 34.29109674657229,217.7854249375523 34.764121031039394,219.03467657923466 35.81764863990247,221.6855919729569 36.85544760886114,224.37571057491004 37.12487338669598,225.05894581967732 37.967811982147396,227.33593023748836 38.34500807104632,228.14137002715142 38.72715576889459,229.22731102543185 39.35950535105076,231.20526112482185 39.63941688882187,232.09682101552607 40.087974400026724,233.78252219205024 40.26244579558261,234.5996631887392 41.1793672532076,239.2350315960939 41.29267171549145,239.74280116771115 41.50267818663269,240.8593489374034 42.15978581330273,244.11831904080464 43.1903030044632,244.6048831223161 44.80860529770143,244.7252838909044 46.71788743103389,244.71401041356148 52.91351523553021,244.82809797808295 56.73761365329847,245.1194042954594 58.02182798215654,245.55636304378277 59.59789596439805,245.52569930045865 60.453067946597,245.46707742620492 61.259306382155046,245.2073372407467 62.21962723555043,244.88311251363484 63.450538951088674,244.62788102711784 64.91708899557125,244.3573172884644 66.25023687107023,244.23872007749742 66.94113194663078,244.3050082603586 68.33166023110971,244.3257514971192 69.54218296892941,247.0467059716466 69.3781973333098,247.63788003410446 69.00391395553015,248.17268600862008 69.273922275519,248.411228892277 69.89724245329853,248.67772923520533 71.159028906608,249.39696288778214 72.43188366224058,250.08102179010166 73.04471807996742,250.22306407557335 73.36191232001875,247.7889425624744 73.3942434132332,247.40249284147285 73.46298339543864,246.01722055015853 73.62929920002352,244.80870760563994 74.08834247104824,244.0592458487372 74.4445670399582,241.66518984670984 74.16582058661152,241.10556589305634 74.11484814214054,240.27131318155443 74.35980714659672,239.95610011206008 74.58117319107987,239.62375050364062 74.97788444440812,239.23683539772173 77.19504014216363,239.36851287662284 78.29138460441027,239.0645722747431 79.73142897780053,238.51892117236275 80.39319694216829,236.43821926339297 83.19668138667475,238.6203853233601 83.414843448787,239.52273776818765 84.539732479956,244.40196032839594 84.37574684433639,246.77839990099892 84.63876465777867,249.47677738551283 84.66730922658462,249.70765305665554 85.01421311998274,252.1291273396928 85.47646037326194,255.01907895115437 86.34910862217657,255.0943822193076 87.38807267555967,255.49524768366246 88.85316636436619,255.70447301090462 88.88345855998341,256.16350546258036 90.90109354665037,257.23668169690063 91.89549311995506,258.60384647914907 92.35948799992912,259.4614764871658 92.66765283548739,259.73382516548736 92.87853311991785,260.7785767991445 93.85574769775849,261.93469665473094 94.15371804439928,262.22507837222656 94.94131512881722,262.9875539964996 96.2852400355041,264.29020430665696 99.3689272889169,265.5337794654188 99.86700088891666,265.6180970319547 101.35772643552627,265.95311249635415 101.6938532977365,265.53062319225864 103.22011392004788,266.83100388239836 103.33953507547267,267.2295933634159 103.56847416877281,267.1827005210216 103.9663505066419,267.25799959962023 104.24800967110787,267.3310441899812 105.93388686224353,267.5064412857173 106.95857863116544,267.4284369391971 107.50267306668684,267.28866029478377 107.96492031996604,267.27197727002203 108.78018816001713,267.79050312173786 110.02944995556027,268.19314886961365 110.41829688893631,267.89646260096924 112.50175914668944,268.5556646757177 113.90918115549721,268.13768930896185 113.98025130666792,267.85362792405067 114.94115470221732,268.1295732745202 115.59389326220844,268.4199467639555 116.16391082666814,268.3897371176863 116.23410716431681,268.00016757351113 116.89092351996806,267.664253462397 118.79787548445165,266.8639191046241 119.15322623995598,267.1817987355171 119.98975687113125,266.77599486976396 120.994350933237,266.786365422362 124.7042710755486,267.03661121672485 126.19645297771785,267.4379056763719 127.03443996445276,267.818007502181 130.29522005328909,269.7500688434229 130.98028970661107,270.25641488464316 131.0673797688214,270.7735810019658 135.01788984879386,273.6267649299116 135.75247559102718,273.5834804960177 136.2974438399542,274.56819924426964 136.66794069320895,275.1101533664041 137.67632127995603,276.1458140378236 139.72628735995386,278.02910778904334 139.7501715910621,277.2540602062945 141.17943893326446,277.414119705325 142.46103182213847,277.1187985664583 143.38261361781042,276.694978219748 144.59459271107335,276.0064938412979 144.96596337773371,275.64579389075516 145.77977486222517,275.336944085313 147.2786559999222,274.0591579176835 148.4900525510311,272.7362761555705 148.98317454219796,272.32867907115724 150.12233585771173,271.74027707235655 150.1438899198547,271.22176058852347 150.30845809774473,270.8619545143447 150.56099015113432,270.58420906960964 151.2865464888746,270.3849174778443 152.29929614218418,270.4660769715556 152.6129951288458,270.4800544368918 152.7618346665986,270.3641767135705 154.0358545066556,269.42092074343236 154.36819484445732,269.0624643720803 154.82665557332803,268.67695403378457 154.73694407113362,268.40777272789273 155.2128810666036,267.6732712976518 155.53910471114796,267.2102049778332 155.8204726043623,266.93831650645006 156.57748622214422,266.00000560254557 157.96481052436866,264.93498853885103 158.55958613334224,264.0467188570765 159.4604876799276,263.18099061842076 160.02438855101354,262.3608001297689 160.24371569778305,261.63845279690577 160.65062143991236,261.89276261703344 161.25355263997335,261.58569699933287 160.65761194657534,261.0581383230747 159.78700259549078,260.54590919375187 159.66379491554108,259.2707420286606 158.85813902213704,257.4549236142193 158.49346759100445,256.59097293007653 158.07287210668437,255.83298415783793 157.210127075552,254.0139807498199 156.6733144177124,253.12747038062662 155.48638463998213,251.89329405868193 155.2804559643846,252.48445501504466 154.86597717332188,252.86503376282053 154.10226431989577,252.9989576432272 153.1375744000543,252.81588322721655 152.86931370664388,251.31295371585293 152.33978282660246,248.72507697792025 151.96812088880688,247.24737164116232 151.0707145954948,246.17549917608267 150.6533230933128,245.31195485260105 150.20068778656423,244.8497430428397 148.5943276088219,244.75730056368047 147.64361870219,244.35370976966806 146.87204152881168,243.76793811860261 146.58863473776728,242.75827875552932 146.33348124439362,241.75041850999696 148.81132458662614,240.82101843401324 150.2370966754388,238.51982307614526 152.8037777065765,238.11576981359394 152.7883403376909,238.26774082699558 156.084655502229,237.22829306178028 155.13423786661588,233.68736926157726 157.52091335109435,232.8305400594836 157.18012615107,230.75203884550137 156.49010488891508,227.99435268336674 155.76542236434761,225.3538863149006 155.09433372446802,223.40429520379985 154.53975352889393,221.92145784507738 154.24178318213671,221.70633735629963 153.3239879111061,218.89486898860196 152.75193144881632,215.85064927855274 152.37153137777932,215.573735930142 152.33628757332917,215.20211225334788 150.80449279991444,214.3100324504776 150.19049329776317,214.0529612552491 149.19929770659655,213.8477550841053 148.67675733321812,210.04216045170324 148.30014378658962,208.31207679881481 148.20052906661294,206.88416115409927 147.13651569769718,206.92114455753472 146.86272085329983,205.83734783349792 145.9230802488746,204.93981755635468 146.9614617599873,204.8360826636199 147.569053297746,204.72783750569215 148.43034197331872,204.06483474356355 148.40471011551563,203.566453792213 148.63656191993505,203.28230848774547 148.9814269155031,203.13527442328632 149.7492175643565,203.1474520949414 151.77792085323017,205.0760259059607 152.5273614221951,205.6885114092147 153.22349937772378,206.1503550130874 154.85083107545506,206.63565056101652 156.30398264888208,206.83454926148988 157.44343523553107,206.62843427824555 158.5394884266425,206.4421638965141 159.45029319112655,206.12509796622908 161.44462648883928,207.0677250585868 161.3930715022143,209.3061098518083 163.0623462399235,209.66150714212563 163.94227626663633,209.65248691343004 165.00395946658682,209.710216370353 167.93705955555197,209.91768148035044 168.15201763552614,208.80503477173625 168.5673702399945,208.6363557734876 168.60727438214235,208.62011928547872 168.85660245327745,208.4708337422344 169.16709745768458,208.740088862658 169.92498488887213,208.5064638357726 171.7160109510878,209.0129517535097 171.91203640878666,209.12029276433168 172.04631239105947,209.48741666343994 171.79669304890558,210.28796111111296 172.58516394661274,211.00055595580488 173.32237112883013,211.08218850800768 173.4149953421438,211.07722741452744 173.66898375097662,210.98431964335032 173.93287537770811,210.23789898090763 175.19349674659315,208.40814280399354 175.40874609770253,208.4573033254128 175.85759487992618,208.9525160351186 176.0705140621867,208.8244283380336 176.2863459555665,206.47869635676034 176.3125603555236,206.19545687519712 175.8395360710565,203.02071407134645 175.22990563558415,200.91261246794602 174.79824184882455,199.7282058557612 174.30628494219854,197.55512326426106 173.7718024533242,195.60212691006018 173.40247068437748,194.04558082978474 173.25275733333547,193.24858525401214 173.02119679993484,192.4231708133011 172.65972935105674,191.13587890128838 171.723292728886,186.84680569038028 171.05103900434915,183.18192463641753 173.11935516435187,182.63613401603652 174.96077112888452,182.03305634867866 176.02070670214016,181.64197966450593 177.06957397330552,181.17106286709895 179.34032355551608,179.93602912826464 181.66088049777318,178.8119529093965 182.87169450661168,178.12947524170158 183.8154129065806,177.58186769363238 184.75476223987062,177.01170483470196 186.04392817767803,176.08563809737097 187.4216405332554,175.0436391714611 188.81682915554848,174.10944456898142 190.04511943110265,172.87211548886262 190.7319367111195,172.6844630735577 192.13586346665397,169.9476966773509 193.93854037334677,169.44698245293694 193.999998577754,167.58124799869256 192.70588103111368,166.0646503746393 190.736305777682,165.68437156878645 189.4663637332851,165.52287692920072 188.9222692977637,167.54470903630136 186.21286542213056,167.41163498576498 187.4245532443747,165.7863206375041 186.78696078213397,164.27963486971566 185.67896547552664,163.21186654118355 184.5339787377743,164.4000798924244 183.91094983101357,164.1384389346931 184.42446080001537,161.64155645045685 186.30082929774653,159.2664466383285 186.14063018653542,158.1986538163619 184.49582222220488,157.50393156165956 183.52588942216244,158.02271786972415 182.25652991991956,157.86121756845387 182.00661930663045,156.7329677211237 181.32475363556296,156.1374876445043 180.39967658661772,154.52472095552366 180.14685326220933,154.08397117705317 179.60654535109643,153.2954012901173 177.98678670218214,153.71224293496925 177.2035586843267,153.463220749225 177.1770530132344,152.04938288830454 176.42673863109667,151.01538974040886 174.73066695104353,149.2018297339091 173.6191763910465,149.336268280691 172.19544319994748,150.59899408486672 171.0673501866404,153.30622835585382 169.01272376882844,153.66532573330915 167.04664376878645,153.06081473344238 165.49009095109068,152.4125424970989 163.33235456002876,152.10893208283233 161.4720059732208,151.79449410678353 160.10157539555803,151.04877353977645 156.8043864177307,151.32667091483017 155.24171690654475,152.02051054564072 152.7175614577718,152.14231571514392 152.25647928891703,150.8750875008409 153.19495480891783,150.6644084060681 153.80778922664467,150.09597985673463 153.69914510217495,148.54046306118835 150.54788295109756,147.48479860433144 149.53425948438235,148.72001573914895 148.79035306663718,149.70800396619597 147.6963387732394,151.644267482101 147.60487964446656,151.73359143355628 147.40739783109166,151.79494523757603 147.0625328355236,151.8008099386352 146.7537854576949,151.9334423643304 146.1237660443876,151.41464160109172 145.56860330654308,151.20035396999447 144.82935722661205,150.8394480108982 143.65611719107255,151.66186159668723 142.5996768710902,153.61615288601024 141.3378904176643,155.08050651237136 140.24999281775672,155.21133245248348 140.60534357326105,153.81735547533026 141.23099392000586,151.13674433791311 142.20762595545966,147.15185721794842 142.22248078219127,146.93440742063103 142.2425784887746,146.3334869389073 142.3538440533448,143.6193990726606 143.4938791821478,143.56300559960073 145.4570464710705,141.48500875761965 145.30587676435243,139.67903930944158 145.15121180436108,137.82974361168453 145.9667709155474,136.08555333374534 146.35736547550187,132.09542886220152 146.37251157325227,131.91992307145847 146.4520285866456,130.99862815107917 146.11794062214904,127.66848909313558 145.94812956440728,125.60974205541424 145.69064590218477,123.7179155467893 145.32014904881362,122.8227551059681 146.01046158210374,121.62935254495824 143.20814222225454,119.65943447529571 141.62974407104775,118.4520274483948 140.2753334044246,117.3041724296636 138.19507512880955,115.28007062646793 136.69269873772282,113.73017170687672 135.7947099021403,112.9527364638052 135.27682986669242,112.30254038440762 134.68642332439777,111.56616053136531 134.04853959102184,110.72419376141625 133.81319253332913,110.37314770830562 134.16155278217047,109.9792354630772 134.29932401771657,109.66970025660703 134.07766670221463,109.50274959887611 133.90814691549167,109.72790734790033 133.52075633767527,109.89576026832219 132.89102819550317,108.75823835597839 132.35421553777996,107.48624630871927 131.9126485332381,106.23680810356745 131.5331222754903,104.77212713501649 131.48244110215455,104.52575654356042 131.18825728003867,102.92975570866838 131.04174791113473,102.0615841167164 130.65639623103198,99.82074690359877 130.41638883552514,98.52929947263328 130.5934816710651,97.61372991610551 130.2168681244366,97.63042589602992 129.8929746488575,96.41973842208972 130.21599431103095,96.31956196838291 130.21919829328544,96.12056266039144 129.81083619548008,96.09393915656256 129.91452871100046,95.59486066916725 130.24570396437775,94.63595892948797 131.38486528000794,93.82325820758706 131.7078849421814,92.95234291802626 132.00469020439778,92.4852962421719 132.31198122666683,92.16084487194894 132.78617059555836,92.90180264954688 133.45725923555437,92.71588656149106 133.34395477327053,91.84045431169216 134.2661191110965,91.0629411819391 134.85244785773102,91.42259211465716 136.05889280000702,92.13196461537154 136.28491918218788,91.38739418244222 136.86891775997356,91.54307730094297 137.12727523548529,91.19380545435706 138.10856760886963,90.88785368809476 138.59702926222235,90.46276954951463 139.17578495992348,90.16132934071356 140.19290367991198,89.94968918518862 140.45883420435712,89.17216932721203 142.28918186668307,88.22452095348854 143.18221909331623,87.49843901389977 144.6301277865423,86.32921187585453 145.47364892438054,85.85989470750792 146.2207593243802,85.61440532561392 147.25914083549287,85.27099048852688 147.95090972445905,82.55343643430388 149.42182883550413,82.3083946116385 150.62914759106934,82.59901508543408 150.653614364448,82.76147356699221 151.92617784882896,82.85759477835381 152.48396202665754,82.53989821916912 153.38486357335933,82.63150679145474 153.5371983643854,82.73349461489124 153.94643427548,82.50334503425984 154.83160718216095,82.69513636827469 155.8053265066119,82.4157978752628 156.7711815109942,82.60217400157126 157.1798348799348,83.37565579038346 157.74926990224048,83.01238142896909 158.40084337769076,82.76418120734161 158.3760853332933,83.44966440607095 158.91726705769543,83.61753751465585 158.91085909330286,83.14054288750049 158.92163612449076,81.32732202025363 161.10180039110128,81.32326053304132 162.7795219910331,81.31107607093873 162.93476949329488,82.20099129516166 166.79644188436214,82.13645902503049 166.52002559998073,80.5813609334873 165.84777187556028,78.80422135599656 166.03360284445807,77.2752740625292 166.11457621329464,75.08427574433153 165.9080649955431,71.90221207751893 166.15681052440777,70.86107013613218 164.1129611376673,70.69002813770203 163.40633742220234,70.45986587036168 163.5761484799441,70.04512187867658 163.37604522658512,69.77073151437799 163.04982158215716,69.84609863889636 162.31756600888912,69.33522636367707 162.10260792891495,68.54364275804255 160.7484885333106,67.67082147829933 160.59848391101696,67.06291338743176 160.65178652433679,66.50284214958083 159.96817322657444,65.93419462133897 160.01332024880685,65.5708912590635 159.258928071009,65.68371845484944 156.42282126215287,61.987920523330104 156.59379740443546,61.463039034453686 156.04882915550843,60.659692611254286 156.06368398224004,60.49947429151507 155.39725567994174,60.35414940415649 155.18200632883236,59.90373190288665 154.6317951999372,59.60901934810681 154.05595221323892,59.647832969145384 152.06686179549433,56.914615076908376 151.87637048889883,57.08386255445657 151.5961676799925,56.72550907358527 150.9370211554924,56.69572147825966 150.6751684267074,56.532792286074255 151.14702762663364,56.20332291122759 150.9338171732379,55.71994981972966 150.4377824710682,55.384611929999664 150.8106094932882,55.13728298159549 150.14476373326033,54.683695405197795 150.38331477332395,54.46164024830796 150.46545322658494,54.1123091179179 150.0533046044875,53.85640340048121 150.26127217779867,53.66458674898604 150.3597218132345,53.39062714535976 150.21321244433057,52.931619922455866 150.53273685323074,52.4915678446996 150.20767829322722,52.39814128953731 149.43085823999718,51.739189572341274 149.2756107377354,51.2206021999591 149.33648639998864,50.795892216672655 148.8133634843398,51.12221037509153 148.47315882658586,50.99041942093754 148.22237440000754,51.34968498564558 147.99955199996475,51.11905100388685 148.08605952002108,50.929939983878285 147.30690929770935,49.781278839858714 147.0957377422601,49.15707262849901 146.84582712885458,49.251854597532656 146.24493482662365,48.33066238445463 146.64951040002052,48.064820303348824 146.57232355547603,47.57330497546354 146.31163591099903,47.4455739975092 146.3026065066224,47.31468351872172 146.7983499376569,47.1770227579982 147.00515242666006,46.846636578498874 146.68446293333545,46.06851196306525 146.3031890487764,45.95702868507942 146.19629255111795,46.15833043312887 145.99589802662376,46.10777933901409 145.30558549333364,46.374526498664636 145.24733127106447,46.18992486112984 145.44393927103374,46.040979660872836 145.311702186591,45.802215779491235 145.3192752355244,45.26736568432534 144.9502347377129,44.74018726270879 144.70935352880042,44.582665381312836 144.6301277865423,44.284772687766235 144.9770316799404,43.901573761715554 144.82469688879792,43.68853472772753 144.4174998755334,43.673640041728504 144.3018652444007,43.44931692065438 144.43351978657302,43.35633785329992 144.5401250133291,42.77408939576708 144.46555960876867,42.46806981682312 143.8620458666701,42.32769786071731 143.57572636439,41.600109298480675 143.3191165154567,41.56174382934114 143.16474282660056,41.41821177926613 143.10503224888816,40.970914754259866 142.85075256880373,40.82557687588269 142.66230015992187,39.95535302272765 142.3089883022476,39.41958588705165 141.7133388799848,38.57914650288876 141.2443923910614,37.745474381314125 140.91117823997047,37.29907257092418 140.5173796977615,36.410779905098025 140.2121275733225,35.65699213714106 139.92609934217762,34.75876259821234 139.68201415112708,34.02257271966664 139.66715932439547,33.99187928030733 139.44521073775832,33.54005329881329 139.06393685331568,33.356794942112174 138.96490467549302,32.68108484504046 138.38003228441812,31.608610820607282 138.0508959288709,30.95591571839759 137.61661070224363,30.50227793236263 137.62389247992542,29.68572754348861 137.1494118400151,29.28083658358082 136.52201386669185,28.970284257491585 135.7533494043164,28.59698894392932 134.9080806398997,28.683654901804402 134.4269007643452,28.55997534719063 133.30317681771703,28.68500905710971 131.1002934044227,28.422754153551068 130.78630314662587,28.547787941992283 130.36017351108603,28.281019014364574 130.07647544879,27.190919249260332 129.76306773338,25.88550069608027 129.42519324435852,24.234306580328848 128.8053683199687,22.16600809787633 128.1989418666344,20.39832412340911 126.62345642666332,20.58971858449513 124.81058503105305,18.39724887936609 124.29212245333474,17.821253600122873 123.57064391113818,17.159037714940496 123.23364323552232,16.876004137389828 122.79207623098046,14.841943428269587 121.91127239109483,13.629442836914677 121.47057919995859,12.554166763613466 120.46511132444721,11.286580111365765 119.26157909329049,10.812136064458173 117.70968661329243,10.405404429358896 116.59644842660055,9.596453132806346 116.10798677324783,9.670035322138574 115.69962467555888,9.689897994801868 113.79179889778607,8.428614698874298 113.3391635910375,7.0540152686298825 111.80620373331476,5 111.51464135106653,5.221654005988967 111.20035982213449,5.63697251531994 110.50655203557108,7.136626907216851 109.72215893329121,8.003821512742434 108.0677390221972,8.58435694599757 106.75614520884119,8.887715438788291 104.68695523543283,8.966263551323209 103.89615416887682,9.611350142455194 103.91479552001692,12.419644027657341 103.88421205326449,12.941032022645231 102.4319342932431,13.222265030490234 101.40753379557282,13.747262437536847 100.23312867549248,14.253750571573619 98.30666154669598,15.06313603441231 96.7061267910758,13.262892561906483 95.26899512880482,11.637785411963705 93.1229095821036,11.737097862409428 89.92184007109609,11.27484316349728 88.75733816891443,11.612505871918984 86.85970687994268,12.441312124894466 85.62821262213401,13.967553321097512 86.35143879102543,14.026688745885622 86.4096930132946,14.904238511400763 87.12010325328447,18.393186222063377 87.23107754660305,20.673227907565888 86.72339199995622,22.909460286959074 86.37765319109894,24.764694241108373 86.71232369774953,26.84064173104707 87.56196152884513,29.01993654848775 88.63791701325681,30.75098891480593 88.73141503997613,31.302124220819678 86.63397176889703,32.67205730784917 86.27599957329221,33.22409051883733 86.13211164437234,33.46286814758787 86.52794908441138,35.61095232091611 86.59698033775203,36.4514031240833 86.62727253325284,37.118074205878656 86.68174023111351,37.66783934942214 86.67474972445052,38.193680741416756 86.70212920883205,38.83416738809319 87.53865984000731,41.218259741028305 87.4716674843803,41.836169624875765 87.29078812443186,41.947203648102004 86.70271175110247,42.346654850349296 86.1041496177204,42.759646003483795 86.04181759990752,42.79710855032317 84.09903928881977,43.93542528402759 83.90010111988522,44.552876130270306 83.53339079103898,45.948904395336285 82.98376220441423,47.20997107907897 82.79181454214267,47.659512059704866 81.80673564434983,50.17936169618042 81.61304035549983,52.23701423819875 80.41067320888396,52.915823196584824 80.4421304888092,52.79757338349009 76.42317169776652,54.908909652906004 76.03170332440641,55.16391147678951 74.18766592000611,56.362641725863796 72.27692743111402,57.7166212957236 70.22492245328613,59.06833586283028 67.17414883547463,60.3780693456647 65.02602439105976,60.139772452705074 65.46700885333121,60.94357210613089 66.6256853332743,63.056634910812136 66.62393770669587,64.66782028396847 66.9085095821647,65.48694778751815 67.42959359998349,68.41908316104673 67.33201777772047,69.53831177513348 67.24958805320784,70.64038531627739 68.60021219553892,70.76945662853541 69.19440526212566,70.95674528530799 70.11249180440791,71.45542875718093 70.91203100443818,71.7767518030596 71.56214812444523,71.4879221204319 71.67632639990188,71.64948627125705 72.20673109323252,72.58908323850483 72.60315107554197,73.26873155223439 72.87199431110639,73.74710160755785 72.97219157323707,73.94296225259313 73.31385258655064,73.80306180979824 73.14549788448494,74.18711087520933 73.18278058664873,74.36446820636047 73.65522232884541,74.96919695549877 74.36388494214043,74.85817971354118 74.54651192878373,75.95029809681 74.56748344877269,76.11817696748767 75.09788814221974,77.56635251524858 75.75645212444942,77.45578787726117 75.8525715910364,78.0284669676912 75.78033635544125,78.67876504483866 76.03374222223647,79.30469203891698 76.64890680881217,80.12918001489015 76.33812053326983,81.19600056175841 72.21517795557156,78.51720609184122 71.36117105768062,77.97566683072364 70.6187209954951,79.22301024739863 69.88297016883735,80.43965962849325 69.18304568890017,81.6229078322649 68.2090350931976,83.26915554323932 66.34693887992762,86.50385175703559 66.25839246215764,86.67533264163649 64.6546537243994,89.45014540379634 64.58591374219395,89.54942248837324 64.03424625773914,90.48668619501404 62.42584718216676,93.30431946337922 61.82845013332553,94.32008449389832 59.983830186654814,97.52438383974368 58.93758435547352,98.81854465143988 58.11911253328435,100.17767599673243 57.303844693349674,100.96147399483016 56.10264263104182,102.53312264947454 53.902380657731555,103.1125044869259 51.50434560002759,103.65984744386515 49.3553473422071,102.28088350349572 47.18596010666806,100.71284292516066 47.32110990223009,99.69169275165768 47.39159751101397,99.06401919858763 47.36101404449437,94.99786022171611 45.15347029326949,93.63553789979778 43.61235484434292,92.65496742055984 42.85271978657693,92.23169173521455 41.938419768819585,91.07016128179384 40.96848696889356,92.83366351918085 41.08528668445069,93.1833839964238 41.25655409775209,94.22487082442967 41.283059768844396,94.87827943707816 41.47442488884553,95.20949548756471 41.05907228437718,95.92742937197909 40.477403875556774,96.79968653648393 40.10049905779306,97.37953481997829 39.22872462216765,99.74809754767921 38.474623715505004,100.9285337785841 38.06509653327521,100.6564383780933 37.23410005331971,100.79000432183966 36.91282801772468,100.88702007435495 36.343392995535396,100.96688882441958 35.34491562657058,102.30118899111403 34.54770659550559,103.27855756512145 34.001573262154125,103.99466001958353 33.814577208831906,104.2405799809494 33.52243228442967,104.66473486006726 32.977755306637846,105.33029537793482 34.44401407998521,106.08609893149696 32.79716721770819,108.03267586772563 32.8793056710856,108.124724973517 32.8641595733352,108.58406748092966 32.85658652440179,109.3818230968318 32.82833322661463,110.96514278260292 33.75137137772981,111.93886289949296 35.35423630219884,113.28347390762065 35.99066367989872,114.18905122258002 36.12319203547668,114.49948244279949 35.94056504883338,114.88030153507134 35.32802190212533,115.47634525125613 35.0175268977182,115.79444513091585 34.48158805328421,116.50464092154289 33.52214101329446,117.58842954080319 32.82833322661463,118.17408826429164 32.17472085333429,118.9081898558652 32.06869816884864,119.36029053089442 30.995946666575037,120.0492685031495 29.23026119102724,120.5067811627523 28.09488639992196,122.41848789848154 27.742448355536908,122.94863726448966 27.6340955022024,123.1679156901082 26.810089528909884,124.84092161961598 24.826533262152225,129.12534657953074 22.956863999948837,133.2319269591826 22.68336042657029,135.6091243912233 22.409565582172945,136.6346183551359 21.53050936886575,139.01719265960855 20.107067448901944,142.70988336426672 18.952468764502555,146.39033083897084 18.16312405327335,149.3326591932564 18.120015928754583,151.0117806806811 18.211475057760254,154.04066306492314 17.421839075512253,160.24310935341055 17.371740444446914,160.3437076206901 16.875123200006783,162.0836443163571 16.5666670933133,163.42072911304422 16.512490666704252,165.66046315204585 11.524472888791934,166.43771090894006 8.183593244408257,167.0525601944537 5.997021013288759,167.65658139571315 5.3827302400022745,170.73214665584965 5.069031253340654,172.11834723851644 5.039321599993855,172.16255394608015 5,173.7950382445124" stroke="red" stroke-width="3.0194406235661013px" fill="none" stroke-linejoin="round" vector-effect="non-scaling-stroke"></polygon></svg>