<svg viewBox="0 0 287.68948798214774 315.9241810313681" width="1000" xmlns="http://www.w3.org/2000/svg">
  <title>Budišov nad Budišovkou, okres Opava, Moravskoslezský kraj, Moravskoslezsko, Česko</title>
  <desc>Geojson of Budišov nad Budišovkou, okres Opava, Moravskoslezský kraj, Moravskoslezsko, Česko</desc>
  <metadata>
    <collboard>
      <support-module name="@collboard/map-svg-geojson" version="0.11.0"></support-module>
    </collboard>
  </metadata>
  <polygon points="8.052550000000338,78.21584146292992 9.822895813362265,85.7757738104334 9.93794790222455,86.4037248915771 45.98973840880353,70.29943694567885 47.259097911162826,69.8624123601254 74.83344272882823,73.36535653493013 76.8400094132885,73.64797337351013 61.82643999110587,253.8519077606976 60.27920784880553,257.13267602641247 152.12747494222276,306.92592259505875 153.880344488869,307.8716310313681 203.0702097333051,267.80013278246736 204.28947060436622,266.7004376438923 213.5382021955229,264.3413518836966 214.45162839999102,263.9002045312442 225.16574495108944,278.28665232178867 225.8275129155736,279.58429537885934 253.43564518224593,272.33868477759063 253.74643145778828,272.214193851141 256.6862307821648,253.37465179104004 256.6681719732951,252.97859169785045 238.82344735108927,236.9506374022818 236.51337616888486,234.53438787288144 232.00333428438898,216.58040209286958 230.05706071991153,210.87078323620483 218.01503917328228,122.73288087626099 218.00280578665115,120.92065142674949 220.87095241770294,110.85900646818448 221.18086487995606,108.12944976971596 243.9358378932593,106.73734917896911 248.5469508532915,108.4485844203515 268.63970591102407,67.8962423805275 279.6369379821481,67.96170641898755 259.82234683549177,43.03383923302283 245.06247455112316,31.633824638883766 223.28500738667935,33.32668337567122 216.13401033773698,40.176102417615425 221.03202534220327,47.256484437304266 221.21814758211985,48.02496818608017 217.19540226666868,67.6393522745708 217.49191625774984,68.00369368852228 202.29630239107792,78.30071496105631 201.59812553771917,78.60228648570012 177.84351007102669,65.80680055640516 176.97406580436655,65.63794677900262 115.02943860446248,77.94451692034602 114.45126544879895,77.8966626398975 107.07948489776027,60.004295918719095 106.689181608941,59.44579897219194 77.91712998224102,53.844948277320896 75.21588169781171,51.89533994763735 77.41526985771634,31.02422972254101 77.11322171553184,29.727818876599144 53.06762640886154,22.60667884254474 52.033031422157364,22.202523475432486 42.84837947550841,8.082355592726913 42.62439199104119,8.052549999999997 32.261548399903404,15.31912342072576 30.857621644485334,17.854306299217228 34.88240585776657,30.377605699620858 34.502297057748365,32.86791047160625 23.882261075523274,37.922487099632804 23.659729946732114,38.10310228807032 8.052550000000338,78.21584146292992" stroke="#009edd" stroke-width="5.189522295595505px" fill="none" stroke-linejoin="round" vector-effect="non-scaling-stroke"></polygon>
</svg>