<svg viewBox="0 0 196.08909260430596 322.3943407171894" width="1000" xmlns="http://www.w3.org/2000/svg"><polygon points="8.052549999999883,92.26197231325887 14.129339191109011,102.39775163829427 14.51847739550385,103.54220223820403 8.802573111118818,119.00979499132472 8.764707866684603,119.68257280495118 15.142088844418595,166.2077784741191 15.75841851553514,168.80848432539597 72.58890754657432,261.6234865789079 74.1341007910446,264.3270084078317 68.382370159939,266.85325711055293 67.31398772434432,268.3774189940664 94.1790873865607,284.0548705289616 95.51922576883908,285.23636932983163 116.17529915550358,313.97365295582085 118.291675048858,314.05332461404714 123.71863839109528,298.28096930261336 125.06547600878503,296.93056962112996 139.13474448884472,296.5665235031406 140.4224540710925,297.30194182202786 138.75638331552136,275.26349245067786 138.73016891544785,274.6415748980139 152.09485257775623,251.77776489951748 152.33078217771936,250.78524438266277 147.60257823099482,240.23364979887947 147.83821655993916,239.30107971406642 161.64271959997814,226.40774869602274 161.7609756710949,226.281779789751 169.85685620443064,186.13243740655116 170.25589762660775,184.49224004257803 120.25571615106992,116.66422217779427 120.29299885323371,115.77374111265044 139.96311952881615,111.53164610695194 143.69284610657587,114.2210046744799 169.7581152977432,43.09573550077721 170.2325959376535,41.48287695865247 187.11233936876624,23.273886712478543 188.03654260430585,22.145517036063666 181.70780390219397,10.361702693720417 182.3678242399833,8.235045491346227 168.08505403550907,10.185628377228113 166.2643183199466,10.652408412693603 132.29249481773104,44.89517262401159 131.35489311101946,45.794656341232894 121.72780034653942,44.928639720288174 121.11787863993186,45.32611839907577 119.2377236177922,72.74946511814005 119.23335455111328,73.36967175015116 127.64817695107877,88.3017666048031 126.621737555462,88.97784852595169 107.58891807110149,91.19034047573905 107.11501997322875,91.02349911290321 106.46490285333812,61.30901515178948 106.40723117322295,60.30278400218913 101.90010199996277,72.4450910719238 100.86055540442567,73.65479201419612 89.38767760885048,66.06230524942612 88.76493997322495,66.18745073604032 88.4162884532484,47.830171420100214 88.09385133322894,47.75636141098903 10.067272275547566,75.92886477153615 8.720725928760203,76.28228130817979 8.052549999999883,92.26197231325887" stroke="#009edd" stroke-width="5.727075586323337px" fill="none" stroke-linejoin="round" vector-effect="non-scaling-stroke"></polygon></svg>