<svg viewBox="0 0 2108.2824806932617 1189.9795067496736" width="1000" xmlns="http://www.w3.org/2000/svg"><polygon points="176.71425197341114,844.7699160970294 190.57322271107796,876.1767245118169 215.45330975109346,880.0823647003051 225.5944960267293,907.4367016959366 226.19014544887568,909.061477459654 222.96024009781058,924.7180744443101 223.0581071910924,925.2117428246199 252.2332780356296,932.886641832454 273.7721941600098,928.8774000358897 296.242304026709,970.7862330159767 295.937634444424,972.925910229598 320.08109684449255,982.8568636088528 320.35430914661947,982.9654780633061 328.1408597599725,1008.0385135378235 328.24367846220366,1009.0259252461035 319.0290255911891,1024.8148154546868 318.4922129333495,1025.2087505997986 323.9654883822436,1040.6607139242476 323.16216265780486,1042.883300080757 298.5331513155029,1044.2399206132175 298.1941117422898,1044.1626852441475 281.1844613955832,1074.9601576929342 280.94911433777406,1075.7301294776041 260.6850918667401,1090.2950291269005 259.58408706667933,1091.4060714374425 275.5868131821985,1105.449865538663 276.29984486228886,1106.4463731524663 266.8122709600498,1115.7131302853593 271.39017901334546,1117.6638088897232 294.4652589778193,1114.6539884972515 295.3932487377674,1113.6452556096845 302.6158984800345,1080.655613099843 302.56550857783395,1080.5534069275961 348.1369128088477,1066.7914749929112 349.00693961777824,1066.954106637662 365.70696877336695,1026.87626516648 365.4340477422588,1026.7953887332476 411.62760706662766,984.6746715992119 411.8297492178167,984.4610799483851 407.85710253331445,964.9833660434012 407.1315461955742,962.9913217204519 415.8679319022699,942.5607923523419 416.83466071994144,940.5521790268028 374.96065197335656,926.5204586388206 371.7729809334046,924.4916957513558 351.7285768800425,897.9064699260414 351.30477741335153,897.4532018207026 359.033947617841,883.7219580668386 359.1449219110432,883.5600986199931 408.34876816892165,856.3528133334255 409.8662906577588,855.0213936095022 415.09082057778824,846.8994657026267 415.0249933067021,846.1946202896431 406.5842477777983,827.1206354261737 406.81842975106656,825.7572018205317 415.7601615910894,821.0615219527751 414.79925819554,818.9121628647333 387.49579551115266,807.9253586059565 387.0533546933216,807.8453103055142 377.6112190844501,830.78612832263 376.83236013339,832.5870178143157 338.32369780445106,827.5253889192024 337.679988648953,827.5526756444958 344.3783503911468,791.8123147815129 344.3378637067285,791.6203665053833 303.65748397328525,792.4109012073966 299.75357727110486,791.9446771195287 292.95501826666396,783.1999472880632 292.7030687555448,782.6754797421524 298.8462677600105,769.9350327012723 295.87501115559235,768.5289343045222 254.66364418666444,759.9056355567661 252.28279412442453,760.1003413732758 275.6829326489019,821.6240993122699 277.89076767114557,826.6335658975074 250.42914477337717,823.0930697059155 242.74366523556046,822.5027540043591 225.0620524355686,831.4696495006572 222.3797367732982,835.6275766557444 202.7626274400168,827.1433744064777 193.74225240000624,826.5271471995873 176.71425197341114,844.7699160970294" stroke="#009edd" stroke-width="6.426265052888581px" fill="none" stroke-linejoin="round" vector-effect="non-scaling-stroke"></polygon><polygon points="1167.9701362044793,588.7868404616381 1178.7148362222138,594.8050886498893 1182.5255361689265,597.1624445862033 1178.7861976444033,608.5901136599493 1178.6830876711533,608.8036198800326 1240.326540542162,633.3668147919595 1244.1311237956174,635.0487184428273 1238.6100798843904,691.2404824366456 1239.2208754044036,698.9641490053398 1199.792378906604,708.1754898168508 1197.7598890933218,710.0670357910928 1216.4359014666184,763.5463324993977 1216.760960026622,764.0176215584286 1200.1308359377795,778.4683217627241 1193.582770088898,782.178758228001 1211.6156558488506,789.4907299423137 1212.8063721511057,790.0047193194403 1213.535715013371,807.411866439659 1216.327257342265,811.8954444125773 1237.8982132889573,829.8311051121343 1238.195892364463,829.9889116178163 1248.1250332711274,820.4539185768588 1253.7378275822625,816.7864321833256 1288.3886040445427,848.3623536924495 1289.5018422311182,849.0053482823203 1332.8240509421807,850.9220429322811 1335.608894035547,851.4245188040438 1323.9895068711844,874.9991079362005 1323.946981288936,875.2328130460007 1348.79764994674,887.4774271194253 1350.5178971289201,888.0521081844706 1358.3452256978267,838.6517217575235 1360.2961596000018,834.2232675989287 1353.0656455377825,829.2494484431006 1352.1726083111494,828.3339840894694 1351.5478317778102,808.5684728580889 1352.132121626731,807.7475239895646 1377.9914621423009,822.6396455386782 1378.27661656004,822.7124117677229 1377.1467759200382,867.8696172805865 1377.535331582279,870.0776018863905 1405.1332693600339,881.0803604515747 1406.14048486224,882.2865879240342 1410.641497342243,868.9195040265693 1412.361161982269,868.391605781311 1419.453030995653,879.3876296450396 1422.346809484508,880.7075334178878 1440.8862157066828,883.2450179465011 1440.7787366666375,885.2268814230699 1440.9299063733556,873.600509459189 1441.1046690400467,871.2134138953768 1453.9508901245204,881.2354017492978 1457.6337220533528,880.469287515072 1456.0739652532861,859.8759433895827 1455.6530784977144,854.9413626557578 1467.911514479994,846.0718405322766 1469.3894240978184,845.5620764275443 1486.1086771467012,847.0777230189776 1486.3338297155929,847.049074531569 1487.3369674222554,876.3795103514929 1488.2174799911222,879.0275304965105 1500.3212510134103,885.222334842583 1502.6045252533872,885.631981368271 1523.5550737334192,874.8754350915913 1525.8529115288761,872.3169373318449 1565.0003314044802,879.7277227375087 1569.2156069244734,880.3774445590459 1662.2429394755522,871.4284809133167 1662.6064458222604,871.2647935617495 1664.2661086133226,837.8645385653142 1664.3054302133164,834.2892084799021 1690.3165229778747,791.2228238020687 1693.1526297867308,787.7372437585507 1688.4037455911525,687.4374780067953 1686.9948672266687,684.070828357864 1716.0782876711814,686.014462820174 1716.3351887911335,685.9343695872592 1715.9999357422125,672.8136981599744 1715.8805145866713,672.0022484193685 1701.6545422489066,669.5724321031373 1701.3131725067283,668.6157897141891 1707.8155087911068,661.6438238509361 1706.8444109067564,659.9857928922645 1700.674706231082,657.235882183573 1699.8946821955974,657.412019513991 1695.4743518134123,671.7082507375524 1694.8443323999886,671.3569093328331 1689.4916431910601,661.8240537386516 1689.1727013244304,660.9251784427686 1695.3630862489586,651.2616926893022 1695.187741039997,650.5238966496324 1686.6762166311742,654.858241812595 1685.653855031101,654.5778751528485 1685.1840347288885,643.3752014030831 1684.4576045777426,642.6501232186927 1662.8662596533318,632.196529898363 1658.6087498222255,631.8646976782254 1658.5869044889473,600.7776446729329 1657.0623914933308,598.0215210069798 1647.6150130044912,595.8171432037268 1644.6656017333512,595.3413916505303 1648.5590226755953,601.3831313102053 1648.2499840266314,602.6997174796195 1640.2129402577189,611.3429165688938 1639.95953439104,611.8209092185496 1633.9983798310636,598.6042524155125 1633.986728986703,598.5974235409301 1632.6713486489384,586.8883192084393 1632.6238714578571,586.4594423247979 1644.450643653377,570.126888837294 1644.4896739822357,569.2399275357382 1670.2735752800722,558.0733758197528 1671.312539333339,557.1954721795989 1656.487131048903,504.06977563704254 1656.6473301599976,503.89579115648644 1642.5923339645155,499.28651801087085 1640.2143966132785,498.92715455909615 1608.4774963466693,521.1737733993575 1608.402348399955,521.2425419125136 1585.4624182311595,504.04882463368244 1582.1736761155548,502.3431329026714 1567.479048560002,509.01871034465853 1566.2213399022362,509.12027482121607 1562.9375493955808,497.9219357618492 1562.3308316711114,496.94312965984113 1540.9958053243822,499.58484843464225 1538.6656364355945,499.5962350839179 1541.6776709955661,487.7451427993726 1539.307889235533,486.9298126898136 1519.9360301777265,502.1750680255134 1519.4679575022087,501.96510061118875 1507.2127255021837,489.64817512795685 1506.1123032445098,489.1585262306396 1523.0768065688676,485.4244046356541 1528.7964973777775,477.70270426051115 1532.5209810755691,448.9534444188828 1532.7036080622124,447.4445839224861 1507.9324564178019,422.66214491151163 1507.6473020000626,422.13817273537984 1496.5189979289203,422.6024577101123 1496.0550030488298,423.12642876528093 1491.6873927378106,409.9429325048475 1490.816783386726,407.6395886347525 1447.9145876178295,415.7510780241935 1447.4744769688473,415.90918571942143 1441.9563457689724,412.39342660117086 1433.4375395822349,399.31772930423153 1425.4567111377614,405.0938070365589 1423.5750997600621,405.78231472513994 1426.5009180711127,417.2173288306583 1426.224210515596,419.3383173620457 1412.5484493067265,427.23614047267597 1411.38016088002,431.8633457910398 1412.3337824977712,439.24862763830583 1412.7794272978567,441.8359226438113 1424.5893057689314,442.6910580923211 1425.094661146613,443.36896808344295 1414.4466631377359,449.63816841229686 1414.0680106933937,449.8928323403595 1419.5573060533275,458.28564108015394 1422.4950664799903,462.82745348235017 1398.565397075588,472.53850442360977 1397.4073031377989,472.3658612376091 1395.2216047199686,490.3974496744702 1393.932147511026,492.4024865306344 1319.8723897156083,463.09349050003925 1319.5956821600917,463.03381441653596 1315.1564191555149,478.4410877937114 1299.1437898222134,474.4949657618197 1298.8522274399652,474.6489310046088 1291.3039365955406,506.52285087787436 1290.9916939644386,507.35495903847163 1266.9769733955395,505.37055571171345 1260.630758426712,514.0258280072956 1267.1721250399492,524.5506915445801 1269.725116328896,529.5569955802418 1264.8314703911087,543.2628301313741 1265.6426604354997,545.600709477301 1250.1269396177736,547.1617103414972 1247.7924016621905,546.8698204262544 1245.7275807555775,559.3109953576129 1245.6652487377646,559.5127111920517 1188.0072584800432,539.9818331190397 1186.363906871156,539.3971228247171 1167.9701362044793,588.7868404616381" stroke="#009edd" stroke-width="5.876836625094975px" fill="none" stroke-linejoin="round" vector-effect="non-scaling-stroke"></polygon><polygon points="698.2066318489155,620.5092665221671 706.9284540000149,620.5770931563236 707.9289702666933,620.7755656015722 711.1443120622785,636.9782259652054 710.3931238667351,640.5381428352919 719.8923486133349,643.1462535623939 720.9616048622188,643.3387882437453 735.6279791199845,620.5470491464728 736.2958637778424,618.2067900944164 767.3797342133253,616.6799862140685 772.5442622843907,618.4148242584558 746.5742387466375,597.868098493236 747.7439835289038,595.3778128588817 777.5081045600596,604.5739724709781 780.227994195629,605.0547114892759 782.8374920800338,592.6503027149372 782.7955490400559,592.2564931286395 772.9491291289228,594.1103512144543 770.4975001866474,594.4545333410276 781.7455166844661,588.5159493557073 781.8736759733652,588.4754294804659 776.7248765422041,574.2374609514152 776.926727422258,574.058068976308 790.1530573066334,577.9823484180158 790.7055986043774,576.6952071474295 784.2475355289421,557.9558972189332 784.1307358132685,557.5866132958688 818.8286981956112,522.8993555323466 819.5548370755055,522.4489475837106 831.3906386755184,538.6603127504129 831.2420904089008,539.7054165328516 810.068136986672,564.8842939392559 809.867451191159,565.8250016307354 828.5213269600422,593.3054363865883 828.5798724533302,593.8645065043017 839.7003122045203,597.9942054339115 839.9443973955708,598.0087737399515 837.985016631173,591.1806836470857 837.4773310845262,587.2994392476173 845.0040678666915,586.3765806636436 848.6350535377637,585.9117352639221 849.8109150132873,594.7354328997096 863.6413411822646,591.5986246543832 863.879600951193,591.1205874883815 875.9329820711641,603.6721286952159 877.1586509067342,605.9529075798707 890.8620828711205,596.0069882694295 892.9362244533618,595.0518428265711 931.2430359022469,605.8846211347625 932.7730830488504,606.5633874446864 939.6348478843934,599.6636359002803 939.9890335555897,599.2926018772775 936.9408813777623,584.9028215504147 936.990980008944,582.2858159339883 947.6031516711005,581.9243133745983 948.9977577511231,581.9889650100738 947.0517754577809,558.1006964154437 945.372014960019,552.3582869549643 974.6377711200398,548.5473851941422 976.2592773955325,548.4385533453094 982.7461763111419,538.0601157985291 982.8256933244188,537.2112760017988 978.2040946044503,521.4643316045183 978.2978839021885,520.8631762671064 994.7098459289186,517.9165801955749 997.332159742225,518.210786175601 1007.8211237244318,500.1682995745575 1008.6885290933783,499.18722626745125 1000.772945377837,489.96246081489494 997.2788571289052,485.2490387219366 962.3356444710876,500.78272066449404 958.4238734488385,500.68024135955034 945.1663775555567,486.16139542012365 944.9834592977782,486.0520767968044 951.6794908711231,478.37048367798684 953.5803261422329,476.512448403613 943.987894640049,464.1225587020524 944.2267369511314,463.0233369346022 961.6208651644188,448.28147432793753 961.7586363999649,448.0545985324786 945.6294986222415,434.6940205342614 945.7859112089277,433.48986065792974 952.196788364417,436.42029029175296 953.0065220532483,435.4302723924991 958.8028171644323,416.62271930310067 958.8001957244483,416.5457161109441 939.2905654310957,420.9189073659725 938.011885253341,421.20413224030176 927.8779807556198,405.3280183683744 927.3927230845215,404.859139787244 903.6287869423172,398.74722164645914 902.9655626222734,397.9625433283288 907.4788084889074,377.8096466540371 910.9600808089376,377.2896676729795 910.1590852533477,351.0530369819387 908.03921410672,349.0056733981835 877.6951722933222,327.81943073546404 876.7001901777471,327.62479268157745 858.5790492710435,341.833367552528 857.1885209866809,341.8534226274712 848.3423260710911,323.8026493796276 847.4166664799918,323.16037683070294 831.0221807199773,324.36469327935606 825.7519212355614,324.2366039217811 826.7684574133959,307.3819374693337 826.9872020177786,306.8544957447227 822.0373407555521,326.80111167734844 821.8346160622091,326.95928419908864 796.4369402577645,322.6334293025791 793.1164495910994,322.733257695603 803.1245249688868,336.0300802706404 803.1256900533112,336.87788404178696 784.7470654843851,332.4957056304336 782.7710822666772,332.11600990789134 781.4766734489017,321.9095581202198 780.624414177822,321.7577636678832 785.265819333355,356.2871262248734 785.6887449867568,357.1034030565422 800.4419180355976,357.67538750466315 801.8260383555676,358.2323302753864 793.6421939466159,368.3646107107995 791.4608645955809,370.8315251451347 817.0376721332791,369.5376860268077 818.6816062844368,369.4114462914074 810.8592293243632,391.08304404668866 811.050885715616,392.543081864809 834.9415247911597,404.9634870032676 835.1899790488892,404.94480475426076 832.551354053408,418.33227425840573 832.111534675561,424.5607361044165 823.4249563289118,443.01315671901807 822.4713347111606,444.10382376678876 805.0664294666853,434.40516856613226 804.4212639556276,434.34594019709743 794.0849260355822,441.88148135683855 792.8100323822359,442.48331105817465 798.860607173388,459.76481549491996 799.2139190310622,460.1998648749793 782.5232105512182,438.4686516899744 780.9002479200494,435.67492979006033 770.7214876711146,455.3846624173236 770.2889500711822,456.59690083648434 755.3770342666899,461.590650394013 755.0307129155622,461.9673863720743 755.8605443112097,493.3038816633996 753.5426088089366,502.3303800168576 722.7322419467159,512.984244097526 722.0827073688629,514.4635012590804 723.1362349778424,544.7764892075572 721.6530824800498,546.6972363448365 728.2259063733286,551.5290834115947 728.9671913510897,552.9220160562907 720.3808102666876,566.9601289610507 719.2008709955039,569.8313872455981 722.6195200267025,594.2414682793094 723.8026632800243,596.1995647491783 708.131112417766,591.0996448837466 707.4941024977957,591.6614523178794 698.2066318489155,620.5092665221671" stroke="#009edd" stroke-width="6.262458633770421px" fill="none" stroke-linejoin="round" vector-effect="non-scaling-stroke"></polygon><polygon points="72.85134281774617,584.1893856031018 94.09228859560199,592.5715408548492 95.79622459560733,593.0791673710698 94.13248400888506,594.3780484710949 91.49764553781233,596.2728621351778 99.83906761775825,614.8695671056992 100.4708346577604,619.4700141702558 106.61199476439606,602.2271677604074 106.6690839022408,602.117907563377 190.05825538663294,610.0414055358049 190.7867244356089,609.936246381352 232.6237417511652,590.9498596741248 233.55813947562228,591.1779520038178 223.85298605330854,585.4509864420759 222.36954228449713,585.1309202324262 240.17378022216826,555.7128633667378 240.53408258673835,555.53527747983 249.82533976002696,573.525355892292 249.90806075555838,573.8349670745445 268.3705714044404,573.6205158467417 269.3099207378468,573.8340564540483 282.47683131552867,592.3912534836343 283.1033554755627,592.8355978454126 353.1595918489397,617.5276049591264 353.1916316711354,626.2343971663283 423.4674864621843,637.2299391762715 426.2307754934077,635.9240314815322 429.2218385333904,659.6876827718586 429.3444636711861,659.973959521252 445.3332087733793,679.2665043688974 446.52363380449924,680.2344770287525 441.98679497777584,686.8713675493852 441.3966797067328,688.8045103591064 458.14709876440565,693.5512859202352 460.37007988439973,694.0832496058208 468.17847583114735,682.8753320738103 468.53266150222726,682.1685890744336 458.2190427288656,647.2782015178598 458.0707857333832,645.6409982316325 468.27605165329396,605.5891682015861 468.30517876448675,605.1876429239417 447.6479402933978,555.9687689277705 447.30686182223826,555.8039329960372 541.6198650577348,559.4553383101372 543.0520451110565,559.095619101812 550.5109157244219,526.6984114821314 550.2114890222215,525.316240464839 556.7615937689329,522.6912298319874 564.2396882755925,519.1676359943592 578.2920630310905,461.7874460530363 576.7323062311402,458.89562522157917 584.6848813778265,454.2598849764688 585.4095639022776,454.2293623806106 582.4342295021993,447.5926458785905 583.2722164889342,445.76669322027715 472.7587140534083,447.04641065331066 472.21287199107564,446.7776205047628 465.3234364000159,482.4800604896516 463.0704543555398,487.73876592764987 440.82112799116976,473.4641246517201 441.33085243564665,469.30517995401874 373.2572985155052,466.1273827415787 374.097615671089,477.7746751286684 353.4127064444833,466.87081653372275 351.53604667561694,465.6262923520187 341.473794871104,502.23382242819184 335.2968084177478,526.8436869362265 327.10306079113025,538.6029343578628 326.96092048890523,539.1562253685331 304.78907224009845,540.9668204978004 300.6279731465979,541.4581740660722 300.175629111101,556.1636576579547 300.27029222224473,558.6088588697964 290.0504627467376,547.1403081302194 290.2855185332951,543.2059083297279 311.6120980178016,472.97626133249264 312.2368745511408,470.30962022746803 280.0977288799836,475.4515527795081 280.02112457770954,475.5982290828031 281.46990708445765,471.15371088564984 283.6023028889681,462.32772210698 274.81377965337697,460.0167342474231 254.8148138933825,460.308740970773 252.66843707554608,469.332967253147 250.99013293334383,469.19311966255896 236.14404439993768,456.7167120825395 235.14877101334378,456.5499785432837 234.7838083111924,470.1100991281344 234.5720542133563,471.06351678950136 220.9609551911485,476.5361351509707 219.14109328887525,476.4769182776579 208.7945608800287,500.7358079220646 208.75960834671378,500.8432972975204 80.07399256001327,491.35943241281325 79.013765715506,490.82742733442115 85.6442612889,556.408179018508 85.89271554662946,556.4737489453762 72.85134281774617,584.1893856031018" stroke="#009edd" stroke-width="6.041345340506489px" fill="none" stroke-linejoin="round" vector-effect="non-scaling-stroke"></polygon><polygon points="8.052549999999883,952.6740307455545 104.48338548452693,957.5291270783998 105.13641531553685,953.6594213591086 129.9926181244441,985.3986093997153 131.2287727200669,987.8248968540354 166.69481702216535,1000.8983892139875 167.4116352266642,1001.7081573532557 174.42748248004455,986.6483394152963 174.80147458668898,985.3095374588518 165.81226555558487,976.3080843172863 168.3093327911115,974.1498070353771 186.06230701329287,983.4040254129575 187.48400130667824,983.6071656988713 200.81227607999563,976.9656979206845 202.77922989332683,976.7893649589166 197.56605954663928,996.3923516000284 197.630139191147,996.6436488149118 228.34496912893474,1022.7996919867944 228.58177254218708,1023.3690173756693 268.33591014214426,1037.4535529352504 270.43917883557833,1038.9051637474693 275.03660205341976,1030.919594121551 275.135634231126,1030.7305830036419 279.70771686229955,1035.0423582544097 281.669136524411,1036.9869454611687 275.6010854666597,1035.435820527178 272.7440071378146,1040.9978288216878 297.7577876178325,1049.1038763011818 297.40272813334695,1050.724867812976 260.6850918667401,1090.2950291269005 259.58408706667933,1091.4060714374425 271.6377594577857,1101.6141315889324 274.6186280088509,1101.4601557765052 266.86353467553954,1115.5687021634437 266.8122709600498,1115.7131302853593 305.20646374228045,1174.5963880156994 309.7942750133584,1181.9269567496738 368.7227898577471,1158.0032815874217 369.2817391200001,1157.7753292714258 374.60530121785223,1140.7872145299114 376.4414743023003,1137.8299390650716 399.7452020889391,1128.524613158697 400.8258179111649,1130.15091673463 404.78710502220883,1116.8608308517503 404.84302907562915,1115.665895941587 427.96937275559276,1118.2183525124344 436.9705239023092,1113.3668426922884 416.3962976977705,1112.2831635713007 417.3030246667108,1095.1479620502575 461.6507989599845,1097.43131038166 472.95037044442824,1098.0508580918902 493.3288624622869,1066.6188490916172 493.4858575911271,1066.468028455194 512.9139319733727,1084.2305276586337 513.9741588177635,1085.0268125688087 521.5474989777208,1073.4229315332266 521.6826487732828,1072.966395075702 507.2490001333422,1055.2597636225762 505.901579973382,1054.7981916939386 511.5819491822981,1001.5595637624281 511.62476603556524,1001.498672169844 561.4420292533246,974.7665247980983 563.5924838667047,974.2847852066986 579.935705911113,983.5885331526295 581.0739934133376,986.1375415423897 585.5091786222542,979.1184937081196 585.7241367022284,978.6731207743649 594.6626645599968,999.8977624653851 597.435274266732,1002.9864215720806 621.2507653955613,987.8408023763111 621.6500980888736,987.7262825892901 616.2901271021469,980.2246507007292 616.3000303200456,980.0537738993078 627.729799991102,966.2800257436827 628.1495216622493,962.6050002655609 654.1888677244783,966.6577054007573 656.1432968800432,966.9367607065722 642.3387938400042,955.4597475639091 639.5571547288923,951.0223097082123 642.5065659999159,935.9148886007385 642.7955069422965,933.43711132164 684.0601765244278,944.6443852059672 684.2663964710441,944.6793843045959 683.9395902844622,982.2924311355816 683.9358037600537,993.9388939112321 688.9246953511388,993.4217511212116 693.1714281510572,990.5320000076097 698.3478983378513,1007.5991070699308 700.8548687911602,1009.1336178303243 720.4574145688453,995.7693332018459 722.981570017851,995.5562068774959 746.4536525066719,1009.8970067716798 749.0750925066891,1009.4998630973639 738.0265967199589,1003.4262917729573 735.4875864444543,1003.8779757431837 730.0845073333253,986.5429079241364 728.7845643644464,983.7412290947175 735.1360222133585,979.8142734755891 738.739337128914,978.9526151200187 740.1916148889354,985.9071367710492 740.6931837422085,989.1014249346115 763.3706786399484,985.9548537555745 763.4938863200146,985.9075912185142 769.342901502248,995.1313168869017 771.0034381067157,996.5391310212215 832.0477463023049,989.8448888855416 832.9381620888375,989.9584986786138 840.6600505155288,1007.9058283277916 840.8403473333233,1008.060324797443 872.5230711733234,1009.4344297450514 875.2933507110934,1011.57463543272 881.427520311066,977.699659614045 881.5967488266538,976.7830024266511 931.4681884711385,1010.0392331055843 935.9584239200699,1011.5878128547117 936.0906610043962,1023.8320191267774 935.7839525243976,1025.718547963457 952.2256242044746,1024.549465427677 953.9516968088933,1025.2805403187301 967.946982426663,1042.6670396289917 968.8668165956401,1042.9905215694814 970.1708373600627,1039.305888405688 972.0396328088605,1031.0536283482577 1000.3293394755815,1043.2145052716148 1001.7705489332798,1043.8537434934767 1012.1010614310867,1032.5025557838742 1012.9952637422607,1030.2476043287095 1008.6637710488644,1015.307903465851 1008.9270801333255,1013.4530916007132 1016.9687842400522,1014.9407592080895 1018.0380404888197,1015.1779490098486 1024.3860030844585,1001.736331050204 1028.9181815733677,992.6319471927488 1042.2962637066153,992.590593743407 1043.8845650756043,992.572416400573 1047.1354419466584,982.5396545571055 1047.6201170756026,982.3492380128371 1090.6149370576964,987.6222149526945 1094.612924328983,988.8828387783503 1109.941940364522,1007.122893059546 1110.2506877422343,1007.0974464801036 1114.2641123821736,989.44679970228 1123.2125434578406,971.6411065783248 1143.5654036177798,971.5565737760987 1145.1178786400483,971.459315565218 1148.7276015199964,962.604545769376 1149.709185164516,962.3941139112355 1155.9252019466144,930.0797257749725 1159.7245423199852,914.0221054840729 1147.9050519022635,912.1100586406317 1146.8806514044768,912.4182784558286 1148.9818811999644,885.2868962774298 1149.4147100711484,882.9935896066379 1167.2559394399645,876.1230726212159 1167.4976944621662,876.1780885428086 1165.723853395531,869.1909550797789 1165.4812245599237,867.4922206324188 1190.7827808977813,870.5791240938486 1190.982592880005,870.6091335454619 1193.1802334133313,858.9683381655848 1195.3813692000472,849.2313508793375 1226.3807710133037,854.7603834587278 1226.3490224622433,855.500669272187 1248.1250332711274,820.4539185768588 1253.7378275822625,816.7864321833256 1288.3886040445427,848.3623536924495 1289.5018422311182,849.0053482823203 1332.8240509421807,850.9220429322811 1335.608894035547,851.4245188040438 1323.9895068711844,874.9991079362005 1323.946981288936,875.2328130460007 1350.5178971289201,888.0521081844706 1350.6116864267747,888.3608167684067 1339.3325039200495,914.7421872393822 1336.2805652178135,921.2987310010137 1335.5561739644977,976.551224340197 1336.6053325066819,977.8196382558451 1363.7063617688614,984.6919407023013 1365.019411937777,985.431784143824 1365.5908858577964,996.9312997006125 1366.6982986222497,997.5388643807162 1419.3941942311135,1001.5032163190551 1422.9826543200538,1001.7195177153696 1428.5115625511166,1015.777283773619 1431.6281634400143,1015.7536557475466 1440.5611571466793,1012.9823431028415 1443.3148342311392,1012.4275310646988 1439.3992766844817,997.0953468758742 1439.291215102166,996.5436752741587 1473.3574104445065,980.1660254302913 1475.223293182185,980.0742245874496 1476.1655552267107,945.8698048350996 1476.2072069955534,944.1239433996741 1574.9454922221844,946.3638797122182 1577.3071183911302,946.4247867490992 1578.4963783378257,895.699677289849 1578.7462889511148,876.8009951124911 1661.6871941955537,871.6408195995389 1662.0058447911647,871.534877625563 1667.0043483288969,867.3676341252065 1667.445041520033,863.7709636533762 1663.866484648875,839.7790577120975 1663.950079457812,839.3797840896657 1730.6884466043916,883.9865707231581 1734.3243838845297,887.1073389837181 1755.912524826686,871.8558861943673 1758.10026214223,870.2644792902645 1760.7097600267512,887.1773557063786 1765.9520574843987,889.2446574764688 1773.1720857866817,881.5332080372389 1774.945926853317,881.7050716330193 1801.4783949067128,898.527041074856 1801.9048158132714,899.1630678349536 1857.241375315563,899.630425840536 1882.9046903733174,899.9345717071917 1883.99637449775,807.8571356245445 1884.1658942844729,807.5619572780922 1916.638254106721,811.1036161572918 1917.169241342322,811.2155001639401 1912.537156862301,822.6692068222108 1912.8138644178175,823.0412238610804 1929.0379565778198,820.2369819300145 1929.5808859288004,820.4107131822745 1922.4997939466043,825.1459733042063 1922.195998177725,825.4961565186165 1925.958638391086,835.0809522531706 1926.594191955613,835.7385385129962 1947.6029946577978,826.208800356522 1948.1115540178503,826.3193122420705 1952.0856570577957,836.5484674026154 1952.083909431101,836.8240517266456 1946.65490719115,846.6680038158445 1946.932779831091,846.8840046018956 1963.2040579111558,832.64568290281 1964.854108755571,831.407800700086 1939.559834195628,813.0779510817154 1938.1975592089361,811.5388719081309 1925.1119132711096,780.5284701715934 1925.0114247378438,780.1350010749081 1933.0542939288785,767.7028301938333 1934.003255208932,766.4946017848922 1923.4939022488902,750.4863058140397 1923.310110177706,748.833502289235 1929.7591438488812,753.6249146158004 1932.8658415199966,755.6188789410878 1949.5693659288586,715.0413090168511 1949.715001484357,714.7196136720374 2054.0649159376985,721.4514558250446 2056.5986833333513,721.577491028969 2076.4167697333974,684.5746004209284 2078.7076170223077,680.2121777541249 2070.146285253322,676.7999066738773 2069.772001875542,676.6274258240953 2072.317711386691,664.2935522372497 2072.5466504801075,662.902699183185 2065.012923191163,650.2844878958201 2064.5765990667055,649.7132739286533 2099.2885424622577,624.182344158449 2100.2299306932614,622.7834956675431 2092.866014462175,611.760363541114 2092.2939580000016,611.0388216498902 2089.6655274933214,575.8114598195896 2089.375712737768,575.4535889356409 2078.478386657756,581.1084262931615 2077.701857875661,580.9203893826123 2073.7921257511257,565.2189605017554 2072.26470004439,564.1234378347069 2042.6336899111989,568.2373108597019 2041.7435653955686,568.383013843071 2044.799290622213,556.2410666845751 2044.68715124447,554.6373281558406 2036.2836884178464,547.1434956937226 2036.2769891822022,547.0560653629143 2049.2787490399564,543.1321376525227 2049.908477182245,541.2077159450052 2040.3527458400708,539.7468562741194 2040.101670142241,539.824726535742 2034.3525609511194,519.9600738700608 2034.3205211289237,519.7956660198176 2015.2565356355403,519.6002892160684 2010.5906637066287,520.6837401847367 1995.0184362933283,485.75509425884934 1995.7171956889574,483.48261779957807 1963.9036911200742,469.61630639507325 1962.3022825510484,469.25279405262677 1965.024502355583,426.40919254194137 1965.7130672621784,424.6504939041695 1894.7894255199712,400.0140017934971 1894.2307675288534,399.77386094516964 1877.2126703200406,382.78652529276565 1874.5481221955047,379.49079716447864 1869.3078636355708,355.1905484950764 1869.2129092532919,352.3816252315662 1875.624368951168,327.41511214702746 1875.668350888976,327.3558545679914 1845.8491796178055,304.4666320315225 1838.8749841332678,304.1735037659889 1837.1824077067208,262.00175852949155 1836.849776097784,261.2489591110859 1812.7948601156018,239.24244257363148 1812.376886071033,238.72988359924761 1805.2034611466584,217.6313761438139 1804.3366383199823,216.13550001200178 1791.4496392800716,215.1695598813601 1789.48210292447,214.6833957517881 1785.680141111115,194.4965888752265 1785.2307097867374,193.91368350477546 1784.2992247733996,217.6227110374382 1783.3700699289107,220.08814787897404 1767.2744283288262,218.00078299022402 1766.6292628177684,218.05642199159024 1764.8696940355944,244.99177554975154 1763.720046960028,245.4135757835245 1701.1754012710658,244.14042057898018 1699.6071976088929,244.39486981693312 1680.1325198488553,229.47397276337847 1677.9313840622558,227.44233479831723 1653.6268487378034,233.9640303755657 1651.4635781955217,235.2313170396735 1638.294919991145,255.15442498503376 1636.2985477956022,260.07757795803604 1574.520527671069,242.5539821281925 1574.3073172177897,242.79612108416745 1565.0221767378748,238.99209141100414 1564.8710070311568,238.4986844484008 1568.5768493778082,214.73857953996753 1568.5474309955966,214.65055911089416 1560.3321293067197,214.17625152096275 1560.1943580710572,213.84560378947185 1570.4325376266856,200.46329694029532 1570.9475049511307,199.0963779347146 1567.3235097867214,188.49733215969877 1567.7015796889095,187.54768929506076 1575.9378528977754,189.8643179731805 1578.6187122044862,189.95919020896667 1572.1906500533,181.83058716919163 1571.97831341331,181.44515400581417 1587.1098476355905,180.41155115862034 1588.215512773349,179.72916988007614 1569.1631781244428,151.42213891164988 1568.6138408088368,151.11739877801278 1578.8412433333938,143.8012260186731 1579.6163157600454,142.58678223277798 1572.942712062249,141.98776970120502 1572.446094817809,141.59359756662866 1572.8652339466857,125.26402218701674 1572.0552089866028,119.97553469331592 1555.7384926134032,126.97587489643024 1553.252202408948,127.50649174236582 1542.2520576267048,113.73558319386916 1539.190798248957,112.05374044561881 1510.9497338577416,104.78644194026833 1510.2177695556088,104.83754704349099 1474.4418127911408,135.67317363914458 1474.4709399022172,135.83011691561092 1463.649926853344,134.41351723808452 1463.6071099999604,134.76709773453308 1467.4655784088895,127.24779908286996 1467.5791741421922,127.15153065991012 1446.8963038133002,109.53551471714286 1445.984916506662,109.0769471811725 1447.704289875553,99.8857716164564 1447.6748714933415,99.05118645987363 1429.676938266704,94.70253057176137 1414.7880328800306,92.04492499601452 1422.2419518844467,67.38613983043592 1422.3861310845018,67.23279799664283 1409.2046569511072,46.38186220863258 1408.174722302217,45.898514407373796 1394.4742030488337,51.70820144381264 1394.0792394222003,51.8843746100099 1371.212127031154,91.4434911916394 1370.8267753511677,92.59433651230188 1336.5301845599674,79.09456380017923 1334.2635127733006,75.39718703614903 1351.8804633866307,73.05606052772032 1352.686993093324,72.50842494707445 1344.7178154933276,60.81059855761828 1344.1373121688152,59.92474727592321 1348.092773857737,39.105515289971436 1348.033645822295,37.022341013223695 1310.9961938755364,44.937292631111404 1309.4102226755126,45.24355131402967 1296.764104844398,25.1747053622164 1296.2307874400644,23.897061031580733 1297.8441381244697,34.18555857116712 1298.911938017794,36.83520123971516 1287.6085800088254,46.67351347665658 1287.485954871146,46.74745317237807 1272.1586864621854,8.07126646993106 1271.9259608443604,8.05255000000011 1267.057364222222,21.8420417401137 1266.3737509244597,22.240083426389674 1254.6631959022266,17.975247820526192 1254.356487422228,17.77987498298876 1235.5732872800213,36.43855567338301 1231.5499594221833,38.04430390176253 1191.9839829600892,40.09186667859444 1190.8625891821935,40.08228161038255 1172.0307467644811,62.019567494666035 1171.4103392977045,62.90632298342075 1150.1944428356142,69.75288425738813 1149.8329753866196,69.59589314021991 1136.1979921333036,97.58187072285341 1133.808112666687,100.81343959205674 1138.8954538933244,109.28912034075597 1138.8887546577967,109.46114014791215 1128.243960631174,132.42113739168394 1127.715303564422,132.60363230002235 1132.1898103733324,141.66157406222896 1132.2952505155477,142.80485340607243 1108.3516000978193,154.0156060988445 1108.3853875465934,154.43530235821504 1063.515946693347,143.00102603159735 1060.6090610044553,142.2231777174527 1037.2240685778447,152.16665192737833 1034.3285424621786,152.48690122515086 1038.2411872978332,158.34391285936704 1038.7244060712178,162.0439809703746 1015.9432186577246,149.42763433836058 1012.6573892533556,144.8245105251333 989.3329812178631,154.6346577968577 987.8917717600484,154.79432449196588 971.4798097334346,139.28329648150952 970.6837657866777,138.87452026669757 966.783936880041,153.57355557339156 966.4131487555346,155.94757072974585 952.2005748889419,157.337570998621 950.2103193866565,157.03329536415526 955.481452684478,137.490788811039 955.5268909778456,134.2022811309796 930.6602024088857,132.49824150917243 929.7036680800152,131.9995735660557 933.848455991108,144.49056354878826 932.0102440088299,149.28393076142652 901.5837724711523,132.97318401895586 900.5704402755723,132.87828684753163 908.5672886310854,117.88264321975998 909.4938220355903,115.96676518602885 893.7672209333173,113.81223767993629 893.3920637422484,113.53162737555226 893.092637040048,126.0702188968205 894.0762595822812,127.82358373449074 911.5851486132956,145.35234643196577 912.0637070489825,145.39796745262697 910.1445216977513,157.53099336886203 909.9301461600476,159.34705678417936 868.553628471192,167.08283299851587 865.7556781777889,167.5992106404517 871.0463266400398,169.12005425475195 872.2751994578643,169.00418951971346 855.6031323289276,181.6987645430852 855.4624483821458,181.72157123152988 857.2531831733427,198.6863461628452 856.4714115111633,201.65187549920643 840.5193665688635,196.9659374414839 839.6076879910902,196.75704277031014 817.9167283467027,212.98044451213332 817.8273081156435,214.10647348993348 797.3226957067159,213.90626058341127 795.5048727022727,213.6175705773419 806.4878324889355,220.85796407375142 806.6771587111066,220.89079977482447 800.1110340533555,227.24715062036535 800.0623917778498,227.316924423714 808.5447890755963,236.00609570337815 808.6717832800709,236.56699907125562 792.4736142488905,234.95359994078876 792.2239949066202,236.18667938505655 802.3899392266535,251.9657380811184 803.6045397600169,253.29675723313244 779.9375968978052,263.49184682753526 779.1269893955682,263.0244854735572 776.0022329155831,271.01782182724105 775.6934855378709,272.1946152247617 783.6792655911772,274.04664986590046 783.5272220710535,274.5112518406602 747.9874861778003,278.3876075490623 745.5949852711997,280.160714000034 738.6671018933189,251.33693242751883 738.6306930044443,250.51888956674497 719.6447681688946,258.92442933624966 718.3678356178348,258.9964728064731 711.1705264622356,240.396607858165 710.9261500000498,239.4107112255076 747.0411463378473,213.69373369686195 747.031825662219,213.39136139400193 645.273932826683,211.04716362796148 645.1029566844004,211.69797749401891 620.6157943734211,187.74062859974924 620.4800620355886,187.6338962396619 620.0119893600709,162.51794642062282 619.8876165955803,161.73332547900623 609.0893226932744,159.64083702772746 609.348845253327,153.36051335748175 591.3308143199897,160.10933358039597 589.9155279911133,160.15449531717582 560.7560857867134,145.81904902004294 559.7482877422367,144.92624563564436 559.9600418400728,127.8778771370778 560.191602373357,127.42573586587218 574.8871037423155,124.12795042774064 576.3288957422842,124.12065034898819 555.9798221066371,103.64980657652609 555.4540777511206,103.50059707588639 556.4187676710785,89.30104082663433 556.4863425689759,88.72059056492412 526.4909522755547,92.75450522217557 525.2210102311578,92.79420514047501 524.079810017814,78.14124718987273 523.9915548710628,73.22217638037523 498.6398999022563,70.48398674120085 498.23212034672133,70.65512460683362 486.34592884450785,55.87105292830506 484.0119734310788,55.798029142002406 487.1073115288523,82.41402607205214 487.4463511021818,84.11252697752911 442.04271903107974,75.25617252922507 436.8709091822161,77.32711422400439 455.99839177772037,100.21248641776742 456.8628844355476,100.42877499582369 450.8577479377632,112.77009936972877 450.6535668888605,113.44995373904362 454.9256402755632,123.55169970569091 459.0060572711295,126.36495673054719 449.09177119108017,126.83215643876588 448.2741731821802,128.30903014509363 456.32781940451923,132.75008435289033 456.43704607114296,133.25468163417077 447.85328642672494,148.1265432426369 448.3402917244016,153.1962836690725 436.0145721155927,153.76105079791864 435.81417759109854,154.23457816165296 436.9180951022786,178.85976923138492 436.7188656622088,179.3346102064604 366.1700898400518,117.83290999595897 365.36385140437733,117.03443924376165 335.80886303107354,114.68463682689594 335.70138399114467,114.733458223556 326.520227297769,131.80886585199164 326.13079782223895,132.13872621817404 297.599044862181,144.5288853590389 296.6480446844139,145.3103750845546 303.4425258933111,152.76882970261045 303.9117636533697,153.36872483863385 296.9049458044824,165.53414886244695 296.883391742223,165.577028631036 300.51670758226055,177.22997572777217 301.82043707554794,178.00313706135034 297.19417801776535,192.46918433617225 297.41321389339964,193.58346098775633 319.55564375999484,210.08439335300477 322.11475174231555,210.60933399960754 311.7950162755801,229.57612420348573 311.08839255999874,230.9278021215357 291.53623668439786,233.77614845513722 290.76058171559225,234.06435560630757 291.74478679997947,246.46100481684675 291.7986719555697,246.63610782734008 260.87412681777596,274.23358502941096 260.52372767110455,274.5221943678696 251.56539337777167,263.58349513114786 250.3475888622702,262.19964722209966 239.80473972447317,271.722713176139 236.58735903105799,273.90166101841146 220.27763316452138,266.6858357590752 218.073293395551,265.6909394676693 202.17629869326584,246.77609893462045 200.90693919113937,244.1199004660955 172.80801510226547,253.1326032058348 172.39615775118682,253.33277990591137 173.69114911111637,262.17365724282695 174.84953432004068,264.2564934274776 167.5048419822483,269.78174873771036 167.42882022224467,272.6715316144762 172.3431464088858,277.70553445528617 172.39120614223748,278.90919140904566 163.8313307289277,292.182713837399 163.4328718489046,292.72842724962516 169.52888493342425,301.193875779725 171.53778178661696,301.5508315348777 165.46652674661118,308.98112199913135 165.24865595551773,309.5764824416617 167.367362017721,342.2321897168074 166.93919348446752,344.06266009764636 137.8816961688931,336.15132552912814 135.9406654845002,335.9981736124389 127.20253215110961,352.8255496464333 126.26434790224403,356.94844286682905 107.15142886221975,346.1406081313396 105.64235323560524,345.5585659089627 98.55514456003539,370.54760126522865 98.56388269327681,370.9937671954174 88.52930164439704,370.5927192099987 88.20045655998501,370.62462078143267 87.06129524447124,384.33912765639957 84.87501428448695,385.8128819946794 94.4097741066721,392.111998062908 96.52702381331574,393.114061522974 91.33540752888757,426.88850379255723 91.41317691558606,427.660320254661 102.32273638222932,432.45107946036273 103.15227650662518,433.3878051815334 112.22391526224192,455.12544934006996 112.19566196445476,456.09806623010786 104.27134011555563,469.3981079567818 104.52125072896115,470.71458372128086 63.32969019559778,489.7046554878832 62.38568052449364,491.1735951705266 74.8785897511766,493.9789007316938 76.12464756446525,493.88734968545737 84.72646601775295,550.9038773280697 85.9576690044264,552.4329652075319 72.85134281774617,584.1893856031018 72.85745951111994,584.5973237386568 94.09228859560199,592.5715408548492 95.79622459560733,593.0791673710698 94.13248400888506,594.3780484710949 91.49764553781233,596.2728621351778 99.83906761775825,614.8695671056992 100.4708346577604,619.4700141702558 105.4437063378059,610.3427704493877 106.19547707550328,608.214542507463 132.08598360009591,625.2079178836791 132.56541584883917,625.0522385620641 129.69872557334702,655.4936168646452 129.42493072883326,656.6610454062245 139.88447632882844,653.7449655708986 141.31083096002794,653.2880017984205 138.93784521774023,659.2776100139961 137.38100112890925,659.7350163144654 146.45147479998514,669.191960182892 146.84672969775374,669.8687082205213 131.62956176882244,681.8873474988866 132.5325022133543,683.1433750180656 164.67310423995468,670.4353181030381 165.44002107551887,671.7087058426475 155.1898994043945,676.734373068997 152.0336856444842,678.3094495853072 146.0879684533934,697.8242508412002 144.93074832889351,699.2672107441247 150.48674477331906,715.073615029374 150.48324952004577,715.834852497828 124.03437627547055,750.9699065595994 122.65666392000958,751.8579457647063 136.01290071997892,765.7021531482822 135.96950132444135,766.0287769893546 135.2337504977836,766.3731417049783 127.58934018665559,763.9116271004675 125.23091800008069,782.8847210657912 125.01362975114125,783.5015269253415 95.7583593510567,812.23791719837 95.34912343996211,812.4885177925823 93.94665303998727,830.2681424450491 94.02879149336468,830.6215008114593 76.54262160891767,824.899025581173 72.60084966218665,821.8287552256149 69.71435295112997,843.7058155860648 69.63891373328033,843.8104068928294 58.42672358218215,838.104650205212 57.369409448910574,837.7904131380271 59.542874479993316,857.1817635016412 60.10939679106332,858.5349962581893 29.9642931467165,860.2738152261952 29.892349182256567,860.4315996271687 30.77373556441262,873.1235471272737 30.788881662279437,873.3749868855009 78.26694658675797,889.438338139247 80.43458619560215,890.3171733442357 84.33558018666326,900.5037643228786 82.21978683557927,907.1930297450524 42.04767519105326,941.6180782035005 41.121433057800004,942.2135249351629 8.052549999999883,952.6740307455545" stroke="#009edd" stroke-width="6.070258578198617px" fill="none" stroke-linejoin="round" vector-effect="non-scaling-stroke"></polygon><polygon points="1349.5666056800178,203.452518557933 1362.8753652889059,232.0181677449507 1364.3407502488476,233.85321654406266 1358.8275706578056,239.47637700549217 1359.0439850933394,240.8147689524701 1373.272287599953,263.60720513368847 1372.7080954578482,264.86747923240887 1388.7035397955692,273.0061931587186 1388.835776880012,273.14251971597673 1381.0305849155188,274.11002546372015 1379.5753944444946,276.5005030194077 1404.4511124178312,300.34182959135046 1406.993617946609,301.7108459931112 1405.3077407555897,312.2382615596068 1405.5186210400202,312.58836126377696 1415.1194994044267,308.2562935275271 1416.3501198488298,307.46900853820966 1419.8980932533518,331.83294699821977 1419.9432402755842,332.20626177252393 1420.5616088445308,331.73357861061936 1425.0227171822694,325.3192073203752 1458.8098748000116,354.7188269439282 1459.0190074577472,355.60529799716437 1484.820385022183,340.10269876503276 1489.331300719968,334.76702883086523 1500.9160266222675,317.2859335042665 1501.993729733374,315.38685929423787 1498.177495635558,302.32810863780446 1498.354588471098,300.2242113956379 1505.0905241867072,287.0054345943279 1505.8973451645356,286.2828122633289 1523.149333075598,290.5382708848699 1536.7068382133507,278.28365537120385 1565.8389009333691,293.56181149910094 1566.1697849156112,293.73550879784284 1581.3942346222243,277.7050785234094 1581.9208527911464,273.9659485381924 1563.324648702262,259.16381419249933 1563.245422960004,258.99875266271533 1574.3699405066213,243.35791890140513 1574.3585809332794,243.14040482175892 1565.2077164356374,239.1881770456455 1565.0221767378748,238.99209141100414 1568.1000385689326,215.83313111364964 1568.5768493778082,214.73857953996753 1559.9651277067383,206.8020032610873 1559.6292921155468,206.63097282002104 1546.393350284408,239.25019479080925 1546.1810136444178,239.90913223868824 1506.4102735910342,240.11205720876 1505.9509390488743,240.03271128788015 1494.2998033333347,229.55742684522534 1494.1597019289397,228.89389760202153 1474.8117271022415,262.3806650616823 1474.1316090577525,263.9719740773214 1431.9596299645268,237.81511786455644 1427.7117320799512,234.82089755612083 1430.2195763466657,219.76480602022616 1434.313391813404,210.12042320337036 1422.8996420532708,206.21958704657277 1422.0214596533692,206.4052124312509 1424.0856980178282,196.58737271474797 1424.0781249688948,196.29044979802688 1417.5772450399595,195.3755050435791 1413.5792577689058,197.54609800517915 1400.6019646845302,175.42227271994466 1400.4912816622304,174.6148910352856 1383.6770742310687,177.35769578410668 1381.6096318844716,177.40787150004303 1349.5666056800178,203.452518557933" stroke="#009edd" stroke-width="6.224955771396453px" fill="none" stroke-linejoin="round" vector-effect="non-scaling-stroke"></polygon><polygon points="1741.3530470666951,678.6566839291261 1751.208205111186,690.3831398779073 1752.9153450933295,689.8930332963134 1759.2752498044642,673.4444696723729 1760.7444212888145,673.697050824914 1764.426670675493,683.3376945687703 1765.1615476888614,684.0307813866891 1779.051393164416,683.0737475958083 1779.7393755289736,683.5197267771944 1781.8015749956026,695.0461506197823 1782.8553938756008,696.021333827324 1796.237553804392,693.7201128597733 1797.1337950133961,694.316694336281 1775.1903033155027,705.3224412761408 1775.663618871105,707.9420599801595 1784.981090444467,703.5873872129375 1785.3667333955887,703.4809082274221 1804.6372301067236,717.015607070796 1804.6727651821925,717.0101469487779 1801.0540128977514,724.7815816540167 1800.307193768887,726.6788979029295 1811.780071564462,756.7252642109886 1812.2024146755934,757.1583542788064 1856.3189197067181,799.9344825247897 1856.9416573422272,800.3970507847623 1896.7540491644536,815.6798979056546 1898.1705005777544,816.374836655137 1916.638254106721,811.1036161572918 1917.169241342322,811.2155001639401 1912.537156862301,822.6692068222108 1912.8138644178175,823.0412238610804 1929.0379565778198,820.2369819300145 1929.5808859288004,820.4107131822745 1922.4997939466043,825.1459733042063 1922.195998177725,825.4961565186165 1925.958638391086,835.0809522531706 1926.594191955613,835.7385385129962 1947.6029946577978,826.208800356522 1948.1115540178503,826.3193122420705 1952.0856570577957,836.5484674026154 1952.083909431101,836.8240517266456 1946.65490719115,846.6680038158445 1946.932779831091,846.8840046018956 1964.854108755571,831.407800700086 1964.8692548533213,830.6351439801872 1937.29753147564,810.241743524595 1936.2454602222201,808.4906988877117 1925.1119132711096,780.5284701715934 1925.0114247378438,780.1350010749081 1933.0542939288785,767.7028301938333 1934.003255208932,766.4946017848922 1923.4939022488902,750.4863058140397 1923.310110177706,748.833502289235 1929.7591438488812,753.6249146158004 1932.8658415199966,755.6188789410878 1949.715001484357,714.7196136720374 1962.398693288887,721.5433659810003 1968.3674208977968,709.5287408868096 1968.3709161511865,709.3285294239538 1951.6309828533335,701.5847544753121 1947.8750418756167,702.5239601304418 1949.4822758666483,685.3209272555903 1949.8230630666726,684.5746004209284 1991.4028879911416,661.4349208394194 1992.4141812888915,661.4972731754312 1987.6335485422528,656.4125406751771 1987.1762528978065,656.0980406902161 2001.7782562399293,648.9222197545821 2001.9736991555906,648.6837195417972 2016.681142640045,617.2034890520515 2018.5639191021687,614.1298265159492 2008.3997224089467,609.3303283568018 2008.0146619999791,608.779492321926 2022.6801624444556,594.8915892234434 2022.9825018577753,594.6507533303591 2000.351610337711,600.5563912399009 1998.701559493296,600.2846043068928 1983.8257613066594,583.2715219957533 1973.5089385511596,579.7757737803402 1944.4214403111032,586.6574906725798 1942.9895515289168,586.1480280057656 1930.6012086311598,626.347286831158 1929.8829340711013,628.2085922404437 1924.344413893275,626.4324092412496 1923.6141972177206,626.2994908108155 1926.0929143733588,640.0674961323746 1927.184307226656,642.8235413850996 1909.2606481333273,645.454382672651 1909.105400631182,645.5049054373883 1867.185953591113,630.6220293037256 1866.1341736089448,629.9538076189126 1857.4507992444337,640.1116477523826 1856.4744584799987,641.5349637220277 1826.9978220355474,626.9431430012698 1825.2420397777819,626.412380441943 1824.5887186755203,618.8536527824251 1823.9986034044773,617.9978452957364 1840.8046552444353,608.0010357081553 1840.8672785333833,606.6935865077319 1824.699110426685,605.5363599308546 1821.3730856089164,603.4313025404479 1814.2477204177771,588.347040612636 1813.8542131467034,588.092994331302 1798.5094684711435,584.7339099967865 1795.768024773431,584.8755043269264 1793.0667764888854,598.4503750549991 1792.6359865155314,598.5036403074989 1755.352993022279,591.5112122226635 1754.8863767022044,591.0868972103706 1746.0862026222526,616.6103374804732 1745.842699973356,618.0920753278549 1741.3530470666951,678.6566839291261" stroke="#009edd" stroke-width="5.711487724897234px" fill="none" stroke-linejoin="round" vector-effect="non-scaling-stroke"></polygon></svg>