<svg viewBox="0 0 391.2025805334117 359.6371710390806" width="1000" xmlns="http://www.w3.org/2000/svg">
  <title>Kdyně, okres Domažlice, Plzeňský kraj, Jihozápad, 34506, Česko</title>
  <desc>Geojson of Kdyně, okres Domažlice, Plzeňský kraj, Jihozápad, 34506, Česko</desc>
  <metadata>
    <collboard>
      <support-module name="@collboard/map-svg-geojson" version="0.11.0"></support-module>
    </collboard>
  </metadata>
  <polygon points="8.052550000000338,240.71312601809723 60.74291145776078,232.28620793895197 61.78478822226316,231.89618512299012 72.08966886226699,224.80319538780122 72.1088927555611,224.69003131878662 58.57002896883205,214.7658079902535 56.70443750217237,214.6843977167514 64.36428518230241,205.61725171269018 66.05365762671136,204.8312954984499 102.695854675585,213.56701630107227 105.50225183109433,213.9651232211395 110.533960275563,221.7862124425369 110.45240436445602,223.22873354421563 103.29266918227222,235.47748102676223 101.97991028437536,237.0871890113699 110.79348283561558,241.9560478628623 114.35834996435005,242.5173506755159 114.52932610663265,255.43005056205538 114.78098434673302,257.7489072548119 131.04585446228884,264.449080567028 131.03915522664465,264.5014039046141 136.94409446229838,245.16015080162424 137.064680702264,243.95705229617988 128.4782996177455,240.51499137198653 127.82352216004074,238.92632969769284 138.69434256884415,212.1293522762494 139.52359142222122,209.25131210566133 157.3624906223049,193.3762351725959 159.05244560886786,193.5238614898185 177.08212738668226,145.22150424993697 177.16018804439955,145.02775804684597 199.90118004449323,134.74643571538718 201.60162079110887,134.64396461743263 229.31169794660673,148.67087400702394 230.74125656006072,148.6583455858995 237.08193737778493,158.2222450086624 239.29821926225122,159.0056833154881 231.72575291558314,176.62850441630098 232.67558800892584,178.0332941762531 213.11789798222162,188.82884869757208 211.3289108177196,190.01793335632055 220.92716774225846,198.8459477084466 221.47708760001842,199.58584930244933 206.22118061336369,221.10319217338792 206.0280678666677,221.57687836155628 215.51535049777158,252.4447940378227 215.38136578663398,253.11519449935395 189.78853833777976,295.97185968378426 189.36095234668028,296.8205373128071 163.92832400892075,314.599983186788 161.9406899467358,315.826838930348 176.0629697688637,351.4639226506474 176.6481334310738,351.5846210390805 207.59918424007628,315.6421850594702 207.86773620438908,315.2098350749361 216.05187188435957,287.28189199369035 216.57674242670328,286.57895276862064 270.5853969333475,238.52558439956147 271.8224253422595,237.54697562501633 311.0508185867002,232.61584824298143 313.4179789066329,231.37913546103619 334.65135163555533,244.3403449880202 335.21933030218497,245.4074784149193 348.7605242577629,224.3384619423664 349.3008321688758,224.07858650768276 343.96882320891746,221.28479436427688 343.55550950227916,221.17475955709915 351.08399391113926,188.05849019261177 351.26545581335813,187.37715460829304 356.2528910488836,184.42005318011024 360.2800054311301,186.05295071643877 365.75415469331347,159.8052259848696 366.43922434675187,158.6441655859594 370.07021001782414,164.16932649681212 370.3824526488097,165.1952399487268 383.0917763111429,149.45926821305284 383.15003053341206,149.43152680769663 363.3931110666381,130.9044080702365 362.0261757422486,130.54239664631996 323.1697357066223,139.29359853614687 322.3125248265933,139.44439340892814 314.0913977155942,126.02995700340352 312.8497089688681,124.69464373580513 283.5522042577868,113.61400514227671 281.2310647733757,111.87137498913899 260.36556745784037,79.78061319216022 259.04640059555095,77.48091536106176 257.75373940447025,48.53077309273749 257.59412283552956,47.962260045147104 238.47100930670422,34.761152588157984 239.69027017776534,30.62906852106198 219.75363643558376,34.436587583076744 217.9556198667051,36.204453784717316 221.2863050221713,32.51470525415016 221.53767199102003,29.90113320280898 204.62093712887872,15.57652303527675 201.54802690665383,14.280385381170618 179.04704230229981,28.361985273636947 178.1784718489289,28.223201771593722 165.7178937155768,9.200974326442065 163.43724091558397,8.052549999999883 149.44457673779834,20.730105621368693 149.37117641777877,21.032305696374806 124.62856934229058,15.837540505140623 120.78845101336628,14.352915565810235 122.37646111110371,64.89302269797872 122.51277599109017,65.5407194393697 136.62719149326585,97.07188733822068 136.47427415996935,97.52435854441819 148.33862032890465,99.49445475973289 147.74122328006342,101.4815398254209 68.38673922661837,137.2030429368383 67.48845912001707,137.70107307597164 38.40707757333439,168.45862404115132 34.3808370043771,164.66684814063 23.3952557777302,179.92750921493962 22.693292399962957,180.97348114438455 21.56170413338259,212.26533583479568 21.85122761780076,213.19440546338546 8.052550000000338,240.71312601809723" stroke="#009edd" stroke-width="5.54779166255809px" fill="none" stroke-linejoin="round" vector-effect="non-scaling-stroke"></polygon>
</svg>