<svg width="290.4943712709937" height="402.8765878332779" xmlns="http://www.w3.org/2000/svg"><polygon points="5,137.69220076239435 5.133110897731967,137.8230825662613 12.152744675520808,143.0916784775909 13.40637553774286,143.8684908086434 13.697064106701873,144.14093093259726 13.45822179550305,144.78908778412733 13.093550364370458,146.2803755091154 13.252875662175938,146.14415680977982 13.894254648825154,145.7533066109172 15.166818133322522,145.67941002629232 16.127430257736705,145.80450001347344 17.404362808796577,143.50301096367184 17.591941404389217,143.39839725475758 18.516727182199247,143.38815846352372 20.096581688849255,144.18767307698727 22.141887431032956,144.84562335332157 23.484647253295407,145.14877840236295 25.05168583104387,146.71351480158046 26.785914026550017,148.26087906130124 28.135955626610667,149.07284031627933 30.81681493332144,151.24829415162094 32.72464071109425,151.4161152568995 34.69683740439359,151.05821545107756 36.57699242664967,150.4679465929512 38.88735487998929,148.20167343621142 40.58866944001056,147.75429207179695 42.14900878223125,147.30646464356687 43.806923946598545,146.47446475247853 46.34302151098382,148.01203726709355 48.165504853241146,148.67709860845935 50.11381731554866,149.87099887948716 50.26294812443666,150.184385501605 50.94656142219901,150.98921728751156 52.78564721776638,152.33668074768502 54.8909548089141,152.38698232965544 55.12688440887723,152.9402989752707 55.954968177713454,153.58353339630412 57.898329031071626,153.99662690091645 59.2649730843259,154.65232222288614 60.83405056002084,155.2465861577075 62.337009493261576,155.72689269296825 64.14201656880323,156.97150050045457 65.8651764622191,157.45892546512187 66.12528156442568,157.6254064392997 66.4392718221061,157.579112277308 66.74685411551036,157.70953715126961 69.28877710213419,158.10615293250885 70.04287800891325,157.62362589489203 74.25698844436556,158.30423798854463 75.31517639104277,157.87067630887032 78.53226581332274,158.56953814451117 80.42465422220994,158.08078022714471 82.04878193780314,158.56375139957527 82.26519637333695,158.60826481849654 82.86871011555195,158.5112255536951 85.72840988438111,159.1166074257344 88.4922814576421,159.13708354823757 90.87400533328764,159.48384194332175 91.52965660439804,159.81145913049113 90.57953023992013,162.43594013125403 89.53677966212854,164.61971956293564 87.23573788441718,168.9751955450629 85.42752682662103,172.29081912705442 84.35069752880372,174.43622226116713 83.70320184878074,176.59985355345998 83.59281009773258,178.6036750129424 83.81155470223166,180.76058910932625 83.80572927987669,182.64865055243718 83.63417059544008,184.89943725557532 83.21881799108814,186.3486166264629 82.07587015104946,187.90193407214247 80.72204202658031,189.87850358895957 80.34571975108702,190.37297700508498 79.10927388432901,191.67302288860083 77.62146104883868,193.27080929192016 77.06280305772088,193.62730545987142 76.02500408887863,194.20900271489518 74.58787242660765,194.568612798932 72.7534469688544,194.49428749544313 70.46318222221453,194.0701432187343 69.47286044445354,193.91615149576683 68.00922311109025,193.88499708799645 67.00987192883622,194.0692530934466 65.07262776885182,194.89528778818203 64.1516285155667,195.69951148482505 63.291796195553616,196.71691479638685 62.36875804443844,197.84424203506205 62.10603150224779,198.65068025386427 61.650192213244736,200.6102416384383 61.58407367102336,202.04374123108573 61.7375735467067,204.27608343755128 61.98457144887652,205.8493014742271 62.59798840887379,206.9556653497275 63.13742250658106,207.79945321835112 64.21192163554952,209.63788492017193 65.35195676435251,210.9436027117772 66.27237347548362,211.83543823618675 66.93355889769737,212.3792603253387 67.49978993774857,212.77711295278277 68.97041777765844,213.5207483234699 70.64639175101183,214.2759517582599 72.1350783999078,214.96172942139674 74.3554380799178,215.42277018289315 75.38012984883972,215.5531608799356 77.5771878400119,215.64572487748228 79.0044162843842,215.73650876048487 79.48268344881944,215.72671834356152 79.87677326216362,215.74006891204044 81.63779840001371,216.03244615904987 82.1743197866017,216.12144981033634 83.824661902152,216.60473901033401 84.61488042667042,217.04041041166056 85.292377031059,217.60335533099715 86.36745870218147,218.89701066573616 86.95407871995121,219.97438347095158 87.42477283556946,221.12651238718536 87.49205646221526,221.6938969552284 87.54361144884024,222.20520932838554 87.58264177769888,222.98975333879935 87.5232224711217,223.90512532705907 87.41603470221162,224.67275326116942 87.22729102219455,225.31577866437146 86.93572863994632,226.10787658614572 86.40299377776682,226.75445778272115 85.7321964087896,227.4139419523999 85.15693596447818,227.80776253109798 82.85618545778561,229.70298642746639 79.65686357324012,233.08845037198626 78.16526421322487,234.52529890963342 77.29581994656473,235.4010199101176 76.22685496881604,236.19886635418516 75.64955562655814,236.93352330150083 74.83254015992861,238.31205529998988 74.61350428441074,240.03454073751345 74.15912135108374,241.36099220480537 73.89348209777381,242.56863011809764 73.81046983099077,244.69644178880844 73.96600860438775,245.760784891434 74.22960895998403,247.02579805068672 74.38602154655382,248.211157302605 74.64641791989561,248.87369203934213 74.9438057243824,249.25368084339425 75.40663551993202,250.69665344717214 76.21928191999905,252.44751873309724 76.30491562653333,252.4964626712026 76.32646968890913,252.7941305700224 76.27141944877803,252.84930364915635 76.24200106656644,252.90714637865312 76.36520874663256,253.328952901531 76.36520874663256,253.5785658757668 76.4933680355316,254.91872910398524 76.4595805866411,256.3794621611014 76.43860906665213,256.6054900496965 76.16364913771395,258.0924630279187 76.11238542210776,259.13449497526744 76.1059774577152,260.09910428128205 76.14588159997948,260.851478817116 76.48696007102262,261.5953971854178 77.6738898488693,263.45028798875865 77.83845802664291,263.8573919441551 77.94418943999335,264.1848542531952 78.34060942218639,265.53073703940026 79.63443569769152,270.0710843903944 79.6749223821098,273.14316258369945 81.61507925321348,278.0357092191698 82.00363491545431,279.9140410509426 81.99751822219696,281.62952863867395 81.77673471986782,284.44030132557964 81.40915057773236,287.32533230946865 81.61682688002475,289.0367584724445 82.13528945774306,290.6787719883723 83.81097215996124,293.2798992638709 84.00874524435494,294.1616152889328 83.93942271987908,295.11228094319813 81.40682040876709,299.79437190364115 80.56621198216453,301.98924858216196 80.38737151992973,302.6689708629856 79.93590129772201,303.8179992532823 79.5555012265686,305.2993162294151 78.49585692444816,309.54792729974724 78.10904888878576,310.6524371323758 76.42870584886987,315.1500437571085 75.55139726214111,315.87465206033085 73.77901255106553,316.6290606339462 73.2337530311197,317.1921964858193 73.00743537780363,318.5333080753335 73.19180999102537,319.9571459926665 73.61531818669755,321.43746508914046 74.73642069334164,322.8546122342814 76.28656554664485,324.59778860525694 79.11102151102386,328.09922301059123 80.48873386660125,328.4292588069802 83.20338062220253,328.1783960633329 85.92996949329972,327.86926516285166 87.6088561777724,328.0867688198923 89.40716401778627,328.7744170096703 90.48311950219795,329.9886935126269 91.6397570844274,332.1832700772211 92.757655608817,333.4766989884083 95.20986709324643,336.07910125883063 96.31553223112132,338.9598994536209 97.78761642670725,341.5150919695734 99.37795669329353,344.6644539380213 100.97907399106771,346.3785490335431 102.48581944883335,347.49399349594023 106.95857863104902,346.7890581571264 108.63571768882684,346.92470834986307 111.12404679111205,348.0743959816755 112.85944007104263,348.9345452124835 114.59075555554591,349.41576477885246 116.12691939552315,350.54008884663926 117.07821084442548,351.93347778043244 117.65347128885332,354.29505848127883 118.14251548436005,356.7771370789269 118.33854094217531,357.1631665059831 120.21665706660133,359.1924783070572 121.06046947557479,360.3759013672825 121.9366129777627,361.49438820878277 122.98344135109801,362.5968593569705 123.59714958223049,362.99755444529 125.01243591110688,363.2612745673978 128.27554616890848,363.831407043268 129.85540067555849,364.5731996682007 130.37939740438014,364.87560841668164 131.31059114658274,365.86288115393836 132.51907498657238,367.04137661587447 133.7942599110538,368.2136398250004 134.44088177767117,368.91494909639005 134.66632561769802,369.0857177891303 135.84946887101978,369.85995648195967 139.21831054217182,371.1882964973338 140.2872755199205,371.95185491873417 140.83923427551053,371.77753080578987 141.01749219559133,372.0043300073594 141.17652622214518,371.8646928794333 142.16335274663288,370.653759560897 142.90667662210763,370.37181526463246 144.90887423988897,369.7545605645282 146.05589987547137,369.5433238695841 146.467174684396,369.4161370464135 147.85042119107675,369.35476715443656 148.61326023109723,369.19066931609996 150.84556202660315,368.33682493749075 152.10152305767406,367.48520082386676 153.19932387548033,366.8910632049665 154.11304135108367,366.69939122191863 154.36236942221876,366.3756386315217 155.04015729774255,365.9940724692424 156.6995288177859,365.645414700266 157.97995662211906,364.911185889272 160.1682764799334,364.03331007884117 160.8530548622366,363.79627411731053 161.4903560533421,363.76114118582336 162.69883989321534,364.1889620728325 163.22487551986706,364.59232258656994 164.3110254931962,364.4780297705438 165.2296945777489,365.0543851584662 166.43613951990847,365.093965064385 168.79805695987307,365.57470470294356 169.5926445510704,365.7072303397581 170.8407412621891,365.37947383808205 171.4550320354756,365.8731096321717 172.32127231999766,365.7121222241549 173.13304490665905,365.84598192799604 174.1219103288604,366.175961316505 174.57454563549254,366.3476215581177 174.78338702220935,366.5748710510088 175.0758232177468,366.59399379615206 175.56282851553988,366.39876383234514 176.63062840886414,367.0756195974536 177.34220373327844,367.270848962944 177.8696957154898,367.18368507624837 178.41874175996054,367.2744066719315 179.3152742399834,367.7551415641792 179.84975672885776,367.71244914620183 180.75036700442433,368.3208153239102 181.98390015994664,367.7635911043035 182.38905827549752,367.8845529059181 183.0109220977174,368.65256985800806 183.24685169768054,368.8531343546929 184.62980693334248,368.29946917062625 186.68122936878353,368.0268608229817 188.13496348448098,368.51559887756594 190.62533148447983,366.88972906174604 194.63555214216467,366.6629246076918 195.68208924436476,366.94932078162674 196.69221745769028,366.596662085969 197.39534591999836,365.9464878317085 197.4300071821781,366.0300944778137 197.71079253335483,365.9335910589434 198.1238149688579,366.1030279091792 198.45353386655916,366.38319879357005 199.15229326218832,366.5842100662412 200.39864234661218,365.94604311540024 201.7291687822435,365.65386432106607 202.31957532442175,365.4101593384985 202.31957532442175,365.13132137345383 203.5213599288836,364.6238976343302 205.58938481775112,365.85665512346895 206.32455310213845,365.7703801118769 208.2749044621596,366.3502898509614 209.3811521421885,366.1884133592248 210.7443009421695,366.63268399622757 212.02968035556842,366.26312560093356 216.26767502224538,365.493766187632 216.87293639103882,364.9476527926745 217.3311058487743,364.74041396856774 218.20870570663828,365.02369960863143 218.83785130665638,364.80178514274303 219.18009486212395,364.55763450078666 220.06963683548383,364.5047129234881 220.91199288878124,364.04353864188306 222.45077816885896,363.6877622602042 223.43614833778702,363.00600416748784 223.98665073770098,362.42119368945714 225.67631445324514,362.12989967962494 226.22769066656474,362.2019449514919 226.78780501324218,362.40562837047037 227.2317021866329,362.1734826246975 227.63540394662414,362.41363339178497 228.55523811548483,363.2359254293842 229.67109774216078,363.5032030364382 230.39869297773112,363.4889719573548 231.58533148444258,364.24944396084175 232.7708049066132,364.784885835601 234.38968974223826,366.7963390206569 234.71241813327651,367.3375559958513 235.67769059550483,367.7257905276492 236.32227356440853,368.0722214523121 236.59169934212696,368.0130747475778 238.90817848884035,369.7456663919147 239.1493509687716,370.00537608301966 240.5794921243796,370.1067695096135 241.78506325324997,369.50285534292925 243.1196674843086,370.229064150888 243.35850979550742,369.849283479969 244.05697792000137,370.0725269979448 244.87836245330982,371.0024094232358 246.86774414218962,373.5483372056042 245.91994794667698,376.5624998767162 246.9160951465601,378.9278194390936 247.56999879109208,380.4508779439493 248.42284060444217,382.6178274601698 248.68061553768348,383.2190376769868 249.3738407822093,385.63453441800084 250.09997966210358,385.2040870068595 252.2679105421994,390.662880672724 252.8044319289038,390.7509246262489 253.54367800883483,390.88921581569593 254.93071103992406,391.21960245491937 255.4983984355349,391.332992102718 255.84996266663074,391.37167796929134 256.25220807106234,391.3347707634093 257.1778676621616,391.2253831050475 257.066893368843,392.074247699813 256.9390253510792,392.7443548478186 256.67746389319655,393.06095419992926 256.41677624883596,393.3161898640683 256.0346285509877,393.6461282123346 256.544935537735,396.9445952795795 258.5614054398611,397.8765878332779 259.002972444403,397.8196723702131 260.32505201769527,397.307877195999 261.3293548087822,396.9276984317694 262.39598961768206,396.53951522888383 263.9242891377071,395.94812370004365 264.92830065765884,394.2771005812101 264.3145924266428,392.1253840170102 263.90331761771813,389.0469566253014 263.7978774755029,388.38795503706206 263.7314676621463,387.1566573267337 263.0682433421025,387.21891161915846 263.25174414215144,386.48831192508806 263.79612984892447,384.14530731516425 263.83778161765076,382.91131785925245 263.8838024532888,382.789030240383 264.6163492978085,380.25343679159414 265.0223812266486,378.0108664507279 265.06985841772985,376.2018520098645 265.2618060800014,374.7103378083557 265.27433073776774,374.55335913272575 265.68502300442196,374.61606167658465 265.58482574217487,375.9394814283587 265.55744625779334,376.5086917859735 265.5070563554764,377.1063610825222 266.7117536710575,377.25889100850327 274.0421737243887,378.86467342905235 274.0613976176828,378.5053633945645 273.9906187376473,378.1709555105772 274.2288785065757,377.84988789015915 274.33460991992615,377.63688016694505 274.4447103999555,377.37629006343195 274.6707367821364,376.6736735763261 274.9547261155676,375.6739976584213 275.1364792888053,375.08077146462165 275.275706879911,374.8241806307924 275.48134428437334,374.6178404719103 277.584612977691,373.46695691137575 278.68183125334326,372.78033727849834 280.340328959981,371.7922060552519 280.1221668977523,371.55384430626873 279.0185406577075,369.9622393917525 278.262109582196,368.65034630382434 276.9391561954981,366.49749062373303 275.83931647997815,364.57942573481705 275.3954193065874,363.77626168867573 280.01148387545254,362.5092489022645 283.1158513777191,363.2679453926976 284.5477401599055,362.26909823913593 284.8113405155018,362.1339021953754 284.8864884620998,361.54152908048127 284.87308999104425,361.1595098400139 285.18562389328144,360.146866583731 284.95843242667615,359.4873340257909 284.6543453866616,358.89228542894125 284.9820253866492,358.592092142615 285.4943712709937,358.2242992193205 285.34960952878464,357.82003760919906 285.10086399991997,357.48026160203153 283.8323783110827,356.2821467455942 282.97662378661335,355.1978783288505 282.49690026661847,354.4671726975357 282.1628123021219,354.01309329958167 281.4675481598824,353.1093791241874 281.1754032354802,352.76692741236184 280.77577927103266,352.1945426512975 280.4757700265618,351.788046279049 280.08896199113224,351.3312928980449 279.52069205325097,350.3497369149118 279.2017501866212,349.5109411677113 278.6550343109993,347.60962936189026 278.3660933688516,346.2126550975372 277.8444268088788,341.98387429711875 276.70701311994344,340.1087390158791 276.47982165333815,339.80229342984967 276.2631159465527,339.2667909786105 276.03738083550707,338.90697174170054 275.9890298311366,338.9403295448283 271.34995484445244,342.2218232002924 268.7902643199777,344.08048440748826 263.0493107199436,340.5699632833712 256.3180353421485,336.30727145343553 256.2405572265852,336.32951025117654 255.7882131910883,334.9978470921051 255.4573292088462,334.07982212188654 254.9027490132721,332.4568122427445 254.61031281773467,331.41423671034863 254.54011647996958,330.95432767958846 254.42681201768573,330.5322246410651 254.07641287101433,329.5839354202617 253.8110648888396,328.60406193323433 253.677080177702,328.3118337284541 253.10007210657932,327.4716198859969 252.8009366755141,326.94720740255434 252.53966648888309,326.33561366260983 251.91285105771385,325.0884019790683 251.65915391989984,324.7347868283978 250.73873720876873,323.64680509013124 250.40785322664306,323.29763565259054 250.03852145769633,322.6993759063771 249.83696184889413,322.3159550532 249.59171157330275,321.3084713318385 249.48394126223866,321.0064477225533 248.83702812436968,320.01586076122476 248.6325558044482,319.64133143943036 248.43565653334372,319.4033582030097 247.54582328884862,318.7098982813768 247.00697173329536,318.04579382622615 246.70346723555122,317.6009806160582 245.9176177777117,316.74738155613886 245.10788408876397,315.7950297786738 244.8961299911607,315.48899526672903 244.40650325326715,314.4970490933629 244.05144376889803,314.0099707535701 243.7525996088516,313.7061578751891 243.51200967107434,313.5015398884425 243.15811527101323,313.0931929915678 242.61431210662704,312.24980746756773 241.79117994662374,311.04477477655746 241.16960739553906,310.3401678969385 240.66279566218145,309.6493484893581 240.26754076441284,308.94696131238015 239.98384270223323,308.2325614230358 239.70101845334284,307.0924527022289 239.5428582399618,306.66674536140636 239.21430442668498,305.95278293150477 238.7497270044405,304.57066966139246 238.6236066132551,304.1712030621711 238.4331153066596,303.0755576668307 238.3288402488688,302.60580304288305 238.19602062215563,302.29530180525035 237.82261105778161,301.61602322000545 237.45211420441046,300.76859022816643 236.93044764443766,300.1573688228964 236.60335018660408,299.6800455445191 236.2503295999486,299.0127698936267 235.99022449774202,298.63286672218237 234.99378602660727,297.8041061302065 234.47765361773781,297.26182899740525 234.26677333330736,296.6626089925412 234.1010400711093,296.32807714649243 233.7512234665919,295.80314583459403 233.05479424004443,294.95835968782194 232.80604871106334,294.7163561095949 232.32545137766283,294.1562769582961 231.93485681770835,293.7808140470879 231.58037987549324,293.58240566321183 230.7857922844123,293.2171736204182 230.51811413327232,293.1215281012701 230.16625863104127,293.0423424773617 229.52487964439206,293.053464055527 229.0495251910761,293.0187647299608 228.81796465767547,292.8964273207821 228.57504455104936,292.6762198135257 228.4614488177467,292.5107303906698 228.06532010657247,291.6250039790175 227.97123953769915,291.2806774334167 227.89900430222042,290.09465966612333 227.78424348437693,289.61820437322604 227.6269570844015,289.2276081372984 227.34821063105483,288.70710866258014 227.2098568532383,288.3365300836158 227.1495637332555,288.03312675032066 227.07791103993077,287.4983884822577 227.01820046210196,287.23235348711023 226.91363413329236,286.91738187446026 226.78547484439332,286.6860465054051 226.53585550223943,286.5125448196195 225.98710072878748,286.2625242018257 225.7374813866336,286.08056951727485 224.9702732799342,285.07114092761185 224.8511433955282,284.7566111115739 224.84823068440892,284.3037229797337 225.0302751288982,283.2204357130686 225.22892202658113,282.5944845491904 225.35679004434496,281.62018602970056 225.46659925335553,280.8767800210044 225.6969947022153,280.0283776455326 225.7039852088783,279.2560483693378 225.57495210657362,278.70393805456115 225.37339249777142,278.2096624596161 224.9440588799771,276.80201644828776 224.98338047997095,276.74907383468235 224.95716607989743,276.65030690818094 220.81121308438014,271.65540116175544 219.06533404439688,269.2439962233766 219.10145166213624,268.2963335678796 219.62777855992317,267.16269233392086 219.96536177780945,265.8604214559309 220.5747009421466,263.9850845056353 221.1485050310148,263.0405137410853 221.85687637329102,262.04299279488623 221.97862769768108,261.31242374744033 222.87020856887102,259.9727442616131 224.2589892266551,259.1554067530669 224.99590513773728,258.3385111516109 225.38533461326733,257.80058641708456 225.42669511109125,256.9133859350113 225.27552540437318,255.94965258496813 225.19309567997698,255.28446944837924 225.30727395543363,254.2539878024836 226.67508309322875,250.2819610837032 227.1425732265925,249.23098832194228 227.59608234663028,249.4245421065716 228.7183499376988,246.4251068106969 229.09292458661366,245.60104476148263 227.74754332436714,244.90824291558238 226.2850710755447,244.3320187862264 225.43193799105939,244.0321146674687 224.59249464888126,243.5141784050502 223.35837895108853,242.9041333621135 222.72282538656145,242.71858322253684 223.1000214755768,241.15808702871436 223.32896056887694,239.7061526623438 223.54712263098918,238.67159354081377 224.36996351997368,236.89703524921788 224.90153329772875,235.1794201071607 225.372809955501,232.79209085425828 222.049989119987,233.69852254114812 220.3664420977002,233.01547299016966 219.3525273599662,232.64035106729716 218.7160999821499,232.42453330208082 218.33016576000955,232.32930642727297 217.9864658487495,232.4672518868465 216.58661688875873,232.3008273538435 216.54962545773014,231.75304946233518 216.28486001770943,230.6401350350352 215.9822293332545,229.88098267040914 215.81999132444616,229.25710520887515 216.50972131546587,228.4654635807965 216.79283683549147,227.87584669550415 216.95274467545096,227.17097432957962 216.8828396088211,226.66501342173433 216.88749994663522,226.29477568133734 216.84060529770795,226.11544155259617 216.68331889773253,225.86668751994148 216.44942819548305,225.692693029996 216.15466183109675,225.2387937148451 216.05329948442522,225.11330373946112 215.78562133328523,224.35502237052424 215.94640298653394,224.02928098267876 216.77943836443592,223.19534523889888 217.56412273773458,222.22523459303193 218.31909745768644,221.1914835567586 219.56282510212623,220.19688855827553 219.75011242658366,219.9160871009808 219.97031338664237,219.40209935593884 220.36207303102128,219.37762371922145 221.0774348799605,219.05276501062326 221.13452401768882,219.0180540518486 221.8420215465594,218.77329713635845 222.15950705774594,218.53165504254866 222.62961863109376,218.0323495467892 223.19468458660413,217.68790819891728 223.50809230213054,217.3278907632921 224.21733745769598,216.549111854285 225.0122163199121,215.21405590337235 225.24785464885645,214.85269937082194 226.29846954660024,214.19985300232656 225.7709775643889,213.14959848742 225.46164764440618,212.59376261406578 225.13222001772374,211.8452288256958 226.52100067550782,210.3121062166756 228.69126172433607,207.96233594807563 229.9064447999699,206.1991017543478 230.92268970655277,205.12878235639073 231.26668088883162,205.44832108181436 232.06884152884595,205.21200488239992 232.56516750215087,205.0905088847503 232.88906097772997,204.95432647818234 233.39995050663128,204.59206306614215 234.42784625769127,203.6797262862092 234.879316479899,203.053994587739 235.36137016885914,202.26136888680048 235.80497607111465,201.73265347344568 236.4475201421883,201.14608051429968 236.81801699544303,200.44023268669844 237.07637447107118,199.82116757013137 237.1669597866712,199.07837614871096 236.59461205324624,197.85981896013254 236.5223768176511,197.40363712777616 236.54771740431897,197.0235590567463 236.50082275550812,196.6020899855066 236.32285610656254,196.3497422260698 235.85856995545328,195.99859116022708 235.5425407999428,195.62607668113196 235.2410751999123,195.09200464660535 234.8798990221694,194.64783375349361 234.6518337421585,194.27175649697892 234.15434268442914,193.6709216806339 233.9772498488892,193.2828260260285 234.12812828435563,191.9667672177311 234.31978467549197,191.27112660498824 234.5399856355507,190.74060458742315 234.67018382216338,190.323574220296 234.65649407997262,190.00401359784883 234.57319054217078,189.76723579096142 234.3695920354221,189.45390537020285 233.85608106665313,188.89489431038965 233.51442005322315,188.37193284119712 233.21528462215792,187.558335853857 233.19664327101782,187.42659338988597 233.1995559821371,186.98863814747892 233.21994495997205,186.71001982747111 233.3591725510778,186.31212021119427 233.47917624888942,186.05931560805766 232.68458865769207,185.2951140170917 232.69041407993063,184.98177724762354 232.78362083551474,184.4365524048917 231.55154403543565,183.95408293104265 230.30286478216294,183.6634435231099 229.79372287995648,183.33808716211934 228.81563448882662,183.35143968986813 227.7382226488553,182.52847739169374 227.28121827554423,181.85550648218486 227.27131505776197,180.44101464067353 226.86149660439696,178.97710840927903 225.73136469325982,177.29776589106768 224.88522211555392,175.15372587559978 225.3585376710398,174.94675391854253 226.71469596435782,174.2461635308573 227.62025784887373,173.45165395154618 223.03535928879865,169.85251198755577 222.10096156434156,167.51967046689242 220.7832510577282,164.75681710231584 220.97548999101855,164.30190221220255 220.74538581329398,163.17618413286982 220.33556735992897,162.10565607750323 219.85497002652846,160.22988254827214 219.21242595557123,159.22299421555363 217.89122019545175,157.20341698778793 217.20032512000762,156.3051287382841 214.5844192710938,154.22454022761667 214.38810254214332,153.59377171448432 214.30596408888232,150.5080101400381 214.01003263995517,147.87448416929692 214.0225572977215,147.05940240307245 212.55979377776384,145.99636387743521 214.6741307732882,145.4176556598395 214.83345607109368,145.42077178508043 215.0248211909784,145.36156539816875 214.34965475543868,144.6034551442135 214.26955520000774,144.27002825948875 214.11663786659483,144.03987883433 213.11233507550787,143.28933184582274 212.78378126211464,142.92340587591752 211.42820551106706,141.65913143195212 211.05974755552597,141.36754598130938 210.6770173155237,141.1498582714703 208.9672558932798,140.48432907427195 208.8294846577337,140.31071243190672 207.48614229331724,140.0574099572841 207.2274935466703,139.94878806895576 207.0713722311193,139.63583208341151 205.98609607107937,139.25342864810955 205.34966869326308,138.7370271482505 204.77848604437895,138.23976697563194 204.11438791104592,137.58535841607954 204.0051612444222,137.43978563591372 203.7441823289264,136.7987300484674 203.6515581154963,135.9128237758996 203.59213880891912,133.17227914003888 203.63990727101918,131.37817446817644 203.71767665771767,130.7838462551008 203.90001237322576,130.03904167271685 204.84431331558153,129.27687203785172 204.6648903110763,128.86951978097204 204.608383715502,127.77389429649338 205.81366357335355,126.22416037868243 204.49187527108006,125.53365491825389 204.37099775997922,124.78081897227094 203.3527139555663,124.84848972421605 202.3175364265917,124.53328630840406 201.49323918216396,124.69979212369071 201.02604031993542,124.3716776027577 200.6564172799699,124.03465851634974 200.10737123549916,123.9585286382353 199.5836657776963,124.02441882668063 198.39819235552568,124.22787691955455 198.9583067020867,123.54894053924363 199.27404458657838,123.04096119938185 199.43336988438386,122.67900851101149 199.8851313777268,121.41639891371597 200.99662193772383,119.20236259774538 200.85564671992324,118.98020088043995 201.2342991643818,118.37159238476306 201.66421532444656,117.99983728397638 201.7932484265184,117.77901000552811 201.97267143102363,117.52078427851666 202.60414719989058,117.12231467588572 203.6061198222451,116.29598882677965 203.89243932440877,115.92912765184883 203.95884913776536,115.57695815892657 204.66314268438146,114.83388313697651 205.72366079990752,115.10680433153175 207.08389688888565,115.53555260639405 207.5703196444083,115.79199977451935 207.9428553954931,115.8605637238361 208.26034090656321,116.01371948164888 209.22648718219716,113.85839858750114 209.43241585767828,113.18299210770056 208.42927815101575,112.81122826534556 207.44216035550926,112.58416261640377 206.96971861331258,112.19280774367508 206.70116664876696,112.1389351754915 205.81104213325307,112.00002403010149 205.66715420444962,111.46530434954911 205.62899768876377,110.97822301322594 205.65754225780256,110.19194502249593 204.88276110216975,110.02943534881342 203.86272967106197,109.77164578536758 201.7626649599988,109.44573523267172 199.3043367821956,109.25873715721536 198.000898559927,109.29168444860261 196.99776085326448,109.40388329618145 196.2975451021921,109.3722717218916 195.5044138666708,109.25294911902165 194.64545535994694,108.95775896962732 193.7652340620989,108.89275475096656 193.5858110577101,108.84778606792679 192.844526079949,108.4582055095816 192.53548743098509,108.1322930167662 192.7853980443906,107.63763529458083 192.9450146133313,106.9626550116227 192.96715121774469,106.05347645905567 192.956665457692,104.40875314408913 193.26133503997698,102.93944474146701 193.4293984710239,101.75018826068845 193.44337948434986,101.27020947542042 193.67610510217492,100.6829241795931 193.21269276435487,100.49591867765412 191.91129343991634,99.6819976469269 190.996993422159,99.27548125956673 190.57144632888958,98.9335260404041 190.1065776355099,97.90498566371389 189.5630657421425,97.4641811773763 189.2385897244094,97.46596220741048 188.95401784882415,97.61556867597392 188.46380856877659,97.64317462046165 188.2814728532685,97.70862741040764 188.0062216533115,97.37780120514799 187.69805681775324,97.17120154679287 187.41494129772764,97.02114951843396 185.92654591996688,96.33366948459297 185.36002360889688,96.05449142394355 184.55844551103655,95.50815630255966 183.81424782215618,95.15372790454421 183.1256829154445,94.59804002399324 181.93118008889724,93.94172096496914 179.52062037331052,93.15182013291633 178.72515896882396,92.65534775692504 178.1598017421784,92.23991306265816 177.7651293866802,92.14061826642137 177.2667645154288,92.17668499128195 176.185566151049,92.09564616909483 174.9488290132722,91.84495995385805 174.47405710222665,91.52213980769739 174.20870911993552,91.4891898627975 172.73866382217966,90.63738755160011 171.90737607108895,88.17146143235732 170.69394062214997,88.26986746268813 169.5250696532894,88.44975891610375 168.22221397329122,87.6798758993973 164.56588771543466,86.8187080231728 162.55815594654996,86.75325200275984 159.8516647821525,86.2665613911231 158.7151249066228,86.25765578896971 158.2010313955834,86.08132479211781 156.9567212087568,85.11283763777465 156.25446655997075,84.52417348319432 155.83328853326384,83.97558338672388 155.18870556436013,81.74202391179278 154.55460835550912,79.71728449012153 153.41719466657378,77.30689859867562 152.33657884434797,75.6561720634345 151.48985372437164,74.32916956255212 151.31858631107025,73.77699167374521 153.12009813333862,73.86026375030633 153.87245141319,72.55017214396503 154.2560554665979,72.06033303937875 154.81558727112133,71.50636823265813 156.23320376884658,71.5540163856349 157.42858040891588,71.70141387794865 157.7580080354819,69.65698851132765 160.18225749325939,69.99631723039784 162.29047779552639,70.5974888765486 162.93739093327895,70.70391835283954 164.4144267378142,70.81435557943769 165.05609699548222,70.9581910779234 165.62378439109307,70.82593367260415 165.0665827555349,69.7830122304149 164.87521763553377,69.40182365837973 164.34277404437307,68.43459923239425 162.42737521778326,67.11022520752158 162.1576581688132,66.56738096824847 161.13063623104244,65.85264143790118 159.4226224354934,65.2113778325147 156.72661703103222,64.59594114735955 155.9174658843549,64.33943446783815 152.37939569773152,63.740472396835685 151.34101418661885,63.52137211035006 150.98741105769295,63.54052112775389 149.88757134217303,63.19272127264412 148.62083327991422,62.62403838208411 147.33924039104022,62.2294775826158 146.94485930656083,62.13773986895103 145.48209578660317,62.00325053051347 144.98489600000903,64.82661877467763 144.6746922666207,65.81879701639991 143.41407089773566,65.60726926458301 142.94861966220196,65.87268089549616 141.87528561777435,65.84952418878675 141.1698269866174,66.87197954091243 140.88904163544066,67.91357879259158 140.8971972266445,67.67310740542598 140.68398677324876,67.66776359383948 139.81017344002612,66.68806261674035 138.9081068088999,65.58500317367725 137.83943310217,64.46100798330735 137.26388138660695,63.836662697722204 137.10805134219117,63.603757406177465 136.7780411732383,63.038192864041775 135.80810837331228,62.28915160888573 134.47204778669402,61.61625922843814 133.048314595595,61.04490028822329 132.9286021689186,58.421885072952136 133.18433820432983,56.42276136367582 133.06870357331354,54.38843733072281 132.97840952884872,52.161703881633 132.90937827550806,50.84836595621891 132.71510044438764,49.978592589031905 131.6738062221557,47.32159853586927 130.57017998211086,45.214151062304154 129.79161230218597,43.22470573708415 129.63840369775426,42.58783003757708 129.46364103106316,40.94486039050389 129.49393322668038,40.51819400250679 130.24861667549703,37.15872408350697 130.835527964402,35.1224408656708 131.0035913954489,33.688747245585546 131.01203825767152,32.10272117389832 130.86698524432722,31.637288724654354 130.3211431822274,30.747842355980538 129.6069464177126,29.724328776821494 128.71856952889357,28.667851119767874 127.78417180432007,27.77171180548612 127.00065251556225,27.237233344174456 125.89440483553335,26.576705256593414 124.7383497954579,25.42266930657206 123.69676430220716,24.72026778163854 123.23335196438711,24.49400226114085 122.30390584876295,23.670001849066466 120.47909233777318,21.407325427455362 119.09002040885389,19.872879096423276 118.6210739199305,19.29606704757316 117.71405567997135,17.783431530115195 116.64217799110338,15.897967612487264 114.99183587543666,13.195574853860307 113.89927793771494,11.832562154799234 112.8437114310218,10.564418266585562 111.7596003555227,9.014751681766938 110.30965276446659,7.2093919708859175 109.16437475546263,5.8837594439974055 108.5631911822129,5 107.90666609769687,5.371054673567414 107.39898055105004,5.841887856659014 107.16334222210571,6.704708214849234 105.94903295987751,7.5390171016333625 106.27642168884631,8.122986901027616 106.41157148440834,9.032123687153216 107.11848647100851,10.652613967831712 107.57286940445192,11.22454887162894 108.3508545422228,12.14169060997665 109.24360049772076,14.25524459371809 110.26858353766147,15.754987054970115 110.48761941329576,17.58833820821019 110.84733923547901,19.414102068345528 110.45790975994896,20.949887826573104 111.00782961770892,22.075886368518695 111.41764807107393,22.862033050856553 111.80649500433356,23.579138912493363 112.41408654220868,24.746992040309124 112.64477326220367,25.374565785867162 112.97187071992084,26.102798518666532 113.18042083550245,26.501432543911505 113.58965674659703,27.31250580586493 113.529072355479,28.39393218292389 113.573636835441,28.65716160670854 113.95869724440854,30.053474871441722 114.21734599105548,31.067188310204074 114.132586097694,31.88269868394127 113.90189937769901,32.197143713594414 113.41955441772006,33.40904451487586 112.40534840885084,33.89496097428491 112.172914062161,34.165309998439625 110.81122161773965,34.86055530817248 109.88585329777561,34.975464315502904 109.06009969778825,35.09126402984839 108.14113934221677,34.88416065176716 107.58947185776196,35.590983638423495 107.56820906663779,35.69965691503603 107.26849109330215,35.741077453130856 106.704298951081,36.018104937742464 105.53775815106928,35.929919377493206 105.14046435558703,35.30326642631553 104.42626759107225,35.44489816587884 103.54604629322421,34.93849747092463 103.2920578843914,34.99506119452417 101.67055160878226,34.99060735857347 101.20772181323264,35.38120843260549 100.88994503102731,35.532193155027926 100.47634005325381,35.42752824048512 99.76680362666957,35.70767379400786 99.70418033772148,35.67070707201492 99.56844800000545,35.74597665597685 98.71269347553607,36.312056550814305 97.63499036442954,37.23132088535931 97.59887274657376,37.278085683705285 96.62398833769839,37.42862372921081 96.21591751102824,37.96708589710761 95.28414122655522,38.174186380929314 93.51204778661486,39.55084293492837 92.95368106663227,39.80782381189056 92.75212145771366,40.25809634232428 92.71338239999022,40.58099150808994 92.51706567103975,40.835298954101745 91.62140700430609,41.016119832056575 89.95795768883545,41.76746016833931 89.7922244266374,42.10415957181249 89.8440706843976,42.13266320142429 88.94957710208837,42.681357353460044 87.85002865770366,43.230495507712476 85.5382098488044,44.087825254071504 84.27787975105457,44.06600235647056 83.54941070219502,44.20940993021941 83.10667861322872,43.972475627670065 80.54553173331078,44.82445812562946 79.2986001066165,45.19277363899164 78.55265479104128,45.06450905604288 77.70097806223202,45.75660248391796 77.79272846214008,46.56671423383523 77.52417649771087,46.84105596633162 77.007461546571,46.92745572689455 76.56269055989105,47.156370393233374 75.97403164440766,46.68696146376897 75.34575985767879,46.70343978272285 74.47660686215386,46.637971859483514 74.15620863996446,46.54667302244343 74.1200910222251,46.65979450271698 73.48774143995252,48.40070004679728 72.86238236445934,50.04628628701903 72.35353173327167,50.524595113587566 72.46101077331696,51.24829132016748 72.62062734214123,51.809877940570004 73.51861617772374,52.82705419079866 71.75322197331116,53.87495459115598 70.34055708441883,54.521149934618734 69.43645155557897,55.04175666021183 69.12974307558034,55.3704196405597 68.56729855993763,55.53786834189668 69.0283807287924,56.40227570722345 69.73063537781127,57.58197921188548 70.49784348439425,58.94916262238985 70.5039601776516,60.15646314341575 70.35599445330445,61.34371719061164 70.85843711986672,63.2853492005961 71.32417962653562,64.45210150099592 71.67894784000237,65.62730874447152 69.16498687991407,66.55134945269674 67.9815523554571,67.18904661445413 67.25803491543047,67.3671739839483 65.7984753777273,67.60809102235362 64.4350353066111,68.1153073652531 62.77974158222787,69.04957989475224 61.813886577729136,69.64585567056201 60.61501468438655,70.04530164808966 58.10396643553395,69.25175274303183 57.146267022239044,68.89683684892952 55.65058986656368,68.42658354260493 55.13096220442094,68.37180965486914 53.96267377771437,68.47467767680064 52.45971484435722,67.29414177982835 51.77581027545966,66.497020419396 50.856558648869395,65.89583759981906 49.58079118211754,65.74932687188266 48.09705614217091,65.77070230327081 46.86556188436225,65.91498641122598 45.65241770655848,66.40305787924444 44.68510634661652,67.61031761113554 43.6076945066452,69.66322290198877 43.39331896882504,71.51037602161523 43.36797838215716,73.124173128861 42.97417983994819,74.71524795913137 43.2130221510306,76.17583831772208 44.19460579555016,78.66015562298708 44.57762730657123,80.07797178206965 45.37221489776857,80.71696572192013 46.24661077326164,81.61021826020442 46.909543822170235,81.93884166399948 47.330430577741936,82.03903162863571 47.93947847106028,82.86593106715009 48.06530759099405,83.97959094925318 49.014851413317956,85.89074466738384 48.47337841766421,86.63970579870511 48.73785258666612,87.64514427143149 49.53389653330669,89.37281349720433 50.57926855108235,89.78647249785718 51.49502492439933,90.43434375524521 52.26106794655789,90.82217505469453 54.52366193768103,91.1770556808915 55.886519466526806,91.65616588434204 56.93975580437109,92.2790966470493 58.24581546662375,93.50536121567711 58.23212572443299,94.27878601732664 57.22549276438076,95.97879715205636 55.96458012436051,97.62848113430664 55.70068849774543,98.03900786326267 53.776260266662575,101.32809194456786 53.39498638221994,102.50755525939167 52.72943189321086,104.23867006611545 52.41544163553044,105.27252382028382 52.15184127993416,105.81571808061562 51.69716707547195,106.22934625588823 50.883646862232126,106.4288136025425 50.05265038216021,106.80904773267685 49.37515377777163,107.30326207476901 46.87284366216045,108.5775285421987 41.98677077330649,109.6376307120081 40.26856248883996,110.09221307252301 38.83055701327976,110.37003767804708 38.001890702173114,110.37582568696234 37.25157632003538,110.58998190931743 35.931535644456744,111.42968600674067 34.58411548438016,112.32014285231708 33.83671381336171,112.48932924680412 31.215273813344538,113.58057837415254 30.321654044440947,114.46123162959702 28.45023715554271,117.16015818860615 27.89157916442491,117.70643970242236 25.644131271052174,118.38851056608837 23.8941744355252,119.17654020519694 22.904143928783014,119.87819586572004 20.337462897761725,121.47872818878386 19.5545261510415,122.71106338570826 18.95712910220027,124.00794628146105 18.686538239941,124.27907531592064 18.815280071110465,124.58403943118174 17.88233870221302,126.3456998008769 17.102897208882496,127.04199029190931 16.517733546555974,127.38167596817948 14.944869546568953,128.0281012628693 14.153485937742516,128.44658494798932 13.299479039967991,129.2047507094685 12.190901190973818,130.56169619737193 11.680885475478135,131.4623151869746 10.904647964402102,133.18875100126024 10.488712817779742,133.68068034260068 8.925460764439777,134.83281463489402 6.630826951004565,136.49200209835544 5.900610275450163,137.0502555530984 5,137.69220076239435" stroke="red" stroke-width="3.177435403059859px" fill="none" stroke-linejoin="round" vector-effect="non-scaling-stroke"></polygon></svg>