<svg width="376.86237240885384" height="378.2321592104854" xmlns="http://www.w3.org/2000/svg"><polygon points="5,185.68765951693058 5.25690111995209,186.5550169486669 5.782936746720225,187.68061450246023 5.838860800024122,188.25413318153005 6.372469475492835,189.0781358833192 7.067733617732301,189.85879114666022 7.728045226656832,190.55047399934847 9.325958542176522,190.80962637322955 10.151712142280303,191.03319067240227 11.696905386634171,191.67240079434123 14.181156693259254,191.84988278523088 15.80441059556324,192.16515249299118 16.74783772439696,192.18796504457714 18.547019377700053,193.06396520708222 20.13415566214826,193.97919909621123 23.97718670219183,195.8146739618387 24.066024391097017,196.93611727672396 23.61018510221038,197.82669790904038 22.719186773290858,199.22232894960325 21.86081080895383,200.5381101705134 21.383417457691394,201.84019648621324 21.38050474668853,202.6650600154535 21.652260693372227,202.83842695096973 23.535328426747583,203.59622132393997 24.235252906684764,203.99040109443013 26.675813546637073,204.71169347211253 29.202881706645712,206.4603955190396 30.559331271098927,207.37466042430606 33.82244152890053,207.81628001586068 34.71606129780412,208.09594154410297 35.15733703109436,208.65252622030675 36.59213852440007,210.30676043929998 38.52326599112712,211.3742959544761 40.520220728823915,211.98196766950423 41.81055175117217,212.31180678366218 42.68290872883517,212.31454403570388 44.17858588451054,212.4609869652195 46.00980736000929,212.7744018746307 46.77468529774342,213.16400289162993 49.33350200892892,214.79949835286243 50.79801315558143,218.06178453343455 52.061838506604545,219.51111617853167 53.49955271102954,220.3938488358399 54.348316728835925,220.69767226808472 55.33339562662877,220.0480552824447 56.81334414228331,218.15393622010015 57.40841102215927,217.88614878460066 57.877648782217875,218.19316910451744 59.17293141328264,220.3710392517969 60.11839743994642,222.56394169968553 60.36539534223266,223.6140818465501 60.748416853370145,224.27554892015178 61.2834818843985,225.41600465326337 61.58407367113978,226.47753545979504 62.068748800083995,227.4510189627763 63.18023935996462,228.11384285835084 63.98239999997895,228.43590246431995 65.764979199972,227.95600610622205 66.30383075552527,228.26666156953434 67.87960746663157,228.0216954042553 68.97041777777486,227.58239784499165 70.05278122669552,227.0427403312642 71.56564337771852,226.4264434214565 72.49188551108819,228.25981894298457 72.43567018664908,228.98331146204146 73.17579007998575,230.1068641009624 73.96484351996332,230.90242525865324 74.67816647107247,232.02003778051585 75.30847715551499,232.91868530376814 76.02587790228426,234.30907271208707 76.10335601773113,235.18992048932705 76.02529536001384,235.5689895604737 75.80713329778519,236.37456615630072 75.64693418669049,237.54369606240653 75.643730204436,238.01946581155062 75.68567324441392,238.8665432127891 75.7075185776921,239.7669869675301 75.45294762670528,240.15243413910503 74.19407388439868,241.66228569252416 74.45563534228131,244.25318470678758 74.58816369774286,247.13643575657625 74.75855729775503,248.3866992921685 74.6531171555398,249.49920427246252 74.27126072894316,249.39976781513542 72.24605269334279,249.82989858440123 71.50622407114133,249.43032856611535 70.78620188438799,248.9906182429986 69.18916238227393,247.7490247376263 67.77241969772149,246.52110822492978 66.86802289774641,245.50027189357206 65.97207295999397,244.85483446804574 64.98466389335226,244.9602028291556 64.4906680888962,244.99988700385438 64.00482787552755,245.8273231985513 63.40743082668632,246.0873217919143 60.67385144880973,247.8069537624251 59.49653361772653,247.51274713757448 58.61980757326819,246.71815918869106 58.40688839100767,246.82671959680738 57.533948871074244,247.4529934952734 56.901016746647656,248.9659871404292 55.26086912001483,249.96035165013745 54.58482887118589,249.93572065769695 53.09788984886836,249.58221999544185 51.9852342044469,249.80116240901407 51.89697905781213,250.2696072056424 52.3988391822204,251.02723584033083 52.91409777768422,252.08499228203436 53.89888540445827,253.38631298672408 55.15892423107289,253.93685185257345 55.02027918223757,254.23743544874014 53.49256220436655,254.44725076213945 50.474702222272754,253.60525155969663 49.75992291548755,254.4376722413581 49.57642211555503,255.226302367053 48.71425962657668,255.60807312116958 47.85734001779929,255.74171553226188 46.553027982241474,255.5496900625294 44.440147342160344,255.1884445375763 43.5852666310966,256.35564855346456 43.15214648889378,258.0446395688923 42.12687217770144,259.84445186622906 40.75148999108933,259.7381785190664 40.33526357333176,260.6312379022129 40.74741219554562,262.19932816625806 40.74013041774742,262.46842919499613 40.66673009772785,264.120428532653 40.22166784002911,265.76010068831965 40.22691071999725,266.77217586745974 39.032407893333584,268.9436290273443 38.076747377752326,270.58964992233086 37.614208853337914,271.77364614384715 36.89680810668506,273.0283284598263 36.001149439951405,274.31538507464575 34.70266282663215,275.79809036740335 34.7530527288327,275.8555558252847 36.2129035377875,277.5197671224014 36.96583936002571,278.2421831788379 37.378279253374785,278.48618048254866 38.116942791151814,279.07086075504776 38.78919651557226,279.5588532234542 39.53164657775778,279.8890456352965 40.17914225778077,280.1166227093199 40.56653283548076,280.2247103342088 42.56232248886954,280.9794979431899 43.24535324436147,281.02875287411734 45.625329493312165,281.7507011798443 46.70070243545342,281.9842051080195 47.88122424890753,281.78444980992936 49.61108337785117,281.829143933719 49.86274161771871,281.9623141253833 50.222752711037174,282.19171327061485 50.82189738668967,282.7918896082556 50.49946026667021,284.2398765946273 49.37748394662049,289.51867642148864 50.11585621337872,289.76129290199606 51.82765653333627,290.267047061061 52.282330737798475,290.9159976944793 52.25815523555502,291.34148570668185 52.18591999995988,293.46298475319054 51.53988067561295,294.1488647867227 50.72519537783228,296.8239586049458 50.098379946663044,297.95673642866313 49.53156636445783,299.12644645082764 49.66292963561136,300.72435591195244 49.68127971549984,302.33639020030387 50.34741674666293,302.4855084667797 51.043554702191614,302.42987414076924 51.56347363558598,301.7048025218537 51.92464981332887,302.06460251496173 52.50457059557084,302.9488232829608 52.55787320889067,303.8708897852921 53.152066275593825,305.5804873846937 53.44362865772564,306.2891296518501 53.9079148088349,308.1145340433577 53.74567680002656,309.28236526739784 53.46052238217089,310.49487842060626 53.05070392880589,311.08722442778526 53.67926698666997,311.326624779962 51.76969358220231,317.25181329564657 50.059640888823196,319.1405072140624 49.814681884483434,319.5426847223425 49.47331214218866,320.55177307873964 49.39554275549017,321.0072976447409 49.154952817829326,322.22612894163467 49.096698595560156,322.84032977209426 48.87911907560192,323.16498459375 47.82530019560363,323.66199735424016 45.75523640878964,324.5570734257344 45.00841728004161,325.38192630099365 44.45878869330045,326.3061772886431 44.14945877331775,327.17479635879863 44.08275768882595,328.594673269894 43.65954076452181,330.418522074935 43.80925411556382,331.60036791226594 44.00091050658375,331.84840881370474 44.16955648001749,332.0522216215031 44.55607324442826,332.2751844067825 45.39289514673874,332.5524057095172 46.3904987021815,332.6358456047019 48.237448817817494,332.5122815956129 48.702317511080764,332.77491202537203 49.878178986604325,333.9745271845022 50.40246698667761,334.3160355699947 51.461237475508824,334.68900406052126 52.03096376883332,335.0004185801372 52.877688888809644,335.6478675415274 52.89516515552532,336.3185679136077 56.67935943114571,337.9540468027117 57.565697422251105,337.9403684689896 64.78019157331437,337.9262341897702 64.41785031103063,340.5410601563053 66.37752234668005,340.9313435953809 69.199356871075,341.53500491485465 70.40958833775949,341.88881167490035 71.35214165330399,342.21617360110395 72.35935715551022,342.60645402641967 72.98879402666353,342.88958926929627 73.6511445333017,343.22333275247365 74.41631374228746,343.6254656116362 76.08267576887738,344.7000959095312 77.19824412441812,345.31924832670484 80.73165397322737,347.4420431978069 85.73947818670422,350.3002150756074 90.95847395563032,353.55864009121433 93.68622791115195,355.7397104477277 96.87302513769828,358.130018012831 101.6189966222737,361.8159546927782 105.12415317329578,364.4820081409998 104.94385635550134,365.13666331372224 104.17315299552865,367.4835585189867 103.69313820439856,368.5229678634787 106.48730197327677,371.1816448944155 107.45985621330328,372.01179097534623 107.78957511112094,372.2183012862224 108.9019394844072,372.6285860888893 109.26165930670686,372.7712738440023 110.37489749328233,373.16469039506046 110.94928412442096,373.1824693416129 111.3270627555903,373.2321592104854 110.98015886219218,371.6694301813259 110.5671364266891,370.6058744948823 109.73672248888761,369.02717077801935 109.6248743821634,368.8147309948108 109.33971996442415,368.4080860228278 108.91417287103832,367.80039654421853 109.01699157326948,367.67822020943277 109.31408810662106,367.407882030122 110.24236913782079,366.35114372265525 110.66500351997092,365.3887688526884 110.75791900441982,365.1690313107101 112.20757532445714,360.6871574842371 112.90953870222438,358.6470103103202 111.84377770661376,358.1477981916396 112.34592910227366,357.0135110435076 113.67587299551815,354.0820260309847 114.39851662213914,352.32676332228584 115.77681151998695,352.62766650959384 118.53311004443094,352.7152019038913 119.54585969774053,352.35548591730185 120.83589944883715,351.4318018301856 121.55330019560643,350.56100029835943 121.93894314661156,349.604482335737 121.86466901330277,348.02380208310205 121.56407722667791,346.47456924570724 121.17930808884557,345.1756306553725 120.62967950222082,343.4832146174158 120.22743409778923,342.2034074071562 119.8429562310921,341.4223884670064 119.23070435551926,340.028128166683 118.66243441775441,338.508018595865 118.4646613332443,338.05070700345095 116.7878135467181,335.3496764993761 117.15335879113991,331.6792485973565 117.36860814224929,329.6880724695511 118.12270904891193,323.11893106019124 118.4128150754841,320.48474385763984 119.19254784006625,320.36071694502607 119.97519331553485,320.1956516056089 122.200795875513,318.62752461631317 123.3856867555296,317.85189262451604 124.52688696887344,317.0511784993578 126.35723463108297,315.7365600031335 128.22282609774265,314.8026881214464 129.7849130666582,314.2272240514867 130.93077361781616,313.8797561004758 131.76264391106088,313.56101532513276 132.75675221334677,313.01974772813264 133.5589128533611,312.42558300617384 133.9911591821583,312.00697633833624 134.65904384001624,311.0584963677684 135.45829176879488,308.91710518149193 134.65525731560774,308.435106848483 131.73439061339013,306.5809765018639 130.29026844445616,305.65116931067314 130.04530943999998,305.44459561724216 129.47500060452148,306.64801001979504 128.32040192000568,306.96721696364693 127.60824405332096,307.2978236603667 126.44403342227452,307.58693310339004 127.1960954311071,305.1965245200554 128.06990876444615,303.28855645121075 128.76692053338047,303.70353181421524 129.56442083558068,302.4508510194719 130.09919459559023,301.4991371119395 131.63215445331298,302.4727399342228 133.25045674666762,303.4581948274281 134.9042941154912,301.17216975055635 135.7716994844377,299.8866405762965 138.3276034843875,300.90995707537513 139.55793265777174,301.4156852380838 140.83603029337246,301.78369407961145 141.4305146310944,302.0714428132633 142.47909063112456,302.55436732590897 143.0502732800087,301.91001171653625 144.51128917338792,300.92135763308033 146.5743624533061,299.40735832764767 147.34623089781962,298.86787951539736 147.5725485511357,298.35530499659944 148.41344824887346,296.37887197954115 149.02278741332702,294.0804592955392 149.5878533688374,290.76413521147333 148.8768605865771,289.12009161442984 148.58413312002085,288.4848170611076 147.83032348449342,288.022839494457 148.13266289781313,286.50327751616715 146.76194104889873,285.09726275736466 145.34985870216042,283.62511038733646 144.9799443911761,282.767262344365 144.3618670933647,281.4100221460685 144.10583978670184,280.5462364948471 144.0714697955409,279.9273552194936 144.1795313777402,279.287036993308 142.2303451022599,278.63713942468166 142.43481742229778,277.65704460116103 142.890656711068,274.5826467591105 145.3530626844149,275.3579774273094 145.27208931557834,273.83376591757406 145.15208561776672,272.75331147405086 145.04460657772142,272.11662072938634 144.8086769777583,271.69702408777084 143.5352396799717,271.55883066839306 140.65427712001838,271.06261066748993 140.50718520884402,269.4165933621698 140.06882218667306,266.66955466970103 138.5507171555655,266.32748365972657 136.09005880879704,265.5247549044434 136.9825134932762,262.7598789156764 139.05927651561797,263.3573724234593 140.14979555550963,263.49967597809155 140.1489217422204,263.18040505226236 140.64961678220425,263.0896408032859 141.07516387547366,262.46706088550854 141.58022798225284,260.46019770239946 142.26267619559076,258.3292535569053 143.14901418669615,257.68841544527095 144.5331345066661,255.766345865326 145.86628238216508,254.99368186469655 146.08852224005386,254.57906940957764 146.2763921066653,253.947798758687 146.34950115554966,253.60753216873854 146.27347939554602,252.9379443442449 145.80540672002826,251.59602573676966 147.2448685511481,250.12729496939573 147.77236053324305,249.19815797754563 148.4300507021835,247.77776118495967 148.88297727995086,247.2376977924141 149.37143893330358,247.15331276587676 151.75898823107127,247.668745118659 153.28787029336672,248.0555466459482 154.30906680889893,246.97040240629576 155.8542600532528,245.56960498692933 157.3144021333428,245.3771143706399 159.3661158400355,245.04002731107175 160.9689807643881,245.39900904649403 161.41812081774697,245.4528334485949 162.21154332440346,245.4382370018866 162.4996104533784,244.7713607950136 162.71049073780887,243.6387612792896 163.29215914662927,241.9961849792162 164.3917075911304,240.52784534113016 165.57455957331695,239.72547723120078 164.7948268088512,237.83882852247916 164.36753208888695,236.43021743005374 164.04480369773228,235.100056845753 162.77311402664054,235.2638184829848 161.68113863107283,234.43360500753624 161.06335260439664,233.58514179801568 160.62295068439562,232.88082357973326 160.570521884365,232.74899174191523 162.88612721778918,232.10260402807035 164.46889443555847,231.65145436907187 165.61300736002158,231.34217226074543 166.8838232178241,231.03380204970017 167.33995377772953,230.52471654082183 167.50481322663836,230.64468930871226 168.80329984007403,230.25876906584017 169.5999263288686,230.06444017286412 170.14576839108486,229.97594291978749 171.2158984533744,230.68483227328397 171.97757240885403,233.67591839667875 172.20155989332125,234.69817887770478 173.35266332444735,234.83137801429257 174.55299157334957,235.02342183102155 174.44813397340477,236.36817994364537 173.74354915553704,237.3730938079534 173.16217201785184,237.73984287353233 171.92659996438306,238.16543522808934 172.04456476448104,240.23636574007105 173.43800575996283,243.6738842689665 174.28473087993916,243.4380583720049 175.1617481955327,244.53827293671202 175.91177130665164,245.69504309276817 176.6186862932518,246.69672078231815 177.05850567109883,247.49906309886137 177.1284107377287,248.40631300053792 176.83946979558095,249.1274576507858 175.89953792002052,250.1701711017522 175.00620942225214,250.9638341475511 174.72804551105946,251.17456488218158 173.9695755377179,251.26943925849628 173.7120918756118,250.69061369122937 173.30751630221494,250.02466589491814 172.84381269325968,249.3185765456874 172.59361080895178,248.95960129855666 172.18233600002714,247.9551972594345 171.15385770669673,248.0341083718231 170.68141596438363,250.1701711017522 170.366551893414,250.96155351074412 169.45370823109988,253.00088933674851 168.92009955551475,254.4773546817596 168.8959240532713,255.36861125717405 169.63779157330282,257.02294525248 170.85297464882024,258.68912551680114 171.51678151101805,258.9983686248306 173.1982896354748,259.5415954949567 173.89355377771426,259.75779120076913 175.4372906666249,259.40567487769295 176.59829731553327,258.90942706819624 176.58315121778287,257.32671736896737 176.59771477326285,256.7086820594268 176.41829176887404,255.95928337681107 175.84157496888656,253.9997965550865 176.01954161783215,253.51630779111292 177.5944445155328,251.80128234997392 179.0682763378136,250.48125087155495 180.97697592887562,248.80406037799548 182.6782904888969,247.88768946414348 183.96600007102825,247.37453830626328 185.63061447103973,246.98591102135833 186.53238983114716,246.48324887582567 187.16211797331925,246.01890113967238 187.6482494577067,245.11574650672264 187.83175025775563,244.27964091021568 188.05369884439278,243.46998839243315 188.09360298665706,242.11615140060894 187.64504547556862,240.93564243533183 186.92298439110164,239.79481217084685 186.87142940447666,239.3240639870055 187.05260003556032,238.50709450966679 187.81485653331038,236.83072371699382 188.56167566217482,235.5069518275559 188.73381688888185,233.9217905009864 189.8610360888997,233.4263966997387 191.3130225777859,233.3538665731321 191.63109063112643,231.82753513625357 192.3566469688667,229.97685526276473 193.21240149333607,230.2674363128608 194.17010090663098,230.55892931408016 195.05061347561423,230.79340070835315 197.8806035910966,231.43751148268348 196.9016413866775,229.36193521041423 195.78257777786348,227.178225057316 195.2775136710843,226.35892892372794 197.0842683733208,222.29251020902302 197.3452472888166,221.7902470084373 198.53392469335813,220.858707638341 200.25621077336837,223.3700227960362 201.62081592879258,225.23261977604125 202.8392029866809,226.84202206297778 204.09778545773588,228.64711126638576 204.14176739554387,228.78852525207913 208.3820922310697,235.63695735030342 208.46918229339644,235.57674427574966 213.6351667199051,229.69859046989586 219.5095224889228,222.27106938773068 220.3256641421467,221.26289220526814 221.11296995554585,220.31812100717798 222.61010346666444,218.51752442354336 223.92897905781865,216.9386256802827 227.34850190219004,212.8355336964014 228.62659953779075,213.1649153054459 231.1239580444526,213.9395531837945 233.27586901339237,214.65853144740686 233.64054044440854,213.33416798745748 233.97870620444883,212.22512712044409 234.22949063114356,211.64619732275605 234.5813461333746,210.92538422439247 235.61186332441866,208.5763380745193 235.67565169779118,208.41666223283391 236.08547015103977,207.52475644019432 236.47664725326467,206.53110975841992 237.48706673784181,203.49722004210344 238.21757468453143,201.66226644185372 238.35330702224746,201.29773751023458 238.97429703106172,200.7685079330695 242.5569316977635,196.93611727672396 242.76693816890474,196.7134715471184 243.12403655110393,196.3580591402133 243.89153592893854,195.53225912892958 244.1624180622166,195.236156590865 245.59459811553825,193.733737943694 245.71809706673957,193.5329888392007 246.01898012438323,193.2104211388505 245.09972849779297,192.2673527050065 244.22300245333463,191.284586170048 243.73541461338755,190.6120683416957 243.61803235556,190.32736545754597 243.54317567998078,190.13665081636282 243.14646442665253,189.40937861189013 243.10306503111497,189.18033755058423 243.18025187554304,188.79023717786185 243.6218188799685,188.72042966872687 244.79738908447325,188.47222500975477 245.78916721767746,188.09444237314165 249.37820984888822,185.96278694760986 252.1304305777885,184.19475632696413 253.341244586627,183.76312653301284 254.6411875556223,183.54320489114616 257.6479792355094,183.58700672973646 258.55878399999347,183.76540787675185 262.03393962664995,184.91839589289157 262.70794097776525,184.9699539791327 264.30323285330087,184.88919484743383 266.2888280177722,184.5077558303601 265.2492814222351,181.12085818662308 264.36236088885926,178.62182946607936 264.6775162310805,178.71491047530435 266.2631961599691,179.94594869139837 266.49184398225043,180.0394854086917 267.5156619377667,180.01712785556447 268.5071487999521,180.31507628277177 269.15580956451595,180.37439215363702 271.2375241955742,179.73788638511905 273.35506517335307,178.89331563131418 274.89647189341486,178.47080088075018 275.275124337757,178.3654002045514 275.8969881599769,177.78501114726532 277.65014897775836,176.27790872188052 278.7173663289286,175.67424350394867 279.7752630043542,175.52549429569626 280.4052824177779,175.11392386863008 281.94173752889037,173.54565999214537 282.53651313774753,172.5938364659669 282.7590442666551,172.27078131842427 283.72198656003457,171.4448895577807 284.39161884447094,171.05658245482482 285.05833841778804,170.64044058066793 286.9297553066863,169.49239591800142 288.25183487997856,167.3747029894148 288.6968971376773,166.64963595103472 289.59575978666544,165.21546537202084 291.1479435377987,163.3591974148294 291.86010140448343,162.36352304829052 292.50089784897864,161.70962442515884 292.87343360006344,160.39360753982328 293.1527625955641,159.83507368696155 293.3522833066527,159.38605523237493 294.10725802660454,158.5532695595757 296.52509951998945,156.94153499545064 298.4404983466957,155.89974209375214 299.7375286044553,154.979784146999 301.32291726220865,154.07442489604 303.6341535289539,153.81157795363106 304.10572145774495,154.34594180225395 304.3949536710279,155.14771326986374 304.91429006226826,156.55548354482744 305.1816769421566,157.8199591980083 305.29032106662635,158.7700223029824 305.36401265778113,159.25691662263125 305.3887707021786,159.84283111139666 305.36750791117083,160.44973463669885 305.46071466675494,162.54422322718892 305.7435389155289,163.6001298467163 305.78839466674253,165.80501420988003 305.9917019022396,168.00211901718285 306.22093226667494,168.70984211715404 308.1162333866814,169.47733805817552 310.2570760532981,170.68561391485855 311.0842860088451,170.7650094490964 312.5377288532909,170.79421239695512 315.8602584177861,170.2982180461986 316.25696967111435,170.3224017896573 316.831938844407,170.4004285664414 317.8726505244849,170.53366720792837 318.8437484088354,170.67055613792036 319.80290417780634,170.77550425904337 320.94672583113424,170.71299168857513 321.6786901332671,170.7814361078199 322.5580376178259,170.92562561348313 323.3543728356017,171.01551585801644 324.19527253333945,171.0994742254261 324.6918897777796,171.16609334165696 325.0644255288644,171.19118957873434 326.8336062578019,171.25324571615783 328.4658895644825,171.35454319638666 329.7285498310812,172.4441725590732 329.9414690133417,172.62760208919644 330.8176125155296,173.39097754622344 331.1525742933154,173.8504616569262 331.77968099550344,174.78402816178277 332.77874090662226,177.7097247169586 334.1104324265616,178.29604561906308 334.89715569780674,178.81072911957745 335.9163133156253,179.60328456759453 337.827051804401,180.64405102317687 338.90970652445685,180.9552305539255 340.33606115553994,181.44755033624824 341.3322083555395,181.70671359088738 342.93274311104324,182.06443137710448 343.0125513955718,182.11553386982996 342.2112645688467,180.1562921795994 341.50667975109536,179.15111310384236 340.949186844402,176.2158540225355 341.80435882660095,174.94920422160067 343.70461155555677,173.55934869882185 345.3785466310801,172.78365395532455 346.94063359999564,172.9506567050703 348.62126791116316,174.34507901547477 350.2209288533777,175.98451759759337 350.2803481600713,175.92520052578766 351.3062050133012,174.84334554575616 354.4155241244007,172.48615147027886 354.52941112883855,172.3866796893999 353.7415227732854,170.21699715201976 352.33846983115654,168.6459600495873 353.37044337776024,167.97930392064154 354.17114766221493,167.64985366002657 356.2225700977724,165.9460128817591 357.74067512887996,165.19766936823726 359.2203323732829,164.8335354317096 360.4870704355417,164.14952779968735 362.0893528177403,163.45274128858 362.3724683377659,163.14883762953104 362.4251884088153,163.20815819699783 362.94365098665,162.18784217443317 363.11899619561154,161.38107726862654 362.95151530671865,160.9366251839092 362.4767433955567,159.371909310692 362.09430442668963,157.6073124188697 361.4045744355535,156.2168893897324 360.99184327106923,155.44341423513833 360.51590627559926,154.60011782473885 361.6611842843704,153.9913725979859 361.9000265955692,153.92337920947466 363.1551138133509,153.64227879949613 364.8270099911606,152.68169753742404 366.21870336006396,152.31754257826833 367.8748708977364,151.81602992257103 368.35313806217164,151.68779947585426 368.5535325866658,151.61113497323822 370.1802817422431,151.61889269202948 371.86237240885384,150.85042085050372 371.4394467555685,149.85103831184097 370.8845752888592,149.31164363014977 370.28280917333905,148.89637269859668 369.8709518222604,148.25384204124566 369.10228736000136,147.03540154511575 368.3921683910303,145.85620017710607 367.67505891551264,144.6788177988492 366.7167769599473,143.9240119336173 365.3676091732923,143.0646983088227 364.6105955556268,142.7087415875867 363.55561159108765,142.1675037094392 362.6101455644239,141.66733664425556 361.2359284622362,141.6805710066692 360.6592116622487,141.7887276620604 359.25703253329266,141.98450476198923 358.8154655288672,141.87269734893925 357.49862883554306,141.57789058756316 355.9359593243571,140.91662752383854 355.06622378667817,140.72358761553187 352.9393621333875,140.27681137650507 352.0920544711407,139.87430124904495 351.17309411556926,139.4421268448932 350.17869454226457,138.97298617858905 349.5955697777681,138.66129001881927 349.6331437511835,138.6106336460216 347.41045390220825,136.9786706524319 346.5413009066833,136.0380957958987 346.6936356977094,135.2987764502177 346.9403423288604,132.9968301919289 347.02277205337305,131.55011474137427 346.73994780448265,130.14081293041818 345.0124188445043,128.94919728825334 343.7809245866956,128.66806449275464 343.2627532799961,128.50422232202254 342.3909788444871,128.24180075986078 341.3365774222184,128.0199972440023 340.6998587732669,127.84748324134853 340.1933383111609,126.90413043409353 341.1516202666098,125.85580370319076 341.6788209778024,125.33962529164273 342.2083518577274,125.22826568537857 343.2694525155239,124.42638355260715 343.5082948266063,123.85178320505656 343.2033339733025,122.68477844679728 343.1666338132927,122.55926915258169 342.90390727110207,121.46710702672135 341.8096017066855,120.60131475352682 340.7295684266137,119.62552574824076 339.8682797511574,118.95506761362776 339.19631729775574,118.35763244348345 339.1424321421655,117.24308511987329 339.47622883552685,115.52835063100792 340.1260546845151,113.88069571601227 340.19159068446606,113.72277577838395 341.3523060622392,112.43887328717392 339.42729528888594,111.63876952370629 338.8325196800288,111.30010520434007 337.6088897421723,110.52920830482617 338.893977884436,109.51229570852593 339.8353661155561,108.79570721648633 340.75432647112757,108.10467632504879 341.873972622212,107.23791781888576 344.50065550219733,107.3145980159752 346.8954865777632,107.33331163146067 346.95985749328975,106.6390810603043 346.9808290132787,106.54368694219738 347.06325873779133,106.34513924113708 347.1803497244837,103.92375551816076 347.31724714674056,101.6278662327677 347.4194833067013,100.32426499167923 347.55871089780703,99.12472583085764 347.8997893688502,96.91003410849953 348.0678528000135,95.8437606091029 347.8185247288784,94.24160178168677 347.6880352711305,93.43869209149852 347.5761871644063,92.45684680773411 347.49288362672087,91.40333237044979 347.44715406221803,90.5753065974568 347.840370062273,90.55020102567505 347.7430855111452,88.98223819199484 347.4529794844566,87.70321032754146 346.4250837332802,84.90182992460905 346.2028438755078,84.25317533203634 346.11342364444863,83.6382982856012 345.7108869688818,83.61912614479661 344.9314454755513,83.27722268155776 344.10307043557987,82.8216548790806 343.8843258310808,82.6303891534917 343.5819864177611,82.16797275224235 343.3344059733208,81.6179104965413 343.1613909333246,81.06236902566161 343.0842040888965,80.70220210170373 343.01080376887694,80.0841195724206 343.03381418669596,79.63493588974234 342.50806983106304,79.16931767517235 342.19903118221555,77.67157230112934 342.2616544710472,77.50586560898228 342.78099086217117,77.7176779974252 343.741894257837,78.31248624867294 344.22977336891927,78.43482573260553 344.6707578310743,78.48412669915706 345.60748572449666,78.4001324531273 346.10992839105893,78.66580979386345 346.5267373510869,78.18832073162775 347.0891818666132,77.54558044753503 347.3146257066401,77.06489346374292 347.34433535998687,76.18477246281691 347.32452892442234,75.25945467257407 347.3038486755686,74.4268022334436 347.30647011555266,73.96756382874446 347.4684168533422,73.58273407822708 347.3315194310853,73.2919429356698 347.17947591107804,73.05912714009173 346.7751916089328,72.93450211139861 346.551786666736,73.1202983732801 346.044392391108,72.94911017699633 345.72253781335894,72.826767596649 345.2142697244417,72.83178912173025 345.0537793422118,72.98654334084131 344.82105372450314,73.02580250566825 344.7861011910718,73.07921321853064 344.681243591127,72.99019535642583 344.38472960004583,73.30015995918075 343.3105217422126,73.42706728272606 342.4166107021738,73.62747114244848 342.3909788444871,73.45582684583496 341.2509437155677,71.14728914725129 340.67131420446094,69.62529335886938 340.53703822218813,69.08752504503354 339.5339005155256,64.70041790383402 339.1322376533644,63.111724529298954 339.10806215100456,63.036854784120806 338.96941710216925,62.49359183374327 338.95834879996255,62.447939422912896 337.68491150217596,62.81544105691137 337.3362599821994,62.88711521605728 336.5533232354792,63.08022445673123 335.3433830400463,63.43722501117736 334.5380184177775,63.68968157004565 333.6927496533608,63.96268127934309 333.03447694226634,64.39135404187255 332.3657184711192,64.88485166756436 331.78725404443685,65.32539207686204 331.73540778667666,65.28978366253432 331.76045710220933,64.48585367418127 331.7852151466068,63.741268498124555 331.76569998217747,63.05420265416615 331.733951431117,62.298655972466804 331.98881365335546,60.873838416533545 332.42455523554236,59.37003170722164 332.8256355555495,58.221397574292496 332.93049315549433,57.674470279423986 332.9147645155899,56.89059962128522 332.77116785780527,56.403931845503394 331.9343459556112,53.84000551875215 331.00577365327626,53.90209526108811 330.0125391645124,54.00938264164142 329.5957302044844,54.08425550546963 328.96862350218,54.28467725170776 328.40734407119453,54.43761855055345 327.19740387552883,54.70697759074392 326.08387441770174,54.81106879119761 325.2024880355457,54.84165698522702 324.30304284440354,54.840743904875126 324.2908094577724,54.761305898893625 323.7953572977567,53.01457548898179 323.3846650311025,52.07454929780215 322.6800802133512,51.116713657043874 327.9815057066735,50.65788240567781 329.1375607466325,50.40906306216493 329.01551815110724,48.868202967219986 328.9732838399941,47.44694955798332 329.01173162669875,46.56670827214839 328.4000622932799,41.64998358889716 327.8475209955359,37.18607258272823 326.96293063112535,36.669682958046906 326.5918512356002,36.33911989990156 326.1555271111429,35.981161544448696 325.04520163557027,34.19547015125863 324.63480063993484,33.73751624207944 323.85594168887474,33.569949614699 323.7569095111685,30.601213660789654 323.77875484444667,29.3081433911575 323.78428899555,28.746532078483142 322.74299477331806,28.681238961522467 321.2764447289519,28.68443512840895 316.64785550220404,29.184862983762287 315.1708196977852,29.426857791258954 313.7931073422078,29.725926472456194 312.77831879106816,30.056956210755743 312.53568995557725,29.184406389540527 310.64650552882813,29.487584747665096 309.3902532267384,29.746929753688164 306.2649142043665,30.40442274394445 304.03523384884465,30.717644397518598 303.2651130311424,30.722666898509488 303.2068588088732,30.441406665428076 302.3004231110681,30.57336159289116 301.4478725688532,30.755541447317228 299.7037411555648,30.982010426349007 298.03563150228,31.13770771207055 297.89902535115834,27.868497816845775 297.3692031999817,8.828936113452073 297.08026225783397,8.748567964707036 296.27839288895484,8.548104100162163 293.84948309336323,7.912006828410085 291.9812701867195,7.3412072563078254 289.57333191111684,6.585922951344401 287.255105137825,6.179967965756077 284.9447426844854,5.690903075388633 284.7149297777796,5.633822600764688 284.4571548444219,5.770815714611672 282.45553976891097,5.45253491360927 279.92992796446197,5 278.87785671115853,5.379928467387799 277.88462222216185,6.135216975933872 277.40344234660733,6.441167436307296 276.7087607466383,6.711499423952773 275.94388280890416,7.050783856830094 273.3116657778155,8.675962622859515 273.17884615110233,8.856334339128807 272.4439691377338,9.0695837441599 270.6331366399536,9.303381565900054 269.8991334399907,9.349501809629146 267.01438435551245,9.39196895598434 266.01328554668,9.38009642122779 265.0649068088969,9.390599048114382 262.5459942399757,9.445395354006905 261.8644198400434,9.47507668059552 261.1260475732852,9.450874983798712 259.5074540087953,9.317080649198033 258.54771569778677,9.121183675772045 258.5599490844179,8.981452859239653 257.647396693239,8.707470604393166 256.8906743467087,8.609750183066353 256.4150286222575,8.564086419646628 255.12761031102855,8.654500661883503 254.2942836622242,8.801994521461893 253.76358769775834,8.850398057256825 253.33134136884473,8.859987435629591 252.76598414219916,8.793318414827809 252.19159751106054,8.648564374423586 251.71769941330422,8.350379879004322 250.78854456893168,8.668199786217883 250.24794538668357,9.418453838676214 249.79385372437537,10.740410684025846 250.8674790399382,11.29841560893692 251.82051811553538,11.800710138864815 252.9605532444548,12.910776920325588 253.8559206399368,13.958736845408566 253.85446428437717,14.912627116311342 253.5981457066955,17.277928102819715 253.20434716437012,19.850049467524514 252.91132842667866,21.81302373361541 252.1382948977407,23.709315786603838 251.7654678755207,26.21287075278815 251.48759523557965,27.179491841234267 250.90388792881276,27.64385197404772 249.97123783116695,28.03058969299309 249.00975189334713,28.08264170633629 248.86819413339254,28.289023250341415 248.28914716443978,29.982075045234524 248.1781728711212,30.215393713500816 246.45821695995983,32.140833876794204 245.47226424887776,34.095021719578654 245.26284032000694,34.931481784326024 246.22520007111598,36.76099863112904 246.0696612978354,39.435617626528256 246.19141262222547,39.7926571322605 246.88259896892123,41.129952048300765 247.3765947733773,42.01797705946956 246.54181176889688,42.91695599921513 245.24885930668097,43.594497844867874 244.30980124452617,43.98166366276564 243.5705551643623,44.20127038174542 241.42243071994744,44.623590369708836 240.62114389333874,44.872416355705354 239.05381404445507,45.33171641617082 237.8033871643711,45.90926431544358 237.48153258673847,46.094170629861765 236.87801884440705,46.752983697282616 236.2354747733334,47.05476780841127 236.18479359999765,47.35563838749658 236.04673109331634,47.80991108028684 235.17903445323464,48.62714297469938 231.45018168888055,52.96755144908093 231.12162787560374,53.25152170972433 231.3255176533712,53.43642175977584 231.4667841421906,53.53229579771869 231.95553706667852,53.853245244710706 233.1879051377764,54.663149701897055 233.58985927107278,54.928399601834826 236.37353728001472,56.75774764455855 238.20068095996976,57.92647701752139 238.59477077331394,58.514948132564314 238.6154510221677,59.31022618513089 238.39146353770047,60.52002933702897 238.2729161955649,61.16875496262219 238.12232903111726,61.983197333756834 238.45874716434628,61.95306667278055 240.53318001772277,62.068567517155316 240.69978709332645,63.108528869983274 242.6763528533047,66.47581462294329 243.34540259558707,68.15532927197637 244.03309368889313,68.78440207976382 244.4338827377651,69.14093672845047 244.98292878223583,69.79237560235197 245.68139690661337,70.42600873223273 244.41407630220056,72.11325333546847 242.35711971553974,75.10744106140919 240.87163704889826,77.38626455678605 240.16006172448397,78.53205818368588 239.1225540266605,79.96132453205064 239.61101568001322,80.47487210010877 240.43269148445688,81.12536393949995 243.379772586748,83.03574447659776 243.5586130488664,83.16492850251961 244.46126222214662,82.7509002747247 245.49352704000194,82.16295144334435 246.24791921768337,81.41568808816373 246.33267911104485,81.47868289932376 246.40025400894228,81.53346098109614 246.56686108442955,81.67862283065915 244.69020131556317,84.2837593712029 245.87305329774972,85.17023815371795 245.11341823998373,87.08377834584098 248.11758848000318,88.62938793259673 248.0363238400314,89.1424584952183 247.8021418666467,89.95223109377548 248.5696412443649,90.82499276171438 249.79356245335657,91.88353109394666 249.13674609770533,93.3295983907301 248.71032519103028,94.10192583547905 250.25260572438128,94.94591408676933 251.0308821334038,95.38821921864292 252.41500245325733,96.51702894701157 251.96964892442338,97.0063453692128 253.1140531199053,98.48706855945056 254.55613639112562,100.18139785237145 255.15062072884757,100.7117859274149 255.7628726044204,101.18420450564008 254.18884352000896,102.86390666710213 253.028419413371,104.24326104577631 252.13159566221293,105.56829108600505 251.88372394663747,105.95306405139854 251.57031623111106,106.49895667133387 251.373999502277,106.78879040502943 251.22457742213737,107.00878992525395 251.72352483554278,107.79065363312839 252.0925653333543,108.59853085916257 252.0593604266178,109.67341368657071 252.13363455992658,110.30327885388397 252.1639267555438,110.82999078428838 252.1601402310189,113.76841739064548 252.1744125155965,115.0970405129483 252.2280063999351,115.6415408689063 252.62093112885486,117.03998312703334 252.96375722670928,117.84234899177682 253.45396650664043,118.84918159199879 255.45092124445364,120.15495344309602 255.1922724978067,120.83909990254324 254.97178026672918,121.43105143436696 252.48607260442805,119.82177926867735 250.82000184885692,118.84872518660268 249.8690016710898,118.50140041555278 249.67326748440973,118.54977945785504 249.27888639993034,118.2051926482236 249.19296142214444,118.33983259263914 247.41912035550922,117.25723379093688 245.59780209779274,116.15454749704804 243.69172394659836,114.99617315514479 241.91671779553872,114.0030151262763 240.15307121782098,113.08516144973692 237.97174186666962,116.54660423507448 235.9707093333127,119.51051197457127 234.86620927997865,118.70723947323859 233.03207509336062,120.85005353076849 230.3946151821874,118.05777322337963 228.39824298664462,115.88663404469844 226.35818012442905,113.72140652994858 225.60524430219084,112.83184958179481 221.27637304889504,117.04500362812541 220.74917233770248,117.35810009657871 219.91031153779477,115.42748347390443 218.5142491022125,115.7058949698694 218.34589440003037,115.21935923676938 218.10239175113384,114.82730009814259 217.13537166221067,113.58630730031291 216.37428024888504,113.88799836928956 215.5089137777686,114.32113655272406 213.944205368869,115.36130363942357 212.22221055999398,116.51100423454773 210.9895512177609,115.02355796284974 207.5662418488646,117.6711961128749 205.06072775111534,119.8199536553584 201.18274417775683,116.42702472303063 201.14167495106813,116.38549136568327 199.92357916443143,118.08515764423646 198.3993574399501,120.44111770181917 198.34576355561148,120.40232352621388 196.04064398224,118.30240726057673 194.49253802665044,116.71593236248009 193.41366983111948,115.66755635885056 192.95724799996242,115.32433420582674 192.00362638221122,114.95418311003596 189.93589276447892,113.13125961367041 188.9033366754884,114.08653916150797 188.53196600894444,113.28324656013865 187.87718855112325,111.26815571298357 187.45571925328113,111.7140789029072 186.59559566224925,112.3562614551629 185.4168214756064,113.15910107432865 184.55844551103655,113.63696952129249 183.71696327114478,112.52650569332764 183.51977272890508,111.91353452613112 183.47025663999375,110.27361133275554 183.36976810672786,108.70579116838053 183.29491143114865,108.13388771505561 184.03677895106375,107.1297439232003 184.58320355555043,105.7727731266059 185.45439544890542,102.91548427205998 186.57404159998987,98.59935480065178 186.10509511106648,96.37415929825511 187.19153635553084,95.63196593336761 188.08865137782414,94.35936770559056 191.36020849773195,94.63187233067583 192.51801116438583,94.66291136172367 194.2638902043691,93.81846555043012 195.72956643556245,92.6389746509958 196.02899313776288,90.80856004310772 195.97685560886748,89.69250165531412 196.0074390756199,88.69557592936326 195.9995747555513,87.9328151003574 196.0112256000284,87.66486676339991 196.41754880000371,84.05597664753441 197.19786410662346,82.08671883062925 198.3763470222475,82.34463145432528 199.438612764352,79.63630535360426 199.76454513776116,78.29833503521513 199.86765511112753,76.23179146554321 199.66260024881922,75.23845580173656 198.51353571552318,72.8998079514131 198.36964778671972,71.91467409254983 198.79140835546423,69.86222142004408 198.68655075551942,69.29934566072188 197.87215672887396,68.23430585674942 196.3426921244245,66.64107323315693 195.7394696533447,68.25210982270073 195.3217868800275,69.60748950566631 194.95158129779156,70.36848879838362 194.45583786664065,70.31051234155893 193.96388096001465,70.4675508972723 193.16434175998438,71.27054568682797 192.44053304893896,72.2835291850497 192.00100494222715,72.9203505468322 191.66050901333801,73.64892666990636 191.17641642666422,74.94857987621799 190.5723201421788,76.403433563828 189.91783395560924,77.87516767799389 188.61876480001956,77.27853225491708 187.87922744895332,78.75299936567899 187.73417443560902,78.97439681185642 186.34947157336865,79.5326825636439 185.9647024355363,79.70979990146589 184.78767587558832,80.46528588992078 183.64531057770364,81.16918647737475 182.33371676446404,82.0611557927914 181.61078186659142,82.8832798381336 180.70551125332713,83.70905260019936 179.71635455999058,84.51108537788969 178.53408511995804,86.82358899712563 176.51761521783192,87.38641924783587 174.99281095108017,87.14814092597226 174.19152412447147,86.72407790052239 173.0229444267461,85.67829567729495 172.10835313773714,84.70371887559304 171.40493340441026,84.67359137308085 170.02896867564414,84.4033566173166 169.1679712710902,84.0039380757953 168.24114659556653,82.56465578649659 167.10781070229132,82.22503307234729 166.25263871997595,82.43592788488604 165.58300643553957,83.4356212822604 165.0255135288462,84.59188191319117 164.4103489421541,85.77004717860837 163.86363306664862,87.95289980049711 163.72032767999917,89.86595895979553 163.54702136886772,91.95976026111748 163.42556131549645,92.97995042742696 163.3454617599491,93.82713825383689 162.88816611561924,95.40602095425129 162.6484499911312,96.34859794541262 162.42067598213907,97.14556299272226 161.95842872885987,98.63084971148055 161.5756984888576,99.83541250496637 161.23724145779852,100.92357563960832 160.68266126222443,102.44306946720462 160.48284928000066,102.2134800645872 159.67428067559376,101.23350029793801 158.81415708444547,100.18276718637208 157.98665585776325,99.1023599312175 157.0426461866591,97.89231566991657 155.6110486756079,96.0733567585703 155.0419049244374,95.34257373597939 154.25722055113874,94.34613045374863 153.49001244443934,93.35607301769778 152.315024782205,91.96888950082939 151.58189539553132,91.04226970183663 152.30919935996644,90.28179945878219 152.68464782217052,89.5592133164173 153.66506638214923,88.44177908729762 154.1407121066004,87.39646162342979 154.00148451561108,86.34976969682612 152.52881777775474,85.54546134546399 150.36904248886276,84.03817397961393 149.2933782755863,83.18912196881138 148.16615907556843,84.28649824019521 147.58274303993676,84.37368555099238 147.04593038221356,84.69413285254268 145.18441671109758,84.73019455629401 145.23917567997705,83.66431761696003 144.9726626133779,81.44901143258903 140.67466609773692,82.83900116558652 139.9805670400383,79.6207847626647 136.18239175109193,79.56052834028378 134.59671182220336,79.8097707061097 133.19278506666888,80.74100338330027 132.51121066662017,81.45677166269161 131.848860159982,82.0072908103466 130.22007210669108,83.23111816792516 129.42490197333973,84.2029627210577 128.757308586617,86.24615011643618 128.69293767109048,87.12394790153485 128.77682375116274,87.78035390668083 128.9247894755099,88.37056984804804 128.6306056532776,88.99867104907753 128.3288487822283,90.07593340589665 127.06065436440986,92.29571603180375 125.88945322670043,92.81197313737357 124.8979663643986,93.31681753514567 123.96385991107672,93.70069933263585 124.78524444438517,95.4178887772141 125.53031594667118,99.28219995775726 126.2346094934037,100.57211415062193 127.18065806222148,101.51329935109243 120.27287239104044,103.85118205402978 121.85622215108015,103.78180362546118 123.0020827021217,103.94612092035823 123.10781411547214,104.72616993507836 119.65741653332952,104.50571166258305 116.83995107549708,104.38247402122943 116.13536625774577,104.3961670959834 114.85319082671776,104.22682934440672 114.38249671109952,104.78961440676358 115.53447395551484,111.96967417647829 115.64894350222312,112.46078139205929 115.06086712889373,112.61459448258393 114.81678193772677,116.3275272162864 112.70011477335356,117.29100803425536 105.08395776001271,122.51271659589838 104.13645283551887,123.28037610684987 101.57705358229578,125.54819620365743 99.49941674666479,127.4180231835926 94.38673493335955,132.57240047695814 90.55622855108231,137.72574248490855 90.13213781337254,138.448624446115 89.86154695111327,139.09529143071268 89.65124920883682,139.85878497071099 89.62532608001493,140.50544774869923 89.6879493688466,141.33328281564172 89.80999196448829,142.22546094981954 90.42078748438507,145.3779464007821 90.74497223109938,146.5201862566173 86.3610507377889,144.02942935569445 84.95450254227035,144.10792194819078 84.32244423113298,144.6404843115015 84.03146439115517,144.81252860004315 82.26199239108246,145.85756922268774 78.91703495103866,148.05715791531838 73.69483519997448,151.32638086914085 73.45832305785734,151.47423400834668 73.37065045337658,151.5508985593915 73.86901532439515,152.60594605497317 75.12002474663313,154.64392551122 76.43132728897035,156.95568107580766 76.62560511997435,157.5881468190928 76.582496995572,158.287690113415 76.43249237327836,159.05841719603632 74.3845651911106,160.55651297589066 64.43183132447302,167.02654334844556 63.93434026662726,167.08403763966635 63.7569561599521,167.1570462413947 63.46393742226064,167.75662845303304 62.475654542213306,167.91177122108638 60.61821866664104,167.9469064795412 59.19273784884717,168.29962765530217 58.770686008851044,168.7509091506945 58.287758506601676,169.22546097403392 58.028818488819525,168.88825550640468 57.730848142295144,168.64778525184374 56.57158911996521,170.00710031832568 56.065942471148446,170.49396940198494 55.76535068440717,171.6064178070519 55.458933475543745,171.59546674310695 55.26611199998297,171.8970770938322 51.492694755550474,172.55824566824595 50.987048106617294,172.74851948063588 49.720892586628906,173.65745107166003 47.08780174225103,173.9677280515898 45.420274631120265,174.30218788707862 44.076058453298174,174.89627489016857 42.790970311150886,175.59484976745443 41.895894186687656,176.31258634018013 40.28399985784199,177.5746653584065 39.3420290844515,178.24129198328592 38.72686449775938,179.31035422137938 38.20286776882131,180.36937311902875 37.7146973866038,180.35933504940476 37.28274232882541,180.45332786417566 37.104484408861026,180.8717322780285 36.88632234663237,180.9780442849733 36.50446591991931,180.2489162539132 35.37346019549295,180.55827124993084 34.134101617732085,179.9053400552366 31.15119416883681,178.79339051089482 28.153431893326342,177.72341316088568 27.563316622166894,177.5828784299083 26.475419022259302,177.305002671259 24.853912746650167,177.11701427126536 23.539988764445297,177.09921924443915 22.32422314665746,177.09237500291783 19.164514133357443,177.17496216925792 16.783081528847106,177.19914514571428 16.292872248915955,177.89953772723675 15.861791004426777,178.36631276470143 13.491717973374762,180.36298525659367 12.8564556799829,180.9479301595129 11.990797937731259,180.50716839020606 11.144946631160565,181.6250406971667 9.803351893322542,182.1648112621042 8.772543431143276,183.03993938153144 8.732056746724993,183.78639623732306 7.088122595567256,185.60096920939395 5,185.68765951693058" stroke="red" stroke-width="3.6265348959924966px" fill="none" stroke-linejoin="round" vector-effect="non-scaling-stroke"></polygon></svg>