<svg width="22653.549579946673" height="23356.670525858237" xmlns="http://www.w3.org/2000/svg"><polygon points="5,2652.4428876173333 116.60023495124187,2909.642762245552 106.20010865770746,3105.4428168549202 131.20019939553458,3268.8427200228325 214.40004465775564,3446.0427407018724 321.400234951172,3583.6430549067445 594.1421343289549,3803.108598196064 840.1805895111756,3910.184113998257 1203.0012839821866,3916.6655784667237 1441.7844670576742,3845.676762034127 1474.8807296000887,3835.8373017464182 1659.5981690310873,3674.2414677501074 1766.6589437155053,3472.5741372564225 1443.6809332622215,3180.5451246287557 1421.3439342933707,2784.3322358164005 1409.688720782171,2577.5897237914032 1395.135359715554,2319.4458992168657 764.0481464888435,2134.56867114373 132.96093326224945,2134.56867114373 25.33276245323941,2134.5690410243697 7.224146204534918,2342.5817981875152 5,2652.4428876173333" stroke="red" stroke-width="3.328197796667201px" fill="none" stroke-linejoin="round" vector-effect="non-scaling-stroke"></polygon><polygon points="1355.5979278222658,16342.854659507168 1404.273117013392,16644.229832568846 1414.15245056001,16715.62837185402 1486.6981811199803,16829.80494993372 1545.1525065954775,16932.628310458676 1644.2231321599102,17034.70488631248 1757.151563377818,17131.627273965918 1887.673060977715,17205.97947390098 2009.151464391034,17245.627252157137 2161.298094364465,17271.980088410026 3046.6891630933387,17440.066273242992 4145.025919715525,17640.511881389597 4916.811934435507,17779.207600714057 4910.152311751037,17918.628514973272 4933.837313422235,18062.235401678714 4981.772382719908,18195.95602201711 4848.152343039983,18324.628392640385 4782.152348160045,18419.62842901959 4738.064678968978,18516.325309313426 4619.1523740442935,18647.62835282454 4525.746680319891,18802.42364705092 4471.539670186699,19014.47501749848 4459.152492373367,19138.628192153294 4476.514872035477,19271.075219746912 4527.514695964404,19413.575302867743 4618.539830897702,19573.500483090582 4712.51495964441,19730.550283337245 4774.514637084445,19806.00051652931 4796.152294115513,19893.628319419862 4833.564611982205,19959.925165559223 4848.152343039983,20026.628488955146 4888.014833493275,20122.525178841024 4954.064927004394,20246.55018255819 5057.539571768837,20350.42517267674 5161.539669617778,20433.47513209161 5306.014801066718,20504.550137288286 5406.01458147564,20529.525338988984 5634.514729244518,20530.550228866516 5779.064717368921,20495.050408847514 5951.264780799975,20392.525339510117 6048.18990335986,20295.499964898743 6137.990534542245,20164.529523396806 6255.152300088899,20179.62835020182 6367.614988800022,20170.02546023653 6483.664972515544,20139.550286333717 6618.152417564299,20156.628290086403 6821.314891377697,20150.025362140208 7030.239872853272,20060.57549376617 7124.1523783110315,19989.628222517553 7224.152449991088,19879.628320732445 7451.152551537729,19805.628401364665 7594.152394808945,19717.62851696374 7695.152400213294,19634.62827682792 7782.73995349335,19533.525228151993 7842.152560924413,19445.62819613429 7868.152294115513,19372.628293358546 8016.039957902161,19185.57518111769 8107.539864746737,19025.575267216715 8161.739593102131,18870.550284329744 8229.152544142213,18741.628370366292 8270.964803413372,18595.950415675994 8284.364730879897,18332.775508864317 8218.15239935997,18139.628320976684 8092.152303217794,17953.628399982583 7955.15235356451,17843.6283083983 7789.539677582099,17768.550235005794 7633.739925333299,17739.400200599746 7410.814706631121,17571.52539167204 8601.690042880015,17412.875366090622 9334.191740302253,17342.54872649425 9586.939916800126,17302.300115012447 9762.152306062286,17241.628233519383 9939.092224284424,17133.34894285095 10255.91713251546,16708.098857612058 10478.840021048905,16424.550018205773 10567.44207160885,16293.181741626875 11069.971245795488,16129.735815179301 11462.41741624882,16005.435656389163 12947.749495751108,15518.246938344557 12879.149323662277,14929.625395206676 13332.956705280114,14167.62081785564 13674.657914026524,13565.264100135828 13776.57950122666,13372.039935995417 13912.419026773307,13175.344223846972 13990.031127039925,13043.892231888894 14101.759521280066,12897.453137060802 14233.910098204506,12749.83440432878 14259.35903772444,12716.479508632154 14839.013015608885,12726.640912295785 14839.152825742261,12690.62902494811 14907.064724195632,12529.57523299387 15013.152944639907,12461.128676327993 15111.314804337686,12345.97521288722 15208.51488682651,12179.550265343045 15251.51494968892,11989.02515179984 15349.152812657761,11888.628844566701 15431.589818879962,11766.575163085712 15495.114883128786,11504.725274627854 15548.152439751197,11380.628365314798 15581.84173027554,11242.777787959378 15579.152424106607,11087.628178628103 15557.039995164494,10953.575308222265 15649.152445155545,10521.628376174893 15760.46490424883,10196.575223374413 15763.15246279107,9996.628235189186 15849.152297244407,9831.628409724392 15908.15246478212,9640.628525726555 15905.524616817711,9348.25162441592 15809.524571306654,9026.228190004767 15708.540003271191,8874.550277167058 15561.014680746594,8721.575563438179 15317.865052444395,8577.325288307795 15403.714882275555,8453.575201492291 15471.524544568849,8191.088329756283 15529.524487111135,7786.031984135334 15483.730260480079,7474.041373967135 15531.464935253374,7387.500052903779 15583.014970311197,7221.575591358065 15610.514749724418,6807.275493819267 15483.389764551073,6329.9251027790015 15436.152289564372,6209.628310675791 15436.014809599961,5959.075309627573 15460.152446577791,5873.628267782333 15467.28975388431,5757.975390643696 15446.524453831022,5575.73398257076 15387.152333084377,5414.628297994903 15293.214778310969,5281.000217811437 15301.524451839854,5000.657785097836 15217.989936071099,4801.02525152429 15143.152484408929,4668.628187530325 15016.864612408797,4502.374436798214 14946.152433493407,4426.602829322161 14896.139727359987,4315.700036238763 14816.014831217704,4142.050355813641 14738.939834879944,4069.9502211050713 14590.524679111084,3840.498858628096 14560.524628479849,3815.483871294651 14551.652801706688,3699.128894104564 14465.989676657715,3503.5505494769313 14380.489663430955,3374.0500827165088 14286.064812088967,3122.0750828380114 14181.152453119983,2991.6285122973495 14115.539848817629,2955.0753642587806 14063.152409315575,2855.6283844851423 14025.152306346688,2814.295631228946 13984.152402204345,2764.6743775883806 13940.152405617759,2729.942708572198 13892.152382862172,2691.6704370480147 13817.152401919942,2566.628259770514 13691.01482581324,2420.70035097847 13611.152364942245,2260.628321237804 13475.405172337661,2111.5733229814796 13476.15257400903,2067.628269275592 13395.114834204433,1940.7750475248904 13314.152533617686,1807.6282682951423 13200.339803306502,1687.5501378578483 13163.1523467378,1614.6284491969272 13102.152311751153,1525.6285304136109 13073.860274915467,1390.7086604952347 12971.564695608919,1120.0750406408915 12832.53982919117,825.0751184181427 12718.053680071142,582.7290734259295 12657.152385991067,479.6282989503816 12629.875428977772,423.23013384232763 12595.039695359883,338.57506682531675 12540.437430328922,205.44832885515643 12480.858507093391,26.462384415091947 12107.80225450662,16.73238713288447 11714.177601137664,6.4662969333003275 11662.14726001781,5.109236229734961 11660.609931093408,5 11616.069626595476,34.99914024287136 11615.443684977712,35.40397700399626 11607.37809664011,40.61945729953004 11606.941772515536,40.85691188293276 11606.55350812443,41.06864514830522 11587.574282524409,51.40907631540904 11577.367560248822,53.014901207759976 11568.884580408805,61.89559479773743 11553.421870933264,79.44588553375797 11538.034600675572,88.14568557322491 11526.65638599114,94.67687208292773 11524.804192995653,96.45946621871553 11517.355516871088,98.17906385654351 11509.818003057735,101.87649676337605 11505.887590684462,102.84174903348321 11500.220037404331,107.14993677957682 11499.311854079948,108.28958245296963 11498.801547093317,108.47070293367142 11496.680510862265,110.46488349337596 11496.276809102274,111.5355708283605 11494.980652657803,112.39345922420034 11495.077645937912,112.59619178815046 11494.804142364534,112.7392970349756 11493.164286008803,114.21506542718271 11492.916123022209,114.32239371986361 11492.108428231208,115.25182512117317 11491.589674382238,115.6654844097211 11491.265780906659,115.72809224633966 11491.06917290669,115.59057858597953 11490.740910364431,115.66138508659787 11489.80330865772,116.0970309858676 11489.193678222247,116.18274395348271 11488.180054755649,116.61838900385192 11488.118596551125,116.50658965739422 11487.212452124455,116.4473359848489 11486.751661226735,116.2047311886563 11484.923935004394,115.86336984322406 11484.561302471091,115.8313206115854 11484.47304732434,115.97069747478236 11482.478422755608,116.01504464325262 11482.044720071135,115.66772040416254 11481.142070897738,115.26225977769354 11480.57117951999,115.19070783868665 11480.051843128866,114.60524828528287 11478.625197226764,114.14351320802234 11478.642382222228,116.4480813141563 11476.551055644406,115.04872190300375 11475.45675007999,114.73568177857669 11474.74197077332,114.18450666923309 11474.763816106599,114.04289286752464 11474.367687395541,113.94376316171838 11473.739706879947,114.35891514300602 11473.208428373211,114.10960043082014 11472.942206577747,114.28922630072339 11472.542873884551,114.88586655067047 11472.289468017872,115.07070923130959 11471.670225635404,116.52075091050938 11471.496336782235,117.37713266728679 11471.537406008923,118.02109416690655 11471.133121706662,119.12268212012714 11471.779452302144,119.47670976171503 11471.798676195554,119.91160412871977 11471.970234879991,120.39755209663417 11472.304031573352,120.83952547889203 11471.979555555503,120.91703844204312 11472.354130204418,122.34208045474952 11472.158978560008,123.25285123818321 11472.397820870974,123.30539561185287 11472.599380479893,123.4991761915735 11472.93405098666,124.44981696369359 11472.442094079917,125.65497567440616 11472.607244799961,127.04310011508642 11472.855116515653,127.47984542953782 11474.367396124522,128.98459899693262 11473.975345208892,128.89330042083748 11474.381085866597,129.2912874550093 11474.578276408953,130.44313610630343 11474.392736711074,130.48561765055638 11473.994277831167,130.95477741403738 11473.873691591085,131.4045588770532 11473.266973866615,132.62757308362052 11472.342479360057,132.50609172752593 11471.958292764379,132.56459655927029 11471.699061475461,132.33467622334138 11471.598572942195,132.43044533376815 11472.613652764354,133.22827149368823 11472.970459875418,133.33484687720193 11473.232312604436,133.55917674151715 11473.272799288854,133.77866209117929 11473.839030328789,134.10584025783464 11474.140204657684,134.126708100026 11474.083115520072,134.43637178075733 11474.350211128825,134.9696185066132 11474.636530631105,135.31021019886248 11474.827895751223,135.77265402354533 11475.174217102234,136.07039140543202 11475.116545422119,137.01241688459413 11475.342280533165,137.98089610913303 11475.056834844407,138.70865060319193 11475.03032917343,139.40137564844918 11474.772845511092,140.14440417685546 11474.970036053332,140.9179863500758 11474.833138631075,141.15162561292527 11473.724560782313,141.69342943420634 11472.248690062203,142.08580799534684 11471.880814648932,142.0802185612265 11470.330669795396,142.66785376606276 11470.396205795463,142.76510969008086 11471.857804231113,142.37683103897143 11472.161017457722,142.50464259571163 11473.622033351101,141.99376863142243 11474.898383360007,141.23211373278173 11475.090913564432,140.98543247400085 11475.044018915622,140.18837470718427 11475.269462755648,139.75723961938638 11475.815596088883,139.56607924145646 11476.30930062232,139.6629636606085 11476.544647680013,139.202389724378 11476.662612479879,138.65089238231303 11477.110296177794,137.76253211143194 11478.564904106664,138.86478405399248 11480.311365688802,139.42298834287794 11480.785263786674,139.7464332858799 11481.17352817778,140.27519785164623 11482.18336511997,141.1765918378369 11482.993390079937,142.2520004507969 11483.489133511088,142.5918376169284 11483.716324977693,143.2241869844147 11483.71137336886,143.80399451951962 11482.936592213227,142.95626778248698 11482.872512568953,143.0162608398823 11483.992449991172,144.4232991237659 11484.291294151219,145.41634473012527 11483.873611377785,145.6060104324133 11483.832542151213,146.79393322684336 11484.41974471102,146.94037378334906 11484.58140017779,146.75965196540346 11484.735482595628,147.4355882013915 11486.029891413404,149.3210462963325 11485.922412373242,149.62622097198619 11485.560944924364,149.99734867998632 11485.075687253382,150.85101497831056 11484.828689351096,151.1666211655829 11484.059733617702,151.7616887256154 11483.365634559887,152.801283854933 11482.932223146665,153.15750261890935 11482.308902968885,153.31809899862856 11482.073264639825,153.58861611637985 11482.068313030992,154.04022259631893 11481.649465173483,155.39988139813067 11481.105370737729,156.22483955085045 11480.69263957336,157.94032704259735 11481.2571229866,159.41584614856401 11480.258936888888,161.3571101547568 11480.036697030999,162.22452644858276 11479.986889671069,162.9674916054937 11479.693579662126,163.71790667629102 11480.450884551043,163.6940603509429 11481.102749297628,163.86098458402557 11482.152199111064,164.41839153663022 11482.657554488978,165.56524523772532 11483.008244906669,165.8189831606578 11483.57797120011,166.02763677894836 11483.573310862295,166.55746720015304 11483.170482915593,167.34364120854298 11482.76182954677,167.76839776861016 11482.603378062253,168.1834662471665 11482.97533127095,168.3425632401486 11483.296894577798,168.0035039606737 11485.825710364501,177.73098131938605 11485.510846293299,177.72651036764728 11484.607032035594,177.98619802377652 11485.231517297681,178.3364220103249 11485.925325084361,178.21719687490258 11486.461263928795,180.07635778730037 11487.44109994662,186.51812004868407 11487.093613511068,188.7352575333207 11486.562917546718,188.79747571231565 11486.991668622359,190.3071003893856 11486.887393564451,191.6900462238118 11486.617385244346,192.18480528250802 11486.351454720018,192.2943376612966 11486.331648284453,193.5517214522115 11486.451651982148,193.81064864015207 11486.219800177845,196.34290607913863 11485.949209315586,196.23263024998596 11485.183748835581,196.3563180011697 11484.985101937898,196.72812601766782 11485.04859904002,197.12452197133098 11484.683053795481,197.9854889800772 11484.565380266635,198.73878627223894 11484.194300870993,198.9679044642835 11484.2784782222,199.20112050394528 11483.743704462191,200.67268667503959 11482.961932800012,201.45578010898316 11482.704449137673,202.4117321658996 11481.678301013308,203.19109507341636 11481.749662435497,203.45485600241227 11482.475801315508,203.95778925676132 11479.296577137662,203.98163199500414 11479.34900593781,211.00471612764522 11479.779504640028,210.69290583016118 11480.096990151214,210.94175804423867 11479.987180942204,211.59778799698688 11478.931031893357,213.12665565073257 11479.31143196451,213.7167425850639 11479.689793137717,214.78738942131167 11479.987180942204,215.060824635264 11479.782126079896,215.74925429135328 11480.153496746672,217.3987960689701 11478.981713066576,217.40736412297701 11479.073172195582,217.73034230869962 11479.006762382225,218.46272277174285 11478.393054151209,218.55622593179578 11478.635974257835,218.77340645244112 11479.40959032881,219.10457846795907 11479.491728782305,230.11683910427382 11479.248226133292,230.3146399286925 11479.494350222172,230.45470219425624 11479.61318883556,230.6830482307123 11480.500109368819,231.16209001705283 11480.548751644441,231.49063917587046 11480.383600924397,232.1116034348961 11479.892809102195,233.1855292248656 11479.9286354488,233.33974506164668 11479.839215217624,233.40642289584503 11479.515613013296,233.30137736169854 11479.810670648934,233.46788568922784 11479.705230506603,234.30973828781862 11480.245538417832,234.53957103722496 11479.868051057681,235.05548337852815 11479.554643342155,236.00535548612243 11478.479270399897,236.51716753043002 11478.197611235548,237.04387846705504 11478.732384995557,237.24241916649044 11478.376742968918,237.9013646352687 11479.131717688753,237.89503221056657 11479.59454748442,238.65566709561972 11481.237899093307,238.84750170336338 11481.890346382163,238.5860106117907 11483.502531982143,239.23154300020542 11484.630333724432,239.08589791756822 11485.323558968958,239.24234531779075 11485.967268124456,239.172316492768 11486.11436003563,238.7741203259793 11486.47407985793,238.57893321401207 11486.809332906618,238.19824343750952 11487.548578986665,238.46532232954632 11489.16775509331,238.56552340724738 11490.552749226801,238.86389144987334 11491.121310435468,238.43142530223122 11492.513295075623,237.64546005852753 11492.711941973306,237.9918810427189 11492.339114951086,238.2168681945186 11492.318725973368,238.49251444725087 11489.824280177825,239.72509671922307 11489.145035946625,239.9385351400706 11487.98053404456,240.0741224603844 11486.285336177796,239.88787612359738 11485.925325084361,240.4406548726838 11485.551041706698,240.32890723919263 11485.036948195542,240.42948011140106 11484.540622222237,240.2633486057748 11483.87332010665,240.5930040712119 11483.071742008906,240.57475197128952 11482.04559388454,239.92140047380235 11481.294405688765,240.1210565167712 11480.839731484419,239.91916551726172 11480.12699107558,239.91283314023167 11479.54240995564,240.1773028751486 11479.442795235547,242.32098805700662 11480.140389546752,242.4338523267652 11480.05708600895,242.50909514690284 11480.066115413443,243.00040789303603 11480.189323093276,243.47868266468868 11479.510661404463,245.86631886247778 11479.652801706688,246.1896352006006 11479.599790364504,246.35911538312212 11480.009608817752,247.09476987709058 11480.179419875378,247.65721827861853 11480.189614364412,248.12803510494996 11480.017473137705,248.74374605022604 11480.08475676435,249.02981090778485 11480.457292515668,249.17135330243036 11479.636199253378,249.43469645333244 11479.66503509332,253.3237268885714 11480.237965368899,253.47532380872872 11479.798145991168,253.62878301151795 11479.107833457761,253.63064537994796 11479.073463466717,255.54813303856645 11479.233080035541,256.74301739322254 11479.27968341345,256.83129261556314 11479.690666951006,256.73109837353695 11479.702026524465,258.24182987975655 11480.51904199121,258.152065252827 11480.438068622258,259.0295969954459 11480.64457984001,259.11898886220297 11480.56884935114,259.5227417550632 11479.179777422221,259.349172781629 11478.926954097813,259.7126990862889 11479.353957546758,260.1585395873408 11480.294180693338,260.3198167118826 11480.795749546727,261.38022069836734 11480.428165404475,262.0927412851015 11480.215828764369,263.5781152723939 11479.332112213247,263.96957028476754 11479.270362737705,264.41875582613284 11479.401726008859,264.6872983975918 11479.408133973251,265.0217657453031 11479.27356671996,265.73911858099746 11479.732318719965,266.011756849417 11479.344928142265,266.4471580986283 11479.505709795398,267.31237165344646 11479.695036017802,267.63454473379534 11479.708143217606,271.66595869133016 11479.591343502165,271.9121471006074 11479.034433137625,292.85409355931915 11478.305964088882,302.2295810395153 11475.5362670935,319.61330569616985 11475.122953386744,326.6862345590489 11476.930873173405,333.11814045440406 11477.923233848764,341.2195229884819 11478.078481351142,348.1835298380465 11478.854136319947,355.0386345429579 11481.330814577756,367.55430530005833 11480.033201777725,368.1403289238806 11479.46784455108,368.0796416576486 11479.671734328847,368.77028427424375 11479.979316622252,368.97282279568026 11480.798662257846,368.8618734040065 11481.623833315563,369.0342544859741 11481.811994453194,369.9855131059885 11481.915978239966,372.68438855255954 11481.394602951012,372.44946200045524 11480.756719217636,372.7286932199495 11479.825816746685,373.45059765089536 11480.307579164277,373.6631849181722 11480.67632839107,373.49899756896775 11481.023232284468,373.58462817175314 11481.67160177778,374.0220884332084 11482.176957155578,374.1806908707367 11483.760598186636,378.20007717533736 11483.000089315581,378.17364383878885 11482.69658481772,378.2842170742806 11483.168152746628,378.60439520928776 11483.332720924402,378.9893530649715 11483.542727395543,379.0414749759366 11483.657779484405,378.78570521605434 11483.99711032887,378.8851092128316 11484.276730595622,381.29685480799526 11483.996527786716,385.3529911362566 11482.391915235552,392.32888080814155 11481.89762815996,395.4508099667146 11481.933163235546,400.23154250887455 11483.216503751115,412.7979624744039 11482.434149546665,418.935590293142 11473.038908586721,435.9458525592927 11468.936354986625,440.96482386958087 11465.541590186534,443.6923891547485 11460.095111679984,448.8254815818509 11459.018282382283,450.7761872553383 11458.773614648962,451.4331189034274 11459.202365724486,451.6795143811614 11459.879571057623,452.61782499571564 11459.221298346529,453.1973353053909 11459.140616248827,453.59260751475813 11459.596455537714,453.83825661672745 11457.793778631021,455.0705928810057 11457.344929848914,455.2138874277589 11456.784232960083,455.2369634255883 11460.729208888952,470.4432418256183 11459.942776888842,471.0599307586672 11459.561503004283,471.5344490383868 11459.437421511044,471.53630989271915 11459.178772764397,472.1213618585025 11458.51409208891,473.8899081296404 11458.603512319853,475.2684133781004 11457.96708494227,477.32685389043763 11457.252888177754,477.6804083453608 11457.038512639934,477.9133818682167 11454.731062897714,484.291418623121 11452.250015573343,488.5979404292302 11451.766796799959,489.1792337014922 11451.37445461331,490.70056377799483 11451.164156871033,491.1512301056646 11450.532389831147,491.1530908239074 11450.075967999874,491.7433099843911 11449.622750151088,492.7402787429164 11449.25836999109,494.00592877710005 11448.552620088798,495.35902523453115 11448.378439964494,496.6358269887278 11447.861142471083,498.00751688168384 11447.619096177747,499.6363429991179 11448.401450382313,499.95563194865827 11448.587281351094,499.6396921858541 11448.465821297723,499.57382483861875 11448.697673102142,498.9594342834316 11450.348015217809,499.36282593931537 11449.872369493358,500.37837290990865 11448.231348053203,502.7201820255141 11447.407924622297,504.8033441519947 11448.164355697809,505.8389651743928 11448.165520782233,505.9930241582915 11448.647865742212,506.53371839405736 11448.966225066688,507.4844891652465 11448.976419555489,508.20268168108305 11448.513007217785,508.14760791888693 11447.32520362665,509.1765178903588 11447.361321244389,509.4838876982685 11446.95587185782,509.8790769336629 11447.222093653283,509.9464302197448 11447.06626360875,510.17900359164923 11447.20549120009,510.1488620940945 11447.189762559952,510.4253450871329 11447.32374727109,510.67354693909874 11448.394751146669,511.1502278126427 11448.763500373345,511.2231625163113 11449.035547591164,511.02519684581785 11448.850590435672,511.4404780465411 11448.910301013384,511.73482123209396 11448.338827093365,512.4407225996256 11448.21474560001,512.4712359536788 11448.215328142163,512.5769163238001 11448.379022506648,512.5393328166683 11448.824376035482,512.855257381103 11448.22494008881,513.8383794983965 11448.465530026588,513.7650733937044 11450.038102755556,514.3433352182037 11450.213739235536,514.2916117209825 11450.829195093364,514.6793516514008 11451.018230044516,514.5260418803082 11451.245421511238,514.7653092760593 11451.04036664893,515.0038322372711 11449.521970346686,515.652792230947 11449.13457976887,516.1778384160134 11448.19435662229,516.1183009839151 11448.053672675625,516.3162628946011 11462.643733902252,540.5986063093296 11464.0872735288,542.2867053930531 11462.9023826489,542.3458649434615 11462.78529166209,542.1363879862474 11462.643442631,541.1485326350085 11462.50800156442,542.2561954311677 11462.672569742077,542.877184093988 11463.216081635444,543.4323147431132 11463.57609272888,544.6545655073132 11461.86749639106,544.9477560342639 11461.48360106675,545.3250337282079 11461.242428586702,545.8593235188746 11459.694613902248,547.0953296659864 11459.4056729601,546.9799891767907 11458.51350954664,547.5328789417981 11457.86921784887,548.242778799322 11457.0408428089,548.7208811560995 11454.911068444373,550.2433617378701 11453.384225280024,551.0812432589009 11451.395426133182,553.1197549099452 11449.487017813255,554.7798710396164 11448.176006542286,557.6134296532837 11446.934026524425,561.7814893749892 11445.99089066661,564.2157729714527 11445.18144824903,565.6816154969856 11445.15814655996,565.8799128682003 11444.48152376886,566.8743738340563 11444.407249635551,566.7389517570264 11443.250029511168,567.9060348306666 11443.002449066727,568.2538893389865 11443.039440497756,568.4134930212167 11442.350001777872,569.4741668279748 11442.043584568892,569.7185936942697 11441.329387804493,570.6832777672098 11440.68218339549,572.6141236281255 11431.538018133142,609.8648233377608 11432.160755768884,610.7259532637545 11432.607274382259,611.0774720288464 11432.047451306717,611.0175836791168 11431.838609919883,610.6619730792008 11431.32189496886,610.1549667748623 11431.183249919908,610.7412043520017 11431.083635200048,612.3652543008793 11430.921105919871,612.7483887925628 11431.049556480022,613.2386513538659 11430.305358791025,614.7109215520904 11428.550450346665,620.0687563252868 11427.285459911101,620.7129986219225 11426.684276337735,622.2756145333406 11426.269797546673,622.3581900317804 11425.074712177739,623.0370191796683 11423.887199857738,623.9773341978434 11424.853346133372,623.830038233893 11424.809655466583,624.4631127383909 11423.770691413316,624.9102067588829 11423.696126008988,625.2564995356952 11423.15843953786,625.3736661635339 11422.024521102081,626.2224717616918 11421.438192355563,626.5371465992066 11421.26867256884,627.1229764308082 11421.031286613434,627.0623477520421 11420.605156977777,628.3946877080598 11417.905947591178,633.1470926820766 11420.65991594654,635.8310465941322 11421.275371804484,634.9610705710948 11421.531690382282,635.0596357602044 11422.000054328935,635.917337349907 11420.752248888835,637.3578681531944 11418.90588131547,638.8835652091657 11416.662802488892,641.0036076633842 11415.886273706565,641.4179438286228 11415.649179022177,642.0628787413007 11414.772452977719,643.4844080064213 11414.165152711095,642.5954881811049 11415.039548586705,641.8367425700417 11414.854008888826,641.7813243016717 11414.026507662144,641.904062732996 11413.446878151037,642.2458703719312 11412.791809422197,642.9108876862447 11412.573938631103,643.6309493183508 11412.914725831128,643.9604810117162 11412.486848568893,644.5373464670265 11412.312959715491,646.3776542802225 11412.433254684438,646.5003906095517 11412.28354133328,646.8169013087754 11412.353737671161,646.9113709397498 11411.935181084438,648.9614281287068 11412.153051875648,651.5355071509839 11407.333388800034,652.4961779109435 11407.036000995431,653.7573552483227 11406.837936640019,653.9946389094694 11406.60404593777,656.1748121966957 11406.687349475571,656.7051621470018 11406.518994773389,657.2399740088731 11406.152575715561,657.3619615444331 11406.002571093384,657.5739519468625 11405.75382556452,658.2690561442287 11405.37342549325,659.5603310732986 11405.270315519883,661.1346218553372 11404.77224192,662.2365827179165 11404.574177564471,663.2968857094529 11404.03969507548,664.5260286211269 11403.930468408857,665.0868580705137 11404.26047857781,665.8611578114214 11404.122416071012,666.0764886104735 11403.523271395592,665.9693810843746 11402.684701866703,667.5611135283252 11402.721693297848,668.9006903869449 11402.241387235583,668.959822026547 11402.165948017733,669.1974641444976 11402.133616924402,669.5857240536716 11402.275174684473,670.0918742988142 11402.574018844403,670.6069490643567 11402.787229297799,670.6846750622499 11403.003352462198,671.0584289485123 11402.934321208973,671.3864393929834 11402.623826204333,671.5720142854843 11402.805579377804,672.0543596484349 11402.33605034661,673.8334887892124 11402.38877041766,675.341499761329 11402.212551395525,676.2593183214194 11402.361682204413,676.9785467177862 11403.189765973366,678.6602097287541 11403.41520981316,679.4645928000682 11400.105787448818,690.1794296654989 11398.596129279933,691.3325888167601 11398.480203377781,692.2470059185871 11398.184854471008,692.8903312525363 11397.371916800039,693.500559234235 11396.550240995479,693.4213523899089 11395.945270897704,693.9151862303843 11395.71574926225,694.9645801250008 11394.576879217871,696.8104919612524 11394.623773866682,697.6412225179956 11396.084789759829,698.4258403340937 11396.053623751039,699.102617840399 11395.730021546595,699.5871448641992 11394.852130417596,699.3837403030484 11394.774652302265,699.8597141717328 11395.884103964432,699.9255323668476 11396.690633671125,700.5015338491648 11397.725811199984,700.0497316289111 11396.418003911036,701.0663785182987 11396.114790684427,701.4668634523405 11395.759148657788,702.4563598784152 11395.132333226618,702.2157723944983 11394.481342293439,701.7107982726884 11394.202887111227,701.0953830182552 11392.458173155552,698.6184617980616 11392.726433848962,700.9347426713794 11392.308459804393,701.8684633435332 11391.936215324444,702.1246688860119 11389.143507911009,701.4069952690625 11389.475848248927,702.7809853070066 11390.505491626565,703.2353858777788 11391.033566151047,703.6295461427071 11390.392769706552,703.9950734938611 11390.077905635699,704.5509864665801 11389.594395591062,704.8101642282563 11387.799583004555,704.9581594520132 11386.803727075574,705.2366728552734 11386.845670115552,705.4653585445485 11387.302965759998,705.625996180519 11387.423260728829,706.0268461584928 11387.096163271111,706.0104849466006 11386.586147555616,706.3094487516792 11386.08982158231,706.2696612993022 11382.44805888005,708.2534490549006 11382.559906986658,708.9822596187005 11382.791467519943,709.029855341767 11383.291288746637,708.6632193194237 11383.461973617785,709.0878626178601 11382.433204053319,709.6221982834395 11381.982025102247,709.6136459464324 11382.010278400034,710.1472368854447 11382.2415476623,711.0143663794152 11382.595150791109,710.9790416905889 11382.80515726225,711.1508311862708 11382.710785422125,711.3739342631889 11383.166624711128,711.4304536799318 11384.854249528958,711.0801818398177 11385.493880888796,711.1043513552286 11385.065129813389,711.4609444129746 11383.85023800889,712.1722699216916 11383.569161386578,711.9052906782599 11382.709329066682,711.8037790021626 11382.629520782153,711.4970127146807 11382.506021831068,711.6747512851725 11381.745221688994,711.8201398610254 11379.502142862068,711.8469121732633 11379.504181760014,711.9789145073155 11380.255078684422,712.245150003233 11381.18802005332,712.3938848022372 11381.499680142268,712.3273259898997 11382.517672675429,712.4418517573504 11382.545052159927,712.5385293152649 11382.028337208903,712.7415520735085 11381.835224462207,712.939740808506 11381.358413653215,712.9932852070779 11381.087822791073,712.9092502433923 11380.502950400114,713.1286335003679 11379.769821013324,712.9386253000121 11380.093714488787,713.2308883470832 11380.028761031223,713.395983362745 11379.393790008966,713.504187473387 11379.193104213453,713.6826683852705 11378.974942150991,713.318641566264 11378.796392960008,713.2985624424182 11378.301814613398,713.842929269711 11377.52615964436,714.225547096401 11376.419329422177,714.5073973916005 11376.010384782101,714.8119292381452 11375.689695288893,714.8866677703918 11375.764551964356,715.1097677429207 11375.654160213424,715.4038875901024 11374.689470293466,715.2280106532271 11374.959769884357,715.5120908914832 11375.052976640058,715.8021201440715 11374.775686542154,715.9939854773693 11374.535096604377,716.0631462034071 11374.340527502354,715.811044116097 11374.034110293374,715.8597541248309 11372.801450951141,716.4866623040871 11370.625655751093,716.6480370076606 11369.96417905786,716.4301439517294 11369.399695644388,716.0438109484967 11369.05686954665,716.0389771345071 11369.179203413194,715.7288691957365 11369.565137635567,715.4514821748016 11369.64494591998,715.2395374749904 11369.547078826698,715.0208996094298 11368.278301866609,716.0159235590254 11367.821006222162,716.2144817085355 11367.686730240122,716.7644200863433 11366.276395520079,717.3760811237735 11365.558412231156,717.9672901639133 11362.308409173274,720.0287031996413 11356.960671573295,724.9947696123272 11345.94013781345,740.825631176238 11344.618640782195,742.5596892204485 11344.36581745767,743.1683171440382 11343.989495182293,743.7126234160387 11344.247270115535,743.8654305113014 11343.12558506662,745.1514605023549 11343.053058560006,744.9321034084423 11343.195490133367,744.7755789997755 11343.079855502234,744.4904143435997 11342.750427875551,744.2929924812051 11342.106136177783,744.830976009951 11342.125360071077,745.0830508515937 11341.779621262336,745.4949956588098 11341.67243349331,745.490534166107 11341.712337635574,746.3367292926996 11341.056395093212,747.043129157566 11339.768394240062,746.2872812325368 11339.452073813416,746.901105755067 11339.963837155607,747.0907181343064 11340.407734328764,747.4911344247521 11339.974031644408,747.8134746816359 11339.77218076447,747.7603090142366 11337.881539982161,749.3965426678187 11338.120091022225,749.6315110992291 11338.475733048865,749.6374596644309 11340.155784817878,748.8254792942316 11339.995294435415,749.150420451304 11339.211775146541,749.5969350613304 11337.662795377779,750.7424033672432 11334.58172956435,753.4452579322387 11329.43409521773,756.3860220250208 11328.215416888823,755.4636442380142 11327.014214826631,755.0431638326845 11326.93440654222,755.3219970662612 11325.68514474656,755.3621490280493 11323.986742897774,755.8231526035233 11323.663431964465,756.1733660810278 11323.407987199957,756.9533515692456 11320.394496284542,756.8737916661194 11320.131478471216,756.727683932113 11319.892927431036,756.7421831763932 11319.761855431017,756.4882603997248 11318.881925404305,756.854087574291 11318.10131882655,757.35152250604 11318.272877510986,757.6719920562464 11317.926847430994,759.054988512944 11317.5907205689,759.1884547296213 11317.187018808792,759.6252865906572 11317.018372835475,759.4364266052144 11314.96025116439,761.4068096820265 11314.997242595535,761.6722526368685 11315.220938808867,761.5681573916809 11315.420459520072,761.8447532399441 11315.466771626729,762.4217372106505 11314.79976078216,762.9812469004537 11315.041224533226,763.5229106525076 11313.909344995627,764.3333595246659 11312.119192746584,765.3438148304704 11312.186476373347,765.6984770496492 11306.038034488913,769.3908026478603 11304.549639111036,769.9242748133838 11303.382224497851,771.2878768986557 11300.904089884367,773.1459037103923 11300.923022506642,773.2637493152288 11300.777969493414,773.2328938464052 11299.505988551187,774.1700806611916 11298.684021475492,774.9347721209633 11298.336243768805,775.4660027770442 11296.862120675622,776.7046694767778 11295.189933226677,777.8095018210006 11295.007014968898,778.065263169352 11294.705549368868,778.1459320325521 11293.901058559888,778.737379040278 11292.988506168942,779.1660007277969 11292.065176746575,779.8961058261921 11291.180586382165,780.3890371684683 11290.868926293333,780.1908982082969 11290.785914026666,779.9860677223769 11290.20628451556,780.4410811487469 11289.727143537835,780.2994471501443 11289.144018773339,780.2804882627679 11288.759832177893,780.4132004463463 11288.312439751113,780.2585554306279 11286.110721422243,781.1756436810829 11286.083924479899,782.8715237976867 11285.627211377607,784.0320914369076 11284.955540195573,784.9268626153935 11285.137875911198,785.0915418220102 11284.818934044568,785.464764751785 11284.317073920043,786.5100835834746 11283.017422222183,788.1070493063307 11282.951594951097,788.333062310121 11282.128754062229,789.440077203617 11283.217234204523,790.0021327168797 11283.200923022232,790.2047251895419 11283.386753991246,790.4879826658289 11283.077715342166,790.5935536173056 11282.87411683565,790.4389144629822 11282.364392391173,790.4117782560643 11282.154968462186,790.6849988445756 11281.988652657717,791.2199156275019 11281.389507982065,791.498339577287 11280.695408924366,792.3087040371611 11280.418118826696,792.8596017832169 11280.434138737735,793.3584569320665 11280.76997432881,793.9056352846092 11280.226753706695,794.6557733613881 11280.037136213272,795.2248806831194 11279.617705813376,795.7530974383117 11278.690007324447,796.4444985180744 11279.756933404482,797.7745112894918 11279.920919039985,797.7759981642594 11280.04354417778,798.1506903420086 11280.258793528774,797.9637160368729 11280.185101937852,797.5704376503127 11280.320834275568,797.1920274681179 11280.496179484413,797.1013278953615 11280.751041706651,797.8704146948294 11280.44025543111,798.4231596232275 11280.465304746642,798.7075235851225 11280.709098666557,799.1792325521819 11280.530549475458,799.5598702320713 11280.929299626732,800.5140640766476 11281.118625848787,801.386477531516 11286.445391928777,811.7905423237826 11286.980748231173,814.0694210465881 11285.963338239933,816.049439106835 11281.75505322672,819.6124684496899 11280.989301475463,820.7602400065516 11280.596085475525,823.2538757535513 11279.075650275568,826.8985788066639 11275.990797937848,828.7919018736575 11271.552408746677,829.4508822138305 11257.501199075487,829.8786796404165 11253.88972856896,830.5313388676732 11248.138871751144,834.9374905165168 11241.893145315466,841.9422122941469 11237.81505848898,848.6170995739521 11236.638323200052,852.7341884555062 11230.926205439959,869.156947183772 11224.119782115682,881.1945623811916 11216.357407004456,882.882007655222 11199.657377848984,910.3694116707775 11197.644694471033,921.4599657064537 11196.408539875643,927.7078380649327 11189.32919551991,949.02255677426 11181.607307093334,950.2756555298693 11173.838524017716,934.2193516406114 11168.488456248888,930.68830736581 11148.982321208809,934.3445572202327 11131.3636229689,938.9005888359388 11124.3448630044,956.0818883602042 11117.076192426612,965.8380386999343 11106.994716728805,985.537978756649 11083.957210737746,971.6569372162921 11058.588662044494,1003.9880902821315 11037.886859093443,1029.6091029095696 11032.030562133179,1031.0839212189894 11029.552427519928,1048.96233960276 11026.63359971554,1050.3590642094496 11023.271166009014,1049.993264927005 11020.939832035685,1045.618489784014 11016.639796622214,1043.6620732596493 11012.789775075507,1044.727928369597 11010.939912248985,1046.7029058741173 11011.049138915492,1051.6402862005634 11008.846255502198,1052.9902047984651 11006.60550684447,1054.005888741347 11000.039964728872,1052.696454175457 10990.377336888807,1054.1310385632678 10981.655514737708,1070.6373070815462 10964.543045689003,1086.7901812074706 10939.780632177833,1090.6277387424489 10910.974210559973,1068.3464910822804 10906.480479857768,1066.9528306323919 10902.143161742133,1068.9904021052062 10882.242936888942,1091.4839874595054 10865.586889671045,1106.0839826294105 10854.86811278225,1116.102757560031 10843.12435285328,1126.8154242312885 10828.508368497714,1138.0863941208809 10810.73325767112,1146.2362895514234 10796.58039438224,1155.7216062119114 10782.564719786518,1169.080148817331 10766.320821191184,1177.0490765331197 10750.102263182169,1181.2613620679476 10729.495997155667,1184.9676585542038 10722.328688924434,1183.535627362493 10706.785006080056,1179.9896656078636 10685.517845902126,1177.7443234789534 10684.636459520087,1176.633338046202 10684.235087928828,1173.5739284704323 10681.184896853403,1171.4127958260942 10673.428638435551,1171.2331337258802 10668.156922595692,1170.863044269674 10661.513028551126,1168.3848794955993 10659.538210417726,1166.4661050305585 10660.445811200072,1162.6299999290495 10662.788213475491,1157.4489068737603 10667.05213127099,1153.852114647685 10667.391170844436,1152.3427023346303 10637.59879651561,1148.1867631632485 10594.245713066659,1152.4681776600773 10576.164767573238,1154.5552172478056 10552.933275022195,1154.011370888562 10530.727056782227,1148.7614336978295 10531.47707989323,1135.567461107683 10528.177269475651,1132.111454078462 10508.62715249788,1131.2802088998142 10492.036641279934,1136.0645670727245 10475.488655644469,1137.8161250606645 10463.107303253259,1144.8820125403581 10448.594720142195,1150.2255758197862 10432.804330666666,1149.2911838079453 10415.67292899557,1143.0098469977384 10406.241570417653,1138.7538981368416 10391.760444586631,1129.7506219607894 10327.54594161769,1121.3522179966676 10279.250861226697,1115.350545562338 10269.408519110992,1096.0644633773481 10227.153236479964,1093.5042929094634 10205.402274986729,1143.746018345235 10189.651207111077,1149.0506246720324 10154.001079466543,1166.0195397717762 10144.784970240085,1156.8315642822417 10125.734965759912,1154.2816236876533 10090.560192568926,1172.8938899761415 10074.103957333253,1186.5188314923435 10055.472509440035,1193.1127942619496 10050.741392782307,1193.2126396847307 10047.947520284448,1183.9565517846495 10033.3443518579,1168.3659479512717 10019.219450595556,1155.9376586097642 10002.656901404378,1145.637854387809 9995.807078684447,1140.7315268471139 9984.134971448919,1129.0188674651436 9978.116436479962,1122.2347291576443 9973.431923200027,1109.9034432290937 9967.028910364374,1095.547232931538 9954.633576959954,1069.409648995963 9955.083590826718,1060.0939701736206 9951.65999018657,1049.4410370475962 9946.293028693297,1034.2845945325098 9942.878748728777,1028.9001027630875 9938.142971733352,1026.8815405138303 9933.322726115584,1027.0301012693672 9929.078906026552,1029.6284156165784 9926.441446115496,1035.961051756749 9921.428961564437,1044.26890557172 9917.966330595547,1052.570560953056 9916.155498097767,1055.2035367270582 9912.644516124506,1057.23785494623 9907.939905137755,1056.664474369085 9904.719611733337,1073.1189714581706 9898.103970986558,1076.6470321963425 9891.497650915524,1076.2504479482886 9885.194544071099,1074.622144135763 9876.888074524468,1069.5815808800398 9849.388295111014,1079.309478726529 9819.525724444422,1056.662617564667 9800.760000568931,1059.6940193143673 9792.066431715502,1070.9002167962608 9783.425582933356,1077.1409050213406 9773.385176462238,1081.7535591680207 9766.86944170657,1084.4839071902097 9763.550698666717,1086.8158022375428 9758.666373404441,1091.1657721876982 9751.113130951067,1095.1941195435938 9745.060225991067,1099.062746627198 9740.316293404438,1099.4722928171395 9738.410215253243,1098.0282962677302 9737.360182897886,1093.0472098760656 9737.682037475519,1078.4595038895495 9735.597701404477,1077.1438756822026 9726.797527324408,1076.881343401561 9719.210206151125,1078.2909196578548 9712.878846008913,1077.937783623056 9709.235918222112,1075.1468415144482 9703.819440639927,1072.1471777352272 9696.875828622258,1072.2348138435627 9689.709976746584,1075.9816021143342 9683.56007850659,1082.8627083741012 9677.99126613338,1097.6254313582904 9672.103803164442,1110.7941602301435 9670.089080888778,1117.2771099946112 9664.207734613214,1118.4488583754865 9633.020462933346,1116.11760871351 9622.204692764324,1118.3894542710623 9605.876616817666,1123.1955752084614 9591.232961706584,1108.9833914763876 9587.14089386654,1109.763839130057 9581.309646222275,1117.079219159321 9572.887542044395,1116.7012583978358 9561.721955271205,1113.6697562698391 9533.122044871096,1111.3072772308951 9516.30638108449,1123.8167076345417 9509.39713905775,1122.8075987577904 9504.881271751015,1122.6791394460015 9502.267113528913,1120.2903791082208 9497.784451128799,1114.3573700347333 9481.364042239962,1112.911225656455 9469.292311039986,1117.2084236986702 9456.164139520028,1116.661531646445 9452.435869297711,1083.5240368765662 9383.064120035502,1083.786191352352 9354.892086897744,1083.9425184749416 9328.304859875585,1083.7394045949331 9318.964086613385,1092.3677105115494 9292.210835057776,1102.3520941181923 9281.360986168846,1106.995875884022 9250.404692479875,1117.567448630347 9240.757793279947,1133.1769588826573 9227.729819022235,1140.2489080779487 9213.292092586635,1145.6456503879745 9202.164079786628,1160.3050723901833 9185.65483320877,1176.5019348551868 9166.661044053384,1186.1832829949562 9142.14854115562,1194.773786721169 9130.00311836449,1204.1579232570366 9121.749951431062,1202.1221171211218 9112.38675029343,1199.8127482999698 9104.918850275455,1197.9706580045167 9083.073516942211,1190.7550953032915 9072.188715519966,1184.8514779768302 9063.054453475517,1185.2356531774276 9060.27310563554,1182.814041107602 9045.2481766399,1152.3200573732029 9026.548280035611,1148.8122927235672 8995.591695075505,1143.9472307382966 8970.610828231089,1161.8834861859796 8951.194695964456,1152.6029336397187 8947.541282417718,1150.6628865012317 8931.775650986703,1142.2900083171553 8916.402361742337,1130.948304122896 8896.986229475588,1121.6666848634486 8871.90196138667,1115.4775232533575 8856.151184782153,1097.800315646513 8825.507424995536,1089.443987112958 8811.810692266561,1079.1252991732326 8779.782520888839,1070.8159223253024 8763.960674133385,1080.2879304894595 8714.512742684456,1109.0591343545238 8715.40344974224,1110.0979977568495 8715.840938951238,1111.0982434332836 8715.782393457834,1112.9253344196477 8715.903270968935,1115.6293766122544 8715.55957105779,1116.8167258380563 8714.799353457754,1117.7460327251465 8701.20747832884,1112.1441533659818 8689.688579697744,1104.706483295071 8684.860469759908,1105.4267937996192 8678.926112142159,1100.2910120263696 8673.110593137797,1099.4362765407423 8662.21355832892,1108.2816549743293 8645.995000320021,1119.8504201594624 8630.376169528812,1130.1126002375386 8620.444989724434,1143.4438282323536 8616.438555591041,1143.5752475615009 8607.42313215998,1139.0973019495723 8602.39812295104,1133.7910144391935 8549.189007644425,1143.9847260200768 8542.7449255822,1152.882097327907 8538.54829141323,1156.5472075671423 8531.9777976888,1159.5633780453936 8525.09185735113,1156.2613656579051 8524.906608924386,1155.8526483227615 8517.637064533425,1139.825687829696 8506.029619484441,1132.8565653728438 8480.642138168798,1124.4879597145482 8433.801374435541,1114.1346011888818 8415.541879751021,1109.5221307980246 8387.879571057856,1104.090876191447 8363.145119573339,1087.8098220561515 8340.754526720033,1090.625139544427 8308.201484799967,1103.4659852726618 8147.620225991122,1175.4629565187497 8100.045167786651,1188.897353542212 8086.4952356977155,1171.0816829366959 8072.057509262115,1160.712669313245 8066.531222471036,1153.5618151503731 8063.718708622269,1152.9069696104852 8045.792136817821,1157.4867714965367 8041.948523235624,1161.942880691844 8038.046946702176,1178.3241276208428 8031.162462719949,1207.1976853552624 8025.621903644409,1211.4540369372698 8016.796388977673,1210.4233587417984 8010.380851484486,1210.4107396829058 7996.270222506719,1216.169051737932 7979.21396878222,1224.6565383708803 7970.911577031133,1237.682114794501 7966.535228586639,1254.6714214630192 7952.781406719936,1267.0394940677797 7936.900431928807,1278.7773198863142 7933.967040568823,1287.3960382050136 7882.826532693347,1292.6774086029036 7880.398496711045,1300.3273089489085 7883.023431964335,1311.2181542367325 7871.43288064003,1320.2461583633558 7866.496417848859,1331.6789454129757 7859.217261511018,1334.4713105587289 7857.42041002668,1342.4524109786726 7828.47330446227,1348.2431423229864 7823.191394133377,1363.048078110849 7807.872572586522,1361.5791573819588 7780.228905244498,1361.104353009956 7766.413042631,1387.1261087343446 7753.235937564517,1395.9650111686788 7743.789141617832,1404.946042101481 7739.79843612446,1421.7712714847294 7730.282317653298,1431.9114447598695 7714.9090284089325,1441.1823808974586 7699.53573916445,1451.4838712507044 7694.612674844335,1469.4678913893295 7684.256239217822,1478.6244487140211 7683.077756302198,1480.591056470701 7673.9187362133525,1495.8744173324667 7657.58745628444,1519.386730069702 7623.518930773251,1519.6054568804684 7616.781247430947,1526.1430823166156 7607.301829120028,1544.1721686039818 7597.590850275592,1562.706007119792 7587.882784142275,1582.2652396492776 7548.875756942201,1613.216487185855 7548.407392995548,1613.5340866337065 7548.575747697847,1613.9736110408558 7551.945754453307,1616.9198143479298 7561.381482097786,1628.1758678170154 7561.786348942202,1628.708752897859 7561.931693226681,1628.882551768329 7562.508701297804,1628.5875753675355 7562.988424817682,1628.534212768136 7563.558442382258,1628.080630247423 7564.007582435617,1628.1899496337865 7569.163372373325,1633.6977365328348 7565.488404764328,1642.6667804421159 7559.98192440893,1662.6852312806877 7556.725804657675,1677.501078711939 7554.619623253355,1693.8791896413895 7539.769456924405,1707.335573051765 7527.828797724447,1717.0134405765566 7517.172644124366,1718.5604446707293 7508.8918064355385,1735.396877462219 7510.691570631112,1736.5500143151148 7521.108881919994,1743.2238870035508 7524.785597155453,1746.355368143937 7531.929312426597,1752.440057427215 7540.585598577629,1757.9993886062875 7554.913224533317,1765.6853672401048 7562.300733724493,1770.4614459174918 7565.957351253368,1773.5955743492232 7567.487107128836,1777.0281847617007 7568.79287552007,1780.5726018421701 7569.725816888851,1782.5877507370897 7570.17350058665,1784.7517691038083 7570.17350058665,1787.7364786461694 7569.688534186571,1789.8634205451817 7568.457039928879,1791.72887887666 7562.524721208843,1802.8476618598215 7559.016360675567,1810.3964559152955 7557.114360320033,1814.4888777320157 7553.383177386713,1819.8991782965022 7548.756627057795,1822.0632681954885 7543.30927473784,1824.8242721761926 7541.347272533341,1826.1503291095723 7535.2218410667265,1830.2902806866332 7528.136671288987,1824.7783544221893 7517.7228552532615,1823.2441785272676 7510.389813760063,1822.0454934003646 7504.5868194132345,1823.131605297036 7502.988323555561,1825.0868178940727 7494.645445119939,1825.1682847786578 7493.200157866697,1825.416758624895 7482.31972551113,1825.3197390577989 7474.5695837866515,1849.0136972825858 7466.338262186735,1850.4821892558248 7447.13213639101,1866.7324494388304 7432.063225457678,1878.2446653587976 7408.869598151068,1885.8261548011214 7392.719488853356,1891.5634068744257 7386.52589994669,1907.1133874838124 7379.713359928923,1910.0634292971226 7373.225878471043,1927.5697789524565 7367.098990648985,1939.3992126319208 7360.225574968848,1948.9725390742533 7338.19732337771,1941.528663025063 7313.216456533293,1936.9902817370603 7312.258174577844,1936.599032023165 7311.504364942084,1937.0006459601573 7310.959105422255,1938.392039310187 7310.031698204344,1940.0788026548107 7307.946779591148,1942.1423621118884 7306.346536106663,1943.1336053435807 7303.909761991003,1943.8749996052939 7301.891835733433,1944.7514930455363 7301.280166399898,1945.4695641018916 7301.335507911048,1946.385657140694 7301.711538915406,1947.0052674005856 7302.548943359987,1947.378735503531 7302.691083662212,1948.0320258410648 7302.274857244571,1948.61313829961 7301.704257137841,1948.998448483413 7300.523152782116,1948.949960872822 7299.456809244468,1948.983643107058 7298.843392284354,1949.6661701149424 7298.641832675436,1950.5811385426205 7298.917666417779,1951.835883902153 7298.804361955612,1952.9233251718688 7298.100359680015,1953.7883153267321 7297.772388408892,1955.3654254723224 7297.821613226668,1956.4750600024709 7298.644162844401,1958.8919600175577 7298.491245511104,1959.3757075492176 7298.114631964359,1959.6162855709554 7295.13813248009,1960.3398689469905 7293.662261759979,1960.7395970408688 7292.934083982254,1962.0390793824918 7292.8105850311695,1963.1505371098174 7292.748835555511,1964.5303224331 7293.192732728785,1965.8601356938016 7294.1169359643245,1966.7372981125372 7294.084896142245,1968.1092928667204 7293.829742648872,1968.795842795109 7291.607635342167,1969.283643787785 7290.002731519868,1970.5734623565222 7289.030177279958,1971.5638611921459 7289.2748450132785,1974.0661195249413 7288.932601457811,1976.001366012264 7288.391128462157,1978.9021742700716 7288.752013368881,1980.765588529117 7288.654437546502,1982.6375019850093 7287.40750592004,1983.425789066183 7287.163712000009,1984.7906675570994 7287.562170880032,1985.7477067735745 7287.669358648825,1986.581875084492 7286.982541368809,1987.2161965594278 7286.205138773308,1987.5437190257362 7283.87089208886,1990.1498215145548 7282.75037212437,1990.2023725987528 7281.781021866598,1990.7630402208306 7281.109933226602,1991.196770415816 7280.213109475444,1992.058307512023 7279.21521464875,1992.5116495989496 7278.726170453359,1993.7976566907018 7279.236477439874,1994.0622588304104 7278.4943186488235,1996.0835885944543 7278.212076942204,1997.6593419664423 7278.482667804346,1998.6429804472136 7279.096667306614,1998.9012867239653 7279.011907413253,1999.8064669452724 7278.122365439893,2001.2882026844309 7275.730155804427,2001.8773421121878 7275.606074311072,2004.3630374947097 7276.313863111194,2004.6357705835835 7277.424771128921,2004.659084254119 7278.576165831066,2005.1412697201013 7278.975498524378,2005.7411324041313 7278.832484408864,2006.519360665523 7278.329167928896,2007.1121892513474 7277.653710222221,2006.9741587415338 7276.791839004494,2008.9765193717903 7277.024855893338,2009.9108999210293 7276.365418097703,2010.1614243751392 7275.710931911017,2011.6308917979477 7275.054698097636,2013.5181336434325 7274.220497635659,2015.5885338200605 7273.371151075582,2015.5300669725984 7272.753365048906,2016.333799996879 7273.568924159976,2019.1668288556393 7273.240079075564,2019.999413985468 7273.364160568803,2022.9830080132233 7274.669637688901,2025.6331727128127 7276.022009457811,2025.6801664631348 7277.080488675507,2026.0416850407491 7277.469626880018,2027.4637027633726 7278.422083413228,2028.418370890373 7280.434475520044,2028.8401999200578 7281.698592142202,2029.9783949684934 7281.765001955559,2031.1221355602029 7280.987599359942,2032.2151785054593 7279.7007635910995,2032.5441265844856 7278.300914631109,2031.5783723703935 7277.4970063644,2031.6120443185791 7276.976796159986,2032.4371907511377 7276.37910784001,2033.577590782079 7275.571995591046,2033.9191178249894 7274.599441351136,2035.888717701775 7275.888316017692,2036.972861056449 7276.268133546691,2037.8150117365876 7277.688371484401,2042.743168732035 7277.704100124305,2044.5480527899344 7277.279135573306,2045.5714810834615 7276.1134685867,2045.880802828411 7273.633586346754,2044.6871741445502 7272.344711679965,2044.8729158418137 7271.116421404411,2046.2027042689733 7271.111761066597,2047.5184261760442 7272.169657742255,2048.8652215028997 7273.035315484391,2050.545006281289 7273.1212404621765,2051.7918882403173 7272.922884835629,2053.0043551880517 7271.802364871139,2055.396343780507 7271.9351844977355,2059.513548569288 7272.158589440049,2061.5525185129954 7272.0773247999605,2062.880745071394 7270.441546240123,2064.5619227669085 7268.907130026608,2065.218259992427 7266.288311466691,2064.9119201551075 7265.718002631096,2066.015185915923 7265.891600213363,2067.7540597756742 7266.4697733687935,2068.6604895921773 7266.716479999945,2070.3775183230173 7265.9696608711965,2071.529227461724 7264.747778560035,2072.2354931860464 7263.861731839948,2071.7619364869897 7261.93992504885,2070.437083226803 7261.183785244473,2070.1540573249804 7260.085401884397,2070.536974650924 7257.857177884318,2070.2824364308617 7256.088288426632,2071.369771718455 7255.597787875566,2073.9384406246245 7256.127318755607,2075.3916534290183 7255.577398897847,2076.818221342517 7256.360335644335,2078.6073399755405 7254.896989582223,2099.510221050936 7246.940919182147,2121.1290932966513 7239.398745031096,2167.1258297922905 7240.728397653322,2170.2102461629547 7240.9142286222195,2172.44772046688 7239.595644302084,2173.1603798883734 7236.442343253293,2174.5368760670535 7229.845635129022,2175.5945765989018 7227.37827754661,2177.5243146884022 7224.514208711102,2180.7587586180307 7222.682987235603,2184.957265141944 7223.214265742223,2187.09772769711 7224.793828977738,2188.855423846806 7227.684694755473,2192.7257913576905 7211.384580835467,2196.444487177476 7194.66678414226,2194.529675837315 7186.180017777719,2206.844435031584 7183.339250631048,2210.966733101348 7169.585428764345,2226.3711776818964 7157.448161564418,2244.8583129030885 7146.120628053206,2260.2645277585834 7143.16480881779,2274.884648175852 7144.521258382243,2290.822216974164 7129.80944583111,2307.685179016029 7111.014886115561,2322.834630706755 7083.013829119969,2330.0898777070106 7061.113154275459,2331.4156792808208 7049.843874986633,2331.0882028293563 7040.697088284418,2344.732103847782 7033.509682346717,2355.6197510287748 7027.812710684491,2370.3444883814664 7026.021975893411,2378.2540433848044 7018.572134684422,2395.1913855998428 6992.60327623121,2387.5350870381226 6978.684594915598,2398.9727095553535 6967.438326044474,2411.8982092041406 6964.578335004393,2415.1852820502827 6953.015745706623,2422.9475819346844 6924.885073066689,2423.9108335675555 6916.269564871094,2431.6998554543243 6901.002298310981,2440.600001378858 6892.172997119953,2447.7172478109715 6889.527381617809,2449.8500947348657 6881.8992824888555,2468.7967091451865 6866.864741546684,2470.4469248808455 6846.311778133386,2486.4343247780344 6828.524142648908,2487.146898033796 6809.535013831104,2491.4873116145027 6803.1320009956835,2491.08430252003 6797.11783509329,2494.4967474052683 6792.62585201778,2494.0922652187874 6786.928880355554,2492.775015855208 6780.188284302247,2492.184357095568 6776.905950151151,2490.614062920795 6775.839897884405,2487.9374125718023 6773.099327999982,2486.2669861527393 6770.025835235487,2485.0250569710624 6768.368211342138,2484.0236042851466 6767.081084302161,2482.4924199414672 6764.644601457752,2479.5936740723555 6762.7021144178,2478.5290319656488 6759.941738097812,2477.0162872975343 6757.391659519984,2475.618791871413 6753.719604622223,2473.6062084912555 6749.539864177816,2471.6593671177397 6744.261740373331,2472.6985462343437 6740.9444536889205,2474.84523460723 6737.299195733271,2476.9904283410287 6734.625618204474,2478.5279237309005 6730.944242630969,2480.326952205505 6727.597246293328,2483.696681453497 6725.243193173315,2486.040912614204 6720.644313599914,2485.7646002558176 6718.366282240022,2482.990379030758 6718.256764302263,2482.828948773269 6718.158897208748,2482.6852499049273 6717.924423964461,2482.4665615067934 6717.833838648861,2482.3819674677216 6717.638687004452,2482.199850080011 6717.57256846223,2482.138159172493 6717.540528639918,2482.101587909332 6717.375377919874,2481.9131904148962 6717.280132266693,2481.804584740952 6717.0975052800495,2481.5962390407803 6716.986239715596,2481.4665770083084 6716.716522666626,2481.291847162822 6716.599431679933,2481.211685652728 6716.3364138666075,2481.02439576498 6716.215245084371,2480.916528552014 6715.968247182085,2480.7580523291253 6713.215735182166,2478.649090705032 6711.534518328961,2477.323269864719 6703.854864213266,2474.6342976447777 6698.638489884441,2474.895475260506 6698.461979591171,2476.0003978660097 6698.39178325329,2476.2504917263286 6698.436056462233,2477.2730296608643 6698.807135857758,2478.5541519524413 6698.672859875485,2478.9926431119675 6698.377510968829,2479.3081198853324 6697.6228275198955,2479.5205308551085 6697.513600853388,2479.8563245533733 6697.771375786513,2480.8681360554765 6698.294498702162,2481.8644286891213 6698.170708479942,2482.5581742355716 6697.1824255998945,2483.284425660211 6697.106695111026,2483.9146300517023 6696.486870186636,2484.81191150425 6696.462694684509,2485.825182133878 6696.681439288892,2486.9149148257566 6696.778432568884,2487.3127585180337 6696.857367040007,2488.973574167816 6696.884455253254,2489.461917049077 6696.582989653223,2490.187780600274 6696.528521955595,2490.7152771688416 6696.814258915489,2491.258656665508 6697.110481635551,2491.5434594884864 6697.16524060443,2491.9730642188224 6697.408743253327,2492.4288951494964 6697.990120391012,2493.086782687111 6698.247312782216,2493.7191806583432 6698.509456782136,2495.0282988779363 6698.394113422255,2496.0452252356918 6698.0620643555885,2496.764791602094 6698.182941866689,2498.6567840010975 6703.429317119997,2508.3293059251155 6696.353468017769,2518.238980108814 6694.553412551177,2524.8640653209295 6696.682313102065,2537.6362058702507 6703.094646613463,2542.7550871589337 6700.582142008934,2562.411285177688 6707.101080746739,2578.392530329642 6708.638409671141,2587.329962760734 6716.1447574755875,2594.4799184389412 6721.225982008851,2614.2361248474335 6747.363486435614,2626.6237755602924 6749.2439327288885,2638.4027992560295 6749.3205370311625,2638.8823819562094 6749.568991288776,2640.4388970330474 6750.269789582118,2644.8300231279572 6742.188472604379,2668.1807313711033 6741.4084485688945,2670.403765357274 6741.3032996978145,2670.6998239740497 6735.022911999957,2688.8414736189297 6735.084661475499,2787.15245654108 6739.849274311098,2800.8214226823184 6738.424376035575,2813.2902264716104 6741.33679587557,2835.0400834329776 6746.374329742277,2859.4088363210903 6752.174411377753,2877.2151349568157 6753.28939719114,2898.4789119694615 6758.172266097856,2912.4203756359057 6735.248355839984,2922.78518557403 6709.620867128833,2934.4016533928807 6704.3494425598765,2943.407781073416 6700.279511324479,2949.6548441228806 6685.684498488903,2975.5472807126935 6681.815835591056,2996.118314808875 6680.675509191235,3006.0968633566517 6679.416635448812,3017.1128829515656 6678.01824284438,3033.8559808626887 6676.286344817723,3043.9466885734 6676.961511253263,3057.3049097287003 6677.242879146594,3063.5213444265537 6683.146070755436,3069.2975177311455 6682.49770126224,3082.58372574189 6679.471685688826,3095.877394201001 6677.433079182287,3109.1670968133258 6675.407579875668,3122.456151019025 6674.76794851548,3128.74222492642 6644.326622151071,3127.8743374417536 6630.6505696710665,3120.872540198383 6601.900654648896,3117.535023526347 6565.900419128942,3123.535227076907 6539.350474808947,3140.572490184626 6531.480911928811,3153.052638374036 6517.497568426654,3175.2282084440812 6507.279195306706,3182.3104062923812 6506.212269226671,3183.049897842284 6502.530019839876,3185.602178373665 6466.962904462125,3193.6048432423268 6438.953691875562,3197.902309930534 6433.213029546663,3197.8227278299164 6428.283557262272,3197.754198780225 6419.984660764458,3195.531416550337 6407.832538737799,3186.34313479549 6394.9615596088115,3172.0258494043374 6394.643200284569,3171.671748941706 6385.238056106609,3162.0850686138147 6345.9680110932095,3126.5822671296773 6285.608481279924,3093.88745806698 6259.312816640013,3087.1074127692846 6206.200403342256,3061.1599711594754 6190.9398360177875,3052.8330733061885 6184.294485617778,3049.2071861470467 6159.100408319966,3035.4600051779416 6109.325670684339,3013.834927259304 6082.470474240021,2990.6141761227045 6075.150539946626,2984.285090218589 6064.800512284506,2954.584907324752 6032.67563889781,2921.18492275849 5983.025565297692,2905.3101303370786 5949.38025671104,2892.859561307938 5787.952564053354,2923.226648446289 5643.0451862755,2950.4860540975933 5600.045123413322,2963.986038420815 5548.045074488851,2963.4860099718207 5516.045156408916,2954.9861232884577 5436.545036799973,2940.9859914301196 5408.924671146553,2945.535265108163 5394.045086435624,2947.986147400108 5345.04512995563,2971.9859999134787 5321.618777031195,3000.59366385889 5310.170074737747,3026.5487213135348 5301.5452458666405,3068.486206847767 5293.545193528873,3117.4863756752457 5279.810886826715,3137.2551148218918 5280.582755270996,3166.4261443770374 5281.0205357511295,3200.203917385952 5289.883915662183,3245.521766469057 5261.817905208911,3302.3267963371472 5229.8666294044815,3321.224068509706 5212.956885048887,3361.63933018269 5141.545072924346,3371.986327041348 5068.39728497772,3380.0829346284154 5044.067117795581,3397.7179060958442 4793.311235697707,3579.4414324443205 4755.759107697755,3569.515118617448 4016.5963312356034,3371.920050953573 3856.383239111048,3456.7579367389553 3773.85098723555,3461.8680279173423 3336.945776924491,3492.5762513756636 3073.7494143998483,3612.9650484637823 3204.041681635543,4062.0330473904614 3250.8396285156487,4121.246362589474 3441.078111857758,4361.954234066827 3665.2779329421464,4473.754419199016 3923.0758766932413,4555.691239879234 4157.3510567821795,4529.841305199836 4295.075980231166,4472.291196735983 4359.70088419551,4493.691240466782 4023.7758728533518,4886.916353129316 3908.750872177887,5329.666231341485 3681.2008507732535,5369.466268662887 3466.326074311044,5569.391202033206 3338.1009581510443,5774.474063908681 2982.352326257853,6521.38104854204 2719.348202666617,7091.684041619999 2674.152538168826,7269.233790404862 2671.7233371022157,7476.418626778759 2702.152430079994,7578.571366099233 2727.4231116799638,7655.008943035908 2766.1525575111154,7747.302349515492 2819.1982697244966,7832.798235822178 3356.467058062204,8611.042204471421 3913.7980179910082,9407.504855380335 4019.1525265066884,9560.628285034152 4123.149420373258,9855.638218374865 4192.148051342112,10048.4799298406 4267.151527537848,10343.627248036035 4292.152783359983,10610.338007090206 4301.998038186575,10770.581686485268 4162.770738346619,11238.776939892443 4092.372840959928,11588.704818776401 3490.284579555504,12141.173086928728 2985.286008888972,12624.559093513235 1848.6980736000696,13717.229655586008 1771.1515093332855,13837.267272193974 1726.2482810311485,13939.459324347146 1653.0981629155576,14141.804812105547 1626.57297663996,14342.729907167086 1394.3480539021548,16031.72961404128 1365.4728923022049,16218.179759330058 1355.5979278222658,16342.854659507168" stroke="red" stroke-width="3.7543686435261776px" fill="none" stroke-linejoin="round" vector-effect="non-scaling-stroke"></polygon><polygon points="2254.8465109332465,23266.67486536986 2263.6271698488854,23296.975918711105 2281.7282130488893,23322.814083308505 2302.3784610133152,23338.812378260656 2326.568526791176,23348.673157786194 2352.518452622113,23351.670525858237 2378.3192476443946,23347.584636446612 2402.0729892979143,23336.715375499392 2422.0323421866633,23319.862859159766 2436.7287173687946,23298.266811441106 2445.08120775118,23273.515752369014 2446.475231288816,23247.43037409539 2440.8082605510717,23221.930301844375 2428.497104497743,23198.890715695044 2406.0581606400665,23176.715296088543 2377.657479680027,23162.980300574272 2346.342048711027,23159.15960404894 2315.471971271094,23165.662948026555 2288.359291164321,23181.792750736116 2267.9135155200493,23205.81838551379 2256.328207075596,23235.161940961785 2254.8465109332465,23266.67486536986" stroke="red" stroke-width="3.7295501454956232px" fill="none" stroke-linejoin="round" vector-effect="non-scaling-stroke"></polygon><polygon points="17897.574640355422,4078.4683553339564 17897.653283555643,4122.879264572926 17901.15290595556,4169.128908330051 17907.153090844513,4210.628940424533 17913.653096959926,4249.129280529218 17934.549760284368,4326.043672169035 17942.653213866637,4364.629075994424 17954.653292373405,4412.879247573903 17976.152304355637,4475.628359390714 18000.403245795518,4527.379262365168 18026.652307057637,4573.128224313317 18071.15328995546,4642.129178064468 18134.074840462185,4722.743365777133 18253.15287864895,4829.128880405042 18326.652813368943,4877.128795961617 18398.574641208746,4914.418811964919 18525.653023004532,4973.128793591051 18685.15279217786,5028.6286961280275 18805.15299470222,5056.128724209091 18871.65310207999,5064.629155935196 18941.54972188431,5066.218772349239 19091.152389973402,5053.628202924796 19230.152498346637,5017.628502218926 19378.549886577763,4949.243678973813 19461.653029831243,4888.128742464818 19498.4032884622,4859.879160156997 19535.152382008848,4827.378210317052 19573.40326940443,4788.629148519249 19633.152877511224,4741.128905406047 19722.049694435438,4649.868749210669 19779.652925724396,4568.129006919393 19819.652896142332,4484.128772961616 19844.652986880043,4426.128943451913 19856.653065386694,4377.128691282065 19887.152937244275,4321.628869647917 19908.049600568833,4256.993341318972 19924.152815217734,4193.128901085991 19936.6530062221,4129.628881224606 19941.152853617677,4056.6289500590647 19939.049584924476,3977.3185187985073 19925.153040213394,3895.1289443008136 19903.153041920043,3814.1288826476084 19872.652878791094,3739.6287319309777 19832.15250460431,3672.6283224308863 19787.65297806228,3606.1287308945903 19733.653061688878,3545.6288959369995 19668.903202417772,3479.1289236980956 19600.574495004374,3418.8435416910215 19484.15284935094,3348.128840760619 19419.152788195643,3316.1290196971386 19343.152290986618,3286.6285283729667 19274.153368746745,3261.0043380677816 19205.15299015108,3243.628700132598 19124.652936817845,3233.629010175355 19041.574551608763,3229.518513639865 18949.9030860801,3233.879145040293 18869.152830862324,3245.128714080667 18814.65309326211,3258.1289803699474 18753.40314766229,3275.129101578321 18704.653101795586,3284.1291266131448 18656.57472711103,3293.26844287134 18553.152802417753,3326.6287303817808 18502.403180373367,3346.879056297359 18455.653001955478,3371.128786862595 18408.403293582145,3387.8792362235254 18364.152803839883,3404.1287004349288 18263.40300031996,3458.1286858493113 18216.40320256003,3488.379116230004 18178.024738417706,3517.2686298414483 18144.15311217762,3546.1289616587455 18111.903283484397,3576.6290318795363 18080.653097244445,3610.3792387235444 18054.9029833955,3642.378797151614 18030.40329642652,3670.8790825015167 18010.402874311083,3701.878986701893 17994.903173404397,3728.378929326427 17981.65237674676,3755.1285352534032 17964.15309966216,3787.129169099615 17950.403064320097,3819.8792671078118 17925.15248042671,3891.6285207388573 17914.653321955586,3934.6289940720308 17905.653044622042,3980.8791995113716 17899.15303850663,4026.6290193672176 17897.574640355422,4078.4683553339564" stroke="red" stroke-width="3.0485433897427674px" fill="none" stroke-linejoin="round" vector-effect="non-scaling-stroke"></polygon><polygon points="21011.652830151026,5108.1287913282285 21018.074484337703,5209.39340343402 21030.152914773324,5268.128743928333 21046.652840675553,5329.128823049774 21079.652983751148,5410.12894683372 21125.07467463112,5482.74334706465 21145.152866133372,5514.128890675784 21217.15304590226,5604.128789526527 21247.65291775996,5634.128944184224 21348.07475000876,5706.218344555702 21393.65285347565,5736.628698054701 21458.652914630948,5769.62870032934 21522.152929564472,5795.128779251361 21585.04943075555,5815.468469417712 21668.65297777776,5834.62871760776 21748.652918613283,5846.128828215238 21798.652808817802,5850.128849983215 21880.024636586662,5851.243605840078 22081.152290417696,5815.628313934896 22242.549690879998,5750.143460236199 22392.549652764457,5646.368446900684 22498.524860017817,5538.768483004358 22557.40327623114,5449.129172718502 22603.15235584008,5351.628518921556 22634.653035235475,5246.628998125496 22644.65295502229,5195.128698345972 22648.549579946673,5131.293694444234 22645.6528887467,5019.62866994756 22618.524771271157,4905.068313397642 22560.152875520056,4766.628921588126 22514.15301148442,4697.128987927164 22470.07466296875,4640.3186777597875 22382.652842951124,4552.128847076441 22275.57488327124,4471.343215114612 22191.152864426607,4424.6287885167985 22095.15281891555,4385.628852930851 21966.653034097748,4356.628685953619 21849.074459591182,4347.043466240459 21726.65292031993,4348.628796486126 21609.57445831108,4369.81873061636 21529.652869404294,4395.128722146037 21461.15289457771,4422.628691450693 21353.07470990217,4480.818483558018 21265.153068657615,4550.128944904194 21192.074603235465,4624.843544689706 21126.653072782326,4710.129021532135 21091.15294975997,4773.129021837376 21064.074639644474,4838.868336068292 21034.15294094209,4918.628959045571 21015.15303509333,5010.628715869214 21011.652830151026,5108.1287913282285" stroke="red" stroke-width="3.8738245261414987px" fill="none" stroke-linejoin="round" vector-effect="non-scaling-stroke"></polygon></svg>