<svg viewBox="0 0 530.2634189333614 388.81656818441047" width="530.2634189333614" height="388.81656818441047" xmlns="http://www.w3.org/2000/svg">
  <title>okres Uherské Hradiště, Zlínský kraj, Střední Morava, Česko</title>
  <desc>Geojson of okres Uherské Hradiště, Zlínský kraj, Střední Morava, Česko</desc>
  <metadata>
    <collboard>
      <support-module name="@collboard/map-svg-geojson-import" version="0.11.1"></support-module>
    </collboard>
  </metadata>
  <polygon points="8.05255000000011,115.84999528872834 10.849917751132807,133.0008764880837 10.905477715575898,133.28868405578362 18.435054391105723,137.11096868688003 18.63828880890628,137.29148825238337 18.60988987558062,143.61230219828542 18.5868794577907,143.88338288007765 21.49209033780039,147.4532101517758 21.53789272002882,147.5864629351487 20.04665744890349,150.6139595577621 19.98046608889831,151.04203209895752 20.782408275561238,157.26882331867057 20.74447021334322,157.63995280091297 16.24593353778596,164.49062185770129 15.570038924466417,165.27311092883576 16.1654698933487,168.88221636191122 16.21651515557437,169.30936970329606 13.122851866682822,174.8723932019126 12.94473958222784,175.51921746318806 14.184462248907721,182.44363931669034 14.300169697795127,182.56114740102896 20.21137126224471,174.26777284671664 20.280766604475275,174.22978251710413 35.20811977779499,176.2919975719484 35.39249439113314,176.39541177007015 35.84454715558218,184.7505505302321 35.81338114667574,184.96978593731876 46.90287334222353,180.89435293505778 47.33912464889704,180.90645950647706 49.2894760089182,189.12609812603444 49.294209164457925,189.5335498216224 52.94252546667826,190.8536104919691 53.24530178667169,191.58997453971062 52.94725862224709,203.50880121769262 53.0183287733596,203.8307699705689 57.87338128890383,202.5916240853618 58.189410444472514,202.97988020192827 60.25408571557614,199.576967346096 60.33564162668313,199.0512286574591 63.14997592001578,201.05011935820914 64.5624951733405,201.41429318120174 64.40768457778154,199.19623754708266 64.58412205335458,199.02957722091344 70.11776344001532,200.98705486705114 70.71202932447318,201.32003012608732 71.02718466669444,199.47126484773582 71.14609609780723,198.92920327099966 73.70272827556596,198.95451884192119 73.80219736000413,198.4304397455195 78.71055248889729,200.0948178409668 78.76516582223826,200.13700956288778 80.9608402755764,205.72279810487055 81.09067437335739,205.7481105641997 85.57828838224646,203.9807623594894 86.02531672002056,203.80823221890716 89.74929069335462,205.52618207183662 89.93293712888385,205.555935418182 95.8798194044573,202.3481438080704 97.07162797335309,201.72850220377552 102.64721240002086,205.59312707861648 103.27155202668632,205.71924547805213 105.75048763555947,211.49751315502328 106.43191640001146,211.94753769772763 112.42933421335306,211.24829966501386 112.5389977866796,211.07845641996357 116.91709385778063,213.74338109946223 116.94847832003848,213.77568310147728 112.59543156444101,221.7205142971867 112.55953239999485,221.84992552264123 114.77588710224495,224.86525449861767 114.79664016891161,224.9082041853177 112.6172768978065,229.6381255884986 112.59069840890129,229.70703888760875 114.1892670844461,231.21223483508913 114.18883017780149,231.23398463839078 109.48014139556449,236.02228407131736 109.1341841333558,236.38767003769283 110.74425801778102,237.11388550827508 110.83061990224064,237.2323869900789 108.79827572446789,242.12157224448276 108.76092020446208,242.219537930279 116.65072642669088,245.7901189620676 116.90726345778216,245.93689126935317 125.24125812444959,244.66873461392936 125.33169780445292,244.69236512805912 125.66942665779038,247.102069846958 126.03031156445627,247.3988242502743 129.31854395557434,241.9824451399396 130.01635672001407,241.55307938060253 140.7717609511235,240.8852814107155 141.38444973334094,240.74004898526584 142.74424891558715,248.70907297335327 142.62439085334313,248.9724279996659 168.6438576622529,273.7443799301469 168.84184919999802,274.1259273673128 192.30876162669279,260.57067517522194 192.44769794669241,260.40985615031207 193.4115868711449,262.15943110505 193.69732383112546,262.43314723928745 195.71175483556704,260.74779738090695 196.18215768002096,260.21421085786244 200.66198018668342,266.90502010983585 200.60256088001893,266.9736651933996 211.78999298666145,263.77398182891886 211.9442210400082,263.8027057213545 214.67772760001367,262.14479146814085 214.84753865778453,261.9878587533382 215.67933613333275,256.31080954804895 215.7743633333664,256.3138043354189 222.77477321780293,270.3169879729754 222.9641722577869,271.4665723634604 232.1682665511396,266.9989496291888 233.4425048444607,266.9944028674578 251.59794292445417,277.1075839415786 251.67942601777736,277.14949519024924 255.43842534223927,282.079610943743 255.539714871127,282.2413647815189 245.20942082670058,303.4616073901776 244.4694465689024,304.3000921533454 251.07787835557951,311.06613064961095 251.70032472001162,311.959792717396 258.766052151135,305.6281657362921 259.2248041511409,305.3025778816442 262.62765172444756,305.3374861333647 262.83547366224934,305.33992416917283 276.51101641779655,317.34616962058465 276.6178400977876,317.72243078231224 290.81162697778905,318.5079618902888 291.00575917337096,318.6214142630703 292.56689951112617,324.3327316750434 292.78549848002854,324.80377384005226 307.4945439555811,348.25310684950784 307.71598281778984,348.6128802564996 305.688663066692,352.7267988513264 305.5939999555774,352.892332473995 307.32851942224784,351.55520526917064 307.80613122668706,351.48057499234676 310.2670808444452,356.19382215277403 310.9469804355829,356.47316312783335 317.8176290400222,353.848431709957 317.9913722577983,353.97842007096153 315.4925573955768,356.8814877891342 315.4449345688988,356.91381705346396 316.7527418577881,358.37160368721345 316.9647872266721,358.80194621496014 315.5070481333312,360.2002318862284 314.8710576622468,363.87236275376165 323.6762561689318,380.6209230240562 323.9032291822439,380.6659653920284 338.8388107644639,380.7241773416241 339.37620596445754,380.6599892568553 355.48349840890273,371.78471719183256 355.591268720025,371.76479354507285 364.4894555289136,374.1434049552987 364.74519156447036,374.2463392999704 376.95600472001365,358.57044515750715 376.9873163644586,358.4431246991513 388.87190587557393,351.2883517391234 389.0459403644561,351.2030912115948 392.1195787644608,345.8757088317285 392.1647257866932,345.8458093759324 391.7052456089075,343.250032119489 391.80500596445177,342.96984922706145 396.1456736977923,340.13360978451203 396.4657806489047,339.7597159185458 398.9615371644684,331.4058078763552 398.96444987555856,331.3759006061806 402.4225661422313,327.3327320318855 402.4298479200295,327.3017148029536 422.2967222311488,311.6978454051929 422.509350142245,311.46869589389064 422.0054511200067,303.0486772357614 421.5299510311231,301.9758866972767 469.98362854222773,299.378051559797 470.5960260533682,299.3935680019564 484.8653977866704,304.8406786875345 485.30230445336906,304.9448501476214 496.80896969780565,299.362535113272 497.25534267558373,299.31376911016525 499.87459814226145,281.3472226733353 499.8884335200198,281.13657332842524 507.09812169778866,269.2679588959214 507.21026107556077,269.0738974254124 510.0770969866787,259.04054639573553 510.16375014224445,258.8409033927088 507.6770230311156,252.80136192223983 507.66464400891687,252.4519467802089 510.0508825866925,238.91179641801102 510.1841391200212,238.3858769108116 518.2698251644686,223.78129102227797 518.4911912088935,223.0698833531129 516.7858716711414,212.9631321619305 516.7558707466885,212.660975610204 518.000690657798,208.0850223343656 518.0636780355778,206.97908144034557 522.1210846133542,202.92969683676313 522.2108689333616,202.84531762448717 516.9743240800233,200.3676200632541 516.6397263911274,200.31343723004795 515.7170523289021,194.15456807967678 515.1230777155795,193.4735382405703 497.2835231555871,179.77798236677302 497.12936792002415,179.66591088876123 501.2989138755727,175.736378985304 501.3882612889063,175.6069708153151 501.7019602755679,155.83106194050163 501.70399917333975,155.7801690133125 490.11803536891944,153.39437152523135 490.0115029600345,153.31002775316995 480.0410743733589,154.2965862414345 480.0142774311314,154.27091683069705 479.17417872889905,157.46483333199978 479.10645819557953,157.55217090302142 474.23057979558484,160.86789631463 474.144290728909,160.89578485355707 466.9470543911227,158.80021637354332 464.9423809688958,159.58656387561462 460.03358893335803,151.7209181186114 460.10065410668153,150.87000334564766 456.54059295112506,149.0587792102375 455.97705616889994,148.59701757414553 444.3565039200255,148.54378415537178 442.52906896890613,148.02044912937674 442.88704116448184,145.12606904764073 442.82019444448065,144.94268540471205 439.2339917066636,143.20340020230617 438.75485072891,142.79127194133582 440.39470708446584,137.74211764663744 440.4010422311328,137.6556379937607 435.8518243822398,130.72693273975858 435.89478687113274,130.64010858751828 433.5422629244638,134.4712472618918 433.3084450399981,134.54594865570073 422.64799519110943,128.0823478844319 421.80338178668876,127.89846292601544 424.59244831113733,133.70243954507862 424.70451487112564,134.02815030974273 423.1350733066863,134.78183542929003 422.1886606489204,134.90166819221452 413.96593154667767,126.0363430741196 413.91255611557403,126.05668898233091 415.03445961778175,120.54423020259821 414.91977161778027,120.50464622543188 411.9919144088997,121.49279168359465 411.9027126311337,121.56361902913306 408.9873800800194,128.5570661973394 407.73717165334506,129.12283170820558 408.0285155822419,134.6586675318464 408.03827316445654,134.75904716573825 403.30766623112845,138.85967156831578 402.86500696000417,139.53081552038896 391.28989300446824,137.98621629607044 390.2967313333427,137.07250816129783 383.39236809779663,140.6900146390759 383.2306398133585,141.12183204260475 381.4875278488978,139.64663649006218 381.2833468000242,139.49491319352057 379.7112837955717,140.24418880406995 379.2124092000083,140.9419918972195 380.55487775113556,144.95868981962087 380.53550822224474,145.06994260341855 377.7916615378124,147.26294373529493 376.71410406224436,146.68747274556483 375.7796335200326,151.79926340637724 375.28024920001167,152.25099683393603 372.7996387822275,151.60423344147387 372.53057709336986,151.37119673420204 363.16868667555514,156.52233437073994 362.85607995559235,156.5594479327625 360.202381679999,152.82763224194753 360.0019143377792,152.6006015211675 355.1913534844714,153.64417946470314 354.77629215113825,153.24946462261835 355.55194712000207,154.91409310236452 355.61398786667974,155.33802084485762 352.00026000891353,156.1260844265413 351.50560884446145,156.25631607346406 351.06236703112495,149.6799008668819 351.09651856890537,149.10478846141598 353.47649481779786,140.0107707009953 353.50904436445103,139.68253871828313 352.23538861337124,132.47517080484943 351.9572247022368,131.13459309896973 343.63837613334886,124.4198756184411 343.44795764444984,124.22663904904732 327.8759486844717,124.02361762099429 327.6226884533605,123.80836517105456 327.9915104977915,121.01123003799114 328.07073624002055,120.88992165102502 326.5859817511298,122.34738369900845 326.43859856890754,122.25065068439983 324.28166317335103,118.74046183787107 324.2089182133275,118.6369396238075 325.05739095999866,115.7185563038289 325.076614853351,115.52473327029259 321.2150880977931,111.69583824674885 321.15013464002527,111.51100902642759 322.5181622311136,108.19498759191595 322.5958587999992,108.04328905369732 317.96377432003624,105.38382584432077 317.9337005777704,105.34400855134993 320.6929846311466,103.75729941453721 320.6712121155649,103.64307150254137 313.24394441780873,101.81261204310397 312.37741286223877,101.71094896784746 310.81554434667464,95.72840349892033 310.32344180445193,95.50425261501334 315.05499536891125,92.27192902127683 315.1914558844653,92.0636726063891 313.450892542234,89.52904450023891 313.25173592000624,89.2451250816008 319.43294580444467,85.2617551806103 319.902547653335,85.21769540782373 320.98993552890147,80.72775334210712 321.13433318224975,80.51233197373915 318.7901832800196,77.10553595002386 318.82440763558384,77.01862740761828 331.5859416444507,70.99890403668508 331.8194682578103,71.06044779984916 328.9936287555681,67.17237197724864 328.79636539557373,66.81131848612097 326.91184130669694,57.068660000040495 326.8173966489046,56.8884344393515 321.6846171288996,52.872446538072495 321.40674448890036,52.71658802964487 311.17657488890814,52.053850468342375 310.9365674933431,52.05641103530763 303.71501001780393,46.91388498544222 303.43327803558327,46.970334020450196 298.27683273779235,49.08451475564618 298.0028922577983,49.37598900160049 293.83341912000446,55.56616861747864 293.7858691111394,55.58320086736751 294.4052571288846,59.83319509996329 294.2811028178037,60.24750164965337 276.74206722668146,57.154041514709775 276.66014722668456,57.04383588427265 266.77673588446464,64.58951869802661 266.75867707556586,64.59508388292272 263.0245814311272,60.02398576756934 262.8553529155686,59.842768042995544 248.55299472891033,58.19753320770508 248.40335419559392,58.16369295045263 233.0443372355728,77.15438717047039 232.80833481779678,77.3718246520508 227.66171992003342,73.6408837289415 219.5323432089133,80.10663428271766 219.49484205333988,80.11331062649663 219.60494253334014,82.42183060624632 219.5070026222454,82.49448838906358 212.8799294844573,82.89838825545269 211.83564973335137,82.86957015356859 215.53879782223498,78.48203327734484 215.78266456002143,78.00265556693887 214.7797453066812,75.63719718821051 215.05426832888747,75.25305239862757 207.09361040889758,69.63468487401371 206.57514783112106,69.46128928950168 202.90586000891176,74.57545097044897 202.79867224000168,74.62563983261464 198.7356586933381,60.7249187450285 198.78597577778396,60.28289900211496 190.78446708445676,55.34530550189777 190.51096351113642,55.58208764860285 185.34031874669722,46.97200410937478 184.84290050669347,46.65101209094394 186.16738306667662,44.282761417394454 186.3635541600304,44.22096508072684 185.0935392977915,39.51110106200906 185.1345357066673,39.29874795955368 176.15493862223934,41.49139078301198 175.73441595555755,41.783016511158735 168.20636845334207,34.303927087988654 168.1216085600097,34.19623718427431 163.6112025866821,24.435896742339196 163.57493933334604,24.214017832935156 156.52428518224747,20.530162809336275 156.40158722669707,20.48928168744135 146.76626605334582,8.135333420366464 146.62266939556116,8.052549999999997 136.14324454224675,15.842671739730235 136.06969858668867,15.864729357642886 130.82652731557732,11.476537850692353 130.6690952800052,11.246585156833703 102.19304792001617,17.146172687563762 101.87825666668482,17.223595284980206 90.9407351733314,23.022071722523492 90.77900688889326,23.1082856782956 85.52906356444123,29.603685138390233 84.40060646221514,30.990500873048973 77.75933385780786,30.550358828746198 76.76136621335877,30.66640876749409 61.63951675556723,41.86096127087478 61.45645286225022,42.175077535975674 59.84732560892712,40.23901946603257 59.80669328891213,40.235010763171545 58.4311654666742,47.33418953038165 58.41762136002194,47.388300028476465 54.02088393778081,50.41272524945782 53.768351884478534,50.641512679379616 51.87516248002771,56.47399133910187 51.83562242668245,56.63796557296121 48.342043902237265,57.13133249371424 47.99659636445699,57.34016607946944 41.73972880890483,64.2790917954477 41.645356968896294,64.35333173351648 33.289371333353984,66.27685703837017 33.18451373335097,66.31603472977406 24.80151270222973,73.84008431371296 24.756292862242617,73.8667927173152 22.855530408916593,82.79012557853241 22.85742367112084,82.80069594174677 30.81538733334287,90.44976999487665 30.945221431123855,90.48347920372146 32.020667191136226,94.75548194570695 32.13295220447594,95.10300357315975 30.432875546692003,98.52515153212119 28.762581360009563,99.82291817555199 28.362447671133623,103.36111551794568 28.318174462248635,104.95361960455887 30.57086523558951,108.8243541271728 31.185884186684916,109.28555879914313 8.05255000000011,115.84999528872834" stroke="#009edd" stroke-width="5.618960932394611px" fill="none" stroke-linejoin="round" vector-effect="non-scaling-stroke"></polygon>
</svg>