<svg viewBox="0 0 54.79312054044567 49.22483774460852" width="54.79312054044567" height="49.22483774460852" xmlns="http://www.w3.org/2000/svg">
  <title>Královéhradecký kraj</title>
  <desc>Geojson of Královéhradecký kraj</desc>
  <!-- Generated from maps/2-geojsons/world/europe/czechia/kralovehradecky-kraj/okres-rychnov-nad-kneznou/okres-rychnov-nad-kneznou.geojson -->
  <metadata>
    <collboard>
      <support-module name="@collboard/map-svg-geojson-import" version="1.2.0"></support-module>
    </collboard>
  </metadata>
  <polygon points="1.7261356071965566,10.94894530429628 2.2527100854193125,12.465106714367352 2.215951671194125,12.551028681402745 3.1343003574194883,13.129208572807324 3.1357858400868284,13.130587451452806 3.055089178753042,14.357889742452603 3.107780122750046,14.433961016364988 5.148432808973666,15.487433354776654 5.386903749416888,15.562953434857258 5.298867056084055,16.666668238860797 5.3016341316386395,16.67801093856869 7.090919848972772,17.963329170135324 7.102090096085522,17.941582737748462 7.45184844630603,18.46956376890775 7.491788997418553,18.476883985878153 7.183493089863987,18.61744617505355 7.151001797417485,18.62309272132588 7.287644357419413,19.15117821127969 7.287666202751644,19.156266433329797 8.462966981418504,19.324641775574488 8.47846988630663,19.333030810644047 8.704860357418147,20.47595831485414 8.749825335193965,20.5162784789416 7.876805715640149,21.187656815351872 7.858492044530067,21.189522935469356 8.201048716529113,21.948206928345094 8.21176749342012,21.951995531106146 7.890131368973016,22.554270118776543 7.659044151196213,22.986128362977247 5.541342974307554,22.69562545743283 5.453349971642092,22.67990432285187 4.357821068530393,23.687091180657802 4.326829822305081,23.667528644483895 5.171836442752465,25.945032930358497 5.105754309420082,26.002581594298313 3.343986430306177,25.143119477866634 3.3399450436398186,25.15120389641706 3.315929740529464,27.705368728124082 3.31429134053069,28.720726186239695 4.503638668528947,28.731896017928733 4.577257441862094,28.73296413898242 4.569342149417571,31.249942349984845 4.583607152082914,32.527968163333206 8.464008275642483,32.528763017402156 8.500584645419805,32.51015204669711 9.327554302306453,35.46661270728982 9.349909360085803,35.491205771934254 12.003629480973542,35.71545489138406 12.020159116528886,35.70909978046438 13.929958256085593,38.116202347881696 14.013174412529407,38.18481813611179 14.579507397416819,37.64810819546728 14.581255024085477,37.647257367280325 15.33531224008366,38.52510517606751 15.343402295194757,38.534508139135504 16.614749722752094,38.56807057324513 16.633704190307252,38.566743505602425 18.15230438230683,40.92647297629628 18.186397665863115,40.94027074876539 20.182311109417427,40.104881262207705 20.13489945430665,40.04301393761889 20.644878760974464,40.483553834988925 20.661219070309382,40.52242195663457 21.456629502309443,39.9113847825869 21.460357772528734,39.90851584842785 21.516573096973662,38.99996285836278 21.5253185120866,38.99347548392288 22.165940193862845,39.28560381506722 22.181712524530667,39.32931170581032 21.76156851030719,39.76218686102838 21.755386280974562,39.78681721704815 21.920537000974946,40.46536690561806 21.920464183196966,40.46951679634985 24.413249733417253,40.06003432559555 24.461098295195917,40.08737342498389 24.386554736084147,39.48218449413143 24.402574647196527,39.4716604516816 28.054408048086408,40.742325486355185 28.106778593863783,40.732914999087 27.51511230408687,39.127565219546156 27.51610990764057,39.106334281353696 26.609994608087074,38.437834922163525 26.610329569863463,38.40996576666839 27.09114535653098,38.20299000189879 27.092842010750974,38.19939420056362 26.926264062307382,37.644251106617226 26.926234935196774,37.59944060927555 28.120999905861755,37.774256182551106 28.15129938319624,37.768232455777245 29.858439365418235,36.54296308679222 29.910176396528914,36.502920507252924 28.661613651640437,35.60897175824102 28.633440453418373,35.57862544264535 28.658817448975242,34.87643659647619 28.689146053420338,34.82852737550747 29.515664240085243,34.290316992583755 29.576350576086043,34.28176939704753 29.472556115639236,33.90868157277182 29.52177365163989,33.888508718314185 31.181946167194475,33.850751109261545 31.18356272186393,33.85287398840482 32.54422115386296,32.01145877635899 32.56016824719736,31.90393780195045 33.54804334764085,32.31584016977322 33.567070632973994,32.319087842353106 34.3783771858627,31.425848001432673 34.383700165419214,31.42261115261244 35.163986344972,31.623984909225324 35.21299999119547,31.597761655360586 34.7194556569757,31.051098962681493 34.66723074675138,30.99391040775699 35.56099615119638,30.510572101360953 35.55404933519494,30.479140901465502 36.77248008364004,30.734663224699393 36.78526688541933,30.743466291428554 38.2482124498627,29.77330527279009 38.27008691030678,29.773191664646216 38.91373052986055,26.638248001067037 38.91769909875184,26.62722164108163 40.70512796275034,26.59019791605278 40.707851347640464,26.586435282040107 41.619631870308154,27.09601543732169 41.792501274751345,27.19182208141901 41.93930919652812,28.09669042322675 41.992575400973514,28.13613583228907 45.22837899208426,29.50666042719567 45.34179996275234,29.572419646915293 46.40983287297313,28.848399516519926 46.42501537963872,28.8361845492549 46.133416588527695,28.45289333695145 46.13190197875265,28.437313854086455 46.510073825861404,28.08516699125939 46.51925614764223,28.052551227888394 44.709319308530034,26.622833825626362 44.707149338753155,26.617241060891317 44.529947276528766,25.580911518085117 44.529801640972806,25.568029765965544 44.939175905862434,24.900569955476744 44.93870259030555,24.89067717090256 44.253938771640605,23.08813854037325 44.252591642753764,23.0286366280623 44.77797919119658,21.76399572946429 44.78408132097575,21.73209291427083 43.83718078408456,19.27860998739961 43.809728481863935,19.211439756330577 43.02733058675258,18.161786957078217 43.01969200186323,18.15514942365007 41.57069832364105,17.711771133644284 41.531245651642166,17.67203359816521 40.75326051386256,15.74197624875414 40.747675390307634,15.735734412527012 39.57892092986331,15.316068357156832 39.544201413418705,15.286178029195066 37.89576712364106,12.755576521825056 37.86513268453018,12.706434686987263 37.71631499208634,11.712356582716524 37.71351150763985,11.70297546902329 36.52655260274951,10.641425565492312 36.51874653697196,10.638894560304829 35.30231099564008,8.411836193064294 35.28928389519461,8.393917948195663 32.98600661163982,9.015843712534474 32.95638433964232,9.022424012990445 31.93358583297413,8.087507935062234 31.78902069875221,7.924646427152396 31.24883657786304,6.507654314980385 31.203937136083916,6.3889245190864985 30.38633912719561,5.775780524484066 30.255143336973926,5.538697077590399 30.651840026751234,3.6469642306434196 30.682124940528958,3.571152405669631 30.129299653419366,2.123355069537132 30.09255580275094,2.106044056568129 25.895528417862444,1.8346216062698604 25.862003112973255,1.8500036030851277 25.138005075640468,3.1790624227538444 25.1351651823079,3.1934245248197786 24.360485971642266,3.586597966681069 24.351136168973245,3.6002397965832587 24.53347916630628,4.530988097795119 24.541052215196032,4.545335202565542 22.93529642497488,5.823798473090932 22.90147984897376,5.845114289193948 21.42853640364083,5.8132204111639965 21.407543038305086,5.812581390580812 20.384919294306385,4.390140199197407 20.35725582053019,4.399613876115831 19.499185690751258,5.858567858019154 19.482029822307595,5.88014598898771 19.772580037416265,6.565865878480321 19.77196108630924,6.5847257432866115 19.265098380529164,6.986802902163248 19.265134789418155,6.9889477204767845 17.222741758307166,6.756207165065638 17.21387255297341,6.751358297212931 16.368589224973768,8.16096396868706 16.271785271195768,8.233232784360366 15.406477054306379,8.484763180748628 15.37557318941872,8.488948982143842 14.701113086309125,7.959527809049536 14.661383706752169,7.9626874260797145 12.840713527198023,9.094327815507489 12.804166284528401,9.101843161865322 13.24848580097496,9.703755499971516 13.255381644530644,9.717758235066498 13.2187106116402,10.716397507638971 13.217982433863291,10.748501963926897 12.365730444529982,11.403592012929217 12.35145087830788,11.41162852703746 9.699136140528209,11.015055096209466 9.688832424972862,11.013379275951952 8.810169427639995,12.336101539178703 8.788608083640066,12.331280454068105 8.051284392974413,11.791816130573347 8.028375920084727,11.771800322037956 7.717866352085912,9.717541580646134 7.713963319197138,9.71059723173566 5.717110526307443,9.177828544449943 5.696568631196351,9.155784568192388 4.6262492427504185,11.257541968087384 4.613294960085841,11.267653427155523 1.7261356071965566,10.94894530429628" stroke="#009edd" fill="none" stroke-width="5px" vector-effect="non-scaling-stroke" stroke-linejoin="round"></polygon>
</svg>