<svg viewBox="0 0 35.17377570133249 47.786427709547574" width="35.17377570133249" height="47.786427709547574" xmlns="http://www.w3.org/2000/svg">
  <title>Plzeňský kraj</title>
  <desc>Geojson of Plzeňský kraj</desc>
  <!-- Generated from maps/2-geojsons/world/europe/czechia/plzensky-kraj/okres-rokycany/okres-rokycany.geojson -->
  <metadata>
    <collboard>
      <support-module name="@collboard/map-svg-geojson-import" version="1.4.4"></support-module>
    </collboard>
  </metadata>
  <polygon points="1.7261356071965566,27.530981873584455 1.9248261956399801,28.293631115607056 1.9520527627511912,28.30005264131359 3.3323501494178345,27.76430247771968 3.3367483431957226,27.751052549750963 3.379383152084847,28.248105661834774 3.3758878987504435,28.326110439293913 5.229304232974028,30.311094993781076 5.233673299641305,30.315453264436286 6.1431527805299995,30.026696248907314 6.158590149418524,30.040064548711594 4.31485129786197,30.93790702844744 4.2602379645297335,30.914969555246714 5.0461456765264305,32.73621181352682 5.067998291638287,32.78129468794686 6.576607884529586,31.99273544417119 6.603805324527276,31.98136462605216 6.545026814307858,32.81679789362133 6.578202593863899,32.83350255622244 8.920379134307224,33.112802812701915 8.96272267208442,33.16097793556582 8.49260381697277,33.57198003156409 8.483567130750817,33.59101216085582 9.019615201860507,33.9543994564392 9.02233858675063,33.99133557753848 8.65167425252912,34.2959196488071 8.645113370752734,34.30370705547866 8.666347034751743,35.69317662384892 8.633032901418119,35.809169215085056 8.022069900528368,36.27745727489127 7.824522551194605,36.274093699638975 7.825418209862619,37.56384512458353 7.834578686308305,37.583628155208494 9.17837980275108,37.32682558743581 9.188224766306304,37.31384623888479 10.365571724529218,38.08343243394665 10.424029836529009,38.087705798841846 11.151559536085188,37.65030960052281 11.195432247194185,37.66403042459169 11.94769814586216,39.099668388312054 12.024113121863412,39.145587117060856 11.817536368086076,38.79769030895004 11.820951521861208,38.73245087155846 12.73257184541617,37.77724840372284 12.736576823196447,37.76753156561062 12.412617811638121,37.60906819525444 12.36235169963802,37.59890119077936 12.49897241430481,37.059055620424985 12.550869644528213,37.04444470100752 13.00748080186204,37.60148793043372 13.019379226751699,37.64267315977231 16.509280453417524,38.59783163693828 16.547852030305148,38.632037740080335 19.3238404818625,38.71707979823877 19.371405054307616,38.719148767459046 20.39938090497344,39.502366117907876 20.424925381418507,39.51256331674412 20.977947276529815,39.001308365947985 21.035000005418624,38.92416399823596 21.650645189416903,39.26052841696255 21.693207180528045,39.27628023535544 21.98964835386032,38.933462757507 22.027673797415993,38.92261232949131 21.287947120085665,37.804160806294014 21.27964589341609,37.790316624085605 21.489441192972663,36.5323405197345 21.506953868527855,36.48478001346993 22.207307973418576,35.21709747854802 22.19253324630445,35.14959876351822 22.78387185608335,35.33745443184634 22.80621235030594,35.332278811022476 23.469866295195608,34.502428471084926 23.0310590845289,34.01830036407518 24.548909253419335,32.674986311329484 24.550467553861747,32.67370303368261 25.68413840897447,33.479226998058216 25.694718832084984,33.47829281923368 26.893248481861157,32.365426256372665 26.899911308529045,32.32496680590156 24.975810757418003,25.23382876635769 24.895944218752632,25.072567029892884 23.910457541417056,24.57822383018683 23.855734981417847,24.557548190599842 22.633874515640855,25.205073439701295 22.62208531741817,25.198050849682836 22.659499091639375,24.53068327051478 22.706131596527484,24.464078442512616 23.593073975194784,24.140467535586865 23.609894881862058,24.117039274136545 23.94225706497273,22.774323831890428 23.952611752970917,22.759336382079706 23.222635376085602,20.59684463257908 23.17001724986076,20.499403559332492 24.098720624084308,20.224963962949182 24.217821381417526,20.183579644654305 24.065078810752677,19.752128323550636 24.020230341416394,19.718909705852635 24.53715646408564,19.310419281926073 24.61510061341869,19.267166096899377 24.478137655197134,18.312236279332495 24.462125025860225,18.237587262163647 23.970743379641863,18.16726004708216 23.93558695652937,18.124415419432985 23.74645006052924,17.318984471167273 23.743398995641112,17.30551728345344 24.34086886230689,16.605561602721348 24.430463856085044,16.531623106300316 23.795376325417966,15.672896771178415 23.77988798408369,15.630563287904437 24.88203602319591,14.641352335333426 24.915372001861762,14.614144948225652 24.566465619638986,12.998015524029682 24.56623988452957,12.996738914095108 26.362268528085043,13.084383706176954 26.458031187639065,13.027546930684544 25.73187774408325,9.381367816425696 25.855442231196868,9.327691775527269 25.29370404808615,8.37264926804091 25.290157822305993,8.370387864664732 25.377808581416687,6.878539230731618 25.428919379641957,6.764023134067607 26.375033484529197,6.245599881782614 26.376140314749865,6.232275005654443 24.615319066752637,6.294159617416513 24.603238597418024,6.293458315203676 22.75880797697355,4.715107492289458 22.710930288084274,4.693202378698693 19.831351265863123,4.799321424863952 19.81546970853124,4.791853897761389 20.365200240085326,4.332128703028498 20.37505248541893,4.298691602213144 20.20254716986274,1.9733651481252263 20.17837166763966,1.9015260796080793 18.55764454230557,1.7443054754829017 18.438245232084956,1.726135607196552 14.457501210751435,2.6941033349085 14.33255318586198,2.754703844194951 13.104073584084473,5.390524761173943 13.078347063194451,5.453844375284458 12.346368197417542,5.8319253389916375 12.309646192084257,5.842773808853595 10.199933125418102,4.064841156131656 10.156890536974608,4.034469056527082 9.284358796528613,3.9510580718302624 9.252107802751198,3.953683426849962 8.599587696085292,4.744638523659155 8.600177520084618,4.788210645977593 8.742070241862166,5.5564303184586565 8.760573239195583,5.583694233182538 9.896661644529742,5.949390833828144 9.920655102304956,5.963395122082507 9.44885415652716,7.370823606355767 9.44999011386135,7.3748835688562355 9.292630896084665,6.707968748650815 9.284373360085374,6.69141020008719 8.33544120719489,7.1581180564175115 8.240705278308088,7.146706725574401 6.570483909418181,6.03789552096168 6.512535521861356,6.03971672962834 6.039846199196837,7.199081031458987 5.993672446305936,7.243640075084473 4.28656159119455,7.7380287670257495 4.264191969864259,7.7536681655841635 4.569473221416774,8.30793883989863 4.634521342306471,8.352160919203376 5.780061495195333,8.366249494055587 5.789921022307317,8.426131184590117 4.971390945862004,9.88021997307114 4.947179034752844,9.9088978657066 4.139411425863,9.800594793276465 4.115133978751328,9.79871831988166 3.523860904974936,10.715004864162253 3.5007558240835355,10.806732422972342 4.2079256729735794,12.279530648571741 4.2072630311962715,12.383491015402612 3.568505484528214,13.645512003846301 3.5650247947505704,13.65652568181576 3.9281160800852377,15.509421541057595 3.9212348000863133,15.550750962643718 3.0320205067506323,17.43195853156976 3.0315326276398995,17.466940732773576 4.008841868529635,17.34179846609076 4.032376574307636,17.34599776599825 4.3145454631961915,18.474239420330917 4.313052698750471,18.57061061271124 3.9878193760861906,19.240895798006747 3.9646851680841793,19.256739240813836 2.67133220808355,18.65949767636957 2.638345754750844,18.65717281730503 2.0368126560864765,19.294068196420625 2.029392524528157,19.335673657339427 2.9725065369730146,19.590287208093283 2.9815359414194975,19.623405054533574 2.2117864943069434,21.167556965315086 2.2042571360845615,21.17155027503213 2.9190073156398286,21.641792844860532 2.921854490750775,21.647827406568464 2.5119850649720323,22.372749721330543 2.5152691467508705,22.386689375569762 3.626497562752411,22.122213334449402 3.636182327194911,22.113844629856246 3.588370174305237,22.642277233166165 3.6180361369730236,22.67272638606555 4.997583500527617,23.392156667028388 5.015736972527884,23.40185397358618 4.237649889862587,25.14214034080687 4.236339169861822,25.14510496481125 3.816369918304918,24.817555011886355 3.7021989245276927,24.73254460393109 3.3231532640831576,25.554399270711652 3.3128058578604396,25.5685562406481 2.429722821417454,25.63122518942582 2.3974135734188167,25.63859663365474 2.6261269316386464,25.902519346979165 2.623512773415496,25.91156976750535 1.7261356071965566,27.530981873584455" stroke="#009edd" fill="none" stroke-width="5px" vector-effect="non-scaling-stroke" stroke-linejoin="round"></polygon>
</svg>