<svg viewBox="0 0 267.8428570133249 393.9693770954757" width="267.8428570133249" height="393.9693770954757" xmlns="http://www.w3.org/2000/svg">
  <title>okres Rokycany, Plzeňský kraj, Jihozápad, Česko</title>
  <desc>Geojson of okres Rokycany, Plzeňský kraj, Jihozápad, Česko</desc>
  <!-- Generated from maps/2-geojsons/world/europe/czechia/plzensky-kraj/okres-rokycany/okres-rokycany.geojson -->
  <metadata>
    <collboard>
      <support-module name="@collboard/map-svg-geojson-import" version="0.11.1"></support-module>
    </collboard>
  </metadata>
  <polygon points="8.052549999999997,266.10101266387903 10.039455884434233,273.727505084105 10.311721555546342,273.7917203411704 24.114695422212776,268.4342187052313 24.158677359991657,268.3017194255441 24.585025448882902,273.2722505463822 24.550072915538863,274.0522983209736 33.169877359970656,282.3907012893102 33.23191810664832,282.4765333323809 36.075816417760166,281.8642167547438 36.211330302212104,281.84427917918185 35.95945360887674,284.5800521220441 35.683474231110836,284.75362400786946 39.92860503998929,286.378257181124 40.34133620441537,286.59327191791783 43.084236257774705,293.90214386584523 43.12792692444748,293.94572657239735 45.68019003552729,290.04702034465265 45.96694644445199,289.9517396841326 52.222721733334424,291.0581564171076 52.37709542221967,291.1918394151504 46.829036115559234,296.982240809804 46.80260326222162,297.04890619451874 44.264830888867095,296.12312843744405 44.19092084441911,296.0723402734508 35.999794657756524,301.56935042786756 35.8237940888572,301.6792489639698 33.93970690665412,300.17026421250887 33.393573573331764,299.9408894805016 39.01292148442701,305.98853879207275 39.02042171554751,305.99563208607253 37.744217342209254,307.84661260853284 37.632442053327054,307.9333054163068 40.119824524422825,312.1173648251348 40.71598367111403,312.8226699809089 41.25265069329873,318.1533120633027 41.4711768444173,318.6041408075031 56.55727277333028,310.7185483697464 56.82924717330718,310.60484018855607 56.241462071113006,318.95917286424776 56.57321986667341,319.1262194902589 65.82646615998931,323.3137001367064 66.28871341332672,323.53678631822515 66.78853463999224,320.6136323886236 67.30998274667184,319.8888416437036 76.90248706666864,320.86959750459175 78.11956340444851,319.62623066895287 79.99498527110666,321.91922205505364 80.41842064887862,322.4009732836927 75.71723209776212,326.5109942436753 75.6268652355426,326.7013155365927 80.9873459466395,330.3351884924265 81.01457979554073,330.7045497034193 77.30793645332562,333.75039041610546 77.24232763556176,333.82826448282106 78.79917172442185,334.58437989751803 76.58893371554552,344.9564770109497 76.39494715556032,345.4076475387625 77.45466427555186,347.72296016652365 77.12152294221562,348.882886078885 75.53045449776221,350.37466542120785 74.76885335997906,350.17643886460394 74.60923679109658,353.2003845524665 74.61666420443328,353.64743734784827 71.01189293331811,353.5657666769472 69.03641943998048,353.5321309244242 69.34225410666079,355.1199633870634 70.34204219555943,357.73801460804646 68.34537872888143,358.80571700409166 67.84650413331804,359.1017723876354 69.04537602666062,366.42964517386974 69.13698079111748,366.6274754801194 82.57499195554522,364.0594498023926 82.67344159109746,363.9296563168824 94.44691117332661,371.625518267501 95.0314922933245,371.66825191645296 102.3067892888863,367.2942899332626 102.74551639997628,367.43149817395135 110.26817538665603,381.787877811155 111.03232514666854,382.247065098643 108.96655760889519,378.76809701753484 109.0007091466465,378.1157026436191 112.7855587822047,375.88781058637653 113.54359184887255,375.43014425351396 114.5659534488874,369.2845629996806 114.53143782221707,369.18064817619563 118.11691238219612,368.56367796526285 118.1569621599989,368.4665095841407 114.91737204441563,366.88187588057883 114.41471092441463,366.78020583582804 115.78091807108251,361.3817501322843 116.29989037331654,361.23564093810967 119.88026768889506,361.7446031493961 120.0307092177751,361.74516553598335 120.86600194665482,366.80607323237166 120.98498619555141,367.21792552575755 123.6253588177857,365.6198718292941 124.18292454220466,364.799289287948 128.25780738663855,368.40004361296417 128.31496934220888,368.44772817576415 146.6764817333384,371.79870179644024 147.4141258222295,371.85099411795784 155.88399846220966,376.76951029741724 156.2697142310859,377.11157132883784 167.93796212445125,374.8753170874912 169.23069613331575,374.8882488750602 174.11101641777316,377.684142079706 175.5619106399896,378.0557701267022 184.02959874665942,377.96199191042217 184.5052444711106,377.9826816026249 187.90765513777262,382.8919896153162 187.98404098663707,383.1250645463948 194.78500297776884,385.8148551071132 195.0404477422195,385.9168270954757 200.57066669333256,380.8042775875143 201.14119398222067,380.03283391039406 202.78024934221287,382.8019300057273 203.0868850044277,383.2024186699051 207.29764582220344,383.39647809765995 207.72326573331486,383.55399628158887 210.68767746663764,380.1258215031045 211.06793190219435,380.01731722294755 206.38167099553505,374.0549857122602 206.20749087111437,373.8666282467817 206.08348219554284,370.2811906076455 206.09527867555846,369.79018902299106 203.67066512889107,368.83280199097464 203.58765286219534,368.6943601688905 205.68560585776106,356.1145991253794 205.86073261331296,355.6389940627338 207.62627245332226,353.80447868112935 209.2930713866441,354.06287594018033 212.86427366222017,342.96216871351464 212.7165263910789,342.2871815632167 218.62991248886794,344.1657382464979 218.85331743109384,344.1139820382592 225.4898568799905,335.81547863888375 221.1017847733234,330.9741975687863 236.28028646222776,317.5410570413293 236.29586946665188,317.52822426486057 247.6325780177791,325.58346390861664 247.73838224888425,325.57412212037127 249.76206111108297,320.17779105401826 250.11151362665225,319.76614743176435 259.723678746646,314.4454564917611 259.7903070133249,314.0408619870501 250.9815404355246,281.7046033047151 243.19105766222458,256.7127617069997 244.57699842664408,252.20810509732803 245.0659698044252,250.75929185318057 240.54930150221446,243.12948159161135 239.75063611556072,241.51686422696332 229.89576934220497,236.57343222990278 229.34854374221288,236.3666758340329 217.12993908444298,242.84192832504743 217.01204710221612,242.77170242486284 217.38618484442816,236.09802663318226 217.85250989330927,235.43197835316062 226.72193367998227,232.1958692839031 226.890142746655,231.96158666939994 228.16154114666972,221.6327613967802 228.18593510220637,221.48515071979602 230.2137645777617,218.53443224693876 230.31731145774359,218.38455774883153 228.2795787644351,211.41048443460716 228.26268503998983,211.3703322712314 225.598209733325,210.51596393562033 225.21234832888115,210.08285329981993 223.01754768889043,196.7596402538253 222.491366426642,195.78522952135938 231.7784001688775,193.0408335575263 232.96940774220968,192.62699037457753 231.44198203556118,188.31247716354085 230.99349734219834,187.98029098656082 236.1627585688908,183.89538674729522 236.94220006222133,183.46285489702825 235.20993794664503,183.39300401084586 234.8553881866461,183.51047532071937 235.57257048000577,173.91355672135944 235.41244418663666,173.16706654967095 230.49862772445306,172.46379439885607 230.14706349332812,172.03534812236433 228.25569453332685,163.9810386397072 228.22518388444553,163.8463667625689 234.19988255110331,156.84680995524798 235.09583248888487,156.10742499103765 231.7410446489008,148.73673698766618 231.6993200622161,148.62946625836014 228.74495718221408,147.52016163981864 228.59007376887132,147.09682680707886 233.76428660442582,144.97321501890076 233.95790907555022,145.2008697947673 239.6115541599935,137.20471728136874 239.94491394665204,136.932643410291 236.3522304266586,131.2248782431776 236.17047725333362,130.5329257447953 237.9018655555334,130.35106932286692 238.8523560088721,130.2219621909095 236.45585012442427,120.77134916833131 236.45359277333012,120.75858306898556 242.7443934133113,122.11753452941014 242.9160977333155,123.23017978965765 245.32505545774586,119.9817659518227 245.6994116533093,119.92313140120643 249.42520607109293,119.82732760681358 250.1315385155391,119.76654633871624 251.47378861331492,122.77061903887773 251.80314342221357,123.36167581156008 254.41387920888485,121.63503098980402 255.37150580442506,121.06666323487991 250.10394057777705,104.5689916465559 249.9526980533334,104.24488411407913 250.8022630666452,95.70054334693816 250.79774836442778,95.44544252299931 247.7742085955466,90.18763590034325 247.64816102220323,89.88265942771216 248.10997136886692,84.60487209229143 249.3456162400031,84.06811168330717 243.7282344088959,74.51768660844357 243.69277215109435,74.49507257468179 246.47433844442241,68.75238743839839 246.56070032888204,68.40533737015323 244.56927974220127,59.57658623535065 245.080387724454,58.43142526871055 254.54152877332638,53.24719274586062 254.55259707553307,53.1139439845789 236.9443845955608,53.73279010219961 236.82357990221465,53.72577708007123 218.37927369776992,37.94226885092906 217.90049680887716,37.72321771502141 213.66920137775708,39.99922469467095 213.36030836441898,39.97071296594334 202.45955984885916,35.382619477728106 202.06670793778142,35.2812357884028 196.05880436441623,39.20541638907856 195.6735255022137,39.4157495615142 189.10470658666566,38.784408176674 188.9458910133468,38.70973290564837 190.481399493328,37.082804903322206 190.57482470220532,36.995567876212256 188.53876681777876,36.22106441242034 188.4135930577828,36.12330307614287 189.47680543110584,34.81821770298814 189.62986839999905,34.65844613125194 192.9542912266694,37.1117707335867 193.53617808887032,37.12761141549675 194.44319632888767,34.11248095831946 194.5417187822237,33.77810995016592 193.1588363644329,26.334853691972633 192.93747032000795,26.279626646348 195.83925876444084,19.3262303329899 195.89831398221543,18.81044533913485 193.5015168266615,16.42183424055805 193.27206800887473,15.988312116117989 192.8166656266618,10.524845409286748 192.574910604431,9.806454724115277 186.06055938665634,12.525104903652057 185.74700603553322,12.494994014741344 176.36763935109013,8.234248682863502 175.17364624888398,8.052550000000004 165.76682726221736,9.776795150922801 164.55288208887907,10.101125102919134 159.89887945776684,14.12378809459154 159.53100404443796,14.40541771699612 156.66671675554937,12.914167787770232 156.59637478221669,12.805384409795472 154.53883565331455,16.530610399473183 154.3985886133229,16.679002915428676 144.17184144887835,14.07737792870433 143.61332909332816,14.030288549278005 135.36620603554877,17.732227277119485 134.11672578665423,18.33823236998399 129.8917655022011,21.469339969734968 129.7613488622079,21.656766094710868 121.83192976887915,44.69644153977391 121.57466455997894,45.32963768087905 114.25487590220985,49.11044731795085 113.88765584887699,49.21893201657043 104.67708077331883,45.118874800689476 104.25262594666094,44.77936723457936 92.79052518221545,31.439605489351045 92.3600992977805,31.135884493305305 83.63478189332056,30.3017746463371 83.31227195554641,30.3280281965341 77.63030075556128,33.14093230995753 77.30524219555775,33.21448365208165 76.78707088888734,38.237579164626034 76.7929691288806,38.67330038781041 78.61720009774547,43.17004319187948 78.9948330933181,43.4422457320103 77.68411309333862,43.44326394345956 77.53709399997717,43.50605361209421 78.21189634665609,46.355497112621045 78.39692631999026,46.62813625985985 89.75781037333184,50.28510226631591 89.99774495108397,50.42514514885955 89.54751263111359,54.47345065006051 89.40762967998273,54.817309182697166 85.78108589334408,59.159467672441345 85.32408152000392,60.34295410651942 85.27973549330602,64.49942999159214 85.29109506664793,64.54002961659683 83.71750288888109,57.87088141454263 83.63492752888817,57.705295928906374 74.14560599998333,62.372374492209595 73.1982467111153,62.25826118377848 56.49603302221624,51.17014913765127 55.91654914664798,51.18836122431788 51.83715159999667,55.47165240708967 51.54172987552704,55.99840148064653 51.18965592000279,62.782004242624346 50.727918391093795,63.22759467887921 41.40112614219072,62.74377829449771 40.50029741330184,62.87112262118138 33.65680983997993,68.17148159829196 33.43311362667703,68.32787558387611 32.86069307555556,70.9633238315215 33.228204399994524,71.78132044076449 36.485926142202175,73.87058232702077 37.13640735109914,74.31280312006822 46.186127955566576,72.4685909377946 46.78155892444886,72.4723223926627 48.59180887998775,74.45368886859035 48.6904041511076,75.05250577393565 40.50510338665447,89.59339365874587 40.26298427556287,89.88017258510047 32.18530818666443,88.79714186079912 31.94253371554771,88.77837712685107 26.02980297778379,97.94124256965699 25.798752168869783,98.85851815775789 32.87045065777022,113.58650041375188 32.86382423999714,114.62610408206058 31.844812257746185,120.18557418874809 31.772431386670746,120.38881678893051 26.47624877331657,127.2463139664975 26.441441875540136,127.35645074619208 29.439495422214918,132.73006488825888 29.787637217763063,133.77540309206927 28.222419084435046,136.4751180394593 27.926269182214696,137.1264495943975 30.072354728886808,145.88540933861043 30.00354192889756,146.29870355447167 24.263753413316977,153.2549016047484 23.419722551079417,154.0447939699876 21.111398995540753,165.11077924373205 21.106520204433423,165.46060125577026 30.879612613330778,164.2091785889421 31.114959671110796,164.25117158801697 31.360064311105475,170.4171317412762 31.42276041777916,170.8683905975846 33.93664855999634,175.53358813134366 33.92172091553914,176.49730005514687 32.76391824888526,181.89778995035851 32.743674906647016,181.97023824703467 30.669387688896336,183.20015190810193 30.438045608876223,183.35858633617283 20.03740959108802,180.96735117986793 19.27253165332479,180.6415528019785 17.504516008869928,177.38617069173017 17.174651475542873,177.3629221010848 11.159320488899198,183.73187589224074 11.085119173316002,184.14793050142873 14.78826726219961,187.0842583466798 15.144054924435864,187.21853441737005 20.516259297764577,186.6940660089673 20.606553342229404,187.0252444733702 12.909058871103866,202.46676358118532 12.833765288880045,202.50669667835575 14.7915440622088,201.6950563858769 15.125996115537077,201.485799011141 19.981267084432716,207.2091223766398 20.00973883554218,207.2694679937191 15.911044577754751,214.5186911413399 15.943885395543134,214.6580876837321 27.05616955555854,212.0133272725285 27.153017199983537,211.92964022659692 25.621003973333814,213.7598985471774 25.39869129774854,213.95016159213958 26.6748956710868,217.21396625969612 26.971555297764667,217.51845778868994 40.7670289333106,224.71276059831837 40.94856365331327,224.80973366389628 33.1676928266603,242.21259733610316 33.15458562665265,242.24224357614696 28.954893111083607,238.96674404689804 27.81318317331136,238.11663996734535 24.646629288886857,242.49992846805947 23.67531295109768,242.50533916142706 24.022726568866005,246.335186635151 23.919252506638827,246.47675633451547 15.08842214220897,247.10344582229266 14.765329662222598,247.17716026458186 17.052463244420892,249.81638739782613 17.02632166218939,249.90689160308796 11.55035195552739,258.2210304108081 11.355491582194759,258.4639903062704 12.079373111111295,262.22499796751765 12.150443262223803,262.5435493805777 8.052549999999997,266.10101266387903" stroke="#009edd" stroke-width="5.809130916463593px" fill="none" stroke-linejoin="round" vector-effect="non-scaling-stroke"></polygon>
</svg>