<svg viewBox="0 0 80.95425433599739 71.34652473913738" width="80.95425433599739" height="71.34652473913738" xmlns="http://www.w3.org/2000/svg">
  <title>Jihočeský kraj</title>
  <desc>Geojson of Jihočeský kraj</desc>
  <!-- Generated from maps/2-geojsons/world/europe/czechia/jihocesky-kraj/okres-jindrichuv-hradec/okres-jindrichuv-hradec.geojson -->
  <metadata>
    <collboard>
      <support-module name="@collboard/map-svg-geojson-import" version="0.11.1"></support-module>
    </collboard>
  </metadata>
  <polygon points="1.2968712300500016,27.615318196622084 1.7457272940491209,28.449443587628902 1.8291036496027488,28.473527927391242 2.738204478050594,27.89238473291347 2.7710525776057153,27.867164094411546 4.424249150048254,27.967568006593627 4.4436769331602965,27.976382300292734 5.8383267038270255,30.011851727498414 5.903454924270173,30.07421753025568 6.102072694938525,30.536733592616056 6.0964293171594734,30.555264981833297 5.404864318049059,30.612069746220495 5.341483724268747,30.61064769001399 5.267413480716769,31.8586722691079 5.2612530967163735,31.872500847933534 4.53172819004989,32.69206834482624 4.486522913604986,32.71787777089643 3.6318679376040937,32.787198360733 3.6268216656027477,32.81035315413623 3.8402505722713074,33.18263781614672 3.850110099380382,33.19305396342546 4.960246248715103,32.87123258448277 5.007461295827071,32.88083863544756 5.100515134047729,33.42866685604107 5.096968908270483,33.4572932824581 5.767941039826965,33.98419069898968 5.775397580271366,33.9951271772415 5.1676021527151,36.00109971240757 5.174658195380599,36.06778200604907 7.454823116271419,35.483252360526365 7.463168033605453,35.48366306139227 7.201752211383556,36.96056801180543 7.205087265602325,36.96971198001423 8.18792337582576,36.74983086472215 8.257398817603955,36.73296266793926 9.323647692270006,37.089847225821124 9.388739503827074,37.13872840718408 8.780791158939374,37.55011217386067 8.77278120338173,37.56000968535094 8.334636634492327,39.15302292856517 8.308101836271945,39.236605483319856 7.542561256713944,39.96643217513059 7.5320026789385714,40.013457933445295 10.057665455827502,42.39452377660504 10.081243852269964,42.422028473846275 10.818458316271554,41.59997699658428 10.806953107382416,41.54388376866131 12.485038796271093,41.33368710664376 12.567155404269707,41.444701921456854 11.958850252270478,41.77339782675566 11.85723304338184,41.820530187536626 12.418388684271614,42.315611919433415 12.424498095826259,42.31857196586219 12.32438093315881,42.67534019651079 12.317091873605515,42.78483156905872 10.63796489049286,42.680683452380016 10.612580613160517,42.66799043985969 10.477285182048346,43.72642115291396 10.470731582050341,43.78357843131829 10.009846021159447,44.27588021003479 9.994037281602633,44.38085163816589 10.729205566048169,44.98684761220078 10.746528915382934,44.99348510877766 11.712369356269612,45.156239796510036 11.7365739856033,45.15973019389216 12.377785491381784,44.75642514228542 12.380013715382795,44.75379884262815 12.869145292270824,45.11299192826567 13.001025569604955,45.18324322620478 12.971680005159707,45.64126204845101 12.970864446048054,45.64953854771169 12.667330821161286,45.658490891751846 12.654274593602295,45.67634013845249 12.876128517158342,46.058384423254886 12.883621466491732,46.07096995347396 12.27517067893654,46.28386714430248 12.264124222050434,46.308339216545704 12.727704040715018,46.49416390793207 12.74600314827125,46.519432659582655 12.605319201602962,47.269743493051045 12.611049960713846,47.292272846061806 13.863719628271193,48.018823023358834 13.936748577605014,48.01664126718255 13.718127763382055,48.14413412448497 13.556202870939288,48.221257461406765 13.631059546492308,48.782628502948626 13.619678127826901,48.83858198320244 13.313108001602941,49.236950435549204 13.231595781160415,49.570697735386915 15.148159692270694,52.21723295441201 15.262672929602687,52.278873077436714 17.914805622937404,53.20407864666062 17.921657775825718,53.20598174724159 19.113531880715293,52.45848870672648 19.12168747182599,52.45371924614168 19.64978384160508,54.64759182621505 19.652019347381557,54.659726452329906 18.98540900071688,55.546654756085026 18.98240162649321,55.550625245989195 20.506856367824497,57.03873932038709 20.57374677849306,57.05199651332236 20.48729023093778,57.32381173635089 20.499450799825848,57.33609529378604 21.052145014939143,57.44837083347096 21.121460257604614,57.48220230809251 20.389379446939113,58.66873833983567 20.363310682494323,58.72444839658578 20.336586558047696,59.34390872831731 20.334423870049196,59.35264003257338 21.65246933849134,60.15836972931005 21.812267951827508,60.18947727727658 21.530106344714426,61.14342735981494 21.477524627381484,61.236688715589246 21.063664787382134,61.31880072132057 21.05823258115865,61.3184250771273 21.35112024693821,61.60493477078866 21.424462312716187,61.658604667012824 22.25006299538376,61.363701067282946 22.262835233603383,61.34455438447198 25.03162928871474,62.63878990173702 25.03527745938349,62.64339596918739 26.854673327825857,60.75581411149773 26.858656460270993,60.743140344013355 26.437449306494216,59.936898836385936 26.428143194492566,59.929030439804905 24.878639137602423,59.17723765198038 24.86243718205091,59.16804186058593 24.846948840713722,58.554166196235876 24.845943955381646,58.55350296420232 25.369241633603945,57.52055545237685 25.378605999826817,57.51130163354404 25.20560552338151,56.50075138709812 25.210892094049033,56.47155829304551 26.049417932270572,55.36987106419414 26.050648552714975,55.368289452916486 25.94480791271502,53.93725509019145 25.949024062047954,53.926778346958 26.21810031449435,53.48794321830805 26.21994988604869,53.33672983092996 26.966710760715195,53.32624088801835 27.12744144160546,53.32338629885356 26.630270782049173,52.16894955682086 26.632921349158405,52.13556150177332 26.31866166560225,52.14131616929675 26.31457658827143,52.141072702716464 26.287269921603855,49.9326230269858 26.28374554115884,49.75249369517854 27.054980470935824,49.74264010852798 27.07635977049371,49.74235225067545 27.050815294048643,48.00604257140671 27.050189061160324,47.947267617556044 27.326940307382156,47.94319199935866 27.446958568715615,47.94057828611125 27.326619909159618,47.429152755903615 27.326190284270105,47.42625082173194 27.73870299538261,46.534565052748206 27.739023393605148,46.497996878120595 27.52784455627274,45.21476737528877 27.527400367826466,45.18644551175543 26.75301971004823,43.8946992691724 26.72673977404787,43.839006129934695 27.140388442491655,43.16370577009233 27.27285126204964,42.96493279216824 26.57502393404733,40.882242350280414 26.542423414936763,40.758330333233005 26.538411155381016,39.2147865095701 26.520847507380076,39.07463055111888 26.681818486936518,38.157267302028906 26.682896190049487,38.027780049108095 26.85259073938372,38.27394857424091 26.868006262937104,38.286740428567406 27.107256353605898,37.42236389121694 27.127157452271913,37.34604417419336 28.015330451383615,36.765001100374626 28.09574312338094,36.74959781761585 27.923252371381512,36.655057565082224 27.894882565160643,36.60676028912434 28.31392703093601,35.4789899497658 28.31199007804984,35.44454644221709 27.56032128515957,34.79437526382548 27.55816587893945,34.7859159850895 27.892093644270915,34.2402762589148 27.9000890362718,34.22444404250722 28.43800852427097,34.56549281332422 28.474956264713672,34.58195685739351 29.825092527826328,33.58908619315493 29.836364719824758,33.58501108663199 31.225269167826752,34.57991411959532 31.226375998050333,34.58226770873165 33.014853438048284,34.278313362049936 33.01853801760311,34.27885738176714 32.946033356271926,35.8866902015828 32.976056126048334,35.90341669131025 35.720754778492974,36.53948520939169 35.722961157161755,36.54095013241762 36.09998248338246,35.9685906927219 36.13001253493725,35.9540731172326 37.638170657603894,36.11608399073024 37.650819105605606,36.13441910051491 37.92012837493689,35.78432120590018 37.92213086382848,35.78041420895328 39.63194325849485,36.60122250005383 39.633720012271205,36.60211032232195 39.72442183627294,37.53857245199337 39.72486602471339,37.540913685973045 39.27059231804755,37.94289219238575 39.25608701671603,37.97185029283004 39.98953680160643,38.307198458459006 40.053645573160736,38.33095142316173 39.87906495093788,38.93474836818072 39.86591406026868,38.95317397144403 40.308922856714474,39.194653521491404 40.31134040693882,39.19546327945149 40.61654155893788,40.03530702946313 40.61773577049329,40.045488456907464 39.574104097604994,41.81789140683844 39.5689049082693,41.832548819854985 39.924110028270064,42.32270715915669 39.92290853493627,42.325633942891855 41.13851395360556,41.66154694764131 41.14400441404736,41.66000576687961 42.0612899607136,42.16633261799592 42.110755077158814,42.14887116664044 43.51942227004923,40.58761685662188 43.5143395891589,40.56948503262551 44.58192102916086,40.29407361692296 44.59794822204871,40.279434307903415 46.189832225605045,40.352075952860595 46.19671350560397,40.34949192292128 47.28316203182634,41.000629295260424 47.30476706649364,40.999830890479046 47.329554238048274,40.5865522374051 47.32737698649302,40.56249844237913 47.833504232714894,40.522752338867704 47.847638163381035,40.48684308572569 47.656425960714245,39.60603966546054 47.67454302382843,39.55878860622192 47.95706143805013,39.539810426317985 48.052423599825254,39.58675107759495 48.74339149315796,38.14757056367829 48.747891631824444,38.13121698703048 48.3569693918283,37.454953132479694 48.33599787182769,37.42916581545154 48.53171749493644,36.44859263524135 48.561310639826246,36.45030174016587 49.354849654939734,36.68002726886783 49.37051275893768,36.69428769354721 49.6272609616049,37.03845771310747 49.63912297760265,37.06946236938105 49.52420196071629,37.498127755909934 49.44630878382608,37.597713271998636 50.42167379004835,38.20397560895084 50.51423974915828,38.30788630847541 50.948852655827196,38.01955870996329 50.98036090827094,37.993308036492216 51.64497604782822,38.48090005877906 51.68217136871548,38.50620543153795 52.43956363893825,37.55604846371001 52.446466764272316,37.54136861758028 54.95258524960386,37.89077832462512 54.976556862046834,37.86789999292536 59.180290764270595,41.221971487951066 59.18401175271441,41.22610750094768 61.01392250827061,41.41602811255738 61.0593972104923,41.42688337323793 61.4391200762709,41.907575983232654 61.4514044353827,41.92700061279333 62.33829584160425,41.224754703469934 62.3687409544947,41.202865950789544 63.00007836960444,41.9570798275426 62.9912674184919,42.014421688817805 64.80198340782675,42.95100999167493 64.80970209227247,42.9593570251572 65.08684655449483,44.68476106715983 65.10520391626936,44.77582869311749 65.53506182204886,45.29982073916484 65.543938309161,45.30868500621304 67.72160492604903,46.07935659812951 67.75251607271507,46.088585216205814 68.26930384160381,44.96794344644744 68.3552943553806,44.98803327577929 68.27477973849467,44.307121386868076 68.27427729582426,44.299175350455464 68.87158696338314,44.46760228292709 68.88475241760328,44.47514912577475 69.25393855093874,43.900905833063135 69.2575139038266,43.890077591179704 69.73757966738206,43.880523894465426 69.74161377227004,43.87612386850537 68.91533588427131,43.699931541169775 68.89294441760298,43.683804958118834 69.66317446204788,43.40650904693624 69.70378493671609,43.41179617622123 69.89100672516228,42.82827499917488 69.89311844071503,42.79646011950694 69.57131483538264,42.33339434681706 69.57184640516074,42.2952130545485 70.3976145687165,42.669653281587074 70.46310687804957,42.679042785152106 70.44348976871419,42.224780960887564 70.44509904160526,42.18309555945174 70.98780265760446,41.776768397056856 70.99938068427159,41.75536967574894 70.01931893138111,40.7350424597856 70.01548871627033,40.72115840477649 70.47812918560243,40.42609181723105 70.49206650826976,40.40506493579609 70.51073698649428,39.671303140741784 70.5108316496045,39.65823719731574 66.38941824515945,38.52304603192328 66.37046377760429,38.507104041947 66.25649667360425,38.33067406545173 66.18129775449356,38.249962380816704 66.72973212960363,36.42779478365277 66.71238693493665,36.40860608811503 65.29725352338004,36.02908018023603 65.2679079589377,36.018058933930426 64.3502437598277,37.04456100564433 64.30817692960566,37.058887071299374 63.76243681227219,36.29549242412917 63.73708894382593,36.205261752955394 64.18539159271471,35.86364818594169 64.19301561404731,35.85716621432815 64.07090748249333,35.37508157076967 64.06645103449422,35.311610028574194 64.94877676604969,35.0228930065788 64.97140124960292,35.01023791112251 65.30567125849497,34.0543059176883 65.3361163713825,33.92497789830099 65.97657057227056,34.090723289159484 65.98922630204774,34.10603405752785 65.8892402113824,33.52031975606818 65.88539543271484,33.49187132051169 67.07278396249471,33.07527706451232 67.11985337404779,33.03554372960365 66.70987472160208,32.8111416369998 66.67824996071589,32.80220178949252 67.02464412960411,32.6134843413923 67.02057361582715,32.510688203203735 66.62863192693925,31.872722993495827 66.47323150738097,31.75040829555668 67.96037441938255,31.130573700588265 67.99719836960443,31.14251561544528 68.23143859715796,30.38651372404287 68.2563932496037,30.315252016123978 67.90506931715949,30.177492328969073 67.80429679449311,30.14756005778048 67.68191923715943,29.219345824841128 67.61584438560543,29.21075576734742 68.62903822738166,29.059755265936964 68.682886974048,29.069223478742188 68.49884004071367,27.492308914678997 68.53998208515999,27.292704794785948 69.85569010293706,27.97102481197811 69.86914682826914,27.983829422720135 70.16775068960281,27.619708952619238 70.17726069138165,27.6106495408459 71.17179861849303,27.84871260676604 71.2107925384947,27.8381085311515 71.77484632693826,27.36402774585889 71.78378106827162,27.36218243173802 71.30208418649285,26.573265272722473 71.21487033404713,26.471057100423913 72.23500371004933,26.14794319777733 72.25112556604739,26.105869509818277 70.93760936338235,25.14354650106701 70.63724331182615,24.93875280022634 71.15085622560304,24.413205052769754 71.2313344336058,24.253164078525277 70.35945805315872,24.054532861503084 70.32969014560234,24.035857288715615 70.11083631449159,24.50764362294298 70.10372201760487,24.521168081573105 68.29181909849298,23.111865874112244 68.28221443360393,23.104957297913042 69.02164983982524,22.693586613805508 69.04757296871406,22.677977153645898 69.70476069493756,22.912236798484937 69.7664664798272,22.9028915243763 69.73737577760197,22.366468515424767 69.7399972176035,22.314752685549447 69.56358886915854,21.57612474886422 69.57592420071609,21.53174606204424 68.86331486382709,21.396426698999257 68.84709106293752,21.397305840441675 68.47861854382512,21.92640116405977 68.45839704693657,21.911490555628678 68.69100615627262,21.36918437326689 68.7095164353815,21.354962223301243 67.99064476960352,20.809963628475217 67.90678781671463,20.781549797381867 67.33709065049491,20.798377747921165 67.30384933493637,20.807370441185903 67.17025055805001,21.266779623771562 67.17024327626872,21.2889923346463 67.5238099962707,21.76144753365965 67.52526635182453,21.773565517433 67.28823720338127,21.991973980957244 67.27419793582534,22.001443196590245 65.81828656871525,21.27248861060665 65.79724951271504,21.265588859690013 64.62053606915883,22.63507594375418 64.59462022204838,22.636355419308657 63.59438066293673,22.268332642334407 63.56241365849286,22.262190747345574 62.09083190560354,22.474104426425892 62.06257860782511,22.5143366198697 60.407059148271344,21.099636121920902 60.38667745227007,21.073160233488434 59.635773246048615,21.443054387188877 59.59092477671524,21.435375868981772 59.13019941493707,22.76005149015995 59.11805340960285,22.78528434706399 59.00793836604875,21.9497016908835 58.99960801227147,21.94371522299201 56.17143834116008,20.75399280456344 56.12516264338059,20.73269057604206 55.3993368798257,19.16727476103273 55.38435098115892,19.131059411606238 54.48272853849352,19.121373741421973 54.35054242649361,19.127118347860357 54.49910525671452,18.61997791769112 54.51074153760286,18.60064930124803 54.23011638560287,18.50342622397451 54.120583884269706,18.442354736130927 54.28507924427117,18.801570078922794 54.279435866492115,18.845224789207112 54.020554102937005,18.83268842983247 53.99662618115848,18.8540536646325 53.274128190049794,17.358454352313256 53.250222113603506,17.302682361166934 52.814356741160864,17.30721497016506 52.80981291182701,17.30886319069408 53.309386558047976,16.66433798291413 53.32754003004824,16.655806325482388 53.20853393582524,15.928606650677228 53.219638646938385,15.867094475899775 53.802319222936184,14.468782845031946 53.80464939182579,14.438419824959546 53.20438332249191,13.10113337632514 53.18322247627088,13.090645801639893 53.428370806938744,12.141911396847116 53.42919364782587,12.104323357528608 53.1612096620492,11.614752513170368 53.12057006027038,11.571218878525668 51.12013463271445,11.58374946572161 51.0525451713825,11.53407287785243 51.064858657602,11.965260988983335 51.062113427382556,11.971001909719906 50.69520649049386,12.137876156986875 50.65016869493715,12.14726198657894 49.03211398205034,11.760757687705462 49.002098494049406,11.74343391952874 48.625171830936,12.454967890711977 48.610600993604876,12.469012379774483 47.62992757138285,12.02598067685625 47.58954283182697,11.975037271785675 46.69291568871426,12.89428707862693 46.69042532071484,12.894487698443243 46.962887599825756,11.710882032767529 47.007007891382216,11.652221263632363 45.93102327982791,10.995873699421772 45.87887118738158,10.96876947508439 43.278308044269345,10.69069539977221 43.234704758937134,10.721402424470705 42.68322660071439,9.734020068665394 42.66224779893832,9.698255680353157 42.208272645159866,9.554760865237165 42.19775775804896,9.550567597671886 42.147346010492896,10.08706802977116 42.13318295271614,10.144306972905305 40.430018821157994,11.785661902514528 40.37964348249383,11.828313174561607 38.412463934047395,11.258625016815621 38.39851932960459,11.259539222800356 38.21410830738036,9.692044005832702 38.234067660270505,9.66627161536029 37.293910049606474,8.322382735379632 37.26422224160355,8.285917577875205 35.52216613493814,8.895809927184144 35.47206750382624,9.064740327939342 33.72940700960475,7.8447358546736154 33.71862269671705,7.830434143915898 35.55752644782491,8.161494724490456 35.59743059004844,8.146892647139737 35.39295827004838,7.000715159115623 35.38778820782621,6.992559038062007 35.852321939382946,6.703739767670175 35.85560602115887,6.7001580235171225 35.80590060604749,5.800519710795323 35.80359228249303,5.79538615053765 32.807075190937155,5.568042750716393 32.7804311660498,5.559672459616684 30.44033721404861,2.843499402201394 30.43131509138342,2.8383854153101655 28.35562977227104,4.134461588377724 28.333966483382518,4.146685373383059 27.623578088716148,5.220240853855046 27.611854426493064,5.247920274399928 26.722647414938674,4.99660165670515 26.71242379893678,5.0012895007298885 26.885926718049575,4.76426933768538 26.87415936515912,4.739813321174132 26.49261605493679,4.7498591649289095 26.483171589157553,4.739757510877223 26.04838391982497,3.8145236662357433 26.03108969760373,3.7980345091580037 24.817625121603616,3.1965874910559595 24.806156321603467,3.200551131622467 24.459223301158765,1.9949480270298752 24.45826938827244,1.984952991877924 22.765882287826518,1.3073031070265075 22.732495336714912,1.296871230049999 21.585637182049815,1.4461434750033164 21.58065644604807,1.4464450309956534 21.04450643004688,2.047044759905964 21.038812079824986,2.0690000627336644 19.472814796271397,1.886665651254714 19.469938494049842,1.8839630317016942 18.246694490494104,2.43327109322139 18.234519358049276,2.4463919940405847 18.39787147893816,2.9822228582169714 18.39381552871504,2.9910995218263796 18.851904886937827,3.054374645004407 18.859587162491646,3.072395695744615 18.628871315383133,3.3004674265511653 18.607368225604425,3.314233827189435 18.76727606560466,3.751603367482437 18.78157019538061,3.776432187325679 19.417240268271545,3.8192571727502016 19.45348895804795,3.7601885251425644 19.816136054939253,4.492836067776205 19.824764961603925,4.497926192604189 20.666196229160544,4.350355312953013 20.668329790048432,4.356372085030432 20.052349644270855,5.570676599681736 20.043742582938414,5.617795498376779 19.009671884271793,6.358743509106114 19.001487166047575,6.3561881485832945 19.137590874493018,6.994310764121599 19.14550616693754,7.121794758367594 18.701325004268565,6.887086250339178 18.666911322492652,6.91600694917737 19.00471299360228,7.2443444172649265 19.007494632713627,7.269525669084522 18.71301953938104,7.889302960058683 18.70369158204716,7.915306779093351 19.086851446938947,9.026551312526989 19.10559474293563,9.055092719078074 18.855371013158713,9.78461618897576 18.837239386493586,9.798857067397456 17.49646020782542,9.446716293080078 17.49037992338139,9.448433781179608 17.195700940268708,10.502725430236149 17.161658629161085,10.547449439588071 16.466620222048498,10.408559631180959 16.430356968715333,10.399973681927202 15.576379198048508,11.118816608493342 15.579612307381595,11.132150960607522 14.735013466494403,10.90036723008974 14.654899347381562,10.879907713900446 14.762036143825519,11.466658712973128 14.76282257582656,11.527907866115982 14.470546579381462,11.75828286701593 14.40447900960293,11.788939351227725 11.812792353605747,11.018295069292197 11.725236257605268,10.97496856077645 11.619497562493908,10.247721393022346 11.600142597159849,10.143760568506094 9.967538892271243,10.697719897644255 9.949734945604124,10.689558099274416 9.930365416716214,11.1846295731027 9.932673740270676,11.19658129259782 10.607942120716453,12.191014009765183 10.796496474492725,12.241977711896595 10.29413390738204,12.712511378611214 10.271196307381743,12.719845384601047 11.230104495826655,14.009141248508366 11.248075923381968,14.020395961130397 11.464745221159085,15.171921320770469 11.470155582047429,15.222289284058332 12.480655166049965,14.714589012322666 12.53786809404859,14.695592099533076 12.975830618493038,15.431309742981227 13.008817071825744,15.489128201975962 14.04685633938365,15.55013214598015 14.119725089604746,15.559656988653423 14.181569228271966,17.050142219867976 14.182574113604042,17.08341991192732 12.820299126938464,17.414893963982593 12.800390746494068,17.42245558078297 11.737695379383641,18.572847595330803 11.711874195383409,18.614856286290287 12.445498742937472,19.555575645703485 12.45283149316105,19.567820928525308 12.198296950938076,19.796713657441558 12.193811375828355,19.8277039475944 12.486305825604488,20.346442643356696 12.49679158560479,20.383462534655827 13.13983081760538,20.660335840855385 13.176589231824748,20.682439695421035 13.176166888713617,21.22071801095748 13.18674003004866,21.231379322058764 13.727280958049361,21.293666340573818 13.739179382939021,21.302936440620524 13.926692442494224,21.979099827411247 13.94258128160449,22.03779548685865 14.99457243538067,22.106137589276603 15.013738074491394,22.09920549991233 15.321917473603518,23.234171828291565 15.303516421161603,23.26038148362435 14.382072979380737,23.52286053406582 14.135861509159568,23.687516798451668 13.136022447826818,21.712174135440854 12.950723048715865,21.43586551393977 11.148067987381493,21.431091473743564 11.097685366936041,21.436421928613107 10.864894213160861,22.676920203570752 10.835737974936038,22.747991300872073 9.385564648715208,22.772000397097273 9.181674870936096,22.76169808222634 8.325891219382303,20.203402839586616 8.297645203382254,20.131497529885507 7.811914216715505,19.510846736174553 7.812970074493333,19.49328013144126 6.653252300270961,19.081139062749696 6.648883233603684,19.076663576754925 6.376704943826318,19.830019307109012 6.371665953603352,19.834249288329865 5.3150508709369575,19.756294666099837 5.287991784713942,19.816127135438855 5.502294504715374,21.141825894281045 5.503029964270664,21.16480699830585 5.110498451383447,23.491835371064496 5.1061512300484,23.498254001024307 3.7362813491608367,23.069991537244768 3.6906027571590503,23.051145756984024 3.6279139322695673,22.49785881283473 3.613787283381808,22.49159478550149 2.8072721402715075,22.84885550412886 2.7934076353821555,22.844004808116132 2.256267297605646,24.20373496006081 2.251461324270477,24.220207674507527 2.874570330491534,24.636536150152224 3.0108415198251723,24.739579050763986 2.536207962493191,25.12703205853044 2.482606796268502,25.27110083377933 3.2515334024939335,26.05933679388412 3.299309146491706,26.13504537825369 1.501845992714644,26.356483414636877 1.4588907856029807,26.35469335565589 1.2968712300500016,27.615318196622084" stroke="#009edd" fill="none" stroke-width="5px" vector-effect="non-scaling-stroke" stroke-linejoin="round"></polygon>
</svg>