<svg viewBox="0 0 2854.275273439896 2469.9660895654956" width="1000" xmlns="http://www.w3.org/2000/svg"><polygon points="798.5070040443458,2408.914703883092 810.2225106755283,2420.375091629546 813.1561933066474,2422.521887478513 846.1802206133503,2410.7257434893177 846.6911101421352,2409.959876176879 884.8007310487807,2425.5842836538573 887.9683043821493,2424.469806127577 910.5199701599555,2446.9407810066255 911.8810800622228,2447.7237531304486 946.9099264265748,2446.206852596813 947.3005209865292,2445.7252245670893 957.4428723465895,2461.7292968674806 957.5887991733395,2461.9135395654953 1015.14251437327,2414.420253808937 1015.4390283643512,2414.1489126798474 1030.3646339110342,2386.410265257909 1030.5239592088396,2385.903314558534 1023.2331520266376,2381.4131923718155 1022.4039031732606,2380.7939647300877 1028.4439922043598,2368.819680556982 1028.5121496444112,2368.776805173234 1013.6756730577687,2353.6536542534373 1013.3034285777027,2353.338918390196 950.2810982665757,2322.6655011712933 950.2353687021892,2322.5943220635886 924.9285694843635,2358.9501674879352 924.9215789778169,2359.0474149214347 903.468879102125,2335.6966404303453 899.0287422843754,2333.1626221419788 846.8157741776446,2327.1042028927254 842.0788320976786,2325.033851378342 833.0945746755239,2339.490098357411 829.5451449155586,2343.5814430981186 824.6870340532402,2388.468552755519 824.1921644354949,2391.1455796705336 815.2786858932592,2405.6452494215696 812.9691972533252,2407.2764471728365 798.5070040443458,2408.914703883092" stroke="#009edd" stroke-width="5.224033846781826px" fill="none" stroke-linejoin="round" vector-effect="non-scaling-stroke"></polygon><polygon points="1998.6342758666501,928.7908215481216 2043.8946025511027,997.0314257666246 2044.3530632799734,996.7570073947786 2037.963740186627,1002.8221520816219 2037.8970391022517,1002.9738119208264 2039.7655432800307,1017.5064330419768 2039.9108875643938,1018.4367870847123 2052.145730586584,1036.3858047105382 2052.5037027821886,1036.7491102817362 2033.8303118487597,1032.7865125767198 2033.0636862843307,1032.3987424914735 2035.4395847377377,1039.305572855788 2033.239322764311,1040.7747806078764 2051.4650299999407,1083.8990561387977 2051.3426961332802,1085.6280489202832 2060.3354004176576,1086.0637405180382 2061.5502922221563,1086.0206159798904 2060.067430995499,1071.2239565361883 2059.5815907822466,1069.4850694482225 2114.9131986754724,1057.6788601455405 2115.6801155110365,1057.5330181907407 2141.5001344266125,1039.9788127301504 2142.153164257739,1039.8934349997212 2165.8859343910367,1039.3531532841512 2169.160112951045,1039.003192323587 2194.293314586604,1058.1537351114453 2196.9569888977344,1058.758443328064 2250.6137879021476,1062.046070649732 2252.6681230488243,1061.1977127523637 2290.803958355427,1101.4444370292836 2291.77505624001,1102.296196771647 2328.932220613329,1110.4237577750823 2330.9116990844263,1106.5994003769952 2353.439189359989,1122.0764595252472 2354.6616542133047,1123.0152633997855 2339.7281843466694,1137.9133513175543 2339.5563343910976,1138.632071870124 2363.409690764361,1171.0845133917533 2363.829121164373,1171.6426938662548 2349.229739262118,1180.8369144020612 2346.3945062666676,1180.7040411083503 2347.692992879987,1200.4475142991064 2353.3818089511255,1201.3606572459462 2352.334689306655,1187.5444677562696 2352.7809166488946,1184.3386968215705 2395.962441413292,1198.0439973817915 2398.715244684346,1198.8713895911128 2405.077188293311,1186.0633487059745 2405.772743706569,1185.0679315849916 2477.3424247732396,1209.6116547162887 2482.9989097510474,1211.3436629930288 2498.1974363288386,1196.891775250529 2499.123095919938,1196.7335830812585 2501.789100399917,1167.9438331133347 2502.3518361865786,1166.9816658667764 2475.453240346607,1129.063607299678 2476.22656514668,1123.6766910067304 2511.4971665332337,1148.7125813073721 2512.0881556177987,1149.0588128576996 2538.876068435587,1150.6072923815004 2539.988141537738,1150.4139552611518 2557.2890629954413,1137.9129068390243 2559.07251600884,1137.1701820288795 2570.8028774666377,1106.5193828929691 2571.3032812354863,1105.7183173722947 2545.824632062205,1092.699484088203 2543.0295944799213,1091.3595476428522 2537.5123370933356,1071.0896834620285 2534.5608869243656,1068.6007260691617 2495.998630711088,1072.5542337086877 2495.24569488885,1072.5066604318922 2472.3634363999367,1066.5479153463161 2471.1532049333687,1065.9885800290863 2467.148227155419,1054.3378102232014 2467.0515251465617,1053.9478547361573 2481.46420226663,1051.8931292193952 2483.3260072087646,1051.6290060071983 2479.5522986933133,1036.4845242761435 2478.9983010400097,1036.0336156303306 2491.0403225865225,1019.5072230488072 2491.471986373282,1019.0722895769645 2506.0888445421365,1026.376212125389 2507.2344138221592,1026.2757092286843 2513.4157693421944,1009.9767360973997 2513.594318533294,1009.5715812246558 2538.0584704265707,996.146792224004 2538.5373201332764,995.9017272020933 2589.6382151377397,1008.1461951117158 2591.0511712977673,1008.538899910614 2554.2397457331895,968.4335963295084 2553.6164255555263,967.4536563983779 2555.9378563110727,952.4337423798638 2554.1733359199493,950.3473770433698 2537.3078647732978,966.6436346792393 2537.153491084325,966.7406061344441 2508.9214560977193,972.2603468824886 2508.1102660533284,972.3106106294795 2451.2972532888884,940.0691820619172 2451.214532293357,940.0767449679329 2455.7621481510355,923.4435090538823 2456.809559066641,921.7039028112554 2476.385599173234,921.022738678475 2477.9969109599256,921.3217214959218 2481.94421705776,899.715166050802 2482.862594871061,896.103411184718 2519.149149893295,861.0814086823734 2520.3876346577667,859.5255572228702 2512.5728307466266,850.1973390810667 2512.4842843288566,850.1020966527062 2459.190991671035,846.4784032698149 2455.2023250754933,844.5156557806545 2451.8594065332795,855.9932530563451 2450.6427671022025,858.7663190908274 2439.8109770221413,855.1418778550355 2438.680845111004,856.7511655927879 2418.490514231125,848.2711197385574 2415.5236266932693,847.1464455426681 2372.4600667288537,800.163145674836 2371.6447988888026,799.1041101375372 2341.6086306399443,813.8998762855549 2339.8146918666093,813.5927355572708 2332.024354728848,843.023332914257 2329.6848651643154,848.6952632874959 2341.8299966844274,871.4594050306255 2342.667401128892,873.0138373396835 2339.224867866585,888.0698590985044 2338.983695386654,889.9218648549645 2385.435903457786,903.4772551703277 2386.0175718666064,903.7268722986114 2389.4982616443663,923.5542916982445 2389.4612702133377,924.1833936923426 2353.8766785687544,929.0964673300982 2353.4421020711084,929.0866795532415 2360.6070801332603,943.2073209006116 2361.996443333315,944.6753886839501 2337.162668399956,956.4756298800708 2332.831466977695,954.6232926468142 2327.212847244438,973.582324105409 2325.733772542189,978.6259592558267 2265.9378523288538,915.7762362049903 2263.040287315474,912.2261448515123 2224.328317751038,892.1075854409496 2223.8270401687837,891.5709467641204 2213.019134319947,872.5701599526578 2212.19338071996,870.7464896717352 2216.1450558843567,842.4936960679256 2215.998837786588,841.8661415210004 2207.466050586641,834.5022564496389 2205.39249154667,833.216833856633 2199.8484372177404,835.1311672000224 2197.9717774487576,835.3795263658171 2202.277347013332,843.1225840473558 2203.0224185155016,844.5659486213476 2191.285649093195,859.6092245712421 2191.4537125243583,862.5647088009641 2193.3752280444382,874.9140303029922 2192.9753128088555,875.7061433820995 2209.8818531821958,876.6718054821026 2211.038490764425,878.7748872154984 2199.1712318843706,891.9754282759745 2198.9070489866203,892.0346097771321 2190.2734819821558,877.8853296976081 2190.106001093263,878.0673355045506 2194.978384239926,914.5108636563887 2194.9745977155176,914.8089654373248 2181.590107617761,928.9024913079115 2181.2466989777527,931.3298487021598 2201.0647853776823,967.5097039197349 2201.3557652177765,968.2921436256506 2197.321951599886,982.4307383966875 2196.6596010932476,983.0881392328661 2116.9171439199486,939.6478833044889 2115.5152560621277,939.0735454773308 2109.4541955110394,947.5501040533195 2108.922334462149,947.6755550322482 2072.3765481509977,943.306971871039 2071.1575785510718,944.4680803100705 2058.6783590665796,914.9197524144324 2058.3547568621357,914.7804900606639 2006.7254960621717,919.2742149864566 2002.348273804389,919.8268033598792 1998.6342758666501,928.7908215481216" stroke="#009edd" stroke-width="5.8770103595282635px" fill="none" stroke-linejoin="round" vector-effect="non-scaling-stroke"></polygon><polygon points="2222.9392458221187,817.208511548793 2233.2039310488394,825.2780262118099 2234.790193519882,826.4464322282943 2228.5963133420805,841.0365205727644 2228.3021295199646,842.3330244709282 2234.3299851643164,839.4391354042814 2235.5716739110426,837.6503529470424 2258.0915911377883,857.5709365280122 2259.9405801510215,858.6550588871828 2271.439672346554,872.0392589585167 2271.7641483644034,872.2270547620496 2270.1056506577656,882.6156519340943 2269.8982656266085,883.6983163242471 2303.678724008823,888.5539985761638 2303.960383173289,888.4534329264784 2317.1019531644192,838.8948022922045 2317.832461111109,838.476425970533 2226.5676100533233,790.7950231803475 2226.5247931999397,790.52925188162 2222.9392458221187,817.208511548793" stroke="#009edd" stroke-width="6.1657881116513895px" fill="none" stroke-linejoin="round" vector-effect="non-scaling-stroke"></polygon><polygon points="700.4724298221769,88.74705388557732 706.8687434221862,106.24183549729742 707.4405086132243,107.2349882910271 732.8673115288617,108.94798770800799 734.3172591199178,106.5852418037025 743.3335563643847,133.53181226945117 743.5823018932493,134.17567466546416 781.1181187110266,128.86174426580646 781.9849415377026,128.87781886416587 768.8130793510715,165.58244318582683 767.8847983199881,167.3396326058787 790.3187905688316,167.0467686762927 791.2214397421118,167.25614856809943 800.7835790489113,206.09468398334093 802.7053858398937,208.71926551670867 787.8968712799029,216.2562827599245 788.0975570755323,216.62719054675063 810.6894182666216,214.70747935490317 811.0971978221565,214.67087925805345 812.4271417155175,237.02303289747897 812.6214195466379,237.48048724552018 839.811869039993,247.73123213937606 841.8714470666379,246.69274615552376 861.5974917955242,266.72167559303443 862.8581131644092,266.955503772107 907.8961999910895,336.0314924696936 908.1801893244043,336.3892618571185 935.4277279554877,333.77512302259083 936.2293060533481,333.8393616182507 936.8578691110957,318.03074906438223 937.441867688765,317.5391096165181 953.6126572354475,331.5562033687379 954.3251063732674,331.0886838725778 941.6632599022483,298.3906395768058 941.0786787820758,297.0735327221696 959.5711903554399,277.17141095115903 961.7956278309936,275.47801452395606 895.2547424976725,204.96762193981658 894.8586137866147,204.69980436852302 903.4490726666769,196.99678526205344 904.0528776800271,196.55129906585307 875.181211333234,163.0595839599623 873.3013475821132,160.68848959785055 858.5085616621433,121.25475539474382 858.191367422092,120.87029095003481 844.1823920621315,127.17077925973672 843.931898906572,127.18953310183815 832.6492211465735,117.14304973671778 831.6530739466904,117.68604219987856 823.9279815377446,143.59228196016147 823.437189715543,145.0147842091751 810.3361064088309,141.388412242733 807.9089442399342,140.16100441080152 812.1705318665842,128.27859276268964 811.0957414665969,127.45699843762077 787.6577376978017,127.68740237292468 787.0571366665896,127.97540695287853 756.9854333421459,103.26458307830717 756.3530837599898,102.9412672078247 762.14122327997,85.68917612688483 762.9381410398997,83.70937078141242 700.4724298221769,88.74705388557732" stroke="#009edd" stroke-width="5.93680058786714px" fill="none" stroke-linejoin="round" vector-effect="non-scaling-stroke"></polygon><polygon points="812.7752106932236,669.8052717760215 896.4055546576634,688.9264086966646 897.0282922932889,689.2372860724931 903.1647920622269,704.6184883626188 903.0934306400374,706.4444227508861 896.4480802399117,705.771500884824 893.8213973599264,708.3963744335119 889.9375883644458,730.6851644132762 888.4608438310457,733.8423122863528 897.6370489155885,741.5987295893497 897.8237536977755,742.1985169630275 894.2874311377306,746.5016207332733 893.04457730658,747.1770899771723 897.1646071732754,747.2518946178966 898.1581329332909,747.4776441835343 898.0861889688309,772.1973826559038 897.8971540176786,773.6425468110024 878.6304438310686,778.2905152265225 876.0154117955605,780.2738857398285 873.1332841510663,795.2966150450297 872.9090053954639,796.7483054192048 890.5504227821726,815.9154210671909 891.4396734843973,815.922543100874 894.4316103377856,838.7590526151248 894.2035450576583,839.9126996691116 906.8549057688575,850.4394504893348 907.634347262188,851.3865308000018 907.8798888087982,870.9529772534511 907.4878378932841,873.1402207050483 929.039278675547,882.9841055162028 930.2052369332883,883.4727060569926 923.2057008621993,917.5243426792217 923.1256013066519,918.1294361214163 934.9841220533486,900.8622651865949 937.1674903022137,898.7184575400092 977.406303031115,921.7595170336785 978.7910058933554,923.206816631638 1017.0937395465804,883.6062032843251 1021.5222255199693,879.5211515625483 1035.9512138222121,887.1015769578294 1037.4431044533626,888.3212735737684 1051.818498871034,911.4243742446192 1055.8531863020976,914.1375684706504 1052.5347345332625,921.7808728914019 1052.6343492532392,922.9242980886261 1084.9564131821749,915.3041694462659 1086.876763617714,914.6585798130614 1097.8544805244087,922.8215235369057 1099.2726795644044,923.4648647487406 1103.152119493206,910.3961281002044 1098.9342225333453,907.8368378018272 1112.8392141065337,896.4104371192875 1113.016015671055,896.1875096353247 1091.2370921510515,881.4168385598819 1090.8613524177122,881.2139207297364 1102.27073311105,862.3764597432232 1102.428893324431,861.1348130000183 1089.1591640444017,853.9571568729366 1088.9462448621412,852.7666438453375 1125.057163404395,847.8349586808249 1126.1077783021387,847.5777122652285 1130.218196222187,835.6176482426013 1139.9749046311258,819.2578552649134 1214.4511801155527,864.578474137677 1214.6766239554631,864.7386845137003 1219.9873701244137,842.1914909450347 1220.458064240032,841.1887366670194 1232.8574754399956,828.5045922008353 1233.4400176622216,827.7875321572424 1274.0222390311314,852.812929331652 1273.6275666755168,855.1031586748209 1285.0890848977501,844.3224955606051 1287.45129360885,841.8772683902421 1293.655368275569,848.4326771360716 1293.8082856088654,848.5964597214256 1292.2403732177113,824.1109493414183 1291.2264584799773,822.573086909229 1302.9195372354948,815.7680839429154 1307.1735518133278,816.344078062953 1318.220591244382,787.4606163664498 1319.7809305866026,785.802297822876 1268.6153733954775,771.7290156554441 1265.5884840088906,770.542511153129 1243.390421359894,748.6727327110489 1242.3144658754823,747.422431293387 1227.8129510666254,749.1522801996684 1227.0981717599566,749.0222637133916 1205.4648837954514,732.4044574539653 1205.1430292177024,732.1065544911903 1222.7789124533078,728.0712433420481 1223.8050605777894,727.8824342153744 1224.1598287910233,688.5224456068604 1224.1802177688583,682.1221819609414 1233.6019644000112,677.7585832999098 1234.4935452710847,676.6838161913106 1194.7554275821672,640.9226650314299 1192.7255592087527,638.222146857624 1182.6735018932736,652.9013053002195 1181.8285243999921,653.2585608173754 1183.8144108354822,665.4325208402947 1183.6839213777344,665.7995555237644 1170.2158364710408,667.779037875101 1169.6327117066608,667.738504098706 1155.4338275821424,654.3111694071918 1154.7059410755533,653.9646064904296 1155.2261512799664,644.0944620354344 1155.0167273510956,643.3692293270501 1094.765259120009,606.4620710116938 1094.3889368443993,606.2205828220826 1104.6582824088177,596.7074308546503 1105.0791691643894,595.5636506500664 1094.3711693065484,574.1595637901696 1093.792704879866,573.5094102693033 1103.409603155545,558.799118816481 1103.724467226631,558.4684490639261 1132.764779546625,564.3821041391125 1139.509162124457,568.554099067383 1134.524348328799,577.5239328109669 1135.5167090043901,582.457208130952 1161.1404111910156,580.1262704621545 1161.9213090399057,580.1449857930197 1162.597349288851,574.258490340238 1164.7681928799498,573.3703778761333 1152.261593911076,559.0803214098919 1151.548562231102,558.6128386125561 1156.339389466542,552.1094217416608 1156.8287249333002,551.1842301529609 1172.5547434933028,558.3329723644197 1173.214472559957,558.2799403442546 1175.4156083466728,543.8329191334556 1176.1158240977452,541.2577853835314 1187.8875460532504,541.3665316883485 1189.838479955542,541.8246917606807 1187.8356997954902,527.6284181509177 1187.893371475489,525.1034608592522 1196.8802503377442,509.61256040304534 1197.2790004889025,508.4366802144573 1199.083716293309,462.41819900184737 1199.14925229326,462.11903942199524 1175.5341556888084,459.4747364204154 1175.2265733955205,459.3984965614286 1141.6191300533023,426.3507160446966 1141.0322187643974,425.4089435413257 1123.5585735377167,424.52513632909495 1122.3835858754824,425.7326782932864 1124.5014181243964,421.9428115001424 1126.0713694132642,420.78875981548435 1109.2772596888021,409.6849398534755 1109.0759913511351,409.456168524433 1072.3548598310222,431.5816717889752 1072.0880554932878,431.82602675804037 1056.125816062187,427.2866876659459 1053.6872943199483,426.77790129869345 1034.9358427289185,466.91981060241915 1034.0203776266203,469.83107429356414 1037.9015651821169,492.1413127103365 1037.7215596354577,494.4014107299513 1027.915335137724,514.9257846534961 1027.2037598131933,516.4845141528999 998.2904416977905,498.48735950349464 997.029237786635,498.51900904023887 1019.4495402932877,525.1475865747557 1020.3303441332897,526.6246786620245 1004.7924867110338,528.7458083792367 1001.8445317954535,528.6446328717061 1009.5160303199442,571.6605396432346 1009.6651611288322,572.0593693975602 983.0951191021373,604.1808436159404 982.9159873688837,604.4588694675253 995.3535550844168,637.1707979470152 994.0606026222009,638.5923452175116 958.0155113510333,637.9085246562386 953.7533411821129,638.0889465737632 956.9340217155183,632.4387748359363 956.8443102133239,631.5963375562346 924.8726454310596,620.887169047935 923.2249247554934,620.4051150370865 884.2254706044693,646.6087024210497 883.9770163466234,648.881472663466 863.2090948533511,652.0660734979679 861.573025022262,652.5921585378596 856.9365714754455,649.5572408745425 855.2894333421497,648.6979413217409 859.332858906571,637.0335876347158 859.1560573421663,635.7514689680897 841.4406570932839,614.171286556731 842.0925218399858,612.6831968176189 823.4636953866353,615.277545565717 821.9563673865993,615.1394305677163 822.1002553155191,645.5391291758056 822.1800635999313,646.5316363007073 812.7752106932236,669.8052717760215" stroke="#009edd" stroke-width="5.442534307484777px" fill="none" stroke-linejoin="round" vector-effect="non-scaling-stroke"></polygon><polygon points="424.65266861333623,700.7719522496113 435.8610722399095,714.5273410180012 436.61604695986136,715.1583751220965 430.5235291288478,722.0461931701061 430.8048970221786,723.2975290273093 442.39981741327904,722.1463893631949 444.037634871063,722.6718619859089 438.1804640977422,725.1478008921035 438.1003645421948,725.6238370402493 453.9976505154988,738.4007266261392 454.29096052444186,738.8905379390121 444.10957883552294,748.0462470956622 443.93015583113413,749.2858587017759 455.6299338221794,770.0354065322676 456.04936422219146,771.516202184233 481.77093350221514,782.5911344322153 483.2412700709898,783.4752886148412 483.22437634654455,805.006421236299 483.6473019999463,805.4328736803504 505.26893911997433,807.9243544209526 505.7448761155607,808.2951584228208 502.5440978754556,820.3742143390477 502.70779223994,821.3953129494107 513.2453984977689,835.3416938944497 513.8809520621795,837.6895202723458 525.8050088088272,827.815573655163 526.2346336977567,827.8311522636573 559.2292426222481,841.2501571665994 560.7362793510325,842.3049848173755 616.4986772177286,804.927629828198 617.4356963821698,804.0756124654795 641.5704206488805,765.3663384611496 641.3985706933087,764.4571787857926 671.1926926488301,754.3702416319643 672.2374821244517,753.9735223860257 707.2354537510324,704.2662148916638 707.5963386577565,703.5736908149916 726.7567348888621,697.0469342856445 730.5129671377141,696.4314362618384 778.1925916711112,709.6121603874849 778.5668750487745,710.0726431349535 781.6849322932318,689.8688379023583 782.3295152622519,689.2439668135262 810.4762078133423,686.3979527938423 811.6104175199067,686.4549625117575 810.2038693243882,669.9647327877824 809.7701666399149,669.2672013658807 821.4810129332833,649.0797041594992 822.1800635999313,646.5316363007073 796.7369495022355,609.8642639685199 795.1282591555279,607.4115358502381 787.353941928806,618.2991236514422 786.9301424622314,618.4697600466675 764.3668258399481,615.0556704622936 763.602530444368,615.1300743872775 739.2828490221651,627.7534284280623 736.8629686310666,627.1029873799775 739.6026647022005,558.0522144656638 739.8380117598932,557.0829284960414 758.3025613066053,543.0864097625958 758.73043856884,542.8907570378865 751.8608094132284,508.48972422452744 752.0952826577483,507.15203062570754 747.2578520444,520.1118494332545 747.488538764395,522.569560261712 724.7192934666306,513.2168303529975 724.5235592799505,513.0755312433243 719.5393280265631,493.149221218227 718.6497860533196,491.67368795871835 690.1920159555517,492.26122776323564 689.8320048621168,491.98216884039675 697.3896163821697,475.68291007655307 697.5032121154724,475.39313061038365 688.794788435545,463.75928494500795 688.5425476532906,462.6264066962535 694.4221463021601,447.6345041242089 694.6318615021661,446.4177188034878 669.8094461422658,438.7053105935697 668.0743441332376,436.08926392961394 633.9295055910258,461.37671173646913 633.3725952266028,462.399027833751 645.6339439198852,478.0666660910133 648.6419006843131,480.7089628618919 649.8856283288693,502.3806641913029 649.6907679555949,503.48258085663065 640.8102030488441,519.3665969206263 640.5101938043732,519.9585201747027 614.8148389243066,507.42215534541856 614.5663846665772,507.2786237698524 581.7986759376723,599.0676005515629 581.5810964177141,599.8076825435633 522.1935383021843,579.0189438967277 520.9667043821897,578.5639803441368 523.4404699288785,638.1833895927189 523.4806653421616,639.5144972750927 468.98966587553844,652.7734593573036 468.19333065776266,653.0759240293187 424.65266861333623,700.7719522496113" stroke="#009edd" stroke-width="6.06256508082829px" fill="none" stroke-linejoin="round" vector-effect="non-scaling-stroke"></polygon><polygon points="175.01497631110362,1029.401061092714 176.6271619110845,1046.9347634988148 176.7238639199419,1048.6733834681577 215.6108874222042,1032.3013551727413 216.10371814211942,1032.9968508818197 219.3880911910452,1108.1864078219292 219.3589640799688,1109.5978124277094 212.280784808892,1120.98651744685 212.12699366207346,1121.5572708209288 236.23142573328334,1137.1341791469963 239.0386967021983,1136.8501562063825 245.43238886210713,1144.281302902476 246.48766409778148,1145.535581494892 239.86736301330495,1160.4721499596267 240.68933008888382,1161.8534437551639 256.39641602661106,1162.563197858493 257.2542094487941,1162.7343029211402 275.4481681332469,1191.0559200577914 277.0163717954198,1192.3850315233353 279.05526957332734,1176.3991697989181 279.0919697333371,1176.1054204910538 287.56096855991166,1174.2944762693728 287.95243693327177,1174.449129263499 293.2850284355005,1198.6998681523614 293.39454637325946,1198.7980708576283 308.7430775732279,1182.993094609155 309.4893141599383,1182.1345356791057 313.4476885599794,1189.5201664633128 313.66235536881834,1188.9998030878846 310.16884966215696,1171.5373685183945 310.4808010221237,1170.5667730765776 323.51984358215816,1162.6636387684625 323.857426799928,1160.2557109278637 313.45001872882824,1147.0840857112557 313.64487910210266,1146.4231726387293 329.46497823109496,1147.601436595643 330.1954861777846,1146.4013940304062 315.9881551910436,1131.6758965907861 316.5098217510164,1130.6246727781613 337.78775895990077,1129.3458622677495 338.8500247021217,1128.1670564503652 314.5699561510479,1113.3429919627738 313.86391497773695,1112.9620312003894 306.3564020887494,1094.4755319797328 305.6588077776611,1092.2798101102594 333.56694928880427,1010.2751537555373 331.9061214132013,1001.511468721415 352.55753446216806,998.3096682756218 361.6335422843473,993.9291884911722 349.9658041154977,984.5039017760205 349.73249595551863,983.7117341577318 348.82751661327313,948.6720425466551 348.4127465510752,947.7191514550718 326.99441666666064,929.1636470594453 326.50304230207223,927.9308290355616 326.74479732439033,910.6977949253992 327.49190772439,908.4993551219009 337.140554551013,902.2434037935232 337.7560104088403,898.6294654899752 330.11334772440716,872.5149783497686 332.03952358218487,866.6126922481703 322.60699991996046,866.77156607397 322.0792166666139,866.8280841861629 324.287634231128,931.2617798426431 324.5611378043901,932.2645699364725 277.65076027552243,934.450316234062 275.56613293322846,934.5375142941261 279.84286665762886,912.8841996832994 273.3778130755305,909.8622035052172 281.05630210668426,907.5431760300194 281.24300688887126,906.6341568875719 267.9930840444064,902.4298390453691 259.1687344622111,899.7908089236948 241.12798438219,912.9807498215591 237.849728026638,914.2581442193837 230.9550495554937,947.2751793180137 230.8734936443867,947.4655803037817 209.36574352879654,938.2990100695529 208.93320592886414,938.8995977849477 199.05066839999165,961.9609302875829 198.9635783376649,962.2883269269728 203.0605977866577,991.5603396873698 202.85030004438124,995.9257444758327 181.2540035110211,995.3813522971245 179.36219764440432,995.2505912307893 175.01497631110362,1029.401061092714" stroke="#009edd" stroke-width="5.99390412686686px" fill="none" stroke-linejoin="round" vector-effect="non-scaling-stroke"></polygon><polygon points="1146.4763671022151,1299.3351921853387 1205.18846751107,1339.3742655818128 1205.2327407200132,1339.468409147266 1244.3519072977138,1321.4365204168494 1244.4934650576683,1321.3956623345507 1276.7718383199312,1327.3102352799974 1276.9192215021244,1327.3319960686854 1282.3412332355288,1362.005758097082 1282.3313300177465,1362.7499478792083 1274.3842890221636,1370.480315309403 1273.9663149777111,1371.3749957555915 1274.019035048877,1391.645308861312 1275.2199458399332,1392.3143684504098 1385.0078919377188,1417.7571091736677 1385.09614708447,1417.8157060947046 1400.1770001332984,1394.9213285068759 1401.3782021954898,1394.340625487304 1461.7045271021557,1400.8210604272094 1462.210465022224,1401.5544648185964 1472.9828357954752,1387.550549034007 1473.062935351139,1387.394269156131 1544.0891045243256,1426.4315040861034 1544.2886252355306,1426.8021592027285 1562.5784121155516,1417.1529384995588 1562.374231066649,1416.464865552472 1612.5413108889256,1438.9690679065893 1612.7492784622368,1439.0889137328845 1614.4412723466298,1435.322616624158 1614.555450622203,1431.2242265811433 1674.4166155643538,1429.921852140374 1675.9626826222297,1429.3181585915513 1675.922195937695,1398.2341479137317 1675.6233517776486,1395.7253421733399 1714.9161159377322,1382.7861829988901 1715.3926354754726,1382.4771682937057 1715.8301246843544,1366.8598196051676 1715.8496398487837,1366.2737146516806 1731.877997822106,1355.3976337080599 1732.4605400444484,1355.454915032758 1732.8948252710757,1343.5081073023389 1736.1023027465922,1343.4108569990854 1713.583259333252,1310.4050081006494 1713.4087879376962,1309.5509411712187 1696.4649648621921,1313.4064298262597 1695.2422087377413,1313.241215011199 1651.7612572710273,1280.3143692068766 1651.0071563643646,1279.3771217380195 1653.5819929865897,1261.267920896505 1654.7380480266652,1259.784186217737 1671.301179759997,1254.4288873325927 1671.7966319198963,1253.2765148881367 1666.5202557421067,1235.5756923760996 1666.5458876000262,1233.6221753881323 1674.8412888444504,1221.7260970921266 1675.0582858221383,1220.653530309653 1649.2225382665415,1186.3326438171566 1649.2892393510333,1185.0639321321864 1607.6217418220835,1209.863592115325 1605.611097342196,1212.6068918696615 1575.5996871377351,1208.7523105277573 1575.1980242754576,1208.1377929601363 1591.336191457674,1191.7997968680934 1591.517944631028,1189.290424628743 1589.5879822488419,1199.3428506835257 1589.9162447910999,1200.4621779382355 1597.9529972888772,1203.3437863288923 1600.1357829954718,1203.446430437361 1649.838867937658,1181.804354001571 1651.1417236177726,1181.2390889346493 1645.4264018755416,1165.0133208345865 1645.2236771820822,1164.3884598377404 1656.2608133954704,1144.0461804318834 1656.2468323821445,1143.737276238658 1701.8223144088183,1127.1207054441106 1702.5653470132743,1127.1664889605377 1722.310324364436,1105.1790857273513 1723.699687564374,1101.3839779665936 1724.0186294311202,1071.8108445115863 1724.1112536443175,1067.847541937815 1731.7271193866395,1059.1510581440302 1732.2715050932961,1059.024336563983 1639.0493121688264,1006.5344525862961 1637.6992705687658,1005.9322698273822 1650.86559860441,1027.5097571168803 1651.4061977865417,1028.8491915614354 1649.4415741421758,1031.0717809931734 1645.730780186575,1034.380720739929 1652.887602657756,1051.4591488250076 1653.0821717598951,1053.2244121174804 1624.0045767377374,1081.1843901290335 1622.1555877243877,1081.747688292096 1553.6448358666162,1059.2595495443452 1553.3818180532903,1059.2840045657135 1553.567066480034,1011.7094207778932 1553.8050349777109,1011.5092910548915 1546.188295422216,1000.859459781997 1545.8687710133158,1000.6228503319794 1528.8110609332575,1013.0351644295511 1527.7595722222245,1015.7270977835647 1511.0164349422334,1008.5900448783427 1509.8070772888382,1008.950727749128 1509.629693182163,1021.3892565838537 1509.4828925421239,1022.7509636641257 1493.0965623731968,1034.2059587329636 1491.692344346527,1035.2340731844083 1487.3270642043567,1056.135064812122 1485.4949689154523,1058.8989488236616 1439.2186885954357,1078.951189984196 1438.8560560621331,1079.4891518683648 1443.1662859644052,1114.2160430873405 1443.1697812176785,1117.4054953391674 1460.2394334132327,1117.0636593845916 1460.7750809865315,1117.0996655373378 1455.5418129332606,1135.3602521075295 1455.3888955999641,1135.816291839677 1472.441071528919,1144.2941924067923 1473.3518762932868,1144.8728859323087 1475.321451546602,1165.9554976596623 1474.4811343911347,1168.0753808270451 1463.4684649510086,1165.3710818474424 1462.280370088854,1164.9662118879273 1446.316091759923,1179.8983561813725 1445.7766576620993,1180.8138060089327 1429.847623137735,1169.5219560937617 1428.2791282044268,1168.0464936668645 1402.296288737772,1224.1244690996605 1401.6053936620951,1224.6527472462399 1352.7021391910744,1242.20250469572 1350.3923592798888,1243.4491193483477 1342.5874585866472,1211.4178662254485 1342.8551367377872,1211.1268294523247 1332.9667737865598,1207.2353421548391 1332.8729844888217,1207.108705483995 1288.420643866622,1233.683486850095 1286.9706962755658,1234.0131467381502 1219.1939476177572,1226.1091711224067 1219.366380115483,1225.1201546123261 1185.5037832798912,1257.5976584561645 1185.440577448789,1257.6438591851397 1170.4450668354762,1256.4888380625994 1169.9120407021614,1257.0085983146923 1146.4763671022151,1299.3351921853387" stroke="#009edd" stroke-width="5.725448776169974px" fill="none" stroke-linejoin="round" vector-effect="non-scaling-stroke"></polygon><polygon points="1204.503397857748,356.9524417483258 1214.5927378755073,372.94113134590543 1215.188969839924,373.14184121668904 1250.2393702666518,369.23510223653966 1250.8886135732532,369.86712532919 1260.9380494488646,433.4499994325229 1258.8315767732925,436.9355697932547 1268.5582842577492,450.2887582133767 1271.4794422309856,452.1604941900946 1268.5189626577553,460.8595330125313 1268.7112015910457,461.7779702553303 1286.6607838131963,473.48860131708307 1287.181867831015,474.9597981442125 1293.3075905687651,465.4695143574859 1293.453517395515,463.48999839570706 1282.609785199958,456.7033337260141 1279.434638817656,453.8422786574588 1292.9828232798968,448.2087852257314 1293.2073933066345,447.685333412584 1265.6167373066778,425.6359146500249 1265.0819635465518,425.5391509642136 1263.0716103377995,389.59675263145573 1262.2449829244065,385.72910703716434 1247.02956262217,360.9642194172843 1248.226978159953,359.3218705224349 1274.5240991555397,397.65472424551945 1274.9193540533083,398.17561906841684 1268.1044838665762,402.52156427372347 1268.2786639911133,403.8309056191133 1301.8281443821975,414.6701336859037 1303.6101410400365,414.9131695937608 1365.0657240444339,394.6216469720598 1367.035008026614,395.01722933355586 1376.0513052710808,376.9303172416762 1375.916446746654,375.16855464629 1406.3854438665799,363.72567525841396 1410.812764755428,363.5668846795811 1409.8929305866836,347.36607592492464 1413.710621039943,344.7690183274458 1382.098967350997,352.67206117578417 1381.8837180000041,352.6863351966963 1368.7086518311185,338.0447183799474 1367.293948044396,335.84859268318496 1376.5572431910327,329.94843178088877 1378.8591587821497,330.787561534416 1375.591388186534,321.7862671974358 1375.0604009510494,318.7673139155736 1357.812782106666,299.0581134859599 1356.5157518489063,297.68925438632823 1295.1650264443374,276.9657052550242 1294.6855941954777,276.64041320895876 1289.4555301244613,288.9511997783334 1288.4541400443773,291.20178170255485 1261.2733024976692,295.16612316590135 1260.4245384799792,295.36958097204433 1253.3122804888767,324.8725431605485 1260.2829807199082,324.9153706234424 1250.6046242399384,338.44040231986537 1252.2270043288368,346.3561622827906 1204.503397857748,356.9524417483258" stroke="#009edd" stroke-width="4.996261861334511px" fill="none" stroke-linejoin="round" vector-effect="non-scaling-stroke"></polygon><polygon points="8.052549999999997,1060.7904286628832 26.006792559964765,1094.155444303156 29.341846782109883,1095.1188178936495 53.894545093272995,1089.8186551403264 56.068883937644955,1088.618298656867 65.70587992002368,1071.8730901145386 67.01980390222855,1070.8642645744617 133.1476667999301,1074.880421061745 133.92477812441177,1075.2329928097092 189.71076895108092,1156.6517698979364 192.31589776880685,1159.1464020082271 200.26060859554093,1177.647044502642 200.03487348437886,1178.3883000713317 172.37227351996228,1180.6604906468197 169.8370497687498,1180.6036083985596 174.1571828889206,1196.1923517129394 174.73011316438317,1197.2619267097684 166.8742400266707,1230.524591562316 166.62782466665487,1231.0777347153412 153.4204274043219,1233.3969222621304 151.4939602755254,1235.4819488349963 137.44682839999552,1263.8604345910494 135.63861734219938,1264.892811633857 101.45241830216366,1267.6656352273199 101.25056742210984,1268.591826963449 109.78772368885222,1283.4832134438689 110.1821047732152,1283.8998593350184 154.58755074660405,1271.0270041773106 156.47615263108275,1271.4112462159023 160.19830615990907,1293.3243750396427 160.05645712881926,1294.469432096324 186.89534239107854,1315.545328757587 187.19360400885455,1315.98278788766 185.39587871099468,1330.9899986085725 183.55708418667894,1338.4639129981874 165.05758210665192,1368.4698241561196 163.1867477599077,1371.9841756055607 162.8817869066039,1396.221689294303 163.16402861322388,1398.8889810399628 195.25453200875893,1387.6686468230105 195.75377069318313,1386.7806919762875 245.89754882662203,1387.4191318712906 247.0506911555782,1387.305917698926 254.37062544885669,1375.5077952190545 254.70442214221805,1375.5242232536907 254.56373819555267,1398.3695542445998 254.62548767109513,1398.8405900481516 244.3838128621934,1403.3173778935811 242.22957172440476,1410.5797567615296 248.21286288879458,1411.2310018971107 248.58102957331687,1411.3557459749059 244.24778925334215,1434.6004212702169 244.3811914220929,1434.9661799985693 283.69463583103027,1426.170935386886 286.4736535021581,1425.4962075155704 329.1236084888002,1439.7715898308447 331.7272809510829,1441.726837085363 307.4093471555749,1458.1821877524267 307.0889489332691,1458.5780882120375 289.563166177693,1522.2986179406066 288.5017742488777,1525.641920130794 257.8801510665577,1554.8349878032236 257.45780795554276,1556.7160181358117 283.57404959106464,1588.3965545051974 284.20756425776165,1589.011346976949 311.1690746577002,1598.2343597475915 312.7043646843882,1597.7100781709664 358.4843190311,1651.9586518622014 359.4274548887985,1653.0588397518509 371.9448308888601,1651.60832889533 375.591253928818,1648.675793500653 388.9160334488621,1620.1767806613711 388.45582509329654,1617.9330515444522 455.57925264884364,1609.52518506375 458.8639169687882,1613.965777656274 450.68444162663184,1626.0159579838287 450.4045300888607,1628.5336842314932 434.531710888819,1627.1136138682264 430.4670225332735,1628.9989082994648 452.91324816886447,1648.8021775753364 453.1576246310502,1648.9205794324876 449.1529381243523,1663.1913086584314 448.8613757422205,1667.5709635603484 381.6962964177143,1663.4050388932005 380.6809253244206,1662.8973183923877 375.26910807993374,1705.234546914558 375.0069640800135,1707.5208380507315 363.1461131643515,1710.969958588575 362.63318473773654,1710.7948438664675 356.5715416443778,1727.2129091993916 355.93919206210523,1731.4117663246357 385.34592343992665,1755.651605286031 386.03885741331726,1755.9171051491062 424.67247504878435,1762.4272926584013 425.64066022213194,1762.566908553686 429.2518394577561,1758.496736659646 432.0398865332605,1757.9320570049817 426.8395321154745,1751.4651755388836 427.07487917328365,1751.0263604260176 451.28912045327127,1746.4347064894168 451.37824941331166,1746.3296545031258 470.9435124888329,1760.6973779286268 476.2187235821981,1763.507429846191 475.0449010043882,1781.8281827360402 475.0122786399221,1782.1592427064675 462.8709336444514,1782.5173364680736 462.34868454209175,1783.2313063360994 471.22284148433357,1798.5130777281952 471.5225594576692,1799.0164989369582 447.1845279554615,1807.5323865700989 446.74266968001723,1808.5112694598279 465.2858624266006,1815.9442571152827 466.01782672884985,1816.955007181306 460.3904688621184,1846.9674405200417 460.61969922655373,1847.868614640472 510.72648592884764,1876.9306217323533 513.6476439022005,1876.8433514853018 504.9028113332821,1881.9430657773987 498.42581563557144,1885.0279992542705 501.4200826576922,1907.482840915945 500.964825911076,1909.7209801260974 488.7020208621176,1925.655718219968 485.4415320444165,1939.0056102134763 562.1040884888276,2044.8670189744803 566.6846179821074,2047.3326238954683 672.769925715496,2084.3408466644246 673.0440118310286,2084.4169706876633 720.7189760266116,2054.517249067059 721.0451996710395,2054.326470643667 742.169054462203,2142.0813738466018 742.2584746932622,2142.566758891196 715.5940608266752,2178.043891041401 715.4737658577284,2178.2027106375676 776.4519555109797,2237.7272736134832 779.1275719377223,2238.257561330894 775.6693100355111,2249.1301702520354 776.1557327910338,2249.6215125494414 798.2635013955656,2254.1125341368383 801.0361111021845,2255.4657931217002 771.7528786755644,2302.9272343914267 770.7101280977728,2305.155636661431 769.6411631199077,2329.9340499306923 769.5546555999678,2330.283302100935 822.2764743376534,2362.512489970402 828.6684188711002,2363.756791889063 817.3819545865769,2401.9147951905975 815.2786858932592,2405.6452494215696 798.7242922932852,2408.9297296508225 798.5070040443458,2408.914703883092 810.2225106755283,2420.375091629546 813.1561933066474,2422.521887478513 846.1802206133503,2410.7257434893177 846.6911101421352,2409.959876176879 884.8007310487807,2425.5842836538573 887.9683043821493,2424.469806127577 910.5199701599555,2446.9407810066255 911.8810800622228,2447.7237531304486 946.9099264265748,2446.206852596813 947.3005209865292,2445.7252245670893 957.4428723465895,2461.7292968674806 957.5887991733395,2461.9135395654953 1015.14251437327,2414.420253808937 1015.4390283643512,2414.1489126798474 1030.3646339110342,2386.410265257909 1030.5239592088396,2385.903314558534 1023.2331520266376,2381.4131923718155 1022.4039031732606,2380.7939647300877 1028.4439922043598,2368.819680556982 1028.5121496444112,2368.776805173234 1013.6756730577687,2353.6536542534373 1013.3034285777027,2353.338918390196 951.3232663020968,2323.267206877215 950.6751880800363,2322.899375221437 957.0875215910852,2308.77630047137 957.1379114932857,2308.687431545615 950.0556544265488,2298.344348647435 950.0154590132657,2298.317819366093 962.0085470132541,2278.915221835639 962.1288419820845,2278.8860370696416 956.1289483643847,2270.98611034148 956.1615707288507,2270.6345537461816 970.9473661421576,2256.9999188930738 971.3219407910725,2256.6297661397616 964.4019217332603,2216.2077562819245 964.6133845599612,2215.04003251982 998.1544180888228,2170.9725433657654 998.2036429065989,2170.9092789146594 993.9700173066009,2113.6679044056577 994.1386632799182,2113.24883467632 1004.901713377774,2095.6954295303217 1004.9756962399475,2089.6468940351983 1034.8461312266077,2089.2273363187337 1041.2753584622183,2089.1131527521425 1041.0315645421865,2073.1844113433394 1041.0670996176555,2073.071104720096 1021.3885320799669,2042.9356830708343 1021.4945547643362,2041.6001608689326 1008.9241674220899,2041.83034756987 1008.7607643288571,2041.8206089066584 1007.6684976621542,1953.482621877432 1007.5275224443536,1946.2774486051417 1038.3769196354328,1945.8833051391189 1039.2320916177482,1945.8717908250178 1038.2103125599456,1876.419403654268 1038.185263244413,1874.0684055002416 1049.255313093286,1873.9053807723462 1054.0560435466246,1873.8008322424498 1049.2424971643845,1853.3438110341444 1049.225312168804,1853.2277336672773 1061.6497726844168,1845.9590427125581 1061.7502612176827,1845.9178383108588 1065.7258206133042,1817.560302907928 1065.7386365422058,1816.0975759228236 1057.2914830489094,1764.7683958095508 1057.2737155110585,1763.635521268217 1049.4172598310756,1752.5608797813543 1045.3948057866432,1747.658093038924 1042.3411194577125,1725.6675749683995 1042.388305377775,1725.5908842624408 1026.298489199929,1711.9656715648957 1025.2472917599148,1709.7379459953877 1025.9128462488075,1701.5002649446028 1026.4283961154065,1695.272035856709 1041.7932384976662,1682.725931601693 1047.0917512799856,1674.7750124847294 1038.39060937774,1654.0734378433913 1041.6347870132663,1649.9236667817236 1030.0719064443615,1639.9435878158324 1029.8167529509878,1639.2916851953846 1019.1786581598932,1591.4673948092163 1017.8746373954706,1586.5109141273201 1017.7141470132407,1524.7691611808036 1017.011601093203,1519.162922842755 1023.4504402754607,1482.468392879156 1023.4935483999794,1477.2889027623237 1030.2813303733487,1487.1356437676363 1030.897951315484,1487.6473179406962 1040.4679549422358,1453.0722564466773 1041.2639988888764,1450.0194677657341 1076.7909188533445,1426.777744812985 1080.0074257332376,1426.1616135026338 1073.1077956532604,1422.3800034012888 1071.9730034044255,1420.4481123629735 1088.7347820354403,1375.3372987886319 1088.6573039199934,1373.9595584866834 1058.5905522043827,1347.952711351019 1058.504335955578,1347.61434020158 1071.8614465688365,1325.7887511545919 1072.181262248872,1325.1554624982887 1093.6980417688387,1338.7974133309685 1095.1759513865468,1339.45597509374 1149.181401911053,1299.741148524197 1149.6322895909902,1299.5781442632792 1168.6042334133303,1320.840080488218 1168.7679277776983,1321.3881124707182 1205.18846751107,1339.3742655818128 1205.2327407200132,1339.468409147266 1244.3519072977138,1321.4365204168494 1244.4934650576683,1321.3956623345507 1276.7718383199312,1327.3102352799974 1276.9192215021244,1327.3319960686854 1282.3412332355288,1362.005758097082 1282.3313300177465,1362.7499478792083 1274.3842890221636,1370.480315309403 1273.9663149777111,1371.3749957555915 1274.019035048877,1391.645308861312 1275.2199458399332,1392.3143684504098 1385.0078919377188,1417.7571091736677 1385.09614708447,1417.8157060947046 1400.1770001332984,1394.9213285068759 1401.3782021954898,1394.340625487304 1461.7045271021557,1400.8210604272094 1462.210465022224,1401.5544648185964 1472.9828357954752,1387.550549034007 1473.062935351139,1387.394269156131 1483.9253088977198,1399.7480303701373 1484.8139770577905,1400.935599529977 1541.4554311377938,1420.226600800153 1541.526501288848,1420.2621136908779 1547.090653324361,1432.7219033178767 1548.4057423909903,1435.2520395545648 1545.1545742489175,1457.7205988777346 1545.1723417865355,1457.8142482369217 1533.8675274221237,1459.0321301314757 1531.9026125066225,1459.2256413602513 1527.0013935199017,1473.89338849343 1526.421181466641,1475.0517125112015 1555.759172862257,1488.46563913636 1558.3235237244294,1489.4157577244691 1561.413327670983,1497.9422348422008 1561.5394480621685,1499.0684827227155 1551.3402988355151,1513.5676355252285 1550.814263208747,1514.304659655761 1568.5346150665787,1523.9638416576558 1568.6313170755525,1523.9962319760593 1580.839363155515,1557.589981976525 1580.8871316177315,1557.9972390742982 1560.587282799977,1579.1513956427584 1559.4632675822136,1579.814565229964 1557.353008382233,1596.771513464489 1557.4261174310009,1598.7302526845374 1539.1418647021997,1628.8933570715376 1538.933897128772,1629.4796535921992 1549.5052908354915,1634.1602132359762 1549.8510296444651,1634.2511270490718 1553.1421019288023,1649.0859871642674 1553.0940421954506,1649.203058513674 1581.2299577154695,1643.2460881172224 1582.0327008976378,1643.2292364883829 1601.7182589422223,1622.6395787036522 1601.9378773598942,1622.577931473184 1638.629299226544,1642.8310055178367 1640.6079038843523,1642.1325474636174 1696.9545915999693,1579.682375062875 1696.7512843643558,1578.9571021030201 1739.4545419644342,1567.9406454749183 1740.0956296799482,1567.3550731141363 1780.7730967021557,1578.777446965723 1781.0844655199685,1578.8972170734555 1803.7709898222015,1570.2607389124237 1804.0462410221585,1570.157377714851 1847.5041820710535,1596.2028726084168 1848.3683834577455,1596.1709364171616 1849.359870319931,1579.639790294204 1849.2727802577206,1578.677638493165 1869.5178701065956,1577.087794352708 1870.0832273332412,1575.6514242270273 1862.069776524418,1550.55647151915 1859.284059617646,1550.0595833032635 1862.4347392265695,1540.4192874164214 1863.159421751137,1538.5292450468764 1874.4601583200051,1537.770117850719 1878.27464479101,1539.6477439017976 1905.9133605243183,1482.0805233451315 1906.0933660709775,1481.4263802792188 1890.4564764711317,1454.3758260971877 1889.6176156711076,1453.3443334160615 1897.4464005954574,1414.1214062076538 1898.6301263910495,1414.1897704046346 1930.3716869955892,1423.3787915527132 1930.9982111555069,1423.9492085398883 1941.2681392621957,1437.7160093222988 1941.742619902106,1438.956195573242 1937.1457792266515,1456.1028110343973 1934.030052151043,1460.0862316779453 1973.044652399934,1484.3367251560335 1976.747290764331,1488.4931531370162 1994.1318070310876,1476.9600491965316 1995.3921371288375,1475.9100222576885 2021.9767427111287,1495.4137031491623 2023.464555546619,1496.4259180595177 2053.76024635553,1458.4196393464003 2054.0363713688926,1457.8324455012112 2154.281110782154,1471.8088337830045 2155.2399752798733,1470.8937005150142 2216.245544417739,1511.5690941593853 2219.4763235822097,1512.3331922575376 2229.7809129510783,1542.2813626650382 2230.5650147821066,1543.077742219531 2259.917861004454,1552.0276090149778 2261.331982248906,1552.7321189236604 2287.122291511019,1582.9267780259029 2288.6275806133413,1584.2140573513238 2323.3893313688236,1605.0565603160426 2323.5381709065764,1605.2220008359068 2396.734601128824,1612.818825300295 2398.5535892176918,1613.2530357275168 2413.742503848836,1632.480740127306 2414.233878213308,1633.257725309733 2449.70953446217,1605.1678889367972 2450.9273389777877,1604.2923388295817 2476.180835582177,1634.460893899704 2475.8283975376758,1636.754568350712 2548.25703711107,1674.218100464997 2548.5657844888988,1674.551981804288 2559.6515629777928,1743.5681434843932 2560.3858574487745,1747.2108485226995 2577.5801736799544,1768.1705303645936 2577.93523316444,1768.5251010465213 2665.0418978399607,1799.3519647231801 2666.2783437066023,1799.7211094462323 2686.9498544621524,1754.8954386558976 2690.3894750132235,1755.6990318291714 2687.1688903377867,1728.4625562727228 2687.1487926309705,1728.1447148162183 2711.0411793333255,1734.8817921150835 2711.5677975021313,1735.18366582899 2726.3352428355497,1712.2139341205252 2726.478256951064,1711.780804445188 2745.6808874932826,1711.3986565766168 2745.8422516888018,1711.2226555382144 2712.7911361688525,1704.1749624447907 2711.895477502119,1703.5298991227532 2742.704679279915,1692.4380626754496 2744.3290982666435,1692.6495478468491 2751.817969804491,1669.3087007649951 2751.902438426601,1668.0361055782773 2739.0302942133053,1649.5134746706822 2739.0515570044295,1647.9862229799396 2772.08228354666,1662.9638320614827 2774.7019759199825,1663.339412204084 2773.9172915465674,1645.1689392335024 2773.9816624622104,1643.5015231760694 2795.6898071021783,1627.2484366802742 2796.152928168863,1626.3924878279572 2756.9504580532443,1585.5793991894238 2756.7972494488126,1585.0240369890594 2758.410017591064,1576.0577608846138 2758.9526556710257,1575.6691682014275 2775.302868222097,1573.2213734872416 2775.8603611287904,1572.3802982298434 2770.687094924367,1562.7374258626146 2770.2097015733375,1562.1904352283814 2776.6071802577712,1543.0298264276712 2776.6109667821797,1542.5071886906294 2686.3492534310567,1506.6551969862553 2685.6516591199684,1506.4186846436128 2611.754430604378,1497.099542074931 2610.9962519021715,1496.46186247588 2606.43756774217,1489.404663416069 2603.429610977742,1486.176196030668 2614.483058373305,1442.5706285746196 2614.2611097865515,1440.5306095464398 2626.929655493331,1429.707896232932 2627.6461824265784,1429.6235567104663 2625.3669859821453,1413.2894921441107 2624.6731781954654,1412.521944322601 2568.0678417332015,1397.3409080074412 2566.894019155508,1396.9000581552168 2551.951811155515,1422.073707464478 2552.0211336798743,1424.129877270992 2539.6094890932795,1422.5198340140992 2535.6767465510416,1421.953852417158 2530.187451191108,1437.9601410237733 2528.5047779822266,1438.533183649975 2506.6751732888874,1407.9973977631666 2505.661258551037,1404.3881709162156 2523.5933645065884,1390.7236282356675 2523.898325359892,1390.464349371126 2519.014000097733,1371.1809636287867 2518.8357421777687,1368.6421019409677 2554.1287714399873,1357.0934210611517 2555.0337507821164,1356.5872172429004 2568.4045511377985,1318.3499375055321 2569.6223556533,1313.1768167300393 2595.240523688822,1319.8066323643793 2595.7467528799093,1320.4190630991138 2591.747309253296,1296.9904910407272 2591.593518106594,1295.8525536184675 2613.663421466575,1296.1536945367475 2615.4719237955064,1296.1488087728862 2639.089059297788,1279.1887833784926 2640.9718357599118,1277.5994499821459 2624.572689662083,1268.6233662779919 2623.3076992266356,1268.2657723777006 2637.1634659821643,1260.717074453692 2637.0006454310856,1256.6052289261493 2621.32297787557,1231.086620537833 2615.1069610932386,1226.194032620267 2674.592677573302,1201.4006488215305 2676.065635582177,1201.878325415811 2685.435244684318,1171.6382497597147 2686.4334307821478,1168.787781442959 2672.3804734843793,1163.2773939567628 2668.3495725777243,1162.0801031092192 2671.8858951377692,1137.4266468327037 2663.4544702843773,1124.951533791645 2660.811476222217,1124.6079314918966 2701.3392298932663,1118.5679114354784 2703.4931797599197,1118.9466399476873 2707.2092165954887,1096.1493162344918 2708.085068826658,1093.4645868204893 2696.961716364465,1074.378016463575 2693.2046103020907,1071.5872048078813 2696.131302426547,1055.8700573851597 2697.7769842043995,1047.8858925894378 2750.4053049154822,1075.0186932771244 2750.943573928765,1075.5308777068053 2762.8877283821125,1060.9660589027694 2763.268128453266,1060.6036824318358 2803.049645537721,1070.1262050686414 2804.6094023377877,1069.70204204406 2827.17155387553,1050.7388106323556 2827.5289435288646,1050.6649980675206 2822.074600702246,1032.6762294107825 2822.2962580176313,1029.494002723462 2808.2610682577138,1019.1083117068988 2804.7725141598853,1015.0199848149564 2845.577849199973,1002.0954287090931 2846.2227234398956,1000.4124811907309 2793.6820753332936,961.9195608406803 2781.667433271046,953.7278128070534 2802.2119498221214,932.70590290879 2805.4310781422314,926.304263939011 2770.556022924349,918.3590152581232 2769.3653066220936,917.6119923466244 2763.306576239854,922.9625604636744 2759.812487991039,921.2536495507006 2760.6111533776634,936.483445715719 2760.3265815021946,937.024424060924 2735.973112630985,909.5409582517236 2733.6583811109663,905.7700735474714 2687.850464737719,880.6523357624897 2687.466278142157,880.3759927145215 2717.0436943910095,863.9211653502202 2718.0806195465625,863.2967869438357 2736.9045976443226,863.0337731306568 2739.3943831021675,863.5041715570037 2744.368128595502,872.6671727373973 2746.8363599910876,872.2933617730519 2745.672731902079,850.8364414149905 2745.77758950214,848.7678082199777 2739.535940862122,842.6241025690465 2737.3653885421586,838.4007620829866 2738.7212555643414,819.2226907525687 2739.2146688266434,817.4475432797694 2710.7102953510835,812.0347687579701 2710.061343315501,812.0699344156669 2695.3224425510048,833.2337473603907 2694.5135826754627,832.637323023147 2703.8179470489044,810.9450757286754 2704.55835821326,810.3761897300496 2675.8034915821404,788.5762459370085 2672.4492134665848,787.4396926932745 2667.2150715999082,794.6693714473872 2666.1784377154904,794.8550072471621 2649.6613268177966,788.1128107148465 2648.3316741954545,788.472518445436 2642.9877231200003,806.8488857488624 2642.9874318487487,807.7373941838518 2657.130100648828,826.6356021443858 2657.1883548709807,827.1203214953198 2647.7071889332506,835.8566600362897 2647.1456182310135,836.2354286616096 2620.8677211288373,814.971749565309 2620.386832524418,814.5991762622502 2588.9091635466098,807.0772452222659 2588.0676813066016,806.8012551856004 2577.537065555552,812.4469633297772 2574.264052079968,815.6300944018653 2552.3913392622267,857.5424537668946 2550.7969211999803,860.4850595907551 2540.999143564353,861.5807385481671 2539.962509679935,861.6319175703461 2499.952927315469,846.9110064913762 2498.6742471377142,846.6653306918229 2459.190991671035,846.4784032698149 2455.2023250754933,844.5156557806545 2451.8594065332795,855.9932530563451 2450.6427671022025,858.7663190908274 2439.8109770221413,855.1418778550355 2438.680845111004,856.7511655927879 2418.490514231125,848.2711197385574 2415.5236266932693,847.1464455426681 2372.4600667288537,800.163145674836 2371.6447988888026,799.1041101375372 2341.6086306399443,813.8998762855549 2339.8146918666093,813.5927355572708 2321.3856773954826,866.5797604043978 2320.899837182114,867.5890746805594 2314.564107973339,862.9523322416712 2314.272545591091,862.8005761881136 2316.4952354399497,834.16576843334 2316.162021288859,833.9263097176804 2282.5548692176594,822.3536457521618 2281.8435851643803,821.9334576133765 2267.3146908710255,804.9200622903659 2267.150705235406,804.6761203428391 2203.035234444403,786.3374129805375 2201.1842065332235,785.4853238396822 2191.3558454310764,777.2104500717028 2190.884568773304,776.353428410926 2193.5071738576294,760.4224592580936 2193.3851312622205,759.856114439353 2172.1511759910277,722.8686912393091 2171.5517400443564,721.4200772622494 2155.5641600265876,731.3010121785114 2154.4867481866163,732.2303468025998 2135.4868423377407,721.0326504548789 2130.1993978577443,721.2624347124142 2136.1419110665806,700.9768175056447 2136.6073623021143,700.2036728479211 2125.3823562221146,696.3147497569803 2121.001056168788,693.871890243237 2118.102034799965,697.9911102609253 2117.654642373301,699.2327845899631 2127.5808705688464,708.2405039549117 2127.3551354576844,709.9866923662844 2116.99986491548,709.4852379912986 2116.042748044339,710.3398473832999 2087.1428283999917,650.5158748905301 2086.18658534214,648.2849952446772 2068.7519704444344,648.4662996046022 2068.5702172710803,648.5322284257632 2088.5531631199187,622.7512201145651 2089.2793019999294,622.4099538172954 2082.20927831994,614.5130111361864 2081.8982007732625,613.9770334959971 2084.5190582310092,593.321966825089 2084.963246675535,590.8614798339909 2100.4603261422376,570.6935416015108 2100.704411333288,570.5522793206396 2108.2704697154472,534.9290145992777 2108.3636764710313,533.7144937963817 2101.1212202931997,529.9527795751123 2099.5492301066183,529.7263615529296 2103.1979833155415,512.9770229775818 2103.227401697753,512.4439186585146 2092.2246354755257,503.35866008260155 2091.312665626617,503.36846676507366 2084.353033697676,480.22303585100553 2083.506599848835,479.8035328635956 2093.3125330755497,441.85415667188454 2093.3454467110346,440.35063509914426 2092.9935912088035,429.1541599004772 2092.6647461243915,427.73170755714045 2082.626087279968,420.7678013248146 2081.000503208815,419.0264559390266 2000.983086106578,419.5276794268643 1998.2795076532998,417.5406159120971 1998.7720471020798,434.7881403573333 1998.662237893302,435.01777718679614 1983.985960417754,441.6927470774749 1982.1844485954857,442.0681802611575 1950.77056799105,425.9186248985711 1948.9437155821138,425.3059369296311 1917.4622600800135,426.6080083062184 1916.261640559976,425.91505757914956 1901.1845740354397,454.37641642647895 1900.6017405421949,454.93819598897926 1875.9995261421204,453.4682031053594 1875.6269903910356,453.31884022252734 1861.3748036533138,437.2169278722499 1859.7594140710785,435.1791916694269 1841.2293285244155,452.46189659197216 1840.5844542843765,453.0990313779107 1840.1050220355169,465.3179304303262 1839.5146154932222,466.1369282321316 1823.89432834657,471.94918394307706 1823.7947136265934,471.95720873572964 1832.3790558132819,452.2808768555765 1833.3422893777965,450.928128602543 1826.1173094665642,440.8085592739876 1826.0733275288726,440.2833063428184 1834.69320479103,424.6129821087011 1836.4580164532886,422.2665513432944 1793.4186319911164,396.01264877487074 1791.3325482932628,394.9284798013755 1790.8697184977132,402.61878402790853 1789.7069642222264,403.02862279533974 1753.750710639964,394.48740747493093 1753.597210764397,394.9659419197483 1719.6463587821704,377.5681164301709 1716.9287993154499,376.0476536412384 1687.3100225687735,383.8055167888883 1685.5658911554851,385.0337977768281 1663.5067648265754,345.53850354461565 1662.6676127555324,344.1079280121262 1644.5086066043946,338.36813540748653 1644.088011119958,338.2004047048754 1642.0715412177155,359.66042198884634 1641.5050189066455,361.9499797142121 1573.3784536443195,427.60417689858104 1571.363440097753,429.3102277804642 1525.6466915821434,407.1225090225703 1524.956087777718,406.4223617578168 1492.6762581598955,406.5227014706247 1492.1184739821833,406.5592697100142 1495.3230387465806,398.6447801324316 1496.4429761688002,397.87012867510884 1479.2914767910038,351.72551310316294 1479.1129275999042,351.12912328038465 1484.742033093214,343.859461031308 1485.54040720882,342.82856541241154 1475.2139725065567,334.71728721479985 1472.6003968266082,334.64189638369817 1465.7502828354259,317.19960115405365 1465.5303731466188,316.57679583397794 1469.848467368843,310.9509459365868 1469.836233982212,308.66175050862466 1447.9341027822588,289.07301021318517 1446.7465904621417,287.6144039130081 1396.6505807910357,295.92596572367574 1394.9457709777412,296.06606559208694 1377.0643461955256,312.01009788536567 1375.0604009510494,318.7673139155736 1357.812782106666,299.0581134859599 1356.5157518489063,297.68925438632823 1323.5968734132834,293.2814524508208 1323.3402635643502,293.2711902318183 1305.3539811821897,269.96713498494455 1304.9226086666818,269.39506655463583 1378.4787587109963,282.63748977761816 1380.0749243999376,282.0534066835894 1382.7819981066054,268.0648455297119 1382.7802504799106,267.82387876845996 1371.8960315999352,236.20630716262485 1371.6892291110485,235.8800623204802 1390.2705783733177,224.3272915048069 1390.4019416443548,224.1840217386848 1388.4137250398994,188.19848922981282 1388.321392097721,187.9931468195059 1286.8323424977493,169.1896664768933 1286.6657354221456,169.05528954012652 1284.7998526843508,178.42353172423418 1284.527514195513,179.4538577894923 1268.4607084354861,178.89941082665564 1267.394947439992,178.56459918266728 1221.9884026577706,135.5732335817661 1216.4991072977205,133.3532093295139 1208.7172170221816,100.10106871356356 1207.6433004354835,98.14684796820029 1190.2252879909715,97.13132512829134 1189.763914551098,97.01967985134206 1189.4065248977636,79.88190504778277 1189.4175931999703,79.23743723575126 1173.7911893599444,69.91767688605569 1173.4303044533367,69.71311741040654 1090.4028916888415,121.55616433310888 1089.5363601333006,122.04511573332229 1061.1208243466458,164.98733495220176 1060.6518778577224,166.09451177399706 1025.0835973955468,156.04176706620592 1024.674652755471,156.22928082719545 1031.614769519983,146.74847430541513 1031.1440754043647,145.77023364496517 1015.8823429954715,146.17206739515632 1015.5045643643022,145.76800123308885 1019.1774930754688,135.2901504793913 1019.150404862106,134.79229839900609 998.1130575909989,108.75864744742967 997.4212887021491,108.09908116432007 974.4330075288668,88.2678537075767 974.3898994043481,88.01999113718148 948.8827056621445,84.0412004402383 948.4239536621386,84.19974606289861 934.5466328443505,35.97562187919493 934.5084763288975,35.57582047311689 866.8129923110606,8.469825079060229 865.4775142665964,8.052549999999883 819.6031880799925,14.023439798132586 819.4039586399227,14.035502037826063 817.379624417728,23.338865953475306 816.1125950844504,27.18563059109829 797.957957999875,38.05949119423849 797.7301839909993,38.93770330734651 735.0902926488558,31.644326848188484 734.9752405599935,31.536222066067694 686.045480417764,53.50854452685553 685.5584751199709,54.03338055962331 692.0925599555263,75.46661512667879 691.9303219466016,75.8216816710551 710.2538962755131,78.3526865981762 710.5611872976657,79.07352862778453 701.3325534133252,88.19639786004655 700.4724298221769,88.74705388557732 706.8687434221862,106.24183549729742 707.4405086132243,107.2349882910271 732.8673115288617,108.94798770800799 734.3172591199178,106.5852418037025 748.82314299557,135.8911435090481 749.1682992621569,136.09474850216748 782.8255499644216,130.19191331612046 782.9108923999371,130.43258419921722 768.8130793510715,165.58244318582683 767.8847983199881,167.3396326058787 758.075952382154,168.75796353477153 757.1619436355319,168.6713549832707 758.2716865688341,179.00476478526934 757.9274041155364,180.8895207330711 716.5645761688717,210.5274411622445 716.2371874399029,210.4252267413317 721.6813357777206,235.95013136286389 721.9979474755015,241.04949113270368 704.2307009687426,231.66115081156704 702.854153697706,232.81797876509472 716.3662205420911,245.951477488597 716.4774861065449,246.95872756138078 704.6984823732415,271.74981920034725 704.3253640798863,272.78997196173395 710.3427339644182,282.2729400067251 710.9316841510368,283.1965839089603 706.349115759927,299.6345665982003 706.2515399377804,300.4082249835842 719.6517586755577,317.23975329907944 720.401490515425,318.38140956112284 710.3925413243484,347.56234835703026 709.6672762577433,348.13198349389813 656.0361091110168,334.04635252120306 655.7928977332555,334.11505204518426 644.0057384087482,376.28671800744587 642.6440459644433,378.0756783815227 614.8425096799398,372.52008604523826 613.3919795466132,372.176648075088 597.7533423199562,393.4567486784431 597.2267241510341,394.45128321098264 579.2328687199403,400.9303651377336 579.3621930932637,401.4637392223008 545.578239457776,392.1923900015895 542.3736746932624,391.37400935401774 546.6591465510206,414.84404931692507 546.6906038310623,417.2940154426392 534.9995639732584,426.50901547863714 532.3568611821171,427.73527484710894 428.6893949422298,396.9095035696878 425.1871511022106,395.1764432290579 420.95760329775624,366.08655651889376 420.18340468439385,361.92812353824365 354.8792564888496,384.0864967037701 354.1670986221649,383.76002476897656 357.35942999993097,396.2985188496309 358.464512595419,397.26226842872666 353.3923174666485,403.5628837221079 353.48465040882695,404.04095250191267 380.49538562665805,443.81826118860727 388.0375597777089,445.85680927386375 367.9430570932815,464.6781559424485 367.02555309326965,464.9715161820418 385.65059302221164,479.27123993225496 386.10555849769264,479.76073548940576 386.7699479021609,493.1385225232002 386.67936258667726,494.03230754761125 405.3818806310661,516.5433507383345 406.1007377332786,516.9935392432158 414.76750964436326,563.0545536288187 414.98392407989706,565.0692721603332 455.40390743999853,544.7612612909065 457.69242455994356,544.001384779323 475.21092553772144,573.430090517249 476.53038367102965,575.7428288770384 518.0519543733459,578.1829866372059 520.9667043821897,578.5639803441368 523.4404699288785,638.1833895927189 523.4806653421616,639.5144972750927 468.98966587553844,652.7734593573036 468.19333065776266,653.0759240293187 425.68551597334556,699.091604611232 424.65266861333623,700.7719522496113 435.8610722399095,714.5273410180012 436.61604695986136,715.1583751220965 430.5235291288478,722.0461931701061 430.8048970221786,723.2975290273093 442.39981741327904,722.1463893631949 444.037634871063,722.6718619859089 438.1804640977422,725.1478008921035 438.1003645421948,725.6238370402493 453.9976505154988,738.4007266261392 454.29096052444186,738.8905379390121 444.10957883552294,748.0462470956622 443.93015583113413,749.2858587017759 455.6299338221794,770.0354065322676 456.04936422219146,771.516202184233 481.77093350221514,782.5911344322153 483.2412700709898,783.4752886148412 483.22437634654455,805.006421236299 483.6473019999463,805.4328736803504 505.26893911997433,807.9243544209526 505.7448761155607,808.2951584228208 502.5440978754556,820.3742143390477 502.70779223994,821.3953129494107 513.2453984977689,835.3416938944497 513.8809520621795,837.6895202723458 524.0186430844257,827.8053362833812 524.516134142155,827.7123097084473 555.9605982132267,840.423204369064 556.7272237776557,840.1459207944931 552.4769957243476,850.6423966123034 552.8174916532367,851.2948493310028 564.2956123288965,851.6535639876743 564.5501832798833,852.3393927445063 557.0479132709803,866.5721949802023 557.0356798843492,867.4560127891959 569.0543997421406,885.5445739296624 568.3183576444641,886.5929601429739 531.4606199732294,897.0921221606327 521.6121611643827,903.6783727360666 519.0154792088794,893.7112640610208 513.0819954043033,871.628510707967 481.61859871107265,824.664666215634 474.2066227466345,813.6123213555907 402.1004202932596,813.4213597477424 400.0851154754415,813.6345779425242 390.77346932443436,863.25450894083 389.60721979544144,866.0973528328827 374.6122917243989,858.8103781159512 373.2744835110858,858.4458895526836 331.6002867466083,867.0577166818907 323.44469563544374,866.6456240870534 324.7105598844133,854.6095997933076 324.461523084297,852.5712655799939 297.7103104266349,805.2111897360078 297.1615556532994,804.1210178624383 301.71994854216575,791.0683621720887 301.363432702237,789.2021713108184 289.213349573292,764.3138143814645 288.0835089332901,761.4376019934202 271.9162146399973,753.6974659241746 271.2090083821455,752.9432066692748 268.6542694666201,736.611570244982 268.69650377773326,735.9089060556503 222.30779280883837,719.4232633079878 222.13303014214728,719.2442438681969 211.24589855105262,749.3784730823604 211.044338942134,749.5476723311945 168.77973563547823,746.4294874419934 167.69737218655757,748.8227862155541 167.50979359108135,785.7893873746284 167.76261691548973,787.6177664436759 175.02983113771882,786.1495440796493 175.29634420443438,786.4482644607556 176.2694809866149,801.8507365692417 176.29889936882648,802.7699807302338 170.5780434754921,801.7648215439763 169.18984535986203,803.1968826486623 167.46552038213815,878.169240890747 155.87380397329218,879.46730669411 160.5976388533378,895.8511156405798 160.42374999993592,896.1078608389721 105.62895476443339,878.9773622877906 103.80181108436193,878.2235310773608 101.29425808878261,856.092053311389 100.72919213327225,855.8414922180596 68.46858640886023,870.1319209631542 67.91400621328614,869.9378931226452 46.42839270222578,924.3270992004323 46.23615376881901,924.986007778301 71.16051401766128,941.6391468040888 76.61136159100681,945.7608628285593 69.85241545769497,955.5427905212632 71.69820048879012,958.2283073824724 57.62601929772757,961.2589831392174 55.48197264874,967.021734149173 86.23903689775727,998.5511725533647 88.15006665766816,1001.5795159281474 41.29153538667708,1017.1346461048593 35.106102071098235,1018.8090165480749 16.251540506585684,1010.437037383475 14.533332222119157,1010.3654350242355 8.052549999999997,1060.7904286628832" stroke="#009edd" stroke-width="4.937481996921124px" fill="none" stroke-linejoin="round" vector-effect="non-scaling-stroke"></polygon><polygon points="1806.241842657771,1258.1605070644068 1863.8386659822204,1266.5088895942677 1864.6012137511057,1266.7696465309486 1873.4366316355076,1289.5613684144114 1874.5015188177126,1290.8747858181373 1918.0739294131995,1319.894122573292 1919.0566781421435,1320.5105500683198 1926.897405182222,1343.1803869317296 1927.2946989777042,1345.956225271489 1924.0138211821682,1373.936470274442 1923.7280842221585,1374.8919650441162 1937.7953138043881,1377.99374256275 1940.1464542132812,1378.510553253967 1925.1107481866852,1401.5091820512675 1923.7371136266515,1403.7360177399019 1941.2681392621957,1437.7160093222988 1941.742619902106,1438.956195573242 1937.1457792266515,1456.1028110343973 1934.030052151043,1460.0862316779453 1973.044652399934,1484.3367251560335 1976.747290764331,1488.4931531370162 1994.1318070310876,1476.9600491965316 1995.3921371288375,1475.9100222576885 2021.9767427111287,1495.4137031491623 2023.464555546619,1496.4259180595177 2053.76024635553,1458.4196393464003 2054.0363713688926,1457.8324455012112 2150.6807085777177,1471.5314538276648 2152.0578383910247,1471.648619163177 2148.5815176799438,1456.7392754825773 2146.9742836889122,1455.9452480743416 2169.5274058221617,1440.1582019530247 2170.8215233689184,1438.3964702845328 2164.3296728443597,1417.0699259415046 2163.130800951017,1415.5548303019964 2171.8639826754584,1405.007470484335 2172.685367208767,1404.550210038818 2170.042664417742,1383.7709424975105 2165.3400923288204,1381.0399778476926 2173.431312524342,1365.4567172757593 2173.577239351092,1365.146790307575 2204.781696026657,1385.747108043964 2205.9397899643295,1386.4889980311632 2227.743762799982,1383.1693428741778 2227.7696859289204,1382.0118694746411 2223.5788771821894,1325.605337445602 2223.249740826642,1324.9702718541735 2214.19790850659,1325.6914930566923 2210.1501138754898,1326.2217490162361 2209.7368001688515,1313.2740803338015 2187.0895974666123,1300.3465284193876 2184.838071777696,1300.9425794917402 2178.8119637599225,1262.8635909085638 2178.740893608868,1262.5246452631905 2157.5981061954294,1262.6898979887842 2156.9092500178153,1262.1959163558563 2161.6665810755,1250.1285616962482 2162.4000017333087,1248.3622053544746 2152.903107155558,1242.9226631984125 2152.3281379821487,1242.560140766123 2125.1697283111057,1243.7001296450394 2124.8266109422325,1243.6459292156865 2115.168060897711,1283.3588413838656 2114.0763767732783,1283.247794842558 2109.026318248921,1280.670611041343 2108.8401960087717,1280.559563149443 2118.2494179821583,1259.610935111857 2119.119444791089,1255.7513983426393 2093.1907817510432,1253.8749141279036 2092.214440986608,1253.9002361090165 2062.8441184976614,1220.6095434083031 2062.2609937332813,1219.9719545126204 1982.7413589599087,1196.0883711505226 1979.0127974665734,1196.010163515784 1975.024713413302,1204.1133938078779 1974.5254747288777,1204.9683125994993 1948.6259387999085,1200.7087935422092 1946.4405316532134,1199.460160356051 1937.5054990488347,1215.3199436209757 1936.7345044177268,1218.116049396201 1891.1057197777332,1221.395085943666 1890.6201708354997,1222.7817749729506 1884.4166787110512,1220.33184812239 1884.2981313687992,1220.3553966961113 1879.1330207554633,1187.2311805761196 1879.4100195822316,1186.4881771476716 1860.4899220176517,1182.8073404236707 1857.3028335199701,1181.6439290784542 1845.6391731465478,1164.538675516123 1845.5911134133125,1164.0573627896151 1828.5383549420872,1193.5199468551214 1828.295434835461,1193.9896419022475 1836.6307402221496,1218.902045110393 1836.6397696266426,1219.5551880938942 1812.0355163288546,1241.5098885982075 1811.507733075508,1241.6307300493131 1806.241842657771,1258.1605070644068" stroke="#009edd" stroke-width="6.008982382531047px" fill="none" stroke-linejoin="round" vector-effect="non-scaling-stroke"></polygon><polygon points="697.6584596177341,1011.6618343934892 706.938065946662,1021.0379330157662 707.749255991053,1023.6434953957573 708.5150077421928,1056.6779733296494 708.5482126488129,1056.9998938842687 755.3816946043877,1081.31776788229 755.7184040088683,1081.7868123416333 751.4812831554806,1130.4517648729156 751.4652632443245,1132.844460446831 761.5417873332987,1149.3979325793694 762.2862762933142,1154.1611096340707 803.3767657510249,1133.305839225162 803.7728944621991,1132.8800195392464 831.4829716178134,1141.0731263223347 832.004929448805,1141.3495878175377 841.2536610399617,1173.7038608216458 841.9256234933633,1174.9330857785894 853.6708397776598,1173.4247733640727 855.9651823199598,1173.1105773491213 879.1392944621399,1144.8471069902657 877.608664773266,1140.8944484516755 902.2350546754675,1129.7307952334882 904.2512333065748,1128.2070612757593 902.1601979998883,1118.9724219120467 902.5606957777414,1118.218075953518 913.7964788888127,1142.9185669208887 913.7877407554548,1144.0519584917706 958.326297626692,1162.5911968778014 959.1022438666329,1162.5614201427447 953.1772069243958,1171.7857940473837 952.9229272444278,1172.5146258303207 963.6387914221046,1196.4109773513987 963.7614165599003,1198.0586611804097 953.8005271021754,1201.4855198082291 952.9182669066137,1200.7616714467072 944.2223678844526,1299.9867650718438 943.9657580355193,1303.929472917203 995.7121098221756,1338.7316902692905 996.5565047733031,1340.1900271270201 986.5134768622007,1369.207331978228 986.3425007199181,1371.694238174859 1011.072000595486,1417.8041642781823 1012.2027150488935,1419.3680749309492 997.9811117778078,1436.0448096197574 997.1981750310875,1439.6024745569225 1003.6990549599064,1459.068524458074 1005.7807695910811,1461.7585812134562 1023.0432432621961,1470.116588739074 1023.1804319554718,1470.0557866174854 1030.858338444355,1439.7138864710937 1031.189222426597,1438.811936613732 1064.19664727999,1424.6896386681833 1065.8647569332747,1422.3413835022725 1063.6510964887925,1400.775333559584 1063.8526560977111,1399.9877644713047 1079.8087788355547,1384.3956276066378 1079.7840207910408,1382.2143278597864 1064.842686604337,1372.6803790933695 1064.173636862171,1372.1728789358526 1052.0054949243563,1347.8492462120262 1051.8942293599025,1345.9961906946041 1067.1623697333048,1318.3961255386016 1067.2019826044339,1316.9363125553714 1076.5940195821236,1313.133292363876 1078.0713466576776,1313.3136075394937 1081.0603707999467,1321.857979976899 1078.3428113333425,1323.492738065404 1095.9900541421734,1336.3620943983328 1096.5420128977635,1336.4491339763404 1119.1429034932294,1326.8128452409069 1119.7245719021662,1326.740457133135 1153.335510497774,1291.3549340946843 1153.5906639910313,1291.0346873026351 1096.8758095910084,1198.9127146846508 1096.4086107287799,1197.6365211326406 1093.6348359377366,1175.9823211944672 1094.1230063199541,1173.4994337375751 1105.9529824977285,1155.082443870931 1106.0488106932967,1153.3028831141778 1098.0088542132648,1157.8602011201215 1093.572795191059,1162.304540083605 1094.2074749421804,1152.5206540708673 1093.643574070978,1150.137060653978 1105.9713325777334,1141.7509452888985 1106.8865064088964,1140.931339665643 1111.5057749598996,1120.4077613515906 1111.01177915556,1117.7793361352883 1094.5299120621999,1111.8235902815136 1090.1346309955475,1110.4268695117566 1063.6685727555082,1118.6292548301058 1063.1684602576784,1118.4870092512351 1055.5266713866508,1127.5994316469655 1050.5852569865306,1130.9976022211845 1055.163747582213,1140.5557601511023 1056.881082053274,1141.7380556361527 1041.610902782158,1170.7823131835098 1038.511778159976,1172.5266248699986 1024.6574677598906,1155.6793312944133 1024.2045411822396,1154.310887820298 1002.1751245065603,1159.0868476058017 998.9356072088482,1159.6526137806718 993.6601048443478,1148.7463600191763 992.9826082399592,1148.5379097289183 982.1018846132571,1156.8393238346684 980.1358046133315,1157.7784244456338 971.2569873332756,1153.6482185777054 971.0731952622078,1152.9099911454027 977.2038696087908,1150.906409018185 977.3221256799076,1149.6494941860215 970.7781376265699,1139.2410045842184 969.11177559998,1138.8316419737307 972.8857753866829,1126.87845269926 972.898008773314,1125.850320203906 981.6186658398725,1127.2647234637766 982.8996761865925,1128.188836856199 979.6572461777611,1138.3467174222237 981.0265116711158,1139.8130442254255 988.9651058043597,1134.574848140102 988.8156837244529,1133.2845038115406 936.2689189243607,1087.4708406761997 935.3196663732884,1085.80321482916 945.5499816088483,1076.7931049250542 945.5520205066783,1076.0288336525914 934.3383740000205,1064.0237812300688 933.002604684421,1062.336859242037 936.1518279376684,1030.8974610616929 936.586695706566,1029.7350282054172 928.2595459110813,1024.6569837061465 926.9753315821068,1023.8685177742514 926.6625064088508,1031.4942394398163 925.9209301599545,1031.9166970783622 896.0688452532992,1032.7322603810821 895.4839728621079,1032.8678908453799 882.368617271051,1065.5315068741106 881.8760778221546,1066.0979573169966 889.3707747821242,1067.7848505808865 889.9672980176762,1067.6203412617683 896.2581714754702,1094.1736715305374 894.8233699821645,1097.63815111979 882.5966825510619,1081.151045678103 881.2012026577501,1080.7722523625484 828.6879340355296,1083.322870400421 827.5843077954847,1083.2504024889563 818.2613020710193,1071.1897213561238 817.4113729687884,1070.4014215221173 769.1640610398969,1063.5813767362047 766.6853438843751,1062.987352826261 754.2681651465606,1055.9109645925705 751.5741986399295,1053.7922280667476 743.3688001688348,1028.2097149084216 743.1858819110563,1027.7285497525368 716.696813253198,1026.3562004903574 715.034820293287,1026.8071288943534 716.2497120977856,1016.6098740038938 715.6074592977308,1015.8805276570852 697.6584596177341,1011.6618343934892" stroke="#009edd" stroke-width="5.703223154926781px" fill="none" stroke-linejoin="round" vector-effect="non-scaling-stroke"></polygon><polygon points="1474.3992872088925,516.4733708584458 1476.6703280622382,546.5836172216582 1477.2452972355309,548.6149759267932 1486.2321760977861,557.6030010839818 1486.9067599910554,558.343667896384 1502.7431703022226,560.0656417721543 1504.1855448443453,560.4529057837567 1527.7857866221816,542.2217927651723 1528.898442266603,541.2502087946991 1566.9294199732608,553.4709080842799 1567.0057330043996,553.4258967225683 1560.718646071014,562.8722877619216 1560.2732925421801,563.3228273202908 1567.02087910215,574.984395964631 1567.2137005777108,575.1425887085275 1561.5042042577184,596.534104200698 1561.2991493955265,597.4212322456074 1616.7035750666178,621.377686881438 1619.0978235999132,622.2722888038038 1577.7903371643984,653.0162329486116 1577.2080862133075,653.181942475821 1581.5821044888357,656.6310778400871 1582.5132982310383,657.4827738910458 1566.5297960088133,679.7784899093454 1565.9108448977126,680.5102839248498 1551.3341821421413,676.5399493305954 1550.249779795507,676.692724352913 1547.9446602221356,661.4097984995237 1546.298395902129,662.4619227548023 1545.5212845777637,691.5087263831879 1545.701290124423,692.7174793981608 1568.6007336088,694.7612991083656 1571.0188663733202,695.7157283685879 1568.8468576976807,705.5626319331709 1569.248229288823,707.2518372114059 1581.2873381244494,729.919248669968 1581.4134585155184,730.7047575718966 1601.0841617332549,729.8520082655373 1601.8219514577427,729.8137123968695 1615.0596409155764,707.9879935457498 1615.4962563110525,706.8577053149706 1630.7306092355643,707.6183569758791 1631.5764605422514,707.4250768843117 1638.5334710310922,695.8373142541163 1639.5581627998977,695.388381420787 1639.791179688858,708.4057266587402 1639.032127173246,709.5662901965911 1623.5417469421877,716.0312210139596 1623.5638835466011,716.3460681488864 1659.9963653955851,738.5877456194498 1660.2724904088313,739.1951109707948 1686.9837989243456,714.0610782444487 1692.6959166844385,716.5967876817808 1698.2029795821068,721.2882631604803 1697.688303528797,723.1140595876855 1677.7807968978082,735.0388105426459 1677.1487385865544,736.1533693258893 1685.0908279733044,741.8066738745906 1684.913152595494,742.5903593555336 1669.2232516533472,747.5479960720763 1669.0601398311333,747.765730571969 1679.2689010044337,758.2202958486519 1679.399973004452,758.7416753824577 1670.3219262844427,766.026166986419 1671.7022600798878,769.5242937598155 1701.9024139643657,797.2673681049268 1701.9236767554899,797.6048027123102 1730.8783553688331,799.8782438022095 1731.281474586554,799.960153128231 1758.3472600443997,797.7365712316018 1758.6108603998796,797.7543777822061 1787.138826835529,769.5096014762307 1788.1518677599738,769.2402427700358 1786.5251186043965,759.3008992004684 1786.603470533249,758.944705849724 1795.0415946221688,761.8111555350256 1795.1913079733272,761.6246014615531 1810.8465476532942,722.6870027039326 1810.892859759951,721.9963177148379 1791.5067284176835,710.8056726823338 1789.5208419821934,709.3632142853235 1768.235914266646,711.6117351689386 1766.2002204711093,711.4291466868958 1768.3678600799535,703.7611846863651 1768.4103856622019,702.5961370516811 1748.7312355821264,693.3401137757824 1747.381485253201,692.776268985333 1747.9969411110283,677.5136099066362 1748.0016014488424,674.7418283603397 1761.840765751061,680.9102530910527 1762.5523410754754,681.5057514971481 1783.9601851999537,639.3149207316233 1785.189349288797,638.2319475442996 1773.9623043110837,609.3247106773556 1773.8248243465564,608.8862948097299 1785.231292328775,600.2688401446571 1785.1576007377366,599.9854622547059 1764.1592837954881,579.497969149706 1763.4707188888929,578.4173758260217 1752.0930867466154,533.3708611917459 1750.7491618399285,532.5494389300943 1731.8558612176926,529.6492545750002 1731.360117786658,529.516880104878 1721.7834149243786,542.7271930093189 1721.5099113511164,542.9322051238628 1728.0314715289055,548.1670803216762 1729.212284613262,548.9492257855377 1724.2198977687872,559.3200786469747 1725.3488645955,560.9667314375761 1675.3087789776978,595.1015920638815 1674.4920547822035,596.0470956753484 1656.0548847199893,570.94977421451 1655.465643262119,570.4324068410565 1652.774298195472,579.8045447655963 1650.5105391199245,581.73088150574 1638.183363155556,567.9792401097725 1637.733931831062,566.4342435316426 1619.8929937332646,563.7439539682596 1619.3419087910802,563.3370877066986 1618.8983028888247,552.3973177542571 1619.027335991013,551.8103838443999 1632.864461395518,547.6848673198033 1633.8871142666098,547.9094842282716 1651.5267840266238,507.8616644954086 1651.8320361510628,506.0911415607329 1612.5206306399555,495.30633499925125 1605.9294566666717,494.6403467600244 1598.0319317598837,480.87435612313084 1597.936686106586,480.35098187425274 1537.1798624977014,490.8677127508922 1535.9661357777436,489.79203439006915 1521.6973465865954,497.59314677093744 1521.0076165955757,498.0340128236344 1516.889625626594,513.3536719911276 1517.9204340888896,515.6920016467116 1474.3992872088925,516.4733708584458" stroke="#009edd" stroke-width="5.402746634097047px" fill="none" stroke-linejoin="round" vector-effect="non-scaling-stroke"></polygon><polygon points="582.8035612710297,1886.8340209267112 625.2516653777344,1893.6969461753392 627.0578375377005,1895.2362357207817 622.8859614133613,1908.5286079646098 621.7147602755355,1912.7297866960066 667.6878273688268,1961.7414904696411 668.7401898932654,1962.5629321479714 678.6294266577821,1960.9838129923223 681.5540798844082,1959.4910346477768 688.5515770576673,1936.8696284086686 692.8431656087993,1934.7792426972078 734.7832928977219,1948.2539125126564 737.9063017511286,1947.8407298283778 741.3712628888676,1931.8198959777142 741.624086213276,1931.1134911483164 736.1837243998667,1922.820705772006 736.2067348176857,1922.6231703546723 762.167437679927,1856.238636834641 762.3893862666806,1855.2803446962275 760.7678799910715,1811.10225276542 761.3411015377857,1803.8596538398192 773.4935148354631,1785.5921325805607 773.5456523643585,1784.4700009246367 764.1189541243726,1787.7459712477644 764.2412879910331,1786.582635063423 777.2089691287616,1775.140842622473 777.2337271732755,1775.0291562560956 754.1001017155137,1772.214818507527 752.9833682755485,1772.48207133005 725.0612457510794,1805.734137735773 724.4198667644301,1805.858216488013 698.7466484888934,1793.4411338291607 692.6753934488876,1792.4754792701929 643.0760010222217,1803.6208000239926 642.9015296266658,1803.5999723134805 614.61211423108,1790.3425155661312 611.7282389600074,1790.0624323735024 594.63091600882,1817.8049021757683 593.9994402399531,1818.0388664400448 597.0848751199443,1845.781819424919 597.217112204387,1846.4729894447732 582.8035612710297,1886.8340209267112" stroke="#009edd" stroke-width="4.985266455131749px" fill="none" stroke-linejoin="round" vector-effect="non-scaling-stroke"></polygon><polygon points="268.41659223996214,1426.5664492543797 318.9620332354458,1433.5524126317828 320.82645961779747,1434.1374515267448 344.52107323552593,1452.9537497338383 344.96613549322467,1453.3727394751982 359.33279177765473,1449.099361953769 360.72332006213367,1447.7748999784012 367.0229316532856,1426.0568532532557 367.87548219550047,1424.7597752064244 375.4429969333356,1426.2073351213835 376.7432311732333,1426.365807066591 395.5060423377214,1403.147346849531 402.525384844375,1403.0603335231785 439.88236119991745,1447.6279836339304 440.5540323821839,1448.3510241582767 452.4291555821907,1440.3175516436236 453.5616176621767,1439.760493032088 454.2233856265444,1423.4387186983145 451.539904879966,1422.3835546560945 459.5711232265236,1407.7190498923078 460.69426463111415,1406.406326423144 497.9693938044144,1499.3906471373407 505.77982864887565,1505.0115862855232 573.5903647555748,1490.9365602538815 574.6136001688207,1490.5140915017469 610.5960681510402,1502.208012638242 611.0699662487965,1499.0294324587808 580.2957170043152,1408.4400012318288 580.2537739643373,1408.2255806048993 553.0679848087963,1395.2547436952368 552.8288512266951,1395.1490808804297 535.2628730577195,1372.7008033973175 534.7869360621331,1371.8269967087322 502.1939899999194,1362.7370711082835 501.9000974488223,1362.4084911839814 509.071192204348,1313.8096955765864 507.8530964177113,1310.286424902129 454.20882207106445,1265.580468021078 452.0880771110311,1264.6413811803573 395.4693421777116,1271.2428905378106 394.99020119998715,1271.265989477491 396.8255004710296,1292.5368672678374 396.64782509321924,1293.274184272777 369.40582061323914,1301.0740480662566 368.4868602577841,1301.2303889721293 353.26444944876823,1317.3688836381548 353.1590093066694,1318.1558588378607 325.83719654216077,1316.0143204413248 325.1535832443984,1315.6408148344267 277.2356989421893,1349.8577046143832 274.76164212436527,1349.5859443414734 277.5199795466393,1366.1591575928974 277.70435415997747,1366.4144687860748 340.2469609511096,1373.305983546284 344.0847491110686,1374.162468248432 349.114127386572,1400.9023032852342 349.276656666632,1401.728048673925 342.52149705772865,1404.274521488092 336.4097553333046,1402.0681128138453 323.29876880892664,1419.2988245088268 321.9708638132794,1420.1782144773529 268.41659223996214,1426.5664492543797" stroke="#009edd" stroke-width="5.258105669392471px" fill="none" stroke-linejoin="round" vector-effect="non-scaling-stroke"></polygon></svg>