<svg viewBox="0 0 130.76404570667296 183.06620127736755" width="130.76404570667296" height="183.06620127736755" xmlns="http://www.w3.org/2000/svg">
  <title>Doksy, okres Česká Lípa, Liberecký kraj, Severovýchod, Česko</title>
  <desc>Geojson of Doksy, okres Česká Lípa, Liberecký kraj, Severovýchod, Česko</desc>
  <metadata>
    <collboard>
      <support-module name="@collboard/map-svg-geojson-import" version="0.11.0"></support-module>
    </collboard>
  </metadata>
  <polygon points="8.052550000000004,88.82972989770462 17.779621573346624,93.01542346331519 18.08458242667951,93.23236654143659 25.100648133353054,105.87430015803659 25.67678239112832,106.15512458876003 33.240219333332455,103.59488213649422 33.379519742221994,103.620662761277 31.10811480001542,101.71137370495819 31.031146408880552,101.64319583928557 36.30257097777906,90.54097303320998 36.80654281777209,90.37123792307796 37.057764151111435,91.1938923854683 37.52547273776839,92.56640697179648 48.004533502221996,92.04048679050868 48.13043544002688,92.09996679753351 46.45839362667869,96.92393263505767 46.31596205334757,97.22772240627785 51.86358445333429,99.6790634497662 52.34272543111695,99.7672968195908 48.3064360088971,100.27503695688904 48.31240706667416,100.42766745345546 53.688616417791884,103.5260191628546 53.84983497777251,103.73180575844128 54.384900008888174,108.64226478397143 54.31739792889096,108.90382718775766 68.75599817778095,109.98798584263534 69.01566637334292,110.03278153177928 68.78811081778952,107.9475085637456 68.92340624889005,107.61811491921947 72.23501314665884,107.47352479663789 72.3672502311307,107.59726280178404 75.22563927999693,110.9845952241518 75.30996226665559,111.10442999198096 73.01671199111263,120.19551678258688 72.94673410666985,120.8596468795655 79.49407177777141,128.93233305641445 80.11491615110538,129.03220040139388 79.40858370665921,130.4252848150569 79.07296656890651,131.09375560313458 80.60862068445533,134.0754904454294 80.94955352001818,134.3144847704458 78.52763423111867,136.29797092709452 78.03524041778985,136.6468856515636 71.53639938665549,133.79160458196532 71.1679414311144,133.91390815409943 69.70219238222455,137.38913784022554 69.52684717335035,137.74766421203788 64.05204255111278,140.93822662314744 64.01242968001281,141.00028637072649 58.57920400889237,139.06174437620905 58.40808223112948,139.0273927394661 57.37377851556051,143.62756967309508 57.24969702223428,143.9514771778846 54.38191447998509,143.8952600724948 54.05918608888863,143.76484990234133 55.47017616889901,144.56001501528192 55.44199568889565,144.85288929779892 53.03697012444139,147.15758737542603 52.88252361777234,147.2464302030927 51.209607991105834,145.44710550425918 51.056108115568016,145.47091981341475 46.82612340443996,151.94928175130156 46.35331757335337,151.99163864213153 51.37934623112199,156.1580208118172 51.159727813333696,156.80522589719442 53.7079859466536,156.64485620444577 54.144237253356216,156.69442090686755 50.89387010667236,153.71107144229575 50.96894523554477,153.5283699940261 56.18444575111028,154.07796064398246 56.33372219556589,154.1214606026548 56.2410979822231,157.15114662718372 56.42991447999487,157.33234776763823 66.51051636445447,160.17184943632276 66.55173122665258,160.17104821126088 83.86634242669209,173.74644621535083 84.28373392890319,174.18929622110556 81.30992870222656,161.14452789966128 81.27461207999261,160.9407910963124 102.95974630222884,152.70391630661436 103.79096123556485,153.079512498785 108.43127412445722,132.60348197824317 108.58193410665956,132.08058523941838 106.3182478488958,131.33791659156088 105.89233666667826,131.16006397314015 105.22153929778835,127.0516544835042 105.24746242666845,126.98408123249067 84.04299835555832,117.20316469824286 83.77211622222205,116.96993686652388 73.58010313779926,101.50386063961889 72.8815621955506,101.08436326805497 71.40459920888645,93.70979868935649 71.37423419554364,93.34582295490657 72.89073723555305,92.01000182894461 75.60188873776463,89.81011117084529 81.7212035111221,93.84663276139293 82.54346185777797,94.28922099649901 86.05553609779565,90.52893916381402 86.4933165777835,90.01904446402443 85.15390637334315,73.40168268501986 85.15121211554617,73.34011848169723 117.36565136889806,74.29613271088567 118.60493712890423,74.06638818086469 122.71084034667695,63.62229807780352 122.71149570667296,63.45282236194873 120.24639547555819,59.11495742400405 120.04119497776958,58.91737210253598 109.79464137778962,52.33494808120997 109.6077181422221,52.36121193825204 106.72107579556871,40.86204084986059 105.88003046223423,39.38244288534736 90.09961702221301,42.69926469607856 89.64239419557964,42.90321838341299 77.05889965332574,40.219525424159315 76.40616109333462,39.96588975282032 73.41670004445007,36.129547945085164 73.42026811556536,35.529883389339034 79.31588667556173,30.773287624011232 79.6390519733319,30.374466708955538 53.10163231113223,16.263075825474175 52.91135945777172,16.168049484381868 50.31467750221021,12.50493195560523 49.66339529777873,10.492791417119975 44.73370456000669,8.412968893833408 43.95804959111377,8.464391520734011 44.50804226665753,12.83375847046375 44.12232649778128,13.362057399011633 25.578405573330777,24.608674070557413 25.292887066672513,24.70907871316706 28.664568631101822,27.25217998323899 29.62627302221484,27.781255753892424 26.54185759110954,32.31725669453556 26.050119137805844,32.80107889103931 24.54883501333064,29.39312065355591 23.14774815113163,28.596717623040263 17.40934317332688,33.543956086410276 17.143703920016954,33.82068239930197 16.417856311112367,37.75848639934668 16.37846189333471,37.854507225252405 18.51114896889306,39.1002386385004 19.87568130667899,39.57482273987955 15.83014402667289,40.21516625036713 15.546445964435073,40.52455200089719 11.615451048891948,57.67118035053829 11.477679813316747,58.007759313819065 14.345972079994347,60.58667583749741 15.205221857766112,60.96543558836095 17.46257296889201,59.44304149458878 17.525924435561713,59.47216875022389 22.128299262236062,64.07614179407358 22.27364354665736,64.12315418947367 28.300479742239652,63.114098667814346 28.39310395558244,63.13737595646637 34.93578128889897,76.85592969391257 34.93119376889775,76.90659935796396 39.568885217776945,77.30244014271705 39.67112137776679,77.31000614164043 28.07212319112262,86.68495489488816 27.966901502229696,86.8158467190002 18.203129768902393,89.572295276295 18.017735706678316,89.55498911490542 11.911018408900084,83.28796045421734 11.222089413327588,82.93021884465236 8.052550000000004,88.82972989770462" stroke="#009edd" stroke-width="4.867106321432047px" fill="none" stroke-linejoin="round" vector-effect="non-scaling-stroke"></polygon>
  <polygon points="43.07557094222978,164.75065674508335 44.49500788443368,169.48242758267554 44.57903960001534,169.94625503503596 52.47255952889794,174.94407821004972 52.767762800016165,175.01365127736756 52.344691511105005,168.74530796972215 52.47146726222821,168.6607348394242 65.4644889866828,169.4857463720615 65.84219480001013,169.510122301646 72.95103035556497,167.00884287646443 73.10198160887342,166.81851842560684 66.21575000000996,161.36405916909973 65.6954669777839,161.0198822723538 61.736510035559725,161.95591927215685 61.52817837332953,161.9675938793149 54.47599504888752,157.7033331736817 53.45232272890974,157.56482920074598 50.862849733333526,160.2057297992793 50.41975355556463,160.5515143167355 45.57169154668339,159.65391219114065 45.504917644436894,159.6825276380183 43.07557094222978,164.75065674508335" stroke="#009edd" stroke-width="6.358476731880722px" fill="none" stroke-linejoin="round" vector-effect="non-scaling-stroke"></polygon>
</svg>