<svg width="537.2385763555067" height="369.5905242127483" xmlns="http://www.w3.org/2000/svg"><polygon points="5,153.2988954547909 15.664600462187082,160.00175833475078 17.016098417690955,160.8126971278689 32.52453745773528,153.94016418227693 36.36407324438915,153.3855293613742 52.37786766211502,158.16016597329872 54.92386844439898,158.36870787973749 64.91854535113089,167.5827584588551 66.83307036443148,169.64396658312762 61.82670250663068,174.90674710890744 59.188660053303465,178.54677082312992 65.69565667549614,187.77337194728898 66.71131904004142,188.75655548617942 76.97105265769642,185.49086898536189 78.06011534214485,182.80380759347463 113.71024298667908,206.85626049002167 116.85305827553384,209.42605778452707 115.16951125324704,199.65700743941125 113.84306261327583,197.20585920126177 92.49580288003199,176.3365084476536 91.65752462216187,176.1909429145162 106.4357469866518,174.7308170584729 108.78950883552898,173.6212042370462 125.64449422212783,195.5623691183864 127.12531655107159,197.6179576163995 130.33599800884258,215.90176038845675 130.83873194665648,217.06741127726855 148.8762780444231,212.4610229843529 149.72504206211306,211.66143559344346 162.48999850661494,219.44333779806038 164.64365710213315,220.97281019220827 165.07124309334904,212.89362935739337 165.84981077327393,211.22927324887132 193.18968234665226,216.68927855516085 194.42117660446092,217.19598518364364 206.82320924440864,213.2744472672348 206.902726257802,213.16863977810135 200.23698687995784,226.87229552917415 199.2484127288917,227.42317394673591 202.48210460448172,235.3656697347178 202.06762581330258,236.36247915116837 187.42717468435876,237.8596935943351 186.99434581329115,238.09226534795016 196.58677731547505,244.63051123911282 197.54098147549666,245.51702297927113 193.9627158754738,250.39143465470988 192.50373887992464,252.26305508817313 206.80369407997932,264.3980721909902 207.097004088806,264.8319155743811 230.00372935109772,262.1306463647634 230.3678182399599,262.270798952959 218.53900714660995,256.36913730041124 218.59143594664056,256.0624893878121 234.90756977768615,256.5226842753473 237.28055551997386,256.4914392600185 255.19489393767435,267.3300691282493 255.9929767822614,267.7201659462298 246.24646286212374,274.75160957349 244.41815409774426,275.40412901405944 247.22950286220293,269.50728258123854 247.28659199993126,269.08594570000423 233.02770602656528,266.6958255729405 232.16088320000563,266.83999228390167 233.78122439107392,273.75408124766545 232.75711516442243,275.06358730368083 219.64088575995993,279.86236504040426 216.45729251555167,283.311868263816 229.44244991999585,300.1230160043924 232.24826453323476,302.8479175463435 238.84497265773825,296.3185400891234 241.9234170310665,298.6829012960079 225.11066595558077,320.0966637314996 225.47067704889923,320.48488219978753 244.61068430216983,331.5006307727308 247.8321427910123,333.37647036398994 251.7313891556114,326.5244917484815 253.01443840004504,327.3437418783433 256.0634643910453,341.13533367717173 256.58425713772886,342.9972595862346 272.36852991988417,337.22492570983013 273.2158375821309,336.97818038705736 258.5051901155384,346.28872059314745 257.7330304000061,347.0106313158176 270.2571056354791,363.3507020996767 271.8931754665682,364.5905242127483 303.7582350221928,314.709727200272 305.3739158755634,311.2705330659519 328.1387921066489,322.2541680490831 329.4544637155486,324.2309321524226 330.0169082310749,316.91012283979217 330.1532231110614,313.82706383935874 384.14381880883593,314.1394324704888 388.0503469511168,314.3661225712276 400.8939465956064,320.3153155967011 402.2343762489036,321.3875990504748 407.06860287999734,313.3888545273221 407.5323064888362,312.80695405282313 407.7594979555579,320.5312898789998 407.22967580438126,322.00026636291295 416.3799577599857,310.54672022076556 418.65857166214846,308.7295914263814 446.77526328887325,307.56085553072626 447.4510122666834,307.1101386183291 462.1689415110741,318.23632918618387 466.2744078221731,318.85168264916865 515.8202063643839,291.94007598009193 516.3905151999788,291.2188773349044 512.1758222222561,278.55868957954226 512.0680519110756,276.80199589178665 514.9041587199317,266.28698076476576 514.9947440355318,265.8272526176879 487.6193373865681,245.88483949162764 484.7409962665988,245.46301103680162 485.4895630221581,237.95120458235033 485.7356871110387,236.52987840923015 431.11856725334655,220.45182648027549 428.0803182933014,217.77233465394238 419.33111665782053,181.3397070018691 419.4205368888797,178.8432568560238 426.888728177757,148.59292615536833 427.5181650489103,145.2587632833165 437.1615689955652,134.8178534997278 437.53264839109033,134.58472603344126 434.4801271467004,112.24041168653639 433.2358169599902,103.13079827616457 426.38715932436753,89.754460121796 426.5563878399553,89.4064840223873 416.6455970132956,90.50982098112581 416.12160028435756,91.13072477298556 413.6242417776957,105.50616798159899 413.01344625779893,105.24352964310674 404.5901769954944,95.20050475327298 404.40521984000225,94.888718760747 403.1853764266707,82.87747488252353 403.26955377776176,80.7618485489511 377.87479068443645,68.85258349048672 377.12214613333344,69.11660546605708 367.9610871466575,50.38366139208665 368.06973127112724,50.07136513228761 345.7260330666322,31.987360260041896 345.39893560891505,31.87118890270358 340.23935914656613,33.16515563608846 339.8353661155561,33.06998499954352 318.4916016354691,65.7772178943269 318.15023189329077,71.31186221644748 309.08296220446937,68.32811250153463 306.54511701327283,67.11476596881403 303.593958115438,75.81622463883832 297.5739667910384,74.38670375500806 295.3192371199839,91.78468198078917 295.86915697774384,95.8088881833246 277.30324508436024,90.29942800389836 270.07972152880393,94.55861821008148 270.4292468621861,95.18710421823198 274.28888035553973,101.54333307821071 267.8392641422106,129.64477737311972 267.77431068441365,129.82788928278023 286.26682225766126,136.50556394347223 288.5034931199625,137.7203144452069 277.34518812433816,178.88388969999505 276.61031111108605,180.66636927437503 261.87694449769333,177.70687373407418 258.1842093510786,176.4878786393092 251.4820610844763,183.50348260236206 248.87576718220953,187.73809870512923 235.80206335999537,179.34156681929016 235.47059683548287,179.40318571485113 210.15680711111054,194.27739332063356 209.49067007994745,195.32841299910797 191.6415763910627,176.486985600146 189.55578396446072,174.32046190201072 202.02888675557915,164.28862560418202 203.3390242132591,161.35704258282203 202.00704142218456,155.26913855114253 203.7823388443794,151.37999034120003 196.35958584886976,146.88163965177955 193.30502570664976,142.31799508066615 195.56645461323205,115.33835366653511 195.60810638219118,114.77424204564886 203.59213880891912,117.21648209710838 207.06845952000003,117.94048404524801 223.13905180443544,106.26817472086987 224.28695125330705,104.80356505763484 220.73956039105542,82.4995583256823 220.77422165335156,81.28450306056766 208.41733603551984,65.87014066864504 208.0319843555335,65.49219490936957 197.17572750221007,73.37218502018368 193.58668487111572,75.62860055215424 179.75917141325772,69.41681280970806 175.82322488876525,67.77236845449079 172.5167152355425,74.33488344860962 176.16779861331452,77.0098674640758 150.8991559110582,89.8603269389132 148.22033550217748,92.67895638378104 141.26041230221745,86.72226992278593 133.44822983106133,80.14180893765297 114.3297766399337,78.01766864192905 113.78422584885266,77.82513251458295 95.83202218660153,89.69817647669697 95.36424078221899,89.77992176596308 92.10608213325031,104.22870645177318 90.96721208887175,104.45561274740612 68.82303459546529,94.31740775174694 67.93407516437583,93.40169897582382 68.70565233775415,68.32230489415815 68.54428814223502,67.93676876887912 50.90170567110181,55.660462951345835 48.60415914666373,55.167680895421654 50.20935423998162,86.4015378744225 50.30896895995829,87.81043255428085 44.89161756448448,91.39829356485279 42.61591637332458,90.5723581329803 41.710063217789866,99.9768501483486 41.625012053293176,101.55092649557628 36.256885475479066,103.95757992163999 33.899337102193385,105.35117566661211 52.55670812446624,115.39195089502027 52.860795164480805,115.5187976170564 46.07912988436874,116.30310178216314 40.48992853332311,115.26242423726944 31.59246990212705,137.8181194330682 30.557874915539287,139.2673252337263 5,153.2988954547909" stroke="red" stroke-width="3.0396846901146013" fill="none" stroke-linejoin="round" vector-effect="non-scaling-stroke"></polygon><polygon points="470.08394268446136,39.18986465543276 482.1064490666613,48.651952942542266 483.7984429510543,49.330162364116404 485.3480052622035,70.4322432455956 485.1901363199577,70.86110819055466 491.59344042662997,86.72450343117816 491.3420734577812,88.68819528917084 500.0321470577037,93.56027320725843 500.4125471288571,93.85374690615572 518.2030953244539,72.25223310454749 519.7532401777571,69.58121189585654 518.2922242843779,63.808407393691596 517.6980312177911,60.20222640101565 523.0390695821261,51.80038177827373 524.2746416354785,49.948948451841716 531.6231204976793,49.56159303226741 532.2385763555067,48.64659159485018 518.1841627021786,27.34045813168632 517.9304655643646,26.817675501923077 526.349074488855,19.80377853027312 528.05446684442,18.474879696790595 515.4593214576598,6.646700918267015 513.6741208176827,5 509.1923322310904,10.524107845441904 508.7082396444166,11.003137358173262 485.9290911288699,11.105914076790214 484.98129493324086,11.6761005652952 474.527283484349,23.745297105342615 474.0236757332459,24.613931995991152 470.08394268446136,39.18986465543276" stroke="red" stroke-width="3.18173831718312" fill="none" stroke-linejoin="round" vector-effect="non-scaling-stroke"></polygon><polygon points="250.58290716446936,181.9951823343872 275.3377476267051,195.51816750428407 276.1340828444809,196.0249228515313 267.4192511999281,207.19913997268304 267.4678934755502,207.39647401607363 283.2314860088518,213.42981007060735 283.72985087998677,213.46641853131587 279.7560391110601,217.99599891423713 279.9826480355114,219.12503120378824 289.8331457421882,235.9843795588822 292.3704083911143,237.81059012172045 312.4963683555834,241.56875971273985 313.38066744885873,241.54688671743497 316.5933878044598,233.21802784496685 316.8671826488571,233.06267900165403 326.9122494577896,235.21880401618546 327.70829340443015,235.49066175852204 332.7056318577379,214.01643759856233 332.94563925336115,213.39096938009607 388.0057824710384,229.9342513832962 388.1167567644734,230.30834366910858 485.4895630221581,237.95120458235033 485.7356871110387,236.52987840923015 431.11856725334655,220.45182648027549 428.0803182933014,217.77233465394238 419.33111665782053,181.3397070018691 419.4205368888797,178.8432568560238 426.888728177757,148.59292615536833 427.5181650489103,145.2587632833165 437.1615689955652,134.8178534997278 437.53264839109033,134.58472603344126 434.4801271467004,112.24041168653639 433.2358169599902,103.13079827616457 423.3422111287946,88.78646876179846 420.9651475910796,89.0535937063396 416.12160028435756,91.13072477298556 415.62236159993336,91.81103677285137 417.0760957155144,101.12703473871807 417.20542008883785,102.09586517332355 413.6242417776957,105.50616798159899 413.01344625779893,105.24352964310674 404.5901769954944,95.20050475327298 404.40521984000225,94.888718760747 403.1853764266707,82.87747488252353 403.26955377776176,80.7618485489511 377.87479068443645,68.85258349048672 377.12214613333344,69.11660546605708 367.9610871466575,50.38366139208665 368.06973127112724,50.07136513228761 345.7260330666322,31.987360260041896 345.39893560891505,31.87118890270358 340.23935914656613,33.16515563608846 339.8353661155561,33.06998499954352 318.4916016354691,65.7772178943269 318.15023189329077,71.31186221644748 309.08296220446937,68.32811250153463 306.54511701327283,67.11476596881403 303.593958115438,75.81622463883832 297.5739667910384,74.38670375500806 295.3192371199839,91.78468198078917 295.86915697774384,95.8088881833246 277.30324508436024,90.29942800389836 270.07972152880393,94.55861821008148 270.4292468621861,95.18710421823198 274.28888035553973,101.54333307821071 267.8392641422106,129.64477737311972 267.77431068441365,129.82788928278023 286.26682225766126,136.50556394347223 288.5034931199625,137.7203144452069 286.1788583821617,144.94749476440484 286.5429472710239,147.38448774447897 277.34518812433816,178.88388969999505 276.61031111108605,180.66636927437503 261.87694449769333,177.70687373407418 258.1842093510786,176.4878786393092 256.75523327989504,181.90007602091646 256.4971670755185,183.081088127743 250.58290716446936,181.9951823343872" stroke="red" stroke-width="3.8568108081694863" fill="none" stroke-linejoin="round" vector-effect="non-scaling-stroke"></polygon></svg>