<svg width="328.46068679122254" height="402.5372481683153" xmlns="http://www.w3.org/2000/svg"><polygon points="5,117.82946428615833 34.7746067912085,165.42436609143624 34.90713514667004,165.82548257976305 48.99038464005571,174.74832709564362 51.33133056003135,175.94936453318223 37.71615374227986,181.87947473465465 37.78518499562051,183.1220267356839 61.09299057780299,206.19173972686986 62.56187079125084,208.37894305749796 52.080479857861064,214.22281889198348 51.84513280005194,215.21590094733983 67.3663877688814,236.33871180540882 67.55687907559332,236.37664296850562 56.181868373416364,246.29857679805718 55.54922752012499,246.91628389176913 66.98715278226882,267.0838220452424 66.86161493335385,267.88161745131947 52.159705600119196,280.52405074518174 52.5479699911084,282.53895277611446 42.451930737821385,284.1105002525728 41.58947697782423,284.6667016489664 44.82986808894202,294.37381322251167 45.32328135112766,295.8292558824178 42.331635768990964,296.639586535166 41.04771271115169,296.9700380611466 42.34095644450281,302.02380751422606 42.84165148448665,303.7058132898528 49.477389937848784,307.8769150474109 49.50768213334959,308.0285899741575 49.24786830227822,326.3109670263366 49.48525425780099,326.8124446736183 87.65982862224337,326.79438969271723 89.59911168005783,326.99209165148204 108.44872163562104,346.7374633928994 108.49037340446375,346.87512001709547 161.54424120893236,355.1099876809749 162.83253333333414,355.0585376463132 170.63277368899435,361.5763482110342 172.9850791823119,360.53067739272956 170.3400462223217,350.85268199432176 168.027644871152,347.6884206626564 162.8835057778051,348.19391121406807 160.98849592893384,347.99803376419004 143.46912113786675,325.74990651209373 143.09716792893596,325.56800162734 144.97091498679947,304.01910010597203 144.9318846578244,303.84304561046883 131.67875783110503,287.5384299934376 131.11427441774867,287.1402457365184 137.5073840356199,276.3903508442454 138.56032910221256,273.7017786129145 134.6867145956494,267.8048630680423 135.18711836449802,266.1587008034112 140.11746446229517,251.63662822067272 140.13144547562115,251.57160790887428 153.44777813344263,245.99875342688756 154.341689173365,245.24242005182896 151.13566805340815,238.71978263865458 149.63736945786513,235.8948263953789 167.82928924448788,229.37281294405693 168.36493681778666,228.33012168324785 183.6656995555386,232.92397701228037 185.85052416007966,233.59816783934366 202.90852551115677,208.3012645202689 203.12785265780985,207.31492534233257 223.2042965333676,208.21636004099855 223.58353151998017,208.36087828397285 223.86693831114098,198.13687988521997 223.41896334220655,197.02358320291387 230.4901521067368,189.2529304404743 232.1972920888802,187.36995645146817 223.45974129776005,169.622953182552 222.5416547555942,169.08904373715632 234.16191573336255,166.10960631322814 234.51114979560953,165.9203411011258 238.8542933333665,154.57858350814786 239.34712405339815,154.14446995954495 256.5292068978306,159.61170796176884 257.5084603733849,159.73457582091214 250.94437461334746,171.76941859012004 250.8374781155726,173.4384254050674 263.04639800894074,174.78536558093037 263.41835121787153,174.9809467466548 260.7907945244806,176.86718936631223 257.81283868441824,180.18794855929445 253.11550947558135,206.61400761426194 252.4394692267524,208.27281249105 260.0049450667575,216.31013756408356 260.0751414045226,216.79561016353546 254.91964273783378,222.59590814367402 254.84420352010056,222.83254113438306 257.56234552897513,229.0734179118299 257.59642424888443,229.54621802386828 252.8160827733809,244.470731538604 253.38435271114577,245.14759598125238 263.0609615644207,242.7002176293172 263.7570995200658,242.65145040204516 263.1859168711817,252.28231498820242 263.41893376002554,252.48730884946417 278.02938396448735,253.70146458072122 279.76215580443386,254.66230895818444 287.77094627567567,248.24335484602489 289.79236778675113,249.42908750276547 277.72733582230285,263.91744402819313 277.4937363911886,264.9012700901367 285.50980863999575,269.68533769238275 286.3725536711281,269.9648114106967 318.6118966045324,258.26634075900074 318.8626810311107,258.1886799640488 322.29997141333297,244.00654310319806 323.46068679122254,242.38097271160223 310.33338908443693,222.44372228713473 309.8993951289449,221.28132592554903 310.51922005345114,201.64609840983758 311.23545571556315,200.87651400110917 295.7619692089502,159.03531222883612 294.13347242679447,156.22603883052943 312.9615283200983,168.00495962845162 315.1079051378183,168.95940562919714 313.06842481787317,147.5798089799937 312.6044299377827,145.4453029879951 305.10798535111826,127.26885665941518 305.2777964089764,125.23354619462043 291.0063857778441,112.17819349607453 290.14713600010145,111.66447542619426 293.37675008003134,103.87225873477291 293.87220224004705,103.42674843536224 282.44388892443385,110.515947453212 281.7107595378766,110.77213025873061 277.5796613689745,106.96008099307073 277.4532497067703,106.79425963154063 280.01527040009387,93.95062842674088 279.51195392000955,91.96471192559693 267.09215374221094,82.60829431482125 266.4866011022823,81.99554477352649 265.9762941156514,66.02232875453774 265.872601600131,65.85376480629202 257.7513804801274,73.2573503224412 257.73914709337987,73.29576172691304 248.95732309343293,68.05502799456008 247.23794972454198,64.74024526588619 222.42310741334222,80.60510304069612 219.99944049783517,81.43069300916977 196.23288291564677,77.03022177389357 195.19712284451816,76.51416152063757 178.65583644458093,46.688596026040614 177.95736832008697,45.257705198950134 179.64877966232598,41.69987155299168 180.94551864895038,39.40433301101439 175.41952312900685,19.870262069045566 175.22233258665074,19.160606050863862 176.62276408902835,5.039779540034942 176.5802385066636,5 167.35480860446114,11.84107019356452 166.25292999111116,11.820729018305428 172.0728180622682,45.47961591969943 172.7584702577442,46.66328660468571 160.47848021343816,53.108959097531624 159.86040291562676,53.43932745070197 143.71233251562808,49.99416202498833 142.6145316978218,49.328894904465415 138.27342705789488,34.23736209911294 136.71512661338784,34.155101775890216 136.98630001791753,46.20636065187864 136.33967815118376,50.16273822193034 105.79203783115372,52.09841750131454 104.9980327822268,51.980460417922586 104.56491264002398,56.88850589224603 104.09276216896251,57.190848731203005 78.38313500455115,23.337147149490193 75.9079131023027,24.341493920772336 55.90137429337483,51.23882074357243 55.08843662228901,53.927873989450745 54.77823288901709,65.5035309853265 55.09746602666564,67.63429966988042 62.62711552006658,85.73527846159413 64.04531456006225,87.218772759079 28.39722581335809,99.81790076277684 26.256383146741427,100.77987437928095 5,117.82946428615833" stroke="red" stroke-width="3.1836882352416227" fill="none" stroke-linejoin="round" vector-effect="non-scaling-stroke"></polygon><polygon points="179.9627699200064,362.9374728623079 189.07664298673626,367.2491492870031 190.73659704893362,367.5032259526197 189.7529745067004,375.89616435742937 189.73171171569265,377.898453949485 191.5967206400819,378.2138907315675 193.7719332978595,378.46750337898266 195.23265792010352,388.6708812301513 195.32644721784163,389.4312306328211 191.12078364449553,392.4780166511191 189.00207758229226,393.5361692135921 207.78819043561816,396.9470406092005 210.91090801777318,397.5372481683153 201.57042602670845,367.9806907167658 200.48194588453043,365.99816715030465 204.65819107554853,347.9222101881169 205.5322956800228,345.73143907025224 214.41722965345252,352.36145570728695 216.90235477336682,352.0161943201674 214.83170844451524,346.10288780066185 214.34441187558696,344.45415611343924 239.05672675557435,333.08736287930515 240.5186164622428,332.72311381524196 242.58547626668587,349.67607498157304 242.77363740443252,350.2849146142835 256.0087054222822,343.66295907332096 256.2414310401073,343.60293088667095 254.93653646227904,337.6794668935472 254.49817344010808,334.82961146498565 267.2910919111455,328.92892946046777 268.2709279289702,328.6639750341419 268.73521407996304,321.0406426698901 268.7803611023119,318.3395295863738 259.7075572622707,312.33096791862044 255.96588856889866,311.76490603608545 250.19784675561823,293.3345923370216 249.99104426673148,289.67380483762827 240.33569820446428,292.36488915409427 238.42991132452153,292.0971816977253 211.5886958934134,280.42698463919805 211.28490012441762,280.30869937269017 179.9627699200064,362.9374728623079" stroke="red" stroke-width="3.3039115441253912" fill="none" stroke-linejoin="round" vector-effect="non-scaling-stroke"></polygon><polygon points="37.71615374227986,181.87947473465465 60.67181255109608,203.14054770977236 61.07842702232301,203.87986502354033 59.59265308442991,211.43638446484692 60.12393159116618,212.37031814991497 52.080479857861064,214.22281889198348 51.84513280005194,215.21590094733983 67.7278552177595,237.03185761487111 68.38525411568116,239.03722668462433 86.13298545777798,241.60159772715997 86.57426119118463,241.57179538405035 88.09061859559733,233.0228705056943 88.12149333336856,232.757799717132 92.823482880136,232.12018348718993 94.92849920003209,229.20031087903772 99.94010993780103,233.2617500377819 102.34367914672475,235.5706043355167 98.81492963561323,240.2618429197464 99.59116714668926,240.92427074251464 108.21308330667671,238.5206460955087 113.09070933342446,239.28377608046867 135.27304334228393,251.98791818128666 137.53534606227186,253.2856091010617 153.44777813344263,245.99875342688756 154.341689173365,245.24242005182896 151.13566805340815,238.71978263865458 149.63736945786513,235.8948263953789 167.24965973338112,231.16375565179624 167.64141937787645,230.54510085494258 175.10728049778845,210.6022536624223 175.6601130666677,209.27992174657993 163.96120888902806,203.9810298125958 164.17121536005288,202.70156275690533 175.58671274676453,202.09998935111798 179.59198179561645,202.81537375535117 180.1526786844479,184.15409381472273 180.52346680895425,182.67487143195467 174.3191008711001,170.00689740822418 174.37385984009597,169.45627600856824 183.65230108448304,164.37414206564426 184.37843996449374,164.48481107200496 185.49400832003448,154.98965797707206 186.10800782230217,153.89195189985912 183.7361871645553,143.81764344277326 183.18277205340564,143.00087271502707 162.52757248003036,130.2497277292423 162.3466931200819,130.09431502653752 161.3738476089202,123.89940231363289 161.2442319644615,123.78780914412346 154.5015970133245,125.18249376816675 151.0107127467636,122.94701828755205 144.5211923911702,132.106991321838 144.25409678230062,132.44537211378338 128.00000369781628,124.54140077630291 127.65076963568572,124.4284525559051 127.2855156622827,110.92303850792814 126.03887530672364,110.18566547369119 102.03871829342097,108.72356304770801 100.89577045338228,107.93919256818481 98.41035406221636,99.12115630414337 98.37947932444513,98.78362754697446 102.06668032007292,91.2747203251347 103.21399722667411,90.47763497533742 80.68912839109544,86.88484056328889 78.64673536003102,86.40359773143427 75.54382421332411,110.1513269628631 75.78383160894737,111.51989316567779 69.83811441785656,113.62129654025193 69.88850432005711,115.2012891524937 86.74290716450196,132.12867662194185 87.97440142231062,133.41668923059478 76.60521614225581,136.38482685008785 75.63673969777301,137.54857877641916 86.98932252451777,153.99449504702352 87.82352298672777,154.68157806317322 77.94244181341492,163.90797649213346 74.64292266673874,167.8414431414567 68.84662755567115,160.74552271387074 68.62846549332608,160.78075670346152 70.5252229688922,164.26347300305497 70.85843711998314,164.5986419916153 63.62326272006612,182.63015585124958 63.090236586751416,184.24216933513526 52.312331662280485,176.4082774319686 51.33133056003135,175.94936453318223 37.71615374227986,181.87947473465465" stroke="red" stroke-width="3.380401732242091" fill="none" stroke-linejoin="round" vector-effect="non-scaling-stroke"></polygon></svg>