<svg viewBox="0 0 397.1631525510013 570.2688714789831" width="1000" xmlns="http://www.w3.org/2000/svg"><polygon points="8.052550000000338,196.9215031891723 60.814564151085506,211.65710303889466 61.77808898661897,212.8369398530118 63.93029122657754,216.91540596928792 67.58603494216368,221.04221830427525 64.52477556429949,241.34840050570313 64.92498207113385,242.9452832239109 116.04772240887542,346.60632547064563 116.1252005244387,348.71668279710104 131.76645919096336,364.1308082720276 132.64842811550625,365.27409301113914 136.6280653066715,395.39938635865803 136.9790469954969,396.08535004905536 155.9402137865327,384.07728251434276 156.5437275287477,384.0189476037991 170.10181520877086,396.83823454366177 170.53755679107417,397.0946216434601 106.15003878213611,454.8441303454234 105.37176237334643,455.88658261576313 103.67772959112335,469.31596040356783 103.36869094215945,469.9741179016197 123.60183867542219,479.67719034190634 124.72847533328604,481.38171516572004 119.04431959996145,499.0214770828385 119.31636681778036,499.82191520583694 174.7700173066478,489.36039580670297 175.38809460434277,489.5063886618369 182.35675593777705,510.86729997720215 182.82715878214367,511.69526325356094 216.28518004433863,513.5089076427754 216.5712082754835,512.8382270480867 230.36988589328394,538.7781446655059 230.92912642655574,539.3800587703369 242.45355920887232,533.171045239527 243.5749529865352,534.0960819597018 239.16452582213242,561.9375362854113 240.5460247021183,562.2163214789831 256.35272535993863,545.3399129798414 257.39576720886544,544.2739384193916 255.56250683553662,532.6834449215454 255.70872493330535,532.3146936332702 271.8666985509699,522.6541821264324 272.4230263732388,522.7386914252198 269.90236617773917,493.6981047083751 271.13153026658256,492.5893914413533 285.16701129775174,524.2910355580749 285.57741229327075,527.5940798294974 303.4145638666596,515.7568476520606 304.4165364887813,515.4404923959297 300.54496087993175,532.6843487229559 300.97953737781063,533.5483811606315 311.2823791199844,521.151086137084 311.9429819999277,518.7640074338193 318.0657920266749,524.5070522945967 318.6926074577277,524.3597270957322 335.1336965955343,512.1377161402849 336.0241123821834,510.7836899739701 329.7215880799122,484.73106088306633 329.5928462487427,484.008311682766 335.4485606666203,433.26253179307207 335.4007922042874,432.1340707514679 282.390615066608,390.1300099711294 281.80370377770305,389.72981614157436 272.4335121332915,367.8713350868562 272.29719725330506,367.08805029260805 274.05560095105466,338.0380469170992 274.2061881155023,337.11941557427747 321.2371518843356,287.35421038585594 322.77593716441334,285.92142604376534 346.240155333282,279.76491560540273 349.22830566214543,278.65466220226483 351.372934853287,263.8344549026584 353.73689119108167,258.17865785569995 379.8470161333462,231.88904018284632 379.9230378932334,231.7804343522654 367.1703148354791,227.33162152561238 368.81570534219645,224.28650140416687 378.38570896883175,217.45394605972217 379.6504081332605,216.9660921520914 388.26824649770424,225.10288196188742 389.11060255100165,221.73370855316864 367.8143152622288,167.630641878735 367.17701407112327,165.5945786465087 372.4233893244309,156.58868628877792 372.42950601768825,156.00427499126056 365.3111313333284,137.44670403705788 364.313819048788,135.36237008221326 335.6303138399744,143.9508387128368 330.7098709599595,144.37683533339407 243.46893030216597,124.50033159220004 242.4867641154924,124.63072272626562 206.86401595545613,67.65051669502975 206.58119170656573,67.11930513379741 190.19864806216356,65.09860618864298 187.28418932445493,63.61635589772016 195.1056924711229,40.49910212265207 195.33812681769632,40.37545447648848 157.12889119107422,11.613468180563025 152.16330128882691,8.052550000000004 145.99214025770925,37.40154892838439 143.35555415994168,47.951347571600884 139.1175594932647,49.21132887950046 135.11403807099123,46.369340596407376 100.04703519106988,107.90515939720319 95.12426214220613,114.54147826092196 87.69102338664379,105.72953295973241 86.9127469777377,105.4293355570768 79.27620098656189,112.85491163066001 78.38753282660764,114.23767084631947 80.18729702218116,137.17326083992486 79.81942160879407,138.4775455890118 8.052550000000338,196.9215031891723" stroke="#009edd" stroke-width="6.294469435127496px" fill="none" stroke-linejoin="round" vector-effect="non-scaling-stroke"></polygon></svg>