<svg viewBox="0 0 385.6439626488857 202.4983337234728" width="1000" xmlns="http://www.w3.org/2000/svg"><polygon points="8.052549999999997,106.49462461655617 18.392383173318763,114.7412892854552 22.691544773267765,118.44747148521833 12.719878284471292,130.34272268866312 13.995645751106736,133.21918571214314 37.390832666634765,117.7432288526104 38.678250977747325,116.40898800068658 65.44024066671375,136.91047687430523 67.40719447992853,139.3605230598257 71.10546377776302,123.30103499358643 71.25721602663509,122.58405365455087 100.07295831989143,120.22902204454999 100.35374367106817,120.41624115964055 104.20871682660766,108.67487588254858 104.8099003999738,106.88594169877592 121.82799760890305,113.28357983168803 123.40027906661965,113.88488616763038 113.14433197325673,134.3100908561389 112.02963743112161,135.58364165804937 125.30082306659426,150.5277192422434 126.86611401776429,151.04921754493967 118.58877158220969,170.1356488715171 118.48915686223302,170.47766635110725 142.84262573332637,179.17638785599388 143.56002647997923,179.7255965203292 160.4225849155115,150.07818214534905 160.5568608977843,149.92287073328748 191.72286978664454,144.2655426509225 193.76235010658968,143.96675365357783 193.76409773328453,140.1357503565157 193.72827138668038,127.56142227384385 202.46028802669719,130.04254802471382 204.3424819466669,130.47162913167972 210.78132112880814,117.50225526674308 211.6766885244066,116.36525719558244 225.74129666665215,133.03061115658033 229.78210079108942,137.0225264387916 240.95380425776932,127.91671648386523 242.33967220443412,125.7567009092088 260.7625699821871,133.05019741031697 262.3616483822476,134.1871080869821 257.78577922666557,144.14302099290194 257.34916383107304,145.2069985858177 271.56785439103953,147.2356468912692 272.8628457510855,148.9718705734483 267.3426756533805,163.94235231567995 266.61100262215007,164.71612554844592 299.4090035466721,164.0967428395304 302.2049149422452,167.63221024772042 319.1481554755952,143.4306632173027 319.25825595550816,143.42383113012306 331.492225164409,155.66521995139897 331.9879685955599,156.20264651158482 312.4911542311089,165.20252190749284 309.41125350222103,167.60670663134783 322.2466975555068,166.70360342527397 322.3506813421624,166.73320596011013 325.0562986932706,172.07343718971947 326.5164407733606,173.68149234212592 317.26130121781136,182.7029572858953 316.5654545333015,183.48394987008191 324.36831632882934,192.30828777686816 326.3367264977202,194.4457837234729 348.7526599376939,166.10699763280695 349.3436490221426,165.45027394113254 341.7898240266146,150.93489793691674 342.0423560800042,150.31456499020692 376.5865273155283,124.21752865703434 377.5914126488857,121.53089760928538 347.92981904882583,108.3610048705375 345.47178214227426,107.02670634396031 339.79024784881733,84.02345851387486 337.2366740177164,82.15550216029055 312.106967635547,87.54200678200118 311.63248699552025,86.8089616138966 336.99695789334476,79.7326021388651 340.54260112890154,80.44835823213339 338.0609712621441,71.56798622056499 336.9579275643697,69.45251693801379 345.7980057867022,71.95617692315841 347.4078612177178,72.51795871745685 344.20154882662575,54.636363997742365 344.1214492710784,54.50285591462284 358.4120837955048,45.79640232641373 358.90491451553646,45.23090592571657 333.0056698578188,8.422168349301273 332.80294516435936,8.05255000000011 274.36929993771594,26.177691720753273 274.2367715822544,26.180426032318564 274.3334735911118,36.00412956233026 261.3113247555226,36.15450984080212 231.40710231997184,72.45462734704029 230.73193588443212,73.48068439655594 138.66841944002192,29.556363173796626 138.33578783108499,29.238732017438224 125.55306384884864,47.89387530097861 125.00110509325862,48.57464970133856 79.41076823996957,27.705710832007526 79.04056265773363,27.483321603540162 50.92649247110933,46.38878214880947 49.98918203553296,45.87295611747663 48.64525712884608,56.598877776508516 52.767617164390344,58.7295088161261 41.30114733332414,76.8923347673624 40.44248009773548,78.25506634030148 26.454184986628775,72.705218992465 25.104434657703337,72.16257380977163 15.582490764419731,81.95503759638063 14.46167952891085,81.28302435504861 22.179490160058435,97.58023949803442 22.211529982254092,97.87772565076716 8.052549999999997,106.49462461655617" stroke="#009edd" stroke-width="5.4138274099040595px" fill="none" stroke-linejoin="round" vector-effect="non-scaling-stroke"></polygon></svg>