<svg width="291.6113959820941" height="408.7110934240627" xmlns="http://www.w3.org/2000/svg"><polygon points="5,40.02091093896888 23.032885759952478,102.03553066548193 23.096091591054574,103.59657602012157 48.379880391061306,119.43969294824637 49.3524346309714,120.35513849824201 59.637217564391904,142.39578650298063 59.82974776881747,143.26674965885468 59.33283925324213,167.35250653442927 59.73479338653851,169.27628130989615 71.68622961768415,180.6963065431919 72.68587207107339,182.37180912005715 68.47875214216765,244.27939166716533 68.4210804621689,245.78373583394568 62.74944938661065,259.3834776006988 62.19865571544506,259.84339678357355 70.63066311099101,263.82057081948733 71.44826111989096,264.24879397271434 68.79245112882927,275.62989665963687 69.310913706664,277.4771253527142 79.23422919108998,283.75333115726244 81.3404105954105,286.1748681040481 82.86404977773782,306.5400611666264 82.82123292435426,307.0048592435196 92.607942257775,330.1172441073577 92.54094990214799,330.6426308134687 117.0566567821661,346.95749807788525 117.66133560880553,347.6683666622848 104.03305159101728,378.0579809517367 103.89906687987968,378.1887333379127 136.88668529770803,403.3347151639173 136.92746325326152,403.7110934240627 141.05331854219548,385.8048114592093 141.26769407989923,385.1519764055847 164.37277496885508,379.7120607243851 164.82861425774172,379.227510755416 155.8769791999366,369.1589431540342 155.9996043377323,368.5110352252377 172.1031102576526,360.22832196136005 173.1872213332681,359.9283357844688 169.55041023995727,350.1231305573601 169.77410645328928,348.93986993585713 177.36783559108153,341.87139426532667 177.52978232887108,340.82293623231817 155.55541589320637,325.69417095312383 155.28191231994424,325.866588315228 157.3036251021549,312.57240242429543 157.61674154666252,311.1418352772016 152.63018012442626,303.7431053733453 152.1032706843689,302.5790542984614 152.12977635557763,286.37718969315756 151.08819086221047,283.16944252327085 156.13242396432906,278.9622297449969 158.06442524446175,277.3064802805893 156.8451643732842,269.5811429170426 157.0872106666211,268.66587124112993 170.1364477154566,270.9993085032329 170.96860927995294,271.9480665412848 187.0738628266845,262.48881859739777 187.3499878399307,262.2317016638117 241.27242609777022,252.95763517613523 242.33090531546623,252.3044022654649 245.89635498658754,235.98697780520888 245.78130289772525,235.7560877170181 223.0898269865429,217.52676976763178 223.14225578657351,217.0803442390752 229.90848369768355,223.44340633891989 231.11492863995954,223.8599372979952 239.0220654932782,215.82256029779091 239.11964131554123,215.61700384493452 247.493394488818,219.89244759781286 248.22419370664284,220.25782368390355 258.39771107549313,195.12150897533866 258.9447182221338,194.22901803569403 248.99169308447745,192.7999381746631 244.30339327990077,191.92238068877487 249.44287203543354,176.57994957338087 252.98531128873583,167.38103721657535 267.6566371554509,167.56399578799028 268.7296799288597,167.42224819533294 269.6192219022196,156.79861512046773 269.7133024710929,156.05723304208368 280.8395676444052,154.50607423076872 285.67758080002386,155.64555430534529 282.2414555021096,143.57246913010022 282.0503816532437,142.14350999321323 285.79350670217536,138.32535768137313 286.6113959820941,137.8307593917707 270.684691626695,135.69201650330797 266.5174758399371,135.8029852550244 266.1335805155104,124.49701725837076 266.4539787376998,122.66751599486452 257.28126890654676,118.34260271536186 256.17531249765307,116.57284229603829 212.85164743103087,122.58870078972541 212.83591879112646,122.77260289079277 177.98358271992765,103.81899915775284 177.06811761774588,102.94153629580978 160.50382079998963,81.04141920537222 160.0937110754894,80.63956578541547 161.29025279998314,62.610218112473376 161.2590867910767,62.35694304050412 172.76371313771233,33.70233674615156 172.8178895644378,33.4653413342312 186.08878392877523,23.154205277445726 186.8245347555494,23.2992189245997 168.31279928877484,5.259686634584796 167.87006719992496,5.013142960960977 147.1851579733193,15.7638194616884 145.41918122663628,17.08257850218797 126.47956849774346,44.21416071802378 125.7327493687626,44.45522254850948 128.3326353066368,48.812414464424364 128.86944796436,49.335761000809725 113.7341272176709,60.838645693613216 111.64862606220413,61.99537990515819 108.43008028436452,38.89124815433752 108.16269340435974,38.20157549594296 96.69651484442875,32.1222114135162 96.47107100440189,32.05016068776604 32.85046983102802,26.818942437530495 30.392432924476452,26.7736264152918 5,40.02091093896888" stroke="red" stroke-width="3.1368159677095377" fill="none" stroke-linejoin="round" vector-effect="non-scaling-stroke"></polygon></svg>