<svg width="399.3945230222307" height="457.9587914684089" xmlns="http://www.w3.org/2000/svg"><polygon points="5,61.23122083087219 5.040777955553494,61.46125876670703 5.952747804461978,63.002106303931214 7.054917688947171,66.34094318875577 7.340945919975638,67.0826528967591 8.611470506642945,70.43922524224035 8.8369143466698,71.12619505135808 9.371105564408936,72.77865123847732 11.580688213347457,79.05333384877304 12.193522631074302,80.95932847959921 13.745706382207572,84.22492995846551 14.629714204464108,84.70453330117743 15.783439075574279,84.99994708655868 16.84920007106848,85.5587407562416 16.93832903110888,86.06236568617169 16.93599886226002,86.78665818250738 17.372322986717336,87.39082664134912 18.470997617812827,88.13735946372617 20.239595804479904,89.49517073645256 20.628151466720738,89.69893068517558 21.934502399992198,91.22801408183295 23.332021191134118,92.72416544414591 24.03980999113992,94.18560591567075 24.39952981332317,96.3775260464754 24.469726151088253,97.51507374597713 24.787502933409996,98.0053251904319 25.282372551155277,98.32296483742539 26.565421795588918,99.35373348538997 29.05083818663843,100.82580690970644 29.485705955536105,101.71998996415641 30.241263217758387,102.46469487855211 31.25663431105204,103.55105202307459 31.306732942233793,103.50478630763246 31.583731768885627,103.61778140312526 32.091708586667664,103.61155332857743 32.67483335104771,103.92295684438432 33.28533760004211,104.3807192153181 33.401263502193615,104.45768014271744 33.92118243558798,104.87985261407448 34.59605759999249,106.147254899377 35.69444096006919,107.43644779466558 35.75211263995152,108.54546795791248 36.8906914134277,109.57307493023109 38.29170545772649,110.5859971223399 39.59397859557066,111.35069024452241 40.67051662225276,111.98370645672549 41.95880874665454,112.36716304055881 41.11353998223785,112.90853854548186 40.220502755604684,113.40098002529703 40.25924181332812,113.91299344354775 40.41157660447061,117.24438798479969 40.18205496890005,117.68566387641476 39.393875342211686,118.47346370399464 38.67472696886398,119.47744845645502 39.059496106696315,119.80662279145326 39.28027960890904,120.30927995056845 39.265716053312644,121.17447034572251 38.88706360885408,121.9275613335194 38.139079395565204,122.57033335813321 37.61508266662713,123.54316192225087 37.37594908452593,124.63252910476876 39.96767943107989,125.31087875907542 41.134802773362026,125.75614189112093 41.25160248891916,125.77793796546757 40.96470044448506,126.74096644856036 40.037875768961385,127.69865296420176 39.43669219547883,128.83337044040672 39.194937173393555,130.09930081368657 40.35332238220144,130.15579156426247 41.63928433775436,130.74249385879375 42.174931911053136,131.3056198414415 43.27069383114576,132.21836127492134 44.16489614220336,132.483020000509 44.944337635533884,132.9674113675719 45.32211626670323,133.29701039544307 44.89365646219812,133.91306124057155 44.51238257775549,135.13937538809841 43.937995946616866,136.3127519362606 44.31519203551579,138.29475669038948 44.30470627557952,138.94904564676108 44.50713969778735,140.10016250400804 44.8365673244698,140.69306540628895 44.816760888905264,141.49145802209387 44.847053084522486,142.22535398066975 45.11880903108977,143.2198903085664 45.788732586661354,143.64554692991078 46.39661539555527,144.2904796411749 47.082558862282895,145.70398764382116 48.045209884410724,147.28027412865777 48.66561735118739,148.2356477068388 48.77863054221962,148.76492644799873 50.43013774219435,150.75171188334934 51.21336576004978,151.11508664570283 52.35194453340955,151.61055628827307 52.60971946665086,151.91121775569627 52.79875441780314,152.19186440686462 52.940603448892944,152.41380183887668 52.9688567466801,152.38088928791694 53.70548138662707,153.58085993514396 55.01707519998308,154.88045014545787 56.065359928878024,154.77860026492272 58.166007182211615,154.5508833313943 59.57372046227101,154.07410024129786 61.25173333333805,153.5795256497804 63.51927893329412,154.28313773032278 63.54491079109721,154.33695373265073 63.60258247109596,154.33739849296398 64.00511914666276,155.59295323654078 64.512804693426,156.433988571167 65.38661802664865,159.13230717775878 65.83109774219338,160.19036641117418 65.47982478223275,161.5099312897073 64.01706126227509,163.3138130886946 63.75695616006851,164.0205073406105 63.648603306734,165.03006663464475 63.38529422227293,165.9724660575157 63.60753407992888,166.2095106781344 63.52743452449795,166.54039430094417 63.77705386665184,167.03004778467584 64.70038328890223,166.9971374120214 64.90106908441521,168.3611348287668 64.60834161774255,169.5036485158489 64.88621425780002,169.89767872414086 65.67730659560766,170.56966315739555 65.82002943998668,171.00949832051992 66.08799886226188,171.7784294792218 65.91614890669007,172.1920235005673 66.35218176001217,173.5324185868958 66.89860636449885,174.15413856244413 66.96559872000944,174.67890799517045 67.61076423106715,175.14141561381985 67.24114119110163,176.01484082138631 68.06864241778385,176.64633754687384 68.1111680000322,177.2373634801479 68.20699619560037,177.84928934113123 68.69720547553152,178.67378560337238 69.05080860445742,178.97441022773273 69.1355684978189,179.23189756146166 69.21916330675595,179.7104051769711 68.72283733333461,180.97648863471113 68.83847196446732,180.91778734931722 68.89235711994115,180.8021635597106 69.82966755563393,180.38636212353595 70.2386121955933,180.27874280075775 71.45903815107886,179.86649805027992 72.2574122666847,179.17853233555797 73.28822072886396,178.19394160521915 73.99600952886976,177.66339925164357 74.54301667562686,177.57490128325298 75.1037135644583,177.5882426877506 75.25371818663552,177.56333873193944 75.19080362666864,177.8910923540825 74.91147463116795,178.4389779198682 74.58728988445364,179.75709963787813 74.77341212448664,180.78348586487118 74.81593770673499,181.47322540270397 75.0105068088742,182.1438405023655 75.61635072005447,183.18088849063497 76.4412305066362,184.21215050760657 76.85221404442564,184.63550462888088 77.32319943117909,185.00727291486692 78.49265294219367,185.50355591933476 79.20481080887839,185.59694238158409 79.3987973688636,185.78682806622237 79.90852181334049,186.01807036576793 80.65708856889978,187.17961456172634 81.18982343119569,187.90490954287816 81.39749973337166,188.65599423262756 81.79479352885392,189.47422449837904 82.15363953786436,190.05365420645103 83.02075363555923,192.30732337449444 83.20629333332181,192.3264447785332 83.35192888893653,192.37980682752095 83.06590065779164,193.6258070062031 82.91210951120593,194.1696514186915 82.07587015116587,196.32544994546333 81.8128523377236,197.2441481212736 81.6450801778119,198.02810680516995 81.66051754669752,199.726303850126 81.42021888005547,200.92957460670732 81.13972480001394,203.08664113923442 81.02816796442494,204.559357208258 80.9629232356092,206.10898896702565 81.09516031993553,208.0948139441316 81.5076002132846,211.52483321528416 81.4065291377483,212.10020328179235 82.82094165333547,216.6675390768214 83.15211690671276,218.14594480907544 83.17396223999094,218.31846188590862 83.23338154668454,218.54033287684433 82.68287914665416,218.5905761764152 82.75161912897602,219.16414931835607 83.54212892439682,228.62789113051258 82.71433642669581,228.48783871071646 81.96576967113651,228.27398071746575 81.4141021866817,228.40603027207544 81.31157475558575,228.74304527579807 81.25594197330065,229.1889891407336 82.19296113785822,230.60728916683001 81.64828415994998,233.48343138652854 81.178755128989,236.31952258979436 80.7398095644312,237.59861937421374 81.87926215108018,238.02809546561912 81.66838186676614,239.66685474314727 81.0304981332738,241.88756312138867 80.83155996445566,245.86877720768098 80.01745720894542,247.5857231033151 79.65424213337246,248.84608271281468 79.56686080002692,252.16477300226688 79.56423936004285,252.2665779844392 80.2702805333538,253.52557720581535 81.43623879109509,257.62838893028675 80.80942336004227,258.6352977050701 80.96496213332284,262.6811131396098 81.57167985779233,264.9798287964659 82.10965760005638,266.4801379501587 82.28412899549585,267.51190019899514 82.18451427563559,269.33936558297137 82.43762887106277,271.1290312127676 80.47009251557756,272.57906759611797 80.97515662224032,275.6786995966686 80.84437589335721,277.4127498124726 81.06457685341593,279.1827916476177 80.62737891555298,281.28175306366757 80.99496305780485,282.39612366980873 81.77207438228652,284.2087974741007 82.93686755548697,285.11379530793056 83.79145699553192,286.9775635491824 84.71566023107152,287.545625248109 86.17580231116153,288.248810711375 87.62312846223358,288.77464262623107 88.607042275602,291.6575838680146 90.03194055112544,293.2683875695802 92.45997653331142,292.52832606900483 93.48525084450375,292.4327623912832 93.55719480896369,292.8576870789984 94.79771847114898,292.52343676559394 95.2232655644184,292.44831927178893 97.63091256888583,292.46032029326307 98.52540615107864,292.48165544087533 99.86059292440768,292.838129893702 101.04024092445616,293.31105770659633 101.29888967121951,293.22305053984746 101.70230016007554,293.21549436741043 103.64362211560365,294.44047990092076 103.85450240003411,296.5032939648954 103.5483764623059,298.06161476660054 103.55886222224217,298.8727728422964 103.40477980452124,299.84260286274366 103.79187911108602,301.8706983529846 104.50607587548438,302.6640639754478 104.19266816007439,303.27786477969494 104.22063018672634,304.06944751366973 104.68433379556518,304.9521411425667 105.55989475559909,306.05572544713505 105.89165255113039,306.61440456612036 106.22253653325606,307.92109484161483 106.56303246226162,308.8104398237774 106.64633599994704,309.80200414638966 106.88372195558622,310.42600738233887 106.92974279110786,311.90734133991646 107.47616739559453,313.20244485966396 108.85970517341048,313.50644197769 108.91621176886838,313.92021516070236 108.89232753776014,315.16375224338844 109.13874289777596,316.1046225046157 109.12534442660399,317.31659260508604 109.82992924447171,319.112536074128 110.12556942226365,320.11605368444 110.08420892443974,320.9626847933978 110.40402460447513,321.93552881799405 111.80154339561705,322.8230397082516 111.9305764978053,323.5341124611441 113.02866858663037,324.59316220041364 113.59344327112194,325.97662993712584 113.68694129772484,326.09484425361734 114.27035733335651,327.0694433331955 114.5304624355631,328.4844486635411 115.76836465776432,331.2077751287725 117.22064241778571,331.33131949568633 118.05950321780983,331.6766211906215 118.12591303116642,331.73083839623723 118.09212558227591,332.7058570186491 117.91736291558482,333.19647551875096 118.00911331560928,334.2537013555411 118.62194773333613,334.82386350503657 118.55233393784147,337.07872262690216 118.82787640881725,337.13427168421913 119.97169806226157,337.7408664809773 120.63696128001902,336.67610264231917 121.8093275022693,336.8227523904643 122.01904270227533,337.29114214656875 122.00913948449306,337.8861823498737 122.5581855289638,337.87151745002484 123.01256846217439,338.01461127982475 124.46572003548499,337.7861943768803 125.30516337777954,337.7875275501865 125.80498460447416,337.6573209228227 126.04761343996506,337.7866387680406 126.10586766223423,338.3150191429304 128.34282979555428,339.1366947767092 129.5172349155182,339.4566541753011 130.19764423114248,339.76505904609803 130.2879382756073,339.95481226133415 128.6789566577645,340.8044780557975 128.1872910221573,341.56570828624535 126.58122211555019,342.52868521178607 125.69197141332552,342.9086311137071 125.63109575107228,342.92329567932757 124.73572835559025,343.02816951385466 123.9594908443978,343.2050329017802 123.09004657785408,343.4569963279646 122.03593642672058,343.56720246293116 120.90201799117494,343.7942802530597 120.22859918221366,344.10312344832346 119.61605603562202,344.39196921151597 118.87360597332008,344.5897172471741 118.35601720889099,345.3878176326398 118.43145642662421,345.5375722278841 118.82962403562851,346.38943842519075 119.027105848887,347.0702180227963 119.2091502933763,347.69233853626065 119.89451121771708,348.419328574324 119.93936696881428,348.6281822383171 120.44763505784795,350.16880518908147 120.14849962666631,351.5849956981838 121.13794759113807,353.2651271073846 121.81282275554258,354.10896506684367 121.98933304881211,354.53377116151387 122.14924088888802,354.90347621944966 122.3679854933871,355.30739606241696 122.14632817776874,355.45314473542385 121.99486720003188,357.34564697765745 121.24659171560779,358.0152840629453 120.82512241776567,358.76534628507216 119.44216718222015,359.1421538341092 118.3714545777766,359.1888103844831 118.11950506665744,359.7664620971773 117.31093646225054,359.62738147669006 117.39831779559609,358.97685626195744 116.90403072000481,358.8475508169504 116.15051235549618,358.68091997725423 114.90853233786765,358.54361607087776 113.10847687115893,358.58005271456204 112.47321457776707,358.24812355602626 112.07359061331954,358.96663624676876 110.96180878218729,359.872216631833 110.11129713780247,360.1952564305975 109.70147868443746,360.1703730516019 109.36884707561694,360.49341241444927 109.44894663104787,361.0226271866122 109.7434217245318,361.6073835969437 109.67730318219401,361.83577587804757 109.56341617775615,362.2241310826503 109.46933560888283,362.54539007809944 109.10000384005252,363.21145668742247 109.10087765334174,363.4656190003734 108.6741654756479,364.04192651895573 108.0674477511784,364.56624508363893 108.81514069333207,365.37271570193116 108.81368433777243,365.4886872677598 108.7790230755927,366.33781055686995 108.57280312885996,367.7090200317325 108.15191637328826,368.3581865532324 108.80407239112537,369.62496665562503 108.6374653155217,371.63687046279665 109.31437937775627,372.478860987816 108.46415900450666,374.12639833940193 107.3115992177045,374.9679350630613 107.25072355556767,374.99370540847303 106.62128668453079,375.8881122584571 105.46901816886384,376.76563160622027 104.96977948443964,377.50452241062885 104.48568689776585,377.70890548010357 103.86964849778451,377.2063893767772 103.1499175822828,377.31435712397797 102.32562033785507,378.67216922843363 101.69181440002285,378.6921631270088 101.1902455467498,377.7191246286966 99.4065012622159,377.47741942422 98.8108518399531,377.2446001904318 98.26442723558284,377.50629965553526 97.88927004439756,378.5108850465622 97.46314040897414,378.1825403016992 97.30818417784758,378.9778535255464 96.8660346311517,379.9642156705959 96.55845233774744,381.17139253934147 96.21824767999351,382.4612028641277 95.76590364449657,383.705242893775 95.2716165689053,384.0460197801003 94.3177036800189,383.8096530777402 91.9036487111589,383.5226360280067 90.60312320000958,383.5519597684033 90.70594190224074,384.91773088410264 90.93866752006579,386.76866161305225 90.59118108451366,388.63468266191194 90.41933112882543,390.1919095959747 90.2131111822091,390.6197563300375 90.06689308444038,391.28396119724493 89.39405681774952,391.82376502023544 88.88229347555898,391.84064775233855 88.8490885689389,391.43946037604474 87.94207032886334,390.3811752315378 87.46030791115481,389.63566317473305 85.89676458667964,387.979799926281 85.88715264003258,387.82607547508087 85.71850666671526,386.69446473615244 85.50908273784444,387.3240266672219 85.16829553782009,387.55283666355535 84.84440206224099,388.024228938506 84.71216497779824,390.61486919655 84.60788992000744,391.6105093464721 84.40895175107289,392.5044046692783 83.66854058671743,393.90566272538854 83.18910833774135,395.1109863425372 82.35549041780178,397.28615010896465 81.50730894226581,399.5354850590229 78.85237276449334,401.66395770706004 78.38604771555401,402.19662799325306 77.09105635550804,404.5538674099371 76.66143146669492,404.9070513235056 76.51987370662391,405.09008477744646 76.33899434667546,406.09543330344604 76.34219832892995,407.65742397413123 76.80852337775286,409.5099412619602 76.12257991102524,413.09320761670824 75.80451185780112,414.2784359215875 75.48877397330943,414.9598948954372 74.36563256883528,415.62980166927446 71.09844451548997,417.18506148981396 70.76843434665352,417.37474824266974 67.74416640005074,419.5874521808 66.9944345599506,421.8281199639314 66.71394048002549,422.2012662385823 66.07634801778477,422.63082789606415 65.87041934218723,422.7161182189593 68.93575651547872,423.88841260271147 71.65535488002934,424.9265476069413 73.01209571561776,425.7572297853767 74.31640775105916,426.5532602593303 77.13066922663711,428.67969591065776 78.69188238226343,430.4698483555112 81.27487459557597,433.42068090080284 84.66235761786811,436.98179426050046 86.09220750222448,438.48271284112707 91.23925930669066,442.2995930496836 97.00497095112223,445.19741083995905 99.37387889774982,446.7968798332731 102.2000824889401,448.70547848020215 106.82080739561934,452.165965209133 111.3419175822055,452.70117876603035 113.06362112006173,451.25365629192675 114.02132053335663,450.5389968715026 117.88270165328868,447.66256927658105 119.39002965332475,446.9110319959 120.73075057775714,446.24255253956653 123.07752191997133,446.66984661784954 127.27415608882438,448.74190026300494 130.797953991103,449.70707531942753 135.11750456888694,450.2502898002276 139.97124636441004,450.85080008476507 143.5230062933406,451.3145066144061 146.61747057770845,451.72091527294833 149.3088156443555,452.4355708723306 151.27343928883784,452.9587914684089 152.9849483377766,452.85352562449407 156.80409514671192,452.6198974545114 159.36582456890028,449.3370846430771 161.95784618670586,446.0146916382364 163.88606094231363,442.7348899921053 165.70825301331934,439.6358235969674 167.27004871109966,434.89985806605546 167.9239523555152,432.9120726516121 169.66109326225705,430.7701305714436 172.10544042673428,427.7535195380915 174.2899737600237,427.88855940441135 177.91134748444892,428.0733506666147 179.26925340446178,428.2381523591466 181.92127687111497,428.5850795096485 182.5111008711392,428.6565970747615 185.21438805339858,429.0470559197711 186.69608419563156,429.3317928224569 187.375910968869,429.3393443421228 188.039426560048,429.35089372476796 189.13344085332938,429.428185731289 194.0215526400134,429.7706689523766 194.6247751112096,429.451284486684 197.1177645510761,428.13065369497053 201.07905166223645,426.0344192936318 204.92441287112888,424.5951622945722 207.60061184002552,423.597005409305 208.51811584003735,423.38822258030996 209.34241308446508,422.8551591434516 210.55992632883135,422.06888822757173 211.82695566222537,421.24707665352616 213.1056358399801,420.4030507755233 214.61150748445652,419.4213113572914 216.16980792884715,418.43956757860724 218.05724472890142,417.21349230152555 219.97380863991566,415.97408320673276 220.94082872895524,415.34771252586506 221.43016419559717,415.0323053408647 223.56518143997528,413.6507277197088 225.19921237335075,412.59343740472104 226.1138036622433,412.00259649637155 228.16726499551442,410.67875173466746 229.2391426844988,410.1678699242184 231.53727175109088,409.0705806526821 231.83436828444246,408.9328638006118 232.71691975113936,408.5152702408377 233.73636863997672,408.02659592428245 234.69756330666132,407.5690180846723 235.6762342399452,407.58234560792334 236.8017058132682,407.5925633752486 237.1395803022897,407.5947846289491 238.69671566225588,406.9292960219318 240.43473038228694,406.1856167966034 240.5780357689364,406.37842276197625 240.7388174221851,406.59655096696224 241.05018623999786,407.3824326742906 240.75891512888484,407.8222408896545 240.78804223996121,409.42597858409863 241.2569887288846,410.50105384760536 241.8307928177528,411.5183723187074 243.04218936886173,412.84621021314524 244.1842633956112,414.47700990736485 244.65320988441817,415.192230167042 245.87946126214229,416.720394892036 246.00179512891918,416.59600978612434 246.70084579556715,415.8363706561504 247.58630997338332,416.6848562974483 248.07564544002526,417.15129989606794 250.7932049066294,419.40354227792704 251.90586055105086,420.309763506928 252.3165528178215,419.72338548884727 251.24467512883712,418.8571423884714 249.06596721778624,417.11576137086377 248.54459192894865,416.6937409466482 247.2833880177932,415.21888429345563 245.9610171733657,413.6951515718247 245.48041983996518,413.01546565792523 244.594955662149,411.7582633283455 243.45899832888972,410.10567553632427 242.43081130669452,408.35534058336634 241.67933184001595,406.6538595635793 241.6065140622668,406.4495032597915 242.11623850674368,405.96526691596955 243.04539335111622,405.4721444112947 243.38909326225985,405.34775297512533 244.39106588449795,405.1656082458794 245.04060046223458,405.2011486926349 245.1716724622529,405.21447635861114 245.39012579561677,405.1389529070002 245.52702321775723,405.39217849611305 246.28432810667437,406.88042828824837 246.9862914844416,408.15987084503286 247.11736348445993,408.40420799097046 247.24173624883406,408.3340166202979 247.58630997338332,408.1509858528152 248.15428864001296,407.7689308495028 248.95819690660574,407.2447147703497 249.96890766220167,406.4672733806656 250.20774997328408,406.2184915583348 250.45241770672146,405.8986288039596 250.9009752178099,405.17893591395114 251.32040561770555,404.45479811012046 251.80100295110606,403.68623207876226 252.12140117329545,403.26862860587426 252.51170446223114,402.84658174111973 252.85540437337477,402.5089436691487 253.3447398400167,402.06912488059606 253.88359139556997,401.5715510547161 254.24185486231,401.27389474830125 254.87391317333095,400.79408970905934 255.5729638399789,400.36315281363204 256.62153984000906,399.76339388045017 258.03711744002067,398.9548274091212 259.54881450673565,398.09294560563285 260.3672863289248,397.61313366075046 261.0401225956157,397.16441969567677 261.7187842845451,396.6090793685289 262.33627903996967,396.21811894117855 263.2829101510579,395.7294174345443 263.77807103993837,395.4895090267528 264.4683835733449,395.1340886845719 265.4062765510753,394.6187281733146 265.9276518400293,394.3210625028005 266.93544988450594,393.7657150310115 267.7160564621445,393.3169932545861 268.278209706652,393.0015546287177 268.7034655289026,392.7971857013181 269.26853148441296,392.62835905340035 269.7200017067371,392.5750453483779 270.08700330671854,392.566159729613 270.596727751079,392.54838849097723 271.0802377955988,392.5439456811873 271.6016130844364,392.55283130076714 272.16959175106604,392.5439456811873 272.76961024000775,392.463975088147 273.1395245511085,392.3529047721531 273.67837610666174,392.0685645088088 274.3133471289184,391.5976251429529 275.09395370667335,390.99339958117343 275.8745602844283,390.38917236751877 276.41341183998156,389.9715437691193 277.2231455288129,389.34954226587433 277.8785055289045,388.85638268699404 278.6532866844209,388.3187930636341 279.4368059732951,387.82118827983504 280.2844049066771,387.2924819694599 281.1116148622241,386.7771031722659 282.29417557339184,386.05734801327344 283.3398388621863,385.4131207285682 284.0447149510728,384.9377242177143 284.67094784008805,384.48009857314173 285.154457884375,384.0358009241172 285.5185467733536,383.68924813787453 286.44770161784254,382.76954772428144 287.269086151151,381.96980512305163 287.87493006221484,381.4144266139483 288.30018588446546,381.0856418788899 288.68757646228187,380.8279453932191 289.19730090675876,380.5391472505871 290.123543040012,380.0637402551947 290.84006997337565,379.71718124032486 291.21289699559566,379.4994708119775 291.6760180621641,379.1351385950111 292.0109798400663,378.71304564143065 292.16244081780314,378.3842568874825 292.2643857066287,378.0021504237084 292.31972721777856,377.63781573821325 292.38963228440844,376.931360185612 292.45662464003544,376.1671415732126 292.50905344006605,375.3584887684556 292.62847459549084,373.97221993340645 292.7042050844757,372.94139900867594 292.7944991288241,371.70174161472823 292.88188046228606,370.60426134441514 292.916832995601,370.3021200703224 292.9692617956316,369.7200526278466 293.1585880178027,369.1690866133431 293.4498591289157,368.60478935204446 293.9421073066769,367.85831517056795 294.4780461511109,367.07629189512227 294.9295163733186,366.41423593624495 295.40720099559985,365.74329129664693 296.0509101510979,364.80129935836885 296.5722854400519,364.04592556355055 297.03831921785604,363.3794171297923 297.48687672882807,362.73512373294216 298.08980792888906,361.92197835078696 298.48884935106616,361.45097473904025 298.72186624002643,361.2243594361353 299.243241528864,360.8288929585833 299.9306413511513,360.39343467040453 300.37337344000116,360.1579313611146 300.524834417738,360.0735055853147 301.1539800177561,359.72691522038076 301.68700615118723,359.4247590742307 302.49091441778,358.97596756502753 302.6773279289482,359.29145476059057 303.0501549511682,359.7535760370083 305.22303743998054,359.3625504045049 306.2570498844143,358.7671236806782 307.10756152891554,358.74490623455495 308.08331975119654,358.89598482416477 308.90761699562427,359.28701128216926 309.6387074844679,360.2112528870348 309.7290015289327,360.15348789992277 309.3445236622356,359.52251551963855 309.12024490663316,359.0426198269706 308.91926783998497,358.0383902831236 308.9804347733734,357.69179672631435 308.9979110400891,357.4651775683742 308.9687839288963,356.97194683295675 309.0852923733182,356.3542959812912 309.2367533511715,355.92327242181636 309.4522939732997,355.5633448877488 309.94745486218017,354.32359000551514 310.09600312891416,354.4035744012799 311.5319697066443,355.39448979322333 312.3475288178306,355.941046605818 313.07279388443567,354.7190681248321 313.2970726400381,354.15473396365996 313.6990267733345,353.62150351074524 314.50293504004367,352.55503874470014 315.1815967288567,351.5818851547665 315.58355086215306,350.90200818597805 315.5515110399574,350.53318516432773 315.38257379550487,349.9421783160651 315.12916792882606,349.04455586889526 314.7272137955297,348.4713198239915 314.6456578844227,347.8803074611933 314.73012650664896,346.8760271894862 315.63889237330295,346.47609129728517 316.594261617749,346.2094669670332 316.8185403733514,346.3872165562352 317.85546552890446,345.24961671431083 318.9040415289346,344.22310558042955 319.38172615109943,343.75206424325006 319.6293065955397,343.4365548613714 319.8914505955763,343.40100448031444 320.12738019553944,343.41877967165783 320.3370953955455,343.34323509875685 321.2808137955144,342.8899671197869 322.0614203733858,342.54334980255226 323.0954328178195,342.13896224531345 323.3517513955012,342.1034116555238 323.6867131734034,342.09008018276654 323.9372063288465,342.09008018276654 324.16148508444894,342.067861059797 324.4877087288769,341.84566970786545 324.5022722844733,341.6590287995059 324.5547010845039,341.46350005979184 324.5284866844304,339.9481464602868 324.5372248177882,339.77483556233346 324.49644686223473,339.3215602635173 324.4906214399962,338.97938123578206 324.4352799288463,338.49499703082256 324.417803662247,338.3216849932214 324.4061528178863,338.0061678576749 324.3245969066629,337.30402951675933 324.3420731733786,336.8507491495693 324.2634299733909,336.3396966399159 324.275080817868,335.9041900902521 324.21682659559883,335.4286870609503 324.13527068449184,334.90429935627617 324.11779441777617,334.67321285407525 323.72166570671834,334.03327974054264 323.5818555733422,333.88662814098643 323.5818555733422,333.5399967005942 323.7129275733605,331.500192978885 323.80322161782533,330.0958727183752 323.91973006224725,327.79827886866406 323.96050801780075,326.9583401440177 324.20226304000244,326.02062700217357 324.3566367288586,325.40733379015 324.4847960177576,324.61182773986366 324.5925663289381,323.53189036238473 324.8750993066933,322.28306730784243 325.61784064001404,320.28315803426085 325.57414997334126,319.8165099324542 325.6760948621668,319.07431520696264 325.944064284442,318.86987789854174 326.4916539733531,318.34545089455787 327.3217766400194,317.4165898412466 327.56353166222107,317.2210396482842 327.8955807288876,316.8032727470272 328.3033602844225,316.2121756756096 328.39656704000663,316.07884529058356 328.5480280178599,315.7321859128424 329.0169745066669,314.629983252089 329.1742609066423,314.3633204920334 329.7509777066298,313.5055530978134 329.8296209067339,313.3944430880947 330.26361486222595,312.87444750010036 330.8752841956448,312.27889549406245 331.0704358400544,312.1677848675172 331.71705770667177,311.7144529321231 332.01415424002334,311.48778661561664 332.26756010670215,311.27000895526726 332.41610837331973,311.1544533747947 332.7801972622983,310.7811195481336 333.05399210669566,310.4166740135406 333.24040561774746,310.2922290592105 333.4938114845427,310.11000596388476 333.7705190400593,309.97667189646745 334.0763537066523,309.85222669428913 334.4812205511844,309.7144479958224 334.7317137066275,309.62111399002606 335.25891441770364,309.64333637594245 335.7424244622234,309.6788921887055 336.23467263998464,309.8566711670719 336.5201183288591,309.94556060252944 336.77934961777646,309.9411161316093 337.07353344000876,309.9411161316093 337.49005112890154,309.76333722122945 337.8017112177331,309.656669806398 338.459983928944,309.39000104396837 338.6172703289194,309.31000035250327 338.9201922843931,308.9499968823511 339.08912952884566,308.58999282552395 339.1939871289069,308.1366535492707 339.2842811733717,307.7366475331364 339.5405997511698,307.34552983922185 339.7969183289679,306.9677450458403 340.05323690664954,306.6655167459976 340.61247744003776,305.97216790774837 341.01734428445343,305.381041859393 341.21540863998234,305.07436682021944 341.3377425066428,304.86102741147624 341.45133823994547,304.6521323742345 341.61445006215945,304.367679239891 342.16203975107055,303.42542561667506 342.44166001782287,302.71873276215047 342.5552557511255,302.474278732785 342.8144870400429,301.9364789162646 343.16692508454435,301.2875616924139 343.43489450670313,300.82531812402885 343.4785851733759,300.7319803630817 343.5630537956022,300.1986209725728 343.68830037338194,299.4741390714189 344.2242392178159,298.92299787455704 344.4397798399441,298.8029911413323 344.9786313956138,298.56297747942153 345.89904810662847,298.238514151657 346.2194463289343,298.0785046638339 347.3000621511601,297.811821926618 347.56220615119673,297.6384779748623 348.0078509510495,297.1406689470168 348.15931192890275,296.75397723162314 348.3748525510309,296.4695139285177 348.5437897955999,295.98948127398035 348.65156010666396,295.55833994521527 348.86127530667,295.26943033660064 349.1408955733059,294.79383985034656 349.34769806219265,294.558266613516 349.8049937066389,293.9982235705247 350.0350978844799,293.73598070512526 350.3001545955194,293.5004063403467 350.81570446223486,293.0692601543269 350.92347477329895,292.9270261764177 351.15066624002066,292.6381131268572 351.3691195733845,292.31364109774586 351.39242126222234,292.2647480110172 351.59048561775126,291.9136064334307 351.91379655105993,291.44245356641477 352.1205990400631,291.14909372653347 352.28662357339635,290.9890791042708 352.6652760177385,290.7179429519456 352.9303327288944,290.4956999559654 353.2944216177566,290.175669649092 353.57986730663106,289.940091488068 353.87405112886336,289.7000681976788 354.1099807288265,289.495603707619 354.284743395634,289.3400327732088 354.62261788442265,289.09556394070387 354.86437290662434,288.9133233622415 355.77022606227547,288.46438861306524 356.4576258844463,288.531062148395 356.8042385067092,288.49105802970007 357.18871637328994,288.2243637195206 357.3663917511003,287.96211400069296 357.81203655106947,287.47761793859536 358.24311779555865,287.25537168304436 358.96547015116084,287.1709180473117 359.7286004622001,287.1220238223905 361.10048739565536,286.57085181126604 361.58108472893946,286.44194848125335 362.11702357337344,286.2419259236194 362.2539209956303,286.1441370517714 362.58305735117756,285.272925192141 362.78403441782575,284.69952367513906 363.1655995734036,284.0016609063023 363.6048364088638,283.71718118339777 363.47405567998067,283.5149336575414 363.241330062272,283.1393306183745 362.4112073954893,282.13920106890146 361.43253646220546,281.57912654354004 359.9878317511175,280.75234726816416 358.4382694399683,279.7833224586211 357.986799217877,279.4988373038359 356.05567175114993,277.93860751902685 354.9401033956092,276.87177739152685 353.9235672177747,275.8938452490256 352.5895455288701,274.7914438252337 351.9050584178185,274.2224602928618 350.955514595611,272.26656822359655 349.34478535107337,268.2302634861553 349.33604721783195,265.5763973898138 349.42925397341605,262.7313464003382 349.7671284622047,259.4772744108923 350.4865681066876,255.63634087471291 351.1594043732621,250.68837320408784 352.47303708444815,247.30519764043856 354.1449332621414,243.815271051717 357.3984315734124,240.54758279921953 357.8207746844273,240.00963220815174 358.70915157336276,239.31607414077735 358.9313914311351,239.12445611134171 359.2101378844818,239.30273646430578 359.2946065067081,239.69397463975474 359.72277503996156,240.00963220815174 359.83054535114206,240.32528932543937 360.40726215112954,240.63650012621656 360.8121289955452,240.56981213437393 361.08883655106183,241.15666577150114 361.05970943998545,241.40118766017258 361.07427299558185,241.51677973149344 361.1849560177652,241.6012508223066 361.4529254400404,241.68127603642642 361.40632206224836,241.8724472639151 361.4034093511291,242.0636183259776 361.66264064004645,242.31258504244033 361.83449059561826,242.31258504244033 362.0325549511472,242.53043068922125 362.09954730665777,242.7660594121553 362.19857948448043,242.94389224413317 362.60927175113466,243.1839663402643 363.15686144004576,243.9308618598152 363.5238630400272,244.33987500274088 363.858824817813,244.57994758174755 363.93164259556215,244.89559816819383 363.8617375289323,245.36685031710658 364.0306747733848,245.48688608111115 364.64234410668723,245.64693366503343 364.9685677511152,245.86477602354717 365.0763380622957,246.30935159872752 365.34722019557375,246.49162732594414 365.52198286214843,246.8250581450411 365.70839637331665,246.91841868427582 366.273462328827,246.90508146677166 366.4802648178302,247.05179081461392 366.8356155733345,247.1229225845309 366.957949439995,247.2518488591304 366.957949439995,247.54971272312105 367.16475192899816,247.70531308930367 367.4210705066798,247.71420453547034 367.6133094399702,247.78978181368439 367.7560322844656,247.41189516428858 368.67644899559673,245.5758014197927 369.5123970845016,243.9086328629637 370.63670357328374,241.39674181002192 372.0348049066961,238.30685434525367 373.08338090672623,236.02164358226582 373.40086641779635,235.35030285367975 373.57271637336817,234.98573286144529 374.4377915733494,233.16287387453485 375.4630658845417,230.99765353195835 377.3708916621981,226.71605678024935 378.6845243733842,224.19063162145903 380.09427655115724,221.28279998886865 381.01178055116907,219.4020261146361 381.94676081778016,217.46788025053684 383.2633062399691,214.73336926742923 384.44586695102043,212.29228940000758 385.5876497066347,209.92677278781775 386.92749681777786,207.10768418991938 388.1129702399485,204.65318027243484 388.88192597334273,203.04795553040458 389.3683487289818,202.03857000893913 389.6217545955442,201.50941892783158 390.2712891732808,200.13984553678893 391.3955956621794,197.82311277254485 393.0529282845091,194.40355301916134 393.80732046219055,192.90497763850726 394.0053848178359,192.5092097427696 394.3945230222307,191.63673913502134 394.255295431125,191.55980858486146 393.5973139910493,191.08844162267633 393.13623182219453,190.56059836805798 392.61252636439167,189.36660960392328 392.14503623114433,188.07344801112777 391.901824853383,187.27522378508002 391.4838508089306,187.44687558914302 390.81130581337493,185.7672613990144 390.7055744000245,185.77571064187214 390.3551752533531,183.3049603723921 390.34177678229753,183.16221099701943 387.3938218667172,183.28761699522147 382.01695715554524,183.0888351140311 377.8171190044377,182.68193204753334 374.34254592005163,182.57253502961248 370.41009464894887,182.52228353579994 369.12121998227667,182.32216685381718 368.51013319112826,182.26079770177603 366.49774108442944,181.94639170571463 364.940314453328,181.2846701272647 364.4658338133013,181.10145116766216 363.248320568935,180.73145513539203 361.9209981155582,180.15644805220654 357.4100824177731,177.95335214596707 354.2876561067533,176.70993183529936 351.7926277689403,175.84896145248786 350.9147366400575,175.554558619624 348.9914734933991,175.67952422052622 348.94807409786154,175.81516295985784 348.23038208007347,176.21185020485427 346.9359732622979,176.47823507373687 343.21265464881435,177.53576649189927 341.90513863111846,177.86485429364257 341.1012303644093,178.03384513652418 340.4382973156171,178.15391749888659 340.1327539200429,178.22818444587756 338.2959982934408,178.16636944387574 337.4076214043889,178.1628117453074 336.9584813511465,178.08409765164834 334.39442175999284,177.98848444921896 332.2215392710641,177.99737870239187 330.7156676267041,177.98892916191835 324.52236999117304,177.40279709233437 320.258743466693,177.00833555974532 316.3309525332879,175.4785119027365 312.0638307555346,176.77352610544767 309.95764935109764,176.87536584265763 304.75671239115763,177.28539260610705 299.86190136894584,176.8420122221578 295.17651427560486,175.57501562673133 292.34099000890274,174.73049543140223 289.9918884978397,173.73387739725877 289.25672021333594,173.80859055183828 287.20791921776254,174.01671992026968 286.28779377776664,174.0038230206119 284.77143637335394,173.90553972643102 283.33779996447265,173.7841308908537 279.86264433781616,173.3923312263796 277.6848102399381,172.97651583899278 276.2470960356295,172.60872981196735 275.3301745777717,172.33700358716305 274.40801024006214,171.85847999539692 273.06670677335933,170.2650245380355 272.250565120019,169.60727052367292 269.84903480892535,167.83768458280247 269.29008554667234,167.079413334548 267.8348950755317,166.03517394629307 266.75748323556036,165.4490101497504 265.0780140089337,164.8672921883408 264.5231425422244,164.2695620446466 263.40495274669956,162.86417824972887 263.48621738667134,162.01649623154663 260.7887556266505,160.92420022882288 260.693801244488,159.68957902415423 261.2125550933415,156.40819271747023 261.3771232711151,155.17354626464657 261.5329533155309,153.61644087790046 261.2987713421462,152.3724387672264 260.9579841422383,151.4264231757261 260.05970403563697,150.4586098952568 259.0478281955002,148.89657877827995 258.87539569777437,148.24454315833282 258.81481130665634,147.4154855379602 258.62198983109556,146.61044270254206 258.2812026310712,145.65773075981997 258.2238222222077,143.92309061728884 258.2835328000365,142.53625826037023 258.2771248356439,141.902440059348 257.9045890844427,141.70495527982712 257.4379727644846,139.7234259241959 256.84028444450814,138.40906836098293 256.7645539556397,137.7156359559158 257.9596393244574,136.96660197002348 258.2736295822542,135.59351466275984 257.4210790399229,133.9953494904912 256.7933897955809,133.13554696552455 256.2428873955505,132.08136133942753 255.32625720882788,131.25891513453098 254.66274161776528,129.57175657176413 253.7131977955578,128.2004025321221 253.35085653339047,127.44066072127316 252.67743772442918,125.96387173648691 251.8997438577935,124.90475885570049 250.97437553771306,123.72642864333466 249.89783751114737,122.09703981364146 249.30772223998792,121.21228064550087 248.557699128869,119.8137400689302 247.24872675561346,118.44099092646502 246.25811370671727,117.34803451842163 245.37556224002037,116.47126337920781 244.33601564448327,115.3146852676291 243.59676956443582,114.3845251678722 242.54964992008172,113.05222302931361 241.61525219550822,112.207908530836 239.4752833422972,110.44809406687273 238.47185436438303,109.4729835522594 237.3085175466258,108.39110407314729 236.62024391104933,107.86840135644889 235.49331598216668,106.93687531969044 234.4062921955483,105.8772263105493 232.8043010844849,104.35402755800169 231.83116430218797,103.29703533172142 230.66491477331147,102.7422903329716 229.53594794671517,102.4348889355897 227.84337152005173,101.33562515466474 226.67071402666625,100.19097922951914 225.7258305422729,99.012961991888 225.07571342226584,99.73810174514074 224.06995427561924,100.58824722073041 223.64236828440335,100.42053170583677 223.16235349338967,100.39294983173022 222.8509846755769,100.18074723379686 222.10853461327497,99.37642190826591 219.9522545777727,96.45626927126432 219.27650559996255,95.59231664799154 218.77988835552242,95.17991376610007 218.04646769771352,94.60290434176568 217.28071594669018,94.05125167034566 217.1292549688369,94.014326482662 216.82808063994162,93.91823198925704 216.253111466649,93.74873187817866 215.84241919999477,93.69089716480812 215.2249244444538,93.5231764104683 214.66859662230127,92.90523332741577 214.25586545781698,92.84828816144727 213.79157930670772,92.75975619454402 213.48079303116538,92.70236610656139 213.47292871109676,92.69524795509642 213.4673945599934,92.68679514992982 212.07686627551448,91.90068285330199 212.00433976890054,91.86153287510388 209.95961656887084,90.81960704206722 209.79679601779208,90.71149916981813 209.55125447106548,90.5869303624495 209.45163975120522,90.52064193272963 206.4978594132699,88.7753360492643 204.39313436450902,88.67479034996359 202.31608007114846,86.90010673057986 200.83176248893142,86.77642556559294 200.1493142755935,86.27502675156575 198.9274319644319,85.39279342076043 197.23835079115815,85.644161319884 196.7638701511314,85.57965100137517 196.69513016892597,85.24642153875902 196.38288753770757,84.91185687266989 195.87578453333117,84.81264411495067 195.65558357338887,85.02753088367172 195.1580925155431,83.81606506166281 194.148546844488,81.09858467848971 193.99621205334552,80.19008099293569 193.75620465783868,78.72365383652505 193.75154432002455,77.9459451904404 193.9140735999681,77.21850928035565 194.35156280896626,76.54579577344703 194.34486357332207,76.22901462914888 194.64982442662586,75.64394713519141 194.77274083555676,75.11048880650196 194.61254172446206,74.64198764308821 194.04631068452727,73.70453741110396 193.2846367288148,72.75596008216962 192.62782037327997,72.0271722926409 191.67711146664806,69.91109350160696 191.0380626488477,68.4001047280617 190.44124814216048,66.65150940453168 189.59102776891086,64.35473287513014 189.11276060447562,63.837265201844275 188.60827903996687,63.35316708870232 188.19292643561494,63.03191757097375 187.56814990227576,62.66439331125002 186.91832405340392,62.402765499195084 185.9344102400355,61.90487089846283 185.70051953778602,61.734456313424744 185.0509849600494,60.88772079767659 184.74340266664512,60.347997515578754 184.94234083557967,59.6756775501417 185.5470196622191,58.41735248325858 186.49627221329138,57.12965313991299 186.4187940978445,56.69048098271014 186.10101731563918,55.80812941794284 184.43960689776577,53.429811745882034 183.9560968533624,53.06494128599297 183.635698631173,52.28180265275296 182.6561538844835,51.50177601375617 182.56149077333976,51.10263981076423 182.5111008711392,49.48917886381969 182.53935416892637,46.69874463224551 182.75576860446017,45.34645485365763 182.6712999822339,44.26203617011197 182.73654471116606,43.80592905927915 182.87373340444174,42.81895454355981 182.52741205331404,41.651310824847315 181.92506339552347,40.90150586643722 181.66699719114695,39.655533537326846 180.41074488894083,38.031754043651745 180.1721938488772,37.378945931675844 180.28200305777136,36.94462944474071 181.59126670227852,35.94382928684354 182.03836785780732,35.35020001500379 182.10972927999683,34.46642814157531 182.43595292442478,33.764659133623354 183.3796713243937,32.81813519389834 184.25523228442762,31.868937153136358 184.60184490669053,31.32380281854421 185.1625417956384,30.024820149410516 182.14497308444697,32.97833699232433 180.09384192002472,35.576259925961494 176.87121834675781,36.36835778702516 174.18802887108177,36.73993080423679 172.78614101337735,37.10304826236097 171.4253223822452,36.78265053621726 168.4523181511322,36.97800420515705 166.99042844446376,36.40573761588894 165.2229953422211,35.96251923800446 164.9984253155999,35.88108443922829 163.3035187200876,34.9572646189481 161.58210645336658,34.070821156550664 161.33802126219962,33.28628012270201 161.24685340444557,33.07801805267809 161.1504426667234,33.04019265563693 159.93380323552992,32.728689139243215 158.91318926226813,32.61432273790706 157.55178808886558,33.044642702676356 157.12886243558023,33.23065458913334 156.76389973331243,33.23999967967393 156.37796551105566,33.31075535307173 155.65066154673696,33.453156639589 155.13423786661588,33.6138029806898 154.7544203378493,33.81983952957671 153.79089550219942,34.19453185342718 153.24534471111838,34.51003831700655 152.84572074667085,34.28620232519461 152.315024782205,34.58924861357082 151.82568931556307,35.061394791991916 151.63257656886708,35.35687501565553 151.34101418673526,35.51217997469939 151.34188800002448,35.414725013193674 150.72614087117836,34.63597377529368 149.9563113244949,33.76065410440788 149.14162602671422,33.08246809896082 148.6793787733186,32.41674017731566 148.4146133332979,32.57961230084766 148.07732138666324,32.87109080131631 147.9378025244223,32.95119169575628 146.6565009066835,33.406431227573194 145.93269219552167,32.17465679894667 144.5185709510697,31.136899308185093 142.68414549331646,28.88603460456943 141.80363292444963,27.757923553464934 140.3496075377334,25.527050288103055 139.3324888177449,24.11677785892971 138.40100380440708,22.97796183353057 137.09902193781454,21.232566901075188 135.8054869333282,20.071929484256543 134.8291461688932,19.498728999576997 134.40651178662665,19.702553566079587 134.23058403551113,19.834282880066894 133.20589226658922,20.0523481258424 132.1768314311048,20.818244965339545 131.0178636800265,21.717647448647767 130.38580536888912,22.641522680642083 129.3835414755158,24.009082339471206 129.13770865777042,24.543554215109907 128.92566328891553,24.739363737404346 128.40516181336716,25.078024796559475 127.54998983105179,25.580452664289623 126.7603538489202,25.791836943710223 126.10557639109902,25.639195263327565 125.94887253339402,25.60982396581676 124.68941624893341,25.080694921081886 122.54682595550548,25.037082882714458 122.50138766225427,24.95786915824283 122.5063392710872,24.898681356804445 122.29079864895903,24.934728064923547 122.20895146671683,25.094935584813356 121.6456331377849,25.274723885464482 121.19008512003347,24.98190029116813 120.82861767115537,24.99035568907857 120.5472497777082,25.17637436289806 120.21607452444732,24.977895102580078 118.65573518222664,25.513254672056064 118.48359395551961,25.352157415356487 118.2296055466868,25.329016363306437 118.07406677340623,25.17592934233835 117.28792604443152,25.354827536502853 116.70159729779698,25.142107776890043 116.54168945783749,24.813237284717616 115.75729635555763,25.109621268347837 115.25048462220002,25.71573862642981 114.37463239114732,26.91150271880906 113.72480654227547,27.22746460873168 113.34557155554648,27.653789935051464 112.78603975113947,28.567850020015612 111.86358414229471,28.755200718995184 111.55250659561716,29.05068938434124 111.19948600896169,29.017313425370958 110.50859093328472,29.40936937124934 109.94002972450107,30.402188975422177 109.67176903109066,31.463535339571536 109.47253959113732,32.31305376288947 108.46532408893108,33.22175450238865 106.93585948448163,34.34850262396503 105.07026801782195,34.69426896306686 103.48487935995217,35.37423001648858 101.72210659552366,36.48049725452438 99.8090379377827,36.99802905891556 98.89066012436524,37.22141730465228 97.67926357337274,38.287180823099334 94.47207736887503,39.743196820490994 93.89536056888755,40.033330890059005 93.435152213322,40.6033631277387 92.74309205333702,40.89705597772263 91.73092494229786,40.733300012594555 91.18741304893047,40.07560499408282 91.32139775995165,39.592344753211364 91.76179967995267,37.06922852434218 91.55965752888005,35.4129450134933 91.40324494219385,35.035584753670264 91.23459896887653,34.73520908574574 90.77555569785181,34.05480106116738 89.98213319119532,32.27389321598457 89.40162986668292,31.022532082162797 88.33470378664788,30.251330524450168 87.63973091554362,29.66525113960961 86.2529891555896,29.136131816194393 86.10502343112603,29.04445920570288 85.2134425600525,27.162937217275612 84.29098695109133,25.093155501934234 84.26302492443938,23.556048545520753 83.6268888177583,22.067883841926232 83.46989368891809,20.677615646040067 82.5538460444659,19.41995831974782 79.21995690674521,17.293139338260517 78.58906368003227,16.743963667191565 78.52032369782683,16.5530424695462 78.02312391111627,14.974487219238654 78.04788195551373,13.655381362419575 78.45362261333503,12.94152996642515 78.68052280892152,11.667806840268895 78.92664689780213,10.900098051584791 79.9650284089148,9.704247216403019 80.65068060450722,9.118558325397316 82.44869717326947,8.246697895345278 83.24619747558609,7.709961277781986 83.6638802489033,7.136283632484265 84.14389504003339,5.206508320523426 84.07515505782794,5.2198601449490525 82.53462215117179,5 79.55754012451507,5.600831861491315 78.98169713781681,5.541638869268354 78.21914936893154,5.849620279390365 77.44407694216352,6.100188652984798 77.15513600001577,6.9573706715600565 76.74502627563197,7.344125123810954 76.30054655997083,8.279186885920353 76.2323891200358,8.261829754570499 74.99040910229087,10.02023373870179 74.22902641783003,11.273939186590724 73.10821518220473,12.084816234186292 72.50033237331081,12.579262851038948 71.680404195562,12.938414649688639 71.19747669342905,13.002056109486148 69.29489379550796,13.549015870667063 67.8469851022819,14.844090129015967 65.84973909333348,15.818283592525404 64.97505194670521,16.002529839868657 61.63446357334033,18.14716264710296 60.63307349337265,19.052806475025136 60.697735680034384,19.085738907859195 60.52355555561371,19.14403820259031 60.38520177779719,19.25529635581188 57.21995861339383,19.393256388022564 54.857167360023595,19.126681925554294 54.78027178673074,19.029219729593024 53.49897016887553,19.666060971911065 53.048082488938235,20.18852753727697 52.64146801782772,20.588609701488167 51.672409031074494,21.48890317644691 50.05818453337997,21.75814495078521 49.414475377765484,21.85382583277533 48.26803228445351,22.079009512381162 46.94304000004195,22.404768895241432 45.789315128931776,22.677569757332094 45.42435242678039,22.673564526834525 45.438042168854736,22.75366912194295 42.74582328891847,23.629922488937154 41.113831253373064,23.98193593986798 40.01486535114236,24.20756247092504 38.766768640023656,25.119856744189747 37.9153831822332,27.407251172407996 37.52129336888902,28.036057977355085 36.84991345775779,29.63143026200123 36.43223068444058,30.988266403670423 36.6416546133114,33.72994887747336 36.68272384000011,34.58257358969422 36.445629155496135,35.898439398850314 36.34717952006031,35.89932939677965 35.5389021866722,35.936709305038676 34.9132518399274,35.88464443106204 34.16614144004416,35.915794357133564 32.93697735108435,38.50300287158461 32.70832952891942,38.9212965501938 32.273461760021746,39.299095159512945 32.02296860446222,39.73207204026403 31.842089244397357,40.518815113580786 31.13808696891647,41.72295377665432 31.02536504890304,41.66243550833315 30.199611448915675,40.735524958581664 29.275116942240857,41.39099307148717 28.855395271093585,41.52537936880253 28.29440711112693,41.881369165028445 28.174694684450515,41.93209766421933 27.97051363554783,42.50345995568205 27.808566897758283,43.180727049242705 27.466614613309503,44.085823193134274 26.930967040010728,44.75196090468671 25.89695459557697,46.313394061871804 25.89200298662763,47.3212668231572 25.758892088895664,47.588697189465165 25.369171342230402,47.906854358152486 24.887700195540674,48.07638966909144 24.415258453343995,48.34070430364227 23.991458986653015,48.81504593498539 23.998449493316002,49.73391308111604 23.99262407119386,51.26816795580089 24.077675235574134,51.25971356430091 23.81494869326707,52.53142839373322 23.73514040885493,52.715644000214525 23.447655822266825,53.37775099754799 23.328817208879627,53.45517467003083 23.279883662238717,54.03674127254635 22.337039075559005,54.75713419751264 21.275938417878933,55.25548987928778 20.027259164489806,55.5714112019632 18.75061788444873,56.53385605069343 18.20419328007847,58.4694120430504 17.43931534222793,59.44697260821704 16.30510563554708,60.00405115773901 15.137982293381356,60.19448982831091 13.716579271131195,60.00271630671341 12.611205404507928,60.54600002709776 11.352622933336534,60.00761076057097 10.394632248906419,58.6340447581606 7.347936426638626,59.37400055344915 7.000449991086498,59.69214073731564 5,61.23122083087219" stroke="red" stroke-width="3.645756860697823px" fill="none" stroke-linejoin="round" vector-effect="non-scaling-stroke"></polygon></svg>