<svg viewBox="0 0 889.466380568759 838.536338123856" width="1000" xmlns="http://www.w3.org/2000/svg"><polygon points="8.052550000000338,354.82312467232214 60.097163404316234,382.56836869483914 61.55847056883067,383.9514150650716 60.00191775101848,406.19622495535396 59.939877004340815,406.7454621314896 93.7034416622264,457.43879785584386 95.39106647994049,458.4353949845313 142.4479533777121,462.54029362867686 143.4982770044371,462.24568835632044 135.95930683540792,439.0036128292336 135.76968934210163,437.67395562437696 157.5194857510287,432.9186828064626 158.16698143105168,432.688672634285 177.5720453954782,454.0625464631953 179.26462182214163,455.08634723185196 196.24543632879067,445.65222429679807 197.9447119910983,446.40327835430026 208.89534068443027,498.1186741591441 208.6996064976338,498.26974068399386 259.08746982212324,526.2143762725532 261.0710260887645,525.2737815948562 268.8596155999476,534.6020220928835 270.9847296266598,537.1180308611142 270.25567803552985,555.7936087990888 270.1345092532938,556.4823624614287 301.4251821776634,585.1412508977587 303.49495469322574,588.1154892664413 334.4969779465828,565.4671485159556 336.2341188532082,563.5951997735315 359.21307935097866,567.9810232725936 360.32690007994097,568.7058228828023 387.9277505688151,639.0877996003032 387.9918302133228,639.138568285714 440.6315104977475,621.484612301319 441.0104542132249,621.228076190258 435.67028966217913,601.2146678195927 436.6521645777175,600.3835202585101 488.7981403288213,612.3912048579436 491.17986420435045,612.6811557013784 492.84506114663236,618.5482358196527 494.5932703554645,618.6016815166581 485.0194802043043,627.0054108996769 481.03955174212024,630.4778850264042 498.4115433511106,642.3400892453278 498.3460073510432,646.4353319601864 480.93935447987315,709.4108236178067 478.9887118488332,714.9815093815337 505.0461167199319,718.5144791190755 506.5805329332143,718.7789153549015 507.39900475551985,708.0017690920281 507.4001698399443,707.9425574409902 518.767316222169,704.8768858939652 527.8951703022249,702.5782720999337 554.7829891110086,714.1556873568111 555.3031993154218,714.4072183816238 598.879978977704,708.3232034916068 601.3517056265628,708.4282705899454 606.0665111022317,674.7623903073613 607.8659840265536,669.3483176420918 616.5927577866023,671.2990733377296 626.4342260887861,673.7614269356486 624.5907712265398,718.4935556996857 624.4107656798806,723.00896169406 631.4068064976964,732.6595921481271 631.4237002221416,732.857238917531 603.2347733599381,732.6355540154395 603.0605932355174,732.7334871322159 601.880362693315,760.934635972349 587.2672910488691,760.3355392371082 587.0057295909864,761.1131184148612 579.3758828355712,815.3539664209015 579.3959805421546,815.5835779579133 585.3682034043377,829.453273798666 585.7145247554654,830.4837881238559 598.9326990488698,829.6214668796524 611.7742597955294,829.9191416217723 603.2685608088286,810.8631439254164 602.9350553866025,809.0800502411798 606.8730408088086,795.9865305553899 607.1366411644049,795.4004346518554 725.1401802220862,809.345712978487 725.4524228531882,809.3425980068055 752.0536308887895,789.916780119041 753.266483795458,790.1197160368097 760.148637608836,758.8159804919046 760.2132997954977,758.7220648306898 770.0058345510406,764.5759162906684 770.3402137866724,764.7521703593443 791.218235759974,748.8468993463098 791.2645478666309,748.8161862068587 818.5598549599308,748.9274656771227 822.784742426571,740.6436685397416 826.7716613955345,683.5820705683213 826.8692372176811,680.8375349910707 836.3780739110443,671.8810461887401 836.374578657771,671.7122875782438 808.9315971110263,672.5614226023677 800.8840675821775,658.565639650194 789.3730332710329,595.9186096647531 787.3041345687598,592.8153010301535 814.340501644394,554.1781923533194 814.3964256976979,553.9349432920931 784.6684222843978,535.4111401387268 783.3673142310945,534.5258329609419 783.9119912087699,495.92084504731565 783.8997578221388,495.7372460035617 860.5384300355581,459.2532609086261 860.8972760443357,458.53567843544397 850.9902717420846,446.0952796408451 850.8670640621349,445.7551879420421 854.611354195491,397.4844805496755 854.096386871046,395.63205921123836 835.6930042577224,376.79042251568853 835.6848486666349,376.6339222910824 852.8246971999542,370.96550735089795 853.0716951021241,370.7309737094106 858.2167080088766,353.2985398876258 858.2006880977206,353.05819051966637 838.772031173321,341.49926150983765 838.7950415910236,341.22366990763794 854.9768994399128,340.61763473539713 855.0939904266052,340.4637844816093 845.5129184976468,310.93904772689666 845.5659298399478,310.6107895190721 860.3109472977012,293.6990322599081 860.4350287910565,293.56789717786114 857.9376702843947,282.5665455905032 858.0841796532986,282.3595736085913 881.4053837065367,263.6920424263003 881.4138305687593,263.53412356888975 870.843893217716,229.09440240680806 870.7081608799999,228.90790395145405 840.7643255733201,233.0558956996315 839.7105066933218,233.31065310768417 834.9441462310278,248.3479568626858 834.1181013599053,250.20920075590357 825.7827959733331,247.969638827351 825.7015313333613,247.94733231919918 819.2926930754693,280.47585200003914 818.760249484425,281.6494441237078 765.5997764533167,318.52854443153 763.5568008799819,320.221951733321 746.6587073687479,348.89640377861315 746.4102531110184,349.6972851648238 722.7922437954476,343.55503912529775 721.9851315466003,343.1706413844727 697.7944832265857,317.9594638919002 697.4309768798776,317.77839250289935 722.7220474576825,280.4896799938065 722.4371843110785,279.6140540315314 708.2854861066226,276.1159761177619 707.310892968766,275.69220621311206 699.0801539110034,254.51025574983896 698.727133324348,254.26712190625358 630.0022971998915,219.67157120360162 629.3795595643824,219.25036984970893 632.815393591045,204.59036543520733 634.5589424621794,202.3864837351498 646.8893224088024,201.13214883217688 647.8374098754502,200.95678233748868 634.3043715110762,154.56409429675068 633.5138617154225,152.0352343596528 615.858172044369,127.82660359526153 613.251586870967,124.78186868024159 591.6456783910762,122.88162208177482 590.8263327554814,122.12098318929884 561.2046432976858,82.02793455203164 560.2574296443272,80.62022157220736 575.5316867111032,73.44445120116097 577.7264145333102,71.84558698410501 577.4837856977028,58.94619911481959 577.1179491821458,58.361712588498904 607.3102387466715,65.43036801569497 607.5898590133074,65.41518701424457 651.5380093421336,42.27321228464234 651.6210216088002,42.13567576811283 631.4545749599129,38.2024522732022 629.4986894487884,37.06909213567951 597.5558605065817,9.275828940364136 596.629618373212,8.052549999999883 587.1889391199002,41.66099550735771 585.8391887910911,44.584527383419754 592.717264808809,48.72482870010526 590.5298187644003,49.040081412974814 574.3928166666083,45.88530127341028 573.6247347466197,46.07106169613644 566.4416978754816,22.55370713500406 566.0106166311089,22.339791862970287 525.076539759968,30.756910722331213 523.8791242220686,30.76003671476019 507.17152201777935,12.005516329175862 506.7984037243077,11.67502587408626 495.79942402660527,45.09179885671574 494.17121851546835,46.66495815010376 447.85969439111796,58.38403830558627 447.1865668532919,59.06407856240503 451.6462188354708,83.91558629440942 451.78632023998216,84.87681806149294 438.2238634932801,85.35854852063449 437.48519995550305,86.28093216798834 443.0612941065119,97.93138546261571 444.1299678132418,98.7336261366504 436.17768393769074,111.94004294786237 436.06874854220223,112.83999506882492 407.629037253304,109.01651239043667 405.99238487994444,109.2428429858769 399.6208293243326,123.02758945615597 396.0527582133436,123.94401238181263 401.4797215554645,136.790048106202 400.7751367377132,137.35825775468356 373.53196717330866,134.90642040500052 373.10787643548247,135.5264124388118 394.13910701321583,145.43667453152693 395.0350569510847,146.0137886067164 397.831842159947,154.76627686815436 398.2833123821547,156.07041694175086 390.68667053324316,159.6926902025948 387.7559006132433,158.88040640738427 391.88088208888803,164.93943578212156 392.6445949420813,166.12613982716675 387.25520557325945,177.8058406537525 387.1046184088118,177.90491307204456 398.7382778577521,190.0976206752016 398.9736249154448,190.23283358148865 373.38604034655873,193.76574337247393 371.7196783198524,193.60955934457115 371.35704578654986,171.68825563623204 370.6833357065698,168.73383144496574 363.42194690657925,165.11170686750074 361.79053741330426,164.74038663993224 339.94170882655453,180.8556441284959 339.274406710967,181.60269227249182 342.007112275438,194.70016778677336 342.05895853319817,194.9585394539531 335.3588491643095,203.26286290106464 334.297748506513,203.67472420712102 330.3521900354899,183.792501594849 329.92926438220456,182.08197989091377 311.409955866613,183.81615338024085 310.9855738576516,184.1869951928743 310.93139743104257,195.16916345581512 310.96081581325416,196.0723454517788 299.85901741332054,201.88492912040192 299.4620148888571,202.37979039821175 316.80080159111094,234.14095497944027 317.16285158214305,234.45148082925107 313.3582683288041,244.96671637983627 312.1888148176731,245.59710596010655 272.6376931820778,237.24574763057853 267.31616998217214,235.85687252143498 268.65019167107675,230.99060979622982 272.56924447100755,220.8075615181947 247.79634519990213,208.50901701112844 247.24671661327739,208.25066123644456 224.5424247733099,177.7500566149024 223.32695042665728,175.40800677860489 241.93830061329209,146.62750067792467 242.02043906655308,145.96290621997423 204.94716077319026,109.73523399062788 204.00664635547582,108.86696443343635 184.1431216621786,105.51170655628766 183.7708771821126,105.63491810093501 177.91195878209692,85.59829720724474 176.5100709243925,83.7977201502431 159.1884692177191,79.32813583219058 155.88254210653395,78.20034505366448 141.36588119992666,88.56678399359907 140.56168166219868,88.48910113747797 110.32133236432128,59.962907274697045 109.20110367108282,60.161604632019134 84.68219280881021,88.07836374149292 84.41393211551622,88.43597319137871 74.65460226659343,106.75274722607674 74.33973819550738,106.83578063265986 75.60152464881685,125.13495474323963 76.92302167995513,127.64269762297727 63.79251999103144,136.3539584814348 63.676011546609516,136.6619440787831 61.48099245326739,153.9526359428196 61.475749573299254,154.17758140326578 86.52681275548093,190.6487354662163 86.58943604442902,191.15968681404001 68.79830530656182,197.01925461539167 68.38877812433202,197.24192493499822 84.53073183107335,201.11519228152565 84.61228774218034,201.20354482052016 61.38225154657994,229.64675814982138 60.502030248848314,229.27331584841113 47.86406800882105,266.0023734486672 47.271331297677534,266.9021424632879 23.864202266537177,273.250383537124 21.78947814214189,274.58370950297785 42.55885599109024,280.50216979379866 42.21748624879547,286.89908471416084 38.40940774218325,290.1137531726631 32.03639583101176,287.7505950505506 36.314585911088216,306.2854067566582 35.442811475462804,309.184912253731 21.76501136887964,326.06604701965216 19.26852667550702,325.1419909858737 22.15094559101999,332.0660733607724 22.6909622311141,333.31921715281305 8.052550000000338,354.82312467232214" stroke="#009edd" stroke-width="6.308715123339351px" fill="none" stroke-linejoin="round" vector-effect="non-scaling-stroke"></polygon><polygon points="8.052550000000338,354.82312467232214 60.097163404316234,382.56836869483914 61.55847056883067,383.9514150650716 60.00191775101848,406.19622495535396 59.939877004340815,406.7454621314896 93.7034416622264,457.43879785584386 95.39106647994049,458.4353949845313 142.4479533777121,462.54029362867686 143.4982770044371,462.24568835632044 135.95930683540792,439.0036128292336 135.76968934210163,437.67395562437696 157.5194857510287,432.9186828064626 158.16698143105168,432.688672634285 177.5720453954782,454.0625464631953 179.26462182214163,455.08634723185196 196.24543632879067,445.65222429679807 197.9447119910983,446.40327835430026 208.89534068443027,498.1186741591441 208.6996064976338,498.26974068399386 259.08746982212324,526.2143762725532 261.0710260887645,525.2737815948562 268.8596155999476,534.6020220928835 270.9847296266598,537.1180308611142 270.25567803552985,555.7936087990888 270.1345092532938,556.4823624614287 301.4251821776634,585.1412508977587 303.49495469322574,588.1154892664413 334.4969779465828,565.4671485159556 336.2341188532082,563.5951997735315 359.21307935097866,567.9810232725936 360.32690007994097,568.7058228828023 387.9277505688151,639.0877996003032 387.9918302133228,639.138568285714 440.6315104977475,621.484612301319 441.0104542132249,621.228076190258 435.67028966217913,601.2146678195927 436.6521645777175,600.3835202585101 488.7981403288213,612.3912048579436 491.17986420435045,612.6811557013784 492.84506114663236,618.5482358196527 494.5932703554645,618.6016815166581 485.0194802043043,627.0054108996769 481.03955174212024,630.4778850264042 498.4115433511106,642.3400892453278 498.3460073510432,646.4353319601864 480.93935447987315,709.4108236178067 478.9887118488332,714.9815093815337 505.0461167199319,718.5144791190755 506.5805329332143,718.7789153549015 507.39900475551985,708.0017690920281 507.4001698399443,707.9425574409902 518.767316222169,704.8768858939652 527.8951703022249,702.5782720999337 554.7829891110086,714.1556873568111 555.3031993154218,714.4072183816238 598.879978977704,708.3232034916068 601.3517056265628,708.4282705899454 606.0665111022317,674.7623903073613 607.8659840265536,669.3483176420918 616.5927577866023,671.2990733377296 626.4342260887861,673.7614269356486 624.5907712265398,718.4935556996857 624.4107656798806,723.00896169406 631.4068064976964,732.6595921481271 631.4237002221416,732.857238917531 603.2347733599381,732.6355540154395 603.0605932355174,732.7334871322159 601.880362693315,760.934635972349 587.2672910488691,760.3355392371082 587.0057295909864,761.1131184148612 579.3758828355712,815.3539664209015 579.3959805421546,815.5835779579133 585.3682034043377,829.453273798666 585.7145247554654,830.4837881238559 598.9326990488698,829.6214668796524 611.7742597955294,829.9191416217723 603.2685608088286,810.8631439254164 602.9350553866025,809.0800502411798 606.8730408088086,795.9865305553899 607.1366411644049,795.4004346518554 725.1401802220862,809.345712978487 725.4524228531882,809.3425980068055 752.0536308887895,789.916780119041 753.266483795458,790.1197160368097 760.148637608836,758.8159804919046 760.2132997954977,758.7220648306898 770.0058345510406,764.5759162906684 770.3402137866724,764.7521703593443 791.218235759974,748.8468993463098 791.2645478666309,748.8161862068587 818.5598549599308,748.9274656771227 822.784742426571,740.6436685397416 826.7716613955345,683.5820705683213 826.8692372176811,680.8375349910707 836.3780739110443,671.8810461887401 836.374578657771,671.7122875782438 808.9315971110263,672.5614226023677 800.8840675821775,658.565639650194 789.3730332710329,595.9186096647531 787.3041345687598,592.8153010301535 814.340501644394,554.1781923533194 814.3964256976979,553.9349432920931 784.6684222843978,535.4111401387268 783.3673142310945,534.5258329609419 783.9119912087699,495.92084504731565 783.8997578221388,495.7372460035617 860.5384300355581,459.2532609086261 860.8972760443357,458.53567843544397 850.9902717420846,446.0952796408451 850.8670640621349,445.7551879420421 854.611354195491,397.4844805496755 854.096386871046,395.63205921123836 835.6930042577224,376.79042251568853 835.6848486666349,376.6339222910824 852.8246971999542,370.96550735089795 853.0716951021241,370.7309737094106 858.2167080088766,353.2985398876258 858.2006880977206,353.05819051966637 838.772031173321,341.49926150983765 838.7950415910236,341.22366990763794 854.9768994399128,340.61763473539713 855.0939904266052,340.4637844816093 845.5129184976468,310.93904772689666 845.5659298399478,310.6107895190721 860.3109472977012,293.6990322599081 860.4350287910565,293.56789717786114 857.9376702843947,282.5665455905032 858.0841796532986,282.3595736085913 881.4053837065367,263.6920424263003 881.4138305687593,263.53412356888975 870.843893217716,229.09440240680806 870.7081608799999,228.90790395145405 840.7643255733201,233.0558956996315 839.7105066933218,233.31065310768417 834.9441462310278,248.3479568626858 834.1181013599053,250.20920075590357 825.7827959733331,247.969638827351 825.7015313333613,247.94733231919918 819.2926930754693,280.47585200003914 818.760249484425,281.6494441237078 765.5997764533167,318.52854443153 763.5568008799819,320.221951733321 746.6587073687479,348.89640377861315 746.4102531110184,349.6972851648238 722.7922437954476,343.55503912529775 721.9851315466003,343.1706413844727 697.7944832265857,317.9594638919002 697.4309768798776,317.77839250289935 722.7220474576825,280.4896799938065 722.4371843110785,279.6140540315314 708.2854861066226,276.1159761177619 707.310892968766,275.69220621311206 699.0801539110034,254.51025574983896 698.727133324348,254.26712190625358 630.0022971998915,219.67157120360162 629.3795595643824,219.25036984970893 632.815393591045,204.59036543520733 634.5589424621794,202.3864837351498 646.8893224088024,201.13214883217688 647.8374098754502,200.95678233748868 634.3043715110762,154.56409429675068 633.5138617154225,152.0352343596528 615.858172044369,127.82660359526153 613.251586870967,124.78186868024159 591.6456783910762,122.88162208177482 590.8263327554814,122.12098318929884 561.2046432976858,82.02793455203164 560.2574296443272,80.62022157220736 575.5316867111032,73.44445120116097 577.7264145333102,71.84558698410501 577.4837856977028,58.94619911481959 577.1179491821458,58.361712588498904 607.3102387466715,65.43036801569497 607.5898590133074,65.41518701424457 651.5380093421336,42.27321228464234 651.6210216088002,42.13567576811283 631.4545749599129,38.2024522732022 629.4986894487884,37.06909213567951 597.5558605065817,9.275828940364136 596.629618373212,8.052549999999883 587.1889391199002,41.66099550735771 585.8391887910911,44.584527383419754 592.717264808809,48.72482870010526 590.5298187644003,49.040081412974814 574.3928166666083,45.88530127341028 573.6247347466197,46.07106169613644 566.4416978754816,22.55370713500406 566.0106166311089,22.339791862970287 525.076539759968,30.756910722331213 523.8791242220686,30.76003671476019 507.17152201777935,12.005516329175862 506.7984037243077,11.67502587408626 495.79942402660527,45.09179885671574 494.17121851546835,46.66495815010376 447.85969439111796,58.38403830558627 447.1865668532919,59.06407856240503 451.6462188354708,83.91558629440942 451.78632023998216,84.87681806149294 438.2238634932801,85.35854852063449 437.48519995550305,86.28093216798834 443.0612941065119,97.93138546261571 444.1299678132418,98.7336261366504 436.17768393769074,111.94004294786237 436.06874854220223,112.83999506882492 407.629037253304,109.01651239043667 405.99238487994444,109.2428429858769 399.6208293243326,123.02758945615597 396.0527582133436,123.94401238181263 401.4797215554645,136.790048106202 400.7751367377132,137.35825775468356 373.53196717330866,134.90642040500052 373.10787643548247,135.5264124388118 394.13910701321583,145.43667453152693 395.0350569510847,146.0137886067164 397.831842159947,154.76627686815436 398.2833123821547,156.07041694175086 390.68667053324316,159.6926902025948 387.7559006132433,158.88040640738427 391.88088208888803,164.93943578212156 392.6445949420813,166.12613982716675 387.25520557325945,177.8058406537525 387.1046184088118,177.90491307204456 398.7382778577521,190.0976206752016 398.9736249154448,190.23283358148865 373.38604034655873,193.76574337247393 371.7196783198524,193.60955934457115 371.35704578654986,171.68825563623204 370.6833357065698,168.73383144496574 363.42194690657925,165.11170686750074 361.79053741330426,164.74038663993224 339.94170882655453,180.8556441284959 339.274406710967,181.60269227249182 342.007112275438,194.70016778677336 342.05895853319817,194.9585394539531 335.3588491643095,203.26286290106464 334.297748506513,203.67472420712102 330.3521900354899,183.792501594849 329.92926438220456,182.08197989091377 311.409955866613,183.81615338024085 310.9855738576516,184.1869951928743 310.93139743104257,195.16916345581512 310.96081581325416,196.0723454517788 299.85901741332054,201.88492912040192 299.4620148888571,202.37979039821175 316.80080159111094,234.14095497944027 317.16285158214305,234.45148082925107 313.3582683288041,244.96671637983627 312.1888148176731,245.59710596010655 272.6376931820778,237.24574763057853 267.31616998217214,235.85687252143498 268.65019167107675,230.99060979622982 272.56924447100755,220.8075615181947 247.79634519990213,208.50901701112844 247.24671661327739,208.25066123644456 224.5424247733099,177.7500566149024 223.32695042665728,175.40800677860489 241.93830061329209,146.62750067792467 242.02043906655308,145.96290621997423 204.94716077319026,109.73523399062788 204.00664635547582,108.86696443343635 184.1431216621786,105.51170655628766 183.7708771821126,105.63491810093501 177.91195878209692,85.59829720724474 176.5100709243925,83.7977201502431 159.1884692177191,79.32813583219058 155.88254210653395,78.20034505366448 141.36588119992666,88.56678399359907 140.56168166219868,88.48910113747797 110.32133236432128,59.962907274697045 109.20110367108282,60.161604632019134 84.68219280881021,88.07836374149292 84.41393211551622,88.43597319137871 74.65460226659343,106.75274722607674 74.33973819550738,106.83578063265986 75.60152464881685,125.13495474323963 76.92302167995513,127.64269762297727 63.79251999103144,136.3539584814348 63.676011546609516,136.6619440787831 61.48099245326739,153.9526359428196 61.475749573299254,154.17758140326578 86.52681275548093,190.6487354662163 86.58943604442902,191.15968681404001 68.79830530656182,197.01925461539167 68.38877812433202,197.24192493499822 84.53073183107335,201.11519228152565 84.61228774218034,201.20354482052016 61.38225154657994,229.64675814982138 60.502030248848314,229.27331584841113 47.86406800882105,266.0023734486672 47.271331297677534,266.9021424632879 23.864202266537177,273.250383537124 21.78947814214189,274.58370950297785 42.55885599109024,280.50216979379866 42.21748624879547,286.89908471416084 38.40940774218325,290.1137531726631 32.03639583101176,287.7505950505506 36.314585911088216,306.2854067566582 35.442811475462804,309.184912253731 21.76501136887964,326.06604701965216 19.26852667550702,325.1419909858737 22.15094559101999,332.0660733607724 22.6909622311141,333.31921715281305 8.052550000000338,354.82312467232214" stroke="#009edd" stroke-width="5.810695585221468px" fill="none" stroke-linejoin="round" vector-effect="non-scaling-stroke"></polygon></svg>