<svg width="320.48189724446274" height="346.50480668008095" xmlns="http://www.w3.org/2000/svg"><polygon points="5,318.67528495850274 13.721822151099332,318.74311159265926 14.722338417777792,318.9415840379079 17.93768021336291,335.1442444015411 17.186492017819546,338.7041612716275 26.68571676441934,341.31227199872956 27.754973013303243,341.50480668008095 42.42134727106895,318.71306758280843 43.08923192892689,316.3728085307521 46.26204814214725,319.7486730993842 46.78720995550975,319.9175559922005 48.89251754665747,313.9050620289636 50.74441927112639,313.70248797530076 61.211829191073775,321.4943969336455 64.32114830217324,322.60054584179306 74.17310236440971,314.8460046504042 79.33763043547515,316.5808426947915 53.367606897722,296.0341169295716 54.537351679988205,293.5438312952174 84.30147271114402,302.73999090731377 87.02136234671343,303.2207299256115 89.63086023111828,290.81632115127286 89.58891719114035,290.42251156497514 79.74249728000723,292.27636965079 77.29086833773181,292.6205517773633 88.53888483555056,286.681967792043 88.6670441244496,286.64144791680155 83.51824469328858,272.40347938775085 83.7200955733424,272.2240874126437 96.94642545771785,276.1483668543515 97.49896675546188,274.8612255837652 91.04090368002653,256.1219156552688 90.92410396435298,255.75263173220446 102.70165134221315,248.3258389820694 104.52355214220006,245.48437468602788 102.35474744893145,236.85638652916532 103.26060060434975,235.862281101814 121.7056349866325,232.4682624907582 122.09826844441704,232.25832614745013 121.90136917331256,225.1631780822645 120.79308259557001,223.53417586290743 125.62206634669565,221.06537396868225 126.34820522658993,220.61496602004627 137.1430038755061,227.6364874097635 138.5425615644781,227.68931418430293 138.18400682660285,236.82633118674858 138.03545855998527,237.87143496918725 116.86150513775647,263.0503123755916 116.66081934224349,263.9910200670711 135.31469511112664,291.471454822924 135.3732406044146,292.0305249406374 146.49368035560474,296.16022387024714 146.73776554665528,296.17479217628716 144.7783847822575,289.3467020834214 144.27069923561066,285.465457683953 151.7974360177759,284.54259909997927 155.42842168884818,284.07775370025774 156.60428316437174,292.9014513360453 170.43470933334902,289.7646430907189 170.67296910227742,289.28660592471715 182.72635022224858,301.8381471315515 183.9520190578187,304.1189260162064 197.65545102220494,294.17300670576515 199.72959260444622,293.2178612629068 238.03640405333135,304.05063957109815 239.56645119993482,304.7294058810221 246.42821603547782,297.82965433661593 246.78240170667414,297.4586203136132 243.7342495288467,283.0688399867504 243.78434816002846,280.4518343703239 254.39651982218493,280.090331810934 255.79112590220757,280.15498344640946 253.84514360886533,256.2667148517794 252.16538311110344,250.5243053913 281.43113927112427,246.71340363047784 283.052645546617,246.60457178164506 282.70137258665636,237.8636934782262 282.993517511175,237.11185677192407 289.53954446222633,236.22613423486473 289.61906147550326,235.3772944381344 284.9974627555348,219.63035004085395 285.0912520532729,219.02919470344204 301.5032140800031,216.0825986319105 304.1255278933095,216.37680461193668 314.61449187551625,198.33431801089318 315.48189724446274,197.3532447037869 307.56631352892146,188.1284792512306 304.07222527998965,183.41505715827225 269.129012622172,198.9487391008297 265.217241599923,198.846259795886 251.95974570664112,184.32741385645932 251.7768274488626,184.21809523314005 258.47285902220756,176.5365021143225 260.3736942933174,174.67846683994867 249.6575388443889,167.00655777996872 249.23024412442464,166.85851031768834 250.78126279113349,162.28857713838806 251.0201051022159,161.18935537093785 259.8261046044063,159.63777136657154 260.03348963556346,159.47377475799294 268.4142333155032,146.4474927642732 268.5520045510493,146.22061696881428 252.42286677332595,132.8600389705971 252.57927936001215,131.6558790942654 258.99015651550144,134.58630872808862 259.79989020433277,133.59629082883475 257.3377755022375,129.00287672231207 257.37010659556836,128.6812156350934 265.5961853155168,114.78873773943633 265.5935638755327,114.71173454727978 246.08393358218018,119.08492580230813 244.80525340442546,119.37015067663742 242.70868394663557,116.00073704484385 236.42334463994484,113.4145228198613 234.67134890670422,103.49403680471005 234.186091235606,103.02515822357964 210.42215509340167,96.9132400827948 209.75893077335786,96.12856176466448 207.82692949322518,92.55782947392436 206.95340743113775,90.64029099902837 209.05376341333613,90.05336043634452 212.01977713778615,89.53751642612042 211.38334975996986,80.45718513400061 211.00673621334136,76.54167059302563 214.2721766399918,75.97566509037279 217.75344896002207,75.45568610931514 216.95245340443216,49.219055418274365 214.83258225780446,47.17169183451915 193.41920398222283,36.52527208375977 190.84291100443806,35.94913446059218 192.68694840883836,34.237577355641406 193.93388003553264,32.48726265056757 184.48854044440668,25.9854491717997 183.49355832883157,25.79081111791311 181.44854385778308,32.587541478453204 180.44132835557684,33.38885881152237 165.3724174221279,39.99938598886365 163.9818891377654,40.01944106380688 164.7493885156,32.90341948362766 164.7942442666972,32.70559694839176 155.13569422217552,21.968667815963272 154.21003463107627,21.326395267038606 137.81554887106176,22.530711715691723 132.5452893866459,22.402622358116787 133.5618255644804,5.547955905669369 133.78057016886305,5.020514181058388 129.2597512532957,9.712284387496766 128.98246115562506,10.061473488225602 128.83070890663657,24.967130113684107 128.62798421329353,25.125302635424305 118.23950876435265,19.170278341101948 117.894643768901,18.40719926788006 103.23030840884894,20.79944773891475 99.9098177421838,20.899276131938677 99.4330069333082,26.139062688220292 99.10387057776097,28.0754041565815 109.91789311997127,34.196098706976045 109.9190582043957,35.04390247812262 91.54043363546953,30.66172406676924 89.56445041776169,30.282028344227 88.27004159998614,20.07557655655546 87.41778232890647,19.923782104218844 85.172664604499,33.58622491318965 84.90731662220787,34.06756042659981 88.95744142215699,38.763260520703625 92.42152874660678,40.112423659535125 92.05918748443946,54.45314466120908 92.48211313784122,55.26942149287788 107.23528618668206,55.84140594099881 108.61940650665201,56.398348711722065 100.43556209770031,66.53062914713519 98.25423274666537,68.99754358147038 123.83104028436355,67.70370446314337 125.47497443552129,67.57746472774306 126.46180096000899,75.50718276860425 126.38257521775085,75.67899011884583 120.84667648002505,74.2498404866783 120.58336739556398,75.86902620730689 122.75945386663079,85.78302824724233 123.3370444800239,86.84298621834023 117.65259747544769,89.24906248302432 117.84425386670046,90.70910030114464 141.7348929422442,103.12950543960324 141.98334719997365,103.11082319059642 139.34472220449243,116.4982926947414 138.9049028266454,122.72675454075215 130.21832447999623,141.17917515535373 129.26470286224503,142.26984220312443 111.8597976177698,132.57118700246792 111.21463210671209,132.5119586334331 111.01569393777754,137.5800261287368 110.81442559999414,139.9468150245957 100.87829418666661,140.0474997931742 99.60340053332038,140.6493294945103 105.65397532447241,157.93083393125562 106.00728718214668,158.36588331131497 103.2996309333248,159.29838935873704 100.85790520883165,160.2409133836045 89.31657870230265,136.63467012631008 87.69361607113387,133.840948226396 83.55785756441765,135.60593587975018 81.23264028446283,136.14353897288674 84.17739121778868,143.0803218104411 84.78731292439625,145.27119841676904 77.51485582219902,153.5506808536593 77.08231822226662,154.76291927282 62.17040241777431,159.75666883034864 61.82408106664661,160.13340480840998 62.6539124622941,191.46990009973524 60.33597696002107,200.49639845319325 52.63506005331874,198.020958030771 51.221812622155994,197.89570500521222 29.52561009780038,211.15026253386168 28.876075519947335,212.6295196954161 29.92960312892683,242.9425076438929 28.446450631134212,244.86325478117215 35.01927452441305,249.69510184793035 35.76055950217415,251.08803449262632 27.174178417772055,265.1261473973864 25.99423914658837,267.99740568193374 25.125668693333864,282.1623616187717 24.80119267560076,285.0074435045244 29.305991680012085,285.67534258659 29.79590968892444,286.06870550179156 29.412888177786954,292.40748671564506 30.596031431108713,294.36558318551397 14.924480568850413,289.26566332008224 14.287470648880117,289.827470754215 5,318.67528495850274" stroke="red" stroke-width="3.020257499074264" fill="none" stroke-linejoin="round" vector-effect="non-scaling-stroke"></polygon><polygon points="116.66081934224349,263.9910200670711 124.57086890668143,281.35194581054384 124.6413565154653,281.5176715364796 145.46316316444427,295.3826391135226 146.49368035560474,296.16022387024714 144.7783847822575,289.3467020834214 144.27069923561066,285.465457683953 151.7974360177759,284.54259909997927 155.42842168884818,284.07775370025774 156.60428316437174,292.9014513360453 161.42889784881845,293.93126152124023 162.49640647112392,293.9476510338136 167.56364999106154,292.6938497523661 169.46011619549245,292.40703144826693 170.68607630219776,283.1958650308661 171.14744974218775,282.09361297939904 181.78379690670408,279.69103924173396 184.0350313243689,278.4603757690056 213.55885368888266,283.0656529775006 216.58836451557,283.5783055751235 217.6986899911426,273.2690208196291 217.73014727106784,272.7076258495799 187.94214200880378,232.72100554144708 187.71232910221443,232.53884841734543 191.97216910216957,231.53743689827388 194.16048895998392,231.2305003827205 198.1867295288248,188.06106728716986 198.11478556436487,186.25095712585608 193.80834218661766,183.9789605527185 184.9062232177239,185.25434247107478 170.23547989327926,148.66931407473749 170.08460145781282,147.9695589862531 154.00497976888437,153.80716027220478 151.43888128001709,154.0905172880157 152.48396202665754,170.35650320985587 152.44813567993697,173.10374785616295 149.7069832533598,173.09828164370265 147.87663559103385,172.98850184696494 147.53730474668555,184.5824904302135 144.53546467551496,192.15220681176288 126.37150691554416,220.1158273028559 126.30131057777908,220.15544875751948 137.1430038755061,227.6364874097635 138.5425615644781,227.68931418430293 138.18400682660285,236.82633118674858 138.03545855998527,237.87143496918725 116.66081934224349,263.9910200670711" stroke="red" stroke-width="3.192582976037195" fill="none" stroke-linejoin="round" vector-effect="non-scaling-stroke"></polygon></svg>