<svg viewBox="0 0 1917.9391397511201 1139.8361291984177" width="1917.9391397511201" height="1139.8361291984177" xmlns="http://www.w3.org/2000/svg">
  <title>El Salvador</title>
  <desc>Geojson of El Salvador</desc>
  <metadata>
    <collboard>
      <support-module name="@collboard/map-svg-geojson-import" version="0.11.0"></support-module>
    </collboard>
  </metadata>
  <polygon points="8.052549999993062,678.43433674267 62.594958817760926,701.3559904056092 63.081381573327235,701.5687682536882 139.09942786666215,738.7820434680107 148.07938903999457,743.6520074416549 162.71918480888417,772.729912790317 164.4135088622279,775.5353291643478 183.96122285333695,800.7149628724219 185.6148417688819,802.4054563829777 213.07100333333074,825.6833859641993 215.74327014222217,827.5645695185449 247.99979807111959,844.4462206969401 249.39404006220866,844.972615007071 266.58872038222034,850.1058146845535 269.77231362667226,850.8154590652921 292.95873197334004,853.8779059734006 296.3995176088938,854.0374475310309 337.7417381244304,850.3254507783058 339.5069866933336,849.9756792378394 381.58415703999344,850.406794640432 384.38589385777595,850.1865599779339 405.863351777778,858.051532711157 409.0130119377718,858.9001798319441 481.03554676444037,875.1028081826735 484.2579518844432,875.6015785800919 505.37940368888667,877.1189066170846 506.5751444177731,877.1093293607046 539.1756635288912,874.8410018102222 540.7813683466666,874.8283566800601 582.9882271555543,877.5213753943899 583.9501500000042,877.510825471305 605.4894302133325,882.7673796237286 608.7116896977677,883.2661289587486 648.0887768444372,887.1465405418203 648.6303226577729,887.152451178008 707.6251016799943,917.2812552999749 718.2615216622216,922.9167369794231 779.9932296799961,958.7216476874673 782.0506959911145,959.7518606292797 868.2069430311094,996.630340657146 871.6381895377854,998.0597770664826 909.3898382488842,1019.7621864254543 912.2800486666674,1021.2749536477131 974.6542279377754,1050.3817530464075 977.6902923644375,1051.5688780591954 1043.3847438488883,1072.1599217140247 1046.9146584444388,1073.0439016177188 1093.4234459288855,1079.8369598072823 1137.9548666577757,1088.4342816919016 1194.6370258755487,1101.554195333163 1196.662743635563,1101.880993066712 1242.9845350666728,1115.2116531999563 1244.5415976088843,1115.4708005590874 1313.9091234399966,1122.053156849368 1315.4667685244349,1122.0695210996855 1370.8685727555421,1116.573592575318 1383.705036257772,1117.0910611634972 1448.0809762399876,1127.2532545797949 1451.3360765422112,1127.3246873818644 1469.350466586664,1126.9074476983005 1472.5939888622233,1126.6220892885249 1495.0183691644343,1122.6460050722599 1496.6636868533387,1122.2183684611591 1525.9129861955444,1123.7245446232337 1529.168086497768,1123.6531851606924 1558.1754851822188,1119.8129595825521 1560.134647493338,1119.3308428855162 1593.9043288444518,1121.798502028665 1620.9371278488834,1127.6808048960447 1624.1736596177652,1128.0372206094835 1661.5476025155513,1131.3035856525603 1664.7964404888771,1131.5177298749695 1695.3093467288854,1131.5686133751951 1695.3899560088903,1131.5651015922267 1728.3200483822293,1100.5663255546024 1743.837808097771,1084.328606345145 1756.5273253244377,1047.639548058134 1758.914219262224,1041.0701702899314 1813.1672502311121,1014.2798150146627 1844.6381471555505,1004.2572874746329 1844.7668889866618,1004.2284261607929 1877.9755821777799,1001.9956981914947 1883.8334083111113,1001.5842320508891 1896.5734610755462,985.3888713490524 1909.8865897511132,968.1566110061613 1879.5659952622227,947.7802411505327 1870.401368204446,943.0302074860592 1860.3463253599912,934.5511486385876 1857.0108342311141,932.119426601661 1836.457798000003,909.5722061185734 1832.3214569511038,905.1231136068891 1834.498125964441,887.3820680222925 1834.0872152444354,886.3490518019171 1821.727781004447,873.8886489495708 1818.6506473511108,870.2771000948924 1808.0814381777745,845.7650473401227 1807.0567464088963,844.2251555839102 1796.2452724888863,844.6612986823238 1796.0899521688843,844.6488759524873 1794.7520711377729,844.244089065578 1788.1717470133299,840.8486030990098 1774.4381684888795,837.9691403249672 1773.8069111733203,838.1263759221838 1755.145607991115,827.2957339841014 1745.3254752977664,820.5982919070884 1745.2765417510964,820.2353648039207 1745.1816601866594,813.7559939540879 1741.5175424266636,801.8160610050036 1740.6888032977731,800.5590420420995 1744.9417256088927,792.330003233139 1746.4026686844445,789.5032896446282 1766.177938231107,788.2012692114295 1766.5980968088843,788.0896541885086 1769.0202345511061,786.1656877658315 1769.2081044177758,785.9559299394969 1773.1085158666683,775.2602770690355 1773.674164364449,774.6775305743868 1778.884713271109,778.3625618004371 1779.758817875554,777.9684063905952 1781.567101751105,774.4375887974384 1781.8004099110985,773.7212053418116 1792.3736240622093,765.9964501826253 1792.7653108888917,765.8584676713872 1799.6022448622243,769.0899857473487 1800.3811766311119,769.0053858951214 1808.8203929866577,761.8918930422878 1810.4584288977785,761.5713738116974 1816.7967795466684,764.9186414836076 1817.643941573333,764.8532809674289 1819.253797004436,761.0016103460293 1819.7167724355531,759.577268636167 1819.0634513333353,752.4446834142509 1819.0827480444423,751.9627933490483 1823.0299085066654,746.925182591156 1823.07600216,746.1529810155407 1820.1082408088841,741.375710006505 1819.6011378044495,739.958101205928 1817.84353510222,728.3693347128792 1817.6994287199923,727.1015420075055 1820.3004069244344,718.2771411843496 1819.868087777766,717.7247638487679 1808.7602455022134,712.8839751274427 1808.015683724443,712.8509483641028 1801.7472381422122,717.0239551128252 1801.2969330044434,716.9428504406605 1799.3635481866659,715.225639458331 1799.2314567377762,714.9584330553553 1799.1065742488863,711.3022034866372 1799.2424522222136,709.7907413497669 1796.9497844888974,708.2622658069376 1795.5402507644467,708.0924843115281 1792.3474824799923,709.9265952235073 1791.4134488444397,711.1153496544357 1790.3265706933307,714.8854904308173 1789.511448488891,715.5138894151241 1782.242850728886,714.2401640863463 1781.4955946933333,714.2231640455211 1778.574582355548,712.3890972717563 1777.8782987644518,711.5229828327501 1778.7131545866578,707.6983240019254 1778.7953658577753,707.1584210743968 1767.0264109777781,704.4412069152968 1766.9415054488927,703.7449145949286 1775.8035018222145,695.8107948281468 1776.146692008886,695.2468885537601 1772.8984365777724,691.6309254347507 1771.6767727199913,690.7656838936018 1772.5674797777756,681.7389686704046 1772.80035103111,680.6847709335634 1777.6947979644465,671.8499829134889 1777.7768635999964,671.6195661911115 1774.1792284710973,669.6312732093429 1774.2026029777771,669.2757557215882 1782.2456178044522,665.8851199074779 1782.4721539111051,665.6273531320257 1780.976039848887,659.7835654057635 1780.7572952444461,659.52578977956 1784.2182514044398,657.7444982890956 1784.4916821600054,657.369554306315 1785.1070651999908,650.8864566260381 1785.5483409333392,650.0651429752543 1794.6434998311015,644.5124295672067 1795.3789593866532,643.8873010901516 1793.9720471022156,636.2908100866698 1794.0229467288882,633.2410487491215 1796.9178903022257,613.6525445230727 1797.3858901600033,613.2365191154022 1796.8020372177707,605.5511878269681 1796.6105992800003,604.4450559031466 1793.7176217866654,603.1474533920627 1793.6112350133335,602.1476425086803 1796.121336631113,596.5956740924084 1796.2915117777738,595.8937127635509 1794.9726361866633,594.08562678421 1794.5046363288857,593.107122827867 1795.5682127910986,589.7674135741327 1795.9085630844493,588.3209410305499 1794.993898977773,580.8757777257633 1794.6110231022176,579.9185603242004 1799.3418484888825,576.5513951441608 1799.5051059466641,576.408318990907 1802.3599269244442,569.8322367270084 1802.864481306664,568.814623399936 1810.7837787288881,560.865164742565 1811.1372362222173,560.4816202735892 1810.383208133324,557.5797873252232 1810.383208133324,557.1269009834868 1815.7185667111044,546.1567560103213 1815.6801917422272,545.7114862990347 1809.4850736622175,541.2819657195287 1809.369875937773,541.2435845488144 1808.1752274755563,538.1189393075838 1808.0990600799996,535.7813036850348 1810.7593847733224,534.6059146707194 1811.3862730222172,534.1984736289523 1815.4824914755445,524.9960514037884 1815.8184727022162,524.5351341799324 1821.7403056622134,521.1366944137044 1821.9747060888767,520.7226245504062 1823.2793822133244,513.3944832190246 1823.396546017786,513.0585193191582 1828.086739084436,505.51666866521555 1828.3731314044417,504.9257620508797 1828.8887540888827,494.16013040458347 1828.8692389244388,493.9023373731252 1823.0562685422192,482.0693929530171 1822.9703435644333,481.9209905252137 1816.6734262311074,479.9209574294 1816.5288829422207,479.8896868114607 1814.8491952622135,481.303758054004 1814.7594109422207,481.31155689848674 1811.2750074577634,475.5537401879774 1811.0952931822103,475.4131313302423 1804.5055027466587,474.260809351581 1804.2633108177688,474.1787681761125 1801.243776026662,471.44828986781795 1801.1656425511173,471.3467491474221 1801.2573929511127,456.56159428453975 1801.2457421066647,456.32332062227215 1796.8629128799948,450.86236195499805 1796.7496084177692,450.6396809295911 1789.425377875552,447.08889637803804 1789.2378720977722,446.98734146462084 1783.019161057775,440.4913040610627 1782.9410275822156,440.3271898702005 1773.726156257777,439.0537995003615 1773.6441634399962,439.0225215492901 1772.4761662844394,434.05375633268704 1772.4019649688853,433.93659188116 1765.3589566844457,430.7139384357797 1765.1441442399955,430.61237396201614 1763.1441311555536,427.86238451019017 1762.9058713866689,427.7373396304538 1762.8160142488923,424.4092524628577 1762.762493182221,424.3140604457076 1766.2925534133246,418.7314712344305 1766.370686888884,418.5284032319105 1762.869389679996,407.28510163905594 1762.2566280799947,406.53016578449024 1758.281359955552,405.22096733448416 1739.5035483288812,407.9463336231638 1731.3394375377684,417.1475045092011 1731.2203076533333,417.2041419772504 1729.9468703555467,423.31157806859846 1729.8824266222218,423.43557594046433 1723.096319457778,425.9482953545594 1722.9214839733322,426.00102929208515 1719.2085783022194,426.31158160095947 1719.111876293333,426.2744503758513 1715.3062007733242,422.4385645328657 1715.200760631109,422.4033828505562 1712.5523780533258,424.8945884138884 1712.354095244431,424.97987837835535 1708.5250452177715,424.81357416086394 1708.358947866669,424.78034330353694 1702.4410470666626,419.9404223319798 1702.3189316533244,419.91806776534213 1701.5718940711085,421.5479181729388 1701.3843882933288,421.6592398408902 1697.894159386662,420.8096226634734 1697.7105857688875,420.90729209308483 1696.9390814133221,423.1416715849846 1696.8062617866672,423.17092701784713 1690.6969230488903,419.5069082595073 1690.3062556711084,419.4210154829998 1686.2710585155437,422.1631120236925 1685.984010835542,422.321317235539 1684.328717111115,420.6865981117371 1684.2164320977754,420.70122603554773 1682.821898835551,423.02645013994334 1682.5015734311019,423.39356820190005 1680.871693111112,422.2461528996573 1680.6461036355468,422.23347547853336 1679.3082226044353,424.11234921414143 1679.142198071102,424.3623690882014 1680.5660040799849,427.01662329670944 1680.482045182216,427.0917855685475 1677.6773228355596,427.80957612564816 1677.4371698044415,427.6904571538398 1676.6119259288826,425.1211280690841 1676.4673826399958,425.0293870456444 1673.9488341599936,426.348637805575 1673.6402324177761,426.5811015485742 1674.7164791733376,430.95217215318553 1674.733955439995,431.14164873687696 1673.4214878133207,433.45615679681214 1673.1910195466626,433.48736073954933 1665.1969382666575,427.29011779445136 1664.9293329333304,427.0147479901134 1660.9760557777772,426.975891632821 1659.811553875552,426.8278173267099 1658.1080547822203,425.0326126098298 1657.8150360444415,424.96037496010103 1652.1705660000007,428.3939180098314 1651.8873776622204,428.436899690867 1647.856112666661,424.63804314967274 1647.613920737771,424.4017511237689 1646.4361659999995,419.85482983134716 1646.2525923822104,419.8920374441732 1643.0865482222143,427.13416747397423 1642.9205965066649,427.40766178671765 1639.4732572711073,426.00335468583944 1639.3238351911132,425.98865219581785 1632.2583990311105,431.41933732367033 1632.0826897333318,431.5716833047991 1627.0651079377712,431.1673773306902 1626.850295493321,431.22596049948334 1618.0513593155483,439.0892778409252 1617.9264040088892,439.1986380925737 1612.815032915547,440.4213230287787 1612.7135249333369,440.47795291238435 1612.0044982311083,443.53841442656267 1611.7272081333358,443.7533040111375 1606.0006724533305,443.4662594698966 1605.772461537781,443.665023051617 1606.7213499999925,440.31383870892023 1606.8189986399957,440.1888777902277 1603.9908289688756,427.25921278776514 1603.9088361511094,427.1068630263544 1602.1197761688818,427.23183334762143 1601.8736520800012,427.145869378779 1597.338488062218,420.36853423255525 1597.2564952444372,420.18887289238774 1595.803343671112,420.41151789933065 1595.6783883644384,420.29824503727286 1592.545549111106,412.1576335257196 1592.5377576088795,411.9857656377644 1590.846346266655,412.09124197853816 1590.6197373422183,412.0052705135822 1584.9518199733284,405.3920166876269 1584.7955530222098,405.2630544936037 1582.533832844434,400.540451390807 1582.4674230311066,400.3216821184833 1583.3346099466726,398.2435853326242 1583.1236568444438,397.99352781745984 1574.883451475558,389.8217076803194 1574.83655682666,389.6888324203537 1570.2936013066646,388.9193393558162 1570.1607816799951,388.73184242888965 1569.3912434044323,376.6420259335355 1569.3600045777712,376.392012247401 1564.2740468888805,367.57167019999906 1564.0865411111154,367.2084108483323 1563.4146514755557,362.3060232479547 1563.573831137779,352.6873911481598 1539.0504055733181,346.3045907287087 1516.9332434755488,354.62487842301925 1516.6363653955486,354.81241234858317 1513.7457180711062,352.74990318115306 1513.448839991106,352.6873911481598 1508.308268968889,353.59362580000743 1508.0113908888889,353.562407461206 1506.3551505333307,356.34366913008125 1506.1988835822121,356.640538512489 1497.749618373331,359.1404946525945 1497.6676255555503,359.1404946525945 1496.780923475555,357.23427574564266 1496.632448026663,357.16005870317895 1490.5074534666637,358.23038693633134 1490.3668423377821,358.1951922061635 1487.8668623911071,354.33971239941457 1487.7105954399885,354.2186667842834 1485.2066833333229,354.99596876664873 1485.0855873688852,354.9139462376552 1485.3668096266629,353.2382166859679 1485.1128940355557,353.1131929511248 1480.3042992622213,354.46473524565954 1480.1441729688959,354.49993073647056 1475.659835759987,352.8475359749209 1475.484053644439,352.7968059521445 1472.7300852888875,349.41001788413996 1472.5426523288916,349.21084595964203 1465.3355855911068,349.4061154974697 1465.097325822222,349.38270117562934 1463.507495280006,351.480371655176 1463.292610017772,351.5702004919367 1457.9176385688916,352.1522481957727 1457.7066854666627,352.1405412215754 1449.2379050933378,346.9725849875904 1449.0543314755487,346.9334855185225 1447.1676228533324,349.8944384663264 1447.0035644000018,350.06239062944223 1443.1246341955557,350.85149344293313 1443.0582243822137,350.93742025510437 1443.2301471555547,354.187373514731 1443.3707582844363,354.453028428361 1445.7808810933202,355.4842759161038 1445.8434315644408,355.69912462075445 1444.726188399989,368.5897077802292 1444.698881733333,368.73820704838 1448.1559057333216,374.08191971047927 1448.3589945155545,374.5194492690862 1456.805492648884,381.7199567939315 1451.3355668177683,393.5428488065445 1423.6559274933243,393.9413153565765 1423.4371828888834,393.9804041930256 1422.6402651288809,396.0584770832429 1422.6402651288809,396.1209734376098 1425.0699759199924,401.3006649628296 1425.0855589244456,401.5506426832071 1422.5738553155534,403.44519500202296 1422.5269606666552,403.6873673062146 1425.2378937155445,407.1796223759957 1425.2613410399936,407.4608002406385 1423.0699628355505,410.8748843227586 1422.9176280444517,411.0545553039192 1412.1324413422117,414.91739889213204 1411.9605185688852,414.9330775468334 1405.6676062133338,411.0853881759467 1405.5035477599886,411.15568110210734 1392.9683314044378,419.9799554008423 1392.8941300888837,420.16351774882787 1388.4175843822159,420.2533859628529 1388.2886969155516,420.29636965812097 1385.7574053244462,423.42132331601897 1385.667548186655,423.5365444991112 1385.5249709777709,429.37251748868584 1385.460527244446,429.4916353075314 1378.61485513777,428.38911726294464 1378.523031919991,428.3988687799065 1377.2886977688904,426.58635242010496 1377.2163897155551,426.57074982995255 1374.1538924355555,428.2817005167235 1374.021072808886,428.2856011259937 1365.1616978755483,424.80119697997725 1365.0484662311064,424.85978229500324 1361.9742452888895,428.37156453102216 1361.8999711555516,428.5082357558349 1360.6510734488838,440.13404797105613 1360.5456333066686,440.6536179439936 1357.2252882755565,443.99737025411014 1356.9110795644374,444.2378359227514 1353.536776559995,444.83734854010254 1353.013289555558,444.86472520860116 1347.8804372177692,441.3471255551194 1347.3570230311016,441.01117299200996 1342.735934035547,433.25535629089427 1342.5972161688842,433.1069122862755 1336.4996010933246,433.14006654185505 1336.197844222217,433.0394786111938 1329.6461374844366,435.97803238619963 1329.1500299644395,436.0775685000044 1323.292567919998,434.67715689801116 1323.0660318133305,434.71038586310897 1315.3804794577736,437.7005916837006 1315.0406388888805,437.70269189799 1311.9136978755414,432.6166486196089 1311.6675737866608,432.59122027972626 1308.524030319997,437.0531244117956 1308.2398953511001,437.2728975164282 1302.1695141244418,438.38225990480714 1301.7144758311042,438.92133696399833 1299.0133003644441,443.0658814225244 1298.8687570755574,443.226017750967 1297.046492186666,451.8685856317388 1296.7750275111175,452.0502392866256 1290.3160178044345,448.75726861674775 1289.7867053777736,448.63223875723634 1287.8540487377759,452.53077304152976 1287.0952874933282,452.61079937076283 1277.499579191106,449.6693763511357 1277.2964904088876,449.6888769988218 1276.3218972711038,460.44870145011373 1275.390266622213,460.32757987245714 1273.2164375022257,456.3353955623097 1272.8824223555566,456.11077154058876 1263.0533330755425,451.5892796424523 1262.4673684177833,451.23189632570575 1258.5178049688839,451.7961341211558 1257.838487920002,452.32166939476883 1255.1715368088771,446.1691247162744 1255.140297982216,444.63791125530406 1258.4840175199934,439.68475783043687 1258.4527786933322,438.7003658266258 1253.2184183733334,429.63790707667795 1251.6558944977733,426.4503547962595 1249.1402587288903,416.99724634213635 1248.343413786657,415.3879079518447 1244.7652938222163,413.96602447599435 1244.4684157422162,413.73166839421174 1247.1714844711096,406.51291092676547 1247.6097018577711,405.5265303806009 1247.2034514755505,391.83905822116503 1247.3440626044467,390.7453042134948 1253.854336026663,383.5255891464549 1254.134174746665,382.3244874548909 1252.8284063555475,372.3077789023446 1252.625317573329,371.6515132712884 1232.022037075556,357.9974562220377 1231.3071849511034,357.8060986023993 1223.674425484438,358.0287488008398 1223.393130408891,358.07947728582803 1217.154831386666,361.61467567481304 1216.924363120008,361.68498869345785 1210.720506906655,359.4506415769647 1210.455668648894,359.5013696441674 1203.1001992799866,363.41151325840474 1202.2212887022179,363.188870000311 1199.6529328622273,361.12443480360525 1199.2232351555576,360.7162123518865 1199.3071940533264,356.18105113010824 1199.1353440977691,355.03266501814505 1196.852142675547,350.31581947759696 1196.5298511911096,349.34517821731424 1189.922147582227,342.0734500320468 1189.3909418933326,341.526566449269 1184.547176133332,339.96403236599144 1183.9534199733316,339.9952531664967 1182.2971796177735,341.79216581506626 1181.5471565066546,342.26092255570256 1174.5315277066693,342.901539696737 1174.000322017775,342.8703194226473 1162.6565501422156,334.16714729459636 1161.8909440266725,333.69844358834234 1159.9689915999916,330.1905930331923 1159.4690975555568,329.79212947417545 1155.4534155644506,330.1671761006219 1154.6409147999948,330.41718171303364 1151.1409283110988,334.16714729459636 1150.4533828533313,334.27657385296334 1145.5627952622162,332.57339938308724 1145.000277928877,332.44843571401 1141.269823173323,333.7023463306323 1140.8128187999973,333.6047026940287 1134.229946053325,328.5120712477583 1133.9822199733317,328.55567819586577 1128.121626764434,339.4181927936079 1127.9602625688858,339.56026285011467 1119.7937487911113,338.82101695411984 1118.777722337778,339.2810008899178 1120.2734723111062,332.32759988772887 1120.3086432977725,332.18694988129573 1117.144565217779,329.128346730482 1117.101602728886,328.7611786047419 1119.6328215022222,322.9173808044652 1119.6875076533324,322.77289517693134 1112.5195440622192,314.17521894953825 1112.4336190844479,314.06195148257393 1109.1016232088878,314.85489724533545 1108.9101852711028,314.8588004149715 1107.5625466577767,312.85098323737475 1107.4414506933244,312.8548864525146 1104.8867845955538,314.4447636951154 1104.7343769866566,314.52290231845836 1100.527402693333,311.86271633741126 1100.3007937688817,312.0268023637109 1082.793870817768,258.56556453642406 1079.4549572533288,248.36863651184103 1064.7593830666592,240.12482393762184 1034.814528311108,223.32666330305074 1030.823385911106,234.2706441026894 1028.1814112977736,241.51510301553208 1032.5972269777703,245.5371916019576 1032.7183229422226,245.61340927388665 1033.1850848977774,248.7832834019282 1033.0737465155544,249.09580724924308 1030.0991402933287,250.32044168086577 1029.9077751733275,250.45710400163807 1028.4858624266635,257.8594581300058 1028.43896777778,257.98447611850133 1023.6940157422214,263.0110245998294 1023.584643440001,263.1516562099787 1023.5534046133398,265.53058794273966 1023.4947863022098,265.6438123757034 1019.2866469244473,264.69934712317627 1019.1265206311073,264.7227729878432 1011.4233463733399,268.3868541016491 1011.2109369155514,268.3861783700777 1012.4414117244451,263.14790203075245 1012.2930090933223,262.6557284206865 1009.5508372177719,260.8119606608452 1009.3007809688861,260.4056773512493 1005.2461414666614,248.53849017665925 1005.16021648889,248.37441844749992 999.9238900888886,248.7943967056708 999.8145177866681,248.59908779606485 1000.1504261955561,241.68496349457564 1000.3301404711092,241.31783336119406 997.6425819288852,238.06776985883334 997.5410739466606,237.75530092817644 998.408260862212,235.37245307649573 998.369157715555,235.17720391319745 991.541034693335,232.42717081489536 991.3847677422164,232.16155221813096 988.666043191115,220.9154505923143 988.6191485422169,220.7201097772413 990.1621572533331,217.85298253660585 990.0957474399911,217.57953046014154 987.482463031105,216.5951444137827 987.2246152799926,216.47407662907062 985.5957544088888,213.03652676681668 985.4394874577702,212.7865750569108 982.3730580177798,211.77872818797914 982.1699692355614,211.69671221791214 978.9121746755554,207.5287167622664 978.8105938755616,207.42717064003955 976.513702711105,207.9310701438153 976.1895179644343,207.7318839330328 974.6972632444376,204.79829169877485 974.0254464266618,204.54044141069608 972.2910725955444,205.57169000147405 972.1348056444403,205.6732372305487 967.791079564442,203.00917969982402 967.5957094666664,202.89981943113526 961.2207314755506,203.57948935774766 960.837928417779,203.48575230301503 958.7363345333288,198.65762328010896 958.6191707288817,198.54826021438203 959.4941491466598,192.58734097264096 959.2051353866555,192.47016207405977 944.9316858577658,190.37640190839738 944.5410184799985,190.3373417765033 939.5176112622139,194.06386328925873 939.1660470311035,194.25923469203553 931.8300928266544,194.53264911947917 931.7051375199953,194.67326208241138 928.9785486488836,192.35298309471546 928.7520125422161,192.2201801538249 916.9258228888793,190.47991121450468 916.7226612888917,190.47209919358284 916.0429801511054,187.87833817225328 915.9414721688809,187.65178595246834 908.7539205955545,186.86275689824106 908.5117286666646,186.83150814740657 906.7383245066594,182.8783445797235 906.6836383555492,182.56584948398086 910.1211471911083,178.58929917972273 910.1504199377814,177.7963217255383 903.3594339822157,168.91744066500542 903.2109585333237,168.64007848600886 904.3477168622194,166.03456471728714 904.2578597244428,165.86275055501756 902.0586171999894,165.89400316590763 901.8438047555537,165.8041518940663 901.5390623555431,162.6830677996113 901.507823528882,162.51117511356279 899.7617260355473,163.0697505783246 899.6445622311003,163.03068416317547 897.6640643111023,160.7611353738539 897.4961465155502,160.52680868481548 894.6406701777742,152.89009058979718 894.5390893777658,152.7220948502145 878.0625379822159,143.15177257748292 877.8164138933353,143.04628083291027 871.4921898933244,144.46034561783745 871.4024055733316,144.48378803757805 869.7969192088931,143.18302937805856 869.5703102844418,143.06581634612667 869.4414228177775,134.16738201265252 869.4023924888752,133.95255508050468 872.6914258755569,130.27678566126997 872.7188053599966,130.061953785691 869.9375303377747,122.897879468881 869.9102236711042,122.6127018760526 871.3672345866653,121.80413248667173 871.4531595644366,121.59319743785454 870.5547338222241,117.51113530350995 870.5352186577802,117.31582568381418 872.2226978399995,115.88222060960106 872.3008313155442,115.60492179283028 872.1093933777738,111.00334820636635 872.1133255377645,110.89791154303384 869.1797157244437,111.51504950928938 869.0468960977742,111.49941818095249 866.6914594399859,108.33930500156566 866.476574177781,108.28459431639203 863.3867702311109,109.29628821064398 863.2344354399975,109.16740316463256 862.4492413422122,97.44867302283092 862.1416590488952,97.15270496284211 842.6953802222124,95.69472774795577 842.4687712977757,95.67518675421161 833.2578321333276,90.98768782607658 833.0547433511092,90.91350512298959 828.3476565599995,90.7885143345411 828.1835981066688,90.72598132561689 829.0195461955445,86.31388823038287 829.0000310311007,86.0990755271414 825.5606289333373,84.03361259483063 825.5371087911044,83.87246332946961 829.7578456444462,79.07173791230161 829.8242554577737,78.90765245467628 829.062508684452,65.78262746634573 829.0664408444427,65.62251310912688 822.7304931822146,53.372485445324855 822.5703668888891,53.29046777851909 822.9766172711097,50.61077595124516 822.9726851111045,50.49357369659265 817.2422172711085,44.64982111432619 817.0507793333236,44.52096171177254 809.2613160088804,40.03149545178894 808.9005039199983,40.083070677566866 782.2500710666645,59.806650311009435 765.5992667288956,71.93315845805773 755.9451585688803,72.93191634427785 755.8592335911089,72.92800761722174 735.0039307644474,66.76308027140476 734.6016125422175,67.11074386927794 733.4593928799877,59.380039034927904 733.3267188888858,59.028751086116245 735.8657291644486,56.171586822027166 735.3110033333214,55.726247607199184 724.5050635644438,55.79240205547103 724.4014438666636,55.789395035659254 723.1315746399923,52.772274572263996 723.0427369511017,52.53546733731491 717.719611759996,49.915755611618806 717.5670585155603,49.7601368177493 712.9184443999984,51.67371171281411 709.749997253326,53.023139523102145 691.1315837422153,46.86056391888269 687.0251707999996,45.491239003611554 673.2696013066743,34.77171647425712 672.1569456622237,33.26568066425534 665.6443420711003,36.010007458178734 665.5037309422187,36.092033574888774 661.1182074577664,34.62450434501079 660.1975722933275,34.63352654256596 657.6999953333288,33.18275093661941 656.3043698044348,32.31585839839681 651.790395759992,22.71297536664497 651.2527821066615,21.154122217012628 644.9524423377734,17.93230600690731 643.8475053777802,17.578374646771408 642.2341546933312,18.623323437095678 629.1368579111004,30.939497510284127 619.1250688266591,25.447474903623515 617.3672476711072,25.041227700749005 612.3854194044397,18.71295247469243 611.9132689333346,17.926816956060065 607.9465933066676,25.664169751085865 607.8430464266712,25.728907470336708 606.3559617688879,12.199458204071561 606.2375600622181,11.589625211832754 602.6528136800043,8.181738255058008 602.4555503199954,8.066160641588795 598.837380577781,11.140257332393958 598.299766924436,11.399606511891761 595.7089103910985,11.049421108305978 595.5336379999935,11.142212416154507 592.0703516711073,21.791289781984233 591.8516070666665,22.416274067269114 589.085987866667,21.884977420973883 588.6248328799993,21.848509927287523 585.9082200444391,27.794486228849564 585.6453478666663,28.291553668306733 572.1988170222176,37.1254389119058 571.7779302666604,37.33429954401072 568.6820096266601,37.21475731340615 568.5887300533359,37.17626319334522 563.5023354577716,31.429638467343466 563.3247328977741,31.043255034550384 551.5929150844313,28.47839530575584 551.332227439998,28.475237420650956 546.1095907822164,24.357830913526413 545.588943671115,24.180157818518637 535.664099013331,30.886942044126044 535.546935208884,31.156485998588323 530.7930265866598,31.39084227265994 530.5273873333208,31.40648104990396 523.421901395559,41.71504998602177 523.1992974488821,41.85180562733876 517.5977170755505,39.05494638239179 517.3438014844432,39.22290510760649 515.8664744088746,47.37749733201781 515.718071777781,47.76421901850699 512.7727383022138,47.19781879570655 512.4368298933259,47.35795072234032 512.2890826222138,50.05100100655545 512.1367478311004,50.28540605214221 509.1289367022109,52.36353755772143 509.0703912088793,52.47292010075034 510.4258213244466,56.027550837890885 510.37113517333637,56.18384039951343 502.9140850044496,61.64478750939452 502.71099622221664,61.76198198078055 497.7966700355464,57.73921055324172 497.7167889333359,57.56675987944618 500.052783244435,52.78926453881286 500.07623056888406,52.71897417931905 499.6972868533194,47.85571194651857 499.6777716888755,47.64475940139528 494.21257901332865,39.72670509099407 494.18308781333326,39.70948825339292 493.44034647999797,34.86291575195355 493.26136038222467,34.301133427339664 473.0789666399942,33.93204923423036 470.44718651555013,33.70867358212854 466.9788757600036,43.48369254190038 466.92178662221704,43.548197834978055 465.12231369777874,62.62902307994227 465.19753446221875,63.237542836875946 467.1324484533252,69.12477313169074 467.19791163555055,69.23437026960164 474.60777588443307,74.75164442850655 474.6679233688774,74.79922514157806 478.07251856889343,82.48705432553106 478.0861354933295,82.75907102299243 470.64561495999806,82.05178159694333 470.3191728622187,81.99736303125246 465.7438134311087,85.88546514249902 465.7125746044476,86.10426170130813 464.5250622844469,84.9011401778771 464.3063176799915,84.9011401778771 460.68210406221624,86.23105985172879 460.5227059466706,86.2456412570973 457.74907679110765,96.17295528470277 457.3487974666641,96.79180059672944 457.0222825511155,112.67206438813446 457.08476020443777,112.95327582157188 458.9754009866592,113.67200863356265 459.4128901955555,113.48451014507009 464.42857872889726,108.87513810952805 464.8348291111033,108.6563711093113 470.53791746665956,110.18765900299331 471.11601780443743,110.50013742244482 473.66289239999605,108.71889746741363 473.96763480000664,108.7267132605557 478.77229741333576,110.7970590207915 479.10536592887365,110.69868642054644 480.1013674933347,114.09840722637455 480.12241183110746,114.40636944567814 482.9880826577719,114.53870735706732 483.13655810666387,114.77557768105908 481.9532692177745,116.18439313771523 482.06875821332505,116.35152339598426 484.13772973333835,115.9031870869876 484.2678551022109,115.98276949894353 482.7139965422248,118.6420329272878 482.87936571554746,118.95344363491313 485.98934018667205,119.27522407656215 486.3087189599901,119.32316795722727 489.7686556710978,123.48100790977333 491.172728062229,124.80664073381195 490.7894880977692,131.02858236293105 489.0575900711119,132.7186662508393 489.9657733955537,135.60661773681204 490.39503419554967,135.84052807655098 487.49470210666186,139.7908063278519 487.50096443554503,140.2541068428327 489.33051110222004,139.63729924427025 489.4928947466542,139.69996441415424 489.9521564711031,144.39963574651483 490.1252443288831,144.88388652769936 508.16373705778096,165.62339743541816 508.23014687110845,165.72106196318782 507.14217645332974,169.09999461443658 507.1627110666741,169.2738338717536 509.0479633333307,169.19668051548797 509.07286701332487,169.2044935151862 509.53569680888904,171.44771104750544 509.5308180177817,171.5365827187561 507.3966017688799,174.97136578543723 509.27187799999956,175.03672229772928 505.8660448977753,181.50013171717728 505.7410167733324,181.71887971707474 504.16647796444886,180.76561113142088 503.5848095555557,180.70326162061974 501.9285691999976,182.8751895840469 501.8778880266618,182.8992276449644 500.2499737866601,181.8091732804969 500.2071569333348,181.8106005494119 500.1816707110993,183.47418700092385 499.9754507644393,183.64080015324726 498.82820667554915,182.25808632415283 498.7377669955458,182.25282797877298 497.16089801778435,183.48898538039793 497.0859685244359,183.49634701031755 492.69534779555397,180.050994221594 492.60337894222175,179.99367750327656 488.8537002933299,179.59636619395314 488.6618254488858,179.6259636273826 483.9559765599988,183.51700464358873 483.91112080888706,183.57529671520024 481.98611003554834,188.793783339941 481.84251337777823,189.07201399500627 475.3631875111023,189.08095282330032 475.1298065333249,189.08996676731476 464.9875279911066,194.41652315538522 464.90444290667074,194.4380057135786 430.46418264000386,193.5542140328398 429.47444340444054,193.49825392560888 403.07406680000713,207.57197899714083 402.7775528088823,207.69988793627272 399.85311803556397,214.62898393159412 399.48990296000557,215.4896090915936 384.7581383377692,228.72544514001493 368.39074079110287,243.30951800368348 362.6690110844502,253.17057933881733 360.04713417777384,257.3059990183756 351.7301060533355,284.7248141649252 351.6942068888893,285.0658005157966 349.2591075822129,285.36617124199256 349.0916995111038,285.6940184198247 350.6711171111092,288.3862904519847 350.6621605244436,288.9157761554743 349.1341522755538,288.43208468627563 349.10961268444953,288.4760020962203 345.2686933600053,298.7424579832077 345.20585161777854,299.11044089971256 347.4673533422174,303.75009583459905 347.52116567999474,304.01034878647624 345.77120884443866,309.6910012555236 345.6994105155609,310.1397285412895 347.6647623377794,315.78452466674935 347.77245983110333,316.06269883907953 352.33136244444177,318.73700604645273 352.51085826665803,319.06006080314546 351.45398104000196,322.87880127735116 351.3485408977722,323.07019767903694 345.60241723555373,319.6717164861693 345.1160672977712,319.634412232037 340.2249699822132,320.8372264120335 339.9457138044381,320.9310493174344 339.5907271377655,322.66000865936076 339.23093449776934,322.76216195403686 331.00478295999346,320.6600135687404 330.92664948443417,320.6170801459448 321.6431109955447,321.6467287560881 321.2214232444385,321.7011457914268 321.2214232444385,320.1505162450703 321.0272182311164,319.91978581748117 316.23813862222596,318.0552414261256 315.8318882399908,317.68542258290836 313.78505332443456,311.9588710680764 313.71289090666687,311.60818001871667 309.8226011288789,310.88727947581356 309.59140468444093,311.10488607030857 306.5400485244463,307.1035529152796 306.2724431911047,306.58891102528287 305.6194861777767,307.79954807183094 305.3066610044334,307.79954807183094 302.32775853332714,306.1400994022333 302.0012436177785,306.0448421934343 302.2325128800003,304.3581277862031 301.9468487377744,304.09967693693034 299.1855986044393,304.8886151395636 298.95432934221753,305.02463342448027 293.89429478222155,299.6517541972353 293.7854322044295,299.51573165703303 290.0584727022215,300.62290095736535 289.609551102214,300.64474550325394 289.3646649155562,299.1756748350672 288.2629319377738,299.3388721665615 286.4810080977768,302.3314213101039 286.15456599999743,302.42660551181325 285.99130854221585,301.2431798855614 285.6920274755539,300.7807671490955 282.44107778665784,300.3590396424188 281.91060027555795,300.386289065842 279.10849936888553,302.0593803670854 278.99970960889186,302.2361619891817 279.6254327733186,304.1540995268224 279.02687063999474,304.4261371521643 265.2267366666638,302.89862228782295 265.0717076177825,302.9399837469464 261.4624944622192,311.317763451887 261.42149805332883,311.38516956358944 261.425284577781,315.83226316975924 261.0582101600012,315.97435269226116 238.69783668444143,314.0928767360965 238.39455064000504,314.1926331591749 234.88284048889182,317.09305025194044 234.11920045332226,317.52659614189906 233.13288365333574,321.51290030498785 232.82945197333174,321.8517870670112 229.52621912000177,322.81290081998304 229.11756575110485,323.5386300918981 229.62481439110707,327.9069767933179 229.97710679999727,329.48523159696924 227.93165542221686,336.041799263483 227.5267157599883,336.87224450265785 223.9694944977673,338.6284372487935 222.40799007110763,338.7077657037371 219.61280685332895,337.0664772987002 219.17597300444322,337.1650946391528 218.19664671110513,341.3573301324286 218.00637385777372,341.7448097558008 212.7469642222277,341.87892268227733 212.53601111999888,342.01948972824175 212.89536685332132,344.79298243826634 212.89150751111447,344.9804520047255 209.6727432799962,351.7148120632555 209.5750218222238,351.9179584716694 206.06338448887982,350.7343477374743 205.73912692443992,351.0781300079616 205.18833325333253,356.3984504246109 204.8524248444446,356.7109285995757 189.63758708444948,363.10932768147177 189.41491031998885,363.2226379547865 188.10244269332907,369.12112296562555 187.99692973333003,369.3046641764013 183.13758096887614,372.74216144906677 182.90318054222735,372.9296757057091 178.52821563555335,373.0546850971514 178.1649277422257,373.2265165861245 176.79384180443594,376.7890176049041 176.64929851554916,376.91792597139283 174.6258381066582,375.7968401571925 174.43447298665706,375.80854552819073 169.3719626222155,378.93752785812103 169.18445684443577,379.0429492885087 167.48132183999405,378.3359116614374 167.30553972444613,378.3906109506279 165.5438592266728,381.1171497596006 165.29380297777243,381.22264489380905 160.37197655999626,379.92578559218236 160.1648828000034,379.9882877706332 159.47741015999054,382.9413211428255 159.33679903110897,383.11329287259287 154.6726747288776,385.05073918205017 154.36021364443877,385.47263471068436 154.02430523555086,388.4804206607587 153.8602467822202,388.64841035770223 149.5985135200026,388.6132218192288 149.3563215910981,388.66011485933996 147.0399152622267,391.85541421028756 146.83682647999376,392.08199701997364 143.55551177776942,392.4882697592766 143.2586336977838,392.6327720772315 140.76396944888984,399.39303499356174 140.58075992000522,399.77355734496814 138.01611778666847,400.51329280615755 137.86815206221945,400.67534396635165 140.23713282665994,406.4129077393809 139.77051650665817,407.3054322720054 133.18982829333981,408.66525362464745 132.76741236443922,409.3723925245504 134.20447120888275,423.2996508638971 133.89441311110568,423.84177524562256 131.0972638133244,426.3148071413525 130.79346804443048,426.6238586407344 125.94103696888487,426.59445376444637 125.176523119997,426.6384860645703 112.20396319110296,430.9676243288777 111.29869257778046,431.31027222119883 112.0115786222159,436.0660922215102 111.93475586666318,436.1912061187104 101.81512365333037,438.65191115409107 101.00488023999787,439.1380324197744 100.61843629332725,443.77715561357763 100.63066967998748,444.3438927277821 97.13068319110607,449.7125777830588 96.79783312889049,450.94688916761515 89.1320143910998,452.14856618592603 88.72350665778504,452.55709848285915 88.55333151109517,456.10297156936576 88.81482015110669,457.1954891392015 91.0691129155457,460.02706300024147 91.09845848000259,460.9726356766114 85.5298645599978,467.86140683505073 85.34629094222328,468.0677920354283 78.76749599110917,470.6056650839819 78.4985071199917,470.98430678835575 78.02023995555646,478.35284527227486 78.13667558222369,478.78703774850146 83.64716091554146,484.0342322110009 84.3116231377644,485.1351234419344 82.66353837333736,491.35610463226476 82.299813573336,491.8243826887265 77.07863327109953,492.0834535164977 76.71490847111272,492.3873644786727 79.12306519999402,496.09551557322993 79.10857446221053,496.6933503798282 74.93647988444718,498.2060365236175 74.89140567999857,498.28634184149996 77.85647277333192,500.24312585566804 77.8447491111001,500.4540466255494 74.35422893332725,505.83630175053986 74.36107380443718,506.17632833059906 77.77506249777798,513.8866193106442 77.84817154666234,513.9325039580508 81.62792393777636,510.17517131027853 81.76227273777477,510.0663803567804 83.76519853333593,511.70033688750846 83.8162437955616,511.7581432657389 84.34562903999176,516.3917385328023 84.49352194665698,516.6586452423726 89.81606459555042,521.9881473313944 89.83084660444001,522.0611695164189 87.25928678220953,524.0777393612152 87.19717321777716,524.1688285736673 86.81051081776968,528.2379565952651 86.89417844444688,528.4680356500976 92.57025140443875,528.7110839687302 92.61277698667254,528.7316253596291 92.44616991109797,531.5900788906365 92.42592656888883,531.6553004766683 86.6248254844395,535.0910194137323 86.46076703110884,535.2491973046926 86.56984806222317,539.7924403045399 86.54407056888158,540.1480684564813 84.92023412443814,541.8088813734139 84.74554427555995,541.8532594584758 81.35063384000387,539.0505214980731 80.34931657777634,538.9556168353665 76.2654043288785,541.7432887440591 76.09217083555995,541.6434379744096 77.33735483555938,538.6371685875856 77.31674740444578,538.4793685709665 75.12580610666191,534.8703947524555 74.91834825777914,534.8125959931131 72.58643174220924,538.7808002133897 72.39171700444422,539.0259332491478 69.49444326222874,539.835244658585 69.239362586668,539.9576605557595 66.49762761777674,537.3556484376386 66.15793268443667,536.8563815479501 61.80838118222891,536.6011251797536 61.43198608887906,537.2269336711252 8.052549999993062,678.43433674267" stroke="#009edd" stroke-width="5.470196335892915px" fill="none" stroke-linejoin="round" vector-effect="non-scaling-stroke"></polygon>
</svg>