<svg viewBox="0 0 7623.44125900448 4511.0292167936705" width="1000" xmlns="http://www.w3.org/2000/svg"><polygon points="8.052550000022165,2689.5796969706716 226.22218527109362,2781.2663116224285 228.16787629335886,2782.1174230147444 532.2400614666985,2930.9705238720344 568.1599061600282,2950.450379766611 626.7190892355866,3066.76200116126 633.4963854489615,3077.983666657383 711.6872414133977,3178.7022014896793 718.3017170755775,3185.4641755319026 828.1263633333729,3278.5758938567888 838.8154305689386,3286.1006280741713 967.8415422845283,3353.6272327877523 973.4185102488846,3355.7328100282757 1042.1972315289313,3376.2656087382056 1054.931604506739,3379.10418626116 1147.67727789341,3391.3539738935942 1161.4404204356251,3391.9921401241154 1326.8093024977716,3377.144153113215 1333.8702967733843,3375.745066951349 1502.1789781600237,3377.46952856172 1513.3859254311537,3376.5885899117275 1599.295757111162,3408.04848084462 1611.8943977511371,3411.443069327768 1899.9845370578114,3476.2535827306856 1912.8741575378226,3478.2486643203592 1997.3599647555966,3484.31797646833 2002.1429276711424,3484.27966744281 2132.5450041156146,3475.2063572408806 2138.967823386716,3475.155776720232 2307.7952586222673,3485.9278515775513 2311.642950000067,3485.8856518852117 2397.80007085338,3506.9118684949062 2410.689108791121,3508.906865834986 2568.197457377799,3524.428512167273 2570.3636406311416,3524.452154712024 2806.342756720027,3644.967371199891 2848.8884366489365,3667.5092979176843 3095.8152687200345,3810.728940749861 3104.045133964508,3814.8497925171105 3448.6701221244875,3962.3637126285757 3462.3951081511914,3968.0814582659223 3613.4017029955867,4054.891095701809 3624.9625446667196,4060.942164590844 3874.4592617511516,4177.369362185622 3886.6035194578,4182.117862236773 4149.381325395603,4264.48203685609 4163.500983777805,4268.017956470867 4349.536133715592,4295.190189229121 4527.661816631153,4329.579476767598 4754.390453502245,4382.059131332644 4762.493324542302,4383.36632226684 4947.780490266741,4436.688962799817 4954.008740435587,4437.725552236341 5231.478843760036,4464.0549773974635 5237.709424097789,4464.120434398734 5459.316641022218,4442.136720301263 5510.662495031138,4444.206594653981 5768.1662549600005,4484.855368319171 5781.186656168895,4485.141099527449 5853.244216346706,4483.472140793194 5866.218305448943,4482.330707154091 5955.915826657787,4466.426370289031 5962.497097413405,4464.715823844628 6079.494294782227,4470.740528492926 6092.514695991122,4470.455090642761 6208.544290728925,4455.0941883302 6216.380939973402,4453.165721542056 6351.459665377857,4463.036358114652 6459.5908613955835,4486.565569584171 6472.536988471111,4487.991232437926 6622.032760062255,4501.056692610233 6635.028111955558,4501.91326949987 6757.079736915592,4502.116803500772 6757.402174035611,4502.102756368899 6889.122543528967,4378.107652218401 6951.1935823911335,4313.156775380572 7001.951651297801,4166.400542232528 7011.499227048946,4140.123031159717 7228.511350924498,4032.9616100586427 7354.394938622252,3992.8714998985233 7354.909905946697,3992.756054643163 7487.744678711169,3983.8251427659707 7511.175983244495,3982.179278203548 7562.136194302235,3917.397835396201 7615.388709004503,3848.4687940246367 7494.106331048941,3766.9633146021224 7457.447822817834,3747.9631799442286 7417.227651440015,3714.046944554342 7403.885686924506,3704.3200564066356 7321.673542000062,3614.131174474285 7305.128177804465,3596.334804427548 7313.834853857814,3525.3706220891618 7312.191210977791,3521.23855720766 7262.753474017838,3471.396945798275 7250.444939404493,3456.950750379561 7208.168102711148,3358.9025393604825 7204.069335635635,3352.7429723356327 7160.823439955595,3354.487544729287 7160.202158675587,3354.437853809941 7154.850634551141,3352.8187062623037 7128.529338053369,3339.236762396031 7073.595023955568,3327.7189112998603 7071.069994693331,3328.347853688727 6996.42478196451,3285.0252859363973 6957.1442511911155,3258.2355176283454 6956.948517004435,3256.7838092156744 6956.568990746688,3230.8663258163433 6941.912519706704,3183.106594020006 6938.597563191142,3178.0785181683896 6955.609252435621,3145.1623629325477 6961.453024737828,3133.8555085785047 7040.554102924478,3128.6474268457096 7042.234737235587,3128.200966754026 7051.923288204474,3120.505101063318 7052.674767671153,3119.666069757979 7068.276413466723,3076.8834582761338 7070.539007457846,3074.5524722975388 7091.381203084486,3089.29259720174 7094.877621502266,3087.7159755623725 7102.11075700447,3073.592705189745 7103.043989644444,3070.727171367238 7145.336846248887,3039.828150730493 7146.903593555617,3039.2762206855405 7174.251329448947,3052.2022929893865 7177.3670565244975,3051.8638935804775 7211.123921946681,3023.409922169143 7217.676065591164,3022.1278452467814 7243.0294681867235,3035.5169159344223 7246.418116293382,3035.255473869707 7252.857538017794,3019.848791384109 7254.7094397422625,3014.1514245446597 7252.096155333391,2985.6210836569953 7252.173342177819,2983.693523396185 7267.961984026711,2963.543080364616 7268.14635864005,2960.4542740621546 7256.2753132355865,2941.3451900260116 7254.246901217848,2935.6747548237036 7247.2164904089295,2889.3196888515085 7246.640064880019,2884.2485180300137 7257.043977697787,2848.95091473739 7255.314701111114,2846.7414053950633 7210.883332008903,2827.3782505097624 7207.905084897822,2827.246143456403 7182.8313025688985,2843.9381704512925 7181.030082017824,2843.613751762634 7173.296542746713,2836.7449078333157 7172.768176951155,2835.676082221413 7172.268646995595,2821.0511639465403 7172.812158888904,2815.0053153990593 7163.64148795564,2808.8914132277423 7158.003353057837,2808.212287246104 7145.232279920019,2815.548730894021 7141.496145377809,2820.3037486177345 7137.148632773373,2835.384311723261 7133.8881439556135,2837.8979076604883 7104.813752915594,2832.803006345377 7101.824728773383,2832.735006182076 7090.140679422242,2825.398739087017 7087.355545057857,2821.9342813309922 7090.694968346681,2806.635646007693 7091.023813431151,2804.4760342975787 7043.9479939111625,2793.607177661179 7043.608371795621,2790.822008379706 7079.056357288908,2759.0855293125787 7080.429118035594,2756.829904215032 7067.436096311139,2742.3660517389944 7062.549440880015,2738.905085574399 7066.112269111152,2702.79822468161 7067.04375412449,2698.5814337342454 7086.621541857836,2663.2422816539474 7086.949804400036,2662.320614764438 7072.559263884439,2654.3674428373633 7072.652761911158,2652.9453728863446 7104.824821217859,2639.3828296299034 7105.73096564447,2638.3517625280947 7099.746509395598,2614.9766116230458 7098.8715309778345,2613.9455091182317 7112.715355617809,2606.8203431563743 7113.809078640072,2605.3205672252516 7116.270610800013,2579.388176504144 7118.035713733407,2576.102921901009 7154.416349324456,2553.8920682688185 7157.3581875466625,2551.391554360598 7151.730538408912,2521.005590346671 7151.934136915603,2508.806544996478 7163.513911208953,2430.4525280922826 7165.385910640063,2428.7884264616005 7163.050498871133,2398.047101307864 7162.284747120051,2393.622573612578 7150.7128371467115,2388.4321635682427 7150.287290053384,2384.432920034713 7160.327696524502,2362.2250463696255 7161.008397111145,2359.417201054195 7155.732894746703,2352.184857136832 7153.860895315593,2348.2708413114597 7158.115201164444,2334.9120042965224 7159.476602337847,2329.126114122191 7155.817945911142,2299.345460903045 7154.28644240892,2295.516591296793 7173.20974395558,2282.047930576635 7173.862773786706,2281.4756259636197 7185.2820576978265,2255.1712969080254 7187.300275226706,2251.1008435997355 7218.9774649156025,2219.3030089702515 7220.391294888919,2217.7688310943486 7217.375182533346,2206.1614993008843 7217.375182533346,2204.349953933939 7238.716616844467,2160.4693740412768 7238.563116968959,2158.6882951961306 7213.78264464892,2140.9702128781064 7213.321853751142,2140.8166881952493 7208.543259902275,2128.318107230327 7208.238590320048,2118.967564740131 7218.879889093339,2114.266008682869 7221.387442088919,2112.636244515801 7237.772315902228,2075.8265556151455 7239.116240808915,2073.982886719721 7262.803572648903,2060.3891276548093 7263.741174355557,2058.7328482016164 7268.959878853348,2029.42028287609 7269.428534071194,2028.0764272766246 7288.189306337794,1997.909024660854 7289.334875617817,1995.5453982035106 7291.397366355581,1952.4828716183256 7291.319305697805,1951.4516994924925 7268.067424168927,1904.11992181206 7267.723724257783,1903.5263121008466 7242.53605492448,1895.5261797175917 7241.957881768933,1895.4010972458345 7235.239131048904,1901.0573822160077 7234.879993768933,1901.0885775939387 7220.942379831104,1878.0573107519012 7220.223522728891,1877.494875320961 7193.864360986685,1872.8855874063156 7192.895593271125,1872.5574227044417 7180.817454106698,1861.6355094712635 7180.504920204519,1861.22934658968 7180.871921804501,1802.0887271381507 7180.825318426709,1801.1356324890803 7163.294001520029,1779.291797819984 7162.840783671127,1778.4010737183562 7133.543861502258,1764.1979355121439 7132.793838391139,1763.791715858475 7107.91899423115,1737.8075662442425 7107.606460328912,1737.1511094807938 7070.7469750311575,1732.0575480014377 7070.419003760035,1731.9324361971521 7065.7470151378075,1712.05737533074 7065.450209875591,1711.5887175246316 7037.278176737833,1698.6981037431106 7036.418926960032,1698.2918458480563 7028.418874622264,1687.2918880407524 7027.465835546725,1686.7917085218069 7027.106406995619,1673.4793598514225 7026.892322728934,1673.098591782822 7041.0125636533485,1650.7682349377137 7041.325097555586,1649.9559629276337 7027.319908720034,1604.9827565562155 7024.868862320029,1601.9630131379527 7008.967789822258,1596.7262193379283 6933.8565433155745,1607.627684492647 6901.2001001511235,1644.432368036796 6900.723580613383,1644.6589179089933 6895.629831422237,1669.0886622743856 6895.372056488937,1669.584653761849 6868.227627831162,1679.6355314182292 6867.528285893379,1679.8464671683323 6852.6766632089275,1681.0886764038296 6852.2898551733815,1680.940151503397 6837.067153093347,1665.5966081314546 6836.645392524486,1665.4558814022166 6826.051862213353,1675.4207036555454 6825.258730977774,1675.7618635134131 6809.942530871136,1675.0966466434475 6809.278141466726,1674.9637232141395 6785.6065382667,1655.6040393279109 6785.1180766133475,1655.5146210613602 6782.129926284484,1662.034022691747 6781.379903173365,1662.4793093635526 6767.418987546698,1659.0808406538854 6766.6846930756,1659.471518372331 6763.598675653338,1668.40903633993 6763.067397146719,1668.5260580713802 6738.630042195611,1653.869983038021 6737.067372684483,1653.5264119319909 6720.926584062225,1664.4947980947618 6719.778393342218,1665.1276189421478 6713.15721844451,1658.5887424469402 6712.7080783911515,1658.6472541421826 6707.129945342254,1667.948150559765 6705.848643724457,1669.416622807592 6699.329122444498,1664.826961598621 6698.426764542237,1664.7762519141252 6693.075240417791,1672.2917468565574 6692.411142284458,1673.2918263527972 6698.106366319989,1683.9088431868295 6697.770530728914,1684.2094922741817 6686.551641342288,1687.0806545025844 6685.591029217816,1686.604178615351 6682.29005371558,1676.326862276328 6681.711880560033,1675.9598981825693 6671.637686640024,1681.2369012222916 6670.403279671154,1682.1667561942886 6674.7082666934,1699.6510386127338 6674.77817176003,1700.4089449474995 6669.528301253333,1709.6669771872403 6668.6064281867,1709.791792958189 6636.63010306668,1685.0028211777972 6635.559681733372,1683.9013419604453 6619.746573111159,1683.7459165312757 6615.088565502258,1683.1536193068314 6608.274569128931,1675.972800439311 6607.102494177816,1675.6838498403959 6584.524614000053,1689.4180220393173 6583.3918606489315,1689.5899487634597 6567.266800666694,1674.3945225986827 6566.298032951134,1673.4493544950674 6561.587014000048,1655.2616693253804 6560.852719528892,1655.4104997766844 6548.188542888907,1684.3790198958886 6547.524736026709,1685.4729971468623 6533.735379084479,1679.8557687433495 6533.137690764503,1679.796958783263 6504.875946124492,1701.519699294673 6504.173108933377,1702.129083219188 6484.102781751135,1700.5118593227526 6483.243531973334,1700.746191997925 6448.047787262243,1732.1994613636925 6447.547966035607,1732.6369023702864 6427.102481662238,1737.5276421151066 6426.6964497333975,1737.7541616495291 6423.860342924483,1749.9960077062424 6422.751182533393,1750.8555660445418 6399.845039813372,1749.7073878795782 6398.932196151174,1750.5024422064598 6402.72775000002,1737.0977048356726 6403.118344560033,1736.5978611609025 6391.805665875552,1684.8792011510523 6391.477694604488,1684.2698021054093 6384.321454675577,1684.7696833904774 6383.336958320055,1684.4258275151078 6365.196302248922,1657.3164869302127 6364.868330977799,1656.5978415695427 6359.055724684498,1657.4884215973143 6358.555903457804,1657.0353301490832 6346.024546444474,1624.47288410287 6345.993380435568,1623.7854125510494 6339.22773506667,1624.2073179141444 6338.321299368923,1623.8634320543206 6315.649629893363,1597.4104167504993 6315.024562088889,1596.8945679744065 6305.977681377786,1578.0041555632197 6305.712042124476,1577.129078473925 6309.18078978674,1568.8166913304885 6308.336977377825,1567.816461269831 6275.376155902282,1535.1291807212692 6275.18857730669,1534.5976796814066 6257.0167552267085,1531.5197074232565 6256.48547672003,1530.7697197155503 6253.407323617779,1482.4104537341336 6253.282368311135,1481.4103989895957 6232.938537555572,1446.129030799988 6232.188514444511,1444.6759933933208 6229.500955902273,1425.0664429918106 6230.137674551166,1386.591914592631 6132.043972293322,1361.0607129148266 6043.575323902245,1394.3418636920687 6042.3878115822445,1395.0919993943244 6030.825222284475,1386.841962724604 6029.637709964474,1386.591914592631 6009.075425875606,1390.2168532000214 6007.887913555605,1390.0919798448158 6001.262952133373,1401.2170265203167 6000.6378843288985,1402.4045040499477 5966.840823493374,1412.4043286103697 5966.512852222251,1412.4043286103697 5962.96604390227,1404.7794529825624 5962.372142106702,1404.4825848127075 5937.872163866705,1408.763897745317 5937.3097193511785,1408.6231188246456 5927.309799564478,1393.20119959765 5926.684731760004,1392.7170171371254 5916.669083333341,1395.8262250665866 5916.184699475591,1395.4981349506124 5917.309588506701,1388.7952167438634 5916.2939261422725,1388.295121804491 5897.059547048935,1393.7012909826299 5896.419041875633,1393.842072945874 5878.4816930399975,1387.2324938996753 5877.778564577806,1387.0295738085697 5866.7626911556,1373.4824215365516 5866.012959315616,1372.6857338385598 5837.184692364477,1373.4668119898706 5836.231653288938,1373.373154702509 5829.872331120074,1381.7638366206957 5829.012790071138,1382.1231519677385 5807.512904275616,1384.4513427830825 5806.669091866701,1384.4045148862933 5772.793970373401,1363.7326899503532 5772.059675902245,1363.5762920740817 5764.51284141338,1375.4201038652973 5763.856607600057,1376.0919125177606 5748.340886782273,1379.2483237717242 5748.075247528905,1379.5920310204092 5748.762938622269,1392.5918440589157 5749.325383137795,1393.6544637134357 5758.965874373331,1397.779453664407 5759.216076257813,1398.6388484830095 5754.747103600006,1450.2011811209086 5754.637876933382,1450.7951781935117 5768.465972933336,1472.1700288419088 5769.278328062268,1473.9201470763364 5803.064320595586,1502.7221771757177 5781.184617271123,1550.0137452261697 5670.466059973347,1551.6076114262978 5669.5910815555835,1551.7639667720941 5666.403410515573,1560.0762583329633 5666.403410515573,1560.3262437504309 5676.12225368002,1581.0450098513102 5676.1845856978325,1582.0449207328202 5666.137771262263,1589.6231300080835 5665.950192666671,1590.59181922485 5676.793924862228,1604.5608395039744 5676.887714160024,1605.6855509625457 5668.122201342252,1619.341887291026 5667.512862177857,1620.0605712156685 5624.372115368897,1635.5119455685199 5623.684424275591,1635.5746601873252 5598.512774853385,1620.1839027037786 5597.856541040004,1620.465074408421 5547.715675617801,1655.762171603361 5547.418870355585,1656.4964209953032 5529.512687528913,1656.8558938514034 5528.997137662256,1657.0278286324756 5518.8719712978345,1669.5276432640676 5518.51254274667,1669.9885279964365 5517.942233911133,1693.332419954735 5517.684458977834,1693.8088912301173 5490.30177055113,1689.3988190517703 5489.9344776800135,1689.4378251196176 5484.997141075612,1682.1877596804115 5484.70790886227,1682.125349319802 5472.457919742272,1688.9691520668857 5471.926641235594,1688.9847545039665 5436.489141502243,1675.0471379199007 5436.036214924476,1675.2814791800047 5423.739331155608,1689.3286081240803 5423.442234622256,1689.8752930233313 5418.446643795585,1736.3785418842162 5418.024883226724,1738.456821775966 5404.743503102276,1751.8318310164323 5403.4866682577995,1752.7936936909973 5389.9894562400295,1755.1917441604019 5387.895508222282,1755.3012508343963 5367.364098871127,1741.2308522204694 5365.270442124456,1739.8870419680316 5346.786086142238,1708.8637751635688 5346.231214675587,1708.2699991450936 5321.840754373348,1708.402616167412 5320.633726888918,1708.0002644447668 5294.426899937796,1719.7544795447902 5292.442469857808,1720.1526240000094 5269.012621680042,1714.5509775920364 5268.106477253372,1714.6838934524276 5237.364267831144,1726.6447167347942 5236.004905555572,1726.6531175919517 5223.4971415022155,1706.3089444784273 5222.512645146693,1706.2072311188967 5209.938471280038,1724.054847647174 5208.80193140445,1724.9339400657045 5184.520406497817,1729.3713896192203 5182.700253324467,1731.527697855985 5171.8955514578265,1748.1058756900893 5171.317378302279,1748.7464210038597 5164.028318746714,1783.316692526947 5162.94246004452,1784.043307146494 5137.106421217788,1770.8714244669827 5134.989171511144,1770.371305028937 5127.258544951153,1785.9654421661107 5124.223499973363,1786.285547483043 5085.840666764474,1774.5198554045346 5085.0283116356,1774.597857995279 5081.129939084465,1817.6371558004466 5077.403416488902,1817.1526694898203 5068.708100008953,1801.1839322492306 5067.372039422276,1800.2854361623467 5028.05568230222,1782.199468569801 5025.711823671183,1780.7699353028147 5009.913569875585,1783.0268864846148 5007.196301680058,1785.129027579067 4996.5284972355585,1760.5188488650892 4996.403541928914,1754.393995021208 5009.778420080023,1734.5813813217392 5009.653464773379,1730.6438133064948 4988.716023493384,1694.3939783067035 4982.465927991143,1681.6437691850297 4972.403384915611,1643.831335368537 4969.216005146678,1637.3939818073704 4954.903525288915,1631.706447903969 4953.716012968915,1630.7690235768387 4964.528287884488,1601.8939937070536 4966.2811574311345,1597.9484715223953 4964.656155902252,1543.1985828846518 4965.218600417837,1538.823566853971 4991.259694106702,1509.9447065858112 4992.37904898671,1505.1402998195554 4987.15597542224,1465.07346560937 4986.343620293366,1462.4484030851454 4903.930498302274,1407.8321748881426 4901.071089804464,1407.0667444095889 4870.540051937802,1407.957345203351 4869.414871635614,1408.1602591433038 4844.461675546714,1422.3010526992439 4843.539802480082,1422.5823047738231 4818.72437762667,1413.6449163078505 4817.665024595626,1413.8478285766614 4788.243147119996,1429.4884030336107 4784.727504808921,1428.5978300012357 4774.454081448959,1420.3400892144127 4772.73529062228,1418.7071994075377 4773.0711262133555,1400.5665545204247 4772.383726391126,1395.973010072572 4763.250920702238,1377.1056279103796 4761.961754764488,1373.2230628692487 4735.5309403289575,1344.136150128179 4733.4061175733805,1341.9486157970678 4714.031054533378,1335.6984794639575 4711.656029893376,1335.8233626659785 4705.031068471144,1343.0110132602567 4702.030976026668,1344.886040222802 4673.968460826727,1347.4485087869398 4671.84363807115,1347.323627690581 4626.468550568912,1312.5109391783772 4623.40612610674,1310.636124353361 4615.718316400016,1296.6047221327608 4613.718740222277,1295.0108678966935 4597.656012257852,1296.5110544024792 4594.406009200029,1297.5110768521263 4580.406063244445,1312.5109391783772 4577.655881413375,1312.948645411845 4558.093531048915,1306.1359475323407 4555.843461715558,1305.6360928560316 4540.921642693342,1310.6517353225208 4539.093625200039,1310.2611607761064 4512.76213421335,1289.8906349910249 4511.771229893377,1290.0650627834548 4488.328857057786,1333.5151211744233 4487.683400275593,1334.0834014004504 4455.017345164495,1331.126417816471 4450.953239351162,1332.9663535596628 4456.936239244475,1305.1527495509072 4457.07692319114,1304.5901495251746 4444.420610871166,1292.3557369219197 4444.248760915594,1290.8870644189592 4454.373636008939,1267.5118732178526 4454.59238061338,1266.933930707717 4425.920526248927,1232.5432257981447 4425.576826337841,1232.0901559302874 4412.248842835601,1235.2619389813335 4411.483091084461,1235.2775516598776 4406.092536631157,1227.2462829494907 4405.608152773348,1227.2618958100502 4395.389488382265,1233.6214047804533 4394.779857946676,1233.9339592738252 4377.951960773382,1223.2932153496367 4377.045525075577,1223.9495594548353 4307.017833271122,1010.104608145688 4293.662179013365,969.3168960473558 4234.879882266687,936.3416457504791 4115.100463244482,869.1490032121947 4099.135893644474,912.9249264107493 4088.5679951911443,941.90276206212 4106.231257911131,957.9911164078221 4106.71564176894,958.2959870955383 4108.58268959116,970.9754836077045 4108.137336062267,972.225578996964 4096.238911173365,977.1241167234548 4095.47345069336,977.670766006544 4089.785799706704,1007.2801825200149 4089.5982211111696,1007.780254473997 4070.6184129689354,1027.8864483993093 4070.1809237600537,1028.4489748399064 4070.055968453409,1037.9647017709503 4069.8214952088892,1038.4175995028054 4052.988937697839,1034.6397384926968 4052.348432524479,1034.7334419513645 4021.5357354934094,1049.389766406588 4020.6860976622556,1049.3870634803025 4025.60799689783,1028.4339581230015 4025.014386373339,1026.4652636827377 4014.0456988711376,1019.0901926433726 4013.0454738755943,1017.465059404989 3996.8269158666953,969.9963107066287 3996.48321595561,969.3400237899914 3975.5379103556043,971.0199368226749 3975.1004211467225,970.2387011842511 3976.444054782274,942.5822039782943 3977.1629118844867,941.113683444768 3966.4126777155907,928.1134294353251 3966.0066457866924,926.8635537126975 3969.475393448898,917.3321623059746 3969.31898086227,916.5511656527815 3942.0064887733897,905.5510332595732 3941.3814209689153,904.4885588725156 3930.50652276451,859.5041523692489 3930.3189441689174,858.7227891089569 3936.4909790133825,847.2542801464151 3936.2253397600143,846.1604718405579 3925.77220212447,842.2229276551225 3924.74081112002,841.7386565162742 3918.225367635605,827.9884570672584 3917.6002998311305,826.9886502276349 3905.3345820711693,822.9572627519083 3904.5222269422957,822.6291988716403 3891.4910487022717,805.9572170490574 3891.0847255022964,805.5510325601499 3881.89716084447,807.5666305752529 3880.6004218577873,806.7698857321229 3874.6314029778005,795.0355167950911 3871.944135706697,794.004115642776 3865.0066403822275,798.1291100058879 3864.3815725778113,798.5352989221865 3847.006668257818,787.8790687992878 3846.2251878667157,787.4416277245327 3820.725275902252,790.1603074309824 3819.194063671166,789.7853592120518 3810.787688133365,770.4728431204276 3810.319032915577,770.0353908575198 3813.818946586689,746.1917138905555 3812.6628915466717,745.7229982962308 3755.5690934311133,737.3479576335812 3754.0064239200437,737.191717106005 3733.9127950489055,752.0978031570266 3732.506538124464,752.8792887681338 3703.1627213066677,753.9729464779084 3702.6629000800312,754.5353983296372 3691.7565445955843,745.2542823788535 3690.8504001689143,744.7230706152914 3643.5456415555673,737.7619948580104 3642.7329951556167,737.730746774323 3640.0142706044717,727.3557026890048 3639.6082386755734,726.4494938098651 3610.858032382268,723.293377592956 3609.889264666708,723.168382589618 3602.7956480266876,707.3557283188857 3602.5769034222467,706.1057479359151 3616.326938764483,690.1995467188826 3616.4440297511755,687.0276369021449 3589.2800859289127,651.5121126600134 3588.686184133345,650.4026639440272 3593.2332174489275,639.9806088691403 3592.873788897821,639.2933522200619 3584.0768188000075,639.4183626636222 3583.217569022265,639.058957576257 3581.9985994222225,626.574621198437 3581.873644115578,625.8870504542429 3574.889254142239,628.1213523132901 3574.420598924451,627.9650866526936 3566.498607244459,618.8868914954073 3565.8269360622508,617.9495847392536 3554.4050307111465,587.4027123591804 3553.998707511113,586.7307294008497 3488.0925019289134,548.4494403099234 3487.108005573391,548.0274733316328 3461.8111095733475,553.6837324713415 3461.4519722933765,553.7775021503039 3455.0300268356223,548.574467512226 3454.123591137817,548.1056153844984 3453.60804127116,512.5118780506018 3453.4519199555507,511.65257032201043 3466.6080535022775,496.9494926450716 3466.7175714400364,496.0901651427557 3455.5924713511486,467.4338678755157 3455.4832446844666,466.2931575042021 3461.311288346711,463.05887994667864 3461.6549882577965,462.2151397514099 3458.0612852889462,445.8868912140315 3457.9832246311707,445.10565273524844 3464.7331413600477,439.37123243839596 3465.0456752622267,438.26203717131284 3464.279923511145,419.8557428254571 3464.295652151108,419.4339961721271 3452.5612128978246,421.90254803714924 3452.0299343911465,421.84002272380167 3442.6081877599936,409.19957000625436 3441.748646711174,408.98072726555984 3429.3894309244934,413.0275028425676 3428.78009176004,412.51196265852195 3425.6393153688987,365.6370420913154 3424.408986195631,364.45316985136014 3346.6238708888995,358.6212609918148 3345.7174351911526,358.54309701683815 3308.8736785333604,339.79310130429803 3308.0613234044868,339.4963704919501 3289.2329762400477,338.99640733815613 3288.576742426725,338.74627530245925 3291.920534782228,321.0979029215232 3291.8424741244526,320.2386521085573 3278.084865733399,311.9768003793142 3277.9907851644675,311.33220331787015 3294.8737325778347,292.12930164919817 3295.1393718311447,291.47295981869684 3292.092384737858,238.97285986537463 3292.1081133778207,238.33240243649925 3266.764322728908,189.33229178129113 3266.1238175556064,189.00422111406806 3267.748819084489,178.28545380497235 3267.733090444468,177.8166447863623 3244.811219084484,154.44163445729646 3244.0454673333443,153.92619684708188 3212.8876140355715,135.96833180714748 3211.444365680043,136.17463271025917 3104.842634266708,215.06895124402945 3038.2394169156323,263.57498383222264 2999.622984275571,267.5700153771031 2999.2792843644856,267.55438046887866 2915.8580730578396,242.89467108561075 2914.24880016892,244.28532547710347 2909.679921520001,213.36250613970333 2909.149225555593,211.9573543444567 2919.305266657844,200.52869728810037 2917.0863633333356,198.74734042878845 2873.8626042578253,199.01195822187583 2873.4481254667044,198.99993014262873 2868.368648560019,186.9314482890477 2868.0132978044567,185.98421934925136 2846.720797040034,175.50537244646694 2846.1105840622913,174.8828972709889 2827.5161276000435,182.53719685124815 2814.842339013354,187.9349080924003 2740.368684968911,163.28460567552247 2723.9430332000484,157.80730601443793 2668.920755226747,114.92921589702019 2664.470132648945,108.90507265701308 2638.419718284451,119.88237983270665 2637.8572737689246,120.2104842995468 2620.3151798311155,114.34036738003488 2616.63263917336,114.37645617025555 2606.6423313333653,108.57335374646937 2601.0598292177892,105.10578359357896 2583.0039330400177,66.69425146657159 2580.853478426696,60.45883886804222 2555.6521193511435,47.571574027620954 2551.2323715111706,46.155848587077344 2544.778968773375,50.33564374837442 2492.3897816444514,99.60034004112822 2452.3426253066864,77.63224961448577 2445.3113406844786,76.00726080298773 2425.384027617809,50.69415989876143 2423.4954257333884,47.54961782423197 2407.6287232267205,78.49902900433517 2407.2145357067348,78.75797988133854 2401.2661970756017,24.640182816277957 2400.7925902489224,22.200850847322727 2386.4536047200672,8.569303020223742 2385.6645512800314,8.10699256634689 2371.191872311174,20.403379329567542 2369.041417697794,21.440776047558757 2358.677991564444,20.040034433215624 2357.976902000024,20.41119966460974 2344.1237566844793,63.00750912792864 2343.248778266716,65.50744626906817 2332.186301466718,63.38225968388724 2330.341681520047,63.236389709141804 2319.475230177806,87.02029491538997 2318.423741466715,89.00856467321864 2264.63761808892,124.34410564761492 2262.9540710666915,125.17954817603459 2250.5703885066905,124.70137925361632 2250.1972702133935,124.5474027733726 2229.851691831136,101.56090386936557 2229.1412815911463,100.01537013819325 2182.214010337775,89.75593122301507 2181.1712597600417,89.74329968259553 2160.2807131289155,73.27367365409737 2158.19812468451,72.56298127406626 2118.498746053374,99.39011817649589 2118.0300908355857,100.468293994345 2099.0144563466893,101.40571909063146 2097.951899333333,101.46827419960755 2069.5299555822858,142.70254994407878 2068.6395397955785,143.24957250934676 2046.2332183022518,132.06213552955887 2045.217555937823,132.73397043041768 2039.3082476355485,165.35233932806295 2038.714637111174,166.89922607401968 2026.9333032089053,164.63362518281792 2025.5896695733536,165.274152889353 2024.998680488905,176.04635402621352 2024.3893413244514,176.98397420856054 2012.3580968088936,185.29650023087743 2012.1239148355671,185.73403040299308 2017.5456352978363,199.95255335155525 2017.3268906933954,200.57771159804543 1987.4986900178483,222.42150003756979 1986.6863348889165,222.8902779231139 1967.0290301422356,206.7991922129586 1966.7095057333936,206.10938951777644 1976.0534829777898,186.99940815524315 1976.1472722755861,186.7182467172679 1974.6314974133275,167.26519778606598 1974.553436755552,166.42138760557282 1952.6926660533645,134.749170363968 1952.574701253383,134.6803030135634 1949.6037359200418,115.29401300780592 1948.8877915289486,113.04688370935037 1868.1582165600266,111.57054693691316 1857.6310960622504,110.67704432850587 1843.7578530400642,149.77712016759324 1843.529496488918,150.03514133990393 1836.3316047911649,226.3584423197608 1836.632487848925,228.7925213474955 1844.3721438133507,252.3414425267547 1844.6339965422521,252.77983107839827 1874.2734535377822,274.8489277140179 1874.5140434755594,275.03925056630396 1888.1324242756236,305.79056730211596 1888.186891973368,306.87863409196143 1858.4248098400421,304.049476387765 1857.1190414489247,303.83180212500156 1838.8176037244848,319.3842105699878 1838.6926484178402,320.25939680522424 1833.9425991378375,315.4469107115001 1833.0676207200158,315.4469107115001 1818.5707662489149,320.76658940690686 1817.9331737867324,320.82491502838093 1806.8386571644805,360.5341711388028 1805.2375398667064,363.0095523869095 1803.931480204512,426.53060755252955 1804.181390817801,427.6554532862792 1811.7439539466868,430.53038453424233 1813.493910782272,429.78039058027207 1833.556664915639,411.3429024381039 1835.1816664444632,410.4678344372369 1857.9940198666882,416.59298601196497 1860.3064212177997,417.842899689771 1870.4939196000341,410.7179398696462 1871.7128892000765,410.7492030422145 1890.931539653393,419.0305860831577 1892.2638137155445,418.63709568217746 1896.2478199733887,432.2359789054899 1896.3319973244797,433.46782778270426 1907.7946806311375,433.997179428261 1908.3885824267054,434.944660724228 1903.655426871148,440.57992255085264 1904.1173828533501,441.24844358392875 1912.3932689334033,439.4550983479421 1912.9137704088935,439.7734279957658 1906.698336168949,450.4104817091429 1907.3598128622398,451.6561245396442 1919.7997107467381,452.9432463062403 1921.0772258400102,453.1350218289008 1934.9169726844411,469.766381639085 1940.533262248966,475.0689129352395 1939.0003023911268,499.9566794517159 1932.0727102844976,506.71701500334893 1935.7054435822647,518.2688209472399 1937.4224867822486,519.2044623061956 1925.8211584266974,535.0055753113993 1925.84620774223,536.8587773713225 1933.16439440893,534.3915469770727 1933.8139289866667,534.6422076566087 1935.6509758844622,553.440892986051 1936.3433273155824,555.3778961107892 2008.4972982311738,638.3359397416643 2008.7629374844837,638.726597852743 2004.4110558133689,652.242328457738 2004.4931942667463,652.9376854870061 2012.0342033333727,652.6290720619436 2012.1338180533494,652.6603240607365 2013.985137235606,661.6331941900135 2013.9656220711768,661.9886808750161 2005.4287570755696,675.7278131417406 2012.9298620000482,675.9892391909088 1999.306529591151,701.8428768687008 1998.8064170933794,702.7178688682907 1992.5082618578454,698.9047945256752 1990.1815882222727,698.6553964824707 1983.5566268000402,707.3431083361793 1983.3539021066972,707.4392605798494 1976.8422451466904,703.0790431219793 1976.670977733389,703.0847521976393 1976.569032844447,709.7390980036871 1975.7441530578071,710.4055506129807 1971.1551767022465,704.874695296603 1970.7934179822332,704.8536619150836 1964.4859420711873,709.7982915215835 1964.1862240977935,709.8277380412619 1946.6237411822658,696.0463268863678 1946.255865768937,695.817060013098 1931.2571511733695,694.2278147758043 1930.489651795593,694.3462045095221 1911.6662562400452,709.9103685743466 1911.4868332355982,710.1435368607927 1903.7867901422433,731.0174833597557 1903.2124035111628,732.1304059800168 1877.295100044459,732.166161293193 1876.3615761333494,732.2022170692508 1835.7924619644764,753.5084426215326 1835.4601216267329,753.5943728543061 1697.6990805600653,750.059206131351 1693.740123617812,749.8353657024272 1588.1386172000784,806.130265988555 1586.9525612355792,806.6419017450826 1575.2548221423058,834.3582857263682 1573.8019618400722,837.8007863663661 1514.8749033511267,890.7441305600514 1449.4053131644614,949.0804220147256 1426.5183943378506,988.524667355261 1416.0308867111453,1005.0663460734941 1382.7627742133918,1114.7416066596925 1382.6191775556072,1116.105552063178 1372.8787803289015,1117.307034967962 1372.209148044465,1118.6184236792906 1378.5268184444867,1129.3875118079304 1378.4909920978243,1131.505454621889 1372.378959102265,1129.5706887450942 1372.280800737848,1129.746358384873 1356.917123440071,1170.8121819328226 1356.665756471164,1172.284113598842 1365.7117633689195,1190.842733338388 1365.9270127200289,1191.8837451458967 1358.9271853778046,1214.606355022086 1358.6399920622935,1216.4012641651498 1366.5013993511675,1238.980448666989 1366.9321893244633,1240.0931453563098 1385.167799777817,1250.7903741858026 1385.885783066682,1252.0825932125736 1381.6582741600578,1267.3575551093963 1381.2365135911386,1268.1231407161395 1358.2520189422648,1254.529215944669 1356.3066191911348,1254.3799989281397 1336.7422299289028,1259.1912556481257 1335.6252052178024,1259.5665472697292 1334.205258551112,1266.4823846374347 1332.7660879911273,1266.8909978161391 1299.8614818400238,1258.4824042749533 1299.5489479377866,1258.3106705837708 1262.4147939822287,1262.4292650243442 1260.7280429778039,1262.646933165699 1260.7280429778039,1256.444414980273 1259.9512229245156,1255.5214932699164 1240.7949044889538,1248.063315704494 1239.1699029600131,1246.5840403316251 1230.9825632977881,1223.6778342722973 1230.6939136267174,1222.2750700748584 1215.1327545155655,1219.391467903246 1214.2079687378136,1220.261894281226 1202.0025440978352,1204.25656166111 1200.9321227644687,1202.1979941011232 1198.3202947111567,1207.0405422873155 1197.0689940177836,1207.0405422873155 1185.1533841333585,1200.402747608925 1183.847324471164,1200.021718773729 1184.772401520051,1193.2748611448042 1183.6297449511476,1192.241057747713 1172.584744417807,1195.3968105582462 1171.65966736892,1195.9408836979128 1151.4195291289361,1174.4493667889328 1150.984078817768,1173.9052766281238 1136.0762408089358,1178.333953829453 1134.280554408906,1178.4213320130075 1133.3010096622747,1172.5450493402604 1128.8940777511452,1173.1978386662377 1121.766382391157,1185.1680352404073 1120.4606140000396,1185.5487720472447 1119.8075841689133,1180.8150695422373 1118.6104599022656,1178.9654185963736 1105.6066611466813,1177.2785085696669 1103.4847511022817,1177.3875062633597 1092.276347475592,1184.0798714683333 1091.8411884356174,1184.7869979567186 1094.3440810933243,1192.4587481072813 1091.9498325600289,1193.546898608649 1036.749296666705,1187.4368391512835 1036.12918047118,1187.6022849877772 1021.6923278489267,1221.1134038075397 1021.5283422133652,1221.3830282543495 1021.5434883111739,1239.1714026790287 1020.0751906400546,1239.7397607690364 930.6336967378156,1232.2138569443778 929.4205525600701,1232.6128826366912 915.3737119556172,1244.2145510077535 912.319151813339,1245.948734567588 908.3738846133929,1261.8939512199431 907.1601578933769,1263.2494982680364 893.947226480057,1267.0939532799239 892.3126130044693,1269.996870367584 894.3416075644782,1287.4702571732632 895.750777200039,1293.7832763878687 887.5689716889174,1320.0095470539236 885.9492130400031,1323.331328010623 871.7203279911191,1330.3560989951657 865.4743102844805,1330.67341281494 854.2935774133657,1324.1082591947925 852.5462420178228,1324.502728556603 848.6289368444704,1341.2716705297062 847.8678454311448,1342.821589023195 826.8302068889607,1343.358040729101 825.9863944800454,1343.9203089129587 827.4238174133352,1355.014279753057 827.4083800445078,1355.7641580188938 814.5333231200348,1382.7015982530138 814.1424372889451,1383.5141838866693 800.0958879555692,1378.779740949889 798.7988576978096,1380.154870031838 796.59568301338,1401.4361516984354 795.2520493778284,1402.6860643982945 734.3926983378478,1428.2796607258788 733.5019912800053,1428.7329018191376 728.2521207733662,1452.326841862494 727.8300689333701,1453.0610067055968 708.3926738755545,1466.8109957962588 707.4550721689593,1467.561052822828 689.9552125422633,1468.0610903885972 688.5020609689527,1468.7484163444897 683.0177172177937,1482.998420419608 682.4395440622466,1483.514053885563 674.3457024266827,1479.0297106287617 673.5802419466781,1479.0765321127546 653.3302004889119,1491.5924614324758 652.580177377793,1492.0141471540264 645.7676373600261,1489.1859966457414 645.0645088978345,1489.4047938025033 638.0177869067411,1500.310949038394 637.0175619111396,1500.732929575228 617.3302562400349,1495.5454923687212 616.5018812000635,1495.7955010825244 613.7519906400121,1507.6076345712936 613.1895461244858,1508.2955214903632 594.5330489155604,1516.0453067281924 593.283204577805,1517.7328888427292 591.9395709422533,1529.7640326430264 591.2833371289307,1530.4359914308006 574.2364040800603,1530.2952372769068 573.2676363644423,1530.4828094373515 564.0020110489568,1543.264006841142 563.189655920025,1544.1703380798863 550.0643971111276,1545.795429037098 548.8768847911851,1546.3734383089177 538.8982277956093,1573.4144899742387 538.1653896800708,1574.9365793798643 527.9068211467238,1577.895521224622 527.3149582489277,1578.5437258653983 536.7908813066897,1601.4939809575153 534.9244160266826,1605.0640790880134 508.6016631734092,1610.5033644985815 506.9119994578068,1613.3319200981932 512.6602348355809,1669.0409534555802 511.42000244447263,1671.209450982482 500.2314052533475,1681.1015785654017 499.01622217777185,1682.3377845629293 479.6064978755894,1682.2201650577772 476.5484424800379,1682.396294258273 424.65820276446175,1699.7128473155026 421.03712031117175,1701.083438884787 423.8886644889135,1720.1067188860325 423.58137346670264,1720.6071744748333 383.1028446133714,1730.449994616356 379.8618709600414,1732.3944796790893 378.3160951733589,1750.9509724543022 378.3650287199998,1753.21792091112 364.3650827644742,1774.692661132227 363.0336825156119,1779.6299066704523 332.3704075644491,1784.4366147436958 330.73637663119007,1786.0707439314283 330.0556760444306,1800.2542362774548 331.10163060447667,1804.6243065567978 340.1188016622327,1815.9506020009576 340.2361839200603,1819.7328927064373 317.96180824004114,1847.2879773401946 317.227513768943,1848.1135181417048 290.9123339644866,1858.2650103359192 289.8363784800167,1859.7795771534147 287.92330982227577,1889.2537310890912 288.3890523289447,1890.9905009939976 310.43099366221577,1911.9792788439954 313.0888425511075,1916.3828437677294 306.49650349339936,1941.2667685290508 305.0416042933939,1943.1398807548976 284.15688308444805,1944.1761640659824 282.7019838845008,1945.3918079146824 292.334610800026,1960.2244122929114 292.276647848892,1962.6157515193045 275.58826953783864,1968.6664960944618 275.4079727200442,1968.9877173659916 287.2682410933776,1976.8148534226639 287.2213464444503,1977.6585365021892 273.2592657333589,1999.1875570021512 273.28664521779865,2000.547663322388 286.94259999116184,2031.3888272425684 287.2350361866993,2031.572365832195 302.35404575115535,2016.5430352411058 302.891440951149,2016.1078714271134 310.90314413339365,2022.6436975500255 311.10732518229634,2022.8749230629473 313.224866160017,2041.4093041312008 313.81643778667785,2042.476930969482 335.1066083822516,2063.7949393255694 335.16573641780997,2064.0870280656673 324.87949712888803,2072.1533074448525 324.63104287115857,2072.517664294661 323.08439327112865,2088.7941763810522 323.41906377783744,2089.714492600382 346.1233556178049,2090.6866858749127 346.2934579467401,2090.768851438508 345.6270296444418,2102.2026655625377 345.5460562756052,2102.463551906665 322.3416519378079,2116.206427654921 321.6854181244853,2116.8391392187623 322.1217422489426,2135.0121112181514 322.01863227557624,2136.434623825917 315.5232864978025,2143.0778754936473 314.8245271022897,2143.255387833895 301.2448853600654,2132.044435992284 297.23961631115526,2131.664817341458 280.90396731556393,2142.815504976228 280.21103334228974,2142.41610189763 285.19176934228744,2130.391024350334 285.10933961783303,2129.7598242838576 276.34557442669757,2115.3239290098136 275.5157430311665,2115.092733972444 266.1880769688869,2130.9655508535507 265.4092180178268,2131.946082996583 253.8201230489649,2135.1833286343317 252.7998003467219,2135.6729922230297 241.8328604711569,2125.264943750546 240.4740807377966,2123.2678761917923 223.07587472896557,2122.246850719006 221.57029435556615,2124.7500846844923 8.052550000022165,2689.5796969706716" stroke="#009edd" stroke-width="6.14086182708836px" fill="none" stroke-linejoin="round" vector-effect="non-scaling-stroke"></polygon></svg>