<svg viewBox="0 0 55.099028024889414 48.61307011926692" width="55.099028024889414" height="48.61307011926692" xmlns="http://www.w3.org/2000/svg">
  <title>Ústecký kraj</title>
  <desc>Geojson of Ústecký kraj</desc>
  <!-- Generated from maps/2-geojsons/world/europe/czechia/ustecky-kraj/okres-litomerice/okres-litomerice.geojson -->
  <metadata>
    <collboard>
      <support-module name="@collboard/map-svg-geojson-import" version="1.2.0"></support-module>
    </collboard>
  </metadata>
  <polygon points="1.726135607196551,22.697437512464603 3.080080240084857,25.292132491598387 3.1436210329749827,25.291022979730407 2.3768352694187285,26.55318011165109 2.387211802752057,26.588127191986498 3.8404726027529197,29.19619368402382 3.8549706223089686,29.21656193484414 4.711620805420165,29.645397546902316 4.751430284530573,29.659626717662107 5.641380037418634,28.090946853053538 5.730210444530889,28.05363153175604 6.5742340249755165,28.57980638633926 6.5951982631948285,28.60877326888185 8.26748037519755,28.125358119234807 8.319414014307034,28.11432595971892 8.263693850754128,28.512429778103616 8.252166796529849,28.602326036140223 9.37529363742105,29.442367778186238 9.380318064087254,29.449762657391332 9.498086256084566,30.56890173972388 9.496112894306492,30.644274486962605 9.214249840086627,30.698975064065962 9.193096275641068,30.776334243157546 9.511375500528443,31.38076046929964 9.512526021419394,31.413128544344 8.796938437420243,31.80696841971549 8.754536645418915,31.820654959950843 8.904759720973738,33.06324408769469 8.918456744974895,33.092815190233885 7.936902227641617,33.42412842360827 7.918209904084865,33.40085218371569 7.860800368084523,33.91939294600634 7.853554999195689,33.930653103362786 8.588482984975048,33.921916776412765 8.61016083741742,33.913728598363015 9.450623628530952,34.899635568212034 9.488401491642065,34.92847731685506 11.13362451741886,34.878055537074765 11.182652727196178,34.869434918594564 11.4684625049751,35.84427712144279 11.473727230307482,35.85562460579422 13.2810936018639,35.573642850548275 13.304715688973733,35.57306060582669 14.33308475564008,37.2811887257998 14.345907966308364,37.27814146333294 14.191621658752041,38.283473896394206 14.188708947641494,38.291210449856955 16.80259774408368,39.42567128723349 16.824319287196335,39.586162974797844 21.716210316530848,40.061734866493865 21.772789729862776,40.07599373582671 24.56384417964036,39.64919242385695 24.57727177786473,39.65564933597962 24.715720218750718,38.41979765393226 24.7683893174184,38.42635872593128 25.753111408085164,38.67242171684811 25.760531539640574,38.67567357584522 25.429334440974703,39.04979548477022 25.40767115208618,39.08388618813806 25.947469338753212,39.534483983717294 25.966547596529196,39.55650180396224 27.04332592186292,39.07199782128774 27.06123181341863,39.01551060864767 29.539053310307278,40.334574674709074 29.597926483642727,40.33920572646348 31.29782109697589,37.40683259880789 31.33771067564266,37.32828982691463 32.754533459640875,37.957547284104294 32.84965532275273,37.97085312376767 35.27559415297473,37.066164201844735 35.28918923208439,37.00011435064116 36.939036186751395,37.95479710219115 36.949762245420786,37.99259201106798 38.07228469875299,37.6356980546585 38.08320736541827,37.638311451982375 38.47123145786354,36.73191195238069 38.47230187919813,36.72758599844856 38.092775621418326,34.766819959931674 38.091872680974845,34.7537003597161 38.72575871830813,34.882531402452514 38.84174287475361,34.90356335299039 38.9794267289737,32.735883821433895 38.995126241863545,32.72531795630675 38.1770403538645,32.345915490556585 38.16455210497551,32.33851314278327 38.30315346319585,31.848530611038225 38.30029172453105,31.839710953346003 37.804315276530176,31.436024870269833 37.795700933419354,31.437258801251666 38.833499902308176,30.971178491297543 38.85235242497474,30.960220688066695 37.53294526408608,28.838239455869555 37.55276626319573,28.75153635364586 38.751543493419376,28.103751070681394 38.87512254408684,28.03402487961903 39.68219838408586,28.970194682595686 39.825780478307934,29.07207371332952 41.601813360084265,29.762749943437303 41.67109947564204,29.79256765287755 42.17782382763871,29.638654392672834 42.196516151198374,29.615761892858792 41.870598341418734,29.360737698438243 41.80458174408595,29.306389349984602 42.05537345252996,29.014521955304737 42.10973192363926,28.958969926230566 41.26780549519644,28.698805099529636 41.20900513964188,28.626697450044233 41.91034228452954,28.433837917214625 41.93912715208607,28.442823168106045 41.77721682319716,27.94809774592759 41.71470276097425,27.9140511998241 42.30074023652887,27.64356904725173 42.39274549875299,27.59819010594838 42.18582650141798,26.074784950187677 42.18537503119623,26.070015881301153 43.49647368363985,26.809365790742234 43.56139801430581,26.825454894075303 44.024060328973064,26.853779375524393 44.03884961964104,26.859028021731138 43.95933260630591,26.058762234462847 43.94361852986512,25.97063073139907 45.77465796097422,26.52814752564191 45.80834346497613,26.528444852606118 45.84785439119623,24.968957523521752 45.85091273786274,24.967012901872295 45.318068648975526,24.189931897196587 45.31570207119694,24.183273466083122 45.651297363640694,24.163595580531183 45.66305015297439,24.123118402510954 45.57631689786394,23.100185423071164 45.60831302941842,23.07847819551571 44.472668812530536,21.1371541896664 44.47113235742035,21.125775804173102 45.79868054586295,20.827502462524354 45.862883980530384,20.80458409569874 45.61617734941719,19.97785525302352 45.521790945863536,19.65483201250645 46.81820953430615,20.09633348965181 46.82516363208597,20.061172699048257 45.596152460530355,17.67991959334795 45.60420610675246,17.667411397342587 43.39564290675225,17.29360686625041 43.3779190596415,17.282724417726058 43.65316297786376,16.887894365977626 43.66091807119555,16.858475130485385 43.14966445341888,16.715558146682817 43.137977200084784,16.71342725163304 43.33783287297301,16.014918110490907 43.338284343197664,16.001638378602003 42.920179226751856,16.084616116417237 42.91726651564131,16.082691212330612 43.1366737618624,15.574584216898439 43.133477061418304,15.566173420398627 41.81700445697533,14.29159163665936 41.81586849964114,14.290823711868507 41.61277243564145,12.30815936228646 41.61417781875243,12.307287963517958 40.6926251503075,11.351531126267583 40.68364671830677,11.345888964069673 41.04970168719774,11.291038124764237 41.05717279119599,11.290682618867505 40.87812843919855,10.719193834085672 40.87964304897359,10.715925126427102 39.02836027564081,9.160805184528362 39.021355205418146,9.15239586716234 38.92336432186312,7.733213382191389 38.93971919475189,7.641844750460951 37.52266339386296,6.04888790668083 37.49391493519542,6.020155712031192 37.985078128085654,5.194788819828318 37.99895719653177,5.154065952109886 37.52047886052932,3.7804908903726755 37.511231002751806,3.755157350199079 37.75377245697491,2.760509432327308 37.754507916530194,2.7570865823628994 35.038783457862515,4.227287924322082 35.004449875640056,4.292200638182476 33.50210261164065,3.1347930137682853 33.48700020453143,3.1301185055392127 31.361361889863105,3.392585297522965 31.329664311196026,3.3975926350602097 29.246617114752368,2.8047765647268537 29.23408517519601,2.8001247425188924 28.353375998307087,1.750927242686521 28.347346686308807,1.7261356071965566 27.794419454307715,2.6998166967201542 27.782098686306924,2.7300597746598214 28.51517710052903,2.8510533627999397 28.526813381417373,2.8694077634838324 27.752112325419507,4.810750891411226 27.74885008897581,4.812473147080528 28.197873633863125,5.407605866936866 28.19767702586432,5.419671792179361 27.593799194753586,6.3261922131674515 27.592197203640893,6.3300604604159165 26.586081249862396,6.391366643875154 26.553284122753027,6.38871514576058 26.12358641608625,7.350962722365876 26.100262881863813,7.374144805720789 25.431985008086844,6.273666421186135 25.399166035639425,6.24460254213227 24.47033887119505,6.31184409084126 24.466748954750432,6.312406537955758 24.219401527197984,8.61988616882336 24.205041861419517,8.677380103629913 23.664471806308207,9.255899541316102 23.65156849608647,9.256094569643393 22.05022546319705,8.380770919201678 22.01055433786132,8.388056976959707 21.764634138752076,9.724325798071005 21.768522608087,9.747107671329651 20.52613481075277,10.373147136476838 20.293401911198814,10.43557733894595 20.13061048719573,11.791899756720888 20.129998817864177,11.795500352175806 18.80435117341876,10.09257508356568 18.769959336975074,10.085761615826414 16.901513413420247,11.4557380500195 16.899481797418044,11.469739949592986 15.69053920541955,11.358480610631887 15.666392830307082,11.370395629844644 15.633719493418534,10.782422866969501 15.548326085419461,10.674739240404234 15.108812542308073,10.686036430599415 15.017943237418145,10.603491847643818 14.279316108530105,11.411002827027188 14.228532990305752,11.495323998298046 13.482056104972793,10.783569768042435 13.417561399196343,10.757340079645292 11.682372008976012,11.46967114427862 11.662754899640635,11.484303721448306 11.699600695197654,12.526795749794474 11.689522714751725,12.544452295605517 10.554162487197386,11.849233794061366 10.531020997419905,11.831311239379648 10.17588141341875,12.501273913383557 10.173937178751288,12.504988689524545 8.888310184974756,12.405342374276735 8.83069675919723,12.419376208870744 8.506905228530007,13.023209319214585 8.550442977862616,13.152994586353088 8.110732826752423,12.925785205100329 8.095776055196252,12.924180180271287 6.638401050753959,14.067032023359571 6.637017512975212,14.068350157756141 5.209162835641831,14.521895379052513 5.177530792974352,14.554937556200095 4.087004471196628,14.025997765659486 4.054498615196275,14.007211307353646 4.880252215195282,14.91205065559516 4.893191934306009,14.915465808134833 4.1312631165306755,15.56774328395295 4.115002906752119,15.584232553163384 3.9153875325300707,16.66195327887581 3.9082659538649693,16.67880581759564 4.278027347642996,17.302209712678813 4.27710256186437,17.314821850267254 3.969979020530076,17.454355261358796 3.970787297863348,17.482453951900606 4.315863464975331,17.8171985786179 4.315623166306245,17.85020915876703 4.020514558306963,18.891828801989686 4.054833576972664,18.907975831145087 3.5838190631959095,19.341957841045588 3.555791500529807,19.35655766440941 2.7145058685291534,18.865615543444076 2.6887356569746714,18.885404332295366 3.731420698752112,20.889937920114974 3.730910974306238,20.918511002377272 2.5479570471961726,20.45257691503248 2.499190981417263,20.42464249006189 1.7981378258631537,21.19226003576805 1.791627916529609,21.231648810091794 2.3659271663072956,21.262314849869654 2.3812334631966166,21.27196448598734 2.167826401863198,21.775633269630273 2.155738650750203,21.78920785794071 2.471177982307921,22.047656482883397 2.5217135200877183,22.072606805703618 1.726135607196551,22.697437512464603" stroke="#009edd" fill="none" stroke-width="5px" vector-effect="non-scaling-stroke" stroke-linejoin="round"></polygon>
</svg>