<svg viewBox="0 0 54.884768995555355 63.07118982451066" width="54.884768995555355" height="63.07118982451066" xmlns="http://www.w3.org/2000/svg">
  <title>Liberecký kraj</title>
  <desc>Geojson of Liberecký kraj</desc>
  <!-- Generated from maps/2-geojsons/world/europe/czechia/liberecky-kraj/okres-liberec/okres-liberec.geojson -->
  <metadata>
    <collboard>
      <support-module name="@collboard/map-svg-geojson-import" version="1.4.4"></support-module>
    </collboard>
  </metadata>
  <polygon points="1.7261356071965523,25.977483591955753 1.8665646916419023,27.993911418665448 1.8633388640871957,28.035718139565507 2.939410856973332,31.148744340510532 2.9768173494190666,31.210663449649658 4.498395788528792,30.972297456038724 4.5152312587528245,30.980725588761928 4.28225806052978,31.28593715361967 4.269434849861496,31.364272268156128 5.5840578827530365,32.44726166508663 5.628862661419039,32.45375369553985 5.470454867639997,33.06543132058323 5.469348037419327,33.06886111428503 6.189268279196764,33.106427570827144 6.2338691680855804,33.110237144773784 5.797610579639509,33.893133749277695 5.7895132427529425,33.90220173872258 4.955400161863141,33.81396080734157 4.9379530223075525,33.8226031428876 5.111040880084689,34.35591544642557 5.10065706497298,34.39067683990761 4.6574589423067625,34.504233765061144 4.651203895196154,34.50065530287575 4.739211461418377,35.07583670256317 4.7522604071960775,35.10397806697911 4.145826672083418,35.83140320024868 4.171014341419864,35.864153485709174 6.096229004529956,36.35800642346913 6.126302746752113,36.370141387088005 6.1448203076422905,36.08713082049544 6.131370864085689,35.940420502391135 7.570104517416981,36.03258366822447 7.6617092818622,36.12651669603256 8.80381971741917,32.38374525230356 8.825453879197081,32.36468327590592 11.29557125519677,33.1550195779626 11.337674494307791,33.180259166188264 12.050829964528745,36.237115388800525 12.084835866753197,36.27074890419499 15.122589665862684,36.39927669056233 15.148745811639305,36.40184169394379 15.582382960083846,36.88568531968231 15.613643632085946,36.90619195966028 14.391389950308435,39.42344209258918 14.381013416975106,39.43694965147625 17.614523248085238,43.18964817160195 17.622198241863583,43.208465128859466 16.15025240008435,44.130220380452016 16.083143536084748,44.165263384963694 15.887227304974289,45.409389490225664 15.855755461416624,45.47561188136933 16.89605936186162,46.895953686391664 16.906137342307552,46.901911748838394 16.902430917417583,48.55767675018324 16.896896766308412,48.58431331968641 18.760718760973027,48.52527888422374 18.76781849430881,48.52067683364621 18.62749135475205,49.64258884988995 18.635610536973758,49.65745920515511 19.993501893418212,49.739842067131036 20.028155873863213,49.741804094893816 20.47847557519453,50.5374106899184 20.542096467641016,50.60316867506954 19.704298807196388,50.63176833042999 19.701320560086238,50.637986125548565 21.28534752541927,51.38414985423624 21.352339880973517,51.41393828376786 21.20484019030882,50.79609008923908 21.204243084531115,50.7873601913936 21.803016389419277,50.68921956698068 21.807101466753007,50.687808531550765 21.977771774308707,49.786310954227886 21.998495713861843,49.771613060593154 23.19602047830594,50.5341181807733 23.207809676528626,50.54139152582102 23.969068570751183,50.081350371036756 24.01178347919667,50.04372986999406 24.904878960085984,52.00406401189576 24.906335315639804,52.01155328865025 25.87547440186208,52.914617408877895 25.894283233864186,52.9802547169722 26.305121136086015,52.72643894348476 26.318002600975518,52.734408853018614 26.557340072973233,54.452825112722714 26.560653281862685,54.459932688526536 28.23011734586216,53.78657445891186 28.303932727197022,53.7908051358103 28.802567024085505,54.6307180446649 28.852862263196215,54.66174954709168 30.00414773875272,54.75675733865974 30.046309232084965,54.75292863033574 31.08400625608519,53.56453379502236 31.097579489862614,53.54669309766214 30.684709971641492,53.38664014417336 30.662529676531626,53.328128306135845 31.037890757418424,52.99229501709233 31.041939425863163,52.98799491298742 30.574551237420014,52.0866633933405 30.563439244528485,52.07532067613975 31.176841640974814,52.01726485873405 31.242508712974445,52.02279291880586 31.63946754675307,51.545156825696544 31.665732919196667,51.525210436415 31.474134782307733,51.08787392933337 31.445531959196156,51.04371045920598 32.342945534307,50.78786494277047 32.34796996097611,50.78448081331917 32.16161470408442,49.423980721140474 32.14465544364247,49.38801945569758 32.978506380528046,48.5040933520173 33.0330177689746,48.507203475984355 31.821002266752835,46.77992513587415 31.816159884528673,46.77180866919407 32.394384012530274,45.264861782201116 32.4057290223096,45.23511978245406 31.787054618749604,44.331091467620354 31.78468804097392,44.32723238745421 32.184952801863616,43.756081057439225 32.18678052808573,43.74805193361718 31.743866394753056,43.52817105403992 31.74112844630617,43.527137218267676 31.798334092529327,42.84535978803506 31.792435852530247,42.8260245789792 32.23794229875093,42.63992970063446 32.23762918230968,42.6308304408205 31.017094000087305,41.915088801358436 30.97477230764234,41.87037908524399 31.57685882141995,40.3305690608413 31.595194337862264,40.30700656483714 31.312144353862454,39.66727418801929 31.296175415195826,39.64208795025079 31.469518135195898,37.561627264100025 31.47098905430648,37.542261599915584 32.916137953864016,36.38650916677616 32.91863560364181,36.383426552896346 31.23744059564087,34.81532076595067 31.245537932530347,34.77830699104998 32.47430880541978,33.626725980065025 32.47714141697397,33.62478109737749 32.89081921253128,33.84332858083835 32.91230045697484,33.851199853430806 33.13176595741715,33.33920946002072 33.132661616085166,33.3239833045056 32.746683703195956,32.63284547207623 32.746683703195956,32.63161386954489 33.528397111194856,32.74244545950387 33.52959132275027,32.74041968706188 33.580782220528995,30.689958902741274 33.579398682750245,30.688323849867814 34.363886448085026,30.59848729463156 34.3686924214202,30.585890252072204 34.2209233049758,29.830221067194728 34.19633274141706,29.786850531741585 33.02150527830708,28.606095737258514 32.98334876275221,28.545759340313452 32.310454241863404,28.67107352546482 32.17499132986304,28.698868251976457 31.866804648972533,28.089839447124177 31.86330939564104,28.07867653996691 33.02816082319659,26.340955221928382 33.076482700529226,26.290296538982147 33.38612573697355,24.537634318801068 33.38322030764138,24.516700119166128 34.0113683040854,24.389421660553854 34.03138591119677,24.389928889803198 34.65462598941994,22.88400824784949 34.68384048186308,22.84638192999155 35.73204511119584,22.8036585010781 35.77461438408536,22.806529802886146 37.36844990408462,24.331101506107736 37.44783584541764,24.409157454259187 38.70931646408462,23.62316271036143 38.71584821875331,23.622493994703476 39.41096672541934,23.851040025790645 39.4367806276412,23.874859075817586 39.885301729863926,24.875129411007585 39.87164839653014,24.97428287158291 41.12988862408565,24.355079823619235 41.18112321252883,24.36033659433488 44.829512332530065,26.326988407895627 44.841527265865075,26.3292585938314 44.78855961430708,25.11747697859719 44.782260876532014,25.088015474089843 43.98553972452828,23.66506103944157 43.96344681075024,23.620118900492162 44.49739772986395,23.458483205431914 44.5603268534167,23.461031319895483 46.60320776364133,20.593777745696208 46.6109046027519,20.5432610437525 43.9471866009746,17.114549650469055 43.861123269419835,17.00868281501935 43.13265422052827,13.639710632760035 43.12171699030914,13.630238802191526 43.30481729252969,11.901662116723674 43.327951500531704,11.843737897499887 44.96369365164028,9.849495246705557 44.95118355741906,9.78661308465853 43.694064723640984,8.793058148537602 43.62911854763988,8.703479466673526 43.66157343119739,6.847703936785184 43.64301946141822,6.77975551742602 41.23994541341853,6.252492826110757 41.236719585863824,6.250075344040306 41.40093095653174,5.7643013030279695 41.40238003030717,5.756273140471968 40.95718670052774,5.0529294330295675 40.95637842319447,5.042389624873249 41.312355411642415,4.728823760264277 41.30234296719609,4.716084976836647 38.57480746497349,5.276516580382668 38.562894476529976,5.280484745877402 38.012443048974454,5.749968595175961 38.00195728897415,5.763630361949982 38.2508047627507,6.264036577153092 38.212633683641975,6.320771786453043 37.494927102308786,6.699847076196239 37.47329294052797,6.705433419255496 36.179539482751345,5.97863955071407 36.16106561252854,5.97430174127403 36.58080912897312,5.214055186637052 36.58916860986391,5.169745218732351 36.19529724986241,2.1866120027192664 36.19893813875278,2.0955107776902877 34.29292552363949,2.8480276665493878 34.19797114141874,2.866442242190897 33.40659481430666,5.033365403865537 33.377955582309,5.120321240859994 34.03249274142035,5.410576477491486 34.0335704445275,5.417482993538215 33.04637254941808,5.555588312085092 33.03800578675182,5.555634585679582 31.029436613420327,5.113402773197231 31.02510395563913,5.111597954082026 30.733701772529816,4.0742703402753255 30.734393541417734,4.0678943899099975 31.507048417862457,3.453719484778776 31.50948781341903,3.451057710535315 31.16301354497445,2.9991040244934997 31.159853253419346,2.9966850770058957 29.283928944084977,2.859937540727333 29.280033192974585,2.861986175313723 28.127546224087197,1.7635743762617495 28.08905474675302,1.7603792410420285 27.800725473864073,2.9710835180947472 27.73843714675349,3.027737798549424 26.541036172530216,3.0186638947667235 26.499173232085372,3.013883885713949 26.063468058752548,1.9405078080151725 26.056623187642614,1.9251577557548445 25.17029976008525,1.7405716755562026 25.16027275208507,1.738163737420473 23.49774822230865,3.2831665261055605 23.484764812530553,3.347421082824076 22.734297512974077,3.1456161367172175 22.623534391196515,3.159099355529543 21.38141601964198,5.553367179095585 21.373020129862194,5.56919273159765 22.846393200084634,6.9266039842786995 22.879394216974102,6.954985512064377 24.11345166052815,5.969177337870133 24.11635708986323,5.9686452324956925 25.255401896975304,8.208503724790717 25.26646291741817,8.222402054314808 24.469567002750768,8.695316957020623 24.468030547640588,8.695513504848714 24.703049925419688,11.292507963870959 24.729409960973495,11.371804987565339 23.068086924527957,13.251086198487975 22.917536168975126,13.472749846299486 23.60978565519508,15.162425322788842 23.623846768086146,15.183904059352427 24.08597751297238,15.077987651293007 24.181893089863657,15.13779395634665 23.428622305863605,15.872332942494905 23.407286696976,15.89855431253127 23.24852937786381,16.909971166133257 23.24697107741849,16.91600866318513 23.836132435639225,19.5448618465849 23.825741338752046,19.575715233995652 20.73057800363931,20.364677988490804 20.71863588808519,20.365716279200935 16.646141466750482,18.775546828678127 16.58269533697348,18.764191482616663 16.207392510307905,19.732529397351392 16.205455557418823,19.73990212349345 14.554458081863771,18.61526574621421 14.536231792085523,18.612438367661163 13.159575294306336,19.579026712703126 13.157143180531051,19.57981131363231 11.28622145253066,19.116022973599684 11.27653668808525,19.11734998639331 9.914917061418597,21.57833763747658 9.893894568975153,21.597357107383505 8.89245351652971,25.0709563132481 8.877365672974333,25.083900532809277 6.697776666751084,25.27403750296835 6.680344090752256,25.28880234429853 5.095880218751332,24.107832879708806 5.028734945862739,24.113989117199164 1.7261356071965523,25.977483591955753" stroke="#009edd" fill="none" stroke-width="5px" vector-effect="non-scaling-stroke" stroke-linejoin="round"></polygon>
</svg>