<svg viewBox="0 0 464.9527899555535 546.8169982451066" width="464.9527899555535" height="546.8169982451066" xmlns="http://www.w3.org/2000/svg">
  <title>okres Liberec, Liberecký kraj, Severovýchod, Česko</title>
  <desc>Geojson of okres Liberec, Liberecký kraj, Severovýchod, Česko</desc>
  <metadata>
    <collboard>
      <support-module name="@collboard/map-svg-geojson-import" version="0.11.0"></support-module>
    </collboard>
  </metadata>
  <polygon points="8.052549999999997,250.56602984759206 9.424000026665112,252.89266836980073 9.448393982230868,253.14573567215825 9.456840844453495,270.730308114689 9.42458256890643,271.1483753236896 15.493434622221343,283.5813093448303 15.849513555563703,284.4455735230365 20.185302497767793,302.27863733313984 20.559367422225137,302.8978284245311 22.592658231100017,304.48745209648746 23.410547511106074,304.6603771121661 28.047365146666948,298.2549883004465 28.132561946673036,298.16460069888103 35.775151813322395,300.5141684884218 35.94350651556272,300.5984498156538 36.792124897772396,302.39216007057234 36.85387437331485,302.4542175307795 33.613774533332275,303.65056546423125 33.48554242664943,304.4339166095958 46.63177275556484,315.2638105789008 47.079820542224866,315.3287308834331 45.49574260443444,321.44550713386684 45.484674302227745,321.4798050708848 52.683876720002104,321.855469636306 53.12988560889028,321.89356537577237 52.53146911110491,326.6949091115455 52.50234199999943,327.3537528056256 48.76729972442956,329.7225314208115 48.68632635556389,329.81321131526033 40.34519554666588,328.9308020014503 40.170724151109994,329.01722535691056 41.90160272888136,334.35034839229024 41.79776457776427,334.69796232711064 37.365783351102095,335.833531578646 37.30323287999602,335.797746956792 38.18330854221824,341.5495609536663 38.313797999995245,341.8309745978256 32.24946064886865,349.1052259305213 32.501337342233114,349.4327287851263 48.392652257760005,350.6302196462127 49.112965715561245,350.62895430006733 51.75348397333403,354.3712581627258 52.0542213955556,354.4926077989146 52.23939700445737,351.66250213298895 52.10490256889136,350.1953989519459 62.398642088904694,353.2654110684887 63.419110426657085,353.57149396331056 66.49223910220428,351.11703061027924 67.40828674665647,352.05636088836013 67.11104457776639,349.72008300502034 66.31696671111388,348.9078259883752 68.89675494223013,345.2890440323606 69.5398815555742,343.70131404052495 69.10377588443919,339.4610024016945 68.86427821333166,339.3968015009666 72.34482235555299,334.8566373897263 72.67104600001005,334.3332035224955 78.82939110222617,314.62864645107015 79.04573272000528,314.4380266870937 82.8911667466815,313.4342689766852 83.05406011554408,313.24502632205963 89.04062808000128,319.5999466802821 89.28252873777058,319.7403657252214 92.36585190223525,318.8146291596711 93.30447305777454,318.2590414639633 103.74690648000217,322.3413897076605 104.16793887111237,322.59378558991716 109.92716973333847,336.16387659585575 110.0735334666748,336.55911431590334 109.69145858666855,349.73963868089027 109.69786655111932,349.97085525160196 111.29949357332191,353.16234781603976 111.63955259556644,353.49868296998443 142.0170905866613,354.78396083365783 142.27865204442753,354.80961086747243 146.61502352887294,359.6480471248576 146.92763024889393,359.85311352463737 139.26967583111366,377.60145502365026 139.274554622221,377.68941000292375 135.5427891466603,380.1055289105641 134.92966345776915,381.3562576165493 134.70509343111883,385.0256148539263 134.60132809778554,385.160690442797 147.0453765955532,396.3081458814047 147.30140390221607,396.51111901517265 166.93642640888686,422.687675644054 167.01317634667032,422.87584521662916 162.8854277955612,428.48984325933975 162.81341101334658,428.76081025560393 158.35456002667308,431.3001838542475 158.12926182221383,431.5326589821268 155.3341514222335,429.1039106418973 155.02576813332382,429.0485460804118 152.29371792887798,432.09339773255465 151.62262928888197,432.44382777767146 152.7492659466585,440.1841792890116 152.72567298665638,440.3404771035928 149.66346697777738,444.8850888302911 149.34874854220072,445.54731274172786 154.03275209779497,454.5682275572542 154.11117684446037,454.6883186620905 157.60708553778352,457.07814495758043 157.71004987555318,457.16551121770294 156.85604297777866,458.8698712260009 156.91619046222297,458.95218335703953 159.7517875466507,459.7507307919511 159.85256735111,459.8103114164185 160.1878932177857,462.34615794243996 160.42127419554856,462.94824614385266 158.08178463110346,462.00774583884754 157.98056791999954,461.95608844504 159.8334890933544,467.17243206443504 159.99274157331786,467.30156297506596 159.8155031022103,476.3679614298669 159.76016159111862,476.6343271248986 162.1062775733368,478.2866602217616 162.3451927022321,478.50435862373683 160.76322647999734,475.9970441492694 160.61933855110658,475.79448459545506 163.43855163554656,474.2592535648507 163.5814201155514,474.03866882745183 178.39838153776475,476.0439827702719 178.46937887112256,475.99796226449666 178.9847831022122,482.90048497146176 179.0667759199929,483.22820920136996 177.41053556444933,483.1328526716459 177.36167483553402,483.19814494663274 177.066107475555,487.217082426934 177.14729929777207,487.36578597958555 183.88869634667174,490.7600397236308 184.021734426649,491.0250723583665 185.52585844443058,488.12880316717906 185.544718248893,487.65125893580966 190.72621286221658,488.18961459934485 191.0727526666666,488.2092348769727 195.57594967997977,496.1653008272185 196.21215860444465,496.8228806787299 187.83418199999835,497.1088772323344 187.80439952889685,497.17105518352014 203.64466918222718,504.63269247039693 204.31459273776966,504.9305767657131 202.83959583112267,498.7520948204253 202.8336247733456,498.66479584197054 208.82135782222724,497.68338959784137 208.86220859556454,497.6692792435422 207.9486367555579,494.05162983851164 207.8397013600112,493.68037513149443 210.56891167112155,488.6543034703134 210.77615106665291,488.5073245339661 214.39941805334058,491.0949443817151 214.6567560799955,491.37225166818075 211.3898592977854,491.97390147076635 211.61428368889722,492.1708932843537 222.75139871109388,496.1323757357675 222.86929069332075,496.2051091862447 230.4818796355463,491.60469763840206 230.90902872000117,491.22849262797513 233.167035191094,495.99597157158837 233.24312976891053,496.38430379913893 231.89621933332057,497.1934254620935 231.83454267556192,497.7260647932196 235.13624635554845,499.5178189703654 235.3993369866581,499.8304148465029 239.83998352889432,510.83183404699207 239.8545470844325,510.906726814537 246.66635892444867,513.5919022469532 246.97343149333722,513.7681720672042 249.54593794665527,519.9373680168135 249.73402626667632,520.5937410977565 251.3903394400037,517.721304581202 251.38597037332477,517.422688098224 253.8424052888946,518.0555833628821 253.97121993778967,518.1352824582207 255.24909911998077,521.1142241437699 255.37143298667036,521.197244108487 254.13374921779143,523.864479236079 253.8274048266536,524.4063724795485 256.70450804444374,528.1805551316863 257.2578503377805,528.1881222652371 256.3645946577668,535.3194450552617 256.3977267466613,535.3905208132999 260.43438025777107,532.0336940918712 260.911773608888,531.3950009697217 263.9884703555505,532.9023550620257 264.06238039999846,533.1480355764722 273.09236738665606,528.6569385171531 273.8305212000047,528.6992452861375 278.81686416888954,537.0983743746835 279.31981655999664,537.4086893989513 290.8326713155617,538.3587673146319 291.2542862488841,538.3204802313919 291.5481788000103,534.6687536071765 291.6563860177772,534.4273216999206 297.48799775110786,532.358942022234 297.73324802667014,532.1912165980973 301.6312564888864,526.4365318782582 301.7669888266606,526.2581249046559 297.6382936444494,524.6575953697682 297.41649069335074,524.072476989393 301.1701015022187,520.7141440989578 301.2105881866661,520.6711430579087 296.5367063022346,511.6578278614395 296.42558637331933,511.544400689432 302.5596103377826,510.96384251537506 303.21628105777893,511.01912311609317 307.1858693955652,506.24276218499995 307.44852312000114,506.04329829218455 305.625020328887,504.73248446587945 305.4048193688865,504.6946323513764 307.84334111112514,502.46245770993823 307.7044776088802,502.01371752616956 305.5325417511118,501.6699332213682 305.24651351999603,501.2282985200943 308.14881168888644,501.25777918278595 308.70426569777885,502.3073720558675 314.22064927110443,498.6698433557392 314.2708935377956,498.63600206122624 314.29528749333224,490.30385929320596 314.4140532888774,490.22652852629085 312.40734096887866,485.03100113943924 312.2377483644592,484.6713884850103 313.3857934488984,485.07793190581265 313.9204943911242,485.3024875999033 314.41114057778725,482.12018117795355 314.8604990844393,481.9512668717141 316.4683156177704,484.63753841490666 316.5439732888841,484.6694378035679 316.4844811644649,481.59312548358116 316.5103314755612,481.27204701249843 320.57625773331495,475.83212744820753 321.1213716177805,475.86322868787806 317.3489010044501,467.5080570070347 317.3270556711137,466.90693794156664 315.0540487377799,467.59276639251743 314.8943593511136,467.58828988360597 309.0012165955628,458.590445286776 308.9527927733212,458.50928061997524 314.73503405333724,443.4398117500457 314.8484841511305,443.1423917525751 308.6617401155305,434.1021086042381 308.6380743377737,434.0635178025766 312.6407219466706,428.3520045024268 312.6589992088917,428.27171326420626 308.229857875565,426.07290446843376 308.2024783910962,426.06256611071126 309.88799149334193,422.9076662577352 309.9354686844523,422.644022047454 308.77453485332774,419.2447918083851 308.71555245333695,419.0514397178265 313.17061691554375,417.1904909343791 313.16748575113127,417.09949833623955 310.16069407109865,414.54911557092396 310.20212738664816,414.1666281820869 304.41660930665205,414.3205885866553 304.0838320622057,414.297494553997 303.98880486223027,411.4318045362086 303.875354764437,411.173389736992 300.9621339289075,409.9420819416189 300.53891700445786,409.4949847804744 302.34232208890137,407.38435116799496 302.3946780711191,407.1493588117953 302.3399191022105,400.8453210602963 302.4371308355545,400.59386595043884 306.559782142234,394.09688453644753 306.7431373066571,393.8612595764059 303.912637466659,387.46393580822746 303.75294807999273,387.21207343054243 307.1683203111239,371.3582394738694 307.2894890933309,371.0378840757546 305.81339992001415,372.03332532366744 305.68385709333927,372.10105191643356 305.48637527999347,366.4074665690348 305.50108447109926,366.21380992719037 313.0128936088946,360.96791121207184 313.03255440889154,360.8861394633493 316.7345374133216,361.28844146979804 316.77604354665493,361.27165019396466 319.9525734666746,354.65628559579613 319.9775499644526,354.625459456998 309.1388421955413,346.4235848411697 309.11706968001783,346.40000154483255 309.69480592889124,342.93924225145724 309.6031283466797,342.7422799156991 303.16559988444317,338.9444015875413 303.24657325333794,338.5742638385343 315.5342819822323,327.05845372868475 315.56260809777416,327.03900490180945 319.6993860533472,329.22447973641806 319.9141984977829,329.3031924623426 322.108853502206,324.18328852824175 322.11781008888613,324.03102697309055 318.258030959994,317.1196486487968 318.258030959994,317.10733262348344 326.07516503998306,318.21564852307324 326.0871071555372,318.1953907986533 324.00306235554274,313.153397644586 323.9641048444388,313.028961967422 326.5990161333244,297.6907829554473 326.58518075553695,297.67443242671266 331.198987973337,299.8128552261112 331.33158914666967,299.79846272237023 334.43005840888475,296.77606687435014 334.47811814223644,296.6500964487566 333.0004269777925,289.0934045999818 332.75452134220507,288.6596992454504 324.91532347555733,282.86975521133695 324.3696270488796,282.56960508329917 321.0062467111053,276.85215130061965 320.62468155555655,276.24878733116907 313.8957363466685,277.5019291826827 312.54110722666485,277.7798764477991 309.4592404177598,271.6895883992763 309.4242878844449,271.57795932770364 313.2950624977599,268.61676682593657 313.44645065777115,268.48623743613257 316.99682704886766,258.2458945174801 317.031051404461,258.0718985506462 321.0728021600004,254.20074614731834 321.55602093332675,253.69415931785602 324.65245129776997,236.1675371160452 324.6233970044483,235.9581951196958 330.9048769688885,234.68541053357308 331.1050530400022,234.6904828260665 337.3374538222339,219.63127640652942 337.62959874666524,219.25501322795003 348.1116450399928,218.82777893881553 348.53733776888805,218.85649195689598 361.87638957333513,228.45258520116454 362.8107144800084,228.65584590467165 364.4756929688807,234.1022089891119 365.2695523822109,234.8827684706264 377.88435856888066,227.02282103164885 377.9496761155675,227.01613387506927 384.9008611822279,229.30159418594098 385.15900020444644,229.5397846862104 388.2838295022153,233.89401176958177 388.94093712888537,234.65428509194294 389.64421122667375,239.54248803811038 389.5076778933359,240.53402264386364 394.1651029599958,235.89087351173634 394.5345075466681,235.6113265503152 402.09008016889095,234.3419921642269 402.6024260533228,234.3945598713833 439.0863172533351,254.06107800699078 439.2064665866852,254.08377986634855 438.6767900711053,241.96596371400642 438.6138026933546,241.67134866893298 433.81744130666596,236.05203023416811 433.50854829332786,235.60994322153397 430.64659117331723,227.44180432245025 430.4256620355369,226.99238293295616 435.76517122667394,225.37602598235367 436.39446246220143,225.40150712698937 437.0753086844412,220.36961173591385 437.3249280266533,219.70196239199845 440.9150629244465,218.00455059027422 441.4930904444551,217.72998458751658 448.506680346654,207.1986693728902 448.87025951111684,206.80132752008626 452.76732134223096,205.35011095026107 453.2502488444221,205.11135197053204 453.7824739822314,198.21941140012473 453.8978901599836,197.76536222146365 456.82327156444774,196.7289713849966 456.9002399555535,196.22380436555954 453.608148222214,194.99564845395048 453.2415835288772,195.01664477971622 430.26305993778044,161.93669043272507 429.40242662223284,160.878022078228 429.2399701599858,151.67581422294438 429.2518394577852,151.3703130241263 422.1177361333172,127.18830025563489 422.00836383112585,127.0935819499498 424.04172745778453,121.1211401696562 424.04638779556956,121.10519798391738 422.6649617333384,114.48127272586112 422.5548612533381,113.85990930777166 423.8393668533314,109.80781509527128 424.0707089333515,109.22857290303341 437.6225342844333,97.28286701690354 437.88205684445677,97.02513564554806 440.4281304444372,89.2861463950901 440.30302950222506,88.65732477461984 435.8720677244488,82.22038045520435 435.563393164433,81.84812546856824 427.7318411644443,78.72177541341057 427.08237940443325,77.8259885947698 429.4241263200016,68.19556792011258 429.50306079112454,67.74770422944107 427.40692824000837,59.268233295886375 427.2213885422167,58.58874910229474 408.6447724355454,58.36645470478811 408.5621242577687,58.44070715012617 403.1906480622198,53.316122189142106 403.1583897866727,53.291947368437604 401.89645769776655,51.11605326318363 401.8942731644562,51.04930949003733 404.8005034933518,48.434206958314235 404.8149942311062,48.353925332754216 401.6594358311046,46.08551491954836 401.4357396177726,45.80046743294929 402.4452124711021,44.48777183438483 402.4381491466553,44.449132031142426 400.3630609333119,41.320488258330215 400.35497815997917,41.215090176767035 403.91474804445863,38.07943153067731 403.81462359999534,37.952043696401006 399.9062021955684,36.46698701497348 399.32912130666193,36.56637775529066 387.15260532443756,40.08520048877813 386.75421926222737,40.145478841360955 382.7059149066696,44.15944830916828 382.6506462133326,44.17703298861284 376.53926857776935,43.55635973186122 376.42013869333425,43.596041386808565 370.915624417779,48.29087987979415 370.81076681777597,48.42749754753436 373.29924155554147,53.43155969956547 372.9175307644542,53.99891179256497 365.74046495112236,57.789664689996926 365.52412333331415,57.845528120589506 352.58658875554795,50.57758943517524 352.4018500533199,50.534211340774846 355.1467161866673,48.42263900815283 355.4383513866702,48.03372307291261 356.59928521776567,42.93174579440506 356.6828800266736,42.48864611535805 352.7441664266586,12.65731395522721 352.78057531556226,11.746301704937423 333.7204491644294,19.27147059352842 332.7709053422219,19.45561634994351 324.85714207110107,41.12484796668991 324.5707497511245,41.99440633663448 329.5706368266616,42.07724272178143 330.16555807111547,42.31603292687919 331.116121342238,44.896958702949405 331.1268983733095,44.966023863416694 321.25491942221527,46.34707704888547 321.1712517955526,46.34753978483036 315.6086289333249,42.70094106540614 315.57709883555765,42.66091167310492 304.32362100444846,44.8187541593868 304.26813385778917,44.90343718072813 301.08556006223773,41.925221660006855 301.04223348442576,41.90717346885481 298.12821165333264,31.533897330787795 298.1351293422118,31.470137827134522 305.86167810665904,25.328388775822305 305.8860720622248,25.301771033387695 302.421329377779,20.782234172969538 302.38972646222794,20.7580446980935 289.6939469066634,17.95997805005004 289.58690477332095,17.845621696331136 283.63048336888426,19.390569335307873 283.5915258577803,19.411055681171774 283.0092749066895,15.105278910785046 282.9499284177797,15.0291144814762 278.16601887110266,14.481375614828494 278.13128479111003,14.462276419951877 277.12967625776184,10.546913711943262 277.0542370399995,10.452915566442016 272.06665616890643,8.42693769065204 271.6817413955647,8.394986338454828 269.8389418933144,8.79125122001983 269.67604852445186,8.877148743056523 268.7984486666752,20.502029108982015 268.1755653955694,21.068571913528785 256.20155565333664,20.97783287570178 255.7829262488882,20.930032785174035 251.65102708445158,16.956226515998196 251.59102523554577,16.968379985169804 253.26656230222545,15.628240872850938 253.26932937777713,15.555781197261012 251.42587451555994,10.19627200818627 251.3574258044606,10.042771485582989 242.49419152888697,8.19691068359657 242.39392144888518,8.172831302239274 239.69696941332188,9.69096885799786 239.63995309331915,9.68437036615046 238.09825510220946,16.37806544618047 238.0734242399991,16.42286013003445 225.76867615112099,23.62285918909015 225.63884205334,24.265404756275302 218.13416905777524,22.247355295206717 217.0265378399996,22.38218748332997 204.60535412445427,46.324865718990395 204.5213952266564,46.483121244011045 219.25512592888083,60.05723377082154 219.5851360977755,60.341049048678315 221.71782317333384,56.59812898356881 221.73427999110538,56.51427403835237 231.92571053331596,50.48296730673587 231.95476482666675,50.47764625299146 235.39416692444468,55.462664076236024 235.6705832088843,56.110033534212334 238.21694807999995,66.00906037208165 238.61067380445422,67.04080513987697 243.34521289778752,72.87623117594171 243.4558231022162,73.01521447118262 235.48686395554216,77.74436349824077 235.47149940444035,77.74632897652168 238.7733487199945,92.42794798481168 238.84521986667062,93.16387119575643 237.82169318223134,103.71627356674412 238.08529353776942,104.50924380368792 229.4271869422297,116.54808049259714 228.90413684445195,117.33277421055368 221.47206317331404,123.30205591291428 219.96655561778573,125.51869239102939 226.51149030222552,134.8199679507013 226.53093264887104,134.84757092051564 226.88905047998526,142.41544715592295 227.02966160889594,142.6302345215588 231.6509690577583,141.5710704409646 232.61012482667104,142.16913349150104 225.07741698667053,149.5145233529836 224.8640608977945,149.77673705334723 225.1809638666815,156.0769863457606 225.17870651555825,156.37772746120004 223.27648770667258,159.8909055893671 223.26090470221936,159.95128055988584 226.10735163556058,162.7174897199509 226.26973527999473,163.30908423204505 229.15251828442672,186.23981239388354 229.04860731555493,186.54834626799106 218.55622089777137,185.91281532389235 217.9573674933414,185.94466127978353 198.09697396442755,194.43797381294257 197.97755280888634,194.44835672004388 183.0455392977816,186.27061970768386 182.03431881775725,185.81266197746277 157.2526085955393,178.5466622148158 156.61814729776927,178.43310875420116 155.4529172177787,178.30639942670655 154.94843565332815,178.25827750006988 152.86511903111352,188.11648790154845 152.8457495022227,188.19021516296903 136.3357747466722,176.94385139017663 136.1535118488897,176.91557760464616 130.9385938755364,176.75620549885912 130.85747487110314,176.79394245579147 128.50749954666355,184.47811237510882 128.46213407110884,184.54745992352377 122.38694687109785,186.5814610550658 122.362625733345,186.58930706435763 111.61122647999548,186.25850447401876 111.53673389333528,186.2491584347515 103.65340845334106,181.95142366403138 103.55656080888696,181.96469379196765 99.1101616622251,184.45076564676833 99.01389655998321,184.48065088927228 100.29163010666491,187.19898463853292 100.25259977777716,187.63454680343398 97.64783504888294,196.74350683531497 97.56635195555975,197.3041569218401 89.94036454222044,206.57457030280034 89.730139617786,206.7647650018696 83.92510637333146,223.6985099666997 83.89139174222476,223.75270231118316 83.21425922666788,236.61261670504587 83.20086075555412,236.76789224570507 79.71572909333156,241.50075706051553 79.56485065777781,241.6301992561273 77.68935597333586,242.65604358084215 76.83731515554939,242.84703288772266 75.54749385777507,238.18610089518893 75.10046552000097,238.15382475857746 67.09706356444042,242.58792351322313 66.88909599112924,242.78225566105516 57.76896059554531,243.53156895771804 57.59463483555703,243.67921737101983 52.43119903110312,237.61872970152012 52.16286551999622,237.47567559779395 45.91590118222632,237.73065976249177 45.44345944000054,237.84685467735812 41.74999611554779,231.86952272512258 41.07854338666186,231.93108510002617 22.20672400890146,244.52614205270197 21.910792560003415,244.90384219002567 17.859648311110163,244.60520919126407 17.050934071106553,244.72427071279503 8.052549999999997,250.56602984759206" stroke="#009edd" stroke-width="5.826309204126303px" fill="none" stroke-linejoin="round" vector-effect="non-scaling-stroke"></polygon>
</svg>