<svg width="244.47149681777228" height="153.73918387736194" xmlns="http://www.w3.org/2000/svg"><polygon points="5,43.58594395016553 5.864492657827213,46.61294405919034 6.015371093293652,47.32218361017294 6.291204835637473,48.31621395412367 6.496550968848169,49.477818014798686 7.166765795554966,52.078927699592896 7.29259491560515,52.2684810286155 13.612304213340394,49.30016671388876 15.85946083557792,53.54223846294917 16.937746488954872,55.27933482197113 16.38112739555072,55.7866339206812 17.69242993777152,57.22107520420104 18.505950151127763,58.03192178194877 19.80531057785265,57.065864812466316 24.8512913066661,54.30227706837468 24.80235776002519,54.62460588733666 24.733909048954956,55.49086220818572 24.707112106727436,55.71475135895889 25.69160846224986,56.906991523341276 26.639113386743702,58.210481602407526 28.254794239997864,60.80919707531575 29.134141724556684,62.010565909324214 26.090649884426966,64.10607781802537 28.622669653384946,67.41755874431692 31.26886769779958,71.17581986577716 33.36165063106455,69.9639720604755 33.940406328998506,73.19570372567978 34.03565198229626,74.31688678485807 37.302257493371144,74.24363694619387 38.97444494231604,74.22303542459849 42.0464813511353,74.10675124364207 42.59727502230089,74.05135600164067 43.02136576001067,73.99138262443012 44.0845053155208,74.09118563996162 43.945277724415064,75.60836892924272 43.62983111117501,78.05305347120157 43.17836088896729,80.66526451008394 43.080202524433844,81.42200324527221 43.01961813343223,82.52757867088076 42.94301383115817,84.00121265812777 43.08894065779168,87.29499324277276 43.16845767106861,88.82581734971609 43.059813546715304,89.34402449137997 43.06476515554823,90.26919510937296 43.12593208893668,91.34588547307067 43.157971911132336,92.5411336775287 43.14835996448528,95.5363206777256 43.17428309342358,96.52692513400689 43.2121483378578,99.53807848133147 43.763233280042186,99.24282434373163 44.74423438217491,99.171871738974 50.51868416008074,98.26047201745678 53.231292017851956,98.02335182216484 56.63304732448887,98.3062480869703 59.07739448884968,98.2677961892914 61.46756522671785,98.32867835758952 61.52348928002175,94.68716213782318 61.52378055115696,90.57315925823059 63.877542400034145,90.45596831175499 68.03165098675527,89.93501716351602 69.4714040888939,89.63929213979281 69.5083955200389,91.91901948442683 70.76435655122623,91.93549935374176 72.75519459554926,91.91581506532384 73.78163399116602,91.83845121669583 73.64269767119549,90.69263902516104 73.38579655112699,89.43786929151975 73.07297137775458,88.3510982337175 75.68712960008997,86.76899884658633 76.94920732453465,85.69823693769285 80.1846468267031,82.70245592249557 81.42254904890433,81.62434914935147 84.74857386667281,78.94714187271893 85.72316700441297,78.18032280879561 86.70212920894846,77.44692077860236 88.28606151114218,75.74845834024018 88.92074126226362,74.91570328595117 89.57784888893366,73.99962324206717 90.58186040900182,72.7942006616504 91.85617151996121,70.92218851065263 92.44191772455815,69.82250544044655 92.96649699565023,68.696720852633 93.78642517339904,66.911660404352 93.84205795556773,66.90387734363321 94.02730638231151,66.92356390826171 96.85205361782573,73.77941551682306 97.30643655115273,75.22289367642952 98.95037070231047,75.43485936959041 100.37556024896912,75.79973287321627 101.49025479122065,76.15956987882964 103.56876544002444,76.59036632091738 104.20373646228109,75.48842302162666 104.70472277340014,74.69229181890842 106.17593315558042,72.71042056684382 107.02848369779531,71.85796770290472 107.29790947551373,71.9174838551553 112.37563875562046,73.8187873926945 112.69807587563992,73.91859048779588 113.14721592888236,72.87981198180933 113.64936732442584,71.69956309493864 113.79995448887348,71.38550043664873 115.23766869329847,68.69534738262882 116.5271259022411,66.02576317603234 118.1812545421999,66.85214287473354 119.09497201780323,67.31683699716814 119.69062144006602,67.60984558577184 124.040755484486,69.78816886828281 123.04198684450239,71.84331757063046 122.8745059556095,72.29380868468434 122.69042261340655,72.92971375177149 122.62459534232039,73.15221141150687 122.65401372453198,73.23324445291655 123.58462492446415,74.31413991632871 122.67323761782609,75.26592776481993 121.77029717341065,76.44844622752862 121.36135253333487,77.68864157260396 121.44523861340713,78.62759610963985 121.65961415111087,78.81025914661586 121.77990912005771,78.8908322667703 123.67754040891305,79.76156941242516 125.36866048001684,79.72906561766285 127.45357909332961,79.30010662984569 129.7368533333065,78.72693918389268 133.23938844446093,78.218320474145 136.36181475559715,77.13011963211466 137.6970015289262,76.81286021543201 138.44440320006106,76.969429855817 138.64974933338817,77.09853105299408 139.01354695111513,75.76997533324175 139.0123818666907,75.46141229278874 140.15503843559418,75.79057670757174 140.1445526755415,75.86474163865205 139.67385856003966,77.91983260965208 138.84286208008416,80.81038642063504 137.73923584003933,83.5489147574408 136.8770733511774,85.24823152669705 135.62810282665305,87.22266336687608 134.20407836453523,88.82810625323327 135.71082382230088,89.37790018005762 136.02976568893064,89.48547834530473 136.92222037329338,91.45392043469474 137.77418837335426,92.97098195343278 138.03516728885006,94.60979928041343 137.99701077339705,96.48252198140835 140.52407893328927,98.15015165001387 142.42928327119444,98.73333834926598 144.21768789330963,99.34856656956254 145.0917924977839,100.05488669179613 146.2236720356159,101.4029767003376 146.81233095109928,102.40133607661119 147.50118712894619,102.0067535082926 147.82508060440887,101.77055292582372 148.46092544007115,101.9165761845652 149.27648455114104,102.04474698880222 149.88349354662932,101.71516476746183 150.47564771561883,101.22719905665144 150.81497855996713,100.72275304654613 150.88109710230492,100.05809099040926 151.8717101510847,101.5403028849978 152.6951335822232,103.55669899377972 152.93135445332155,104.64293591852766 153.20340167114045,106.08941235736711 153.19932387559675,107.4612673096126 153.2121398044983,109.11965759424493 153.5852580978535,109.98889986658469 154.22896725335158,111.0554219483165 155.59881528886035,111.93564200645778 156.06310144008603,112.21256957319565 156.32844942226075,112.42632994847372 157.17430072894786,113.09095400583465 158.38191075564828,114.27601208339911 159.06028117332608,114.88844975060783 159.62855111109093,115.31047230615513 160.76800369785633,116.25567168061389 162.007653546636,117.13129337271675 164.07276572450064,118.721867359709 164.4991866311757,119.04455792158842 164.85890645335894,119.3320038606762 165.24979228444863,119.67529070784803 165.96806684450712,120.28954394720495 166.35341852449346,120.63511784223374 166.31089294224512,120.0748759121052 166.84100636444055,117.53774907509796 167.1072281600209,116.79349514713977 168.0232758044731,115.40293266926892 168.34221767110284,113.99862943048356 166.79731569776777,113.77251195523422 166.8427539911354,112.23637159552891 167.44539392006118,112.15169131208677 168.90495345788077,111.9507471555844 170.15508906671312,111.42069310916122 171.2499771734001,111.12591292208526 172.3367096889997,111.07556222879793 173.65121621335857,111.21883280703332 174.51891285344027,111.60149752825964 175.529914880055,112.73163615673548 173.1872213333845,116.12842474150239 172.23476480005775,118.77358942542924 172.96410766220652,120.54540599667234 172.9818752000574,120.58705792960245 173.08119864889886,120.81682998663746 173.55480547563639,122.02335813792888 174.4760960000567,125.33578341844259 174.95785841776524,125.52252634859178 175.0123261155095,125.55593866953859 175.082522453391,125.58477395609953 175.84477895114105,125.69050330726895 176.11711744009517,125.68272236117627 176.67140636441763,125.5898086882662 176.63004586671013,125.22593456070172 177.90202680893708,123.73015373095404 178.2198035911424,123.39328122383449 178.71671210671775,122.87195167667232 179.26488433778286,123.13513400190277 179.85354325338267,123.4514100769884 183.5989984711632,125.02408713923069 185.8525630577933,125.88136525201844 188.04088291560765,126.7111779366387 191.4662311822176,127.82338740909472 192.73355178674683,125.0693998420611 195.4403342222795,126.0200490053976 198.39149312011432,126.96749009157065 198.91985891549848,127.13271973055089 202.71483022230677,128.14743748842739 206.1506642489694,129.3685709972633 206.88699761778116,129.6907879852224 207.90673777775373,130.0212429772364 209.61824682669248,130.59702069102786 209.68844316445757,130.62448222900275 208.35558655997738,134.09330412815325 207.6253698845394,135.95973522571148 207.23710549331736,137.06594733259408 206.5750462578144,138.81518803280778 205.94997845334,140.40743329765974 205.44141909328755,141.803327095462 206.88932778674643,142.38319246144965 209.41639594675507,143.22575649432838 212.04628280887846,144.08570847089868 214.65694577782415,145.0335281107109 217.6954860088881,146.23031037737383 219.45476352004334,146.98407386045437 220.0941036089789,147.3735401807353 220.69120938668493,148.06780449103098 221.51958442677278,148.73918387736194 221.6468699022662,148.73781091551064 221.87988679111004,147.89984490495408 224.202773902216,142.6353670489043 224.6577393778134,141.3342162501067 224.7392952889204,141.34428498137277 224.82318136887625,141.3749488418689 225.2612531200284,140.55663417937467 226.28099328000098,137.56023970188107 228.05512561788782,132.13348837773083 228.11891399114393,130.54118221998215 228.06765027565416,130.23864730203059 227.61967530671973,128.6197808025172 227.58326641784515,128.46919859823538 228.009978595539,128.42937897052616 230.59675733337644,128.60421912063612 232.84012743108906,128.94794895133236 235.86060885339975,129.87249252392212 236.9167579022469,126.26629254675936 234.4467788799666,125.39894648635527 234.4584297244437,125.35683777648956 233.11246592004318,124.91011878405698 231.8803891200805,124.3778079606127 230.74210161785595,124.09311496210285 228.2523161600111,123.3676495985128 227.20723541337065,123.14108420722187 226.80790272005834,123.1818202243885 226.80032967112493,123.01155277591897 226.77032874664292,123.01796069310512 226.6651798755629,121.50889096304309 226.72372536896728,120.6502223839052 226.75401756446809,120.08403020363767 226.8367385599995,119.32284953724593 226.77790179557633,118.43030114739668 226.66692750225775,117.33818308252376 226.65585920005105,116.48224428272806 226.58391523559112,116.13117107911967 226.4111914667301,114.9145401060814 227.4955938133644,114.97312896279618 228.9301040355349,115.22945502470247 233.43985464889556,115.99339643277926 233.48674929782283,115.65010374318808 233.58898545778356,115.18551343574654 233.72297016892117,114.05492989870254 233.89336376893334,113.55966836685548 234.1188076089602,112.68311675818404 234.44240981340408,111.2435504051391 234.63843527110294,109.81541788048344 228.27357895113528,108.08516776841134 229.48293660453055,104.72533040581038 230.05790577782318,102.91630644333782 230.41529543115757,101.97150653850986 230.76860728894826,100.48929759836756 230.84987192892004,96.94074376689969 231.09483093337622,95.41501251899172 231.57601080893073,93.56974681839347 231.73213212448172,92.67983880557586 234.0707478756085,93.00302598671988 236.00973966228776,93.4846014570212 238.22485646232963,94.04399671265855 238.71448319999035,93.09274925442878 239.47149681777228,91.7784827707219 232.14369820454158,89.84437702887226 232.01670400006697,89.31335325515829 231.779609315563,88.43624561559409 230.7298682311084,86.63807227939833 229.94168860453647,84.8151633804664 229.40429340442643,83.04305414296687 226.5833326933207,76.24014398641884 225.95069184002932,75.17207681632135 225.77913315559272,74.73761506541632 225.63029361783992,74.33291018381715 225.43892849772237,73.66084203333594 225.86651448893826,73.56790601444663 225.6224292977713,71.1973373136716 225.51087246229872,70.326565693249 225.01716792897787,67.25045218365267 224.9070674489485,66.4158331003855 225.6961208889261,66.61178345419466 226.005742080044,65.49880139844026 224.6420107377926,65.13024787174072 224.5150165334344,64.30752425547689 223.26080312894192,64.1912347440375 222.22708195552696,64.11019831517478 221.86852721776813,64.04610168328509 217.451983360108,63.22795229242183 209.0572586666094,60.92091000743676 211.2214030221803,55.673086933325976 212.21813276445027,54.003756199614145 213.48690972442273,51.9511851448915 209.2838675911771,51.353220785735175 209.29289699555375,52.57112500927178 202.58346695115324,53.31102136941627 202.50161976891104,53.31926277501043 201.83082240005024,53.32933560363017 199.1138454756001,53.52575566840824 196.17258979554754,53.64891874155728 196.05433372454718,52.74236362462398 195.98355484451167,51.36283584591001 195.96520476450678,50.8445377057069 195.9509324800456,49.63990180636756 195.95297137787566,48.17244384146761 195.94598087121267,47.884903329540975 195.81956920889206,46.56349408766255 194.5796280889772,46.62896951043513 192.24567267554812,46.66147827944951 190.7735884799622,46.69123982422752 188.10030222218484,46.70360231085215 186.51636991999112,46.706349530024454 186.31714048003778,48.020889893115964 186.28743082669098,48.133983030798845 184.72883911104873,47.7397593272035 184.32659370673355,47.59461522748461 182.85130552889314,47.213210867135786 182.59061788441613,47.29516936384607 182.43944817781448,47.353318669484 182.33400803559925,47.384911592816934 181.75204835564364,47.58774720772635 180.92309077340178,47.81897041935008 180.84706901339814,47.777304472750984 182.14322545775212,46.636753300670534 182.6305220266804,46.22100693767425 182.96227982232813,45.9233906584559 182.85509205341805,45.80297041684389 183.0324761600932,45.440335671883076 183.44782876444515,44.502152810106054 183.6022024534177,44.185761283675674 184.08017834671773,43.24848873435985 183.3828753066482,41.29105494788382 183.62608668452594,41.13766465114895 184.619029902271,40.288750415551476 184.9315638045082,39.39862317254301 185.24060245335568,38.58266998169711 185.47798840899486,37.96818468248239 185.70459733332973,37.34225039585726 185.92538083565887,36.70715647749603 186.2839355734177,35.756114728865214 186.47209671116434,35.21305290434975 186.6899675022578,34.81651617446914 186.76424163556658,34.66403707675636 186.9212367645232,34.41814713412896 186.11004672001582,32.31547907652566 186.06635605334304,29.409166206489317 185.37313080893364,29.571265037870035 184.88612551114056,29.7045156811364 184.41950919118244,29.856998275383376 183.42802232899703,29.549285542452708 182.85946112009697,29.332695811521262 181.53767281782348,29.003460689098574 181.333783040056,29.507158169872127 178.04853617784102,29.098247486399487 175.98633671121206,29.476936354127247 173.64655587554444,30.150973423908 173.6069430045318,28.2176902765641 173.79568668454885,25.928133169771172 173.72403399110772,24.251704085851088 173.62587562669069,22.67921003664378 174.86989454226568,21.442362624802627 175.603897742345,20.177574654167984 175.33592831995338,17.883353122742847 174.08579271112103,16.404689262039028 173.85102819558233,16.150993672199547 173.08760661340784,16.629992677131668 172.54380344890524,16.791185220354237 172.0687402667245,17.242248942900915 171.63824156450573,18.400356466241647 170.6983096889453,19.143117299710866 167.56656270229723,20.70602063636761 165.6403868444031,20.850724856951274 160.9424750932958,20.578259551082738 159.76282709336374,20.526514000433963 157.91558570670895,20.6176411123015 156.28534129774198,20.79348427488003 154.7250019556377,21.142422627366614 153.03271679999307,21.65621272008866 151.8979245511582,22.17824418458622 151.29208064009435,22.410410404670984 151.43451221333817,21.768403799040243 149.50018076447304,22.83261342474725 147.87983957340475,23.723724685551133 149.036768426653,20.673965890833642 149.4690147555666,18.858743693795986 149.88407608889975,17.260108299320564 150.4185585777741,14.673233842593618 150.60351573338266,13.480760848615319 150.90061226673424,10.720737650000956 150.96003157331143,9.556177723337896 150.96673080895562,8.422294239047915 150.92333141341805,7.773376823985018 147.1437974756118,8.151187129551545 144.9199425423285,9.14036007609684 142.11558428453282,10.712952567031607 140.59777052444406,11.844992267084308 137.62156231119297,12.617541848332621 136.80542065785266,12.848802448890638 132.91258225787897,14.332070005359128 130.05579520005267,15.01027570903534 129.99550208006985,14.883427133376244 127.58086456893943,15.697180060611572 125.59614321787376,16.657468687277287 125.60954168892931,16.678991559543647 125.08117589342874,16.94779831485357 125.07185521780048,16.929023066768423 124.72029098670464,17.099374038167298 124.72873784892727,17.117233406403102 124.20124586671591,17.38558168517193 124.18930375110358,17.36863820301369 123.09732835565228,17.905333803675603 123.10635776002891,17.91861379740294 121.60631153779104,18.659544568450656 122.56604984891601,20.111633297172375 119.1459444622742,22.208467020187527 117.88852707552724,20.29434575792402 117.46006727113854,20.01317915029358 116.12954083562363,19.29469148442149 115.73952881782316,19.103735469980165 114.15850922674872,18.09400122408988 113.22877184010576,17.424047964042984 112.13067975116428,16.55763916694559 111.88251676445361,16.38408223062288 110.95889607118443,16.457809600571636 110.75471502216533,14.24185612227302 110.59393336891662,13.505489617935382 110.4145103644114,12.839643617917318 110.29013760003727,12.343692342110444 109.61147591122426,10.129528498451691 109.15243263996672,8.946647397009656 108.72164266661275,7.751395113125909 108.47260586672928,7.030118987429887 107.79860451561399,7.05897007859312 106.08301767113153,6.806637388537638 104.32548778667115,6.439357701863628 102.89651171560399,6.0578807584242895 100.9671318755718,5.555960489611607 99.13911438221112,5.2610359927639365 97.36935111111961,5 97.31022307556123,5.915456420974806 97.79402439121623,8.798271610517986 98.12432583118789,9.891395773272961 98.57521351112518,10.713410513126291 99.10357930674218,11.45253419096116 99.93020672001876,12.434364959481172 100.73207608889788,13.690039418870583 99.3246540799737,14.147520752390847 98.52627996448427,14.382443223265 97.048079075641,14.957155014853925 95.9456179200206,15.425166198285297 95.13501041778363,15.692600705428049 93.43835619557649,16.220599711989053 92.25899946666323,16.533826613915153 91.45363484451082,16.739438763586804 90.6188518400304,16.925817536539398 91.29896988451947,19.63447371183429 88.39965724456124,20.270075690583326 86.77203427557833,20.60436128429137 84.30030762671959,20.912544668477494 82.08140430226922,21.03847385942936 82.03654855117202,19.116099533624947 81.94974975998048,16.736691163736396 81.64216746669263,14.766653108177707 80.52951182227116,14.807409539818764 80.39261440001428,14.786344418826047 80.25134791107848,10.82148575631436 80.0355160178151,11.003748120274395 78.79353600007016,11.937954810913652 77.92380046227481,12.621663326513954 76.13568711117841,14.003727925010026 73.96484352007974,15.598723904113285 72.02090012445115,16.963368031545542 72.41732010664418,18.188334872480482 72.81840042676777,20.20871362136677 73.4236617955612,23.9494783943519 73.81192618666682,23.837288446782622 76.4071517867269,22.981895423319656 80.03872000006959,21.72902244736906 79.67171839997172,25.830139584839344 79.5473456355976,28.042311059311032 78.34264832001645,28.07344889419619 77.09105635562446,28.227306365268305 77.0925127111841,28.999797430355102 77.17115591117181,30.456853683805093 74.58233827562071,30.618493826128542 74.15242211555596,30.690384728717618 74.31640775117557,34.05595119734062 74.39475968002807,35.376978961285204 71.96847132442053,35.653088770923205 70.32337208883837,35.89210891840048 69.42625706666149,35.95896124950377 65.1868060445413,36.50018963543698 65.15797020448372,37.72000905184541 62.585755022242665,37.92926416883711 61.2831906133797,38.089982950594276 59.135357439983636,38.69943114882335 57.26335800893139,39.14861763978843 56.37818510225043,39.32261419494171 55.119020088925026,39.4705111568328 54.756096284487285,39.57124587171711 52.71603342227172,39.794235732755624 51.97824369778391,39.880775883910246 50.43363299558405,39.95357947627781 49.07048419560306,40.15916936262511 48.8785365333315,40.20587349671405 48.47803875559475,40.34323853836395 46.082333866739646,39.653665149002336 43.607111964491196,38.828097303339746 37.07623111107387,36.7721769931959 35.011410204460844,36.322985566803254 33.44582798227202,35.76115155231673 33.06979697779752,35.10453195462469 32.71182478230912,34.815142489387654 31.50392348447349,34.84719513915479 30.435832320014015,34.7487476998358 28.645097528933547,34.14157785149291 27.449138346710242,33.84623443585588 26.406096497783437,33.53120101452805 26.411339377751574,33.28439398750197 26.40959175117314,32.17810893629212 26.443087928928435,30.833708558871876 29.35055616009049,31.07868677075021 29.40181987558026,30.34466711175628 27.813518506707624,30.140441610768903 26.232207644497976,29.954074225272052 24.557981297839433,29.68665735225659 24.84866986668203,28.731005653738976 25.578304000082426,27.097184056823608 26.17657486232929,25.908442873624153 27.572054755641147,23.308392196078785 24.469726151204668,20.76188746711705 23.87669816892594,21.38283258205047 22.99269034678582,22.483677799114957 21.972076373407617,23.95176798454486 20.947384604485705,25.347497634938918 19.952693760045804,26.85174342332175 17.752723057870753,29.55111716716783 17.10435356455855,30.062139854184352 16.901046328945085,30.194016480643768 15.448186026653275,31.257726746378466 15.344784782268107,31.354344165243674 14.720008248928934,31.857120368629694 14.880789902294055,34.53582634078339 11.8023455288494,36.06152916949941 10.484926293371245,36.62336240382865 9.775098595651798,36.89534960658057 8.295732622267678,37.54463753971504 7.153949866769835,38.20628649590071 5.880221297731623,39.02956728450954 7.520660195616074,42.52595734316856 5,43.58594395016553" stroke="red" stroke-width="3.9128789804460427px" fill="none" stroke-linejoin="round" vector-effect="non-scaling-stroke"></polygon></svg>