<svg width="313.14710812445264" height="293.8238444571616" xmlns="http://www.w3.org/2000/svg"><polygon points="5,55.08962728944607 8.317577955545858,58.78255994815845 8.896624924382195,60.399206344329286 7.835524266585708,75.46180111181457 7.76212394668255,76.03647685662145 15.395174684468657,75.85910243011313 16.8462873599492,76.72402536316076 35.14102584880311,94.87184043368325 36.307275377679616,95.93554486747598 40.07486719987355,91.31611905066529 75.61489436437842,105.5928497328423 75.87354311102536,105.64211375301238 76.0835495821666,110.41798414138611 75.36061468429398,113.43778184283292 69.78743324440438,112.90574871841818 69.74578147556167,112.91560119541828 65.92430449766107,121.33393345988588 67.02763946657069,123.42122511810157 60.18189454218373,122.4700566950487 57.22258005326148,121.91431090369588 57.742498986655846,125.22368694085162 57.1713163376553,128.25134170649108 47.7093742932193,130.16168486431707 47.22819441766478,130.07794536935398 47.45392952882685,134.01724950812059 49.78555477329064,135.89171909581637 45.4668780087959,140.45602596574463 45.581638826522976,141.77832731342642 54.34278257761616,152.41510811587796 63.55918307544198,154.6046404267545 78.16759438207373,181.68855993333273 79.08742855105083,182.51501203363296 96.68340764439199,187.30398557911394 97.53887089772616,188.0498329619295 93.51059143105522,191.02424356655683 93.20737820432987,191.59145426331088 105.46610545762815,204.7626866925275 106.54089585773181,206.42391958402004 91.41402197326533,219.56069144565845 90.01096903102007,220.45011567196343 89.07802766212262,216.63724906544667 88.93326591991354,213.96623349294532 56.31119274662342,203.86155995971058 55.78573966212571,203.94616665062495 57.04781738657039,216.00385380571242 57.14655829325784,219.00205778132658 40.239726648898795,218.56562424299773 40.63672917324584,222.18642969545908 47.46907562657725,230.71381977113197 47.48393045330886,230.83601449499838 69.67238115542568,231.06294737325516 73.37997112877201,231.2639192927163 75.75936483545229,236.8973246513633 78.45770040876232,237.44427559390897 76.03782001766376,243.08155072375666 76.24986538663507,244.7796424232656 86.26755271106958,246.57439561549108 86.68873073766008,249.96200827602297 107.42111715546343,240.45203386910725 107.5801511821337,240.42920728726313 108.72805063112173,246.52874372096267 109.31787463102955,247.30079654447036 122.2345833244035,252.27185665088473 123.67084117326885,252.50950872979593 113.92694869323168,260.2659555923892 114.99096206214745,262.07803624507505 122.79236750223208,264.0158584972378 124.99321201769635,263.246549583273 126.63860252441373,270.2753999418346 127.16230798221659,274.34778776590247 138.36401237326209,273.4156203760067 141.2741020444082,273.166355550522 145.39617080881726,287.32074885384645 145.67375217773952,288.8238444571616 162.60272042651195,281.67431576608215 164.13742791104596,281.31273863179376 174.4166766932467,284.5852585277753 175.74108643538784,284.95935998286586 177.41647786658723,271.4702732010046 177.03345635544974,269.90351109649055 171.4894020265201,269.7884984140983 171.1791982932482,266.9373282058514 190.12055864883587,259.2773382392479 190.98446876439266,258.2882688959362 182.15138104883954,250.5577106931014 182.59760839107912,248.0307755896356 219.5657378132455,257.2772653612774 220.62101304880343,256.5674566483358 220.02215964428615,253.99091231799684 224.1066544355126,252.22620593965985 221.60783957329113,244.06934577808715 221.43657215998974,243.4516946556978 231.6494111288339,245.26346636004746 231.30105087987613,242.6039880430326 227.52675982215442,241.37404676456936 221.7630870754365,240.89961342769675 214.93569223105442,224.17428874381585 215.6542580621317,222.45679032523185 241.1078579199966,223.54986749391537 245.0717664710246,224.42584719765 252.50879175099544,232.3753041170421 256.55483875551727,232.58791233354714 223.03477674664464,188.21771542722126 220.28546872874722,181.37516991677694 245.94091946654953,167.01247355889063 246.2787939554546,166.3466986269923 240.0461747199297,166.10716243175557 238.57962467544712,166.04268909350503 238.68419100437313,160.75312452571234 238.8391472354997,158.98095312109217 225.5670877866214,162.18992505950155 225.06639274663758,161.7399464698974 228.10901077324525,155.62283268291503 228.15474033774808,155.2234368106001 224.5948248177301,144.7144078820711 224.4751123910537,143.03345394367352 239.27663644438144,141.6798154657008 239.4132425955031,141.69772671395913 243.47443569765892,133.87753684882773 243.79075612442102,131.45583663787693 251.07515534211416,130.8396601350978 251.28778325323947,129.46937770640943 271.64151722658426,134.30786946683656 274.52131470211316,134.4560899757198 277.89976831991225,132.18396158586256 280.99831039994024,130.91892130824272 283.46042510215193,119.86103968485259 283.91888583102264,119.4006743876962 297.1857023999328,117.59682130196597 298.542151964386,117.41679344337899 300.5061930665979,100.82851892861072 300.7147431821795,99.86739962676074 305.1394426310435,97.24691739236005 305.7205284977099,97.39202780550113 303.3891945243813,76.1157578038983 303.3734658843605,75.3296657903702 307.89807132433634,62.323129955795594 308.14710812445264,61.72960467857774 306.18131939554587,52.50131215318106 305.82363847095985,51.31241505488288 292.813431750983,56.391388657386415 291.5134887821041,56.039295669295825 287.68210858653765,40.385369906318374 277.1855715555139,41.8646204417455 271.7955996443052,44.27521300694207 272.81417471996974,53.95405145466793 273.34341432875954,56.14635708293645 253.75950990221463,55.18414635467343 252.8236558221979,55.31405400822405 232.4620575289009,63.61006642575376 227.47170958213974,64.73528976819944 228.71310705773067,72.18616545177065 228.96593038213905,72.76219353091437 219.64205084438436,68.80790505168261 217.79451818659436,69.20790597819723 217.75286641775165,70.06613619136624 218.3024950043764,75.94107093289495 212.81261710217223,79.18305745942052 212.06754560000263,79.88627287006238 216.86681969778147,87.63224321434973 217.0922635376919,87.819461737643 212.75348906661384,93.33830548188416 211.77685703104362,93.89725871349219 202.01898353779688,94.43695179035421 201.12419868435245,94.81540797045454 191.8911957332166,83.02876722381916 191.54341802664567,82.75151646567974 185.05506275547668,82.43350627983455 184.16464696882758,82.46665102487896 187.63135573326144,90.43916065467056 187.67650275549386,90.90451337525155 176.60878307546955,89.1461109132506 174.59668223990593,95.2144657925237 146.9468982043909,74.50549792358652 146.02269496885128,73.83675509411842 153.42738915549126,69.07576689484995 153.42680661322083,68.36893343174597 144.80692935106345,57.38584672077559 144.34264319995418,56.760951301199384 123.83570062217768,47.52931421529502 121.95088526210748,46.482398423017 123.53219612431712,39.00197940971702 123.0804346309742,38.69510566088138 105.45183317328338,40.11747307458427 105.0061883731978,40.19094314123504 94.1580871110782,25.987020026135724 93.9754601244349,25.807365092507098 74.61903843539767,18.801604120177217 75.42615068436135,14.251794423384126 40.76226702216081,5.256738184194546 38.28180223994423,5 30.386607502237894,34.352236159553286 29.80406527989544,34.70122791721951 31.031481742160395,44.93060648575192 27.8167224888457,51.79576924821595 14.979822080000304,48.48887064878363 13.794639928848483,48.05030639376491 5,55.08962728944607" stroke="red" stroke-width="3.3955940394212343" fill="none" stroke-linejoin="round" vector-effect="non-scaling-stroke"></polygon><polygon points="75.55605759983882,106.3089683582075 80.61398044438101,109.60111344547477 80.86826012434904,109.88460016594036 100.26400341326371,95.19162411859725 103.28681500430685,94.7025430003414 125.05933055991773,99.36130995396525 128.50244636437856,100.5857762399246 126.47665578662418,118.49068878346588 126.74346012435853,119.06480415561236 134.0957255110843,129.49803729570704 134.3526266310364,129.99062340206 150.70080028439406,133.28330925712362 151.47965923557058,133.38675064896233 154.59742520877626,143.70512061880436 154.80102371552493,145.3511430696817 150.47302627551835,144.44216048775706 150.15408440877218,145.79802081233356 158.55346943996847,154.82269694900606 159.27174399991054,156.37595162400976 161.93221432890277,149.9707762306789 162.5925259377109,149.6662962748669 173.11848135106266,150.03435875638388 175.3516569598578,150.06301566341426 177.77211989322677,155.42403034400195 177.98649543104693,156.06879403226776 190.36143985763192,155.50955119193532 190.5175611731829,155.63133998622652 188.35487317317165,167.42214576608967 188.31438648875337,168.28267877857434 202.91289457771927,165.0787208841648 203.71243377774954,165.0106653746916 205.72861240885686,174.01216672657756 205.8311398399528,174.86551051505376 222.86088789324276,177.1537628377555 223.12594460439868,177.22136687778402 245.94091946654953,167.01247355889063 246.2787939554546,166.3466986269923 240.0461747199297,166.10716243175557 238.57962467544712,166.04268909350503 238.68419100437313,160.75312452571234 238.8391472354997,158.98095312109217 225.5670877866214,162.18992505950155 225.06639274663758,161.7399464698974 228.10901077324525,155.62283268291503 228.15474033774808,155.2234368106001 224.73346986656543,142.7768767317757 224.96473912883084,142.2964093494229 239.27663644438144,141.6798154657008 239.4132425955031,141.69772671395913 243.47443569765892,133.87753684882773 243.79075612442102,131.45583663787693 251.07515534211416,130.8396601350978 251.28778325323947,129.46937770640943 271.64151722658426,134.30786946683656 274.52131470211316,134.4560899757198 277.89976831991225,132.18396158586256 280.99831039994024,130.91892130824272 283.46042510215193,119.86103968485259 283.91888583102264,119.4006743876962 297.1857023999328,117.59682130196597 298.542151964386,117.41679344337899 300.5061930665979,100.82851892861072 300.7147431821795,99.86739962676074 305.1394426310435,97.24691739236005 305.7205284977099,97.39202780550113 303.3891945243813,76.1157578038983 303.3734658843605,75.3296657903702 307.89807132433634,62.323129955795594 308.14710812445264,61.72960467857774 306.18131939554587,52.50131215318106 305.82363847095985,51.31241505488288 292.813431750983,56.391388657386415 291.5134887821041,56.039295669295825 287.68210858653765,40.385369906318374 277.1855715555139,41.8646204417455 271.7955996443052,44.27521300694207 272.81417471996974,53.95405145466793 273.34341432875954,56.14635708293645 253.75950990221463,55.18414635467343 252.8236558221979,55.31405400822405 232.4620575289009,63.61006642575376 227.47170958213974,64.73528976819944 228.71310705773067,72.18616545177065 228.96593038213905,72.76219353091437 219.64205084438436,68.80790505168261 217.79451818659436,69.20790597819723 217.75286641775165,70.06613619136624 218.3024950043764,75.94107093289495 212.81261710217223,79.18305745942052 212.06754560000263,79.88627287006238 216.86681969778147,87.63224321434973 217.0922635376919,87.819461737643 211.77685703104362,93.89725871349219 211.26829767110758,94.0661088891793 202.01898353779688,94.43695179035421 201.12419868435245,94.81540797045454 191.8911957332166,83.02876722381916 191.54341802664567,82.75151646567974 185.05506275547668,82.43350627983455 184.16464696882758,82.46665102487896 187.63135573326144,90.43916065467056 187.67650275549386,90.90451337525155 176.60878307546955,89.1461109132506 174.59668223990593,95.2144657925237 142.331124906661,70.25874480768107 141.46226318215486,69.57162399357185 134.34971391991712,81.71999724407215 132.42994602653198,89.85466907476075 117.65318001771811,80.24952529906295 116.94655630213674,80.33149216370657 75.55605759983882,106.3089683582075" stroke="red" stroke-width="3.160413076065309" fill="none" stroke-linejoin="round" vector-effect="non-scaling-stroke"></polygon></svg>