<svg viewBox="0 0 55.30481106489024 50.56876617864037" width="55.30481106489024" height="50.56876617864037" xmlns="http://www.w3.org/2000/svg">
  <title>Plzeňský kraj</title>
  <desc>Geojson of Plzeňský kraj</desc>
  <!-- Generated from maps/2-geojsons/world/europe/czechia/plzensky-kraj/okres-domazlice/okres-domazlice.geojson -->
  <metadata>
    <collboard>
      <support-module name="@collboard/map-svg-geojson-import" version="0.11.1"></support-module>
    </collboard>
  </metadata>
  <polygon points="1.2968712300500103,5.592227092097289 1.4281179927174437,6.957651125754762 1.4320210256062182,6.979131506645479 2.299768638052183,8.057839378534243 2.349481334939037,8.14950521033037 1.9220336976055024,10.032971044906425 1.9203006344936058,10.054270951770139 2.1580288336060676,11.127479239882213 2.1797358131619604,11.20472470594408 3.611114870940355,13.112558937553093 3.677393612271544,13.159006276939307 3.212889007828335,13.518721369777758 3.2132239696076343,13.523355678422503 5.553893182051389,14.827696164339557 5.560031720716643,14.857604371954347 6.6320331998287205,14.24557547459857 6.676976332272307,14.25206040179195 7.2234810362716875,15.184149655231284 7.265875546494636,15.263592717767587 6.9196634220513715,17.755795336866992 6.9188551447181,17.76217520383374 7.2667202327168985,19.525503569026604 7.267186266495401,19.529863794765095 6.497895571382969,20.50992997854204 6.497808190048227,20.512361853750317 7.577710398050977,21.390982759290036 7.5827639518277925,21.393828829056417 7.857898643383078,22.16055558019447 7.906839471828562,22.292351164003904 8.25692550204999,23.36823106272217 8.269362778496134,23.404611683738892 8.095604997160398,25.145368945443025 8.092779667381683,25.144820275610382 9.790831990938887,26.09823615568179 9.827248161606395,26.119261077628597 11.8859450931604,26.263242685550484 11.963219318940673,26.268896190071374 12.39630305227197,27.371072888071776 12.408099532273036,27.458521591179434 13.69263425938275,27.918720818264536 13.735385576717228,27.934971129668828 15.348168282496182,29.451790980741624 15.528639862939736,29.621619644083093 15.63938113938216,31.51389366923553 15.55820388071893,31.809812995839582 16.16728090115953,32.701869918730644 16.31215915182852,32.91313771712606 17.248457420274054,33.46864137426905 17.32688944871784,33.60184299406259 17.058512246937745,34.5900548548177 17.060412790940745,34.83772278614646 18.767640154494575,35.547801824308536 18.836052456716562,35.567728897709586 21.21597773316039,35.65983060234006 21.322757722495727,35.66793315392 22.056149253161994,35.24605933349534 22.061639713603793,35.24610404062563 22.42432321938409,35.88041691093544 22.49888862382809,35.95963941178064 24.164100129605643,36.548346758089735 24.21181761938219,36.59019373890782 25.08572561582855,36.515975190309234 25.086555738494056,36.513472168505665 24.43810614560512,34.587595668820846 24.437334277160836,34.58646667852021 25.97450300249343,34.66967599622889 25.99420021138226,34.67314116081847 27.272057548273143,35.35365716419195 27.299917630048142,35.36446489060921 29.504876350049884,35.432820194681824 29.536238966940573,35.424281416344584 32.341303557160565,37.55692121465412 32.34641536516151,37.56023932366965 33.737154821161084,39.52999375330123 33.713569142940244,39.55666306814832 35.25284230205011,39.72970893688629 35.29461057938183,39.73470088603221 35.321538593605645,41.78078418265372 35.28522436782964,41.86563740869036 36.18292193227112,40.072043412510666 36.185412300270535,40.06638174981357 36.10673997316058,39.47918991440978 36.10078347894028,39.46129845300615 35.54909414916197,38.95557815441001 35.529411503826985,38.927375731484915 35.749881889607195,38.47941251789902 35.74079423093949,38.412223267766365 37.636109914494,38.130086482199964 37.65732173316078,38.131315283668066 38.90352518205196,39.319292687060205 38.936205800715975,39.334861567284804 39.74168693138358,38.498770465474934 39.77657392871638,38.47617315475667 40.20193897760487,39.02642423698575 40.22783297938309,39.074261301339845 41.206897128716946,38.682393910456575 41.28133874294013,38.69031329462463 41.187294582938335,38.261600195043265 41.17865839449237,38.25698671190488 41.56745435538192,37.961615202407245 41.60588757849487,37.91142247626279 43.209320481604806,38.70630840532407 43.2586909349398,38.71655106002885 44.503066657605956,37.57100919907983 44.52237065049426,37.568506657297384 44.06805325316105,37.329173494569964 44.06482742560634,37.3286483846868 44.277149502051316,36.96812068834273 44.27692376693899,36.965405579788914 43.80933897049413,35.56952825412167 43.80191155716034,35.55461928323215 44.29776421493748,33.53325250086504 44.29834675716134,33.50673285016395 43.69232808338434,32.61108287645197 43.69101008160519,32.6084774372955 43.72484850293854,32.02259127929877 43.727091290493405,32.021528862202956 42.86350885494044,31.346494628292692 42.84818799449436,31.335645446591787 41.98607647805198,31.487655070491144 41.954531816716326,31.471023805152925 41.356078910050705,30.673894353033518 41.3459936478293,30.651018769500787 43.137558561607285,30.52096731023643 43.171812044270474,30.52697439967027 43.15554455271645,28.912005528302814 43.161690373160084,28.896004279708848 42.34583270916205,28.449796850352268 42.3379611073849,28.440620543024977 41.709223286938645,27.40462882021833 41.69410631627266,27.403095414846156 41.99661321049512,27.255494749831396 42.014977854050954,27.26120319839987 41.836647116270754,26.935588288572163 41.837841327829075,26.908745744642637 40.47349103449392,26.949524419994976 40.433929135828066,26.963147094211436 40.69357548604908,26.56295996281855 40.709923077159466,26.52075671140641 39.998923013161544,25.960049588779057 39.99634526382738,25.936740129016233 41.160162678940246,25.37334211641295 41.17667046916045,25.362223605133604 41.61916225938489,24.540387974574823 41.63687882471727,24.516198996031143 42.92570251894081,24.22761402420596 42.98313390027338,24.20349086349901 42.4429497793813,23.45771486070602 42.368384374940206,23.389636069364624 42.50443711093699,22.831622507010014 42.53029470382913,22.801746526436308 42.93947964249542,23.215335731380165 43.001462134940226,23.22148523018126 43.16399869671746,23.065057314018613 43.18982716249316,23.056902553563248 42.968322764273175,22.560032999242082 42.96332746471758,22.54755327069737 44.55682802294046,22.47805164236064 44.57551306471883,22.471385982187474 44.267005985605785,21.741800161221306 44.195841171383066,21.683223841882263 45.008502134937004,20.51876093036566 45.01491009938195,20.491651656219744 44.28050640160523,20.237564344136754 44.26592828249573,20.189551817572045 45.75472415804993,18.404620094609108 45.77659133671564,18.394933695043562 45.78024678915986,17.614651496679414 45.78471780071864,17.550536818034143 46.31042574738399,17.322642203496198 46.338074657606334,17.321509658896083 46.59351214027279,16.624905579896712 46.60168229494025,16.62379532072531 45.30938519271745,15.81404252870574 45.26519936516138,15.775457991368729 45.058520666495454,15.125884695217373 45.04873395716145,15.0388001981309 44.42411034116245,15.295932736888188 44.389121398938144,15.305871393325049 43.68746385582795,14.809140877783774 43.42454070560648,14.828593637308348 43.040645381162314,14.26339217657527 43.01657182382783,14.245912062705736 43.3021995571618,13.995855066154162 43.404239109161566,13.950851001194804 42.77615664871715,13.283533479055166 42.76741123360712,13.286125661651148 42.823743066494494,12.91452209980065 42.823386259382964,12.909382271378252 43.71799635005023,12.56643934044854 43.72575144338494,12.540502833677 42.67435011360517,12.371435552831224 42.568312865606416,12.406531134767409 42.339482998941236,11.572582744025693 42.26516517493888,11.500371363194553 41.18000552338213,11.619593155113524 41.128465100270255,11.610882564957263 41.15591740249379,12.472827164718309 41.15287361938404,12.478191866804389 40.44689798204941,12.670060689540822 40.37504868071715,12.681564076065968 40.31710029316032,11.613711263277345 40.31439147182696,11.60186888557231 39.78767863982662,11.670666568918513 39.775474380271184,11.675964706801587 39.786324229161394,11.136370213657337 39.78836312693907,11.09852734529717 39.035092342939016,11.010200108643165 39.01927632160673,10.997604268303384 39.61722678560778,10.001958591819983 39.664886021163106,9.996647607418835 39.2046048478283,9.144005069096 39.202230988271324,9.116558760109308 39.58650496515925,8.460939679030105 39.59280370294014,8.442194358517133 35.91781424871601,9.852350795519431 35.88943716071676,9.897770285753484 34.50575374738269,9.701930434227814 34.48706142382885,9.696776363927473 33.6977676851589,9.091133742399814 33.65212550204901,9.07920730210766 31.73730921760448,9.241087984593594 31.70564076605092,9.24369330923813 30.65038737582813,8.616088719776725 30.648523240717033,8.614886988623892 31.6576101598273,7.411844381934623 31.699924570493888,7.340982377523449 31.135106195384424,6.291155747389837 31.067232744718922,6.260796267760577 31.727005502052045,5.862882767504323 31.759802629161413,5.867051609851604 31.389815500271062,5.360665748875306 31.35730964427362,5.353900585274221 31.509549772273886,4.71191372206389 31.526669231828556,4.623517192737324 31.947286561606006,4.738202001463049 31.970930494050982,4.736707203151434 31.740731653160903,4.629889882810073 31.701410053161226,4.594789418451671 31.991523361607825,4.685940013840571 32.06830242649317,4.653616005880884 32.159783400717565,4.246885908543606 32.14257655982815,4.202577287651491 33.16352549493909,3.786989486117216 33.16963490649664,3.786933280936626 33.201383457603654,3.107066961468206 33.21762182204998,3.073867960917539 33.8292911553815,3.073811748418791 33.837759862939265,3.0704839675048223 33.42430780249429,1.9222001145376795 33.423732542051724,1.8931545527333016 32.25712620605204,1.8987995017001027 32.23668625582663,1.9009135448346002 32.05981915538446,1.344633415763508 32.03518490116126,1.298198275451557 29.81063819893766,2.286150544314421 29.770115105607104,2.301813576856637 28.62677404960573,1.6741327861034165 28.607863272717942,1.668892439355966 25.586194920717528,1.8189263058507437 25.54760878027314,1.834163363321693 25.72486181494037,2.846910919217169 25.722102021161255,2.860762235225536 24.779206462050343,3.422070829031998 24.775784026493923,3.438247733350852 25.233582113604783,4.67870197021997 25.23731766560536,4.705822106180256 24.99586119627361,5.60775706194994 24.98386810827374,5.650087805418423 24.372024012272732,5.420562929255664 24.331566454938866,5.3850629721362 23.894215599825976,4.592934920801906 23.775376986494077,4.5377380396706375 24.018588364272865,3.678287592571121 24.009274970495746,3.631130308978152 23.56130000160497,3.588716510156644 23.50919888160729,3.5853103519782397 22.476395212271157,4.616560049957605 22.366382113605642,4.633576373859376 22.09316252960721,4.010557880815884 22.105781850495397,3.9293890744274336 21.394097299385024,3.9037039155927573 21.388949082495085,3.902332538299504 21.304312979383532,3.2744866905560572 21.276926213159598,3.2322837307439274 21.00959758738477,3.2712714525348363 20.9690380851594,3.2689893069154436 20.822535998051308,3.95842383759167 20.811977420273024,4.00861326068856 20.039788577603897,3.9556024252365547 19.95917929760485,3.9645275254822425 19.637470355382675,4.678780644657798 19.57007022027115,4.697426454737559 18.444715155381846,4.632823340827724 18.438744097604786,4.630946377449561 17.557780058495837,3.922442290617744 17.413134824717556,3.925252479304743 17.297449221159468,3.961391377305097 17.138662774939576,3.986559196819269 17.445138238050415,4.482338289317101 17.45584245138466,4.500872372454739 16.713938522496164,5.085478672321313 16.680005438049694,5.1187441492949235 15.553594515382565,5.303465015877862 15.53439246738576,5.320063404043447 15.145618351828444,5.140883560852797 15.107381736717208,5.119115013272801 14.743984616716762,3.3622304820238584 14.739651958938476,3.2901918645367347 14.4686096264953,3.3603530831374315 14.406270326938966,3.374248068020222 13.492370806940153,3.821128404984609 13.49151883893951,3.822859513410492 14.074432431828019,4.563296591350934 14.162534661160453,4.583819774745041 14.214992588272573,5.228810979979006 14.23837437671623,5.334200650980472 11.697900463827091,5.3068925815344645 11.690210906494896,5.307769138965648 11.35588992516,6.062545403442471 11.347625107382328,6.0721300157341265 10.87833637493909,5.4666484753078635 10.872438134940012,5.466176496553942 11.017571247826119,5.924516137712761 11.053936446050784,6.000138268098943 10.308486291385044,5.69936276110251 10.253821985607056,5.717151079775192 9.650548542049501,6.481005420767303 9.545727350938387,6.520868859216114 9.763583578495446,7.003319303358274 9.754168239829733,7.122728835258875 8.894911180270856,6.9772441125359705 8.826724613161195,6.950483490378372 8.751401903826764,7.772262570425062 8.720818437161643,7.795132627047258 6.9030973776041265,8.271630335498902 6.86856718738286,8.31079561134842 6.774901679827735,7.458362520346544 6.75792785582612,7.401239853662389 6.377709829161313,7.12578453473119 6.216775258493863,7.109562345982829 6.085404705605606,6.08880472915929 6.039121726050644,6.039746768250314 4.998002266493995,7.44852196181904 4.994215742050574,7.463720899235466 4.194800332273144,6.5251046133898285 3.971926959828261,6.361548194059413 2.311718035381773,6.323526272949073 2.2153072976072052,6.304526449303501 1.2968712300500103,5.592227092097289" stroke="#009edd" fill="none" stroke-width="5px" vector-effect="non-scaling-stroke" stroke-linejoin="round"></polygon>
</svg>