<svg viewBox="0 0 422.1132174755469 373.1420909236906" width="422.1132174755469" height="373.1420909236906" xmlns="http://www.w3.org/2000/svg">
  <title>Česko</title>
  <desc>Geojson of Česko</desc>
  <metadata>
    <collboard>
      <support-module name="@collboard/map-svg-geojson-import" version="0.11.1"></support-module>
    </collboard>
  </metadata>
  <polygon points="246.47608607108816,113.09815226797184 256.2046868177782,119.99656980361726 256.4119990310934,120.09634713081289 268.31268127109036,122.19864007441322 268.55458192885965,122.11990183583805 281.69644319109614,130.79076240410325 281.89763871109574,130.74134336894315 281.7443572888802,136.0471950869902 281.8767400088906,136.54110495048337 279.2662226755416,140.1393396687996 279.2039634755416,140.4470624563761 280.64611956442934,142.22465001978674 280.72527248887457,142.25831675611664 285.7396503022243,139.6901623658265 286.05466000887793,139.63776384891355 286.3552517955319,133.81546592573397 286.55528223110707,133.6263048211764 294.1006603644415,132.9487210818403 294.40758729776246,133.03043151269196 295.4815767022152,126.62538327945333 295.74794413330494,126.49803313948325 299.6915365244273,128.20895944679035 299.9101354933297,128.44710100552004 308.7290237422054,123.4422292098676 309.064349608852,123.35314784722107 313.4712815199815,127.19109930919478 313.60686822221726,127.35890503568919 318.8496025866549,127.49659728975496 319.06041005333066,127.51291805113544 318.3699518844147,125.22141182295275 317.3218127911165,124.45659692813172 322.1493401866534,122.49129243207392 322.7793595999898,122.91808385194565 327.3202762221987,117.28687806224445 327.62887796443067,116.86521516033793 328.56713503110916,106.72430968180527 328.3199914933135,105.57576977025712 336.9065182133123,99.34374666788028 336.9461310844123,98.2371385432267 334.39699913777406,91.79023167870002 334.12051003555064,91.41138377381833 292.6685531288746,101.21100293726306 292.55270004444867,101.25619438305841 290.7104830844397,100.50828832892114 290.27940183997964,100.62845536108182 287.24777929776576,93.76781131787686 287.0620211466518,93.05165869664745 282.5362506222224,92.57632683587838 282.51287611554255,92.57782195840957 270.59988767110156,94.55295759351395 270.4123818933218,94.59803961634282 262.8820770399831,103.24688022709563 262.6224816622049,103.29206996625692 260.5399660355539,99.29245887898253 259.9856042933021,98.67861155581306 262.0639693066547,93.09352174221533 262.0480950310954,92.9726478600129 257.60628340443475,91.34881725768321 257.4660363644431,90.98549298322871 249.7072293244197,95.40548446126161 249.34510651554558,95.741638320476 253.63887959998794,102.56833966545639 253.68686651552673,102.73783187189076 251.9308658044389,106.4573272141057 251.92183639997495,106.48630211951206 257.87104884442635,110.31901592718316 258.02229136887,110.49906111873099 246.47608607108816,113.09815226797184" stroke="#009edd" stroke-width="4.937722468848968px" fill="none" stroke-linejoin="round" vector-effect="non-scaling-stroke"></polygon>
  <polygon points="304.81972852443107,218.86166444083904 307.74023113775877,221.5266762030002 308.291752986646,221.41262965766475 311.1383455555548,228.48145386666113 311.3174044711119,228.3972492804529 310.36604020442576,230.53478909171065 310.25732326220134,230.9989267891866 313.16297104888474,234.65877546442027 313.1359556533058,234.74319969992905 317.58519469330315,232.6807329093059 318.81748994664633,232.29472856526957 333.74127504887986,233.93864054707922 334.4256893422058,233.55184223046638 340.94557471108385,239.44379250409077 341.16490185776604,239.44000751063106 340.7082615733158,237.558832932678 340.58716560886353,237.4741836973186 349.36513026664727,230.46836866482738 350.29151803555544,229.2000555108167 347.88896827554674,227.53144873135136 347.8495010399853,227.50506264794205 349.54360663999216,226.9183704882813 349.6016424088808,226.83863768274716 349.1287637599813,224.56889934276808 349.17798857775745,224.31408703418094 346.30918658665144,220.22923911177315 345.9541999199788,219.83683512372193 349.0006772888661,216.8494228307751 349.15905595554034,216.47535356955598 347.25530797331123,216.50484317291523 347.1872961688856,216.45986291541305 348.13938861332247,213.08738431387576 348.2930341244279,212.60014184812428 339.0032333066407,193.39841498583667 339.07525008888445,193.04771622816736 330.2526481333258,195.2023825679422 330.1338823377515,195.21213978512208 331.30464656887455,193.1234811281971 331.21180390220945,192.89721927030007 329.8646750133263,194.09544352492196 329.8197464444453,194.08212751728536 326.92043380442885,189.8716936909692 326.83494573331666,189.5123617977148 323.189396506648,198.14622715589178 323.07223270220095,198.50619027193864 312.58173954665074,195.84486285541027 312.1934023377613,195.70757451747306 310.8918573777552,203.38485409480165 310.79777680888185,203.7142527461325 307.0368842221866,204.66329985096638 306.96392080886983,204.67603939506046 307.2089526310807,217.2696165601443 307.2317445955483,217.37437762230513 304.81972852443107,218.86166444083904" stroke="#009edd" stroke-width="5.880108142555495px" fill="none" stroke-linejoin="round" vector-effect="non-scaling-stroke"></polygon>
  <polygon points="180.21198111109663,299.42796499291546 187.4380532888532,304.74533118919464 187.98214772443282,305.2276190882327 183.54681687997765,310.434794171371 183.3658647022163,311.0328363012592 186.61266377775576,312.78167924362754 186.88922569776298,312.7640398998989 188.5250770755589,318.4667459860426 188.78685698664742,318.80987416365645 187.58179558220547,319.45546690315643 187.89665965332063,319.82996900330875 199.4776718488789,327.54379155699974 199.89207782221604,327.55787627262873 203.98319903109916,337.83999909897796 204.28830551999965,338.14900157626073 214.4674298577662,340.2981170434865 214.77726950220642,340.4324053032393 221.1542135733249,347.88024494954846 221.39480351110217,347.9813190702331 223.52501478221495,346.68577033546865 223.63977560000023,346.4485892943409 223.6461835644219,338.15048991292826 223.88546278220713,337.6335766750341 229.67644219552278,332.379557282016 229.73760912888213,332.1708240068907 232.18181065776264,335.4177202759962 232.21690882664518,335.8437478744087 235.14243586664782,335.05866834134906 235.24052141331015,335.0642785461747 236.02578832887923,341.4534659957932 236.22086715556327,341.73108035208827 240.33594541330933,341.1164345276553 240.47874107553037,341.1374990559631 240.84392223109137,335.54698296846584 240.9567169688886,335.38634912421514 236.9750408799806,335.24208738904383 236.89071789332195,335.10515287797136 238.62611117331073,332.8312565364246 238.8596377866412,332.560924432291 237.5932638133014,331.5242380887281 237.2280098399857,331.2479453425982 239.91447611555452,328.9265953995415 239.97484205332114,328.83865397582815 233.44811181331863,324.2997433225752 233.32133606219543,324.09991118979053 237.8199455555365,305.8078481134504 238.01109222221532,305.1815670804132 244.3620403466408,290.34504995661666 244.79188368886355,289.2798225478688 236.90091238221032,280.8250957009219 236.6988430488924,280.57421617165494 235.08345346665703,274.13300968643273 234.99905766221457,273.897229400092 230.04875949331438,272.46785386105296 229.7967371644114,272.4085918453999 229.14589186665364,269.51911718631857 229.2267195999808,269.17246613337886 226.35544180442923,267.8523288605571 225.99725115553122,267.7795346632553 220.90561367999874,275.7482546423922 220.3535092888702,276.53408158900095 223.23141350219487,277.69641055406066 223.63285791109195,277.96575646437816 222.03749321774342,283.26105358353345 222.00254068442848,283.61517804885045 217.78733798221913,285.39940287105094 217.75216699555278,285.4303446534392 214.91729808887578,291.07004803853454 214.8061053422058,291.25968952273945 207.08873161776103,293.2187445027881 206.99202960887453,293.27718161974155 196.99516816889047,282.3560200919525 196.5832379999698,282.210356073621 194.02136294221384,287.7536780966399 193.7517187111149,288.06090436370107 195.28402320887074,288.92298500473373 195.2717898222105,289.1292497679311 193.2228431910986,290.5687267103418 192.884167706659,290.5380170469358 185.39922832887498,283.67087508360385 185.03768806221308,283.33829646415654 192.90288187555382,297.4998408331227 192.8984399910911,297.9762356244679 182.4493073333357,295.87963173498395 182.41129645333388,295.8784859649528 180.21198111109663,299.42796499291546" stroke="#009edd" stroke-width="5.59432552781718px" fill="none" stroke-linejoin="round" vector-effect="non-scaling-stroke"></polygon>
  <polygon points="8.052549999999997,272.79602899154236 22.3835255733062,279.55017092616583 22.755988506665403,279.8551516236545 19.0532045066426,283.2438630164321 19.02247540443898,283.3833356596366 22.275900897780616,282.012201951649 22.366413395538643,282.1229116316314 21.40514591109934,285.4874150056054 21.40114093331033,285.82754388629803 24.4472542133077,302.23679191483063 24.512935848884467,302.42020780622954 28.74881880000578,305.1812234085588 29.267645466643103,305.60645836985316 37.100144097763064,304.4853979926771 37.78230103999488,304.14504285131227 39.74758004441503,308.2059092661581 39.78515401777224,308.5040843631356 42.97916020442028,305.892963120779 43.14809744887282,305.8425585565925 50.582282835537285,308.1673056085489 50.69172795554152,308.2178225555177 54.45414971552202,310.1430443450878 54.52696749332938,310.1774083640263 55.91771423110151,315.59656984436845 56.18029513775366,316.06398601266085 62.29021641775728,317.84015349648655 62.40381215108903,317.8729091968049 62.88921545775486,320.3834714844485 62.86664194663865,320.58686762022955 60.75587302220049,322.5153135625511 60.74800870221918,322.6679692403628 66.16426783111058,324.1498406629613 66.30793730664993,324.51835539425485 69.10676141331317,322.3283011806558 69.16523408887554,322.3225751330243 115.65690939554008,348.4797044406947 115.73373215107824,348.6125987993215 127.32952635555523,346.4071511871367 129.32801026665368,344.6932798863196 130.38190196443577,338.5815333856805 130.58491792888492,338.3994995096069 127.52089147555637,334.6761425949295 126.82074854220957,334.0301591199601 132.75372262221174,334.482417060011 133.01157037332416,334.54916772165564 132.1267615555331,329.89875082523906 132.256959742204,329.5704642518609 139.68604788440973,326.3897484871919 139.8486499822244,326.2885194816405 138.02995316443378,325.2866398368857 137.90689111999347,324.9027852691721 139.99457680885791,322.24206683925115 140.1615479733224,321.6659079685411 142.71956368885697,321.4073158844327 143.59330420441222,321.91613872341225 144.59869926222711,317.67477126593406 144.7137513511185,317.38970333862346 147.30875849773986,317.31846475476743 147.65071078218864,317.26818537621114 146.68609367998545,312.76541439443065 146.9446696088777,312.6312864724965 151.21128166220262,317.79903704737774 151.23094246222865,317.81140634454607 161.08333343110974,314.7480863540328 161.28554839999526,314.6517606450576 161.30258775997902,317.3073551922349 161.34402107555763,317.3982931936695 171.1099045244406,319.59450254226215 171.31634292443744,319.52864962761635 173.9221271022176,321.91018358848635 173.93829264885392,321.91900176884485 172.36105958221708,324.4825117783545 171.85053414220567,325.35992918193335 182.0102161333267,327.7179608312505 182.6360849333356,327.49054442822637 180.53427259551938,329.12182942912443 180.9786066755256,329.6376790003484 185.7392873510904,324.75402943987103 185.95810477331509,324.3747517548105 189.90096898662853,327.8534254344046 190.0260699288698,328.34867563803675 193.24002818664997,324.4434616777504 193.54236759996968,324.5246537907584 199.4776718488789,327.54379155699974 199.89207782221604,327.55787627262873 203.98319903109916,337.83999909897796 204.28830551999965,338.14900157626073 214.4674298577662,340.2981170434865 214.77726950220642,340.4324053032393 221.1542135733249,347.88024494954846 221.39480351110217,347.9813190702331 223.52501478221495,346.68577033546865 223.63977560000023,346.4485892943409 223.6461835644219,338.15048991292826 223.88546278220713,337.6335766750341 229.67644219552278,332.379557282016 229.73760912888213,332.1708240068907 232.98287903110725,335.93694454193576 233.17176834666282,335.99945720435755 234.32381840889104,344.94397644871026 234.39175739556197,345.08237418998726 232.545535457764,344.64314043435263 232.37179223998794,344.7083903969684 232.81933030221956,348.10482841308806 232.92739188441885,348.3600877920759 238.63521339552938,351.414636365858 238.651014853334,351.65774748595834 237.28677378665418,353.42553535626905 237.24111703999336,353.607175290446 229.48602370665287,351.84889340896154 229.4763389421929,352.0984122199221 236.2748979466338,355.6767058059992 236.4828655199741,355.59830727124756 235.16144130664873,359.3710363595088 235.10755615108758,359.4473694629338 236.9897500710864,359.2846321919129 237.4478467110963,359.28508996268613 237.71093734220597,363.2781915570446 237.5478983377467,363.95231950600976 239.0642557422176,364.4084468065481 239.1166117244353,365.0895409236906 250.4340235644264,362.2152013885858 250.43868390221144,362.093440819364 255.9242655555496,363.99305757488 255.97443700442784,363.9951173640653 258.55626413331595,359.83898977749743 258.6696414132963,359.8007662947999 261.11493520887564,363.16318501631724 261.3480249155615,363.5934569892048 264.56649787553,362.53836908881897 264.90014893332375,362.49534120616556 261.78937346666464,354.08856966958376 261.5334917955403,353.85233672941797 266.2868906933069,351.27110414622405 266.742584346655,350.8469149929075 271.427971439996,357.12299532100553 271.6973972177726,357.3831333444756 274.6358858222153,356.96597343593714 274.9492935377708,356.6785947381064 275.39413734220545,351.14416823742033 275.2955420710856,350.9747672817681 278.5613465866551,350.1302727090293 278.72125442664367,349.79386763311743 277.07812127110776,346.8500336224748 276.99947807109095,346.6139979969954 281.4079391555348,346.1048351955611 281.721783777764,346.1337962478789 283.8734034755395,340.6888457252131 283.92058939554374,340.58626970236185 275.6419362399971,338.19159088627896 275.5979543022182,338.12736344620464 271.2619469066336,317.1980919503909 271.2342033333331,317.1215846432675 291.45271469330294,312.23840772352526 291.82576016887435,312.16338244814654 293.45301904888004,306.64982782179834 293.54724525332097,306.43641298166006 292.6499117777636,301.55261421595753 292.777270071099,301.48857235708385 302.49815213331715,304.6140473246411 302.9537001510977,304.71039092480316 302.4365482933132,294.21675011778245 302.65136073774886,294.0337647047196 300.6223661777691,291.7744109698466 300.2354853244102,291.4213712534471 301.2814398844272,288.4212999774969 301.4862034755421,288.2167514106037 316.2612946755322,294.8275754603161 316.51542871996173,294.8976979053183 317.35712941332133,297.8999302477092 317.3446047555259,298.0539157622039 314.56019856889145,300.2221547860023 314.44085023107584,300.19580418663793 313.888891475544,304.38195133532975 313.92398964442657,304.60705925658806 324.8545934488717,315.1459864527784 324.9702280800044,315.05699177997997 327.4553531999769,321.7444702433346 327.38530249775033,321.8560147347231 339.5159432799916,323.3783335394179 340.25577190219303,323.1286821493046 343.8605431733082,326.8739045033359 344.0203781955421,327.02437216441433 344.1621544088772,325.2718674412241 344.11620639108116,325.06127447833535 349.46095846221544,324.9114884458901 349.94126452442254,324.7770471123 351.2885390488733,318.19485315299937 351.50866719109,317.9448342313477 360.579796222191,316.3527260072948 360.9524047910887,316.24976019646385 363.0930290044413,311.5229716226819 363.1084663733269,311.28701079350833 367.77703255997733,311.9088684480881 369.09969467554004,312.0026791033375 368.6293646488699,315.28938554003946 368.47783085332014,315.6282960880268 370.54578292440385,314.1066753074916 370.6266106577601,314.02306223527523 370.5925319377635,316.05058550739307 370.49044141331217,316.35432947776974 373.77576109331096,318.6685459324141 374.14480159109337,319.0395031193399 376.2915424977615,315.7176334250613 377.0508862844214,315.7372188984515 375.9490804888552,320.38026478247014 375.94267252443353,320.4977673801692 377.8748922577721,326.27294577164105 378.01077023108485,326.4257053507969 380.3632213599991,325.58953031496605 380.3697749599884,325.57189515030007 378.73647220442183,321.37135568266206 378.9772805955505,321.25923757511885 382.97657858665445,320.15716947895237 383.56072279997863,320.1452588208555 386.1783034577744,324.2492414034856 386.29160792000005,324.31852406956716 389.55471817777254,318.95314900307096 389.605836257782,318.7910915026656 413.62711042664125,315.97361843843066 413.78789207997727,315.9651428913709 414.04756027553924,313.7181597720552 414.0606674755469,313.4803758910199 410.7448371466377,306.6545245425583 410.648207955535,306.4763925300864 410.6147845955344,301.37538190928865 410.3919621955207,300.98196306345164 395.05377112000826,284.4131529235816 394.3876340888743,284.23082191787364 393.3310481333243,277.7028290254308 393.3343977510882,277.6024257076275 383.6864062844321,274.74062346468384 383.3649886132986,274.7908278062456 391.3380983733292,275.5367808823718 391.36955565331266,275.37402002637793 380.59288863107906,264.99069790120814 380.1875120622059,264.6148983905365 386.10570413331845,257.2685131765098 386.1073789422004,257.249709110714 376.91850356444013,255.0866245577705 376.50176742222504,254.91703690129327 369.5416985866392,249.2177105530933 369.30212809774787,248.99042222194078 378.44301655996935,232.041558690216 378.9145844888768,231.67757472809865 376.64339799999254,228.56519944205468 376.5717453066387,228.46952297958308 377.40405250664446,226.9541641698812 377.65257958221594,226.48586162666436 385.9992445422173,214.7548310805356 386.40309193774704,214.25245662805503 391.26826612442494,211.38867231339793 391.83908468441916,210.9297595895256 381.78760991109414,204.11664432902 381.7562254488654,204.08714795720118 377.6694733066321,191.75005361022306 377.62286992886914,191.61941316429113 365.07309001778015,184.69088366283506 364.8855842400004,184.5873220918071 370.652606604424,174.16550876609801 370.9346298577508,173.7973447076289 378.38650996442414,167.41999088123669 378.52915999107756,166.98080301055563 369.75614694218496,158.31828602882854 369.2727825333201,158.12404170103366 365.16971920888284,136.76312159140764 364.91725997333526,135.4989245594403 362.47677215110855,133.33474718986656 362.30484937775293,132.89608616772568 365.7789855555526,120.24520812252706 365.8909792977571,119.44066417212127 365.1638937866443,103.75235922254035 365.172631919973,103.36186676627369 360.3556631021853,98.77980829860428 360.14114192888485,98.50864659895126 361.38108304888704,91.7105289253301 361.6551691644196,90.58513186922175 370.6029448799742,72.78094998980635 370.9431495377572,72.374010675259 370.31036304886914,68.1950251568702 370.2015004711062,67.4480409312306 365.32358317331057,59.78717296041543 365.05459430220765,59.47680286170328 346.5937584622076,47.04326656056912 346.09816066665337,46.401773392142445 343.59453983110836,40.498710775783934 343.31040486219683,39.78046835713724 343.03202249776916,22.614284252521998 343.22222253331677,21.173166931599212 336.2392889155377,23.53854137368728 335.2001064088905,23.957595661987966 325.95246708443267,8.964386397601288 325.5110457155457,8.052549999999997 318.30820240887226,10.1949263736675 317.23057211554953,10.290184637451262 320.9852751910872,21.768320584356502 320.9695465510955,22.630867126564794 315.6915683822077,34.99232457791334 315.63265879997164,35.22247375794507 313.98632166221034,44.92721949250665 313.62842228441843,46.76908182740556 315.5351557955215,49.57670431066765 315.1050211822218,51.56780377917278 304.31298960888637,56.05536326414551 304.1548293955344,56.23478421333823 284.8833132355427,54.23706683668536 283.7403653955331,53.75863026704576 279.17083138664714,56.42974125754665 278.64239277333365,56.52906089724968 273.49381179555314,50.958707112389334 272.2149131644179,50.40600232553663 271.4056163822021,51.358211769030845 270.5380653777753,52.356557616185114 263.8952635999955,48.2012269937328 263.7132919733191,47.69223393276445 251.91885087110097,48.5502217181853 251.75734103998514,48.58452252884274 242.69094516442385,41.63620574179333 242.06886288888165,41.47906916656177 237.97417360888323,43.31460298227432 237.94854175108014,43.46586337462179 234.3854222488659,41.6198589545744 233.80535583108542,41.84054016315315 221.69961872886745,49.29182800095407 221.19003991998727,49.90830994799728 221.17766089775944,55.83520062876744 220.82099942220486,55.87087785499864 225.10188375999098,59.48785054885195 225.70918402664358,60.10732296499884 222.5543538044218,63.711813755311255 222.52602768887994,63.72872919572512 227.0691288444283,69.6249901033367 227.1063387288665,69.83474118442211 226.54513211554843,86.98128792827595 226.53115110222245,87.19821778589505 228.67578029330582,93.39162248910691 228.6897613066609,93.85521647851385 226.37808813332924,105.75456600869768 226.25611835552957,105.94347997519765 227.0098551733023,110.0549255641887 226.92160002666753,110.12494355311321 230.66618143107155,113.9246340079477 230.70368258664496,114.02511235420354 229.0398691821971,116.58299346426031 228.96290079109133,116.68806517669111 230.68846367108165,116.83486634008989 230.8316962399764,116.93821319973324 227.79344727998944,121.48493408645265 227.76745133332554,121.5224070468463 229.0731469066592,131.7248885775549 229.1480763999931,131.90624141423143 220.61659991997988,136.11396166845918 220.58674463109458,136.12441907733557 210.69248343996117,127.5695809379173 210.67762861331687,127.57210950350384 207.20764304887382,129.45585790524603 207.03288038221183,129.5518250219826 206.0889435288624,135.33298285242165 205.91534594665393,135.5122550345328 199.58762669331156,136.66992527632794 199.48677407109756,136.72198193087354 201.14483487109067,138.10416540815606 201.54897353775561,138.77168712800596 198.82973926221132,144.96457102054376 198.8285013600031,145.2392908072867 189.13113943997416,144.28667011904292 189.08220589333325,144.29632164928591 191.2078296444157,151.65568521861098 191.39147607997404,151.9982666790089 187.81990971553716,156.2741481928748 187.78597663107905,156.52824810376444 190.68041047998815,159.71105825316738 190.7346597244392,159.89254674853112 189.56993936887704,167.5630936882004 189.6429027821938,168.17443471190165 187.64769567110454,171.19979894794926 187.38329431997374,171.3907806419371 178.7092406310909,173.27805226718885 178.68593894219487,173.29596690610163 183.55861335999327,176.88003826322495 183.69288934220788,177.02931677329582 181.0933674933109,182.64303725789762 180.77588198218257,182.9337544320366 174.6085802933154,184.79869311377809 174.06725293331658,185.060351151718 171.55620468443487,188.83903856526706 170.50580823998428,189.0968884887767 163.54319078219817,186.7052429847605 163.50212155553857,186.69479537604605 160.1471880799869,197.06919307384635 159.91803053330625,197.1667617913987 143.59010022218683,188.23401632102434 143.4883009688707,188.0316136272519 144.09064962666127,191.29361425972422 144.13703455110192,191.4969231091742 141.95490420444514,192.831096904432 141.96721040888917,192.99835419060366 140.12608571554995,192.34998537590548 139.63507543999697,192.12636061410706 139.85287341333571,189.78478840130958 139.696315191111,189.38068270617043 133.91647689775675,191.11682333326428 133.55784934221413,190.99777612987202 132.9683894310798,192.71756369484467 133.80193453332288,193.89180008350343 130.1188113333261,195.45928376852646 129.8616189422097,195.6576409634505 133.6688236355327,200.82419881370845 133.7618119377654,201.01656781443273 130.84065396444169,204.59030564846 130.73397591996002,204.66984177940287 131.67441751997796,205.94504359854147 132.01666107553285,206.375880784915 126.71042960888701,207.97811964606046 126.3373841333156,208.06430706571666 124.10377161775943,206.0198722538113 123.9685490044136,205.8225860508752 120.33006310219173,211.71928443863692 120.1610530399845,211.90507356414275 115.93004887997051,203.1207598565885 115.49860354664963,202.93425184769842 117.37009325330257,200.0371545380109 117.45026562663372,200.00294993271348 113.53645570664196,196.56929411291605 113.48642989333132,196.4549652499187 112.50178790221219,198.94466250808148 112.47775803553634,199.071382616508 106.38261876442232,200.17971175348032 106.18761275552208,200.28496510814114 107.31381250665402,208.5803958326502 107.18179387553357,208.89335186107894 104.93055945778144,207.8073510898754 104.6126370399794,207.57495349732164 103.68362783111627,212.5328960753319 103.55131792886061,212.75815760915395 97.85594825776172,213.9189912417711 97.70528827553028,213.9780879762326 95.7836999377538,213.88410692543368 95.60580610665022,213.83166565746762 95.81901655998774,208.4050386729865 95.75471846221592,208.33124619007106 97.92541641777609,206.28877253150097 97.89912919997698,206.19087599989837 86.25199846222642,202.53781976068387 85.87159839107301,202.78906209005038 88.79727106664325,196.89517595862674 88.73362832886744,196.71656677929388 84.74925798222068,197.20751102708857 84.50648351110397,197.35707767637325 77.65811714664562,208.01656544945547 77.46500439997874,208.31632701331512 71.18498079109816,208.3139169920829 71.16102374220611,208.3078345570026 66.8360118310735,199.91537227069023 66.69947849776474,199.6495393358415 65.25950694221649,204.99073961080978 65.19134950222326,205.08485091629666 61.60237968885451,205.1061980920564 61.252999991098136,204.82260132118938 60.073570444430175,208.79052529134026 60.19626839998057,209.84563594226313 44.92732703110198,207.64725507776132 44.84045542221395,207.6796186109783 45.61246950220777,210.42838236410864 45.61494530665334,210.47887604698883 44.382140328881746,210.5567968876636 43.546556328866814,210.35172368254973 42.42734708442697,215.93937435278315 42.30807156442427,216.28774423708785 41.017230817764016,214.68529300430203 40.624597359979475,213.56957330523403 38.39156738663553,216.42130837917614 38.00184663999937,216.28969491853024 39.896638035548335,220.30657219285024 39.995378942206685,220.51424653603283 40.097469466658026,230.1403951000899 40.03499181333575,230.25430849474617 35.13005911999028,233.37186306561455 34.468363973319015,233.92567848938745 31.221419262211953,232.69185988810898 31.06704557332671,232.80140888691642 33.29352194665228,233.27091846583755 33.468575884420375,233.6320239596895 31.450868079998713,236.07206107085915 31.168917644426642,236.31293878489635 33.034217839980215,237.30912877681078 33.212621395541305,237.66160472570448 29.052833022207437,242.05858609671816 28.980379333319092,242.6374295496131 23.314063955541883,243.0037481169635 22.189684648859497,243.16270712295193 26.857959564432917,251.98293707907544 26.97468646220625,252.28944949142863 23.31959810664523,254.18570553279244 23.203235297761807,254.59872894950206 27.294283688861128,257.53004953507445 27.46045385776199,257.64379051111575 25.601634444442993,261.4214141866174 25.48825716443355,261.6577075311867 17.75748496887502,265.77885952428153 17.537648097764418,265.9135623600956 17.559493431100805,269.6629813054384 17.269824311085927,269.87791702463403 9.890980435542247,269.37892094700476 9.712504062197354,269.4223669177951 8.052549999999997,272.79602899154236" stroke="#009edd" stroke-width="6.111174465624261px" fill="none" stroke-linejoin="round" vector-effect="non-scaling-stroke"></polygon>
  <polygon points="248.82242050665775,55.00794270594599 254.43244774221205,60.951879215477334 254.93671085331118,61.47605210805307 257.83405741333956,60.49352583083203 257.95988653333154,60.595599844476624 255.90453193776887,67.84581247092103 256.083590853326,68.58324115032849 258.1559119910886,71.39640033418948 258.379826657772,71.47900949670986 261.00330555553194,70.39725664639957 261.1255666044086,70.5683457849442 258.44026541329333,73.83976016220515 258.41172084442917,73.9992184161307 259.7388248444255,78.85786697225524 259.63309343110416,79.0689625788142 256.0222054666443,77.83263229934494 255.82093712889002,77.90901939717116 254.18974608887913,82.5652067742991 254.19433360888036,82.79032155968127 257.4660363644431,90.98549298322871 257.60628340443475,91.34881725768321 261.831534959994,92.55723526783515 262.0480950310954,92.9726478600129 259.9883713688538,98.20735422177643 259.9856042933021,98.67861155581306 262.6064617511071,103.1128056127269 262.6224816622049,103.29206996625692 270.1928362933173,94.77560721705197 270.4123818933218,94.59803961634282 282.3619976799888,92.68949599202426 282.51287611554255,92.57782195840957 286.63625560000185,93.10824280544296 287.0620211466518,93.05165869664745 290.3629238311038,100.4910394506511 290.27940183997964,100.62845536108182 292.2861141599784,101.07761320708198 292.55270004444867,101.25619438305841 314.6132099111052,96.87704774586712 314.9578564533218,96.83173762835906 325.39359063999257,92.62486079170014 325.8125113155471,92.28040677111824 322.30822857778514,81.61389374716202 322.28317926222337,81.08968663603412 327.87718658665074,61.803326735483665 328.0180889866675,61.5078130239923 327.76206167997555,53.71972905538098 327.75820233775414,53.7063783372065 339.70803657777253,47.20337966993213 339.85811401776266,47.10185581251392 343.2497476533241,38.220540391535565 343.29263732443326,38.2231882780103 343.5110906577389,30.205136831594814 343.5391983199876,29.096301838267777 343.03202249776916,22.614284252521998 343.22222253331677,21.173166931599212 336.2392889155377,23.53854137368728 335.2001064088905,23.957595661987966 324.6947584266378,8.212894255040396 322.7127313333109,8.589793525963273 318.30820240887226,10.1949263736675 317.23057211554953,10.290184637451262 320.9852751910872,21.768320584356502 320.9695465510955,22.630867126564794 315.6915683822077,34.99232457791334 315.63265879997164,35.22247375794507 313.98632166221034,44.92721949250665 313.62842228441843,46.76908182740556 315.5351557955215,49.57670431066765 315.1050211822218,51.56780377917278 304.31298960888637,56.05536326414551 304.1548293955344,56.23478421333823 284.8833132355427,54.23706683668536 283.7403653955331,53.75863026704576 279.17083138664714,56.42974125754665 278.64239277333365,56.52906089724968 273.8470508355309,51.39918643810199 273.49381179555314,50.958707112389334 271.4056163822021,51.358211769030845 270.5380653777753,52.356557616185114 263.8952635999955,48.2012269937328 263.7132919733191,47.69223393276445 251.75734103998514,48.58452252884274 251.61206957331854,48.62216131270509 249.42287590218587,49.85501837789309 249.1482800622249,50.202390990459776 248.82242050665775,55.00794270594599" stroke="#009edd" stroke-width="5.920539082450078px" fill="none" stroke-linejoin="round" vector-effect="non-scaling-stroke"></polygon>
  <polygon points="118.58068880887697,282.330921441731 121.30043280887878,284.8705248506809 121.39895526218572,284.9988770886772 120.000781111106,286.98761021396024 119.8297321510978,287.16420214315406 127.68152749329568,293.12810955520365 127.76869037331892,293.1748593322478 127.82272116441857,295.7476388673018 127.81776955552743,295.78636597475963 125.03423718221131,296.8007084053312 124.6391279199812,296.7785954163188 127.96092930666748,298.1360641049465 128.26778342220462,298.2364292747294 126.4826555999822,303.7067365060426 126.53588539554733,303.9639240109897 134.6560142488812,303.00275821117214 134.68361218664324,302.9986339825915 138.26063988442877,305.4736873605358 138.44996610662895,305.5102309236896 137.8703365955513,312.94581649720897 138.12498036443833,313.1054861734807 145.33750843554265,311.82181567975897 145.75424457775773,311.5692473149462 151.21128166220262,317.79903704737774 151.23094246222865,317.81140634454607 158.7685290933365,314.6703156701184 158.81607910220157,314.49679157586763 163.09150210666814,318.0540959637216 163.5853522755275,318.2105437201459 164.37236681776233,314.35991904250807 164.63436518220226,313.48255214514904 163.37760315553862,311.09308687483247 163.28971209776466,310.89183136939357 165.77148759997328,312.62475760700875 166.6329947288683,313.1232399462384 167.25908198222862,312.0551396918087 167.38032358219027,311.65962225318765 165.3025411111081,310.8548332637944 165.34222679999186,310.7795769770379 169.81221890665586,311.4155293922737 170.8712806666514,311.9487294057395 170.78135071107647,307.61894741138497 170.424325146632,307.35879892999185 173.50779394663516,305.6284531906491 173.65182751109353,305.3237324806465 171.0134209688764,302.36808155436995 170.89836887998501,302.2844503199809 170.2941269599902,292.17477194670175 170.33359419555165,292.06958294472827 168.7257048444368,290.7200975946977 168.47841567110265,290.48496262465017 170.51949798220414,287.876752163436 170.58241254220013,287.7663980550784 169.32666996442242,286.7618559013132 169.29171743107838,286.742603713246 161.78536962666078,288.7662232580984 161.69573094222108,288.9206931696168 150.00636589332828,285.972281369082 149.6574231022165,285.97331275119325 147.25312571554207,289.17290904182994 147.16632692443784,289.3310446992906 146.92187764443918,295.49006852354034 146.87294409774006,295.5143590176373 138.21978911109147,290.17786472915725 138.10007668444416,290.06728614166025 135.20571565331886,281.0155754060612 135.10748447108892,280.794953544049 136.52459124441486,278.2683392045798 136.5782579466537,278.2444994138274 135.64407867554803,274.508399122518 135.68543917331374,274.325346950856 144.91734985777987,269.82220576833754 144.97363799997368,269.7995085733488 142.772502213316,260.38393544487883 142.9810523288685,259.36558407473024 140.64076176888886,258.4814762492239 140.4963641155406,257.9672401027416 132.88843551110006,261.12320844663884 131.99015540444054,261.4310447943641 133.3077930933283,265.77759847485106 133.32308482664632,265.85360530953733 127.84733357330663,272.19286380407686 127.6526188355416,272.6569875187921 130.5769807910907,276.0545176121592 130.47503590220697,276.1723458670964 125.63454694220093,281.21866133154947 125.27111341330567,281.5273000490048 118.58068880887697,282.330921441731" stroke="#009edd" stroke-width="5.34186363088863px" fill="none" stroke-linejoin="round" vector-effect="non-scaling-stroke"></polygon>
  <polygon points="171.5538745155278,188.80425284011983 175.45523259553704,193.00524191949046 175.591401839985,193.58541512670456 173.21018768888428,201.6609301051427 173.2224210755445,201.75676886953408 178.47207312889043,208.61367690464942 178.541759742198,208.85823477333872 177.50818420443795,210.20678339279368 177.36567981332303,210.40015178446595 178.70756582220895,211.57997086388752 178.74404752886733,211.60062693554903 175.3084319555561,214.79166556979874 174.84035927998013,215.02013064100868 182.10910267555266,218.83263508711354 182.12104479107768,218.8667130225 173.3937613066588,224.5935659364692 173.3419878666533,224.67961210523902 175.87284255109955,233.5588394962757 176.03478928886,233.8574268954468 174.9206044710951,237.0078076172573 174.86773876441987,237.09142526787002 182.0951944799814,242.26640617592022 182.36935341329774,242.5242304164782 193.55547479997733,234.0043684553308 193.65712841775496,233.94265534305998 203.99099053332577,235.21567474454753 204.42644084443566,235.29115107423388 212.01507273774007,232.7395796887355 212.3327767022198,232.75185376525735 211.393645822223,230.61279570635054 211.99672265776428,228.9117670791817 217.2354520444129,223.44592638954748 217.24921460441658,223.4209150791063 211.74324397333078,221.58083101741033 211.71943255997724,221.3627198764367 215.7265220533078,215.81946390876658 215.89560493332795,215.44687923149434 217.42557926220582,208.52370320069133 217.46329887110153,208.36854411394563 212.7943685955321,205.0293023119226 212.75053229332082,205.01403791268933 216.0764114755508,201.3110884764243 216.09053812441527,201.29593780346443 210.97152116444306,200.80640808985447 210.6338651288603,200.73501557776 209.48523750220886,195.81203306723148 209.44052738665016,195.79596253428429 197.51173748440453,201.97587745334715 197.36632038219943,201.9124060693208 195.19824386665243,198.7274929347692 195.0438701777672,198.74666174305423 196.5975831022148,194.990019168799 196.88732503998438,194.5028428948059 195.12069293333445,195.04729997335346 194.89750644443086,195.2363606342475 193.38464429332055,190.57014538859187 193.58707771552838,190.3102360824629 185.74169033775217,183.77880019996485 185.48646402665292,183.45111690372107 179.69373698664242,182.78621451374022 179.4659629777667,182.86050120005496 171.5538745155278,188.80425284011983" stroke="#009edd" stroke-width="5.266192139286494px" fill="none" stroke-linejoin="round" vector-effect="non-scaling-stroke"></polygon>
  <polygon points="43.13346107555083,248.9643906517082 59.38347636443325,253.86154529749876 59.58022999999923,253.94983816138813 58.83923629331514,255.3350998987222 58.77217111999164,255.58999519595056 61.23610626665288,257.75936577372306 61.682552062185664,258.13314915587364 63.394498017769024,256.2262535566184 63.4756898399861,256.06595705831535 60.95029648888851,252.81600921549364 60.99020063109458,252.75684030392551 79.78323117329967,254.87862447783812 80.08862893333537,254.8741525819711 81.59064123553219,247.16290670674755 80.6671661777724,247.04512983446295 82.68662160885981,244.44319316086296 83.08668247998105,244.04110202444247 80.30096557332547,245.89303599834204 80.17863170666499,245.96803867430538 80.94110665776645,241.91602472999477 80.65646196442651,241.4364973708067 85.84938896887581,239.7222755368781 85.95635828443449,239.56147125905375 79.97692646220787,237.50033550777118 79.76400727997645,237.48634199673654 84.78821549332463,237.14189402037994 84.9438999022019,237.09199877668982 83.15352919998224,234.92053604739306 83.01888912887773,234.28781197401224 83.5876687911001,226.52899794452935 83.52351632886678,226.27821025253036 74.27798871996458,227.2221571345359 74.05101570665249,227.3193272002169 62.02392180442223,239.18859159394162 61.9631917777657,239.29548938039045 56.558000951081,235.2527246885653 56.21189805330471,234.8927770974475 54.410167777772244,232.31354132238596 53.687888239982954,231.6266420145472 54.31259195553832,228.09622254680255 54.02554427553662,227.4060573591047 52.20655618666899,227.08219522133697 52.04351718220971,226.99603815828561 52.46687974222698,229.7777749293233 52.47204980441131,230.53042989521748 48.73067238220358,232.1758868505782 48.52263199107949,232.09260572476308 49.24818832887797,235.52778818384797 49.30804454221618,235.69514264404245 47.4385937333351,235.46194742472255 47.02083814220498,235.3599743831943 47.31072571554216,238.785543744954 47.288880382205775,239.27312344473432 44.7492875644308,240.16201888418402 44.22732973332279,240.23576787426248 46.69053670220421,242.9944582904351 47.028119919974074,243.78305565065932 43.13346107555083,248.9643906517082" stroke="#009edd" stroke-width="5.910018657713412px" fill="none" stroke-linejoin="round" vector-effect="non-scaling-stroke"></polygon>
  <polygon points="219.6524925422051,175.353010214974 224.09459543997184,177.06376560158208 224.36372994664237,177.1285293392208 227.1065571821888,173.5596329546603 227.34073915554438,173.47212720507343 231.8408778221998,175.92016757807107 232.25943440886442,176.15878758223664 237.85424272888451,174.18273409721553 239.3622260888875,172.86555457754696 240.54602470220527,164.57175260407496 240.56743312886795,164.3384796031529 237.8719374488643,157.21472542256345 237.88992343997927,156.91031470426935 232.54822971553187,153.3306604046735 232.53475842666342,153.33422168196523 233.2162600088701,150.77509612855613 233.36400727998227,150.5827776944858 243.90496315554594,147.89599219167542 244.0895562222064,147.89323479581037 251.9680028710933,140.87003478946974 252.63071746665048,140.72433320302628 267.54802178664943,139.62627293928347 267.73108567999554,139.62719221214468 269.42664763553296,140.8398143823648 269.6149544088763,141.0338911507057 268.0600764000043,144.71397847656738 268.16034647997697,144.93745514807927 270.8730999733158,145.3039778643066 270.9551656088512,145.42875587588753 269.5670403110922,143.7510074822418 269.4101179999776,143.46490492398846 272.288459119976,141.24612231758476 272.30142068441603,141.22670325799083 279.83449261330645,142.8769536577671 280.01355152886356,142.92682118216874 279.3787989599874,140.84475536263892 279.2039634755416,140.4470624563761 281.7986065333313,136.7308304079994 281.8767400088906,136.54110495048337 280.6667269955575,133.94877468953894 280.6680377155204,133.75237399072614 281.9973262488853,131.72822142985353 282.00176813331893,131.34494206406055 268.62222964442446,122.40818668052782 268.55458192885965,122.11990183583805 256.8863340355525,120.21313694745879 256.4119990310934,120.09634713081289 246.78760052443943,113.73931189873076 246.67058235553088,113.618944157795 257.790949288879,110.54585437465687 258.02229136887,110.49906111873099 252.13876055996627,106.56897249817087 251.92183639997495,106.48630211951206 253.6892695022176,102.93262076441135 253.68686651552673,102.73783187189076 249.86473417777563,95.83766546627851 249.34510651554558,95.741638320476 252.10875963554247,92.79875460637379 252.28760009774817,92.62095047461446 242.8049049866455,92.98863405029226 242.64973030219664,93.00324013365719 237.40386477331742,90.27631926858851 237.37619401777158,90.2635526760638 237.8278826933016,86.54086932264147 237.86771401778208,86.4616188964061 234.67028539555724,84.46939282873757 234.5607674577401,84.06334695762018 233.22514377776645,86.62288016358036 233.26504791997252,86.8117461697617 227.66375881777606,84.51862424484682 227.4791657510865,84.49239816895681 226.54513211554843,86.98128792827595 226.53115110222245,87.19821778589505 228.5482035466481,96.4025546262634 228.5967001866444,96.5231908153579 226.37808813332924,105.75456600869768 226.25611835552957,105.94347997519765 227.0098551733023,110.0549255641887 226.92160002666753,110.12494355311321 230.66618143107155,113.9246340079477 230.70368258664496,114.02511235420354 229.0398691821971,116.58299346426031 228.96290079109133,116.68806517669111 230.68846367108165,116.83486634008989 230.8316962399764,116.93821319973324 227.79344727998944,121.48493408645265 227.76745133332554,121.5224070468463 229.0731469066592,131.7248885775549 229.1480763999931,131.90624141423143 220.68199028442143,136.09109326173314 220.61659991997988,136.11396166845918 227.63470452442527,144.7037525296106 227.83036589332153,144.9142457887716 231.49979935109843,153.8180936876812 231.50285769778532,153.849915127597 229.90494438220742,156.78452939645615 229.85120486221388,157.01680121503125 230.51632244443283,163.64646488962865 230.5857906044181,163.90937409771834 219.6524925422051,175.353010214974" stroke="#009edd" stroke-width="5.263271802908278px" fill="none" stroke-linejoin="round" vector-effect="non-scaling-stroke"></polygon>
</svg>