<svg viewBox="0 0 50.600811747554694 45.703699092369064" width="50.600811747554694" height="45.703699092369064" xmlns="http://www.w3.org/2000/svg">
  <title>Liberecký kraj</title>
  <desc>Geojson of Liberecký kraj</desc>
  <!-- Generated from maps/2-geojsons/world/europe/czechia/liberecky-kraj/okres-semily/okres-semily.geojson -->
  <metadata>
    <collboard>
      <support-module name="@collboard/map-svg-geojson-import" version="1.1.4"></support-module>
    </collboard>
  </metadata>
  <polygon points="2.527235142496471,29.001583041650715 3.9603326998270916,29.676997235113063 3.997578993163012,29.707495304861926 3.6273005931607316,30.04636644413969 3.6242276829403695,30.06031370846014 4.166705563827242,31.945659333979542 4.1732737273849185,31.964000923119432 6.7802084260502005,32.53871070335136 6.791152938050624,32.54376239804825 7.79756744471652,33.97351149875159 7.79678101271839,33.98877706653276 13.28767108205048,36.56995058656595 13.295353357604297,36.58324002242863 14.454932778051996,36.36269526121015 14.65478116916184,36.19130813112844 14.474069290052109,35.18959440198943 14.404054996717429,35.12499605449249 14.997352404717645,35.17022184849758 15.023137179828888,35.176896914662045 16.390589510495015,32.99852158193954 16.41644710338424,32.98510878974613 19.775407402048412,34.63416308540892 19.819840810049033,34.685748042531316 21.04598296116147,34.16632631027152 21.076216902493442,34.174445521572316 23.837401499828964,36.510004637451324 23.86146049360669,36.52011204951979 24.68962436204875,34.959935870698075 24.695741055384687,34.93906254318555 25.58550148204941,36.863443779082274 25.587081627829875,36.887754891092314 24.67058251316176,36.90686948339263 24.669614036715764,36.93182136448869 25.628405716718234,38.16282482315129 25.633641314940004,38.230934234865536 28.17862993004947,37.97581705137838 28.21199503582885,37.971514263113036 27.900917489162936,37.13083710945485 27.8753293220505,37.10721381543828 28.35066921182716,36.849090557118885 28.396238577161974,36.806671641787226 29.185568724718003,37.41857748609019 29.216909496273555,37.38983961630712 30.109320490050422,35.79086471501779 30.114039082050848,35.78060711273266 29.286173766496184,35.541139231124376 29.281775572718296,35.534716487116945 28.848174833159835,33.44178933753557 28.84540047582978,33.43413860682323 30.867251611826767,32.945820914849 30.904556159383908,32.938318387311135 30.98697132027283,31.87724156409223 30.999707149606373,31.870837378204865 31.97179535582819,32.18338487496059 32.01735015760624,32.193019234976795 31.850124130939193,30.56411014024617 31.87060049005068,30.54365528355685 33.3481096100497,31.204737688528088 33.37352301449265,31.211749933028308 33.11086929005088,32.160175276029456 33.11437910693913,32.182686068155284 34.46751546249416,33.89642716682994 34.46051039227151,33.90758161596879 36.108034459827294,34.409370592830065 36.12401796205068,34.42441735893791 38.0312830429406,32.87427730476467 38.032826779829165,32.85068122184731 39.35113439227263,33.29374348500261 39.42706877093861,33.29570203234163 39.509469368273685,34.349274719660585 39.52305716560496,34.36455067757617 43.1267361700504,33.093796119702 43.128046890051166,33.07001773159847 41.0550849558289,29.492263045039557 41.05541991760529,29.48222271325923 40.09062077093969,29.196042488964864 40.058479003826335,29.20106292312104 40.855789979829396,29.275658230733654 40.85893570782774,29.25938214513427 39.78126900560438,28.22104993261729 39.74073134871706,28.18346998155013 40.33255055582832,27.44883146014746 40.332718036716514,27.446951053567876 38.676150001160394,26.64375119780581 38.652192952271264,26.621022364690557 40.84880675493897,22.860847373836272 40.90588861093839,22.814956101449038 38.22928914427449,20.191068508779985 38.21053856649652,20.180712351677187 39.56063113893889,18.463979230620147 39.57489614160423,18.420060443552043 38.69759483671497,17.55380874537933 38.64925839582848,17.534384312599844 37.969657357607325,15.055454861483135 37.952465080271764,15.011588759269046 38.2383695211609,12.097216064750512 38.23924333449377,12.058166819123848 37.757546452715005,11.599960972356905 37.736094335384955,11.572844802391604 38.75301644738339,8.541482658183497 38.742130189607096,8.466784235619537 36.38135598871723,6.42630679855339 36.33179620916181,6.362157481710722 36.025182392273386,3.9834085677486772 36.04420239582815,3.8392968356563983 35.345909034050244,4.075834279865205 35.241990783385525,4.117739708695274 34.31722685093974,2.6184187822566063 34.273084714051045,2.527235142496477 33.5528003833837,2.7414727798632272 33.44503735405143,2.7509986062416036 33.8205076616052,3.8988122009321273 33.818934797606026,3.9850668551529567 33.275495722048625,6.679650573563243 33.23248226071865,6.878760520413755 32.15327910338511,7.327516468911028 32.13746308204991,7.3454585638303005 29.639063281161185,7.364954268251143 29.58621941982984,7.374886232221446 25.991074658938857,5.88560071667581 25.928866431384638,5.869887059152655 23.89194201538322,6.651162942591885 23.8409841344952,6.712811137296206 24.428893026939303,8.684479152830148 24.432614015383123,8.705454260938689 24.62929483316239,14.894469000251968 24.636787782495784,14.91260428391962 23.783640134494462,15.333376309342396 23.780654605605932,15.334422050230035 22.79122848649259,14.478938236288208 22.78974300382816,14.479191092846861 21.604954068717603,16.218437244550852 21.60483027849678,16.245909223225148 20.63509408649389,16.15064715440077 20.6302007318298,16.15161230742507 20.678974079384176,18.478289511316518 20.686270420715854,18.539423613686644 19.592904205605564,19.049785369215364 19.59057403671596,19.05157683310664 20.0778414784958,19.409983968818974 20.09126907671726,19.42491181982606 19.831316891827562,19.98628386828624 19.79956834071473,20.01535558570014 18.07629922071629,20.39250444097253 18.07219229805033,20.391459680101082 17.736698950495164,21.428899449881115 17.713783195827098,21.438656321636348 15.113627832272147,20.833662475822905 15.077765076717885,20.82175775548368 14.88942189449427,22.316484502350626 14.923646250049757,22.35956822098798 13.754986452715645,22.89390858636017 13.738085446494921,22.912487498910753 13.075625713160669,21.378909553788084 13.070623131829604,21.367476667488347 11.507574968272644,23.11387926667359 11.4925089700495,23.119788940119737 11.51452178427408,22.350857395646575 11.51189306249417,22.341067742486317 10.347179988719114,21.975762118564866 10.309139981603773,22.000886351501517 10.601707249160796,21.411497738359152 10.595342975383216,21.39363682042587 9.487791857161033,22.523636687442025 9.468480582494346,22.55361284382799 8.405581325603823,21.7135173695655 8.391927992272946,21.68693407608063 7.729337186939489,22.601032671630506 7.741606982494528,22.706543736722793 6.21471284560667,22.48670565027261 6.206025684717867,22.489942003594308 5.561136881160024,23.364110980414093 5.522164806496409,23.350949634349504 5.731727089162274,24.73601965250547 5.725479323830047,24.747410991971094 4.05338653805066,26.022354954192828 3.9409486073824214,26.03825085479167 4.282143586940771,27.86412156115822 4.270805858939826,27.88775089561515 2.527235142496471,29.001583041650715" stroke="#009edd" fill="none" stroke-width="5px" vector-effect="non-scaling-stroke" stroke-linejoin="round"></polygon>
</svg>