<svg viewBox="0 0 440.5308296194779 391.5597030676216" width="440.5308296194779" height="391.5597030676216" xmlns="http://www.w3.org/2000/svg">
  <title>Liberecký kraj</title>
  <desc>Geojson of Liberecký kraj</desc>
  <!-- Generated from maps/2-geojsons/world/europe/czechia/liberecky-kraj/okres-semily/okres-semily.geojson -->
  <metadata>
    <collboard>
      <support-module name="@collboard/map-svg-geojson-import" version="0.11.1"></support-module>
    </collboard>
  </metadata>
  <polygon points="17.26135607196551,282.0048350635079 31.592331645271713,288.7589769981314 31.964794578630915,289.06395769562005 28.262010578608113,292.45266908839767 28.23128147640449,292.59214173160217 31.484706969746128,291.22100802361456 31.575219467504155,291.33171770359695 33.65606028527321,311.4455979867962 33.72174192084998,311.6290138781951 59.7910889075028,317.37611168051444 59.900534027507035,317.4266286274833 71.49902248972279,327.0489595684521 71.61261822305454,327.0817152687705 69.964679094166,331.7241196345167 69.95681477418469,331.8767753123284 78.31556748527868,331.53710725262135 78.37404016084105,331.5313812049899 124.8657154675056,357.6885105126603 124.94253822304375,357.8214048712871 136.53833242752074,355.6159572591023 138.5368163386192,353.90208595828517 136.72969754752188,343.88494866689507 136.02955461417508,343.2389651919257 141.96252869417725,343.6912231319766 142.22037644528967,343.7579737936212 141.33556762749862,339.10755689720463 141.46576581416952,338.7792703238265 156.51756456970537,326.527270826733 156.85951685415415,326.4769914481767 155.89489975195096,321.9742204663962 156.1534756808432,321.8400925444621 180.3187105964061,328.8033086142277 180.52514899640295,328.7374556995819 181.5698656541826,333.69131785032005 181.0593402141712,334.5687352538989 189.7430786674849,338.33063550109 190.18741274749112,338.84648507231395 202.44883425861548,333.652267749716 202.7511736719352,333.733459862724 213.19200510306467,347.0488051709435 213.49711159196517,347.3578076482263 230.36301964529042,357.089051021514 230.60360958306768,357.19012514219867 238.8852482674883,341.58836335398155 238.94641520084764,341.3796300788563 242.19168510307276,345.1457506139013 242.38057441862833,345.2082632763231 242.02813637418507,357.3136344850536 242.13619795638436,357.56889386404146 247.8440194674949,360.62344243782354 247.85982092529952,360.8665535579239 238.69482977861838,361.0576994809271 238.68514501415842,361.3072182918877 245.48370401859933,364.88551187796475 245.6916715919396,364.80711334321313 248.2730618141831,373.6172528785137 248.3254177964008,374.2983469956562 273.7753039474955,371.74717516078454 274.10895500528926,371.70414727813113 270.99817953863015,363.29737574154933 270.7422978675058,363.06114280138354 275.4956967652724,360.4799102181896 275.9513904186205,360.05572106487307 283.8446918941808,366.1747795079027 284.1580996097363,365.887400810072 286.2869273430733,356.0588396944404 286.20828414305646,355.822804068961 293.082209547505,349.8976517971787 293.12939546750926,349.7950757743274 284.8507423119626,347.4003969582445 284.80676037418374,347.3361695181702 280.47075297859914,326.4068980223565 280.4430094052986,326.3303907152331 300.66152076526845,321.4472137954908 301.03456624083987,321.3721885201121 301.8587178497291,310.7614202879231 301.9860761430645,310.6973784290494 311.70695820528266,313.82285339660666 312.1625062230632,313.91919699676873 310.4902459563927,297.6301060494625 310.6950095475076,297.4255574825693 325.4701007474977,304.03638153228167 325.72423479192724,304.10650397728386 323.09769754750954,313.5907574072953 323.1327957163921,313.8158653285536 336.6641592719424,330.9532763153002 336.59410856971584,331.06482080668866 353.0693492452737,336.08271057530146 353.2291842675076,336.2331782363799 372.3018350764068,320.73177769464746 372.3172724452924,320.4958168654739 382.9845671652765,327.87735200437965 383.3536076630589,328.24830919130545 385.500348569727,324.9264394970269 386.2596923563869,324.94602497041706 387.0836983297376,335.4817518436066 387.21957630305036,335.63451142276244 387.94527827638734,330.5801617546276 388.186086667516,330.4680436470844 395.3871095297399,333.45804747545117 395.50041399196556,333.52733014153273 398.76352424973805,328.16195507503653 398.8146423297475,327.9998975746312 423.25636634750475,322.92696584402074 423.2694735475124,322.68918196298546 419.8235906674999,310.5841879812542 419.6007682674862,310.1907691354172 402.5398542052898,286.91163509739636 402.5432038230537,286.8112317795931 392.8952123563976,283.9494295366494 392.5737946852641,283.99963387821117 400.54690444529473,284.74558695433734 400.57836172527817,284.5828260983435 389.8016947030446,274.1995039731737 389.3963181341714,273.82370446250206 395.31451020528397,266.4773192484754 395.3161850141659,266.45851518267955 378.7505046586047,258.42651662505887 378.5109341697134,258.19922829390634 387.65182263193486,241.25036476218156 388.1233905608423,240.88638080006422 386.61285857861,236.16297024184678 386.86138565418145,235.69466769862993 400.47707219639045,220.5974783853635 401.0478907563847,220.13856566149116 390.99641598305965,213.32545040098557 390.9650315208309,213.29595402916675 386.8782793785976,200.95885968218863 386.83167600083465,200.8282192362567 374.28189608974566,193.89968973480063 374.0943903119659,193.79612816377266 387.59531603638965,176.62879695320225 387.7379660630431,176.1896090825212 378.96495301415047,167.5270921007941 378.4815886052856,167.33284777299923 371.68557822307406,142.54355326183213 371.51365544971844,142.10489223969125 374.3726998586098,112.96116529450592 374.3814379919385,112.57067283823926 369.5644691741508,107.98861437056985 369.34994800085036,107.71745267091683 379.51916912083465,77.40383122883577 379.4103065430717,76.65684700319616 355.8025645341731,56.25207263253469 355.3069667386189,55.610579464108014 352.2408285697347,31.823090324487566 352.4310286052823,30.38197300356478 345.4480949875032,32.74734744565285 344.40891248085603,33.166401733953535 335.1612731563982,18.173192469566857 334.71985178751123,17.261356071965565 327.5170084808378,19.403732445633068 326.43937818751505,19.49899070941683 330.19408126305274,30.97712665632207 330.178352623061,31.839673198530363 324.90037445417323,44.201130649878905 324.84146487193715,44.431279829910636 324.74396186748703,58.78551038263322 324.3138272541873,60.776609851138346 313.5217956808519,65.26416933611108 313.36363546749993,65.4435902853038 288.37963745861265,65.63854732951222 287.85119884529917,65.73786696921525 251.89975123638936,50.8450118137589 251.27766896084717,50.68787523852734 230.90842480083296,58.50063407291964 230.39884599195278,59.11711601996285 234.3106898319565,68.69665662081752 234.9179900986091,69.31612903696441 231.7631598763873,72.92061982727682 231.73483376084545,72.93753526769069 236.2779349163938,78.83379617530227 236.315144800832,79.04354725638768 238.2819529786247,140.93369464952048 238.3568824719586,141.115047486197 229.8254059919454,145.32276774042475 229.7955507030601,145.33322514930114 219.90128951192668,136.77838700988286 219.88643468528238,136.7809155754694 208.79643276527707,145.8787313482935 208.69558014306307,145.9307880028391 208.03854533417683,154.17337709250933 208.0373074319686,154.44809687925226 198.33994551193967,153.4954761910085 198.29101196529876,153.50512772125148 198.77874544084256,176.77189976016598 198.8517088541593,177.38324078386722 187.9180467030564,182.48685833915442 187.89474501416038,182.5047729780672 192.76741943195879,186.08884433519052 192.9016954141734,186.2381228452614 190.3021735652764,191.8518433298632 189.98468805414808,192.14256050400218 172.75199685416368,195.91404905672607 172.71092762750408,195.9036014480116 169.35599415195242,206.27799914581192 169.12683660527176,206.37556786336427 152.79890629415235,197.4428223929899 152.69710704083622,197.24041969921745 151.16371027641065,202.03990297639757 151.17601648085468,202.20716026256923 143.12528296972226,200.32562940522985 142.76665541417964,200.2065822018376 139.32761740529162,204.66808984049203 139.0704250141752,204.86644703541606 142.87762970749822,210.03300488567402 142.9706180097309,210.2253738863983 140.88322359194348,215.15384967050704 141.22546714749836,215.58468685688058 133.31257768972495,215.22867832577685 133.17735507637911,215.03139212284077 129.53886917415724,220.9280905106025 129.36985911195,221.11387963610832 122.74526177860747,205.77810018488162 122.69523596529683,205.66377132188427 115.59142483638783,209.3885178254459 115.3964188274876,209.4937711801067 116.52261857861953,217.78920190461577 116.39059994749908,218.1021579330445 107.06475432972724,223.12779731373666 106.91409434749579,223.18689404819816 107.1342224897416,215.49757860346654 107.1079352719425,215.39968207186394 95.46080453419194,211.74662583264944 95.08040446303852,211.99786816201595 98.00607713860876,206.1039820305923 97.94243440083295,205.92537285125945 86.86692321861113,217.22537152142104 86.67381047194425,217.5251330852807 80.39378686306367,217.52272306404848 80.36982981417162,217.51664062896816 76.04481790303902,209.1241783426558 75.90828456973026,208.85834540780706 69.28237651639569,217.99933136330583 69.40507447194608,219.0544420142287 54.13613310306749,216.85606114972688 54.04926149417946,216.88842468294388 47.60037345860104,225.6301144511417 47.21065271196488,225.4985009904958 49.30627553862354,239.34920117205547 49.24379788530126,239.46311456671174 32.522870027507395,252.21255418892906 31.39849072082501,252.3715131949175 36.06676563639843,261.191743151041 36.18349253417176,261.4982555633942 32.52840417861074,263.394511604758 32.41204136972732,263.80753502146763 36.50308976082664,266.73885560704 36.6692599297275,266.8525965830813 34.810440516408505,270.630220258583 34.69706323639906,270.86651360315227 17.26135607196551,282.0048350635079" stroke="#009edd" stroke-width="13.252947501470487px" fill="none" stroke-linejoin="round" vector-effect="non-scaling-stroke"></polygon>
</svg>