<svg viewBox="0 0 2058.081030880057 2920.4800366819395" width="1000" xmlns="http://www.w3.org/2000/svg"><polygon points="1085.699154515612,1876.999821157929 1104.23098768897,1937.772445162445 1097.4175738577974,1950.7980756385145 1118.518709502277,1942.9161566269245 1122.649516400044,1942.0026138404278 1139.495763653285,1952.417309863063 1139.8613088978232,1952.4376886588648 1190.2089768089131,2007.6161487553977 1190.4545183555233,2009.5489861925957 1227.1305028532875,2000.9702304898888 1227.5021647911994,2000.7943910913668 1231.5686007733234,2011.9074324956523 1231.7914231733662,2012.4676982083251 1225.1061686310927,2032.5960202812926 1224.6363483289965,2033.7567454334708 1234.6383070132938,2039.8370567295128 1235.726495884453,2039.8848837169712 1236.3588454666092,2054.602263018059 1236.2606871021922,2054.768317835907 1277.175831351174,2072.57177204165 1277.4143823911213,2072.8485075580898 1318.3636053600126,2069.5179173191787 1318.9644976622435,2069.584777573043 1369.260028044438,2108.3328783677784 1369.4825591733456,2110.137781961275 1384.1177674223213,2090.595166541672 1384.6930278666327,2089.032727728459 1413.0806016266356,2089.1106506958963 1415.333874942247,2090.345903168119 1426.2498423732827,2065.237933520147 1427.7816371466974,2062.37748029756 1455.3175341777746,2069.47718126051 1455.8269673511163,2068.8931493355553 1451.1153658578182,2066.3829900484193 1450.6825369866342,2066.245725270164 1454.4696439733739,2049.071016623791 1454.4646923644245,2048.6521046591 1441.4745833511474,2039.224161827798 1441.3138016977823,2039.0735949017467 1443.6646508355402,2029.4441846041368 1444.0444683645396,2025.1399543920193 1402.4861975022136,2022.8476375631067 1402.2761910311888,2022.8560522161783 1386.4651213066895,2010.0844553592392 1386.2149194222652,2009.777081157175 1418.216002586741,1991.6549794082307 1420.8464719911349,1989.9425711970903 1449.8058109421759,1930.8466321945666 1449.6820207200722,1929.1058407682353 1461.7546257333374,1932.6135502987668 1467.1440151021593,1932.719883937541 1448.5393641511687,1895.0391348799817 1448.221004826693,1893.4877239144766 1428.1343664622177,1883.6299615637759 1425.1683527377677,1883.2063050301872 1430.9110539644967,1871.9099757084982 1430.958531155578,1871.1228894673181 1398.1244126133165,1873.18366677306 1397.5782792800815,1872.764422019281 1373.1484973777328,1811.0337131175106 1373.1115059465878,1810.7486708577849 1342.4759017510582,1791.9044798294558 1338.7560783911972,1790.9495264637876 1322.767915831158,1791.465130858625 1321.0593194933385,1791.062578261051 1314.0204618222556,1814.2325447837716 1313.8660881333994,1816.3160161621995 1246.2215765600336,1855.5068923046124 1245.3081503555654,1855.9075548982141 1229.40008735119,1858.2716267251303 1225.575115120016,1857.8687523769108 1229.186585626659,1848.6472057644637 1228.2300512977886,1846.8317488594107 1222.4678349066303,1855.2821840944594 1220.6048648799547,1858.2330678258218 1198.694578088914,1856.0108229049142 1195.7008936089474,1855.69658663174 1158.067209697772,1838.2387092269269 1156.6755163288685,1837.1997386259968 1157.1931050932976,1850.385970479961 1157.0506735200538,1851.9376834636564 1118.8131845955281,1847.4722132609818 1118.6742482755576,1847.436311845238 1114.4936340177442,1860.5913532097252 1114.1688667288759,1863.188939368621 1085.699154515612,1876.999821157929" stroke="#009edd" stroke-width="5.072255196844164px" fill="none" stroke-linejoin="round" vector-effect="non-scaling-stroke"></polygon><polygon points="521.9727547999715,1487.9308415955525 539.9121425333211,1496.7066335143531 545.6239690222789,1498.4681426555394 534.5390643466741,1511.6461653585206 529.9174656267056,1515.2457251744704 538.8262838311272,1517.9001909958092 538.5338476355897,1525.6006249472625 558.4664035822276,1518.666784142471 558.7559270667622,1518.7551175189797 558.3510602222301,1530.8040808935543 558.3219331110373,1531.0877085574098 579.9715322577173,1549.9998373746998 582.3319933422387,1551.9366747455565 622.3870139999559,1544.5203242950734 623.9348286844103,1543.9455578478878 640.2585355645057,1530.0899057126148 641.8643131999776,1528.2944706616468 649.8206748710724,1548.83124695361 649.7772754755348,1550.8453195686811 638.1069158667011,1560.837742258132 636.7973609511752,1561.5544809648195 657.0139062311279,1614.7273526890563 657.5693602399912,1618.1947915725536 670.9730742311582,1628.1074181785002 673.4445096088817,1630.9078255495183 691.2883604177983,1618.705918082654 708.0466437956562,1617.93035412985 740.6582312088937,1640.9090544768037 741.6881658577837,1641.3389423524854 725.4757245422585,1658.5736970286011 725.4017416800849,1659.3398028355218 734.2962876000453,1677.6598985140804 735.3961273155652,1679.6315472196216 752.0440189422585,1684.161615252298 752.3466496267134,1685.0629160721214 744.6032071377628,1696.033031837585 743.576185199992,1699.0574467522451 746.0671357422613,1727.8664859857304 747.3545540533738,1728.081567311579 740.2201594578579,1737.9129998243075 739.8980136089737,1739.12626677045 738.5304957421973,1771.3281799371248 738.2159229422465,1771.9147706282452 758.8154897333367,1738.4517869535844 759.683186373302,1736.3241244635205 786.6578039733937,1739.8109437195012 786.9633473688515,1740.2668025861853 814.3888526488805,1705.2635994551015 815.7898666934121,1704.7038863991397 811.8612019467179,1692.7091880964358 812.5931662488507,1692.384518537357 857.7364019467274,1716.757362159296 858.0579652533412,1717.8909174671057 852.0464207911642,1701.6294309613654 852.7804239911271,1701.8782452303344 862.351301431168,1723.737327469898 863.5382312088983,1723.9834560361119 868.6290676889254,1722.8317493796708 870.6839853777561,1722.6202107707863 874.4041000088688,1698.9629759923332 874.6915845955733,1697.0221030027965 899.4129288800538,1701.267075277959 899.8699332533648,1701.438273997955 871.4718737333093,1666.764725620254 870.2499914222641,1666.2674614222847 877.5247786934266,1640.039959718742 878.1014954932976,1638.5404415940643 903.1691611289058,1653.4974581826605 903.7050999733398,1652.9038992733472 898.416490408919,1650.0527536786753 898.2787191733729,1649.906358094398 910.2348157422163,1598.3788552398687 910.6088078489771,1594.3102898825086 898.0515277066512,1591.7525887209117 895.5133912444359,1592.2717636250086 890.6931456266681,1579.1939534293265 890.4312928977666,1578.761725947646 898.8085413244331,1569.6927418422779 899.0942782844428,1568.87040854412 897.8292878488788,1553.0692995562345 897.6154948533291,1552.584650464683 906.753543422186,1552.7754922666713 907.7945463732827,1552.48612277225 906.111873164518,1529.9536395832906 904.6875574311485,1524.9685496233064 913.1816055733722,1500.7960833125176 913.4405455910379,1500.8378120023185 876.1826014133181,1483.4673423446143 875.676372222231,1483.021165047459 853.9035653956013,1458.4951234164541 853.8252134667488,1458.4254142747154 855.0200075645477,1437.4428517410192 854.5097005778003,1436.7665633482752 835.4425111022789,1438.6222440147899 834.3001458043942,1439.8637962527932 826.7340874222351,1431.453875288054 824.7843186044844,1429.8281601275444 828.7744415555859,1420.874300781033 828.712109537773,1420.8281161693517 797.7858167732844,1414.1232516096566 797.4325049156101,1413.9318460130376 790.9322075288288,1442.2483029934006 791.3842602934234,1443.6607891781382 762.7994959910644,1427.9404327143343 761.9868495911138,1427.4923670776548 747.2380456088355,1437.9925843140004 744.3069844177004,1437.8003112835936 707.5063358844269,1389.8031994865519 707.0810800621763,1388.404581897928 680.9467796177847,1394.8228712919295 680.449288559939,1395.0240643972425 626.460149217724,1441.0378471056824 625.4645845599949,1441.3944127530335 538.6995808977878,1437.45306487874 537.5816823733982,1437.1364573872775 536.5532040799513,1446.2974651178006 536.5007752800371,1446.698869407795 529.4630826932622,1443.7025286514904 529.1732679378252,1443.6949800238722 521.9727547999715,1487.9308415955525" stroke="#009edd" stroke-width="5.35329651681675px" fill="none" stroke-linejoin="round" vector-effect="non-scaling-stroke"></polygon><polygon points="944.377032844444,1630.4464173951196 986.618917004416,1676.4165753488555 987.6689493600057,1677.8958762924663 1019.8800389956228,1693.8198027679823 1021.9297138044855,1696.2574582385491 1074.0928745510532,1702.0986740369476 1075.7531198845022,1702.1084314438408 1116.8007924889457,1679.3033099588133 1117.2382816978275,1678.9639830895826 1127.9069599555582,1630.881205874473 1128.6202829066674,1629.6660142976102 1092.302853146662,1585.456719485031 1091.5810833333303,1585.312056160335 1050.2657325778632,1590.180856925122 1040.663980400051,1587.0315910912245 1044.1484567022194,1596.1646491058996 1044.4143872266645,1599.0559807868335 1037.5677684889883,1608.5550438967543 1036.8148326666337,1609.23435682027 996.7268983733153,1616.207953522367 996.4035874400066,1616.1635844475018 992.2057881866127,1629.9672617547108 990.8941943733731,1632.3608112879806 959.6035214488871,1606.9137691199207 957.871914693365,1606.9869811496242 944.377032844444,1630.4464173951196" stroke="#009edd" stroke-width="6.307123029167087px" fill="none" stroke-linejoin="round" vector-effect="non-scaling-stroke"></polygon><polygon points="533.2749477243993,1149.3054605881694 546.9844963822758,1204.5134590688754 547.0354688266303,1204.9246375840517 539.0124060711602,1234.7968207329172 534.71353574223,1240.867128332589 550.368775422197,1250.4460349437209 551.1281192088278,1251.108227682103 553.3825576088635,1292.2922716603275 553.3173128799314,1292.3473699582169 565.5885647911124,1308.7216199618774 567.3306573066872,1310.6530189871914 579.9121129511401,1310.7418798198119 580.4037785866309,1310.5805973821912 592.5162877422769,1337.0080200811858 596.1606718844047,1335.2603286614535 593.257572720038,1367.0249288091795 593.3271865155326,1368.3055275992733 601.7641455200279,1418.6818533308465 601.7842432266112,1420.7166513455227 621.9381652177323,1425.4798351001587 622.0471006133372,1425.2600186044942 626.5096653067518,1437.0827273192476 626.8440445422672,1439.3997691399777 641.680812400045,1434.4836862021252 642.4066600089205,1434.0884765219303 679.7691705155663,1398.53580948423 680.449288559939,1395.0240643972425 700.3841746755421,1390.170063098812 707.0810800621763,1388.404581897928 685.8628534311207,1347.4947668610034 685.5357559734035,1344.7325262418376 697.6037006488547,1267.7175056471383 696.1231695911625,1266.053256636987 750.996316755634,1263.1531228016024 752.2543166844185,1262.8944819868552 753.5198896622529,1244.794650268544 752.6725820000062,1242.0609032768184 772.6578580178099,1243.4160033552103 773.2275843111344,1241.8555708901617 767.9118865333509,1230.370875577653 767.9893646489141,1230.1135297847572 749.6553045600664,1225.7070477151788 749.4889887555979,1225.1932339172704 765.8141519911366,1215.7105768609104 768.8596827288635,1214.7789129605876 777.4122763644915,1225.449696489995 779.772154906626,1227.609837368807 785.8250598667433,1211.1628996808208 786.9251908533985,1208.8470198884966 788.9687489688873,1199.3307660954665 789.4810948533483,1196.919632221608 773.9190619289653,1180.0889714374566 774.5907331111154,1177.6553989492018 742.7600435466517,1181.1563739297922 741.6607863734022,1181.126588090941 741.3881566133128,1170.706188237738 739.4570291467022,1167.438014136896 718.3337568978092,1148.7883566463493 717.5980060711514,1146.9698129626117 726.7948914044315,1122.4584737909386 727.9110423022427,1120.8589436624093 766.3873735377343,1095.8199178467398 766.6346627111558,1095.5944363134108 756.4221150133304,1067.374961497007 758.3025613066053,1064.2618276391072 772.5002803466992,1055.4399313074896 772.4676579822332,1055.050715339406 831.5910332000127,1058.7693678671271 843.8844217156071,1058.9971110584806 846.0776931822544,1041.2956048853007 846.3048846489761,1040.5500411399767 879.2266757956019,980.5661711674543 879.8762103733385,980.5434777607802 868.7700429066095,933.310773423676 867.7992362933943,930.0404188908064 929.2830725955788,873.5555125663882 929.7470674755529,873.1276898222636 965.0957295200566,902.7407704787106 967.4987161867099,904.0476555310083 971.9787571467238,886.0163208177905 973.2591849511733,884.1141465513278 984.9411954044841,882.9371318430999 985.0804229955899,882.6397610217459 984.9910027644142,875.6857102418212 985.0055663200106,873.9530619900102 977.1325081867177,875.4809272415946 976.5954042578593,875.617597656244 971.0458157778263,836.5566864468051 970.2821029244002,835.1696997470349 937.538860968874,806.7579300532011 936.0900784622423,806.3103836836885 935.5689944444235,794.4805801416292 935.0793677067628,788.5119977541394 921.8151725777203,786.1542696949687 918.9816872088483,786.5586570307273 892.8986504800629,804.7994069952179 890.5355679555574,804.847947226524 897.551706480073,786.4722571556117 897.0501376266835,784.8573749126294 846.0549740355706,762.9484096839219 844.7410500533657,761.4184287144813 828.9451264266169,764.2481057054024 828.7371588533057,764.192875461456 819.91222672884,745.9349587005922 818.4497544800175,744.7995238204962 773.369142071089,733.8007816620297 768.2640333067171,732.9628573525474 732.8579908533499,709.0795624581874 729.8340141777659,707.6111350022616 706.1743530933524,743.7714357249565 705.3049088266922,745.5073338532015 708.1529577511607,778.8898682851354 707.8447929156024,779.581980844297 698.7874264444469,770.8823154749475 697.5547671022138,769.4387961131647 653.1193202044593,775.3611293746285 649.0723993867647,774.382621412085 652.051520311135,764.7750193543975 652.0101598133111,762.0874347990971 645.391023813259,759.0978259711187 644.3019611288106,759.0572931535203 639.1339378044719,781.2583628829229 639.1479188177979,783.6918554801737 650.6775944800826,803.7145968370965 650.2240853599284,805.6904970633109 606.9869278133625,804.052153278993 605.597564613308,803.0265679256186 618.1571749244828,833.0208549811864 616.7217908889066,833.6860818509372 572.8444194399996,827.9821638429198 568.299716293324,827.0212551019281 585.3326683288684,879.2600333500081 585.226936915518,880.0858277532166 623.9272556355933,882.8823764674958 625.2298200444562,883.0132551475904 623.4338423732912,908.7743662493663 623.9237603822036,910.0549540318675 647.1750593689281,927.0944769358971 647.5589546933548,927.7028957268699 635.3643070844479,934.3784793877635 635.2043992444884,934.7202866251241 637.5488404177373,986.1624720049217 637.4550511199992,986.8583843666488 613.4473210577631,1000.0513820300471 613.2469265333854,1000.652480914177 613.426058266639,1040.7818067504918 613.4036303910904,1041.2577929421454 601.2410226044955,1076.3636167626023 599.2385337155789,1081.9619376612022 556.5725588177808,1078.5665798661425 556.4109033511264,1078.6439700540864 565.9447893600224,1095.938217730763 568.0900010934344,1100.022193290038 542.0937631554913,1120.0923034862276 540.2744837956049,1121.5246377587678 544.599277253357,1135.9586335671843 544.5582080266682,1139.0898768438851 533.2749477243993,1149.3054605881694" stroke="#009edd" stroke-width="5.656380274532436px" fill="none" stroke-linejoin="round" vector-effect="non-scaling-stroke"></polygon><polygon points="884.1377979999885,1336.7481329334328 886.5492315288644,1358.8267886678582 887.724510462234,1358.956497196959 983.3164851467369,1359.1657186707375 983.6826129333127,1359.2807681865884 1010.877140222328,1327.550596631168 1011.7873624444252,1327.096107663739 1070.1059555822062,1337.9933672094844 1072.6137998489207,1335.467351294857 1077.0952971643778,1339.5384608497038 1077.362684044499,1339.753475899844 1071.897272915557,1354.8599807977803 1072.185922586686,1360.9256587701743 1086.134896097799,1383.1498046011325 1089.5750991911405,1389.5535897558216 1073.006724577724,1393.236415049097 1067.0764447555189,1392.3872210270852 1064.088876968926,1401.6819872486299 1063.9997480088855,1401.7752527045445 1084.0948332355833,1422.88332205281 1083.4333565422344,1424.6738402143014 1108.786467866717,1432.6528381106104 1111.238096808876,1433.2891738861576 1084.5378565955684,1446.734835907038 1083.9113324355344,1447.6095748899165 1091.1296131111226,1456.2955007946362 1091.957988151094,1457.707009227633 1084.3866868888504,1460.4163342349125 1084.522127955664,1464.341288965406 1100.504173822213,1464.723124734162 1102.4350100178049,1465.19242663039 1097.4944694312067,1514.3037816506471 1097.3811649689228,1514.6167275171388 1108.225188435615,1523.7598780855546 1108.7861765955818,1523.8899337683465 1154.399815137825,1512.0572168344293 1155.3723693777351,1512.2893762396775 1163.7388407733301,1482.8413620016431 1163.9931204534146,1480.514564212855 1210.8799050221928,1497.659306279012 1214.7526457155832,1498.443282745116 1252.1955470489115,1495.4329932906908 1254.3995955466303,1494.715152400116 1250.199466124504,1456.1516409831015 1249.7229465866471,1451.865552490322 1256.6790832621987,1432.8579933200158 1257.374056133303,1432.334003446485 1283.837201662223,1439.5853801019616 1284.4278994756528,1439.7452363078842 1298.599695386692,1420.4426519183103 1298.495129057766,1420.0274333383782 1333.9305898933449,1414.5122796432474 1333.9302986222096,1414.2165118170446 1333.3591159733255,1438.1950702808458 1334.439440524416,1440.2860822812431 1344.6249000089952,1425.760933451856 1345.2750171288858,1425.632152260841 1355.2798885245352,1424.9491666214085 1358.9487394400417,1424.3767537549497 1360.9797728977642,1435.4939099824765 1363.16022843551,1434.6581999145342 1373.0966511199726,1414.252927696834 1378.0683577155937,1411.5066206100523 1404.8851063733232,1416.9388043466383 1406.755940719951,1417.091127391824 1408.763381217817,1403.1786710048686 1408.5536660178109,1402.0839166709115 1388.1084729155768,1389.3963621295184 1387.0683437777693,1388.6848391004964 1379.3219885778158,1360.6347054803405 1377.836214640039,1357.512374999154 1359.8732339467165,1355.3259622546389 1359.2216604710334,1355.3423981889277 1333.5274706755076,1369.8646232915703 1331.5421667821715,1370.00098811827 1322.9368530756105,1355.5969329073919 1322.6106294310662,1354.6929557467006 1356.9986793511557,1350.9939404171087 1358.8068904089519,1349.961563374301 1372.3073064089763,1322.4894116099817 1372.8540222844817,1321.583077618248 1387.9878866756112,1317.1788634985928 1388.234302035627,1316.6257203455675 1394.921304204479,1283.903839883605 1396.0901751733395,1283.36305549302 1391.442944595568,1267.2660043509454 1391.1971117777061,1266.7047371818112 1421.3949354933352,1264.4894288545834 1421.6206706044973,1263.7481732858937 1355.680386302272,1161.5639820638821 1355.284840133368,1161.3341215929609 1290.6750822666577,1156.9849563471867 1288.3798659111849,1156.9653933577133 1279.7401822133465,1171.1787823954724 1277.4289459466013,1174.7194274401186 1250.7019087910662,1181.2199466769011 1247.366854568921,1180.2565730864076 1232.2088146755482,1150.9474687769903 1229.4126120089563,1146.8915574461348 1234.1268349422385,1101.8446813699334 1235.8933942310755,1096.466563807487 1198.1761155111958,1095.1505883622226 1195.1259244355383,1094.4768094568058 1146.1370362577504,1033.129854245089 1142.0662312089476,1029.3128983888669 1099.366468862259,1061.6646246621744 1096.1319031732633,1062.3981074130638 1095.278187546624,1083.405193534541 1090.471049128893,1085.5333671894982 1062.3805719022416,1086.7164182827469 1058.2663674577848,1085.9358721261738 1047.7529367023158,1063.8446047640532 1047.283407671122,1063.3086189971432 1033.5054103021753,1060.482328962105 1031.5011737866803,1060.8119312213744 1014.314721875569,1101.4675547632282 1014.0176253422175,1102.2636113502444 1016.67460041782,1116.6045907176226 1019.5881853422394,1120.8122516164217 1014.2518073156022,1154.0140297763642 1015.4270862488553,1156.6924005507967 978.5119681688735,1144.6843847541963 976.8837626577366,1144.4980812955541 966.0709052000672,1165.4413409222975 961.3293027822871,1169.630288077496 967.9539729333261,1193.3491142526977 968.1497071200062,1196.3884146392006 959.9579983911023,1206.0372605827065 959.2036062133044,1207.341018237093 925.6713108178006,1213.4071907353714 922.1431438488431,1213.9481463694606 912.0747753510728,1233.709676722799 911.8440886311943,1234.3670305882474 891.925513697766,1227.77962532451 891.1737429600686,1227.901854792995 885.4298766489152,1260.682246292337 885.5286175556026,1263.0322460324164 920.6200872089026,1269.7208093258446 921.371275404446,1270.0980931903828 893.803047280038,1298.7662276482802 893.3670144267159,1298.9519567374732 884.1377979999885,1336.7481329334328" stroke="#009edd" stroke-width="6.115532696370008px" fill="none" stroke-linejoin="round" vector-effect="non-scaling-stroke"></polygon><polygon points="1221.1049773777845,1639.9135214526682 1247.9124053600021,1667.803165805562 1251.4714470666145,1667.3027988236058 1260.6572640978043,1632.5542462268272 1260.7536748355265,1632.4282473409326 1294.4388875644431,1628.8021993590878 1295.0255075822129,1628.519584288973 1308.607188222209,1610.24688860603 1308.9905010044818,1609.9291972738351 1303.3916877066727,1604.6699195854376 1303.0471139822398,1603.9790560499891 1306.593922302221,1596.4215691506756 1306.6533416089146,1595.4826336538313 1327.353979475541,1584.153858647543 1328.7634403822954,1581.9750108766962 1282.0820019466114,1572.3736247977718 1281.3325613777629,1571.9804365812229 1286.7528254844724,1544.8620766096642 1287.0502132888428,1543.5567574582888 1271.5947855910995,1532.7592845523973 1270.9234056799683,1532.702026847553 1259.9660777511085,1541.3415586369006 1259.6049015733656,1541.585670995271 1262.4634362577704,1555.286599988503 1262.4657664267356,1555.384682620795 1248.9705933066793,1574.2197361988142 1249.2082705333373,1578.4768281107895 1236.2743768444993,1585.3062873755475 1235.8753354223222,1585.3750690311786 1234.7632623200548,1612.7280599632427 1234.794137057826,1615.4838491086043 1227.0422477066527,1613.6979809722757 1226.7696179466798,1613.6465122606965 1228.6087037422471,1632.5529152530721 1228.6387046667292,1633.0959518873492 1221.1049773777845,1639.9135214526682" stroke="#009edd" stroke-width="5.7615779729526855px" fill="none" stroke-linejoin="round" vector-effect="non-scaling-stroke"></polygon><polygon points="1558.5547929866948,2470.5056834540806 1603.2107321156432,2482.4415600655843 1603.996290302231,2482.5348134796727 1623.4750458578123,2466.4557546524225 1624.4441048444492,2466.0504483119944 1645.5248515110939,2472.695257304156 1645.6099026755905,2472.724869882724 1641.7124039378027,2508.311029517535 1641.7421135911495,2510.008833099309 1652.7137138044704,2533.564627942025 1653.098774213438,2535.361655511056 1639.3321364178332,2534.134623509402 1638.635124648899,2536.333732223116 1651.976506622253,2542.4572757653436 1652.0732086311104,2542.8823253345104 1644.6000657334002,2566.924136664929 1644.6548247022797,2568.718685214793 1659.7557754578079,2566.741235037836 1661.759720702284,2564.653318343953 1675.525193413348,2582.664598549112 1675.0935296267048,2585.825367838413 1686.9826338400376,2586.571930114332 1688.0620845777225,2586.952278332122 1681.8201446666858,2605.333231723263 1681.7662595110955,2605.8058660010934 1685.482878888935,2652.197753315711 1685.511714728876,2652.7917334573935 1721.1181517066211,2664.602996698209 1721.0933936622237,2666.318593793992 1746.8697219111268,2654.7648843349084 1748.8564821600226,2654.9216581043215 1726.6884204356243,2596.866281949718 1726.6042430845332,2595.2729503611695 1758.1879347467107,2534.0860192933246 1758.6635804711618,2533.1453046868914 1756.83993204448,2509.7976026480096 1756.8451749244482,2507.9345236840086 1743.8215697334158,2488.2841864289144 1743.4720444000336,2487.7644552493944 1753.9540178755774,2477.960046481028 1753.9799410045157,2477.9087781491467 1752.0598818399953,2455.3508887616695 1753.349339048938,2454.228171972594 1796.5241645778074,2434.6278924058784 1797.254672524497,2434.3847622133103 1808.7473567555203,2448.303757758847 1810.4649824978328,2449.004812116072 1847.5292313867026,2433.9259085057197 1849.0668515822395,2433.6200055068252 1858.8777364177872,2453.100587305998 1859.0580332355817,2453.5987408621945 1864.8843292711313,2448.871762247559 1867.5628584088768,2449.3920265616393 1889.9109256800507,2468.4349826125904 1891.6538920089147,2469.8144206901557 1923.698374568928,2446.7080330874664 1924.0132386400142,2446.5232642261903 1947.014335742198,2448.6821328951987 1949.8786958488413,2448.747552829947 1971.9800564888642,2460.380501839834 1973.1297035644307,2461.9080601443197 1971.7007274933635,2483.7736217026027 1972.0126788533303,2486.995463005885 1981.3141305155364,2494.659191353399 1981.7577364177919,2495.0224616816627 1995.9577856267347,2484.792329668511 1998.7965138755749,2484.5885884494414 2023.3908639555807,2495.1948160089446 2023.5443638311476,2495.2014450189085 2043.4614824088999,2480.383345588379 2044.6096731289067,2478.8103919139025 2049.7704146755636,2452.307605868474 2050.0284808800566,2449.857920672315 1992.7677844178174,2417.025461917779 1990.914717608924,2416.3844308841867 1991.6644494489078,2392.3643261017637 1992.0701901067291,2391.2567654446825 2020.3374688977851,2349.091510396603 2022.3961731111408,2341.566921904952 1999.3277923821947,2335.881409673056 1997.51579479999,2335.722641332693 2000.7966725955262,2327.457243368531 2000.4876339466787,2324.3586901141457 1938.9927293422875,2266.328226312449 1936.8338278666847,2264.3038394208193 1951.5071926311134,2244.9367424750594 1952.2604197243704,2243.8868467061907 1900.0719183911347,2252.2991462004497 1899.250242586691,2252.2172988158777 1869.7057399733235,2283.3843676456377 1869.110381822196,2284.101425874374 1830.5938551733047,2263.460634358205 1830.4211314044437,2263.3584408719685 1832.7987774844291,2255.123526084098 1834.8242767911647,2252.835798843625 1820.875594551187,2224.156022363611 1820.2091662488888,2222.6878875192847 1800.6089506400526,2216.438692430885 1799.2559963288727,2216.2953256956894 1802.1034627110707,2210.375614549302 1803.6419567200132,2207.6050929503176 1834.1377507821667,2196.5456718198616 1836.3272357245219,2195.442000524526 1862.581539866725,2204.732316212066 1868.960959742289,2207.0085921553323 1876.3167203822882,2198.294541465271 1881.0085154400217,2192.6504930271544 1883.6188871378322,2170.33310034572 1883.2571284178189,2167.4492184205224 1788.0446799910637,2133.43375267872 1783.464150497784,2130.968147757732 1728.6186740888293,2052.8664292053795 1728.0472001689263,2052.2270012816075 1702.011931902241,2202.337422122109 1698.8286299288516,2220.7923066307335 1627.2033160800124,2194.202023252066 1622.815025520023,2189.034934077797 1620.7784579110807,2205.4540539804507 1620.7432141066306,2205.648759045907 1628.2632516533845,2206.952836064192 1628.567921235553,2207.3975568764504 1629.7778614311023,2219.9507059987295 1629.1280355822305,2223.541424601957 1613.400269395533,2238.8213505254603 1611.6025440977896,2241.6321864822307 1575.4974509777744,2246.390129803541 1575.205014782237,2246.4361425192687 1579.7497179289126,2274.74055916773 1581.0132520089169,2277.430173352164 1569.9076670844584,2273.198882380187 1566.4135788355266,2273.113503696782 1569.291628684477,2289.4281979380535 1570.1234989777217,2292.542278787972 1564.0883615555717,2298.502259878827 1563.506110604481,2298.9843947330733 1585.2576546399864,2342.4045231656996 1585.3220255556294,2343.138195588755 1574.6580076355963,2357.3282430096656 1571.6951978934007,2363.971002969461 1579.668744560076,2368.566250786978 1582.7032069955962,2371.6053765296015 1572.835524293339,2391.5662639893485 1571.4103347466803,2393.0465453431602 1614.3935038844133,2426.9192094363166 1614.3964165955326,2427.0810070022485 1558.5547929866948,2470.5056834540806" stroke="#009edd" stroke-width="5.650574494850845px" fill="none" stroke-linejoin="round" vector-effect="non-scaling-stroke"></polygon><polygon points="8.052549999999997,1553.0484401391946 37.98648208889756,1608.8465585812587 38.843401697791364,1609.5094535571184 59.15227992003895,1619.6540723792637 60.064249768947434,1620.9012640047363 78.34588105776459,1616.6543059201572 81.36781883563492,1614.2814400980492 175.93947081777844,1650.8406264320142 178.40071170670092,1651.889344595816 177.63554249783158,1678.7439748021202 175.92082946663834,1684.960455386295 183.65058221328184,1695.4347081660303 183.05114626661054,1698.1185031821146 166.61996034670267,1701.619673533401 167.02249702226948,1704.0195443445477 222.5061484355025,1701.8369979644553 225.93440941334813,1702.8925707364465 247.99936116449646,1759.93435611009 249.75718231997564,1761.1142473328869 280.42977794665023,1765.545101729956 281.09329353782925,1765.0223426769148 283.1301524177903,1755.8629958237648 282.7820834400842,1754.9885880492288 272.3155473333096,1748.6441506952174 272.2101071910944,1748.5621170112058 286.31199803550373,1729.8345831896072 286.6306486311147,1729.7676202781508 290.70087113776356,1774.2509202472643 290.992142248993,1775.3544752336234 335.2580693600245,1829.9387759833257 337.87251885337866,1833.362508446247 341.3095179644657,1841.5621413168624 342.4789714755967,1842.265117492679 336.8239428533485,1855.5060058820886 336.7790871022513,1855.761738617824 359.91416891557276,1859.2914406933482 363.0596056444116,1858.7108431386655 359.99980262222346,1845.4080940171038 360.02223049777206,1845.2675896026553 372.0039589245349,1841.5488441419216 374.24412503999304,1841.787749929273 380.00371999116726,1859.864502283082 381.01355693335756,1860.5745115689128 406.9267826044012,1857.4140220338372 408.37119604447037,1857.0284312452782 446.01711334227696,1886.9912663174687 446.80674932440854,1887.3444551664065 451.70825958226453,1904.9203174313657 452.52847903114855,1906.1096277622632 479.5558167022897,1927.9547576294058 479.433191564494,1931.0043616654943 564.1729871912172,1940.0093762227693 568.5152569155686,1938.8596788859354 563.2516966666805,1941.824512431434 562.912657093351,1941.9135631538588 567.7442622844607,1951.9720770086637 567.4634769332839,1952.1811815054748 533.1462058933463,1961.8595797592202 532.2371487555571,1962.4354769755514 550.3224633155402,1976.1967600753192 551.3489027111569,1976.7960973513905 552.567581040064,1988.0985948368684 552.5937954400212,1988.2319215309467 544.6601529156102,2001.8573979216521 544.7717097510828,2002.1523814128373 520.5117389067087,2010.0060616911283 519.9306530399259,2010.5464016648834 520.3040626044163,2027.0248091927856 520.1534754399687,2028.1576629858241 531.369743386727,2035.0357060525926 532.070832951205,2035.01267774104 544.9502589421824,2031.3422885714458 547.8784074221982,2030.5446971680863 556.4554678310884,2015.165368850728 558.9906915821845,2014.193219121698 593.176016808931,2015.6091460332168 593.9557495733967,2015.8762091187887 608.0384165243955,2027.9889310249487 609.4330226044182,2030.7506274833354 601.3834541778557,2032.1230485021729 600.3532282578304,2032.468034571771 608.7898959910741,2053.9770101607205 608.9763095022423,2055.0446327770255 623.248885217799,2054.562409843354 623.5873422488581,2054.5646239087578 643.0850304267148,2078.0926909559416 643.161052186602,2078.3370976921065 680.7801725422975,2072.4017455689386 681.7702030489232,2071.203143790051 680.437346444443,2077.051745478682 677.6428914044296,2080.4442090797015 683.6952138222765,2086.740629092011 684.2486289333098,2088.3265495861774 700.0020269778103,2083.8729266166115 700.1068845778715,2083.8720411075406 703.2086306400375,2091.748061339698 703.338537555515,2091.9123173684707 689.2051894311804,2093.001451298281 687.9932103378011,2093.473407672114 696.4211399378033,2095.1186060840623 696.4825981422106,2095.250540196233 688.242247137801,2103.204959469767 687.8207778400753,2104.2820846280442 706.1950333422061,2106.237985320134 706.5733945155295,2106.2198342160914 701.2419680978415,2128.58352315249 701.2422593688603,2128.660989549047 724.5564729155518,2128.0359456232177 725.4186354045302,2128.1846814480737 720.7245101777149,2132.086305201788 716.7142895200301,2132.3585398301143 720.8625726843962,2147.8040980052097 720.8389797245396,2147.959902588372 745.2655576445173,2144.0966248170366 746.2022855378233,2144.040410264373 745.7388732000032,2169.11511181997 746.2500540000398,2169.9538073981307 768.7856998666899,2181.2296395921508 769.743108008966,2181.2898277532436 803.3989023555547,2165.199534322986 804.5269953688618,2165.6098167962987 786.4632348711381,2180.3657606572738 786.20691629334,2181.8257672014074 807.4120357244752,2210.4840274840603 806.7287136978481,2211.7544461273133 797.7112513689568,2220.0484946695283 795.3507902844354,2219.016180417769 779.9833264621917,2198.277725476691 778.1570565956423,2198.2830357890703 770.8412000977911,2212.72749957929 770.0981674933352,2214.5337657421255 789.0704025866941,2223.935670014332 789.648284471106,2225.5537945143656 776.2629205599438,2240.6893459046037 776.4979763467342,2241.284428763123 784.0116059288627,2249.69903911549 786.2185671378171,2250.8002282273733 794.3124087734392,2243.147094152147 794.7519368800346,2243.384682412528 795.2060285422264,2258.1734974151254 795.4675899999926,2259.0233586567697 809.3781157245172,2262.8271224638806 811.0872946044907,2265.3226710604863 793.6535535199579,2273.2811643963573 792.9268320977932,2274.5003502612594 801.1846593689185,2276.471559669975 801.5845746045012,2276.7268070035275 801.3786459289037,2286.09245571975 800.787656844455,2286.7643855519486 782.9368155289918,2289.137577650406 781.2107429244567,2291.635484189995 790.5282144978188,2288.000748817263 791.0190063200204,2288.0370212669145 809.5776364356058,2318.709446422268 810.3162999733828,2319.58030531722 825.0709293777833,2327.033992215445 826.5150515466008,2328.2612856541305 823.1601908888912,2340.390559988598 825.0517054844892,2343.328357424099 843.7323781955998,2345.0698784623887 844.9557168622047,2345.8176934825383 847.1431629067298,2356.2691505898033 846.4132375021942,2356.790516550805 831.3947164711786,2353.3195847114907 830.4288614666799,2354.311032371224 836.0180628177255,2361.005620263553 836.833913200047,2361.6193949451913 824.0348780356359,2390.4781536244914 826.6333076177176,2393.5815310962857 848.4131049511267,2400.453551538208 850.1345172178477,2400.1520236136053 857.7145566133328,2388.018942636532 858.7558508355647,2387.644001205313 882.3677434577618,2404.2053735191944 885.2519099999696,2403.91048243238 914.9560291821614,2383.9047216182003 915.6277003644278,2383.7353759045723 919.7314190489484,2369.215379351844 920.0550212533923,2368.8125484292755 1043.150561875525,2353.7759518921735 1043.7782511199835,2354.4914559111708 1048.8807384443712,2351.6502103289017 1048.9806444355995,2350.95017489486 1045.536072275579,2337.8693211949208 1045.8745293067545,2337.370907677257 1108.1054760089387,2305.790788506834 1108.5592763999953,2305.8014039824843 1116.19815256002,2321.906264646597 1116.75011131561,2322.720057168022 1108.52374132441,2331.648138044147 1107.510117857811,2333.2278848807687 1109.8833948711176,2350.773286248535 1109.849316151092,2351.192069890421 1089.0712001689021,2361.798043740949 1088.6750714578443,2362.077513845557 1103.9070942132744,2372.244768262993 1104.7849853422736,2372.7351442149734 1093.3665752444426,2376.8447085426665 1091.9559492533804,2377.7343524258245 1094.5677773067505,2384.0289673466827 1094.5450581599503,2385.088811533096 1116.239804328979,2392.014593972744 1117.7675213066173,2392.4607123564706 1105.266747759982,2428.1746847225945 1104.3853613777096,2432.703178096133 1118.234428897827,2442.417200712174 1119.5285464444673,2442.4874849232506 1118.0381121688765,2460.7672544302545 1118.9183334666081,2461.981874182507 1128.1539578578445,2465.6464672098878 1129.0161203467064,2465.269446983853 1154.3377743911474,2445.2559578657742 1155.2281901777965,2444.096058988747 1163.7467050933988,2458.8401148328917 1164.0050625689105,2459.229080136552 1202.708876542259,2451.37582695674 1203.1087917777254,2451.370964722511 1199.974132079958,2470.623250947719 1201.1968882044089,2473.9517995156707 1210.9783546578615,2476.061342422246 1211.541672986677,2475.9694122043798 1224.5346947111898,2502.147654718988 1225.4941417511795,2504.2441140276273 1241.3267655378218,2510.175872937288 1242.1877629422593,2510.1193091967502 1245.1010565955435,2533.485977275915 1245.3366949244878,2534.4333182764017 1284.5680008800477,2571.115370090854 1286.076785235527,2573.2597736639796 1300.2398430133248,2615.4412019020306 1300.4635392266568,2618.0869370078794 1344.3254733066783,2612.4694604977044 1344.410524471175,2612.5361572706383 1343.054948720011,2626.9695742658 1343.404765324412,2627.8723493847424 1364.1001603110703,2657.747983128916 1364.9969840622284,2658.5446469952944 1359.3664222133589,2679.266618752655 1358.9956340888525,2679.3302044890947 1382.6436443289053,2714.1790718695624 1383.3709482933405,2714.9433040400977 1395.9864826578191,2715.595393766452 1396.7338843288376,2716.515468363104 1405.6246437245059,2703.892807214673 1405.7705705511394,2703.6901500345334 1395.7342418755647,2684.021368596506 1395.7030758666583,2682.5527410926657 1411.139862213378,2682.217595932459 1412.9734138577255,2680.8642048628312 1416.0672956000558,2655.677261958633 1415.1754234577306,2654.19299035034 1442.154118853366,2645.064126399498 1442.1855761334077,2644.00684800736 1450.521172791115,2651.8440142012328 1451.8426698222534,2653.8396960330206 1416.8362513333336,2673.67939263353 1415.8092293955629,2674.9780720537888 1409.3322336977358,2712.0973978239704 1409.2195117777223,2712.515941701982 1423.803165040073,2730.047276836041 1423.9304505155665,2730.5562873727536 1411.8100770399683,2776.0053868006576 1411.7317251111158,2776.2622671185886 1417.5382147111009,2774.269892057789 1417.8323985333332,2774.5934224976586 1421.5015407199749,2788.830502098404 1422.8110956355008,2789.3190758874766 1417.3669472977995,2793.5626051957147 1416.9842170577972,2794.2449165395005 1421.3422154222858,2835.55394878568 1421.7901903911038,2837.9159853253873 1443.2149282400273,2889.8642906031814 1443.4660039378573,2890.653505162663 1457.070694995556,2899.628031859909 1459.4262044711281,2901.482533970127 1504.3070048977165,2911.156220070821 1504.591868044437,2911.1288714378966 1512.8275587111489,2896.827280853678 1512.9560092710667,2896.2727729636604 1511.162361768867,2866.1212532075947 1512.4471586399955,2861.5623243921796 1536.9378162043645,2814.2441816155692 1537.408219048964,2812.377477316571 1566.8111639022604,2792.99239255573 1567.019714017842,2792.886911883695 1595.2261171467612,2790.247672069097 1595.4069965067097,2790.1073236556617 1599.8815033155038,2763.5825295572063 1600.0545183555,2763.3229861709183 1648.09531906664,2753.717460559659 1649.5534222489,2753.11801184601 1682.3878320621802,2724.4873754562936 1683.1244567022436,2723.5558554175436 1708.3826136444472,2673.6780678972495 1708.7705867644177,2672.860262469308 1746.8697219111268,2654.7648843349084 1748.8564821600226,2654.9216581043215 1726.6884204356243,2596.866281949718 1726.6042430845332,2595.2729503611695 1758.1879347467107,2534.0860192933246 1758.6635804711618,2533.1453046868914 1756.83993204448,2509.7976026480096 1756.8451749244482,2507.9345236840086 1743.8215697334158,2488.2841864289144 1743.4720444000336,2487.7644552493944 1753.9540178755774,2477.960046481028 1753.9799410045157,2477.9087781491467 1750.1281718311143,2457.198054927088 1750.3958499822543,2456.4634336134545 1796.5241645778074,2434.6278924058784 1797.254672524497,2434.3847622133103 1808.7473567555203,2448.303757758847 1810.4649824978328,2449.004812116072 1847.5292313867026,2433.9259085057197 1849.0668515822395,2433.6200055068252 1858.8777364177872,2453.100587305998 1859.0580332355817,2453.5987408621945 1864.8843292711313,2448.871762247559 1867.5628584088768,2449.3920265616393 1889.9109256800507,2468.4349826125904 1891.6538920089147,2469.8144206901557 1923.698374568928,2446.7080330874664 1924.0132386400142,2446.5232642261903 1961.531870462211,2450.739315393533 1961.9521746756286,2450.6849466129565 1975.7150259467085,2466.1622722726675 1976.0537742489028,2466.879623849912 1971.7007274933635,2483.7736217026027 1972.0126788533303,2486.995463005885 1981.3141305155364,2494.659191353399 1981.7577364177919,2495.0224616816627 1995.9577856267347,2484.792329668511 1998.7965138755749,2484.5885884494414 2023.3908639555807,2495.1948160089446 2023.5443638311476,2495.2014450189085 2043.4614824088999,2480.383345588379 2044.6096731289067,2478.8103919139025 2049.7704146755636,2452.307605868474 2050.0284808800566,2449.857920672315 1992.7677844178174,2417.025461917779 1990.914717608924,2416.3844308841867 1991.6644494489078,2392.3643261017637 1992.0701901067291,2391.2567654446825 2020.3374688977851,2349.091510396603 2022.3961731111408,2341.566921904952 1999.3277923821947,2335.881409673056 1997.51579479999,2335.722641332693 2000.7966725955262,2327.457243368531 2000.4876339466787,2324.3586901141457 1938.9927293422875,2266.328226312449 1936.8338278666847,2264.3038394208193 1952.2604197243704,2243.8868467061907 1963.6185367022185,2228.6678876744477 1942.6944938932788,2141.3403244116703 1942.4052616799959,2140.4275994269187 1894.4334922221965,2170.23219166688 1894.404073839985,2170.518099470915 1788.0446799910637,2133.43375267872 1783.464150497784,2130.968147757732 1711.0733761689403,2030.8400853240523 1706.8015940533728,2025.106738996728 1721.7009851999824,1997.7931409421503 1722.3248879200323,1995.822108909349 1720.052973253281,1971.752399874014 1719.7858776445278,1971.1291280375222 1734.1414656267511,1967.7970081982562 1735.5185954399417,1965.7632475655187 1682.330742924452,1933.4114944008538 1681.97976123551,1933.9697434237237 1687.3044884177866,1903.5670482057972 1687.3778887378062,1903.0561359645576 1668.8629492888936,1894.910183397274 1668.1027316889736,1894.6123982430795 1691.0755754933703,1887.1667529426409 1691.3851966843717,1887.1654234990488 1683.9676865689466,1870.256027734467 1683.708746551048,1869.332435119351 1696.7457502133689,1866.8217860119544 1697.5787855911544,1849.6085586294425 1674.262241875614,1833.979076079711 1672.738311422268,1832.4307832863774 1649.0160270489064,1837.2254470017283 1648.43494118224,1837.1274892092692 1649.92828816895,1845.03932514313 1647.0007222310883,1848.6680373369377 1609.2033439555448,1842.3772566131443 1607.3989194222736,1842.0182339323578 1579.7296202222128,1820.9377062978233 1577.2992540710616,1817.5128951078873 1583.4634245955162,1803.180509472069 1583.9932467466929,1796.8959726497192 1594.1778324177499,1793.952251268703 1596.3670260889699,1793.6219668339832 1600.1902506933325,1752.6141012346266 1601.2510600799937,1749.670234314202 1666.6886104444052,1756.250979911339 1668.2661347822063,1755.5078235083852 1674.4166155644702,1735.2939879015098 1674.5176866400066,1735.0217082157392 1651.6330979822446,1717.9099874010203 1651.8270845422298,1715.1000370827164 1671.3506958489083,1711.3884176520874 1671.764592097817,1714.6348130147449 1681.4945035644118,1703.1888398364895 1680.2239789777445,1700.0669064395256 1673.2110444356,1692.4874193235078 1669.842494035583,1692.3082299925513 1620.7169997066735,1700.15915911625 1619.0354915822168,1700.268265597791 1612.099452613365,1704.218682335027 1609.8158871022529,1704.0341803277038 1597.814643511177,1732.4674069044772 1596.9513159377743,1734.7769222839047 1582.0851296977849,1739.3989848504202 1580.7875168977548,1739.1599685351025 1534.8866850400586,1685.5787672025976 1534.0644266933446,1683.811206954218 1506.0537577511054,1675.3928134631492 1505.567626266718,1675.1124757602006 1482.5059447732997,1645.934564570001 1478.817869964499,1642.8171469190634 1507.676429111139,1614.7992310524346 1509.861836257834,1611.7430489140456 1528.375901893341,1545.0032157232413 1528.4490109422254,1544.6792169952892 1552.8697634399646,1528.0938426505668 1553.0873429600392,1527.8279658686147 1510.26524674669,1513.8319205920338 1507.8337155111144,1511.597336298822 1465.9885426044707,1520.9119501725431 1465.7412534310492,1521.0673087818209 1469.572924897751,1497.3321306803623 1463.589633733361,1496.6808855447812 1474.6468676533327,1485.5104233044326 1475.9855496800515,1484.9417188314033 1475.9552574844342,1464.2631457500752 1476.0644841511744,1461.6253520369423 1468.568622106664,1472.9306583688954 1468.4107531645345,1473.4070464821775 1417.6625874755914,1472.8796008680142 1417.1138327021395,1472.881820759539 1389.1908363644975,1486.6043206919926 1384.5240906221802,1484.9901098232144 1384.7830306400788,1462.6842916878882 1384.546809768864,1458.0853043888123 1408.763381217817,1403.1786710048686 1408.5536660178109,1402.0839166709115 1388.1084729155768,1389.3963621295184 1387.0683437777693,1388.6848391004964 1379.3219885778158,1360.6347054803405 1377.836214640039,1357.512374999154 1359.8732339467165,1355.3259622546389 1359.2216604710334,1355.3423981889277 1333.5274706755076,1369.8646232915703 1331.5421667821715,1370.00098811827 1322.9368530756105,1355.5969329073919 1322.6106294310662,1354.6929557467006 1356.9986793511557,1350.9939404171087 1358.8068904089519,1349.961563374301 1372.3073064089763,1322.4894116099817 1372.8540222844817,1321.583077618248 1387.7609864800247,1317.41478196442 1387.9878866756112,1317.1788634985928 1394.921304204479,1283.903839883605 1396.0901751733395,1283.36305549302 1391.442944595568,1267.2660043509454 1391.1971117777061,1266.7047371818112 1417.440347617819,1267.586410385476 1419.8223627644834,1266.155467217824 1414.4172447556407,1246.7257192478642 1413.6759597777632,1245.2475307914788 1401.9540451823045,1236.9253141006116 1398.9539527377124,1234.6132599977204 1355.680386302272,1161.5639820638821 1355.284840133368,1161.3341215929609 1290.6750822666577,1156.9849563471867 1288.3798659111849,1156.9653933577133 1279.7401822133465,1171.1787823954724 1277.4289459466013,1174.7194274401186 1252.5208968800503,1180.5628792198036 1250.7019087910662,1181.2199466769011 1232.2088146755482,1150.9474687769903 1229.4126120089563,1146.8915574461348 1234.1268349422385,1101.8446813699334 1235.8933942310755,1096.466563807487 1255.3409837777504,1104.4992253142768 1256.4661640800546,1104.9101453313265 1307.692014391046,1089.443193487044 1309.5101286666245,1087.680644711399 1284.7870367555656,1056.7072137458376 1276.8420346576963,1053.1228629324246 1293.1651589956377,1038.74617572144 1297.9714235999631,1031.861991611811 1268.6048876355412,1011.7865296054874 1267.5962157777753,1011.0871365615526 1289.2595046667625,956.2219243015056 1289.2740682222425,956.0390219058968 1317.3377485066662,940.8891931868052 1318.3478767199917,940.8896382354792 1324.7858420888438,943.5732657182157 1325.505573004462,943.5532387682829 1324.201843511058,963.6731767406814 1325.1618730933183,964.3246598606124 1382.1476096267356,981.7173022821439 1382.3008182311673,981.5121726699067 1377.1922142134058,968.5387835975048 1377.2338659822485,965.5684354773616 1388.8255823910945,964.2703696739986 1390.5199064444528,890.2804614064876 1390.5499073688184,889.2980114319139 1397.367981537805,888.8697740525599 1397.6589613777828,888.8711095134854 1386.1511310488927,854.1619772470217 1385.9055895022825,851.9572187002409 1392.6234664089056,831.3128067907887 1396.2363932711082,828.001756007237 1394.8446999022049,810.9470091163889 1394.0611806133306,802.733542663314 1373.97978512894,816.995138365171 1370.4274426578554,818.9197107638242 1292.8319448445468,800.179574999645 1292.24823753778,799.9720499116006 1290.5023584977966,784.1171794867619 1290.467697235617,779.0738083212996 1271.8578034044253,769.8997791018696 1270.5231991733667,767.6304863919863 1268.0549677777813,728.6025703843111 1268.001082622191,726.9743454946797 1240.0279876533673,723.7067224807465 1238.0782188355001,723.6505911102645 1239.2508763288856,742.7019161173735 1239.100289164438,744.3090889793016 1228.3818035466606,744.6707903482379 1226.215620293376,744.6560906736772 1216.070356222313,703.1496573841791 1216.09249282661,702.1797396317484 1172.725137093315,692.6090914321026 1171.1423698755457,692.2214627404824 1169.4416378577948,674.4419399993271 1170.1278725955412,673.0837880608519 1187.5785074045193,665.0456565705022 1187.9204596888517,664.9271254701666 1189.465652933322,631.4141345454041 1189.008648560011,630.8142572114953 1180.3217789422265,643.1011664193716 1179.7733154400262,645.5553465884072 1147.6932978044274,629.2994036931555 1147.465815066687,629.2485964220609 1140.2778265865995,613.4442928372077 1138.7804018044621,612.8933948179833 1142.4786711022966,603.2689486761005 1142.6111994577582,602.778644706857 1095.023907866656,596.7023508448979 1093.0240404178398,595.9182863496603 1084.7126192622595,579.9952453669171 1084.4463974666792,579.261940253818 1101.9640246311678,517.3987598753079 1101.9989771644828,516.8676875118176 1090.8776636000034,466.4068546104604 1088.1991344621415,463.363280238736 1016.4214858222764,484.5349649486957 1014.0010228889074,484.3106416502628 948.1087983200338,438.67639423066385 946.1968947466008,437.1254264605591 910.4989986399665,437.61520693576995 909.217988293363,437.5072590556588 893.439832204465,452.22827457558697 892.6898090933461,454.5017079844033 861.2433061244443,437.27039802613535 858.1205885421729,437.6598134823503 844.0926805600535,409.71338089628944 843.367415493332,409.61389566763637 844.4521091111015,394.7146948409859 844.1823920622479,394.1726190419063 822.7509549777966,392.6396303859433 821.6505327200063,392.143949874247 826.9534145688882,387.36421189128987 826.7189413244847,384.05630300849543 818.436356008962,360.2021056805165 818.0623639023175,359.4761008480341 795.4699201689579,358.57785062320863 794.5864948888553,358.0883406379503 791.3131901422527,346.38618468031154 791.09444553787,345.9261001828486 797.1793903199501,342.4247855113713 797.3028892711515,341.3211860097722 784.8892057867266,333.8935006839233 784.8475540177675,333.5886942597931 800.9656234934006,324.6786099992819 801.0666945689369,323.72532344252204 774.0189679199608,315.33613457045385 773.5080783911759,314.07574257491024 790.2413124533847,301.7151281099427 790.3872392800182,301.16255754212716 773.0050531822268,290.730854166824 771.5288911910972,289.26677855457046 781.4921108177874,277.15921437627503 781.4755083644774,277.0065487587485 767.9410136444272,277.5971230604114 766.6672850756219,277.2659016894536 763.3296094132598,265.23669311663934 762.6098784977581,264.4844830503348 751.8980921155086,264.12511769033836 751.5465278844127,263.65905789033377 751.8185751022316,252.02018911755977 752.2033442399476,250.8527414998748 736.19887049785,249.65671513198276 735.1634016977401,249.10356748165896 742.6173207022727,234.3220904209079 742.1000232089788,233.32421120900062 674.8790198311686,242.4701519046571 671.5267806133267,243.92650242118498 645.0834415199712,277.84888668024314 644.5131326844927,279.11662819426374 644.9080963111261,303.6120682183314 646.2167774133628,305.59691958872236 623.9505573245475,301.4656234775098 622.7953760977613,302.01551524413617 614.89639483553,284.4544541369319 614.8221207022212,284.2053763258514 621.5726199733105,258.5662635388212 621.6425250399403,258.1184955694839 612.1963116355251,251.64785659159634 609.9593495022051,250.4982647840293 611.5191063021554,232.50804534179724 611.533378586733,232.24104950534047 621.4004787467198,241.33524546834042 622.2844865689764,241.34506765779906 619.7775161155511,211.42152110420966 620.0338346933491,209.7323150096122 610.7076249867456,202.09567360245956 606.8750797066383,201.71655849452463 599.8504943200165,163.7687006327683 599.6466045422491,163.18720000112762 587.8734262310678,164.5846747356477 587.1970947111037,164.5971800623588 571.6295276356174,142.81539694432968 570.55065943997,142.34193366385398 582.4668518666655,121.57554699658749 582.554233200011,120.82329265037652 550.8793736799631,83.00490370210127 549.8870130043721,81.26779917037447 557.8975511021923,72.48422040596006 558.1445490044786,71.68935155860481 550.0262405955942,47.694041727495915 549.9371116355538,45.47896501623427 561.3575606310984,44.97758688234126 562.5695397244777,44.26528835358431 549.4104934667481,42.29237919921388 548.537262675563,40.8074350023885 550.0996409156138,17.027747433552122 549.4885541244654,16.40384852674424 533.2641706933279,17.94750348389016 527.3723386578273,16.953558974236785 527.7434180533525,8.54820211386641 524.0923346755804,8.062382604729919 481.62588048887085,15.435818497593118 480.45613570672106,15.32408807244019 477.81197656002007,57.01347468546692 477.77440258660465,59.02155168148556 489.715935599968,58.20429247178936 490.9506338400312,63.09261016260234 478.30305965335685,64.09572957052251 478.1737352800334,64.2092225251613 487.48567270229216,109.18625154000574 489.6402051110996,112.76498639086594 430.8284899821516,96.20117836018426 429.62932681779023,96.06893807263214 407.0129988533223,110.71272688577983 407.8594327021634,112.94635624971806 351.1815697332855,115.26528627347534 350.0674577333044,116.54959936321347 350.4283426400285,146.4257442999292 351.1195289867243,148.55494156320447 367.99344699559845,155.33723776965735 369.1570750844909,156.71913012027608 377.0397451644309,192.9529678312606 377.52296393781546,194.467251917034 392.1453562577732,214.49626266657242 392.2982735911861,215.23256893395546 377.0545999911625,235.97405054097862 375.6253326489601,237.45142816121324 369.99011046216003,294.2298661818854 370.43721161780525,297.07313517205284 389.52187736004237,325.8434348823862 391.1133827111695,329.33965771165776 404.0778598666435,372.1324275019356 409.20510523554515,379.15502757099557 463.2324010933295,414.05365909109923 465.79442178665306,416.4626572696502 462.51587416008226,439.54264757797455 463.6238694666896,441.9946345999265 459.295872026683,449.44454675206316 459.5186944266094,451.06590187570646 436.21234519998654,451.79115893037624 435.6825230489263,452.0810826694137 399.2200402755767,424.2395266268645 397.54843536890223,422.8905385064786 381.8375629066501,432.6700691926885 375.83126132444124,435.6627695449638 316.5651632622827,379.6377980038883 315.601929697768,378.5959584558509 270.9436603999708,383.58960455519946 270.8032677244406,383.4896613543747 265.75757826664596,405.54343909500267 265.60029186667055,405.92488029463084 250.34088962674252,405.1771656958513 248.80093926224038,405.32438893794415 266.38410242668,556.4342026996087 266.7831438488571,559.0877376635685 298.563152239985,575.8240663730899 299.7663932000065,576.5114671244878 308.28374303106796,595.3802711800449 309.4427107822627,596.6809551481051 293.1938605778629,609.8019221449863 291.1004951022111,608.2891528527612 287.2268805955315,633.2520843587477 284.3660157422779,635.7237550788336 265.505920026662,642.7540048984006 265.1965901066793,642.7165702472917 256.1412625333538,631.9609752397296 254.5043188889755,630.0031277605808 249.39105453339982,636.4332522662367 247.9041155110823,637.799206188974 257.3072207910951,651.1628251729194 258.2261811466666,652.6347479613391 247.57061008885614,658.5254601955307 245.94327839112486,659.0401491896841 242.89600002670306,674.2387524461151 241.59430943112932,675.7221063963148 219.50547344887275,672.662260200515 219.29604952000193,672.6003231637073 197.8448060001025,692.3457713261373 197.0636168799607,693.2368702470917 194.31634776000976,734.6485030165418 194.4337300177209,746.9906539930157 200.9704362933768,772.5013085194873 202.1448414133407,773.7875866827449 189.95339778668824,825.6996647891133 189.70115700443387,827.1699780446138 175.9904432622494,826.3528911790704 175.84684660446476,826.3542270183457 177.41738043560292,838.9138759455304 177.62709563560895,839.8400031988053 143.32992230225466,856.284348196386 141.10519355556573,856.9855675917711 120.99059316443856,846.3966948710508 119.63443487112056,845.8521665083604 110.46026868440788,884.018436437043 109.66160329778324,885.6931348648282 118.5817810755467,892.3352678749138 119.21937353778742,892.7826397972308 120.87816251556035,909.0810492277737 120.91544521772414,909.4945586938188 88.9181485777732,901.230008836173 88.04404397341534,900.5658758140412 74.57333762662131,912.0383593023648 72.75114555549919,915.3245590991933 73.60923024893384,924.2793498702008 73.3578632800851,925.1196634951407 98.75932560893818,941.3471478481438 99.08234527111165,941.8647378327219 99.81314448893647,967.6439009026285 100.04820027549397,967.8677331650756 130.24223746671453,956.9481921719048 130.62671533341165,956.9602076129881 165.68847533336486,974.2595392074795 165.85974274666626,974.4606707299022 136.5960254844755,1023.1135410038182 134.1234250222111,1026.4488035635218 133.71098512886203,1046.6252447095826 133.71418911111653,1046.8792456995357 121.94741876444425,1050.9409976678212 121.47439447997715,1051.316431269493 148.85853926218226,1087.6544042878445 148.9380562755756,1087.8234103515638 115.95014658661205,1114.7853373242901 114.25931778664346,1115.7294298704142 115.12351917333547,1136.8159281020412 120.30435842669215,1137.8163972883845 115.19080279998127,1158.7251662533158 115.22692041783705,1159.5632542780145 108.21311206228677,1160.894851787983 108.24427807107679,1161.134049421678 129.6419277066376,1211.2735812357637 129.3882305688236,1212.2448206150798 192.6823168266343,1228.4881108309269 194.95743547552377,1228.1209787254115 204.6174418756051,1252.8708061991852 204.62705382225215,1253.4294419930443 196.81108482668753,1262.4051967310147 195.70279824882857,1263.8308314041128 194.7168455377465,1287.9079138632292 194.88607405333426,1292.3740304200687 215.46088280002698,1293.6350665903078 217.897948186706,1294.2047077720995 213.04158495108243,1318.780082942139 213.24809616895038,1319.0675370357126 228.05544564451668,1311.038674741903 228.39477648886498,1313.1868716136446 216.22721709332075,1322.8061833492607 209.762163511106,1328.2805315017245 212.25340532451048,1341.5015760336314 210.54306135999616,1349.6283941945653 234.60380276441686,1363.755215066812 234.8175957599666,1364.302021534451 189.9889328622736,1353.537547614927 188.10499131560903,1352.9960451469883 159.00030807997211,1359.6099249648755 157.61152742230445,1359.5583970805524 164.79456429332606,1389.859605916928 164.8898099466238,1392.6097350480627 159.46342914665695,1416.2184881165517 159.5589660710899,1416.4414222436967 144.27917485332694,1410.8449082718357 144.14926793773304,1410.8355821106593 144.90861172448024,1431.272698118271 144.27334943108838,1432.0711199235297 87.05750871994644,1461.413563498099 86.49652055997979,1461.7550002666317 38.54047974231764,1466.0839642915303 36.09496749341599,1465.6648354802523 19.020072417777214,1493.8334967634069 14.757902248856794,1494.9526572198733 17.509831706621867,1512.5037794510495 17.448956044485044,1514.6264931966211 8.052549999999997,1553.0484401391946" stroke="#009edd" stroke-width="5.786667059530245px" fill="none" stroke-linejoin="round" vector-effect="non-scaling-stroke"></polygon><polygon points="890.4312928977666,1578.761725947646 895.2139645422354,1589.846274519608 895.5133912444359,1592.2717636250086 959.9448911911819,1591.6762654699046 961.0581293777574,1591.1939196639355 953.8558686133252,1575.5248744094638 953.357212471055,1574.071959098604 939.4332882755913,1569.0252896850357 937.0434088088583,1568.494521771186 935.7399705867061,1554.039482184256 935.6339479022205,1553.9595953948806 897.9061834221717,1552.5651224570242 897.6154948533291,1552.584650464683 899.2556424800783,1567.4689289919693 899.0942782844428,1568.87040854412 890.4312928977666,1578.761725947646" stroke="#009edd" stroke-width="5.335059979773479px" fill="none" stroke-linejoin="round" vector-effect="non-scaling-stroke"></polygon><polygon points="937.3923515999701,1494.5935143188467 943.5081711199379,1497.2491158992993 943.5984651644027,1497.6801709208298 939.9398087378137,1514.3024499652452 940.2925380533339,1514.9603016180113 949.0111562222952,1515.6563260676699 949.540395831085,1516.278218509316 946.5094286489544,1526.866989525653 946.7488535021909,1529.1267198708733 966.2016859289503,1530.2874248715593 967.3970625689032,1530.4121503619604 985.3108184444496,1546.4367934394754 987.7362329866515,1546.9405406784858 982.1627602755103,1516.8743635835485 981.8441096800158,1516.404727464345 992.4111343200562,1513.7360390120662 993.7460298222501,1513.8079502008982 989.9664958844438,1505.9792590404754 990.2376692888571,1504.7074478774225 1018.7408776799926,1468.5587616500338 1019.28438957336,1466.913783715317 1009.0325202756572,1459.312983170828 1005.4268751911364,1458.8840733837346 937.3923515999701,1494.5935143188467" stroke="#009edd" stroke-width="5.366581738656527px" fill="none" stroke-linejoin="round" vector-effect="non-scaling-stroke"></polygon><polygon points="977.7811689511651,2155.8119576274544 997.8302333422249,2187.171813969711 998.2808297511434,2187.865285920248 995.6684191556193,2204.837191803184 995.4103529511264,2204.867282680912 1004.1362528977694,2230.5058812111743 1003.757309182292,2230.827550636524 1020.542972044415,2235.125575729449 1021.2420227111794,2235.4658214286096 1024.8491241511433,2275.5863755660025 1024.921359386622,2277.4191141500264 1032.2407111377465,2279.2031774925194 1032.5922753688424,2280.5046101321127 1105.9340498755696,2259.875428656385 1106.7306763644806,2260.137331134443 1104.7520717066723,2248.630141600653 1104.5400263378174,2247.4108134744815 1113.87468290676,2239.9703774950244 1113.9259466222497,2239.614210742387 1102.8302649155735,2219.515745008633 1102.9304621778206,2219.140076081246 1126.1307887200742,2219.6250384404334 1126.3509896800165,2219.683888727602 1144.5938819111102,2210.2123312945255 1145.3634201866585,2209.4937065432673 1143.0038329155427,2197.7776704962375 1142.6111994577582,2197.4572806946594 1160.2916471733256,2196.837298561913 1161.0306019822378,2196.7191433119947 1207.3459126311132,2208.659585607041 1208.1361311556316,2209.0666901165746 1197.8659117778075,2222.5808079850754 1197.6407592089158,2223.1290369556878 1212.651124648844,2232.652252546664 1212.722777342285,2233.772551904119 1195.5986574488702,2243.7045634112214 1194.1487098576977,2244.954882223428 1200.2892874221793,2261.495060474415 1200.1567590667178,2262.1161890136204 1218.1666344089676,2265.531480093406 1219.0960805244754,2265.46600609579 1236.8976970222789,2260.2625310272338 1238.1376381421937,2260.497888938385 1238.039771048912,2251.9580414956795 1238.0438488444556,2250.533890502447 1262.9399557956272,2248.3235404931834 1264.9616685778378,2247.897483704822 1258.0506789244023,2274.829476210674 1258.1948581244574,2275.078089843191 1287.9388814489134,2278.65199059822 1289.2927095732662,2278.5268010885698 1292.344065733348,2250.1109349197136 1292.4177573245029,2249.7976995120766 1306.4311017511423,2238.63862062028 1306.945195262298,2238.6541062113024 1304.116661502259,2260.548765145744 1304.5349268177301,2262.429849416752 1322.672961448879,2273.5864038668 1322.889667155548,2275.3749217689397 1302.7092394933347,2280.858941760998 1302.555448346749,2281.370753114264 1321.8824516533418,2323.4683898293074 1322.5835412178199,2325.725756271429 1352.3057192088813,2320.007108961268 1353.9560613244316,2320.008435810603 1353.8063479733896,2331.810005118757 1353.9135357422997,2332.4623370771656 1360.6477238310977,2334.255244996027 1360.6424809511295,2335.0765105073583 1373.4319041688937,2331.328826146236 1373.9946399555552,2331.201897327824 1377.2434779288956,2319.3613746320257 1378.1012713510786,2318.7174075652506 1404.5373286666359,2320.7390863554097 1405.5273591732616,2321.1052952869572 1415.9612729155701,2313.1834596472686 1416.3335173955197,2312.6628757586946 1413.5632378577498,2300.712109739637 1414.4705473689605,2299.1569014446936 1424.9434914400113,2298.223151974998 1425.2988421955156,2297.7852482166268 1414.287629111182,2286.016371370795 1414.3665635821885,2285.891628370074 1455.8126950666551,2272.1920311511853 1456.2600874933191,2271.4280421282524 1451.1340072089583,2273.1904772263147 1448.1706149244924,2273.750082830003 1446.6752290399522,2251.130274200033 1446.6204700710728,2250.6882956344994 1435.791301431112,2244.201417767886 1435.273712666683,2243.830215018919 1398.6038448621762,2237.271017444356 1397.7507117778073,2236.9192708442347 1393.8782623555521,2200.0102081228174 1394.1039974667142,2199.1610056772256 1361.3546388178142,2174.34197025383 1361.1318164177715,2174.5459966906706 1357.361020613323,2161.1444686433892 1358.2403680977654,2159.687424088748 1387.7551610577862,2139.572856956896 1387.827105022246,2139.171821808362 1369.4825591733456,2110.137781961275 1369.260028044438,2108.3328783677784 1319.5039317599508,2069.920849669644 1318.9644976622435,2069.584777573043 1277.9025527733388,2072.043981106522 1277.4143823911213,2072.8485075580898 1272.348012684473,2066.579588485801 1271.8921733955863,2062.9442603403363 1236.7762369689076,2054.8577659795187 1236.2606871021922,2054.768317835907 1231.5173370578336,2042.4174850930353 1231.1529568978362,2041.7682845621962 1235.9303856622205,2040.6350575216707 1235.726495884453,2039.8848837169712 1224.842859546748,2034.4236835750412 1224.6363483289965,2033.7567454334708 1231.4733551200256,2013.5412785082367 1231.7914231733662,2012.4676982083251 1227.9111094311588,2002.3268909810936 1227.5021647911994,2000.7943910913668 1191.061527351128,2008.9966853736328 1190.4545183555233,2009.5489861925957 1187.562196222228,2002.212618233672 1187.4914173421926,2001.8232931984016 1168.048196862313,2022.277211915563 1167.8853763111179,2025.647927882244 1144.099012293365,2035.8518810095625 1139.8764549955736,2035.5148715300961 1131.8408675822207,2016.6818253319138 1132.0287374489485,2016.1995188910291 1111.8826797777797,2019.623030405411 1111.0534309244026,2020.3369565409735 1090.836303102296,1988.245652847028 1090.1223976089163,1988.404227339 1089.0196451822771,2003.9984553619065 1088.8335229422441,2004.4989478076236 1072.9368195110942,2020.1199444973968 1073.3778039733656,2020.48576467645 1053.6657402578053,2021.1447709323033 1052.5530846133838,2021.4725018081149 1037.9551590666883,2042.6482032410927 1032.6278104444277,2043.6157997671758 1041.1527333244226,2052.0835282806433 1041.4993459466855,2052.931523218787 1027.815137875477,2072.3840344705745 1027.7245525599933,2077.22619606139 1040.4297984266664,2083.725489312004 1040.7577696977892,2084.165587161587 1043.42202655119,2106.4004597707894 1043.2650314222333,2107.453663198546 1060.990334888898,2110.5238178096256 1059.5497079733536,2117.2594153512396 1039.1359721511612,2142.5053490961213 1037.1439690222974,2144.3117449417837 1009.3977742489438,2138.8509046381 1008.6148375022236,2138.780081475888 977.7811689511651,2155.8119576274544" stroke="#009edd" stroke-width="5.243758090955358px" fill="none" stroke-linejoin="round" vector-effect="non-scaling-stroke"></polygon><polygon points="512.4563450577913,475.2224572367045 523.6260096266411,493.46222251203244 524.0926259467157,493.496560850333 519.0559658932976,506.5978073262154 518.9808179466996,507.8637873272305 523.5925134488858,522.2381034038622 522.7443319733499,524.9522450524742 554.1529696978174,528.5264604462204 557.3755932712007,527.4567880393365 622.3179827467317,590.5897832739643 624.6225197777163,592.3148523244668 630.4048338755744,608.274444084534 630.6157141600048,608.4901725877203 620.6717184266087,609.8460481412253 619.902471422312,612.5764941202137 630.0072488088405,612.7284817128452 632.0604188712092,613.250854692807 632.3811083644174,623.9471944569736 632.9333583911426,624.4838028583686 620.8458985511458,637.5986588346782 620.3588932533527,638.0327322116714 685.9741189955745,649.0514031815469 687.6323254311934,648.6944469802906 688.4356511556322,622.3431554107588 689.1125652177503,620.4993206179711 707.5308026578056,618.5788101159628 707.6502238133468,618.1344473312852 695.4855771289218,609.3508558994286 692.1755722223094,608.7388841125426 690.6391171110805,556.0093309794679 690.6263011822954,555.8033592947536 723.0127360266412,537.9954432904847 724.8267725066759,536.9521228416484 725.3781487199955,549.6152024797989 724.5480260533292,551.4886094989847 717.7803417866595,548.4301595474021 717.2904237778636,551.8666773331711 724.2547160445025,559.9481680501844 727.3829677777609,560.578553776933 757.581956577698,542.7175212240322 758.5140241333062,542.7384763061777 746.2142276533192,518.3480875535529 746.2753945867076,517.2574082461429 772.3129930222418,450.1519675385566 772.313284293377,449.91735030365044 750.6607724355778,443.8381790032504 746.9986207555991,442.95989906628483 747.9630194044217,426.76573448003137 748.3195352444669,422.15314170733427 773.1559316178096,406.3384421122969 773.9470239556173,405.940048702912 776.5646774311095,367.0247385631442 776.4149640799511,355.6729030615311 789.9398468533542,355.7438538500933 793.3558744444523,355.17133834484366 797.1793903199501,342.4247855113713 797.3028892711515,341.3211860097722 784.8892057867266,333.8935006839233 784.8475540177675,333.5886942597931 801.3518489866761,325.87869193798497 801.6343819644313,325.37973713249767 774.4686905155901,315.8266321969345 774.0189679199608,315.33613457045385 790.2413124533847,301.7151281099427 790.3872392800182,301.16255754212716 773.0050531822268,290.730854166824 771.5288911910972,289.26677855457046 781.4921108177874,277.15921437627503 781.4755083644774,277.0065487587485 767.9410136444272,277.5971230604114 766.6672850756219,277.2659016894536 763.3296094132598,265.23669311663934 762.6098784977581,264.4844830503348 751.8980921155086,264.12511769033836 751.5465278844127,263.65905789033377 751.8185751022316,252.02018911755977 752.2033442399476,250.8527414998748 736.19887049785,249.65671513198276 735.1634016977401,249.10356748165896 742.6173207022727,234.3220904209079 742.1000232089788,233.32421120900062 671.5267806133267,243.92650242118498 670.8658864622481,244.3881394156847 645.0834415199712,277.84888668024314 644.5131326844927,279.11662819426374 644.9080963111261,303.6120682183314 646.2167774133628,305.59691958872236 623.9505573245475,301.4656234775098 622.7953760977613,302.01551524413617 615.4655385867005,284.7258504276756 614.89639483553,284.4544541369319 579.1658763645461,286.3278852047292 578.6421709066268,286.39350187246555 572.7768445422186,306.6877545063394 572.7072307467239,308.2017030173806 582.4814154222619,308.8961877086326 583.2946443643665,309.2318247694416 581.6370204711344,335.90396294432094 581.0905958666477,338.3637976906971 566.1312028711906,337.3985211112081 564.983303422319,339.24294096409676 571.3178675466694,345.41469572418237 571.6542856800148,345.8015960653206 567.1748272622714,363.7209864105457 566.8451083644537,364.33140788178525 549.9697340000199,380.71532708578843 548.9855289156327,384.13349108948705 545.591637928948,439.04885682356644 544.9930757955659,440.74121186152433 530.7778804888727,452.06101103829087 530.6977809333254,452.14397376860825 530.4598124355322,466.41978881977366 530.699819831039,467.19628599778616 512.4563450577913,475.2224572367045" stroke="#009edd" stroke-width="5.517265035450567px" fill="none" stroke-linejoin="round" vector-effect="non-scaling-stroke"></polygon><polygon points="385.5626291467121,1212.3074954123363 445.7925433155393,1262.0403429876674 445.9699274222145,1262.1825515828455 482.3214359022455,1260.3480536792554 483.66419572439156,1260.534703871213 482.9499989599932,1269.8705675446322 480.8971201688761,1271.035300850846 456.3551988889009,1272.491986516899 456.26140959104634,1273.4589574218621 475.9026944266876,1277.2294814003758 477.5373079022171,1277.122832224973 495.4708702133281,1266.434546302225 496.92780831116363,1266.4972057296322 530.6275845955603,1278.8021063896372 531.8046111556247,1279.9650151557648 539.7370885954948,1298.278354799993 539.7129130933678,1298.80443986602 507.96232308445144,1294.1851569289934 503.7254935021989,1294.6312711901624 520.2193027110549,1305.064933754947 522.0537281689245,1305.2648756337944 515.6064421244442,1310.0234389645989 513.03277058676,1310.6396898592134 463.6346464977611,1296.7938461838417 462.55665211551934,1296.5530180453566 466.43405314672384,1314.0057134457525 466.2645333600009,1314.426462789335 543.5157487200119,1317.8386348465933 544.7501556889398,1318.0234593289565 570.079674053333,1335.3012000979284 570.5975540888973,1335.7516739090565 583.7062104445428,1324.9826994739483 583.7356288267544,1323.7156222712142 580.5430061777366,1310.7445456443015 580.4037785866309,1310.5805973821912 568.4086516889289,1311.3021465468114 567.3306573066872,1310.6530189871914 553.4594531821564,1292.5206629026575 553.3173128799314,1292.3473699582169 551.4659936978493,1252.236172891549 551.1281192088278,1251.108227682103 535.4457913156144,1241.3497946303464 534.71353574223,1240.867128332589 545.0070568088919,1225.444807258296 545.2074513332697,1225.2523492332907 546.4208867822086,1204.947307944683 547.0354688266303,1204.9246375840517 538.522779333383,1157.7754775185963 537.6597430311155,1153.2457261893792 506.5420851467421,1126.240914019501 506.1884820178162,1125.971440641944 492.23077037334554,1141.4749633528186 491.3869579643721,1143.4216088308963 480.7852720622683,1120.442272388645 480.0969984266918,1119.294087714086 444.16637670223247,1126.8536756904573 442.87750203556027,1127.4508721127418 434.90512045330945,1109.6272211079845 431.8042482044326,1103.220209631872 404.4946688266715,1111.1276632348668 400.31288948443364,1112.2727774422742 408.4839179644838,1133.5436952327505 408.99684639109876,1134.3480847328096 389.26410242668464,1150.362340803294 387.4037538399931,1150.7367161747893 389.28623903121445,1165.0772162059216 388.47126246218215,1167.7541190631232 415.265000702209,1184.3692198597487 415.6669548355054,1184.647513157142 392.428763048934,1196.8885149088815 392.06613051551506,1197.1005570814955 400.1331752089096,1205.0442125977493 401.28165720005165,1205.8105579892067 385.5626291467121,1212.3074954123363" stroke="#009edd" stroke-width="5.893392090009204px" fill="none" stroke-linejoin="round" vector-effect="non-scaling-stroke"></polygon></svg>