<svg width="2695.6719792356016" height="1659.1332759695943" xmlns="http://www.w3.org/2000/svg"><polygon points="5,859.2467400948517 53.52926236449275,873.7886913331458 54.62473301333375,874.3279694911325 108.24279296002351,911.7627168318722 108.61736760893837,911.8677185864653 200.77088682667818,908.9413852273719 203.79981511109509,909.0206913648872 212.12492600898258,903.0248014521785 214.08838456892408,903.9215590735548 245.57275278214365,931.6603247862076 246.926289635594,933.0699643819244 246.2150055821985,941.8301727604703 246.76492543995846,943.0315457512625 260.63350812438875,959.4744621597929 260.97516913781874,959.8833046855871 277.45295843551867,961.6967314508511 279.8008948622737,961.5966257195105 281.8528998401016,956.5403415468754 281.53861831105314,954.9262042759801 277.19518350216094,951.6146168971318 277.4497544533806,950.6888164926786 285.76612721779384,949.8462904650951 286.0600197688909,949.8214841822628 334.37199388444424,975.2473521452048 334.9921100799693,975.7606941139675 381.0915888355812,1035.3281883583404 381.1247937422013,1035.9388065403327 406.7141259377822,1053.6765524263028 407.1443333688658,1054.0621975801187 423.6372687644325,1080.6399883500999 424.51020828448236,1083.8394151345128 435.53307221329305,1090.2062565439846 436.6029110044474,1090.4200751187745 487.9295411199564,1067.6602984795463 490.5107857066905,1067.6691531557008 505.77776099555194,1071.8538335015764 506.8411918221973,1072.2301498037996 503.26263495115563,1079.2206623275997 504.5952002845006,1079.6182161973557 620.2106075022602,1105.312053444446 620.275852231076,1105.3386129589053 669.7814553600037,1052.8446015252266 670.0706875732867,1052.4784358757315 695.3486509510549,1005.0387060057255 695.6308926577913,1004.7915905676782 770.5644637866644,1015.6613092391053 773.1276495644124,1016.5204127657344 798.1859945243923,1012.6123505026917 803.0647856355645,1012.4046566527104 831.1456509155687,1020.9921256764792 835.5846226488939,1021.7830134175019 859.4056479289429,1002.7663850238314 862.7159441066906,996.2287375286687 874.8925329066115,994.4244510264252 876.2454872177914,994.8642306077527 885.7572366222739,1000.8288487247191 886.3339534222614,1001.1986426754156 881.9727510756347,1003.218105336593 881.0185469154967,1004.1715864632279 881.4056462222943,1011.3962980296346 882.5232534755487,1013.4205390041461 907.1586727822432,1038.4087155627203 907.2166357333772,1039.0228675836115 903.5451633777702,1046.8459615381435 901.8986077866284,1048.388142906595 876.624722204404,1061.2476491072448 876.2178164622746,1061.6602885804023 879.6434560000198,1072.2810631368775 879.7503524977947,1072.4435429995065 921.5375624533044,1080.3938426296227 922.5669145600405,1080.8458474207437 941.2962295466568,1104.2828698074445 942.6652037688764,1104.5090692875674 971.0111257600365,1095.7575042452663 972.7252562488429,1094.0425642565824 973.2209996799938,1080.9804304516874 972.4517526755808,1079.2268602775875 961.902204302256,1072.282391310553 961.9394870044198,1071.4465257248376 975.5686448354973,1070.70362983027 979.1839018666651,1072.7751432216028 989.4456743822666,1088.467368216603 990.297059840057,1090.2027150337817 987.5637717334321,1122.7321980515262 987.5072651377413,1124.175589594175 1000.6779622399481,1149.7938935136772 1001.6537204622291,1150.3316151336767 1017.1272069689585,1146.3931613033055 1017.8763562666718,1145.577048621606 1027.3537356799934,1119.4771186539438 1027.5002450488973,1119.2965254138107 1038.9885602133581,1121.551717208 1039.6896497777198,1122.2408850784414 1061.6223644444253,1164.0663091409951 1061.588285724516,1164.3690071672318 1055.9064601600403,1170.1755072734668 1054.7102097066818,1170.7038863652851 1040.4437506844988,1167.8716889112839 1038.6771913955454,1166.9618377996376 1026.721094826702,1144.270111370599 1025.6195074844873,1144.593637699727 1020.2123505778145,1164.182254925021 1020.0032179199625,1165.3191399534116 1026.1752527643694,1182.3960534949438 1026.8274087822065,1182.9637862790842 1066.640091875568,1179.0515778556 1066.8393213156378,1179.0210445695557 1103.264230115572,1164.4973439249443 1104.3139712000266,1164.682768281491 1108.5004108799621,1179.9870448994916 1109.9337560177082,1181.263681113487 1135.792513991124,1186.5015739475493 1136.5603046399774,1187.7255158607732 1125.5738496000413,1199.420325054787 1124.8704298667144,1200.7623346414766 1124.3420640710974,1217.0131471810164 1124.2270119822351,1217.8104146897094 1117.0707720533246,1226.833672584151 1116.9198936177418,1227.537112905411 1146.2159419733798,1250.8577717940207 1147.2106328178197,1251.6407618864905 1163.9124095999869,1250.4649486044655 1164.2709643377457,1249.9071207846282 1166.7316226845142,1213.9811153159826 1168.3656536177732,1213.5280546078575 1185.5911358578596,1217.857312689186 1186.0755197155522,1218.1515310443938 1179.9445540977176,1229.4616080396809 1179.2513288533082,1231.707273656968 1181.3149846756132,1235.9711443230626 1182.586674346705,1236.6002330537303 1215.4487549156183,1233.2406484989915 1216.5625756444642,1234.174117315677 1220.9313510400243,1247.480708269868 1220.9505749333184,1248.6423814577865 1202.1749478400452,1268.2642719276482 1197.9369531733682,1274.5930870545562 1191.6964696177747,1310.4332077121362 1191.0714018134167,1312.956225266098 1218.6748737421585,1341.8435045594815 1220.0397701688344,1343.0285615127068 1245.0716094578383,1348.9298739955993 1245.8551287467126,1349.5891521904268 1298.0302316088928,1397.4406185272965 1298.5973364622332,1397.9260172231006 1321.2005572266644,1427.2261283717817 1321.3700770133873,1427.5302354823798 1398.7482865777565,1459.5510888192803 1399.0462569245137,1459.6699738919851 1490.8811255466426,1508.078306109819 1491.6829949155217,1508.4719989468576 1526.504164977814,1536.209016498644 1526.8781570844585,1536.7617068941472 1571.8180855467217,1558.042112160707 1572.2436326399911,1558.2174892125186 1636.8950422755443,1577.4021068856819 1637.4688463645289,1577.4970761163859 1663.0538094933145,1575.4342469408875 1664.112871253281,1575.3838906999445 1663.4033348266967,1569.490364718251 1663.3663433955517,1569.1475794983562 1678.2805893688928,1564.9846404542914 1679.0719729777193,1564.8764135997044 1681.3275764622958,1571.4383995374665 1681.4199094044743,1571.7749970189761 1737.3279428266687,1587.7296622557915 1742.479654968949,1589.1881406176835 1743.6980420266045,1579.7542398248916 1743.442597262212,1577.4480454954319 1774.3176263110945,1587.211992889177 1774.3694725688547,1587.2252438266296 1781.501245724503,1578.0540808787337 1784.162589866668,1578.1486081145122 1785.7200164977694,1563.3135235871305 1786.2611982221715,1562.5117540896754 1887.2824664177606,1586.7062481869943 1888.3109447112074,1586.917380176601 1932.6575539199403,1588.3109346108977 1933.168443448958,1588.3498038325924 1988.7875359288882,1600.8763811035315 1990.6359423999675,1601.0879412873182 2060.3822663110914,1602.9261655463488 2062.1995067733806,1602.9853488712106 2100.8080750934314,1613.7961993251229 2104.0012802843703,1614.5478779072873 2112.774657422211,1602.8568238695734 2119.346898773336,1595.4322808068828 2145.493432604475,1594.7414897544077 2147.2352338489145,1594.6478529501474 2199.8425830400083,1609.6747295749374 2201.79147804447,1611.6528856098885 2207.160478435573,1608.243326819851 2208.7505274311407,1602.5887319599278 2217.98702563555,1603.5846895632567 2218.272180053289,1603.336031830695 2224.7494670222513,1606.06639330677 2227.0965296356007,1607.285814363975 2241.775428551133,1628.5391461197287 2243.5317933511687,1629.4744862276712 2298.8438860800816,1638.8833115903544 2298.6533947733697,1639.99612854945 2316.5051099022385,1635.267942761071 2317.131051520002,1635.3257926586084 2328.8791805155342,1589.3391999125597 2328.8943266132846,1589.2044832949177 2335.402197048883,1581.427441475913 2335.7083229867276,1581.0586137900827 2332.231128462241,1578.7113535351236 2332.20025372447,1577.6357752917102 2336.0642562845023,1576.497467712732 2336.327856639982,1576.5164616395487 2343.406327182194,1595.791809314862 2344.2917913600104,1597.085488773184 2354.3106437688693,1593.0639715881553 2356.487604053342,1591.78970300348 2376.325205617817,1607.6068994899979 2376.6898770488333,1607.9589001192362 2367.1792927288916,1623.1191303299274 2361.4561066667084,1629.4100105959224 2381.150111573399,1645.2479310926865 2385.9091902577784,1641.4476397485705 2386.2237630577292,1653.20996203291 2385.6933583643986,1654.0343654302415 2405.0060893866466,1653.9504680631217 2405.1878425600007,1654.1332759695943 2433.73037255113,1642.563534970337 2436.9299857066944,1641.1901926072314 2437.8271007289877,1652.1263548401184 2438.7923731910996,1652.2623579890933 2455.6694951822283,1642.5445466933306 2455.923483591061,1642.1691966981161 2458.108016924467,1636.2209185410757 2458.0442285510944,1635.7157270706957 2453.433989404468,1631.6741539263166 2453.5912758044433,1631.2237118033809 2469.4460361956153,1621.3270027888357 2469.762647893396,1620.848716921173 2469.8444950756384,1605.727639509947 2470.1698449066607,1605.4683842991944 2479.6984880355885,1605.182187394821 2480.3649163377704,1605.1684958670521 2487.6507719111396,1617.622578960727 2488.8595470222645,1617.436649526353 2503.812532053329,1604.495401651715 2504.1996313600102,1604.1023207526887 2504.213321102201,1596.8602327349363 2504.554690844496,1596.5943419799441 2512.5748408888467,1591.8471225424437 2512.860286577721,1591.7698270056862 2516.8885660445085,1594.4075771962525 2517.293432888924,1594.7224973869743 2515.3375473777996,1598.8212776366854 2515.501241742284,1599.0107560574543 2532.3789462755667,1587.1965334612178 2532.8729420800228,1586.7967964498093 2530.7944314311026,1582.1973396886606 2530.5701526756166,1582.1235744563164 2536.8860754489433,1559.309948181035 2539.497029688908,1550.0068673412898 2546.09752433782,1542.6879105419503 2546.2880156445317,1542.2735143885366 2542.1519658666803,1540.3711698796833 2542.3462436978007,1539.821139225387 2568.333160959999,1504.861575282819 2568.6372480000136,1504.5319461111212 2595.4108885333408,1495.002093210176 2604.822149404441,1488.1108447953593 2613.581254257704,1469.2212311672047 2617.2559305955656,1449.7010846005287 2606.928622080013,1441.3198173274868 2605.5025587200653,1439.7202556299744 2606.846192355617,1433.591957990313 2607.042509084451,1432.5819770768285 2612.393159395666,1430.9916345730308 2612.7048194844974,1430.5257566501969 2618.9802555732895,1408.2265637363307 2619.2994887110544,1407.6333260640968 2642.2120393955847,1377.4278286101762 2642.4197156977607,1376.9874809546163 2638.960288711125,1355.8935391452396 2638.8892185600707,1355.4933852483518 2642.704287573346,1343.3261513126781 2642.620692764409,1342.9653291560244 2681.3029526756145,1316.5812714080093 2683.158932195627,1315.6636277782382 2681.1410059377085,1311.4459561557742 2680.595746417879,1310.316453882493 2684.7961671111407,1308.5173757365556 2685.8450343821896,1308.3117279688013 2678.357036657748,1302.9113051095046 2674.8355689244345,1300.4363806231995 2690.450030648848,1292.5240439595655 2690.6719792356016,1292.442663513124 2648.9922483200207,1262.0179948481382 2642.899147946737,1258.7959246248938 2585.9812775822356,1244.6627628727583 2583.4113925688434,1242.74326590274 2594.286582044442,1221.0605110611068 2596.9458872888936,1213.5599104691646 2597.57881941332,1182.4858819278888 2596.7186958222883,1175.2092184063513 2581.147924764431,1141.1994645070517 2578.14957994665,1134.1029120378662 2568.477922702208,1124.3645886494196 2564.7831486577634,1120.1353089477634 2579.0423259022646,1101.0000740644755 2581.014522595564,1098.0580882353825 2599.165081884479,1058.6132910110755 2599.6914087821497,1057.4940114020137 2592.307977386634,1051.1638652152033 2587.0260670578573,1046.5315907776821 2600.2381246577716,1052.9544068257092 2600.3223020088626,1052.9898278788314 2617.3319523555692,1007.090462071239 2618.2488738133106,1004.9917629508418 2597.755620977725,986.5281995923724 2597.126475377823,986.1225065169856 2623.666225208901,944.4893978086766 2628.158790826681,937.5141245182604 2559.62648490665,893.443357619457 2558.6530568533344,892.7933551782044 2544.744861297775,891.5332223115838 2538.0866949688643,891.2367976102978 2533.4342215111246,816.7086205832893 2533.2067387732677,813.2185551532893 2540.1520984177478,790.2108478961745 2540.362104888889,783.1757435754407 2531.1998808177887,748.8614442254184 2529.0121435022447,745.2780862356303 2533.18343708443,722.8344466193812 2534.544255715562,716.1470727376291 2611.0527297422523,741.2880849728826 2611.1342856533593,741.3146881753928 2625.132192711113,699.0687642251141 2626.3767941689584,695.0579732675687 2516.52855495119,650.0091901732958 2503.8876800000435,644.8180337312515 2526.2811855644686,602.5070976091083 2607.746802631067,521.4652935371269 2608.4921654044883,520.4768875901937 2570.4311867733486,491.7707997926045 2570.403516017832,491.7517126488383 2604.572238791152,433.96737701736856 2609.9773567999946,425.7376265822095 2596.0781906489283,420.28721861122176 2573.339820088935,399.7893736951519 2672.3431620266056,307.85140697611496 2675.5899611022323,304.62430447968654 2665.910439537838,297.2516378845903 2661.3791348623345,293.9617365231388 2666.225303608924,285.448195221019 2668.1310904889833,282.179000626842 2629.223095466732,249.57060299848672 2627.249442417873,247.8757554537151 2614.61206272,243.84744083526311 2613.7286374400137,243.29151431994978 2614.577983999974,236.9091466430109 2614.999162026681,235.79636849858798 2574.0627549866913,225.5215707140742 2572.9468953600153,225.2420290982118 2569.830003200099,205.89635683922097 2569.467661937815,203.05000719911186 2574.041492195567,201.85527612437727 2573.2337974044494,200.18495302542578 2552.580927999923,197.1851846014033 2551.566430720035,196.01131243695272 2559.4473531733966,182.77426086959895 2559.661437439965,181.74122187116882 2516.326704071136,174.45469256327488 2513.8707060622983,174.73029772774316 2509.4591138133546,166.8362962762476 2510.6641023999546,162.15079429140314 2489.590346239973,161.96808437345317 2488.161661440041,162.14279240032192 2440.170085546677,187.45176899712533 2439.1092761600157,188.16429908014834 2405.144443164463,246.02625045803143 2403.893433742225,247.30695210571866 2403.051951502217,234.56492896412965 2402.9383557689143,230.43904544378165 2396.556023182231,217.40894256264437 2397.228859448922,214.22318572044605 2382.448598186602,200.64720442838734 2381.7105171910953,198.55728702194756 2384.5906059377594,186.66056009888416 2384.2303035733057,184.67407987703336 2357.463944817777,149.1148848318262 2356.4246894932585,147.60243302362505 2349.213108053431,145.3190646439325 2346.0790308978176,148.46446958254091 2342.5103772444418,164.62825473363046 2340.0695253333542,165.9307663058862 2321.9545011200244,163.34085008339025 2319.164706417825,163.02788870339282 2312.349253688939,153.63350632693619 2312.571493546595,152.4865214303136 2298.388046791195,146.975131484156 2294.5342387199635,145.95126128941774 2290.44420977775,119.21736671752296 2290.1474045155337,117.96882556146011 2287.7499519999838,119.31429732404649 2280.1471934576984,123.54896725143772 2261.4869097244227,94.15670995140681 2258.1145727999974,91.56728609465063 2248.3963121778797,98.65466668520821 2248.1367896177107,99.85084539430682 2198.848766008974,105.503924998804 2197.681933937827,105.43855945253745 2192.4285681778565,113.23693280399311 2191.2946497421945,113.50149817357305 2171.398502684431,106.49507774866652 2171.2901498310966,106.25629438384203 2159.1951169421664,123.14302225614665 2157.0790323200636,126.88586908829166 2146.0351968711475,124.9397567154956 2142.756357973325,124.42087944527157 2150.8003922489006,112.95813836564776 2156.3674569956493,102.81058166979346 2133.6034545777366,94.51334812457208 2131.556401208858,93.76004936161917 2128.7118475377792,80.1504242218216 2123.9128647111356,73.64282014383934 2137.7942633244675,26.25911961350357 2138.3794269866776,24.325909933715593 2097.2866073600017,15.269046467146836 2095.884428231162,15.481682392535731 2053.023010417819,44.91154389694566 2052.3126001777127,44.89375247491989 2048.022467982257,37.08362456521718 2047.7562461866764,35.6451324748341 2056.0076654932927,10.994931971421465 2056.2491292444756,9.705741728190333 2052.943784675561,5.7202367763384245 2049.7977654044516,5.000889731803909 2038.1148811378516,5.767837271094322 2037.6669061689172,5.951566187373828 2033.3715310933767,13.499444985529408 2033.1021053155418,13.669822014751844 1986.7381523911608,13.784148041566368 1984.8055685688742,14.128460309351794 1969.4896597332554,33.37439536914462 1967.6511564800749,33.51762374734972 1971.2273831822677,43.994839011807926 1971.7589529600227,44.94801630766597 1999.6510745600099,68.5359532913426 1999.2444600888994,72.80050433526048 1957.5501656178385,108.9580441697617 1956.1482777600177,109.67972058849409 1962.708285724395,112.18578255758621 1966.9701646221802,113.30051745113451 1952.7634161777096,130.6957890423946 1952.2697116443887,132.0376264017541 1914.7394289778313,121.04525736835785 1914.4909747199854,120.97900715644937 1888.741734684445,135.2894807412522 1888.6721208889503,135.3619511089055 1872.6624042666517,122.63792426523287 1872.6612391822273,122.5396612296463 1863.8202871466056,129.87592151470017 1863.490276977769,130.83006206760183 1870.9421570844715,132.91350656352006 1868.6673297066009,137.5622824228485 1861.511963591096,140.50150672870222 1860.5434871466132,142.9094096433255 1850.7527000177652,139.28242918121396 1850.5959961599438,139.22996690380387 1851.1698002489284,131.87801131798187 1846.0757597866468,128.83507663058117 1807.2810692266794,124.06028792529833 1806.2141431466443,123.97669819172006 1799.4461676089559,132.4644516860135 1792.4530395022593,141.28621209412813 1774.7323963732924,133.36834042461123 1774.6231697066687,133.28164196026046 1765.8011502933223,144.5263710754225 1762.5330884266878,146.81019222940085 1741.287191039999,145.1443433110253 1740.9295101155294,145.34929631091654 1734.6150436977623,162.8629614340607 1733.3037411555415,164.70471637597075 1726.1408019911032,158.57214187207865 1725.4091289599892,158.01555618701968 1724.2402579911286,162.69447765452787 1723.5948012088193,165.2537279726821 1729.6045980444178,167.47287673363462 1729.5014880710514,168.34328195999842 1713.5765313422307,193.3497419959167 1713.5060437333304,193.5128685615491 1723.8648095289245,204.48874285421334 1724.7482348089106,205.55678800895112 1741.1403903999599,208.1622098358348 1742.323533653398,207.77419860393275 1743.5395905422047,222.7239165015053 1743.0211279644864,223.75454176939093 1756.4076569599565,227.01082382339519 1757.5768191999523,226.89438601298025 1764.6622802489437,236.91581262939144 1764.5181010488886,237.42464899586048 1730.8235676444601,255.76464029040653 1728.3465981155168,257.61317506607156 1724.728137102211,258.03264811245026 1718.8625194666674,256.5084996530786 1716.6526455467101,247.88330986327492 1714.185579235549,245.95159447722835 1701.055951360031,247.53536237601656 1698.9366627555573,247.57224572449923 1700.992745528929,251.4454074128298 1702.4441494755447,252.93270834651776 1690.0960019910708,266.1157915342483 1689.1251953778556,268.27749684033915 1701.3856702577323,271.7899451580015 1701.3300374755636,273.49527311482234 1684.4893243733095,280.56482351582963 1682.7242214400321,280.93537884159014 1680.72289763554,288.6453656665981 1680.1604531200137,288.89861371100415 1676.081492480007,280.77231680229306 1673.522675768938,279.1923416031641 1643.4378652444575,270.12725994654465 1640.014264604426,269.1852734630229 1629.3470427022548,272.09519894060213 1628.904310613405,272.7110371660674 1628.3928385422332,287.9398239701404 1627.2801828978118,288.52896032773424 1621.235142257763,279.57222980994266 1619.2565376000712,278.2246234313352 1589.7892218311317,276.80147463828325 1588.2486889244756,275.74710341886384 1583.0090129066957,290.9268090722617 1582.6490018133773,291.81005678744987 1593.5078801066848,304.95883422653424 1593.9675059199799,305.93931889452506 1590.6015769599471,312.8194711500546 1589.3284309332957,313.15798670530785 1580.141448817798,309.59110843297094 1578.3320726755774,307.68392222671537 1558.9942923377967,279.0843732567737 1558.2570851555793,276.6979483148316 1540.560326257837,280.24847363342997 1539.4246601955965,280.77720422216225 1538.3023926044116,289.91826737474184 1538.009665137739,290.5656006144127 1532.9223239111016,293.1087088636705 1522.2583059910685,291.0685376909096 1502.0437996089458,274.9775381057407 1501.773791288957,274.74382432195125 1497.6744416711153,263.3439789499389 1496.313331768848,262.53704525140347 1473.20242545777,271.7335153732565 1472.226084693335,271.90858095762087 1467.5674945422215,263.1555761914351 1467.2103961600224,262.74722154805204 1450.900087751099,264.6858996114461 1450.233659448917,264.36152880766895 1444.6409628443653,247.32472723256797 1445.1206863644766,245.6263074093731 1435.527381048887,240.8087143219891 1434.8187184354756,240.72250240156427 1425.4325068800244,251.13701451115776 1425.3826995200943,252.25415908754803 1436.8902385777328,267.8184972559102 1437.547054933384,269.366117405938 1435.3103840710828,290.9774581815582 1434.6209453511983,291.8829201234621 1410.9274968177779,288.8648473218782 1410.0746550045442,288.97281089017633 1400.5017386666732,318.83581928745843 1400.4137747910572,319.4630773468525 1374.8920174932573,321.0769703896949 1374.6866713600466,321.1391625640681 1365.7423180800397,330.0377938681049 1365.5369719467126,330.3971609788714 1335.2106976710493,326.8421105738962 1330.0618982400047,326.15135004976764 1287.2913570132805,302.9267692352878 1286.581529315561,302.17684634646866 1287.8698214399628,295.72509420028655 1289.025002666749,294.1092388886609 1282.8270446934039,289.80008553538937 1281.6791452444158,288.90172377292765 1293.3128046933562,290.1102016559453 1293.3130959644914,289.06700128526427 1281.4237004800234,274.2941689704312 1281.6610864355462,273.94537441647844 1275.794594986597,273.3628640676616 1274.2552271643654,273.6672270272975 1276.189267342328,282.6570755924331 1276.4723828622373,283.9806625042693 1272.5574078578502,288.2677145349444 1270.7675468799425,288.8279708646587 1259.2367061333498,277.056513528747 1258.697272035526,276.63885386812035 1248.4529757867567,277.79185920458985 1246.7193301332882,275.96126603742596 1252.8267027911497,272.9438644464826 1256.958674773341,271.92102216149215 1250.6110034488374,258.4867801105138 1248.6891966577386,255.96771325619193 1258.7846533688717,246.20222517009825 1258.7648469334235,245.7498454505112 1244.7311135288328,238.76272750808857 1243.7040915911784,237.68017773353495 1233.9217513244366,220.89642253390048 1233.6051396267721,219.61467893328518 1240.3396189867053,207.01106341421837 1240.3364150044508,205.82035391335376 1225.9345149155706,198.22837435780093 1225.0974017422413,195.39259351149667 1183.3005798399681,235.5155066755251 1179.9387286755955,239.66662584303413 1140.7109179733088,223.56166099390248 1138.2490945422323,223.08212488004938 1144.0191752533428,240.8749286091188 1144.5568617244717,242.19298874796368 1139.2132019200362,257.39144058094826 1139.5478724266868,260.39927879243623 1147.5190889243968,276.8263564942172 1147.1736413866747,277.78919330320787 1119.0980189866386,296.08584994560806 1117.1779598222347,295.878371035913 1112.567429404473,305.04901945014717 1111.146900195512,309.4040778556373 1098.5899113244377,319.63188586907927 1096.740922311088,321.6144878898631 1089.9610046577873,315.6946156407939 1086.4756545422133,314.2366128645954 1073.7412815644639,318.77362646500114 1072.5732844088925,320.86418417515233 1055.1779911111807,315.3290052448865 1053.9441666845232,315.23216059152037 1053.1556957866997,311.4267540604342 1056.9116367644165,306.81406570400577 1077.5712054044707,306.6319196248078 1077.1992521955399,305.44618940586224 1052.604902115534,291.02588582772296 1042.1517644800479,287.94870989973424 1031.611536782235,276.08834168396425 1030.9512251734268,275.3472141564125 1003.4563973689219,276.9987521333969 1000.1123137422837,275.94171593151987 1007.2842823110987,300.96177038759924 1008.3817918577697,303.9445811235346 996.8494947556173,323.7254530611681 996.2337476266548,324.3757968546124 997.8785555911018,330.3251987611875 998.0999216355849,330.44113787810784 978.0954217243707,356.06307938939426 978.0019236977678,356.2789408363169 991.4469981866423,360.7924399295589 991.7309875199571,360.7351445630193 978.6744686933234,370.7131974384538 978.6243700622581,370.84288340085186 990.7322188799735,384.85296058421955 991.429521920043,386.0649108911166 967.0151773866965,392.2475748687284 964.6975331555586,395.57686913153157 973.9220892443554,411.08049725415185 974.2302540800301,412.3198346850695 950.4992315733107,419.0901089751278 949.7748403199948,419.09898963425076 956.5669913599268,405.93213260243647 957.275362702203,404.0497568253195 952.1874389334116,400.81340073340107 951.1953695288394,397.88252146274317 932.0623527822318,402.68914307653904 930.8966857955093,402.4893133286387 901.9358904889086,383.51887495373376 901.8715195733821,383.39052874117624 895.6054041599855,397.83722575102 895.2640344178071,398.9025606714422 859.5419628089294,391.96646769571817 856.5220639288891,391.2568148220307 835.4520942933159,417.6145825049607 834.9167379911523,418.3037251934875 809.7937308445107,402.05723638948984 809.4328459377866,401.5310161608504 795.2761961244978,429.2511258927407 795.3201780621894,429.709790392546 763.2602581334068,444.3128510059905 749.8148923732806,453.7219680696144 746.7626624000259,458.98819951852784 745.8471972977277,462.79151090292726 768.4291552711511,470.8538530252408 772.9179343645228,472.794258312264 771.7723650845,476.44995160005055 771.3520608711988,478.11996405303944 765.607612017775,475.50396074773744 762.8076228266582,475.2211837195209 760.9015446755802,484.1322595876409 760.4518220800674,485.999749007402 742.6184570312034,485.71254640747793 741.8803760355804,486.4050280848169 740.9995721955784,509.96320601337356 740.31654143997,513.3777218204923 733.7603200000012,517.926628944464 732.0048290133709,520.3268731896533 701.3846621867269,537.034656442178 698.766134897829,538.6775839221082 648.631094897748,540.547719368129 644.6406806755112,540.8570401997422 633.4494620445184,534.9310523884487 633.2945058133919,534.8946607499383 629.7019679289078,564.9995946130948 625.5848507733317,576.8262836470967 629.3451608177274,577.9786121068755 629.9812969245249,579.8053754207212 627.8550178133883,589.4141594537068 624.5589939199854,599.1982201569481 606.6900937955361,590.1986040014308 596.8605676088482,585.2505226000212 586.4298578489106,610.3922130868305 585.2397240888095,613.3979151373496 578.8201088000787,611.8651231052354 573.2515876977704,609.7480336955632 573.0104152177228,613.6632135196123 582.9931500088423,617.3307757821749 577.3506460444769,620.7702524411725 576.3923640889116,623.3255364821525 582.0054496710654,628.879628482624 587.3858096356271,633.368936420884 576.6253809777554,646.1376804474858 573.2116835556226,651.0773032995057 577.6256059732987,663.7359141994966 577.6226932621794,664.0557078438578 568.1432749511441,666.8371390390676 566.2552556089358,666.5998471979983 562.4276619377779,676.9544054890284 561.805215573404,678.616695850913 554.0611905421829,682.9178363855463 552.7271688532783,685.3850336323958 521.463001600001,644.1974643698195 521.0945436444599,643.8665524764219 514.018694542232,620.7693651847076 514.28957667551,619.8639180429745 484.80099811556283,603.1095937018981 483.21823089779355,602.5785276440438 482.70850645331666,593.8350538176019 482.3674279821571,593.018233240582 439.77863992890343,597.7136902703205 438.2156791466987,597.9532743690652 414.9678754133638,623.6458321573446 413.8607539200457,623.9315248613711 407.45628472883254,622.7847592137987 405.5432160710916,622.0257168643875 404.6597907911055,613.5580702187726 402.00339825777337,611.5527960168547 389.96312433772255,615.4785912377993 388.54317767114844,615.0362828387879 375.36024718231056,602.9880298211938 373.55407502222806,602.282603063737 350.180442168843,606.6850503778551 348.52369208890013,607.2808802636573 345.22708565334324,611.8966219773865 345.352332231123,612.6437206743285 352.4829403022304,617.9833621396683 353.8929837511387,620.060446081392 358.190106453374,629.7096249855822 358.7633279999718,630.7006482657744 355.37147591111716,638.6273439413053 355.13205105776433,640.210963361722 361.4002053688746,644.1260477698524 362.0072143644793,644.6237455835799 354.35377464885823,659.201093000127 353.8484192711767,659.7227086191997 339.5181718756212,661.6335145176854 339.02592369786,662.2376238130964 337.36742599110585,668.6103885174962 337.500245617819,669.4069712017081 343.1628472888842,679.419451666763 341.8620305067161,681.5948609387269 319.9269856711617,688.3945956224343 319.4889139200095,688.5724361275206 322.3002626844682,702.0129507326055 322.08617841778323,702.7535367452074 313.92942222219426,720.5605581931304 313.1103678578511,724.2964097377844 307.16435939550865,723.8906793581555 305.68936248891987,726.9183412414859 299.4689766400261,723.9793636576505 297.48221639113035,723.1710049536778 290.1710202310933,702.6949994978495 288.2381451377878,697.0083868833026 281.4663830755744,703.8151868620189 281.7002737778239,705.8475630006287 264.3038153955713,711.6585568941664 263.0158145423047,712.122844467056 242.9970423466293,708.4896684247069 242.11885994672775,708.1619568269816 234.65620280895382,691.6715389915043 233.9699680712074,690.909628486901 241.43757681781426,671.6219527471112 241.47893731563818,671.0639959285618 224.41627562663052,665.4710442080977 222.64010439114645,664.0676834636834 212.8373751466861,636.1875719525269 211.34606705780607,634.2636818699539 181.32824888895266,639.1494516524253 180.55405027559027,639.1299336293014 184.08338232897222,654.287821598642 184.9513702399563,655.3847454005736 167.22198897786438,658.0891072994564 162.0892094578594,646.5808138318243 137.8496275912039,649.0386576626333 137.67981653334573,649.1176133916015 135.91209215996787,674.9887354586972 141.42032014217693,677.9798112646677 141.1913810488768,678.920501571265 123.97259804443456,697.6159474134911 122.9793635555543,700.9388748788042 114.63182478223462,703.0413446526509 112.70331875560805,703.0271538246889 111.87931278219912,713.9529350891244 116.45838592003565,714.4704307104694 113.77665280003566,720.273659924278 113.42363221338019,722.8650428527035 98.26151452446356,718.4711143788882 96.32135765335988,717.4933436798165 89.22104177775327,706.6156304677133 89.21754652447999,706.2723951045191 79.19199488009326,707.0936757324962 77.77321329782717,707.511853628559 76.88367132446729,715.7031917549903 76.55336988437921,716.4858584229369 89.76455367112067,726.9116900085937 90.62409471999854,727.5617362268968 83.20250680891331,751.0960256318795 83.05075456004124,752.1751784954686 69.51480348443147,751.636932819325 66.34489998221397,751.6475736032007 58.56854385777842,764.1585647439351 58.561844622250646,764.4400860530441 53.33119800896384,763.6668991107726 50.617133795516565,763.0555297713727 84.60352085332852,770.5966680516722 84.56390798219945,770.7482861868339 66.3084910933394,771.3028884809464 65.19991324446164,771.3064350938075 64.79650275560562,779.059638421284 64.92640967108309,779.7108614466852 59.582167324377224,780.2415026179515 58.2289217421785,779.9524651451502 51.555900586768985,791.8793804820161 50.28945379552897,794.7092964776093 38.98434815998189,784.9861849795561 38.394815431092866,784.2853278084658 27.981873208889738,787.2868959594634 25.870448924368247,787.6703454648377 23.32619576889556,798.9629680713406 23.398722275625914,799.6810663004289 29.12773375993129,815.1293661425589 29.111131306621246,815.2246624777908 17.387177813332528,822.6221923537669 17.008816640009172,822.3265618388541 5,859.2467400948517" stroke="red" stroke-width="3.882171144546886" fill="none" stroke-linejoin="round" vector-effect="non-scaling-stroke"></polygon></svg>