<svg width="213.4342297599651" height="234.20562269241782" xmlns="http://www.w3.org/2000/svg"><polygon points="5,71.31322715146234 6.753160817781463,71.71976932999678 8.220584675553255,72.13317799154902 10.25773482664954,73.18340640916722 10.652407182264142,73.41231340839295 13.278216248843819,75.13414409261895 14.904382862150669,76.47872821294004 14.843215928878635,76.60004710435169 13.211515164468437,80.76284618774662 12.194105173344724,83.04862052184762 11.665739377844147,83.98526371311164 12.782764088944532,84.99148682598025 14.163389155524783,86.34653876360971 15.999270968954079,88.29669996438315 16.919105137698352,89.32029866689118 17.706993493251503,90.4038614257006 17.940301653346978,90.89047867647605 18.90033123549074,92.08801938424585 19.569963519927114,92.60621919517871 24.962265599984676,95.44897169288015 25.69044337782543,95.97402994317235 26.109873777721077,96.47986079246039 27.69555370672606,99.95426878036233 28.5874258489348,101.81550312327454 28.94248533330392,102.43072315264726 29.475511466618627,103.15168189798715 30.35078115563374,104.7254234982538 31.08158037334215,106.58112387015717 31.561303893337026,107.82389407971641 31.84441941336263,108.8281753611518 31.90791651548352,110.23480215313612 34.46265543112531,109.80498777766479 36.94894563558046,109.41636893310351 37.923830044455826,109.20764050236903 39.01638798217755,108.79292946989881 39.98806840891484,108.44184346013935 43.82119623105973,107.06724699010374 44.06644650665112,106.73538339656079 46.04883768898435,105.12915640912252 47.41722936893348,104.06214636610821 48.12064910214394,104.91172664711485 49.21058559999801,106.04190127848415 49.76807850669138,106.44013880612329 50.355572337750345,107.1803093670751 53.87441863119602,111.77599321765592 54.50210787553806,111.7517333899741 54.37161841779016,117.32043683162192 54.29996572446544,123.86437274795026 54.23413845337927,130.43511462694732 52.51330872892868,130.36142602580367 50.40334079996683,130.05614441080252 48.780086897779256,129.75360853224993 49.04193962668069,131.5651559322141 48.94611143111251,131.8805045990739 51.10705180442892,132.45032794756116 53.54062193771824,133.11260267632315 57.83366684440989,134.093424621562 57.45763583993539,136.42440359224565 57.08568263112102,138.50088972429512 56.81538303999696,139.94485279376386 56.74431288894266,140.17048545513535 56.62256156443618,140.7823927255813 56.49119829328265,141.39109457598533 56.271871146629564,142.66570154990768 56.18215964443516,143.75220081221778 55.84865422220901,144.54487501189578 55.82127473782748,144.83091435354436 55.78544839110691,144.96455180441262 55.616511146654375,146.34668772149598 55.331648000050336,147.9109620254021 55.21426574222278,148.6551096116309 55.11261212453246,149.05464166926686 55.09921365336049,149.3219112707884 54.962898773374036,150.0857330209692 55.035425279987976,151.45914090046426 54.97862741339486,153.89793667307822 54.862992782262154,155.35369563970016 54.85017685336061,156.33167093544034 54.91483904002234,157.5750706726103 55.12834076443687,158.85736207087757 55.244557937723584,160.20554461790016 55.35087189334445,161.2379557156819 55.46883669332601,162.81493585335556 55.64592952886596,164.81245803652564 55.59816106664948,167.32157603703672 55.643308088881895,168.18783963873284 56.90742471115664,169.0188636908424 57.57210538664367,169.2838205783628 60.2850045155501,170.18760026647942 61.80252700438723,170.4813850534847 62.49225699552335,168.00067574169952 62.845568853314035,166.8872988957446 63.17033614218235,166.09607939753914 64.4571719111409,163.84733450069325 65.03680142224766,163.2231366164633 65.51390350225847,162.83873233158374 65.83575808000751,162.63920793338912 67.10599139565602,160.76293739146786 67.75669105781708,160.05773003707873 68.77351850667037,158.9630752625526 69.7134503822308,157.63044458371587 71.11795968003571,153.87047806335613 71.77448476443533,153.065481607744 72.98296860442497,151.91953492636094 73.79532373335678,150.199688221619 73.81629525334574,150.16033020726172 74.62573767104186,148.71048580569914 78.85557674674783,151.47012446721783 78.96742485335562,151.55570473859552 79.11393422225956,151.66004855313804 80.77039303118363,152.79775898472872 83.86048824887257,155.20313190022716 84.83799409773201,155.8044709507958 86.11609173333272,156.75544360280037 87.86633983999491,158.0821304207784 88.29305201780517,158.3992709769518 89.51114780444186,159.15436566842254 90.09223367110826,159.40697857690975 90.97653276438359,159.6394554132712 91.16789788438473,159.68109985959018 91.59169735107571,159.7099306253367 91.68869063118473,159.71038825652795 91.77461560885422,159.730066396005 92.04083740443457,159.50628465769114 94.6383931733435,160.83981904073153 96.12067185773049,161.24161673913477 97.60644579562359,161.48095601581736 97.54411377781071,163.51006651268108 97.7972283733543,165.54419178835815 99.86204927996732,166.28919396648416 101.36384312890004,166.70699811942177 100.54508003557567,169.6654677526676 104.25296127994079,170.58388930890942 106.32127743994351,171.06666539493017 106.90323712001555,171.18335518770618 107.7100580977276,171.2995873109321 112.39428010664415,172.62618495553033 113.75975907559041,172.9236272573471 115.30990392889362,172.9291184959584 115.86506666673813,172.81883609300712 116.36954823113047,173.402737305325 117.23287580441684,175.50907004234614 117.68842382216826,176.3483027050388 117.98639416892547,177.09875881794142 118.83370183117222,180.1490615704679 119.64605695998762,181.83114832470892 120.23879367113113,183.02086446719477 120.4840439466061,183.76397615432506 120.53967672889121,184.35791457170853 120.72259498666972,184.94819073652616 120.77793649781961,185.34399516996928 120.82046208006795,185.66567153466167 120.8600749510806,186.00198983988957 121.16590961779002,188.26834976888495 122.76382293330971,191.76004420040408 124.34921159106307,194.46056650177343 124.48086613335181,194.73372826661216 123.71831836446654,194.86367444577627 122.64906211558264,194.58410704112612 122.29079864884261,194.67653362074634 121.86350392887834,194.96799737826223 121.0051279644249,194.64404705510242 119.96092103107367,194.98355430242373 119.60848298668861,195.41685994813452 118.77544760890305,195.17160997434985 118.4419421866769,194.85589597950457 118.01144348445814,194.93368062976515 117.56812885333784,194.82752745313337 117.31210154667497,195.00780479976675 116.95733333332464,195.02107393863844 116.92908003553748,195.22194114833837 116.72052991995588,195.76917752093868 116.70917034661397,196.10593767772662 116.85655352892354,196.626176183403 117.16617472004145,197.3179953720537 117.67065628443379,198.3442812715657 118.17659420438576,199.09511865273817 118.79467150219716,199.80248652602313 119.40896227548365,200.4316118962597 118.84622648893856,200.2298344312585 117.71638584882021,199.6075716765481 117.12830947560724,199.1902885917225 116.08701525337528,198.44631477980874 115.79632668453269,199.56685000745347 115.54670734226238,200.59129506273894 115.33611832885072,201.312384341727 115.17009379551746,202.01288184162695 114.98426282661967,202.71291953377659 114.97610723553225,202.7417445667088 112.9322578489082,203.19425132597098 111.4569696711842,203.50263253884623 110.78558976005297,203.59368269419065 109.69594453333411,203.67603958572727 106.08068750228267,203.70120418519946 105.87505009770393,204.72471459658118 105.52028188447002,206.89159415685572 105.49756273778621,207.12356245244155 105.21473848889582,209.4093748057494 105.3449366755085,209.4377414206392 110.62509937782306,210.11259124364005 111.18404864007607,210.22331216617022 112.1024264532607,210.2937709055841 116.01361493335571,210.92789852776332 119.71275804447941,211.51261196145788 119.86829681775998,211.5771225017379 121.85651342221536,212.26843637495767 130.45338026667014,215.65726072184043 134.12427008000668,216.52058578172 135.75393194670323,217.895402098482 138.91655367112253,220.79369673453039 138.87228046217933,222.68042679619975 138.8303374222014,224.1782701324555 139.18539690668695,228.01433048705803 140.74369735107757,228.62324448814616 142.07771903998218,229.20562269241782 143.00104846223257,228.54043960437411 143.21018111996818,228.25222346372902 143.21833671117201,228.09393316606293 143.22416213329416,228.028055089002 143.29727118229493,227.26954078458948 143.64184490672778,225.83531015069457 143.83466638217214,225.04110370745184 143.9558351644082,224.54929814120987 144.0822468267288,223.31360313057667 144.31875896884594,222.0065311625949 146.95330616889987,222.7266340914066 149.67610851558857,223.41562486666953 149.85524024895858,221.0558452271507 149.98339953785762,219.74143955518957 150.17796863999683,218.21886010916205 150.78323000890668,218.11729343084153 151.3197513956111,218.29800888401223 152.44114517327398,218.93302806426072 153.88089827564545,219.88509583694395 154.04575772443786,219.34661304129986 154.5685893689515,219.62203091726406 154.82665557332803,218.5093771465472 154.70519552007318,217.8523963293992 154.9705435022479,213.380664715718 154.83918023109436,211.6626790041919 159.08795192895923,211.599541053758 159.28601628448814,209.47937628417276 159.42000099550933,208.66177590441657 161.29753457778133,209.74016590666724 163.11477504007053,210.660247485328 164.78142833779566,211.3735253410414 166.09651740442496,211.78849732870003 166.67410801781807,211.7894123707665 168.2254179555457,211.85209274489898 168.83825237327255,211.87039358058246 170.58325760008302,211.84294232644606 170.95375445333775,211.9111129345838 172.4159354311414,212.05065672990168 171.1856062578736,218.9151853317744 170.95491953776218,220.25613120611524 170.79326407110784,221.3820435187663 170.7886037332937,221.50785619259113 172.6215728354873,221.50694119167747 173.49829887994565,221.51975120528368 174.50347548443824,221.4872686692397 175.90332444442902,221.4584461330669 177.01510627556127,221.4959611793165 178.86147384892683,221.3962260420085 180.1867574044736,221.22969571017893 180.60298382223118,221.23747322859708 181.2481493334053,221.23061071237316 181.38854200893547,221.21642817830434 181.85137180436868,221.26538079202874 182.2393449244555,221.26766829716507 183.68317582225427,221.51014369510813 183.90366805333178,221.70595381822204 186.13451349327806,222.42743024294032 187.0674548621755,222.71245165524306 187.78631196450442,222.84741350932745 188.04030037333723,222.82591111789225 188.49963491549715,222.81172868836438 190.56037802668288,222.02894863422262 191.11554076441098,221.7146463196841 192.54568192001898,221.27544581418624 194.51875242672395,220.7095163484919 195.59674680884928,220.4180872591096 196.14666666660924,220.19802829873515 197.1428138667252,219.7569946986041 197.9851699200226,219.29628747788956 198.78092259552795,219.00988904893165 199.31103601772338,218.82871668419102 199.76745784888044,218.576173134672 200.59437653329223,218.00474651547847 200.99370922660455,217.5907014652039 201.31760270218365,217.16659040999366 201.53314332442824,216.76855662482558 201.73353784892242,216.29594774305588 200.60835754673462,215.9276506578899 199.16161393770017,215.455497452931 198.1750786844641,215.13844050752232 197.11863836448174,214.77746168815065 195.8096659911098,214.33504449395696 193.2540532622952,213.28641605289886 192.0554726399714,212.84994355490198 191.38962688005995,212.61386372376 190.57377649785485,212.2771292553516 188.79760526225436,211.55058625346282 188.74721536005381,211.5263376099174 188.55934549332596,212.00581971701467 188.30564835551195,212.5498110120534 187.81107000890188,213.41818116238574 187.60776277340483,213.67027321405476 187.4021253688261,213.9100120253279 187.14580679114442,214.17903159651905 186.7907473066589,214.5949132347596 186.69550165336113,214.61595892894547 186.4706403556047,214.0966787021025 186.20004949334543,213.54857363953488 185.93615786673035,212.92085895786295 185.9714016710641,212.81288452871377 186.45811569772195,211.9541198843508 186.9218193066772,210.9699906274327 187.2745486223139,210.1217417352018 187.63222954666708,209.25198577792617 188.23050040891394,207.47448837576667 188.4862364444416,206.58413283748087 188.8217807643814,204.97773184650578 188.94236700446345,204.67621577699902 189.83715185779147,204.82216973870527 189.37519587553106,203.17228944244562 189.01722367992625,202.01379692507908 188.6802230044268,200.92942034750013 188.28351175109856,199.68489707214758 187.85213923559058,198.29623857169645 187.42659214220475,196.9986240902217 186.95036387559958,195.46581839839928 188.13904128002468,194.75020032183966 189.34898147557396,194.0171926516923 191.24224369775038,192.90074673545314 190.9527202133322,192.50998930382775 190.34046833775938,191.66029535752023 189.91433870221954,191.176650086476 189.33966080006212,190.67195571347838 188.67760156444274,190.22171060135588 187.73825223115273,189.82408481981838 186.47704831999727,188.8943056871649 186.87084686220624,187.5961772527662 186.88308024895377,187.53715043113334 187.14289408002514,186.3232076514978 186.42724095995072,185.62357451271964 186.43248384003527,185.15227033826523 186.3818026665831,184.32451129873516 185.47303680004552,183.82025852421066 184.70291598222684,183.40569048089674 183.5427831466077,182.81586769066053 182.86062620440498,182.67493229411775 182.52100408892147,182.5701458521071 181.66321066673845,182.23656771419337 181.87292586662807,181.12829756073188 182.37449472001754,179.35972092259908 182.90169543109369,177.7549481887254 183.09247800894082,176.70293930225307 183.55181255110074,175.77310378826223 183.87250204442535,175.32053968351102 184.74019868439063,174.57922939799028 185.11739477340598,174.35683581710327 184.38979953783564,173.43065103859408 184.2686307555996,173.27460864762543 185.51818382227793,172.08529652183643 186.8950223644497,171.3819564942387 188.65925148443785,170.4612502832897 190.66785706661176,169.41790053766454 190.55105735105462,169.21472131769406 191.52157269325107,168.53745587338926 192.21945827559102,167.44467445701594 192.87976988439914,166.38254786696052 193.30153045337647,165.74234065244673 193.9991247644648,164.60973211278906 194.27816248883028,163.26844136224827 194.54234538669698,161.36014234140748 194.67982535110787,160.46685126115335 194.7998290489195,160.01562803279376 194.80448938673362,159.94194950553356 195.48373361781705,157.65378399658948 195.90928071108647,156.04518915869994 196.18686208000872,154.6127745854319 196.12686023116112,153.0398534736014 196.17171598225832,151.8792619293672 196.88125240884256,149.31916535185883 197.77982378657907,147.460170268605 197.106113706599,147.0752803198411 198.23449799104128,145.82495533314068 198.18469063111115,145.3174091973342 198.39586218667682,144.74487375939498 198.95830670231953,144.13618134433636 199.23763569782022,143.4524300780613 199.9142584889196,142.4098654203117 200.26815288886428,141.9297714017448 200.21543281781487,141.2945262012654 200.3951470933389,141.0414344742312 200.98234965337906,140.49726337508764 201.6991678577615,139.91373102890793 202.18529934226535,139.5535420422675 202.87502933328506,138.70364011242054 203.23096263117623,136.92464772047242 203.53271950222552,136.98734978487482 204.39051292440854,137.2903332269634 204.67741496884264,137.41573712567333 204.72460088890512,137.2335810737568 204.78605909331236,134.676514981722 204.9110143999569,133.8709894233034 204.97975438227877,132.44437799259322 205.04033877328038,131.44524093385553 205.0712135110516,130.5989686936955 205.1486916267313,128.95767626538873 205.16471153777093,128.43910582369426 204.892081777798,126.73188808589475 204.91713109333068,126.1538110372494 204.92732558224816,124.63514995930018 204.95208362664562,124.47953007841716 204.99548302218318,124.38570039038314 205.4833621333819,123.27026824903442 205.56841329776216,123.02219023281941 206.15736348438077,122.26880026981235 206.60708608001005,121.72366652823985 207.41128561785445,120.61096694524167 208.27490446227603,118.68993325822521 208.4342297599651,116.80824660236249 207.67692487116437,116.70663231081562 206.85437525331508,116.58304729737574 202.95367253338918,116.12623985711252 202.67783879116178,116.11067726201145 202.37928590225056,115.91751790011767 202.23801941331476,115.82093815441476 198.16954453336075,115.02358145051403 194.3198142577894,114.41297450201819 193.7090187377762,114.42167131474707 193.02977450669277,114.63726061291527 192.7029683199944,114.15847814356675 191.97362545784563,114.11545175121864 191.50613532448187,113.98408388340613 191.40535551996436,113.75613526831148 191.4924455821747,112.83976110297954 191.70332586672157,112.01126763247885 191.38787925324868,111.68307348527014 191.2166118400637,111.2463959819288 190.77562737779226,111.03309197537601 189.1943165155826,111.92841811088147 188.56342328886967,112.2868221665849 188.1244777244283,112.41544467775384 187.78776832006406,112.54544030531542 187.18017678218894,112.90018149721436 186.4852039112011,113.58494478504872 185.4806098488625,114.29991590493592 184.32338972447906,115.07530444866279 182.7787790222792,115.96100165770622 181.0352301511448,116.93457781715551 180.82580622227397,114.21020134858554 180.73696853336878,112.89606192539213 178.74729557335377,112.78437572688563 178.12048014218453,112.71708934177877 176.1934304711176,112.49417443334823 174.76037660439033,112.38569214643212 175.41253262222745,109.6891803505714 175.95342307561077,107.85318949760403 176.4241171911126,106.21355547511484 177.00374670221936,103.73668665695004 175.91643164446577,103.5210864955443 175.6379764622543,103.47119173541432 175.7754564266652,102.5131185593782 175.14339811552782,102.40234250522917 174.85329208895564,102.34649670432555 174.79824184882455,101.50789245258784 174.70445255108643,99.94374035554938 174.66338332451414,98.26422116655158 174.68639374221675,96.3864767246996 174.57862343115266,95.11480143672088 174.3601700977888,93.7167739731376 172.5277835377492,93.71494289004477 170.57015040004626,93.66916580608813 169.81255423999391,93.66779249341926 168.95446954667568,93.663214784523 167.86511559109204,93.73233817931032 167.2566502400441,93.85273185395636 167.07518833782524,93.90125552134123 166.20020991994534,94.06513726094272 165.39193258667365,94.26701375836274 164.9990078577539,94.36589197412832 165.21454847999848,94.06055956042837 165.33979505777825,93.80008824024117 165.48077027557883,93.36108577990672 165.6578631111188,92.64833431958687 165.75776910223067,91.5876715691411 165.81252807111014,90.54851916112239 165.925832533394,88.1991923218593 165.60892956447788,86.38133052585181 166.50662712892517,85.16956677113194 166.79265535995364,84.47418435435975 166.86023025785107,84.18577624455793 166.88993991108146,83.65016016334994 167.63238997326698,83.30590023827972 168.66552860441152,83.30956258089282 169.64157809771132,83.34893275884679 171.75008967111353,83.58286471577594 171.3539609599393,82.16141516645439 170.98958080005832,80.69600764033385 170.6878239288926,79.55059315852122 170.50024533329997,78.96964320738334 169.66837503993884,79.2832373463898 168.86796202661935,79.356485546974 167.580252444488,79.5441839476116 166.142538240063,79.65726071043173 165.56640398222953,79.77812001906568 164.46132138662506,79.77216861530906 163.02302464004606,79.65726071043173 161.8960967111634,79.48375423636753 160.64304839109536,79.26629869645694 159.8097217421746,78.96231837529922 158.75299015117344,78.56540366838453 157.65373297780752,78.09798645338742 156.61331256886479,77.6534584685578 156.30893425783142,77.51016552496003 154.55082183110062,76.55426639859797 153.49117752886377,75.77965538750868 153.0787376355147,75.33283359004417 153.1267973688664,75.26965584338177 152.19123455998488,74.17365634517046 151.25974954664707,72.89910357893677 151.28596394672059,72.83958764118142 151.42286136886105,72.56535630131839 151.68296647106763,72.05672262865119 151.0075087645091,71.3173475151998 150.653031822294,71.03670478257118 150.26389361778274,70.77895265357802 149.77572323556524,70.56057272315957 149.14162602671422,70.45481632539304 147.81983772444073,70.05284997803392 146.96087921783328,69.86376987764379 146.23037127114367,69.68064129346749 146.2758095645113,69.62158229196211 145.43141461338382,69.0406056739157 142.6925923555391,65.7135802822304 142.47413902217522,64.97006300208159 142.51287808001507,63.971987758239266 142.46802232891787,63.962831083335914 141.89654840889852,63.88087882538093 140.44135793787427,63.124993686622474 139.04354787559714,62.31965949072037 137.72408974228892,61.60543222614797 136.2336554666981,60.70577721920563 135.12129109329544,60.47594109061174 134.2661191110965,60.12569233740214 133.11501567997038,59.17337913450319 131.59953208896331,58.50584170722868 130.59930709330365,58.07684022927424 128.32040192000568,57.08148026786512 126.71287665772252,56.45148005959345 124.55018865771126,55.67771275807172 122.24244764447212,55.209788230247796 122.23137934214901,53.579370103252586 122.3091487288475,52.5647594150505 122.38109269330744,51.66369322524406 122.42157937784214,50.333148583129514 122.46439623110928,49.948085788288154 121.89263103995472,50.129857490363065 121.37271210667677,50.14634055906208 121.11784988443833,50.46318152430467 120.70948778663296,50.33910079696216 120.10131370672025,50.64220562175615 119.898297742242,50.617938936979044 119.82722759107128,49.77730266470462 119.73605973331723,48.94719403289491 118.92020935111213,49.1376660138485 118.28989866666961,49.2983766173129 118.17484657780733,49.16513792023761 117.7790091377683,49.05708173470339 117.66279196448158,49.05799746530829 117.1568540444132,47.78695964178769 115.49398727109656,45.277370594616514 114.59949368890375,45.84375913621625 114.31579562672414,46.11069841159042 113.63480376882944,46.82863980240654 112.86730439111125,47.52826406917302 112.34301639115438,47.9701067628921 111.85164202668238,48.154169463261496 111.1482222933555,48.20590845280094 110.14799729781225,48.50169040332548 109.18563754670322,48.09739392058691 108.44114858668763,47.656925091694575 107.9669592177961,47.14960645179963 106.9874144711066,46.328187285980675 105.80019342224114,45.27828634128673 105.15502791106701,44.487995569536 104.50869731558487,43.754478607850615 102.71242837328464,41.95776363060577 101.07635854219552,40.3331980961957 100.32400526222773,39.739779909083154 99.59145841770805,39.18070156266913 98.73104355554096,38.416030231222976 97.89334784005769,37.68661368143512 96.2587343644118,36.45946666615782 93.19893134222366,34.48823272524169 92.06326527998317,34.3646007294883 91.36508842674084,34.20571061648661 90.52127601776738,32.59207645821152 90.15077916439623,31.089242899033707 89.86125567997806,30.53472123661777 89.5309542400064,28.692105600552168 89.69843512889929,27.50520371721359 89.72727096884046,26.397056418878492 89.60377201775555,24.756804830685724 89.26939278224017,24.058022737212013 88.88491491554305,23.355575028341264 87.63798328884877,21.501908060454298 86.78368511993904,20.663906168134417 86.09424640005454,20.091040710860398 85.17790748446714,19.407813097641338 83.67786126222927,18.306035335350316 82.4385026844684,17.768882296339143 79.51239310228266,16.647405027004424 78.5902287644567,16.452325087913778 76.94891605328303,15.685741651046555 76.23734072886873,15.586827461258508 75.57469895109534,15.305654471041635 75.57062115555163,15.129806682292838 75.30236046214122,15.138507487659808 74.854094222188,14.979603249405045 74.41223594662733,14.75155027693836 73.9229004799854,14.719952556944918 73.73066154669505,14.739185952290427 73.0286981689278,14.242322691425215 72.61596700444352,14.296817427384667 72.2646940444829,14.14157608448295 71.84992398228496,13.847120960068423 71.50389390217606,13.744542408792768 71.29738268442452,13.566861588915344 70.61697336891666,13.402460906421766 70.37114055105485,13.293013029091526 69.97326421330217,13.038397669035476 69.67937166220509,12.821791200491134 69.47577315557282,12.737071909650695 69.28935964440461,12.700436530343723 69.0764404622605,12.733408371976111 68.85157916438766,12.575876194168814 68.60108600894455,12.667006741219666 68.1525284977397,12.497568005055655 68.03194225777406,12.390409384330269 67.88863687112462,12.315764672879595 67.56124814227223,12.219596601556987 67.28978346660733,12.0126061316696 67.14939079119358,11.91781175736105 66.81879808008671,11.912316430010833 66.72530005325098,11.725017273856793 66.57849941332825,11.757531319919508 66.51471103995573,11.64304522034945 66.16576824884396,11.582596535386983 66.04867726215161,11.452998161490541 65.59604195563588,11.184184325335082 64.98437262221705,11.22997886966914 64.42775352892932,10.670368874270935 64.03803278214764,10.636938771524001 63.006059235543944,9.853390634583775 63.113247004454024,9.676164566597436 63.037807786720805,9.463218323595356 62.54934613336809,9.077166858303826 62.25428849773016,9.191654316091444 61.682814577710815,8.809265970194247 60.94648120889906,8.871547231916338 60.611228159978054,9.045110359205864 60.02577322663274,8.933370525424834 59.75139583996497,9.046484209306072 59.43041507550515,9.050605759432074 58.898845297750086,8.890323196945246 58.65563391998876,8.658142245898489 58.085325084393844,8.521214901527856 57.620456391130574,8.089824507071171 56.889365902286954,7.667592311219778 56.642659271135926,7.692779721284751 56.36507790221367,7.614011810917873 56.04264078231063,7.224751367524732 55.4091261154972,7.150562827067915 54.41210510220844,6.297850738337729 54.151126186712645,6.21129706769716 53.67897571553476,6.1929788260604255 53.34343139559496,6.270373386330903 52.961866240017116,6.264877915498801 52.59486464003567,6.109630807128269 52.312040391145274,6.180614012118895 51.987855644430965,6.225493703910615 51.84833678230643,5.99422580486862 51.72250766213983,5.890269658702891 51.587940408848226,5.811959048733115 50.47994510224089,5.462079719582107 49.96381269337144,5.007785295776557 49.21262449771166,5 49.12902968889102,5.258288488257676 48.655422862269916,5.446051202772651 48.284926008898765,6.117874019255396 47.34470286220312,6.286401842080522 46.7773067378439,6.876706142502371 46.291466524475254,6.872126596339513 46.11146097769961,7.07408449013019 45.31570830219425,7.469298598531168 44.862781724426895,7.5288325267028995 44.551995448884554,7.853979076317046 43.220303928945214,8.582580344111193 42.716404906706885,8.645777572935913 42.623780693276785,8.747900591872167 42.19735978660174,8.957183937483933 42.15832945774309,8.90497760771541 41.722005333402194,9.172420427436009 41.14965759997722,10.299889774760231 40.947515448904596,11.22952092421474 40.474491164437495,12.681660895992536 40.12758727115579,14.206603445287328 39.75213880895171,15.285505252482835 39.64291214221157,15.465932279010303 39.317562311072834,16.194507903128397 39.10784711118322,16.600237827806268 38.2544227555627,18.460357828822453 37.70479416893795,19.740268626715988 37.16157354670577,21.730411838158034 36.92243996448815,24.19494024530286 36.65505308448337,25.222963582491502 36.292711822199635,26.384692759951577 35.80803669325542,27.854589477472473 35.60880725341849,28.653641289740335 35.37054748449009,29.2342684911564 35.2820010666037,31.01552044786513 34.79965610662475,32.188666037574876 34.87393024004996,32.146997040952556 34.507802453357726,33.02708117652219 33.875744142220356,33.581138550827745 33.59291989332996,33.946540902077686 33.097467733430676,34.40260612836573 32.8227990756277,35.49743348447373 32.75318528001662,35.86466417106567 32.439777564490214,36.79830646322807 32.23006236436777,37.923800249409396 32.08937841781881,37.88991646992508 31.670530559960753,37.65959820646094 29.097150293411687,36.33446212048875 27.16048867558129,35.410433604440186 26.282015004428104,35.02030739659676 26.00996778672561,35.01069160090992 26.00676380447112,36.492434885993134 25.840448000002652,37.89770058187423 25.188583253417164,40.37166032992536 24.913040782208554,41.356565913476516 27.566520604421385,42.54384966706857 27.756429368862882,42.63542546686949 31.095852657803334,44.0557611566619 31.236827875487506,44.12352677847957 30.984587093349546,44.7224274322507 30.925167786655948,45.43854193936568 31.02856903115753,45.69449277687818 30.97672277339734,45.73341192951193 30.905943893361837,46.34970722597791 30.31349845335353,47.68302358168876 29.695712426677346,49.13079803669825 29.258223217795603,50.09368630737299 29.032196835498326,50.316207666066475 28.851026204414666,50.51675141049782 27.66089244442992,52.081260950653814 26.90271374222357,53.10869389568688 25.570730951149017,53.88979606871726 24.992849066620693,54.702029451786075 24.643032462219708,55.209788230247796 24.162435128935613,55.85169617953943 21.945570702198893,55.76058382628253 21.600123164476827,56.55129126139218 21.06185415107757,58.00862113252515 19.294129777816124,61.12927940610098 18.704305777791888,62.305008698720485 18.29973020439502,63.17443991819164 17.134937031078152,65.5794360357686 15.419058915576898,64.8469062600634 14.190186097752303,64.44401382590877 13.436959004495293,64.21921783493599 12.141093831160106,64.02601213246817 11.094265457824804,63.802589209226426 9.802478080033325,63.580539558897726 9.204789760056883,63.597479437245056 8.748367928899825,63.78610718116397 8.232526791165583,64.70864098658785 7.908633315586485,65.38394239457557 7.058995484374464,67.2724859873415 6.602864924469031,68.30808761942899 5.487296568928286,70.25154414289864 5,71.31322715146234" stroke="red" stroke-width="3.0747124205824186px" fill="none" stroke-linejoin="round" vector-effect="non-scaling-stroke"></polygon></svg>