<svg width="6681.125271893339" height="857.754713620292" xmlns="http://www.w3.org/2000/svg"><polygon points="5,299.5847605628078 34.4734324621968,322.4019947183551 36.725540693383664,324.5770434223814 41.919487146660686,336.6402458725497 55.046202311175875,350.1810203875648 63.954437973327,339.7985469363048 73.19210126227699,343.2772284740349 87.94207032897975,349.9959522970021 90.19213966222014,350.99587053770665 101.81706097780261,368.3086364136543 103.96664177777711,371.2699155132286 74.36009841773193,404.39084256702336 59.21167047112249,415.2451619836502 59.8081937066745,429.439084498561 47.289361351169646,452.38062078203075 46.60458296886645,454.37904274708126 40.41681948443875,454.9500827835873 40.75789795559831,457.5089309627656 45.17851960891858,468.6302037817659 45.625329493312165,472.69574393110815 84.74391352885868,517.2069213045761 88.9085078756325,520.9182630141731 81.95557518221904,527.7722090550233 85.40888547559734,531.7432581091998 66.96472490672022,541.6799899691832 59.70945279998705,546.626336619549 65.54565205331892,552.8585534583544 62.68303957337048,556.4368223928614 69.90452423109673,561.9632455083192 65.13379470224027,572.4049286821391 62.5309960533632,574.4624840330798 122.29720661335159,623.1680176557275 124.17677909333725,622.9877816122025 105.0982300444739,633.8665042164503 99.02901390218176,636.054504415486 108.95349447114859,673.0039422016125 109.62691327999346,673.2135559135932 101.15878826670814,685.4843370021554 97.4957627733238,690.0343923100736 106.09146453335416,693.4918002140475 106.27263516443782,695.8846507187118 95.66949290665798,693.5667208302184 94.97044224001002,693.371835246915 87.36127573333215,707.6278945547529 87.08311182225589,709.2144474082161 95.12102940445766,731.1404976933263 96.7469047466293,734.4704115825007 114.24967708450276,748.7127271544887 114.96416511991993,750.9390810279874 109.62079658661969,807.0029999727849 110.65364394662902,811.5518716465449 129.0104231821606,814.7032252093777 133.27871004445478,815.0647551028524 146.44503807998262,806.1393374814652 146.92010126216337,806.0387297644629 157.65868458664045,818.5311850667931 158.45327217772137,820.0379117142875 156.81312455108855,830.2810772373341 158.19491470220964,835.5175407283241 167.320147342165,844.7030932026682 167.64083683560602,845.5289378028829 185.92246812442318,851.3304300153977 186.4522902755998,852.754713620292 197.97672305779997,848.2439141045325 198.94461696001235,847.8603930476238 198.8196616533678,840.5260532493703 197.80166911997367,838.8357391999452 211.5930649599759,812.4609913402819 211.66559146670625,811.1149966971134 216.4098153244704,813.0696721681161 217.5119852089556,812.5730806179345 217.74966243549716,805.1277454238152 217.5454813867109,804.5103136086836 228.74631196446717,801.3441102054785 229.66468977776822,801.3032230614917 241.70962403551675,787.2136951206485 242.41770410665777,786.8172013573349 243.13306595559698,769.9703674256452 242.90150542219635,769.142855207203 250.5663047110429,759.456453166029 251.51817870221566,758.7180430287262 289.6921705243876,758.3522832446033 290.3233550222358,758.7851295551518 274.14790513773914,703.2326409983216 273.7576018489199,702.295943576959 290.12936846225057,693.8075697511667 291.03784305776935,692.20895298908 284.36307427554857,682.7856984004611 283.6413044622168,680.9870469066082 282.8187548444839,668.9973392023239 282.5499116089195,668.0168225677917 291.8668006400112,667.393022276694 291.99059086223133,659.805223025498 284.22093397332355,656.0723654773319 284.6622097066138,654.8145802065847 291.605239182245,642.0813899833593 291.8397124266485,641.5453262769151 318.48898019560147,629.3865286990767 319.66600675554946,628.1134152294253 337.09188352001365,639.6470247894758 338.2546377956169,640.2460788674653 350.30918400001246,640.2244706525817 351.59048561775126,640.0286173722125 340.4458703644341,618.4928666694905 339.951874559978,613.6516244685045 342.88002303999383,578.9095694557764 343.47305102227256,572.2651209008181 347.89075996447355,574.6211458455073 348.0524154311279,574.1888496186584 342.0484440177679,526.5297750037862 341.4123079110868,519.9743333766819 364.30330453335773,519.5939083243138 382.2126913422253,516.1065707312082 406.7283982222434,505.0314503184054 407.08374897774775,504.9100003616768 415.883923057816,515.7910009269253 415.58799160888884,517.2262417912716 436.5656283022836,513.3303686379804 438.086646044394,516.9732352811843 438.6490905600367,506.59741257166024 438.5564663466066,504.65467920689844 462.047190186684,491.0173299505259 464.0656989866402,489.7691632406786 457.4989917866187,470.59120612352854 456.7571242667036,468.9821916723158 445.43425109330565,459.3816885679844 439.5138744888827,454.33854992320994 430.3274749155389,454.09007106442004 429.7798852266278,454.2276547641959 427.15058090665843,448.00961210322566 424.2783564799465,446.82699951156974 418.5860451555345,453.80017870047595 415.69255793781485,454.95146321703214 422.91899420449045,413.2371725073317 437.8664450844517,411.8817805419094 435.6242400711635,385.045105541707 435.39151445333846,373.6912016245187 421.35894613328855,345.6339158343617 411.2547512889141,333.60528671951033 394.1140289421892,330.9961637282977 392.49223139556125,330.4786631957977 360.3245411555981,298.56526363512967 357.1054128354881,294.1160746917594 345.16620999109,290.6490327832871 331.45986531558447,288.4450905675767 330.0273939911276,296.6077607537154 287.75667399109807,292.2782593188458 284.5957998933736,292.9169606506475 282.5359305954771,265.63623425527476 281.86600704002194,263.3795330468565 268.77657457778696,259.9603554017376 268.1188844088465,255.31324491056148 277.13984199101105,237.43866703519598 277.0218771911459,235.66485394153278 265.97542030224577,231.58056036708876 265.1566572089214,229.47412720043212 253.36891534214374,225.67853414011188 251.34021205327008,224.12803356087534 248.82071694219485,233.4870649969671 247.45465543109458,236.1733700169134 241.99623480893206,236.7601887062192 238.67603541328572,241.14101147308247 225.48494933336042,238.04068233747967 224.8403663644567,236.8412561547011 233.5050993777113,227.0139087899588 233.93501553777605,226.08619509555865 231.9735958755482,208.97851213475224 233.3597550933482,207.90653038671007 243.194232888869,207.33161060349084 244.93923811556306,206.65718351723626 256.3704641421791,195.3989146295935 257.3115611022804,195.0953137491597 269.3294071466662,209.92150155245326 270.0249625600409,210.09425197541714 282.24698965332936,197.1928692156216 286.092642133357,194.12001030158717 293.469374293345,177.23969657253474 293.8675419022329,176.17723239952466 302.11692231113557,190.09620342357084 303.3003568354761,192.96456715330714 316.9108733155299,179.71476624609204 318.2192631466314,177.17335030750837 293.56724138662685,155.4332510373788 283.38265571556985,146.4085969220032 286.78790627559647,132.74302550312132 282.6763232711237,126.7235396822216 270.75867448886856,133.13749825861305 261.3162476088619,133.86929860641249 261.1598350222921,126.96410113974707 254.77866751991678,128.48350321740145 244.01619996444788,128.51484048436396 232.9458588444395,98.2621166119352 232.78332956437953,96.9582071172772 245.97354183113202,66.23269862181041 244.98001607111655,65.3573044835357 222.2547527111601,107.30860670929542 218.4032748088939,110.11216719192453 215.87970190215856,127.71481706382474 215.3484233955387,130.13653782743495 175.26340181333944,141.76134005934 174.1297746488126,141.8710137118469 151.4135406933492,161.18330444104504 141.71566904895008,165.33067534375004 80.44329557335004,178.23995618859772 76.74560881778598,180.98315932112746 69.3406233600108,209.59488770749886 66.60354872886091,211.3550955335959 68.33806819561869,217.5440397388884 68.64535921777133,223.6190284123295 63.40422684443183,228.92413885402493 61.39562126225792,229.421615810832 67.98970794666093,238.1171432271949 68.68846734217368,238.89372638857458 60.59841223107651,240.57861664658412 59.892953599919565,241.38559058320243 61.70145592885092,248.37094753724523 60.44345599994995,249.2773784151068 36.03639324451797,238.94992031651782 32.79396323557012,241.55923697678372 42.22328291554004,252.76765438099392 44.969386951066554,254.24241485376842 44.06469887995627,263.6678394570481 44.90676366223488,265.57820509176236 9.879373653326184,288.7029704703018 7.646489315549843,290.04854595591314 5,299.5847605628078" stroke="red" stroke-width="3.9698524548959417" fill="none" stroke-linejoin="round" vector-effect="non-scaling-stroke"></polygon><polygon points="6385.76904334221,238.20926474500448 6396.642485191114,236.9264690646669 6398.049324657768,238.63440503925085 6398.414287360036,251.80228415731108 6398.934788835584,253.00346935080597 6393.031597226625,258.3861521924846 6392.5498348088,259.95943427970633 6398.2896233245265,276.2576106826309 6396.602289777831,278.11628621141426 6405.831506204442,281.7663540780777 6405.89005169773,283.63925790734356 6399.188777244417,291.09755482780747 6398.764977777726,291.9195358227007 6421.962974151131,303.6465836708667 6423.440883768955,304.324390932743 6431.900561920018,334.08824955369346 6431.6992935822345,334.70933172188234 6450.595798186725,344.05113079893636 6450.782502968912,344.1639241835801 6449.194492871175,348.592744290072 6448.845841351082,349.2202298399061 6434.031210097717,344.78175465518143 6432.335720960051,346.048255546717 6426.289806506713,368.23590434598736 6425.993292515515,370.7980837789364 6439.570312817814,380.4642137744231 6441.48367274669,381.97630547359586 6434.393260088866,403.4427205269458 6434.18267107557,405.18753800803097 6445.947985066683,415.87199328118004 6445.526515768841,417.03636669780826 6439.437201919965,426.7841805595672 6438.924273493234,427.9632214985904 6414.640709688887,426.0648795827874 6413.508247608901,427.72161527414573 6417.017190684448,447.53886864648666 6417.462835484534,449.07073678955203 6413.68767061329,451.61907127150334 6412.302385208895,452.9650104250759 6417.862459448865,463.01350357040064 6418.673358222237,464.00599577103276 6410.759522133274,465.94633473287104 6410.783988906653,467.3524599034572 6414.01069027558,476.9783735180972 6415.612098844373,478.6319574060617 6429.867780835601,486.6990932561457 6431.239376497804,487.58795961528085 6442.850899342215,491.1962961293757 6442.965951431077,491.20963807508815 6467.257379555493,468.93019872606965 6468.300130133284,468.3127240149188 6462.59733304882,456.4565904956544 6463.2052158577135,454.9068291996373 6487.129059839994,463.590502373816 6488.079477475607,464.15691676252754 6539.533101795474,468.4760651127435 6541.1065483377315,469.02544243237935 6555.073580657714,462.25475239451043 6557.999107697746,463.30292341846507 6557.09704106662,459.2330649101059 6556.501100373338,458.22444592404645 6591.555287324474,432.07784897409147 6592.95134975994,431.0663417496835 6600.399734613369,440.43617764872033 6600.9977142043645,442.02055588772055 6618.5159239111235,394.9278453856241 6619.070212835562,394.12052571075037 6659.9675895466935,374.1087096168194 6661.453072213335,373.23364507895894 6667.9993904355215,350.09723336121533 6666.713719751104,343.69341424584854 6673.964914062177,337.76545348361833 6676.125271893339,335.0578551789513 6667.839191324427,331.21946206176654 6664.06315264001,330.4579447321594 6637.90380287997,339.48502086807275 6633.136568604503,340.0121679607546 6606.879934293334,327.8289857482305 6606.874108871096,327.63791304820916 6598.891824071063,339.9978958731517 6598.742401991156,340.4601268785773 6571.216408177745,331.37139687803574 6570.360362382256,331.9694665231509 6570.588427662267,323.3997388795251 6571.266798079945,322.4793465305702 6564.21803719108,315.06633834866807 6564.1562877155375,314.878937880334 6566.139843982179,305.3926697887946 6566.089162808843,305.27709332323866 6547.306836479926,288.56113656196976 6546.185442702263,287.24318194919033 6545.613677511108,281.0184774325462 6545.281045902288,278.81904190941714 6564.712615537806,278.63897824974265 6565.6706062222365,277.42273869458586 6562.924793457845,271.9562534946017 6558.986808035639,272.00553077086806 6560.390443520038,267.0957086334238 6560.24218652444,265.29496728343656 6548.014334008913,263.92667012289166 6547.816852195538,263.60704644420184 6583.293673528824,227.7421658472158 6584.3268121599685,226.13133716525044 6585.358785706689,213.39214614930097 6585.218393031042,212.35611806472298 6575.092061582138,210.50516709149815 6574.434080142179,211.3136356874602 6574.545054435497,203.2619823019486 6574.551171128871,202.8307833110448 6593.032323128893,177.86998507089447 6593.085334471078,177.44610704411753 6565.72653027554,160.1848087059334 6565.4844839822035,160.19632806477603 6558.473879608908,140.99362292821752 6558.156102826702,140.03005571721587 6547.943846400012,133.7964873481542 6547.287321315496,132.91722033702536 6557.388603448868,128.70378567406442 6558.986808035639,128.26091632200405 6560.862011448829,119.00837924238294 6558.706022684462,117.14879113889765 6574.257569848909,107.308145821793 6574.78593564441,107.11319031572202 6571.9262358755805,100.50626048829872 6571.750890666619,99.55126927996753 6579.790847146651,86.53632647910854 6579.57938431995,84.43492735852487 6575.4211979378015,72.92180931242183 6574.052514986717,70.55337806040188 6554.7549300622195,58.11615108512342 6553.955099591054,57.34813568269601 6550.333143324475,39.86882118554786 6550.067795342184,39.0652411042247 6530.094170168857,12.454119694186375 6528.892385564512,10.662314165034331 6521.509827982169,8.18852829176467 6520.604557368904,7.435090003767982 6479.842912995606,5.773735427646898 6479.509990115534,5.807396083371714 6476.0339606754715,15.452109901467338 6473.830203448888,15.580291265097912 6456.3868504178245,5.142481881775893 6455.699450595537,5 6434.997647644486,15.524500105530024 6433.397986702155,16.335545375943184 6431.846676764428,10.09147849387955 6428.554730666685,6.918655871879309 6414.055254755542,18.715177907026373 6409.766578915529,21.175932808197103 6411.231963875587,49.57747282180935 6411.214778880007,50.17402035789564 6406.19297365332,52.481362153426744 6405.894129493274,52.85708080395125 6404.486998755601,66.45903744344832 6404.337867946713,67.27450059365947 6387.787260871148,93.18885488581145 6387.63813006226,94.08441617921926 6401.296123733395,104.00171342288377 6401.958182968898,104.70918545522727 6406.239285759977,96.71346394601278 6406.625219982234,95.65982067637378 6411.426532977843,97.6703113723197 6412.276753351092,98.42066851828713 6409.247242524405,119.84530386514962 6409.293263360043,121.18456083949422 6429.518546773354,156.5856700661825 6429.526411093306,156.64234625268728 6404.932934826706,173.05799897527322 6404.541757724364,173.70949400169775 6401.0185423644725,188.29205401812214 6400.700183039997,191.99017547053518 6403.264533902169,209.02411845955066 6402.749275306705,211.20169406279456 6385.76904334221,238.20926474500448" stroke="red" stroke-width="3.853451771963634" fill="none" stroke-linejoin="round" vector-effect="non-scaling-stroke"></polygon><polygon points="6385.76904334221,238.20926474500448 6396.642485191114,236.9264690646669 6398.049324657768,238.63440503925085 6398.414287360036,251.80228415731108 6398.934788835584,253.00346935080597 6393.031597226625,258.3861521924846 6392.5498348088,259.95943427970633 6398.2896233245265,276.2576106826309 6396.602289777831,278.11628621141426 6405.831506204442,281.7663540780777 6405.89005169773,283.63925790734356 6399.188777244417,291.09755482780747 6398.764977777726,291.9195358227007 6423.440883768955,304.324390932743 6423.812545706634,304.7079589072382 6431.900561920018,334.08824955369346 6431.6992935822345,334.70933172188234 6444.557748053339,342.9890285637812 6445.313305315562,343.5506957642501 6450.026071893284,343.8223211802542 6450.595798186725,344.05113079893636 6451.238050986663,333.56246918055695 6451.411939839949,331.11034517304506 6465.166052977787,303.79577512620017 6465.793742222246,302.13210036582313 6497.984734151047,304.98746119102 6499.636532622273,304.92299611656927 6547.64820622222,289.68014830106404 6547.783064746647,289.61383665632457 6545.613677511108,281.0184774325462 6545.281045902288,278.81904190941714 6557.889298488968,282.5312670998974 6558.295330417808,282.59712041181047 6565.6706062222365,277.42273869458586 6565.828766435501,276.6039260700345 6562.924793457845,271.9562534946017 6558.986808035639,272.00553077086806 6560.390443520038,267.0957086334238 6560.24218652444,265.29496728343656 6548.959800035576,264.4544626522111 6548.014334008913,263.92667012289166 6544.256645404501,249.16361417988082 6543.651384035591,248.61367609846639 6520.077065386693,237.69798982387874 6519.9317211022135,235.97714928223286 6525.650829368853,221.95888018468395 6526.44629077334,220.5663541991962 6522.743069866672,212.76057959953323 6522.600929564447,212.56802283599973 6527.578170311055,198.58969253842952 6528.089642382227,197.3845183342928 6548.637945457827,179.60971919080475 6550.766846008948,177.24891132989433 6556.235461119912,161.83990386663936 6556.76004039112,160.6746112992987 6519.551029759925,160.95291820325656 6519.254807039979,160.85707745573018 6509.357997226645,155.53923145349836 6508.321072071092,154.6738767917268 6509.562178275548,146.10907421796583 6509.684803413344,145.63813152397051 6500.750353351119,135.5402641344117 6499.123895466677,133.19740644097328 6484.966663111118,134.33980620687362 6482.796984604443,133.59556501428597 6472.901922417805,123.40588405058952 6471.978301724419,122.41781282064039 6484.032556657796,81.64486081933137 6485.234341262141,79.31063562911004 6481.815109688905,70.41508815938141 6481.733262506663,69.238698476227 6471.529452942195,64.58793197327759 6471.151383040007,64.26109764224384 6469.141903644428,51.666303980047815 6469.046366719995,51.34590413607657 6450.580360817839,34.025162693229504 6451.199894471094,30.0375527284923 6434.638801635592,22.827025022706948 6434.214419626631,22.498744083102793 6431.846676764428,10.09147849387955 6428.554730666685,6.918655871879309 6414.055254755542,18.715177907026373 6409.766578915529,21.175932808197103 6411.231963875587,49.57747282180935 6411.214778880007,50.17402035789564 6406.19297365332,52.481362153426744 6405.894129493274,52.85708080395125 6404.486998755601,66.45903744344832 6404.337867946713,67.27450059365947 6387.787260871148,93.18885488581145 6387.63813006226,94.08441617921926 6401.296123733395,104.00171342288377 6401.958182968898,104.70918545522727 6406.239285759977,96.71346394601278 6406.625219982234,95.65982067637378 6411.426532977843,97.6703113723197 6412.276753351092,98.42066851828713 6409.247242524405,119.84530386514962 6409.293263360043,121.18456083949422 6429.518546773354,156.5856700661825 6429.526411093306,156.64234625268728 6404.932934826706,173.05799897527322 6404.541757724364,173.70949400169775 6401.0185423644725,188.29205401812214 6400.700183039997,191.99017547053518 6403.264533902169,209.02411845955066 6402.749275306705,211.20169406279456 6385.76904334221,238.20926474500448" stroke="red" stroke-width="3.1969914512547577" fill="none" stroke-linejoin="round" vector-effect="non-scaling-stroke"></polygon></svg>