<svg width="1531.8554379376583" height="2453.908031466941" xmlns="http://www.w3.org/2000/svg"><polygon points="5,1119.6255633540568 23.032885759952478,1181.6401830805698 23.096091591054574,1183.2012284352095 48.379880391061306,1199.0443453633343 49.3524346309714,1199.95979091333 59.637217564391904,1222.0004389180685 59.82974776881747,1222.8714020739426 59.33283925324213,1246.9571589495172 59.73479338653851,1248.880933724984 71.68622961768415,1260.3009589582798 72.68587207107339,1261.976461535145 68.47875214216765,1323.8840440822532 68.4210804621689,1325.3883882490336 62.74944938661065,1338.9881300157867 62.19865571544506,1339.4480491986615 70.63066311099101,1343.4252232345752 71.44826111989096,1343.8534463878023 68.79245112882927,1355.2345490747248 69.310913706664,1357.0817777678021 79.23422919108998,1363.3579835723503 81.3404105954105,1365.779520519136 82.86404977773782,1386.1447135817143 82.82123292435426,1386.6095116586075 92.607942257775,1409.7218965224456 92.54094990214799,1410.2472832285566 117.0566567821661,1426.5621504929732 117.66133560880553,1427.2730190773727 104.03305159101728,1457.6626333668246 103.89906687987968,1457.7933857530006 134.95060622214805,1478.9357845893246 135.1909048887901,1479.4650760475197 131.05718528002035,1491.1082584587275 129.87229440000374,1492.9461941270856 133.64687672886066,1506.1084912443184 136.79143964441027,1512.1198748690658 134.46127075550612,1521.308965510456 134.8253596443683,1521.543256027333 123.75676615105476,1532.9377032624907 123.62278143991716,1533.4460591268726 136.5059939555358,1565.5826901870896 136.69998051552102,1566.9026777122053 129.1965454221936,1583.4174478448112 128.80507704883348,1584.068119204312 115.80943388445303,1593.566614927142 115.27728156442754,1595.083116593829 143.33717532432638,1651.4507072835113 144.12855893326923,1652.6295953006484 144.00564252433833,1669.457889078767 144.01321557327174,1669.5749548560125 171.31784334219992,1685.8216292691068 171.43406051548664,1686.1859068319318 160.73130353773013,1690.799434074026 159.7654485333478,1691.7096541258506 134.72254094213713,1721.396384305379 133.67571256880183,1722.1225606765947 125.54196679103188,1725.5984131240402 124.13192334212363,1726.2952037177165 114.73930382216349,1719.0646504400647 113.2832395377336,1719.2115142576513 91.31295089772902,1732.6263164606062 91.08022527990397,1732.744703944365 93.4272878933698,1741.8576363357133 93.42641407996416,1742.2019393932424 84.48730367992539,1756.6138336882577 84.38681514654309,1756.8650405140943 85.60811491555069,1783.117722843599 85.5830655999016,1783.3490219213418 79.97172764444258,1788.209408170369 79.75327431107871,1788.7722826058161 85.11033258656971,1802.3463326349156 85.15722723549698,1802.4953990178183 73.04530062223785,1817.073147914547 73.00335758214351,1817.3437076607952 84.23884942219593,1826.994205508905 84.71944675548002,1827.6319562318386 85.60432839102577,1837.0954702679883 86.30658303992823,1839.4896250835154 81.80440547550097,1841.9049804788665 81.56789333326742,1841.791168520751 82.76414378662594,1838.46394906973 83.43464988435153,1836.9401044757687 79.63618332438637,1835.5372908934369 79.47015879105311,1835.913964839594 75.06177052436396,1882.3676950620138 75.1823567643296,1883.2906632813974 84.82139164442196,1899.3065210191417 84.79168199107517,1899.404951472592 99.82156259543262,1896.6696519905818 100.93538332439493,1896.7116434763302 101.58433535986114,1905.1811159562203 101.6382205154514,1906.2579498630366 119.72470015997533,1913.2633359290194 121.20377486210782,1913.7075987759745 123.55608035542537,1925.8955794745707 124.12580664886627,1926.5456823207787 144.27885482658166,1938.6069964632625 146.5373710221611,1939.3487024327624 137.26300757331774,1949.4140760846785 135.8535466665635,1951.3077427960234 142.92240526224487,1974.1324706926825 143.28678542212583,1975.5686976317666 133.46395847108215,1997.7437098391238 132.63966122665443,1998.174261561595 150.01194410666358,2019.7391236723051 150.90498133329675,2020.4051928826375 147.97392014216166,2032.2320959119243 148.13790577778127,2032.9951435999828 162.86340807098895,2060.237945465429 162.79961969773285,2060.4333078161 220.11740529770032,2129.6009053717717 219.61234119103756,2130.0988532793126 233.9443362132879,2137.289653877844 235.0328163554659,2137.5783093156642 257.5317620622227,2135.972207578772 258.01905863103457,2135.7602247211034 263.77020671998616,2144.1802963426453 265.0302455466008,2144.8915382727864 257.75050666660536,2150.4573661935283 257.558267733315,2152.144089400128 270.4589565155329,2167.3912059962167 270.074769919971,2169.250064749969 253.32114687992726,2178.295202788373 251.93120113771874,2179.5794756238465 254.96071196440607,2194.6912107177777 254.95313891547266,2196.362712873204 238.70691015105695,2206.2038905040245 238.02591829327866,2206.5844347976963 255.04255914664827,2227.904227444029 255.46752369776368,2228.605729480216 298.1131096177269,2253.447639355727 299.31605930661317,2253.8524437696906 292.6791557688266,2259.9821187969646 291.4019319466315,2261.0387243397417 281.146567395539,2288.192726863257 280.96452295104973,2288.537522207189 262.0988930843305,2293.9428505676333 261.6150917687919,2294.3705657518585 256.2423048532801,2314.416804813198 256.3390068622539,2315.482160521846 232.6324511289131,2332.1851238693926 231.7464044088265,2332.7357839571196 228.61261852434836,2341.0644613786717 228.58290887111798,2341.4713566622813 236.94734136888292,2352.438769390923 237.20628138666507,2352.663158536714 262.2454024532344,2351.8593216564623 261.1674080709927,2354.5560385353165 271.41374321770854,2350.8031548074796 271.77084160002414,2350.489547969366 277.4051899733022,2331.571375067462 278.2064767999109,2331.022965172946 304.2193171910476,2329.442167084024 306.2232624355238,2329.0050572722103 302.1443017955171,2335.850457144028 301.97944234660827,2337.0779290108476 304.5167049955344,2350.6823982046917 306.6560913065914,2351.2370669757365 313.40309532440733,2351.8850048311288 314.34623118210584,2351.272212471871 318.6631603199057,2341.707923339738 319.5771690666443,2341.1973895999836 342.0449487643782,2343.4287692412618 343.91578311112244,2345.6060547349625 351.0624110932695,2340.5656418753206 351.4687342932448,2339.669386088208 370.21290410659276,2365.618312630686 371.1004071821226,2366.7109026177786 394.32490922661964,2376.548021712166 395.10726343106944,2376.8007695612614 386.8217654044274,2386.675277808623 385.9202813154552,2387.3334724086453 399.785077475477,2400.259094000736 399.665947591071,2400.8902188705397 378.43694392882753,2443.128650784667 378.2898520177696,2443.941610613663 385.77231559110805,2448.578351450211 386.4707837154856,2448.6909471401596 397.32849692436866,2433.2161530290614 397.9334670221433,2432.787358005473 421.79527025762945,2438.3431612044806 422.2895573332207,2438.4692742727348 431.6635355021572,2429.9992690251092 431.79693767102435,2429.90738309687 429.4702640355099,2420.0402313554077 429.3319102576934,2419.726723759435 415.8815928888507,2416.5893708464573 411.6450545777334,2415.548831804481 433.13416334218346,2392.7494242409593 433.32756736001465,2392.4065951314406 438.4367539199302,2397.466536055261 439.60766378662083,2397.6494341499056 447.0534271999495,2390.3784413665417 448.1716169954743,2389.9364977689693 468.42923150223214,2390.0171379008098 469.6473272887524,2389.9094675505767 482.57102648878936,2397.501223636733 483.6225151999388,2397.8030504116905 523.1957734399475,2390.2320279392297 524.772423964343,2390.166254490672 533.7566813866142,2383.29327062791 535.7239264710806,2380.7126923482865 525.5865267199697,2384.322249706718 522.6441059554927,2383.3144449397223 523.9481267199153,2376.0875783558586 523.949583075475,2375.956923997903 536.2496708265971,2377.1062291390263 537.2038749866188,2377.73201446404 536.8584274487803,2367.5723552876734 537.1377564443974,2366.9150023279362 553.2197083021747,2359.7159795655753 554.1843982221326,2360.2084474904696 553.5683598221513,2350.9148996641743 551.6279116799124,2346.513100429671 593.9772748799296,2367.933245277556 596.4769635554403,2368.0125418747775 625.8100033421069,2359.278930249682 627.8174438399728,2358.120069485798 644.1050331020961,2339.5716043146094 648.3709897955414,2336.235732645786 672.0105531732552,2388.0889746521134 672.6708647821797,2389.324262502778 671.6397650488652,2407.3756984996726 670.6972117333207,2408.92890562088 693.2794609777629,2416.013246161572 693.3583954487694,2416.036219106114 701.3366024532588,2405.869329319743 701.791859199875,2405.325610384578 732.4175601777388,2392.503452293051 733.9551803732757,2391.331703007978 740.4513999643968,2362.8672144552693 742.9563315199921,2355.563975807163 748.5426201599184,2349.737520544266 752.972562488867,2344.835986659804 767.9200133688282,2353.2854091604822 768.8238276266493,2354.2735268975375 770.0203693510266,2352.660455054429 772.4632601599442,2348.625921046769 780.7513796266867,2352.814102912962 782.2942427021917,2353.2813539485796 782.6338648177916,2338.167507297534 782.717168355477,2337.4388693174697 818.6303138132207,2311.674526505696 819.1691653688904,2311.7173396605067 816.9123967998894,2296.0651930319727 815.853335039923,2295.5568062267266 819.9835593955358,2288.8115552431555 819.6194705066737,2287.180873336387 837.8125553777209,2281.2097154075163 839.0175439644372,2279.9571397764958 837.841391217662,2268.76792710094 852.0059053510195,2246.0379633523407 803.9744253155077,2214.6613762917113 788.064032142167,2204.115844801243 849.4427195732715,2101.8723470958066 848.7655142400181,2101.1997596716974 870.9711499377154,2097.628831611015 871.9186548622092,2096.893527153821 898.216940942104,2067.6503128064214 898.5277272177627,2067.190120803076 907.1691585421795,2066.923028529214 907.7316030577058,2066.5111102439696 934.4898062221473,2032.8105864791432 934.9156445865519,2032.4473379009287 922.8424570310162,2016.084732212883 922.7399295999203,2015.5012333265622 908.4991024355404,2009.5587522098213 907.6386875732569,2009.359734059486 912.1938764799852,2008.8520338750677 912.6258315377636,2007.2725146456505 897.8248900265899,1991.8851434328244 897.8289678221336,1991.80525895959 917.4207365688635,1979.1619317762088 918.4093107199296,1978.8532075356925 937.5970864355331,2001.3465080018505 937.7814610488713,2001.4647499009152 941.1039906132501,1986.9060734325321 941.2216641422128,1986.6880785617395 955.3850131910294,1973.1755826386507 956.544272213243,1972.4087150830892 954.1296347022289,1969.397187962837 942.9223961599637,1960.89319120656 951.7318909155438,1955.6109772908385 952.0275310932193,1955.425903388299 939.4757851022296,1946.9267797294306 935.3106082133017,1945.7725020900252 944.9307104711188,1922.0305878151557 945.8511271821335,1919.422436002118 941.1220494221197,1915.242194890161 940.9880647109821,1914.9685960196657 942.9663780977717,1909.7290663765161 942.2317923555383,1907.3718014042242 932.8458720709896,1908.4436580431066 932.0043898310978,1908.0138324237196 951.3823655821616,1876.8889584997087 952.4472527643666,1875.0732189770206 965.756594915525,1873.3965478120954 967.6641294221627,1874.2942661585403 965.4137688176706,1864.8152037635446 965.0656998399645,1862.338685202587 960.7470230754698,1862.0857933242223 960.9590684443247,1859.471957968257 974.4859901154414,1848.4671331506106 976.1637117154896,1847.7838294102694 974.6948315021582,1832.1765537002939 974.9461984710069,1831.86446003936 981.6832992710406,1829.7832220207783 982.525072782184,1829.5984931218554 984.2546406399924,1836.3543202477158 985.2871967288665,1836.4708449148457 994.7727317332756,1811.7630627329927 996.0278189510573,1810.867345775303 1012.5096860443009,1818.0496908623609 1013.4277725865832,1817.0776647744933 1011.225762986578,1795.588549725071 1011.2225590043236,1793.0936282097246 995.9351947377436,1783.3106226773816 995.3363413333427,1782.1843924350687 1001.354002488777,1771.7589199559297 1002.0119839288527,1769.743521166034 1002.5324854044011,1719.9029025945347 1003.4237750044558,1718.3732594479225 1017.4208082489204,1715.6302683777758 1019.4393170488765,1715.7753269236418 1038.2822277687956,1732.7578078985098 1038.662627839949,1733.190237945004 1071.4440263110446,1745.8184442120255 1076.365634275484,1748.2601384719019 1094.1206473954953,1741.4939035131829 1094.9114484621678,1741.336662304122 1111.3464209066005,1744.917034636077 1111.5957489777356,1745.0263787529548 1120.8733164088335,1738.2112438530894 1121.5758623288712,1738.0544521289994 1136.2233039643615,1761.9198387381039 1136.7269117154647,1763.1907487665885 1142.5395180088235,1763.6461601579213 1143.0285622043302,1765.1086206720793 1138.9321252977243,1794.0616954743746 1139.0090208711335,1794.4899385132012 1153.546944568865,1783.922750997881 1153.9812297954923,1782.5186932336073 1154.4629922133172,1790.9528426617035 1154.400077653234,1791.4773122167098 1148.5976658487925,1797.9506354568293 1148.2632866132772,1798.8870605351403 1156.0818770488258,1803.8654498251854 1158.0217426489107,1804.507785225811 1154.5535775288008,1810.5488978624926 1154.7327092621708,1811.8141044863733 1208.898650168907,1780.5151395720313 1210.9069644799456,1777.958605506632 1208.7900060444372,1766.5792036181665 1209.367887928849,1763.3046017035958 1216.6983079821803,1757.4822128910455 1216.991035448853,1757.357513488445 1209.5537188976305,1744.9974613059312 1209.592166684335,1744.7028645956307 1218.6608927288326,1731.8735151574365 1218.9148811377818,1731.1279410797288 1210.4723879821831,1718.6696992526413 1210.4085996088106,1718.0347933861776 1221.7812801421387,1699.014326339413 1222.6486855109688,1697.3453412365052 1242.6054169599665,1683.595726486703 1243.1981536709936,1682.861286577594 1250.6611020799028,1689.4657333886134 1251.4353006932652,1690.0302183399326 1263.0881840354996,1672.0211180430488 1263.9462687288178,1669.8723649263266 1271.6876723199384,1670.0730486960965 1272.3858491732972,1669.7706669995678 1270.6807480888674,1657.1828096582904 1270.671136142104,1656.916119487607 1277.2503680000082,1657.2872255514958 1277.8224244621815,1657.2393117711763 1275.7121652620845,1648.64811051148 1275.6195410487708,1648.2819621458766 1282.8547154488042,1647.8077764977934 1283.1046260622097,1647.7010958857718 1277.0560901687713,1626.9466565636103 1277.2515330844326,1626.5352637438918 1302.2102633244358,1614.6850092789973 1302.7928055465454,1614.4892477263347 1302.3663846398704,1603.5444055934786 1302.8545550222043,1602.6509986725869 1325.3575785243884,1586.4664074441534 1325.7991455288138,1586.24575155793 1320.4729619909776,1577.4089329243288 1319.7150745599065,1576.9260017534834 1327.873287111055,1575.8583945006249 1328.888949475484,1575.3193887696252 1327.5409467732534,1565.3430204751785 1327.6673584354576,1564.0221190937445 1340.3455160888843,1560.5156546546496 1340.8080546132987,1560.3985303533846 1339.3773309155367,1550.088179928891 1339.5285006221384,1549.4582102694549 1354.0739973688032,1520.4505011961446 1354.056521102204,1520.3369737868197 1314.6667636621278,1513.6826265503769 1313.7000348443398,1513.073358268477 1320.6949105777312,1498.7552898973227 1320.7793791999575,1498.1921192646842 1314.997356373351,1484.1092142261914 1313.9784900266677,1483.5627437194344 1316.4907033599447,1475.3474260620424 1316.2276855466189,1473.3206921819365 1337.0034713599598,1461.807310137956 1338.527401813306,1460.861293810478 1344.2951523554511,1463.6739950724877 1345.1544021333102,1463.4921229335596 1343.9878613332985,1456.6455671471194 1342.7016081066104,1456.0958607877255 1354.4567276088055,1446.1307789523853 1355.3509299199795,1445.190124099201 1365.520078222151,1424.4222908442025 1366.9569186132867,1422.4444065489224 1395.5268280887976,1420.9800999612198 1396.8585196088534,1421.7832977773505 1400.944470755523,1391.4352972150082 1400.8562156088883,1389.5295252081123 1416.0419262576615,1389.608272707148 1416.8478734222008,1389.7232259018347 1415.7139549866552,1384.6023190961569 1415.6213307733415,1383.3391586781363 1426.3584577421425,1370.3586412636796 1427.1434333865764,1369.5896526141441 1420.606435840018,1363.0271135384683 1419.5834916976746,1362.531033860112 1421.135675448808,1355.307424602739 1421.3657796266489,1354.6922819585307 1435.120184035506,1347.7341237813816 1436.5613934932044,1346.5223531298689 1420.6576995555079,1321.850469351397 1420.3067178666824,1321.84141510271 1427.542766080005,1314.764952029509 1429.9078875022242,1314.4109191182652 1428.5205631998833,1310.1923599549918 1428.3880348444218,1309.7029511011788 1406.440465351101,1278.614408803929 1406.2421097243205,1278.3821211371105 1380.8910372977844,1267.231569173804 1380.413643946522,1266.9843261053902 1351.2480850488646,1237.9883765304112 1350.146788977785,1237.042294291663 1315.2670734222047,1218.3901847864618 1314.7634656711016,1218.152850717248 1296.001237048884,1195.0314686509664 1295.9147295288276,1194.595705381711 1343.3030829511117,1169.3919762689038 1343.8524202666013,1167.8793064471101 1349.7591071288334,1147.8190158843063 1349.8759068443906,1146.845810589206 1334.7857331199339,1106.3769193495973 1334.0080392532982,1103.6302976258448 1333.7689056710806,1071.2392102398444 1331.8602060800185,1066.481114302238 1367.8732575287577,1033.788489654602 1369.1833949866705,1032.0500338347047 1388.4122399288462,979.4854511006852 1394.271158328862,972.0659418926807 1420.6641075199004,961.081992346968 1421.990556159988,960.5845432148199 1427.1946971021825,946.5761448457488 1427.9805465599056,945.3471756334766 1452.7723784532864,920.6166640694137 1453.2774425599491,919.9758012605016 1485.9970915555023,902.5987652072799 1487.707144248765,900.658775633492 1503.4188905244227,879.3712779231719 1504.5997036088957,877.9754450014443 1525.4480159288505,831.4591952781775 1526.8554379376583,827.7421847211663 1509.244604017702,755.8591784918099 1508.2764188443543,752.6279086531722 1517.1342646044213,735.7545355876209 1518.8705316977575,732.8902035937645 1485.5645539555699,653.7057736114366 1484.0132440177258,651.5932735076058 1476.178633671021,643.5604089842527 1473.3090306844097,642.4882177878753 1448.9963397688698,648.9448995980201 1446.604130133288,648.5761591096525 1423.1803986488376,632.7442507072701 1420.8359574754722,631.2800747544388 1391.9293385954807,629.0079484497546 1390.233266915544,628.343518463138 1352.0968490665546,580.155806364608 1350.4532061866485,578.2156653719139 1302.3701711643953,574.0932057782193 1301.3271293154685,573.4240652957815 1280.7808651378145,534.8584702375811 1278.0461206755135,532.8697633426054 1281.4895277511096,509.8840440674103 1280.4121159110218,507.2575731842662 1253.459052373306,485.7797575223376 1252.2001786309993,484.01510406960733 1241.8157809777185,458.57668979553273 1240.9839106843574,456.08868107775925 1241.5993665421847,435.1894654179341 1239.9868896710686,430.8233714994858 1207.0851962310262,411.19463908753823 1204.6181299199816,409.36573410365963 1183.3460181333357,376.29594988172175 1182.3297732266365,375.03056253510294 1145.527085795533,388.11603056878084 1144.2676295110723,388.43929258343996 1133.3904011376435,401.36346873641014 1131.247228302178,401.63215541793033 1097.135303395451,388.27516101580113 1094.8339703466045,387.7964053473552 1045.9959606043994,400.89474379789317 1042.0763252621982,401.7594518685946 1018.9453212444205,388.59433087555226 1015.4328829154838,387.6986535854521 988.6912822043523,394.4047771571786 987.3980384711176,394.7925893642823 979.799357724376,370.40544772305293 979.0694323199568,368.16287726775045 983.3924781510141,360.44511153839994 984.1570648177294,359.9317360292189 995.8090743466746,362.5627158561838 996.5692919465946,362.39765532064484 996.2678263466805,345.404388865747 997.2572743110359,342.4093982325867 967.438976853271,330.2684857615968 966.8593473421643,330.11477019422455 975.3848527644295,319.1624835297116 976.3244933688547,317.6197867236915 960.9826614044141,318.30426882224856 960.1941905065905,319.4781164911692 957.0423458132427,306.0724078967469 956.7802018132061,305.4456508841249 947.7461370311212,307.3227327048662 944.2966132621514,307.264969585638 943.2343475199305,302.07805177319096 942.3057752177119,300.46564285160275 948.731798471068,298.3974664164125 950.1438808176899,298.3406106173061 949.9839729777304,293.0270293886424 949.9385346843628,292.46618927369127 940.6365004798863,285.85016802791506 939.6528779377695,283.49255054758396 932.6122726399917,288.6521651801304 931.5409774932778,289.32400230836356 926.0930426310515,283.80323168291943 925.3564179909881,282.9325955786626 915.4721328355372,286.14901912095957 914.7704607287887,285.9174891623552 919.7083798755193,273.78433727129595 921.4726089955075,272.67756795324385 913.0793406578014,265.5323333379347 912.2524219732732,264.60293971793726 911.755804728833,256.88149479567073 911.9401793421712,256.0171198915341 928.6967150933342,236.4067137799575 930.2168590221554,234.40799443173455 936.3792819199152,217.17675137059996 938.808482986642,212.4040318056359 934.0345494755311,205.22177623858443 933.5804578132229,203.8211541280034 923.8753043910256,205.12439734564396 921.6864019910572,204.81178350170376 913.4201278577093,195.15329568291781 913.3441060977057,192.83974537346512 909.1064027021639,191.8904727154295 906.9789585066028,192.5935537738842 908.356379591045,197.8144851551042 907.0861462755129,198.16078323451802 901.6390852265758,187.16816639719764 901.2834431999363,185.70917733636452 898.4572396088624,147.16028295556316 898.1074230044615,145.4766280745389 887.5133101510582,121.86812701489544 886.9153305599466,120.76422510348493 837.126320639858,135.3534860322834 834.7483832888538,133.38934153836453 822.8554925509961,90.493730853952 822.4625678220764,89.5549375420087 792.6981555199018,56.39909002161585 791.8138564266264,55.50705087912502 785.8055159465875,21.775810387160163 786.6761252977885,19.645316987589467 774.7660495643504,5 773.7384450843092,5.177629803481977 736.7708982044132,31.42197471455438 735.4159049954033,33.181200151273515 730.7110027377494,47.85375995718641 730.6635255465517,48.672971420688555 744.646286506555,70.80417229438899 744.3885115733137,73.61623010254698 724.2951739731943,88.799620286969 722.8388184177456,90.39903219760163 718.2728524799459,104.27194519917248 716.8648479288677,105.94271733419737 699.5490716444328,110.883028835 697.6732856888557,112.16998611087911 686.518475946621,105.92769409978064 682.9871049955254,104.45586733910022 638.3774779732339,105.2270639227354 636.6257735110121,105.43647928722203 604.7878021687502,90.08807430008892 603.2280453687999,89.97880641190568 551.0922641066136,104.72765298839658 549.8499928177334,105.20475662196986 547.7729385243729,122.38069976802217 547.0170899911318,124.5916680181981 520.8606529422104,134.59741768235108 519.8980019199662,135.13863725663396 509.92808305763174,148.14434337621788 508.99368533329107,149.7751792971394 508.18395164445974,189.44992190483026 508.1370569955325,192.41789748967858 503.61070392886177,208.2682574086939 502.32561578659806,209.9295841032872 471.2766978844302,222.7215105870855 469.9691818666179,223.01862851605983 445.5737699555466,217.75689651974244 444.22401962662116,217.20132225536508 448.86833749327343,221.01159583154367 449.1945611377014,221.22453964821761 446.28330638213083,238.81215927907033 446.0211623822106,240.53649288741872 457.2042254222324,258.5515483559575 457.4095715554431,259.21619971556356 457.38452223991044,270.24611288763117 457.6318114133319,270.87206163821975 449.03203185775783,290.2287275621784 448.65250559989363,290.8473409518483 449.05591608874965,305.3410395956016 448.6289126399206,306.16837706195656 453.3775055643637,312.8806555098854 453.2671138131991,313.9381001757574 445.68794823100325,329.22840227140114 445.4925053154584,329.59995868528495 429.82241080887616,344.5890242627938 429.265209173318,344.9810181123903 413.7360898844199,348.3120278023998 413.084225137718,348.55804301210446 403.20227015111595,366.24585222342284 402.1207805154845,367.8864192915498 400.0009093688568,391.446833851689 399.8299332265742,393.0726619604393 391.86687231995165,405.62468216521665 390.75683811551426,408.2473804463516 389.85156750213355,430.00059957714984 389.3205802665325,432.1993483021506 372.76414776884485,464.58251824596664 372.5273443554761,465.0133825629018 370.6454417066416,487.2144652122515 370.64718933322,488.91683335683774 359.1163485866273,505.7089401895064 358.7449779199669,506.59958727355115 364.46845525328536,507.3048317641951 365.8228659199085,507.3888974820147 355.5031304532895,540.0380189970019 355.37497116439044,540.7436093806173 349.63168739550747,546.0157009923714 346.5378056532936,546.4073317910079 343.8479169422062,537.4078232073807 342.5412747376831,534.4636381704477 333.3464283021167,537.896699456207 332.64854271989316,538.478260848613 336.3258404977387,597.012636347732 336.3934153955197,597.1384557927377 304.07630307553336,613.0306379313697 303.79726535105146,613.2250305238995 286.03176647110377,611.6476295417524 285.47602119110525,611.7816159608192 275.4213424354093,622.3308570769732 275.0287089777412,623.0139263055171 279.7537089420948,646.6048400579602 280.02196963550523,647.4231598795741 307.6938902755501,689.0389739267412 308.02127900440246,689.8839217968634 306.1152008532081,710.4490590548958 306.4623960177414,711.6966066699824 311.71284906659275,720.7238623337471 312.52782563550863,721.3812007943052 332.0421162666753,729.471113246691 332.21221859555226,729.6082047327072 291.6026177421445,752.9637922869879 291.3128029865911,753.148981960665 256.6008595910389,802.8526406386518 256.440369208809,803.1634882157086 261.69490005332045,816.2758598805522 261.94830591988284,817.0218473083223 299.7896661332343,848.5910165449022 301.3741809776984,850.7043271648581 299.6035438933177,856.7065981585183 299.9131650843192,859.6001508521731 280.27246279106475,877.8865323638893 280.1734306132421,877.9173796096002 307.8217582933139,907.0139120127424 315.9155999288196,915.5677206792752 290.05451178667136,933.0720681628445 287.12665457779076,935.0521319411346 282.9865270043956,944.1857706779265 281.84387043549214,944.7354094064212 281.78852892445866,957.4769341687788 281.7934805332916,963.9002446875093 289.55847708438523,968.4324983808328 291.7698073600186,969.4731576227932 290.1649035377195,974.1200145440525 289.61877020436805,975.6417388747795 278.15288291545585,984.9010843168362 277.06498531543184,985.5707744119572 245.5887726932997,983.3567538770731 243.5673511821078,983.2044059470645 237.77979420439806,1000.9989208454499 236.79617166216485,1003.6788309809635 229.65420401771553,997.154681560176 228.0813400177285,995.23457673128 220.86247679998633,1007.9559191875742 220.3023624533089,1008.3902425052947 204.90198499546386,1009.1210643376689 202.73405411548447,1008.7919227985549 191.94129436439835,1039.3859058076632 190.36143985774834,1040.6737263401155 176.55373283545487,1036.1543085426674 176.09235939546488,1035.9648263900308 166.05020529776812,1041.5327224265784 164.70744547550566,1041.576692055969 169.7866311110556,1082.1219781756517 168.96757674659602,1085.054231872782 147.1851579733193,1095.3684718767763 145.41918122663628,1096.6872309172759 126.47956849774346,1123.8188131331117 125.7327493687626,1124.0598749635974 128.3326353066368,1128.4170668795123 128.86944796436,1128.9404134158976 113.7341272176709,1140.4432981087011 111.64862606220413,1141.600032320246 108.43008028436452,1118.4959005694254 108.16269340435974,1117.8062279110309 96.69651484442875,1111.726863828604 96.47107100440189,1111.654813102854 32.85046983102802,1106.4235948526184 30.392432924476452,1106.3782788303797 5,1119.6255633540568" stroke="red" stroke-width="3.332055024372174" fill="none" stroke-linejoin="round" vector-effect="non-scaling-stroke"></polygon></svg>