<svg width="6186.012442737701" height="6281.913367507863" xmlns="http://www.w3.org/2000/svg"><polygon points="5723.610775608802,6081.7786863137735 5724.2923500087345,6091.03432411782 5725.121598862112,6093.463920481445 5743.569254684378,6088.870949788718 5745.213480106555,6089.92556360492 5750.041007502121,6104.506420429563 5750.291791928816,6106.900219666306 5763.3835545598995,6122.2921058770735 5766.664432355436,6121.418580378988 5773.935141831054,6097.530636108015 5775.889570986619,6094.235573406098 5811.662323768833,6080.2109202408465 5813.749572550994,6078.876008655061 5834.676236799918,6059.874973076105 5838.91743544885,6055.99531284807 5841.643441777676,6047.20579516748 5844.221482382156,6048.141452848155 5877.792225564364,6084.761652871617 5878.134760390967,6085.360497678979 5893.64960739552,6085.517993139394 5894.5679852088215,6085.66104765702 5898.399656675407,6099.225529861578 5898.663839573273,6100.405991226318 5906.203974826611,6105.325865307008 5906.289317262126,6105.722952027689 5893.286683590966,6114.084167336463 5892.119268977665,6114.567871675594 5894.387397119892,6125.09629765671 5894.490215822123,6126.544175994699 5940.28648135101,6130.4649950030725 5945.120999253239,6130.46273908607 5961.969576675445,6141.3224540367955 5964.975203271024,6142.211239387165 5949.972119608778,6158.018382298003 5949.845707946573,6160.722417972051 5966.819240675424,6163.355143950495 5967.699170702137,6163.442660342087 5965.532113635447,6171.372672858997 5964.15702271997,6175.439292165916 5957.992852195515,6178.423235905415 5953.346495431033,6180.168925598962 5953.927872568835,6182.805025935988 5958.873073493247,6182.490175103652 5939.423153777723,6200.737693583476 5938.7270158221945,6202.042994695308 5950.7521436443785,6209.3433360523195 5951.631199857686,6209.411440152442 5956.522806897759,6240.129638237471 5957.808768853196,6242.001102123177 5981.689213439939,6241.872580416966 5983.252465493279,6241.361649517959 5990.229282417684,6250.609178711311 5990.722404408851,6250.834195392905 6022.982427590992,6249.447565864655 6024.335090631037,6249.6247843726305 6035.2213484088425,6261.7276117535075 6038.577082879958,6265.81599745655 6039.480314595392,6276.500810809026 6040.205579662113,6276.913367507863 6049.353822719888,6264.810929907311 6052.1855604621815,6261.811932380893 6055.802565119928,6267.833333092392 6084.9171515732305,6254.546260811971 6085.296095288824,6254.409629783651 6080.028165973257,6241.915871947538 6076.001634133165,6236.251823881525 6075.429286399973,6211.286324164947 6086.991001884337,6204.362658811093 6078.583752533188,6189.066313407035 6078.441903502098,6188.439786774106 6096.05302869319,6182.210056718206 6097.373069368885,6182.507315991563 6099.762366293231,6177.264848071616 6100.494039324345,6175.3995961921755 6096.404592924402,6168.465320712072 6096.868296533241,6167.377703940612 6106.1257662577555,6166.9784736970905 6106.860351999872,6167.489578499459 6109.344894577633,6161.224966127193 6109.433732266538,6160.286183582619 6084.391698488733,6157.110262712522 6082.522903039935,6157.10620255681 6082.576788195525,6148.991154052899 6083.406328319921,6144.735460302443 6079.249307022081,6143.834052856022 6072.836099697626,6142.484190507792 6109.592475022189,6129.104221601272 6117.360384284286,6129.987642433785 6105.545262933243,6097.519354822289 6105.168940657633,6097.2689101286815 6131.901511964388,6061.463646074524 6134.598099911003,6057.832247579179 6062.247812266578,6028.736906775273 6046.288194275461,6022.338309757761 5980.683454293292,5976.723860436352 5973.274973582127,5970.876843832899 6022.277842773241,5924.363330901251 6029.069119999884,5917.821672336257 6055.147205119953,5906.563780108932 6074.338767359965,5898.401027504471 6065.8511271821335,5883.016844207072 6065.001198079903,5881.227222031332 6050.252976639895,5874.93361594103 6047.833970062085,5872.950593303831 6045.665456639952,5861.025426567125 6049.14935039985,5857.342808511923 6101.90058751998,5822.628189630457 6103.838414222118,5822.202123174327 6101.586305991048,5816.60851187841 6103.154509653221,5814.46952764038 6117.54475889774,5810.82814567961 6120.7982572087785,5809.621718357084 6134.031868870952,5793.245728305192 6137.117886293214,5790.95332605252 6147.527624533279,5790.098357329611 6150.554513919866,5789.613030042383 6169.060423964402,5775.272793698241 6171.285735253245,5774.0494487961405 6180.436599751003,5755.2776788087795 6181.012442737701,5753.331533824676 6178.1498302576365,5731.429652753635 6177.690495715477,5729.443065972999 6172.7257796265185,5723.680279957363 6171.7284673420945,5721.756906649214 6161.935350044398,5728.064422879252 6161.55378488882,5729.582285840588 6136.98652302206,5706.178088215296 6136.845547804376,5706.126553267473 6084.659085368854,5761.756869702542 6083.519924053224,5763.027737540309 6079.251054648892,5771.213178384234 6078.72298012441,5772.306385127711 6079.599997439887,5789.376240545884 6080.278950399952,5797.150845402037 6066.225701831048,5783.944020126015 6063.195025919937,5783.508840143157 6052.727033457719,5811.726410082309 6052.3588667731965,5813.018223485153 6033.492654364323,5808.160893127788 6031.098988373298,5807.530110019143 6018.595010844292,5793.726528719708 6016.007358293282,5792.983185526566 6005.594998613233,5797.556174660451 6002.489174755407,5799.006677880418 5973.7514931198675,5793.406145854446 5970.999272391084,5795.266077057575 5974.570838755462,5815.615834220545 5974.148204373312,5818.6751826982945 5941.753613937646,5842.6961976392195 5938.074277262203,5841.417209707084 5937.8703874843195,5852.215861074103 5936.0158643198665,5857.664452800178 5921.907856782083,5886.70399781852 5921.596196693252,5887.7202916165115 5909.9549641954945,5878.360724449391 5909.493008213234,5878.166039747477 5884.163198577706,5909.246993127046 5882.5740233954275,5911.146585035953 5877.103078115382,5926.736073227366 5877.029386524344,5928.482871999964 5859.042812871048,5934.177483487292 5855.685039502219,5935.905707736965 5830.248042097664,5960.167141630314 5826.6365715910215,5964.673417017679 5816.494220230961,5993.1411753760185 5815.9440091021825,5994.862161161029 5818.8820607999805,6011.485318989842 5819.564217742183,6014.870560190582 5826.9074537243,6011.660473442054 5828.665857422166,6012.571454900259 5821.4082551465835,6016.045608979184 5828.450025528786,6039.966386421467 5812.43681365333,6042.137466913147 5811.433675946551,6042.05396421632 5783.780687928782,6022.303551434947 5781.4589659021,6021.909472921048 5784.5438182399375,6025.8669278498855 5783.728550400003,6027.8729378476855 5764.794763093232,6039.128190113523 5763.613658737624,6039.645913253247 5723.610775608802,6081.7786863137735" stroke="red" stroke-width="3.7788489015889803" fill="none" stroke-linejoin="round" vector-effect="non-scaling-stroke"></polygon><polygon points="5,69.29984387819422 7.967761351028457,103.76193405908998 16.47899448883254,99.37502716563176 18.954798933234997,96.73430347046815 44.45587598218117,103.0887797891628 47.01440142211504,103.99667929648422 64.75776369764935,119.0165927154012 68.05903047102038,123.06028932565823 68.96663125324994,142.3722146138316 73.34064952877816,163.08631387946662 92.60299064870924,161.94815715018194 95.17811854206957,162.59097990836017 112.65729791985359,180.34854462381918 118.92953002650756,184.32755123852985 140.4358237866545,172.41210734768538 151.30344021320343,164.74159297929145 148.19645127106924,159.10691313445568 138.68411932431627,133.69405421824194 147.4240002844017,130.16776993090753 153.05223196430597,123.19527891464531 137.51757852442097,92.9963155395817 147.2011778843589,86.34321316087153 154.26770631107502,88.5474821527605 170.14635093323886,109.0148771785316 179.20459121768363,103.19641038635746 189.0603318043286,113.1223171853344 198.12672767986078,103.96837998297997 206.86893880879506,100.34000592544908 211.72879729769193,111.92312355403556 213.2844763022149,113.59457032207865 234.27784163551405,117.2936959436629 239.69082396442536,109.56646817282308 228.39270883542486,100.18273324111942 232.35545230214484,95.39629964053165 208.27927352883853,75.07329603203107 150.37574172439054,40.50914097670466 145.3900541154435,37.33123083668761 151.3360625776695,28.687800878542475 159.37660159997176,13.686619933927432 149.19521991105285,7.511896998155862 144.93537991098128,5 125.88275399105623,26.7595143255312 124.00988074659836,27.17301839031279 102.55688959988765,13.05309709359426 90.89614193770103,18.976578587666154 76.97454791108612,70.03713578725001 74.68428316432983,71.49268826690968 44.08537912881002,79.36697696661577 29.735616568825208,79.031985717942 29.12627740437165,69.23024413338862 5,69.29984387819422" stroke="red" stroke-width="3.08880988263092" fill="none" stroke-linejoin="round" vector-effect="non-scaling-stroke"></polygon><polygon points="6040.495103146532,6184.449640533305 6040.495103146532,6184.449640533305" stroke="red" stroke-width="3.7824043154638787" fill="none" stroke-linejoin="round" vector-effect="non-scaling-stroke"></polygon><polygon points="6030.771599644329,6175.492069755972 6030.771599644329,6175.492069755972" stroke="red" stroke-width="3.179579013520339" fill="none" stroke-linejoin="round" vector-effect="non-scaling-stroke"></polygon></svg>