<svg viewBox="0 0 202.25064168889298 267.9344239859631" width="1000" xmlns="http://www.w3.org/2000/svg">
  <title>Osek, okres Strakonice, Jihočeský kraj, Jihozápad, Česko</title>
  <desc>Geojson of Osek, okres Strakonice, Jihočeský kraj, Jihozápad, Česko</desc>
  <metadata>
    <collboard>
      <support-module name="@collboard/map-svg-geojson" version="0.11.0"></support-module>
    </collboard>
  </metadata>
  <polygon points="8.05255000000011,130.80415469551326 9.223751137825957,140.87956547048043 9.182973182272463,141.05739686321567 21.704135706626175,145.15194727804146 23.639632240032142,145.63449512425677 23.046895528888626,162.8790776569872 23.177093715501314,163.6242855259693 36.68158751106944,162.803573841265 37.505010942207946,162.83931529577922 31.200739013358316,175.80503847552563 31.05714235557366,176.01187984398666 50.664057200054,175.1304572838485 52.4521705511504,175.60087736618107 11.400711422181985,228.2770992673245 12.072091333429626,233.11410691202718 34.76036326224107,230.5205371733532 36.94722676449578,229.52097518867913 47.64619721772738,238.8527235685392 47.548038853310345,247.0014897756987 74.00565023112699,245.16507377956395 74.67353488886852,244.59476345717076 102.32623163561925,256.8688372751126 104.77873439118389,259.881873985963 99.36953858668107,214.26346928228259 98.6442735199596,210.72988376973763 81.58918488000177,194.30384011733213 81.49539558226365,194.1684886783837 122.41607398223255,177.6884939572551 122.43850185778115,177.66392336568197 123.64349044438109,194.26542354570802 124.03583263114683,196.8911361115529 154.24676354669623,194.75322416608788 156.43450086224016,194.8014681248237 167.32600152001373,213.18745361010178 171.45855604447547,213.99815083793465 177.16892617775716,201.05165156766407 177.7736050043966,199.32697245068948 172.80568493341684,196.90989747000958 173.258902782203,195.79627406338795 193.51069186672225,190.2821247277675 193.60797641785007,190.02660506164057 183.06774872003712,182.2241781736734 178.2209974310606,181.91012760494004 178.17381151111454,166.5371841635565 176.84707160000812,165.83308827129758 166.43325556451578,177.41687708345808 162.14108447111334,177.90426830723982 150.67257574221708,168.43992949728954 148.62523110220332,162.97200539461437 193.3411720799993,139.27684238911706 194.1980916888931,136.76170086998127 182.72346626662306,115.80077234368173 182.37976635559585,115.4531121515679 125.52917961785693,98.79516603178445 120.84874413334887,98.82421441164433 118.10963060448535,60.67904712292466 117.58446879112284,55.11949428902108 133.37806224890642,46.94395196586947 139.8850588710991,46.88360648349726 146.10923124440137,36.75337689926482 146.37982210666064,35.860220699432375 140.83751540442586,32.85931447664143 139.65262452440925,32.201282196772354 147.39024159112137,25.563629137911903 148.83378121778492,24.480878746813232 144.9549238311372,15.982310135710122 141.60530605327926,10.112249632343719 130.96109456892714,22.0279063525154 127.73118921786204,22.393596335641178 117.81573805338826,10.024175178411951 117.62582928894676,8.052549999999883 111.10689055114176,10.511490242533455 107.0031718667376,14.33173469544954 86.42807184890967,59.22234879944108 85.9119394399238,60.06356085194375 57.02367063993711,59.54104428596429 55.96256998225704,59.09942965946493 52.05837200882502,44.70802903865797 48.8421564000671,44.88593817243918 45.93643579559989,59.98757477323625 45.9035221599986,61.34593371683832 20.80731195558451,67.97982554577857 19.49484432893928,69.27958363967582 40.486170764524786,80.24095883881773 42.34098519999657,83.5040134159276 36.31079938667949,97.08979595869414 35.355430142233445,97.76282880843019 38.20639177782118,116.28338455348376 39.47516873779364,127.04178714220279 8.05255000000011,130.80415469551326" stroke="#009edd" stroke-width="4.999501724058528px" fill="none" stroke-linejoin="round" vector-effect="non-scaling-stroke"></polygon>
</svg>