<svg viewBox="0 0 4122.550955857804 6248.249510583132" width="1000" xmlns="http://www.w3.org/2000/svg"><polygon points="8.052550000000338,4891.713130236225 9.958919422213512,5062.092849848414 14.87149798215978,5116.171390235511 79.23804447110888,5372.80287969645 175.82587508447614,5791.476385695423 215.70205527995859,5898.711150106188 236.64240927107312,5937.723192005913 260.4905227644849,5975.028690003586 287.10804198214464,6010.411519889516 365.00908319102746,6089.973947441933 411.30516994660866,6127.723429151141 461.22991220441327,6160.5242143879 514.2564005243839,6188.030263170862 569.8248118310948,6209.950877170108 627.3488173777951,6226.055069618771 686.2216994400151,6236.17273115032 745.8218854666702,6240.1969605831255 824.1295411466635,6236.467499536026 878.4125730399755,6229.157710174011 931.767032631069,6216.773072504817 1009.025238497743,6188.933208885515 1328.3157566844966,6030.00829708777 1423.5305352799842,5970.25299810039 1479.8314934310984,5920.693123118981 1529.2846677599955,5864.298299278744 1948.443894355536,5241.578022246162 1972.2596767555005,5202.887206428655 3013.599628542179,3234.563896735228 3937.935974995584,1487.3913889764517 3986.8939884356005,1361.2078573744802 4081.419328311087,991.9471158490924 4111.928812115548,765.1631458053307 4114.498405857805,690.2999678336491 4104.2509056266645,597.7287278802542 4079.3614979110207,507.9773534969718 4040.467192631193,423.3472397608857 3988.564428257734,346.00761859232443 3924.9831486844705,277.9416147476004 3851.3530157777495,220.8946212483861 3769.561466337742,176.3296617048618 3504.293583671075,58.2585098753043 3412.5536694311086,26.305426542734494 3340.9536961689373,12.618762629892444 3204.9513500710964,11.41047113345121 3171.3546837599497,16.071980002889177 3068.6824909066563,43.078044863796094 3014.303339546641,66.06045071626431 2954.303820826557,99.59837082892773 2881.264677004401,154.9162183739536 2842.1265778044253,193.14258202488418 2806.75257517337,234.8762255795009 2775.4554942844916,279.74754575188854 1484.3674584444161,2329.3000893226417 190.28340795552504,4383.612292454956 74.64411650665716,4623.655646368541 40.05072045335692,4718.525341664237 25.548623102229612,4766.8965271817 15.297627617699618,4816.343317823223 8.052550000000338,4891.713130236225" stroke="#009edd" stroke-width="5.828125860319332px" fill="none" stroke-linejoin="round" vector-effect="non-scaling-stroke"></polygon></svg>