<svg width="223.35288490669336" height="317.53295026073465" xmlns="http://www.w3.org/2000/svg"><polygon points="5,22.809572356170975 11.813705102307722,33.177848733612336 15.46711864892859,33.66299477429129 10.152877226704732,45.65159189910628 10.251326862256974,45.987512705731206 21.787993031088263,52.04439712339081 24.369237617822364,53.428726739191916 24.811969706672244,71.21671647345647 24.095442773308605,71.61769467627164 30.873030257760547,87.35336004249984 31.386249955627136,87.95184442237951 54.51259363559075,80.90011151600629 55.80962389335036,79.58828324417118 55.42747619561851,105.26152644061949 55.80962389335036,107.10518996755127 85.15111054223962,105.5001775615383 85.37684565340169,105.65701821271796 74.734964337782,118.23554263683036 71.95361649780534,121.83133969770279 73.35375672893133,131.9255589840468 73.43939043558203,132.31196374248248 88.31169336894527,130.51551476458553 90.86584974220023,132.04486999998335 122.1891450311523,164.43630228971597 122.93305144889746,164.2704664937919 123.93968440894969,183.7980080601992 124.19221646222286,184.64834746235283 129.06139562674798,180.53442709555384 131.60244479996618,178.65885128942318 144.25060152891092,183.22915535711218 145.35393649782054,183.27930843504146 140.80719445331488,198.11914325819816 141.1398260622518,199.66700034146197 132.8470462578116,204.86032855766825 132.55956167110708,205.0821547890082 134.35495680000167,208.94713574065827 135.9808321421733,211.29816724709235 132.1313931378536,215.77698388375575 134.31039232003968,217.66037247516215 104.10645191115327,234.1267943076091 102.67019406228792,235.96801461739233 95.84512938663829,249.9261820137035 95.49210879998282,250.58700578287244 100.54595384886488,262.5858263798291 101.16403114667628,263.365851104958 120.93231018667575,274.99001216399483 121.05872184887994,275.2072507648845 130.6459104710957,269.1854612376774 131.66972842661198,268.92350307526067 143.2026080711512,273.89523472002475 146.49018510221504,274.75832086085575 154.8554914133856,282.9662757172482 155.89183402666822,283.53577186894836 151.107997297775,287.67575198679697 150.3477796977386,288.6575575097813 167.5616110933479,303.9327809236129 167.41743189340923,305.31099834642373 184.42795605340507,310.4616251315456 188.5497335466789,308.7519881523913 199.70570837333798,291.62010859756265 199.84144071105402,291.44082120631356 174.10064753785264,295.00125155970454 172.84934684447944,294.5595879345201 181.3075686399825,281.49488227348775 184.30678727116901,278.5850348024396 188.6350759823108,278.10540078138 189.19635541329626,278.69342652562773 183.2148118756013,290.63515514240135 183.52530688000843,290.55702705320437 207.05127452441957,267.1204997494933 208.41413205338176,266.2677715481841 193.59600554674398,254.1322934157215 192.92462563561276,253.833730834187 197.55612757336348,249.7093699516845 198.48149589332752,248.8674144030083 192.87598335999064,233.76631805254146 192.81772913772147,231.18559785711113 200.00863032892812,227.8215360790491 200.68146659561899,227.19271684775595 203.5324282310903,217.70193423726596 203.73078385787085,216.30193095782306 203.99147150223143,197.76899893407244 204.00195726228412,197.62261585023953 198.21323520003352,181.5108406925574 198.16837944893632,181.2194081232883 218.3094855111558,168.8595980439568 218.35288490669336,168.38785639824346 184.8168029866647,139.56539980566595 183.9077458489919,138.92593210929772 185.5545927111525,132.6491069844924 185.56274830223992,132.44121711119078 156.45486108446494,122.4351530027925 155.63522417773493,121.75721878767945 185.4235207111342,92.95075218507554 186.7572511289036,91.3822492819163 196.11608320008963,93.32050137157785 197.99041279999074,93.87874009337975 202.79580359114334,86.56999394425657 205.03218318219297,84.57065733568743 192.8783135289559,79.03678864589892 190.57435904000886,77.88361797772814 193.39473720884416,70.57524022908183 193.49464320007246,68.39854673994705 181.54116807121318,58.92798207793385 181.16804977785796,58.42887747939676 157.55091427557636,62.73768581554759 157.4029485511128,63.03786612406839 150.15291932446416,52.241061075706966 149.9941765689291,51.81201696069911 152.42745543119963,47.20414753025398 150.07544120890088,40.928752838110086 155.82600675558206,37.4961983456742 156.64622620446607,36.44634673872497 140.632723057759,23.56106400943827 140.23863324453123,23.00400185282342 99.44087125337683,26.922849674825557 95.79211804445367,26.06059163273312 89.80737052450422,21.899820874503348 87.05340216890909,21.130689053446986 90.13971086230595,11.777901511872187 90.33369742229115,11.464537300693337 83.83660401776433,5.208463515853509 83.42736810666975,5 6.809667413355783,15.133538248133846 6.320623217732646,15.079276913776994 5,22.809572356170975" stroke="red" stroke-width="3.640051972970655" fill="none" stroke-linejoin="round" vector-effect="non-scaling-stroke"></polygon><polygon points="5,22.809572356170975 11.813705102307722,33.177848733612336 15.46711864892859,33.66299477429129 10.152877226704732,45.65159189910628 10.251326862256974,45.987512705731206 21.787993031088263,52.04439712339081 24.369237617822364,53.428726739191916 24.811969706672244,71.21671647345647 24.095442773308605,71.61769467627164 30.39651072002016,86.48275219096104 30.873030257760547,87.35336004249984 54.51259363559075,80.90011151600629 55.80962389335036,79.58828324417118 55.42747619561851,105.26152644061949 55.80962389335036,107.10518996755127 85.15111054223962,105.5001775615383 85.37684565340169,105.65701821271796 74.734964337782,118.23554263683036 71.95361649780534,121.83133969770279 73.35375672893133,131.9255589840468 73.43939043558203,132.31196374248248 88.31169336894527,130.51551476458553 90.86584974220023,132.04486999998335 117.819495822303,163.38118683418725 119.72003982227761,164.70380826719338 131.35399054223672,163.0346017581178 131.6554561422672,162.91575955186272 128.8132326400373,143.13237499445677 129.75491214217618,142.54985889350064 122.81363029335625,130.6764048858895 122.46468750224449,128.84017153811874 131.69769045338035,123.6355433544959 133.6256139377365,122.40667980822036 134.8553605688503,126.32961829687702 136.4611382044386,129.87240503332578 143.76738275552634,123.78378387360135 144.01962353778072,123.53837344737258 148.46849848888814,133.22170698118862 149.85494897782337,134.9046993801603 155.40191601775587,131.14506447920576 157.98374314664397,134.10884986573365 153.42331136006396,140.27943219267763 152.94708309334237,140.82218562805792 170.8622953244485,153.41133664926747 171.1087106844643,153.77375317533733 171.41338026663288,168.56001510552596 171.85145201778505,168.847397841746 195.33926314674318,172.97373843414243 195.77005312009715,173.05010120756924 197.62224611558486,180.29179147980176 198.16837944893632,181.2194081232883 218.3094855111558,168.8595980439568 218.35288490669336,168.38785639824346 184.8168029866647,139.56539980566595 183.9077458489919,138.92593210929772 185.5545927111525,132.6491069844924 185.56274830223992,132.44121711119078 156.45486108446494,122.4351530027925 155.63522417773493,121.75721878767945 185.4235207111342,92.95075218507554 186.7572511289036,91.3822492819163 196.11608320008963,93.32050137157785 197.99041279999074,93.87874009337975 202.79580359114334,86.56999394425657 205.03218318219297,84.57065733568743 192.8783135289559,79.03678864589892 190.57435904000886,77.88361797772814 193.39473720884416,70.57524022908183 193.49464320007246,68.39854673994705 181.54116807121318,58.92798207793385 181.16804977785796,58.42887747939676 157.55091427557636,62.73768581554759 157.4029485511128,63.03786612406839 150.15291932446416,52.241061075706966 149.9941765689291,51.81201696069911 152.42745543119963,47.20414753025398 150.07544120890088,40.928752838110086 155.82600675558206,37.4961983456742 156.64622620446607,36.44634673872497 140.632723057759,23.56106400943827 140.23863324453123,23.00400185282342 99.44087125337683,26.922849674825557 95.79211804445367,26.06059163273312 89.80737052450422,21.899820874503348 87.05340216890909,21.130689053446986 90.13971086230595,11.777901511872187 90.33369742229115,11.464537300693337 83.83660401776433,5.208463515853509 83.42736810666975,5 6.809667413355783,15.133538248133846 6.320623217732646,15.079276913776994 5,22.809572356170975" stroke="red" stroke-width="3.1740200540479826" fill="none" stroke-linejoin="round" vector-effect="non-scaling-stroke"></polygon><polygon points="146.66611285333056,150.1608582873596 146.66611285333056,150.1608582873596" stroke="red" stroke-width="3.771712576432641" fill="none" stroke-linejoin="round" vector-effect="non-scaling-stroke"></polygon><polygon points="75.08157696004491,56.70822370797396 75.08157696004491,56.70822370797396" stroke="red" stroke-width="3.163126916043862" fill="none" stroke-linejoin="round" vector-effect="non-scaling-stroke"></polygon></svg>