<svg width="12129.634812017786" height="12898.01531720272" xmlns="http://www.w3.org/2000/svg"><polygon points="5,10399.227052544244 170.10324280889472,10530.19108213589 182.47614833782427,10540.081023280218 261.0896386844688,10593.226148365065 321.4063516444876,10635.614786140912 499.03570858668536,10777.073969057295 508.5355158755556,10784.550337194698 665.0654848000268,10900.224735198775 672.107255182229,10904.954581507365 807.9811507200357,11029.105712861929 820.568431786669,11040.348369874468 958.787059768918,11154.183689974132 966.4670051556313,11160.244798254396 1162.5291630933643,11305.100690585794 1171.403320035548,11311.822923250787 1280.8213518222328,11418.76738573634 1285.7240271645132,11422.996429538354 1388.2144668444525,11496.892259038927 1399.0948992000194,11504.200737870531 1595.9059151645051,11610.112144855491 1597.693154702196,11611.036064884509 1813.9468086044653,11749.994225479895 1819.218524444499,11753.010608952318 1963.7623958755867,11851.695320889412 1974.7928328533308,11858.759702331212 2121.39482595562,11945.973677212256 2126.5144982755883,11948.64448361937 2208.4027497244533,11988.542147404863 2219.588434204459,11993.322417397518 2350.8736446577823,12040.027176266827 2375.430420764489,12049.646073370532 2866.8968268800527,12263.67480422632 2872.2436906667426,12265.808799384162 2965.5829745777883,12297.73758180358 2978.2049169066595,12301.138131030486 3229.1460474311607,12358.853495096322 3235.0984638577793,12359.960828081646 3482.164232248906,12397.316177746165 3493.6627419022843,12398.895681978785 3757.5153382400167,12422.316783088143 3803.9876440177904,12425.97517288971 3848.605135360034,12427.674239937216 4167.819631786726,12427.920090132102 4215.765186844452,12433.601304440002 4228.801316693367,12434.460573244607 4298.252874240046,12434.901300382277 4311.313762133359,12434.614677866979 4401.560329386732,12424.727928543754 4531.49345934228,12418.242821962049 4589.8542867911165,12424.239224026678 4603.862679608865,12424.978576863767 4667.913779484457,12424.876038925431 4680.9499093333725,12424.017058241472 4745.682001066685,12415.44788150466 4758.495599786635,12412.885293324653 4833.938021546695,12391.670650425367 4837.806684444426,12390.302512468246 4889.272833422292,12386.880506841175 4894.092496497789,12386.467634275265 4998.330271573388,12395.134609120782 5123.340628480015,12415.491955421225 5241.983216355555,12444.680275031249 5244.036386417807,12445.16236954258 5370.277072497818,12486.534923237283 5437.2985551644815,12508.90956757433 5517.240824320004,12541.074929401628 5523.829085582227,12543.324393418152 5910.966257493361,12716.550290837593 5940.833488497767,12730.053510114667 6169.064210488927,12825.959820676246 6190.445548942254,12834.00593913626 6306.564563911175,12890.473333649628 6312.3902774044545,12893.01531720272 6519.790163342259,12343.574940334307 6525.9080217599985,12328.185704916541 6537.128076231107,12324.286017555743 6541.543455004459,12325.448279583361 6556.1582742756,12339.17667956499 6557.137527751154,12339.108612455078 6568.468265244504,12335.980216977187 6569.746945422259,12335.381703228632 6579.336464213324,12318.47377897054 6579.853470435599,12318.528354204493 6589.267352746683,12332.437703829492 6589.447067022265,12333.195444515906 6583.991559111164,12345.188448647736 6584.548760746722,12345.851722129679 6600.51857322664,12335.190094761492 6601.577343715588,12335.100437573506 6605.582612764498,12335.480056224333 6612.676229404518,12338.355076123495 6618.4993214578135,12346.655625542218 6619.162254506722,12346.691008065944 6625.428369920002,12341.911352711206 6626.356359680009,12339.870244057965 6625.212538026681,12321.52908595081 6626.023145528918,12320.274759450811 6649.309979591169,12307.101946892159 6649.883783680038,12305.899172138714 6650.793132088904,12294.357707422168 6650.6311853511725,12294.204471670557 6637.163682986691,12297.116245102778 6636.736679537804,12297.16782326682 6627.885241742246,12293.415202063625 6627.75679118227,12293.15011283243 6628.908768426685,12276.126316478825 6628.968770275591,12275.95328452671 6639.503463822242,12267.522648297716 6639.444335786684,12267.230559557618 6618.807195022237,12246.796640959219 6618.15416519111,12245.91255120153 6617.254137457814,12230.887653112819 6617.185980017763,12230.506778256153 6611.445900231134,12220.774305772386 6611.28278840892,12220.570369860216 6607.848702008952,12219.367446676246 6607.229168355581,12219.543491659162 6604.59724259557,12226.929543514387 6604.229949724453,12227.35120711039 6592.450072177802,12235.11684961681 6592.191714702232,12235.164533646835 6580.834471537848,12221.027126239904 6579.705504711135,12217.96658289287 6577.731851662276,12200.4098122383 6577.563496960036,12199.679220305465 6591.559073848883,12181.094156734238 6591.60596849781,12180.250473654713 6579.325687182252,12174.441539580293 6579.257821013336,12173.951760974596 6595.808136817766,12166.822789108497 6596.614375253324,12166.051371751353 6586.24250225781,12151.199022338551 6587.039711288933,12148.827428146731 6607.625588337774,12147.910821483238 6609.379331697826,12146.575500986946 6616.221290097805,12123.365051799978 6617.42656995554,12119.818463999778 6612.209321813367,12110.943817026331 6608.323182648863,12105.064717519097 6593.135724373395,12095.174820702581 6592.726779733377,12094.426121226046 6593.91487459559,12068.217234180484 6594.174105884449,12063.215197385463 6613.9630651733605,12054.088150182215 6621.565241173375,12051.549138373754 6631.323988480028,12033.855893220578 6632.167800888885,12032.699746526137 6643.424555520061,12024.025585320662 6644.573911324493,12023.168512938486 6636.3347254045075,12009.529610636702 6635.439358008909,12008.059926788846 6634.018246257794,11992.471007331624 6634.245146453381,11990.903786082985 6639.834347804426,11986.593609465053 6641.705473422247,11985.812092716922 6652.74319217779,11987.564429048973 6656.012127857772,11988.022537820449 6664.5810326755745,11984.41856067779 6667.371409920044,11983.065526902501 6681.334364444483,11959.67892776936 6682.702756124432,11956.653541143169 6681.801272035576,11939.248912115756 6684.199598364474,11935.830099911138 6725.768063715543,11924.16130781814 6727.919100871135,11924.042794706882 6724.585794275568,11906.688956882455 6725.374847715604,11904.519059116836 6760.916622506687,11897.016777436133 6763.168148195604,11896.43048949499 6778.528038968914,11886.62284506869 6780.88616988447,11885.831914490322 6798.718661120045,11887.124527427251 6803.353949582204,11885.773404794978 6805.865289102192,11878.28052248119 6807.556409173354,11875.547034569026 6814.461282133358,11875.462419294112 6815.757729848905,11874.64507121453 6816.095895608887,11842.206317919423 6816.33328156441,11838.272107991681 6810.859714844497,11819.903964694066 6811.249726862239,11816.767540330242 6812.939390577842,11813.93898473063 6814.827701191127,11812.529803990154 6837.993949013355,11810.47244298237 6839.262143431115,11808.499699320062 6841.128608711122,11804.929601189564 6840.8752028445015,11803.326246945653 6831.680938951089,11782.909638735815 6831.65268565336,11781.979346097447 6841.234922666685,11779.61219584517 6842.503117084503,11778.372199611913 6852.88343694224,11750.567132275552 6853.2146121956175,11749.809058540966 6866.542886968935,11748.105940534151 6867.527383324457,11747.605958311935 6876.839612017793,11734.293573837727 6877.605363768875,11733.9184296694 6884.902287644451,11737.184277925699 6886.3397105777985,11737.262307561527 6894.871041422244,11734.293573837727 6895.621064533363,11733.87161166285 6897.308398080058,11722.34048036189 6897.620931982237,11721.168509074778 6916.433550506714,11712.496760259848 6917.527273528918,11711.731141722412 6920.339787377801,11700.48086339864 6920.839608604496,11699.231121314573 6931.027106986672,11697.871529019903 6932.9334764089435,11698.293513139477 6940.136610986665,11703.996576262522 6941.355289315572,11704.168549807277 6948.308513280004,11693.324828892713 6949.402236302267,11692.840414034552 6956.230504959996,11695.496587991249 6956.917904782225,11695.449767386075 6976.957065955561,11682.98126742267 6977.9179693511105,11682.512152344803 6985.871127040009,11687.473410859238 6986.777271466679,11686.949674117612 6992.214720568911,11673.090465395187 6992.839788373385,11672.184036576538 7010.371105280006,11671.402766015497 7011.792799573392,11670.996673054877 7030.292884195573,11657.62158447312 7032.167796337802,11656.496626937645 7037.027363555564,11633.12152801588 7037.839718684438,11632.168522051186 7055.371035591117,11629.434062993736 7056.4804872534005,11629.012337005639 7069.167965582223,11620.168638701783 7070.074110008951,11619.54339518171 7072.136600746715,11612.793550676317 7072.7459399111685,11612.40303201665 7083.417822151096,11613.49654374062 7084.324257848901,11613.48093502107 7086.011591395596,11607.371595067496 7087.027253760025,11606.668595767696 7098.042835911154,11606.777857874928 7099.589776782261,11606.121684630343 7105.261699128896,11581.059061915556 7105.777248995553,11580.24676952773 7110.386614328891,11587.105897296802 7111.167803448916,11587.621604891669 7117.808493511169,11587.69995158806 7118.480164693377,11586.949804118718 7131.433573546703,11559.824776246736 7131.74610744894,11559.199778250942 7129.620993422228,11548.59033585072 7130.324121884478,11547.355929145007 7139.354400142271,11545.045313182345 7144.2591143822065,11543.99041850795 7150.796694471152,11546.961771090864 7152.205572835577,11546.257209255244 7154.990415928885,11528.876788691734 7156.883969422255,11527.938348788652 7164.747124337824,11533.152287907084 7169.812037688913,11534.109033046989 7185.965350968938,11527.519562814967 7190.2869404444355,11526.766948242672 7199.891314062232,11498.853583289078 7200.088504604471,11497.218896619917 7196.396643271088,11475.969117920205 7196.650340408902,11473.432490599633 7210.338917546731,11467.407475371496 7211.497885297809,11466.685118500085 7216.414832924434,11449.783072285354 7216.656879217771,11449.384354799637 7232.813105208916,11436.712344196101 7233.758279964502,11436.04850286874 7274.883430684451,11441.079689573264 7275.508498488925,11441.407854855992 7289.651167288888,11438.986093465937 7294.721323520003,11439.478793194983 7299.734681884467,11445.36324001028 7300.850832782278,11445.60223173513 7325.881215715606,11442.607022911077 7326.591917226673,11442.086102643167 7325.815097173385,11425.353993817465 7325.866069617798,11424.818648486398 7336.455813404464,11409.330384110275 7336.7837846755865,11408.53350250778 7339.313474275579,11391.67446596123 7340.466907875612,11391.037905219826 7367.981250844488,11397.322715649847 7368.756614542217,11397.417898663378 7375.5577949867,11394.316486998752 7387.473404871125,11392.085828013427 7392.424722488911,11395.02390675008 7396.287559964461,11396.982518840698 7396.17891584005,11388.222618188767 7396.614074880024,11387.515491700382 7400.858186240017,11388.005225664354 7404.394800071139,11386.862412449904 7407.2783840711345,11381.693606078508 7407.822478506714,11380.823126495408 7420.44558592001,11382.346389974758 7422.948187306698,11382.401038828422 7423.8187966577825,11387.896229110309 7424.798341404472,11388.984392279293 7430.946492017771,11378.483425646089 7433.231805155578,11376.633458898286 7437.638737066707,11375.98066957231 7438.226522168901,11381.613434324448 7438.618281813338,11381.856952245056 7453.635346488911,11377.83063807839 7455.3218062222,11377.340896860173 7455.702788835566,11382.509735986067 7456.029303751129,11383.761253401404 7475.290188515559,11398.615041622834 7475.997394773352,11399.376503929961 7486.879283484479,11395.24159731646 7487.96747235558,11395.676677979762 7487.85882823111,11402.532540008542 7488.185051875596,11403.457339005778 7499.393455502228,11409.442379830405 7501.406721422216,11410.476162519364 7504.507884942228,11405.41622731724 7505.269850168901,11405.633614333172 7517.675086791161,11422.500715490838 7518.545696142246,11423.697514513275 7521.918906880019,11419.780136755959 7522.843983928906,11419.508108315582 7534.4764782933635,11425.33207559277 7535.03164103115,11425.710690306907 7535.630203164474,11436.592546554806 7537.262486471154,11441.707196702017 7543.5076303644455,11450.019660563674 7545.132631893386,11451.498935936543 7562.889392640034,11458.193315288227 7564.288950328948,11458.957113501965 7564.664107520017,11465.70696322387 7565.065770382236,11466.082553397748 7571.159453297791,11463.362147032865 7573.6078782578115,11463.634158130037 7576.476607431134,11468.769623402448 7577.257796551159,11469.238283364568 7588.842231182265,11464.445086822263 7592.347387733404,11463.402978727594 7616.2458911288995,11462.79290491878 7618.822184106684,11462.87246674049 7624.414006897772,11470.988324694626 7625.445106631145,11471.316475712985 7629.39823815116,11465.78532378067 7629.710772053339,11465.331973309512 7635.542893511127,11470.042900620669 7637.10381539556,11470.326618048188 7639.447091484442,11463.463025333127 7639.962932622235,11463.002167501778 7659.574216533336,11458.168095521454 7660.644346595567,11457.815619160188 7673.917862400005,11459.730518376455 7674.464869546704,11459.839803777752 7684.824217884452,11471.792939904903 7685.574240995571,11471.558760948188 7692.592709688935,11463.451616478444 7692.386489742261,11462.621171445935 7683.0800864711055,11449.092822515871 7683.115912817826,11447.369747102552 7672.562286648899,11443.241734450567 7671.269916728896,11443.528765588359 7667.644465208927,11433.082976821112 7666.926481920003,11432.364787360246 7668.29050453339,11426.406067779579 7668.111081528885,11424.718965518405 7662.583047111169,11416.606164666824 7662.618873457774,11415.78046713234 7669.798123804445,11396.180818721186 7670.264740124461,11395.319365377945 7663.08548977779,11389.468119889614 7662.618873457774,11388.893712081015 7661.32650353777,11378.69901956385 7661.003483875596,11375.71973383089 7671.428659484489,11357.1173723283 7671.492739128938,11356.98464878928 7671.888285297784,11347.900532364263 7671.888576568919,11347.64859445882 7677.89837340446,11342.698100953363 7678.12003072002,11342.248572994198 7676.592313742265,11333.525810516672 7676.61852814228,11333.181978616922 7682.457931377809,11335.575885874336 7682.828719502257,11334.941074853938 7676.3671611733735,11323.59755752451 7676.5468754488975,11322.05404391134 7684.695476053341,11319.900025820127 7686.9569049600395,11319.541172295227 7690.663621120038,11300.1808213552 7690.6872140800115,11299.87871506851 7701.26880227559,11281.146664001863 7701.363756657811,11280.95806757937 7708.889619626687,11252.809469405562 7709.113607111154,11252.431059604278 7707.075291875575,11243.763015297067 7707.061019591172,11243.563296400534 7716.754230897815,11217.996093504073 7720.368614115578,11208.501966305543 7730.856121742283,11191.96028758731 7753.743040568894,11152.516042246774 7859.926215395564,11057.921127776674 7878.139689244505,11041.236406598415 7889.898304000031,11013.375956068456 7891.290288640012,11010.077521977131 7995.07397205336,10954.74712957855 7998.077851022244,10953.270985934476 8101.029372871155,10960.220520863775 8102.3266943999915,10960.37916052097 8139.291328568885,10957.09969872178 8139.501335040026,10957.097895989951 8166.3766291911015,10946.945435274625 8167.2382091378095,10946.58638572396 8179.981611520052,10936.10445896408 8180.699303537782,10935.6378373013 8185.473819591105,10940.196774313808 8185.832665600057,10940.232529383386 8207.083514595579,10935.78145945695 8207.550130915595,10935.566026212065 8214.011689244478,10927.058611942339 8214.263056213327,10926.304735845246 8211.504427519976,10922.766404657159 8211.534428444516,10922.565990815987 8216.94304170669,10919.842219633341 8217.39946353779,10918.939000877319 8215.788734293368,10913.902167151275 8215.82456064003,10913.579157092841 8233.929099093366,10898.153219812782 8234.827379200025,10897.78182474157 8250.47708472889,10899.20069705078 8250.59359317337,10899.252680245147 8268.213165226683,10913.21768611978 8268.523951502226,10913.26335827331 8274.635693226708,10908.486695431056 8275.131145386666,10908.289282147132 8279.774006897816,10913.841471319494 8280.08188046224,10913.84117084503 8280.831612302281,10906.590984677547 8281.008705137821,10906.520372429688 8287.477253973368,10910.93527643301 8287.69162951113,10910.874880811898 8291.456891164475,10903.65350896871 8294.519315626705,10902.09101671452 8301.144277048938,10906.46598596999 8303.144144497812,10906.15348910034 8315.178884266701,10882.742858073558 8317.26758940448,10879.424859422958 8309.766484480002,10879.16343337379 8318.153927395586,10865.871438786271 8318.30334947561,10865.424301107065 8316.59242296894,10856.25821426342 8316.471545457782,10856.095944292785 8309.026073315588,10856.9397477163 8308.830921671179,10856.373305719055 8308.034003911132,10848.20536990097 8308.09458830225,10847.906669380085 8312.674535253318,10842.58052252041 8313.100664888916,10842.162218084792 8311.36439779558,10840.077603700163 8307.193104213395,10840.110959984828 8241.766622151132,10760.000059507613 8240.681054720015,10758.813516342838 8237.752906239999,10739.264106847753 8238.1516563911,10738.077827888657 8231.203384035558,10739.67075329891 8230.183935146662,10740.294397603371 8238.036895573372,10730.743409929913 8239.315867022262,10729.858874293393 8241.760214186681,10722.640082538244 8237.646883555572,10714.57783518493 8236.41043768893,10710.152635235398 8246.16714609781,10695.129041212145 8244.870989653398,10678.504533167288 8233.73016092449,10670.408695454244 8232.673720604449,10669.326597968291 8227.080150186724,10658.449618479353 8225.414953244443,10656.57064206095 8213.01903729781,10655.583207949589 8211.697540266672,10655.091744771693 8211.403065173363,10649.189048684144 8211.744726186676,10648.45650598302 8217.867536213365,10644.75590574008 8217.854720284464,10644.063637843356 8209.118625848903,10644.973836216377 8208.455110257783,10644.684063815977 8212.726309831138,10638.380280956277 8212.13240803557,10637.43279966031 8203.603989902243,10638.969750723685 8201.99267811561,10638.080886629527 8201.309938631137,10627.191981056822 8200.914392462233,10626.643082260212 8187.519125333347,10619.028493272024 8181.644187022233,10615.4660108877 8176.050616604509,10614.184823274263 8174.8316470044665,10614.153560101695 8166.530420337804,10621.27851992182 8164.644148622232,10621.27851992182 8160.956656355585,10618.153731387225 8159.26932280889,10617.341193816741 8152.644361386658,10620.653563372209 8150.2693367467145,10620.091132043337 8141.644216604473,10614.028507397103 8139.519393848896,10613.903454669286 8121.3318431288935,10628.841079575766 8117.831638186704,10633.21601081232 8110.644232248887,10632.34096671315 8108.519118222233,10631.091073518328 8110.2527638755855,10567.720738979871 8109.575267271139,10566.445172618958 8120.851828337822,10527.11367418489 8122.270901191165,10524.26053526043 8130.717763413326,10520.944986244955 8137.405348124448,10518.882530943549 8142.467931306688,10523.820086499094 8143.030375822273,10523.695017037273 8160.5861595022725,10507.593933724798 8161.456768853357,10507.26742235705 8190.511353457812,10513.198118889646 8192.5246193778,10510.31425432401 8188.552846506704,10503.730807035638 8188.48614542227,10503.284331707167 8191.268949617806,10496.791314268892 8191.125352960022,10496.567022030591 8179.83568469336,10486.435308896354 8179.727914382238,10486.309631159762 8179.147411057784,10478.838077608787 8178.851770879992,10478.474870798353 8172.255062755605,10478.863033036352 8170.1529591467115,10477.468835016538 8151.926669368928,10460.124252923124 8151.672098417825,10459.944147871225 8141.327604906692,10433.54876483191 8140.970215253357,10432.228141579544 8147.848291271133,10353.762162986386 8147.8672238933505,10353.470761571953 8161.864257137815,10314.447389844165 8161.968823466683,10314.112664560555 8245.584021333314,10316.478594314773 8253.225518933381,10316.482503941399 8251.41847296001,10325.596383039374 8251.939556977828,10327.869946505176 8272.164840391139,10353.447906553687 8272.391158044513,10353.872528607724 8272.985059840023,10367.966400064237 8273.063120497798,10368.732026185666 8278.422508942254,10369.310304880666 8278.891164159984,10369.857007837621 8280.429366897792,10389.811060330772 8280.484999680019,10390.153866949317 8270.094485333364,10402.013364656828 8269.563206826686,10402.341430647182 8270.796157440054,10408.638101553894 8271.047233137826,10409.545009749825 8290.305205191136,10426.325898155163 8291.024062293349,10426.325898155163 8300.398914275574,10414.435256549914 8300.383476906689,10413.747563046287 8315.16461198224,10410.497622875788 8315.773951146693,10410.310287762317 8320.961489635578,10404.138423549826 8321.664618097828,10404.013331830094 8316.19600298669,10389.966526161064 8316.46164224,10389.169650635042 8328.727068728884,10380.41959444061 8329.336407893337,10379.481974258262 8329.083584568929,10369.506672935677 8329.927396977786,10368.709773121402 8342.005536142271,10371.053558025102 8343.052364515606,10370.334846306068 8349.070899484446,10336.888338983059 8349.555283342255,10336.169590662466 8360.570865493384,10335.60692146048 8361.445843911148,10335.950657966547 8371.992770844488,10346.966372391093 8372.97726720001,10346.685192741395 8378.523942968925,10338.481912533287 8379.008326826675,10337.935184008442 8384.945888426679,10337.169522739889 8385.836595484463,10336.107038470916 8401.852137528942,10305.185091604013 8402.289626737766,10304.903894431656 8421.602066488937,10304.20075061149 8422.367818240018,10303.903914226394 8425.196060728922,10298.84143514774 8425.608500622213,10298.492566886416 8445.039778986655,10292.528996764915 8445.680284160015,10292.528996764915 8447.519952497794,10284.879044130561 8448.164535466698,10284.185202699504 8451.521143751102,10286.492591103248 8453.50906908448,10286.31965755031 8460.96124046226,10276.699368860223 8462.535852088942,10275.998601506115 8482.281120711123,10291.692907750548 8485.508987164474,10293.178919914644 8531.745945884497,10302.912954926956 8533.479008995579,10303.450990370242 8540.020958151144,10309.4421317089 8542.795024213323,10309.668591650785 8543.22843562672,10316.379650680232 8543.402324480005,10317.457804694597 8551.356938524463,10320.821573926776 8552.271238542278,10321.353279489907 8554.211686684459,10327.653416983434 8554.314214115555,10327.81521266047 8565.950203733344,10328.557427273307 8567.291798471124,10328.615168408083 8571.094342826691,10322.518338734691 8571.16919950227,10321.739427383349 8590.301051164512,10314.30213172274 8592.055377066717,10313.57343470899 8591.37088995555,10308.801547395356 8592.497235342278,10307.705334790458 8606.410673777806,10300.943362578459 8609.594267022272,10302.744236065599 8612.590864213358,10296.823410191399 8613.936536746682,10294.574402937084 8620.154009884456,10293.841473962064 8622.761468871147,10292.444184905267 8623.107207680005,10287.546131418901 8623.52489045338,10285.32746922446 8629.719353173394,10285.831834313343 8630.790648319991,10284.793629792926 8633.61277411558,10267.50813019037 8634.67940892448,10266.67200994119 8646.700750222255,10269.788507519988 8647.586505671148,10268.943066501117 8654.851098453335,10239.969449265918 8655.263538346684,10237.577984035946 8660.953810773382,10230.196901742835 8661.366250666673,10225.124841877026 8673.379145102226,10224.876396279607 8675.529599715606,10223.838999561616 8686.737712071103,10212.304206687259 8687.36336241779,10211.678568801028 8704.917107200017,10225.091755906935 8705.130317653355,10225.636471079371 8710.907971413399,10275.344751819968 8711.552263111167,10282.193600113387 8727.650234880042,10251.864087170805 8727.83315313782,10250.98523805628 8747.523954062257,10276.567937442393 8749.649068088911,10279.442881035036 8793.251479608938,10296.428826955962 8794.727059057797,10296.544916255167 8796.237299768894,10303.028742356168 8796.727509048884,10303.035960273177 8812.741886008938,10284.08354750101 8813.538803768926,10282.911804809293 8816.148010382254,10263.02134030487 8816.35131761781,10262.130475241633 8809.835582862259,10226.864860817732 8809.226243697805,10225.34922486759 8798.679316764465,10224.333785961499 8798.460572160024,10223.443170178158 8805.11699086224,10219.411772926629 8806.070029937779,10218.75546168082 8809.694898915594,10198.552370502905 8809.757522204483,10197.458684475685 8805.788662044506,10195.739945448004 8805.038638933387,10195.114893652324 8802.554387626704,10180.27109532361 8801.72630385781,10179.661670765548 8806.444895857829,10174.255635496345 8806.804324408877,10172.8962989141 8796.523036728904,10168.81797176716 8795.679515591124,10168.536717281037 8795.804470897827,10159.755501613428 8796.273126115615,10159.036863856483 8812.866841315583,10146.599404945504 8813.585698417795,10146.224286190583 8818.867026204476,10148.380539317674 8819.804336639994,10148.19313087489 8845.554450488882,10133.849460564903 8845.866984391178,10133.66174722067 8856.116814791167,10133.880445294548 8856.83567189338,10133.568191351602 8873.804544284474,10118.771157844807 8874.804478008882,10117.115089830011 8896.163679857797,10111.255494109122 8896.960597617785,10110.989858686109 8913.88257536001,10096.70856505062 8914.351230577799,10096.192926173564 8925.132630755543,10098.64626860933 8925.851196586678,10098.411915380799 8934.788850631157,10092.286813354236 8935.210611200018,10091.73988353205 8936.054423608934,10084.365011534537 8936.476184177794,10084.052433572127 8953.88254577783,10083.068067751417 8954.257411697821,10082.708557255974 8942.926674204471,10046.955699126935 8942.91385827557,10042.474347222713 8972.679435662227,10032.552385441668 8973.538685440028,10032.536740288488 8985.97625315556,10017.474198562268 8986.46063701337,10016.943153730244 8994.116989440052,10016.20871652523 8994.85128391115,10015.380706054159 9002.25743445335,9999.614913394209 9002.445013048884,9999.146137186559 8999.47637788445,9988.239926395414 8999.19500999112,9987.771142174839 9008.424517688924,9973.510074865073 9008.604231964448,9973.11951301992 9007.163896320038,9966.165788772516 9007.359047964506,9965.587461914867 9021.757452800055,9955.720321822737 9021.968333084427,9955.548506150546 9020.666642488912,9949.8069484976 9020.807326435577,9949.283673208032 9024.471517013386,9949.596013539704 9024.992018488876,9949.189188724267 9028.65591779555,9937.368893331732 9028.72931811557,9937.07249556476 9036.494897208933,9935.041339798074 9036.893356088898,9934.892989955842 9047.299599075573,9923.580389428942 9047.721359644493,9923.299031399249 9065.471421155555,9922.744439768256 9065.59258993779,9922.605716558697 9085.694956942287,9883.204744995572 9085.882535537821,9882.65794422233 9092.401183004433,9885.142769425409 9092.682259626687,9885.017881375737 9102.471299128898,9873.314713580185 9102.65101340448,9873.041459646425 9093.166643484437,9858.346070520754 9093.252568462223,9857.916317805357 9107.21348408889,9852.18986639852 9107.523105280066,9852.017422040517 9109.663656675606,9836.048519047501 9109.866963911103,9835.37678201584 9131.729190968908,9824.064893027069 9132.291635484493,9823.822617978381 9137.273245297838,9809.954706788703 9137.726171875547,9809.533048882324 9238.257522062224,9813.93922532309 9238.819966577808,9813.65782080451 9268.319904711097,9832.84542277793 9269.382461724454,9833.439214131271 9280.851261724485,9829.032866337046 9282.601218560012,9829.09546611458 9298.66365525336,9836.282964741986 9315.913895537786,9843.970269759127 9343.476298240013,9845.970405061264 9344.851389155549,9847.970534332038 9366.288651662238,9843.28289114259 9368.070065777807,9842.282820193213 9366.601185564476,9829.439162864932 9366.163696355536,9826.62668290711 9376.16390741337,9822.064089722757 9377.038885831134,9820.501785591536 9371.694934755564,9812.939110112027 9371.56997944892,9810.751672605751 9384.819902293384,9811.939294359996 9386.382571804454,9810.751672605751 9383.57005795557,9800.939114723355 9383.257524053392,9798.689034963143 9387.944950044446,9791.81414520857 9389.32004096004,9790.626788361289 9386.382571804454,9786.626779670944 9385.569925404445,9784.62676626799 9386.945016320038,9768.501531617134 9386.726271715597,9767.907983056328 9397.882537813333,9754.9078719666 9398.382650311163,9753.720448942971 9390.2888086756,9745.939088237297 9390.44492999115,9744.532822975249 9401.601196088945,9730.40799889405 9401.851397973369,9729.720502424694 9392.351299413363,9727.564094678382 9391.570110293338,9727.876539452292 9389.569951573387,9725.064230166958 9388.038739342242,9723.876753588556 9390.695131875575,9720.439230157703 9390.2888086756,9719.814032426337 9380.16364231112,9710.814069503627 9380.101310293365,9710.032937141485 9392.163720817829,9703.782941973303 9393.726390328899,9702.532815443177 9407.187193457794,9676.775107282505 9407.499727360031,9675.650158259552 9401.281089137832,9671.806292034453 9401.09351054224,9671.30627771956 9403.280956586706,9659.868760852143 9403.405911893351,9659.056260345445 9382.562259911152,9594.55636446568 9382.249726008915,9593.99397067295 9388.499821511155,9584.900165071595 9388.34340892447,9583.33760150947 9375.343396693352,9554.025149592082 9375.156109368894,9553.243831680797 9376.84344291559,9543.150144667714 9377.187142826675,9542.337500391295 9382.59342592,9544.96270813467 9384.24959345779,9544.900081440283 9401.19924195559,9534.201367460017 9451.198549617839,9424.250134510396 9351.868984035566,9368.667839942791 9341.643911680032,9236.273734480608 9267.413177742274,9169.3785580775 9181.85287139559,9056.39663998608 9174.05379612447,8969.065648767166 9169.275784817815,8912.321373199928 9179.022298737778,8899.668064455502 9179.866111146694,8899.074331786542 9216.366167893342,8881.480611067615 9217.960003413376,8880.511925388128 9239.5848445156,8854.54313580948 9240.522446222254,8853.60575640417 9266.084981475607,8854.480744360539 9269.272361244424,8854.887042190647 9296.39727473777,8839.512048597448 9297.241087146685,8838.79317358241 9304.866273564461,8826.980601688265 9305.428718080046,8825.824350634473 9304.459950364486,8812.8555697751 9304.709860977833,8811.574502388889 9311.5224009956,8807.54319287918 9311.959890204482,8806.793235121877 9309.491076266684,8792.449523159361 9309.866233457811,8791.668198472762 9316.897518080019,8789.386917917 9319.772363946715,8787.449571477424 9329.678785706696,8774.918323924008 9330.647553422255,8773.04333351308 9331.866231751163,8758.949381381564 9331.83477447112,8757.54310441151 9324.27250261337,8750.074561929388 9323.459856213361,8748.605562587676 9322.991200995573,8736.324380624865 9323.24111160892,8735.230672176986 9348.39732366224,8724.418294009462 9348.991225457808,8723.480726358655 9361.241214577807,8659.48083418241 9361.459959182248,8657.949520195194 9355.616186880041,8650.324553642364 9355.67881016893,8648.88698561181 9377.209861973359,8620.480793152004 9377.397440568893,8619.293116760207 9375.116205226688,8611.730711723038 9374.335016106663,8610.605735723744 9363.147292728885,8606.887059483328 9362.428726897808,8606.699511958752 9361.147425280069,8602.199561123096 9360.272446862247,8601.762047478114 9351.772282026708,8602.637074471451 9350.710016284429,8602.761905930704 9335.741302613344,8593.261981968943 9334.928656213335,8592.668269769172 9332.241097671154,8583.637083012261 9331.20999793784,8582.480698428873 9312.553791999992,8576.824485508841 9311.616190293396,8576.074561669375 9310.116144071158,8561.13681379985 9310.491301262227,8559.261806189374 9296.835055217787,8551.262054211926 9296.428732017812,8550.762085264432 9298.053733546694,8541.136853563134 9298.585012053372,8539.98069431755 9310.178767360048,8524.793321757345 9310.928790471167,8523.73061747587 9312.335047395609,8508.824527540593 9312.522334720008,8507.355582449003 9317.27238400001,8504.9807154577 9318.30377500446,8503.980705352908 9327.366093084449,8482.574507474841 9327.616294968873,8481.386878583173 9338.772561066726,8474.38682029961 9339.491126897803,8473.261906155676 9329.678785706696,8469.199532273225 9328.741184000042,8468.793293474708 9322.397299200005,8449.605682408146 9323.02236700448,8447.793082408665 9326.39732536889,8441.105720455933 9328.585062684491,8437.980825957668 9346.206673635577,8435.469076568144 9352.647551715549,8434.16825917759 9378.772531484487,8402.230602311436 9380.27228643559,8400.605777971272 9389.056440604443,8382.025421943748 9390.05637432891,8379.244098402793 9385.11903772445,8375.150363979279 9383.681323520024,8373.962838287465 9387.712806968892,8353.869281067979 9386.239848960016,8352.326682808693 9909.810156942229,8147.262602708419 10251.541657884489,7851.829572800081 10283.246518328902,7824.462434498651 10534.728830577806,7670.240204728907 10770.885330773366,7525.107331580133 10983.54149518226,7310.9278135965 11022.385119288869,7286.490131355997 11042.822739342228,7285.177592327585 11044.916396088898,7293.146450699365 11072.26034545782,7274.771453696885 11084.9478237867,7271.990108961414 11109.5727573334,7233.146381541679 11109.447802026698,7218.3338779536425 11116.135095466685,7213.396500417264 11136.572715520044,7210.833968312421 11327.224221297773,7043.393271665962 11368.488017066673,7007.417031896999 11739.514983822242,6692.767762740259 11742.681100800051,6690.3258791017 11787.924533760059,6625.322689377295 11788.242310542264,6624.870496205171 11787.046933902253,6615.075517808553 11787.385973475582,6614.230098917615 11803.642979271128,6591.398209971667 11803.939201991132,6590.838306612219 11802.253616071132,6581.592416965228 11802.23206200893,6580.709443305968 11807.918547911162,6570.478170115908 11808.026318222226,6570.155103178695 11801.521360497805,6566.008760001394 11800.72444273776,6565.13635157817 11800.067335111147,6527.66851478687 11800.498125084501,6527.227140858071 11807.379987626686,6533.688896296779 11808.71546567115,6534.108787055244 11817.799629084475,6532.569589566672 11820.015910968941,6531.306585618819 11834.778987235564,6504.173006974335 11836.29650972446,6503.944294618908 11844.09179847117,6507.10451101209 11847.642975857772,6511.376797756646 11857.299487004464,6529.441267760354 11859.938112000003,6530.232954603853 11885.970758826705,6521.3280073545175 11889.264743822278,6520.668813501135 11922.450135324441,6520.362661733932 11924.558646897785,6519.308675635664 11931.089527751144,6506.563288042729 11930.742623857805,6503.569157767983 11914.590475662262,6482.449493006745 11913.54422983114,6480.435177332838 11916.101007644495,6468.489224500023 11918.36360163556,6467.439082954719 11927.760881493334,6468.853490985581 11929.5495773867,6470.308436954685 11943.737393208896,6488.343854804523 11945.236565617786,6488.796752933355 11949.98515854223,6488.381974499556 11951.673074631137,6487.581460410322 11960.380333226698,6472.996250762197 11961.932808248908,6471.142556022387 11968.329413119995,6469.2958142861025 11969.980337777815,6470.0146646098 11970.728321991162,6492.568168268423 11970.998039040016,6494.462640789803 11974.662229617767,6498.318730585277 11976.269463608915,6498.7198883946985 11983.683187200048,6497.891554712667 11987.211936711159,6496.191621736332 11994.891299555602,6488.0815549346735 11995.413839928922,6485.840051270148 11981.065824995574,6461.169358860003 11981.784973368922,6459.300501012593 11984.35747982224,6458.257302523591 11986.78871978668,6459.150737996912 12001.699179235555,6477.204029417946 12004.478196906683,6478.681343808072 12020.755300408928,6479.782293190889 12022.772352853382,6478.20181454008 12022.055825920019,6458.952264126157 12022.577492479992,6456.605063720315 12033.461711360025,6452.027724941203 12035.495657528925,6449.612423031416 12040.391924906697,6417.040473559988 12040.270173582248,6415.517020423198 12030.35355733335,6411.726374310907 12028.526122382202,6409.588074109226 12014.557342435583,6384.189329302579 12015.287559111137,6381.846383043448 12024.235990186688,6377.7532408979605 12029.672274204437,6377.089052112016 12085.067670471151,6373.887016670313 12087.220163982245,6362.312708875164 12085.341756586684,6323.878999178414 12094.70641408005,6279.623455052904 12074.200636586698,6203.603804507584 12079.583617991128,6133.464326882386 12101.662550755602,5985.426372570044 12108.611988195567,5952.305020531698 12123.337781760027,5803.731881880143 12124.634812017786,5734.723877512151 12123.363704888907,5734.566970261163 12017.961719182262,5715.452759060892 11894.537624746736,5678.201022758614 11802.3206084267,5642.867136089248 11738.081347413361,5611.505580833182 11700.993214293325,5587.490396506502 11660.597406435583,5558.926891482028 11580.959806862229,5516.449700125377 11538.862393173331,5492.391655340267 11481.355281351134,5451.160790373338 11413.85378389334,5411.790094193653 11357.93905123556,5379.431830903632 11275.855065600015,5343.282721526222 11266.889449528942,5338.857969750068 11020.28913237335,5317.623377281998 10974.504808960017,5316.271467262239 10880.31792611559,5341.785681111156 10839.180833280028,5355.267094775685 10762.150110151153,5389.504251751583 10682.536686080042,5432.280996360991 10574.043148800032,5604.0242669915315 10569.42417151999,5618.735945268534 10504.070507235534,5640.262924767216 10423.451906559989,5656.554512554256 10337.803345066728,5672.577257643454 10292.944098702283,5688.8570726321195 10284.867150791164,5692.411976037372 10257.086294755572,5752.938777250354 10087.734862791141,5838.353184691165 10085.759462115588,5839.483147332852 10083.275793351117,5841.491695425939 10076.898994915595,5849.578215073212 10076.40354275558,5858.2385250984225 10073.768704284448,5866.50350057811 10062.972740551166,5874.920995344059 10060.110710613371,5876.006069950003 10021.183782968903,5868.988028843538 10016.085082168924,5868.107663879695 9964.433102222218,5873.960083398153 9957.970087537833,5873.695097959135 9931.185669973376,5856.187936164497 9926.450184248912,5854.199424635619 9885.248720497766,5852.043732708436 9883.047293440031,5851.518588282401 9852.523246080033,5825.768693599268 9848.320786488883,5825.207182762679 9840.450932337786,5828.048046727723 9839.071181084437,5829.276155991771 9830.610046577815,5842.171910905745 9827.735200711119,5844.341569097654 9781.249787733366,5854.59312983969 9778.212121315592,5855.352677314775 9773.221773368947,5852.5319288508035 9771.61803463113,5849.473730933969 9780.761617351149,5823.241285026015 9781.792134542251,5818.739170552348 9778.429118293338,5807.565363127913 9774.523755235597,5804.907339982688 9745.649467448937,5804.30946490058 9742.792097848956,5804.093817817047 9717.118879573361,5793.2956164431525 9713.027394275588,5793.3625530397985 9709.792537315574,5794.567410519347 9706.833222826652,5797.085851770942 9700.428753635555,5821.559772636567 9698.204898702272,5827.255150207959 9688.87519374222,5832.6252019133535 9684.953228231112,5832.403204774717 9680.783973546699,5828.183123724826 9680.521829546662,5826.0052306414 9682.824036408914,5798.191963624908 9682.426742613316,5794.357514704636 9677.53863082669,5786.899048614956 9674.468633315584,5785.9734352390515 9666.96141169779,5787.658377646585 9662.709436017787,5789.3611854567425 9660.420045084436,5807.94546918117 9659.583514453378,5810.090413792175 9647.264785351115,5814.541407190845 9645.825906062208,5816.0427317981375 9648.726966328919,5834.304866591177 9647.275562382245,5835.878525869688 9643.835650560039,5836.915212584136 9641.720148480032,5836.347957700142 9639.717368320038,5831.713892543514 9638.114212124492,5827.8057560749 9616.378105457814,5807.901552557712 9614.668926577782,5808.264394634811 9602.208057173353,5846.578453164082 9600.855102862231,5846.544836364395 9581.514409813331,5813.771208361315 9580.695937991142,5812.725396122027 9541.524051342218,5801.211045113858 9533.96876999113,5800.352389332198 9529.168622080004,5801.1180619889055 9525.770362026698,5802.885344685346 9518.787137137784,5817.484690478712 9515.97258439113,5818.935126042634 9492.72507192893,5818.538974847179 9491.172014364449,5820.546683409833 9491.437653617817,5825.242315063195 9492.345254400047,5827.663107407978 9503.817840924487,5838.171166926739 9504.712625777815,5840.169725057145 9499.43741468445,5850.959826847713 9497.814452053339,5851.16425182228 9484.839780408889,5829.169548331352 9483.163515164459,5828.651652897417 9461.229344142252,5840.905061964586 9457.96477752889,5839.722707623616 9448.945858844498,5817.161226824741 9447.602225208946,5816.873501520022 9439.03565056005,5818.9018105850555 9437.082969031122,5821.017338524805 9436.052160568943,5829.479073930124 9435.238640355587,5832.136989818304 9402.476174506708,5847.867095753318 9400.035322595562,5849.277482415142 9391.790602524474,5844.12442191306 9389.458103466663,5843.202226940193 9363.910131768906,5841.629192293854 9360.35720675555,5841.296958619438 9358.119662080018,5830.665688222274 9357.387406506692,5827.9805082179955 9344.084472319984,5821.444380495814 9342.61996117339,5819.925805771141 9341.643620408955,5809.443478455767 9340.884276622208,5807.829771586927 9321.831650702283,5798.269500415539 9319.553619342216,5798.269500415539 9309.138929493376,5805.578510094492 9306.833809920005,5806.893892332737 9288.77092323557,5810.867280457693 9287.387968000025,5811.99275103031 9291.26624284446,5828.536564963404 9291.808589653345,5830.9367496109335 9289.150740764453,5843.507505430607 9287.57758549333,5845.419429639878 9261.330563128926,5831.0248823940055 9259.968288142234,5830.875874382153 9244.970447360014,5843.493876929802 9242.922811448923,5845.419429639878 9228.229057706718,5843.109855938237 9225.633249564446,5843.331243463734 9210.255299982266,5850.640318046382 9207.529876195593,5852.443799179106 9204.318612195551,5857.909328964481 9204.66842880001,5859.169782748038 9213.21170176001,5862.51927004254 9213.267625813372,5863.439013015828 9204.77707292448,5865.814529768948 9203.456158435554,5866.60101638356 9200.198582328914,5876.6505118942005 9199.056217031146,5877.310397934751 9187.436247324455,5881.297863000655 9186.036689635599,5881.710023733787 9179.334832640016,5876.886423507007 9178.253343004442,5874.813487149309 9179.103272106673,5854.514994519413 9179.02492017782,5853.8720434221905 9172.813563733362,5850.91470191814 9170.714664106665,5850.065504634054 9390.161231928912,2420.469991163176 9396.701142186706,2317.755613700254 9391.047569920018,140.29886730283033 9391.176894293341,7.9551044459221885 6205.842722417787,7.352397829818074 5857.631604337832,17.7580187600106 5494.871202986687,5.081381080206484 5490.641072640021,5 4159.978322204435,9.106975897680968 4043.9787283911137,8.827039234747645 4044.14446165337,1722.3306161812507 4044.762538951123,1731.7790335621103 2727.714091520058,1733.094766243128 2726.7371682133526,1733.090801360202 2727.0998007467133,1739.4239037350053 2727.6529245866695,1742.1166324855876 2759.080494933354,1829.9869476831518 2759.310890382272,1831.6567886097473 2785.8800585955614,1857.890572389355 2788.303725511185,1859.8731811293983 2830.4914332444314,1873.1249517168617 2833.2902573511237,1874.1281218601507 2880.1755855644587,1868.696650768863 2882.0391381333466,1868.6429852684378 2908.4979145955876,1873.027683757071 2912.469104924472,1873.8104006886133 2943.7236602311023,1899.9565472123213 2948.389823431149,1903.3351418851526 2974.92054385785,1916.354479121801 2975.771638044447,1917.1282941214158 2996.440236088936,1960.0413533150568 2996.6278146844706,1961.2367405646364 2985.909037795558,1994.2209316094522 2985.7214592000237,1995.2601637727348 2990.0261549511924,2010.0960692648077 2991.4012458666693,2011.119420539413 3021.6354784711148,2012.7990904978942 3023.900985173357,2010.6115556461737 3039.916818488913,1960.9788224890362 3041.002677191107,1957.9865373926586 3060.6512438044883,1940.2523118034587 3063.2447217777953,1939.7834077761509 3075.9715217066696,1939.3068813730497 3078.729276586673,1939.9553596233018 3104.5428875377984,1950.6354789539473 3108.2196027733735,1951.0235825973796 3127.554470400035,1946.7922324107494 3128.899560391146,1946.7330865750555 3177.711064462259,1954.9262502143392 3178.70138624002,1955.006431291229 3193.604272640019,1950.2988986733835 3195.302383217844,1950.3141423498164 3229.722472960013,1977.6874634400592 3232.114682595595,1979.2748607686954 3240.0914332444663,1991.3486290840665 3241.8143018666888,1996.5597347760922 3241.5454586311243,2010.8624397410895 3240.8633016889216,2015.4566778951557 3216.260213475558,2058.212001101696 3215.684079217841,2059.3456083212513 3213.0696297244867,2074.978122193308 3212.830204871134,2078.0359311687644 3218.7473774933023,2134.610344618617 3220.1125651911134,2144.3971714016516 3228.15426929784,2165.452052108012 3230.6693953422364,2169.032029421942 3252.6743452444207,2185.979854119243 3259.7679618844995,2190.0738060665317 3322.071726364433,2190.3995778090903 3325.2879419733654,2190.8484659750247 3344.5377584355883,2205.8684920661617 3347.134731662227,2208.0979361765785 3374.2986754844896,2261.5343245636905 3375.404340622248,2264.39002318203 3375.4893917866866,2294.875814279716 3375.462303573382,2297.8629700644524 3383.17661895114,2305.047435943852 3384.3891805866733,2306.422772454738 3384.5878274844727,2333.632363011013 3385.050074737752,2335.581317636068 3396.721016888914,2339.3354052640498 3400.3936543288874,2341.0494448298123 3411.417392071162,2357.1686589606106 3414.3236952178413,2360.3480285810656 3441.0717038933653,2377.5640250134747 3443.5256630044896,2379.2901352127083 3496.332532906672,2448.717714513594 3497.7358771200525,2449.8685146346106 3556.9172152889078,2482.2136381880846 3558.4664863289217,2482.8685021532583 3570.2950061511365,2484.7733905498753 3572.430023395573,2484.4992624546867 3604.911995164468,2476.2823639610433 3607.6015926044784,2476.2552553408314 3633.7184167822124,2478.4748074345407 3636.1883958044928,2478.9249913675594 3648.183813973388,2485.095947773254 3650.6363167288946,2487.3949622490327 3657.9405223822687,2504.6177827693173 3658.514326471137,2509.6597134239273 3652.48414065782,2537.0325934399734 3651.958105031168,2540.599575218046 3656.9449577244814,2563.8681637153495 3658.5280162133276,2566.141888558457 3666.0882491733646,2572.8067799438722 3669.5919493689435,2575.5829576045508 3680.4170402133605,2575.4891598080285 3680.525975608907,2575.5177864099387 3701.1564171377686,2586.179268694832 3704.0845656177844,2588.4574727678555 3717.673819306656,2602.0159643250518 3719.3663957333774,2603.968265620817 3735.7838919111528,2642.8868284618948 3736.0958432711195,2643.675184746855 3772.8615392711363,2667.133844570082 3775.712500906666,2669.7323524739477 3808.045341866673,2713.3903333212947 3820.3862075733487,2725.6960660755867 3816.950082275551,2738.3440429493785 3815.1526482489426,2740.9699329310097 3793.0096358400187,2758.22348165157 3792.528164693387,2760.6897541565704 3794.428708693362,2769.303814962157 3795.3456301511033,2770.716392903938 3815.5161545955343,2791.9904921118286 3817.0444541155593,2793.4995161317056 3830.2416568889166,2800.200119354413 3833.5006893511163,2802.881130229158 3862.2683719111374,2806.672028405068 3866.838415644481,2806.8899898293894 3987.4820360533777,2844.258801022661 3991.858675768948,2846.601728665235 4026.0422533688834,2872.0363528173766 4028.4886394311325,2875.255779741972 4041.106212693383,2913.614182756399 4043.641436444479,2914.565607623139 4057.40923932445,2909.1918321870617 4059.7804774399847,2906.4011379962903 4064.659268551157,2889.5507672054227 4064.9875310933567,2885.3601644586306 4064.9380150045035,2874.0550028753933 4064.6744146489073,2871.869247722556 4048.639648711134,2829.1910245241015 4047.9720553244697,2827.4029554784065 4048.494304426713,2815.0610482254997 4049.7246335999807,2812.0857273321017 4065.5598788267234,2796.8679405493895 4069.2328075377736,2795.3546634846134 4106.149090702238,2795.679481086612 4110.115620693308,2797.6341668235837 4132.167465244478,2812.0336727777612 4132.561555057764,2812.612056449696 4141.188131555566,2846.4221360048978 4140.699378631136,2849.4621147072758 4132.25950691558,2865.0678160698153 4129.467964586685,2867.4687960760784 4092.141862968914,2888.042908578296 4089.373039786704,2890.599630604207 4082.4364182755817,2909.112089559203 4083.7689836089266,2912.9175050087506 4098.35496704001,2922.7448747293092 4101.610795520013,2922.835876563331 4126.980218026671,2910.6765039805323 4130.481296782265,2909.161700432014 4147.759790364478,2906.986427037278 4149.701112320006,2907.12156389188 4198.942823822261,2923.9065927138436 4201.488824604487,2926.0048010183964 4206.755006293359,2937.4005498480983 4206.629759715579,2942.429545033083 4199.626728391158,2973.7057802130585 4200.760938097839,2977.758793501882 4221.484003840014,3002.7965806048596 4223.573582791141,3005.6047619035235 4232.5820157155395,3037.088443197834 4236.073482524487,3039.7942153010517 4286.682711893343,3039.5781678374624 4291.536453688925,3039.0051852287143 4311.219972835621,3029.523655349738 4323.596664888901,3028.5076048838673 4353.345057280036,3030.787097456574 4363.474301440001,3033.3401427825447 4410.7359519288875,3069.3886057917844 4413.953041351109,3072.7453747482505 4416.144273919985,3077.444575063593 4425.984285866725,3109.151614795439 4433.515682986705,3113.8076190628344 4453.515522559988,3118.807693192677 4523.051257457817,3117.165650986077 4527.161966648942,3117.6384573918767 4538.825335751113,3113.9758710137103 4541.283955200051,3111.5655734683387 4571.717125973315,3109.590959676134 4578.8151116800145,3111.814757687447 4585.877562311129,3119.8147614228656 4586.752540728892,3125.4397072061547 4579.5651347911335,3147.189610988542 4578.565201066667,3155.1273659018334 4581.252468337771,3175.8147281294805 4583.752739555552,3179.689875510696 4637.377498737769,3200.7210259740823 4642.815239111194,3203.2209967350354 4693.815063040005,3217.252330854244 4699.9713692445075,3220.095973099291 4709.721378417802,3227.2521675574826 4711.7212458667345,3230.221087723912 4716.065263217781,3254.9711292621214 4721.252510435588,3259.7521927607013 4810.065150008886,3317.033370475343 4817.440134542296,3321.5335012619616 4840.285110328929,3329.224641494511 4846.346462151152,3334.40837839694 4859.5419172978145,3355.9196007127757 4861.4640153600485,3360.3832390755997 4853.920676124457,3376.676124847785 4852.221400462207,3381.721066671016 4852.316354844486,3392.6723534711055 4853.752030151198,3396.0153879231657 4859.008017351152,3403.0450335250935 4862.170056533301,3405.764604076103 4876.7601177600445,3407.1814031447284 4882.12096256006,3409.635781159159 4904.1602824533475,3426.531509721128 4908.683140266687,3433.5115241805906 4932.127552000049,3443.1272279793047 4935.0338551467285,3445.752346458845 4939.802254506678,3458.4341198350303 4941.127538062283,3467.845990342321 4941.252493368927,3490.752143155609 4941.658816568903,3495.314779041044 4951.674756266701,3522.8786508890335 4950.921820444462,3529.2652487495216 5000.049644942221,3586.1583951862413 5002.8933248000685,3591.4711706077214 5005.221454791143,3599.377315227757 5005.1588315021945,3603.53356895654 4991.971240675601,3623.0023899188964 4991.783953351143,3627.002227386809 4992.6277657600585,3635.6271065557958 4994.752588515577,3649.3771612383425 5007.158990222262,3675.0647049232502 5010.080439466692,3684.361220966617 5008.037755164492,3703.5343429080676 5008.609811626724,3708.2667366699316 5016.331117511145,3731.832088675699 5016.287718115607,3732.599814313813 5011.318924231164,3738.068690567219 5004.497646080039,3740.7879132559756 4979.443961457815,3745.943673055095 4977.193892124458,3747.256311781646 4975.997641671158,3765.975149309146 4977.810221795575,3769.9752232281025 4995.372704711161,3781.787772321375 5005.122713884455,3783.475346688647 5036.810389333405,3779.9752883235924 5044.060418559995,3776.350303477957 5050.935290595575,3766.2878745059134 5053.185359928873,3759.162621880474 5050.341680071142,3727.850293560594 5053.279149226728,3727.3503257654374 5060.8414210844785,3729.5377197021735 5065.96662755555,3733.725263020373 5082.515778275556,3761.30765268486 5097.35196359118,3782.3746099171694 5096.42368255998,3787.8105032555177 5091.385566151119,3792.1857422618195 5066.239257315581,3802.7923017256544 5042.59532487113,3823.0333333520102 5036.4524171378,3833.7283696561935 5035.4801541689085,3856.5323486589477 5035.259079395561,3866.8296290096478 5030.928169244435,3875.1383035520557 5030.486019697797,3881.7231118368218 5046.4401035378105,3908.725794925529 5047.544894862222,3915.399249384529 5039.058711040008,3960.8602134959074 5039.098323911137,3964.0395844215527 5043.315347057825,3969.346497929946 5048.639491697773,3974.1423655602266 5060.195964302227,3977.8332672902616 5064.962616035598,3977.7937730328413 5120.015768746671,3951.8074946539127 5127.515708586667,3953.8075082868454 5137.015515875595,3962.807333386212 5148.01566065778,3979.3073125963565 5155.01577927114,3995.8074357238947 5156.015712995548,4010.3075847239234 5137.755635768874,4040.580516222981 5126.511114524445,4047.9596391747473 5114.564047360036,4053.7223502293346 5105.779601920047,4056.041270363203 5080.1987165866885,4047.7485219679656 5076.333548942232,4049.0838749947725 5072.468090026698,4052.8788005136885 5070.078793102235,4057.5172458114102 5073.015679715609,4075.807308822812 5082.517817173386,4084.2928446884616 5104.795688106678,4088.0875430417946 5112.736903680023,4086.2605141113163 5120.607922915602,4081.200388908619 5124.473090560001,4076.491963914945 5126.4409181866795,4060.2580728786415 5128.268061866693,4055.1980277362745 5132.836066702264,4053.0194428441464 5138.598865635577,4051.8949107856024 5153.356990293367,4056.3225534777157 5158.979105280014,4056.4628912232 5180.483942684485,4045.4295691271545 5186.176254008897,4045.4997393040685 5190.111909262254,4048.0999789162306 5193.625803946692,4053.7925194165437 5188.21427797334,4079.1625364099164 5188.1440816356335,4088.860573524609 5192.515769742255,4098.807517201989 5197.515729635605,4106.307403992338 5207.118938168918,4110.365601122263 5213.65477063111,4110.154506309831 5268.751905279991,4088.860573524609 5274.0929436445,4085.8389146098634 5290.889092266676,4083.238538095844 5298.338350933394,4081.762627191434 5320.30223160889,4069.6988379244576 5328.444715520018,4070.694544270984 5337.286541368929,4076.2544306059135 5337.36139804445,4077.420226156828 5320.877783324453,4107.51778904465 5321.971506346716,4111.158648726705 5340.537418240041,4125.155110105872 5355.815170560032,4128.1586474604555 5372.324708408909,4143.908668351243 5373.105897528934,4145.277211899345 5377.0118431288865,4145.757993309875 5379.072003697802,4145.100449462712 5384.033807075582,4123.877334032557 5387.424494080013,4119.48664712219 5407.374526293366,4112.550352051214 5416.749669546727,4110.252915987221 5452.156585813325,4111.539529884991 5456.091949795606,4114.139173889009 5461.756299093366,4122.131207693426 5462.099999004451,4124.193816978892 5458.818829937838,4144.756339618762 5460.193920853315,4151.443818752072 5465.568746666657,4156.9434154444025 5469.068951608962,4158.818818416854 5479.444028586673,4159.631238094298 5483.256476160022,4158.506302287453 5500.4164224000415,4137.601967967406 5504.317998933373,4135.3723593457835 5518.919711004477,4135.3237640495645 5522.878959217807,4137.091415369243 5526.094009742257,4145.008727352775 5526.256247751182,4148.621717283619 5521.354154951172,4167.758106597059 5521.562122524483,4170.239058473497 5527.207247928949,4185.083247909963 5527.420167111093,4188.212208835757 5521.029387662245,4202.054693086597 5516.686535395565,4210.422707614256 5501.1108127289335,4226.769678567245 5499.205317120068,4230.929383495473 5498.362087253365,4235.526342608908 5498.4663623111555,4240.616420306324 5503.911967004475,4251.096157462394 5506.697101368918,4252.512126918999 5537.564557368925,4245.419188119762 5543.869120568968,4245.881668061018 5577.909975324466,4257.769980777579 5582.068161706673,4257.609649570426 5590.596288568922,4252.415866611002 5593.657839217805,4251.225517026149 5619.454556444485,4248.164607070794 5626.4476845511235,4247.247849303647 5648.527491128887,4249.798309002304 5656.3288965689135,4249.894569737138 5686.854400284472,4244.702844540647 5692.205924408918,4245.968515862478 5701.632622648962,4250.548352798272 5704.949618062237,4255.994492424536 5716.562597262266,4294.737004449125 5718.194880568888,4299.309479531948 5725.268399502267,4306.893048350408 5728.480246044463,4308.496831946191 5742.100665742299,4303.843054094468 5746.877803235548,4298.966977810138 5757.496091591136,4273.087483422889 5759.592369777849,4272.078758356918 5785.306366008939,4281.920586268185 5787.820618240046,4284.106219859212 5789.860972373339,4287.428379573626 5790.482253653347,4290.2801811432 5786.0086206577835,4307.839165818354 5783.522039182251,4311.113825783017 5762.292744248931,4319.222516255861 5753.953069795563,4321.641499317135 5744.721523200045,4335.675170723931 5745.55892764451,4339.1452050405205 5749.610217528883,4349.075481212058 5756.283529955603,4359.349879213376 5783.01173219562,4381.294370750838 5788.661517937784,4386.496432660497 5796.140777528926,4391.459220857185 5801.404046506737,4393.912821084377 5831.282928355562,4399.279618694272 5834.565262506716,4401.951159496966 5838.470334293321,4417.750344634405 5838.797140480019,4425.445627363224 5830.880100408918,4439.558496034297 5828.330604373361,4442.262943492213 5818.37233635562,4445.321331147861 5813.896081920015,4444.515375436575 5805.4567927466705,4439.384250146686 5803.165945457818,4436.523149628483 5799.803511751117,4424.838180576451 5798.336961706635,4419.998619752994 5790.110591715609,4410.847303457675 5786.964863715577,4406.952676484943 5767.350084551144,4398.631161062862 5764.411159040057,4398.70918245404 5725.101792426663,4431.818772137223 5720.644179342256,4437.631163670216 5717.508937102277,4446.990005081228 5716.458030933398,4454.880398330977 5722.9586195910815,4483.250097702607 5724.59964103112,4485.582812171604 5731.701704533305,4484.830334427534 5733.160681528912,4482.70402567694 5727.501866382256,4455.812619209231 5727.544974506658,4451.239532047766 5736.537387520017,4438.985062946333 5740.607027484453,4438.263489658886 5747.807249351114,4441.929024281038 5749.249623893353,4445.8519560044515 5749.590411093319,4470.841177337745 5752.96012657776,4474.146504423756 5761.278246968926,4479.786371623864 5765.906836195558,4481.40486397245 5792.681059271097,4483.624668217613 5797.600337066688,4485.371244302136 5806.967033457768,4500.986389389262 5806.142444942263,4505.781884147902 5795.185990826692,4520.187561309431 5790.9270246400265,4521.551895358483 5760.975033742259,4503.047373278416 5756.331298417761,4504.545300374273 5746.145256391144,4523.569707796676 5742.400092444499,4528.3631989143905 5723.2262977422215,4535.029040462221 5719.481133795576,4538.324600983295 5716.78483711998,4543.267907458881 5716.709980444459,4551.731558703119 5719.930565120012,4558.771964446176 5726.580867128912,4571.580268871039 5725.473163093324,4597.644294312689 5721.353715768899,4602.0632989779115 5706.373933795607,4609.403247439652 5697.985325795598,4610.601678279345 5669.94582101336,4610.5315751491 5666.496297244448,4610.568902790954 5654.469713066705,4606.282278197934 5650.415219200018,4605.739961081825 5642.200500053354,4609.210235814913 5639.776250595576,4612.102672321955 5638.114257635549,4619.524130842881 5639.001760711137,4621.954938047333 5660.480092444457,4643.571083734394 5660.46115982224,4646.028800469125 5659.799683128891,4649.221480424283 5657.845836515597,4651.4449059105245 5638.815638471162,4658.237120400532 5634.961830400047,4661.353568685125 5631.789305457787,4679.606463659438 5632.690207004431,4683.533591022366 5666.72144981334,4712.4710055446485 5671.546064497787,4716.133938284591 5681.416951182298,4729.993225734681 5683.343418311153,4733.04376098467 5685.627566364477,4748.59596858616 5685.5506707911845,4750.094187451934 5681.882111146697,4758.676257219748 5677.83781176887,4763.095280169859 5671.920639146701,4764.967552517715 5665.85404444451,4764.89261319302 5645.781095822225,4748.565021133632 5640.912790471106,4743.771484069526 5626.082721848856,4738.977908450586 5619.416691199993,4740.400905680086 5594.700298524462,4773.131634935795 5592.0040018489235,4779.198268558597 5593.689879040001,4798.617998594069 5597.5463085511,4802.192118740175 5609.829793848912,4804.738677659712 5614.6232425244525,4802.117487471434 5617.469543822226,4796.500092494534 5620.764985173359,4788.261090174783 5628.779018524452,4782.044674406759 5633.422753848892,4782.119308186811 5637.841919146711,4798.672000398859 5640.837933795585,4804.738677659712 5665.778896497795,4818.520063104574 5670.497488497815,4823.762894624146 5670.572636444471,4832.301433715504 5667.576621795597,4835.821657085617 5646.8296718222555,4831.702289873734 5639.789357795613,4831.7772208073875 5619.266977848951,4841.588844780112 5604.062625848921,4851.100896953314 5598.370314524509,4857.242575883283 5592.378285226703,4868.327530706942 5586.681604835554,4895.317998809915 5585.787402524438,4902.63128425437 5596.97978624003,4969.09496997454 5599.407530951139,4972.527039709617 5604.204766151146,4976.279364911956 5611.153038506687,4980.421999249898 5631.188121884479,4982.933830785158 5634.79900984891,4983.688106079935 5654.993709795584,4992.359625785204 5663.606887822272,4998.126820491394 5669.9732004978,5003.8939596708515 5674.61693582224,5010.559946405934 5679.485532444436,5034.602373843954 5680.009820444451,5038.79676548898 5656.191999146715,5053.252347232483 5649.376255146693,5058.794551782194 5622.412705848925,5064.037704277609 5617.544400497805,5064.262409788789 5608.556647822261,5071.752242083952 5605.569371306687,5076.501606701699 5609.238222222251,5097.085795357183 5613.952445155592,5100.3018404900795 5631.532695608912,5100.3148792953 5638.489123555599,5100.953780406679 5666.003757795552,5110.399855500786 5668.849767822248,5113.24589919328 5664.356037119986,5135.340939746238 5663.457174471114,5141.63252130308 5666.8274724978255,5162.454305906955 5666.8274724978255,5169.345016766165 5665.778896497795,5173.164935477835 5662.408598471142,5176.16076076508 5651.098832497839,5179.381233557768 5645.4065211733105,5178.931908602128 5627.638692124456,5165.368625082076 5624.670056960022,5162.712326204404 5601.170012444491,5156.212363966391 5598.969459200045,5157.960308292706 5585.076118471101,5194.4310000732075 5584.294929351134,5198.275013686856 5590.099671324482,5226.378102810413 5590.596288568922,5229.455213860259 5588.580692480027,5247.877230339393 5588.746134471148,5250.59954347607 5607.462050986709,5254.4610841348185 5614.245755164477,5251.608433235786 5623.36021077336,5236.579802413296 5627.500047075562,5231.987831189297 5651.938858382287,5214.1240719505 5656.930953955627,5211.636855205172 5669.350171591155,5211.863021365483 5673.368256568909,5213.741470531502 5680.306916977861,5231.339368179208 5678.634146986646,5235.865558711637 5676.075912817789,5240.539352823398 5673.025721742248,5242.261283776665 5650.148706133361,5241.523097430705 5645.62235306669,5244.868726534827 5631.748527502292,5271.632483782014 5622.3026053688955,5276.945623801264 5619.203189475578,5281.914657168381 5618.415883662237,5284.817484926782 5632.181356373359,5308.131449882523 5633.039441066678,5311.878345000907 1894.9862960355822,5311.636150963546 1877.4960483555915,5311.611294999253 482.39131221338175,7771.603753060452 482.2704347022809,7771.8739689632785 922.6580824177945,8347.657842101995 922.6743936000858,8348.225537300284 907.8119938845048,8348.01468776085 906.9355591111816,8348.30667966546 893.8743799466756,8369.269722506171 893.322712462279,8370.12968220946 885.0640113777481,8372.33643428504 884.6259396267124,8372.693266228016 887.3516546845203,8377.706990452425 887.5465150577947,8378.453525875986 884.5933172622463,8384.051156572008 884.6582707200432,8384.911096484633 893.6148573866813,8385.381634848134 894.3774051555665,8385.592472118442 899.5046505244682,8391.66087599704 899.7965041777934,8391.904286597739 890.5320439466741,8406.263539125503 890.4184482133714,8406.636639547127 893.5499039289425,8416.647835308395 893.695830755576,8417.799691919296 885.5507254045224,8425.912395735737 884.8531310933176,8426.35063204536 869.1306077867048,8418.951848077588 868.4167022933252,8419.665761603392 870.3315185778192,8426.821140070097 870.5584187733475,8427.859574190748 865.5610803200398,8432.710906265245 865.1879620266845,8433.684485936305 861.8718404266983,8468.755293395778 861.9531050666701,8469.50172310631 846.5553490489256,8493.482616533525 846.0036815644708,8494.115624985483 833.2343560534064,8495.997758398065 832.5204505600268,8496.078882114787 809.7887792355614,8513.72380160942 809.2775984355831,8513.967166030896 807.3549178311368,8528.448239107325 806.4950855111238,8528.756433335424 776.9162129067117,8525.284264006128 776.0563805866987,8525.316832643293 770.8155394844944,8517.350133064436 770.3448453688761,8516.993079796433 764.1145563022001,8520.15709561325 762.6867453155573,8520.22193184041 753.0812066133367,8511.200888199615 752.1401096533518,8510.989790526335 744.8551278933883,8521.990601289435 743.556932551146,8521.925765240216 738.2024957155809,8514.705401036947 737.4399479466956,8514.20238806092 723.9567169422517,8510.892384005245 723.372718364466,8511.184603524453 721.5878089956241,8519.410724620742 721.3932398933684,8519.767776548862 714.0523340800428,8516.90532427543 713.3535746844718,8516.8471221535 712.9641452089418,8521.130543026607 713.0940521244775,8521.649835004238 708.1939982222393,8522.525875400112 707.4637815466849,8522.980330310063 702.6123699200107,8544.706037358497 701.590299591131,8546.101318688889 688.5288291556062,8550.076662790147 687.7176391110988,8550.563364085392 691.5143580444856,8556.988450151053 692.2932169956039,8557.832177070668 687.0847069866722,8562.764851527754 686.0139943822287,8563.705969443545 688.155710862251,8575.063504948048 687.8961883021984,8576.004604917718 658.1550776889198,8589.69879598188 657.1662122667185,8590.270499146136 655.6288833422586,8605.06344394316 656.3063799466472,8607.60076475772 672.3463887644466,8627.999074741383 673.8018705067225,8633.785091885657 667.3487590400036,8646.97213279095 667.0161274311249,8648.126894343179 670.1807880533161,8681.16968764551 669.9340814222232,8682.624067197263 663.0064893155359,8696.910519298806 662.7527921777801,8700.184597913234 667.0079718399793,8723.219352755346 668.2001444977941,8726.741405943525 677.202460728935,8737.328552878462 678.158121244458,8739.636545404675 677.0903213510755,8773.134370150394 677.0801268622745,8775.768699619046 683.358475662244,8788.744552717428 684.220346880029,8791.601580853632 682.8490424889023,8807.840402586327 682.843217066722,8809.376787713321 673.8298325333744,8826.902533707558 674.031974684447,8831.073882649129 681.8543516444624,8839.664564535953 683.1601200355799,8840.547709482897 698.9563349334057,8882.25459410646 698.7279783822596,8884.887274834677 695.4089440711541,8896.945931332943 693.8681198933627,8900.45167019288 682.7220482844859,8905.45647746278 681.846196053375,8906.331094166148 668.8182217956055,8947.321630152059 668.5916128711542,8949.51556297118 623.0324420266552,8973.842406672542 612.3221120000235,8979.5078112529 597.6834084978327,8978.17343210429 595.2521685333923,8979.68952527485 594.6102070044726,8989.295886849111 593.6892077511293,8992.343085040455 584.2421205333667,9005.27182187885 582.5661465600133,9007.553248393699 566.7731356445001,9018.296728255518 565.9960243200185,9019.845573102415 563.2269098666729,9030.968822617899 563.0684583822731,9032.79817127809 566.9819770311005,9040.59069909202 566.8203215644462,9043.33513161377 559.1534833777696,9067.589771975472 557.0813806933584,9075.902841099713 578.8204000710975,9110.747579175164 579.7198452622397,9113.495633200684 574.8436755911098,9125.93147998961 574.375602915592,9129.589639460493 575.3787406222546,9149.691073927563 575.7573930666549,9151.892761172436 588.1463185066823,9171.13551722432 592.6330587022239,9179.346346501028 594.8971090489067,9191.264894892694 595.750824675546,9193.954770015785 614.2975126756355,9209.63830804557 616.7136065422092,9212.235626144102 614.1154682311462,9226.839398876706 614.9316098844865,9229.995137373335 624.1095625956077,9245.959458653757 624.8922080711345,9248.651518690516 632.7999274666654,9253.749744604807 633.625972337788,9257.403273040487 621.9037664711359,9280.403557181358 620.1112840533606,9282.627395256888 601.9895606044447,9287.67083805683 600.9363242667168,9289.146754609363 599.944254862261,9316.590365496348 598.5828536889167,9319.644470685977 603.3247473777737,9330.939114804845 604.4947834311752,9332.600164056756 638.4692283733748,9356.061018924986 640.7379390578135,9357.537685058138 650.4760061155539,9375.002029326279 652.3378110578051,9378.404914215673 667.6423603200237,9447.969400705479 668.9254095645156,9451.11172897002 668.7963764622691,9471.505330404849 669.0960944355465,9473.088936779008 678.8321225956315,9491.665237219073 678.6628940800438,9495.454447833705 667.9001352533232,9518.38045326434 666.7895185066736,9520.436073507008 666.720195982256,9586.541003362334 666.1233814755687,9589.220528674836 651.0760246044374,9605.552451683907 648.5710930489004,9607.688484492712 635.4650581333553,9607.056556690717 632.2269971911446,9606.479722589895 624.5021960533923,9611.053437160444 621.6486129778204,9611.949992290058 611.8683116089087,9634.425490793656 608.891229582252,9640.883863893105 594.3789377422654,9656.727728903352 592.7536449421896,9660.081594276475 593.4599773867521,9677.866941176588 592.8180158578325,9679.729105326696 580.7256044088863,9682.789653726097 578.2224204799859,9683.991352340381 569.8343950222479,9696.173177783843 567.6498616889003,9702.223067859071 565.8154362310888,9716.176917101548 566.6735209244653,9718.586813013593 583.6922006756067,9732.380182699999 583.6814236444188,9733.09988384269 577.5367682844517,9740.447653599374 575.9956528355833,9744.42837635643 575.7035079111811,9765.897679490154 574.9575625956059,9772.069433508674 564.7359854933457,9799.80173587444 562.7940809956053,9805.300202615268 561.0033462044667,9833.622798780678 559.4194139022729,9838.031824682315 552.9989248000202,9846.549738941772 548.4186865778174,9849.460545461625 514.5951200711424,9861.429568184773 511.278707200021,9863.571997759573 504.80578929779585,9874.454975752393 488.52635562670184,9879.777377071558 483.3178456177702,9882.87190979597 474.8159331555944,9893.207177412638 467.5819238399854,9897.78703622811 460.39073137775995,9942.817774111056 454.0555847111391,9954.524832871626 433.18630087113706,9967.816815905564 432.1959790933761,9968.652407991874 5,10399.227052544244" stroke="red" stroke-width="3.0119067150583567" fill="none" stroke-linejoin="round" vector-effect="non-scaling-stroke"></polygon></svg>