<svg width="169.01334641769063" height="195.97023923968663" xmlns="http://www.w3.org/2000/svg"><polygon points="5,167.09363747073803 30.245341013302095,189.46684077568352 30.854680177755654,190.97023923968663 50.240811519906856,181.03839650633745 51.57628956437111,181.01217859168537 58.20125098666176,166.95168999722227 59.35235441767145,165.41602942009922 73.07617535989266,162.6724275876768 73.48424618667923,162.70181220263476 86.18046264885925,144.61641572869848 87.85265009768773,142.98248971550493 125.99227192881517,116.51516260229982 126.29228117328603,115.9630664010765 159.750302435481,117.13282139785588 164.01334641769063,115.72974768467247 149.1631800888572,101.37971489003394 148.2284910932649,99.93177196895704 152.44842695107218,77.98896972951479 152.61124750215095,76.98995487310458 150.72555832879152,55.91867528180592 150.90177735104226,54.3089611211326 143.42193521768786,35.21944165643072 142.41879751102533,33.112454117974266 137.31572764436714,29.15580401814077 136.71658296883106,28.21491861739196 134.56350691558328,38.394359320169315 133.38182001770474,39.80471538641723 128.45846442657057,18.766485251719132 129.3946097777225,17.26009021012578 115.71389696002007,7.220809858641587 112.42457230214495,6.2201136542716995 97.66003967996221,18.97955109796021 97.33498111995868,19.250519888359122 89.12084451550618,14.097079136874527 88.95831523556262,13.81705635250546 91.26052209769841,6.024678778310772 91.29984369769227,5 67.10861283552367,11.637028230470605 66.95540423109196,12.092126168427058 44.11741895112209,8.70148799859453 43.250887395464815,8.220596689265221 61.496692337677814,24.23103819892276 63.047419733251445,25.318051735579502 49.44942791108042,17.980265954392962 48.644354559946805,17.271399520977866 42.90543985774275,34.07638761063572 42.84398165321909,36.29735377500765 35.681333759916015,38.09627455833834 32.602889386587776,37.803165017510764 26.372600319911726,51.72271945362445 26.925724159926176,54.07964712288231 21.17049827554729,51.811370427545626 20.979424426564947,52.059231122606434 27.70720455108676,86.44943362328922 27.94662940443959,87.7220022745314 14.014840888907202,116.26918379578274 13.901536426623352,116.43829425505828 28.79917994653806,145.1517114630551 30.173397048842162,147.5985026101116 7.793872497742996,157.81984319968615 7.352888035471551,157.87996997544542 5,167.09363747073803" stroke="red" stroke-width="3.2617672361138004" fill="none" stroke-linejoin="round" vector-effect="non-scaling-stroke"></polygon><polygon points="99.50291199993808,27.923605199321173 99.50291199993808,27.923605199321173" stroke="red" stroke-width="3.1092037984637138" fill="none" stroke-linejoin="round" vector-effect="non-scaling-stroke"></polygon></svg>