<svg width="45608.89177713776" height="12904.314862833242" xmlns="http://www.w3.org/2000/svg"><polygon points="45274.15161656879,137.78879533323925 45284.45970119105,163.35744864545995 45284.82815914659,164.01704978512134 45281.41795697773,176.05679371918086 45281.33843996434,176.26474380900618 45310.03301347548,186.27911433426198 45311.64694670215,186.29719611164182 45324.27704462211,179.29943637631368 45326.72517831111,178.80171894829255 45328.8264081066,170.44025807856815 45328.722424319945,168.93528767873067 45335.24485831114,176.42251450574258 45335.541663573356,176.794111512776 45344.37853781332,201.433378410351 45345.076132124406,204.95407975721173 45338.30466133333,208.09278525901027 45337.201617635554,209.47228267160244 45341.132903822116,233.3192145540379 45340.17899093323,236.07065072428668 45362.56841870223,233.6260863711359 45363.73728967109,233.46157782175578 45364.27060707554,218.3502156434115 45364.11273813329,217.45394137571566 45368.34286848002,217.30343202280346 45368.48530005326,217.30433598312084 45369.94631594664,231.35188027017284 45370.012143217726,232.62773450429086 45376.403505208786,236.96910824259976 45377.15993628441,237.2832059491775 45399.24585955555,230.6834435655037 45399.678105884464,230.45791915804148 45393.584422968794,196.21346913580783 45393.650541511015,195.11956861813087 45403.85318599106,188.67945717385737 45403.97785002657,188.29883959982544 45407.66854627547,222.05233626253903 45408.343130168854,222.70317261083983 45405.24866588449,227.64133017521817 45405.35497983999,228.55654479877558 45422.517547519994,259.5301164359553 45422.59473436442,259.813001120463 45446.61324145773,264.8253315711627 45447.39705201774,264.7295326089952 45473.315811839886,248.79242845554836 45474.635561244446,248.03908486571163 45478.64374300442,256.64566588943126 45479.30929749331,256.7848506544251 45493.12370375113,249.43007957621012 45493.270213120035,249.15260440611746 45493.62177735113,262.4425458452897 45493.884212622186,265.29438437335193 45506.445279288804,274.44839422078803 45506.90956543991,275.2635515254224 45504.71571143111,289.5689763886039 45504.850861226674,290.09309923136607 45508.72010666656,294.06735528848367 45509.10837105778,294.07096985855605 45520.50988743105,286.70661090279464 45521.26981375995,286.7255880351877 45517.90301098663,294.4057691565249 45517.544747520005,294.9633150260197 45551.463850951055,330.2579499416752 45552.189989831066,331.03721104946453 45560.58850104886,327.20367133023683 45561.32658204436,326.4144579444546 45559.08932863991,318.81446259474615 45557.95890545775,317.55130986729637 45563.130132764345,317.48580282047624 45564.30075136002,318.5411415405106 45563.8877289244,311.1179722783854 45563.98617855995,311.01315790542867 45589.8225086577,321.2842755143065 45591.66013809771,322.5189456153894 45602.81786055106,316.06452095205896 45603.17292003555,316.0103078559041 45603.677110328805,304.8028164888965 45603.89177713776,302.78416899760487 45598.64015900437,283.8053494322812 45597.82693006215,282.12448882777244 45587.32893667545,270.7313467710628 45586.66221710213,269.04225177678745 45585.73597496888,261.25272484042216 45586.03161514667,260.63589521916583 45591.51013347553,260.9034142140299 45591.584990150994,260.8198145633796 45584.49166478217,243.15471613639966 45583.94582271995,241.94038581324276 45564.343568213284,241.22317302948795 45563.365188551135,241.78175861411728 45556.50313244446,222.19741869997233 45556.36215722654,221.57415109768044 45516.583261582186,210.8892868264811 45515.51225770661,210.21897946868557 45519.017414257745,196.91139288194245 45526.138410382206,190.54139984876383 45529.00626574212,191.0969509225106 45538.95492181333,173.0546052325517 45540.777987697744,170.68799627834233 45534.306817422155,162.64585477573564 45533.937485653325,162.20325487689115 45507.77056284435,159.0489699478494 45507.27161543106,159.1416506052483 45497.03343587543,151.54261019505793 45496.708668586565,150.85674851300428 45496.86362481781,142.8224666226888 45496.68274545774,140.77564420632552 45506.46799843549,136.54629756556824 45504.89251299552,133.56752956158016 45512.9100416,137.94795028562658 45514.17357567989,140.562686762074 45532.355592248845,123.98980044049677 45533.45484942221,122.70064994774293 45545.60464128002,122.80419826932484 45548.35424056882,121.99480178230442 45536.73776611546,87.9987942892476 45535.981043768814,85.1672504786402 45553.1462328888,75.57111441541929 45552.65398471104,73.86965345405042 45536.28658716439,82.34064477391075 45535.411608746625,82.63868380663916 45531.5843063466,75.9917287157732 45530.983122773236,73.73668385646306 45552.81156238215,66.31241939571919 45552.87564202666,66.29523225821322 45552.526990506565,50.02790404786356 45552.37552952883,44.00554136710707 45545.30259313772,28.78469659149414 45543.00883313769,29.06154740328202 45544.696749226656,19.60499322763644 45542.977375857765,15.879530304053333 45533.81544305768,8.49356102582533 45532.834150684415,7.908137841615826 45491.42734079994,7.0444774310453795 45490.78829198226,6.996068915002979 45476.3170693689,23.145820499921683 45475.53325880889,23.32044010970276 45480.104176355526,28.885575277614407 45480.41641898663,29.574082374107093 45472.91677041771,37.077402187045664 45471.90081678226,37.606655369279906 45474.72265130654,41.270228297566064 45476.465908906655,43.809678349876776 45463.4367695644,46.017085085390136 45459.67442062218,46.53998390014749 45452.69527352881,55.53310454438906 45447.32831203553,58.81236672040541 45453.1950947555,65.6326218470931 45454.31969251542,68.28666972747305 45450.79764223995,71.54764889989747 45449.9290717867,72.20978906354867 45454.442026382196,80.94722774846014 45454.518339413335,82.14391165360576 45450.66540515551,84.76293504331261 45448.65534321766,87.35026953136548 45437.140522382106,67.88594132306753 45436.894107022206,66.54761166713433 45348.9086774044,47.046145140135195 45344.98467299552,46.074983977829106 45332.62574847997,85.47885325027164 45332.645554915536,87.48232633294538 45320.66237013333,88.82912024424877 45319.56136533327,88.26878624549136 45316.024168959935,96.43034516921034 45315.99649820442,96.48416060808813 45300.15804899542,86.82837303332053 45299.22510762664,86.62576469773194 45295.15109859558,113.17535070073791 45293.54066062218,113.44033735245466 45301.215654399944,126.77517149836058 45301.214198044385,126.81857959704939 45281.74155918218,129.2783577479422 45281.75670527993,129.2060117275687 45274.15161656879,137.78879533323925" stroke="red" stroke-width="3.315548257396628" fill="none" stroke-linejoin="round" vector-effect="non-scaling-stroke"></polygon><polygon points="18207.477781902184,10224.591693232534 18213.15378204442,10234.408226839732 18213.255435662228,10234.505435220082 18238.010276124463,10232.121873675846 18238.21154446213,10232.17976725765 18256.451815253356,10250.92829873634 18258.82887879107,10254.94289254956 18258.606056391145,10271.192780040903 18258.960242062225,10271.448504370113 18286.566626702086,10261.587357325014 18287.344320568838,10261.535519073717 18313.81766058656,10285.40836745291 18313.918731662212,10286.615204160335 18326.45533155545,10276.885169695015 18328.49160789326,10273.438997364661 18355.87750030216,10304.375777916866 18356.391593813314,10305.029679018015 18364.7644731733,10326.926499281544 18364.822727395454,10327.46805171104 18380.826618595514,10338.591614346544 18381.14730808884,10338.806237841374 18393.244379875483,10341.68010021752 18393.318071466638,10341.703850994003 18399.222136888886,10331.98352927179 18399.30835313769,10331.90752350993 18407.940172515577,10330.174066979205 18410.738414079882,10329.307333728764 18433.820775822154,10291.350485797739 18433.82106709329,10291.240344006103 18426.292291413294,10282.324295909726 18426.21510456875,10282.221924746002 18432.731713137706,10274.236399144924 18431.66886485333,10269.067492325325 18423.312296675518,10261.034847351606 18423.260450417758,10260.955361833796 18419.150906311,10244.70689822652 18418.787399964407,10244.454167760909 18363.281029404374,10257.317573515174 18363.08704284439,10257.534434168134 18341.087627093308,10253.880174775142 18340.863348337705,10253.694414651021 18335.607652408886,10240.42642682424 18335.54968945775,10239.199902157998 18351.197064817767,10225.912484896893 18351.215123626636,10225.71071578341 18344.531616711058,10199.535802311671 18344.375786666642,10198.828879021225 18339.877395626623,10193.996592915268 18339.754187946673,10194.021655561752 18322.648418133263,10204.67648540996 18321.553530026576,10205.141850376618 18322.504238933325,10184.539998680353 18322.50540401775,10184.404741102597 18308.911198719987,10169.573883059493 18308.87071203557,10169.265319655242 18281.564336639945,10170.086425821995 18280.684115342214,10170.508646094298 18271.083528248826,10161.77021103946 18271.00109852443,10161.741687404225 18267.510796800023,10164.651943990728 18267.355840568896,10164.849013767496 18266.41474360891,10187.40847737738 18266.30842965329,10187.69238478248 18248.085635128897,10195.96227376588 18247.509209599928,10196.116105179477 18217.44857457769,10195.227251998382 18214.248378879973,10194.735075592238 18210.411464533303,10208.258085788111 18210.3482587022,10208.599434531643 18212.862802204327,10215.198166110553 18212.890181688825,10215.634992574574 18207.477781902184,10224.591693232534" stroke="red" stroke-width="3.536418666659629" fill="none" stroke-linejoin="round" vector-effect="non-scaling-stroke"></polygon><polygon points="5,12777.350330117624 16.710263751097955,12788.306683668401 18.837999217794277,12791.321019764699 22.457042773254216,12812.50227195432 22.47888810664881,12812.60906176566 17.169598293257877,12816.595276088337 13.715414186590351,12819.426419873955 28.343631928786635,12833.067358955508 28.40275996446144,12833.168159452849 15.829168639960699,12841.139373036684 13.95163505768869,12842.623560642183 49.624481848906726,12870.321641868097 53.89859413332306,12873.295606481493 60.474622008856386,12872.889058752335 61.37756245327182,12873.59795453318 66.50917688885238,12889.782385667786 67.17036231106613,12890.788430092274 81.31652636441868,12899.050551618566 81.73391786660068,12899.314862833242 114.21239438222256,12865.934503553319 115.20417251554318,12864.707558802795 126.64821447106078,12878.584931410558 132.97666190215386,12877.11763218022 137.56913351104595,12865.043228993192 138.8186865777243,12865.640686545754 139.00451754662208,12849.824402890285 139.10442353773396,12849.616837308626 157.85004970664158,12862.705912187288 157.9700534043368,12862.635446390137 161.15189902216662,12845.46634022129 161.3004472889006,12845.199831140228 181.98943431105,12834.040338167571 185.41390876437072,12833.56922539731 185.2149705955526,12814.891788819456 185.45526926219463,12810.40832723421 203.12727011542302,12802.20109178964 208.40772408887278,12799.971208430128 206.80427662213333,12793.008449595305 206.80893695994746,12792.858503804251 243.03694648877718,12788.537374062813 243.85104924440384,12788.347268106532 250.74164992000442,12781.848112346255 252.08411847113166,12779.125443784287 220.90034204442054,12767.000565642025 220.05944234656636,12764.642163524986 231.23027199995704,12746.849540804746 232.5808961421717,12745.389085239382 251.28720071108546,12735.84120135603 251.37137806217652,12735.758731877722 237.66037304885685,12692.61327825411 237.51473749324214,12692.343171458284 187.8565083021531,12730.870759644778 186.49801983998623,12731.71598167147 179.99801372434013,12718.907412678993 178.95846712880302,12717.440368123236 170.23052828444634,12723.717013399582 170.14955491549335,12723.723850609618 168.13891043548938,12713.50925755559 164.46627299545798,12710.83064487006 166.92780515551567,12701.084297552472 166.80780145770404,12700.677015444206 154.2971246932866,12697.466171002598 148.29781361774076,12697.208036463475 133.18113422219176,12698.161081405997 131.82118940446526,12698.611532651936 111.90669226658065,12710.025516465073 109.37321614217944,12711.206712365616 98.25481528881937,12705.423324012081 94.38207459554542,12705.896838302608 94.13886321766768,12712.477644971863 94.13973703107331,12712.668241517269 85.76452750223689,12714.373347023386 82.80288284446578,12713.746006429777 80.32533077325206,12723.096963061951 79.89628842659295,12725.579718231107 58.78670592000708,12724.489189512795 58.52951352880336,12724.49175345787 41.945701546617784,12735.069490978785 34.7268383288756,12742.275865247124 16.704147057724185,12728.241919650463 15.184294399921782,12727.57274000236 21.333610097761266,12741.592198839411 22.03557347552851,12744.396927236172 20.4819333688356,12754.762244409183 20.604558506631292,12755.069022249663 5,12777.350330117624" stroke="red" stroke-width="3.145049332038763" fill="none" stroke-linejoin="round" vector-effect="non-scaling-stroke"></polygon><polygon points="45405.451099306694,141.84223685617326 45406.32170865778,160.42922951991204 45405.88421944878,162.7950455506798 45410.92000568891,166.00352671125438 45411.18651875551,166.39277280209353 45405.836450986564,178.89845975430217 45406.385497031035,179.3866837286041 45424.503433955484,154.6305434711976 45424.66596323543,154.5975394374109 45431.963469653274,170.5351942832349 45432.336879217764,171.19206127268262 45449.06457912887,186.76280136196874 45450.680842524394,188.50903822336113 45489.46096952888,197.16316922963597 45489.871661795536,197.05784809973557 45511.60194303992,209.78867993142921 45513.59685888002,210.38034157641232 45538.95492181333,173.0546052325517 45540.777987697744,170.68799627834233 45533.937485653325,162.20325487689115 45532.86094762664,161.77692950854544 45500.33499391994,156.38155854737852 45499.965370879974,156.05965855985414 45496.86362481781,142.8224666226888 45496.68274545774,140.77564420632552 45503.98520348442,137.93890739372 45506.46799843549,136.54629756556824 45494.812202382134,113.22870981344022 45493.962855822174,111.67405506118666 45473.701454791124,89.26689431199338 45473.23396465776,88.76806697284337 45450.66540515551,84.76293504331261 45448.65534321766,87.35026953136548 45435.02327267546,66.06184888910502 45434.75413816888,65.93972958484665 45431.727831324446,71.4305077737663 45431.705694719916,71.93073160294443 45446.30303772434,85.8212087576976 45446.78713031113,86.12964483129326 45453.95997269335,115.84781225549523 45453.978614044376,116.58623790787533 45442.84623217769,126.03587599087041 45442.51447438216,127.02160277753137 45433.930423466605,121.39476121950429 45432.37707463105,120.3041030090535 45424.005942897755,144.61743314709747 45423.41757525329,145.46427242876962 45405.451099306694,141.84223685617326" stroke="red" stroke-width="3.6992211488308593" fill="none" stroke-linejoin="round" vector-effect="non-scaling-stroke"></polygon><polygon points="45476.663390719914,1955.3484379304573 45492.02735928877,1962.5873729264713 45492.046874453314,1962.4420943685109 45476.663390719914,1955.3484379304573" stroke="red" stroke-width="3.995685112187041" fill="none" stroke-linejoin="round" vector-effect="non-scaling-stroke"></polygon></svg>