<svg width="302.2122080710251" height="271.64705802162644" xmlns="http://www.w3.org/2000/svg"><polygon points="5,146.96320541884052 5.357098382199183,147.505483770743 9.478584604454227,152.5576835371321 10.659106417791918,153.77456785540562 13.452978915534914,157.34683062136173 14.026200462132692,158.08739288360812 15.525664142216556,160.0045213517733 17.53601735108532,162.58427460992243 18.46051185776014,163.76834828330902 18.646051555522718,164.77712979807984 18.808289564447477,164.9803020004765 19.388792888843454,165.41231896204408 22.40140999108553,169.29379424010403 23.255125617724843,170.39284713403322 23.312214755569585,170.4658810639521 24.1289389510639,171.51889486942673 29.85503772436641,178.83806570409797 34.899853368871845,185.37757757201325 35.08189781324472,185.61348326079315 35.44453034654725,185.992348156753 35.52783388434909,185.92241753533017 35.5983214933658,186.00828171288595 37.66925909335259,188.88869577483274 38.50666353770066,190.05359753093217 41.04334364447277,193.29732095979853 44.78617742226925,198.08293238829356 46.049420231138356,197.0946609758539 47.31994481780566,196.08646911900723 49.447389013366774,194.4927376944106 49.67516302224249,194.321901043877 52.58612650656141,192.14128798188176 53.01895537774544,192.65867102099583 58.64107036439236,198.9822422672296 64.65028465772048,206.17083668871783 64.75426844449248,206.34210676536895 67.00725048885215,209.04258024937008 71.96847132442053,215.00855392677477 72.30576327105518,215.4271971891867 72.70014435553458,215.32275771780405 75.1747837155126,214.749667369877 76.66114019555971,214.45316444605123 81.56556316441856,218.38201726705302 83.51387562660966,219.79104145796737 86.21046357334126,221.3664473479148 88.50597119994927,222.43869051506044 90.25884074659552,223.25426449050428 91.58092032000422,223.86848751123762 92.44919950223994,224.45615751144942 95.4985167644918,220.08222687325906 97.6446023110766,216.9247475876473 100.48915598227177,212.95869516470702 100.64935509336647,212.73520984884817 100.76819370663725,212.59580800303956 101.586082986556,213.05915284709772 102.90699747554027,213.8340473609278 103.56439637334552,214.21861707617063 105.01725667552091,215.07139472058043 121.09163548448123,224.49731205403805 121.25649493327364,224.59997711604228 121.46883157326374,224.7322910699295 121.57194154663011,224.79291650059167 138.39983871998265,234.5587046565488 138.8862614755053,234.82464810134843 151.0814916266827,241.9921683956636 150.92070997331757,242.16916312492685 159.36931982217357,247.29885147279128 170.37412494211458,254.11863545747474 170.78015687107109,254.61286585091148 170.89753912889864,254.72038404486375 171.35599985776935,255.63495027762838 171.99679630214814,256.1818298799917 172.68856519111432,256.4530568845803 173.89588394667953,256.93843293073587 174.51454378664494,257.4530100215925 183.67269006220158,266.64705802162644 183.87716238223948,266.40017759491457 184.3070785421878,265.83031634881627 196.26375765330158,248.73954997688998 197.09621048881672,247.62274396710563 205.6668629333144,235.414944058517 209.40561891556717,229.8783133130637 214.04993678221945,223.3954297301825 215.10928981332108,221.7855211305432 215.9219362133881,220.81771173560992 216.10776718216948,220.34066467219964 216.31486094219144,220.4756363480119 220.72470556444023,222.93697426636936 226.8699434666196,226.50236981373746 227.02023936004844,226.59618359268643 229.19224803545512,227.8502752976492 235.98323399107903,219.5002981921425 236.36771185777616,219.78794373880373 237.90300188434776,220.85842442454305 238.0046555021545,220.7358438060619 238.7270078577567,221.3155566023197 239.41906801774167,220.4468718994176 240.46414876438212,221.29829799896106 246.6478344532661,213.27467203867855 244.9034117688425,211.78285009571118 246.91726023110095,209.16959285951452 249.646179271047,206.71075741178356 256.37570702226367,200.6064787178766 268.09849543112796,213.73713037691778 270.6401271466166,216.8672177651897 271.4050050844671,217.8677920117625 274.1755758933723,208.56639295176137 277.8190862222109,198.1661364082247 277.6111186488997,197.64699592243414 278.80882545770146,193.15215329051716 279.31097685336135,193.23889983608387 280.0012893866515,189.8823148679221 280.6910193776712,186.83239908574615 280.79704206215683,186.30526528682094 281.35628259554505,185.7143959365203 282.57874744886067,184.68756305612624 282.8563288177829,184.467147446936 283.9986941154348,183.6164650687133 284.8224088177085,182.91670776176034 285.4553409421351,182.2076535122469 286.15410033776425,181.24719563685358 290.6344325687969,173.27877562708454 291.860101404367,170.94613388250582 292.57691960886586,168.93172084871912 293.32140856888145,165.57565302425064 293.6243305243552,164.85769047576468 294.68513991101645,160.88185330026317 295.29127509333193,157.44465757725993 295.8749823999824,152.63470733340364 296.02935608883854,150.3478859816678 296.1848948622355,148.78171403548913 296.43597055994906,147.11061672668438 296.9806475377409,144.73962896247394 297.2122080710251,143.3943167461548 293.3747111822013,138.15066419786308 288.4516468622023,131.31402988452464 285.0953298488166,125.97844873776194 284.63366513780784,125.7172445699689 283.5146015288774,125.11913013801677 277.98918855108786,122.99096303182887 276.8028413155116,122.46057828312041 275.83873393782414,122.30163970135618 271.9930814577965,122.18830181303201 271.1987851377344,122.06345297838561 270.2827374932822,121.71502695744857 269.50300472881645,121.28292480349774 266.9415665777633,119.84361124364659 262.8442558577517,117.620648123906 260.81933909340296,116.81973840051796 259.96591473778244,116.49565470474772 258.9438444088446,116.15740291017573 258.49412181333173,116.0236959066242 256.3628910933621,115.43573832407128 255.218778168899,115.04656975902617 254.52293148438912,114.70920123480028 249.60627512889914,111.7060674445238 247.0049328355817,109.76239878789056 242.39411114668474,106.65515001874883 240.68988387554418,105.75679368688725 240.4297787733376,105.5810182664427 240.18074197333772,105.43535036902176 238.24932323559187,104.09511266695336 235.01271864876617,101.7732545278268 234.3060949333012,101.22732210764661 232.830515484442,99.94860408559907 228.79378915554844,96.16642469412182 227.556178204366,94.89653308119159 225.50388195551932,92.57812083419412 224.0510216532275,90.99072947411332 222.30572515551466,88.67891825689003 221.94746168889105,88.27597608196083 220.76431843545288,87.04411974549294 219.09766513772774,84.76592022972181 218.9430001777364,84.62909467349527 218.68901176890358,84.37669779465068 216.75118506664876,81.77256514079636 215.67027797328774,80.39631671563257 211.4852946489118,74.883709575166 211.11974940449,74.36428020743188 207.32157411554363,69.23280171409715 205.9767753954511,67.32640149141662 201.57100856886245,63.62204846274108 200.2763084800681,62.81740077061113 199.90872433781624,62.68986140738707 197.92400298663415,61.823211776441894 197.10873514669947,61.66555823443923 196.31123484438285,61.737742313882336 196.16909454215784,61.73862800805364 190.29211733327247,63.85365537466714 187.54164423106704,64.8177220793441 187.08143587550148,64.99795824638568 185.4503176532453,65.65424693241948 184.47514197335113,65.80082666350063 182.62731804442592,66.99206015653908 181.5385466311127,65.60996300668921 180.20335985778365,63.963923207484186 179.42828743101563,63.231460349750705 176.41537905775476,60.212571853073314 173.21780480002053,57.023585402756 162.37086862220895,45.90140897402307 153.53894599108025,36.835939427197445 150.48496839113068,33.922544980072416 150.29360327112954,33.89774243050488 150.72555832890794,23.821476951765362 150.68245020438917,23.22308738459833 150.53652337775566,22.533453583950177 150.28049607109278,21.6188107097405 150.11185009777546,21.1873991524335 149.87621176883113,20.714351427624933 149.37114766216837,20.194352107762825 149.0219136000378,19.806787936598994 148.70035029330757,19.621642755984794 147.21341127110645,18.817721098428592 146.90699406224303,18.679526007268578 146.086774613359,18.22507615701761 144.39390691556036,16.756302039255388 143.1769762133481,15.468680529855192 142.6856018488761,14.893301316187717 142.28859932441264,14.212500424007885 141.86479985772166,13.293836697237566 141.13836970657576,11.428149168030359 137.01105806219857,13.422290388669353 132.91141717333812,15.262713546631858 131.13291576888878,14.165548561199103 129.25945998216048,12.995735257398337 128.7613863821607,12.635178150725551 127.06531470222399,10.955080601910595 125.05700039106887,9.284715252229944 120.23122062219772,5.739742761128582 119.13021582213696,5 117.65696654212661,6.898963424493559 111.86999210657086,13.849287641234696 105.73057962663006,21.331793668679893 105.63620778662153,21.46910125017166 105.59834254218731,21.522252549184486 100.59867391991429,28.55272822070401 100.5430411377456,28.63112387538422 99.98321806220338,29.41817927826196 95.50346837332472,35.09490518155508 95.39919331553392,35.215374030929524 92.67551715555601,38.546843240910675 87.14748273778241,45.401841239538044 86.05842005333398,46.73047634505201 84.37836828443687,48.586123373243026 84.271471786662,48.71721384045668 81.85829063109122,51.03077067201957 80.48057827551384,52.384172503021546 78.16963328002021,54.6356904769782 74.54330794664565,58.75470455962932 74.1800928710727,58.797218444000464 69.47664696886204,63.43782558373641 66.8939460265683,65.6772745703347 61.09677710221149,71.47352061001584 59.848389119957574,72.64169669192052 56.5937257243786,74.90762189519592 54.80532110214699,76.64214386011008 52.90390328888316,79.02891599177383 50.698689706623554,82.0400204063626 48.43696952890605,85.24901561171282 47.974139733356424,85.79410180356354 47.544806115562096,86.62434830068378 46.97740999108646,87.45016373018734 45.171820373274386,90.22470391297247 43.41050396440551,93.52302287193015 42.50435953773558,94.91291596915107 40.207978097721934,99.8662487246329 40.025351111078635,100.24038976884913 36.711559679941274,106.63389766856562 41.30053603556007,109.31876177538652 39.682233742205426,112.29359217715682 35.726480782264844,117.98369082610589 34.54712405335158,119.83431389403995 33.49243135994766,121.54944692843128 32.350357333314605,123.21143979090266 31.55606101336889,124.42671437520767 30.140192142222077,126.64562476531137 28.486354773282073,129.05709296598798 28.254794239997864,129.54274806496687 23.00841898669023,137.4591745430953 18.72294712893199,144.0831317869597 17.53310463996604,143.6006073364406 14.291839715559036,142.47176162805408 8.20485603553243,140.73731219372712 7.535223751096055,140.60848960385192 7.066859804326668,142.49168248451315 6.5242217243649065,144.11677565448917 5.939640604425222,145.2544665869791 5,146.96320541884052" stroke="red" stroke-width="3.9997467424746884px" fill="none" stroke-linejoin="round" vector-effect="non-scaling-stroke"></polygon></svg>