<svg viewBox="0 0 580.9144457065988 551.9752964209322" width="1000" xmlns="http://www.w3.org/2000/svg"><polygon points="8.05255000000011,213.8635098426962 46.92850519993931,254.59727729581164 50.06258235555265,256.73842550666404 67.25515095992137,318.15208806217515 67.49544962667983,318.94033847153287 91.02054345780175,342.5759214492059 93.13255028436083,345.84456129992714 84.10605855109293,361.3841939865738 83.33477264884982,362.36930890047324 82.3392079911207,385.0123609620855 82.36105332439888,385.73960949623824 96.75421527992125,428.10588620437875 98.50009432002093,431.02486837786955 111.8720597600111,448.0984886410074 111.83594214215532,450.8492475791495 142.89651088880032,458.79164845628065 144.1058685421956,460.0694177381588 159.50391583107535,499.36644251194184 159.36993111993775,499.4947937875763 179.57249538668088,508.8025878145486 181.39177474668372,509.18900461964176 193.8334202577605,531.9481928603268 196.63370071989607,534.560352574837 221.28601375115227,536.8877652821025 222.43653464000795,537.5652860390614 253.77992763554334,514.613027425577 254.58907878222067,514.1097780625928 239.18374971554272,486.4485768830996 239.84493513775647,485.36557381778357 269.8595493244718,481.6812983575869 274.68241638222366,480.299218746753 279.5408185155609,476.7869299608642 282.1797347821773,471.5749817809915 278.3346648444201,464.6011354516154 278.607294604393,464.26341096734495 314.6550073155447,479.8842250700468 315.02870815117035,479.80601109474765 324.66628667547025,500.4323538351232 324.72570598216384,500.5280417755489 339.7911216622231,506.2646402300811 340.5219208799315,506.5397355028322 329.4023549422634,490.4975983508407 328.5163082221768,489.77944431294554 358.62383789334103,453.31606594785217 359.1073479377444,452.9111433992289 368.2043272799126,486.42557347598586 368.5503573599051,486.93992907115125 388.91807234669227,493.8684277793286 389.5565386222222,494.26591258552025 417.3845805777016,534.0102331734738 417.69827956436325,534.5037768148245 456.7845325066953,543.9052684913981 456.97269364444196,543.7617654368291 462.6105372711097,513.4588642103258 463.2894902310579,511.7457783625937 501.39212063104037,502.0231603290663 501.5581451643736,501.95599522573275 514.2741680622346,475.0514682708085 514.3507723643922,474.84626694585995 471.00933975991916,442.56373381455296 470.92224969782524,442.4694006292043 473.23319469331886,428.6263634557031 472.8664843644726,427.8385141126705 447.11637051552657,412.6470008000392 447.44026399110567,411.16644980401134 496.5910989066831,365.1032093646131 496.70440336885054,365.0254140571119 513.2515151911427,373.76731339554635 514.1107649688854,374.0821642992446 522.8893849865779,353.6025485628411 522.9252113332984,352.9935023422363 507.48609481772996,325.34798904506124 507.48609481772996,325.2987249438079 538.5763732177218,329.7665187449088 538.7546311376861,329.7319885421671 530.4662203999249,309.4829850282181 530.3103903555091,308.9852423195621 540.2342883822055,249.00872955032492 540.2080739822484,248.90832411978727 560.2979163288617,255.81500325879415 562.0012697865966,255.80441036218645 572.6489765243384,233.20489150277672 572.861895706599,233.09941200438288 565.4720563465742,211.50819143167564 564.8895141244645,210.69144778038708 534.1152648799832,188.3484152952219 531.9324791732722,187.14781478307077 518.4789578221751,164.27799965235272 516.9526971999801,161.86454377455038 490.03691636442795,166.87711118060497 484.6183998844133,167.9889002410705 474.72974566216703,149.8152901993958 474.035064062198,148.81215368331277 502.19632016888477,89.0177916090247 499.5265291643807,86.73024584979385 451.5317492888787,71.1869203526071 451.27339181336697,70.91910493540445 352.9603624088702,89.85158977253695 351.6877989243728,91.01816431646103 254.1996493065742,8.574043144391453 253.31302004445,8.052549999999883 202.4608705688513,42.08620461371129 201.2052008089156,43.25396000702267 176.75386484442402,89.35472204609641 175.95024784885004,90.83656442751044 144.9295832443529,102.46924902583805 142.48436226658646,103.50071551060637 138.04364290668286,116.4747408811595 137.31022224887397,119.17397363918235 109.98782694221131,104.18743531892642 108.64914491549257,104.65477224495362 66.26453791114159,126.9594829711491 63.06638111102052,128.28714828464535 64.95818697775371,148.93334130108224 65.95579053331289,150.1373803544916 30.488289875538385,132.92308307337908 29.740888204403518,132.55764968987887 23.88109599109862,148.85039921271482 22.78446025783319,148.97112601964136 26.960414177716075,159.53353809184728 26.77720464891877,160.47257840276097 60.65407376885537,169.94476884938877 60.561449555541685,170.86717704512512 8.05255000000011,213.8635098426962" stroke="#009edd" stroke-width="5.826574519544848px" fill="none" stroke-linejoin="round" vector-effect="non-scaling-stroke"></polygon><polygon points="144.54714427548583,145.493521769567 159.16283735991578,103.18086003352755 159.57207327112678,102.54068676548877 263.8351889333933,124.54100044203324 266.45721147556446,124.26403453193006 264.2348128977244,142.21585024803744 264.02859295110807,142.2646954309089 277.5365819999495,172.7732597871577 277.698528737739,173.25519149998536 221.37922050661996,186.6037184871161 219.7492673689046,186.86540087385902 190.51351213324938,236.47611214282324 190.25253321775358,236.6142927153628 185.08334480887402,203.52995204510034 185.06965506656684,202.72699837017672 194.10983654214192,188.93028489335074 194.56771472885862,188.41014975312964 193.83487661332015,166.32144487437427 194.0976031555108,165.67915550029238 147.94831703996874,168.75005545948034 147.12955394664436,169.02650342012157 144.54714427548583,145.493521769567" stroke="#009edd" stroke-width="5.312317407880965px" fill="none" stroke-linejoin="round" vector-effect="non-scaling-stroke"></polygon></svg>