<svg viewBox="0 0 251.70731127106342 191.3280169884231" width="1000" xmlns="http://www.w3.org/2000/svg"><polygon points="8.052549999999883,93.75534434812255 59.10101620443265,164.07097738490086 59.799484328810195,164.93650837234566 99.01214893334645,183.12000110917836 99.35701392891451,183.2754669884231 136.6752512266171,151.41665799773875 137.22371472893383,150.94612391919475 191.73248173329148,164.53967527001043 192.8130975555173,173.26622120189825 203.18700944886177,166.3755872830876 204.9279368798957,164.70961755249994 204.82482690664574,111.74992077236641 204.96696720887076,110.96510209897644 232.95812098668057,103.70901235703025 233.6711526666545,103.66199391705561 241.22119113777399,90.78669793529082 241.68605983103726,89.85440984185664 233.8499931288893,58.94513140802849 233.85232329773817,58.77329796329252 243.59971103116504,47.034492304177206 243.6547612710633,46.93726545872744 197.0714811999128,9.20138541606832 196.0016424088749,8.052549999999997 182.48841047994893,43.48591048815399 182.2417038487979,44.49437022026507 184.07700311995677,58.972262992152196 182.60433638221684,60.010495744390596 160.42578889776587,53.42378382464051 159.8417903199802,52.895156075457294 97.80046111110232,75.11450520411711 97.4716160266903,75.1967982334678 9.8226045422266,84.28184823689628 8.929858586612227,84.31666305950023 8.052549999999883,93.75534434812255" stroke="#009edd" stroke-width="6.358421325843027px" fill="none" stroke-linejoin="round" vector-effect="non-scaling-stroke"></polygon></svg>