<svg viewBox="0 0 75.00565281776586 59.91082924710578" width="75.00565281776586" height="59.91082924710578" xmlns="http://www.w3.org/2000/svg">
  <title>Kaznějov, okres Plzeň-sever, Plzeňský kraj, Jihozápad, Česko</title>
  <desc>Geojson of Kaznějov, okres Plzeň-sever, Plzeňský kraj, Jihozápad, Česko</desc>
  <metadata>
    <collboard>
      <support-module name="@collboard/map-svg-geojson-import" version="0.11.1"></support-module>
    </collboard>
  </metadata>
  <polygon points="8.052549999999997,29.478248587030635 20.81466655110819,47.05715684622521 20.989283582202575,47.27353959308641 30.79244973333664,51.81941277729459 30.878665982228654,51.85827924710577 40.2082253066543,43.893576999434686 40.34534118223348,43.775943479798684 53.972532933322896,47.174331317502606 54.24268688887935,49.35596780047456 56.83616486221547,47.6333093207719 57.27139671997395,47.21681688812498 57.24561922666146,33.9768926930916 57.281154302217715,33.78068802474411 64.27894274667017,31.96666558925756 64.45720066666365,31.9549109792639 66.34471028444352,28.7360869838227 66.46092745775934,28.503014960464157 64.50191078222235,20.77569535200712 64.50249332443457,20.732736990823128 66.93934025779129,17.7980355760443 66.95310281776585,17.773728864681857 55.307282799978225,8.339758854017077 55.03982310221875,8.052549999999997 51.66151511998726,16.910890122038495 51.5998384621995,17.163005055066265 52.05866327998922,20.782478248038046 51.69049659555424,21.042036436097646 46.14585972444149,19.395358456160125 45.999860079995074,19.26320151886432 30.489527777775606,24.818038801029275 30.4073165066726,24.838612058366948 8.495063635556676,27.109874559224068 8.271877146653082,27.118578264875055 8.052549999999997,29.478248587030635" stroke="#009edd" stroke-width="5.366414933753639px" fill="none" stroke-linejoin="round" vector-effect="non-scaling-stroke"></polygon>
</svg>