<svg width="1773.908139235573" height="2070.1681779881474" xmlns="http://www.w3.org/2000/svg"><polygon points="5,1512.823822616192 22.069943466689438,1509.5175598974456 23.140947342151776,1508.5648156031966 24.228553671156988,1496.1925866456004 24.2107861333061,1495.5269187489757 42.7804845510982,1478.033801288344 43.38574592000805,1477.607079040492 57.89599886222277,1494.7832231017528 59.2533222399652,1495.7467275935924 81.77760853327345,1496.2514399730717 84.22807239112444,1497.3660833600443 89.43279587558936,1494.2954501336208 90.09223367110826,1493.6007953597582 98.33695374219678,1470.0119982502074 99.88797240890563,1468.3429449502146 131.67642766213976,1467.5866719147307 132.57004743104335,1467.7338243006961 165.25445262226276,1483.9355929172598 165.8107804444153,1484.4960676322225 181.7328244622331,1477.422923834063 182.28856974223163,1477.4456645578612 181.92418958223425,1460.3154380153865 181.90583950222936,1459.9685032831621 185.5429418666754,1462.7684917929582 187.61038421327248,1464.6034705420025 198.71101752889808,1457.7299138597446 202.969983715564,1456.5339091555215 207.00467114662752,1461.9783091178397 206.8703951643547,1465.6665472313762 216.3911739733303,1466.5365361263976 216.8609942755429,1466.7858044797322 227.414037902141,1465.7316515935818 227.91152895998675,1465.5546211940236 232.94702392886393,1458.108959484729 234.67950449779164,1456.5615573615069 264.03875868441537,1461.957350509474 264.62683505774476,1461.4543433100916 276.2910779733211,1470.1595949282055 276.6199230577331,1471.5820472715423 276.8797368889209,1489.5219951794716 276.81507470225915,1489.8858265081071 267.1472039821092,1521.6144239545101 267.13293169776443,1522.2314202346606 274.74326328886673,1544.5977068478242 274.9389974755468,1545.7963541361387 286.60498801781796,1554.6440328045283 286.85373354668263,1554.8718060295796 283.1834262756165,1571.0609318556963 283.1755619555479,1572.1542489239946 292.0942833777517,1573.6754348310642 291.9900083199609,1576.1423811674467 290.764630755526,1587.4988922951743 290.57909105776343,1588.220882959722 283.1164339199895,1597.5263288179412 282.58486414223444,1598.7665796102956 284.33715114661027,1611.0969580500969 284.3307431822177,1612.9801666917047 268.94813326222356,1632.2164044847596 268.58957852446474,1633.289367205056 266.40708408888895,1655.755775796366 265.52453262219205,1656.4049208670622 272.8951480889227,1664.27559712925 272.905633848859,1664.8378411883605 252.29878527997062,1690.1533773124684 252.19654912000988,1690.9601157968282 268.5289941332303,1689.5876340420218 269.8129171910696,1690.7128826157423 277.64898389333393,1715.3800430007977 278.0975414044224,1716.6615000384045 298.4943835021695,1751.6744219912216 299.66907989326864,1752.767734754365 308.8345079466235,1752.8372078059474 310.9814673066139,1752.4145797373494 310.82243327994365,1747.1483612480806 310.58679495111573,1746.4206557165598 301.88885703112464,1742.7326570535079 301.2809742222307,1741.6606719610281 303.9292111644754,1736.8213092364604 304.62738801771775,1736.299777614302 319.06948351999745,1741.7973982265685 320.2336941510439,1742.6315602189861 313.33639424003195,1761.376882442797 313.8257297066739,1763.6903220834793 337.46383672894444,1774.648437662283 338.11308003554586,1774.6582341736648 355.0388443021802,1764.1904137390666 355.17807189328596,1763.8479646333144 376.35814200888854,1800.456283183652 377.0114631111501,1802.284001810418 374.348080071155,1818.228813300142 374.51090062223375,1818.781315781991 383.2105861689197,1826.102176967659 384.810538382153,1827.9132112107472 450.0331306667067,1846.8783166572684 450.77703708433546,1847.1040077139041 465.57681351108477,1863.9794360032538 465.4699170133099,1864.3613449844415 498.8851214222377,1876.1218595736427 499.78835313778836,1876.3541970887454 496.80806712887716,1894.6893957111752 496.5494183822302,1894.8696424338268 502.8705840355251,1908.8972815606394 504.52616903104354,1910.0169620516244 523.459665066679,1856.0891732149175 523.4410237155389,1856.0206229283358 554.3635299555026,1842.9462695531547 555.2711307377322,1841.5319975086022 600.1204738843953,1886.0022192856995 599.1499585421989,1889.574332913733 621.8452209777897,1898.6570148368482 622.3071769599337,1899.1790529638529 623.4373088710709,1897.5697652261006 625.1916347733932,1894.7263351749862 633.0326530844904,1900.8711066755932 634.269098951132,1901.1942064618925 638.3763128889259,1887.9275894828024 638.8286569244228,1886.9435431517195 663.1687273244606,1893.6702201153385 664.269149582251,1893.796615947038 682.3005789866438,1889.093218062888 683.5792591643985,1889.3388938624412 693.2879078399856,1892.206871554372 696.1106161777861,1892.5299840237712 700.8778504533693,1900.6307842138922 702.585281706648,1901.5239813758526 722.0410268444102,1903.9000373457675 722.6075491555966,1904.0958527673502 732.9660236800555,1902.2734275261755 734.4232530489098,1902.9129469618201 757.5399847822264,1858.574774416862 757.8903839288978,1858.0579817729304 771.5451736177783,1849.5946067085024 771.6940131555311,1849.2291425566655 803.1635265422519,1856.9696418854874 804.0131643733475,1857.0270636333153 812.7766382932896,1869.8976156353601 813.5636528355535,1872.077278239245 828.5495515022194,1877.9271423388273 830.771950079943,1878.6633160326746 840.5382704355288,1869.8197224545293 840.8146867199102,1869.5482088663848 839.9685441422043,1860.959304990305 839.7585376710631,1860.6290243386175 827.2548514133086,1850.6740801150445 826.6137636976782,1850.1652815549169 831.9029558043694,1846.1696363365045 832.6206478221575,1845.476534097863 831.8968391111121,1832.027159776655 831.9580060443841,1830.900405816501 847.7236374755157,1837.2187901870348 849.80476956442,1837.2828946182271 852.3070796800312,1830.3140997219598 853.252545706695,1829.5835521350382 859.42982343107,1831.0041333080735 860.6091801599832,1831.4061325252987 886.4836667733034,1850.0749173834338 888.1846900621895,1852.8040771011147 878.0909809777513,1874.963729077892 878.1399145243922,1875.065210394212 891.698876017821,1856.6331234351965 893.6876751644304,1854.497821786732 921.9255355733912,1859.9181625530473 922.841000675573,1859.8754306508345 920.8918143999763,1879.9923392281635 920.9917203910882,1880.8286494540516 929.0153656888288,1889.909465950681 929.4039213510696,1891.1956955910427 930.4192924444797,1912.3791310386732 930.4626918400172,1914.7212491441169 925.7612848355202,1909.075291557354 923.020714951097,1905.9320589280687 903.0485461333301,1906.0491020893678 901.7069513954921,1905.7246743149008 871.2574694399955,1922.6027412888361 871.0926099910866,1922.8038800855866 884.1371867022244,1936.677119813452 884.681572408881,1937.002837005246 916.1912812088849,1947.6715892343782 917.2847129598958,1948.1979609185364 935.4492532622535,1968.5328339751577 936.8992008533096,1969.734074116277 934.0086263467092,1975.1827283574967 943.9529133511242,1979.452311431989 942.8990944711259,1966.5138460062444 943.4388198399683,1963.6815369217657 951.9963650844293,1961.132605646213 952.9916384710232,1960.0398797176895 988.088059733389,1968.3330715548946 989.057409991161,1968.732151310076 970.3706205866765,1989.9713184979046 965.2937651199754,1996.1557001781184 1020.5295448177494,2031.2724258342641 1024.3405360355973,2033.8854844493908 1028.9484450132586,2040.6784026250243 1029.8330353777856,2042.4147373609012 1026.9541117155459,2048.099092227698 1026.663714417722,2048.4708984642057 1046.9757966222242,2054.3823556294665 1048.693131093285,2051.1179984563496 1049.9464706844883,2060.590727400966 1050.3795908266911,2061.2569162381114 1059.051605617744,2064.619849503739 1059.921049884404,2065.1681779881474 1067.9601325510303,2054.4085948172724 1070.7298295466462,2054.757709137746 1071.1708140089177,2030.269447889994 1071.2925653333077,2029.4768474629382 1079.1860124444356,2013.7656922968454 1080.6633395199897,2011.4237350610783 1097.5250241422327,2010.0265555813676 1099.1616765154758,2009.6996116377413 1110.8288321421714,2000.3047706841608 1111.0295179376844,2000.1152683588443 1106.14490140439,1979.5154848036473 1106.4466582755558,1978.8730730549432 1139.9894394311123,1981.070344837848 1140.2673120710533,1981.105045451899 1149.4024479289073,1976.0333593928954 1152.8254660266684,1976.513395021204 1144.7342458310304,1961.216250567697 1143.297405440011,1960.3704565769876 1155.1792278755456,1956.3603434386314 1155.293697422254,1956.298053300241 1152.4147737598978,1949.703207929153 1152.2968089600326,1948.8667136655422 1155.5689486222109,1939.298862591735 1155.8867254044162,1938.7261933290283 1144.4505477688508,1915.6259595924057 1143.9891743288608,1914.1609765251633 1151.1232776532415,1911.3546968768933 1151.6300893867156,1910.6488936846144 1147.4354941155761,1901.7611875881557 1147.2586925511714,1899.7197816912085 1153.4196590932552,1886.8037913043518 1153.5510223644087,1886.5541070510517 1166.1517019022722,1882.60674395354 1168.2453586488264,1882.1140418560244 1170.7651450310368,1873.2153945118189 1170.9637919289526,1872.9278615844669 1163.707354737795,1879.3621001573047 1162.9500498488778,1879.2624011563603 1162.0698285511462,1874.308995428495 1161.57379384886,1873.4018901267555 1165.6623664355138,1872.2562081320211 1170.1263874843717,1869.385300553171 1166.8723066311795,1867.721047262312 1166.2952985600568,1867.4321718503488 1167.423974115518,1858.6135004318785 1167.5131030755583,1858.5298166207504 1162.6651867021574,1850.0188292583916 1161.708652373287,1847.8434002686408 1158.271944533335,1852.6153383863275 1156.883163875551,1850.4920167230302 1160.1707409067312,1845.5628937761649 1160.3586107733427,1845.2779957400635 1153.7697669689078,1843.60332203703 1152.507689244463,1843.459981485852 1151.903301688959,1850.2186987816822 1151.7562097777845,1850.303276030987 1150.3595648000482,1845.4551667495398 1150.0097481955308,1844.8297257419908 1155.3510778311174,1787.130176184408 1155.6108916621888,1785.3076753197238 1159.7449025422102,1777.7396606932743 1160.9341624889057,1776.314283630927 1178.859277937794,1768.9401146629243 1179.4718210843857,1768.354089214292 1193.9823652977357,1739.4053443970624 1194.0138225777773,1739.245902910654 1186.1276572444476,1721.7952709954698 1185.8695910399547,1721.8010612301296 1190.000980479992,1678.2386066016625 1190.1492374755908,1677.2464967253036 1186.151832746691,1662.2903562443098 1186.3137794844806,1661.0344237539684 1178.1249834665796,1654.72079312196 1176.4338633955922,1654.1068407081766 1151.2097851732979,1654.3015413320973 1151.0050215821248,1654.3282736698166 1167.8116559644695,1630.2874646050623 1167.8908817066113,1630.1408662667964 1157.4033740799641,1629.9256472529378 1155.606813866645,1629.9586207800894 1157.5271643021842,1621.0096919661155 1158.2224284444237,1618.6493030068232 1147.4040368355345,1619.4482821247075 1147.3734533688985,1619.1724497279502 1160.279967573355,1611.9948931874242 1160.4433706665877,1611.726181467704 1156.9653023289284,1590.7620930249104 1156.704032142181,1589.2503840775462 1164.3239756799303,1568.3265011833282 1164.5616529067047,1567.9957820859272 1141.8535745422123,1561.2275201666635 1141.307732479996,1561.1949820868904 1117.6725381688448,1568.511471890728 1116.2732717511244,1568.253404282732 1102.560810382245,1556.3329366985126 1102.3997374577448,1555.7481290024007 1100.6593925688649,1546.0557853056816 1100.7796875378117,1545.273479047115 1107.2077496888814,1531.0234295940027 1107.3481423644116,1528.8979014131473 1138.8342582044424,1491.6666295197792 1141.2366623288253,1491.2229906559805 1141.8162918400485,1461.8240180391585 1141.772892444511,1461.440965443384 1120.7620508444961,1448.4359571203822 1120.3496109510306,1448.319562777644 1118.79334940447,1441.0695457126712 1118.3730451911688,1439.6254897174658 1102.9027626665775,1438.3602605510969 1102.6077050311724,1438.2095207442762 1092.7461390221724,1420.8599288494443 1092.602833635523,1420.5842938638525 1084.8235647999682,1390.3310356267611 1084.3397634844296,1389.7395422724658 1097.4554103466216,1379.988594553899 1097.5124994844664,1379.8837624954758 1100.5047276088735,1384.8853113365476 1100.6960927288746,1386.4978985370835 1097.4457983999746,1391.5733449305408 1097.5084216889227,1392.2370965458686 1102.5086728533497,1392.1496670119232 1103.420933973277,1392.2277290974162 1102.1361371021485,1388.1987972268835 1102.2130326755578,1387.9159841402434 1108.3102108443854,1394.3804474844364 1108.7025530311512,1394.4709985842928 1115.4513046755455,1382.8319778284058 1115.4772278044838,1382.7231323288288 1098.247959039989,1376.9158793153474 1098.2910671643913,1376.8083691938664 1144.1152947200462,1372.9558142035967 1144.8781337600667,1372.6038347118883 1139.3667017954867,1354.5432755679358 1139.1922303999308,1354.2104509369237 1132.5617348266533,1353.4319248702377 1132.296095573227,1353.7018439613748 1132.8250439111143,1363.1581725106807 1131.9917172621936,1363.5998386259307 1125.1185928533087,1359.0970333887963 1124.6167327289004,1359.0144982022466 1113.6949398755096,1337.3271949712653 1112.9845296355197,1336.8100715752225 1128.8221050311113,1310.0625624237582 1129.5887305955403,1309.3842836166732 1182.4698746310314,1275.6109440670116 1184.0838078578236,1274.5228493772447 1185.982021688833,1279.7432448639884 1186.180377315497,1280.280139255221 1182.3102580622071,1281.125421704608 1181.7612120177364,1282.8847056089435 1177.633609102224,1310.4458782733418 1177.7582731377333,1311.4432103329455 1197.6491773155285,1321.622432613396 1198.1548239644617,1321.6558985074516 1203.1003161600092,1331.3893495695665 1202.9823513600277,1332.4316520175198 1195.8100915199611,1339.6526736179949 1196.3533121421933,1340.8667136346921 1212.5316747378092,1348.3801384550752 1213.8601622756105,1348.6067864813958 1219.2594548622146,1367.8504951254 1219.8521915733581,1368.2578007889679 1227.3559179378208,1361.5739668686874 1227.5440790755674,1361.6127802660922 1273.1119880533079,1382.4461113682482 1273.3875305244,1382.5736927235266 1276.7718095644377,1398.5234567554435 1276.8999688533368,1399.5502758190269 1298.962881706655,1397.6844233775046 1301.3938303999603,1397.795491775265 1316.3147756088292,1404.758342617657 1317.7961804800434,1405.0255225813016 1333.117623466649,1399.64439322619 1334.492714382126,1398.630510226183 1350.7424384000478,1378.47945419827 1351.6619812977733,1377.4418305644067 1353.4544637155486,1374.3155471861828 1348.8174276265781,1369.0367205853108 1351.7350903466577,1365.5253140936838 1356.906608924386,1368.5535764998058 1364.590340835508,1352.0609092405066 1363.9990604800405,1347.763101406803 1371.048112640041,1345.3217057709116 1371.2429730133153,1345.2030261268374 1342.2096511999844,1268.2583899935707 1341.565650773351,1266.9314764352748 1320.2620817066636,1245.2560841881786 1319.3847731200512,1245.4962293329882 1316.585949013359,1228.1292213392444 1316.4854604799766,1226.206562125939 1321.0674463289324,1214.544807832397 1320.6072379733669,1213.394803892239 1318.3073612799635,1212.5898868474178 1314.4978264177917,1214.1412357050576 1312.9369045333005,1204.4802839246695 1312.8824368355563,1203.838735289406 1304.3347948088776,1195.0519649357884 1304.3094542222098,1194.519327424583 1313.5121649777284,1194.5220062417793 1319.503611733322,1193.8420320982113 1310.2784731021384,1184.0225784686627 1310.0445824000053,1183.399276403361 1323.0524589511333,1183.906937316293 1325.5771969421767,1183.8671996088815 1334.6319419733481,1168.6440046549542 1334.7126240710495,1168.0702231315663 1346.733965368825,1168.1952495831065 1347.1676680532983,1168.2305248905323 1350.380097137764,1161.7687980120536 1350.161352533265,1161.0498739626491 1374.7958980266703,1149.6758259162307 1374.9415335821686,1149.3172375631984 1394.2289240177488,1151.5585168270627 1394.6005859555444,1151.6116570627782 1394.653014755575,1167.4410710888915 1395.8652851199731,1167.2977366956184 1406.7716406044783,1148.7831497180741 1408.0843995021423,1147.7935654702596 1404.6756536888424,1146.5838194788666 1405.014693262172,1146.098400890769 1419.8741802666336,1142.6919558886439 1420.1013717333553,1142.3690821870114 1416.9897224532906,1132.3119768344332 1416.9914700799854,1131.9636319160927 1424.3189774221973,1120.324575407023 1424.2595581155038,1118.8922603621613 1384.7867884088773,1111.0230704899877 1383.9106449066894,1110.1159450447885 1380.056836835458,1098.2372144507244 1378.6534926221939,1094.968496970716 1382.573127964395,1088.8646468343795 1382.5777883022092,1088.3335390998982 1377.6608406754676,1081.7837006058544 1376.9175167999929,1081.146708027809 1407.6565222399076,1073.7286909881514 1408.6051922489423,1072.016874124878 1378.0225993955974,1053.9597903791582 1377.6154023822164,1053.7909170425264 1371.1223867733497,1034.255686393124 1370.2203201422235,1033.3813074547797 1409.706779591157,1027.8775998230558 1410.042615182232,1027.6309618701926 1413.4976731021889,1043.8195656466996 1414.3379902577726,1045.8751690700883 1417.246623573359,1045.0857231232803 1418.7586119110929,1044.7220498442184 1413.1484390399419,1031.2286315747187 1413.1615462399786,1030.4663880354492 1420.781489777728,1044.1001403381815 1420.7980922311544,1041.8363212819677 1413.0735823643627,1028.0531951537123 1412.5851207111264,1026.7878333026893 1424.6685027554631,1028.7783621723065 1425.9029097245075,1029.5245266041602 1431.2558902044548,1039.2905581229134 1431.461818879936,1039.649772539793 1442.796925439965,1029.709950307093 1443.4403433244443,1028.9678077527205 1450.6041563021718,985.9232788360678 1450.6787217067322,983.8702436126769 1434.288313742145,937.3692729825852 1432.5208806400187,935.7247852750588 1433.1634247110924,900.1004388512811 1433.0772084622877,899.9055174724781 1459.0049976889277,892.3472631077166 1460.227462542127,892.7590261117439 1458.3676964978222,919.217542191851 1458.5570227199933,922.7991040657507 1455.0239041422028,924.723521305481 1454.9583681422519,926.255443738657 1462.5287955910899,926.3832897157408 1462.7623950222041,926.2979100679513 1464.991492835572,932.5519933371688 1465.0698447644245,933.5631078232545 1487.1027566933772,932.0455403470551 1487.548110222211,932.0173792021815 1481.9545398044866,910.0617643205915 1481.9795891200192,908.6486444012262 1485.9088364088675,912.842378720874 1486.6975985777099,913.7418239588151 1496.4144028445007,892.3579930980923 1496.5422708621481,891.7660545156104 1500.161896959995,893.0827133175917 1501.047943679965,893.5369475987973 1493.6292684799992,924.0726633749437 1493.4967401244212,925.4186318727443 1501.6797107199673,925.7230493782554 1505.2722486044513,925.4177378413151 1506.6493784177583,923.7660084903473 1507.0673524622107,921.7173104446265 1499.6708138666581,916.1075440759305 1500.0841275732964,914.8062223448651 1515.334209137829,912.1785214027623 1515.7210171732586,911.7261137863388 1520.7300064710435,897.2302488019923 1522.8542466844665,896.0884213513928 1521.8170302577782,879.1641804600367 1521.98684131552,877.2272925532307 1538.0987940977793,879.0939842201769 1540.3899326577084,880.467948588368 1545.399795768899,863.3395034390269 1545.6756295111263,862.481883594417 1556.711891911109,863.1968651252682 1558.065428764443,863.1601994622033 1573.1623017244274,869.7290684452746 1573.9018390754936,869.7643916267552 1588.998129493324,885.3869657544419 1591.1028545422014,885.6900973715819 1596.5269051733194,898.7172086334322 1596.5324393244227,900.7938389617484 1604.3958855110686,899.6734892756795 1604.9557085866109,899.3131521304022 1616.7417028265772,915.3408783058403 1621.5916580978082,915.3659123323159 1621.5820461511612,909.5208368568565 1621.4967037155293,908.5458229202777 1640.3262159643928,891.4969097089488 1641.2128452266334,890.513321235776 1654.0619790222263,889.4157207247335 1656.6143877689028,888.816620782949 1665.6277723022504,901.8936180201126 1665.7984571732813,902.0263958515134 1678.2820457244525,894.6658230249304 1679.3556710400153,894.1852134031942 1669.0452562489081,880.3400759244105 1667.5859879822237,878.5274952735635 1675.921002097777,874.2718513156287 1678.607104284456,872.7087153562461 1677.365706808865,870.5996267209412 1676.538496853318,869.1567426889669 1685.6613993244246,855.266208193847 1686.6490996622015,853.44850212452 1710.3646848000353,843.6509642191231 1710.8528551822528,841.5737943366985 1743.6284282311099,842.9341304141562 1744.8398247822188,843.1796339578577 1743.7571700622793,846.2463928381912 1743.0033604266355,849.2813598557841 1747.871665777755,857.0177203473286 1747.6567076977808,858.2098316965858 1756.5666909866268,857.204183801543 1757.4276883911807,857.7130448940443 1760.0392251732992,853.1851235415088 1761.0481883022003,851.502891603508 1750.3002843022114,842.829936659662 1748.9216981333448,841.231696661911 1703.0939753244165,818.6252395566553 1702.8976585955825,818.4351655263454 1698.3809174755588,796.8094823069405 1697.9935268977424,795.3822161697899 1687.4326189510757,785.1826517297886 1686.7859970844584,783.6211189634632 1684.011348479893,763.2141629699618 1682.973258240032,760.4839962644037 1671.0500753066735,749.9105992115801 1671.0154140444938,749.8502039029263 1678.3612714667106,730.8624385049916 1679.0113885867177,729.8781313197687 1659.151650417829,721.2236443884904 1658.1112300088862,720.5914235171513 1647.8747980799526,701.5912865307182 1647.1338043733267,700.0560084112221 1652.654265742167,680.9601187146036 1652.674945991137,680.2440968650626 1633.5876588089159,680.1639917756547 1632.9876403199742,679.9648477116716 1598.1050120532745,702.9636755872634 1597.9121905777138,702.8330148527166 1606.4193459199741,698.3891612393782 1607.0776186310686,695.5816698080162 1598.6662914844928,682.4682321054279 1598.4743438222213,682.2404494702932 1600.9938389332965,673.0394447182771 1600.9769452088512,672.3587519753492 1623.7243451733375,680.5533290875028 1623.1217052444117,683.0701320388471 1631.3142877866048,674.195856748207 1631.4893417244311,673.6060157686006 1604.0149028977612,662.8552376776352 1602.818361173384,661.7457589536207 1604.752692622249,652.8289986648597 1606.0054496710654,650.5137058102991 1619.1697388088796,644.189828826231 1619.848983039963,643.8465287191793 1608.1905655466253,630.7371659504715 1608.1349327644566,630.5191772439866 1615.01184369775,623.2811132305069 1614.842323911027,622.7081456006854 1586.8631122488296,621.8043756544357 1585.5200611555483,621.4494020934217 1592.5632878933102,599.4891661580186 1593.425159111037,597.4428166537546 1580.73593315552,590.9674342178041 1580.4810709332814,589.2039518094389 1576.668332088855,595.6798338945955 1576.1021010489203,596.8836598647758 1568.3403084799647,594.9630864791689 1567.5352351288311,594.9505512131145 1561.2892174222507,587.7668307751883 1556.5219831466675,588.2879561241716 1572.852097991039,582.1346583733102 1575.0791569066932,582.4238815532299 1580.419321457739,567.5230198239442 1580.3770871466259,567.1988529528608 1588.673653475591,564.7089309725561 1589.17463978671,564.5244580183644 1614.9029083022615,582.4574600710766 1615.1146623999812,582.8026469375473 1657.4847058488522,596.307041926193 1657.5875245510833,596.1279677243438 1663.6914019555552,604.9100423703203 1664.6595871289028,605.2874259992386 1679.9615149510792,600.9306872943998 1680.9218358044745,600.7440063634422 1679.3242137599736,592.5934608011157 1679.1482860088581,592.1591982711107 1693.742425031145,588.7643101731082 1695.3161628444213,588.5319533928996 1715.7829100087984,601.8099210095825 1715.9923339376692,601.7597815033514 1708.5459879821865,586.9390268853749 1708.377050737734,586.7993430658826 1726.8113080888288,568.9271404179744 1727.1086958933156,568.1610540504917 1729.290607786621,552.6059232383268 1729.7563502932899,550.7373528711032 1726.668876515585,548.6789069714141 1725.7956457244,548.0036501241848 1736.6486985955853,511.7991428870009 1734.926995057729,508.74294179910794 1744.2936914488673,491.6311923157191 1745.50916579552,489.76747811527457 1728.3605791288428,476.01644243858755 1728.9626365154982,473.6742014135234 1735.6403180088382,463.6169285644428 1736.401118151145,461.61903671664186 1752.5602568533504,475.44533031998435 1753.0996909511741,475.4014330133796 1753.0455145244487,463.18420285830507 1753.2060049066786,462.88183190557174 1768.2221957688453,455.243579601869 1768.908139235573,454.9344781161053 1758.74277745781,443.8177348267054 1758.5103431111202,443.40109800652135 1758.638211128884,432.87067595892586 1759.2892020622967,432.1157635146519 1744.3385471999645,429.9477839155006 1743.4277424355969,429.9150781283388 1724.5964825600386,416.51560026424704 1723.8004386132816,416.1056324406527 1713.736147911055,405.22261115023866 1712.440574008855,404.88924318098 1714.6897695288062,399.631909619784 1714.0801390933339,398.0438860519789 1687.1299882666208,379.80946973129176 1687.0233830399811,380.8975187645992 1671.6879590400495,354.40235061221756 1670.1343189333566,353.49882070790045 1655.2486175288213,298.39574108365923 1655.1580322133377,296.9620956056169 1668.1411507199518,277.71770407888107 1670.1509213866666,275.5809283100534 1643.3411632354837,279.26893824955914 1642.2028757333755,280.17322201351635 1621.882637937786,260.7493558516726 1621.1232941511553,259.89789991953876 1603.1786635377211,261.59273785550613 1602.2387316622771,261.4003878592048 1590.8412930844352,216.1782163338503 1589.9109731555218,214.45028979337076 1574.207673742203,208.43091804219875 1572.8544281600043,207.65908828069223 1571.1210737777874,192.77134685683995 1570.722323626629,190.99210561951622 1559.0685664711054,195.29688483203063 1558.3246600533603,195.1107557832729 1543.9804316443624,180.81467614427675 1542.6633036800195,181.38745221606223 1533.0933000533842,161.1128706826712 1532.2320113778114,159.35176440665964 1531.5312130843522,132.0034599514911 1531.541698844405,131.69300574995577 1535.8128984178184,123.8139617650304 1535.3462820977438,122.08306452236138 1495.4366057243897,93.44455868168734 1495.1121297066566,93.19148509576917 1491.783483448904,71.85058803466382 1491.1511338666314,69.4685785616748 1464.5356535466854,53.464286592788994 1464.0637943466427,53.50871715036919 1462.8124936532695,47.157748888013884 1462.1941250844393,46.69233609625371 1389.5752854755847,30.33987736288691 1386.624417848885,29.68008029041812 1368.8790166755207,8.658894110005349 1368.5661915021483,6.0019262813730165 1352.3662748443894,5.259010951325763 1351.5105203200364,5 1347.8189502577297,19.497409311064985 1347.3520426666364,20.470542263065 1333.565015893313,39.52252052689437 1332.5703250488732,40.634698824665975 1349.5595864177449,50.984688181080855 1350.3672812088626,51.53132423036732 1350.7683615288697,80.36556678288616 1350.8665198932867,81.20021885057213 1359.243477048818,111.23481046501547 1359.5711570488056,113.78461788897403 1369.844289137749,122.04089111695066 1369.988468337804,122.39353232149733 1366.4789427199867,133.38075869902968 1366.0705806221813,133.9325730354176 1340.7431011555018,154.38551212730817 1340.3414382933406,154.79103454761207 1332.2123528532684,148.2361931396881 1331.755057208822,147.74407867976697 1325.205535004381,150.98340071277926 1324.5705639822409,151.7742707169382 1329.505861688871,192.90275986748748 1329.3721682488685,193.50017228908837 1320.5958783999085,200.6609216388315 1319.5365253689233,201.69110667699715 1315.4843616711441,196.22349119314458 1309.8980730311014,195.98443968454376 1288.906455324497,209.52205914608203 1288.2875042133965,210.13646831340156 1282.8360740977805,196.76483201480005 1282.337126684375,195.94900801288895 1246.2585392355686,168.14459480147343 1245.992026168853,167.38922008359805 1229.0849032533588,165.65911510348087 1228.6948912355583,165.3769680924015 1209.2341944888467,135.6934347068891 1208.2965927822515,134.8047060345998 1192.0285186844412,148.4995210254565 1191.7142371555092,148.28688490373315 1188.8120118044317,144.8227712152875 1188.9442488888744,144.26066628482658 1195.9854367289227,134.9523043318186 1196.238260053331,134.08241506270133 1193.295839288854,121.69004396162927 1192.731647146633,121.04891644464806 1203.1399290311383,113.5423358604894 1203.7029560888186,113.16276014444884 1200.5039254755247,108.53646007773932 1199.1751466665883,107.3003406941425 1186.3833932799753,99.66226961283246 1184.30663025775,99.114856080967 1171.4886624710634,104.23626011481974 1168.569834666676,104.19094245019369 1127.378856675583,97.53632318298332 1125.2645196800586,96.14309468853753 1122.2789907910628,100.61709912726656 1120.7282633956056,101.88331870001275 1129.375520142261,109.02372700267006 1129.5135826488258,109.2637706240057 1130.0865129244048,123.8175509623834 1129.5191168000456,125.28328450489789 1085.6222301867092,178.00998049986083 1083.1819608177757,180.1669933348894 1070.9951775289373,207.807534540887 1070.0613623466343,209.93644916749327 1046.5423852088861,201.0569402296096 1044.7592234666226,199.23785006901016 1036.395082239993,209.50815643696114 1036.0907039288431,210.12794732209295 1039.6584837689297,233.68632736324798 1039.6596488533542,233.9706286926521 1068.3230563555844,247.81485069473274 1069.7657221688423,248.51031215675175 1057.0400873244507,268.95706025877735 1056.1196706133196,270.20527160621714 1082.7124317866983,286.5026557481615 1084.2491781688295,286.79451006336603 1083.5483798754867,298.0079673548462 1083.4403182932874,298.494813799276 1100.3320038400125,304.9263753858977 1099.995585706667,305.9412780480925 1086.8732396089472,314.39025026210584 1086.537695288891,315.12718891573604 1038.9824435199844,310.37962895899545 1037.9507612443995,310.7741048517637 1034.468032568926,316.77856801170856 1034.1741400177125,317.68045601970516 1025.172406328842,317.07172684615944 1023.8040146488929,317.1627225515549 1023.7865383822937,329.8936809762963 1023.8899396266788,330.19040812388994 1018.4189943466336,331.2468790176208 1017.3628452977864,331.9008395735291 1016.2402864355827,338.4887448088266 1017.8079075554851,341.3339702888625 1013.9246811021585,343.37060558446683 1013.0048469332978,343.68569073971594 995.5416874666698,314.0051943489816 995.197113742237,313.4506947173504 983.7335566221736,309.9743938947795 982.6019683554769,309.9627388928784 942.3427666488569,318.23135894944426 940.60941226664,317.8543783307541 913.2281801955542,285.75351639773 912.1717398755718,284.26554142916575 885.6634473244194,264.6165114513133 884.4963239821373,262.68047615513206 878.5826466132421,269.1529904550407 877.5707707733382,270.3639876267989 870.9906651022611,260.19875702704303 870.5255051377462,260.0584168776986 845.6224076799117,263.22210145986173 842.0056942933006,263.04768749687355 817.8197063111002,275.34330823412165 814.623297137674,276.78471662965603 774.5082746311091,284.0557267324766 773.1503687110962,284.2489535223576 737.3382943288889,277.90241808688734 736.4435094755609,278.3435790692456 717.6859411910409,266.35525208036415 715.9951123910723,265.4612236782559 700.018309404375,235.30289389600512 698.3443743288517,233.83879184431862 691.3512462222716,237.54588826629333 690.2077158399625,237.73242974845925 682.7843803021824,228.68991803075187 682.2697042488726,228.54955773451366 626.6782825244591,220.68295956082875 626.2815712710144,220.74125826987438 612.8796049066586,198.30587446608115 612.4860976355849,197.34877894329838 615.7946461866377,191.31368873117026 615.8925132800359,189.7806704477407 612.0934641778003,181.86738089798018 611.4226668088231,180.91335341276135 569.9966330310563,199.49708030803595 567.6824840533081,200.39675935020205 557.5890662400052,218.21870381489862 556.8134112710832,219.5968069350347 534.1338774755131,234.97644258465152 529.9698656711262,238.55168577528093 519.6207118221791,231.1163880696986 519.1969123554882,230.72759861138184 518.1562006755266,221.1865702056093 517.1918020265875,219.21203316294122 508.00948024890386,209.78665892535355 504.5768502044957,205.70505971921375 494.9550003199838,211.3307492409367 494.43857663997915,211.86128952843137 490.0936854755273,224.9665280871559 490.1225213155849,225.41407366038766 448.9108630755218,244.70385555631947 445.388230257784,244.06981337524485 437.476141795516,258.4693834964419 436.9623395554954,259.06482398917433 424.81633422221057,264.5299775842577 423.7817392355064,264.72680845530704 407.87688021338545,255.95353991060983 407.6476498489501,256.05218340305146 408.3027185777901,265.34106311388314 408.3152432355564,265.6638823914109 416.35927751113195,270.1837507811142 416.7571538488846,270.06986971281003 422.1238240711391,285.1572516526794 422.1794568533078,285.2034286042908 418.29390023101587,306.0484163503861 418.49779000889976,306.6271415898809 411.6936968533555,301.43335297727026 410.4761836088728,302.28554439608706 376.0071603200631,342.71712739160284 375.24140856892336,343.8591442523757 335.05007303110324,370.04546721768565 333.71809023991227,370.4129471774213 343.9218998043798,376.4588005215046 345.86030904890504,379.5213240473531 343.9886008888716,387.0492860272643 343.8968504888471,387.1156065885443 352.8764475733042,414.03293094219407 353.7231726932805,414.9801212134771 348.5070896354737,458.7493871691404 347.7331822932465,459.5288461091113 353.2268467199756,474.4213561685756 354.51834282663185,475.4323403015733 351.8610764798941,481.44215747120325 351.8523383466527,481.6334189836052 364.113104497781,489.073676120257 365.133427200024,490.1132585367304 367.9057456355076,504.2875478680944 367.88768682663795,504.4935692823492 381.49907711998094,519.8725223608199 382.0929789155489,520.0789770014817 377.7687679999508,549.1728103671921 377.7862442666665,549.2292308114702 395.81592604436446,550.2859920098563 396.5540070399875,550.3061420681188 419.6328735288698,565.3178697222611 420.9025243022479,566.1609784553875 427.5219515733188,572.8170807143906 430.2293165511219,573.1972058551619 437.8108123021666,594.1326235583983 437.8641149154864,594.5042057384271 433.87457450665534,604.3007656539558 433.5413603555644,606.2176761152223 415.2332233955385,597.0188604356954 414.4057221688563,596.981254987244 381.55237973330077,605.9513151994906 380.1799102576915,605.3514423749875 379.41677994665224,635.2029773476534 379.44619832886383,635.3444208287401 372.3598634666996,637.0609824017156 371.99257059558295,637.3501333057648 359.1981957688695,665.0361369742895 357.9996151466621,670.0660415827297 360.1299720533425,692.350370146276 359.9633649777388,693.0685900052777 378.4614107022062,709.7624013139284 382.179777706624,710.7624593947548 421.1667071999982,702.8907382689649 422.63646122673526,703.3959293815424 425.3645064532757,722.194567451952 425.47577201772947,723.2880811967188 419.57724074670114,726.4616563691525 419.8035584000172,728.2240379111026 435.3853977599647,735.3928792119259 435.9624058310874,736.835298967082 429.53172223991714,750.4595247005345 429.83697436435614,752.4082662238507 467.1767657244345,761.1451801699586 468.0398020265857,761.6909461718751 483.33066154667176,783.8496911955299 483.5368814932881,784.1243354027392 482.30917376000434,795.7333307605586 482.2153844621498,796.5540868844837 473.74201656889636,799.0802968634525 473.4638526577037,799.4443764330354 418.29593912884593,776.3751218662364 415.8836317866808,776.3782530975295 393.6835302399704,793.9245255234418 393.2512839110568,794.2716169005726 373.5925228088163,794.5744268426206 372.94968746660743,794.6643304526806 364.745162808802,803.1830898645567 364.7017634132644,803.4411611704854 377.0044726044871,812.1782839727239 377.23108152882196,813.4417500957497 345.75719907553867,819.3770366407116 345.0703817955218,819.9029800093267 341.6802773332456,833.5327930891654 341.35813148436137,838.0463616570923 349.31361934228335,867.8685571596143 349.4918772621313,868.4784453134052 375.17033841775265,874.0487384815933 375.89968128001783,873.8618421858409 377.5680822044378,888.826456765295 377.8057594310958,889.6772675756365 386.52088234666735,906.1411277108127 386.9242928355234,906.9167666095309 375.3392756622052,917.6556196412421 373.6673794843955,920.6086899751099 379.89825109334197,929.5865671122447 380.0995194311254,929.6375259347842 378.00498887104914,933.5416518611601 377.8913931377465,933.7079355122987 391.86279452440795,941.1521291416138 391.94172899553087,941.5553081319667 345.949438008829,942.3759672975866 345.7738015288487,942.3710505034542 339.4331207111245,934.5724296737462 339.331758364453,934.4977811392164 295.83187427558005,930.076039525331 294.69125660450663,931.0138566865353 296.8248174933251,947.863041101431 297.61561855999753,948.8678276714054 289.00739214220084,955.1369128454826 289.2261367465835,955.7899136556662 320.68691199994646,969.9185708886944 321.3740205510985,971.9529655993101 321.8353939910885,1013.6637431330164 318.60723626671825,1013.8715220048325 322.6363895466784,1025.183780103689 322.69027470226865,1025.3209516839706 307.16377685335465,1032.842023464851 307.0679486577865,1033.820061142731 287.37248739553615,1021.136956609902 286.9524744533701,1021.2030861554085 270.4207999999635,1037.151790495729 270.24778495996725,1037.319336234592 278.1394844445167,1065.8279554250184 278.5306615466252,1066.1965078600915 273.55545969773084,1077.9233007697621 273.64487992890645,1078.2869191945065 251.39788373326883,1093.3569004411693 251.1246714311419,1093.5252967503038 232.48069888004102,1169.157950882276 232.0857352532912,1169.4700688135927 233.28926748444792,1185.0521838899003 233.20130360883195,1185.536177142465 251.8738207288552,1213.0952483086148 252.16450929781422,1213.4331969778868 246.04228181333747,1226.291825520806 245.9767458132701,1226.946700861561 210.54419768892694,1205.3539835485863 208.86210702219978,1204.2445585472742 173.15139498666395,1193.9411486175377 172.35738993785344,1193.7607743778499 144.28584533324465,1214.7265043341322 142.54986951104365,1214.6367721739225 139.0613154133316,1206.4384020213038 138.81198734219652,1206.4589385073632 142.57258865784388,1171.0333309367415 139.38054855109658,1170.351944697788 129.1001346844714,1180.400168658758 127.85669831105042,1181.1181365364464 77.87370183109306,1200.8720508020488 76.18287303112447,1203.0011922958656 71.6247714132769,1211.3653180021793 71.1849520355463,1213.373375190422 76.87668081768788,1219.1514598326758 78.45537023991346,1219.9134967656573 89.78902044438291,1216.9224755059113 92.0644303644076,1217.7117519272724 91.74577976891305,1224.3048673578887 93.31631360005122,1224.535214358766 74.89632853330113,1262.0807873029262 73.51191694219597,1264.1571167071816 74.50427761778701,1272.0186044666334 74.38573027553502,1272.438584079966 69.26401905773673,1272.2279249053681 67.79950791108422,1272.1980219977559 70.22492245328613,1282.3348751118174 70.18676593783312,1283.0101131842239 67.1837607822381,1282.86819286237 66.107222755556,1282.8387376897153 60.66016170673538,1297.3418096681125 58.771268551121466,1297.3779568175087 52.12184035545215,1324.0819391760742 50.87024839106016,1326.539633471868 82.36364600888919,1337.1661238797242 82.73385159112513,1337.1572002701578 74.61903843551408,1355.118356084451 74.1498006755719,1355.6162523555686 77.76680533331819,1365.7680048955954 77.79651498666499,1366.057092119474 60.962501120055094,1382.369830173091 60.427436088910326,1383.2606679817545 39.49174243560992,1430.1037594677764 39.26513351104222,1430.6973744413117 14.478253226727247,1447.8035917134257 13.741628586663865,1448.7499093705555 19.303159182192758,1464.1776141377632 20.08434830221813,1464.6944387143594 12.686062079970725,1482.0989915615646 9.699659377802163,1482.7111937138834 16.76997432881035,1493.1888167831348 16.9686212267261,1493.356015973608 5,1512.823822616192" stroke="red" stroke-width="3.822751554917758" fill="none" stroke-linejoin="round" vector-effect="non-scaling-stroke"></polygon></svg>