<svg viewBox="0 0 66.76391827555132 62.37356711547115" width="66.76391827555132" height="62.37356711547115" xmlns="http://www.w3.org/2000/svg">
  <title>Vratimov, okres Ostrava-město, Moravskoslezský kraj, Moravskoslezsko, 73932, Česko</title>
  <desc>Geojson of Vratimov, okres Ostrava-město, Moravskoslezský kraj, Moravskoslezsko, 73932, Česko</desc>
  <metadata>
    <collboard>
      <support-module name="@collboard/map-svg-geojson-import" version="0.11.1"></support-module>
    </collboard>
  </metadata>
  <polygon points="8.052549999999883,9.951381279162547 10.447963617777987,18.018704985682803 11.03596717332357,18.818787235453442 9.52143021330221,19.46179862543761 9.239479777788347,19.624833451445397 16.335863493331544,28.980819500887833 16.55446246220481,29.58448196255597 10.760715973308379,41.99962427133107 10.471993484424729,42.52030746332423 13.992223315529827,40.92815085195582 14.434300044441898,40.961398738807134 15.33330832888123,46.64806772783743 15.374013466650922,46.820600351427515 38.36280436444895,49.773066411762215 38.808667617769515,49.613051345695226 37.651665946650155,46.16630327335554 37.612489982223906,46.16866984595947 39.107366142219234,37.82417430688622 39.137949608884355,37.80287189808553 37.7277605244376,35.13279154839222 37.71581840888348,35.11813837727061 40.83482228444291,33.20665488520865 40.949583102199085,33.07432067262528 45.326222817769576,35.55694279092825 45.48685883553799,35.68611495770858 46.903455884435516,39.621661944423636 46.985739973322325,39.69706316266786 47.77319142220176,53.72957167421521 47.763870746660814,53.77295282038506 53.891413928889506,53.38691574891675 53.914861253324034,53.389732725139424 58.138510817756014,45.073273858586276 58.16501648887743,44.98694850924187 57.06619622221433,41.26840538954241 56.85946655111138,40.90290498536308 50.050421786676,39.867138174354864 49.800948079973296,39.5662098610552 50.74605001777627,29.240547360451842 50.682116008894354,28.88590128589533 58.47456486221154,26.124069784571134 58.711368275551195,26.21234142670403 56.281948755531175,18.356847151480565 56.03495085333225,17.825334984117603 51.32356781332737,15.14818948231516 51.22278800889717,15.048511398031792 51.631368559995735,12.485684821971176 51.663626835571904,11.77606010405691 46.330962515530246,18.19572532011773 46.31166580442323,18.308025820988064 33.79246935999936,9.118465788567505 33.89019081777178,8.91187010838587 23.114106337779504,9.248940933051585 23.01077791111993,9.255368827528969 20.896732186643476,12.554244929422225 20.83986150220835,12.756316324659224 10.857053893334069,11.05041334839882 10.82872777779221,11.052555909329044 9.387809591112728,8.292303924979592 9.136442622205777,8.052549999999997 8.052549999999883,9.951381279162547" stroke="#009edd" stroke-width="4.929149667661284px" fill="none" stroke-linejoin="round" vector-effect="non-scaling-stroke"></polygon>
</svg>