<svg width="350.3599052800564" height="209.10031965811504" xmlns="http://www.w3.org/2000/svg"><polygon points="5,168.05694004660472 5.335835591191426,168.29208356147865 5.372244480066001,169.8878524088068 5.339039573329501,171.1493461979553 5.538269013399258,172.00322849792428 6.2055711288703606,172.75576232315507 7.278613902279176,174.44528698996874 7.84863146673888,177.26335516019026 8.563702044426464,178.33145583141595 9.699076835531741,177.79896184348036 10.517548657837324,177.27268939570058 11.75312071107328,176.6984109361656 13.388025457737967,175.99300648202188 14.697580373263918,175.4431717066327 16.545695573324338,174.4128389925463 18.955090204486623,174.11013895156793 19.77152312884573,174.60441545618232 21.19146979553625,176.1112407820765 22.310533404466696,175.75831565394765 22.943756800028495,175.40316750621423 23.197745208861306,175.29471163765993 23.887766471132636,175.27782096492592 24.46215310227126,175.10935865715146 25.08663836447522,174.65864356653765 25.678501262213103,173.66342227428686 26.094145137700252,173.16514320357237 26.29628728888929,172.7971004921128 28.487811128841713,174.14480946183903 28.86384213331621,174.9142266943818 29.333953706664033,175.09513492084807 29.87193144892808,175.55473893822636 31.20944839110598,175.75164829718415 32.55016931553837,175.81743287463905 33.68321393779479,175.95966973190662 34.696254862239584,176.27036804833915 35.70550926215947,176.55973046517465 36.92360504891258,177.3624758310034 37.61246122664306,178.00653686455917 38.38578602659982,179.05685459141387 39.37669034663122,178.6905996328569 41.773851591162384,176.97888303280342 42.54397240886465,176.61218014068436 42.85184597328771,176.7988653255161 45.01599032885861,176.224585634307 45.0899731911486,176.63529355311766 45.29823203547858,177.13578723586397 45.773877759929746,177.984757053433 46.095149795524776,178.93195460701827 46.260300515568815,180.07338671392063 46.39166378660593,180.41208155511413 46.945661440026015,181.6944057440851 45.20997688884381,183.4807576070889 45.40512853336986,184.48304624349112 45.810869191074744,184.46348943549674 46.32059363555163,185.3813241244061 47.69684963556938,186.53161228785757 47.79617308441084,186.79118189529981 50.28362837340683,188.5672698627459 50.92151210666634,189.21085377025884 50.55218033771962,190.39445657335455 50.238481351058,190.9220311458921 50.34945564449299,192.36741012637503 50.448196551180445,193.4189929504064 50.43334172444884,193.51321737159742 50.158090524491854,193.72922226105584 50.760439182282425,194.01545063697267 51.68435114668682,194.93324564618524 51.74377045338042,195.54258831392508 51.79328654217534,195.91814878565492 51.68231224885676,196.87326952326111 52.05630435561761,198.13327590643894 52.49728881777264,198.50705419585574 52.509522204403765,198.85816521168454 52.03911936003715,199.53149680118077 52.0670813866891,199.68616277747788 52.520007964456454,200.27904801699333 52.76787968003191,200.41104698798154 53.195174399996176,200.46082435722928 53.2819731910713,200.9417087219772 53.44537628442049,201.16570625733584 53.99121834675316,201.33770421065856 54.18724380445201,201.9625845371629 54.617159964400344,203.14745233790018 55.22912056883797,203.00478854682297 55.72835925326217,203.08878686488606 57.4573445689166,203.53455518232659 59.4915820088936,203.95810091600288 60.58705265785102,204.04698764055502 63.087906417786144,204.00387758360012 65.68429710215423,203.95010110904695 66.97258922667243,203.89765792287653 67.69843683554791,203.89143584913108 71.15378602663986,204.10031965811504 72.96957013336942,203.8341038755607 73.38841799111106,203.7367728165118 75.63120554666966,203.38255850912537 76.2137477688957,202.92345681163715 78.93946282670368,202.67190600943286 80.72990634664893,201.7803649943089 81.30341916438192,201.54436824115692 82.47665920003783,200.6968222677242 83.72970751998946,199.76171795639675 84.16865308443084,199.40483061922714 84.98013439995702,198.99283169367118 85.22946247109212,198.9394984432729 86.01938972435892,198.72172087052604 87.5570099200122,198.86260965128895 87.20398933335673,197.70438565145014 87.42564664885867,197.19282737770118 87.17282332445029,196.75637967791408 87.28175872005522,196.16970727709122 87.21913543110713,195.9585937213851 87.31263345782645,195.72747970290948 87.11398656002712,195.07191458472516 87.2622435556259,194.97102405154146 87.28408888890408,194.4861266167718 87.48826993780676,193.87633658142295 88.02187861327548,193.2683226838708 88.540632462129,193.39810356858652 89.4491070577642,193.07409566955175 91.03187427553348,195.0688034236664 93.97633393784054,196.61815624503652 96.25786055112258,195.656812098925 97.8050926933065,195.4999210484093 98.5688055466162,195.05324761738302 99.23436003550887,193.1785427122377 99.98263552004937,191.21937464224175 99.96778069331776,190.93936508276965 100.19730232888833,189.9873299258761 100.43847480893601,189.54642336524557 100.4981853866484,188.90017365117092 101.60472433781251,185.15242139907787 102.80505258671474,184.35726038028952 106.35885141335893,182.99894628522452 106.61924778658431,182.76248499378562 108.26347320887726,182.15444051090162 108.78484849771485,181.93842430482619 110.8429701688001,181.1423627595068 111.72027875552885,180.37918995285872 112.0016466488596,180.15650478738826 112.1242717866553,180.1067228433676 113.24479175114539,180.90101019997383 114.56250225775875,181.5970649314695 115.00581688887905,181.9548699905863 115.62505927111488,182.64336529991124 116.20468878222164,183.59143183066044 116.76771584001835,183.25896451843437 117.89085724449251,182.90249499946367 119.09526328882203,182.43401672737673 118.97904611553531,181.3463788057561 120.33869966224302,180.95523676485755 121.38378040888347,180.9072329212213 121.66835228446871,181.905977407936 121.75573361769784,182.65403273783159 122.09244302217849,183.0971754314378 123.15936910221353,182.74470593908336 124.15930282662157,182.15710737626068 124.60553016886115,181.790413078852 124.9614634666359,181.63440113863908 125.7924599465914,182.4402394053759 126.99686599115375,181.3548239103984 128.23039914667606,181.00190715841018 129.09518307552207,180.85078394360607 129.96608369774185,180.61520931439009 130.62173496896867,180.09738872759044 131.40787569771055,179.34043507673778 132.08595484448597,178.80083177163033 133.05647018668242,178.1838866744656 134.8209905778058,176.93887911050115 135.22702250664588,177.3433628800558 136.1337494754698,177.67761704063741 136.73464177770074,178.0452071360196 138.05992533336394,177.2682445216924 138.3715854221955,177.17490214732243 138.5542124088388,177.12734196998645 138.87927096884232,175.35294000001159 139.19296995550394,174.28571391571313 139.78570666664746,172.77265318890568 140.8307874132879,171.2186881424277 141.24963527102955,169.46824188454775 141.3364340622211,168.11739284556825 141.81149724440183,166.8496586267138 141.9259667911101,165.42811630282085 141.88897535996512,164.6657782366965 141.64372508449014,163.65584294020664 142.33724159991834,163.18065611773636 143.66776803554967,161.68218845268711 143.42921699548606,160.66734978783643 143.1178481777897,159.6769552163314 142.94337678223383,158.43050977762323 142.85832561773714,157.37564871052746 144.18768696882762,157.55968298891094 146.24173084436916,157.9370861381176 147.20991601783317,158.0282140102936 147.30894819553941,157.03069515747484 147.59439388441388,156.1283012275817 148.07324359111954,154.2101462201681 150.46283178660087,152.97078251710627 151.51927210669965,152.16483675129712 151.45140593778342,151.44912955217296 151.10217187553644,149.72653284290573 151.59121607115958,147.16239497932838 150.83536753780209,145.81407684332225 150.3442844443489,144.91030343645252 149.7783446755493,143.67666677280795 149.7180515555665,142.32566001504892 149.76931527105626,141.86287495133 150.01485681778286,141.44721222808585 150.30816682672594,140.90040339023108 151.30344021331985,139.77032750286162 151.9503533510724,138.8843119555968 152.31444223993458,137.58128915773705 149.9088341332972,136.86642384598963 148.66860174224712,136.39918164891424 147.7738168889191,135.96750410698587 146.21260373329278,136.34272129740566 146.4849422222469,135.7527764471015 146.5076613689307,135.16816488670884 146.56999338662717,134.86452192207798 147.10243697778787,134.02916818636004 147.81575992889702,131.26389805192593 148.0869333333103,129.91059246339137 150.64138097781688,127.08213922788855 151.09343374229502,126.7140197333647 151.6928696889663,126.26498425361933 153.365930951084,125.2117479480221 154.7439345777966,124.4008103676606 155.68153628439177,122.816272424825 158.3422978844028,120.08153949060943 161.60628195561003,118.7014890772989 163.10370673774742,116.9475143662421 164.49161358224228,116.30460912093986 166.1538978132885,114.10155517025851 167.0967423999682,113.53333708527498 169.60516920883674,112.15413499635179 170.9327829333488,111.68194971047342 171.72533162671607,110.68600003485335 173.29411783115938,109.13871216686675 173.33081799105275,108.98842903209152 173.52130929776467,108.49533956695814 173.88568945776206,107.98313004808733 174.4612411733251,107.77459996449761 175.96012231113855,106.74839787889505 176.6932516976958,105.72752660204424 176.87238343106583,104.79957897413988 176.74888447998092,104.56303396250587 177.4866742043523,103.24958205223083 177.8099851377774,102.95790040568681 178.9494377244264,102.67377721192315 178.98992440884467,101.62887656397652 180.95716949331108,101.70313136896584 182.37129073776305,101.5555110136047 183.44054698664695,101.35497838497395 185.13487104000524,100.91923058201792 186.5003500089515,100.91522881248966 189.81093745783437,101.7044652873883 191.9284784354968,101.72447406273568 193.82174065778963,101.2758324194001 194.6777864532778,100.59553165757097 195.82743352884427,100.07485560671194 197.38777287106495,99.6355481291539 195.72869262227323,103.16376721754204 196.0665671110619,103.38875318993814 195.38586652441882,104.56036616017809 194.8601221689023,105.36026078136638 194.25573461328167,106.01431365247117 195.7310227911221,107.85907912655966 198.7185905778315,105.15661917929538 199.49133283551782,104.18687351618428 200.23989959107712,102.89164949022233 201.53955128893722,101.11220471514389 202.5342421332607,99.38521361909807 202.6755086221965,98.69290160492528 204.08904732437804,98.48658597993199 204.4263392711291,98.38342809525784 205.18684814218432,98.02593229431659 205.2343253332656,98.16999783593928 205.28092871105764,99.01393544848543 204.6826578489272,102.17978437273996 204.81256476440467,102.17756118014222 205.22995626658667,101.45324384217383 205.83929543104023,100.79828818223905 206.5572787199635,101.55817885219585 208.371606471017,102.10019406396896 209.1012406044174,102.12375991255976 214.5663604622241,101.88632275699638 216.9084714667406,100.93345909519121 216.91895722667687,100.62309944158187 217.29353187559173,99.56618371070363 217.89850197336636,99.70980360428803 219.40582997340243,98.83163096848875 220.73985166219063,97.70222912961617 220.80655274668243,97.58573144604452 220.96616931562312,97.25580255826935 222.81981866667047,97.521257510758 222.47233223111834,98.66755680792267 221.44385393778794,99.57374265475664 224.2435518577695,100.40655885182787 224.24617329775356,101.03750507067889 227.45772856893018,100.90944847860374 228.4419336533174,100.39633208373562 228.85029575112276,99.9534681015648 228.874762524385,99.90233415085822 229.27817301324103,100.01482882676646 229.76284814218525,99.79873228404904 230.24402801773977,100.05662525305524 230.44034474669024,100.20691446505953 231.18541624885984,100.2242555214325 231.39017984003294,99.96058238943806 230.86006641783752,99.58085695491172 230.9264762310777,99.51238180708606 231.43940465769265,99.55640154739376 231.70271374215372,99.42345301201567 231.50523192889523,99.20513266813941 231.70300501328893,99.07084998697974 231.92728376889136,99.35186530591454 232.2782654578332,99.17578612890793 232.42623118218035,99.7453750804998 232.75769770669285,99.82630016759504 232.8858569955919,99.7146946825087 232.77896049781702,99.28383473143913 233.14013667555992,98.87253832828719 233.56277105771005,98.87075974763138 233.5528678400442,98.77516101370566 233.55869326216634,98.61064216552768 233.68568746664096,98.58485271327663 233.76025287108496,98.7160231716698 233.76986481784843,98.80939870455768 234.04307712009177,98.75381803500932 234.13191480888054,98.56528829934541 233.85345962666906,98.50970756821334 233.79666175995953,98.35319215443451 233.97608476434834,98.14554227225017 233.89394631108735,97.96101384051144 234.16162446222734,97.57950637722388 234.4429923555581,97.57239201269113 234.71736974222586,97.87430765666068 235.16010183119215,97.88186665868852 235.4269061689265,98.01970723795239 235.2335021510953,100.20646982255857 237.25783637329005,100.25982691475656 237.49143580452073,100.37276605074294 237.68716999108437,100.67334394238424 238.9137126399437,100.66934216837399 239.66693973331712,98.35630467790179 239.8449063821463,98.37497981806519 239.69752320006955,98.52660411200486 239.7636417421745,98.67733901063912 239.9902506666258,98.68400869402103 240.09219555556774,98.9427922546165 240.4487113954965,98.96013341029175 240.49939256894868,99.29139368515462 240.63599872007035,99.3025097931968 240.77726520888973,99.12554128747433 241.48476273776032,99.10108582954854 241.75127580435947,99.20246480114292 241.75739249773324,99.50704608042724 241.95458303997293,99.69201786397025 242.35478954669088,99.50259964133147 242.6163510044571,99.27449719997821 242.68276081769727,99.2753864886472 242.75674367998727,99.48436924046837 243.06228707556147,99.4945960509358 243.0593743644422,99.31540447776206 243.16190179553814,99.27316326682921 243.34045098663773,99.3105133905774 243.34423751116265,99.39766365464311 243.2533609244274,99.57774444867391 243.39404487109277,99.81696265900973 243.6707524266094,99.60975879663602 243.64162531553302,99.23181133682374 243.92677973338868,99.23003275890369 244.21339050668757,99.11976090678945 244.3633951288648,99.30740088049788 244.7169982577907,99.11442517058458 245.11370951111894,99.14777351962402 245.15914780437015,99.28161150967935 246.54239431105088,99.76671796344453 246.74919680005405,99.94946631457424 247.2545521777356,99.81607337249443 247.42669340444263,99.53817115095444 247.5035889778519,99.51905146532226 248.01098325336352,100.06107168085873 248.3607998577645,100.17756805894896 248.4135199288139,100.41100527276285 248.63925503997598,100.501712237834 248.74993806215934,101.23937190882862 249.08664746664,101.58085547928931 249.03742264886387,101.97747375513427 249.1207261866657,102.05839802441187 249.72977407998405,101.81162337446585 250.08395975106396,102.00993239425588 249.8098736355314,102.89920832047937 249.72249230218586,103.28515295835678 249.59782826667652,103.58750542940106 249.30859605327714,104.52568472694838 250.27328597335145,105.39627597964136 251.54847089771647,106.44693899451522 252.90346410661004,106.88934532814892 253.4641609955579,106.89468087651767 253.7099938133033,107.06141669803765 254.08864625776187,107.13344653393142 254.30797340441495,106.97560334426817 254.6752662755316,107.07386630098335 255.90210019564256,106.44738362444332 255.7809314134065,106.16637733281823 255.9938505955506,105.90537908027181 256.2280325688189,105.91249317640904 256.1488068266772,106.32199794985354 256.4147373511223,106.45627622283064 256.4840598755982,106.73283585207537 256.95242382225115,106.75106565479655 257.16476046224125,106.5603195966687 257.23495680000633,106.55943033721996 257.3936995555414,106.84132538712583 256.9133934933925,107.39355407928815 257.38059235550463,107.88086585258134 257.8809961244697,107.91421287797857 258.02634040883277,107.44068464444717 258.2911058488535,107.43134745792486 258.38402133330237,107.81639492232352 258.5273267199518,107.80750237882603 258.5928627200192,107.4371276210295 258.52470527996775,107.36109623144148 259.57211619545706,105.84935556509299 261.5914988089353,105.73375144123565 262.20928483561147,106.1588186143199 263.4815570488572,106.70171179540921 263.6787475910969,106.70082253654255 264.2330365155358,106.83020965848118 264.6958663110854,107.14767464692704 265.0337407999905,107.3637639998924 265.5117166932905,107.48381354910089 266.39980231109075,107.56073415186256 267.3842986666132,107.8915369012393 269.70077781332657,108.29214548156597 270.23642538662534,108.34594524669228 270.56789191113785,108.51267997262767 271.53665962663945,109.41749155736761 272.04987932450604,110.36187080136733 272.362121955608,110.548167359957 273.18671047105454,111.3044675270794 274.3771355021745,111.75664575502742 275.58212408889085,111.97317521797959 276.5899221333675,112.09099916915875 277.7809297066415,111.8429018704337 279.6954547200585,111.14351497474127 280.47314858669415,111.16485675639706 281.39385656884406,110.85584534180816 282.2097069511656,110.64820721326396 282.22456177778076,110.69489246257581 282.2959231999703,110.67310601403005 282.95739989331923,110.47213704115711 283.97073208889924,109.68915662181098 285.51359516440425,108.87816205155104 287.30199978663586,108.05071331653744 287.3960803555092,108.33838660281617 289.50633955560625,107.71413064969238 290.9530831644079,106.8782296020072 290.9956087466562,106.91646769770887 294.10784056887496,104.2402296467917 295.9352755199652,103.3211684950511 295.99178211553954,103.4016476359684 295.8537196088582,103.46567521878751 296.36868693330325,103.54971139319241 298.83517070219386,104.36517186899437 299.2202311111614,104.55325202044332 299.9315151644405,104.96587174426531 300.69027640891727,105.50921248929808 301.66253937769216,106.49362513184315 302.0542990221875,107.09743161889492 303.54997617774643,108.56069955037674 303.49026560003404,108.62072400783654 303.8808601599885,111.32803239364875 303.8872681244975,111.46097376383841 305.13711246219464,111.21420961851254 306.84017464879435,111.13106560113374 307.9443834311096,110.88919191813329 309.32762993779033,110.92209386854665 310.5372788622044,109.96348908910295 311.79760896007065,109.38458938291296 312.5412241066806,108.65006929222727 311.65197340445593,108.51134609535802 310.18454954668414,107.7794908641954 309.45811939553823,107.31618879007874 308.6734350222396,106.8897899572039 307.03008341335226,108.26457865466364 304.3393208888592,106.15615083125886 302.81597297778353,103.89119139168179 303.76260408887174,103.7080016664695 304.9643886933336,103.50213536189403 307.0394040888641,102.35408260236727 309.39520483557135,101.98636653344147 310.73301304888446,102.18156292679487 311.1515696354909,100.71380631957436 311.16875463118777,99.78806084441021 311.0315659377957,99.07663036894519 311.4582781154895,98.89654916641302 312.04023779556155,98.8165130292764 312.4809309866978,97.90943478146801 313.32474339555483,96.3660592600936 313.8303900443716,96.62217763834633 313.4529026844539,95.23797877121251 315.04615566215944,93.94848278304562 316.28318407107145,92.43175907351542 318.77588224003557,91.74476117797894 319.34123946668115,92.21209784282837 320.9379876977764,92.7167847576784 321.3877102932893,92.79415516072186 322.31803022220265,92.67765488836449 322.87290168891195,92.71722941519693 325.9959105422022,93.69280596007593 326.21873294224497,93.03560400288552 326.8350626133615,89.97234120528447 327.8664536176948,90.00213363044895 329.1489203199744,90.20134257897735 329.67116942221764,90.47080796887167 329.07464618666563,92.14762233896181 328.2652037688531,93.82264535757713 329.9793342577759,93.7497218697099 330.09234744892456,92.38151269790251 330.78207743994426,91.59935746592237 331.99988195556216,89.90742038434837 332.28241493331734,89.38760846538935 333.32283534214366,89.22174863074906 334.02596380445175,88.70237976370845 334.5167556266533,88.05716896505328 335.10949233779684,87.4648717965465 335.49338766222354,86.43457331269747 335.91077916440554,85.8845155723975 336.83090460440144,85.08588443434564 337.63597795553505,84.56250377575634 338.04230115551036,84.12049739377107 338.40726385777816,83.11419586266857 339.15961713774595,81.39995976223145 339.5266187377274,80.69558496307582 342.83924508444034,81.97404134925455 344.8708610844333,82.62594008725137 345.3599052800564,80.35984997218475 345.1665012622252,78.66026712744497 345.1257233066717,75.99569333810359 342.00853987550363,75.59280271420721 338.6726118399529,75.35622642049566 338.58989084442146,74.57134272850817 338.8622293333756,73.2323647341691 339.1234995200066,72.52618509286549 339.23330872890074,72.37276415439555 339.3142820977373,72.23624166438822 339.3244765866548,71.88492933148518 339.65011768892873,70.86834391363664 339.58720312884543,70.41430315806065 339.70662428438663,69.72946029168088 340.4455790932989,68.19077961257426 340.80617272888776,66.95626967528369 341.0610349511262,64.8736855785246 341.1434646755224,63.593351334682666 341.40589994669426,62.365041759680025 341.732414862141,61.4133417364792 342.4573886577273,60.976180958678015 341.58386659552343,59.5721907975385 341.05841351114213,59.034518460859545 340.7674336710479,57.636297422344796 340.0075073421467,54.38442087301519 339.73982919112314,52.91590184625238 339.29301930672955,50.3653163658455 338.27677440003026,50.438698922866024 337.4917987555964,54.874518023571 335.6267898310907,54.46714152098866 334.2027653688565,57.72880086884834 332.70679694227874,56.71971069741994 331.5283140266547,55.77954937668983 330.563915377832,55.76798634591978 329.72680220438633,54.96835682762321 328.6741484089289,55.893845455837436 327.8411130311433,56.542263337410986 327.12342101335526,56.985214375949 325.892509297817,57.296524815261364 323.6237986133201,57.77772094507236 319.5716349155409,58.982930310070515 319.5113417955581,56.94830182334408 318.6619952354813,50.98439753672574 318.5915076266974,47.7021801591618 316.40639175113756,47.886750587960705 314.5113819022663,47.447784038144164 313.61193671112414,47.63680216303328 311.5954668088816,47.46779772953596 311.29137976886705,46.87894969328772 307.684860871057,46.44665240123868 306.3502566399984,46.10152556060348 303.73318570666015,45.77463301701937 303.0807384176878,45.83111652510706 301.02931598224677,46.162456498190295 302.3866393599892,48.39598627248779 303.0463684266433,49.90812024916522 303.4861878043739,52.19364662852604 303.7014371555997,54.56854098266922 303.660367928911,55.82846988469828 303.35336817777716,55.83914344874211 301.4437947734259,56.319898023153655 301.701278435532,56.94118614983745 298.1801019733539,57.128861961711664 297.3488142222632,57.22625764016993 297.2987155910814,56.77574667625595 297.27395754668396,55.15825798199512 296.9952110933373,54.075774740893394 295.7625517511042,51.498962965095416 293.6951094045071,49.933915385976434 292.5343940266175,49.654616157873534 290.7649220266612,49.13515423354693 289.0470050133299,48.13314075139351 286.83247075555846,50.188308643060736 285.2467908266699,48.56632423494011 284.04588003561366,47.5033776210621 282.87293127109297,47.09331902419217 283.06196622224525,46.39239280478796 283.75548273778986,44.38967066840269 284.19471957325004,43.46635761047946 284.9191108266823,42.62665529269725 284.7892039110884,41.71045102790231 285.66272597329225,41.5485582286492 285.9443851377582,40.94902012532111 286.1779845688725,38.40007549303118 286.2787643732736,37.871246966009494 286.2825508977985,35.85243575490313 286.5178979556076,33.514256588649005 284.8585264355643,31.48117255710531 284.9342569244327,30.81978240190074 285.10727196442895,27.849062041612342 285.13319509325083,24.75286972167669 285.05484316439833,24.155509994365275 284.899595662253,23.63109532010276 284.42249358224217,22.6534300322528 283.7496573155513,22.387885073258076 281.05423445336055,21.951091832946986 280.5040233244654,21.777174935676157 279.6360354133649,21.219839301134925 279.5300127288792,20.552191170398146 279.9389573688386,20.563311242382042 279.7944868977647,19.730638701468706 279.7825447821524,17.43632493179757 279.84837205323856,15.154886922740843 280.06391267559957,12.035385961062275 278.68095743993763,12.457074963953346 276.9621666133171,12.001579634845257 275.34444686223287,11.965994022670202 273.8630419911351,11.923291280516423 272.8150485333754,11.611916869180277 271.0237312000245,10.83303409756627 270.74236330669373,10.919329639873467 269.4738776177401,11.546973008080386 268.2674326755805,12.252458037808537 266.8268057600362,13.025553168030456 265.06170282664243,13.712795991101302 263.6630189510761,14.106903208070435 263.73874944006093,12.398803641321138 261.2148852623068,12.476647007861175 259.4911428266205,12.08209206117317 253.1924050488742,13.32313624524977 252.61335808003787,10.982494396914262 250.52785692445468,11.480249843210913 249.12247381336056,12.010031216836069 249.32257706660312,15.209599008900113 247.09522688004654,15.201147549320012 245.57362659554929,14.869761115987785 244.05319139547646,14.131812895648181 242.8616012800485,13.855137279257178 242.0014776889002,13.776404765550978 240.29142499552108,13.413878987194039 240.40502072894014,13.225276383687742 238.8356519822264,12.571838287403807 235.92905756446999,11.085248294111807 235.08582769776694,10.849492528301198 232.11398855107836,10.425576338777319 230.82161863113288,11.002956215757877 229.36322417773772,9.745440479251556 227.05053155554924,8.47857620974537 227.31937479111366,7.826903380453587 227.6342388621997,6.648994300980121 227.75220366218127,5.979967614985071 225.09493731555995,5.61520487110829 224.59598990227096,5.425261106109247 222.2617432178231,5.332735746866092 220.59479864884634,5.189944130834192 219.03358549333643,5.202399477944709 218.44434403558262,5.354532589786686 217.59616256004665,5.166367936122697 216.06436778663192,5 215.96125781326555,6.124982879846357 215.15181539556943,6.2477564653381705 214.0411986488616,6.1512279636226594 213.3325360355666,9.008364785346203 212.5766875022091,9.28727060277015 210.00767630222254,11.545638544950634 208.94191530661192,12.194186661101412 207.74770375108346,12.58206912339665 206.81884017772973,12.663915794459172 205.66220259550028,12.558493717981037 202.89600085339043,12.327187719754875 202.99707192892674,15.789635251509026 202.98979015112855,18.19561287626857 202.33821667556185,18.267226894502528 201.19847281777766,18.167145185521804 199.15287580445874,18.212515565915965 198.5219825777458,20.83864404668566 197.17164970666636,20.853767324821092 195.3707204266684,20.68029436597135 192.81161244446412,20.69274883932667 192.3863566222135,19.055424367601518 190.18376447993796,13.224386748392135 189.93822293332778,12.539366500393953 189.6856908800546,11.88637119467603 188.1582651733188,11.137292457511649 186.04334563552402,10.292574134771712 183.94677617773414,9.264139671227895 183.4795773155056,9.974080236745067 182.70363107556477,10.633753540925682 179.79150250658859,12.499332783860154 179.59897230216302,13.227055654220749 179.50314410671126,13.973903221369255 178.46097607107367,14.259030184941366 177.43337159103248,14.241237561451271 177.72930303995963,13.65541463327827 177.65095111110713,13.239955365716014 176.82199352886528,12.67548108252231 176.20566385774873,12.469974720384926 175.343792640022,11.969107763958164 174.174339128891,12.865863429149613 174.57541944889817,13.177680889959447 174.39687025779858,14.067759407567792 174.00045027548913,14.460086730425246 172.35709866671823,15.029449405672494 170.22412031993736,14.613992723287083 170.9703569066478,15.736257746815681 170.8363721955102,16.004034765297547 170.59665607102215,16.02138243470108 167.62976853339933,16.392355346411932 164.70628039108124,16.6049750316306 161.1137425067136,16.322964777238667 159.53243164450396,15.935978510649875 157.6860640711384,16.07209099899046 154.38887509331107,16.114348126924597 153.84507192892488,16.286045427026693 154.12207075557671,17.760590577265248 154.43547847110312,19.1261484954739 154.60470698669087,20.657609430490993 154.54150115547236,22.847806960577145 154.2787746132817,24.003389835357666 153.8610918399645,23.998052284005098 153.50894506671466,23.905534707009792 153.1567982933484,23.904200318618678 150.2213680355344,24.14527969446499 149.24473599996418,24.600305179483257 148.739089351031,24.25558898912277 148.56083143106662,23.983374017174356 148.20285923557822,23.578164507693145 147.89090787549503,22.84513817098923 147.7965360354865,22.00980543490732 149.47047111112624,20.148754579247907 150.64516750222538,18.264113242039457 149.99563292437233,17.914049461483955 149.50833635556046,17.51461133151315 147.76012714661192,16.500444458797574 145.12470613326877,15.425333525519818 144.73702428443357,15.990690403268673 144.17778375104535,16.633442923775874 143.92729059560224,16.457742593600415 143.724274631124,16.33097138244193 143.33688405330759,16.095221217372455 140.7635037866421,14.449411166249774 139.22588359110523,13.421885697927792 137.9839035733603,12.359659538022242 136.94231807999313,11.738245968997944 136.35773695993703,11.446888253209181 135.88791665772442,11.478470558533445 135.1346895644674,11.329455416300334 133.64542037330102,10.002548983786255 133.5481358221732,11.228480919497088 130.99776597332675,13.684327722410671 129.95763683551922,14.44229412311688 130.49095423996914,15.175348354910966 130.80144924437627,15.987576718674973 130.56581091554835,16.506227002479136 130.56581091554835,17.17522179574007 130.6153270044597,17.612024483270943 130.441146880039,18.028809948824346 130.0423967288807,18.517653371731285 129.95909319107886,19.02606717584422 129.98851157329045,19.41349283210002 130.20113948441576,20.257731459918432 130.40619434660766,20.519720556912944 131.45447907561902,21.648627575777937 133.54231039993465,23.505217821104452 133.7566859377548,24.271156828617677 134.6875884088222,25.250149334431626 132.8502502400661,27.958035122137517 133.74561763554811,28.5798478340148 135.81859413324855,30.27003090654034 135.75072796444874,30.596501619846094 136.41278720006812,31.001253468857612 137.51786979555618,31.24944159842562 137.622727395501,30.817558490904048 138.50527886219788,28.452638795017265 138.75781091547105,27.958479910041206 139.01704220438842,27.189884955296293 139.60803128883708,25.904439497971907 140.05309354665224,25.307082885876298 140.20717596448958,25.051771376281977 141.30934584885836,25.68070895317942 141.98334720009007,26.008520827279426 142.93026958219707,26.149964606389403 143.46912113775034,26.34255929198116 144.57362119108438,26.81003437761683 145.1072298666695,26.990619159885682 145.7509390221676,26.92968293215381 145.5426801777212,27.93446135823615 145.04052878217772,29.749633812578395 144.58701966225635,31.333060475299135 144.26021347555798,32.470363012864254 144.15564714663196,32.81417682336178 146.49484544002917,33.50714015995618 146.75058147555683,33.56762979604537 146.7864078222774,35.81640921405051 146.69931775995065,35.936497660703026 145.95453752879985,35.430346654262394 145.07140351994894,35.1857214110787 143.8926293333061,34.79476523242192 143.57397873781156,36.24383483233396 142.3873402311001,37.581258035148494 141.51265308447182,38.51927300111856 143.34620472893585,40.13821786089102 142.31830897775944,41.492518385872245 142.00956159993075,43.05139918404166 141.6614926222246,45.692798617412336 140.87273045338225,47.61545424174983 138.35556551115587,47.13290172023699 138.5949903643923,45.185780465835705 138.7447037155507,44.213992421515286 140.43291107553523,41.683765409805346 139.30365297780372,41.51119833497796 137.91807630215771,41.1914151776582 134.90254648891278,40.92011060594814 134.51049557328224,42.26195307949092 132.10459619550966,42.018224923405796 130.9922318222234,40.48290925857145 129.48869034671225,38.948917217087 127.91087473777588,40.24229248147458 125.21661696000956,38.47524109337246 123.36879303108435,38.10119190585101 122.76586183113977,39.17174478864763 120.2862708622124,40.74531912326347 119.78907107550185,43.25242951588007 119.4736244622618,43.19060826068744 116.84606776887085,43.6438154776115 114.0990899199387,44.10191407450475 110.60616675554775,45.30141628708225 109.71749859547708,45.515342396800406 108.13414883555379,45.883152500086 104.76472462213133,46.56228756217752 103.23059967998415,46.52937602257589 102.3943603199441,46.465331931307446 100.03535559109878,46.63300288084429 97.88227953785099,46.64990339393262 97.15526684443466,47.00659286766313 96.80224625777919,47.07597379561048 96.71020458661951,47.3681740029715 96.24562716449145,47.36506076075602 95.33744383999147,48.22297969565261 94.62237326218747,48.68507150968071 93.20300913776737,49.13915694132447 91.5203359288862,50.18119275174104 90.75545799115207,50.1785242924816 89.1062809600262,50.68775469227694 88.88491491554305,50.77759259729646 85.65064049779903,49.587459762056824 83.66854058660101,48.68507150968071 81.68003271112684,49.00128585123457 77.96195697772782,47.61723323527258 78.74751516443212,46.31411664222833 77.16707811551169,45.50822635483928 76.33841180452146,45.25516196584795 74.9473009777721,44.374549001979176 74.19756913778838,43.91378243570216 73.78192526218481,43.6393679138273 72.60752014222089,43.33337530575227 71.5944792177761,43.92089852888603 71.13834865775425,44.294048348849174 69.53344483557157,44.36254061909858 69.17896789335646,44.54444531182526 68.7560422399547,45.69235386518994 68.6104066844564,46.16734876250848 67.69115505774971,46.86916519596707 67.28687075548805,47.31391463300679 66.70986268448178,48.28702327719657 66.88113009778317,48.77446548338048 66.41218360885978,48.97326687723398 65.86634154664353,48.9528085765196 65.73934734228533,50.05177243833896 65.55089493328705,51.02709272596985 64.64271160890348,52.24612584337592 64.23697095108218,52.88388072891394 64.03045973333064,53.55676795251202 63.50850190222263,56.065067097893916 62.749158115591854,56.61875695362687 62.55837553774472,56.09931141033303 62.20564622222446,55.687045113765635 61.900102826650254,55.7666521500214 61.40785464888904,55.421539874514565 59.23555470223073,55.33570645423606 58.80884252442047,55.25565452949377 57.97755477332976,54.89319684082875 57.4465675377287,54.68061401776504 57.06558492442127,53.98460397089366 55.83409066661261,53.214765383221675 55.68379477330018,53.15739428915549 55.65350257779937,52.88165704003768 54.81376796436962,52.70331711973995 53.88548693340272,52.56589299318148 53.79897941334639,52.533427086658776 53.10954069334548,54.29147129075136 52.19524067558814,55.22585741686635 51.32667022221722,55.358387827523984 50.77383765333798,56.177139373496175 50.314211840042844,56.79309114301577 49.839731200016104,56.8855949427234 49.19340060441755,56.878034537425265 48.651927608880214,58.02854734752327 48.07317191106267,59.01139273960143 48.89047864894383,59.29735100734979 49.08592156448867,59.40630857023643 48.50862222223077,60.256175715941936 47.7236465777969,60.343341392232105 47.25091356446501,60.40871562680695 45.80271359998733,60.606617103214376 45.58163882663939,60.83475948416162 42.41086151113268,61.4804945361102 41.08674304001033,61.787351440347265 40.86304682667833,63.58712530764751 40.688575431122445,64.38805776374647 40.269436302245595,65.68528645683546 40.212638435536064,65.87562310777139 39.97874773328658,66.62673973914934 39.9382610488683,66.75615033949725 39.7707801599754,67.24799887102563 39.73903160891496,67.55217951233499 40.25225130666513,70.73715691559482 40.346914417808875,71.3241625383962 40.37545898661483,71.5202754328493 40.429926684475504,71.68614856142085 41.59996273776051,71.48870171332965 42.49533013335895,71.51805193163455 43.06709532439709,71.45935149106663 42.95233450667001,72.11172596475808 45.11910030222498,73.32886391784996 46.163015964441,73.67439290718175 46.65176888892893,73.88784683903214 48.56046847999096,75.08451912377495 49.893325084471144,76.11442586511839 50.800052053295076,76.58001684420742 51.70910919108428,76.854390438064 51.62289294216316,76.94777521397918 51.1990934755886,77.72375670576002 50.8679182222113,78.10085159813752 50.361980302259326,78.88038652203977 50.18022712878883,79.15698068251368 49.37952284445055,79.11829309572931 48.87824526219629,79.74262987589464 48.45240689779166,80.47235460212687 46.880999253247865,79.93473314552102 45.497461475548334,79.69994023774052 44.853461048798636,81.49334261624608 44.575879679992795,82.4418433670653 45.461343857692555,82.7437796946615 44.18703274661675,86.08061553828884 42.599896462168545,89.91186701651895 42.67475313774776,91.27608954289462 43.072629475500435,92.42064261971973 43.184768853359856,93.09429870918393 43.2797232355224,94.36423489806475 43.080493795569055,95.98499369283672 42.74378439108841,97.70978813752299 42.756309048854746,99.06195709126769 42.83291335112881,99.41678335086908 43.2013713066699,100.09530917240772 43.495263857766986,101.15355629310943 43.3245789866196,102.99391599569935 41.96201272890903,103.57772344414843 41.208494364400394,104.2900286904769 39.9976803555619,105.1415016730316 39.185907768900506,106.01431365247117 38.35811527108308,106.52786162629491 38.031891626655124,108.3010380056221 38.426272711134516,109.50330396241043 38.00480341329239,109.85944731824566 36.70020010659937,110.62908848922234 35.161706097773276,111.4680876811035 34.84713329770602,111.78198905021418 34.96014648897108,112.36088247329462 35.057431039982475,113.76676018431317 34.97034097777214,114.29318394436268 35.00908003561199,114.77381129859714 34.94179640884977,115.82932043011533 34.86752227554098,117.3387697545113 34.78451000887435,118.67303433886264 34.93072810664307,119.27769674162846 33.53786965331528,119.5689122347394 33.139702044427395,120.0295209941687 32.89678193780128,120.44300101220142 32.9719298845157,120.86892908171285 32.93435591110028,121.5442768111825 33.488062293385155,122.47348788951058 32.509682631120086,123.0047814626596 32.142681031138636,123.55030081426958 32.531819235533476,124.48217101587215 32.11326264892705,124.96677753445692 32.30521031108219,125.20996957935859 32.34482318221126,125.62966417893767 31.692667164374143,126.37213042622898 31.494311537826434,126.71490891161375 31.582857955479994,127.79214574740035 31.52198229334317,129.34152587642893 31.578780160052702,130.68283126072492 31.29129557334818,132.59229902201332 31.260712106595747,133.19514501991216 30.95079964445904,134.38705029594712 30.599235413363203,135.91326649836265 30.474280106602237,136.99668243643828 30.460881635546684,137.26875815243693 30.37146140448749,137.9934026239207 29.301622613333166,140.08285496896133 27.398165902122855,141.60102975484915 25.59665408008732,143.45839016296668 22.914920959970914,144.19724005734315 21.55730631109327,146.19905740767717 18.87557319109328,149.6967484720517 18.09205390221905,150.56449446827173 17.1331894043833,151.66606464993674 16.128886613296345,153.42287546256557 15.566733368905261,155.03475487499963 15.400126293301582,155.44239046931034 14.701949439942837,156.83021288365126 14.111542897764593,159.13819292956032 10.867947804392315,163.10508842777926 10.475896888878196,163.62650496209972 9.25925745780114,165.28898424556246 6.937535431119613,165.38455419847742 6.5137359644286335,166.02376054122578 5,168.05694004660472" stroke="red" stroke-width="3.1618507182316296px" fill="none" stroke-linejoin="round" vector-effect="non-scaling-stroke"></polygon></svg>