<svg viewBox="0 0 161.36892079999893 178.32039297588858" width="161.36892079999893" height="178.32039297588858" xmlns="http://www.w3.org/2000/svg">
  <title>Ústí nad Labem, okres Ústí nad Labem, Ústecký kraj, Severozápad, Česko</title>
  <desc>Geojson of Ústí nad Labem, okres Ústí nad Labem, Ústecký kraj, Severozápad, Česko</desc>
  <metadata>
    <collboard>
      <support-module name="@collboard/map-svg-geojson-import" version="0.11.0"></support-module>
    </collboard>
  </metadata>
  <polygon points="8.052549999999997,91.9240247900085 14.940092328884589,96.78424405397493 14.95800550221577,96.80181322288229 11.661763155548783,97.63054327347311 11.2785960089019,97.63077293225035 11.81548148443801,100.61946943501937 11.706182000001377,101.33320464791143 15.648682124424909,102.00571002852632 15.87449005331257,102.0403856805857 15.124758213328846,104.5378925900219 15.21315899556032,104.83262109177997 18.571296453337368,110.2960012883774 18.675280239992958,110.8979071182763 21.351042302215888,107.61977528101818 21.704208524438968,107.40439479539748 27.989766284452003,108.34076553426678 28.082681768871794,108.32698874071468 30.097913768876992,105.35031521367603 30.085753200000568,105.01528995511 37.674457911117884,106.48132583473455 37.953859724460585,106.43356462305348 38.10539351998125,101.60360862130585 38.388217768900745,100.70581628190814 35.97518224889757,95.79519396604849 36.183441093314855,95.50282760992525 28.723696666660203,92.471127075965 28.104235831102073,92.1516402268677 36.31480436443928,94.60412990491716 36.37356831110776,94.59666557559797 51.26028916444159,86.44994030432247 51.333179760003645,86.39216912142695 55.90955863998499,91.94412205441733 55.927398995561475,92.14830983637478 60.79970932444087,90.42842278627325 61.3411095022235,90.23823960181437 62.820475475549415,92.44448410406005 62.95948461333285,93.02844450249506 59.350125822216455,94.92681761648385 59.25815696889879,95.08919426175237 58.69287256000791,102.80749266836904 58.63818640888314,102.86053872961895 61.75354939554347,104.32100720665005 62.07409325332958,104.56613699609409 58.89574288888946,106.75422983188002 58.82933307553287,106.97167948364915 61.43205890668435,112.8636115532787 61.19226996444161,113.81412215214334 64.30493869333407,114.02672199033952 65.03741272001173,114.10524137323193 65.30487241777121,116.7465944062784 65.16564482666547,117.50660515641323 71.28372169778561,117.21274937660894 71.47122747556534,117.09245170519682 73.6598386044567,110.64247393640801 74.47270345778782,110.75704591313081 79.81920315552964,112.38869436996868 80.21023462221603,112.1938818341365 82.28656073776767,114.91304306963104 82.4291379466664,115.16076497015422 81.98167270221859,118.30563225532353 82.07480663998979,118.5013410111493 87.3688047200045,124.56899343486987 87.67289175998997,124.96977606011899 94.95277627555299,125.39052575168137 95.2621790133195,125.36929323533661 94.55373485334678,128.383308834054 94.50174295998988,128.89285846806126 99.41679732443993,127.6908185804856 99.66073687998107,127.48309272522567 97.62103810665542,130.4336430312029 97.70776408000495,130.58776497239126 103.34750096887694,131.08616225084518 103.82358360000183,131.08719507489116 104.0647560799913,127.23921466500144 104.06548425777112,127.23531260708808 105.81063512000367,127.48768336050091 106.14923778665946,128.43851027671883 101.6322053955588,149.483361190643 100.6302327733207,151.08837263863063 81.0024192266643,154.2184149611636 78.60802505777212,155.58366501708917 73.50896016887384,161.13951649447665 73.31504642667244,161.923790870576 75.89439775111498,168.3591588760679 76.1448180888907,169.2937849092483 78.97488102221507,170.123581658008 79.38761218664115,170.26784297588858 81.59064123556129,166.12057775297546 81.71880052446033,165.9459140631003 85.19919903108496,165.91644022650837 85.34366950221704,165.7934986023098 86.43462544886972,161.71241181118933 87.28171465776506,161.3495214693463 91.42351703998395,161.77732809435804 92.25145517331077,161.67444836562902 93.61249225779432,164.78116919610295 94.6886661955574,164.9269357077643 93.8540288266446,168.5950531321647 93.76621058665444,169.01855929135456 98.95513261331473,166.28021734837205 99.10892375998776,166.27494190951222 106.06112827553409,169.95569677744754 106.09710025776405,170.012002488838 108.76434264000966,164.8799142953718 108.90925001775724,164.80364777114994 116.98029968888261,165.7545058645261 117.11544948444464,165.8053111026162 115.55642086221599,159.93452404636594 115.69812425776729,159.77647145259073 123.65237421333552,156.09720208367037 123.8451228711125,156.04707594225295 127.3285069066402,157.59649131558365 127.61934111110861,157.4525402504729 128.40955963553972,148.07883665289376 128.4461141599819,147.83470744857152 126.50435529778008,149.67505651128124 126.36840450665443,149.7558184294245 127.34955124444207,147.29791759528564 127.52285755554442,147.05688241564314 125.43910402665608,147.21187469890685 125.13967732445565,147.06801066990704 127.39768379554846,139.25151055900608 127.36586242667511,138.39083243333846 129.1759667466755,138.6253660009894 129.42784344001086,138.47287340091827 116.05580518220779,138.65129773211777 115.51331273778453,137.46312973966235 117.06447704000277,130.45166028757342 117.11544948444464,130.2815863288921 118.76994221332245,129.22073504733964 119.0662377511104,129.1840111333073 118.72129993778765,131.29456278788678 119.47365321775544,131.71549269642094 119.80446438221372,128.67377566757898 119.84480543112261,128.26257699967357 124.93396710220952,130.92125442749932 125.17404731555837,130.97209245320812 129.05166679999786,129.41169899759518 129.32808308443748,129.23680175186712 119.72210747554311,122.6290808310365 119.43280244444725,122.52245362863289 120.84779750221753,120.93208792103508 120.95367455110647,120.76668995194598 131.12690064887977,119.9882452370581 131.30064386665583,119.80849660178467 127.68007113776514,109.98545979802259 127.54907195555973,109.80694068319974 128.74575931556285,107.1705291901668 128.784644008883,107.02965825552349 124.6089813599898,100.78435504927586 124.57126175109408,100.75208986775363 127.44224827556866,97.38687476394227 127.43540340444417,97.30546029943037 122.43821058664582,92.04656056580245 122.43180262222415,91.94515562779964 127.06425119110611,92.34262055137481 127.48244368888083,92.11523560246098 128.13197826664657,87.7498329902952 128.188776133327,87.57342246045994 131.28629876443995,90.13797971839779 131.3438248089002,90.1788646418205 133.5572668000019,84.29272465897486 133.6393324355373,84.21025671179052 142.32336215998623,86.2853554394311 142.96881894220826,85.90208783106175 136.917370337767,82.83940962670715 136.58320955554484,82.64632815609332 142.55805385777023,79.0547260155796 142.90080713778264,78.88242234544998 141.03507003555535,72.39145708997205 141.40265417777812,71.59783866012697 135.7951755644532,74.58809249741137 135.6539818933303,74.86908443377581 133.5526792800007,74.06056811403653 133.3329152266739,73.89560080634658 134.47906704887976,72.82927488283133 134.57540496890545,72.79021492499271 132.495656417777,70.01929827222887 132.01687952888426,69.23564035703714 138.54273595553934,60.3132466762396 138.83968685332331,60.110432177105054 144.82341492444505,60.727951116459394 146.1361738222255,61.79807837840747 153.30843366223382,56.686371648109 153.31637079999894,56.342080486290456 149.22044361776318,55.76852514211316 149.0651232977758,55.6439533093577 144.2107261421985,46.168295848248476 143.8346223199984,45.85508618498682 130.1071604888781,49.558084997530045 129.89810064886808,49.557050611627005 125.03474690666883,42.779098217557134 124.99491558221746,42.76404026107741 122.27830274665723,52.001134231984565 122.224781679986,52.289943905175846 116.53196063111648,52.15180274230772 116.42965165331373,52.067676669459274 113.09299544001226,57.166261136000344 112.72482875554817,57.88447856510868 113.62259913777928,59.67986538357911 113.69541691555753,59.76857598353638 100.2427693777787,61.115304475657126 99.98040692441975,61.20723010911718 99.38169915555738,52.704939895854864 100.1425721155316,51.51913008314261 97.14641183111928,52.914218025172545 96.66923693332467,52.763896419702746 93.39454864888796,49.38947983150831 93.18905687999325,49.336151298462596 88.82727199112526,52.97133552839625 88.34769410666888,53.17475149720087 86.66269072888065,50.55453421248933 86.51239483553911,50.44971827581287 81.56042185775698,51.51935993829795 81.25815526222107,51.464424523619186 74.9415771288983,47.74316692123068 74.84902573333932,47.88120444265189 74.86278829334299,40.50265528978309 74.81960735109863,40.3144800604565 71.11107074665017,32.230026767887125 70.98873687998969,31.889028501005328 73.31460951999873,28.00809552992689 73.3585186399938,27.867707561068187 64.18580880889897,10.0723833672306 64.02488151999535,9.809571225610512 58.687411226659265,8.107299627539419 58.548474906659635,8.052549999999997 53.73900631999243,11.509028753723783 53.64550829333132,11.709150843096381 47.682460471121544,9.821762976942068 45.94786818666728,9.209411604918955 36.6319986044324,15.923388456117777 35.97860468444526,16.360859956133595 21.169507582213214,18.882807023000737 20.998094533344215,18.915121219811795 17.229046355561536,22.377802896407616 16.381811511127694,24.078474038025547 19.37942815109966,33.67378447426711 16.2814686133421,39.97744129476598 15.645769413334733,39.84869468902582 15.505449555559267,41.778252220632226 14.943951671105992,42.78599499012455 16.613007955551097,43.592451512296634 16.639003902214995,43.74889072651388 11.676035440009969,44.519700682714415 11.546929519979699,44.55774663884188 18.706519066654096,50.644294189354355 19.449551671110044,50.85449974766345 27.29785176000553,47.96418769512786 28.806417662220724,47.9549928811972 29.424130871084003,53.3728802117181 29.469569164451627,53.75258657227789 35.44725335998339,53.91301860157512 35.49123529776227,53.90210096428166 39.23567106665689,60.941449692959964 39.64723714665854,61.107490789588724 36.378155831108984,63.88713818114013 36.28968223112281,63.8841507489484 34.99083152888454,67.47090352526686 34.37246295999614,69.80480162823335 34.59397463998869,77.82182370153134 34.717036684458094,77.90016604534287 32.692993733311255,77.73486586407637 31.914280417789655,77.62378477666755 30.942454355542964,82.07500511100045 30.83322768886103,82.20100912531018 24.152706302214597,81.55088498176303 22.645523937775238,81.40420394602518 23.18029769775569,77.77277352510248 23.27699970667129,77.50121623796406 16.425647813309865,76.16994544488955 16.3597477244399,76.11112937547261 13.680854497775385,78.91424113128562 13.618886568881521,79.49903720698023 15.562101786672088,85.9102424893714 15.521760737763202,86.31119747865125 9.351109431103055,85.84259324437119 9.118675084442316,85.80170503477677 8.052549999999997,91.9240247900085" stroke="#009edd" stroke-width="4.9861765671800935px" fill="none" stroke-linejoin="round" vector-effect="non-scaling-stroke"></polygon>
</svg>