<svg viewBox="0 0 51.85806893511035 54.32800614012522" width="51.85806893511035" height="54.32800614012522" xmlns="http://www.w3.org/2000/svg">
  <title>Liberecký kraj</title>
  <desc>Geojson of Liberecký kraj</desc>
  <!-- Generated from maps/2-geojsons/world/europe/czechia/liberecky-kraj/okres-ceska-lipa/okres-ceska-lipa.geojson -->
  <metadata>
    <collboard>
      <support-module name="@collboard/map-svg-geojson-import" version="1.1.4"></support-module>
    </collboard>
  </metadata>
  <polygon points="2.527235142496471,25.47742627763347 3.924819469608889,25.661264420376224 3.9807653682741204,25.671314747418922 4.227333645606819,28.027754639138415 4.225214648275693,28.06829411716591 3.7239079389399254,28.911012310691707 3.720172386939345,28.934383877087214 5.153299071383486,30.535210079639924 5.165976646495807,30.556072915516975 5.248835995831001,32.05542688535189 5.247612657162069,32.066624032218364 7.081142456273489,33.61809919806675 7.105900500717514,33.630153291483126 7.9964910500506505,37.10040677649359 7.9990760811631905,37.10978250999744 9.465429517606214,38.9284473431033 9.564541794941585,38.915866543658026 9.604846434941107,40.196024709840835 9.604176511385418,40.19695258278208 11.972625706050719,40.71939993813413 12.026379789606843,40.7577596273126 13.119192589606797,43.68782308579813 13.092919935384822,43.73408355094708 14.022853930052776,44.53503317560227 14.060333240273582,44.560969822035815 14.713741723829123,42.55122074489465 14.736096781608474,42.53872852690094 15.695733147830294,42.39860989329446 15.723083505165238,42.372685773152455 16.36569311227341,43.90839528947237 16.386395206497223,43.93254916209536 17.36743999938463,44.10683160898899 17.418339626051427,44.11641268800287 17.866292749607062,43.88860277028854 17.89193917094072,43.85719101216511 17.538554495386602,43.18466774227255 17.556190961162617,43.152461916181906 19.685404628718796,42.37001778023679 19.70153376649524,42.3773690708431 19.97060273716325,43.79424102486793 20.025631131828238,43.82653460871644 19.473767039386264,44.37653764702101 19.455555313161867,44.43082749575243 19.93485649005143,45.84948453529197 19.941264454496384,45.86890369630111 21.97232703938481,46.82758801831935 22.009806349608525,46.8552412826217 23.64286152471887,45.10985669132771 23.64476206871896,45.10919289199211 24.809365915829957,45.99331283674675 24.83888624294178,46.00027014347853 24.79657911405066,45.37343581271399 24.809256689162982,45.3649784996842 26.85721299849666,45.19978930338822 26.872308123827505,45.18075685830246 27.95427107494016,45.91956254654489 27.986208952273415,45.940869560683325 27.69310283316282,44.613357805707906 27.689571170939423,44.59298412537302 29.858084593163046,43.76929664640321 29.94120608649665,43.806856265620276 30.40030033005151,41.37716963776021 30.404647551383647,41.362303987445024 32.455946196717385,41.52678589431872 32.479648383383584,41.483484187105034 32.775827412717454,40.242750360317416 32.786007338051974,40.24822590654641 32.221851604719824,37.15934296298784 32.22235404738441,37.13064288558363 35.90749429982953,37.85517002619582 36.00119621627365,37.874400183681985 37.78989939138392,39.23717189976434 37.77904226071824,39.247494876730904 40.10739070516121,37.210289809517974 40.15192605805042,37.18895981592633 39.25193473360833,35.402385687926845 39.26101511049765,35.39095468175784 42.77182232116448,34.48698015503161 42.94245621982828,34.39098625213065 43.713421723828475,33.76863007114718 43.742745442938585,33.732262196627396 42.76917175405234,31.97856059864554 42.77537582872011,31.944463740191544 44.37661691671802,31.397875014193247 44.385304077606826,31.378954526861904 42.575978907829096,27.163115471094912 42.564808660716345,27.155823823457297 42.75738255582965,25.898355260875373 42.792196735384465,25.84547532705166 44.34047745360859,24.937384884999314 44.3312514411633,24.888677070947427 41.11877866605337,21.131738223403058 41.090066616274825,21.11716159356421 42.30565018960607,18.616065359057224 42.32269683138566,18.58640390174825 38.80702539316245,17.957034181001486 38.79388906605291,17.950960846282953 38.139089762940245,14.962878402191393 38.12783213449566,14.934658470089028 35.9953198216068,13.971409286453685 35.93533981805068,13.925595181490474 35.34508619316312,14.297783220829855 35.313541531827475,14.37156396508782 34.409749119385204,17.762154940352605 34.37076248116192,17.806728638120525 30.929445275830048,17.558365050043914 30.88006754071958,17.544365427797143 31.639862797607027,15.51329864517594 31.64700622160727,15.502815084975566 32.93293905005249,14.849629493892838 32.9429223673853,14.790449086861749 32.18828260916326,14.751121724053348 32.17840123671905,14.749073056372993 31.240493695385346,12.676354531854862 31.22428445805254,12.66093753084989 29.791325254496595,12.986504361420351 29.764805019830064,12.990499418679804 28.611291320272546,9.81736388737901 28.590378054496075,9.784935229414089 28.452570410052257,7.674786395506647 28.43518880649627,7.657695534043717 30.157241869607066,6.6712776413491275 30.176269154940208,6.643440711084816 29.927064874052128,5.32767895131675 29.906078790494764,5.251422116081642 22.92160143583006,2.5675862756774337 22.85683730427391,2.5472953920512853 21.6704026873862,4.353760810120559 21.633731654495758,4.399102927199976 18.893154488273836,4.783918961716529 18.887088767383656,4.789718896982788 18.39995239760884,9.189941248416847 18.405850637607916,9.207050288462609 17.02545858782815,9.767563065161642 16.961808568273963,9.84983842941275 13.587731298940895,7.888192866489238 13.565368959386076,7.852030295971611 12.365899960274517,8.158563189160317 12.355865670495957,8.153481338750693 12.806891704271955,7.394249692537244 12.809534989605716,7.3345954381058736 9.861689300718542,7.875043916598782 9.828222250050572,7.897504285724256 10.765976874049926,8.467244915957975 10.800878434939484,8.505488967003306 10.240363590497697,9.650575976862285 10.234618267830053,9.65134783500963 10.99076535405166,10.027529112172317 10.99110031582805,10.029821485260449 10.217142001163854,10.954109723685372 10.215044849162048,10.973171124537306 10.923984170052979,11.622934504069974 10.940222534496394,11.660914312249055 8.727202886497077,13.016496001332246 8.712450004718091,13.019028876900677 8.034210658940543,15.632701619392732 7.928690417163131,15.937238570069724 8.969482196718861,16.509799684255096 8.973021140717725,16.51100777324738 7.947499249162326,17.05586281932175 7.904791622495219,17.073292025201784 7.761995960274186,16.11625890955894 7.764362538052779,16.100897775491298 6.968384127385622,17.693033346785352 6.93925701627432,17.723930544109148 5.0040808811636515,18.280762923192935 4.971494925606937,18.299867429846028 4.299357709608564,20.65558625366813 4.296131882050946,20.691318079610767 5.174445354050665,21.73876008715289 5.171248653606568,21.74897864815704 3.202285069608303,23.277958302349557 3.183257784272252,23.299113513871102 2.527235142496471,25.47742627763347" stroke="#009edd" fill="none" stroke-width="5px" vector-effect="non-scaling-stroke" stroke-linejoin="round"></polygon>
</svg>