<svg viewBox="0 0 68.86935039999953 59.541210050118394" width="68.86935039999953" height="59.541210050118394" xmlns="http://www.w3.org/2000/svg">
  <title>Jihočeský kraj</title>
  <desc>Geojson of Jihočeský kraj</desc>
  <!-- Generated from maps/2-geojsons/world/europe/czechia/jihocesky-kraj/okres-cesky-krumlov/okres-cesky-krumlov.geojson -->
  <metadata>
    <collboard>
      <support-module name="@collboard/map-svg-geojson-import" version="1.1.4"></support-module>
    </collboard>
  </metadata>
  <polygon points="2.527235142496471,30.891726639386434 5.492316799386578,34.13337692856421 5.498258730053028,34.14788946831377 8.948947583386149,34.79569501930946 8.955231757607368,34.79552949655754 11.205621489163429,38.264034825912496 11.203837453608692,38.281095055816515 13.084735217163512,38.68561778935528 13.091201435829687,38.68518773148517 12.615431921166426,40.93065061459329 12.613982847385167,40.93375900669762 10.493958783388194,40.96843619929987 10.477458274940552,40.96338784841774 9.488490907830244,42.39593245906272 9.485337898053519,42.396428348446904 10.806514530940156,43.880977954165246 10.805844607384467,43.882927931184355 12.213419533608073,43.74389395733724 12.22153871582978,43.75026183338178 11.801562182497406,45.32752975204767 11.785717034054512,45.34764119852171 12.646437730942678,46.239322408781845 12.666011149607773,46.30949138545239 13.731903217162296,46.006333472646475 13.74060494160786,45.996488189461346 13.591896475830987,47.329253268948925 13.592610090054047,47.33055244787811 15.744877866052963,46.79200576418935 15.785976219831907,46.78248119285545 15.691567970943112,47.55946744223166 15.676101474941067,47.61909477267454 17.14431176471972,47.955829665805325 17.15144790694158,47.957976372059605 18.189152212720188,47.0183884622833 18.196572344275598,47.011286615878454 20.617814427832315,47.94090177787857 20.624185983388276,47.949620726135436 22.837467775386003,47.56361803596647 22.8712260971659,47.56511533162102 26.18519229094073,49.21380064968235 26.233827284717524,49.22494998313032 28.43084158516413,48.80912966102169 28.489831266942026,48.815128507528975 30.232535451830888,50.26413926860969 30.241419220718498,50.27947908251354 32.3135000598295,50.71819746813253 32.33356135760824,50.70039411965827 32.97966621805372,52.066366075255615 32.98188716027635,52.06844519261486 34.423693723830915,50.903918867415456 34.430021588719505,50.89519354437053 34.75789819672046,49.560234011133254 34.761415295387096,49.5555016106051 36.962784098941306,49.86889889432332 36.975723818054945,49.85987481369066 37.37381860916485,49.14475793227448 37.37686967405298,49.113829862949025 36.84085073005391,47.57310824130673 36.84186289716436,47.5713026814452 40.07152794960985,48.01656461980875 40.13104920116294,47.96111386432149 41.92212623583019,44.00931142380996 41.92491515671992,43.995672897182345 41.03769607049745,42.00130068105628 41.030152148721214,41.98037262295675 42.92259881182964,41.428015325180425 42.931460735385016,41.42220689482038 45.34962262694299,44.84361055925092 45.36501630516415,44.85190478336572 48.5031494109424,45.158936578719114 48.516198356720096,45.15670067750598 49.628744774497875,46.391629368897526 49.64420398871863,46.39787308341311 53.16490713538642,43.67054166897415 53.169836898942414,43.668833996784635 54.31890871405467,46.26058682963467 54.327275476720935,46.26804202163458 55.72509282071824,45.66066990085801 55.7340275620516,45.65702449876244 56.31469108560687,46.2877976814938 56.324536049165005,46.2870158256088 57.007493986942976,48.665903904044356 57.0280577273863,48.750648823997295 59.780795462496286,48.67876047060982 59.800288781607925,48.66998762832355 61.173551970941304,46.621552010162674 61.22809248649847,46.50257263460935 60.78082385005528,45.05738390243769 60.71525872294133,44.84296067928062 61.30065540205087,42.53071356568235 61.30218457538558,42.53075764367077 60.592924856275026,41.25330787047988 60.5875727496079,41.245493245575744 61.39476509805227,38.42860265460895 61.396585542496,38.42311088985862 59.930734548720466,37.89658203193958 59.92814223583246,37.89624014251586 59.41229381627327,36.65089512216491 59.38624689716362,36.57780214658396 59.13354008116276,32.81550226810341 59.1373557327197,32.78836886482586 60.142648845608164,31.987023682967813 60.13755888294236,31.975894914274797 59.272389019830555,31.97559682195115 59.22087772382929,31.984727272207785 58.450181645608794,33.5142024374507 58.425765844719535,33.50348511445173 57.45854186605411,30.958070261998913 57.4517552491654,30.943306445215242 56.36923160116403,31.08474815870559 56.353080618052445,31.08207593864627 53.907750413607396,26.9198013496336 53.91921193182916,26.914176631512056 51.82261334694322,27.18635561614483 51.81445047405123,27.17944936801196 51.6928957576105,25.48966849668923 51.78568017005146,25.441420322361047 51.06336422338482,24.696919333652296 51.05836892383214,24.681840359588207 51.56717586427385,24.415165686842922 51.587725041163324,24.409704260709805 51.566411277607955,23.286415583934104 51.55547404738591,23.27493761301139 49.94964543938678,24.48415165907045 49.93594841538562,24.492188911228553 44.540158363830244,25.48882844042801 44.50732482782897,25.469440790856424 44.99131546960835,24.364907096781646 44.965385058941145,24.275344850512738 43.37511761005427,22.924295159472788 43.37176071049745,22.920789618199162 44.121703722051286,22.29036436092847 44.118674502498294,22.26296928996144 43.107490431386225,21.04876826117379 43.096363874943755,21.01720763270405 43.94552839049703,20.9982247075719 44.00970997983223,20.923763666632112 43.507252749608426,20.207709566547237 43.49666504471953,20.175546693484467 43.86658663760737,19.86604556376242 43.95466702160758,19.77014793335675 42.5064015211623,19.876612237037445 42.49774348738703,19.87874769840255 41.053504810054264,18.246450830835784 41.03701158338791,18.236954629150386 41.36053368827544,17.773369671270302 41.344164251832815,17.726703541137795 39.925149652719675,17.590488437545538 39.920518442051076,17.58832995575194 38.72419517094369,16.047833924300903 38.690385876720946,16.026807741419 36.88829151227529,16.329271496092954 36.84532902338525,16.333844088094885 37.63299164383189,15.342200775971106 37.656337023386556,15.33570055172295 37.13976770782884,14.708243503272934 37.147420856274955,14.690789437838067 38.04444121538818,14.11089778067235 38.054373560275245,14.101394485597666 35.889464618053,13.909353542895225 35.82732192649838,13.90501155508664 33.1870949398317,11.756982641585456 33.19759526338586,11.67459626168111 32.39008251671895,12.04473252284788 32.26096931494231,12.023945978894881 31.017299924720835,8.908627598220301 31.007258353163895,8.874093020403052 30.888652756719793,9.7358187610369 30.868824475831758,9.755461080372152 30.15408157805487,9.69436126674391 30.139350541608117,9.68748860398755 29.52556221094256,8.259696275279385 29.48985237271973,8.202216781860443 28.03209143405239,8.244073532250878 28.017054562942764,8.230391122062974 28.32682867138629,7.001940902261231 28.30150993005355,6.927136128344682 24.81257717983081,5.86763885237724 24.791154189608466,5.851066477980749 24.04502682960866,4.501704471908852 24.042805887386027,4.456113516929145 24.640137400274224,2.6033314655358484 24.67959735405148,2.5272351424964654 22.95367038516543,3.5573102252614266 22.918746978943645,3.561016701804874 22.687557816275337,4.571360600585286 22.686785947831055,4.58428649799589 23.32129093627428,5.307067913157335 23.30238015938649,5.335512158265738 21.921143423387374,5.5460327422972115 21.902611298940435,5.60165401068789 22.62403886872035,6.978662253015319 22.62926718516374,7.015216009967663 21.561780408274906,8.550699221456126 21.559828891829063,8.598185600050602 22.32445196738682,8.917895910507468 22.334646456275195,8.934392581047542 21.365048618052796,8.972762670872726 21.34917434249638,8.979891207803849 21.701758022498513,9.440787613382964 21.697112248273157,9.461473007680434 21.118771611829114,9.330497461446612 21.112327238498082,9.325298283532721 20.77522461805184,10.902043782861256 20.767848177163803,10.924818302810127 21.718848354942573,11.18051819532102 21.728285538943425,11.227560901405923 21.004753535386232,12.146536707796441 20.94396525449684,12.167533311038097 22.545956365609715,12.968048351947619 22.59127815049706,13.003321796899947 21.351300621608797,13.4057488639226 21.31906419138814,13.423594692043663 22.445001798498385,13.278588749871233 22.46742967405281,13.28114771118253 21.314593179832272,14.837353149216325 21.30964885271952,14.839091867259231 21.53395673538599,15.491471287977584 21.527417698941832,15.5137064917506 20.187170090051776,14.164295362631492 20.167917069609217,14.138654397605388 18.87535054160963,14.516832747390254 18.786170609164227,14.526335329474932 17.643710648274105,12.886123136337666 17.623328952275738,12.822952926574908 16.600304710498136,13.689358901898778 16.593576347830645,13.69760013562027 14.146403853609634,12.724717497681377 14.064855224275204,12.69596776702074 13.61398210783064,13.58028324570605 13.584621979831542,13.621578720000798 10.125959579829766,13.385410531569324 10.042881777163537,13.385621004889073 8.372507490942196,14.854341619298612 8.368320468719872,14.88644680603302 7.5966413504966175,13.779834570061759 7.560356251831223,13.727984040509728 6.569837866053973,14.580603842407982 6.562505115830397,14.58354983217414 4.868406797607719,14.453304576889606 4.854083540721155,14.443990151713479 5.33926839405304,14.903036443242854 5.3486618873865215,14.919050158053688 4.919503032276231,15.661986885119223 4.930767942496283,15.7515887948799 5.858633912275952,17.0259005618047 5.953413531830126,17.057007914891983 5.174911387832077,18.159058598163938 5.15637926338514,18.184105423814437 5.381597368276386,19.103078501255187 5.532723384274693,19.136608723792417 5.166209663386514,19.603166801636508 5.156466644719882,19.62258604411309 6.3041403584995415,20.823127388230752 6.343767793164995,20.857587526607496 7.033738082944007,23.217680096758524 7.116014890052435,23.291502153043805 6.680768468719731,24.12152348512882 6.666984063386741,24.133950525971706 7.218899128274467,24.79752953260013 7.268313272273923,24.828748060724866 7.00480757983151,25.954001173344842 7.048257947829376,25.984947934627236 5.876335914054477,26.8187986666655 5.836795860717945,26.828943220535987 6.195772941608272,27.948487377574022 6.195794786940502,27.96409884665609 5.299975921163974,29.479130403348066 5.310782079386815,29.498504043885443 3.9328075798313935,28.59508362020406 3.8814856100534656,28.57398345779202 2.938881322054482,29.35009625542425 2.9228905380527124,29.372286984669156 2.527235142496471,30.891726639386434" stroke="#009edd" fill="none" stroke-width="5px" vector-effect="non-scaling-stroke" stroke-linejoin="round"></polygon>
</svg>