<svg width="4466.801603129017" height="4144.073028920975" xmlns="http://www.w3.org/2000/svg"><polygon points="5,2186.6461042281007 12.825289671192877,2195.8207651111297 14.954481493448839,2198.1308100431925 37.562653866712935,2204.32853532664 39.78767388453707,2205.1323704058304 68.37418581347447,2224.2481967891217 68.3607873423025,2225.895526087261 84.31632753787562,2220.753116244974 84.67371719121002,2220.8609126230585 112.76419441786129,2244.6598068380263 113.42567111121025,2244.566781030793 117.69366670225281,2291.2370902531547 117.73327957338188,2291.3676564546768 135.37440568895545,2274.431410529767 135.54538183112163,2274.6143065931974 130.71814570669085,2281.113502209191 130.23871345783118,2281.5620084872935 135.71694051555824,2280.351978487568 136.3935633066576,2281.699287893134 131.44865365338046,2284.6183554329327 131.2380646400852,2285.1120174370008 132.47713194671087,2295.5403683518525 132.4593644089764,2295.592236111348 104.14781240897719,2297.860544354946 103.94596152892336,2298.031795535644 94.27168284449726,2321.8326241541654 93.8225427911384,2322.5211300779483 80.59796053345781,2324.9608379426645 80.36144839110784,2325.400760395569 83.73203768895473,2338.5349910794175 83.99767694226466,2339.943189424579 69.76704426680226,2343.6840357255423 68.20553984004073,2344.4770798166282 66.59655822231434,2360.548347218428 66.59801457787398,2360.677084273484 50.7033500445541,2377.772517176345 50.58655032888055,2378.0974632544676 56.437021866673604,2378.932845123112 56.85062684456352,2379.4969160515466 66.61170432006475,2400.5461867978447 66.60791779565625,2400.871546166134 115.98011875560042,2431.6292416322394 116.25653504009824,2431.6167295682826 125.45662435563281,2451.723145167576 126.74258631118573,2452.5828224993893 111.5545454933308,2476.3749813990435 109.8217736533843,2479.7328683281085 167.56044600903988,2501.366242874763 169.15369898674544,2501.8625458363676 173.76947228447534,2511.685183114023 175.03533653344493,2512.3471869229106 178.62408789340407,2507.20923467807 178.8527357156854,2507.2561388012255 184.33766200894024,2516.9923249919084 184.5706788977841,2517.1227573029464 183.61909617786296,2539.4795895145508 183.66016540443525,2539.746233731683 193.29687011556234,2554.9372745158616 192.76821304892655,2555.880064391007 218.08899328007828,2559.411806013959 218.734158791136,2559.70030946529 241.76554808893707,2579.7793994924286 242.45731697778683,2580.4389657755382 259.1142380089732,2606.6561300464673 259.07928547565825,2606.929836975818 263.4069916445296,2606.412785100867 263.49466424889397,2606.4726167271147 258.80403427558485,2616.039216735051 259.3047293155687,2616.810295349278 264.6285826844396,2620.959428820759 265.2813212444307,2621.961316974135 274.29761848889757,2618.078305265284 275.48833479115274,2617.4505519730737 265.90464142221026,2626.521100615151 266.0255189334275,2626.7273668684065 304.2828142934013,2637.6306295652175 304.99613724451046,2637.7748301021056 332.31969763571396,2595.9562889545923 333.88061952008866,2593.725434061431 393.9083915378433,2561.751531308517 394.16441884450614,2561.817627405282 417.4524179912405,2541.919573044812 417.77456384012476,2541.393435738515 422.7643292444991,2544.6641313890577 424.59846343123354,2544.6708308386733 433.5340785778826,2550.607356325607 433.7618525867583,2550.91775556386 433.7545708089601,2567.32764980942 434.108173937886,2568.6999981794506 451.34181176894344,2570.307238127687 451.9875598222716,2569.827166296309 459.1714705066988,2581.020829312387 459.707118080114,2581.7482682096306 460.3397589334054,2602.555396915297 460.8433666845085,2605.0335276576225 477.3540696178097,2621.9760505894083 477.42572231113445,2622.172052226495 513.6280999822775,2643.739203020232 514.3516174223041,2644.362417096272 516.8472283022711,2647.3092672181665 516.8434417778626,2647.6659579600673 511.888920177822,2649.650290776335 511.73920682678,2650.244917510776 528.436323271133,2651.0466789440834 528.8717735823011,2651.134176117601 531.0143638756126,2641.341865956667 531.0099948089337,2640.735607868235 536.7457055288833,2647.054806636297 536.8065811911365,2647.1806976976804 566.5785665423609,2646.782488845638 567.0588726045098,2646.66061536473 633.5816991289612,2660.7474931146717 634.049771804479,2660.7532962440746 636.7594669512473,2676.391281768563 637.2598707199795,2676.789883448684 633.3134384355508,2683.2718578933273 632.9752726756269,2683.334793082555 634.4228900978342,2695.5157612123294 634.7462010311428,2695.8643400667934 616.209416248952,2707.4679965904215 616.0334884978365,2707.5603806485888 622.9957418667618,2720.38889206521 623.1078812445048,2720.8066038636607 626.2358417067444,2749.3568452714244 624.4191837867256,2753.733725011698 599.1056853333721,2747.978928951896 597.409031111165,2746.293557797675 575.8310846578097,2749.4755384371965 574.9610578489956,2749.3845106014633 551.3698454756523,2738.555053234333 551.0436218312243,2737.7509328552987 567.6128702579299,2764.453121090075 567.6845229511382,2764.951508559927 599.2256890311837,2768.8890422587865 600.8600112356944,2769.369572714437 618.691046115593,2789.476401150343 619.4046603378374,2790.447632243682 638.229220977868,2769.344586941297 639.2900303645292,2767.7463839201955 688.0694946133299,2758.264902004332 690.3833523200592,2758.8476344973315 701.8600166400429,2775.8970088836504 703.5741471289657,2778.6274989738595 710.3604727467755,2779.4136239970103 714.180493369,2780.3420688367332 711.0467074845219,2787.74494915572 709.8746325334068,2788.2571141620865 715.5401469157077,2802.222074508085 716.9446562133962,2806.3222147118067 723.0954282667954,2805.462132871966 725.0277208178304,2804.874616531655 728.5529750756687,2812.4841032731347 729.884666595608,2814.50888374052 727.5131372089963,2821.3110998457996 723.4571869866922,2822.809441608493 739.9396366223227,2867.9422672356595 740.7872355555883,2869.5504470032174 736.4662286223611,2878.0799364114064 736.4627333689714,2878.2395880381227 766.3873447822407,2878.4331320338533 769.3003471645061,2878.1026800859254 781.3735347201582,2890.4057720695273 782.7398875022773,2891.4340830656 812.0105952712474,2899.1337770805694 815.7076994845411,2900.9905461085727 885.5673278578324,2833.9251331839478 885.8492782934336,2833.6302980423206 887.5884580978891,2812.464029348572 888.4322705067461,2809.880723032984 906.1695160889067,2815.045967131271 907.0118721423205,2815.7882463402348 921.9680611556396,2835.089304397232 922.6959476622287,2835.581287547713 928.9722575645428,2854.071118102642 929.9101505422732,2856.7141161049367 960.3808952890104,2848.9826109852293 961.2730587022379,2847.727971969347 996.9505658311537,2866.218121371465 997.9414701511851,2866.646260247857 1029.2612701867474,2873.306834501447 1034.0512236090144,2874.7089411234483 1035.1236838400364,2866.64982806833 1035.6768076800508,2866.608798129484 1080.0210867200512,2893.4300450948067 1080.8022758400766,2893.946869671403 1073.4039896178292,2911.351422518608 1070.4175869156606,2911.963624670927 1077.4879018666688,2922.4412477401784 1077.6865487645846,2922.6084469306516 1066.9319455289515,2942.9701308112126 1068.1389730133815,2943.637527063838 1072.1882240000414,2938.3134587724926 1072.4681355378125,2937.4570127359475 1082.787871004548,2938.769990854489 1083.8588748800103,2937.81724656024 1084.9464812090155,2925.445017602644 1084.9287136711646,2924.7793497060193 1103.4984120889567,2907.2862322453875 1104.1036734578665,2906.8595099975355 1118.6139264000813,2924.0356540587964 1119.9712497778237,2924.999158550636 1142.495536071132,2925.503870930115 1144.945999928983,2926.618514317088 1150.1507234134478,2923.5478810906643 1150.8101612089667,2922.8532263168017 1159.0548812800553,2899.264429207251 1160.605899946764,2897.595375907258 1192.3943551999982,2896.8391028717742 1193.2879749689018,2896.9862552577397 1225.9723801601212,2913.1880238743033 1226.5287079822738,2913.748498589266 1242.4507520000916,2906.6753547911067 1243.0064972800901,2906.6980955149047 1242.6421171200927,2889.56786897243 1242.6237670400878,2889.2209342402057 1246.2608694045339,2892.020922750002 1248.328311751131,2893.855901499046 1259.4289450667566,2886.982344816788 1263.6879112534225,2885.786340112565 1267.722598684486,2891.230740074883 1267.5883227022132,2894.9189781884197 1277.1091015111888,2895.788967083441 1277.5789218134014,2896.0382354367757 1288.1319654399995,2894.9840825506253 1288.6294564978452,2894.807052151067 1293.6649514667224,2887.3613904417725 1295.3974320356501,2885.8139883185504 1324.7566862222739,2891.2097814665176 1325.3447625956032,2890.706774267135 1337.0090055111796,2899.412025885249 1337.3378505955916,2900.834478228586 1337.5976644267794,2918.774426136515 1337.5330022401176,2919.1382574651507 1327.8651315199677,2950.8668549115537 1327.850859235623,2951.483851191704 1335.4611908267252,2973.8501378048677 1335.6569250134053,2975.0487850931822 1347.3229155556764,2983.896463761572 1347.5716610845411,2984.124236986623 1343.901353813475,3000.31336281274 1343.8934894934064,3001.406679881038 1352.8122109156102,3002.9278657881077 1352.7079358578194,3005.3948121244903 1351.4825582933845,3016.751323252218 1351.297018595622,3017.4733139167656 1343.834361457848,3026.778759774985 1343.302791680093,3028.019010567339 1345.0550786844688,3040.3493890071404 1345.0486707200762,3042.232597648748 1329.666060800082,3061.468835441803 1329.3075060623232,3062.5417981620994 1327.1250116267474,3085.0082067534095 1326.2424601600505,3085.6573518241057 1333.6130756267812,3093.5280280862935 1333.6235613867175,3094.090272145404 1313.016712817829,3119.405808269512 1312.9144766578684,3120.2125467538717 1329.2469216710888,3118.8400649990654 1330.530844728928,3119.965313572786 1338.3669114311924,3144.6324739578413 1338.8154689422809,3145.913930995448 1359.212311040028,3180.926852948265 1360.3870074311271,3182.0201657114085 1369.552435484482,3182.089638762991 1371.6993948444724,3181.667010694393 1371.5403608178021,3176.400792205124 1371.3047224889742,3175.6730866736034 1362.6067845689831,3171.9850880105514 1361.9989017600892,3170.9131029180717 1364.647138702334,3166.073740193504 1365.3453155555762,3165.5522085713455 1379.787411057856,3171.049829183612 1380.9516216889024,3171.8839911760297 1374.0543217778904,3190.6293133998406 1374.5436572445324,3192.942753040523 1398.181764266803,3203.9008686193265 1398.8310075734043,3203.9106651307084 1415.7567718400387,3193.44284469611 1415.8959994311444,3193.100395590358 1437.076069546747,3229.7087141406955 1437.7293906490086,3231.5364327674615 1435.0660076090135,3247.4812442571856 1435.2288281600922,3248.0337467390345 1443.9285137067782,3255.3546079247026 1445.5284659200115,3257.165642167791 1510.7510582045652,3276.130747614312 1511.494964622194,3276.3564386709477 1526.2947410489433,3293.2318669602973 1526.1878445511684,3293.613775941485 1560.5062806756468,3305.606628045789 1560.8394948267378,3305.8460867614485 1557.5259946667356,3323.9418266682187 1557.2673459200887,3324.1220733908704 1563.5885115733836,3338.149712517683 1565.244096568902,3339.269393008668 1584.1775926045375,3285.341604171961 1584.1589512533974,3285.2730538853793 1615.081457493361,3272.1987005101983 1615.9890582755907,3270.7844284656458 1660.8384014222538,3315.254650242743 1659.8678860800574,3318.8267638707766 1693.750580622349,3330.1235376326367 1694.9870264889905,3330.446637418936 1699.0942404267844,3317.180020439846 1699.5465844622813,3316.195974108763 1723.8866548623191,3322.922651072382 1724.9870771201095,3323.0490469040815 1742.1942092800746,3318.339418108342 1743.0185065245023,3318.3456490199314 1754.005835377844,3321.4593025114154 1756.8285437156446,3321.782414980815 1763.3032092445064,3330.776412332896 1764.7318940445548,3331.205875550979 1793.683951217914,3331.525858483219 1795.1411805867683,3332.1653779188637 1818.2579123200849,3287.8272053739056 1818.6083114667563,3287.310412729974 1832.2631011556368,3278.847037665546 1832.4119406933896,3278.481573513709 1863.8814540801104,3286.222072842531 1864.731091911206,3286.279494590359 1873.494565831148,3299.1500465924037 1874.281580373412,3301.3297091962886 1889.267479040078,3307.179573295871 1891.4898776178015,3307.915746989718 1901.2561979733873,3299.072153411573 1901.5326142577687,3298.8006398234284 1900.6864716800628,3290.2117359473486 1900.4764652089216,3289.881455295661 1887.9727789511671,3279.926511072088 1887.3316912355367,3279.4177125119604 1892.620883342228,3275.422067293548 1893.338575360016,3274.7289650549064 1892.6759335822426,3260.1528367735445 1894.0055862045847,3259.793129042955 1908.4415650133742,3266.4712211440783 1910.5226971022785,3266.5353255752707 1913.0250072178897,3259.5665306790033 1913.9704732445534,3258.8359830920817 1920.1477509689284,3260.256564265117 1921.3271076978417,3260.6585634823423 1945.9765080178622,3278.193119042029 1946.7393470578827,3278.7134941966506 1948.1887121067848,3288.6960908811307 1948.2184217601316,3290.3319188111345 1938.8578420622507,3304.3176413512556 1939.6667019377928,3304.9140656884992 1952.4168035556795,3285.88555439224 1954.405602702289,3283.7502527437755 1982.6434631112497,3289.170593510091 1983.5589282134315,3289.127861607878 1981.6097419378348,3309.244770185207 1981.7096479289467,3310.081080411095 1989.7332932266872,3319.1618969077244 1990.121848888928,3320.4481265480863 1991.1372199823381,3341.6315619957168 1991.1806193778757,3343.9736801011604 1986.4792123733787,3338.3277225143975 1983.7386424889555,3335.1844898851123 1963.7664736711886,3335.3015330464114 1962.4248789333506,3334.9771052719443 1931.975396977854,3351.8551722458797 1931.8105375289451,3352.05631104263 1944.855114240083,3365.9295507704956 1945.3994999467395,3366.2552679622895 1976.9092087467434,3376.9240201914217 1978.0026404977543,3377.45039187558 1996.167180800112,3397.7852649322012 1997.617128391168,3398.9865050733206 1994.7265538845677,3404.43515931454 2004.6708408889826,3408.7047423890326 2003.6170220089843,3395.766276963288 2004.1567473778268,3392.933967878809 2012.7142926222878,3390.3850366032566 2013.7095660088817,3389.292310674733 2048.8059872712474,3397.585502511938 2049.7753375290195,3397.9845822671195 2031.088548124535,3419.223749454948 2026.011692657834,3425.408131135162 2087.7145648356527,3465.516105451272 2089.176163271186,3467.4664067684207 2087.1017304178094,3478.1391646020347 2086.612977493438,3478.3980049288366 2052.3498828801094,3485.5698071401566 2049.1167735466734,3486.700303143065 2062.055618844577,3497.1982520309975 2066.6405174044194,3501.1743210515706 2071.6608662756626,3521.8784291192424 2071.8732029156527,3522.345316395629 2050.9075083378702,3539.990264051128 2048.953661724576,3541.3823603721685 2023.549286684487,3541.6740281160455 2023.125487217796,3541.6300112098106 2007.7877330490155,3532.433397757355 2007.612387840054,3532.2840007599443 1996.7902097067563,3545.1877938533435 1995.2878333155531,3547.211196034914 1942.6356283733621,3520.0148720728466 1942.1212435911875,3519.5662109175464 1938.1552961423295,3541.1516046738834 1937.5488696888788,3543.26752313599 1947.6361708089244,3556.1577816325007 1952.4293282134458,3565.144905148598 1949.4831209245604,3583.276753159589 1947.8374391467078,3590.626958275796 1933.7853556622285,3587.6611232646974 1933.2470866489457,3587.4682003634516 1905.3287506490014,3595.116530843894 1905.1557356090052,3596.288249820005 1907.7987296711653,3596.6318521197536 1906.2890715022804,3603.3886627624743 1916.2301545245573,3609.1069651608123 1912.6938319645124,3633.7604214373278 1925.9390944711631,3638.036239921814 1930.7776901689358,3640.4680997710675 1921.637893973384,3668.6147521217354 1920.409894968965,3673.5586437439197 1900.637538133422,3684.05171609018 1900.1394645334221,3686.46396366274 1867.0644647822483,3687.8058177413186 1866.5334775467636,3687.6956260579173 1861.3345794845372,3695.4080226067454 1859.4512204800267,3697.8743509483756 1874.1155558400787,3710.167372071068 1874.4828487111954,3710.6009852545685 1869.5810471823206,3717.346315215982 1869.8560071111424,3718.550705695641 1880.2430262045236,3725.5658943430753 1881.3449048178736,3728.285547254258 1877.3390532267513,3736.0720456655836 1877.2630314667476,3740.126442484325 1867.7102128355764,3739.4645596203045 1867.6519586134236,3739.946090705809 1885.3434746310813,3747.742839176848 1885.3160951466998,3749.2797683102544 1870.236698453431,3754.0188619921682 1869.6087179378374,3754.3440074450336 1861.3217635556357,3766.4748780342634 1861.3281715200283,3767.291692419676 1839.0564172801096,3767.3632023988757 1835.9377774933819,3767.532871946576 1837.9693934933748,3781.0096368084196 1840.0910122666974,3792.0993814272224 1818.0732464356115,3787.707074141479 1813.966615040088,3784.857135058148 1809.2005458489293,3805.6887784930877 1808.2087677156087,3810.2308260017307 1800.2526973156491,3815.0219011125737 1799.3127654400887,3814.1892766419332 1799.3480092444224,3828.0157653456554 1799.3780101689044,3828.267535571009 1763.3608809245052,3840.3361847255146 1763.1800015645567,3840.3224202690762 1764.974814151181,3859.498585191788 1768.2425847466802,3862.1446676992346 1751.3147815823322,3875.209013995016 1750.005517937825,3876.068489244324 1755.5609318400966,3893.750918440346 1756.8218444801169,3895.966449517873 1771.0198547912296,3909.8051371292677 1772.8490373690147,3910.2135019780835 1779.7830374401528,3895.6703660044586 1780.0210059378296,3893.6341707452666 1793.7998771200655,3895.0799734075554 1796.3653930666624,3895.8101955991006 1811.192257706658,3868.739757347037 1811.238278542296,3868.5803764833254 1868.5295584711712,3883.977635658812 1869.0174375822535,3884.2022626507096 1871.3126539378427,3899.7418124895194 1871.9904418133665,3901.303875038575 1860.141824284452,3910.7434874074534 1858.6053691733396,3912.2109278745484 1855.1072031289805,3943.738571869908 1854.5977699556388,3946.648152407375 1849.0662402844755,3956.1262139558094 1847.77387036453,3957.8565143587766 1855.3405112889595,3968.1421808039886 1856.0986899911659,3968.7798604030395 1884.1824679822894,3978.5653713450884 1884.905985422316,3978.6594436285086 1927.9835264000576,3977.86914645636 1929.9959185067564,3978.0990029717213 1957.183746560011,3986.3204318623175 1958.9951616000617,3987.1555145725724 1995.8456174933817,4009.3847722194623 1998.2972464356571,4010.741971309879 2019.7219842844643,4013.4612248537596 2020.9552261689678,4014.187507018738 2021.7000064001186,4025.360061651212 2021.4690284089884,4027.142170139181 2014.6725083022611,4033.2638718542294 2014.5539609601256,4033.87075355649 2020.424530204502,4042.2675540966447 2020.2046205155784,4044.060616557952 2000.0868161423132,4050.9816481384332 2000.345173617825,4053.0257109153317 2037.708266666741,4096.87048070028 2039.493176035583,4097.533068830613 2047.0429232355673,4090.134498944157 2047.2654543644749,4089.2993612947175 2041.5346952533582,4087.1434231381863 2043.302419626736,4061.2723010710906 2067.7118125512497,4058.7355015113135 2068.5110604800284,4058.7319528991356 2072.8445920712547,4070.2437949789455 2090.5739733333467,4067.5394330800627 2085.970724693383,4051.98416392575 2086.1766533689806,4051.2846213087905 2110.528083342244,4043.687100043986 2111.531221049023,4043.554461605265 2123.023322737892,4055.4272831166163 2123.5516885333927,4056.2927121478133 2127.5310344534228,4075.019039877807 2128.262707484537,4076.2223711431725 2146.812308195629,4082.942809367203 2147.1015404090285,4083.218683608051 2139.689273173455,4099.632581972866 2139.5925711645978,4103.06431616639 2147.3368874667212,4116.892273181933 2147.741463040118,4120.316644506471 2167.88897706673,4124.108136029332 2168.638417635695,4124.277532146545 2183.424504320021,4119.200470240903 2187.3228768712142,4118.002250680118 2192.2310863644816,4109.359090624144 2193.860748231178,4109.163074562792 2203.17763726227,4134.0960771605605 2203.1048194845207,4135.325692633167 2209.1952984178206,4138.069133905345 2211.31196558231,4139.073028920975 2217.9832391111413,4136.351327720797 2218.7329709512414,4136.451097417274 2225.551918933401,4119.055903754197 2227.7087815111736,4114.9082244246965 2224.547616142314,4101.654907864926 2225.1115170134,4100.72712380701 2245.7879793778993,4094.3167924954323 2247.4846336001065,4093.749548618216 2243.3424671289977,4078.343376262579 2244.6485267912503,4074.3923114925856 2261.7586656711064,4069.4906399422325 2262.7533565156627,4068.1856974085094 2261.693712213426,4062.9844801736763 2261.3671972977463,4062.2712216807995 2266.91998976015,4057.914883432968 2267.6298174578696,4056.778433263069 2261.705654328922,4053.3721528435126 2260.7546541511547,4052.365651041211 2263.7381441423204,4045.5533454996767 2264.385931093362,4042.8553359452635 2250.9749353245134,4024.7984083538176 2250.8496887467336,4024.0513096568757 2270.306307697785,4015.4883314244216 2271.093322240049,4015.244316515047 2285.5860989156645,4017.026062825229 2286.2944702578243,4017.203526811383 2294.165780764539,4027.190970518277 2295.585727431113,4027.6332789172884 2305.9960482134484,4023.5943537473213 2307.6260013511637,4023.707483696344 2315.005063680117,4035.7845494262874 2319.483357013436,4036.0862125408603 2342.5581457067747,4010.748182728188 2343.838282240089,4010.1079620485543 2387.6466224356554,4005.310019206896 2387.9900310755474,4005.172920920071 2388.9803528533084,4014.0419845768483 2388.840833991184,4014.733215323533 2419.426048284513,4031.833168271114 2419.9121797689004,4032.0186057224637 2426.674912426737,4055.6016112254583 2426.7171467378503,4056.021240155911 2443.766409955686,4072.997801201069 2444.729643520084,4074.198482184729 2456.619330275571,4096.944988701493 2458.3497719466686,4097.539721311885 2471.5338675200474,4080.8143082835013 2471.877858702326,4078.7545348774875 2482.4504174933536,4077.015865400899 2483.2452963555697,4076.210395523347 2479.223133582389,4063.391675222607 2478.834286649013,4063.231990978995 2491.1818515912164,4048.2548709362745 2493.0084127290174,4045.523624100373 2487.628052764456,4041.034316162113 2483.6291916799964,4039.125889090181 2486.2235434667673,4033.314889020403 2488.6157531022327,4029.485463461664 2477.9552304355893,4024.2460701897508 2478.874190791161,4021.9027213750524 2487.6129066667054,4024.934607191186 2490.8623271822,4025.5526028168388 2502.259474489023,3997.8551211070735 2502.4831707022386,3997.4052102795104 2521.1285996090155,4006.87621690752 2530.1815970133757,4011.352907836437 2535.4416620089905,3992.8071046575787 2535.6039000179153,3991.9600631002104 2534.967763911118,3990.1332997863647 2531.207453866722,3988.980971326586 2536.106925226748,3959.0227620340884 2538.9171089067822,3947.0493484294275 2548.3446809600573,3952.594122464885 2550.2632837689016,3953.0117278792313 2601.7201120711397,3951.053724156285 2604.3887379912194,3950.8322716015973 2637.2065453511896,3932.327108066529 2637.6274321067613,3932.4815608691424 2643.4496503466507,3926.8812463383656 2645.9391445333604,3925.5324094999814 2646.790529991151,3901.9981215188745 2647.5029791289708,3898.559715764306 2664.8239982933737,3897.9884185370174 2666.0744251734577,3898.154436686891 2667.851470222231,3891.0994432359585 2668.4302259200485,3887.37587139901 2677.3949681778904,3888.6046392795397 2678.540537457913,3884.948945991753 2655.5758492444875,3877.422955080634 2655.05447395565,3877.2835577996448 2653.533747484442,3871.4767394914525 2655.437495466671,3865.8766557491035 2670.402713884483,3855.3629079207312 2671.2488564623054,3852.0294469033834 2699.9981889423216,3842.326693706098 2700.9427811555797,3841.864478072035 2711.7661243734183,3818.4824768464314 2715.055449031177,3813.6857038403396 2738.583455573418,3830.763464395306 2739.3352263111155,3830.693307022797 2761.134538808954,3805.0701682051294 2762.1446670222795,3803.41150250152 2788.471206400078,3813.031590367027 2788.793060977827,3813.089319400431 2790.4999096889514,3810.427551215049 2792.3914242845494,3806.858493430773 2800.7281860267976,3810.8964936814737 2800.8866375111975,3811.0572483509313 2806.4181671822444,3798.7054426690447 2807.4941226667725,3795.5452164206654 2835.769848320051,3814.3793373305816 2836.5192888888996,3814.644001008128 2855.322295466787,3811.9267425765283 2856.8179726222297,3810.0372091422323 2861.4066577067133,3815.1644461075775 2862.8979657955933,3816.2044445048086 2853.768655359978,3830.4162295871647 2855.397443413385,3831.25367731374 2878.980500195641,3824.4429950563936 2879.8528571734205,3824.4745223645587 2870.863356871181,3808.621491723461 2870.320136248949,3807.7315568110207 2872.637780480087,3804.4022625482175 2876.0042919822736,3799.203276327811 2895.614119537873,3798.365263092448 2897.0521250134334,3798.2195985706057 2885.2678784000454,3784.4489827568177 2884.2469731556484,3782.997571080341 2897.242616320029,3773.395718725049 2897.3535906133475,3772.8898322425084 2883.5986036623362,3769.415218033886 2883.624526791158,3768.433628515806 2902.0031513600843,3743.7325587357045 2903.7225247289753,3742.595825557597 2902.0718913422897,3737.1728304189164 2901.856350720045,3736.5304845341016 2913.804000426666,3716.1956741383183 2914.00439495116,3716.0992688030237 2905.6687982933363,3688.292793233122 2905.734916835674,3688.096403611009 2935.893418951193,3687.755165119539 2936.573828266817,3687.5019018359017 2948.095639608917,3699.4782715619076 2947.774367573438,3700.1033975792234 2980.081285404507,3713.2088662723545 2982.8218552889302,3717.6008770853514 2963.0550326044904,3719.2966159477364 2962.534239857807,3718.968753383495 2959.5647308800835,3726.1434124609805 2959.5667697779136,3727.3868482710095 2973.9188625067472,3732.6439411578467 2978.195887502283,3733.0188718546415 2989.510605084477,3726.2993420941057 2992.0982576356037,3726.3913005440845 3000.372978631174,3734.222732707567 3002.3635254044784,3733.7691755693522 3022.0138396444963,3709.972778992844 3022.800562915625,3708.033058715402 3051.2248368356377,3691.187964786892 3052.796244480065,3689.943880982697 3046.653919289005,3675.5199952335097 3045.170475520077,3672.5539664719254 3049.886446080054,3655.7572721643373 3050.179464817862,3654.347676427453 3043.6593609956326,3636.14255274256 3043.8716976356227,3635.2368125595385 3084.1090540089644,3651.5942283003824 3085.561331768986,3651.8213135225233 3099.6894370133523,3632.3942397685023 3100.0118741333717,3631.956028764718 3130.1974644622533,3608.2380060856813 3130.7200048356317,3607.547281190986 3144.8221869511763,3617.662140383094 3145.959018097841,3617.975041592843 3139.3966799644986,3631.5355942666647 3139.2277427201625,3631.7693666127743 3148.174717440037,3647.6453078471823 3149.326694684569,3649.834865413024 3163.446061795694,3657.2010763825383 3164.387450026814,3657.9045331300003 3154.9674510222394,3667.3612096234574 3154.311799751129,3668.122400935681 3162.617686755606,3683.225263085449 3162.5812778667314,3684.0757098409813 3151.941435448942,3686.7447761837393 3152.3419332266785,3688.115953716915 3163.7501488357084,3688.7304482110776 3164.3198751289165,3688.7935415476095 3173.9338606933597,3700.593456042232 3175.0567108266987,3701.0981751366053 3181.6877889422467,3697.0866039581015 3182.0949859556276,3696.1353501837584 3179.663745991187,3686.550606804609 3179.8778302577557,3685.8219147067866 3185.6575229156297,3685.3691468820907 3187.2836895289365,3686.1000620959676 3197.2582687289687,3698.9073482457316 3198.9356990578817,3701.2216889647534 3197.436526648933,3704.878644448472 3196.77446741343,3705.4948694782797 3189.5599732622504,3698.9997623922536 3187.301748337806,3701.056411452417 3193.775831324514,3705.500200905837 3194.6476057601394,3706.26392656815 3191.5700352001004,3713.2719526209985 3192.2041324089514,3714.331534025958 3234.63971185789,3737.860040719912 3235.684501333395,3738.306037729257 3265.223178524524,3740.6888192530023 3271.159575040103,3742.5518486583605 3279.013991822256,3733.787833178183 3280.309274453437,3733.2938502435572 3303.9837903644657,3731.6772922567325 3306.0363778844476,3731.6177650263417 3313.003291591187,3705.0408090965357 3315.6972580979345,3701.1274985696655 3339.200797866797,3704.7955627881456 3340.2435484445887,3704.0376078029512 3343.590544782346,3685.5717594875023 3343.1696580267744,3681.520805085427 3331.062100480078,3664.733235343301 3331.0053026134847,3664.408846767037 3339.201380408951,3653.1709326204727 3340.441321528866,3652.8771900810534 3350.2358951823553,3657.4410429283744 3350.743289457867,3657.7809950888623 3354.715936142369,3675.6155295805074 3355.8562625423074,3676.516216487158 3372.425510969013,3674.8045971827232 3372.8329992534127,3674.901909227541 3376.675447751186,3683.924193704501 3377.8486877867253,3684.06326863711 3400.9738663822645,3674.9072413931135 3401.9359348622384,3674.6917329308926 3406.7104509156197,3685.896116999793 3407.3963943823474,3686.8985120014404 3426.009783466696,3701.4425030826824 3427.880909084459,3703.2232253703987 3438.544927004492,3705.2633965431596 3443.3383756801486,3702.583446559147 3443.6322682311293,3702.720288293902 3444.3205418667058,3693.509050991037 3445.047263288987,3692.9318919016514 3463.22316316457,3689.6577407170553 3463.8796882489696,3688.8526359943207 3467.6353379556676,3700.1842595218914 3468.853142471169,3702.4803709108382 3493.7349771378795,3725.3637626454 3494.951034026686,3725.312674384797 3499.2834005333716,3720.1980133637553 3500.168282169034,3719.815064294613 3489.160564337857,3706.3461191087263 3488.2716049067676,3703.964744466939 3493.1040839111665,3690.0100841900567 3493.871292017866,3687.901791098353 3521.414179555606,3690.753424882656 3524.8791406934615,3690.3793111108243 3531.1682665244443,3700.066965265665 3532.902785991202,3700.6836480072234 3534.2749641955597,3686.0227495980216 3534.5269137067953,3684.8657248455565 3541.264888320118,3680.936949661118 3545.6368676978163,3681.339961142512 3577.675233564456,3690.8916068875697 3579.1452788623283,3691.3470292826532 3584.536415857845,3700.262899954396 3585.783056213404,3701.0533013904933 3587.94894819567,3693.756531370571 3588.3468245334225,3693.0900665210793 3606.1309647645103,3686.5354997976683 3606.952640568954,3685.6499607943115 3596.3078465423314,3682.6396348379785 3594.863433102262,3681.3675098607782 3606.977981155622,3665.9099175795563 3608.066752568935,3665.087396026007 3603.5036993422545,3661.436003252049 3604.5592658489477,3659.7269334039884 3615.6686372978147,3660.065548916813 3619.8081823289394,3658.1062821567175 3630.3507401956012,3670.1873357919394 3633.969201208907,3669.7678627455607 3668.4446324623423,3651.4009168216726 3670.140704142279,3649.5793366753496 3665.3390998756513,3640.6827527815476 3663.1994222933426,3639.0490736924694 3648.8933504000306,3636.2132163200295 3648.6437310578767,3635.90922944888 3648.4453754312126,3620.498680320801 3647.9461367467884,3619.928886283422 3632.4327460977947,3618.0639339011977 3630.370837902301,3617.7114756884403 3622.09961216012,3608.303344815271 3619.128646826721,3605.6675562410383 3634.8919480890036,3580.8278158721514 3635.124091164442,3580.4979696394876 3629.862861084519,3574.849165334017 3631.0317320533795,3570.170243866509 3636.4980169956107,3575.0741067102063 3638.926344248932,3576.85940405546 3646.5521132089198,3557.5039839904057 3646.9097941333894,3557.2990309905144 3663.760701724561,3556.1288835395826 3668.155691520078,3558.96487990889 3678.5246518044733,3547.422382845427 3680.245772800059,3545.4363296397496 3693.67016704008,3552.3214155767346 3698.0756425956497,3553.4408997736173 3705.0687707023462,3544.6191393655026 3711.8367462400347,3536.131385871209 3747.893488355563,3539.7092649431434 3751.698362880037,3540.9897643100703 3758.4511923200916,3545.0606359011726 3758.8094557867153,3545.2807169261505 3756.3962746311445,3550.945838266518 3756.218599253334,3551.384654583293 3764.9922676621936,3554.777337735868 3766.1660902400035,3555.0640973228146 3772.436574720079,3550.3282928547706 3774.289932799991,3549.7169701023377 3776.564760177862,3545.068194243009 3769.2643410488963,3543.148367098067 3769.1128800711595,3542.984749747091 3778.0971374934306,3534.8886517924257 3778.2838422756176,3534.6943489091354 3790.2084815645358,3542.571259705932 3794.2947239823407,3547.5166387883946 3819.332971235621,3533.9242497588275 3820.1135778133757,3533.1336948359385 3853.0004164266866,3541.4641696562758 3857.892314737779,3544.1923140812432 3862.59634318226,3532.480973565718 3863.010530702304,3531.65350874688 3872.3291673599742,3525.602383509453 3872.5927677155705,3525.4552051306237 3861.820688213338,3521.845969300426 3861.770880853408,3521.8344082679832 3897.4242124800803,3491.0994874302414 3903.984511715593,3490.3372411927558 3905.6074743467616,3477.614367132075 3905.715827200096,3477.5178576310864 3894.343437937903,3474.414854560746 3893.273890417884,3474.0683935788693 3874.49709824007,3452.8789808743168 3873.8067857066635,3451.243467401946 3884.294002062292,3431.8365548944566 3885.2021853866754,3430.400173628819 3901.5765734401066,3423.414752390934 3903.5275073422818,3422.872030669241 3938.3137248711428,3425.711518154363 3938.724708408932,3425.824509694241 3943.2895092623075,3418.106253866863 3943.737484231242,3417.9225249505835 3959.898079289007,3418.6565499728313 3961.196274631191,3419.1601342130452 3965.492232249002,3403.1658800284495 3967.07732963562,3400.020011267741 3982.9309249422513,3398.1367395757698 3983.1243289600825,3398.0824612496654 3986.4124885334168,3391.4399391174084 3987.1555211377563,3389.747910416394 3988.489834097796,3378.0194770095986 3989.1329607112566,3375.6434589853743 3973.325677511166,3370.1331344922073 3971.2771677867277,3369.762481920887 3894.6961672534235,3317.6557970338035 3888.0315929600038,3313.81706514908 3873.320362951141,3295.818419413583 3871.339136853465,3293.809181330027 3835.562015004456,3267.5908201643033 3834.961122702225,3267.1456522480585 3836.7448669866426,3259.6640258778352 3837.4363446044736,3257.740379770752 3846.0911744000623,3258.0359839658486 3846.430796515662,3257.54405206698 3837.431684266776,3248.1223428988014 3836.652534044464,3246.508017342654 3856.671014968888,3238.8979115808615 3864.4400893156417,3239.155696910806 3884.4603178667603,3262.9249706149567 3886.310763235553,3263.181837524986 3892.8792180622695,3263.399083482451 3895.9885371734854,3263.0896859989152 3910.5957833955763,3250.8830526444362 3911.859608746716,3250.32966689195 3922.5320735289715,3256.3411515284097 3924.080762026715,3257.2747133228695 3938.437806364498,3239.2861477488186 3938.6282976710936,3238.9624692478683 3934.854297884507,3235.382384173572 3934.292144640116,3234.184705636988 3939.3634659555973,3224.7762471208116 3939.8510537955444,3223.4106493366417 3946.6769922845997,3227.0568255551625 3947.533620622242,3226.8431058126735 3960.0766284801066,3213.1735172309563 3960.1287660088856,3212.7651976011693 3942.0061687467387,3197.7810811061063 3941.1218696534634,3196.8860095456475 3936.45920170669,3188.1390544373426 3936.0712285867194,3186.3011789814336 3937.5829256534344,3169.266591366206 3937.4559314489597,3168.390109553002 3928.3056494934717,3153.879108578898 3928.1454503822606,3152.1986194594065 3922.4030404267833,3149.516402244859 3921.3023268978577,3149.7342055568006 3909.995764906751,3161.3104316328536 3909.493030968937,3161.127824956551 3916.3221734401304,3142.4071662591305 3916.4121762133436,3141.1154441267718 3899.6335038578836,3132.8455707166577 3899.2097043911926,3132.0250697626034 3913.3284889600473,3107.450497907179 3913.3034396445146,3106.1821821883786 3921.2676656355616,3101.422480637091 3921.6434053690173,3101.0126175945625 3921.6821444267407,3086.6152494334383 3921.856907093432,3086.1759536509635 3942.449774648994,3079.3244301133673 3943.132805404486,3078.4649672469823 3993.8771845690208,3085.9170984241064 3995.189943466685,3085.607451927557 3996.6812515556812,3074.3324590529082 3996.8359165156726,3072.0565389931435 4001.627035022364,3073.0684084662353 4003.0903810844757,3072.8206768711098 4002.2966673068004,3062.642499544774 4001.3683862756006,3061.2990680214716 4027.9920221867505,3072.4455144654494 4029.619645155617,3073.2395035061054 4044.207376213395,3048.467213627766 4046.654053546721,3043.3261525029084 4037.4356141511817,3041.374327082187 4023.665772373439,3037.2607315899804 4026.9012118756073,3018.44532354048 4026.904998400132,3018.2273905312177 4022.0701892266516,2993.4622908884194 4022.11679260456,2992.1857420849265 4023.2856635734206,2989.085712388507 4024.3435602489626,2986.4447468820726 4035.4500189868268,2992.546777936106 4036.5548103111796,2991.7565098038176 4042.2447914667428,2969.6327553965966 4042.7102427022764,2968.2816246998264 4002.9211525690043,2933.143077786255 4002.4536624356406,2932.6990176805994 3974.0069606400793,2932.0721602255944 3973.5531602490228,2932.234001972596 3959.435540764476,2919.9903159841197 3958.9779538488947,2919.898020950379 3928.1337995377835,2925.5711955506704 3927.6488331378205,2925.4378838648554 3924.578253084561,2914.0383218684583 3924.5080567466794,2913.616963282926 3931.7146865777904,2907.351778849843 3932.0636293690186,2906.410046172212 3930.22891264013,2883.33098722226 3930.2560008533765,2882.580908472766 3934.7945873066783,2879.253685335396 3936.035402240115,2878.1566405593767 3927.620288568898,2860.141581494361 3927.7327192178927,2858.6831869918387 3935.6343219199916,2846.803825189243 3935.73015011556,2846.5406745767687 3934.5755514311604,2837.071949643956 3934.429624604527,2836.7548168108333 3937.3953470578417,2840.134867313376 3940.0837794133695,2838.666081613279 3949.1286212267587,2828.5038502876996 3949.190079431166,2828.4708422328113 3946.294262044481,2822.0948422530782 3945.981436871225,2821.309761637822 3952.6276610845234,2816.5773613388883 3954.9371497244574,2815.1699778942857 3951.376069120015,2810.9941670099506 3958.0473426489625,2805.672692636843 3954.618499128963,2801.4538752443623 3975.611864462262,2760.5984998816857 3975.7778889955953,2760.39503611729 3976.0170225779293,2742.9102824199945 3976.3202358045382,2741.1374110947945 3983.030248391209,2734.548701826541 3984.013579662307,2733.1479342372622 4014.4088851911947,2730.162069547223 4015.084634169005,2729.7113526348257 4029.8025634133955,2740.8375432026805 4033.9080297244946,2741.4528966656653 4070.759068160085,2720.3826442331774 4072.4306730667595,2716.048391175922 4082.5590434133774,2719.3593362052925 4083.237705102307,2717.888406263606 4079.8094441245776,2701.159903596039 4079.701673813397,2699.4032099082833 4082.6283659378532,2688.4284666341846 4082.413990400033,2688.1204928726656 4055.2529592888895,2668.4860535081243 4052.3746181689203,2668.0642250532983 4053.1231849244796,2660.552418598847 4053.36930901336,2659.131092425727 3998.752189155668,2643.053040496772 3995.713940195623,2640.373548670439 3986.964738560142,2603.9409210183658 3987.054158791201,2601.4444708725205 3997.1041772089666,2563.710289651528 3999.2295825066976,2561.1298697505845 4037.7982466846006,2554.298622519651 4037.9435909689637,2554.266466565896 4044.957399324514,2547.592664697906 4045.2451751822373,2547.54264279973 4045.7435400533723,2535.600482592825 4046.082870897837,2535.3128408542834 4059.780477440101,2538.2682971454924 4060.544772835565,2537.825226885441 4062.329099662369,2533.9384977315785 4062.127540053334,2533.4601331951562 4051.094190364587,2530.650669699302 4050.931952355546,2530.1513050260255 4056.9755366401514,2518.239022447844 4057.3547716266476,2517.3434200093616 4072.696021048934,2514.8165061033797 4073.358954097843,2514.5699327846523 4085.8367172267754,2494.853447121044 4087.3868620800786,2492.182425912353 4087.4515242667403,2479.3732248253655 4089.075069440063,2476.622491045622 4099.256742400001,2472.162807048764 4099.872198257828,2471.247805611347 4085.8177846045,2449.941672148183 4085.564087466686,2449.4188895184197 4093.9826963911764,2442.40499254677 4095.6880887467414,2441.0760937132873 4083.0929433599813,2429.2479149347637 4081.307742720004,2427.6012140164967 4076.825954133412,2433.1253218619386 4076.341861546738,2433.60435137467 4054.3829324800754,2433.2839558179257 4053.7741758578923,2433.5891582904733 4040.76163896895,2449.101644753129 4038.669147306704,2454.8365552381147 4029.239536355599,2445.482787946705 4028.904283306678,2443.705732759263 3956.2586467555957,2421.2211929063196 3955.1934683022555,2421.168014114606 3942.8491073423065,2409.7932667593705 3942.069665848976,2409.7235497621004 3954.408783928957,2388.1562513203826 3954.1999425423564,2387.0424548160518 4005.0284990578657,2380.4748739489587 4005.600555520039,2380.1333937145537 4026.03875811561,2388.730131427408 4026.3839143823134,2388.7274497481994 4038.790024817805,2381.5095915803104 4038.8838141156593,2381.0733570081065 4023.2530412089545,2364.600846292218 4022.798075733357,2364.1493803129415 3982.352751786704,2362.015855780104 3981.4058294044808,2362.0301598056685 3981.6286518045235,2346.551319164224 3981.6851583999814,2346.3747413606616 3947.552553244517,2335.553604266839 3947.465463182307,2335.5334868096397 3928.8165390222566,2301.923140867031 3928.524976640125,2301.679905855446 3910.936570595717,2303.0083055554423 3909.713523200131,2302.530332975788 3905.196199537837,2308.7702749344753 3904.4132627911167,2309.5799878754187 3884.6912958578905,2299.7559253206127 3883.865542257903,2298.528557344689 3876.8109559467994,2279.4692694769474 3875.925491768983,2279.37581122329 3896.37709283561,2252.837873774115 3898.185303893406,2251.007383512915 3903.2808007111307,2254.52031925763 3904.644240782247,2253.9988609227585 3902.3032948622713,2247.4559295608196 3902.332130702329,2246.9970673296484 3905.6983509333804,2246.6102090517525 3908.0052181333303,2246.9219319024123 3917.4825975467684,2230.3825684497133 3918.4950559289427,2228.5107422308065 3901.9030883555533,2219.5235181349562 3902.453882026719,2215.2205415537464 3910.037707946729,2215.176258924592 3911.713099377812,2216.1267679451266 3933.289006933337,2184.7618269128725 3933.760574862361,2182.4373258121777 3923.723954915651,2181.653986668098 3923.1679183645174,2180.431327817845 3928.39594353782,2174.971108992002 3929.1328594490187,2173.8231260293396 3924.0833834668156,2167.9775360267377 3923.882406400051,2167.492558926693 3928.672651093453,2169.4373822244816 3929.628602880053,2170.445802347036 3931.300790328998,2164.8940656158957 3931.4991459556622,2163.9173856885172 3922.3299313777825,2150.6420721731847 3921.6489395201206,2150.255491766031 3922.3829427200835,2142.4011403158656 3922.44935253344,2140.9173997123144 3909.4467188622802,2126.9350241717184 3908.9996177067515,2126.072283187532 3910.83637333347,2112.2518566207727 3910.8468590934062,2111.793607157015 3906.9117863823194,2106.484735380218 3906.7023624534486,2105.657715910347 3926.759582435596,2112.3055576672778 3927.1603714844678,2112.337778288813 3940.19154972455,2068.39654465107 3941.3269245156553,2066.4024862010265 3999.3006526578683,2054.0899494984187 3999.6338668089593,2053.8522593228263 3989.8518178133527,2038.4197528415243 3989.020530062262,2037.1166132650105 3994.194670080091,2028.3042144533247 3993.9124283733545,2027.0995049956255 3984.050862364471,2016.3942678452586 3982.969664000091,2014.9589241528301 4000.8904103823006,1999.8527735172538 4003.321650346741,1997.8491381905042 4005.6081285689725,1984.4249818609678 4006.068919466692,1983.6798927589552 4002.060446435702,1977.9886540640146 4001.8108270933153,1977.7652106074383 4006.6220433067065,1972.8565617576241 4009.240279324469,1971.4925809310516 4006.6826276978245,1965.533237743657 4006.07620124449,1964.469692036626 4019.8763352178503,1953.7233373989584 4021.141034382279,1952.6274904808379 4072.9447665779153,1930.475611415226 4073.0577797689475,1930.316614278243 4086.5226606933866,1935.0484094045241 4087.604732871172,1935.9504172788584 4096.485589048942,1956.4994286071742 4096.579669617815,1956.8563456772827 4160.347362702247,1938.8781104673399 4161.852943075704,1938.368442957173 4179.094736497849,1947.437033805647 4180.485847324482,1948.4151240603533 4185.911936853314,1931.1281702903798 4186.2294223645,1930.7420993163832 4201.915536782239,1938.8279499212513 4202.202147555654,1938.519820601272 4193.368768568966,1920.6381746738916 4193.956844942295,1919.7298333129147 4183.930419484503,1915.6265738819493 4183.859349333332,1915.2041949385311 4197.693853297853,1915.6498651680304 4199.149917582283,1915.310797548038 4197.248208497884,1906.4729072559858 4197.488215893391,1905.2343827451114 4212.812862862251,1909.0896872561425 4213.200544711202,1909.3011066688923 4222.53287111118,1901.31316361262 4222.551221191185,1899.0886894738069 4214.701756017865,1872.448346239049 4214.4567970134085,1871.7427491625422 4192.2036841245135,1857.0980741074309 4191.96717198228,1856.144666889857 4163.029969635652,1863.6580128817586 4162.518788835616,1864.4957999958424 4150.9940647822805,1853.4694594076136 4150.921247004531,1853.3726835806738 4144.449785457808,1859.1921504323254 4143.573933226755,1859.5254803801654 4109.662111573387,1858.8915258116322 4108.936555235647,1858.821633888525 4093.3818040889455,1869.506327450741 4093.010433422285,1868.517581666354 4097.038421617821,1864.0621223592316 4097.345421368955,1863.716254870058 4095.761197795626,1856.9264790348243 4094.9502990222536,1855.6706499189604 4121.250915271114,1845.0923679951811 4121.713453795644,1844.8172631418565 4130.308573013404,1828.1364832785912 4130.459742720006,1827.1699557240354 4136.832463360042,1831.7068180062342 4138.06832668453,1833.2862962136278 4156.971239253413,1817.2902497611358 4157.852625635685,1816.456763670547 4159.731324302265,1785.598971702857 4159.8551145244855,1785.3134842807194 4196.891983928974,1775.521982193226 4199.803238684428,1776.892110626679 4200.802589866682,1764.3253325805417 4200.9855081244605,1761.6494545190362 4205.913524053409,1760.483173843124 4207.786979840021,1759.947991474648 4221.537015182315,1761.6378007074818 4221.922658133437,1761.363487732131 4225.616558364476,1774.3907346093329 4225.774427306722,1774.8245893638232 4231.337705528946,1770.1973587280372 4232.683086791192,1769.73973986099 4248.411144248908,1775.1154687759117 4249.901287253364,1775.1809053856414 4263.291894044494,1764.5678184114513 4264.272895146743,1764.6874924658914 4268.907601066749,1769.4990525716566 4269.27402012446,1770.8956626635045 4265.693424355588,1769.5066720988252 4263.919000746799,1771.2501922454685 4266.745495609008,1775.7384603652172 4266.924627342261,1776.5021828947356 4263.411897742306,1786.2049029609188 4261.60368668451,1788.9037865238497 4266.5710242133355,1795.118442581559 4268.273212586762,1795.4845850722631 4251.624155875645,1810.0222341959598 4250.786460160045,1809.7614254179643 4255.754088960006,1812.3556075388915 4256.4164394667605,1812.557709575165 4263.815016960027,1832.9910130660282 4264.511737457826,1833.810546043911 4268.0451473067515,1860.1854184218682 4268.613999786787,1862.0724808214 4274.303689671215,1859.348958938499 4277.5912667022785,1862.2355595268891 4285.915795057779,1845.5646155880531 4286.058517902275,1844.9570558790583 4296.374175573466,1840.3823819749523 4296.8195291023,1839.9320783638395 4305.70038528007,1842.6612177327042 4306.982560711098,1842.876285556762 4314.153072924586,1859.7781656487496 4314.32929194672,1860.1625692764064 4345.987257742207,1846.476848101127 4346.208041244536,1846.4481728734681 4355.484443591209,1825.5057439307566 4356.811474773451,1824.4710943231476 4328.010004764539,1788.0867749575991 4327.991654684534,1788.0235830422025 4378.967594382237,1766.2679010141874 4379.858883982291,1765.55972161924 4378.2231054223375,1739.9059517758433 4378.114170026733,1738.7561415926903 4352.121718613431,1739.9669162022183 4350.325740942266,1739.194549460546 4340.281839217874,1719.906016588211 4340.057269191253,1719.1246130604995 4355.044624213362,1699.618211984518 4355.083363271202,1699.5321287341649 4341.172837546794,1701.0681716605905 4340.430678755627,1700.7498449084815 4337.352816924453,1710.4545682410244 4336.263754240004,1713.1409334394848 4301.046455466654,1689.1678173666005 4300.111183929024,1688.6678825530107 4300.936646257876,1681.953849450685 4300.747611306724,1680.7337870600168 4289.900966400048,1670.953762220568 4289.529595733387,1670.0968514727429 4298.441326648928,1661.6428059552563 4298.926584320026,1660.7589530849364 4299.971665066783,1649.4559951619012 4300.055551146739,1649.105753365322 4275.253816035576,1636.828999218822 4272.478002346819,1636.336120851105 4277.942830933374,1627.099492110894 4279.676767857862,1626.6348473490216 4277.386211840087,1623.4442002797732 4277.474466986721,1621.00610920717 4304.98647978669,1624.117854957818 4306.167584142298,1624.9341314905323 4319.994223786751,1639.6158266009297 4320.268018631148,1640.0629534805194 4327.857087431126,1655.9925436083577 4328.478077440057,1657.4073650133796 4328.215642168885,1668.2063447626424 4329.0408132267185,1669.1444255543756 4363.295169706806,1663.3705912668956 4364.091504924581,1663.1427916459506 4372.179229866713,1654.5082045340678 4372.962749155704,1653.1113022485515 4375.687881671125,1636.8043329028296 4376.252073813463,1635.8257506377995 4395.630049564526,1623.753220558574 4397.37301589339,1623.8101807076018 4411.1725673245965,1594.713280631171 4413.43020970677,1589.0760978712933 4420.386637653341,1583.261129544233 4421.86425600003,1581.8619793207617 4437.122201884515,1584.3476068281452 4438.227575751138,1582.964612720185 4448.786444800091,1547.9449970029527 4450.7117468445795,1541.5393826884683 4460.1812619378325,1525.6535315898363 4461.801603129017,1518.0262990754563 4455.798796800082,1508.9911091257236 4455.570731520071,1508.3197933477932 4453.560378311202,1483.8584453853546 4453.344837688957,1481.7571948283585 4433.397135644569,1454.5383018891443 4432.9069263645215,1454.0521954868454 4409.949519928894,1459.683871838497 4409.239400960039,1459.7799237236613 4391.686821262352,1453.000083388819 4390.8351445334265,1451.2917370392242 4371.649407715653,1462.180758348899 4371.062205155613,1462.151584034611 4373.896273066755,1459.2507401512703 4374.069288106752,1458.7507300727302 4368.972626204486,1455.9687860400882 4368.675238400116,1455.5343004693277 4367.295195875573,1442.337288876006 4366.7624610133935,1440.3658158251783 4365.349504853366,1444.4793155558873 4365.453779911157,1445.2693284976995 4349.093081600149,1435.509326995234 4347.994989511208,1435.1645790844923 4349.9639822222525,1431.2080193432048 4349.661060266779,1429.9762371394318 4342.095001884503,1423.7664950488834 4340.647675733431,1422.5440983008011 4335.458680888987,1403.093920120038 4335.177312995656,1402.5892924244981 4330.762516764458,1404.6513447163743 4328.809252693434,1402.8847062875284 4329.931520284503,1389.8686094820732 4329.762291769031,1389.2382356238668 4354.797626311192,1384.4461676959181 4358.444631893421,1383.4579281644546 4358.4929828979075,1376.8683534446172 4359.2465012623,1375.4759683865122 4364.838615324581,1374.489484489197 4366.267882666783,1374.1123115031514 4364.497245582286,1368.3639353011968 4364.51646947558,1367.9607081306167 4377.642019555555,1361.5556728841038 4378.313399466802,1361.6616466663545 4383.558609635569,1344.937362191442 4383.688516551163,1343.831286216271 4378.8336096712155,1333.5651260371087 4378.61544760887,1332.738333429501 4385.637411555625,1332.2627354002325 4386.4008331379155,1331.7000104316394 4383.364623075584,1323.1448860747041 4383.301417244482,1322.0575633004191 4388.070690417779,1315.961988565803 4388.583327573375,1313.8070285090944 4390.118908871198,1289.3145402800874 4390.226679182262,1287.9876303615747 4385.293420373346,1271.435618310934 4385.294876728905,1270.5942160658306 4369.9011985067045,1247.355772635201 4369.946636800072,1247.0282505296636 4343.337273173383,1224.1314901759033 4342.993281991105,1223.9616459644167 4339.3695780978305,1199.122085499228 4339.214913137839,1198.3958952450193 4322.708870542236,1173.5687172797043 4322.353519786731,1172.611885502236 4289.761738808942,1176.5825527742272 4289.32221070223,1176.4850284750573 4263.375197582296,1147.043739070883 4262.761489351164,1146.1124120032182 4258.096491235658,1124.468730321969 4257.420450986712,1123.0486682433984 4190.164203804568,1113.4469370467705 4188.73406264896,1113.0976363039808 4164.186607217882,1093.3133581756847 4163.846985102282,1092.611994372448 4147.483665351174,1095.7699121503392 4147.043263431173,1095.9124309992767 4123.833324942272,1075.622568660474 4123.976921600057,1075.0479436177993 4107.243687537848,1100.393859688891 4106.859500942286,1101.0030355844647 4091.653692586813,1091.1301311585703 4091.0976560356794,1090.6360246608383 4089.042738346732,1096.0063944798894 4088.1042628267314,1096.5211697709747 4080.4787851378787,1092.8857962782495 4079.729635840049,1092.64301628049 4081.364831857849,1088.3358745574951 4082.372047360055,1087.1246442920528 4069.4646593423095,1063.6796799381264 4069.1789223823,1063.010596319451 4029.7716886756243,1049.0749365933007 4029.2928389689187,1048.6293010171503 4043.237734684488,1003.4859015708789 4043.846782577806,1001.6917382773245 4023.7557751467684,1001.4924858440645 4018.93436444446,999.5719169785734 3995.500147200073,980.7971319361823 3994.4850673779147,979.9982457750011 3960.9504418134457,924.0361252764706 3959.8104066845262,921.8174644229584 3946.5817466311855,910.7629699929967 3943.0328994133743,908.631019006134 3901.810755413375,896.3446731904987 3901.4117139911978,896.5939708279911 3887.9037249423563,883.0860398188815 3885.9647331555607,881.7508167803171 3842.8062188089825,884.5495105190785 3842.548443875625,884.3911033385666 3839.014742755564,881.8165205648402 3838.727258168976,881.4312980946852 3839.0342579199933,867.6749014076777 3838.7636670578504,867.2000929462956 3820.805637973477,856.8715164079331 3820.521648640046,856.6991367968149 3809.133239466697,830.8217522179475 3808.585358506767,830.3122036721325 3794.2300617955625,833.1286599006853 3793.4514941156376,833.375328785798 3786.8078913423233,851.1073026324157 3786.544290986727,851.1698649927275 3766.061523911194,843.1599371085176 3764.977995377849,842.6976784475264 3734.513949866756,813.8354111562949 3734.260544000077,813.6940591016319 3709.505120995571,815.4064835798927 3708.7976234667003,815.5109212324023 3683.739861048991,830.3383113120217 3682.877698560129,830.3635186854517 3679.4960409600753,825.2981287008151 3678.8400984178297,823.3427028598962 3683.174503822229,813.341578898835 3683.0891613867134,812.5749437521445 3676.9914006756153,798.5215910754632 3676.2673006934347,796.0081260567531 3652.143936000066,780.0352659421042 3651.2558503822656,779.4134903030354 3650.881275733467,771.5729325066204 3649.628227413399,771.1217789668008 3621.3874542934354,782.9383629983058 3620.5567490844987,783.4138045039726 3614.2673319822643,792.4569014894078 3613.5694464000408,792.855786837521 3582.092942506657,785.5334686497226 3580.816009955597,785.1719386003097 3574.369015182252,786.2785878513241 3573.706955946749,787.0421635675593 3573.9149235200603,793.9002687293105 3573.2793699556496,794.3347177035175 3563.376152177807,789.45848496916 3562.9893441423774,789.5530302614789 3561.271427129046,798.0677918961737 3560.324504746706,799.3486016438692 3550.9709155556047,798.9452261662809 3550.01175978675,799.326542066643 3543.8038985956227,807.3367235901533 3543.2289294222137,807.0657156642992 3525.258375680074,790.5480044321739 3523.7460960710887,788.8133248131489 3520.9810594134033,780.4634391603176 3520.810665813391,779.6899353018962 3524.608258560067,771.4266003725352 3522.3864425244974,767.4584858485032 3502.525248000049,751.9784142415738 3501.3083172978368,750.1362582903821 3506.369444124517,740.0962132646237 3506.8241183289792,739.2365557789453 3504.2227760355454,728.9474229367916 3503.953350257827,726.1278242686531 3487.078849706799,711.1217781894957 3484.1247780978447,709.9075585078681 3483.785738524515,702.093335170066 3482.9104688356165,698.4851866285317 3473.811450595618,687.755874110153 3472.765496035572,686.3937844572356 3449.9144035555655,672.5877345001209 3448.209593742271,671.123746628291 3445.529608248966,675.9490135859814 3444.8110424178885,675.9625270669931 3397.9449380978476,658.6911667648237 3397.4856035556877,658.4483552614693 3387.4443232711637,681.0953372103395 3382.954379093484,681.0435367441969 3343.2861664711963,657.801457250549 3342.817219982273,654.6984825372929 3303.7149471289013,656.7883102126652 3302.3838381512323,656.2369111868902 3269.710209991201,625.0008602687158 3269.3563155911397,624.669702608604 3267.0724588088924,605.053010810283 3267.136247182265,604.2541037257179 3272.4994221511297,590.385639103828 3272.490975288907,589.2946717878804 3267.753159395652,589.8552521209931 3265.367648995598,587.7634329766734 3260.627211662242,576.9056599182077 3260.339727075654,575.2093940115301 3271.9247442489723,573.8285769816721 3272.6269988978747,573.3725088674109 3271.9643571201013,562.705110846553 3272.1099926755996,562.0655912397197 3261.921620480134,566.4272671286017 3258.3136452267645,567.5958642131882 3252.1678247823147,558.9887501875637 3249.8795989333885,555.1866937442683 3231.979824071168,560.3876884127967 3231.124652088969,561.1029281782685 3227.5711445333436,570.5702829190996 3227.4913362489315,572.3657306311652 3232.656155591132,580.501844338025 3233.592300942284,581.7050657728687 3205.6946451911936,606.8107763618464 3205.108898986713,607.3794224343728 3194.6321683911374,606.4070457647322 3192.752595911268,606.266010235413 3162.8448782222113,644.1526345303282 3162.713223680039,644.3251816512202 3156.359435662278,684.1605516570271 3156.2140913777985,686.7063811788685 3164.0076324978145,715.0382212739205 3164.2965734400786,716.5014649671502 3157.4024775110884,720.8524066428654 3154.7338515912415,720.0768906142912 3151.448022186756,729.2914826413617 3147.207697351114,729.7355170100927 3108.214068622212,721.4698451394215 3108.148532622261,721.4905614992604 3125.16604728892,769.143806412234 3126.4758934756974,771.4360556826578 3104.119379342301,779.5805279581109 3100.240521955653,780.1275641304674 3097.907731626765,790.0788814274129 3096.317391360062,794.8583063575206 3050.1951934577664,783.6357668987475 3047.458992640022,783.0351622522576 3007.448827733402,798.689964737976 3004.0106635377742,797.6437049079686 2984.50831502222,769.4130602718797 2984.028008960071,767.7691657419782 2964.3628398933215,750.6014142631902 2961.3942047288874,749.6611947806086 2965.875410773442,742.2086416980019 2967.87207424012,739.508098031627 2941.096686080098,743.2222938913619 2939.1807047111215,743.6991726194392 2905.9064755201107,718.9352287414949 2903.144060302293,717.8980451579555 2867.488981048926,719.9944749863353 2865.032983040088,720.4862661426887 2826.587235271116,687.2513974495814 2825.510405973415,686.2455936362967 2827.220749937813,671.1791531168856 2827.0372491378803,670.4642731987988 2826.4503378489753,670.3399460179498 2816.893441422377,671.4327614993672 2819.6657598578604,662.8657706314698 2819.7586753423093,662.5743122597924 2804.4718936178833,651.3395799298305 2802.5847480889643,648.514475856442 2825.441083448939,614.2192807516549 2826.59393450676,612.4412986290408 2829.3170281244675,599.2172720708186 2830.983681422309,596.4297968588071 2850.669822008931,587.1546296350425 2850.981190826744,587.1798650403507 2851.818304000073,548.4432442326215 2851.8605383111862,548.4319764314569 2846.4656147911446,532.1110837450251 2846.347649991163,531.8099854110624 2810.721989120124,566.9185022981837 2809.687685404555,567.4164964585216 2795.8686188089196,550.5665383264422 2795.0221849600784,549.3424128959887 2756.6451771734282,547.1185975469416 2754.954639644595,546.1342342823045 2739.116481706733,529.2794809329207 2738.108101120102,527.3092370957602 2728.678781440016,494.612136899028 2728.2144952889066,493.76143223344116 2716.741908764583,495.01652476063464 2716.4270446933806,495.4659940034617 2716.545009493362,491.42524585087085 2714.825636124471,488.29691704257857 2688.8917302044574,483.77137817273615 2688.6324989156565,483.7339580047992 2679.5777538846014,466.98035059153335 2678.9521035378566,466.69945218082285 2666.87978979561,474.80297837010585 2666.1865645512007,475.16817778523546 2643.892091164482,461.2329078853945 2643.4854766933713,460.6774084357312 2635.7379564089933,474.64833201421425 2633.1191378489602,476.8873120229109 2628.5933673244435,474.2799756760942 2624.7759681423195,470.45705850655213 2618.80782307568,479.1713545923121 2617.4787529956084,479.6830742411548 2589.674595271121,481.0108346170746 2588.1492084623314,481.4021729787346 2584.3099639466964,470.0237693026429 2584.1716101689963,464.5077107750112 2588.7253427200485,449.88637124409433 2589.863338951138,446.46615239570383 2581.821926115663,440.77859551121946 2581.685902506695,439.11283887247555 2598.9323562667705,394.87861364218406 2599.1336246044375,394.3743629484088 2605.2278900622623,389.7580245726858 2606.394430862274,388.62410885840654 2609.03829873784,371.952523396234 2607.2382432712475,370.0620555594214 2598.7261363200378,366.7407287526876 2595.1563175822375,364.9381785019068 2588.092410595622,377.8958204196533 2586.442359751207,381.8069593643304 2571.450053120032,376.98421864188276 2570.7125546667958,376.19846086692996 2561.554408391239,381.3180144416401 2560.4598115556873,381.63194968376774 2541.9914754844503,372.94624164130073 2540.625122702215,372.8028000674676 2528.2638680178206,358.59034063870786 2526.9613036089577,358.4514006815152 2482.120698595536,374.53401629661676 2481.3304800712503,374.7992457112414 2474.9498951111455,364.5209193803603 2473.4518877867376,363.032763875206 2454.941608675639,359.81733902334236 2453.301752320025,359.462773286039 2457.9350018844707,352.9564349920838 2458.8542535111774,349.5716911162017 2452.705229084473,334.288488964783 2452.073462044471,333.5129542424693 2442.8524012089474,329.41010870132595 2441.4059488711646,328.6733568914933 2435.260710968985,333.8350789465476 2434.4605892266845,335.46599715575576 2428.1158306134166,332.1301586275222 2424.2637701689964,331.1967102459748 2427.35706936894,326.53933426440926 2427.2769698133925,324.4896603533998 2422.1718610490207,325.6667701728875 2418.056200249004,326.49782664095983 2424.211923911236,315.18174231471494 2424.76242631115,312.5765370914014 2417.171318613342,304.35915356501937 2417.7905609956942,301.91219780483516 2407.4213094400475,308.0067498230492 2405.218134755618,305.3044481484685 2404.0693614933407,281.22185005038045 2404.0268359112088,280.09729887353024 2394.1399293156574,277.0214503589086 2392.9914473245153,274.7894474918721 2396.9737059556646,264.6372923121089 2394.7888813511236,262.34333451476414 2386.8150434134295,266.7182156847557 2385.4917987555964,268.4164258191595 2381.1559369956376,282.04540412290953 2380.546889102203,283.44792084535584 2363.192082489026,280.0503672379418 2362.046513209003,279.4470240632072 2355.201642097789,258.61283744941466 2353.5847961601103,257.90834131778684 2339.656211626716,275.6238564081723 2338.2549063111655,275.07871562743094 2324.7769181866897,263.8362375848228 2322.5580148622394,260.78588455717545 2321.5653629156295,250.6619635380339 2325.9408375467174,245.01489364460576 2336.467375502223,244.43492335779592 2337.6039153778693,243.30296135111712 2331.2475059201242,235.75098179583438 2327.8207012978382,232.57204931112938 2321.6469188267365,229.38720275193918 2318.9814968889114,228.7602483209921 2299.9349876622437,238.56021147337742 2299.089136355673,238.65364120993763 2289.9761371022323,230.66999375604792 2289.3679630223196,230.43257417343557 2278.401896960102,231.64855691685807 2277.4523531378945,232.23849116946803 2261.5297265778063,206.5349279731745 2259.3282995200716,205.52600718731992 2251.3428107379004,215.5576776912785 2250.7812400356634,216.94978779775556 2248.8876865423517,234.29128746065544 2248.202325617778,238.11924063175684 2236.2130241423147,249.46729908051202 2234.2017971200403,249.89560983184492 2209.5797762845177,246.06786300067324 2209.0901495467406,245.66075757623184 2200.1851178667275,254.39575559692457 2198.1808813512325,254.7482352691004 2187.367150080041,226.01318271056516 2186.672759751207,224.75880130275618 2193.205970773357,212.13469219155377 2192.6318754133536,209.9399447963806 2168.142965475563,216.2248444070574 2167.658872888889,216.36522902478464 2170.503135288949,222.074879358639 2171.9187128889607,223.73281216225587 2159.323276231182,223.81947751133703 2157.681380977854,224.0144744210411 2136.116832995671,237.8732534397859 2135.0799078400014,238.6067006709054 2128.680390257854,232.31657722120872 2126.026619164506,231.79750756704016 2111.8621050311485,241.5549080221681 2111.3867505778326,241.4953304353403 2090.3936765156686,230.06109776895028 2087.649902648991,229.74829879991012 2082.5646003200673,236.56703424232546 2079.6215970134363,236.24386339460034 2074.779506062274,228.49980667850468 2072.4015687111532,227.99381778179668 2062.6882596978685,231.086605821969 2061.9723153067753,230.22133371955715 2056.37408455112,242.32625576737337 2056.0944642844843,242.22018997208215 2048.76054897788,232.25474029232282 2048.5388916622614,232.13558002957143 2055.7239674312295,224.48345933156088 2058.942804480088,220.1849199195858 2053.6410877156304,213.0009387449827 2051.9100635022623,210.61254558037035 2054.1441129245795,199.80644421995385 2054.1269279288827,199.50398486619815 2041.167984924512,202.79354641935788 2040.800109511125,202.71635266480735 2029.4623815111117,191.59700706065632 2028.2865200355882,191.2895703986287 2024.080273920088,199.41053838422522 2023.5105476267636,199.3559150598012 2012.034465848934,190.6543805062538 2011.305414257804,190.03137796453666 2002.9741866667755,171.88542361021973 2001.477053155657,168.31230831926223 2008.0632755199913,159.99151799204992 2008.8776695467532,159.07178233365994 2007.1338294044835,153.02093587012496 2005.1572636445053,150.97189099050593 2000.441001813393,147.87164683127776 1999.2718395733973,148.1529553916771 2000.6696496356744,157.41832537634764 1999.8112736711046,158.83699401421472 1988.1219814399956,159.24516431509983 1986.4442598400638,158.97380339261144 1964.869517368963,133.8387212633388 1963.951139555662,132.3936991210794 1954.7166802489664,136.4790229635546 1953.8827710578917,136.66100256162463 1941.4166587734362,129.4422116865171 1941.3409282845678,129.4390506473137 1925.276743964525,113.31399458064698 1924.2712760888971,112.7856098106713 1928.2762538667303,108.93333007115871 1929.8153304178268,107.66382416983834 1921.3868182756705,100.61569666583091 1920.4136814933736,98.88637316174572 1905.9578962489031,93.49688406521454 1905.5932248177705,93.05155537615065 1895.3148498489754,99.3059465107508 1894.9822182400385,99.3353030657745 1875.6292918045074,87.28794462932274 1875.0875275378348,87.49390340584796 1870.646516906796,73.26467602001503 1871.698005617829,72.08259170304518 1866.4402707911795,73.88710836914834 1864.642545493436,73.67436137248296 1854.2665947022615,51.861047850572504 1848.7344824889442,44.85403526423033 1825.0200624356512,41.39584643638227 1820.140688782325,39.33355622238014 1811.362360035535,26.651285502011888 1809.73298944009,25.26925658422988 1793.278501831228,19.657017870806158 1792.3700272355927,19.326748804887757 1778.4376561779063,5.211006591445766 1778.2762919822708,5 1771.4608392533846,8.899748402473051 1770.8817922845483,10.10205511469394 1772.908747946727,35.50256891688332 1773.146425173385,35.855853814748116 1768.5149232356343,31.699072919087484 1768.2795761778252,32.00402366963681 1763.6463266133796,54.12469265895197 1763.7925447111484,55.02951158763608 1754.329437582288,57.147667646291666 1753.0953218844952,60.15524228900904 1739.2121756444685,42.67251403309638 1738.0957334756386,42.15344519959763 1709.3379541333998,51.91977371589746 1708.8535702755908,52.20301285979804 1714.9551175112138,62.216432405868545 1716.9101292089326,62.724160668381955 1709.5412613688968,64.2387558465125 1709.4419379200554,64.24011098215124 1712.6826203023084,66.14361652417574 1713.7454685866833,65.92092439788394 1715.690285795601,80.775301456335 1715.9710711466614,83.83584788662847 1680.964652657858,90.62887913302984 1679.4780049066758,90.36782106559258 1685.7473243022105,106.10572252760176 1685.6771279645618,106.52212063473416 1683.3239486578386,107.75143883051351 1681.7455505067483,108.86197418998927 1675.3058375112014,94.84460754640168 1675.246126933489,94.7402767026797 1658.1042395022232,79.55576834670501 1657.651604195591,79.24139870755607 1632.1671296000713,77.14378280576784 1631.9702303289669,77.06518957018852 1590.894013155601,116.42421303736046 1590.1040859023342,116.075122915674 1585.8267696356634,122.81250887818169 1585.4877300623339,122.64496865478577 1587.7538193067303,136.62036196968984 1587.4299258311512,137.74068484985037 1565.7057612800272,132.74863357061986 1563.181314560119,133.48424015415367 1547.6239419734338,151.22971589665394 1543.4919699912425,156.38660162629094 1539.9189472711878,169.39499461150263 1537.9554887111299,174.3934320929693 1540.8402377956081,176.67386629385874 1541.604241920053,178.156519511831 1539.6696192000527,190.2264050382073 1539.7922443378484,191.40198121074354 1548.3591102578212,198.19392474065535 1549.5183692800347,198.5762897587847 1549.9485767111182,209.3616870303522 1550.1539228445617,210.54618841398042 1565.3941011911957,202.5542908340576 1566.9690040888963,202.30194362142356 1579.7878456889885,207.7370498770615 1580.2550445511006,207.78851120028412 1579.4499712000834,221.0263082284364 1579.4770594133297,221.26960606779903 1590.3379766044673,237.54647369578015 1591.041105066659,238.23794627853204 1589.6293139911722,251.92567402590066 1589.6063035734696,252.26145872625057 1608.8086428444367,262.0815789955668 1609.2988521244843,262.142504877178 1595.9431978667853,267.53595763636986 1593.8204140090384,268.11947692593094 1600.111287466716,283.89692284865305 1600.6064483555965,284.96414501289837 1586.5386362312129,295.90501502226107 1585.2168479289394,299.3672986479942 1578.2688668444753,297.42701873910846 1573.7535820801277,300.5156655010069 1570.3497878756607,312.19888353161514 1568.8704219022766,315.0806750085321 1543.771590257762,314.7427308637416 1540.847228302271,316.24655573652126 1537.044975217781,307.89259415853303 1534.8805395911913,303.80821865430335 1519.227338808938,311.29558049340267 1517.022999040084,312.37575361930067 1482.446496711229,294.1492602399085 1481.7189014756586,293.9430449898937 1483.4376923022792,304.6095780652249 1485.849125831155,307.05289393966086 1472.2575419733766,314.3799704791745 1470.4414665956283,314.9787052682368 1460.4083419023082,295.9253205077257 1460.0046401422005,295.9645777744008 1463.329499875661,282.0463066461962 1463.1229886579094,281.5368316458189 1449.9447185067693,286.4388434253633 1444.000166400103,282.0715772974072 1434.8877496889327,306.05977844668087 1434.778523022309,306.42435748910066 1410.6414685867494,332.7171147027984 1410.1256274488987,333.2986553318333 1410.820600320003,342.6743745114072 1410.7349666133523,343.79093441553414 1402.5260728889843,359.2872946104035 1402.296842524549,359.55660244298633 1409.6240585956257,362.46709071006626 1409.858240568894,362.809923106106 1401.379047253402,371.26959321286995 1400.144640284474,372.5650837927242 1400.3432871822733,390.4535260502016 1400.381734968978,391.17608749790816 1398.5484745956492,391.8161071599461 1396.46559488005,392.6730720603373 1391.9325425778516,380.62564130075043 1390.2693845333997,378.355002853903 1375.782142009004,376.04239153518574 1375.2138720711228,376.2110907501774 1339.8095772444503,419.41680700337747 1339.447235982283,419.6833348941873 1333.6963791644666,408.6052418004256 1332.5123620978557,406.9383379674982 1307.7604343467392,393.29143780411687 1306.6029229511041,392.6572858951404 1247.5902307556244,435.91837455076165 1246.636317866738,436.6326687615365 1242.2573479822604,430.8280588310445 1242.051710577798,430.76943473133724 1236.9620391823119,435.61849655071273 1236.4406638933579,436.47889728832524 1208.4506752000889,431.62399216671474 1206.0342900622636,433.02419646893395 1203.8139303822536,425.4138314285665 1203.1099281067727,423.9400704827858 1196.7453630578239,429.5008955550147 1196.0521378134144,430.30449996882817 1198.071811697795,440.54005128121935 1193.791000177851,442.34919308207463 1192.4065885867458,440.62167041376233 1191.8316194134532,437.5467274566181 1162.236726897885,439.5313084368245 1159.6155781688867,439.62149573792703 1157.7389184001368,467.1909114427399 1156.964137244504,469.17837946582586 1143.5289659734117,462.01114581199363 1143.178275555605,462.07787755620666 1144.8265787734417,473.2492960152449 1144.9221156978747,473.82369989028666 1117.2481561601162,486.9385438748868 1113.36347335123,488.11703339393716 1117.8012800001306,479.00634165713564 1116.373469013488,478.4450262323953 1111.0239837866975,496.79681426729076 1111.4550650311867,496.9708301393548 1102.2211882666452,501.8630538833095 1101.25038165343,502.75925846019527 1094.8703792355955,483.2984408804332 1095.0090242845472,482.20423409115756 1090.9923956623534,482.97518382035196 1088.8445624889573,483.8362998946686 1086.465168782277,494.834392527584 1086.3212808533572,495.65218309813645 1080.87975395564,486.3867164537078 1080.2249764978187,486.1797808116535 1061.155456853332,488.57102517492604 1059.3475370667875,488.87939641292905 1070.2157360356068,467.4213107713731 1070.9008056889288,467.3775754967937 1070.674779306748,449.48325264803134 1070.0730131912278,447.82793348352425 1056.916879644501,445.97780300537124 1056.0148130133748,445.7248348867288 1026.992559502367,470.97240552597214 1024.8887082667788,473.3286486028228 987.1816240357002,475.1235423340113 985.9798394312384,475.24707881337963 989.2627561244881,480.2525018347078 990.3072543289745,481.2001919763279 978.2477565156296,494.72619508957723 975.9432194845285,496.5109951511258 979.4262394311372,499.26773650746327 979.441385529004,500.077846697357 974.4877377422526,499.7144921364961 974.2037484089378,499.95838155481033 976.8179066311568,506.6501322174445 977.7019144534133,507.3123537491774 972.1092178488616,515.2588556990959 972.0876637867186,516.166274837451 981.6882508801064,520.472520086565 983.5086953245336,520.9399677553447 994.0308642133605,541.5869052599301 994.0911573334597,541.6928258836269 970.2908123022644,546.9694109084085 969.1475731912069,546.5277096902137 957.4046870756429,555.9875828693621 956.6494210845558,556.9367476124899 961.0886840888998,582.812294031377 961.0481974044815,582.8474440429127 965.8640739556868,585.9897421300411 966.4340915201465,587.3191103496356 961.42481095111,614.0291373830987 962.9102936177514,615.607953137951 933.0986953956308,623.8262620585738 930.128603875637,624.2484332959866 910.9105359645328,640.0466036198195 909.8060359111987,640.670126992045 913.5590641779127,650.4552465386223 912.0776593066985,653.7988458951586 891.6266407823423,679.067902853596 891.1075956623536,681.0876797509845 878.2718603379326,675.2409060165519 874.019010844524,675.7120770844631 861.7626137600746,684.8704320818651 860.705299626803,685.9329962562188 861.1017196089961,694.5328647597344 860.9278307555942,696.2836057736422 866.3807172267698,698.644629226299 868.3625258667162,700.4070477141067 865.3429182579275,707.3615485522896 865.9717725868104,709.319362129725 854.4613208178198,716.5708213043399 853.8578070756048,716.5374942360213 855.7085437155329,733.6601832312299 855.9846687290119,734.7495301984018 851.8390070045134,747.881611214485 847.9918981689261,748.3589300892199 853.64780060458,763.4434713709634 853.939654257847,764.9271036707796 849.5423342933645,782.1432568086311 849.6471918934258,783.7883940537577 855.9345700978301,796.9877640731866 856.5150734223425,799.1806786837988 852.3210606933571,807.4506188475061 852.4774732800433,809.1050195592688 861.9644646401284,819.0163061193307 862.4645771378418,819.4619590943912 854.4062705779215,838.5980720646912 854.7310378666734,841.1137487194501 862.4849661155604,847.6798481573933 863.9287970134756,851.4097622232512 859.7009968355997,853.0341251093778 859.3063244801015,853.1569982870715 868.0587300978368,876.4903997918591 868.834676337894,877.5263820608379 887.5893319111783,877.8639078055858 889.1042329600314,877.075896889437 901.1768379734131,854.2943595551187 902.4776547556976,854.3200142523274 934.5684494222514,899.6633684774861 935.1725457067369,900.013909760979 960.3642928357003,887.6685785587179 961.7047224889975,887.336918118468 1013.9549732978921,888.6653569120681 1014.3729473423446,888.847611605539 1008.8469518222846,901.6347621593159 1008.8746225779178,902.6818750271341 1017.0835163022857,917.0223625336657 1017.263521848945,917.5362088220427 1019.2936814933782,937.7570376052754 1019.4404821334174,938.3464200753369 1057.531752960058,985.7041902687633 1058.098275271128,986.8975392869906 1060.2714490311919,997.8173029256286 1059.9702747022966,998.4973805868067 1041.4838798223063,1017.7487295331084 1041.3714491733117,1018.893781334511 1057.627289884491,1037.125653573603 1058.053128249012,1037.711620743794 1058.8229577956954,1045.663620381849 1058.4373148444574,1046.7118435535813 1046.145965226693,1058.2370210937806 1045.527596657863,1059.1120644294424 1043.1732522667153,1073.8532762438408 1043.5982168178307,1074.2354626009474 1032.9120622933842,1067.3789380337112 1032.3764147200854,1067.408614581218 1030.0142060089856,1070.142886503716 1029.7322555733845,1071.079032935435 1035.9439032889204,1074.940032643557 1037.4031715556048,1076.6922305119224 1033.4308161423542,1081.8089097866323 1033.4136311467737,1081.9001816272503 1023.1501110044774,1077.6485820197267 1021.9040531911887,1077.046984802233 1021.6063741155667,1086.0374987295363 1021.1633507555816,1087.1098073541652 1014.7006273423322,1083.4648358389968 1014.2811969423201,1083.5691457224311 1012.8726098489715,1089.5907092436682 1012.6363889778731,1090.7825932194828 1001.0834116267506,1094.5681643520948 1000.0161942756968,1094.8338712230325 1002.2869438577909,1113.7989345293026 1001.8864460800542,1115.0769998166943 978.1166845156113,1125.7089732752647 977.1123817245243,1126.427313029184 962.5680500622839,1119.3476528186584 962.4282399290241,1119.0932141402736 945.0748896711739,1128.5544479747768 944.4777838934679,1128.8403419679962 932.2892529778183,1118.8257385326433 931.3440782222897,1118.8913712330395 929.546061653411,1126.7783906128025 928.5735074133845,1127.7781270265114 916.9605282134144,1131.9671707875095 915.8062208000338,1132.7673009517603 894.024384568911,1098.8131414945237 892.6079331556102,1097.6109608068364 882.875400248915,1092.753616090631 880.6326126934728,1091.3212093507173 878.3132208356401,1098.3383843147894 877.1659039290389,1104.1752186287194 875.2461360356538,1097.347055636812 875.2207954489859,1096.7679917304777 866.7579133155523,1095.674599808408 866.3483861334389,1095.8386988618877 861.4914403556613,1111.3592162163113 861.1098752000835,1112.622460525483 857.2589798400877,1110.9914803830907 856.4166237866739,1110.2115007479442 856.3248733866494,1116.2215429865173 856.7906158933183,1117.0792721260805 849.0081430756254,1121.4910397094209 848.8572646400426,1121.6591652272036 858.8941758578876,1135.5609909455525 856.5899300979218,1137.3140525595518 845.752314595622,1137.8876153142191 843.4614673068281,1136.4487610800425 836.7695135289105,1123.4240258447244 835.7890949689317,1122.0151953094755 840.2347659379011,1118.0516308161314 839.1640533334576,1116.800555478374 833.2704736711457,1121.4923883103766 831.134000071208,1122.994275052566 829.2346211556578,1118.6068128761835 828.7187800178071,1118.851362260466 826.2281207467895,1133.361103527539 824.9564310756978,1135.3798404459376 833.1568779378431,1139.7485374246025 834.5669213867513,1140.8511487934738 830.3364997690078,1146.1303913277807 828.2442993778968,1149.7540940665058 832.7805556623498,1161.3053140713018 832.7173498312477,1162.0307283450384 818.7940081778215,1171.2316853812663 818.5592436622828,1171.4366260985844 819.5399534933968,1179.2907447788748 818.8213876623195,1182.8163777183509 815.884792320081,1182.4869615171338 813.3038390044821,1182.7921096931095 810.521326080081,1190.459773126524 811.5646592000267,1196.7327487216098 807.5215249067405,1198.0790850052144 806.3101283556316,1197.6710507166572 807.1274350933963,1202.8302917811088 809.7713029689621,1210.1800120727858 814.1834777600598,1209.7854808901902 817.1564819911728,1210.049250677519 814.2091096178629,1216.4528725884156 813.06150144001,1216.6627137444448 815.556529777823,1223.2261021857848 816.9033673956292,1226.7047486727824 810.9337659734301,1227.9318323166808 810.9748352001188,1231.796359534841 777.5692427378381,1220.145059055183 776.7059151644353,1220.3288354836404 778.1485809778096,1202.0798479247605 778.2336321423063,1200.07700404583 764.5156366223237,1190.8031084795366 763.8841608533403,1190.1645222684601 757.9087340089027,1173.2990610249108 757.8076629333664,1172.460427951999 745.4778655288974,1172.9831133576808 744.7377456356771,1173.6882647798047 736.6535159467021,1164.1134719667607 735.9466009601019,1163.6631264043972 732.4647460978013,1164.6788745658705 730.3859441778623,1165.3247261473443 739.1537871644832,1167.0519315671409 739.5770040889038,1167.203392855532 736.4076831289567,1174.5143092577346 735.6966903468128,1175.366417164856 727.406240711105,1168.1669898174005 726.4007728355937,1168.2191246068687 728.8742471111473,1181.833071137662 727.9584907378303,1182.4348301220452 708.5085710223066,1177.7204828644171 706.7609443556285,1177.2647722343681 700.417933368939,1183.5561017900473 696.403634915594,1184.3537965784199 694.7751381334383,1175.830221341981 693.7189890845912,1174.213194384356 680.6123716266593,1167.695079521276 678.7042545778677,1167.7692369208671 677.4101370312274,1161.5210509091849 677.3938258489361,1160.996989805135 657.3610726400511,1161.587120273267 656.9993139200378,1161.7017303474713 658.8293703112286,1145.5883140459773 658.9828701867955,1142.851387623581 668.8901657600654,1145.5725820981897 670.2349644800415,1146.153764447372 673.1680645690067,1137.879973814066 672.9563104711706,1135.5394147152547 655.3813028978184,1138.4746615319164 653.0301624889253,1138.2328310447047 651.4037046045996,1147.7813365118927 650.1031790934503,1149.914107343182 629.9009060978424,1147.9435986261815 627.9505547378212,1149.0983080965234 629.4654557867907,1166.6501316775102 629.8834298311267,1171.4366260985844 621.6346319644945,1167.1656399032217 618.6147330844542,1167.356651797425 617.4508137244266,1161.2356490053935 616.8883692089003,1159.831556115998 589.3012084623333,1178.1541710948222 585.810324195656,1183.7897929582978 574.4190023111878,1179.4350069719367 572.1654377244413,1179.3788301167078 574.2014227911131,1192.7067224839702 574.8104706845479,1193.5228087873547 567.1893620622577,1194.5105567569262 566.1710782578448,1195.3684288833756 551.4659649423556,1185.591903020104 550.0002887111623,1184.0140463644057 544.7186696534045,1190.1016072701896 546.5970770489657,1192.8577166546602 534.1172750222031,1199.3535131994868 532.0405120000942,1200.4733501925366 513.536349582253,1196.8190295326058 512.5544746667147,1196.4730073253158 495.81716280896217,1206.0746961291297 493.4593231645413,1208.7546637195046 480.5979559823172,1204.3464501511771 477.9112712534843,1202.9520701526199 478.2316694755573,1200.6342251814203 479.889002097887,1197.3762589517864 463.52713870233856,1182.0191267431946 463.3130544356536,1180.8344801403 448.5491043556249,1177.8000298890984 447.49091640894767,1177.2396047557704 441.14586652442813,1184.7393854688853 440.8650811733678,1184.801852602861 436.31484387558885,1182.9049110467895 435.4681187556125,1182.101368663425 436.0483308089897,1176.1780738306697 436.06114673789125,1175.350687354803 413.60647424007766,1185.6539205090376 412.50313927116804,1185.6768400113797 410.16423224890605,1193.6248193616048 408.7247704179026,1194.456630686007 395.62863872002345,1195.1540735121234 392.7392292978475,1196.4743554648012 377.1454478222877,1180.0731750358245 377.1163207112113,1179.3073731361656 368.96014705789275,1181.4079289920628 368.10788778669666,1182.731889026356 348.1430007467279,1175.5686574790743 347.35074332449585,1175.7951664093416 349.1411868445575,1171.9745945696486 353.1420868267305,1165.7454050680972 336.16797155560926,1157.8552936146152 335.7045592179056,1157.542469897191 338.9784465067787,1147.413661802886 339.7610919822473,1146.8207962721935 325.97901681787334,1146.3838996459963 323.2466025245376,1146.2095003379509 261.30663566233125,1162.8226586579694 259.75794716447126,1163.5372811716516 240.667456000112,1197.834624024923 240.5678412800189,1198.2534430378 257.90138510230463,1214.85861244821 259.69707150233444,1216.0224055198487 274.8944329955848,1218.8743464292493 278.3885212445166,1219.5469982667128 287.2807369956281,1240.5433019184275 287.2431630223291,1244.3716642564395 301.94157710229047,1248.017105216626 303.2211310934508,1248.5494944660459 309.851044124458,1262.949122318416 311.1035099022556,1263.8157114511123 253.87980487116147,1278.8212214758387 253.62086485337932,1279.0377410913934 215.0906484622974,1273.5622447195346 213.4292380445404,1273.5671861594892 206.0126017422881,1288.2126755680074 205.13529315567575,1289.0805124045582 178.062517191167,1274.9727966940845 177.70308864000253,1273.4818339990452 155.22569699562155,1272.6040524845594 154.74946872889996,1272.704678588896 161.80463758227415,1293.475792689016 161.83755121775903,1293.9294650438824 155.2163763201097,1316.4241479369812 154.67723349342123,1319.991141133476 143.39863352896646,1326.1135507000145 142.99114524456672,1328.7278285771608 158.53395427565556,1335.9139006287442 158.9458116267342,1336.3266176949255 160.0593410844449,1346.8091012735385 160.02642744896002,1347.816366916115 174.52881607122254,1376.0475612585433 174.6878500978928,1376.456610702502 162.27678805333562,1371.3176190706436 160.62120305781718,1370.1245655179955 134.87225429341197,1372.9983003601665 134.31010104890447,1373.4684218350449 129.67830784013495,1386.2511189070065 129.44878620456439,1387.9110323175555 133.68940231122542,1393.7060386006488 133.82018304010853,1394.0513006633264 130.7536807822762,1400.989201910561 130.14405034680385,1401.872306059231 133.502114986768,1412.2362798856338 133.7412485689856,1412.5042955839308 125.43274012452457,1417.0591655607568 125.30632846232038,1417.2135967109352 123.51938019564841,1432.1767411584733 121.75223836442456,1436.0215100652422 123.20422485342715,1444.7257460345863 124.22105230228044,1446.3986829663045 138.85072640015278,1461.2081295032986 140.60913009790238,1463.2512285811827 153.37787306681275,1494.1862346144626 153.35486264899373,1494.358562261914 171.04608739563264,1510.6891339827562 170.85297464893665,1511.6633383994922 166.9659616712015,1520.6513031281647 166.679059626651,1522.0001391485566 159.15843953785952,1520.6889952652855 158.3524923734367,1520.834827877814 143.82971477333922,1538.4116592512 142.36462108441629,1539.9838270571781 122.52410680893809,1536.3948350249557 121.59640832012519,1536.396181076183 116.60110876453109,1523.5078103143023 116.5419807289727,1523.300057432847 97.42847914679442,1530.8831345001236 96.29747342236806,1531.6216852776706 86.44085902231745,1526.023713501636 86.39221674669534,1525.6284040677128 65.45768817781936,1530.052598426235 57.52783217781689,1530.8198684917297 56.03652408893686,1546.6061910626013 56.08924416010268,1547.3980796114774 50.131293582264334,1548.1863760252018 48.34900565340649,1548.7409186465084 44.983659235644154,1556.7313812427456 44.650153813418,1557.3940247317078 43.801972337882034,1563.79827894771 43.27855815121438,1565.9777016056469 49.941384817822836,1570.3795489548938 50.815198151161894,1572.8648579244618 74.93098979559727,1580.3591950174887 76.56880725338124,1579.386192766251 88.20508814230561,1594.8738666714635 92.43987882672809,1595.0474609460216 95.21977031114511,1605.490227217786 96.02979527122807,1606.7779889404192 109.10466417786665,1612.8506861120695 110.66995512892026,1613.6338136433042 117.06568618677557,1627.7327708395314 117.93134392891079,1628.280385037302 114.9289213155862,1635.6907579663675 113.26634581340477,1635.4902869689977 115.31456426670775,1649.010232778266 115.52602709340863,1650.6520151124569 121.87107697792817,1652.0067789950408 123.02917091560084,1652.7579271635623 121.87311587564182,1682.7062402972952 121.83204664895311,1684.4266857185867 137.21873436449096,1702.5656462451443 137.29999900446273,1702.6086872798041 114.97406833781861,1710.3043782952009 114.70435128896497,1710.155981561169 101.63064746675082,1740.9051386588835 101.77773937780876,1745.3465119093307 93.18786304013338,1743.8627769033774 90.50612992013339,1745.6593949295348 103.64391338673886,1762.2316960893804 104.31034168892074,1763.6530044768588 126.81802552891895,1774.2984059043229 127.06036309339106,1774.5825630569598 112.38379434670787,1806.521455495269 111.73571612453088,1809.2823789345566 118.77166108449455,1824.5544400329236 119.592463075649,1826.686018215376 111.42842510226183,1827.2228303131415 110.70549020450562,1827.1417260653106 110.5703404089436,1837.563600588881 110.60849692451302,1837.6451490563923 97.10516821336932,1869.7930494556203 96.94904689781833,1870.4874527602224 88.2455748267239,1869.5497837787261 86.10298453341238,1869.783193392912 76.18811591109261,1883.5624331501313 75.89189319114666,1883.7456547491602 73.93979420454707,1895.6842955828179 73.89814243558794,1897.076071934891 78.38779534224886,1900.758167039021 79.12354616902303,1901.038129166176 79.23714190232567,1910.415982367529 80.60698993783444,1912.1969050518237 74.37670087115839,1937.2984956295695 74.49204423115589,1942.0946315709734 62.9446010311367,1939.305370368762 59.35148060449865,1939.2776029790984 54.47560220444575,1952.8876818459248 54.225400320021436,1953.5804790381808 42.29173162672669,1953.211465162458 39.88117191113997,1953.8890350677539 43.3388512711972,1966.6066300226375 44.879966720123775,1967.5922476012493 40.34807950234972,1973.2192735528806 39.51766556443181,1975.2813458994497 43.86750833783299,1980.080235000234 44.42529251566157,1980.2508383474778 48.56396373338066,1974.4005455948645 49.291558968950994,1972.8955197199248 63.38383786671329,1972.679235773161 64.47377436456736,1972.1906929897377 67.33784320007544,1963.8745520029915 67.60144355567172,1963.3062790893018 84.9603279645089,1967.124292509805 86.45250986667816,1966.8238155571744 71.45233891555108,1992.3942323876545 71.42758087115362,1992.967803096748 58.00318663113285,1998.7804391175741 56.87771505780984,1998.9071494675009 58.3664017067058,2009.8594831858063 58.96292494237423,2011.1162220751867 53.34517902228981,2020.5287753358134 52.77370510227047,2021.7353115871083 46.75254869344644,2020.884693026368 46.512250026804395,2020.9061823779484 46.21107569790911,2026.3751540266094 44.984241777914576,2030.259223141824 52.98371157341171,2036.848911357869 54.43307662231382,2037.668579545978 54.366666808957234,2044.2607314836932 54.69434680894483,2044.9241436734446 50.30722133337986,2044.2029849838 49.814973155618645,2044.1506102381973 55.968075377866626,2055.861650843988 57.76143160893116,2056.9220685916953 44.83802368002944,2071.885096327518 44.22373290674295,2072.1093392872717 47.934818133478984,2080.9741381504573 48.56425500451587,2081.22656887176 46.84371655120049,2083.5132020382443 43.81041920010466,2086.6157165797194 43.92576256010216,2097.455823535507 43.895470364484936,2101.6040224452736 30.882642204524018,2108.1011735417997 30.60913863114547,2108.4547118656337 21.280307484557852,2105.2934325377573 20.265518933418207,2106.0649607351515 17.657186133321375,2125.7487544454634 17.686313244514167,2126.041407021112 26.50192469335161,2126.6146290561883 26.873877902282402,2126.907727957994 23.80854072899092,2132.4353658214677 16.797645084559917,2133.1687641413882 16.31442631117534,2145.0115329819964 16.12772152898833,2145.5717297683004 10.869986702338792,2148.955699648359 9.460817066719756,2150.142291587603 17.19027854234446,2159.433013499016 17.69709027558565,2159.909954965755 17.675827484577894,2167.67241218267 17.679905280121602,2169.0311495638452 5,2186.6461042281007" stroke="red" stroke-width="3.8709296011426804" fill="none" stroke-linejoin="round" vector-effect="non-scaling-stroke"></polygon></svg>