<svg width="250.1204087465303" height="369.14132789475843" xmlns="http://www.w3.org/2000/svg"><polygon points="5,90.2632460410241 5.101362346555106,90.52199448028114 6.471792924334295,91.58245059446199 10.071612586616538,91.25185441080248 10.531820942182094,91.46512765978696 13.369675377733074,103.7700485579553 14.555440071038902,109.41525492008077 15.283909120014869,113.16424569755327 15.51576092443429,113.85765412735054 15.82945991109591,114.49786138883792 19.189272177638486,118.7714693621383 18.909069368848577,120.99713147961302 18.858970737666823,121.67005445581162 43.73905777768232,125.5756946442998 43.68866787548177,125.74574071349343 43.70468778652139,126.09856314928038 43.84886698657647,128.34688338724663 43.58264519111253,128.59558391408063 43.94032611546572,130.88979875360383 45.305513813276775,131.54723278683377 46.53409535984974,132.83481567160925 47.859670186648145,134.06919676292455 48.16463103995193,134.90120658196975 48.11686257761903,135.61045833927346 47.883263146621175,135.92098257882753 47.10411292430945,138.6070214676438 46.19505578652024,139.57222334021935 46.211949510965496,140.34692772460403 46.44059733324684,140.44149238988757 46.63895295991097,142.47007640835363 47.2477095820941,143.97354410018306 48.47978638217319,144.5700182710425 48.702608782215975,145.66203457693337 48.36735573329497,146.02028019644786 49.90060686215293,147.18502900580643 50.57169550214894,147.9078793436638 51.188607715419494,147.9169717854238 51.50638449774124,148.25975656264927 51.36948707548436,148.59617611014983 51.57745464879554,149.0817104309681 52.638846577727236,149.8354684918304 53.209155413205735,151.04111225984525 53.06818019552156,151.24250685278093 53.880244053318165,152.93003163993126 54.475893475464545,154.55480740364874 54.517253973172046,155.82452438556356 53.268865991034545,156.22866833489388 53.2225538843777,158.72579757933272 52.6787507198751,160.71102440851973 51.53929813322611,164.4282185578486 50.62645447102841,166.2320144569967 50.68441742216237,167.6184905457194 50.12838087102864,168.99632080917945 51.245988124399446,170.2114043883048 51.343855217681266,170.70507276861463 56.78479957324453,168.62402111414121 56.55178268428426,173.47795904183295 57.25957148440648,173.28022160177352 57.81007388443686,173.34022470604395 58.04046933329664,173.50386945169885 58.43514168879483,174.43391474959208 60.14257294218987,178.14723776635947 60.30364586657379,178.3690623753355 60.54627470218111,178.50133882736554 63.73540209769271,179.78546171297785 64.43445276445709,181.04866758553544 64.52765951992478,181.3595814713044 80.51902606221847,178.37997177644866 102.05794218659867,174.37072997988435 102.17212046217173,175.93943418731214 102.31921237322967,177.76177151408046 102.35532999096904,179.0959000303992 102.36261176876724,179.57682066998677 102.599415182136,180.4036562202382 102.71184583101422,180.70957094006008 102.93379441765137,181.29230774426833 103.08234268438537,181.62503975868458 103.30137855990324,182.11231851094635 103.59264967113268,182.63777832954656 104.64617727987934,183.89460397168295 104.86929095105734,184.20415014837636 106.14767985767685,186.53277781436918 106.33758862211835,186.86095640127314 106.5589546666015,187.11140814749524 106.82983679987956,187.2950422753347 106.74216419551522,187.47458539385116 106.89886805333663,187.34640525857685 107.06926165323239,187.456403818971 109.37001215992495,188.3404811367509 109.67264284437988,188.52047792897793 110.12353052431718,188.7868365450995 110.61199217766989,189.08683050010586 110.99821767106187,189.4059145252104 112.08990179549437,190.5940665905946 112.50612821325194,191.37949790252605 112.72574663104024,192.34946529380977 112.8437114310218,193.06898376339814 112.99662876443472,193.5994168902398 113.25178225769196,194.40983621199848 113.33945486217272,194.69345953472657 113.35663985775318,194.8361801051651 113.36304782214575,196.4865503415349 113.35285333322827,197.37195449188584 113.3720772266388,197.5833055654657 113.10265144880395,198.5173384945956 113.0487662932137,199.39228054211708 113.11488483543508,199.96133186965017 113.1894502399955,200.42993452009978 113.2645981865935,200.81217899912735 113.3761550221825,201.2498731003725 113.67907697765622,202.04208354727598 114.20948167098686,203.3442476305063 115.28485461324453,204.79820801329333 116.32673137774691,206.127625610854 116.95675079105422,207.25614705844782 117.87279843550641,208.5178298280225 118.49204081774224,208.94505504291737 119.29565781331621,209.53680602816166 120.68181703099981,209.49408366077114 121.31999203551095,209.46726855350425 122.40759836439975,210.036748001643 122.79091114667244,210.22218073223485 122.45012394664809,211.17752038192702 124.00929820432793,212.10376861243276 124.11852487106808,213.0881870870362 124.25600483547896,213.1159107190906 124.87233450659551,214.26666557585122 124.8161191821564,214.71251327294158 124.52805205329787,216.27956295997137 124.22338247101288,218.4192401735927 124.6037825421663,218.29198723234003 125.96780515555292,218.04202588117914 127.6583426843863,217.70844064827543 128.1572900976753,218.48468451428926 128.7019670754671,219.10458687576465 129.28072277328465,220.00898671074538 129.64568547543604,220.75795417826157 129.94860743102618,221.5455488594598 130.232596764341,222.2786047036643 130.54338303988334,223.05528671707725 133.2536607288057,224.49593588477 134.59991580434144,225.17944558925228 133.57376767985988,225.44939497375162 134.79098965320736,225.51347381871892 134.78691185766365,225.8834038033383 135.03536611539312,225.890220688947 135.03245340439025,225.96611533529358 143.82738460437395,226.36422095051967 143.79738367989194,226.30877706146566 144.30536049767397,226.28968981775688 144.3391479466809,226.34922383440426 145.3824810666265,226.5664546881453 146.10192071110941,226.7845942392596 147.13243790215347,227.2058756276383 147.45545756432693,227.1113486989052 147.58157795551233,227.39720164134633 147.92440405325033,227.98117667500628 148.06013639108278,228.0370745921391 148.3668448710814,228.3501935528475 148.64005717320833,228.45880800730083 148.66248504875693,228.6401349461521 148.6088911644183,228.76783628348494 148.18217898660805,229.8208013913245 150.05184824881144,236.37252019537846 149.6364956444595,238.0003078977461 149.65426318207756,239.86575034301495 156.04242119111586,251.0907861799351 155.86678471101914,251.20029808679828 155.60347562655807,251.92507466953248 156.42660778656136,253.5318434818182 156.52942648879252,254.5192551900982 155.86736725328956,255.1140629320289 155.65415679989383,255.45395233976888 155.91105791984592,256.4313586250064 154.67519459547475,256.50088108039927 153.9275016533211,256.9929903743905 153.73992305772845,257.2997061298811 154.06876814214047,258.7165001084213 154.74480839108583,259.248136262293 154.10925482655875,259.3390141071868 153.47107982216403,259.5157714067609 152.8029038932873,259.89972957019927 151.68092757323757,259.6561774883303 151.40363747545052,259.82430115615716 151.32965461327694,260.14328137930715 151.47762033774052,261.20381909870775 149.9126206577057,261.1860980739002 149.52377372444607,261.40374850912485 149.38075960881542,262.05624412425095 149.6597973331809,263.11450060707284 149.91786353767384,264.1227702405886 149.91873735107947,264.96200687933015 150.08476188441273,266.0525098545477 149.86164821323473,267.022598529642 148.81307221320458,266.7831437882851 148.46209052437916,266.8631135224714 148.40354503097478,267.8168412109371 148.3624758044025,268.22486635734094 147.21981923549902,268.8582579965587 147.44409799098503,269.92375124740647 147.31477361777797,270.3081453986815 146.77796095993835,270.7020805437933 146.94194659544155,272.16331471008016 147.576626346563,273.22152200405253 149.0222048710566,273.6522549709771 150.31603114656173,275.2565914574079 151.87666175991762,275.620530202752 151.98617969779298,276.08079143898794 152.22531327989418,277.76007787539857 152.22036167106126,278.82961664308095 152.27279047097545,279.61382057023 152.58561564446427,281.12360962253297 152.43706737773027,282.01366692985175 152.0400648532668,281.800126203103 151.98064554657321,282.5538785980898 152.40590136882383,282.6329338516225 152.51541930658277,284.86600572091993 152.25123640883248,286.1540438682423 151.44791068439372,288.37663002475165 150.30845809774473,290.2775319686043 147.5399261865532,292.5368758836412 146.5420313598588,292.9748396934592 144.82527943106834,293.3351142409374 143.65961244434584,294.0365802475135 142.94745457777753,293.8303204001277 140.6033046755474,292.33742941654054 139.38753905775957,291.9508026005351 138.8821836799616,292.3092615636415 138.3756632177392,292.80855893174885 132.91578624001704,291.6291431039572 130.33454165328294,290.7609326808597 129.66141411557328,290.45153817586834 127.17774535098579,289.518354432832 126.81889934209175,289.73325055721216 126.47985976887867,289.6560151881422 126.02780700440053,290.3311422509141 125.08496241772082,291.15891967870994 124.97427939542104,291.11712199175963 124.4473699554801,291.5637207752443 124.614850844373,291.7322740960517 124.2944526221836,293.4218889796175 124.90466559992637,293.62451467459323 125.15807146660518,293.8434955945122 125.31390151102096,294.2501089583966 126.04353564442135,294.5972062451765 125.68847615993582,296.21819775697077 125.52303416887298,296.52940130309435 125.42312817764468,296.4753382372437 124.78320554655511,297.8591667668079 124.76951580436435,297.8923312952393 124.71970844443422,298.0122687255498 124.51523612439632,297.91050363733666 124.22046976001002,297.8964200723567 124.17998307547532,298.0590624778415 124.2126054399414,298.4375009002979 123.6393838932272,298.2789475477184 123.28374186658766,298.23760553711327 122.02341176883783,303.2390231692698 122.26400170661509,303.32624825340463 122.81100885325577,303.4275565101998 121.99399338662624,304.7327479030937 120.80298581323586,306.25689988269005 119.44653624878265,308.1894456324517 119.14128412434366,308.535612098407 118.73729109321721,308.83271516131936 117.59783850656822,309.23884621437173 114.51007345772814,309.1720663282904 113.77374008879997,309.20159485185286 113.56402488879394,309.32470603793627 113.49062456889078,309.51505124004325 113.47023559105583,310.31549869140144 113.79267271095887,310.9283250836306 114.0687977244379,311.2381447374937 114.4043420443777,311.814171894046 114.44075093325227,312.4315368452808 113.85005311993882,313.25014462234685 112.39078485325444,314.0619351961068 109.9304177777376,316.54589558928274 108.72688554658089,317.14507637458155 108.60833820444532,318.07723304087995 108.87718143989332,319.1111409268924 109.47020942217205,320.4534876369289 109.23486236436293,321.2234594215988 108.31444565323181,322.1183494568686 105.8546611199854,321.82399009534856 103.2474934044294,321.40243772324175 102.65679559099954,320.79145788867027 102.56708408880513,321.0985379309277 100.38750236434862,325.0342117968248 99.67214051552583,326.62681304308353 99.16620259545743,327.16600540309446 98.21345479099546,327.7297257249593 97.99412764445879,327.880535426375 97.46896583109628,328.4437996514025 96.54388878215104,329.0129675841308 95.49618659541011,329.80471267801477 94.8361662577372,330.1335835736827 94.3261505421251,330.3207308779238 93.0966951821465,331.06432185246376 92.88552362658083,331.42544178123353 92.52085219556466,331.71797119587427 92.18181262211874,331.79110348806717 92.08423679985572,333.0334402223234 91.69247715547681,334.3920533678611 91.07673002663068,335.39908411406213 90.61943438218441,335.6893370359321 89.96232675551437,335.687065887847 89.38357105769683,335.5653323139413 88.94666439096909,335.5930403349339 88.97083989332896,335.78835907089524 87.8698350932682,336.8994013814372 89.93611235544086,340.4314425859484 91.5579099021852,339.58159583382076 92.57415480888449,341.28128601721255 93.68215011549182,342.9387209750712 94.3031401244225,343.68635672639357 97.05739975103643,345.73030526185175 97.62479587551206,345.1879794559791 98.17646335985046,345.37511380645446 98.71939271106385,345.38283536594827 99.83292216877453,345.3415023087291 99.92350748437457,347.1074615329271 102.90437603543978,346.9534857204999 102.22950087103527,350.3713597445749 103.87256120878737,350.94319548265776 104.58559288887773,351.939703096461 102.95563975104596,352.5433283231687 101.73433998215478,352.8185699697351 100.4498343821615,352.797222857771 99.3700923732249,352.5079011552152 98.56734919105656,351.9283482041792 97.59596003545448,351.3742287346977 96.899530808907,353.012964850117 97.83072455099318,353.3122781230486 98.0660716088023,358.0367405026336 97.54964792879764,357.95952938712435 95.54220743104815,358.7157429563231 95.32637553778477,360.4625181230367 95.1492827021284,361.0620321074384 95.09801898663864,361.206460229354 99.67592703993432,363.1571388337179 100.68401635554619,363.34198686509626 102.88952120882459,362.4681584239588 103.56847416877281,362.3600650567678 104.46908444433939,362.39639896765584 106.5068171377061,363.07992953580106 109.01932174211834,363.8819965531002 110.99064462212846,364.14132789475843 112.77788415993564,364.09545669920044 114.48502414219547,363.8647380640614 117.02927729778457,363.37105386308394 119.52314055105671,362.19338316260837 120.60346510214731,361.72649150929647 121.45019022212364,361.24597356672166 122.75100700440817,360.14731844124617 123.67899676435627,359.13858555367915 124.09405809768941,358.41189529764233 125.65206727106124,355.89480315340916 125.81576163554564,355.4669581782655 125.92207559105009,354.8960427127895 125.87925873766653,353.9390633085859 126.07091512880288,352.7926809187629 126.9024941510288,350.0933898038347 127.18444458662998,348.99967456201557 127.23920355550945,347.6438778921147 126.7644316443475,346.5233521214104 127.09764579543844,343.53283270512475 127.38833436428104,340.52501182764536 127.38192639988847,339.86366719781654 127.40348046214785,338.13989203813253 127.36008106661029,335.53171930013923 127.45270527992398,333.67845320515335 127.59076778660528,333.6902632841957 129.15285475552082,331.28235659823986 129.93928675551433,328.8126460792846 130.68406698654871,326.2684106421075 130.90164650662336,326.1489430438378 130.85125660442282,326.04673687159084 131.16612067550886,325.9885928943404 135.097698133206,326.9593227272271 136.23627690656576,326.80851238704054 138.98238094209228,325.92590640153503 141.79722495994065,324.5981295585516 142.2798611910548,324.20520054287044 143.72019683546387,322.65664448105963 144.23982449772302,321.94527710269904 147.7519715555245,322.7375021839398 149.0222048710566,322.8846812962438 151.88802133325953,322.51037372875726 154.10575957328547,322.11108132934896 154.54761784884613,321.84715728176525 154.93122190213762,321.533264408994 158.42152362666093,315.302556122595 158.96357916446868,314.0460355777177 159.8810831643641,311.76102118723793 160.1041968355421,311.5702236709767 160.10710954666138,311.7019648310379 160.5105200355174,311.5288841870497 160.85771519993432,311.4289425450843 161.22063900437206,311.3530777225387 161.66977905773092,311.29765550018055 162.0790149688255,311.27766715415055 163.00059676438104,311.3176438442897 164.74006783997174,311.26903582242085 168.24464184883982,311.1368401192012 167.25839786662254,310.98329311894486 168.26357447099872,310.91696804983076 174.28443960880395,311.8850394830224 176.42266083543655,312.28480493690586 177.2926876443671,312.4474365816568 177.348029155517,312.19758344604634 177.44385735108517,312.2157545928494 177.53619029326364,311.2672186998534 177.56910392874852,310.3336699954234 177.5638610488968,309.580468168424 177.68823381327093,307.8946131292032 177.90785223105922,307.295861145074 178.80059818655718,305.0453021454741 179.7880072533153,302.57892803970026 182.34915413323324,297.3880481937085 182.52508188434877,297.4902678358485 183.74638165323995,295.16646276874235 184.4966960354941,293.84849308175035 185.35652835550718,292.4787229463109 187.54921727988403,289.16897740523564 187.7787389154546,288.60742875700817 189.64374783996027,284.7583281122497 189.97084529767744,283.99231624341337 189.97521436435636,283.9700536991586 190.76805432885885,282.3544229744002 191.65177087998018,280.372123995563 191.8434272710001,280.29079619346885 192.34849137766287,280.51706005923916 192.79209727991838,280.35803929460235 193.18939107551705,280.09406456846045 193.2587135998765,279.5270403212053 193.05948415992316,278.737838246685 193.01404586667195,278.36890687589766 193.2590048710117,277.69192526926054 193.5528974221088,277.0767334445263 193.7387283910066,276.59421101695625 194.00028984888922,275.44424034975236 194.16631438210607,274.12751419545384 193.92543317331,274.10933986568125 194.00524145772215,273.4709655667539 194.1529159110505,272.71718168613734 194.12000227556564,272.57496659230674 193.99271679995582,272.3695951104746 193.7197957688477,272.2887186772423 197.25728341331705,271.7134955371148 202.31141973321792,270.7993147143279 202.68453802657314,270.5262410689611 203.6448588798521,269.7333713865373 204.64566641766578,268.55292165471474 205.31879395549186,268.05584044306306 205.97094997332897,267.7586816622061 206.76029468444176,266.7731475694454 207.4104118044488,266.051146729209 207.805084159947,265.43365008727415 207.95654513768386,264.9429230286041 208.02033351105638,264.145489196002 208.4496671288507,263.5207170560607 209.24221582210157,262.7228236255469 209.80786431988236,262.1384875133517 210.6959499376826,261.5591480603325 212.2717266487889,259.94244203408016 227.51336135098245,241.48987648106413 222.5722382221138,238.9109911788255 222.13096248882357,239.5540112577728 221.78143715544138,239.21273370005656 222.81894485326484,238.04893230111338 225.91137023991905,235.56407503975788 227.7501647643512,234.04442631895654 229.51468515547458,232.60883931681747 231.139104142203,231.08780659537297 232.64934485324193,229.77944636245957 233.1925654754741,230.2261711479514 234.4357105777599,230.8374055066961 238.45874716434628,232.81788391439477 238.81002012442332,231.37638099509059 238.59913983999286,231.30276047583902 238.79312639997806,230.9305674699135 239.13682631100528,230.59472976624966 239.91335509321652,230.16800154320663 240.11549724440556,229.95440989237977 240.99571854213718,228.125693211623 241.10319758206606,226.9050253558671 241.23193941323552,226.1456265191664 242.12410282657947,223.98330219619675 242.30410837335512,223.50293424731353 241.1448493510252,222.7903334806906 240.459488426568,222.08909205335658 239.96228863997385,221.38103133725235 239.37450353777967,220.21031741827028 238.98361770657357,219.2777411052375 238.4299113244051,217.5034718112438 237.80193080881145,215.17926620249636 237.0207416889025,212.8145864623948 236.1428505599033,210.47669598739594 235.41729422216304,208.48465166444657 235.85798741329927,207.53520864748862 235.9077947733458,207.57747690257384 237.40696718217805,204.46869299252285 240.3744372621877,198.11463671165984 242.23565966216847,194.10575887333835 243.00112014217302,192.55900313559687 243.14675569767132,192.20128873718204 241.8345793421613,192.54309462971287 240.50638307549525,192.93080731207738 240.36802929767873,192.85990094131557 241.42738232878037,190.4563430994167 241.7742862221785,189.69136251526652 242.8508242488606,189.9722647894523 244.15367992885876,188.05412229633657 245.1204087465303,186.04550897079753 240.29433770652395,183.85914931533625 238.7613778488012,182.4091398275341 239.08643640880473,182.00231724622427 238.43602801777888,181.35321774124168 237.23569976887666,180.24001666874392 237.41920056880917,177.95541384426178 237.4873580087442,177.21675379521912 234.96262001770083,176.94628994941013 231.46445397322532,176.63491518929368 228.4500892444048,176.2608103256207 225.14328831993043,175.25895160238724 223.36973852443043,175.20894945802866 220.77538673765957,175.14985599991633 218.54774527996778,175.0784892636002 216.07689244439825,174.7930220841081 212.64950527995825,174.36118407786125 209.0712396799354,173.91979929228546 205.84832483553328,173.10021218965994 203.24639999994542,172.01378858281532 200.05872895999346,169.9850256953505 198.9020913776476,169.07587194337975 197.4684549687663,167.60667144256877 194.87643335107714,164.6095989131136 187.2355182932224,155.88544151937822 187.1003684977768,155.6681400234811 185.0932192710461,153.15051815111656 184.91321372438688,152.9968595339451 183.0997597866226,150.1982534059789 182.48954680887982,149.1003498355276 181.58951907558367,147.01090809347806 180.01432490663137,143.39979987003608 179.5905254399404,142.94653176469728 180.35132558224723,140.41148629860254 180.71424938656855,139.48675109114265 181.193390364293,138.40516052459134 181.8368082488887,137.10397129831836 182.27021966222674,136.29379293933744 182.69984455103986,135.52725777210435 183.1673346844036,134.87438227137318 183.60890168882906,134.22650596738094 185.62682794663124,131.48085295403143 186.85016661323607,129.79907220543828 187.31969564442988,129.21528801083332 187.43066993763205,129.05342856398784 187.75310705776792,128.85019476193702 188.79148856876418,128.31596629996784 191.39836501330137,127.16748432634631 192.50053489767015,127.04154195141746 194.04660195542965,126.59869706397876 194.89216199098155,126.4091009790427 196.31735153775662,126.14221124589676 197.38806414208375,126.00490157917375 198.50538012443576,125.64889631076949 198.8723817244172,125.36609222082188 198.5560612976551,124.9718936230638 198.87325553770643,124.31080232822569 201.6586811732268,123.76155851269141 203.21989432885312,123.10455560212722 204.18138026655652,122.56485691579292 204.58071295998525,121.45999358833069 205.13616696884856,118.9542518699891 205.63511438213754,118.11490605102153 206.05920511996374,117.65340087440563 207.00234097766224,116.91453586641 208.2003390577156,116.41892654594267 208.96987733326387,116.19567463878775 211.87035505764652,115.568203691917 212.67863239103463,115.44134521513479 215.9557236621622,114.6856490985374 218.53784206218552,113.92131118383259 221.1563693510834,112.80503652628977 223.26954126218334,112.13481428276282 224.4087025776971,111.65238030301407 225.1048405332258,111.42594061046839 226.02933503990062,110.98215450480347 227.37762901326641,110.16915055870777 228.33008554659318,109.50846893741982 229.89450268435758,108.22893254313385 232.13000846211798,106.1777481418685 233.8511294577038,104.7495012388681 236.6345161955105,101.8461432774202 238.15203868434764,100.51472355349688 239.647715840023,98.13424480386311 242.30993379547726,94.12261302181287 242.9743231999455,93.10309561452596 243.3765686043771,92.39279564662138 243.31074133329093,91.68795023363782 242.5717865243787,90.12682318978477 241.5770956799388,88.88491656206315 240.91183246218134,88.19506642379565 240.08520504878834,86.33696214592783 239.72315505775623,85.22191005188506 239.59790847997647,84.03409133170499 238.97225813323166,82.02087839023443 238.0305786310928,80.60293226240901 236.98287644435186,79.15723616204923 236.83578453329392,78.49782455503009 236.50140529766213,77.94346249016235 235.81400547549129,76.38678442226956 235.4420522666769,75.35535968298791 234.94893027551007,73.71316495392239 234.86999580438714,72.61396537016844 235.10417777765542,71.25053176452639 235.67565169767477,70.90944463480264 236.4250922666397,70.55562301987084 239.6066466132179,69.30541838059435 241.05018623988144,68.48088879470015 243.09112291550264,67.47989748674445 243.5926917688921,67.15153858851409 244.12397027551197,66.68947037885664 244.04590961767826,66.55485189676983 243.08500622212887,64.40549280872801 242.76752071105875,64.55921407573624 242.49867747549433,64.4073119960376 241.99710862210486,63.917040487227496 241.7862283376744,63.28896377491765 241.30766990210395,62.80141854385147 241.24679423985071,62.70136248430936 241.22582271986175,62.52126146102091 240.91212373320013,62.26157007628353 240.62347406207118,62.178341423219535 240.5154124799883,62.06509582756553 240.41783665772527,61.34059550036909 240.40705962653738,61.25736649445025 238.53185621323064,61.33377345179906 238.48000995547045,61.476581621624064 237.30007068440318,61.572090217785444 237.32832398219034,61.67669482255587 234.58221994666383,61.77402254001936 232.10728931543417,61.986869919870514 231.80844515550416,61.94366373779485 231.3068763021147,61.7235394770978 230.68209976877552,61.38834983349079 228.51183871994726,60.184937436308246 222.7397191110067,57.10906510724453 217.70451541326474,54.410648279765155 215.78154353774153,53.418688549951185 215.33910271991044,53.3386402495089 213.92090367991477,56.852096129907295 211.01751324441284,63.964794254279695 208.19218346651178,70.70115383097436 207.67954631103203,71.87994980899384 205.22150940436404,70.7429939211579 204.67683242657222,72.03912315855268 205.77230307552963,72.31153670634376 207.25196031993255,72.89638333645416 206.6956324976636,74.32893258467084 205.89696711103898,76.27945826662472 205.11810815997887,78.08034775831038 199.7954198755324,75.18027166411048 195.72519736888353,72.97187664365629 193.8435859909514,72.46798106015194 191.7607062754687,71.9599912793492 189.50918058655225,71.4297159887501 188.99625215993728,71.22369959641946 187.05696910223924,70.1467718759086 186.42316316440701,69.87390082894126 185.7672206221614,69.68789353553439 184.36737166217063,69.66469946090365 184.068236230989,69.74883481784491 183.98930175998248,69.90391666087089 183.38083640881814,74.0319636274944 181.4753408000106,73.97739042126341 178.84894919104408,73.83186180429766 176.08740778663196,73.57263871381292 171.48445041768719,73.23337434238056 169.5291474488331,73.08102354739094 167.82025983987842,72.97915310558164 166.60944583103992,73.01871886319714 165.96573667554185,73.04600558849052 166.0574870754499,72.12462193815736 166.19380195555277,71.53113237512298 166.85644373332616,69.1562483398593 167.65714801766444,66.47935636015609 168.11123967997264,64.91395504603861 168.36610190209467,63.96797783835791 168.64543089771178,63.03609530284302 168.97252835542895,62.10466357244877 169.24690574209671,61.60847443388775 172.1925304888282,56.57829876121832 172.56011463108007,55.88106902042637 172.82342371554114,55.36076043715002 172.98566172434948,54.82225793407997 173.08207246207166,54.15685983910225 173.3398473954294,49.952933998953085 173.6785956977401,44.35530528111849 173.7120918754954,43.75127854658058 173.63519630208611,42.73334415088175 172.66409841773566,37.30564472550759 172.62361173331738,37.11369644937804 171.74018645321485,37.120064404502045 167.4954925510101,36.79575331584783 165.95903743989766,36.668848845001776 164.38005674665328,36.5869749536505 162.9056423821021,36.55286082305247 161.43996615102515,36.58515553345205 159.70282524439972,36.707056650484446 158.68658033770043,36.848971297673415 157.00041187554598,37.20739633991616 156.38116949331015,34.1985180201591 155.93115562666208,34.304955242958385 154.50014065776486,34.81121362786507 153.10611711989623,35.26925591204781 151.2084858310409,35.71001267014071 150.132239075494,35.94653811590979 149.03181681770366,36.15213310188847 148.4449055287987,36.13575828721514 147.81634247105103,36.04933563322993 147.11204892431851,36.0270476800506 146.20706958218943,36.11847375909565 144.93013703112956,36.298596667998936 143.77146055107005,36.57241959188832 143.1067798754666,36.6806750712567 140.5881585776806,37.21740312199108 138.4050815999508,37.47439532104181 138.37129415106028,37.361136849503964 137.5038887821138,37.55081064190017 136.70143687096424,37.75731381500373 135.10760135098826,37.83509359374875 133.41677255101968,37.986559398588724 131.94323199987411,37.904231151391286 128.03932529769372,37.4380070635234 127.69912063993979,36.95722663926426 127.60649642662611,36.827138281136286 126.76938325329684,34.97359814302763 126.50665671098977,33.81052206095774 126.4367516443599,33.676792929763906 125.05700039106887,31.530747517652344 124.86214001767803,31.180500705435406 124.41270869330037,30.79022502101725 123.14218410651665,30.01240076200338 121.7988417421002,29.744937741779722 121.24076629325282,28.69327723205788 120.98881678213365,28.168809686147142 121.42484963545576,27.899979776877444 123.45500928000547,26.054551268403884 124.32212337770034,25.135697607765906 123.94521855993662,20.89618385740323 124.00259896880016,20.177004916709848 124.3358131198911,18.3406086746254 125.87052060442511,18.178666621504817 126.91152355552185,17.968960581172723 127.67174115555827,16.992755828832742 127.68572216888424,16.50146752828732 127.48824035550933,15.7072157592047 127.13201578659937,15.428362645267043 124.16075918218121,14.022264248516876 117.69745322666131,11.525291285768617 115.89914538664743,11.019433548033703 111.99552995548584,10.018177484569605 108.02375708438922,9.021465934172738 100.28555747552309,7.266860369767528 99.6861215288518,7.138118983421009 97.58343537768815,7.323269999062177 96.25611292431131,7.04850037622964 94.77354296878912,6.379316612554248 93.97400376887526,6.134115519642364 88.80219392001163,5.084615321306046 85.5379185777856,5 84.03292074659839,5.239743324869778 82.9493922132533,5.3989655007608235 80.56854215101339,5.593671317270491 81.66750805324409,8.504684434796218 82.07441379548982,9.556442670233082 82.8372528355103,11.626280729135033 87.45477375993505,24.303722302604 87.5424463642994,24.57483106252039 88.63879082666244,27.54517837218009 89.62590862216894,30.52048861962976 89.88222719996702,30.86436835769564 90.53758719994221,32.673366958799306 92.31841877324041,37.45256236725254 92.9851383465575,39.5908168622409 95.09627135994378,44.94432069809409 97.66644764435478,52.09925229049986 99.62000298663042,57.44926427700557 102.40630243555643,63.59686257824069 103.96868067549076,67.11742925626459 106.17651569773443,72.12689584150212 106.06845411553513,72.19511292799143 99.2241655465914,71.19186481629731 97.14012074656785,71.02132127236109 88.51470933330711,70.34096489555668 80.18814207985997,68.69964184699347 78.71489279996604,68.58639964991016 71.02941326214932,67.99608394835377 69.06566343107261,71.20778220694046 56.43527423997875,72.27697340364102 56.32284359098412,72.49072005570633 55.296986737754196,74.16430359578226 53.347800462157466,76.96297944465186 50.665484799887054,81.1209065997391 43.61322865774855,76.33994292869465 36.90234225767199,73.6808757611434 31.04837546660565,72.63670435047243 22.0280004265951,72.02047714358196 17.784471608814783,73.65313433826668 12.842765937675722,78.54193698015297 7.155406222096644,80.00491821265314 5.332049066666514,81.29553507082164 5,90.2632460410241" stroke="red" stroke-width="3.359651248060637px" fill="none" stroke-linejoin="round" vector-effect="non-scaling-stroke"></polygon></svg>