<svg width="1108.6958939020988" height="1375.968199540861" xmlns="http://www.w3.org/2000/svg"><polygon points="5,44.99030250805663 10.327057351008989,46.59928465646226 11.783704177709296,45.89595046074828 7.5666810310212895,59.620967140363064 7.483377493335865,60.84063516044989 16.7906545776641,66.94520867185201 16.813664995483123,67.06287243252154 9.284889315487817,83.88044372643344 8.697395484312437,85.38415553059895 30.463794346549548,102.57225212012418 30.96565447107423,103.11794125195593 37.35614264884498,122.70935795421246 37.41963975096587,122.79486859432654 79.62861027545296,121.63345930969808 80.09522659552749,121.57509459729772 82.33306254213676,129.05650901352055 81.60750620439649,130.51195271662436 90.93458972440567,131.12453009642195 91.16061610658653,132.00086564628873 109.68604131555185,127.94037572667003 111.08210375101771,127.69154101703316 112.08669781323988,122.32704806816764 112.19679829326924,121.76692894211737 115.6707888355013,131.1593664244865 116.11614236433525,131.7900387267 127.97000277321786,132.46323641721392 128.9207116799662,132.49128627590835 121.01590499549638,120.08656293246895 120.88687189319171,118.97445574507583 142.7566719999304,105.05499090027297 143.47669418656733,104.31655213865452 153.67409578652587,77.70258181606187 153.79963363544084,76.24995335860876 161.76706360874232,80.21547043888131 161.99512888886966,80.38199976208853 179.4900369065581,62.35265198047273 180.89978908433113,60.811670952592976 184.89719381323084,46.08966177830007 185.07253902219236,45.68141950160498 168.2737689599162,40.38008425105363 162.93098296876997,38.698185739456676 164.3319970133016,47.2682194506051 164.57579093321692,48.672613765404094 155.16540387552232,42.227623044571374 154.52198599104304,41.73609416396357 121.22329002653714,38.78916066791862 117.23637105769012,37.52365526917856 113.87044209765736,30.75017979356926 113.87160718208179,30.569128446979448 127.27299100439996,33.719400426605716 127.36153742205352,33.33874498010846 95.76211711985525,15.456242488580756 94.21983658662066,14.803053229814395 98.2111246221466,5.064733465143945 97.78382990218233,5 86.21949297771789,25.184592673671432 86.26027093327139,25.528145960415713 78.41663118219003,14.462651676032692 77.98904519097414,14.205992174509447 29.956108799902722,13.618888086697552 29.372692764387466,12.66693415096961 34.20342414220795,35.38187474757433 33.998951822170056,36.38080162834376 5,44.99030250805663" stroke="red" stroke-width="3.536158274704478" fill="none" stroke-linejoin="round" vector-effect="non-scaling-stroke"></polygon><polygon points="910.8732532621361,1259.2213501741644 915.0337698132498,1266.6684141455335 917.3115099021234,1269.2689307749388 936.3679223465733,1275.4671992552467 936.73521521769,1275.4608984614024 930.5136642843718,1282.5595277438406 929.4959630221128,1284.1117174770334 943.0249235910596,1286.2813443529885 943.5419298132183,1285.5036834273487 947.9957563732751,1297.5827680055518 948.8678220799193,1299.481357142562 958.2170422043419,1304.1280834696954 960.7452754487749,1305.6045211884193 963.592159288819,1341.243903731287 962.8508743110579,1345.313405864581 969.2967039999785,1346.5191697498667 971.7194971020799,1347.489624890266 970.7979153065244,1335.899670959101 971.1427803022088,1333.781828535779 984.9822358755628,1335.7210476918845 986.0762501688441,1335.7871878104052 981.0646394310752,1345.2999084701296 982.3648736710893,1345.924836963066 993.1092824176885,1342.5725178841967 994.3867975110188,1342.0069692623802 994.2414532266557,1336.921915166371 994.601755590993,1336.6542064272799 1001.2957482666243,1347.4743279950926 1004.0502991643734,1347.3276577110519 1000.174937030999,1357.2326301749563 1000.3782442666125,1357.5569996490376 1023.3193395199487,1370.6708415959147 1024.3749060266418,1370.968199540861 1027.5177213154966,1368.6311621457571 1028.0734665954951,1368.2906139023835 1024.0725666132057,1356.7013110385742 1024.0128560354933,1351.9531232606387 1037.728812657646,1348.5311609720811 1038.0331909687957,1348.1635870329337 1034.7662941865856,1336.656906012795 1036.184201955446,1334.6029617135064 1047.1942499554716,1323.6305683672545 1047.227163591073,1323.593221875606 1061.3972118754173,1327.56856267486 1061.8699448887492,1328.0464086279972 1086.013698559953,1314.0422099574353 1086.5741041777655,1314.0908075110056 1098.8325401599286,1295.8574181602453 1100.7255111109698,1293.6946364729665 1100.7339579731924,1275.863248784095 1101.510195484385,1269.3197886149283 1083.8536319999257,1260.019808539364 1079.1152335644001,1256.9708881512051 1070.4417624176713,1258.7838621685514 1070.4298203021754,1256.72063534474 1076.873611093266,1246.747197976918 1077.0777921421686,1245.8181571171153 1072.8677595021436,1233.6560904394137 1072.833972053253,1233.141126629198 1077.572953031049,1220.9355894952896 1077.8447089776164,1218.6581735738437 1100.4887076977175,1207.9442320672679 1103.6958939020988,1203.8095971413422 1064.9428551110905,1203.391807385662 1062.1291761776665,1205.8899801615626 1054.1972812799504,1199.3313716570847 1051.4680709688691,1199.9801280035172 1055.032355555566,1211.2945616596844 1055.7448046932695,1212.1697266499978 1052.9191836443497,1219.0966421300545 1052.1921709510498,1220.3791801233892 1055.4520772265969,1230.782810974284 1057.6188430221519,1234.2376739850733 1056.1688954310957,1249.9335441126022 1056.5845393065829,1251.3950437684543 1037.7998828088166,1253.697774889879 1036.1148794310866,1253.6685182937654 1025.0189064532751,1238.2578504921985 1023.7678970310371,1236.683278903016 1017.4417797687929,1244.6843078179518 1011.6553878755076,1245.0002918175887 1006.8695122487843,1242.1253607602557 1004.7583792355144,1239.3836307248566 1011.3023672888521,1233.5584094601218 1010.3665132088354,1232.5109245136846 910.8732532621361,1259.2213501741644" stroke="red" stroke-width="3.3547471980430794" fill="none" stroke-linejoin="round" vector-effect="non-scaling-stroke"></polygon></svg>