<svg viewBox="0 0 3963.9576952000057 1331.5033439830434" width="3963.9576952000057" height="1331.5033439830434" xmlns="http://www.w3.org/2000/svg">
  <title>Česko</title>
  <desc>Geojson of Česko</desc>
  <metadata>
    <collboard>
      <support-module name="@collboard/map-svg-geojson-import" version="0.11.1"></support-module>
    </collboard>
  </metadata>
  <polygon points="3934.255764506677,1302.8710278115245 3936.179173288874,1306.8194526211369 3936.7676865689064,1306.8839516990479 3935.184846533324,1318.1536150362294 3935.1488745511233,1318.3518695913149 3941.2572666577835,1323.023865726987 3941.534047031113,1323.4507939830432 3948.3137462311206,1323.1837271522159 3948.6071290577893,1323.2094968151428 3949.4296786755513,1317.5967803326707 3949.473005253334,1317.2339589387916 3953.5847338933454,1314.4762373855988 3953.8690144977663,1314.6370162205926 3953.9555948355774,1310.5396314699242 3953.991639635562,1310.2876773233943 3955.872377200001,1308.7047361909858 3955.905145200006,1308.532111845088 3952.5887323289135,1308.5781971306783 3952.390522337788,1308.476653229976 3949.4335380178018,1304.6806739687522 3949.347904311122,1304.634697015404 3934.255764506677,1302.8710278115245" stroke="#009edd" stroke-width="4.8901655916157365px" fill="none" stroke-linejoin="round" vector-effect="non-scaling-stroke"></polygon>
  <polygon points="295.24535583111697,1175.8079682263847 297.90742815112003,1176.2966659578883 298.08007910222636,1176.2343625519347 318.83977218668565,1153.509714001622 319.1252906933439,1153.200417015883 325.18351135109674,1155.7922361143933 325.27278594664654,1155.8687735990165 327.96274747557595,1153.6015851659827 328.5042204711133,1153.2314139341247 332.5875501777698,1154.9890336837339 333.34871440890834,1155.4838471575708 333.4257556177979,1152.5251946092535 333.6607385866589,1152.4779712534578 335.5091450577672,1154.8170452341797 336.8002770755627,1154.6207740881723 346.8578685422324,1141.2243387767007 346.87104856002384,1140.9825766630306 345.72489673778887,1139.7651315546896 345.4910788533232,1139.6891312825533 343.155958355557,1145.0043077634978 343.06442640888395,1145.2072164588967 340.8244787466899,1144.5623380222892 340.6291814666836,1144.4135963297663 340.71823760888196,1138.135411951756 340.7195483289031,1138.0319858070065 337.9657984266594,1136.7965656018273 337.86450889780076,1136.3135610205131 339.18294758222305,1130.4988152099609 339.2301335022273,1130.0295250369886 335.44593922666513,1126.521700292658 335.3818595822156,1126.470760007221 324.8048589066673,1130.545945513884 324.59164845335886,1130.5940833122509 325.2183182489023,1132.2825738604365 325.4313102488884,1132.6578118104585 323.9573327911273,1132.1868609062144 323.61501641778864,1132.2945519611017 324.0951040266734,1134.670418157089 324.33460169778095,1135.0795573778228 320.6790764355462,1137.4128799970272 320.52797954667017,1137.535783856983 320.8836215733388,1139.5382497238093 321.2485114577937,1140.3793979363759 316.6850941422233,1140.231092633148 315.9996604000114,1140.3564526137557 317.3710376088927,1144.4393379607568 317.40620859555906,1144.6429202609065 304.73671625776456,1142.938133035866 304.05856429335086,1142.8968333718144 299.3778375377949,1149.9854828355087 299.2733440266818,1150.2507060780404 301.65921851556755,1156.4505221356007 301.7348761866522,1156.7650598927644 295.24535583111697,1175.8079682263847" stroke="#009edd" stroke-width="5.058770332678284px" fill="none" stroke-linejoin="round" vector-effect="non-scaling-stroke"></polygon>
  <polygon points="84.27048109332804,277.48427092188615 84.73906349333242,275.34681256784063 84.85389712890151,275.1998926198354 88.57561375111231,277.91113846812334 88.66153872889822,278.0232560260698 95.26865979555419,275.9482477476337 95.90683480000712,275.97906415625005 98.17685620443785,278.6652553548844 99.20132952000836,278.9544141045259 99.0202317066794,286.92585672975804 99.04011095999863,287.0481878286879 101.4827833155648,291.5794741830538 101.5309158666712,291.7974002277257 101.88298982222454,300.23650225150743 101.88444617778418,300.32515923411813 103.0810607200035,299.81981249548664 103.20900155555114,299.7534328175749 101.92937474666519,308.47495966515964 101.75118964445551,308.923971811622 103.07115750222124,311.1430669637699 103.52539480000974,311.9003591813449 114.02367945778656,310.69941427997367 114.4127448444558,310.58020473195177 115.97628816890187,308.0573102607956 115.38260482668534,307.57453764355853 134.23163224000723,299.0458704239933 134.82866519998765,298.72351444554045 135.8060982311215,292.6838738971488 135.80864685335087,292.4651556541718 141.1033731111163,293.83804139446113 141.35357499556972,293.9796818507526 145.32585759109475,290.17390408708127 145.80747437335208,289.97723050877505 151.04045115554595,292.1093387517682 151.98293165333575,292.42548161657 166.04826797333203,287.76670693854214 166.8214471377794,287.5122704037709 163.8343162577728,278.6196584158821 163.29575597332564,277.46073284293345 161.13809240001842,276.0525231262069 160.44355643555878,276.1246174366603 160.52445698666975,273.95708406533925 160.53195721779025,273.44682951579273 148.57877336000797,258.0650729086261 148.52831063999452,257.1254801608226 135.91204809776514,253.159673645721 135.64750111109583,253.10654702716386 133.8356491644588,255.66578034454835 133.78584180444136,256.0897480109194 136.67947465778684,262.92362281861244 136.8081436711143,263.21320660388267 125.92035671999452,273.6900738135515 126.04778783111374,273.9962030038947 119.11932191110805,274.63904594461894 118.30368998222525,274.8701172956859 112.1625298755605,270.0365184696635 112.1961716888834,269.3488124253123 102.62114363557316,269.17230700575567 102.34865951110964,269.1281805612449 95.12258733335307,264.43260355297355 95.00054473779869,264.3237563419458 85.97230537777773,271.54916818348977 85.9153618755588,271.55098775029876 84.27048109332804,277.48427092188615" stroke="#009edd" stroke-width="6.265049525319025px" fill="none" stroke-linejoin="round" vector-effect="non-scaling-stroke"></polygon>
  <polygon points="249.77931892444735,322.43328614655877 253.79245229333878,332.22682564642275 253.77978200000484,332.23636771008717 263.9962618577772,332.85557590320934 264.21020048889454,332.8062757844815 262.61250562666805,337.4514228623226 262.5587661066745,337.52048255244847 270.74421250666614,340.8325186404178 271.0895872266626,340.9512075466697 271.1002914400085,343.50403529697326 271.0549987822376,343.584444527594 280.53791234666255,339.4685430313617 280.82131913776516,339.33724338206923 291.54963515557006,342.0004289232817 291.8159297689051,342.164091094564 295.73942445332773,339.5358964481053 295.8230192622357,339.54191622665496 300.7264227822086,343.4155622913746 300.7643608444557,343.45996917098057 302.8690130755783,341.48899565952127 303.33526530667564,341.28217218060274 313.70269641778555,343.4582655829214 314.1554045422306,343.6479313926171 312.0126686133515,346.38903953490774 311.9507735022123,346.6003862263675 315.00511519111,347.0029761194961 315.0458203289088,347.01932949643344 316.87616799111834,350.6152494896302 316.9352232088929,350.6790688177058 318.02370335112914,345.56613104890096 318.1413040622208,345.4146309443237 327.2859062310961,338.0202540109527 327.36702523555846,337.4506277666875 332.3453582488944,341.1450844658317 332.69015042667866,341.34543458032533 338.667324897782,335.3698226719058 338.7818672622159,335.2987156370433 346.4794345510961,335.6725376819446 346.8762914400211,335.6268749628722 347.9247218044545,331.4848114710545 348.0171275644459,330.8969409367779 350.6064549244545,330.74187837389 350.1294984800113,329.0946663326682 355.09268539556774,330.00722797023593 355.35002342222265,330.1545678064937 358.440409911105,336.1274589452729 358.5899048088829,336.2710338045796 363.5139885777678,336.3143106458516 363.6486286488723,335.6130171151523 360.7690496266657,330.4333423176646 360.51731856889796,330.09083798030736 354.47111284445396,326.5396848979068 353.843933324453,326.52230288770045 354.1327286311205,324.57252865663725 353.9885494311236,324.4022239967377 348.03322029335664,323.24484256926337 347.0035040977889,323.41765037288826 345.37041979554465,318.1165976083354 345.4431647555682,318.0304694116709 341.3484754755698,317.35177899158555 341.32837776889914,317.3150774264574 340.60537005333003,315.63007392825205 340.336089911121,314.88703771512485 343.2111542311102,312.73320934084006 343.5322078133247,312.5687767075211 341.6621744622314,312.0218385983968 340.6295455555735,311.96570127757843 341.3075518844487,309.4169603738479 341.4277012177697,309.04227583710565 345.92951469333616,306.1081236134411 346.00335192000034,305.75478271929717 341.7061564000103,300.25627959091037 341.67935945778277,300.1669405177014 345.8079090044555,296.5837088080949 346.1015102844465,296.0109199759969 349.2200044355484,296.7293205650127 349.2957349244459,296.7293205650127 343.55660176889046,292.8458657912921 343.18049794666126,292.6557952530635 345.1932541422209,286.6956324926356 345.177598320013,286.36729125076783 336.0807646133251,282.82476324126003 335.77005115556653,282.73641879522586 334.4455685955543,283.09411627040356 334.3419488977886,283.2850161522871 334.915388897796,287.3139955309231 334.80521560001193,287.4779361599718 327.22838018666494,292.1326431249978 326.9694401689119,292.23370441323607 324.29666363556294,291.3189167006418 324.23760841778835,291.3157336172077 325.25873211556586,286.4120858445891 325.2711839555484,286.27201734722587 322.90751888888894,282.8293112139869 322.53156070222735,282.7185679695027 311.9311855199992,287.8784630916849 311.51947380445904,288.17064238552814 298.7079139822233,288.5097730351914 298.5014027644427,288.55160999176553 296.2632755466691,291.8761807893094 295.94841147555394,291.9659882165794 297.81567775112467,295.67661038735935 297.7565497155663,295.75197515628645 294.2897681333195,293.41277677863366 293.91082441778394,293.47995994253836 298.9375812533324,300.0075847068871 299.0340648088966,300.17489692965285 292.73459885334137,295.1090409790701 292.4260699288932,295.3802655537362 295.6039833866596,299.49234620863683 295.6967532355409,299.64715696575115 292.0909625155689,302.34820406858455 292.012683404442,302.46925020834135 294.613515973331,306.4297538869065 294.6502161333408,306.69251190589387 286.2621178577899,313.51127463278647 285.8991940533231,313.83115657701967 282.8417940177676,318.799482568567 282.80625894221134,318.85027250482347 283.58926850665716,321.3465336976584 283.3778784977983,321.54332101098373 276.76333001780563,316.3288982275768 276.58201375109616,316.27196995011 276.44365997333784,311.7631973428721 276.318122124452,311.31250405911817 273.2801644355711,307.9496868873608 273.30026214224176,307.81421978268884 261.33914114666527,314.63579622630607 260.82133392888477,314.62295572102414 253.15689872889902,322.8430992272257 253.03187060444156,323.019089535264 249.77931892444735,322.43328614655877" stroke="#009edd" stroke-width="5.0342794163963225px" fill="none" stroke-linejoin="round" vector-effect="non-scaling-stroke"></polygon>
  <polygon points="8.05255000000011,153.338295837391 16.798984560016606,161.6657368426164 17.29873296889832,162.16336899321288 31.682574248879746,170.6133023600338 31.7888882044424,170.56533587643173 32.1316414844548,178.44665131309705 32.4443210222305,179.00974575474504 34.779587155564286,175.92000205981424 35.11571401777451,175.62220535666677 33.72991888889351,173.26301440579812 33.708656097769335,172.92988491379185 40.18994804443332,167.23184620752693 40.74926139557624,166.80786751292874 37.07152671111521,173.65219455926092 37.03133129777393,173.71109541065346 45.523558995548,173.06192930395594 46.24525599109597,172.83224705191208 57.220205822238995,183.8505448000575 57.4700436178025,184.1112768238014 62.938658728911605,182.493556199806 63.296048382216895,182.11070454080584 70.94169659555314,186.4090588691539 71.8455836711289,186.93562258900022 69.711076151121,190.27017969752308 69.74289751999436,190.2869220125791 72.7543495377829,187.61833679289668 72.83575981332228,187.59863228243887 87.47948774221709,187.23278770183208 87.59832635557518,187.37766791793513 97.54982232000452,181.44819734042505 97.82318025778636,181.08914604136191 103.62777659556718,163.53271697526327 103.56362413333386,163.40760032056244 111.33073240001227,161.29265217620525 111.50534943110665,161.41971092588904 113.64684745777754,154.42351572382142 113.59951590223477,154.31308003595734 119.34534829331801,153.36371133826435 119.5013967911143,153.23036530419597 115.34255504888256,151.2946454380941 115.24556176888996,151.17155210689054 108.34658704890876,139.03842155876157 108.236632204447,138.4345552194642 117.36900098666206,136.74091195115 117.42703675557982,136.73133546561405 114.94671760890174,133.94211207301817 114.85467593780027,133.78625791696652 116.53298008000252,126.93530112761766 116.24316532444914,126.52605887063658 122.10332162667305,119.15677504687449 121.51684724447091,118.47810238652858 123.57802726221394,118.64278193069151 125.19035849779152,117.6523021974059 120.65293712888501,105.52421520150494 120.47132959109854,105.07876441446535 125.40648166221922,87.67046400432412 126.22247767999193,86.15085286941724 116.171294177773,79.91403287809919 115.93114114666946,79.75699616116583 112.34617631111882,82.7048965757782 112.32200080887537,82.70877663788963 111.0976426933264,88.28562224306336 111.10223021332763,88.45336033964816 106.41917328889372,88.75426064446913 104.74654893333332,87.31352981218481 111.20432073777897,80.01811510250957 111.3916080622364,79.63625105040376 105.86291828443768,55.41685173719418 105.15425567111356,55.24832626365935 105.22408792001784,60.49703207550158 105.35159184889176,61.38409669188661 101.66948809778091,65.79328870081338 101.45227266668348,66.16646045048367 104.07458647998988,71.58075748652448 103.94671846222604,72.3035055710858 99.05336379554478,73.44228222344066 98.88020312001004,73.55596453636065 97.88303647112457,77.9534379224566 97.8395642577741,78.18512028226507 98.20663867553935,76.23930006873672 98.2196002400085,76.17755402861042 89.65426349332097,74.51962942112698 89.52930818667642,74.58514385797719 86.13053840888438,83.94433404734411 86.10811053333578,83.99454544574075 81.2589562577848,87.35381054683933 81.16917193777749,87.37629015059031 71.39491444445571,78.27026044732304 70.81979963556637,78.50422401895742 52.09317890668876,92.801475524269 51.75261016001582,92.89184123675625 46.62791341334355,103.0342067072412 46.35615746665985,103.61553833232722 48.015092080000386,108.67785644042999 47.981231813326076,109.1239620336197 43.653671279993205,114.7041350983269 43.44898050666211,114.88410904291197 33.6253525599966,113.03769397715917 33.038805360010656,112.85942474222213 20.040977662232535,116.17983537613293 19.7229824266758,116.35740940005746 21.397645680008054,119.42078337295209 21.43704009778571,119.45385559964745 19.799368275540246,131.3641332618787 19.68424336889416,131.71154217857804 22.9750243822416,139.4797174001211 23.116582142225298,139.9228336354787 21.334367031122156,146.3750257022399 21.294899795560696,146.62545130495675 16.648178942217555,152.64215721893527 16.641188435554568,152.66141854189448 8.05255000000011,153.338295837391" stroke="#009edd" stroke-width="6.243337118116061px" fill="none" stroke-linejoin="round" vector-effect="non-scaling-stroke"></polygon>
  <polygon points="265.92476788443287,353.0602029858634 272.3183144088905,361.75161029768753 272.3290186222073,361.83074367172196 276.8737217688829,360.3454693768068 276.9112229244563,360.295740029345 277.86280564443564,367.16147933706054 277.875694391121,367.1909953198116 275.2564389244433,368.3481227413937 275.0234948533541,368.71524700705015 279.40086274667533,368.67403930481635 279.7499511733547,369.1140405950497 276.4081248977816,372.31642984564644 275.69159796444706,372.5159840702323 286.0146830488882,379.7239638897223 286.20786861333886,379.8140802922786 304.0335149777891,376.19262261180086 304.31546541333205,375.97662370600267 315.4396916889016,380.62739109557117 315.5998907999963,380.66552538122744 316.88439640001866,378.32804855510005 317.2393830666622,378.02670592250763 324.16326146666665,377.0568366619333 324.57358964446007,377.1222139982925 327.79468404444174,378.4936444171832 327.80699024888577,378.4984113913448 328.008331404453,381.48154728918564 328.28729631112196,381.54385499578314 337.37641133333796,378.7436829985887 338.00177040888934,378.9373117231222 339.91236326221383,376.54403045427864 340.32647796444485,376.3729804734827 339.2302791377949,373.74394156202436 339.0732840088965,373.63258882273624 345.4625342844299,367.61250450986665 345.5549400444504,367.3847787008632 344.64792180446216,360.8469611903198 344.7864940355719,360.6261327863973 347.64335391112377,357.64060369824404 347.6475773422351,357.541707726086 350.7026472088835,360.30187104724575 350.78005250666297,360.35364405968687 356.65790352889576,357.78559781215847 357.0245410400164,357.53148884383666 359.93929104888934,349.0887869388167 360.5231439911074,348.61444149970305 348.39155657776405,348.00006885932055 348.1777635822143,348.0008638006617 348.5419981066732,351.957256525238 348.55161005334935,352.7041012308979 345.8274241688848,354.71554589554546 345.66409389331943,354.714751052357 344.24829784001463,348.56038607087214 344.1730042577908,348.17586417966925 333.1049204889057,348.7886449739814 332.92760920001433,348.7784244465653 331.8428427644319,341.286715263857 331.85048863112,340.93882756759524 327.6596070666635,337.54160934802314 327.41457524445264,337.4513092772464 318.2200928977761,345.4617618316912 318.1413040622208,345.4146309443237 317.0981893955684,350.43310281032575 316.9352232088929,350.6790688177058 314.9532689333207,347.12789762416617 315.0458203289088,347.01932949643344 311.9996342310985,346.61844321349747 311.9507735022123,346.6003862263675 314.26200976889936,343.85610873223743 314.1554045422306,343.6479313926171 309.8565342133295,342.03279795530364 309.7380596888904,341.9905478464858 301.1848835111375,343.3557094832428 300.7643608444557,343.45996917098057 295.97105780445395,339.73602533239284 295.8230192622357,339.54191622665496 292.10414253333124,341.8745870297204 291.8159297689051,342.164091094564 281.7571004000272,339.4170908709417 280.82131913776516,339.33724338206923 271.271558853339,343.66792008611776 271.0549987822376,343.584444527594 265.92476788443287,353.0602029858634" stroke="#009edd" stroke-width="5.043366000263979px" fill="none" stroke-linejoin="round" vector-effect="non-scaling-stroke"></polygon>
  <polygon points="79.54271405333543,346.5843734214501 81.70642150223262,351.72583137659933 81.90397613333312,351.82712258348295 86.56016329778481,347.54149932131224 87.04141599112313,347.412717581588 96.89125833777484,349.41663591664803 97.32000941332785,349.5778910100122 99.71899110222125,354.2545348924392 100.89230395554455,354.58405596353225 105.86131629333954,354.07603401591007 105.96631952891016,354.06785838920734 106.80030153776875,351.6706434871372 107.07540710221633,351.4227515150775 108.37615106665885,354.00472434162623 108.6163040977624,354.59177731548664 106.88316816889687,355.43010522601946 106.76097993777489,355.8296775322302 109.53584699554608,356.2150536671321 109.6817010044249,356.42375062252506 110.41264585778822,361.4345079750416 110.42400543113013,361.5755182587378 115.55474605333416,364.1234043696528 115.64744308446075,364.18334785108857 112.85524539557059,373.03268762471964 112.8147587111232,373.2652707288868 114.61816379556672,374.01761180071446 114.71013264888438,374.1807236024248 115.81171999112826,379.80375209757005 115.89203799999791,380.01201806296706 121.2445087555459,380.85869328655065 121.37834783111589,380.8620981201017 123.13529517333495,384.94865268479737 123.5097241866531,385.7320403599075 127.25510658667895,384.3032544204103 127.61249623998424,384.04314098018915 126.70008948446025,386.6133521944354 126.87783767999622,386.7849373859859 138.2132355111023,385.1987750807381 138.21767739556503,385.1969593143218 139.22831533334806,378.23531919214986 139.40781115554978,377.8937968334427 146.46880543110433,377.5951758253574 146.70131259554887,377.4587471338815 147.11746619555174,369.3467539764748 147.2504314577743,369.11347300024465 151.7274868888851,366.46205938206515 152.36580752890563,366.33672818818707 154.28142480890506,367.96635174376536 154.59876468443667,367.9488694513635 154.86476802666562,365.0269772259704 154.86950118223444,364.78970423933754 150.97717250668916,360.6504296315612 150.60128713778226,360.26508492950927 153.7167229422264,354.13723762673146 153.72611643555115,354.0368591267976 150.64250200000947,351.0435870315192 150.47312784891233,350.8501996354968 150.43708304889856,347.221588564316 150.27287895998575,347.078951141542 145.48671206224367,350.9416130234964 145.44112813333754,350.9735225053661 132.83098228445283,352.73612323158125 132.75780041778467,352.7871085767616 130.70914505777887,348.2123177893005 130.42923352000776,347.9357921338593 124.50157513778663,345.4812955850863 124.41892696000991,345.3973685368179 123.67909833777935,343.05610373398633 123.65011686224148,343.0245303253538 129.04671519110684,338.28399518763 129.3394426577795,337.7002872222289 127.99282349332475,335.1883064465434 127.8006573777891,335.1281038099329 129.82186043557135,333.96106820517855 129.95839376890922,333.7229780512349 126.85795842667699,332.77242452500616 126.86298285332282,332.642244652881 134.56710374222143,334.2625415509025 134.56513766220428,334.54118140438334 134.5061552622135,332.3676845113147 134.67232543111436,332.1431053255434 139.41538420445409,329.3798079895274 139.75253051555023,329.1707799890206 139.44487540444948,321.88553836009635 139.31693456887274,321.56411316240667 133.67712486221694,316.4651395117613 133.5674612888904,316.0565282644162 126.72208045333514,318.60211719788606 126.12876120000851,319.13774037699443 118.66807014222263,329.51033647999395 118.48478779555421,329.5936064498452 117.99851067557006,327.88864826477186 117.84683124445269,327.3984401674603 111.55639469333232,328.3215954709518 111.12079874668393,328.25911314295774 109.24399334222085,322.86639042401623 109.05670601779252,322.764931625548 104.32748262221116,324.8417884377774 104.13597186667153,324.705227314647 108.39013208001393,327.7106288249994 108.38510765333899,327.78185939192883 105.44960457777029,328.1852702990942 105.17537282667013,328.2376419263961 102.8050085244538,324.5516240439971 102.71871945777798,324.3695036273781 99.18188717333373,325.58730159819936 99.15727476444567,325.60661527477316 97.77817887112155,329.7142511184717 97.71977901334299,329.7484450860135 86.11619330666849,329.9264578519866 85.32393588443642,330.0219960520259 83.16911220443558,333.9452788617997 83.1440628888738,334.0073002849746 84.62146278221167,335.88108632917977 84.64461883556919,336.06759811266204 83.01168016889255,341.5285203204618 82.88461314666324,342.03234365321225 84.63071063999791,344.2002299188822 84.57624294222455,344.3923916931741 79.54271405333543,346.5843734214501" stroke="#009edd" stroke-width="5.678187404392656px" fill="none" stroke-linejoin="round" vector-effect="non-scaling-stroke"></polygon>
  <polygon points="1977.184925608897,862.1930706789204 1979.0869259644603,864.5479332649189 1979.2747230133461,864.8003665419598 1978.4298183377903,869.0552219736779 1978.1938159200142,869.3836729381652 1979.9521468000091,875.1068396026163 1979.7754908711138,875.263849047427 1985.107936737775,884.4201174405531 1985.3375311911002,884.9733783820772 1986.5035622666544,883.8134356523293 1986.9483332533343,883.0650543243752 1990.865856880009,886.2321386456239 1990.9386746577873,886.3547071090794 2000.250612080017,886.0290567160188 2000.2707826044714,886.0292816133657 2003.4068986577984,889.8830993901134 2003.4827747822053,890.0702004944975 2005.0483570044523,898.1575518752867 2005.237173502224,898.38802011872 2007.983495991102,897.4662537503533 2008.7030812711234,897.2871601310686 2016.6593701244344,901.7904054978932 2017.2639761333483,901.7750044609489 2016.5299001155724,895.8019983847404 2016.440479884455,895.4806764857855 2012.1542798488879,892.1968564559135 2012.0937682755537,891.9092443909973 2015.1039095733502,888.4004354594869 2015.1680620355835,888.3320695837098 2019.505016062212,888.0695123430411 2019.8007290577877,888.2168144189706 2021.2221320800088,882.9519247166678 2021.4632317422436,882.7907764722255 2017.3936645955616,878.2575146208761 2017.3222303555592,878.1124350461538 2017.3412357955601,876.3563793775608 2017.0662758666801,876.0596865566691 2019.4166152800096,875.55840924802 2019.4785832089035,875.4551615230517 2017.2890982666647,875.5139835078804 2017.09329126223,875.5001496624387 2015.524068151113,871.8968200023006 2015.313624773327,871.6529677934374 2015.3015370222054,863.3578589214518 2015.3025564711204,863.3401971639029 2018.8057469422417,862.1332218980311 2019.0188117600117,861.577030097607 2017.4909491466603,858.0429876491904 2017.4699776266714,857.8473390572541 2012.3564219999896,858.3294276269513 2011.8835433511192,858.2497736123693 2012.7780369333411,855.0778070261655 2012.4354292888963,854.9793586989614 2009.5776227822423,859.3749320746934 2009.4820858577802,859.5747378183074 2000.5530971288752,862.1310844403848 2000.3840142488841,862.0443485876527 1996.5454979111162,853.6784740008076 1996.4664178044547,853.5181396778568 1998.1107160444442,852.4333671925193 1998.262905200019,852.2130570740916 1997.9094477066608,848.169004904608 1997.9166566666752,847.8771104440162 1993.8966784266593,846.3987097297719 1993.6919876533282,846.4026482837431 1994.17804631999,843.9591149322292 1993.9801275999996,843.7625156992505 1988.3819696622447,842.7529500686284 1987.9693113155733,842.7824349158251 1990.6640060000134,841.803011815609 1990.6744917600079,841.778253104923 1991.3834456444672,839.3134673867822 1991.399829644455,839.2489792420307 1989.7309918133321,838.4183921551809 1989.5838270844322,838.3399471675872 1983.2914972711076,839.4753064100875 1983.0161004355539,839.758804908524 1986.5117178578,841.1723364387941 1986.6416247733357,841.3606169831688 1982.2339646844555,848.8823055956233 1982.2012695022347,848.9860535570839 1984.7250608622342,850.3729041108523 1984.7899415022473,850.4784495941782 1983.341304631125,857.030647703919 1983.3477854133305,857.2812030215351 1977.184925608897,862.1930706789204" stroke="#009edd" stroke-width="5.624244522886338px" fill="none" stroke-linejoin="round" vector-effect="non-scaling-stroke"></polygon>
  <polygon points="2000.361076648907,813.9279639124503 2001.9882627110999,816.6504897522169 2002.4570635644557,817.3909978440857 2002.0310795644543,823.7699636751855 2002.1760597600148,823.9167634515685 2013.644932577772,825.8534929460653 2013.8908382133302,826.1528220837714 2014.9503368799994,834.0663824134459 2014.9486620711175,834.1189457982906 2012.8614132888977,840.3251222433242 2013.0914446488966,840.6035519475187 2019.1653939466703,840.2139300335035 2019.3015631911182,840.3160062912863 2021.872831742228,846.502349869908 2022.0258947111213,847.033938556509 2025.321918604466,846.2235000562574 2025.636127315556,846.4613889693497 2035.2737058400014,857.4958673745638 2035.436599208893,857.572822314985 2042.1634327022255,850.3056159459298 2043.1550652000076,849.4751966648979 2047.321625626653,850.3592889537173 2047.4719215200237,850.3020152391178 2045.6835897155759,847.8636071930447 2045.1724817333231,847.7280118631676 2047.0841668533465,842.5175208717479 2047.1058665511152,842.3150644569029 2044.6658156355622,839.9432638414506 2044.6090905866656,839.7258295731223 2044.2525747466786,825.9326312714617 2043.986425768882,825.2334407670784 2041.7257978577761,823.7927041571016 2041.593342319982,823.7581431239156 2034.668298835553,827.6928947018238 2034.2605192800181,827.7282412290875 2035.4415508177842,823.8663292169873 2035.4408954577882,823.3514020272775 2030.8688128266729,823.4339212930569 2030.7130555999827,823.4049889043596 2025.7195764888963,819.5675404540158 2025.6721721155407,819.4935718520206 2025.9544138222188,813.9225592598883 2026.018930373342,813.734409459728 2035.303197040026,814.1693711821932 2035.2097718311195,813.9514966642379 2005.1031887911156,812.5244252633926 2004.4484113333235,812.0888874567532 2000.361076648907,813.9279639124503" stroke="#009edd" stroke-width="5.214850782955546px" fill="none" stroke-linejoin="round" vector-effect="non-scaling-stroke"></polygon>
  <polygon points="765.0834255911248,123.4515689730539 771.2900488800149,129.8828031785448 771.6346226044477,130.37639433793777 772.172163440009,132.98451972874284 772.227068044456,133.44433490338963 769.4863525244361,135.45171937876842 769.3088227822225,136.35443101362728 770.8959590666707,137.27012415277534 771.0157443111018,138.0428422140318 781.5208738400031,141.31930438649545 782.1065472266707,141.13805021387054 785.9343593510928,146.34709924335004 786.0567660355662,146.6679676898126 788.1338203288976,145.36806829597447 788.3307924177859,145.24427758460627 785.5407064444514,138.48722421449895 785.0807893600211,138.03269594317646 788.5209196355497,133.67908654751193 788.5472068533488,133.62424664782122 787.5429040622328,132.18676022266266 787.6347272800119,131.61668049642287 802.0468946755643,127.91181433440181 802.5631727200014,127.83724236740784 801.2992745511071,125.83744393259224 801.411850835553,125.19146750629409 803.8292554222351,125.10548877489748 803.8846697511106,125.01004538154632 800.417524080003,117.55023100635265 800.0158612177836,116.72989097984794 795.8964867111133,117.60565739763081 795.7480112622213,117.29670586452232 801.3822140000191,113.20535548656301 801.5354954222055,113.0272008586395 810.2633614488948,111.4270905699592 810.8429181422468,110.82200412412169 808.7813740355557,107.53115088641755 808.4421888266877,106.63799725668616 813.3537479377771,104.60946863929678 813.558875617782,104.59828944877484 812.8570578755532,101.99746795724025 812.5436501599977,101.3536030557658 815.5396648088715,94.02288317253226 816.0418890222279,93.06378669021763 814.5936162400246,91.3160104791674 813.6383926311171,91.15284531086911 813.9885733244371,88.04040418653278 814.3048937511119,87.03065094838496 818.4301664977754,84.08287174722466 819.0531954044488,83.9689832851069 823.5531156177819,87.20717940005818 823.7602093777748,87.37914289150615 825.3282674044674,83.02260427020485 825.3876867111028,82.87333666304005 818.6790576622368,77.606140785712 818.5771855911078,77.56927671313281 811.1691417866748,79.0508959385403 810.8727006133483,79.06390643478483 807.0014162755758,75.05983581703151 806.5417176444387,74.73763011501399 797.9733953688772,74.38015417152894 797.5296438311123,74.18383815457457 790.8290975555499,61.786182200805 790.518456915546,61.620530639127196 786.1926440088789,64.54681478067471 785.9808170933463,64.57398431373406 773.4681742488826,62.334278622881925 773.4416685777903,62.330625426191204 771.6396470311226,65.26748774022383 771.1960411288962,65.4822151493496 772.993038248889,67.93296971523489 773.0503458399978,68.01435902865308 771.3205595288962,69.7733885050908 770.8944298933272,70.0699408661527 774.3251666755602,77.97991595659516 774.500657520002,78.4043616424675 778.83251430223,83.37329023407767 778.7503030310979,83.58395178177273 786.0845824266505,86.20642549236766 786.1866001333472,87.10196988141217 784.7027922755585,93.2685916113038 784.6254597955628,93.6518428633932 786.511877146673,95.47210668365699 786.4708079200134,95.53200526264084 777.6715804711055,92.47869070724812 777.4087811111019,92.49717472535087 776.7442460711243,98.59096619327431 776.9287663200009,99.69268377579976 777.6987415022229,101.31835225829093 777.8311970400171,102.15455431766861 786.4637445955666,102.816890203139 786.6332643822313,102.8184872829803 786.7551613422181,105.4857731140288 786.8319840977854,105.76330840349658 768.7429558311194,114.54309326748592 768.730431173353,114.55119099136903 766.7899830311142,119.33490953152761 766.5509950844641,119.61020712920401 767.7306430844544,121.84344164664037 767.0734626400006,123.03591448150803 770.2660852889019,124.54308872328659 770.4752907644504,124.69463627006155 765.0834255911248,123.4515689730539" stroke="#009edd" stroke-width="6.05131353510511px" fill="none" stroke-linejoin="round" vector-effect="non-scaling-stroke"></polygon>
  <polygon points="8.05255000000011,153.338295837391 16.798984560016606,161.6657368426164 17.29873296889832,162.16336899321288 31.682574248879746,170.6133023600338 31.7888882044424,170.56533587643173 32.1316414844548,178.44665131309705 32.4443210222305,179.00974575474504 34.779587155564286,175.92000205981424 35.11571401777451,175.62220535666677 33.72991888889351,173.26301440579812 33.708656097769335,172.92988491379185 40.18994804443332,167.23184620752693 40.74926139557624,166.80786751292874 37.07152671111521,173.65219455926092 37.03133129777393,173.71109541065346 45.523558995548,173.06192930395594 46.24525599109597,172.83224705191208 57.220205822238995,183.8505448000575 57.4700436178025,184.1112768238014 62.938658728911605,182.493556199806 63.296048382216895,182.11070454080584 70.94169659555314,186.4090588691539 71.8455836711289,186.93562258900022 69.5767273510935,191.87958229425533 68.96250939556171,193.25433033379488 70.45694864888333,198.5687233344721 70.51083380444447,199.15199256281596 77.67377296888276,206.21483750513983 77.83863241776248,206.29818285670592 83.34394768891048,218.3389887173322 83.37911867557682,218.54969583078457 95.31293300446828,229.10586069386738 95.62867088887265,229.64248091258162 96.50743583110284,232.96485573137 96.55622374223435,233.65564015853272 89.40617332445231,248.45202119711723 89.17009808889247,248.79287895108394 94.36251536888426,254.65163443831955 94.47327120888053,255.01099576554373 98.48946292445885,255.43178335691448 98.53315359110252,255.60116679000896 95.16853535112,259.144105736406 95.09928564445704,259.2288486041431 96.37789300445706,262.631762657336 96.37774736888946,262.7378834664047 85.97230537777773,271.54916818348977 85.9153618755588,271.55098775029876 84.27477734222316,277.32928328692617 84.27048109332804,277.48427092188615 84.73906349333242,275.34681256784063 84.85389712890151,275.1998926198354 88.57561375111231,277.91113846812334 88.66153872889822,278.0232560260698 95.26865979555419,275.9482477476337 95.90683480000712,275.97906415625005 98.17685620443785,278.6652553548844 99.20132952000836,278.9544141045259 101.88298982222454,300.23650225150743 101.88444617778418,300.32515923411813 97.38292397335294,299.77798421474984 96.64222153777496,300.1096543171076 95.42237812447252,302.8963761225965 95.39245001777431,302.9328601123776 92.25800877332927,302.1955605238978 92.16698655111372,302.21590544404864 83.21506022223161,308.95295120769117 83.11624649776036,309.1339868496649 85.32393588443642,330.0219960520259 85.33718871998258,330.26044321711345 83.16911220443558,333.9452788617997 83.1440628888738,334.0073002849746 84.62146278221167,335.88108632917977 84.64461883556919,336.06759811266204 83.01168016889255,341.5285203204618 82.88461314666324,342.03234365321225 84.63071063999791,344.2002299188822 84.57624294222455,344.3923916931741 79.6831795466494,346.3088615853118 79.54271405333543,346.5843734214501 81.43291792891227,351.02961955618923 80.8454969155789,351.17962778230833 86.56016329778481,347.54149932131224 87.04141599112313,347.412717581588 96.89125833777484,349.41663591664803 97.32000941332785,349.5778910100122 99.71899110222125,354.2545348924392 100.89230395554455,354.58405596353225 105.86131629333954,354.07603401591007 105.96631952891016,354.06785838920734 106.80030153776875,351.6706434871372 107.07540710221633,351.4227515150775 108.37615106665885,354.00472434162623 108.6163040977624,354.59177731548664 106.88316816889687,355.43010522601946 106.76097993777489,355.8296775322302 109.53584699554608,356.2150536671321 109.6817010044249,356.42375062252506 110.41264585778822,361.4345079750416 110.42400543113013,361.5755182587378 115.55474605333416,364.1234043696528 115.64744308446075,364.18334785108857 112.85524539557059,373.03268762471964 112.8147587111232,373.2652707288868 114.61816379556672,374.01761180071446 114.71013264888438,374.1807236024248 115.97818143110612,380.1412901057698 116.137361093344,380.3034755792247 121.2445087555459,380.85869328655065 121.37834783111589,380.8620981201017 123.13529517333495,384.94865268479737 123.5097241866531,385.7320403599075 138.2132355111023,385.1987750807381 138.21767739556503,385.1969593143218 142.6786400977942,390.15207376474393 142.77716255110113,390.2224282604508 145.51125165334793,387.9136185492167 145.87089865777648,387.9280304737837 150.49286146666395,391.0922065666597 150.55293613335357,391.135893694685 148.97592152000993,391.68793710813736 149.07837613335118,392.165424611179 153.08488308444043,393.53023507691216 153.1324330933346,394.0165568373701 149.82490399110952,394.374997927756 149.78536393779336,394.4266250507277 151.28679369777797,395.60348323437904 151.8799673155661,395.98142949285796 151.86336486222694,403.4875041889096 151.91098768887582,403.52131146038994 148.9671833866812,403.8005042651563 148.88468084444298,403.80209251758754 149.21163266667986,406.12622335347226 148.35420333332854,406.57306858464256 150.14690420445527,408.48156349646854 150.1924153155485,408.50425086029975 149.04997719999642,410.44092280275765 148.7327829600033,411.1631443801376 150.26100966221543,415.56160371618864 150.31285592000472,415.8422092287434 153.67834797333467,413.3852172451076 153.9814883822471,413.11752976230457 157.81658228443825,416.4491242866276 157.85262708445202,416.46636415948853 166.20904962666805,414.8918421879713 166.28325094222214,414.8747152397915 171.45025481779135,418.901214504505 171.5041399733525,418.9227633737388 170.9601183555567,424.34849709037337 170.4203929866851,424.49172586593306 175.80424820446183,425.6957172267354 177.66714541335364,426.30773879252195 188.2672293244466,420.0105165228957 188.29453599110252,420.0184554191434 187.59592223109917,418.1643514573294 187.2472707111226,417.35772619776947 188.52573243555503,416.2842110161506 188.5398590844486,416.2234175523987 194.04757734222926,417.1240839147282 194.22867515555822,417.1003793746419 194.36768429334165,411.8430470597592 194.39819494222297,411.7124891628697 198.54094395557308,407.41581392194314 198.5638815555792,407.32347444500886 197.0631071555615,402.2908493836509 197.04868923556182,402.1932825110049 200.08322448889498,397.324586814029 200.51729126222904,396.66832959981514 199.55711604445946,394.61645358931094 199.34550758222008,394.3814655040693 201.51169083556283,392.994776854866 201.52996809778392,392.8617908638331 205.30928358220967,408.25128621847364 205.30047263112624,408.63027899404517 209.98644226667943,416.207311809943 209.97595650668495,416.26368188765593 218.6351553688944,416.9882079897867 221.9949676355534,418.7580844302207 228.76119554666343,412.6478257889754 229.333907368891,411.66609622920043 227.46263611556037,406.84997692556465 227.3588707822271,406.2335391462035 229.33558217780205,398.498092039437 229.3150475644577,398.4030144379427 233.22579913779168,399.55323803831527 234.98980980445754,399.87374876543583 256.00094267554937,392.67706234366744 256.2292992266664,392.6295184768602 258.5912166666892,394.96399808541867 259.21206103999407,395.74043374305586 257.4591914933478,399.6198363518848 257.2458354044427,400.2937567785044 259.9167186755583,403.3438797745108 260.1770422311163,404.2317130920343 268.8087887911022,404.33075110085304 270.745596044442,402.99945190895926 278.8754824799905,405.55878474485473 279.0156567022275,405.6206111100397 284.31482484445564,416.63139029779234 284.3577145155648,416.826131839283 290.39773072890944,420.83989809570596 290.59273673778057,421.0976808777265 291.8947186044604,426.6355763076932 291.8411247200054,426.77800527346665 296.78341293335666,426.66007048756694 297.9509003644705,426.3329135177843 306.507863066661,418.3183710628142 306.71007803554653,418.3741718726884 305.9784050044325,424.2374746843485 306.05537339556736,424.41665271466593 310.1107410755719,428.0735701118607 310.1438003466826,428.3063716232788 316.75397976002546,428.841822659953 317.4153836355615,428.977328810906 316.305058160018,432.7778270879859 317.00665744889534,433.519141079341 324.7945187822404,434.27892642003246 324.9806410222152,434.3404933991766 325.4679375911144,437.78303118273436 325.74661122667726,438.5791501148557 329.36689268446185,439.98429089185777 330.01912152002456,440.1922132738615 332.27589008888003,437.04347592080705 332.218655315555,436.6679689276858 328.62990395556676,434.4782535146147 328.69980902222574,434.15908036957956 332.4226907288901,431.61764702451876 332.438710640017,431.3660370802751 328.2738978400082,430.3587919329508 328.3442398133409,429.61108489923174 331.9618270133576,425.47129625468335 332.1662993333373,425.0705341170029 328.6956584088982,424.1618341615755 328.6682789244585,423.93661303190277 331.84094950222766,419.7337885584926 331.96321055113344,419.58113392341295 337.27941805331625,418.7578575993608 337.35755152890465,418.55098747566046 333.6278249511158,414.90000867791935 333.14853833779466,414.508809747647 329.3087112800056,399.9209459378104 329.14363337777445,399.5981663814524 324.9135030311079,396.5810776554641 324.57970633777563,396.4754447501251 318.95540681778925,397.03980120128074 318.93996944887454,397.0396877405798 315.3204161688989,392.0560385856003 315.33490690668236,391.86710888441996 319.2918977688894,388.4239345281745 319.6947257155623,387.68200591504103 322.5325073333295,388.3313358535012 323.38010626665323,388.0074662099138 326.9323031022284,381.5065157776477 326.98728052445927,381.36691908151954 337.37641133333796,378.7436829985887 338.00177040888934,378.9373117231222 339.91236326221383,376.54403045427864 340.32647796444485,376.3729804734827 339.2302791377949,373.74394156202436 339.0732840088965,373.63258882273624 345.27044098667807,367.8846163023187 345.4625342844299,367.61250450986665 344.6597182844487,360.87761596215535 344.64792180446216,360.8469611903198 347.64335391112377,357.64060369824404 347.6475773422351,357.541707726086 351.70345474666806,360.29596710410954 352.7473704088841,360.29869200102223 358.31509051557055,356.4548620695783 358.38652475557296,356.316336511583 359.93929104888934,349.0887869388167 360.5231439911074,348.61444149970305 348.39155657776405,348.00006885932055 348.1777635822143,348.0008638006617 348.5419981066732,351.957256525238 348.55161005334935,352.7041012308979 345.8274241688848,354.71554589554546 345.66409389331943,354.714751052357 344.24829784001463,348.56038607087214 344.1730042577908,348.17586417966925 333.1049204889057,348.7886449739814 332.92760920001433,348.7784244465653 331.85048863112,340.93882756759524 331.8456098400127,340.84012836754084 336.2087782666565,339.424473634244 336.5181081866683,339.2384276929148 338.667324897782,335.3698226719058 338.7818672622159,335.2987156370433 346.4794345510961,335.6725376819446 346.8762914400211,335.6268749628722 347.9247218044545,331.4848114710545 348.0171275644459,330.8969409367779 350.32159177779226,332.4465198780159 350.39564745777875,332.4030127661605 350.9714176266641,329.01821176158376 351.5195170400036,328.8220195247919 355.09268539556774,330.00722797023593 355.35002342222265,330.1545678064937 358.440409911105,336.1274589452729 358.5899048088829,336.2710338045796 363.5139885777678,336.3143106458516 363.6486286488723,335.6130171151523 360.7690496266657,330.4333423176646 360.51731856889796,330.09083798030736 354.47111284445396,326.5396848979068 353.843933324453,326.52230288770045 354.1327286311205,324.57252865663725 353.9885494311236,324.4022239967377 348.03322029335664,323.24484256926337 347.0035040977889,323.41765037288826 345.37041979554465,318.1165976083354 345.4431647555682,318.0304694116709 341.58491479999043,317.18576954751154 340.60537005333003,315.63007392825205 343.2111542311102,312.73320934084006 343.5322078133247,312.5687767075211 341.6621744622314,312.0218385983968 340.6295455555735,311.96570127757843 341.4277012177697,309.04227583710565 341.5419523111266,308.78077927488596 345.92951469333616,306.1081236134411 346.00335192000034,305.75478271929717 341.7061564000103,300.25627959091037 341.67935945778277,300.1669405177014 345.8079090044555,296.5837088080949 346.1015102844465,296.0109199759969 349.2200044355484,296.7293205650127 349.2957349244459,296.7293205650127 343.55660176889046,292.8458657912921 343.18049794666126,292.6557952530635 345.1932541422209,286.6956324926356 345.177598320013,286.36729125076783 335.77005115556653,282.73641879522586 335.26382196445024,282.7332352088921 333.90788212445455,288.4033615004224 333.8205736088928,288.55706698373945 324.29666363556294,291.3189167006418 324.23760841778835,291.3157336172077 324.48766466667416,284.0791933919314 324.4301386222139,283.3652871351584 335.92653656000743,278.92007445151796 336.40749798221054,278.6090835592255 340.7378984088789,274.153019628931 340.9772504444479,273.9420733023504 341.0277859822161,268.41874068923755 340.91579224001157,268.2736216770205 327.8758758666879,259.9018956513679 327.4095508177777,259.67724423496804 323.9820180177992,262.99175362813514 323.6130503377715,263.01620790453273 311.98485222223803,259.6427786443161 311.3804646666756,259.5136746697168 308.22337709333055,262.1419891195179 308.01810377778725,262.73685979401455 308.449257840002,268.27851205756417 308.3545947288874,268.5041514626424 304.1602907289123,270.54180115530437 303.76408920001245,270.43501324143256 304.15162541333825,262.80453587286286 303.8032651644678,262.18009288574797 297.937064986683,256.8715825750911 297.8584217866662,256.8279011503688 293.22247796445276,257.0446016232378 293.09919746666105,257.0250360517599 291.1382875288907,251.9609561201138 291.0112205066905,251.84377912370076 284.8523656800169,252.7801641551265 284.70206978667534,252.6954112237505 285.74547572443385,247.89556290290022 285.82339074667084,247.76176631461533 289.6393335733226,246.33048626571656 290.054322088901,245.97721141823388 291.75833090666106,235.90284790006228 291.7409274577874,235.03513425551466 291.0258568800125,229.37513886221097 291.0158080266626,229.3018443451507 286.68416969778605,229.82264299068595 286.1161182133435,230.0389960290555 284.94113055110915,225.3272895986662 284.9066149244388,225.08929193413462 286.17058591111686,221.34493116982742 286.2010237422144,221.29029364368 282.94403017778654,218.83815037989518 281.825694746665,218.75994679210237 281.9036825866567,212.43726356967056 281.95392685334787,212.24224364391523 284.1337998488814,210.41826679389453 284.20028247999267,210.36851386696037 282.16196724444285,208.2239713580417 281.75986747557886,207.66858069296688 289.9383233689075,197.45295578963817 290.02162690668024,197.36424456655334 277.03552287110483,191.9959776871616 276.78670452445635,191.9557746100105 271.9906344089029,173.16925073718414 271.94818164443836,173.0315101329976 273.44444134223863,168.63000669675932 273.541143351096,168.35188148121927 268.05476070222335,171.39728060871823 267.8933965066751,171.506086460569 258.7954705333175,170.16565150890494 258.57454139556626,170.24381122631132 255.56454573333735,176.00510280664423 255.38650626669528,176.15867115255207 254.23846118222696,172.27056959078584 254.22702879113035,172.1213196322566 256.22755160000065,164.0138094747159 256.1690789244383,163.92663883858006 251.58986015112146,164.68769643599046 251.47808486223926,164.68051777221956 242.92592813334318,159.6425707090599 242.8000990133512,159.62764225673857 232.96037833780406,144.19033527692193 232.36458328000276,144.23148569072475 240.60872080887907,137.55787114430098 241.31447071111302,137.27844649212022 238.86939536888508,136.3014179268281 238.51732141333173,136.34439843345137 238.97680159111746,132.03968022700394 238.98685044443823,131.9318213099683 234.67246992889682,134.86730875794422 234.37945119111805,135.17855437121 229.21521439110052,133.01781170967263 228.7717541244417,133.34229343958543 225.9475894311106,129.4344739345321 225.9026608622296,129.04417818916374 228.4432731288905,127.48741409509205 228.39630566223764,127.31534975229408 223.68812660442904,127.88581677957666 223.60984749333124,127.87475641255844 222.44010271112325,124.21536142862863 222.16798267557874,123.7769061912328 218.7801355644258,124.2809298524295 218.29800905776915,124.36291877863516 220.91675480001845,126.81078416715138 220.94326047113987,127.22572556418129 217.96705225777237,126.5379177033825 217.86328692443908,126.44806417529583 216.88971323555575,129.5082455578446 216.8731107822166,129.60482124063822 218.9781271022291,130.05896408721276 219.04934288890922,130.15724908329832 218.46279568889418,132.90995473837359 217.88076319112565,133.3832240609987 212.24874498666736,130.93120869697998 211.87133044444613,130.99049801735202 210.60590310223756,116.48867922617467 210.63131650666014,116.2808827083278 216.34154100443243,107.24997447917815 216.96719135111903,106.30582704366645 218.45464009777766,96.81815439661261 218.6386506222259,96.2742857782356 216.58948553776258,90.08735327315628 216.15986064889125,88.9489263907086 201.89230936000945,70.60950676061441 201.85029350221862,70.56795798065252 205.8244693600061,62.05560750452389 206.1413723288931,61.64587501838798 212.92616877333035,60.197230633908134 213.3040202222253,59.855413866207186 209.8366560977663,49.47304333039904 209.6308730577946,49.173980198167214 217.63187202669337,43.465885632474624 218.08275970665977,43.08422064199806 218.96844233779825,37.71584384152777 218.94652418667806,37.42334024489503 212.47659181332688,35.175658370811675 211.98863988446078,34.897075924461774 209.437323404454,25.917478460301595 209.2104960266804,25.606518515581797 202.09743704001426,25.556824163467923 201.88189641779877,25.372783303631536 203.08324411555782,22.649682309470904 203.1834413777758,22.467231018490224 199.9941683466675,21.328410317866314 199.7414906577976,21.182971318550358 193.27512635556172,11.232896513952824 193.1510448622355,11.168448099771581 186.49753887110978,8.148656773416974 186.3342085955735,8.105003063952267 178.93060667554505,8.745177757816805 178.81053016000783,8.754891167750998 166.70930776000728,20.003792784591155 166.49951974224655,20.07165822759964 152.68387558221707,18.556890439234508 152.07963366222225,18.50616132311518 148.8069114577736,22.49156550924056 148.30876503999002,22.829048351915503 136.87819437334088,27.09195874690306 136.12037975999533,27.416846957122857 128.6235710844701,26.42138514479268 127.2160762577912,25.657812178316476 124.57628617779824,28.205069745301103 124.35091515555519,28.441077408940714 119.11888500446344,27.09458619100735 118.43818441779126,26.91020784649993 115.01917129776098,30.04215548326431 114.98028660444083,30.084534974659277 102.7230885244569,29.82043366810069 102.48045968887868,29.804327102093907 100.6148682222481,35.90494593440201 100.62498989335268,36.40053605999094 83.89728998221813,59.82230524706358 83.80415604444693,60.03522756498535 84.60609823110985,69.54851900447795 84.64687618666335,69.78742854955601 88.24975419554517,76.5021479512576 88.35293698666624,76.66364525794745 86.13053840888438,83.94433404734411 86.10811053333578,83.99454544574075 79.53208265777334,86.97793193274231 79.38229648888932,86.92236010099407 71.39491444445571,78.27026044732304 70.81979963556637,78.50422401895742 52.09317890668876,92.801475524269 51.75261016001582,92.89184123675625 46.62791341334355,103.0342067072412 46.35615746665985,103.61553833232722 48.015092080000386,108.67785644042999 47.981231813326076,109.1239620336197 43.653671279993205,114.7041350983269 43.44898050666211,114.88410904291197 33.6253525599966,113.03769397715917 33.038805360010656,112.85942474222213 20.040977662232535,116.17983537613293 19.7229824266758,116.35740940005746 21.397645680008054,119.42078337295209 21.43704009778571,119.45385559964745 19.799368275540246,131.3641332618787 19.68424336889416,131.71154217857804 22.9750243822416,139.4797174001211 23.116582142225298,139.9228336354787 21.334367031122156,146.3750257022399 21.294899795560696,146.62545130495675 16.648178942217555,152.64215721893527 16.641188435554568,152.66141854189448 8.05255000000011,153.338295837391" stroke="#009edd" stroke-width="5.384306641971726px" fill="none" stroke-linejoin="round" vector-effect="non-scaling-stroke"></polygon>
  <polygon points="97.17816038223805,181.9152338628843 105.28197805333889,188.0636796003888 105.64876119999803,188.15775922453724 107.54398950222071,193.7698945764638 107.93334615999606,194.02773180360202 106.34133108444053,198.18621283621871 106.18520976888954,198.67223642940337 111.36415576001286,194.3303245485946 111.55610342222622,194.27053499807482 115.36185175998958,197.40831550039695 115.64256429335342,197.26539800083958 114.70015661331831,205.11027178882034 114.85037968887605,205.37750565494173 121.10564525333007,206.20049116123812 121.3937123822177,206.33871688851616 123.09946882667259,207.5098640712746 123.19864664000465,207.84733558630217 121.95805016000645,209.5142820143152 122.34245520889067,209.7000896870228 127.24301883555722,207.4364261659863 127.34838616001775,207.28044144836133 128.57034128890496,210.42703332321946 128.56313232889056,210.685816076562 135.705391244446,211.54071258269653 136.21671767999192,211.14941324288486 138.50188518223126,214.44810242053757 139.08639348444535,214.48453203595238 141.0732993689087,212.07944188494696 141.3044229955774,211.75235687489442 138.9914391022246,209.2470685168297 138.97170548444387,209.074921757761 142.12617161777575,207.80885209849623 142.19585823111242,207.57954459649739 140.46811081778264,203.439204785485 140.53452063111013,203.22809740268679 142.39450512891176,208.69123290274695 142.43105965332484,208.8053151542623 150.0694989066758,206.58146500736586 150.1110778577929,206.55869318494626 152.71373087110237,208.3889479330461 153.74912685334107,209.1282053367828 155.2852906933474,204.03847655472748 155.46558751111274,204.0106936282897 154.8534084533528,197.54599423365255 154.89535149333074,197.43701283340454 144.02627871110576,189.26950378559525 143.78430523555267,188.76915890898783 145.01427032001789,187.39953659619607 145.08621428444872,187.10043609713432 143.8448896266707,185.3620668943255 143.82107821334625,185.22777435993305 149.34903981333605,178.32885982891423 149.47450484443812,178.16982952770888 146.210593591102,173.19078335585766 145.97852333336027,172.8327027716365 121.05583789334173,158.7905027731682 120.622353662249,158.75813828650973 118.88120777777635,154.9174533960537 118.68430850667187,154.71424884850387 114.10086630221463,154.0054772802465 114.04821904889081,154.03214613215061 111.70224870224024,161.17733043450392 111.62761048001244,161.32455933416315 103.64852966223384,163.33923044193182 103.56362413333386,163.40760032056244 97.17816038223805,181.9152338628843" stroke="#009edd" stroke-width="5.51892045130239px" fill="none" stroke-linejoin="round" vector-effect="non-scaling-stroke"></polygon>
  <polygon points="153.82587679109542,23.308306932601795 160.04436937778496,36.45947203500657 160.1803929866653,36.59379099419277 160.03949058667763,42.893843951642 159.35544038221246,46.14066276245978 162.0534118666908,61.05735720642372 162.0988501600002,61.77545082622203 160.85905467556563,62.681901994575696 160.68887952887576,63.71528348944378 165.67631476445945,69.0606517112825 167.18225922666147,70.45746546572593 167.68142509333097,73.85740413299175 167.97029321778223,74.78979036040948 179.86828120001132,77.591075594995 180.14061968887813,77.64802655910137 181.29266975110636,80.36414141128591 181.59799469335826,80.68323231544457 205.8833061244584,78.74503424985562 206.90741535110988,78.62793898216444 201.89230936000945,70.60950676061441 201.85029350221862,70.56795798065252 206.43963394666912,56.88354926858267 206.27674057780655,56.578361625062485 194.09854978667113,57.0962547912128 193.98043935112196,57.154597383858004 184.90938313777565,50.72751467550518 184.56022189334158,50.526887995066886 176.43208308445878,51.809310161661074 175.86395878223243,51.7505050725664 165.3097500711226,42.73076128759533 165.06122299555113,42.51297435910203 167.48263256002224,34.24167622706557 167.58661634667783,33.93578986109753 176.43769005334593,27.656285121767382 176.65789101334644,27.474421879691022 175.50970029333962,21.72588065709681 175.471616595554,20.66462034863764 177.77629926222266,11.510458045049404 177.88021023112356,10.53721524982359 168.9564643822448,19.14335670215189 168.92886644445366,19.246527491697293 155.23905140444526,18.702336492867857 154.57932233779115,18.712048116467145 153.82587679109542,23.308306932601795" stroke="#009edd" stroke-width="5.814232301464757px" fill="none" stroke-linejoin="round" vector-effect="non-scaling-stroke"></polygon>
  <polygon points="147.19676475556457,137.19271493521921 147.19676475556457,137.19271493521921" stroke="#009edd" stroke-width="6.439605798470031px" fill="none" stroke-linejoin="round" vector-effect="non-scaling-stroke"></polygon>
  <polygon points="179.36168792000512,296.90562280230336 189.62229535112397,297.8256588513392 189.84613719999447,297.77087087938673 197.9305853422336,288.3736890160577 198.0387197422167,288.3476545240916 212.0494427289011,291.39610641664297 212.4291146222165,291.5571927019988 216.3333125955612,302.52539734030836 216.37277983112267,302.863642802498 223.1159973244428,306.5661336401314 223.3174112977938,306.8660542434151 215.17507302223362,312.7617321588692 215.3127714399959,313.37104870379665 222.8701645066683,317.5474445025244 223.0683744977939,317.37643606629683 222.6800372889045,321.63023896811467 222.64239049779258,321.9395067028596 225.843605644455,317.68720515046846 226.1862132888998,317.4383627714775 229.86584123556509,317.3300762114883 230.05050712000934,317.3270082785235 236.5644214311103,319.91457776762365 236.60651010668494,319.9158276067534 237.99936856001273,323.7004359222261 238.31328599999665,323.93754746054003 238.4864466755605,318.6559751766978 238.56392479112378,318.61597938321177 252.3481116711116,322.7159632015024 253.03187060444156,323.019089535264 259.7612527200033,316.15038640336536 260.39287412446697,315.8431310692464 268.4706230311201,301.10738034305507 268.60926808001363,300.68706008324045 260.34350367112324,297.1123878823488 259.6946244533535,297.2386744683387 258.20957869335666,293.8184890713525 258.2845081866906,293.4531321577739 254.90867600890465,295.40163608296245 254.62621584890417,295.688091301599 251.5287660355459,291.80808619803395 251.6625322933321,291.5031941768608 248.4142040444492,292.65113442409313 248.06606224890106,292.5266560391243 245.93803551112774,288.88005171920634 245.69686303110916,288.541378130372 240.0288000266662,290.6134044351271 239.65706527111593,290.8844240881077 235.45278523554566,286.9321097201097 235.09131778666756,286.8256950951542 233.38774587555213,273.03641626064893 233.16594292445347,272.7169763662165 225.45876368889708,281.09900750069176 225.22217872890883,281.288208855614 220.51866000891437,281.024304620783 220.45195892445167,281.01361652912567 218.28045997332788,276.9265180474828 218.2363323999814,276.8238363130582 220.39144735111745,275.3802447605773 220.4231959022361,275.35238460137737 215.76220276443178,267.8312110103212 215.47151419556008,267.47091092062294 206.39354029333458,266.78396852096887 205.91643821335288,266.95536373777543 207.4004645244347,265.2458229390828 207.61469442668727,265.1070646886434 206.98751490665722,260.9935176847572 206.82556816889678,260.40784136212426 199.14431206222048,266.12522354265786 198.8507107822295,266.34461653346773 192.6407378755755,266.22997271727183 192.4621886844468,266.2077945701236 193.74829627556733,271.7419282026018 193.73562598220428,271.866454222945 181.13582025777555,280.77381613222644 180.8919535199891,281.0668295604479 179.8894711733517,283.65214691623225 179.73524312000495,284.15502903648996 182.13109364445677,288.96599875935465 182.10101990222006,289.396755090747 179.36168792000512,296.90562280230336" stroke="#009edd" stroke-width="5.158396313152636px" fill="none" stroke-linejoin="round" vector-effect="non-scaling-stroke"></polygon>
</svg>