<svg width="256.6914850133471" height="353.0356778476853" xmlns="http://www.w3.org/2000/svg"><polygon points="5,95.77915187738836 5.161946737789549,96.95959866710473 6.101004800060764,99.31366022879956 6.905786880059168,101.3920078931842 7.536097564501688,102.72321183956228 8.11543580435682,104.14115535910241 8.909149582264945,106.31801222229842 9.941705671139061,109.54397138400236 10.740953600034118,111.55818460945738 11.475539342267439,113.48608938057441 12.164978062268347,116.28640307090245 12.239252195577137,116.74282444466371 12.433530026697554,116.70649242994841 12.630138026666827,116.60794181004167 12.867523982189596,117.08116603887174 12.343235982232727,118.2814796906896 11.857687039999291,120.07807753211819 11.802928071119823,120.32104399788659 11.55301745783072,121.6975460848771 11.237570844357833,123.5227262803819 10.309581084409729,125.3742308258661 8.530497137806378,129.12760043982416 7.741734968847595,130.97633255564142 7.172299946658313,132.0634941419121 7.2634678044123575,132.19019307103008 9.613443128881045,130.7279285400873 11.703313351026736,129.86010168126086 13.01840241777245,129.50361502438318 16.22995768894907,127.99455739289988 17.43494627554901,127.52544405509252 18.864796160021797,126.9509718422778 19.899099875590764,126.47731495572953 20.679415182210505,126.00774421496317 21.11632184893824,125.81882571993629 21.409340586629696,125.63172358716838 22.586658417712897,124.48231350758579 23.352118897717446,123.73844076797832 24.121074631111696,123.26659343205392 25.49500046216417,122.93689006619388 26.768729031085968,122.30927153420635 27.863908408908173,121.51225696783513 31.089444693294354,120.7106980624958 32.38793130661361,120.47499830962624 34.459742720006034,120.47681487898808 35.696771128918044,120.48726015276043 35.693567146663554,120.5862631573691 35.72269425785635,121.83923765609507 36.13571669335943,124.17668112087995 36.983024355606176,124.1403503480251 38.72890339558944,123.7606934082578 38.964541724533774,124.91419449879322 38.961629013414495,126.1462540649809 38.980270364438184,127.15305907838047 38.81453710224014,128.23706089018378 38.72773831116501,129.41097381024156 38.25121877330821,130.70840133854654 46.47991893335711,134.6156232166104 48.56454627553467,136.44341967720538 49.153205191134475,136.96519030851778 50.908404906629585,137.7816748249461 52.28640853334218,138.48826295608887 54.31045148440171,139.4859287936124 52.92370972444769,140.22974768315908 52.534571519936435,140.24473301926628 51.722798933275044,140.6293562927749 50.993456071126275,140.70791562623344 50.2941141333431,140.8686670063762 49.80477866670117,141.1561119747348 49.69496945780702,141.35636961919954 49.7573014756199,141.58296478138072 49.858663822175004,141.91536447196268 49.622442951076664,142.7327386002289 49.31020031997468,143.0306252966402 49.13019477331545,143.2304271205794 48.60212024883367,143.49107740598265 48.384249457740225,143.9192879110342 47.670635235495865,144.52141493663657 47.03653802664485,145.20436845952645 46.57458204438444,145.4146123637911 46.37768277339637,145.50134359113872 46.213114595622756,145.6343919513747 46.05786709336098,146.32233695255127 45.66872888884973,146.82364995917305 45.34221397328656,147.56926010211464 45.034340408979915,147.8744055381976 44.71860252448823,148.36118427629117 44.206839182181284,149.63579471095 43.765563448891044,151.5347551513696 43.45565098663792,151.73545731877675 43.37555143109057,152.22994671028573 43.312054328853264,152.44517865637317 43.41370794666,153.42189310269896 43.31176305771805,154.08892615756486 43.29079153772909,154.52574315597303 42.99340373335872,155.146457693947 43.01204508438241,155.94970599235967 42.979422720032744,156.64987817773363 42.85679758223705,156.93412383040413 42.5238747021649,157.0639867365826 42.38377329776995,157.45493718551006 42.3036737422226,158.01389067206765 41.99871288891882,158.71632652642438 41.709771946654655,159.71435365872458 41.954148408956826,159.83558776194695 44.76404081785586,161.0501953662606 45.467460551066324,161.17506118415622 46.18806527997367,159.79426828119904 46.03223523555789,159.4868692603195 46.57924238231499,159.18582666671136 46.95352575997822,158.97332576161716 47.07440327119548,158.99375855003018 47.41577301325742,159.04234317241935 48.54270094225649,159.24122216773685 49.45903985784389,159.3860677142511 50.37159224890638,159.61219003616134 51.832025600015186,159.46507433534134 52.80195839994121,159.43692255410133 53.72004494222347,159.5168372784974 54.967267840052955,160.39226483658422 55.616802417789586,160.701478811563 56.52411192888394,160.95211889175698 58.63262350228615,161.40663032943849 60.665113315568306,162.20349873992382 60.851235555601306,162.46503440267406 63.41005226667039,163.36905542574823 64.6360123733757,163.9343504398712 66.58257720887195,164.51326549809892 67.55775288888253,164.76571738615166 68.08262343110982,164.9137376016006 69.2884858311154,165.365516470687 69.6050975288963,165.42726707737893 69.60334990220144,165.29650106595363 69.99831352883484,165.40910513600102 71.2033021155512,166.07156096503604 71.70690986665431,166.31038964510662 72.3913969778223,166.55375852476573 73.23433557339013,167.3020253147697 74.15533482667524,168.00216096360236 75.36993536003865,168.63100980396848 76.33753799111582,169.11274764989503 77.32086926221382,169.64215860451804 77.81136981328018,169.90323128533782 78.64032739552204,170.40948437375482 79.14713912887964,170.70279279898386 80.42348913778551,171.18634220317472 80.76718904892914,171.30847798590548 82.12101717328187,171.77931305702077 83.5226137599675,171.9922554884106 83.9769966932945,172.047193693812 84.51846968883183,172.04810176312458 85.77501326217316,171.70666740380693 86.39017784886528,171.4274354481604 86.48833621328231,171.39565292652696 86.5882422045106,171.37839955557138 89.10948494228069,172.52165943587897 89.54202254221309,172.84992555889767 89.93523854226805,173.36933871684596 90.01533809769899,173.4646854030434 90.20961592893582,173.74436877499102 91.67587470216677,172.78318269434385 92.12443221337162,172.70418090978637 92.44628679112066,173.05605645361356 92.5039584711194,173.1205290722428 93.94371157337446,174.70055628829869 95.68696917337365,176.01950700127054 97.55285191116855,176.73368936870247 102.4202834488824,174.36003415141022 104.42568504891824,173.39431047206745 104.87802908441518,174.3559478825191 105.22027263999917,175.38341507397126 105.36969472002238,176.3636587462388 108.26259939558804,176.04674858407816 108.91446414228994,173.36888468498364 110.52286321774591,173.2299508670112 113.35780494217761,174.49215680384077 115.34223502222449,175.28534506098367 116.03516899549868,175.58818148623686 116.65819790225942,175.74209668923868 117.8232823467115,176.09169718821067 118.1515448888531,176.16978969040792 118.72593151999172,176.3032733211876 119.4031368533615,176.43312466569478 119.77479879104067,176.47171683359193 122.31147889769636,176.53437233855948 123.28840220440179,177.11506996501703 123.72763903997838,177.36659918294754 124.38824192003813,177.69939822459128 126.41082851553801,178.04944960051216 128.00553784891963,178.06216222094372 129.27897514670622,177.9227773777675 131.2048597333487,177.58316833071876 133.60464241774753,177.03924792353064 135.0487645866815,176.68193052196875 136.43230236449745,176.4499236101983 137.73894456890412,176.1797782642534 137.74768270214554,180.74677860038355 133.29647758218925,181.3737745420076 128.76633799111005,182.1555873702746 127.40814079996198,182.31767016591039 124.21726577775553,182.74580425280146 121.99311957333703,182.73944807960652 119.49576106667519,182.79075147293042 118.00882204447407,182.30132568778936 115.91108750214335,181.84731191577157 115.63379740447272,184.64674574462697 115.63583630218636,185.8648468820611 118.82816767995246,185.6900545550743 118.57621816894971,186.48819603747688 117.12248405336868,188.51940296211978 116.14031786669511,190.48521547723794 114.40463331551291,191.53485220682342 112.27078115555923,192.759724651929 110.50393059558701,193.65817192418035 111.25016718229745,196.12195952964248 111.51289372437168,197.35633977025282 110.7235490133753,199.400156606338 109.76526705780998,202.8875847182935 110.25285489775706,205.86288599227555 110.04080952890217,206.78216142050223 107.70365013333503,207.70143296476454 106.44827164441813,208.41278758790577 106.00204430217855,208.6983274940867 104.68782904895488,209.83594381302828 103.88275569770485,210.21908220794285 103.0942847999977,210.43516470189206 100.40934769774321,210.8328285625321 96.20630556438118,211.36985520273447 93.86448583111633,211.77795824658824 92.3248267378658,212.3163444059319 90.3992334222421,212.91601241315948 87.57623381330632,213.01996680500451 86.55474602675531,213.36769161501434 85.70015658671036,213.33773101354018 85.26179356442299,213.27009267092217 83.39095921779517,213.61781708116177 82.24305976892356,213.98506066564005 80.71592533332296,214.19387627165997 78.17254599102307,214.73361828998895 75.08769365330227,215.09813632204896 74.0720312888734,215.34508218849078 71.15728128002957,215.41362777457107 68.49797603557818,215.59111988707446 65.57215772441123,215.6887177900644 62.083312355563976,215.7881314230035 58.69320789328776,218.80365670262836 57.1520924444776,221.31300671142526 51.49997653334867,220.77963607606944 49.0198030222673,220.79779339581728 47.53257272893097,220.6484493961325 44.93035662220791,221.73924834741047 44.2519862044137,221.95849691476906 44.61665763554629,230.8113243873231 43.4658454755554,231.0523515706882 44.17771207110491,234.3858526921831 42.22240910225082,234.65047892928123 40.22778453340288,235.26188686059322 38.01645425776951,236.43295293464325 35.93357454217039,237.57360154384514 34.30886428442318,238.33841829327866 33.18950940447394,238.61166374431923 34.488287288928404,241.8288534838939 34.5217834666837,242.74207644135458 35.131705173291266,244.39603510289453 36.28309987555258,246.45620368036907 36.921274879947305,247.62085523322457 37.44993194658309,248.94435660197632 37.713823573314585,249.7867455991218 37.92295623116661,250.9182468088111 38.05111552006565,252.26124441926368 38.10995228448883,254.02859667380108 37.988200960098766,255.62982176209334 37.84460430231411,256.67642113548936 37.895285475533456,257.5128800685052 38.164419982233085,259.08230980328517 38.348503324436024,259.6142250052653 38.348794595571235,260.65308976883534 38.07150449778419,262.2569891929743 37.94625792000443,263.60672448342666 37.89208149339538,266.4282523513539 39.395040426636115,266.1827259652782 39.708739413297735,267.99217177618993 39.82816056883894,269.1399162868038 39.85583132447209,271.29969272739254 39.658058239961974,273.6545915930765 39.40669127111323,275.9595450114575 38.733563733287156,279.5006574255531 38.03829959104769,282.8964951647795 37.22740081779193,286.4701680226135 37.65236536890734,286.5309766783612 41.80647395562846,286.6498711652821 44.660930844489485,286.8245824116748 46.44817038229667,286.8395576548064 50.443536213366315,286.60313021059847 54.485505422228016,286.5350608411245 60.773757440038025,286.3254070497351 61.994765937794,286.3358443644829 62.95945585775189,286.4098131459905 62.976058311061934,287.6187226732145 65.19146638223901,287.5501998277614 66.28751957335044,287.63097510027 69.60684515559115,288.3334464309737 74.25640590221155,288.4813826108002 76.2434574222425,288.6229656090727 79.22869503998663,288.2072921859799 79.35714560002089,290.7639434375451 79.20277191104833,293.153119137045 79.78822684439365,293.7375896552112 79.83250005333684,294.37515081407037 80.66495288885199,296.6090959236026 83.02541397337336,295.75826639460865 83.30095644446556,296.9916277958546 84.1182631822303,299.3975245861802 84.42963200004306,299.2795446017408 85.42199267551769,302.18274118111003 85.82773333333898,303.4755088153761 86.48105443560053,305.1140319784172 88.39674453332555,303.5844113191124 89.65794844448101,303.01947898918297 90.17320704006124,302.62152979290113 90.57982151105534,302.77127130905865 90.946531840018,303.27676160563715 91.14197475556284,303.83171055233106 91.69655495113693,304.71835540171014 92.62483598222025,305.5573522426421 93.7558417066466,306.21348272665637 95.13268024881836,307.30657538527157 95.92639402661007,307.60650561982766 96.47573134221602,307.7371861374704 97.73810033779591,307.9318455128232 98.20500792888924,308.20681859971955 98.64016696892213,308.69641503464663 98.9375547732925,309.5603526746272 99.5148541155504,309.70736693171784 100.35604508442339,310.08533831546083 100.74722218664829,310.1497703465866 101.96677432884462,310.556780694169 103.05117667559534,311.1185172480764 106.99964785785414,312.0645727070514 108.70853546669241,312.364042642992 109.7174985955935,312.5972659137333 111.41852188447956,312.93076568178367 112.53758549329359,313.84232910734136 113.33828977774829,314.6513441216084 113.80286719999276,315.1504545205971 114.87008455116302,315.3922957839677 116.11177329777274,315.5910319307586 120.45986844447907,315.2902052272111 121.63660373329185,315.3546357174637 122.32400355557911,314.62003624934005 125.44613859558012,315.44039176311344 127.18415331561118,315.7362271742895 131.02805816882756,315.578327342344 131.32515470217913,318.27168350224383 134.06776348443236,318.63738933275454 137.50913166219834,319.02260485937586 139.5713311288273,318.29618490464054 142.95794033783022,317.30841321888147 146.38649258669466,318.34065040567657 148.880064568948,317.10423385479953 151.27373055997305,314.0483264854993 152.5125065955799,311.8340713243233 153.06038755562622,309.6683446385432 153.85614023113158,311.8585734514054 155.18054997327272,313.83053189481143 156.9797316265758,316.22036186489277 158.1226794666145,317.63872965128394 159.85049969772808,319.1945677542826 161.0275262577925,321.0117399095907 161.76822869328316,322.69731799617875 161.27190272009466,324.49358993954957 161.9706621156074,325.67234281043056 162.80661020439584,326.7467355552362 166.07117681775708,328.5479648717446 167.55258168897126,328.6005950256367 170.94851157336961,326.5548152808915 171.26949233771302,325.87923642026726 172.18670506670605,325.1859605672071 172.89769784884993,324.8179971592617 174.2223988622427,323.95820354053285 176.21323690668214,322.4945048498921 176.86684927996248,321.90058338607196 177.7802754844306,321.826172943227 177.98270890675485,321.43007302400656 179.7478118399158,322.12472200515913 180.06879260449205,322.33025782345794 180.29714915552177,322.62063922255766 180.5627884089481,323.1864281172748 180.82172842673026,324.36564178427216 181.2067888355814,324.2758058004547 181.92739356448874,327.5343782188138 182.73887488001492,329.8628074899898 183.07267157337628,330.7330129708862 184.26600931561552,332.6063475831179 184.31698175997008,332.56687569530914 184.61087431106716,332.97248302865773 185.2047761066351,334.29092849057633 185.6102254933212,336.505408901372 185.8709131377982,337.48674181790557 186.27898396446835,338.4444785537198 187.07939697778784,340.0196763742715 187.7114552889252,341.32446870207787 188.45128391112667,342.7426729109138 189.64287402667105,345.4701721142628 189.55054108437616,345.50918798940256 191.41584128001705,348.0356778476853 190.7540733156493,345.74509778257925 190.93670030217618,345.66661243746057 191.6523534222506,346.79262491111876 193.1349233777728,345.17120139766484 192.42626076447777,344.42717537347926 193.59047139564063,342.44778156187385 191.25185564439744,341.41520501254126 192.6886960355332,338.56697418465046 195.69374008884188,339.4267100994475 200.0971767466981,340.43570454092696 201.05778887111228,340.7469311991008 203.35009251558222,341.64612875215244 204.23351779556833,338.26436448213644 205.10296206222847,336.1855560238473 205.495595520013,334.7577814901015 207.93295217771083,335.7867600757163 211.65102791110985,336.0004494630266 213.30457400891464,335.826231379644 214.17372700443957,335.4401382030919 214.64937272889074,333.76781601971015 217.19479096890427,334.0518304053694 218.8981444266392,333.7973063486279 220.95743118226528,333.38761726854136 222.01707548450213,332.8685859203106 225.7668997689616,329.61009335902054 227.93745208880864,325.9981094141258 228.96913436439354,321.9627433096757 231.14492956444155,319.94276357017225 230.87666887114756,316.7739166112151 230.51782286225352,312.18299950368237 230.4988902399782,311.5849662090186 230.59209699556231,308.2354048907873 230.98909952002577,307.32427173428005 231.95641088008415,305.7806001811987 229.62362055119593,305.6775976038771 229.1200127999764,305.6744213121128 230.37014840892516,304.1729376568692 229.28924131556414,302.25851962913293 230.13625770667568,300.92127571528545 230.53413404442836,301.58105029177386 232.9315865599783,301.7371452222578 235.09456583112478,301.3673271095613 234.89096732449252,299.86762881220784 235.69050652440637,299.80047112778993 236.37994524440728,298.8974705208675 235.30952391109895,298.3257194557227 232.4011818667641,296.8768229272682 231.6639746844303,296.74386701575713 233.13081600004807,293.21619483525865 234.7491182932863,290.58742020383943 235.2667070577154,290.8792053175275 236.82850275549572,289.53100053273374 241.06474979547784,286.6230972215417 243.86124373332132,283.75372820085613 242.24672796449158,281.3807863506954 241.74137258669361,278.50272577104624 242.3588673422346,278.0893020852236 241.99914752005134,275.8796730430331 241.50777315557934,275.7394432093133 241.1157222399488,273.86879581434187 239.57402424886823,273.3282928086119 238.37020074669272,272.81910235102987 235.98352526221424,272.08072868868476 235.773518791073,269.96498155465815 235.75662506662775,268.03483221819624 235.99226339557208,267.5269908813061 236.5852913777344,267.10492345289094 238.7424452266423,265.8450700022513 238.87351722666062,264.6891389685916 237.65658652444836,264.58747846615734 235.89963918214198,264.3133579461719 232.9499366399832,263.82593087048735 230.0177103644237,264.18764361867215 229.07836103113368,264.04150629462674 229.00233927113004,262.90417333255755 228.8928213332547,262.51250461966265 228.28697742219083,262.0078273245599 227.90366464003455,262.3041892233887 227.5372455822071,262.4058507924201 227.0563569777878,262.49162770441035 226.54750634671655,262.3749892497435 226.1143862043973,262.15578140097205 225.2463982932968,261.4273562186281 224.15966577781364,260.733875025413 225.7642783288611,258.2499415965285 223.829946879996,256.75085385667626 221.1968560355017,254.73798441234976 220.10954097786453,253.93873165128753 220.23973916447721,255.30758069863077 220.4299391999375,256.87339547649026 220.44246385770384,257.27097447856795 220.3964430221822,257.82513304031454 220.470134613337,258.5862477819901 220.389161244384,259.0047009065747 218.20841443550307,258.86854488065 216.66613390215207,258.7623431212269 215.20133148448076,258.3525127689354 213.21194979560096,258.1755093880347 212.46425685333088,257.94358935573837 210.7999337244546,258.18730961799156 211.99035875557456,255.57853554026224 209.39251171553042,255.60168242058717 206.3708652089117,255.9171151528135 204.74440732446965,255.83995898725698 203.49194154667202,255.903499360953 204.0683670755243,258.24222606397234 204.5865383822238,260.45657269936055 204.6908134400146,260.7751753416378 203.41213326225989,262.61189686268335 202.47482282668352,263.90580726310145 200.7685566577129,265.06219629826955 199.72755370673258,265.3862382774241 197.9965294932481,264.31290410395013 196.91358350228984,265.4552219417528 195.93403875548393,264.19808199518593 194.9195414755959,263.2409261697903 194.4654498132877,262.8415426935535 194.60118215112016,262.65637374215294 195.43538261333015,261.2167705401662 196.3199729777407,259.7649038192467 194.57409393775743,258.46960723400116 193.5001773511758,257.9726361052017 191.5891475910321,257.2033497908851 190.94514716451522,258.5662781984429 190.47503559105098,259.6092326330836 190.23153294227086,260.2069549187436 188.91819150222,259.480338622001 187.84252728894353,259.05644017411396 185.6472169244662,257.6018359026639 184.78476316446904,257.30592145666014 183.56346339557786,256.91242723708274 182.00341532449238,256.74177669687197 181.44242716452572,256.553879404848 180.75939640891738,256.37006667949026 179.50285283557605,255.7205938064726 179.1696386844851,255.51091032661498 179.54858240007889,255.09517365228385 179.48013368889224,253.4907675764407 179.50197902217042,252.111922012351 180.28986737772357,252.68016357312445 180.98687914665788,252.22493502881844 181.42174691555556,252.61843772465363 182.02176540438086,252.93432864709757 182.7942163910484,253.24023407476489 182.94946389331017,253.21073282824364 183.35170929774176,252.25171320483787 183.30743608891498,251.01038242841605 183.2555898311548,250.08993222028948 183.36918556445744,249.13906857260736 183.39073962671682,247.06984783196822 183.63103829335887,245.69323098671157 182.94829880888574,245.27384449995589 182.37216455105226,244.82086987583898 182.07972835563123,244.63477782311384 181.59767466667108,244.40556666138582 181.62971448886674,243.79554607637692 181.92768483562395,242.6690005902783 182.36459150223527,241.60327048308682 182.70916522666812,240.99051869713003 183.10500266670715,240.3319220758276 183.38782691559754,239.42685909743886 183.84541383106261,238.8082005425822 187.90777201775927,234.14982215769123 188.51798499561846,233.0736104560201 189.5549101511715,232.07773541775532 190.75232568883803,231.17036854987964 191.53584497771226,230.59344647766557 191.5040964266518,230.40915790881263 191.66575189330615,229.22171846107813 192.4489799111616,229.11005524394568 193.10026211559307,229.0047467914992 195.6686907733092,228.68110454751877 196.8343577600317,228.50907011528034 197.8998274843907,228.3983143666992 198.16983580449596,227.82002318953164 198.80043775995728,225.71655550634023 199.23850951110944,224.37203227734426 198.28459662222303,222.85183040844277 198.10488234669901,222.4673524692771 197.74924031994306,220.9108226770768 197.26369137782604,219.49636366701452 198.1680881778011,218.406461347593 199.2740445866948,217.1263525262475 198.5921789156273,215.74228313216008 201.51450197328813,215.2874312484637 202.5223000177648,215.0295906366082 202.8170663821511,214.84074943128508 203.37863708438817,214.2606064339634 204.15633095114026,213.54518539644778 204.0200160711538,212.33404848136706 204.02059861342423,211.72076031321194 204.38760021340568,210.65714838495478 203.32387811562512,210.6480693022022 202.08859733329155,210.87550021219067 201.09448903112207,211.44203366100555 198.8761682488257,210.9989755768329 196.96688611560967,210.57770639756927 196.12860785773955,210.1491731199203 197.26573027553968,207.64604980137665 197.74399743997492,206.15660058835056 199.4383214933332,203.30523703154176 200.85593799105845,201.09893422108144 202.61725440004375,199.4582657336723 203.49398044450209,198.5634742474649 204.53236195561476,197.0085893701762 206.19406364439055,194.9742837920785 207.1672004266875,194.08719167253003 209.11085255106445,192.7438349497388 209.96660707553383,192.1023440042045 214.20576682663523,190.1705958690727 214.965110613266,188.20932052086573 216.00640483549796,186.1190900162328 218.93746602663305,184.75888579140883 220.1986699377885,185.25012207659893 220.45091071992647,184.59771283133887 220.7978146133246,183.5021875477396 219.8109880889533,182.7984696815256 219.10116039111745,182.27817100833636 218.05957489775028,181.73607839707984 216.8531299555907,181.06504396384116 213.496812942205,179.76927878841525 211.3323773154989,178.62060874258168 211.23276259563863,176.86399448098382 211.1718869333854,176.36774497741135 211.92977436445653,175.95412718865555 212.9311644444242,175.33755826787092 213.31855502224062,174.88080579030793 213.52797895111144,174.58023852750193 213.75109262228943,173.68579874798888 213.82391040003859,172.81451098027173 213.7534227911383,172.27375689015025 213.60196181340143,171.7666000694153 212.99611790222116,170.70052261138335 212.90232860448305,170.08893322770018 212.83562751999125,169.4296679130057 211.25548174220603,169.5899440307403 210.4346797510516,169.16995678591775 209.197651342256,167.69522758433595 208.77530823112465,166.76034943090053 208.94570183113683,165.6188754660543 208.42199637333397,165.4436128232628 208.0809179021744,165.41092133021448 207.14331619557925,165.53487654868513 206.46086798224133,165.435893998947 205.6001618488226,165.28424174839165 204.73770808894187,165.11397337692324 203.90001237334218,164.89239727001404 202.74716131552123,164.46104969328735 203.11241528892424,164.00881489447784 202.2656901689479,163.66418955218978 200.79331470222678,163.39766075095395 198.60761628451291,163.8816804443486 196.15948259551078,163.65102203807328 193.12094236444682,162.88094810739858 193.1838569244137,158.27815575210843 193.14016625785735,156.6285370355472 194.2338892800035,152.55824345408473 197.20368952886201,152.94693162769545 198.1680881778011,153.02367021539249 199.84114944003522,152.98053314280696 202.08597589330748,152.01607678085566 203.75758079998195,150.93310161697445 207.74042197328527,152.48195877776016 210.31788003561087,152.81479588954244 210.56604302220512,152.75758245232282 211.84181048884057,152.7366950031137 214.46033777773846,152.8352292564232 214.91530325333588,152.82342331134714 219.07407217775472,152.34891460556537 219.680498631089,152.33120564813726 220.93121678219177,152.32076190342195 221.24025543115567,154.007647222199 221.46628181333654,154.4194904533215 222.77292401785962,155.77080301009119 224.1028679111041,157.25151590135647 224.016069120029,159.5772273632465 223.94441642670427,162.17580136837205 225.57495210669003,162.01415762136457 226.95120810670778,161.84978941828012 229.060884764418,161.22001286107115 231.69543196447194,161.24952658324037 231.88504945777822,162.0459415136138 235.29874687991105,164.21813252358697 235.86847317335196,164.64902653190074 236.21508579561487,165.18389693758218 238.36029752891045,166.2450069147162 239.98850304004736,166.0579395495588 240.95581439998932,166.43570649030153 242.28954481775872,165.37459744338412 243.03286869334988,163.66509765654337 244.07095893332735,161.57417726318818 245.45566179556772,160.89944817416836 246.78647950221784,160.12618608627236 247.65038961777464,160.7160086792428 248.50847431109287,161.26632670022082 249.9732767288806,161.95058982277988 250.90214030223433,161.20911548566073 251.5825496177422,160.16659738495946 251.30555079109035,158.84618836874142 250.9423357155174,158.01071222411701 250.04580323549453,156.99542276421562 250.8485464177793,156.31159812305123 250.50805048889015,152.97417609987315 251.69148501334712,152.0605762738851 250.3571720534237,149.3806007723324 248.26438912004232,149.41692732984666 246.86890922673047,149.57994268235052 245.905966933351,149.8074374407879 244.77117468451615,150.06126863707323 243.9352265956113,152.19407469860744 243.44414350227453,151.8349001792376 242.00293404445983,151.67143243935425 241.3903908977518,151.72864616231527 240.16734350228216,151.60195861267857 237.75649251556024,151.7481714769965 237.75765759998467,150.65338891657302 237.7291130310623,149.05139106756542 237.11365717335138,147.26593058381695 236.942972302204,146.22561610356206 237.31055644445587,145.22434845054522 238.2580613689497,144.6685407437617 239.15721528895665,144.08639422105625 239.85888739558868,143.24859091371763 239.78082673775498,141.35818601422943 239.72286378662102,140.66068920952966 239.6401427910896,140.01768236153293 239.97015296004247,139.79880530305672 241.85351196443662,138.4855383276008 243.3643352178624,137.40113347943407 244.28300430218223,136.7213342161849 244.63282090669964,136.6009954479523 246.10869162669405,136.32398897374514 245.674697671202,135.52293875825126 245.59925845335238,135.39170065819053 244.29815039993264,135.86034292174736 243.57463296002243,136.2613218863262 242.73839359998237,136.78127652121475 242.11623850674368,137.19814754917752 242.06031445332337,137.09688156680204 241.0251369244652,135.50931542972103 240.76910961780231,134.8049881842453 240.35754353774246,133.63019614393124 239.82713884441182,132.3931836745469 239.33751210663468,129.92458710330538 239.163331982214,129.36238256946672 239.57489806227386,128.82333695475245 240.18860629328992,127.94778234272962 240.76357546669897,126.99229756201385 241.60097991116345,125.55225054523908 241.6140871110838,124.15397438855143 240.7391086933203,121.23841026320588 239.80034190230072,119.10302993829828 239.33285176882055,118.07983835961204 238.61428593774326,116.46079702227144 238.41156124451663,115.68964771082392 238.24000256008003,115.08971163828392 238.15291249775328,114.22818056109827 237.8735835022526,112.96744153217878 237.30618737777695,112.19037576019764 236.4469376000343,110.24792626628187 236.4475201421883,107.9130581257632 236.35751736885868,107.09282812272431 235.8705120710656,105.31883172283415 235.80847132450435,105.07130675337976 235.51079224888235,102.7627254453837 235.631378488848,102.24677710887045 235.6986621154938,101.63181596115464 235.55186147557106,100.41596816136735 235.7659457421396,99.57845081877895 236.17052131553646,99.0570446838974 235.67099135997705,98.2917381192674 235.05903075553942,97.33248953038128 234.1823047110811,95.91586420370732 233.80569116445258,95.15463434334379 233.75937905779574,95.09150119830156 234.40425329783466,94.5628171635326 234.70105856005102,94.24896718456876 234.91397774219513,93.97008997807279 235.14553827559575,93.53769334167009 235.27923171548173,93.22020828939276 236.40761600004043,92.21778820839245 236.3621777066728,92.1587420241558 235.66400085331406,91.42520539934048 234.34862051554956,91.40158684150083 232.73614364443347,91.12316018762067 230.97366215114016,90.40460884035565 229.9431449599797,89.7837095252471 229.46953813335858,89.1714383844519 229.08506026666146,89.04017231462058 227.93046158214565,87.26284918305464 228.7629144177772,85.54728481493657 225.4884445866337,83.61549862544052 224.71774122666102,82.18334039358888 224.0795662222663,81.09274989011465 223.10584689769894,80.48772189614829 222.64039566228166,80.1502318258863 223.0522530133603,79.02601819089614 223.79033400886692,77.21817963419016 224.26801863114815,75.37489560316317 222.6648624355439,75.09236029756721 222.16241976886522,74.99151963327313 221.15025265782606,74.88431959657464 220.4919799467316,74.59406160493381 219.92429255112074,74.59088193788193 219.25291263998952,74.81482123944443 218.70940074673854,75.03240098932292 218.10705208894797,75.18638736126013 217.87112248886842,75.40578368515708 216.8572077511344,76.29154299083166 216.7823510755552,77.1991018607514 216.5333142755553,77.73009926325176 216.12611726217438,78.20931308576837 216.04368753777817,78.80072053725598 215.8246516622603,79.08870177081553 215.62862620444503,79.51249680435285 215.5307591111632,79.91267120669363 215.24851740442682,80.1588621303672 214.06886940449476,79.75641704420559 213.72109169780742,79.56791259988677 212.94223274674732,79.89132253418211 212.2370653867256,80.20655591180548 211.1238272000337,80.50952473597135 210.5835192889208,80.64624666090822 208.94541056000162,80.87381352804368 206.64902911998797,81.59648437582655 205.50200348440558,82.0261794172111 203.89535203552805,81.93306375609245 203.3419369244948,81.35801688826177 202.40520903107245,81.08684497035574 198.56363434670493,83.14583534130361 198.67256974219345,81.74546964489855 198.13517454219982,81.42887582612457 197.46670734218787,81.96576779778115 196.85736817785073,82.38183545297943 195.53528860444203,83.37339959305245 194.200101831113,84.28456265496789 193.94203562673647,83.56008386134636 193.66532807110343,82.9214503968833 193.36852280888706,82.48766912915744 192.63044181338046,81.52335437410511 194.70079687109683,80.18248190905433 195.5754840177251,79.77413191122469 195.62063104007393,79.63332138943952 195.23440554668196,78.61494064319413 194.98158222215716,78.06441347260261 194.73429304885212,77.6960318897618 197.18155292444862,76.79528859700076 199.2111300266115,75.84502990462352 201.91208704002202,73.81595024192939 202.41656860441435,73.95403909328161 203.044549120008,74.05442599934759 206.00298979552463,74.06669045984745 206.55494855111465,74.07622948405333 207.69964401773177,73.87681836483534 207.6740121600451,73.69557666510809 210.39594069332816,71.75596305233194 211.74831246223766,71.23676143831108 214.1186767644249,69.71912301715929 216.7564279466169,66.80646313278703 214.3423729777569,65.81845750880893 211.7762744888896,64.99943151313346 210.23923683550674,64.57197412499227 208.02266368002165,63.74703804444289 207.1494328888366,63.458582233812194 204.8242156088818,62.85032534133643 203.41533724451438,62.40196760324761 201.739945813315,61.71421138383448 200.87516188446898,61.31264069653116 200.2681528889807,61.07642229873454 198.71305642661173,60.85156031639781 197.7876881066477,60.59944205963984 196.31356501334812,59.9153142903815 195.10391608893406,59.6427528266795 193.90125767106656,59.52827690995764 193.40959203557577,59.41152958374005 191.26175886229612,58.56113471707795 190.86941667553037,58.29856554471189 189.74336256005336,57.495865088072605 188.26108387554996,56.55324475362431 187.48601144889835,56.023558473796584 186.56617728003766,55.574732383014634 186.6946278399555,53.62360009900294 186.49918492441066,48.13171608740231 186.2696632889565,47.04458917572629 186.2769450666383,43.53330930217635 186.03577258670703,41.91189569613198 185.53274737775791,40.940132069867104 184.969429048826,40.29001569072716 184.24474652437493,39.08518271322828 184.1946478933096,38.52092605980579 183.65667015116196,37.52961171080824 182.72023352887481,36.282511851459276 181.6055389867397,35.06084680312779 180.916974080028,34.366189276450314 179.55266019550618,32.965055112785194 177.87173461331986,30.954202823573723 176.85665479116142,29.870170355192386 175.65516145771835,28.55896543728886 174.8113490488613,27.579418419511057 173.0605184000451,25.06192599394126 171.90766734222416,23.51806763833156 171.00297927111387,22.026448344928212 170.68957155547105,21.555288982053753 170.4941286399262,21.395812437986024 167.07285816885997,21.986920067341998 165.90689991111867,22.275430893874727 164.7304558933247,22.403102491865866 163.39264768001158,23.43537685793126 162.2016401066212,23.45127893355675 161.30161237332504,23.384944553370588 159.52835384884384,25.285916304565035 157.7349976177793,22.976487890002318 155.03316679119598,23.240008405759 153.0196095999563,20.252666607149877 151.82976711110678,18.858256819366943 148.60656099556945,19.04227035335498 148.1652852621628,19.435740745509975 146.37775445333682,21.23679012665525 145.191989760031,22.074154877336696 145.13460935116746,22.11731792142382 143.85389027558267,22.507147973577958 143.6322329599643,22.544404422165826 141.8659649422625,22.324954761133995 140.29572238225956,22.605741244391538 138.91713621339295,23.413568295247387 136.56279182224534,24.342247653461527 133.123462542193,24.8588351883227 132.108965262305,25.34588933037594 130.88999566214625,25.57533143524779 128.66497564443853,26.74025751609588 128.27059455995914,27.20231890148716 127.62950684444513,27.498546529735904 125.41642894223332,28.23638782504713 122.56313713779673,30.573474516975693 121.05639168003108,30.89559433289105 117.31501425779425,30.640261034248397 117.0074319645064,30.598462672089227 114.85872497782111,30.258623516419902 110.14304568886291,29.156414258119185 107.14615722664166,28.758872449805494 106.40341589332093,28.654375625308603 106.35244344884995,27.67210302024614 106.34953073773067,26.99741274456028 106.47914638218936,25.534440780815203 106.4433200355852,24.75706254329998 106.3722498845309,23.72252272942569 106.30088846222498,22.97921396594029 106.23098339547869,22.52713923942065 104.73326734220609,20.654313124367036 103.77294648892712,21.709767574211583 99.51106759114191,28.115534680895507 99.2500886755297,30.292243991338182 99.7606869332958,31.090501577942632 100.30711153778248,31.843323492328636 100.70527914667036,32.42440754501149 101.50423580443021,34.09677604777971 100.80693276436068,37.47282225516392 100.24973112891894,38.93435096536996 99.65728568891063,40.12010375212412 98.85629013332073,40.22641230671434 97.14274218666833,39.668518970371224 95.49968184879981,38.9884141641669 92.62017564440612,38.62314657669049 96.44718677329365,35.95176795660518 95.94445283547975,34.42479683167767 94.67538460437208,34.041802987107076 92.18851185776293,32.55707077018451 89.76397112885024,31.71565743687097 87.47137621336151,31.247245039907284 87.60244821337983,29.96194531675428 82.26781781332102,30.718860106542706 80.8368028444238,30.616181543970015 78.38313500443473,30.875603836379014 78.07846542226616,27.415857263142243 79.01257187558804,26.972878513275646 80.77214065776207,26.461293726461008 80.8219480176922,26.105091885314323 81.21312512003351,25.412677453190554 78.23779071995523,24.987868294934742 77.35057891556062,24.311352317919955 76.05617009778507,23.63483423605794 73.22181091550738,22.105959226435516 71.92361557332333,21.30857735592872 70.7305691022193,20.40169390826486 70.57794304005802,19.324878489947878 71.06436579558067,18.506586076691747 71.20592355553526,17.927282256889157 69.19294890668243,17.55970750330016 67.90232661331538,17.839591426425613 67.69261141330935,17.83550221589394 67.86766535113566,14.679063073650468 68.09223537775688,13.395028512459248 68.08611868449952,11.981945620733313 67.90116152889095,11.490772214019671 67.38735928887036,10.919628383941017 66.23858602670953,10.11266366095515 64.24192256003153,9.058970418118406 63.32966143998783,8.908117841230705 61.9094235021621,8.236549979366828 61.188236231100745,7.725375487236306 59.45284295117017,5 59.18254336004611,5.328519062604755 58.1613468445139,5.301256088714581 56.02574705774896,5.707019663183019 55.04532849777024,6.035992039018311 54.73308586666826,6.134592778515071 53.996461226721294,6.273178995703347 53.27119615999982,6.695752817555331 53.16896000003908,10.133564812073018 53.0320625777822,10.108119932177942 52.85001813340932,10.143106641247869 49.833905777777545,10.325764433422592 48.63503388443496,10.354844266781583 46.8297355377581,10.263969774590805 45.53445290669333,10.052686433598865 44.502188088954426,9.797783032758161 43.60594687995035,9.829589177505113 41.87870919110719,9.820047334535047 40.42322744894773,9.49698754795827 40.30031104001682,9.512436268851161 39.41426432004664,9.531065607210621 38.977648924454115,9.630119135603309 38.98638705781195,13.107414636062458 39.05716593773104,13.12468056671787 39.07347712002229,13.811681747087277 39.11745905771386,14.164723175985273 39.32950442668516,15.013474227220286 39.59397859557066,15.640948115265928 40.03729322669096,16.801383829733822 40.557794702239335,17.945456517743878 40.728188302135095,18.340746317291632 41.312478151055984,19.843295354861766 41.40160711109638,19.842386649746913 43.254382648854516,19.97096838086145 43.23311985784676,21.905591749353334 43.49875911104027,25.919266968790907 43.670317795476876,26.475832564756274 44.33121194667183,28.699809033423662 44.96210517338477,30.30405658937525 45.24609450658318,30.866971575887874 45.43716835556552,31.18909095705021 47.09275335108396,33.57339560077526 48.77018367999699,35.772311924025416 50.53120881784707,36.19664569629822 53.0437134221429,36.540110113390256 54.31656817777548,36.560554406780284 55.301647075568326,36.5073992399266 55.76010780443903,36.385187738458626 56.04322332434822,36.27978594228625 56.39333120000083,36.08034016226884 57.04461340443231,35.49154244165402 57.41336263110861,35.26256511977408 58.1695024354849,34.92227893206291 59.33604323561303,34.665587396826595 60.15247615997214,34.453419120342005 61.42183566221502,33.953210008796304 62.058263040031306,33.64290713897208 62.62595043552574,33.153145632124506 63.01304974220693,32.86146896018181 63.84084224002436,32.286292320583016 66.2345082310494,30.97146733716363 66.7218048000941,30.750208861543797 67.33172650670167,30.517591905139852 68.04737962665968,30.197743183816783 71.99963733332697,32.33036199049093 72.5670334576862,32.58841926010791 77.15659235557541,36.57372961711371 78.29429731552955,37.69589115167037 79.0967492266791,38.90527495380957 79.52200504892971,39.89249423582805 79.82055793772452,40.87925472762436 80.14153870230075,42.31986248807516 78.62459875561763,42.90273576392792 75.61343800893519,43.83587491849903 73.86144227557816,44.37058819900267 70.50745543104131,45.60128692223225 67.25337457784917,46.55849222501274 66.07955200003926,47.07775275991298 64.3377507555997,47.89184902049601 63.745014044456184,48.01087399967946 62.35302940453403,48.35568263643654 60.67064746667165,48.85495003621327 59.05409280001186,49.21883756452007 57.305592320044525,49.552741314982995 56.41896305780392,49.80169234913774 54.01626766228583,51.32037834310904 53.01895537786186,52.269835631595924 51.77755790215451,53.63359430199489 50.80820764438249,54.76838763599517 49.646327182184905,56.63592294155387 48.96766549325548,57.388202152913436 48.76115427550394,57.663946357090026 48.39298759109806,58.31537361541996 47.78044444450643,59.781304946751334 45.991166008869186,61.77144877437968 45.329398044385016,62.172564350417815 44.416845653322525,62.46193039382342 43.99945415102411,62.76310688722879 43.43089294224046,63.32502933521755 43.041463466593996,63.73659004538786 42.45542599109467,64.37437132908963 41.88191317336168,65.10481939045712 38.68696035561152,66.82372480031336 39.236297671101056,69.77999228669796 39.912337919929996,71.23085625097156 40.12613091559615,71.4343579991837 40.584882915602066,72.115269830334 41.10276295116637,73.95812724879943 41.034896782250144,74.78302459814586 40.58896071114577,75.76917255460285 40.30992298666388,76.36649168963777 40.325942897819914,77.24361666286131 40.33118577778805,77.823670955142 39.75738168891985,79.68782869901042 39.60242545779329,80.28649975045118 38.837256248807535,81.79725108644925 38.03276543994434,82.18379461602308 38.33539612439927,85.97606362204533 37.34740451560356,86.30400616448605 36.99263630225323,86.34942753030919 36.96147029334679,86.13231331610586 34.88237710215617,87.0407395468792 33.20640312891919,87.80744833301287 32.13103018666152,88.29345309513155 32.20821703108959,88.74902479734737 31.446543075493537,89.83185540244449 30.45272604445927,90.48954518529354 28.873745351098478,92.1473869868787 28.28829041775316,92.74329854152165 27.08417564444244,93.03943690808956 25.311499662231654,93.3732733867364 25.439076408860274,93.4695635412354 25.492670293315314,93.94420070783235 25.986666097771376,94.82397997024236 25.9988994844025,95.24683595396345 25.795009706635028,95.65197754302062 25.82530190225225,96.16385378572159 26.065891840029508,97.1058482658118 25.641801102203317,97.18033560132608 23.81669631996192,96.52720797405345 21.499343360075727,96.57171882037073 19.80181532446295,96.3319051732542 17.895445902249776,96.32690905279014 17.850590151152574,96.66210306191351 17.469024995574728,97.40652259771014 17.392711964435875,97.83709478424862 12.387217920040712,95.92131452716421 12.062741902191192,95.97173001337796 9.7570397866657,96.25060465338174 8.15271850663703,95.17507312737871 5,95.77915187738836" stroke="red" stroke-width="3.431216835598836px" fill="none" stroke-linejoin="round" vector-effect="non-scaling-stroke"></polygon></svg>