<svg width="37028.8583640178" height="51308.79302165512" xmlns="http://www.w3.org/2000/svg"><polygon points="5,30926.76457256131 506.83420131576713,31711.315395862504 94.01856824883725,32209.552962507354 94.01449045340996,32210.988309286477 94.03167544899043,32215.141671768273 94.07827882666606,32219.294718606456 94.1537180445157,32223.447449807834 94.2585756444605,32227.59956894815 94.39226908457931,32231.750779608614 94.55508963565808,32235.901081804244 94.74703729781322,32240.04988269607 94.96811207116116,32244.19747873285 95.21831395558547,32248.34327708534 95.49764295120258,32252.487277780718 95.80580778664444,32256.629184424877 96.14339100453071,32260.76870062889 96.50951879122294,32264.905826428207 96.90506496001035,32269.040561858157 97.32915569772013,32273.172017706092 97.78266481787432,32277.300786848762 98.26471850671805,32281.42598008574 98.77589930675458,32285.54759746854 99.31591594684869,32289.66593545914 99.88505969778635,32293.780104877253 100.4827480178792,32297.890105782426 101.10927217791323,32301.995938233973 101.76463217788842,32306.097305886156 102.44853674666956,32310.19391239842 103.1612771556247,32314.28575783805 103.90285340452101,32318.37254587107 104.67297422222327,32322.45368376904 105.47163960896432,32326.529764407955 106.29884956451133,32330.59989866725 107.1546040889807,32334.664086629928 108.03890318225604,32338.722328378528 108.95174684457015,32342.77403120947 109.8928438044386,32346.819491604925 110.86219406232703,32350.858116870164 111.8597976177698,32354.889907099307 112.88594574236777,32358.914565998362 113.94005589338485,32362.93179727852 115.02241934242193,32366.94160104118 116.13274481799453,32370.943977387506 117.27132359112147,32374.938037270855 118.43757311999798,32378.92437356629 119.63207594666164,32382.902393618424 120.85424952907488,32386.871801160625 122.10438513790723,32390.83259630861 123.38190023123752,32394.784482801915 124.68737735121977,32398.7274607594 126.02052522671875,32402.66093755304 127.38105258683208,32406.58520968107 128.76925070222933,32410.49968452379 130.18482830224093,32414.40436221048 131.62778538663406,32418.2992428703 133.09783068450633,32422.18373389769 134.59525546676014,32426.057835428684 136.11976846226025,32429.921251234307 137.6710784001043,32433.773981453443 139.2497678223299,32437.61572986265 140.85496291564777,32441.44620024314 142.4872462223284,32445.265392740024 144.14632647123653,32449.073011139873 145.83191239123698,32452.86905559065 147.54429525334854,32456.652933528472 149.28289251565002,32460.42494146229 151.0479954489274,32464.184486835788 152.83931278227828,32467.931569806067 154.6571357868379,32471.66619052965 156.50088192010298,32475.387756463373 158.370842453558,32479.096564118343 160.26672611571848,32482.792020958674 162.18824163556565,32486.47412714956 164.13568028446753,32490.142586510687 166.1087507911725,32493.79739920958 168.10774442669936,32497.43797272828 170.1317873779917,32501.064899922465 172.18146218673792,32504.67729193752 174.2561863111332,32508.275148948946 176.35625102219637,32511.85847113136 178.48136504890863,32515.426962322264 180.63152839115355,32518.980622698262 182.80644977791235,32522.51885976689 185.00612920883577,32526.041970043327 187.23056668462232,32529.549657373456 189.47947093343828,32533.041329276108 191.7528419556329,32536.51728226745 194.05038848007098,32539.977220200934 196.37240177788772,32543.421143261367 198.7182993068127,32546.848458979977 201.0883723378647,32550.25916754623 203.48203832900617,32553.653565472807 205.89958855113946,32557.030763975345 208.3407317333622,32560.39105956885 210.80546787567437,32563.73385980091 213.29350570670795,32567.059757505252 215.80484522681218,32570.367863913358 218.3391951645026,32573.658179220743 220.89655552012846,32576.930999938457 223.4769262933405,32580.18543731072 226.0800162133528,32583.421787850617 228.7058252801653,32586.64005175262 231.35406222229358,32589.83963658556 234.02472704008687,32593.02054254798 236.71752846229356,32596.182473526977 239.43246648891363,32599.325726030744 242.1695411200635,32602.44970763789 244.92816981347278,32605.55471485539 247.7086438400438,32608.639858960232 250.51067192899063,32611.705732766015 253.33425408008043,32614.75174386031 256.1788077511592,32617.7778924437 259.04491548461374,32620.78417871555 261.93170346680563,32623.770010271226 264.8394629691029,32626.73568361334 267.7681939911563,32629.6809026408 270.71731399116106,32632.605667553027 273.6868229691172,32635.50938595354 276.67642965354025,32638.39235434099 279.68642531568184,32641.254276617896 282.7165186845232,32644.095152983733 285.76641848904546,32646.914687342767 288.83583345776424,32649.712583601242 291.92476359114517,32652.48884195945 295.0332088889554,32655.24346261617 298.1608780801762,32657.976445768378 301.30777116457466,32660.68719903339 304.47330560011324,32663.37572261039 307.6577726579271,32666.042016697 310.8608810666483,32668.686081488966 314.0826308267424,32671.307620894862 317.32243939570617,32673.90633882495 320.5803067734232,32676.48253175913 323.8565242312616,32679.0356073227 327.1502179556992,32681.565565710654 330.4616792178713,32684.07240711595 333.79061674675904,32686.55613173003 337.13703054224607,32689.016443462344 340.50033806229476,32691.453046223964 343.8808305778075,32693.866236483853 347.2782168177655,32696.25542187324 350.69220551114995,32698.62089885818 354.12279665784445,32700.962371347647 357.5696989867138,32703.279543251614 361.03262122673914,32705.57271103043 364.51156337792054,32707.84128231788 368.00623416900635,32710.085553571 371.5169248711318,32712.305228697252 375.04276167124044,32714.500307876617 378.5840358401183,32716.67079128686 382.14045610674657,32718.81608656363 385.71173120010644,32720.9364901543 389.2978611200815,32723.031705964007 392.89855459565297,32725.101734166557 396.5138116267044,32727.146574933606 400.14304967131466,32729.16593216796 403.78656000003684,32731.159806039126 407.4440513422014,32733.128196714213 409.38537329784594,32734.155348922475 1279.3414033066947,32844.81231226667 1282.0167284623021,32843.062483529095 1285.4767379910918,32840.76492103108 1288.9204363379395,32838.44306178985 1292.347823502263,32836.09690562007 1295.758608213393,32833.72704480059 1299.152790471213,32831.33318291325 1302.5300790044712,32828.91591223824 1305.8901825422654,32826.47464011912 1309.2333923557308,32824.00995883561 1312.5591259022476,32821.52186819812 1315.8670919112628,32819.01066425297 1319.1575816533295,32816.47605057084 1322.4303038578946,32813.91861943551 1325.684675982222,32811.33837065502 1328.9212805690477,32808.73530403583 1332.1392438046169,32806.109419382585 1335.3388569600647,32803.461308983795 1338.5198287646053,32800.790676402044 1341.6818679466378,32798.097817684116 1344.8249745067442,32795.38273263292 1347.9491484444588,32792.646013542486 1349.8744504889473,32790.935189643234 1351.0540984888794,32789.887067723495 1354.1392420978518,32787.10678371834 1357.2051618134137,32784.304568833555 1360.251275093411,32781.481311616604 1363.2772906668251,32778.636419370014 1366.2834998044418,32775.77048439457 1369.2696112355916,32772.88350649149 1372.2353336890228,32769.97578171425 1375.1803758933675,32767.047309863905 1378.10502912011,32764.09809074027 1381.009002097766,32761.128716654377 1383.891712284414,32758.138891151524 1386.753742222325,32755.12891028833 1389.5945093689952,32752.09877386468 1392.4140137245413,32749.049074199924 1395.211964017828,32745.979514835577 1397.9883602489717,32742.890391832858 1400.7429111467209,32739.78200125572 1403.4756167111918,32736.6543429062 1406.1864769422682,32733.507712850813 1408.8752005689312,32730.341814625717 1411.5414963200456,32727.157536832034 1414.1853641957277,32723.954286739114 1416.8070954667637,32720.73295295483 1419.405816320097,32717.492942745273 1421.981818026863,32714.234848453663 1424.5348093155771,32710.95896615798 1427.0650814578403,32707.664999391418 1429.571760640014,32704.353540506854 1432.055429404485,32701.02458931232 1434.5157964801183,32697.678441892203 1436.952570595662,32694.314801777713 1439.3654604800977,32690.934557611763 1441.7547574044438,32687.537116647698 1444.1201700979145,32684.123071254813 1446.4616985600442,32680.692717527796 1448.7790515200468,32677.245758997393 1451.0719377067871,32673.782788043434 1453.3406483911676,32670.303804482042 1455.5848923022859,32666.80910441547 1457.8046694401419,32663.298687661358 1459.999688533484,32659.77255403652 1462.1699495821958,32656.23129593808 1464.315452586743,32652.67491318815 1466.4359062756412,32649.10370190075 1468.5310193778714,32645.51766189991 1470.601083164569,32641.91679300886 1472.6460976356175,32638.301687642816 1474.6654802489793,32634.672345630475 1476.6592310044216,32631.028766800067 1478.6276411734289,32627.371543578687 1480.5701282133814,32623.70037949906 1482.4869833956473,32620.015570693125 1484.3779154489748,32616.317709600437 1486.242924373364,32612.606499755348 1488.0817188977962,32608.88253360463 1489.8942990223877,32605.14551468275 1491.680956017808,32601.3960354437 1493.441107342369,32597.6340957316 1495.174752995721,32593.859991700854 1496.8818929778645,32590.073426885938 1498.562527289032,32586.275290069345 1500.2163646578556,32582.4655811041 1501.8436963557033,32578.644299842883 1503.4439398401882,32574.811446137668 1505.0173863823293,32570.967612476787 1506.563744711224,32567.112798718852 1508.0830148266396,32563.247301043128 1509.5751967289252,32559.3714156333 1511.0402904179646,32555.484846030886 1512.4780046222731,32551.588481070823 1513.8883393423166,32547.681727972988 1515.2712945779786,32543.765475582913 1516.626579057891,32539.83942744718 1517.9544840534218,32535.903879766294 1519.2547182934359,32531.959425076784 1520.5272817779332,32528.00576692808 1521.7718832356622,32524.04320153134 1522.9888139378745,32520.07232143765 1524.17807388457,32516.092830199457 1525.339080533362,32512.105024038814 1526.4724164267536,32508.10919918277 1527.5774990222417,32504.10535552312 1528.654328320059,32500.094085634395 1529.703195591108,32496.0753894159 1530.7238095644861,32492.04956311069 1531.7161702400772,32488.016310276173 1532.6802776177647,32483.976519851247 1533.6161316977814,32479.92989539809 1534.5234412091086,32475.876733172277 1535.4022061511641,32471.817329434678 1536.2527177956654,32467.751980451052 1537.074393600109,32463.680686139094 1537.8678161067655,32459.604039125843 1538.6324027733644,32455.52144662448 1539.3684448712738,32451.433797624602 1540.0759424001444,32447.341092055372 1540.7546040889574,32443.243626206007 1541.4044299379457,32439.141400009452 1542.0254199468764,32435.03470976156 1542.6178653867682,32430.92385176319 1543.1811837157002,32426.80882595532 1543.7159574757097,32422.6899286455 1544.2216041245265,32418.567456146644 1544.6981236623833,32414.441704777128 1545.1460986313177,32410.312378118746 1545.5649464888265,32406.18036523694 1545.9546672356082,32402.045369718864 1546.315552142216,32397.907687896164 1546.6476012088824,32393.767616106023 1546.9502318933373,32389.62515431305 1547.2240267379675,32385.48089524015 1547.468694471172,32381.33483886026 1547.6842350933002,32377.186985146196 1547.8706486044684,32373.03763045394 1548.028226275579,32368.887367529445 1548.1563855644781,32364.735899971914 1548.2557090133196,32360.58382053685 1548.3256140801823,32356.431129213306 1548.3666833067546,32352.277825990575 1548.3783341512317,32348.1245036404 1548.3611491556512,32343.97116216022 1548.3145457777428,32339.818097941345 1548.239106560126,32335.665310985234 1548.1345402312,32331.513394086913 1548.0005555200623,32327.36205085792 1547.8377349689836,32323.211874102883 1547.6457873068284,32319.062863835366 1547.4247125334805,32314.915612873796 1547.1745106490562,32310.769528432807 1546.895181653439,32306.625796145992 1546.5870168178808,32302.48382323078 1546.2497248712461,32298.344202524517 1545.8833058134187,32294.206934057293 1545.48805091565,32290.072314269608 1545.0636689066887,32285.94093601918 1544.6101597867673,32281.812206522038 1544.1281060979236,32277.687015055737 1543.616925297887,32273.565065250732 1543.0769086579094,32269.446949983772 1542.508056177874,32265.332669305208 1541.9100765867624,32261.222816105175 1541.2835524267284,32257.116797599476 1540.6281924267532,32253.01550310623 1539.944287857972,32248.91893268784 1539.231547449017,32244.827086406585 1538.4899712001206,32240.740557177982 1537.7198503821855,32236.65904864436 1536.921184995561,32232.583153730666 1536.093975040014,32228.51316894166 1535.238220515661,32224.448797923396 1534.3539214223856,32220.390633616655 1533.4410777600715,32216.33897253801 1532.5002720712218,32212.293518337305 1531.5306305423146,32208.254863970855 1530.533026986639,32204.223009528476 1529.5068788622739,32200.198547979584 1528.4527687112568,32196.18118298007 1527.3704052623361,32192.17121106584 1526.26007978688,32188.1689287778 1525.1215010132873,32184.17463266215 1523.9552514844108,32180.188619270164 1522.76074865798,32176.21059226198 1521.5385750756832,32172.241144640546 1520.2887307378696,32168.280276517675 1519.0109243734041,32164.328284456802 1517.7054472534219,32160.3854650266 1516.3722993778065,32156.45181834593 1515.0117720178096,32152.527640989458 1513.623573902296,32148.613229536568 1512.2079963024007,32144.70828765491 1510.7653304890264,32140.813704845263 1509.2949939201353,32136.92918477999 1507.797569137765,32133.05502405006 1506.2733474134002,32129.19181571534 1504.721746204421,32125.3389669857 1503.1430567823118,32121.497367391305 1501.5378616889939,32117.666720607842 1499.9055783823133,32113.84761971113 1498.246498133405,32110.03976837726 1496.5609122134047,32106.24405616132 1494.848820622312,32102.459890271246 1493.1099320889916,32098.687863798987 1491.3448291557143,32094.92827337113 1489.553511822247,32091.181119142682 1487.7356888178037,32087.44669774559 1485.8919426845387,32083.725009337533 1484.0219821513165,32080.01635055564 1482.1263897601748,32076.321018041403 1480.204582969076,32072.63871547603 1478.2571443200577,32068.970332469384 1476.2840738134691,32065.31557270646 1474.285371448961,32061.674732838583 1472.26103722665,32058.048109521565 1470.2113624179037,32054.43570292677 1468.136638293392,32050.837513225037 1466.0365735822124,32047.254430058703 1463.9114595556166,32043.685860624304 1461.7612962133717,32040.13210158731 1459.5863748267293,32036.593746111495 1457.386695395573,32033.070794378466 1455.1622579200193,32029.563246569072 1452.913353671087,32026.071399361186 1450.6399826490087,32022.59554943646 1448.3424361245707,32019.135696980404 1446.020422826754,32015.691842177708 1443.674525297829,32012.264578216767 1441.3047435377957,32008.853608783975 1438.910786275752,32005.45952707407 1436.4932360533858,32002.082036772743 1434.0520928712795,31998.722027587646 1431.5873567289673,31995.378906699247 1429.0993188979337,31992.053267314157 1426.5879793778295,31988.74510962685 1424.0536294400226,31985.45473034185 1421.4962690845132,31982.1821296548 1418.9158983111847,31978.927307760285 1416.3128083911724,31975.691154395463 1413.6869993244763,31972.473076731258 1411.038762382348,31969.273371479067 1408.3680975645548,31966.092335353373 1405.675296142348,31962.930265071744 1402.960358115728,31959.787160835054 1400.223574755597,31956.663022843015 1397.4646547911689,31953.55814781593 1394.6841807644814,31950.472832477186 1391.882152675651,31947.407077029056 1389.0585705245612,31944.361178197432 1386.2140168534825,31941.334839659336 1383.347909120028,31938.328654666955 1380.4611211379524,31935.34262342361 1377.5533616355387,31932.3770426602 1374.6246306134854,31929.431912580156 1371.6758018844994,31926.50723338558 1368.7060016357573,31923.60330180911 1365.7163949513342,31920.7204145859 1362.7063992889598,31917.858571919613 1359.676305920002,31915.017774012522 1356.6266973868478,31912.198317601113 1353.5569911466446,31909.400202887482 1350.46806101338,31906.624023147335 1347.3596157156862,31903.869185508578 1344.2319465244655,31901.13657978672 1341.085053440067,31898.42561310547 1337.9195190045284,31895.73717528564 1334.735051946831,31893.070673446753 1331.5319435377605,31890.42670087138 1328.3101937778993,31887.80525775999 1325.070385209052,31885.206344311126 1321.8125178312184,31882.630553812895 1318.5365916443989,31880.077293373062 1315.2426066489425,31877.547156279674 1311.9311453867704,31875.040439277655 1308.6022078578826,31872.556846015796 1305.2557940622792,31870.09637668758 1301.892486542347,31867.659921136044 1298.5119940267177,31865.24658990442 1295.1146077867597,31862.857569389045 1291.7006190933753,31860.491970126925 1288.2700279467972,31858.150681965868 1284.823416889063,31855.8334085432 1281.3602033779025,31853.540150046465 1277.881261226721,31851.271499773313 1274.3865904356353,31849.02716135513 1270.8761910044122,31846.807431533467 1267.3500629334012,31844.612607050687 1263.8087887645233,31842.442094973347 1260.252368497895,31840.296785158338 1256.6810934045352,31838.176381227677 1253.0949634845601,31836.081179920526 1249.4942700089887,31834.011181415233 1246.617967786733,31832.384242238593 1244.9751987201162,31829.903495299106 1242.6523116090102,31826.449418045406 1240.304957724642,31823.011638442928 1237.9337196090491,31819.590156679857 1235.5385972622316,31816.185566078755 1233.1195906844223,31812.79816340166 1230.6766998756211,31809.4276522742 1228.210216106614,31806.074329458817 1225.7201393778669,31802.73849172145 1223.2067609601654,31799.420139258087 1220.6700808535097,31796.119568838505 1218.110390329035,31792.837077235337 1215.5276893867413,31789.57236807188 1212.921978026745,31786.326034698694 1210.2935475200647,31783.098373895453 1207.642689137836,31779.888792705373 1204.9691116089234,31776.69818106643 1202.2731062044622,31773.526539182698 1199.5552554667229,31770.37357067369 1196.814976853435,31767.24016548996 1194.0528529067524,31764.12573066802 1191.2688836266752,31761.03115616535 1188.4630690134363,31757.956145602046 1185.6359916089568,31754.9006991809 1182.7873601423344,31751.865410282102 1179.9174658844713,31748.849982521613 1177.0266001067357,31745.85500928416 1174.1147628088947,31742.880490776384 1171.1819539911812,31739.92613061046 1168.2284649244975,31736.99281877 1165.2542956090765,31734.080258868344 1162.2600285868393,31731.188747705717 1159.2453725867672,31728.31828548771 1156.2106188801117,31725.46887241851 1153.1557674667565,31722.641101898684 1150.081400888972,31719.83467753511 1146.987227875623,31717.05019273219 1143.8735396978445,31714.28735109442 1140.740627626772,31711.546449426853 1137.5884916624054,31708.827784536406 1134.4171318043955,31706.131060023035 1131.227130595711,31703.456869297836 1128.018196764635,31700.80521256459 1124.790912853321,31698.17609002546 1121.5452788622351,31695.56979848916 1118.2812947912607,31692.986338157032 1114.9989606400486,31690.426005838497 1111.6991502222372,31687.888505123497 1108.3812809955562,31685.374429431162 1105.0459355022758,31682.883778960968 1101.693405013415,31680.41655391053 1098.3233982578386,31677.973051089735 1094.9362065066816,31675.5532706948 1091.5321210311959,31673.15721292037 1088.1114331024,31670.7851745754 1084.6741427201778,31668.4374524703 1081.220249884529,31666.113750180637 1077.7503371378407,31663.814364514255 1074.2641132089775,31661.539592280285 1070.7621606400935,31659.289137048472 1067.2444794311887,31657.063592246384 1063.7113608533982,31654.862661440216 1060.162513635587,31652.68664143642 1056.5988115911605,31650.535532418755 1053.0196721778484,31648.409631193033 1049.42596920894,31646.308937941212 1045.817702684435,31644.23374946817 1042.1945813334314,31642.183769327763 1038.5574789689854,31640.15929432196 1034.9061043200782,31638.16032462608 1031.240748657845,31636.187157041335 1027.561703253421,31634.239791740605 1023.8689681066899,31632.31852552382 1020.1628344890196,31630.42306193133 1016.4435936713126,31628.553697760042 1012.7109543823171,31626.710729806742 1008.9657904356718,31624.893861604913 1005.2078105600085,31623.10338994814 1003.3285293512745,31622.220018066408 1001.4460441600531,31621.343171226676 999.5603549868101,31620.47284944827 997.671753102215,31619.609349384264 993.8767817956395,31617.898364966095 990.070159644587,31616.214074356947 988.9726500977995,31615.7376787893 991.5637979024323,31613.05431513529 994.4275754666887,31610.046126027766 997.2703815113055,31607.01834855473 1000.09163349343,31603.970389235474 1002.8916226845467,31600.902841139527 1005.6700578132877,31597.81570406136 1008.4266476089833,31594.70897779416 1011.1613920711679,31591.583255415666 1013.8742912000744,31588.438240078685 1016.5650537245674,31585.274524865847 1019.2333883733954,31582.091812928324 1021.8795864178101,31578.890697353752 1024.5030653155409,31575.67088129191 1027.1038250668207,31572.43266118603 1029.6821569423191,31569.17663013324 1032.2371871289797,31565.902491282963 1034.7694981689565,31562.610244432 1037.2785075200954,31559.300482683815 1039.7645064534154,31555.973205839633 1042.2269124267623,31552.628710355668 1044.6657254401362,31549.266996034363 1047.0809454934206,31545.888062677113 1049.4722813155968,31542.492503403395 1051.8400241779163,31539.08002135862 1054.183591537876,31535.651209668315 1056.5032746667275,31532.206068140164 1058.7984910223167,31528.744596580742 1061.0695318756625,31525.2670914614 1063.3161059556296,31521.773849256977 1065.5379219913157,31518.265166446334 1067.7352712533902,31514.740746174008 1069.9078624711838,31511.20088491938 1072.0556956445798,31507.646175837202 1074.178188231308,31504.076322073233 1076.275922773406,31500.491620115004 1078.3483167289523,31496.892366454296 1080.395661368966,31493.278560910665 1082.4173741512932,31489.65049998049 1084.4134550757008,31486.00848016393 1086.384195413324,31482.352501285844 1088.3293038934935,31478.68285985134 1090.2484892444918,31474.999555687536 1092.1417514666682,31471.30288530432 1094.0090905600227,31467.59314521606 1095.8505065245554,31463.870335255342 1097.6654168178793,31460.134751941427 1099.454403982265,31456.386395109585 1101.2171767466934,31452.62556128425 1102.9531525690109,31448.852546994283 1104.6629139911383,31445.067648773373 1106.3458784712711,31441.270569772052 1108.0023372800788,31437.461903220334 1109.6319991467753,31433.64164896548 1111.234864071128,31429.810103551834 1112.8109320534859,31425.967563528393 1114.3596205512295,31422.114028748765 1115.8815121067455,31418.24949906586 1117.3763154490152,31414.374567738152 1118.8440305779222,31410.489234625828 1120.284074951196,31406.59349958843 1121.6970311112236,31402.68795589899 1123.0826077867532,31398.772603424266 1124.440513706766,31394.847738740267 1125.771040142281,31390.913361717074 1127.0738958222792,31386.96947222436 1128.3487894757418,31383.016960272216 1129.5963036444737,31379.055232312006 1130.81585578667,31375.085178365174 1132.0074459023308,31371.106501598726 1133.171365262242,31367.119498611894 1134.3070313244825,31363.124762729334 1135.414735360071,31359.12170039967 1136.4944773690077,31355.111201675434 1137.545966080157,31351.093266452197 1138.569201493403,31347.06819135102 1139.564183608978,31343.03567954409 1140.530912426766,31338.99662111164 1141.4693879466504,31334.950719230925 1142.3793188979616,31330.898270535923 1143.2609965511365,31326.839571665914 1144.1138383644866,31322.77491926565 1144.9384268800495,31318.704313249676 1145.73447082669,31314.628050269384 1146.5019702045247,31310.54613024328 1147.2406337423017,31306.459146568784 1147.9507527111564,31302.367099172552 1148.6320358400699,31298.269987981126 1149.2844831289258,31294.16840640834 1149.9083858489757,31290.06205764372 1150.5034527290845,31285.951831857208 1151.0696837690193,31281.83713549591 1151.6067876977613,31277.718858742097 1152.1153470579302,31273.596704792173 1152.5947793066734,31269.471267092915 1153.0453757157084,31265.342545595486 1153.4668450133177,31261.21054025076 1153.8594784712186,31257.076141278783 1154.2229848179268,31252.938755127718 1154.5576553245774,31248.79897527088 1154.8631987200351,31244.65680167178 1155.1396150046494,31240.512827817816 1155.3871954489732,31236.366756917676 1155.6053575112019,31232.21947923326 1155.794683733373,31228.070401212666 1155.954882844584,31223.920116362977 1156.0859548446024,31219.768921433482 1156.187899733428,31215.616816408932 1156.2604262401583,31211.46439481742 1156.3041169067146,31207.311359879037 1156.3186804621946,31203.158008357044 1156.3041169067146,31199.0046370207 1156.2604262401583,31194.8515426449 1156.187899733428,31190.699022010085 1156.0859548446024,31186.547075122013 1155.954882844584,31182.39570198662 1155.794683733373,31178.24549617601 1155.6053575112019,31174.09675448906 1155.3871954489732,31169.949180158437 1155.1396150046494,31165.80306998582 1154.8631987200351,31161.659017567406 1154.5576553245774,31157.517022930202 1154.2229848179268,31153.377382893057 1153.8594784712186,31149.24009748717 1153.4668450133177,31145.105166743742 1153.0453757157084,31140.973481081717 1152.5947793066734,31136.844743747788 1152.1153470579302,31132.719251580304 1151.6067876977613,31128.597004623152 1151.0696837690193,31124.478893324733 1150.5034527290845,31120.364324135764 1149.9083858489757,31116.25389071292 1149.2844831289258,31112.147593112546 1148.6320358400699,31108.04602500546 1147.9507527111564,31103.94888964767 1147.2406337423017,31099.856780719536 1146.5019702045247,31095.769698290038 1145.73447082669,31091.68793924054 1144.9384268800495,31087.61180045799 1144.1138383644866,31083.54098520399 1143.2609965511365,31079.476384001726 1142.3793188979616,31075.41770011821 1141.4693879466504,31071.3652304539 1140.530912426766,31067.31956873584 1139.564183608978,31063.280121412245 1138.569201493403,31059.24777903926 1137.545966080157,31055.222541713854 1136.4944773690077,31051.20470635948 1135.414735360071,31047.194273076835 1134.3070313244825,31043.19124196662 1133.171365262242,31039.196503621293 1132.0074459023308,31035.209464489424 1130.81585578667,31031.230718342063 1129.5963036444737,31027.26056212606 1128.3487894757418,31023.29899595765 1127.0738958222792,31019.346316790034 1125.771040142281,31015.40282158181 1124.440513706766,31011.468213616114 1123.0826077867532,31007.54338353686 1121.6970311112236,31003.62803463213 1120.284074951196,30999.722463872866 1118.8440305779222,30995.826671389397 1117.3763154490152,30991.94154785265 1115.8815121067455,30988.06649970793 1114.3596205512295,30984.202120787755 1112.8109320534859,30980.34841123328 1111.234864071128,30976.505668037396 1109.6319991467753,30972.67418819788 1108.0023372800788,30968.8539718627 1106.3458784712711,30965.045316035394 1104.6629139911383,30961.248220866953 1102.9531525690109,30957.463280225347 1101.2171767466934,30953.69019740849 1099.454403982265,30949.9295662925 1097.6654168178793,30946.18138703826 1095.8505065245554,30942.44565980602 1094.0090905600227,30938.72297848598 1092.1417514666682,30935.013046378677 1090.2484892444918,30931.31645738217 1088.3293038934935,30927.63321166602 1086.384195413324,30923.963309399434 1084.4134550757008,30920.307344493864 1082.4173741512932,30916.665317124804 1080.395661368966,30913.03752434108 1078.3483167289523,30909.42366944527 1076.275922773406,30905.82434636401 1074.178188231308,30902.23985215515 1072.0556956445798,30898.669890123245 1069.9078624711838,30895.11505420733 1067.7352712533902,30891.575344592973 1065.5379219913157,30888.050761464983 1063.3161059556296,30884.541898774914 1061.0695318756625,30881.04875671328 1058.7984910223167,30877.571335469664 1056.5032746667275,30874.109932120366 1054.183591537876,30870.66484374547 1051.8400241779163,30867.23577364959 1049.4722813155968,30863.823612695152 1047.0809454934206,30860.42776729772 1044.6657254401362,30857.049128328566 1042.2269124267623,30853.6873990944 1039.7645064534154,30850.342579791963 1037.2785075200954,30847.01526441035 1034.7694981689565,30843.70575004915 1032.2371871289797,30840.41374001326 1029.6821569423191,30837.1395314025 1027.1038250668207,30833.883124418557 1024.5030653155409,30830.645113067178 1021.8795864178101,30827.425200651225 1019.2333883733954,30824.223981181975 1016.5650537245674,30821.041454866703 1013.8742912000744,30817.877621911874 1011.1613920711679,30814.732779430284 1008.4266476089833,30811.60692762921 1005.6700578132877,30808.500363624597 1002.8916226845467,30805.413087624416 1000.09163349343,30802.345693659503 997.2703815113055,30799.29788502853 994.4275754666887,30796.269661938655 991.5637979024323,30793.26161842642 988.6790488178376,30790.273754702648 985.7733282133704,30787.30636789411 982.8466360890307,30784.359161293658 979.8995549867395,30781.432728946616 976.9320849067299,30778.527071064396 973.9442258490017,30775.64218785672 970.9362690845737,30772.77837645443 967.908214613446,30769.935637067305 964.8603537067538,30767.114266827994 961.7926863646135,30764.314265946276 958.705503857811,30761.535931556544 955.5990974578308,30758.779263868288 952.4731758934213,30756.044560017413 949.3283217067365,30753.331523284025 946.1645348978927,30750.6410446628 942.9818154667737,30747.972530503117 939.7807459556498,30745.326574872888 936.5607438223669,30742.702881047095 933.3226828799816,30740.102043096675 930.0665631289594,30737.52376429405 926.7923845690675,30734.968638712773 923.5001472001895,30732.436369622767 920.1904335644795,30729.927254162845 916.8632436622865,30727.44158947363 913.518577493378,30724.979078819335 910.1570176000241,30722.540316278406 906.777981440071,30720.125005112088 903.3823428266915,30717.73344245943 899.9701017601183,30715.365925460646 896.5412582401186,30713.0224543144 893.0961035379441,30710.702732273494 889.6346376534784,30708.407353419345 886.1571518578567,30706.136614892515 882.6639374223305,30703.889922995702 879.1549943466671,30701.6678718116 875.6306139022345,30699.470461531193 872.0907960890327,30697.29798929207 868.5361234489828,30695.150455283467 864.9663047111826,30693.027562742354 861.3816311467672,30690.929905752942 857.7823940267554,30688.85748450004 854.1685933512636,30686.810299166304 850.5405203911941,30684.788646885136 846.8984664179152,30682.792527836922 843.2424314311938,30680.82164524548 839.5727067023981,30678.87689014926 835.8895835021976,30676.957668814808 832.1930618312908,30675.064278369653 804.2007429689402,30660.89222493791 800.4908228268614,30659.02493162296 796.7680867556483,30657.183766926115 793.03253475565,30655.368434052623 789.2841668268666,30653.579527093854 785.5235655112192,30651.817046215 781.7504395379219,30650.080991579336 777.9653714490123,30648.371363347105 774.1683612446068,30646.68816167669 770.3597001956077,30645.03168369009 766.5396795732668,30643.40192954248 762.7080081066815,30641.79919635388 758.8652683378896,30640.22318730771 755.0117515379097,30638.674496488937 751.147457706742,30637.15253010724 747.2723868446192,30635.65788224456 743.3871214934625,30634.190256073547 739.4913703822531,30632.749948703975 735.5857160533778,30631.33696027362 731.6704497777391,30629.951587889518 727.7455715556862,30628.593534713495 723.8110813867534,30627.263097848103 719.8672705423087,30625.960277422215 715.9147215645062,30624.685073561734 711.9531431824435,30623.437783364323 707.9828266666736,30622.21840695181 704.0043545600493,30621.02664746862 700.0174355910858,30619.86280200543 696.0223610311514,30618.727167651756 692.0197134222835,30617.619447543868 688.0092014933471,30616.539641790092 683.9911165155936,30615.488344449783 679.9657497601584,30614.4649616736 675.9336837689625,30613.46979053924 671.8943360000849,30612.503128123004 667.8485802666983,30611.564677543298 663.7961252979003,30610.654735871474 659.7375536356121,30609.77330319851 655.672865280183,30608.920082633325 651.6020602312637,30608.095668219263 647.5257210311247,30607.299763059767 643.4441389511339,30606.532367234526 639.3570227200398,30605.793480820255 635.2649548799964,30605.083400871197 631.16793543112,30604.402127459238 627.0662556444295,30603.749660653062 622.9599155200412,30603.125703537546 618.8494976001093,30602.53085013776 614.7350018845173,30601.964506551274 610.6167196446331,30601.42726679833 606.4946508802241,30600.918833951757 602.3690868623089,30600.43950504501 598.2403188622557,30599.98868616263 594.1086381511996,30599.567268296727 589.973753457889,30599.174657525902 585.8365385956131,30598.811150872323 581.6967022933532,30598.476451390423 577.5545358222444,30598.1708560969 573.4106217245571,30597.89436502289 569.2646687289234,30597.646978196688 565.1172593779629,30597.428695643554 560.9681024001911,30597.239517385722 556.8180716088973,30597.079443442635 552.6668757334119,30596.948176847247 548.5148060444044,30596.84631157946 544.3621538133593,30596.77355066646 540.209210311179,30596.729894115706 536.0556842668448,30596.715341931616 531.9024494934129,30596.729894115706 527.7495059912326,30596.77355066646 523.5968537600711,30596.84631157946 519.44478407118,30596.948176847247 515.2935881955782,30597.079443442635 511.1435574045172,30597.239517385722 506.9944004267454,30597.428695643554 502.84699107555207,30597.646978196688 498.7010380801512,30597.89436502289 494.55683271121234,30598.1708560969 490.41495751112234,30598.476451390423 486.2751212089788,30598.811150872323 482.13790634670295,30599.174657525902 478.00302165350877,30599.567268296727 473.87134094233625,30599.98868616263 469.7425729423994,30600.43950504501 465.61700892448425,30600.918833951757 461.4949401600752,30601.42726679833 457.37665792007465,30601.964506551274 453.262162204599,30602.53085013776 449.15174428455066,30603.125703537546 445.045404160046,30603.749660653062 440.9437243733555,30604.402127459238 436.8467049244791,30605.083400871197 432.7546370845521,30605.793480820255 428.66752085334156,30606.532367234526 424.5859387733508,30607.299763059767 420.5095995734446,30608.095668219263 416.4387945245253,30608.920082633325 412.37410616886336,30609.77330319851 408.3155345066916,30610.654735871474 404.26307953801006,30611.564677543298 400.21732380462345,30612.503128123004 396.1779760356294,30613.46979053924 392.14561877353117,30614.4649616736 388.1205432889983,30615.488344449783 384.10245831112843,30616.539641790092 380.0919463823084,30617.619447543868 376.08929877344053,30618.727167651756 372.0942242133897,30619.86280200543 368.1073052446591,30621.02664746862 364.12854186678305,30622.21840695181 360.15851662226487,30623.437783364323 356.19693824008573,30624.685073561734 352.244097991148,30625.960277422215 348.30057841783855,30627.263097848103 344.3660882489057,30628.593534713495 340.44121002673637,30629.951587889518 336.52565248007886,30631.33696027362 332.6202894222224,30632.749948703975 328.72453831124585,30634.190256073547 324.83927296008915,30635.65788224456 320.9642020978499,30637.15253010724 317.0999082667986,30638.674496488937 313.24639146681875,30640.22318730771 309.403651697794,30641.79919635388 305.5719802312087,30643.40192954248 301.7519596089842,30645.03168369009 297.94329856010154,30646.68816167669 294.146288355696,30648.371363347105 290.3612202667864,30650.080991579336 286.5880942933727,30651.817046215 282.82749297784176,30653.579527093854 279.07912504905835,30655.368434052623 275.34357304906007,30657.183766926115 271.6205457068281,30659.02493162296 267.91091683576815,30660.89222493791 264.2141038934933,30662.7856467003 260.53098069352563,30664.70489977731 256.8612559644971,30666.649983995536 253.20522097777575,30668.620602221054 249.5631670044968,30670.616754277726 245.935385315679,30672.638439987495 242.3215846400708,30674.68565916986 238.7223475201754,30676.758114686527 235.13767395564355,30678.855806354724 231.56785521784332,30680.978437035345 228.0128913067747,30683.12630349683 224.47307349345647,30685.298811644432 220.94869304890744,30687.49596129125 217.43974997336045,30689.718049199204 213.94653553783428,30691.96448127413 210.46904974232893,30694.235554274695 207.007875128882,30696.53097105655 203.56242915557232,30698.85043447686 200.1335856356891,30701.194241287943 196.72134456899948,30703.561797398026 193.32570595561992,30705.953102610947 189.94696106680203,30708.368453673087 186.58510990231298,30710.80725649424 183.24044373328798,30713.26980781788 179.91325383121148,30715.755513555778 176.60354019573424,30718.264670448436 173.31130282685626,30720.796684409957 170.03712426673155,30723.352149117447 166.78100451559294,30725.93017354631 163.542943573324,30728.531054431456 160.3232327111764,30731.15449462901 157.12187192903366,30733.80049393262 153.93915249791462,30736.469052134373 150.7753656890709,30739.15987209056 147.63051150226966,30741.872656659398 144.50458993774373,30744.60740563349 141.39818353787996,30747.364118803584 138.3110010313103,30750.142499028647 135.24333368905354,30752.94224916998 132.19547278236132,30755.76366594754 129.16770958236884,30758.606452221342 126.15946154680569,30761.470310853736 123.17160248884466,30764.35524163471 120.20413240895141,30767.260947428644 117.2570513067767,30770.18742802547 114.33065045345575,30773.134386291727 111.42492984898854,30776.102118938637 108.53988949337509,30779.090031911677 105.67611192900222,30782.09782808204 102.83330588461831,30785.12580416008 100.01205390226096,30788.173663016467 97.21206471126061,30791.24140444066 94.43362958228681,30794.328434391005 91.67703978682403,30797.435049574648 88.942295324523,30800.560952867556 86.22939619550016,30803.705847148667 83.53863367123995,30806.869732210936 80.87029902241193,30810.05231093621 78.22439224901609,30813.25358311826 75.60062208015006,30816.473251642194 72.99986232898664,30819.71131630265 70.42182172450703,30822.96747998806 67.86650026671123,30826.241742494167 65.33418922673445,30829.533806712832 62.825179875595495,30832.843672441028 60.33947221341077,30836.170745673648 57.87706624006387,30839.515323111787 55.438253226689994,30842.8771076547 53.023033173405565,30846.256099101913 50.631406080094166,30849.651703460666 48.26366321777459,30853.063920535787 45.920095857814886,30856.492750131234 43.60070400009863,30859.938192049856 41.3051963733742,30863.39935542061 39.034446791163646,30866.87683383515 36.78787271119654,30870.37003332004 34.565765404491685,30873.87895368546 32.3684161423007,30877.403594740957 30.19582492450718,30880.943065639935 28.04828302236274,30884.497959968925 25.925499164615758,30888.06798065611 23.827764622401446,30891.65253375232 21.7553706667386,30895.25191595807 19.70831729786005,30898.865533331526 17.686604515765794,30902.49368257291 15.690232320106588,30906.13547287142 13.719491982250474,30909.791497806145 11.774674773332663,30913.461163450032 9.855489422217943,30917.144469630788 7.961935929022729,30920.84111930401 6.094596835668199,30924.551112300076 5,30926.76457256131" stroke="red" stroke-width="3.178575977927502px" fill="none" stroke-linejoin="round" vector-effect="non-scaling-stroke"></polygon><polygon points="415.6482847289881,29778.479426060687 1025.332896711072,30319.13417412265 1053.400363520137,30292.120540126925 1081.0979160178686,30259.224353196274 1105.204969528946,30223.613352946995 1125.4576324267546,30185.677620074188 1141.6339561245404,30145.83254014695 1153.556556515512,30104.51495672157 1161.0952354132896,30062.177241860947 1164.1669805512065,30019.283740576764 1162.7382957511581,29976.303942788974 1156.8249096533982,29933.708920102916 1146.491484444472,29891.965381039772 1131.8513245867798,29851.530910848058 1113.0649204623187,29812.848018415563 1090.3376182046486,29776.340557503107 1063.9190371556906,29742.408956112748 1034.098409528844,29711.424848796043 1001.2022502401378,29683.72749091685 965.5911529244622,29659.620469523594 927.6551296000835,29639.36781969678 887.810115413391,29623.191331023525 846.4924344890751,29611.268747827446 804.1550134046702,29603.730187901645 761.2612644978799,29600.658429600473 718.2815906134201,29602.087121231016 675.6866858667927,29608.000480976538 633.9431665778393,29618.333892841183 593.5086196622578,29632.97391188785 554.825485937763,29651.760651819815 518.3184386845678,29674.487797271053 484.3868105956353,29700.90618673357 453.4025548801292,29730.72710005706 425.70529365341645,29763.623168877035 415.6482847289881,29778.479426060687" stroke="red" stroke-width="3.786124783919651px" fill="none" stroke-linejoin="round" vector-effect="non-scaling-stroke"></polygon><polygon points="2103.295530382311,31113.89458989707 2103.3130066489102,31118.048071027675 2103.3593187556835,31122.2009386876 2103.4350492444355,31126.353786489693 2103.539615573478,31130.50572403823 2103.673309013364,31134.657048146706 2103.8364208356943,31138.807165233127 2104.0283684978494,31142.956075316994 2104.249443271081,31147.103481624275 2104.4996451556217,31151.249384178896 2104.778974151239,31155.393486213812 2105.087138986797,31159.535194177937 2105.4244309334317,31163.675101684174 2105.7908499911427,31167.81202161376 2106.186104889028,31171.94654758222 2106.6104868978728,31176.078382842185 2107.0637047467753,31180.206933869456 2107.5460497067543,31184.33220071299 2108.0572305066744,31188.453886642237 2108.5972471467685,31192.57199171034 2109.1660996268038,31196.68621919368 2109.76378794678,31200.79627237405 2110.390312106698,31204.902151312854 2111.0456721067894,31209.003559298813 2111.729867946822,31213.10019962612 2112.442608355661,31217.192072364385 2113.1841846045572,31221.278584046056 2113.9540141511243,31225.360031516 2114.752970808884,31229.435821316147 2115.5801807645475,31233.505953528336 2116.435935289017,31237.570131470915 2117.3202343822923,31241.628355229564 2118.2327867733547,31245.680328129558 2119.173883733456,31249.72545674257 2120.143233991228,31253.76433468092 2121.1411288179224,31257.796071765595 2122.166985671269,31261.82066809776 2123.221387093421,31265.838123778463 2124.30345927109,31269.847845404583 2125.414076017798,31273.8501298356 2127.9763879822567,31283.037479832536 2129.1149667556165,31287.03198836808 2130.281507555628,31291.01816976926 2131.4757191111566,31294.996024152206 2132.697892693337,31298.965551632806 2133.9480283024022,31302.92645558616 2135.2258346667513,31306.878142652917 2136.53131178685,31310.8212064362 2137.8641683910973,31314.754756844835 2139.2249870222295,31318.679090744758 2140.6128938668407,31322.59361479414 2142.028471466736,31326.4983291268 2143.4714285512455,31330.39293714479 2144.9414738490013,31334.2774389853 2146.438898631255,31338.151538056263 2147.9634116267553,31342.014937770495 2149.515012835618,31345.86763827171 2151.0934109867085,31349.70934297843 2152.6988973511616,31353.539755314065 2154.3311806579586,31357.359172151017 2155.9899696357315,31361.16670347232 2157.675555555732,31364.962646154803 2159.3879384178435,31368.7467036327 2161.1265356800286,31372.518579344905 2162.8916386134224,31376.27827345085 2164.6832472179085,31380.02548939467 2166.5007789512165,31383.75993062521 2168.344525084598,31387.481597307604 2170.21448561782,31391.190192895767 2172.1103692799807,31394.88571755751 2174.0318848000607,31398.567874751752 2175.9796147200977,31402.236367941776 2177.9526852266863,31405.890900595172 2179.9513875911944,31409.531769592897 2181.975430542254,31413.158678403473 2184.025105351233,31416.771033797704 2186.1001207467634,31420.368835957313 2188.2001854578266,31423.952381762618 2190.325299484539,31427.520781294734 2192.475171555532,31431.074331437412 2194.6500929424074,31434.612735676696 2196.850063644466,31438.135697502585 2199.074209849001,31441.643217102683 2201.323114097817,31445.13499797124 2203.5964851200115,31448.61104029772 2205.894322915585,31452.07104758051 2208.2160449422663,31455.514723321656 2210.5619424711913,31458.942067714932 2212.9320155022433,31462.35308095318 2215.3256814933848,31465.74716985697 2217.7432317156345,31469.124334624095 2220.184374897857,31472.484575451235 2222.649111040053,31475.82759585185 2225.137148871203,31479.15339602396 2227.6484883910744,31482.461679484695 2230.1828383289976,31485.751853075693 2232.7404899556423,31489.02451035712 2235.3208607289707,31492.279058172717 2237.923950648983,31495.515496725217 2240.5494684444275,31498.733529541234 2243.1977053867886,31501.933156824496 2245.8683702044655,31505.11408210476 2248.561171626672,31508.27630558645 2251.2761096534086,31511.41953080223 2254.0131842845585,31514.54346128815 2256.7718129778514,31517.648393918877 2259.552287004539,31520.733735562884 2262.3543150934856,31523.79948642745 2265.1778972445754,31526.84564671846 2268.022742186673,31529.871623312938 2270.8885586489923,31532.878009745735 2273.7756379023194,31535.86391623324 2276.6833974045003,31538.82963964576 2279.6118371556513,31541.77488352853 2282.560957155656,31544.6993514293 2285.5304661333794,31547.603340214002 2288.5203640889376,31550.48625677236 2291.5303597511956,31553.34810131247 2294.5601618489018,31556.188874040614 2297.610061653424,31559.008278507623 2300.6794766222592,31561.806314919726 2303.7686980267754,31564.582686829206 2306.8771433245856,31567.337394441827 2310.0048125155736,31570.070141311327 2313.1514143289533,31572.780927643005 2316.3172400355106,31575.46945699182 2319.501707093441,31578.13602620986 2322.7048155022785,31580.779745557287 2325.926273991121,31583.40120853216 2329.1660825600848,31586.00011868874 2332.4242412090534,31588.576179583324 2335.70016739564,31591.12939141685 2338.993861120078,31593.65945774637 2342.3053223823663,31596.166378771653 2345.634259911254,31598.64985805028 2348.980673706741,31601.110192420776 2352.3442724978086,31603.546788799402 2355.7247650133213,31605.95994402183 2359.1218599822605,31608.349065006303 2362.535848675645,31610.714448585233 2365.9664398223395,31613.05609495024 2369.413342151209,31615.373411020904 2372.876264391234,31617.66639698943 2376.3552065421827,31619.935053046036 2379.85016860452,31622.17937937897 2383.360568035627,31624.399079542374 2386.8864048357354,31626.59415372263 2390.4276790046133,31628.76430547342 2393.9840992712416,31630.90983160888 2397.5553743646014,31633.030139050854 2401.1415042845765,31635.12552460993 2404.742197760148,31637.1956918363 2408.3574547911994,31639.240344280843 2411.986984106712,31641.25977874751 2415.6302031646483,31643.253698784218 2419.287694506813,31645.221807939 2422.9588755912846,31647.16440300946 2426.643455146812,31649.081187540374 2430.3414331733948,31650.97216170031 2434.0525184000144,31652.837029032875 2437.776710826787,31654.676086325722 2441.51342791121,31656.488740497967 2445.262960924534,31658.275288332952 2449.0250185956247,31660.035433369456 2452.7993096533464,31661.76917576557 2456.5855428266805,31663.47621905821 2460.383718115627,31665.156860020594 2464.193544248934,31666.810802186083 2468.0150212268345,31668.438045704737 2471.8475665068254,31670.03829410771 2475.691471360158,31671.611547541863 2479.5461532445624,31673.15810276725 2483.411612160038,31674.677366694028 2487.287848106702,31676.16963607777 2491.1742785423994,31677.63461444137 2495.0706121956464,31679.07230192062 2498.977431608946,31680.482698648993 2502.893862969009,31681.86550814449 2506.819615004468,31683.22102714918 2510.7549789868062,31684.548959176813 2514.69966364454,31685.84900774056 2518.653377706767,31687.121469574573 2522.6158299022354,31688.366344798123 2526.5867289601592,31689.58333691774 2530.5663661510916,31690.77244604868 2534.5541589334607,31691.933672303625 2538.549816035549,31693.066719183582 2542.553628728958,31694.171883405594 2546.5650144713,31695.248868466064 2550.5836819912074,31696.297674468136 2554.6096312890295,31697.318301512103 2558.6428623645334,31698.310749695753 2562.6827926756814,31699.27472250699 2566.729422222241,31700.210516645748 2570.7824597334256,31701.11783559533 2574.841613937868,31701.996679443284 2578.907176106819,31702.847048274707 2582.978272426757,31703.66894217173 2587.0551941689337,31704.462064608757 2591.13765006233,31705.22671226808 2595.2250575645594,31705.96288522362 2599.317999217892,31706.6702869421 2603.4153099377872,31707.348917492607 2607.517572266748,31707.998776941502 2611.6242036622716,31708.61986535217 2615.735204124474,31709.212182785326 2619.8502823823364,31709.77572929865 2623.969147164491,31710.31020834425 2628.0915072000353,31710.815916577587 2632.2173624889692,31711.292557445355 2636.3467130311765,31711.740427597193 2640.478685013484,31712.159230474324 2644.6138609778136,31712.54926272045 2648.7513671112247,31712.909931169066 2652.891494684387,31713.241829060542 2657.0339524267474,31713.544659825042 2661.1781577956863,31713.818423492543 2665.3244020622224,31714.063120089995 2669.4721026844345,31714.278749641613 2673.6212596623227,31714.46501556679 2677.771872995654,31714.622511087568 2681.9230688711395,31714.75093961769 2686.0754298312822,31714.850004568114 2690.2280820623273,31714.920002550294 2694.381316835643,31714.960933571274 2698.5345516089583,31714.972797634953 2702.688077653409,31714.955594742554 2706.8410211557057,31714.90902829077 2710.993673386867,31714.833394876565 2715.145743075642,31714.728694492544 2719.2969389511272,31714.594927128346 2723.44726101344,31714.43209277076 2727.59612671996,31714.240191403776 2731.7435360711534,31714.018926406512 2735.889489066787,31713.768890960957 2740.0334031644743,31713.489491838438 2744.1752783646807,31713.18132221559 2748.315114666708,31712.844085460005 2752.4520382578485,31712.477484935953 2756.586631680024,31712.082410414703 2760.7183123911964,31711.6579720499 2764.846789119998,31711.204763004847 2768.9720618666615,31710.72248663247 2773.093839360168,31710.21114288515 2777.2121216000523,31709.671324919094 2781.3263260446256,31709.10243947513 2785.4364526934223,31708.504486497084 2789.5422102756565,31707.878059133887 2793.6435987910954,31707.222564116644 2797.740326968953,31706.53859458957 2801.8321035378613,31705.825853881834 2805.918637226685,31705.08434192394 2809.999928035657,31704.31435524847 2814.075975964428,31703.51559717569 2818.145907200058,31702.68836423324 2822.2103042844683,31701.832656341197 2826.2682934046024,31700.948176810576 2830.3201658312464,31700.03551876807 2834.3656302933814,31699.094385519507 2838.4043955199886,31698.12507358112 2842.435878968914,31697.127286252682 2846.4606631821953,31696.101320045476 2850.478165617911,31695.04717486142 2854.4878037333256,31693.964850599586 2858.4901600711746,31692.854347156535 2862.4843608179362,31691.715961035166 2866.470697244513,31690.549692127737 2870.4485868089832,31689.355243713653 2874.4180295111146,31688.132912289177 2878.3787340800045,31686.882994349464 2882.3307005157694,31685.605193165946 2886.2736375468085,31684.29980522947 2890.2072539023357,31682.96653380536 2894.1315495822346,31681.605971992773 2898.045942044584,31680.21782305237 2901.95072256017,31678.80238346767 2905.8453085868387,31677.359653107414 2909.7299913956085,31675.889335223008 2913.6038971734233,31674.392022907094 2917.467317191069,31672.867716022127 2921.3202514490113,31671.316117812064 2925.161826133379,31669.737524749653 2928.992332515656,31668.13223330729 2932.811479324475,31666.499946721422 2936.6192665600684,31664.840961460548 2940.415111680166,31663.155277373968 2944.1993059555534,31661.443190928258 2947.9712668445427,31659.704405349446 2951.7307030757656,31657.939217100386 2955.4779059201246,31656.147922643693 2959.212292835582,31654.330225198413 2962.934155093506,31652.486421223788 2966.642618880025,31650.616510555905 2970.3382667378755,31648.720789652492 2974.0202248534188,31646.798961722525 2977.68878449779,31644.85161984543 2981.343654400087,31642.878467226226 2984.9842520179227,31640.87950369151 2988.611159893335,31638.855322319898 2992.2235042135,31636.80592293752 2995.821576248971,31634.731008739793 2999.4047934578266,31632.630876175535 3002.9734471112024,31630.505821694387 3006.526954666828,31628.355845115846 3010.06531612447,31626.180649625836 3013.588240213343,31623.981124933925 3017.0957269334467,31621.75667759194 3020.5874850134132,31619.507604044455 3024.0635144534754,31617.234497371537 3027.5235239823814,31614.936764116457 3030.9672223289963,31612.614997358352 3034.39460949332,31610.268900269934 3037.80539420445,31607.899065931735 3041.1995764622698,31605.50519751344 3044.576864995528,31603.087591457996 3047.937259804574,31600.646544209507 3051.2801783467876,31598.181758931838 3054.6059118933044,31595.693828708667 3057.914169173455,31593.18245670083 3061.204367644619,31590.647939350805 3064.4770898489514,31588.09057310241 3067.7317532445304,31585.51006111101 3070.9680665601045,31582.90699646453 3074.1860297956737,31580.28137896245 3077.385642951238,31577.633208402433 3080.566614755662,31574.962484580406 3083.7289452089462,31572.269800589536 3086.8720517690526,31569.55485957727 3089.9959344357485,31566.817661337147 3093.100884480169,31564.059095617675 3096.1863193601603,31561.278568910726 3099.2519478044705,31558.476377661806 3102.298061084468,31555.65311497345 3105.324076657882,31552.80818732985 3108.3302857954986,31549.942484491447 3111.3163972266484,31547.055412938178 3114.2821196800796,31544.147565777123 3117.2271618844243,31541.21923946141 3120.151815111167,31538.27013712458 3123.0557880890556,31535.300555218884 3125.938789546839,31532.31079019897 3128.8005282133818,31529.300841858145 3131.641295360052,31526.270709988195 3134.460799715598,31523.220987711684 3137.258750008885,31520.151378156734 3140.0351462400286,31517.06247445033 3142.7896971377777,31513.953979718848 3145.5226939735003,31510.826190423686 3148.2332629334414,31507.679403029266 3150.921986559988,31504.513914002688 3153.5882823111024,31501.32942646742 3156.2324414578034,31498.126236890326 3158.8538814578205,31494.904641741305 3161.452602311154,31491.664937493566 3174.015125333448,31475.789917222864 3176.591127039981,31472.5317480854 3179.144118328928,31469.255765793496 3181.674390471191,31465.96197014663 3184.1813609246165,31462.650360942876 3186.664738417836,31459.321531354915 3189.125105493469,31455.97518449655 3191.561879609013,31452.611616856186 3193.9747694934485,31449.23112492537 3196.364066417911,31445.834005199547 3198.7294791112654,31442.41996079078 3201.071007573395,31438.989584889146 3203.388360533514,31435.54258060595 3205.681246720138,31432.0795411375 3207.9499574045185,31428.600762990478 3210.1942013156367,31425.105949276825 3212.4139784534927,31421.595396503806 3214.608997546835,31418.069401182467 3216.7792585955467,31414.528259827814 3218.924761600094,31410.971675550623 3221.045215288992,31407.400538277114 3223.1403283912223,31403.81425441493 3225.2103921778034,31400.213713899546 3227.2554066489683,31396.598619844648 3229.27478926233,31392.968972068455 3231.2685400177725,31389.325660522503 3233.2369501867797,31385.668091609434 3235.1794372267323,31381.997155290446 3237.096292408998,31378.312554680684 3238.9872244623257,31374.614586322277 3240.852233386715,31370.903546761663 3242.691027911147,31367.179435830854 3244.5036080357386,31363.442550081352 3246.290265031159,31359.692889347905 3248.05041635572,31355.93104690971 3249.784062009072,31352.156725883833 3251.4912019912153,31348.370519557677 3253.171836302383,31344.57213104819 3254.8256736712065,31340.762450378563 3256.453005369054,31336.940883941017 3258.053248853539,31333.108321769163 3259.62669539568,31329.264466984663 3261.173053724575,31325.409616169753 3262.6923238399904,31321.544362645713 3264.184505742276,31317.66811280127 3265.6495994310826,31313.781756699085 3267.087313635624,31309.885294202366 3268.4976483556675,31305.978725173918 3269.8806035913294,31302.062346217106 3271.235888071242,31298.136157197878 3272.5637930667726,31294.200751469354 3273.8640273067867,31290.25612890476 3275.136590791284,31286.302586123522 3276.381192249013,31282.34012300236 3277.5984142223606,31278.369036166696 3278.787382897921,31274.389622247254 3279.948389546713,31270.40188112791 3281.0817254401045,31266.406109445496 3282.1868080355925,31262.402307087497 3283.26363733341,31258.39106745302 3284.312504604459,31254.37239043723 3285.333118577837,31250.346275935008 3286.325479253428,31246.31331736123 3287.2895866311155,31242.273217857408 3288.2254407111323,31238.226570847386 3289.1327502222266,31234.173673001933 3290.011515164515,31230.114227466052 3290.8620268090162,31226.048827679828 3291.68370261346,31221.97777032596 3292.4771251201164,31217.900758553063 3293.2417117867153,31213.81838581746 3293.9777538846247,31209.73065204156 3294.6852514134953,31205.63815069513 3295.3639131023083,31201.54058493342 3296.0137389510637,31197.43825145939 3296.6347289599944,31193.331743759278 3297.227174400119,31189.220764992235 3297.790492729051,31185.10561187344 3298.3252664890606,31180.986877905903 3298.8309131378774,31176.864266252727 3299.307723946753,31172.738370426523 3299.7554076444358,31168.60919037828 3300.1742555021774,31164.477022846637 3300.5642675200943,31160.342164576054 3300.9248611555668,31156.204318734992 3301.2569102222333,31152.064375654794 3301.559540906688,31147.922038509685 3301.8333357510855,31143.77760405786 3302.078003484523,31139.63166585978 3302.293544106651,31135.483630295843 3302.4802488889545,31131.334684530564 3302.63753528893,31127.1842349472 3302.765694577829,31123.03287512588 3302.8650180266704,31118.88060505112 3302.9349230934167,31114.727721512376 3302.975992319989,31110.57452130475 3302.9876431645826,31106.421301228984 3302.970458169002,31102.268061282462 3302.9238547910936,31098.114801462507 3302.848415573477,31093.962115390226 3302.743849244551,31089.810003071616 3302.609864533413,31085.65876132727 3302.4470439823344,31081.50868698355 3302.2550963199465,31077.35978005483 3302.0340215468314,31073.212337374513 3301.783819662174,31069.066358961165 3301.50449066679,31064.92243847734 3301.1963258312317,31060.780575950106 3300.859033884597,31056.641068231373 3300.4926148267696,31052.50361852633 3300.097359929001,31048.36911734467 3299.6729779200396,31044.23756472644 3299.219468800118,31040.10896071134 3298.7374151112745,31035.983899002837 3298.226234311238,31031.862082815904 3297.686217671144,31027.743809029344 3297.117365191225,31023.629671363276 3296.519676871132,31019.519373037037 3295.8928614400793,31015.41380461934 3295.237792711123,31011.31237249484 3294.55359687109,31007.215670403268 3293.840856462368,31003.123995252652 3293.099280213355,30999.037347111967 3292.3291593955364,30994.956022896047 3291.530494008912,30990.880022677942 3290.7032840533648,30986.809940228006 3289.8475295288954,30982.745775627496 3288.9632304357365,30978.68752895767 3288.0506780445576,30974.63579400524 3287.1095810845727,30970.59027400537 3286.1399395556655,30966.551562754263 3285.14233599999,30962.519957202254 3284.1161878756247,30958.495160588063 3283.0620777246077,30954.47776672436 3281.979714275687,30950.46807257319 3280.869388799998,30946.465781377163 3279.73110129789,30942.471486964845 3278.5645604977617,30938.485189445026 3277.370057671331,30934.507482659537 3276.1478840889176,30930.537772989075 3274.8980397512205,30926.577248019166 3273.620233386755,30922.625314132834 3272.3147562667727,30918.682268317905 3270.9816083911574,30914.748704441066 3269.6210810311604,30910.824622630025 3268.2328829156468,30906.910023011907 3266.8173053155188,30903.00520259142 3265.3746395023772,30899.11045837798 3263.904302933486,30895.22608738643 3262.4071694223676,30891.352089754713 3260.882656426751,30887.488465620903 3259.331055217772,30883.63580889051 3257.7523657956626,30879.79411970888 3256.1471707023447,30875.96369510732 3254.514887395664,30872.14423834608 3252.855807146756,30868.33664023725 3251.1702212267555,30864.540604045556 3249.4581296356628,30860.756723705796 3247.719241102226,30856.98470248311 3245.954138169065,30853.225134320674 3244.162820835598,30849.47801937966 3242.3449978311546,30845.743357820844 3240.5012516978895,30842.02174360148 3238.6312911644345,30838.313176888914 3236.7356987735257,30834.617657849973 3234.813891982427,30830.935780455708 3232.8664533334086,30827.267247975804 3230.89338282682,30823.612357484002 3228.894680462312,30819.971702964627 3226.870346240001,30816.3449876894 3224.8206714312546,30812.732508741552 3222.745947306743,30809.134563208616 3220.6458825955633,30805.551151271327 3218.5207685689675,30801.982570022054 3216.3706052267225,30798.429116557294 3214.19568384008,30794.89079106314 3211.996004408924,30791.367593724804 3209.77156693337,30787.860118561017 3207.522662684438,30784.368365762813 3205.2492916623596,30780.892335520242 3202.9517451379215,30777.432324943424 3200.629731840105,30773.988631146436 3198.28383431118,30770.561254323868 3195.9140525511466,30767.150491594046 3193.52009528887,30763.756343153364 3191.1025450667366,30760.379106124165 3188.6614018843975,30757.01878070453 3186.196665742318,30753.675664020528 3183.7086279112846,30750.350053202128 3181.1972883911803,30747.04194845137 3178.6629384533735,30743.751349969243 3176.105578097864,30740.47885182296 3173.5252073245356,30737.224157283606 3170.9221174045233,30733.987860424095 3168.296308337827,30730.769664514402 3165.648071395699,30727.570163633034 3162.9774065779056,30724.389357987908 3160.284605155699,30721.227247785893 3157.569667129079,30718.083833232522 3154.832883768948,30714.960005359317 3152.0739638045197,30711.855170492316 3149.2934897778323,30708.76962578128 3146.491461689002,30705.703965324385 3143.667879537912,30702.65789238736 3140.8233258668333,30699.63170412561 3137.957218133379,30696.62540074857 3135.070430151187,30693.639576364134 3132.1626706488896,30690.673934234423 3129.234230897855,30687.728771519905 3126.2851108978502,30684.804088430654 3123.315601920127,30681.90018212929 3120.3257039644523,30679.01734978106 3117.3157083023107,30676.155294641852 3114.2856149334693,30673.31461083278 3111.236006399966,30670.495001607633 3108.1663001599954,30667.69706109137 3105.077370026731,30664.9207894954 3101.968924729037,30662.16618702974 3098.8412555378163,30659.43325390265 3095.694362453418,30656.7225842459 3092.5288280178793,30654.03388130688 3089.3443609600654,30651.367442256073 3086.1412525511114,30648.72356426611 3082.9195027911337,30646.10224754538 3079.6796942222863,30643.503195333353 3076.4218268445693,30640.927298736235 3073.1459006577497,30638.374260993616 3069.8519156622933,30635.8440823094 3066.5404544001212,30633.337059856334 3063.2115168712335,30630.85349080892 3059.86510307563,30628.393375370826 3056.5017955556978,30625.9567137438 3053.121303040185,30623.543506127782 3049.7239168001106,30621.154346670257 3046.309928106726,30618.788938596786 3042.879336960148,30616.447579080297 3039.432725902414,30614.130268317764 3035.969512391137,30611.8370065043 3032.490570240072,30609.56838779064 3028.995899448986,30607.32411539281 3025.485500017763,30605.104486482567 3021.959371946752,30602.909204270167 3018.418097777874,30600.739159888646 3014.861677511246,30598.59375956451 3011.290402417886,30596.47330046614 3007.704272497911,30594.378079763148 3004.1035790223395,30592.30780065572 3000.488613262307,30590.263057296164 2996.859083946678,30588.243849867256 2993.2155736178393,30586.24988156272 2989.55837354681,30584.281449546746 2985.8871924622217,30582.33885098365 2982.2026129066944,30580.422086049395 2978.504634879995,30578.531154917728 2974.7935496533755,30576.66635475005 2971.0693572268356,30574.82738872635 2967.3323488712776,30573.014554004767 2963.5828158579534,30571.228147743677 2959.8207581867464,30569.46817010874 2956.0467584000435,30567.73432426952 2952.2605252267094,30566.027204373095 2948.4623499378795,30564.346513584896 2944.652232533321,30562.692549055966 2940.831046826672,30561.065607937053 2936.998210275662,30559.465096389933 2933.154596693348,30557.89190555364 2929.299623537925,30556.345441584184 2925.4341646222165,30554.826001624577 2921.5582199468045,30553.33388281736 2917.6717895112233,30551.8687883066 2913.775164586841,30550.431015231006 2909.8686364445603,30549.020860728167 2905.9522050843807,30547.637730934133 2902.026161777787,30546.282516982756 2898.0907977956813,30544.95462500432 2894.1461131379474,30543.654352127865 2890.192690346623,30542.381698479643 2886.230238151271,30541.13696118578 2882.2590478223283,30539.920140368282 2878.279410631163,30538.73093914293 2874.291909120162,30537.56995163305 2870.2959607467055,30536.43688094936 2866.2924393245485,30535.33172720298 2862.281053582323,30534.254787507467 2858.262386062299,30533.20576496399 2854.2361454933416,30532.185253687203 2850.203205688973,30531.192659766995 2846.1632753779413,30530.228577313654 2842.1166458312655,30529.29300642392 2838.0636083200807,30528.385650184355 2834.0041628445033,30527.506805692334 2829.938891946804,30526.656473035982 2825.867504355614,30525.834652300517 2821.7908738844562,30525.041343568242 2817.7084179911762,30524.27654691873 2813.620719217928,30523.540559437475 2809.528068835498,30522.833084189915 2805.4304668444674,30522.15441825625 2801.328204515623,30521.504561705282 2797.221573119983,30520.883514602785 2793.1105726577807,30520.291277011624 2788.99578567117,30519.727848991926 2784.8769208890153,30519.19323060068 2780.754269582336,30518.687421892013 2776.6284142935183,30518.210719927913 2772.49935502233,30517.763124757155 2768.3670917690033,30517.344042403565 2764.2322070755763,30516.954363942496 2760.0944096711464,30516.593495391833 2755.9542820978677,30516.261436788132 2751.812115626759,30515.958782187838 2747.6676189868012,30515.68493759929 2743.5216659911675,30515.44049707346 2739.37367409782,30515.224866612174 2735.2245171200484,30515.038343249063 2731.074195057852,30514.88092700328 2726.9227079112316,30514.75261789083 2722.7706382223405,30514.653415924928 2718.61769472016,30514.58332111576 2714.464751217747,30514.542333470366 2710.311225173413,30514.53075000504 2706.157990399981,30514.54797669704 2702.004755626782,30514.59431055654 2697.8521033956204,30514.67004859069 2693.7000337067293,30514.774596767907 2689.548837831244,30514.908549101267 2685.3988070400665,30515.071311553475 2681.24994133343,30515.263478131325 2677.1022407111013,30515.484454791644 2672.9565789868357,30515.734538523713 2668.812373618013,30516.013729301863 2664.670498417807,30516.322027097514 2660.5309533867985,30516.659431879118 2656.393738524406,30517.025943612156 2652.259145102231,30517.42126524821 2648.12775566231,30517.845396747056 2643.9989876622567,30518.298932087142 2639.873714915593,30518.780980190146 2635.7519374223193,30519.292135028285 2631.6339464533376,30519.83209953917 2627.519742008997,30520.40117067797 2623.409615360084,30520.998754367116 2619.303566506831,30521.62544456555 2615.2021779911593,30522.280647190695 2611.1057410846697,30522.96495619492 2607.013964515645,30523.677480481914 2602.9271395555697,30524.41911100637 2598.845848746714,30525.1892536761 2594.770092088962,30525.987908413867 2590.6998695824295,30526.815075139573 2586.635763769038,30527.670753770333 2573.760706844623,30530.421037483844 2569.7024264534703,30531.30522508407 2565.6505540268263,30532.217924323224 2561.6053808355937,30533.15883810434 2557.5666156089865,30534.128263339226 2553.534840888926,30535.126199930848 2549.51034794678,30536.15205377026 2545.492845511064,30537.206121760944 2541.4829161245143,30538.288700802135 2537.4808510578005,30539.398899775406 2533.4866503112717,30540.537312578876 2529.5003138845786,30541.703939099738 2525.5224243201083,30542.898185218102 2521.5529816178605,30544.12034781999 2517.5919857778354,30545.370426785317 2513.640310613322,30546.64812499087 2509.697373582283,30547.95373931306 2505.763757226756,30549.286675624026 2501.839461546857,30550.647527794878 2497.925069084391,30552.035404695314 2494.020288569038,30553.450900190568 2490.125411271234,30554.894014143443 2486.2410197333666,30556.36415241903 2482.367113955668,30557.86131487816 2478.503402666771,30559.38579837489 2474.6507596800802,30560.93730576738 2470.8091849955963,30562.515836908424 2466.9786786134355,30564.12139164837 2463.159240533365,30565.75367284083 2459.351744569023,30567.412383339193 2455.555608177907,30569.09811697557 2451.7717051734217,30570.810279605503 2447.999744284549,30572.549168061872 2444.2403080534423,30574.31418819941 2440.4931052088505,30576.10563684703 2436.758427022258,30577.923216848634 2433.036856035702,30579.767225026968 2429.3281009778148,30581.637067234027 2425.6327443910995,30583.532743300428 2421.9507862756727,30585.4545500417 2418.282226631185,30587.401893308735 2414.627356728888,30589.375069913047 2410.98646784015,30591.373782690906 2407.3598512356402,30593.398031463264 2403.7475069155917,30595.447519065405 2400.1494348801207,30597.52254229912 2396.5662176711485,30599.62250701402 2392.9975640177727,30601.74771000835 2389.4440564622637,30603.89785411337 2385.9056950046215,30606.072642161103 2382.382770915632,30608.272370943334 2378.875284195645,30610.496743289346 2375.3832348446595,30612.745759007288 2371.907205404481,30615.019120926096 2368.44748714671,30617.316828852054 2365.003788800095,30619.6385856141 2361.576401635655,30621.98439101677 2358.16532565339,30624.35454183648 2354.7711433956865,30626.748146952596 2351.393854862312,30629.16580011294 2348.0337513245177,30631.60690717172 2344.690832782304,30634.071764898952 2341.3650992356706,30636.55977915111 2338.0568419556366,30639.07094972662 2334.7663522134535,30641.605573390087 2331.4939212800236,30644.162759033206 2328.239257884561,30646.743100386113 2325.002944568987,30649.346300275065 2321.784690062166,30651.97206152795 2318.5850769068347,30654.6203839379 2315.4041051024105,30657.29097033391 2312.2420659201453,30659.983820508292 2309.098959360039,30662.698637291265 2305.974785422324,30665.435717434273 2302.8701266489225,30668.194466807414 2299.784691768931,30670.97488520207 2296.719063324621,30673.77697240794 2293.6729500446236,30676.600431257684 2290.6466432000743,30679.445261540706 2287.6404340623412,30682.311166091415 2284.6546139023267,30685.19784774643 2281.6888914488954,30688.105900200026 2278.7435579734156,30691.034432383545 2275.8189047467895,30693.98344408808 2272.915223040036,30696.952935103036 2270.0322215822525,30699.94260826899 2267.170191644458,30702.952760322427 2264.3297157690395,30705.982797157543 2261.5102114134934,30709.032421620155 2258.7122611202067,30712.101930445642 2255.9358648889465,30715.191026479297 2253.181022720062,30718.299412569264 2250.448317155591,30721.427088506927 2247.737456924515,30724.574054082448 2245.049024568987,30727.73971520865 2242.3824375467375,30730.92407167988 2239.738569671288,30734.127123288985 2237.117129671271,30737.348869827925 2234.5184088179376,30740.588717220293 2231.9424071111716,30743.846665262303 2229.3891245510895,30747.122713749122 2226.8591436799616,30750.41656554473 2224.352173226769,30753.727923516417 2221.868504462298,30757.056787462963 2219.4084286579164,30760.403157182096 2216.971654542256,30763.76673554507 2214.5584733866854,30767.147225426685 2212.1691764623392,30770.544329705474 2209.8037637688685,30773.958345107676 2207.462526577874,30777.388974512403 2205.1451736178715,30780.83562388271 2202.8519961601123,30784.29888686427 2200.5832854756154,30787.777872505947 2198.339041564497,30791.272580618446 2196.119264426874,30794.783011011372 2193.924245333299,30798.30886658019 2191.753984284587,30801.850147136545 2189.608772551175,30805.406555580383 2187.4883188623935,30808.97779481561 2185.3929144889116,30812.564161567832 2183.322850702214,30816.164764927176 2181.0727813689737,30820.102341625083 2179.028058168944,30823.71746178146 2177.0086755556986,30827.346818124235 2175.0149248000234,30830.990410474828 2173.0465146311326,30834.647644852288 2171.10402759118,30838.31881798402 2169.187172408914,30842.003335896414 2167.2962403555866,30845.701198419963 2165.4312314311974,30849.412405384355 2163.592436906649,30853.13665972423 2161.779565511155,30856.873367485416 2159.9931997867534,30860.623122291698 2158.2330484621925,30864.385033302184 2156.499402808957,30868.15910035948 2154.792262826697,30871.945620193903 2153.111628515646,30875.74370198243 2151.4577911468223,30879.553642459796 2149.830459449091,30883.37484770204 2148.230215964606,30887.207614444254 2146.6567694223486,30891.05134877091 2145.110411093454,30894.906050537364 2143.591140977922,30898.771719598328 2142.0986678046174,30902.64776205324 2140.6338653867133,30906.534177764202 2139.1961511824047,30910.430669718073 2137.7858164623613,30914.337237780273 2136.4028612268157,30918.253584943886 2135.0475767466705,30922.179711077595 2133.719671751256,30926.11502231116 2132.4194375111256,30930.059815388988 2131.1468740267446,30934.01319958287 2129.901981297764,30937.97576850775 2128.685050595668,30941.94692831108 2127.496081920108,30945.92638201377 2126.3347840001807,30949.914129503304 2125.201739377808,30953.909873806988 2124.0966567823198,30957.913614815974 2123.0195362133672,30961.924758706824 2121.9706689424347,30965.943602234533 2120.9500549690565,30969.9695515848 2119.957694293349,30974.00260666071 2118.993586915778,30978.04276736488 2118.05802410678,30982.08914304909 2117.1507145955693,30986.142327326117 2116.2716583823785,30990.201726407395 2115.421438008896,30994.267043361557 2114.5994709334336,30998.33827810746 2113.8063396979123,31002.415133720497 2113.041461760178,31006.497610123362 2112.305419662269,31010.58511355793 2111.598213404417,31014.67794079421 2110.919551715604,31018.775498083618 2110.269725866732,31022.877488525002 2109.6484445866663,31026.984208892507 2109.0562904179096,31031.095362287713 2108.4926808178425,31035.21005815355 2107.958198328968,31039.328890103207 2107.4525516801514,31043.451561250724 2106.9757408711594,31047.57747788797 2106.52805717336,31051.706639971002 2106.1092093156185,31055.838750630675 2105.719197297818,31059.973809827177 2105.3583123912103,31064.111520698527 2105.0265545955626,31068.251586388273 2104.7239239111077,31072.394006865157 2104.4501290667104,31076.53818846197 2104.2054613333894,31080.684427972243 2103.989920711145,31084.832131738716 2103.8032159288414,31088.981299742765 2103.6459295289824,31093.13163515349 2103.5174789690645,31097.283137956634 2103.4184467911255,31101.43521451892 2103.3482504533604,31105.58816164249 2103.3074724979233,31109.74138570408 2103.295530382311,31113.89458989707" stroke="red" stroke-width="3.58733146769275px" fill="none" stroke-linejoin="round" vector-effect="non-scaling-stroke"></polygon><polygon points="4561.208646826795,32141.221929779684 4562.637331626844,32184.20160919102 4568.550717724487,32226.796536908252 4578.884142933413,32268.54020919453 4593.524302791222,32308.97480266192 4612.310706915683,32347.657687151514 4635.037717902334,32384.164971194812 4661.456590222311,32418.09652692679 4691.277217848925,32449.080716453493 4724.173377137864,32476.778227721574 4759.784474453307,32500.885317138047 4797.720206506667,32521.137941414898 4837.565220693476,32537.31411224004 4878.882901617908,32549.236845298845 4921.220613973332,32556.77562991291 4964.11407160887,32559.847308876808 5007.094036764582,32558.418739430374 5049.688941511209,32552.505309192813 5091.4324608001625,32542.171826271107 5131.867007715628,32527.531634977786 5170.549850168987,32508.745142229018 5207.057188693318,32486.01805058337 5240.9888167823665,32459.599297449517 5271.973072497873,32429.778699901246 5299.670333724585,32396.882526207773 5323.7773872355465,32361.271438695607 5344.030050133355,32323.335472701176 5360.206373831141,32283.490496294457 5372.1292654934805,32242.17288986256 5428.980726044509,31993.245232927555 5436.519404942286,31950.907831452263 5439.591150080203,31908.014189859794 5438.162465280155,31865.034259145556 5432.249079182278,31822.439267012 5421.915653973469,31780.69578607619 5407.275494115544,31740.261280889332 5388.488798719947,31701.578464963764 5365.761787733412,31665.071137323917 5339.343206684454,31631.139423063665 5309.522287786705,31600.155308218556 5276.626419769018,31572.457876394154 5241.015322453459,31548.350917754986 5203.07929912908,31528.098164960335 5163.234284942388,31511.921793119574 5121.916604017839,31499.999141503766 5079.579182933434,31492.460624204366 5036.685434026644,31489.388830438606 4993.705760142184,31490.817331580212 4951.110855395556,31496.73067856737 4909.367336106836,31507.064106430043 4868.932497920119,31521.70442927128 4830.24965546676,31540.490938777744 4793.742608213448,31563.21808585251 4759.810980124632,31589.636681504897 4728.826724409126,31619.457472954353 4701.129171911278,31652.353534301976 4677.022118400084,31687.964734064706 4656.769455502275,31725.900422505103 4640.5931318044895,31765.74538050295 4628.670531413518,31807.0630968748 4564.280391964479,32098.328241172654 4561.208646826795,32141.221929779684" stroke="red" stroke-width="3.349008086247666px" fill="none" stroke-linejoin="round" vector-effect="non-scaling-stroke"></polygon><polygon points="5101.181304888916,34936.17477077851 5101.578598684631,34940.83629323362 5102.779800746823,34945.35769171361 5104.748502186732,34949.60152707703 5107.42440988461,34953.438933942234 5110.726841742289,34956.75287132966 5114.554726684466,34959.44225985295 5118.791556266835,34961.42582326027 5123.308879929013,34962.642974326096 5127.9686351645505,34963.05647430848 5132.62314752012,34962.65509262681 5137.13726720016,34961.45242444106 5141.374388053315,34959.484526258486 5145.205476977746,34956.81109863473 5148.514608071302,34953.51371342334 5151.201292800135,34949.69197217765 5153.184266524506,34945.46173358563 5154.402944853413,34940.95186300372 5154.82062762673,34936.29891280865 5154.424498915672,34931.644167086575 5153.226500835735,34927.128617004724 5151.263333546813,34922.88970932306 5148.594416355598,34919.055434396374 5145.30072263116,34915.74255203764 5141.4818670934765,34913.051565838745 5137.254066915601,34911.06406206399 5132.7457726577995,34909.84034417267 5128.093007928925,34909.41736306809 5123.431213795673,34909.80930782948 5118.908355982276,34911.00553646049 5114.662205724628,34912.96939369233 5110.822087395703,34915.641167256515 5107.504509440041,34918.93986204709 5104.810542933526,34922.76467885537 5102.822326329071,34926.99944897072 5101.600152746891,34931.51529522467 5101.181304888916,34936.17477077851" stroke="red" stroke-width="3.1791426999842454px" fill="none" stroke-linejoin="round" vector-effect="non-scaling-stroke"></polygon><polygon points="7549.13411441783,40506.25674851518 7640.102160213399,40899.47970989859 7906.778338702396,41156.88035047572 7984.907736462308,41196.459085989685 8458.190669653472,41196.397367344354 8901.053830542369,41463.55543728848 9690.42825130676,41939.74661724124 9696.065803662292,41943.14737919113 11274.195694079972,43545.084521940385 11273.806847146829,44738.74121023703 11273.775098595652,44836.36040866253 11273.775098595652,45255.98533221369 12341.76897848898,46086.01829765446 12365.075618986739,46086.01185439312 12941.538430577843,46085.85545886046 13180.798715733457,46085.84960134956 13797.195670471294,46085.83466469665 15982.695441351156,48232.334535261034 15254.873014328885,48939.02013175463 14283.820568177733,49888.95961062098 14283.819111822406,50174.87152566295 14287.548255857779,50376.28706754855 14283.81678165344,50639.79957508907 14436.95285959111,50648.97888017405 14450.635028764606,50702.591435494716 14463.878834915697,50786.10172494099 14470.683510613395,50875.99363195867 14471.048473315663,50972.26756385306 14470.343014684506,50984.19094891392 14495.348057031166,51044.82398686756 14503.466947982437,51068.389504846826 14503.646662257728,51068.91059680068 14503.440151040093,51068.69941436994 14503.02013809781,51073.51571243565 14501.631066169008,51086.25406817836 14501.102409102372,51090.288406027656 14607.78482261335,51164.24588732462 14893.728002560092,51294.02851318137 15001.51841137791,51303.79302165512 15294.56394609774,51231.00782500912 17065.25404188456,50134.728922529146 19485.07705258683,48942.175070413796 23246.701603555703,46385.51473763288 23941.578937742277,45414.995535318216 29370.738755413448,46190.359997041465 29485.30558663106,46270.02288051875 32359.124140088912,48337.17883264844 32525.603638897883,48444.80818828079 32627.26482972456,48490.91290697025 32771.9662788267,48524.208256974176 33025.670115840156,48527.37968497345 33189.25234090665,48492.09797376086 33282.669102933374,48448.01367920998 33439.97880462231,48370.173363678914 33578.939008853515,48260.74571381946 35650.895475200145,45713.39732016681 35719.47642339568,45621.37221379951 35817.55410574225,45436.42401241523 36958.48722346674,42581.807569488185 37007.62174720003,42431.02127573342 37023.8583640178,42294.209256230155 37001.87729834684,41790.71935321455 37009.61608049786,41712.472670284624 37008.32633201778,41674.209214526636 37000.07141745789,41591.02299031819 36918.12869831128,40919.032284862304 36653.770164053305,39463.16592778324 36266.73930609785,37508.12063745962 35742.943263004534,34692.523969466856 35150.049556764425,31907.13377096335 33974.22449009784,27868.782573869335 33820.84578332456,27521.274999395187 33785.42080824904,27467.481524968985 33708.244740835624,27355.512688999996 33552.05614165333,27164.27107037627 33461.130038897856,27064.646750153217 33346.41698958224,26923.880393364874 32852.25050026679,26388.094899687218 32632.691501795547,26200.132480702887 32449.702465137816,26015.44748485234 30189.958270577947,21756.792431432637 30086.238375537912,21642.86159642064 30042.320226133335,21606.24704910291 29957.44848469342,21551.97238487535 26245.533426631126,20502.058808021888 24365.34752967127,15408.903985472221 24873.150167324464,14136.078543267387 24914.032106666826,14015.016969667107 24966.30099882686,13836.929159542662 25126.43748664891,13308.167822022573 25157.18989056023,13170.513881000748 25170.36961706681,13057.754565902404 25170.047762488946,13009.01971214771 25169.64435200009,12947.92411873641 24777.116625635652,10296.913524341944 24619.47079708439,9245.650703935127 24178.320601600106,4797.395634196757 24115.905280284467,4170.698785603687 23510.540510151186,498.89662394300103 23469.157001955668,381.8895521708182 23399.748261262313,271.9710952275782 23335.249186417786,189.83766885957448 23263.161334044533,135.650728853303 23114.10246912006,57.08861089410493 22975.592570026754,14.513277606631164 22964.82864611561,12.709503281337675 22954.0347212801,11.094260974612553 22943.21429077338,9.667552676517516 22932.370558577823,8.430318155849818 22921.506728675682,7.382871615642216 22910.626296320115,6.5255270267953165 22899.732465493376,5.8582854544511065 22888.82873144897,5.381460400123615 22877.91829816904,5.0953651297604665 22867.004369635717,5 22715.04386190232,24.214579119055998 22533.010777031188,91.249511422473 22429.60865877336,154.59853604191449 22346.797369173495,253.26749718521023 22293.938944284455,346.6507343602716 22258.58125283569,479.61718992871465 21790.57906488888,1706.1234588985099 21056.02740138676,3851.883566856908 20212.79025294236,6365.896501177514 18293.303727502353,8490.644877397746 18231.93523456005,8636.316530313285 17626.252105102292,11079.388992331456 17607.288316871272,11209.848213780264 17583.88147911115,11531.285881438758 16709.5124004978,13516.179108139593 16010.023079537903,15154.571026984253 15970.883815253503,15271.339952248323 15939.850917262374,15446.91756502603 15870.057698702323,15850.720675334102 15862.003178666695,16563.518720051332 15959.482007608982,17007.364342160814 16648.32303928898,22753.35144983983 16211.672691200161,27169.81798859028 14479.579221617896,30469.687302909733 12687.522933475673,33996.83904774068 9848.123887217836,36727.068886823254 9399.970660408959,37182.75728051079 9017.530235164566,37654.11654737446 8681.749985564384,38131.814916861884 7927.343244231306,39390.52454714134 7640.31071032898,39868.447426939325 7606.923759217956,40012.89662609232 7606.628701582202,40014.17338296882 7586.400505457772,40110.013023782405 7549.13411441783,40506.25674851518" stroke="red" stroke-width="3.3283382805695094px" fill="none" stroke-linejoin="round" vector-effect="non-scaling-stroke"></polygon></svg>