<svg viewBox="0 0 99.00894099556832 73.22570744543852" width="99.00894099556832" height="73.22570744543852" xmlns="http://www.w3.org/2000/svg">
  <title>Brandýs nad Labem-Stará Boleslav, okres Praha-východ, Střední Čechy, 25001, Česko</title>
  <desc>Geojson of Brandýs nad Labem-Stará Boleslav, okres Praha-východ, Střední Čechy, 25001, Česko</desc>
  <metadata>
    <collboard>
      <support-module name="@collboard/map-svg-geojson-import" version="0.11.1"></support-module>
    </collboard>
  </metadata>
  <polygon points="8.052550000000004,56.34317058989075 11.691618444463195,58.87307338431822 11.852837004472924,59.13968923786126 11.38447305779085,62.27190117666726 11.00480116447546,62.4721064782276 13.109307760030454,64.8730346711742 13.570681200020438,64.94783815410449 18.81996916444735,60.938544608412144 19.05320450667171,60.74106225930848 23.574460328912785,62.63502143471089 23.973720204470403,63.29349756507838 38.807356897806706,52.10002339789173 39.204941964453276,51.882382183706454 45.47739252445866,64.91373323543633 45.7508960978081,65.1731574454385 52.43564091556585,63.49222118307773 52.580329840020234,63.49415384628048 52.549527920003705,60.57041055504635 58.82955152891339,56.00797890796787 58.81396852446017,55.787738199978435 66.50964255113615,53.63269772587921 66.48073389335298,53.22130530152174 70.1995378044445,56.704738674328496 70.39862160891755,56.731344532650496 76.92462367114024,48.573878183545844 76.94610491555761,48.55033869791771 77.79668937778445,43.88272338758509 77.78438317334042,43.82381270801818 87.70478594670533,44.02203892959335 87.75539430225729,44.02965862649546 90.45190943111777,40.92039233884827 90.95639099556831,39.92385183042609 84.28133094224142,26.6539717481279 83.60936848892709,25.959442953396888 88.10098747557606,22.740604089478097 88.43857069334592,22.368570331491014 81.40888806223631,20.99634671545175 80.83588496890263,20.634085727469596 66.96839455114207,8.124700536361729 66.90038274668734,8.052549999999997 66.37558502224385,12.75396983804933 66.49340418668692,13.730754404743152 59.77763899556124,17.91181732716325 59.64613008889831,18.370241135307538 53.211004613352664,12.480867561265427 53.13461876445911,12.52376746819175 55.23621264889483,15.92925193101803 55.222741359997265,16.36106684855588 51.30070303113428,20.171129960806525 51.23028824001779,20.2243774703162 51.934072062234584,23.829044180710866 51.84028276446737,24.252149894098352 42.757211617783135,26.953509435050023 42.58594420445264,27.043609319960183 40.160748115573035,31.821191864633533 39.99210214222661,31.933465346235266 33.012663777779046,34.02396200154146 32.746369164444,34.350644599347675 24.325138799998633,32.983842480425324 24.035251226690555,32.92810497961875 23.33736564446702,36.62337745982916 23.10048941334356,36.70254205722415 16.213602444454985,35.472179232797885 15.141142213345695,35.054734463664886 12.999498551136305,39.43797199118819 13.026441128902327,39.530780835637074 19.36005862223795,44.235276312094015 19.361005253340075,44.30749251587952 14.027175848903092,45.730757631179245 15.766137200007172,49.142575409488586 12.383969875583382,47.42930152880547 10.49041638224265,48.735242788483106 12.614292506688464,52.266949297299675 12.919835902233565,52.70768578725222 8.052550000000004,56.34317058989075" stroke="#009edd" stroke-width="5.306746693679241px" fill="none" stroke-linejoin="round" vector-effect="non-scaling-stroke"></polygon>
</svg>