<svg width="875.2444285156671" height="973.2672468274832" xmlns="http://www.w3.org/2000/svg"><polygon points="5,355.5747738169739 5.084468622342683,356.09727799799293 6.19421155564487,357.5304255146766 6.205862400121987,357.52544932521414 6.3107200000667945,357.4906159961247 8.434086400084198,356.59987600625027 8.454475377802737,356.69442400924163 9.004977777833119,359.58060530852526 17.684856888954528,362.924544068228 25.29868373333011,365.59667036577594 34.907717688940465,369.45302984304726 38.31267697783187,369.83617387118284 38.86609208898153,369.79636673268396 38.89521920005791,370.16458247049013 39.13114880002104,370.31883481360273 42.871069866698235,369.03007781493943 43.74488320003729,369.0599332807469 44.24586951115634,369.8710051110829 46.36049777781591,378.76770594361005 46.814880711142905,379.747911768849 47.103239111136645,380.0713289104169 47.38285937788896,380.37981863343157 49.293597866781056,381.84265070362017 52.56165973341558,384.5991155374795 57.638515200000256,389.42035247024614 61.299793066689745,393.23148771806154 61.92020053335,393.4155747098848 64.6464981334284,393.1867097762879 64.68727608886547,393.6046368544921 66.09702826663852,393.50015516451094 83.23250773339532,401.6794184735045 96.45039075554814,407.98777669947594 105.56717653339729,409.25141512264963 105.80310613336042,409.37578856386244 105.03706311120186,410.8035902865231 105.56135111115873,411.06725990463747 94.80762168893125,428.6925593063934 94.88626488891896,428.85671672952594 94.09983288892545,430.07545714173466 93.5871957334457,430.48336048447527 90.38321351120248,435.88054203416687 90.1268949334044,436.4525852415827 89.9404814223526,437.05447246547556 89.86475093336776,437.3728253269219 89.54144000005908,439.9842950612074 90.10941866668873,440.51653340051416 89.80940942233428,440.8945710113039 89.14822400012054,440.72544900805224 88.9763740444323,440.9990286498796 88.69675377791282,441.24773709953297 88.34140302229207,441.4516778041143 88.18120391119737,441.50141940871254 87.91614720004145,441.5859801089973 87.61613795568701,441.6406958377338 88.21615644451231,443.7845461249817 74.1681507556932,447.6245191404014 72.79102094226982,448.2318451003521 72.50441016885452,448.30098365049344 74.48068465781398,453.3579828478396 70.47483306669164,454.9660298395902 66.84180849790573,457.0485638353857 73.72541866672691,465.07659246388357 74.05338993784972,465.6391047590878 81.13156920892652,479.6705786131788 81.47526912007015,480.51403801277047 82.18189283565152,482.60725457809167 82.92842069338076,484.4517938987119 86.12774257780984,483.1657404573634 90.24806371564046,480.9233333982993 92.60153429338243,491.4264797808137 87.68895573343616,494.0317938113585 88.35305386665277,494.9816137844464 88.57150720001664,495.45900855609216 88.72005546663422,495.9911035076948 89.56765440001618,503.2662451522192 89.5793052444933,504.0867337191594 89.44240782223642,505.28016579838004 94.10274560004473,508.58693104883423 96.15329422231298,505.85201621835586 97.91839715559036,507.17472501762677 97.52809386677109,507.7465701760375 97.64168960007373,507.82115855789743 97.85431751119904,507.97033524059225 98.14558862231206,507.5775030772202 98.3555950934533,507.7664604138117 101.18063359998632,510.30742249195464 105.57591466663871,514.2704651390668 105.94582897785585,516.3290293372702 106.1642823111033,516.2494716829387 106.33321955567226,516.602508539625 107.31771591119468,518.6312156452914 107.5682090667542,518.5019358868012 108.21191822225228,520.2472057782579 113.82179982226808,519.1035833036294 114.8246462577954,524.8017435725778 116.84956302226055,524.7917992766597 116.81694065779448,529.6942789284512 116.76363804447465,532.1554189269664 116.6911115378607,534.5469227468129 117.19996216893196,534.5454311730573 117.20811776001938,534.4320715350914 117.59463452454656,534.4275968112051 117.59754723566584,534.2665066884947 118.06969770672731,534.2699870319921 118.28815104009118,534.493723275722 118.72913550224621,536.1742232920369 117.2646243555937,538.5890479714144 114.95251427567564,539.6639515578281 114.55871573335025,539.8469133116305 115.368449422298,541.0003641034709 116.37624746677466,542.4421685078414 115.49078328895848,542.7305281773442 114.46259626676328,543.0686045169132 116.60052622226067,549.5366934782942 116.17235768900719,549.6758968490758 105.81766968895681,551.6446201612707 105.69271438231226,551.6674890589202 106.97401600005105,559.4601666111848 107.2288782222895,561.041534593387 108.44114858668763,570.8829284056555 108.47406222228892,571.13694815489 108.43910968897399,571.599253352615 108.43037155561615,571.7434128256282 108.17405297781806,571.7036447052378 108.08667164447252,571.6887316580978 108.10414791118819,571.7483838401386 107.81608078232966,573.1502051444841 107.75753528892528,573.1407602811232 107.67889208893757,573.6279158275574 106.82255502219778,581.4814001390478 106.90148949343711,581.4863709184574 106.75556266668718,584.3942563413875 106.69730844453443,584.3942563413875 106.41069767111912,589.8341286684154 106.04486115567852,589.7675229134038 103.77294648904353,590.1552277523442 102.4389248000225,590.4534617470345 101.30005475564394,590.582696344005 97.66790400003083,590.1999628790072 95.43094186671078,589.8470521706622 95.09306737780571,589.717817112105 94.20760320010595,589.1263171551982 93.0396060445346,588.485109400528 92.63182648899965,588.2962261154316 89.57056711113546,587.4760729998816 88.15207680000458,586.9094198487 87.67147946672048,586.8000655523501 87.03942115558311,586.7553296870319 84.21991680003703,586.5664448154857 82.31791644450277,586.7205351184821 78.74110720003955,586.6807698900811 77.04590933339205,586.3626477861544 75.9449045334477,586.0097305022064 74.6196209777845,585.4530146839097 72.8865578668192,584.319695689599 68.70681742229499,581.7349097387632 68.16796586674172,581.4963124770438 66.21353671117686,580.9097597002983 66.05333760008216,581.0191171243787 65.98343253333587,581.0638542355737 65.95721813337877,581.4068384326529 66.7553009778494,599.7631157959113 67.65824142226484,599.8575522019528 70.4690076445695,602.6011594133452 72.32731733331457,605.4988063311903 74.21475413336884,608.0137121197768 74.44777102221269,608.570366957807 74.69535146676935,609.5544495084323 74.69243875565007,609.9073264494073 75.2079886222491,610.1856514975661 75.55168853339273,610.3347540472168 81.52274631115142,611.8456537947059 83.25872213335242,613.2472022037255 86.9607779555954,615.1308284829138 90.23757795558777,617.2480237376294 96.72127288894262,621.0996729093022 98.16889031114988,621.8451450747089 99.37766542227473,622.3769135706825 101.61754026671406,623.8429971731966 102.49717902229168,624.5387620112742 103.12923733342905,624.8270067556296 104.32636160007678,625.0953721894184 105.35746133339126,625.5824048615177 105.49727146676742,626.2980426168069 110.32567267562263,646.651429070218 110.40489841788076,647.1235031892429 110.51995050674304,647.7719821886858 117.85590471117757,643.2191692366032 118.3743672890123,649.7437433410669 116.0878890666645,651.184786680853 119.67052373336628,658.2705979577731 123.10461013333406,656.9538281864952 123.67841422231868,660.3028789325617 123.81822435557842,661.0929289603373 122.5541077334201,660.9985206258716 121.50261902227066,664.8940706945723 118.25785884447396,663.2096518353792 118.10348515561782,663.3040591564495 118.25494613335468,664.6804136079154 118.40349440008868,666.0468213852728 117.93746062228456,666.7821934556123 117.45977600011975,667.7610292332829 115.45291804452427,668.4367710155784 114.88493937777821,668.4516770592891 114.82377244450618,668.5262072618352 116.78111431119032,673.4550781290745 117.65318001783453,685.2153248582035 117.70153102220502,686.1493587680161 119.85111182229593,686.4474538052455 119.93849315552507,686.2884698390262 120.68123448896222,686.3629935884383 120.77152853342704,686.5915329185082 121.94243840011768,686.7654213694041 122.07059768901672,686.6362471057218 122.20166968903504,686.611405891832 122.74343395559117,686.7008342476329 122.82790257781744,686.7554848904838 122.9531491555972,686.9194367318996 125.97654328902718,687.3665774544352 125.99401955562644,687.202625968901 126.66976853343658,687.2920540680643 126.76880071114283,687.3417363286717 126.82122951117344,687.5205923674512 127.63387591112405,687.699448251049 128.36496640008409,687.7739714899799 128.50186382234097,687.6398296403931 128.6038087111665,687.6249249850516 129.13974755560048,687.7093846844509 129.2154780444689,687.7739714899799 129.3232483556494,687.9279860984534 130.86698524456006,688.1913011299912 132.18935608898755,688.3502836276311 132.20391964458395,688.2211103576701 132.3175153778866,688.1565236923052 133.0660821334459,688.3204744186951 133.11851093336008,688.4844250146998 133.98358613345772,688.6881210277788 134.79623253340833,688.7527075264952 134.92730453342665,688.5837889485992 135.02051128889434,688.5639161656145 135.63800604443531,688.6881210277788 135.68752213346306,688.7427711433265 135.71082382230088,688.9216259657987 136.3778346667532,689.1302897289861 139.01092551113106,689.492966719321 139.09248142235447,689.2246851715026 139.6225948445499,689.2793351447908 139.95755662221927,689.5525847936515 142.44792462233454,689.9450700185844 142.5061788444873,689.8109295828035 142.60229831119068,689.7811205851613 143.21979306673165,689.880483893794 143.28678542235866,689.9500381812686 143.3217379556736,690.0941148449201 145.64899413345847,690.4617582885548 145.73055004444905,690.3226500357268 145.82084408891387,690.3027774203802 146.35678293334786,690.3772997176275 146.46455324452836,690.4567901383853 146.5140693334397,690.6058345943457 148.18596551113296,690.8592099221423 148.23839431116357,690.7201019376516 148.33451377786696,690.6753886368824 148.94618311116938,690.8045603679493 149.02773902227636,690.8989550432889 149.06851697782986,691.0231584975263 151.08411306666676,691.3311827409198 151.20935964444652,691.206979472423 151.25887573335785,691.1572981440695 151.87054506666027,691.2616289197467 151.91423573344946,691.3063420932158 151.934624711168,691.4454496818944 153.16087608900853,691.6541108887177 154.124983466696,691.7683776504709 154.11915804445744,692.2304121715133 154.06672924442682,699.4539139147382 154.02303857787047,703.9051341139711 158.99212373339105,705.609091390972 161.78832640009932,706.5728394126054 162.8835057778051,706.9603244598256 163.13108622224536,707.049743982614 163.16021333343815,707.0596794827143 163.1922531556338,707.0696149823489 164.45636977779213,707.5216797098983 169.3089464888908,709.2405101668555 169.4167168000713,709.2852194382576 169.39341511123348,709.3497994798236 169.3380736000836,709.3249610046623 166.41953706671484,713.2394677296979 166.00010666670278,713.8504817383946 163.66411235556006,717.1688025956973 163.43983360007405,717.7996749156155 163.37284124444705,718.0927566747414 163.2184675555909,719.6575081638293 163.1776896000374,721.1179321646923 163.23885653342586,721.7736293689813 163.25633280014154,722.0468359214719 163.26215822226368,722.5932479396579 163.23594382230658,722.8763881427003 163.22138026671018,723.1942994857673 162.93010915559717,723.3631896873703 162.57184568897355,723.5469818081474 162.27474915562198,723.9195329013746 162.14658986672293,724.2275079630781 162.07959751121234,724.7838488431298 162.0854229334509,725.3699920736253 162.1524152889615,725.9958719871938 162.2164949333528,726.3982223562198 162.36213048896752,726.999262801779 162.4436864000745,727.7344173263991 162.34174151124898,728.4198968847049 162.36795591108967,728.5142743263859 162.50485333346296,729.1252430349123 162.54271857789718,729.3885054157581 162.55728213337716,730.1186842210591 162.55728213337716,730.1534545758041 162.54271857789718,730.5408952746075 162.47572622227017,730.868729142996 162.36795591108967,731.0723832530202 162.16989155556075,731.2462341633509 162.02716871118173,731.3306759811239 161.87862044456415,731.3654461313272 161.74754844454583,731.3753804588923 161.0688867556164,731.1816609852249 160.88829866668675,731.2313326625153 160.82421902229544,731.2859714936931 160.69314702227712,731.3952491126256 159.4377685333602,732.7711487185443 158.9076551111648,733.1834200964076 158.7066780445166,733.3622363412287 157.74839608895127,734.6487153052585 156.67360568896402,736.302747883834 155.8988245333312,737.5991425143438 155.6599822222488,738.0064372275956 155.54347377782688,738.4236651234678 155.50560853339266,738.8706940742559 155.65124408900738,741.1703943471657 155.66580764448736,741.2200636162888 155.64541866676882,741.5329797365121 155.75901440007146,741.6720534151536 155.84057031117845,741.8756968466332 156.90662257780787,742.3276852072449 157.72218168899417,743.80284911138 158.89891697780695,745.5909124106402 159.46107022231445,746.2614321472938 159.6940871111583,746.5544734209543 159.99700906674843,746.9468500670046 160.0669141333783,747.0213518774253 160.1863352889195,747.1554550682195 160.2154624001123,747.195189330203 160.30284373345785,747.3292924078996 160.27371662226506,747.572664437117 160.0144853334641,748.2580779948039 159.64457102236338,748.7845535269589 159.39699057780672,748.9931566675659 158.99212373339105,749.2216265316238 158.639685689006,749.5146635950659 158.48239928891417,749.7182992751477 158.32511288893875,749.9567017667578 157.969762133318,750.5378066843259 157.9581112889573,750.5527067889343 157.84742826677393,750.6917743793456 157.2241080889944,751.471544486878 156.66778026672546,752.1420450858423 156.37068373337388,752.5642110102344 155.7823160890257,753.2794077786384 155.26385351119097,753.6966047470341 154.03760213335045,754.1386339466553 153.55700480006635,754.292598950793 153.09097102226224,754.4415972323623 152.59872284450103,754.6849608605844 152.17055431124754,755.0375892811571 151.88510862225667,755.1865870239562 150.7083733334439,755.4597492726753 150.5306979556335,755.4547826895141 150.05883875559084,755.1667206644779 150.00640995567665,755.429949772195 150.1578709334135,755.9017746896716 150.14913280005567,756.2047353828675 148.8471509333467,765.3777769042645 148.9024924444966,765.5615315495525 152.70649315568153,767.0514280280331 153.86283946665935,767.6126195751131 155.06870186678134,768.3078990178183 157.4746012444375,769.4749699509703 158.2901603556238,769.976560108189 159.37951431109104,771.0889933275757 159.79020657786168,771.9481452303007 160.15720817784313,772.4348308457993 160.6407182222465,772.8321243735845 161.4970552889863,773.2741125230677 161.94561280007474,773.6565059998538 162.26018560002558,774.0190342251444 163.30293617781717,774.8831400254276 164.0748046223307,775.210903346655 165.44669155555312,775.5734288370004 165.6214542222442,775.5734288370004 166.14282951119822,774.1928489013808 166.32050488889217,774.1779505063314 167.95162311114836,775.0172250835458 169.5507015112089,775.7671065774048 170.26431573333684,776.0849363207817 171.2342485333793,776.6461032645311 171.60998826671857,776.8397799966624 172.53623040008824,777.2420310891466 174.05375288892537,777.8429232338676 175.454766933457,778.2700025357772 175.87711004458833,778.493473910843 177.75289600004908,779.8839570205309 177.98008746677078,780.13722257677 178.03834168892354,780.5791950566927 178.81021013343707,782.6996565787704 179.2179896888556,783.6779417750658 180.02189795556478,785.9225176665932 180.28986737783998,786.6723594740033 180.4355029334547,787.9535398241132 182.08409742231015,788.0329926067498 182.40740835561883,791.5288847136544 184.90651448897552,791.4196389830904 184.12590791110415,794.9899581023492 184.05017742235214,795.675213944749 184.2424163556425,797.8749691123376 184.35892480006441,798.3318001977168 184.43465528893284,798.6247674261103 184.45213155564852,798.7538714961847 184.74048995564226,800.9635247715632 184.85117297782563,803.1185345810372 185.258952533477,803.2128778134356 189.63967004453298,805.0103564130841 189.9688064000802,805.1195949387038 190.676595200086,805.0798718451988 193.1757013333263,806.4552794996416 194.60875520005357,807.4185559285106 195.25246435555164,807.9895681806956 195.56994986673817,808.3818278544932 195.80005404446274,808.7542255880544 195.97190400003456,809.3401299931575 196.1816192000406,810.8396404592204 196.22530986671336,810.8048837176757 196.76416142226662,813.6946384992334 197.4486485333182,816.445329631737 197.97293653339148,816.4552598581649 198.2904220444616,816.465190084069 198.01662720006425,816.589317867416 197.39039431116544,816.9468054659665 192.69801671116147,819.9010195207084 189.86977422225755,822.9892450709012 188.89401600009296,825.0943755111657 188.64643555565272,825.5511462579598 188.16292551113293,826.0724594601197 187.2861994666746,826.4994388147607 187.00949191115797,826.6384551578667 185.15992035565432,827.0356441930053 186.32209208898712,828.0236485973 188.71051520004403,830.237952821306 188.77459484455176,830.6252053757198 188.97557191119995,830.9081971668638 189.36587520001922,831.2557304137736 189.21150151116308,831.3699197812821 190.90669937781058,833.6387997471611 189.08625493338332,836.2303563676542 188.68430080008693,837.640308349859 190.20473600004334,843.4885273163673 188.50662542227656,843.5034207012504 186.05994808895048,843.7218568883836 187.31823928887025,846.8891555843875 194.55632640002295,865.1076244204887 201.9750015999889,883.8257960426854 210.90246115566697,881.2944004801102 211.89569564454723,880.887388880481 212.87145386671182,880.683882779209 213.41904355562292,880.6193564124405 214.7967559112003,880.5597935945261 215.4899811556097,880.5449028873118 217.40363235562108,880.8129354520934 218.48133546672761,880.8675346355885 219.41922844445799,881.0561498851748 220.3396451557055,881.5177601627074 220.49693155556452,881.5574685253669 221.49599146668334,881.6517758561531 221.81056426663417,881.7808279229794 221.88629475561902,881.8453539260663 222.01736675563734,881.9595152666443 222.17756586673204,882.2672542177606 222.4775751112029,883.7513436757727 222.55330560007133,883.9449197737267 222.64068693341687,884.0888608569512 224.12616960005835,885.7814019154175 224.24267804448027,885.9898664216744 224.26306702231523,886.2281113134813 224.22228906676173,886.5308804661036 223.8115967999911,888.6006183346035 223.90771626669448,888.58076483279 223.48246044444386,890.2335623209365 223.28730880003422,890.2633423343068 222.27951075567398,890.7596752569661 221.56007111119106,890.84405173501 218.99979804456234,892.2883731490001 211.97725155565422,896.6113503010129 212.00346595561132,896.8495829156018 211.5374321778072,897.1175942778355 210.79760355560575,897.3756789640174 209.57717760000378,898.2144519621506 204.26439253333956,902.1154460228281 201.0545848888578,904.4629552114056 201.06041031121276,904.7607345929136 200.50116977782454,905.1726620282279 200.2419384890236,905.0932543940144 196.7670741333859,907.6938385129906 197.99041280010715,911.0189650660614 194.49515946675092,913.6145116497064 198.9050040889997,919.6094541666098 195.83791928889696,923.2768040709198 197.73700693342835,924.735785755096 198.85548800008837,925.8176090439083 201.10701368900482,922.5671595868189 201.471102577867,921.6639721643296 201.55557120009325,921.1081625527586 201.93713635555468,920.4729497327935 202.068208355573,920.3488845004467 202.38278115564026,920.1106790449703 202.76725902233738,919.7235945925349 203.0177521777805,919.435762092704 204.08380444452632,917.5648410463473 204.54692551121116,917.3464831066667 205.6624938667519,917.3315950569231 206.09940053336322,917.2323413643753 206.367369955522,917.1727891258779 207.1974926223047,916.904803839745 207.58197048900183,916.8303634206532 208.318886400084,916.6864452009322 208.58103040012065,916.5772657947382 208.9101667556679,916.3837203416042 209.3325098666828,915.9867034589406 209.3325098666828,915.7733065685024 209.13735822227318,915.2125183380558 209.1606599112274,914.8998658304336 209.27425564453006,914.7956482224399 209.63834453339223,914.5623990994645 210.64905528898817,913.9767937550787 210.83838151115924,913.8676129136002 211.2985898667248,913.8030969346873 212.23648284445517,913.485479513125 213.16563768894412,913.2671172518749 213.25301902228966,913.1827499526553 213.67244942230172,911.3862145601306 213.81808497791644,910.9941508874763 214.31033315567765,910.3688326005358 214.47053226677235,910.2447612863034 215.00938382232562,909.7683267456596 215.15210666670464,909.9172126579215 217.67742720001843,907.9171695887344 220.55518577783369,905.6391812620568 220.76490097783972,905.4704403844662 221.92416000005323,903.7879870204488 221.900858311099,903.1676098955795 221.83095324446913,901.3461718678591 221.87755662226118,901.2171320510097 221.98532693344168,901.2022428360651 222.15717688889708,901.1724644032074 222.59117084450554,907.1181395129533 222.80671146675013,909.2124850563705 222.436797155533,915.0288970815018 222.31446328898892,921.0188358682208 222.31446328898892,921.0337236516643 222.25912177783903,923.5150058676372 222.2241692445241,925.4057228647871 222.08435911114793,929.643644942902 221.99989048892166,931.3358119704062 222.13096248893999,935.6083478389774 220.66586880001705,937.0722044518916 224.3591864889022,945.7558858712437 235.2818531555822,958.7509520405438 236.88093155564275,958.7608754130779 238.96643271122593,959.4852803139947 239.21692586666904,959.8127501872368 239.1324572445592,961.2764349281788 241.12766435567755,962.6061462939251 241.1480533333961,962.5664535415126 247.6637880889466,965.0422743430827 258.74374115560204,966.0544249857776 260.2816526222741,964.6900050613913 262.2448199111968,965.07204355055 264.3215829334222,965.801387790998 265.5070563555928,966.6547668916173 266.3371790222591,966.8333806749433 266.92845937784296,966.8184961988591 267.5779939555796,966.5555369451758 268.0061624889495,966.1586166815832 269.66932053340133,963.1965750833624 269.91981368896086,962.9981118133874 269.9576789333951,963.0229197326116 271.1577159111621,961.0035453409655 271.5975352890091,960.5321897484246 272.01696568902116,960.3486088576028 272.44513422227465,960.27914577513 276.05107057781424,961.7725968885934 280.97937777789775,960.2344909241656 282.4182570667472,959.9516766428715 286.367893333314,959.4852803139947 287.8912412445061,960.8993510395521 288.4766961778514,962.5366839722265 289.8573212445481,963.8911950236652 290.0146076445235,965.860925982357 290.36704568890855,967.7909463742981 290.5185066667618,968.0191738121212 291.1651285333792,968.2672468274832 293.2156771556474,957.3567134583718 296.4033481955994,957.1195431097876 296.970161777921,957.1284742157441 302.51887644454837,955.505983620882 305.1170147556113,952.7323386256467 305.7752874667058,952.365162787959 307.03357866674196,952.0376810836606 313.9163150222739,951.9384441009024 317.0533048888901,947.1005832557566 320.973814044497,946.3513249095995 327.7283911112463,942.585144026787 332.56057884451,939.0620403307257 335.26648746675346,936.7347740189289 335.79077546671033,936.4271163782105 343.66674631123897,935.2808395125903 343.958017422352,935.1220474095317 347.91347911115736,930.4673995419289 349.75722524453886,931.3506990086753 350.8582300444832,931.712949942681 351.2196974933613,931.7228746168548 351.2223189333454,931.7228746168548 351.4582485333085,931.732799290563 352.1514737778343,931.6931005929364 353.26704213337507,931.4251341840136 354.19328426674474,931.0876945069758 354.8894222222734,930.7949155160459 356.27587271109223,930.1547701720847 357.65067235555034,929.6634944900288 358.2710798222106,929.4600365414517 359.0575118223205,929.32108953438 360.17308017786127,929.2168792175362 360.5925105778733,929.2317664088914 360.61581226671115,929.1672552386299 360.68280462233815,929.2218416148098 378.88724906672724,930.5170232077362 379.1569661155809,930.663909188821 379.40571164456196,930.7998778753099 381.4416967112338,926.5967167945346 386.8768156445585,927.30634740612 392.4226176000666,928.0556749804527 392.7168014222989,926.6264915545471 392.83913528895937,926.5669420301565 393.570225777803,926.6463413923047 398.9150506667793,925.991295740183 398.85097102227155,925.1129358032485 398.93252693337854,924.7159357334604 416.7029774222756,927.182286286552 422.3769386666827,928.4625934490468 430.1742663111072,930.397926389589 430.5907840001164,930.581533955643 431.9015040000668,930.7998778753099 432.3762759111123,930.7849907971686 432.62676906678826,930.70559302927 433.66660693346057,930.0803345378954 433.6636942222249,930.1746196699096 434.7384846222121,929.6039458429441 434.8753820445854,926.7207782664336 435.2103438222548,923.0187518139137 435.3035505778389,918.1355482052895 435.2103438222548,918.1305855411338 435.2773361778818,916.1901747068623 435.7142428444931,911.0189650660614 439.6464028444607,914.8700893763453 440.4852636444848,911.0388164068572 440.94838471116964,907.202509294555 458.88194702228066,899.4105661319918 459.0246698667761,899.2070783192175 458.97806648898404,899.1574471149361 461.3988206933718,895.0112141036661 462.68944298673887,892.801080000354 468.959927466698,882.0637494790135 469.9211221333826,880.4158500465564 471.2213563733967,880.93454270449 472.207600355614,879.9443101339275 473.451619271189,878.7292212608736 491.1466305422364,867.7330361128552 491.6546073600184,868.9318091160967 491.46935893339105,869.1581605030224 491.67033600003924,869.5900144332554 492.05772657785565,869.6843272402184 493.8519566223258,873.3575293039903 493.7354481779039,873.5908250618959 493.9043854223564,873.8687941308599 494.30342684453353,873.9928873440949 496.17338737787213,876.5690455760923 496.1675619556336,876.8668652605847 496.3947534223553,877.3235212742002 496.82292195560876,877.2738847999717 502.20852480002213,885.0319206393906 502.14153244451154,885.8260728988098 502.29881884448696,886.0841717242729 503.04738560004625,886.0146836107597 504.51830471109133,888.4269001279026 505.0979342223145,887.9305615876801 547.5477859555976,880.395995756262 564.5259790222626,877.1051206982229 564.8085120000178,876.5640819110558 565.0884235377889,873.1470665213419 565.1641540266573,851.3242848367663 565.8139798756456,845.6659287541406 565.7271810844541,835.6033218061784 565.771163022262,832.6557869863464 568.7814499555388,831.4940385872032 570.248873813427,830.6783284258563 581.3294094222365,823.1282637820113 583.4061724444618,819.841439151438 583.9243437511614,819.0197248025797 584.1052231112262,818.714373922383 584.210080711171,818.719338980969 584.312025600113,818.5852823572932 585.6839125334518,818.6101076644845 587.1693952000933,818.7322481326992 587.4344519111328,818.7540943876957 587.4024120889371,819.0768228843808 589.1908167111687,819.1264733773423 589.1675150223309,818.8087100149714 588.9199345778907,818.2079373188317 588.949061688967,817.2248509471538 589.4413098667283,815.0451629214222 589.9976376888808,811.0630765152164 590.0180266667157,809.1961366920732 589.7937479111133,808.1732848297106 589.3888810666976,807.0908438343322 587.4868807111634,804.0222416648758 586.7062741334084,801.9615851117996 586.5460750223137,801.132351238397 586.7004487111699,799.185872988659 587.0674503111513,797.3684812901192 588.7073066667654,790.7145060558687 589.6859776000492,786.429033623659 593.743384177913,768.9237159936456 594.503601777833,766.1127945022308 595.4007168000098,762.0155345970998 596.271617422346,755.1667206644779 596.3764750222908,753.2049082310405 596.3823004445294,751.0195761853829 595.892964977771,747.1653886344866 596.0706403556978,746.4154030379723 595.7094641778385,745.0445613822667 595.9220920889638,744.0313247310114 595.9075285333674,741.8856306674425 595.5259633777896,739.9236917695962 594.7657457778696,736.4567262170603 593.9793137778761,732.7910172374686 591.2937941333512,724.3864626535797 590.4054172445321,722.2008249096689 589.438397155609,720.2337311150623 586.1441208889009,714.2031800566474 586.1353827556595,713.6766161480919 584.9615601778496,710.2439825896872 583.4877283555688,707.7054859637283 581.0672654223163,704.3373345241416 580.6798748444999,704.2677850939799 579.5934336000355,702.7078845648794 577.2487011556514,700.432594461483 576.8289794845041,699.819553485373 578.5215559111675,697.6753860956524 578.7021440000972,697.5859625038574 577.8108544000424,696.1054996199673 575.7428295111749,698.664010996581 574.7903729778482,698.390773433086 570.596068977844,694.8585243054549 569.0639829334104,693.4674672391266 565.9299057777971,691.0032859499333 564.7822976000607,690.342522648978 564.6803527111188,689.9102928769425 564.6745272889966,689.4432849775767 564.8988060444826,689.0160215039505 567.6280163555639,686.2934380898951 571.3766755555989,682.6168997348286 573.3514936889987,680.5202498340514 574.5398798222886,676.9678203696385 575.2010652445024,675.944311841391 575.7923456000863,675.3182798466878 575.6437973334687,675.1642558103777 573.5349944889313,677.221212472301 573.6398520889925,677.3553611064563 571.6359068445163,679.3874538046075 571.4990094222594,679.2632433347171 570.5989816889632,680.1525886476738 570.724228266743,680.2767985814135 570.2669326222967,680.7189853372984 569.876629333361,679.9339789825026 569.6931285334285,679.8097688420676 569.620310755563,679.8197056561476 569.3753517511068,679.7009606976062 569.2154439111473,680.2817669771612 569.294087111135,680.4407555791549 567.3425706666894,682.2740840303013 567.266840177821,682.2393055935972 567.1940224000718,682.2492422903888 566.7046869334299,682.7162664990174 566.6872106667142,682.7858232054859 566.7221632001456,682.8553798884386 565.6065948444884,683.8937590059359 565.3531889778096,684.1421742868843 564.1356757334433,685.2749441704364 563.5822606222937,685.8910093868617 563.3463310223306,686.0301206323784 563.1278776889667,685.9655332800467 562.9094243556028,685.9009459075169 562.3297948444961,685.5034847076749 561.7880305778235,685.1358324150206 560.0666183112189,683.8937590059359 558.3073408000637,682.199558801658 558.2112213333603,682.1051601399668 557.4539164445596,681.4195264572045 556.9412792889634,680.9624360675807 556.8422471111408,680.8730052204337 556.0907676444622,680.1923358346103 554.9781120000407,679.1936854388332 553.8281736534555,678.0166629109299 552.3764784355881,678.8081355329487 551.411497244495,678.911478877475 550.1663132444955,677.937664535013 549.2004582401132,677.2669223870616 547.1245690311771,675.7281819629716 545.7940425956622,674.9550810475484 545.0632433778374,674.442825565231 535.8547072000802,667.6144525981508 528.9550771201029,662.4235849873512 525.9427512889961,660.1712036334211 519.1977861690102,654.9160482609877 513.0146830222802,649.659268073854 509.21942044456955,646.0814602448954 509.37670684454497,642.8911958520184 510.2825600000797,639.2089133707341 515.1147477334598,630.303580256761 513.3059541333932,626.9788901174907 512.9622542222496,626.0346484542824 510.1310990223428,621.6861112391925 509.7844864000799,621.6562923813472 509.0271815111628,619.5192629951634 508.708239644533,617.7191712704953 508.37473422230687,615.4190863936674 510.0440089600161,611.9629468640778 510.228092302219,611.4560017625336 510.6151916090166,610.3894249550067 511.3713314133929,608.3059560974361 511.8562978133559,606.9814116213238 512.1959199289558,606.0678934320458 513.3391590400133,602.774124730262 513.3519749689149,602.7373447612626 513.0321592889959,602.5216350809787 513.1748821333749,602.3128835624084 513.3583829334239,599.4102214740124 513.4253752889344,592.4466478573158 513.0001194666838,583.1714582430432 513.1428423111793,581.6752604491776 513.4603278222494,580.5767162783304 522.5275975111872,576.600036796357 527.0714268444572,572.3200497087091 530.2783217778197,568.9198571927845 536.5756032000063,561.9850800288841 537.3358208000427,561.388529149699 541.2359409778146,556.9143424723297 542.9486151111778,554.9506409585592 544.7515832888894,552.5444596503512 546.2778439112008,552.1616554863867 546.0914304000326,551.1574126093183 545.3486890667118,550.7149476092891 545.3778161779046,549.9393886863836 556.344173511141,512.535089477431 561.2317027555546,494.51416366460035 560.954995200038,494.50919078529114 563.4249742223183,485.6075442758156 557.3519715556176,483.946524053812 555.6218211556552,474.18402959546074 554.2324579556007,466.34584879752947 553.923710577772,464.00328887830256 553.6149632000597,460.8599394230987 553.6470030222554,459.3379839939298 553.7693368890323,458.07465296814917 552.580950755626,453.89167877240106 552.5023075556383,452.74271378829144 552.2955050667515,451.87725541042164 551.6197560889414,451.28038544394076 550.7080775111681,450.1015621763654 545.7768576000817,447.8881416034419 545.3370382222347,447.80358349171 544.8127502222778,447.78866146842483 545.4156814223388,444.2620596222114 545.8467626667116,442.7499297480681 545.9632711111335,442.3967662367504 545.9166677333415,441.9242225626949 545.7069525334518,440.9791319608339 543.6127132445108,435.25377982563805 542.8699719111901,432.88599426147994 542.3485966222361,431.08526516042184 542.6325859556673,430.772871878813 539.9188130134717,430.5082326134434 533.3395811555674,429.58298739488237 530.982906595571,429.30740280030295 529.2641157689504,429.1517023155466 524.1392005688976,429.31884404527955 522.5462388623273,429.30889513657894 522.5235197156435,429.2273140672478 522.3239990045549,428.50750896317186 520.8408465067623,423.8488615155802 520.8682259911438,423.8045876919059 521.0287163733738,423.5538683310151 520.6494813867612,422.1057590629207 520.3710262045497,420.5407349825837 520.730746026733,418.5060863967519 521.1632836266654,417.16838105162606 521.2710539378459,416.87288081855513 521.8620430222945,415.086936037289 523.950456888997,412.27217601268785 524.5804763023043,411.7144927617628 525.3392375466647,411.1672552753007 527.5284312178846,409.7892053425312 531.9790537956869,407.05944526195526 534.4292263822863,405.57440475560725 537.9471988623263,403.5052802050486 540.2319294578629,402.11523871246027 543.8885469867382,399.9137400499894 547.0698100622976,397.9759042300284 551.3255722667091,395.4305702088168 555.4954094933346,392.8827170469449 558.7579372089822,390.9274012003443 559.8708841245389,390.2288563797483 562.012309333426,388.9138542494038 563.3702152534388,388.10235990490764 565.6051384889288,386.98039280436933 566.9342085690005,386.55896943539847 569.52477383113,386.0375376739539 572.683900302276,385.9937532674521 574.5544433777686,386.68435168493306 575.6810800356325,386.7574912952259 577.742114417837,386.2091923595872 579.3202212977922,386.24252818053355 580.9341545245843,386.37039836880285 581.3719350044848,386.41766553896014 583.1358728534542,386.5276238610968 584.23105223116,386.6629571001977 586.7458870044211,385.25588510691887 588.5602147557074,384.50657056609634 590.7936816356378,383.0412696409039 592.4661603556015,381.43365584523417 594.5545742223039,378.29352348088287 595.3712984177982,376.97695238533197 595.7913113600807,375.2453948132461 595.8361671111779,373.80540452024434 595.9325778490165,373.271003348229 596.1481184711447,370.94579476024956 596.1693812622689,366.05396373628173 596.4332728890004,356.9626415288076 596.763574328972,355.68375336989993 597.7891399111832,353.13043187937 599.2583113956498,350.6646625865251 601.4772147201002,347.6176176678855 603.7782564978115,344.5093166481238 605.4390843734145,341.57365591602866 608.077418097877,338.2985457670875 608.7948188445298,337.98451863997616 609.3674578489736,338.10395849123597 611.1905237333849,338.4359013804351 612.7360082489904,338.7723227128736 612.8292150044581,337.9297753517749 611.5135433955584,337.3878160120221 610.3024381155847,336.6995405234047 609.4953258667374,336.14165248407517 609.1050225778017,335.56435372377746 608.7056898844894,334.79345828545047 608.5454907733947,334.35500710632186 608.5245192534057,334.115127632278 608.4962659556186,333.722958927392 608.260336355539,333.29495669616153 608.1933440000284,331.28432965202956 608.1470318933716,330.4298072103411 608.114992071176,329.83407805114985 608.0745053867577,329.1786246782867 608.0485822578194,328.8282523911912 608.0337274312042,327.9134992051404 607.9900367645314,327.25953279214446 608.1094579200726,325.7027459378587 608.2055773866596,325.17369452747516 608.229752888903,324.1469427072443 608.301696853363,323.3555987397558 608.3908258134034,322.70808798482176 608.4205354667502,322.14170104218647 608.6392800711328,319.91894073877484 608.6727762488881,318.48304273735266 608.7680219021859,317.29848155903164 608.8548206933774,316.80574191827327 608.9419107555877,315.73614443605766 609.1376449422678,315.1478385654045 615.8261034666793,313.7910455180099 618.4915254045045,313.61435317533324 620.9845148444874,313.11612972442526 621.2157841067528,311.47860359190963 628.339110400062,310.305947692832 630.6768523377832,300.81843793555163 644.9782638933975,301.81842745054746 645.8704273067415,301.98716586921364 647.2830921956338,301.6666125309421 649.5587933866773,302.1409715638729 652.7753002666868,302.3017456784146 654.087767893332,302.9199533329811 655.6227666490013,302.85723669902654 657.6267118933611,303.2713652298553 660.4368955733953,303.145434406586 662.6531774578616,301.8239027406089 666.728642844595,309.7410198218422 666.3951374222524,309.81717318482697 665.6541437156266,309.9864027792355 664.7188721777638,318.6666988810757 662.7463842134457,318.92351857945323 662.7525009067031,319.192283036944 662.8308528355556,322.58963460545056 662.9118262045085,326.1088653829647 668.3705380978063,326.54235719074495 669.0835697777802,328.33404728467576 669.4674651023233,331.0434512330685 672.889900657814,328.8242708844482 673.9320686933352,328.0767416387098 674.4656773689203,324.95719614520203 674.7586961067282,322.67971890431363 675.1915249779122,322.6050634108251 676.0315508622443,322.5408596646739 676.1588363378542,319.7636551988544 676.0906788978027,318.95985157287214 676.3181616356596,316.63850880239625 676.7798263467848,315.6440662170062 678.7837715911446,315.63709813391324 680.4370264178142,314.6431484326022 680.033907199977,313.2604703088291 682.2900932267075,313.79303641681327 681.972025173367,314.4221594641567 684.0298555734335,315.0184309569886 685.2767872000113,315.80084802478086 685.4151409778278,314.54410160449333 690.2557755734306,313.5551238771877 696.2478048711782,311.83398271061014 708.7578990934417,309.02129449060885 714.6474009600934,307.38522899698 721.9958798222942,305.39824057603255 722.1802544356324,305.1692777518183 725.1092767289374,305.76159410038963 725.1404427378438,305.81435496965423 725.1957842489937,305.7859835604904 727.9433446400799,306.38626201590523 731.3019918223144,307.0796162948245 732.1225025422173,307.2433729945915 732.2244474311592,307.04776087310165 751.5898985244567,311.0495596365072 752.3445819733897,307.23540914594196 760.782123520039,308.85355731251184 763.2180238222936,306.0816433170694 764.7166136889718,305.1175122084096 765.7768405333627,304.6585901869694 767.3698022400495,304.4500341794919 768.5439160889946,303.7138646261301 770.7188374755206,302.6790417141747 771.219823786756,300.6367568898713 772.932206648984,299.4839495854685 774.3501144178445,299.4615504158428 775.1508187022991,299.44860867242096 779.8752361244988,299.6994792484911 783.086208853405,300.08424642286263 786.5939868445275,304.82433979865164 786.7113691022387,305.63118510111235 791.8718193778768,302.0145422957139 808.5922375111841,291.1473080186406 819.3983957334422,283.83678899885854 839.0233693867922,270.71792269160505 852.5843697778182,261.6602247089613 870.2444285156671,249.52176651963964 841.6646158222575,207.47846225788817 840.8344931555912,206.36297977139475 837.1790407111403,203.3302311891457 834.0857415111968,200.57631731341826 824.5699143111706,190.17286335956305 824.7941930666566,189.8840093583567 824.354373688926,189.36606323713204 824.2174762667855,188.97760279057547 822.7028664889513,187.71759142237715 821.9572124445112,187.17971860687248 820.7630008888664,186.58706082066055 820.0930773334112,186.1985951269744 819.5309240890201,185.8101286997553 817.1541518222075,184.16162839333992 816.5075299555901,183.4942559330957 816.2890766223427,182.92648959846701 815.9075114667648,182.2790348486742 815.6045895111747,182.0051110718632 814.8298083555419,181.1932984641753 814.1132814222947,180.09759538655635 813.7462798223132,179.67425399820786 813.1695630223257,179.19114570267266 811.599611733458,178.66819214529824 810.9180373334093,178.5436791976681 810.2248120889999,178.45901035016868 809.5519758221926,178.22990623523947 809.0539022223093,178.21496465365635 808.6228209778201,178.1651593738934 807.8480398223037,177.65216429089196 806.7674240000779,176.9449262538692 805.8382691555889,176.42694755760022 804.9848448000848,176.04344325955026 804.6790101333754,175.84920055017574 804.1809365333756,175.56530702963937 803.8809272889048,175.4557339871535 803.1964401778532,174.4396902677836 803.0071139556821,173.97649220109452 802.8760419556638,172.33785841224017 803.0071139556821,171.2072432951536 802.9808995556086,169.9421423621243 802.9080817778595,164.18932149652392 802.2410709334072,160.69770415185485 801.9789269333705,159.22333723609336 798.5564913778799,156.7876200969331 795.1660956445849,155.67186273779953 794.4291797333863,155.41782785044052 790.7416874667397,154.6756456963485 783.1686385778012,153.88863082276657 780.2413639110746,152.30961088859476 778.1354737777729,151.91609930235427 777.0839850667398,151.71685264259577 777.1305884445319,151.60228572576307 779.0762794667389,147.57247836643364 779.5015352889895,142.8950133586768 779.6323160178727,142.64743849856313 779.6937742222799,142.53137211350258 779.8102826667018,141.95851131377276 780.2792291556252,140.71813768078573 780.8180807111785,139.1838499082951 780.9724544000346,137.87371849955525 781.3540195556125,135.7964207981713 781.6278144001262,132.70285224774852 781.6889813333983,131.84102856903337 781.6423779556062,130.70520918862894 781.5083932444686,125.39467221172526 780.9608035555575,121.45900757925119 780.954978133319,121.03056359349284 780.9593471999979,121.00316307571484 781.1239153777715,119.94948584900703 781.0132323555881,119.82493735675234 780.180196977919,119.38154411234427 779.3092963555828,118.61930405389285 779.1665735112038,118.42998909170274 778.8316117333015,116.22296233527595 778.8243299556198,116.18061508919345 778.5956821333384,114.85788201499963 778.1092593778158,111.94833752489649 778.0218780444702,110.49853201431688 778.0568305779016,109.27291526162298 778.1092593778158,109.06864509289153 778.7442304000724,107.45938764530001 779.1957006222801,105.88499356259126 779.8918385778088,101.6500129684573 779.9908707556315,101.33612270076992 781.0365340445423,98.96947430958971 781.17051875568,98.685474672704 781.1792568889214,98.48617644788465 781.0918755555758,98.20715860871132 780.7103104001144,96.8319937287597 780.6578816000838,96.51311360287946 781.3773212444503,95.88033438945422 782.6589141333243,94.81905464536976 782.8948437334038,94.59483991435263 782.7783352889819,92.9655388611136 782.6175536356168,92.59184413956245 781.5433457777835,89.21361304621678 781.0280871823197,87.58277455042116 780.8530332444934,87.03118646843359 781.1064391111722,85.65096409973921 781.5287822223036,82.61643542430829 781.8785988267045,80.71298079605913 782.0551091200905,79.84894610231277 782.2540472889086,78.83442322467454 782.4433735111961,77.90759539674036 783.03465386678,76.24328117945697 783.7453553777887,74.1005813695956 784.0308010667795,72.94451080623548 784.3861518222839,68.72878464951646 784.5026602667058,66.50129161344375 784.5754780445714,66.12256556574721 784.8405347556109,65.6092909934232 785.6473557333229,63.72561216948088 785.8046421334147,63.30203122203238 785.8454200889682,63.082765447790734 785.9153251555981,62.13593328400748 786.0696988444543,58.95155523705762 786.0696988444543,58.473146763572004 786.0959132445278,58.32862731831847 786.9405994667904,56.330261820578016 787.1182748444844,55.458151091239415 787.089147733408,55.218942930572666 787.0250680889003,55.064454179024324 785.8599836445646,52.931500844308175 785.9898905600421,52.02449062053347 786.3667953778058,50.16062189079821 786.4570894222707,50.001145706977695 787.2551722667413,49.32337054645177 788.1318983111996,48.51601780788042 788.3008355555357,48.26683422375936 788.7406549333828,47.04084659356158 788.9008540445939,46.5574266979238 789.279506488936,45.33641262364108 789.2066887111869,45.07725768350065 789.0144497777801,44.83803744893521 788.8309489778476,44.55396305897739 788.2192796445452,43.40769399062265 787.0105045334203,41.13507207890507 786.7221461334266,40.18813887052238 786.4949546667049,39.45550860738149 786.3988352000015,39.19136236212216 786.2328106666682,38.85744115157286 785.924063288956,38.59329413820524 785.7347370666685,38.32416287006345 785.7085226667114,38.259371956577525 785.7026972444728,37.96532063133782 785.7289116445463,37.7011724722106 785.8046421334147,37.39216853468679 785.8803726222832,37.28252186457394 785.9444522666745,37.21274668048136 787.7561585778603,36.24087558343308 789.3115463111317,35.35372770077083 789.3552369778045,35.31385579588823 789.44261831115,35.0746242046589 789.4863089778228,34.45162396325031 789.719325866783,32.21379153156886 789.6173809778411,31.027580947149545 789.8387470223242,29.10371225932613 789.9814698668197,28.565424533793703 790.4824561778223,27.349287818477023 790.6135281778406,26.496990998391993 790.6047900444828,26.12317548925057 790.269828266697,25.101409630908165 788.8746396445204,21.24855905014556 788.5629795555724,20.51087696722243 788.1901525333524,19.828020248329267 787.916357688955,19.484098852495663 787.6309120000806,19.229895711992867 787.3833315556403,19.16011440276634 786.859043555567,19.12522373936372 785.8570709334454,19.165098782861605 784.7007246222347,19.190020681126043 782.8336768001318,19.005598562420346 781.17051875568,18.781301168201026 780.9142001778819,18.696566533413716 780.791866311105,18.621800650143996 780.593801955576,18.407471634214744 779.9122275555274,17.470402615785133 777.9257585778832,15.646096427808516 777.7422577778343,15.366966184636112 776.9529130667215,13.737037378246896 776.0528853334254,11.773130463785492 775.5926769778598,10.985568615375087 774.9140152889304,10.407356730778702 774.6227441778174,10.39240295352647 773.8858282667352,10.417325914953835 773.2217301334022,10.522002319863532 768.6254719999852,11.698362063500099 767.1807672888972,11.897744403977413 763.8719274667092,12.555704756174237 762.7184938667342,12.710225442657247 761.332043377799,12.765055335767101 760.8048426667228,12.705240906157997 760.2368639999768,12.570658375974745 757.5426062222105,12.007404608884826 756.8610318222782,11.683408380195033 756.5260700444924,11.44913386600092 756.3454819556791,11.444149299059063 755.3638983111596,11.48402583191637 755.0580636444502,11.588701693806797 754.9998094222974,11.90771351591684 754.8046577778878,12.042296479979996 754.3794019556371,13.168802280444652 754.239591822261,13.393105796072632 753.831812266726,13.92146422166843 753.106547200121,14.704030338791199 752.7045930667082,14.983161481679417 751.9705898667453,15.471640070201829 750.8521088000853,16.22429358336376 750.6423936000792,16.299060338176787 750.1355818667216,16.4735159939155 748.8161237334134,16.917131137335673 747.1384021333652,17.440496087423526 746.5908124444541,17.58504426747095 745.4199025777634,17.938937658676878 744.8694001778495,18.1383139489335 744.3480248890119,18.342674445884768 743.966459733434,18.552019134629518 743.736355555593,18.781301168201026 743.4392590222415,19.1950050604064 742.5275804444682,20.46103348780889 742.2654364444315,20.57567347236909 742.0644593777834,20.57567347236909 738.3099747556262,19.738301678735297 737.8381155555835,19.738301678735297 737.3138275556266,19.708395480178297 736.1370922666974,19.663536174222827 735.8574720000615,19.638614333351143 735.6098915556213,19.49905196862528 734.2613063111203,16.782551363517996 734.0079004444415,16.518375995685346 733.8535267555853,16.314013685914688 733.6379861333407,16.169464612496085 733.5709937778302,16.13457344158087 733.4399217778118,16.139557895017788 733.1748650667723,16.383795960864518 733.0933091556653,16.48846932890592 732.7204821333289,17.17632156482432 732.3534805333475,18.003734974190593 731.7884145778371,19.135192500893027 731.6777315555373,19.33456763147842 731.5117070222041,19.454192616976798 731.2481066667242,19.433756686921697 730.0320497778011,19.25481760245748 729.810683733318,19.085348688124213 729.2310542223277,16.87227122252807 729.1378474667436,16.70778478437569 726.257176177809,15.66104982298566 726.12901688891,15.611205168126617 725.884349155589,15.481609008915257 725.5610382222803,15.2224164455547 724.2730373688973,13.941900699515827 723.6211726223119,13.298399897059426 723.1959168000612,12.924560396291781 722.8842567111133,12.86973054567352 721.3842104888754,12.81988521432504 717.673416533391,13.283446330111474 717.3996216889936,13.398090315866284 716.3539584000828,13.991247308382299 716.1180288001196,14.21056542696897 714.3354496000102,16.583173758815974 713.5927082666894,17.684732608264312 713.2548337779008,18.008719382225536 712.3518933333689,18.75637922040187 711.1402055111248,20.12708186416421 710.0625024000183,21.38812022760976 709.6022940444527,21.836709085211623 708.113898666692,22.5943236007588 707.7439843555912,22.68404092430137 705.7254755556351,21.926426739315502 704.1030954667367,21.004326761642005 703.1156863999786,20.68034470686689 699.8767516445369,20.03736342501361 694.9542698666919,18.342674445884768 694.5668792889919,18.23800202162238 694.2814336001175,18.208095604903065 693.9115192890167,18.163235971704125 693.4571363556897,18.208095604903065 690.7104497778928,18.935817177174613 690.2764558222843,19.10528621461708 689.8308110223152,19.274755112593994 689.1404984889086,19.55886442225892 688.4327096889028,19.91773877874948 688.0744462222792,20.082222649478354 687.1598549333867,20.780031547357794 686.3268195556011,20.874734001001343 685.8695239111548,20.59561085450696 685.3510613333201,20.271628155838698 683.4577991111437,18.935817177174613 683.1869169777492,18.826160666532815 681.8791096890345,18.442362419446 680.1664355555549,17.704670270672068 680.0091491556959,17.619935192225967 679.7819576889742,17.47538703668397 679.2198044445831,17.056695254228543 678.7974613334518,16.60311152797658 678.6605639110785,16.38878040824784 678.4333724445896,15.571329435450025 677.5449955555378,15.06789764657151 676.449816177832,15.013068367377855 675.8177578666946,14.853564926772378 675.7274638222298,15.042975248827133 674.6730624000775,14.773813160019927 674.0002261333866,14.624278514180332 672.861356089008,14.056045867793728 671.547723377822,13.378152236051392 671.2395585422637,13.218647527333815 670.9127523555653,13.049173638690263 669.0952206222573,12.04728103254456 668.3874318222515,11.837929722154513 666.8844728888944,12.458007746026851 665.9931832889561,12.760070800664835 665.5655972978566,12.885182596044615 664.9882979557151,13.054158166865818 664.5892565334216,14.265394920192193 664.5805184000637,14.6890768740559 664.501875200076,15.810583715036046 664.4931370667182,16.4934537736699 664.6786767644808,16.718750550993718 664.4008041245397,16.874763440224342 663.7329194666818,16.777566925622523 661.4668302222854,16.393764855340123 658.915295288898,15.960117498412728 657.980315022287,15.800614792329725 652.2189724445343,14.823658017790876 651.8898360889871,14.753875213558786 651.8869233778678,14.753875213558786 645.7935317333322,13.68719225708628 645.3799267555587,13.617409067112021 641.2526151111815,12.894653206865769 641.0458126222948,12.85976148035843 626.7560519111576,10.362495395820588 626.1123427556595,10.242865121690556 608.2719872001326,7.202238956815563 607.8088661334477,7.092576189665124 602.6883200000739,6.215271946741268 595.3415887645679,5 594.8531271110987,5.412734673998784 594.4133077333681,5.936128902772907 593.0676352001028,6.798480297904462 592.5229582221946,7.207223626668565 590.9034908445319,8.807296403450891 590.1724003556883,9.350620465003885 589.2053802666487,9.948773735202849 588.6869176889304,10.39240295352647 586.665496177855,11.882790735166054 585.8965404444607,12.386230321251787 585.4654592000879,12.53078205382917 584.8537898667855,12.839823348331265 584.4722247112077,13.074096278171055 583.0624725334346,14.220534426858649 582.2673024000833,14.659169941209257 581.5886407111539,15.262292245868593 580.60996977787,16.229278034472372 579.5147904000478,17.041741960507352 578.8943829333875,17.340807628119364 577.5632739556022,18.24298642401118 576.7768419556087,18.711519706761464 576.5205233778106,19.095317451574374 575.3204864000436,20.122097507410217 575.1078584889183,20.520845661638305 572.934976000106,22.848522582557052 572.5038947556168,23.202406916534528 572.0815516444854,23.55130636791 570.2407182223396,25.07648844900541 568.2513365333434,26.601659219129942 567.849382400047,26.83093227853533 567.4882062223041,27.124999524035957 567.1881969778333,27.478876499342732 566.6435200000415,27.912499568308704 565.1318229334429,29.347934929304756 564.683265422238,29.871268245915417 564.1910172444768,30.344759146682918 563.5414826667402,30.75843977823388 562.947289600037,31.25684907240793 562.4230016000802,31.820050121401437 560.4277944889618,34.40676787303528 560.0637056000996,34.69584028277313 559.8102997334208,34.935072314576246 559.6209735111333,35.22912797250319 559.3792184889317,35.61787887488026 558.3335552001372,36.514993537333794 556.8684615112143,37.98525632766541 555.4645347555634,39.48042804701254 554.0809969778638,41.02044355403632 553.5567089777905,41.47397343092598 551.5993671111064,43.70173753477866 550.0498048000736,45.03738766373135 547.8769223111449,47.110618443461135 547.6060401778668,47.479412113898434 547.3817614222644,47.888074597809464 542.287429688964,53.479691897460725 540.8864156445488,55.32858003873844 539.4184092445066,57.38177326845471 539.0805347556015,57.97480342030758 536.9571683555841,60.98477883491432 536.6425955556333,61.687432316713966 536.2260778667405,62.335266733309254 534.7842858666554,63.91996078268858 534.4755384889431,64.26879116648342 534.111449600081,64.94651707797311 533.7094954667846,65.59932448423933 533.2755015111761,66.23219686176162 532.6084906667238,66.8600840679137 531.6531214222778,67.86669289082056 531.2744689778192,68.6241378657287 530.7996970667737,69.3317484142026 530.2375438222662,69.9695924562402 529.1569280000404,71.42964988749009 529.0433322667377,71.86816340615042 528.7724501333432,72.23691268678522 528.4278764089104,72.61363424221054 527.6656199111603,73.71688625653042 526.7422904889099,75.29152657755185 525.8684771556873,76.36287306935992 525.3558400000911,76.82130800286541 524.7499960889108,77.50397552113282 524.2286208000733,78.24643616215326 523.0023694222327,79.60677655768814 522.4460416000802,80.03530683345161 522.0411747556645,80.59339143545367 521.4935850667534,81.38566965365317 520.8527886222582,82.02845917327795 520.4246200890047,82.32244750892278 519.5711957333842,83.88207351602614 518.9274865778862,84.70921861205716 518.6449536000146,85.8502747612074 517.960466488963,87.03118646843359 517.5148216889938,87.56932120013516 517.1507328001317,87.9629558994202 516.8798506667372,88.42634768120479 516.7196515556425,88.93956531805452 516.4050787555752,89.55741786153521 515.8691399112577,90.30481765163131 515.3565027556615,91.10702373780077 514.7972622222733,91.84943527844734 514.6836664889706,92.01884424779564 514.1448149334174,92.81107845850056 513.707908266806,93.35916323377751 513.3758592001395,93.94710709614446 512.9069127110997,94.4304156229482 510.38159217778593,98.22708846686874 510.2126549333334,98.48119398980634 510.0029397334438,98.89473760104738 509.6883669333765,99.24849111470394 509.4524373334134,99.62217374308966 509.3097144890344,100.06062716140877 509.09708657779265,100.4741675973055 508.44463928893674,101.66994249314303 507.8067555556772,102.90058689832222 507.44266666669864,103.33903332869522 507.1688718223013,103.84723143081646 506.82808462227695,104.39528680045623 506.0707797333598,105.6308971857652 505.756206933409,106.23873505479423 504.8590919112321,107.7782508021919 504.02314382221084,109.21811108989641 503.6008007110795,110.04017213231418 502.7648526222911,111.49496301659383 500.60362097783946,115.24648244457785 500.2861354666529,115.79450744378846 499.52009244449437,116.92044513358269 499.00162986665964,117.79727729596198 498.79774008889217,118.14601632178528 498.1802453333512,119.12248244846705 497.3792497778777,120.23843806056539 497.06758968892973,120.85619659966324 496.697675377829,121.4390799717512 496.549127111095,121.72304819576675 495.952021333389,122.86389903945383 495.66366293339524,123.73572402168065 495.34035200008657,124.59259983245283 495.17141475563403,124.89150915923528 494.9500487111509,125.1505635578651 494.62382506672293,125.87292506144149 493.8636074666865,127.54680127929896 492.91406364459544,129.24557244352764 492.36647395568434,130.71019086625893 491.2188657778315,132.99676816805732 490.9246819555992,133.86356860608794 490.50816426670644,134.6755680020433 489.9693127111532,135.41284075076692 489.4304611555999,136.05546146444976 489.3226908445358,136.2298155754106 488.98481635563076,136.77280314575182 488.6411164444871,137.53995745349675 488.13430471124593,139.03938715846743 487.7731285333866,139.6421448570909 487.1265066667693,140.8476549560437 486.36628906673286,142.00334395561367 485.611896888935,143.41307648818474 485.41965795564465,143.9560450987192 485.16333937784657,144.46912421198795 484.59244800009765,145.1764739009086 484.1992320000427,145.99340995174134 483.80601600010414,146.64596019819146 483.54969742230605,147.36326495127287 483.4390144001227,148.11543599894503 483.08366364450194,149.1266285040183 482.61471715557855,150.09298516972922 482.0438257778296,150.99956306943204 481.7904199111508,151.3831140550319 481.70595128892455,151.8264383293572 481.73216568888165,152.28968626947608 481.5253631999949,152.9521788227139 481.25448106671683,153.56983913114527 480.8816540444968,154.15761092829052 480.6748515556101,154.5610804273747 480.5787320889067,155.00439785333583 480.4709617778426,155.3530738093541 480.2408576000016,155.79638952878304 479.83890346670523,156.2347232333268 479.5126798222773,156.7278475346393 479.2330595556414,157.47998434409965 478.9767409778433,158.24706143664662 478.309730133391,159.472386443289 478.0388480001129,159.84595968876965 477.8815616000211,160.15477972617373 477.69806080008857,160.44865642808145 477.4912583112018,160.71762795676477 477.32523377786856,161.01648479845608 477.0543516444741,161.6540446097497 476.74851697776467,162.27665970596718 476.4135551999789,162.88433022302343 476.2242289779242,163.29276349622523 476.05820444459096,163.960201490263 475.77567146671936,164.59277132176794 475.3824554667808,165.155607410823 475.0125411556801,165.72840361949056 474.49407857784536,166.7494711666368 474.2261091556866,167.12303119827993 473.93483804457355,167.75061052438105 473.25035093340557,168.66209137428086 472.1519675733289,171.17785718059167 470.8159069867106,173.32004412263632 470.13957546674646,174.6842385038035 468.16796131560113,178.0889572725864 467.00287687114906,180.13893338129856 466.1992598755751,181.57629511808045 465.64963128895033,182.55943280970678 465.2800082489848,183.81997380719986 464.4752261689864,184.2393223599065 464.04152348451316,185.12184407527093 463.1744093867019,187.16876192373456 462.2103020090144,188.69820963125676 461.4378510223469,189.62204830994597 461.122404408874,190.50454693671782 460.6120974222431,191.30835446843412 460.23402752005495,192.21375473041553 459.3115719112102,193.43738340691198 459.03107783116866,194.41100216517225 458.5032945778221,194.94885607640026 458.29707463120576,195.6913909711875 456.71372487116605,197.76509596186224 455.4571812978247,199.64804581273347 454.290057955659,201.59521994390525 453.15643079124857,203.48709859134397 452.04668785782997,205.44369814090896 450.85422392899636,207.36542033491423 449.8624457955593,209.1402211576351 446.5349646222312,212.5578149718931 445.2708480000729,214.33555879839696 441.26587022223976,219.6736776450416 437.5376000000397,225.17597796441987 437.4560440889327,225.5344937844202 436.4249443556182,226.8639844962163 436.2152291556122,227.48142295429716 434.98023964453023,228.88559061440174 434.8491676445119,229.5478365755407 431.90441671118606,233.31214154826012 429.87425706675276,236.2299284490291 426.1168597333599,241.42308844655054 415.01069226674736,258.23647632368375 413.7232739556348,259.7549409038038 412.0630286223022,261.0244682641933 410.3853070223704,263.7875301516033 408.4891320889583,266.18215377780143 407.5658026667079,267.69060300407 402.7161386667285,274.52080236846814 399.5529344000388,278.4037592423265 396.32856320007704,281.8485775979352 389.5856369778048,288.15662728238385 389.0922237156192,288.6101104624104 385.0359822222963,292.7800181763014 383.29418097785674,294.23351753980387 372.80842097790446,304.79099078837316 366.0043278222438,311.5204129318008 363.84600888891146,313.25748395291157 363.0537514666794,313.7203685991699 359.11867875559255,316.7066961308592 352.66993635555264,320.89245895383647 348.68826026667375,323.17692380025983 346.7571328000631,324.40126707206946 345.66370104893576,325.00696590845473 343.690921813366,325.97100384748774 341.72891960898414,326.9071664661169 339.53943466674536,328.17876809381414 336.5568184889853,329.6519249314442 333.1198193777818,331.2146541052498 331.6917171200039,331.7491644815309 330.18089386669453,332.31452962581534 329.09736533334944,332.82216249912744 327.2448810667265,333.40942249645013 320.97963946673553,334.4097513454617 318.58539093344007,334.46947231690865 316.1620152889518,334.38984435104067 313.97748195554595,333.85733153735055 311.60070968896616,333.00630352605367 310.08027448889334,332.32946002238896 309.39870008896105,331.7013870742521 312.5735552001279,327.23315510782413 312.69880177779123,323.0574752861867 308.75499093334656,313.27241573191714 301.9130325333681,305.00502165569924 295.0515589689603,301.87965114053804 294.3446439822437,301.53968521708157 293.1204315023497,301.41922863497166 290.6816184889758,301.4824434616603 288.81806592002977,301.69797103165183 285.4066986667458,302.4431073348387 284.9001782045234,302.4903937827912 284.5835665067425,302.4187174785766 284.1516114489641,301.2564628109103 283.4441139200935,299.46652800939046 282.5906895645894,297.984195357305 281.5840566045372,296.315189502202 280.65169777779374,295.02895565342624 279.3861248000758,293.5351422432577 278.314538382343,292.40569065045565 275.7297985422192,290.40760640928056 275.26522112009116,290.4066108467523 274.77326421334874,290.7545596486889 269.71068103122525,291.5111844834755 264.5420751644997,292.3429708122858 264.487024924485,292.14386008807924 264.39498325344175,291.9731224887073 264.26099854218774,291.8377269739285 263.86574364453554,291.7456380617805 263.5299080533441,291.8899936353555 263.40087495115586,292.0657090761815 263.3097070934018,292.31459754583193 263.2759196445113,292.50723701459356 263.34087310230825,292.72128065745346 263.2491227022838,294.65911215695087 263.0979529955657,294.7775816131034 262.5966754134279,293.34200596250594 262.49473052448593,292.7103295927518 262.28763676446397,292.2807487315731 261.95180117338896,292.10204681160394 261.5128556089476,292.19911333336495 261.26236245338805,292.39971733337734 261.16187392000575,292.5609968342469 261.16944696893916,292.92735967523186 261.21313763561193,293.1229852185934 261.3835312356241,293.2912329926621 262.29812252451666,296.53520238166675 262.16763306665234,297.20419937570114 262.0214149688836,301.3863768276642 261.86675000889227,302.31618049991084 261.4997484089108,302.98316769872326 259.2176392534748,305.5052557217423 257.44729343999643,306.68142316822195 255.64927687123418,307.41559114615666 255.1212023467524,307.5265871617012 253.19444394670427,308.67387430823874 252.20732615119778,309.00437145808246 250.82320583122782,310.2407446432626 250.5878587734187,310.6817358583212 248.22361116448883,312.4994458805304 247.04338062228635,312.87323913315777 245.79965297784656,314.12601396546233 244.04037546669133,315.1120026204735 241.56369720888324,316.1044569001533 239.67829930665903,317.17902963329107 238.71739591110963,317.6244854205288 236.67762432002928,319.2365793675417 233.813264213386,320.81929593509994 229.6408055467764,323.4755447821226 224.2173374578124,326.8245494153816 219.77283157338388,328.7814696826972 216.9725511111319,329.7449922559317 214.24741859559435,330.40392761694966 211.7273409422487,330.89215555321425 210.24564480013214,331.0718191607157 206.36503978678957,332.00945162033895 204.99082268448547,332.587755710294 202.46899740456138,333.0804575687507 198.62043221341446,333.8896804858814 194.68972856900655,334.7571280869888 190.6730999466963,335.585753620544 186.81900060444605,336.35017637955025 184.8581634844886,336.8130090921186 183.98988430236932,336.8324181831558 182.9019867022289,337.0344716885593 181.9332189867273,337.2838034501765 180.95629568002187,337.42762941884575 179.58178730669897,337.55055326392176 179.06944142223801,337.63515667739557 178.1373738666298,337.9138500288245 177.35647601785604,338.07658686477225 175.98196764453314,338.13829743565293 175.11834879999515,338.14725542021915 173.46334634663071,338.6688085151836 172.61429105792195,338.6454182806774 171.77950805344153,338.58967983874027 171.07929230225272,338.7320119017968 170.10644679120742,338.8997247306979 169.14962119120173,339.06594443222275 168.20502897782717,339.1923509418266 167.27033998223487,339.2953672130243 166.31438819563482,339.49094868754037 165.4353319822112,339.5606214326108 164.06897919997573,339.32423166627996 163.66352981340606,339.3112924291054 159.77535175113007,339.6223315584939 157.82762183109298,340.09710077918135 155.7572667733766,340.4389936592779 153.70613560895436,341.03071085351985 151.84782592009287,341.45919465622865 150.3399153779028,341.8747384910239 148.97764039121103,342.1190878273919 147.8224591644248,342.3171548972605 146.7118424178334,342.5490623298101 145.77977486222517,342.7232415601611 143.8515601067338,342.8426786615164 142.44501191121526,343.0387544191908 141.04487168008927,343.21442619577283 137.53884131554514,343.60508385830326 134.85885582235642,343.87481139134616 131.94789233780466,344.12164660997223 129.05061859556008,344.35156140616164 126.01033073780127,344.4799552715849 121.515143680037,344.7860100927064 117.52705962676555,344.99153933505295 115.84322133345995,345.10948217322584 112.52069176896475,345.09505035274196 109.69477944890969,345.03981130651664 106.81381688895635,345.10201743862126 103.78780131565873,344.99502287979703 101.68424135120586,344.9358026116388 98.50909496902023,344.809399629361 96.62690104893409,344.70041431864956 94.82072888885159,344.46651870792266 93.16834787558764,344.26745840441436 91.23052117344923,344.1261254720157 85.02207744005136,343.66729042399675 81.93402112007607,343.4338912923122 80.75204295117874,343.3169428005931 79.2604435911635,343.0342755333986 77.96312206226867,342.8088381564594 76.54579683567863,342.4719257665565 75.8187841422623,342.3370611248538 75.14944312896114,342.20816826680675 73.97882453340571,342.05190423026215 72.83354652451817,341.8483626797097 70.89193329785485,341.4532227626769 69.7650053689722,341.44376726425253 68.70623488014098,341.3064136581961 66.49694350222126,340.85951614624355 64.38027633784804,340.34294520743424 63.08761514665093,339.9801503914641 62.664689493365586,340.0443486976437 62.141566577833146,340.0647528062691 60.71229923563078,339.58948584867176 56.2095391289331,338.086042518029 53.5723704888951,337.2101485899184 52.42650993785355,337.0842385313008 51.726585457799956,336.9349379668711 51.16268458671402,336.59502994432114 50.41266147559509,336.16554067377 49.4369032534305,335.85449632036034 48.64202439121436,335.68479032302275 47.915011697798036,335.45387050061254 46.92760263115633,335.1438204178121 45.86999722674955,334.76310017483775 44.88462705782149,334.69292813166976 44.23159722669516,334.71532346715685 43.42535879125353,334.8078908282332 42.12949361780193,335.24982475227444 40.70692551112734,335.7743712188676 39.404652373399585,336.3302695729071 38.18888675561175,336.84087855555117 37.614208853337914,337.10364759678487 36.84321422223002,337.389309014834 35.21413489780389,337.984020973905 33.82651932456065,338.40156248561107 33.12746865791269,338.5946564859478 32.307831751182675,338.9181382970419 31.52984661341179,339.196332247986 31.091774862259626,339.36304937291425 30.334178702207282,339.5869975370588 29.89581568003632,339.87066486186814 29.40851911122445,340.0737107070163 28.50295722670853,340.6743868259364 28.057894969009794,340.9530760620255 26.600665600039065,341.6224263465265 25.57131349341944,342.00562218390405 24.292050773394294,342.5440857782378 23.007545173401013,343.11190953978803 21.961008071200922,343.64191014750395 21.085738382302225,344.11766539909877 20.656696035643108,344.4072982878424 20.18600192014128,344.66309056879254 19.666082986746915,344.91042249155 19.074220088892616,345.1851248018211 18.435171271208674,345.50262447900604 17.87272675568238,345.75941069354303 17.342613333486952,346.0221683488926 16.485402453457937,346.44118649174925 16.101215857779607,346.62332475336734 15.586539804469794,346.83482389862183 14.846128639997914,347.1408752182033 13.856971946777776,347.5643698708154 13.382200035615824,347.820655870717 12.9193702400662,348.0316561437212 12.090121386689134,348.37502876721555 11.547192035592161,348.60643173370045 10.990572942304425,348.81245480122743 10.091419022297487,349.1657789054443 9.293336177826859,349.5459748697467 8.684870826778933,349.8584914453095 8.376414719969034,349.9281606809236 8.08485233783722,350.0495841494412 7.827951217768714,350.17498864012305 7.534058666671626,350.26107977406355 7.223563662264496,350.40091558534186 6.939574328949675,350.48999244050356 6.565873493440449,350.62933046062244 6.232368071214296,350.802009947598 5.867114097811282,350.92293526569847 5.5717651911545545,351.0403770704288 5.476519537856802,351.1100459059817 5.3687492267927155,351.1413968743291 5.363215075689368,351.18319815798895 5.24874552898109,352.11526505148504 5.218744604499079,352.31481539690867 5.286319502280094,352.7487496447284 5.229812906705774,353.5957150021568 5.099032177822664,354.4103311559884 5,355.5747738169739" stroke="red" stroke-width="3.46966291713738px" fill="none" stroke-linejoin="round" vector-effect="non-scaling-stroke"></polygon></svg>