<svg width="4847.5675107555" height="2657.59840331116" xmlns="http://www.w3.org/2000/svg"><polygon points="3430.412055040011,864.5484139751643 3437.4800398221705,874.3232108432567 3437.5522750577657,874.3656638419488 3434.621796408901,895.3901747427881 3432.154438826721,898.4627315038233 3446.3917707378278,913.1895407644915 3447.314808888943,916.1322548222379 3458.0245563733624,923.8819195551914 3459.030315520009,924.2783583329292 3474.309232924483,921.7674167435034 3474.9541071644053,921.8843628747272 3485.2036462933756,908.9837885322049 3485.262774328934,907.91721061914 3497.856463360018,903.4246116714785 3498.056566613377,903.2308891238063 3508.87495822215,913.7611989231664 3493.241272604442,921.5732589356485 3492.401829262264,921.5095931982505 3490.3218622577842,937.1721598533331 3490.1986545778345,937.837215010717 3516.1861543823034,947.3477788648452 3520.4273530311184,949.2976980517269 3526.237046613358,962.1403636780451 3526.8609493332915,962.9096265307744 3537.653709084494,954.8593191278633 3537.8494432710577,954.4597756185685 3539.466871751123,922.0139517578646 3539.4325017600786,921.8577226419584 3516.837145315483,919.8718873191974 3515.780413724482,919.116018925386 3515.159132444416,899.4557487624115 3514.792713386705,896.5868693910306 3497.541308017797,893.01437774644 3495.8376632889267,892.8314841101528 3498.136666168808,880.7357782597537 3498.2418150400044,879.7160305002471 3503.7223722666968,875.0291037818533 3504.457540551084,874.6050263400539 3529.5115164445015,879.309123621264 3530.0914372267434,879.7444823402329 3546.9228296533693,858.8914506662986 3547.695280640037,857.7641053753323 3542.3242413511034,854.1792351344484 3542.2546275554923,853.4506912499783 3557.050908728852,848.6782847717986 3558.376774826669,847.7993122948683 3562.290293475613,838.2911875604768 3563.1140081777703,837.5101930231904 3593.061921279994,841.6590533484123 3594.2497248711297,842.0018897770788 3591.1939996444853,835.78196730325 3591.8263492266415,835.0172253149212 3604.535090346588,847.021965239197 3605.596482275636,847.4221570381778 3613.222542506759,844.9807949796086 3613.837415822316,844.8687762320624 3613.896252586739,832.4709268658771 3613.4846865066793,831.6171852410189 3620.5273307021707,832.6719396201079 3622.1811680711107,832.4858334360761 3620.681413120008,825.9516893062391 3620.945304746623,823.0538365590037 3614.348305351101,819.8478586280835 3613.6454681600444,817.9993291720748 3614.816960568889,801.9320036143181 3615.338044586708,800.8102373226429 3604.068765297765,785.8775016113068 3602.2649233066477,783.9518760213978 3596.9075737600215,786.7635005473276 3596.7004799999995,787.2275077342638 3584.935166008887,772.9738591903006 3584.9575938844355,772.875810456404 3577.0661856711376,774.5656764833839 3576.7985075199977,774.8318065985222 3574.0043437511194,769.6758732265444 3571.4927129599964,767.8327929201769 3570.4453020443907,756.9800373184844 3570.4211265422637,756.2642732912791 3574.2793036800576,753.954743434093 3574.4709600710776,753.3139812604641 3566.9587868445087,744.4298774648341 3565.623891342315,742.3190588491852 3563.1585726578487,742.1523073756252 3558.5728002844844,739.3889141377877 3551.100239928928,747.4869356740382 3548.5268596621463,748.6591355514829 3534.5985664000036,750.1616570291808 3530.4858183111064,751.4933568932465 3532.4166545066983,760.9673060922651 3531.8370249955915,761.6604616596596 3511.7812613688875,725.4136975887814 3511.708152320003,725.2998097269447 3499.836524373386,731.2029189412133 3498.7780451555736,732.0810052244342 3494.6545200354885,745.2758260166156 3494.079550862196,747.4562071422697 3498.7358108444605,755.2692489451147 3499.007858062163,755.9109091245336 3499.431657528854,773.6800798760378 3498.5785244443687,777.6697545935749 3491.3381071644835,780.4891410011915 3490.395845119958,780.2853692620411 3485.170441386639,771.9820738838171 3484.3470179555006,772.085093250731 3464.6043707733043,782.6294105046545 3464.2525152711896,782.9782132568653 3465.747318613343,796.0529444921413 3465.5247874844354,796.8173711852287 3442.934965191176,819.5329953569453 3442.1182409955654,820.0990261342959 3441.0676260978216,841.6671838628245 3440.936262826668,842.4811371631804 3430.412055040011,864.5484139751643" stroke="red" stroke-width="3.821489681930095" fill="none" stroke-linejoin="round" vector-effect="non-scaling-stroke"></polygon><polygon points="4770.458104319987,53.17224748985609 4832.001068657846,49.14844035584247 4834.228127573384,49.517005323432386 4832.640700017801,28.313758682925254 4832.473219128908,26.992596030875575 4838.757975893328,25.370375057973433 4839.261583644431,25.447904619271867 4842.4944017066155,12.510060433123726 4842.5675107555,12.425271605199669 4817.471009280067,5.150992717652116 4812.926888675545,5.5078429586137645 4804.725276728859,15.459512215398718 4804.378664106713,17.732897902082186 4789.371793919941,17.910179274564143 4785.967999715474,17.559697035583667 4785.7629448532825,25.642861873609945 4785.914405831136,28.668304056627676 4777.848526222282,33.95422602590406 4775.347672462231,33.2315507241874 4770.458104319987,53.17224748985609" stroke="red" stroke-width="3.863988035137214" fill="none" stroke-linejoin="round" vector-effect="non-scaling-stroke"></polygon><polygon points="5,2598.68734746502 13.984257422271185,2606.9870772575377 14.846419911133125,2606.9722909963457 11.113780622254126,2613.834353447717 11.662535395589657,2616.19827646896 44.963852799963206,2622.2137095707003 45.40978887118399,2622.367834397417 56.422167039941996,2633.5460763216834 60.10441642673686,2634.5675466135726 60.57219783111941,2632.238766622904 61.237169777741656,2629.560952724132 95.52298353775404,2636.404389133735 96.97933909331914,2636.6006167680607 101.15092394663952,2649.0042667240486 101.26859747548588,2649.118950290489 115.28572842665017,2651.0062927267863 115.40019797335844,2650.560105473094 103.09778005327098,2639.441417741298 102.31659093336202,2638.4835867293295 107.75433130667079,2625.383551613253 107.90462719998322,2624.2719839444035 104.15392910223454,2623.711493639217 101.02072576002683,2623.2648028995027 100.5759547733469,2614.0498675748822 100.55061418667901,2612.2473385398043 44.02042567112949,2605.735170279513 41.311021795496345,2606.203852109902 40.9888759466121,2600.1037409769488 41.00285695993807,2599.8492299403297 27.58254051557742,2599.416829351627 27.171265706652775,2599.5163039665786 28.277804657816887,2590.518597952032 28.501792142167687,2590.0695991803077 18.925089280004613,2582.69907694438 18.719160604523495,2582.0860505765304 5,2598.68734746502" stroke="red" stroke-width="3.5373018416283823" fill="none" stroke-linejoin="round" vector-effect="non-scaling-stroke"></polygon><polygon points="3430.412055040011,864.5484139751643 3437.4800398221705,874.3232108432567 3437.5522750577657,874.3656638419488 3434.621796408901,895.3901747427881 3432.154438826721,898.4627315038233 3450.6320955733536,919.0523524717428 3452.784297813312,920.6927736868965 3474.309232924483,921.7674167435034 3474.9541071644053,921.8843628747272 3485.2036462933756,908.9837885322049 3485.262774328934,907.91721061914 3497.856463360018,903.4246116714785 3498.056566613377,903.2308891238063 3508.87495822215,913.7611989231664 3493.241272604442,921.5732589356485 3492.401829262264,921.5095931982505 3490.3218622577842,937.1721598533331 3490.1986545778345,937.837215010717 3516.1861543823034,947.3477788648452 3520.4273530311184,949.2976980517269 3526.237046613358,962.1403636780451 3526.8609493332915,962.9096265307744 3537.653709084494,954.8593191278633 3537.8494432710577,954.4597756185685 3540.160970808938,934.3313176034135 3540.5900131555973,932.9551302592154 3538.4078099911567,920.4069538661279 3538.1072182044154,919.9712246675044 3516.837145315483,919.8718873191974 3515.780413724482,919.116018925386 3515.159132444416,899.4557487624115 3514.792713386705,896.5868693910306 3497.541308017797,893.01437774644 3495.8376632889267,892.8314841101528 3498.136666168808,880.7357782597537 3498.2418150400044,879.7160305002471 3507.7500691910973,872.624180863495 3508.3862052977784,871.536198582733 3504.8641550221946,856.3874354441068 3504.9395942400442,856.0690115369507 3482.667840000009,850.0667469326872 3482.644538311055,849.9976402089815 3505.0826083555585,811.6852091348846 3505.6584513422567,811.188275574008 3495.4048344177427,810.6398403128842 3493.676431644475,809.9680730046239 3492.203764906735,802.1985521473689 3491.3249999644468,801.2141280650394 3502.848850204493,789.0089789407793 3503.448577422183,788.9872923384537 3506.7346980978036,755.4920227282564 3506.0143846400315,754.886963181023 3498.5785244443687,777.6697545935749 3497.601892408915,778.4532223544666 3490.395845119958,780.2853692620411 3490.0378729244694,780.1227131918422 3485.170441386639,771.9820738838171 3484.3470179555006,772.085093250731 3464.6043707733043,782.6294105046545 3464.2525152711896,782.9782132568653 3465.747318613343,796.0529444921413 3465.5247874844354,796.8173711852287 3442.934965191176,819.5329953569453 3442.1182409955654,820.0990261342959 3441.0676260978216,841.6671838628245 3440.936262826668,842.4811371631804 3430.412055040011,864.5484139751643" stroke="red" stroke-width="3.124414836746382" fill="none" stroke-linejoin="round" vector-effect="non-scaling-stroke"></polygon></svg>