<svg viewBox="0 0 110.39065093333126 113.31433974819016" width="110.39065093333126" height="113.31433974819016" xmlns="http://www.w3.org/2000/svg">
  <title>Sušice, okres Klatovy, Plzeňský kraj, Jihozápad, Česko</title>
  <desc>Geojson of Sušice, okres Klatovy, Plzeňský kraj, Jihozápad, Česko</desc>
  <metadata>
    <collboard>
      <support-module name="@collboard/map-svg-geojson-import" version="0.11.1"></support-module>
    </collboard>
  </metadata>
  <polygon points="8.052549999999997,68.88332377191512 10.288055777760405,74.96653131949245 10.419928773313245,75.24446848125774 9.156467511092728,77.54436142510497 8.783203582199008,77.83911254682573 13.782071208879302,74.24304116427777 14.023243688897878,74.10964245076286 16.237413857779416,76.69765359393898 16.58664791999729,76.88899420851487 14.497724328895515,78.95023767055648 13.635197751085457,79.4679601703898 15.885048631090854,89.31289976236405 16.026315119968444,89.79253324520653 17.628743137763763,90.474820003226 17.64716603555246,90.45342903779931 17.521846639988894,87.76512023287762 17.715906017757902,87.48557494019735 20.527400417755075,91.44798874002993 21.033920879977472,91.90298240213417 27.749831706641658,93.65329152160086 28.065132684430523,93.94650826261898 33.00276055999677,89.99374409787526 32.8323669599846,89.51934878581199 23.305544275535453,85.49562607359951 23.322365182226008,85.36660003331019 32.90256329774968,76.94449066319032 33.32192087997794,76.39342399220152 34.72249801777764,69.19138427921973 34.89048863109895,68.9080667561426 44.8943405777751,69.73973663786421 45.29134310220945,69.72535917614698 53.22469435554342,64.89331650098723 53.596210657771394,64.91315690769227 54.75008116442007,70.82550279185637 54.79996134222131,70.9283719514566 57.47863611556352,73.01703131123907 57.67517129774899,73.10652281775367 62.53022381332232,71.40549064588379 62.820111386659505,71.32925892432797 60.63434015110363,73.44621030180826 60.399211546645915,73.46961388996681 62.27572567997379,78.36776618638362 62.20640315552703,78.6194989261345 74.23087561777322,89.08327584424808 74.34512671110099,89.38754682716501 73.05159170667287,92.09772388952081 72.85010491553805,92.30828456347047 66.65935590220727,90.58222035002075 66.5783097155578,90.58322304936121 61.7023584977793,93.23719289950498 61.67031867555454,93.26292760417675 65.24829300441309,100.23102028080723 65.26817225776142,100.2722351359331 82.55292816888652,100.72503955613467 83.43183874665522,100.84177672251064 87.96328905775556,104.96874456258195 88.60277478220053,105.26178974819015 89.24553730665468,100.48955944352895 89.20847305778409,99.85373583721923 86.63378207109747,90.28085266415258 86.66953560000513,89.8197179215855 89.97211309330999,89.71855520553765 90.24525257776952,89.58252002704069 88.49893663111254,87.46329147602194 88.39538975110156,86.82676051819692 94.37482157332818,83.48008895590431 94.62669826663443,83.10714689760755 91.8464426933275,81.46091239205964 91.81738840000583,80.95958889628639 93.75652582219448,75.93663067825366 94.16299465776649,75.91657135837124 92.98858953774436,74.55474934723281 92.61219444443816,74.50471121998964 93.90966160890059,70.49159464076331 94.00170328000206,70.27504364688468 89.24284304885771,65.70665585625795 89.15917542222417,65.60165917973029 90.18197392888362,56.67855144706084 90.2371698044368,56.487698046497485 79.74849709330704,62.10856653576013 79.66577609777562,62.217248325155765 81.23478075554124,60.3269349105027 81.15846772443149,60.19640079097701 74.4537708355416,53.511659527582765 74.23961375110196,53.34699445276749 75.10002861332725,51.50219913791045 75.59140297777014,50.906281487441106 72.96588518220926,50.86023557099509 72.83532290664846,50.61629191396753 75.9474090933287,49.43992870515615 75.95068589333789,49.38395856627142 72.16751106666163,49.75958177512041 72.09294566221763,49.716433736182466 85.01664486219636,37.613579935197436 85.64964980443585,37.4495364466344 83.17573862220854,35.64346451929998 83.16539849778167,35.35049500087155 86.2287695910851,30.965803078935664 86.19636567997043,30.651506019559406 89.98915245332284,30.111687154530614 90.05614480886254,30.130313224151564 92.91766502219946,26.228069836280724 93.07305815999973,26.17754163392931 101.9413168622192,29.064824996406628 102.0754472088953,29.126504087682065 102.12525456888363,27.069865099044932 102.33810093333125,26.615339640447587 98.5553630133287,23.517104959005906 98.4773751733079,23.286760490772963 100.69591440886836,20.019223236456696 101.03662879110891,19.453084743414024 97.83934580442258,18.183240036661687 97.47219856887352,17.67620873562521 98.39370754664526,10.79741327457998 98.4697293066489,10.244234083081778 96.7078303555387,8.302037961889823 96.5625588888721,8.052549999999997 80.27686288889493,14.494913078647755 79.9034533244336,14.594986792951772 77.14242164444988,18.040780888528047 77.09042975109298,18.18580585974962 70.15948802664172,15.410630987367426 69.69025026664133,15.362435687573111 68.16610135997291,19.62867196463742 68.16617417775672,19.635811458610647 64.64441517330818,21.36432264504367 64.38977140445024,21.452336380759903 60.80051032000449,19.880338568538377 60.48389862219449,19.55225701022539 59.81077108442662,21.731993793836978 59.7279772711114,21.80238201359282 55.09210626665265,21.005126980082082 54.65614623111435,20.770979227854355 54.13855746665615,23.01279990767182 54.096250337759216,23.044479458454248 51.00833965332242,19.82255351916649 50.87420930664632,19.01902269808454 39.79214452443523,20.040976225027066 39.19598537777313,20.120848663143647 36.87994313776255,24.50406153624465 36.841276897764715,24.53953274765047 33.8754816266661,23.73562455925969 32.229508577765614,24.293687781529684 29.856595653319914,33.46873928511161 29.67498811556254,34.14146346261953 21.917564613314994,36.808412783757035 20.339457733330732,37.579566879481376 17.860594942212288,46.895013811713966 17.832196008886626,47.194277372916645 13.031538373331955,47.99472136097722 12.853061999987062,48.08536848445476 14.878342853313029,52.317185526953494 14.890503422218558,52.52834419270914 11.657102817763757,51.89809895650944 11.547002337763502,52.15731089850999 10.277497200011226,57.771040666928116 10.227180115536271,57.805710123291306 11.581736417785237,64.30824421854743 11.52384628443508,64.93645265696216 10.352062604426123,68.1375739303254 10.48182388445241,68.8962525398307 8.052549999999997,68.88332377191512" stroke="#009edd" stroke-width="6.436326246395215px" fill="none" stroke-linejoin="round" vector-effect="non-scaling-stroke"></polygon>
</svg>