<svg viewBox="0 0 1281.691579130631 1091.1457938169988" width="1281.691579130631" height="1091.1457938169988" xmlns="http://www.w3.org/2000/svg">
  <title>Moravskoslezský kraj</title>
  <desc>Geojson of Moravskoslezský kraj</desc>
  <!-- Generated from maps/3-geojsons-aggregated/world/europe/czechia/moravskoslezsky-kraj/moravskoslezsky-kraj.aggregated3.geojson -->
  <metadata>
    <collboard>
      <support-module name="@collboard/map-svg-geojson-import" version="0.11.1"></support-module>
    </collboard>
  </metadata>
  <polygon points="17.261356071965565,524.9685707329663 23.958989636437764,529.5726268729377 24.11838775196884,529.5821184389388 27.233823556412972,544.2210068865134 27.520070240851055,544.5260102228822 34.44613317419498,543.0406279107738 34.70070412532732,543.3372783355044 45.340036818630324,565.8052736474965 45.40200474752419,566.0446632052954 52.62836819641598,558.5252971448535 52.67992318309916,558.5075663609059 62.273738223088,561.8239132954513 62.347939538642095,561.8379163764221 61.39373537864958,556.4535798155302 61.56158035643239,556.2657616061952 74.38653864975277,549.0577071241314 74.43445274753685,549.073181888878 71.75577797422375,567.5160954907369 71.74762238307812,567.5880231337396 62.96193904088068,584.3783326267185 62.77173900530397,585.1258284162068 67.53118177863144,595.3491936739047 67.67004528087637,595.5860837068794 85.63856012533142,586.5192000767311 85.74334490752153,586.4697599214596 103.9356287830924,595.2092486265792 104.29243589421458,595.3048401614542 100.50729498752116,586.528794622227 100.35394074755095,586.4126440699074 103.40580663197397,576.7793024843013 103.54787411644429,576.6298264484249 117.72840816087046,573.3217176725193 117.81294960088053,573.3124595188456 127.48569911199229,562.1010381165725 127.56878419641362,562.0146485005425 133.01963176975914,564.2920137582732 133.25002721864803,564.3053386683932 140.3830382764172,552.5408869403509 140.4945222941933,552.4780882084488 148.7087317164296,556.1661487999409 148.84082316530476,556.1513536851016 154.72020336085188,547.7959907390068 154.89897100530288,547.682355763438 152.71218032086108,553.8054302008422 152.5378545608728,554.1037162795583 155.50576154755618,555.550058753699 155.74562330755361,555.630472734545 171.59251937865702,545.7022904594087 171.77674835642756,545.8030519781496 187.919575876429,561.1917382057472 188.28985427641965,561.372989583022 170.3699817075285,601.2852420586605 170.01929128975098,601.7674330152404 192.41257840088292,626.1274877985161 192.36772264975662,626.4257174581762 196.0881285519754,606.7919863700117 196.41741054309023,601.3457277480084 213.90751258751334,599.7033369416204 214.06887678309067,599.6715132981808 207.80683916529597,587.4268366166834 209.34533317420937,585.9349455174561 222.91762032088081,588.4056810524817 223.16847756530115,588.5828915571074 219.9033284097568,583.7693338531571 219.7584210319801,583.6370351677506 223.66349281864314,576.5094776205988 223.8000989697648,576.3693713808643 229.85249420530818,579.7330637062296 231.2648678230944,579.7957182007121 227.23505918310912,583.626875699123 227.05833043642997,583.9598795193342 229.03293011642018,589.3770584490012 229.4249082142087,589.4341711998604 238.16529889866433,585.303726842878 238.34981914754098,585.2243724766922 241.1775519119874,575.9758075300524 241.1371380453238,575.2947976300966 247.33050849863866,579.6521207663791 247.4730128897536,579.6593458035532 248.14504816085173,569.4521242356896 248.15400474753187,569.0708180434776 241.06177164531618,559.1023914908619 241.02405203642047,559.0551851766104 243.13088880088253,554.013473900679 243.09775671198804,553.8760205787585 231.85163347643174,540.5539425814677 231.7646162319761,540.541289704186 238.65143038308088,532.2750576131984 238.77674977864444,532.0983421448946 256.58725004531516,532.8301709594707 257.0839401075391,533.0273348332303 254.8124623475196,552.5518428268297 254.8005930497493,552.6362143736951 265.4103617253022,556.9386515152619 265.46431969864716,556.975130539784 267.60516236532203,571.1242169813813 267.6486345786434,571.1490569224152 259.53032616975906,575.7983303042747 259.48532478309426,575.9376477171936 263.85912460530017,587.5435493861478 262.4676496897482,587.3792032870297 269.40106721864504,591.5294680589177 269.4289564275423,591.5319511253656 268.56300741421364,599.6027877070337 268.6063339919674,599.6693691513246 278.6974944542053,597.1735251297978 278.86257235643643,597.3253148862605 279.5126894764435,603.4629103572261 279.49586856975293,603.6501149115829 273.24147681864633,609.1451121131577 273.02666437421067,609.4648721315061 274.8123747386453,615.7501345977398 275.3459834142013,616.3747966290575 270.83514053420004,617.0864310693614 270.23555895199024,617.5587806430012 292.3731828453201,626.8757659425937 292.81016232977345,626.9641960861809 289.7130037875213,637.9195158721013 289.22359550309557,638.1506956143166 294.701094383101,648.855389050037 294.8243748808636,649.3716609751318 305.6486647297752,645.9609513593059 306.06445424085905,646.0464190138337 313.5314076275281,650.6173907282682 313.7334041430913,650.7774878860837 314.16259212531804,659.9004471069529 313.9785087831151,660.0259104372271 326.8341961786391,663.1023209618033 327.24554380531845,662.5784010499228 337.2933776897735,672.5693242451416 337.31551429418687,672.6039229405615 349.60351429421644,671.5407074235009 349.66431713865677,671.4817645124313 357.5432006941883,678.1768445480593 357.7971162853246,678.2949412448834 356.2766082675553,674.7337854808466 355.4239120897728,674.0043064800593 360.18306359199414,667.3822023685825 360.41069196533135,666.6542032152101 366.12448453418983,671.3705279086462 366.9832245875332,671.393406377556 369.95469964530275,665.9930331734249 370.3334249075451,665.5226800976125 386.7937379386458,661.1038912264958 387.28351031196144,661.0612819115377 406.3206988630882,668.2708012927942 406.5548808364438,668.4744646886866 410.63245793864553,692.8571934811225 410.68095457864183,693.0863384695876 419.1213360186266,691.6800220084297 419.1317489608664,691.8399989478385 418.610228036403,700.2792454682094 418.72112951196686,700.4665692350572 406.50267048976457,723.6343488543971 406.4896361075407,723.656642496444 411.4369487475378,741.1486088121783 411.6437512364246,741.4602813974234 409.9048627030752,750.1251715226426 409.89495948532203,750.2369233005775 437.9965050142091,770.9759250450188 438.16544225866164,770.98739971752 438.9156838231029,767.0256823225682 438.9754672186573,766.3544738507517 443.7036711653236,767.7397463954148 443.7113170319826,767.7292835732987 448.225800800883,751.7339024536523 448.38789317421106,751.7477444243304 473.1544572986495,782.8269675212832 473.27162110309655,782.9159331555311 468.5732724453155,789.6900559907117 468.52972741421036,789.9087870431576 476.8236723031041,803.7258702248109 476.842969014182,804.1314020192112 483.9603242497724,801.6016980125314 484.0459579564231,801.5883183784354 520.8072848897609,834.2818729377504 520.9802999297572,834.3489558869223 522.1554332275591,842.4181994532883 522.4451751653287,843.5902234802525 528.918020249741,847.679078782985 528.9952070941981,847.6804268550804 528.1604969075306,853.5243447031571 528.1452051742126,853.6189242581931 532.2940708808783,853.5606264282578 532.5045870764188,853.6978901986913 531.6384196097679,859.191528554762 531.4271752364184,859.6079937469949 541.434522436426,868.0631925166999 541.6014207831067,868.1702119888832 524.5493176719938,882.6773331869372 524.41540577864,882.8421418114194 532.849087983097,887.9835178872636 532.9300613519626,887.9541066089041 531.9907120186435,896.3185097655842 531.894665369753,896.5473660195166 538.6170569786518,903.0607824360959 538.6468394497533,903.3247370950594 553.2701784008714,877.7393561297249 553.7078860631045,877.242861722134 564.680651360879,884.2308705553041 564.7405803919719,884.291830113656 567.3336942764181,879.0223388304039 567.5562982230804,879.0572563785863 565.4916957697606,884.316303729418 565.4520100808768,884.7267403547339 571.7905063653197,890.451090394843 571.8981310408744,890.5191148857157 569.4037580630866,896.2824808126643 569.4044862408664,896.3538652571042 572.6137113431068,900.2485539552617 575.4536046764297,900.9098188298995 573.4750728364343,907.2753759972293 573.4763835564263,907.8471199800442 618.8947976364179,911.1572826426454 619.3159756630957,910.9625991253743 633.5330642319932,927.919242115564 634.1853658853106,929.0060952197564 633.6894040008665,947.4410659064633 632.766147396429,948.3439704428201 637.2006044275367,949.6801342420695 637.2726940275352,949.7041301726313 686.8924026142231,935.1597746083899 687.39608318311,934.8497628725054 729.6312681075251,930.9048114758662 730.4571673431092,930.5711079089415 737.631902987534,942.9365254495387 737.844603716414,943.0586504835846 757.8692013342115,934.4316255996564 757.8871145075427,934.4408228593711 786.504865263083,965.7073026197941 786.7707229697444,965.8950661029121 794.5399429519784,961.9854175590481 796.0370036453132,961.5783613530839 822.8451598053107,973.0038234063286 823.579090187548,973.1682487603721 833.5336444986351,961.6531361565612 833.6839403919766,961.5356488633879 856.3834990764335,964.6076122456907 858.0527738142009,964.9142049987458 862.2894577608567,992.6745441054554 862.3978834319751,992.9977864299908 873.0370704897687,1006.7665903312336 872.5736581519777,1007.6147535956443 891.9335022764171,1014.0803917184276 893.2899518408703,1013.3731131283312 900.0620779919736,1028.7273546852994 900.143852356432,1029.021384986063 905.7641468986585,1029.1915769770894 905.9421135475459,1029.4755277039258 910.4322761786643,1041.5271884341819 910.5305073608652,1041.8387251939894 905.2981131208835,1059.0958631752183 905.4843809964259,1059.4234148835567 932.4439253164346,1069.1810311694026 932.6774519297651,1069.2958268740076 965.8884024720064,1072.8339008642688 966.3886606053165,1072.8641082754511 970.5305358053192,1062.9607817759716 971.043901138637,1062.2658818924574 984.9273386497698,1056.187091482705 985.1283157164471,1056.0304127363815 989.5629183830933,1039.23521761972 989.6837958941942,1038.836682114812 998.350567805337,1034.4458832551936 998.5391658497574,1034.0495521660814 995.5114026497649,1028.974246190035 995.5215971386242,1028.4569484304848 1037.5665820275499,989.8048306957971 1037.7464419386706,989.6076248277277 1028.006335983071,965.1261845806912 1027.9540528186371,964.976756435939 1041.1463039830742,950.4515869418137 1041.3552910053295,950.079317516549 1072.9225258497645,942.1747237601703 1073.6469171031094,942.1063147293207 1077.6571377608525,956.7719326243714 1077.697915716406,956.853777278975 1087.9579406053126,958.893127266525 1088.570338116424,959.1218346878632 1131.3065093519872,945.0122776354001 1132.3178026497371,945.032126426293 1138.8976170497663,952.0101574115433 1139.6709418497812,952.7602737476591 1156.9200170497534,951.0346544592212 1157.1690538497533,951.0604438409537 1173.7154374942074,964.0780491012738 1173.8843747386309,964.3605432012009 1187.945487627545,966.5307668334171 1188.1377993786482,966.6100187270531 1205.48583393863,948.6070344683867 1206.116363076424,947.9823394485611 1226.8054229164154,936.6793002802042 1227.215387005319,936.4718092206786 1258.2444984719805,934.3682541951312 1258.3524144186413,934.3545704486205 1248.4293173875376,927.0889162533895 1248.395529938647,927.0788203468583 1253.7940215297458,921.9892372575596 1253.8321780453152,921.9146327456147 1253.0030748275349,915.9888031491464 1253.3927227564163,915.3503846474377 1262.3916165519804,911.5597759993434 1263.118119520881,911.0455220451877 1264.4244704542107,896.9545684094373 1264.4302230586654,896.8380648371713 1248.4156276453177,882.9619308753354 1248.3783449430957,882.8329358931551 1244.3677601964337,859.4033556365066 1244.3671776541923,859.1708624541388 1249.7888252986486,847.4123845332397 1249.7402558408685,846.608811407441 1239.3539649253253,841.3262576515299 1239.2898852808758,841.1311012373517 1238.9643169964147,826.050834630154 1238.9472048186472,825.1037689719997 1226.2604546675466,784.6552891084029 1225.900807663089,783.6995218207776 1228.6273965342152,761.4750831197634 1228.6328578675348,760.1146312507954 1224.6969841608552,752.7529097166589 1224.6235838408938,752.6545546801099 1207.6097828808597,745.6105689763099 1207.1813230764128,745.3622854175374 1178.5219205520007,755.3570031957388 1178.3015739564034,755.2816087737046 1174.6581364453195,749.0872083042668 1174.3131258141839,748.6811559670496 1161.8204350408814,747.2420543099615 1160.894120089757,747.4402467518557 1155.118578045298,724.420926103634 1155.4246311653005,723.8221556154058 1125.8400059564337,724.9587780979091 1125.3270775297606,725.0112456877869 1124.3927526230873,718.357480929033 1124.3556155564038,718.0078411706381 1114.0736725164352,720.1542899966917 1113.937940178661,720.2990951261054 1094.2491053342128,703.6938891386999 1094.0098261164276,703.6755295927614 1096.9625141875185,675.9753311735149 1096.9195516986547,675.8358178690869 1085.5579394675333,667.1385226663588 1085.3911139386364,666.8089559755499 1083.2836946319912,649.4583635128402 1083.2650532808802,649.2448202137639 1073.7723093164277,634.0666769013369 1073.6732043208794,633.8389760358732 1075.6304733697507,628.4643284973899 1075.615036000865,628.1835925649102 1070.6131828453108,614.4881533527405 1070.5110195030757,614.2107301800606 1065.1660489786482,610.9310730854377 1064.9451926586516,610.7012448791684 1062.9255915919966,596.2124435408368 1062.7927719653126,595.8949759318821 1053.0689771919751,583.3155435109256 1053.017058116402,583.2283972722107 1053.3192518941833,577.5469977309003 1053.3866811564258,577.3619615845564 1068.035215058644,564.6133916153667 1068.0882992186707,564.5184238650872 1063.9306225608634,557.3400323817659 1063.7868802675403,557.1396811307968 1079.6490680719617,547.1796932420439 1079.8181509519818,546.6429123320886 1061.2981870764233,540.7786436367496 1061.2567537608738,540.7809030695098 1051.6438604630712,526.5758083363799 1050.6493152541989,525.097621580735 1060.4910020097632,497.82053809923303 1061.1298323742121,496.97427269947724 1056.837297191978,494.58883029499333 1056.497092534195,494.4421817680158 1056.5055393964176,479.3210204482638 1055.9200844631014,478.80076259817355 1047.0428691742018,482.91518799079125 1046.299836569775,483.0236426683295 1031.5529986675429,474.18484017273653 1031.5053758408649,474.20225905564797 1033.5783523386526,477.16135240614307 1034.1622052808707,477.8683576308867 1032.039931147523,489.13905179864736 1031.8680083741965,489.62721006657006 1037.0720036808816,492.8960729950376 1037.1092135653198,492.9024049618201 1028.1594717697772,503.10055323569753 1027.8573508097506,503.69519135287914 1020.144273334201,503.8294927526185 1020.0608241608606,503.81965756033964 999.6517486764242,496.13149915656317 999.5761638230942,496.0940749153705 996.3118884808682,499.45118722472756 996.2198468097376,499.4139913760627 976.3373166764395,478.20098961666 976.0853671653203,478.01030046398586 954.2406163742016,471.29073992508705 953.9491268097663,471.3969554184477 952.6153963919969,461.7611577401148 952.4049530142111,460.09034816842535 917.3632907208703,463.68748059965213 917.1007826319728,463.65421994965067 881.6652489786393,448.020146743529 881.1933897786257,447.388801414625 882.3953200186261,457.79957686335905 882.5869035919786,458.03717800608496 894.781405565318,463.1444470402384 894.8163580986329,463.23167217037184 886.866040303099,466.7956779790438 886.9332511119901,466.93482152469 893.6439918764117,469.57644527449514 893.6198163741974,469.77711838079625 886.5406904719894,474.212438919716 886.3898120364356,474.2329117516819 879.3832126408706,468.63800024538426 879.3165843742208,468.65259287250586 879.0180314853096,476.74490382893777 878.9462331564173,476.8953323891946 870.3275937964099,485.5258436616604 870.262349067536,485.5219987333002 856.6029718586542,476.36057393844015 856.5524363208569,476.3227968106257 856.4938180097561,470.83352454434856 856.4877741342243,470.7592068873964 849.7489985253087,470.76282662339867 849.6850645164268,470.76079052192284 842.8407759475413,458.51588459173576 842.0531788630942,457.9365936487483 843.9496450675251,446.78506140878375 843.9658834319744,446.07346572641467 840.4051669164219,430.62135490715804 839.9416089430924,430.1287059191854 794.8053637519661,421.8041663178919 794.7790037164414,421.7849191861496 794.426565671969,405.81130502537775 794.4487750941953,405.7903534674878 789.1889285519901,392.59957835641757 789.160311165313,392.4193509861397 780.1448149164098,396.0130242461491 779.4400116453071,396.2873683781108 766.3597542231037,389.72787708376194 764.8094637342037,389.75302636748887 761.1057331030788,391.76221270076707 761.0598579030957,391.7630056667585 762.1966162320059,404.42508728360184 761.8076964808752,405.4282866239118 751.0937255653153,409.97416309184695 750.7602201430891,410.0498093556998 736.7806631653111,393.63267408810856 736.5850746141987,392.9959405378649 723.916674543103,396.7042057026155 723.1311163564278,396.0572003144952 707.8875155742171,376.937055130289 707.6764896541899,376.37536614352206 713.8113146142168,364.5118030123303 713.8505633964269,364.4683947100165 701.1730611030835,353.97379036745764 701.083640871966,353.85170205007665 703.8125599119994,341.4004298695108 703.8092831119902,340.07845009805527 687.4283414586571,335.76691066343113 686.747276783095,335.57129975725906 683.6883475741961,323.03644769950546 683.6788084453037,322.995955333321 675.1128163386493,323.8865535846016 675.0251437341976,323.9160433436372 664.2505884275488,315.52794456248006 663.2094398408553,315.23958032243894 643.0301044453117,329.3066162538343 642.4934374230979,329.447699211425 641.8105523030863,345.5276257621044 641.704820889765,345.88975098065924 647.7556869519649,355.66236727679274 648.2810672186497,355.81449079333464 656.6481211564278,346.5257885039791 656.7555273786602,346.1550509580156 670.3528638408643,348.43657738840915 671.0560651208689,348.59597682385714 674.4093237875386,358.92499476581355 674.4327711119731,359.0016187641194 670.5810019386299,364.60983991244933 670.0000617075311,365.1080686441455 672.4635599475478,372.04607594877956 672.4621035919881,372.0821122936795 668.5563036275453,374.61887505706176 668.5304533164199,374.66794108922835 671.6532437164169,383.10210896944403 671.843953476422,384.2737199938601 664.4847704008753,377.6356172713458 664.4420263653046,377.60978252935814 644.8621269164323,377.68683347800464 644.1734163742112,377.9602501555964 642.2620225253231,369.8288882885135 642.1145665253171,369.27800542748076 631.8062634497655,373.95868899455303 630.9260421519757,374.745902730694 627.2268262230973,383.79809948792166 626.5648398053199,384.3274224769884 618.3417466141873,380.11195636954284 616.7700476986247,380.0219920518611 606.5666022230762,384.5242178328371 605.27474202753,384.34124462653193 580.3375658497571,414.63719654945083 579.4425625431068,415.0356630616042 559.1552383830895,412.7888581020415 558.280915325322,412.6376863131772 543.1392594319659,421.13843804705897 542.9827012097703,421.2381845866366 529.8819091741934,405.18581261279536 529.7680949875394,405.0478703536973 512.3175329964324,396.86901414522794 512.3070472364379,396.8694672261808 519.0182977253171,387.3130386120792 519.9433747742041,385.9930795315776 514.3944416542254,378.7459330425517 513.2672952719622,377.27392976817276 476.6713375119907,367.1257577196265 476.6080588631048,367.0796315282095 472.25894426754166,360.95334072981854 472.1757135475236,360.791483876721 476.52359024087855,355.56476768800707 476.5372799830693,355.45651242261005 471.1435215475394,350.1959539777635 471.1128652630905,350.1204512594449 472.30729527197036,335.0359459662031 472.29535315641624,334.9599686193432 461.6202669342056,323.80375532964894 461.5768675386389,323.7470441234363 463.22939418752867,313.51832484823893 463.2225493164333,313.39308275453 458.5663621519816,311.2346533320269 458.47184467640545,311.1176877445577 455.98701082753905,300.8410921453214 455.9486358586473,300.7571241088189 441.76482501421197,290.37302345378333 441.7030755386404,290.26373048051386 442.675921049773,280.8411242421752 442.77072979642617,279.90157762298253 418.1483448719846,257.4695520031709 417.98355824088867,257.38506273329034 409.3750405519859,257.18610361141685 408.1029139741913,257.0268903650321 403.35344723642993,273.01039190522346 403.289513227548,273.24641674323715 384.3289289786371,264.5405206265895 384.1271509164253,264.4106238574058 376.8961999475323,241.95846031819013 376.78231294309444,241.7784148560931 355.4513643919672,231.2614755934955 355.39296453421775,231.20978050724437 342.2377048008675,208.7119568804373 342.14275041864676,208.55089663385655 350.54679578754076,196.61724339967253 350.7005869341847,196.10234810744072 366.0866192897556,198.08789117777263 366.18106394754795,198.0820932475362 423.65191251643773,180.1965125465103 423.6776171919955,180.2098180597131 432.8510552008702,156.66362557333554 432.9302081253154,156.55736275975136 449.9718254764048,160.633200458531 450.23913953865485,160.697476696896 462.0867376186543,155.60212581830632 462.8537272719732,155.56344269150935 461.98493836530906,139.63707852954752 461.46596606307503,138.6334024822899 467.5967132275291,122.78870443412228 467.59736858755423,121.6264723685926 439.3515710408574,99.11052987119541 438.45329093419787,98.44357227179347 438.9193975297567,80.77999344011545 439.1246708453291,80.14015418549019 458.1492619208766,50.02715948137114 458.1858164453188,49.708085314388825 441.33578266752374,45.42588043786594 441.30199521863324,45.43021263189797 435.9554227030785,27.782087179384632 435.60356720087657,27.300484758223263 416.3903780808796,19.023621671793023 414.95783393863894,18.40164541034386 410.76287457866783,17.26135607196551 410.21215372531515,49.9617260610284 410.08901886309104,50.2410144995701 384.6660024719786,74.22151116878734 384.42635916530344,74.50454880376122 360.2033069342033,86.71284428896973 360.05650629422234,86.82812954715695 351.7818581164065,86.79976392828752 351.42971134309846,86.63378488927623 341.59101011643725,73.20443218059148 341.55780520975895,73.14962377514524 321.12965146753777,82.91934418064551 321.08836378755586,82.97710479739538 271.77026643643694,77.61889075782159 271.4399649964362,77.55337667958878 248.53578835643202,86.47088115199944 248.0505306853047,86.70657877877596 243.16642387643878,83.5451378822508 242.74750320085514,83.69961997890272 241.81965907644553,98.37341368712435 241.54972357421138,98.70472997232349 223.7446846408602,101.41235898359804 223.4535591653148,101.37580108334436 217.5449790408784,151.43807036172433 217.45876279195727,151.53819894622205 200.78778792977755,152.64563153259581 200.43083518308777,152.64540397245213 187.61199358308295,138.0329406315322 185.02718092532086,136.93340447338772 164.54863728087003,173.82734641305063 164.31547475642947,174.5376211242728 158.173877743091,179.4625435466914 156.89374120974753,180.546207644209 146.48334760974467,175.10822259865012 145.7770879830823,174.62269423780157 135.4687849075308,178.19564468418315 135.41016659642992,178.22771555855064 131.41458231197976,192.03974518999524 130.87114323642527,193.11463126563825 118.12730394753817,193.68935800748653 118.0465490319657,193.64172015653816 99.85623123644109,221.59170744679062 99.00637495199408,222.768506391676 86.43613324531543,227.34705273843787 85.83378458752486,227.67337903415677 91.73180613418299,252.21427393307744 92.1124246586296,252.8461833980145 71.01019674753843,274.1539505177679 70.98471052533205,274.1659842639237 79.11059198309158,293.55104905083493 79.31120496087897,293.96209175950565 76.68350263197863,298.07938353807907 76.66267674752817,298.8965180243576 81.13711073865488,317.1232223417937 81.30743152085415,317.6750870413561 72.45599372529614,334.3219815191441 71.52035809863082,335.90423476943755 49.82240794752215,353.0721214448021 48.161361618655064,353.7560263342347 33.283597351972276,376.5440887416807 32.55862355644422,377.35981943662404 37.06254874753722,397.450993508366 37.03334881864794,397.6942948321411 24.3627642141837,409.50510861388824 23.57225441864648,409.3884672064923 51.08186423198276,430.271339126546 51.1540994675197,430.33507114534217 58.63641740531966,447.2606981897879 58.733920409740676,447.37012914353176 50.131665049750154,458.0891106893577 49.80762593866166,458.1219221630926 48.91335080976205,465.9766469844944 48.80820193865293,466.1853653054022 41.512297511992074,466.4987241024682 41.332801689761254,466.35064249829514 29.194005316432595,478.97301373604927 28.650493423094304,479.06971390654866 27.95566618752855,488.80716500486955 28.01858074752454,489.0078804281838 38.10770231199058,490.8237843077695 38.112071378640394,490.8521661601007 17.261356071965565,524.9685707329663" stroke="#009edd" stroke-width="10.454286298046268px" fill="none" stroke-linejoin="round" vector-effect="non-scaling-stroke"></polygon>
  <polygon points="17.261356071965565,524.9685707329663 23.958989636437764,529.5726268729377 24.11838775196884,529.5821184389388 27.233823556412972,544.2210068865134 27.520070240851055,544.5260102228822 34.44613317419498,543.0406279107738 34.70070412532732,543.3372783355044 45.340036818630324,565.8052736474965 45.40200474752419,566.0446632052954 52.62836819641598,558.5252971448535 52.67992318309916,558.5075663609059 62.273738223088,561.8239132954513 62.347939538642095,561.8379163764221 61.39373537864958,556.4535798155302 61.56158035643239,556.2657616061952 74.38653864975277,549.0577071241314 74.43445274753685,549.073181888878 71.75577797422375,567.5160954907369 71.74762238307812,567.5880231337396 62.96193904088068,584.3783326267185 62.77173900530397,585.1258284162068 67.53118177863144,595.3491936739047 67.67004528087637,595.5860837068794 85.63856012533142,586.5192000767311 85.74334490752153,586.4697599214596 103.9356287830924,595.2092486265792 104.29243589421458,595.3048401614542 100.50729498752116,586.528794622227 100.35394074755095,586.4126440699074 103.40580663197397,576.7793024843013 103.54787411644429,576.6298264484249 117.72840816087046,573.3217176725193 117.81294960088053,573.3124595188456 127.48569911199229,562.1010381165725 127.56878419641362,562.0146485005425 133.01963176975914,564.2920137582732 133.25002721864803,564.3053386683932 140.3830382764172,552.5408869403509 140.4945222941933,552.4780882084488 148.7087317164296,556.1661487999409 148.84082316530476,556.1513536851016 154.72020336085188,547.7959907390068 154.89897100530288,547.682355763438 152.71218032086108,553.8054302008422 152.5378545608728,554.1037162795583 155.50576154755618,555.550058753699 155.74562330755361,555.630472734545 171.59251937865702,545.7022904594087 171.77674835642756,545.8030519781496 187.919575876429,561.1917382057472 188.28985427641965,561.372989583022 170.3699817075285,601.2852420586605 170.01929128975098,601.7674330152404 192.41257840088292,626.1274877985161 192.36772264975662,626.4257174581762 196.0881285519754,606.7919863700117 196.41741054309023,601.3457277480084 213.90751258751334,599.7033369416204 214.06887678309067,599.6715132981808 207.80683916529597,587.4268366166834 209.34533317420937,585.9349455174561 222.91762032088081,588.4056810524817 223.16847756530115,588.5828915571074 219.9033284097568,583.7693338531571 219.7584210319801,583.6370351677506 223.66349281864314,576.5094776205988 223.8000989697648,576.3693713808643 229.85249420530818,579.7330637062296 231.2648678230944,579.7957182007121 227.23505918310912,583.626875699123 227.05833043642997,583.9598795193342 229.03293011642018,589.3770584490012 229.4249082142087,589.4341711998604 238.16529889866433,585.303726842878 238.34981914754098,585.2243724766922 241.1775519119874,575.9758075300524 241.1371380453238,575.2947976300966 247.33050849863866,579.6521207663791 247.4730128897536,579.6593458035532 248.14504816085173,569.4521242356896 248.15400474753187,569.0708180434776 241.06177164531618,559.1023914908619 241.02405203642047,559.0551851766104 243.13088880088253,554.013473900679 243.09775671198804,553.8760205787585 231.85163347643174,540.5539425814677 231.7646162319761,540.541289704186 238.65143038308088,532.2750576131984 238.77674977864444,532.0983421448946 256.51603425863505,532.8157084810846 256.5587782942057,532.8031667975047 254.8124623475196,552.5518428268297 254.8005930497493,552.6362143736951 265.4103617253022,556.9386515152619 265.46431969864716,556.975130539784 267.60516236532203,571.1242169813813 267.6486345786434,571.1490569224152 259.53032616975906,575.7983303042747 259.48532478309426,575.9376477171936 263.85912460530017,587.5435493861478 262.4676496897482,587.3792032870297 269.40106721864504,591.5294680589177 269.4289564275423,591.5319511253656 268.56300741421364,599.6027877070337 268.6063339919674,599.6693691513246 278.6974944542053,597.1735251297978 278.86257235643643,597.3253148862605 279.5126894764435,603.4629103572261 279.49586856975293,603.6501149115829 273.24147681864633,609.1451121131577 273.02666437421067,609.4648721315061 274.8123747386453,615.7501345977398 275.3459834142013,616.3747966290575 270.83514053420004,617.0864310693614 270.23555895199024,617.5587806430012 295.47026856975936,627.3165617163795 295.59369470308957,627.4270984815994 311.52848183199603,606.7049904229389 311.4082596808912,605.9282266938426 323.05888567197326,598.7960172812491 325.0244559475577,597.7199662785897 330.3909805342155,578.0393330745901 330.0600237342187,577.8628786109075 335.7288877341962,575.7695410052438 335.75320887197813,575.7587026769797 329.68260919196837,572.7994198648703 329.57826131642287,572.681659422411 332.61738408975725,556.2924153421227 332.72500876531194,556.123118721971 347.48946856974,550.1028651345441 347.7796474142124,549.661671510843 341.77341864975824,541.4668625300146 341.67635255198184,541.1016286007107 350.6925769786649,538.1647561920436 350.7798854941975,538.137980624193 344.59772897865696,530.68290290605 344.58964620532424,530.2018915262051 353.003085067543,520.7109646447971 353.226781280875,520.5163555712243 347.11889889864324,512.225838987597 346.9423886053155,512.0204616790325 340.81251525420885,515.4237250278857 340.69709907642755,515.3031281252661 346.34419056088154,510.3723288156652 346.3682932453121,510.34203552970206 341.14041370754785,506.9257944393648 341.0799749519683,506.8412391373458 347.7180435742084,504.61652848350417 347.8922236986582,504.41587049540607 353.2533597697511,491.4074750482286 353.54492215199934,491.0403227677779 363.7682468808671,492.7799491170044 363.97497655197003,492.7132371375664 372.0505409253128,481.89328327370816 372.19348222307235,481.77170745595134 391.2857938319685,478.6067956293445 391.63124136974875,478.41927472013407 395.93448076529967,468.6938820675604 395.9357914853208,468.55576110331816 405.4154282497657,469.5775764665777 405.4649443386479,469.55450014368756 405.1899844097388,457.33738310230905 405.20156243643214,457.2990270669724 427.3644540986461,457.7040835408879 427.63482650752485,457.9115889596614 433.4264612808656,445.49732443888564 433.5898643742148,445.14548029977954 427.28879642753236,450.2965052089166 426.5337488897676,450.92838264792584 420.64686846309996,440.01524647258697 420.5476906497679,439.9188165405248 396.7587051920018,434.97644086530266 396.705693849759,435.0116432662798 400.6329022408645,429.72095400846223 400.6411306497648,429.4094213420503 394.8153443386436,425.8638005383436 394.6276201075125,425.77311927941986 393.59054931642095,414.64444347992315 394.34741729866437,413.24237095170605 387.43227703198863,404.85012985574207 387.356910631981,404.7921439608071 374.9553877164326,418.52152630375707 374.85730216977026,418.51960147492713 363.47581068530053,409.99318791060426 359.92208467641103,409.11396255936774 362.9089971030953,403.4766856396199 363.12570280976433,403.09093264735196 392.39852229420285,377.30633670383025 393.1494192186401,377.32401320609273 403.38089953865347,357.2871876884346 403.55143877420414,357.1729281479965 429.61277580530805,350.50850690935107 429.83588947642784,350.44638191388 445.26269978752316,354.64566797213405 445.43717118307904,354.64793513407125 461.64240353864807,348.5051668186242 461.99564257865495,348.2542764661229 465.43358832087324,340.4332413715055 466.08203063199835,340.0352490851255 473.6134277519777,342.2424254638499 473.6432102231083,342.07665790230743 470.7916660453084,331.92827252597266 470.73916442752306,331.8211042971997 461.43691176975335,323.36571643795827 461.4096051030974,323.33055521402633 463.2225493164333,313.39308275453 463.17325168087336,313.2765755842301 458.5663621519816,311.2346533320269 458.47184467640545,311.1176877445577 455.9486358586473,300.7571241088189 455.90545491643206,300.7039064618038 441.89888254310426,290.4900336521568 441.76482501421197,290.37302345378333 442.675921049773,280.8411242421752 442.77072979642617,279.90157762298253 434.0243680541935,270.2966570736207 433.6051561075619,269.78756835798043 418.1483448719846,257.4695520031709 417.98355824088867,257.38506273329034 409.3750405519859,257.18610361141685 408.1029139741913,257.0268903650321 403.35344723642993,273.01039190522346 403.289513227548,273.24641674323715 384.3289289786371,264.5405206265895 384.1271509164253,264.4106238574058 376.8961999475323,241.95846031819013 376.78231294309444,241.7784148560931 355.4513643919672,231.2614755934955 355.39296453421775,231.20978050724437 342.2377048008675,208.7119568804373 342.14275041864676,208.55089663385655 350.54679578754076,196.61724339967253 350.7005869341847,196.10234810744072 366.0866192897556,198.08789117777263 366.18106394754795,198.0820932475362 423.65191251643773,180.1965125465103 423.6776171919955,180.2098180597131 432.8510552008702,156.66362557333554 432.9302081253154,156.55736275975136 449.9718254764048,160.633200458531 450.23913953865485,160.697476696896 462.0867376186543,155.60212581830632 462.8537272719732,155.56344269150935 461.98493836530906,139.63707852954752 461.46596606307503,138.6334024822899 467.5967132275291,122.78870443412228 467.59736858755423,121.6264723685926 439.3515710408574,99.11052987119541 438.45329093419787,98.44357227179347 438.9193975297567,80.77999344011545 439.1246708453291,80.14015418549019 457.29059468531705,48.49070721421225 457.2770505786357,48.46562750166407 441.33578266752374,45.42588043786594 441.30199521863324,45.43021263189797 435.9554227030785,27.782087179384632 435.60356720087657,27.300484758223263 414.95783393863894,18.40164541034386 410.76287457866783,17.26135607196551 410.21215372531515,49.9617260610284 410.08901886309104,50.2410144995701 384.6660024719786,74.22151116878734 384.42635916530344,74.50454880376122 360.2033069342033,86.71284428896973 360.05650629422234,86.82812954715695 351.7818581164065,86.79976392828752 351.42971134309846,86.63378488927623 341.59101011643725,73.20443218059148 341.55780520975895,73.14962377514524 321.12965146753777,82.91934418064551 321.08836378755586,82.97710479739538 271.77026643643694,77.61889075782159 271.4399649964362,77.55337667958878 248.53578835643202,86.47088115199944 248.0505306853047,86.70657877877596 243.16642387643878,83.5451378822508 242.74750320085514,83.69961997890272 241.81965907644553,98.37341368712435 241.54972357421138,98.70472997232349 223.7446846408602,101.41235898359804 223.4535591653148,101.37580108334436 217.5449790408784,151.43807036172433 217.45876279195727,151.53819894622205 200.78778792977755,152.64563153259581 200.43083518308777,152.64540397245213 187.61199358308295,138.0329406315322 185.02718092532086,136.93340447338772 164.54863728087003,173.82734641305063 164.31547475642947,174.5376211242728 158.173877743091,179.4625435466914 156.89374120974753,180.546207644209 146.48334760974467,175.10822259865012 145.7770879830823,174.62269423780157 135.4687849075308,178.19564468418315 135.41016659642992,178.22771555855064 131.41458231197976,192.03974518999524 130.87114323642527,193.11463126563825 118.12730394753817,193.68935800748653 118.0465490319657,193.64172015653816 99.85623123644109,221.59170744679062 99.00637495199408,222.768506391676 85.83378458752486,227.67337903415677 84.89035745863293,228.94548748890878 91.73180613418299,252.21427393307744 92.1124246586296,252.8461833980145 71.01019674753843,274.1539505177679 70.98471052533205,274.1659842639237 79.11059198309158,293.55104905083493 79.31120496087897,293.96209175950565 76.68350263197863,298.07938353807907 76.66267674752817,298.8965180243576 81.13711073865488,317.1232223417937 81.30743152085415,317.6750870413561 72.45599372529614,334.3219815191441 71.52035809863082,335.90423476943755 49.82240794752215,353.0721214448021 48.161361618655064,353.7560263342347 33.283597351972276,376.5440887416807 32.55862355644422,377.35981943662404 37.06254874753722,397.450993508366 37.03334881864794,397.6942948321411 24.3627642141837,409.50510861388824 23.57225441864648,409.3884672064923 51.08186423198276,430.271339126546 51.1540994675197,430.33507114534217 58.63641740531966,447.2606981897879 58.733920409740676,447.37012914353176 50.131665049750154,458.0891106893577 49.80762593866166,458.1219221630926 48.91335080976205,465.9766469844944 48.80820193865293,466.1853653054022 41.512297511992074,466.4987241024682 41.332801689761254,466.35064249829514 29.194005316432595,478.97301373604927 28.650493423094304,479.06971390654866 27.95566618752855,488.80716500486955 28.01858074752454,489.0078804281838 38.10770231199058,490.8237843077695 38.112071378640394,490.8521661601007 17.261356071965565,524.9685707329663" stroke="#009edd" stroke-width="13.382225793249937px" fill="none" stroke-linejoin="round" vector-effect="non-scaling-stroke"></polygon>
  <polygon points="772.2599603031013,784.0388447369951 773.3514259742115,790.9960192249018 773.4340741519882,791.9210717249407 783.0096119297559,796.9109802329804 783.477975876438,796.9587687075 780.2941641786492,812.1203394001677 779.8523787208724,812.47308803548 788.1755963564101,825.7480720957574 788.2847502053082,825.9947551333207 792.2828831119878,825.1318653764938 792.5602460275295,825.2576247064026 789.4151005697677,837.3522101927992 789.69027895197,837.8360324566056 800.5228700275366,842.2163058964397 800.7344056719921,842.2771998578282 803.0462972986461,856.8003865349492 803.1078283208662,856.914391870032 824.8424786319847,874.0250826999581 825.5780110053201,874.2825523961983 819.4627740275355,880.1856089047105 819.3661448364037,880.3900571604063 811.6074106141932,905.1263732675907 811.6127991297581,905.1499398116903 848.1326623119712,930.9199542786555 848.3251925164259,930.7833323955892 846.5477105608625,941.7225496990613 846.4206435386332,942.4097810259882 851.0771219742201,961.9323916806934 851.1148415830867,962.9798955235492 859.2921323919909,967.3313514222427 860.8968905786351,970.8330711364288 862.3978834319751,992.9977864299908 862.5172317697616,993.2248952367554 872.5736581519777,1007.6147535956443 873.9066603919673,1009.0146647781839 893.9755312186498,1013.9616725913256 894.8966761075317,1014.8168925678656 900.0620779919736,1028.7273546852994 900.143852356432,1029.021384986063 904.920771396417,1028.3765540987988 905.4648658319675,1028.5440608185927 908.6608380986618,1036.4823529889 909.1021138319811,1036.5336276130147 905.2981131208835,1059.0958631752183 905.4843809964259,1059.4234148835567 932.4439253164346,1069.1810311694026 932.6774519297651,1069.2958268740076 965.8884024720064,1072.8339008642688 966.3886606053165,1072.8641082754511 970.5305358053192,1062.9607817759716 971.043901138637,1062.2658818924574 984.9273386497698,1056.187091482705 985.1283157164471,1056.0304127363815 989.5629183830933,1039.23521761972 989.6837958941942,1038.836682114812 998.350567805337,1034.4458832551936 998.5391658497574,1034.0495521660814 995.5114026497649,1028.974246190035 995.5215971386242,1028.4569484304848 1037.5665820275499,989.8048306957971 1037.7464419386706,989.6076248277277 1028.006335983071,965.1261845806912 1027.9540528186371,964.976756435939 1041.1463039830742,950.4515869418137 1041.3552910053295,950.079317516549 1072.9225258497645,942.1747237601703 1073.6469171031094,942.1063147293207 1077.6571377608525,956.7719326243714 1077.697915716406,956.853777278975 1087.9579406053126,958.893127266525 1088.570338116424,959.1218346878632 1131.3065093519872,945.0122776354001 1132.3178026497371,945.032126426293 1138.8976170497663,952.0101574115433 1139.6709418497812,952.7602737476591 1156.9200170497534,951.0346544592212 1157.1690538497533,951.0604438409537 1173.7154374942074,964.0780491012738 1173.8843747386309,964.3605432012009 1187.945487627545,966.5307668334171 1188.1377993786482,966.6100187270531 1205.48583393863,948.6070344683867 1206.116363076424,947.9823394485611 1226.8054229164154,936.6793002802042 1227.215387005319,936.4718092206786 1258.2444984719805,934.3682541951312 1258.3524144186413,934.3545704486205 1248.4293173875376,927.0889162533895 1248.395529938647,927.0788203468583 1253.7940215297458,921.9892372575596 1253.8321780453152,921.9146327456147 1253.0030748275349,915.9888031491464 1253.3927227564163,915.3503846474377 1262.3916165519804,911.5597759993434 1263.118119520881,911.0455220451877 1264.4244704542107,896.9545684094373 1264.4302230586654,896.8380648371713 1248.4156276453177,882.9619308753354 1248.3783449430957,882.8329358931551 1244.3677601964337,859.4033556365066 1244.3671776541923,859.1708624541388 1249.7888252986486,847.4123845332397 1249.7402558408685,846.608811407441 1239.3539649253253,841.3262576515299 1239.2898852808758,841.1311012373517 1238.9643169964147,826.050834630154 1238.9472048186472,825.1037689719997 1226.2604546675466,784.6552891084029 1225.900807663089,783.6995218207776 1228.6273965342152,761.4750831197634 1228.6328578675348,760.1146312507954 1224.6969841608552,752.7529097166589 1224.6235838408938,752.6545546801099 1207.6097828808597,745.6105689763099 1207.1813230764128,745.3622854175374 1178.5219205520007,755.3570031957388 1178.3015739564034,755.2816087737046 1174.6581364453195,749.0872083042668 1174.3131258141839,748.6811559670496 1161.8204350408814,747.2420543099615 1160.894120089757,747.4402467518557 1155.118578045298,724.420926103634 1155.4246311653005,723.8221556154058 1125.8400059564337,724.9587780979091 1125.3270775297606,725.0112456877869 1124.3927526230873,718.357480929033 1124.3556155564038,718.0078411706381 1114.0736725164352,720.1542899966917 1113.937940178661,720.2990951261054 1099.779615556432,708.147980644022 1099.0614138141864,707.9386083995378 1096.5508752897622,713.678091046695 1096.1806697075262,713.9993797607931 1095.2424854586316,709.6338360560803 1095.0608779208742,709.2646566187505 1084.2167088186434,708.0717327489147 1083.8167935830897,707.9222775560083 1072.1098066319719,719.0441421364558 1071.5543526230795,719.3666379640381 1066.6990088364291,717.8117941961427 1066.5977921253252,717.74152790671 1066.017288800871,726.1524596121635 1066.0033806053289,726.2024491016673 1053.860652071966,717.1352521983827 1053.1709220808589,716.573788054553 1041.401020569745,722.9195963636048 1041.3803403208622,722.9360353254488 1036.4497757697718,717.5298276428985 1036.3760113608623,717.4112526158315 1038.0238048542124,707.3472035018967 1038.122400125303,707.2720807689802 1032.9296187564214,700.3960553728721 1032.9087200541871,699.7403622143793 1009.0036630586437,708.6367755558058 1008.9234906853126,708.7055894195255 1003.9361282675418,696.7618776043419 1003.8967338497641,696.7111853007555 994.0219878230891,698.7474018429675 993.6951816364199,698.5706608916844 979.965608089773,680.4439635783383 979.7328096541933,680.3160680688488 931.9675514142036,687.6018039174996 931.792643111974,687.6192675143575 934.4066556986545,661.6485661039806 934.2441264186527,661.5529778592208 926.4933293342074,666.2544138304693 926.3831560364233,666.1557904003457 921.5561383653148,677.3289748942807 921.5353852986482,677.3520762486478 904.7244546675247,682.6296346853087 904.6999878942042,682.6971291439877 893.6184328364216,683.2361803946587 893.5271921608837,683.2312225896494 892.3907251030796,668.8186732631038 892.4063081075328,668.7354953582726 886.5516859564123,662.3383069854208 886.3701512364096,662.11275286823 883.149348107534,664.1006630532102 883.136386543094,664.1565705728754 883.5650648008632,678.8988305761341 883.1910726941896,679.0512949562726 861.0613131208702,675.8308593929141 860.7945816008614,675.8590325470323 859.6353953964317,670.8501810326161 859.8548681786524,669.9998309344119 842.8709953253165,674.4901385487647 842.2617289786467,672.9788722190897 833.876252143109,681.8044828390157 833.7695740986564,681.9427414319107 835.2356144186524,694.0083162698174 835.3717836631004,694.3054998380867 825.5311891742058,699.1970805149504 825.0502277519736,699.8745203102044 821.1015381164216,696.8575169558208 821.0794743297629,696.8533489310248 822.6928250141973,692.1090295341601 822.6135992719683,691.7555041438063 812.2449302586501,684.298492426944 812.4451791475185,683.6012538918912 794.7496581519845,682.5061387655769 794.3356890853211,682.7308200028674 810.8137696541853,706.7646898932035 810.90479187643,707.1051660215344 785.7840420808825,725.2429581760698 785.0702822230996,726.4588134008409 782.4336233075483,761.5474310728641 782.4094478053048,761.7546854883876 772.2599603031013,784.0388447369951" stroke="#009edd" stroke-width="12.670549770651421px" fill="none" stroke-linejoin="round" vector-effect="non-scaling-stroke"></polygon>
  <polygon points="858.0206611741924,528.4405197936903 871.0101148275317,536.0225562632731 871.22973324532,536.3714419803619 881.917344125297,523.331677753511 882.2592964097457,522.732281253604 887.0410214230833,525.9156522100275 887.629316249735,526.4986285648229 893.1494135297435,543.6973008851965 893.2053375831056,543.9176963226382 890.2822135297356,562.9344368026686 890.1461899208552,563.0609135400482 905.2501990230994,568.9007706566226 905.3292791297608,569.049816203642 901.8553614053126,589.6006556563989 901.837593867549,590.1328381586391 908.3663630053234,607.2496437006084 908.3968008364209,607.3191495080864 913.694658258657,607.4501496612538 913.995250045311,607.2804474216573 915.1798496541924,597.727866048579 914.9990431119695,597.713082192382 921.4706502942026,595.5266073636049 921.5435408897647,595.4711938621076 934.6202302408528,611.8937008965331 935.131192587538,611.9364613961407 926.0706221341861,618.1199090293994 926.044699005306,618.2446786512483 929.3940255119996,624.1360524809315 930.094605351962,624.6285319983472 928.7433258497513,632.6755327309402 928.6544881608752,633.0240269752285 941.7684602142144,635.7373564557674 942.0919896008745,636.1165058617808 936.871828747524,639.8802273661167 936.3547497075233,640.016675021212 937.075208800863,646.7806686073345 937.0092358941802,646.9672737729452 930.3323553964328,645.4302145280126 930.0727600186547,645.4561482511963 933.7563929430798,659.4857284428763 933.9053781164293,659.6176181119408 928.5295328542015,663.5347089136812 928.5235617964245,663.7284708093684 934.4976051030862,661.6990654865258 934.5986033608679,661.6370684701869 935.1349062942209,666.3106572840516 935.1459017786437,666.3761430759514 931.6706733342035,687.4234495736346 931.792643111974,687.6192675143575 979.6519091030823,680.2958977365088 979.7328096541933,680.3160680688488 993.7403286586523,698.1181609005034 993.6951816364199,698.5706608916844 1003.8158332986532,696.6991317905231 1003.8967338497641,696.7111853007555 1008.8237303297683,708.4595034359991 1008.9234906853126,708.7055894195255 1032.8439850497707,699.7361944093172 1032.9087200541871,699.7403622143793 1040.747917920864,722.092800286835 1041.3803403208622,722.9360353254488 1052.7388942052967,716.6720953695803 1053.1709220808589,716.573788054553 1065.9245917697735,726.1845474654001 1066.0033806053289,726.2024491016673 1066.6339825608775,718.2949850976183 1066.5977921253252,717.74152790671 1070.534539645323,718.9882907105821 1071.5543526230795,719.3666379640381 1083.8757759830805,708.1173463473715 1083.8167935830897,707.9222775560083 1099.214403965325,712.6237823304145 1099.3386310941896,712.5829024013547 1094.2491053342128,703.6938891386999 1094.0098261164276,703.6755295927614 1096.9625141875185,675.9753311735149 1096.9195516986547,675.8358178690869 1085.5579394675333,667.1385226663588 1085.3911139386364,666.8089559755499 1083.2836946319912,649.4583635128402 1083.2650532808802,649.2448202137639 1073.7723093164277,634.0666769013369 1073.6732043208794,633.8389760358732 1075.6304733697507,628.4643284973899 1075.615036000865,628.1835925649102 1070.6131828453108,614.4881533527405 1070.5110195030757,614.2107301800606 1065.1660489786482,610.9310730854377 1064.9451926586516,610.7012448791684 1062.9255915919966,596.2124435408368 1062.7927719653126,595.8949759318821 1053.0689771919751,583.3155435109256 1053.017058116402,583.2283972722107 1053.3192518941833,577.5469977309003 1053.3866811564258,577.3619615845564 1068.035215058644,564.6133916153667 1068.0882992186707,564.5184238650872 1063.9306225608634,557.3400323817659 1063.7868802675403,557.1396811307968 1079.6490680719617,547.1796932420439 1079.8181509519818,546.6429123320886 1061.2981870764233,540.7786436367496 1061.2567537608738,540.7809030695098 1051.6438604630712,526.5758083363799 1050.6493152541989,525.097621580735 1060.4910020097632,497.82053809923303 1061.1298323742121,496.97427269947724 1056.837297191978,494.58883029499333 1056.497092534195,494.4421817680158 1056.5055393964176,479.3210204482638 1055.9200844631014,478.80076259817355 1047.0428691742018,482.91518799079125 1046.299836569775,483.0236426683295 1031.5529986675429,474.18484017273653 1031.5053758408649,474.20225905564797 1033.5783523386526,477.16135240614307 1034.1622052808707,477.8683576308867 1032.039931147523,489.13905179864736 1031.8680083741965,489.62721006657006 1037.0720036808816,492.8960729950376 1037.1092135653198,492.9024049618201 1028.1594717697772,503.10055323569753 1027.8573508097506,503.69519135287914 1020.144273334201,503.8294927526185 1020.0608241608606,503.81965756033964 999.6517486764242,496.13149915656317 999.5761638230942,496.0940749153705 996.3118884808682,499.45118722472756 996.2198468097376,499.4139913760627 976.3373166764395,478.20098961666 976.0853671653203,478.01030046398586 954.2406163742016,471.29073992508705 953.9491268097663,471.3969554184477 952.6153963919969,461.7611577401148 952.4049530142111,460.09034816842535 917.3632907208703,463.68748059965213 917.1007826319728,463.65421994965067 881.6652489786393,448.020146743529 881.1933897786257,447.388801414625 882.3953200186261,457.79957686335905 882.5869035919786,458.03717800608496 894.781405565318,463.1444470402384 894.8163580986329,463.23167217037184 886.866040303099,466.7956779790438 886.9332511119901,466.93482152469 893.6439918764117,469.57644527449514 893.6198163741974,469.77711838079625 886.5406904719894,474.212438919716 886.3898120364356,474.2329117516819 879.237941174204,468.7145832138812 879.1417488897459,468.83347325164135 879.4530448897458,475.5881735080365 879.1725508097625,476.4353363807058 871.7913039475279,487.6727414689412 871.5856665430947,488.41070746840336 875.7333671653068,498.93394784308106 875.5710563386565,500.0356900868682 860.8521076453217,517.9523557580433 860.3498834319653,518.6502430784785 858.0206611741924,528.4405197936903" stroke="#009edd" stroke-width="11.635801037192786px" fill="none" stroke-linejoin="round" vector-effect="non-scaling-stroke"></polygon>
  <polygon points="406.4896361075407,723.656642496444 412.65519016977123,754.8832544315119 412.86847344086345,755.1263184428135 437.9965050142091,770.9759250450188 438.16544225866164,770.98739971752 438.9156838231029,767.0256823225682 438.9754672186573,766.3544738507517 443.7036711653236,767.7397463954148 443.7113170319826,767.7292835732987 448.225800800883,751.7339024536523 448.38789317421106,751.7477444243304 473.1544572986495,782.8269675212832 473.27162110309655,782.9159331555311 468.5732724453155,789.6900559907117 468.52972741421036,789.9087870431576 476.8236723031041,803.7258702248109 476.842969014182,804.1314020192112 483.9603242497724,801.6016980125314 484.0459579564231,801.5883183784354 520.8072848897609,834.2818729377504 520.9802999297572,834.3489558869223 522.1554332275591,842.4181994532883 522.4451751653287,843.5902234802525 528.918020249741,847.679078782985 528.9952070941981,847.6804268550804 528.1604969075306,853.5243447031571 528.1452051742126,853.6189242581931 532.2940708808783,853.5606264282578 532.5045870764188,853.6978901986913 531.6384196097679,859.191528554762 531.4271752364184,859.6079937469949 541.434522436426,868.0631925166999 541.6014207831067,868.1702119888832 524.5493176719938,882.6773331869372 524.41540577864,882.8421418114194 532.849087983097,887.9835178872636 532.9300613519626,887.9541066089041 531.9907120186435,896.3185097655842 531.894665369753,896.5473660195166 538.6170569786518,903.0607824360959 538.6468394497533,903.3247370950594 553.2701784008714,877.7393561297249 553.7078860631045,877.242861722134 564.680651360879,884.2308705553041 564.7405803919719,884.291830113656 567.3336942764181,879.0223388304039 567.5562982230804,879.0572563785863 565.4916957697606,884.316303729418 565.4520100808768,884.7267403547339 571.7905063653197,890.451090394843 571.8981310408744,890.5191148857157 569.4037580630866,896.2824808126643 569.4044862408664,896.3538652571042 572.6137113431068,900.2485539552617 575.4536046764297,900.9098188298995 573.4750728364343,907.2753759972293 573.4763835564263,907.8471199800442 618.8947976364179,911.1572826426454 619.3159756630957,910.9625991253743 633.5330642319932,927.919242115564 634.1853658853106,929.0060952197564 633.6894040008665,947.4410659064633 632.766147396429,948.3439704428201 637.2006044275367,949.6801342420695 637.2726940275352,949.7041301726313 686.8924026142231,935.1597746083899 687.39608318311,934.8497628725054 729.6312681075251,930.9048114758662 730.4571673431092,930.5711079089415 737.631902987534,942.9365254495387 737.844603716414,943.0586504835846 757.8692013342115,934.4316255996564 757.8871145075427,934.4408228593711 786.504865263083,965.7073026197941 786.7707229697444,965.8950661029121 794.5399429519784,961.9854175590481 796.0370036453132,961.5783613530839 822.8451598053107,973.0038234063286 823.579090187548,973.1682487603721 833.5336444986351,961.6531361565612 833.6839403919766,961.5356488633879 851.24489413419,959.6822759515671 851.2939004986438,959.2006488381921 846.598464551982,942.8902098237631 846.4206435386332,942.4097810259882 848.1218852808706,931.3326220874042 848.3251925164259,930.7833323955892 811.8017612630683,905.2366870511069 811.6127991297581,905.1499398116903 819.2669670231007,880.6963351632912 819.3661448364037,880.3900571604063 825.1551581697604,874.7394374231408 825.5780110053201,874.2825523961983 803.2997759830796,857.1576773387533 803.1078283208662,856.914391870032 800.72377427643,842.394605920741 800.7344056719921,842.2771998578282 789.8442885519944,838.059964538119 789.69027895197,837.8360324566056 792.4428637697602,825.488351305281 792.5602460275295,825.2576247064026 788.5640792008671,826.1442254082685 788.2847502053082,825.9947551333207 779.9164583653219,812.5301930820606 779.8523787208724,812.47308803548 783.4770292453068,797.1434004925286 783.477975876438,796.9587687075 773.5424270053227,791.9152241287557 773.4340741519882,791.9210717249407 772.3661286230963,784.2649088866638 772.2599603031013,784.0388447369951 775.4507625075239,783.6437363472105 775.4944531741967,783.6763528608462 782.5902543475277,760.8894324826724 782.6076577964304,760.851289024944 784.9212242319954,734.5225855996578 784.6499051919855,733.2440931074416 762.9301097075113,718.260302695493 762.8604230942037,718.198707595966 761.4832932808677,701.1704638112315 761.6412350408682,700.4184711312446 748.836156000867,702.435513846056 748.8218108986512,702.4565771150992 741.7482191475465,696.0387756100718 741.6844307742031,695.9396426393105 767.798342240847,672.4103052037281 767.9199479297567,672.3373884509965 766.5249777608733,663.5068675609837 766.5245408541996,662.9728068037111 755.5151482141991,662.7227951414279 755.1723949342158,662.558111451468 750.9357109875309,655.0965518096673 750.9036711653062,655.0676915390686 721.1176319830884,653.5077486917035 720.4835347742082,654.1607272234723 710.3268383119903,639.5813945344453 709.4971525519686,639.1344954426495 691.4435865430751,646.8940975634068 691.3238741164278,646.8936465540937 688.5083019208578,634.1755083319767 688.4900974764205,634.0578801544652 691.6988128542034,621.8721236499005 691.7623099564116,621.7516488736765 679.65249505865,602.8136136393186 679.4512995386503,602.5606182853553 666.1374426853326,615.056759274772 666.0279247475155,615.0962455773297 659.5086947386626,609.8656413953031 659.4290320897599,609.6274593410526 643.8265124808713,612.3615824316403 643.743063307531,612.4194609154547 635.046072018642,606.8519017860272 634.9214079831036,606.8514504460509 627.017547929765,589.1992861643412 626.9685415653112,589.1325790815208 621.6073326764345,589.1843871275232 621.0906905431075,589.3447773025291 620.9664634141845,598.0361818931451 620.9200056719892,598.20523574256 614.2715969252931,597.1082949040901 614.0368324097544,597.0892223839364 610.1845535119828,603.0336577087619 610.053335876426,603.1036202527939 611.7933894941998,615.9178926482018 611.7446744008812,616.2856724488702 601.367340071989,630.5361353741355 601.4424152008614,630.7696020711046 570.0403310764414,638.2817346240954 569.7829202319735,638.4202161276517 554.3594595386421,658.837548093321 554.3210845697504,659.0707811775101 541.5546717697762,652.1448337982765 540.8124401608839,652.2506979560749 536.1566170853221,666.3244081797347 536.0369046586457,666.6795633115726 523.1239824897675,665.902637329742 522.9927648541816,665.8448154710386 519.5019534053172,658.5856011348988 519.3358560542001,658.4319523749473 510.58272225862675,667.6148354462821 510.42485331641,667.6007467463969 502.6241032364087,660.4362287515287 502.41016460532046,660.4156001845586 495.7094726941905,674.2407430389176 495.7094726941905,674.327969614129 487.2385077875406,663.989073276407 487.2902084097623,663.550827585048 478.5072921430874,663.3413972046874 478.4812233786397,663.3372266238475 470.07885281865674,674.0195204934316 469.79937818753024,674.4100120539697 474.7150150941925,675.9513276981925 474.70176225864634,676.2478205910338 468.83170273864016,690.9587680512377 468.84298949419826,691.216311559172 445.4054226319604,693.6956972400694 445.3614406942106,693.6950213050914 441.83152609864555,699.100882031813 441.69710448086335,699.2454049818516 443.41807984088155,704.72336547144 443.3526166586562,705.0114802127682 435.3931966408745,704.4718551541773 435.1247903119838,704.3537023487479 431.95670725421587,697.3541855269614 431.52795617866286,697.1223548523885 418.10516392976933,700.5453058522871 417.6493974586374,700.626069904134 406.4896361075407,723.656642496444" stroke="#009edd" stroke-width="12.20640817455151px" fill="none" stroke-linejoin="round" vector-effect="non-scaling-stroke"></polygon>
  <polygon points="289.22359550309557,638.1506956143166 294.701094383101,648.855389050037 294.8243748808636,649.3716609751318 304.2073824542058,645.557966184515 304.4422197875283,645.3942455611286 313.5314076275281,650.6173907282682 313.7334041430913,650.7774878860837 314.16259212531804,659.9004471069529 313.9785087831151,660.0259104372271 318.5242313786475,663.5766399929744 318.65894426753584,663.8024135041378 326.8341961786391,663.1023209618033 327.24554380531845,662.5784010499228 337.2933776897735,672.5693242451416 337.31551429418687,672.6039229405615 349.60351429421644,671.5407074235009 349.66431713865677,671.4817645124313 357.5432006941883,678.1768445480593 357.7971162853246,678.2949412448834 356.2766082675553,674.7337854808466 355.4239120897728,674.0043064800593 360.18306359199414,667.3822023685825 360.41069196533135,666.6542032152101 366.12448453418983,671.3705279086462 366.9832245875332,671.393406377556 369.95469964530275,665.9930331734249 370.3334249075451,665.5226800976125 391.0192807653111,661.1630707754848 391.17256218752664,661.1977894144111 406.5548808364438,668.4744646886866 406.9105956808671,668.9276609224653 410.63245793864553,692.8571934811225 410.68095457864183,693.0863384695876 417.5559722497601,688.8592812987081 417.78534824976305,688.8805751295331 418.2123516986503,700.0637603895484 418.2865530142044,700.1293184071583 431.2380686052966,697.0985859570246 431.52795617866286,697.1223548523885 434.9638630230802,704.0581502666209 435.1247903119838,704.3537023487479 443.10860428533124,705.037498318361 443.3526166586562,705.0114802127682 441.8268657608605,699.3127662887018 441.69710448086335,699.2454049818516 445.21689740532383,693.9879256776949 445.3614406942106,693.6950213050914 468.8028668986408,691.2220572666301 468.84298949419826,691.216311559172 474.67984410752615,676.3676118282492 474.70176225864634,676.2478205910338 469.71461829419786,674.7423502931233 469.79937818753024,674.4100120539697 477.89482181422136,663.7786301178021 478.4812233786397,663.3372266238475 487.2722952364311,663.5501512772498 487.2902084097623,663.550827585048 495.40232730751814,674.0298885593693 495.7094726941905,674.327969614129 502.3184142053251,660.4399486562215 502.41016460532046,660.4156001845586 510.34817619643945,667.4208619069577 510.42485331641,667.6007467463969 519.3345453342081,658.5493026406948 519.3358560542001,658.4319523749473 522.8419592364407,665.7689594115691 522.9927648541816,665.8448154710386 534.7357237875294,666.1770930763196 536.0369046586457,666.6795633115726 540.6282111830842,653.8107894225141 540.8124401608839,652.2506979560749 553.9634036453099,658.9567011272775 554.3210845697504,659.0707811775101 569.5676708808642,638.6027901468515 569.7829202319735,638.4202161276517 601.3226299564012,630.7943021125575 601.4424152008614,630.7696020711046 611.3967510586554,616.6746589422728 611.7446744008812,616.2856724488702 610.048020178645,603.2558448977979 610.053335876426,603.1036202527939 614.2602373519803,597.1808607039311 614.0368324097544,597.0892223839364 620.821847307514,598.1728469614791 620.9200056719892,598.20523574256 621.1034336541961,589.3665614349338 621.0906905431075,589.3447773025291 626.9273995208678,589.1633930233111 626.9685415653112,589.1325790815208 634.8761881430873,606.7282344898158 634.9214079831036,606.8514504460509 643.3590223475367,612.1116775528535 643.4420346142033,612.287908561415 659.2730564097765,609.6534100653116 659.4290320897599,609.6274593410526 666.0279247475155,615.0962455773297 666.1374426853326,615.056759274772 676.6513831653174,603.2930828857243 676.912507716439,603.038848481232 672.0997623297626,596.0062534481731 671.8955084631052,595.5148700889586 677.7043282319682,586.5382762890695 678.1102145252989,585.8755715396146 689.9409188808822,585.9028880925798 690.0017217253226,586.0411638225087 690.8488837519726,581.3886986812031 690.8801225786628,581.3358672482755 679.3104699564174,567.8476167744702 679.1488873075468,567.595927264545 675.3433574230767,548.0404293875508 675.3611977786531,547.1865837033874 681.3050217075397,548.9650843529271 681.5557333164215,549.2360619932624 701.5710830764328,530.5510404479028 701.6118610319863,530.5190634713254 699.5727448008729,513.0760498671189 699.8854243386486,512.8907949962922 707.088267645322,519.9072088619614 709.789661565319,521.7909080732534 721.814498116426,523.2905429100392 724.9477014586337,523.1091650023918 741.9929596986512,542.4614432448907 742.3323633608707,542.7934556474829 744.3800720897452,535.4416023635749 744.3414058497474,534.578181814988 758.1326560542111,548.6854078117794 758.2723205519615,548.830103325603 774.3080331208657,544.4157573617158 775.616859858641,543.7172957924522 780.3613021697565,549.076344613979 780.6632046764316,549.3630222922548 782.345149707533,544.581814352543 782.3822867742165,543.9632212559554 787.5376398053086,553.0346902782658 788.8931427386306,552.966357740519 791.7792025430717,541.0466117097567 791.859374916432,540.1436263515534 803.3377140453267,544.5116638078653 804.5965149697622,545.6869277002879 828.518101600861,522.5451380109916 828.6770628097765,522.2249814462011 835.7497807475338,524.6660571727298 838.7737574230887,525.6650122733736 851.7420939208714,516.4318911406626 852.0262288897538,516.3041760606029 861.6930073430885,499.49234004902604 862.4635650675518,498.4485862966139 869.7583044097591,496.46198461880334 870.7905692275272,496.5923466195126 872.3451559653222,486.87788460220685 873.1110533520005,485.40891248378097 856.6029718586542,476.36057393844015 856.5524363208569,476.3227968106257 856.4938180097561,470.83352454434856 856.4877741342243,470.7592068873964 849.7489985253087,470.76282662339867 849.6850645164268,470.76079052192284 844.2865729253281,461.7815221129312 843.8763903831023,461.22670336903315 840.4051669164219,430.62135490715804 839.9416089430924,430.1287059191854 794.8053637519661,421.8041663178919 794.7790037164414,421.7849191861496 794.426565671969,405.81130502537775 794.4487750941953,405.7903534674878 789.1889285519901,392.59957835641757 789.160311165313,392.4193509861397 780.1448149164098,396.0130242461491 779.4400116453071,396.2873683781108 766.3597542231037,389.72787708376194 764.8094637342037,389.75302636748887 761.1057331030788,391.76221270076707 761.0598579030957,391.7630056667585 762.1966162320059,404.42508728360184 761.8076964808752,405.4282866239118 751.0937255653153,409.97416309184695 750.7602201430891,410.0498093556998 736.7806631653111,393.63267408810856 736.5850746141987,392.9959405378649 726.5741593431048,396.32350195724933 723.916674543103,396.7042057026155 707.8875155742171,376.937055130289 707.6764896541899,376.37536614352206 713.8113146142168,364.5118030123303 713.8505633964269,364.4683947100165 701.1730611030835,353.97379036745764 701.083640871966,353.85170205007665 703.8125599119994,341.4004298695108 703.8092831119902,340.07845009805527 687.4283414586571,335.76691066343113 686.747276783095,335.57129975725906 683.6883475741961,323.03644769950546 683.6788084453037,322.995955333321 675.1128163386493,323.8865535846016 675.0251437341976,323.9160433436372 664.9486196453108,315.86463226846894 664.2505884275488,315.52794456248006 643.0301044453117,329.3066162538343 642.4934374230979,329.447699211425 641.8105523030863,345.5276257621044 641.704820889765,345.88975098065924 647.7556869519649,355.66236727679274 648.2810672186497,355.81449079333464 656.6481211564278,346.5257885039791 656.7555273786602,346.1550509580156 670.3528638408643,348.43657738840915 671.0560651208689,348.59597682385714 674.4093237875386,358.92499476581355 674.4327711119731,359.0016187641194 670.5810019386299,364.60983991244933 670.0000617075311,365.1080686441455 672.4635599475478,372.04607594877956 672.4621035919881,372.0821122936795 668.5563036275453,374.61887505706176 668.5304533164199,374.66794108922835 671.6532437164169,383.10210896944403 671.843953476422,384.2737199938601 664.4847704008753,377.6356172713458 664.4420263653046,377.60978252935814 644.8621269164323,377.68683347800464 644.1734163742112,377.9602501555964 642.2620225253231,369.8288882885135 642.1145665253171,369.27800542748076 631.8062634497655,373.95868899455303 630.9260421519757,374.745902730694 627.2268262230973,383.79809948792166 626.5648398053199,384.3274224769884 618.3417466141873,380.11195636954284 616.7700476986247,380.0219920518611 606.5666022230762,384.5242178328371 605.27474202753,384.34124462653193 583.2233343830922,412.27441935567543 582.5595275208652,414.14836621674834 559.1552383830895,412.7888581020415 558.280915325322,412.6376863131772 543.1392594319659,421.13843804705897 542.9827012097703,421.2381845866366 529.8819091741934,405.18581261279536 529.7680949875394,405.0478703536973 512.3175329964324,396.86901414522794 512.3070472364379,396.8694672261808 519.0182977253171,387.3130386120792 519.9433747742041,385.9930795315776 514.3944416542254,378.7459330425517 513.2672952719622,377.27392976817276 476.6080588631048,367.0796315282095 476.51601719200335,366.97683911340204 472.25894426754166,360.95334072981854 472.1757135475236,360.791483876721 476.52359024087855,355.56476768800707 476.5372799830693,355.45651242261005 471.1435215475394,350.1959539777635 471.1128652630905,350.1204512594449 471.28216659643294,341.1285303144577 469.3654570497638,339.6770535391442 445.61215230309244,354.5938632957877 445.43717118307904,354.64793513407125 429.88110931644405,350.4621399030038 429.83588947642784,350.44638191388 408.03715952088896,354.8147979945533 407.8047251741991,354.8576472063614 397.2510261875468,364.83492743362507 397.0050477342047,364.8224603747257 393.2523835564389,376.5755896121008 393.1494192186401,377.32401320609273 386.91133864976655,378.2832947800525 386.7525230764186,378.42889651842773 359.9914800186416,408.85259298773957 359.92208467641103,409.11396255936774 375.06141040086004,418.51960147492713 375.1613163919719,418.5053350943817 387.1433360897536,404.8177393048572 387.356910631981,404.7921439608071 394.3382422586328,413.23172674831943 394.34741729866437,413.24237095170605 394.59601719199054,425.70643845716035 394.6276201075125,425.77311927941986 400.342796214205,428.7367673373846 400.6411306497648,429.4094213420503 396.7131940808795,434.8562318519725 396.705693849759,435.0116432662798 420.23726846308637,439.87184650008925 420.5476906497679,439.9188165405248 426.20781651644575,449.90044648922407 426.5337488897676,450.92838264792584 433.50255585865307,445.0525677179866 433.5898643742148,445.14548029977954 427.64239955642915,457.8913362845523 427.63482650752485,457.9115889596614 405.25457377864586,457.28578913701125 405.20156243643214,457.2990270669724 405.4878091208702,469.4245259660565 405.4649443386479,469.55450014368756 396.05608645420944,468.55089688607035 395.9357914853208,468.55576110331816 392.0946537075397,478.0911681279576 392.0021751297645,478.1675116167498 374.07443824086295,480.971675267272 373.8277316097701,480.8767880020204 364.1082330852987,492.50936934547275 363.97497655197003,492.7132371375664 353.57164627641396,491.041566589356 353.54492215199934,491.0403227677779 348.21487927197086,503.907835083115 347.8922236986582,504.41587049540607 341.1160197519821,506.7939875879419 341.0799749519683,506.8412391373458 346.1107367653058,509.9888010092581 346.3682932453121,510.34203552970206 340.82802544084916,515.0742532330369 340.69709907642755,515.3031281252661 346.8409534408602,512.091671290229 346.9423886053155,512.0204616790325 353.0820195386368,520.1970912146826 353.226781280875,520.5163555712243 344.8225902764134,530.3764662663343 344.58964620532424,530.2018915262051 350.7600062408783,538.1212600097388 350.7798854941975,538.137980624193 341.75521420532095,540.8136648340187 341.67635255198184,541.1016286007107 347.7650110408904,549.5678072767078 347.7796474142124,549.661671510843 332.7607622942196,556.0712792916493 332.72500876531194,556.123118721971 329.55590625865807,572.5362367805246 329.57826131642287,572.681659422411 335.7481844453032,575.5718540752459 335.75320887197813,575.7587026769797 330.4110054230732,577.2290828912846 330.0600237342187,577.8628786109075 324.9704979742128,596.4813810631786 325.0244559475577,597.7199662785897 312.2651064719721,605.7995924708703 311.4082596808912,605.9282266938426 303.4060228097551,621.0744809318603 303.2982524986619,622.0447134563328 291.05889477419623,628.6628391740123 290.9004432897382,628.8085635979405 289.22359550309557,638.1506956143166" stroke="#009edd" stroke-width="10.393789048842475px" fill="none" stroke-linejoin="round" vector-effect="non-scaling-stroke"></polygon>
  <polygon points="671.8955084631052,595.5148700889586 691.5987612275239,621.5638295211284 691.7623099564116,621.7516488736765 688.4997094230966,633.9735215356668 688.4900974764205,634.0578801544652 691.2253516630917,646.7525932130557 691.3238741164278,646.8936465540937 709.3449633964228,639.209937407988 709.4971525519686,639.1344954426495 720.3999399653294,654.0810218711595 720.4835347742082,654.1607272234723 748.3920403742122,654.7899106553268 749.4172418675334,654.7745785524639 755.1723949342158,662.558111451468 755.5151482141991,662.7227951414279 766.311694489752,662.7419574824344 766.5245408541996,662.9728068037111 767.7846524986562,672.0166437439948 767.9199479297567,672.3373884509965 741.1933476808663,693.7039211149131 741.1434675030941,693.9288943073225 748.603503200884,702.3016999473075 748.8218108986512,702.4565771150992 761.2095712541959,700.1176035781718 761.6412350408682,700.4184711312446 762.839378756431,718.1599713369687 762.8604230942037,718.198707595966 780.1680437875511,733.9820133055946 780.2083120186471,734.0131959841856 790.5249163208537,718.5867443045172 790.4227529786476,718.2984758576531 809.939737867524,707.6198745035108 810.90479187643,707.1051660215344 794.1350032897499,682.903217718329 794.3356890853211,682.7308200028674 811.2764538142255,683.1882924865386 812.4451791475185,683.6012538918912 824.5758199297597,699.1695952513292 825.0502277519736,699.8745203102044 835.3012960542001,694.3770354444605 835.3717836631004,694.3054998380867 833.7879969964451,682.1603261703167 833.7695740986564,681.9427414319107 840.9818837164385,673.5454047684943 841.1346554141965,673.4179439091276 859.4127914497403,669.9665830475606 859.8548681786524,669.9998309344119 860.7538764630917,675.6864999234422 860.7945816008614,675.8590325470323 882.612753903104,679.080367938328 883.1910726941896,679.0512949562726 885.7704240186322,662.3053925995227 885.9284385964165,662.1427366276075 892.324024018646,668.6600941400284 892.4063081075328,668.7354953582726 893.4929678053195,683.1818698697934 893.5271921608837,683.2312225896494 921.0577006764252,677.571707661733 921.1328486230814,677.5705807711529 933.7546453164141,659.694384516366 933.9053781164293,659.6176181119408 930.307670169761,645.6805308204821 930.0727600186547,645.4561482511963 936.945738791972,646.9905007157395 937.0092358941802,646.9672737729452 936.5228131386575,640.9328952847027 936.3547497075233,640.016675021212 942.0766250497727,636.5829394753418 942.0919896008745,636.1165058617808 928.9264625608521,632.9913204902005 928.6544881608752,633.0240269752285 929.9220272186394,624.9268826385996 930.094605351962,624.6285319983472 926.044699005306,618.2446786512483 926.0706221341861,618.1199090293994 935.0690062053218,612.1967468814873 935.131192587538,611.9364613961407 923.9596347564257,597.359735553011 923.7082677875478,597.042838889949 915.7813244986646,597.1243203300874 915.3069166764217,597.3315218933312 911.1482205697575,608.9882778278152 910.3855271653047,609.3157111985238 903.1538480186609,597.7854214811268 902.931462525321,597.339760283463 905.1006313075377,569.6511882699015 905.3292791297608,569.049816203642 890.2652469875356,563.1514797379677 890.1461899208552,563.0609135400482 893.0004283564231,544.4357520057565 893.2053375831056,543.9176963226382 887.9348596453092,526.9446425160459 887.629316249735,526.4986285648229 882.7481221519593,522.4793665015204 882.2592964097457,522.732281253604 871.3176971208486,536.3585621716666 871.22973324532,536.3714419803619 859.2732725875285,529.7888985742502 858.0206611741924,528.4405197936903 859.5636698853232,520.1455566867699 860.3498834319653,518.6502430784785 875.2744695297624,500.8378167969094 875.5710563386565,500.0356900868682 871.5856665430947,488.41070746840336 871.7913039475279,487.6727414689412 870.8858148808831,496.16914950017593 870.7905692275272,496.5923466195126 866.7115357697658,496.9252036015277 862.4635650675518,498.4485862966139 849.1845151119815,518.4435337403593 848.76253608974,518.8882573440242 839.1531380453271,525.4464641571576 838.7737574230887,525.6650122733736 830.0785865786493,522.680862129524 828.6770628097765,522.2249814462011 804.8595327830881,545.3365200644803 804.5965149697622,545.6869277002879 792.2325660275419,540.2640553886777 791.859374916432,540.1436263515534 788.8345244275297,551.2746201319715 788.8931427386306,552.966357740519 785.1460855297519,553.3513907079505 784.8549600542065,553.3936323524722 782.5530444630895,544.0706509107877 782.3822867742165,543.9632212559554 781.0457892808663,549.1591401737569 780.6632046764316,549.3630222922548 775.6783908808611,543.8768029258536 775.616859858641,543.7172957924522 758.5487368364302,548.9109790272523 758.2723205519615,548.830103325603 744.6221183831112,534.7463024590288 744.3414058497474,534.578181814988 742.5144806230855,542.8185344199046 742.3323633608707,542.7934556474829 724.9265114852933,523.130975586424 724.9477014586337,523.1091650023918 709.8452943475459,521.7861616126938 709.789661565319,521.7909080732534 699.5727448008729,513.0760498671189 699.3092172630895,513.1933738589469 701.6151378319955,530.4939790454846 701.6118610319863,530.5190634713254 681.6096184719827,549.1876046482394 681.5557333164215,549.2360619932624 675.3994271119773,546.9238418885543 675.3611977786531,547.1865837033874 679.0886670053187,567.408711972912 679.1488873075468,567.595927264545 690.1546390586482,585.3459437702004 690.0017217253226,586.0411638225087 678.6614451031091,585.6773568037497 678.1102145252989,585.8755715396146 671.8955084631052,595.5148700889586" stroke="#009edd" stroke-width="12.715028841032444px" fill="none" stroke-linejoin="round" vector-effect="non-scaling-stroke"></polygon>
</svg>