<svg viewBox="0 0 277.4282980088167 270.77324651200547" width="1000" xmlns="http://www.w3.org/2000/svg"><polygon points="8.05255000000011,14.260349755269544 14.448863600009417,31.755131366989644 15.020628791047557,32.74828416071932 40.44743170668494,34.461283577700215 41.897379297741054,32.09853767339473 50.913676542207895,59.045108139143395 51.16242207107257,59.688970535156386 88.6982388888498,54.37504013549869 89.56506171552587,54.3911147338581 76.39319952889468,91.09573905551906 75.46491849781137,92.85292847557093 97.89891074665479,92.56006454598491 98.80155991993502,92.76944443779166 108.36369922673452,131.60797985303316 110.2855060177169,134.2325613864009 95.47699145772617,141.76957862961672 95.67767725335557,142.14048641644285 118.26953844444483,140.2207752245954 118.67731799997978,140.18417512774568 120.00726189334068,162.5363287671712 120.2015397244611,162.9937831152124 147.39198921781622,173.2445280090683 149.4515672444611,172.206042025216 169.17761197334744,192.23497146272666 170.43823334223248,192.46879964179925 215.4763201689127,261.54478833938583 215.76030950222753,261.90255772681076 243.00784813331097,259.28841889228306 243.8094262311713,259.3526574879429 244.43798928891897,243.54404493407446 245.02198786658823,243.05240548621032 261.19277741327073,257.0694992384301 261.90522655109066,256.60197974227003 249.24338008007157,223.90393544649805 248.65879895989906,222.58682859186183 267.1513105332631,202.68470682085126 269.3757480088168,200.9913103936483 202.83486267549574,130.4809178095088 202.43873396443792,130.21310023821525 211.02919284450013,122.51008113174566 211.63299785785034,122.0645949355453 182.76133151105728,88.57287982965454 180.8814677599364,86.20178546754278 166.0886818399665,46.76805126443605 165.7714875999152,46.38358681972704 151.76251223995473,52.68407512942895 151.5120190843952,52.70282897153038 140.22934132439673,42.656345606410014 139.2331941245136,43.199338069570786 131.50810171556782,69.1055778298537 131.01730989336625,70.52808007886733 117.91622658665415,66.90170811242524 115.48906441775739,65.67430028049375 119.75065204440739,53.79188863238187 118.67586164442014,52.970294307313 95.23785787562497,53.20069824261691 94.63725684441283,53.48870282257076 64.56555351996917,28.777878947999397 63.933203937813005,28.454563077516923 69.72134345779318,11.20247199657706 70.51826121772297,9.222666651104646 8.05255000000011,14.260349755269544" stroke="#009edd" stroke-width="5.736721414908886px" fill="none" stroke-linejoin="round" vector-effect="non-scaling-stroke"></polygon></svg>