<svg width="1975.8571775999735" height="2219.5189901679987" xmlns="http://www.w3.org/2000/svg"><polygon points="5,1044.0580686560716 38.107622115523554,1100.2918948361767 41.755792782176286,1105.752952034527 118.15678776887944,1212.0245511427638 121.7650542932679,1216.469989225152 163.67809336888604,1262.6016142258886 168.42959900439018,1267.272289236309 241.7964228266501,1332.4988404283067 247.2024146488984,1337.2183270094683 433.82389333326137,1481.6228906891192 439.4273669688846,1485.2100388845429 532.3786777599598,1536.523980383994 538.3348807111033,1539.4759534986806 611.4418907022336,1569.4870112726348 613.1828181332676,1570.0675598753733 635.2393230221933,1670.9435704872594 636.757428053359,1676.0176444136305 689.111662648851,1821.0616317517706 691.9873823288362,1827.0792754241265 746.5841132088681,1918.540253724379 750.5121954132919,1923.9206432069186 825.758009173267,2008.2401941933203 830.6534027377493,2012.747005633777 943.4123141688178,2100.287215497461 948.7883050666424,2103.9414112287923 1038.8711779555306,2153.9575866501546 1044.8067006577621,2156.5839676039177 1158.4627271110658,2195.6662132524652 1165.9766479644459,2197.4994029635563 1288.1934236444067,2214.1235667415312 1293.2813474133145,2214.281553501147 1357.8232391110505,2212.6292351062293 1362.9609702400048,2212.204587293265 1439.2323495821329,2201.300619768852 1444.4691128888517,2200.201992463437 1475.325209315517,2154.705285987642 1519.754830791091,2090.9920811938937 1772.8831160888658,1780.9859466127818 1785.0308690488455,1766.9255693777231 1840.4947140266304,1641.3327811497147 1890.1654678754858,1544.8407275761128 1900.3386939733173,1486.0744379255339 1900.5047185066505,1485.1350592158851 1943.300017777714,1310.3871548007592 1948.24405361776,1295.5519464857643 1964.837768817728,1089.666090244078 1970.8571775999735,1025.7706904911902 1964.9484518399695,974.4017247342272 1897.3511261866079,885.2810878035962 1893.595476479968,880.9840647559031 1823.5197249421617,815.246760963113 1818.2777187554748,811.101170374488 1728.6812686222256,753.1161363506108 1722.7256482132943,749.8841417855001 1658.839990328881,678.5542366727605 1653.9900350577664,673.9772501820698 1570.0803620977094,608.3712788570556 1564.5479586133151,604.7690655059414 1535.9014448355301,550.9950206503854 1532.43677496881,545.2372859601164 1494.6396879644017,490.183630811458 1490.5388819910586,484.9168629993801 1367.8214112710557,337.04440411465475 1363.416226986621,331.9814284426975 1306.6623422577977,275.4172389751184 1301.8697673955467,271.2703763311147 1137.6886889244197,153.50649028713815 1131.7942354488769,149.43906689813593 1067.288461368822,110.9368387030554 1061.3526473955135,107.90643422800349 911.3541418666719,37.959906170726754 908.2797752888291,36.84085102297831 852.0458094932837,19.535238988115452 845.7671694222372,17.96630852262024 777.2878748443909,5.261902340513188 775.132759893313,5 577.7062880710582,366.03994574490935 536.8828942221589,424.9123705951497 426.1588027732796,568.0309599199682 394.57889763551066,606.4966044577304 5,1044.0580686560716" stroke="red" stroke-width="3.0030571834885005" fill="none" stroke-linejoin="round" vector-effect="non-scaling-stroke"></polygon></svg>