<svg viewBox="0 0 491.3573899910982 452.712830054704" width="491.3573899910982" height="452.712830054704" xmlns="http://www.w3.org/2000/svg">
  <title>okres Náchod, Královéhradecký kraj, Severovýchod, Česko</title>
  <desc>Geojson of okres Náchod, Královéhradecký kraj, Severovýchod, Česko</desc>
  <!-- Generated from maps/2-geojsons/world/europe/czechia/kralovehradecky-kraj/okres-nachod/okres-nachod.geojson -->
  <metadata>
    <collboard>
      <support-module name="@collboard/map-svg-geojson-import" version="0.11.1"></support-module>
    </collboard>
  </metadata>
  <polygon points="8.052549999999997,367.2874624491884 13.495169164416097,381.41992729719607 13.545122160001142,381.5970204892143 19.881142639969426,379.98136598637905 19.951120524441308,380.0217607887531 19.006455493312046,385.3066018689493 18.977037111071354,385.747362354428 20.925932115532873,388.7238565356598 21.114457342198534,388.8932817722158 16.50858726219269,389.61547229448445 17.075255208859403,390.539816485492 25.28647910219263,393.8111746341816 25.649402906659475,393.91475966352266 31.894619617763624,384.5173772052291 31.462518924417623,383.73726918794966 34.922819724429814,382.357191006398 34.98638964442182,382.24080413729064 38.485575137754154,387.5628515730565 38.539241839993,387.5743750346079 36.855112275523084,392.56038118463005 36.639717288875204,393.7774067844508 44.59367597330822,395.5319381503283 44.86142694220291,395.5289721504156 44.518819297758114,397.5428487208334 44.43893819553307,398.0354123307403 49.74123750220281,402.48413806482097 49.83750260441559,402.5540582004247 48.59945474664676,404.3108147795789 48.84448656885763,404.45794996908046 56.600672168867845,401.29399911783514 56.7776921866531,401.3746428639639 60.18323401775672,397.0753768472856 60.497151457769746,396.97556229631994 71.35748610666599,402.13202664745734 71.25575967110456,402.64279847103865 75.67317734219944,400.79119919408515 75.95651131551824,400.76005920877617 76.02729019552464,406.0259984829969 76.05423277331977,406.16457492710435 77.86295355554432,406.1953696443594 77.84678800887889,406.4128710936417 75.21915849776235,408.34263073409204 75.09616927107675,408.5455252299504 79.96556688886596,415.5683545030839 79.9965872622048,415.6984680054662 77.36990438221949,416.3888283759949 75.93728742219503,416.12746403690073 77.41577958220262,418.03293170012296 77.5973871199891,418.25597308768886 74.95111625776156,417.6479664921859 74.86810399109493,417.6530978592124 75.5488045777671,420.0302369243651 75.67958530665021,420.54027001912584 73.01911497774529,424.17056817978266 72.99129858663184,424.22757648281515 74.97995209776093,424.44215519791 75.0795668177667,424.42881531317073 74.22403074664874,430.21436880794465 74.16046082665673,430.3908466475474 76.35664500442329,431.04875735587086 76.51953837331496,431.46520580648905 91.66104863110343,435.7138688550691 92.01734601776809,435.7855700249562 95.68430367109943,429.71035496777733 95.80860361774796,429.57400479536557 101.32855526221795,428.719072279178 102.4255550844315,427.6267592350265 107.7340439022006,431.7736925227724 107.84450847109076,431.86489298968047 123.67960806217854,432.1334774737403 123.87272080887453,432.1195694813283 124.59929659552984,425.81534765531944 124.60002477330966,425.28028103334475 128.7852265510952,425.7882125051907 129.01751526221744,425.17185329480674 128.37009239997826,419.8059485515911 128.3487567910994,418.99806942221005 130.38066406219843,424.1608767623035 130.31323479998503,424.4370244733942 133.61224422220369,424.41000264962315 134.02686864886311,424.80005053844764 136.03693058662577,430.4486464352591 136.14142409776798,430.57678617885506 162.11632642665757,430.1111951279087 162.33492539553083,430.11438724472066 166.52952066664113,433.8216760557767 166.63488799110166,433.9757989344722 166.68294772442425,430.17389738778695 166.7185556177643,430.0715216605819 170.78156916442788,430.0401704805041 171.07080137776904,430.1287517680099 173.03382303109504,426.5217688859335 173.43250036441134,425.7721366325346 173.51769716441743,421.2280602366442 173.57325712886052,420.97823558811035 177.44344919999241,412.89964742001723 177.46762470220676,412.85711034484086 187.35693428441994,417.9760309129266 188.25659792885529,418.29576923064417 197.4360798133199,418.2405791563866 197.64157158221462,418.40523698027357 200.25063255997486,431.96236331912917 198.39574530663197,432.2285533262544 200.76909513775138,438.63279358880357 200.78569759109052,439.01726788329654 208.3880192266439,444.612069203598 208.6036326666432,444.660280054704 215.4621935199899,437.4527949798718 215.67926331551973,437.2968581579404 214.77399270219723,435.3006448439188 214.75571543997614,435.1514274547586 217.35487319998322,431.4735279028024 217.39026263997187,431.4330574224365 239.94899174219574,435.3504598778451 240.04918900441373,435.95530421304977 246.99658754663653,434.2971528473496 247.34705951109174,434.05742004486785 252.51784991109855,429.1317764169431 252.64375184887433,428.94115765859135 253.31797165331193,423.27860846521037 253.36268176887063,423.0295913984079 253.11255270220101,418.7929334826546 253.0557548355497,418.47684701358196 248.61488983999118,412.5571831032063 248.54360123552726,412.3176962815702 256.9975995999772,409.0157494080846 257.61735170664144,408.8954280627146 266.58799220441836,401.26548291298207 266.93030857775705,401.00758167487913 277.0272216444206,406.4868921009835 277.38300930665685,406.4188019022473 287.224040702196,401.0846898251399 287.49302957329894,400.8027198434644 291.89209716444714,393.68294795796794 292.1585374133207,393.2392858808522 292.62289638221375,388.83201492962655 292.6406639199773,388.8128476350463 298.6898551732953,388.94701855481946 298.8716083466494,388.81136445124105 303.6067299821949,393.7564159483369 303.6804943910753,393.7815136862115 310.09384735109745,389.45392150614464 310.26526039996645,389.2928265964507 312.8325967911002,391.28514450086334 313.1532862844248,391.1887418676848 313.5894647733145,388.7513525191531 313.6467723644233,388.45665417711245 317.6642747999937,387.1013406282651 318.22154925333564,387.1465220957831 315.4305894666537,380.36340376061673 315.3222366133192,380.1007245527941 317.56633488886985,378.84413724345325 317.82389136887616,378.8018016568891 316.87704180443654,375.7802562339126 316.8500264088576,375.72604991886294 320.07272279999563,375.17679424076744 320.67274128887914,374.9454729694768 323.83987771554496,365.6047235291113 324.07449659554516,365.2954034240753 332.02029968886166,370.9060358369676 332.57597215107637,371.52403958570324 333.64450022220956,373.6985806730878 333.63255810665544,373.9942722616612 332.08656386665064,375.96672554355575 332.01935305775953,376.1033247468946 334.49756048888196,379.33436038674665 334.5773687732941,379.4250785687251 350.9765148710936,379.1507554505148 351.1956235644244,379.24432672010846 359.6931669599795,368.1931271296704 359.8348703555308,367.9858585147082 366.26489858664684,364.83313207873255 367.25958943108674,364.2516918527905 363.3651490399858,359.816378258845 363.1562348355434,359.4725509529741 364.37272863111104,357.016839095471 364.466954835552,356.95462293402636 362.64490839996836,356.3950167434738 362.22744407997345,356.4648822140367 360.87514512884775,348.0630274344654 360.9332537155202,346.463385451883 353.90247881777,342.22142226706603 353.27216813332745,341.01819715540444 354.0606390310928,334.9651251784013 354.0414879555534,334.4299601834424 351.6008544977591,327.97821337688185 350.88134203552147,326.6374912400712 340.168900293305,324.78386365852896 340.0204976621968,324.7524515031615 339.400599919965,321.8683953255746 339.4505529155209,321.3013440309802 342.4813016444165,319.64859095027316 342.75939273776714,319.6427648721507 343.8763446310837,314.0732044151588 343.7602730933064,313.4619710460753 336.0745022844127,308.7563855593395 335.273142639962,308.2336444377212 333.9413054844259,304.00468314073044 333.89834299553297,303.96491722467874 328.67818214221154,304.37354490091786 328.3789738933043,304.5291791276028 320.93706982219703,311.0854072851722 320.8764126133243,311.3778990078205 312.81293599107414,306.69407109922724 312.5904776799795,306.44291790320824 314.18831817777357,303.10148685653223 315.24242832887796,302.49561471044547 312.22456834666775,288.94239538355725 312.1374054666445,288.6742430911178 308.48413755553304,285.72368003210397 307.8499675288691,285.46534236556147 303.79751255998383,286.35888824579126 303.7182140000001,286.329625623424 302.2692130399879,283.4589540516969 301.84585047999974,282.5666177600575 303.72454914663797,280.188468547865 304.0059898577525,279.59891647657025 304.07465702220327,273.2087751444993 304.1195127733296,271.5305419718276 308.5467608444229,263.8183239620772 308.61440855998774,263.6780105536087 316.6329566132987,260.00640421552055 317.4203352444234,259.8971876653155 320.2289169333304,260.82054660993856 320.56460688886693,261.1236025267641 320.10024791997387,266.0734661614184 320.1239136977598,266.41159788356856 322.42371757332114,271.0967403019964 322.4288876355346,271.197015799327 327.4176335910812,270.34769818347525 327.68691373331933,270.14622912469315 329.6632610399753,264.0007194136921 329.76972063107644,263.63066756109004 327.1053909599792,258.01908596279793 326.9698770755564,257.8230606297508 319.8405069066572,253.13985686976923 319.8060640977707,253.11743891836488 322.6493070488865,249.97803334851744 322.65076340441703,249.86399241623405 330.0145339999941,250.47148351871112 330.6393105333333,250.7983889183448 329.0426351199927,243.1001459367759 329.3915050933207,242.89823219439825 334.8949271022062,245.5984372503077 336.5480362933082,247.20140575411608 345.24845001774486,242.17534049793142 345.5296722755371,241.97971535221552 340.6894017688534,235.3808991009497 340.7082615733158,235.24188489952178 347.47871291553713,227.91264176496009 347.7169726844073,227.61718106440787 351.92351007110085,227.82475896768267 352.15419679109584,227.76056324034982 354.8943297688744,232.51953726076283 354.90707287999214,232.53246681937128 359.35929744886346,231.72430625474192 359.3689822133234,231.7269379737478 356.3054654844233,228.84089509133594 355.6798879555496,228.29541087672226 354.97406523553184,224.7827589696459 354.85580916444417,224.491744247243 356.5336764000018,222.6317535497725 356.7680040088668,222.51113175113971 365.6715065155364,227.8414658646285 365.9329951555188,228.00132543256734 373.0555932710773,228.37402410788457 373.48813087109704,228.73974005357707 377.3048746933124,222.33614955553605 377.59716525331135,221.8527425619028 378.12604077332765,214.76445154459327 378.14446367108724,214.67998113772012 386.4797690577467,212.08273787244218 386.8232505155389,211.66528556845844 385.2950966310815,206.46237133199577 384.6618732355488,205.64821166985314 386.09492710218876,197.98349722015666 386.1809248977585,197.90655720784673 392.83741641775816,196.22197857287358 392.88868013330614,196.24029820416 409.23452361775674,208.99990196849797 409.68133350220853,209.6891254131839 412.7564282577729,206.56860498444405 413.0071398666547,205.69045394485113 414.25319767997246,206.74787379962038 415.37451863996796,207.24309222721024 421.2887057333206,203.81791034877062 421.7357340710947,203.5244931349804 431.36581236441964,186.5586528166965 431.63035935108894,186.1817721617914 440.5573091822222,181.8610273451701 440.9121502133272,181.63334493182595 450.9407602044299,171.68057892009494 451.9015907822246,170.70117003250164 441.42770007998445,157.0826836197008 441.42449609775906,156.84320951894153 458.335114266643,150.20614636575158 458.5649271733197,150.06553782558296 458.33271127998125,140.72989354591812 458.35783341332683,140.32174678258127 453.76943959997845,131.2768541754118 453.51625218665106,130.8368817330553 453.59343903110823,126.93864731761971 453.9868734844273,125.56679257847247 464.9386672622128,125.94042753635551 465.617328951084,125.78840576959885 481.04792578664603,115.27849131650112 483.3048399910982,113.75944501162269 482.29682349332836,106.09189203489916 482.1496587644284,105.80906856031618 467.31776969775785,83.06261937108468 467.0187070844182,82.68352438773547 460.22895903108986,78.9285733184148 459.91278423998267,78.70252209279681 454.70784230222455,70.8224961900338 454.21581257775654,70.45651316934493 446.82590039997706,68.9449276562442 446.5698730933142,68.83727535358742 436.4309441688598,55.63641985358083 436.3190960621938,55.490169422329586 434.71157079999796,50.97239711278928 434.6833175022108,50.81339053695376 435.71012098663016,48.40837329443423 435.6597310844296,48.267729050952425 431.5540463199792,48.38942939729134 431.4495528088661,48.31824620915688 424.5501411822112,36.00271532021691 424.4474681155476,35.80726090021892 415.48236176887406,35.59963286770619 415.0863786933256,35.39946858215956 407.6762231733079,18.987604964007573 407.3668932532961,18.78887240356528 393.9012841511063,13.872593124695072 393.65275707553485,13.88040530373803 381.5450538933288,22.46806306378096 381.4110691821912,22.5249220451293 366.46616692443024,20.88885270141293 366.21319796442515,20.933077653382156 363.200944951073,12.172842856474404 362.813481555531,12.021649228066622 347.9695775555516,13.034615468793731 347.46495035553346,13.272200804239787 330.64848557330663,8.137344207868978 330.3188394933019,8.157910804620428 327.2789885421877,11.97822119261366 326.9900475999817,12.591840005748622 321.36312663998217,30.342289146450298 320.6111374488752,31.20411610170379 319.5983149777527,47.97002129213763 319.915436399962,48.45337937493571 318.17764013331146,51.074000347325295 317.60733129777475,52.05741792676383 293.7418871733313,58.98078584587313 293.4408584799745,59.10716837360053 290.9142272266396,57.712123040407846 289.95208592885285,57.44075481186849 290.5797751733113,52.19724866995932 290.5199189599731,51.714612946241346 283.733083617764,38.6869839147181 283.3910585155314,38.35798876273441 267.9486651999829,29.526848515124243 267.3803224444342,29.10281451600133 261.32421350220795,31.71472829630477 260.9090065333072,32.03560987034109 251.00600720887417,20.84072212808644 250.9629719021974,20.780530133466186 241.62853378666443,22.95934565790924 241.60574182219682,23.03710964248569 233.66896813331516,18.095829948426058 233.0701875466399,18.290774167929726 228.80714356443025,29.196419274295863 228.556213502197,29.485272197787367 224.62449040887407,29.69694355707145 224.26134815108492,29.837751065911675 221.51808400886478,35.69885344309262 221.04353055108334,36.290498271504134 208.77388063108776,44.60866847947875 208.55331558219734,44.73898852532841 203.19946128887352,60.678143919874515 202.89537424888806,61.5987148004275 199.73304379551666,86.4549649744655 199.73500987553382,86.7156322205625 201.58072208887427,99.51878800811357 201.62099031997025,99.80588841145038 211.16616308442428,97.50307767301967 211.67406708442252,97.46201251375135 206.37315131552862,88.67633274535876 206.04649076442695,87.96571610082867 207.89416905775545,83.67428305518808 207.97237535109855,83.28291547505762 206.6813889688707,80.45617285540322 206.63048934218352,80.1250225954642 206.99683558219806,77.78384935146426 207.00783106665006,77.6565925515821 214.13283216887032,74.8798180954833 214.26747224000394,74.84022754347063 219.3992323110939,79.16414752251114 219.65576934218518,79.25330514845666 227.11857211552672,77.43937173033885 227.23762918220712,77.35526010521392 237.83989762663953,85.93890436395998 238.86844873775374,86.23456708243577 244.95106335110142,83.26581961167506 245.14519554665424,83.28853760343156 245.0733972177619,86.30730651743181 245.18750267555117,86.56797447644169 247.74158623110964,87.84249876633805 247.85729367996794,88.0106892105756 246.97474221332925,91.2540465271519 246.73167647110643,91.9141435666603 243.2925656444346,92.87341514658294 242.77177289775102,93.13519857076574 243.62592543109315,100.43571459211637 243.6385229066433,100.48675645760488 246.32258619555034,101.04729619717511 246.5410395288851,101.05326057482273 242.0037637955462,113.29593645418174 241.6345048444415,113.72722200700775 247.736124897761,121.11324092731923 248.15555529777305,121.40057052445593 252.27252681775246,120.76674645918649 253.00106868442492,120.25697590444872 250.30834007997294,123.0914960226288 249.69827273773956,123.2618697680515 255.20817552885967,124.7493496139574 255.5635262844222,124.76402471593576 255.46937289776508,122.35003147918144 255.91982367108687,122.33558503010829 257.0458777866221,124.71380833489059 257.2960068533208,125.06245580725192 253.67936628443533,130.36148278113217 253.71373627553805,130.5343556113727 260.4951102844276,144.82425676457171 260.9508039377466,145.0726088114676 256.4423640444071,149.16079849142227 256.0615270666382,149.22875473963325 253.0671872266463,143.28437982686557 252.57049716442236,143.10192052648165 253.87633837332362,156.47643397031754 253.91041709332023,156.57554725846387 244.4845926666527,160.84893309920847 244.4620919733203,160.91653093226307 253.34389478219202,164.30548000901 253.03602121776896,165.1082333986484 241.86890527109028,173.88378311999952 241.62889787555434,174.11607996148052 236.7850592977553,173.41746825146367 236.53332823998755,173.84185961918377 234.33168272887235,184.8470369522471 234.3819269955344,185.7299928912031 239.87005727107282,189.54337234557136 240.5395439199707,189.86801249543316 241.4898159199871,196.73984925726074 241.5152293244388,196.84781946040277 244.75751369776083,199.64512288245135 245.08890740443132,199.70809260191857 242.99670701332036,202.05612384198287 242.4545058399741,202.3905345454474 233.04557513775183,199.8169727983692 232.7433813599706,200.25535362089397 232.76020226663206,203.04126139307448 233.22536223108875,203.48385192052922 240.23705887108338,206.4532132487435 240.30390559108457,206.4757650259777 237.85293200886338,210.9955466090829 237.88409801776982,211.23157588142897 229.3716269777575,209.54489402902948 229.08181222220412,209.6079666896036 222.6062000622111,216.42350142215548 222.30757435554517,216.57240710064764 206.36637926221704,214.72450552852354 206.23960351109383,214.6765473785414 205.06221286219773,216.71536074445578 205.09199533332833,217.05414449216153 206.87806978662377,218.4544662839686 207.10511561777787,218.4508038631535 207.20990039996798,223.28406791322743 207.01147195552005,223.58435875797989 203.20929168887199,226.79624499081513 203.19793211553008,226.81592746233912 194.68844660442085,227.1125368633435 194.53683999108728,227.10681524674112 191.87476767108421,233.8636227125604 191.71529673776934,233.9440585370245 182.5197949422069,230.76783954672976 182.2595442044036,230.89931324320025 180.54912742219278,227.0025672867265 180.33096535996413,226.8086037528334 173.2935640444408,227.46636045637536 173.07394562665252,227.4287124544859 168.6179345333145,232.65752867368394 168.55327234665276,232.7632531996129 172.67534111109092,236.967580741191 172.6674767911096,237.02627379727312 165.10578747554212,240.45381493563002 164.4688503732974,240.69715191738908 148.74618143108785,236.80774767106743 148.07917058666465,236.51405174335343 145.7830075999733,232.018714722573 145.59135120886606,231.52727023268346 146.82896215999028,228.96299034306833 146.89114854220645,228.50893650462206 144.2075949777569,227.5898319868935 143.8346223199984,227.52655143233244 130.49935703995982,231.69913328380028 130.16556034665666,231.87911976854195 126.83203529776767,242.77182122421038 126.52590935998126,243.00084794121324 118.50874484441704,238.97386320224143 118.36769680886175,238.97592253243022 119.5950404533138,242.55663589778817 119.8107995288807,242.58889659136878 118.61971913776472,244.1222869435511 118.34934672885686,244.66909871315113 122.5898900177632,248.56880455831526 122.70013613333106,248.73969838207233 110.84307174219396,253.01175416529406 110.67966864887387,253.0737467619398 114.28851771553275,256.48689003851143 114.38267110221898,256.65936003084755 111.00669328886545,260.62407398032485 110.71877179551632,260.98339649095544 112.69329865778093,264.7233195518853 112.78373833775515,265.26054631718546 110.12887497776649,265.4852468624373 109.38169175998303,265.40805975744263 111.96359170665494,269.1999319549865 112.09582879109769,269.3486924298701 108.4121230488887,278.40698879364174 108.23168059552665,279.24223264054274 111.06167071109633,289.3387919911544 111.26381286219805,290.1323765913472 110.51641119109229,295.5230261020257 110.50891095997179,295.5418835753004 115.06016770663666,299.23279320193217 115.11958701330116,299.2806764608173 119.00754662219663,310.1847285132168 119.16359511999292,310.8516412801324 123.85087547553815,311.2966641605377 124.20134743996425,311.230168034475 122.62928443554085,314.64707200631494 122.33881431996235,314.9538253314455 119.6655280622141,312.5164308429445 119.43695305774565,312.54179475170497 119.51647007108079,318.6615758342447 119.32991092443228,319.0534138497675 114.80960173332244,317.2857792610954 114.37815640000156,317.41395841404267 112.77915081775393,321.96172290063225 112.68048272887938,322.21280412178714 110.45822978663602,321.72754691809644 110.34732831110125,321.79494401199156 110.2409415377548,324.97370691510844 110.25776244441624,325.21529349045124 108.38736500443304,325.5454029548779 107.91324845332531,325.59611855584774 103.81652027555504,321.1143437424395 103.67234107552906,320.81070964414505 98.39232400886942,322.1340986231295 98.04272585776164,322.05562147359126 90.9450314221973,312.5894377373694 90.8742525421909,311.95453724053334 85.81210626665381,310.5193856124166 85.57486594664044,310.5620031143259 84.07015938664665,311.2987207404582 83.85075942218066,311.3435084614681 82.75885684442585,319.9754215044301 83.10801808885992,320.3969511832471 78.51074050664431,325.5586529813369 78.29527270221263,325.7303319103445 78.31595295109548,331.0708396635961 78.25369375109551,331.72607410910825 74.97762192885386,332.67778887777934 73.34643088887208,332.22060697153904 75.63341883553187,336.3601153465203 75.61696201776033,336.39551782230376 72.8479203821986,337.5541938207531 72.78893798220781,337.7367978006729 70.19924653330929,335.19844449715276 69.99360912887607,334.9273234711942 67.74769040887588,337.2636706475238 67.61283188441996,337.49343988981093 68.0872397066629,339.8215685817046 68.0722392444219,340.0762212131009 58.75287440885552,341.8823934298922 58.48869151110523,341.90728682862357 62.89110871998821,348.23292239456316 63.19847255998286,348.6485234110511 59.19735412442935,350.7901882048242 59.10356482663303,350.77717269199604 60.11471248887358,351.6823142351128 61.3968879199889,352.6930453624151 58.864067155525504,354.0344926581089 58.173536168854866,354.75155396699085 58.81768223108486,356.9329328792734 58.494953839959294,357.3766640074824 53.67368877330557,354.35049855689397 53.40054928887514,354.23587813325105 50.49096934218653,356.2652174192841 50.00614857776202,356.12160443606956 51.03950566219976,358.3662843475828 51.44524631999195,358.79390798394854 49.252775848879196,360.5221762795478 49.167142142199395,360.5749138507741 40.81472457774328,361.28093028758997 40.76040251553752,361.31974094859436 37.10713460442605,367.37568980636536 37.08572617776338,367.54746452038637 31.904085928872178,361.9244987745402 31.489170231077537,361.6944906951172 30.434404719977124,365.76805752894836 30.406806782215085,365.97362254100847 17.246304168867596,364.97980378462637 16.11995878219716,364.98528256439715 15.668051653315729,370.1547209550405 15.34437663108804,370.2945304528472 8.052549999999997,367.2874624491884" stroke="#009edd" stroke-width="5.117120898484994px" fill="none" stroke-linejoin="round" vector-effect="non-scaling-stroke"></polygon>
</svg>