<svg width="1048586" height="259154.89063810383" xmlns="http://www.w3.org/2000/svg"><polygon points="563827.2765533867,44897.89499688428 563834.5181357511,44902.11663582234 563836.6519879111,44904.445042424486 563867.3944886045,44952.02378277632 563869.7936887466,44953.86921805551 563893.6831627378,44946.041074307344 563894.4326033066,44945.787569904816 563912.2913089421,44948.10257198737 563913.7211588267,44948.09989415057 563926.6868010666,44939.01469900581 563927.9410144711,44938.05242117576 563935.0098730667,44941.0713529262 563935.02909696,44943.04898965842 563940.5766465422,44938.26844309532 563944.8137673956,44939.98322114814 563933.1483593956,44953.43898978608 563932.7866006756,44953.66035215405 563944.4106481778,44952.80257173866 563945.7292324977,44952.20899644669 563950.4606404266,44947.66162108566 563951.1765848178,44946.128104800824 563944.9585291378,44935.89352931862 563944.8999836445,44935.27580652275 563952.9478044445,44932.83971230744 563954.1463850667,44931.59353570326 563951.9624342755,44922.30545937223 563951.6009668267,44920.92486847867 563929.8590347378,44923.46598818421 563929.7064086755,44922.97008604393 563952.996155449,44913.93920476409 563953.4851996445,44913.46693911869 563950.48248576,44901.91039923474 563951.1410497422,44899.25341189967 563960.7063930312,44887.222018454224 563960.9967903289,44887.097911011544 563974.1077768534,44899.147167451796 563976.7758202311,44899.35519224685 563985.7417275733,44893.54515545885 563988.32821504,44892.838476679055 564003.2115862755,44896.77317100298 564006.4111994312,44895.93615035742 564016.707633209,44886.21174612298 564017.5068811377,44886.714427499915 564024.9197309156,44875.51945038297 564025.1766320355,44874.229643167346 564019.3753853155,44861.34454993496 564019.2731491555,44860.32433622435 564022.9801565866,44847.06469990278 564023.19598848,44845.589422793535 564035.5013191111,44830.68249686906 564035.9000692623,44830.225235164224 564039.9455337245,44839.55291811633 564039.7646543644,44840.26869841933 564051.8559007288,44835.24389831477 564052.1349384533,44834.71386072808 564051.33714688,44821.567895155575 564050.5335298844,44818.58171042043 564044.2802303999,44811.30341322388 564044.0874089245,44811.1002176482 564058.3186241422,44782.83634199423 564059.5282730666,44781.872041471186 564058.0757040356,44768.44241120445 564056.0079704177,44765.441658777476 564015.4770127644,44770.31618569902 564015.0296203378,44770.18709900457 563965.6093596445,44735.09415061056 563965.5315902578,44734.93421830854 563963.4804590933,44737.34078510734 563962.4347958044,44738.628267437336 563968.9811140266,44744.21233333356 563969.2980169955,44745.023574641324 563961.4325319112,44746.29850400286 563959.6117961955,44746.46378862811 563941.7461000533,44763.62993134523 563941.6645441422,44763.72284080705 563952.2740943645,44772.9992958029 563953.2204342044,44774.63406967814 563959.4017897244,44797.32356679742 563959.3822745599,44797.547765824944 563946.8547040711,44800.18900968926 563945.3572792888,44799.94560927211 563951.3070742756,44802.98295923998 563950.89667328,44804.34776569484 563917.9306089245,44791.255368148326 563915.9016143645,44791.2040063655 563913.8499006578,44798.24537169712 563913.4828990578,44799.139929641504 563902.1341027556,44801.57348400727 563901.1062070044,44802.01874696172 563904.51553536,44817.91230290127 563907.8325307734,44821.73535608803 563898.6950647467,44828.09833059239 563898.6289462044,44831.30810436234 563909.67715072,44831.283097958425 563910.8853432889,44831.2058460142 563912.9522030933,44837.504693001916 563913.6556228267,44839.64936775004 563930.6641080888,44834.0163704009 563932.884467769,44834.65179221623 563941.2407446755,44848.39976358495 563941.5620167111,44848.959684204834 563911.8730436267,44844.90268328576 563909.4983102578,44844.869194633386 563903.5831765333,44856.51936620148 563903.0149065956,44859.79569846438 563907.6501950577,44865.00120707089 563908.4322579912,44866.2968724774 563900.0349118578,44862.35315044038 563899.3335310222,44862.12098074664 563897.6336728178,44868.37742192851 563896.8262692977,44870.843695858144 563863.5727203556,44873.174665432016 563861.1880837689,44873.87649629533 563839.3037201067,44884.3233324741 563837.7494974578,44884.35279720859 563827.2765533867,44897.89499688428" stroke="red" stroke-width="3.541633608880773" fill="none" stroke-linejoin="round" vector-effect="non-scaling-stroke"></polygon><polygon points="563898.3863173688,44827.2369350933 563912.9522030933,44837.504693001916 563913.6556228267,44839.64936775004 563932.884467769,44834.65179221623 563934.7818077867,44835.44483893656 563941.2407446755,44848.39976358495 563941.5620167111,44848.959684204834 563911.8730436267,44844.90268328576 563909.4983102578,44844.869194633386 563903.5831765333,44856.51936620148 563903.0149065956,44859.79569846438 563908.0550619022,44870.309279322275 563909.2754878578,44871.82859043707 563932.8186404977,44890.98583361029 563934.25315072,44892.15768796514 563964.2610656711,44886.51978369255 563965.0145840356,44886.63049853989 563974.1077768534,44899.147167451796 563976.7758202311,44899.35519224685 563985.7417275733,44893.54515545885 563988.32821504,44892.838476679055 563995.597176889,44898.32935133146 563997.7252036267,44898.54273377801 564009.3681837511,44894.74735236721 564010.7359928888,44893.87996773404 564023.34541056,44879.77589452756 564024.6538003911,44876.7181740955 564019.3753853155,44861.34454993496 564019.2731491555,44860.32433622435 564022.9801565866,44847.06469990278 564023.19598848,44845.589422793535 564035.5013191111,44830.68249686906 564035.9000692623,44830.225235164224 564039.7646543644,44840.26869841933 564039.9781560889,44840.31290436303 564052.3193130667,44833.49838639784 564052.38834432,44832.00292402017 564051.33714688,44821.567895155575 564050.5335298844,44818.58171042043 564044.0874089245,44811.1002176482 564042.4326977421,44809.934630612435 564021.7865275734,44833.24073355633 564020.7731953778,44837.59310599032 563999.0889349689,44835.87842352019 563997.5641307022,44835.6882001108 563966.66463488,44821.67462360457 563964.14805248,44820.115668607235 563964.5237922134,44812.52883487387 563963.4728860444,44808.921770659916 563957.2964821333,44812.462740877236 563954.9872847645,44813.374211066985 563950.7009390934,44805.09804836172 563950.89667328,44804.34776569484 563920.1527162311,44791.69797223294 563917.9306089245,44791.255368148326 563913.8499006578,44798.24537169712 563913.4828990578,44799.139929641504 563902.1341027556,44801.57348400727 563901.1062070044,44802.01874696172 563904.51553536,44817.91230290127 563907.8325307734,44821.73535608803 563898.3863173688,44827.2369350933" stroke="red" stroke-width="3.2502756892052425" fill="none" stroke-linejoin="round" vector-effect="non-scaling-stroke"></polygon><polygon points="666224.9688123734,15.312720873975195 666228.5625153423,15.781468027154915 666229.3125384534,29.000231128069572 666232.3123396267,29.125036856508814 666239.31245824,10.250180218019523 666242.0623488,5 666224.9688123734,15.312720873975195" stroke="red" stroke-width="3.1708911513077407" fill="none" stroke-linejoin="round" vector-effect="non-scaling-stroke"></polygon><polygon points="5,259111.82385659066 20.53115818661172,259108.03153321124 23.124927431112155,259109.68767141865 39.218821404501796,259100.21879236668 41.43743345781695,259100.6249976391 41.74996736005414,259107.37527720712 40.92770901334006,259110.70061901433 39.65631061338354,259110.906307747 37.04331747558899,259110.64258867595 27.06233031116426,259130.6877028317 27.156119608902372,259131.9689727563 30.41253063105978,259138.69135609583 31.281101084430702,259139.42998741206 41.625012053293176,259143.75028522976 42.74990108446218,259145.40652430698 61.43756430223584,259147.43770997017 63.781131662311964,259147.7500604617 73.5311408356065,259144.06263375666 75.4165387378307,259143.27295137255 78.90625791996717,259135.6563234037 79.47394531557802,259131.604674952 116.203232426662,259133.08617435617 116.50790200883057,259132.9454985957 129.12489272886887,259110.54688420368 130.64066759112757,259109.73446020135 145.65627591114026,259119.21898807818 146.53125432890374,259119.84396299452 150.14068593783304,259116.9533456536 150.57817514659837,259115.5940251645 149.62484479998238,259104.81254377717 149.84358940448146,259104.7031683256 167.12499569775537,259113.62523397512 167.82812415994704,259113.750106183 185.2344857599819,259106.78130539192 186.73424071120098,259106.59384740412 200.07824412442278,259069.54700486024 201.6248937244527,259069.56280258903 195.46858751995023,259063.73073533596 194.99993230216205,259062.85943912284 197.73438549332786,259056.59392172296 198.1718747022096,259055.64091516356 193.73435932444409,259053.0000287519 192.6249076622771,259051.3750373664 165.51572280889377,258990.65631957573 164.265587199945,258986.0625495623 151.09372501331381,258984.14066753758 149.75009137776215,258984.39066068723 140.60942136880476,258971.84405181534 140.7032106666593,258969.34387467627 153.7343889066251,258964.14064858248 154.10925482667517,258963.90645892802 158.8828970666509,258953.68755808147 159.95302712894045,258952.92972079595 186.3436461511301,258952.8282709088 187.3904745244654,258952.55490303633 180.94522737781517,258935.8906373341 180.86716671998147,258933.94553179073 187.38086257770192,258922.43965321407 188.5310921955388,258921.89081973804 196.01559466670733,258924.00020188675 197.87506943999324,258924.68753711204 208.65617834671866,258941.40646190115 209.1717282133177,258941.90641199122 220.51557290670462,258938.5158110495 221.09374606225174,258938.4377512203 228.40610730659682,258925.6251450522 228.79699313780293,258924.70333094907 229.53128760890104,258912.57834474987 231.39047111105174,258909.67204199766 248.18749354663305,258906.59384900553 248.50002744887024,258905.8752519514 225.62505073775537,258887.6718955317 224.90619363554288,258886.8281938053 219.79671580449212,258877.4221250856 219.56253383110743,258876.93771858572 220.9999567643972,258869.3439774497 221.23443000891712,258867.9220599936 239.5469360356219,258862.2969857331 240.5157037511235,258861.90643349313 253.15628743113484,258864.8282928773 254.70322830218356,258864.3906659939 261.98442353785504,258851.07827826892 262.3123948088614,258850.1562771001 211.0938262755517,258842.5000180793 210.12505855993368,258842.5158097135 197.57797290664166,258847.64082472178 195.06255559111014,258849.67189300584 194.640503751114,258858.12513587833 194.17184853332583,258859.9375803793 185.7969302755082,258869.75002328202 183.2185984000098,258871.48445257067 156.1032968533691,258862.72064106038 155.03112789336592,258862.40631611098 141.42177649773657,258874.43764071143 139.23433045332786,258875.95341795275 125.65614506672136,258878.343865199 123.64054897776805,258878.12519855076 109.39069240889512,258887.93764056615 107.99987285339739,258888.75006184343 103.64070940448437,258895.98445697536 103.14059690665454,258897.8125073203 108.06249614222907,258909.3127414831 107.87491754663642,258910.62511576852 96.96885333338287,258924.0314857969 95.49997311993502,258925.34389288607 88.18761187547352,258926.75015505974 86.45309240894858,258926.40633427864 67.78203164448496,258916.33356791467 65.20253468444571,258916.1735057464 53.067306382232346,258919.35349663685 49.16106951108668,258920.8593665096 37.28128597326577,258933.31255379645 34.97441877331585,258934.717316341 8.687492266646586,258970.43768188276 5,258974.11946221197 5,259111.82385659066" stroke="red" stroke-width="3.481878050111827" fill="none" stroke-linejoin="round" vector-effect="non-scaling-stroke"></polygon><polygon points="1048496.4061312,259127.32821848255 1048504.2969568712,259140.35943060834 1048505.2031012978,259141.46905220207 1048521.4219505776,259148.78130441392 1048522.3438236446,259149.89063810383 1048536.6874695112,259143.2343636112 1048537.6093425778,259142.89071995812 1048546.4998107023,259126.12504345574 1048548.9062926223,259124.31268977292 1048578.156320142,259113.2190197017 1048581,259111.82385659066 1048581,258974.84725519398 1048581,258974.11946221197 1048550.0553571555,259012.118689375 1048549.5467977956,259012.85959163855 1048543.2343702756,259030.14089308155 1048541.4532474311,259033.87529818504 1048529.6873508977,259041.57840010838 1048527.7970013866,259042.9846364637 1048512.2967179378,259064.2502326474 1048510.4687004443,259066.93765122385 1048507.5938545776,259083.2033886296 1048507.1718027379,259083.51570491958 1048512.0156413155,259085.68764449353 1048512.5780858311,259086.26579677954 1048513.7344321423,259094.3593809536 1048513.6875374933,259095.2188751083 1048505.8124404623,259102.95316387364 1048504.7967780977,259103.01575074845 1048503.4062498133,259120.40634983988 1048503.203233849,259121.48463925417 1048496.4061312,259127.32821848255" stroke="red" stroke-width="3.5715611887610805" fill="none" stroke-linejoin="round" vector-effect="non-scaling-stroke"></polygon><polygon points="601186.61424384,1198.8868214909453 601215.1480356978,1199.588748224778 601204.9139339378,1238.8463372209226 601203.1444619377,1239.335326055414 601211.2004383289,1253.392545794719 601211.8214283378,1254.2188585262047 601247.5335967289,1261.2718668662128 601247.9879796623,1261.3788038493367 601261.0666350933,1270.285788854293 601261.4257723733,1270.5365830728551 601258.7798656,1284.6847171908012 601259.0169602844,1284.922816465958 601292.7624661333,1285.949065134395 601295.14185984,1285.9892992642708 601315.90628608,1307.7007492924458 601316.3918350223,1307.841828675475 601342.12592896,1291.6473484353628 601342.4725415823,1291.3403651413973 601345.3360278755,1280.807847211312 601345.6313767822,1280.785800532787 601355.5721685333,1289.9029935388826 601355.9193636978,1290.2435986493947 601353.1383071288,1296.9817266549217 601353.1927748267,1297.3669602669543 601358.3141947733,1302.1489747472806 601358.6299326578,1302.341862138128 601380.6048816355,1290.734113063023 601383.3474904178,1288.671739721438 601413.46055424,1309.9023476584116 601415.1790537956,1312.7519894338911 601421.6467288178,1305.9444127155002 601428.7074318222,1292.3897279563826 601460.9322112,1276.8603499999153 601461.1270715733,1276.9000348120462 601468.9538176,1251.1925194450887 601468.9692549689,1251.1682644445682 601468.0671883378,1244.8260303520947 601448.3551246222,1242.7405730794999 601447.7230663111,1242.5569988579955 601441.5044280889,1232.8499231311725 601435.3114217244,1225.920493427664 601419.66812416,1221.8754106776323 601405.1998142578,1217.6653928879532 601404.0766728533,1205.1825680729235 601396.8939272533,1205.7411142353667 601377.5392531912,1184.2952206276823 601365.9239438223,1192.5285634059692 601361.9186747733,1106.6005006311461 601361.4401163377,1104.9874528081855 601374.9915047822,1087.3881524900207 601376.2946517334,1086.7327203735476 601375.4723933866,1077.4676114708418 601374.4532357688,1077.0996022337931 601330.8624750933,1073.3554690796882 601314.9145079467,1071.8287736204802 601307.86370816,1087.4471854101284 601284.28385536,1104.7044509185944 601280.1754763378,1119.105033685395 601224.4197777067,1099.968935829762 601219.0880600178,1093.3691454113577 601219.4396242489,1095.3761936539668 601223.1542047289,1108.3244170632097 601220.18702592,1120.357760020881 601225.1307704889,1157.3970097218407 601213.9191628799,1156.4682594591868 601202.46347008,1148.6503687612712 601197.5127350044,1159.3598350592656 601209.06163456,1166.2331540422747 601207.2575012977,1175.7676041400991 601191.5731345067,1185.2326623607078 601186.61424384,1198.8868214909453" stroke="red" stroke-width="3.3230075518320237" fill="none" stroke-linejoin="round" vector-effect="non-scaling-stroke"></polygon><polygon points="688088.0469643378,137580.3982888374 688091.1096800711,137585.1854006892 688091.26405376,137585.70019548858 688111.8280854756,137585.75161106238 688112.6518001779,137585.31409945013 688107.8903913244,137580.5784053395 688107.1954184534,137579.54880213266 688088.0469643378,137580.3982888374" stroke="red" stroke-width="3.517148645832891" fill="none" stroke-linejoin="round" vector-effect="non-scaling-stroke"></polygon></svg>