<svg width="3234.921411128831" height="3646.5594317607465" xmlns="http://www.w3.org/2000/svg"><polygon points="5,3210.042489770276 34.3580891021993,3316.505573600589 39.17629582219524,3328.936000244925 61.10580650664633,3377.509848504793 67.23939356440678,3389.3376244467217 101.6641436444479,3446.3023756910698 109.27767921774648,3457.222586199059 184.9030192355276,3544.619121464377 193.7463014399982,3553.0406419712235 241.4538879999891,3592.0039030351327 252.14761557331076,3599.882939431991 313.4496987021412,3639.3732434384874 317.3626348088728,3641.5594317607465 470.9303765333025,3562.702680381888 648.1673912888509,3458.8428907255875 719.5751256177318,3398.72547865496 731.0975195022183,3384.518107435608 843.8095362844178,3303.3571879033116 874.5083463111077,3281.1259927731007 1028.8033919999725,3237.570568337571 1030.1004222577903,3237.1925045380485 1043.3453934932477,3239.0712539122324 1129.8520396799431,3249.8882500376203 1192.354451057734,3252.170276589517 1359.860389262205,3313.585257877654 1426.8678909155424,3361.468956083583 1474.9654894933337,3393.0475630048313 1522.9034715021844,3411.8637747225002 1531.9069528177497,3415.1429766009096 1704.0353635555366,3517.4151377634844 1788.3434953955584,3585.5232390921446 2448.1870316088316,3509.9244237357634 2457.4937261511222,3508.452435282874 2545.7506204444217,3486.9758247166756 2547.6864082488464,3486.3429484315566 2671.4850773332873,3437.784054117161 2683.247769884416,3431.6302994292346 2870.625970915542,3309.752149790991 2881.656116622209,3302.345784582838 2963.6101953422185,3234.7655238352017 2972.9952418133034,3225.336638460285 3068.9818888533046,3115.0740000398364 3075.1320783644333,3106.9127821211587 3123.315310648817,3037.6073142768 3130.695829333272,3026.5146887780284 3163.9027748977533,2968.7670154446387 3169.782664817758,2956.799001596344 3190.6700074666296,2907.7204573041527 3193.06600362662,2901.330144547741 3210.677711359982,2844.0986136716674 3213.8455759644276,2831.131285116775 3223.685879182187,2778.6567406969843 3225.4323407644406,2765.418002480583 3229.841602844419,2698.818116104114 3229.921411128831,2691.97604257887 3226.400234666653,2625.987060286221 3225.0015507910866,2614.0182421540376 3213.3093458488584,2547.823319734249 3210.701013048878,2537.0496974986163 3020.4843750399887,985.0242899915902 3019.439003022155,977.3024295942159 2991.3062914843904,841.2080324387643 2988.6598021688405,831.4102499344735 2954.805069653259,739.2343675844022 2951.6605067377095,732.4049348174012 2875.5225295643904,590.3404128119582 2870.2808146488387,581.5199109704699 2786.9662085688906,466.322838532622 2779.7954050843837,457.0056711161742 2665.5314958222443,323.6276472020545 2660.17414627556,317.848084377998 2560.613602702215,213.32250815600855 2548.8261521066306,201.58254538447363 2491.92546673771,152.7952772694407 2481.1763976532966,144.8544361226377 2377.428249315475,84.51243012590567 2365.2228246754967,79.10257479239954 2203.8134820977575,27.226509331027046 2187.7513366755447,22.991428019362502 2087.621066808875,6.757714520790614 2074.3108508444275,5.879011057841126 1954.564927999978,11.145087137527298 1941.3817062399467,13.189045664912555 1825.6189158399939,44.43285144894617 1813.1897949866252,49.30148398241727 1764.6194633955602,71.47015428933082 1752.7921086577699,77.67234598327195 1695.8302563555771,112.49391697865212 1684.9107936710934,120.19708256871672 1535.9005710221827,249.95504676847486 1527.8247881954885,258.2836180794984 1461.9104270222015,337.7084960549837 1459.11801087996,341.26307411905145 1423.5695368533488,391.5592302514124 1417.465950719954,401.3844679449103 560.4307071999647,1911.6983676715172 524.210270719952,1975.464217108325 525.2579729066347,1984.5731196215493 531.1666986666387,2035.9420853785123 508.6156154310447,2304.7528514324804 508.55357468442526,2305.7233413730864 460.64821503998246,2496.245832812856 450.47498894215096,2555.012122463435 400.8042350932956,2651.504176037037 388.7657087999978,2675.018277528812 360.2930838755565,2741.0941869755625 345.3403901155107,2777.0969642650452 92.68076003552414,3086.572712687368 80.06435185775626,3101.163476081216 5,3210.042489770276" stroke="red" stroke-width="3.5562859872053574" fill="none" stroke-linejoin="round" vector-effect="non-scaling-stroke"></polygon></svg>