<svg viewBox="0 0 353.63618024888206 312.9818846930423" width="1000" xmlns="http://www.w3.org/2000/svg"><polygon points="8.052550000000338,170.3637539753472 22.182402871178056,183.40662782875734 23.910805644445645,185.70314133310603 44.27589919113234,191.6797336990494 44.82611032002751,192.15499632733554 61.10030111109518,183.46343076913763 61.52613947561622,183.48295677654824 75.87648457775504,187.19508573602798 76.10338477334153,187.32954662011616 77.2273999911049,196.83390461162344 78.67093961776845,198.02092222488864 91.82386918224074,176.35540578354994 94.61512023999967,174.6379427462016 137.63673716443736,171.96675086665346 140.08749229330715,171.38582116485486 145.52668902229198,203.26191711720458 145.0472567733159,204.31533722245513 249.12512400895503,303.40314494437916 249.91709015993547,304.9293346930426 344.34048514671304,250.06504982503975 345.5836302488824,248.62809735482006 326.9320846488481,207.26036083370127 326.3687663200326,205.07278488865268 336.1362517600428,197.92773602580564 335.6445861244356,196.30673362533707 320.06158167994727,194.23176221914036 319.09630921783537,193.1973754908904 317.3058656977737,184.36251286805054 317.21120258662995,184.22494378072588 328.11115010674257,181.00535893467168 323.58887483561557,157.22246937992895 276.6752933244934,162.39697111646092 270.81520983993687,162.12224934806727 199.18319675556995,126.80012911538506 198.53511853327655,126.83608392850874 188.62665787558217,64.31559241811192 188.05838793781732,62.95380322860001 179.78162804441672,55.64209067021875 179.03772162667155,55.01423209338827 163.26160443560366,69.16592699089233 152.25388660442695,69.11264670574019 144.64268120003544,26.148129471264838 143.9520773954937,23.72872089586599 129.09928962667618,8.365657952301262 127.88468909331277,8.052550000000338 99.12574466664955,27.87074289823795 98.40310104002856,28.63545639001677 99.09137467560504,36.778469636781665 99.68731536888663,37.286038053374796 115.53421143999003,37.6825889451211 117.00309165332146,39.096489135154116 112.46887426669855,45.89587279907573 109.59024187559407,48.85188759040466 95.68641538671363,45.16008229243016 94.72376436446939,45.620118164610176 93.23303881785978,58.44656308278354 92.54942551998101,58.613960010268784 88.68687931550812,46.477576294542814 87.63335170664504,45.78175216282398 65.13731871112395,44.40475104787765 63.4852289688788,44.41585234876402 40.54471625781298,64.60553210488433 40.3108255555635,64.67346585091582 24.931419617707434,95.30768241253827 24.787822959922778,95.8253273143564 33.65324176892318,107.88664321826218 33.73625403558981,108.05844196506223 25.018800951169396,126.97812757778593 24.912486995548534,127.25378077422647 31.30676169772778,133.27456456414802 31.305014071149344,133.3615637773546 12.470258942201326,152.51476150906092 11.086429893366585,153.9763053745628 17.0137970044525,161.64292783654673 17.148946800014528,161.89900992150797 8.052550000000338,170.3637539753472" stroke="#009edd" stroke-width="6.2385741229264315px" fill="none" stroke-linejoin="round" vector-effect="non-scaling-stroke"></polygon></svg>