<svg width="412.2719101156108" height="488.44764603709336" xmlns="http://www.w3.org/2000/svg"><polygon points="5,238.6814405018231 6.044498204486445,239.957112509117 6.956468053394929,241.62773367686896 8.044948195572942,243.1245992347831 9.380717511172406,244.84450703649782 10.744740124442615,246.14917605964 11.694866488920525,246.9155674946378 12.784802986658178,248.0321990812663 14.060861724428833,248.93637609074358 15.304589368985035,249.90091955155367 17.04551680001896,251.49173860182054 18.67168341332581,252.95858132804278 19.189272177871317,253.44937001902144 19.5239426845219,253.74983352934942 24.1504930134397,258.435535380675 25.81656376889441,259.8023328235722 25.890546631184407,259.8917319494649 27.182916551129892,261.2059869816294 29.886786275543272,263.94783263490535 30.001838364521973,264.0174151544925 31.13721315562725,265.5376263115322 31.908790328889154,266.59471740806475 32.325308017781936,267.34306472504977 32.633181582205,268.8715468243463 33.19708245329093,271.1783039121656 33.64156216895208,272.9878421695321 34.40090595558286,276.6515691539971 34.5290652444819,278.488708248944 34.7565479822224,283.8281647701515 34.877425493323244,285.45513370924164 35.090053404448554,286.9083830267773 35.427636622218415,288.365769371856 36.825155413360335,292.4886034167139 37.50789489783347,294.1099779740907 38.41636949335225,297.319056450855 38.62288071110379,298.2400738768047 38.73764152894728,299.1679984059883 38.69628103112336,299.92636871209834 38.35112476453651,301.6057393819792 38.20840192004107,303.80663963675033 38.67123171559069,302.22496081871213 41.27694307558704,298.8602264630608 41.690548053360544,297.8756297333748 42.618537813425064,296.36440091527766 43.91149027552456,294.51451340073254 44.75588522676844,292.97699828771874 45.46833436447196,291.3648302577203 46.31447694217786,290.57648076605983 47.11022961779963,290.1318522231886 49.132816213415936,289.1974381591426 52.20252245338634,287.7524979763548 53.63732394669205,287.3262940621935 58.0532852623146,286.0485987876309 55.5835975111695,288.4413338707527 60.63452984893229,292.19971272174735 63.98327381326817,289.07026906777173 66.68801735108718,290.5760200115619 67.43629283562768,291.2044882220216 68.2602988089202,291.2224575940054 69.86170737782959,291.7596950493753 70.02423665777314,291.83295459859073 71.16631068452261,292.78947321826126 71.98740394669585,293.7528988056001 72.95850183116272,295.0554286040133 74.60738759115338,297.9539553282084 74.67321486223955,298.07052219018806 75.36993536003865,297.4586606461089 76.08704483567271,296.84541514061857 76.2399621688528,296.7237794609973 76.75463822216261,296.3243163479492 77.06891975121107,295.9999535981333 78.4373114311602,295.0503604100086 79.4544301511487,294.4232856602175 80.53795868437737,293.5160743595916 83.95631644444074,291.71500210464 85.57811399118509,291.1468940707855 87.69682005327195,290.689365586848 92.70959587558173,290.1235586249968 93.94312903110404,289.912993276841 95.55269319110084,289.4029358798871 97.44624668441247,288.5758754739072 99.6185466311872,287.50368714513024 100.63712170673534,286.95630230463576 103.67449685337488,284.36311683105305 104.7335586133413,283.1678818844375 106.53943950217217,282.20901667157887 107.2294607644435,281.58743381808745 108.50085916451644,281.60402167146094 108.76067299558781,282.76655054395087 109.006214542198,283.8558109040605 111.71678350225557,292.07577066204976 112.70652273774613,293.30274783604546 114.33268935116939,295.33832579292357 117.39715271117166,299.11731742776465 117.59172181331087,299.4246282677632 120.91862044448499,303.62188835523557 122.52701952005737,305.2625294771278 122.62343025777955,305.34730250638677 122.87334087118506,305.5795067201834 123.80162190226838,306.3783978766296 127.33969208889175,309.19845075381454 128.98187861335464,310.3866305773845 133.957663004403,314.4947613371187 136.23482055112254,315.60873910586815 136.41832135117147,315.7054862829391 139.43763768894132,318.02510201581754 140.4282507377211,319.09207079547923 141.68246414221358,320.06919948459836 142.6031721244799,321.49825948651414 144.20312433782965,323.60866247920785 144.70527573337313,324.29001279565273 146.54144881782122,326.19124058412854 148.03013546671718,326.61045744118746 151.36402460443787,326.2165778899216 153.22146048001014,325.83098984207027 154.50596608000342,326.7477392675355 156.74933617783245,328.3587211423437 159.18640156451147,329.6384688173421 161.77114140440244,330.93202893505804 163.9964526933618,331.68568074994255 161.37501269334462,333.3380853723502 160.41119658667594,334.01111300609773 158.19753614231013,335.2696367925382 154.92481393786147,337.47802423057146 154.13401287107263,337.9838219216326 152.7169789156178,338.9106539529166 150.95653632003814,339.7716091608163 148.66685411555227,340.2036977435928 146.8233992534224,340.80346105631907 146.74766876443755,340.67678307637107 145.14917290664744,341.6842164429836 143.85272519115824,342.6976334572537 142.6850193067221,343.3881362285465 141.20710968889762,343.9321531972382 138.28100010671187,344.93865006318083 135.68140543997288,345.75858453754336 133.49803719110787,347.23261619365076 131.2858331023017,348.4795469727833 129.13799992890563,349.2884128760197 127.89106830232777,349.63664805865847 126.40791580453515,349.93237114464864 124.6253366045421,350.0212722423021 122.92751729779411,350.3110066528898 121.30426339560654,350.9766112554353 119.14041031117085,351.9678746437421 117.53434140444733,352.49206319777295 116.42605482670479,352.51970052020624 115.68010951112956,352.9126107376069 115.00639943114948,353.1949713305803 114.00500935106538,353.91814440774033 112.56409116450232,355.00658440525876 110.95714844448958,356.1498320060782 110.55548558221199,356.459364559385 108.62843591114506,357.93746849137824 106.2009824711131,359.75871442229254 104.37995548453182,361.24416537070647 101.88667477341369,363.33068847452523 99.44320142222568,364.99805002612993 97.72208042663988,365.8667310695164 94.15517440007534,367.6220456480514 92.70668316446245,368.26825205772184 92.2723979378352,368.65284297801554 91.59985294227954,369.16501568851527 89.05326961784158,370.983863792615 88.89015779551119,371.0828890146222 88.86103068443481,371.1068392939633 88.23858432006091,371.65032568818424 87.93711872003041,371.9418733329512 88.36412216885947,372.6972240053001 89.03841479122639,373.88182960427366 89.6576571733458,374.7053385232575 90.05058190226555,375.9249365531141 90.50263466674369,377.1362374301534 88.17625230224803,381.56594819552265 88.10605596448295,381.70549780339934 85.70073912886437,386.2645291739027 83.21386638225522,392.7181178034516 82.15975623112172,395.32795991544845 81.67537237331271,396.9761922459584 80.6390297600301,399.1540132808732 78.93421994661912,401.6403589139227 78.01467704889365,403.09512720792554 75.80218168883584,406.9896579885972 74.45592661341652,409.7103077034699 72.09837824001443,413.83496450679377 69.3892656355165,418.12899970734725 67.38881564454641,421.10277039266657 63.45636437344365,426.8761336710886 60.53171114670113,430.531718950253 65.38399658666458,433.4721661461517 67.36755285330582,434.7572753938148 67.54289806226734,434.88804208219517 72.4179026489146,438.09180115832714 72.77034069329966,438.3869424194563 76.10947271122131,440.7609500910039 77.29989774222486,441.57039048243314 79.9239591822261,444.2611363461474 80.59592163562775,444.80305697012227 81.41672362666577,445.38042884564493 82.86346723558381,447.73364063946065 84.07195107557345,449.2949141112622 84.59361763554625,449.94778182252776 85.65617464890238,451.2148367857444 86.32580693333875,452.1844602973433 86.79941376007628,452.80002623586915 90.2798122667009,455.63473763648653 101.25112120888662,459.41229979367927 102.17678080010228,459.9569446706446 104.03742065781262,460.6862049709307 105.84009756450541,460.89706386550097 106.69323064899072,460.9619788985001 107.34247395559214,461.59547493141145 110.27091370662674,464.2468381928629 112.10213518224191,466.23338262108155 114.03297137783375,467.80142770096427 115.16222947556525,469.85285171715077 116.83179548440967,471.604557171755 118.76321422227193,473.14125840575434 118.86748927994631,473.17624608334154 119.50304284447338,473.2844316295814 126.79530638223514,474.38884182157926 133.309002240072,475.6101775569841 138.22769749327563,476.8126317602 142.94425059563946,477.2886397250695 145.13140536891297,478.232366140699 148.45713891554624,479.4882063961122 152.19647744006943,480.80710699688643 154.9562712177867,481.8148060651729 158.88056689780205,483.0627996135736 159.11562268447597,483.1769646530156 159.8100130133098,483.44764603709336 161.73910158220679,482.31980469392147 162.1084333511535,482.07444087718613 164.91075271111913,480.16215870628366 166.08195384894498,479.4762372786063 166.57740600884426,479.160436478036 167.76142307557166,478.34791479835985 170.0135313066421,476.9286415352253 170.93103530665394,476.576008454198 170.1737304177368,472.4631408477435 170.08926179562695,470.0761316536227 170.17518677329645,469.4514076206833 170.19353685330134,469.3643972763675 170.41228145780042,467.8396388744004 170.6094720000401,465.8158184873173 171.0862828089157,462.6189169860445 171.23628743109293,461.7437201003777 172.09233322669752,460.11716116033494 172.5461336178705,459.98502860422013 174.0587044977583,459.7147781413514 174.05287907551974,459.16506831743754 174.13734769786242,459.0370787267457 175.54360462224577,458.0716296164319 175.7084640711546,457.49705412995536 175.98517162667122,455.70840188255534 176.23216952895746,455.57120220398065 176.53043114673346,455.39348705409793 176.9524829867296,455.07580934860744 178.46388878230937,454.0753517175326 177.87493859557435,452.36540095391683 177.28278442670126,450.7733021265012 176.70490254228935,448.3699380647158 177.58745400886983,448.07803340099053 178.1516461512074,447.8386160315713 178.98089500446804,447.26539451791905 180.77687267551664,446.19721863337327 180.88376917340793,445.24414343875833 181.79370012448635,440.76325225800974 182.74411775998306,439.4772579569253 183.20461738668382,438.5135629613651 183.18655857781414,436.75376097869594 183.49734485335648,435.409726707614 183.8477440000279,434.36221217014827 183.3234559999546,433.6144448313862 184.33096277341247,431.7325829092879 185.7963477333542,428.73501505405875 186.40918215108104,427.5976780889323 186.06577351107262,425.49658190633636 185.3189543823246,424.2565433597192 186.11674595566,420.4737600715598 186.11441578669474,419.55740939232055 185.19487288896926,417.5883934427984 184.69446912000421,415.0326981053222 184.51242467551492,414.5256998054101 183.53229738667142,411.91516923706513 183.0094657422742,410.18922691373155 183.35753471998032,408.3762357903179 183.85065671114717,407.2986570027424 184.62369024008512,405.6808971912833 185.43225884449203,403.90977474162355 185.9116910933517,401.76930363551946 186.28568319999613,400.30807911173906 186.64889827556908,398.9633569580619 187.23901354672853,398.86204193532467 187.8381582222646,397.9925728717353 189.04547697782982,395.9275697831763 189.56190065771807,394.68229519645683 190.65911893337034,393.1920089002233 191.87109802663326,391.90941494354047 192.8410308266757,391.0583394073183 193.1870609066682,390.69267063890584 194.14621667563915,389.86599903251044 195.0911001600325,389.03425827086903 195.78636430227198,388.60641251981724 196.55007715558168,388.16014408739284 197.04086897778325,387.71387473051436 198.66557923553046,385.5258059207117 200.0371748978505,383.66240671114065 200.82127672887873,382.4230484853033 201.77606343117077,380.8308933232911 202.64346880000085,380.0898486233782 204.74382478219923,377.88696421298664 203.33523768896703,375.9650063107256 202.34986752003897,373.5796913144877 201.6796526934486,372.4236399823567 201.28643669339363,371.00919583044015 201.74547996453475,370.5780901981634 201.96946744888555,370.43853338237386 202.70580081781372,370.05809091049014 204.87140152882785,369.7458143842523 204.9480058311019,369.5578955485835 209.83932160004042,369.1636339292163 218.46123776002787,369.03881497180555 219.92574890668038,369.63757683959557 238.23679857782554,373.88965940190246 239.59062670229468,374.7748852731893 239.74237895116676,374.85456463473383 247.18377329781651,379.5348694131826 248.77469610667322,377.6529956557788 250.69708544004243,375.7683420262765 251.88255886221305,374.508212513756 252.29179477342404,374.19594243797474 253.60746638220735,372.7879580237204 253.73387804452796,372.8063811699976 253.81980302219745,372.83171299356036 256.94863729772624,370.41135894239414 255.73898837342858,368.9057053766446 255.6612189867301,365.30895165051334 256.1933713067556,363.589084300329 256.4260969244642,363.34865183080547 256.4135722666979,363.19987834838685 257.2375782401068,362.4159371247515 258.39363328006584,360.75546465429943 259.391236835625,359.5942778271856 260.2778660978656,358.82460234768223 260.412142080022,358.6979349645553 261.22129322669934,357.77533355995547 262.84629475558177,357.2225999220973 265.3218079289654,355.811740881647 266.75893959112,355.0581734688021 268.1570409244159,353.5192479660036 268.71715527109336,353.13647251052316 270.9156696178252,351.88680494681466 272.7669888000237,350.2151962709031 274.14004081778694,348.8683188908035 274.7129710933659,347.84756079351064 275.1743445333559,346.5960200094851 275.7597994667012,344.638774371997 275.1102648889646,343.1195820448338 274.8090905600693,340.45521159417694 274.4027673599776,339.6592107093893 273.30962687998544,337.362400001497 271.87540792895015,336.1006638419349 270.5629403023049,334.59246714774054 270.5856594488723,334.4243260556832 268.9909501156071,332.26704116747715 267.9030525155831,331.09234140004264 266.6945686755935,330.38890047266614 263.4401965511497,328.0256538159447 262.4256992711453,326.9518191363313 261.290907022194,325.58682978944853 260.2621374578448,324.40564404183533 259.2741458489327,323.4202427077689 258.58761984005105,322.7637666662922 255.3533454221906,321.10344920889474 253.67445873783436,320.1604163637385 252.90928952896502,320.37233421666315 251.20710115565453,320.0913126709638 249.94677105778828,319.8904511447763 248.38497536000796,319.03909103700425 247.0602743467316,318.2807880209293 246.75269205332734,317.12904686352704 246.8365781333996,316.3665908294497 246.7588087467011,315.38990604522405 247.20736625778954,313.5876345722936 248.03894528001547,311.05788708408363 248.20496981334873,309.40761510661105 248.7409086577827,306.7488169921562 249.61472199112177,305.42885044333525 250.93155868444592,302.27057304163463 254.6074001066154,300.26546902995324 254.72070456889924,300.15120702586137 254.8421646222705,300.04569891199935 257.87604451552033,298.92795475764433 258.0123593956232,298.81184909661533 259.2156003555283,298.0064795346698 261.0715798755409,296.8615410779021 264.0131268267287,294.928262971458 264.6087762489915,294.47166401229333 265.5222024533432,293.8123352502007 265.9850322488928,293.49303694820264 267.5899360711919,292.27711887896294 267.77751466666814,292.11815977597144 268.68686307559256,291.3224409954855 269.9658345244825,290.1968187307939 270.0698183111381,290.09130574035225 271.65578951104544,288.6242551394971 272.18794183118735,288.0248072788818 273.21933283563703,286.82360273983795 273.79051548440475,286.0426088531967 275.2864839110989,283.83231169043574 275.5690168889705,283.4558631546679 276.12592725339346,282.7794521371834 276.7131298133172,281.8233498343616 276.8876012088731,281.3496744465083 277.79491071996745,279.39506129245274 277.7815122489119,279.3033663689275 277.09789895114955,279.42869811388664 276.7824523377931,279.49090318073286 276.52496867557056,279.35865979478694 275.6587283911649,279.1969264841173 275.02375736890826,279.0089286370203 274.6331628089538,278.8545675369678 274.3296583110932,278.84120492910733 274.08469930663705,278.61726592853665 273.48526335996576,278.5389333013445 272.8453407289926,278.2781315256143 272.49086378666107,278.2094751751865 272.1666790400632,278.07216240878915 272.1090073600644,277.896143902326 272.07347228447907,277.80813459516503 272.00618865783326,277.6385668234434 271.7696765155997,277.6104591091862 271.548893013387,277.4924988260027 271.2855839289259,277.2381467455998 271.0199446754996,277.1155784255825 270.514006755664,277.346430729609 270.3127384177642,277.60400815785397 270.16593777784146,277.56115540501196 269.9879711288959,277.3934305695584 269.5868908088887,277.3524209057796 269.7508764443919,276.53775540634524 269.71097230224404,275.66733167966595 269.77359559119213,275.1194559682626 269.5865995378699,274.75635506538674 269.1776548977941,274.23566361592384 268.83628515549935,273.81404085608665 268.83278990222607,273.72695146192564 269.1086236444535,273.6094498424791 269.4185361067066,273.3454165578587 269.6090274134185,273.07631423848215 269.3748454400338,272.949135628005 269.23387022223324,272.93346869252855 269.02968917333055,272.7505340970238 268.7454085688805,272.64547335216776 268.14276864007115,272.2487303407397 268.09470890671946,272.0155686015496 268.42908814223483,271.74600382568315 268.5607426845236,271.4612324652262 268.64142478222493,271.1838334640488 268.4462731378153,271.0819975283812 268.3119971555425,271.061261698429 268.1101462756051,270.8921494112001 267.95955911115743,270.6691237394116 267.61061632004566,270.65852540632477 267.3886677332921,270.56820915511344 267.10759111121297,270.3120057054912 266.8667099023005,269.74522361007985 267.1157467023004,269.46413600142114 267.44255288888235,268.6826183613157 267.6612974933814,268.04072115011513 267.7836313600419,267.654107333743 267.59809166227933,267.3490551795112 267.406435271143,267.2582767360145 266.691364693339,266.86336702120025 266.6473827556474,266.9440079202177 265.761627306696,268.1950900008669 265.46860856888816,268.5508291401784 265.40423765336163,268.6379206275451 264.507996444474,269.7166540666367 262.3671537777409,271.7026891122805 261.68324920895975,272.4003314151196 261.16187392000575,272.69523897452746 260.82778595550917,272.56759934604634 259.57561144884676,271.9505966095021 258.7568483555224,271.5197534713079 258.53635612444486,271.3957995104138 258.2698430578457,271.3331313097151 258.0208062577294,271.079232751159 255.47072768001817,269.5139023588272 254.7486665956676,269.0448079032358 252.80151921778452,267.8393502739491 251.30933731561527,266.6799664639984 251.04486314661335,266.5435679582879 249.89026446221396,265.9380681437906 248.57808810670394,265.34316522214795 248.45517169777304,265.1860294743674 248.18050303997006,264.91507372190244 247.97486563562416,264.69987562811 247.87495964451227,264.60356634727214 247.67951672896743,264.421085486596 247.53562880004756,264.25611528242007 247.76544170675334,264.22524095652625 248.2975940266624,264.056584112579 249.5596717511071,263.54784791427664 249.84977777779568,263.52388567244634 253.08958634675946,263.90589878777973 254.95313891558908,264.11372469738126 254.94527459563687,258.7207847877871 255.67083093337715,258.89589732233435 259.99183786672074,259.899565891712 260.1165019022301,259.62814266746864 261.07303623110056,258.3567345892079 261.11701816890854,258.2111143375514 261.02759793784935,257.90097973914817 260.7826389333932,257.4313991627423 260.69321870221756,257.26181534671923 260.2988376178546,256.6710359011777 260.209417386679,256.4263366078958 260.2432048355695,256.0774898653035 260.2813613511389,255.7756471154862 260.52107747551054,255.20375763089396 260.64748913783114,255.23555491049774 260.76691029337235,255.01113053283188 260.65506218664814,254.94338842615252 260.93934279109817,254.71758125035558 261.20265187555924,254.61020755104255 261.30022769782227,254.4549072990194 261.5845083022723,253.99361419840716 261.6480054043932,253.87932764313882 261.31857777782716,253.35720321396366 260.39058801787905,251.79589154338464 259.4646371556446,250.5525484745158 258.175179946702,248.99121647019638 257.5209850311512,248.12851577310357 255.2924697600538,246.02935514377896 253.69310008897446,243.9942327902536 253.04094407113735,242.88541482714936 253.4752292977646,241.51528399682138 254.1005883733742,240.0631109268288 254.36244110227562,238.61138893000316 255.10722133342642,237.1591962778475 255.54005020449404,235.99089073296636 255.56218680890743,232.9021092117764 256.30842339561787,232.07068387855543 255.673161102226,230.68711864197394 256.425805653329,228.48961900849827 256.4895940267015,227.12815349677112 256.97164771554526,225.01726577919908 258.18450062233023,222.77039203513414 260.28194389340933,221.77530753670726 261.401881315629,221.36141740099993 263.0088240355253,220.5262602728908 265.0488868977409,222.40674195729662 266.0616365511669,223.76086296071298 268.36529976897873,223.00130260240985 269.02211612451356,221.92095242865616 269.3824184888508,220.8124817063799 269.1479452444473,219.81877087790053 270.02088476449717,218.77205103408778 270.1860354844248,218.42176056216704 268.7899730488425,216.8919985203538 267.26429496891797,216.0466839505243 265.0078176711686,215.03912364528514 263.80719815113116,214.7985252905637 261.8717016178416,214.4551421153592 260.06960725341924,213.2632064691279 258.5148020621855,213.69739260768984 257.6203084799927,214.4915545854019 256.51959495118354,215.29354919935577 254.22933020442724,216.77077858685516 252.7712270221673,218.65037125058006 251.6239101155661,219.94966811384074 250.41571754671168,220.3750835811952 248.85479566222057,220.35203834448475 247.1345484800404,219.9183265294414 244.58854769775644,219.63855659548426 242.28954481787514,218.9859123052447 243.47822222218383,217.52943910111208 245.36507647996768,216.59701453271555 246.28665827552322,216.3250758111244 247.1794042311376,215.76460441347444 249.23839971562847,214.49846834491473 250.0070641777711,213.46555022441316 250.6102866489673,212.32938066124916 251.32914375106338,211.0203583976254 251.81644031999167,208.75628420483554 250.02395790221635,209.2176742198062 247.6602928355569,210.0284460869152 245.42216561781242,209.8638951361645 244.46504874667153,208.0833259668434 244.12921315559652,207.43387317983434 243.044519537827,206.1769068277208 243.91833287116606,204.29674434149638 244.8812751644291,202.7894681240432 245.78741959109902,201.47900502802804 246.1669458488468,199.98461564048193 247.0978483200306,198.7405124309007 244.85069169779308,197.42264943104237 242.98801294225268,197.63837572082411 241.8966200889554,197.14192835858557 239.07944590225816,196.45003462873865 237.18734876450617,195.97294471925125 235.9217757866718,195.890433410299 233.49840014218353,195.16119800886372 231.27978808886837,194.10237331100507 232.61847011558712,193.2039585459861 234.28541468456388,192.50605962530244 235.84255004441366,192.1497338745976 239.26090780447703,191.60763819946442 242.10400512011256,190.74885628768243 244.04503580450546,190.10626575700007 245.48595399118494,189.5558674648637 246.11364323552698,188.3435111551662 247.1528985600453,187.03526501584565 246.9227943822043,186.38943655980984 246.628028017818,185.4900676526595 247.70252714678645,183.98173781268997 249.70297713775653,181.98244692012668 252.07392398221418,181.42326908721589 255.02712177776266,181.838157972903 256.1170582756167,182.01425501372432 257.4604006400332,182.48676599550527 259.65687608881854,183.07221718819346 261.4878062934149,183.6489081059699 263.1722271288745,185.00142894720193 264.20099669334013,186.14650130015798 266.460677973344,187.46627721877303 266.6331104710698,189.07553547725547 266.7580657778308,190.14867494720966 266.7595221333904,192.17785274575 266.267565226648,194.9219603196252 267.9948029156076,194.8223931103712 270.514006755664,194.3227125321282 272.1573583644349,194.74679575418122 273.6649776356062,195.16211992618628 274.8053040355444,197.4304856462404 275.74931370664854,199.3503497671336 276.57594112004153,200.64008320646826 277.83976647106465,202.63827897945885 279.9302192355972,203.6122486514505 281.65046641777735,202.90285991301062 283.0975012978306,200.50272097042762 284.4149205334252,199.09728822513716 285.906519893324,197.8190693698125 287.5778335289797,196.1771485490026 288.7161210310878,195.03581721062073 290.1183001600439,193.38235110387905 291.4016406756127,191.83258963166736 292.753721173387,189.90712683880702 293.3409237334272,188.55141000344884 293.97735111112706,187.34826754638925 294.4288213333348,185.76296727720182 294.4783374222461,185.00834365352057 297.1190013155574,184.72391854703892 299.0038166756276,183.67841103707906 300.0320036978228,182.48584402387496 300.02676081773825,181.4730557957664 302.169642382185,179.42118848313112 305.17439516447484,179.24555031419732 307.0388215467101,179.234025494894 309.4607408355223,179.28242973150918 311.46963768894784,179.16072763002012 313.7485428622458,178.73661370831542 315.9412317867391,177.01940477982862 319.08754232898355,175.4755185371032 321.15236323559657,174.4516332601197 322.03200199105777,173.6098400966148 323.4705900088884,172.3761876525823 325.29482097772416,171.3933174922131 327.9217951288447,170.7681876073475 328.2052019201219,170.64371462597046 328.3056904533878,170.5999185598921 329.76146346668247,170.0854293688899 332.2608608711744,170.7266966215102 334.45005454227794,169.69863964233082 335.17997994669713,168.46542580332607 336.11962055112235,166.08610990812303 337.21538247109856,165.27747767069377 339.1205868088873,164.12814509682357 340.4231512177503,161.86911012302153 341.44959061336704,160.00331377249677 339.4109841067111,157.48052116378676 339.0460214044433,157.16978040942922 338.33648497774266,155.94755982706556 336.91595576889813,153.8249090258032 336.3220539733302,151.46156815544236 335.95854762673844,150.5703523082193 335.6993163378211,148.6850935923867 335.0958025956061,146.82010510470718 334.5487954489654,144.98230336408596 333.6222620444605,143.45017516991356 331.4528748089215,143.9665722886566 329.550583182252,144.15468807413708 328.30394282669295,144.19433990988182 325.78299135994166,144.17451399285346 324.7070358756464,143.83286243921611 322.8863001599675,143.78537236934062 321.22314211551566,143.0596490263124 320.1803915378405,143.6023280211375 319.36745386675466,143.5682089062757 318.06692835560534,142.00794522778597 318.7924846933456,141.56854268891038 319.4740590933943,141.18077957769856 319.84484721778426,141.14850437629502 320.871286613401,141.25870111503173 321.787042986718,141.15726478863508 322.63143793772906,141.16279768041568 323.58127303107176,140.80131511954824 324.5430502400268,140.1659527189331 324.92257649777457,139.35676204098854 325.102873315569,137.58575348288286 325.6653178310953,136.5211125840433 325.60618979565334,135.91063617251348 324.5086802489823,135.11618429247756 323.74118087114766,134.27423731249291 323.54369905777276,134.03400977735873 328.3802558578318,129.24692457390483 330.47566023119725,127.32412969821598 332.00745500449557,123.66616100113606 333.3306996622123,120.15338277636329 334.4229663289152,118.3540877182968 334.70346040895674,118.17563298065215 335.0885208178079,117.70713094994426 338.65571811562404,115.67909563600551 344.8306656711502,114.30861620639917 353.3206360178301,112.56230289116502 354.7172809955664,111.97988787991926 360.632123448886,107.05581263685599 363.81921194668394,104.35946710722055 371.14351530664135,97.68740005721338 372.2619963734178,96.66821761219762 372.45161386660766,96.1166580413701 372.6284154311288,95.6029131563846 372.60307484446093,94.91945531364763 372.5838509510504,94.40201817557681 372.4353026844328,90.41374437476043 372.2107326578116,87.1577676339075 372.08606862218585,85.19078331638593 371.9605307733873,83.20579428452766 373.3918370134197,77.12019453663379 373.6889335466549,77.20920833817217 373.77660615113564,76.8162559417542 376.4009588622721,74.79982695903163 377.01321073784493,74.48066492180806 380.78429781331215,73.21692619705573 385.30191274674144,71.16079821035964 391.1451025066199,68.50136262422893 397.68821674666833,63.13442376191961 402.3543799467152,60.11373215983622 404.0676366222324,59.07730552949943 407.2719101156108,54.05884520197287 407.16617870226037,53.96151912526693 407.0674377955729,53.89509751216974 405.77186389337294,52.71149783022702 404.1349202488782,50.210972190252505 402.9351745422464,49.24507238261867 401.4164869689848,48.90696029854007 395.4116417422192,49.38945023203269 391.952797297854,48.46367748477496 391.7684226843994,48.43784620001679 391.3463708445197,48.309151003020816 391.6527880532667,46.468201607931405 392.0462953244569,43.16589286364615 391.8057053866796,39.05581078364048 391.4762777599972,38.55161685869098 389.078533973312,33.51284177589696 386.0376635733992,30.633818268193863 384.5259665066842,29.31354176288005 383.05650375119876,28.957407090696506 382.298325048876,28.424587924964726 379.8732017778093,26.46075732272584 378.61665820446797,25.227645227336325 376.7059197155759,24.12831037992146 376.0782304711174,24.02543486340437 375.86647637339775,24.000061970669776 375.06548081780784,23.412793998082634 372.72569998225663,23.00313557893969 370.83738936891314,22.34851087827701 370.1322220088914,22.0108178651426 368.5829509688774,21.67496964347083 366.414437546744,20.892090641253162 364.2794203022495,19.90391520038247 363.68202325340826,19.481794056133367 361.2769976889249,19.43612188269617 359.83404060453176,19.928827242110856 357.7826181689743,18.732123316265643 356.8158893510699,21.47475218499312 350.7085166934412,20.98989300581161 348.2589266488794,20.612061927095056 345.47728753776755,20.116590130026452 344.3436603733571,19.604047806118615 343.1960521956207,19.57913572678808 343.00730851560365,19.56621835124679 340.4796578133246,19.591130431974307 339.7165275022853,20.027552712184843 339.5971063466277,20.92069322417956 339.0684492799919,21.853965738904662 335.0628889600048,24.367276636417955 333.967709582299,25.84397149749566 333.2293373156572,27.356177726993337 332.63310535112396,28.68523123144405 332.4222250666935,29.517442436888814 332.4606728532817,30.290602513356134 333.19118079997133,35.2053630159935 333.17253944894765,35.63483412691858 332.6942722845124,36.06707217777148 335.4630954666063,40.795801240659785 342.9901235200232,49.62746590026654 343.817042204435,50.92593821481569 344.39667171554174,52.04174173588399 344.2650171733694,52.089252050966024 344.01714545779396,52.23731811111793 343.9032584533561,52.31988449918572 343.10750577785075,53.61603426083457 341.8515447466634,51.9264253936708 341.090744604473,50.27278225001646 339.8126469689887,49.09792680689134 337.0589698845288,45.996314524440095 336.4274941155454,44.89939216413768 335.1260947911069,43.45834689133335 333.76119836443104,42.150142506929114 332.3223190755816,39.441912743786816 331.9261903645238,37.95239491213579 331.0066474666819,36.59341424575541 328.3476334933657,34.21540808206191 325.94231665786356,30.626898601069115 325.4037563733291,30.697940505691804 325.0387936711777,30.728387029084843 324.25847836444154,32.21380309021333 324.1291539911181,32.65711937536253 323.55505863111466,32.98049519461347 324.1236198400147,30.650425468222238 327.2999313066248,26.10830849618651 326.26679267559666,24.56103286583675 325.4902638933854,22.20503754535457 323.1388322133571,22.826908406510483 321.91141575109214,22.73879476613365 317.4535113956081,23.58071681833826 316.1427913955413,23.558573157293722 314.4953619912267,22.98975708137732 313.7884470045101,22.630843974358868 310.1035761778476,19.844864423503168 307.6868997688871,18.75519014731981 304.844384995522,16.532920299854595 303.53249991114717,14.302323273383081 301.9060420267051,12.778952927386854 300.3191970133921,12.020954518695362 299.4660639289068,11.590052224462852 295.3952588799875,8.247531354427338 294.3577511822805,7.191477736108936 292.730710755568,6.206468925462104 290.6044316444313,5.368631184624974 288.35902264888864,5.290199070586823 286.3638155377703,5 281.9836805688683,5.699891209893394 280.6956797156017,6.064368921448477 279.7487573333783,6.484209571033716 278.7319298844086,7.54303482407704 277.14304597338196,8.203240874339826 275.0881282844348,8.835302071413025 273.1019505778095,8.227231552242301 271.0196534044808,6.994937696435954 269.4371774577303,6.559873073478229 267.71401756454725,6.4468391727423295 265.8691063467413,6.160793934366666 263.48184832010884,6.108198478119448 262.2655001600506,5.955948400893249 260.5414664533455,5.882591507048346 258.5177147734212,6.791015681519639 256.4429906489095,7.780174057756085 254.79847395559773,8.975554815260693 254.58584604447242,11.631573896389455 254.4734153955942,11.821650781028438 253.55095978674944,13.098206479335204 253.04385678225663,14.141774756833911 252.04159288888332,16.29625205299817 250.85553692444228,19.199918164289556 250.4763019378297,20.027091378287878 250.65222968894523,21.7612383987871 251.03379484452307,22.950544238905422 252.45869312004652,23.931324482429773 253.8844652089756,25.14230050740298 255.57267256896012,24.965152440126985 256.2157991823042,25.4315497726202 256.8545567289693,26.89301379956305 257.07213624892756,27.681868098909035 259.03879879112355,29.022913771448657 258.5573276444338,31.627480149269104 258.2325603555655,33.71581586229149 259.43288860446773,34.304900933406316 260.232427804498,34.53785895439796 261.7045120000839,34.78050407045521 261.6782976000104,36.244672405999154 264.97606911999173,38.15720999147743 264.07487630227115,39.31920897017699 262.92755939555354,40.889904247189406 262.1661767110927,42.552383911795914 260.65506218664814,43.46803384757368 257.78895445331,44.00542859523557 256.41910641780123,46.29937408992555 256.30813212448265,46.882889403030276 254.4396279467037,47.17487710417481 252.91802766232286,46.863054521149024 251.0425329777645,46.23248883441556 250.40261034667492,46.71313965693116 248.15661880886182,45.5871603700798 247.36057486222126,45.755065889446996 246.43666289781686,46.08534119906835 245.6671246222686,46.748657957301475 245.12390400003642,49.557814055588096 246.40607943118084,51.4946804594947 247.71825578669086,52.924140341579914 249.56054556451272,54.06945420289412 250.42882474674843,53.93983985099476 252.57665792002808,54.650642151769716 254.17661013337784,55.580539605696686 255.0879974400159,56.65757354977541 255.57878926221747,57.610986252722796 255.05654015997425,58.95784170291154 254.30360433773603,60.67553142516408 253.40998456894886,62.00530167494435 253.01065187552013,62.644123517966364 251.642260195571,63.05970263038762 250.56630471115932,63.273257400491275 249.27422606223263,63.33829239633633 247.86913422227371,63.10029189026682 246.83453923556954,63.79814921779325 245.72567011555657,64.80272770312149 243.37307335122023,66.98298820207128 242.20041585783474,68.13606817671098 242.0836161422776,69.07836054521613 241.95574812439736,70.3102989711333 239.89150976005476,70.65714071528055 238.0937844623113,71.27933281578589 236.3362545777345,72.06940810970264 235.33632085332647,73.52732694346923 233.15237006230745,74.88422955741407 231.64620714669582,75.9095109369373 229.86304540443234,77.89456725673517 228.59281208890025,79.12230435851961 226.72168647113722,81.48920676030684 226.48604814219289,83.53278374637011 225.87729152000975,85.30193109228276 225.16921144886874,88.17883986176457 225.12610332446638,88.99652429146226 225.18727025785483,90.59176094661234 225.14590976003092,91.97438205394428 224.9294953244971,93.73515885288361 224.69269191112835,95.15465360169765 224.40986766223796,96.483288515592 224.1357815467054,98.025896688574 224.03820572444238,98.62310674984474 223.75042986660264,99.97570070833899 223.27624049782753,103.23793974600267 222.9660367644392,105.77612489555031 221.91746076452546,107.23012627026765 221.03840455121826,108.49274302995764 220.54003967996687,109.25731889926828 219.31699228449725,110.19758670637384 218.61648526228964,110.85424996819347 217.8221889422275,111.6238899633754 217.45227463112678,112.07534317974932 217.44470158219337,112.15281411662 217.147896319977,112.2182954819873 216.71768888889346,111.90149460692191 216.1412633600412,111.82079561951105 215.67726848006714,111.035016469541 214.27072028443217,109.91767415928189 214.00012942228932,110.02373661700403 213.29408824897837,109.7147719206987 213.11757795559242,109.19091434765141 212.9267953777453,109.14341663487721 212.59241614222992,108.53747402102454 212.84756963548716,108.24971985362936 212.86125937779434,107.81670444417978 212.69960391114,107.71479121263837 212.4863934578607,107.73646507132798 212.445906773326,107.68112755543552 212.49746175995097,107.39060536347097 212.3905652622925,107.16187650465872 212.09521635563578,106.9797233082354 211.69850510230754,106.55454486759845 211.716272640042,106.51673069229582 212.10570211557206,106.53517663234379 211.82520803553052,106.08786214166321 211.58490936888848,105.97488049964886 211.5257813334465,105.72447607747745 210.9816868978087,105.6285568109015 210.73760170664173,105.84529740037397 210.62313216004986,105.8079442505259 210.55613980442286,105.30759587755892 210.2037017600378,105.35094407753786 209.18192270223517,104.57620897446759 208.8804571023211,104.26124146569055 208.51753329776693,104.5702139895875 208.13014271995053,104.346554818796 207.76576256006956,104.2856825919589 207.49284152884502,103.90984232490882 206.73611918231472,103.60040769836633 206.58465820446145,103.09590379160363 205.74812757328618,102.87224308896111 205.64385251549538,102.66518379841 205.73531164450105,102.42538214387605 205.8681312710978,102.26489934901474 205.75162282667588,101.98958806868177 205.43734129774384,101.793134578038 205.234907875536,101.8360223271884 205.04208640009165,101.70782021281775 204.7385819022311,101.6852234294056 204.69634759111796,101.5307351523661 204.4414853688795,101.3172183362185 204.47964188444894,101.24666089686798 204.65789980441332,101.20976810884895 204.62440362665802,101.03960004250985 204.31216099555604,100.95935814350378 204.26730524445884,100.81178675673436 203.6320429511834,100.59411877661478 203.74942520889454,100.22657298005652 203.6547620977508,100.06516622111667 203.42116266663652,100.06654970813543 203.38504504889715,99.75895420880988 203.18086399999447,99.77186677232385 203.20940856891684,99.63028969411971 203.26125482667703,98.90165048965719 203.10309461329598,98.43126184510766 203.35591793782078,98.2919897158863 203.33669404452667,98.15179516363423 203.1706695111934,98.10798434726894 203.00959658669308,97.92075065302197 202.8689126400277,97.47987461119192 202.57035975111648,97.63159879029263 202.39443200000096,97.47111242136452 202.1721921422286,95.95202000252903 202.5333683200879,95.63703987444751 202.51414442667738,95.47839670703979 202.6306528710993,95.44058058597147 202.55841763562057,95.19016390899196 202.8764856889611,95.00385002302937 203.1258137600962,94.74789875332499 203.05940394673962,93.79557288764045 203.13426062231883,93.56636840628926 203.3722291199956,93.44415666151326 203.3713553067064,92.99128083616961 203.61602304002736,92.86999112035846 203.5953427910572,92.56930301315151 203.8449621333275,92.4968979919795 203.6693256533472,92.23771548748482 203.75874588440638,91.83510574686807 203.5132043377962,91.8028231463395 203.5539822933497,91.39744550682371 203.7220457243966,91.32504009152763 203.59825550217647,91.20190471154638 203.953314986662,91.02573337114882 203.51611704891548,90.64018511812901 203.5944689778844,90.35840240534162 203.94486812443938,90.10659626492998 204.02846293337643,90.02865620935336 204.0721536000492,89.9027529830928 204.0045787022682,89.87323719775304 203.8633122133324,89.82711877510883 203.17591239116155,90.32427485042717 201.1967251910828,91.58376251440495 200.29757127107587,92.17407276079757 196.15074446215294,94.65381929115392 194.59710435557645,95.5996849531075 195.52713301335461,97.0786581817083 196.66833322669845,98.76145633449778 197.02601415116806,99.675022526877 197.4116571022896,100.59411877661478 197.8401169066783,101.78713951562531 197.56195299560204,102.85518030414823 198.72849379561376,104.03988774307072 198.66761813336052,104.73669004626572 199.0092791466741,105.20937066874467 198.50042851560283,106.24972553376574 199.1068549688207,106.70718494674657 199.25016035558656,107.1157617860008 198.38246371562127,107.34679642750416 197.0868898134213,107.1734051827807 194.89915249776095,102.71821682050359 192.95054876443464,103.63868354063015 194.1817517511081,105.80748310044874 194.4904991289368,106.33642154559493 194.7517693155678,106.85475229192525 195.63228188455105,108.47752526786644 196.77173447120003,110.19897012820002 197.67001457780134,111.41868364292895 201.07846911996603,115.77362703811377 201.4527524978621,116.07197709346656 202.6894896356389,117.86160761804786 203.37048149330076,119.51842055324232 203.56883711996488,119.92789531685412 203.4427167288959,120.00766902579926 203.29824625782203,119.71946907055099 202.08422826672904,120.36549755337182 201.60770872887224,120.3913202076219 200.95992177783046,120.87641663657269 200.06659328006208,121.34260618599365 197.90244892449118,122.54611756606027 198.4133384533925,123.41808271885384 199.41968014230952,125.08914726093644 200.27922119107097,126.65691125160083 201.08545962662902,128.53590746270493 201.28352398215793,129.03758514957735 196.98552746663336,131.17016337136738 198.3172189866891,131.87148880399764 199.31394872895908,132.52946923312265 199.75318556441925,133.21741858928 199.47618673776742,134.2696264218539 199.70803854230326,134.29636958625633 201.61644686223008,134.4568285034038 202.1908334933687,134.7869677383569 202.4028788622236,134.9225275568897 203.1112502044998,135.1023516743444 203.2038744178135,135.89864794776076 203.32941226672847,136.70185753382975 203.3419369244948,137.48201001493726 203.5321369600715,138.4622685215436 203.6728209067369,140.3775867021759 203.84030179562978,141.4652622138383 204.177011199994,142.62716470175656 204.76275740447454,143.17353334685322 205.4685073067667,143.78537236934062 205.689290808863,144.67200563650113 205.62084209779277,146.8606785737793 205.47083747549914,147.86025889660232 205.39801969775,148.86675044556614 205.47229383105878,149.94423984817695 205.62025955552235,150.7109737811843 206.05104952887632,151.742348793603 206.52902542217635,153.54413110372843 208.10334577783942,154.16285635129316 209.28124615119305,154.6727731397259 210.13467050669715,154.85626912070438 210.92867555550765,155.01394644670654 212.14385863114148,155.6363558168523 214.46412430226337,157.03792292112485 214.69102449784987,158.35972143214894 214.88501105783507,159.62710973259527 215.17977742222138,161.42836502590217 214.77753201778978,163.75748057564488 214.6618973867735,165.45958154671825 214.2380979200825,167.02290240873117 214.13848319998942,167.5212632935727 213.9663419733988,168.95318000903353 213.84080412448384,171.001459000865 213.88711623114068,172.95244621357415 213.84983352886047,173.70065802783938 214.12333710223902,174.75036301102955 214.56810808891896,176.19560062867822 215.0169568711426,177.2065696931677 215.11628031998407,179.19899004057515 215.87125504005235,180.62760216533206 216.89186901331414,182.38027824519668 217.32848440890666,183.56777502468321 217.88626858673524,185.01664130098652 218.42978048010264,186.90342581667937 219.52321223111358,187.56123808014672 219.42825784895103,188.21628249261994 219.20135765336454,189.03358704742277 218.56493027566466,189.72319975774735 217.55800604447722,189.8200035042828 216.36991118232254,189.45768068695907 215.75940693332814,189.61394976306474 215.33473365334794,189.11195223941468 214.52674759121146,189.84673976933118 213.88565987558104,190.0113060181029 213.97100231109653,190.28419991227565 213.93692359118722,190.56354702007957 213.95236096007284,191.02681989007397 213.6642938310979,191.80170492030447 213.32438044447917,192.49269165820442 212.49687921779696,192.40280358225573 212.47037354670465,193.0195733177825 210.73760170664173,195.07776447106153 210.07554247113876,195.28427394200116 209.93689742218703,195.74891952739563 209.62203335110098,196.14718637394253 209.6415485155303,196.59984525182517 209.1376494934084,197.12856067926623 208.45811399118975,197.49501917196903 207.96295310230926,197.19908670184668 205.1891783111496,197.03406499198172 202.99503303109668,197.8356636769604 202.23772814229596,197.75637975370046 201.81188977777492,198.61513371695764 200.35116515564732,199.59096538391896 198.5251865600003,200.44879013567697 197.35369415115565,200.05467977945227 197.0644619378727,200.31373251590412 196.7329954133602,200.26809869345743 196.21249393781181,199.76889170141658 195.57752291555516,199.5725274151191 194.43370126222726,199.6034110118635 193.65950264886487,199.21529145841487 192.21421539550647,198.21871524374 190.83825066674035,197.29773090378148 189.1046050132718,196.6427141187014 187.11347569781356,195.6954484594753 184.25639736896846,195.8033124966314 181.73894115560688,195.257999310561 179.81567800894845,194.99894049140858 177.93901823996566,195.12754802237032 176.22168376890477,194.6652058949112 174.26172046223655,194.8597308192402 172.83390947559383,195.3497300276067 172.17563676449936,195.5534734906396 171.4803726222599,195.75491197378142 170.85617863119114,195.87291703891242 167.2892726045102,191.62745974905556 163.74828970665112,188.91834406624548 162.72592810669448,190.1283922920702 162.3650431999704,190.77605340559967 161.57336832000874,191.62607685034163 160.61683399113826,192.4544316098909 159.0055222044466,192.51758373412304 158.11685404449236,192.90018379839603 156.05756728886627,192.31798608135432 154.8519961599959,192.3235176585149 152.40182357339654,193.02971450949553 151.42985187552404,194.04429222352337 150.43253959110007,195.68161973287351 150.22369820449967,195.73324697441421 150.07136341335718,195.7853351609083 149.08278926229104,196.04992451530416 147.107097315602,195.0012452864903 145.82346552889794,194.81455680041108 145.76404622220434,194.00787629559636 145.98861624894198,193.13389217783697 146.06289038225077,192.56506305618677 144.43876266677398,192.69551589677576 143.19707392004784,192.89880090777297 142.24083086219616,192.63697346567642 141.7133388799848,191.85517695517046 141.3926493866602,190.2648392082192 141.3364340622211,189.91542429744732 141.56653824006207,188.9731997330091 141.82140046230052,188.53435400791932 141.28313144890126,187.0311162311118 139.4819108977681,186.35117542708758 139.37530567112844,186.31936797418166 139.33103246230166,186.2995459359372 139.1280164978234,186.1488061901182 139.0569463466527,186.09994251892203 138.9905365332961,186.06490818189923 138.96111815108452,185.84409953135764 138.81286115560215,185.33425656321924 138.76101489784196,184.2140729263192 138.41848007112276,183.54011601262027 138.3864402489271,183.22895188303664 137.496024462278,182.21478419116465 137.3433984000003,181.94234105630312 136.30239544890355,180.63129008375108 135.68373560893815,179.8213294983143 135.59518919105176,179.62817396281753 134.68846222222783,178.78594004444312 134.39515221340116,178.51810251397546 133.73192789335735,177.7966452022083 133.23880590230692,177.38958547328366 132.4299460267648,176.58698866819032 131.9420669155661,176.1347487141029 131.5141896533314,175.75257985730423 131.09184654220007,175.3090971732745 130.43066112010274,174.7125608123606 129.60840277338866,174.155208112963 128.65390734223183,173.51671710191295 127.8814563555643,173.01422103971709 127.26454414217733,172.62928060244303 126.6633605689276,172.2374243607046 126.19936568883713,172.14245674054837 125.53293738665525,170.8382612540736 123.93415025784634,168.1574670022237 122.75391971552745,166.50010630919132 121.87398968893103,164.99855877709342 121.8020457244711,164.97458556614583 121.5448533333838,164.95337849261705 120.64307797339279,164.60300045402255 120.33636949339416,164.5181720010587 119.8945112178335,164.29088690516073 118.67495907552075,163.76762314571533 117.94823765335605,163.5403372575529 117.44055210670922,163.38865952321794 116.4677065955475,162.7607402278809 115.25456241774373,162.1079235121142 111.33958741335664,159.99363205913687 110.7678222223185,159.78570563351968 109.73439232003875,159.13795129093342 109.1326262045186,159.4044298257213 108.56231736892369,160.06970265245764 108.00278556451667,160.5344242390711 107.55131534219254,161.1111755274469 107.60461795551237,161.53993447683752 107.54694627563003,161.9152131144656 107.25596643553581,162.41220273607178 107.05295047117397,162.6136722280644 106.8120692622615,162.78886293742107 105.68281116441358,162.89351626677671 104.66714880010113,163.1023617456667 103.50264689780306,163.27663000347093 103.19914240005892,163.05718106322456 102.78961521782912,162.64225598511985 101.6379292444326,161.2190568918595 100.76935879106168,159.8539387176861 99.917099519982,158.6967395658139 98.51841564441565,156.72072695416864 97.84004522673786,155.7474672262324 97.04924415994901,154.8387494107592 96.0012507023057,155.0554404607974 94.7313086577924,155.35281399363885 93.3040802134201,155.67370032175677 92.42968433781061,155.86503317777533 91.54451143112965,156.16471080330666 90.66021233785432,156.5349273554748 89.93873379554134,156.85719504381996 89.06666808889713,157.3329885173589 88.3049941334175,157.87609257304575 88.1005218133796,158.03054042020813 86.91504839120898,158.96229657449294 85.77821724454407,159.83964665455278 85.51403434667736,160.08676090301014 85.39053539559245,160.19925311626866 85.2658713599667,160.305290804361 84.68274659558665,160.59020920330659 84.54788807115983,160.6944025689736 83.07667768886313,161.25962764734868 80.13338311109692,162.24992053682217 78.1285640533315,163.04934359691106 75.59071886225138,163.8109595758142 74.31786410673521,164.30932789552025 73.15481855999678,164.89528954145499 72.76713671116158,165.1548456066521 72.52538168884348,165.42961509677116 71.31223751115613,166.65961918665562 70.43114240001887,167.8015619708458 69.51771619555075,169.1666297534248 69.24654279113747,169.84754685405642 69.13003434671555,170.70410708151758 69.24159118218813,171.4011546546826 69.63801116449758,172.1041930760257 73.3490963911172,176.06605978985317 75.86917404446285,179.7042376192403 75.92276792891789,180.17905862431508 75.99209045339376,180.48746122105513 76.28947825788055,182.44481628201902 76.66376163554378,185.15724027744727 76.81522261339705,186.34103392087854 76.9288183466997,187.20720902486937 76.08646229340229,187.5510966309812 75.78121016884688,189.08014519431163 75.06905230227858,189.3585719220573 74.90681429335382,189.8200035042828 74.20543345774058,189.74855312414002 73.9971746134106,190.33352360292338 74.29310606222134,191.01114699337631 74.21679303108249,191.7509986680816 73.75454577780329,191.97733284707647 73.8818312532967,192.52495916339103 73.75192433781922,192.740690360195 72.64917191118002,192.90387150651077 72.49130296893418,193.27402489131782 72.44644721783698,194.28491376969032 72.12721408007201,194.69793403428048 72.32644352002535,196.18175811407855 72.1534284800291,196.61183009721572 72.50586652441416,197.45491619751556 73.11840967112221,197.41527416941244 72.76364145777188,198.0274200218264 73.4271570489509,199.2281980580883 73.5390051555587,201.54768584563863 73.77639111119788,202.0077084749937 73.81862542231102,202.30271244968753 75.44712220446672,203.28544152429095 76.70366577780806,204.4589948527282 77.30659697775263,204.21193152561318 77.92205283557996,203.95979757682653 80.6538845867617,202.6922092657769 82.0097516089445,202.00448186683934 82.80230030219536,202.85630475485232 83.97233635559678,204.0031259180978 85.36927260446828,205.04715193097945 86.39483818667941,205.77312730054837 87.17136696889065,206.61202912358567 89.39929969771765,208.87935236748308 89.81173959106673,212.0154925972456 90.01679445337504,212.8907828416559 90.4472931555938,214.2869072056492 91.46878094226122,215.5913004623726 89.60435456002597,216.083096151473 87.58555448893458,217.35429292556364 85.13509063108359,218.2014459997299 84.17302215110976,218.3890360284131 82.12771640892606,220.16491093102377 81.41672362666577,221.1650728045497 80.12289735116065,222.29612584214192 79.13723591109738,222.90866186562926 77.23174030217342,223.49308136833133 76.11384177778382,224.62043501337757 72.16362296894658,226.22526759281754 71.25864362670109,227.77892955462448 72.96840504894499,227.00740021589445 73.62871665786952,228.26055787771475 71.33786936895922,229.36576406296808 70.85057280003093,229.08324108656961 70.43755036441144,229.3095360287116 70.2683218489401,229.4229138532537 70.19142627564725,229.53721338836476 68.66633073776029,230.92309042369016 68.76186766219325,232.59239904151764 66.48704028443899,234.2289725926239 65.02456803561654,234.5460543994559 61.81505166226998,235.07098967814818 60.02810339559801,238.04221906379098 60.24393528897781,239.2330958340899 58.879621404455975,240.45714806596516 57.67026375117712,241.42172950517852 57.03820544003975,241.22448147815885 55.908364800037816,240.4935561394086 54.9352280178573,242.60198787302943 55.00600689777639,242.6337870132993 54.97979249781929,242.69462013809243 54.88076032011304,242.9453261680319 54.3989979022881,244.0357096606167 54.365210453397594,244.11405483842827 53.16866872890387,244.73528500413522 51.2025887289783,244.15322741668206 50.50732458662242,243.63107940612826 50.728981902240776,242.28169192309724 50.798595697735436,241.2636545819696 49.30087964446284,239.40223298373166 48.44192113785539,238.94689888320863 47.58471025782637,238.54640685935738 45.09172081784345,237.88275905814953 44.295094328932464,237.73666409397265 40.85809521772899,237.71638592076488 38.91298673779238,237.8938198715914 38.17781845328864,238.46299013012322 37.46245660446584,239.57966554554878 37.271382755599916,239.6520211197203 35.791725511080585,239.3059123888961 34.82790940452833,239.41283285513055 32.17297322675586,239.47504948131973 29.76736512000207,239.82484484498855 27.55399594665505,240.7520993707003 26.32046279113274,242.26095331995748 25.589954844443128,244.57214313122677 25.180718933348544,245.30628058634466 24.621478399960324,245.77773100335617 23.878737066756003,246.07313587074168 22.002077297773212,245.53348018304678 22.47888810664881,243.71495498833247 22.290726968902163,242.08951412444003 22.424129137885757,240.61384099686984 22.271503075608052,240.03914607176557 20.410571946762502,237.46521293511614 19.699870435637422,237.17302234092494 17.643787662265822,237.76247267529834 16.88997802673839,238.58097179303877 14.612820480018854,239.5893436811166 12.476638151099905,239.7363591149915 11.46359722665511,239.223417682515 9.207411200040951,238.89021248556674 8.747202844475396,237.95419346832205 8.78332046221476,236.9637878233334 10.233268053387292,236.27847422432387 10.274046008940786,235.38530500954948 9.160225279978476,233.3440906625474 8.960122026735917,233.41737008537166 7.919410346774384,234.39027880266076 6.657041351078078,235.1737643898232 5.779732764465734,236.26003939670045 5.700215751072392,236.4725006899098 5,238.6814405018231" stroke="red" stroke-width="3.005118564044075px" fill="none" stroke-linejoin="round" vector-effect="non-scaling-stroke"></polygon></svg>