<svg viewBox="0 0 22457.73768140441 43372.86959312456" width="1000" xmlns="http://www.w3.org/2000/svg"><polygon points="8.052549999993062,31571.014882661955 15.898228648904478,31668.835896010016 17.513909502275055,31678.52523886293 211.91786100444733,32790.09120696082 213.82131771554123,32799.665955239645 507.6797901066893,34029.062965169986 510.09792287120945,34038.81814858652 550.8817038489215,34152.10420075848 1317.0738568800443,35774.98525975735 1405.4163848800526,38719.9468341374 1411.575603795558,38791.638061102916 1413.1073985688563,38801.807890259865 1431.1525177155563,38882.02312368489 1434.1234830489557,38891.86804964577 1467.810734675586,38977.970765429985 1472.3082519023155,38987.214385596424 2546.993503031059,41144.526198206906 2551.7455912088917,41153.19365903639 3122.098408702266,41963.68956821013 3128.01441624001,41971.88139486543 3172.897838106699,42026.47959944754 3179.78698242674,42033.86457773132 3238.869579688966,42088.861265876185 3246.723996471119,42095.20022122117 3304.3368397067243,42136.00401503066 3312.9188517244474,42141.306081698014 3384.336780542246,42178.73022236416 3393.5761914578907,42182.76678210727 6124.120232986723,43335.7418231816 6133.839076151111,43338.68783414757 6293.790898088919,43364.46607141066 6303.939366142236,43364.72194108015 7473.063158355624,43363.45197522067 7483.183955653309,43362.714775877044 7641.679422035668,43329.39089820263 7651.245056595508,43325.98922621817 11160.53416223111,42028.58267123773 11169.949792168889,42024.79624759147 12342.686802515615,41407.562972755026 12351.752907120012,41402.65513747811 12412.856634622294,41364.29702747261 12421.22164966233,41358.262438451726 12484.453112631192,41305.294171081594 12491.865671137784,41298.11245229779 12553.148821644456,41228.37294969577 12559.322895386693,41220.09372576032 12613.4996133245,41132.256091582676 12618.130241448962,41123.01758094129 12977.742293360032,40326.012854780856 12981.419882408896,40316.492101686046 13018.061788186751,40168.18389425517 13019.242601271108,40158.043220914406 13023.011066906707,40086.719301780424 13022.905626764492,40076.51205872322 13014.729937946744,39985.10086849597 13013.95894331552,39980.558278006705 13042.80060873783,39880.36922507614 13046.025271208928,39869.33754733481 13097.6609399734,39775.164381657465 13101.71310367118,39765.83722874263 13183.490380826726,39552.10531549595 13186.545523511217,39542.3185463282 13211.009675404493,39435.42667154732 13214.122198497847,39421.414896216564 13261.366081448941,39280.91072781288 13263.703240844508,39270.91704435457 13275.691085964529,39199.01805184872 13276.78713915564,39188.30435487986 13279.605187155626,39107.94631076322 13280.784835155559,39098.83335708824 13307.730908186728,39000.67041164971 13308.57297296889,38996.086169614195 13352.071691973339,38898.12955118049 13355.735008737858,38888.66569594908 13379.582248417864,38811.10631660625 13380.779372684512,38805.930443350895 13418.288101288927,38746.40035089172 13423.164853502269,38737.476819293894 13456.97647789339,38663.519654373726 13460.536975955562,38653.98936709188 13553.344398817833,38332.91794223615 13556.718774640089,38323.77386842432 13625.945762160089,38191.61254894754 13626.359949680016,38190.697204450815 13673.912580008939,38128.036272370926 13679.438284257863,38119.59363794033 13723.525079635641,38038.89529966618 13727.560640879994,38029.91834873948 13913.382289093424,37566.623446367885 13920.691446355631,37548.39589308339 13991.90810683553,37401.497876860405 13995.81463497781,37392.18691156231 14079.464785377815,37160.286557442596 14082.533035262226,37150.62531991428 14104.68682470228,37051.80432297892 14106.037157573359,37041.75624838585 14128.32289282672,36801.559574976534 14128.295222071087,36798.59054072652 14159.370063102193,36670.721412626066 14161.400514017878,36660.61005344844 14173.794099795603,36559.32078080365 14174.277027297852,36550.89084759317 14207.74844703122,36432.11083631482 14209.743362871086,36421.82121198179 14223.857195831108,36269.10227945153 14223.944868435588,36263.31482931235 14256.13789926222,36123.71324398063 14256.70995572451,36120.02601978285 14299.34622096896,36006.6204369856 14302.102810764423,35996.930396527605 14368.60437449775,35852.81463953512 14372.345460648852,35843.59831421249 14432.034193093394,35676.68866141068 14434.966128097818,35666.68161018225 14559.717253715586,35171.62697912808 14561.863630533306,35161.848693731095 14572.564348613349,35092.6268189867 14573.470784311154,35082.656738432794 14575.082969911135,35002.64030073359 14574.983063920023,35000.656637512 14607.938059973385,34850.65190038257 14608.09330747553,34849.82147228447 14705.04930477342,34577.982986816525 14707.991142995626,34567.95438917735 14740.84972831115,34396.14574173637 14741.808301537734,34391.13022650857 14769.61624578663,34289.03347557908 14771.761166248907,34279.38677940433 14818.476974675636,34026.84389734801 14820.138385093393,34016.68058676887 14828.133777093346,33930.80338160528 14828.234265626728,33927.12253673488 14866.21543597334,33779.24194868267 14867.891992488847,33769.040572694124 14882.684195866663,33634.25159821738 14883.340429680044,33624.174289976916 14886.182944453409,33470.2732371265 14886.365571440052,33462.63025919776 14921.620444186701,33283.846424657706 14923.443510071113,33273.713845695806 14969.819113840087,32974.61673219604 14970.168056631199,32972.2148121573 15085.31772134229,32632.72736590248 15088.464323155553,32622.997471609007 15137.269710533408,32448.310815716482 15137.575836471136,32447.007835820987 15245.43294637333,32169.558981064678 15248.232644293312,32159.589435632544 15320.083401982294,31995.028529040603 15323.556809982256,31986.425580235285 15354.293193982303,31887.941420802817 15355.620807706699,31881.88214037087 15531.6117646489,31472.74874093858 15535.460038568912,31463.533387725445 15565.779322337796,31368.467758079147 15567.394420648896,31361.30869712573 15626.980043119955,31226.84272093521 15630.689671991131,31217.05297285816 15688.222706942208,31044.496053441282 15698.5887545156,31010.98539754501 15822.298877182271,30680.105475466553 15825.472567208897,30671.108787150326 16109.689674551104,29818.819063667062 16112.465196968958,29810.183597842435 16213.767833057878,29434.40443750235 16216.13732354666,29424.614049990865 16289.348317324388,29065.908654942614 16289.682114017865,29064.11249368181 16541.10500695996,28372.142004036315 16543.7806233867,28362.66723672903 16572.087223777868,28235.17087993209 16573.912037288974,28225.109798109246 16583.559227760037,28129.416826709494 16584.4368276179,28107.594341165473 16603.48333684457,28014.852528030257 16604.794348115654,28005.588061921735 16676.86472422231,27737.765482836607 16678.710509253404,27729.35649498258 16733.960269964504,27406.464392620226 16734.944766320026,27401.961021176743 17009.307589431148,26512.641700939712 17018.983033200115,26482.52569044064 17099.45920230224,26267.168147520133 17101.260714124393,26262.40274194753 17233.204488560063,25951.490542290587 17233.826352382282,25949.745052815153 17340.106520488946,25744.532793039078 17344.58364873784,25735.250138986477 17435.849373608915,25501.081784792565 17437.50029826662,25496.64287410266 17525.35290825783,25325.554566094273 17529.366041626636,25316.235278562264 17581.01015725333,25140.85508410455 17581.92591362665,25138.03491908437 17649.532268684445,24991.1810141273 17652.5568279023,24981.81078577062 17670.433301075565,24910.886757130123 17672.36879760897,24900.31860333073 17681.92918928896,24814.07301518132 17682.26327725334,24803.98868639345 17679.143472382188,24723.727293236385 17678.066060542216,24714.0041219352 17661.810219831154,24628.367938659474 17659.41014587562,24619.49239444462 17770.01394235561,24097.936479891505 17784.911294604506,24033.878043305216 17798.28966800889,23989.44799952497 17820.01965798225,23919.594100510323 17865.229594764503,23826.878143037757 17868.961360240093,23818.204338225973 17911.393444435642,23705.15755252118 17924.512877822242,23665.59618508091 17967.31138107562,23579.81174314089 17971.72180824002,23569.30322211128 18121.56564880893,23190.60911588042 18124.69652198229,23181.20617911927 18150.378187120048,23065.248093343427 18151.510940471053,23055.399870860827 18151.92192400896,22926.766436406615 18151.448025911202,22922.401188837335 18181.048743848893,22799.137098694307 18188.654415102297,22776.274197731254 18230.675515760056,22653.704274780204 18241.599056240026,22621.13402147297 18365.298693146644,22306.127568858763 18368.344223884487,22296.643023998215 18409.09392614229,22233.92598206873 18413.82067373334,22225.48235096046 18449.178656453354,22149.4364778873 18453.1224672978,22139.232226259395 18498.261042657745,21991.786037235957 18503.612275511114,21975.71647101789 18700.29221947558,21451.216765226767 18703.379401982267,21442.581036269752 18812.899961200048,21099.54127468585 18814.637102106673,21094.915100047918 18930.60960770675,20842.73773914526 18941.799661253317,20815.34260480848 19019.12777218662,20587.793165811774 19021.208030462236,20581.832624857285 19073.28468368898,20505.44255384672 19078.092987191136,20497.056242299004 19131.026851297793,20385.504698667995 19134.54861030224,20376.11575283503 19167.209713804506,20248.039626102283 19168.6453891111,20238.61413623215 19176.513786906697,20082.914180136257 19178.40792294228,20070.45272425338 19221.521290266624,19958.819140606065 19224.476818231138,19949.776238731196 19246.271470391162,19857.248551578698 19246.807700506615,19853.805285658542 19333.10637912,19748.959115554084 19338.461689768912,19740.601970131596 19375.59730007997,19675.807793551678 19379.953259546746,19666.967523209256 19409.622134924488,19593.956555686396 19412.66941328891,19584.57947399569 19431.59533627561,19508.047375616705 19433.271018977714,19498.328411418566 19442.49877904888,19402.009563343687 19442.847430568858,19395.191157112567 19500.565422675543,19273.251886916085 19503.733578551066,19264.019558007218 19533.18895220451,19124.204344029276 19533.49915593778,19120.975362401543 19536.316621395614,19056.770783271728 19536.18147160005,19046.72760987011 19529.155138586735,18965.467930527026 19527.615770764503,18955.809013009042 19483.025658906758,18806.07700093786 19479.430208311154,18797.964483330114 19568.51198239121,18520.833309560752 19585.626490337745,18462.748156637623 19618.146618622326,18382.453812181455 19621.009231102274,18373.415051973396 19643.907509502227,18272.625369600457 19645.004727777763,18264.4103796235 21139.340579866635,15187.407866386435 21143.189727600053,15178.577715527936 21173.86552720898,15087.345582882379 21176.134820435633,15077.979793622479 21191.250043475622,14973.17850622427 21191.72015504897,14963.551809505298 21188.08858683551,14867.346827788948 21186.894084008964,14857.785431934259 21160.967459866748,14745.316276241763 20826.1559779823,13736.673779580015 21516.795608773333,13309.42085262455 21524.56730456007,13303.819688902207 21616.787233591167,13220.344893419155 21623.140730337793,13213.160589209845 21699.438615351188,13102.909240594105 21703.930015884427,13094.422791738034 22018.319023813325,12436.939087487146 22021.768547582295,12428.249078591907 22372.990535137913,11384.468557907356 22375.75032891563,11375.580244402954 22398.07800720897,11266.292331947101 22399.026385946752,11257.031221239333 22449.618721591163,10604.566459324647 22449.685131404403,10594.766482252016 22436.221998106776,10468.332337179658 22434.094262639963,10458.770518718025 21119.47268610666,4701.013686430495 21117.187081697833,4691.265664284438 20608.161687920074,2974.777213864465 20604.781195404445,2966.1158054046973 20549.036273804464,2859.1755997871223 20543.876988613367,2851.4544836597925 18774.11546512888,239.04876323239296 18768.30140248008,231.6267875233607 18668.054915440007,132.5170578615216 18660.578568560042,126.79940684218309 18538.85433232886,56.15101894209511 18530.19280329786,52.50243588312878 18394.760183493345,14.820995899121044 18385.466304880072,13.473965999757638 18235.63440642666,12.206367665639846 18226.318973751127,13.39572647769819 18134.63731373343,33.38334074462182 18125.667037324485,36.18040207293234 18030.455462711136,76.18340980503126 18022.171129768918,80.63597822419251 16266.7014058934,1076.665962711064 16258.553679102304,1081.3653343523329 16160.147442942223,1153.7336794805888 16153.222472275578,1160.119385224505 16067.627504666656,1260.2397243830783 16062.386081022298,1268.085654326569 16025.017745093297,1333.6541852563096 16020.934706657747,1342.1698071314895 15987.640671031171,1430.4891114415077 15985.083310675545,1439.5886974509049 15968.581637146737,1522.99484013833 15967.480341075541,1532.3872870597697 15964.238784879999,1617.3786379979865 16003.21377225776,2803.7779333289654 13753.25686957335,5110.807831223094 13671.187156222266,5215.94200935305 13666.244576737838,5224.118044685427 13635.346537271136,5283.421882265335 13631.474961662287,5292.164242039755 13605.568435226654,5364.109673437517 13602.97612233783,5373.319775376556 12914.70860347568,8059.518741843727 9883.851230462169,10818.927066931006 4142.544027333352,12838.575788093585 2732.839618017868,13243.604569366173 2723.676520133362,13246.62500638442 2618.1789975021675,13294.02915020843 2609.8270896622853,13298.87906317864 2516.2480896267516,13367.084343801107 2509.063596400054,13373.558060730196 2455.451653146738,13429.320149716194 2449.2586467822257,13436.760320579604 2394.0854903734,13516.249049681559 2389.274856702279,13524.662293123867 2355.695666657848,13594.52534265988 2352.1275955466263,13603.544685518922 2324.4518883822893,13696.443338111247 2322.5000806667085,13705.951885251648 1731.4667230134073,17285.269560007117 1730.0858066755754,17295.045627541695 1673.9342706044845,19903.235764234065 1674.4451601333858,19913.164326280792 1688.2685957955837,20011.510022973613 1690.5145873333968,20021.193864777888 1837.9429165777692,20593.92336756151 1840.4565862667223,20603.36997267182 1862.1731777689129,20668.212558662257 1865.854844613321,20677.264415068872 1900.3462957777956,20747.342164868227 1905.2713989956246,20755.7767362975 1955.3953706932662,20827.860146767314 1961.5834254489455,20835.407393584464 2022.4046199733566,20898.63039655969 3056.0788986577827,21828.182418710174 3030.629376595578,22100.775669704395 3030.230917715555,22110.46672550586 3040.492981502175,22245.6155686079 3444.188042266731,24400.540758203802 2813.506860968977,26229.617004666332 1843.7776594756579,27216.922055032075 1836.789191706659,27224.137160267303 1762.4850574489392,27318.918318805954 1757.1381936622493,27327.4383114292 317.78821065774537,30242.297399187315 313.5470120089303,30251.03480649038 268.7107760623039,30379.21352174002 24.694033662293805,31424.98835590153 8.052549999993062,31571.014882661955" stroke="#009edd" stroke-width="5.187077034169243px" fill="none" stroke-linejoin="round" vector-effect="non-scaling-stroke"></polygon></svg>