<svg width="2592.821528462344" height="2517.9835095956223" xmlns="http://www.w3.org/2000/svg"><polygon points="5,766.2683986084303 17.122703644563444,941.2310372907668 18.96936248894781,964.0000823890441 32.907850240007974,1049.4013984936755 36.12901745783165,1062.9838280510157 68.76361528900452,1167.098775154096 74.79176220449153,1181.6204975100118 134.02261646231636,1292.330899154069 142.7485164089594,1305.388469197962 569.9273105066968,1852.9664030144922 572.6171992177842,1856.4894527838915 763.7944493511459,2168.1440129182884 771.1044804267585,2179.6724043856375 828.8349971912103,2256.9271775515517 839.1459945244715,2268.6921636317857 906.4066107734106,2334.5284492039355 912.3098023822531,2339.5948260822915 983.066837048973,2392.212544653972 996.1341329066781,2400.543445326097 1093.7679180800915,2451.0672067982377 1095.460494506755,2451.828812409425 1176.345025706687,2481.2325499830185 1179.521337173297,2482.2885123383603 1252.7978669510921,2500.3918591265683 1260.3848968533566,2501.8188164596795 1334.5675710578216,2510.957407235692 1349.7457086578943,2511.929809217807 1411.1334254933754,2512.557302227244 1426.7100219733547,2511.876085437427 1511.9391530667199,2502.0903100479045 1519.5261829689844,2500.663354065735 1947.677240035613,2410.712469921855 1962.550999324536,2406.0138822341687 2071.394353208947,2360.542449149245 2077.470268586767,2357.547363306803 2215.3201473422814,2279.2870483148727 2228.3058872888796,2270.597744767554 2284.5401443556184,2227.9130569746485 2289.7897235911805,2223.408655131061 2348.724063857808,2166.7630848596455 2354.011508337804,2161.000838695327 2401.4636501333443,2104.2675895274733 2410.721702400013,2091.6389448125847 2457.943157475558,2016.3458123603486 2470.279362844536,1991.9955204480211 2545.272353280103,1809.0840256865486 2549.682197902235,1794.0226416151272 2579.543603484519,1631.024256589706 2580.6239280356094,1623.7630867743283 2587.720166115556,1532.1122351579252 2587.821528462344,1523.9877862811554 2577.724324124516,1394.1977110622684 2575.1043404800585,1376.6213962123147 2563.7060280889273,1323.259423941141 2559.690564551158,1308.0597605932853 2534.7123191467253,1233.5681915511377 2528.7529122133274,1219.021059695573 2473.9324851200217,1114.2409387469525 2462.2935827911133,1096.4201881610206 2405.3130891377805,1020.8592599196127 2395.3283154489473,1008.6617328587454 2344.740640142234,953.92410676484 2340.320309760049,949.3631517189788 1540.9051912532886,242.1238699714304 1528.451603626716,232.49513134692097 1429.566809031181,169.75226799532538 1411.3329462045804,160.4944707157556 1149.119623680017,48.502928723057266 1134.124695608858,43.74129536136752 1057.790110435686,24.931335123663303 1049.9828795733629,23.45757090242114 937.2833874489879,7.785839512303937 928.2076708978275,6.841330989380367 757.7596032001311,10.718348495196551 756.1672240355983,10.89900970744202 669.8813613511156,25.359841736091767 663.0478498133598,26.69268824334722 532.9749097245513,58.12385630229255 517.8806582045509,62.55469772772631 458.5781512534013,83.55698706419207 444.0565387378447,89.61509786971146 360.01579377776943,132.51411451294553 346.5858653867617,140.72367297566961 294.7530060800491,176.44661178451497 282.2970882845111,186.07726165169151 223.3277954844525,238.19443113153102 212.23531776003074,249.3760755051626 160.569356800057,308.7766456492827 151.0299366400577,321.3154664936592 103.76158691558521,393.425264983729 99.7266082133865,400.6530219040578 65.17311630235054,471.43421390041476 59.197980728931725,486.01938185142353 32.21229482674971,567.7272196395788 29.196765013388358,579.1049868286937 14.354171733371913,649.0347488081316 12.005944035598077,664.6190542332479 5,766.2683986084303" stroke="red" stroke-width="3.9964767113028925" fill="none" stroke-linejoin="round" vector-effect="non-scaling-stroke"></polygon></svg>