<svg width="1789.2170575644122" height="1546.142678715405" xmlns="http://www.w3.org/2000/svg"><polygon points="5,543.0962536596926 21.80809073767159,592.4996821592795 22.303834168822505,593.3619567886926 18.965284693287686,603.0768329303246 18.23710691544693,604.4568542779889 24.78925055998843,613.0641189226299 25.616460515535437,614.3108092636103 17.524366506608203,625.9552474581869 17.059497813344933,626.5053985198028 19.892983182216994,634.8061187908752 20.776117191067897,636.2953350048047 17.743111111107282,647.0904990484123 17.74136348441243,647.3200818260666 29.66221624892205,668.0027013999643 30.515349333290942,668.9749574451707 117.18568988447078,709.6739525691373 117.49239836446941,709.7662094915286 115.01542883552611,724.4129654901335 115.75875271111727,725.8687221866567 131.02747562667355,732.373383853992 131.7032246044837,732.4192825439968 134.70419086224865,716.5724129641894 134.94332444446627,713.8875790769234 139.20316444442142,715.6489706286229 138.44731591118034,724.0858126531239 143.56698823114857,719.0628077213187 143.6843704888597,717.3635461361846 153.85614023113158,719.4286692555761 153.8867236977676,719.3868179671117 159.42174862220418,701.5893949815654 159.5082561421441,701.0583347680513 155.9061063111294,681.8735957461176 155.77940337779,681.5603321738308 161.1845213866327,663.1571109291399 160.86761841771659,662.7596462167567 171.94465877336916,655.4052934885258 172.59302826668136,655.4606613712385 198.0192486399319,675.6244428624632 198.65742364444304,676.3022982361726 211.90880284446757,694.0360674274852 213.12922879995313,695.2939983143006 226.92033336882014,735.029642208945 227.5183129599318,735.9399533870164 271.65928476443514,779.7775537590496 272.1279399822233,780.1334162960411 256.17822520888876,796.3454682705342 255.7698631110834,796.7017537392676 253.33454535109922,807.2299076367635 253.16036522667855,808.1048318465473 273.2368091022363,820.4654055513674 274.07421354658436,821.7419518596726 278.85280739550944,850.0048861227115 279.03601692442317,850.8342153435224 286.33614478225354,863.3731645731605 286.4133316265652,864.9952917507617 314.88275256892666,854.8764757240424 315.22528739552945,854.8229571876582 331.19480860442854,870.5901217345963 332.5789289243985,871.6118452082737 335.3058090666309,886.2594721250935 335.50824248895515,886.5742416785797 391.2246195200132,911.4499484834378 392.83505749329925,912.7048326554941 401.0066685155034,921.2087203617557 402.28214471112005,922.1883952185744 403.68927544890903,935.2663427267689 404.9685381689342,939.6307299712207 413.2808331376873,951.430504443706 414.7829182577552,953.3792402500985 462.2705951288808,985.5971754249185 462.9626552888658,985.8655072216061 467.6631884800736,1018.1424814870697 468.8221562311519,1022.8305775949266 480.77767025784124,1020.8128031240776 481.3494354488794,1021.0541281313053 483.5188226844184,1036.4839962677797 483.9315538489027,1038.2769469556515 494.7135365688009,1039.1859988058568 495.0222839466296,1039.1913910942385 486.27016959991306,1047.959975234 485.7651054932503,1048.3225918165408 491.6834431999596,1062.5670624865452 491.62227626668755,1062.9453807066893 508.21773909335025,1062.712189386948 509.05980387551244,1063.261244468682 502.75990101334173,1081.5477671318222 502.66698552889284,1081.9211106249713 505.59513400890864,1085.235797892965 504.75015651551075,1086.9016586618964 523.7136534755118,1099.0587344148662 523.8222975999815,1099.1324088837137 537.108629333321,1096.8817325307173 537.2938777600648,1096.7316866188776 531.6388491377002,1100.695739336894 531.2666046577506,1100.8502748450846 533.6381340444786,1111.8687351584667 532.5318863644497,1114.0433421908529 544.7795453155413,1120.7224537407164 545.447138702264,1121.1505316294497 535.9007280356018,1123.391525947838 535.552950328798,1123.4386903446284 538.2559462400386,1144.3234357128385 538.2600240355823,1144.5556419488858 509.0394148977939,1140.4275443119695 508.05812252452597,1139.8481402074103 478.76294798229355,1170.836924186442 478.3443913954543,1171.2487371127936 477.23872625781223,1179.1790164216654 476.70307868439704,1179.8382509195944 489.5309496888658,1180.2657643301645 490.9881790577201,1180.432817663299 499.0159021511208,1195.9273590694647 498.60346225777175,1199.241670189891 510.43780750222504,1200.403755222971 510.7617009776877,1200.2861101095332 507.00430364441127,1233.7437227362534 506.62011704884935,1234.6591477519833 532.6224716800498,1254.41056576767 533.6200752354925,1254.677221983613 533.5096834844444,1260.7128134183004 533.6288133688504,1261.7686320541543 541.3346818845021,1236.1213954780833 541.2082702221815,1235.4434740417637 550.4625359644415,1228.028403155331 551.2472203377401,1227.0128296052571 563.802461582236,1193.262762088154 564.8347263999749,1191.0063161698054 579.4728473599534,1186.9994396539987 580.3859822932864,1186.1799136962509 592.1221691733226,1159.4271081928164 593.8729998222552,1157.4411305624526 637.7640610133531,1185.3931658951333 638.0037771377247,1185.6370041285409 641.9181695999578,1167.6137989168055 643.50792732439,1164.1535009220243 648.3762326755095,1164.5590389955323 649.2666484621586,1164.698709188262 651.3638004622189,1172.1617285523098 652.966665386688,1173.082799683907 642.1258459021337,1181.314785301336 639.655575608951,1180.8082381301792 641.0082386488793,1185.7348985915887 640.8494958933443,1187.3766450928524 647.2487222044729,1199.2394250428188 651.1240843377309,1203.1930933926487 666.2034810311161,1210.274045253289 666.6339797333349,1210.5461432167795 656.6564878221834,1233.599606924574 656.6594005333027,1233.8851447023335 664.1141933511244,1236.861270256748 666.0654185244348,1237.5760012890096 665.2952977066161,1241.075545803178 664.2318668799708,1248.11936024623 669.4963009422645,1249.4638994949637 680.8558742755558,1252.1089589935145 672.9417469155742,1277.5711876628338 672.9469897955423,1279.8581635940936 687.7383193599526,1271.2451847916818 688.4094079999486,1271.43685732421 694.2825986844255,1279.3558837794699 695.4680721065961,1281.1526846414781 691.730189937749,1290.9897177100647 691.5769813333172,1291.5714156512404 699.3649883022299,1292.799439572147 699.3769304178422,1292.920625770581 807.4621055999305,1284.523161470308 807.7833776355255,1284.3880561243277 824.9776938665891,1295.1024147264543 826.0711256178329,1295.4713552930043 825.1189603555249,1301.4573517140234 825.1169214576948,1301.6121946215862 837.5975972977467,1305.4284767224453 837.6858524443815,1305.4423898956738 839.4063908978133,1293.087593312026 839.4894031643635,1292.9520444036461 854.6206461155089,1293.0988142444985 856.3053582222201,1292.3200801754138 873.6860879644519,1321.836431783624 874.1535780978156,1322.6886604723986 913.1737124978099,1360.1466521361726 915.7829191110795,1364.4940645529423 911.1636505599599,1376.1206923731952 910.3818788977806,1379.753074022592 910.3038182399468,1397.8822280841414 910.457609386649,1399.7202286473475 916.4429394488689,1409.2886189535493 917.0808231822448,1410.4298534661648 913.7990715733031,1438.23394729977 910.1060451555531,1441.8455654451973 927.8438732799841,1447.1902206421946 928.1322316799778,1447.2862043644418 939.9552173510892,1440.9489459700417 942.3616992710158,1440.0760952782584 966.3306902755285,1442.9929100855952 968.7563960888656,1442.995601270115 1027.6849109333707,1410.741179775272 1028.4762945421971,1410.444657176733 1071.034207857796,1405.6482026893646 1072.7317358932924,1405.8886559529928 1126.6110660267295,1389.1087821074761 1128.6257883022772,1387.8687351639383 1154.4190102755092,1393.019101322163 1155.4853538133902,1393.1128655784996 1175.5714096354786,1380.5153460850124 1177.9053650489077,1379.614438030345 1251.2456831999589,1385.6990847968264 1253.6306110577425,1386.0606946812477 1297.5665279999375,1372.0889295773814 1300.8701249422738,1370.7541153096827 1329.569067519973,1420.2157854720717 1330.419870435493,1420.7042856082553 1397.0379426133586,1402.4289746614522 1397.8607835022267,1402.3549533946207 1410.5182609066833,1386.1961860725423 1410.589913600008,1386.2329751114012 1430.7662634666776,1404.8128947145306 1431.2876387556316,1405.1130137890577 1444.6162047999678,1436.5362150537549 1444.572514133295,1438.428165237303 1454.886424177792,1445.3517205876997 1458.803438080009,1447.784063184983 1492.2530124799814,1491.5858361616847 1492.4178719288902,1492.1490653355722 1525.0609166221693,1511.298894153093 1526.1243474488147,1512.0499480855651 1557.201227377751,1496.411353910109 1563.18947015109,1494.7831290862523 1580.6805916444864,1498.9144289400429 1582.7695880533429,1499.0920017918688 1591.8694801066304,1511.0347915923921 1603.6312988444697,1517.5390654298244 1613.2374200888444,1519.3227075691102 1623.7132768710144,1518.8559489222243 1636.57289642666,1529.6359820872312 1670.4220947910799,1540.484977299231 1673.357816320029,1541.142678715405 1690.0269707377302,1534.965498053818 1694.553615075536,1531.364378871047 1713.1760335643776,1495.0822283001617 1713.7772171377437,1494.6122791274684 1734.8055350043578,1491.5176745712524 1737.729023146676,1489.1696742307395 1746.6235690666363,1495.9122601156123 1751.98907420435,1497.285325844423 1779.551185635617,1499.4283136176527 1783.5008219021838,1500.3892657681135 1784.021032106597,1487.1987874801853 1784.2170575644122,1485.2722790266853 1782.5399185066344,1467.6445692701964 1782.436225991114,1466.4139357006643 1765.4353137777653,1420.0305229689693 1764.7240297243698,1418.1088077778695 1764.8134499555454,1402.1010378290666 1763.7587572621414,1401.1279911830788 1765.29666872893,1400.1006573997438 1768.258895928855,1399.1729125399143 1771.5289966933196,1373.8001720235334 1772.3422256355407,1371.6030132562737 1769.6669004799332,1373.4524507925962 1768.1033571555745,1374.4852934040828 1753.3399896176998,1355.9131256316905 1752.7772538311547,1355.4868518753792 1742.6762629689183,1358.4092783816159 1741.8569173333235,1358.2297968377243 1736.3839331554482,1350.3872073989478 1736.3516020622337,1350.0672697462724 1717.107319751056,1346.3958059494034 1715.7610646755202,1346.3280479736277 1698.5944191999733,1316.1144314656267 1698.4997560888296,1315.6180689518224 1693.6602865777677,1318.8915275940672 1692.5723889777437,1319.759475119994 1687.4463086932665,1314.6015545118134 1687.0050329599762,1313.6353004367556 1689.9384243199602,1310.6548308411147 1690.0456120888703,1310.5484648925485 1673.053146737744,1301.7944154104334 1672.5862391466508,1301.5013360872981 1671.15318528004,1306.6676433061366 1670.93531448883,1307.3547696044552 1660.6869404444005,1304.1924448405625 1660.3001324088546,1304.2184760848759 1642.5928877510596,1278.5613905712962 1641.2973138488596,1277.1869554120349 1626.2485006221104,1269.4164318783442 1625.4926520888694,1269.0694429206778 1634.863135004416,1254.5322220949456 1635.116540871095,1254.2054108488373 1640.0917427199893,1217.048555493704 1640.0640719643561,1215.0195469750906 1656.10932366224,1171.2550243270816 1656.506034915452,1170.0299123155419 1679.6620882488787,1147.4274333664798 1681.3534995911177,1145.59989325871 1642.7527955911355,1127.5536326030851 1641.4481922844425,1126.7671235760208 1592.2405595021555,1077.1003930289298 1591.4727688533021,1076.1272511540446 1588.2888843377586,1047.592415310035 1588.1345106489025,1047.1035326955025 1579.9626083555631,1047.7321600480936 1579.36841528886,1047.7555257191416 1577.4093257955974,1040.4370061608497 1576.8640662755352,1040.3489326008712 1581.9365526755573,1018.0481073568808 1581.9790782578057,1017.5784831052297 1538.4186097778147,1000.7095418263925 1537.802571377717,999.8138135003392 1533.1923322310904,988.5690328709316 1533.3700076089008,987.2300839378731 1548.8129106488777,950.4230888950406 1549.2824396799551,949.500182499527 1538.2016128000105,946.1263488823315 1538.0947163022356,946.1160092724022 1533.2977723733056,953.0465853069909 1532.18045639107,952.4487042071996 1534.370815146598,942.9120553378016 1535.3692925155628,941.5503494886216 1522.884247608832,937.5793708991259 1521.8007190756034,936.7885832565371 1498.7072890311247,898.590456002159 1498.4509704533266,898.3620358158369 1511.8325478399638,866.372763756197 1512.745974044432,863.2877181176445 1512.9495725510642,837.0432856440311 1512.953359075589,836.3047585039167 1492.5879742577672,834.5043070559623 1491.3189060266595,834.3567800258752 1501.2387262578122,816.1368776005111 1500.8976477866527,814.7653870597132 1473.2111635911278,816.1305801889393 1472.7777521777898,816.1539705736795 1468.5059700622223,785.5293192205718 1468.0812967822421,784.6250626218971 1480.8445055999327,783.0446290627588 1481.0192682666238,783.1750951173017 1481.1873316977872,769.5819139142404 1481.81618602667,767.3269496691646 1496.0270122666843,742.5068611886818 1497.90658474667,739.671604683157 1509.4024729599478,692.0274136046064 1509.4720867555588,691.8748397736927 1509.4062594844727,640.1182705006213 1508.780317866709,634.9398245300399 1518.303135573282,605.0606390218018 1518.3954685154604,604.8670318655204 1518.7263524978189,586.5600260725478 1517.641076337779,581.4460561036831 1511.8174017422134,575.3489418021054 1510.4388155733468,574.4131953385659 1500.42782748444,584.4702338183997 1499.8747036444256,584.5224676106591 1489.208646826679,576.89935410826 1488.114049991127,577.0060768283438 1467.5235126044136,540.7299626528402 1465.4339336532867,538.4046312003629 1430.7618943998823,521.5108944558888 1430.483147946652,521.2645140577806 1432.0306713599712,505.8464947632747 1432.0551381333498,505.63027712045005 1426.9130379377166,494.6105520707788 1426.4982678755186,494.21052871923894 1431.4557021866785,493.3320964954328 1431.5232770843431,493.2469559540041 1429.2053415821865,487.4406532252906 1429.1983510755235,486.94916688342346 1433.6705277154688,482.21939907281194 1434.1723878399935,481.7549311705516 1422.514844159945,466.157967942243 1422.449308159994,466.0930909026647 1424.9746286933077,453.15153891884256 1425.60639573331,450.1435681988951 1418.1288837689208,455.4345232367632 1417.0835117510287,456.944334589527 1403.858055680059,455.5656352894148 1403.3180390399648,456.36807538347784 1393.120928711025,448.30434223636985 1393.0192750933347,448.2673953535268 1374.3860795733053,458.21173905814067 1374.3286991644418,458.29599213431356 1346.034332160023,432.62478611420374 1345.7791786666494,432.22825423115864 1343.8148462933023,423.28536813356914 1344.210392462206,422.87349809962325 1353.3097019733395,424.3812811204698 1353.8272907377686,424.3970528545324 1355.589189688908,414.7950107769575 1356.3619319465943,414.2470309524215 1373.1079819377046,412.83156026585493 1373.5466362311272,412.8617534643272 1388.753609671141,402.5304792049574 1393.690655004466,399.7043343959376 1400.0933765688678,378.06605854968075 1401.6132292266702,376.2086482658051 1450.234824533225,338.11090448882896 1450.721247288864,337.8192374779028 1446.6993757867021,322.1813490437926 1446.2467404799536,321.2025913792313 1440.2625755021581,320.931640187453 1438.982147697825,318.57421539875213 1445.1413666133303,302.4971539178514 1445.1396189866355,300.3609108887613 1431.9499892622698,292.72969076869776 1430.2064403911354,292.591266768286 1424.1715942400042,293.7852272511227 1417.6916858310578,302.4484597124392 1401.1020484266337,299.3608642396284 1399.7310353067005,298.7021294797887 1385.3518543643877,285.355221736012 1384.785040782299,284.5223938561394 1382.7842995199608,268.8558909125859 1382.6561402310617,268.7404498301912 1325.1018424888607,277.15305905777495 1321.542218239978,277.8704787506722 1285.7994663822465,270.1316010018345 1284.5895261866972,273.21419811749365 1263.5119835021906,262.50067844073055 1260.97559466667,265.11259256780613 1239.2840524798958,248.33663376641925 1237.2576793599874,246.1881357205566 1237.320302648819,230.38177476736018 1238.4577163377544,228.2980478836107 1220.3488088177983,206.79526181169786 1217.0300657777116,205.0076654445147 1182.938529848936,228.51318683859427 1181.0828415999422,229.94247988634743 1177.2045667555649,220.05675851425622 1175.8469521066872,217.72575952520128 1144.8158017421374,236.04607392754406 1144.3369520355482,236.04426989029162 1133.0746632532682,185.1717170018237 1133.001845475519,184.70120429177769 1141.525020728819,174.90005437162472 1141.8489142043982,174.7065171598224 1139.4098099200055,170.85152696433943 1138.863676586654,170.23706817708444 1145.3441675377544,159.07229473855114 1145.4796086044516,158.62924714863766 1145.8367069866508,135.95817827351857 1146.0906953954836,135.47627916862257 1126.1904705421766,117.90744335041381 1125.6449197510956,117.76123727462254 1127.85188096005,113.90569359844085 1127.8807167999912,113.60605580068659 1121.5015881955624,103.7953985161148 1119.9590163910761,103.64060862694168 1115.9948165687965,84.4602547356626 1115.6126688710647,83.14780567580601 1097.651435804437,59.72413823119132 1096.8466537244385,58.71215681533795 1088.2524083199678,54.36536798236193 1087.9934683021856,54.22769568732474 1083.2509920711163,63.606817365507595 1081.5333663288038,65.71152379439445 1057.5704920177814,79.1354898820864 1057.0360095287906,79.60893795377342 1043.5912263111677,108.69672077300493 1043.1531545598991,108.85466598323546 1017.0762345244875,87.93224925512914 1016.7575839288766,86.97952103812713 988.135828195489,92.65701576758875 987.3409493332729,92.49815623625182 976.9897565866122,101.50106717617018 975.448641137802,102.54308650072198 954.3475054933224,97.91601340047782 954.013708799961,98.1475273357355 931.4818494577194,79.05109054711647 931.7177790576825,77.97962235822342 919.2257436444052,75.87729081802536 918.7270875022514,75.87548545812024 914.5659884088673,56.27381302427966 913.498188515543,54.023669700254686 897.4206057244446,41.45810022763908 895.9508516977075,40.068652433226816 887.1116472888971,5.266828331281431 886.9156218310818,5 865.4707862755749,5.2072321840096265 863.4042177422671,5.848792884033173 862.9073092265753,40.614411246497184 862.7214782577939,41.29062664415687 836.1278432710096,36.90286329027731 835.1887852088548,36.826573209662456 833.9803013688652,47.0934437502292 833.8451515733032,47.638282216736116 819.7796696177684,60.60431450896431 819.2547990755411,60.8841646850924 817.038225920056,82.48841890506446 816.9126880710246,82.71859521121951 826.2150135466363,112.14125426672399 826.0201531733619,113.61237346939743 807.9613442844711,138.8472945364192 807.7784260266926,139.07786268752534 800.5709223821759,134.07659989903914 798.4280408177292,133.4110497123911 788.5222016000189,160.61528442491544 790.708191288868,163.76755141984904 784.5108158577932,170.61422517045867 784.8111163732829,171.54809195833514 752.2248695465969,170.4766261035693 750.9362861510599,170.6061045723036 745.6744735288667,179.65903086256003 745.5562174577499,179.9445932240924 710.41144519113,195.0319506985834 707.9388447288657,196.36267376103206 692.84430193773,189.78792076965328 690.2359691377496,188.20904840400908 691.9897124978015,193.57897229812806 659.2027798756026,201.59662217029836 658.1731364977313,202.15054818452336 596.4792937244056,283.8198760472005 596.3257938488387,284.752808383957 545.2601426489418,257.0490188670228 542.2912162133725,257.4724754982162 523.6679239111254,313.7673163928557 523.1890742044197,315.187936920207 471.5373855289072,312.0802329928847 471.0125149865635,311.84894555807114 457.04926919110585,282.81208821351174 456.3848797866376,282.1974931737059 434.8235357867088,288.39747398591135 434.24361500446685,288.5557402855484 428.0774055821821,298.3414251427166 427.7115690667415,298.4699261310161 426.4293936355971,318.791068883962 426.4972598045133,318.87898239772767 421.3723446043441,318.9290254590451 420.74086883547716,318.87267065950437 389.5378685154719,290.2145986800315 388.68211399111897,290.132084412151 377.28554922668263,298.4902157539036 376.82475832884666,298.71024532057345 361.87934634659905,345.432655829587 361.87934634659905,345.7815621304326 333.2380754487822,325.7424391077366 332.5608701155288,325.12435813294724 327.99548671999946,304.4259767795447 328.2022892088862,302.67299401410855 313.9270920533454,297.6339920334867 312.26859434659127,297.444170522911 293.0706241421867,301.83527249266626 292.9663490843959,301.81859016930684 259.3568668444641,344.54776564764325 258.2389683199581,346.1097318897955 259.2054058666108,352.4679237655364 259.2190956088016,352.6166775479214 277.9015159466071,352.2749944666866 277.8485046044225,353.460966038052 254.36826652439777,412.3047558788676 254.41341354663018,413.33492991060484 241.65748650662135,412.72656000603456 240.6759028622182,412.5643277456984 234.62445425777696,419.7664229030488 233.4153878755169,419.84663511655526 201.00157354667317,406.8167216241127 200.51282062218525,406.86268865142483 160.6631460976787,423.2524726341944 160.48721834667958,423.24976889428217 146.36755996441934,444.8732118011685 145.8298734932905,445.45130360132316 153.663610026706,461.13624797353987 154.75645923544653,461.85892139730277 152.7137749333633,467.3631455596769 152.45192220446188,468.5156045249896 142.06839836435392,456.953796221409 141.15293326217216,456.76861849531997 120.61424213333521,466.357104290626 119.54061681777239,465.88449306890834 106.86828458670061,437.8864257817622 105.15328028448857,436.95910308347084 86.88359111105092,453.59624288376654 86.22997873777058,453.94993282842916 51.46211128891446,450.65090708306525 49.63904540438671,450.97396329045296 46.37622641772032,463.57098107784986 46.27253390219994,464.4044789673062 35.82813439995516,467.947935895063 35.22928099555429,468.0164166332688 27.255443057743832,490.36792480549775 26.986308551044203,491.293669669074 17.3752356977202,497.677823935519 16.610649031121284,498.9814802875626 5,543.0962536596926" stroke="red" stroke-width="3.7854245539351483" fill="none" stroke-linejoin="round" vector-effect="non-scaling-stroke"></polygon></svg>