<svg viewBox="0 0 32781.10442501331 12089.263225991235" width="1000" xmlns="http://www.w3.org/2000/svg"><polygon points="8.052550000022165,5106.8656154634955 15.299666515551507,5217.005789292307 41.413869253359735,5324.951597184379 98.50242448889185,5454.887959020532 122.79880422219867,5496.6661841443565 182.74618541332893,5582.442340396665 256.0189286666573,5656.996478643006 280.2774431555881,5677.872954248131 370.38973442662973,5741.83923920602 445.2571870133397,5785.907408779516 538.5411294133519,5826.659499257425 637.1564982311102,5851.656322530325 947.4094563822146,5903.870869039412 1016.4884781778092,5908.876697559754 1793.1812460355577,6076.158577876311 1943.8721029955777,6090.2147209632385 2078.957818906696,6075.386593867588 2331.233844933333,6014.491867946315 3274.4675698044593,5663.801187251782 4673.523107297777,6352.356415628135 5833.058254533331,6923.030422915443 5916.594226657762,6957.151720869384 6004.14071071113,6978.816390141059 6518.029166959983,7067.306123122195 6623.696500648919,7076.371969426313 6662.4798316355445,7076.3763443391945 6846.922602408857,7058.804796538054 8644.74168948445,6966.403527165559 8740.679402977752,6954.12254921344 10035.791349217761,6686.431005231832 10727.355474515527,6583.1475456029 11849.626269608852,6481.151813117351 11936.744876400044,6482.838025414239 13078.743755120027,6483.568955364957 14411.717450551107,6521.32790704447 15188.873048204463,6533.413992243033 15842.72717656003,7491.011192111386 15902.760482728889,7565.994128254097 16228.091963759973,7914.1327507071255 16300.608858480002,7980.459525892715 16382.557111777773,8034.520436310704 16656.97556767112,8186.047020622209 17452.574452080007,8733.153538254177 17798.616765466693,8988.956207598763 17853.539719991095,9024.3707555836 18497.304508328903,9439.474570543942 18618.867671635526,9500.24293077059 19545.23243010667,9843.1608821353 20114.728619262227,10543.535674438259 21138.02811224002,11828.02430849892 21221.149896844465,11913.65305137317 21319.038252968865,11981.65044881808 21428.060156044434,12029.502281367284 21544.174219404464,12055.439568163332 21752.655303706648,12081.210675991228 21912.808102711104,12079.992581732367 22278.17741940444,12029.23228746021 22643.52925983112,12024.131756414921 22735.764626231103,12017.185090269923 22896.343846142234,11992.330810531712 23440.812273804448,11887.218012959667 23568.306299475546,11900.287064931326 23824.031849271094,11903.314063842496 23920.275688702182,11893.608731502522 24011.123148257786,11877.06718720551 24537.141007386672,11745.923942643829 24690.25028838223,11724.721320937591 25030.434848453326,11720.132911263878 25703.733071102237,11688.742614362127 25794.70956376003,11678.060031757894 25920.17663376889,11640.854416235496 26146.613416986656,11614.127445859398 26344.342519493308,11653.043556061428 26625.52399931557,11685.726062393718 26877.73711078224,11686.022240518912 27054.243035048887,11667.562297533586 27757.76646089781,11869.934075123427 27967.199419191107,11904.667468205414 28032.31657133333,11910.703142632236 28621.492784382193,11930.45692603485 28621.570553768892,11930.46899002351 29211.71728216001,11889.024053598492 29476.381651084463,11858.195168817329 29650.932272382197,11832.444334786007 29774.58093684446,11800.84736425188 29848.94915074663,11773.368469095178 31761.490025271138,11339.160838020354 31886.785245324427,11323.283914498432 31978.81876084447,11294.689972385386 32017.61490776,11279.21954046897 32109.57968329778,11233.342769715673 32210.007340968878,11166.098683362565 32269.862680488848,11111.145867814688 32570.843022817804,10796.305684487656 32634.277793022222,10718.226229825028 32684.37059871113,10630.862287650438 32703.82372240891,10589.530711887899 32752.519300577813,10439.214705702645 32762.289698728884,10387.51405220115 32773.051875013334,10257.84698761956 32756.808267688903,10128.724136112462 32720.833664026635,9997.13903937643 32684.28438246221,9895.877915238118 32633.025909786695,9799.884308147099 32565.920249768882,9714.319413987832 32399.48152891558,9547.537646166718 32331.10097524448,9488.930089690693 32255.008727635548,9440.874029284838 30886.395390319987,8611.690126585687 30737.10991647112,8483.617052742367 30668.768684400013,8446.113616662886 30181.41269620444,8217.5876863226 28134.94128699554,7054.1743763194245 27847.546411831107,6878.944186402281 27766.93567547557,6839.807131649955 27681.577220008883,6812.685736505751 25895.91287639999,6388.088208637753 24457.783610622224,5623.430661840568 23775.44141997333,5244.80722170425 23173.263155795576,4584.1688022268645 22056.218055706704,3825.113482882356 21964.952913377783,3770.289522707666 21463.88592016889,3366.4633431757393 21409.029666728922,3327.6882062304358 21078.62249531556,3129.918550913717 20550.022809057788,2811.1183900797914 20265.143351208884,2664.47883570884 19536.020689946658,2338.548556605674 19480.57228233776,2313.762158961472 18650.206986835576,1958.1945898611739 18634.873893004435,1951.6209719027102 17083.531915404426,1461.7423494975956 16015.831636791117,1120.8820942404855 14406.769628186652,255.11486036839779 14294.911035760015,208.40936775450245 14176.241359671112,183.99507106657256 12508.683373822249,9.074488685961114 12390.712457128859,8.052549999993062 11830.446358213318,56.30769237523782 10206.768656524422,216.99702963829623 9245.869630035537,313.6235018091684 9135.736818942241,307.81901888441644 8542.601066408912,329.0439776859421 8400.149395368877,341.1133407828456 8315.159689128923,353.62436860831804 8198.595903173322,379.3538153944246 8060.701751208864,419.0711493784038 8007.617882479972,439.72770745048183 7466.654028826684,559.3601175041113 5566.451107297733,928.1562565147469 5014.462350817805,1069.6955625646806 4384.144967137778,1231.3198878207768 4263.4797926666215,1276.1404128914874 3092.8582844000193,1855.4288455380884 2768.5549903911306,1982.6354273959587 2637.8130005599814,2052.8128818766854 2487.2613711911254,2158.2841448408726 2391.3492895555682,2241.0608228882484 2291.04338320886,2347.012502526137 1734.2678772888612,2633.2671740915684 1602.5405172888422,2726.3261655153765 1252.8165370578063,3052.102090762666 981.4870112977806,3324.14629342602 811.7024591911468,3529.100571866875 737.0715187466703,3641.986325409176 688.1618563110824,3768.2669426768844 646.9365083288867,3921.789763675275 246.98835913772928,4530.943497097265 220.02772255107993,4558.358409061126 151.9235851644189,4662.5975819688465 108.32583398226416,4746.408589004568 58.722072488919366,4857.984403080627 20.75866967998445,4979.842584832251 8.052550000022165,5106.8656154634955" stroke="#009edd" stroke-width="4.834598486779043px" fill="none" stroke-linejoin="round" vector-effect="non-scaling-stroke"></polygon></svg>