<svg width="447.03715612436645" height="323.9824500902323" xmlns="http://www.w3.org/2000/svg"><polygon points="5,180.85945637430996 6.593835519859567,181.122582580545 7.751638186629862,181.29516092606355 8.059511751052924,184.191319103993 8.367385315475985,186.44913949095644 9.755874702124856,186.46662103524432 9.96325973328203,187.0089964629151 9.989765404374339,187.874104909366 10.315697777783498,188.79299874883145 10.673669973271899,189.41963731776923 11.068924871040508,190.41517316905083 12.357799537712708,191.44297739630565 13.272682097740471,191.7311920223292 14.97574428434018,192.76481710321968 16.537831253255717,193.95531767129432 17.097654328797944,195.24711106088944 18.13778346660547,197.43175753415562 18.804211768787354,198.85306592163397 20.68611441773828,198.52362439926947 22.462868195492774,198.1959752656985 23.059100159909576,198.167737355805 23.905242737731896,198.1905966164195 24.952944924356416,198.3098233100609 26.247353742131963,198.51510821731063 26.82669198210351,198.65181530889822 31.06293902208563,201.48140888102353 31.72791096882429,201.96279025019612 32.34657080878969,202.48137216438772 33.83030584885273,203.8174881170271 34.75159637327306,204.73631523479708 35.654828088823706,205.6197302674409 36.38562730664853,206.35164880711818 36.53242794657126,206.4394967959961 37.49420515540987,207.16379316151142 38.46180778660346,207.84281883423682 39.279988337657414,208.4514750453527 39.859909119899385,208.90012261550874 40.35740017774515,209.004552937462 40.734304995508865,209.09239986503962 41.235582577763125,209.43616786110215 41.31189560878556,209.49846734909806 41.55423317325767,209.78262450173497 41.65413916436955,211.52924169879407 42.61271239107009,211.66773346089758 43.810127928853035,212.09306845627725 44.548791466630064,212.18136234034318 45.201821297756396,212.07962268398842 46.49623011541553,212.31044166046195 47.176930702175014,212.22080325183924 48.061521066585556,212.32657657016534 49.02970623993315,212.53095199004747 49.509429759928025,212.87471460271627 50.09954503097106,213.25522826239467 51.198219662182964,213.89434630557662 53.34547029330861,214.9045613539638 54.2653044621693,215.41638991958462 56.106720426585525,216.01919874048326 56.95198919111863,217.1517577524064 58.068722630967386,219.2801640877733 57.63443740434013,221.17101777199423 59.06253966211807,221.56137686281 59.17817429325078,222.08618690038566 59.88712817768101,222.3420929624699 60.08140600880142,222.772337158327 60.6205488354899,222.7122822899837 60.9109461333137,223.13311419356614 62.709836515481584,222.5168797687511 62.87877375993412,222.56169687613146 63.02324423112441,222.4801297337981 63.105965226655826,222.26635196997086 63.817540551070124,222.20898599369684 64.2931862755213,221.86927154590376 64.60834161774255,221.89033564960118 64.80087182216812,220.47320995293558 64.53756273770705,219.6396023298148 64.37736362661235,219.10806377360132 64.15133724443149,217.95938035740983 64.2040573154809,216.02188784675673 64.07182023103815,214.56393923057476 64.25182577769738,213.51876383792842 64.15279359999113,213.04995713569224 63.673361351015046,211.95816250372445 64.90602069324814,211.7739552387502 66.01576362666674,211.7206202596426 68.66283548437059,212.97107560368022 69.3668377599679,213.4676702306606 69.84102712885942,213.72403452632716 70.92834218661301,214.1529510440305 72.31624903110787,214.81985405948944 73.16909084434155,215.22008453367744 73.87804472877178,215.88429520011414 74.08484721765853,216.0165096342098 75.73227662220597,216.98637850629166 76.23093276435975,217.09439043991733 76.78172643540893,217.0997686261544 77.24164351995569,216.97875940520316 77.82564209774137,216.80083091108827 78.43847651546821,216.6211095401668 79.03616483544465,216.5148901072098 80.93466993770562,216.683406989614 81.81955157325137,216.62245408963645 81.94479815103114,216.55119295720942 83.26454755547456,216.32889392983634 84.62012330663856,216.06984356977046 86.15250062209088,215.7547697960399 86.6330979554914,215.86323052021908 87.45914282661397,216.33740942092845 87.95401244435925,216.11645472969394 89.31832632888108,215.91342720092507 89.75086392881349,215.72339684923645 90.4254478221992,215.19184881309047 90.91216184885707,214.89380487398012 91.50548110215459,214.7096000716556 91.97355377767235,214.5092603667872 92.7020228265319,213.81591326574562 94.3147909687832,212.14819611399435 94.57751751097385,211.4283981276676 95.10996110213455,210.55979691783432 95.5853155554505,209.75797365920153 95.9907649421366,209.01441330864327 96.27912334213033,208.4891238276614 96.48359566216823,207.92170220863773 96.6688440887956,207.35427912324667 96.8960355555173,206.78954379085917 97.44566414214205,204.2719718646258 97.69936127995607,204.0043913105037 97.9982054400025,203.957777579315 98.05937237327453,203.7466710380977 98.64016696880572,203.78387241781456 98.74502456886694,203.5651461428497 99.03862584882881,203.54318386141676 99.20057258661836,203.22405821783468 99.18105742218904,203.02863835310563 99.20290275546722,202.65931226237444 99.62728476442862,202.02285079390276 100.16031089774333,201.86418335174676 100.45187327987514,201.87045833753655 100.58556671987753,201.81801737955539 101.12966115551535,201.69072474574205 101.9286178132752,201.4083499776898 102.4764987732051,201.0403658063151 102.4654304709984,200.71496150642633 102.93758094217628,200.33084038307425 103.37099235551432,199.8449732621084 103.65556423109956,199.8050819101627 103.99052600888535,199.31697253335733 104.28092330659274,198.02251376170898 104.3575276088668,197.4810619840864 104.3013122844277,196.06960566766793 104.47869639110286,195.5554908711929 104.51394019543659,195.2542826893041 104.60365169774741,195.08261176978704 105.15823189320508,194.185707472614 105.9254400000209,192.2802779378835 107.35674623993691,192.5106694967253 108.90718236437533,192.54473515419522 109.22117262217216,193.23232242587255 110.29130268434528,193.68100109469378 111.08822044439148,193.848190813791 111.87290481769014,194.37665292230668 112.74089272879064,194.48288306541508 114.34521400881931,194.64514166576555 116.98529535997659,196.16866339335684 118.35980373329949,196.99608500336763 119.39090346661396,197.36138661799487 119.85227690660395,197.69038166245446 121.1539675021777,198.4236712954007 123.07839573326055,198.82169055985287 124.13250588439405,199.18788557458902 125.1886549332412,199.8924843010609 125.98528142215218,199.77325846679742 126.79676273767836,199.59845355525613 127.89223338663578,199.84138752287254 129.553935075528,200.41376040235627 130.28910335991532,201.16228024079464 131.03854392876383,201.2147213553544 131.28292039094958,200.93637991166906 133.21899946662597,201.01885148731526 134.27602232887875,201.22458207642194 135.4702338842908,202.02778113633394 138.34682737768162,202.00761155306827 138.24808647099417,201.05694975913502 138.10915015102364,199.97630092018517 137.90904689766467,198.52855482022278 137.74185727990698,195.7787073823274 138.33750670216978,194.59807771944907 138.62440874660388,194.06109978910536 139.10879260441288,193.26549150969367 139.2285050310893,192.8100885155145 141.3748818488093,191.80470237962436 148.4183998577064,189.8633931624936 150.9440116621554,189.37257225130452 156.52593123551924,189.38781236915383 158.1153976888163,191.86431746836752 157.0612875376828,193.13998684182297 153.77837084443308,197.14489505963866 151.7374341688119,199.69661325355992 153.97002723545302,202.34108175878646 154.0810015287716,202.4432741397759 157.18886428442784,203.6193795223371 157.58208028436638,204.09806695196312 159.10455438215286,206.04776620684424 161.22821205330547,206.42829169740435 161.47724885330535,205.68158263270743 161.7434706487693,205.41893406276358 163.1372029155027,205.36201189097483 165.49038222210947,205.21679305506404 167.06062478211243,205.31943230394972 167.35655623103958,205.27505988348275 167.78734620439354,206.64253308507614 168.3259064888116,207.50039294891758 168.86388423095923,207.4080633649137 169.7309983287705,207.04143385658972 171.3918262043735,206.87335777713452 173.049450097722,206.08317437802907 174.06715135998093,205.67217031738255 174.89843911107164,205.25892445567297 175.28553841775283,204.95369572215714 176.8895684266463,205.8998585943482 177.5460935110459,206.6192265007412 178.43301404442172,207.9257360168267 178.99982762662694,208.82751437963452 179.6843147376785,208.62851390626747 180.52725333324634,208.66885185462888 181.0509587910492,209.14483908563852 181.4383493688656,209.66340403771028 181.6142771198647,210.17703760566656 182.3439112532651,210.92731694097165 182.50119765324052,211.20340474881232 182.58042339549866,211.56285621220013 182.46595384879038,211.83804683503695 182.9916982044233,212.35346808366012 184.86835797328968,213.6249847203726 185.63236209773459,214.41738191747572 186.0392678399803,214.2779955137521 187.51921635551844,213.9911550474353 187.44785493332893,214.5406334870495 187.98670648876578,215.59969775844365 188.32108572439756,215.99006675370038 188.68255317327566,216.53102470788872 189.43053738668095,217.50671766500454 189.81122872885317,217.98223755776417 191.10476373322308,219.90357841958757 191.44555093324743,220.59600994829088 191.53089336887933,220.93079644814134 191.7563372089062,221.18311846605502 191.9468285155017,221.41437604662497 192.2343131020898,221.97145483875647 192.26839182211552,222.1381748460699 192.43296000000555,222.45413580304012 192.3420834132703,222.70869692415 192.3682978132274,223.21871462045237 192.47490303998347,224.05365316034295 193.31929799099453,225.19961570284795 192.472281599883,225.60923871956766 192.8972461511148,226.10042680002516 193.75999118224718,225.7790931161726 193.99126044439618,226.71261770522688 194.31165866658557,227.42116156360134 194.46719743998256,227.8621516530984 194.56855978653766,228.7338215317577 194.43661397334654,229.57322066900088 194.19048988434952,230.31760771595873 195.63082552875858,230.78727386204991 196.956982897711,231.0714034665143 196.93717646214645,232.390763879288 196.62027349334676,232.72194719471736 195.6573311999673,233.4918680464616 195.80500565329567,234.01306439004838 195.88685283553787,234.5526335061295 196.25385443551932,235.08682355086785 196.3575469510397,235.56813125347253 195.79393735108897,235.92754283495015 196.47143395547755,236.47248495864915 197.1961164799286,237.34860206779558 197.8176890310133,238.65223993035033 198.2350805333117,239.65024141035974 199.67891143099405,240.23461017594673 200.51194680889603,240.84362474246882 201.26896042656153,241.60096941888332 201.92927203548606,242.67513960774522 202.51035790215246,242.55011130776256 202.9737702399725,241.61844657285837 205.84046051546466,243.32268647383898 208.0098477511201,244.34665807092097 209.96398563543335,245.16538378596306 212.45493617770262,246.59400131413713 212.40745898662135,246.68362569250166 212.32182527997065,246.83688329457073 212.12783871998545,247.36611413321225 211.95977528882213,247.61078773927875 211.7465648354264,248.05756283306982 210.7256595910294,249.238801330328 209.8643709155731,249.66316732706036 208.3451007999247,249.9992538598599 207.0570999465417,250.10007971938467 206.33241742220707,250.1309996403288 205.84016924444586,250.23496224125847 203.15173688880168,250.94074152829126 202.60589482658543,251.1329819696839 201.4609080888331,251.5846791275544 201.28789304883685,252.84431778185535 200.92322161770426,254.32531378872227 200.9101144176675,255.02525456808507 200.995456853183,256.1755365219433 201.23954204434995,257.47995882551186 201.21070620440878,258.245311898645 201.1597337599378,259.2754872626974 200.9995346488431,259.871454275155 200.02173752884846,260.29579972603824 199.56269425770734,262.0989226773381 199.17705130658578,263.4064464122057 197.70933617767878,267.76943278766703 195.79073336883448,271.1344786117552 194.9233280000044,272.22149837529287 194.72759381320793,272.643579619762 194.64632917323615,273.1203243385535 194.54962716437876,274.51739547774196 194.05097102210857,276.3620713694254 194.06174805329647,277.22906816680916 195.10478990210686,281.1199821900227 195.2778049421031,281.507546428591 195.47208277322352,281.79609092045575 195.85685191105586,282.3203089807066 196.26637909328565,282.97490772488527 196.43852031987626,283.38666322489735 196.34880881768186,283.9265590927098 196.16676437319256,284.3835653461865 195.90986325324047,285.0063468469307 195.75607210665476,285.56684868765296 195.60315477324184,286.4418738815002 195.55014343105722,287.53509042342193 195.39955626660958,288.1282925318228 195.23586190212518,288.70939606497996 194.93206613324583,289.98987937974744 194.93527011550032,290.3142553534126 195.04362296883482,290.99436806340236 195.08090567111503,291.46256037184503 194.7782749866601,291.81740019330755 194.5464231822407,292.0615762526286 194.24408376880456,292.21659430721775 194.4651585421525,292.6278844536282 194.46370218659285,292.9504644217086 194.9239105421584,293.4571828315966 194.96119324443862,293.63012094260193 195.03779754659627,293.6717873583548 195.03051576879807,293.90476071997546 195.09605176886544,294.2098658448085 195.26353265775833,294.26766104099806 195.33052501326893,294.6171200425597 195.661408995511,295.12876285996754 195.9850111999549,295.36890303576365 196.12190862209536,295.51630237937206 196.27628231106792,295.74613763252273 196.33744924433995,296.01629455247894 196.4440544709796,296.21655991557054 196.63454577769153,296.3348373596091 196.7597923554713,296.57094403658994 196.7895020088181,296.8841098067933 196.91445731546264,297.2048914488405 197.12592014216352,297.5686823532451 197.34233457769733,297.83883703144966 197.26922552881297,298.57537645625416 197.5794292622013,298.98799874074757 197.7804063288495,298.9727662272053 197.96798492432572,299.1201631522272 198.38071608881,299.58833813946694 198.61606314661913,299.89433139562607 198.78063132439274,300.23795728210825 198.83713791996706,300.464651510003 198.9469471287448,300.53454138292 199.04452295100782,300.6841773180058 198.78762183105573,300.8857824585866 198.78791310219094,301.1608611741103 199.16481791995466,301.2535993604688 199.39317447098438,301.0488584813429 199.81406122655608,301.9256140339421 200.49738325329963,303.55456906982 200.75049784884322,303.93268561788136 201.24099839990959,304.59169998881407 201.50634638220072,304.8640860444866 201.82354062213562,305.2287602678989 202.14102613332216,305.54818571789656 202.77832732442766,306.25154727324843 203.22601102211047,306.6592271437403 203.50417493330315,306.81065090285847 203.7596196976956,306.90069871011656 204.40886300441343,307.1569539596094 205.19908152881544,307.52520835766336 205.66802801773883,307.75771902815904 206.1841604266083,307.9956054133363 206.6691268265713,308.1649481066852 207.08477070217486,308.3226427725749 207.5933300621109,308.60353611566825 208.00285724445712,309.01837953488575 209.8646621865919,310.42597415222554 210.61934563552495,310.63249825604726 211.83278108434752,312.0445624141721 212.0625939910533,312.34471447585383 212.75378033774905,313.26174368173815 214.81510599108879,314.29479691165034 215.70552177773789,314.61376119434135 216.53622698655818,315.18941887503024 216.60991857771296,315.21629779599607 217.2145974043524,315.44476849155035 218.12278072885238,314.8995743013802 218.98756465769839,314.16756945615634 220.63528533326462,313.26174368173815 221.04102599108592,313.0493982267799 221.86910975992214,312.63501040806295 222.59612245322205,312.3895132559119 223.9688831999665,312.2470531038125 225.4252387555316,312.2752763488097 226.95528590213507,312.7272957629175 227.71084316435736,313.00594354089117 228.32222122664098,313.3491009295685 229.00408689770848,314.08558834542055 231.332799431053,315.95412289269734 232.5922557155136,316.7586943687638 234.10919566219673,317.17217845190316 234.42580735997763,317.2519185214769 235.11524607997853,317.56639873812674 236.56635875545908,317.96241022250615 237.96096483548172,318.10173083504196 239.02847345767077,318.08963547990425 240.10384639992844,317.9874968988006 240.37181582220364,318.3225829434232 240.51308231102303,318.9367567060981 240.8142566399183,318.8758321790956 240.8995990754338,318.9824500902323 241.72535267553758,318.68454697343986 243.29734286211897,318.24239528668113 243.93027498666197,318.1407047526445 244.2492168531753,318.1855023505632 245.25351964437868,318.052005481848 246.0591755376663,318.2186525671277 246.48850915546063,318.0484216721961 247.05765290663112,317.902381378226 247.32707868434954,317.7343901224667 247.5560177777661,317.2711815676885 247.60611640883144,316.46526803047163 248.33604181325063,316.48721902200487 249.41694890661165,315.256616171333 249.34937400883064,314.1545779160224 249.1952915911097,313.205297441571 248.893534719944,312.6108190950472 249.44374584883917,312.2690045168856 249.35840341332369,310.43941390456166 249.63423715543468,309.51565301133087 249.50666040880606,308.5040810974897 249.53637006215286,307.4566647026222 251.0725339021301,306.9150346760871 252.6823893332621,306.51273127738386 254.51681479101535,306.6117391977459 256.2326929065166,305.580441838596 256.7226109155454,304.9348705234006 256.7610587021336,304.078735200339 257.39573845325503,303.4927442643093 257.7700218310347,302.8023660867475 257.8073045333149,302.26206860801904 258.13003292435315,301.7826990855392 258.14459647994954,301.06050676404266 258.0059514309978,299.8033846890321 257.64943559106905,297.9185841199942 257.42661319102626,297.59601144853514 256.69552270218264,297.0288200189825 256.7727095466107,296.05392832588404 256.620083484333,295.50689391361084 256.65882254217286,294.4903292126837 256.47211775986943,294.1802962036454 255.8892842666246,294.09248330653645 255.38742414209992,293.58890254510334 255.6285966221476,293.2587070596637 255.7136477866443,292.8398016249994 255.24237112875562,291.73541074001696 255.89569223101716,291.5539585624356 256.1389036087785,291.2743875065935 256.216672995477,290.9939200320514 255.55373994656838,289.80842576007126 255.95802424883004,289.4598551763338 256.02996821329,289.18431377067463 255.42528938653413,288.75151145021664 255.8193791998783,288.6336779585108 256.22686748439446,287.7488046607468 256.28220899554435,287.09108386945445 256.58775239100214,286.850486602867 257.01271694211755,286.41095907241106 256.99465813324787,286.0202671956504 257.80934343102854,285.3979366128333 258.3146988088265,285.7805648401845 259.0938490310218,284.8804465564317 259.53075569774956,284.6040033166646 259.8482412088197,284.95168551965617 260.1441726576304,284.64522340043914 260.5603990755044,284.2061395018827 260.9658484621905,284.2939563518157 261.3278984532226,284.01123973500216 261.3092571021989,283.48881789750885 261.5111079821363,282.99148549116217 262.3292885333067,282.80912999331485 263.52408263098914,282.38527608907316 263.7533129955409,282.22487450391054 264.420032568858,282.1339204804972 264.680720213335,281.85568158351816 264.7616935821716,281.30905985774007 264.93266972433776,281.7808572144713 265.2361742221983,282.03355737630045 265.8498824532144,281.1262549115345 266.3048479288118,279.89859030081425 266.379704604391,278.86089471605374 266.8084556799149,277.16454759275075 267.03681223106105,275.6769846576499 267.00797639100347,274.21226299519185 267.294878435554,272.7941306954017 268.6673479110468,271.75684961286606 272.3991133866366,270.45878513203934 273.18729301320855,270.18321988667594 276.06592540442944,269.24898392066825 276.20923079096247,269.1315880409675 276.9711960176937,269.0917092736927 277.19547477329616,268.8761845745612 278.4520183466375,266.3902419860242 278.6017316976795,266.1558951897314 278.529787733336,265.8225218784064 278.5822165332502,265.03434291062877 278.50357333326247,264.9514472892042 278.6681415110361,264.60642193385866 278.66318990208674,264.2994833374978 278.7799896177603,264.17177883163095 279.1152426665649,264.3492208617972 279.5300127288792,263.95983399654506 279.36690090654884,263.5547633833485 279.75050495995674,263.3544682355132 280.16789646213874,263.29083976102993 280.6243182932958,262.8333415250527 280.7816046932712,262.3238639154006 281.65483548445627,262.35030121705495 283.3634318221593,261.4698029315332 283.7948043376673,260.8675669566728 283.9014095644234,260.78153311117785 285.46844814217184,261.15613856737036 288.24397055990994,259.2100652214722 288.7534037332516,258.7633128161542 289.7352786489064,257.2263342094375 289.79411541332956,256.6500764839584 290.23393479106016,255.5679087843746 290.6487048532581,254.5121739974129 291.27697663987055,253.73067604738753 291.77272007102147,251.97677660163026 292.51691775990184,251.20736866863444 292.84459775988944,250.5844913145993 293.558503253269,249.7693707270082 294.27532145765144,249.4476235600887 295.9978988087969,248.28251845389605 296.79714673769195,247.363873531227 297.477264782181,246.4066862454638 298.21243306656834,246.10689217865 298.8814828088507,245.79096525267232 299.4325677510351,245.78872463456355 301.0080531911226,246.71544233791064 302.9085971910972,246.57069896988105 304.5857362487586,248.84221779368818 305.15225855994504,249.17606499930844 306.71055900433566,249.33783507347107 307.48475761769805,249.25896657572594 308.1873035377357,249.24462684581522 308.67693027539644,249.6775070296717 310.068332373281,249.29391966346884 311.64906069322024,247.91506094601937 311.6510995910503,247.39703443920007 310.56553215999156,245.27875935588963 310.3217382399598,244.4461421466549 310.1685296355281,242.91130398004316 309.3124838399235,241.14790732576512 309.02995086216833,240.5317234536633 308.9215980088338,240.3112412407645 308.6111030043103,239.32399804884335 308.69207637326326,238.8700349823339 309.5760841955198,237.88278531108517 310.1096928711049,237.18547873781063 311.43322879995685,236.46531467640307 312.0347036443418,235.9804237911012 312.1357747199945,235.22843747230945 313.28105272876564,234.0708754301304 313.540284017683,233.3354640871985 314.42429183993954,233.25748614047188 314.72226218658034,232.25676669896347 314.7344955733279,231.91124182019848 314.9712989865802,230.6030823920155 315.1041186132934,230.33643023343757 315.55995790218003,229.99045417713933 315.5480157865677,229.34600509534357 315.4140310755465,228.9229443083168 315.6266589865554,228.5025716595701 315.7641389510827,227.8872486235341 316.24182357324753,228.33182305109221 316.72271217766684,228.28835159935988 317.30117660434917,227.91637903189985 317.2496216177242,227.2902984803659 317.5027362132678,227.16615774377715 317.73720945767127,227.12223789957352 318.0182860799832,227.11237834149506 319.65872497775126,227.0187125178636 319.93455871997867,227.10296694480348 321.0868272355292,227.8518439680338 321.6431550576817,228.3856021547108 321.913163377787,229.8923080203822 321.67752504884265,230.53765180835035 321.91549354651943,230.9777393315453 322.34395335102454,231.65310614730697 323.1399972976651,231.78889630467165 323.68613063101657,231.73063651146367 324.3700351999141,232.31188929476775 324.46382449776866,233.2924417752074 325.5397799820639,234.2461010479601 326.8269070221577,234.68035523733124 327.26789148442913,235.3946992699057 329.1562020976562,235.78817008453188 331.018880853313,235.2647372286301 332.9587464532815,233.771512670035 334.46141411550343,232.24287401005859 335.5006694399053,231.26321314938832 335.73689031100366,230.61652703012805 336.34011278219987,230.41306475247256 336.72692081762943,230.22035801626043 337.56840305775404,229.52257895399816 337.5308290843386,229.47014459967613 337.7093782755546,229.32135644904338 337.81802239990793,229.31821934843902 337.97152227547485,229.286848339485 338.40260351996403,228.89874377253 339.90090211539064,228.5567988801049 341.7123171555577,228.15838535223156 343.8441304176813,232.20702190557495 344.42667263990734,232.9832186595304 342.7119596088305,234.83362121682148 343.16809016885236,235.37139573710738 344.6637673244113,233.83873488230165 345.51457023993134,234.32676752581028 346.6831499376567,235.43996189377503 347.3090915554203,234.92862814455293 348.64398705773056,235.15314906975254 349.02671729773283,234.85244334721938 349.50061539548915,234.55442609230522 350.75890659552533,234.73144390899688 351.9155441777548,234.50154479278717 351.8002008177573,233.8069163709879 352.2874973866856,233.13648582343012 353.339568639989,232.32443752593827 353.8306517332094,231.48056737729348 354.2066827376839,230.0070359435631 353.5597695999313,228.84855006018188 354.03891057765577,227.4413288125652 353.3244225421222,226.7991130616283 353.12228039104957,226.13403908285545 352.3000220443355,222.08394604036584 351.9496228976641,220.41360263118986 351.2983406932326,220.62379679904552 350.25238613330293,218.18033319414826 350.5972511287546,216.33561668603215 350.3633604266215,215.11251986428397 350.61851391999517,214.57424753939267 351.2386301155202,214.19194341322873 351.2348435911117,213.3632420314243 351.3807704177452,213.2063755443669 351.2974668799434,212.67392503260635 351.65427399100736,212.33778136782348 352.00845966208726,212.25396946730325 352.47420216875616,212.2727935332805 351.9504967110697,211.3033520351746 351.8077738665743,210.6252334547462 351.9129227377707,210.12101306015393 352.48497919994406,209.77410875645 352.9632463643793,208.76880029478343 353.10334776889067,208.65316487569362 353.41151260444894,208.64195988990832 353.92211086221505,208.8230323890457 354.0033755021868,208.69708841410466 353.60957695997786,208.28340004518395 353.8198747021379,208.0104459709255 354.28707356436644,207.82668359513627 354.76097166212276,207.86612528876867 355.3111827910179,207.9790719175944 355.5940070399083,207.9257360168267 355.7186710755341,207.7455591802718 355.8613939199131,207.32649059325922 356.77569393767044,207.15213989734184 356.9781273598783,207.53087066713488 356.90618339553475,207.80068792949896 357.06259598222096,208.2246858148137 357.1939592532581,208.4322024518624 357.242892799899,208.69350281939842 357.1094906310318,208.9090865936014 357.228329244419,209.10270843072794 357.6008649955038,208.9014672123012 357.900000426569,208.648234681983 358.67274268437177,208.86112930660602 359.01760767993983,208.70515600184444 359.47665095108096,208.1556629590923 359.7248139376752,208.2332016202272 360.2724036265863,207.86612528876867 360.8718395732576,207.93649283819832 361.18204330664594,208.1637305667391 361.35010673769284,208.61954991676612 362.0293509688927,208.6258247095393 362.15110229328275,208.9229807589436 362.8003456000006,208.8544063216541 362.9794773332542,209.08478049008409 363.7766863644356,209.45588856423274 363.86931057763286,209.82027305592783 363.6249341154471,209.9905878630234 363.57104895985685,210.33300986496033 363.9665951287607,210.37648487149272 364.3510729954578,210.51497736072633 365.2662468266208,210.22006444685394 365.7730585599784,209.89063997904304 366.2021009066375,209.90408588538412 366.4604583821492,210.26398767193314 366.81522659549955,210.3271833169856 367.1009635555092,210.60147909767693 367.04300060437527,211.0223342126701 367.16183921776246,211.1895107277669 367.3616511999862,211.3911980430712 367.53029717330355,211.47411388566252 367.7403036443284,211.380889584776 368.32080696884077,210.68125787156168 368.87218318216037,210.85605396016035 368.87160064000636,211.24463861237746 369.10228735988494,211.45842710707802 369.33676060440484,211.5305862793466 369.7984253154136,212.31133804441197 370.0949393066112,212.3126826202497 370.3034894220764,212.1701575347106 370.53359359991737,212.33688498404808 371.0756491377251,212.43503898772178 371.27313095110003,212.59952527913265 371.4586706488626,213.01634284993634 371.59469425771385,213.08491598739056 371.8387794488808,213.01365370687563 372.0764566755388,212.81062330899294 371.97888085327577,212.49151113443077 372.1670419910224,212.31940549938008 372.61472568882164,212.54708688356914 373.1273628444178,212.64792994083837 373.3915457421681,212.93701311515179 373.0073591466062,213.27360405249055 373.2995040710084,213.37175763753476 376.0182286221534,213.49590617301874 376.4172700443305,213.32200856570853 376.7102887821384,212.91012167313602 377.1684582399903,212.60938548878767 377.6161419377895,212.68244066543411 378.11130282667,212.0657287184149 378.5651032177266,211.72510219120886 378.3950008888496,211.39747275656555 378.9344349865569,210.9551050151931 379.787276799907,210.45088537817355 379.96932124439627,210.45760831428925 379.9777681066189,210.09143209439935 380.3951596088009,209.96907442098018 381.3147025066428,209.99596622318495 381.5413114310941,210.24605982599314 381.6056823466206,210.81795738858636 381.71607409766875,210.95958696235903 382.0155007999856,210.93314347293926 382.16987448884174,210.5799657155294 382.6455202132929,210.44595522491727 383.14213745773304,210.43654311378486 383.5947727643652,210.78075720055494 384.4074191643158,211.64846114977263 384.4059628088726,212.35257169994293 385.0039423999842,212.4431064380915 385.1274413509527,213.08670874888776 384.9206388621824,213.33052417333238 384.54722929769196,213.40133816131856 384.62558122654445,213.7527186247753 384.91510471107904,213.7648197276285 385.37385671108495,213.66666631831322 385.91008682665415,213.37579134549014 386.6350606222404,214.15564017317956 386.963323164382,214.94265721651027 386.9394389332738,215.13044731284026 386.6542845154181,215.3097217179602 386.1725220977096,215.11655354034156 385.9983419732889,215.28776061115786 385.9191162310308,215.50064879842103 386.0563049244229,215.6431717221858 387.0626466132235,215.94793741218746 387.4066377955023,216.40329241973814 387.1491541332798,216.5063746230444 387.3472184888087,217.13158955832478 387.59042986657005,217.23063778248616 388.78580650663935,217.02626673690975 389.4315545599675,217.2741114234086 389.6272887465311,217.55825851368718 389.55388842662796,217.8455425008433 389.7569043909898,218.16375053464435 391.30384526215494,218.1951231326675 392.4654344533337,218.46582364989445 394.4466605511261,217.5443648947985 395.73000106657855,216.6506896263454 396.61663032881916,215.95824565610383 397.97220607998315,215.12103540252429 399.486233315547,213.83608176436974 400.20392533321865,212.80838235438569 400.79287551995367,212.38663427904248 401.09346730657853,212.29296217369847 402.0762160355225,211.5489622139139 402.3351560533047,211.5884032389149 402.5678816710133,211.81967092474224 402.19301575107966,210.7991331978701 402.3596228265669,210.61044300632784 403.0851791644236,210.97482558188494 403.47111338656396,210.02868457813747 404.55784590216354,210.2415778642753 404.91581809776835,210.4477480079513 404.9857231643982,210.63240458088694 405.8758476799121,210.3796222427627 406.8221875199815,209.77903892484028 406.2177999643609,209.07223093067296 407.03889322665054,208.72622136841528 407.78862506663427,208.62941030517686 407.92697884433437,208.75400972133502 408.2147547021741,208.58055655809585 408.34291399107315,208.36990266130306 408.724479146651,208.27488424174953 408.6956433065934,208.0005855546915 409.03963448887225,207.66443473554682 409.4142091376707,207.66174552682787 409.7223739733454,207.2978056553402 410.03811185772065,207.19202991446946 410.41501667548437,207.2713617249392 410.67949084436987,207.00512943434296 410.8417288532946,206.58112919412088 411.03629795555025,206.4807315542712 411.4481553066289,206.4789387388737 411.6299084798666,205.80349449021742 411.9071985776536,205.75329549831804 412.2747827199055,205.30060764180962 412.9677166932961,204.94159413373563 413.9187168710632,204.66908411262557 414.2970780443866,204.1859158425359 414.8536971376743,203.75429059832823 415.2818656710442,203.71395174704958 415.33545955549926,203.37734615511727 415.0354503110284,203.1913388489047 414.84816298657097,202.78167400939856 415.176425528829,202.4320688371663 415.29759431106504,202.09456485440023 415.34594531543553,201.61632127058692 415.9887806576444,201.6521783702192 416.31529557332397,201.56343203806318 416.9275474488968,201.6831051138579 417.41717418667395,201.3836981949862 417.92107320879586,201.3756303382106 418.2464230399346,201.1371802156791 418.78760476445314,201.67727833642857 419.2897561599966,201.63066411117325 419.148780942196,201.29091782437172 419.5577255821554,201.0045086068567 420.06599367095623,201.2882285376545 420.4711517866235,201.12373377254698 421.2421464177314,200.5190911926329 421.5203103288077,200.47964817925822 423.03113358211704,200.47023564088158 423.55658666661475,200.82163679832593 424.2547635198571,200.85435652046 424.25651114666834,201.27657496160828 424.5827347910963,201.39131783717312 424.7103115377249,200.81984393676976 425.1236252443632,200.61769869516138 426.7430926221423,201.03140150697436 426.68221695988905,200.50340363133 428.35498695110437,200.29812058305833 428.7819903999334,200.03905130934436 429.0077255110955,199.64641286537517 429.67269745771773,199.25332550064195 430.950212551048,199.67061662534252 431.9332525510108,199.64999860781245 433.95671295991633,197.5106446488062 435.2339367821114,195.80335979431402 436.0119219199987,194.41923463140847 435.7060872532893,193.60704313550377 436.5889299911214,191.65364753338508 436.9538926932728,191.28878465713933 438.79559992882423,189.54066172800958 440.0055401243735,188.76027722936124 440.738378239912,188.58501530915964 441.62063843547367,188.5289852541173 442.03715612436645,186.2599801273318 441.7592834844254,185.62212637986522 441.4645171199227,184.9008966847323 440.9772205511108,183.8645450817421 440.8097396622179,183.42929387971526 440.52487651549745,182.99628307390958 440.0748626488494,182.26652794075198 439.6580536888214,181.75820812856546 439.1978453332558,181.33281436527614 438.7562783288304,181.01544946135255 438.33772174222395,180.55912454403006 437.5693485511001,179.7899145798292 436.99030158214737,179.23362527485006 436.73922588443384,179.00904716254445 436.09114766214043,177.99059822928393 435.83424654218834,177.4585105740698 435.5019062043866,176.9524209506344 435.0102405688958,176.05095992749557 434.45595164434053,174.94329191138968 433.4309686043998,172.48945787653793 433.0846472532721,172.01608081848826 432.60579754656646,171.50280624534935 432.01306083542295,171.0240477451589 431.26478535099886,170.37180485005956 429.913287395495,169.0561062404886 428.3311027199961,167.38715250301175 427.5918566399487,166.70620856143069 427.0573741510743,166.38971908483654 426.61202062212396,166.22340502694715 425.64966087101493,167.56198306242004 424.8935210665222,168.4374786153203 423.6154234310379,167.52074099425226 421.01990655984264,165.35731468873564 420.08492629323155,164.51139396394137 418.42380714660976,162.83119835337857 416.8241462042788,161.10167727444787 416.03917055996135,160.4207138370257 414.37688632891513,158.75797066965606 411.7123382043792,155.87447787169367 410.23879765323363,153.8396021842491 408.4716558222426,153.99113136087544 407.3729811910307,153.99920095899142 407.03539797326084,150.55659378087148 407.0814188088989,149.0224441133323 402.17874346661847,149.2358448843006 401.670184106566,147.72634379798546 401.11939043551683,146.4602737011155 402.00980622216593,145.93976613611449 402.90429980435874,145.28834536887007 404.1809410842834,144.82925620663445 405.0297051020898,143.6012776448042 408.76525710208807,139.93299263564404 410.32588771544397,138.8744599847123 408.07436202664394,134.9491916411789 406.9698619733099,133.736850144458 404.0755009421846,137.23845433065435 403.4536371199647,138.54717016080394 402.3776816354366,137.92038636881625 399.55992490658537,136.21846655907575 398.57950634660665,135.5230787723558 397.073343430995,134.27352729125414 396.2426382221747,133.76195787650067 394.7379316621227,133.0253137589316 393.05554972437676,132.4801148165716 392.86826239991933,132.16402434918564 392.6483527109958,131.69190539914416 392.4007722665556,130.5692177019664 392.3157211021753,129.9329955674475 392.25047637324315,128.87486305716448 392.1121225954266,128.5072056519566 392.29533212434035,128.0696028646198 392.1549394488102,127.36253176326863 391.5257938487921,126.84242727980018 391.2010265599238,125.82777162431739 391.19287096883636,125.28210643585771 391.0568473599851,125.1251770015806 390.71693397325,125.14894060883671 390.60712476435583,124.93910338392016 390.522656142246,123.7688536439091 390.249152568751,123.21600935555762 390.4676059021149,122.95550398115302 390.3044940799009,122.62011967040598 390.92431900440715,121.55746813619044 391.0536433777306,120.44235105795087 390.80518911988474,119.76574529259233 390.45508124434855,119.55007396417204 390.14604259550106,118.52865884854691 389.0141630577855,117.73053486214485 388.0474342398811,117.66910609800834 387.73897813318763,117.7430896438891 384.1423624532763,118.39683407562552 383.44797212432604,118.43808537360746 378.15907128877006,118.37665680749342 377.9525600710185,118.38472771493252 377.32370574213564,118.76450841495534 374.35914837324526,118.00539474235848 373.77806250657886,118.41476942354348 373.3472725332249,118.31253792077769 373.2502792532323,117.95248536317376 372.300444160006,117.50813575123902 370.35067534213886,116.929717653431 369.7943475198699,116.80999836843694 369.47424056881573,116.59566929814173 369.2688944354886,115.82354484521784 368.9557779910974,115.6145954845706 368.9514089244185,115.29040970938513 368.74518897768576,114.84919344529044 368.2509019022109,114.73216337268241 368.05138119100593,114.82677389599849 367.9310862221755,115.34152617049403 367.3601948444266,115.45272685168311 366.9238707199693,115.01016574189998 366.7394961066311,114.49720625719056 366.8574609066127,114.10755353968125 366.7281365332892,113.83089520642534 366.3360856176587,113.5887628296623 366.00665799109265,113.59369515848812 365.8327691376908,113.74121657956857 366.0500573866302,114.21830645378213 365.751504497719,114.5662585652899 365.2633341155015,114.8393288438674 363.9756245332537,113.40626658394467 364.15854279103223,112.77223667886574 364.5456420977134,112.33998327492736 364.581468444434,112.09336528764106 364.46059093321674,111.7839714208385 364.39010332443286,110.65759470302146 364.5823422577232,110.50782921042992 364.9213818310527,110.4329464258044 365.23508081771433,109.82446680369321 365.21061404433567,109.49040763510857 365.1267279643798,109.32046324555995 364.86633159103803,109.18549412477296 364.8945848888252,108.4389026381541 365.4616897421656,108.00977953535039 365.4488738132641,107.81158446485642 364.79671779542696,107.53446979029104 364.79205745772924,107.35376213595737 365.1669233777793,106.63765614735894 365.28051911096554,106.60402556444751 365.3009080888005,106.52017328864895 365.1299319465179,106.49864970467752 365.00119011546485,106.22198178106919 365.48178744886536,105.1238264052663 365.22779903991614,104.79424419777934 365.28430563549045,104.55613756040111 365.6146070754621,104.41354250127915 365.6778129065642,104.1808164040558 365.4948946487857,103.91759795811959 365.07546424877364,103.80325253825868 365.09468814218417,103.41985863714945 364.82992270216346,103.05484908435028 364.3656365510542,102.69073575630318 364.260778950993,102.45442050206475 364.1198037333088,102.52257976657711 364.104075093288,103.1239049922442 363.64503182214685,103.18354416789953 362.8006368710194,102.86203052534256 362.4846077155089,101.95443577662809 362.52713329775725,101.70556403131923 363.2101640532492,101.35490102123003 363.2547285333276,101.11813590978272 362.7718010310782,100.70648686954519 362.79655907547567,100.31591282889713 363.09423815098125,99.97152549779275 363.17200753767975,99.70605989452451 362.94044700439554,99.45494348788634 362.5079094043467,99.1863382991869 362.3276125866687,99.33476624882314 362.17702542222105,99.58050172717776 361.9702229332179,99.49485307885334 361.7980817066273,99.12400749896187 361.42525468440726,99.05674402555451 361.5432194843888,99.49081727786688 361.1741789865773,99.7414852216607 360.9828138665762,99.72892941016471 360.85407203552313,99.84058642282616 360.3280364088714,99.9047107056249 360.0067643732764,99.45314979820978 360.18764373322483,99.14508338301675 360.7832931554876,99.12714646058157 360.6079479465261,98.85226293979213 360.5628009244101,98.56885901477654 360.31784191995393,98.37962391169276 360.0417169065913,98.30922123696655 359.896081351093,98.3957671970129 359.530244835536,98.25630710984115 359.3476178488927,98.41415260382928 358.1711738310987,98.51056385820266 357.4852303643711,98.36123850208241 356.9195818665903,98.13747448974755 355.5409956977237,96.79219505866058 355.01088227541186,96.63389997009654 355.0426308265887,97.12761883519124 355.3446789687732,97.44062077382114 355.3761362488149,97.83433891099412 355.1358375821728,98.19218234554864 355.2028299376834,98.46258244855562 354.1702738488093,98.22177839290816 353.82570012437645,97.82806095073465 352.7873186132638,98.21774256846402 352.59624476439785,98.58500228618504 352.20157240878325,98.66840916930232 351.8709796976764,98.54464410548098 351.2226102043642,98.64195215073414 350.76356693333946,98.85854087071493 351.0143513599178,99.38409273547586 351.38863473769743,99.28768186480738 351.5063082665438,99.66032085614279 351.41834439104423,99.92444125039037 350.88327935989946,100.66119645955041 350.5270547909895,100.74056677584304 350.0056795021519,99.99843077745754 349.41469041770324,100.1410287048202 348.61748138663825,100.14596133586019 348.07775601779576,99.77915265178308 347.07840483554173,99.36884636804461 345.75982051552273,98.29173267097212 345.10067399113905,97.25721424788935 345.0697992532514,96.8608045092551 345.32087495096494,96.45138962718192 345.75253873772454,96.30430501431692 346.2424567465205,96.46260034054285 346.6347989332862,96.15946244855877 346.7763566932408,95.88592050038278 346.5002316798782,95.48771456303075 346.27449656883255,94.85004544252297 346.5197468443075,94.23569299047813 346.7684923732886,94.00071393384133 346.9030596265802,93.7536269062548 346.76179313776083,93.5105755116092 346.73266602656804,93.30160490912385 347.1666599821765,92.75092605955433 346.6563529954292,92.63478107692208 346.63276003545616,92.48096735664876 346.56955420435406,92.25495516392402 346.7280056888703,91.54104210610967 347.5135638754582,91.55628901731689 348.40164949325845,90.56568602810148 348.2796068977332,89.70064245909452 348.4695156621747,89.09210536035243 348.2353336889064,88.65263020881684 348.07717347552534,87.81089830363635 349.38527203549165,87.61851479916368 349.7811094755307,87.05616204987746 350.4606449776329,86.56914726068499 350.78512099548243,86.15343488688814 351.7107805865817,84.5520155680133 352.5723605332896,80.2087066497188 352.6547902576858,78.68796764139552 352.4931347910315,76.89679175632773 349.950337991002,76.6555155699607 346.29663317324594,76.57030644448241 345.99837155546993,76.91652436950244 345.3814593421994,77.31521246908233 345.4749573688023,77.74888025468681 345.20960938662756,78.4892976267729 344.9063961599022,78.71039088227553 344.7313422221923,79.26289881486446 345.01562282652594,79.47591895307414 345.1999974399805,80.09165810595732 344.316572159878,80.90157893497963 344.02821375988424,81.27604298130609 343.89335523557384,81.96891189715825 344.6739618132124,82.79183103650576 344.7077492622193,83.16853413626086 344.58395903988276,83.51698392786784 344.35997155541554,83.64389664883493 344.399584426661,84.4421445899643 344.11122602655087,85.03320495871594 342.6286560710287,85.56058373162523 342.1533016177127,86.09962092980277 341.41755079105496,86.16061008011457 340.82423153775744,86.54851861775387 340.16566755541135,86.69516131997807 339.5481727999868,87.19562925369246 338.72008903103415,87.62927751720417 337.1612060443731,88.24947825004347 336.38467726216186,88.26965828781249 335.3101781331934,87.92794273095205 334.63413788436446,88.15934072522214 333.6449811910279,88.26920984254684 332.8206839466002,88.05350756435655 331.87434410653077,88.31136369332671 329.0318293332821,87.18307272449601 328.2917094399454,87.05257446790347 327.2742994488217,86.16778527316637 326.90030734217726,85.9910960762063 326.5038873599842,85.42784225504147 326.00231850659475,85.27985335205449 326.21436387544964,84.6506751748384 326.1240698311012,84.15244370652363 325.05976519105025,83.78650520188967 324.6138291199459,83.81834546366008 323.5081639821874,83.03310047718696 323.0730049421545,82.23933198745362 323.1618426310597,81.61328430613503 322.6742547911126,80.31005897815339 322.60842751991004,79.80150301754475 322.2379306666553,79.40461328777019 321.7544206221355,78.38884138839785 320.9872125155525,78.10227177711204 320.48593493329827,77.45737666694913 319.3625022576889,75.67112391995033 319.2276437332621,75.28319615719374 319.4740590932779,74.61631757975556 319.4367763911141,74.0718704868923 319.4813408710761,73.4583568230737 319.78571918210946,72.43089698505355 319.6039660088718,71.72857989778277 319.16676807100885,71.07200556900352 319.11812579550315,70.74506311130244 319.6269764265744,68.72330112801865 319.51338069327176,67.1881309087621 319.93718015996274,66.27635221916717 319.6907647999469,66.08574379992206 320.22116949327756,64.7873596927966 320.0321345421253,64.48507503664587 320.02689166215714,64.19131135917269 320.5316644976847,63.301945034530945 320.6537070933264,62.78213722840883 320.6292403199477,62.1376455987338 320.47457535995636,61.44516257359646 320.49700323550496,60.85986919363495 320.1780613687588,60.20819587749429 319.50988543988205,59.62783274031244 319.20725475542713,59.45740123395808 318.9005462754285,59.15107269358123 318.65616981324274,58.52181960694725 318.2361568710767,58.046851185616106 317.5807968711015,57.7194408159703 316.4818309688708,57.339105965103954 315.8538504532771,56.92333822196815 315.38082616881,56.8470916247461 315.22237468429375,57.03187744983006 314.2632189155556,57.332826846512035 313.45232014218345,57.418491949443705 313.3503752532415,57.58847653132398 312.810649884399,57.75038784445496 312.7908434488345,57.903328891901765 312.40024888888,58.058512367890216 311.8270273421658,58.06748250761302 311.557019022177,57.74276321462821 310.7091288177762,57.238191536744125 309.53676259552594,57.50146597024286 309.11587583995424,57.77864382311236 309.00810552877374,58.25675237108953 309.3145227377536,58.60972677520476 309.1921888710931,58.94520891015418 308.9215980088338,59.27665399177931 308.4744968531886,59.38878009002656 307.96855893323664,59.31926191580715 307.8884593776893,59.07841490977444 307.1037750043906,58.969428188866004 306.39365603553597,59.05240162322298 305.81606542214286,59.508979203761555 304.66845724440645,60.08934265514836 304.64602936885785,61.057658165635075 304.26242531556636,61.24288894596975 302.88092643546406,61.6106590393465 301.81807815108914,62.95256615296239 299.44305351097137,65.00577579502715 299.0242056532297,65.17216656066012 297.95990101329517,65.28294417029247 297.44901148439385,65.55473029549466 297.0182215110399,65.98931830131914 295.8607101154048,66.46830594231142 295.3169069510186,66.7669999532518 295.0224318576511,67.02443260356085 294.0125949154608,67.61509139323607 293.20286122662947,67.90750502742594 292.63604764442425,68.37348239077255 291.56737393769436,68.52865846361965 291.2294994487893,68.49277961265761 290.9131790221436,68.44703406904591 290.48384540434927,68.19991827197373 290.0530554309953,67.76219523337204 289.53692302212585,67.47336930769961 289.25439004437067,67.54557582479902 288.70942179544363,67.19934311695397 288.15513287100475,66.96298964647576 287.7662859376287,66.4046203798498 287.13044110219926,66.36111685121432 286.41595306654926,66.04403417080175 285.7399128177203,65.7830124408938 285.65544419549406,65.11655348865315 284.900178204407,65.17754847015021 284.35812266659923,65.47579574596602 283.80762026668526,65.98707584734075 283.4921736532124,65.97945150372107 282.6809836088214,65.36681220191531 282.64894378662575,65.04344918695278 282.29592319985386,64.63666591036599 281.63095125334803,64.64294481999241 280.9531633777078,64.7389224168146 280.57159822213,64.9210106395185 280.18246001773514,65.01340017246548 279.1423308799276,65.72112064500106 278.7695038577076,65.90903843520209 278.36143303103745,66.0023245337652 277.87675790209323,66.08439832821023 277.29945855995174,65.7830124408938 276.7725491198944,65.9260810908163 276.58409671101253,66.24854582484113 276.8497359644389,66.84997043968178 276.817987413262,67.56530927872518 276.9694483911153,67.98599021567497 277.42208369774744,68.11201494489796 277.4570362310624,68.32325196225429 277.25110755546484,68.61207676946651 276.89342663099524,68.91525271104183 276.7137123554712,69.41934905946255 276.4483643732965,69.54671841621166 275.51862698653713,69.45881562854629 274.9876397510525,69.65883926767856 274.7974397154758,69.42921570234466 274.8947242666036,69.06818597821984 274.6488914487418,68.94799209974008 274.23324757325463,69.17671919992426 273.90906282665674,70.32304201705847 273.6955611021258,70.67599701537983 273.44099015102256,70.71501487737987 273.2898204444209,70.53741627687123 273.1374856532784,69.62161515135085 272.9102941866731,69.50097309233388 272.5039709865814,69.73642686347011 272.25988579553086,70.06606171850581 271.5605438577477,70.44413210591301 271.48102684435435,71.00024869269691 271.5352032710798,71.33660884766141 271.44345287105534,71.77118540450465 270.2206967466045,72.52552574395668 269.1697905777255,72.32236537255812 268.6545319821453,73.2238039970398 267.861400746624,74.21807305136463 267.33012224000413,73.7346175739658 266.62728504883125,73.6238442301983 265.6713332621148,74.56025842751842 265.49890076438896,75.07420819962863 265.07772273779847,75.40204115159577 264.9833508976735,76.1267699887976 265.50297855993267,76.24157829792239 266.76126975996885,77.2048894003965 267.1687580443686,78.14128831890412 267.42012501321733,78.3547580112936 267.7460573866265,79.84814311942318 268.3722902755253,81.29667211975902 268.5616164976964,81.7877347349422 268.9976493510185,83.23445711220847 270.2096284443978,84.62870099348947 268.93327843549196,85.04486470716074 267.36449223104864,85.307657335361 266.36601486208383,85.35698697454063 264.0402150398586,84.89104566787137 261.6701420088066,84.34796942200046 258.9552039821865,83.43088055588305 256.80474936880637,83.02323444577632 256.0422015999211,82.95820831862511 253.30978730658535,82.21825447992887 251.9812997689005,81.52269559685374 250.14046634652186,81.12849973875564 249.3662677332759,80.91323890292551 248.25885496882256,80.96032722888049 247.15493745764252,81.67113549192436 245.26225777773652,82.69989744375926 243.7782314666547,84.66502565948758 242.01079836441204,88.22481375688221 241.50544298661407,89.01093705673702 240.87833628442604,88.72617509146221 237.8150380088482,89.16206254810095 236.8017058132682,89.37103709182702 236.19615317322314,89.57732078101253 235.59234815987293,89.85131903365254 234.55280156445224,90.94641174393473 233.27936426666565,92.15226303925738 231.63543011550792,93.20070701476652 230.5067545599304,93.29173933935817 230.2597566577606,93.25451923091896 229.54381226666737,92.87245221115882 229.12642076436896,92.8442007501144 228.21852871100418,93.06662485236302 227.39481400873046,93.58142815995961 226.7068316444056,94.09802399354521 226.67974343104288,94.68143501371378 226.52566101320554,95.43928406189661 226.28681870212313,96.11596481734887 226.16856263100635,96.70250947010936 225.71039317327086,97.61730075406376 224.77453909325413,99.29709874244872 224.41248910222203,100.27824549085926 223.78479985776357,101.51498637790792 223.61731896875426,102.1199016997125 223.59809507546015,102.23066066263709 223.5328503466444,102.37370555626694 223.35488369769882,102.74992663395824 222.5128189154202,103.71805395151023 221.9722197332885,104.17991957848426 221.4913311288692,104.81262906861957 219.99856668431312,105.8592189347255 219.24970865773503,105.92199623165652 218.55357070220634,106.60761282686144 218.06540031998884,107.37035316752736 215.6720255999826,108.43621221376816 214.78685269330163,108.60436367313378 213.78604515548795,108.57611423695926 213.07039203552995,108.69314759166446 212.34774840890896,108.56580094981473 210.63565681769978,108.1070833846461 208.29849742213264,108.14699140237644 208.29500216885936,109.35633542318828 207.92101006221492,110.2325115413405 206.94932963547762,111.93732321809512 206.07522503100336,113.31972654216224 205.2308300799923,116.35533352260245 203.70253055996727,117.84038917860016 202.0795679287985,120.28945358231431 202.1794739200268,120.70465293084271 202.52812543988694,120.76383895124309 202.3813247999642,121.35480152105447 202.55754382221494,121.676288077957 202.34258574212436,121.98432287276955 202.43783139553852,123.22094146808377 202.29044821322896,123.1465113942977 202.13024910213426,123.54108017223189 201.28876686212607,124.36967229744187 201.12041215994395,125.29555752500892 200.8908905243734,125.85960578813683 200.4035939554451,126.6572518516914 199.88775281771086,127.59613001375692 199.16831317322794,129.62542028730968 199.17909020441584,130.7458710189676 198.86189596436452,132.05372884485405 198.48266097763553,132.88049542193767 197.7431236265693,133.71981275320286 197.47748437325936,133.75433588668238 197.01844110211823,134.1044987909263 196.32201187545434,134.99537167686503 197.04494677321054,136.49240659747738 197.45767793769483,137.48011227755342 197.17951402661856,137.94863202888519 197.36214101326186,137.99839818291366 197.3711704176385,138.18311570119113 197.07407388440333,138.97488854516996 196.681731697754,139.56311204808298 196.0001572977053,140.20109962957213 194.99964103102684,140.67633864685195 194.34369848878123,141.84918827190995 192.64529663987923,143.59813931921963 190.52309532440268,145.54837591387331 189.98628266656306,146.16034313605633 189.80656839103904,146.25628509535454 189.27412479999475,146.86511206516298 190.48377372440882,148.08051932405215 190.90116522659082,148.88705107965507 190.74883043544833,149.3506149611203 190.01191452436615,149.06324133562157 189.62947555549908,149.41562142327894 189.0783906133147,150.19838738068938 188.39535985770635,150.83948227704968 188.19816931546666,151.2160686160205 187.80204060440883,151.45412464707624 187.50436152878683,152.31892489257734 187.2276539732702,152.52335617912468 186.71064775099512,152.8510734802112 188.28729827550706,153.86201774945948 189.12266382214148,154.4425800924655 189.52287032885943,154.67973600549158 189.76666424889117,154.785985357943 190.60843775991816,155.150012285274 190.75407331553288,156.01883273385465 190.5359112531878,157.2032563101966 189.45791687106248,156.75853783619823 188.78362424881198,156.2237088814145 188.15710008877795,155.82695730624255 187.50203135993797,155.09800847549923 187.1160971376812,154.62011081899982 186.52510805323254,153.74097366991919 186.10742527991533,153.1500982788275 185.9649937065551,153.19537786056753 186.38267647998873,154.1435570542817 187.0409491910832,155.72832968481816 186.38034631102346,155.86685664963443 185.88023381331004,156.0560422015842 185.00845937768463,156.50076209858526 182.9322788977297,153.81539337115828 182.76421546656638,154.00816717895214 182.20089713775087,154.8980626782286 181.20154595549684,155.48445028497372 180.79959182220045,155.59114755573682 180.3251111821737,156.06724987132475 180.0411218488589,156.35326940997038 179.77810403553303,156.5908715648111 178.14727708441205,157.35657638171688 177.29734798206482,157.52872510638554 177.4077397333458,157.89678221323993 177.79280014219694,159.8567543681711 178.0488274487434,161.03263960283948 178.18455978657585,161.80191528849537 178.27368874661624,162.55908435385209 178.40942108433228,163.4077023519203 181.99496846215334,163.13738223630935 182.27021966222674,164.02993047429482 182.29963804443832,164.36166520783445 182.13798257766757,164.92785454797558 182.03895039996132,165.59221737488406 182.0307948088739,165.810084908735 181.97195804445073,167.04197381041013 181.92389831098262,167.96812736289576 182.0010851555271,168.95076035504462 183.4688002843177,169.0341405068175 183.44462478219066,170.24628709466197 183.55618161766324,170.87118549481966 179.96451754658483,169.65949063620064 177.83008284436073,168.5544800607022 176.80976014223415,168.15506107645342 175.22262385778595,167.6637433494907 173.3590712888399,167.12132012937218 172.6102132621454,166.9047987507074 170.65258012432605,166.03691795503255 169.56905159098096,165.44114449294284 168.95243064884562,164.88437054108363 168.85019448888488,165.01661568973213 167.99181852443144,166.274957915477 169.02874367998447,166.9469375036424 170.0286774043925,167.4521536246757 171.3402712176321,168.0600252515287 171.96009614213835,168.29940786398947 172.50302549323533,168.42492673243396 171.98660181323066,169.21883191319648 171.51241244433913,170.47087417065632 171.28522097773384,171.36025466618594 173.9625850310549,172.73242184129776 174.3642478932161,172.84180036501493 174.64678087108769,172.83283491432667 177.71939982217737,174.4999541786965 177.80153827543836,174.54657416441478 178.81865699542686,175.0333938082331 179.56256341328844,175.30100967199542 180.6149259377271,175.60807269840734 180.6187124621356,176.47770872002002 179.55790307547431,176.06575270410394 177.97921365324873,175.44983443332603 177.11850751994643,175.06342776567908 174.61619740445167,173.83068733132677 174.4918246398447,174.0498914999771 171.3772626487771,172.58897451451048 169.4953599999426,171.80090909113642 168.96437276434153,171.56825442356057 166.43147918221075,170.63718501094263 166.37526385777164,171.5628751219483 166.2430267733289,172.29714856983628 164.2766555021517,171.68525420047808 162.43465699546505,171.25446161057334 160.34944711101707,170.79363363794982 157.4259589688154,170.26556304027326 157.255274097668,170.23283875943162 156.64943018660415,171.44856493209954 156.37010119110346,172.09318396949675 156.241359359934,172.38680327916518 155.82833692443091,172.89021379256155 155.10860600881279,172.88393797847675 152.85620650660712,172.79249038157286 151.7720954309916,172.55894021864515 151.45519246219192,173.6455515336711 151.3471308798762,174.0126850818051 151.146153813228,174.4443687981693 151.0747923910385,174.59633202280384 150.8181825421052,175.1481503995019 150.55399964435492,175.71207058953587 149.59892167104408,174.97780856280588 149.11337272881065,174.45333418308292 147.2186541510746,172.1469768495299 144.64731278223917,168.9521051964257 143.92088263109326,168.12233648105757 143.32348558213562,167.48936115467222 142.7869641954312,166.9621791781974 142.47443029319402,166.60399954515742 141.94315178657416,165.88046593824401 141.68450303992722,165.49942187813576 141.0090453332523,164.70012377749663 140.68398677324876,164.31997424864676 140.42271658661775,164.0124471433228 139.73735566216055,163.21538508991944 139.55356359109282,162.9656862022821 138.7557720177574,162.13589486060664 138.08759608876426,161.24064914503833 137.63903857779223,160.81611221912317 137.22659868432675,160.43326617754065 136.09821440000087,159.36362486955477 136.02627043542452,159.26544713717885 135.89752860437147,159.09509297675686 135.50023480888922,158.56699423945975 134.47408668440767,157.56727922928985 133.55308743100613,156.85850991035113 132.74131484434474,156.2873683894286 132.19022990216035,155.8309920716565 131.4206916266121,155.21905180683825 131.14281898655463,155.05048774194438 130.4935756799532,154.72770512884017 130.41959281766322,154.66718333598692 129.57519786665216,153.96423269808292 129.49568085325882,154.02654792845715 127.04638207994867,155.9717605066253 126.97123413323425,156.0340751671465 126.23140551103279,154.60576490696985 126.06246826658025,154.22021817183122 125.61128931550775,153.31373236654326 125.0619519999018,152.31892489257734 124.81524536875077,151.87419652409153 123.7692908088211,149.98902241815813 122.45653191104066,147.3811341911205 121.58184476429597,146.04377808235586 121.0907616710756,145.24082251189975 119.67256263107993,145.89896833337843 118.40786346653476,146.2773564545787 116.48256142216269,146.74809905991424 115.0972760176519,147.4573493457865 114.39735153771471,147.7294820646639 112.50583694223315,148.97133549454156 109.65778801764827,147.0188876822358 108.69047665770631,146.15316990378778 106.77711672883015,144.31995304388693 106.09408597322181,143.88731342548272 104.64530346659012,143.05251830129419 103.48138410656247,142.0823227718938 103.14234453334939,141.38874690700322 103.13244131556712,140.3826769227162 103.62090296880342,138.91839748556959 102.93961983988993,138.73995737638324 103.03370040887967,137.89348573685857 103.52827875548974,136.51034046697896 104.16499740432482,135.73918275622418 105.99592760880478,135.61319684959017 107.5577233065851,135.4760021500988 108.88096796441823,135.5589466681704 109.78303459554445,135.44730782299303 111.09812366217375,134.70439245540183 111.8603801599238,134.5124983972637 111.15696042659692,133.77496009378228 109.40409087995067,132.5455746295629 109.54652245319448,132.48953027033713 110.04284842661582,132.54288450063905 110.61519615992438,132.25235038378742 110.71714104886632,131.9299826034112 109.9379908265546,131.06689546472626 109.69099292438477,130.9476322478149 109.15097628440708,130.13834442128427 109.40146943985019,129.85094564419705 108.969223111053,129.78996863216162 108.81018908438273,129.62497192656156 109.30593251553364,128.77891350106802 109.27971811546013,128.25791564641986 109.1407817954896,127.77413081703708 108.95757226657588,126.68505059415475 108.6045516799204,126.85139460896607 108.3359997154912,126.76530823425855 108.17550933326129,126.93075545574538 107.96754175995011,126.84825604379876 107.85598492436111,126.47745667386334 107.71530097769573,126.21964537637541 107.5347128888825,125.46773139329161 107.59500600886531,125.2682069761795 107.74209791992325,125.00501381594222 107.96987192879897,124.80459223687649 107.84491662215441,124.68801584281027 108.04268970666453,124.439169871388 108.16269340435974,124.13831247331109 108.02492216881365,123.95537662575953 107.61131719104014,124.03249665856129 107.426942577702,123.93116451695096 107.63694904884323,123.7971011249465 107.94831786653958,123.77513086225372 107.25887914665509,122.86313883442199 106.9501317688264,123.28864591085585 106.91517923551146,123.19448740861844 106.90381966216955,122.87703844637144 106.78235960879829,122.84699734847527 106.65420031989925,123.00258328852942 106.52371086215135,122.98375156678958 106.57264440890867,122.60487491684034 106.92129592888523,122.74925165821332 107.30985159100965,121.87312550033676 107.1362540088594,121.64535006158985 106.98654065770097,121.68749750312418 107.13712782214861,121.13509635085938 107.01595903991256,121.0691847569542 106.7972144355299,121.05483665224165 106.93818965333048,120.7432135216659 106.55545941321179,120.45356054615695 106.54613873769995,120.09575340157608 106.34632675547618,119.86080202704761 106.1304948622128,119.90339819178917 106.1307861332316,119.6451307919342 105.90068195550703,119.58953152026515 106.01136497769039,119.3151220055297 106.04573496885132,118.92099401401356 106.58109127101488,119.00484155269805 105.82495146652218,117.84846010577166 103.88595967995934,116.17732345953118 102.44358513772022,115.19759294699179 101.51967317331582,114.36089514347259 101.41627192881424,113.84075985319214 101.76783615991008,113.09283901675371 102.20416028436739,112.36195468227379 101.32976440887433,111.12706850410905 101.057134648785,110.84188683057437 101.09499989321921,110.71229943830986 101.25782044441439,110.04597689822549 101.52258588431869,110.058980520349 101.57792739546858,110.24103114864556 101.80133233766537,110.23878914676607 102.14211953768972,109.75272259558551 102.51844181329943,108.95187628082931 102.75174997327849,108.3164882962592 102.66495118208695,107.76001784479013 102.44154623989016,107.44075293600326 102.36377685319167,106.88338344992371 102.22542307549156,106.58788288285723 102.31513457768597,106.2704099030816 102.40047701331787,105.83231437345967 102.8038875021739,105.36417447862914 102.85398613323923,105.30812317912932 103.22390044433996,104.54403043631464 103.74527573329397,104.24314576829784 103.93722339556552,104.02342347009107 103.89761052432004,103.50281526905019 104.01965311996173,102.93870955391321 103.59672746655997,102.75216871238081 103.40186709328555,102.83108985697618 103.27865941321943,102.46294041135116 103.28390229330398,102.08851250982843 103.58769806218334,102.12483428628184 103.71090574213304,101.84322825685376 103.59876636439003,101.56476079282584 103.33516600879375,101.31409493123647 103.39982819545548,100.9625344570959 103.88595967995934,99.83834431465948 103.74731463112403,99.73072309757117 103.53847324440721,99.26301861199317 103.6648849066114,99.09799895831384 103.44963555550203,98.85585032892413 103.6977985422127,98.62356676300988 103.82770545769017,98.28276417497545 103.55245425773319,97.36393982439768 103.80352995556314,97.08008555037668 103.75750911992509,96.89488501264714 103.5268223999301,96.47067205386702 103.6645936354762,96.14331899880199 103.20147256879136,95.49668317317264 103.15253902215045,95.29892523447052 103.12166428437922,94.93704119813628 103.52594858664088,94.57560499763349 103.63197127101012,94.13883142505074 103.65090389328543,93.75766281271353 104.30975914665032,93.81685609946726 104.52442595548928,93.57156260270858 104.38694599107839,93.24734426953364 104.43675335100852,92.61056551290676 104.52792120876256,92.43477837590035 104.48248291551135,92.29621137521463 104.16499740432482,92.158989599091 103.7353725155117,92.05988492968027 103.60517432889901,91.69575336156413 103.72197404433973,91.06166074093198 104.05635327997152,90.7212948516244 104.17053155554458,90.91636627563275 104.34238151099999,91.08991243125638 104.62520575989038,90.98587444232544 104.86987349321134,90.7369902599603 105.06764657772146,90.10648240149021 105.04550997330807,89.7903309087269 105.44426012434997,87.97861711878795 105.17279544880148,87.9889313732856 104.76821987552103,87.96830286382465 104.5995739022037,87.33644171030028 104.5252997687785,87.11087266774848 104.3988881065743,86.80951565271243 104.08431530662347,86.90010217990493 103.80877283553127,86.59022435045335 103.52915256877895,85.88750412035733 103.91392170661129,85.53412513289368 103.83906503103208,85.19599292939529 104.18509511102457,84.67892769054743 104.23985407990403,84.28384059423115 104.57510712882504,83.96498998993775 104.79792952886783,83.74793811811833 104.82647409767378,83.71744320972357 106.22195399098564,82.36803927650908 106.75818410667125,81.70521835400723 106.6859488710761,81.4047508352669 106.30700515548233,81.53435553179588 106.24991601763759,81.24151159299072 106.81381688883994,80.67914250446483 106.96673422213644,80.87332593312021 108.39425393776037,82.75371223443653 109.1888415288413,82.46176683681551 110.18557127111126,81.79266777844168 110.97870250651613,80.93969805876259 111.37453994655516,80.3414512827294 112.57690709328745,78.71039088227553 112.84953685326036,77.52016208774876 113.22527658659965,76.13618786021834 113.96131868439261,74.33960946486332 114.32132977771107,73.26013055047952 114.40288568881806,73.10720020427834 115.77681151987053,71.82141504401807 116.07186915550847,71.80123349383939 117.07821084442548,72.20441566663794 117.42453219543677,72.4865082037868 118.0108609420713,72.63943898247089 119.33527068432886,73.6529951156117 119.8583935998613,74.25170859694481 120.29996060440317,74.63066872046329 120.71793464885559,75.31324376561679 120.8935711288359,75.70431077183457 121.07503303105477,76.36042277334491 121.0948394666193,76.99321246286854 121.66806101321708,77.35467761842301 121.82709503988735,77.4389895045897 123.55666289769579,77.93723621300887 125.04767971544061,78.16326314985054 126.36626403545961,78.23367228696588 126.96366108441725,78.27448266814463 128.40603562653996,78.4009499552194 130.1323995020939,78.90995762555394 132.05245866661426,79.80912688100943 132.12615025765263,80.19525279721711 132.4185864533065,80.1015242690919 132.7174306132365,80.0867250241572 133.25948615104426,80.22036665445194 133.98300359107088,80.47285045206081 134.50000981334597,80.5289080941584 135.37586204439867,80.53473808814306 136.32511459547095,80.31005897815339 137.15989759995136,80.28270282328594 140.21154503105208,80.65896176878596 141.71974684437737,80.84731522982474 142.98473727994133,81.04688003001502 145.34665471990593,81.33748193149222 146.01017031108495,82.65460331807844 146.6681517510442,84.03360345016699 148.0120766577311,83.85018572083209 149.70902215107344,83.60398417559918 149.96213674661703,83.88695896975696 150.78556017775554,83.8125155569287 151.5140292266151,83.75331957201706 152.5914410665864,83.81700010056375 153.11864177777898,83.7187885735184 153.746331022121,84.03046427271329 154.44363406219054,84.1497529844055 154.93529969779775,84.09907771251164 155.75435406214092,83.99234568583779 157.06623914663214,83.83628363732714 158.9833855999168,83.84345890628174 159.08300031989347,83.84794344933471 158.946102897753,83.35643698833883 159.96875576884486,83.02861591754481 160.6407182221301,83.2537407000782 161.0327691376442,83.54658195417142 161.7813358932035,84.40761369973188 162.44980309333187,85.37492502236273 164.235586275463,85.31797171535436 165.12483697768766,85.7233713112073 165.2675598221831,85.76328339905012 165.87223864882253,85.87494751636405 168.534165333258,85.28030180343194 169.1202028087573,85.53547048545443 169.27399395557586,85.59556289110333 170.7993807643652,86.66870285803452 171.66882503102534,86.62879093480296 173.83792099554557,86.33640224230476 174.062782293302,86.20366123487474 174.18802887108177,85.81530363747152 174.29288647102658,85.56148063321598 175.94934527995065,84.23899524885928 176.74189397331793,83.65869565401226 178.07271167985164,82.74922766909003 179.4609097954817,81.47874660568777 180.30006186664104,80.11049350793473 180.4069583642995,79.92483018850908 180.73958997323643,78.74851038656197 182.4962460444076,79.63153563917149 183.4283135998994,80.22664511832409 185.7887746844208,82.44427700794768 187.4216405332554,83.85780944366707 188.2887546310667,84.81974176177755 188.30331818654668,85.96329217939638 188.16438186657615,87.45617707213387 188.66362055111676,88.07368762016995 189.72180849779397,88.19701014307793 191.1318519465858,88.67146487621358 193.3108511287719,89.05533298337832 194.91750257776584,89.25264810438966 195.84287089772988,89.45893190486822 198.08099811547436,89.92531195643824 199.87726705765817,91.6849908430595 201.04497294221073,92.19486458157189 203.7555419021519,92.639265440288 204.42925198213197,91.32982743345201 204.2029343288159,90.14684213371947 203.9273918577237,87.92256137932418 204.39429944881704,85.73996397783048 202.6160893155029,85.12737983249826 201.55265848885756,83.97709824913181 199.85483918210957,82.02362378314137 201.85674552887212,80.08044655621052 202.51996984879952,79.4274849188514 202.95250744884834,78.97722727339715 203.3832974222023,76.99993948731571 203.58922609768342,75.95769670553273 203.6113627020968,75.64017941837665 203.6404898132896,75.25808173499536 203.56097279989626,74.46204275812488 203.4543675732566,73.68169752205722 203.506505102152,72.89641626807861 203.49631061323453,72.26361476653256 203.32213048881385,71.36082675890066 203.26708024879918,70.79170513781719 202.9589154132409,69.87725052190945 203.22164195554797,68.893725439033 202.9551288888324,67.61150349356467 203.51990357332397,66.54140976932831 203.64281998213846,65.8960321971681 202.85609671112616,64.30388344085077 202.42880199104548,63.80426029523369 202.10432597331237,62.37714375311043 201.64091363549232,61.23795544053428 200.9287557688076,60.61992088181432 200.04067015112378,60.37503878271673 199.1927799466066,59.63052376307314 197.82001919997856,59.16901288344525 197.06620956445113,58.671620576642454 195.08236202655826,58.46396231884137 194.23214165330864,58.47921152802883 194.27787121769506,58.22445989405969 194.2268987732241,56.68428262567613 194.54030648886692,56.42549231520388 195.12255743995775,56.188230219937395 195.49975352885667,56.1559374385979 196.4388115911279,55.70608055940829 196.85037767107133,55.44549504603492 197.15242581325583,55.598437699780334 197.5237964799162,55.45491380488966 198.02740423101932,55.3553440477117 198.35683185770176,55.20195271167904 199.19074104877654,55.06784733303357 199.8402756266296,54.07169745664578 200.99429176875856,53.18991491000634 201.16818062216043,52.98583960416727 201.35517667548265,52.91990754182916 202.35714929772075,53.294419333862606 202.86687374208122,52.94950969470665 203.27377948432695,52.54584362881724 203.31135345774237,51.84346290421672 204.30225777777378,51.436655160214286 204.8993635554798,50.729337144002784 205.2378205866553,50.562486905488186 205.54482033767272,50.621243321103975 206.0134755554609,50.46695163124241 206.39241927105468,50.71498444030294 206.69796266662888,51.078735485090874 207.20797838224098,51.13749176252168 207.53012423112523,51.076044357556384 208.31335224874783,51.08008104888722 208.69724757329095,51.09533077117521 209.83699143107515,51.432618475402705 210.8412942221621,51.062588719127234 211.26101589319296,50.98050930676982 211.45791516429745,50.44452550448477 211.65364935109392,50.28933664452052 211.9583189332625,50.32701256277505 213.07476110220887,50.46874572127126 213.3934116977034,50.42389346577693 213.9631379910279,50.08211897831643 214.5774287644308,49.56676510296529 214.20023267553188,48.44769399147481 213.9846920532873,47.85608655703254 213.8477946310304,47.572616773832124 212.95126215100754,46.053445731289685 213.06951822212432,45.99289396597305 213.38671246217564,45.86954772588797 213.49477404437494,45.927408334449865 213.71206229331437,45.837253426085226 214.063917795429,46.05793104652548 213.93109816883225,45.485155543661676 214.0749860976357,45.377956203592476 213.74031559098512,44.54278633010108 213.55943623103667,44.18620101734996 213.84662954660598,43.89420431095641 214.29576959996484,43.777136397897266 214.43354083551094,43.03211652988102 214.33742136880755,42.56698243401479 214.24130190222058,41.89821027521975 213.95381731551606,41.74750077491626 213.85944547550753,40.58712386462139 214.09916159999557,40.58757240732666 214.29635214211885,40.63511792884674 214.5439325866755,39.90354371734429 214.93773112876806,38.517538064392284 214.6860728887841,38.065402287757024 214.6374306132784,37.664400135108735 214.8005424354924,37.4087272391771 214.8267568354495,36.98709058458917 214.73151118215173,36.51431830850197 214.79238684440497,36.1173502880265 215.18705919990316,35.3732015217538 215.1841464889003,34.7384975963505 215.05540465773083,33.59512879035901 215.20890453318134,32.99316447525052 215.28346993774176,30.45655304036336 214.70587932434864,29.637923286296427 214.32984831987415,29.379998210526537 213.65613823989406,28.611155403545126 212.8717451377306,28.24108716432238 212.17910243547522,27.75439040886704 211.36441713769455,27.063144590239972 210.02369621326216,26.407333760522306 209.65145173331257,26.730305139150005 208.83880533324555,26.897173498524353 208.47442517324816,27.278009682078846 208.21956295100972,27.351575134904124 208.01305173325818,26.712362297228537 207.507405084325,26.666159472544678 207.06467299547512,26.88775351381628 206.6694180977065,27.382526446133852 206.31814513762947,27.555674280389212 206.19697635550983,27.76964175212197 205.99949454213493,27.959834885201417 205.5072463643737,28.32945503090741 204.97917183989193,28.895098247448914 204.39633834653068,29.445488780271262 203.5027185776271,29.904819349874742 203.29941134213004,29.2772766611306 202.77483207103796,29.057927864254452 202.58754474658053,29.290285069611855 201.38051726215053,29.29387359600514 200.98555363551714,29.78415545541793 200.74321607104503,29.580955513054505 200.55447239102796,29.579161252244376 200.14203249767888,29.56929281743942 200.07096234662458,29.693545349873602 199.4310397154186,29.66663144994527 198.9463645865908,29.394800875219516 198.72033820440993,29.177246459934395 198.41100828442723,28.979877319186926 198.03934634651523,28.974494521971792 197.41806506656576,29.55493872979423 197.32369322655722,29.8043408698868 196.837853013305,29.684574050246738 196.6295941687422,29.265165383636486 196.65406094212085,28.731371375906747 196.47230776888318,27.257824035244994 196.34356593771372,26.92543345002923 195.66985585773364,26.179907796205953 195.19450140430126,26.095576214953326 194.88342385774013,26.24270788882859 194.2196169954259,26.20143925852608 194.23738453327678,26.43424806027906 193.82028430223,26.478656647494063 193.54707199998666,26.5006366520538 193.30531697766855,26.3360108503839 192.74316373327747,26.36651373305358 192.63073308439925,26.2570621931809 192.26489656884223,25.88115853816271 192.02022883552127,25.44110821466893 191.51050439104438,25.04367158806417 191.31331384880468,24.296345237176865 191.0794231465552,23.97067881625844 190.7805789866252,24.030788081872743 190.38823679985944,24.22950740228407 190.14240398211405,24.31383970065508 189.43927551992238,23.892626461805776 189.3169416532619,23.768370644771494 189.20072447997518,23.443152017949615 188.87886990210973,23.722167200234253 187.32959886221215,22.41321509022964 186.03460750216618,21.24555862363195 187.05638655996881,19.967544097453356 187.2684319288237,19.686281214060728 186.43597909330856,19.58490088378312 186.13713493326213,19.342215920623858 185.90644821326714,18.599356028833427 185.044576995424,17.026602089987136 184.27416490658652,15.574508653138764 183.92493084433954,14.741019726265222 183.64268913771957,14.332797406765167 182.8125664710533,13.655415838467889 182.47323562658858,13.833957673283294 182.1793430754915,14.266853730077855 181.9416658488335,14.493843445496168 181.50388536881655,14.61900170595618 180.67318015987985,14.13855509145651 180.2837506843498,14.158293348446023 179.77985166222788,14.208536176360212 180.34491761773825,13.743340981309302 180.48793173325248,13.369210282573476 180.3990940443473,12.905807705246843 180.01053838210646,12.15036520047579 179.80053191108163,12.106850915239193 179.45421055995394,12.207337499014102 179.14546318212524,12.62453577015549 178.85477461328264,12.831788809911814 178.6258355198661,13.00046213506721 178.02319559105672,12.781545666744933 177.39492380432785,12.118963139830157 176.63645383098628,11.792381442617625 176.26187918218784,12.096084492804948 175.97177315549925,11.974962204112671 175.68079331552144,11.287255497591104 175.38690076430794,11.111851811292581 175.21912860439625,10.45689051586669 174.7222200888209,10.24066313833464 174.28822613321245,10.237074300413951 173.62441927101463,9.531866506498773 173.06022712879349,9.174775690538809 172.83653091546148,8.927144532208331 172.24670691543724,8.465527007356286 171.58668657776434,8.07523738022428 171.39852543990128,8.016918180976063 171.24852081772406,7.942000417620875 170.76734094216954,7.770182935579214 170.0846014576964,7.341311557800509 169.27399395557586,7.261458844761364 168.5312526221387,7.007096356945112 168.34687800880056,6.938010198296979 168.28279836440925,7.208971371350344 167.56539761763997,7.080668605980463 165.43445816880558,6.690376515616663 163.73226979549509,6.375002055079676 163.6845013332786,5.295637384289876 163.14710613328498,5.022879386902787 162.63243007997517,5.0076264624949545 162.07930623996072,5 162.3988306488609,5.672473533428274 162.46873571549077,6.135891386773437 162.25203000882175,6.402816037181765 161.93920483544935,6.551306752488017 161.60773831105325,6.597513812594116 161.44695665768813,6.843353153322823 161.11170360876713,6.750490515027195 160.98441813327372,6.556241487618536 160.6963510044152,6.4992677217232995 160.3206112710759,7.852278511621989 158.33210339548532,8.235839402885176 156.5885545243509,8.803777455934323 156.5058335288195,8.632409256650135 155.96319544885773,8.98636070417706 155.5265800532652,9.076082146493718 154.58140529773664,9.65657899127109 154.44072135107126,9.276160830515437 153.8689561599167,8.834731383365579 153.1792261687806,9.016865998622961 152.6464913066011,9.260459595127031 152.3333748622099,9.511230620904826 151.8836522665806,8.596072003536392 151.15227050660178,8.753533390467055 151.09197738661896,8.890807327930816 150.04573155543767,9.656130385352299 149.7666938310722,9.68170092208311 149.48882119101472,9.80282447655918 149.11249891552143,10.293149886419997 149.1899770309683,11.015402154182084 148.93424099544063,11.510210876003839 148.54801550216507,11.631333421217278 148.4373324799817,11.354545877082273 148.22819982212968,11.321797895012423 147.99722183099948,12.279562202747911 147.8711014399305,12.281356605060864 147.7260484265862,12.8613963710377 147.2900155732641,13.306406505522318 146.61747057770845,13.341845781891607 146.1907584000146,13.819153958931565 145.89540949324146,13.801210061181337 145.2633511821041,13.529808430408593 144.83226993773133,13.663042000203859 144.29691363545135,13.118892264552414 144.13409308437258,13.120686659996863 143.68524430214893,13.389845805242658 143.60456220444757,14.587151402665768 142.4100593776675,14.549917943775654 141.77800106664654,15.192754968185909 140.1189208177384,15.415706378407776 139.95435263996478,15.066699845250696 140.42970709328074,14.785430680029094 140.6886471110629,14.47679679520661 140.6740835554665,14.086517859948799 140.24329358211253,13.780574577103835 140.15824241773225,13.556724309572019 139.7728907377459,13.415864505222999 139.57249621325172,13.561658887076192 139.45511395542417,13.199191444786265 138.927330702194,13.043527644011192 138.39110058662482,13.977957389026415 137.14183879108168,13.00988271587994 136.42036024888512,12.892798325396143 135.2951799465809,12.295263222185895 135.26838300435338,12.016233509988524 135.7271350043593,11.52591195050627 135.52790556440596,10.340701972250827 134.85477802657988,9.320572890341282 134.49534947541542,8.883629607735202 134.31796536885668,8.307168196362909 133.90843818662688,7.316637969808653 133.1569587199483,7.3462462751194835 132.58519352879375,7.878297868184745 132.3856728177052,8.123238555737771 132.2557659021113,8.690728292393032 131.6636117332382,9.587942272773944 131.0373788443394,9.089091752539389 130.95960945775732,9.024940928909928 130.672416142188,8.84056328231236 130.39833002653904,8.619399623479694 130.27308344875928,8.45476040628273 129.62995683553163,7.887718668906018 128.1468043376226,8.336327759374399 125.71439928887412,8.428741118055768 125.78605198208243,8.768337446614169 126.22121102211531,10.814427848847117 125.99489336879924,10.658313752501272 125.15865400875919,10.73771662573563 125.16884849767666,11.174656216346193 124.115903431084,11.280077855917625 123.31141262222081,12.239636748388875 122.82440732431132,12.321730652300175 122.42420081770979,12.79769524972653 122.03914040874224,12.890555328805931 121.35756600880995,13.471490680822171 121.50465791998431,13.990069510298781 121.34300245321356,14.314404954726342 120.3646227910649,15.976896953536198 120.33141788444482,16.003363939584233 119.9626686576521,16.20209052984137 119.43168142216746,16.020859064301476 118.7815643021604,16.24425822554622 118.64903594658244,17.12125474214554 118.04901745775715,17.622778540593572 116.8559709865367,18.28803597856313 116.7065489066299,19.37137401732616 116.26439935993403,19.716336435754783 115.56214471103158,20.016439841070678 115.0040692621842,21.103806589671876 115.52107548434287,21.413776899455115 115.65680782217532,22.73260371387005 115.47680227551609,23.008928327821195 115.5962234310573,24.508073009201325 115.15553023992106,25.04277443914907 115.32475875550881,26.263342201011255 115.44272355549037,27.658845204743557 115.47505464882124,28.860558616172057 115.45553948439192,30.336338012944907 115.39145983988419,31.818835894518998 114.99474858655594,32.52397206815658 115.10251889773645,33.96159955073381 115.12057770660613,34.06656168756308 114.99999146652408,34.15268442907836 113.3613001954509,35.01346143038245 113.33362943993416,35.231458613532595 113.26372437330429,35.519878422201145 112.83439075550996,35.88096334040165 112.48690431995783,36.289145575952716 111.99552995548584,36.21020049951039 111.532408888801,37.06289553223178 110.97724615095649,37.2894131190842 110.53101880883332,37.22257924149744 110.20042609772645,37.58321280917153 110.32800284435507,37.88418887782609 110.20829041767865,37.99363461858593 109.90682481776457,37.91738144430565 109.20602652442176,38.54489942564396 108.61387235554866,39.26257325906772 108.35638869332615,39.57790045742877 108.03744682657998,40.102697208407335 107.87316991994157,40.410846510727424 107.7954005333595,40.58891803538427 107.69403818657156,40.83023387612775 107.0657663999591,42.053405069164 106.8863433955703,42.588512288581114 106.7270180976484,43.59503063117154 105.29221660434268,43.867740688612685 104.61705016880296,44.01216923294123 103.6762444798369,43.94219765183516 100.86198300437536,44.20862778369337 98.0328667020658,45.45824358036043 96.54680149327032,45.451067056215834 95.32491918210872,46.19697577471379 93.38505358214024,47.133955533267 91.63131022220477,47.44209496257827 88.49402908445336,48.296540462062694 87.25583559111692,48.67240572272567 86.0744399643736,49.102990432991646 85.82715079106856,49.22005550499307 84.80711935996078,49.626418833620846 84.35157134220935,49.847092643904034 82.69627761770971,50.9670536625199 81.41410218656529,51.037920046481304 80.9040864710696,50.99531051458325 80.4980545421131,51.02760405529989 80.31775772431865,51.037023003795184 79.17277098656632,50.79751247377135 78.48886641778518,50.58850119833369 77.92933461326174,50.58222188655054 77.14406769769266,50.50687013112474 76.63201308436692,50.567869173246436 73.5433742221212,50.219367064826656 73.07850552885793,49.97895859531127 70.25492337776814,49.29092245316133 68.56118186656386,49.06890250754077 67.91572508437093,49.01821913488675 65.91935288882814,50.243587306467816 64.17580401769374,52.60953321296256 63.97395313763991,52.87550430488773 64.68611100432463,53.44332683889661 64.93194382218644,53.510155776690226 65.31380024878308,53.67386416246882 66.00178261334077,54.28474204719532 64.61445831111632,55.42082686605863 63.84521130658686,56.00927432999015 62.42497336876113,57.0027243567165 61.79378887102939,57.47545249690302 60.62084010662511,58.51598902820842 58.923603342147544,60.1611030990025 58.793405155534856,60.179940211586654 57.85725980438292,60.4472476352239 55.747000604402274,60.908755826880224 54.693181724403985,60.82443759031594 52.71515960886609,60.978721998631954 51.012679964420386,60.777344944071956 49.75351495097857,60.622611892351415 48.263371946522966,60.449041643645614 46.42719886219129,60.46070269832853 45.13279004429933,60.62350889586378 44.00178431987297,60.91324083856307 42.19124309322797,62.02507240592968 41.16480369772762,63.29073262721067 40.4599276088411,63.76703518588329 39.08629304880742,64.43888016382698 38.2544227555627,64.63083549402654 37.04652145772707,64.19310533697717 35.41190798219759,63.80246631416958 32.4252140087774,63.48044648207724 31.905586346634664,64.82906956074294 31.167796622146852,68.36137327074539 31.319840142154135,69.52384575549513 31.601208035484888,71.23704629542772 29.422791395452805,70.89081941114273 27.76021589327138,70.69034841377288 28.394021830987185,75.16031484992709 28.559463822166435,76.73444609879516 29.12045198213309,79.83917386981193 29.337157688802108,80.39750895847101 29.59726279100869,81.95456123631448 29.80843434657436,84.21029422304127 30.01989717327524,85.85207655723207 30.415734613197856,86.02383291779552 31.22342940431554,85.97360652859788 33.32582428434398,85.90499367483426 33.96458183100913,86.05567285505822 34.554405831033364,86.25119687512051 35.39035391993821,86.66018233564682 36.36494705779478,87.206840439816 37.523040995467454,87.95798860833747 37.252450133208185,88.75980841356795 37.0701144177001,89.29076577781234 37.06574535102118,90.13697642215993 37.11263999994844,90.9082943580579 36.87933183996938,91.62220947403694 36.71534620434977,92.27468639641302 36.913701831013896,93.01998755929526 37.12399957329035,94.86798271455336 37.26118826656602,97.13882951391861 37.31303452444263,97.71326393261552 37.346821973333135,98.56258107558824 37.60721834667493,99.07288726104889 37.814894648850895,100.36030646890868 37.67013290664181,101.20557760004885 37.43653347552754,102.1158659470384 37.29876223986503,102.6185408005258 37.190409386646934,102.81091115798336 36.87175879103597,104.32475685165264 36.822242702241056,104.56824468373088 36.6381593599217,105.43098760902649 35.719199004466645,105.38749181502499 35.2820010666037,106.65469564072555 35.03529443545267,107.39187666599173 34.848007111111656,108.37747127364855 34.77868458663579,108.6886635562405 34.923155057709664,110.55491118761711 36.04833536001388,111.88396397908218 36.36057799111586,113.92191897530574 36.34688824880868,116.64454351877794 36.366985955508426,117.90630174207035 36.32591672881972,119.62674716336187 36.392035271041095,119.72001043404453 38.10733084438834,122.08296565600904 39.18649031105451,123.83297093684087 40.68770161771681,126.33801442710683 40.89130012434907,126.6814636598574 41.844921742216684,128.60046514961869 42.89378901326563,130.55397350038402 43.78973895101808,132.27252637653146 44.71190328884404,133.40775924839545 45.305513813276775,134.02245042682625 46.45690851553809,135.07248783111572 46.742936746566556,135.36884675326291 46.77177258662414,135.80643499002326 49.989735822193325,137.0788433701964 50.33809607103467,137.06763473094907 51.112003413261846,137.65496665576939 51.71260444435757,137.7657076899195 51.793869084329344,137.80874872457935 51.5308512711199,138.0087100873352 51.2818144710036,138.1360396494274 51.217152284341864,138.27457771578338 51.34239886223804,138.54627347568749 51.209579235408455,138.84173102432396 50.90432711108588,138.94619467546 50.590628124424256,139.244790073717 50.58014236437157,139.70209755410906 50.3768351287581,139.86394830665085 49.85808127990458,139.38018905452918 49.19223551999312,139.52500310365576 48.89397390221711,139.81732095527695 48.729405724443495,140.22889665700495 49.117378844413906,140.35129320377018 49.006987093249336,140.72027578705456 48.461436302168295,140.7960449163802 48.23861390212551,140.6292631297838 48.162300870986655,140.67409695580136 48.16900010663085,140.7736280169338 48.083366399863735,140.97448335424997 47.93947847106028,141.22958730120445 47.621410417719744,141.1869952744455 47.38722844433505,140.80232164775953 47.52383459545672,140.5418371425476 47.487716977717355,140.357569947897 47.2287769599352,140.27193720871583 47.154794097761624,140.39792044169735 46.76041301328223,140.4539627819322 46.5993400887819,140.71130902454024 46.37418752000667,140.79828660620842 46.258552888873965,141.12646974850213 46.12369436433073,141.13812651776243 46.05408056883607,141.01035035948735 45.92679509322625,140.9847951188567 45.739216497633606,141.3107362978044 45.34570922655985,141.1461965884082 45.05880718212575,140.63150482130004 44.1180014932761,140.84356873558136 44.12732216878794,141.09060276229866 43.76556344877463,141.20717044605408 43.37467761768494,141.24348575028125 43.195545884314924,141.49007099034498 42.73184227547608,141.77207449823618 42.366588302189484,141.55104475247208 42.22240910213441,141.57435824529966 42.027839999995194,142.0123824478942 41.28043832886033,142.15046973282006 40.664982471033,141.97696394199738 40.16486997331958,142.14822805678705 39.83136455109343,142.1957515833201 39.574463431024924,142.45533745689318 39.55465699546039,142.76065309147816 38.88385962659959,143.0852466338547 38.69191196432803,143.04489663400454 38.02664874657057,143.12335496023297 37.421096106641926,143.266821541416 37.0404047643533,143.5210261597531 36.43834737769794,143.6371442208183 36.33028579549864,143.69273740210338 36.284847502131015,143.7998887358699 36.341354097705334,144.25808338902425 35.93095310206991,144.48000707000028 35.58550556434784,144.43741567392135 35.25433031108696,144.54232499259524 34.87655167991761,144.3567161638057 34.74810111988336,144.36164780147374 34.523239822126925,144.23342518834397 34.215657528839074,144.40648086520378 34.09128476434853,144.71493209595792 34.090993493329734,144.97630830836715 33.768847644445486,145.12739527388476 33.636028017732315,145.0623875418678 33.42427391989622,144.84808605443686 33.010377671103925,144.92878538381774 32.75784561771434,144.6718924153829 32.27084031992126,144.66740911477245 32.19743999990169,144.8673642302747 32.49045873770956,145.05162763944827 32.260937102138996,145.5237178581301 32.14413738658186,145.53358108073007 32.06986325327307,145.38428770925384 31.769562737667002,145.19867959234398 31.361491910996847,145.27758547768462 31.230419910978526,145.53313275246182 30.591079822159372,145.38249439490028 30.560496355523355,145.28027545055375 30.30243015103042,145.0718024559319 30.039703608839773,145.04221272445284 29.704159288783558,144.93551032664254 29.62435100437142,145.05655926151667 29.43123825767543,145.25472070695832 29.555028479895554,145.35962963511702 29.467938417685218,145.50443973997608 29.198221368831582,145.35604300594423 29.047051662229933,145.55465250939596 29.029284124379046,145.77388491289457 28.870832639862783,146.50196805218002 27.717399039887823,149.4196563065052 27.682446506572887,149.75768959341804 27.640212195459753,150.2221482739551 27.60147313773632,150.69512400915846 27.606716017704457,152.02124390692916 27.46457571547944,152.56146286707371 27.371660231030546,153.04295150877442 27.10776860441547,153.51278298272518 26.609112462145276,155.73864075634629 25.949674666509964,156.4693806837895 25.720735573209822,157.50586161162937 25.511602915474214,158.51005991944112 24.91624476434663,160.64979393885005 24.779056071070954,161.14067906630225 24.199135288828984,163.38528776128078 24.04854812438134,165.39586743689142 22.725012195529416,166.98504168819636 21.005056284368038,169.11214126541745 20.726018559886143,171.55839237052714 20.23406165326014,172.86824844247894 19.55423487990629,174.55643608316313 17.018428586539812,174.90608564467402 16.58734734216705,175.46731685346458 16.124517546617426,176.10520010365872 16.271609457675368,180.54657335410593 13.309090986615047,180.35113330441527 10.352106666658074,180.35875367652625 9.858402133337222,178.4437906575622 9.543829333269969,177.7256752193207 7.68173311999999,179.06283834815258 5,180.85945637430996" stroke="red" stroke-width="3.005610070701865px" fill="none" stroke-linejoin="round" vector-effect="non-scaling-stroke"></polygon></svg>