<svg viewBox="0 0 135.55334376888572 174.99400335585165" width="135.55334376888572" height="174.99400335585165" xmlns="http://www.w3.org/2000/svg">
  <title>Jihlava, okres Jihlava, Kraj Vysočina, Jihovýchod, Česko</title>
  <desc>Geojson of Jihlava, okres Jihlava, Kraj Vysočina, Jihovýchod, Česko</desc>
  <metadata>
    <collboard>
      <support-module name="@collboard/map-svg-geojson-import" version="0.11.0"></support-module>
    </collboard>
  </metadata>
  <polygon points="8.052549999999997,109.50027862333047 9.773161271128288,113.13462210763066 9.859450337804105,113.19837841235096 17.969821608923326,114.42584064011282 18.153977768910067,114.65334429668258 15.359668364464255,118.5086834290629 15.186944595574118,118.79455159338943 15.232455706667338,123.2640121449291 15.10990338668455,123.5282719927269 19.820922337799516,126.95380563529727 19.953814782238283,127.13037720807881 27.028353164474197,143.6129998636385 27.214475404478094,143.96324069290824 21.17555145780318,145.65717642154016 21.01273090669531,145.59412847173337 19.159591280018162,148.6535474876215 19.024004577811525,149.2893540819856 21.4593951555795,156.7757368335657 21.48473574224738,156.85453073669453 24.390820435575392,154.82295314138867 24.439025804465587,154.93047428540706 24.791318213370346,166.48989470145136 24.7524335200211,166.8333969699812 34.31195138666192,165.9146297543117 34.74077527999873,165.95295858881548 42.380379617803214,159.3807934376597 42.56577368002729,159.2987621326389 41.12791384000559,157.7705434872256 41.348551706679814,157.2080401494528 45.131071173360056,157.45894886604913 45.5687788355641,157.656322134491 47.14317200892367,154.3307226837129 47.36861584889232,153.93628687797866 49.64154996444233,155.70636387669185 50.014449804446144,154.9066676469007 51.50517535111396,149.9779127070575 51.67906420445763,149.43109055561183 46.62201517335018,138.15955290746172 46.670366177778874,138.07413586488804 50.274700542249434,137.44099466998125 50.58883643558477,137.50595263129037 54.200743848901425,140.7884099286963 54.66073375111557,140.80562666086882 45.319232311135806,132.77723735052098 45.098303173355475,132.5650153538951 46.32608372445213,128.7908379286306 46.376473626681786,128.6690643129183 65.79224180445419,122.22161040300091 66.05176436444856,122.09848021473556 73.77321588446614,124.7449915929825 74.15594612446841,124.90077001623979 77.48619437334821,121.09173239798804 77.83156909334468,120.8557557366654 80.28778555556312,124.14289768611309 81.61736536000501,126.80418342800806 82.87383611559164,127.55866435400787 86.60560159112322,130.2761412305041 89.99352152000176,129.474956863785 90.45780767114013,129.97926269075072 91.09860411557713,128.48019726238965 89.93286431112904,127.9039754248439 92.87259081780905,124.62030143860432 92.9151164000283,123.89105407363206 90.05862061336632,118.65899926887471 89.9429131644498,118.39438048405975 94.33149499557442,120.26882929683018 94.72995387556841,120.63800765338931 97.24901208002814,117.59492427875341 97.50802491556499,117.21431730202278 100.83565172446072,121.77449328818295 100.76909627559473,122.35491725321447 108.63246964445682,124.75404979049165 109.04825915556978,124.88969891529234 109.53053129779403,123.24578342471034 109.63983078223066,122.71233905824886 113.19930939557491,123.75338951530978 113.58852041778266,123.5879902927478 112.61734971556109,117.59615456444556 112.65739949333476,117.52211368572137 117.01619885335788,118.59469008714188 117.3002610044856,118.61415061266564 125.33956212446321,114.90198659660348 125.47485755556374,114.91373080698361 118.85681382223959,101.41574021166127 118.66763323557791,101.17397330214555 107.96094409778709,98.71417787044595 107.24405307559175,98.37259928104288 104.41712130667986,93.28290510118643 104.37568799113035,92.87650588925283 109.84954598223669,83.40684419793945 109.92651437334246,83.32760920147814 114.37400578667405,84.51310053976306 114.60265360889719,84.65880912317482 116.21294594667381,80.78632110503497 116.32246388446185,80.6270600032218 119.4307635466754,82.6365364147274 119.65912009779242,82.78762189600786 127.20318751113484,68.43835480830569 127.50079376888573,67.69459215553763 127.44982132444386,65.27136059424777 127.45768564445427,65.07309553361085 116.70002406225069,62.6765058073139 116.4358411644713,62.700912209074545 116.35275608002087,59.193556294477844 116.31707536889701,58.97007750067098 114.09132717335126,58.71569572296687 113.85204795556604,58.75813008908119 110.80047334222002,63.97585173066875 110.27713197333617,63.92401730616223 113.61386100447965,58.41876620699588 113.9550851111486,58.23704723855883 110.86418889777963,57.150863590657195 110.78066690668459,55.77297720635363 116.46263810669882,52.879370458882136 116.20311554667535,52.253757159887414 111.15647945780768,45.23647881022009 110.6807609155727,44.46809938678746 97.01941762667377,40.80031419794943 96.08312664001244,41.536265215726985 96.7745314400305,36.16004523439153 96.06616009778338,34.18336801272346 92.18650171557204,31.16954596791004 90.68186797336205,30.183758938706546 95.32946264002351,29.774652124651425 95.3070347644458,29.662852963308637 88.40274434668356,25.80967559862586 88.38839924446768,25.801721383955396 91.24445812445595,23.570350617206373 92.67197784002167,22.623864407556198 86.05247775113787,19.59215295798606 86.01956411559479,19.564366070400524 87.08365030223615,17.609836961367932 86.84306036445889,14.960624078470232 85.45981385780726,14.702452605815438 85.65969865778573,13.438022353533256 80.94911661334447,16.533157945530206 80.78971849778429,16.546491907843688 76.58332674668748,9.113033847846623 76.49718331557926,8.974408939938826 65.73930328002427,10.16710960954481 63.75312557336986,10.277043413261367 63.15325272002485,12.429505171363076 62.44524546669675,13.256938855447174 55.320972542227196,14.028892756504888 55.20533791112359,14.076404153070712 51.40658008002322,21.031561726172754 51.231744595577425,21.41608486984444 47.94802690667677,22.903061610362442 47.9191910666774,23.113130800767635 55.35162882667612,47.17904993623199 55.4739626933366,47.47548029182474 59.14368742224872,54.27804447037454 59.29442022223486,54.468734357163726 62.029091866693875,55.26071175189975 62.121861715575164,55.214131748994646 64.82718779557729,63.67749524834619 64.93969126223931,64.01044530426555 56.022353377782224,70.43047861337948 55.717610977800746,70.95166968178057 53.61776472003078,69.21557825909224 53.32321680890857,68.98844611367497 49.25845563555015,71.39561848312553 48.85948703112774,71.9504934709181 45.637373182231045,67.95441767048726 45.9821653600153,67.48995490895288 35.68886274667568,62.83817002793478 35.385358248902435,62.64918853746315 35.2127801155508,65.48485017843598 35.18853179558175,65.95627075216146 41.36697460446851,70.71301493516478 41.75574872000254,71.17532361108863 37.42112486222288,73.98927790650453 37.096648844460674,74.33201550540218 41.058008773346614,73.96935383922357 41.08429599111662,74.04882619930834 31.346811475588424,75.15952434951726 31.042141893361645,75.20440848473629 34.764659511136074,79.65603854669428 34.626815457806174,79.87652325574129 24.768453431118928,84.255815392498 24.610657306685994,84.4039867162279 31.55040998224979,85.76369735039009 32.43834996445332,86.06406016600488 33.648654248921616,87.3570339563372 33.79261499556708,87.50049688968977 32.77564191111708,93.57214940545202 32.641365928902474,94.2515598254173 37.63986946669286,95.4530394420359 37.67307437334205,96.0635036544769 21.78765769777931,96.64621316735395 21.465584666678865,96.6161156115046 19.19643707556645,103.69328668535275 19.192068008916635,103.81410879553698 9.797045502236529,98.913440390657 9.425747653330859,99.06224348585931 8.052549999999997,109.50027862333047" stroke="#009edd" stroke-width="5.601211289745539px" fill="none" stroke-linejoin="round" vector-effect="non-scaling-stroke"></polygon>
</svg>