<svg viewBox="0 0 466.0664222950362 524.244168127734" width="466.0664222950362" height="524.244168127734" xmlns="http://www.w3.org/2000/svg">
  <title>Jihočeský kraj</title>
  <desc>Geojson of Jihočeský kraj</desc>
  <!-- Generated from maps/2-geojsons/world/europe/czechia/jihocesky-kraj/okres-strakonice/okres-strakonice.geojson -->
  <metadata>
    <collboard>
      <support-module name="@collboard/map-svg-geojson-import" version="0.11.1"></support-module>
    </collboard>
  </metadata>
  <polygon points="17.261356071965565,421.97599560517483 24.24647422308408,421.9724320016139 24.63969022305173,422.019983817856 21.019408765296248,427.8922622329883 21.03652094309291,428.32118331219317 29.58212407197061,437.85457415625933 29.979417867511074,438.0995008208738 38.37727372530571,430.75178442898687 38.46727649863533,430.57830882096096 60.83274721862472,438.68130861920145 60.89384133417116,438.6884336671101 64.9071203386302,442.7471121393355 65.09622810750807,443.049792222886 59.59950533417941,451.785053852891 59.5617857252837,451.8090951740487 61.88969726306459,455.79992056393894 61.745663698635326,456.0524468368858 76.31315141420419,461.16883202162353 76.13154387641771,461.82551208911536 89.70288439195792,453.96954353200636 89.79842131639089,453.9038776553971 134.06631450752684,458.44654771089336 135.4953633964069,458.36564054986593 140.49896417862692,450.78443586966387 140.97060492528908,450.3061585495343 140.56078647195318,459.56309893125217 140.58117544972993,460.1140768592486 147.29519301418986,467.1722506079568 147.31004784086326,467.2466911239353 143.97084300530332,471.81908238948745 143.9811103119464,471.8595817532514 150.984505725286,476.1310963768083 150.99462739641967,476.15045445377837 148.48925893417982,487.755289356257 149.2073150408578,487.85027961328524 160.99673171640097,477.0070981869685 161.05127223195814,476.95970499804025 184.7153023830797,484.590707839121 185.58962544084716,484.55277625364033 185.1370629519697,480.27368133790515 184.77697904083834,479.3247534631846 193.72977918306788,469.672573573047 193.8979882497406,469.36169449473164 217.97540492528424,475.06327653225526 218.2570640897211,474.95469106894234 215.0087358408382,467.67964585620575 215.0128864541948,467.54600997260786 218.87674337863064,466.9480382826623 219.3705207297353,466.89318123259363 223.54858636529025,447.4780379220938 223.68249825864405,446.99060434167404 232.93661836530737,447.47614563290335 233.24529292529405,447.52167186678344 231.18156428529255,449.5401493247955 230.71334597417808,449.41303662266364 235.96343493416862,449.7600914520481 236.14729982307836,449.68562733813087 232.91120496085568,457.117852361891 232.8820778497211,457.2748846966897 237.6651135830798,466.54645670911486 237.829463307502,466.60365082741555 259.67479664086204,456.2509946682003 259.830262596417,456.2846052729619 265.32953399194594,466.69745350399535 265.6927490675189,466.9686235713634 257.80891390306715,472.39363651712847 257.8293756986277,472.7842720515946 278.28221466752075,477.04492370758453 278.73310234751625,477.03390980867334 279.2184328363983,492.66865170463643 279.15005694305364,492.8843068706374 283.70946928083504,497.9834885811906 283.6531083208574,498.08335443807664 300.40287201862157,495.80118544081415 300.4833356630588,495.7222236629641 310.02741616084313,505.137341403537 310.0411059030921,505.21217551009977 325.02540257863075,506.88774352570545 325.29715852531444,506.9828120557686 373.7085289075221,499.4238525826404 373.9160595741887,498.54375816790343 384.46349623195783,505.63849447334724 384.5067499919569,505.64405416683076 414.2938814408444,496.7150207841514 414.5162669341844,496.6888859929786 416.2258827208607,488.6818266868977 416.5065224364116,488.2052124876391 422.32590078308203,492.4423185329251 422.46738572531103,492.3690242012417 423.00383429420253,472.3344457021485 423.1288624186309,472.2230733386714 416.66118739640297,463.67354434554363 416.6812122852898,463.4704607908534 428.29062341417375,463.9980313670858 428.4977171741666,463.8952105832468 426.4851794319584,458.5362465705002 425.6842566941814,457.94485462599914 427.81388542308196,449.2537557566866 428.1774645875157,447.9846125368822 441.97723447195676,446.7196699981614 442.6756297786378,446.48157170949344 448.77237104085,430.00899768041927 448.80506622307075,429.9684675804783 436.4917256364024,431.10675078892746 435.72247863196026,431.4214085189342 423.7336868808379,420.4641161123327 423.27617278306934,420.06988026172985 411.9948057430629,425.6231117739262 411.1758970141709,425.961073901246 398.7447372630886,420.623702874178 398.6510936008599,420.3545321926249 390.32008446306645,424.65052650394864 389.8072288541771,424.403090234704 390.6058942408599,403.6284036445468 390.4899683386211,403.37953621585984 385.03475169862577,408.9485952642317 385.0287806408487,408.9656377667161 365.74444855195543,406.72199713380905 365.7031608719444,406.70796156097276 366.03644784084827,401.3858826402611 366.0483171386186,400.98460323896506 362.9856014053112,401.67720386255314 363.1991031297257,400.69093883890673 371.03560673863467,385.42023967550267 371.07194280972544,385.03076781817435 363.8664780630679,381.8763343901701 363.67474885417687,381.6939008479858 355.4957832364198,390.56758442116916 354.958752125287,390.88269644370666 343.5487888897369,382.7485968653382 342.35428606307323,382.09922122136413 324.51094497861413,384.0095472812136 323.3920998230642,383.2095185420658 327.4274426141819,369.6049119468553 327.3321969608551,369.2595815774439 305.28668755641047,362.7064774742212 305.03692257863077,362.64348987347694 307.8735391119735,357.4550710082149 307.8624708097377,357.2950782612934 302.37994750308644,350.9188497127361 302.3483445875063,350.8694524130733 305.85255450751356,340.83408017832335 305.86354999196556,340.69578691505376 294.87782312975105,328.0825390067803 292.6405697252958,328.2625844611357 294.6665059386178,320.7234861268407 294.5150449608518,320.2119471483202 286.77240346752296,324.42996565364956 286.5272260097445,324.6386938444957 282.522757956398,313.9646519931739 282.40603105862465,313.59040767563056 275.70817904085925,312.0450886844519 275.23100414306464,311.6283171291616 284.2784673964088,306.01347744980376 284.2295338497388,305.63750511408216 272.1946484452819,293.67569141596687 272.06212008973307,293.49263064125626 276.5774776719809,289.71586172262687 277.2480565875194,289.5147036122544 266.89067432973025,275.7118493562193 266.4834044986237,275.66428274053396 264.49628016083807,265.41874853961417 264.50596492529803,265.32102883712287 252.89801015194462,248.05642689776505 252.8751453697514,248.03721194743775 237.80171973420147,243.26141837868272 236.63161086307446,243.2686804736477 235.94683248085857,233.73238865146777 235.81554202751795,232.34250044299188 243.26698522751758,224.95353415521458 243.62787013418347,224.68284655743992 242.47654824973506,208.04932033578007 242.39448261417056,207.75272448343821 251.0053304719513,200.25803353771698 251.67292385861583,196.49129558154164 243.3641241430778,190.86122570078078 242.18993747640707,190.07851456571734 257.17532641861544,187.94929153391058 257.3455015652762,187.93072659203972 246.38125594753728,178.2978075485771 246.03864830306338,177.60127196627218 260.2917088541908,170.55085513332233 260.62091802752184,170.50632990512895 251.73387233862377,159.50827674588436 251.7088958408458,159.43688777258285 235.90481662306775,155.49658732788885 234.97304033862383,154.87619337463184 251.07763852530115,151.45069588271508 251.44908200974533,150.93556584677208 236.44177491638766,135.23694751979565 236.20926775194312,134.77416777912367 243.48580264974225,125.38574823100134 243.39521733417132,125.1788376445511 227.66854341420185,118.24038772617132 226.754389031983,118.33870516492243 234.36712360974707,100.58888319332982 234.38430860529843,100.57958595076707 251.63287408084216,104.91607465393099 251.99354053418574,104.77864295590916 248.5941882141815,105.096628244577 248.20490437418994,105.22890689416454 248.25340101418624,100.11315359258515 248.36117132527943,99.50490371461274 260.0899307919499,85.9652869052843 260.28610188530365,85.78904014890213 254.59124193863317,77.68544798512085 252.8824999653043,77.43935993183186 246.40878106751552,87.82508706846056 246.35453182306446,87.81892481277828 241.3606886230882,84.12682500970914 240.99630846306172,83.63851523741687 241.6245074319777,75.71088524730658 241.72434060530577,75.38768671531943 236.12188641862667,77.42613658988921 235.84874693416714,77.30925555614886 238.86201939640523,74.12815804899219 239.48548520975237,73.73860493793109 236.14737264086216,69.83776617603507 236.12195923641048,69.55320008780473 244.85397587642728,71.89087966677107 245.49331596530465,71.8362998280245 244.98002344974157,65.10799434600995 245.08298778751123,64.77128280233956 227.67720872974678,67.87435342331082 227.5917934764184,67.86684394639815 227.830927058636,62.660287489710754 227.87046711195217,61.88796551230553 223.85507639196658,61.24162790959599 223.7891034852837,61.19634139608024 226.4636276452984,53.96941288098242 226.504041511962,53.11243627418662 217.66418174306818,52.22551193225445 217.28560211642252,52.15252586259521 219.52613232085787,47.10414317372852 219.30578572528975,46.848387348745746 201.6908011919768,52.441890953781694 201.30828940529682,52.595037455383135 196.86895358308175,43.94775703389678 196.72295393863533,43.73336287078928 181.25784147640297,44.049123020133266 181.1060892275309,44.06044819059389 174.44100520974098,36.129453198551346 174.24913036528233,36.099846488130424 168.03267667639375,39.90305650423761 167.5422489430821,39.73103518292555 175.03126611640982,32.30893408315387 175.0449558586297,32.23917399527636 161.48344574308794,33.12081385501733 160.57096616972194,33.38347496887218 160.50098828530827,22.914300493826886 160.72745157416284,22.416471703767456 155.02865946751626,20.068830610431178 154.73141729862618,19.957211953271326 144.91193996528818,20.63735306988019 144.10657534307757,21.02234756874168 147.73384730752514,23.813028183754795 147.776809796389,23.853522182533197 140.31735664084044,32.30826115669697 140.38769861417313,32.644947668832174 132.4255843386236,34.91141545225764 131.94964734306632,35.88553380096346 129.5125091386326,31.52900676601348 129.18992638307463,31.554690485241736 127.78126647197132,36.00844688353027 127.39103600084854,35.924224536389374 117.49779425863017,17.39059325076596 116.93556819639707,17.261356071965565 107.75615912974536,29.40439441145645 107.78674259641048,30.41539848479806 94.99258622307752,26.40660283610123 94.89420940530908,26.357025229797728 90.00959287195656,37.394227975211834 89.93859553862785,37.891135853689775 74.26209306750752,31.9388232789388 74.03694049861588,31.937140951373294 65.59794259640694,40.29531692625096 65.37562992085077,40.346564006937115 71.00335187641394,50.9861930557272 71.0353188808549,51.16255161152003 63.27090487197347,53.07768157680766 63.06126248975124,52.986534475556255 63.72608880086409,62.41603763604144 63.37867518306666,62.75870451679293 78.21908392974365,67.10681231931449 78.76681925419325,67.22293050024382 71.65812933417692,68.81706481900255 71.54453360087427,69.04637963540517 75.67024325418242,72.25847963092747 76.6790607475159,73.3232728276962 72.70801605417,75.42836680167602 72.8492825430767,75.71110937877165 78.6273732097361,76.32791571732741 78.7017929786416,76.44446264804355 74.7306754675119,79.98669889477969 74.60113264086613,80.49711618300717 77.00259013417599,86.20304546012267 77.06659696084171,86.30567795822935 73.64190405419868,91.35448938541595 73.67387105863963,91.57519553399834 77.64127486305733,93.70244362258018 77.9789308986401,93.88090554833252 75.30913989419423,100.91719806268884 75.21789921862728,101.01241012773608 85.55518376974578,112.73052255149014 85.95560872975693,112.74508127496301 85.41377164527148,118.18115082447548 85.70890209863501,118.55762320314898 94.48213360084992,120.49436595471707 94.55356784085234,120.72010580895949 85.4179222586281,122.42230671737707 85.24214014308018,122.43305587792202 74.88585015196077,134.8130127693621 74.6786107564003,134.95820547239055 77.62219660530172,136.3081322096441 77.6508139919788,136.3648868404598 73.72316869417045,139.30552485787848 73.43517438306662,139.43940017768546 76.30805416974545,147.60797579943392 76.32938977862432,147.86012896968532 71.24343208973369,160.8564814927413 71.23309196530681,160.87248206421282 74.03264424974986,162.59357926829034 74.89575336974303,162.55218047534072 75.05500584973561,173.17162706210001 75.03643731640841,173.40800163601307 83.55720958307575,180.6195663583385 83.59966234751118,180.6971915182694 80.64551792083148,186.45524100981493 80.5381845163829,186.78349048865857 89.94514913861713,188.01169653353645 90.33028236531027,187.99201324381647 94.54745114750767,200.45772930520252 94.55327656974623,200.5156476507873 85.8241726408487,209.2077393176478 85.65734711195182,209.5083518745705 90.42552801863712,206.31399389345097 90.69189544972687,206.04287912699874 90.68272040975353,213.64018262969694 90.88529946752897,213.77935444645482 83.91489050751625,215.61616585616503 83.51796080083659,215.53993135469864 78.94551408086045,224.89228868816645 78.85835120086631,225.13022918056595 81.00145121860623,231.80488432012862 80.9514982230794,232.10995501604702 76.73629552084094,234.8678067165347 76.65794359195934,235.0905072644564 79.99773096973149,244.3251374933352 79.60189352975067,245.54870744984146 65.81333758308392,245.92106861775756 64.9409806053045,246.2492984843302 55.3337670942019,253.90706714451153 54.795279627509444,253.75045941598728 53.32494305861837,262.7123511881109 53.18149203640132,262.9411933874544 44.88645488086695,259.6617010638329 44.71810017862663,259.9332218129748 46.903725778644,267.8351061434114 48.471929440846,268.7273794183893 43.94448410753466,272.18946376328313 43.862782560830965,272.58565266972073 46.74214312974436,278.8691311164621 46.729254383059015,279.645108913046 54.57981182307776,283.2532061367565 54.78748812531194,283.81421123903783 51.09569960974113,293.7024807465823 51.04429025862555,293.82303257295644 27.7862920364023,295.61531687426395 27.388634151971928,295.493429550148 34.30115297863449,318.1741116586236 34.30763376086907,318.70909958701304 52.92306174307669,319.55837527549374 52.93740684529257,320.0727095436632 43.4279876097462,325.66737424259554 43.308493636392086,325.9360038080522 47.73144545861942,334.4162377841749 48.00604129863859,334.58812016397496 33.032230383065325,332.3778123984848 32.72493936085448,332.32427134417594 35.948509565310815,341.92848066833176 35.900522649742925,342.62026260813946 28.3487365519577,340.0600795450773 27.939937547507725,340.02271756786286 20.581701103063097,351.5850956463728 20.407593796397123,351.7981811389509 27.6558753964091,368.4714889947536 27.79066110308122,368.8453606294388 39.3341721430661,373.66087697857074 39.6248607119669,373.71917066126844 38.25799820530301,380.6475431068138 38.27591137863419,380.8274168601529 42.903481156408816,388.73359223993975 43.03295116529989,389.00146877195584 26.467052356387285,392.9748920744787 26.067209938617452,392.94024006949985 21.670982240833837,401.556553615741 21.471534347499983,402.0172066462583 24.108120445296663,417.345343934594 24.154869458627218,417.5688670060372 17.261356071965565,421.97599560517483" stroke="#009edd" stroke-width="12.899868848517974px" fill="none" stroke-linejoin="round" vector-effect="non-scaling-stroke"></polygon>
</svg>