<svg width="2354.9954622577643" height="856.6279274238041" xmlns="http://www.w3.org/2000/svg"><polygon points="2108.778417777852,252.45201693836134 2114.812681386713,262.64775995205855 2114.12994190224,264.5720939452294 2133.6049109334126,278.176953760325 2134.983205831144,280.15131839789683 2137.133369173389,290.5838199611171 2137.352987591177,292.4230806597043 2132.057387519977,293.09028196241707 2127.7031756800134,292.43858638661914 2126.3901255110977,300.4526185612194 2125.680006542243,304.06346510065487 2132.028551680036,307.7262376572471 2132.5076926577603,310.81710990227293 2147.386694826768,309.7140137529932 2147.8399126756703,309.74593476223527 2151.4758499555755,323.24764438101556 2151.5029381689383,323.65392752434127 2150.656504320097,317.1519379123347 2150.858937742305,315.7748171269195 2157.9612925156252,314.34935110481456 2159.294440391124,313.78253651654813 2159.8341657599667,321.78802829189226 2160.2131094755605,325.6698284756276 2174.5282107733656,323.92295859212754 2176.870904320036,323.1979419016279 2192.1821528177243,344.03413801954594 2192.671779555618,345.31761180539615 2200.9799967289437,340.1180142300436 2201.767885084497,339.6228513845708 2193.403452586732,331.5309278485365 2192.76819029334,330.3080166571308 2198.252242773422,327.6419369271025 2199.2367391289445,325.9146900837659 2190.607541191159,312.59463790414156 2188.7678728534374,310.7765248188516 2193.4031613155967,308.6660900156712 2194.1348343467107,308.4134566427092 2193.0696558933705,299.716122526268 2193.3472372622928,298.8528456618078 2202.528393955552,293.3620872361935 2202.6335428267485,293.14272763743065 2198.616331662284,287.3927819367964 2198.983624533401,285.11246303183725 2212.8303618844366,276.0538874149788 2213.613589902292,275.3040820037713 2256.6322941156104,270.292998383753 2258.6974062933587,269.9947105157771 2253.6418136177817,261.9955167765147 2254.092118755565,259.4116110713221 2263.7617371022934,259.0676961457357 2263.9833944177954,258.68592257233104 2259.805692871101,239.61235257965745 2259.7643323733937,239.37560443684924 2250.114811733365,228.84666507155634 2248.5081602844875,225.5653049655375 2232.0306622578064,229.068370636669 2231.4367604622385,227.83256450423505 2239.3185567288892,218.2620134212193 2239.905468017794,217.9937636613613 2244.2722045156406,224.53613466391107 2244.456579128979,224.6369534243713 2246.857235626667,217.7697657335666 2246.9912203378044,217.6817176049226 2251.969043626683,219.72871329798363 2252.5207111111376,219.6703192157438 2253.9735714134295,211.4671629923978 2254.586697102175,210.75454448070377 2289.4981612089323,204.35410332598258 2291.8163879823405,201.93375754263252 2283.570211555576,188.77034459181596 2282.213470720104,185.1977300728904 2301.8597071644617,177.08361560333287 2302.680217884481,177.0388988412451 2299.872946915566,166.63561287510674 2298.619316053344,164.06015326920897 2302.745171342278,146.36011373612564 2303.0073153423145,143.7606823395472 2310.6033746488392,134.7372737362748 2312.612271502265,130.90088780701626 2306.8191803734517,123.90978296281537 2302.9982859378215,123.2571222896222 2304.3990087111015,110.80735779227689 2305.6642904178007,106.7683448396856 2322.165381404455,94.97722803504439 2324.6574970311485,94.52167418657336 2342.657177884481,107.47445864637848 2343.4855529244523,108.16231261217035 2349.7577850312227,90.73615812696517 2349.9954622577643,90.13908769830596 2323.1609460623004,69.07030418899376 2322.753457777784,68.92284789867699 2293.1212825600524,74.84932480030693 2291.9355178667465,74.90136678528506 2276.4503805156564,58.88508431427181 2274.611585991108,57.5962615062017 2240.338296888862,56.16635773226153 2238.563290737802,55.38109366444405 2211.7611056355527,5.790469849365763 2210.5185430755373,5.127863602654543 2193.215291448869,16.833000168844592 2192.3679837867385,16.941678301081993 2175.034148693434,8.564626311999746 2174.3534481066745,8.276024364924524 2161.4381957689766,13.331525967339985 2159.331140551134,13.470343966386281 2142.3174124088837,7.9828555376734585 2142.2113897245144,7.968242750910576 2135.0033035378437,19.71569200704107 2133.228879928938,20.574601643544156 2140.416868408909,30.377619907085318 2140.6460987733444,30.70317716075806 2133.726953528938,37.73929506650893 2132.022434986662,38.92550451075658 2145.745382115594,70.56540487252641 2146.4473454933614,72.26318761601578 2163.7747726222733,92.13890198245645 2163.445927537745,92.98154817323666 2188.571556124487,98.38700449396856 2191.780489955563,97.72787652007537 2192.783045119955,103.47144301561639 2193.191115946742,107.05362057179445 2189.013705671183,107.65794744266896 2187.2558845155872,131.72010749136098 2186.9465545956045,133.25311249971855 2194.492224000045,140.5341677807737 2194.3279470934067,140.7737620967091 2159.131037297775,128.56050387513824 2158.079839857761,128.63443994754925 2155.4216996978503,153.009605819243 2156.159780693357,157.41647614934482 2159.2396814222448,163.91915007930947 2159.7695035734214,167.2639583168202 2194.2996937956195,169.91330185870174 2194.9777729422785,169.91969017806696 2195.4653607822256,180.58883350226097 2195.7726518044947,181.69897466013208 2173.3377857422456,199.48144750174833 2173.4143900445197,199.6926894398057 2123.4165387378307,216.81811411608942 2123.3664401067654,216.85050501162186 2120.264694044483,227.76869836275 2121.752506879973,229.57336579996627 2115.60464753781,235.98537917225622 2114.6486957512097,237.0865695629618 2121.6977479110938,241.3982189699309 2121.9802808889654,241.70521316688973 2119.367287751171,246.01950763270725 2116.7385659733554,250.78939897217788 2129.5090565689607,256.8180959392921 2130.3458784711547,257.42428612639196 2108.778417777852,252.45201693836134" stroke="red" stroke-width="3.908755074714243" fill="none" stroke-linejoin="round" vector-effect="non-scaling-stroke"></polygon><polygon points="5,831.0542086061323 31.137504426646046,843.9421812255168 33.730399857857265,845.2076915143989 70.3874517333461,849.6059875226347 71.46486357343383,848.9636935643503 89.34541454224382,809.3470437367796 89.93960760894697,808.3224578099325 111.41182264895178,786.4446661918191 111.64716970664449,786.041068395949 127.318429297884,783.2008471422596 127.9525265066186,782.6748424627585 135.02488035557326,789.1205870634876 138.4578016711166,791.3087114300579 156.26524359115865,779.8095506615355 156.90108842670452,778.6446761090774 166.4894421333447,786.5697950066533 167.41568426671438,787.2727900993195 168.0725006222492,781.6114536797977 168.02094563562423,781.1682597275358 181.25135331554338,777.7255128732068 182.15196359110996,776.8277323539369 188.98634894227143,766.9396152521949 191.9462459733477,762.6484055070905 191.42661831108853,750.2279926577467 191.7382784000365,749.6928063046071 207.00204970664345,743.967686109012 208.66200376895722,742.5545867190813 207.87324159999844,729.7843933444237 207.45002467557788,729.6455778224627 215.31783992890269,705.385633768863 215.48823352891486,703.7210200565751 212.54814293340314,676.1462964949897 212.50794752000365,675.8531184267486 195.18139420449734,677.9363130088896 192.90918826672714,678.8017251623678 192.9220041956287,672.476079157088 192.60160597332288,671.7085215208353 182.75169080891646,668.4179174662568 180.92105187557172,669.1440580943017 176.98423153779004,659.7409181643743 176.9044232533779,658.3973840977997 166.0126313244691,652.5728788397391 165.05580572446343,651.9404737671139 139.41287964442745,657.2195654566167 138.92616561776958,657.2150126083288 131.53079210675787,648.344517037971 130.96135708445217,647.158903663978 132.35450680891518,639.5979619424324 133.167444480001,638.4113901585806 109.40612977778073,645.5011284874054 106.55225543107372,645.6167770427419 108.59260956454091,650.7421316733817 105.10988088895101,652.7449801173643 100.5048846222926,652.182691046386 99.73592888889834,645.7611099959468 86.76533504005056,647.1197473514476 84.90673408005387,647.729401229939 75.9341275022598,653.8322199563263 73.94095928885508,656.2880507118534 76.4441432178719,661.9098590402864 74.86574506678153,663.4932996755815 72.357900800067,659.09533082298 72.50091491558123,657.9293533347081 66.78646698675584,664.1935063722776 65.6787629511673,665.5547600035788 19.99551061342936,657.673939233995 10.07073877332732,656.2816766968463 23.98796373337973,722.7957180863596 24.165930382325314,723.7223961330019 36.1307650845265,731.43515342311 36.355917653418146,731.6713653776678 38.99629027559422,741.0158680386376 39.007358577800915,741.3399055317277 36.982733084470965,750.788662660867 36.76748373336159,750.9374766151304 14.459903146722354,753.4135984262102 13.614634382305667,753.5478479290614 13.605313706677407,760.849985714769 13.757939768955112,762.0158658303553 25.797922417870723,763.8097253554733 27.276123306714,765.0848037118558 15.33633792004548,788.2833699973999 5.043108124518767,803.44878398953 5,831.0542086061323" stroke="red" stroke-width="3.851103148034288" fill="none" stroke-linejoin="round" vector-effect="non-scaling-stroke"></polygon></svg>