<svg width="2413.898053973331" height="1350.7709924347582" xmlns="http://www.w3.org/2000/svg"><polygon points="5,541.8283731264528 36.43863864894956,549.1271406671731 38.577442417736165,550.2538075720076 45.865919431089424,566.5071751772193 47.284701013355516,566.9806259510224 56.645280711119995,564.5648483976256 60.054026524419896,563.7791983803036 59.858001066721044,557.5442087513511 59.94713002664503,555.1202412790153 76.47035761771258,557.6097938591265 78.07671779557131,557.919750609668 75.92655445332639,567.9850209811702 76.5790017421823,568.0384747916833 81.03719736891799,562.215975562809 82.125677511096,559.1672097960836 110.35887758224271,565.6671793526039 113.95316309330519,566.050792818307 114.01345621328801,561.1693287678063 114.11540110222995,560.0858419287251 121.66252686223015,560.0278940987773 125.1440904532792,560.4011856658035 157.41751210670918,584.6040362012573 158.54152732447255,585.103948138596 213.2247657245025,592.8966777662281 214.6365567999892,593.1437050116365 217.5387821510667,586.8125334318029 218.26229959109332,584.8905986192403 228.55815082672052,582.1673421994201 229.36788451555185,581.084408301278 244.82039950217586,590.3495860642288 246.46345984004438,589.8007290661335 248.96314851555508,583.9756636944367 249.25995377777144,583.1316923541599 245.8465476266574,575.1697251168662 245.7116891022306,573.7507703247247 275.39512803556863,576.4435874389019 278.69989006221294,576.9525014525279 285.45038933330216,573.2270259060897 293.66365212446544,572.7437066189013 293.11606243555434,566.8831508753356 293.23082325339783,566.5655704892706 330.3742978844093,558.0140851858305 331.7887103999965,558.036545793293 331.30694798228797,547.92724303063 330.7643099022098,545.8737900923588 344.04248604446184,545.9784623000305 344.62095047114417,546.2996664022794 350.67793322657235,535.6475685854675 351.67990584892686,534.9736805365537 362.6252916621743,534.8784375253017 362.7712184889242,534.9206679221825 358.465940195485,545.3827734465594 358.40302563551813,545.6347958513652 361.7357496888144,550.6343034204328 361.38709816883784,551.2448024629848 355.7163409066852,549.0345991888316 355.0085521066794,549.2560697491281 354.09425208880566,557.4319054390653 353.7295806577895,558.1290834714891 347.36559815111104,560.8795908964239 347.1483099021716,561.8952439858695 349.27021994662937,574.4110638206475 348.9629289243603,575.4235099850921 365.3116851199884,581.0475767763564 365.7730585599784,581.6660760745872 365.74597034661565,595.4873060138198 365.6545112178428,597.0987978782505 358.98527658660896,608.2607935915003 357.59940863994416,608.5163365919725 356.1812095999485,626.26619044377 356.13052842672914,627.0830515198177 346.90771996451076,626.739512185799 345.64564223994967,626.5302448243601 345.31301063112915,629.5991800647462 348.79952583112754,632.9276284356602 340.13828807114623,632.0739661789848 339.44651918218005,631.9123043568688 340.0136240356369,636.5375816340093 339.83012323558796,637.1370643136324 358.2259327999782,644.7007334486698 358.56409856001846,645.8650770571548 369.18093055998906,641.0145774910925 370.5935954488814,641.1739873933839 369.6356047644513,663.4385954390164 370.07804558216594,664.2714818535605 391.3201564444462,661.3592840658966 391.634729244397,661.3076490043895 389.2023241955321,695.3913287781761 389.0301829688251,697.1892892993055 393.4062401421834,703.2694740506122 394.06101760000456,704.4954566241358 422.49781617778353,697.3329459335655 425.1740151466802,696.3605682536727 431.0640995556023,673.6377564896829 431.3591571911238,673.059475486225 423.5070705777034,670.6125397660653 422.95685944892466,669.8429840628523 423.8632951467298,662.1275225445861 424.19767438212875,661.6681961797876 445.98591857776046,653.4881643571425 449.2350478222361,652.980775013566 468.3878710044082,656.6110525641125 469.66567736887373,657.2477481092792 480.19017642666586,691.4815555096138 481.79158499557525,693.4941389721935 493.24320000002626,689.6817524244543 493.3891268266598,689.6453880792251 498.1068450133316,695.8375655486016 501.17684252443723,696.6344146660995 525.595847395598,696.9473174433806 528.0891281067161,698.8530069285771 516.6127550577512,711.4534849456977 515.6308801422128,712.0787988740485 492.182973155519,713.675967348041 491.99452074663714,713.6081844366272 490.3057308444986,726.8752801132505 489.75551971560344,728.677920047543 497.98101589339785,728.0593864009716 498.92327793780714,728.0360454745241 512.5894272000296,753.7602790809469 515.2286347377812,755.2669336292893 499.8704915911658,765.9115099874325 499.7219433244318,767.0693760897266 508.37094769778196,770.8691983789904 511.08559445338324,770.9715193635784 514.0367533511017,787.4180997221265 516.0406985955779,790.376639073831 538.7371261155931,787.7856195215718 540.7640817777719,787.3911751704873 541.7456654221751,799.3785562712583 542.5361752177123,800.780795651779 552.984361244482,808.4002956005861 554.6239263288444,809.4677493144991 579.3545912888367,798.8131708176807 581.0084286577767,798.7849015067331 581.3998970311368,802.268281390192 581.0267787377816,804.9439354782226 585.3428340621758,803.6808226137655 585.9268326400779,803.5219794865698 584.2360038399929,807.2031618440524 583.5553032533498,808.5515073083807 588.9869269332848,827.4965675192652 589.6670449777739,828.2512132362463 633.7261696000351,850.3689865759807 635.9080814933404,851.1634801159962 642.9446089955745,861.8841511664214 643.1263621689286,862.1847064105095 667.9604283733061,855.2579249260598 675.0493846755708,852.5824357300298 680.2963424711488,844.4198387864744 680.7877168355044,844.4970024325303 684.7574508088874,855.1282783983042 685.0836744533153,856.5018996545114 689.8217816177057,853.8865389153943 689.9720775111346,853.7604804319562 697.8352324266452,866.5907093192218 697.9397987555712,866.5081704729237 697.431530666654,875.3190170899034 697.492697599926,876.3542974983575 699.3352786488831,874.4200954772532 701.3264079644578,872.5181733409408 713.477947448846,884.4174754997948 713.6398941866355,884.8754386121873 716.4264849066967,883.3055317030521 717.6008900266606,882.5196769408649 710.9861230932875,875.5877060187049 709.5364667732501,872.854599447106 710.595528533333,854.0117001137696 710.4251349333208,853.5330366504495 736.6345833244268,832.3586478328798 738.2403609600151,831.4097497833427 737.8483100443846,826.8410735027865 737.0280905955005,823.2616198870819 728.0866500267293,818.708926361287 725.4722005333751,819.4025822289987 712.0434372266755,798.421887333272 711.9519780977862,798.2621429577121 736.1167032888625,787.9655648887274 737.0528486400144,788.040504686418 741.6392035555327,791.120642843307 743.3378966755699,791.3755241334438 746.6516881065909,804.5113818382379 747.0364572444232,807.2287378584733 765.0049720888492,803.0225651764194 766.8956128710415,802.8740419232636 770.5874742044834,776.6758387578884 769.6906504533254,775.7042615200626 788.4616172089009,764.5323847520049 789.6016523378203,763.8349650449818 798.664844231098,765.9124075604486 798.8285385955824,766.4002379364683 781.6449993955903,780.2398972589872 778.4890769065823,782.6196436940809 792.2041597155621,791.0892313962104 792.9122397867031,791.463027324935 788.4924919466721,802.4576378253987 790.39857009775,804.726761350641 815.0369021155639,787.3588657041546 817.7565004799981,785.7281289586681 841.2699434666429,792.4062646402745 844.0192514844239,792.9999366655247 854.4272420977941,779.0964609760558 854.6526859378209,778.6167365221772 861.5805693155853,780.033468857524 867.2227820088156,775.990125569806 875.212639857782,767.6438190195477 875.5146879999666,767.3570465261582 872.565859271097,763.5122842629207 872.2043918222189,762.7358737601899 889.9518318932969,758.3592008377891 890.1755281067453,758.3008565769996 892.570067911176,744.3588261333061 892.9641577244038,743.4194216912147 894.79101013334,745.4315286269411 897.1133147021756,747.8363379995571 908.3383207821753,740.4382558685029 908.915328853298,740.2964228203055 912.8565182577586,744.7524502099259 914.0880125155672,748.0306784791173 946.4496893155156,747.1101404115325 947.71526229335,746.3502784329467 950.6314686577534,751.1742128025508 951.5163502932992,754.6350106699392 965.5853275022237,752.7728918750654 965.7496044088621,752.6629325703252 962.4762996622594,770.1358965928666 960.760712817777,770.1341014814097 965.486295324401,777.8390331908595 965.4967810844537,777.956608828099 953.8980741689447,778.5395497019636 952.6141511111055,778.6077613119269 952.9546470399946,788.5246959356591 946.3762889956124,788.9487550490303 951.3937251556199,805.8749998076819 952.8250313955359,806.203451437992 946.033462897758,816.6674296788406 945.7788919466548,816.860363145126 948.6516989155207,831.3074569825549 949.2712325688917,834.1115186858806 944.683712568949,847.1896377876401 942.8254028799711,847.8917273800471 950.792832853389,855.0439408234088 951.3509083022363,855.1673069458338 951.0066258488223,864.9506925087771 951.0083734755171,865.0269517679117 963.5021565154893,863.5636665367638 963.9067320888862,863.9777117535705 975.6976779378019,847.2730811411748 977.102478506742,843.8177819642588 990.1126852267189,842.3032114463858 991.7924457243644,841.953279567475 989.9146208710736,863.5345083934953 989.9154946843628,865.6002411140944 983.8608420977835,869.8944805847714 983.1163531377679,870.7602264049929 992.5034385066247,870.0501356550958 995.9445154133718,869.7962428899482 992.0554635378066,847.6252476330847 992.1839140977245,846.8235633455915 1014.6511112533044,832.4636320457794 1015.1218053689227,832.3586478328798 1017.2306082133437,824.1840818066848 1018.0607308800099,823.5613307026215 1030.285961955553,823.3037947870325 1030.467715128907,823.2059849002399 1063.3134845155291,868.9798366011237 1064.4430338843958,869.9783638784429 1079.5378679466667,870.3228681921028 1080.701496035559,869.1323522923049 1090.9242382221855,878.9375430425862 1092.2967076976784,879.3116378970444 1111.8002212977735,877.2428943350678 1112.2886829511262,877.2572482170071 1107.2453236621805,882.2456139161368 1104.796898702276,883.7791962278425 1110.5896985599538,893.363955007284 1110.1583260444459,894.9378266673302 1100.2003492977237,905.9366722536506 1099.3757607821608,908.2531634711195 1110.1490053688176,933.5087314847624 1110.7146538667148,935.9132741970243 1110.335710151121,957.8592266904889 1109.7764696177328,961.8853203511098 1102.5858596977778,988.7818925239262 1102.6213947733631,989.1831483445712 1124.9286840888672,982.6481913044117 1126.4456240355503,982.8755013223272 1132.7836834132904,996.0622178654885 1132.3793991111452,998.0334547649836 1148.3751347200014,994.8849367150106 1149.3715731910197,994.3326076627709 1156.133140764432,1003.6583538972773 1156.3539242666448,1003.9501973650767 1152.419434097712,1008.6312956388574 1151.4145487643545,1009.045963868266 1156.9568554667057,1017.0567520524492 1157.6489156265743,1017.9824342535576 1165.5971217065817,1016.7062021322199 1166.284521528869,1015.8643421093002 1173.9673796267016,1024.05015082116 1174.7328401067061,1024.4239984410233 1207.2069475555327,1021.0284166567726 1208.179793066578,1020.924419131712 1208.787093333318,1008.7003323497484 1209.030013439944,1008.1197956952965 1223.456380302203,1001.4437379817828 1223.8839662933024,1001.4051837417064 1228.7668352000182,982.0474102425505 1229.0720873244572,981.3533715660451 1245.0986976710847,978.4023376540281 1245.4986129066674,978.3485353912693 1247.5969299911521,971.3716152476263 1251.1638360177167,971.4868454064708 1250.8408163555432,959.6133373833727 1250.8856721066404,958.5829335676972 1244.3853747199755,957.713050166727 1242.3252141510602,958.2399129474652 1244.8417965511326,953.4581945231184 1244.8624767999863,953.1317568338127 1232.9092929422623,940.4160033040098 1230.9158334577223,938.6657750885934 1243.3274780444335,944.7159538684064 1243.7702101333998,945.1392628328176 1253.7782855110709,938.0124067891156 1254.9908471466042,933.5477460955735 1246.2792194844224,924.9042708199704 1245.809690453345,922.6404258797993 1241.2122672355035,924.3903334272327 1239.8054277688498,925.4298669788986 1242.3272530488903,929.288385908003 1241.373631431139,930.1610726708313 1231.1491416178178,914.0839753419859 1229.8159937422024,912.1967485198984 1234.1157378844218,913.5700126111042 1237.3852561067324,913.4700005261693 1233.696598755545,904.3736435517203 1234.8048853332875,903.972681166546 1251.4399610310793,908.1531489633489 1252.1509538133396,908.271103288338 1270.8499766044552,882.7820773884305 1271.662914275541,882.3371178118978 1300.9210973866284,898.3380506171961 1302.6098872888833,899.6862847045995 1304.2823660089634,913.1071760328487 1304.4594588445034,914.17053264688 1333.3104449422099,927.1165198720992 1335.9901391644962,929.8027602831717 1367.0635238400428,931.5185286885826 1369.3814593421994,931.1920583681203 1393.5054065777222,912.5281804506667 1394.686219662195,911.6872662537498 1414.2546867199708,930.717599262076 1416.1412497066194,933.8060495509999 1444.5090170310577,924.2692485259613 1444.9625261510955,924.3786734025925 1447.3920184888411,927.5308936593938 1447.7494081421755,932.7531023094198 1443.2949990399648,935.2316459654248 1442.0250569955679,939.4868549362291 1425.4121179021895,939.7819227494765 1425.5230921956245,945.7078587585129 1429.4555434667272,950.4753969289595 1429.3530160355149,952.6631744119804 1438.2597953422228,950.1565777709475 1439.4114813156193,949.4431565710111 1454.2354332443792,958.9250568678835 1454.9312799288891,963.1636647478445 1448.523024213384,962.7619129791856 1447.3628913777648,963.3044570463244 1447.5961995377438,979.0564824432367 1447.3451238400303,979.836163096712 1431.505509546725,993.2360151828034 1430.7729627022054,993.8273508923594 1475.8704688355792,1012.8752198464936 1477.1960436621448,1013.5081927443389 1473.628846364445,1023.5203081400832 1472.2686102755833,1025.1981389103457 1474.9777228799649,1030.8277210581582 1473.8044828444254,1031.177351943159 1503.1241241600364,1044.5386617339682 1503.244710400002,1044.9353335009655 1493.291393991094,1060.6994306294946 1492.7921553066699,1061.033775715623 1458.301869226736,1059.166187461 1457.1621253688354,1059.355770578375 1415.8823096889537,1079.3874642692972 1414.6886806755792,1079.6352888460387 1415.767257599975,1090.5536332894117 1415.7352177777793,1091.2777991452022 1412.5763825777685,1090.5245052811806 1411.7710179554997,1090.4483243182185 1408.7881105066044,1103.9503150777891 1407.8904129421571,1104.3751095214975 1433.4057622755645,1124.2010727955494 1435.0616385422181,1124.780406528036 1421.2626696532825,1130.5942697135615 1421.0290702222846,1132.3720911081182 1432.1765981866047,1130.751980257628 1433.246436977759,1130.7918559170794 1432.4346643910976,1134.9935449395562 1432.3979642310878,1137.5862937427592 1450.8633875910891,1151.0154989923467 1450.907078257762,1152.299014737364 1454.6435040710494,1150.8618349990575 1455.012253297842,1150.8743790025474 1454.3662139732623,1142.0615920103737 1454.6245714488905,1141.8483352973126 1494.9327067021513,1166.4489986964036 1498.4390283378307,1167.1393168340437 1495.8181708799675,1186.2474114282522 1496.0127399822231,1186.773726165935 1514.3601985422429,1190.0973186192568 1514.4292297955835,1190.086120615888 1527.161272604484,1205.847417190089 1528.6811252622865,1207.6085057863384 1552.9812915199436,1206.4211609816412 1553.5035406221868,1206.4681890947977 1557.553082879982,1209.9213687537704 1557.243461688864,1214.6818305522902 1569.1104292977834,1217.7747989945346 1571.9570218666922,1218.48331821576 1577.7431224888423,1204.6797700450988 1578.488193991012,1202.8057886583265 1590.6898321066983,1208.1544762153062 1591.136933262227,1208.514126215945 1600.4616866133874,1201.5467544228304 1600.5645053155022,1201.2972757756943 1613.994142435491,1204.9175997137208 1615.8239075555466,1205.2691930083092 1618.306702506612,1198.2815626444062 1619.4292613688158,1196.2270199785708 1640.7004993422888,1190.0166929823463 1641.6718884977745,1189.6305853554513 1637.1816530488431,1177.9955273214728 1637.4918567822315,1177.4992039225763 1655.0566698666662,1169.1909958324395 1655.1603623821866,1169.0969236338278 1669.4512881777482,1189.812889157096 1671.5892181332456,1192.021575038787 1671.770971306716,1209.6490577248624 1671.9719483733643,1209.8470207102946 1683.6571628089296,1211.1982700796216 1692.7917161245132,1211.320988371037 1707.5693559466163,1204.146331942291 1709.3729066667147,1204.060784653353 1727.1783096889267,1229.004246263008 1728.4199984355364,1230.2169958098093 1754.7436251022154,1234.1350984285818 1756.9374791111331,1234.718172763125 1768.7997863822384,1226.060121098999 1768.882798648905,1226.0014531598426 1767.1943000177853,1201.2551734267035 1767.156434773351,1200.9228333248757 1781.0197745778132,1212.214948746434 1783.8538424888393,1216.8517499823356 1796.3225762132788,1211.340694951592 1796.8655055643758,1211.1691580661573 1795.6590606222162,1188.2259003749932 1795.9555746132974,1187.1450572520262 1811.99907868437,1189.6287936712033 1812.1327721243724,1189.61132474849 1816.2143542043632,1178.8873836073326 1816.4540703288512,1178.6396709990222 1816.2021208178485,1171.4599154671887 1817.1679758222308,1168.5853493530303 1812.0893727288349,1172.6178841749206 1811.0833223111695,1173.1151145126205 1809.76211655105,1164.5715553318732 1810.2444615111453,1160.3847674768185 1825.709792426671,1165.5897937270347 1826.306898204377,1165.9553370235953 1836.2098247110844,1156.5540509839193 1836.078752711066,1155.6078971764073 1846.2921742221806,1169.673003227741 1846.4098477511434,1169.6801706160186 1842.9949852444697,1174.5539404643932 1842.9043999288697,1175.4252050225623 1845.5811814400367,1194.998853839119 1845.4579737599706,1195.8252464719699 1851.5164128710749,1197.8376898914576 1855.4529419377213,1197.971165344352 1848.5466126222163,1208.075200855732 1848.6138962488621,1212.0335592851043 1864.904980764375,1211.5673205008497 1872.8438661688706,1212.6888000153704 1868.6958742755232,1214.9550310819177 1862.8288002844201,1217.852279399871 1865.376548693399,1220.6948508728528 1867.5546740621794,1227.2267589264084 1879.606016284437,1228.3911513484782 1880.7798388622468,1227.8846414032741 1880.799645297695,1234.3048260635114 1880.2666191643802,1235.2994542384404 1888.7635800177231,1239.7929141490022 1890.5406250666128,1239.6200560195139 1892.006010026671,1250.5904560266645 1892.5434052266646,1251.4430594895966 1910.1239469511202,1259.4996406377759 1911.2546614044113,1260.1717553613707 1922.4467538488097,1279.8645653736894 1923.2430890665855,1281.0833025163738 1932.51716124441,1275.6141555007198 1935.2484104533214,1274.0215178802027 1930.9241995378397,1265.3381488658488 1930.8863342934055,1263.151245173649 1937.1137106489623,1249.7647171660792 1937.95257144887,1249.4109560756478 1954.3892915199976,1250.9513799552224 1956.2103185066953,1250.0566815864295 1958.2183415467152,1256.3781535064336 1958.512234097696,1256.7430979863857 1979.565018737805,1253.7491919855238 1981.2369149154983,1252.35655952862 1987.903819377767,1263.003032854118 1988.3383958755294,1264.5469435933046 2009.3011777421925,1267.385776674957 2010.4945154844318,1267.6965236841934 2009.441861688858,1262.7755648097955 2011.2777435022872,1259.233659959631 2003.430317226681,1256.4090506699868 2002.4437819733284,1255.7324465733254 2020.5288052621763,1253.8768122032052 2022.193710933323,1253.4473810704076 2021.837486364413,1246.1988688692218 2022.8275168711552,1245.993325931253 2042.3860807111487,1257.5217934454558 2044.68916138669,1258.6452773154015 2054.4388792888494,1253.6323186684167 2055.1166671644896,1253.1160154932877 2107.789261084399,1268.0677180227358 2110.090885404381,1267.8353298432194 2110.372835839982,1282.9830324956565 2108.792107520043,1288.2661923780106 2115.4875565511174,1289.1992389430525 2116.653806079994,1289.3344497768558 2116.1172846932895,1296.8770230362425 2118.245020159986,1297.7854095072253 2145.650427733315,1298.649917737639 2147.1600859022,1298.089845729759 2152.123345635482,1306.1326293596067 2151.996351431124,1307.1708052506438 2157.7431304533966,1294.4155409707455 2158.0210030933376,1293.5711629979196 2171.4943308799993,1293.6866719472455 2175.191435093293,1292.594707012584 2187.4061804088997,1285.4858333921293 2187.8832824889105,1284.736339298077 2181.6789165510563,1280.034257688094 2182.215729208896,1279.1302752207848 2187.248602737789,1280.312302067643 2187.9540613688296,1280.232157266466 2194.404260124429,1285.6371646255138 2194.4826120532816,1286.7081211443292 2230.350027946639,1290.7953482820303 2230.9611147377873,1291.0312938963762 2230.972474311013,1296.9088099106448 2230.245752888848,1300.3207235920709 2238.6530022399966,1310.3336524106562 2240.024015360046,1310.9120478456025 2243.1435289599467,1324.2214374217438 2243.577522915555,1324.6735602096887 2241.9155299555277,1333.49469258124 2242.459915662301,1334.9467926836223 2250.546184248873,1338.134306766733 2251.369025137741,1338.9820944722742 2272.582882702234,1337.1692392738187 2272.5680278755026,1334.2108960502665 2293.607705315575,1344.1076937819598 2294.0326698666904,1344.5257576524164 2292.696900551091,1338.2099542714423 2291.8921184710925,1336.7323613159824 2296.9826636799844,1335.0336319048074 2297.2183020088123,1334.0143879557727 2326.7272695465945,1342.141798196244 2330.9355545599246,1345.7709924347582 2323.8404815644026,1336.7538471374428 2323.4105654044542,1335.3102638343116 2332.4752136532916,1327.803030165669 2332.6220142933307,1327.6342700131354 2331.7875225599855,1315.5633304032963 2331.4513956977753,1314.5851814661874 2336.001341724419,1310.6770189243834 2335.9159992889035,1309.6684062433778 2326.448231822229,1308.3504428829765 2325.2522726400057,1308.1257078526542 2330.7296258844435,1282.4882894092007 2330.7540926577058,1281.6962504202966 2325.115375217749,1278.8159624662949 2324.4244801421883,1276.994103756384 2341.035671608872,1265.3421787664993 2341.3048061155714,1265.1859081179136 2330.5231146665756,1265.7894972867216 2329.398225635523,1259.0693249352043 2339.5152364089154,1258.4822851931094 2340.5862402843777,1258.136150422506 2342.6731977955205,1242.7637240638724 2342.9015543466667,1242.2241090289317 2363.3246108444873,1232.2470375844277 2363.834626559983,1232.111343782104 2362.387591680046,1224.4662285412196 2362.1231175110443,1223.343017736508 2371.1003844266525,1209.5675435024896 2371.6523431822425,1208.9687265573302 2408.401145457756,1202.2862307588803 2408.898053973331,1202.1169262814801 2374.1954312532907,1194.0801882444648 2373.519391004462,1193.466995858238 2368.965658453293,1185.8863811853807 2368.3589407288237,1179.559744992992 2374.8254506667145,1182.1627182664815 2375.8719877689146,1182.5394323735964 2374.8408880356,1173.1782761235954 2374.5062175289495,1170.2168281454942 2371.2495152355405,1174.745215807401 2371.3080607288284,1176.395462669083 2355.4055318755563,1160.253509088303 2354.0869475555373,1160.1643608547747 2352.815840426716,1158.1332048660843 2357.2955901154783,1157.6677476394107 2353.109441706678,1141.6633035696577 2352.979243519949,1141.3810514814686 2348.096665884368,1145.7577101310017 2347.9053007644834,1145.858512481209 2334.824023893336,1126.8956561589148 2331.555379484431,1123.2861435565865 2336.119015253382,1117.2072784113698 2336.711751964409,1111.832179430523 2334.0827389155747,1097.4254946490983 2334.1549741510535,1096.9984462120337 2342.147162168869,1096.9697671687463 2342.599506204482,1094.7601252389723 2330.252815075568,1090.450564935105 2328.046727680019,1090.144048326125 2324.954884835519,1081.1334339935565 2324.810996906599,1075.5934277849155 2337.457406008849,1064.9096317275544 2338.9501704532886,1064.4592148785596 2331.513436444453,1043.4880383599084 2329.0883131733863,1041.2249677776708 2338.931529102265,1024.8987033142475 2345.490954524488,1025.0143536378164 2338.55695445335,1018.5338072691811 2338.3230637511006,1017.5601622759132 2325.297128391103,1020.9947967726039 2322.0809127822286,1022.0809405607288 2337.233127253363,1012.6690101512941 2337.4000255999854,1012.529594356427 2326.787853937829,997.6084545376361 2325.897146879928,997.436302312708 2320.2284285156056,1014.5634423709707 2319.857349119964,1014.2639922701637 2323.398040746688,998.4472463899292 2323.661641102168,997.0924457716756 2317.2956196977757,995.8205753720831 2316.861917013419,995.4220215872629 2340.1676836977713,996.3276208171155 2340.9584847644437,996.2334745365661 2345.407359715551,989.4073132881895 2345.7510596266948,988.1282250466174 2317.4628093155334,981.742535641999 2316.401708657737,981.6237241020426 2317.3349412977695,991.4189592482289 2315.8136322844075,991.5722865328426 2286.851089351112,972.2755202393746 2284.1984833421884,970.2713211128139 2290.600331093301,962.2193675711169 2290.7386848711176,961.9054977144115 2287.2032361244783,956.4405031874776 2286.0486374399625,954.2926710797474 2289.050186239998,951.7264549740357 2292.9540929421782,948.3575501578744 2284.109063111129,945.0141535946168 2283.913037653314,944.8455474834191 2283.365156693384,933.0939205384348 2282.9288325689267,931.1826409478672 2294.3775348622585,935.049579119077 2295.772723484435,935.5666306306375 2298.859323448851,931.4306328808889 2298.9292285154806,930.3722928406205 2295.7336931555765,921.80582897563 2295.4992199110566,920.9308666427387 2311.7294287644327,924.2952593622031 2314.8250581333414,923.8867094917223 2314.8005913599627,904.0857041949639 2314.859719395521,901.1049265996553 2292.033676231047,887.6747790361405 2291.2047186489217,887.598976184614 2292.067172408919,881.8665900200722 2292.186302293325,880.6227590733906 2319.602195626707,866.7647585239029 2321.070493297768,866.712723209057 2309.7557757154573,854.9708183254115 2310.2754033777164,854.4818390313303 2332.1993799111806,847.4063212689944 2336.3564012089046,848.251519386773 2340.7732363377,832.0629868948599 2341.2191724089207,830.7888138028793 2332.3555012267316,829.1592971505597 2333.207469226676,824.7292119058548 2342.5863990044454,822.5154817519942 2344.180817066692,821.5575676783919 2344.5067494399846,803.4748649775865 2344.745009208913,801.7195057744975 2355.5829159822315,761.8472618355881 2355.74515399104,760.8904292131192 2355.5039815111086,748.8641413542209 2355.255818524398,746.9243267981801 2328.291686684359,741.6083750170656 2326.8921289956197,741.9732785610249 2334.7884888177505,704.7639059398789 2334.0489514666842,703.2560066096485 2308.167183075566,693.8259014592622 2306.681991679943,694.8858321043081 2303.307324586669,686.3779597040266 2301.2815340089146,684.4591421716614 2286.480592497741,676.2063293810934 2286.229225528892,675.6936049461365 2268.8237377421465,680.0728256566217 2268.0728408177383,679.9789925434161 2265.576938666636,695.0312859735568 2265.8344223288586,695.5313951459248 2258.624005973339,709.6726996187354 2257.7772808532463,711.1015486844117 2253.5014209422516,709.8455266578821 2252.6022670222446,709.8778475435684 2275.8247301689116,648.6544473961694 2277.3839044265915,647.4164778501145 2271.245657031075,635.6520506622619 2269.6987161600264,633.7372797826538 2257.174058382283,634.6389844749938 2256.946284373291,634.8217498646118 2266.206084266654,612.0521408938803 2266.7723153067054,609.934168180509 2262.4274241422536,598.7655207319185 2262.1515903999098,597.6471874753479 2271.2255593244918,571.2676896346966 2271.848296960001,569.8015448490623 2259.36674730666,524.3592211942887 2258.1681666844524,523.288581608911 2277.768673564424,511.65138488751836 2278.5507364977384,510.82286085397936 2295.087945102132,480.71440117567545 2295.2589212444145,480.24166277144104 2290.776550115552,462.1591026898823 2290.320710826665,461.16366022155853 2293.328667591093,440.9437394257402 2293.0688537599053,438.9589495987166 2286.6798219378106,434.06656366289826 2286.1534950400237,432.98020095017273 2282.647173404461,416.74974117509555 2282.71795228438,415.51091068063397 2301.8445610667113,394.83273472002475 2301.8987374933204,393.6571667426033 2301.3680415288545,368.9157292202581 2301.275417315541,368.4333079314092 2291.6226926932577,358.3525730873225 2291.5035628088517,358.0409850694123 2263.9131980800303,362.8977510922123 2263.905916302232,362.2111920170719 2300.7901596444426,341.4137718093116 2300.9299697778188,341.3867924232036 2296.3211869866354,315.7868037832668 2295.8970962489257,314.12197467382066 2266.5879406933673,303.83411139575765 2266.52036579547,303.817021519877 2255.373711644439,285.6929072957719 2252.605179733364,283.24748974479735 2219.809508977807,283.9450909505831 2216.83184440888,283.53984384110663 2193.757638257812,271.31146321998676 2191.5069863821846,270.8697588345385 2142.9322857244406,279.17428192601074 2139.663058773265,279.76304864964914 2105.2552024177276,259.78502602520166 2104.2407051378395,258.72073980612913 2028.2340912355576,244.68841154954862 2027.844079217757,245.1076760373544 2011.4772642133757,230.57195553393103 2011.3159000177402,230.51392048608977 2008.5575625955826,237.3803946255357 2008.65630350227,239.87985832698178 2001.2186956800288,241.08684255270055 2000.1217686755117,240.75529369083233 1992.1971555554774,217.60231458226917 1990.6362336711027,217.0822172196349 1975.4650865778094,217.45249427488307 1973.5368718222016,217.95549418055452 1972.0505153421545,236.99170656234492 1972.24304554658,238.43758667760994 1987.4226395022124,243.64204624691047 1987.2120504889172,245.1828016708605 1972.9246199466288,248.00831651466433 1972.7099531377899,248.0393560390803 1974.5673890133621,255.51525479694828 1974.8834181688726,260.7809341425309 1969.9571498666191,270.04662099375855 1968.7585692444118,273.0373403483536 1959.1445836799685,272.55020987044554 1957.8420192711055,272.81469081825344 1952.9722575644264,280.8222850266611 1950.5870384355076,283.7795739087742 1960.2307336532976,300.14311697910307 1958.7135024355957,300.30502372886986 1945.0802668088581,284.55408464185894 1943.827801031177,283.6194540427532 1927.8812902399804,243.24617157003377 1925.5662674488267,241.0427560301032 1896.3220653510652,257.73696768213995 1894.7101710222196,257.9897710001096 1845.5083636621712,227.25673500844277 1845.2779682133114,227.03538860182744 1829.6492342044367,234.35589743137825 1829.216405333369,234.45127117726952 1793.9778437688947,236.19588359538466 1791.1321250133915,237.82666525477543 1786.0459488710621,210.91788959520636 1785.9678882133448,209.27026019251207 1790.171512888861,205.28206385677913 1795.9523706311593,202.2688217664836 1791.1187265422195,187.59886521589942 1790.7298796088435,185.44528703199467 1805.1466345244553,185.7274222789565 1813.0508586666547,185.90651272569085 1813.6042737778043,175.54107452050084 1813.6596152888378,172.02251879271353 1817.3383694221266,173.4256278554676 1823.070293617784,166.8483076498378 1821.7071448176866,156.01932927162852 1820.1639904711628,152.94735348934773 1829.780888746609,109.65428292436991 1823.5535123911686,106.629821265582 1837.2065544533543,94.2308471633587 1838.6425210310845,94.13496214797487 1833.3475035021547,83.4531984727364 1831.9980444443645,82.43397395312786 1818.121597439982,80.56118154409342 1817.2457452089293,80.17986824153922 1835.5329106489662,61.865693098981865 1836.257884444436,60.92065646906849 1828.7404683377827,51.650616798200645 1827.0624554667156,49.82168601010926 1822.1941501155961,54.795153352664784 1819.6909661866957,55.062148719560355 1784.683965155622,51.978399923071265 1783.824132835609,50.87212990911212 1781.559791217791,61.45778355340008 1781.6034818843473,63.642747115693055 1743.1571515733376,120.51256168307737 1741.012522382196,123.68536580866203 1721.1300650666235,136.7069292643573 1719.9049787733238,138.33440145710483 1713.5296366933035,156.2227460113936 1712.762428586604,158.1416946274112 1716.8408066844568,160.74016906286124 1717.3741240889067,163.0285471426323 1712.2806661688956,165.6593648334965 1712.1854205155978,165.73901790380478 1715.0133717333665,181.9921381411841 1715.0850244266912,182.3966732553672 1708.7029831110267,180.4176389623899 1708.2215119644534,180.74162942991825 1701.9061717332806,199.40627086278982 1702.1272465066286,201.94531309523154 1737.3020196977304,211.89332355197985 1737.6055241954746,212.61319822398946 1711.6194807466818,214.45921601983719 1709.1305691022426,215.50797035527648 1721.2765744355274,224.98027551022824 1722.3854435555404,228.39000710914843 1702.6460003555985,245.3159584189416 1699.0595791643718,247.63314278505277 1708.2797661867226,255.8688230853295 1710.1838054399705,257.60426831489895 1692.4017041067127,256.3883785038488 1690.6820394666865,257.6150641986169 1688.2781789866276,273.86001715331804 1688.4427471644012,275.2678713289206 1661.8045476977713,288.92448673117906 1660.836653795559,289.6944816445466 1651.2949034665944,307.14547455799766 1650.4694411377423,308.6673446255736 1643.8395281066187,303.77429682429647 1643.3239782400196,303.2589014187688 1634.5878838044591,310.7045832173899 1634.2677768532885,311.0216352015268 1615.5055482310709,300.2407107842155 1615.0211643733783,300.3302092124941 1617.5703691378003,302.9737694080686 1617.192590506631,303.9838726196904 1612.8019697776763,303.32141453871736 1611.9770899910945,303.3699858713662 1609.0620487111155,313.18612109625246 1608.933306879946,313.68080633028876 1612.4157442844007,318.6977509101853 1612.614973724354,318.9833121551201 1604.372875093366,321.9733633683063 1603.7446033066371,322.1028758690227 1596.9017710933695,334.6076666897279 1596.642539804452,335.1342300705146 1601.8510498133255,355.86165504175005 1601.3911327288952,356.1808898031595 1594.4390738488873,360.0494385838392 1588.6465652622283,363.73987333255354 1579.5324009243632,346.4368259488838 1578.8182041599648,345.4282674314454 1560.9338666667463,333.4655009495327 1556.5799460978014,333.1741128307767 1536.510784000042,351.0559916032944 1536.3066029510228,351.4044597034808 1540.665475128917,367.63481518789195 1541.8031800888712,369.5622530094697 1536.0785376711283,375.63714552106103 1534.5918899200624,377.01017737202346 1512.0323598221876,365.1291656285757 1511.9848826311063,365.06442210567184 1501.781364337774,368.4351063351496 1501.0112435199553,367.80881132092327 1502.0883640889078,389.55454242543783 1501.2742613332812,390.35655172989937 1494.083360142191,389.93396871787263 1493.759757937747,390.01938449882437 1479.971274808864,367.52466252585873 1477.9571350754704,365.9694808674394 1467.6164280888624,368.38340222020634 1464.5883736177348,365.077910341206 1457.0141596443718,349.33792335691396 1456.1869496888248,348.1962840608321 1458.6621715910733,344.1728461510502 1458.3175978666404,343.5532265492948 1448.4650612621335,339.4559590612771 1448.1333034666022,339.2019007729832 1438.6824297244893,314.5433548206347 1438.6553415111266,313.8134717257926 1427.5850003911182,305.64023392129457 1427.0449837511405,305.06682761153206 1429.5009817599785,300.63198505016044 1429.9900259554852,299.5373148288345 1420.6550781155238,295.2246926741209 1418.498215537751,293.48189969628584 1422.7551428267034,284.5774728443939 1423.0804926577257,283.99231725750724 1399.583069582237,267.2735682873172 1398.825473422301,266.58535998745356 1382.8629427199485,258.7544767690124 1382.6587616711622,258.7490788552095 1380.7558875022223,270.9525222494849 1380.8488029866712,271.83278120087925 1348.397414684412,268.64862898166757 1347.0721311288653,268.7462368218694 1321.9596097422764,277.8757510972209 1317.4332566756057,277.32611085881945 1294.1548694755184,260.1642273463076 1293.023863751092,259.4179693166516 1293.505626168917,248.51169608463533 1292.096747804433,245.3272047622013 1282.2989701688057,246.23680709290784 1281.301366613363,246.16033226496074 1297.2001089422265,242.94521636521677 1300.5220559644513,242.31001508352347 1298.05848490668,228.99870542332064 1299.0339518578257,228.78006010386162 1274.3481426488142,224.7328328343574 1274.1867784532951,224.76252597011626 1274.5488284444436,217.64415627147537 1274.6618416354759,213.20529336784966 1323.697624462191,211.28097829630133 1330.2183108265745,210.18541142425966 1328.2609689600067,199.08140811586054 1328.999923768919,197.29195467743557 1339.443449457758,200.0474459225079 1340.531638328801,200.09424037963618 1343.0610366577748,180.53013570682378 1343.0723962311167,178.74863047082908 1339.4332549688406,154.92933635262307 1339.2529581511626,153.31908915378153 1344.0268916621571,117.1497622091556 1343.9788319289219,116.14914947480429 1348.2663426843937,113.79906442278298 1348.7245121422457,112.76332653209101 1336.7022970310645,92.94652466691332 1336.623362560058,92.59089249954559 1277.00861297769,96.93496736872476 1275.8065371022094,96.11702742485795 1272.1405988977058,87.85327670827974 1271.8437936354894,87.5629120861413 1277.5856210488128,80.58909347176086 1278.8095422578044,77.85775943193585 1280.9163062043954,66.92442865320481 1281.6060361955315,64.14159829699202 1278.067092195619,59.04452830424998 1276.2032483555377,58.32639963639667 1248.2604455822147,64.04434941941872 1248.1398593421327,64.64540081797168 1204.462591146701,61.127313231816515 1202.908659768873,61.179089950048365 1202.3179619555594,62.40912108053453 1204.092385564465,74.75182160030818 1169.6055947378045,98.2215172428987 1169.404326400021,98.33360607957002 1130.3055487999227,86.3492288129637 1129.6021290667122,86.3384244806366 1129.7873774933396,90.25405967026018 1129.8167958755512,91.61357631452847 1106.699190328829,91.92149215645622 1106.7443373510614,89.0052776694065 1071.1967371377395,97.51342057459988 1070.4368108089548,98.38627430819906 1051.1450513066957,81.64119046868291 1050.3644447288243,81.60067334806081 1047.3876539733028,88.06305928097572 1046.8368603021372,88.47857223794563 1040.060437902226,85.80676063371357 1039.135652124416,86.5842229098198 1025.9786447644,105.64851649594493 1025.5793120710878,105.82497162296204 989.030030506663,83.68909605086083 986.7065608532866,81.93831579072867 994.3055328711635,36.037575849564746 994.251938986592,34.1837487439625 988.5203060621861,17.970535153057426 987.5561986843823,15.066394564928487 990.2198729955126,9.950618218514137 990.2953122133622,9.09407425741665 981.9460258133477,5 980.2010205866536,5.065750780282542 957.4140077510383,10.097428255947307 957.0703078400111,9.826324981055222 961.9986150399782,32.35782401316101 961.5660774400458,33.02785685536219 941.0483578310814,53.90276512497803 939.2238355911104,55.77398469118634 908.8227046399843,67.73437376221409 906.4736031289212,68.98958016035613 912.2664029867155,79.07103959762026 912.5573828266934,79.86878452380188 890.5142764089396,88.34306918259244 887.9190508088795,90.1932863779366 881.0188381866319,112.04672447999474 880.3477495466359,112.3451589110773 883.004142079968,117.72771187999751 883.4847394132521,118.5563738157507 880.4220236799447,133.49110585346352 879.823461546679,136.57100598409306 864.9785380978137,141.7891391616431 858.6899948088685,147.21867406944511 843.1442730666604,134.4979404603364 841.885108053335,133.0063653232064 822.2883876977721,150.50720371154603 819.9095765333623,154.72501833114075 812.1652602311224,146.60029716405552 809.5193534577265,143.85133414564189 765.6029516799608,143.90759192081168 763.0621937777614,143.68256073340308 762.7077168355463,151.1120681616012 762.6954834489152,151.59361827746034 741.110546488897,140.02217095647939 737.8319988622097,139.34661464672536 725.9612447288819,147.0661052573123 724.536346453242,148.81411442277022 705.1609921422787,145.54446181666572 703.736385137774,144.89052543521393 714.6407017244492,130.4647230800474 714.6188563910546,128.70261449174723 691.4727062755264,125.11894146690611 689.8881914310623,125.96332888962934 690.129946453264,121.35246578953229 689.8506174577633,116.59386681031901 696.7138386488659,112.24523068533745 699.4576125155436,110.64052117196843 698.6947734755231,89.7098004744621 698.5176806399832,87.54085336264689 685.8567079822533,86.5608135475195 682.9139959466411,85.89409585052636 677.4322736355243,67.19636164209805 676.012618239969,63.2510490915156 658.594023253303,76.78268403979018 656.3780326399719,78.3151600912679 637.9184347022092,40.05857508309418 637.9353284266545,40.03741212259047 600.8614675911376,52.66953443578677 596.0219980799593,48.796001246897504 589.8289917155635,59.77346026006853 591.3328244622098,62.18400609033415 601.8710132621927,53.88205375050893 605.8089986843988,59.69827097363304 597.0498938310193,67.91040923981927 595.2577026843792,68.28679152519908 591.9826503110817,80.75836573046399 594.5866140444996,83.4667040660861 585.5056546132546,91.32906889426522 584.5631012978265,94.06338598229922 579.9071325866971,84.7119161967421 576.0128378311638,80.06641952740029 562.5633942756103,78.15534008771647 558.0498571378412,77.37964866583934 560.2681779200211,70.2362253004103 548.2663517866749,56.37415831920225 553.4337925688596,43.89173882396426 525.9730434843805,47.42496208718512 523.4357808355708,46.63745492242742 521.3534836622421,63.52343687217217 521.2229942044942,64.67106364993379 510.1532356266398,59.42587843199726 507.3267407644307,59.69466909096809 506.13951971556526,71.62873168196529 506.25923214212526,73.84825958736474 465.26660977781285,73.5547249368392 463.6116073244484,73.35933508933522 462.96818943996914,83.66433582082391 462.7503186488757,87.96311996888835 443.6286614754936,83.40322776988614 442.63193173334,83.1416692204075 438.53811626671813,95.0830065116752 438.049072071095,98.159395694267 425.1740151466802,98.28093783813529 425.07731313770637,98.34215904062148 437.88770787557587,125.49342499021441 439.09386154660024,126.88648006878793 423.85834353778046,139.47038427984808 423.7601851733634,139.5140411882894 380.31797276448924,150.78398341062712 379.6617389511084,150.6701212353655 380.6211859910982,155.03374548826832 381.12712391116656,158.60027765313862 366.7983328710543,163.725631405483 365.02798705769237,163.77603379671928 368.97500188439153,180.11434745119186 369.1829694577027,182.18383118056227 367.2865032532718,198.77364296361338 366.9591145244194,198.94192396302242 354.6834935466759,198.93427482957486 354.40562090673484,198.98556901398115 323.68176156445406,169.86338728142437 321.5677158399485,169.29052534664515 278.39434666663874,174.68382833525538 276.2805922133848,174.92907758662477 270.29671850660816,159.55434328404954 270.19943395559676,157.75646614201833 254.24447630229406,168.5835585515597 253.13735480885953,169.4322784394608 244.99108437332325,179.60676071816124 244.2594113422092,180.8334266419406 246.20888888882473,189.11031707015354 253.4193052444607,213.38211174402386 244.9704041244695,211.0060747625539 243.5851187199587,210.9655815778533 226.23147719108965,230.97730067139491 225.141540693352,231.16895083029522 220.48731960891746,259.0441646098625 220.47712511999998,260.20426161115756 212.52542378660291,262.5136415360612 211.89919089782052,264.4195138721843 219.43029674666468,271.7387731321505 219.4463166577043,272.31226670375327 180.81124266656116,263.28058059269097 178.57602816005237,262.4538156786002 169.0666089244187,272.84482723253313 167.2717963377945,274.05252937669866 141.25021781329997,284.0435915220878 136.0323871289147,286.5533171669813 130.87834481778555,291.39997475838754 130.3327940265881,292.2801515312167 135.4175138133578,306.74386819347274 136.3344352710992,310.3322151945322 126.71870207996108,311.03962395281997 126.30014549335465,312.47781983879395 132.07051747548394,318.56149084639037 132.56946488888934,320.05225228169 108.79912078229245,320.2496706069214 107.76394325331785,320.1876120181987 107.1144086754648,321.5155720402254 104.36247921781614,324.4394840828609 105.96272270218469,341.8180125467479 105.84446663118433,348.71022481896216 100.14283463114407,349.45932616165373 101.08480540441815,353.66117066470906 79.22286961774807,360.9374326443067 82.6394797511166,364.7888123113662 68.0928179200273,364.1355302883312 64.76213276444469,365.33598508755676 65.85993358225096,368.9305660183891 66.34868650662247,372.18519573670346 60.70152220444288,374.1944187611807 58.815541759948246,374.71773988060886 61.167555982246995,379.4172334004543 61.791167431045324,383.37753381673247 48.15822307555936,379.8402862754883 47.11547249776777,381.024470319564 57.87648369779345,386.5128145357594 57.89629013335798,386.7011817075545 41.130142435547896,382.284625732922 40.12583964446094,382.1735812909901 37.24371199996676,396.9055851062294 33.28038599109277,397.2301545685041 33.64738759107422,410.9331105296733 33.35145614226349,411.38891699246597 36.64981020439882,411.8923707604408 38.16995413333643,411.8640515166917 39.33329095109366,419.4269576080842 39.35193230223376,419.56045797414845 50.24139406217728,418.78507592401 51.0129712355556,418.9383545643068 49.43632071116008,429.7390595031902 49.45117553777527,431.91495797556126 36.48582456889562,432.36847344459966 32.68007623113226,432.16396460297983 24.25272917340044,442.4965912143234 21.748380160075612,447.6647442919202 27.90089984005317,449.5681076392066 29.65755591110792,450.07282199454494 28.509365191101097,459.85721938480856 30.382820977829397,466.783918527537 35.68424647115171,464.64521735871676 36.23241870221682,464.5094974376261 37.96111274661962,470.5170457804343 38.152186595485546,472.43459105846705 34.36071054218337,475.65398017747793 34.82208398217335,477.00032151315827 40.66148721775971,477.60653191735037 41.902010880061425,478.9205063106492 40.59857265779283,484.44998731964733 39.94903807993978,486.4653709398699 46.498269013362005,490.4160981660243 47.05605319107417,490.8721886824351 38.005094684427604,501.4604114787071 35.83541617775336,503.59470949927345 37.05438577779569,508.33142887963913 36.91253674670588,509.8856004982954 17.36212849779986,516.7657890175469 16.71405027550645,517.1063556598383 14.169797120033763,529.706050896435 13.473950435523875,531.6006150849862 5,541.8283731264528" stroke="red" stroke-width="3.3462432003735927" fill="none" stroke-linejoin="round" vector-effect="non-scaling-stroke"></polygon></svg>