<svg viewBox="0 0 124.27124855112858 101.05971781061022" width="124.27124855112858" height="101.05971781061022" xmlns="http://www.w3.org/2000/svg">
  <title>Jáchymov, okres Karlovy Vary, Karlovarský kraj, Severozápad, 36251, Česko</title>
  <desc>Geojson of Jáchymov, okres Karlovy Vary, Karlovarský kraj, Severozápad, 36251, Česko</desc>
  <metadata>
    <collboard>
      <support-module name="@collboard/map-svg-geojson-import" version="0.11.1"></support-module>
    </collboard>
  </metadata>
  <polygon points="8.05255000000011,42.50944590093388 10.834334746679588,45.982861921227254 11.131140008895954,46.13391466951691 13.922099795577878,44.50131241259044 14.205943493354198,44.537164196961044 11.38920621333068,51.82291898680671 11.498505697767314,51.99907107325964 19.225855457778152,50.00576775866614 20.450796115568437,49.7382759417593 16.861098124448972,52.70424449328095 16.750415102236502,52.82651015056001 22.147960062233096,56.31901316044207 22.410249697779136,56.75370523811546 19.247992062220646,58.29530435408344 18.70426171556005,58.27407270565857 18.293860720011935,60.62388626453287 18.371120382223808,61.01094623335632 20.91107728888869,62.86242663695123 20.937364506658696,63.17505246436451 18.668653822219994,64.27898728536786 18.615059937794058,64.79933089682129 32.07477080001968,63.49315509651899 32.57808728001669,63.44886966078013 38.71101897778112,65.9397550428472 39.09942900442525,66.11175247815083 41.80628425777081,77.33879685981776 41.828202408891,77.47892193253904 56.20243174222537,77.16421055378271 56.985659759993496,77.07862882577285 59.6903304799996,78.91940492936521 59.796717253316956,78.94313880257653 59.997621502239554,84.46862645951444 60.219788542228116,84.70263172517991 71.72208472001489,92.594669132675 71.8194420888974,93.00716781061021 73.62889104890178,91.89571854820645 73.94011423111783,91.92766034155613 74.93211081776076,87.23041747023638 75.4665204888804,87.31974805563334 78.61814672890591,70.77442117204885 78.76844262221834,70.3837790039612 81.89778662223375,70.08751447099314 82.13742992887978,70.20255112299458 83.13765492442303,75.11101056871814 83.19314207111142,75.36388483922167 88.22164653332561,69.78748221253738 88.75612902222906,69.99404701140122 88.93715401777422,63.81662029999245 88.94115899556323,63.78043886116177 95.25278552002396,54.94254134073674 95.44138356444432,54.78591950803059 107.23677129779367,48.498982704135074 107.47328343999811,48.309918064922044 113.99411544000736,51.446867185011456 114.26791028446291,51.21580066651916 112.57358623113373,41.84615921925399 112.39911483554874,41.232648917160645 115.87769289778203,36.101521540905765 116.21869855112868,35.698867053149684 106.96916596443748,16.567730355389017 106.64694729779853,16.03161533227069 85.65307224001276,8.456552645402212 85.15135775111389,8.052549999999997 59.42396304888075,15.197216507490907 57.495529840008885,15.52496861975635 42.10556532446185,14.786752454899784 39.90479362666497,13.237973763585273 36.49597499555216,15.622185752210157 35.606505840005184,16.374098970270666 32.331890373323176,15.072352598137172 31.02415590221767,14.306598098868221 24.0405669244426,17.662791340807985 23.010413822230248,17.48001616688964 20.84131785779732,20.05560416344781 20.744397395559417,20.114889108175362 22.10295867556829,21.957830337843575 22.1406054666802,22.03858751561313 19.89920144889743,26.590036437940967 19.86803543999099,26.66827397171403 16.38428731554427,27.425401871332383 16.141440026672853,27.446188760462633 17.78457318220876,32.01465646285908 17.909892577772325,32.16540556002985 8.630941608869534,38.153003103688775 8.193015493343182,38.254861449262194 8.05255000000011,42.50944590093388" stroke="#009edd" stroke-width="5.733864312324478px" fill="none" stroke-linejoin="round" vector-effect="non-scaling-stroke"></polygon>
</svg>