<svg width="155.22020295110997" height="274.6823308686144" xmlns="http://www.w3.org/2000/svg"><polygon points="5,186.72767247777665 5.3099124622531235,186.9043802273227 5.618659839965403,187.18774504109751 5.788179626688361,187.4019631728297 5.907892053364776,188.20188978128135 6.5248042666353285,189.19614475598792 6.6564588089240715,189.90929394389968 7.178125368896872,190.5162372031482 7.919119075522758,191.0816012971918 9.249062968883663,192.49975035060197 9.596840675571002,192.87891611130908 9.970541511080228,193.73666888201842 10.867073991103098,195.61485548538622 11.755450879922137,197.3850180072477 12.644701582263224,198.06786215864122 13.4186089244904,198.61061101593077 14.462815857725218,199.07969678449444 14.926810737815686,199.44213037774898 16.569288533297367,202.10432676784694 16.79881016886793,202.42563192779198 17.612330382224172,203.1766978406813 18.38012103107758,203.7176263827714 18.912273351103067,204.1609427598305 20.530284373322502,206.23742287704954 21.337687893304974,207.3007357333554 21.245646222145297,207.3373392712092 21.5063338666223,207.59220817883033 21.683717973297462,207.43585246580187 22.207423431100324,207.43720815167762 23.42697557329666,207.94694543606602 24.053791004465893,208.10013752558734 24.95993543113582,208.0065954659949 25.675879822229035,207.74901567440247 26.0618140444858,207.99529811309185 27.438652586657554,209.02019158902112 27.39379683556035,209.21902398124803 26.413087004446425,210.2077605506638 26.196672568912618,210.6899261653889 26.139874702203088,210.84130877698772 26.094727679970674,211.16214918869082 26.00996778672561,212.10839971294627 24.53788359113969,211.86573700397275 23.615427982294932,211.8738709539175 23.047158044413663,211.93758688447997 22.63326179550495,212.13686850469094 22.645786453271285,212.80927317321766 22.948999679996632,214.37052736920305 23.46862734213937,214.75372206128668 24.021459911135025,214.68458438944072 24.987023644382134,214.41074476815993 25.45509632001631,214.0921685389476 27.050388195551932,213.1554161667591 28.014786844491027,211.05053292989032 29.1090924089076,209.93301153276116 30.07960775110405,209.1571148240473 31.73111495107878,208.32608436408918 32.58017024002038,208.00117273663636 33.81341212440748,207.86831582622835 35.44016127998475,207.51131896558218 35.92629276437219,208.32608436408918 36.93787733337376,208.9447256110143 37.16798151109833,208.89230611390667 38.323454008903354,210.02293764741626 37.361385528813116,210.83543422981165 34.65110784000717,213.60187655419577 34.843055502162315,213.89605187717825 33.710302151041105,216.11432891199365 34.355758933350444,216.69318299123552 35.10316060448531,217.0881223641336 35.78502627555281,217.24673053831793 36.797193386708386,217.28559178271098 37.68324010667857,217.0081404207158 37.93169436440803,215.0998619714519 38.25005368888378,214.23405928572174 39.96913578663953,214.28512185672298 41.90579740435351,210.679984617047 44.89161756448448,210.93710906192428 44.84530545771122,212.7310971992556 44.25519018666819,214.54224205494393 47.697723448858596,215.36285563546699 50.05468927999027,215.9249922328163 49.62826837331522,217.75554116786225 49.356512426631525,218.53547416452784 49.11067960888613,219.20198480103863 48.90242076443974,219.50880494556623 48.20686535106506,220.7428592274082 48.05744327104185,221.27154384099413 48.071133013349026,221.77175964281196 50.08585528889671,221.56751629221253 50.875782542163506,223.82999778585508 51.28560099552851,225.6424061282305 51.465024000033736,226.68212798098102 50.82422755553853,226.88229985092767 48.53105009777937,227.21305748209124 49.17738069326151,228.73715686716605 50.294405404361896,231.0492671628017 52.614962346618995,229.74026420468 53.33556707552634,230.58702780178282 55.34679409780074,230.0515880221501 54.47647601773497,227.3418359324569 57.95221418666188,226.65727593022166 58.373974755522795,228.93913425586652 58.717674666666426,229.60877607297152 58.80359964445233,229.95172948751133 58.922729528858326,230.24362353718607 58.81292031996418,230.5730205330765 58.87088327109814,231.4017070736736 58.13513244444039,231.6411851499579 57.43520796438679,232.0433269890491 55.62408419547137,233.1236841486534 55.17902193777263,233.43771418964025 53.939663360011764,233.95236100658076 53.23391345771961,234.26187145791482 51.23288092436269,234.96628849895205 52.086014008848,236.20612926402828 53.71188935113605,235.33408456260804 54.24928455101326,234.97713261772878 54.70949290657882,234.6359944542055 57.38510933332145,233.31933169486 59.0779770311201,232.97728725580964 59.7184822044801,232.83947527618147 60.97327815112658,233.13226914859843 61.0376490666531,234.7588946223259 62.19865571556147,235.4971978518879 63.059653119998984,236.5382282732753 63.474423182196915,237.30227999389172 63.75753870222252,238.06226255337242 60.78191303112544,238.9180304730544 58.455821937764995,239.6640007222304 58.15144362661522,240.7876954920357 56.99859256891068,241.13063134462573 55.77962296886835,241.31723521201639 55.09659221326001,241.13605325098615 53.94636259553954,241.45730096410261 53.273817599983886,241.48350680444855 52.72477155551314,241.55037686572177 52.37320732441731,241.84406270307954 52.62748700438533,243.4051092530717 52.961866240017116,244.63044390594587 53.251389724435285,246.53981966734864 54.172971519990824,248.2445085258223 57.25869767111726,249.52674385148566 59.67624789325055,250.10189488250762 61.05163007997908,250.6671046706615 63.19130766217131,251.45143813162576 64.53960163553711,251.63487055053702 65.85119544889312,252.43817622505594 66.89511111110914,253.00654257135466 68.76012003561482,253.4190364573151 68.89497856004164,253.4578912628349 68.38467157341074,254.04613410279853 67.98621269338764,254.38995272456668 65.14107647992205,255.57140154880472 63.04363320884295,256.31686310027726 60.95376298658084,258.180957632605 57.193744213320315,262.756189558364 54.9917346133152,262.89172375103226 54.96522894222289,263.30013294296805 54.844642702140845,264.8185590893845 54.932315306621604,266.020281311241 54.03986062214244,267.6511794605758 54.398997902171686,267.8865518440143 55.9118600533111,268.7485276191728 56.986941724433564,269.1542152496986 57.28025173326023,269.16550943802577 57.80628735991195,269.1144597023376 58.10192753770389,269.0697347028181 59.02671331563033,268.83933304517996 60.68317212443799,269.00739074894227 62.928872391115874,269.4835535401362 62.634688568883575,268.43228952249046 62.71740956441499,267.4926079037832 63.17790919111576,266.38034491456347 64.57484543998726,264.69386873568874 65.43759047111962,265.3746952706715 65.81478656001855,266.1255446342984 66.70520234666765,265.6380801490159 67.02210531546734,265.4135479484685 68.54079288896173,264.2461574947811 69.19032746658195,263.95566424098797 69.31440895993728,263.8883492638124 69.58762126218062,263.7270643012598 70.18268814217299,263.32452904304955 71.08417223102879,263.1483349254704 71.71069639106281,265.29698989423923 72.81257500441279,267.34804114192957 73.15714872884564,268.15399961848743 73.39249578665476,269.0101013559615 73.48249855998438,269.15918469266035 73.60279352893122,269.6823308686144 74.49058787547983,269.4772288039676 75.3568281600019,269.4112708303146 76.59240021335427,269.02365439076675 77.67825891554821,268.75665945000947 78.96072561771143,268.23080043913797 79.75385685334913,267.88248591241427 81.07564515550621,267.2003118832363 84.43778759113047,267.33358446042985 85.50296604447067,267.40180191770196 87.1585510399891,267.70855432597455 88.8455933155492,268.36949361732695 92.83775516448077,268.3627170798136 93.24815615999978,268.28139861207455 93.22980607999489,268.21092258230783 93.2711665778188,267.4808618578827 93.44505543110427,266.90259420493385 94.7205316266045,265.8183382272837 94.17177685338538,263.6579421379138 96.06387399102096,262.20275739830686 96.76030321780127,263.1718274826417 97.68625408003572,264.06815700873267 98.29442815994844,264.67308700317517 98.96464298665524,265.55992309132125 99.202028942178,265.7523791482672 99.30746908450965,265.48266955598956 99.4027147378074,265.35481715376955 101.13315640890505,264.04105032305233 101.90822883555666,263.3087167562917 102.30901788442861,263.1162585450802 102.53591808001511,262.9454856242519 103.88333823997527,261.8914794281591 104.71229582221713,261.1763064453844 105.53892323561013,260.01928442239296 105.66708252439275,260.12048456282355 107.72811690659728,258.19948103209026 108.26376448001247,257.5014640382724 108.83611221332103,256.9050982368062 108.64940743113402,256.59381271293387 108.3584275910398,256.1600904883817 107.77559409767855,255.25288538250607 106.90119822218549,253.7502056832891 106.33380209770985,252.9681394865038 105.99709269334562,252.47748300724197 105.13784291560296,251.55761208746117 104.63918677333277,251.10580766224302 103.50585087994114,249.40791827288922 103.34914702223614,249.03291697334498 102.61922161781695,247.1976603588555 102.25775416882243,246.26737544883508 102.0442524444079,244.78767661575694 105.57882737775799,244.2762180759455 105.64581973326858,244.0119037848781 106.15525290661026,242.61893959279405 106.11330986663233,242.58866748597939 105.44484266662039,242.30673005140852 104.44432639994193,242.20235888956813 104.20140629331581,242.1856414260692 102.52281087997835,241.6814059803728 98.45928760885727,238.71651414770167 97.49255879106931,238.08530597854406 96.38922382227611,235.91740604140796 95.87454776884988,234.40239357639803 95.58560682670213,233.77749870356638 94.17032049782574,231.3800184801803 93.41447196435183,230.01860308134928 92.05627477332018,228.56997186277295 91.61820302216802,227.8275785262813 90.63953208888415,225.68442888057325 89.73455274663866,223.39846977218986 89.24900380440522,222.34924312657677 88.94782947550993,220.87616016948596 89.13016519113444,218.29869294678792 88.8048153599957,216.88251900410978 88.7599596088985,215.99774453230202 89.29706353775691,213.2823953780462 89.90174236439634,210.52769811585313 91.39392426656559,207.65005072625354 92.64085589337628,205.1460870410083 93.509717617766,205.29250260052504 94.25595420447644,205.06112981942715 94.89849827555008,204.22330523608252 95.41958229325246,202.7957423486514 96.10552575998008,202.59328886284493 96.8322471822612,202.07043379091192 96.87186005327385,201.39347696251934 96.92720156442374,200.70793175976723 97.20070513780229,198.15146635868587 97.20361784892157,198.04074727604166 98.54346496006474,196.93490911263507 98.85425123560708,197.58747632388258 99.3354311111616,198.6372739141807 99.76913379551843,199.4764756746008 100.22817706665955,200.3174818486441 100.36915228446014,200.54343674343545 101.10723327996675,201.6325360556366 101.70492159994319,202.55578071868513 101.84677063114941,202.72388945892453 103.44788792892359,204.52879073179793 104.02285710221622,205.11987683788175 104.66802261327393,205.90663346083602 105.64348956441972,206.3038518386893 105.49989290675148,204.4501598905772 105.35833514668047,202.75868614425417 106.60089770669583,203.73705821018666 106.81323434656952,203.84777440334437 108.92669752892107,205.04802471317817 111.05414172448218,206.27176710474305 112.43039772449993,205.04847661347594 116.97888739558402,206.21211660059635 117.83755463105626,202.32802028366132 117.92056689772289,201.68043822428444 117.94532494223677,200.97184658184415 117.782504391158,200.17784160666633 117.67444280884229,199.7485263874987 117.42598855111282,198.4298455180833 117.61036316445097,198.28613684052834 122.14428927993868,195.12497391575016 123.54151679994538,193.48901458201 124.08706759114284,194.5853798443568 125.28739584004506,194.11040941951796 126.42335317330435,193.4347836759407 126.8756972089177,193.19029250682797 127.36707157327328,192.98647433589213 128.15466865769122,192.62854928238085 129.73510570672806,191.66956032434246 130.045891982154,191.6302425910253 130.28968590218574,191.45534638105892 130.5410528711509,190.50403508421732 130.7207671465585,190.22700160881504 131.18709219549783,189.54594065638958 131.28466801776085,188.67416145891184 131.1486444087932,186.8063097037375 131.07903061329853,186.3670255271718 130.9435895466013,184.49011517199688 130.85562567110173,182.35286723304307 130.8614510933403,182.17570385092404 130.99135800881777,180.83748294389807 133.63231317326427,181.37078371457756 135.08400839113165,181.64873232855462 135.77402965328656,181.64828037994448 138.63926357333548,181.60037381469738 142.04771811550017,181.9447585119051 141.04021134215873,179.3365506445989 143.37038023106288,177.92871105787344 143.4568877511192,177.66612424247433 143.33455388445873,176.38211084192153 144.23254271992482,176.1922877341276 146.3326074311044,175.19480978581123 146.93932515545748,175.1224958470557 147.2003040710697,174.61358582536923 147.73070876440033,174.9421628578566 148.48102314665448,174.3460234196391 148.87365660443902,173.6829915177077 149.11337272892706,173.0434598608408 149.47571399109438,172.52731351030525 150.1770948265912,170.94135355768958 150.22020295110997,170.35876235365868 150.08621823997237,169.95289106894052 149.1529855999397,170.13187226303853 148.3068430222338,169.93707201699726 147.31710378662683,170.02068699308438 146.77097045339178,170.11017758067464 146.29415964439977,170.05594086530618 145.75792952883057,169.8963944494608 144.95606015995145,169.8353780839825 144.66304142226,169.61571902688593 144.1116652089404,169.58543679385912 143.81515121774282,169.67537953343708 143.70767217781395,169.56103021488525 143.41640106670093,169.73006831668317 142.9090067910729,169.74769527697936 142.6477366044419,169.79605641716626 142.30724067555275,170.15944258554373 141.34022058662958,170.0930026222486 140.8712740978226,170.1820412077359 139.201999359997,170.20147602108773 138.75839345774148,169.8557168743573 138.16420039103832,169.7237406896311 137.8277822576929,169.686226896476 137.18174293334596,169.24329246615525 136.5467719110893,169.01820911525283 136.3938545777928,169.47199137602001 135.1754675200209,169.49684993881965 133.30463317339309,169.67899532115553 131.7626439111773,168.3678163610748 129.70597859553527,166.8835215381696 129.48403000889812,166.77459451078903 128.7013845333131,166.25617343193153 129.5096618667012,165.70656438719016 127.82815374224447,164.35287502320716 127.07143139548134,163.8448438596679 126.24917304888368,163.08731476811226 125.28506567107979,161.96773981058504 124.45639935997315,160.80431590526132 123.8587110399967,160.0924275899306 122.87829248001799,159.47003190312535 120.75376099557616,158.40241802937817 120.54084181331564,158.08737601956818 119.81120768003166,157.72442174860043 119.52459690661635,157.228579135146 118.62689934216905,156.14649024914252 117.79240760882385,155.6583280932973 117.4702617599396,155.44362679938786 117.14403811551165,154.90935866278596 116.83470819552895,153.2346772213932 116.58625393779948,152.58197738451418 116.17876565328334,151.72813095257152 115.2976705422625,151.10661543521564 114.82377244438976,150.82907993439585 114.38133162667509,150.35717837011907 114.05248654226307,150.19671352533624 113.53052871115506,149.71803037181962 113.36275655112695,149.3740468340693 112.52098303998355,149.12815025402233 112.22709048888646,148.72269150137436 111.82834033772815,148.47046594403218 110.7684047644725,148.20965175464517 109.09476096008439,147.91990806977265 107.7362724976847,148.01257184857968 103.80760775110684,148.50753136677667 101.47103089769371,148.85468038648833 101.08218396443408,147.4977223550086 102.35503871995024,147.07915198558476 102.74388565332629,146.85540183685953 104.91735068440903,145.77506960812025 107.87346119107679,144.15682136896066 109.42506239993963,143.69982227717992 109.42214968882035,143.19671534537338 108.87747271114495,141.79180682834703 108.57251185772475,141.61280239082407 108.49066467548255,140.96956048568245 108.22677304886747,140.50034980440978 107.86588814214338,139.34087977715535 108.25619143107906,138.37125976127572 108.79679061332718,137.178327406873 108.07065173331648,137.04949574696366 108.26056049775798,136.7271902434295 108.5853277866263,136.5070458180271 109.87158101331443,135.24674861109816 110.75238485331647,134.00633420981467 110.10052010661457,132.9548695422709 109.70934300438967,132.89248669857625 109.27301887993235,132.4910662343027 108.18104348436464,131.60685368807754 106.85838136891834,132.7650086581707 106.31195676443167,132.2089865473099 103.40477980440482,129.15897664712975 102.92156103102025,128.76885077019688 102.33552355552092,127.68752487958409 101.70259143109433,127.45109714195132 101.5820051911287,127.02254296082538 101.25956807110924,126.71288039698265 100.91819832893088,126.55601466761436 100.6656662755413,126.53069915028755 100.52585614216514,126.37880598474294 101.15704064001329,125.67494252510369 101.8651207111543,126.10123903420754 102.86854968883563,126.53295946447179 103.9214947555447,127.34621898131445 104.30422499554697,128.22005142678972 105.71922005328815,129.31674461939838 107.12664206221234,128.24672292597825 108.22735559102148,127.39775394590106 108.82504391111434,126.18035017169314 110.04343096888624,124.69486425386276 109.82323000882752,124.26223605207633 109.28991260449402,123.88566347071901 109.23864888888784,123.16009261924773 108.92028956441209,121.93678826309042 109.12621824000962,121.48787995567545 109.7402177421609,120.99059877870604 109.96100124449003,120.6244182784576 109.68895402667113,120.27179943816736 109.74575189326424,118.72524264082313 109.70351758215111,116.58418596698903 109.9158542221412,116.44494422274875 110.24091278214473,116.15515835955739 112.664288426633,116.59865263663232 112.88099413330201,116.4024483479443 119.41915676451754,115.5190747800516 120.1782092800131,114.9114708234556 121.27222357329447,113.4326895410195 121.46096725331154,112.85898661438841 121.49242453323677,112.4331163270399 121.24047502223402,111.80154283135198 120.13189717335626,111.80154283135198 120.99580728879664,105.11950081191026 120.2749112888705,104.30615845357534 123.22607018670533,100.21589108498301 124.39581496885512,98.2532408227562 124.7299029333517,97.05466364359017 121.81923072005156,94.7660004356876 121.30135068437085,94.18727500009118 120.11412963550538,93.0479048131383 117.91299384878948,91.15255836944561 115.45000533328857,89.39600241649896 113.41576789331157,88.03324888105271 112.52564337779768,87.05707082769368 112.32641393772792,86.50635798415169 111.82076728879474,85.92308917117771 110.91870065778494,85.41487538389629 110.93472056882456,84.92429422622081 110.16605610668194,84.03084589238279 109.09883875551168,82.18018444196787 112.83002168883104,82.19827063032426 113.23750997323077,80.77759596949909 113.45305059559178,79.58796599146444 115.43165525328368,79.99717049760511 115.40223687107209,80.75996182108065 114.8887259021867,83.32548936031526 116.54401962668635,84.19362015288789 117.06044330669101,80.73825825180393 117.93367409775965,75.50492209091317 119.31284280889668,76.4137790054665 120.21811342227738,76.81168531870935 121.60106865770649,77.26611152751138 121.75515107554384,76.12393997272011 123.46374741336331,76.3364584898809 124.29474389331881,73.94131760450546 125.37798115552869,71.29790524038253 126.85414314665832,71.0202682139352 127.82524103112519,70.68158673756989 129.2006232177373,70.15479808259988 130.07268892449792,70.37139202689286 133.4359964444302,72.1068488942692 134.36078222224023,72.19231006648624 135.10002830217127,72.34831053274684 135.2980926578166,72.51471090706764 137.38271999999415,73.27933708298951 137.83943310228642,74.3966541333939 138.09487786667887,74.24246381642297 138.71848931559362,74.08646470448002 139.3703540621791,73.78260524448706 139.79269717331044,73.44076284620678 140.14280504884664,72.86469388910336 140.17338851548266,72.78601559321396 140.92545052443165,69.2309931042837 141.18176910211332,68.69063546677353 141.63032661331818,66.00962786492892 141.9481033955235,64.3749612540123 141.9070341689512,62.206691624131054 141.74770887102932,61.49448156973813 141.72906752000563,60.219732816913165 141.83829418662935,58.088050471036695 142.25510314665735,57.18590031226631 142.06402929779142,56.080252548796125 141.5601302755531,54.3853673079866 141.41769870219287,53.53475425124634 140.76816412445623,53.35839068243513 138.20090055116452,52.89351372048259 137.34048568888102,52.505964756710455 136.39181567996275,52.23237376677571 135.15595235547516,51.63228125346359 133.9655273243552,51.00143617606955 130.9543665777892,50.080715642194264 128.33321784890722,49.49780166475102 125.84459747560322,49.06818990095053 122.24827306671068,48.41608284902759 122.04496583109722,48.26232639478985 118.79321514663752,47.4921858177986 117.8317292088177,47.315817364200484 116.77732778666541,47.21813631313853 115.77652024885174,46.26710046076914 115.40107178664766,45.09989387425594 115.02212807105388,44.510183096455876 114.88959971547592,44.32838543399703 114.71774976002052,44.0000638984493 114.32715519994963,43.9539360399358 113.20547015103512,43.79881973785814 113.25935530662537,44.48983261932153 111.99640376889147,44.49661611189367 111.26822599105071,43.231717216956895 110.82462008891162,42.30418033112073 110.16023068444338,41.76104256679537 109.04961393773556,41.566127685597166 107.83268323552329,40.277695238706656 107.52044060442131,39.65133975603385 107.39723292447161,38.74368641781621 106.72497919993475,38.1376776022953 106.0745708089089,37.51900417951401 105.80485375993885,36.29702856519725 106.16923392005265,35.79141267086379 106.73808639997151,35.02982086513657 107.44441884441767,34.40254580741748 108.19356814224739,33.47723266034154 110.52956245327368,31.7161419565673 111.3684232532978,30.31594259245321 112.73594111995772,28.421860159025528 111.52483583998401,27.763811911456287 109.38981859548949,25.590203386556823 108.05201038217638,25.21707864664495 107.81491569778882,24.66937559953658 104.77288021333516,22.844894918613136 103.76158691558521,22.72685040254146 102.92185230227187,22.26190816226881 102.90204586659092,20.947581644752063 102.98709703108761,18.498010471346788 102.69669973326381,17.215773824835196 102.18027605337556,16.66352778300643 101.26364586665295,16.116707843262702 100.93334442668129,15.75623108696891 100.8331471644342,15.081409761216491 100.47488369781058,14.871093036606908 98.79599701333791,14.289441856497433 98.0544207644416,13.88780312234303 97.22954097774345,13.53003646491561 96.98370815999806,14.928986692917533 95.8532849777257,14.975572983268648 93.61923555552494,14.69967344874749 89.97951175109483,14.085004214779474 88.18499043548945,13.83443215378793 87.84478577773552,14.367236660909839 86.94417550216895,17.542778807284776 86.85621162666939,18.043914122274145 86.92407779558562,18.886072140012402 83.73844565323088,18.238850021385588 83.96534584881738,16.891934382612817 83.88000341330189,16.123039926518686 83.51212800003123,15.056985893985257 82.92230400000699,13.9791669533588 81.20992113777902,11.555750994884875 80.17066581337713,10.050035357940942 79.57297749328427,9.168944908014964 78.18507064890582,11.067717536585405 76.89677852438763,12.764296249195468 75.17216227552854,14.548606998403557 73.7554195910925,15.060604244819842 72.9917067377828,15.631850637611933 72.0788630755851,17.144312089774758 73.20957752887625,18.77164377097506 74.15533482667524,19.65767056326149 74.80166542215738,21.04617902234895 68.88158008886967,20.625556871877052 67.71358293329831,20.77797595981974 67.03608632879332,19.17417808389291 67.20007196441293,17.09682168334257 66.94841372442897,15.564459019107744 66.71190158219542,14.59383648558287 67.8953361066524,14.152848586149048 68.11204181332141,11.647115802683402 68.18718976003584,10.582396805402823 67.5265868799761,10.43132750375662 66.80947740445845,9.473798987921327 65.79760156443808,8.037272179033607 62.1666158932494,7.86313336819876 59.51925276441034,7.816545558918733 59.357597297756,7.8061424545012414 59.634887395543046,9.090243637212552 60.10878549341578,10.075364394229837 60.46821404446382,11.311508251470514 60.556469191098586,12.087656467687339 58.81292031996418,12.19259004725609 56.07409806223586,12.2866683860193 54.53006990219001,12.681073287618347 52.92895260441583,13.072763688396662 47.69451946672052,14.023491966538131 46.24631950224284,12.146003162546549 41.33053696004208,12.893201317172498 39.346106879995205,13.29167579987552 39.06998186663259,12.924409901082981 38.90978275553789,12.898628897266462 37.11933923559263,10.623104084341321 35.451520853326656,11.13691975234542 34.099731626571156,11.337741744355299 32.68997944879811,11.377544279384892 30.559039999963716,11.401968558668159 28.399555982206948,12.030666657665279 27.615454151062295,12.560309477208648 27.261851022252813,12.40743234794354 26.866304853348993,11.082191204477567 26.623967288876884,9.689548576250672 25.73733802663628,7.801619365462102 24.363994737737812,7.974853608291596 23.522803768864833,7.545612373447511 22.95482510223519,7.039477524580434 21.755661937757395,6.676271900360007 19.789873208850622,6.493990393937565 18.72294712893199,5.452766561764292 18.24992284446489,5 17.680196551140398,7.373282409273088 17.171054648817517,8.614416958298534 16.16558677330613,10.91619626863394 13.853476693388075,10.675118929706514 11.27922261331696,10.851517008733936 11.086692408891395,11.781449138768949 12.880339911091141,12.569807756866794 12.15798755560536,14.023039670544676 10.550753564457409,16.831327506224625 11.299029048881494,17.348746864357963 12.482172302203253,18.54685743257869 13.579099306603894,19.31031592504587 15.134195768856443,20.175987784052268 16.83172380446922,21.103166477172635 19.028199253370985,22.46226763445884 19.95735409774352,24.397106521122623 19.710938737844117,26.16413583175745 19.43772643560078,28.13240962807322 21.283220195560716,30.069459538906813 23.96932238212321,31.523027139366604 26.9819394844817,33.401705949683674 27.778565973276272,34.272296686831396 28.18780188448727,35.19896321790293 28.606067200074904,35.596040204691235 28.718789119971916,38.202801018429454 28.756945635541342,39.01503310294356 29.021711075562052,40.06197590008378 29.585320675512776,40.87239210132975 30.063296568929218,41.314230469753966 30.514184248866513,41.695015735575 31.195467377780005,41.80083955137525 31.780631039990112,43.09378536022268 32.895908124395646,46.08937432814855 32.70978588447906,47.437466389732435 31.995006577810273,49.85098712332547 31.616645404486917,53.662730802898295 31.506253653322347,53.647807745903265 31.31954887113534,56.637825311510824 30.926332871080376,57.35819093149621 30.66156743117608,57.360904168570414 30.961285404511727,60.53989035199629 32.40599011559971,60.14331096294336 33.40330240002368,62.97678026056383 34.690138168865815,64.8235348877497 34.5442113422323,66.29993252182612 35.95600241771899,67.9531242637313 38.14606990222819,69.12925222876947 38.61268622218631,69.5221978367772 39.43873109330889,71.4254191959626 40.396139235585,73.05279820563737 42.23988536885008,74.60691348090768 41.58103011548519,75.1761952994857 41.02033322665375,76.9997862323653 42.359015253256075,77.30092822288861 43.94819043553434,77.37734406732488 45.042495999950916,77.35021418478573 45.72407039999962,79.28456635389011 46.68002218659967,81.94913325388916 49.46573909337167,82.45554649713449 49.24874211556744,84.22165348537965 49.46865180437453,86.10846935055451 48.58843050664291,86.34042042633519 48.09064817777835,89.29924448335078 48.04171463113744,89.82372622389812 49.8883734755218,92.93894092406845 50.572860586689785,93.72791059291922 48.2866736354772,97.0121639923891 45.79805326228961,98.05430730676744 45.13948927994352,98.77724892063998 45.3168733867351,101.26118390471675 45.75873166229576,102.44707882171497 45.99058346671518,103.68767262995243 45.94543644436635,105.39166917308467 43.17952597339172,105.15792992000934 40.784694897709414,104.52543114987202 39.56776419561356,104.31700906640617 38.80783786671236,104.13074013782898 37.68644408881664,103.84048581088427 36.68913180439267,103.75910602370277 36.20270904887002,104.62896395474672 35.936487253406085,105.31526313914219 35.425888995523565,105.56527805002406 35.0877232355997,106.23846324859187 36.07775374222547,106.63360255234875 36.3136833421886,107.15985104028368 36.54291370662395,107.45236146374373 37.53061404440086,108.18521815980785 38.893762844381854,108.85568267898634 39.47630506660789,109.31908412650228 40.37458517332561,108.96509071928449 41.16218225774355,108.48496081249323 41.72084024886135,109.64233430969762 42.94447018660139,111.71835763909621 41.098393884371035,112.67453334364109 40.286912568844855,113.0353020952316 37.48168049775995,114.32963419891894 36.86709845333826,114.5199632110307 35.26452480000444,115.3608447459992 32.45346730668098,115.80660106270807 32.49395399109926,117.64296281768475 30.28582769772038,117.9928734228597 29.3852174221538,117.99649006698746 27.672543288907036,118.41014334646752 26.82407054223586,118.8057126889471 25.937441279995255,119.63617993553635 24.789541831123643,120.64883033093065 24.983528391108848,121.58733605511952 25.76908657781314,123.05385618616128 26.910869333310984,124.04569559555966 27.154954524477944,124.46702254924458 27.152041813358665,124.84992305579362 26.094436408835463,126.31054443842731 23.313379839994013,127.94474711769726 21.993339164415374,126.66224939574022 20.893790720030665,125.86480957793538 19.48491235554684,127.63870234671049 19.18781582219526,128.44246450660285 19.183446755516343,129.80496570217656 19.050627128919587,130.2425555223017 18.241767253377475,132.3427936238004 17.571552426670678,132.32606774376472 17.446888391161337,132.2745339430403 17.22523107554298,132.62577723816503 16.91531861340627,133.17863394366577 16.498509653378278,133.50682131724898 16.162674062186852,133.50727336556884 15.622366151073948,133.3079199375352 15.101864675525576,132.8472817282891 14.627675306634046,132.8988153936225 14.147951786639169,133.51088975259336 13.824640853330493,134.96196021395735 13.791144675575197,136.17524661362404 14.242614897782914,137.07164575706702 14.648938097758219,139.03259080339922 14.687094613327645,139.9479636825272 14.402814008877613,141.70592087914702 14.521361351129599,142.0472043195623 14.417668835492805,143.24915062333457 14.599422008846886,143.7278479661909 14.924189297831617,144.01262492412934 16.280638862168416,144.62240798585117 16.47724686213769,144.82310715306085 16.54190904891584,145.0861855117255 16.445789582212456,145.42565557116177 16.90861937776208,147.58767419779906 17.25989233783912,147.43489164870698 17.653982151066884,149.30443643324543 17.5578626843635,149.76323184755165 17.839813119964674,151.33940145454835 17.758839751128107,151.88136250630487 17.839813119964674,151.94961605465505 17.446014577755705,152.39213357516564 16.975611733389087,153.10449901642278 16.539578879950568,153.8647747966461 15.911889635492116,155.19864106492605 15.830624995520338,156.13021819485584 15.310123519971967,157.6317620932823 13.597740657743998,158.2152912663296 13.41569621337112,158.45484965399373 13.318994204513729,159.29104196524713 12.770821973332204,161.72908925870433 11.391653262195177,163.88190667133313 10.573763982276432,164.55174811033066 9.688008533325046,165.33232322579715 9.306734648882411,165.65549045009539 9.329162524431013,166.2887160293758 9.62451143108774,167.01549944048747 9.68276565335691,166.99561236437876 10.949212444480509,167.51855146622984 11.38611911109183,167.6577606269857 11.88098872883711,167.96826905204216 10.889793137670495,169.20080687152222 10.931444906629622,169.45074860210298 10.403370382264256,170.35333868896123 9.871509333257563,171.45117608178407 9.510041884379461,173.1419885350042 9.198090524412692,174.8712047234876 8.638849991024472,176.17104561429005 8.238643484422937,177.25936263106996 7.858825955539942,178.01187101617688 6.941904497798532,178.78833040199243 6.454025386599824,179.49111867521424 6.071003875578754,180.43434285232797 6.043041848926805,181.12085563427536 5.342534826602787,183.59119910281152 5.034078720025718,185.40800905739889 5,186.72767247777665" stroke="red" stroke-width="3.433582883000616px" fill="none" stroke-linejoin="round" vector-effect="non-scaling-stroke"></polygon></svg>