<svg viewBox="0 0 65.77747114666855 76.56386816274608" width="65.77747114666855" height="76.56386816274608" xmlns="http://www.w3.org/2000/svg">
  <title>Plzeňský kraj</title>
  <desc>Geojson of Plzeňský kraj</desc>
  <!-- Generated from maps/2-geojsons/world/europe/czechia/plzensky-kraj/okres-klatovy/okres-klatovy.geojson -->
  <metadata>
    <collboard>
      <support-module name="@collboard/map-svg-geojson-import" version="1.2.0"></support-module>
    </collboard>
  </metadata>
  <polygon points="1.7261356071965566,30.746522222437846 2.274562700531169,32.220406946883664 2.3411327129771964,32.40199254629151 3.8698400125304033,32.39036535558298 3.894874764532506,32.40248352117378 4.263798753863739,33.93095507567668 4.265160446310256,33.93309691643699 6.035673740531275,34.65756022841269 6.040020961863411,34.66087295091892 6.321716535197993,35.56685565450352 6.352394664976237,35.63128101735819 6.130285879200165,36.254418391554275 6.144339710309942,36.284826316133326 8.085341267644617,37.376367462556296 8.101302924532865,37.38452812021023 7.869203539642695,39.17625791163773 7.868373416977192,39.18225381447883 12.248785093419793,42.426618465551655 12.310986039198543,42.469667584845226 12.699993171640745,43.354656265602166 12.748052904974976,43.51575253767987 12.296670064087449,45.658522315054505 12.267076919197644,45.76761201219815 13.078405317421494,46.70286744471414 13.175959294308633,46.82720598633059 17.053498679197585,49.13706496747654 17.05594535653254,49.13815518755473 20.19096914319853,48.384895277214305 20.424575856088268,48.384049685021814 24.33747555386399,51.352692959245545 24.33821829520057,51.352937604322875 27.20763923741943,55.23843539734553 27.228341331643243,55.26799432429434 28.72350148097794,56.05045938998847 28.802312161865487,56.14846666462436 28.398158931643778,57.06071419717519 28.3873964640854,57.09425139058331 29.402672894309582,59.08974230383938 29.41823405342184,59.12692059524016 29.01177249964276,59.997685019966234 29.014626956532084,60.03447970985035 29.665530508531447,61.31398092642085 29.679205687197467,61.4168676895617 29.186826437422496,63.093444497538805 29.192076599198117,63.19223685978105 30.888643440085072,64.79267576078601 30.90043992008905,64.82662089400291 35.04020340453026,67.17300035280532 35.07177719297652,67.17082701773215 35.845837452532216,68.20798742767256 35.86640847475392,68.22663466715203 36.75340910764244,68.2127878229152 36.878044016087735,68.192832341923 36.796094888977315,65.26005752506208 36.79040053875542,65.20144562067908 38.62352255830956,64.6600547873084 38.73209386497802,64.66377110214853 39.87210714853318,65.40995653061145 39.98194548453212,65.36573264236976 40.000878106755046,64.20160878269999 39.98582667208866,64.1399457607291 38.91231058319863,63.409944449659456 38.894535763642125,63.36238683632291 39.04900411564049,62.08751059300448 39.03592604275218,62.02544663121117 39.62682046408773,61.250554040180944 39.66770036453272,61.152348603269274 39.52702369964282,59.829785320409066 39.419216979643174,59.78169724950749 40.387147290753276,58.304320202784226 40.436430362753526,58.23993693756529 40.401623464974186,57.57741321629619 40.424022213420905,57.53131605178678 41.44382790942218,56.11949020218927 41.44656585786325,56.112223841529705 42.41188201075311,56.90331217493258 42.44927393964208,56.931484678083876 43.82636006230787,55.62148905272952 43.86284176897498,55.52053890215648 43.98350082675352,53.97412090225444 43.97795939386597,53.917200937033705 43.12837253519865,52.873008388829845 43.11892078764395,52.80318100770856 43.44684836808774,51.93799752861269 43.452229601865476,51.91299072390866 42.078980976088864,50.22238368619182 42.057783720975934,50.190984755884344 43.41871886053305,49.69480677989959 43.42188643386653,49.69033510232293 42.84127388275411,47.75039767367306 42.792726270309146,47.74125086792519 43.588741089865294,46.08637532903849 43.58960033964431,46.04057169751795 42.75703099564308,45.5033218054381 42.739219767197575,45.49904710616865 44.01254783830846,45.419341169264584 44.068275283642656,45.421100055719215 43.90110022941845,45.794527893407576 43.90479209075457,45.81975167279779 45.69715800008744,46.62007369469538 45.72376561608871,46.68905558809237 47.918187603644405,44.63991002943257 47.94040430764326,44.61675174383308 47.84245711475269,43.97077453032434 47.861287792087026,43.93207985703957 50.352223770755884,43.634583913861206 50.404339454310325,43.56922753064318 49.736170807200324,43.406796470041805 49.70864568719881,43.405192848715885 50.32667929431082,42.97138501803019 50.397997025864974,42.96447998880212 50.243499546753085,40.99003309044383 50.23502355741985,40.9603641545229 52.2202400694212,40.13940826302023 52.28580519653224,40.107740165393984 51.82485409964175,39.32197433521687 51.81010121786567,39.29033497421369 51.935391486309896,38.60505695861247 51.94499615119894,38.579510354325244 50.7920577120869,38.112639792221664 50.76157619031037,38.09212935114228 50.02117958941854,36.44853782442405 50.023269459641966,36.38741140209349 50.734786529864145,35.27420536163008 50.77650383475302,35.20986504498469 51.54388670408699,35.484987406457726 51.57256234497655,35.46961954901234 51.230224126308535,34.47937297606149 51.255004016087696,34.440020422615994 52.67048695297745,34.75711949680007 52.78311420986611,34.6664053045959 52.27274896897616,33.95524037756004 52.283030839196364,33.88858661691956 53.267898565422,33.263005941083605 53.27625076453151,33.21486424256472 51.44547347742082,33.090363284292465 51.41327345608916,33.07850324689971 51.05742753964333,30.99525901715569 51.06494233431186,30.979041519726522 50.72187593786403,30.761177746563405 50.721373495199444,30.7569362432132 53.07634411919753,30.60227540463565 53.08693910586481,30.589896545494042 53.42967054053334,29.60598400603812 53.46125889253344,29.589014412102184 52.661748819642895,29.171679906848652 52.65543551830815,29.172104179503 52.398942177863866,28.48482891434141 52.368788336085345,28.466158555170473 52.812874835641196,28.113330457144542 52.829703024086854,28.08033123003733 52.4527253885306,27.205952717527175 52.454320097864915,27.200915469495882 53.28737732097689,27.489304455081943 53.30065928364238,27.501712626943842 53.4519163716428,26.62031660579268 53.46203804275319,26.582639229797127 54.479586387642854,25.850856108268268 54.476608140532704,25.832523136631423 55.82137045164309,25.7497726378544 55.94269943297732,25.762464033182546 55.70679167830858,24.732108967031305 55.648304439198185,24.71664401464404 56.07017423475227,24.443396611760903 56.07765990231019,24.418588789803103 55.86894230586659,23.7380174255657 55.86834520008888,23.720616206254995 56.32416264364329,22.780253797512337 56.33430616008591,22.761586423668263 57.06145720719833,22.592682933010288 57.07104002675515,22.585528732843883 57.047235895197446,21.823653747179556 57.05169962497494,21.811881200898274 56.609499105865325,22.161346275655156 56.54824479119743,22.15842847565545 57.49448996808678,20.760825517644477 57.5036067538651,20.737164025802116 57.00066164453056,20.033355810598366 57.01553831653328,20.006794612580048 56.07406998586558,19.89361451127224 56.03632853164054,19.885942337064257 56.28245262053279,19.288162047756845 56.34247631475337,19.27731244002534 55.46542987208704,18.45487220231625 55.433725011641585,18.455778336890575 55.059754750309004,16.65315882766917 55.08021654586665,16.607658001434533 53.52607399653243,16.706727566373953 53.499641143197735,16.7012330738642 52.94547600897677,15.480961533429577 52.92237092808537,15.467552418363988 51.8000378009765,15.220059944539749 51.770808744976605,15.204937592576966 51.03151169253288,15.893773892555686 51.015324300532306,15.905950843323438 50.11834763208645,15.648606287963407 50.11501257786477,15.646681166928097 49.95545426319768,14.962201916234694 49.967687649863734,14.922563958137829 47.797412037420514,14.379816429883427 47.78610343653309,14.376513860338669 47.49667461519894,14.810644790674628 47.477778401865,14.91909380416218 45.70559029875622,14.462111343669307 45.66422980097596,14.461954613948542 45.323704744976204,15.24074537410524 45.296492741418845,15.25376327496669 43.93204778497639,13.93433224561049 43.90428236630869,13.907349685217554 44.09032450675332,13.610633542311911 44.036512168975975,13.543900712441605 43.49704166230986,13.543184113897219 43.43076292097576,13.527519694184953 43.13930248364232,12.125210757648524 43.11738433253086,12.116878141467527 42.51826150230954,12.23895418407082 42.47152705253284,12.236299898977808 42.626432311199096,12.684990250871119 42.626767272975485,12.692672487032901 42.15897130497506,12.894209761963062 42.11430488008664,12.905307143358 42.14215768008617,13.46398820151116 42.137053153863604,13.505909663711277 41.468629644530665,13.291741826867288 41.39432638408798,13.249751545179237 41.146687685420694,14.086338989758582 41.138852492532536,14.094635031135471 39.95031344186464,13.331055636932792 39.94973818142208,13.328200328391171 39.04399425253105,13.48213853198285 39.014714224088316,13.47285622981471 38.61704177608663,12.46379099307996 38.594424574308874,12.454103802903042 36.52158643031034,13.67931376585802 36.51434106142151,13.688763667451344 35.45144180453099,13.386146005247788 35.43244364631137,13.416893356715804 32.45548540986383,10.87181631237217 32.41267583830813,10.836058450094782 32.583659262308,10.228665725644163 32.58263253164369,10.217562933208313 34.78851603742114,9.36463105938346 34.79653327475426,9.350064049581482 33.1046923076432,8.095038253476735 32.98473958230934,8.07236448436633 33.4284911200888,7.295728536536984 33.58869751297643,7.305772330753456 32.85349281964482,6.869377181020167 32.85071846230894,6.721228780794258 33.391761832974225,6.3705333013556755 33.37261075742026,6.3559919767420014 30.68156424364315,6.44561615072343 30.61516899386661,6.471749719136636 29.066363987642763,5.295873808751998 29.00698837164273,5.285108657354789 28.008554693420958,5.984945325981602 27.960815358309265,6.031599425054805 28.552102995642418,6.547638384966189 28.590186693419312,6.565374364446683 28.022674060530335,6.649613878659506 27.988311351197265,6.693325089272179 28.493528375200185,7.49960499084445 28.494511415197124,7.513851847219115 27.424825541420798,8.705020510875688 27.419910341418657,8.749791190350146 26.604737164530164,8.83361616143847 26.58373651742186,8.837280673082928 25.973072069422415,8.102065645846954 25.9497048445297,8.084995903626618 24.85754740453158,7.922275892652755 24.780950384088285,7.956259420671626 24.73274501519809,6.014422331138116 24.699809534308226,5.933009798835332 25.030904688088413,5.168013844020965 25.02263258853236,5.158111917482524 23.83426101875266,4.981163831902444 23.8264913618641,4.9761398090184175 22.982212919199448,3.81774420456822 22.97710839297688,3.806830334563341 22.134876129865372,4.30355206531421 22.02001336719732,4.397269795697134 22.11433423475428,4.916557686786468 22.1140284000885,4.97158678430605 21.797649719198308,4.999241304754463 21.793324343198403,4.995686372182167 22.015870035642365,4.289083771352665 22.010226657863313,4.275512701244219 21.02021071475356,4.862817713387262 20.990624851642135,4.8523545062551365 20.886670192085514,3.013144211624234 20.874822739644515,2.9503995882831022 21.377942611642723,2.096023031611179 21.400130188530966,2.099647165371056 19.954020094311637,1.7319929602806896 19.938298736086654,1.734091282564981 18.384272695197797,3.0038441867134624 18.315896801864803,3.051679128695463 17.001805338754277,3.3338900640232114 16.975379767197957,3.3448497458233706 16.680773601866168,2.810637931093874 16.677642437418765,2.792171804409367 16.97738953786502,2.336276598002945 16.95545682319971,2.32255483818189 16.388220897865903,3.297903564862276 16.387805836530244,3.298531760138934 14.997423187642198,3.2006782606669675 14.977580343197406,3.2055132045996233 15.620859873864175,3.9222044331592714 15.671424538754582,4.011924456640912 15.029448446310198,4.523622449110912 14.976043888087226,4.565006628318582 15.109810145864685,5.325948838530525 15.089013388530658,5.338822067105861 14.248951095196027,4.34629499613838 14.235108435641814,4.339105772870602 13.162633640975764,4.852118999754379 13.12261299030979,4.853812403406841 12.488333736975983,5.7071428418788805 12.47661007475581,5.708039869628914 12.466837928975657,6.544207778018967 12.468483610752811,6.552436746638335 10.96382802319895,8.342975354087315 10.957820556532898,8.347054869166817 11.690680517421061,8.655845186014261 11.706802373419123,8.649154707814517 10.90131396097604,9.84282211690333 10.887733445420237,9.840726893477035 11.2547860178649,10.59056413144753 11.267405338756,10.628889033782247 9.73008369608615,10.681575535309452 9.65521973875475,10.705056322292144 9.71780661875273,11.373410048180444 9.693354408977394,11.378988281776031 9.241549224975826,10.946288706502305 9.222186977866295,10.95924957803108 9.066029253420494,11.532835522944874 9.060276648977378,11.547139120959395 9.672950867643886,12.356637399843379 9.675026174310553,12.36099391509378 6.7341928374215065,13.929383586782563 6.726394053419426,13.940299740028053 7.399841989421475,14.677263448902881 7.401815351196638,14.678259763001183 7.101543962753567,15.034268162960139 7.125821409865239,15.120650145806207 8.24044313430968,14.84475362429111 8.255967884530037,14.842626725857912 9.022069160973842,16.58548936104234 9.029853381422072,16.59812359461975 9.812112922755842,17.03488763791865 9.853582647197255,17.05350733130362 9.877714458752962,18.651264988199177 9.863704318307647,18.684477451265042 8.039873847198397,18.808409959815975 8.037885921866474,18.80852182109556 8.612389061421345,19.604200604644205 8.646424090753499,19.628526856747698 9.52113308275475,19.48906606859709 9.54008026853153,19.49314849818656 10.386572371643343,20.141030796747142 10.418983564530572,20.17903191379773 10.93148236630841,21.55290116637661 10.990239031198508,21.664235901758726 10.524132435642606,23.69992913594069 10.49380383119751,23.712122334826923 10.77163278053231,25.443762613695068 10.75671969964351,25.486151436281574 11.213323575198956,25.722322926512057 11.214262924531432,25.726009708892157 9.963013203641822,26.863621571100154 9.950583208976969,26.87405411162362 8.346757089866514,26.10653939434596 8.29777985253204,26.06892552785757 7.9992706543085665,26.803840721909722 7.973231016977298,26.847816346219403 7.058712545865638,27.147102629566866 6.919725253420257,27.23176435293462 6.490056673864093,26.656284687243527 6.468466202753553,26.633676206351442 5.631039912974302,27.487003746872137 5.628098074753144,27.492364618879577 4.387246732532003,26.303206462962038 4.349214007197952,26.288818335262835 2.4943121903099383,26.552289374043536 2.432686504976664,26.569726319361138 2.218689619641009,27.060094039392784 2.221303777864159,27.084878783079688 2.878957537866154,28.208351491792197 2.8773045743077095,28.223884801408346 1.7261356071965566,30.746522222437846" stroke="#009edd" fill="none" stroke-width="5px" vector-effect="non-scaling-stroke" stroke-linejoin="round"></polygon>
</svg>