<svg viewBox="0 0 65.77747114666855 76.56386816274608" width="65.77747114666855" height="76.56386816274608" xmlns="http://www.w3.org/2000/svg">
  <title>Plzeňský kraj</title>
  <desc>Geojson of Plzeňský kraj</desc>
  <!-- Generated from maps/2-geojsons/world/europe/czechia/plzensky-kraj/okres-klatovy/okres-klatovy.geojson -->
  <metadata>
    <collboard>
      <support-module name="@collboard/map-svg-geojson-import" version="1.1.4"></support-module>
    </collboard>
  </metadata>
  <polygon points="2.5272351424964654,31.54762175773777 3.075662235831078,33.02150648218358 3.1422322482771055,33.20309208159143 4.670939547830312,33.1914648908829 4.6959742998324145,33.2035830564737 5.064898289163648,34.7320546109766 5.066259981610165,34.734196451736906 6.836773275831184,35.45865976371261 6.84112049716332,35.46197248621885 6.931385414500074,37.0555179268542 6.945439245609851,37.085925851433245 8.886440802944525,38.177466997856214 8.902402459832775,38.18562765551015 8.670303074942604,39.977357446937646 8.669472952277102,39.983353349778746 13.049884628719703,43.227718000851574 13.112085574498451,43.270767120145145 13.501092706940653,44.155755800902085 13.549152440274884,44.31685207297979 13.097769599387357,46.459621850354424 13.068176454497554,46.56871154749807 13.879504852721404,47.503966980014056 13.977058829608541,47.62830552163051 17.854598214497493,49.93816450277646 17.857044891832448,49.93925472285465 20.992068678498438,49.185994812514224 21.22567539138818,49.18514922032173 25.138575089163897,52.153792494545456 25.139317830500477,52.15403713962278 28.008738772719337,56.03953493264544 28.02944086694315,56.069093859594254 29.52460101627785,56.85155892528837 29.603411697165395,56.94956619992427 29.199258466943686,57.8618137324751 29.188495999385307,57.895350925883214 30.20377242960949,59.890841839139284 30.21933358872175,59.92802013054006 29.812872034942668,60.79878455526614 29.815726491831995,60.83557924515026 30.46663004383136,62.11508046172076 30.480305222497375,62.21796722486161 29.987925972722408,63.894544032838716 29.99317613449803,63.99333639508095 37.554508642942345,69.01388735821511 37.67914355138765,68.99393187722289 37.59719442427723,66.06115706036199 37.59150007405533,66.00254515597899 39.42462209360947,65.46115432260831 39.53319340027792,65.46487063744844 40.67320668383309,66.21105606591136 40.78304501983203,66.16683217766968 40.80197764205496,65.0027083179999 40.786926207388575,64.941045296029 39.713410118498544,64.21104398495936 39.69563529894204,64.16348637162282 40.32812323494272,60.63088485570898 40.22031651494308,60.5827967848074 41.20272300027409,58.378512751596105 41.22512174872082,58.33241558708669 42.244927444722094,56.92058973748917 42.24766539316315,56.91332337682962 43.212981546053015,57.70441171023249 43.250373474941995,57.73258421338378 44.62745959760778,56.422588588029434 44.663941304274886,56.321638437456386 44.784600362053425,54.775220437554346 44.77905892916588,54.71830047233362 43.92947207049856,53.67410792412975 43.920020322943856,53.604280543008464 44.247947903387654,52.739097063912595 44.25332913716539,52.714090259208575 42.88008051138877,51.023483221491745 42.858883256275845,50.99208429118426 44.21981839583296,50.495906315199505 44.222985969166444,50.49143463762285 43.642373418054014,48.55149720897299 43.59382580560905,48.54235040322511 44.3898406251652,46.88747486433841 44.390699874944225,46.84167123281787 43.55813053094298,46.30442134073802 43.54031930249749,46.30014664146857 44.81364737360837,46.22044070456451 44.86937481894256,46.222199591019134 46.49825753538735,47.421173229995304 46.524865151388624,47.4901551233923 48.71928713894431,45.4410095647325 48.74150384294317,45.417851279133004 48.6435566500526,44.77187406562426 48.66238732738694,44.73317939233949 51.153323306055796,44.435683449161125 51.20543898961023,44.3703270659431 50.537270342500236,44.20789600534172 50.509745222498715,44.2062923840158 51.127778829610726,43.772484553330116 51.19909656116488,43.76557952410204 51.044599082053,41.79113262574375 51.036123092719755,41.76146368982282 53.021339604721106,40.94050779832015 53.08690473183215,40.9088397006939 52.7364910216098,39.40615649391239 52.74609568649885,39.38060988962516 51.59315724738681,38.91373932752159 51.56267572561028,38.8932288864422 50.82227912471845,37.24963735972397 50.82436899494187,37.18851093739341 51.53588606516405,36.07530489693 51.577603370052934,36.01096458028461 52.34498623938689,36.286086941757645 52.37366188027645,36.27071908431227 52.03132366160844,35.28047251136141 52.05610355138761,35.24111995791591 53.47158648827735,35.55821903209999 53.58421374516602,35.46750483989582 53.07384850427607,34.75633991285996 53.084130374496276,34.68968615221948 54.06899810072191,34.064105476383524 54.077350299831416,34.01596377786464 52.24657301272073,33.891462819592384 52.21437299138907,33.879602782199626 51.52297547316394,31.562277281863324 51.522473030499356,31.55803577851312 53.87744365449744,31.403374939935574 53.88803864116471,31.390996080793965 54.23077007583325,30.40708354133804 54.262358427833355,30.390113947402103 53.4628483549428,29.972779442148575 53.456535053608064,29.97320371480292 53.25382492383051,28.007052252827094 53.25541963316482,28.0020150047958 54.0884768562768,28.29040399038186 54.101758818942294,28.30281216224376 55.28068592294276,26.651955643568186 55.27770767583261,26.63362267193134 56.622469986943,26.550872173154318 56.743798968277225,26.563563568482465 56.670041841166494,24.53911696086562 56.669444735388794,24.521715741554914 57.86255674249824,23.393782468310206 57.872139562055054,23.386628268143802 57.84833543049736,22.624753282479475 57.85279916027485,22.612980736198196 57.41059864116524,22.962445810955074 57.349344326497345,22.95952801095537 58.295589503386694,21.561925052944396 58.30470628916501,21.53826356110204 56.87516952116548,20.69471404657216 56.83742806694045,20.687041872364176 57.0835521558327,20.089261583056768 57.14357585005328,20.07841197532526 56.266529407386955,19.25597173761617 56.234824546941496,19.256877872190497 55.860854285608916,17.454258362969092 55.88131608116655,17.408757536734452 54.327173531832344,17.507827101673872 54.30074067849765,17.50233260916412 53.74657554427668,16.282061068729497 53.723470463385276,16.26865195366391 51.832611227832786,16.694873427855608 51.81642383583221,16.70705037862336 48.59851157272042,15.180915965183345 48.587202971832994,15.177613395638588 46.506689834056125,15.263210878969227 46.465329336275865,15.263054149248461 46.124804280276116,16.04184490940516 46.09759227671876,16.05486281026661 44.298141197609766,14.344283649197138 44.23186245627567,14.328619229484872 43.94040201894222,12.926310292948443 43.918483867830766,12.917977676767448 41.947787220720606,14.887438525058503 41.93995202783245,14.895734566435392 39.84509378783096,14.28323806728277 39.81581375938822,14.27395576511463 39.418141311386535,13.26489052837988 39.39552410960878,13.25520333820296 37.322685965610255,14.480413301157938 37.31544059672142,14.489863202751264 36.2525413398309,14.187245540547707 36.233543181611275,14.217992892015724 33.256584945163745,11.67291584767209 33.213775373608044,11.637157985394703 35.58961557272105,10.16573059468338 35.597632810054165,10.151163584881402 33.90579184294311,8.896137788776656 33.78583911760925,8.87346401966625 34.22959065538871,8.096828071836905 34.38979704827634,8.106871866053377 33.654592354944725,7.6704767163200875 33.65181799760885,7.522328316094178 34.19286136827414,7.171632836655596 34.17371029272017,7.157091512041922 31.482663778943063,7.24671568602335 31.41626852916652,7.272849254436557 29.86746352294267,6.096973344051918 29.80808790694264,6.086208192654709 28.809654228720866,6.786044861281522 28.761914893609173,6.832698960354725 29.353202530942326,7.348737920266109 29.39128622871922,7.3664738997466035 28.823773595830247,7.450713413959426 28.789410886497173,7.494424624572099 29.294627910500097,8.30070452614437 29.295610950497032,8.314951382519036 27.405836699830072,9.634715696738391 27.384836052721766,9.638380208382848 25.65864693983149,8.723375427952675 25.582049919388194,8.757358955971545 25.832004223388324,5.969113379320885 25.823732123832272,5.959211452782444 23.783312454499356,4.61884373986814 23.77820792827679,4.607929869863262 22.91543377005419,5.7176572220863875 22.915127935388412,5.77268631960597 22.816969570942277,5.090183306652586 22.811326193163225,5.07661223654414 21.821310250053468,5.663917248687182 21.791724386942043,5.653454041555057 21.687769727385422,3.8142437469241544 21.675922274944426,3.7514991235830224 22.17904214694263,2.8971225669110994 22.201229723830878,2.900746700670976 20.755119629611546,2.53309249558061 20.739398271386563,2.535190817864901 19.185372230497705,3.8049437220133826 19.11699633716471,3.8527786639953834 17.802904874054185,4.134989599323132 17.776479302497865,4.145949281123291 17.77848907316493,3.1373761333028654 17.75655635849962,3.12365437348181 17.189320433165815,4.099003100162196 17.188905371830153,4.099631295438854 15.798522722942108,4.001777795966888 15.778679878497314,4.006612739899544 16.421959409164085,4.7233039684591915 16.47252407405449,4.813023991940833 15.830547981610108,5.324721984410832 15.777143423387134,5.366106163618503 15.910909681164595,6.127048373830445 15.890112923830566,6.139921602405781 15.050050630495935,5.147394531438301 15.036207970941724,5.140205308170522 13.963733176275674,5.653218535054299 13.9237125256097,5.654911938706761 11.764927558498858,9.144074889387236 11.758920091832806,9.148154404466737 12.49178005272097,9.456944721314182 12.507901908719033,9.450254243114438 11.70241349627595,10.64392165220325 11.688832980720145,10.641826428776955 12.055885553164808,11.391663666747451 12.068504874055908,11.429988569082168 10.042648760275734,11.747388241802225 10.023286513166205,11.760349113331001 10.474050402943796,13.1577369351433 10.47612570961046,13.162093450393701 7.535292372721415,14.730483122082484 7.527493588719335,14.741399275327973 8.200941524721385,15.478362984202802 8.202914886496547,15.479359298301103 7.902643498053476,15.835367698260058 7.926920945165148,15.921749681106128 9.041542669609589,15.64585315959103 9.057067419829947,15.643726261157832 10.61321245805575,17.83598717321857 10.654682182497163,17.854606866603543 10.678813994052872,19.4523645234991 10.664803853607555,19.485576986564965 8.840973382498305,19.609509495115898 8.838985457166382,19.60962135639548 11.187671906943251,20.94213033204706 11.220083099830482,20.98013144909765 11.73258190160832,22.35400070167653 11.791338566498418,22.465335437058645 11.325231970942514,24.501028671240608 11.29490336649742,24.51322187012684 12.014423110498866,26.523422461811975 12.01536245983134,26.527109244192076 10.764112738941732,27.664721106400073 10.751682744276877,27.675153646923544 9.147856625166424,26.90763892964588 9.098879387831948,26.870025063157488 8.800370189608476,27.604940257209645 8.774330552277206,27.648915881519322 7.291156209164001,27.45738422254345 7.269565738053462,27.434775741651364 6.432139448274211,28.28810328217206 6.429197610053052,28.2934641541795 5.188346267831912,27.10430599826196 5.150313542497861,27.089917870562758 3.2954117256098474,27.353388909343455 3.233786040276573,27.37082585466106 3.680057073166063,29.009451027092116 3.678404109607618,29.024984336708265 2.5272351424964654,31.54762175773777" stroke="#009edd" fill="none" stroke-width="5px" vector-effect="non-scaling-stroke" stroke-linejoin="round"></polygon>
</svg>