<svg viewBox="0 0 592.2974236106164 700.1613937713918" width="592.2974236106164" height="700.1613937713918" xmlns="http://www.w3.org/2000/svg">
  <title>Plzeňský kraj</title>
  <desc>Geojson of Plzeňský kraj</desc>
  <!-- Generated from maps/2-geojsons/world/europe/czechia/plzensky-kraj/okres-klatovy/okres-klatovy.geojson -->
  <metadata>
    <collboard>
      <support-module name="@collboard/map-svg-geojson-import" version="0.11.1"></support-module>
    </collboard>
  </metadata>
  <polygon points="17.261356071965565,307.46522222437846 22.74562700531169,322.2040694688366 23.411327129771962,324.01992546291507 38.69840012530403,323.90365355582975 38.94874764532506,324.02483521173775 42.63798753863739,339.3095507567668 42.65160446310256,339.33096916436983 60.35673740531274,346.5756022841269 60.40020961863411,346.60872950918923 63.21716535197993,355.6685565450352 63.523946649762365,356.3128101735819 61.30285879200164,362.54418391554276 61.443397103099414,362.84826316133325 80.85341267644617,373.76367462556294 81.01302924532865,373.8452812021023 78.69203539642695,391.76257911637725 78.68373416977192,391.8225381447882 122.48785093419792,424.2661846555165 123.10986039198542,424.69667584845223 126.99993171640745,433.54656265602165 127.48052904974975,435.1575253767987 122.96670064087448,456.585223150545 122.67076919197643,457.67612012198146 130.78405317421493,467.0286744471413 131.75959294308632,468.27205986330586 170.53498679197583,491.3706496747654 170.55945356532538,491.38155187554725 201.90969143198527,483.84895277214304 204.24575856088268,483.84049685021813 243.37475553863987,513.5269295924554 243.38218295200568,513.5293760432287 272.07639237419426,552.3843539734553 272.2834133164324,552.6799432429434 287.2350148097794,560.5045938998846 288.02312161865484,561.4846666462436 283.98158931643775,570.6071419717518 283.87396464085396,570.942513905833 294.0267289430958,590.8974230383938 294.1823405342184,591.2692059524015 290.11772499642757,599.9768501996623 290.14626956532084,600.3447970985035 296.65530508531447,613.1398092642085 296.79205687197464,614.168676895617 291.86826437422496,630.934444975388 291.92076599198117,631.9223685978104 308.8864344008507,647.92675760786 309.0043992008905,648.2662089400292 350.40203404530257,671.7300035280532 350.71777192976515,671.7082701773215 358.45837452532214,682.0798742767256 358.66408474753916,682.2663466715203 367.5340910764244,682.127878229152 368.78044016087733,681.9283234192299 367.96094888977314,652.6005752506208 367.9040053875542,652.0144562067908 386.2352255830956,646.600547873084 387.32093864978015,646.6377110214853 398.7210714853318,654.0995653061145 399.81945484532116,653.6573264236977 400.00878106755044,642.0160878269999 399.8582667208866,641.399457607291 389.1231058319863,634.0994444965945 388.94535763642125,633.6238683632291 390.4900411564049,620.8751059300448 390.3592604275218,620.2544663121116 396.26820464087723,612.5055404018094 396.6770036453272,611.5234860326927 395.27023699642814,598.2978532040906 394.1921697964317,597.8169724950749 403.87147290753273,583.0432020278422 404.36430362753526,582.3993693756529 404.0162346497418,575.7741321629619 404.24022213420903,575.3131605178678 414.4382790942218,561.1949020218926 414.46565857863243,561.122238415297 424.11882010753106,569.0331217493258 424.4927393964208,569.3148467808387 438.2636006230787,556.2148905272952 438.62841768974977,555.2053890215648 439.83500826753516,539.7412090225444 439.7795939386597,539.172009370337 431.2837253519865,528.7300838882984 431.18920787643947,528.0318100770855 434.4684836808774,519.3799752861269 434.52229601865474,519.1299072390866 420.7898097608886,502.2238368619182 420.5778372097593,501.9098475588434 434.18718860533045,496.94806779899585 434.2188643386653,496.9033510232293 428.41273882754103,477.50397673673064 427.9272627030914,477.41250867925186 435.8874108986529,460.86375329038486 435.8960033964431,460.4057169751795 427.5703099564307,455.03321805438094 427.39219767197574,454.9904710616865 440.12547838308456,454.19341169264584 440.6827528364265,454.2110005571921 439.01100229418444,457.9452789340757 439.04792090754563,458.19751672797787 456.9715800008744,466.2007369469538 457.2376561608871,466.8905558809237 479.181876036444,446.3991002943257 479.4040430764326,446.1675174383308 478.4245711475269,439.70774530324337 478.61287792087023,439.32079857039565 503.5222377075588,436.345839138612 504.0433945431032,435.6922753064318 497.36170807200324,434.06796470041803 497.08645687198805,434.0519284871588 503.26679294310816,429.7138501803019 503.9799702586497,429.64479988802117 502.4349954675308,409.90033090443825 502.35023557419845,409.603641545229 522.202400694212,401.39408263020226 522.8580519653224,401.07740165393983 518.2485409964174,393.2197433521687 518.1010121786567,392.90334974213687 519.3539148630989,386.0505695861247 519.4499615119894,385.7951035432524 507.920577120869,381.12639792221665 507.6157619031037,380.9212935114228 500.21179589418534,364.4853782442405 500.2326945964196,363.8741140209349 507.3478652986414,352.7420536163008 507.7650383475302,352.09865044984684 515.4388670408698,354.84987406457725 515.7256234497654,354.69619549012344 512.3022412630853,344.7937297606149 512.550040160877,344.40020422615993 526.7048695297744,347.5711949680007 527.8311420986611,346.66405304595895 522.7274896897616,339.55240377560034 522.8303083919636,338.8858661691956 532.67898565422,332.63005941083605 532.762507645315,332.1486424256472 514.4547347742082,330.90363284292465 514.1327345608915,330.78503246899703 510.5742753964332,309.9525901715569 510.64942334311854,309.7904151972652 507.21875937864024,307.611777465634 507.2137349519944,307.569362432132 530.7634411919753,306.0227540463565 530.869391058648,305.8989654549404 534.2967054053333,296.0598400603812 534.6125889253344,295.8901441210218 526.6174881964289,291.7167990684865 526.5543551830815,291.72104179503 523.9894217786386,284.8482891434141 523.6878833608534,284.6615855517047 528.128748356412,281.1333045714454 528.2970302408685,280.8033123003733 524.527253885306,272.05952717527174 524.5432009786491,272.0091546949588 532.8737732097688,274.8930445508194 533.0065928364238,275.0171262694384 534.519163716428,266.2031660579268 534.6203804275319,265.82639229797127 544.7958638764285,258.50856108268266 544.766081405327,258.3252313663142 558.2137045164309,257.497726378544 559.4269943297732,257.62464033182545 557.0679167830858,247.32108967031303 556.4830443919818,247.16644014644038 560.7017423475227,244.43396611760903 560.7765990231019,244.185887898031 558.6894230586659,237.38017425565698 558.6834520008888,237.20616206254994 563.2416264364329,227.80253797512336 563.3430616008591,227.61586423668263 570.6145720719833,225.92682933010286 570.7104002675514,225.8552873284388 570.4723589519745,218.23653747179554 570.5169962497494,218.11881200898273 566.0949910586532,221.61346275655154 565.4824479119743,221.5842847565545 574.9448996808678,207.60825517644474 575.036067538651,207.37164025802116 570.0066164453056,200.33355810598363 570.1553831653328,200.06794612580046 560.7406998586557,198.9361451127224 560.3632853164054,198.85942337064256 562.8245262053279,192.88162047756845 563.4247631475337,192.77312440025338 554.6542987208704,184.5487220231625 554.3372501164158,184.55778336890575 550.59754750309,166.5315882766917 550.8021654586664,166.07658001434532 535.2607399653243,167.0672756637395 534.9964114319773,167.012330738642 529.4547600897677,154.80961533429576 529.2237092808537,154.67552418363988 518.000378009765,152.20059944539747 517.708087449766,152.04937592576965 510.31511692532877,158.93773892555686 510.153243005323,159.05950843323438 501.18347632086443,156.48606287963406 501.15012577864763,156.46681166928096 499.5545426319768,149.62201916234693 499.6768764986373,149.2256395813783 477.9741203742051,143.79816429883425 477.86103436533085,143.76513860338667 474.96674615198935,148.10644790674627 474.77778401865,149.1909380416218 457.05590298756215,144.62111343669307 456.64229800975954,144.6195461394854 453.23704744976203,152.4074537410524 452.9649274141884,152.5376327496669 439.32047784976385,139.3433224561049 439.0428236630869,139.07349685217554 440.90324506753313,136.1063354231191 440.3651216897597,135.43900712441604 434.9704166230986,135.43184113897217 434.3076292097576,135.27519694184952 431.39302483642314,121.25210757648523 431.17384332530855,121.16878141467527 425.1826150230954,122.3895418407082 424.7152705253284,122.36299898977808 426.26432311199096,126.84990250871118 426.26767272975485,126.926724870329 421.58971304975057,128.9420976196306 421.1430488008664,129.05307143358 421.42157680086166,134.6398820151116 421.370531538636,135.05909663711276 414.68629644530665,132.91741826867286 413.9432638408798,132.49751545179237 411.46687685420693,140.86338989758582 411.3885249253253,140.9463503113547 399.50313441864637,133.3105563693279 399.4973818142207,133.2820032839117 390.43994252531047,134.8213853198285 390.1471422408831,134.7285622981471 386.17041776086626,124.6379099307996 385.9442457430887,124.5410380290304 365.21586430310344,136.79313765858018 365.1434106142151,136.88763667451343 354.51441804530987,133.86146005247787 354.32443646311367,134.16893356715804 324.5548540986383,108.7181631237217 324.1267583830813,108.36058450094782 325.8365926230799,102.28665725644163 325.82632531643685,102.17562933208313 347.8851603742114,93.64631059383458 347.96533274754256,93.50064049581482 331.046923076432,80.95038253476736 329.8473958230934,80.7236448436633 334.284911200888,72.95728536536984 335.8869751297643,73.05772330753456 328.53492819644816,68.69377181020167 328.5071846230894,67.21228780794257 333.91761832974225,63.70533301355675 333.7261075742026,63.55991976742001 306.8156424364315,64.4561615072343 306.1516899386661,64.71749719136636 290.6636398764276,52.958738087519976 290.0698837164273,52.85108657354789 280.08554693420956,59.849453259816016 279.60815358309264,60.315994250548044 285.5210299564242,65.47638384966189 285.9018669341931,65.65374364446683 280.22674060530335,66.49613878659505 279.8831135119726,66.93325089272179 284.93528375200185,74.99604990844449 284.9451141519712,75.13851847219115 274.24825541420796,87.05020510875687 274.19910341418654,87.49791190350146 266.0473716453016,88.33616161438471 265.8373651742186,88.37280673082927 259.73072069422415,81.02065645846955 259.49704844529697,80.84995903626617 248.5754740453158,79.22275892652755 247.80950384088283,79.56259420671626 247.32745015198088,60.144223311381154 246.99809534308224,59.330097988353316 250.30904688088413,51.680138440209646 250.2263258853236,51.58111917482523 238.3426101875266,49.81163831902444 238.264913618641,49.76139809018417 229.82212919199446,38.1774420456822 229.7710839297688,38.06830334563341 221.3487612986537,43.0355206531421 220.20013367197316,43.97269795697133 221.14334234754278,49.16557686786467 221.140284000885,49.715867843060494 217.97649719198307,49.99241304754463 217.933243431984,49.95686372182166 220.15870035642365,42.89083771352665 220.10226657863313,42.75512701244219 210.20210714753557,48.62817713387261 209.90624851642133,48.523545062551364 208.86670192085512,30.13144211624234 208.74822739644515,29.50399588283102 213.7794261164272,20.96023031611179 214.00130188530966,20.996471653710557 199.54020094311636,17.319929602806894 199.38298736086654,17.34091282564981 183.84272695197797,30.038441867134622 183.158968018648,30.51679128695463 170.01805338754275,33.33890064023211 169.75379767197956,33.4484974582337 166.80773601866167,28.106379310938735 166.77642437418763,27.921718044093666 169.7738953786502,23.36276598002945 169.5545682319971,23.225548381818896 163.88220897865904,32.979035648622755 163.87805836530242,32.98531760138934 149.97423187642198,32.006782606669674 149.77580343197405,32.05513204599623 156.20859873864174,39.22204433159271 156.71424538754582,40.11924456640912 150.29448446310198,45.23622449110911 149.76043888087224,45.65006628318582 151.09810145864685,53.25948838530525 150.89013388530657,53.388220671058605 142.48951095196026,43.4629499613838 142.35108435641814,43.391057728706016 131.62633640975764,48.521189997543786 131.2261299030979,48.5381240340684 124.88333736975983,57.0714284187888 124.76610074755808,57.08039869628914 124.66837928975656,65.44207778018966 124.6848361075281,65.52436746638335 109.63828023198948,83.42975354087315 109.57820556532897,83.47054869166817 116.9068051742106,86.55845186014261 117.06802373419123,86.49154707814517 109.0131396097604,98.42822116903329 108.87733445420236,98.40726893477034 112.54786017864899,105.9056413144753 112.67405338755998,106.28889033782247 97.30083696086149,106.81575535309452 96.5521973875475,107.05056322292143 97.17806618752729,113.73410048180443 96.93354408977393,113.78988281776031 92.41549224975824,109.46288706502304 92.22186977866295,109.5924957803108 90.66029253420493,115.32835522944873 90.60276648977378,115.47139120959395 96.72950867643885,123.56637399843379 96.75026174310551,123.6099391509378 67.34192837421506,139.29383586782563 67.26394053419426,139.40299740028053 73.99841989421475,146.7726344890288 74.01815351196637,146.78259763001182 71.01543962753567,150.34268162960137 71.25821409865239,151.20650145806206 82.4044313430968,148.4475362429111 82.55967884530037,148.42626725857912 90.22069160973842,165.8548936104234 90.29853381422072,165.9812359461975 98.12112922755841,170.3488763791865 98.53582647197254,170.5350733130362 98.77714458752962,186.51264988199176 98.63704318307646,186.84477451265042 80.39873847198396,188.08409959815975 80.37885921866473,188.0852182109556 86.12389061421345,196.04200604644205 86.46424090753499,196.28526856747698 95.2113308275475,194.8906606859709 95.40080268531528,194.9314849818656 103.86572371643342,201.4103079674714 104.18983564530572,201.7903191379773 109.3148236630841,215.52901166376608 109.90239031198507,216.64235901758724 105.24132435642605,236.99929135940687 104.9380383119751,237.1212233482692 107.71632780532309,254.43762613695066 107.56719699643509,254.86151436281574 112.13323575198956,257.22322926512055 112.14262924531431,257.26009708892155 99.63013203641822,268.6362157110015 99.50583208976968,268.7405411162362 83.46757089866514,261.0653939434596 82.9777985253204,260.6892552785757 79.99270654308566,268.0384072190972 79.73231016977297,268.478163462194 70.58712545865637,271.47102629566865 69.19725253420256,272.3176435293462 64.90056673864092,266.5628468724353 64.68466202753552,266.3367620635144 56.31039912974302,274.87003746872136 56.28098074753143,274.9236461887958 43.87246732532003,263.0320646296204 43.49214007197952,262.88818335262835 24.94312190309938,265.52289374043534 24.32686504976664,265.6972631936114 22.18689619641009,270.60094039392783 22.213037778641592,270.8487878307969 28.78957537866154,282.08351491792195 28.77304574307709,282.23884801408343 17.261356071965565,307.46522222437846" stroke="#009edd" stroke-width="12.8256580984729px" fill="none" stroke-linejoin="round" vector-effect="non-scaling-stroke"></polygon>
</svg>