<svg width="44716.38815914665" height="17647.17360329401" xmlns="http://www.w3.org/2000/svg"><polygon points="5,17456.571894577297 17.658351217745803,17508.437267551722 17.928942080005072,17508.95218948857 32.91804472892545,17521.40786858526 33.0205721600214,17522.515342382714 55.098339840071276,17519.142333697237 55.83321685332339,17519.188306638564 73.25530709337909,17530.388862046588 82.10295836441219,17530.58653531788 90.2538891377626,17556.036145588674 90.25971456000116,17556.57761359919 119.37138830230106,17575.650853478175 121.1615405511111,17576.63073774887 131.5992408178281,17595.48207254446 132.6722835911205,17597.885133989912 145.12324977770913,17585.138814084523 144.99625557335094,17584.668194600672 180.49492224003188,17614.519706685853 182.02555192890577,17615.559612101293 193.34813383116852,17636.38377730752 193.41978652449325,17637.15662077401 214.16935793776065,17638.80889752094 218.26055196439847,17641.00701249164 226.19390321779065,17613.295525262307 226.9445088710636,17611.0346314013 230.1782007466536,17612.39346821478 233.46490396442823,17601.59744136274 246.88696803560015,17612.693541609508 250.18386574217584,17610.774994715757 254.12563768890686,17624.76322286809 256.37046414229553,17625.92025195266 298.1961218845099,17633.203235404624 298.8479866310954,17633.294673192722 306.4393856000388,17596.248628614994 301.89293482666835,17588.39175935951 316.9222328888718,17579.90311450808 318.11615317326505,17578.64334725251 320.58991871995386,17568.433951457322 321.19663644442335,17567.186986786604 315.79821767110843,17564.36669657426 315.2861630577827,17564.222831368737 316.74164479994215,17562.251454718935 318.96229575108737,17559.28033682704 315.9493873777101,17555.9768506221 318.5682059377432,17554.527566255478 307.1215425422415,17536.662831369147 306.99979121773504,17536.395750080817 309.60841528885067,17533.067089619988 309.7473516089376,17532.55406404991 298.6612818489084,17527.763008290844 297.8040709688794,17527.171819020703 300.77532757329755,17524.068278629158 270.4575001599733,17473.893312817498 270.07622627553064,17473.394860946515 270.84838599106297,17449.16613607586 270.2157451377716,17447.692679871165 277.2146986667067,17445.039605535334 277.5808264533989,17445.235977383854 282.96206023113336,17462.194104503724 283.69198563555256,17462.75328242744 305.24896056891885,17424.660110251454 305.4047906133346,17424.220415857213 328.604825884453,17405.406083034643 329.23164131562226,17404.766721041233 321.0690596977947,17393.020061922318 320.8372078933753,17392.502563103393 318.81928163557313,17378.922950180422 319.1527870577993,17377.7576949058 330.12671743996907,17364.37543899211 331.92531655111816,17363.88455493073 331.95182222221047,17346.823454041383 332.7091271111276,17345.513093885093 355.65837795555126,17332.355219298217 355.9429498311365,17332.23742653639 354.821264782222,17326.25797892816 354.5838788266992,17319.402691328025 345.143199573271,17317.037479094986 345.0866929778131,17316.914156033366 307.00357774225995,17327.443758675014 306.6228863999713,17327.565695298894 298.5468123022001,17323.994534132595 296.9372481422033,17323.340205959918 298.8130340977805,17306.59756397811 255.9489948444534,17278.748261065397 255.02246144006494,17278.209776910546 207.25574684445746,17279.624560608936 207.04399274673779,17279.624560608936 180.4258909865748,17258.93530049181 179.29838051553816,17258.159719542076 161.40909141337033,17257.987572412763 161.17520071112085,17257.616120785533 160.30255246220622,17290.459268291306 160.32235889777075,17290.71791025164 143.38377870223485,17329.075863165956 143.2107636622386,17329.272340657248 107.12169045337941,17338.802434330166 106.97780252445955,17338.818078208657 83.29250958224293,17330.466386197717 83.14192241779529,17330.436937755265 51.549492622260004,17344.36836262379 51.21889991115313,17344.605315132125 55.54456718231086,17352.66062529228 56.08866161783226,17354.285177590733 39.32193137775175,17391.46342172398 39.22930716443807,17391.64788233448 52.72739299549721,17408.463955043408 53.57499192887917,17408.3439040269 43.12564081780147,17422.95697938156 42.17726208001841,17423.740706410725 16.795023644459434,17428.168894585222 16.275978524354286,17428.561208907457 18.24701013334561,17444.477622348408 18.32536206219811,17446.114819695416 5,17456.571894577297" stroke="red" stroke-width="3.0254541394453347" fill="none" stroke-linejoin="round" vector-effect="non-scaling-stroke"></polygon><polygon points="44569.91836302227,125.1840479549719 44586.28576056892,140.24892383662518 44622.25832533336,159.03040928422706 44632.20232106664,187.20665763725992 44639.759641315555,194.86899836617522 44634.42471964448,213.34200714883627 44643.328003697796,214.1037141814013 44643.92481820448,215.09253148472635 44636.277495182236,230.44729025481502 44635.67136000004,231.83431806636509 44636.02379804442,243.42978381586727 44636.9436322134,247.23573692148784 44619.8946602667,244.00023210368818 44618.843462826684,243.05497397395084 44619.60979711998,251.9568973549758 44619.535814257804,258.9780504927621 44623.989640817745,254.06591347174253 44628.20841159113,254.1597357398714 44636.037196515594,260.92979763197945 44653.53938631108,260.756631350494 44650.735610595555,245.78443240671186 44650.714056533296,245.49297249264782 44663.30133759999,231.66811479564058 44663.54862677329,231.22989651846 44661.60118812451,226.9399996851571 44661.617208035546,226.58212989912136 44666.963489279966,219.49697842571186 44667.524186168914,218.59004143666243 44664.1163141689,215.31315539276693 44664.160878648865,215.14643961080583 44673.45912632893,219.25988741434412 44674.160215893295,218.6878730271128 44673.31902492442,204.4473960698233 44673.56835299556,204.1379071889096 44679.63698659558,210.7863246552297 44680.17729450669,210.2018076502136 44677.46847317333,200.37907760491362 44673.56107121776,195.9043334600865 44675.90842510224,192.25567756808596 44672.56405020447,188.72527050744975 44677.19555214222,189.52900256047724 44680.68760149332,187.10481731937034 44683.201562453294,175.69738382147625 44680.677989546675,172.5496194633306 44687.588105386705,167.45118732360424 44689.825650062296,166.5510103427223 44693.950631537824,184.32615466060815 44693.98820551112,185.6885327648488 44699.60070855112,186.7513711186475 44704.87562837335,186.23867336002877 44691.78823480883,171.73883142875275 44691.11335964443,169.30095626256661 44695.913216284476,167.32637100602733 44697.75463224889,163.0336420670501 44694.973575679935,149.56074076128425 44707.00540273776,137.06216727220453 44702.52652686217,132.0981786507764 44685.245411840035,136.56981846230337 44705.82575473783,82.81181360286428 44694.15597767115,64.76364103559172 44694.48278385785,33.35974727087887 44667.80963185779,31.213992322678678 44665.160521102254,33.956258168735076 44645.39865002665,17.684978282195516 44616.54475121782,5 44614.58944824885,36.1149736653897 44609.48579583992,39.517614769691136 44620.297196942265,39.812864041829016 44623.62875591114,40.737576020823326 44635.088817777694,61.02174218039727 44642.11078172445,72.22225944435922 44629.478353635524,73.41205686435569 44635.99787491548,89.42769778805086 44610.42980551103,98.19294171076035 44601.986438542255,92.6106982700876 44569.91836302227,125.1840479549719" stroke="red" stroke-width="3.217803315881267" fill="none" stroke-linejoin="round" vector-effect="non-scaling-stroke"></polygon><polygon points="44708.03999772447,201.804246183543 44711.38815914665,202.1212262926274 44708.03999772447,201.804246183543" stroke="red" stroke-width="3.9292335345671443" fill="none" stroke-linejoin="round" vector-effect="non-scaling-stroke"></polygon><polygon points="5,17456.571894577297 17.658351217745803,17508.437267551722 17.928942080005072,17508.95218948857 32.91804472892545,17521.40786858526 33.0205721600214,17522.515342382714 55.098339840071276,17519.142333697237 55.83321685332339,17519.188306638564 73.25530709337909,17530.388862046588 82.10295836441219,17530.58653531788 87.16845425777137,17544.66362438345 87.5232224711217,17544.945864693553 105.3032849066658,17536.824642935535 105.30765397334471,17536.67800120864 56.273618773324415,17499.05214012222 56.05778688006103,17498.658114915655 77.3424233244732,17486.343200027302 78.0758439822821,17486.23468734749 84.08564081776422,17508.577951703046 84.08010666666087,17509.102987823135 93.53098040889017,17512.449488366314 94.0794439110905,17512.349723954685 99.82127132441383,17498.347767834435 101.50627470226027,17494.113209710806 100.20895317324903,17480.488035306393 99.94506154663395,17479.378966253542 107.51898424886167,17478.031706373964 108.37823402672075,17478.44738062698 115.43893703108188,17498.478343549592 116.79655167995952,17502.030984174053 133.29706012445968,17522.808644993172 134.41991025779862,17523.879793772066 129.54490567115135,17526.558102162322 128.74099740444217,17526.70980761561 131.42884721781593,17533.330497435993 131.4538965333486,17533.50564276916 148.49762559996452,17533.690901326307 148.55733617779333,17533.69733710459 149.7221293511102,17554.462755024026 149.93330090667587,17555.310815342993 138.96577848889865,17560.151360312477 135.91238343110308,17562.075413447164 142.49773198226467,17567.995009684237 146.54698296880815,17570.089512286475 144.88965034671128,17584.835025648412 144.9543125332566,17585.142031206342 183.46297486231197,17622.10818986362 183.32170837337617,17623.04834547342 196.17725013324525,17599.924659118347 198.6521807644749,17596.2104847022 198.41625116439536,17588.458858307742 198.87471189338248,17588.104980057687 191.63895495107863,17576.349458104058 191.09660814225208,17575.502859313157 173.89501013339031,17570.415383257437 173.25246606220026,17569.9815013482 181.68243456003256,17559.30056115886 182.31886193773244,17558.845972877636 194.111555413343,17568.92620865564 194.3201055289246,17568.926668279048 201.8782995911315,17556.13405119552 202.13403562665917,17555.462500577036 185.30264320003334,17538.620651233476 185.15351239114534,17538.221182034875 175.7384649955202,17543.022578131 175.08223118225578,17542.90811813675 161.78949148440734,17533.928105598956 161.7283245511353,17533.82789142261 182.13244842668064,17524.73487009533 183.0281070934143,17524.25262585451 181.68272583116777,17505.53850996011 181.5394204444019,17504.356927489687 217.01886321778875,17504.70082842518 219.32514787558466,17504.427270907443 244.17232127999887,17494.848860954342 244.60835413332097,17494.58678548655 223.56489016884007,17489.720859790395 223.1486637510825,17488.333662338264 220.05915107554756,17497.761095687398 220.00322702224366,17497.853050674836 181.378930062172,17502.737183491525 181.62097635562532,17503.563838349073 140.19173859560397,17474.416134252504 138.62295239116065,17472.010777293704 133.1709397333907,17480.71058413078 132.86830904893577,17480.765301678504 118.15416632895358,17467.233091385628 117.25122588442173,17466.64725427935 84.20185799116734,17462.656254125235 83.51416689774487,17462.349993889744 80.73281905776821,17453.511945461214 80.75553820445202,17453.115997565386 85.38470997335389,17436.512663887523 85.04013624892104,17435.836601556104 79.13752718223259,17428.457266378042 78.71489279996604,17428.192350678495 63.108586666639894,17431.704296950076 62.738672355539165,17431.482617381087 55.52184803551063,17408.629082577478 54.0078208000632,17408.30342704075 43.12564081780147,17422.95697938156 42.17726208001841,17423.740706410725 16.795023644459434,17428.168894585222 16.275978524354286,17428.561208907457 18.24701013334561,17444.477622348408 18.32536206219811,17446.114819695416 5,17456.571894577297" stroke="red" stroke-width="3.339445179688985" fill="none" stroke-linejoin="round" vector-effect="non-scaling-stroke"></polygon></svg>