<svg width="469.3380374754779" height="327.2051721102325" xmlns="http://www.w3.org/2000/svg"><polygon points="5,221.28637793794041 7.245991537696682,225.06843086256413 9.820536888903007,229.45012759696692 8.451271395548247,231.14974487631116 9.036143786623143,231.9250361097511 10.036951324436814,232.39912399521563 10.91367736889515,233.22483586601447 11.114654435543343,233.5751096443273 11.308058453374542,233.71332806325518 12.075266559957527,234.22928269323893 12.375567075563595,234.65609241026687 13.090346382232383,234.72497617907356 14.633209457737394,232.35860370320734 14.752048071008176,232.72103493695613 14.831273813266307,232.90922880661674 15.085553493350744,233.26445555035025 15.62294869334437,233.8862135198433 16.06102044438012,234.14734233589843 16.30510563554708,234.24233912100317 17.37814840883948,234.579554864089 18.74333610665053,234.6790536689805 20.153088284423575,234.0217304098187 21.621094684349373,234.75334007747006 22.487626240006648,235.2112139298697 22.678700088872574,235.280097523937 23.00230229331646,235.52501679374836 25.310917119961232,235.56913825066295 27.889248995576054,235.7006021309062 29.436481137759984,237.67840364819858 30.70671445329208,239.38200892903842 27.63234787550755,239.38290935114492 26.926889244350605,240.11855298350565 24.58506951108575,241.2670345188817 21.787993031088263,242.0575969030615 20.866993777803145,243.36138830991695 20.59232512000017,246.52088927547447 19.346849848749116,249.35710806207499 17.37086663104128,252.1914893569774 17.52844430215191,253.6293746017618 18.752948053297587,254.719261914026 20.56174165336415,255.7348645371385 22.178005048888735,256.8076347075403 22.690642204368487,256.74235929141287 23.60202951100655,256.85940485133324 24.833523768815212,256.7837754197535 25.665685333311558,256.3786173055414 26.33007473766338,256.1211164253764 27.408651662175544,255.69164750014897 29.57396110217087,254.60851772606838 30.247088639996946,254.32400394562865 30.770794097683392,254.12727505515795 31.418289777706377,253.9057860240573 32.013065386679955,253.73381674371194 32.65881344000809,253.56319787394023 35.717742648907006,252.8298503466649 37.43245567986742,252.3652605866082 40.22312419558875,251.74715659598587 41.6928782222094,251.87500927620567 42.72659939550795,253.71896075247787 41.292380444472656,254.2380194866564 42.0761910044821,257.0723375749076 44.23043214227073,256.75811542815063 43.79847708437592,254.95425549324136 43.930131626548246,254.86557020660257 47.53286399994977,252.87216758204158 47.883263146621175,252.865414832253 48.068802844383754,252.87306794867618 49.76225308445282,252.96490532450844 54.7759027199354,253.93864924809895 55.0514451910276,253.97286301036365 56.094195768935606,254.1061165598221 55.96661902219057,253.93009580665966 55.93050140433479,252.68264032603474 56.34556273778435,250.8112186799408 57.36792433774099,249.75282519008033 57.57967843557708,249.15632298856508 58.23911623109598,248.75610286428127 57.99823502218351,248.19066126144025 58.06755754665937,248.0119345909916 58.16658972436562,247.78188568964833 58.72379135992378,247.8948842996033 58.65039104002062,247.03816429933067 58.33727459551301,246.9071574245463 58.72583025775384,246.59652225347236 58.82224099547602,246.53079359553521 58.435432960046455,246.0941026957007 58.9180691910442,245.95904347818578 59.76013397332281,243.90568290796364 61.09619455994107,241.4538704197039 63.10480014211498,241.96125289285555 64.29872042662464,242.4447733387351 66.17916672001593,244.41531070071505 66.82112824881915,245.83388852881035 66.96880270214751,245.82038259477122 69.67529386666138,245.37423610431142 72.38935807999223,244.58548650157172 72.34916266659275,241.91578210692387 71.89944007107988,239.71786612196593 71.71593927114736,238.65131515916437 70.68862606224138,237.9066623133258 69.46936519106384,236.7640159581788 69.64529294217937,235.16033910471015 70.46667747548781,235.8955467120977 71.78992213332094,236.89322803972755 73.71551544882823,237.41637861495838 74.02979697776027,235.92706198606174 74.31873791990802,233.65705021598842 73.47667313774582,232.62063479190692 72.82568220433313,231.69767165981466 71.47651441779453,230.6423373380676 70.6184297244763,230.40506650623865 71.11708586663008,227.35113831993658 71.46865009772591,225.36243771505542 71.60409116442315,224.73029998177662 72.45460280880798,223.3885770898778 73.93192988436203,221.90321722079534 75.18905599997379,220.96039793587988 75.32828359107953,220.71996486082207 75.48993905773386,220.49393951933598 76.25772970658727,219.47862360230647 76.67482993775047,218.9477758439025 76.9815384177491,217.74199472676264 74.58554225764237,216.15844012825983 73.36715519998688,215.2489153885399 74.54272540437523,214.37045498460066 77.77263075555675,211.89759928034618 79.49462556443177,211.8278077907744 81.85887317336164,212.5455334018916 84.04661048878916,213.23353918083012 85.38267107552383,213.79501873382833 87.25554431998171,214.5541620136937 87.817988835508,214.80180604907218 88.91025550209451,214.61764896591194 89.56386787549127,213.42174980894197 90.87750058656093,210.73320416128263 93.85953422216699,212.05429235007614 94.5754786132602,212.1664088742109 96.93127935996745,212.69186989060836 99.46795946662314,211.0763096313458 99.43591964442749,211.27893071930157 98.60783587547485,215.26242320938036 95.7455146665452,218.70644005056238 96.72302051552106,218.90590230189264 98.38909127109218,219.28861717344262 99.79563946661074,219.50248695729533 100.9231499376474,219.70645099843387 101.15849699545652,220.7721937909373 101.99007601779886,222.15580565168057 102.01163007994182,222.53311189136002 102.33814499550499,222.7847991049057 102.75233251554891,222.80190842197044 103.10477055993397,223.09636856394354 103.57167815114371,223.1404925265815 104.2273294221377,223.12698519206606 105.49843655107543,223.6569223263068 105.66620871110354,222.6033502126811 106.16690375108737,222.63171568221878 106.15525290661026,223.0441401884309 107.32645404431969,223.41874343325617 109.84507534222212,223.01082208030857 112.53234261332545,222.90501454123296 112.35408469324466,224.32193083147286 112.28243200003635,224.84105928917415 112.43767950218171,224.50382854044437 112.60079132439569,224.31562744284747 112.8174970310647,224.29761775990482 115.02096298662946,222.1508529401617 116.68907263991423,220.97930839122273 118.15125361771788,219.8091083248146 119.68479601771105,218.38675976521336 120.21694833773654,217.65869742888026 120.5396767287748,216.96845427597873 120.57725070219021,215.99679714627564 120.53239495109301,215.3569779318059 121.11173319106456,214.38351259718183 122.40643327997532,211.63869525544578 122.68430591991637,211.10557713342132 123.02887964434922,209.80834762955783 123.51646748441271,209.83716502931202 126.50024874659721,210.4936603907845 128.30409073771443,211.7994409208768 130.27104455104563,210.94257961050607 132.72238222218584,212.59101029043086 132.9891865599202,214.05797257606173 133.31803164433222,215.1313973122742 133.86358243552968,218.67537255038042 134.2556333511602,218.6321481949417 134.30223672883585,218.77172681200318 135.88646030216478,218.26384031993803 140.13086293335073,217.1409027040354 142.83910172444303,216.4803749595303 143.26173610659316,216.21742402785458 144.0117592177121,214.76623537763953 144.86751374218147,213.43931012239773 145.0885885155294,212.06464849726763 147.0808829155285,212.49465330736712 147.4723512888886,212.6810635071015 148.37995207111817,211.85887626302429 149.87242524442263,211.59997219231445 150.61866183101665,210.37749057315523 150.9856634309981,209.69172717590118 150.47186119109392,208.60656862414908 150.4561325510731,208.21527984295972 150.8327460977016,207.38497083680704 153.07669873768464,205.95218508900143 153.5852580977371,204.436087629525 153.93041436444037,202.95960483740782 154.05012679111678,200.98914445808623 153.1381569422083,199.7400362995686 152.52561379550025,199.3491819576593 152.17259320884477,199.44329326285515 152.0094813866308,199.81928778602742 151.74209450662602,200.83649607852567 151.14382364437915,200.5010295014945 149.66416639997624,199.5612700569909 147.26613134215586,199.4401412102161 145.27267185773235,199.5729776743101 143.4117407288868,201.11972853308544 142.15869240881875,201.27327729400713 139.18889215996023,200.90899281483144 137.97603925329167,200.96437850402435 137.7607899021823,200.57307605806272 138.2227458843263,199.31811170931906 138.65178823110182,199.22850328712957 139.1842318221461,198.19462657626718 140.79554360883776,198.24956265679793 141.90878179552965,198.2022816046374 144.07816903106868,197.8483488332713 144.36244963551871,197.80827244010288 144.8718828088604,198.0068531477009 146.79631103994325,198.2329017157317 147.4609917155467,198.15995379694505 148.68607800884638,197.93660693161655 149.46318933332805,197.7245172575931 149.64377742214128,197.42056672967738 151.06518044439144,197.07383746374398 151.718501546653,197.16209587448975 152.4827969421167,197.07698955049273 153.7419619555585,197.346717945009 154.4194585599471,197.8978814438451 155.17530709330458,197.9937945579295 156.2943707021186,198.6269101157668 157.30566399998497,199.00921015953645 158.27239281777292,198.91014543012716 157.14226090663578,194.78180810739286 157.1204155732412,194.58772750548087 155.0451089066919,193.87669756496325 153.84798463992774,193.69612531230086 152.6092086044373,193.75781709619332 151.6748108799802,193.9064176721149 150.8441056710435,194.20271791314008 149.87621176883113,194.12751712999307 148.53607338666916,194.15948872361332 148.36800995550584,193.1287402070593 149.49260771553963,193.02787158993306 150.2557380265789,192.77885199221782 150.83711516438052,192.50101243203972 151.24314709333703,192.29567210911773 151.88831260439474,191.79808127286378 152.46211669326294,191.31715077382978 151.17994126223493,189.31596420216374 151.05702485330403,189.10071397136198 152.81775871990249,188.33202574943425 153.72798094223253,187.9690706768306 154.4497507555643,187.56333482725313 155.05530339549296,187.2674759143265 155.59036842663772,187.3323217377765 156.0214496711269,187.53226290550083 156.85856284433976,187.84118065668736 157.43091057776473,187.78669228038052 158.29860721773002,187.41518026182894 159.93176433769986,186.83967312588356 161.09393607103266,186.6460357994074 161.7507524265675,186.5663292221725 162.52815502218436,186.41141918115318 163.1074932621559,186.15248500136659 163.64430591987912,185.81699591281358 164.19946865772363,185.4117063949816 164.68676522665191,184.95507930556778 165.20872305775993,184.27193818270462 165.88476330658887,183.77748137898743 166.31904853333253,183.59194720804226 166.90362965327222,183.52169636450708 167.59801998222247,183.8292688014917 169.0558318932308,184.36560564802494 169.69604579545557,184.66687236819416 170.91996700433083,185.60219256184064 171.74630314658862,186.36323493084637 172.3536034132121,187.08914980106056 172.03903061326127,188.14154195884475 172.14942236442585,188.364448505803 172.50797710218467,188.72965449898038 173.8722909865901,189.61902536067646 174.21802979544736,189.62758131604642 175.36330780445132,189.79329659458017 176.04721237323247,189.96801800245885 177.11064319999423,190.82270988932578 177.59560959995724,191.02264786791056 178.80234581325203,191.34101719997125 179.64033279998694,192.07006771629676 179.8777187555097,192.336650127545 180.42967751109973,192.4798479778692 180.99678236444015,192.53433518565726 181.50272028439213,192.37987967714434 182.14905087999068,192.1110457769828 182.7199422577396,191.7318858455401 183.04966115555726,191.46485238790046 183.2116078932304,191.06812922935933 183.21277297777124,190.1467920820578 183.23607466660906,188.7832420101622 183.34646641777363,188.6157247045776 184.4926182399504,187.62592897523427 184.81097756442614,187.2246956732124 184.82321095105726,186.9590076720924 184.75097571546212,185.8953517996706 184.71747953770682,185.17618780810153 184.49553095106967,184.30391121620778 184.1241602844093,183.21907708782237 184.0128947199555,182.78811409207992 183.9942533688154,182.48414281674195 184.11221816879697,181.97842374426546 184.29746659554075,181.50332595512737 184.55116373335477,181.18043900164776 185.80275569774676,180.19151030527428 185.91081727994606,179.98795976408292 185.8895544888219,179.61778550670715 185.67838293325622,178.67838670942 185.65566378668882,178.15689704567194 185.7412974932231,177.72547374194255 185.94780871109106,177.1909219759982 186.2807315910468,176.64601108100032 187.08726129774004,176.15423909184756 188.49497457768302,175.46791809465503 188.99566961778328,175.53051570267417 189.9198728533229,175.57780165364966 190.36114858661313,175.42153280531056 190.74329628434498,175.09368310065474 191.01359587546904,174.78744941647165 191.40885077335406,173.9907894860953 191.7266275555594,173.63726789824432 192.1373198222136,173.52918475097977 192.8713230221765,173.6642886766931 193.27764622215182,173.76696760440245 193.84416853333823,173.55035103816772 194.59360910218675,173.21979644690873 195.18139420438092,172.81628498830833 198.9804433066165,170.39700202213135 199.67803761770483,169.5886168857105 200.20669468445703,168.8829099823488 200.5969979732763,168.5667597571155 202.16753180441447,167.58002584584756 202.62628380442038,167.4408649315592 203.60116821329575,167.05535721190972 204.3599294576561,166.76532525545917 204.68935708445497,166.2955987714231 204.8067393421661,165.92405026289634 204.4446893510176,165.37550840253243 204.37682318210136,164.9044278418878 204.45401002664585,164.60763756069355 204.56119779555593,164.23833801428555 205.10558350221254,163.4132665321231 205.46792476437986,163.14214520226233 205.96599836437963,163.02955318900058 206.4378575644223,163.17727389838547 207.1500154309906,163.61773322650697 207.4925502577098,163.708256966318 208.22830108448397,163.7258212697343 208.52190236444585,164.1748364442028 209.63251911115367,164.839575371705 209.96835470211226,165.19356153754052 209.94505301327445,165.54349386377726 209.69659875554498,167.36295279534534 209.61708174226806,168.11595216440037 209.57135217776522,169.18780086375773 209.27221674658358,170.12363757763524 209.0263839288382,170.83744681731332 208.08353934215847,172.51004811679013 206.61145514657255,174.93786425021244 206.27794972446281,175.6277896479005 204.9369375287788,180.2027686262736 204.77149553771596,180.80080979841296 204.24662499548867,182.21934971702285 203.02008234662935,185.3851373892394 202.03267327987123,187.06708418601193 201.65722481766716,187.67681485210778 199.60521983995568,190.54621878016042 198.96675356442574,191.4153183211456 197.0880548977293,193.7010786678875 193.95426901325118,196.952256941644 192.18042794661596,198.78001033118926 190.51144447992556,199.7202234233846 191.10010339552537,200.4478951508645 191.50147498666774,201.68709291960113 195.75170303997584,205.64689514727797 199.4266706488561,209.13564037450124 201.04788565333,209.2810785974143 202.65570218663197,209.32700643723365 202.7725019021891,210.68142310529947 202.95949795551132,211.95208165352233 203.18086399999447,212.70582813525107 203.4832034133142,213.96656913589686 203.45524138666224,215.28268493909854 203.12027960876003,217.58170368213905 202.95716778654605,220.08826396858785 202.89774847996887,220.68664639879717 203.0850358044263,223.63621112855617 203.13804714661092,224.80684097262565 203.2003791644238,225.46284118981566 203.35446158214472,227.53708563017426 203.4727176532615,228.6887848211918 203.62330481770914,229.6158127229428 204.51372060447466,233.28291471884586 204.61362659547012,233.50892685248982 204.73974698665552,233.70477383147227 204.84402204444632,233.78176190616796 204.91916999104433,233.81868015462533 206.48883000877686,233.9555477531394 209.93718869332224,234.28105817793403 211.37519416876603,234.3841588893556 214.50810623995494,234.63448181172134 217.93432831997052,235.04193127993494 218.56871679995675,235.18825272709364 218.9732923732372,235.2990067420178 219.904194844421,235.85052488429938 221.93318940442987,238.0633367622504 224.54763889778405,240.36481746600475 224.34287530661095,240.64529751706868 229.9845054576872,247.2565089162672 230.20325006218627,247.3447470914689 231.14784227544442,247.43253503652522 232.94731519999914,247.52482488949317 234.36289280001074,248.04885043913964 236.1274131910177,248.99830590659985 236.82850275549572,249.51017279253574 236.50577436445747,249.62947317009093 229.95159182220232,260.92309784761164 224.87939669331536,269.5854852475459 225.20095999992918,269.84026939753676 226.1586594132241,270.5334968556417 227.4661754310364,272.3331771119265 228.38484451558907,273.5075977946399 229.20419015106745,274.855315413035 229.60177521768492,275.66151126415934 229.5633274310967,276.1971729740035 229.42002204444725,276.88542882649926 228.8963165866444,277.6367010571412 234.30318222218193,277.7397813478019 239.63315228442661,277.8842737257946 240.55123882659245,277.49806024029385 240.64823210658506,277.7573365016142 247.4485387377208,276.6765665858984 260.3043717688415,274.53166588034946 269.40309873770457,273.03539951180574 279.84720696893055,271.26543463300914 280.9828730310546,271.1267897806829 281.17423815105576,270.96878855943214 281.32249514665455,270.82069044501986 281.48764586658217,270.15852409403306 281.6160964266164,269.55667571374215 285.9062286221888,269.4099270917941 285.9094326044433,268.6266659119865 286.4648866133066,268.5280828408431 286.6507175822044,267.98519992706133 287.5912319999188,267.4094544702675 288.49009464890696,268.0014054066851 289.14953244442586,268.4434544154792 289.8465442133602,268.93096771475393 290.24471182213165,269.26137777307304 290.6067618132802,269.57558197074104 291.3710572088603,270.1990373885492 292.1770043732831,270.7374133458361 293.42247964441776,270.61857461964246 293.87715384887997,271.28254016063875 295.81731071986724,270.398002570495 300.60435143101495,268.30840898817405 302.6479095466202,269.5850350986584 304.1561113599455,271.69397271232447 305.6124669155106,273.7583261161344 307.49815608887,274.3110977744218 308.1645843910519,274.48215061059454 309.8216257422464,275.3657714223955 310.5678623288404,276.0184691711329 312.0236353422515,277.640752248466 314.14175886218436,280.0638013911084 315.178101475467,281.2381805969635 316.0090979555389,281.43398487276863 314.35001770663075,282.05155491258483 313.9349563732976,282.1748886622954 313.9521413688781,282.39319823123515 314.20875121769495,282.64166576438583 314.7435249777045,283.3366531638894 315.56083171546925,285.36263687023893 317.5507959466195,287.93593772954773 317.882845013286,288.1704455394065 318.3264509155415,288.77539350889856 319.2422072888585,289.2417064276524 319.63687964435667,289.47171175829135 321.46897493326105,289.7188209341839 322.12870399991516,289.9978874278022 322.19132728886325,290.71355632523773 323.07358748442493,295.3518442492932 323.27165183995385,296.28579135704786 320.0149495466612,298.39672218682244 317.2807876266306,300.12866046716226 325.8170700799674,300.3469521314837 327.78344135102816,300.14486356725683 329.4751439644024,299.7330344012007 330.4342997332569,299.5538997243857 332.4149432887789,298.99128986150026 334.19373596436344,299.21498371614143 334.20888206223026,299.54984893853543 335.89592433779035,299.895965814183 338.4162932621548,301.64004447479965 340.688499199925,302.1166818769416 340.8251053511631,302.05322029965464 341.58124515553936,303.19237531599356 344.1429745777277,306.2677491987124 345.4420437333174,308.2620158289792 346.5558644621633,307.6962778522284 347.64230570662767,306.9329568329267 348.2018375110347,306.73537507408764 349.93227918224875,306.7785820343415 350.43210040882695,307.3461226678919 352.93936213327106,307.96992058842443 355.46788664883934,308.4001870936481 358.32642133324407,308.6243214025162 358.44438613322563,308.07973764289636 363.5203677866375,309.5559615525417 364.87827370665036,309.7778443467105 367.92467825778294,310.5150516908034 369.86629148432985,312.42016759712715 371.644501617644,314.95174529164797 374.1823468088405,317.6124581520562 376.19473891553935,319.2699867070187 378.22926762665156,321.45585299062077 380.3584594489075,320.86944710987154 383.8601207466563,319.3064404929173 390.2322588444222,317.36268015706446 394.9348309333436,314.65065785171464 397.5612225421937,313.1924706690479 402.361661724397,316.8739245533943 407.1353039643727,320.58456939592725 409.1608032711083,321.46080345561495 414.5292211199412,322.2051721102325 414.58631025778595,321.73622915369924 415.5419707732508,321.6475709193619 419.5230643199757,321.16332531085936 421.13117212441284,321.1160708029056 422.6233540266985,321.1165208457969 423.60464639996644,321.06971637089737 424.5014701510081,320.9932090343209 424.58477368880995,321.00175985554233 424.68205823993776,320.3987011142308 424.9712904532207,318.0301043250365 425.54247310222127,316.29065676941536 425.6103392711375,316.3136094661895 426.08219847106375,315.3680463762721 426.49143438215833,315.62997811241075 427.73254058661405,316.47202801384265 429.8314402132528,317.87888769921847 434.22089585778303,318.8068880835781 434.62401507550385,318.90544851409504 435.8817237332696,319.0962685821578 436.75524579547346,319.2065301022376 437.05962410662323,319.4270529758651 438.3429646221921,320.4171529361047 439.92048895999324,320.4360548009281 441.4688861866016,320.7141820510151 442.7321289954707,320.6930299910018 443.615845546592,320.77313778200187 444.188193280017,320.9437042729114 445.6116351998644,320.3001413560705 446.07592135097366,321.2231810063822 447.3056679822039,320.3933005806757 450.0596363376826,318.79338665131945 449.2513590044109,317.5679031792679 451.84862350218464,315.5638201261754 453.10516707552597,314.41437818063423 453.90849279996473,313.81310152448714 455.42455893335864,312.44267063890584 455.68233386659995,310.8102939845994 455.41756842669565,310.1185442642309 455.6269923555665,308.4375428276835 455.51397916441783,307.8263482085895 455.1921245866688,307.03107253753114 454.4397713065846,305.6439464277937 454.2265608533053,304.5408103366499 453.7334388621384,303.2481852079509 453.1695379910525,301.9960598562611 452.7075820087921,300.6462589049479 453.01516430219635,298.57720807858277 453.1575958755566,297.40562244318426 453.4532360532321,296.80114841653267 455.2212516977452,294.11047609418165 455.89816575986333,293.23683315399103 457.40695011545904,295.1110427826061 458.77068145771045,294.15818653046153 460.29053411551286,292.59678959060693 462.203894044389,290.74866455059964 462.9623640177306,289.8966133381473 463.6602495999541,288.9117766371928 463.8076327822637,287.9971528442111 464.095408639987,287.17254780215444 464.27221020439174,286.23856181127485 464.3380374754779,285.05970826151315 464.18978047999553,283.73771030287025 463.98297799099237,282.7848045413848 463.8795767466072,281.67660188197624 463.5556832710281,280.7344901721808 463.1423695643898,279.7770700569963 461.85058218659833,278.1025875740452 461.35250858659856,277.5480249603861 460.9141455644276,276.9169381989632 460.6837501154514,276.50776613806374 460.4559761065757,276.10354480327806 460.0024669866543,274.0639712039847 459.9045998933725,273.4121679092059 459.90256099554244,271.93209907657 459.88042439101264,271.62239970912924 459.83993770659436,271.2478789585293 459.9523683554726,270.54745141178137 460.116062719957,269.85152310761623 460.6059807288693,267.95548987807706 461.0190031643724,266.6230350466212 461.75155000877567,264.680607475806 462.3474907021737,263.6749499053112 462.96498545771465,262.68999521865044 462.5618662398774,261.82793114939705 462.3043825777713,261.5434267532546 462.54322488885373,261.1067658055108 462.0067035021493,260.8645761620137 462.20826311106794,260.1159473725129 462.5353605687851,260.0713806951535 462.5420598044293,259.9664914085879 462.56943928892724,259.5406313854037 462.441571271047,258.95991183666047 462.3978806043742,258.76093625696376 461.9624302932061,258.58626976201776 461.9120403910056,258.47552753059426 461.6027104710229,257.7971175973071 462.0908808532404,257.8511383724399 462.10398805327713,257.59363922465127 461.78737635549624,257.196585749276 461.84359167993534,256.5510346835945 461.942623857758,256.1458761385293 461.7294134043623,256.0531397438608 461.59426360880025,255.73036276281346 461.04725646215957,255.76367589028087 461.10987975110766,255.5241814016481 460.8258904176764,255.514727666392 460.78482119110413,255.13972917455249 461.2301747199381,255.1302754227072 460.88560099550523,254.80029421125073 461.11424881767016,253.97376337251626 460.96424419549294,253.59110914927442 460.9971578310942,253.36286684125662 460.7472472176887,253.31964933592826 460.7210328177316,253.2345648475457 460.9074463288998,252.6749872029177 460.9729823288508,252.64662562683225 461.18007608887274,252.74431548430584 461.4055199288996,252.5241756058531 461.3615379909752,252.10730479983613 461.56455395545345,251.91957762243692 461.46726940432563,251.68638152815402 461.65805198217276,251.05071832571412 461.8913601421518,251.00074755662354 462.0471901865676,250.84048086882103 461.80339626665227,250.33942161872983 461.7786382222548,250.10577365173958 462.2292346310569,250.08191363338847 462.41797831107397,249.94955801253673 462.1613684621407,248.91637107846327 462.0218495998997,247.31233307207003 461.733491199906,247.03456273674965 461.7777644088492,246.7329316654941 461.9129142044112,246.21835710236337 461.9169919999549,245.9090715465136 461.83601863111835,245.55116413516225 461.7224228976993,245.15543941035867 461.7943668621592,245.1473358249641 460.61908792878967,244.02678714646026 460.28645631996915,243.68103211722337 459.59002709330525,243.72560213203542 459.0773899377091,242.2345276151318 458.05939740431495,243.33302552695386 456.91936227551196,244.32932234898908 456.22235050657764,244.49139460688457 455.6398082843516,244.55082107137423 454.4954040887533,244.37254162947647 453.6545043910155,244.05920165241696 452.89923839992844,243.64231472311076 452.02862904884387,242.6716764200246 451.4364748799708,242.40920715988614 450.30313898657914,241.5745258082752 449.4998132621404,241.158984768379 448.4864810665604,240.0523721704958 448.1267612443771,239.67194465955254 447.5401412266074,239.27665951568633 447.2951822221512,239.12718932086136 445.8053304888308,238.26863414607942 444.9288957155077,237.7297281025676 443.7457524621859,237.03054393135244 442.3441558755003,236.43850922613638 441.82045041781384,236.13956485770177 441.1484879644122,235.4944018999231 440.45759288885165,235.26028786506504 438.8800685510505,234.746136548114 438.25558328884654,234.49491331120953 436.3329026843421,233.93573797435965 435.3414158221567,233.40537550556473 434.37905607104767,233.1663067737245 432.7823078399524,232.30817844055127 431.1139069155324,231.44644492364023 430.3277661866741,230.74138770409627 430.13115818658844,230.37039882992394 427.28631324437447,227.58931293344358 425.42305194656365,225.53623024764238 424.4219531377312,224.66321403253824 424.13738126214594,224.5263406226877 422.8887020088732,223.8320669424138 416.0403356443858,221.90456796181388 410.0258784710895,219.6605253368616 407.823286328814,219.12877751432825 407.1929756443715,218.9527286280063 407.10938083555084,219.08330198435578 399.49934051546734,217.25121559598483 399.33972394664306,219.28771666868124 399.3149659021292,219.77353846712504 399.4046774043236,220.910420295957 399.55206058663316,221.9500429056352 399.33535487996414,223.81090551812667 399.03738453332335,225.2786930775037 398.61737159104086,226.719006330939 398.086093084421,228.1791204068577 397.6952072533313,229.0939941976685 396.51992831996176,228.53480506141204 395.4710610487964,227.53708563017426 394.6581233777106,226.84957505372586 393.0692394665675,225.47274646279402 392.2533890843624,224.68437537446152 391.77803463104647,224.17605236149393 391.1086936177453,226.52855595061556 390.50663623108994,228.37001958442852 390.0793415111257,229.34702456119703 389.78807040001266,229.3317166827619 388.0794740621932,233.05240011104615 387.4086766933324,234.731729488587 386.41748110216577,234.30627058353275 386.12562744889874,234.74343522451818 383.46981745772064,233.72638452181127 381.07149112888146,233.00872837088536 380.8571155910613,234.0284837409854 380.4545789154945,235.79379736806732 379.7764997688355,238.01156217220705 378.51966492435895,236.94140116567723 378.06062165333424,236.64245748415124 377.0802030933555,236.2134005529806 376.444066986558,235.71095715928823 374.147976817796,234.53408254450187 373.48271359992214,234.4264796912903 372.83871317328885,234.35894649289548 372.6889998221304,235.14323075371794 371.28536433773115,234.4138734958251 369.8231833599275,233.73268763942178 367.4132061866112,233.0060270258109 365.9385005510412,232.21183013846166 364.208641422214,230.10026090440806 362.972195555456,228.49608498776797 362.6570402132347,228.11068481206894 361.30146446218714,226.06210940203164 357.88543687108904,220.39713576593203 353.837933511124,217.3786381733371 354.098621155601,216.3939253729768 353.9978413510835,215.68251602060627 354.0584257422015,215.5051135813119 354.32756024890114,215.2300044380827 354.9867067732848,214.57037145004142 356.1884913777467,213.09395703137852 357.2740588088054,212.10652334836777 358.14641578658484,211.20598714926746 358.92847871989943,210.51167120976606 359.1046977422666,210.23340389190707 359.2427602488315,210.01772396359593 359.3208209066652,209.87588840432 359.4084935110295,209.7480111863697 360.08365994668566,208.67636114102788 361.59215303102974,206.65191883547232 363.20899896882474,204.9462576234946 363.77581255102996,204.372597723559 363.978537244373,204.1407018113532 364.6569076621672,203.56974150810856 364.9199254754931,202.4300678682048 364.17427143105306,202.0518263914273 363.43211264000274,201.67493512679357 363.38725688890554,201.5794739149278 363.25327217776794,201.5659652495524 362.8352981333155,201.52318780351197 361.8735209243605,201.28858713520458 361.0463109688135,201.2061841536779 360.85844110220205,201.18772227916634 359.9211306666257,200.18582553771557 359.4157752888277,199.8841298900079 358.9450811733259,199.76165034412406 358.34448014211375,199.58063265454257 357.94136092439294,199.34738078399096 357.608146773302,199.16726333927363 356.93181525322143,198.0077537400648 356.6545251554344,197.53809431719128 355.83721841766965,196.16243220184697 355.54361713770777,195.65134112746455 355.3429313421948,195.43474622396752 355.1122446220834,195.31946901534684 354.84660536888987,195.17807423113845 354.5637811199995,195.08215988293523 353.99259847111534,194.8835765213007 353.47879623109475,194.6827414642321 353.69550193764735,194.10545222472865 353.7071527822409,193.9509978251299 351.43407303106505,193.75736679125112 349.5428497066023,193.4394512802828 346.59023445332423,192.7747992296936 344.32268885325175,191.54635841876734 343.05973731551785,190.73805141088087 341.1982236444019,189.42764206277207 340.1741144177504,188.51710558566265 339.51292899553664,188.07309384230757 338.6245521066012,187.40977644606028 338.5537732266821,187.36069177940954 338.6892142932629,187.1022090415936 337.1617885866435,185.3576677358942 337.8914227199275,183.32805610180367 341.6354215822648,172.09932975738775 341.9473729421152,170.9666978312889 342.722736639902,167.8407834370155 343.47013831103686,165.0458421894 343.73053468437865,164.02846750663593 344.12462449772283,161.4510070643155 344.17676202661823,161.02900863910327 344.4552172088297,158.06193590012845 343.58955946657807,158.19209521717858 341.65173276432324,157.67641165561508 340.8041338310577,157.05804015800823 340.4875221332768,157.06794852786697 339.2630183821311,155.91136850230396 339.2810771910008,152.87351529113948 342.62370446219575,152.08533299295232 342.37117240880616,151.23724566900637 340.04187733330764,151.07870747201378 336.9412963554496,150.757577192795 335.6556256710319,150.60264179838123 332.18192639993504,149.6311403271975 329.9295268977294,149.01499807660002 329.19552369765006,148.82853363244794 323.9741977599915,147.6935292405542 323.5425339732319,148.0466423489852 323.35379029333126,148.0425887578167 323.2926233599428,146.7580469880486 323.34592597326264,144.30109212570824 323.3770919821691,141.81888661149424 323.3080607288284,136.5638686834136 323.24893269327004,133.16585383703932 322.1971527111018,117.83944837888703 321.96850488882046,113.18388234614395 321.8758806755068,112.85503842547769 321.72179825778585,112.29465120803798 323.69982037332375,111.8784141142969 326.4878674488282,111.4599238570081 328.0353908621473,111.14008684497094 330.0824442310259,110.41752376127988 330.61343146662693,110.1121004933375 332.5538796088658,109.84541788120987 334.2403393421555,109.72018505586311 335.49746545776725,109.8048748880392 335.7080544710625,109.74541181779932 335.84029155550525,109.28006768738851 335.8566027376801,108.90481850510696 335.7639785243664,108.4214533638442 335.2618271288229,107.47228869708488 332.6459212799091,104.08508420665748 329.71252991992515,100.32256336626597 328.97503146657255,99.2814616986434 328.19267726212274,97.93941982876277 327.4237215288449,96.40500403131591 326.5510732799303,94.50025917286985 325.76464127993677,92.48737453890499 325.2252071821131,91.00292783195619 324.7850965333637,88.90531312604435 324.2209043910261,85.37185009219684 323.9101181154838,84.0103500590194 323.22650481772143,81.98250124207698 322.28453404433094,80.0555543876253 321.3064456533175,78.59129770752043 318.17906773323193,74.26650205813348 316.05890531558543,71.196877015871 315.26985187549144,69.62758046627278 314.6768238932127,68.22047553723678 312.97288789320737,63.28269565629307 311.0592366933124,57.87078970938455 310.82913251547143,57.04847107594833 310.6485444266582,56.02653873455711 310.4475673598936,54.98612740263343 310.8241809065221,54.28185308596585 310.97884586662985,54.0015846209717 311.11224803549703,53.760066813090816 311.7673167644534,53.03010465356056 312.4707364976639,52.03338695585262 312.62132366211154,51.22591612371616 312.68482076446526,51.12317966565024 312.9848300088197,50.63788442872465 312.66967466659844,50.22873960400466 312.1241238755174,48.92109319323208 312.0839284622343,48.74625910399482 311.817706666654,47.87569140433334 311.1705022577662,46.54009322845377 311.51798869331833,46.30938178632641 313.845536142122,45.12247571616899 315.8724918044172,44.53262516320683 315.7897708088858,43.75576837913832 312.82958250667434,44.716474856832065 311.4154612622224,45.66636247874703 309.4190890666796,47.13354322232772 307.78680575988255,47.3056749618263 305.91626268438995,45.68979418952949 305.8326678755693,45.40951471461449 305.96490496001206,44.98909482883755 306.3418097777758,44.04371039761463 307.2185358222341,42.53099668491632 307.1390188088408,41.92221320653334 305.7403349332744,40.44553447217913 305.1880849066656,39.61819347855635 303.6781354666455,36.64586853503715 302.0883777422132,35.034865955938585 301.15485383104533,34.14937277144054 299.8732609421713,33.13679678190965 296.8690907021519,33.5491280243732 295.7287643022137,33.99795983743388 294.6865962666925,34.15342847362626 291.7060189866461,34.54277552955318 290.5068558221683,34.666248872468714 287.83735608891584,34.57477045356063 286.79897457768675,34.22057286486961 284.94357759994455,34.05699286877643 284.32462648884393,34.00246617628727 280.73849656886887,33.87313421478029 278.9326156799216,33.69062730984297 278.0917159821838,33.486489776405506 275.5722208711086,33.24044295976637 275.6036781510338,33.41438817384187 275.73067235550843,33.989848427299876 276.0350506666582,34.645519775978755 276.0976739554899,34.90283081284724 276.15534563548863,35.18898196076043 276.16320995555725,35.51073256804375 276.15651071991306,35.658990041469224 276.10437319101766,35.94018327142112 276.03708956437185,36.17406005732482 275.9351446755463,36.36422558338381 275.77552810660563,36.61883082741406 275.02084465767257,37.567401737964246 274.4403413332766,38.08607226336608 273.6836189866299,38.89449285378214 273.4130281243706,39.933628867031075 273.38885262212716,40.20940914825769 273.35069610667415,41.73565745638916 269.32125155546237,40.482034738059156 268.66880426660646,41.42337899690028 268.0789802665822,42.485033816774376 265.51666830223985,46.91364698112011 264.04196266666986,49.487050008028746 262.81192476442084,51.54854433611035 262.32812344888225,51.39534105436178 262.21714915544726,51.588647530414164 261.8865564443404,52.52543803252047 261.8967509333743,55.43311286874814 261.8160688355565,55.92515629751142 261.6788801421644,56.3009469617391 261.56499313772656,56.56904662150191 261.31566506659146,56.779921417008154 259.72124700434506,58.31101052375743 258.8212192710489,59.16486515570432 257.85769443551544,60.116041773580946 257.4720514843939,60.548147643799894 257.28767687105574,60.839672185713425 257.07213624892756,61.10956859437283 256.9098982398864,61.44840301334625 256.4890114843147,62.756425108294934 256.4444470043527,62.91547789884498 256.09637802664656,63.928366610896774 255.95802424883004,64.37848780286731 255.81734030216467,64.86870882799849 255.6885984709952,65.4431851937552 255.67345237336121,66.40965379297268 255.79811640887056,66.77731625072192 254.39418965321966,68.47549426509067 253.95087502221577,69.12745775317308 253.58125198213384,70.08354720467469 253.38901304884348,70.910322413838 253.13531591102947,72.20296905329451 252.94831985770725,73.2626722768182 252.81083989329636,74.14980933547486 252.71617678215262,74.68821732455399 252.58743495098315,75.1545361437602 252.3692728888709,75.86414983088616 250.19464277324732,81.1620753952302 249.80375694215763,82.18659352010582 249.63540223997552,82.60333764657844 249.20839879103005,83.73057021369459 248.67216867557727,84.6613661883166 248.36342129774857,85.1673102575005 247.43659662210848,86.36661378608551 247.02998215111438,86.90589275636012 246.93357141327579,87.06853218487231 246.59686200879514,87.50238691095728 245.82324593770318,88.72780786571093 245.54770346661098,89.50630702421768 245.52352796448395,89.59776247263653 245.10380629333667,91.2295374951791 244.86321635555942,92.23733945610002 244.10532892448828,95.20485452061985 240.88212280883454,97.47540209395811 240.0834574222099,98.00744564697379 240.02578574221116,97.86824047320988 238.57700323546305,98.3340593802277 238.45699953776784,97.93806832225528 237.69124778662808,94.98861066554673 236.51218232885003,90.15415317006409 236.02867228433024,88.21015845425427 235.7583726933226,86.58556931774365 235.51195733330678,84.30860128742643 235.31622314662673,83.37284795782762 234.04249457770493,78.59715475380654 233.60238392883912,76.94636258977698 233.3786877155071,76.27865326876054 232.77983431110624,75.14011857204605 232.26253681781236,74.3291286288295 231.58445767103694,73.6465430962271 230.02790485334117,72.58233618841041 229.25312369770836,72.01058190554613 228.62776462221518,71.44468336598948 227.9470640355721,70.72424194437917 227.37588138657156,70.00920486659743 224.9449326932663,66.6097055011196 224.4751123910537,66.07262933044694 224.12762595550157,65.80273904558271 219.6545755021507,60.93204077705741 218.7117309155874,60.065576798748225 217.54315121774562,59.17658028844744 215.55114808888175,57.74462595547084 215.01841322658584,57.307107516389806 214.39596686221194,56.64654763834551 213.8693486932898,55.899022150435485 212.87028878217097,54.384137468528934 212.4316344888648,53.7749363873736 208.78695907548536,49.12837054056581 208.34277063107584,48.64892872585915 207.74420849769376,48.13974594848696 206.95690268441103,47.58820503647439 205.97415395546705,46.96366438322002 199.92037518217694,43.49981960008154 193.87416945782024,40.06340786628425 191.1309781332966,38.475862943334505 190.53095964435488,38.036503456532955 190.07220764434896,37.61742127756588 189.63151445332915,37.03836554748705 189.21091896877624,36.26643906580284 184.57912576000672,27.258175562601537 184.05279886210337,26.34921711165225 182.44469105778262,23.958958317816723 181.93118008889724,23.10451557819033 180.82580622215755,20.8742060107179 180.37462727096863,20.149091373197734 178.62408789328765,17.828167576808482 178.07941091549583,16.99398098734673 177.67512661335059,16.468951059388928 177.5859976533102,16.233250518678688 177.33055288880132,16.28372560814023 177.15753784880508,16.29769638966536 176.98889187548775,16.17646602925379 176.23537351109553,16.60415201971773 175.67700679111294,16.777659796294756 175.03591907548252,17.045807907590643 173.74063644441776,17.483857560320757 171.73698247107677,18.131015729624778 169.89148871111684,18.424399477720726 167.9574485332705,19.12428262096364 166.15506289771292,19.4456061986275 163.83945756440517,19.828670155373402 161.1329663998913,20.136472825019155 158.36326940439176,20.51863424835028 157.72946346667595,20.45644293015357 157.28993535996415,20.35864929971285 156.61535146669485,20.011188628093805 155.9509620621102,19.893114966806024 154.00905756442808,19.663276740990113 152.85999303101562,19.242807361704763 152.0094813866308,19.219372817256954 148.3065517510986,19.538893600460142 145.74220088880975,19.6858099111123 144.31788515555672,19.571341383096296 141.07574641774409,20.36856386339059 138.6028546843445,20.731346449407283 137.11970218655188,20.757484798901714 136.11976846214384,20.661944609950297 135.88616903102957,20.63039831200149 135.65956010657828,20.533506082720123 133.28773944883142,18.88543028681306 131.967990044388,18.154450390604325 130.80698339547962,17.884500970249064 130.40968959988095,17.91559699724894 130.28211285325233,17.832674248784315 130.17871160886716,17.752906140405685 129.73830968886614,17.446001452044584 128.77915391989518,16.796137239784002 126.62724295107182,15.210676780203357 125.0727290310897,14.660404843452852 123.9889092266094,14.294457465352025 123.67783167993184,14.172324645041954 123.1922827376984,13.524253409239464 122.32808135112282,12.269567616982386 121.57339790218975,10.323979184729978 121.08668387553189,9.474891386111267 120.17529656889383,8.622194801515434 119.22517020441592,9.038177747279406 118.542721991078,9.45866674638819 117.00626687996555,10.949976517586038 114.810082702199,12.503019038704224 113.53781048883684,13.2745787211461 111.98999580438249,13.633316992258187 110.88928227545694,14.011884378851391 109.12447061331477,14.208829295937903 107.98472675553057,14.301668257103302 105.74572572438046,13.964563491404988 104.92608881776687,13.59996697679162 104.03654684440698,13.424653973954264 102.79252792883199,13.468369568814524 102.19979121768847,13.910933139850385 100.53313791996334,13.999716151622124 99.21193215996027,14.099315325031057 98.2035515733296,13.671173760434613 97.95422350219451,13.557603436231147 96.66709646221716,13.194358273525722 96.09649635548703,13.148389239562675 95.68609535996802,13.270522631704807 95.48890481772833,13.159205483738333 95.71580501331482,13.084843794582412 95.95115207112394,11.439415948523674 92.71250858658459,10.47766192117706 90.74963256891351,10.59979680494871 85.20907349325716,7.665836642787326 82.841330631054,5.927976239472628 82.22267079097219,5 81.84867868432775,5.403821130166762 80.88777528877836,5.570577406091616 80.4791219199542,5.7756423819228075 80.29795128887054,5.934736615337897 80.17532615107484,6.20920769777149 80.3710603377549,6.764007799443789 80.78029624884948,7.464829636388458 81.35322652442846,9.460469484271016 81.30545806221198,9.701134847826324 81.36254719994031,10.063935129554011 81.0380711822072,10.470451003464404 81.08816981327254,11.089237019594293 81.37769329769071,11.274016189738177 81.77993870223872,12.461556642199866 83.0906587021891,14.331412770261522 83.5007684265729,16.568999778013676 83.86718748440035,18.971056625247 83.74893141328357,19.833627449173946 83.50193351111375,20.406870127655566 82.04150016000494,22.302796491072513 80.80272412439808,23.67729902820429 77.93807274661958,25.588519183103926 74.45126627548598,27.698007348692045 73.43181738664862,28.424899540026672 72.79189475544263,28.131078560720198 71.613411839935,31.249526485218666 73.09889450657647,32.67083901062142 74.14863559103105,33.07145460112952 74.7241873065941,33.503163268615026 76.25656462216284,34.3607198165264 77.37446314666886,35.59905618132325 77.86234225775115,35.661243193841074 78.44837973336689,36.22678369138157 78.27944248891436,36.86397258756915 77.67505493329372,37.16679438261781 77.50407879112754,37.868420055368915 77.97710307547823,38.97290138085373 77.90079004433937,39.4703893114347 77.44524202658795,39.67632374865934 77.35756942210719,40.17471132153878 75.91752504883334,41.068741879600566 75.16779320884962,41.054322060896084 76.33491655101534,42.67970001581125 76.1284053332638,43.40293750166893 76.00811036443338,44.176190635655075 75.20128938660491,44.57903821323998 74.76030492444988,44.30731895536883 74.01435960887466,45.201332621392794 73.30191047105473,45.84795817203121 71.9973071643617,47.17860390024725 70.93475015100557,48.025742916506715 69.26168888888787,49.23561396059813 68.9943020088831,49.05807650566567 68.18602467549499,49.89664682128932 67.87203441769816,50.440071112359874 67.31599786656443,50.783878652204294 66.58927644439973,52.07979841425549 66.39383352885488,52.56959640834248 66.30266567110084,53.204935318557546 66.04314311104827,54.18767931708135 65.70701624883804,55.26008634507889 65.41370624001138,55.969764575595036 65.44749368878547,56.57850895635784 64.11376327113248,60.08044594427338 63.01421482663136,62.456342191260774 63.474131911061704,63.724257296766154 63.23878485325258,65.13229228899581 61.82641123549547,69.92224682687083 61.48212878208142,71.27257062168792 61.624851626576856,72.33408057224005 62.72818659548648,75.30276674864581 63.74443150218576,91.26152412849478 64.22648519114591,97.61640952911694 64.35988735989667,99.10666785633657 64.64795448887162,100.78297109145205 64.82126079988666,101.49024917295901 65.56691484444309,103.03408962802496 68.27544490655418,107.04297840897925 69.31003989325836,108.14395714306738 71.13106687995605,109.38773209991632 70.15589119994547,111.0761193864746 69.53257102216594,112.81044174602721 69.07119758217596,115.30603992432589 68.76536291558295,116.81194396992214 68.52389916440006,118.2119794737082 65.5972070399439,126.29263993760105 61.25115079106763,127.77909941057442 56.08691399102099,127.90747498220298 50.75898282660637,128.90204527939204 47.85238840884995,130.7636993584456 41.82453276438173,134.35498486552387 44.80860529770143,139.41142213530838 45.05764209770132,141.79546519508585 46.15806435549166,143.33721962175332 47.121880462160334,147.297177113418 47.74520063993987,150.20854691398563 49.90847118222155,156.0892696439987 52.0676639288431,160.1224073487101 55.20290616876446,161.92029357829597 59.155746417702176,164.79183673555963 60.24830435554031,165.42009436857188 63.928223573369905,169.4674714463763 64.97476067545358,171.33778742625145 65.87915747554507,172.06915633881 65.8136214754777,172.21867234259844 65.82556359109003,172.21912269189488 65.37467591103632,172.30919252417516 64.98466389323585,172.56724238855531 64.94825500436127,173.99979639810044 65.12097877333872,173.9867363756057 65.36943303106818,176.92792382912012 65.13117326213978,177.58226623595692 63.691420160001144,178.7022545139771 59.78081422217656,179.38226068369113 58.184939804370515,180.20231829339173 56.21128675551154,181.12955161405262 55.690785279963166,181.23943232995225 53.40984120883513,181.15161782776704 52.28145692439284,182.6624726827722 51.462985102203675,182.76334607810713 49.51816789328586,183.29518227267545 48.84620544000063,183.13981958909426 47.73617123556323,182.98220515972935 45.48755825776607,182.76334607810713 44.35043583996594,182.41794457181823 42.97796636435669,182.60933400056092 41.44879303104244,182.7223662668839 41.67278051550966,183.57978840987198 41.966673066606745,184.5484372198116 42.309790435479954,185.56436553481035 42.60659569769632,186.4776162179187 43.151855217758566,188.36895166599425 43.79527310212143,190.2053326809546 44.410146417678334,192.16733430942986 44.41742819559295,192.23443022102583 43.30185983993579,192.0326921157539 42.77145514660515,192.01332885038573 42.0994926932035,192.21191481675487 41.37539271102287,192.58251807710622 40.46254904882517,193.1237868386088 39.03939839999657,193.94424325716682 38.290831644437276,194.4449813379324 37.75926186668221,194.8529559415765 37.79800092440564,194.95832674205303 37.290024106623605,195.62252185947727 36.78000839112792,196.40919645188842 36.3620343466755,197.14408395683859 35.08947086217813,199.2865911629633 32.78202111995779,200.41592447599396 30.432045795489103,201.55200629436877 29.587068302207626,201.94916073494824 27.56011264002882,203.17123915208504 25.520632319967262,204.43923961021937 22.329757297760807,206.38625442044577 20.698930346639827,207.58984672487713 19.11587185773533,208.71328362484928 17.043477902188897,210.20818871294614 13.77803747553844,212.7648129654117 10.387641742127016,216.56952605978586 9.343434808892198,217.77531363698654 8.473699271096848,218.7086913185194 8.065337173291482,219.00991076265927 7.46590122662019,219.4146878081374 6.06983879103791,220.33365049038548 5.558075448847376,220.8644948870642 5,221.28637793794041" stroke="red" stroke-width="3.2898581313102335px" fill="none" stroke-linejoin="round" vector-effect="non-scaling-stroke"></polygon></svg>