<svg viewBox="0 0 80.35819639109765 82.56608451199942" width="80.35819639109765" height="82.56608451199942" xmlns="http://www.w3.org/2000/svg">
  <title>Mníšek pod Brdy, okres Praha-západ, Střední Čechy, 25210, Česko</title>
  <desc>Geojson of Mníšek pod Brdy, okres Praha-západ, Střední Čechy, 25210, Česko</desc>
  <metadata>
    <collboard>
      <support-module name="@collboard/map-svg-geojson-import" version="0.11.0"></support-module>
    </collboard>
  </metadata>
  <polygon points="8.052549999999997,38.824147317507254 11.74215398220224,42.34370537420148 11.826549786644705,42.403016111165584 11.169078071113859,48.768660467765244 11.03698662220961,49.02383559357952 14.940602053313,47.45628012721829 15.17682292441134,47.38149902658881 22.81824770663627,53.92965323312785 22.8414765777776,53.94286825425627 14.477990711085681,59.56878814681079 13.821465626656959,60.41377805935156 14.996890195535912,61.83358463359002 15.36265389330913,62.02782828626334 17.488787368878207,59.58934272119188 18.141453111085525,60.02652087397985 19.28374559109909,65.06381191642834 19.268308222213477,65.48095850182983 17.349122871069653,67.95181475044922 17.317738408870014,67.97530208457431 28.704108684417974,74.51353451199941 29.142180435541036,74.49309846285144 34.554070497753514,69.90676197046525 34.66271462219413,69.8099929961096 37.41194982219133,71.64947747463123 37.66237015999616,71.71519236536517 47.08266043553124,66.18538017670619 47.72265588443372,66.0290937542519 46.67604596442072,63.10067321794452 46.54031362664648,62.68034637917992 49.62836994665088,60.859645571653914 50.03265424888343,60.340144067092865 55.28696663998528,62.701351504910804 55.31514711998864,62.718629908740354 58.68697431998555,59.35714334282204 60.43889723552968,58.838982802546184 59.39330676443171,57.87165380935005 58.87171302221361,57.13527512040275 62.42733229333646,54.46807804212551 62.61389143998497,54.39477487197257 64.1869010755396,48.62757375275362 64.14124432887877,48.3676524364779 56.58290463110427,45.89206859993976 56.57904528885376,45.88935742670549 66.90963060441538,38.50011919785868 66.98252119997744,38.38261898593157 60.68982729776292,36.5878847826167 60.52824464886328,36.468346721892544 62.53495696886205,33.57641752067832 62.83016023998027,33.65878793152626 61.8999131288798,32.22649678745768 62.0638259466574,31.574631418050217 72.19489055110137,30.76727479708609 72.30564639109764,30.73394071197947 69.59835423107836,14.135895572056711 69.47718544887141,14.045244380751342 65.33720351110208,13.616627231654661 65.09806992888446,13.659014362455878 54.29708176886891,19.61402235789103 53.541524506646624,20.57502266913764 43.031370551099485,13.85331654841832 42.80126637331671,13.682864173555231 45.550137484424,8.469341351948628 45.7921837777609,8.22177649031039 29.541221857747246,9.13335224053992 29.447286924441528,8.998606387765562 8.263867191104168,25.80908610748122 8.11131394663937,25.798463435937833 10.36160173331848,32.891800473945864 10.432307795541078,33.69212022980321 8.052549999999997,38.824147317507254" stroke="#009edd" stroke-width="5.031865344972886px" fill="none" stroke-linejoin="round" vector-effect="non-scaling-stroke"></polygon>
</svg>