<svg width="1432.3843145954888" height="1738.558653095446" xmlns="http://www.w3.org/2000/svg"><polygon points="5,586.142983349564 23.37571185780689,597.1112638129271 25.46820351993665,598.7167984900298 39.985738240065984,619.4527473704657 41.98473187559284,621.4432759728516 99.52009699551854,655.2430094401352 99.94535281776916,655.0511435057269 96.43844864005223,673.5957285303739 96.46087651560083,674.5381137043005 99.87486520898528,673.9821616305853 102.03813575115055,673.5597282418748 101.31636593781877,686.5764052523882 102.56708408892155,688.8287830189802 104.01703167997766,688.9714070024784 108.7717412977945,687.6062227905495 107.03751310217194,681.1852762497729 106.41040640010033,680.0351270918036 111.9081486222567,676.469808239257 113.25265607109759,675.2786214266671 107.70947555557359,665.8418576231925 107.6244243910769,664.5093396551674 115.93759317335207,662.3455755367759 117.01442247116938,661.6970801085699 133.54959217773285,641.7171848301077 135.78684558230452,640.021270051715 138.81256988446694,642.5881533792708 138.58799985784572,643.1273226338672 121.0759068444604,667.3985782370437 120.91512519109529,667.6341816426138 154.88403598219156,665.0375172158238 157.77082396438345,664.1187882076483 201.67062328895554,708.19197920023 202.66997447120957,709.2349072952056 224.54443491564598,702.764024799224 225.97399352886714,701.2326181632234 237.21647587558255,714.3920652171364 238.41476522677112,715.2363166088471 256.5565863822121,718.4260354766157 260.1721346845152,720.5322903560009 262.1399623111356,725.03996248357 261.9430630400311,726.7001326707541 259.6513419377152,728.8409316276666 254.14777429332025,730.1069953876431 251.09670940437354,740.3081291770213 248.6398375822464,745.8071213351795 254.61759459553286,767.0646933378885 254.83313521777745,769.3977702512639 283.4848918755306,797.6491500205593 284.1443296710495,797.9825314268237 287.880172942183,818.1338490464259 288.19183303113095,818.9981897999533 306.16559075564146,846.1457548693288 306.30627470230684,846.9885833231383 341.0077323378064,870.4266462242231 341.69221944885794,871.0021279605571 354.04153201787267,889.2132427754696 355.30448355549015,891.3597236503265 358.8195433244109,904.64922292548 359.01469496893696,907.4123606341309 350.2293757156003,929.1356802032096 349.6925630577607,930.4060384160839 332.72689464886207,952.3236680759001 331.73132999113295,952.816102078883 330.4144932978088,966.597884788469 329.47019235556945,967.9613158043358 347.04083086224273,980.1103096734732 347.7445418667048,980.3824335304671 350.2398614755366,991.3963377532782 350.6828848355217,992.8337830621749 366.74765169783495,994.5169334276579 366.92241436440963,995.1944671600359 353.46394140447956,1009.366222945624 353.1869425778277,1009.7051944165723 358.3013720178278,1023.3168506293441 358.3007894755574,1023.7413338656188 316.6790215111105,1058.986472733959 316.45124750223476,1058.993751001195 310.7909760000184,1069.4855745615205 309.9037641956238,1070.066897294484 309.8889093688922,1082.1069331477047 309.87172437331174,1082.7268836875446 311.74605397332925,1074.1770502713625 312.2053885156056,1073.5893704793416 327.0922550044488,1084.4343538724934 327.43595491559245,1084.8828241042793 353.8644391822163,1076.5827909905347 356.41713920002803,1076.7060566250002 365.497224817751,1087.4508214195375 369.595118080033,1088.6074564181035 373.0979444622062,1102.4638561602915 373.2100838399492,1103.5503723027068 368.93014613341074,1119.0493497193092 368.87072682671715,1120.4932269190322 378.72093326225877,1139.1076967322151 378.91346346668433,1139.9794009109028 376.3785309866071,1148.3179363830714 376.3004703288898,1149.17277961137 380.32175928889774,1173.7358090060297 380.3275847111363,1174.0904369364725 362.32149589341134,1171.9017368589994 359.3586861510994,1173.2284172684303 354.4793124978896,1184.375304490386 354.3596000710968,1184.5212404495105 341.8218350933166,1181.5720420955913 341.45774620445445,1181.6534217761946 305.650040888926,1208.6016048307647 305.254785991041,1209.3257473986596 302.9793760711327,1231.7197905334178 302.9747157333186,1232.3793129961123 310.4437808356015,1257.1142786277924 310.6380586667219,1257.2192628371995 314.08554353774525,1292.8777842081035 314.13855487992987,1293.8315728684538 305.46624881774187,1308.5709154471988 305.3660515554948,1308.8190011398983 311.2756511288462,1316.314145316719 311.3682753422763,1317.0601924506482 304.8365206755698,1338.9038812818471 304.3282525866525,1340.919174612849 311.3126425599912,1349.5907196755288 311.0947717688978,1350.3593667726964 291.52251818659715,1358.025246341247 290.9606562133413,1359.1272936858004 296.49509859562386,1360.0980537649011 297.23550976009574,1361.4626525577041 298.52147171564866,1376.908278224757 296.1717876623152,1377.5083111292333 300.405704533332,1380.0982903339318 301.1266005333746,1379.9838268044405 319.0304531911388,1362.955797285249 320.9554639644921,1362.4406703263521 360.35483335109893,1370.4563436665921 362.06983765331097,1371.1013640400488 371.66576440888457,1389.8079395697569 376.35901582217775,1391.126023854129 396.2350651733577,1389.0939360636403 396.6550781156402,1389.0612335568294 399.99100615107454,1379.472373948549 401.0914284088649,1378.48080606031 406.29440426663496,1388.808697366505 407.25501639104914,1391.1569092619466 400.32247267558705,1394.5102209040779 399.8337197510991,1396.108510128921 410.9331879821839,1397.6500146685285 411.51660401769914,1398.4848024901003 414.44038343115244,1418.5278319001663 414.48582172452006,1419.0918730349513 435.0087842133362,1429.2834174786112 435.37957233784255,1429.5231914043543 429.2611313777743,1446.1713929911493 428.6054801066639,1446.160949098412 432.33287651557475,1450.1495714690536 432.9835761777358,1450.7662030544598 430.9965246578213,1457.3578764103586 431.2213859555777,1458.9134767437354 424.2107815822819,1464.9205504988786 424.0488348444924,1465.8508829155471 431.2624551822664,1468.8602472028579 431.6303305955371,1469.5126944096992 429.12510776892304,1475.8699794572312 428.9404418844497,1476.4424982952187 435.60355982219335,1483.3929656667751 436.5889299911214,1484.5061820862466 436.70252572442405,1493.3549604230793 437.33924437337555,1494.0037023168989 457.76783502218314,1496.2245731462026 458.3031913244631,1496.2381924804067 460.7717139911838,1512.4423263190547 460.6450110578444,1512.9702625302016 465.33098069333937,1512.5844107391895 466.82869674661197,1515.71796143963 481.81022634671535,1510.0028176816413 483.2397849599365,1508.9623639207566 479.59015793784056,1519.2432087777415 480.30115071998443,1519.9295495439437 525.6427420444088,1513.5849003229523 525.6605095822597,1513.5776372572873 530.2509422933217,1521.5990916552255 531.4521443556296,1522.7552352511557 542.7476380444132,1524.1510423615691 542.8685155556304,1524.259075188893 536.607060480048,1525.2654120168881 536.4774448355893,1525.304902812466 543.5043603911763,1533.3980950589757 543.8984502044041,1533.6795130418031 550.0463095466839,1534.5432824163 550.990319217788,1534.6413243355928 550.6247739733662,1526.4832685392466 550.621861262247,1526.3824994546594 554.8348066133913,1524.444274196867 556.2733946311055,1524.5019218951347 574.7612458666554,1537.1586262666387 575.0015445334138,1537.33337477874 568.6934860800393,1539.5415484325495 569.1033045334043,1541.451498444716 585.1293323377613,1546.9107403076487 585.319532373338,1548.8560273494804 572.0894159644376,1550.289791711024 571.931255751173,1550.4963002029108 577.9369747911114,1555.2037329375162 580.3096692622639,1556.7155179714318 576.2461459911428,1570.74407355336 576.2024553244701,1571.5083090906264 580.2432594489073,1586.7398167556385 580.4337507555028,1586.8750458415598 568.6585335467244,1587.9918170606252 568.3285233777715,1587.9981700703502 569.636330666719,1597.294693413889 566.2066133333137,1599.0820743385702 573.3774168178206,1606.7160539858742 573.5594612621935,1606.806803441199 568.9897087999852,1614.5534912110306 567.7209318400128,1617.4423775205505 573.8338386488613,1635.0362148647546 574.0412236800184,1636.1586369149736 587.5031918933382,1626.3306689804303 588.715753528988,1625.2599190492183 594.2172822755529,1635.9227200687747 594.2752452266868,1635.9830603633309 604.0561291377526,1638.5862971465103 604.2003083378077,1638.6552566379542 620.0780791466823,1639.2572902180837 620.9865537422011,1640.4522788422182 627.4763653689297,1631.6838859327836 627.7422958933748,1631.4611214149045 637.6259985066717,1632.3571687518852 637.9228037688881,1632.288660959166 658.590819271165,1648.39465801802 658.8063598934095,1648.4808534949552 661.3686718577519,1664.7462363924133 661.2049774933839,1666.3869969652733 656.6302734222263,1670.1837883614935 654.47137194674,1670.7567034637323 676.0067928178469,1675.5726689069415 683.4583816534141,1678.0207551700878 710.8873821867164,1663.5958367550047 711.5316738844849,1663.2928124951432 715.2812068978092,1653.7636637592223 715.6190813867142,1651.4527619312285 725.8587172977859,1652.831866091583 725.9679439644096,1652.8636216765735 723.1734889243962,1645.4472058293177 721.77888284449,1642.2207047910779 726.8927297422197,1637.9266440646024 726.949236337794,1637.6834702095948 748.9801093689166,1641.2861356589128 749.7045006222324,1641.1913174985675 750.2605371733662,1620.1619882390369 750.3825797688914,1619.6397566514788 766.9535758222919,1602.4530556877726 767.0453262223164,1602.0836977800354 766.3867622399703,1597.5301983661484 766.4054035911104,1594.1718464264413 762.1176015645033,1594.707752298331 760.9691195733612,1594.7104749327991 761.0422286222456,1581.9531975346035 760.9845569422469,1581.5629300440196 773.1226979555795,1562.088147256116 774.8589650489157,1559.4631183992606 771.0182641778374,1551.2556143572438 770.1718303288799,1550.3156620162772 778.8365633422509,1544.768907419464 778.9096723911352,1544.2369634553324 787.0745841778116,1564.370044954645 787.846743893344,1565.885396971542 781.1055652977666,1569.5468868357711 780.6261330489069,1570.1954016106902 790.5252730310895,1582.0221749717603 791.0029576533707,1582.6493240884738 794.0269343288383,1605.7949448738946 793.9916905245045,1607.3109159761807 812.7355690667173,1637.619047239772 812.6936260267394,1637.8445275506238 847.3304214755772,1640.7426319591468 860.7696705422131,1647.822137720883 887.8345821866533,1623.3811031559017 890.1254294755636,1619.4541849168018 891.3901286399923,1612.7989062377019 891.8782990222098,1612.2684897389263 882.640344462241,1600.1897077022586 882.2252831289079,1597.723956584814 890.1321287112078,1566.782168157748 890.0499902578304,1566.4018577517709 905.6929965511663,1571.002752153261 912.7490392178297,1572.2847950617434 996.793570702197,1543.4980493746698 997.7069969066652,1543.3078739074408 1007.1546666667564,1552.6457923416747 1009.6380441599758,1555.7515349722235 1002.6265659733908,1571.2691454075393 1001.7731416177703,1573.9648271140177 1012.4566747022327,1586.1653190980433 1013.4979689244647,1589.7166523681371 1048.0249551644083,1590.1128044034122 1055.7721841777675,1584.787607635837 1088.2917299199617,1595.024938979419 1088.8524268089095,1595.2722444401588 1110.0490993778221,1639.3153611911694 1110.2206580622587,1640.094327357132 1134.3807229156373,1656.1493923828239 1135.1607469511218,1657.180523510906 1140.3686744178412,1679.3321052307729 1140.154298880021,1679.9018210938666 1159.9234517334262,1679.4300819502678 1164.5934014578816,1678.1214540711371 1191.5886993067106,1646.94792989298 1192.5198930489132,1646.0106590638752 1198.8212522666436,1646.0632842512568 1199.6301121421857,1646.2864874907536 1203.1754641067237,1651.1202332063112 1203.282943146769,1654.4686336382292 1196.2467069155537,1660.7683499829145 1195.823489991133,1661.288668371155 1196.7034200177295,1669.739698737394 1197.011293582269,1670.4564108586637 1213.2327643022873,1685.0840804474428 1213.36500138673,1686.0152864931151 1224.10853632004,1680.7586600583745 1225.2450761955697,1680.6198605396785 1229.164128995617,1687.9856382247526 1229.8500724622281,1688.4891092183534 1239.8057190401014,1688.157090639812 1242.4513345422456,1688.699115243624 1238.0100326400716,1703.9011083519435 1240.816429795581,1706.866364317364 1271.9678751289612,1709.9055056801299 1272.7123640888603,1710.1517735967063 1274.661550364457,1723.9219247309375 1275.7762449067086,1727.1064004594227 1290.257370737847,1732.726963567431 1292.8662860800978,1733.558653095446 1301.8933603555197,1720.9637036832282 1301.6644212622195,1719.4616757107433 1287.3094158222666,1710.702814058459 1287.5890360889025,1709.4261214783182 1302.4805629155599,1699.260388098075 1302.5446425600676,1698.2539483211003 1291.0397249422967,1700.10354429367 1289.8262894933578,1699.864975416218 1285.8853913600324,1694.2249677318032 1286.1667592533631,1691.234139596927 1300.63710805343,1674.6749850187334 1301.4549973333487,1673.0719364680117 1287.5724336355925,1669.437136646302 1287.4629156978335,1668.536252127611 1300.1535980089102,1651.7249542339705 1300.6426422045333,1651.1143356936518 1321.9074722132646,1647.8212303974433 1322.2200061156182,1646.9937499026419 1307.3010998044629,1632.3898347116774 1305.3839533511782,1630.825038990588 1305.3061839644797,1617.5657906882698 1305.1503539199475,1616.2223075494403 1299.6424172088737,1608.407617611112 1296.4168809244875,1605.3157850949792 1298.0031433956465,1597.475292610121 1298.3273281422444,1596.3694605077617 1290.024645120022,1572.4735837512417 1289.3643335110974,1571.1824655258097 1272.4438121244311,1559.1141106218565 1271.108625351102,1558.6915790005005 1248.6114272711566,1560.949004805123 1248.5496777954977,1560.9485509623191 1234.071464675595,1541.0139543424011 1234.129427626729,1540.2582355376799 1249.957391075557,1526.4855381126981 1251.5687028622488,1523.5178236601641 1262.9198293333175,1526.1151434140047 1266.3102250666125,1524.8196648396552 1280.519012408913,1498.8158631105907 1280.7389220978366,1498.2574763260782 1290.0849382400047,1497.443500177993 1293.3154261333402,1496.5473511366872 1300.9277966222726,1487.7854157851543 1302.280750933336,1487.2497005189653 1322.2954453333514,1487.764531994355 1324.796881635557,1488.5390468924888 1332.4392530488549,1478.9659218171146 1334.095711857779,1478.2817218939308 1329.927330986713,1474.3526383416029 1328.2630078577204,1473.0346042414894 1329.7109165511793,1467.7655662480975 1329.0829360355856,1467.320155290945 1353.8715639467118,1444.3282652092748 1354.6399371377192,1443.2398180394666 1351.4286731377942,1416.3002638486214 1351.3814872178482,1416.1776447612792 1363.3632156444946,1403.3522147929762 1363.3801093689399,1402.956630904344 1379.6036189866718,1413.9736684164382 1383.7792816355359,1413.984568004089 1406.0501620622817,1398.6092482783133 1406.3358990222914,1398.055146046332 1405.4682023822097,1379.5604929100373 1405.6441301333252,1378.2491518939496 1412.546964195557,1369.144947755267 1414.8823759644292,1367.2475659988122 1385.9987675022567,1362.6060198534979 1385.6055515022017,1359.9068093751557 1366.3560263110558,1364.7900754372822 1365.5008543288568,1364.7932552026468 1366.9577924266923,1380.618826100952 1366.996240213397,1383.6062049235916 1356.0994966755388,1391.6519835821819 1355.4461755732773,1391.648804209428 1350.592142506619,1387.0518367614713 1349.7171640888555,1386.6521353661083 1349.782991360058,1367.0313442834886 1349.4818170311628,1365.493256718677 1305.2094819556223,1367.9443798959255 1304.5002368000569,1367.9034977862611 1307.3800342755858,1360.096690978855 1307.8929627022007,1359.1250223655952 1300.1917545244796,1336.545110270381 1300.1722393600503,1336.1503134701634 1317.6249130666256,1330.487694536976 1318.8622327466728,1329.7435107716592 1327.4590995911276,1314.2690906876232 1327.917269048863,1313.9846625481732 1358.707538204384,1315.4799507277785 1360.2949657600839,1315.2972998514888 1364.4886872178176,1298.729045884218 1364.8583102577832,1296.3775637471117 1374.0761671111686,1302.5758795120637 1374.3723898311146,1302.401851064642 1375.2156196978176,1295.75731349556 1373.3077939200448,1289.168465330673 1376.675470506656,1288.862647046335 1378.867868160014,1288.0778780991677 1393.1605415822705,1292.8187118809437 1394.1898936888902,1293.4080712259747 1406.5514396444196,1317.2996357810916 1407.1494192355312,1317.8739352183184 1422.0019157334464,1323.4251153552323 1424.285481244442,1324.3292473328765 1426.8457543110708,1318.0470425834064 1427.3843145954888,1315.241868460609 1415.8659985066624,1294.5231692706584 1414.8590742755914,1293.1531519212294 1390.6742513778154,1278.9485395916272 1388.1655332978116,1278.8790115508018 1389.3207145244814,1271.079914626549 1388.743997724494,1270.3986959869508 1364.922681173426,1265.7691702770535 1360.8038163911551,1266.460401491553 1354.2714791821782,1245.2561904333415 1354.5624590222724,1244.9116776466835 1339.1294591999613,1241.5328781900462 1335.2112802133197,1235.3100957130082 1345.6344169244403,1223.7226373633603 1346.9186312532984,1223.0649068300845 1339.4384978489252,1220.8771543935873 1335.3079822222935,1220.6526051103137 1338.5006048710784,1208.9589033484226 1338.9576092445059,1207.9129170995438 1356.5078587733442,1197.2222944537643 1356.803207680001,1195.8089308771887 1339.6144256000407,1173.8149183636415 1339.5072378311306,1173.4575620708056 1356.0214360178215,1159.1246352323797 1357.1958411377855,1156.8334799039876 1369.6698177421931,1159.7070822600508 1369.9727396977833,1159.7070822600508 1347.0162070755614,1144.1732631651685 1345.5117917866446,1143.412981012254 1353.5628165688831,1119.5723299705423 1353.5001932800515,1118.2589650030714 1341.3358378666453,1119.6973902790924 1339.923172977753,1120.3326955342782 1336.3355867022183,1108.428940191865 1335.7041109333513,1106.7089243754745 1326.2983842133544,1109.8810740933986 1325.7184634311125,1109.807853668579 1315.8700046222657,1103.7354751809034 1313.8450878578005,1103.7227408355684 1310.157595591154,1105.9298646091484 1309.9572010666598,1107.009996344801 1314.0384918755153,1116.8864719397388 1314.134902613354,1117.4813109519891 1308.4213284978177,1126.4032460016897 1308.0720944355708,1127.0180679349578 1281.7033207466593,1141.3203724999912 1280.667560675647,1141.7246176529443 1269.9764545422513,1138.0654668025672 1269.740233671153,1138.0527344688307 1273.824728462263,1118.4381433783565 1273.8745358221931,1117.8778693889035 1270.7404586666962,1109.1065735677257 1270.5103544888552,1106.2509485406335 1282.676748799975,1106.9235860035405 1283.9635845689336,1106.709379167296 1316.4959462400293,1088.4700978060719 1318.4197919288417,1087.226134236902 1326.2878984534182,1073.8481863111956 1327.0154936889885,1072.6682747278828 1335.7413936355151,1069.401878515724 1336.6988017777912,1068.5580932094017 1341.4267144533806,1053.5022290889174 1341.507396551082,1052.3431326678838 1336.9009439288639,1046.4647627569502 1336.4529689600458,1045.884286708082 1325.3200045512058,1046.2746069807326 1324.8062023110688,1046.015303381253 1284.2933034667512,1012.3973826054716 1282.4280032711104,1011.4987769398722 1268.7178720711963,1024.7568145125406 1267.2420013510855,1024.854631618131 1220.7292088889517,1011.3609145772643 1218.311658666702,1010.8444986788672 1205.6833083733218,1021.3577564780717 1204.8622151111485,1023.7372391760582 1206.5868313600076,1045.9038482302567 1206.208178915549,1046.8064058505697 1189.4309629156487,1054.9570046212175 1187.8461568000494,1054.5298529657302 1192.07162680896,1033.1384432485793 1192.2344473600388,1031.0265744345961 1189.3963016533526,1024.0079434914514 1188.0028606578708,1021.5101715429919 1176.2561880177818,1017.984578982112 1175.6366543644108,1017.496387503692 1175.8935554844793,1011.660753729404 1175.6692767289933,1011.051065185573 1165.3894454045221,1006.7117622917285 1164.7597172622336,1006.303625851695 1164.5380599467317,1000.2761303003645 1164.2234871466644,1000.1014046014752 1145.6797118578106,1000.9682064929511 1145.1865898666438,1000.8899442070397 1137.3429501155624,980.6336244804552 1136.8346820267616,980.164916494803 1117.7240931555862,988.5587318163016 1117.3830146844266,988.8126435432932 1112.199262720067,983.910456620506 1111.598079146701,983.5714448950021 1113.3314335289178,981.0836742060492 1116.291330559994,976.7924644609448 1115.771702897735,964.3720516116009 1116.083362986683,963.8368652584613 1131.3471342932899,958.1117450628662 1133.0070883556036,956.6986456729355 1132.2183261866448,943.928452298278 1131.7951092622243,943.7896367763169 1139.8231236266438,916.4011916002491 1139.7535098311491,912.9303370220587 1136.8932275200495,890.2903554488439 1136.85303210665,889.9971773806028 1119.5264787911437,892.0803719627438 1117.2542728533735,892.9457841162221 1112.5543222044362,874.0989583946648 1112.4162596977549,873.1469677365385 1117.472143644467,858.1695246793097 1117.593894968857,857.95097457472 1104.5659207111457,848.1424015195807 1100.0925789866596,847.8295871684095 1103.76754659554,842.762114026933 1104.3486324622063,840.1998737187823 1098.4203915378312,841.2867918626871 1098.208637439995,840.490386935242 1100.4045303466264,822.5388542786823 1100.605507413391,821.7587745756609 1109.324999395525,814.4628671755781 1109.5909299199702,814.2638554678415 1105.282447644393,813.5119812136982 1102.3286673066905,813.078434124589 1101.437668977771,805.6856854321668 1099.829269902315,803.4641227718676 1110.696886328864,781.8990277627599 1111.4943866311805,780.5804309436353 1113.443281635642,781.8553024007706 1117.5813703110907,784.4660554520087 1132.5430934756296,762.6016231585527 1132.8763076267205,762.2467782662134 1120.2517438577488,750.8335821338696 1116.9263015822507,749.4405434834771 1080.9318914844189,740.7737107486464 1079.936618097825,740.612898440042 1069.3591076978482,689.8781834912952 1065.2588842667174,670.6017600825289 1060.7523376356112,665.4668029487366 1060.582526577753,664.9158405319904 1066.567565368954,647.3098267870373 1066.9543734043837,646.1973259248771 1045.008842808893,658.378922434873 1044.3633860267,658.814145842276 1007.9716821332695,653.4524060356198 1007.0879655822646,653.7650449052453 1002.5004455822054,657.8183716291678 1002.3035463112174,658.7913592980476 1006.0169617066858,667.0335519525106 1005.9823004445061,667.3785268715583 995.047982933349,676.8102112265769 994.3358250667807,677.4244846102083 989.7436447289074,661.8720783631434 989.697915164521,661.2750785290264 997.7000064000022,628.8450378988637 997.4661156977527,628.4963553543203 979.1492406044854,631.5405857439619 978.7021394489566,631.5118710888783 974.048500906676,623.2081626331201 973.7563559822738,622.9415161632351 966.4037993244128,625.8135320934816 965.9339790222002,625.6325793473516 944.4935125333723,611.3600828362396 943.9901960534044,611.3003690269543 922.668276906712,579.3479329121183 922.349043768947,578.8715191774536 918.8261196799576,564.7213262799196 918.9595218489412,564.1272505653324 904.6313133512158,549.5511411076877 902.2481331200106,549.715742762899 935.2246832355158,523.0212845772039 938.0476828444516,521.9035859684809 928.2673814755399,517.9954717073124 926.8590856533265,518.1673937338055 928.6970063644694,500.9485209080158 928.7372017777525,500.51708523987327 923.0282880000304,499.1721497261897 921.5608641422587,498.6029781670077 911.4796797155868,512.2590350317769 910.3076047644718,513.50401748484 907.7371372089256,507.34379274537787 907.449652622221,507.09661395283183 901.9481238755397,511.55947032687254 900.9848903111415,511.7870343213435 889.6506575644016,504.8610468386905 887.8768164977664,506.15897375834174 876.580157724442,490.5276957381284 876.4004434489179,488.966512756655 886.5628925155615,482.7394563803682 886.3750226489501,482.05119900917634 867.5423064177157,484.33306711830664 867.2291899733245,484.2888256502338 860.6971440354828,473.3549770314712 859.7167254755041,472.24295203224756 862.5502108444925,469.6512457145145 861.4617307023145,467.8974247649312 855.3584358399967,472.8144733859226 853.576439182274,473.88863753696205 847.9103422577027,469.913519409718 845.9818362310762,470.24147511454066 856.4568192000734,480.03293666860554 856.562841884559,481.69270225672517 844.658009031089,478.94147081353003 844.2429476977559,478.5820567011833 840.3486529422225,490.82278223137837 840.282243128866,491.2090849625529 848.702308408916,493.02565634885104 848.9871715556365,493.4187963331933 844.6842234311625,496.5465598217561 844.08507875551,497.1859716511681 846.6409827555763,504.42961895349436 844.3128527645022,506.32269624399487 821.784779946669,496.51463478791993 820.2751217777841,496.7517920694081 815.2134124089498,438.7445169046987 815.3150660266401,437.9133308333112 819.7196677689208,422.7689459344838 820.3062877866905,419.8276300698053 838.1559640177293,401.7896979167126 840.6585654044757,398.01310817466583 841.1770279823104,380.67471925378777 840.3661292089382,376.9958712325897 846.6083603911102,360.06241758645047 847.3444024889031,357.8869431129424 839.1477421510499,333.13921309262514 837.4292425955646,328.58550556283444 824.2914591288427,308.88711964932736 822.499850524473,306.29848099319497 804.2211319466587,293.39773488865467 802.6634140444221,292.11679373681545 794.2049009777838,271.928873478435 794.053440000047,270.8441206988646 780.3590374400374,255.22782704245765 780.190974008874,255.0616319226101 796.087677440024,221.01223001809558 797.355289315572,219.37330007355195 824.494475093321,213.57872253563255 826.0058808889007,212.21145546482876 818.5207958755782,183.9896659720689 819.8283118933905,180.33944942429662 812.1364243910648,170.68197332159616 811.3132922311779,169.48572079266887 828.2836209777743,162.50311002798844 829.1070444089128,162.01481673237868 843.317288106773,146.6533425298985 845.1208388266386,145.12668256799225 848.6635693511926,123.6531753661111 848.5758967467118,122.48316097958013 822.6961672533071,113.49243348324671 820.7443595378427,112.37810369784711 820.188905528863,102.81811561598442 821.1128174933838,102.02036479022354 809.013998080045,88.83694701117929 808.4279606044292,87.0576518937014 813.3335486578289,84.54267053562216 813.3976283022203,84.47915591171477 810.5390936178155,76.4597138412064 809.6317841067212,75.2158740623272 797.5137408000883,70.07090763328597 795.4902803911828,69.06054415332619 781.1795481600566,75.0170966538717 780.3173856711946,74.28093321452616 785.1227764622308,63.38852923788363 785.5235655111028,62.65872407396091 772.7664733866695,58.10344127146527 771.75576263119,57.521685274201445 773.0120149333961,51.54362914763624 773.0251221333165,51.4092683721683 766.3334596266504,43.33284444588935 768.8383911822457,43.71263323852327 745.8903054222465,17.72138605581131 745.3939794489415,17.463592399086338 718.7799554844387,5.3844270936679095 718.1266343822936,5.209812255809084 688.5122267021798,7.770511031267233 688.0319206400309,7.809364671004005 664.2560423822142,28.589120666729286 663.9091384889325,28.962079462595284 660.4922370844288,40.904648372204974 660.2959203555947,41.199433650122955 639.6270310400287,52.804971138364635 638.7878789689858,53.07643291039858 618.0793767822906,45.46257804823108 613.1933038934367,44.6746704611578 583.5253023288678,47.017361756938044 581.1083346488886,46.81444529246073 568.0174458310939,62.75606203696225 566.0248601599596,64.10599340766203 520.3025774933631,81.15763498761225 517.2713190399809,82.45718782849144 487.2840843378799,78.47534057917073 481.65410503116436,75.42104871326592 471.0949447111925,85.61007898120442 470.1934606222203,86.55410963576287 449.2653400178533,81.16814476402942 446.5425376711646,80.43063138599973 432.86648519104347,92.95842193305725 432.7109464177629,93.12793989863712 383.68215409782715,92.07153467240278 382.7116387555143,92.00710840837564 383.1147579733515,100.77758559968788 382.7125125689199,103.06849728547968 375.249272888992,116.40958373760805 375.28975957341027,118.39194423996378 357.21201806224417,137.96146955655422 356.63034965330735,138.77918834483717 336.44322275556624,174.63837507308926 335.8863123911433,175.48655754694482 320.3181627733866,189.11365874519106 319.0779303822201,190.21206552523654 308.37895992887206,212.07902098825434 308.00642417778727,212.9307102599414 313.23910968890414,228.32264731370378 313.53853639110457,228.59388923435472 311.214192924439,250.98387601791183 311.37730474665295,251.93951419822406 325.7888167821802,278.7983918050304 326.2015479466645,279.4443810317898 317.31195363553707,308.56713618937647 317.22224213334266,308.76798178296303 301.5605944888666,320.45048453181516 300.9331965155434,321.4907143667806 290.91813063109294,320.70152773096925 290.31898595555685,320.4792404039763 258.3694577778224,285.8708417892922 256.06899854226504,286.8066960758297 234.06200974225067,298.86881135904696 231.9360219022492,300.35604381770827 226.94683904002886,314.59379240346607 226.82042737782467,314.77911296405364 204.48692366224714,322.8486198690953 201.05050709331408,324.4160202150233 181.1625156267546,343.995702097076 179.80024064006284,344.357164947025 159.30145365337376,384.9266268289648 158.21442986663897,387.2519533293089 161.62929237331264,391.8587274714373 163.6058581334073,393.6350654003327 164.8501683200011,407.50122576172 164.71472725330386,409.28564813447883 147.40448511997238,431.6063403933076 146.585722026648,432.3262361716479 128.72759893338662,424.16317137528677 127.12327765335795,423.97657562355744 118.2441691022832,432.51054370531347 116.53906801773701,432.4142840972054 107.29121023998596,424.9405759086367 104.94502144004218,424.22749896888854 67.66697955562267,426.5200124506373 65.49963121779729,426.90779840393225 52.9537106489297,437.5091415045317 51.681729706702754,438.21943760022987 58.380382720031776,450.47293349180836 58.537960391142406,450.60522239858983 51.98727310216054,498.2463330475148 51.52677347557619,499.6359687143122 64.68989752896596,530.7086696004844 65.25612856890075,532.4811345419148 58.942244693404064,539.951137638709 58.643691804492846,540.5826698739547 58.12726812448818,558.2899028089596 57.96939918224234,559.291605219827 39.38251576886978,583.3584288757411 39.35455374221783,583.4354741675779 5,586.142983349564" stroke="red" stroke-width="3.077333013751518" fill="none" stroke-linejoin="round" vector-effect="non-scaling-stroke"></polygon></svg>