<svg width="5949.27951701323" height="5296.420470624755" xmlns="http://www.w3.org/2000/svg"><polygon points="5,387.00890310964314 22.674039751058444,393.4771627501468 24.658761102124117,393.3700512897922 8.82409841765184,410.2178061309387 6.445287253241986,411.7017496586777 12.561980586615391,414.8277510510525 13.455891626654193,415.38376349327154 12.45624917326495,424.1075033156085 12.204299662262201,426.61263115139445 23.8420369066298,441.84876362158684 27.509722737711854,447.0167020933586 23.70979982218705,450.299858045415 22.26888163550757,451.36704391182866 41.648313742130995,470.6743641483481 42.791844124440104,470.8502377254772 43.35574499552604,460.33721262117615 44.373737528920174,457.8402202713187 51.34210759110283,454.01311364158755 54.256275057792664,455.7519288776093 59.34711153770331,444.45530471304664 60.100921173230745,443.4414004042046 51.61386353778653,431.6948027368053 51.96368014218751,431.3707905075862 52.985167928854935,432.54698449006537 58.06697500438895,437.76025882572867 77.02872433769517,427.7678877460421 78.01846357330214,426.9152315008687 80.82689962664153,433.3257936576265 80.52048241777811,434.0280410721316 93.20504803548101,434.99414022569545 94.47324245329946,435.8472204307327 102.61252238217276,424.7414214244927 102.55281180434395,418.7321132149664 118.77544760878664,418.71251638169633 122.15302741329651,418.81369071098743 121.71495566214435,414.21795871813083 121.68000312882941,412.80512983718654 132.63995249767322,411.13387811923167 134.14407651557121,410.54048267559847 119.04749482660554,385.9008336478728 116.78024049778469,381.33220941526815 121.40853845328093,378.0571262581507 122.63828508439474,377.3177756629302 120.38151651551016,367.23418597935233 119.70343736885116,365.9176916014985 124.56679111113772,363.587823419075 125.54313187557273,346.6356949704932 125.51575239107478,345.5123747777543 115.76516067550983,342.5499545869534 116.10711295995861,341.46308545046486 151.12256085325498,347.2005441195797 151.35528647108003,347.1417342284112 151.32179029332474,339.21501795580843 150.59856412443332,336.06923443160485 158.8150308977347,328.86430645064684 158.49667157325894,324.3724464093684 194.69671907555312,321.4503165904316 201.2150752710877,318.95856456272304 204.15924366214313,306.85640406020684 205.3691838576924,306.71915543213254 207.21205617766827,309.0528262690641 208.0660630755592,311.94822118844604 202.29685617773794,314.3411105288542 201.47721927100793,318.1638423879049 205.75191409769468,320.90682984230807 208.88686506659724,320.2976853585569 212.9835932443384,337.2122077216627 214.09391871991102,337.11464262608206 218.1015179377282,328.98330391413765 220.05216056876816,328.31217560282676 211.6454937600065,308.6351566626108 212.03113671101164,307.7551296411548 222.84603306662757,327.24848768737866 223.41022520884871,328.44667498918716 231.2923127466347,314.4573802035302 230.70947925327346,313.1533324389602 237.70872405334376,311.64956413017353 238.9955598221859,311.45851459010737 231.19240675552282,283.2383302349481 231.62319672876038,282.050837838382 278.33143210667185,262.2058926829486 279.058736071107,261.8656647609896 298.81973333330825,244.77513790369267 299.800734435441,244.1256421293947 309.6168621510733,245.04788906039903 309.97629070223775,245.00775178795448 319.8509639110416,232.42389451497002 320.92196778662037,231.7734494812903 333.4798304711003,233.22394835326122 334.2482036621077,237.0075153168873 334.5758836622117,230.85844425897812 334.4153932799818,230.2928359095822 343.85345109330956,228.90070326864952 344.7895964444615,228.94951016706182 334.17072554666083,248.82167169684544 333.57594993768726,250.0631652379525 339.95740871108137,258.01229545188835 343.26129692443646,259.49636838637525 347.42647381324787,255.7177545861923 348.8397212444106,255.8377043522196 345.98409927112516,250.05267505784286 346.3030411377549,249.73112798488 383.96497834660113,244.52519172645407 384.1135266133351,243.44649734679842 376.2011468800483,217.47456920309924 376.1038623289205,216.12569005897967 346.56518513767514,206.31333392119268 346.05080035550054,205.80422885040753 342.35864775115624,195.63875615404686 342.05310435558204,192.2969975588494 345.4635977954604,181.24487618985586 345.0697992532514,179.9546269089915 329.9909851021366,166.84593418688746 328.9773616355378,165.52731031586882 339.9373110043816,146.88914137223037 343.46984704001807,143.7483241619193 341.64852878218517,130.16923048027093 340.2754767644219,128.80885567591758 316.1069650488207,119.57806958438596 314.4382728532655,118.85609208774986 284.4944375467021,130.90988046635175 280.47052714659367,131.75001087482087 277.18469774222467,127.88748325576307 284.1440383999143,124.63914647552883 279.67244430223946,117.46552562020952 279.00980252434965,117.10681552725146 280.2715889776591,124.79932831466431 280.59664753766265,125.12699336046353 276.43496590224095,126.26788450247841 275.8964056177065,126.4025092610973 272.0743460977683,119.47538645885652 271.4128694044193,118.75386499118758 275.2378416354768,110.44547036924632 275.2457059555454,108.93847008637385 267.40556145773735,107.10513671918306 265.93813759996556,106.49630413559498 264.7666451911209,115.75685542961583 265.0753925688332,117.4878879346652 258.11838207999244,117.63803484296659 254.23078655998688,117.66222263302188 249.90919708437286,125.35060849733418 247.00784554658458,125.36156106955605 248.6174097066978,129.25334002962336 251.09991338662803,129.36058201134438 248.92761343996972,136.1865390824969 248.69838307553437,136.89978854026413 244.16882602660917,122.64576257619774 244.2777614222141,122.23594832158415 257.4341862399597,110.20677901798626 257.4612744533224,109.87407113163499 245.49731356441043,90.30228152993368 245.4332339199027,90.03572567476658 250.13231075555086,72.65731103502912 250.10318364435807,72.38297351187794 238.29068373329937,62.98362243094016 237.7250352355186,62.801483439223375 226.93518819543533,74.63335258688312 226.01535402669106,75.2504910013522 215.42444515554234,73.29362668219255 215.08132778666914,73.31051595293684 220.33236337767448,69.30863492382923 226.76129934214987,71.38832590309903 234.3923111821059,45.49849427182926 232.96304383990355,42.79356476495741 216.00990008877125,48.261824525601696 215.01404415990692,48.911450824991334 212.91339690668974,43.22042086307192 213.08932465768885,42.47034055070253 217.39605930657126,40.528245926776435 216.79167175106704,39.072804885101505 194.19019861333072,27.663141562079545 193.28259783110116,24.82741077832179 189.6114167466294,27.946210381167475 188.89838506665546,28.4881491693086 190.90349539543968,45.886540461622644 189.52520049770828,49.2319263285608 186.82162204443011,34.67035581293749 186.33199530665297,31.73062235227553 182.4662451199256,33.99740279850084 180.9128962843679,34.76714399858611 170.03828935103957,19.112919288454577 169.123698062147,18.19153702701442 157.20779690658674,19.422480933193583 156.68176127993502,20.536533930629957 168.24638947553467,23.529381554748397 169.77614535100292,23.516597549139988 172.18379235547036,42.85154419875471 171.29658055107575,43.743603768059984 168.1362889955053,27.890053209324833 168.06288867560215,26.72627244674368 144.68372167099733,27.734365364245605 142.4359825066058,33.00212246080628 135.92607317329384,24.969403654686175 137.5930177421542,19.26541726308642 126.0566428443417,18.680536722938996 125.09748707548715,17.356445359124336 128.51817500439938,10.140918426564895 129.98414250661153,6.509549580106977 120.71327431104146,10.214887585840188 119.87033571559004,11.313007011485752 124.42727224889677,19.048084787733387 124.003764053341,21.421380140411202 92.91814599104691,10.628109893819783 89.41648469329812,9.824951116170269 84.78818673780188,22.18386081850622 84.4130295466166,24.223369303450454 85.89443441771436,35.99616757821059 85.8067618132336,36.54082550195744 94.82014634658117,45.213165747816674 96.32951324433088,48.41064983716933 75.88432014221326,44.653007696790155 75.32012799999211,44.82100961141987 82.50986410665791,49.581161914626136 82.8110384355532,50.18239362485474 78.14924430218525,50.086525354592595 77.35698687995318,50.44808546657441 84.61808440892491,57.19344483973691 85.49859697767533,57.81930640182691 90.42107875552028,76.98275992908748 91.73529400886036,78.26997056155233 92.10025671101175,95.76249654905405 92.3551189332502,99.45672434667358 84.3871064176783,109.35971925186459 81.42021887993906,112.8789205441135 82.28005119995214,120.86228910082718 81.24370858666953,124.67337337409845 87.50283349328674,127.68075577070704 93.21757269336376,115.61857303819852 94.81665109330788,116.07403747917851 93.52136846224312,128.66966890956974 94.14119338663295,130.44349487981526 98.82017251558136,125.9265305022127 98.9559048532974,124.92437046574196 116.77994922664948,141.20387749635847 116.70392746664584,144.35887740185717 105.93272177770268,155.96636296261568 103.78576241771225,155.90613231196767 107.04188216885086,172.25038318004226 106.96615167986602,172.65462781203678 89.3751241954742,188.97982351813698 87.20340679108631,189.75905146746663 86.20318179542664,216.92306704312796 86.35609912883956,219.59070053743199 80.62330112000927,221.54350787738804 80.05794389324728,221.55080635350896 80.22280334215611,247.6695666302694 80.20066673774272,249.436490106571 82.1856793599436,263.09841835458064 82.25092408887576,263.4847070694086 111.14181432884652,266.9735881417291 112.10679551993962,267.10903768683784 110.22168888885062,276.0704105651821 110.29858446214348,276.6769430352724 99.57776867551729,279.7807209917228 98.61162239999976,280.10267954767914 99.65116899553686,289.9531946745701 99.83962140441872,291.4060405351338 89.27521820436232,291.43750507419463 76.21986446215305,292.5916576922755 82.10936632880475,302.3773118116078 83.07114353775978,306.50530274549965 33.949435733258724,321.2054741551983 30.39359800890088,323.14505637285765 36.182611342170276,334.3805225456599 36.54233116435353,335.77425789803965 30.46758087107446,362.6861381153576 29.7242569954833,365.1988130098325 19.60986766219139,363.2436517660972 18.75382186670322,362.95691761450144 5,387.00890310964314" stroke="red" stroke-width="3.790936805601868" fill="none" stroke-linejoin="round" vector-effect="non-scaling-stroke"></polygon><polygon points="5860.23149027559,5210.740449690609 5867.781820017728,5221.318272735516 5869.458376533352,5223.121690757631 5863.510620444431,5232.122064267576 5862.266892799991,5232.938356964092 5864.299965155544,5236.45805519307 5861.382884977735,5237.391133596015 5871.503973546671,5252.794158171571 5871.827575751115,5253.131611092889 5865.184555519954,5259.051440944371 5864.498029511073,5260.510422785592 5889.058592142188,5290.43190826237 5888.911791502149,5291.352724382479 5890.457858559908,5283.165972596442 5890.575240817736,5282.9711948016775 5902.5616295821965,5282.430094944953 5903.534183822223,5282.60971885029 5915.230466559995,5256.716069222894 5915.643780266633,5255.7353751155315 5928.58146047988,5257.049504225608 5929.353911466547,5256.708045379724 5935.768866417813,5269.8756705657 5936.551511893282,5270.799246986804 5934.462515484425,5264.293121447496 5933.2353902932955,5259.366596104053 5940.847760782228,5259.967038987437 5941.406418773346,5259.98888134805 5944.231457279995,5251.298125524889 5944.27951701323,5250.933477172919 5929.158759822138,5248.700104301795 5926.782861368847,5245.4632337197545 5934.966414506547,5239.167226054182 5936.332184746629,5237.6314240503125 5932.024867555592,5236.862404512882 5930.605212160037,5237.398266526114 5929.902083697729,5227.8385956980055 5929.887520142132,5226.4765886152745 5926.028760462184,5226.032095448056 5922.546614328865,5225.584480560501 5925.180870257784,5211.3432543419185 5925.522531271097,5210.592869306507 5917.775593528873,5214.4673789597 5916.245837653289,5214.705019279849 5922.659044977743,5202.524396791006 5922.575741439941,5202.236804869142 5898.545583502157,5195.133834135311 5895.503256746568,5195.5516360505135 5892.474328462151,5187.032244267408 5891.977711217711,5186.3749719492625 5890.2251329422,5188.722236683301 5888.274490311043,5191.904203066893 5875.425647786586,5184.368807752151 5872.754109155503,5181.83554787864 5860.23149027559,5210.740449690609" stroke="red" stroke-width="3.4668967120396195" fill="none" stroke-linejoin="round" vector-effect="non-scaling-stroke"></polygon><polygon points="80.05794389324728,221.55080635350896 82.1856793599436,263.09841835458064 82.25092408887576,263.4847070694086 111.14181432884652,266.9735881417291 112.10679551993962,267.10903768683784 110.22168888885062,276.0704105651821 110.29858446214348,276.6769430352724 105.74456063995603,277.52608564385446 105.39183132431936,277.78785074001644 107.44412757328246,296.0230708271847 108.135022648843,301.9204145807307 101.47103089781012,302.1224161697319 101.50685724441428,306.1464492561645 116.11701617774088,312.4684762423276 116.3672180621652,313.7971500073909 121.6904888888821,307.17832242842996 123.36034616886172,307.4250045940862 121.22416383994278,317.21546099649277 122.32516864000354,317.340848197171 134.14232888887636,314.42956667917315 135.58062563545536,314.0141872272943 133.47590058669448,307.8372048511519 141.6687743999064,304.7976655206294 155.17385073774494,314.55495549022453 156.07154830219224,314.23623978852993 147.61099633772392,317.99787594383815 149.833977457718,322.2673679313739 173.39052856888156,323.55266735580517 174.181912177708,325.39374634675914 194.69671907555312,321.4503165904316 201.2150752710877,318.95856456272304 204.15924366214313,306.85640406020684 205.3691838576924,306.71915543213254 207.21205617766827,309.0528262690641 208.0660630755592,311.94822118844604 202.29685617773794,314.3411105288542 201.47721927100793,318.1638423879049 205.75191409769468,320.90682984230807 208.88686506659724,320.2976853585569 212.9835932443384,337.2122077216627 214.09391871991102,337.11464262608206 218.1015179377282,328.98330391413765 220.05216056876816,328.31217560282676 211.6454937600065,308.6351566626108 212.03113671101164,307.7551296411548 222.84603306662757,327.24848768737866 223.41022520884871,328.44667498918716 231.2923127466347,314.4573802035302 230.70947925327346,313.1533324389602 237.70872405334376,311.64956413017353 238.9955598221859,311.45851459010737 231.19240675552282,283.2383302349481 231.62319672876038,282.050837838382 281.12093553773593,259.1014071282116 281.3985169065418,258.84600454592146 262.29054947546683,217.87736104399664 261.10624113772064,215.591518826026 257.1705858844798,215.95325918140588 255.81763157329988,216.0850912668393 262.0062688710168,180.16039207205176 261.5885860976996,179.028909381188 267.1244848355418,177.61500396137126 267.7533391644247,177.48999219638063 268.5429751465563,189.17098098510178 268.6297739377478,189.54325852770125 294.78941496892367,184.85689460556023 296.21518705773633,184.59729847195558 292.29642552882433,165.30601798073621 292.1831210666569,164.69141725898953 275.05346702213865,170.39842212054646 274.21227605326567,168.14949322427856 295.61225585779175,159.41225838509854 301.186311111087,158.20492361072684 297.91446271992754,149.0671068893862 288.71670357335825,150.79102888371563 293.334807039937,144.273089756025 295.72410396439955,141.84683679952286 292.6870200888952,135.31539500673534 293.4565583644435,134.8791371504194 305.86762040876783,143.4152114301105 306.09189916437026,143.9573179159197 320.4993334043538,142.24840019462863 322.3084182755556,142.33281967736548 329.04551907547284,150.3333558528102 332.49912063998636,154.18863914132817 343.97665877325926,141.45987500593765 344.5638613332994,139.435615498689 340.2754767644219,128.80885567591758 338.3190087111434,127.33073328802129 316.1069650488207,119.57806958438596 314.4382728532655,118.85609208774986 284.4944375467021,130.90988046635175 280.47052714659367,131.75001087482087 277.18469774222467,127.88748325576307 284.1440383999143,124.63914647552883 279.67244430223946,117.46552562020952 279.00980252434965,117.10681552725146 280.2715889776591,124.79932831466431 280.59664753766265,125.12699336046353 276.43496590224095,126.26788450247841 275.8964056177065,126.4025092610973 272.0743460977683,119.47538645885652 271.4128694044193,118.75386499118758 275.2378416354768,110.44547036924632 275.2457059555454,108.93847008637385 267.40556145773735,107.10513671918306 265.93813759996556,106.49630413559498 264.7666451911209,115.75685542961583 265.0753925688332,117.4878879346652 258.11838207999244,117.63803484296659 254.23078655998688,117.66222263302188 249.90919708437286,125.35060849733418 247.00784554658458,125.36156106955605 248.6174097066978,129.25334002962336 251.09991338662803,129.36058201134438 248.92761343996972,136.1865390824969 248.69838307553437,136.89978854026413 244.16882602660917,122.64576257619774 244.2777614222141,122.23594832158415 257.4341862399597,110.20677901798626 257.4612744533224,109.87407113163499 245.49731356441043,90.30228152993368 245.4332339199027,90.03572567476658 250.13231075555086,72.65731103502912 250.10318364435807,72.38297351187794 238.29068373329937,62.98362243094016 237.7250352355186,62.801483439223375 226.93518819543533,74.63335258688312 226.01535402669106,75.2504910013522 215.42444515554234,73.29362668219255 215.08132778666914,73.31051595293684 216.13310776883736,67.98576579184737 226.76129934214987,71.38832590309903 227.37995918211527,70.4607752362499 236.01323491556104,49.611292017274536 236.0301286400063,49.77426840882981 232.96304383990355,42.79356476495741 232.3164219732862,42.47992771648569 215.01404415990692,48.911450824991334 214.35111111111473,49.392620419792365 214.11314261332154,62.505678434914444 214.1157640533056,62.56182663800428 200.6194258488249,88.04750077071367 199.6098801777698,88.93298427056288 197.4235992176691,84.44071565562626 197.1553385243751,83.51595951447962 173.2472231821157,82.68750976893352 172.751188479946,82.59895903040888 172.036117902142,65.7220796973561 172.04106951097492,64.84197918471182 167.3874309688108,65.32220044691348 162.9318567821756,65.59700339008123 163.76343580440152,77.19820848247036 164.01334641769063,79.41339061653707 159.82894563558511,81.3797851317795 160.35935032879934,84.94645426544594 141.01079295994714,81.04977169918129 138.94771968002897,81.03379593236605 137.01134933333378,87.71521530736936 136.2485102933133,88.33961943845497 98.40977151994593,90.24568408128107 97.73868287994992,91.09920855273958 91.69859384885058,85.48459901736351 90.75341909332201,83.8728994205012 92.10025671101175,95.76249654905405 92.3551189332502,99.45672434667358 84.3871064176783,109.35971925186459 81.42021887993906,112.8789205441135 82.28005119995214,120.86228910082718 81.24370858666953,124.67337337409845 87.50283349328674,127.68075577070704 93.21757269336376,115.61857303819852 94.81665109330788,116.07403747917851 93.52136846224312,128.66966890956974 94.14119338663295,130.44349487981526 98.82017251558136,125.9265305022127 98.9559048532974,124.92437046574196 116.77994922664948,141.20387749635847 116.70392746664584,144.35887740185717 105.93272177770268,155.96636296261568 103.78576241771225,155.90613231196767 107.04188216885086,172.25038318004226 106.96615167986602,172.65462781203678 89.3751241954742,188.97982351813698 87.20340679108631,189.75905146746663 86.20318179542664,216.92306704312796 86.35609912883956,219.59070053743199 80.05794389324728,221.55080635350896" stroke="red" stroke-width="3.5406346327085583" fill="none" stroke-linejoin="round" vector-effect="non-scaling-stroke"></polygon><polygon points="133.48551253334153,93.1508485469385 139.77434709330555,96.33758433186449 141.66061880881898,97.75110710499575 145.23975822213106,91.43514025717741 145.57384618662763,91.31783807720058 176.69732949335594,90.72813121409854 177.9186292621307,89.39124338299735 173.0526540799765,84.65478746750159 172.67924451548606,82.7956876840326 140.69563761772588,83.37400498945499 139.10005447105505,83.3037123606191 133.48551253334153,93.1508485469385" stroke="red" stroke-width="3.7717688974722163" fill="none" stroke-linejoin="round" vector-effect="non-scaling-stroke"></polygon></svg>