<svg width="19892.614601955516" height="19836.377408947155" xmlns="http://www.w3.org/2000/svg"><polygon points="6878.179167857859,1810.6332867576857 6884.521305031143,1833.789697043947 6884.312172373291,1836.31304442283 6894.681132657803,1840.7923755203374 6895.986027235631,1842.7254280378693 6892.708644693252,1850.0157211220358 6891.792888320051,1851.2572870206204 6914.694370702142,1835.8289814637974 6915.677119431086,1835.0997358964523 6914.339602488908,1829.5518116318271 6915.333419520059,1829.4703822449665 6950.40100494225,1853.0593444216065 6951.524437617743,1854.2554597058333 6977.063379911124,1898.5647006144281 6977.384943217738,1899.3827839375008 6996.618157226592,1897.2662850206252 6997.51701987558,1899.9044847359182 6975.985968071036,1854.2819999859203 6975.744213048951,1853.2109396875603 6981.398076586658,1843.1226531463326 6982.036251591053,1841.9566177119268 6998.576955448836,1835.1105328874546 6999.225324942265,1834.294908697484 6999.495333262254,1810.9486838875455 6999.536693759961,1809.9422010161215 6993.2350432710955,1796.4471449467237 6992.79493262223,1794.5370816541836 6992.073162808898,1773.1450342757162 6991.762376533356,1771.7644239534857 6982.2398500978015,1754.3030920355814 6981.535847822204,1752.8818589659058 6965.491761208861,1745.4159584104782 6963.385288533405,1744.9105416300008 6940.401376426686,1713.6673982674256 6938.791812266689,1711.5112926086877 6925.903356871102,1715.9432145204628 6925.192655359977,1715.7636167481542 6921.045828551054,1747.9961311460356 6920.490083271172,1749.2837308296002 6923.83271054225,1765.27930897224 6923.359103715513,1766.06908933667 6898.522416071151,1798.853935955849 6897.682098915568,1799.7578818487236 6878.179167857859,1810.6332867576857" stroke="red" stroke-width="3.4939845523693447" fill="none" stroke-linejoin="round" vector-effect="non-scaling-stroke"></polygon><polygon points="18301.10309404449,6219.148193950125 18311.88187278225,6230.191556015983 18312.391305955593,6232.605578375165 18304.92282339558,6288.094404860749 18305.252251022146,6288.546752829454 18327.420021475526,6292.840926494915 18327.771876977757,6293.008900185581 18357.684837546665,6316.66502958507 18358.811182933394,6317.141564956633 18358.997596444446,6316.625795822591 18390.671582151088,6304.980556446768 18388.009364195517,6287.991237651324 18387.805765688885,6287.124454846547 18392.055119928904,6273.081749804434 18397.886950115557,6261.7437676425325 18387.584399644402,6244.11173457955 18387.409054435557,6244.112175552174 18389.87961599999,6234.527428362169 18392.073761280044,6232.153116553556 18385.977748195524,6199.506403220876 18386.016487253364,6198.575762226945 18382.912119751098,6198.598256439087 18381.43013233773,6198.796734683099 18361.517965368927,6166.906064049923 18361.179799608886,6164.833203935879 18346.66954666667,6155.974255063164 18346.19244458666,6155.539283135033 18333.314474951127,6135.782895793207 18331.884042524383,6133.072663483792 18314.92419953784,6136.862038182851 18309.64927971561,6140.114433993585 18312.71898595558,6150.792916464678 18313.971160462243,6152.117268398986 18310.001717759995,6170.593845692347 18305.314000497805,6175.670179935056 18307.05201521772,6199.623725458223 18306.777637831052,6203.378445404349 18301.10309404449,6219.148193950125" stroke="red" stroke-width="3.4286875081762824" fill="none" stroke-linejoin="round" vector-effect="non-scaling-stroke"></polygon><polygon points="5,160.20941813569516 14.049793422222137,180.2791385325836 14.201545671094209,180.89290112187155 11.78457799111493,187.87897497345693 12.109345279983245,188.55390885763336 37.247498524491675,194.5493512932444 42.782814719947055,193.07260306330863 48.492893582209945,183.22599911043653 48.50308807101101,182.12042111187475 58.42086940445006,179.50354684877675 63.59005781332962,178.35261990875006 62.96557255112566,170.31318708520848 62.54876359109767,165.92412536824122 85.26470627554227,165.0288039413863 85.99259278224781,165.26090787479188 96.3108718933072,154.290099925478 96.52845141338184,153.6957564909244 122.30390584887937,143.59892389154993 123.09616327111144,143.2860964029096 134.68147171556484,117.29490965220612 134.76652288006153,117.22870921064168 172.89886293327436,117.13076879444998 174.58881791995373,116.90224098530598 169.4915734755341,101.19355326454388 169.32554894220084,101.24932897795225 180.85930240002926,95.4236372411251 182.91655025770888,95.14339064864907 148.27742464002222,8.582082079257816 146.97136497776955,5 141.06759082665667,13.844405786250718 140.10989141336177,14.454101275186986 125.78110037336592,14.508991931099445 124.5551402666606,14.544829624588601 125.43798300449271,22.912996343919076 125.50351900444366,23.06405315484153 130.50901304895524,21.771221202332526 131.56457955553196,21.49949870322598 131.8005091556115,30.170409172656946 130.90805447113235,30.318739295064006 119.4372155732708,23.420147624681704 119.35012551106047,18.958264521497767 84.65624092449434,15.174483327544294 80.23416291549802,14.235899440012872 78.86693631997332,22.012096790247597 78.58119935996365,23.064506778726354 86.79038435558323,25.80256341106724 87.00242972443812,25.778521645464934 83.09910556441173,39.670590693713166 83.04318151110783,46.63488936412614 79.39035050664097,46.946041445597075 78.63741468440276,47.05399206385482 78.50430378667079,59.985453862987924 78.60857884446159,64.15804603497963 82.55967146670446,66.32322702382226 84.06903836445417,70.97461969265714 77.43446499551646,72.90707722946536 76.34714993776288,72.95741794991773 75.75674339558464,81.42628481937572 75.69674154662061,81.65530336624943 84.37458175991196,109.57834181078942 84.75847708445508,109.63139471504837 63.374808462220244,129.74250213732012 63.316845511086285,129.81595319951884 42.30105230223853,126.83844491752097 40.05942983110435,127.16172439721413 41.519571911077946,153.16080067772418 41.213445973349735,154.035770095943 5,160.20941813569516" stroke="red" stroke-width="3.9938760910391924" fill="none" stroke-linejoin="round" vector-effect="non-scaling-stroke"></polygon><polygon points="19844.005491199903,19831.377408947155 19855.769931377727,19828.11195432773 19858.359331555548,19828.693590800976 19864.939145955606,19817.422049439687 19859.463249066728,19810.836692028854 19861.8866247111,19806.208134347864 19883.4814648889,19791.9437896827 19887.614601955516,19787.85504351626 19877.03272248886,19759.61830637988 19876.35988622217,19750.625052402203 19875.24140515551,19750.03075403394 19869.488800711115,19748.70916204143 19862.63810417778,19756.11081221432 19848.13862826675,19760.1710228211 19848.569709511125,19765.943299211795 19846.644407466636,19770.81367651443 19849.513427911093,19778.567839377443 19853.369857422193,19785.162415560975 19856.9233649777,19784.086186769768 19861.720600177767,19797.89810627268 19844.643374933396,19798.932720851037 19844.005491199903,19831.377408947155" stroke="red" stroke-width="3.218772610565663" fill="none" stroke-linejoin="round" vector-effect="non-scaling-stroke"></polygon></svg>