<svg width="5233.863491697761" height="5018.970066675742" xmlns="http://www.w3.org/2000/svg"><polygon points="5,4502.6553147759405 235.33865102223353,4583.9882975684595 323.78137628443073,4615.219051313237 536.803377208882,4654.220204487094 669.2612451555906,4678.479297804006 1011.3836319288821,4678.478410547075 1323.002942862222,4678.479297804006 1689.2862683022395,4725.977721679141 1703.2736895999988,4727.770186358772 2509.1235694933566,5006.216028451803 2555.4543175111176,5010.066298872873 2600.749014186673,5013.970066675742 2699.0739857066656,5012.616876595421 2796.8239880533074,5003.059049599455 2891.6478808177635,4977.325948920392 3411.586620586633,4788.469810136419 3446.81848291558,4772.064978806709 3504.9567792355665,4744.998201515002 3569.6192571733845,4701.774538112048 3645.648590222234,4632.00838925963 3708.4981967644417,4550.0139486647095 3756.2576295821927,4458.276800738997 5183.281892977771,1028.9173967767274 5214.8457782044425,929.9601936775725 5228.863491697761,826.9794728871784 5228.515713991132,817.8572066443157 5224.903660942218,723.1008050072123 5203.080172942253,621.479781666596 5144.956731448881,432.46550154610304 5106.82235249778,337.9539215519326 5053.240118897811,251.35288547637174 4985.77299143112,175.1988300665398 4906.3902540800045,111.72379631985677 4817.412755057798,62.789881097269244 4721.443293013319,29.83290283981478 4685.013432604435,20.737679449666757 4591.236368213373,5.227140815695748 4496.198391182232,5 4402.344722488895,20.063107394322287 4058.2376143644215,104.30517499230336 3978.6559388444875,129.90532311040442 3903.442747448862,166.512121862208 1034.969601422199,1831.216994375165 1034.969601422199,1905.9430281019304 1034.9681450666976,1940.4033359321184 1030.113820728904,1961.0025223303237 937.0687206399743,2236.1634710497456 926.6744197689113,2258.3350872515 912.7962251377758,2288.0555143577512 873.4996744533419,2389.2920515434816 859.347684977809,2425.7507973858155 850.7889746488654,2447.799712178821 821.3694273422007,2523.5908681435394 821.2202965333126,2575.5275972948875 821.2060242489097,2580.48198276147 821.1498089244706,2600.149859071418 821.10670080001,2615.1977824839414 821.0501942044357,2634.894244023424 820.9826193067129,2658.5388547547045 820.9010633955477,2686.9801526283263 821.209228231106,2824.439186030242 821.2275783111108,2832.6273299425375 821.3079691377934,2868.367026256805 821.3694273422007,2895.7100978285307 794.2410185955232,2895.838403121161 759.379653120006,2896.003451704106 750.9531798755634,2896.0434544979944 647.4159118222306,2896.5335626591113 633.6673328356119,2930.907442007505 629.4191436800174,2941.5281584910117 623.6741122844396,2955.89158837992 571.0335581866675,3087.498904111213 553.4943769599777,3131.3494749225792 277.3341198222479,3821.7853259594995 70.24705905775772,4339.529828035331 15.070989937754348,4477.476820647542 5,4502.6553147759405" stroke="red" stroke-width="3.839335014164535px" fill="none" stroke-linejoin="round" vector-effect="non-scaling-stroke"></polygon></svg>