<svg width="133.14767815114465" height="162.80266307893908" xmlns="http://www.w3.org/2000/svg"><polygon points="5,75.37142171745654 6.934622720000334,79.77841180341784 7.617070933338255,81.58281956671271 7.706491164513864,81.9200483749155 7.900186453363858,82.77166121429764 8.126795377815142,84.01490210252814 8.96886015997734,86.59938173834234 9.314598968951032,88.0696618699003 9.48557511123363,88.9365380081581 9.770729528856464,89.83398500224575 9.937336604460143,90.46885009435937 10.52570424892474,91.73677628731821 11.0756241066847,93.81220275745727 11.41320732445456,95.3543721716851 12.022255217772909,97.59746743051801 12.055168853374198,97.77686010638718 12.10293731559068,97.8928582998924 12.980828444473445,100.58103178697638 13.572108800057322,102.70133401779458 14.345142328878865,105.14127474010456 14.796612551086582,106.51746665139217 15.016813511145301,107.3357145228656 16.424235520069487,112.4033882097574 16.973864106694236,114.67238402669318 17.27329080889467,116.32095412199851 17.492617955547757,118.04009336180752 17.587863608961925,120.38230895344168 17.621942328871228,120.93077040655771 17.64349639113061,122.97535067528952 17.67757511115633,123.64968035276979 17.746315093361773,125.36022065824363 17.694468835601583,126.35776743351016 17.868357688887045,128.02557997300755 18.15234702231828,129.27485765283927 18.720325688947923,130.9021896115155 18.972857742221095,131.45467055856716 19.59559537784662,132.67156224674545 19.640159857808612,132.77855129248928 20.869615217787214,136.24532772757811 20.981172053259797,136.62427830934757 21.611191466683522,138.3998980463948 21.826149546774104,138.91864600789268 21.952269937843084,139.34703919582535 22.000038400059566,139.59742181492038 22.45092607999686,141.10465620399918 22.856084195547737,142.6415481151198 23.08385820442345,143.60485334310215 23.16861809778493,144.27237688016612 23.45697649777867,145.34130932530388 23.825434453319758,147.2544066880364 24.026702791219577,148.08733601123095 24.354382791207172,148.75304788869107 24.596720355562866,149.4070707548526 24.934303573449142,150.09165754687274 25.17168952897191,150.89041435043328 25.227613582275808,151.9898801232921 25.207224604440853,152.88167496444657 25.233730275533162,155.7691954554757 26.419494968955405,156.44746957853204 27.50477112887893,157.17833119409624 27.838859093375504,157.33115557790734 29.071227164473385,157.59005782037275 29.32346794672776,157.6484905758407 29.454539946629666,157.66017712501343 31.162845013313927,157.67815643036738 32.22045041783713,157.74692725937348 32.59852032002527,157.80266307893908 32.81493475555908,155.8923547299346 36.64573240885511,155.23340685729636 38.23782030225266,154.97540080663748 42.06424888886977,154.5937850283226 43.17428309330717,154.43916077818722 44.28839509340469,153.9137072057929 45.664359822287224,152.98056328180246 47.66947015118785,151.94223372417036 50.694611911079846,150.53351380873937 52.98050759115722,149.67227534693666 54.51929287111852,149.14950734365266 55.06076586677227,148.8950901341159 58.76719075557776,147.2544066880364 62.46633386670146,145.78497319482267 63.64336042664945,145.1938706773799 64.27104967122432,144.98529876215616 66.51121578668244,144.2076474141213 66.211789084482,143.58642337151105 65.46555249777157,142.43027668690775 64.44056945783086,140.597600877285 63.67452643555589,139.46616202150472 63.41995548445266,139.17082719889004 63.06606108439155,138.83009033364942 61.31785187555943,137.4842194878729 60.295781546738,136.63057167059742 61.672911360044964,133.8659706042381 62.07166151108686,133.1345816903049 62.20302478224039,132.39375011087395 62.33671822224278,129.46681152645033 62.48876174225006,128.54345341282897 64.82271715556271,127.69471574551426 66.15266104892362,127.07074760913383 67.35211548442021,125.74458464491181 68.11437198228668,124.6144177360693 68.86701653327327,122.86925595038338 69.4189752888633,121.25175458739977 70.15152213338297,119.79743174352916 70.71979207114782,118.95135756686796 71.4229205333395,118.07515934610274 72.61538446228951,117.08926357189193 74.71807061333675,115.17635236715432 76.30578944005538,113.58621816668892 79.74744888884015,112.94782346813008 79.9125996088842,110.55652425653534 82.3080132267205,111.18998056527926 82.9595867022872,111.0398214639863 84.0961265778169,110.62845693167765 85.04392277332954,109.9788141027093 85.7048169245245,109.81966255535372 86.35755548451561,109.86776769626886 86.52358001784887,109.18080729909707 87.27447694225702,109.39840493549127 88.38888021337334,110.14021343522472 89.39056156447623,110.33353281347081 89.51784703996964,108.63366517995019 89.87261525343638,107.95479343668558 90.40447630221024,107.41169452737086 91.48742229340132,106.79845871008001 93.18291143106762,106.07866873184685 93.99264512001537,103.49846523592714 94.91830471111462,100.9213785447646 95.4353109333897,100.99915916938335 95.78745770663954,100.54731180204544 96.1358179555973,99.75196825177409 97.78819896886125,97.77641050098464 98.78085091558751,96.91991030948702 100.04409372445662,95.50319319381379 98.82920192007441,94.04105598921888 100.1961372444639,92.11085807421478 100.75625159114134,90.94904428184964 101.45093319111038,89.95808058988769 100.7588730311254,89.37042441382073 98.91279672889505,88.35877083876403 97.43809109332506,88.23917059623636 96.3630094222026,87.62722998752724 95.208119466668,86.62276241695508 94.93141191115137,84.14709438954014 94.10158051550388,80.79235320579028 94.48809728003107,78.32111574115697 95.62143317330629,75.9276399249211 96.8363249778049,73.54223175166408 98.75026744895149,74.14881585922558 101.42646641773172,73.4806289721746 102.13833301339764,75.07060465298127 102.97806762671098,75.97215530648828 103.87955171556678,76.81434864969924 104.33742990228347,77.32335021102335 105.26046805339865,77.23387034033658 106.37691022222862,77.46319053892512 106.53186645335518,77.48477360408287 108.23201592895202,77.38585120462812 108.78659612452611,77.8161633167183 109.41166392888408,77.80402286112076 110.168677546666,77.65024369960884 110.63587640889455,77.22577668185113 112.0199967288645,75.76531608303776 112.83002168883104,75.33185238123406 113.7740313600516,74.60161698557204 114.57357056008186,74.07327397156041 115.24407665780745,73.98694035364315 115.60962190222926,73.89341222919757 115.82836650672834,73.79538751742803 116.05235399107914,73.03636899858247 117.30860629340168,72.33670267893467 118.02804593776818,72.3173673953861 119.84120860439725,72.42888249526732 120.16917987563647,72.26520708721364 120.79191751114558,71.92211785411928 121.9063207822619,71.4814519956708 122.48944554675836,71.26336703373818 123.79317503992934,70.44183678436093 124.44911758229136,70.33032067288877 125.39924394665286,69.9678929183865 126.05110869335476,69.36714286310598 126.9654087111121,69.18637792824302 128.14767815114465,69.14590814628173 127.70407224888913,67.73845441034064 127.49144433788024,67.00819370092358 126.49384078220464,63.26961644203402 125.29496888897847,60.818866632296704 124.11561216006521,58.8506023902446 123.55986688006669,58.01463559851982 122.12914318218827,56.21902750246227 121.2955252622487,54.793502955231816 120.69667185784783,54.28714720811695 120.4980249600485,53.91659838851774 120.21432689775247,52.8638585768058 120.3116114489967,51.93657993385568 120.41064362670295,51.4176259636879 120.55249265779275,49.968235876061954 118.87360597332008,50.21377393451985 118.46728277334478,48.91322855860926 118.08746524446178,48.97888559871353 116.44586126226932,47.906334909028374 114.91027996444609,45.57368766725995 113.75742890662514,44.10492113523651 111.69027783116326,42.627150379819795 111.20851541345473,43.22752405900974 110.05799452448264,44.30549424292985 109.54419228446204,45.12622309522703 108.51920924452133,46.39486147859134 107.82569272897672,45.75717036315473 107.70685411558952,44.556884941412136 107.38412572443485,42.53945521032438 107.10712689778302,40.935301990713924 106.78935011557769,39.55734883004334 106.21292458672542,38.44787436845945 105.63999431114644,37.90010582108516 104.5401545955101,37.32805050618481 104.30335118225776,37.10633369709831 103.47759758227039,36.80231596308295 103.1912780799903,36.76948562043253 101.89949070231523,36.74430069664959 101.37083363556303,35.21611008339096 100.68722033780068,33.718041190179065 99.8352523377398,32.084590239683166 98.59239850670565,29.865559989295434 97.70343907549977,29.785055631771684 97.25400775112212,29.236815672833472 96.31611477327533,27.66359773662407 95.74697102222126,26.73756165546365 94.57955640892033,25.26237224484794 94.0045872356277,24.818913973576855 93.4380649245577,24.463607002864592 92.66852664889302,23.753441089764237 91.92025116446894,23.412524652841967 90.87517041771207,23.01898588973563 88.8901577956276,23.402629972610157 86.99893447116483,24.15642342309002 86.1152179200435,24.36600992397871 84.0774852266768,23.966626032604836 81.62847772438545,23.150765234255232 79.09471032884903,21.189808437193278 78.39973745786119,20.457143697305582 77.56699335121084,18.272178065846674 77.2046520889271,18.436343593813945 76.66463544894941,18.88925990543794 76.07743288890924,18.817297098226845 75.55518378666602,19.014744993881322 74.58670734218322,19.676351565402 73.57920056895819,20.33480778685771 72.76655416889116,21.02069757913705 72.30663708446082,21.83521702780854 70.81183374219108,23.250161888834555 69.79034595564008,24.12583996844478 69.70820750226267,23.875775090709794 69.66335175116546,23.759737694403157 68.79565511108376,21.25817236409057 68.75895495119039,19.56435983889969 69.0723626667168,18.92164316092385 69.32023438229226,17.784628210938536 69.17226865771227,16.991232953441795 69.66393429331947,16.133517273701727 69.25295075553004,14.732919267844409 69.16819086216856,12.861843088350724 68.12223630223889,13.500529542739969 67.28774456889369,14.072647095075808 65.51273841783404,14.628121433255728 64.33338168892078,15.305033600889146 63.38908074668143,15.95360794768203 61.772817351156846,16.38539008173393 60.7839519289555,16.614324222085997 59.60954680899158,16.76724669727264 59.0331212800229,17.324063513427973 58.498056248994544,18.863173390564043 57.99328341335058,19.55581428320147 57.584047502256,19.877396810159553 56.880045226658694,19.8081329211127 56.0569130666554,19.118191428482533 55.1778568533482,18.272627834579907 54.455504497746006,17.699621713720262 52.812152888975106,16.665598240448162 51.469101795577444,16.053907415131107 49.553120426717214,15.423324349685572 48.58988686220255,15.162454932869878 45.89883306669071,13.336810093955137 44.36004778672941,12.260486604529433 43.92576255998574,11.852534781442955 42.73125973332208,10.783400543616153 41.510833777836524,9.671981169143692 40.60614570660982,9.126839373784605 40.05739093339071,8.987405198335182 38.75599160895217,8.825481528358068 37.879556835629046,7.787368044257164 37.19011811562814,7.232326147146523 36.539709724485874,6.6336529614636675 35.61929301335476,5.528509656607639 35.30180750216823,5 33.25038506661076,6.8554006207268685 32.10539832885843,7.833696437184699 30.97468387556728,9.121441923547536 30.501368320081383,9.994477780535817 29.94795320893172,10.70693723030854 29.510172728914768,11.355525193852372 29.167637902195565,11.722997549572028 28.145567573374137,12.60546842426993 28.07711886218749,12.704420084599406 28.924135253415443,13.36109815177042 31.37663800898008,14.541314605274238 32.10743722668849,14.559305660543032 32.73920426669065,14.688841214752756 32.959696497768164,14.77609776018653 34.18798677343875,16.372796448180452 34.60537827562075,17.07534018321894 34.764703573309816,17.402773369220085 35.348993422230706,17.430659139994532 36.209408284397796,18.40396026649978 36.47650389338378,19.265714955166914 36.36116053338628,20.12251883879071 36.034354346687905,20.60961372544989 36.00464469345752,21.534776192274876 35.88464099552948,21.532077620038763 34.45799509331118,22.502212200080976 34.275950648938306,22.80535026511643 33.507286186679266,23.733651759568602 31.867138560046442,24.95159174525179 30.37146140448749,25.834009320591576 29.743480888893828,26.12994673277717 29.782802488887683,26.186165800783783 29.626681173336692,26.666950681363232 29.592602453310974,27.15987777011469 29.42104376887437,27.709022426628508 29.023458702256903,28.304939517460298 28.82655943115242,29.01688965957146 28.55888128001243,29.520605355268344 28.630825244472362,29.862861519679427 28.561793991131708,30.27437775034923 27.84730595559813,30.559965062479023 27.24495729780756,31.089312528725713 27.122332160011865,31.707707481225953 27.13048775109928,32.852295714081265 27.647785244393162,33.30743090528995 27.542345102294348,33.90063434455078 28.082653013290837,36.07105264393613 27.971678720088676,36.613878723816015 28.15488824888598,36.93183836288517 30.9420615111012,38.47350882354658 31.610528711113147,38.99699072446674 32.44938951113727,39.35407302167732 32.59822904889006,39.63784959574696 32.928821759996936,39.87035722791916 33.30922183115035,40.33042479411233 33.22883100446779,40.58766645286232 32.725223253364675,40.7752008283278 32.364920888911,41.12913217389723 31.767815111088566,41.1084449699847 30.84069916442968,41.54602388932835 30.178931200061925,41.56491216830909 28.703934293356724,42.241741090780124 26.998833208926953,43.27789241273422 26.571247217827477,43.46002788073383 26.572412302251905,43.514893350075 26.333569991169497,43.7321065076394 25.58296433778014,44.22544490802102 24.85507783119101,44.89686904067639 24.605749760055915,45.257089712889865 24.20787342218682,45.720743663667236 23.940195271163248,46.09895144577604 23.26998044445645,46.93856139364652 23.06055651558563,47.22277785092592 22.951038577826694,47.243464477476664 22.869482666719705,47.476413745083846 22.482674631057307,47.904985785426106 22.170723271206953,48.28229038172867 21.80080895998981,48.98653059528442 21.660998826730065,49.788354339892976 21.526140302186832,50.463359041605145 21.48885760002304,50.69405637407908 20.864663608954288,51.40818224911345 20.311831039958633,52.12545369064901 19.562973013264127,52.615625299629755 19.24577877332922,53.108044297783636 19.150241849012673,53.30366249661893 19.06868593778927,53.70254320220556 18.837416675523855,54.10457104770467 17.850881422287785,54.79979866766371 17.88729031116236,54.89018709002994 17.68077909341082,55.21126805007225 17.564853191142902,55.49592346564168 17.518832355504856,55.892102030222304 17.369410275598057,56.35708254156634 17.02046748448629,56.88097139354795 16.66511672886554,57.381475195114035 16.57919175119605,57.68546436727047 16.560550400055945,58.04791244404623 16.55268608010374,58.440938589163125 16.689583502244204,58.800237617397215 17.183870577835478,59.65239002741873 16.892016924452037,59.991451330832206 17.59864064003341,60.33365988614969 17.979623253340833,60.25136799598113 17.631554275518283,61.05899635743117 17.6134954666486,61.23347247205675 17.56456192000769,61.45291646011174 17.691556124482304,61.68495125742629 18.22924259561114,62.02086166240042 17.93768021336291,62.450754280609544 18.374878151109442,62.54608600214124 18.80770702229347,62.57846280379454 19.04334535112139,62.65940478700213 19.296751217800193,62.68638544145506 19.35850069334265,62.65985446458217 19.490446506650187,62.83028220885899 19.687637048889883,63.15180120704463 19.818126506637782,63.22374944970943 19.8819148800103,63.40361995296553 19.816378880059347,63.70310401322786 20.136194560094737,63.87443029601127 20.399503644439392,64.40009986551013 20.43096092448104,64.63258121453691 20.40066872886382,65.18298094905913 20.43940778670367,65.73517798585817 20.423387875664048,65.83860235742759 20.30454926227685,66.15247254288988 20.157748622237705,66.70826449012384 20.101533297798596,66.94928709673695 19.958519182284363,67.17187303723767 19.697248995653354,67.4021031052107 19.475591680034995,67.71462204877753 19.15053312003147,68.12921483675018 18.899748693336733,68.48490064888028 18.561874204548076,68.92961951799225 18.26739911106415,69.22145173326135 17.571552426670678,69.69899451948004 17.417178737814538,69.87436307792086 17.12182983115781,70.13336869212799 16.894638364436105,70.3878773826873 16.508121600025333,70.7354656290845 16.30394055112265,70.98053074942436 16.33248512004502,71.22604525560746 16.136750933364965,71.46571391285397 15.914219804457389,71.68964424123988 15.88159743999131,71.91852058528457 15.797420088900253,72.0107005778118 15.528285582200624,72.19820805243216 15.33459029335063,72.17662446643226 15.137691022246145,72.24047590221744 14.690298595582135,72.27420024469029 14.466019839979708,72.51161946827779 14.355045546777546,72.75083706213627 14.133388231159188,73.09077740402427 14.18115669337567,73.35112818225753 14.082998328842223,73.50041380827315 13.82231068436522,73.52199726382969 13.559001600020565,73.65329657297116 13.368510293308645,73.8524936621543 13.2359819378471,73.81292405165732 13.07694791117683,73.67892690841109 12.831406364450231,73.52874209336005 12.499357297783718,73.56651313439943 12.400907662231475,73.68836966273375 12.053712497814558,73.72074481763411 11.87137678230647,73.67577932355925 11.779335111146793,73.60698209964903 11.588261262164451,73.54852692520944 11.264659057720564,73.59664003149373 10.895327288890257,73.48647449212149 10.664349297760054,73.40418754291022 10.424924444407225,73.41902617539745 10.297347697778605,73.35562473867321 10.096079359995201,73.17216515896143 9.979862186708488,73.11955539823975 9.827818666701205,72.9950006150757 9.666745742200874,72.9266528339358 9.441010631038807,72.7868096100865 9.365862684440799,73.29537087411154 9.430233600083739,73.86148675449658 10.041611662250943,74.4595265640528 10.712117759976536,75.34489227691665 10.97309667558875,75.90245950303506 11.097469440079294,76.30624520493438 12.270126933348365,77.88765709666768 12.620526080019772,79.30179027665872 12.732665457762778,80.4124067556113 13.825223395600915,83.91733155376278 14.20008931553457,84.85616526158992 14.671074702171609,85.76711787719978 15.068951040040702,86.80935812869575 15.563238115631975,88.92934402951505 13.992704284493811,92.15716863563284 13.827844835584983,92.13963356986642 13.511524408939295,91.50297484605107 13.231612871168181,90.86001959623536 12.57567032892257,88.51524023048114 11.46010197326541,84.45014715462457 9.881703822291456,79.21410978853237 9.491691804490983,78.3008816948859 8.990996764507145,77.66058557643555 8.199321884429082,77.04321963939583 5.646039324463345,75.48338491388131 5,75.37142171745654" stroke="red" stroke-width="3.3183266885492593px" fill="none" stroke-linejoin="round" vector-effect="non-scaling-stroke"></polygon></svg>