<svg viewBox="0 0 297.8321306133432 307.2053772550564" width="1000" xmlns="http://www.w3.org/2000/svg"><polygon points="8.052550000000338,107.01067919863954 28.02297119107243,116.49209564176954 28.417934817822243,116.75530168062642 24.205863280083577,137.6326416238221 24.53907743117452,140.232373403363 36.813824595512415,153.80676852630086 36.8767391554793,153.94079837806157 20.583033200098726,198.6612571218643 20.671870888887497,199.0272042535721 58.92101065777388,230.05036957978837 59.48491152897623,230.59921197882022 53.39967547564447,235.80357668866736 52.745189288842084,236.46012270465826 56.36219394670479,243.93971314162582 55.707125217864814,244.97634906401026 79.86893769782182,266.42502964180994 80.71682790222258,267.24793453174743 78.18160415112652,280.36014731627756 78.8920143912328,280.9293358041682 117.54281702228036,263.47563142228273 117.6115570044858,263.4622795978571 111.51554391996615,271.91115263975325 111.49078587556869,273.23025849657233 124.65507501338288,298.3313762714165 125.19858690675028,298.98907128992823 167.87417375107907,277.95832484341327 168.29680813334562,277.7545002769107 184.8095499644769,293.67049629052735 184.80867615118768,293.7679512520331 210.33888031121023,294.62412906435884 213.56150388447713,293.8320312032952 250.98372496895172,240.8622689295803 252.3235720800949,240.16923717261625 247.0160298932824,235.95803209659744 246.72271988445573,234.81140954569082 253.8734256622629,222.2644947410804 253.89527099554107,221.9106050465266 289.68986911114916,210.0204717591182 289.77958061334357,207.26040910869006 257.72781627553195,198.5401649932387 255.27676987564337,199.30366756013927 253.3561281688526,189.8289256617204 253.04650697773468,189.06984242049612 234.1307784800665,191.942769513676 231.92352599997685,192.1560226446377 225.4206071734443,164.86150866232447 224.9962251644829,163.64861783639162 232.2276130399914,160.18756781952789 233.30618996450357,159.4991806279645 229.59801744888682,150.03074455876003 228.87275238228176,149.4634448081265 186.5379527377445,146.86070472692472 186.1359986044481,147.03214364089172 185.20509613338072,125.21558300316201 185.0481010045405,122.37385179926741 173.5297849155977,97.23177613734833 172.72587664888852,95.9940165182702 187.27341229326703,78.98358287927795 187.43273759118892,77.6878142275159 176.2455967556234,79.01609949212389 175.37323977772758,78.80362783928967 141.9886188355522,52.04125361078286 141.7057945866618,51.90448890659127 146.1680680089412,37.40293964822877 146.20243800010212,36.944502110919984 127.9374091644786,8.433963035560282 127.65312856002856,8.22454240846082 117.65786911114265,8.445548000664985 116.65123615109042,8.052549999999883 85.72290448888816,54.52705984036538 85.57435622227058,54.69456118820335 57.08687647115585,46.11797230374168 55.92936507563718,46.18479721292488 17.66828319113847,74.10870932331409 17.35400166220643,74.3318761183541 36.51731060443126,98.29137124375075 36.6600334489267,99.38392026301108 8.052550000000338,107.01067919863954" stroke="#009edd" stroke-width="5.4658849406011285px" fill="none" stroke-linejoin="round" vector-effect="non-scaling-stroke"></polygon></svg>