<svg viewBox="0 0 1908.7407980622513 2692.737334155084" width="1000" xmlns="http://www.w3.org/2000/svg"><polygon points="698.891701502238,1785.4653574934705 730.4209254666712,1819.5268009947972 733.0950855378542,1820.221269882029 721.8802739467719,1835.708425840457 716.0912606133861,1844.7219086631444 727.0308210045114,1854.968602735527 728.0674548889292,1855.5576064960692 724.5844349422041,1862.782887859364 729.5613844179097,1865.0241262084814 712.5523166134735,1867.1373237705334 712.3766801333768,1867.227114216344 718.8897934489432,1877.7341224132465 720.871602089006,1882.9807720036256 739.6667443467086,1871.4089971234566 740.405990426756,1870.622677606741 792.8161490756102,1899.4919706395372 794.7283439200619,1900.069300247916 790.8101649334203,1878.9066731785201 792.1797216977939,1876.9616045206562 802.8705365600545,1883.6283716718676 804.900404933469,1888.0899573319252 818.7381128800116,1884.6573267464769 819.9675682401066,1884.0288424454407 812.3886939289296,1859.014693513956 811.4912876356175,1857.6531135583423 822.0912259111428,1853.283821044351 824.4945038489313,1851.3531965696961 828.5405508534532,1827.5068371620505 829.0642563111396,1826.406926190924 806.1423849512139,1789.2552612557552 805.6014944978306,1788.898640442268 806.145006391198,1772.1977363225083 806.0721886134488,1770.8400681151902 776.8999304800309,1739.0554398625168 776.152528808896,1736.6136660572733 760.6804986578427,1739.2031018206976 759.5358031912256,1739.4708500592747 730.2216960267178,1716.110151467939 727.7164732001038,1714.6573929809742 710.3701134489165,1729.7681048680456 709.1715328267092,1729.935788292823 721.7926013422912,1759.766733758595 721.8517293778496,1760.2425872543604 708.5904469601592,1764.213922704897 706.9450564533254,1764.454957787449 698.891701502238,1785.4653574934705" stroke="#009edd" stroke-width="5.082069750254089px" fill="none" stroke-linejoin="round" vector-effect="non-scaling-stroke"></polygon><polygon points="202.6268951023012,1757.633830165119 209.80818434674438,1771.797507453222 210.27043160002358,1777.7510593828988 226.07392827558942,1783.9588048822256 235.08148738681484,1786.801591691073 229.5144226400662,1796.9491483869274 221.47038836449065,1808.4118894665512 235.74878950228594,1810.85687118749 235.79306271122914,1810.8768791095713 248.10072351116833,1794.1620739570712 250.00418022226222,1790.2473044051217 268.29629727113206,1797.572544714821 269.0396211467232,1797.653915147042 334.73698534232244,1777.4211012643423 336.828603191163,1775.5582961159303 356.4617324356004,1802.9936174912505 358.86122384886403,1807.5399772727174 366.46398239114933,1803.3053073453261 368.8614349066993,1801.9598355827397 373.8162477777587,1827.385909465585 373.24826911112905,1829.9422713106974 397.9364084889894,1846.502333658725 397.87873680899065,1847.0188987246725 418.78355572451983,1849.9217763271658 421.22440763560735,1848.61926475491 429.78865211571247,1829.3122975820802 431.901824026696,1829.5657099542218 461.4087526667645,1868.0845666846503 462.9443339644713,1868.665089898313 460.70416784889676,1881.276202375629 460.42454758226086,1882.5482970432272 475.0885916711777,1896.635522428645 475.94288984008745,1898.2141957417257 482.07793325334933,1929.0556184156808 482.60746413339075,1931.2979621269983 516.6089972889531,1873.7514926065119 517.8233065511813,1872.155309101428 566.2640224977877,1846.6374764432908 566.8756918312065,1846.1338024216016 587.2655434222906,1846.3627453011354 589.3781327911202,1846.1418043126828 594.0760445422275,1823.2747729890175 594.1340074933614,1822.562085227611 617.5746327022571,1799.4569517327832 618.9482672622908,1797.340883374774 605.2544472445516,1778.5586097874689 604.2993692712407,1776.8879199204744 611.3056045778576,1769.7892369762772 614.284142960074,1761.1160203484828 614.9846499822816,1736.3694871917028 615.5401039911449,1735.4350224093428 589.3705597423032,1716.1039241095782 589.3035673867926,1715.9704806753211 628.6790525422912,1695.7866774844947 628.6901208444979,1694.9854971389063 623.1947087911904,1671.821631370672 622.5291543022977,1670.451333476965 610.7883070844473,1660.662354182546 609.4070994755966,1659.2937667264846 612.5831196711879,1641.4199296898219 612.4581643645433,1640.6011984519205 592.145790888906,1573.5390245336816 591.6136385688806,1570.0080285870713 544.9388993689572,1532.4200953275208 543.9139163290165,1532.473071931839 503.28946064899355,1549.209480780271 498.2778499111082,1550.7007206523335 454.24493968892057,1584.1000729489383 451.5451477600509,1586.2012731928621 437.04072024007473,1652.7425823465232 437.7589948000168,1654.2344577151594 388.04076376008015,1665.4483392473553 383.8712178044734,1663.2669181861925 362.80940376010403,1729.8721842501322 360.3271913511926,1732.4630334012104 317.1791627644343,1729.6489027804705 316.59254274678096,1729.6315562026352 315.54484056004003,1715.1773802002203 314.89384962674376,1713.8674015003267 297.5247707288727,1703.560778446124 295.95103291559644,1701.1582029960477 259.4238879557015,1719.6041165915444 256.0110643467415,1721.2983695270736 220.991538657785,1707.605195607735 218.70593424895924,1707.653681901727 202.6268951023012,1757.633830165119" stroke="#009edd" stroke-width="5.536190558874828px" fill="none" stroke-linejoin="round" vector-effect="non-scaling-stroke"></polygon><polygon points="879.2156074933955,721.8039101777608 918.3857465156834,787.6208047267642 921.0380612533554,789.5013556162371 909.5185800801046,801.2935175236557 909.5881938755992,802.3069886266962 916.9987134844778,825.6896738071005 917.1848357245108,826.1845186141795 932.8642509067213,833.5766887670975 933.070470853454,834.0322155414392 949.1585394044887,893.5511859683097 949.4160230667112,897.0501725997087 1003.1430184090059,952.1176221476412 1003.4733198489776,952.4068599871603 1043.8184465333834,909.7593708539857 1044.5568188001416,908.5218333569132 1017.5862789955936,877.5592565479233 1017.1048078490203,876.9002125093025 1050.1046596533633,845.9416732659806 1050.6152579111294,845.6196958752475 1047.8432307466646,828.5430551580862 1047.794588471159,828.3550341411969 1065.9696145334528,823.6575828376003 1067.3243164712112,823.1484406231098 1064.4477229778204,787.3081224985431 1069.3294268001118,787.2125309858015 1069.174761840004,781.6556446005484 1068.161429644424,777.2082476456776 1052.624154764555,776.2362051676969 1052.4724025155665,775.2981086323048 1065.7989296623055,750.1971810587925 1065.6783434223398,749.3675377534014 1053.4848608978573,754.8975405418091 1053.3657310134513,755.1696141650677 1031.685548400019,741.1763734643823 1030.1624917600784,740.9529819274098 1047.9163397956654,720.7377898808113 1048.9908389245174,718.9281438563844 1025.6827420711998,729.8286901684255 1025.3841891822885,729.6678399912557 1029.9207367377603,680.4595919516646 1029.7491780533237,678.4780012286278 1018.2235801866991,675.4622308080793 1015.9219558667173,669.9034158459758 1015.7384550667848,669.9633041328993 1004.1144075644916,672.7655214228212 1012.5668039378725,690.1929922834165 1013.2734276534538,692.0694601357459 1008.3191973245484,699.4822231130452 1007.983361733357,699.7512371848347 976.5045276711244,696.4457374865665 976.5316158844871,694.3324617614048 970.7711471201401,709.0740249989681 969.3838228179156,710.4185865975228 955.4665978578632,703.0616026937273 954.1710239556633,700.5922391885902 941.1733418934527,705.896018900537 939.4443565777983,703.0651775755464 942.123176986679,714.222547711433 941.1407195288702,715.0009373824937 917.8399044533508,712.1603826619462 915.754985840038,711.7372231104887 914.3414471378564,720.0023157853643 915.479734640081,721.6899704931197 894.0220831556726,738.264223600017 893.3708009511247,738.4853839246566 886.1464035822792,729.3340754984888 885.7697900356507,727.9145654352974 889.405436044537,718.8736308316943 889.2528099822594,717.8378807966724 879.2156074933955,721.8039101777608" stroke="#009edd" stroke-width="5.183061567603614px" fill="none" stroke-linejoin="round" vector-effect="non-scaling-stroke"></polygon><polygon points="1075.4615575022544,1543.2114786969973 1155.000124897786,1601.0177054181472 1155.079059368909,1601.1004834477567 1154.980901004492,1615.9310460625925 1154.8961411112468,1627.8975712701572 1162.0931589955944,1630.2048274973417 1162.3853039199967,1630.2746900387351 1155.8788898400744,1650.0969593018303 1155.878307297804,1650.453804354161 1161.292163440121,1654.3732776959437 1163.2864967378337,1653.945249141288 1161.5848909066772,1667.9296072035572 1161.206821004489,1674.968835308427 1167.6109989244505,1675.8163571153195 1170.6416748356787,1676.2172048786083 1182.6601034222185,1653.817552311964 1182.6592296089293,1653.7165516315504 1239.9892485956443,1649.1692484557639 1240.6265497867498,1648.835538564926 1234.4323783379295,1630.4927322232757 1234.3010150666596,1629.4011841887618 1242.0622250933448,1576.2518842172353 1242.3237865512274,1575.4743050394823 1256.9368581956733,1576.0734017747232 1258.1170887378757,1547.87225293459 1286.4647583556143,1547.3118078292823 1286.4991283467753,1543.341465329962 1279.5639631912127,1538.1980317062475 1279.4672611822389,1538.147727496434 1281.1470216801172,1497.1103627055195 1281.4907215911444,1488.9001927380227 1263.4709430312287,1484.459921465233 1263.3494829778574,1484.4576950733676 1256.514515084542,1523.513612450311 1256.408201128921,1523.5670363923196 1215.8961760977763,1528.4058563050125 1210.35969481778,1529.545984183998 1182.9260339466637,1518.661774186337 1182.9516658045832,1517.7170379023078 1161.8004315289218,1527.8462521413235 1161.6370284355726,1533.9176811572756 1134.0452073511915,1530.1202751839078 1126.189916755633,1529.1862724709567 1096.7062898045187,1549.7307481616513 1093.7495967555806,1550.433188509523 1075.4615575022544,1543.2114786969973" stroke="#009edd" stroke-width="5.736813649086895px" fill="none" stroke-linejoin="round" vector-effect="non-scaling-stroke"></polygon><polygon points="8.052550000000338,1538.981974589849 53.675217946736666,1579.0563986073025 61.12302025777899,1585.6533874908705 160.018883155637,1646.652618489788 162.22438800903183,1647.4797813271648 157.36394697786454,1667.7676604953372 156.21575625785772,1669.9187835914558 140.16875693339534,1671.8563336095317 138.5836595467772,1675.00220237024 129.29560635562666,1727.183895932721 130.5332173068091,1728.653473879654 173.3687119912138,1699.856148314058 174.5984586223276,1699.4726924138154 215.79963110233803,1709.413860612643 217.09345737784315,1708.3169199549952 205.07124226677843,1753.548968760973 202.6268951023012,1757.633830165119 209.80818434674438,1771.797507453222 210.27043160002358,1777.7510593828988 226.07392827558942,1783.9588048822256 235.08148738681484,1786.801591691073 229.5144226400662,1796.9491483869274 221.47038836449065,1808.4118894665512 235.74878950228594,1810.85687118749 235.79306271122914,1810.8768791095713 248.10072351116833,1794.1620739570712 250.00418022226222,1790.2473044051217 268.29629727113206,1797.572544714821 269.0396211467232,1797.653915147042 334.73698534232244,1777.4211012643423 336.828603191163,1775.5582961159303 356.4617324356004,1802.9936174912505 358.86122384886403,1807.5399772727174 366.46398239114933,1803.3053073453261 368.8614349066993,1801.9598355827397 373.8162477777587,1827.385909465585 373.24826911112905,1829.9422713106974 397.9364084889894,1846.502333658725 397.87873680899065,1847.0188987246725 416.21075800000835,1851.0780267525474 418.78355572451983,1849.9217763271658 423.88371288005874,1833.9185777909947 424.79306128898315,1832.4554796038205 433.9092645245619,1830.8167625629935 435.13871988442406,1831.5934430449047 461.4087526667645,1868.0845666846503 462.9443339644713,1868.665089898313 460.70416784889676,1881.276202375629 460.42454758226086,1882.5482970432272 475.0885916711777,1896.635522428645 475.94288984008745,1898.2141957417257 482.07793325334933,1929.0556184156808 482.60746413339075,1931.2979621269983 516.6089972889531,1873.7514926065119 517.8233065511813,1872.155309101428 566.2640224977877,1846.6374764432908 566.8756918312065,1846.1338024216016 587.2655434222906,1846.3627453011354 589.3781327911202,1846.1418043126828 587.4979777689805,1856.260852702871 590.1977696978502,1857.8798218707448 634.3401978577967,1865.5713191867467 638.3754678311307,1865.7322318924485 631.2029167200453,1877.3843117113934 630.2804611112006,1880.0023224582324 648.5606360445745,1883.267458432681 651.947827795615,1884.1759630467054 652.4476490223096,1907.3437907228722 651.6609257511809,1909.2330391194914 692.7487937690239,1919.39186097656 693.7131924178466,1919.7873785198676 692.2999449868003,1923.687854623749 690.9991282045157,1926.0217969174041 729.0947680978352,1951.4455950219776 746.8451208801489,1966.1700106481217 742.5646006312236,1973.7644379901826 740.0931652535,1977.9527465444185 754.1784536444829,1988.5713324646708 754.3039914933979,1988.6153145009662 652.5108548534117,2083.7590682724035 652.0538504801007,2083.7803837164315 674.7922210400939,2104.2782286325014 688.6913871911602,2109.728636603489 653.3150543911397,2166.728523938778 649.1175464089974,2175.742722670118 687.060268968904,2204.327647464968 687.2061957956539,2204.4678976114733 604.9952159556342,2286.498107630388 582.601710391209,2328.809043752531 691.0710721689757,2373.0885404718933 705.090824560124,2379.0489832888484 691.7028392089778,2419.677276104317 689.8483160445248,2425.3056981966724 616.2196394933635,2401.0661946640826 613.2582861067276,2400.1380827589087 608.5621219823151,2423.039093876701 607.7261738934103,2429.26909625691 618.4595143379192,2463.457607644122 619.0761352800546,2467.1667535967204 612.0655309067588,2497.253446196533 611.9207691644333,2497.209565174569 616.796356293351,2575.105515710987 616.8007253600299,2575.2278076315774 636.3435605600025,2576.6598587200056 637.3670872445,2576.784365199484 703.8805930934395,2619.6157571801227 706.8728212178466,2621.50513453954 729.9205216978226,2585.4828083161624 799.0548850045088,2554.6556730383086 800.7238684711992,2553.9998430571063 837.8871495378917,2552.8889158125744 838.741447706685,2552.720969007037 971.3132026578314,2635.4612200286715 973.1624829423163,2636.221348489787 978.4595393689597,2601.9695677513732 978.8877079022132,2600.441984531098 987.0747562934193,2590.788460469666 988.6950974844876,2589.9612744640103 1005.3674558844432,2587.911239911314 1008.4225985689336,2588.594439184038 1027.7126104444978,2602.03247843535 1033.6685221245061,2606.9624939327837 1105.2119887912195,2581.54834702341 1106.1359007556239,2581.2988962766026 1117.1864354400677,2601.2385620144555 1118.3765692000525,2602.3111459685965 1073.5680040089428,2641.5612216990917 1073.556644435601,2641.9780408942383 1088.321759600054,2663.907559986204 1088.964012400109,2664.5028291292033 1116.7716653778698,2679.0660510755038 1116.239221786709,2684.684784155084 1188.7645633689608,2671.6671929805084 1193.5189817156424,2670.6937105551256 1189.1394292888945,2646.18384000389 1188.0521142311409,2639.886406802783 1230.2479775555912,2624.9285655180934 1232.4389188533896,2624.2122541743806 1211.056124044444,2606.1424567277786 1209.7357920978466,2603.842703560927 1196.0297386933598,2537.6530963532637 1195.7664296090152,2537.1563114907835 1177.5448001689292,2533.079176844541 1176.7135124178385,2531.816136207642 1188.5493140178514,2521.3242001583926 1188.8126231023125,2520.8934147659234 1184.21956895115,2485.2177526940136 1184.312484435599,2484.7820211008434 1194.4583310490489,2479.6848286292293 1194.8431001866484,2479.360349059199 1191.257844080079,2460.0019771215516 1190.976184915613,2459.3467533455473 1182.4474755112096,2463.687685554592 1181.4647267822656,2463.5422798894356 1183.8650920089349,2451.2813129146593 1183.6044043645743,2450.542716148753 1175.48609595569,2450.1689834728963 1174.717431493431,2448.936946849782 1181.1524841511637,2446.6439838597794 1181.6761896089665,2445.5094638060323 1170.05068575123,2434.7438692605133 1170.0649580355748,2434.5345995712337 1179.7500137511888,2428.561906033348 1179.7966171289809,2428.3920913673714 1170.4907963999794,2413.844742545079 1168.983759671195,2411.7828781148196 1190.8089952978553,2390.3906772153346 1191.1034703912228,2389.828373493721 1181.7254144267426,2386.7982058962584 1181.4854070311194,2385.988439463697 1190.3563599912231,2385.2846586735463 1190.61296984004,2385.027447744483 1187.1660675111707,2375.7534636533596 1188.9696182311527,2373.6863659379082 1201.9378819111516,2377.78816788653 1202.3581861245693,2377.0209428989106 1196.1637234044974,2360.10140364481 1196.4048958844287,2359.5616423984534 1207.1594991200618,2351.521394607705 1207.854471991166,2351.4965566728856 1215.790153413407,2360.0331019657674 1216.32842242669,2359.729292293872 1222.0064614666408,2345.1969454505956 1222.60007199119,2344.4367042425797 1243.1521615911988,2331.772138652835 1243.5080948889736,2331.3746958924817 1239.9341983556296,2320.395057375986 1239.9834231734058,2320.053487484903 1245.7776793867597,2317.986756598322 1246.9526670488776,2317.244166027965 1239.1509703377742,2301.3217858034545 1239.2479636178832,2300.9309428825286 1256.473154586718,2294.1729333477338 1257.088027902275,2293.680481860974 1263.3142391734073,2276.934260667745 1264.714088133398,2274.7570922529335 1258.466614071258,2260.7955515642893 1258.7232239200748,2259.487471654989 1271.7118765777923,2255.204653870525 1272.814629004548,2254.2759299571985 1289.933214746743,2209.7498486684412 1289.9439917778145,2209.6464388550735 1310.8173534134185,2219.052095898696 1311.1936756889118,2219.0716231054753 1329.9384280445302,2204.720436416777 1332.9458022666877,2201.8151131600384 1321.5332175912117,2154.194062127593 1321.533508862347,2152.2904806420916 1334.5839109956069,2124.2937763752193 1330.748744275632,2113.1910744635165 1355.2056143911104,2104.6059229444722 1370.6115260000588,2112.038414584567 1371.418638248906,2111.9775845241743 1377.564167422337,2091.888096702845 1377.7890287200935,2091.5195303756404 1400.9759567911751,2079.2272693835907 1402.0003572889618,2078.306687811891 1409.8078794223038,2061.8390429971982 1416.055353484444,2062.507880387398 1414.1897620177842,2040.6674729296715 1414.102963226709,2040.1349264380765 1453.183099475551,2007.6787039919068 1454.149245751185,2006.9990392599498 1439.6404491645299,1987.4073602435305 1437.5415495378911,1984.6919935827968 1445.717238355639,1978.1708900682638 1452.127241697839,1973.3463580683815 1461.2737371289186,1982.334679962812 1468.10812248008,1989.1448753009095 1494.3070851111333,1955.344623712917 1512.9321250400753,1943.5269114628677 1525.9638858223116,1962.719042929391 1528.755719422341,1965.6803826133032 1621.3443976801136,2017.3936831926471 1624.3194408089403,2018.5770424321304 1679.203073733348,1998.364449880762 1695.6013460178874,1996.8238085651315 1696.322824560084,2014.1251978440919 1696.3688453956056,2014.2660129007195 1719.9696697157124,1980.948535827432 1723.34987096009,1983.7088200389185 1732.3585951556233,1956.0475523926211 1733.0526942134384,1953.4020051395414 1746.4039794045748,1946.9430755055287 1746.5906841867618,1946.7311220150218 1755.8091235823013,1905.3198637915552 1755.2609513511197,1902.6830422872222 1771.1914422311602,1901.7092814378916 1772.1453551200466,1901.5795055920967 1760.3252821600545,1862.8455646077414 1759.7203120622798,1861.0870527759903 1762.6621502844864,1834.6361192125255 1762.875652008901,1833.88523473146 1755.210270177784,1828.0830211598436 1750.8834378223182,1821.4012395404056 1742.073651795603,1790.6532804377853 1742.0238444356728,1789.9315941596647 1700.4810109422324,1769.0763766115192 1700.060124186777,1769.0056685646773 1722.0560446844684,1723.0628874471654 1725.6095522400938,1715.8583881282025 1716.4167447023574,1710.0512936170921 1701.8837726133424,1674.2481055427702 1721.8204063556404,1654.6771685674098 1723.1646225334625,1652.181513576164 1710.915507226695,1645.17003592247 1709.4646858222332,1645.761824275694 1716.2151850934388,1634.5798708678699 1719.5353844889687,1629.5564842588278 1703.3849839201212,1626.884773842386 1703.2821652177736,1626.836714797922 1688.1034450756633,1661.889448465408 1687.9458674045527,1662.3779706870914 1676.3221111733947,1662.1475022327281 1675.8770489155795,1662.0794294578732 1654.101911920101,1648.8635702151582 1649.5199260711452,1649.8357768344936 1647.3519951911658,1642.6271077638153 1647.3712190844599,1642.3681412579967 1664.1597946578186,1638.8088783815979 1663.466278142274,1637.3333626558665 1623.90933108444,1602.4583057276682 1623.7535010401407,1602.175259884541 1687.7909111734261,1543.2310657287376 1689.2763938400676,1541.3783028892717 1764.2280237778104,1414.3731058179178 1765.4732077778099,1411.6769629341793 1768.7415609155796,1400.40875122659 1768.6629177157083,1399.665742613935 1749.3997027822552,1377.5338073099042 1748.3464664445273,1375.8676524914113 1729.6014228178901,1326.3280992625291 1729.2390815556064,1324.8375698953528 1737.6061354933554,1325.1383501754385 1752.4455247911174,1323.8630389699024 1749.5045603823164,1299.0723223511372 1749.0405655023424,1295.394764878241 1767.8601745334236,1289.6657283144664 1775.2867140534581,1287.2176395252823 1785.2158549600063,1314.8291506308374 1785.3011973956382,1315.5029284681436 1827.5512371466975,1317.5741585579594 1830.3928781067734,1317.2091992462297 1862.0989036356114,1297.6087937389743 1862.7443604178043,1297.356106786326 1859.1576479555588,1289.1750431164178 1858.5250071022674,1287.7965728615886 1875.8597160089776,1261.1208301784131 1877.2482053956264,1257.1261661802196 1900.4759114222616,1252.0496024394884 1900.6882480622517,1249.1852081896282 1894.4996107645347,1210.5791174639958 1893.7865790844444,1208.1595755239027 1858.3278165600277,1154.6295006840733 1853.6153412534404,1153.3763919832195 1874.3989913867335,1157.518312742795 1874.6486107290038,1158.1212215054325 1863.3965164356414,1141.3591190987859 1863.6738065334284,1140.8779150637924 1885.1308754756828,1141.2922233273052 1885.6778826223235,1141.079494639161 1883.2116901245681,1135.4102217409304 1882.5135132712094,1133.0545228208425 1900.008130017879,1126.1157237527436 1900.1677465868197,1125.7415272613066 1883.4324736267808,1104.0303527820865 1882.397004826671,1102.157392239525 1874.8012367911651,1071.7841266807295 1875.423100613385,1070.5234089372457 1864.458490906727,1074.9555181513783 1864.1220727733817,1075.557314530924 1826.7662615022637,1050.9193458620935 1825.2286413067268,1049.5402769841962 1807.5368340178175,1018.3949353931016 1806.8969113867279,1017.7711179751564 1802.2269616622725,996.2862677511071 1802.092394408981,995.3196545908936 1806.9490489156233,989.0597722222806 1808.4680277601365,988.5487808859684 1792.0648038667641,993.661764801865 1791.5046895200867,993.5783121461641 1781.2793258933598,973.8232417689646 1781.1852453244865,973.5411730379342 1785.4823680267218,953.8075156330374 1786.044812542248,953.5441680557337 1779.2171264267308,940.2857727779551 1778.5521544801086,939.713960582601 1783.795617022297,930.0076572950707 1783.5940574133783,929.3193077321407 1777.2440559200259,925.8342260469576 1777.1129839200075,923.6070839917297 1826.1347857333967,900.3816812505606 1826.5612066400718,900.1486290821699 1840.0601662845365,872.8347244680403 1840.9537860534401,871.3205844763793 1836.3648096978213,862.2953618350798 1836.4676284000525,862.0752189407135 1842.9772464623456,865.6550812503333 1844.1991287733908,865.3018755201842 1850.049600311184,852.2279530267474 1850.0595035289662,851.8948208750003 1814.8780311023365,835.7118507281189 1813.5469221245512,835.1562908137344 1756.6835194579107,874.0086111504711 1754.3469426044976,874.1747140477887 1737.6713802222876,850.6989348155107 1735.7213201334016,849.6312058136459 1701.3070558134714,849.2703827970904 1698.7534819823704,848.7519219571036 1680.3932074934492,833.8383934801454 1679.8228986578542,833.7781031727568 1667.4007683112068,849.574938896963 1666.1783034577747,850.1782445313652 1643.3411919912105,846.4217357687662 1643.2223533778233,846.1341449625102 1640.9504387111883,854.667929721159 1638.3578345511123,854.8854007092664 1618.7911151200315,842.046206452454 1617.5205905333642,842.0502256558752 1618.6446057511275,850.5819359052471 1618.9230609334554,852.4052362853904 1610.4805677778568,855.8655804229561 1608.3534148534309,857.5155769647458 1552.2481908888803,826.0259718883094 1552.1887715823032,825.9696989383442 1527.7581158666653,835.8918268306074 1527.5154870311744,836.0945788889435 1512.602697413393,821.6558432399538 1512.1928789600279,821.4343198454949 1494.8462279378218,827.9343309517494 1494.0344553511604,827.9151268591881 1459.7844679377522,799.8485649779682 1459.2537719734028,799.1088885360873 1458.1166495556026,777.1130984566184 1456.8860291111996,776.3023184870613 1415.9624380001114,760.2786386641451 1414.7335651822868,759.56652746196 1383.3502680444872,771.0265918585133 1378.743815422269,770.7228205140923 1370.1583081511562,749.272823294486 1368.260968133436,748.5709521429158 1361.56522783111,767.9044278607248 1364.3337597423015,778.4608181121071 1354.7917181422017,788.8550018137098 1354.593945057808,789.287393510203 1365.041257271172,802.0845524422834 1364.997275333364,804.4629999958338 1352.1088199378937,805.6778966238267 1352.0252251289567,806.0932825356499 1370.409092577851,822.3632874263926 1370.4717158666826,822.7295139530684 1354.2152926133494,815.0935647938527 1351.3287959022928,813.4320843749224 1373.9993002933697,835.3376071456946 1376.7812306756168,839.7253275298058 1359.8819720800748,865.8859372809306 1359.5132228533985,866.3315735762367 1328.2088601867217,866.4490106461813 1326.587936453383,867.7434934376283 1309.558770942247,858.9297860811707 1306.7450920089395,858.3894672826641 1300.031001626725,841.0458691048912 1298.7526127201054,839.5739358861242 1313.8113291645204,802.2310566211595 1314.9767048801077,801.4614619337731 1283.763510071185,775.2293147290834 1281.6249975734172,771.761895465293 1291.1294652001015,739.6095004417944 1291.1224746934386,736.8903438778138 1278.744908826753,699.1743311887035 1278.6476242756253,698.9164881282263 1263.5498775022352,700.9595621158146 1262.4354742312353,700.2092753378452 1268.695181680123,694.4942315233416 1268.9605296622976,692.4470755712605 1256.6097607378397,679.5336004926135 1256.5896630312564,679.5054452858526 1206.4959835288828,703.303800806963 1204.4168903378086,703.3466993379184 1200.6227928445223,720.004549914483 1198.6141872623484,721.5009645331661 1180.4350834045108,716.6890772776455 1179.3835946933614,716.942431194569 1132.5801136622686,740.596001780686 1130.574420791214,744.2251984956451 1046.0967691645274,752.494432309562 1044.7263385867482,752.2187812959087 1030.1624917600784,740.9529819274098 1030.168899724471,740.3154212339791 1047.9163397956654,720.7377898808113 1048.9908389245174,718.9281438563844 1023.7536535023028,726.4588543880741 1023.5619971111664,725.5960573227853 1029.9207367377603,680.4595919516646 1029.7491780533237,678.4780012286278 955.3457203467624,643.2161988628573 953.4349818578703,641.8886589484532 980.186485786784,615.7993096406349 980.4728052889477,615.5069469251098 978.1280728445636,586.628179107654 979.484813680152,584.4575135379341 995.9221162933172,575.2045597903557 997.0577823556741,574.4189685503729 985.0798404534362,549.7825303531495 984.5459405067159,548.9172514520828 942.4156131823329,541.8692379654162 940.9079939111616,542.0588454974127 937.488179795655,533.1627669788209 937.2507938401322,532.6122563547465 952.181059724513,514.1091997453836 953.1084669423071,512.3403417520235 950.1115784800859,471.99354608669046 949.9484666578719,470.54285049482814 979.0717912444161,444.68459764953104 979.8060857156306,443.6784254834997 958.1302721688771,435.6919663224612 957.7009385510828,435.26961678339967 957.3359758489314,415.33952285521764 957.0668413423482,413.8378917614241 946.1500000979067,413.05888303239 945.6950346223093,413.18148424462515 940.0006844000673,397.0932942882423 939.8384463911425,396.49232473617985 922.9097694133889,394.8442367371531 920.1558010577937,394.6169132848513 926.4711412889665,384.1186095571388 926.8221229777919,382.9752218205026 893.4640077067088,377.1879328542632 892.8578725245097,376.93776745370224 895.589121733421,363.75870528628684 895.4108638134567,363.16301520934894 868.2343953334275,330.46471723597597 867.899724826777,329.8716226333995 881.5076198667302,291.4567214868507 881.5172318133773,290.5116301979647 842.866720453465,268.83206304410805 842.6779767733315,268.69191927833117 834.3190784267863,246.77645369733318 834.3147093601074,246.27358667783074 813.5263988890001,233.11803326543986 812.93919632896,233.05981713868778 779.047763653427,175.5965606629975 778.7160058578957,174.11971872687673 758.5510155644515,205.25044886008936 757.5793351378306,206.30473962260976 723.9908244178878,209.23200469554968 723.6581928089508,209.11735122834898 715.4006568089608,193.1853118221402 713.9437187112417,192.78489090965695 722.6367050222834,161.37555337980257 722.6602979823729,160.9840337469136 714.74646189341,146.03453954958923 713.898862960028,144.00601400624828 739.824030746684,127.89541535507988 739.8886929334622,127.30580595913443 727.2245162933614,97.4325810777732 726.3029344978058,96.83437610403735 729.856150782296,77.35844136842161 728.9980660889778,75.08056460900798 712.5418308534208,81.103464981868 711.1714002756416,81.41625693246124 698.3470245245626,29.370150000358535 695.7535465511974,25.57941998085107 619.3111910667285,30.80807327174216 618.4624270489221,30.848862104910495 571.8709913866842,9.11764985495347 571.8517674933901,9.055339862628443 551.4601682756111,10.52432684574842 551.2055973245078,10.592463934480747 553.0292457511896,35.89137927213551 552.9503112800667,37.3960439610305 502.76488137778506,60.155697171670454 501.0830819823095,59.85990538399301 528.6271346044741,94.3416137910458 529.902902071226,96.30741666493805 519.5502529688893,117.24770400240186 519.2994685423109,118.28449521525863 489.17417133341223,131.67541914652202 487.42071924449556,131.99889161819692 470.233393520095,111.92522296353809 469.9109564000755,111.76840070563003 452.57857766221423,132.4361611272102 450.68269400005374,134.0718818686796 442.7767222311595,132.94197692207626 441.70542708456196,133.90880316319044 438.17347359119594,108.66688150043001 437.60316475560103,105.64686838570151 424.6115993867643,82.93898272919569 423.8778874578202,81.59774775975484 440.3431520978702,69.63382034828055 441.3646398845376,67.32090741405364 434.80608827560354,61.04710364933226 434.69511398228497,60.740108865640195 441.4392052889816,40.284774047416704 440.9906477778932,39.277196480870316 399.8995757779121,45.016920358036714 398.86585460449714,46.66091170561367 394.7228143199827,33.76008947889886 395.01408543121215,33.199810073921526 383.10430096890923,32.65566534733034 380.8784071377959,31.784313816438498 373.1789465866532,46.35479320245895 372.89466598220315,48.728432968469406 333.4274304267965,57.77142475671235 332.94654182226077,57.149806622509914 329.922273875658,86.00591223143374 330.9440529334606,88.29308601233743 313.2522456444349,103.53641913991987 311.1597539823051,105.12261855541828 304.4648874933846,99.59641152909126 303.55117001778126,99.00627806582588 295.0099359556116,116.0191404038701 294.8048810934197,116.65358548364702 266.3977921689875,136.35362699148345 265.8303960445119,138.6425165536125 323.508484008933,125.7874200687288 324.01267430230655,125.20900592246426 334.2770682578921,135.40294007232978 335.6102161333911,136.33212233763288 364.48596027561143,128.8362781343526 365.0585992800552,127.98098923164753 386.8919904979193,142.8389761351059 387.54822431118373,143.57907150433266 395.3767179645147,170.39061505508243 395.6426484889598,170.92501181559737 357.3780713511878,186.7395213977211 356.95077663110715,187.04051728032164 373.7795476178653,208.141002872238 375.29357485342916,210.35614294306242 359.72163871114753,202.83416016345245 359.3208496622756,202.57842165817374 354.2486545333886,219.13631568160008 353.5772746222574,220.25144640214376 335.5440975911697,210.17968496922504 334.9443703734796,210.2047652989636 271.0616252000691,227.93494627063728 269.67109691559017,228.69266801907315 263.00623135115165,210.67278164227127 262.28679170678515,209.68166068485107 249.67387878229056,203.4625321441922 246.14920706672274,202.15293662003342 195.42754704898834,223.88968896153483 194.23246168005426,224.46381282262837 179.78861855119612,236.06957067547 179.16762854226545,236.30601437841642 176.7253202756183,267.8595619709008 176.4130776445163,269.68546053229466 156.5877094666721,286.3090362434518 156.06109129786637,286.79524649462064 166.64326203565724,298.31712968685997 167.0038556711297,298.93582733741596 161.9823417155785,308.0625345237563 162.1119573600372,308.952935606801 170.99223099553637,323.3403142500679 172.7252941067345,325.6885816646168 115.92480600006093,338.74549357160095 114.41835181343049,338.23880854281697 101.18328379558079,382.80382502495877 100.25179878224299,384.17410063060333 80.3338063912015,377.48285019686546 79.79378975122381,377.49403825213767 82.19444624902826,397.6056609261791 82.09104500452668,397.90860552932236 104.43590829344612,435.4194972740729 104.59057325343747,435.75370803030773 97.264813537804,448.40502352556314 95.82972077336308,451.0315633349014 106.20538029340241,454.291542790575 106.85200216013618,454.2736481539682 87.2625635822551,484.43343820828113 84.80452667558711,487.9630902869171 76.02794555560831,487.17360896603304 75.54530932449416,487.05686389553694 89.67836617792636,499.6032496347102 91.58648322671797,500.347064572597 49.716843546812015,549.9748140910883 49.01691906675842,551.2121335650804 55.990823280044424,568.2383199058017 56.95696955567837,570.3648796864795 76.46135696894635,580.7595085071875 77.50469008889195,581.4163102172092 101.32222011566773,573.4603377613016 101.61640393790003,573.5162281972366 121.06778000886698,605.5333010899262 120.55689048008207,607.3698091514302 154.44628425790143,618.0934940989605 154.77658569775667,618.2110637024521 154.5418211823344,633.7001977931718 154.49725670225598,633.866482147459 194.49693584893976,636.5918290435579 195.88950303113234,635.985702654732 211.62047320008423,652.7921282875245 211.97524141343456,652.909679349897 132.5639594933964,657.5414987859326 131.84044205336977,657.5835123343636 115.07749833781418,680.4207111145147 115.16109314675123,681.5598721038909 211.58872464890737,726.5692171038604 211.7605746044792,726.6728775799052 224.91117400010262,706.763361732686 225.70634413333755,706.1136369235824 253.7510917956024,700.3183106211723 254.3991700177794,699.4375363582872 262.64767661339283,708.6365603480731 268.77951604451664,712.9124160550778 260.5146982667284,719.9147379042474 258.65551476446126,721.2552118602102 270.9226888800986,741.6548773734607 272.96362555560336,743.0841279531373 263.7641187822228,746.2379181365609 262.1664967378383,748.4588133874126 246.42212809783086,786.1525344668548 246.45038139561802,786.4062551264428 230.88339686228574,788.5324942308721 230.4461989244228,789.1797423511521 224.15124767120142,801.4712884644755 224.02337965332117,801.987627367816 234.76807967117202,808.1898527996159 233.63620013334003,809.6615492272317 219.79849218679738,807.0031089394829 219.1742981956122,807.1491631960739 210.39684326222778,826.2251601508829 210.01411302234192,826.600312443195 174.34650911120843,831.2065945460704 172.32100980447285,832.966192092375 161.27571799999714,869.6639935544003 160.14558608897642,873.280793214311 161.21571615114954,888.2983601683295 168.80536749339808,912.2098710122295 221.44912557336647,930.4049527561069 226.4607363111354,930.9674147675173 225.58022374226857,936.0500420552339 225.4660454666955,939.9005473950888 255.5054176978083,959.9568152144561 255.71979323562846,960.2647889759751 256.6605989244781,988.9044666838377 256.329132400082,989.7247286053966 209.85915679121536,1012.2160307431836 206.99945702226978,1013.2892190074558 191.56733101348073,1003.3108207351538 188.17606146678008,1001.5476749766162 159.38362086224515,1003.1671277846685 157.1050069600824,1004.9842565790527 121.84867785775714,1099.560021468416 122.28150672894117,1100.3071645746018 107.72202896895033,1108.4314574689847 107.52105190230213,1108.5911391526238 100.96483046233334,1130.0538914415297 100.82414651566796,1130.5195093336292 108.81080038226355,1149.625050320617 109.12682953789044,1149.9929629011672 99.51255270231195,1185.641002088763 97.59948404445458,1185.4532856247165 100.76909627553687,1197.2042063929616 100.7402604355957,1197.2742062066459 130.20175078229659,1191.9180415820806 132.0693811466699,1191.7343432921693 146.06233659559075,1203.2704771678905 146.644587546798,1204.0703243143867 172.47829620444827,1203.573206724635 175.5450897334158,1204.5353400223898 214.89494303122774,1239.2103534450648 215.80167000005167,1240.1179470416168 209.15165926222835,1263.001800658741 209.64623760895483,1263.592832145608 195.1616165244268,1265.2986132302099 194.6137355644969,1267.1532507486768 196.93283615107794,1308.4651461022218 196.75719967121404,1309.097053931771 214.00074072005373,1314.1014504292175 219.74548084449634,1315.1624748446989 202.62543874674157,1344.2493108203412 202.71107245339226,1345.0758258478959 176.68308596450515,1333.3238722944293 174.45981357337587,1333.135390363262 168.42817140449915,1356.9242800338902 168.28137076446,1357.4437742693476 96.36886360005155,1356.5589403017434 95.73797037333861,1356.7607683017627 94.7129873333979,1372.0563873927235 94.7348326667925,1372.848939936353 72.16132155559171,1402.0136947416245 72.30113168896787,1403.8613921043939 89.11475657785923,1412.11615184605 89.50360351111885,1412.9517664685623 82.2780410578489,1432.6470348573998 82.58445826671232,1432.9641472983417 100.5092824444655,1423.0871278201007 101.23687768003583,1424.034941801197 109.98520550234389,1439.1254802925755 110.54735874673497,1440.2264318947923 109.1626558844946,1458.1375013232241 109.55062900446501,1459.975376779133 132.80542324446287,1489.9412301714542 131.97646566233743,1491.7098248500038 113.45948731559474,1495.0234527491043 112.94248109331966,1495.2469716784321 110.87212603560329,1509.411465428398 111.71972496886883,1510.7987915896588 97.46083899561927,1528.5273930598992 97.17218932449032,1529.11103566466 86.0179621245261,1522.3507481067568 84.95103604449105,1522.1659892337407 57.55174516453553,1534.7612929567472 54.48262146671914,1533.8624790062672 37.5315166134169,1510.9920192525965 29.76244226666313,1510.734233922652 13.537185022236372,1515.8012855086486 10.330872631144302,1516.9998013871732 19.414453502256947,1527.716256380641 19.52222381343745,1529.3803744087704 8.052550000000338,1538.981974589849" stroke="#009edd" stroke-width="6.325738683115537px" fill="none" stroke-linejoin="round" vector-effect="non-scaling-stroke"></polygon><polygon points="663.1090455023586,1169.9618904746962 689.7023892178913,1124.675576681016 690.4993069778211,1124.323678056105 684.4105756712161,1109.8293373310948 687.0928913333701,1102.8893608529247 696.0244286844754,1103.2056097941017 697.2739817511538,1102.037850516535 677.9158124355381,1090.1016397974813 676.8459736445002,1089.722475305352 701.8309182844605,1082.4660333489078 702.3278268000358,1082.040908265662 715.4833778044922,1044.5807330910825 715.5585257512066,1044.4120816507852 734.7690206133775,1018.9379853122878 739.6687832445386,1016.3423106228943 723.6791643289398,1012.7648969120123 723.4452736266903,1012.3806907373723 741.5451517422698,1006.9365823295443 741.6459315467873,1006.2984526164141 717.8135466933963,970.4071509025302 716.5322450756576,969.3163472056399 718.7153220533874,953.3062622619104 718.7325070489678,951.8007098811572 731.8504840800088,942.8399383992432 731.9795171823134,942.7814634253514 729.392738444476,922.2223072206612 729.3962336978657,921.974546435034 740.0686984801214,904.0194061139841 739.4704276178745,903.5747389937528 763.216013680074,877.0511319822758 764.2575991734411,875.3003704343932 792.9545028534267,901.3121016258151 795.618177164557,903.6278669398521 811.7365379112089,894.2900987114767 810.9390376088922,893.3391108560386 830.0973949422842,898.8989830753776 831.5665664267508,898.9364859526172 838.1160886311918,919.9495937822862 838.8273726844709,920.7736839033091 854.6396074933946,929.4889401198957 859.0631418578341,924.0057302358105 895.3721247556168,959.471197741666 897.0769345689114,961.1016720223483 879.5263937689379,987.8909614726795 878.3834459290156,990.546772580979 903.3375158312047,1021.553262847337 902.3032121156357,1023.3894270388187 924.9239091467825,1036.923916809937 927.6257399733659,1035.9463273205688 922.7242297156263,1050.2764358223426 922.3726654845304,1050.995638323809 966.3385833512075,1058.4516489990997 967.2453103200314,1060.7358717624807 972.3574095911827,1050.6338065895611 972.2193470845014,1049.5902466316252 954.6880301778219,1018.0218945743759 954.5185103912154,1017.5185562005859 964.8283426400521,1012.3275890182481 966.0173113156125,1011.2111112541529 965.4539929866805,1000.0870780909095 966.0420693600099,999.3257609952484 983.1632765423055,996.0452842576556 984.9857598845629,997.2207456932879 989.3542440088713,1018.8134900094951 990.4153446666678,1018.4016287034387 996.0357120267363,1010.8710797318267 997.1154540355565,1010.0973052563272 993.8776843644227,997.8700582616507 994.3309022133253,996.7414580748659 1013.1764343733448,980.6066181654819 1016.8470329156626,979.8791524423063 1024.7547523112517,982.310574485316 1025.739831208928,983.8725972473399 1026.3625688445536,1007.9687420713376 1026.7761738222107,1008.7483251469453 1053.118733111165,1005.9093264573962 1054.0301204178031,1005.3715993838628 1042.51733848008,995.7717230465273 1042.16111391117,993.0436788744187 1045.4798569512568,982.5006955621425 1047.7010904444396,981.2649056295409 1042.5875348178452,976.0717450978477 1042.2286888089511,975.256788028149 1052.1310327733881,972.3861156683774 1053.130675226661,971.8639277749821 1050.5913736800212,964.9191573905769 1050.091552453443,961.1525544090905 1029.0885751733804,951.1463515612772 1028.1643719378408,950.6651782411859 1055.4203574311468,952.766621337832 1055.8316322400715,952.4970235570577 1051.132846675675,940.6451075508735 1051.109253715702,939.0827781841867 1060.4593476534137,924.9610497654426 1061.0488803823027,924.381608788251 1087.6457193512251,928.8818341289657 1091.1252440445605,927.978760871199 1098.617319564546,915.6014182455615 1099.1864633156001,913.8723919390245 1091.9792509422186,902.7059389971323 1092.5416954578614,901.4196979703624 1106.403870177899,900.5098151920606 1106.8428157423405,900.015583863867 1102.0205312267426,875.6365927450602 1102.2430623556502,874.2028443647791 1147.804563368998,862.3851157714157 1149.2277140178267,861.8037239524779 1161.5653757423643,827.7619406651716 1161.854899226666,826.8137916764604 1177.2276059289943,845.0753252629434 1178.935619724427,845.8988025171343 1220.3505852001035,839.1782628389551 1221.0671121334672,837.4785576653444 1228.8644397778917,859.8134947127905 1228.681230248978,861.2098274985105 1244.8511459822548,864.1632185504782 1245.5863142667586,864.1788472153489 1248.9245724711582,863.4014314233568 1251.3878522577943,863.1388687782232 1243.1486663378091,859.9907718635873 1240.8956842934494,859.7232931857939 1251.7091242933893,823.4624117945564 1251.6861138755703,823.191315802374 1284.0664320266587,851.7769294833192 1284.5551849511467,852.2078579380536 1305.360097875564,857.057419489814 1306.6775171111585,857.2744415704869 1262.4284837245723,879.7390886989083 1262.6463545156657,880.5539528166187 1234.4396601156113,874.0014669369916 1232.1744446845041,873.500478390873 1234.0467353866916,884.3268460012982 1232.7829100356685,886.9843527864791 1216.4466784978067,895.3401988394103 1215.3139251466855,895.7589873745815 1245.762242017874,936.77363508402 1245.8828282578397,937.259748991673 1265.6254754401525,939.8166279870561 1268.3080823733253,939.9206344826157 1287.2404133245363,965.6810397452568 1288.5703572177808,967.1740001620269 1302.288935280034,1013.5591886210382 1302.8939053778086,1016.0955481398628 1290.513135528985,1016.7921048175554 1289.6154379645377,1017.5252495375239 1284.489940222331,1034.2423396520094 1284.4360550667407,1034.389135652083 1351.3209315823406,1068.2267962911642 1353.7836288267063,1069.4058877086277 1361.6103748533424,1088.4743504036228 1362.3673884711243,1090.8309720154862 1375.8643092178754,1092.937323436177 1377.4936798134368,1094.7528198339055 1353.072053502292,1131.2603035882125 1352.4874723822359,1132.9171583052735 1374.5122287201011,1155.070093794005 1377.0416270489586,1158.3094071868468 1400.3820549956072,1164.4440832136675 1401.4667486133767,1164.836050967198 1416.744500933426,1137.9884388957066 1418.6132963823402,1135.3607175356951 1473.537124720031,1097.0161474661213 1473.8167449867833,1096.788209926082 1480.4213174311226,1064.3522119537006 1480.7580268357196,1063.0860981215733 1487.5676541422508,1064.6332721769354 1489.1745968622636,1065.3479665582777 1494.3446590845488,1048.8157158227764 1494.76700219568,1048.4494189100583 1522.0544449689114,1045.9634023329486 1525.7646563823582,1044.0466697538282 1535.844384453354,1077.0535454035048 1536.4703260711176,1078.6728893712639 1513.3827214489938,1097.2726326745828 1513.140675155657,1097.4983394109654 1515.610362906802,1108.3351131569138 1515.4915242934148,1108.7066629802353 1500.8432088445188,1125.1809003394806 1500.622425342306,1125.7495553214462 1510.2559260711787,1155.3978623884973 1510.1504859289635,1155.6025502839834 1493.8990142845796,1156.0993301371705 1493.851537093382,1156.362435710012 1513.1933952267063,1167.9093393868893 1513.2571836000789,1168.1969563220405 1508.3792663023123,1185.5696609336078 1508.1281906044824,1185.8697395117847 1490.7681411111043,1191.52166328478 1490.7413441689932,1191.7726880934565 1508.6932565601091,1210.0187062987602 1509.1528823734043,1210.7708250136125 1506.5098883111277,1260.4647153732144 1505.9235595644932,1260.8939537444162 1515.9403730756385,1272.3934868620486 1515.953771546694,1273.674444237818 1439.8577374133529,1310.6736961777565 1438.956253324497,1310.8760118059358 1438.5889604533804,1349.4226646787497 1438.4238097334528,1349.664598763316 1466.7143902133466,1367.1940887128944 1469.4529212000562,1369.0737090944672 1443.0089995645467,1406.9977204923994 1442.360630071118,1407.9540668325276 1455.181801840059,1467.520881865617 1455.9405630845358,1473.7044054525682 1465.21201382226,1487.8475733330483 1466.6689519200954,1492.7259143737388 1487.591538373359,1487.7251236260995 1491.4310741601294,1486.851053380618 1483.2320836534273,1495.8836877060598 1481.9257327200394,1495.9763007934448 1477.9536685778075,1554.491540584982 1477.8412379289293,1555.7824343421157 1473.6163504622891,1564.0662314794968 1467.8780183023555,1568.6068311278718 1453.3319390134202,1569.786810901052 1446.3210433689892,1563.9549520092328 1421.122014462344,1577.4367191163833 1415.269795297856,1573.8608306330639 1408.615706764489,1604.5855883429535 1408.3229792978163,1605.2584818391838 1398.1188784622136,1611.9904191300516 1396.5253342133728,1620.5084042293379 1354.5805465867525,1625.02425819866 1344.0085703377626,1624.9236893387056 1279.8022229600247,1607.5001102546007 1274.376133431193,1607.196154430137 1258.6160361511647,1615.5514494888844 1258.0533003645032,1616.1780282424074 1264.1397015022594,1639.223587298627 1266.8307552978877,1645.0579074241464 1241.519004471229,1644.4420895767175 1240.7710202578237,1645.62255392623 1234.3126659111367,1629.0073712003427 1234.476069004486,1627.0382957196339 1242.0622250933448,1576.2518842172353 1242.3237865512274,1575.4743050394823 1256.9368581956733,1576.0734017747232 1258.1170887378757,1547.87225293459 1286.3371816089857,1548.1050664876016 1286.4801957245,1547.9960047199052 1279.5639631912127,1538.1980317062475 1279.4672611822389,1538.147727496434 1281.1470216801172,1497.1103627055195 1281.4907215911444,1488.9001927380227 1263.094620755619,1484.5347282195357 1262.922479528912,1484.487083444466 1256.514515084542,1523.513612450311 1256.408201128921,1523.5670363923196 1215.8961760977763,1528.4058563050125 1210.35969481778,1529.545984183998 1182.9260339466637,1518.661774186337 1182.9516658045832,1517.7170379023078 1161.8004315289218,1527.8462521413235 1161.6370284355726,1533.9176811572756 1142.5220704978346,1531.170912214649 1134.0452073511915,1530.1202751839078 1151.0665085422588,1474.4859057119825 1152.8039407200195,1466.576371899027 1153.4025028534015,1461.5740977625605 1153.468038853469,1457.478855047702 1137.4498753689477,1445.8362116110288 1136.0960472444785,1445.6166508287783 1140.0759757066626,1442.144176702051 1149.6497658578228,1433.7404473190322 1146.3383045956507,1427.9642286938974 1146.2363597067088,1427.8199215037525 1092.5315009689439,1417.2807874937785 1091.7086600800758,1415.5222860608842 1094.9263320445098,1434.243281617622 1096.0669497155832,1436.366841992632 1043.1255125601092,1454.311625211128 1043.0483257156811,1454.277334088088 1015.2564013778247,1384.0307998784479 1015.3833955822993,1383.8445886851764 993.0857182133259,1379.9675290145456 991.2906143555665,1378.7339655759056 959.5443934134455,1402.2840795799634 958.551450195584,1403.2542550688154 931.7649937334718,1377.413969321969 925.1910047556521,1371.6211282638028 927.2820400623386,1357.7779251463721 927.288156755596,1357.6745611958681 918.7410972711878,1343.484280403623 916.1275215911228,1340.4125473972304 865.5881972888965,1314.859898473696 863.7561019999921,1313.408506486368 853.4439395823065,1261.8754489361086 853.0012074934566,1261.5420441566744 834.8937563289437,1270.0232058145116 834.3211173244999,1270.225113034226 814.5173032089151,1248.493397462858 813.22347693341,1247.8274384366591 791.7384459645036,1252.3839130686024 790.8261848444599,1252.812721426751 799.2576096978519,1276.3312705181665 798.5547725067954,1277.3844541586946 752.339950391186,1274.0229845879144 750.4475619822988,1273.5741607869054 715.2882261600826,1222.2809974452025 714.9963725066991,1221.8842279338637 716.9962399556316,1199.7629749486582 716.614966071189,1199.0901808674457 663.1090455023586,1169.9618904746962" stroke="#009edd" stroke-width="5.685916566099014px" fill="none" stroke-linejoin="round" vector-effect="non-scaling-stroke"></polygon><polygon points="285.52410968006734,1465.4029651534288 306.47116290670965,1482.3866956121997 311.02227401789423,1489.6838655145616 293.12745076450665,1547.1951780891172 292.94540632001736,1547.4613787034536 300.70428617785365,1576.929315017223 301.03196617784124,1578.1088052064074 298.36042754675873,1602.2215441353396 298.922289520131,1603.9171431694772 318.9934905156042,1581.2675824155226 319.50641894221917,1581.0966704473608 319.84079817785096,1589.976796254377 318.75610456008144,1594.7585283582807 333.01207782232814,1607.0039010425457 333.5445214133724,1608.0973399524587 343.00675472894363,1608.1565287987828 348.77363145779964,1605.8076539792596 375.2015331822695,1625.0825525168107 379.5452592622969,1626.0410690979693 375.00201247118093,1633.6774585237504 374.46316091562767,1634.6412774909763 390.22646217791043,1642.614203941695 390.80055753791385,1643.0008733189675 381.88270992899925,1661.234079524736 381.7050345511889,1661.9499576517042 390.4795767733376,1666.4542860993893 392.4558512622971,1667.2764807415438 436.64255263118685,1654.8934069122547 437.7589948000168,1654.2344577151594 445.977209200013,1595.4670561721791 447.0636504444774,1592.3267296677 516.3183087201105,1543.2039109796528 519.6923932711143,1541.7201882164586 511.3463108533542,1484.4296425337448 510.6589110311834,1482.3448390477347 500.184510604573,1505.7494345439259 497.65744244444795,1508.0726606988824 439.2680704267477,1504.2102503526035 437.31393254231807,1504.4943123447952 400.7553303023815,1463.8100610762845 398.83934893340484,1466.351042662725 382.1949525601012,1418.0932211113172 381.0956953867353,1414.921416982986 348.97431725342904,1414.4238836760992 348.38682342225366,1415.0020377622927 351.12477186669275,1447.878160955595 351.69100290674396,1449.3847823460596 339.9958852533964,1468.505911054533 339.3277093245197,1469.1867898717533 298.1058565956555,1452.7952399370038 295.8260776089519,1452.1797760384866 285.52410968006734,1465.4029651534288" stroke="#009edd" stroke-width="4.8333376442049465px" fill="none" stroke-linejoin="round" vector-effect="non-scaling-stroke"></polygon><polygon points="740.5519172533895,2276.252317210346 749.5559811112253,2296.4892152327006 753.7307699468001,2306.0397954232535 886.2582516890034,2345.8800070854263 886.7708888444831,2345.216905073648 913.0601455201177,2365.4306436878173 914.8336953156177,2366.8795751617067 910.3769560444416,2372.3372649331354 905.9624510844951,2377.801472342551 936.2057130933754,2390.870496769297 937.7491587111508,2391.2372343037055 944.564611440037,2413.7112762032552 945.6166826933404,2416.321614936321 961.6365938045565,2429.923078935571 963.0370253067013,2433.598203962181 927.4183549422087,2430.6763759111996 926.8273658578764,2430.6085393845347 924.0148520089933,2481.62327385872 923.958345413419,2481.7837389505944 893.389151031246,2522.715826254723 892.0187204533504,2524.517392907968 933.3646546756863,2540.8402926153863 934.5734297868112,2541.3047189421263 952.1999923467883,2463.782110523643 953.1239043111927,2460.1602413017313 985.6938399555875,2479.6489231264927 988.9391826756546,2481.9189373493205 1020.2278167023105,2445.18981095506 1020.3419949778836,2445.0346395018055 1062.2081394045163,2490.9562089986644 1063.60041531569,2491.490330881184 1072.5039906401435,2456.7644080105597 1072.6528301778962,2456.1889731347687 1048.3628584089238,2405.394523727569 1047.074566284522,2403.3769236419826 1051.3041140889763,2390.1915650986844 1051.7582057511681,2387.89932384363 1079.7260578400237,2376.759287525994 1080.4175354578547,2375.180922537787 1062.529120168976,2351.0982622669903 1061.1016004534686,2349.7831759803007 1053.4522385333912,2303.9330069446946 1053.5104927556604,2302.9361682599188 1030.844066160127,2275.744740494272 1029.9227756355904,2274.6306410141765 1029.1229451645413,2258.9896183140586 1027.3633763822509,2257.6380428994667 1046.5933864089675,2249.775135759533 1046.7521291645025,2249.7640422958425 1036.519775031229,2219.703149794346 1036.4099658222185,2218.4831433451977 1056.1328065689668,2207.91864456304 1057.6826601512512,2207.074492533669 1051.1715857333984,2184.4556106230953 1049.1545332890018,2181.0475535951914 1060.6078959200313,2176.4813495453923 1061.4505432445803,2176.1732927229964 1053.313884755691,2157.4378373222203 1052.079186515628,2156.791483285407 1060.3702186933733,2154.6437631033837 1071.2888075645096,2150.4588007118214 1054.595477644565,2104.8932101058085 1050.8107008266743,2103.979395862297 1055.6991038844935,2093.335268664268 1067.4588837245028,2068.6192550145565 1056.7846713156687,2063.951247674216 1059.51388162675,2043.6291009038464 1042.5205424622181,2035.2389030378322 1038.2898295733394,2033.16106953004 1034.2665017156178,2051.3039209690537 1022.9124625333134,2044.8252000534917 993.5092264089981,2067.638231113007 986.177058728972,2073.3266880489314 945.6318287912072,2087.555405265746 941.3446093067541,2088.921342365072 945.3099742133418,2104.2289412346213 945.318712346816,2104.2955458237334 965.8891520267134,2101.7867591112513 966.3458651288893,2101.767665581115 965.382049022337,2110.0736395764175 965.8862393155941,2111.178355899035 972.8886880978025,2108.004501710158 973.0858786400422,2107.9778603237714 997.2404093423174,2135.3093470399394 997.3298295733766,2135.4318822434066 971.5983570755707,2159.549572885014 965.3575822489584,2165.228119348503 833.0208830844858,2218.6708712215545 823.647778728955,2221.6199087947384 804.0251352445703,2250.418999440189 796.6248101244928,2261.287188824768 740.5519172533895,2276.252317210346" stroke="#009edd" stroke-width="5.033473979513276px" fill="none" stroke-linejoin="round" vector-effect="non-scaling-stroke"></polygon><polygon points="1062.4382435822408,1716.8970212567142 1075.2754352622214,1726.0434540065248 1078.647480915628,1728.5164797385582 1077.8747386578252,1735.8837972795368 1076.9508266934208,1741.995762250946 1096.5382263734718,1767.395831436595 1102.330734960131,1770.9316765175677 1097.881277466753,1779.1389236459286 1112.8194076712025,1789.0071386060804 1119.9503070134451,1777.8528927188377 1120.0883695201264,1777.63721944081 1167.1403048089487,1786.2284126876398 1168.0537310134168,1786.3386908427124 1181.6485188534498,1771.3528078588784 1184.2926780000344,1771.5698213727806 1218.7943236534265,1822.8946434960012 1218.9583092890462,1823.3756961480026 1204.6705874756226,1836.769168486098 1204.3656266222024,1837.3711132207895 1219.3285148711657,1833.0752191256393 1220.4997160089915,1832.8133638296054 1222.9242567379042,1798.8206660264182 1222.879400986807,1789.0929588372014 1228.4010274400716,1789.1454292211924 1234.369172506711,1789.2099055234353 1232.6163029600648,1780.2982127422943 1260.7999869423002,1785.189216240345 1242.262619617839,1770.2961980314353 1242.2043653955698,1751.2932567883176 1225.118693288976,1745.3514446248078 1223.0369786579176,1745.44617686628 1223.3803872978096,1714.5648716023202 1223.5190323467614,1714.2450498073372 1243.5779999556034,1717.048256508227 1244.7250255911858,1717.2337419546452 1252.8657618756188,1701.9437915502126 1254.0206518311534,1700.6688768893723 1247.2244229955613,1681.017088987493 1247.104128026731,1680.9249983936093 1238.566971760105,1686.533556912596 1235.139584595665,1692.9356010428523 1225.93891273786,1689.0408350005523 1221.519456168964,1699.2431523684422 1206.6165697689648,1691.923546799087 1206.3969513511765,1691.8367990766196 1201.2268891290078,1703.8863985838611 1180.9351959023406,1696.1323274079255 1178.5214322044994,1696.2946981632044 1175.7030929333778,1705.8561232778952 1174.8193763822565,1707.2377670155615 1157.574087706722,1707.7880200184659 1157.2775737156408,1708.3600681698076 1141.5550504089115,1702.5696803173992 1139.8138317067423,1700.9255508095735 1145.6934303556118,1694.3084285279979 1145.8536294667065,1694.1291518005087 1119.4504857867505,1670.582135006763 1119.0665904623238,1670.6319641404912 1062.4382435822408,1716.8970212567142" stroke="#009edd" stroke-width="5.414302006117612px" fill="none" stroke-linejoin="round" vector-effect="non-scaling-stroke"></polygon><polygon points="421.80636731556297,1234.224317063788 441.3599795467235,1230.9843359698202 444.15705602672097,1230.8033449777063 465.2089668534245,1249.257866020234 465.7384977334659,1251.0052127685408 490.5285820000354,1256.197692846857 492.9306948533995,1258.847597991909 479.29571160008345,1283.0188788992596 477.52623960001074,1283.3994937619786 488.65803892442636,1297.037907989557 488.7643528800472,1297.1105500522312 481.7147181778928,1302.0122741930895 481.42257325337414,1302.3531937667644 487.2060524356566,1309.4000838423158 487.5605293778717,1309.6683540920271 471.30527120896295,1307.977622180922 471.0320589067196,1308.0163924041913 475.46287504895736,1310.697760160932 480.93993702226,1313.9922729107561 480.4750683289967,1326.714432136017 480.55167263115436,1326.9180698373598 492.15824386673194,1330.4498395320038 492.3367930578315,1330.6249560882347 498.276976097819,1353.785902897223 501.14075366230827,1355.181782285777 494.3917107466623,1377.4674286554578 493.19021741345205,1381.0883773519668 504.6068798844717,1382.2372855350036 504.7032906223103,1382.2461952300287 496.81217368003126,1398.1302726404751 495.27950509344373,1400.622120743246 519.5243298400674,1426.1995768816337 523.859900328891,1428.2434895622787 536.3565960800988,1419.614299032873 536.8814666223261,1419.458851140785 535.5733680622434,1416.586831409229 531.2570214667139,1412.7428631096623 536.2697972890237,1408.2502794596144 536.4652402044521,1408.0239997742824 557.2847166844658,1398.7276238481058 558.5968930400923,1397.8206828246834 553.545378160059,1383.5960098616556 553.4882890223307,1383.0079728197666 572.4447954755524,1381.4242743534046 573.2495775556672,1381.9441563695214 570.3560903378311,1355.359106899566 570.4996869956158,1354.9594580081534 587.6616721333485,1345.466135910748 590.3498132178574,1346.0137272889037 586.4045460178531,1343.0587672876786 585.4608276178842,1342.7335053992933 597.7495557956645,1320.2144139753432 597.8060623911224,1320.0606784507177 630.4622142844382,1327.757126478456 633.0498668355649,1327.0058523332477 637.7483611289426,1307.8238781247996 638.2391529512606,1306.3871458798308 661.9829913867652,1288.3398507223242 662.4877642222928,1287.7676039471185 659.2188285422526,1284.0359302612264 657.0066244534464,1281.080139600766 641.4705146578854,1290.4015312290062 639.8801743911827,1291.7042217057674 595.5929844889106,1276.2510447278396 595.3611326844912,1276.1235748009417 610.6112142489073,1247.9228302814076 609.7231286311071,1242.4212387716175 589.2412353689797,1239.1376923031416 588.9703532357016,1239.07706703744 576.2997686312083,1260.339464974451 576.1325790133342,1260.5913028925202 573.6110450045453,1255.5629589467785 568.9879899290172,1247.8818207083746 534.6509124533986,1250.2826509073852 534.2740076356349,1250.8888719996098 457.6184416977703,1186.7490164404512 456.29257560006954,1184.6007565838295 442.81487874672894,1196.0654801857668 442.5611816089149,1196.1073911214257 464.61797776897583,1231.5152717421074 464.81283814225026,1234.1093047911777 442.8507050934495,1225.6058087227061 441.60406473789044,1225.4622606526605 421.80636731556297,1234.224317063788" stroke="#009edd" stroke-width="5.1542616589481165px" fill="none" stroke-linejoin="round" vector-effect="non-scaling-stroke"></polygon><polygon points="1437.3548447555877,1337.0836744170879 1438.5889604533804,1349.4226646787497 1438.4238097334528,1349.664598763316 1466.7143902133466,1367.1940887128944 1469.4529212000562,1369.0737090944672 1443.0089995645467,1406.9977204923994 1442.360630071118,1407.9540668325276 1455.181801840059,1467.520881865617 1455.9405630845358,1473.7044054525682 1465.21201382226,1487.8475733330483 1466.6689519200954,1492.7259143737388 1487.591538373359,1487.7251236260995 1491.4310741601294,1486.851053380618 1491.4345694134026,1487.0198119911142 1490.2415229422986,1495.7852862581854 1500.7660220000907,1496.4313510712013 1502.2043187467862,1496.9549694077355 1526.0637918134234,1491.7049269487393 1526.446813324561,1491.5633330296619 1533.0872121156208,1474.1813213246419 1534.2091884356705,1473.8304253397287 1558.2987656800324,1485.349585864205 1561.242642800069,1484.580146593718 1565.806861111174,1454.6149010151635 1565.909679813405,1454.3610578595903 1604.942630142301,1422.2898563272097 1605.2851649689037,1421.979855013407 1617.3434976978242,1386.7851925405334 1617.5348628178253,1386.4350484627425 1610.3282329867143,1343.8830589659988 1610.9381546933218,1339.4305105869785 1619.5737605956165,1329.689217151295 1619.8699833156788,1328.3252591413689 1608.3860372177805,1317.202960620321 1603.481322977903,1317.6873448395413 1554.6709839912146,1345.277218797571 1550.1323975377964,1344.4948150684136 1520.773725893443,1321.0655275493405 1520.0595291289283,1321.1194461520422 1522.7782536800732,1308.903203697038 1522.7502916534213,1305.940616147454 1484.3683322578217,1322.1140414832403 1471.449293395599,1322.40101170363 1474.613080204559,1335.1601145464006 1474.6704606134226,1335.69748320405 1437.3548447555877,1337.0836744170879" stroke="#009edd" stroke-width="5.024880464149567px" fill="none" stroke-linejoin="round" vector-effect="non-scaling-stroke"></polygon><polygon points="456.91502196455986,770.8912349729576 464.8620629600264,781.2352988540438 464.6776883466882,782.6893075598414 486.0004813066698,782.3216743150037 486.69283273779,782.4757855313142 508.044170266694,749.3434123762195 508.30048884449207,748.68219730605 518.6176028712434,750.2601748492812 519.9455078667743,750.1475901898007 529.1260820178795,766.9359181386894 529.2312308889595,767.1610702255052 548.9671788356281,736.0436722655791 548.5460008090377,735.4784780570549 582.964925466782,719.6216198445541 583.5288263378679,719.3620134322914 524.607593271161,709.1598198029455 524.0125263911686,708.9471201234041 512.1033244711361,690.530838117214 509.5750912267031,691.3218243499064 497.3690840444542,698.245290390892 496.45391021340765,699.3204570178418 481.4214081689497,730.1919430527264 481.28451074680925,730.2035599862352 495.1070725956015,736.5230809188574 495.5917477245457,737.6851846066779 469.8162932889318,747.460731269653 468.83179693340935,748.2532999821483 456.91502196455986,770.8912349729576" stroke="#009edd" stroke-width="5.632266822278745px" fill="none" stroke-linejoin="round" vector-effect="non-scaling-stroke"></polygon><polygon points="599.9771972533563,537.1790826435677 631.7732255556402,602.0113471662403 634.7535115645514,603.3377865464204 622.1735122756581,605.2990423865044 621.9975845245426,605.3164776803237 624.6997066222611,616.4881933408101 624.9845697689816,617.3187848363082 612.3477726133788,625.6030704795044 611.3854128622697,626.5355471611615 623.7830764355385,622.496723432479 624.6816478133915,622.9178195292257 660.6326585156858,665.7992416465199 660.8694619289381,666.891103369569 713.1482573067551,655.8287694278183 714.4968425511397,655.4720981190108 717.733447137849,639.2205923815268 718.9407658934142,636.7925298175319 729.6682809155682,638.385613653903 732.0575778400307,638.7829888289339 727.0191701601507,622.2821518629567 726.906739511156,621.5512658838193 737.5171635467341,615.1837381497967 738.4940868534395,613.9378376389864 747.5182484178586,581.84732130156 748.845570871119,578.0848879612527 732.6121580356048,569.5390293285959 731.6693134489251,570.0125410933756 722.8778775023311,556.2691070789947 722.574955546741,555.0537269412666 725.84622139563,545.545090702864 726.4337152268054,544.6480452028695 718.0209317245535,538.2380433116118 717.5522765066489,537.8628462594711 651.4608224978219,508.2135474458114 650.1739867289798,507.2470246573571 599.9771972533563,537.1790826435677" stroke="#009edd" stroke-width="5.0214964096758px" fill="none" stroke-linejoin="round" vector-effect="non-scaling-stroke"></polygon><polygon points="729.476333253413,443.1791404761384 755.5861669245423,467.43789137874364 756.140164577846,467.95635684204854 768.8305556177875,455.80900267550123 769.1963921334609,455.34150804297633 775.7529048445649,464.20763165076596 776.0671863733805,464.58653315049696 744.1989228356179,497.1857218917353 743.9592067111298,497.40936109630957 748.8260557066897,509.8303726925874 748.8327549423338,510.0294001516081 739.0335209512632,533.0205555929929 738.8307962578037,534.2517096054285 744.2280499466942,538.8627740508887 747.8144711379209,540.1202796498906 758.2661524178475,528.4894201524216 759.7603732178468,527.4375680179578 782.60389264892,530.5340775095169 783.2164357956281,531.1530164085339 802.2920721333721,511.5245602250575 802.7895631912179,510.591148592393 812.2515052355375,513.1266020047256 813.6991226578612,513.2741932063723 822.2878339112285,486.7030499126772 821.5302377511762,485.82857675411606 834.8722022668007,480.27570287054505 841.5399805422421,486.9065712997467 840.0093508533682,474.3836166554024 842.476125893394,472.4117991283779 831.8974504088765,470.65155234639633 831.4818065333893,472.21989489041835 807.0013434578213,445.18119493171207 806.8047354578521,444.74588944685047 782.0158162755906,461.64432572478063 781.911832488935,461.67742969157507 772.5235820356538,437.77909487704846 772.2570689689383,433.0249764345713 802.2687704445343,396.19340553854227 802.4546014133157,392.5938137015687 755.3345086845584,374.4405730737849 755.3010125068031,374.2996015773747 729.476333253413,443.1791404761384" stroke="#009edd" stroke-width="6.093614417835759px" fill="none" stroke-linejoin="round" vector-effect="non-scaling-stroke"></polygon><polygon points="1524.9429805779146,1683.4910639473014 1525.1713371289443,1684.002227049648 1531.4208500889144,1697.98957480942 1575.3914282934056,1696.7297622285328 1576.3893231201,1696.596751935525 1574.0702225334026,1712.4973645288042 1572.7417349956013,1718.1709526072732 1611.317680951186,1700.8708352502213 1616.3825943022748,1695.4654939304814 1629.5556215734468,1730.6421032838766 1604.9586500533405,1750.140486568656 1673.0421071911478,1809.2998046705393 1676.6503737155363,1810.847089536 1684.1774017689531,1812.0222184721856 1688.1803406489562,1808.5359399274234 1693.3442861778676,1794.2545619943771 1708.6890308534275,1796.176347928798 1700.060124186777,1769.0056685646773 1700.1265340000173,1768.0588900838407 1722.0560446844684,1723.0628874471654 1725.6095522400938,1715.8583881282025 1716.4167447023574,1710.0512936170921 1701.8837726133424,1674.2481055427702 1721.8204063556404,1654.6771685674098 1723.1646225334625,1652.181513576164 1710.915507226695,1645.17003592247 1709.4646858222332,1645.761824275694 1716.2151850934388,1634.5798708678699 1719.5353844889687,1629.5564842588278 1703.3849839201212,1626.884773842386 1703.2821652177736,1626.836714797922 1688.1034450756633,1661.889448465408 1687.9458674045527,1662.3779706870914 1676.3221111733947,1662.1475022327281 1675.8770489155795,1662.0794294578732 1654.101911920101,1648.8635702151582 1649.5199260711452,1649.8357768344936 1647.3519951911658,1642.6271077638153 1647.3712190844599,1642.3681412579967 1664.1597946578186,1638.8088783815979 1663.466278142274,1637.3333626558665 1623.90933108444,1602.4583057276682 1623.7535010401407,1602.175259884541 1613.295703066724,1610.2579450715925 1609.1544104089044,1616.1437622627486 1560.8817578934613,1618.9504398758068 1557.3326194045148,1618.400855425141 1556.0670464267969,1643.14592978065 1556.0833576089717,1643.286536566658 1561.755571226684,1645.5607054042407 1561.4086673334023,1646.261950940337 1524.9429805779146,1683.4910639473014" stroke="#009edd" stroke-width="4.988890037605974px" fill="none" stroke-linejoin="round" vector-effect="non-scaling-stroke"></polygon><polygon points="580.0854192622719,950.0719677567608 617.9690137867365,969.3042965617274 620.2953961511157,969.4497968840656 620.7797800090411,992.7879648390585 621.4380527201356,994.3566073440957 643.7150498400224,1004.0953290417451 640.4487356000827,1012.3739972441467 716.4387470489382,1044.7855239521955 717.3562510489501,1045.020653965395 734.7690206133775,1018.9379853122878 739.6687832445386,1016.3423106228943 725.2028035111507,1008.556888001483 725.2383385867361,1008.2467505481686 741.3613596712021,1007.5256235009651 741.5451517422698,1006.9365823295443 716.5322450756576,969.3163472056399 716.5374879556257,969.0914017451937 718.7325070489678,951.8007098811572 718.8490154933897,951.4927242838089 731.8504840800088,942.8399383992432 731.9795171823134,942.7814634253514 729.392738444476,922.2223072206612 729.3962336978657,921.974546435034 745.1277864089716,900.2522078541583 745.6246949244305,900.0021900455245 712.0102610756658,857.6624908069857 712.2153159378577,856.6854449321759 674.5190087378505,833.5034471193571 673.9067568622777,832.7178842553762 657.691111564498,874.8560918259677 657.4927559378339,874.9168173972062 644.2772030845299,858.289441177832 643.2158111555982,856.3121300985581 637.3196100534187,820.8956955008684 635.2964409156484,818.996654544469 619.887907866716,827.9209327477506 618.8469049156192,829.801586000925 618.8402056800915,870.2279502998931 619.1017671378577,871.1272417578507 582.0765485778466,906.0061106930148 581.4389561156058,906.7275702116672 598.4168579111356,926.4989269382563 598.3693807200543,928.9711145267133 589.7363962578602,936.5017857919224 589.5392057156205,937.1285117339353 595.244332968934,945.4199637768102 595.2096717067543,946.5135640287549 580.0854192622719,950.0719677567608" stroke="#009edd" stroke-width="5.50957290274702px" fill="none" stroke-linejoin="round" vector-effect="non-scaling-stroke"></polygon><polygon points="386.113422817878,1423.94942491738 398.4810854666648,1465.6336391544678 398.83934893340484,1466.351042662725 437.10421734231204,1503.9813976352812 437.31393254231807,1504.4943123447952 496.6036235645661,1507.9800526886024 497.65744244444795,1508.0726606988824 509.5896547822995,1495.2371760329474 510.2802585867248,1494.5243190237447 507.837076506672,1469.222414604948 508.40796788453736,1467.4545302837864 518.5806114400984,1467.7110302477154 520.2271670311238,1462.0888923598463 490.20701869342156,1445.9408703248841 489.4366066045841,1445.966255622428 466.8960091289846,1421.8587049562261 466.687459013403,1421.615959237191 463.5193031377639,1404.1976998677487 463.39638672894944,1403.912172382326 445.9317709066454,1391.4301174240895 446.03022054231405,1390.7628080602512 445.216409057939,1402.0742752284636 444.91232201780804,1402.201226929937 439.0510734489435,1393.3282406973663 438.9834985511625,1391.4572908601035 420.13680130671855,1390.1970635604007 419.9034931467395,1390.0407039976922 386.113422817878,1423.94942491738" stroke="#009edd" stroke-width="5.8327211594511015px" fill="none" stroke-linejoin="round" vector-effect="non-scaling-stroke"></polygon><polygon points="1176.4863209512332,1960.0975688373796 1189.3864271911807,1968.531495420007 1190.3691759200083,1969.1241952565392 1179.461655351195,1980.9627527345215 1179.5178706756342,1981.0711566207242 1219.853385413393,2011.7126710642256 1220.62525385779,2011.398165540922 1229.0954177689055,2031.5842482539952 1229.2189167201068,2031.8449797593998 1238.7265883289292,2023.30997184557 1238.8052315290333,2023.2855412171116 1268.6762490578476,2046.857176903031 1269.1475257156198,2047.1130047956026 1275.264510320012,2044.8309740032778 1275.57413151113,2043.2520152033317 1263.763087955631,2037.7830898492607 1262.8854880978834,2037.2807396407948 1287.2826476356495,2005.3744988150206 1288.0938376800405,2005.5122098437055 1287.864024773451,1992.9708255294022 1288.2013167200857,1992.439496875369 1308.6229168623468,1990.0693823474935 1311.517860435626,1988.7268244728107 1260.0493812890272,1925.6116256760793 1259.3037272444708,1924.3117822055715 1237.7406356178471,1911.4195873157946 1237.3608180889642,1911.2929281020547 1226.1273651467418,1909.7796781970897 1225.6077374844826,1909.5445791172456 1214.296806426697,1934.827185509122 1214.1765114578666,1935.1204702341124 1176.4863209512332,1960.0975688373796" stroke="#009edd" stroke-width="5.820111304767425px" fill="none" stroke-linejoin="round" vector-effect="non-scaling-stroke"></polygon></svg>