<svg viewBox="0 0 30974.116123359956 41042.80479107228" width="1000" xmlns="http://www.w3.org/2000/svg"><polygon points="8.052549999993062,27540.329523191933 19.932042266678764,32196.49734821185 23.842939475522144,33071.216412908776 20.284480311063817,36363.33469082255 20.27399455101113,38210.9082598917 1277.6739049510506,39909.03130152615 1667.5158203999454,40438.480939367815 1668.8812993687752,40623.49027712739 2131.3781720443803,41034.752241072274 2138.8044202932797,41028.370538666524 2197.947310675605,40958.50306811303 2275.8838869599567,40848.00599900322 2348.092034302157,40746.373200236034 2398.1976559200266,40660.757321920624 2424.12894039994,40624.66867339346 2463.722878888919,40546.43230773663 2475.9664600444667,40509.86008373965 2508.484549431101,40480.64763298983 2569.9844056444417,40402.81820320818 2597.243303848867,40357.83149100657 2651.604978942167,40243.24101236151 2752.9146055377496,40106.357631384075 2798.910974319995,40045.93470195835 2856.376143102272,39951.93714040055 2876.5944360088033,39902.641484156164 2924.9163133422553,39841.969839979574 2941.9396534310363,39813.92646360307 2996.072098160017,39773.9126016222 3050.371441235504,39720.883086425514 3137.014984844456,39613.80669132728 3213.3163651111245,39535.34741257006 3271.3407744266733,39451.75698024852 3313.3741084710637,39383.995898574154 3342.843754408852,39356.032360680896 3404.6881843466253,39284.66800502539 3467.882947155478,39175.6359339671 3509.5210263022163,39126.56859791305 3528.761230817734,39097.68040302492 3610.2285955110274,39026.894547229545 3661.6731904266344,38963.03142288202 3703.67361083554,38921.99037111088 3846.4375245066767,38728.265483360185 3861.918875333242,38705.20780941358 3918.321195831144,38651.47388581748 3973.3262888088066,38579.07151062382 4007.7813310844067,38546.876339376 4063.8061642222747,38483.31537055972 4171.548513306625,38346.98642777398 4184.366772364447,38326.23034642721 4238.4648471022665,38268.0105803771 4322.6229743199365,38167.60892518252 4382.563365004462,38081.34543692626 4407.011205715564,38028.90478069478 4447.592261999933,37968.73946210419 4492.609668577759,37889.89079475499 4581.646295635466,37833.04511442318 4650.820854355552,37770.51103347636 4711.595736773306,37698.771871855395 4760.136067440006,37618.135647091694 4789.8165936622245,37547.94628849384 4906.173285857745,37407.41149355905 4947.7860244178155,37339.67681019209 5070.160086497752,37211.801334866235 5142.429400773341,37123.133603168215 5196.129890444427,37021.97532263902 5219.951789537765,36949.74461423457 5227.845819191047,36916.700867639534 5521.688562942174,36631.01736958188 5940.657006959984,36211.64145059386 6252.162139617809,35869.6589849538 6600.7108409155335,35497.13212128301 6904.7518600799085,35157.06653569723 7401.5747419289255,34611.69781879449 7797.210913591058,34217.86762499434 7861.1487090043665,34156.1223207273 8077.924903279956,33970.26896433919 8110.830383244407,33932.059469089174 8183.114843617746,33864.750002253364 8353.591747155617,33732.30520772436 8441.645916755515,33666.19928639723 8513.889307902165,33587.86034310839 8525.492966426624,33569.206880866695 8590.44059878224,33522.175482326566 8689.720065733272,33437.50015835694 8792.82304855992,33367.07937482142 8825.00792379558,33341.43897946135 8860.630963226635,33326.76694957886 8938.896384595515,33278.90000048847 9008.731254924409,33219.259742261056 9069.101561768883,33148.363628512336 9128.643784844404,33120.22446397567 9207.662724577793,33065.317393261445 9306.491595120024,32972.03493850064 9355.243679884443,32915.01357718601 9385.989967102156,32866.62385611734 9502.616085075511,32800.30884439344 9526.888580577768,32779.170524627 9576.57389798222,32733.755353770015 9638.226380257722,32655.519365227054 9663.174624737672,32610.8904372979 9679.599111422169,32602.56440240101 9752.110763262113,32550.47930945034 9876.116817377828,32418.49608633024 9882.026416951063,32408.4649967367 9942.574690444366,32356.499608215847 10025.730845039914,32299.957606568903 10106.95761979543,32218.7083678786 10123.423175706615,32194.922955735034 10187.011154515523,32154.11304104628 10298.839163475524,32057.400390329683 10703.085017911013,31745.03979510223 10796.932278640073,31670.963507186592 10930.062400311086,31586.35334852597 11032.944017093367,31501.81990666056 11123.21534239102,31448.419418183475 11176.127652435534,31407.203640618332 11266.220428542205,31353.502830346726 11366.477692613233,31271.71458486744 11452.507527991052,31214.173091536533 11579.060165431089,31137.530579605344 11655.065031706676,31084.461176834215 12072.159146124352,30841.88707339295 12127.222784595535,30798.80797870303 12251.80788567997,30728.427500793216 12299.503821395541,30703.886803562782 12554.101860719937,30604.071775454766 12603.044145519932,30582.152063947433 12833.853490657726,30457.2768471452 12850.044669182244,30446.00939664911 12908.27151192,30425.237812374515 13070.967981537775,30337.281205740204 13117.92525371557,30311.037924447242 13202.614950711111,30258.884935015434 13282.668485431088,30198.639453195006 13351.590220826649,30168.71840509554 13451.062800524378,30111.505715328298 13511.68738704882,30067.4544749677 13575.786546657764,30026.513131479296 13696.267055244389,29956.34244454649 13753.361727173295,29919.289277292526 13812.281212613307,29890.67542167162 13860.486581502104,29867.264724910812 13908.560878391116,29837.790759168536 14096.67337389334,29721.360259676963 14150.725719066657,29695.16784585282 14242.512236684415,29635.433191394928 14335.14839213327,29585.90306593399 14408.593276613363,29549.423756042932 14550.470561022143,29464.370468845213 14599.121283440007,29439.9257372196 14978.887257342198,29173.47348579028 15068.747307831043,29098.233879036998 15143.335431422194,29011.840892490844 15273.580804008845,28906.397455514554 15324.121293395496,28859.716356828838 15448.602119422256,28710.095586450683 15531.37874775994,28631.390312579024 15632.030975457717,28495.998924633983 15650.34726800883,28464.9371973791 15789.255917253293,28372.56393892874 15866.327127066645,28308.904287351557 15931.881185875478,28233.82164019681 15996.586189395603,28130.372354572843 16044.006000097696,28068.849608443183 16099.661792737752,28029.700981953094 16201.228029182152,27943.061163600563 16265.494960951124,27875.40435884471 16306.661180897703,27826.982421405875 16509.76481794656,27671.013817087078 16669.45100063106,27537.468084289256 16783.758600559988,27422.781348506483 16969.015765359945,27258.538069972856 17041.41061748445,27184.315822611825 17167.53916418666,27037.210236342187 17338.696185768786,26864.759115740395 17466.245844222227,26720.732998036983 17694.683368702157,26428.7366800936 17735.74910011547,26381.742030695692 18132.70793389328,25976.34208725675 18188.405087031046,25920.643049788807 18479.053169235558,25593.655852063297 18510.40617417774,25549.849544521276 19108.28382039987,24965.543050612934 19322.190411688847,24740.64281284364 19417.911128204403,24624.958742101066 19505.44333997331,24505.82242955538 19728.729152311076,24239.51894420726 19784.28445641775,24175.249211721384 19883.009343173326,24077.01544261191 19946.16361929776,23999.57522416752 20037.8391626222,23915.072319687722 20141.230212577822,23805.087057822704 20226.131663671084,23688.431762492255 20370.28261037331,23520.56527151246 20436.856409342232,23448.312288658024 20648.41127767993,23239.87873940743 20705.92450619556,23177.049595172895 20795.884462675516,23063.93563463856 20883.305991422123,22933.673737250414 21021.924243368878,22679.165280099987 21149.17331003546,22490.71005182949 21183.11658896887,22435.276944623998 21273.872006853315,22259.25456779581 21379.070102782192,22086.589190066996 21492.964971546637,21835.926618160127 21524.06893968882,21787.528287795925 21582.468797466572,21710.021635185316 21703.115913128917,21517.227767537144 22089.655979262287,21011.746545024944 22126.186328204436,20953.397927251324 22376.383552311076,20641.19247344756 22411.599394728866,20601.17503803721 22500.0639653244,20464.731207195466 22508.63927810671,20443.39329707084 22701.5839613422,20201.61035021671 22799.082305448916,20063.069396765815 22941.823791244387,19817.170352947345 23040.434790995525,19650.13619068978 23516.89024912889,18921.307601694745 23597.282823422196,18788.75453959251 23706.735225199925,18582.86464905084 23819.933082195552,18356.354277808598 24029.39283743102,17889.39869611981 24080.12032287111,17755.428106045612 24143.7356811644,17517.944955131476 24153.262867937767,17445.926689220738 24155.132245928835,17343.44769431281 24146.034684044396,17268.273647443944 24152.119628826593,17205.302291297325 24170.067172151146,17142.849707555637 24303.11020375995,16813.16365342823 24317.55084290667,16756.640604012908 24391.245346728916,16593.06780198225 24415.418518782215,16522.393201339786 24452.87977019555,16454.317843509634 24484.351613751118,16367.016659069777 24492.867798497755,16333.572926791065 24641.898410124326,16083.834313107684 24682.772776417754,16000.885385417583 24819.198339440016,15789.379373694217 24915.247901039984,15627.27862725823 25003.407510782214,15511.214416277624 25049.71845236441,15446.415849133307 25101.737725182174,15350.498496067856 25202.922396470996,15189.820656687341 25525.35398231991,14759.177794715011 25781.456436933222,14378.435001897888 25824.099692684453,14308.058065128018 25865.52863917334,14230.639928539138 26035.13551590228,13888.75599560942 26097.079269288894,13748.63297397623 26126.648821217794,13656.25177366918 26131.319353484403,13630.663802244322 26204.373352133407,13534.41469146745 26264.531322337774,13436.983856441133 26302.49618150221,13338.730146945833 26315.68056834661,13296.164944304066 26321.316955617716,13250.604323317151 26337.9785369866,13193.540382775158 26360.361265519954,13048.324510234961 26358.207024382165,12942.953679422528 26337.249776666606,12839.03100239372 26382.802539546712,12799.00697860602 26490.878685324424,12678.271541400667 26572.865095137706,12597.481373912276 26798.69952969774,12470.74880815114 26870.009979475493,12410.521207529615 26999.36435373334,12292.046338564396 27051.196339226648,12239.506242634234 27119.592038995557,12143.748727543541 27130.523735066614,12133.277594143205 27153.748528382246,12091.375659492245 27186.120108399977,12019.93176859009 27234.207803759928,11858.307397076656 27250.62617375105,11790.546761397534 27311.98621983113,11698.791242459585 27352.167652151053,11607.713404385402 27419.78886203558,11513.469683545089 27444.809633022145,11464.100971725275 27550.71551775103,11362.061163560924 27686.22415931555,11181.438901703194 27720.774447244446,11112.173000473442 27772.174477679975,10991.885907669523 27802.709884613258,10880.937648314895 27817.03226768886,10730.846424018819 27894.05337887103,10613.108619002654 27931.485794444423,10524.197570517455 27954.689324968815,10433.24699901379 27965.250524186617,10362.748604732187 28013.832215351023,10228.45199742433 28028.795103599987,10134.996102425997 28057.21821243546,10095.34411217217 28135.86199497778,10020.558439226792 28172.038449519983,9998.76542138381 28252.801520666544,9933.290895913931 28360.586686604394,9832.339506391523 28392.81088343993,9793.064447515906 28450.751406675525,9748.605294062436 28519.311383351072,9678.78678120693 28581.282516222185,9598.267619871622 28645.96188788439,9494.308778647013 28699.075174995553,9371.645510427858 28721.660336950998,9279.102553983248 28737.627819262183,9167.083705604164 28742.3449549067,9094.826928833761 28814.678057555546,9039.792353834171 28880.709509715525,8972.346278348443 29096.502663991036,8662.646309859032 29198.23259479992,8484.552961917274 29219.941321982275,8429.18970202838 29265.66593481772,8329.326084785425 29301.52723401782,8192.750756390073 29308.797069680033,8099.875338343467 29305.204240524414,8006.977248745243 29300.03679974223,7968.087145761849 29272.256234977714,7859.469072964421 29227.017171084386,7762.025615598104 29207.652593804378,7733.310422143579 29227.73195039117,7668.16640894991 29244.971413644467,7558.4442787990265 29251.881238213246,7530.040552748978 29278.245934106613,7351.878667804034 29280.624454000004,7291.19605367558 29305.559008737764,7157.975778024615 29306.6588484534,7137.3908738607715 29316.98790459553,7119.657569112227 29351.385275191133,7034.601466679858 29408.952388862235,6782.251473591983 29445.294576666638,6683.545311529393 29459.75618733323,6616.291161711764 29467.70614104005,6519.298233417649 29450.49813506668,6308.003387567209 29435.863218088838,6244.994332886796 29478.87667942219,6000.669811027095 29479.445531902107,5905.457699258608 29513.78523081771,5893.390218573128 29609.427595404413,5871.620121879532 29699.953782924422,5927.4285519175755 29796.414036791044,5965.072486521007 29953.915686142253,5996.096634149348 30056.615258479927,5997.931056599511 30078.216506622237,5994.506640653039 30175.63154719115,6017.426198950125 30269.24346086217,6023.166358704359 30334.49022864885,6018.404792418267 30439.06704329778,5995.609545415413 30537.853096986626,5954.216738579009 30627.61382402663,5895.578506006888 30705.410007635568,5821.612517063884 30758.562907617743,5751.2672988543345 30845.590929093276,5592.61671644458 30876.094587475498,5542.000591818389 30948.691581751074,5347.778230696771 30966.06357335995,5248.160778492893 30966.058621751,5142.42921599737 30946.91337161776,5033.235909139068 30907.975958213297,4929.498313037417 30779.779095351085,4730.060009829089 30701.795041875535,4645.937887856824 30609.18277065779,4578.478724834829 30513.682837644446,4531.268153979123 30421.69563423106,4504.018579407624 30364.756209804415,4493.139978560706 30223.051940435515,4481.131927831651 30182.856235831132,4483.130316656054 30168.461326248915,4398.574610993703 30138.151654426678,4308.88149991844 30137.805041804415,4186.503183375724 30128.155521164503,4085.297918305587 30116.169132400042,3838.0448426089424 30104.842763973254,3760.5726594560256 30105.04141087117,3691.714113118098 30118.030646071158,3623.167633939738 30134.59319526222,3575.1028068795276 30201.891385484458,3447.4592927334306 30241.548821075557,3370.9482688154385 30264.234471564385,3301.8931145969254 30275.354911315575,3266.2170232029457 30285.375220079994,3212.226087688672 30292.54777119108,3118.047190631245 30283.159812008817,3011.6410775734985 30255.06671334218,2908.6128730732307 30227.302751031093,2843.6621721966367 30195.70391327105,2788.3858331903175 30136.52141001771,2703.0729405485617 30063.506732968817,2629.398125826643 30033.693678391137,2608.3331741458096 30062.804769591166,2538.884287936933 30120.20644127109,2312.3134439339337 30128.880203688837,2224.3811550808896 30167.506539546623,2177.6451205444464 30198.882554906624,2137.0584646595235 30238.487852968945,2099.6825410804304 30342.531641484442,1971.6445839896041 30396.463982959947,1888.9357688341697 30449.090264773316,1786.2347804335586 30487.803399422177,1680.842953725747 30506.82922839999,1551.9805750326195 30505.66064870215,1454.6458094216941 30526.983732933382,1413.5582768387103 30553.98514747547,1347.0610542883223 30575.319882551063,1272.9002999678196 30595.86061257773,1178.3565235324495 30600.982032524393,1081.7052768375434 30595.04068439998,991.7141011758649 30578.318227368844,909.3989916859136 30550.179981679976,829.8457571455801 30500.369708968763,736.3067028177029 30452.79668966224,672.3873001166212 30397.181674977735,615.4126102023001 30272.69327590216,525.1732274847745 30211.214682479942,494.22336877245107 30161.825587795553,474.93657791792066 30091.380213217664,455.095970669674 30005.55193744888,442.05933387597906 29909.019157075527,442.9569813167618 29847.996111671062,410.75302559763077 29759.375419759977,376.55902651135693 29598.403275119927,350.2357532629103 29491.56852681769,354.49246434881934 29379.27827060441,283.9495358306158 29272.02176173331,237.85554101827438 29032.1882550311,168.75437697468442 28962.66737496,151.59799082091195 28888.873256417777,100.82620179114747 28823.42900681772,66.3992746406293 28733.312929022213,32.80668301405967 28640.842215564422,13.063512757158605 28495.08024834664,8.052549999993062 28389.001639848895,21.134743384289322 28282.227475937776,55.08658776510856 28210.92896827552,90.53302262342186 28135.512469644513,143.6842089801503 28048.82960443545,144.66025230000378 27964.68895348438,157.56143002744648 27851.87528308443,194.58106274987222 27727.80660568,261.6697992279951 27637.348575599928,319.0676316705358 27579.823987511074,361.82511794308084 27524.317325680022,409.0577311065572 27418.561154302297,518.0016910356644 27350.677800417732,614.934702471568 27297.815297733265,719.3878622656048 27266.993280026567,804.0484746711736 27232.669018479966,933.806192809745 27201.889526355517,1019.9363140643982 26980.003854248876,1132.435375525296 26880.918956399983,1167.568005747482 26791.150365040026,1218.6864107337024 26737.96047362659,1260.5248434605019 26688.267000631167,1278.295815471356 26627.063658408908,1308.7260357380437 26560.485490373307,1324.1019680366444 26439.169907511066,1371.0838992664067 26414.998191813327,1377.4744430745195 26317.21760599999,1424.5737933142518 26289.010620328918,1445.2384576624318 26220.340251902206,1426.664377759822 26097.034996080067,1414.2680385814456 25994.95495739553,1424.829316086456 25925.478350533376,1440.1293038144067 25832.995403688838,1472.5363170174824 25704.673294248845,1535.1776936314127 25641.80271618659,1578.846034150949 25616.17493620442,1578.6747261221462 25561.787046711048,1554.6463410088036 25477.182400880003,1531.469681819406 25390.107193484408,1521.0941793894453 25342.27639924441,1521.6078418098332 25268.01391675553,1527.5370950436627 25182.73323067554,1543.3294909333636 25103.91643309334,1570.1952316822426 25074.004928879993,1585.3705832782725 24957.073267511063,1596.2342090202437 24834.39890491552,1623.3072964421299 24736.417633306555,1656.1751938031812 24628.52935739557,1714.0633185682527 24560.37483010671,1767.5663758248847 24505.573626906582,1822.023958406382 24441.99875529771,1909.1562848339963 24417.93859643556,1921.6210230597353 24362.94311540443,1960.5094047199527 24220.912331119966,1948.9733474040113 24126.93050313773,1956.610659694561 24038.233498195506,1978.1815053639293 23953.87876297775,2013.191660286655 23896.7800132533,2046.2709500056517 23859.462067226734,2073.71282285449 23783.096024773287,2084.082616329979 23742.71652809772,2090.755086110061 23683.525286711025,2105.889438096405 23636.911131902103,2124.5791044576617 23570.592195155536,2132.169043255708 23380.059527991078,2170.555480950192 23231.19202818672,2207.5927267194784 23165.358349111135,2228.7404689544055 23034.37227408876,2175.2740878133627 22865.80377887105,2109.7096157615015 22740.834491191054,2076.198874242691 22654.40095405336,2052.2452064229583 22521.776187760028,2007.5072471175517 22432.46838729779,1987.055762448319 22340.33583960004,1980.7029181147518 22224.21041666667,1993.2545770865108 22149.919098337734,2009.7871999383497 22089.624813253264,2027.461825344566 21912.903639635508,2028.1172596174583 21849.00691344877,2036.660746365349 21734.509987297788,2066.2914816005214 21648.6534582311,2103.634713691281 21605.989522231015,2101.116346398805 21487.515871599986,2112.97249082863 21342.15935376889,2157.299730130675 21273.155771191086,2176.9300667555945 21222.001573573303,2197.324017884239 21131.343731511122,2247.025923460751 21061.63469030228,2299.400166565756 21016.12940461337,2345.4573208054935 20896.21250562658,2384.0773793026165 20825.285077359964,2420.5243932395533 20672.712609022128,2537.523414465977 20643.80132980444,2564.5173775242583 20494.512069431104,2575.3591027178627 20402.738659013266,2596.805390489433 20365.07584799113,2598.6117410638544 20341.13831426666,2589.9747306591307 20197.946814604424,2570.7538297141728 20102.62310061333,2576.921913357015 20013.474625448784,2597.1823450701486 19991.320253466693,2605.185981142713 19942.27194598221,2594.5445506436226 19839.823158071114,2584.808107274497 19741.556440773275,2592.101910060999 19581.901132826664,2631.2810426330834 19523.63118196439,2582.846368419734 19448.56216976882,2526.674967651168 19352.46309207994,2473.0129525584925 19282.936969128874,2444.3603288762097 19244.746083582257,2432.3971362930897 19092.408671031095,2405.772736135026 19010.713532328926,2402.7766178828024 18876.01287682666,2410.6739396147022 18763.792816951027,2422.736971060367 18726.271272417827,2420.2385730425885 18641.737988008856,2427.9497423112916 18554.899875297764,2359.8903173009458 18465.71207853334,2313.5029281829193 18370.01757641774,2282.9332743143023 18270.56392934217,2269.062085970334 18170.20821563559,2272.2898714774346 18071.833728026686,2292.5249104451796 17978.267252648802,2329.185956216388 17892.27353488884,2378.373486942408 17814.820177377755,2439.9302297660906 17782.425586942205,2472.142175690533 17713.567057377746,2553.9939661551325 17660.391729519906,2646.926408301486 17624.22343056879,2749.458346402418 17608.6503293422,2869.4378480477317 17569.36717712888,2898.90910998013 17483.649001840007,2986.144315180456 17448.843560417736,3040.354538526124 17415.361654924433,3076.414613118948 17367.882716186665,3088.6247006837802 17282.465423955553,3124.239240083465 17153.499314088927,3210.910511233582 17088.657121875527,3229.8303387318447 16992.40949592003,3278.333607280423 16857.89379757337,3387.5444201004284 16776.058557466575,3461.6333966532547 16714.32422800883,3500.040963072126 16676.30431860438,3532.727163274918 16552.0923358133,3608.8498749064456 16345.301206497796,3715.115326848085 16280.240269679896,3754.08046658276 16204.53890790217,3761.5679171423835 16005.977352560003,3805.001884352445 15934.051155653287,3828.1660488305206 15849.196890479972,3863.9823791403032 15756.171305555588,3780.496287947026 15695.131657697697,3733.6925634075596 15586.46947444437,3668.8282031086565 15449.457873946609,3614.739953418466 15379.534457199945,3598.6213622094074 15243.534149999934,3593.2729602562904 15198.044301680027,3591.7016050681996 15088.601220577693,3601.5293529191113 14879.223603795486,3645.51772933334 14844.70826840002,3641.493146135792 14733.49338512888,3617.170800899068 14643.192641448899,3561.4770955656713 14536.571977413347,3510.647480313637 14399.032302391104,3461.854475714761 14320.456094746682,3409.6521472888126 14230.718086853361,3369.5904931071855 14135.63350644437,3344.99880494838 14037.816511742276,3336.5550827872066 13925.344502355525,3346.8133783301164 13771.603163048945,3389.036013413599 13670.830349111086,3428.0474236628797 13578.773823173338,3484.822356171877 13496.00302025766,3555.8483645217784 13479.719217519945,3574.826271316764 13395.302441555512,3624.3137684966496 13361.334404577705,3650.642704464408 13291.649538871105,3663.5523230472754 13208.559502817778,3690.99201200236 13122.789481271146,3735.0251515510317 13003.243079137726,3827.931417234795 12954.988776702172,3885.5987838898727 12861.066076755611,3935.107963335089 12824.515630106645,3954.6821339144662 12665.200818088808,3943.7814165954187 12591.165527066652,3948.304664092284 12443.894192951004,3981.793060392054 12374.284475191002,4009.453287281707 12296.920829182112,4053.6161633099837 12242.228561377706,4095.1990506830916 12064.894262071088,4281.854648673121 12004.12899159998,4353.500613032986 11920.184366106609,4391.3302677530155 11899.966655742232,4403.8982974536775 11859.28045058655,4408.932040894724 11789.410045182187,4425.506348173512 11732.201194977708,4445.185662308853 11680.556788079994,4468.109390424477 11553.428598924394,4551.082679942861 11511.523424168903,4589.894510788057 11370.442766248918,4653.405413128756 11301.737154017756,4696.575854879367 11240.27516304885,4685.225721388793 11050.568249484379,4677.705709198635 10953.286319813313,4671.795687330101 10837.191771617712,4683.462779618421 10588.895382782182,4734.401198740961 10472.578012186656,4775.166468533134 10230.761240488937,4737.666411035723 10162.385929697746,4729.463502179977 10064.493495777802,4724.673647106014 9975.726585768833,4735.444562618359 9916.494566426583,4712.571475442412 9910.904491262132,4708.775437783945 9709.705767279927,4523.137768147601 9487.121918319928,4367.905364594393 9442.801814782288,4345.713988219126 9389.642798106623,4285.544569654419 9335.331512915523,4235.067584970704 9138.482922977739,4095.063236680493 9034.037471599964,4030.267805196898 8809.305206924415,3843.8966053597105 8618.694187831105,3655.861105315067 8381.981651084352,3384.5742839816085 8298.00644212446,3284.045457466709 8199.185435902182,3099.302448063885 8116.529685075482,2988.0599982203858 8104.535723262205,2960.2875210420752 8061.3434214666195,2883.3411096977943 8049.744423279975,2842.663189160783 8008.276737733249,2749.7538567626907 7946.259584026615,2650.5635463128274 7910.040312631027,2610.4472376975173 7918.306295493239,2585.2536863349087 7933.459383777779,2510.474524588528 7937.177168239927,2412.456917660398 7924.89455675552,2315.138726289704 7896.937481697736,2221.1493224881415 7854.056839991099,2133.0297689492872 7830.422519493353,2099.70780508421 7820.544351031043,2059.653296491859 7822.927822533267,1987.744521901739 7805.492042551021,1876.18156307537 7775.196643013245,1786.4375630612194 7730.096515440004,1700.9186628313328 7663.462714622234,1613.68595828666 7582.0515652533795,1540.231829347118 7550.1279602043505,1516.6823800576676 7450.872377484426,1462.7665763404511 7343.269255991065,1428.7255079599272 7231.2085214132385,1415.7922691877757 7103.798381822155,1429.6268231936556 6867.697223137802,1694.6344065082085 6651.449685928848,2074.2728092487378 6613.480748968868,2176.3546946863353 6529.108246213262,2320.137028148194 5769.51746164434,3551.4563268827333 5753.258708222158,3589.4712609250273 5661.056837999931,3700.783640729933 5600.920130586688,3801.786066095665 5484.384015386662,3956.23415689604 5442.396993448812,4026.9045258130354 5401.266599848837,4071.398071372212 5274.448031884356,4246.732634041313 5182.76142025771,4368.835909933987 5055.085932684335,4578.117440920294 5046.517319137667,4588.580093435914 5019.953685075481,4663.55988025057 5016.526297911158,4794.323782918655 5049.08778669333,4925.940487726562 5058.273603724403,4940.547954902373 5085.693866124348,4946.683459901629 5108.726711777825,4963.974934012018 5128.469358960021,4990.190444691601 5156.986548364483,5108.429091553349 5175.083805039962,5154.71643801991 5259.53815497781,5310.849756260432 5297.378058835486,5464.726549618441 5334.132395262219,5563.648975307558 5377.99374679997,5683.232577361719 5443.2539130578225,5796.367376704089 5456.415580755536,5828.131988826935 5536.856797324348,5944.340423779824 5777.202067368868,6203.409453223314 5788.381052613346,6229.667368210707 5857.550077182212,6258.053432928893 5912.047193342209,6327.595705824759 5937.199618871178,6354.559557434666 5950.474591031176,6385.780127444275 5969.338764542219,6405.647125108022 6055.975026373373,6620.610886401642 6116.061343884416,6777.36949385787 6181.93609218669,6824.6767387129075 6203.396073840064,6834.817464774969 6241.197238639899,6841.834721393912 6267.937674266606,6841.834721393912 6286.069883475517,6822.313471320464 6288.267815279978,6804.465043459117 6302.004452151101,6803.53544733164 6337.902742782229,6828.634526076174 6396.572026337817,6853.203728591412 6613.4128828000685,6970.112338027713 6698.679005324462,7470.257037038129 6733.639694248879,7669.964000451582 6814.925597039954,7678.6053927592875 6826.669648239942,7682.864911158831 6913.754467582185,7742.293331741617 6942.710311279952,7764.539053144952 6967.91924340438,7792.109652659885 7029.4913348533155,7829.646679169178 7046.554579084361,7850.276914720802 7059.6801291644515,7887.543593928771 7070.836686533265,7946.102861383144 7123.995120666659,8066.537742662331 7131.278063528909,8105.479580183019 7144.278367031104,8139.49207913116 7190.624261146615,8196.537167640374 7215.2028825866,8232.002497380628 7264.5564421955205,8261.18448601439 7281.535800346726,8281.437488629104 7305.24876404446,8289.368936769868 7367.072222462128,8333.15332045182 7414.146585626731,8341.182084609318 7448.508129875496,8347.406134351651 7571.185696453293,8389.222573215637 7592.75490477329,8399.941358975106 7705.56129339544,8408.134320661164 7737.652670604381,8406.212874213961 8376.358662284416,9063.071719058411 8399.905892719951,9094.398879156128 8429.921380719956,9113.546483155718 8475.057043368899,9160.661907489091 8529.787467688875,9223.94308613232 8767.948786942143,9459.475857748563 8796.454034231108,9472.017656786862 8824.823840453377,9477.208442196163 8872.869592773233,9491.131017309352 9462.960397111106,9688.709029467165 9565.339279955573,9719.93139191289 15331.345108222187,11655.425447465706 17495.87219401772,12399.348846354493 20195.116241946555,12404.417659278639 20377.22301840884,12404.586786016036 19138.404165999935,13694.635112027841 18498.924266977672,14218.500533864979 18437.317514266673,14283.075160637178 17145.51819437332,15612.560544081818 16122.02704500439,16718.85719662989 16091.74650029323,16748.725397920964 14161.776545022236,18392.45447216739 13362.097826159996,19169.394067383982 12887.332031742175,19630.659896750847 11685.59869101338,21358.01404864932 11626.365797857725,21423.619324384345 11493.868899582158,21413.92235039515 11402.777063564368,21425.00447714186 10903.153027439927,21406.995952543075 10751.333494924445,21423.619324384345 10598.133919884422,21395.913430714892 10494.946177164413,21398.50280790546 10495.978441982152,21416.55614090411 10377.28342530664,21416.55614090411 9899.74210847108,21372.226476865733 9365.613513982127,21368.070317916485 9226.215820542158,21344.519556559477 9006.767505093332,21374.997147093323 8870.130187973351,21365.299637782475 8327.720464524435,21466.42616999804 8221.4469956533,21485.819546930405 8164.8597180000215,21524.60601565169 8066.867086817714,21531.53228824903 7852.939815279999,21589.710200102156 7557.581879208883,21660.352766416705 7525.837697164359,21679.744229397184 7473.391129626631,21681.129493659566 7131.1070873866265,21800.24486668271 6540.391506515531,22091.078766659455 6200.867840595514,22291.868395008292 6095.974414248922,22362.48643437252 5996.601740542188,22448.33224402278 5966.237892293342,22488.484983273403 5940.01446288891,22539.712973829388 5901.369485679985,22710.002356442303 5886.739520311094,22754.137231292232 5808.124573608831,22888.805763203156 5775.442207315558,22944.619997417467 5646.478427617665,23105.852896320837 5566.096921626682,23192.665620686224 5523.697751066618,23228.098556328943 5457.449301928951,23281.24675519546 5377.067795937735,23329.964850045013 5354.985076648853,23342.36545918419 5044.942124968831,23353.880416044238 4999.892969839944,23360.966536452674 4941.594474408863,23378.68159367275 4900.962154408888,23392.853655829706 4809.097576133296,23435.369307644403 4661.5841957244265,23491.16977776753 4566.186207600025,23517.74078086848 4483.154717039986,23530.140651307156 4393.940123333334,23528.369036767894 4334.75820262215,23529.25484420979 4120.749375173327,23558.563982661668 4030.015220079891,23568.225066008483 3517.6935111377097,23598.338003605866 3206.7671341778187,23598.338003605866 3135.929417413281,23644.706229600968 3129.113382142241,23650.59173908367 2978.059601377783,23825.617538334947 2953.185631031025,23848.28831709674 2890.7743875110464,23842.847467066225 2877.6587406488543,23884.107612017513 2855.747288773273,23888.08393084517 2795.800490124355,23959.371817091684 2803.036538337794,24039.167392519797 2786.30301300445,24072.717086486955 2737.459469111025,24114.880118691508 2724.8614110133785,24135.23592994854 2702.959279813309,24130.943226223375 2701.1938856088964,24132.208964382036 2694.4282402399404,24157.84972651585 2693.8500670843932,24159.459108274983 2554.625971226691,24340.002034785604 2537.1004797421338,24358.23811813086 2540.723892364389,24382.48942809613 2502.1995013955457,24434.182285180228 2456.072643155552,24490.68986928722 2126.9354137866467,24951.642081748723 1714.1596848620975,25509.104926110624 984.6580798844516,26576.876333424385 948.4874507644854,26627.59160376343 944.0878006310377,26631.74262580069 466.8584351555619,27081.991637197934 8.052549999993062,27540.329523191933" stroke="#009edd" stroke-width="5.219941548175146px" fill="none" stroke-linejoin="round" vector-effect="non-scaling-stroke"></polygon></svg>