<svg width="291.72703061334323" height="301.1002772550564" xmlns="http://www.w3.org/2000/svg"><polygon points="5,103.95812919863965 7.429783608880825,104.81146891228855 7.666004479979165,104.84843501530122 8.854681884520687,104.68275556562003 9.84179968002718,104.71259569074027 10.923289315542206,105.36195144371595 12.301584213390015,106.35958618781297 12.41343231999781,106.48518095642794 13.449774933396839,106.94302227324806 14.947782257804647,108.11256202374352 16.155392284388654,108.80332687706687 17.0694010311272,109.2838770368835 18.016905955504626,110.26590631413274 18.323323164484464,110.71705934195779 18.428763306699693,110.87516309687635 18.379538488923572,110.9192539829528 18.773628302267753,113.03738758515101 19.992597902193666,113.35314629838103 20.79941888002213,113.43865492712939 21.707019662251696,113.35403701342875 22.646368995541707,112.92827480775304 22.651320604491048,112.86815141746774 23.00492373330053,112.92961088288575 23.65067178674508,113.00710322789382 24.97042119107209,113.43954564176966 25.365384817821905,113.70275168062653 25.284411448868923,113.74149772082455 24.94799331552349,113.91251464409288 24.45312369777821,114.49637610989157 23.92213646217715,116.62115563161206 23.597369173308834,117.95052415400278 22.996476871194318,118.66575227904832 23.052983466652222,119.29057295899838 23.374838044517674,120.42041170527227 22.98103950219229,120.84571410960052 22.8473460621899,121.24785793258343 22.764042524504475,121.41174357710406 22.838316657813266,122.58165196469054 22.704331946675666,123.24565126275411 22.282280106679536,124.58477723505348 21.90391893335618,125.32937585568288 21.415166008868255,125.91721509676427 21.133798115653917,126.792291065678 22.159072426729836,127.2242611295078 21.65517340437509,128.77177580748685 21.255258168908767,129.6156677273102 21.12476871116087,130.3611400150694 21.227004871121608,131.0277878305642 21.094767786678858,131.44683529279428 20.801749048870988,131.9353518927237 20.79301091551315,132.54766606690828 21.31613383104559,133.51088848849759 21.29894883558154,134.01721315132454 21.15331328008324,134.58009162382223 21.48652743117418,137.17982340336312 23.406004053307697,139.41392951109447 24.281273742206395,139.71673665067647 25.211011128965765,140.75741037190892 25.970354915596545,141.7597833717009 26.56338289787527,142.78753381140996 27.315153635572642,144.2418726568576 28.166830364381894,145.63786862406414 28.627329991199076,146.25192593509564 28.941902791149914,146.56986356666312 30.276215751073323,147.68887570459628 30.93885752884671,148.19650369300507 31.037598435534164,148.28199881815817 31.072259697830305,148.31227833370212 31.16109738673549,148.48772132745944 32.13714688003529,147.6510262025986 32.18520661338698,147.7498801824986 33.22067541338038,149.67529751779512 33.76127459551208,150.75421852630097 33.82418915547896,150.8882483780617 32.86299448891077,150.7916222140775 32.747359857778065,150.9372293667402 32.327346915612,150.90650492964778 32.180255004554056,151.6051508540404 32.09141731553245,152.28153061959893 31.75995079113636,152.9427688732976 31.486447217757814,153.37290663295425 31.05041436443571,153.98605186579516 30.60884736001026,154.32579682033975 30.480688071111217,154.81070057401666 29.927564231096767,154.98658367391909 29.532018062192947,154.71986469032709 29.28531143104192,154.42910055594984 28.84782222227659,154.71541194984457 28.751702755573206,155.0604990614811 28.433925973367877,154.94739960308652 27.781769955530763,155.75824128859676 27.851092480006628,156.2066296725534 27.87555925338529,156.6777259208029 27.74419598223176,157.2899714319501 27.276705848868005,157.30422003462445 26.920190008939244,157.83676089602523 26.93854008882772,158.12173206661828 27.304085333365947,158.3149779321975 27.469818595563993,158.68855644133873 26.87912078225054,159.64587631297763 26.422116408939473,159.9437577885692 26.48706986673642,160.07421995239565 27.435157333384268,160.30575670849066 27.697592604439706,160.6557329595671 27.55982136889361,161.01906649541343 26.910286791156977,161.91136837535305 27.74448725336697,161.9710331428796 27.811479608993977,162.05296085693408 27.853713919990696,162.71060776419472 27.466905884444714,163.10599643050227 27.119710720027797,163.61314369377214 26.814458595588803,164.28770563087892 26.84358570666518,165.05888546427013 26.98223075561691,165.41375195316505 26.933879751130007,165.93781346589094 26.395028195576742,166.87996340333484 25.951422293437645,167.15112017764477 25.869575111195445,167.8742032799637 25.589663573307917,168.3274647553335 25.618208142230287,168.64492533251178 25.861710791126825,168.9338897524285 25.626072462182492,170.13115124456817 25.680248888907954,170.39295393327484 25.525292657781392,171.5830836686073 25.353733973344788,173.25762496254174 25.22790485341102,173.74204187688883 24.992266524466686,174.1066895694239 24.878962062182836,174.20286028902046 24.520698595559224,174.06528271897696 24.357295502210036,173.6605637386674 24.34011050662957,173.28344868519343 24.178455039975233,173.12093727686442 23.920097564463504,173.10535398486536 22.938222648925148,173.44061713881092 22.888997831149027,174.0082926324103 22.653068231069483,174.20464122790145 22.558405120042153,174.52610045601614 22.68539932440035,174.6659039077349 22.87239537772257,174.63162090396509 22.976379164494574,174.69707027025288 23.144733866676688,175.02298111165874 22.77452828444075,175.30392299429514 22.479470648919232,175.3328631045879 22.11159523553215,175.616921215842 22.018097208929248,175.72822915337747 22.24878392892424,176.25182093848707 21.843625813373365,176.7179768650094 21.87799580441788,177.58305636164732 22.04984576010611,178.081711041159 22.3553891555639,178.41206914570648 22.502189795603044,178.77448299340904 22.917833671090193,178.91116717696423 23.00201102218125,178.92185258190148 23.01773966231849,179.06566027272493 23.462801920017228,179.16672630270477 23.850483768968843,179.70945454470348 23.897669688914903,180.54780900024343 23.621253404417075,181.56647438689834 23.304641706636176,182.5352706713602 23.231532657751814,182.84336124546826 23.356779235531576,183.59444152144715 23.133665564469993,184.4425759264268 23.141238613286987,185.01333960681222 23.527755377814174,185.82362560357433 24.024081351119094,186.29599425406195 23.962914417730644,186.49589359527454 23.178812586702406,187.07689176587155 23.205318257794715,187.4918259215192 23.009001528960653,187.71220372337848 22.667340515530668,187.75761487951968 22.358884408837184,187.8542248569429 22.285775360069238,188.68720590299927 21.64789162669331,188.92583591723815 21.534295893390663,189.06251381291077 21.5881810488645,189.38662262121215 21.15331328008324,189.97696244169492 20.59232512000017,190.4925067849108 21.057485084515065,190.88873607467394 20.924956728937104,191.56677623128053 20.63252053328324,192.84137923829257 20.2541593600763,193.53855681122513 19.722007040050812,194.4427474323893 19.038102471153252,194.75928005354945 17.769908053334802,195.42484294460155 17.530483200098388,195.60870712186443 17.61932088888716,195.97465425357223 18.44041415117681,196.87037630245322 19.047714417800307,197.5719930221676 19.615110542275943,198.46770858741365 20.21309013327118,199.10476848913822 20.9028201244073,199.76230497751385 21.73847694217693,200.49730112979887 21.991008995566517,200.66023755888455 22.388011520029977,200.87080823036376 22.867735040024854,201.25677974283462 23.457850311067887,201.76250379381236 23.89825223106891,201.9855384164257 24.150784284458496,202.75747686671093 24.539048675564118,203.6536165595753 25.14809656899888,204.9219173368765 25.395094471168704,205.70942650642246 25.468786062207073,205.92577957932372 26.147156480001286,206.7453373412136 27.104855893412605,207.49811693828087 28.016825742204674,208.27893942513037 28.691992177744396,208.93422275513876 29.633089137845673,209.95320227451157 29.973585066734813,210.33515144558623 30.556418559979647,211.0451834043488 32.938142435625196,213.6199760591844 34.54304625780787,215.13928550190758 35.96823580446653,216.09012839884963 36.770105173345655,216.5530841316795 38.33452231111005,217.25241253653076 39.41717703116592,217.5528871412389 40.65857450675685,217.74029405787587 42.15308657777496,218.33901580120437 43.753621333278716,218.99604983767495 44.60471552005038,219.53422869875794 45.25920170673635,219.88366588350618 46.384964551078156,220.50196803058498 48.06501631997526,221.1149267643923 48.27181880897842,221.251584725047 48.86106026673224,221.61125738947885 49.23534364439547,221.80800877220463 49.3515608177986,221.8623156840913 50.69199047109578,222.41028057981748 51.283270826679654,222.81891639140667 51.803772302228026,223.19906275253743 53.55285532446578,224.26961192523595 55.10474780446384,225.9526560708182 55.86846065777354,226.99781957978848 56.43236152897589,227.54666197882034 55.961667413357645,228.32429765560664 55.28504462225828,229.09213786490727 55.39660145784728,229.29110819636844 55.805254826671444,229.91205472161528 55.07795086223632,230.40035337849986 54.50269041780848,230.6945783921983 53.76897848898079,231.0306443045847 53.049538844497874,231.47977000311948 52.61292344890535,231.95515676378272 52.346701653325,232.05441810225602 50.963746417779475,232.2605076447362 50.347125475644134,232.75102668866748 49.69263928884175,233.40757270465838 49.8138080710778,233.68265377683565 50.389942328911275,233.93191788269905 50.84869432891719,234.17316965997452 51.203171271132305,234.43445126881124 51.56813397328369,234.8319370073732 52.545639822259545,235.18580108816968 53.178571946686134,235.37096747546457 54.47239822219126,235.47556861117482 54.85017685336061,235.72705624508671 55.206401422270574,235.98700068413746 55.61505479121115,236.25273124116939 56.01089223113377,236.56430770113366 56.46527516446076,236.95021679252386 55.7924388977699,237.8039325462887 55.33834723557811,238.36921696853824 54.976297244546004,238.7942920961068 54.55162396444939,239.2692179980222 54.23967260448262,239.64533010061132 53.574118115589954,240.52307088079397 53.309643946704455,240.88716314162593 52.654575217864476,241.92379906401038 53.02390698669478,242.24649495468475 53.355373511090875,242.54960611328715 53.779464248917066,242.67556848400272 53.95801344001666,243.44380386045668 54.63958784006536,244.05580869218102 55.62641436443664,245.0430245458847 56.53896675549913,245.253997965483 57.45443185779732,245.74181758938357 57.608514275518246,246.01020694087492 57.94318478216883,245.97727028850932 58.62068138667382,246.63822784635704 59.0255482312059,246.6960893565556 59.36575288895983,246.79445388901513 59.54517589334864,247.14696352771716 59.74848312896211,247.42113730183337 59.949751466629095,247.54398128500907 60.15334997337777,247.5795882238308 60.54074055107776,248.21472603047732 60.73676600889303,248.45151134638581 62.74886684445664,250.45571973768529 63.80239445331972,250.65333556866972 64.09803463111166,250.6973985339282 64.38231523556169,250.714756669302 65.2130204444984,250.9849202929763 65.40030776895583,251.33475276420359 65.79905791999772,251.33074705197942 65.94207203562837,251.6231638500467 65.74779420439154,251.70683860074496 66.02654065773822,252.13010773120914 66.29567516443785,252.11631032754667 66.58898517326452,252.636160294991 66.87297450669575,252.74920969770756 67.06870869337581,252.96640681300778 67.27114211558364,253.45064879214624 67.73688462225255,253.73015562747605 68.59584312897641,253.9936394537799 69.17401628440712,254.13250242493814 69.78306417784188,254.58024589705747 69.8363667910453,254.86998795799445 70.02307157334872,255.09786470339168 70.53250474669039,255.58477242966183 71.14970823109616,255.81309350719675 71.68855978676584,256.07568470790284 72.7534469688544,256.9862951632822 72.64829809777439,257.465632588719 72.93986048002262,257.7553708619671 73.21249023999553,258.7772404454299 73.62143488007132,259.0442787554348 74.03795256884769,259.86898003006354 74.77224704006221,260.06391706399154 74.87914353783708,260.78758591698715 75.55926158220973,260.969170349068 75.47712312894873,261.6630173299345 75.94024419563357,262.5718245082535 76.81638769782148,263.37247964181006 77.66427790222224,264.19538453174755 78.03477475559339,265.1157526184106 78.43206855119206,266.16696137643885 78.02312391111627,267.3418881868711 77.80525312002283,268.320544039947 77.77030058670789,269.5991542667616 77.73097898671404,270.25514563993784 77.41757127107121,272.3548389769858 76.962314524455,272.96097818773706 76.2283113244921,274.4189097370254 76.43045347556472,274.5751161176595 76.00898417783901,275.5070117149735 75.12905415112618,277.3075973162777 75.83946439123247,277.8767858041683 76.20442709338386,277.8807910346659 77.35815196449403,277.6079901725752 78.68314424890559,277.28223078971496 79.82958734221756,277.0570471101091 80.47329649783205,276.961366228119 82.08752099552657,276.6921244537807 83.0565799822798,275.79183097882196 83.46319445339032,275.39174881461076 83.91408213332761,274.86928224924486 85.19538375118282,274.2324410069268 85.27227932447568,274.3299032028881 87.63507057784591,274.59647766535636 90.80031374224927,274.4585176331457 90.93866752006579,274.3472594799241 91.11284764448646,274.288960185193 91.04818545782473,274.25602775235893 92.0495755377924,273.35038392443676 95.39016391115729,271.20575111720245 96.26485105778556,271.0215048698592 98.26209706673399,270.04731140634976 99.71000575996004,268.75223714800086 101.61258865788113,268.20527738681994 102.09551616001409,268.14163592702243 102.91544433776289,267.78248412837274 103.52332714665681,267.2880375115201 104.64413838228211,266.4771604639245 105.40552106674295,265.2234550160356 106.64750108448789,263.4650510319043 106.7156585244229,263.48240816325415 107.16013824008405,262.54734640114475 107.57024796446785,262.16059194889385 107.8591889066156,261.3034099303186 108.63426133338362,261.05284155672416 109.39680910226889,260.74486014660215 109.97265208896715,260.8040531388251 112.94973411562387,260.2032212773338 114.49026702228002,260.42308142228285 114.55900700448547,260.4097295978572 114.07899221335538,262.33950490981806 113.66130944003817,262.9131825551158 112.86380913772155,263.4499191726791 111.0657925689593,264.3217796027311 110.38014037336688,264.9074684937368 109.34175886225421,266.1033193289186 109.0956347733736,266.8710281176027 108.86873457778711,268.14475124375895 108.46299391996581,268.85860263975337 108.43823587556835,270.17770849657245 108.9354356622789,271.75626374688 109.00417564448435,271.94718494452536 109.63506887119729,272.4963606155943 112.96895800891798,274.6231795970816 113.88500565337017,275.88083692337386 114.04200078221038,277.27110511926 114.67813688889146,278.75926982285455 114.70609891554341,280.29637677926803 115.62855452450458,282.3661584946094 116.52013539557811,284.2476804830367 116.66810112004168,284.3393530935282 118.0548428799957,284.8684724169434 118.74981575109996,285.45455180178396 119.816741831135,286.2257533594966 120.3972451556474,287.47711449331837 121.1906676623039,289.2580223385012 121.6497109333286,289.93843036307953 121.81835690664593,290.23880603100406 121.97476949333213,290.6161662908271 122.17691164440475,292.272449801676 121.73650972440373,294.79556603054516 121.60252501338255,295.2788262714166 122.14603690674994,295.93652128992835 123.1582040177891,296.1002772550564 123.85026417777408,295.8065844050725 124.31047253333963,295.2365521673928 124.88718933332711,294.9464180978248 128.09437553782482,293.49040210043313 129.30577208881732,292.4246385819861 130.22414990223479,292.20125033624936 132.13721855997574,291.6837185318582 133.89999132440425,290.5774512938224 135.48537998227403,289.89749024040066 137.3509714489337,289.55172390129883 138.88043605338316,288.42497577972244 139.8876515555894,287.51627504022326 140.08688099554274,286.66675661690533 140.35514168895315,285.605410252756 140.9237028977368,284.61259064858314 141.61459797341377,284.22053470270475 141.96761856006924,284.25391066167504 142.2786961067468,283.958421996329 143.20115171559155,283.7710712973494 143.76068351999857,282.85701121238526 144.13991850672755,282.4306858860655 144.7897443555994,282.11472399614286 145.6655965866521,280.9189599037636 146.1724083200097,280.31284254568163 146.95680142228957,280.0164585620514 147.11670926224906,280.34532905422384 147.7030380088836,280.55804881383665 148.4891787378583,280.37915061967215 148.64471751113888,280.53223764064023 148.8987059199717,280.5553786926903 149.07084714667872,280.71647594938986 150.6311864888994,280.1811163799139 150.96236174216028,280.37959564023186 151.24372963560745,280.19357696641237 151.60519708448555,280.1851215685019 152.06074510223698,280.4779451627983 152.6240634311689,280.29815686214715 152.7059106134111,280.13794934225734 152.92145123553928,280.10190263413824 152.91649962670635,280.1610904355766 152.96193791995756,280.24030416004825 155.1045282133855,280.2839161984157 156.3639844978461,280.81304524315055 156.5206883555511,280.84241654066136 157.17546581337228,280.995058221044 157.96510179550387,280.7836739416234 158.82027377781924,280.28124607389327 159.3407752533676,279.94258501473814 159.5528206222225,279.7467754924437 159.7986534399679,279.212303616805 160.8009173333412,277.8447439579759 161.43297564447857,276.92086872598156 162.59194339555688,276.02146624267334 163.6210042310413,275.2555694031762 164.6456959999632,275.0375041574007 164.82162375107873,274.9057748434134 165.24425813334528,274.7019502769108 166.2205988977803,275.27515076159034 167.51413390226662,276.435788178409 168.81611576885916,278.18118311086437 169.74760078219697,279.3199991362635 170.76471950218547,280.73027156543685 172.2187448889017,282.96114483079873 173.09925745776854,284.0892558819032 174.93368291552179,286.3401205855189 176.34780415997375,287.37787807628047 177.07161287113559,288.609652504907 178.35291448887438,288.1544129730901 178.49243335111532,288.0743120786501 178.82972529774997,287.78283357818145 179.09449073777068,287.61996145464946 179.5567379911663,288.2856893762946 180.37142328894697,288.9638753817417 181.14125283563044,289.8391950526275 181.75699996447656,290.61794629052747 181.75612615118735,290.7154012520332 182.04768853331916,290.56009629298933 182.24080128001515,290.2646160693257 182.73013674665708,289.7924698909046 183.26083271112293,289.4894236025284 183.66045667557046,289.71325959434034 184.2060074666515,289.397753130761 185.16953230230138,289.0230608069105 185.54934983106796,288.8170242580236 186.06577351118904,288.6563779169228 186.79307747550774,288.5139766304055 187.1790116977645,288.4432209570077 187.5439744000323,288.43387586646713 187.96690005331766,288.24786398001015 189.3283012267202,287.81754401524086 190.348915199982,287.931910416577 191.56555463117547,288.2434139329707 191.66196536889765,288.2812393300119 191.7531332266517,288.4895014000358 191.99721841781866,289.27404243388446 193.71863068453968,290.1604858962819 195.41353728005197,291.0843057165621 195.6381073066732,291.16574051533826 197.40554040891584,291.60895889322273 198.86743011558428,292.18122548249085 201.8404343466973,291.98587181355106 203.20125297782943,292.30626953969477 204.60314083553385,291.9431520815706 207.2863303112099,291.57157906435896 210.5089538844768,290.7794812032953 212.56008504889905,288.1815582696581 215.57765376009047,285.2280414267443 212.84698709344957,281.9442823943682 211.68073756445665,280.7369468631223 213.25185393786523,279.4174590858747 214.64267349336296,278.50249092368176 220.21585493336897,274.34592438169057 223.44139121775515,270.9645398153807 224.10024647112004,270.3802021187148 225.53038762661163,269.3232278692303 228.5351404089015,267.0410363114206 231.3741599288769,264.0195884500863 231.7123256889172,262.94211117899977 231.88184547552373,262.27942221518606 232.46089244447649,261.62563242949545 233.48471039999276,259.989591776859 233.4820889600087,256.59908589796396 233.91375274665188,254.94208960991818 234.4729932800401,254.40399708400946 237.35570346668828,253.3763212779304 237.3262850844767,253.0086890134262 238.61370339558925,252.39581885264488 237.93970204447396,250.20068823476322 238.10689166223165,249.51659704121994 238.43107640894596,247.55021249968559 237.55842816003133,247.70732806972228 237.50629063113593,247.48923560528783 239.96898787561804,244.21381693670992 241.4096147911623,241.93537161446875 242.5423681421671,241.35140215803403 242.91723406221718,241.2810764637543 245.9283948088996,240.17144086561166 246.248793031089,240.0432515561697 247.27523242670577,238.54903942608507 247.93117496895138,237.8097189295804 249.27102208009455,237.11668717261637 248.64828444446903,236.26652963651577 247.07425535994116,235.4355086075957 246.18354830227327,234.389494830044 244.98351132450625,233.8428950200905 243.96347989328206,232.90548209659755 243.6701698844554,231.75885954569094 244.49446712888312,229.034716863418 249.9552179200109,225.28852063877275 250.23891598230693,222.50865593698109 250.82087566226255,219.21194474108052 250.84272099554073,218.85805504652672 251.56711224885657,219.33569471421652 252.51519971550442,219.43318115489092 253.81892920890823,220.72498371463735 254.82876615121495,220.85852593253367 256.67251228448004,222.0893362365896 257.43360369780567,221.4941857821541 260.4310747021809,219.3045346555882 260.6250612621661,219.19814527931157 261.55305102223065,218.46365655469708 262.25705329782795,217.88852791965473 263.5727249067277,217.49991461099125 264.14915043557994,216.86112721584504 266.25445802661125,215.26392806251533 270.0179720533779,212.93488115427317 274.11382641782984,210.89115785690956 275.07909888005815,213.31771547638346 278.14909639116377,215.21095498284558 282.12407324439846,211.25841512647457 283.2539138844004,209.2560765586677 285.2619369244203,208.5126514339354 286.5385782044614,208.4774833569536 286.6373191111488,206.96792175911833 286.72703061334323,204.20785910869017 284.6164801422274,201.67035169829614 282.00494335999247,201.2149328063242 280.1428471466061,201.07470099348575 277.3679072711384,201.0105949921999 275.8929103645496,200.9211136676604 275.2643473066855,201.57597366697155 273.96964721777476,201.38810784276575 272.6367906132946,201.41125719470438 271.54073742218316,201.25677974283462 269.4555275378516,201.6000133579946 267.8159624533728,202.34969426167663 265.73657799116336,202.41290951834526 263.89690965332557,199.7244644066668 262.33453141339123,196.60370794142364 260.9058466133429,194.78821761230938 261.51955484447535,194.5117524728994 261.7301438577706,194.39555687620305 261.3721716622822,193.29726060800022 254.6752662755316,195.48761499323882 252.22421987564303,196.2511175601394 250.40494051552378,189.62124504667008 250.30357816885225,186.77637566172052 249.99395697773434,186.01729242049623 249.3551994310692,186.42287915752968 248.1816681245109,186.38058419781737 246.0813121421961,185.79913898243103 244.79272874665912,186.1236977946246 244.33426801778842,187.28124248294625 248.26176768005826,189.50549207860604 248.13506474671885,189.64884766854811 243.82017450674903,189.9498050637776 240.23491840006318,190.7734289726941 236.2721749333432,192.18871930992464 234.59503587556537,192.46029018308036 234.15812920895405,191.6420149647165 235.13854776893277,190.64120415237267 234.30376476445235,189.59097119932994 232.85323463112582,188.34350699617062 231.07822848006617,188.89021951367613 228.8709759999765,189.1034726446378 228.3490181689849,187.63340198923834 228.39212629338726,183.98890233784914 228.0810487465933,183.05840108770644 228.1660999112064,180.5865433033323 227.98492928000633,178.45570131123532 228.55203413334675,176.06972155551193 227.4253974755993,173.232246473548 226.77528035559226,173.311498587369 225.82981432892848,171.16144098364748 224.30850531556644,168.46860787342303 223.9752911644755,166.4445089700166 224.1357815467054,164.673741138482 224.4451114666881,163.29612113372423 222.6610759111354,162.3512843415374 222.36805717344396,161.80895866232459 221.94367516448256,160.59606783639174 222.50699349329807,159.04165211471263 223.81800476438366,158.45256532321218 228.72767061332706,155.81300972995814 228.7882550044451,157.20715141133405 228.9746685154969,157.18043526896508 229.17506303999107,157.135017819528 230.25363996450324,156.44663062796462 230.31451562664006,155.67141324398108 230.34073002671357,155.17671537370188 229.26360945787746,153.73536160978256 229.32827164442278,153.15516619483242 229.39730289787985,153.0634390747873 229.15583914669696,152.6172706944053 228.7993233067682,151.53969463764224 228.25318997330032,150.10410579759628 228.32047359994613,149.21843544294825 228.3230950400466,148.56831818900537 226.53032135113608,147.3130521256826 226.54546744888648,146.97819455876015 225.82020238228142,146.4108948081266 224.18588017777074,146.09340223891195 223.0219608178595,145.68996782420436 222.50728476443328,146.10453452466754 222.05144547566306,145.9388860546169 221.66347235557623,145.38004419661593 221.19452586665284,145.27718151709996 220.96383914677426,144.81941974710207 219.8217651200248,144.27883215347538 218.62871864892077,143.7939052527072 218.22618197335396,143.81171709531918 217.69257329776883,144.29130041599274 217.09779768891167,144.202241382387 216.67865856003482,143.4710653568618 215.418328462285,142.73365273314994 215.07346346671693,142.83918838651152 214.63073137786705,143.04001769726165 214.0930449066218,143.47774480772205 213.88857258670032,143.65274634945672 213.76769507559948,143.62691915873438 212.91368817782495,142.62945292447694 212.4951315911021,142.05991549417377 211.76171093329322,141.3505521195475 211.08101034665015,140.8121825370472 210.404678826686,140.8861026733648 209.28299377777148,142.18994293379365 209.2690127644455,142.57111882208847 208.49976576003246,142.91132665227633 207.3355551288696,143.597084296518 206.62106709333602,144.11362760822522 205.63365802669432,144.70898680423852 204.71091114671435,145.1146494798595 203.9605967644602,145.39963708253345 202.71512149332557,145.72648178611416 201.2704167822376,146.19047575176228 200.05144718219526,146.7684630312724 198.87849841779098,147.1598726634984 198.77975751110353,147.10198504826985 198.01720974221826,146.3837320676539 197.08892871113494,145.5229831651086 196.58648604445625,145.06833895965246 196.18890097772237,144.72991563240066 194.80885845341254,143.59619370358996 193.38308636448346,142.85032083652914 192.55558513780124,144.95300791040063 192.09683313779533,145.9531353903003 191.51312583114486,145.55994244723115 189.775402382249,147.22443960094824 189.07518663117662,147.43372540624114 188.5721614222275,147.42081203253474 185.20885390229523,145.72113827988505 185.4241032532882,145.45574397343444 185.28167168004438,145.4000823753886 184.91263118223287,145.20548931823578 184.69592547556385,145.04963663138915 184.1541612088913,144.22227966814535 183.48540273774415,143.80815472692484 183.08344860444777,143.97959364089184 182.86353891552426,139.9919345434755 182.2943951644702,139.1823708298616 181.45174784003757,137.67010854301043 178.33019534219056,131.8413893490797 179.6537312711589,129.8196263454156 180.7194922666531,127.85930012073368 181.7401062400313,124.8105618909467 182.15254613338038,122.16303300316213 181.99555100454018,119.32130179926753 181.47242808900774,117.96388460096205 180.95221788447816,117.1956575839431 180.82871893339325,116.7409549994627 180.56803128891625,116.3650786979706 180.54123434668873,115.92863384773955 180.18821376003325,115.66186764166923 179.90422442671843,115.36570778628811 179.51275605335832,115.14303094148636 179.0432270221645,114.5992531417869 178.40126549336128,113.55222102347761 177.84173368895426,113.13180349598406 177.60726044455077,112.59336504759267 176.99238712899387,112.0691768093966 176.56684003560804,110.8604661328718 176.07197041786276,110.29574568400858 175.7084640711546,109.75685494882055 175.24184775108006,109.02422865608241 175.02106424886733,108.28135647188174 174.44638634670991,107.64937870565336 173.9730707911076,107.05703708372312 173.32907036447432,105.65767935616896 173.00983722670935,105.02613944798941 172.3594288355671,104.65647843724582 171.88815217779484,103.29095420055091 170.80491491558496,100.20847262133611 170.84219761774875,98.01004592108075 170.47723491559736,94.17922613734845 169.67332664888818,92.94146651827032 171.16317838220857,91.85380011965754 175.120678968844,89.21255677071167 176.9122875733301,87.85450888320338 177.75202218664344,87.3712395792827 178.19184156449046,87.5502943204483 179.8398535111919,86.74009272817057 180.85435079107992,86.10671700851526 182.8087799466448,83.71082995564211 181.66670592001174,82.59594744676724 181.02037532441318,81.98349460936151 180.65424753783736,81.68328074296005 182.03924167109653,80.05525926256087 183.2529683910543,78.58446181041654 182.7269327644026,77.98313355882419 184.2208622932667,75.93103287927806 184.3801875911886,74.63526422751602 182.86936433776282,74.52479614573531 178.53728910232894,74.87980829249136 175.38224042672664,75.0953988279216 175.02630712895188,75.0526370856096 174.04617983999196,75.80542071338277 173.19304675562307,75.963549492124 172.32068977772724,75.75107783928979 170.6420943645062,74.63882771309 169.74585315561853,74.05842423893046 166.9024645689642,72.61564950807951 167.06907164445147,72.42990104138153 163.09263843554072,70.03965621511452 160.13944063999224,67.74782987305662 158.62628721783403,66.06046029261779 157.134979128954,64.15168584889034 155.73600398225244,62.57342649967177 154.348679680028,61.481155725894496 153.17631345777772,61.08023932145443 152.02346239995677,60.30602313566487 150.40952917339746,59.0560458136606 147.6511917511234,56.9115564582753 146.73310520884115,56.51196816470474 145.72210318222642,55.66690558742266 144.01962353778072,54.53539870091481 142.8562867200235,52.147632836014964 142.57491882669274,51.72843470610678 142.2277236621594,51.34398343600333 141.7281937067164,50.49489169794833 141.1538070755778,50.062325867358595 140.33679160883185,49.778551530092955 139.89697223110124,49.16734402504517 139.86260224005673,49.11700397275854 139.9205651911907,48.876440732739866 139.34443093335722,48.7160650936421 138.93606883555185,48.98870361078298 138.65324458666146,48.851938906591386 138.58188316447195,48.648350899806246 138.65936128003523,48.45857285131933 139.15452216891572,48.43496195587795 139.16209521784913,48.38996760104783 139.04791694227606,48.099063283530995 139.29724501341116,48.02466655871831 139.43589006224647,47.435283235565294 139.1093751466833,47.10472893639235 138.8562605511397,47.074435525690205 138.78955946676433,47.01830360671738 138.710042453371,46.72160608298145 138.77150065777823,46.618251896928996 138.86179470224306,46.64275397127494 138.96111815120094,46.796448739245534 139.0423827911727,46.81827784248162 139.17869767115917,46.664583089761436 139.22413596441038,46.25250242714537 138.63780721777584,45.815473337250296 138.61508807120845,45.72281058510998 138.8859702044865,45.725038055563346 139.008304071147,45.48135265382007 138.784607857815,44.839839522726834 138.89150435558986,44.305689318454824 138.92820451559965,43.657935792231 139.12568632897455,43.498892854200676 139.2171454577474,42.97810439195018 139.7015293155564,42.98122288938612 139.84512597334106,43.05651231436059 139.88532138674054,43.42182158533251 140.27649848884903,43.37058922403958 140.54097265785094,42.574926850851625 140.7186480355449,42.516120783169754 140.84360334230587,42.3125269280863 141.0684646400623,42.19491463736631 141.29827754665166,42.19580563972704 141.52139121782966,41.89865612692665 141.49546808889136,41.384991931845434 141.56246044440195,41.2170372910914 141.80363292444963,41.11546253913548 142.00868778664153,39.91616412397707 142.3646210845327,39.553522085770965 142.54957824002486,38.838928412878886 142.88191857771017,38.62998506228905 142.67220337782055,38.37470858928282 142.86968519119546,37.89623147214297 142.86910264892504,37.62758883682545 142.66783431114163,37.48012482991908 142.57113230228424,36.95754010824021 142.6888058311306,36.85863646661164 143.17785002675373,36.79982887482038 143.22387086227536,35.660205932566896 143.0651281067403,35.48333663691301 143.30571804451756,34.68408167816233 143.11551800894085,34.350389648228884 143.14988800010178,33.8919521109201 142.89123925333843,33.64067982020788 142.17762503121048,33.69503307051491 141.61809322668705,33.36000298697036 140.9717626312049,33.26421636680607 140.7180654933909,33.14838132879231 140.57184739562217,32.90512755094096 140.8153500445187,32.61999457591446 140.3455297423061,32.228827176149935 140.2345554488711,31.830530728097074 139.62463374226354,31.407729796716012 139.6421100088628,31.037499864352867 139.25180672004353,30.771522020339034 139.05170346668456,30.711821756733116 138.41527608886827,29.79002981353551 138.2929422223242,29.02817856206093 137.1604801422218,26.363460589316674 136.59890944010112,26.050250527099706 136.21705301338807,25.44967010244727 136.29074460454285,24.959581007016823 136.79464362666477,24.61607245542109 136.65308586671017,23.295943172473926 136.63124053331558,22.16872561670607 136.62891036446672,20.94838359404821 136.73522432008758,19.7507576943608 136.49842090671882,19.22946760384366 135.7865543111693,18.88862341688946 135.94121927116066,18.270647057448514 135.63480206218082,18.078615117934532 135.4661560888635,17.593856253195554 135.13643719116226,17.46152759110555 134.71758933342062,16.563740127370693 133.92970097786747,15.470795914996415 133.8050369422417,15.040389165806118 133.19482396449894,15.152669268311001 133.00287630222738,14.402351942379028 133.19074616895523,13.585643780475948 133.82484337780625,13.392716642701998 133.60813767113723,13.067012477433309 133.32152689772192,12.889233940746635 132.0011949511245,12.698979558539577 131.06330197339412,11.533834972418845 130.6159095467301,11.600223873276263 130.41813646222,11.249119929270819 130.09715569776017,11.285656152525917 130.04880469327327,11.19431558297947 130.09686442674138,10.562059578835033 129.95035505783744,10.214964074431919 130.04793088010047,9.973467265022919 129.75287324446253,9.806379834422842 129.60345116443932,9.40269607969094 128.83799068443477,9.460174275271129 128.71886080002878,9.316255974350497 128.7910960355075,8.728551473119296 128.49516458669677,8.633645292371511 128.3728307200363,8.311944225395564 128.04019911109935,8.459873306099325 127.70086826675106,8.490172021265607 127.48387128894683,8.190303671988659 127.55232000001706,7.8922171969898045 127.35192547552288,7.653391270025168 126.94501973327715,7.730475039687008 125.9855726932874,7.399861225101631 125.25593856000341,6.584018276305869 125.85187925340142,6.391085013165139 125.72663267562166,5.891596496978309 125.15894528001081,5.666135654377285 124.88485916447826,5.381413035560399 124.60057856002823,5.171992408460937 124.50387655117083,5.196053511812352 124.13512732437812,5.838573118031491 123.55928433779627,6.00254453450907 123.34374371555168,5.749903741409071 123.02917091560084,5.731189597048797 121.99311957333703,6.046210815140512 121.6939841422718,5.663462204276584 121.6121369600296,5.675938304513693 121.06192583113443,6.0542311514145695 120.9005616356153,6.08453019708395 120.57288163562771,6.030170141602866 120.17966563557275,6.332269296632148 120.04102058662102,6.381282394868322 119.69149525335524,6.303307006251998 119.23827740445267,6.571542227407917 118.64117162663024,6.449900714040268 118.29193756449968,6.306426022259984 118.13115591113456,6.1981515812221915 118.3487354312092,5.807828463846818 118.24125639116392,5.654550703591667 117.7903687111102,5.624251598899718 117.80201955558732,5.375174977234565 117.52036039112136,5.164863192127086 117.31268408894539,5.315467838314362 117.08461880893447,5.713366600917652 117.11811498668976,5.980711390962824 116.88247665774543,6.056459022627678 116.46625023998786,6.00254453450907 116.26294300449081,5.83010719914455 116.43333660450298,5.635390976094641 116.39809280005284,5.561425500782207 116.17585294216406,5.584149836213328 115.87671751109883,5.736536495562177 115.08038229332305,5.402800662908703 114.84620032005478,5.55162284563994 114.60531911114231,5.392998000665102 113.59868615109008,5 113.37469866673928,5.311012080986984 113.5730542934034,5.467409107834101 113.49703253328335,5.67237370449584 113.27799665776547,5.64029230189044 113.30916266667191,5.702227227680851 112.33311317337211,6.637932622223161 112.06339612440206,7.181531075853854 111.59037184005138,7.538879493251443 111.07190926221665,8.303032831754535 111.0888029866619,8.791376668959856 110.87850524438545,9.097482154204044 110.97870250663254,9.382199975312687 110.90471964445896,9.478442535852082 111.29473166225944,9.821083533461206 112.4778749155812,10.16728852596134 112.46535025781486,10.801327920460608 111.95154801779427,11.5953226799611 111.68153969780542,13.036268830939662 111.4205607821932,13.149441073590424 111.039869440021,13.66138880001381 110.86452423105948,14.596614867914468 110.58752540452406,15.294355982739944 109.9746909866808,15.806298730021808 109.92808760888875,15.95377722964622 109.43001400888897,16.519184823147953 108.91096888890024,17.127363949723076 108.11900273780338,17.98059410986025 106.91925703117158,18.917584054521285 106.72556174220517,19.09535773168318 106.09350343118422,19.678133593173698 105.98311168001965,19.773480567731895 105.70028743112925,20.33665064163506 105.4783388444921,21.21259111072868 103.90081450669095,25.721000778721645 103.62235932447948,27.127994235837832 103.2093368889764,28.179891966632567 101.5674416355323,26.943989585270174 100.6729480533395,26.666422957438044 99.39630677329842,25.85020574531518 97.96441799111199,26.500239239423536 96.91525944892783,27.291949824255425 98.04917788447347,27.748618959099986 97.90412487112917,28.423596485401504 95.48540956445504,30.56479865044821 94.29440199106466,31.697765085613355 93.75555043562781,32.20209589344449 92.46813212451525,34.35662688704906 92.37172138667665,34.88010880345246 92.02423495112453,36.255857907934114 91.82500551105477,36.76819751225412 91.68869063118473,37.40438799042022 91.60888234665617,38.04725927760592 91.45479992893524,38.65671556594316 91.2145012622932,39.20691771310521 90.20408177783247,40.71673663513502 89.03608462226111,42.71793244977016 87.80022129777353,44.79439893853851 86.47406392893754,46.91049464273965 85.50587875558995,48.30577021942008 84.96324067551177,48.96642923471518 83.07230862218421,50.70516026078258 82.67035448888782,51.4745098403655 82.52180622227024,51.64201118820347 82.24772010662127,51.58231657347642 82.13499818660785,51.43040707078762 80.99816704005934,49.37939580029342 81.27982620440889,48.35878338938346 81.216911644442,48.19306150462944 80.04745813331101,46.822287269402295 79.38219491555355,46.28056848590495 78.46090439113323,45.85601327905897 78.13904981338419,45.888088832143694 77.18804963561706,45.650195035734214 75.5132407466881,44.79974489007145 74.58437717333436,45.22964807134122 73.69949553778861,45.67826117109507 73.4941494044615,45.76290504995268 72.3436285154894,46.14602956868475 70.86134983110242,45.80567247106228 70.50512526219245,45.72102860873565 69.82617230224423,45.92640129220672 69.4192665599985,46.05203047511168 69.25003804452717,46.109944613301195 68.66370929777622,46.13177378452383 67.81436273781583,46.161621831473894 67.42901105782948,46.18077803857159 67.01773624890484,46.27076764043886 66.75005809776485,46.17142268177122 66.13576732447837,46.245374538586475 65.3507916800445,45.97896954056341 64.73300565336831,46.12108194583561 63.908999680075794,46.12910082482267 63.10800412448589,46.17810507956892 62.837995804380625,46.190578888054006 62.23972494225018,46.2132990375394 61.56339342216961,46.41688929189695 61.086000071140006,46.42134421877563 60.49180700443685,46.23468270548619 60.02227797335945,46.09257037343923 59.64595569774974,45.81859179458115 59.43798812443856,45.95446739246836 59.18341717333533,45.80121753172716 59.095744568970986,45.54372188646812 58.799230577773415,45.51877419545781 58.16542464005761,45.04387654038146 57.643175537814386,45.17618865403347 57.07985720888246,44.7641052104882 56.95839715562761,44.32618217752315 56.24099640885834,44.28564195445506 55.85651854227763,43.98225829063449 55.67680426663719,43.66595476085786 54.65444266668055,43.49532886547968 54.47676728887018,43.19951760105323 54.16598101332784,43.084578779758886 54.03432647115551,43.0654223037418 52.87681507563684,43.132247212924995 52.79322026669979,43.6882296721451 52.619622684433125,43.76574634597637 52.47544348449446,43.92434359388426 51.56929905782454,43.84549048205372 51.39133240899537,43.903850697446615 50.969571840018034,44.255348156555556 50.8932588089956,44.584570237086155 50.49188721785322,44.87102423195029 50.43450680898968,44.83761204330949 50.06634012446739,45.0563504131278 48.90999381337315,45.14500398794189 48.53600170672871,45.322311030642595 48.23366229329258,45.07105176214827 48.02074311114848,44.767669178778306 47.72685056005139,44.77479711500928 47.49762019549962,45.19534494669642 47.391597511130385,45.5659966081148 47.43033656885382,45.95491288608173 47.09537479118444,46.46322052704636 46.77497656887863,46.58884940412827 46.11320860439446,47.02498597872909 45.95650474668946,47.21699271618854 44.50539207120892,47.93779609980993 44.30878407112323,48.03223987913225 44.026251093368046,47.96185253805015 43.785952426726,48.3650202320423 43.13146624004003,48.66572493838612 42.366879573324695,48.49866681883577 42.084929137839936,48.92188047606032 41.62850730668288,49.29519879631698 41.11120981327258,49.56694562488701 40.74915982224047,49.86052092094906 40.44390769780148,49.99773048516363 40.0498178844573,50.24185638211202 39.65310663112905,50.60448084684322 39.340281457756646,51.156435122480616 38.874830222222954,51.473618875432294 38.86667463113554,51.71818862069631 37.649161386769265,52.554802201571874 36.40805518219713,53.237722436664626 36.18639786669519,53.771405532141216 36.06872433773242,54.65478631563019 35.73754908447154,55.055714399553835 35.26452480000444,55.54529114929028 35.14889016887173,55.854450065642595 34.97441877331585,56.41396423627157 34.29255310224835,57.10667288710829 33.84632576000877,57.3561365630012 33.032805546652526,57.714740102761425 32.78493383107707,57.989149374188855 32.76687502220739,58.215893141168635 32.2050130488351,59.191467790165916 31.820243911119178,59.17142177908681 31.650141582242213,59.50240346096689 31.08303672890179,59.91535030025989 30.84244679112453,60.253012837143615 30.402044871123508,60.58622021635529 30.10349198221229,61.074002838286106 29.964555662241764,61.35330801829696 29.64124472893309,61.6847318878863 29.39453809778206,61.91815377678722 29.038022257736884,62.5235349672148 28.745877333334647,63.10708700702526 28.35091370670125,63.18816052703187 27.987698631128296,63.15519657195546 27.652445582323708,63.47236307070125 26.92688924446702,64.36149593652226 26.227256035548635,64.71028806082904 25.445193102234043,65.11030695738737 25.091881244443357,65.64930677320808 24.614779164432548,65.36911612434778 24.348266097833402,65.47825242887484 24.149327928898856,65.06620691419812 23.617175608989783,64.8305610793177 22.80773319117725,64.77176094509196 22.74831388448365,64.8100701252115 22.740158293396235,64.87109752628021 22.944630613317713,65.13837061671074 23.17182208003942,65.32679795078002 23.08269311999902,65.56244325556327 22.755304391146637,65.79764285509009 22.411895751138218,65.85198818135541 22.21616156445816,65.95488790195668 22.03761237335857,66.55402168503497 21.975571626680903,66.5945578153478 21.38633016892709,66.45691312290728 21.114865493378602,66.58253061264986 20.754271857789718,67.13533580757212 20.43008711107541,67.27743458229816 20.017647217726335,67.03911840345245 19.55773013329599,67.47699634329183 19.00577137770597,67.84092882217374 18.434879999957047,68.77414338907693 17.196395235601813,69.25077174010221 16.627542755566537,69.63652813748922 16.219763200031593,70.05391045415308 15.751690524513833,70.79112062085187 14.80360305774957,70.92341729032341 14.615733191138133,71.0561593233142 14.301451662206091,71.27932611835422 14.377764693344943,71.35416044213343 15.469740088912658,72.30785040493356 15.519838720094413,72.56754200649448 15.8848014222458,72.87979513977189 16.25646336004138,73.05218006111681 16.349378844490275,73.35463286621962 16.73181781335734,73.73191877373029 17.062119253329,74.60675634071231 17.221444551134482,75.34974193677772 17.718353066709824,75.88337153400062 17.76816042663995,77.129690055619 18.16603676439263,78.54615502257366 18.874408106668852,80.00848965812474 19.108590080053546,81.23741340101697 19.85715683561284,81.81824340706225 20.87369301333092,83.05116583581548 21.080786773352884,83.63377273624064 22.134605653351173,84.67649271269329 22.863657244481146,84.73929627879988 23.749121422180906,86.06930235214531 24.522446222254075,86.4492389842635 24.988771271076985,87.07504174066707 24.938381368876435,87.8059592959471 25.53403079113923,87.97343305649702 25.90307128895074,88.20460008637747 26.284636444412172,88.53108413005248 26.749213866656646,89.00544275942957 28.219841706682928,89.60674096446019 29.331623537815176,89.74748904834269 29.66221624892205,89.89669973542914 29.92639914667234,90.51313923543785 30.118055537808686,90.8378382504452 30.413695715600625,91.02891604823526 30.576807537814602,91.37944761535618 30.898079573293217,91.765610717237 31.690919537795708,92.4938403328415 32.91513201780617,93.86165839072783 32.9829981867224,93.96721742593218 33.18863559118472,94.33645095350221 33.46476060443092,95.23882124375086 33.60748344892636,96.3313702630112 33.50612110225484,96.56698244868312 32.89212159998715,97.05691246374045 30.302138880011626,95.97015714203008 30.33126599120442,95.86682602937799 28.826268160017207,95.39693609217647 27.732836408889852,95.46463593631051 26.916986026684754,95.60048095567618 24.809348266688175,96.26456146896817 23.611058915616013,97.23417778301518 23.329691022168845,97.63235614646692 22.659184924443252,98.09734205051791 22.1206246400252,98.56499929877464 21.658959928900003,98.85494629479945 20.679997724480927,99.04601714841556 20.08085304882843,99.38451056194026 19.968713671085425,99.32839195302222 19.373938062228262,98.75072575948434 14.88719786668662,98.00648281298345 11.794481208897196,97.44751952349907 9.812381297815591,97.09788837935776 9.669075911166146,97.14198201918043 9.29217109340243,97.33928981458303 7.315896604442969,99.87220739584882 6.318293048883788,101.37448502250481 5.87119189335499,102.18596900755074 6.014497280004434,102.39618830173276 5,103.95812919863965" stroke="red" stroke-width="3.356104612903239px" fill="none" stroke-linejoin="round" vector-effect="non-scaling-stroke"></polygon></svg>