<svg width="321731.4106646756" height="35514.778729591635" xmlns="http://www.w3.org/2000/svg"><polygon points="321242.0125346133,109.28282961517107 321256.84260323556,124.84919517312665 321257.51223552,126.1027150216978 321251.8219630933,139.71049133664928 321250.9825197511,141.81566704326542 321256.43307605333,149.87927515467163 321256.85338026664,150.1716856600251 321253.4827909689,163.35393515019678 321252.04303786677,164.0018550766399 321264.3588542578,172.49314599507488 321264.7436233956,172.59254642407177 321252.5349947733,189.84948079654714 321252.24459747557,190.39345313998638 321253.9453294933,195.58194142288994 321254.0522259911,198.29724175378215 321305.50381141336,205.63532414275687 321305.9675150222,206.09777942777146 321307.44105557335,219.94144037098158 321307.1524059022,220.81615281687118 321315.40586410667,223.43265928444453 321315.5410139022,223.48861502774525 321312.7558795377,230.09666430857033 321312.88695153774,230.78870295651723 321321.48964380444,245.31698281038553 321321.9280068267,246.5904051963007 321324.3574991645,276.3872780962847 321324.61381774227,277.071562885656 321337.7830584889,290.3370475959964 321338.37666901335,292.07964371319395 321340.45139313774,321.0940320191439 321340.5451824356,321.2381099567283 321332.1688078222,329.1282463790267 321331.57927509333,329.7385411517462 321348.70630769775,337.32144663576037 321350.7428753067,338.2073248331435 321352.77245240886,331.4714290249394 321354.1792918756,331.3653890284477 321354.40036664886,334.56804282363737 321355.1993233066,338.72319064399926 321371.7205120001,337.15993007458746 321372.75335936,337.1393490084447 321371.3462286222,327.81592790724244 321371.3680739556,326.6597567622084 321418.05329891556,318.51448402076494 321419.09779712005,318.5046400675783 321437.47001372447,307.8635163443396 321437.9427467378,307.5328327452298 321488.0306008178,309.5424327083165 321488.16837205336,309.57733541779453 321490.8635036444,310.92332285811426 321492.03295715555,311.6969934249646 321488.5752777956,315.89597693493124 321487.661269049,316.76986015954753 321492.0014998755,323.25608605437446 321493.18231296,323.6771292858757 321503.0485393067,318.5216432592133 321504.7134449778,323.22476505913073 321513.92168988445,313.5629199113464 321514.4255889067,313.4564238138846 321529.9724757333,319.0196572089917 321530.04034190223,319.00757602148224 321532.9114012445,306.8173194390838 321533.05965824,306.6011883202009 321532.32856775116,317.10947897005826 321532.4954660978,317.36676559841726 321566.77428935113,316.45708822173765 321567.3023638756,317.087106205523 321595.2696334222,299.13133357971674 321595.63459612447,298.66862650727853 321597.0053179734,293.7094553146744 321597.15386624,293.40694314660504 321587.5835713422,275.95137549121864 321587.5081321245,275.18384467595024 321602.0163461689,262.3113045785576 321602.20450730674,261.8923816306051 321613.0033837511,264.018317822658 321613.30455808,264.2452323238249 321621.47937308456,223.03470162674785 321621.45636266674,222.35427741566673 321627.5427638045,220.6796191178728 321628.23074616893,220.4298293767497 321644.7350411377,235.87373252830002 321645.3583613155,235.774360718322 321641.63941176893,241.71331413584994 321641.3545486222,242.53198905393947 321644.2896876089,242.88470316887833 321648.96429767116,246.47223907103762 321651.08300373337,255.1756308521144 321651.7290430578,256.34336750756484 321636.10234794667,275.3767345965607 321636.20487537776,275.8538119561272 321673.9967195022,290.77247416588943 321675.6202646755,290.94431750802323 321672.40929194674,302.2655442393152 321673.08882744896,304.46760926762363 321707.3889134933,308.48013477167115 321707.4847416889,308.6752328398288 321706.61005454225,296.55108035949524 321706.6939406223,295.9993157245917 321720.4862102756,283.87804426823277 321720.85088170663,283.39203384600114 321724.7967314489,261.3597754477523 321726.4106646756,260.7833061249694 321713.0037467023,229.76407316105906 321712.4337291378,228.139158972539 321712.6833484801,210.2692343291128 321713.3593887289,209.46163108292967 321705.5055544889,204.32271584513364 321705.27049870224,204.00709774217103 321694.4349220978,207.46141248231288 321692.5987490133,207.5008081899723 321694.78153472004,198.7028550482937 321694.7713402311,197.4734773503733 321675.82735843555,148.50319415156264 321676.5622354489,146.65467346669175 321659.98424888885,145.92788890900556 321659.67928803555,146.08954606414773 321649.2520735289,125.19538054068107 321648.28476216894,123.22887917654589 321654.66185187554,108.60474034433719 321656.1010224355,106.56418959569419 321664.5076892445,102.96093199175084 321666.9080544711,101.25445873150602 321663.5196976355,95.54596299573313 321663.6953341156,92.3725216529565 321645.2220464355,91.09238230297342 321643.86821831117,91.92012896313099 321639.447887929,73.8662126994459 321638.36261176894,72.06992252805503 321623.3222454044,55.90802577545401 321621.92123136,54.85166881943587 321617.7065383823,52.044100001396146 321616.64339882665,57.177170565293636 321599.56122197333,67.58674821502063 321596.77375744,50.48327871027868 321596.48481649783,36.196141310501844 321596.1722825956,36.223470996075775 321579.71983388445,35.79829238780076 321579.61526755564,54.13130034809001 321579.2165174045,56.294190621119924 321564.1245960533,62.90547834220342 321563.2400056889,63.36509834649041 321563.3262219377,53.61745398119092 321563.92973568005,53.26264393120073 321560.0039836445,50.580494367168285 321556.14085489773,48.68724530842155 321545.7742247822,53.50366395182209 321544.65399608895,53.741099773033056 321508.21598008886,49.382991594146006 321508.1303463822,49.34311952267308 321507.90985415113,49.15719909389736 321504.9036450134,45.85406124126166 321507.0325455645,30.639631981030107 321506.7447697067,28.811177230847534 321489.23209415114,10.830934733501635 321487.6854445511,9.781530254520476 321451.6913257244,16.919801391428337 321450.6986737778,17.323061307310127 321448.86628721777,5.990727639000397 321447.25089763565,5 321436.4514386489,11.572504900454078 321434.50603889785,12.119159250985831 321435.68102655996,25.773426546656992 321436.34570723557,28.49485883914167 321423.72143473785,39.743147655855864 321423.5268656356,39.81303883099463 321395.75212629343,14.03691949165659 321395.3810468978,13.672187875665259 321385.0176207645,18.80884367413819 321384.67392085335,18.92309974267846 321377.8313799111,44.967899708484765 321376.5291067734,47.669829998281784 321389.6127138134,59.74634874204639 321390.5305090844,60.184024399961345 321389.93485966226,70.6198890490341 321389.9543748267,71.52744896750664 321385.65521322674,71.25195610133233 321380.8335112534,71.02797790680779 321381.82645447116,88.425028096186 321381.10876245337,92.85761099722004 321356.4040206222,89.89823579241056 321354.34444259555,90.2037157502491 321346.3930325333,80.45860613510013 321345.3613502578,80.07965077937115 321333.03359175107,88.511924780556 321331.4936413867,91.4251834184397 321323.6310690133,81.45616042939946 321320.8602069333,79.88614140939899 321310.6971753245,93.01706764835399 321303.8124000711,97.79444273444824 321287.44471125334,82.89223647431936 321283.9852842667,79.67874576116446 321260.37834325334,82.31440288759768 321259.2584058311,82.41070859087631 321261.78197873785,91.20480911567574 321263.51445930667,96.84309674531687 321242.0125346133,109.28282961517107" stroke="red" stroke-width="3.250029182740758" fill="none" stroke-linejoin="round" vector-effect="non-scaling-stroke"></polygon><polygon points="5,35455.09474984952 6.141491484479047,35509.778729591635 55.437088142265566,35509.251281226636 75.2787675022264,35509.07713441225 74.95953436446143,35454.890893115546 54.08209493331378,35454.985306935094 49.34369649778819,35454.99879462074 52.18213347555138,35448.05639577098 52.08397511107614,35443.295454081264 57.71395441779168,35443.15055111027 57.57064903114224,35437.69042380049 46.945661440026015,35437.96443495352 47.06857784889871,35447.246725951205 47.08022869337583,35447.98201878392 29.74377215997083,35450.96209112782 29.83115349331638,35455.065847675956 5,35455.09474984952" stroke="red" stroke-width="3.5057606008064273" fill="none" stroke-linejoin="round" vector-effect="non-scaling-stroke"></polygon></svg>