<svg viewBox="0 0 86.64681249776847 120.9268229974689" width="86.64681249776847" height="120.9268229974689" xmlns="http://www.w3.org/2000/svg">
  <title>Týnec nad Sázavou, okres Benešov, Střední Čechy, Česko</title>
  <desc>Geojson of Týnec nad Sázavou, okres Benešov, Střední Čechy, Česko</desc>
  <metadata>
    <collboard>
      <support-module name="@collboard/map-svg-geojson-import" version="0.11.0"></support-module>
    </collboard>
  </metadata>
  <polygon points="8.052550000000004,54.25111118659663 8.970199635550337,57.157188884615266 9.114233200008705,57.35897683936457 18.211503813341217,62.205954564407534 18.311409804423995,62.27674891168829 12.391761377751784,65.04047944618617 12.270592595544834,65.08947969756957 10.633430497785987,67.82010161081382 10.59927896000557,67.998480329166 11.745139511105329,69.50553144117987 11.621422106669009,69.97201002746408 18.978639102198606,71.12588390918211 20.25418811554085,69.87334088149476 19.890536133323288,74.56004128416646 19.49011117334124,74.62269196334057 21.145477715537375,78.51490788011108 21.258418088873107,78.61694768456039 25.126498444449346,75.38205763237022 25.235288204428464,74.98109761991475 28.383419191122478,76.91260961704359 28.830156257761367,76.99986525219686 28.500000453328205,74.76910236932565 28.516020364426033,74.62415945587384 34.78854374221522,74.13051532257634 34.908037715540225,74.12803185120686 32.89018427555096,77.42214443459636 33.26221030220734,77.78414379632852 29.415611191106684,79.22760226354114 28.77284866665253,79.66024859260472 39.98380091554248,80.78784449083435 40.199924079999285,80.79111775835156 36.608260008862665,86.90941475138936 36.626828542218966,87.16842472610699 41.3144001688703,90.13459385258432 41.587321199978426,90.20388492396853 32.22011508444087,92.6141212544386 31.96568976887614,92.62360038950976 30.81094544888004,97.26693745594059 30.700553697773678,97.46553064145667 18.169706408872692,95.34788076011284 18.018245431106727,95.22228835205135 14.210458195542408,99.24663099404245 14.155772044446742,99.33080446093629 42.281929982221875,112.17059084024334 42.46623177777622,112.33461118497473 64.59460781331984,110.82434197322402 64.62737581332442,110.49459957292822 56.97444582221909,100.92229043687223 56.963159066660985,100.90762257511199 58.92268546665549,96.93643617304735 57.81483579555755,96.314695666391 61.38989741332592,94.39368717619038 61.766074053309815,94.09713449727099 60.458121128882006,92.35107460017718 60.12439725333355,91.68493233952142 51.7262501244328,94.83648201458675 51.444663777779745,94.90102775139496 50.71939871108737,90.62865758348892 50.68772297775252,90.35544472969889 43.08787714667381,87.06877092480829 42.80170327999043,87.08434537008691 44.86528628442432,82.89736828099524 45.037063422212334,82.02839882276714 43.54764859553655,77.37992795115099 43.632626942220334,76.62713710159699 45.71812809777442,75.37381721130043 45.99833090665164,75.02771840326716 43.478981431085806,73.20643040627294 43.392473911087684,73.04974306710176 43.42458655109625,70.2058122918603 43.45677200888861,69.75435062160943 56.019513484446755,71.87050966002391 56.542636399979195,71.8952325057686 71.6671801155386,70.1456401968386 71.98459280888312,70.12227127902554 72.91826235553128,67.14022497449298 72.67184699554457,66.39734112215922 78.20206594665763,60.68571695412504 78.59426249776845,60.53317146401207 76.94763408887195,55.530210959106284 76.84051913777478,54.87434717622057 72.36965321776336,52.23714866853663 71.76242576889456,51.95753243209731 74.10934274664726,47.95567866019667 74.53765691555566,47.367714028856085 72.76934999999469,44.90228203747358 72.75536898666871,44.874384487796874 66.47942317333184,48.89882575355989 66.4408297510887,48.934852723286554 46.13289815997235,47.50143531589822 45.85713723552875,47.4060008159646 46.12117449776964,44.88296835077165 46.17054495108426,39.92669230617287 40.48769993778081,39.05557011980966 40.4872630311071,38.08254453684606 44.64428432888929,35.46317376466288 44.853052897764094,35.38229072721845 42.353509857762795,32.954840095909844 42.08240927110422,32.47358473076713 44.10033552887729,32.48894881740091 44.35679974221387,32.47414958697448 48.71290484444001,21.403087743957826 48.79162086221152,21.259019995668154 47.51082896887204,16.61667103945331 47.89152031110246,16.317322420356163 46.21190544887907,13.931967147589262 46.22202711998364,13.701992051435468 42.80745588444518,14.153691605002336 42.6777674222027,14.025200018535202 42.9125319377705,10.60000227184321 42.908162871091584,10.286154439548795 36.52248066664436,10.660240054035626 36.118341999979414,11.109704482899929 34.88946918221303,8.760061985339803 34.743323902228106,8.052549999999997 32.80280294220541,8.219935053922768 32.73348041775865,8.223664762299109 33.609915191081775,17.86727281775495 33.77419209777839,18.749920285255598 31.3755744977749,20.98060093202332 31.02328208887014,21.269754468455744 30.063034053316763,36.05499446507713 30.042572257756213,36.31548842917948 33.67079085333501,43.629484173281185 33.82123238221505,43.85425052948233 36.89436105776225,44.88454958852492 37.00883060444142,45.008676610122734 35.79146299555544,46.867385699144165 35.84316361777713,47.09213872162911 39.14588674667869,47.42847593807494 39.209747937776804,47.468005024849504 37.02470488000075,50.60358686577058 36.98421819555336,50.8769987150514 38.706213004428385,54.758824898198895 39.261667013320796,55.5361959056969 32.84561979555986,52.133817310219115 29.95104031111226,51.17762594165799 27.098185413320273,54.23180080763234 26.883227333317002,54.637091480478944 18.261019902223445,54.07449436664285 18.159293466662014,53.83384738337884 15.244397822192362,56.60579695362651 14.797515120014971,57.219633697931954 10.151740897773955,52.13980262920779 10.092467226677066,51.77729438961944 9.063770479995249,53.67597515871569 9.039740613319402,53.688735949217175 8.113789751114048,51.857362616042906 8.062671671104575,51.85804020277976 8.052550000000004,54.25111118659663" stroke="#009edd" stroke-width="5.050255771062135px" fill="none" stroke-linejoin="round" vector-effect="non-scaling-stroke"></polygon>
</svg>