<svg width="5126.543194453348" height="4307.5398585997755" xmlns="http://www.w3.org/2000/svg"><polygon points="4988.442491164431,4209.08235191321 4997.111884515616,4228.346775910701 5027.296601031092,4227.949368743575 5034.31914752,4226.822342973552 5039.613873777795,4271.460327839362 5040.335643591126,4282.520974639687 5049.235432391171,4279.058235259668 5049.978756266646,4278.7136877324665 5066.133234631154,4289.609023008263 5070.170252231066,4292.683174477774 5071.461165795568,4301.810487880837 5072.409253262216,4302.5398585997755 5094.139825777849,4290.838600037852 5096.86641464883,4290.78494752245 5105.696589653264,4273.8358659655205 5107.7552938666195,4270.505582260666 5121.029974755598,4263.772136528045 5121.543194453348,4262.038631334784 5120.108975502197,4238.574442509911 5119.430896355538,4235.494660641532 5110.1547852799995,4233.719242718071 5108.87290111999,4232.603334479965 5108.346282951185,4218.833202355541 5107.808013937785,4218.4858997275005 5100.442641351139,4224.275092783966 5098.113637546659,4224.656539046147 5099.526593706687,4219.720751039684 5099.789902791032,4217.902181694284 5091.605475840042,4202.466805280186 5091.601398044382,4202.3909520161105 5079.768509155489,4209.934897579136 5079.821229226654,4211.979308220558 5055.456983324373,4214.222416151315 5055.4249435021775,4217.428464103898 5035.271604053327,4216.569293938926 5034.477890275535,4216.640706764301 5030.989336177823,4206.943876140867 5029.669586773263,4201.437682756397 4988.442491164431,4209.08235191321" stroke="red" stroke-width="3.4091287459591375" fill="none" stroke-linejoin="round" vector-effect="non-scaling-stroke"></polygon><polygon points="5,118.75554643466603 37.468282026587985,146.58850561082363 38.00742485339288,147.7922279201448 11.241357368882746,162.77042446716223 8.905363057740033,163.52179229492322 12.032740977709182,166.76488846167922 31.79082552890759,188.3236117004417 18.40837432886474,199.29348696861416 18.606438684393652,199.70502161810873 48.149776213336736,197.89173359854612 48.94698524440173,197.01264036400244 72.59849073784426,207.98930662724888 73.28618183115032,209.12854627612978 95.8561976889614,202.6015531020239 97.00904874666594,202.0156545593636 111.4721157689346,206.4660950815305 111.56998286221642,206.4403467522934 118.41252380446531,239.15769959322643 118.38397923554294,239.32887768786168 121.73214065772481,238.9738749464159 123.29947050660849,238.9029646604322 129.43946552893613,256.20123045437504 129.1225625599036,257.5858996317256 149.41745976894163,254.5582228259882 149.7891217066208,255.2329503793735 146.69261852442287,261.80759608128574 146.04774428438395,262.08307835739106 157.70004508446436,279.2517125844024 157.71723008004483,279.3329959794646 152.2366728533525,286.4876225111075 151.71034595556557,287.1067097617779 154.2665412266506,293.61401888664113 152.56668302218895,295.2291886805906 136.01578467560466,299.5052444963949 135.3018791822251,299.6714084390551 137.00290247111116,301.6500139324926 138.5690672355704,301.92002762365155 133.11996728891972,306.0166994105093 132.32537969772238,307.9857656044187 134.44787228445057,309.7683399147354 136.89221944881137,308.1528261246858 130.7688268800266,320.53481556556653 130.18570211553015,320.52578578237444 131.96973767108284,338.7566090946784 131.8715793066658,339.30918501649285 151.07362730661407,334.3373057768913 151.57286599103827,334.2917082493659 151.16683406219818,344.1112095575081 151.62005191110075,344.55226640345063 166.80430620443076,342.1212511176127 168.2845459911041,340.22607874387177 159.88661731558386,361.57854680274613 159.81962496007327,362.37798239674885 168.65154759108555,357.9420033034403 169.55419676448219,358.0458280015737 167.83569720888045,367.35509155341424 167.44888917333446,368.8225632744143 172.1141785599757,376.6635070355842 172.27000860439148,377.6705182197038 165.34736810671166,387.1134483437054 165.2340636444278,387.74172881559934 144.3574980266858,393.27882369287545 139.74434616893996,394.3119358213153 140.43407615995966,400.6499650364276 140.49815580435097,402.97381788131315 127.0358963200124,409.0895533018629 126.95958328887355,409.0872967711184 121.00687559111975,428.6713015184505 120.8225009777816,429.19070774206193 127.97815836442169,442.3094796605874 129.30751971551217,444.7244896912016 151.61393521772698,432.8486283340608 151.62296462222002,432.75882815470686 193.84009073779453,445.7645782767795 194.52224767999724,446.1178914073389 201.31323363562115,446.08404917817097 203.49398044438567,445.6499657208333 201.8331525688991,441.2332754494855 201.2599310221849,439.7662900191499 208.09198620449752,434.99389400938526 208.73831679997966,434.8124903650023 233.5942283377517,439.6426494559855 234.68358229333535,439.5298386621289 234.2128881777171,434.6148414465133 233.98977450665552,432.96776017342927 250.29833528888412,432.0602807753603 251.47740074666217,431.92851318983594 263.27038549340796,416.2051817115862 264.2012879643589,414.31877524143783 269.4896062577609,418.16603433090495 269.73310890665743,418.4128884077072 295.64604330668226,410.5364360718522 296.48490410658997,410.2940861324896 303.68396088888403,401.4221783472458 304.12086755549535,400.8981928740395 328.29636977775954,418.1511418456794 335.86621468444355,420.8759984546341 352.88402062212117,415.1915787284961 354.11667996435426,414.9528443051968 366.0818059378071,436.2271640477702 366.4974498132942,437.8534634015523 376.79126215109136,419.1489361108979 378.43810901325196,417.0811366905691 391.1386945422273,409.80261587700807 391.81473479105625,409.02591912355274 395.3356199822156,395.11486231914023 395.6391244799597,394.42883199296193 378.0693597866921,376.3082760751131 377.90158762666397,375.60909680475015 389.35640661325306,374.6327697800007 390.2255596088944,374.7519333677483 393.09982293331996,367.8227335658157 393.2329338310519,367.36005686968565 376.02347150223795,343.96358848991804 376.0027912532678,343.8110014712438 387.1558533688076,334.52782207611017 387.51207793783396,333.55221434507985 376.4615432532737,325.134538602666 376.1181346133817,324.4767317720689 388.959404088906,320.0977736301138 389.286210275488,319.41828004125273 385.6893033244414,292.0327032558271 385.58881479117554,290.6667660600506 391.3987996444339,287.5275616538129 391.61667043552734,285.89788495679386 378.7902557866182,278.30295249726623 378.10955519997515,277.1573000063654 385.90280504885595,265.9113428044948 386.2319414044032,265.41367673751665 381.4970382221509,243.30884347122628 381.1180945066735,241.9611191956792 372.95405653340276,238.64822943054605 371.2906072178157,237.70787446585018 370.2513518932974,230.04351433034753 369.49346446222626,227.51185415301006 353.637247715611,224.38438899221364 353.3354908444453,224.1743539814488 349.0698254222516,216.04787653055973 348.7689423643751,215.394709800079 355.6307071999181,195.51600535289617 355.1681686756201,194.36269042035565 351.9132140089059,188.45597809785977 351.2826120533282,188.14426188031211 342.03125902230386,189.40151456871536 341.50959246221464,188.77175972540863 340.9538471822161,174.24488031014334 340.74995740444865,173.4497254359303 330.6122663822025,167.2288939624559 330.1022506667068,166.6456113284803 329.5532046222361,154.6574751995504 329.09503516438417,153.71495107468218 292.06632135109976,107.3509341023746 291.7281555910595,106.81313651328674 301.53525390219875,113.26300478435587 302.58965532446746,113.78180597373284 306.1856884622248,109.11164702253882 307.6047613155097,108.97606901702238 298.37641870218795,100.8181854368886 297.8186345244758,100.41279154608492 305.865290239919,93.46674512908794 307.6088391111698,91.85957322147442 307.4270859376993,84.82195528288139 308.18031303118914,84.67415880551562 299.05420657782815,53.78340244630817 299.1124607999809,53.15958479815163 284.6627922488842,34.05679216294084 284.20578787557315,33.08978663675953 263.6848642844707,28.187332707457244 262.79357468441594,27.879004276939668 249.64647054218221,6.609620288538281 248.99285816890188,5 242.53566890663933,7.105163919390179 241.37670115556102,7.33801478066016 246.88755057775415,10.788699775759596 247.61194183107,12.759526430279948 233.02566712885164,20.991231410298496 232.80721379548777,20.648984581115656 233.12673820438795,25.975224801688455 232.43671694223303,26.353631116217002 217.25304519117344,20.972242828807794 216.2009739377536,19.650723920669407 204.01069539552554,28.223500236694235 204.60721863107756,28.956795600010082 194.57875427557155,28.148452606750652 194.48613006214146,28.110928782087285 183.7402649599826,52.26363488211064 182.9209193245042,53.59490121452836 178.48660792887677,51.71259221388027 176.48848810663912,46.56554239138495 179.25265095115174,45.99504687311128 182.53148984885775,45.806086856056936 181.96059847110882,40.92968647059752 181.26009144890122,39.843817022047006 148.52733525331132,45.12528696889058 146.72174563561566,45.786648376088124 125.00195015105419,34.54865681717638 123.8435649422463,34.29006634670077 95.26637368893716,43.20086305157747 93.96905215992592,43.74379009893164 88.22402076446451,52.33098946895916 87.9703236266505,53.1943920616759 49.88982983108144,57.88880135421641 47.59257457777858,58.052889135084115 21.76673023996409,50.765102961915545 20.126000071060844,51.02231776958797 7.620857457746752,73.97062550042756 7.197349262307398,74.5907676796196 25.882099768845364,100.07518870121567 26.4270680177724,100.34906735434197 25.654034488950856,107.41375238989713 25.58587704889942,108.45951604424044 17.30096156441141,105.82611631369218 11.340098275453784,104.38489610981196 9.49198307550978,108.40890011412557 9.690629973309115,108.8346158748027 19.68385052436497,116.63835385034326 20.095416604424827,118.70041382522322 5,118.75554643466603" stroke="red" stroke-width="3.5738348271620213" fill="none" stroke-linejoin="round" vector-effect="non-scaling-stroke"></polygon><polygon points="2310.366571235587,143.54754093190422 2326.8315446043853,166.60946672980208 2328.651989048929,167.8853674408747 2313.353847751161,174.0058823598083 2313.099859342212,174.02621300844476 2314.742628408945,188.22874153684825 2314.717579093296,188.53910234745126 2338.953374435543,183.986196030688 2339.515236408799,184.05712415429298 2348.8685343288817,200.54615808249218 2349.03688903118,201.71570280793821 2376.5177358221263,200.5854592237156 2377.691558399936,200.57777969085146 2379.172672000015,199.7014077057829 2381.477209031116,198.90905598609243 2378.1351643021917,191.37027731968556 2378.0061312000034,188.6719203761313 2385.395970559912,176.75773139181547 2385.451603342197,175.26773436681833 2372.2337203199277,153.68964835745282 2371.991382755572,151.21629360003863 2384.0942799644545,129.92367988044862 2384.277780764387,128.92591892799828 2346.891968568787,131.1053519208217 2345.4627012265846,130.6851021767361 2330.849629582255,141.7428235866828 2330.274369137711,142.21591943636304 2310.366571235587,143.54754093190422" stroke="red" stroke-width="3.7101436031843638" fill="none" stroke-linejoin="round" vector-effect="non-scaling-stroke"></polygon></svg>