<svg width="148.2996013511438" height="166.163885990798" xmlns="http://www.w3.org/2000/svg"><polygon points="5,103.98502490139799 5.950708906631917,105.32313007226912 6.013040924444795,105.51094971765997 6.0940142932813615,105.57920608500717 8.75477589329239,107.30484815884847 10.316862862207927,108.26363404694712 11.592339057824574,109.10193833924131 14.104552391101606,110.56369504361646 15.14555534219835,111.24669988133246 18.346333582303487,113.65254547871882 20.150175573304296,115.30620524246478 21.447205831180327,116.2127352419775 21.970911288866773,116.5778197721229 22.875308088958263,117.17514620604925 24.424287857837044,118.17877915984718 26.204828160000034,119.20027208834654 29.197638826677576,121.1438437384204 30.617585493368097,121.86849878903013 32.33346360898577,122.74064678011928 33.45573119993787,123.32558860373683 34.377895537763834,123.79097579990048 34.60042666667141,123.93159948982066 34.88936760893557,124.13406079815468 35.84124159999192,124.824351661955 36.54145735106431,125.42302947875578 37.4385723733576,126.1513346110587 37.589159537805244,126.31760770297842 37.89149895112496,126.69092010200256 38.13238016003743,126.95933818939375 38.747836017864756,127.65923907543765 38.87599530664738,127.77558363665594 39.28348359116353,128.33165480865864 39.41775957331993,128.50021646305686 39.86078293342143,129.0892651255126 40.06904177775141,129.40806528768735 40.419732195558026,130.0552831365494 40.79954972444102,130.8472406291403 40.93469952000305,131.18573401094181 41.02819754672237,131.47704859467922 41.48228920891415,132.73391078965506 41.68530517327599,133.50433072488522 41.939584853244014,134.4190290697734 41.9905572978314,134.66132958547678 42.102405404439196,135.04470432706876 42.1993986844318,135.55724369030213 42.57106062222738,137.99442273535533 43.7381839643931,138.30267514748266 43.88061553775333,138.35534824972274 44.29742449778132,139.54346681718016 44.635590257821605,139.72438638092717 45.71678862220142,141.25876140623586 46.371857351157814,141.78777474927483 46.43389809783548,141.7067052560742 46.68322616885416,141.13097357348306 47.04585870215669,141.42822902504122 47.59111822221894,141.8431951199309 49.89623779559042,142.3983140810742 50.60897820442915,142.54533792374423 50.754031217773445,142.59892602841137 51.89523143111728,142.82014857657487 53.62538183107972,143.13389031146653 55.994581048958935,143.26488307630643 57.74104263109621,143.3857994042919 59.5329425066011,143.40915823244723 61.00153144891374,143.30060836207122 62.61633848887868,143.24931051401654 62.97023288893979,143.2222875356092 62.64721322664991,147.04715043486794 62.10224497783929,148.7211650625104 61.58582129783463,150.89621970435837 61.43639921781141,151.56489919434534 61.58319985785056,151.56031920475652 61.61261824006215,151.57085318042664 63.16188927995972,151.83145441458328 64.77815267560072,152.1231991845998 71.39262833783869,153.29429628624348 71.84934144001454,152.323802110448 72.05760028446093,152.17220493941568 72.23265422228724,151.97297586710192 73.22676252445672,152.567456555611 75.19895921775606,150.75744555116398 76.73716195556335,149.30283058615169 76.79628999112174,149.0935227787122 76.84260209777858,149.03169220604468 77.60136334225535,148.55903124401812 78.15070065774489,148.56773334468016 79.95308629341889,150.5559251701343 80.23066766222473,151.09636576852063 80.83243377774488,152.9059159401222 82.21218503115233,154.41821378242457 82.45772657776251,154.97146849747514 82.4868536889553,155.42029992496828 82.13121166231576,156.7232797612087 82.08752099552657,157.30492376175243 82.311799751129,157.6859684320516 82.44461937772576,158.27402162965154 83.87709070229903,159.7345300137531 84.62624000001233,160.61339499644237 86.25182407116517,160.8249815510353 86.50726883555762,160.1348055973067 90.18806186667643,160.46913131774636 93.15727957338095,160.61293701664545 97.68683662218973,161.0310721519054 98.68414890673012,161.163885990798 99.00512967118993,159.90169324795716 99.59233223111369,158.04411317111226 99.9316630755784,156.70038035913603 100.13234887109138,155.56548295269022 100.40556117333472,154.44615134753985 100.7772231111303,153.19399529666407 102.1741593600018,153.68450791260693 105.36823836446274,154.68797143205302 107.7024850489106,155.63784543488873 108.54542364436202,155.0113137740991 108.64998997328803,154.74567845772253 108.6409605689114,154.72094687720528 108.67125276452862,154.66278185258852 108.79970332444645,153.0359867941006 109.18330737773795,150.95667574327672 109.34904064005241,150.14372380578425 109.4011781688314,148.25583151710453 109.61409735109191,146.6949416032876 109.63040853338316,146.24563405563822 111.2970618311083,149.11596498219296 113.64179427549243,152.74332726263674 113.6144147911109,150.24769022403052 113.52790727117099,147.8935485064867 113.56198599108029,147.74423826485872 114.21268565335777,146.74623863393208 114.9184355555335,145.87510347965872 115.00581688887905,145.75556257733842 115.31631189328618,145.29984090704238 116.29469155555125,145.48304571403423 116.35119815112557,145.39373339008307 116.58858410676476,144.92701864539413 116.83033912885003,144.6389282758464 117.27161486225668,143.94366249605082 117.68405475560576,142.91679023974575 117.80667989328504,142.65068204863928 115.4546656711027,141.32380034594098 116.22711665777024,139.52514584019082 117.03947178670205,137.94220757298172 118.12270904891193,135.87191202730173 117.79473777778912,135.7253416798194 118.90360689780209,133.97290226822952 120.08762396441307,132.16365169762867 118.18212835548911,130.88938056485495 116.1921641244553,129.39798827818595 116.43887075560633,128.04812281642808 118.13494243565947,128.80435998522444 119.9801449244842,129.35172563802917 120.0815072710393,129.00269431067863 120.21549198229332,128.6037352400017 120.43773184006568,127.89605057687731 120.75609116442502,127.00285303563578 121.16765724436846,126.23561630450422 121.72456760890782,125.7821437625098 122.26108899561223,125.82565884565702 122.69217023998499,125.91864367824746 124.65708515560254,127.15767420717748 125.98236871114932,127.10591447871411 116.80266837333329,119.47923501342302 118.20834275556263,117.72712200362002 118.92108316440135,117.0597120851744 119.78644963551778,116.58377472165739 120.41909048892558,116.30480806116248 120.71269176888745,115.94384573964635 120.79978183109779,115.83848860330181 120.90929976885673,115.70289847394451 124.47970104892738,118.15862409392139 125.61915363557637,118.98452219023602 126.21742449782323,119.40823463146808 126.85472568892874,119.86309473897563 127.78737578669097,120.53599278064212 128.1610766222002,120.82182494347217 129.63723861332983,121.86025367566617 130.84513991116546,122.82538786280202 132.84937642666046,124.3763728387421 136.11569066660013,119.45724780083401 137.97633052442688,116.65706639556447 141.4972157155862,111.35572392801987 143.2996013511438,108.64155851543183 141.1465252977796,106.7317734361277 141.58051925327163,105.99469907750608 141.6349869511323,105.92048759834142 139.6374496711651,104.62086639174959 138.20497834670823,103.75368441391038 136.69968924450222,102.85168319899822 133.23298048006836,100.64728450641269 134.2433999645291,99.67243103467626 134.30514944007155,99.59867549448973 134.36835527105723,99.53957942238776 134.42020152881742,99.48643875459675 130.5259067734005,96.05517316173064 129.9384129422251,95.5388752144645 129.53704135108273,95.18337564507965 129.24780913779978,94.93049415218411 127.88349525339436,93.72747053642524 127.77951146662235,93.40403654141119 127.6207687110873,93.48329165863106 126.99424455116969,93.34219004254555 126.68928369774949,93.21483201120282 125.98702904896345,92.70677350694314 127.29512760892976,91.75204176246189 127.95893447112758,91.2316103989142 129.0771242666524,90.29382290452486 130.73300053330604,88.91530913504539 133.39638357330114,86.68923594092485 135.730630257749,84.65418457862688 138.15254954667762,82.49587302084547 141.15235072001815,79.93345138424775 141.33089991111774,79.19216229341691 135.1460491378093,71.24169989221264 129.53995406231843,64.03274690842954 129.31043242663145,63.376625867851544 128.63759615994059,62.86666449386394 128.0492285155924,62.30217754509067 127.49523086217232,61.55578791251173 126.36364259559195,59.94661991344765 124.75000063993502,58.3795940069831 124.74737920006737,58.35118583019357 123.75676615105476,56.86524970008759 123.59307178668678,56.69525758927921 123.16461198218167,56.26867302431492 123.1316983466968,55.332108470320236 122.87013688881416,53.690361500077415 122.70294727105647,52.52697255188832 122.35866481787525,49.65352623054059 122.02020778669976,47.27766910055652 121.68903253332246,45.102946513099596 121.48339512886014,45.16618148627458 120.62298026669305,45.431951461185236 119.70285482669715,45.593246183067095 118.56981020444073,45.765996362722944 117.35375331551768,46.03818071569549 115.81118151114788,46.54130846593762 113.13673016894609,47.52785702160327 110.71451960888226,48.56434675276978 110.48383288888726,48.66057233780157 108.14696476445533,49.55913394771051 103.93081543105654,50.909947739040945 102.54640383995138,51.23940206115367 101.00936618668493,51.51203773386078 98.66696391114965,51.533573646273 95.07617365336046,51.15325828129426 89.628530062153,49.962821043038275 85.68442794668954,49.049598194949795 84.39380565332249,48.80491063505178 83.3769782044692,48.82094821764622 82.15859114669729,49.01843949483009 81.20496952882968,49.29336904670345 80.44970353785902,49.46749091526726 79.64899925340433,49.65352623054059 76.59210894221906,50.37658807815751 76.0762678043684,50.05583850754192 72.84665372443851,50.880622156139 71.01018936885521,51.30446808488341 68.60691143118311,51.861652387538925 65.89459484443069,52.467863611876965 64.58882645331323,52.660311264160555 64.72659768885933,52.19797840138199 64.62174008891452,51.48317044362193 63.62151509337127,51.57114693528274 63.025574399973266,50.11448989313794 62.856345884501934,49.89821282989578 62.301765688927844,49.4743641440873 60.870168177760206,48.56617962155724 60.346753991092555,48.11666811077157 59.75896888889838,47.08063445339212 60.343841279973276,45.98502689588349 60.38520177779719,45.44569817505544 60.20344860444311,45.066746773722116 59.79129998222925,44.73545014340198 58.6867999288952,44.27264210575959 58.355333404499106,43.909726595156826 58.01542001776397,43.37680789123988 57.08306119113695,41.533806338731665 56.6566402844619,40.73052401759196 56.05545671109576,39.18535419442924 55.12397169787437,37.63329972163774 54.92707242665347,37.18972261372255 52.64991487993393,31.17751336231595 51.88154168892652,28.949929050693754 51.39511893328745,26.943662928475533 51.3555060622748,26.1059565335745 51.1358876444865,19.510050923738163 50.57519075553864,19.553129123232793 49.865071786683984,19.70069480530219 49.577295928960666,19.91791863850085 48.92047957330942,21.696946120704524 48.91465415118728,21.12410270277178 48.904459662153386,20.93941766116768 48.73610496008769,18.178747016296256 48.676976924412884,17.59627033577999 48.503670613397844,14.091294906276744 48.483572906581685,13.954724368115421 48.469009351101704,13.81494570785435 48.51590400002897,12.464816683495883 48.776300373254344,12.393781148304697 48.6213441422442,10.634842192463111 48.589304319932126,10.423566904792096 48.86222535115667,9.133454105933197 49.09029063116759,7.761297265125904 49.24670321785379,6.599494332622271 49.29767566220835,5.94044910435332 49.31952099560294,5.308442091860343 48.34696675557643,5.146200689778198 47.63888668443542,5 47.336838542250916,6.3423844373901375 46.95818609779235,7.399695364932995 46.61157347552944,9.050501651770901 45.0899731911486,9.586254785826895 43.956346026738174,9.98130885529099 42.58620671997778,10.429066481010523 40.83624988445081,10.759499098232482 38.72657322662417,11.329161911213305 37.59848021331709,12.167383867432363 36.28309987555258,13.377735806570854 35.71075214224402,14.276902378594968 34.94004878227133,15.280096550530288 35.21180472895503,15.413458239112515 34.65023402671795,18.13337713450892 33.45223594666459,20.926127664512023 33.190383217763156,22.732184895023238 32.18025500443764,22.476927277923096 31.877041777712293,23.371015024837106 31.50392348447349,25.27512089064112 31.42644536891021,26.19073550129542 31.45178595557809,26.88133915088838 31.641694720019586,28.2139642436523 31.817039928864688,29.16026971518295 32.4764777245,31.617895035422407 32.88833507557865,32.97981894441182 33.43912874662783,34.4530883434345 34.06652671995107,36.23107972199796 34.40877027553506,37.33269384712912 35.22695082670543,39.26050505816238 35.686285368865356,40.04775460943347 36.54437006218359,41.87656365969451 37.27196529775392,43.598590211360715 37.8076128710527,44.83992548409151 38.925802666693926,47.04626792675117 41.99317873781547,52.07838569622254 42.85388487111777,53.268811285088304 45.59445475565735,58.15232848795131 45.80009216000326,58.57799294422148 46.20408519112971,59.633215640846174 46.72808192006778,61.10080512269633 46.991682275547646,62.07995622343151 47.17984341341071,62.721419210371096 47.197902222163975,62.844671523489524 47.180717226699926,63.05864470306551 47.079354880028404,63.61488234187709 46.99546879995614,64.14912571181776 46.86585315549746,65.16720847890247 46.75050979561638,66.14634116279194 46.627010844415054,66.94677998305997 46.53118264884688,67.43336469790665 45.82310257782228,69.9753167598974 45.6640685510356,71.22428946528817 45.58455153775867,71.79654197394848 45.32357262226287,72.75090367696248 45.239395271171816,73.2356426694314 44.90472476440482,77.3755809388822 44.837441137759015,78.04998568474548 44.65568796440493,83.7951690806658 44.04139719111845,84.95105954114115 43.326035342295654,85.51777805230813 42.39717176894192,85.84168198291445 40.59944647108205,86.00752793782158 38.6718142577447,86.19536436290946 33.93458090664353,85.74364039179636 29.204338062205352,85.88566324306885 27.957406435511075,85.87283537647454 25.16965063114185,86.26820820086868 23.869125119992532,86.68969407730037 21.819450311129913,86.96640827105148 17.737285688868724,88.33622994169127 13.780076373368502,89.42566720157629 13.380161137785763,89.54569737974089 12.552659911103547,89.89479240478249 11.95671921770554,90.2475518969004 11.456024177721702,90.70384773687692 10.519878826686181,91.59627898572944 10.327348622260615,91.89680941909319 10.107730204355903,92.27659499418223 9.582277120091021,93.25102368969237 8.969733973266557,95.11465787730413 8.039996586740017,96.70294896658743 6.606942720012739,99.84101503208512 6.264990435563959,100.49061192345107 5.983913813368417,100.98399274336407 5.535938844433986,101.8337778673158 5.147091911174357,102.75181691133184 5.087381333345547,102.92177281359909 5.0634971022373065,103.11921467806678 5.010777031071484,103.75276821345324 5,103.98502490139799" stroke="red" stroke-width="3.3049309917880207px" fill="none" stroke-linejoin="round" vector-effect="non-scaling-stroke"></polygon></svg>