<svg width="7763.681833528914" height="5381.436429983587" xmlns="http://www.w3.org/2000/svg"><polygon points="7576.166694968822,5216.565134992939 7577.400810666615,5228.904125254601 7577.2356599466875,5229.146059339168 7605.526240426581,5246.675549288746 7608.264771413291,5248.555169670319 7581.820849777781,5286.479181068251 7581.172480284353,5287.435527408379 7593.993652053294,5347.0023424414685 7594.7524132977705,5353.18586602842 7604.023864035495,5367.3290339089 7605.48080213333,5372.20737494959 7626.403388586594,5367.206584201951 7630.242924373364,5366.3325139564695 7630.246419626637,5366.501272566966 7629.053373155533,5375.266746834037 7639.5778722133255,5375.912811647053 7641.016168960021,5376.436429983587 7664.875642026658,5371.186387524591 7665.258663537796,5371.044793605513 7665.651005724445,5361.001634627057 7665.754115697695,5360.314114584937 7671.8990623288555,5353.662781900493 7673.021038648905,5353.31188591558 7697.110615893267,5364.8310464400565 7700.054493013304,5364.0616071695695 7704.618711324409,5334.096361591015 7704.72153002664,5333.842518435442 7731.136907093343,5317.36257390742 7731.337010346702,5317.279734626412 7743.754480355536,5301.771316903061 7744.097015182138,5301.461315589258 7756.155347911059,5266.266653116385 7756.34671303106,5265.916509038594 7749.140083199949,5223.36451954185 7749.750004906557,5218.91197116283 7758.385610808851,5209.1706777271465 7758.681833528914,5207.80671971722 7756.164959857706,5198.133114529774 7755.939807288814,5197.066759518406 7747.197887431015,5196.6844211961725 7742.293173191138,5197.168805415393 7693.482834204449,5224.758679373423 7688.944247751031,5223.976275644265 7688.278693262255,5218.306439026201 7688.1321838932345,5216.787922867632 7681.005071075517,5216.076783184195 7679.260648391093,5216.390023565502 7669.236553102266,5210.361739027314 7666.384135111119,5208.626164956368 7669.069946026662,5205.58631527418 7671.469146168907,5202.869932172296 7659.585576106678,5200.546988125192 7658.871379342163,5200.600906727894 7661.590103893308,5188.3846642728895 7661.562141866656,5185.4220767233055 7641.288507448859,5188.77325583616 7637.273043911089,5190.750071121729 7641.637741511106,5200.263135429239 7641.665120995487,5201.139200815349 7623.1801824710565,5201.595502059092 7610.261143608834,5201.882472279482 7613.424930417794,5214.641575122252 7613.482310826657,5215.178943779902 7576.166694968822,5216.565134992939" stroke="red" stroke-width="3.5385058514734666" fill="none" stroke-linejoin="round" vector-effect="non-scaling-stroke"></polygon><polygon points="5,149.26338607515208 71.25864362670109,153.76244693330955 77.19882666668855,154.72371805738658 77.68379306665156,150.52382567117456 78.56547071994282,145.7921231010696 87.14806527993642,146.3297803165624 88.88287601771299,146.624829977809 97.05652593774721,119.33126560458913 97.46488803543616,118.05422558262944 90.574287359952,116.61982701974921 88.53131178661715,116.2627081918763 92.1765697421506,107.61049250559881 93.61836174223572,104.62113332457375 87.47225002665073,98.81105859263334 86.41843114665244,98.45026141090784 95.53871217777487,62.09150768298423 96.29659960884601,57.683156067621894 100.14545607112814,16.825794221134856 100.37264753773343,14.704444981995039 74.64670919103082,15.206379350391217 70.79872654215433,15.00879986945074 70.41978282667696,13.15163520979695 69.85966847988311,6.530508396739606 56.22992810665164,6.06551608198788 56.11662364448421,5 13.109861546661705,6.879594219033606 12.338575644418597,6.910624042677227 8.046113279997371,33.26292356126942 8.112523093353957,33.98519055277575 13.671432248782367,36.699031375930645 14.057366471039131,36.8135521565564 11.902834062231705,53.504195039509796 11.634864639956504,55.229166771052405 18.69585891556926,74.77089266217081 18.849067520000972,75.07744413276669 13.13694975990802,88.23685223265784 12.789172053337097,88.78970505984034 23.149976746644825,93.32651173591148 25.084016924374737,93.91857944428921 7.865525191067718,128.81305257568602 6.374799644458108,131.8367387340404 7.219485866604373,132.52857774030417 10.108895288896747,133.02111833792878 6.785491911112331,134.68161038844846 5.826336142141372,134.5333934055525 5,149.26338607515208" stroke="red" stroke-width="3.3050118997030227" fill="none" stroke-linejoin="round" vector-effect="non-scaling-stroke"></polygon></svg>