<svg viewBox="0 0 5355.553706720019 8026.787031144208" width="5355.553706720019" height="8026.787031144208" xmlns="http://www.w3.org/2000/svg">
  <title>Mauritius</title>
  <desc>Geojson of Mauritius</desc>
  <metadata>
    <collboard>
      <support-module name="@collboard/map-svg-geojson-import" version="0.11.0"></support-module>
    </collboard>
  </metadata>
  <polygon points="8.052550000000338,162.70636136784015 9.837459368900454,187.87504074999742 10.331819262217323,190.8362415586671 17.129067546666192,216.0079796547725 18.244854355558346,218.9695410071945 36.44653172445396,255.25175887053047 37.65297666667175,257.4733051906296 57.60198943111027,290.0584587851263 59.193276328885986,292.2803427839026 76.9889217688833,315.24107723826455 78.82655120889103,317.4632065114347 94.03854907555069,333.018718885236 94.63317904889846,333.75948410802084 105.8664863555532,352.27939999275986 107.4790360444531,354.50189148385107 125.17477549333853,374.50529626600473 128.38596667556703,377.4689140440678 153.49644916447141,395.9924061639831 156.04987736000476,397.4743512208297 190.22151284444408,411.5533153560318 193.05434285332012,412.29433785181755 214.20535867557192,415.99948693605984 227.246804222239,416.7405240756416 258.16676184000244,414.5174199803223 262.07540169778076,413.77639016372996 292.3359215199962,404.1432245468095 293.9875743555385,403.40222887544223 326.1078602222333,384.87812853017385 329.0963018222319,382.655338668912 351.26946079111804,361.91035386783915 354.4155528800111,358.2060923959434 373.5593466577775,328.57417823797005 375.05131010668265,325.6111993977174 385.05705531556305,298.9461244555205 385.82098662222415,295.9835308032998 390.448483582215,260.4354004060224 390.46930946666544,255.99227192140097 389.2726949244461,238.22061753791786 388.6431124177834,233.77791857062402 382.8868670844604,210.0849709868562 380.8393039910952,204.16211426552763 372.91374423998786,185.65416499725688 371.3574098755562,182.693030452916 356.92492632001085,159.74551971292385 354.0926788533179,156.04452069308172 336.80872393778554,137.54040871756297 335.15495938665845,136.0601432751646 313.4950201155516,119.77784341455117 309.8895934844404,117.55761778503802 290.88597392891097,82.03687248013011 289.0106248800075,79.07705332499609 269.1390902311032,54.659967326275364 266.0671266400095,51.70049266319984 236.21475046221894,28.765822933208256 233.66350679999596,27.286243302754883 199.52522185777343,13.23069834724447 196.69537737777136,12.490955940222193 175.5675904266609,8.792278550543415 162.5408540710996,8.052550000000338 131.64580013333034,10.27174257828301 127.74145652444713,11.011478055974294 100.98653016001481,19.148720792822132 97.51224834664754,20.6282495211708 68.43057552888786,37.643495267671824 65.545389537765,39.86296549390681 46.69672621333302,57.61947916838835 44.13004518222442,60.57902820484742 25.810475831131043,87.95662276913208 23.957700293343805,91.6565425628869 13.356596933335823,121.2580055579092 12.353677679995599,125.69854828296957 8.052550000000338,162.70636136784015" stroke="#009edd" stroke-width="6.235868579952945px" fill="none" stroke-linejoin="round" vector-effect="non-scaling-stroke"></polygon>
  <polygon points="526.8283898577865,7817.2593865851595 530.1665752444314,7849.90781412676 531.2155153333224,7854.5726055416235 534.7684403466483,7867.012943087211 536.3962817688953,7871.678405018327 545.4977029955553,7891.897522469582 547.6660707822084,7895.7862087373 568.3024105511213,7923.788511052822 569.7637177155484,7925.3443883457585 579.4580212888904,7934.680080997299 583.0943954755567,7937.792141994352 601.6577587466527,7951.019313554141 605.6337550488897,7953.353673704471 696.3954352622168,7994.601635759907 699.9236022311161,7996.158444602661 723.0564995111272,8003.942796819123 726.3034442222342,8004.721260281636 819.3947836000079,8017.177374373896 825.768523688901,8017.9559251885 839.465766142217,8018.734481144209 846.3266571644417,8018.734481144209 871.2810911555498,8016.398828700105 879.6442129333227,8014.841752773682 932.9624820888639,8001.607437244129 935.2664365777819,8000.828994322255 956.8049157955465,7991.488079655457 959.6866793511217,7989.931332388842 989.8659345333363,7979.812975234563 991.7948046488818,7979.034675960524 1025.400281911112,7962.691574811361 1028.210829679978,7961.135206779734 1050.4687485422255,7946.350731347637 1052.4065752444512,7944.794578186651 1085.0197646488741,7916.787315860311 1087.5657654310999,7914.453675967823 1105.0614016266554,7895.7862087373 1105.9041217688718,7895.008461298341 1136.2815141244282,7870.90081532178 1138.5185490755612,7868.568076732634 1155.5867449155558,7846.798054696039 1158.0292716355543,7842.910969575118 1168.9076650933494,7824.254725625484 1170.139086533316,7821.922900367448 1178.286813324441,7803.269938520483 1179.3712884888882,7800.161394865201 1185.5238809866787,7775.295956278984 1185.9933372000014,7772.188139997401 1187.2233751022213,7741.114413732001 1187.0033925955722,7738.007484335285 1197.4118929333417,7710.0487403954685 1198.2289812177842,7706.942615229411 1202.890411262233,7672.780535076316 1202.935048560008,7669.675372440521 1201.685713946652,7623.107532388654 1201.4189096088885,7620.003648811609 1196.1201055555503,7592.072284304311 1194.7064940355558,7587.417684151333 1186.638284257795,7567.249818295015 1185.0944017333459,7564.147367775156 1169.269278177766,7538.5551800396715 1166.6624745510999,7534.678046790221 1155.1068029422095,7499.014226088133 1153.8890712444336,7495.913518640627 1138.6097169333443,7464.910786573433 1136.7541015022216,7461.810947186699 1151.1162430844633,7447.0877858842505 1154.4492584088948,7443.213564994781 1170.3650400978004,7420.745507147694 1171.713989431104,7418.421461065947 1179.080745555555,7403.703528046586 1181.0163877244413,7399.056127517841 1193.827292186681,7363.431913439192 1195.258671244439,7358.786039831997 1199.542249839993,7340.2043034855815 1200.0261239733445,7337.107620718576 1201.629134533352,7312.336966148207 1201.5497631555554,7309.2409849873875 1199.2426046844412,7287.57129591058 1198.6579507466595,7284.475937107178 1192.736044968893,7262.810600278121 1191.6336566311147,7259.715862616875 1182.551386479994,7239.601957432089 1180.8332510133405,7236.507800988831 1168.3885471555768,7217.944487384266 1165.9091746400009,7214.850872449148 1148.7168244888962,7197.064085754428 1146.0229307999907,7194.744258286293 1125.3305941600192,7180.053025220848 1121.28207135111,7177.733515850159 1101.2572552800193,7168.45591172437 1099.1740114755594,7167.682809334983 1073.1213397600004,7160.725104340505 1068.2659231555372,7159.952050059022 1048.3113762400244,7158.405955923321 1041.7271927733163,7158.405955923321 1012.8357199911043,7161.4981634314245 1009.2517746044396,7162.271227332101 979.5087707288985,7172.3214958635 976.2171887200166,7173.867763214344 947.812211511111,7191.651222508641 944.9420259822291,7193.970992108931 914.9054936444518,7195.51752928616 910.0486935022418,7196.290805108765 874.3550208266606,7207.117173180981 870.9580714933181,7208.663874407539 842.9183482577864,7225.678862957408 839.9510966311282,7227.999269884756 814.7539609866872,7253.526619947523 812.4001263199971,7256.621202513001 795.4736338755538,7282.154469002366 793.7836060711197,7285.249769522059 777.6967026044513,7321.62537698786 774.6738910133208,7326.269845413721 750.4664946044286,7346.397903192679 748.9259616977724,7347.946351919389 730.1681749599884,7371.175427120186 727.6971764888804,7375.047367321131 701.7574451466862,7421.520198992926 699.8149581066755,7425.393731867 685.6453467288884,7459.486119360088 684.5039280622223,7462.58589964515 659.0693336444456,7483.511478761917 656.3690319911184,7485.836765001797 636.2737283111273,7505.9911068254805 632.8875560088854,7509.867324636674 620.8615543733249,7526.148789461971 619.3965335022149,7528.474891136961 602.359722124449,7558.71827048681 600.7723673866785,7561.820582013497 573.6838627822071,7632.419661977801 572.4527326133466,7637.075996249048 567.6524390666818,7663.465287406412 567.354104631122,7666.570289890318 567.1670357599869,7699.177653658589 567.0055259289002,7699.9541272351125 552.7807186755599,7722.474044614712 550.7521610222248,7726.357215981676 535.1021642222258,7764.4189524123285 534.122765111104,7767.526566923778 529.6947888622308,7786.173949233933 528.7091274222257,7792.390389607877 526.8283898577865,7817.2593865851595" stroke="#009edd" stroke-width="5.371287114122188px" fill="none" stroke-linejoin="round" vector-effect="non-scaling-stroke"></polygon>
  <polygon points="2104.6115220177817,5012.210662715406 2105.978238888878,5040.292017613603 2112.446860542208,5067.649887274987 2123.8007540888866,5093.352916405602 2137.829171795551,5114.742818566192 2156.8167714399824,5134.985879185617 2176.8994776444524,5150.771653738782 2199.329464915565,5162.95025938686 2225.6782137155315,5172.773537019915 2253.0168473866433,5177.757590302099 2287.4426169155413,5178.068394951792 2318.855914977794,5172.784046575376 2341.6457677066574,5164.549285948022 2393.997890586652,5143.443852627221 2424.5223748533244,5124.777772724519 2447.19433559999,5104.366942307162 2462.326816453344,5084.863577601856 2474.3939601333186,5066.3269666766355 2512.3156383555397,5029.305576250372 2540.9662299288975,4991.898262116076 2557.058157822241,4963.236893763773 2569.4462094488918,4924.0381819932445 2571.849196115574,4910.681807146415 2581.6379443466503,4877.814140629525 2584.2168587644483,4852.430229017111 2584.2753314400106,4823.650780988923 2589.497531191104,4786.40754019298 2586.682614355559,4754.1881930695745 2578.1788814489046,4719.640251261917 2575.1007283466533,4711.024135742635 2563.3137874755557,4685.649087240694 2547.108482302232,4662.881449005399 2529.5785489333284,4645.947105757754 2522.2115015377713,4623.579248563336 2509.221101253359,4599.632978722431 2498.808450302233,4586.657139365365 2499.000179511124,4562.884633791233 2494.8967520977676,4537.508328386881 2486.6025887555516,4513.196114358558 2474.3573327911217,4490.642491200189 2459.917931546668,4471.573877316994 2441.409909786664,4453.662004557387 2420.156439351129,4439.165923671368 2396.772102284456,4428.5031272081615 2371.932574746672,4421.980340430084 2344.6441125244382,4419.7851535818845 2318.858900506668,4422.016329849757 2291.313609982237,4429.549824028254 2271.150658586681,4438.517662927137 2252.4985304444635,4450.3447870673335 2235.754810622231,4464.780175973028 2217.0407873688746,4487.258891033132 2203.2450952800064,4512.28499481429 2194.3559378755526,4539.4759358757365 2190.6918201155568,4567.86835649424 2191.8366612177706,4594.471605078121 2197.127164044454,4619.0271645211105 2206.3688323111055,4642.374383789436 2214.0475397955524,4655.130467522111 2204.868422000007,4661.304097714667 2186.3092093422383,4678.998790922698 2151.8385112444594,4724.374071806269 2139.580002444425,4748.164063332726 2131.655680595555,4773.753490794923 2128.3137086844436,4800.350351944748 2129.660837573356,4827.130427231437 2135.0111237955643,4856.353197370896 2139.040058622202,4882.186815319677 2137.874027546677,4911.07641506481 2138.9910522577775,4922.052205101245 2131.928455991125,4930.555536639011 2117.180889911113,4957.686312281825 2108.389672417783,4984.360281545822 2104.6115220177817,5012.210662715406" stroke="#009edd" stroke-width="5.82509274898868px" fill="none" stroke-linejoin="round" vector-effect="non-scaling-stroke"></polygon>
  <polygon points="4889.5213892533575,7240.37550864122 4892.015034053336,7269.774043683348 4892.862050444448,7274.4165575770385 4902.315254355555,7305.3711180264145 4903.644251617785,7308.4670018637335 4916.9122332711195,7332.462742872718 4919.612098017773,7336.333462220129 4942.751621715557,7361.8832693581135 4946.370810906672,7364.980577068818 4967.454761555542,7379.693856988226 4970.185501040025,7381.242726021133 4994.457195546689,7403.703528046586 4997.635837182235,7406.027294492269 5024.875438675554,7421.520198992926 5028.510065235554,7423.069597412024 5056.502602551111,7431.591639851198 5060.587898337784,7432.36640045618 5085.421818906652,7434.690711754207 5091.765776524444,7435.465492015566 5111.5746150666455,7440.8890914774165 5115.660202124454,7441.66391106588 5140.496015955556,7443.988399335831 5144.439972435539,7443.988399335831 5169.275859084453,7441.66391106588 5173.361446142233,7440.8890914774165 5199.435890373345,7433.14116597479 5203.205666728878,7431.591639851198 5226.525341608889,7419.196138184525 5230.014987973329,7416.8721215533515 5250.752180364456,7399.830682018808 5253.829314017792,7396.732493418684 5275.668894746668,7368.077962983145 5276.239203582205,7367.303609171919 5299.973065982202,7347.946351919389 5301.510831813335,7346.397903192679 5323.912201697771,7317.755120590307 5326.21928735113,7313.884985932535 5340.281274053334,7281.380656013011 5341.202418942215,7278.285452609045 5345.128535066651,7261.263221751644 5345.628210657778,7258.168522871456 5347.387997893333,7239.601957432089 5347.50115672002,7234.960751799059 5346.19094644444,7199.383956632759 5345.846736808897,7196.290805108765 5339.965244897765,7168.45591172437 5338.476631066682,7163.81736956392 5324.75535874669,7133.671064012429 5322.47638075555,7129.806681316819 5303.765197395558,7105.0774707068995 5300.8160045777695,7101.98666433074 5279.991066764465,7084.21601346555 5277.776022782236,7082.670859035519 5249.157616666671,7067.220365875815 5245.640081093334,7065.675421622094 5202.997771973351,7049.454659236399 5200.2571292711145,7048.682294438775 5161.630502142223,7043.275874307328 5150.009877075565,7043.275874307328 5114.338777911129,7047.909934407864 5111.3832499466735,7048.682294438775 5063.83025552889,7066.447891362222 5059.918193235564,7067.992845163222 5048.110936204444,7067.992845163222 5034.503186800001,7068.765329224676 5009.476663208894,7073.400333865844 5006.735437964446,7074.172851354182 4984.268240808895,7082.670859035519 4981.0759094311,7084.21601346555 4958.3188975199955,7098.123264066853 4955.252395262221,7100.441289866118 4931.887573360007,7122.851094692371 4929.344048382227,7125.942418562634 4911.562820862229,7153.767788912643 4910.066925253348,7156.859881021934 4895.181005395578,7198.610661516119 4894.030848595554,7203.250504585369 4889.5213892533575,7240.37550864122" stroke="#009edd" stroke-width="6.334577380235492px" fill="none" stroke-linejoin="round" vector-effect="non-scaling-stroke"></polygon>
</svg>