<svg width="23732.25815893337" height="11263.781197960954" xmlns="http://www.w3.org/2000/svg"><polygon points="40.80741404439323,11103.139139466337 49.745650631026365,11117.372417213395 53.36877198226284,11120.640131777502 54.8577499021776,11118.185117673886 56.18041201774031,11115.936455897812 62.69061262218747,11124.382773491321 62.26652188436128,11126.13075123448 82.9901701688068,11131.104174014996 84.24147086218,11131.186994790216 79.4028751644073,11132.810458613792 78.58877240889706,11135.61900396389 82.13761962659191,11140.439385799167 80.88806656002998,11143.123379112105 70.45531790214591,11145.678312156699 65.59691576880869,11146.905437970767 65.56691484432667,11166.887118293089 65.89605119987391,11168.626975341409 75.92946716444567,11175.833302391227 78.07584398216568,11176.27568400104 98.40336355555337,11153.110964292544 98.75580159993842,11152.529904349125 142.18141155550256,11163.149329184904 143.5346571377013,11162.375685700914 147.27603455993813,11133.952092311694 147.6584735289216,11133.83770042914 142.84288824885152,11133.038328265888 141.24118840892334,11133.15958410746 143.46125681779813,11124.067495374358 144.8200365511002,11119.056387750257 153.01087146659847,11120.972345898743 154.66907790210098,11121.32194808696 158.44045624881983,11108.11537883419 157.4556686221622,11105.935256416386 200.86962773324922,11102.755643030803 200.98555363551714,11102.352925278654 194.9792520533083,11094.994956936105 192.8896731021814,11091.552945425618 196.14229759993032,11086.56305275613 195.98326357337646,11085.352518478408 172.9294464000268,11073.191879664198 172.76371313771233,11073.070590211544 166.5185692444211,11087.688454540563 166.44342129770666,11088.658702701796 137.54000639996957,11100.393326609686 137.30349425773602,11100.375936350552 114.7547411910491,11075.16865930945 114.42414847994223,11074.786028678529 97.78965532442089,11084.246326790657 96.21883022214752,11085.688448140281 71.28485802665818,11062.605114024482 71.17388373322319,11062.527301896596 59.04069432883989,11086.486622247787 59.01826645329129,11088.230329521699 46.277485511032864,11089.714529129851 44.1366428444162,11090.09484505956 40.80741404439323,11103.139139466337" stroke="red" stroke-width="3.508281203470524" fill="none" stroke-linejoin="round" vector-effect="non-scaling-stroke"></polygon><polygon points="5,11201.663762452838 8.87798357324209,11212.463279993623 9.122942577698268,11212.911075545242 22.44743082660716,11207.994421740761 24.403025066596456,11207.42265737406 34.17342321772594,11212.135322908987 34.49003491550684,11212.407019608596 42.89786680880934,11244.620786725136 44.361795413307846,11245.51167054387 112.31592817767523,11257.891740667459 116.9745183289051,11258.781197960954 121.1691135999281,11256.892525930074 122.45449301332701,11254.929295623675 118.94292849779595,11248.230032593478 119.51440241769888,11246.222820036637 128.5120583110256,11245.658473942312 129.4237368889153,11245.894456766895 128.7351719822036,11237.372386776377 128.44564849766903,11237.035320440074 133.81027982220985,11231.231934543408 134.20058311114553,11231.07322994573 154.6731556977611,11238.856478581147 164.2880150754936,11242.038209062186 202.04811064887326,11244.507825321867 202.18093027547002,11244.45523193595 210.523808711092,11222.87348653865 211.71219484438188,11219.246437137015 233.4381070222007,11224.333436809015 234.4887219199445,11224.3782596878 244.9974923377158,11218.519190408639 247.68563342222478,11218.903853919706 260.08533589332364,11194.70073823852 260.74856021336745,11193.212226664531 257.3092309333151,11187.760820141702 257.83963562652934,11186.664300958626 270.9989731555106,11184.39484999131 271.4766577776754,11184.58332374529 276.1011692088796,11176.96327223652 276.1355391999241,11176.32509161171 240.4935671465937,11167.67675801384 240.09627335111145,11167.50702689169 210.34467697772197,11148.416687381396 207.07632383995224,11146.741638581501 202.19287239108235,11132.678678464494 201.61149525328074,11131.531089605473 185.50332899554633,11120.953584508738 185.31720675551333,11120.574695602641 185.47740586660802,11110.751265772851 185.62245887995232,11110.385172284907 200.58039551996626,11102.935950508807 200.86962773324922,11102.755643030803 194.9792520533083,11094.994956936105 192.8896731021814,11091.552945425618 202.73929699556902,11084.149757864303 204.15953493327834,11083.779500301927 203.05474360880908,11079.026966253237 203.3349464177154,11074.928828706092 208.49248398211785,11070.975704671582 208.69287850661203,11070.228735989891 204.62236472882796,11067.066906169697 203.81729137781076,11066.837136191258 204.48168078216258,11059.71963851119 205.61326904885937,11058.153299869038 218.4737624176778,11048.978410578216 221.5143415465718,11046.382510923024 241.1637819733005,11046.264868462109 244.31417031108867,11046.467652897583 204.0721535999328,11026.54580624483 203.56242915557232,11026.549926396343 200.2131026488496,11034.686614766193 197.36243228439707,11036.83632671251 155.9063975821482,11037.52435819956 155.30142748437356,11037.4479103646 141.9032476443099,11048.285380285 142.50180977780838,11049.290136161959 133.00578901334666,11048.406683634035 132.53159964445513,11048.322000171058 127.82524103100877,11065.833377228642 127.55872796440963,11066.281934020924 97.78965532442089,11084.246326790657 96.21883022214752,11085.688448140281 71.28485802665818,11062.605114024482 71.17388373322319,11062.527301896596 59.04069432883989,11086.486622247787 59.01826645329129,11088.230329521699 46.277485511032864,11089.714529129851 44.1366428444162,11090.09484505956 41.55102919100318,11102.031208172091 40.80741404439323,11103.139139466337 49.745650631026365,11117.372417213395 53.36877198226284,11120.640131777502 54.8577499021776,11118.185117673886 56.18041201774031,11115.936455897812 62.69061262218747,11124.382773491321 62.26652188436128,11126.13075123448 80.76893667550758,11129.042338309693 83.04463786655106,11129.151699374255 79.4028751644073,11132.810458613792 78.58877240889706,11135.61900396389 82.13761962659191,11140.439385799167 80.88806656002998,11143.123379112105 70.45531790214591,11145.678312156699 65.59691576880869,11146.905437970767 65.61643093335442,11165.393840400444 65.63623736880254,11166.282762887306 58.999916373286396,11174.87991433777 56.75275975104887,11176.814592330717 35.74512213328853,11188.64782095654 35.182095075491816,11188.840865520644 17.802239146549255,11189.306093063671 15.235266844392754,11190.434162776917 5,11201.663762452838" stroke="red" stroke-width="3.63237331827374" fill="none" stroke-linejoin="round" vector-effect="non-scaling-stroke"></polygon><polygon points="4469.790587164462,9236.226042809081 4486.2383755376795,9259.38191836339 4486.989272462204,9260.686745113228 4483.157309724367,9289.425082286121 4482.860213191132,9290.10209549847 4483.858399288845,9342.339216917288 4483.8173300621565,9343.973426755867 4479.5391399821965,9353.276005989464 4479.546421759878,9354.552582096192 4513.337657173281,9358.098997190828 4514.894501262228,9359.117652254412 4512.857933653286,9388.892728607287 4517.665072071133,9390.731392738933 4513.472515697707,9402.327622933197 4513.64349183999,9403.765345887048 4532.155809848919,9400.983986736275 4532.604658631142,9400.906956875231 4558.160494648851,9382.859069125028 4559.963754097698,9382.697154372581 4615.995869013248,9403.518115417974 4616.134514062083,9403.981672314461 4629.870568391052,9394.977419854666 4630.167373653268,9394.511537212064 4627.761474275496,9383.902055536746 4628.304403626593,9383.241482686368 4621.915663075517,9381.414287027786 4621.413802951109,9381.083997038018 4626.4158017422305,9381.482097898726 4627.303596088779,9379.55893640581 4619.048098986619,9374.928793494706 4619.681322382181,9371.504444187274 4638.978033493273,9367.970705841319 4639.759805155452,9368.014993260615 4646.28777329775,9373.566533618781 4648.731246648822,9373.284669763874 4641.424128284445,9370.540283736773 4641.0250868621515,9370.03190648713 4639.46416497766,9355.770097391796 4639.583294862183,9353.831019950914 4653.7952861866215,9361.445593143697 4653.845384817803,9361.4354436344 4658.336785351043,9347.636743074865 4658.792624640046,9345.749266346567 4666.015565653215,9347.638127187616 4666.122462151106,9347.503406836418 4660.943661795463,9344.357754935103 4659.248755199951,9343.666609649488 4663.1011069155065,9338.260097497492 4664.402506239945,9337.17259609542 4675.581200213288,9343.7681131016 4675.796158293262,9343.611244110041 4667.02918911993,9331.70224688371 4666.514513066621,9330.683462033398 4667.362403271021,9275.85529457801 4667.684549119906,9273.495043462899 4665.348846079898,9252.44501816458 4665.757499448839,9248.781465473818 4662.063307946664,9250.454697165755 4659.45089735114,9247.942306031415 4675.7265444977675,9236.008624439943 4675.8386838755105,9235.886759270681 4671.325146737741,9227.021806257544 4671.358934186632,9226.712975804054 4664.338426595554,9228.457008032477 4661.837572835502,9228.174954017042 4660.525396479992,9219.321685981413 4660.188978346647,9218.067851332598 4674.853896248853,9207.589090280584 4676.149470151053,9208.312066399143 4672.754414079944,9198.490278878191 4672.669654186582,9198.395170536009 4677.151442773291,9195.588070430676 4677.112412444316,9195.107904901262 4672.1296375466045,9185.855736888014 4671.276795733371,9181.732093895786 4705.204637297778,9170.695615503122 4705.4551304532215,9170.574636825826 4736.0237422932405,9143.694442660548 4738.187595377676,9143.065458533238 4758.4120049776975,9143.65287988953 4759.234845866566,9143.858846431656 4778.93147221324,9158.812598668854 4779.125167502207,9158.951593218022 4777.974064071081,9124.28375448176 4777.988918897696,9123.929976931657 4764.707830044441,9127.302386252908 4763.1204024888575,9128.554902786622 4757.149635982234,9119.591767034493 4754.827331413282,9119.461060534173 4749.113757297746,9124.529920501634 4748.322082417784,9124.465261536767 4748.682967324392,9112.374155235826 4750.349038079963,9106.283774857118 4717.4656947199255,9118.465748711722 4716.727322453284,9118.40062606067 4707.767531804391,9108.782117236813 4707.581118293339,9108.490668549028 4704.348008959903,9093.174507264746 4704.094894364476,9092.935696028057 4673.597643946647,9078.268389976234 4673.057627306553,9078.086381972302 4649.709917582222,9075.71518240159 4646.915462542209,9075.197792695952 4639.300179342157,9086.915440419922 4635.140536604449,9093.237789888517 4621.610119679943,9092.68949383701 4620.151433955529,9092.747695506085 4567.103391573299,9072.304544993443 4565.859372657724,9071.33534681343 4550.610164906597,9077.251175755518 4548.806322915596,9078.061898650369 4549.2371128888335,9086.75053117692 4549.240025599953,9086.966714696668 4536.335841564345,9092.14812517591 4534.843368391041,9092.25159505941 4535.175126186572,9099.337777857552 4535.32629589329,9100.437106066616 4529.735055644414,9101.644051110954 4528.028498204425,9102.09255441255 4532.368729031063,9114.503392073559 4533.483714844449,9116.178130573651 4532.311348622199,9129.101721876534 4532.39348707546,9129.489205170306 4539.064469333272,9134.52596262691 4539.513026844361,9135.845863604394 4537.230335146654,9136.699315207254 4533.026710471022,9137.438693430158 4536.898868622142,9160.240405506105 4537.217519217753,9161.170414305408 4543.4536337066675,9166.79979085835 4545.141549795517,9167.075922509597 4541.8743617421715,9178.744700410985 4541.519884799956,9179.353263994795 4528.1980179910315,9188.295902678743 4526.276793742203,9188.916443736001 4507.7554463287815,9181.128154324251 4506.217826133361,9182.128716896637 4511.039528106572,9195.274577865144 4510.683594808797,9196.12271501834 4493.401023431099,9196.283385152929 4492.788771555526,9196.21043723321 4487.514143004431,9209.612124621519 4484.539099875488,9212.76898045442 4477.351402666653,9211.649913140573 4476.641574968817,9213.223253643257 4481.2005503999535,9231.446019267663 4481.891154204379,9232.963820965088 4469.790587164462,9236.226042809081" stroke="red" stroke-width="3.1967712722872346" fill="none" stroke-linejoin="round" vector-effect="non-scaling-stroke"></polygon><polygon points="23647.899888355518,50.50331761233974 23652.77897073771,69.32479808246717 23654.0331841422,70.66761002253043 23696.09477148438,100.16103105805814 23696.9583903288,100.67186162504368 23721.079716124455,33.735698258155026 23727.25815893337,21.113303412799723 23676.93524906668,5.423796429357026 23675.605305173318,5 23666.615222328808,36.4304470292991 23663.23676871101,48.260899819317274 23647.899888355518,50.50331761233974" stroke="red" stroke-width="3.5348731406585756" fill="none" stroke-linejoin="round" vector-effect="non-scaling-stroke"></polygon><polygon points="16159.610310257762,7988.4732188709895 16162.947112106602,7996.213893890264 16190.44543516438,8008.31742405321 16190.768163555418,8008.457165461557 16202.543089493294,7982.006346536218 16203.520012799883,7979.799449188169 16214.121407431085,7984.533130193304 16226.221683199983,7989.7426121672615 16248.154397866689,7937.268241735874 16253.892438755487,7924.285231199232 16266.007569351117,7929.638757472625 16243.875042702188,7974.479214826948 16240.05240063998,7983.2929576670285 16266.472146773245,7995.1701819447335 16277.211312639993,7999.852917401295 16303.745528319967,7993.909642280079 16304.263117084396,7993.568854224577 16362.404617386637,8000.781930981204 16394.104234951083,7931.574019426596 16341.892723199911,7907.626999510336 16287.607943679905,7882.57729883201 16276.526825528825,7906.575888811029 16275.4791233422,7908.83416800783 16253.877001386601,7912.266595327877 16241.87983559107,7906.607008821855 16239.78326613328,7893.4326216349145 16223.042750293273,7916.375217482622 16223.007506488822,7916.416089656297 16202.43182392884,7961.460845734866 16195.730840746546,7976.261772716884 16190.738162631053,7973.983773467713 16183.59357354662,7970.865763367328 16186.927171413321,7966.869629286695 16189.23840767995,7963.592242228566 16165.840016782167,7965.348887062166 16161.580176782096,7965.682754753041 16164.843287040014,7982.727889781701 16164.829888568842,7982.925686926697 16159.610310257762,7988.4732188709895" stroke="red" stroke-width="3.1335962528863233" fill="none" stroke-linejoin="round" vector-effect="non-scaling-stroke"></polygon><polygon points="18957.790707768872,9635.012710091134 18999.710737351095,9661.317015972221 19001.94886456884,9662.051829952747 18995.517015893245,9669.023915117024 18997.053762275493,9669.933300892764 19037.108200391056,9676.41359992139 19037.54481578665,9676.727313864976 19051.60621994664,9713.351773725823 19052.180024035508,9713.52956059575 19068.070610773284,9714.199714447197 19084.239361422253,9714.551141372358 19170.512408177718,9681.009164086892 19172.4945080888,9678.444210130488 19172.477323093335,9677.539466929797 19171.96322958218,9663.684075487545 19122.28490268439,9613.561631647171 19120.728349866695,9594.842145071598 19056.37083278224,9568.727443484706 19054.955255182227,9568.320931674447 18991.520193706616,9568.419563862146 18977.865695288754,9566.55798892316 18970.486924231052,9583.112489811785 18969.174165333272,9586.505362416618 18972.46989795554,9587.537684686191 18975.11580472882,9588.165371075505 18974.96376120881,9606.050438418635 18974.33694577776,9608.306127956661 18957.790707768872,9635.012710091134" stroke="red" stroke-width="3.4054407836311924" fill="none" stroke-linejoin="round" vector-effect="non-scaling-stroke"></polygon></svg>