<svg width="282.2531464532949" height="525.5988681038725" xmlns="http://www.w3.org/2000/svg"><polygon points="5,216.3059103722917 9.717135644401424,217.13742925261613 12.254980835597962,218.64602103905054 14.169797119917348,219.51647963642608 19.22538979561068,220.361120061134 24.850708764395677,221.12197297631064 32.06316401786171,222.06216612365097 39.045806364389136,222.92627069959417 41.01567288895603,223.18260294944048 42.786018702201545,223.21928651531925 51.02753479115199,223.80169390677474 60.429766257759184,224.85056674550287 60.33918094227556,228.1316583813168 58.70456746662967,228.94501728052273 58.41562652448192,231.01870644069277 68.64390286221169,231.3329961093841 71.85633194667753,232.49323733040364 74.37466197332833,230.69400035589933 71.54292423115112,229.25115826248657 70.29133226664271,228.9640378865879 72.47615687106736,227.93329979293048 72.74470883561298,227.33459994511213 70.23599075560924,225.86048703151755 77.16503921779804,216.51469618466217 79.84444216894917,209.6269233217463 82.2220882489346,206.3686519229086 82.7475413333159,206.31747212540358 95.54453760001343,212.52010429825168 93.17970744892955,216.75880775938276 94.93374208000023,217.88380079623312 91.15974229329731,224.56344057200477 96.14513863110915,227.18832129053771 109.22321152000222,235.8992025188636 107.05149411561433,237.9098789608106 103.04185599996708,243.69816870510112 96.15445930662099,255.1647053382476 92.67901240894571,267.3225058342796 93.27204039110802,267.5511656035669 93.13922076451126,268.7089500995353 90.05378588440362,281.522954362561 90.01213411556091,281.9363260078244 87.85993187560234,290.89674477279186 91.00332970661111,291.77732792217284 119.76314794667996,304.56598238123115 124.46251605334692,305.0915832881583 139.82531953777652,303.4839920286322 136.59395783115178,297.6062911970075 133.6928975644987,296.580404962413 131.3976812089095,295.1556555684656 130.07035875553265,297.6013111783541 129.10450375115033,297.1843473990448 128.56565219559707,298.46013634093106 127.21269788441714,299.28138190851314 126.02751573326532,298.6321726036258 124.69873692444526,296.8543070994783 121.5862138310913,295.48434023966547 121.19095893332269,290.0129888531519 121.25678620440885,287.07601401070133 120.29180501331575,286.49105915473774 120.30316458665766,286.2791710952297 120.58831900451332,283.1637589900056 124.73456327104941,275.74789392435923 127.14337536005769,270.7908638858353 128.02563555550296,266.12169851450017 129.16130161774345,266.5894345805282 132.06381823995616,259.1893067120109 133.6451291021658,254.99308758357074 137.71418652439024,249.70366250211373 139.97241144895088,246.6443319428363 140.8450596977491,244.68400120001752 146.58834346674848,242.60727215267252 150.63759445329197,241.94521438045194 151.35965553775895,242.0538970528287 155.50065692444332,240.2769285584218 167.40665486222133,233.36047058715485 169.52769109327346,231.49466943682637 170.3892710399814,230.38061550294515 169.08641535998322,229.4907268671668 170.48509923554957,227.90476874820888 171.96067868440878,227.09684047219343 171.9018419199856,226.28166316705756 175.92633486224804,226.7001212312607 181.77127224893775,228.90924042172264 187.60601514670998,232.38726707705064 189.88754175999202,233.0638455011649 193.13288448005915,232.76450282963924 196.11084032000508,233.55520134005928 197.08164693333674,234.15071407461073 197.5788467200473,234.55557123274775 198.10954268451314,234.01893154886784 199.72959260444622,231.87462392734597 200.12572131562047,232.08520628587576 200.58418204437476,230.61791852558963 200.69836031994782,230.028283439402 201.05196344887372,229.3014269330306 201.2972137244651,228.84130966092926 201.38139107555617,228.96041491418146 202.77337571559474,229.86479754559696 203.69524878216907,229.35441281629028 205.32607573329005,231.88775702664861 205.77929358219262,233.40303965029307 206.50688881776296,234.13305250369012 206.64436878217384,234.8938573418418 206.23367651563603,235.75609961454757 204.38323114672676,235.92229823197704 204.62556871119887,236.9493757042801 204.184001706657,237.4909895650926 203.92331406218,239.40610002342146 204.21662407112308,240.12205447116867 204.3744930132525,241.8084552740329 203.63466439116746,242.3867373999674 202.38948039116804,242.8835063331062 201.9977207466727,243.61258175078547 200.15280952886678,248.99634329695255 200.71117624884937,253.3031662235735 201.41517852444667,257.3893844775739 202.6714308266528,259.01089998928364 203.78670791117474,258.9973157151835 204.67333717329893,259.5216680850135 204.86732373340055,259.6303419935284 205.05490232887678,260.9846860328689 206.16843178670388,262.3947163220728 206.47193628444802,262.64466293586884 207.44798577786423,262.95483179565053 208.6462751289364,263.59237457672134 208.93492480006535,264.09769835404586 209.21891413338017,264.6573566541774 209.67708359111566,266.1420742594637 210.04058993782382,266.5627197693102 211.31548359105363,267.697417171672 211.90093852439895,268.40558127197437 212.26648376893718,268.9919430281152 214.23489393782802,270.7659607283422 213.97566264891066,272.26829520828323 212.9975742577808,273.85664722521324 210.80022499558982,276.83319135935744 210.2034104889026,277.5866028383607 210.25176149327308,278.6986044458463 209.24745870218612,280.1257252327632 209.27046912000515,280.7523514588829 210.07204721774906,281.2802736009471 211.67695103993174,281.66874379466753 212.6401846044464,280.7835921700462 213.377100515645,280.76004844607087 214.4320844799513,281.98929909738945 214.26110833778512,282.8649378750706 213.80410396447405,283.44899694493506 213.3709838221548,285.4547072626883 213.58565063111018,288.9875196297653 213.66691527108196,289.21344019530807 213.99080874666106,290.2932376602548 215.05860863998532,292.2368596183951 214.83578624005895,294.1469617751427 214.95200341334566,295.85422308568377 215.22463317331858,296.25262740731705 214.5995653688442,297.3047735018772 213.0604888178641,297.76112444582395 212.8860174221918,298.46737997577293 212.0666717867134,299.7345596428495 210.7708066132618,302.29017468425445 208.53704846231267,304.45416186971124 208.3183038578136,305.5728171156952 208.56355413340498,306.07623273925856 210.628375040018,307.38003758282866 213.46244295116048,307.6924063353217 213.6307976533426,307.27953623683425 213.91187427553814,307.06314128951635 214.4134431289276,306.88613187376177 219.11659776000306,305.57236440334236 221.51084629341494,305.13459105818765 225.99001344002318,304.7221688295249 227.61268479994033,304.4351478499593 228.41047637339216,304.233689681103 228.2779480178142,303.3382171856938 228.19697464897763,301.63191992789507 229.86595811555162,297.27217696933076 229.83799608889967,297.24772956670495 235.18369479116518,287.1765246715513 235.68846762669273,285.9645078916801 236.4923758934019,283.12617999350186 239.54577095108107,274.9709317408269 240.93134762672707,272.6273507102742 242.21730958216358,269.8431835427182 244.43213511118665,264.8620209811488 244.67155996442307,263.4130658580689 244.7321443555411,263.02456312812865 244.88680931564886,262.06507614650764 244.92846108449157,261.79520552180475 245.0496298666112,261.1282251786906 245.00215267552994,259.7014328127261 247.99234190222342,260.9280853973469 247.59417429333553,260.1863893108093 247.62504903110676,259.4809153554379 247.18581219553016,258.96833592734765 246.89424981328193,258.4675283607794 246.96648504887708,257.66152461693855 246.99299071996938,257.46545696340036 246.99968995561358,257.33233009575633 247.10017848887946,256.7350694407942 247.09610069333576,256.423080472101 247.4514514489565,255.86294821323827 247.17765660444275,255.50205382885179 246.63268835563213,254.42525373294484 246.18383957340848,253.92805828526616 246.26859946665354,253.43357862788253 246.79463509330526,251.94832162943203 246.73317688889802,249.8386053419672 246.4235556977801,248.55166385066696 246.18704355554655,247.24026174854953 245.1938090666663,245.8491525518475 245.30769607110415,244.82347553374711 245.77955527114682,244.17365117243025 245.86693660437595,243.86073854158167 245.62343395559583,243.35265079454985 245.51508110226132,243.24849718867335 246.46666382229887,241.4149327307241 246.56773489771876,239.2448854148388 248.28448682662565,232.05939297541045 248.75226823112462,230.424996622256 250.22522623999976,226.66660838550888 251.0314646755578,222.41722837666748 252.01712611550465,219.88739720190642 252.78841201774776,216.682268167031 252.86006471107248,215.69812059984542 253.49241429334506,210.323047550919 255.49199047114234,204.02388018602505 255.61519815109205,202.11072342062835 260.14446392888203,203.6049256544793 265.7936671288917,199.6608255666215 266.65728597331326,198.65440733765718 266.9706936889561,195.42269541614223 270.35905052442104,190.19070812495193 274.49131377774756,185.07681852893438 277.2531464532949,180.0212424796773 272.92165376001503,177.77040666376706 270.4251690666424,175.65589532721788 268.69443612440955,174.27701270015677 266.5084464355605,173.53638061753009 266.71728782216087,172.67298615572508 267.7845051733311,168.4356900799321 268.45646762661636,163.2415604813723 268.48122567113023,161.0299634449184 268.881140906713,158.68923397769686 269.37280654220376,157.27672046184307 269.61834808893036,156.5777086223825 272.43756117334124,151.72669494501315 273.10864981333725,149.740140150534 274.156060728943,147.32453760388307 275.4906649600016,143.67163539677858 273.9705210311804,143.41430350148585 274.6783098310698,140.5347026202362 274.26441358216107,139.33863316947827 274.13246776885353,137.9518186657806 274.6861741511384,135.01143463910557 272.11133752879687,137.12724656343926 271.5876320711104,137.99485943157924 270.8606193778105,138.72202055808157 270.6287675732747,139.00563539250288 270.29234944004565,140.20533111976692 270.2821549511282,141.01765910576796 270.09195491555147,141.79238068812992 269.999621973373,143.10532360593788 270.2151625956176,143.67661893408513 270.1519567643991,144.2991071420838 270.43478101328947,146.06009581056423 270.3937117867172,146.292054152349 270.0642841599183,146.6046538708033 269.8662198043894,146.83344033709727 269.7322350932518,148.06707094493322 269.55077319114935,148.7593145138817 268.704630613327,149.5897320715012 268.22811107558664,150.2380263938103 267.2910919111455,151.27230327948928 266.37650062225293,151.89884707320016 265.22539719112683,152.89234340854455 263.65020302229095,154.1685242569656 261.05089962668717,149.76732232235372 259.34317710227333,150.4881016756408 258.5182973155752,150.63035451585893 256.30055907554924,150.71461889322381 254.70148067560513,150.51890803105198 252.8125875199912,149.75146605580812 251.60410368000157,149.347357388644 249.85560320003424,149.1557226353325 245.64993962668814,146.91317576199071 244.39368732448202,145.6845221123076 242.2813892266713,143.50446030928288 238.01281109335832,139.7346053737565 233.08916423108894,135.32812813832425 228.8226249954896,131.3112062405562 229.8394524444593,129.15048301510978 228.0734756977763,128.4396008423064 225.9311766756,126.76591498072958 224.38277944887523,125.99567082186695 222.3068902400555,124.75738435756648 218.6010478932876,123.24179913941771 217.66839779552538,122.76877128030173 216.85779029340483,122.37140896118945 212.1750246399315,119.69904924783623 211.60617216001265,120.31979357561795 210.66711409774143,119.40136320184683 210.66478392889258,118.74300890375162 210.29399580450263,118.63018680433743 207.6780899555888,116.46933781099506 205.8602669511456,114.52641314128414 205.6109388800105,114.15169130160939 205.5663743999321,114.04113237699494 205.53870364441536,113.91471452137921 205.26986040896736,111.85939457814675 205.60103566222824,109.34957613848383 204.9663559111068,109.3414199744002 204.95994794659782,108.5298801191384 204.3517738666851,105.22115870087873 204.1132228266215,102.5250256198342 204.58595583995339,100.54345981462393 205.8261882311199,100.02370929403696 206.6199020089116,98.98556395806372 207.26943658664823,97.5182859452907 207.64313742227387,96.76470479235286 210.65721087995917,94.77991453727009 209.80990321771242,93.65564518538304 207.30118513770867,90.25425324210664 203.07571512891445,83.08559822838288 202.39384945773054,81.57742710399907 201.99073024000973,80.16667945834342 201.851502648904,77.92704782314831 201.9645158399362,75.53104247222655 202.2953998221783,73.84471384511562 202.9621193956118,71.66937142185634 205.7784197689034,65.37616474257084 208.32733326219022,66.45344627602026 210.18069134221878,61.60631724842824 208.27519573329482,61.375175161403604 209.2317300622817,57.25219363102224 209.97709283558652,54.32794309174642 210.36623103998136,50.12143139046384 210.18972074671183,47.36796011996921 210.52351743995678,44.37105602747761 214.2200391110964,32.38756009633653 219.19174570660107,21.279642151435837 219.2747579733841,21.18444840470329 222.24921855994035,19.94103293051012 225.15027882670984,19.781015768065117 227.76472832006402,20.5801937947399 228.43785585777368,20.54302278882824 230.82336625782773,19.504045274225064 232.5549730133498,18.220728945627343 233.0134337422205,17.89479893888347 230.58219377778005,17.14955519931391 227.73356231104117,16.624619209673256 219.99041109334212,14.745174800162204 217.81752860441338,14.08605080167763 212.3946430577198,12.101413676922675 210.68138638220262,11.078715580515563 209.47931050660554,9.917747958563268 208.15344440890476,8.034619022510014 206.16056746663526,8.29845751915127 205.39714588446077,9.441300649894401 204.05292970663868,12.802249226893764 201.628388977726,16.803677828458603 198.64227754669264,19.5384966150159 195.80471438227687,21.20439376460854 193.5339647999499,22.420150662073866 197.8698265600251,13.581960125244223 197.9106045155786,13.435537884535734 196.44492828450166,13.975894395553041 196.06074168882333,14.105090174824 192.96860757330433,13.946428680792451 190.46484110224992,14.124129546398763 187.53931406221818,14.966846728289966 185.70110208005644,15.42016285227146 182.56119950220454,14.303190220962279 178.5964171377709,13.263276298821438 178.5923393422272,12.960004912980366 173.0823637333233,12.280022692284547 172.6807008710457,12.056081416201778 168.38270435552113,10.467633042950183 164.62093795556575,8.921786031220108 157.2019714844646,6.267980853212066 155.0864694045158,5.326855977997184 154.609367324505,5.544457466690801 151.92239132442046,5 151.66199495107867,5.34272276062984 150.38681002659723,7.021875158126932 150.22661091561895,7.224968307011295 148.19382983108517,13.426018168858718 146.75873706664424,17.80413681967184 144.6406135467114,22.186247177713085 143.5163070576964,24.96179500350263 140.4987383466214,31.821865499019623 136.3303574755555,36.10216079605743 134.49505820451304,38.653617363772355 127.07347029342782,36.431689732999075 126.98579768894706,33.5325432223035 126.74054741335567,33.513958825264126 122.65838279109448,31.544910316704772 121.18658986664377,31.142848729738034 118.5092258133227,29.94300551165361 118.04290076438338,29.591709023108706 116.07012152893003,28.343808657256886 114.46463516447693,28.260856799432077 111.87756515562069,28.12758981413208 109.31670954660513,26.962180151895154 106.93818965333048,26.3243978950195 106.05855089775287,26.007092593819834 101.57384960004129,25.26640956342453 100.48070912004914,25.09325074381195 99.80670776881743,30.644690221059136 98.76133575115819,35.30575936741661 96.86516081774607,40.264976649777964 95.61822919116821,44.23281308636069 93.23038862226531,50.42646400863305 91.2375116799958,54.82740713865496 90.05728113779332,57.478354583727196 89.9859197154874,57.676868412760086 89.28395633783657,59.243670984287746 89.16395264002495,59.48342658841284 87.75274410669226,64.25582255329937 85.57782271993347,70.18876656034263 83.65747228439432,75.49252127064392 83.5115454577608,75.86005857540295 82.84832113783341,77.95559851301368 81.42604430229403,80.01033198367804 80.78320895996876,83.56868208386004 82.19441749330144,84.05674976913724 84.8260519822361,85.11807795299683 84.2152564622229,87.6993225273909 82.90919679997023,87.65038067451678 82.11373539560009,89.18615264899563 78.42682567110751,88.37227188883116 72.72053333336953,86.83105617202818 69.93219498661347,86.50794781907462 69.50257009780034,88.94280443293974 69.82180323556531,89.03706224722555 70.38861681777053,89.57949704886414 73.95901809784118,90.67070682742633 73.5130820266204,91.81900888960809 74.69942926219665,92.00797514466103 78.20924615114927,92.75613489525858 76.98182968888432,97.63565042417031 77.16562175995205,97.7484833963681 83.30008263117634,101.75107066566125 84.11360284441616,102.4194452757365 85.86647239106242,104.84188955975696 86.11084885324817,105.21028360922355 86.83873535995372,106.38796225260012 87.79206570668612,108.35270937450696 87.88206848001573,108.9336113797035 88.95132472889964,111.86030080815544 89.62561735115014,112.15074732806534 89.84174051554874,112.95003965229262 89.63406421337277,113.24320339213591 88.83365120005328,112.99671025859425 88.53888483555056,112.90699393849354 89.33230734220706,114.90204055374488 90.24835498665925,116.66507926105987 91.58441557339393,118.38868388126139 92.21589134226087,119.2758546557161 90.3616594489431,118.2613623450743 88.51703950227238,117.32842397823697 87.97527523559984,117.05157748732017 84.4797306311084,115.64151265076362 83.41746488888748,115.59393639647169 81.63838094216771,115.45528553926852 81.00340992002748,116.28673625353258 79.96182442666031,116.62883085769136 76.02587790216785,116.35107726638671 71.43165866669733,114.91155583568616 69.83141518221237,115.80372494412586 68.59176533331629,115.627919436316 68.10359495109878,115.44033299048897 67.44211825774983,116.73712294490542 65.35545201774221,120.87166551477276 64.18221198231913,123.70349871262442 63.187812408898026,126.22311967448331 63.064313457813114,126.6186626314884 62.54031672887504,128.37435723800445 59.60838172445074,137.30076941347215 58.848455395549536,141.57672747166362 58.68650865775999,141.4113629909698 58.26445681776386,140.95151315885596 57.75706254225224,140.50751929654507 57.166655999957584,140.1921924938797 56.689553919946775,139.68069158052094 54.0716091733193,145.6274384778808 52.01843911106698,150.61676348408218 49.83157560892869,155.9244499054039 49.241169066750444,158.1872898771544 46.11961656890344,159.9979979498312 41.72812202665955,162.43746952252695 34.114877724437974,166.69889129255898 30.778658417752013,167.93693941936363 26.410465564462356,168.68121450894978 23.382411093334667,169.20895519579062 17.891368106589653,170.15933820512146 15.783147804439068,170.73328056011815 14.004937671124935,171.6899987894576 14.419125191052444,172.33324447984342 14.847002453287132,172.8700360849034 14.289509546593763,173.69084904558258 10.716778097790666,180.47285636444576 8.91730517335236,185.09856074047275 8.7658441956155,185.61720243585296 8.616130844457075,186.13493697578087 8.493214435642585,186.44521474133944 7.907759502297267,188.1460726003861 7.402112853364088,189.457830339903 6.952098986599594,191.06445103965234 10.060253013274632,191.48886507411953 10.211422719992697,193.55339882220142 10.221908480045386,193.7114766202867 9.097893262165599,200.89461006928468 6.976565759978257,208.0394618990831 5.692351431120187,213.29864784918027 5,216.3059103722917" stroke="red" stroke-width="3.9978596359059138px" fill="none" stroke-linejoin="round" vector-effect="non-scaling-stroke"></polygon><polygon points="163.5502253511222,476.8042447909247 163.6582869333215,477.3796422125306 163.7954756267136,477.9256350605283 163.76867868436966,478.27756676013814 163.7963494400028,478.4960536349681 163.81295189331286,478.83938971045427 163.79081528889947,479.3071220450802 164.2052940799622,480.4515692726709 164.3354922666913,480.77907006203895 164.3806392889237,482.3034802483162 164.61802524444647,483.07608525978867 164.85541120008565,483.88125618884806 165.90282211557496,484.6846147828037 166.2243854221888,485.97197266627336 166.25001727999188,486.7110917845275 166.26079431117978,487.4836811843561 166.32953429338522,488.2015355101903 167.39966435555834,489.41061940288637 167.25082481768914,490.0149326711544 166.53662805329077,490.402126519999 166.4515768889105,490.3627739055082 166.10030392883345,490.22978915576823 165.85709255107213,490.3514656816842 165.70563157333527,490.4134347412037 165.05289301334415,491.42755363794276 165.08668046223465,491.5071631286992 165.58854058664292,492.01512527494924 166.21564728883095,492.6348103521159 166.26341575104743,492.7162286985549 166.49351992888842,493.17081390775274 166.9959625955671,494.1930617632461 167.27733048889786,494.7928385848063 167.3944214754738,495.06377795059234 167.63442887109704,495.78613050829154 167.81006535119377,496.21040409523994 167.8374448355753,496.29317805706523 168.10861823998857,497.37104595976416 168.27901184000075,498.09836631885264 168.40134570666123,498.565605046344 168.26415701326914,499.00479949149303 168.1808534754673,499.239548785903 167.73549994663335,500.3965560681536 167.81676458660513,501.2894105028827 167.71132444450632,501.85434032185003 167.60530176002067,502.50792023254326 167.76433578669094,504.2284769458347 167.8377361065941,504.1316846834379 168.02939249784686,503.72778005938744 168.33435335115064,503.15516595123336 169.53788558230735,502.91408862982644 170.11431111115962,502.769351648516 171.04958264890593,502.3532322921674 171.74950712895952,502.69472160498844 172.24670691555366,502.87292906059884 172.58865920000244,503.14702450757613 172.91750428441446,503.10722188983345 173.242562844418,503.4921309915371 173.73626737773884,503.6635532754008 174.1702613333473,503.65405494649895 174.6255180799635,503.9276971112122 175.083104995545,504.02946477086516 175.87944021332078,504.65635250724154 176.8333531023236,504.71334221214056 178.1670835199766,504.7793778833002 179.93830314662773,505.6437196536572 180.63298474659678,505.8915784096462 181.48407893336844,506.0643556971336 182.3995440355502,506.0489776193863 182.75605987559538,506.0263627974782 183.1067502932856,505.9684688424459 183.4830725688953,506.0037479730672 183.83521934226155,506.1335570329102 185.05244131560903,506.2226593742962 185.91314744891133,506.4592100835871 186.9928894577315,506.7789828145178 188.05486392893363,507.2819341669092 189.60209607111756,507.9752995526651 190.3299825778231,508.4673931534635 190.69378019555006,508.76454840239603 191.4330262755975,509.486855592113 192.26751800894272,509.93326466321014 193.0973494044738,510.73788417712785 193.04346424888354,511.5764220976271 195.1837243733462,513.4687741464004 195.98967153776903,514.2010159095516 196.6106615466997,514.6465107764816 197.65690737776458,515.3733212614316 198.53421596449334,516.2923463604529 199.01830855105072,516.8183417591499 199.4383214933332,517.2470971734729 200.15135317330714,517.94495360367 200.6899134577252,518.7925092213554 201.47139384888578,520.1325811014394 201.78596664883662,520.5337417541305 201.9490784710506,520.5988681038725 202.30588558223099,519.5134264027001 203.10251207114197,517.6043927082792 204.28332515549846,512.8152270751307 204.59178126219194,511.42219287296757 204.9439280355582,509.8961770142778 204.79304960009176,509.85637562791817 204.23264398227911,508.2887379763415 204.05904640001245,508.03319297509734 203.6323342222022,507.94454366579885 203.55602119106334,507.7889549949905 203.65563591115642,507.0879000144778 203.61223651561886,506.83280590130016 203.40980309341103,506.1905463519506 203.44795960886404,505.7925254004076 203.5353409422096,505.51798097998835 203.6655391289387,505.2334856559755 203.9189449956175,504.85084112128243 204.54838186665438,504.2149079396622 205.04237767111044,503.47991884476505 205.21830542222597,503.13119392178487 205.36248462228104,501.68472583813127 205.81861518218648,499.0414366812329 206.0347383467015,497.9043239975581 206.31290225777775,497.4407023678068 207.45264611556195,495.97700849280227 209.62115953781176,492.16258334345184 209.80349525331985,492.2281704891939 210.34758968884125,492.1847472776426 211.84588828438427,491.87807060056366 213.05582847993355,491.8730950166937 212.98038926220033,492.2842587911291 213.65176917333156,492.75015300064115 214.6776260266779,493.4928677312564 215.28405248001218,493.86331950494787 216.06524159992114,494.0768152353121 217.15372174221557,494.1618516120361 218.33074830216356,494.13697395205963 218.5780374754686,494.02977382106474 218.6747394844424,494.014394894999 219.20164892449975,494.86068653769325 219.54884408891667,495.3500958128716 219.76467598218005,495.687072910252 220.10225920006633,496.5442136506317 220.5968375466764,497.31541128020035 221.21637120004743,498.05720584088704 221.8664883200545,498.6035992454854 221.8338659555884,498.6759691302432 222.44728291558567,499.84112096903846 222.81457578670233,500.30383288045414 223.31497955555096,500.86378987308126 223.85557873779908,501.7552854793612 223.9945150577696,501.726790242421 224.56569770665374,501.30705044732895 225.53359160898253,500.71136230416596 226.26584718225058,500.2834790046909 227.09422222222202,499.9709336962551 228.06386375112925,499.7049758307403 228.33591096883174,499.74568368832115 228.68194104882423,499.7863915382768 229.69847722665872,500.05461084877606 230.64481706661172,500.2540789585328 231.5530003911117,500.26538666908164 232.29865443555173,500.1753772771917 233.60733553778846,499.4747501377715 234.85426716448274,498.82387500739424 235.81517056003213,498.71486793330405 236.04673109331634,498.78904702700675 236.52470698673278,499.11244948825333 237.17511537775863,499.2223609848879 238.08737649780232,499.02786735241534 238.96759779553395,498.7506005486939 239.93199644447304,498.47604726522695 239.98704668448772,497.7668207096867 240.08811776002403,496.8793796416139 240.17782926221844,496.36690565769095 240.33744583115913,495.91232710919576 240.54424831992947,495.44960588234244 241.4055369955022,494.1641132172663 241.5995235556038,494.1130009315675 241.73205191106535,494.0673164889449 242.27643761783838,494.66437973617576 242.54819356440566,494.9077277727192 245.53517880896106,496.16291082423413 245.50051754666492,496.27463307371363 245.7941188266268,496.5505460763816 246.00092131551355,496.9223496032646 246.60035726218484,497.96086315327557 247.06231324444525,498.5628911748063 247.3923234132817,498.80940104217734 247.59446556447074,498.91705113544594 248.44031687115785,499.2160286367871 249.11431822215673,499.69412040081806 250.08541610674,500.7036730768159 250.7594174577389,501.2021153723472 251.23098538664635,501.73131329612806 251.9967371377861,502.56400589144323 252.21955953771248,503.05565939680673 252.52248149341904,503.2976411660202 253.2148329244228,503.80331435159314 253.870192924398,504.19817283091834 254.2977789156139,504.0860023390269 254.16787200002,503.49303559493273 254.2986527289031,503.4206673083827 255.4270370133454,505.4135002284311 255.87093418673612,506.2859808130306 256.530954524409,507.54471674136585 257.0619417600101,508.742386152735 258.5197536711348,511.5492849985021 258.6554860089673,511.47601481422316 258.71432277339045,510.8848773033824 258.8066557155689,510.51852501987014 259.45648156444076,508.91425660124514 259.99678947555367,507.65643316175556 260.3637910755351,507.0598577684723 260.5837007644586,506.71656610886566 260.94633329776116,506.3162846378982 261.8609245867701,505.61115424870513 262.74871893331874,505.53516828501597 263.1681493333308,505.47863109241007 264.591591253411,505.228962674737 265.5533684621332,505.1692593151238 266.9645769955823,505.4125956329517 267.35721045336686,505.59170546289533 267.5634303999832,505.71518260857556 267.8165449956432,505.91962080588564 267.8727603199659,505.8626314161811 269.7357303466415,505.9775147738983 271.2750981688732,505.67854653968243 271.32461425778456,505.0181916503934 271.37238272000104,504.67444447858725 271.6461775643984,504.1289708811091 271.9773528177757,503.8666364926612 272.204544284381,503.75853654090315 272.33707263995893,503.74180139706004 272.21910783997737,503.11445872986224 271.83026090671774,502.09225268207956 271.7108397510601,500.9601312786108 271.36568348447327,500.19301731162705 271.01062399998773,499.6556740819942 269.8583554844372,498.0391133206431 269.5085388800362,497.1697659542551 269.3693112889305,496.84183745773043 269.50999523559585,496.9205403418746 269.7622360178502,496.3854506331263 269.0352233244339,495.2958175740205 268.1410210133763,493.815825722937 267.87771192891523,493.2902271786006 267.0420551111456,491.53339806816075 266.7624348443933,491.1344457168598 266.24309845326934,490.84495602553943 265.47909432882443,490.9856299703242 264.83829788444564,491.59400981274666 264.1104113778565,492.2996378391981 263.7145739378175,492.6999450317817 262.13734087115154,494.39705843891716 260.76254122669343,495.26958308706526 259.83979434671346,495.42834691680036 258.7903445332777,495.76396693999413 257.93633763550315,495.74587422958575 256.7467864177888,495.53418940567644 254.83255267550703,494.83309503941564 253.5602804622613,494.324234813801 252.89093944896013,493.9619256097358 252.3983999999473,493.57564272434684 251.83042133331764,493.01204843481537 251.2068098844029,492.28652041591704 250.82844871119596,491.83329034160124 250.53950776881538,491.3900105156936 250.1224075377686,490.7033773334697 249.9624996978091,490.3220642968663 249.6604515555082,488.7931868270971 249.43850296887103,486.87664688623045 249.43850296887103,486.1637639143737 249.57598293328192,485.6539787867805 250.0105594311608,484.84881440148456 250.40464924450498,484.1463286646176 250.68689095112495,483.3578954231343 250.86107107554562,482.7757286016131 250.98981290659867,482.05288061115425 250.9239856355125,481.16401856555603 250.65718129777815,480.3117932335008 249.24772039114032,478.3852269867202 248.41148103110027,477.46332803182304 247.44649984000716,476.5622336293454 246.63734869332984,475.3345317507046 246.22024846228305,473.529155087017 245.87829617783427,472.69001852645306 245.4620697599603,471.4546045938041 245.00273521780036,470.0567825156613 244.8218558577355,468.552643574425 244.81195263995323,468.18260118644685 245.26691811555065,467.7627968369052 246.38103011553176,467.4583477030974 247.02969087997917,467.154350521334 247.48989923554473,466.83180542918853 247.99467207107227,466.38621289731236 248.73974357335828,465.5732869178173 249.18655345775187,464.9842869028216 249.3697629866656,464.5952384015545 249.6161783466814,463.92978290305473 249.83375786663964,463.4697081320919 250.06473585776985,462.4581735612592 250.26658673782367,461.4936827410711 250.57416903111152,460.1686318780994 250.6592201954918,459.5375447347178 250.59717944893055,458.8223104313947 250.49669091554824,458.43551291449694 250.35921095113736,457.12130102177616 250.38979441777337,456.25360015477054 250.65397731552366,455.51302061550086 250.87679971556645,454.71860262705013 251.2478791110916,452.98453554254957 251.6501245155232,451.3662716158433 251.73080661334097,449.88100511569064 251.8062458310742,447.380052253895 251.92421063105576,445.45229025313165 252.21023886231706,443.440359944012 252.69200128002558,440.82803505967604 253.3077484088717,437.68723171035526 253.48047217784915,436.5253673251136 253.64970069332048,434.9956602663151 253.94679722667206,434.89114572783 253.92844714666717,431.9095194003312 253.66251662222203,431.3552672212245 254.50545521778986,430.46257891348796 254.5596316443989,430.83449511474464 254.34146958228666,432.94969989173114 256.28890823118854,433.3252314295387 257.11990471102763,428.8599838425871 256.78086513769813,428.73782055056654 256.89737358223647,427.24380319949705 255.43635768885724,426.14703773288056 255.38946303992998,425.500015914673 255.2968388266163,425.27152173698414 255.54005020449404,425.24618375406135 256.01744355552364,424.46975413453765 256.1499719111016,424.1856055408716 256.56124672002625,423.1711739426246 257.4277782755671,421.68435799807776 257.79128462227527,421.1486312050838 257.3112698311452,421.53866215934977 256.71387278218754,421.31785585789476 256.2953161955811,420.633264408214 255.97025763557758,419.7301252752077 255.54558435548097,418.41884747194126 255.3376167821698,417.7125279000029 254.98721763549838,417.2252067847876 254.57332138670608,417.04285700665787 254.03854762669653,417.0007762670284 253.69921678223182,417.2238493427867 253.3188167110784,417.5858335644007 252.86647267558146,417.7527985841152 252.86851157341152,416.51571597193833 252.98210730671417,416.11029161396436 252.9567667200463,415.2623368926579 252.7892858311534,414.02705010189675 252.7788000711007,413.1560103376396 253.20492970664054,411.64333405392244 252.98909781337716,410.05236556427553 252.92152291559614,409.3885536073358 252.62471765337978,408.0844536127988 252.67598136886954,405.88484188518487 252.42723584000487,405.7635707310983 252.26004622224718,405.68211991817225 251.8018767645117,406.72287801711354 251.43545770668425,407.9346761885099 251.3218619732652,408.37360067589907 251.18350819556508,409.1161502972245 250.9723366399994,410.12521733285394 250.89922759111505,410.31662279518787 250.70844501326792,410.6636861721054 250.36707527108956,410.967762105749 249.98026723554358,411.2270408035256 249.80754346668255,411.3080370525131 249.61064419557806,411.32342181156855 249.42510449781548,411.17907653021393 249.29432376881596,410.8673084960319 248.40827704884578,410.6587087351945 247.48669525329024,410.50531312217936 247.24756167118903,410.68133344774833 247.09318798221648,411.4207077623578 247.21406549331732,413.43067104404327 246.82026695110835,414.6311197913601 246.75968255999032,415.0075878451462 246.61055175110232,414.8519328632974 246.73317688889802,413.71890604274813 246.67725283559412,413.7148336513201 246.72327367111575,413.06913241453003 246.6321058133617,412.63157484843396 246.49608220451046,411.5736502390937 245.38109639112372,411.3623361970531 243.71735580440145,410.3374375635758 243.73978367995005,412.8949239747599 243.68356835562736,413.4261461588321 243.18899000890087,413.22886106942315 242.80829866661225,412.8094034171081 240.66104803560302,411.24966545705684 238.559235697845,409.5858421709272 235.97595221328083,407.58670346695 235.8745898666093,407.75684364460176 235.95498069329187,408.2378509287373 236.08809159114026,408.8034743175376 236.17751182219945,409.56050236534793 236.2721749333432,410.02250085701235 236.5552904533688,411.1587143354118 236.9621961954981,414.2356466407655 236.7752001421759,414.5256905204151 235.5093358933227,413.83474292070605 233.93880206218455,413.137005794968 232.30273223109543,412.56460629135836 230.3873334043892,411.78813151997747 229.47303338674828,411.575912700966 228.9003943821881,411.4917491036467 228.5164990577614,411.5388083233847 227.82939050672576,411.69310819369275 226.54692380444612,411.79446640686365 225.3620329244295,411.42885263066273 224.29452430224046,411.1664067202946 223.02749496884644,410.9302051309496 222.57952000002842,410.8994355564355 222.1694102755282,410.92477520625107 220.81033927109092,411.6388091315748 219.92924415995367,412.038811905717 218.8276568177389,411.96460330171976 218.07326463994104,411.9008019817411 217.77908081782516,411.8175434935256 217.341009066673,411.35011889075395 216.75089379551355,410.8541861741687 216.09902904892806,410.56096994993277 215.28987790225074,410.1383396984893 214.40295736887492,409.83652508829255 213.62584604439326,409.59036713588284 212.80941312003415,409.39172108570347 211.51296540442854,409.2043872870854 210.96450190222822,409.2147947245976 210.68226019560825,409.35506883333437 209.87485667550936,409.30800914240535 209.3875601066975,409.2120797409443 209.0828905244125,409.0776880084886 207.83770652441308,408.3821981570218 206.6542719999561,407.9582061833935 204.46886485337745,406.86451123526786 203.27290567115415,406.25046495650895 201.99131278216373,405.5024755175109 201.12390741333365,405.5024755175109 200.5923376355786,405.6006690746872 200.15834367997013,406.11923892470077 199.82687715557404,406.4798840706353 199.3748243910959,407.09302470006514 198.82257436448708,407.8572986872168 198.08740607998334,408.9365087255137 196.92290417780168,410.222956313286 196.31531264004298,410.94604241021443 195.34654492442496,412.15012476441916 193.8610622577835,414.0207152797375 192.7775337244384,415.3664083540207 191.95585791999474,416.4025954121025 190.89155327994376,418.0066394667374 190.6433902933495,418.35640547517687 190.00259384897072,419.13964401051635 188.90887082659174,420.4142670861911 188.910618453403,421.07442570105195 188.11166179564316,421.6667116128374 187.49940992007032,422.13818633777555 186.3518017422175,423.00376060267445 185.25545727997087,423.8028187926975 186.2883046399802,425.6647125596646 186.48374755552504,426.028492620273 186.6829769955948,426.4800496128155 186.94249955553096,427.0107862453442 187.31183132447768,427.6985248879646 187.70941639109515,428.38264170184266 187.94505472003948,428.74867951264605 188.11078798223753,428.9554521453101 188.55585023993626,429.5617427608231 189.19781176897231,430.41914340335643 189.6629717333708,431.0276922098128 189.93967928888742,431.36476869904436 190.83213397336658,432.39228321186965 190.45202517334837,432.8261815457372 189.7783150933683,433.47770609834697 189.40840078226756,433.8260899562156 189.224026168813,434.31563620321685 189.30296064005233,434.6070107121486 189.33092266670428,434.80337157461327 189.45675178663805,435.39652508776635 189.29218360886443,435.5281859464012 189.18849109334406,435.8376565173967 189.08013824000955,436.24530640925514 189.0221752888756,436.4923391583143 189.04343807999976,436.88234267232474 189.36587520001922,437.0126453151461 189.81006364442874,437.2411271916935 189.74802289775107,437.6008159976336 189.5741340444656,438.8798555373214 189.4552954310784,439.6078234008746 189.2572310755495,440.3661018235143 189.29189233772922,441.3818107348634 189.1040224711178,441.81614361389074 189.01634986675344,441.9324179982068 188.66362055111676,442.35815363924485 187.87602346669883,443.37837753724307 187.7143680000445,443.7163397894474 187.64679310214706,443.8443762221141 187.50407025776803,444.178265929746 187.22444999113213,444.7152934250771 186.99055928888265,445.1165928047849 187.0555127466796,445.5522755117854 187.0858049421804,445.82734784216154 186.17441763554234,445.8839004987385 185.45992960000876,445.8223712077597 184.95981710217893,445.6635712662246 184.351351751131,445.51924871187657 183.81774307554588,445.4500281426008 183.81308273773175,445.54910855856724 183.7734698667191,445.6106379266712 184.03561386675574,445.913760295487 184.45650062221102,446.2236685504322 184.67408014216926,446.40327941044234 184.93855431105476,446.6756361502921 185.4648812089581,447.19456075818744 185.42876359110232,447.2425171111827 185.20506737777032,447.08326578501146 185.13836629327852,447.3755280729383 185.1002097778255,447.68000524124363 184.7128192000091,448.31067427940434 184.6758277688641,448.427850033273 184.612039395608,448.7386595463613 184.80777358217165,449.01689476089086 184.78913223114796,449.5344565574196 184.75650986668188,449.6471075199079 184.5744654221926,450.1542623373098 184.41688775108196,450.67453590233345 184.17338510218542,451.37215294339694 184.13464604434557,451.6078583265189 184.11192689777818,452.14079585438594 184.09969351114705,452.2538978786906 184.46844273782335,452.1769885085523 184.83078399999067,452.45340970670804 185.04719843552448,452.8153354591923 185.10953045333736,453.1876659505069 185.0737041066168,453.54235199978575 185.04894606221933,453.9563024631934 184.97904099558946,454.4503275617026 185.0372952177422,454.9583760150126 185.21089280000888,455.3673473740928 185.3938110577874,455.6677417777246 185.67576149338856,456.03418619791046 186.2996642133221,456.936722607119 186.52365169778932,457.5696268637548 186.64656810672022,457.75963350152597 186.96725760004483,458.02654730842914 187.02026894222945,458.0835491977632 186.77123214222956,458.177647522185 186.5562740622554,458.15095617459156 184.98777912883088,458.03423804044724 184.4442672355799,458.053691067209 183.49268451554235,458.12697919865604 182.58450119115878,458.20524365769234 181.72350378660485,458.56896944518667 181.2402850133367,458.7811425412074 180.45327047118917,459.2190599204041 180.13228970661294,459.5162822686834 179.51537749334238,460.1057494417764 179.1058503111126,460.4658529324224 178.17523911118042,461.2643214913551 177.80940259550698,461.5692316599889 177.45317802671343,461.851974387886 177.14413937774953,462.1347167493659 176.76082659547683,462.46088788216 176.29916188446805,462.8680356297409 176.1372151466785,463.0530614105519 175.14864099549595,464.3609042019816 174.61619740445167,465.03992982942145 174.33220807113685,465.8261673885863 174.09220067563,466.27221344347345 173.8047160889255,466.7422346177045 172.38855594664346,468.76706882735016 172.15000490669627,469.08870631153695 171.76785720896441,469.5808876475785 171.22318023105618,470.253563835402 170.5829663288314,470.95021351770265 169.30982030218001,472.2982695713872 169.29263530671597,472.22091490228195 169.25797404441983,471.5826247440418 168.98243157332763,471.4582235389971 167.97492479998618,470.8362164492137 167.3682070756331,470.79640793509316 166.7271193600027,471.01354519673623 166.2840960000176,471.0307352206437 166.30943658668548,471.5749344897922 166.3327382755233,472.45343119307654 166.20020991994534,472.98043704376323 165.42863274668343,473.41923064313596 164.92735516442917,473.69245837663766 164.72958207991906,473.8381193794776 164.607830755529,473.97789956710767 164.30520007107407,474.29771991830785 164.18490510224365,474.5677800194826 163.9900447288528,474.9138364442624 163.80042723554652,475.3105566636659 163.587508053286,475.8239848386729 163.5502253511222,476.8042447909247" stroke="red" stroke-width="3.9671194918806174px" fill="none" stroke-linejoin="round" vector-effect="non-scaling-stroke"></polygon></svg>