<svg width="338.3979832888581" height="308.4230888502789" xmlns="http://www.w3.org/2000/svg"><polygon points="5,102.9152865865617 11.049992248881608,116.35232795827324 10.916590079898015,117.38099919341039 20.71611534222029,124.62281581008574 20.83670158230234,124.77895184076624 5.29156238224823,164.60822729655774 5.100488533382304,168.39913268393138 86.21891043556388,180.00028340995777 87.25729194667656,180.55460451781983 83.02250126225408,186.68441649276065 82.81016462226398,186.742064211634 102.08037006226368,197.4434379452723 102.86621951998677,197.5250276689767 110.02391580445692,212.79729607066838 113.29489038221072,218.37952762370696 132.19692913780455,225.6215871058521 132.5560664178338,225.87873926380416 129.7814178133849,242.36422932118876 129.79714645328932,242.58234881079989 137.46922752005048,241.5484959917958 141.52459519996773,240.86576035094913 146.77475697780028,257.91844746406423 147.7033292800188,259.9505315987044 153.79060423118062,263.90781119745225 154.05595221335534,264.01819022378186 188.64031886227895,235.72921547625447 189.87792981334496,234.23513507918688 224.850852124393,259.9722531650914 225.2198926222045,260.1868089318159 259.08685852447525,301.8044790592394 260.32039167999756,303.4230888502789 309.5015187910758,259.7537075114087 312.02130517340265,256.88599617552245 313.13221319112927,261.00336017488735 313.2830916267121,261.45862386538647 329.90942919114605,251.40270810184302 330.03991864889394,251.1606582996901 321.3070281955879,230.97073383146198 316.14453902223613,219.38023527001496 330.3099269688828,201.12337062560255 331.14674887107685,199.37985550280428 313.9535977244377,198.99230729497503 310.2923198577482,198.67481878382387 328.42045127111487,164.67741145810578 333.3979832888581,156.13921297102934 296.63257856003474,109.88786925311433 296.4071347200079,108.9328007742879 276.77080149331596,102.12521230435232 274.4135443911655,100.79214963800041 260.0803842844907,76.2934195373673 259.9836822755169,74.6616124578286 227.78511729778256,46.382587168191094 219.76904504885897,43.50456606905209 217.78519751108252,16.311941326013766 216.395251768874,13.237816862296313 202.28666168882046,5.139355772465933 201.59168881783262,5 173.07712085335515,12.81887700263178 169.33690851554275,13.82717159279855 154.33528120885603,33.82480439165374 153.39272789331153,37.2101510714856 150.69526613329072,35.03446495428216 149.50921016884968,33.97967326286016 151.6037407288095,27.400091316958424 150.8251730488846,26.518775466713123 136.44511829328258,22.753839817247353 136.2479277511593,22.672185623145197 119.95684323552996,30.880500212602783 119.54789859557059,31.3442251739325 98.63259391998872,24.892370179702993 96.90419114672113,22.595856675354298 47.994819982210174,74.38254473468987 46.946826524450444,75.89855704666115 25.015568213304505,66.85201998910634 23.11327658663504,65.4490859171492 25.123047253349796,75.67894221033202 25.040034986683168,76.8187186573632 19.04654933337588,79.59958882856881 18.63935231999494,81.18211373052327 22.005281280027702,87.38876740605338 21.30593934224453,89.28666434070328 11.301650488865562,93.02296271995874 8.595450595603324,93.22792050632415 5,102.9152865865617" stroke="red" stroke-width="3.553508144013573" fill="none" stroke-linejoin="round" vector-effect="non-scaling-stroke"></polygon><polygon points="5,102.9152865865617 19.882497422164306,126.78608844679547 18.438083982211538,129.83512698864797 33.929046755540185,103.90986232884461 34.73324629326817,102.46413277991815 89.07132842671126,133.6536846672534 89.4083291022107,133.0934798999806 111.26269183994737,152.3928923602216 113.88063658669125,155.01315026002703 120.42637226672377,152.61597916827304 120.13510115561076,156.16271874838276 134.5046701511601,139.4760931591154 134.9631308800308,139.22283244348364 155.17501582216937,143.0656223629485 156.0849467733642,142.91748280631145 168.88339939550497,132.08173673879355 168.97223708441015,132.05290576117113 171.3169695289107,128.20016624458367 171.37027214223053,128.12209944991628 162.61000220442656,121.8425114522106 162.61262364441063,121.77908036118606 175.85963377775624,86.60529234848218 175.8841005511349,86.36217494885204 171.74426424887497,69.27851588901831 171.05074773333035,67.74471091508167 150.69526613329072,35.03446495428216 149.50921016884968,33.97967326286016 151.6037407288095,27.400091316958424 150.8251730488846,26.518775466713123 129.3864541866351,22.719225543027278 129.34858894220088,22.687273900432047 117.57948842667975,30.93685726937838 116.90053546661511,31.36241914780112 98.63259391998872,24.892370179702993 96.90419114672113,22.595856675354298 47.994819982210174,74.38254473468987 46.946826524450444,75.89855704666115 25.015568213304505,66.85201998910634 23.11327658663504,65.4490859171492 25.123047253349796,75.67894221033202 25.040034986683168,76.8187186573632 19.04654933337588,79.59958882856881 18.63935231999494,81.18211373052327 22.005281280027702,87.38876740605338 21.30593934224453,89.28666434070328 11.301650488865562,93.02296271995874 8.595450595603324,93.22792050632415 5,102.9152865865617" stroke="red" stroke-width="3.266506998176986" fill="none" stroke-linejoin="round" vector-effect="non-scaling-stroke"></polygon></svg>