<svg width="15966.461486079963" height="24796.245125560905" xmlns="http://www.w3.org/2000/svg"><polygon points="5,83.43446408282034 20.090464995475486,100.09038350370247 21.10670990217477,100.79679906339152 20.939811555552296,115.88977730507031 20.93282104888931,116.64188745710999 34.20866702217609,120.18354265764356 35.186755413305946,121.3666230494855 34.27478556451388,129.22511080175173 34.11808170657605,129.45875781675568 25.035083377850242,132.41632184985792 24.486619875533506,132.24097686004825 22.06703075557016,140.1744126424892 21.151856924407184,142.32061985641485 54.64366563549265,159.04695367685053 55.46097237325739,159.72537891368847 61.0784270222066,149.88823195139412 62.581385955563746,147.40443733381107 66.60733525338583,149.43936629209202 66.96093838219531,148.77032606303692 95.07238712883554,171.69276027393062 95.3986107732635,171.85731282521738 118.62544298660941,221.5425062229624 118.80894378665835,222.33504692965653 117.93629553774372,230.76323553611292 117.64269425778184,232.95607147889677 106.03524920879863,228.5461718615843 105.62251804443076,228.6510637733154 114.26540572452359,240.25655121856835 115.80797752889339,240.94682777125854 113.66189198219217,245.26145528175402 112.12660195562057,248.19863450125558 103.798287075595,238.48064793169033 102.442711324431,238.3354194657877 103.11030471115373,244.86567488563014 102.50824732449837,246.40307378640864 97.52401607111096,247.5814401753014 96.71894271997735,246.61911556811538 102.9935049955966,259.915585044655 103.92586382222362,260.72725944092963 108.51221873774193,259.81474179856014 109.5986599822063,259.89945012843236 111.60231395554729,250.2299401042983 112.04912383994088,249.5033874566434 118.30679239111487,264.20294883439783 120.08616760885343,264.4893378087436 119.9510178132914,253.21725191373844 119.37109703104943,249.76335104904138 130.82562474673614,251.17476869892562 131.28845454216935,250.46614763408434 134.6205960533116,224.69651438097935 137.4138860089006,224.56024208274903 156.72224796446972,232.99282774113817 156.95031324448064,233.303462735028 166.10845951992087,268.351294743421 166.33186446223408,269.5492629398359 187.11027171555907,272.9746181718074 187.50814805331174,273.0149530583294 179.4783860621974,281.5303780508111 179.45799708447885,283.4067656522384 186.98356878221966,280.1330481839832 187.52067271107808,279.9430321465479 190.05356629332528,288.8937741565169 192.81627278227825,289.70803023391636 201.19876408891287,282.7367891157628 202.16578417783603,283.3359588640742 198.46431089774705,277.45667507022154 195.60257223108783,275.00569458678365 209.50406855111942,260.28534321737243 210.4122518756194,259.4889057491673 215.23133240896277,267.7852491356898 216.05155185773037,267.5553347072564 212.51144277327694,253.35619565995876 212.64309731556568,252.67761149792932 255.46868878230453,222.21446258359356 256.36726016004104,221.4712312114425 261.99345294223167,225.47873366734711 262.1207384177251,225.41956302220933 267.5718772622058,208.11639603273943 267.9365486933384,207.20410800370155 283.7939305244945,196.83200073125772 283.8839332977077,196.7445781386923 286.3431352889165,179.7319273657631 286.2895414044615,179.25487625284586 272.0379372088937,179.49429865146521 269.9990394311026,179.56244879961014 278.22803086217027,116.185329544649 278.49949553771876,114.77259521372616 305.2183771021664,107.74152786220657 305.3992564622313,107.68187696824316 317.86595128884073,111.22726472746581 318.24926407111343,111.19138506235322 348.6043741866015,90.25594569952227 348.54990648885723,89.88276123587275 357.6305746488506,92.7708874285454 359.3522781867068,93.75855596666224 344.00170808879193,118.24655989313032 343.6947083377745,118.53179389948491 343.6347064888105,142.4237592483405 343.48499313776847,142.68026222166372 362.79539399105124,178.3666796424659 362.85947363555897,178.4245178955607 343.6116960711079,201.2214667610242 343.2551802310627,201.54649267269997 349.5428497066023,208.92019261408132 350.86434673774056,210.2005228648195 349.51547022222076,223.82463917008135 349.1082732088398,225.1241578203626 383.8400230399566,262.6862911374192 385.48220956441946,264.5000941948965 398.174056960037,268.7035599194933 398.91068159998395,270.41602672543377 401.69901994674,255.71284748485778 401.869122275617,255.27943699905882 408.7139933865983,250.4719743821188 410.795708017773,250.19542778737377 417.83136170671787,252.55704381514806 421.3822478221264,255.95577211934142 448.26977536000777,251.25589468382532 448.76114972447976,251.2298985151574 474.153873919975,260.2445578009938 474.49757383111864,260.31806118332315 492.09471800888423,258.2025881494628 493.0591166578233,257.7651488096453 502.72320085333195,264.6663699300261 502.8006789688952,264.6354453419335 487.83080021326896,210.5268803620711 487.74021489778534,209.0932348840288 500.72333340439945,189.84884335729294 502.7331040711142,187.7120675884653 475.9233459199313,191.400077527971 474.78505841782317,192.30436129192822 454.4648206222337,172.88049513008446 453.7054768356029,172.02903919795062 435.76084622216877,173.723877133918 434.82091434672475,173.53152713761665 423.4234757688828,128.30935561226215 422.4931558399694,126.58142907178262 406.78985642665066,120.56205732061062 405.43661084445193,119.7902275591041 403.703256462235,104.90248613525182 403.3045063110767,103.12324489792809 391.65074915555306,107.4280241104425 390.9068427378079,107.24189506168477 376.56261432881,92.94581542268861 375.24548636446707,93.5185914944741 365.67548273783177,73.24400996108307 364.81419406225905,71.4829036850715 364.1133957687998,44.13459922990296 364.1238815288525,43.82414502836764 368.395081102266,35.945101043442264 367.92846478219144,34.21420380077325 335.1228908088524,7.589058447279967 334.6728769422043,7.1861186029273085 299.3201371021569,6.012294080865104 299.3504292977741,5.725567641144153 263.3531064889394,23.894040041719563 262.8110509511316,24.16593650507275 232.3088489244692,49.290228197933175 231.13269617781043,50.690374180907384 227.42976654227823,64.23288227658486 226.68906410667114,65.92630990559701 211.1054771200288,85.85484045767225 210.78799160884228,86.16613229422364 196.50726030219812,73.6602856911486 193.969415111118,72.70078688871581 183.76968334219418,76.25212263327558 182.5300334932981,76.39028130634688 164.33723989326973,59.87521795817884 161.8177447821945,60.746398865710944 155.6005629155552,74.87681110028643 155.58046520885546,75.20022988435812 162.08804437331855,105.03389914589934 161.95435093331616,105.63131156750023 153.17806108435616,112.79206091724336 152.11870805337094,113.82224595540902 148.06654435559176,108.35463047155645 142.480255715549,108.11557896295562 121.48863800894469,121.6531984244939 120.86968689784408,122.26760759181343 115.41825678222813,108.89597129321191 114.91930936882272,108.08014729130082 78.84072192001622,80.2757340798853 78.57420885330066,79.52035936200991 61.667085937806405,77.79025438189274 61.27707392000593,77.50810737081338 41.81637717329431,47.82457398530096 40.87877546669915,46.93584531301167 27.206509511102922,62.13749982789159 26.637074488797225,62.835514272679575 23.029390506679192,53.46641419787193 22.448304639896378,52.736966877710074 16.863763626664877,56.812150726793334 16.209568711114116,57.112717212410644 14.538546346710064,74.81849698303267 14.600878364406526,75.37158333265688 5,83.43446408282034" stroke="red" stroke-width="3.3037290593634863" fill="none" stroke-linejoin="round" vector-effect="non-scaling-stroke"></polygon><polygon points="96.48505201772787,175.54603750276146 118.62544298660941,221.5425062229624 118.80894378665835,222.33504692965653 117.93629553774372,230.76323553611292 117.64269425778184,232.95607147889677 106.03524920879863,228.5461718615843 105.62251804443076,228.6510637733154 114.26540572452359,240.25655121856835 115.80797752889339,240.94682777125854 113.66189198219217,245.26145528175402 112.12660195562057,248.19863450125558 103.798287075595,238.48064793169033 102.442711324431,238.3354194657877 103.11030471115373,244.86567488563014 102.50824732449837,246.40307378640864 97.52401607111096,247.5814401753014 96.71894271997735,246.61911556811538 101.7535638755653,253.86356368957786 102.24260807107203,254.67794967471855 98.97367239114828,257.003661650524 99.17668835562654,257.33219057216775 108.51221873774193,259.81474179856014 109.5986599822063,259.89945012843236 111.60231395554729,250.2299401042983 112.04912383994088,249.5033874566434 118.30679239111487,264.20294883439783 120.08616760885343,264.4893378087436 119.9510178132914,253.21725191373844 119.37109703104943,249.76335104904138 130.82562474673614,251.17476869892562 131.28845454216935,250.46614763408434 134.6205960533116,224.69651438097935 137.4138860089006,224.56024208274903 156.32000256003812,232.8224937915802 156.72224796446972,232.99282774113817 166.10845951992087,268.351294743421 166.33186446223408,269.5492629398359 187.11027171555907,272.9746181718074 187.50814805331174,273.0149530583294 179.4783860621974,281.5303780508111 179.45799708447885,283.4067656522384 186.98356878221966,280.1330481839832 187.52067271107808,279.9430321465479 190.05356629332528,288.8937741565169 192.81627278227825,289.70803023391636 202.16578417783603,283.3359588640742 202.83862044441048,282.15823248191737 198.46431089774705,277.45667507022154 195.60257223108783,275.00569458678365 206.90826040890533,262.952513725264 207.7118774044793,261.750924031483 216.11271879111882,267.36217054724693 216.28835527109914,267.18155518115964 212.51144277327694,253.35619565995876 212.64309731556568,252.67761149792932 255.46868878230453,222.21446258359356 256.36726016004104,221.4712312114425 261.99345294223167,225.47873366734711 262.1207384177251,225.41956302220933 267.5718772622058,208.11639603273943 267.9365486933384,207.20410800370155 283.0077897955198,197.35294899658766 283.67014030215796,197.17272434930783 287.6529814755777,184.51045170554426 287.9026008177316,183.02193773258477 272.0379372088937,179.49429865146521 269.9990394311026,179.56244879961014 278.32648049783893,112.51578931405675 278.1473487643525,110.82855161896441 260.9064291554969,107.15219425893156 260.2912645689212,106.92076601844747 232.13583388447296,87.90110521897441 232.29137265775353,87.36374950740719 225.89505905774422,93.34859781234991 225.6183515022276,93.62220235483255 196.50726030219812,73.6602856911486 193.969415111118,72.70078688871581 183.76968334219418,76.25212263327558 182.5300334932981,76.39028130634688 164.794535537716,60.36733241809998 164.33723989326973,59.87521795817884 157.7877176888287,63.11453999119112 157.15274666668847,63.905409995350055 155.6005629155552,74.87681110028643 155.58046520885546,75.20022988435812 162.08804437331855,105.03389914589934 161.95435093331616,105.63131156750023 153.17806108435616,112.79206091724336 152.11870805337094,113.82224595540902 148.2800460800063,108.98611988360062 148.06654435559176,108.35463047155645 134.66603434667923,112.31620977399871 133.79455118218902,112.74990261066705 106.92828643554822,136.85999249177985 105.50309688888956,138.137604022515 102.07803989329841,169.02358408865985 102.07075811550021,169.82931732636644 96.48505201772787,175.54603750276146" stroke="red" stroke-width="3.5476521344031164" fill="none" stroke-linejoin="round" vector-effect="non-scaling-stroke"></polygon><polygon points="15796.851947804447,24676.854321172927 15801.410631964449,24713.378532387433 15802.003659946611,24714.038513993437 15806.777010915568,24708.04865147255 15807.53693724447,24708.106270257675 15808.046952959965,24715.744465418276 15808.86542478227,24717.28319586953 15821.034440533374,24718.648261968396 15822.154086684459,24718.27959818323 15824.82853802666,24735.250442210934 15824.945629013237,24736.046538182884 15834.565439999918,24727.79134672426 15834.943509902223,24727.25146590697 15844.264476728858,24733.21023286361 15844.536815217696,24734.37658688106 15855.412004693295,24731.716324569425 15856.091831466649,24731.674424095778 15861.832785066683,24721.695055228483 15861.941429191153,24721.733331281226 15866.076605155482,24732.102292052703 15866.931194595527,24733.38710003544 15871.452304782113,24730.471393933054 15871.830665955553,24730.20226245362 15877.102381795528,24743.87480978621 15877.64851512888,24744.71438702516 15888.14359580446,24754.169501193683 15888.585745351156,24754.75403828686 15906.690866346704,24789.191694071284 15906.8411622399,24789.84744066489 15914.776261119987,24791.15490061289 15914.975490560057,24791.245125560905 15925.680577706662,24773.82907220663 15926.277683484368,24773.69493347325 15922.822916835546,24765.143334797584 15922.252025457798,24764.293354850262 15924.411509475554,24757.342340258183 15924.98036195559,24756.29493735335 15934.065981724416,24755.180253966246 15936.361780622276,24753.56643146288 15937.953285973286,24744.131034243386 15937.878720568842,24743.62382235797 15946.696079644375,24742.142064618005 15946.930552888894,24742.204509730684 15959.778812871082,24722.296592914732 15959.969886719948,24721.922294021468 15957.733215857763,24674.704812750453 15957.625445546699,24674.237350568175 15961.449835235602,24670.405738505768 15961.461486079963,24670.388812865363 15956.62289038219,24662.885398440296 15956.612987164408,24662.83784396667 15960.409123555524,24660.905028788722 15960.489223111072,24660.85948896181 15944.885829688865,24651.709033575957 15944.377852871083,24651.108932137256 15935.763801031047,24627.53976603027 15935.754480355536,24627.503087296966 15923.919552568928,24627.96217565617 15922.637377137784,24628.303166093712 15909.042589297751,24616.18360276334 15907.913039928884,24615.19201917434 15898.005453084479,24616.080816848902 15896.646090808907,24616.566127213882 15887.026862364495,24599.272917291382 15886.51480775117,24598.29537315434 15871.136858168873,24587.97307170322 15870.67198947561,24587.944046410732 15832.61101084447,24590.3833681884 15832.385567004443,24590.3567619361 15835.568868977716,24601.858452063985 15835.662367004436,24602.56590179546 15818.709805795574,24612.631618648942 15818.251053795568,24613.079448848788 15810.253040355514,24630.115324688493 15810.195368675631,24630.37892491673 15813.655378204421,24638.732162294968 15813.73314759112,24638.955045683717 15809.413014471065,24644.510539117386 15809.397285831044,24645.78452826361 15816.170212977799,24644.561321477056 15816.59342990222,24644.341667542816 15814.451130879926,24649.24171644193 15813.528092728928,24649.25138908357 15819.432158151176,24659.307099637692 15819.410021546646,24660.174778493703 15796.851947804447,24676.854321172927" stroke="red" stroke-width="3.9740653301994833" fill="none" stroke-linejoin="round" vector-effect="non-scaling-stroke"></polygon></svg>