<svg width="501.4736878933618" height="624.0915925123845" xmlns="http://www.w3.org/2000/svg"><polygon points="5,423.27868217247305 5.003786524408497,423.81524909927975 5.922746879979968,426.0821637464687 6.223047395586036,426.31508581491653 6.089645226602443,425.8731082471786 5.762839040020481,425.1522409451427 5.66176796448417,424.5533579904586 5.957990684430115,424.57855088543147 6.592087893397547,423.9160209968686 6.753160817781463,423.84353595227003 8.464087324449793,423.7449739330914 8.911188479978591,423.7197809435893 9.325084728887305,424.4468406314263 10.387933013378642,426.34602421172895 11.156306204386055,427.10445556079503 11.525929244467989,427.47659866616596 12.01788615109399,427.92918041406665 12.215076693333685,428.03878991736565 13.138988657738082,428.03878991736565 14.40689180442132,428.34772931446787 14.695832746685483,428.47722738876473 15.065455786651,428.60495749732945 15.40711679996457,428.71014694310725 15.79625500435941,428.807822812465 16.130051697720774,428.85643974499544 16.90891064889729,429.0584208869841 18.21817429328803,429.06726032006554 19.36053959117271,428.9337848430732 21.304191715549678,428.53424187534256 23.253086720011197,428.17447580001317 25.381113457726315,427.1521889155847 26.47658410668373,429.02615695330314 26.861935786670074,429.77573973691324 26.865431040059775,430.0608103548875 25.995695502264425,431.54272969812155 26.866887395619415,431.51532776025124 28.81024824886117,431.52902872959385 28.881027128896676,431.0928071264061 29.985235911095515,430.2044504500227 30.934197191148996,429.151676888403 31.22692465770524,428.9138961060671 31.588974648853764,428.97798202978447 32.170643057790585,429.27896463742945 35.05655722669326,431.6152122275671 36.475047537707724,432.5252195301 37.56702293327544,432.4602507011732 39.66038840881083,431.80348990671337 40.83624988445081,431.83442753821146 41.506755982292816,432.06734356848756 42.67853966227267,432.4452238944359 42.787766328896396,432.47748733102344 44.4273314132588,432.73294286895543 45.201821297756396,433.0405498392647 45.812616817769594,433.2814199421555 46.71410090662539,433.6933293103357 47.803163591073826,434.1569474163698 48.4206583466148,434.55736418114975 49.655939128948376,435.2145587839768 50.44149731553625,435.3078121980652 50.50120789336506,435.14251938986126 50.938697102246806,433.56118250411237 51.40531342220493,431.9829281095299 52.050478933379054,430.14743639260996 52.378741475520656,429.40934611007106 52.63098225777503,428.2354681240977 53.31721699552145,427.30776422307827 63.93725297774654,422.1224511716864 64.20405731559731,421.9553805977339 65.18243697774597,421.41173738305224 67.4706628266722,420.34919834369794 69.92025287111755,419.22875337081496 70.88931185775436,418.8234470303869 70.84620373335201,419.3312953155255 70.46376476448495,422.8084115749225 70.4360940088518,424.0048593422398 72.05031850666273,424.0817641498288 72.71849443553947,423.89789973793086 73.8040618665982,423.62166085193167 74.2019382044673,423.2309479843825 74.70787612441927,422.5631102568004 74.95050496002659,422.64045754855033 75.42731576878577,422.6731643952662 77.25941105769016,422.7416719638277 78.6502306133043,422.8221130820457 79.40054499555845,422.89725036377786 80.4007699911017,422.983879198262 81.47701674664859,423.1801199023612 83.22406087105628,423.2579089622013 84.74333098658826,422.3072010250762 86.21716280886903,421.96598825696856 87.54710670222994,422.5754858253058 90.62118200887926,425.0956675691996 91.8445206756005,425.43554958782624 91.97005852439906,425.4682560225483 92.05510968889575,425.49786860111635 91.28528014221229,427.01031474751653 90.66632903111167,429.2471427069395 90.35641656885855,430.3069873226341 90.29408455104567,430.97126600006595 90.28330751997419,431.3579875344876 90.38496113778092,431.9343118619872 90.99226140440442,433.3242903734208 90.9803192889085,434.8534776594024 90.80118755553849,436.1148282579961 90.58244295115583,439.46351578633767 90.67011555552017,440.8609602532233 89.96931726217736,446.1823941809125 88.79665976890828,456.59905983583303 88.15761095110793,461.0840282359277 88.18732060445473,462.78183181770146 88.42325020441785,463.55472144146916 90.4140882488573,466.376253906521 90.54049991106149,466.2728499043733 91.30392149335239,469.428859748994 92.51269660436083,471.97723203292117 93.8711850666441,475.2573289733846 94.78286364441738,477.9828259665519 96.02542620443273,480.95794522197684 97.35828280891292,482.7338068441022 98.14238463994116,484.1919557999936 99.15892081777565,486.3376266604173 99.5439812267432,488.13465422944864 99.32407153781969,488.19076968275476 98.01597297773696,488.37325527123176 97.27760071109515,488.4762071230216 91.76762510219123,487.9300757244928 90.82128526223823,487.7679150910117 89.45172849774826,487.6450794368284 85.77734343113843,486.9076222277945 85.08033166220412,489.10673094150843 85.01421311998274,489.52737372613046 84.73022378666792,491.57534480129834 84.63060906669125,492.75816651945934 84.93877390224952,493.7668959366856 86.36396344890818,494.674881044426 86.45134478213731,494.72834379877895 87.06097521772608,495.0844672714593 87.43933639116585,495.3398507499369 88.46490197326057,495.61511669610627 88.62947015103418,495.64206888119224 90.10446705773938,495.4481014435878 94.69839502219111,495.3946388626937 95.07704746664967,495.43617177789565 96.94933816883713,495.02526067907456 97.1267222755123,495.12953496549744 97.67139925330412,495.21215904748533 97.82227768888697,495.41363796324003 98.42171363555826,495.23027448373614 98.51841564441565,495.65532405290287 98.43365575105418,496.64548314601416 98.08354787551798,497.1398982818937 98.3893825422274,497.5627350176219 98.33316721778829,497.9453640130814 98.31336078222375,498.09249484853353 98.19889123551548,498.4008949015988 97.99558400001843,498.8780746550183 97.72732330672443,499.26997985190246 97.30847544886637,499.33227813395206 97.56828928005416,499.6508385797497 97.26361969776917,499.99767571571283 96.87943310220726,500.09929668472614 96.81593599996995,500.7147652984131 97.3317771377042,501.31565188925015 97.33614620438311,501.5741209886037 97.45964515558444,501.6889960472472 97.43663473776542,501.80873114120914 97.37692416005302,502.04289921949385 97.13371278217528,502.1281716846861 97.43313948449213,503.5181524315267 97.43168312893249,504.0589436056325 97.31051434669644,504.47911623085383 96.4640804977389,504.61122081405483 96.40582627558615,504.9275645799353 96.1698966755066,505.02829965099227 96.06649543112144,505.43963404989336 95.91765589336865,505.77055665955413 95.75046627549455,505.7542093592929 95.506381084444,505.6464055113611 95.34792959992774,505.8668731608195 95.19879879103974,506.1094315041555 95.87338268442545,506.89144840161316 95.75337898661382,507.9292733515613 95.77638940443285,508.27477210911456 94.88131327996962,509.3417501713848 94.67421951994766,509.76368003955577 94.06255018664524,509.7265679157572 94.0610938310856,510.8478814881528 93.41884103114717,510.98395855748095 93.45233720890246,511.8883387785172 93.1858241421869,513.0175939103938 91.56373532442376,516.2577643395634 91.09741027548444,518.2811901103705 91.04527274670545,519.6971353833214 91.10003171558492,521.4916839331854 93.7669100088533,521.1621101271012 99.57893376005813,521.8791313340189 101.71395100443624,521.8084454276832 103.50148181337863,520.9509352327441 105.13726037333254,519.9189144487027 106.2009824711131,519.5142337562284 108.20492771558929,517.4263170623453 109.02718606218696,518.0708960638149 110.07488824892789,519.486400886788 111.38997731555719,520.8188403744716 112.2544699733844,521.6423334589927 113.38867967994884,522.8572452528751 116.3377996799536,525.9466255430598 118.71165923553053,528.9365639769821 120.72638151107822,532.6226855952991 121.34183736890554,533.8719948048238 121.97040042665321,535.4375972675043 121.53873664001003,538.5983665568056 122.92198314669076,537.9039288602071 123.79987427557353,537.70778957539 126.73879978666082,537.6737744115526 128.11389070213772,537.535504925414 130.23783964442555,537.3084423876135 131.23631701339036,537.6697986128274 132.68131299561355,537.6123704011552 133.4278408533428,539.3449288327247 134.50729159102775,539.7252770505147 134.5425353955943,541.1194398576627 134.3074796089204,541.3173431205796 133.94484707550146,541.3654936646344 133.65765375993215,541.3924402947305 133.2204558221856,541.5938772951486 133.18026040890254,541.9636197347427 133.7298889955273,543.7968616819708 133.81406634661835,544.5186689354596 133.62736156443134,544.921978820581 133.0526836621575,545.2546095325379 130.94504590227734,546.003358116257 131.04669951996766,546.7362016295083 131.1413626311114,547.345798368624 131.2121415110305,548.34588678414 131.24884167104028,548.9947933325311 130.74843790219165,550.3345651128329 130.31211377773434,551.305485998455 129.44907747558318,553.0171764891711 129.3383944532834,553.2570329668233 128.98333496891428,553.9227106362814 128.59157532441895,554.7010253269691 128.3623449599836,555.5433866759413 128.36117987555917,556.3804442102555 128.3253535288386,557.2316335163778 128.28574065782595,557.9860839974717 128.265351679991,558.1062304416555 128.21146652440075,558.5788647194859 128.34224725328386,559.8090342668002 128.3734132621903,560.2560457134387 128.38040376885328,560.6027881624177 128.4401143466821,560.908892829495 128.489047893323,561.2357573760673 128.5004074666649,563.2349211426335 128.73400689777918,565.4465247761109 128.77886264887638,566.0176423265366 128.8985750755528,567.030014141812 129.12110620446038,568.4580159257748 129.41470748442225,571.5290941168787 129.41849400883075,571.6346575335483 129.4799522133544,572.3104388862848 129.55684778664727,572.9146651774063 129.6218012444442,573.6173853523796 129.79714645328932,575.3037280245917 129.8003504355438,575.6659057645593 129.72432867554016,576.7802611294901 129.81811797327828,577.4246678028721 129.8708380444441,577.9723457534565 130.00220131548122,579.8746327831759 130.33832817780785,581.6346864831867 130.4964883910725,582.3864040367771 131.55991921783425,584.7303154608235 131.76555662218016,585.2245344391558 131.98896156437695,586.1957444004947 132.45441280002706,587.3511209763819 132.77510229335167,588.5789228270296 133.1493856710149,589.8402834126027 133.2050184533,590.0990911060944 133.33026503107976,591.0380393519299 132.35305045323912,590.9104026881396 131.6438052977901,591.0804376738379 131.39156451553572,592.0993199119694 131.4128273066599,593.4485477562994 131.43991552002262,594.3503838580218 131.44370204443112,594.6754326027585 131.37059299554676,595.0296291986015 131.35923342220485,595.6421848206082 131.4166138310684,596.9419277417473 131.1751500800019,598.7296690809308 131.21359786659013,600.7426274004974 131.23660828440916,600.9471019612392 131.66069902223535,602.297600918042 132.12178119109012,603.6061373624252 131.92808590224013,604.9707520341035 131.9569217421813,605.564732175786 132.35421553777996,605.7245986785274 133.04336298664566,605.8102729448583 134.56962360884063,605.5369100931566 137.1202847288223,604.7998444424593 138.25070791109465,604.6987130148336 140.2039719822351,604.1338776879711 141.4191550577525,603.7081525357207 142.88570510223508,604.2381007336662 144.32749710220378,605.023304988048 145.90909923554864,605.1672735208413 148.26868650666438,605.7970243491 149.2453185422346,607.0649113768595 150.87527168006636,608.4454029164626 154.58519182226155,610.1893321333919 155.17385073774494,609.4770122315967 157.74286193784792,609.9203907899791 160.54285112896468,610.3589107440202 163.36555946664885,611.4505699496949 163.31080049776938,613.5755804858636 164.7825934222201,613.6886311831186 167.1602395022055,615.0090237371041 167.63734158221632,616.7153655609582 167.56335871992633,617.3759954166017 167.53860067552887,619.0915925123845 167.9117189688841,618.5307681505801 169.17234033776913,616.9052526860032 170.66015317325946,614.8385654742597 171.65047495102044,613.4930004478665 172.56972657784354,612.9343699728488 173.41266517329495,612.5152857925277 174.86785564443562,611.7707359722699 175.61409223114606,614.3943135316367 176.61664739553817,617.3905681117903 177.70308864000253,616.650892221136 178.17727800889406,616.2870149384253 178.55913443560712,616.0185225803871 178.73593600001186,615.8953162746038 181.05299768887926,614.5033893891377 181.29795669333544,614.3523612645222 183.05024369782768,613.7544301953167 184.70757631992456,613.4347086379421 186.05936554668006,612.4194571597618 188.1023411200149,610.9917381139239 188.55614151107147,610.3858490010025 188.69595164444763,609.9963479839498 189.22868650662713,609.2597387504065 189.6341358933132,608.9426604022738 190.87582464003935,608.2232706602663 191.71439416892827,607.8350906968117 193.31492892443202,607.5378830533009 195.30168917332776,607.694656822714 195.04362296895124,606.7632865229389 194.5499184356304,605.9043379517389 194.0891275377944,604.7976363331545 193.32774485333357,603.0064108504448 192.4317949154647,601.3145374156302 192.25499335117638,601.0583925716346 191.518368711113,599.5391825955594 191.22214599105064,598.1701181887183 190.7581511110766,596.985208211001 189.90356167103164,595.50571799709 189.24820167105645,593.8495605398202 188.97557191108353,593.0833075093105 188.2441901511047,591.0795543754939 187.9983573333593,590.3861641332041 187.4472723910585,588.7290851772996 187.0674548621755,586.6316612689989 186.66346183116548,585.2598672999302 186.3774336000206,584.9613044500584 185.0032164977165,581.5441445379984 184.25028067547828,580.0230343363946 183.41811911109835,578.7505761299981 183.00247523549479,576.6963423708221 181.86069247999694,574.3735468775267 181.44825258664787,573.213244228682 179.47430826665368,570.6479247263633 178.98963313770946,569.5843331542565 178.55971697776113,567.0414982633665 178.39835278212558,566.0861056620488 177.97251441772096,563.432362985739 177.8737735110335,562.7026665293961 177.26676451554522,560.8192258494673 176.7145144889364,559.1416073979344 176.550820124452,557.6521472155582 176.08682524447795,554.5826439267839 175.98196764441673,554.1890694897156 175.45127167995088,553.0922697052592 174.28793486219365,552.4318902579835 173.50907591113355,551.3271306831739 173.13362744892947,549.6392806681106 173.04945009783842,548.045949079562 173.2684859733563,546.3567489009583 173.65005112881772,545.0907238124637 173.8280177777633,544.1246349117719 174.1705526044825,543.3060844182619 175.18883640889544,542.5758800545009 175.03271509334445,540.1966252151178 174.94824647111818,539.143048038939 175.19728327111807,538.6080851351144 175.40088177775033,537.0853554268833 175.71836728893686,536.509745856747 176.4319815110648,535.3390847970732 176.4468363377964,534.1984574033995 176.61577358224895,533.4147696546279 178.20290986658074,531.2001962509821 179.7396562488284,529.7313118176535 180.81765063118655,529.4883375157369 182.6453768532956,529.4194211199065 181.11707733327057,526.499290069798 180.84124359104317,525.7133662410779 180.4998738488648,524.6022887393483 181.22397383116186,524.2700688595651 182.24429653340485,523.8123821468325 183.83463679999113,522.9782942818711 185.84353365330026,522.0421506198472 185.59653575113043,520.7428526611766 185.62449777778238,520.6350560931023 186.19014627556317,518.3275784761645 186.29704277333803,517.9564712783322 186.9101684622001,515.7541140097892 187.78660323552322,514.0951524292468 187.92845226661302,513.8499519961188 187.99340572452638,513.6445135867689 188.0499123199843,513.3873839548323 188.09418552892748,513.133346654824 188.67119360005017,511.332987022819 189.16606321767904,510.4484859716613 190.11327687115408,508.90656512149144 190.3972662043525,508.47447191306856 191.0823358577909,507.3699353480479 191.2838954665931,505.900009562145 191.32001308444887,505.6623110004002 191.76216263102833,504.6920740820351 192.31149994663429,503.8300795278046 192.9225867377827,502.24702289002016 193.51386709336657,502.27927618002286 196.16589055990335,502.18339994794223 199.4945368177723,497.05639124510344 200.36776760884095,495.9230783531675 200.75807089777663,495.08711831254186 200.95992177771404,494.56530444999225 202.20860103110317,492.25843947258545 203.29154702217784,489.86715707404073 204.4149796977872,487.3485945383436 204.63314176001586,486.8590180117171 205.10878748446703,485.91830340528395 205.21364508441184,484.2547001764178 205.42306901328266,482.38384966907324 205.2637437155936,480.4524473026395 204.72605724446476,478.73356901522493 205.48627484438475,477.2091028392315 206.28581404441502,475.49196694768034 206.94962090661284,474.5803683050908 207.18904575996567,472.95865908870474 206.99360284442082,472.11951934022363 206.6312615822535,471.7443578891689 206.02192241779994,471.04838531976566 205.60802616889123,470.5499350524624 205.12801137776114,469.78016302530887 204.8393617066322,469.0886032152921 204.15196188446134,468.0280600229744 204.05904640001245,467.15045669901883 203.96176184888463,466.2321953262435 203.60786744882353,465.31525585224153 203.48203832888976,464.88440346566495 203.29678990214597,463.388565866102 203.28513905778527,462.5706013664021 203.2903819377534,460.7075224024011 203.00406243547332,459.8899899306707 201.91995135997422,458.97700145922136 200.9951655822806,458.1921642237576 199.50735274667386,456.57077715802006 199.17268224002328,454.75625907909125 197.52088376891334,452.28811946342466 196.6444489955902,451.12938804749865 195.6576224711025,449.78150445513893 194.68273806222714,448.3200358465547 192.92433436447755,445.6343909338466 191.8198343111435,443.9240817744285 190.200366933248,441.624645351083 190.266776746721,441.0571851473069 189.91725141333882,440.53745396778686 191.4630271999631,439.24828557495493 194.200684373267,437.6510675858008 194.47011015110184,437.4685402823379 194.95099875552114,437.06017356796656 195.37538076436613,436.3981229038909 196.68027534219436,434.9754586190684 196.8827087644022,434.76420169707853 197.98021831107326,433.64471343765035 198.68829838221427,433.1152416972909 199.37307676440105,432.2653441002476 200.3992248888826,430.7330451994203 200.4251480178209,430.68177686753916 199.7135726934066,430.28312098578317 199.13510826672427,429.9737423135666 198.12993166223168,429.4367483081296 197.7093361777952,429.0734479230596 197.3554417777341,428.64959672198165 197.292235946632,428.35701074893586 197.21475783118512,428.2668482263107 197.2333991822088,428.04453557531815 197.30912967107724,427.8562547066249 197.36505372438114,426.99882337788586 197.38282126223203,426.63596097764093 197.35136398219038,426.46712589479284 197.20834986667614,426.1060305351275 197.05921905778814,425.9756471213768 197.01814983109944,425.72239369526505 197.11514311109204,425.3153313000221 197.46932878217194,424.7902594853658 197.6129254399566,424.5325848995708 197.80370801780373,422.8707313260529 197.8252620799467,422.83714054047596 197.75302684446797,422.7774726849166 197.7620562488446,422.64973922172794 197.86050588451326,422.578137732693 197.89079807989765,421.8789170390228 197.8031254755333,421.43604666087776 197.62661518226378,421.3118483222788 197.590497564408,421.1598047099542 197.61409052438103,421.0311863402603 197.5677784178406,420.9405788528966 197.4524350577267,420.85704313672613 197.0682484622812,420.31428120908095 196.9083406222053,420.0040046572685 196.6855182221625,419.78168372728396 196.53522232885007,419.40289785235655 196.42541312007234,419.2234494758304 196.10297599993646,418.87295013456605 196.8157164088916,417.96244484506315 196.93921535997652,417.78829923289595 196.75484074663837,417.4824390960275 196.46822997333948,416.8892813861603 196.24016469332855,416.21302662289236 195.79306353779975,415.2233925712062 195.90229020442348,414.40480850148015 196.01151687116362,413.46599670365686 196.1120054044295,412.9532729522907 196.24744647112675,412.37778333050665 196.38172245328315,411.53929846780375 196.44609336880967,410.4829002710758 196.5733788444195,409.9710536454804 196.84105699555948,409.236432331847 197.65137322666124,408.7444733774173 197.86516622221097,408.586674991122 198.50508885330055,408.12388748006197 199.79454606224317,407.0011706909863 199.9302783999592,406.9158616634086 200.03630108444486,406.84955928765703 200.1193133511115,407.15587609785143 201.06856590218376,408.60965963697527 201.23109518224373,408.84923022729345 201.58324195549358,409.26869914331473 201.90655288880225,409.6152355632512 203.1071724088397,408.2900844432879 204.38293987547513,407.2871546013048 205.42569045326672,406.5299815586768 206.2846489599906,405.8103774630581 206.76495502213947,405.2264709502924 207.6151753955055,404.10064534982666 208.24140828440432,403.2771579892142 208.4752989866538,403.04244364070473 209.21891413326375,402.57389824761776 209.97884046216495,402.3038211610401 213.8099293867126,401.81670911976835 214.62461468449328,401.6482971761143 215.55959495110437,401.4356824400602 218.58036764443386,400.8075616242131 221.34744319994934,400.2178955664858 222.4595163022168,400.0225186110474 224.67113784886897,399.6092206383473 228.00357063114643,399.0787836093223 228.2153247288661,399.0434210956446 228.34814435557928,399.0182253012317 230.47063694219105,398.3481045253575 232.03447153768502,396.4053616805468 232.97382087109145,394.6429543084232 233.70345500437543,393.4061223148601 235.44729514664505,392.0631925641792 237.40288938663434,390.35158631333616 239.87665493332315,389.08599706331734 242.54644593782723,387.55914663372096 242.96937159111258,387.40089112427086 243.6998795378022,387.1577609317028 244.74437774217222,387.0503415072453 245.4282823111862,386.9446902530035 245.96771640889347,386.92258747376036 246.52433550229762,388.8928205630509 247.35562325338833,390.59029252291657 247.56621226668358,391.4372554461006 249.3024793600198,393.5144227470155 250.08104703994468,394.01304609538056 250.4023190755397,394.57974254747387 250.6111604621401,394.755674536922 250.74543644441292,395.1813586477074 250.84738133335486,395.8439743455965 250.61844224005472,396.23650359211024 250.92078165337443,396.9128192459466 250.8817513245158,397.487022878835 251.00058993778657,397.7257214112906 251.82313955551945,398.48469263128936 252.17994666669983,398.6358677186072 252.2909209600184,399.3996981634409 253.27599985769484,399.5517566881608 253.38377016887534,400.1149027585052 253.49299683549907,400.4446563873789 254.1568036976969,400.8902208338259 254.92488561780192,401.4666243061656 255.1925637688255,401.07675647723954 256.910189511138,401.7778108344646 257.0336884622229,401.7327241769526 257.23524807114154,401.6116089929128 257.9517750045052,401.2182052019052 259.47832689771894,400.77794575010194 260.5711761066923,400.54543890000787 260.7945810488891,400.4848809922114 261.84024433768354,399.8956561066443 262.64560895995237,399.74890217836946 263.17047950217966,399.67817735893186 264.58867854217533,399.5415899876971 264.92888319992926,399.50003912020475 265.9352248888463,399.15790721331723 267.49206897767726,398.6420561702689 268.7637586488854,399.0535878188675 269.23445276438724,399.38290099438746 270.0456428088946,398.9059492702363 270.81809379556216,398.44269953330513 271.2331551288953,398.2053278714884 272.68892814219,396.9331528872717 272.9918500977801,396.5269217430614 273.330015857704,395.76175529381726 273.39992092445027,395.6804202878848 273.30176256003324,394.77954469562974 275.72397311998066,394.9236496730009 276.3327297421638,395.2251205192879 276.78565631993115,395.2733027720824 277.6364592354512,395.3776239439612 278.05618090659846,395.4235959702637 278.95737372443546,395.4403934390284 280.6129587199539,395.409892771102 281.6070670222398,395.1508579441579 282.7252568177646,394.8617641113233 283.7315985066816,394.4652540673269 284.01558783999644,394.3410406302428 285.3507746133255,393.80219220981235 286.31750343111344,393.488784282119 288.0004679111298,392.6851495192386 288.9765174044296,394.97581034724135 291.1523126043612,393.79998200031696 290.9006543644937,392.50567953207064 290.81735082669184,389.37554047309095 292.8352770843776,387.2625279746717 293.9744384000078,386.6989072241122 295.51205859554466,386.39300422521774 296.5947133154841,386.9137463615043 297.7149420089554,388.2376990049379 298.58584263105877,390.7870039285626 300.1132683377946,391.0376449499745 301.24806058662944,393.4220358511084 303.6120169244241,403.971133047482 304.58194972446654,403.8367584286025 304.718847146607,404.1992160958471 305.3229434310924,405.87358602439053 305.50324024888687,406.371739580587 307.1876610844629,405.2224927779753 306.92143928888254,404.515261017601 308.5808108089259,404.09047885780456 308.24381013331003,403.2457743524574 308.0792419555364,402.60395590623375 307.89486734219827,400.8345253269654 309.6168621510733,401.57403675094247 309.5492872534087,400.8460180517286 311.3295362844365,401.6447609659517 314.00806542218197,402.16502528003184 314.0808831999311,404.93208600918297 316.4864913066849,405.5871582736145 316.6877596444683,406.3682034458034 316.3641574400244,407.4988797008991 317.57205873774365,407.2663798938738 317.503027484403,408.4399268113775 317.84701866668183,409.8136981416028 318.02964565332513,410.44267747882986 318.38499640882947,411.18878698768094 319.63600583106745,410.91385830182116 320.06126165331807,413.175158721162 320.5121493333718,415.6101415536832 320.55933525331784,415.84793659334537 323.9619643733604,415.6371034575859 324.78830051550176,415.89655636559473 325.16462279111147,415.9398721536854 325.6472590222256,416.07423944270704 326.794867199962,416.50651260331506 327.02992298663594,416.5816520238295 327.2676002132939,416.5533642449882 327.60110563552007,416.6704933058936 328.0479155200301,416.80353416420985 328.46821973333135,416.73856073175557 328.9092041954864,416.75049462891184 329.6370907021919,416.6479514914681 329.95515875553247,416.6192217245698 330.11098879994825,416.86718158982694 330.5193508977536,416.96972462604754 331.04684287996497,416.9241990597802 331.7231743999291,418.21172918891534 331.9908525510691,418.97151431802195 332.50931512890384,419.15936073474586 333.2197253688937,419.2261014232645 334.3306333866203,419.2826762959012 334.88637866661884,419.4165995697258 335.2504675555974,419.7175951474346 335.65766456886195,420.22102149331477 335.95650872879196,420.7036732477136 336.3561326933559,421.2079813309829 338.0990990222199,422.58741940854816 339.37195377773605,422.22145589691354 339.9775064177811,422.10035189666087 341.440561208874,421.92046371579636 342.0702893511625,421.7693044928601 342.73933909332845,421.74897312757093 342.1157276444137,420.42080055200495 341.769406293286,419.79626940144226 341.31618844438344,419.0440009541344 340.83559111109935,418.43670364894206 340.4423751110444,417.5770259463461 340.2379027911229,417.29193928907625 339.9396411733469,416.9648626727867 339.6707979377825,416.2855141601758 341.4230849422747,416.18076082121115 341.7909603555454,416.2687182695372 341.9036822755588,416.4433070711093 342.1075720533263,416.492368709587 342.4364171377383,416.47513083787635 342.88788735994603,416.27048625808675 343.0352705422556,416.3663996158866 343.32421148440335,416.1781088373391 343.59917141334154,416.2037446803879 343.8359748265939,416.324851899175 344.2076367645059,416.2709282551659 344.44910051557235,416.5277284422773 344.8723174399929,416.3721455761697 345.1166939022951,416.3124759821221 345.4277714488562,416.49413669633213 345.8247739733197,416.3765655454481 346.02487722667865,416.5299384254031 346.5806225066772,416.3345758335199 347.43288177775685,416.52684444910847 347.9120227554813,416.67447127297055 348.03989077336155,416.5582262072712 348.6710752710933,416.58607198903337 348.78088447998744,416.40352735621855 348.90816995559726,416.3641896311892 349.06807779555675,416.4287211764604 349.38148551108316,416.41590326826554 349.5568307200447,416.4963466798072 349.92907519999426,416.4892747326521 350.72249770665076,416.61259177786997 351.730295751011,416.59844789095223 351.9164179911604,416.4870647491771 352.67780067550484,416.67402927658986 352.8219798755599,416.7699424599996 352.9964512711158,416.7270688301651 353.1869425777113,416.4592189550167 353.5635561244562,416.41059930605115 353.9567721243948,416.4733628509566 354.0980386133306,416.6899411440827 354.44348615105264,416.5087225866737 354.74524302221835,416.21125863387715 355.1605956265703,416.0172217543586 355.3106002488639,415.9933538804762 355.4174967466388,416.0048458200763 355.6382802488515,415.8974403613247 356.2665520355804,415.1040527491132 356.9894869333366,414.58823877968825 357.09201436443254,414.41320651752176 357.3573623467237,414.25541216292186 357.7042662400054,413.8929709234508 357.7537823289167,413.6494277578895 358.1455419732956,413.1672026615124 358.3150617600186,413.02620355813997 358.4685616355855,412.7839854535414 358.5658461865969,412.517456832109 358.83206798217725,412.2102634134935 359.3782013155287,411.96671840106137 359.7344258844387,411.55167465115665 360.0291922489414,411.34569950943114 360.41512647108175,411.12027585186297 360.78387569775805,410.8440210572444 360.97815352887847,410.602684587182 361.2411713422043,410.52179703029105 361.64429055992514,410.1562556264689 361.79313009779435,409.98519795492757 362.3130490310723,408.97873968223576 362.45285916444845,408.89519946218934 362.6098542934051,408.8527663226123 363.1886099911062,408.26444768579677 363.531144817709,407.87326576025225 363.91737031110097,407.56076173775364 364.44107576890383,407.2517933959607 364.86720540444367,406.8464651762624 365.0504149333574,406.7054620560375 365.4008140800288,406.4517446171376 365.645773084485,406.0022131811129 366.02908586664125,405.41698111698497 366.0596693333937,404.47813128790585 366.93377393775154,404.48564563842956 366.97892095998395,404.4869717003312 367.17523768893443,404.26817138993647 367.5352487822529,403.9525681377854 368.28352426656056,403.44512667367235 368.9916043377016,402.9381260727532 368.97849713778123,402.9146988156135 367.8812788622454,401.465298226336 367.7886546488153,401.346835057484 367.76506168895867,401.3163352016127 367.8477826844901,401.18549519235967 368.3473126399331,400.78457617003005 369.1829694577027,400.1507071306696 369.8788161422126,399.65253960632253 370.1435815822333,399.48103180585895 370.45844565331936,399.29626294458285 371.4962446221616,399.0496095359558 371.7499417599756,399.03944281250006 372.1993730844697,399.0102687339531 372.64006627560593,399.042537032743 373.7119439643575,399.28477013949305 374.39876124449074,399.9531199678313 374.95450652437285,400.55427946907 375.9593918577302,401.5156892565428 376.51193315547425,402.00899031647714 376.7283475911245,402.14734426978976 377.11486435553525,402.30426318600075 377.9560553244082,402.52881175186485 378.46781866659876,402.59025315061444 378.9093856711406,402.5548911966034 379.29677624895703,402.40150865586475 379.82252060447354,402.0850186976604 380.4143835022114,401.61072494031396 381.76034730661195,400.4689679625444 381.88617642666213,400.36951150163077 382.155602204497,400.8115398755763 382.4628932266496,401.29688601591624 382.64348131557927,401.5391166614136 382.84067185781896,401.79416579619283 382.9842685154872,401.87770868989173 383.125535004423,401.97804852592526 383.4942842310993,402.14734426978976 384.10770119109657,402.3378570803907 384.16741176880896,402.1570688256179 385.0843332266668,401.638572598109 385.57512504886836,401.5634281167295 385.6962938311044,401.5532615084667 387.59683783107903,401.26903831528034 388.9958129777806,401.2217414188199 390.5637253689347,401.2416326382081 392.25455416890327,401.29025561129674 393.4595427555032,401.4551316135912 396.3239028621465,401.5205515483394 397.26762126223184,402.16414122947026 398.2684288000455,402.73346900672186 398.950294471113,402.8718225082848 400.5624800710939,402.962879398372 401.7290208711056,402.8899454845814 403.90248590218835,402.9730459420243 404.33094570669346,402.9341478593997 404.8805742933182,402.8196636904031 405.2758291910868,402.9328217883012 405.74681457772385,403.1556016249815 406.38353322667535,403.35849021025933 406.88597589335404,403.46103948995005 407.9770774755161,403.51231411192566 408.3973816889338,403.45794533134904 410.2714200178161,406.53616979019716 411.2279543466866,407.7198868962005 412.0519603199791,408.6445786137483 413.8473554488737,410.02586283977143 414.2688247465994,410.3255451301811 415.20526136888657,410.9377267220989 416.19208789337426,411.5600727752317 416.9231783822179,411.9901447023731 418.1765179733047,412.89316043490544 418.4252635021694,413.15350055822637 419.57491057773586,414.68105886271223 419.82715135999024,415.07664878095966 420.19240533339325,415.8200907189166 420.6948479999555,416.7195548941381 421.3863256177865,417.71139224391663 421.8037171199685,418.3381392279407 422.1602329600137,418.93527099105995 422.49898126220796,419.65262256830465 422.7506395021919,420.40665690775495 423.0989997511497,421.6848851159448 422.20741888007615,422.3836644360563 421.46322119107936,422.9396808175952 420.6380501333624,423.5376841623802 420.08113976893947,424.04817354748957 420.0223030045163,424.1051891720854 420.0607507911045,424.2081708445912 420.12978204444516,424.5661754285684 420.19298787554726,425.0598672222113 420.0709452799056,425.419196368719 419.8775412621908,426.1449245555559 419.79744170664344,426.44281716807745 419.56762879993767,427.36080123472493 419.32470869331155,428.10243412014097 419.0281947022304,428.6915841033333 418.461672391044,429.66126941668335 418.1191375644412,430.3551619576174 417.7439803733723,431.4437291320064 417.66388081770856,431.56085033272393 417.8843730489025,433.8630428190809 418.1459345066687,436.54662042099517 418.4578858666355,439.7684617242776 421.66856732440647,440.4579031696776 423.35211434669327,440.8172073815949 424.97158172447234,441.16502037562896 425.2616877510445,441.96759567421395 425.6295631644316,442.7648647376336 425.7335469510872,443.0830644509988 425.9639424000634,443.8454160747351 426.1247240533121,444.25332836061716 425.5241230222164,444.78542516671587 426.7355195733253,446.20493299514055 427.1899025066523,446.9641803415725 427.75933752884157,447.4321900717914 428.2029434310971,447.79546040005516 429.0219977955567,447.0127932962496 429.88940316450316,446.4135274026776 431.3131363556022,445.44745080696885 432.50443520001136,444.5286576812505 432.8941559465602,444.19587597140344 433.45339648006484,443.98727947915904 433.8702054399764,443.782218329492 434.5928490667138,443.2956392830238 435.01460963557474,443.00263067765627 435.5977343999548,442.55759273446165 436.5772791466443,442.6344911121996 437.23467804444954,442.1430481473217 438.94939107552636,441.3824584634276 439.65630606224295,440.89233857003273 440.4744866132969,439.8661327259615 441.77908991998993,438.13986877782736 442.2465800533537,437.76023033238016 442.4029926400399,437.5653283869033 445.2417208888801,437.36158716783393 445.4855148087954,437.3805912374519 446.4612730310764,437.4897541170358 449.23038748442195,437.6952630362939 451.6281312711071,437.92375337454723 452.2904817777453,438.04175506252795 452.4099029332865,438.0815308983438 453.2735217777081,438.3528902986436 453.6510091377422,438.5084577531088 453.98043676442467,438.633530371706 454.5216184888268,438.86820707371226 455.42455893335864,439.3883841140778 456.12215324444696,439.7229408355197 457.26160583109595,440.2448836697149 457.39238655997906,440.2559324039612 459.25564785767347,440.9148779215757 460.75219882663805,441.89821014902554 462.72992967104074,443.9360142094665 466.3122730666073,447.7888313847361 466.52956131554674,447.80385715246666 467.3075464533176,447.8418635013513 468.12135793769266,447.88252144877333 468.95847111113835,447.92273745464627 469.8360709688859,447.9678147273371 469.9895708444528,447.97444373730104 470.82581020437647,447.921411652409 471.9035133155994,447.85335379163735 473.10850190219935,447.72430895920843 474.47572849784046,447.5364867232274 475.3265314133605,447.4273287859978 476.11034197336994,447.250554684666 478.24535921774805,446.7728219710989 478.5144937244477,446.711834742222 480.77446627558675,446.1505746744806 483.08395491552074,444.5193769232137 485.1872236088384,440.7889226922416 486.79474887112156,437.75934642378706 487.39389354665764,436.85466406052 489.1552099555265,434.1375011091586 489.9066894222051,433.15634430677164 491.0548801422119,431.58339063229505 491.9974334577564,430.01970717217773 492.4923030755017,427.342680257163 492.88522780442145,420.69439149310347 494.5751827911008,417.0249740870786 494.82188942225184,416.4870647491771 495.24685397325084,411.511010046117 495.4090919821756,409.627611853939 496.09969578660093,406.34831268596463 496.21562168886885,405.0806045868667 496.4736878933618,402.6309193907073 490.081743359915,401.38661747204605 488.2496480710106,400.79253267357126 487.0618444799911,400.1789970009122 480.59649962664116,396.28335951437475 474.564274915494,392.6984108425677 468.43738709331956,389.0090801245533 462.1468049066607,385.20828920882195 461.0926947555272,384.5253069681348 455.2564955021953,380.2845811820589 449.81584241776727,376.2590658646077 446.61914197332226,374.0685642345925 446.50292480003554,374.2537961883936 445.12841642659623,373.37140105536673 440.4139022221789,370.42711134045385 439.21299143112265,369.7984606361715 437.3599246222293,369.1574296025792 437.4464321421692,368.8081774323364 437.6995467378292,367.6918930745451 437.65236081776675,364.68298139993567 437.5390563555993,361.6435236027464 437.483132302179,359.64342712803045 437.33225386659615,359.64077446819283 437.35846826666966,357.486362110998 437.5230364444433,352.88832609029487 437.32788479991723,352.8197969479952 437.31361251557246,352.5837028376991 437.319437937811,351.17022778687533 437.5160459377803,351.5694679773296 437.51080305769574,350.57335573021555 437.5052689065924,349.55336398724467 437.85392042656895,346.41289181879256 438.109656462213,345.1373248201562 438.5153971200343,344.029764163075 439.5581476978259,341.80136189307086 440.1421462754952,340.8525155596435 441.8376354132779,338.60064732079627 448.3082231467124,328.90271751827095 449.52486257778946,326.9624616309302 453.39527310221456,320.67066278489074 455.5463102577487,317.7513207020238 460.38723612448666,311.5415108620655 464.11201109329704,306.7063793814741 465.4804027733626,304.6779276462039 466.36994474660605,302.99969815823715 466.78267591109034,301.8645091149956 468.841380124446,294.33992062334437 466.0687704178272,292.9866616384825 464.35784391104244,292.20610163896345 463.90287843556143,291.94738851173315 463.1645061689196,291.59315004805103 462.6836175645003,291.36981589428615 461.6169827556005,290.939510049182 460.2433481955668,290.34822511603124 459.8192574577406,290.67106600041734 459.237297777785,291.58607411786215 458.6605809777975,292.2069861277705 458.21173219557386,292.890252676676 455.796512142173,291.5843051353004 453.8065479111392,290.61888079339406 450.35585905774496,289.73438389162766 445.77299939549994,288.65440839144867 443.9610018132953,288.4956400510855 443.47457905777264,288.00429775367957 442.52911303110886,286.97694215993397 441.8923943822738,284.0195643843035 441.0777090843767,283.7285566338105 441.58655971556436,282.4004419455887 442.4565865243785,281.5243153148913 445.18492302217055,279.9573623868637 447.24187960883137,280.2302420869237 446.9328409599839,277.1316888325382 444.25722453324124,276.6014011151274 439.89107057778165,272.52977527922485 435.9111421154812,268.61951112223323 431.4494512354722,264.27705123776104 423.63056952890474,256.46633618616033 419.64190293336287,252.49917135911528 416.4507366400212,249.39713429834228 409.9344193422003,242.99608764384175 407.2617156265769,240.409695669543 400.6125787021592,233.9230139781721 395.14105087995995,228.53676528501092 391.0626727822237,224.54875129001448 387.3728503466118,220.93005866114981 385.4379363555927,219.1012250308413 383.2790348799899,217.07683813921176 383.39932984893676,216.91801854304504 387.28809045325033,211.80962951859692 393.30516906664707,203.86257022450445 397.9523996444186,197.70974119345192 398.70562673767563,196.65984542458318 398.28532252437435,196.750987015781 397.49160874669906,196.76868440781254 395.20105272880755,197.20492467435542 389.1088261688128,198.0526264294749 384.5344133689068,198.64238779508742 383.9716775822453,198.72291023039725 381.62956657772884,199.03305406239815 378.6880196266575,199.48035060823895 373.0146409244044,200.40812305902364 370.5903914666269,200.73507675528526 367.35145671106875,201.19829720188864 365.09352305775974,201.56816498190165 363.82416355551686,201.71858950075693 361.3340868266532,202.052177628153 358.2999156622682,202.48309841868468 355.8678018844221,202.7923521451885 353.9433736533392,203.10337512905244 351.6327199288644,203.46483372425428 351.014642631053,203.54800893575884 349.4094475377351,203.84487339877523 347.85289472003933,204.66644704621285 346.51712540443987,205.07214491884224 345.6954495999962,204.9902975342702 345.0875667911023,205.6517120206845 344.4948300799588,206.3272818371188 342.05805596441496,209.06803021254018 341.21919516439084,210.0276159462519 340.1359579022974,211.25219880847726 339.3541862400016,211.97464643628336 337.5413148443913,214.11454638675787 334.6283124622423,217.1405429034494 329.9816644267412,221.4480927317636 328.49822065781336,223.11411040998064 327.12109084439,224.52928659762256 325.3854062933242,226.33993805176578 322.83591025776695,228.97913623938803 320.10524359112605,231.820906205161 317.667595662293,234.52993195928866 316.906504248851,235.3027325529838 316.1509469866287,236.15736636403017 315.5555888355011,236.87442459276645 310.6523309511831,233.57045225973707 310.1128968533594,234.40209004457574 308.8714993777685,236.36704310018104 308.0300171377603,235.817636547843 306.30685724446084,234.65467728610383 304.52223914663773,233.53285154153127 299.69587683549616,230.39958340709563 298.416031573317,229.54448503436288 297.2786178844981,228.81413197657093 297.18016824882943,228.73671706562163 296.8111277510179,228.5053569136653 294.9778673778055,227.31316262850305 293.72394524433184,226.33153291174676 291.747962026624,225.06102598796133 290.90356707549654,224.49522338190582 288.9770999465836,223.13534475537017 287.84230769774877,222.55405381938908 287.7508485688595,222.47707910626195 287.6052130133612,222.41514540970093 286.9609213154763,222.08601176040247 285.9368120888248,221.4303973094793 284.67182165337726,220.57437957217917 284.3837545244023,220.407157116686 283.60635192890186,219.89885316422442 281.66852522664703,218.6530832842691 278.7462021688698,216.71982568409294 278.60260551108513,216.69107000902295 278.32007253332995,216.6132084701676 277.83248469326645,216.42961439245846 277.03906218660995,216.23363307659747 276.8663384177489,216.13143959036097 276.68808049778454,215.94209395901999 276.4824430933222,215.62533782154787 276.3580703289481,215.3842312404886 276.2660286577884,215.25460869492963 276.18622037325986,214.80822876887396 276.6339040710591,214.15126559790224 277.2205240888288,213.2036425648257 277.56451527110767,212.29760144237662 277.58170026668813,212.13523918983992 277.7555891199736,211.5747124616173 278.0611325155478,209.8767546560848 278.05559836444445,209.7581891125301 278.2038553599268,208.96937270718627 278.2699739022646,208.80922007118352 278.583964159945,208.4906840978656 279.24398449773435,207.8965248024906 281.2694838044699,205.60879756201757 281.20627797336783,205.42253986687865 280.87539399112575,204.58017532003578 278.3031788088847,198.2950791537878 276.6650700799655,195.16662227141205 275.3339611021802,192.71152032841928 274.44966200890485,190.98952595534502 273.23447893338744,188.7560457038926 273.0244724622462,188.3233284256421 273.20185656880494,188.22687394800596 271.89841834665276,186.3291899317992 271.10150058660656,185.2650816211244 269.9859322310658,182.71341315086465 268.6891932444414,179.84667792520486 267.3208015644923,176.9290210820036 266.654373262194,175.4608862376772 265.17733745777514,174.70690362388268 264.9900501333177,174.60026620450662 262.8180414577946,173.42459631769452 261.5984893155983,172.74848375096917 259.27676728891674,171.5011214511469 258.81859783106484,171.28253364923876 256.00287999992725,169.80197173042689 252.54986097780056,167.94793673453387 251.68449450668413,167.49438166012987 251.4523514311295,167.4160603483906 251.0506885688519,167.1939285681583 247.05415765335783,169.2116911492776 245.7012033421779,169.06832441408187 245.62751175102312,168.1921923510963 246.67463139549363,167.2045484193368 247.86360007105395,166.14344577945303 248.65644003555644,164.89914380351547 248.54866972437594,163.1486132676946 250.08716373331845,160.3780916687101 252.2122777600307,160.19931860180805 255.55694392882288,162.07377358933445 256.4039603200508,161.92022463842295 259.92164152883925,160.11789715720806 264.5773189688334,157.68320514424704 265.1359769599512,157.41282966337167 266.2780509867007,156.8105682004243 269.3209602844436,155.26264695549617 269.4817419376923,155.1436096825637 271.0723734755302,154.36123672232497 272.80281514662784,153.485931574367 272.942625280004,153.43946684658295 278.8513510400662,150.23293457902037 280.5829577954719,149.31867053825408 282.7724427378271,148.21499924291857 284.92843150219414,149.03014112304663 286.2490547200432,149.4859466223279 288.3939751822036,150.20682544528972 294.87067960889544,152.50928519881563 299.4322764800163,154.14130445977207 309.02674688003026,157.50531493045855 315.4061667555943,159.78159087372478 315.9764755910728,159.0673808370484 318.89763356442563,155.57019649096765 322.7619273955934,151.06754018366337 327.4537224533269,145.42349174554693 328.93337969772983,139.50801718060393 330.17419463116676,134.27879562065937 330.9885886578122,130.8816827441333 330.9323733332567,130.58472055883612 330.7870290488936,129.71773032279452 330.0640941511374,123.10609906411264 329.7023354311241,120.22221713891486 325.8167788089486,119.1197287295945 322.7826076444471,118.22746592969634 315.62724152882583,117.72733689646702 304.464567466639,116.00475994357839 296.9436561067123,113.5784353709314 290.74744575994555,109.75831452477723 279.7612819910282,103.80603579827584 277.3195562666515,102.56581006885972 271.48801735113375,97.97443578607636 268.7398744177772,95.87148112955038 265.55802880006377,93.46441234869417 260.3701990399277,91.35123405774357 258.56257052440196,90.63193437911104 255.561604266637,89.5182325480273 254.73264668439515,89.46644262084737 247.1167809421895,87.21998754958622 234.48988700436894,86.20675139711238 229.90935751108918,83.74114647612441 227.48219534219243,79.72308126208372 225.55805838224478,76.60844406980323 224.17539441771805,74.34326613380108 221.76949503994547,70.54416059877258 218.66920533333905,65.53731635631993 212.67542840889655,55.957150540081784 208.18548423110042,48.80673006409779 203.4610668089008,41.25628019939177 197.4969995378051,33.674579823273234 194.78089642664418,30.105459026817698 192.92870343115646,27.71361559763318 189.81705415109172,23.599779326701537 188.70585486211348,22.205458862474188 186.65093717328273,19.47789647767786 185.43837553774938,17.763854299671948 183.3831665777834,14.922880997066386 182.6005211021984,13.900458218762651 179.42420963547193,9.870499017240945 177.94193095108494,8.004055323428474 176.6850961066084,6.470150088018272 176.3498430576874,6.272654589207377 175.81273912882898,6.026449191616848 175.26252800005022,5.797070535540115 175.06388110213447,5.639427923772018 174.49240718223155,5 173.74063644441776,10.769397488038521 172.69468188437168,16.68609533685958 171.7824207644444,21.714854338555597 170.69830968882889,27.87212804914452 169.18748643551953,35.85250781301875 167.75792782218195,43.82773003447801 166.2663284621667,51.271395512041636 165.40358343103435,56.170096803922206 164.78783630218823,62.17899298865814 164.35355107556097,65.9552217409946 164.06490140443202,67.65074079972692 162.59747754666023,75.5761243016459 161.15044266660698,83.40782291610958 160.89325027551968,84.57334653590806 160.59673628443852,85.90087622671854 158.97056967113167,93.25105927558616 153.87478158227168,123.23090710333781 153.81186702218838,123.57302239653654 152.0211322311079,134.1398318890715 148.45713891554624,155.11042084050132 145.27383694215678,173.565305349126 142.15781859552953,171.45997032278683 138.60401976888534,170.49269536230713 134.20262200885918,169.1497425714042 132.22314353776164,168.57937235129066 130.1728861866286,169.27275473054033 129.48519509332255,169.4740874337731 126.83550179563463,169.49134451407008 126.62549532449339,169.53116854053224 126.07033258664887,169.55639042018447 125.24487025779672,168.72141193051357 124.93000618659426,168.1523680840619 124.72815530665684,167.82359636254841 124.23182933323551,166.13680834078696 124.21580942219589,165.78236882714555 124.05211505771149,165.46200103894807 123.91143111116253,165.28809954569442 122.1745814755559,168.00457574194297 121.55679544887971,168.6143291409826 120.9267760355724,169.0015084039187 120.4054007466184,170.77588700444903 119.94024078221992,170.0033039529808 118.53806165326387,168.37671136128483 117.39336618664674,167.10233233106555 117.19093276443891,166.69037004292477 117.18510734220035,165.3460667252075 117.25035207113251,165.10800294444198 117.4140464355005,164.92480870860163 117.14840718219057,164.55222479562508 116.91306012449786,164.49115991406143 115.75088839104865,164.23760772589594 114.8287240533391,164.16282526246505 113.8788889599964,163.96281523641665 112.99458986672107,163.820330107701 112.20291498664301,163.67341987928376 111.33580088883173,163.79643507720903 110.95598336006515,164.31725765916053 110.28809870220721,164.82214907056186 109.90886371559463,165.368634096405 109.41195519990288,165.77086391462944 108.96601912891492,166.05406158871483 108.90397838223726,163.84953514160588 109.16874382225797,161.53613054327434 109.0804886756232,161.3148778823088 109.08340138662606,161.0869874105556 108.60950328886975,160.7652853167383 108.27774549333844,160.85157409473322 107.98356167110614,160.76484281010926 107.53092636435758,160.66085372515954 106.55283797334414,160.26082717324607 105.78650367993396,159.88779291306855 105.16318350215442,159.42404363362584 104.81394944002386,159.20455890364246 104.26461212441791,158.31201493029948 104.02373091550544,158.15094067226164 103.88188188441563,157.99827402853407 103.50177308439743,157.50531493045855 103.37507015105803,157.3079539788887 103.05263303115498,157.06899653782602 102.4237787022721,156.37955862516537 101.88463587558363,156.04634428257123 100.9339269688353,155.1356443609111 100.71430855116341,155.08121465530712 100.52294343116228,154.87986888014711 99.96603306662291,154.4997452587122 99.30368255998474,153.9567736001918 99.21018453326542,153.7735701489146 98.96493425779045,153.6819683664944 98.29180671996437,152.96773867763113 97.73227491555735,152.61858838266926 97.3466319644358,152.11057150864508 97.05827356444206,151.81850553135155 96.85263615997974,151.75566704350058 96.5756373333279,151.54104249645025 95.94445283547975,151.36447492986917 95.49880803562701,151.08479869691655 94.44877568003722,150.93212718667928 93.90293361770455,150.69537550630048 93.45554119104054,150.80998990283115 93.12290958222002,150.7126340486575 92.4293930666754,150.59447938634548 92.38220714672934,150.74007070274092 92.33414741326123,150.95292592037003 92.28200988448225,151.00116127391811 91.84539448888972,150.98080507095437 91.6432523378171,151.00116127391811 91.28236743109301,150.9816901232698 90.95468743110541,150.84273686236702 89.28774286212865,150.50774408853613 89.08123164437711,150.54181867383886 88.06236529781017,150.24621040862985 86.92611669329926,150.02317636669613 86.60455338668544,150.055038386432 86.38843022217043,149.9625500109978 86.16123875556514,149.76119958644267 85.47209130669944,149.4439063485479 84.82459562667646,149.00934220897034 83.7949522488052,148.87304289394524 83.29542229336221,148.62168549589114 83.11745564441662,148.67080641828943 82.94414933328517,148.61150728538632 82.88036095991265,148.42166144726798 82.77695971552748,148.35572427662555 82.65404330659658,148.19065999845043 82.17752376885619,147.97868719277903 82.07878286216874,147.93576156860217 81.64508017769549,147.3874634319218 80.92039765336085,146.83296845684526 78.80693447112571,147.45251582411584 77.84865251556039,146.32936367811635 76.91192462213803,145.16106699139345 76.71065628447104,145.20709091681056 76.08908373326994,145.719991515507 75.49430812441278,146.09172201005276 73.64852309331764,146.97502197045833 69.26023253332824,141.80793279618956 66.53626510221511,143.6312085724203 66.44072817778215,143.55509153415915 65.90508060448337,143.28868169442285 65.74138623999897,143.38736843323568 65.64992711110972,144.83403132343665 65.64002389332745,145.9766626378987 65.8433311288245,147.9304511815426 66.05013361782767,149.86740642652148 66.31897685339209,151.0985170013737 67.2067711999407,154.94182144582737 67.28279296006076,155.18564887554385 67.30026922666002,155.39540220296476 67.22366492438596,158.22705269884318 67.18842111993581,158.4217577642994 67.3183280355297,158.56291882973164 68.83672433777247,158.70938993431628 72.20119694224559,158.91161725204438 73.43618645332754,159.16384800244123 74.7084586666897,159.72583478258457 75.01312824885827,160.17055559484288 75.17449244437739,161.0595520370407 75.3719742577523,162.3543209655909 75.27381589333527,162.9229371927795 75.21585294220131,164.71240940492135 75.0626443377696,165.07525809213985 74.64263139560353,165.5363405669923 74.28407665784471,166.0292818066664 74.07377891556825,166.65010301128495 74.11805212451145,166.99126631155377 74.08076942223124,167.77846211765427 74.03270968887955,168.05900227470556 74.1349458489567,168.7568111884175 74.4037890844047,169.36213762359694 74.49029660446104,169.75551042228471 74.62544639990665,170.58163527643774 76.22306844440755,172.72370471712202 75.5732425955357,176.3144233203493 75.21090133325197,176.6206162266899 74.59864945779555,176.7511463110568 74.12941169773694,176.79583625454688 73.55269489774946,176.64583729987498 72.63373454217799,176.56176704494283 71.81788415997289,176.54229813918937 70.05045105773024,176.9312334539136 68.90313415112905,177.2936196689261 68.75429461337626,177.57636015064782 67.947764906683,179.0197026556125 66.87938247108832,181.78733650845243 67.44240952888504,182.39129997493 66.37344455113634,184.36644813010935 66.15149596438278,184.83722457371186 64.03715896885842,187.59814900747733 62.10574023111258,189.0228433594457 61.15095352882054,190.09091566724237 60.11286328884307,191.2151734615327 59.845476408838294,191.59434924385278 58.04775111109484,194.40518520062324 55.25912149331998,194.70958336722106 53.78325077332556,194.68392191000748 52.386605795589276,194.7511726191151 51.77581027557608,194.7343599437736 51.11608120892197,194.68436434894102 49.68477496888954,194.28926602157298 48.236283733393066,194.19281413930003 47.12887096882332,194.0410571937682 46.44525767106097,194.0127410175046 44.08770929777529,193.82558869902277 43.35632753779646,193.98044287459925 41.789871502202004,193.67515882500447 41.07887872005813,193.27076742233476 38.553558186627924,192.55799259617925 38.14315719110891,192.51419071643613 36.37980188440997,192.58188452688046 35.78910407109652,193.07919005613076 34.88791125337593,193.34642495098524 29.432112071081065,196.29483624914428 26.87300408887677,197.39340144081507 25.786271573393606,197.87344130780548 23.875824355520308,198.59283551259432 21.942657991079614,199.1631285219337 21.650221795542166,199.20914123766124 21.63565823994577,199.45247755607124 21.66449408000335,204.0550231137313 21.66129009774886,207.09796866215765 21.80546929780394,209.78340641630348 21.5808992710663,211.388459778158 21.552063431125134,211.7043371584732 21.37846584885847,212.88378569681663 21.354290346615016,213.3107038200833 22.05800135107711,217.54621795204002 23.14211242669262,220.98801129462663 25.323733048862778,225.25965376920067 26.194924942217767,227.51355788612273 27.458459022222087,230.20317207055632 26.97145372442901,230.00853003386874 26.02890040888451,229.6811771322391 24.853912746650167,228.85925379791297 23.14036479999777,228.08908498066012 23.269106631167233,228.56507705250988 20.772913208813407,227.63476817461196 20.532323271152563,227.36492036143318 18.89916615106631,226.58324459649157 16.35287409776356,225.97188109857962 12.858785848831758,225.88650241517462 12.186240853392519,227.64405801158864 12.160317724454217,229.6112828014302 13.30239175108727,232.69678686576663 13.946974719990976,234.14729071425973 14.748261546716094,236.91600593650946 15.139147377689369,239.54888535581995 15.736835697782226,242.20119665644597 16.568705991026945,245.3152775063645 13.326275982195511,248.56068710400723 12.951410062145442,248.94330347812502 12.45770552882459,249.41836612683255 11.903416604502127,249.94341090571834 11.552143644425087,250.27825347264297 10.881346275564283,250.92626308079343 10.67862158222124,251.13459887343924 10.533568568876944,251.27525859721936 9.951317617786117,251.75739345146576 10.517257386702113,253.29269846668467 10.826878577820025,254.01589377550408 11.037176319980063,254.42636688321363 11.052031146595255,254.4630794194527 11.527385600027628,255.46227731765248 11.632825742242858,255.68343604909023 11.678555306629278,255.7780919187353 11.760693760006689,255.95103781926446 12.035071146674454,256.70253263390623 12.364498773240484,257.6827009723638 12.561980586615391,258.2630152031197 13.912313457694836,261.669234503177 13.966198613285087,261.8010414444143 14.432232391089201,262.9709351903293 15.957910471013747,266.73622616927605 16.72890510223806,268.7234495865414 17.006777742295526,269.35769430885557 17.392420693300664,270.276328671549 17.441645511076786,270.39751558791613 17.654855964356102,271.0666961634997 18.34778993774671,272.70934236538596 18.84819370659534,273.9464052616386 18.914894791087136,274.1122605060227 19.11004643549677,274.6704177777283 19.201796835521236,274.8460026193643 19.446173297823407,275.38204414770007 19.818417777772993,276.34753481997177 19.96434460452292,276.6535896206042 20.264645120012574,277.4483571231831 20.281830115476623,277.49125768092927 20.75922346673906,278.7663292301586 21.045834239921533,279.5155353858718 21.490022684447467,280.6557037695311 21.499925902229734,280.787941693794 21.471672604442574,281.02366997185163 21.422156515531242,281.39517369144596 22.319562808959745,281.19969204993686 22.730546346632764,281.13600568601396 22.72006058669649,281.21030644210987 24.963721955544315,280.96838662715163 26.198420195491053,280.9246022081934 27.381272177794017,281.0050947695854 28.517812053323723,281.1258335568127 29.076761315460317,281.24391868070234 29.37677056004759,281.527411174844 29.550950684468262,281.8759162715287 31.021287253359333,291.68469487375114 31.62596607999876,294.75916388840415 31.70286165329162,295.17752188409213 31.76723256893456,295.9111943071475 31.6274224355584,296.30655384704005 31.563634062185884,296.6634381955955 31.473340017721057,296.7788616353064 28.18780188448727,295.4800127974013 27.465158257749863,296.49361969251186 25.2756733156275,300.42461936734617 24.176998684415594,302.6016972073121 23.50445368885994,303.8965243498096 20.287072995561175,309.78064017230645 20.182215395499952,309.9362978130812 21.103214648901485,310.1012417280581 18.140404906705953,316.7440016878536 18.122928639990278,317.2940921818372 25.995695502264425,321.1124078081921 26.1139515733812,321.3392495053704 29.148414008901455,324.378375247994 25.901906204409897,326.57334719470236 24.959352888865396,327.4125954339979 22.164606577716768,330.1929694440332 21.636823324486613,330.67183759459294 21.203120640013367,331.0030209646793 20.371250346652232,333.0223887045868 19.602294613374397,334.6437946013757 21.74604999111034,335.7540550697595 21.795857351040468,335.8880287768552 20.671259591006674,338.417596355197 20.08959118218627,339.7639459412894 18.858679466648027,341.97910432424396 19.280731306644157,344.339262707741 17.8555417599855,345.81954406155273 18.40371399105061,346.4747908972786 19.641616213251837,347.50408161373343 20.454845155472867,348.1089203223237 20.89961614215281,348.3326394853648 21.467594808898866,348.8512603135896 22.274415786610916,349.480412512552 24.193309866590425,351.22593576362124 24.76332743105013,351.51862347475253 25.584711964358576,352.0991343634669 25.87394417775795,352.27775279281195 26.32162787555717,352.7123608951806 26.991551431128755,353.0160997248022 27.781478684511967,353.4971292183036 27.9507071999833,353.1261883681873 28.02206862217281,352.943149388826 29.82008519116789,352.7941537796287 30.269516515545547,352.79238528513815 30.767298844410107,352.93740178557346 29.792414435534738,356.466402154183 29.70619818661362,357.3024425000185 29.806686719995923,359.5846264946158 29.84629959112499,361.1178589685005 29.973585066734813,361.274364801473 29.675614719977602,361.94857651996426 30.042616319959052,362.1722817259142 30.803416462265886,362.6046599234105 31.083327999920584,362.69131230341736 31.54411889775656,362.87390113598667 32.27724828443024,363.0525108897127 34.165558897773735,362.96585865085945 35.38074197329115,362.9747007176047 35.669974186690524,363.1113106039702 35.76725873770192,363.4066352486843 35.72735459555406,363.98888343397994 35.87240760889836,364.1405241303728 37.39779441780411,364.3695323326392 38.82181887992192,364.86114759766497 41.259466808871366,365.9774461996276 41.952109511126764,366.28381944744615 42.50319445331115,366.82627147604944 43.2354500265792,367.43547844851855 44.00382321770303,368.11055562860565 44.142176995635964,368.8541549646761 45.78960639995057,370.325430967554 47.1279971555341,370.95982731494587 47.9773437154945,371.7807821253082 48.706977848894894,371.9850256611826 48.831933155539446,372.2246358033153 49.5304012800334,372.4474464782397 49.748854613280855,372.7613262159284 50.352659626631066,373.1813054520171 50.55014144000597,373.1897050286643 50.81374179548584,373.5071203749394 50.91393905773293,373.8545968210092 51.157441706745885,373.8245352670783 51.535802879952826,373.916046161321 51.805228657787666,373.7927053819294 52.25786396441981,374.59773482370656 52.43437425768934,374.70692859764677 52.986915555549785,374.5707679319894 53.62567310221493,375.0040061236359 53.957430897746235,375.10612643137574 54.17879694222938,375.4536003728863 54.220157439936884,375.7944426035974 54.75871772447135,376.2055745586986 55.012706133304164,376.0380273270421 55.62816199113149,376.4756834177533 55.93050140433479,376.2290046364069 56.25876394670922,376.3740058170515 56.89402623998467,377.2409163863631 57.104323982144706,377.2364956373349 57.36268145777285,377.5618625304196 57.29452401783783,377.69669513835106 58.21756216895301,378.4102014108794 58.27814655995462,378.27846374642104 59.18196081777569,378.5790730676381 60.838710897718556,379.6922081547091 60.841623608837835,379.854005720641 60.20752639998682,379.943303780281 59.93577045330312,380.0202238622587 60.01208348444197,380.09051287942566 57.05043882667087,381.85082552954555 56.50255786662456,382.5899581692647 55.65758037334308,383.68583271233365 55.17581795551814,384.2468087519519 54.69056028441992,384.92139271786436 54.01655893330462,385.7308023577789 53.03497528890148,387.560914851143 53.175950506702065,387.9397550923168 52.799336959957145,389.02941449033096 51.192102968809195,388.4154042341979 50.89296753774397,389.34990152996033 48.64814108447172,388.9494031709619 48.123853084398434,390.019165386213 47.58063246216625,389.89715970808174 47.51538773335051,390.0262381770881 46.0957323377952,389.2880144135561 45.21259832882788,388.03744891192764 44.629473564447835,388.23239436908625 43.0079672888387,388.45607307262253 42.959325013333,388.61079141148366 43.64701610663906,389.1359488541493 44.51238257775549,390.6477587943664 45.158713173354045,392.0547937020892 45.75407132448163,392.66127913515083 46.262048142263666,393.393745119276 46.30981660448015,394.03603225108236 45.844074097811244,394.61775801423937 45.85252096003387,394.7897116142558 44.9335606044624,394.8913807751378 43.385163377737626,394.84938699693885 42.12366819556337,394.7136807329953 40.844988017808646,394.9121566413669 39.2412492800504,395.45409663626924 37.35468629328534,396.2908741424326 34.47954915557057,398.92186241189484 31.092066133394837,401.587297542952 30.56719559105113,402.2140900758677 30.197863822220825,402.73214293440105 29.22938737773802,403.4009244006593 28.280717368936166,404.03743628342636 27.29534720000811,404.5232173874392 26.025113884476013,405.12745864130557 25.076735146692954,405.5358841310954 23.775918364408426,406.14233271364355 22.282862648833543,406.810661884665 21.363319751108065,407.23013465479016 20.502031075535342,407.679221588769 18.317497742245905,408.7060183188296 15.58537471992895,410.1889643134782 15.084679679945111,410.44886560109444 13.547059484408237,411.20160519785713 12.386926648789085,411.8438407796202 11.260581262176856,412.50773273035884 10.452012657769956,413.1336104068323 9.73781589337159,413.73164018127136 8.559624248882756,414.7920009109075 7.308906097779982,416.00838180136634 6.247514168848284,416.5997738803271 6.864717653254047,417.6282973063644 6.880446293391287,417.7816693211207 7.0901614932809025,417.88818987988634 7.575710435514338,417.864322207286 9.76024376892019,416.84552378731314 11.941281848936342,415.39798219536897 12.70674232894089,414.8463669142802 14.064065706683323,413.60301750549115 14.223682275624014,413.5322971022106 13.256079644430429,414.97631486842874 12.50955178658478,415.77368092059623 12.198474239907227,416.2541323634214 11.72632376884576,416.8362418713514 10.066369706648402,418.418581942562 8.879731199936941,419.4232294326648 7.696879217750393,420.3880933733308 6.040420408826321,421.9827837163466 5.784101831028238,422.0844404172385 5.34195228444878,422.44642629136797 5,423.27868217247305" stroke="red" stroke-width="3.8143955842255126px" fill="none" stroke-linejoin="round" vector-effect="non-scaling-stroke"></polygon></svg>