<svg viewBox="0 0 57.62477743999558 65.19251961387569" width="57.62477743999558" height="65.19251961387569" xmlns="http://www.w3.org/2000/svg">
  <title>Paskov, okres Frýdek-Místek, Moravskoslezský kraj, Moravskoslezsko, 73921, Česko</title>
  <desc>Geojson of Paskov, okres Frýdek-Místek, Moravskoslezský kraj, Moravskoslezsko, 73921, Česko</desc>
  <metadata>
    <collboard>
      <support-module name="@collboard/map-svg-geojson-import" version="0.11.0"></support-module>
    </collboard>
  </metadata>
  <polygon points="8.052549999999883,37.13289274104284 12.223697946675657,42.8481934826483 12.26039810665634,43.053181250470175 11.802665555565454,46.130833796465254 12.201270071127055,46.581215687728786 9.021900257771904,49.1909700231987 9.102946444450481,49.4272416384116 14.874192240014509,56.82513512281696 14.877469040023698,56.83054002206302 19.720506622230005,57.13996961387568 19.871967600025073,57.13929400532618 33.89040927112319,50.964784084913504 33.9652659466733,50.171299108136395 36.95632898665599,51.37334665397759 37.153737982247094,51.45544168618619 37.69892468446733,48.41187459584728 37.732056773332715,48.395657400520236 39.729521235545235,50.334141272680085 39.82083472889599,50.47186977891363 49.31110288890295,40.24275453319535 49.57222743999546,40.13957965934935 42.981927280000946,33.07772054241616 42.558273448906675,32.29986000483734 41.83512009779906,22.4289132010814 41.73157321778808,22.055739216397 37.50683138665727,15.50585068125622 37.39403664888914,15.080792952423167 39.01408656888043,8.586644794289555 38.380644719996326,8.052549999999997 28.361719493324472,12.202776703059158 27.651673342224512,12.919843907998825 24.25618036444166,10.445849044488227 24.103408666683663,10.57330990385492 16.997777093354216,18.832387974376275 16.89109904890165,18.970646567271274 16.126221111109317,26.456596389332503 15.995003475552494,26.622551122949176 18.357139368897606,31.036221405178026 18.49330861334556,31.333404973447273 8.052549999999883,37.13289274104284" stroke="#009edd" stroke-width="6.182963751531538px" fill="none" stroke-linejoin="round" vector-effect="non-scaling-stroke"></polygon>
</svg>