<svg viewBox="0 0 182.1838097599823 212.45477845550272" width="1000" xmlns="http://www.w3.org/2000/svg">
  <title>Paskov, okres Frýdek-Místek, Moravskoslezský kraj, Moravskoslezsko, 73921, Česko</title>
  <desc>Geojson of Paskov, okres Frýdek-Místek, Moravskoslezský kraj, Moravskoslezsko, 73921, Česko</desc>
  <metadata>
    <collboard>
      <support-module name="@collboard/map-svg-geojson" version="0.11.0"></support-module>
    </collboard>
  </metadata>
  <polygon points="8.052550000000338,124.37392096417148 24.737141786703432,147.23512393059332 24.883942426626163,148.05507500188082 23.053012222262623,160.36568518586114 24.647430284509028,162.16721275091527 11.929951031088422,172.60623009279493 12.25413577780273,173.55131655364653 35.33911896005884,203.14289049126796 35.3522261600956,203.1645100882522 54.724376488920825,204.40222845550284 55.3302204001011,204.39952602130484 111.40398708449356,179.70148633965414 111.703413786694,176.5275464325457 123.66766594662477,181.3357366159105 124.45730192898918,181.6641167447449 126.63804873787012,169.48984838338924 126.77057709333167,169.42497960208107 134.76043494218175,177.17891509072047 135.12568891558476,177.72982911565464 173.0867615556126,136.81336813278153 174.13125975998264,136.40066863739753 147.7700591200046,108.15323216966476 146.0754437956275,105.04179001934949 143.18283039119706,65.55800280432572 142.76864287115313,64.06530686558813 125.86967554662988,37.865752725025004 125.41849659555737,36.16552180969279 131.89869627552252,10.188929177158343 129.3649288799861,8.05255000000011 89.2892279732987,24.653456812236755 86.44904336889886,27.521725631995423 72.86707145776745,17.625746177953033 72.25598466673546,18.135589615419804 43.83345837341767,51.17190189750522 43.40674619560741,51.72493626908522 40.34723444443807,81.66873555733014 39.82236390221078,82.33255449179683 49.27090747559123,99.98723562071223 49.81558445338305,101.17596989378922 8.052550000000338,124.37392096417148" stroke="#009edd" stroke-width="6.330883912268636px" fill="none" stroke-linejoin="round" vector-effect="non-scaling-stroke"></polygon>
</svg>