<svg viewBox="0 0 117.38508975999072 91.58474615265665" width="117.38508975999072" height="91.58474615265665" xmlns="http://www.w3.org/2000/svg">
  <title>Bělčice, okres Strakonice, Jihočeský kraj, Jihozápad, 38743, Česko</title>
  <desc>Geojson of Bělčice, okres Strakonice, Jihočeský kraj, Jihozápad, 38743, Česko</desc>
  <metadata>
    <collboard>
      <support-module name="@collboard/map-svg-geojson-import" version="0.11.1"></support-module>
    </collboard>
  </metadata>
  <polygon points="8.052549999999997,19.016097423481938 9.03355110222003,21.415767210498984 9.044473768888224,22.197614043157614 15.243159920013227,26.076401024467145 15.283865057782918,26.079204732544554 11.856113804453003,26.579720402769112 11.771281093336825,26.693325497115097 12.531353057776528,30.834423861109485 12.56222779557686,31.128226205873602 15.058930942242682,32.1591011478082 15.11631135110622,32.19330258428056 15.7599476889078,38.525919803061356 15.709484968894344,38.691188679447464 19.015193626669884,42.05162261166663 19.452828471119233,42.47889378792718 16.98852923556808,43.409326646003706 16.481426231104365,44.077403358947436 17.627650871123137,45.2170052933285 17.602310284455257,45.83416301343061 14.337743671123121,51.18402978112101 14.20994847111399,51.42268381363067 16.00541641779239,52.815577624998355 16.090467582230872,52.96163550265885 13.916929733335223,57.40786376680592 13.879137306655707,57.68885840209953 17.463665235561734,55.21500259856805 17.612067866669918,54.93657335163846 21.918948151119935,59.00874055784482 22.190194373346117,59.18594039031416 22.551589004440416,55.74574042663846 22.69693328889082,55.475608403670435 37.88803245334532,50.38432382727444 38.21767853335007,50.3533845907001 37.92786377779669,46.316673496846875 37.8390260888915,46.019140814568914 40.513477431122396,46.54189592019941 40.89620767112467,46.60972031155654 44.782419653354395,49.950276131501255 45.1291050933429,49.96462487053179 50.46664820443368,62.81555301282026 50.48980425779121,63.01728451469501 41.15325442667347,64.08488010663825 40.866498017806975,64.13688087321464 38.76949165334338,67.38268465873955 38.37132404445549,68.4819088129949 47.6921452355524,73.76637181438093 47.87193232888933,73.85209068995721 51.593867404451544,73.07120359643125 51.920600773337014,72.83096288746276 53.529145484447895,83.50721323984146 53.53489808890265,83.53219615265664 66.9585641511145,79.78978595133924 67.00400244445302,79.80009350258445 62.48493115558051,70.66202575652972 62.39274384888233,69.96737851594628 66.65513247112506,69.63803712490301 66.86040578666837,69.54805340692803 70.22640756445583,60.28297506825004 70.31065773333069,59.75452270689823 77.15916973335663,59.17092157787522 77.88938640891104,58.40977623088804 87.25557307556267,62.76590453505162 87.54145567111084,62.87752949201206 92.19087078222185,60.01734853642813 92.2000458222243,59.94584210274445 97.89476013332717,61.2398923972429 97.9180618222232,61.233952343485385 101.15714221334895,59.624510317378395 101.23607668444276,59.54112289855368 99.66852838223679,56.767634477662455 99.66867401777529,56.32455825946056 101.99083295110142,54.15059717903898 102.2317141600139,53.58352609018732 101.42569417777815,49.20615435096954 101.60715608002613,48.8171622995211 107.40476191111486,47.1145329409261 107.60042328001111,47.342330501523634 107.26575277333143,46.16218988654839 106.6685741777834,45.215659982822785 109.14612624890981,43.07747145406722 109.33253975999071,43.04383736987768 102.68544173334487,41.845553612896424 102.16246445335094,41.50012283166109 100.14482946668397,34.73895096193121 99.99882982223755,34.52455679882371 94.96129595555942,36.308420792505444 94.28299835557812,36.46909913831735 84.5337173600052,34.8403169481677 84.38196511113313,34.85164211862832 84.50735732445139,32.358590537339865 84.43483081780835,32.21214139919141 77.89433801780217,26.981206257223334 77.7168810933432,26.920647126585777 77.01229627556279,29.78210514816567 76.97952827555821,29.88482597973018 71.30855255999597,30.694250432272042 70.81812482668431,30.522229110959984 78.30714200001205,23.100128011188303 78.32083174223192,23.03036792331079 71.07895810667071,22.956458022810352 69.53099778667786,23.084089928095295 68.64043636446115,25.941037827920468 68.37909335998813,26.229146831865023 64.75932162669017,23.912007783051763 63.84684205332417,24.17466889690661 62.22089389333962,19.26610764851614 61.88826228446089,18.13920194698551 63.77686416891049,13.705494421861317 64.00332745776507,13.207665631801888 58.30453535111849,10.86002453846561 58.00729318222841,10.748405881305757 48.18781584889041,11.428546997914623 47.38245122667979,11.81354149677611 51.052685679991214,14.644716110567629 50.83452361779166,14.924135104541733 46.86588191110752,16.43348904870038 46.664395120001814,16.472972185401545 43.59323252444267,23.099455084731403 43.66357449777536,23.436141596866605 35.70146022222582,25.702609380292074 35.22552322666854,26.67672772899789 34.074201342220135,26.122942560024626 33.72125357334846,25.934421059958936 35.24321794667742,22.56234497528169 34.4117117422353,22.370783029145628 32.78838502223482,22.320200694047912 32.46580226667686,22.345884413276167 31.4839273511094,26.132250862392198 31.390866231122004,26.88879748290458 29.488865875558645,25.806907935045842 29.335293182237024,25.77449690002652 28.250235475577597,17.326788063735535 28.390628151136866,17.06801999395941 25.564133288898688,17.807418191885176 24.790808488883727,17.880549874905796 24.297103955562875,11.489011056422555 24.312686960016094,11.243789062827659 22.315513768909682,9.059514960441106 22.100846960012518,8.389104516994507 15.71268895111973,11.431351454775381 15.293695457781382,11.714937393924288 13.491601093359009,14.948251891931818 13.418419226690844,15.150832487684625 15.038614782220634,17.79519218015014 15.097378728889112,17.874941620444247 11.312529093330909,17.779825537690726 10.811979688885572,17.591275362494002 10.064068293351397,19.251863040924604 9.726776346687643,20.01658012963128 11.032035013347581,20.195588339490882 11.062618480012702,21.206592412832492 8.052549999999997,19.016097423481938" stroke="#009edd" stroke-width="4.89887040266361px" fill="none" stroke-linejoin="round" vector-effect="non-scaling-stroke"></polygon>
</svg>