<svg viewBox="0 0 421.22505903996284 318.02368461062656" width="1000" xmlns="http://www.w3.org/2000/svg">
  <title>Bělčice, okres Strakonice, Jihočeský kraj, Jihozápad, 38743, Česko</title>
  <desc>Geojson of Bělčice, okres Strakonice, Jihočeský kraj, Jihozápad, 38743, Česko</desc>
  <metadata>
    <collboard>
      <support-module name="@collboard/map-svg-geojson" version="0.11.0"></support-module>
    </collboard>
  </metadata>
  <polygon points="8.05255000000011,51.90673969392765 11.976554408880247,61.505418841995834 12.02024507555302,64.63280617263035 36.81498968005303,80.14795409786848 36.9778102311318,80.15916893017811 23.266805217812134,82.16123161107635 22.927474373347422,82.61565198846029 25.967762231106235,99.18004544443784 26.091261182307562,100.3552548234943 36.07807376897085,104.4787545912327 36.307595404425,104.61556033712213 38.882140755631326,129.94602921224532 38.6802898755775,130.60710471778975 51.90312450667966,144.04884044666642 53.653663884477055,145.7579251517086 43.796466942272446,149.47965658401472 41.768054924417584,152.15196343578964 46.35295348449267,156.7103711733139 46.25159113782115,159.17900205372234 33.19332468449261,180.57846912448395 32.68214388445608,181.53308525452258 39.86401567116968,187.10466049999332 40.20422032892361,187.6888920106353 31.510068933341017,205.47380506722357 31.358899226622952,206.597783608398 45.69701094224706,196.7023603942721 46.290621466679795,195.58864340655373 63.51814260447986,211.87731223137916 64.60312749338459,212.58611156125653 66.04870601776179,198.82531170655375 66.6300831555634,197.74478361468164 127.3944798133814,177.37964530909767 128.7130641334004,177.2558883628003 127.55380511118688,161.1090439873874 127.19845435556613,159.91891325827555 137.8962597244897,162.00993368079753 139.4271806844988,162.28123124622607 154.9720286134177,175.64345452600492 156.35877037337173,175.70084948212707 177.70894281773485,227.10456205128094 177.80156703116495,227.91148805877992 140.455367706694,232.1818704265529 139.30834207122803,232.38987349285844 130.92031661337364,245.3730886349581 129.3276461778221,249.7699852519795 166.61093094220973,270.9078372575236 167.33007931555744,271.25071275982873 182.2178196178063,268.1271643857249 183.52475309334818,267.16620154985094 189.9589319377917,309.87120295936575 189.98194235561073,309.97113461062645 243.67660660445813,295.00149380535686 243.8583597778122,295.0427240103377 225.78207462232217,258.49045302611876 225.41332539552945,255.71186406378501 242.46287988450035,254.39449849961193 243.2839731466736,254.03456362771203 256.74798025782343,216.97425027300005 257.08498093332287,214.8604408275928 284.47902893342666,212.52603631150077 287.39989563564427,209.48145492355206 324.8646423022508,226.90596814020637 326.0081726844435,227.35246796804813 344.6058331288875,215.91174414571242 344.6425332888973,215.6257184109777 367.4213905333088,220.8019195889715 367.5145972888929,220.77815937394143 380.4709188533959,214.34039126951347 380.7866567377712,214.00684159421462 374.51646352894727,202.91288791064972 374.5170460711013,201.14058303784213 383.8056818044058,192.44473871615583 384.7692066400557,190.17645436074918 381.54512671111274,172.66696740387806 382.27097432010464,171.1109991980843 405.46139764445957,164.30048176370428 406.2440431200446,165.21167200609443 404.90536109332584,160.49110954619346 402.5166467111337,156.70498993129104 412.42685499563936,148.15223581626879 413.17250903996296,148.0176994795106 386.5841169333796,143.2245644515856 384.49220781340387,141.84284132664425 376.421667866736,114.79815384772473 375.83766928895034,113.94057719529474 355.6875338222378,121.07603317002167 352.9743434223126,121.71874655326928 313.9772194400209,115.20361779267068 313.37021044453263,115.24891847451318 313.8717792978057,105.27671214935935 313.5816732712335,104.69091559676554 287.4197020712088,83.76717502889323 286.70987437337294,83.524938506343 283.8915351022513,94.97077059266257 283.76046310223296,95.38165391892062 261.076560239984,98.61935172908807 259.11484930673737,97.93126644383983 289.0709180000483,68.24286204475311 289.1256769689278,67.96382169324306 260.15818242668297,67.6681820912413 253.96634114671156,68.17870971238108 250.40409545784473,79.60650131168177 249.35872343995266,80.75893732745999 234.8796365067608,71.49038113220695 231.2297182132968,72.54102558762634 224.7259255733586,52.90678059406446 223.3953991378437,48.39915778794193 230.9498066756421,30.664327687445166 231.8556598310604,28.673012527207447 209.06049140447408,19.282448153862333 207.87152272891376,18.835973525222926 168.59361339556176,21.556537991658388 165.3721549067193,23.09651598710434 180.05309271996498,34.42121444227041 179.18044447116677,35.53889041816683 163.3058776444302,41.57630619480142 162.49993048000738,41.73423874160608 150.2152800977708,68.24017033892551 150.49664799110155,69.58691638746632 118.6481908889034,78.6527875211682 116.7444429066743,82.54926091599145 112.13915536888067,80.3341202400984 110.72736429339398,79.58003423983564 116.8152217867098,66.09172990112666 113.48919696894131,65.3254821165824 106.9958900889394,65.12315277619155 105.70555906670756,65.22588765310456 101.77805940443773,80.37135344956869 101.40581492448814,83.39753993161821 93.7978135022347,79.06998174018327 93.18352272894822,78.94033760010598 88.84329190231051,45.149502254942036 89.40486260454759,44.11442997583754 78.09888315559488,47.0720227675406 75.00558395553503,47.36454949962308 73.03076582225162,21.798394225690117 73.0930978400645,20.817506251310533 65.10440507563885,12.080409841764322 64.2457378400502,9.398768067977926 38.693105804479046,21.56775581910142 37.01713183112565,22.702099575697048 29.80875437343616,35.63535756772717 29.5160269067635,36.445679950738395 35.99680912888266,47.02311872060045 36.23186491555657,47.342116481776884 21.09246637332376,46.9616521507628 19.09026875554241,46.207451449975906 16.098623173405713,52.849802163698314 14.749455386750697,55.908670518525014 19.97049005339045,56.624703357963426 20.092823920050932,60.668719651329866 8.05255000000011,51.90673969392765" stroke="#009edd" stroke-width="5.323647862769228px" fill="none" stroke-linejoin="round" vector-effect="non-scaling-stroke"></polygon>
</svg>