<svg width="390.08608085336164" height="549.2242366345017" xmlns="http://www.w3.org/2000/svg"><polygon points="5,264.68684309645323 21.231373937800527,279.67199888575124 24.040683804429136,281.3634505061782 18.928584533394314,292.4107601995929 19.054413653328083,292.58521540026413 35.60385564446915,290.29745203704806 35.93910869339015,290.3943725468707 52.15970560000278,316.9913432774483 52.64379818667658,317.90904420794686 60.188885048846714,311.2046904535382 64.08317980449647,311.01176933880197 59.98499527107924,305.5801587551832 60.51103089773096,304.389243197802 78.48333226668183,287.51558969687903 79.30879459553398,286.37461469415575 71.24116735998541,288.194491792412 71.17592263105325,287.7216046989779 84.31399736891035,264.40506418136647 84.8674124799436,264.0430340981693 90.30748302221764,242.93830419052392 90.77118663105648,241.80431082722498 112.25650887109805,243.47215827432228 113.38139790226705,243.27647204702953 116.63169223116711,241.99909658677643 117.50987463106867,241.30472063209163 113.50314922665711,235.2572440726217 113.29226894222666,234.249014442903 151.5105339733418,229.67224276991328 151.7706390755484,229.64428584073903 162.7008787911618,219.47223546612076 163.17099036439322,219.43976783950347 158.6399769600248,243.8373786449083 158.52754631114658,244.0659792330698 174.97766485332977,258.30051660950994 175.46903921768535,258.7788776368252 176.8901509689167,269.67224103509216 176.8607325865887,269.7610556487343 152.17958371562418,281.03165292565245 151.76539619558025,281.430621422478 146.07628885330632,275.8206517774961 145.28461397334468,275.578108860238 146.24056576006114,285.8313985055429 146.09988181339577,287.6043970629689 137.03377720888238,306.57408596383175 136.35103772440925,307.55583820020547 91.5838330311235,348.0400388711714 89.70717326225713,349.4709246220882 102.62417322664987,356.7707749422407 102.72378794674296,356.90867568395333 96.9560374043649,363.5102339904988 95.92552021332085,364.53679468209157 81.32759466662537,360.1686960000661 81.28972942219116,360.13985445187427 71.17941788444296,372.204753211583 70.56134058674797,372.6224815946189 48.31900472892448,379.4209326748387 48.30356736003887,379.49393140053144 63.13450979546178,379.50069054058986 63.413256248808466,379.6921994215227 73.11054535117,418.2262328382931 73.25326819554903,418.6600923734368 70.85989347554278,431.00603152957046 74.60156216891482,444.7477507452131 74.5712699732976,445.0847057424253 85.95938787551131,455.54086411424214 92.11074247118086,454.84941809851443 90.62525980442297,478.8681163023575 90.4807893333491,484.29227278614417 96.27999715553597,493.1580897466629 102.2006650310941,489.7131421279046 114.62541681772564,507.6687000361853 118.22931427555159,511.47048297332367 116.04827619553544,536.8500375423464 116.13449244445655,544.2242366345017 129.8854016000405,530.8336921471055 132.49897727998905,527.9166439474211 151.95093589334283,522.6813500152784 153.09155356441624,522.622358805791 154.79927608883008,520.8391055773245 155.90872775111347,519.9988100035698 151.62733368878253,515.1951934554963 150.06349909328856,513.4249393729842 155.46366549329832,512.826445246872 158.07840625778772,512.6224434889737 156.92613774212077,507.54125224769814 159.56185002671555,505.89568296785 150.85342634667177,500.09150729473913 148.171984497807,496.93805680208607 152.7845538132824,487.4864403665415 153.80953685333952,485.41194823017577 177.31569806218613,486.39154694619356 179.11225827550516,485.649304275692 187.3010542934062,470.5498843060923 187.70300842670258,469.8918170411489 197.4300071822945,465.59608907578513 198.63179178663995,464.85692888876656 222.95613354665693,424.43128844961757 223.31206684443168,423.91499561077217 210.74867000884842,419.57060891162837 209.64271359995473,418.9272557089571 212.76164465781767,391.6965426171082 212.70164280897006,390.9683973309002 220.0827440355206,380.82637916866224 220.37081116449554,379.5133076015045 219.92895288893487,365.1009954336914 219.97380864003208,363.6206413198379 207.19894897774793,361.70630552707007 206.6912634311011,361.5350599833182 189.19140380446333,373.12222248484613 188.43701162666548,372.9063742152066 190.2073574400274,369.883124185435 191.15515363554005,368.5677337597008 184.61495210661087,366.5177998501458 184.03619640890975,366.25552949582925 192.3566469688667,363.75628453382524 192.82413710211404,363.3669297003071 198.082454471034,347.26758201094344 198.4290670932969,346.0818509152741 188.52847075555474,332.0220422533457 188.0764179910766,331.66643401340116 176.8263625955442,334.1655950107379 176.0405131377047,333.48368069541175 181.7438927644398,323.41336601797957 182.38993208890315,322.95587976113893 182.76887580449693,300.3463024465018 183.87308458657935,297.97432493645465 211.604715804453,296.79869446728844 212.69144831993617,296.7441501088324 214.72073415119667,285.9071332916501 214.50781496893615,285.3702271882794 231.84922311105765,277.7691001720377 232.99333603552077,276.83725531579694 217.28945408004802,274.6719517146121 216.327676871093,274.2107568596257 196.78775438223965,259.16345930605894 195.9366601955844,258.99123172537657 197.34116949338932,251.27646919264225 196.75833600002807,249.35799348849105 192.73792085330933,248.63433376786998 190.3227008000249,248.82370289810933 205.8675487289438,192.98742140183458 204.85276017780416,192.01913543371484 233.80860387557186,181.07544692786178 234.53241258661728,181.08627137017902 239.89063594664913,158.89774510008283 240.76415800885297,157.48455637309235 261.3319762488827,164.44621547480347 262.01180302223656,164.843141539488 286.59013319108635,186.71581077517476 287.15549041784834,187.36029854620574 294.7614529421553,182.28191792749567 296.65529770660214,180.5238506787573 302.3601336888969,171.7071421322762 304.2793190400116,170.4288973484654 294.2327958755195,145.763262889639 293.1323736177292,143.6237263143994 300.79746417782735,147.4404139603139 302.3155692089349,147.2090057694586 306.74347263993695,132.5043848058558 306.8628937955946,131.98559770645807 317.85575679992326,131.5164326604572 317.8272122311173,132.01852944592247 323.493600426591,122.23036645981483 343.0367268976988,119.7923928964301 336.8914889956359,88.69817503995728 336.70507548446767,88.34984132071259 346.1687651555985,78.90897388343001 346.528776248917,78.57100284966873 339.7322561421897,75.1777266493882 338.61523143108934,73.12864963826723 339.17126798222307,56.940220545220654 339.1904918755172,56.09678649122361 352.6978983822046,60.05038368451642 353.9838603377575,60.0436146602151 359.68898759118747,45.56374029960716 359.75597994669806,45.48837348644156 358.99663615995087,38.7368457026314 359.068288853392,38.235888468276244 352.0911806577351,34.88982573343674 351.6528176354477,34.83747257775394 349.88363690662663,41.277267905534245 349.86557809775695,41.38422765227733 312.7244336354779,5.069061435991898 312.6053037510719,5 292.79566421336494,27.55845652980497 291.6244630755391,28.308123340772 233.92045198229607,42.58334662945708 233.60384028451517,42.60365532472497 215.80426268442534,69.51282340311445 214.40761770668905,70.96403453155654 195.2626588443527,43.17951887665549 194.82924743101466,41.996198867156636 180.42006556445267,40.05512497242307 178.73855743999593,40.121918780496344 154.73548771545757,56.31520418304717 154.18789802666288,56.633804804761894 140.2226133333752,55.93387563264696 138.8224731022492,56.32061949494528 113.95811470213812,75.57165623106994 112.68613376002759,76.56031256885035 84.63905592879746,81.63347962667467 83.3586281244643,81.68898013589205 82.93861518218182,89.89342473301804 82.58646840881556,90.53188121452695 71.64923818665557,101.96377174509689 70.34055708441883,103.18150784290629 43.67468686227221,109.15684368886286 43.031268977792934,109.59312162589049 95.17054549336899,160.78724489285378 97.10283804452047,162.75701637670863 86.60863118222915,230.3873978421907 86.47348138666712,231.67521217354806 73.19617905770428,244.68189205409726 69.9738467555726,246.81773442047415 64.16124046221375,238.97538882150548 64.0922092088731,238.15430020558415 52.28844743105583,238.14257678732974 51.70503139554057,237.37514242361067 31.20041898661293,261.4754436413641 30.614672782248817,262.2824682984501 23.206483342219144,263.8027323545539 22.53277326223906,264.32075585931307 22.17421852448024,256.69274699449306 21.621094684349373,255.2215778430691 5,264.68684309645323" stroke="red" stroke-width="3.7916604665981746" fill="none" stroke-linejoin="round" vector-effect="non-scaling-stroke"></polygon><polygon points="232.99945272889454,397.173775627336 257.39195192884654,391.409970875422 258.24217230221257,391.409970875422 261.5553811910795,384.59612147905864 261.7779123199871,384.44967680977425 290.92191715561785,391.3468889950891 292.059622115572,391.4248401731602 308.630618168856,384.15588597761234 308.7666417778237,384.09595620416803 312.81560149334837,396.80745953536825 313.18871978658717,397.85504082374973 319.55794517335016,399.7591477719834 320.3793297066586,399.8334914125735 333.90683391992934,379.0000630033319 334.3443231289275,378.39534306380665 368.3342054398963,360.6508900690824 369.36210119118914,360.23584271449363 368.39100330660585,348.1810998352594 369.10578261339106,346.6618729727925 384.74471111106686,333.78700437786756 385.08608085336164,332.91894766659243 378.22868508438114,320.26097331248457 378.2115000889171,319.52673062554095 383.7771084799897,310.62637735001044 383.94313301332295,309.8619018745376 378.53743246220984,303.82173043640796 378.48412984889,303.47283782507293 384.1793538844213,291.32886437448906 383.9408028444741,290.9177425574162 364.2727210667217,283.17841042677173 363.754841031041,282.9696862944402 349.98849450668786,268.71421308693243 349.7977119288407,268.62990642659133 315.8759870576905,275.5564693302731 314.55507256882265,276.0564320877893 268.6283175821882,325.15721372154076 267.73382399999537,326.4016517191776 246.09674951108173,367.42763219808694 245.96829895104747,367.9431571185705 237.10200632887427,374.72192640346475 236.7982105599949,375.06079175992636 232.99945272889454,397.173775627336" stroke="red" stroke-width="3.3065316374363287" fill="none" stroke-linejoin="round" vector-effect="non-scaling-stroke"></polygon><polygon points="48.30356736003887,379.49393140053144 63.13450979546178,379.50069054058986 63.413256248808466,379.6921994215227 73.25326819554903,418.6600923734368 70.85989347554278,431.00603152957046 88.72442453331314,422.0151536168414 88.90850787551608,420.9640838356572 97.6408157866681,425.73958526569186 99.11989048891701,431.03801725717494 112.09776611556299,425.5647857306758 112.23932387551758,425.47152922063833 113.30479359999299,431.9755123530631 113.3426588444272,432.68775365903275 157.7801446400117,426.9658811687841 159.27232654218096,426.7672054806608 167.1261607821798,419.4426592657692 168.15289144893177,419.24262516235467 217.23236494220328,430.2081888372195 217.47470250667538,430.4775905912393 222.95613354665693,424.43128844961757 223.31206684443168,423.91499561077217 210.74867000884842,419.57060891162837 209.64271359995473,418.9272557089571 209.6977638399694,407.3875747186248 209.3995022221934,406.7351746191853 219.42476259556133,383.0122608515085 219.81360952893738,382.0168785600108 219.92895288893487,365.1009954336914 219.97380864003208,363.6206413198379 207.19894897774793,361.70630552707007 206.6912634311011,361.5350599833182 189.19140380446333,373.12222248484613 188.43701162666548,372.9063742152066 190.2073574400274,369.883124185435 191.15515363554005,368.5677337597008 184.61495210661087,366.5177998501458 184.03619640890975,366.25552949582925 192.3566469688667,363.75628453382524 192.82413710211404,363.3669297003071 198.082454471034,347.26758201094344 198.4290670932969,346.0818509152741 188.52847075555474,332.0220422533457 188.0764179910766,331.66643401340116 176.8263625955442,334.1655950107379 176.0405131377047,333.48368069541175 181.7438927644398,323.41336601797957 182.38993208890315,322.95587976113893 182.76887580449693,300.3463024465018 183.87308458657935,297.97432493645465 211.604715804453,296.79869446728844 212.69144831993617,296.7441501088324 214.72073415119667,285.9071332916501 214.50781496893615,285.3702271882794 231.84922311105765,277.7691001720377 232.99333603552077,276.83725531579694 217.28945408004802,274.6719517146121 216.327676871093,274.2107568596257 196.78775438223965,259.16345930605894 195.9366601955844,258.99123172537657 195.07420643558726,246.43042573228013 195.39489592891186,245.0967079103575 192.73792085330933,248.63433376786998 190.3227008000249,248.82370289810933 189.52782193780877,259.94253944192315 189.52228778670542,260.36408916820074 176.8901509689167,269.67224103509216 176.8607325865887,269.7610556487343 152.17958371562418,281.03165292565245 151.76539619558025,281.430621422478 146.07628885330632,275.8206517774961 145.28461397334468,275.578108860238 146.24056576006114,285.8313985055429 146.09988181339577,287.6043970629689 137.03377720888238,306.57408596383175 136.35103772440925,307.55583820020547 91.5838330311235,348.0400388711714 89.70717326225713,349.4709246220882 102.62417322664987,356.7707749422407 102.72378794674296,356.90867568395333 96.9560374043649,363.5102339904988 95.92552021332085,364.53679468209157 81.32759466662537,360.1686960000661 81.28972942219116,360.13985445187427 71.17941788444296,372.204753211583 70.56134058674797,372.6224815946189 48.30356736003887,379.49393140053144" stroke="red" stroke-width="3.848582311501411" fill="none" stroke-linejoin="round" vector-effect="non-scaling-stroke"></polygon><polygon points="105.24124415998813,414.4967173554469 105.24124415998813,414.4967173554469" stroke="red" stroke-width="3.0588867181633317" fill="none" stroke-linejoin="round" vector-effect="non-scaling-stroke"></polygon></svg>