<svg width="274.4534886399051" height="395.1002776809037" xmlns="http://www.w3.org/2000/svg"><polygon points="5,369.51747981470544 5.1007798044011,369.8934557947796 6.791317333350889,370.98451962904073 7.53697137767449,371.7972848729114 8.282625422114506,372.20781309041195 9.049833528813906,372.5413954878459 10.579006862128153,373.002143805963 12.271292017656378,373.5370713667362 13.03442232881207,374.81656109937467 13.152387128793634,375.7408114677528 13.014324622112326,376.6143764652079 13.88668160000816,377.78281018481357 13.837456782232039,378.0210113916546 12.888495502178557,378.6886183992028 12.700916906702332,379.8229466097546 11.892930844333023,381.228639121633 11.90487295994535,381.8156086321105 11.592921599978581,383.3793170876452 11.584183466620743,384.70666353031993 11.818074168870226,385.2549229504075 11.629039217717946,385.92941833939403 11.720789617742412,387.0319188912399 11.50932679104153,387.8202056293958 11.201453226618469,389.34977774473373 12.635380906634964,389.58059476234484 13.662694115424529,390.1002776809037 13.715996728860773,389.76810461247806 16.25442446221132,389.48430585698225 18.049528319970705,389.40690613142215 18.231572764459997,389.61745174822863 19.397822293220088,388.7651323361788 20.35435662220698,387.8229699260555 22.53510343108792,386.95405756647233 25.280333653325215,386.235797036381 27.219034168869257,386.25284365785774 28.86325959104579,385.79903449106496 29.354925226652995,384.43207257351605 29.498813155456446,383.7336148036993 29.54308636439964,383.1521792335552 29.732121315435506,382.7753049432067 31.254595413221978,381.2424610280432 31.59363498655148,381.0789017456118 33.05144689779263,380.7849554553395 34.113130097743124,380.02566913771443 34.98461326211691,379.22030669578817 35.794346951064654,378.85586537909694 37.25215886218939,378.8710696437047 39.01434908434749,379.2046417214442 39.701166364364326,379.4939828290371 40.972273493302055,379.91325030487496 42.05871473765001,380.520034865709 43.07321201777086,380.67806579585886 43.64555975107942,380.8987560259411 44.05625201773364,381.1318857521401 44.624813226633705,381.09733096673153 44.96589169767685,380.88032678788295 45.543191039934754,380.33435989310965 46.15922943991609,380.03119793115184 49.351852088817395,380.49146949575515 50.013620053301565,380.32145939272596 50.32003726216499,380.31086255260743 50.90228821337223,380.61724924168084 51.53026872884948,380.8932272546226 52.62224412441719,380.83840026526013 53.98917944880668,380.38457969063893 55.20319744001608,380.42512410564814 56.1431293154601,380.677605064353 57.0111172265606,381.02960357134 57.89425123552792,381.57096140889917 59.028169671073556,382.8573143192334 59.95965468441136,383.2369528216659 60.64530688000377,383.29454355547205 62.06292337772902,383.1706082773162 63.08761514665093,383.3479877427453 63.73103303113021,383.4009711910039 64.50202766212169,383.5700574129005 65.75827996432781,383.6096797781065 66.15178723551799,383.5626858092146 66.48674901330378,383.37194547744 100.53838079993147,383.42769327311544 102.94602780439891,383.4318398027681 107.20412017777562,383.3622702388093 120.28481450665276,383.4590226064902 120.50996707554441,383.480215976364 122.74809429328889,383.46547276276397 130.29492878215387,380.43249581672717 131.33068885328248,380.9222533022985 132.2779025065247,381.5723435973632 133.67338239995297,381.7875041629886 134.8777884443989,381.8796499496675 135.64033621328417,381.83403779019136 136.36560128000565,381.96580622467445 136.446283377707,382.6255686423974 137.00319374212995,382.8061736446107 137.41009948437568,382.9969144774368 137.65010687988251,382.73383951646974 138.76713159109931,381.8662888130639 139.91503103997093,381.10608484619297 140.782436408801,379.7584439472994 141.80334165331442,378.38268970290665 142.26296746660955,377.0958493297221 142.67686371551827,375.5532894056523 142.76948792883195,374.63088120991597 142.70162175991572,374.28347969660535 142.14267249777913,373.7508577206172 140.26193493325263,373.31268761632964 138.60052451549564,372.87451662053354 136.3868640710134,371.59639760362916 135.4332424532622,370.79791493096855 134.42457059549633,370.1279796950985 134.03018951101694,370.1491743767983 132.24294997320976,370.6527778317686 132.15760753769428,370.3772474506404 131.84274346660823,370.20077881065663 131.28408547549043,370.37079690233804 130.68930986663327,370.47677017073147 129.88802304002456,370.5159341915278 127.91757397330366,370.3597388191847 125.33603811543435,369.9680980069097 123.93589788442478,369.32350175461033 122.08982158219442,369.35621540644206 120.00286407105159,369.50734319828916 116.80121201765724,368.4628083971911 115.65389511105604,368.19787265115883 113.71024298667908,367.59796476591146 113.81014897767454,367.24778734787833 112.87225599994417,366.83218130492605 111.71794858656358,366.28203193936497 110.25285489764065,365.73326345847454 108.89261880889535,365.1586907632882 109.07582833769266,364.2196504523745 108.21832618664484,363.32530059909914 107.45403079106472,363.2663222196279 106.35419107542839,361.65546898543835 105.2182337421691,359.2631269606063 104.97269219555892,357.4038828643388 104.89171882660594,356.7071805706946 104.82996935106348,355.8054269674467 104.81627960887272,355.2580141494982 104.89987441780977,353.65723838016856 105.9965101510752,353.536511573242 105.70086997328326,352.2992882949766 105.73145343991928,350.46763184457086 106.8458567110356,347.89545301697217 109.93566065770574,342.94638763030525 111.20239871996455,340.8068262935267 111.94659640884493,338.32992225675844 111.8563023643801,337.2437620504061 112.60370403551497,337.6091954339063 115.37514865770936,338.610101853963 116.35265450668521,338.8704657909693 117.44521244440693,339.21884607110405 120.14180039102212,340.391630041413 121.5154349510558,340.42020073044114 122.93800305773038,340.7307915237034 125.88566670217551,340.7773340223357 128.6043912533205,341.1897646355792 130.72892273776233,342.07038199400995 131.7410898488015,342.80998719728086 132.82607473770622,343.00030264246743 133.21346531552263,343.06804199767066 134.5463219198864,343.50627363764215 135.82849735103082,344.038509603939 137.30815459555015,344.90805592393735 139.99483932438307,346.75312297360506 141.422941582161,348.4419629481854 142.89560831990093,349.3313058243366 144.01874972437508,350.90446604276076 145.58549703110475,353.2019781587878 146.37134648882784,353.89777021395275 148.07120469328947,354.8234927150188 147.0736011377303,353.61945366160944 146.41678478219546,351.7638471904793 146.45261112879962,349.15481993951835 146.51261297776364,348.03645824157866 146.84174933331087,346.65497170295566 147.3613769954536,345.57115751487436 147.42953443550505,344.29978859680705 147.32933717337437,342.0031031391118 146.7281535998918,339.7870365093113 146.8056317154551,339.7750552179059 145.8371552709723,337.4368473580689 145.44889087998308,335.2695815730258 145.1817952709971,332.97326064517256 148.37995207111817,331.6455953316763 151.2603320889175,329.9133046793286 151.4216962843202,329.80777228984516 152.24919751111884,329.2275736440206 153.27854961773846,328.7238733138656 153.74225322669372,328.3602682261262 153.96303672890645,328.3321567806415 154.23566648876294,328.43169893184677 155.14530616882257,328.0773102300009 155.5076474311063,327.7132432059152 155.63143765321,327.7676228764467 155.98911857779603,327.577754814527 156.14378353778739,327.6938877266366 156.28417621320114,327.6528725386597 156.39311160892248,326.9072242756956 157.59868273767643,326.22839638695586 157.8322821689071,326.1892243118491 157.9624803555198,326.05050902359653 158.28083967987914,325.9601827414008 158.6140538310865,325.68966451648157 159.11533141334075,325.3974860179587 159.42233116435818,325.35739209211897 159.67398940434214,325.5431144674658 160.8084903821582,325.30439436261076 161.0435461688321,325.04170977155445 161.3260791465873,324.8380137804197 162.2762055110652,323.892345705186 162.84418417769484,323.6135295199347 162.90651619550772,323.2231862541521 163.11390122654848,323.1582057835185 163.46750435547438,322.8462070802925 165.27600668440573,322.2355731551652 165.6922331021633,322.21575632708846 167.96152632881422,321.3032585469773 168.42348231107462,321.08895926520927 169.25477006216533,320.6119697758113 170.31033656885847,320.2308382842457 172.21612344880123,319.8755143635208 172.79662677331362,319.7340298376512 172.81672448001336,319.82481959299184 173.4738321066834,319.6533790076501 173.44965660443995,319.5598240069812 174.7664932977641,319.1892905018758 175.48389404441696,318.8708339574514 175.78302947548218,318.779122072272 176.10546659550164,318.65468879870605 176.31925959105138,318.5422379267402 176.53334385773633,318.3551269193413 176.65771662211046,318.23299772595055 176.782089386601,318.04404298821464 176.95015281776432,318.3288576269988 179.05720803549048,317.03704969974933 180.27821653336287,316.42455582669936 180.707841422176,316.1531038840767 181.3597061688779,315.6908513166709 181.68651235557627,315.47792906255927 184.1355198577512,313.8307701384765 186.11965866666287,312.39790675911354 187.9165101510007,311.4729236307903 189.67957418668084,310.0700019260403 190.76455907546915,309.3408846054808 192.1032411021879,308.8735476794536 193.27036444435362,308.31449339713436 193.7684380443534,308.3656517636264 195.35091399110388,309.92989360599313 196.60221468436066,311.48721089423634 199.07131989323534,313.89575342368335 200.31271736882627,315.0926406389335 201.3936244621873,316.2300690705888 201.81014215108007,316.6374771448318 202.25549567991402,317.0421192429494 202.20044543989934,317.0743799697375 202.9367788088275,317.6195855216938 204.07098851550836,318.4343956418452 205.24015075550415,319.3183320934186 205.41433087992482,319.4413823962095 205.87861703103408,319.80177651147824 206.20804465771653,320.0792150487541 206.79786865774076,320.60183085728204 208.09810289763846,321.785776794306 208.18431914655957,321.8931565436069 209.11551288887858,322.50517400726676 209.43882382218726,323.007506318565 209.6677629154874,323.9780643276172 210.86168319988064,324.6633512273547 211.7535553422058,325.0195889492752 213.47991921775974,325.45140542369336 214.80316387547646,325.12973218777915 215.39939584000967,325.0228149026516 216.48671089764684,324.8103627260425 217.27925959113054,324.7352440104005 218.02025329775643,324.5191047375556 218.4099740444217,324.12369373691035 219.42563640885055,323.86008599970955 220.15905706665944,321.1608532416867 220.33236337767448,320.63777792977635 221.2638483910123,317.6642895505647 221.84289535996504,315.5917641466367 222.2888314310694,312.60944942751667 222.74117546668276,311.0438444081228 222.95205575111322,309.543212605 224.59977642656304,308.1868278711336 227.04499740432948,307.15536138636526 228.88029667548835,306.57648437609896 232.7265316977864,305.48048526479397 237.70493752881885,303.85952092846856 239.85189688880928,304.01576453913003 245.14516679104418,304.649955730245 246.2380159999011,303.73047007317655 246.52287914662156,303.6037236220436 247.62621411553118,302.8579920826014 248.8600385421887,302.06755070306826 249.93162495992146,301.26512298797024 251.48322616890073,300.18015853106044 252.7045259377919,299.4491641027271 253.10211100440938,298.95000317762606 254.76206506660674,297.9028215581784 256.07657159108203,297.1483129831031 256.4377477688249,296.97270614875015 257.14961436437443,296.2711992029799 255.63121806213167,293.7877909402596 254.0379650844261,291.6919896338368 252.86210360890254,290.5424475517939 250.7337855999358,289.60907386499457 248.59469055989757,288.65172786067706 247.34251605323516,287.9308347526239 245.90713201777544,287.0011372001609 247.06639103987254,285.4288928892929 246.69647672888823,285.33808863098966 245.62838556442875,284.4558564318577 243.75784248881973,282.9661019006744 243.50793187553063,281.0845345729613 243.19831068441272,280.32996706455015 243.0034503111383,279.21032598020975 242.21352305775508,275.20787263812963 242.15934663102962,274.9336029860424 242.1139083377784,274.41456399922026 242.14128782215994,273.7212808430195 241.82409358222503,273.4908005760517 241.8383658665698,273.02661256922875 241.21038535109255,272.80719465279253 241.00270904880017,272.41998601937667 240.81891697773244,272.1867385779042 240.53638399997726,271.92952075082576 240.17200383997988,271.2708020110149 240.13122588442639,270.8158285486279 240.08112725324463,270.35808832012117 239.99578481772915,269.97502399713267 240.2882210132666,269.6233048911672 240.2322969599627,269.43753427959746 240.0537477688631,269.33750388387125 239.96316245326307,268.8613216856029 240.09598207997624,268.5810513224569 240.04733980447054,268.01774366677273 239.57984967099037,267.0695211504353 238.97080177778844,266.3176703823847 238.6833171909675,265.85392788844183 238.66729727992788,264.8273293711245 238.410687431111,264.3262442579726 238.91138247109484,263.78827945748344 239.05614421330392,263.97451592440484 239.21401315554976,263.91551032848656 238.8473028265871,262.7584442049265 238.19922460441012,262.30206980078947 237.81795071996748,261.77977346244734 237.22434019553475,261.7511923376005 236.91763171553612,261.14776092988905 236.4481026843423,260.9781175710377 237.0099646577146,260.5042218277813 236.94821518217213,260.26312466314994 236.4958711466752,259.24018741899636 236.45625827542972,258.988486027054 236.23430968879256,258.8395856146235 236.190910293255,258.61369934340473 235.98731178662274,258.17759987170575 236.24537799099926,257.5658605407807 235.68293347547296,257.20305726793595 235.35845745773986,257.0555386086926 235.32962161768228,256.81351558922324 235.42777998221572,256.46684595232364 234.48347903997637,255.00317477603676 234.42056447989307,254.83029957063263 234.40716600883752,254.61731712665642 233.60267519997433,253.96407745114993 232.77925176883582,253.09692983777495 232.74808575992938,252.4764169616392 232.0927257599542,252.15279066585936 231.92291470209602,251.71299004834145 231.78310456883628,251.749409630429 231.34328519110568,251.5788368509384 230.4051009422401,250.6171726520406 229.61400860431604,249.72281187190674 229.30234851548448,249.31205008307006 228.87126727111172,248.76390546525363 228.98428046214394,248.57949989743065 228.78708991990425,248.00461452594027 228.3239688532194,247.80084564571735 228.2298882844625,247.27390395943075 228.32571648003068,247.14989037427586 227.675308088772,246.21125735342503 227.6604532621568,245.4952933639288 227.36364799994044,245.39709592796862 227.2054877865594,245.11679501913022 227.339472497697,244.835110679036 227.52734236442484,244.77609983773436 227.55792583106086,244.57278892456088 227.57714972447138,244.23301492910832 227.54627498670015,244.05321571865352 227.54481863114052,243.75816027866676 227.56928540440276,243.5954185895389 227.3881147733191,243.29114201350603 227.16587491554674,242.65308185783215 227.1119897599565,242.21879416739102 227.38345443550497,241.98966326005757 227.5148177066585,241.50696616439382 226.95907242654357,241.1847064695321 226.97625742224045,240.90532213752158 226.77877560886554,240.81542116147466 226.76479459553957,240.36868190875975 226.42517247993965,240.2511187933851 226.38497706665657,240.0076937858248 225.94777912879363,239.73983375297394 225.50912483548746,239.6328740598401 224.96182641771156,239.42587001994252 224.9329905777704,239.17322339431848 224.60443676437717,239.0293806574773 224.51909432886168,238.92195957654621 224.11131477321032,238.81085016182624 223.76557596435305,238.4807488238439 223.04992284439504,238.18245849228697 222.72952462220564,237.40376663726056 222.4714584177127,237.35443556046812 222.44291384890676,237.32723430765327 222.31533710216172,237.48122101544868 222.1277585066855,237.369649818982 222.0092111644335,237.4300458043581 221.39928945770953,237.8034862538916 218.8987269687932,239.27096263505518 217.6282023821259,239.7905473819701 215.72620202659164,240.52451056661084 209.61999445327092,229.0809469227679 209.25619683554396,228.68536062166095 209.14260110224131,228.55165413179202 202.96736227546353,217.4039292508969 197.41748252441175,213.24171191389905 197.04873329773545,212.99548982293345 196.72950015985407,212.75111181370448 195.13071303104516,211.97693889267975 193.7655253332341,210.87354170461185 192.4682038044557,209.9656439977698 191.14175516436808,209.30166356568225 190.59241784876212,209.0724976216443 189.02887452440336,208.46292424516287 188.7737210310297,208.43018614058383 188.42128298664466,208.3398105019587 186.90929464879446,207.8611878651427 186.46947527106386,207.57991587696597 185.5735253333114,206.97725482232636 184.27591253328137,206.6844540835591 183.67968056886457,206.34139255376067 182.59586076438427,206.07948499632766 182.6453768532956,205.27854388672858 182.44090453337412,204.1926345146494 182.1505072354339,203.32436418393627 181.06260963552631,201.1077920200769 179.98257635557093,200.25564836384729 179.21915477328002,199.76916873588925 177.73338083550334,198.75424419075716 177.22045240888838,198.57302362995688 175.91148003551643,197.62080621696077 175.72623160877265,197.43128447630443 174.45891100435983,196.4781397614861 173.80821134219877,195.3013437546906 172.97954503097571,194.23844057822134 172.85604608000722,194.18402717250865 172.71099306666292,193.97651829535607 174.10123008000664,193.65003725711722 175.73700863996055,193.576717294869 178.05814812448807,193.84878495370504 180.57968213327695,195.36682395235403 180.55259391991422,195.74172075657407 181.12756309332326,196.21990921371616 181.6058302577585,196.57220938400133 182.47585706668906,196.97523269371595 182.4443997866474,196.4477054629824 183.28879473777488,196.65060070471372 184.00736056885216,196.76080963091226 184.93418524437584,196.08111016638577 184.9883616709849,196.10324423969723 186.5277294932166,195.24877513101092 187.15541873779148,194.9499637625995 188.59604565333575,194.2347515342408 190.19745422212873,193.67678289755713 191.09660814213566,193.635281040275 192.50373887992464,194.329744397779 192.8858865777729,193.76993148121983 192.9753068088321,193.52829843817744 193.08569855988026,193.12526867492124 193.27007317333482,192.5202614812879 193.30473443551455,190.46728232316673 193.4745454932563,189.25171760027297 193.49114794656634,187.73086861055344 193.48823523544706,187.5731571544311 193.49435192882083,187.47354985948186 193.4328937244136,186.2579682310461 193.28201528883073,184.72049665846862 193.0685135644162,183.05804128479213 193.01666730665602,181.96187436539913 192.95520910213236,181.53299811540637 192.6254902043147,179.54078755690716 192.34033578657545,177.48537877423223 192.0921727999812,175.43779026798438 192.047317048884,174.5721709811478 192.01236451556906,173.57326874579303 192.03479239111766,173.4238480683416 192.0254717154894,172.5379288959084 192.01294705772307,172.39311927271774 192.05809407995548,170.39160048915073 192.0289669688791,169.47015770536382 192.129455502145,166.79527642781613 192.9455971554853,162.1861012870213 193.5304695465602,158.70540301885922 193.91494741325732,156.58476450270973 193.8470812443411,155.93399455712643 193.81882794655394,154.23026859853417 193.78474922664464,152.65244214079576 193.71484416001476,151.48832073016092 193.62425884441473,150.55572764086537 193.2362857243279,149.49629329913296 191.3066146132769,145.16210555483121 191.01709112885874,144.28160490188748 190.3192055466352,143.04548475902993 190.01278833777178,142.25030521320878 189.46345102216583,140.96066903101746 189.02130147558637,139.7872594387154 188.51041194656864,138.2259321179008 188.25059811549727,137.1668983361451 187.93340387544595,135.6364561645314 187.6861147021409,134.68211525690276 187.57077134214342,134.20886391878594 190.05997425771784,130.985561042442 191.36807281780057,129.09943598369136 194.42671075544786,125.3469712374499 194.69380636443384,125.0443725817604 196.308904675534,123.45295496645849 196.50376504892483,123.27305484353565 198.10342599102296,122.28913689538604 198.9918028799584,121.45928417751566 201.0327395555796,119.66118209646083 201.49149155558553,119.13531051098835 203.10746367985848,117.70622492244001 204.20439068437554,116.47687159269117 205.18859576887917,115.83705152769107 206.25639566220343,114.96150519844377 208.17820245330222,113.33126350154635 208.54316515557002,113.10891492199153 209.7531053510029,111.86708004178945 211.3548051910475,110.10303481703158 217.3334360177396,103.58323068672325 217.51897571550217,103.32950191677082 218.47114097769372,102.1305141011253 219.34320668445434,100.90614642918808 220.12934741331264,99.94980617170222 223.30274616880342,96.4694852490793 223.4314879999729,96.31355226784945 226.05991850665305,93.67743737233104 229.60730936890468,92.01381726766704 231.47319210658316,90.12827333074529 233.11654371547047,87.58343177975621 235.70973041770048,81.56630274059717 236.21828977775294,80.69846032484202 237.66445084440056,78.70439341233578 238.62593678210396,77.22382599348202 241.41631402657367,73.00583703588927 242.43285020440817,71.96032403287245 243.32326599105727,71.27330941299442 245.10642773332074,70.38927662803326 246.07548671995755,70.00124230142683 255.3457723732572,70.20656376233092 257.9640083910199,70.98632213252131 259.40813055995386,71.39188764698338 260.26825415110216,71.86804550082888 261.8116997688776,73.18116528575774 262.8634797510458,73.99136450071819 263.39417571551166,74.36370446084766 265.70308181329165,75.75155330763664 267.23429404443596,76.41225479985587 268.3953006932279,76.78366780671058 269.4534886399051,76.649405539094 269.4275655109668,76.42471214092802 266.3762093510013,69.10105533676688 264.8266470399685,65.79787674982799 263.2319377065869,63.07187416672241 262.05636750219855,60.973825302615296 261.5518859378062,60.03668712452054 259.6099814400077,55.651785972178914 258.17838392884005,51.625793096493 255.96472348447423,46.84110830316786 254.66565432888456,44.13424654142 253.48396743112244,39.7882455366198 253.19386140443385,38.23080716188997 252.45374151109718,35.88701420859434 251.98945535998791,34.124191896175034 251.56041301321238,31.82096433173865 251.47973091551103,31.601300386944786 251.0352511999663,30.58096765296068 249.24772039114032,31.98848101287149 249.17082481773105,32.05724126577843 246.94318335992284,33.0438792523928 245.0044828443788,33.77947076607961 242.42527715547476,34.01389965356793 240.3694856533548,34.64334918232635 237.65629525331315,35.74903465848183 235.6357475555269,31.94048726640176 234.88106410659384,30.746639375691302 234.0156976354774,29.543093706830405 232.34059747552965,27.315962685097475 231.95757596439216,26.91308301972458 227.93104412429966,22.55196619417984 226.78984391107224,21.256074443925172 224.64900124445558,17.66325681807939 222.5530143288197,13.009349650354125 221.37860920885578,9.344396128552034 219.88293205329683,8.323496308061294 216.69060067541432,7.13320961385034 215.33502492436673,6.593678501318209 213.31360341329128,5.761533337004948 210.5692470044596,5.040153643290978 208.9934702933533,5.647534275660291 206.99069013330154,6.135837522451766 205.2462674487615,5.845532606705092 202.35015879105777,5.485997040872462 199.79804131551646,5.330459645774681 197.4681636977475,5 194.1223324444145,5.046153612318449 191.01097443548497,5.190614354913123 190.79426872881595,5.206768105970696 188.39885511109605,5.334151929535437 186.1246102754958,6.039838483964559 184.43582037324086,8.41857126983814 183.23316195548978,9.429778579506092 180.43783310218714,10.807892801123671 179.5646023111185,11.166496427496895 177.9698929777369,11.816319751378614 177.5676475733053,11.936315320897847 176.06789262220263,12.399682199698873 172.14126677322201,11.875856023048982 169.93430556438398,11.375104697071947 168.57727345766034,11.07419181894511 166.14836366218515,11.178034500801004 163.81324316444807,12.111231819726527 160.31595093326177,13.728856553963851 158.36589084437583,15.26755022117868 155.31103943113703,17.465269362786785 151.82947583997156,20.072781854541972 148.07382613327354,22.91285773506388 147.0954464711249,23.720015780767426 146.4893112888094,24.221661365008913 145.1407260444248,25.30663323274348 141.04195896885358,28.46414251846727 136.97639679990243,30.344227615976706 133.75493831105996,31.811273280065507 131.46001322660595,32.670544830616564 128.76692053326406,33.420443352661096 126.62433023995254,34.339238532818854 125.38701056002174,35.09420742694056 123.81123384891544,35.87547746027121 122.54274815996177,36.59029321587877 120.87988138652872,37.49246206751559 118.94380231108516,38.65212419605814 115.451170417713,38.9262336306856 112.29932572436519,39.03698481840547 112.20495388435666,39.0443682288751 111.68794766208157,42.02493805345148 111.39988053333946,43.598961287294514 110.8356883910019,45.875298765837215 110.67869326216169,46.55870290513849 110.9251086221775,48.386025391402654 112.40214442659635,50.791053454740904 114.38482687994838,52.54727914498653 115.1866962488275,53.349711703369394 114.63415495108347,54.75661469914485 113.08721407991834,57.61838112422265 112.21573091554455,58.751633799634874 110.69849969772622,61.30373757466441 107.4977214577375,68.21101541968528 106.13865045330022,70.3583630984649 105.39823928882834,71.99908100441098 103.1542866488453,75.87105184234679 99.54689393774606,81.58014389907476 98.74648092442658,82.4853537317831 97.69528348441236,83.55342261807527 93.4613666132791,86.01849614351522 92.51357041776646,89.20694820256904 92.32133148435969,90.29897409805562 91.92695039999671,90.70035104476847 92.00734122667927,93.56625295779668 92.54968803550582,98.31391472078394 92.50337592884898,99.43034508998971 92.24618353776168,102.20340389362536 92.07433358218987,104.82419072440825 91.87306524440646,106.92550264915917 90.96808590216096,111.76144071132876 88.54354517336469,113.5019458651077 86.61999075545464,114.74746171833249 85.88132721779402,115.07452376041329 72.11235925322399,118.5430115024792 70.46347349334974,118.75197699299315 68.73186673771124,118.85069351177663 66.0029476977652,119.11962660192512 63.5227741865674,119.39455613738392 60.22500266658608,119.72899175994098 59.6517811199883,119.5703078879742 58.94807011540979,119.28984308394138 58.26445681776386,118.92726797645446 57.65570019558072,118.98446816124488 56.44488618662581,119.75344013684662 55.2824231821578,119.97808829974383 55.324948764406145,120.1990459150984 53.52372821327299,120.7009279228514 52.961283697746694,120.85084649408236 52.26368938665837,121.00168753578328 51.29346531548072,121.25724061892834 53.710432995459996,123.61855520302197 55.99254215101246,125.53471134812571 57.6181262221653,126.71235012460966 58.89447623107117,127.429170572781 60.01004458661191,128.01590985775692 66.60209237330128,132.50404345442075 67.43163249769714,133.3329310650006 72.63693852431607,140.2604985110811 74.93856284441426,143.6593945681234 76.49890218663495,146.2141814964125 76.80706702219322,147.17031619721092 76.9145460621221,148.50096451269928 77.14843676437158,149.51981584221357 77.18775836436544,150.3398746586172 77.48368981329259,151.3956150697777 77.5326233599335,152.4107629363425 77.40096881776117,153.31567489926238 76.75696839101147,155.02448145701783 75.92014648881741,156.91453023720533 74.73845959105529,159.8542656598729 74.29368860437535,160.863839209429 74.25349319109228,161.00404457229888 74.14426652435213,161.2148136466276 74.0976631466765,161.38084603240713 73.4425944177201,162.87144216045272 72.91422862210311,164.04195874062134 71.11242552881595,168.4477113209432 70.667654542136,170.3985182129545 69.96976896002889,172.15146223234478 66.03090972441714,178.49394730426138 65.04845226660836,180.36949404975167 66.77102961775381,180.83342072123196 67.99378574220464,181.19220229238272 70.07986943994183,182.08869244763628 71.20796245336533,182.54108652519062 72.39430968882516,182.79379962256644 74.14717923547141,183.34949070005678 75.84965887991711,183.95360136427917 78.53605233773123,185.13922125822864 80.94806840887759,185.70597385196015 78.19992547552101,198.02428868581774 78.6834355200408,202.90336939599365 79.10257464880124,204.98666305246297 79.83657784888055,209.17578371113632 80.15697607106995,210.9606886167312 80.61135900439695,212.9710520345252 81.45342378655914,217.00878257444128 81.86149461334571,219.1246762170922 82.2675265421858,221.54301251808647 82.57773027545772,223.61736551951617 83.20075918221846,228.54658250464126 78.6691632354632,233.855127535644 76.84988387557678,236.23088264814578 75.79489991103765,237.4429548677872 74.67700138653163,238.66424097085837 73.42599196441006,239.91272107564146 70.27880760887638,242.8610048474511 69.99161429330707,243.15191228536423 69.90598058665637,243.2178389559267 69.71199402667116,243.61478162981803 69.50693916436285,243.89692859066417 69.28440803545527,244.1560240035178 68.5920566044515,246.248138885363 68.17087857774459,248.0396516895853 67.7575648711063,249.66472439374775 67.60056974226609,250.4226264479803 67.59678321774118,251.04452826967463 67.58484110212885,251.15148229373153 67.55134492437355,251.32343843660783 67.5195963733131,252.15878374991007 67.5720251732273,252.82539804896805 67.58629745768849,253.3670782726258 67.69960191997234,255.05849481234327 67.68736853334121,256.9495095098391 67.56386958213989,258.9543726289412 67.52047018660232,259.147528149595 67.33784319995902,260.10823226964567 67.20094577770215,262.05452085565776 67.3293963377364,262.62383690546267 68.57312398217618,262.6768500642502 68.48749027552549,262.9806382616516 68.26758058660198,263.64445316488855 69.10731519991532,263.8352995707537 70.42619079106953,264.36312268686015 70.7078499555355,264.3912424846203 71.00203377776779,264.5576562950155 71.24378879996948,264.73144564940594 71.45845560880844,264.8245634951163 71.69001614209265,265.0711872978136 71.77623239101376,265.08363372518215 71.90264405333437,265.13295844907407 72.21605176886078,265.2320688412292 72.97306538652629,265.52986072166823 73.81542143994011,265.93229398631956 74.53223964443896,266.39327045576647 74.82875363552012,266.5366339365719 75.07079992885701,266.703046088689 75.75557831104379,267.0460114481393 75.93587512883823,267.22164269094355 77.15076693322044,268.1163917587255 77.95117994653992,268.7271791723906 79.2502491021296,270.13820671621943 80.02677788445726,271.1961255816277 82.20053418667521,270.9707132395124 83.23192519100849,272.496044913074 83.46552462212276,272.7569497622899 84.13311800884549,273.4460873756325 83.5561099377228,274.00108355574775 83.02046236442402,274.50352902989835 82.54860316438135,275.38764583400916 82.46529962669592,275.5199403720326 81.79624988441356,277.0203483462683 81.36691626661923,277.70578470046166 80.87670698657166,279.0125789671438 80.06406058662105,280.2967789398972 80.99671068438329,280.56735419563483 81.79683242656756,280.8614373076707 82.80230030219536,281.36801526887575 83.66999694216065,282.19264235836454 84.99673685326707,284.4623095540446 86.11347029323224,285.82714055501856 87.5724472887814,288.15484655229375 86.60513592883945,288.207853425527 85.39781717327423,288.31340620387346 84.37312540435232,288.34521030593896 83.09619285329245,288.4198807880748 81.90547655103728,288.51483210443985 80.69320618663915,288.7651161989197 81.07739278208464,291.14533566398313 81.12836522667203,292.47970357956365 81.08846108440775,293.79700928670354 80.85806563554797,295.1253688825527 80.83825919998344,296.5339188918588 80.85398783988785,296.6809495954076 81.12079217773862,298.58219965023454 81.47934691549744,299.533048835292 81.61740942217875,300.83464071829803 82.46384327113628,303.31658502225764 82.82006783992983,304.7518132982659 82.89142926211935,306.1238899608725 83.08599836437497,307.6203976025572 83.10813496890478,308.91272290446796 82.84366079990286,310.94567686109804 82.67122830217704,311.022183028399 82.43034709326457,310.32763507933123 81.77003548434004,307.29316706955433 81.44585073774215,307.60334475606214 80.95360255998094,307.73008885304444 79.61200782214291,309.25377750385087 79.18995598214678,309.51602047035703 78.59954943996854,309.6865473598009 77.75690211553592,310.2580418965081 77.29028579546139,310.9194066647906 76.38064611551818,316.4489818760194 75.95917681779247,316.8674503668444 75.2458538665669,317.20019675814547 74.77865500433836,317.6080638632411 71.20213703101035,322.4254459271906 68.781965368893,324.17346579092555 68.27049329772126,324.5333911355119 67.71387420443352,325.0688999458216 65.41894911997952,326.5459203568753 61.965056284330785,329.3510791261215 59.15195989329368,331.05249818536686 56.38371925323736,332.5847776813898 56.24274403543677,332.73593127843924 54.66172444447875,334.0751106481184 52.37349859555252,336.21980795532 51.5462886398891,337.15620540996315 49.21145941328723,339.1064059365308 48.647558542201295,339.71883530309424 47.908603733289056,340.99714350886643 47.29635185771622,341.9178525052848 47.28994389332365,342.5316563160741 47.16032824886497,343.9375922360341 46.77672419557348,345.0168065680191 46.665458631003276,345.9550089969416 46.18515256885439,347.5894805781427 45.497752746683545,348.91612600605004 45.030553884455,349.2939811453689 44.386844728840515,349.46908452169737 42.922333582188,349.65755089139566 42.22794325335417,350.0902395611629 41.57986503106076,351.0127528641606 40.597698844387196,351.63712900620885 38.70764060434885,353.4360594454338 37.63721927104052,354.0931445324095 35.79201678209938,354.32492091157474 34.54217244440224,354.7405510902172 32.91047167999204,355.0257779881358 31.35916174214799,355.3188378646737 26.18589553772472,355.93721132702194 25.041491342242807,356.23994642088655 24.917409848887473,356.38739714957774 24.26117603550665,357.51124485593755 23.55921265773941,358.4346479306696 22.3516026311554,359.74924637615914 21.92110392882023,360.4417918570107 21.37089279992506,361.14769753377186 20.85534293332603,361.9305497528985 19.20674844435416,362.58991277508903 17.26397013326641,362.9179808363551 15.131865600007586,362.84748310694704 15.083223324385472,362.6456659499672 14.320675555500202,363.04469238361344 12.995683271088637,363.16956078080693 10.990281671052799,363.95655255549354 9.085659875534475,364.8310868802946 7.957275591092184,365.28217564179795 7.4513376710237935,365.84062129817903 6.706848711008206,367.40628877608106 5,369.51747981470544" stroke="red" stroke-width="3.305921584558277px" fill="none" stroke-linejoin="round" vector-effect="non-scaling-stroke"></polygon></svg>