<svg width="2364.774015999981" height="1991.6484020047355" xmlns="http://www.w3.org/2000/svg"><polygon points="5,1139.5796598755987 13.373753173393197,1148.9926253702724 18.77129813330248,1153.5693263809662 22.114507946767844,1167.6301001200918 22.00790272001177,1170.165149269742 34.16439381334931,1175.2210284570465 36.23037980450317,1176.3078861223767 39.35513628448825,1190.2656510693487 40.33642865775619,1193.3418410638114 56.39303992886562,1205.9610162645113 58.76223914662842,1207.1223488362739 73.25909361778758,1228.233256433974 75.338478079997,1231.0612264591036 85.33228117332328,1237.735181234195 85.93433856009506,1239.0906106297625 86.60397084453143,1238.3351915539242 89.925626595621,1234.5306836582022 117.25530367996544,1241.9069633659674 117.6747340799775,1242.1007822202519 123.60326627560426,1269.2456714427099 123.84094350226223,1269.8261730326922 165.9861256533768,1275.4095055240905 166.55410432012286,1275.5061796369846 188.40002019552048,1290.0452223049942 189.2132491377415,1290.5135528488318 205.80579925340135,1285.8006282524439 206.27532828447875,1285.687626303872 261.8684976355871,1295.7383950725198 262.11986460443586,1295.731774162443 268.09791288897395,1305.4722436503507 268.1250011023367,1306.7875362319173 280.3379987911321,1311.4541138188797 281.21822008886375,1312.3875941159204 276.7504125155974,1318.3992897889693 278.0789000533987,1323.5197615227662 289.4556583822705,1337.3067576673348 291.47766243561637,1340.5565510872984 283.842281528865,1350.2072394025745 281.5112388266716,1354.06139596086 288.2372713244986,1356.7646492951317 288.52766862220597,1356.7094901939854 295.0101984711364,1349.1225563102635 296.3896584532922,1343.6399273717543 302.6659683556063,1349.4001262469683 305.49537592893466,1350.1922356855357 306.14753194665536,1356.7712683862774 306.31734300451353,1359.5967197748832 299.75820885330904,1367.5062922442448 299.66063303116243,1369.3926340489415 325.8325074489694,1381.5019051420968 326.4625268622767,1381.766639157955 326.1823240533704,1386.8331462118076 327.1537132089725,1390.6601951217744 334.88230087119155,1397.4348013062263 336.0727259023115,1398.1182066375623 324.40382264892105,1404.8992030909285 324.0956578133628,1406.8849326245254 348.7870011733612,1422.80145113467 350.1134498133324,1423.1534818678629 352.1354538666783,1434.4719873366412 352.0640924444888,1435.154396532802 365.73781475564465,1438.142944766034 365.79024355567526,1439.0026687619975 378.5767540622037,1432.9585047767032 378.8418107733596,1432.906452438794 397.3357787022833,1442.9179218171048 397.6523904000642,1443.3224116950296 414.95476821344346,1441.578733063303 415.23846627562307,1441.4944821175886 427.30000298668165,1451.3353058743523 427.5586517333286,1451.318103559548 423.4767783822026,1458.8861113447347 423.25016945786774,1459.1022355358582 426.6717312000692,1467.9909326854395 426.88232021336444,1468.138243978843 423.1927890488878,1475.912525090971 423.0622995911399,1476.300636610249 428.0316760177957,1486.6387077382533 428.1668258133577,1486.8256979848375 420.2990105600329,1508.1098049700377 419.9596797155682,1508.5538636506535 422.9390919111902,1514.1655953191803 422.8954012445174,1514.7458983219694 408.52787114679813,1541.1366188838729 408.46990819554776,1541.2609545680461 362.7683057778049,1533.4655899432255 362.6209225956118,1533.3624141666805 323.66894563566893,1542.648042272136 323.0089252977632,1542.4461082368507 320.6729309867369,1571.401047247462 319.13298062235117,1573.7291469349875 283.45023061335087,1599.74789266265 283.3241102222819,1599.7677282380173 305.4292573867133,1611.6921150748385 305.7423738312209,1611.9177876161411 319.8564980622614,1631.5900874866638 320.580015502288,1631.8994779523928 319.54250780446455,1638.3948154436657 319.4807583289221,1639.179725656053 339.823132728925,1647.2525493069552 340.4863570489688,1647.8492514666286 336.17117553774733,1659.1497124667512 336.1443785955198,1659.2277115475154 374.8933395912172,1647.093017143663 376.20231196447276,1646.7774780527689 392.44737564446405,1653.666352593631 392.77214293333236,1653.9210676354123 385.10443093336653,1670.460174894135 384.9518048710888,1670.9268232198083 385.4580340622924,1689.8726234262576 385.6022132623475,1690.5207627041382 371.8189730133163,1697.6572196529596 371.6919788089581,1697.7598786274903 379.69261368899606,1712.7268738419516 379.78494663117453,1712.8533164515393 375.9730816000374,1717.011784382048 375.3392756623216,1717.8162422410096 402.45312085340265,1732.6017124210484 402.72866332449485,1732.6959852533182 401.01132885331754,1739.0104119450552 400.567140408908,1740.6442748025293 409.7681035378482,1753.4834906514152 410.55104028445203,1756.2902497182367 429.3511341512203,1746.4219475598074 430.3533980444772,1745.9867331545101 453.18672298663296,1744.1639332060004 453.5347919644555,1743.770121878595 454.80677290668245,1754.4111522269086 454.7709465600783,1754.6305132305715 445.3733754311688,1769.6412517026765 445.30754816008266,1769.7896846533404 447.58645333338063,1797.0807250580983 447.614997902303,1797.1326922152657 453.6641163378954,1794.80869146419 454.18898688000627,1794.3955919544678 461.95223580440506,1775.7004949554102 462.99906417774037,1775.0380691850442 533.7057089422597,1775.5908248677151 535.3496430934174,1775.2098420143593 538.4679916088935,1783.872305947123 538.7758651733166,1784.2792590453755 531.5733131378656,1806.2892919894075 530.9546532977838,1808.6743852071231 559.5965067377547,1820.1798108838848 560.4994471822865,1820.423326497199 589.68306488893,1822.1437809323543 589.9685105778044,1822.2296491825255 599.3218084977707,1816.0981324808672 599.6835672179004,1815.9118592558661 602.2720935823163,1805.8013487939606 602.2581125688739,1805.4873559010448 612.0340448712232,1805.6089015895268 613.0508723200765,1805.4393541434547 631.4766828089487,1784.646132791473 631.773488071165,1784.3620589352795 665.1455843555741,1801.939161379123 665.818420622265,1802.0290009357268 701.3310683022719,1792.635726600769 702.4571224178653,1792.6414519110695 712.374903751188,1807.8601271212683 712.9318141156109,1808.2538250210346 726.5050478933845,1806.838446995418 726.8068047644338,1806.8833657892537 728.6231714134337,1821.5466654152842 728.8780336356722,1821.8954233455588 767.4819416177925,1813.638256474107 769.5310338845011,1813.6633573870058 768.7370288355742,1807.1361439301982 768.8421777067706,1806.6644966790918 781.1070216533262,1801.788988313754 781.8815115378238,1801.3490378995775 817.4093053155812,1806.4553157388 818.759638186777,1806.5152075649821 838.4620899555739,1817.908453503158 838.9919121067505,1818.5531373651465 848.0344237511745,1816.404183894978 848.8432836267166,1816.734454732854 858.3483337955549,1826.3953203922138 858.4473659733776,1826.6749371783226 912.1810605510836,1837.5828000257025 917.2404397511855,1839.6003349873936 942.3200475022895,1855.4898750020657 943.7828110222472,1856.6680721471785 951.3182859377703,1872.4626202874351 953.2636856888421,1872.9085936253541 975.1369810489705,1870.855700059561 975.588160000043,1870.8552598058013 978.8116573867155,1862.223037956399 979.195261440007,1861.8827083801152 997.5473803378409,1855.941606034874 997.7946695111459,1855.5365451122634 1041.1442577067064,1856.275780741009 1043.5038449778222,1856.5157346013002 1064.7750829511788,1887.1629804192344 1064.7797432888765,1887.9496547605959 1113.2120123733766,1914.476165044529 1113.567363128881,1915.0897576006828 1138.1885101511143,1919.6775628308533 1139.1747541333316,1918.8249768028036 1151.2735735466704,1929.91582279047 1152.6678883555578,1931.195297092083 1169.0367422578856,1935.3197580991546 1170.163961457787,1935.5974775700597 1196.4505966933211,1932.6384930254426 1197.2530486044707,1931.926359086472 1205.7412713244557,1975.6492715262575 1205.3544632889098,1976.6802980757202 1223.09724302229,1986.5652373103658 1223.1860807111952,1986.6484020047355 1233.074152391171,1976.4615958732902 1233.3604718933348,1976.289978300454 1250.3701222400414,1973.5524401057046 1250.7315896889195,1973.4283457909478 1257.223731484497,1963.0631459798897 1257.4678166755475,1962.6833640616387 1256.8340107378317,1951.7508239504532 1256.5538079289254,1951.01322562946 1265.9738069333835,1942.9597780288314 1266.5196489955997,1942.3436216164846 1280.8583432533778,1940.0673489967594 1281.1114578489214,1939.7183360749623 1276.8134613333968,1929.2226060879184 1276.3544180622557,1928.5593167204643 1280.9396078933496,1923.2850615816424 1281.248064000043,1923.0729091735557 1279.5371374933748,1912.0349830734776 1279.0265392356087,1911.462758399197 1294.9092616533162,1891.8455667274538 1294.9922739200993,1891.807268263714 1294.2265221689595,1886.3199547454715 1294.3672061156249,1886.1306587243453 1316.2885612088721,1881.6654270528816 1318.1757067377912,1880.8760890960693 1325.504961706698,1905.0387752138777 1325.8856530489866,1907.3347740493482 1333.438604231109,1908.4713199241087 1333.9570668089436,1908.5672789925593 1357.2255507911323,1909.5836502559832 1358.4698609778425,1909.8257475338178 1382.4219582577934,1898.6665500730742 1382.939547022339,1898.3055868477677 1398.8633386667352,1869.7009115911205 1398.9853812622605,1868.4637888181023 1391.8690454756143,1866.9070295357378 1391.5585504712071,1866.4491570861428 1393.0166536533507,1853.6714942211984 1392.774316088995,1853.2880033022375 1381.9815563377924,1848.4165984548745 1381.9355355022708,1848.311367184273 1377.5446235022973,1806.8349239524105 1377.5851101867156,1806.7627015579492 1393.8540580978151,1799.6975646194187 1394.1249402310932,1799.5949526751647 1404.675944960094,1809.318655447918 1405.5640305778943,1809.6004955682438 1428.9825191822601,1803.8204998145811 1429.0573758578394,1803.7901131543913 1438.5519402667414,1809.615468314616 1438.8321430756478,1809.6595057982486 1462.5014161067083,1807.515750982333 1462.6351095467107,1807.4919705131324 1489.5406958933454,1825.4912971028825 1489.8532297955826,1825.872193870775 1506.7717122845352,1824.573179092491 1509.1525623466587,1822.3551488730009 1520.9336049777921,1783.3380687693134 1520.9866163199767,1783.104201967013 1539.8551588978153,1773.3634973721346 1540.5885795556242,1773.5326288165525 1538.1815150933107,1769.3443855043733 1538.1686991644092,1768.7999829599867 1547.3070390045177,1739.3522510551265 1547.879678008845,1737.416624211648 1558.23960888898,1717.224133343785 1558.356117333402,1717.3029931762721 1555.6175863466924,1687.9370065767434 1555.437289528898,1687.2293764533242 1568.8101287822938,1665.6720156779047 1568.8311003022827,1665.607238659286 1580.7956437333487,1664.2830512525397 1580.9072005689377,1663.737510187435 1571.1050538666314,1634.8104597607162 1570.5720277333166,1633.8126649895567 1550.7620969244745,1608.5745488957036 1550.4280089600943,1607.9922868872527 1545.418437120039,1583.9626215423923 1545.1166802489897,1583.1254992184113 1572.965402453323,1581.0412757582963 1572.7781151288655,1577.43174948683 1588.3794696533587,1583.2374683690723 1589.9092255289434,1583.5729346600128 1616.6316023466643,1571.2167732145172 1617.3848294400377,1570.8676219963818 1620.8145467733266,1561.0312073073583 1621.1690237155417,1560.7988700929563 1628.8399396978784,1580.0317780995974 1628.9360591644654,1580.5374091592385 1643.3510664533824,1586.502181883261 1643.8048668445554,1586.796206523606 1637.6779790222645,1591.0910378717235 1637.49768220447,1591.1474612560123 1640.5283581155818,1600.299320998718 1640.710985102225,1600.5377879850566 1665.5899070578162,1623.3518570938613 1665.7754467555787,1623.5969105083495 1688.4363392000087,1629.3807097247336 1688.5362451911205,1629.4419714427786 1696.7133903645445,1651.570891653304 1696.9962146133184,1651.9913074821234 1694.3275886933552,1674.7234270325862 1694.6322582756402,1675.4425536017516 1717.8954993778607,1697.6550166701782 1718.5112465067068,1697.98678563477 1754.1634130488383,1687.117900269688 1754.4575968710706,1687.0377078816528 1767.9792756622192,1691.5064066465711 1768.5510408533737,1691.8403878231766 1785.5703031467274,1708.9705703640357 1785.874972728896,1709.5565332105616 1844.0365707378369,1710.268057448906 1844.558528568945,1710.1786214003805 1857.8521420800826,1724.602913576644 1858.3009908623062,1725.0289184311987 1858.9007180799963,1739.8315297476365 1858.9452825600747,1740.5438381760614 1864.7025473422837,1748.6169481279794 1864.8732322133146,1748.810766122071 1874.4642073600553,1748.0817452900228 1875.0956831289222,1748.2508959557745 1889.060385280056,1759.5757690560422 1889.6787538488861,1759.8255176366656 1894.9761015466647,1737.9531742592808 1895.3999010133557,1737.4699268604745 1904.4482380800182,1736.9408644662471 1904.801841208944,1736.7765509103192 1908.4255451023346,1727.660702825524 1908.5630250667455,1727.4184072710923 1918.9197519645095,1723.2169603905058 1919.4414185244823,1723.0301688367035 1928.8780199822504,1725.5425902112038 1929.2386136178393,1725.4544819284347 1929.0204515556106,1718.8035274553695 1929.3105575822992,1718.0955549683422 1944.1595588267082,1700.2822784592863 1944.5521922844928,1700.0430372228147 1971.0619411912048,1698.413282062742 1971.317094684462,1698.3449898177641 1987.696143075591,1683.966582035413 1988.061979591148,1683.5999828314525 1986.4550368711352,1678.6323277972988 1986.5488261688733,1678.3723534389865 1997.3360517689725,1663.1188174085692 1997.388771840022,1662.870722883381 2006.9756691911025,1661.9664754862897 2007.1903360000579,1661.7421757334378 2009.2685553777264,1650.9138250713586 2009.3329262933694,1650.7137520981487 2030.5068797155982,1650.7322610591073 2030.7040702578379,1650.6639541715267 2051.6514147556154,1677.7528200992383 2051.909189688973,1677.9136521776672 2062.974579200032,1705.5856134204078 2063.095747982268,1705.7684543996002 2066.233320391155,1735.05455516465 2066.1875908267684,1735.257635939517 2076.666942862328,1754.334067485528 2077.0016133689787,1754.6322751655243 2088.7867337955395,1760.1373726135353 2089.5853991822805,1760.5219050552696 2132.914307128871,1730.3373903344618 2133.2716967822053,1730.191574250639 2156.498237724416,1755.4225015598931 2156.8920362667413,1755.3912273244932 2166.4704867555993,1779.458754890249 2168.170636231196,1782.8659306408372 2184.2103537778603,1850.5467504619155 2185.032903395593,1853.936547260033 2240.0595504356315,1850.8135683958535 2240.5780130134663,1850.7915537269437 2254.5875709155807,1840.8257297684904 2255.727314773365,1840.1031747689121 2265.4021760000614,1839.9640353283612 2265.995495253359,1839.7544453739538 2266.4857045334065,1844.6220770891523 2266.80872419558,1844.636166868091 2272.7474508801242,1838.8478344529285 2273.644274631166,1838.8240573318908 2295.1424127999926,1851.061013124534 2295.9221455644583,1850.710099433083 2313.7409470578423,1831.7506913657417 2313.9436717511853,1831.51423345285 2309.0214812444756,1815.3200113784405 2308.935847537825,1814.5868047935655 2314.9235077688936,1803.08857649914 2315.093318826752,1802.7358255938161 2324.963914240012,1800.5871597493533 2325.264214755618,1800.3339337750804 2324.7163337955717,1789.275824885408 2325.5942249244545,1788.1496805286733 2350.8526731377933,1768.772674706648 2353.03429376008,1764.0134996845154 2335.1435483023524,1706.2059503976488 2332.5209432177944,1697.6290214713663 2355.936810382176,1605.1391369274352 2355.9979773155646,1605.140900046972 2347.629175751237,1597.5827187747927 2347.383925475646,1597.40816393547 2349.910411093384,1590.1208179063397 2350.0939118933165,1589.799467425095 2344.9841427911306,1582.1239458826021 2344.689376426628,1581.199532835919 2345.521537991124,1558.109560185927 2345.4297875910997,1557.8463587636943 2327.6275885511423,1554.0429091193364 2327.4135042844573,1553.7303241231712 2359.701198222232,1441.0547004844993 2359.774015999981,1440.835029894486 2318.5087638755795,1430.5389404203743 2316.9964842667105,1430.5892288082396 2301.13997624896,1419.7738755777245 2301.0362837334396,1419.7602000007755 2280.402346951072,1369.9463991867378 2279.360470186686,1367.0226801635 2280.364772977773,1348.205558092217 2281.07023160893,1346.058673060732 2275.0289774934063,1324.3997893397463 2274.5544968533795,1323.3516113776132 2280.1678737066686,1319.165911627293 2280.381375431083,1318.4257707255892 2274.0281699555926,1311.949322294793 2273.4497055289103,1310.7316017893609 2275.3342296178453,1304.5691892676987 2275.4026783289155,1303.7001173357712 2270.501168071176,1306.2309653887642 2269.302004906698,1305.3689619567012 2273.8510771200527,1299.4747638503322 2274.0045769956196,1299.376334622386 2273.684761315584,1277.1717046640697 2274.217204906745,1274.7168938681134 2281.4069410134107,1260.424067775486 2281.500730311149,1259.6629822108662 2267.598651448963,1243.4115936757298 2266.894940444501,1242.1970293333288 2270.459807573352,1234.7902947175317 2270.737680213293,1233.6789983069757 2269.2521975466516,1216.5306850242778 2269.4048236089293,1215.4453488931758 2284.443151075626,1194.3694362352835 2287.197701973375,1192.1119884204818 2309.616548124468,1183.3915416188538 2309.4129496178357,1182.9463908711332 2301.541056568967,1174.0922100683674 2299.75585592899,1173.1135428454727 2274.8061550933635,1182.9344671781873 2272.745703253313,1183.2996851884527 2273.852242204477,1189.8646745567676 2275.832885759999,1192.239610788878 2272.0658764800755,1196.3212798896711 2271.2290545778815,1197.8407915441785 2271.738196480088,1208.1021908711991 2271.15885824,1209.1376659250818 2254.8802983822534,1211.7221376041998 2253.2733556622406,1211.6594359307783 2261.5923498667544,1231.3098035231233 2263.3408503467217,1232.796844872646 2254.3906716444762,1244.8826601672336 2254.30416412442,1245.6221632012166 2241.917860124493,1244.4786917981692 2240.941228088923,1244.0499988782103 2227.009148302255,1230.3583214258542 2226.789529884467,1230.2046710342984 2216.6297022578074,1208.5592135051847 2216.565913884435,1208.4368993272074 2222.3866757689975,1187.7966311105993 2222.5672638578108,1187.651341833407 2212.7059891200624,1179.3259749562712 2212.25277127116,1179.1321012993576 2210.880593066686,1169.0738450744539 2211.035258026677,1168.724944584479 2201.360105528962,1157.1150785115315 2200.9750451199943,1156.979044222855 2205.6400432356168,1151.511103476514 2205.8188836978516,1151.150249983999 2202.252268942306,1142.2334047800978 2201.9808042667573,1141.642852108751 2191.9342811022652,1137.629525846627 2191.4688298667315,1137.641893681488 2158.6798583467025,1147.300520648365 2158.033819022239,1147.193631845992 2144.2296072533354,1103.823007692583 2143.6470650311094,1102.3664685020922 2127.7226908444427,1081.6743625644012 2127.2211219911696,1079.4109083671356 2108.955510613392,1073.061360946449 2107.86033123557,1072.2351243847515 2099.8419288177975,1039.6064832932898 2099.7580427378416,1039.2260040348629 2083.4855995733524,1033.6110972248134 2083.064421546762,1033.35080886574 2068.6092188444454,1005.3448260337464 2069.1119527822593,1005.0761070424924 2059.150772053399,1003.2635712674819 2058.767167999991,1003.0584943537833 2057.3562507377937,998.1374755321303 2056.953131520073,996.5445518597262 2063.1624490666436,989.5729453104432 2064.222967182286,988.0294648550916 2060.220610844437,980.7026482854853 2060.6790715733077,980.4776595606236 2051.6091804445023,986.4112740738783 2049.8373782755807,986.8798036209773 2023.234422613401,986.8148283560877 2021.5753423644928,988.3357749746647 2013.5082976710983,973.4821202693274 2012.7984699733788,973.2027538268594 1987.6812882488593,993.0713728590636 1986.5864001422888,994.3761418219656 1976.81512817787,991.3648189459345 1976.4886132621905,991.0885690206196 1974.4421424355824,987.3372819882934 1972.5302388622658,985.597091129981 1977.0560093866661,972.1741341627203 1977.0988262400497,971.5941797613632 1963.184513991233,961.9380698588211 1961.955641173292,961.8098729342455 1971.6264246045612,923.4973341677105 1975.3378011021996,921.5674071945832 1970.4919236267451,923.7259177623782 1969.8153008356458,923.831587855122 1970.3771628089016,920.9342636912479 1972.2267343645217,919.8638402922079 1966.3145133511862,913.0750868738978 1962.9031460977858,911.4833209506469 1953.0040061156033,914.0208557168953 1952.1153379555326,914.1955063712085 1948.6824166399892,907.9305466419319 1949.5262290489627,906.8410472639371 1962.2938069333322,901.9709549935651 1962.355265137856,901.841839053086 1946.445163235534,891.7873676462332 1946.2453512534266,891.1842086836696 1966.5976288710954,880.5172217738582 1967.4195959466742,880.2987647285336 1965.9812991999788,862.9108395517105 1965.0803976533934,862.3345797188813 1974.2749528178247,852.2964504609117 1974.3203911111923,851.8267520061345 1966.5670454044593,835.3672176575055 1966.1295561955776,834.9080988205969 1944.2355805867119,838.9335390283377 1943.4709939199965,839.0281919458648 1916.787356159999,864.4357317168615 1915.6546028089942,865.7067620121525 1907.2680337066995,866.2675343707087 1903.4448091023369,866.4776025153697 1906.2864500622964,878.5621562307933 1906.5509242311819,880.0568697329727 1901.896411875612,883.2766606629593 1901.3485309155658,883.5981507492834 1868.830150257796,892.6085279081017 1868.4817900089547,892.7747936976375 1779.2957408711081,898.1146893168334 1777.6253010489745,897.9192432673881 1773.5524571022252,912.4034514786908 1773.19798016001,912.8420707426849 1756.25677852449,918.5462529730285 1754.775082382257,919.2589890985982 1743.93338908453,932.5666607451858 1742.8221897955518,933.0171772704925 1717.4798555022571,919.0511816558428 1716.326130631147,916.7506960434257 1711.1094650311861,927.5406204324681 1707.70479701343,929.2587184517179 1685.5169288533507,923.4637319172616 1684.2035874132998,922.6882259343984 1680.0780233956175,910.3566974992864 1680.090839324519,910.274013370683 1694.2652566756587,891.4539500647224 1694.4041929956293,890.7260897833039 1687.4623286044225,884.6913019998465 1687.9991412622621,883.4177272093366 1700.9889590045204,886.4557216567337 1702.341913315584,886.6476401414257 1703.5632130844751,878.5068781714072 1702.525996657787,874.9243883206509 1683.6431817956036,872.9237232075538 1682.6219852800714,872.4350522622117 1684.6879712712253,858.6496656333329 1684.085331342183,857.3679804922431 1668.8090353778098,849.1894342039595 1667.886579768965,848.6870001553325 1662.3189324800624,836.0231632483192 1661.9382411378901,835.170831681753 1652.3763931023423,830.1965469256975 1648.8572555378778,826.3416870050132 1647.9557714489056,818.7264277043869 1648.5892861156026,817.1437161050271 1638.9152987023117,820.8824006790528 1638.781022720039,820.7421790281078 1657.0862469689455,816.7668362165568 1658.3579366400372,815.8710803900613 1659.4592327111168,806.4156593056396 1659.1548544000834,805.8335018416401 1650.1435087644495,804.7895074245171 1650.4971118933754,803.607045099372 1668.7787431821926,795.5251687372802 1668.657574400073,794.4293658985989 1653.753814186668,788.8896612282842 1653.0378697955748,788.1300534948823 1652.8465046755737,772.9515102152945 1652.3222166756168,772.4913772506407 1645.2425810489804,779.6538579922635 1643.7888469333993,779.9069230654859 1634.827308657812,770.8848863070598 1634.0682561423164,770.3911236012354 1643.438447786728,766.0954301494639 1644.8135387023212,765.0999181912048 1647.5724586666329,756.5405431551626 1647.2185642666882,754.6604893524782 1628.21021155559,745.861324747093 1627.7651492978912,744.5988996083033 1635.0865399467293,727.5118677754654 1635.7273363912245,727.3897306271829 1644.2245885155862,731.0038111845497 1646.0348384712124,733.050008704362 1651.4294707200024,747.1241851834347 1652.9210700800177,748.1228752558818 1661.7317299200222,743.8395826030173 1664.2989934934303,740.8611409654259 1651.632777955616,714.9088178853854 1651.481899520033,713.0368195116753 1644.200704284478,712.2189769620309 1643.7771960889222,710.93246203952 1658.5740598044358,698.5524168506381 1662.097275164444,694.7165116344113 1628.4554618311813,709.6937362810713 1627.3133878045483,710.3965225913562 1604.1666551466333,698.9750837816391 1603.820333795622,699.0605022362433 1604.0932548267301,674.0921273797285 1603.7725653334055,673.1471051024855 1579.6789102933835,676.9926787884906 1578.4092595201219,677.0665974264848 1574.3489402311388,662.6913929953007 1574.2845693156123,661.4652346682269 1582.6420113067143,658.3413775437512 1582.9889152001124,657.2913762861863 1558.9348730312195,657.819918856374 1558.8125391644426,657.7676843871595 1564.7605865244986,637.4462137905648 1564.8302003199933,636.5948892118176 1546.0507867023116,633.7686275335727 1545.3910576356575,633.3887794661568 1553.6914104889147,624.5591206378886 1554.0528779377928,624.3572350343456 1546.0336017066147,624.1407390842214 1545.5634901333833,622.5801025102264 1559.7932489955565,621.6534555085236 1560.9088173510972,621.0190122065833 1558.3319418311585,614.8453811509535 1557.6771643734537,612.9787359456532 1542.0396922311047,617.337168603437 1541.818908728892,617.43324442429 1535.2673476267373,609.7488181627123 1535.2131712000119,609.5509039178141 1541.4254014578182,602.3240349552361 1539.3404828445055,600.3098386281636 1500.916580408928,607.5301318019629 1500.7313319821842,607.4437925302191 1481.312578275567,583.8103620130569 1481.1576220444404,583.6713187468704 1467.7658501688857,583.761652598565 1466.5465892978245,584.1513276151381 1458.6286754134344,562.2979141257238 1457.9235080534127,561.5747294098837 1466.8585406579077,560.2372964653187 1467.0033024000004,559.857322321448 1452.8784011378884,545.8239512721775 1451.526029368979,544.9829039569013 1417.8411079111975,543.2675827110652 1416.5609713777667,543.2999139598105 1409.2934658845188,553.43309205072 1409.4245378844207,556.0500162789831 1404.5227363556623,552.7900387529517 1403.8134911999805,553.3702040005592 1405.303634204436,558.6970242825337 1405.4486872177804,559.6513920061989 1390.5781319112284,563.8040616113576 1389.6411127467873,564.1193725791527 1379.4422547911527,557.0814541438594 1377.723755235551,557.2643578239367 1377.3783076978289,539.8630315143382 1377.5009328355081,539.653096502996 1402.1957714488963,531.2874229922309 1402.341989546665,531.2590762509499 1404.58069930668,519.725194913568 1404.5323483023094,518.5155199524015 1409.2302600534167,517.5986253389856 1410.1640752356034,517.3386163690593 1408.9500572445104,509.76367253414355 1408.9191825067392,505.9027921895031 1389.5013026132947,492.2403344310587 1389.8074285511393,491.542171813664 1423.8421666134382,481.9151886495529 1425.0337567288661,481.2878763435874 1427.4862594844308,479.4604204100906 1427.6659737600712,479.0537263475708 1420.5423561956268,471.9980414294987 1420.4829368889332,471.02025799197145 1425.6882429156685,468.34650552703533 1426.0855367111508,467.966373724048 1339.489179022261,460.28473601595033 1337.0034713600762,460.11105650360696 1334.7306828800356,449.7560555683449 1334.3811575466534,449.14548928732984 1311.4869569422444,436.29263408179395 1310.0987588267308,435.21632260037586 1304.1827512889868,417.1096662286436 1304.3770291199908,416.45115000451915 1266.0189539556159,386.36825346801197 1265.9414758400526,386.1351260833908 1239.5796926578041,390.16207906842465 1238.5838367289398,389.68120640702546 1231.3943918934092,374.1898999635596 1231.8144048355753,370.8944447673857 1218.6798253511079,373.49890003982 1217.5925102933543,374.37428444076795 1220.5028912355192,386.8792713821167 1220.6298854399938,387.8175379767781 1199.513894968899,385.6998952140566 1194.3493668978335,384.8684334559366 1192.8959240533877,381.44150161358994 1192.5830988800153,377.98659358767327 1198.8002807466546,372.52245452057105 1200.049251271179,371.3718123307917 1194.141399324406,363.4882454848848 1195.442798648961,362.46920328435954 1149.7184770845342,304.0022798557766 1148.5624220445752,304.461170071736 1141.9397907911334,273.88902145717293 1141.7038611911703,271.6430220498005 1146.421288106707,266.66848456824664 1146.8794575645588,266.1824656400131 1144.6025912889745,260.2556982289534 1144.200928426697,258.87431511626346 1134.0256634311518,265.83613215753576 1133.3583613155643,266.6192618969362 1130.2880725333234,276.8045740555972 1129.7803869866766,277.66881184931844 1139.7232176356483,283.44390892784577 1140.3523632356664,284.09528288734145 1139.4567045689328,293.34334474161733 1138.6635733334115,294.12903751502745 1110.073857422336,291.6850449698977 1109.4846159644658,291.41013845964335 1100.4997760000406,282.63290354487253 1100.0922877156409,281.8786525692558 1093.0580903822556,248.28815529413987 1092.8268211199902,247.46282952849288 1084.9330827378435,234.29844531131675 1083.5046892089304,231.9992655745591 1025.1942516622366,233.67353559017647 1024.5927768178517,233.12623918266036 1039.9733478400158,229.75106691924157 1040.6214260621928,227.22519802022725 1033.8263623111416,214.64731659844983 1033.4911092622206,214.06715022440767 1036.9837411555927,183.98823039059062 1035.9709915022831,180.99603943392867 940.8564101689262,144.55815441696905 938.9380986312171,143.3881349361618 919.5609966934426,149.62239946471527 917.6345295645297,150.0079588428489 912.7155430400744,143.35352675715694 909.8899219911546,140.8359890623251 896.4136814933736,138.616148395231 895.5567618844798,137.95325341937132 887.4396185600199,125.52027684159111 886.8739700622391,124.97537523251958 886.6307586844778,111.84230796556221 886.1405494044302,110.4759733468527 865.7116674844874,83.97877317649545 865.6228297955822,82.15513497730717 874.0731872711331,47.8831188948825 875.0192358400673,43.73318803473376 872.4065339734079,25.641527188767213 872.328182044439,24.05935205798596 880.5927085512085,20.39686619513668 884.182042453438,19.090342923009302 889.51609031111,8.043852921575308 891.0944884622004,5 875.1727357156342,8.476275535533205 871.6538894221885,10.149130416102707 857.8770571377827,23.892432809399907 855.8891318044625,25.390262197353877 850.2507056355244,21.015275640180334 849.0049390933709,21.777519504190423 839.928057457786,29.255982451781165 839.8007719822926,29.620443404244725 844.681601991062,36.52511147648329 841.9602560000494,38.592385936994106 836.7852421689313,30.677421161788516 834.6647884800332,31.591008114104625 841.3643153066514,44.08164495253004 841.7187922489829,46.827555032796226 833.0153201777721,38.362443114980124 832.436564480071,38.28831091866596 832.9888145066798,46.29222509317333 831.2548775823088,48.011401964584365 822.0574097067583,46.20300331059843 820.6604734578868,46.35126237233635 811.4129069511546,86.7650183235528 811.3820322133834,87.282054219977 836.7622317511123,116.19331082643475 836.0058006756008,117.33108063077088 816.6511266133748,108.35168123058975 815.244287146721,107.93942330474965 807.6584223289974,115.5809362004511 806.0724511289736,118.25185339176096 800.6830617600353,115.3195670938585 798.3284260978689,113.11588930909056 789.4373754310654,124.90970296098385 788.3180205512326,126.74985037813894 780.756331235636,125.75190399202984 780.0150462577585,127.97675472765695 788.0884989155456,151.54752756707603 788.9157088710926,153.39943263900932 798.4434781867312,151.18060538824648 798.5908613689244,151.56838044163305 786.8648689778056,167.44350286165718 786.6306870045373,168.3094987978111 808.8721490489552,183.0570844207541 809.0812817066908,184.51923469884787 795.3024105244549,200.17907451407518 794.2698544355808,201.97290757211158 798.0989044622984,202.95764654001687 803.5092653511092,210.0072736979928 800.051003448898,210.16917340119835 796.3160339911701,210.1891336304252 796.5408952889265,219.71306249185 796.4753592889756,220.42139719508123 786.1602841600543,229.24900010286365 785.5643434667727,229.8011848339811 777.4131214222871,227.89980077091604 775.9171529955929,227.80444284738041 766.3818106311373,245.9385631583864 766.3037499733036,247.83801830216544 796.8886729956139,260.6264307204401 797.2964525511488,261.28629754204303 789.6441779200686,271.8079807285685 788.0203414756106,274.3235853447113 775.5982111289632,263.08096569991903 773.4521255822619,260.82997855870053 758.5125390222529,262.8211011350504 757.8775679999962,263.1062426122953 753.9535635911161,271.6505604867125 752.3958456888795,273.1218810833525 763.5701705956599,279.98126323515316 764.5654439822538,281.1332673927536 766.9917323378613,273.86330234329216 768.9735409778077,270.64218140917365 771.9809152000817,281.5420988354599 771.7950842310674,282.3695146073587 748.6614587733056,277.13049275800586 748.4036838400643,276.9225256414502 753.955311217811,282.35887262347387 754.8742715733824,283.98797702998854 745.3986397866393,287.00493675947655 744.9757141333539,287.38094531942625 748.2545530311763,288.37461580953095 750.1402422045358,289.0401641430217 753.5393760710722,301.87585441744886 754.8696112355683,302.3422864335589 750.2882079289993,305.6232443252229 749.4199287466472,306.2266692590201 746.3164350579027,321.2483606819296 746.4256617245264,321.52988020097837 739.5825382400071,325.3270336923306 738.0469569423003,325.58372157800477 743.1948825600557,328.35229652212 743.384500053362,328.60809425311163 734.9195790222147,339.9923456145916 734.6245213866932,340.90332641254645 741.8477536711143,345.6767158508301 744.6853168356465,346.9250146850827 746.0228337778244,357.26000259205466 747.0186897066887,358.0042449472239 767.5821388800396,346.75966868852265 768.4119702755706,345.85669118800433 772.664528497844,351.13132211298216 773.0420158578781,353.0130303563783 751.727961031138,359.88589477550704 749.7942121245433,360.4461756392848 744.2891881244723,379.59327657253016 744.1624851911329,380.2519024212379 748.9789442844922,381.1955157176126 750.0053836799925,380.7669234224595 748.2959135288838,387.3353306062054 749.0657430755673,387.8357093737577 744.1007357155904,389.772062611999 741.6692044800147,390.61192674166523 775.0118823822122,404.89799297536956 775.4991789511405,405.48076159210177 781.4288762311917,399.3773475686321 782.1809382400243,399.03875650372356 790.4087645866675,403.4364114010241 792.3553294222802,402.3169521607342 791.6728812089423,407.94033847691026 789.6106817423133,409.1470722447848 777.5803110400448,406.2199670301052 776.523288177792,405.7178571303375 770.5950472534169,417.6746769058518 771.3433227378409,419.24650686845416 789.867000319995,411.8210963907186 791.8327890489018,411.83970897464314 797.0584840533556,425.3737454015645 797.6972416000208,425.9214529800229 805.7488489245297,422.6325283780461 807.5617203200236,424.0434661761392 789.5084455822362,437.6303725140169 788.1584039822919,438.4731568702264 765.8085890844231,433.5776958994684 763.2474422045052,433.0632408296224 765.6684876800282,436.0498108698521 766.3914225777844,437.20454807335045 757.9626191644929,440.14054885704536 756.6731619556667,440.85438198188785 772.9403622400714,443.79698076983914 774.3608914489159,444.88654326752294 772.7868623645045,453.30953564017545 775.0844088889426,454.1912506695371 791.9370641066926,445.34425539779477 794.2622813866474,445.5432025825139 793.9177076622145,440.1042146451073 793.6584763732972,438.7204084545956 801.7106662400765,435.0541442949907 802.6077812622534,435.1565027474426 799.4122459022328,440.2278395612957 797.9614244977711,442.8509756363346 800.6877220977331,445.28310901112854 800.2103287467035,446.70054880785756 794.6479243377689,449.2881616749801 794.0356724623125,450.58372908760794 798.6182408533059,450.0179162079585 798.6459116089391,452.52485061925836 790.3784723911667,458.0353099546628 789.7481617067242,459.61438551405445 795.8418446222786,463.76671566354344 796.6419663644629,464.6076283590519 774.6413855289575,492.50081585912267 774.6999310222454,492.64035935525317 756.4943214934319,497.40472026879434 756.2965484089218,497.4742689905106 765.2688637155807,523.5694458192447 765.0073022578144,524.4588539701654 753.8163748978404,525.7358216798166 750.4035512888804,526.008665716392 750.4274355201051,511.2112638349645 750.3549090133747,510.60396765719634 742.3484487112146,495.1237758875359 742.3513614222175,493.53520762216067 733.8643037866568,492.9597585822921 733.2677805512212,493.21137928561075 732.3030906311469,482.4091515384498 731.0060603733873,480.91042486269725 720.4477738667047,482.6714165885933 718.3663505066652,481.9089864179259 711.3973979022121,470.48240880540106 710.6272770845098,469.45677020435687 693.3018888533115,463.6851939258049 692.9334308977704,463.37815798126394 681.3335588978371,478.3940652180463 680.8850013867486,479.20435386523604 684.0525747200008,484.8647731184028 682.641074915533,487.3690980982501 658.9246159645263,484.58390419575153 655.3574186667101,484.9640074791387 649.2348999110982,471.76943454204593 649.1422756979009,471.1354479279835 637.8630931911757,467.84187820146326 637.3548251022585,467.01648440846475 645.3309932089178,466.291216362617 645.8975155201042,466.5158414785983 638.5729208888952,457.98790206876583 637.7372640711255,456.0313210291206 641.5703918933868,450.13090166752227 642.3609016889241,449.3497500374797 619.6251525689149,429.14962101570563 619.7268061867217,428.6887735510245 612.618917262298,431.275267532561 611.9481198933208,431.28501612495165 609.6590202311054,419.35551975364797 608.8437523911707,416.8287113631377 580.6256984177744,445.1501820254489 576.9859746133443,449.00901996088214 567.9227827200666,451.48495037609246 567.653648213367,451.81459972495213 526.2101381690009,430.0176955102361 525.2739928178489,429.16468716657255 495.01150691555813,425.5137743288651 494.26002744899597,425.715398103348 494.5961543112062,421.1294088739669 469.76674844452646,412.89929420739645 466.5048032711493,411.7493049809709 448.46987861336675,447.1219241283834 447.2954734934028,448.7737431001733 443.55963022226933,443.08005547034554 440.87877091555856,441.7286139532225 432.8227945244871,445.98629143845756 430.838073173305,447.85079963016324 429.4026891378453,441.347107166599 415.6913928533904,438.3792189199012 415.6645959111629,437.95827006851323 386.04436280892696,458.2160801179707 383.59622912004124,459.7180617983686 379.84116195561364,449.4295047260821 382.1119115378242,446.02794174535666 374.8112011378398,439.67706565815024 374.81906545790844,439.0496337020304 368.1131306666648,437.42211300425697 367.0951381333871,437.0352815229562 350.4629751467146,448.22431970230537 347.3160820623161,451.72421204904094 308.94897749333177,439.3270155629143 305.62586538668256,439.33543449570425 290.3652980622137,462.4867323077051 290.51326378667727,463.41005783958826 279.5626350933453,461.41054812294897 279.52360476448666,460.1092842629878 271.891719111125,465.7600014245836 270.9191648710985,466.7094530821778 265.27025294222403,474.68991408409784 265.08500451559667,474.7594699386391 268.87356785777956,480.66720754653215 269.1467801600229,481.09427748364396 263.8491411911091,484.8762913948158 263.9085604978027,489.201361802232 241.01727260439657,491.8363218141021 238.1275719110854,492.6487762617762 238.81089393782895,498.08425907208584 238.64341304893605,499.3684665414621 222.6380654934328,491.41148757666815 218.5145403733477,490.30354794766754 221.31831608887296,476.8563250307343 221.1738456177991,475.2166773049976 228.11920526227914,468.64733198087197 228.19959608884528,468.40454424143536 207.77624832000583,455.1039771026117 206.32484437339008,453.0299559205305 177.61483349336777,461.333899152698 176.2642093511531,461.8779733494157 178.3342731378507,480.41690165083855 178.09164430224337,483.235817011795 166.70410894230008,487.13474799646065 166.410798933357,487.252587587107 166.97149582230486,483.6119354903349 165.925832533394,481.3042680013459 152.94999580457807,475.1032616122393 152.19647744006943,473.4370189001784 161.4012270933017,467.95042412367184 161.38083811558317,467.7306739568012 144.02923548442777,465.0887813945883 142.89852103113662,464.269137015217 118.07930965337437,463.50265601300634 117.85590471117757,463.28511670196895 114.36094264895655,479.29074313060846 113.91267640888691,480.5533516255673 98.6468662044499,482.04277737572556 98.07393592898734,481.6702003686805 117.48133006226271,500.03205202985555 117.857069795602,500.6726006222889 115.81496803555638,514.1746326784487 114.88377429335378,516.903643270256 109.34379776008427,519.7765760546317 108.9202895645285,520.4161816742271 113.3420763022732,523.7718662152765 111.9824227555655,528.5727631415357 100.69071559119038,530.3900697049103 101.14131199999247,533.9741460953373 106.95071431109682,543.1440152919968 108.68057344004046,544.9669599010958 134.516612266656,557.9122696449631 136.9297934222268,560.2638680593809 132.8103460978018,564.8274920637487 131.766139164567,566.7171281652991 131.10320611554198,580.0287083357107 130.6456192000769,580.3975773960119 138.2559507911792,584.9466167723294 142.04713557334617,586.1909108958207 127.97204167116433,613.6295841381652 127.54154296894558,614.7869380385382 110.90704981342424,630.2729382266989 110.16576483554672,631.2748112527188 112.36049265787005,645.8702992761973 112.51049728004728,646.8796274657361 109.34845809778199,647.6459169818554 109.37904156453442,650.9793119470123 114.08540017786436,657.1922190806945 110.16343466669787,666.0666132797487 119.17448903119657,668.0337343503488 125.21952967112884,669.374943251838 119.74567167996429,672.6796827583457 117.12335786677431,673.4534078462748 110.55898083560169,688.0372663656017 110.16926008893643,688.8140360646648 124.76747690676711,696.1252751227003 126.491801884491,695.4051825576462 128.35331555560697,706.3178525932599 128.7415799467126,709.5149414233747 125.53322865779046,714.1697565863724 126.91938787559047,715.4597931188764 132.39091569778975,711.2860663003521 132.52781312004663,711.0408889378887 141.33759914676193,716.433843172912 141.66353152005468,716.6294492556481 135.16993336891755,728.2132700236398 135.02342400001362,729.8594545959495 156.0762086401228,736.8356898293714 157.66130602674093,738.2140953644412 153.13961329788435,750.5122794123599 154.48907235555816,756.6635491792113 170.33625969779678,780.5727659780532 171.6262994488934,780.724073523772 168.29124522663187,796.241839444905 167.4159755378496,796.9788576456485 177.48725674673915,798.5873714533518 178.26640696893446,800.2794835329987 176.22197504003998,801.6420114562497 174.48570794670377,802.8302351417951 179.05546040891204,820.4869488554541 180.01811143115629,820.3803448315593 177.46133361780085,832.3855821256293 177.34482517337892,834.036743500852 185.26011761790141,832.6177981704823 188.55118990223855,835.5706804218935 182.2536172089167,841.0238552679075 178.85098808887415,844.0243932704907 178.6738952533342,844.8112316438928 182.02526065788697,845.3999211475602 180.05102506675757,857.371960892342 179.67324643558823,859.689868418558 173.48664803558495,858.7420988164376 172.20010353787802,858.5138905050699 171.1413330489304,868.7715337052941 170.5899568356108,869.2686153390096 173.2204262400046,875.3281454708194 173.6337399467593,876.3970149033703 182.5291596800089,875.8305191679392 183.69016632891726,875.3794442454819 183.51569493336137,886.2580542881042 183.04878734226804,886.6100524328649 192.66655943111982,895.8117756041465 194.64312519109808,897.060516729136 186.98415132449009,921.1778826693771 186.5521962667117,922.7470300748246 180.1346198755782,921.928192069754 178.03863296005875,922.2575846111868 178.09834353788756,936.9272155326325 177.86037504009437,937.4621656567324 184.10289749340154,942.070641233935 185.8409122133162,943.3085116852308 169.6255581866717,951.9371610399103 171.01200867560692,964.3004164787708 159.85341240884736,963.933953803149 158.10462065786123,962.6904516957002 157.54625393787865,968.575474939018 159.44679793785326,973.4529459420592 138.96403086232021,976.6625409667613 137.38242872885894,977.0683231215808 145.51005781337153,989.4124981000205 145.71948174224235,991.6415105263004 138.37682830216363,1010.7023429973051 138.11177159112412,1011.6291334594134 145.8855062755756,1013.0164391773287 147.85449898662046,1013.4924257925013 151.741511964472,1021.8500894031022 151.74238577776123,1022.4745481663849 126.84161848889198,1048.544243937824 125.94683363556396,1048.8955428107292 115.90963114670012,1083.075810434064 116.34187747561373,1083.850756055559 107.32878421340138,1090.8653488300042 106.80711765331216,1090.8467931674677 61.222897493396886,1047.7139391083037 59.170018702279776,1046.8699326118222 21.46584718232043,1077.9144445171114 20.82621582224965,1078.8020736869075 16.346757404506207,1121.1682102081832 16.025776640046388,1121.7433564512758 18.298273848951794,1143.8672442619572 18.388859164435416,1144.164947160054 5,1139.5796598755987" stroke="red" stroke-width="3.104140393868164" fill="none" stroke-linejoin="round" vector-effect="non-scaling-stroke"></polygon></svg>