<svg width="1048586" height="29557.562915573944" xmlns="http://www.w3.org/2000/svg"><polygon points="5,22872.041083221906 2643.831506773364,26034.784321353072 2748.605511964415,26776.538559570792 2772.7757713067112,26881.545003349544 2814.5064746666467,26980.844159359927 2872.5696230400354,27071.485096224118 2945.249338311143,27150.77078016172 3030.3922531555872,27216.339811355807 3125.472464497783,27266.237644414417 3227.6649338310817,27298.977174734347 3333.931120924419,27313.581701081595 3441.111025493359,27309.616413457552 3546.0172677689698,27287.201149571687 3852.183983502211,27193.317100409884 3960.602664106642,27148.413683465682 4058.707725937711,27083.857772398856 4143.017605404486,27001.952726407326 4210.546773617854,26905.616802478908 4258.910011448897,26798.278624659637 4286.406004337827,26683.752162600635 4420.827039573342,25742.397821092396 5592.385858275578,23431.268521825783 5732.882517617778,23147.127892056946 5776.84814421332,23029.713709935546 5796.445447111153,22905.836250601336 5790.893237191136,22780.55595704948 5539.8880270222435,21053.950997326523 5484.672636302188,20230.423275848967 5465.4767049956135,20113.29697972082 5443.211649991106,20028.962850778364 5806.098463004455,18409.093788820202 5818.833709795494,18326.209885728545 5820.248704853351,18242.36672572419 5760.688714239979,17067.93283712084 5742.0246439821785,16945.298768243054 5699.2511900444515,16828.965797677636 4576.4663014400285,14514.851743142237 4539.755655679968,14449.468121330952 4358.6942512355745,14170.660241754376 3720.4700219732476,13298.493202627753 3665.8188233955298,13223.80947422958 3077.933815182303,11333.23895352066 3035.546586737735,11230.63416603976 2975.3344401066424,11137.508118404541 2899.310349937761,11056.958607833018 2810.010413795593,10991.662974158418 2087.1739656534046,10557.995153691154 2012.757109475555,10520.032771931845 315.0592628621962,9794.613094892586 215.51299157331232,9761.844760889071 111.83969991107006,9746.878003917402 5,9750.161935932469 5,22872.041083221906" stroke="red" stroke-width="3.3353225894940697" fill="none" stroke-linejoin="round" vector-effect="non-scaling-stroke"></polygon><polygon points="1032332.4308721777,28891.931747779134 1032334.5507433246,28957.755062054377 1032338.1461939199,28990.423816062626 1032354.8427278223,29077.98362132255 1032363.9554358046,29109.490967272664 1032396.0663281778,29190.761561175226 1032410.9447478044,29219.972985915607 1032464.1107549866,29302.335059909732 1032483.9483565511,29327.125444265082 1032522.8601380978,29369.31088669668 1032548.2927664357,29393.13123224443 1032628.4578579911,29453.526678098948 1032658.3381961955,29471.435761425295 1032738.6687297422,29509.502049864852 1032769.9387224178,29520.747451673145 1032801.7563047823,29530.31665932946 1032832.1152014222,29537.787220814964 1032894.1431321601,29548.26681637764 1032925.8765371733,29551.19472863176 1032993.9870825245,29552.08717417193 1033018.1148162845,29550.626666934928 1033117.1266050845,29535.407341527753 1033149.1268144356,29526.971259870217 1033241.8620020621,29491.69254240836 1033271.39980544,29476.719176930957 1033372.0505767822,29408.991448191693 1033390.7816393955,29393.033920485876 1033438.8486545066,29345.61327825673 1033460.9179753244,29320.031890363898 1033528.7002581334,29218.562826406443 1033543.7423721243,29188.708586884663 1033579.2066688001,29095.01597269741 1033587.6890660978,29062.67839445884 1033604.3133647644,28947.294900569716 1033605.3071817955,28914.342667991878 1033602.1696093867,28848.512839478906 1033598.0475406223,28815.814556128928 1033577.820218311,28725.178126952378 1033566.3313206043,28689.618167389417 1033526.5282494578,28598.935286468477 1033510.1815321601,28570.243802277604 1033444.7131070577,28480.459803288337 1033422.4532949333,28456.260070166667 1033374.3300644978,28411.526699978276 1033348.5971356445,28391.11391377193 1033265.5624411023,28338.342043124605 1033236.1897884445,28323.73233186314 1033154.5837787022,28292.492344526807 1033122.9893100089,28283.76229201618 1033004.3079830756,28266.151763347327 1032982.4763394844,28265.41497924598 1032916.9639324443,28267.718020639382 1032884.7210942578,28271.395396030857 1032794.9760958579,28290.684568892233 1032764.143592391,28300.345119753154 1032684.7474565688,28333.749662079383 1032656.2564815644,28349.0486971708 1032554.1642094933,28420.703998520854 1032530.0219121778,28442.465703788912 1032485.2386875734,28489.600590062095 1032464.7165988978,28514.848515011254 1032399.5601251556,28618.515099881566 1032385.5345473422,28648.436877732165 1032355.9215960178,28731.41693894379 1032347.8251329422,28763.487811250496 1032341.9452430222,28792.842682205955 1032337.0626653867,28825.569397811778 1032332.4308721777,28891.931747779134" stroke="red" stroke-width="3.942884282959911" fill="none" stroke-linejoin="round" vector-effect="non-scaling-stroke"></polygon><polygon points="1038881.88957952,14918.23876643856 1038898.9536975645,15028.062637347262 1039242.1913614223,16402.407822245033 1039277.2004013512,16503.90855662024 1039329.2808411022,16597.725842803484 1039931.1748246755,17487.62333662063 1040256.7911688533,18027.337510034442 1041237.418861511,19505.218363225344 1042106.32107264,21180.265183043317 1042169.7173950578,21263.616204200778 1042246.2115967999,21335.00633196882 1042377.3249572978,21437.989509481704 1042467.1858816001,21496.655564870685 1042565.8082409245,21538.761804591864 1042670.2021373156,21563.027347649797 1042961.81490944,21604.257557810284 1043039.1214663112,21610.204504722613 1047556.4244482846,21650.225869587273 1048108.7924397512,22308.246278723003 1048581,22872.041083221906 1048581,9914.331008903915 1048581,9750.161935932469 1048480.6058385067,9771.599206136889 1048383.2749752889,9810.547772943275 1045651.1915659378,11192.677765864762 1043930.3411612444,11625.637084841728 1043040.848704,11926.804712886573 1042843.7426303999,11993.541572356713 1041279.5864715377,12651.199199549854 1040410.4695936001,13062.151572332019 1040329.5917616356,13108.295891759451 1040256.6598055823,13166.330257289577 1039169.5227144533,14174.701296306099 1039084.2373680356,14272.423120983527 1039021.3982472533,14386.094404497999 1038946.6574976001,14571.498341169907 1038907.7122198755,14698.435045189224 1038884.8453987555,14807.142120434204 1038881.88957952,14918.23876643856" stroke="red" stroke-width="3.2744676931556524" fill="none" stroke-linejoin="round" vector-effect="non-scaling-stroke"></polygon><polygon points="1039055.2107454578,762.0271088017616 1039072.751674311,863.7849582970375 1039107.4012856889,961.0119630536065 1039158.1363441779,1050.8157137794187 1039227.4987727646,1134.6703267835546 1039311.8517603556,1206.4529962326633 1039407.9400610132,1261.3198280467186 1039512.4557087289,1297.3754284773022 1039795.8240520534,1366.2946852996247 1039871.3722052266,1379.5414462713525 1040038.9780494223,1397.8202843560139 1040143.999926329,1400.2733622404048 1040260.21389568,1410.4249787633307 1040351.8760405333,1402.617156432243 1040441.2487944533,1380.6943491406273 1040540.7700164267,1337.7111595541937 1040638.9432356977,1274.5125088271452 1040722.9988354845,1193.28687071288 1040789.7206001779,1097.1514648835873 1040838.173549511,984.8184288993943 1040857.7726000355,907.2090724708978 1040866.9153089422,827.6707396730781 1040857.4990964622,667.9683921426767 1040847.751708729,617.4237761539407 1040821.7845979022,523.9917266948614 1040779.9580663466,427.1743738739751 1040735.0312450845,355.8922588620335 1040662.7616395378,266.17971604922786 1040582.7762622578,186.79722049168777 1040489.4081425067,123.95550389098935 1040385.98272256,79.8851191746071 1040276.1802129067,56.149655137211084 1039890.8891172978,10.312228967319243 1039799.55873024,5 1039708.4992253154,13.835453040781431 1039612.5833571557,39.092543958104216 1039511.2355740444,80.50486693682615 1039437.1379510046,121.15948251774535 1039281.5155828622,238.43252276221756 1039223.9417699556,290.7239535569679 1039158.5886882133,370.27090240246616 1039107.7671222044,459.9351994890021 1039072.9893515378,557.059397505247 1039055.2931751822,658.7627575222868 1039055.2107454578,762.0271088017616" stroke="red" stroke-width="3.998605642714406" fill="none" stroke-linejoin="round" vector-effect="non-scaling-stroke"></polygon></svg>