<svg viewBox="0 0 76046.66003119988 27762.123788411744" width="1000" xmlns="http://www.w3.org/2000/svg"><polygon points="8.052550000022165,5502.9423325960815 11.99286559119355,5568.963485426939 16.71000123571139,5601.702932367654 53.48297901335172,5729.453336616483 67.14039014221635,5760.5605287216895 99.64945012447424,5820.1563045170915 118.40410569787491,5848.440147375135 227.33950125332922,5987.89551550991 249.40328792016953,6009.087066229578 336.48519455106,6076.125758475129 353.1118233867455,6086.483568672353 463.269101253245,6140.871598631638 483.1967055911664,6148.212372980226 498.33464777783956,6180.003420710535 515.3338123643771,6210.828976327059 566.0391612000531,6283.880098506546 587.2533100355649,6308.850622152648 633.66270125343,6355.055036055826 658.7038612178294,6376.133719281206 716.1489322935231,6416.728814925911 745.0817655733554,6433.662640770752 868.9369412532542,6484.087257750536 901.4296900533373,6492.153455543419 967.5240567735163,6502.646756189788 1000.9069300889969,6505.040958574653 1101.104192311177,6500.709737598343 1134.16346342233,6495.4467620792275 1208.7693545510992,6476.299030852359 1237.9853033510735,6466.083525033115 1401.1294566667639,6387.4777840876195 1417.1091723645804,6377.073496295809 1489.7568478133762,6320.947427712585 1511.9339389422676,6299.794193706737 1604.9062212534482,6182.022482667613 1617.592534497846,6160.359981879039 1667.3270767199574,6054.641116743704 1677.8856544978917,6024.21995143182 1705.3219368089922,5890.901553697913 1707.546665555681,5867.197537314001 1706.1229323644657,5744.794487102219 1702.0046501245815,5712.181895762536 1667.8126256623073,5585.501005660422 1664.6167990311515,5577.387884281372 1720.3142434399342,5526.130349418119 1741.3990679023555,5503.269470949745 1837.8581566844368,5378.136153490719 1853.9671967556933,5349.758795868052 1892.6415923467139,5259.844505533605 1902.1807212356944,5228.592556025105 1924.2605278133415,5093.479160063405 1924.8754011288984,5059.1784985607665 1920.5549767379416,4991.335527254356 1915.6924968088279,4957.989167579886 1889.9551988888998,4860.3753199584025 1877.7381234044442,4828.989336919069 1829.5327545157634,4732.027110416937 1813.124579013558,4705.270198574435 1776.1736345867394,4654.570661427482 1755.752034444362,4630.775211667438 1711.2766834044596,4586.620985080692 1686.5349501422606,4565.156921651011 1605.7474122222047,4509.489677310368 1576.911572222365,4494.041721034126 1428.5899144799914,4432.967166187154 1397.9580968089867,4424.198708515585 1299.710603404441,4405.834824520076 1269.6855034577893,4403.272020517645 1119.810205609072,4413.735414707888 1093.9680500889663,4419.114444482286 1029.467518888996,4436.73330765657 1005.8180522932671,4445.043353939691 914.0839634755393,4484.774198296625 888.0070434398949,4498.986234279379 777.6717989243334,4580.8334444923385 760.2601944444468,4597.720930463838 729.871005608933,4612.234442288493 700.3556301066419,4628.466951984359 611.2913322933018,4690.880789893476 589.8829056267859,4709.616480292374 557.8995899999281,4716.5003661683 526.3453167200787,4725.1598222630855 443.93976777768694,4756.941813137644 419.0523989601061,4769.439615072537 350.4338767910376,4809.977533732686 328.50757008907385,4824.913701901765 267.0493656444596,4875.450163813162 250.95663675561082,4891.073080318427 212.42787671997212,4933.447529947065 190.97080777783412,4960.910677923384 126.98844788444694,5069.504891894321 116.64832343999296,5092.734510035923 84.63267672003713,5190.1972772273875 79.6810678311158,5211.902562287491 35.16523010679521,5319.417285427597 27.446545662241988,5346.961101665307 14.921887884498574,5407.928065247863 11.070701253367588,5438.8149199041945 8.052550000022165,5502.9423325960815" stroke="#009edd" stroke-width="5.514062980037239px" fill="none" stroke-linejoin="round" vector-effect="non-scaling-stroke"></polygon><polygon points="2035.461430071271,2590.868110193376 2040.8257701245602,2659.7171476551157 2046.4810900179436,2693.791121377988 2072.6471390132792,2788.995971671393 2085.3497634400846,2821.262064809125 2134.3642834756756,2912.8228776872566 2154.1462522577494,2941.2398648276285 2222.902545662131,3018.853530460823 2245.1524545690045,3038.995912428334 2321.530147866695,3094.928590814845 2351.579714586842,3112.3808180590568 2447.084016666631,3153.6616248706414 2480.3457212001085,3163.571619380644 2579.661014497746,3181.145744449721 2611.1750923644286,3183.1785708300013 2740.8553989956854,3174.4815634875267 2772.7251188888913,3167.8258974003547 2835.1462656267686,3149.251480244071 2865.494967777864,3137.3904739285063 2934.987594551174,3103.3146322775574 2957.213036684436,3090.321654392261 3068.4625812177546,3018.746988761617 3090.7771523112897,3004.302075819898 3185.1571479024133,2932.5328589039564 3205.0040701424005,2915.0941285060544 3314.3763723645825,2861.9065848903556 3339.886770088924,2845.286666912056 3503.2170456444146,2717.7366378908337 3524.681978906621,2697.7028127411904 3564.505439031287,2654.542301240057 3584.7889766667504,2629.0863281874626 3636.8863101423485,2546.5299936903466 3651.1664589067223,2517.2245058158005 3703.0695145512,2381.2418838870653 3710.7072256268,2356.75539578966 3735.319634515443,2217.518479198887 3736.3714144979604,2189.6475202892616 3733.604338942212,2116.081618467433 3730.4408434045035,2088.1174513938313 3705.0839455556124,1976.3436661866435 3695.471998888999,1948.753163231333 3612.014961235458,1778.5155838017527 3601.5857078311965,1761.3358825746982 3558.9386655556737,1649.3365043273952 3548.331736773369,1628.1485759279167 3457.762441128958,1494.4260160562408 3436.4189679200063,1471.0093070602452 3365.348816808895,1408.1219615324226 3339.538701111218,1389.8027313630737 3225.5060611112276,1330.1047021883132 3193.4907056622906,1318.4930434400158 3095.704585697851,1294.924599193997 3063.413687777822,1290.7034928132489 3030.929094569059,1288.2727563585795 2998.3713923110627,1287.65664559594 2902.9559279201785,1296.1399598844291 2872.7849011466606,1302.0278303107189 2813.568027902278,1318.4930434400158 2784.675390035729,1329.0289193566714 2682.552534497925,1380.499320886709 2658.716945662163,1396.4045163279807 2567.589574568905,1470.0486611624074 2548.2442211823072,1488.3746668225212 2455.741467902204,1598.2005742045876 2441.978907902143,1617.796487522981 2392.932056773454,1704.5005913435307 2382.48678345792,1728.2152345063223 2271.6176389957545,1883.5160114473256 2256.9326233868487,1906.5536292485485 2127.9318522578105,2145.6037391868595 2114.209778942284,2177.8492186231597 2093.3515634044306,2238.866365514492 2085.422581217834,2270.1407129211875 2074.0143656089203,2334.868670335476 2070.9965056268265,2367.6083614552335 2050.4700478845043,2444.2892963105405 2046.0281634401763,2465.8538598736923 2035.461430071271,2590.868110193376" stroke="#009edd" stroke-width="6.290233025717887px" fill="none" stroke-linejoin="round" vector-effect="non-scaling-stroke"></polygon><polygon points="6491.958072346752,756.355027931073 6494.8384523644345,825.364769388194 6499.264025626704,859.6252471536573 6530.268087777891,978.0819117423671 6541.207065626746,1005.3217970607511 6529.467092222301,1074.3958932995156 6526.708172257873,1108.0644147367857 6528.091710035573,1214.9105588618258 6532.193972364534,1249.2066014220181 6545.187867902219,1313.3357765786059 6553.6507500355365,1343.0627812894818 6592.308834444615,1439.102353929513 6608.361367920181,1468.8828791533888 6744.75693001796,1650.765093493712 6760.4532389245,1667.6183885572536 6813.586041199975,1796.786807005672 6829.840425555711,1825.9245067831653 6910.304069999955,1931.9129174764676 6933.96198345779,1955.3512121207023 7040.534879031242,2035.2641153205477 7069.783158924431,2051.446217034332 7128.531085680006,2078.0082485227904 7157.771501253475,2088.5440077660896 7285.032510035671,2125.3287901681324 7318.415383351152,2130.8017286778486 7454.277336773346,2134.034434807516 7488.080805573263,2129.9155683802965 7554.684896737803,2115.819015860121 7586.967347795493,2106.2104898096586 7649.639278960065,2081.520279052056 7679.826325644506,2066.5202866865147 7737.401012364426,2031.440258667426 7764.61039447994,2011.4749635967019 7829.070438995608,1953.759093005414 7847.048274515546,1934.383133440424 7869.257696737768,1908.1620736885525 7889.913770124433,1880.6928893524164 7969.9160411289195,1752.0277103599801 7983.6786011289805,1730.1936453945527 8055.574214568827,1717.240375200432 8086.230499013327,1709.1303844892245 8146.499152239994,1688.3539183025423 8175.707236720133,1675.5398815998633 8242.707747866865,1659.6554582388198 8275.402930088923,1648.7947983785707 8398.270696702413,1586.8054770007438 8425.722998924553,1567.758973249147 8501.06522342225,1501.7166703617258 8523.581936666858,1476.9703155071184 8582.313552240026,1395.6081541774038 8598.754350106698,1366.4000747536484 8654.4599501068,1241.9465848880645 8665.592914515524,1209.087502892682 8690.585723475553,1072.7940655980783 8691.839645609027,1038.0893157793616 8688.303905591136,968.7579940511787 8683.522399031208,934.3618114958226 8657.599270142266,833.6794060365937 8645.163450053427,801.3240581121354 8614.766105626826,739.0753409204481 8596.909438889008,709.3954129162885 8533.469134533312,627.3361166356772 8509.269456808921,602.6164806075103 8408.529847777798,524.0407786325959 8379.718474551104,506.8305537504202 8256.187192346784,455.19001715481863 8223.734638959984,446.78981999019743 8162.413914479897,379.4296105701069 8155.989930124488,373.404393347766 8089.458656737814,278.869646496285 8071.424023351166,258.2186139137193 7959.357463351218,160.79442555565038 7939.3488856445765,147.62289993287413 7803.074492329033,70.07822914214921 7773.219203440123,58.02379146558815 7711.777018906781,38.89746530386037 7690.020814533462,33.32239513655077 7590.8753322933335,15.330259691138053 7559.887290053302,11.24321574435453 7497.482454497716,8.052549999993062 7466.235472240136,8.948945225478383 7352.728867866681,26.38200352920103 7332.24289680901,31.916263230756158 7075.624892328982,127.5775549877144 7070.2687078667805,129.64953690234688 6966.649010088877,151.96419600615627 6939.6577900355915,161.01641597648268 6810.6491545867175,224.635228538682 6783.520454568905,242.89444884014665 6684.714594444376,323.63932296066196 6662.464976808871,345.3983621710504 6579.937967813457,452.00914178657695 6562.817634444567,482.1571976529376 6519.458725573379,586.4103276675742 6510.041056737769,619.6442118811246 6491.958072346752,756.355027931073" stroke="#009edd" stroke-width="4.925875761623024px" fill="none" stroke-linejoin="round" vector-effect="non-scaling-stroke"></polygon><polygon points="8698.619854533463,6311.408819568547 8700.70739458676,6378.111545928608 8704.55858121789,6411.277457137097 8727.132092328975,6508.6940349078795 8738.24874555564,6540.140269878582 8781.923392311204,6629.995854489767 8799.755592275644,6658.137799769145 8866.367839031154,6740.320650308189 8891.69211451558,6764.881251869461 8946.491570089012,6809.204952149565 8975.764316755696,6828.8132274923555 9069.828574462212,6876.590644074284 9102.887845573248,6888.649035489972 9182.388838995597,6937.469582675287 9208.76489446219,6950.572857824358 9324.334863386699,6992.586196574528 9342.102401164477,6998.48425717323 9457.291970017832,7028.300254787871 9490.092301111203,7033.479139593343 9550.159103457932,7038.470092081727 9580.297507866635,7038.633594537881 9671.950914586661,7030.473148278979 9704.047243404551,7024.240294756746 9797.585756755667,6994.914428256656 9827.529883333482,6981.705175682815 9912.330263351207,6932.314696733869 9938.63379231107,6912.765456367546 9987.793947902275,6869.417608556891 10010.50493897777,6845.741493969137 10074.23651444458,6762.103428962262 10092.06085008895,6731.847567128454 10134.400310071069,6635.430028292554 10144.63528564456,6601.796174554591 10163.20381897781,6498.037505813612 10165.266892257729,6462.9125284250185 10162.580790071166,6382.2552026366175 10158.543481200002,6349.603393253667 10135.711030071136,6253.718555098836 10124.61039675551,6222.7714171709085 10081.979665662278,6134.879227701371 10065.110116719967,6107.665083385567 9957.8658412355,5965.550666467898 9939.297307902365,5946.165277385182 9883.518890124513,5896.780385364749 9857.53080777789,5876.780696873408 9736.807087813271,5807.195600676438 9709.969658906688,5795.330429484631 9565.248403368867,5747.517607489746 9539.301098977798,5740.476635309955 9416.052932293387,5718.585080119228 9392.095883404487,5716.082690484676 9318.234481235617,5713.408660331712 9286.639430000214,5715.093214678258 9190.41481446242,5730.761630242952 9157.35554335115,5739.896092466632 9068.251050124527,5773.775222476834 9043.881270071142,5784.773662590102 8928.805005679955,5855.782770766906 8903.456263422268,5876.494580839208 8856.383647884359,5922.004684680753 8834.80511888885,5946.663889867283 8763.03941236448,6056.161536070897 8749.009756755666,6085.829623158468 8716.824298977852,6179.3901384116325 8709.502034515608,6211.948686484393 8698.619854533463,6311.408819568547" stroke="#009edd" stroke-width="4.9175497081339px" fill="none" stroke-linejoin="round" vector-effect="non-scaling-stroke"></polygon><polygon points="9244.065496773343,1608.7086190195114 9245.400392275536,1643.951348828181 9248.814672240056,1679.0450591917906 9271.347696666722,1782.2420140226895 9282.86921673792,1815.5416898993135 9311.688745555584,1879.7737109787122 9328.881896702223,1910.4928953419148 9390.882156684413,1995.7270826169115 9414.774543386768,2021.502712368063 9440.147461146698,2045.8006199523516 9466.896052364493,2068.5470623452275 9554.528170124511,2126.6580363987305 9586.009625626728,2142.518761930667 9651.51329453336,2168.4383019348898 9685.300743422355,2178.4071776777564 9822.31147010671,2198.8449837151857 9855.40307231131,2199.509558403777 9921.432485573227,2195.2512515571143 9954.168154480052,2190.3286417281197 10045.125714515569,2166.8299807150324 10068.51653236465,2158.3461544251477 10151.44782566221,2119.1011004229367 10181.367776737781,2101.344750023709 10257.907416773262,2043.7572551310586 10277.20412788447,2025.9750487841957 10334.179961199989,1966.77486550287 10354.779236720176,1942.8936763171514 10408.607885680045,1865.1154932044155 10423.729516684427,1837.3824436570576 10461.044550000108,1747.2423892931838 10470.292407777859,1715.5166679035465 10489.40328792017,1584.9337673632836 10489.62960557337,1551.8645367354911 10485.017910071183,1488.5390081631194 10480.462721164455,1458.4306829389243 10455.720987902256,1363.1976743874548 10444.029656773317,1332.5270568800915 10415.573925573379,1272.357225070271 10398.874478960177,1243.5726724647393 10342.909938942175,1167.0451561862428 10319.211830071057,1141.0827413889056 10269.469132257975,1094.7661081694241 10243.740281200036,1074.3465107978845 10155.96252788452,1019.7220055101498 10123.995523439953,1004.6892416506598 10038.410167777794,974.9684288279095 10008.999941146816,968.0352151383122 9907.02272116451,955.6964319469116 9872.7497233334,955.5731083800492 9770.691821253393,967.2053791060753 9758.822523475625,969.3332002865209 9660.526387795573,996.6635295056913 9628.988425697782,1009.5275850441249 9549.236647848855,1051.659272335266 9525.7569923111,1067.1180090376001 9449.694745626883,1128.7378876716539 9426.158292222302,1151.6861799654725 9363.648307795636,1227.9278233428195 9348.041127848905,1250.2659159704635 9300.660930017708,1335.2533073128143 9287.044005573378,1367.5825332344102 9258.944498942234,1461.8382039619319 9253.580158888944,1489.5735303588735 9244.065496773343,1608.7086190195114" stroke="#009edd" stroke-width="5.1681400564347975px" fill="none" stroke-linejoin="round" vector-effect="non-scaling-stroke"></polygon><polygon points="16471.36742118222,10649.257568476227 16476.49699672009,10719.646721042256 16482.184938977938,10754.485917730402 16511.522347831167,10856.057761383912 16524.807514480082,10887.863602864643 16575.407714444562,10977.820589938463 16595.667367848917,11005.64929064145 16691.730327920057,11103.661232233251 16719.101656773477,11124.73681684726 16777.28306121775,11161.854429330997 16807.90701456892,11177.766423471418 16904.57669236441,11214.27177883967 16938.040247777826,11222.553200905008 17006.117005680106,11233.106450261577 17035.519076719997,11235.720419855934 17179.67410121765,11234.670083632489 17209.488903422258,11235.23995635091 17278.892401235527,11244.539052056934 17310.098896808922,11246.52597060657 17372.592570053297,11245.467434071965 17403.70993666665,11242.421975386766 17500.0560122577,11222.537077827525 17532.01486111118,11212.146450645785 17593.89395231125,11185.917596793297 17623.619625555584,11170.168686106248 17706.729176773457,11113.010117318336 17732.110250124475,11090.867507991992 17794.150996791082,11024.6983164197 17812.47661001794,11000.599961285567 17860.762952275574,10921.5910144058 17874.193754480104,10893.418235458405 17905.343743457808,10805.166728545824 17913.0784478134,10772.821566780593 17925.33630125341,10677.011060582445 17926.137296808884,10650.373431210493 17922.188825626625,10570.628260746395 17918.499294462265,10544.249381364585 17894.566712346743,10443.567928108649 17882.729745662306,10410.888726200414 17847.688083368936,10337.469229186681 17830.13899892452,10307.834720234066 17743.704296702286,10201.090114870894 17721.64051003568,10180.359736695798 17670.838167920127,10139.516772932926 17641.921354551218,10119.926407065737 17532.913141217898,10061.36489674353 17505.039952240186,10049.914645912038 17423.378892257926,10022.115974090906 17390.73235231114,10013.28952284591 17211.390321235638,9983.452745028568 17182.813421253464,9982.458409444924 17118.11074790242,9985.042096118064 17085.965776808793,9989.035563750804 16991.528983351076,10011.627148777683 16961.04280123557,10022.62119607025 16830.25391675555,10082.76535921861 16805.75481232896,10095.348069917382 16698.57519903127,10167.378525531996 16676.640736737754,10186.634385679004 16616.145474586636,10249.639528963919 16595.206285680062,10275.201074924233 16541.40996781329,10358.392939256883 16526.66029001784,10388.002042590786 16492.638367884443,10481.16761403947 16484.82239888888,10513.340154173347 16471.36742118222,10649.257568476227" stroke="#009edd" stroke-width="5.429849804092396px" fill="none" stroke-linejoin="round" vector-effect="non-scaling-stroke"></polygon><polygon points="18892.364254462183,8670.828211332002 18895.503574497998,8736.066005522647 18899.500396684627,8767.814872112736 18921.6291368088,8861.082979839848 18932.462674515555,8892.739262671588 18959.381076791207,8953.936923745408 18975.376521128812,8983.290780518058 19052.862792275613,9109.768714196776 19073.40556120011,9135.57175434733 19118.633556791232,9183.490234800702 19143.17314790236,9205.467244246305 19227.65779003559,9266.24275554184 19258.030958960066,9283.04046217681 19349.12599896011,9321.609340383759 19381.73205222236,9331.589766166027 19497.884563368978,9351.95811764858 19527.375763369026,9353.34419581914 19624.20738790231,9348.011514954065 19657.53346335108,9342.483316350816 19749.372992311022,9317.638284480694 19771.833198960056,9309.158068222605 19862.038114444586,9292.409711298911 19892.233316719998,9284.7527467295 19951.207561129006,9264.636127332546 19983.538654462318,9250.993947368435 20074.868458977784,9198.772105110314 20103.07311448001,9177.8063501851 20173.180614568875,9113.201945736917 20192.76044120011,9091.557818144182 20269.858156684437,8977.524413432606 20279.308447884512,8958.6349000732 20325.52327000012,8832.126060578943 20333.35525890661,8802.923886028031 20349.56129225786,8683.261114360852 20349.779745591106,8653.019179536117 20347.83813236456,8610.368026657292 20344.545021182275,8577.383513001405 20318.37110786687,8443.298646052863 20310.417658906663,8415.931580968463 20279.22747451556,8336.307729087624 20266.387370124576,8310.839956733136 20215.997467902256,8231.813610012789 20196.198896666872,8206.800606984325 20129.150034515536,8138.7204722506285 20104.46480784891,8118.570026297966 20021.808474480058,8064.947945957392 19993.385365644586,8050.558332206361 19904.062127813464,8016.987905977265 19873.227876719902,8009.095127117558 19778.81555003568,7995.676614203461 19747.01864791999,7994.656100880675 19615.825187866692,8008.270909070474 19590.1286679022,8014.522905424441 19417.696170124575,8026.219347691949 19386.586667831172,8032.855001697462 19295.232687813463,8062.71134180887 19265.507014568895,8075.9499124206195 19181.31335227564,8125.294810007763 19155.204101146664,8144.79260346017 19079.797214462305,8214.765606003435 19061.98919000011,8234.75147977643 18975.72459010675,8356.879224047269 18959.057474586763,8387.274659068411 18920.075496702222,8483.621615124488 18910.908612293424,8517.09021907681 18892.364254462183,8670.828211332002" stroke="#009edd" stroke-width="6.1449929185728935px" fill="none" stroke-linejoin="round" vector-effect="non-scaling-stroke"></polygon><polygon points="20679.514954551123,8971.774463926238 20680.35643679113,9005.02651990854 20683.058558888966,9038.171749294881 20702.20177012449,9135.963101549336 20712.201981182327,9167.661549740966 20757.850572257885,9275.93003995283 20774.841581253335,9306.752752234956 20836.323961200076,9392.326693212468 20860.07857666677,9418.214111959125 20911.973476719926,9465.486466482776 20939.927347795572,9486.700739520224 20999.36296564457,9523.902255113906 21030.625967813306,9539.759329494816 21095.692730053328,9565.700866874686 21129.261725608958,9575.695632947463 21261.620270106592,9596.394587894349 21296.257065555546,9600.226301837974 21358.05518338678,9602.313254859502 21385.038247848977,9601.383796638373 21480.712652257876,9588.128309219348 21514.47592564451,9579.519187521277 21580.181736702216,9556.341731253866 21611.897956720088,9541.846375300694 21701.14837677346,9487.36934855071 21726.90140333341,9467.402509559673 21774.928805573378,9423.318155912712 21797.041234515607,9399.330830737046 21855.020496808924,9320.492115167988 21871.347698942292,9292.19747506114 21910.879596684477,9202.776099437178 21920.758638960076,9171.706444403826 21942.8224256268,9043.375013194018 21943.898381111096,9010.768103800743 21940.233316719998,8938.22794403261 21935.912892328808,8906.091486959805 21912.554405573406,8811.774406550656 21901.380954479915,8781.348087645514 21848.14300333336,8673.438795998256 21833.037392240018,8646.713022281387 21779.702447813354,8571.778367982624 21759.41861890664,8548.770997080923 21707.669645680115,8498.822040639148 21681.511752275634,8477.600141098694 21596.428256737767,8423.462891191157 21566.168392275576,8408.783860094758 21493.35877008899,8380.812105441204 21463.721934533445,8372.464788126963 21350.72476333345,8353.92547749632 21322.803223351133,8352.676999786898 21258.068218906876,8354.366116398218 21225.86674121779,8357.907378886739 21102.569932257873,8386.899538092926 21073.281165680033,8397.23779691293 21016.52378569788,8422.5243805387 20989.22498335119,8437.399179932807 20893.251152239973,8505.341279504908 20868.460776702384,8527.778430500097 20822.8686922224,8576.714444877667 20802.221065697842,8603.066304657637 20739.864581146627,8708.5664960563 20725.649094568915,8740.854624188825 20694.717558924458,8839.87519919619 20688.155803333502,8872.478107826697 20679.514954551123,8971.774463926238" stroke="#009edd" stroke-width="5.199432043418153px" fill="none" stroke-linejoin="round" vector-effect="non-scaling-stroke"></polygon><polygon points="20857.74840777798,5061.960707425809 20859.22107451572,5096.964692948008 20862.74865894229,5131.828556485561 20885.508292293292,5234.286600893858 20897.062143457704,5267.338471129799 20939.830354515463,5356.3601487855485 20956.72407896002,5383.445141483826 21027.95617680892,5471.541618493415 21040.561516684364,5484.064435213775 21088.322114586597,5525.6969218656595 21113.800181217724,5544.517007021554 21195.728336808854,5592.354789065692 21224.604372222326,5605.2687504367495 21303.66030338686,5637.082975111232 21336.889385555638,5648.050045046926 21474.49896564451,5671.545718712354 21508.77196347562,5672.355347395787 21577.180187902297,5667.930940469116 21611.08094125334,5662.7216121944075 21677.676585555542,5646.381585104304 21710.153314444586,5635.308213618206 21772.91437456885,5607.550561957614 21802.988116791123,5590.956241363048 21913.654827831197,5509.632896855735 21938.987258906593,5487.573496416764 21985.71209673793,5439.281361268979 22006.95071234682,5413.203932220727 22061.36161225778,5328.268792846793 22076.200419013505,5298.033022490301 22100.270772364573,5236.929360706563 22109.599312240025,5206.322976809606 22130.247230035486,5081.835699005547 22131.37182779552,5051.495206509513 22131.22619224002,5018.699153680092 22129.27642342227,4985.959287763428 22112.673970088945,4889.092386673234 22103.620390142314,4857.576403276209 22066.976736737764,4767.2135575716675 22051.660827902262,4738.665114421834 21996.723892364535,4658.679634119471 21975.59858121781,4634.164068759332 21924.39952784893,4584.091315815836 21908.039703351096,4570.224298535526 21784.96163899568,4478.52782303773 21758.60160344001,4463.111849586392 21665.33018569788,4421.734390803118 21639.83580788446,4413.113213990495 21498.90107679111,4387.052971544821 21467.459816702292,4385.906690918462 21404.626230071066,4388.69030266974 21373.4115789067,4392.612223888951 21276.90384784888,4415.610562236136 21245.76201446238,4426.87611664299 21156.795001199935,4470.971352990455 21128.938123404398,4488.949529835518 21033.33653677348,4570.134120355331 21012.63997670228,4592.997588243539 20974.952698906767,4641.842001573095 20956.37630125333,4670.15573917955 20910.695087813423,4760.8621238671185 20898.99589236453,4792.683748505631 20870.79910118226,4925.11671333955 20864.569103386835,4958.979600804538 20857.74840777798,5061.960707425809" stroke="#009edd" stroke-width="5.716274341845523px" fill="none" stroke-linejoin="round" vector-effect="non-scaling-stroke"></polygon><polygon points="23431.45256792009,3157.8339084254403 23434.72936792008,3208.5305836363405 23437.981701146695,3233.726479011326 23459.93218335125,3327.693260074797 23470.588045679964,3358.057639627281 23519.740045680082,3458.6591656089586 23529.432674444513,3475.400567223056 23588.58517677337,3557.6042171900335 23611.29616784898,3582.594990925427 23660.7880812356,3628.453627438721 23687.39890121785,3649.1741938613413 23743.929672275553,3685.8623182062 23773.663501111092,3701.7153104375175 23835.58307899558,3728.1611140321766 23866.085572293377,3738.278634231683 23992.18965222221,3761.6351245640835 24024.269961128943,3763.1176891980867 24088.438734533498,3760.7830987184134 24120.32476560888,3756.981857757055 24210.50550559105,3736.3533487815002 24237.342934497865,3727.23532884373 24314.82920564455,3692.2445401474542 24345.355874444474,3674.9249427345057 24430.06741677341,3612.4603174141666 24455.674807777745,3588.3878978136636 24496.323438960128,3543.4862128296227 24511.987416773452,3523.4517794622516 24570.160665626754,3430.346562998515 24584.263139013434,3400.73835019549 24607.483854533406,3339.396618801373 24616.52927888895,3307.8515092497983 24635.0171301245,3178.0801202730217 24635.15461008891,3145.243234220863 24633.47164560901,3112.446330864128 24630.057365644374,3078.7878451550787 24609.166819013306,2981.6993254288973 24599.190783457714,2951.553587293747 24559.86102786672,2864.9486457904277 24548.299021111103,2844.778073413094 24482.47990559123,2753.8671490685374 24460.36776792002,2729.611028142477 24412.30803458672,2684.983709028369 24386.497918889043,2664.7523236498528 24300.743043440045,2611.6586794599134 24275.73421456886,2599.635589535843 24186.66991675552,2567.1165575191553 24155.172150071245,2559.267357245757 24058.777723475592,2546.316812231118 24026.333325679996,2545.578648938652 23961.573854462244,2549.5074430900568 23938.806356791058,2552.517362758663 23854.483370124362,2571.545435589651 23827.111750000156,2580.6325473509787 23768.70402790222,2605.187746184616 23738.07191896008,2621.1555271707766 23629.921207777807,2698.580210441869 23604.588776702294,2722.6814880848688 23558.171521164477,2775.425171066163 23537.27281894232,2803.9114833464555 23487.41681666684,2891.1449462981254 23475.911607777816,2917.4306043121906 23447.97404788446,3003.777328334487 23441.468798888847,3034.159120349359 23431.45256792009,3157.8339084254403" stroke="#009edd" stroke-width="4.854048379504068px" fill="none" stroke-linejoin="round" vector-effect="non-scaling-stroke"></polygon><polygon points="24797.82952564454,7690.157974786562 24800.030078889104,7758.980895381799 24804.10787444457,7793.178600466083 24828.105410017888,7893.521577796288 24839.934221111238,7925.8381611605 24886.319145555608,8017.861482920562 24905.243903457886,8046.550789967674 24996.071847848827,8148.587413675239 25021.946334462147,8170.4188112136035 25112.15154121793,8230.246841306362 25137.92087896017,8243.385546139238 25244.890194515465,8282.531752375333 25271.44450790237,8288.896973940573 25395.703967884416,8309.330276037304 25427.509025591076,8310.97039024168 25586.607714444515,8296.216631184128 25618.048974533333,8288.970417490316 25614.836836720002,8373.51731215397 25616.738254533382,8406.287009938358 25633.243714586715,8503.236151988007 25642.28098335117,8534.77040983978 25665.50985446223,8596.082623392955 25679.620483439998,8625.665061517298 25718.181574568967,8690.71745130766 25734.784027902293,8713.91819575653 25775.044103422202,8810.493773196853 25792.164436791092,8840.894749747269 25831.372732328833,8898.138954645983 25853.4202078135,8924.924787838856 25902.02199668449,8974.32719442973 25928.40649901342,8996.788896381127 25984.87260788458,9036.817640704889 26014.768383457675,9054.254472341883 26102.141561200027,9093.196949925768 26132.530750035658,9102.926299004437 26216.578776773298,9120.859599673335 26238.634407848935,9123.55913017309 26377.061003404437,9121.846639083611 26411.309534462285,9116.276403816388 26544.62286566221,9073.50991287225 26574.081734569045,9059.074524272204 26694.554670106852,8975.7301077148 26719.199410088942,8952.729834754748 26777.04090114683,8966.097601126385 26806.394621182233,8970.559169860062 26924.254272310995,8979.155758491572 26955.468923475593,8979.163686189422 27048.513732293388,8969.16447246619 27079.03253677336,8962.533326871722 27176.729527777876,8929.296645052644 27207.822718888987,8914.443899263075 27313.35199007101,8845.52793926149 27338.10187892441,8824.132263327454 27424.188803440076,8725.763044758147 27440.952912240056,8700.433327164064 27494.320479031187,8594.418493956997 27504.595650017727,8565.822801445873 27534.078985697823,8415.654285504861 27535.462523475522,8385.528597779426 27526.440983351204,8266.243256908405 27519.53145005356,8232.564530166943 27470.29847668449,8095.635919279506 27455.95337446232,8068.506465526501 27405.207538942224,7992.117596128577 27386.032287884504,7968.49594639233 27321.59671014233,7904.051623149106 27309.282350106863,7893.570359500445 27256.311494568945,7811.873045318091 27236.537390106707,7787.105072070408 27145.11059231113,7699.767436135706 27117.617803404457,7679.789548952045 26997.630416809,7616.783863102115 26965.622925680014,7605.524502369546 26829.704465662246,7578.580219803349 26797.284243368893,7576.996177490248 26719.11028112902,7580.572541816946 26688.47846345778,7584.728542288271 26526.118994515622,7618.588008486113 26498.35910999996,7624.189131339168 26418.76141456887,7606.790178822732 26389.609836684423,7603.230056353466 26301.605474444455,7601.401198193402 26268.04463448003,7603.883471272973 26234.685936666676,7608.3004060298845 26204.30490342225,7613.942431689851 26115.52372112882,7640.404204540915 26086.987307831063,7652.324281051959 26066.50949236448,7499.018171258067 26058.88780119992,7471.418382198579 26041.28191888891,7420.479632112634 26029.064843404456,7391.522526044893 25983.489070106647,7309.138918287441 25965.462592311203,7283.429474731063 25862.635734497802,7175.841745332145 25840.911861217814,7158.942498802877 25791.6625766668,7126.001629094273 25764.01628788456,7110.3843455830065 25676.62679896003,7072.867465238291 25646.294116719975,7063.5801058836805 25550.935158924432,7044.964004519599 25520.489172222326,7042.235936224664 25387.85566779552,7048.509278456768 25354.30298342218,7054.946088506986 25256.678518924513,7085.863414997148 25234.622887848876,7095.428192310414 25098.72860333335,7171.7578728751105 25071.988458977896,7190.584325880365 24977.559821111034,7273.931441658788 24958.942936773412,7293.0094623689365 24885.057067831163,7390.297493157763 24867.936734462273,7420.28354922586 24827.409563333378,7515.553233243321 24817.66829229344,7548.720579083689 24797.82952564454,7690.157974786562" stroke="#009edd" stroke-width="6.096789628475486px" fill="none" stroke-linejoin="round" vector-effect="non-scaling-stroke"></polygon><polygon points="27254.749990142183,6558.567978409963 27257.13666562678,6625.550656597683 27261.384272240102,6660.61376027207 27276.077443440096,6729.674429001141 27286.474074480007,6763.418807151582 27313.165867831092,6828.731462057418 27329.37190118234,6860.063098996325 27406.19465673773,6968.177283496625 27424.625710106688,6988.068820293382 27490.962705662358,7047.218618797691 27519.04590111121,7067.615233031247 27609.76083231112,7118.3237175615795 27638.66949008894,7132.601224505081 27729.440927884425,7165.583081147779 27760.744416737813,7173.187185685005 27888.709427795606,7187.023000015848 27917.771876720013,7187.17001664589 27990.929567884537,7182.089993743779 28023.389985591173,7177.213716407685 28141.54906342225,7143.513531762612 28171.493190000067,7130.722560571536 28256.47153666662,7082.636715521716 28282.888370088884,7063.5392311121395 28403.62840123556,6959.640517465683 28426.242399031064,6938.694776541757 28468.04766779556,6893.379127147287 28487.13408116449,6869.123498189176 28544.190887848963,6777.569914447464 28558.44686111121,6747.429157871666 28581.773016773397,6684.963618378475 28590.777954444406,6652.826689783338 28609.07152784895,6525.569471657713 28609.30629236449,6493.362924461748 28604.564981217845,6429.14315275845 28599.58890555566,6397.32618577368 28572.88924788451,6298.445639699668 28559.93583903124,6265.775026174524 28528.34894338681,6203.038942152663 28509.83720792015,6173.202266823297 28447.132945662248,6093.702255165757 28423.84727668448,6070.173963794165 28373.522327920073,6027.236733408325 28346.644412328955,6007.975108084473 28265.500941111124,5961.961534449278 28240.59726111102,5950.9238684008305 28158.766390071134,5923.656261783472 28127.72184123553,5916.608123141603 28001.132212364464,5905.562077340699 27970.605252293404,5906.477801990666 27878.353283439996,5916.559261391667 27847.30057901342,5922.568652461137 27729.691712311236,5958.200498340564 27703.105067831115,5967.120356354368 27619.955321200192,6000.445375142823 27592.43835679104,6014.229490901547 27483.48665005341,6087.685214670346 27460.330596719985,6108.286349426635 27401.210716755595,6171.379182418546 27379.47053229343,6198.117763224378 27324.039892222267,6285.334895221546 27309.03943000012,6316.411029862735 27275.19547451567,6414.162607857463 27270.68077229336,6432.943572289223 27254.749990142183,6558.567978409963" stroke="#009edd" stroke-width="5.515921730682898px" fill="none" stroke-linejoin="round" vector-effect="non-scaling-stroke"></polygon><polygon points="28226.058172329096,8614.806135459541 28229.747412222205,8677.860537109867 28233.728214497794,8707.432601316337 28254.47312557348,8794.399561686412 28264.27119448001,8822.557988725981 28292.56497894239,8886.760492581554 28309.515501253423,8917.469782102184 28370.7794278668,9002.783610596816 28394.437050053268,9028.60487788418 28419.58335888898,9052.965853434085 28446.121652364498,9075.777071124845 28533.14676112891,9134.136422177631 28564.280438924558,9149.997799013421 28629.080105555477,9176.004094852455 28662.519776737783,9186.050778602978 28769.173645679955,9204.961719257495 28799.312050089007,9206.731055881799 28859.66167668451,9205.581442373485 28888.877916755737,9202.849491698697 28975.223490017815,9185.90399223016 29003.32328791998,9177.382134903892 29086.634690017905,9143.13151679447 29113.1243412178,9128.900632033387 29222.739272275707,9058.470881034824 29248.484434515703,9037.078656106576 29296.139592275606,8990.052187535475 29317.896087920177,8964.564309598616 29374.062770089018,8881.222155770083 29389.540625662426,8851.441707117629 29419.43640123552,8778.386790996505 29428.757076791022,8748.114754532784 29449.5584944624,8623.290808090736 29450.72357890685,8588.332038400898 29446.87239227572,8518.501553267793 29441.872141111176,8483.88274085123 29425.80387899559,8415.841694945499 29414.800238960073,8382.656286554207 29387.02433453349,8318.53492350565 29370.357219013385,8287.835861064057 29290.783407813404,8180.791429163801 29270.58870786673,8160.1357190010895 29224.535541217774,8119.5654657658015 29198.547750142287,8100.034965538915 29114.726332328864,8050.52571716925 29085.11367227568,8037.213716848375 28979.430901217856,8001.545210967277 28977.901727884426,8001.169682709005 28853.73110559117,7984.2167282483715 28822.34664336883,7984.183817657031 28759.80432784895,7989.187393079483 28728.816285609035,7994.2074038610735 28645.116327848868,8015.330958345934 28618.019958924386,8025.101011931751 28530.582118995604,8067.208639836666 28503.113505591056,8084.405530499498 28426.95426562673,8144.751764236338 28407.002194515662,8164.126450042619 28350.34996340447,8230.491566415614 28333.310603404534,8254.900090038049 28287.993770124507,8335.271625342168 28275.12919896003,8364.35389098528 28246.37433232891,8452.567544636462 28239.917725608917,8482.406160822517 28226.058172329096,8614.806135459541" stroke="#009edd" stroke-width="5.53704944268802px" fill="none" stroke-linejoin="round" vector-effect="non-scaling-stroke"></polygon><polygon points="30033.451923368848,6481.186096259073 30038.67878345796,6545.77078463012 30043.330965644564,6575.099395268917 30065.977294533397,6661.144721787801 30076.349750071182,6688.942654161976 30103.95584344014,6748.736316253984 30120.202363475575,6777.381963564869 30178.08434121788,6857.219908964558 30199.646559031215,6881.181964362768 30246.508585555595,6925.386975320202 30271.671205573366,6945.483610283496 30354.214234480052,6998.729224864306 30383.54377901333,7013.294273609557 30475.731085680076,7046.859268791712 30507.536143386853,7054.553805478063 30605.799656702206,7066.994467732409 30639.514287813334,7067.525544080621 30673.20474342222,7066.095813094667 30706.757427795557,7062.730557291507 30805.490470142337,7041.108477944246 30837.400676720077,7030.146141143719 30899.08549008891,7002.772802038962 30928.649507866707,6986.459605685872 31011.119718995644,6927.682691788272 31036.225541146705,6905.020608618244 31084.058665555553,6853.87848298336 31105.620883368887,6826.247907849989 31160.040230142185,6736.333255307021 31174.53883224004,6704.369492136262 31204.038187831058,6614.927828456304 31210.357314586756,6586.024995902408 31221.190852293512,6489.51386109952 31221.48212340451,6458.319599271606 31217.16956333327,6396.10838027866 31212.574179013376,6365.255024951446 31189.814545662375,6275.542642614368 31181.480987902265,6252.239001106267 31146.067081129062,6174.501819685713 31131.827127777855,6149.830962785025 31074.867605644627,6071.179617040994 31053.40238111117,6047.364796747366 31006.78298342228,6003.421307560202 30981.757843369036,5983.4314071567205 30897.710107902298,5930.2543049888045 30867.336938977824,5915.536990692868 30804.31723010668,5891.465830996545 30771.88098790229,5882.201581516798 30636.868672311073,5863.673448444722 30602.328870142228,5863.8942194464325 30533.580732328934,5870.460224104667 30499.61531679111,5876.780696873408 30433.075887813233,5895.398691885028 30400.736638888833,5907.622530371271 30338.485594480066,5937.7029607964505 30308.784096737858,5955.453444925515 30226.60515672015,6018.783249059081 30201.831092364388,6043.01570004542 30156.74873232888,6095.656131187192 30136.586363475653,6123.876163414709 30087.110470000072,6212.586376389983 30074.08424336894,6243.893375311425 30045.976581146824,6341.593598978856 30039.76289453334,6376.149902047677 30033.451923368848,6481.186096259073" stroke="#009edd" stroke-width="5.64944997529079px" fill="none" stroke-linejoin="round" vector-effect="non-scaling-stroke"></polygon><polygon points="34469.090350106824,8628.079840802675 34479.28483899566,8730.690315263026 34486.62312336895,8764.29910284598 34520.7665055556,8864.557966969121 34536.050374568906,8896.40150655192 34585.67976792005,8979.09028157781 34603.88421236456,9003.664449894655 34643.78019899572,9054.996697474242 34665.81165456888,9081.493980324914 34726.282741217874,9141.565548553743 34748.281865697936,9159.547356603813 34826.949241199996,9212.01527277418 34856.270630142186,9227.37050142631 34994.15487888898,9275.783263438527 35023.0233412534,9281.287371733371 35151.43341456901,9288.267135677772 35184.46821890678,9285.47047893246 35313.4608344445,9255.731679208082 35345.411818977795,9244.3888654084 35462.0658989778,9183.898008041753 35488.16699451546,9165.524896267889 35602.70120336884,9060.991148451605 35624.619354479946,9034.150817857793 35680.47059003555,8946.506452821457 35695.56833680894,8915.2593173793 35718.11738114664,8856.955796701397 35726.1841345689,8830.339779124391 35743.029216737836,8748.367604394356 35745.15724347555,8731.146978146367 35863.70458569785,8732.582748706249 35898.66498335113,8729.466575418686 36001.58883444441,8707.612039270025 36034.82636347553,8696.240146920987 36129.65928564442,8650.43322409052 36159.26379010675,8631.449128857668 36269.58272344002,8534.762479449768 36291.44407668454,8508.759938199859 36330.531203439925,8453.163242766255 36347.61891444458,8423.756634603924 36398.35688564461,8297.710169852508 36406.4315033867,8264.619537108607 36419.10179672006,8163.302332641586 36419.724825626705,8137.814659513271 36409.94306790223,8028.251801404142 36404.19832777791,8000.631072735385 36425.849674551166,7876.45256708932 36427.14408336894,7846.036687241081 36421.84469677333,7754.703214308334 36417.05474335118,7724.423103313806 36385.54911234672,7613.983288151125 36376.84331010678,7592.656620601163 36318.59724347573,7486.647154749924 36299.59180347563,7460.035409877455 36209.839814568986,7365.349419908802 36184.31310566224,7344.998642407387 36102.045036684605,7292.895093328814 36073.176865591086,7278.651801302476 35950.97261456889,7237.9061629342905 35919.01347444451,7231.846080428484 35785.384987902245,7225.451074567303 35756.937412293395,7227.982912841922 35614.99138790218,7260.9374956585525 35586.14739231113,7272.355240283214 35455.39899451565,7349.155435602268 35431.57127000007,7368.599774371338 35363.454316684394,7437.3667495388945 35347.27275010676,7454.221299190045 35277.17340560898,7539.216360001039 35258.054661146714,7567.247321074392 35240.57839448005,7596.339050560171 35224.785092293285,7626.385366580886 35161.708585555665,7776.745385616639 35151.23913673789,7806.517865210801 35134.232107831165,7869.51399092839 35128.41484119999,7900.835579792474 35121.12490783108,7996.051850251242 35122.103870035615,8027.900669327617 35020.36141456885,8027.615062244557 34988.564221182256,8031.010608950834 34861.642834515544,8062.0340719080705 34831.65822125343,8073.664552918955 34746.113352275686,8118.210692437919 34719.35689673782,8136.125256804429 34623.2537412534,8221.677907474077 34602.314552346594,8246.209107334056 34562.070496737724,8301.84735688343 34544.432283333386,8331.338418680156 34514.43135888886,8393.174354687479 34502.16564112902,8425.30701122756 34483.31399227562,8491.44625841381 34476.792723369086,8525.23275908429 34469.090350106824,8628.079840802675" stroke="#009edd" stroke-width="6.368182892212189px" fill="none" stroke-linejoin="round" vector-effect="non-scaling-stroke"></polygon><polygon points="34842.68603679119,10651.139138355938 34844.49017005344,10702.516245850333 34847.160252328846,10729.666089476115 34866.594443404465,10827.216034424986 34876.22270125325,10858.55834177279 34900.60850121791,10919.37554026363 34915.82741677342,10949.982855550625 34971.702827831265,11035.733514745923 34993.51583007118,11061.981466416939 35041.49459003552,11110.436680584418 35067.49053670233,11132.48107792632 35143.69026335131,11184.435701883776 35169.273770124535,11198.287183760345 35251.816799031105,11232.886591668444 35281.833743386785,11242.063754692295 35405.48648564448,11262.290482981101 35436.84677236457,11263.145569158572 35499.48608116456,11259.774468919873 35529.673127849004,11255.84961915345 35618.446154551115,11234.7026226671 35647.17684568011,11224.589104459883 35727.04979231104,11187.106629495596 35750.59411003569,11173.165336666716 35841.81876568007,11103.669441007922 35863.388847813476,11082.748057101533 35903.21201666666,11037.71250614876 35922.17726125335,11012.97902581343 35983.3683700891,10908.038335083664 35995.002903351095,10880.761359566211 36028.49121680902,10781.317208521155 36036.41204340453,10752.547300988546 36053.39489680901,10634.545401673211 36053.91248557344,10604.688919445762 36050.49005001795,10535.581057397445 36045.756894462276,10501.290861368674 36022.123447777936,10405.902424316824 36011.20893670234,10375.959605625452 35983.48983014235,10315.21700601597 35966.4504701423,10284.74279100998 35905.000130017754,10200.153138665453 35881.31833232881,10174.565877651126 35829.6418856089,10127.85535007299 35801.80947458674,10106.618695599987 35711.48280777782,10053.435282408871 35679.459296737914,10039.426030235976 35613.19511895999,10017.29112427766 35579.19737232907,10009.2392062679 35458.82958566223,9995.865302721824 35425.88361901336,9996.411316574464 35360.15334118216,10002.28718661322 35328.70421677339,10007.576533958112 35236.71905225795,10033.65593766034 35207.14687888895,10045.660531599278 35150.17104557331,10074.444789078814 35122.937196684536,10091.134873847564 35021.01677456894,10174.076845515083 35003.45137894235,10192.607435833226 34946.338065662305,10265.814178482484 34928.53004119999,10294.431110227917 34885.25997001771,10385.769612005242 34875.08994790225,10414.221032639121 34853.454912311165,10502.186870269215 34849.263812293415,10532.127028261224 34842.68603679119,10651.139138355938" stroke="#009edd" stroke-width="4.946869213459734px" fill="none" stroke-linejoin="round" vector-effect="non-scaling-stroke"></polygon><polygon points="35959.71861222235,5042.928139575903 35962.25121453346,5108.109017287468 35965.503839031095,5135.944306569552 35990.46402562666,5252.2771548361925 36000.52919014229,5283.643012351269 36034.70490342227,5363.583426586614 36049.89148788445,5391.281654669292 36113.7040367201,5481.348932069115 36129.36801453342,5499.106179340597 36192.07227679109,5559.01000099341 36214.839774462394,5576.8396465998085 36293.733758888906,5626.778249858326 36321.77675892459,5640.681363306328 36409.74879007123,5673.13229598364 36440.07331672008,5680.762497836986 36552.188518995536,5694.926681645302 36576.13741229335,5695.26200835561 36644.383981253486,5691.042007296608 36676.82022345776,5686.707760937192 36771.208083368954,5663.269514288026 36801.524745697854,5652.065291246137 36860.110434444505,5624.725243077584 36888.19392116449,5608.671150566806 36985.48662786663,5534.873949508561 37006.05357229337,5514.728676526196 37044.153581253486,5471.517178135953 37062.9324123289,5446.749403008638 37111.13778121781,5366.953861498187 37124.358285680064,5338.780604112806 37172.749776808894,5200.301564553549 37183.971578906756,5166.683383589814 37207.71833005326,5038.051159441267 37209.18284120003,5006.212109692482 37206.990152275655,4942.522740305139 37203.3411077956,4910.852718559239 37182.547554444405,4818.267965748411 37172.41801901336,4788.39524866789 37147.473852328956,4730.480162166146 37132.74019444443,4702.61026571496 37062.94843224005,4603.606514145766 37041.10309890669,4579.777249669394 36996.67639014241,4537.503867359512 36972.88915231102,4518.167563062831 36895.99357897788,4467.974863196869 36866.53471007128,4452.919197563693 36773.79719227564,4418.050135545287 36741.74921446224,4409.977446658682 36643.61531679111,4396.7796549958 36610.5802211822,4396.099968967406 36541.19303455111,4400.545626667357 36506.814887848916,4405.8510354520695 36406.399172293255,4433.892344889435 36374.213714515674,4447.163665605447 36289.34867231117,4493.3128772026685 36263.87060568016,4510.889578629314 36170.02451003564,4591.057617182523 36152.839514480205,4607.928738000075 36102.49825453339,4662.715217372024 36084.45546555566,4685.011879814236 36023.644756791065,4782.215713624348 36012.96471895999,4804.624871633801 35982.66436781327,4887.13643718473 35974.77587231109,4917.718855826446 35959.71861222235,5042.928139575903" stroke="#009edd" stroke-width="6.036534094827209px" fill="none" stroke-linejoin="round" vector-effect="non-scaling-stroke"></polygon><polygon points="37078.41813222226,4000.698678909248 37082.80351007113,4064.9096073424735 37087.58501663117,4096.742982160911 37111.2266189066,4187.710477004148 37122.254434444476,4217.043021271442 37164.35942118231,4300.966265709751 37180.443994480185,4326.218258843437 37238.25315444451,4399.096656090434 37261.562998924404,4422.806948855432 37338.89547892462,4485.519257566979 37366.865661182324,4503.390802125941 37456.14841232891,4547.131074747042 37486.03603231127,4557.895752667711 37581.02274562663,4580.6940527672705 37615.05282335123,4584.926484528492 37717.78268788452,4585.57304730863 37751.8614078844,4581.774706544558 37771.99960123561,4640.524188627751 37784.32998118235,4669.018005615362 37813.36796333338,4723.850359395758 37831.93649666663,4753.667657961516 37851.718756720074,4782.134097448754 37873.1190277955,4809.371762296156 37946.309050053474,4882.889254391746 37973.42143888888,4904.37954971593 37962.62838786666,4958.889454330929 37958.275341111235,4993.242097576294 37955.58923892456,5062.427010256652 37957.26404781337,5097.01388445255 37966.62521005329,5165.595051842014 37974.27107672009,5199.360531892948 38008.770683475654,5297.133007996745 38023.981443440076,5328.18692202188 38100.3996234223,5440.630918759474 38123.21576336899,5465.644410009991 38172.94215000002,5511.506200689328 38196.001210053335,5529.745576342539 38270.1783501067,5577.207690185198 38294.45900120004,5589.7458337478165 38435.70917890675,5648.082725286222 38466.786350106704,5658.362527951744 38620.65031455108,5697.363759752974 38640.67520344001,5699.955983199965 38754.804836719995,5702.335642111342 38786.09230566234,5699.089259737375 38927.447632240015,5662.598842049338 38958.565290124505,5649.620167561021 39067.25776557333,5585.754512171465 39090.43828568002,5567.638518392952 39181.34720344003,5475.500655008742 39200.304001164506,5450.144031508156 39265.26561453333,5332.8741644505935 39277.2887034578,5301.52616749602 39287.53154335113,5269.53908697507 39295.94607447996,5237.019190280262 39310.04039227555,5137.302474273514 39310.96284788463,5103.698606894963 39307.54856791999,5037.6340405580995 39303.090372293256,5004.845534482651 39268.21065673779,4877.2915275086125 39256.16339231108,4848.647811867617 39194.672856773366,4742.503870900924 39176.85667672008,4718.791940428055 39082.37153225788,4623.440805112332 39069.029859013506,4605.309237211215 39060.80931444443,4456.611587594409 39056.3272345867,4433.818660727149 39038.47056784888,4368.704673157219 39026.763216808904,4335.380424849311 38983.994714480126,4246.80044374711 38966.558934497996,4219.016380177258 38883.676283475594,4113.12263255936 38864.15296344005,4092.5664366242418 38715.718001235626,3959.30353687788 38693.91315458657,3942.225942404737 38635.78825673775,3903.8755539420818 38605.14012788446,3887.3538197948074 38479.319163475535,3841.2686624341586 38466.179341111216,3838.1969949719205 38452.45726779557,3738.229676342191 38444.14817680896,3705.6067045660166 38392.98145453341,3581.4068496763066 38375.42421449779,3551.5651290502574 38312.81723679113,3468.943285288784 38288.8680522223,3444.015309608978 38263.50329005334,3420.5373363095277 38236.81965229346,3398.5994437785994 38152.71511896001,3343.9779670700955 38124.769403475686,3329.824345016241 38039.1922034045,3296.8199231641775 38010.01645001781,3288.870051482838 37887.3671367378,3271.994667029503 37855.594410124584,3271.8061252474145 37735.93849005352,3285.321150714968 37708.1544300355,3291.722322743124 37564.60641453345,3347.5511569836235 37537.94695227558,3362.753673763451 37463.171250088955,3416.42333413256 37440.209474586765,3436.8368280793366 37332.70596781338,3498.434825772041 37308.028896737844,3517.2815209481923 37206.13265012449,3622.398721182457 37186.350390071166,3649.1169732110284 37168.09730335127,3676.907558709994 37151.43018783105,3705.680438590207 37116.02472792019,3783.4835003484914 37106.74424777774,3810.4595788308943 37090.457532328786,3872.7158831861743 37084.858719031094,3904.4160711324366 37078.41813222226,4000.698678909248" stroke="#009edd" stroke-width="5.967360475264824px" fill="none" stroke-linejoin="round" vector-effect="non-scaling-stroke"></polygon><polygon points="40776.21819224011,5166.306959359004 40787.61009666661,5274.087562537956 40793.88873673789,5303.32589425522 40811.59161232889,5363.779851509171 40823.2989633691,5394.733578683314 40853.55882783118,5458.740688453341 40868.73725670227,5485.258759852819 40948.24611444457,5590.792537562113 40968.76470786671,5612.408597118192 41014.445630035596,5654.347009421006 41039.672912240145,5674.375294864556 41093.2021344977,5710.129336416285 41121.342127813376,5725.74865548985 41251.467496702215,5775.083760046371 41285.52204120008,5782.459527220955 41319.95669449773,5787.7993117640435 41354.63426790212,5791.070171467873 41453.27002569777,5789.189376757044 41484.961778942146,5785.035367721895 41547.63371010672,5771.608257438085 41578.42747451563,5762.359530577116 41638.291843440034,5738.840987481031 41667.17603444448,5724.644667623419 41722.420552275726,5691.606382552913 41748.61893236451,5672.854372790345 41820.38463888888,5608.654662670888 41841.7688900535,5584.936578069435 41864.067441235646,5637.52460411939 41877.07735668449,5662.950665331533 41924.95096777787,5738.505967894016 41944.65225446236,5764.224177869357 42081.61463014234,5905.701010860415 42095.166601128876,5918.987628996518 42155.47603231121,5969.622201584483 42180.007467831136,5986.693472067505 42260.1798411645,6033.131355637481 42282.98811679112,6043.83301478278 42368.81581001787,6075.218113959039 42401.76177666662,6085.289867673855 42462.3059723645,6098.558244655869 42493.01876340457,6102.7682240238355 42608.305616809055,6105.441648679582 42635.30470118241,6102.776464443916 42769.540196720045,6071.367680282245 42798.473029999994,6060.208325801737 42979.74094566214,5959.328692719544 43001.01189236459,5946.917611130601 43029.16790559108,5928.839979211363 43056.264274515444,5909.17581517974 43127.1322834756,5845.1856406031 43143.896392275696,5826.959526521998 43238.69698335114,5766.121204629802 43259.474516791175,5749.512693866651 43323.651154515566,5686.94505266429 43327.8504101244,5682.2507301532605 43455.75891458674,5716.025282658491 43481.08319007105,5719.370240542659 43538.61739010678,5723.426158183283 43567.46138569794,5723.319880782539 43653.766472275485,5715.142084970226 43663.11947892455,5713.73573844877 43786.88552564464,5680.877022608096 43814.888038995676,5669.337637576886 43868.94300560898,5642.006245653407 43894.85011458676,5626.270960557769 43960.070376702235,5577.731195176631 43962.91027003573,5575.2859124917595 44116.30499672005,5567.753054492903 44145.18947899551,5562.355123435642 44214.77094345784,5543.1999615644745 44236.26820781338,5535.757286415814 44305.890158960014,5505.306206901296 44331.15792784898,5491.491253140703 44402.163416773314,5443.158353226638 44423.960107831284,5425.023893614678 44516.77044340444,5323.245800605946 44536.083465697826,5294.6134937116 44635.72236120014,5236.749407014373 44660.529047920136,5218.545955782378 44752.77286118234,5132.213239699689 44772.79775007116,5107.675134766992 44802.086807920015,5066.321794848336 44815.38799448009,5044.736528769572 44856.57052560896,4962.3017584051995 44865.44613890664,4939.306874844799 44883.12483899575,4882.7663993203605 44890.940516719944,4849.048797170952 44902.518543386715,4754.035971438017 44903.036423422396,4723.441078266449 44895.172103422345,4632.076828709076 44890.44710345776,4606.578173799004 44821.488667902304,4363.636361783632 44809.14197677339,4332.465506748675 44762.611416773405,4243.98374700264 44743.88093670225,4216.412453632365 44633.82909897773,4076.662040723866 44611.49006111105,4055.515764782118 44520.30618342233,3987.7167417058663 44496.06601901329,3973.71088700174 44351.66021008906,3915.113714150124 44318.30151227559,3903.834565447847 44219.94887000008,3881.5545798602107 44193.90457232902,3878.2615671595267 43960.34562790219,3865.900662318658 43932.44010783115,3868.5794553697633 43871.410654462175,3878.900589939294 43841.38555451564,3886.4691620192316 43747.88752784906,3916.9484444304544 43716.04984777782,3926.712093609065 43625.23821456893,3961.5397981799615 43596.77432777791,3972.9902439734724 43503.53524112899,4023.2713311161206 43474.64289453335,4043.681134152488 43447.02078125335,4065.7941179699556 43420.75773897779,4089.5364703651576 43351.11161232903,4169.645361054834 43332.08986114676,4197.135891415848 43298.82029229344,4255.144662221748 43284.685487813316,4285.4743797768315 43252.783145555644,4380.592932008469 43248.45456557337,4396.804118968925 43116.89730790234,4468.416954270186 43106.03114783112,4475.048298913316 43016.55441012455,4438.96858222122 42992.24113666674,4429.938150976348 42916.680750106694,4408.806726437324 42892.68321453349,4404.205477256066 42649.981561199995,4370.440479636629 42618.61311888904,4367.058764100802 42470.03252112889,4371.594734884013 42435.678841200075,4377.9973511985445 42324.66406118218,4413.31805983666 42302.98853890679,4423.068972357869 42187.305556791136,4490.455851856241 42169.60268120014,4502.629545531148 42024.63064123574,4621.116027601674 42001.05370114674,4643.389074237581 41897.30467899551,4769.726011555962 41881.39807234681,4795.24564412082 41841.72840336908,4743.79681105286 41819.86705012445,4719.651463711023 41772.32490555558,4675.189628852735 41746.80635223992,4654.99617537568 41720.211843440076,4636.25955595079 41692.62992557336,4619.028762783593 41604.81984116451,4576.862983627041 41574.60861897783,4566.073736964172 41512.664865591214,4549.537642353302 41481.118747902336,4543.840086466778 41398.17114342225,4536.701669937087 41381.31790566223,4536.431421812071 41308.5161477956,4540.20545884184 41280.08488336892,4544.044613115111 41193.12443679117,4564.813299899426 41162.83224123565,4575.438706589775 41036.42844333325,4641.997592979431 41011.10416784894,4660.38227192426 40986.79118566227,4680.084411066637 40963.546003368916,4701.055025606271 40900.89853897784,4770.994758871297 40882.57263447996,4796.43215776913 40813.322927813395,4931.491658491868 40802.893965680036,4962.899197773921 40787.35144792008,5027.209258223855 40783.21685449791,5051.855173293821 40776.21819224011,5166.306959359004" stroke="#009edd" stroke-width="6.020858364116073px" fill="none" stroke-linejoin="round" vector-effect="non-scaling-stroke"></polygon><polygon points="41074.90069677343,8789.276952907298 41084.8280900534,8884.166776747297 41091.511305697844,8915.275760807475 41130.84077001794,9027.91989147049 41143.146974462434,9052.974074292375 41205.23636340443,9149.663704177627 41227.21102111123,9176.982579764881 41325.79842790228,9272.407399174379 41352.62770121766,9292.67038314676 41432.953865697724,9342.393493576703 41436.95884347567,9344.521645925794 41525.38380120008,9384.059169340675 41550.28748120018,9393.394839744346 41637.96824123559,9419.722520539333 41667.08719675557,9426.40012147036 41772.23606786679,9439.168189590826 41788.183161200024,9441.989182576392 41861.534838924534,9512.969371223851 41885.3462522577,9531.818488569028 42015.69007448002,9606.60131550426 42047.43047000014,9618.886676875263 42112.77248344,9637.799771518534 42146.14720116451,9644.362138816185 42280.763096773415,9651.315672240133 42314.13781449769,9648.291444215778 42439.34390559106,9859.697223214345 42454.80574125331,9879.772473798745 42486.06874342228,9915.69194011137 42508.41564560891,9938.537346693716 42580.52155679115,9998.350969636842 42606.22623234673,10015.482057999616 42727.91260333336,10142.988484411762 42744.515056666685,10157.346973821783 42783.98229222221,10187.734477865655 42807.09815014212,10203.314917479787 42928.889669999946,10275.046191640868 42960.071990071214,10289.476957740757 43024.58854118234,10313.791122302733 43054.99404119991,10322.566400239855 43152.9257967202,10339.995062119822 43182.506125680055,10342.072689051536 43325.76287007111,10333.34622474006 43351.677843368845,10328.51452691594 43402.73126118223,10315.339325123554 43431.63991896005,10306.099362667737 43521.213941217866,10266.3600868934 43550.46222111117,10249.240286545508 43579.25786569796,10230.946883156983 43606.94464116439,10211.007239184895 43678.10392123577,10148.741696282726 43698.816501217894,10126.6982969245 43736.722232346656,10079.53817737216 43748.57521894225,10062.896948889684 43816.64382125344,9953.338055915345 43833.24627458665,9925.912431469915 43884.44503668463,9810.38446259746 43893.17530569772,9781.089108513173 43914.22750779567,9653.614433223818 43915.52220788447,9622.498219251604 43904.38924347574,9498.620304312935 43897.56039227557,9468.234320308344 43850.84371003555,9342.736052947672 43850.38262786681,9341.806416474195 43877.90774786682,9303.042615795537 43890.481047920184,9282.852882783016 43932.933812364354,9200.729334424861 43944.18008123548,9171.98358000975 43969.965438888874,9085.547357391712 43976.591856666724,9053.675489474117 43986.36575007124,8958.724455084623 43986.60837890685,8928.309755856259 43982.42543448007,8867.649446872965 43978.00801680889,8837.558596515184 43950.74154555565,8696.860108792986 43945.53128791996,8665.280738269008 43907.981490088976,8543.190400578926 43894.55884347565,8514.169148938003 43897.074843333336,8480.504844925279 43897.68185232894,8446.75800477076 43889.55043672002,8351.983433175163 43884.69582111121,8324.744857881422 43812.17747003562,8026.504955089855 43803.78740568005,7992.501354669075 43764.878245573374,7871.995731622068 43752.87962342228,7840.404232016503 43637.56043892447,7618.971881376026 43624.59071888903,7600.519394840085 43584.3711300533,7549.398420273355 43563.253974497784,7526.609113867948 43418.44359000004,7383.535830618552 43392.277832275606,7360.4659343328385 43346.28117222234,7325.439564181346 43320.050752311014,7307.995536452247 43183.54975007125,7233.365293685609 43156.51804333343,7218.157492792612 43020.923476791126,7163.451300552144 42994.8951990311,7156.386111949483 42707.09487448016,7112.09954836886 42675.49195892457,7110.343472385808 42559.80897680891,7116.975792281475 42535.92474569788,7121.068081759935 42428.6236723467,7150.080687635025 42400.48367903114,7160.886690046202 42255.074441128876,7187.17001664589 42225.971796791186,7197.036556248408 42125.4264655913,7243.729529632576 42104.91631903115,7255.653437720874 41976.182352239965,7355.345471128268 41952.905130124534,7379.575243031693 41931.043485609,7405.102758588939 41910.66266342229,7431.838569384738 41865.08689012437,7505.61576097153 41853.28225453338,7529.43428398142 41820.894363333355,7612.921901516471 41812.61760344007,7641.718637020822 41795.651061217766,7731.52559920444 41794.76093670225,7736.742378176801 41675.461241199984,7891.652296732034 41673.559823386604,7894.664420959336 41631.5521211999,7932.743808860454 41611.972294569016,7953.272753815312 41546.41182779544,7972.470824987424 41514.574438995565,7984.91049506815 41394.311801200034,8046.869301743427 41369.594243440195,8062.850321661361 41300.61949670222,8117.998559072992 41276.73526559118,8140.744519206142 41199.678036791156,8232.588914499414 41181.6270922221,8259.388483699673 41150.040487848804,8315.760581030016 41136.59337446233,8345.169657418242 41106.13952344004,8437.211479885707 41099.375625697896,8468.861610590218 41074.90069677343,8789.276952907298" stroke="#009edd" stroke-width="5.155379593553719px" fill="none" stroke-linejoin="round" vector-effect="non-scaling-stroke"></polygon><polygon points="44381.25655896019,9715.013956048264 44393.06119455106,9840.901627143292 44399.49333449779,9869.380280990998 44447.86851444456,10001.71682312715 44460.854545662296,10026.973080234224 44545.05607227562,10145.791604976548 44565.93059899553,10167.842917602014 44678.49057225778,10256.256200179429 44697.55281012447,10267.41934221171 44728.30608784896,10371.315484701336 44738.055514480104,10395.734127150645 44799.23060340446,10514.676383759448 44819.045194551116,10543.467193107499 44858.722727848915,10592.290228543949 44877.90613449796,10612.656202818122 44953.42632564448,10677.402264915028 44973.87996560894,10692.056808065652 45054.586238889024,10738.569301548967 45082.34612340445,10751.178743325785 45168.99927896005,10780.054536226759 45198.74126338668,10786.619774988125 45289.38337680895,10797.167962490203 45319.813052328886,10797.559134203446 45462.78668120003,10781.610443916958 45492.884598924546,10775.167462081678 45580.58167014236,10746.429981851164 45608.681176773505,10733.80407680609 45708.22307899571,10673.296666910843 45732.76267010684,10654.088177454512 45799.84386335127,10588.98268062013 45821.81065673777,10562.49797277039 45884.81434569787,10465.647140351968 45895.753032275476,10443.90200201163 45970.56106555578,10349.625803709874 45986.993707831134,10322.330269829225 46036.16988333338,10212.612465518323 46045.91144564457,10180.921813088207 46066.79383668443,10050.183388145146 46067.40870999999,10017.02237568979 46063.088285608916,9950.844092916377 46058.16085222224,9918.039259134996 46032.93357001792,9820.850165638927 46020.91077236447,9789.58281245202 45991.67035679112,9729.376884901809 45974.55817901343,9700.618008934747 45890.93103903113,9596.42716455189 45866.278143457836,9572.760751099588 45840.2982167023,9550.577828748239 45813.08067899558,9529.959768614935 45738.87936343998,9484.548450176051 45714.77667899558,9472.074320746731 45627.78361005336,9434.276125886856 45597.66122555558,9423.106233832164 45487.90881453338,9391.014037123678 45469.41309897776,9387.53249831582 45421.15093222237,9328.450343161618 45399.232781111146,9304.4287443996 45324.48941001773,9237.718580241635 45297.19905453338,9218.45758561723 45239.57601680898,9184.762287271238 45209.42945680895,9170.4423060478 45114.82285229338,9138.132390143845 45082.24097453337,9131.03734421244 45011.809872239945,9122.001359353104 44977.86076788453,9120.68021795302 44876.368805573555,9128.582679103623 44843.03457453323,9135.147525630222 44777.77353446232,9154.059187711886 44746.06547003565,9166.332233445457 44627.87406111101,9233.225322145416 44600.98828120006,9254.108892718126 44551.02713005338,9300.408908796177 44528.13817232894,9325.661695728515 44451.574356791214,9438.27120005581 44436.48476560891,9468.861846921529 44402.09875458677,9565.195476957742 44398.32825005334,9579.910699180764 44381.25655896019,9715.013956048264" stroke="#009edd" stroke-width="5.768114050333905px" fill="none" stroke-linejoin="round" vector-effect="non-scaling-stroke"></polygon><polygon points="45959.00750566239,12851.27626946781 45961.669432346825,12915.967506624438 45965.64994335116,12948.104840155429 45995.327265591244,13065.521501312935 46005.09300340456,13091.507214729994 46044.60888123559,13172.064408543316 46061.00890114682,13198.390104851424 46141.90129666671,13298.589447372506 46163.79527227557,13322.530410544568 46240.310736808926,13391.350342338585 46260.71573449788,13407.507828910515 46349.72323444451,13464.200652561529 46375.61403224012,13477.15384144403 46468.12494111108,13514.508521378419 46494.92188333336,13523.249404074886 46616.20397001784,13545.98379944617 46643.55927896011,13547.60192333159 46703.18888336897,13546.878041402233 46735.31783455121,13544.048664080416 46831.13787451561,13524.770074747008 46862.8864256267,13514.64668511026 46953.96515444445,13473.600433111627 46982.61516347574,13456.516510114918 47062.140041128965,13395.814641609002 47086.21855007124,13372.647286713152 47143.704107831,13304.62346452687 47159.49741001788,13281.658014386281 47213.56053222227,13178.131386246678 47223.95745453355,13150.301042669773 47249.23337901349,13053.793391485146 47253.812743422226,13022.926876230893 47257.46965222235,12903.001705836592 47258.52958779561,12870.399921565113 47255.260943386704,12805.27549855152 47250.94867458672,12772.948192817596 47222.662754444405,12663.548166031513 47214.31317677349,12641.419783411868 47174.00445897784,12557.793302841805 47159.853634586674,12534.61429897914 47103.241598889,12460.1274362478 47082.69096564443,12438.150877451553 47038.360958888894,12397.525013484847 47014.7114922934,12378.981246286276 46931.553590071155,12326.701560714195 46900.84079903108,12311.851483051694 46804.292290017824,12278.415590499848 46783.579710035585,12273.484176041762 46671.34333897778,12258.07201410536 46647.91203444451,12257.266409474396 46579.172052222304,12258.259207267402 46552.83648344013,12260.326240128983 46410.80133008899,12282.71189031584 46381.5204278311,12290.702753960766 46317.65923671995,12313.739167908177 46286.824985626736,12328.011561998137 46201.1749677778,12380.193660198449 46174.7502700357,12400.771453780966 46125.62273680896,12446.319920048438 46103.0734012,12471.135811609594 46033.06318566215,12572.503116437263 46018.16787231108,12601.21385086872 45983.16669670225,12691.67182167896 45974.857314444496,12722.959349867626 45959.00750566239,12851.27626946781" stroke="#009edd" stroke-width="5.845868499346615px" fill="none" stroke-linejoin="round" vector-effect="non-scaling-stroke"></polygon><polygon points="46957.58186783106,14227.993834284222 46967.26663227554,14336.861244759028 46971.8541522756,14360.462638805533 47004.76778783114,14468.50097260563 47014.89761453343,14492.458117785194 47044.97951234679,14551.098214326572 47062.42344792001,14579.052111071564 47109.17246125336,14641.28896017329 47110.8391145512,14643.255346223508 47149.57817232888,14725.83635970307 47160.282385662314,14744.175288280385 47231.991585591226,14839.930539503956 47254.85636781331,14863.809335574071 47330.934925680165,14927.133229675033 47358.192950071185,14945.13729032813 47492.52543888893,15006.97964404503 47507.801152311265,15011.740486779861 47543.05311234668,15058.031569717947 47563.150819013244,15080.940954178775 47610.4418878844,15126.759166275297 47630.46677677345,15143.46134268734 47777.98743896,15236.718039696018 47806.467345662415,15253.833609089692 47903.99452560884,15298.038944424508 47935.41131892451,15308.485236733133 47967.37016777776,15317.127808821999 47999.758058977895,15323.92662380563 48093.854647777975,15333.470948941394 48124.6405478667,15333.324738865573 48239.3690345512,15318.931178612489 48265.69673901342,15312.465415871382 48429.18051444448,15257.5703082564 48453.33184116462,15246.871947308042 48657.367254497716,15127.733910009818 48680.11057666666,15112.924359534256 48707.40122342226,15093.565517450246 48733.550961235655,15072.662864927639 48801.319845573395,15007.117982995493 48819.63759448007,14986.831766531715 48852.49472344003,14945.210410625179 48867.08245449769,14924.054247361171 48910.61933001783,14845.626051805128 48922.41581001785,14818.106547580828 48942.667307831114,14759.036663726758 48950.426478960086,14728.769711503963 48965.41878559103,14605.770778770006 48965.28946121782,14575.427826875792 49031.04391455115,14515.780984293931 49050.44577453344,14494.579135654523 49131.02272344008,14376.675961864385 49145.20587892446,14347.8490528588 49178.05485229334,14258.45625134409 49185.78984792007,14228.392060260841 49201.96325890662,14110.446497755795 49202.51347003563,14089.84140192435 49192.40811010671,13965.39155895295 49187.65864336898,13942.467859905883 49170.12587010674,13879.734501273459 49159.14640557347,13849.826468619256 49124.87369901338,13778.082111474854 49108.81330121786,13751.172261589061 49028.033918888774,13650.064816906088 49011.35078345786,13633.616963716777 48831.579710035585,13491.879666046734 48822.81740119995,13485.333765231044 48726.884056773386,13426.950528123678 48701.26821890683,13415.208589918067 48570.228550000116,13370.809435015923 48562.77696116443,13368.548857081769 48470.63829677354,13347.479256541556 48441.09029890678,13343.803495522792 48340.593901253305,13341.08736169929 48316.555878995685,13342.96593845464 48254.603970017866,13282.438806858408 48228.73763899552,13261.839756280911 48144.81107231125,13209.295952574961 48115.02044560888,13195.047484676674 48021.53873012436,13162.744313761505 47987.62166559114,13154.99377723664 47881.65577901353,13144.03867468037 47848.02182999998,13144.469654250977 47769.152312346734,13153.179984799208 47741.65952344006,13158.693966161605 47637.10921446234,13192.924857327394 47613.48392336897,13203.838938887318 47545.85251899576,13242.289435948973 47518.72381897783,13260.717590891843 47440.71966779558,13320.294065539929 47418.753165679984,13337.62324537235 47354.89197456883,13399.164761028864 47335.748763333424,13421.754472310218 47281.19222786673,13501.246799240733 47265.333972222405,13530.705507051636 47217.5655100001,13660.358034777251 47211.87785901339,13685.814067506493 47108.25000564451,13814.104951331305 47087.71539231122,13840.558718161978 47033.56314114679,13927.29877222926 47023.15019892447,13947.54848235115 46982.57467679132,14053.775458840159 46975.915927920025,14080.152392773336 46957.58186783106,14227.993834284222" stroke="#009edd" stroke-width="5.749456975700238px" fill="none" stroke-linejoin="round" vector-effect="non-scaling-stroke"></polygon><polygon points="49247.39368792006,6497.898642563756 49252.15917456895,6563.69181848297 49256.10735448019,6590.429450482741 49280.00789677352,6684.595923858025 49292.33827672014,6717.442658593209 49331.82968777791,6797.137822670309 49346.053621217725,6820.038705753017 49399.81731672003,6890.446313690074 49420.90214118222,6912.945151302934 49466.429563475656,6954.4777857240115 49494.21333222231,6976.019656298769 49578.900407777866,7027.450681486662 49605.074612364406,7039.703417618672 49704.44641225785,7109.069051288796 49728.241805680096,7121.615307182161 49801.64999000006,7152.30217432222 49832.759492293466,7162.650926240516 49951.88937673776,7185.806289705826 49979.608774568886,7187.717506420362 50045.82431007107,7187.268223744846 50078.81891899556,7184.221741763264 50171.94470118231,7165.337853059318 50201.49240777781,7155.969456257153 50296.02619451564,7113.82298216279 50315.74350111117,7102.411987769738 50401.86275671993,7039.37670704184 50417.130314551294,7025.604496953631 50490.425485679996,6945.320095242496 50504.14755899552,6927.061854726839 50561.97303014225,6829.769117956079 50565.913054462406,6821.435786375456 50608.00173001783,6713.153096754657 50613.139461146784,6694.695127504267 50632.5253012178,6565.203342672234 50633.00269456883,6533.87221259388 50630.77767455124,6417.464369696012 50629.434623457724,6382.99077888779 50620.7693079022,6314.580223363097 50613.4793745334,6280.863979027403 50584.3117767378,6191.848181318695 50573.534745626734,6167.103824985417 50527.00418562663,6084.529677273327 50511.429336773464,6062.44832823574 50420.123999031144,5951.569648344099 50398.844896737835,5928.5783066772565 50314.54608557338,5856.764177843608 50289.07617453346,5839.772824459273 50207.88435231126,5797.10494358305 50177.454676791094,5784.912610653933 50146.40197236452,5774.445829768112 50114.8150767202,5765.737030468677 50025.89641446213,5750.71498417671 49995.879470106796,5748.784960237535 49897.049434480025,5753.012697590835 49869.88024777779,5757.027870840189 49737.31956112897,5793.613316606643 49711.54206779564,5801.9459854768065 49636.879670071066,5833.967000449513 49607.09719896002,5849.184302482376 49497.96752557333,5926.272701242153 49473.63036788453,5949.288518858404 49408.92769453337,6026.141274555906 49390.37518111116,6054.085159587063 49305.13818569796,6226.335321860592 49294.004930017865,6253.080887566699 49266.59311448014,6336.460558025545 49259.3113367022,6367.976694025012 49247.39368792006,6497.898642563756" stroke="#009edd" stroke-width="4.921809023927535px" fill="none" stroke-linejoin="round" vector-effect="non-scaling-stroke"></polygon><polygon points="50611.634754586616,27020.136532943667 50615.07321005338,27088.119563260785 50619.73354783119,27121.839814619947 50644.410618906724,27218.824399172358 50655.64086786669,27248.88642591596 50699.242405573255,27335.71427651847 50717.60064116446,27364.570203234995 50782.26282783109,27443.992833442957 50799.148396684555,27460.799919179553 50862.742783457856,27518.252302069945 50883.57653222233,27534.57365983972 51072.71692347573,27666.340599713294 51097.758083440014,27679.91037888304 51214.930043475586,27726.45410551355 51230.20546562679,27730.880436719308 51370.19356560882,27753.334828998224 51403.843534533284,27754.071238411736 51504.259250088944,27744.53898588955 51529.955770053435,27739.32002842831 51641.3832812357,27702.098038152355 51658.88372340449,27695.49508245525 51738.3360745511,27658.20041388998 51767.64930790232,27641.733589823853 51871.68144557334,27562.361101372895 51893.05754114664,27541.038924100605 51951.66769666679,27469.709018128196 51961.95947010664,27454.714763939584 52014.970812328975,27359.156755609234 52027.843247813405,27328.916786189453 52060.08550345781,27224.610226577643 52065.86228340445,27196.724842329364 52080.320690088905,27042.30934510604 52080.393507866655,27016.6001695389 52077.23816792015,26962.842843404127 52073.78311000019,26934.908002682758 52045.22252120008,26807.816422929318 52036.65419892443,26783.571355751686 51998.94274562679,26701.593762356002 51982.542434444535,26673.78769193715 51912.30590125336,26582.809853129 51899.602985555655,26569.602628486493 51829.52810783114,26505.459298899368 51815.59573677322,26494.485362670355 51697.881721199956,26418.404755371303 51673.49592123553,26405.884818628867 51599.375287777744,26375.601243909827 51566.947201164556,26365.347325108392 51428.02719234675,26342.363578099903 51393.82701229327,26341.748253185273 51313.90542338672,26347.607822430873 51283.75070779573,26352.075041597273 51100.16922569787,26390.84006466533 51086.96474114666,26394.82187697265 50998.928047813475,26427.598110008665 50969.574327777955,26441.113238548423 50859.60346342239,26511.455961186526 50835.63010335108,26531.48558912959 50762.14910125348,26608.674191638333 50742.84423455107,26632.758091677417 50691.7421744623,26712.211400140048 50676.919678888866,26741.473998250352 50634.71799014218,26855.829150932113 50629.0460677956,26878.512204567174 50611.634754586616,27020.136532943667" stroke="#009edd" stroke-width="5.452859194891883px" fill="none" stroke-linejoin="round" vector-effect="non-scaling-stroke"></polygon><polygon points="51196.49083451554,18973.648501731717 51200.38250783109,19039.655033741234 51205.29363003548,19074.26331647762 51229.89001901331,19173.673811635905 51238.0860968089,19196.45837967514 51270.78127903119,19269.180760785734 51284.39004788443,19293.84540291506 51351.76251223998,19387.734090149665 51371.82788781333,19409.60056440151 51416.902092257864,19452.19787862504 51441.991894497885,19472.604181011353 51546.50171679107,19536.84668525643 51570.070210017846,19547.604934919014 51652.22497453343,19577.03411651586 51674.95227679121,19583.00081572382 51799.93175896001,19601.598362088 51823.97793680907,19602.320115391252 51948.69032336888,19594.82093427205 51952.88957897783,19594.277793688205 52081.51810562669,19568.472795995564 52110.79900788446,19559.555089030386 52189.30472791998,19527.061458414624 52216.522265626816,19512.824992899987 52333.95316567994,19433.47756207388 52354.13971003576,19416.48383796666 52415.4685901067,19354.014169708622 52434.40936792013,19330.590610363026 52486.045036684605,19251.140103149548 52501.74950118223,19220.3452361121 52538.20703234663,19123.33663522688 52546.56476560887,19089.84821457902 52561.20929453336,18972.38359135043 52561.557072240044,18945.81010760888 52553.45012340462,18851.531908677338 52548.68463675561,18824.45440456693 52516.911910142284,18712.92989354374 52510.37433005334,18696.296248317085 52465.54275444464,18606.169007597287 52448.633010088815,18578.764398713916 52377.15012781334,18486.848168959987 52354.57661670225,18463.643585521815 52278.700492257834,18399.616661037522 52254.541301217745,18382.721555545664 52164.89446118218,18332.651931959408 52141.35014345788,18322.180427727377 52045.926523475675,18290.927699819353 52026.99390125333,18286.255581658246 51888.83411003556,18268.808058296418 51868.51795003563,18268.686290188372 51789.713094569044,18273.958814280835 51770.723674480105,18276.611132376216 51652.24099444458,18304.76558335332 51626.58496116439,18313.898909858748 51535.39292788447,18357.755787962727 51515.440856773406,18370.003646835423 51412.47651899571,18451.78572038791 51398.106950000045,18466.36080390858 51329.44794114679,18549.250541046407 51310.2968655912,18575.706868148205 51261.35516333324,18662.331704318844 51247.50376564439,18693.903946327482 51215.132185626775,18798.309076654696 51208.70004568016,18828.6548675019 51196.49083451554,18973.648501731717" stroke="#009edd" stroke-width="4.844842705667087px" fill="none" stroke-linejoin="round" vector-effect="non-scaling-stroke"></polygon><polygon points="51883.19481005345,8078.1535850800865 51889.29548347567,8169.488341684715 51894.449234515545,8199.586497809942 51941.71612788446,8341.726182603423 51955.38955892448,8368.44180599021 51985.932538906694,8418.77121232872 52006.12753012462,8446.839663971245 52134.27050783113,8595.788919093873 52153.47838125343,8615.385605499294 52201.626952275634,8720.387018450041 52217.63870779553,8746.344510463503 52294.348158888984,8840.829559614736 52302.59287896007,8848.994745373871 52385.07910999993,8915.903840884595 52414.08505232888,8934.174116046663 52559.85808784887,9006.82078589985 52588.48363010667,9018.54878375106 52682.79867224011,9045.560601083649 52700.857481128885,9048.91267051603 52815.51315003564,9057.051907304703 52825.497341182316,9056.774747764663 52874.487394444644,9075.744481853413 52906.28458783112,9085.498327046138 52972.904698906816,9099.908766867447 52992.42801894224,9102.991476213821 53087.10744123568,9109.099917078245 53115.95930114668,9108.121382321493 53217.27329680894,9093.29501004712 53241.33549456904,9087.13746629961 53375.32806999993,9045.210038196092 53398.62975888897,9035.05600560407 53513.762821146636,8966.48929193613 53539.257198960055,8946.066014206066 53634.349061146844,8845.49534431062 53653.72674562677,8818.340826364321 53751.108290017815,8643.906784232851 53764.49889680883,8619.277123405394 53804.37857225782,8523.20931829486 53812.81727888889,8494.873178194248 53833.999387902324,8368.32753490089 53835.11583007127,8341.644516734843 53833.74044788454,8288.260365074995 53831.256487848936,8261.673510109453 53813.50526125345,8169.60263052673 53807.56653456902,8149.175026509474 53825.334072346566,8063.184989784873 53827.639774462325,8043.5064127653895 53830.09140340448,7943.126599390671 53828.133478995645,7917.063232281216 53811.04547671997,7819.824367036315 53803.01950125338,7791.831705656514 53765.477859013365,7698.950950753671 53752.92873446224,7675.160365944175 53668.937505591195,7558.869933465525 53649.503314515576,7533.378223617125 53548.2219412179,7433.8146651306015 53524.28091224015,7416.020870064764 53430.22481012461,7361.9114904187445 53408.751429999946,7352.307639018429 53256.5220790311,7308.836682205234 53224.23118111107,7303.977374349866 53075.90136777784,7303.577233245684 53048.975101182354,7307.17056036499 52884.26128784893,7352.822127709893 52870.377267795615,7358.685813612567 52815.04391227558,7350.061819859926 52781.2564633867,7347.342371086619 52654.91761894233,7298.3830311809725 52625.272627795464,7291.425053302984 52504.985814497806,7279.0848797909275 52474.879741182434,7279.868713244185 52385.35436120012,7291.49855534613 52355.32110566227,7298.61176822675 52240.14755671995,7342.581410278304 52212.99468120013,7357.297288262314 52088.26598345779,7451.199879255291 52075.32859451545,7463.628280246485 52051.824763475684,7488.2477744209755 52029.77699672,7514.189576667704 51974.29800564458,7596.66561290712 51959.16006345791,7625.691401340737 51914.44179231103,7751.731312119955 51908.21995010669,7781.896438156749 51899.15821456886,7907.374036507361 51901.05934111122,7938.8248615215125 51883.19481005345,8078.1535850800865" stroke="#009edd" stroke-width="5.493197943020128px" fill="none" stroke-linejoin="round" vector-effect="non-scaling-stroke"></polygon><polygon points="57714.73372560879,13247.087597458536 57721.546265626675,13345.527497541247 57727.45266121789,13377.916681419563 57766.385705555556,13501.523128875851 57779.06415448,13529.331493073463 57849.21214125329,13640.454693533626 57866.14606111124,13661.146553509025 57902.72505232901,13700.099039469176 57922.29672336893,13718.278062832687 57981.27096777782,13764.285686090152 58000.59214566229,13776.935706208315 58079.36467003566,13818.674078644457 58110.01279888896,13831.039225556277 58225.218678924604,13862.085740445327 58252.71146783116,13867.816888501024 58324.91437229328,13876.759349369182 58355.16608116438,13877.970657657337 58462.16772781336,13870.280196369014 58489.878970053396,13865.093695634598 58542.87429236446,13867.508133374475 58560.98960784881,13867.304735417158 58709.51369901339,13896.30230978402 58738.462843475514,13897.489021371672 58825.35047227552,13895.65173980387 58850.13269222225,13893.359378572466 58966.25287227554,13870.434720019082 58993.28457901336,13862.939428983693 59104.01595224009,13820.94224837955 59133.56395010662,13806.763943163707 59228.97125890665,13746.098959202674 59255.614701253246,13724.26169394658 59327.59099679103,13650.129795473098 59343.279150106595,13630.9337889546 59399.77759007132,13544.536326598347 59413.92841446225,13516.508674464218 59446.89069229341,13429.625831910438 59454.63355224009,13400.441399487987 59470.24102345784,13292.425130622025 59471.02570783114,13266.239410162583 59461.90746569773,13157.311446792126 59456.41351000022,13130.114928751631 59407.941336773336,12982.356242185022 59401.46055455122,12964.722300779336 59371.75905680901,12898.552466131834 59359.50935895997,12876.240489617368 59267.605167813366,12741.783760955004 59251.05135675566,12722.576873311918 59154.39799014223,12635.448324322148 59140.6677612355,12625.441855504847 59000.50140333339,12544.344847231958 58977.22418121772,12532.238327980653 58891.48532568,12497.88798553319 58861.84033453348,12489.515641186765 58753.471170017845,12472.226305307093 58728.95604567998,12471.111500299157 58613.94444347569,12479.516161667154 58590.31886111107,12482.005859011231 58475.73630125332,12508.08242076417 58453.049485680065,12516.137164457148 58367.03537894238,12553.033811468777 58338.960047813365,12566.393155039143 58265.705363368965,12609.268122454378 58262.80080784904,12611.188254790002 58177.18341236457,12642.900563571748 58155.257105662255,12653.52547239358 57983.488123475574,12752.342706938362 57960.33207014226,12768.888967253413 57882.40073673788,12838.553885989502 57863.44393901341,12859.50000934364 57793.44158779562,12958.386017198354 57780.76343014219,12981.965921050723 57740.62452340452,13080.934080310195 57731.667936737766,13113.458453032625 57714.73372560879,13247.087597458536" stroke="#009edd" stroke-width="5.8022087405690765px" fill="none" stroke-linejoin="round" vector-effect="non-scaling-stroke"></polygon><polygon points="59510.53343007108,9445.723298250261 59521.96582118224,9575.793657891889 59529.27177446231,9607.661075725831 59549.09452120017,9669.926632889343 59560.21146569797,9700.047520632128 59609.29851224006,9801.931675227388 59621.30558125337,9823.931232794857 59709.916661217925,9942.539163759473 59723.21784777788,9955.978717727208 59779.71657901339,10005.85694082771 59793.55195679108,10016.623066829663 59899.35618790239,10092.088352242106 59923.37789897784,10107.083107851184 59902.584345626645,10191.548124094814 59897.932163439924,10223.050792194583 59897.737885609036,10366.402373587684 59901.81568116462,10395.424387008097 59918.118707795744,10467.61048948791 59924.93124781328,10489.616004487703 59973.654496737756,10599.719719331333 59984.52852112893,10626.63542711173 60032.81486338668,10769.115337672556 60046.1486723111,10794.879283290327 60091.30385012436,10865.033499584912 60108.48884567991,10886.894237545697 60184.30817225785,10966.345157085598 60207.18926566222,10985.402905034454 60293.60765670217,11042.248930713831 60309.38493897789,11050.46594211724 60417.35739223997,11092.170368577092 60447.81153453339,11099.752091262577 60554.63521453331,11115.404130629118 60580.566499013454,11116.6014289897 60724.786185697885,11102.488549669011 60737.229870106676,11099.58117238208 60801.25271668448,11080.02827287381 60832.329887884436,11067.52752030958 60919.3471323289,11020.805676449003 60942.17958345788,11005.274593591603 61072.21582338668,10952.05959908766 61098.14710786671,10936.731854383805 61171.63626555563,10943.239209360589 61183.869652222376,10943.89070558545 61386.133263386786,10991.177060333808 61401.716267831274,10994.345300968533 61522.933692328865,11009.648105519445 61549.835783422226,11009.998466738587 61664.742236755555,10998.637338370929 61693.26263014227,10992.382376454916 61855.775598960114,10930.753705804615 61880.08858114679,10920.54015996601 61922.38755444449,10899.657202547096 61948.739725679974,10884.605700097949 62030.27117001789,10825.090143512964 62047.84472123557,10809.296582224226 62087.39263888891,10768.87077724011 62106.940425697714,10745.851414252102 62166.950138906715,10661.704740849818 62178.05892781331,10646.756625140115 62225.47145673772,10611.059641027212 62247.7700079201,10591.45087812809 62293.539767777664,10544.52624129728 62314.406138906605,10519.2141584614 62351.76981449779,10465.264090443408 62368.15381449775,10436.797561823361 62400.096643440076,10368.36586016012 62411.64233901352,10336.328481651057 62429.12647000002,10270.491500800621 62435.0410211822,10237.376193375589 62441.48947231122,10159.873130375316 62441.521803404554,10134.399253832205 62430.631467831205,10030.534556102444 62425.008479031036,10004.33304095632 62339.7307056624,9762.765182940784 62337.602678924566,9757.312033602124 62318.01469670236,9623.916596637195 62316.000265697716,9616.3838894176 62299.16304784897,9564.045875616692 62288.9362278668,9538.528408273793 62246.459287920035,9455.490888326342 62228.54611458676,9427.37020536451 62117.88726786664,9290.028436399094 62105.467758959974,9277.226369430107 61918.40704343992,9108.37416319616 61899.636076684576,9092.430377889745 61826.52702779544,9040.292165475577 61797.82895903115,9023.71953412224 61675.17935448,8974.457855106244 61655.712832311285,8969.4172798293 61534.5763811823,8952.876646902034 61503.31337901333,8952.664356531779 61452.55123231129,8955.657853138138 61421.43386569782,8959.295551654388 61329.86929666682,8980.175201322389 61313.14567455114,8985.58246329226 61204.121150035644,9033.963203453546 61199.57411672,9036.475296466815 61076.71450569772,9125.565205138613 61062.07813236455,9139.102682518685 60973.44258562673,9172.056973963481 60943.13407888892,9187.102649278735 60840.0404167379,9256.383963672415 60818.6561655734,9275.024722156319 60789.51303455117,9222.224907792668 60774.31829449779,9198.976136198646 60732.68283679115,9144.990771410958 60710.651381217875,9120.876040549978 60633.156954479986,9049.907690634805 60609.97672564443,9031.377997574542 60535.28986114671,8983.17656329702 60508.52525001776,8969.335653299262 60290.347167884465,8888.677366572927 60262.304167848895,8882.763766097982 60158.320381182246,8866.385018375498 60133.14960557339,8864.598783477995 60010.89671227557,8870.920041469537 59979.45574345777,8876.760284846678 59917.74675458681,8893.563209704967 59887.67301236454,8904.476495173556 59829.51578342228,8931.180864357186 59801.60239903105,8946.88992792301 59765.36332120013,8970.3959169359 59737.18284120003,8991.14502591567 59660.68368784897,9062.981169832317 59638.17483892455,9089.84528586155 59617.28429229336,9118.005342983612 59598.100885644555,9147.363790707284 59553.876319031,9235.321062265517 59543.90028347552,9261.880225601111 59527.807554586674,9316.30089784335 59520.81704791996,9348.24810596605 59510.53343007108,9445.723298250261" stroke="#009edd" stroke-width="5.198059729573001px" fill="none" stroke-linejoin="round" vector-effect="non-scaling-stroke"></polygon><polygon points="65280.177234515664,10706.572787548503 65285.25816777791,10774.768366912642 65290.73581229325,10808.52274871021 65313.30932340457,10892.742379956675 65324.31296344008,10921.93289378364 65366.28833453334,11005.421188692999 65383.141572293476,11031.62893145185 65447.26170342229,11110.379512594867 65457.69066555565,11120.925649763696 65532.10257012455,11183.18979502123 65554.65977005346,11198.327638691553 65645.14809232892,11245.996849005023 65667.45450783113,11254.94557430895 65750.68522783113,11280.23692930388 65781.30102559109,11286.319477110257 65892.70406999998,11294.950789468741 65926.1355855912,11294.26661799426 65992.60219679121,11287.158133912628 66025.42670338659,11280.741708437883 66123.22097894235,11249.473804718786 66141.91912792006,11241.25761124093 66215.14119000011,11201.04749739272 66238.04645890673,11185.486073839798 66324.5134922223,11113.840663891664 66342.41064564453,11095.370932750258 66387.87311448005,11039.984678162873 66399.32181677339,11023.631704193336 66439.73568344,10954.055123125523 66452.43830786669,10926.559106144909 66504.58399234677,10776.128398343892 66511.76848557335,10750.30722917695 66529.58466562675,10630.561973032862 66530.21585012448,10601.039444840484 66526.84992116457,10539.76037161026 66522.6183344624,10508.183223015309 66490.61084333342,10389.436064269888 66480.14955010673,10363.876587852516 66444.08843892463,10294.300575910747 66431.70126111119,10274.68773064317 66358.72182786674,10184.311868218967 66337.35388788464,10163.670717498491 66267.44066562667,10108.631538738817 66249.34952564444,10096.94521438118 66165.75471675559,10053.932278210617 66136.49799000006,10042.661519888527 66030.5402590133,10015.115315440838 66004.02643231116,10010.184525688033 65855.80992343999,9999.817956993618 65827.08738790231,10001.953301020694 65761.66469236463,10012.132374569628 65729.47923458659,10019.997091060417 65638.57818114664,10053.256023549038 65611.12587892462,10066.816847141396 65533.49397222232,10115.876107125863 65509.31847000006,10134.88829983442 65443.17575227562,10199.191519980348 65422.13141449785,10224.142935370532 65371.60403231112,10298.439827888651 65360.01785005338,10319.4459556746 65321.254616773454,10409.462645652966 65311.76383888896,10439.592178654246 65292.53208123555,10526.807097273093 65288.931679031,10555.467444750277 65280.177234515664,10706.572787548503" stroke="#009edd" stroke-width="5.04069096233165px" fill="none" stroke-linejoin="round" vector-effect="non-scaling-stroke"></polygon><polygon points="68025.01103675563,11988.635213773785 68027.43004333344,12051.547038490331 68031.14375000016,12082.822978663637 68052.20439895999,12175.654160947684 68061.38759455108,12202.744758231362 68096.62324340455,12280.856684703816 68110.8390212534,12305.650873417762 68195.25084560888,12432.80519758808 68217.05569225794,12459.045428581157 68265.01843231113,12507.480510091322 68291.01437897794,12529.51292787146 68370.5395479023,12583.047072076151 68397.92689666664,12597.447073732706 68484.05430786673,12631.649118650384 68513.82862338668,12639.947202412906 68620.15889012464,12656.45420709261 68641.96373677335,12657.78824396836 68723.51149229333,12655.624204224063 68751.47351896018,12652.321175127436 68830.65877449792,12635.334395143931 68854.26804568002,12627.9963431496 68950.00711227569,12586.163090477145 68959.78100567998,12580.687575184362 69051.53140568011,12516.194279766205 69075.05154790229,12494.942556256574 69118.50745005335,12448.760753467242 69138.42719007109,12423.846969180653 69189.75556781341,12343.081477973756 69202.95189677342,12316.473143201234 69258.68167227553,12176.752770129504 69260.49396112899,12170.950347099715 69285.38162121782,12036.156992643868 69286.62767903123,12007.240472084522 69285.60007455107,11958.871020713676 69282.49308560905,11924.556688871206 69261.51341001783,11824.099834076042 69250.84968336893,11791.996364680323 69212.9762833335,11708.511455809494 69198.40486345778,11683.487858170614 69140.68454118213,11604.930548465374 69118.40230118227,11580.694783582556 69069.9621677777,11536.162911348074 69042.39685236465,11514.865140907787 68924.04349670222,11441.648175129056 68892.72369666677,11426.520726208837 68814.34759227559,11397.966886008362 68790.80327455117,11391.770773853845 68681.77059444448,11374.175656353851 68649.02706121781,11371.9039986305 68583.4182434401,11372.913787555968 68550.75539231114,11376.194937323424 68456.64249232889,11396.33043956969 68426.49593232886,11406.336975161597 68339.91559455113,11446.012188967055 68313.48274121794,11461.741760675883 68235.64053677337,11520.319816305622 68213.94083899574,11540.46949853553 68159.9260677956,11600.990193368372 68142.8138900178,11624.12662724909 68096.6474189068,11701.738722994021 68082.84437222232,11731.49972170082 68051.55719455134,11817.815805161692 68042.2283634044,11851.457108862378 68025.01103675563,11988.635213773785" stroke="#009edd" stroke-width="5.176778922446259px" fill="none" stroke-linejoin="round" vector-effect="non-scaling-stroke"></polygon><polygon points="74464.98297232902,14694.02492461112 74470.89723224007,14774.881038653228 74475.12881894223,14801.336481318605 74508.0910967734,14915.986335679394 74518.18830111099,14939.775224772544 74575.9895967556,15051.889830612665 74591.26501890668,15075.684861662652 74631.92180568003,15130.682996551768 74650.70063675556,15153.112161580502 74702.2151367378,15204.744948374195 74726.14801012457,15224.988134488725 74816.48254125332,15284.644340009923 74838.96692340448,15296.113905416016 74966.64066335105,15342.690348577016 74993.8098500534,15352.104453033564 75049.27282121789,15367.131423302897 75077.42883444438,15372.71975662632 75306.0766566667,15400.823755241086 75340.38198559114,15402.367093073466 75431.17759888899,15396.713932272949 75459.15593673778,15392.059631051816 75563.51196788461,15363.208380623575 75587.93825453334,15353.404247264756 75664.73683458683,15313.89507334205 75686.59818783111,15300.605854986265 75790.59828568017,15217.815225103608 75804.63580560894,15203.363752784528 75875.01011003566,15124.7769225644 75892.81813449773,15100.405797306943 75964.52762569778,14972.776555288903 75974.49550566217,14950.686235155998 76010.22456777783,14837.850292491756 76016.42223448004,14814.458465103497 76037.71735668462,14680.227509539138 76038.6074811999,14648.082080624154 76031.63299444446,14552.374001584103 76028.32386335114,14521.680841300957 76008.89782786684,14431.223974467634 75999.30190111115,14401.894148573658 75950.99138335115,14266.087938771205 75936.57346335112,14234.560893877497 75864.3222078844,14116.412671536586 75843.9413856978,14091.67028376591 75775.66248564445,14024.837594071956 75750.84764333349,14005.247220153717 75635.74720344006,13938.12674134472 75612.09744557331,13928.233784680051 75498.32374559122,13896.28592115952 75474.78758345789,13892.400056827842 75337.85783014225,13885.303166391532 75307.82428333338,13885.417009525147 75185.63605222222,13901.521200763324 75153.5638989067,13909.991731754359 74957.36863007129,13983.518896419351 74934.84376123559,13994.777567529149 74866.8398211113,14036.632095036184 74843.20666569786,14054.336132700759 74760.50984564447,14133.790802945994 74742.87163224001,14155.395228647074 74685.51569012448,14199.286213912856 74664.00997890672,14218.898691186594 74604.47736777773,14284.878666392848 74588.01268568006,14307.09917009811 74538.46426569787,14391.150095105433 74527.8328701423,14413.921922626934 74491.17290555546,14515.26112190794 74482.64536123548,14546.002954935917 74464.98297232902,14694.02492461112" stroke="#009edd" stroke-width="6.371738862866096px" fill="none" stroke-linejoin="round" vector-effect="non-scaling-stroke"></polygon></svg>