<svg viewBox="0 0 401.43755610666926 251.41074027489162" width="1000" xmlns="http://www.w3.org/2000/svg"><polygon points="8.052549999999997,154.45395112332312 24.480823208905008,153.11717824542552 25.93892639104854,153.44681918828405 23.056507475535568,162.2850165534544 22.24036582219526,164.31877089359455 88.70377303995303,194.28200070796424 90.37566921776272,195.01308152735123 91.2095784088375,179.9261884328223 90.91830729772448,177.95039746291127 103.74617830219324,178.79033844758646 105.52992258672714,178.53266584056087 111.17941705775559,152.50570207738906 112.36314285334777,152.58765728554113 143.66488408004045,185.35451328932663 145.1197832799295,187.01703582434106 151.24696237323917,205.53108644541476 151.05705360879767,207.51390955437796 171.21272322672996,205.5442871182238 174.25679760889727,204.49870030440047 166.8221024977753,216.358554958402 167.00618583997823,217.4113674050675 219.17313311107102,217.43276042832417 221.7616594754869,217.70586266674923 216.11449517330732,231.0838105308137 215.92225624001696,231.79383100578684 222.30051103104017,237.04882063848322 222.0593385511089,238.3491219383211 263.02574651558064,243.20527112662216 266.9701399021793,243.35819027489174 289.8165720444882,219.24615286078892 292.5419958310446,215.56154568665784 317.32042925336975,227.7280220924656 320.06274676437135,223.36400861156994 312.233088026616,216.70994817987207 310.8542105867306,216.15372704106971 319.7289500711264,205.39316212593235 320.78859437336325,202.04881196234032 313.9076056444097,196.35460387680337 314.05382374217845,195.91623151986983 334.9123305510508,179.30477224311448 334.8861161510937,177.5261008360901 333.2989798666455,164.9725549006614 333.0805265332816,164.48449348836562 314.75462203552127,164.63428110929794 314.42257296885475,164.6033219742601 327.0142231022252,147.6880474062416 328.48951127994917,144.54041886106256 314.9389966488594,135.4182762203052 316.256415884454,132.2208367197088 386.90247625773884,140.4429240143288 387.1547170399932,140.5053045021848 393.063442799939,129.980506422791 393.38500610666927,127.33852623296093 348.4643015377002,120.05265075373586 348.1337088265933,119.83498146231409 353.74155152889546,102.63659612878814 353.9932097688794,100.51209159676341 345.42401367994137,91.51835314944742 345.1644911200052,90.53643368339522 354.3159381600341,74.88341827513773 354.7009985688852,74.20932219629299 314.4161650044622,61.5864865178371 311.1760651643632,59.95033326859243 245.2777239022322,11.755715496117546 240.1295070133416,8.05255000000011 170.64183184886463,38.54665484445991 168.70575277330465,38.863258992765395 201.86959021326732,71.30840781852726 202.26134985776264,71.71560397963162 198.3862789955234,72.48125822758425 195.89882370664384,73.06244311141904 203.64838288885187,89.36504713792942 204.20296308442596,90.14020332761697 162.84916454225424,107.73623298327561 159.0929322932858,108.88975987394929 150.5592712799331,106.21245691725176 149.29049431996066,103.30468361077487 151.963198035584,77.02001573009306 152.1231058754271,74.28265301985789 143.39400194664597,78.21014286092372 143.36225339558553,78.19465713072691 138.4814233865833,58.95323939700734 138.0972367911378,57.58991450721055 113.27074363557733,56.47164463185595 112.70829911993462,56.41926117669914 111.94837279103342,70.18109902551055 111.47301833783388,72.77731655250659 90.16711910218112,62.01055429239182 89.37194896882977,61.914899979463144 72.81289503115806,89.43928372013738 69.02491423101276,92.58680036137935 52.82062850657496,81.19886810528237 46.63315629328247,80.6304578169727 48.92400358219277,67.39218023568515 49.31838466667216,65.32472245474469 16.617668293277916,71.10572040660895 14.691201164364998,71.90098273961462 24.348003582191836,83.09173650746357 27.186731831032034,83.53990120054345 15.633171937755492,105.61314457163803 14.61605321776699,107.9493604030356 18.949876079895716,109.04049665001344 19.987675048854385,109.80601926611394 9.351619155589674,133.93886297112454 9.001511279937063,136.44825880914118 17.963923368813653,138.2054105768691 17.926058124379438,138.86109455870587 8.052549999999997,154.45395112332312" stroke="#009edd" stroke-width="4.866543359110585px" fill="none" stroke-linejoin="round" vector-effect="non-scaling-stroke"></polygon></svg>