<svg width="204.86445112875663" height="304.82233406812884" xmlns="http://www.w3.org/2000/svg"><polygon points="5,87.53843381843762 21.447788373217918,103.43726204655832 21.72158321761526,103.73361042444594 18.930040888721123,111.62006883765571 19.435104995500296,115.11913844262017 29.086955804377794,139.14838174241595 29.199677724391222,139.38773558591492 25.38723015098367,149.1080407369882 25.39655082661193,149.31090400496032 33.75341027544346,153.112776297261 33.85156863986049,153.2400084292749 38.440544995479286,169.3600823394372 38.4597688887734,169.46017018915154 53.10633671109099,189.9300733875716 53.73140451544896,190.70890552178025 79.17801386665087,207.81405306525994 79.29364849766716,208.6577564877225 67.04162047989666,219.19332604052033 66.29567516432144,219.33252793049905 58.31368163542356,209.2337145373458 58.27086478215642,208.2490255011944 43.74313557322603,206.68303177057533 42.60106154659297,207.67173060990172 45.32968931552023,208.68355232442264 44.39645667548757,212.4181350194849 37.31827740429435,219.07813974574674 35.52754261321388,220.05077270953916 39.14105201768689,229.12891852500616 40.1363254042808,231.41829744563438 46.15631672879681,214.77617769048084 46.81662833772134,214.65387319173897 55.00018147553783,225.3777189734392 56.87596743099857,225.74150139972335 55.347376639954746,230.45416407188168 53.827815253287554,233.5751303897705 62.96935907553416,234.78828407643596 63.597339591011405,234.83142028353177 53.357121137785725,244.09750485880068 52.08950926212128,243.85604106227402 59.442065919865854,264.22300678200554 59.21487445326056,266.7863642612938 30.774580622208305,272.1437520288164 29.341235484345816,273.20596577157266 23.306971875485033,282.4539901363314 22.15441208879929,284.1457142386935 22.372282879892737,296.8819133617217 24.55390350217931,299.82233406812884 73.28297784877941,290.5954880308127 74.62923292443156,290.4069814250106 82.79851377767045,277.693084412138 84.27846229332499,277.44632193271536 117.06015203543939,275.55669020477217 119.50537301320583,273.5429919192102 128.09612316440325,276.3965779262944 122.86314638215117,284.1265962725738 147.76070968888234,281.0001196489902 157.7722803199431,279.74453694652766 166.24215295992326,266.435543980042 167.17975466663484,265.77258550119586 193.07026119099464,262.3830624661641 194.84439352876507,263.0513668744825 197.28728433768265,255.01779597450513 199.86445112875663,245.9740653289482 183.48132494208403,239.91743133065756 183.37704988429323,239.87251734512392 185.2641954132123,235.65234072168823 166.10321663995273,212.79439172457205 165.46212892432231,210.8793006875203 162.8535048532067,184.40655798942316 163.25050737767015,181.16435289441142 174.57017656881362,157.11610464123078 174.6587229865836,155.7975366814062 170.61821013328154,129.2465574144153 173.14498702215496,123.89282049715985 152.24395463103428,107.03123797843 151.2990711465245,106.35534180921968 150.77478314656764,94.6716666725697 152.3269668977009,91.07882448844612 139.2142327465117,62.340657337917946 139.07442261325195,62.100329837645404 125.5836185598746,57.6346412349958 125.42545834660996,57.526046526036225 117.61211079102941,45.57763182860799 117.52006911998615,45.40315864095464 102.99758279102389,44.532570980431046 102.58892942219973,44.52678485470824 93.44359907542821,29.021648326015566 93.29971114662476,28.929508906556293 42.46503793762531,5.638812756864354 41.3279155199416,5 34.824122879887,13.261687242542394 34.284980053198524,14.07185814238619 24.240787057671696,14.310902504483238 21.566626986605115,12.829446496267337 11.752829439938068,34.28465933079133 11.66340920876246,34.48451240040595 5.723226168775,52.24089109105989 5.487587839947082,53.820442593772896 9.327706168754958,70.86855380464112 9.326249813195318,72.19830986624584 5,87.53843381843762" stroke="red" stroke-width="3.6963426307467007" fill="none" stroke-linejoin="round" vector-effect="non-scaling-stroke"></polygon><polygon points="100.84596309321932,120.78009202767862 104.01033244433347,121.65616312599741 104.22645560873207,121.18542550737038 100.84596309321932,120.78009202767862" stroke="red" stroke-width="3.0571646122757383" fill="none" stroke-linejoin="round" vector-effect="non-scaling-stroke"></polygon></svg>