<svg width="12703.981247715536" height="26508.1314454088" xmlns="http://www.w3.org/2000/svg"><polygon points="5,13864.349020673952 48.06239487999119,13989.286290642747 78.49993471999187,14103.723945826641 14.999919786583632,14238.848984386714 119.5706177422544,14311.178112825844 198.55780892446637,14405.385110954696 164.01101624895819,14416.721341572294 133.09258780442178,14470.683865591942 128.89624490658753,14487.179169258045 200.65874744881876,14624.288165060687 222.0462025955785,14764.826316132385 330.84499200002756,15030.594616987044 630.0549885155633,15545.632197166677 618.3508414578391,15719.933793319564 666.8699093334144,15885.03314066003 749.9908201243961,15897.973945692705 779.9946572799236,16034.818604553642 784.5647010133835,16050.08983417874 903.8926498133224,16354.841974727693 908.4391005866928,16370.023725181236 923.1340194133809,16365.837063793908 1110.479598080041,16378.35267498641 1122.526571235503,16382.65436264145 1226.9472645688802,16432.975424663106 1239.393279146636,16434.27684129658 1269.6650857244385,16452.819685300405 1287.6161243022652,16462.551704667858 1519.8757083022501,16570.9747052826 1537.2092521244194,16575.089338385267 1546.8299369243905,16586.86947331048 1566.7062775467057,16590.94563501759 1724.9276578132994,16667.812137586414 1738.8649804800516,16677.20352004579 1730.0948073244654,16841.007355699665 1735.6406092799734,16850.925092064776 1870.8836115910672,16996.03687939589 1889.4754466132727,17006.793585466046 2117.3047970134066,17286.474358917272 2336.9872944356175,17636.523382382642 2428.5311832177686,18658.659987384744 2436.6748322133208,18746.689924760314 2884.0526953244116,19060.297552107775 3110.9555123200407,19221.3834827299 3728.438908302225,19665.34938341519 4532.570288639981,20187.023041466076 4580.3865193245,20448.93783383345 4596.828773546615,20479.630780997977 4854.648562631104,21588.725033577357 4861.973448533332,21635.96250618907 4885.254748444422,21724.512659791333 4902.854805333307,21834.80020483368 4913.779802168952,21873.081501917855 4976.580475164461,22142.2933678939 5357.559010702185,23893.82016456232 5366.8855116800405,23907.442727756395 5917.409757013316,26411.48709174199 5938.850223502144,26503.1314454088 6045.453119999962,26472.409705569036 6080.9532430222025,26458.34751141985 6251.078291057842,26353.347515267495 6256.64069546666,26347.597448377346 6296.953199786716,26335.409971291316 6335.328168675536,26320.534806251817 6383.953259235597,26290.659682721016 6434.328306631069,26262.347201221215 6732.703228871105,26138.222433396324 6865.9533542399295,26139.284830147866 6954.890657848911,26074.097358115658 6966.5782024533255,26057.284957131196 7025.328168106615,26003.659877015394 7060.078268017736,25982.347189369844 7089.578206151142,25915.28481371212 7133.2033368177945,25858.78486816364 7152.078287360026,25847.347455951443 7167.578279537847,25840.284712257853 7224.047009848873,25724.15992820938 7243.422072888934,25690.659754210094 7272.609477119986,25658.659823420923 7410.234494577744,25568.22222023009 7425.484576142277,25560.22242451005 7602.484496213379,25256.659962870996 7810.828391822288,24933.597268583428 7860.671869440004,24897.003668790043 7917.859456853359,24767.81610298599 7939.109432035475,24744.1285325925 7956.8594935466535,24683.878699097375 8015.234593280009,24571.065998674487 8035.422011448885,24502.25346264406 8052.422049848945,24453.44108216645 8073.734648320009,24348.87853277923 8076.421915591112,24309.75372345274 8088.671904711053,24278.878610626038 8112.859640319948,24250.50355675217 8088.172083484475,24207.878449436335 8052.04689265776,24046.628505146597 8038.046946702292,23941.003643438802 8024.171956053353,23755.191175505286 8079.484631324536,23583.62860013201 7996.609553351067,23479.69118224719 7971.109641386662,23318.503471464326 7986.297099662246,23258.003513830947 7938.609610808897,23220.815949801705 7924.422086257837,23168.378467683913 7878.421930951183,23058.066103441233 7816.109428337775,22928.12860094238 7798.8594793244265,22851.440962354187 7707.04703857773,22610.31625296088 7670.1094926221995,22474.378757171216 7660.859595946618,22387.816236495506 7636.98439423996,22353.44122571824 7621.663825066644,22315.87929029175 7612.801027697744,22262.95387886808 7613.363472213387,22259.453827298945 7627.738575360039,22224.203903050628 7657.800958008855,22195.203924963425 7661.113293084432,22189.14139203576 7668.363322311197,22168.016424146772 7747.488575999974,22062.01622017409 7841.238552177791,21964.70395752223 8000.613366044476,21687.266288732528 8027.4260369066615,21600.891335468972 8130.988354275585,21495.891162379063 8347.488423537812,21367.82877945708 8376.488540444407,21364.266471993877 8384.23839089775,21366.20363790315 8394.613467875519,21378.141469998576 8424.176029297756,21377.89145689027 8448.300850346684,21383.766370371042 8481.30099342228,21376.703720692836 8488.050910151098,21376.76639546483 8492.988538026693,21383.141348312318 8498.425987128867,21393.89121372113 8516.675869866624,21384.578725968255 8525.113411413273,21398.766187959525 8528.863526968868,21402.82878050831 8560.80082175997,21396.891206731438 8589.175870862207,21396.953877515858 8598.363435519976,21393.82888479845 8638.92585045332,21372.641136103193 8647.36339199997,21364.20379475219 8658.425868800026,21332.266245418054 8675.9260196978,21320.953887668846 8681.425800817786,21322.453890121018 8691.488343893318,21334.51633744157 8698.363507200032,21357.20373067737 8703.175888497848,21360.078714526142 8751.113579235505,21365.45391225972 8757.301051448914,21366.57867130835 8814.800881493371,21299.391296200396 8858.48834417772,21234.328782370372 8863.050814862247,21173.641269807587 8926.550829795538,21081.203776813578 9023.113319822238,20992.266376940417 9072.17589959118,20892.141249229433 9065.238404266653,20846.89126023982 9050.488435200066,20821.07880422601 9040.300936817774,20810.51635609538 9013.800799857709,20798.266136180493 9009.175997155602,20790.828760951 9008.73850794672,20789.26618992677 9009.80106495996,20788.578916999046 9014.863356871065,20787.703954292287 9010.988577280077,20783.51645214233 9016.738560284371,20784.516324550204 9017.550915413303,20781.078863859933 9017.800826026709,20780.141430472606 9012.584451697767,20778.203418802237 9013.760021902155,20775.58598613931 9024.072766862228,20772.398577180284 9027.197523342213,20775.148487084254 9024.322677475517,20770.398409295885 9026.010302293347,20768.461024100194 9037.822802204522,20766.52328386804 9039.885292942286,20765.585807256808 9009.260174506693,20767.08604301483 9007.197683768929,20764.89848277479 9014.322757688933,20759.835981309356 9014.447712995578,20756.96102905902 9027.385101937805,20755.08601625258 9030.697728284402,20753.460813125188 9024.822789973347,20752.02331123955 9019.697583502159,20749.96090153983 9028.01016974228,20748.585839864507 9032.635263715521,20748.71109529375 9027.322769919992,20743.273591240286 9031.947572622215,20737.835993504734 9036.447711288813,20745.148331051285 9039.697714346694,20745.39850141952 9042.760138808866,20738.898468688014 9044.635050951154,20739.523391858733 9039.322557155509,20737.585817141924 9039.760046364507,20733.83589335397 9049.572678826633,20732.773401126673 9053.135215786635,20735.773491093365 9054.572638720041,20729.585902981693 9053.072592497803,20728.960960132477 9058.44770958228,20724.898286658397 9061.385178737808,20723.273271262122 9042.260026311153,20723.210810102115 9042.19769429334,20721.086093716964 9057.885265066638,20713.0857612525 9060.010087822215,20712.46078572428 9055.010127928806,20708.523514393426 9054.885172622278,20705.648437859258 9047.760098702158,20707.02334343124 9047.635143395513,20706.08603326819 9052.697726577753,20703.14846939093 9054.94779591111,20701.648272871622 9054.44768341328,20698.96087486163 9054.82254933333,20696.773528778518 9051.197680355515,20697.46100165142 9048.510121813393,20696.96092792286 9059.072777386638,20687.586029093072 9058.572664888925,20686.585849536466 9069.01007388439,20709.835943629383 9067.197785031167,20711.210830954195 9079.385150862276,20708.023458198586 9081.19773098675,20707.52340121119 9081.885130808922,20705.023447599204 9081.19773098675,20703.77346336504 9071.822587733273,20702.96107392182 9070.447788088815,20699.148272706778 9071.135187911103,20694.335956874012 9071.44772181334,20691.71096398402 9081.822798791109,20686.335975768452 9082.760109226685,20685.335792248545 9074.385190968867,20686.523381113017 9070.01029888005,20686.21103881026 9069.572518400033,20680.711017746537 9069.072697173338,20678.210851655516 9081.635220195516,20675.273371448857 9083.385177031043,20677.836030978302 9084.260155448923,20673.7109146507 9083.447800319991,20672.023507535516 9093.322764800047,20670.52350624377 9094.572609137744,20669.586087626813 9087.635113813332,20667.023361070314 9087.322579911095,20662.648554056243 9069.01007388439,20669.711031169863 9067.385072355508,20668.39843499387 9070.572743395576,20662.960919691483 9072.447655537864,20662.335844852205 9065.572783502168,20659.58598140959 9066.572717226576,20653.8359398123 9074.010033777799,20646.523545164557 9071.760255715577,20643.148430976376 9079.197572266683,20643.64859002724 9083.135266417754,20642.3358853776 9079.447774151107,20631.71080936736 9078.760083057801,20628.52331973915 9066.072604728863,20627.585776269494 9065.947649422218,20623.39855157939 9069.447563093272,20611.83593372983 9070.63507541339,20611.210757539782 9071.635300408932,20617.33578286675 9083.385177031043,20623.46103250736 9085.072801848873,20625.523582783004 9085.010178560042,20613.148422049417 9086.01011228445,20611.58600072848 9093.69763071998,20614.086008450075 9099.697524337796,20611.39855084743 9096.32256597327,20606.648410070862 9095.572542862152,20603.461010378203 9109.635112106684,20596.335936297837 9109.01004430221,20593.58584053727 9090.32267235557,20589.64845817472 9088.697670826688,20588.21089621907 9095.38525553781,20581.586078288325 9096.603933866601,20580.39843748958 9109.57278008887,20583.711048013298 9112.94773845328,20583.773536807566 9117.135051946621,20571.585927426408 9119.697655182215,20568.336024678603 9107.947778559988,20566.085966724728 9109.57278008887,20564.64829729515 9129.94777685334,20565.5860279678 9134.51024753775,20566.52341248648 9139.19767352892,20557.71085781086 9139.760118044447,20554.273328117502 9186.260094577796,20556.33598778321 9201.885042062262,20557.460881888343 9219.697726862272,20562.16437912907 9284.316805404378,20587.292459963355 9324.34328149329,20589.08229233086 9326.575583288912,20588.731742805627 9392.956269511138,20534.942663074355 9399.281221688841,20528.1323164567 9405.290435982286,20525.76521263679 9434.056370915612,20530.894315738755 9484.525207608822,20513.069155716046 9538.768917902256,20484.075446065166 9730.531622968847,20183.425382647838 9731.850207288866,20115.838119201828 10100.327386737801,19887.554000384407 10220.420504746726,19790.984594764013 10459.909437724506,19676.223787290568 10510.072148479987,19657.095189959917 11034.360148480046,19400.631435666117 11084.522859235527,19378.614901573164 11158.960104391095,19336.48344406014 11175.949948302237,19324.99393962632 11207.506260480033,19312.54563717876 11221.260082346736,19302.96862114413 11343.430837191176,19262.74401139305 11362.04014847998,19258.913318168372 11425.766481066705,19232.49232125003 11481.40304981335,19207.688186622865 11646.715716551058,19100.25092994253 11734.340552533395,19071.000887419155 11803.090729244519,18970.500695143768 11868.52827960893,18912.938250428473 11882.903091484448,18689.438347235322 11826.15328455111,18592.875807617966 11742.340604871046,18476.625699568016 11661.590640924405,18418.75067869242 11647.52807167999,18407.50069119525 11628.340587235522,18401.37576055515 11605.903099733288,18387.37595820072 11595.840556657757,18368.438394614088 11575.590806471184,18287.37600392179 11573.340737137827,18280.375679084507 11561.278035342228,18264.18844272924 11563.590727964416,18249.625847570365 11542.59066339559,18235.500869396434 11533.840587946703,18227.62585868145 11527.340581831057,18216.75086021173 11527.27824981336,18210.375826483418 11539.778149546706,18188.68824191083 11551.590649457765,18178.81320095429 11553.840718791122,18167.06349464372 11559.465746488888,18159.81338682369 11560.465680213412,18144.188381750137 11561.778147840057,18134.251014365174 11558.153278862243,18105.876007678977 11558.840678684413,18101.063352558005 11574.21571555559,18084.12571279012 11575.090693973354,18079.000871937315 11573.840558364405,18037.68823395809 11577.528050631168,18011.93850707746 11574.090760248946,17961.3757803872 11555.528052337817,17848.000881342858 11568.528064568876,17772.750842735986 11595.840556657757,17612.87575988908 11596.71553507552,17561.31318610144 11592.778132195468,17513.500738461327 11580.96563228441,17461.125930934504 11592.528221582179,17405.81325045455 11578.840518257814,17317.751010056993 11578.715562951169,17309.188398815633 11591.403041279991,17261.750718457333 11603.903232284472,17236.938321663474 11636.653173475526,17177.93835524394 11646.215604053345,17101.125912233896 11672.590785706649,17072.000941481616 11649.090741191176,16981.12586936867 11664.528110079933,16792.56324618042 11670.444117617793,16751.906714136363 11676.621686613304,16744.36626720731 11696.481424782309,16712.90726266656 11764.745761280064,16545.329169899167 11768.04557169776,16537.22879570612 11764.748673991067,16509.476070779376 11764.57857166219,16508.607746416994 11770.806530560018,16447.183531552262 11771.224213333335,16444.154203767772 11782.032119182288,16426.110534011095 11852.21185450675,16250.903646488383 12008.032578275539,15935.80284798838 12070.128083911142,15810.172854708508 11935.164119324414,15766.00297686347 11878.82704355556,15755.484893522633 11784.274615466711,15712.66702112538 11749.531506062252,15703.873345232045 11594.716541439993,15582.418429157056 11524.686810737825,15536.578555111482 11478.344411875587,15509.324907953793 11341.561750471126,15447.016609233979 11265.797182862181,15406.002143339778 11212.105431324453,15368.63506307645 11214.301324231084,15335.013107509061 11199.635823786724,15208.847597830521 11163.489370168885,15090.649486696697 11160.45607281779,15048.628132813028 11151.662597973365,15000.900782789628 11113.575404942152,14868.997858071816 11062.734032497858,14748.2090627742 11033.059622968896,14695.690260220377 10981.23783196439,14619.03516467422 10990.05023943109,14456.684614254977 11009.907938702265,14369.1354470285 11016.174927928834,14248.828785079357 10989.830912284437,14024.562242943735 10962.140932835522,13916.972418151272 10905.910753564443,13793.390105282364 10816.459356444422,13670.362820101436 10702.659733333392,13569.570534335158 10600.802517048898,13507.562271876435 10929.32895089779,11965.967239919119 11077.02146304003,11893.983096102136 11242.053926968947,11847.923723764485 11544.954911004403,11798.273747769243 11682.463711288874,11761.202370819345 11809.79520767997,11697.168387186714 11851.345614222228,11670.70577416051 11980.02394823113,11627.46398721222 12100.290663822205,11574.12491347664 12208.659537066706,11499.311137342243 12301.375209528836,11405.594809359289 12375.215348906699,11296.202248858288 12433.593652622192,11156.505453340127 12605.216416711104,10855.872820884746 12655.292037404375,10748.290819838701 12686.847767040017,10633.792577117973 12698.981247715536,10515.568005764799 12691.329846897861,10396.917738261109 12664.084055893356,10281.162646116107 12617.98399459559,10171.55063979217 12554.301352675539,10071.16395820299 12474.806767217815,9982.832357547362 12312.275157048833,9830.233225046424 12175.248701724457,9576.719798549486 12099.531611306593,9463.923592944746 12003.808564622188,9367.611353840155 11891.55937763548,9291.324028370727 11301.551294293371,8968.983776727924 11290.29046186665,8927.508255463035 11239.316852337797,8817.638674289163 11170.552985884366,8717.975119200302 11085.964942506747,8631.405878488964 10991.559897600091,8561.925716126687 10991.426495431107,8541.586470291018 11022.024525653338,8488.495972359378 11064.481076622265,8372.35224318289 11086.423111964483,8250.554606610152 11087.170804906636,8126.729113719834 11063.212299662293,7986.971487433708 11015.267035875586,7860.535829799075 10992.48351829336,7823.455200782686 10993.94249528891,7724.884554511227 10975.306387057877,7599.303759401082 10934.909414115595,7478.936377798382 10920.13439573336,7449.79281312594 10963.03979548451,7331.647451436496 10983.842960782233,7213.462542365305 10984.788135537761,7093.3993897447945 10963.305143466685,6964.5879644161905 10925.465822151164,6851.996850589116 10869.662646328914,6747.161000763008 10781.030012302217,6631.868744196021 10682.212501333328,6542.298612129525 10568.563756657764,6472.625588664028 10444.009821582236,6425.2789954022155 10296.819169564522,6400.160903291078 10177.535785244429,6400.33624978608 10027.646797653404,6428.539701934904 9876.326212551096,6493.964092514187 9818.095292017795,6474.3807610879885 9694.654303857824,6455.8097959603765 9603.101094399928,6458.182080325263 9567.446888959967,6396.469240337901 9442.352937244461,6225.743353068421 9434.296087039984,6177.570369616209 9400.01464234665,6055.6467733003665 9345.001393777784,5941.579922117409 9304.124697315507,5884.91088561283 9311.87658666668,5771.091284407827 9342.805209600017,5649.867834930599 9359.070953528862,5645.372866744641 9462.048981048865,5598.505195742997 9530.964308480034,5558.5948765491485 9571.684592355508,5524.820671350346 9742.151592675596,5488.718009599834 9869.604257848812,5438.473104147182 9984.476923733368,5368.563223704172 10076.707047253381,5292.685958544724 10151.028657777817,5209.683065690682 10210.56709432893,5122.066307996283 10255.321483093314,5032.323830442561 10313.816877795616,4900.738065742946 10358.169894968858,4768.474310030986 10407.153831537813,4657.562954718887 10583.871509902296,4322.949989084678 10624.605774791096,4263.632223365421 10670.226695111138,4179.781270493695 10735.521522631054,4082.366704125132 10784.619054933311,4062.3057286693947 10883.51200512005,4004.1251874763984 10944.481165368808,3957.5312820568215 11033.574590293341,3866.8088286408456 11108.358739342191,3759.2805790307466 11171.960116622155,3638.403913503629 11221.01104554662,3487.703830871673 11238.189050595509,3429.0631007156917 11257.734507235582,3304.279965599999 11253.952643128927,3159.1097135961754 11222.57429759996,3020.4716179890675 11164.969609955559,2890.5239500297466 11142.482606364414,2854.808656399662 11130.151935146656,2784.261496555351 11097.313447537716,2680.5181883958285 11085.699885795591,2657.8834174557705 11088.221128533361,2633.435685502074 11079.446877582232,2507.443672275811 11063.91164159996,2437.462763887015 11047.241613368853,2379.030700281379 10970.275261155562,2218.41889582586 10869.007286328939,2065.9132951366482 10826.072176924441,2019.3656925890245 10758.906806328916,1948.2429427998723 10650.931731626624,1866.0609675511369 10513.435456000036,1793.8078801131924 9777.676473742235,1570.6739444546984 9648.018886257778,1544.5690318456036 8324.328874951112,1405.1830664427252 8322.122787555563,1372.9678679459612 8293.209760711063,1253.138919699355 8244.706421475508,1139.814355593 8177.961355093401,1036.20874337462 8094.843357013306,945.2660311773652 7997.692499342258,869.5777855236083 7889.253138488857,811.3034251757781 7772.5964370488655,772.1088332110667 7651.032108657761,753.1162348585203 7528.013172337785,754.8699447587715 7407.0340076088905,777.3199664118583 7348.664442026755,794.5570741943084 7235.557170346612,844.0334757853416 7135.462726826663,909.858977225842 7119.0726101333275,900.9134989865124 6996.305914595607,858.0886685039732 6922.016635164502,846.3313087117276 6875.7954050845,833.8483637314639 6725.463394133374,824.5929497049074 6612.6814722844865,798.8545178465429 6437.1303347200155,791.7749779856531 6278.54137031117,817.666152943566 6184.2525425778,818.8831395730958 6053.675994737772,844.807380427781 5929.963833173388,894.0789715213468 5825.19244942232,953.6861319027958 5713.51444508438,980.7503796348465 5627.534708337742,957.8393606558675 5530.020344319986,947.7410895870999 5368.927030897816,957.9249065202312 5246.405876906589,991.3452294812887 5129.5770342400065,1041.4622048081947 5014.801652906695,1112.6381036686362 4937.494222222245,1183.3978816701565 4847.882625991129,1187.6481488274294 4891.69154872885,1074.8973046721076 4916.308909226675,957.9950320801581 4921.756552817766,838.5819222856662 4917.097962666652,798.7428395352326 4921.223817955586,724.8642682979698 4904.394464426674,591.8441099141492 4863.788358826656,464.03885985311354 4800.7235029332805,345.7077670515864 4715.5730150400195,238.95367315644398 4608.926427875529,145.91528521565488 4492.943727786653,77.4704905275139 4373.0207121067215,32.302012167230714 4342.0428643554915,23.600016073149163 4247.082947982242,8.785979477863293 4195.497377848835,5 4079.503900728887,11.320006814959925 3965.9678779733367,35.962359842436854 3857.74755299557,78.30108224833384 3733.4417809066363,155.13258203386795 3474.44467399118,394.80112450936576 3428.272959999973,432.9723719693138 3342.4956566755427,530.5449071231415 3278.5499969421653,632.5249470508425 3232.062253795564,743.579574680829 3204.2598436977714,860.7162010296597 3196.5094107021578,938.5886593155446 3196.209110186668,1004.497912660765 3202.383766471059,1077.0038364013308 3212.087172266678,1131.650571631617 3249.681534577743,1254.051770773367 3313.022224213346,1376.714441533666 3359.9017270044424,1440.9807563453214 3405.7064393955516,1493.2330507497536 3519.7332539733034,1588.4719447608222 3580.005693724379,1624.6787106372067 3665.100840106723,1665.7055067745969 3790.9419022222282,1707.198524174688 3864.2959101155866,1720.0947483787313 3928.0848659911426,1725.1828460653196 3829.697271182202,1816.9252925248002 3812.9675323732663,1827.2694677523104 3718.5418072178727,1911.305941334751 3638.128261404461,2013.231876672362 3574.648635448888,2133.4826190280146 3533.1302687289426,2175.3827012751717 3360.8894273422193,2191.0612460936536 3249.9116387554677,2217.057875485567 3156.576723911101,2246.205050671764 3117.2621144178556,2273.1216857477557 3267.5160647110315,3010.6362448634463 3269.462338275509,3047.553627216199 3269.7684642133536,3051.860924593464 3279.609641244402,3060.802880762145 3280.59501141333,3061.229184184631 3298.8746038044337,3096.3313866116805 3302.204415146727,3102.5968153779977 3254.8746072178474,3124.6430940732243 3251.6368375467137,3125.1589119010605 3238.1311786666047,3155.9980511738104 3235.468669440015,3161.142127928848 3235.3909000533167,3174.0935030795517 3234.920788479969,3175.9655549731106 3239.1946094933664,3182.183663316944 3238.827899164404,3185.872287410486 3229.049636693322,3203.5116688152193 3227.7925105778268,3208.90177248494 3234.399121919996,3223.124356382701 3235.4998354489217,3224.998627184599 3234.504270791076,3251.162448966468 3236.325880319928,3258.2188639004016 3228.8204063288867,3269.4789001499885 3226.152945493348,3270.203071708209 3229.776940657757,3299.0620855965535 3230.5083224178525,3303.14487661171 3221.3804683377966,3309.5832962739514 3219.5038085689303,3311.091130346176 3217.3079156621825,3324.797411430336 3217.7896780800074,3328.0924678915762 3235.6504226133693,3319.7950538242003 3272.446702079964,3329.3523106963257 3273.9301458488917,3329.2638561580097 3300.177459484432,3346.4842962122057 3302.0468374756165,3346.8581116141286 3312.33249422221,3346.535618512251 3313.7413725866936,3346.4398896754137 3325.1516270933207,3337.8823993786937 3327.0705211733,3334.485537838016 3345.2799172266386,3361.7062211098964 3345.710998471128,3362.8166854730225 3380.6612016356084,3381.934467305371 3381.2644241066882,3382.01635415724 3372.829212728888,3414.9369203737588 3371.4887830755906,3418.216354096832 3360.1629971910734,3430.2420694519533 3358.691495537758,3432.6694921384915 3350.83329223108,3456.4411782849347 3347.238424177747,3460.7101299641654 3340.5726848000195,3461.6350062937126 3333.230322631076,3464.7690844386234 3307.9881856000284,3486.0237817299203 3306.5344514844473,3488.094919245981 3291.8395326577593,3488.454356262984 3289.975106275524,3489.0990133945597 3233.7609469156014,3519.8265459195827 3232.883929600008,3520.327808738628 3210.144102684455,3520.202674998902 3208.7748371911002,3520.830889456556 3202.0467657955596,3537.2978240123484 3199.7972790044732,3542.2784526039613 3185.0353678222746,3552.775927903771 3182.45354069327,3554.293720771966 3173.281995946658,3554.1762403346947 3170.934059520019,3552.641352052684 3163.9820006400114,3544.70744519023 3162.7126411377685,3543.7333773311693 3162.9800280177733,3537.2065256003407 3162.6406971733086,3535.5096791521064 3146.5596191288205,3527.034385693434 3145.154818559997,3527.89393042156 3102.9912863288773,3567.9931277263095 3101.3499736177037,3569.891627779405 3068.3946862933226,3616.8302929016645 3064.8091389155015,3621.21024020639 3052.160690915538,3614.5161111393827 3051.3232864710735,3614.3193829854135 3048.0496904533356,3620.4157094203983 3046.619549297844,3620.6557052283315 3024.3244933688547,3614.3670195751474 3023.045521919965,3613.9873811833095 3010.774852551054,3600.8084448127192 3009.508697031066,3600.683710863581 3003.152870115591,3612.032089821121 3000.3624928711215,3614.820475865621 2986.943632782204,3619.82662792498 2985.9005909333937,3620.401527843438 2948.8855668623,3617.340835757146 2947.7970867200056,3617.2371999967727 2944.5185390933184,3602.3572503360338 2943.5075370667037,3600.7629878406296 2932.7034177422756,3598.0068268583273 2932.401952142245,3597.4780655859504 2934.2858936887933,3587.264484768093 2933.559463537764,3587.0742835053243 2923.1514729243936,3588.0911132225883 2922.7937920000404,3588.095477290626 2902.9285196800483,3601.3361088021193 2902.718513208907,3602.4678010468488 2808.9583425422898,3598.4668556224206 2807.5118902043905,3598.3523030762444 2770.5859950933373,3621.7687739937683 2769.4267360711237,3622.3763963939855 2736.2620248177554,3630.5182633370277 2732.6467677865876,3631.744013520074 2693.5867292444455,3656.952692625113 2690.634405262186,3659.6028330050176 2651.6742727110395,3669.7508671352407 2649.5934318932705,3670.95281318255 2649.6534337422345,3703.5964285596274 2649.9149952000007,3704.1097207444836 2646.283426986658,3709.0859159107204 2646.6463507910958,3710.1630074649584 2662.3324652089505,3706.966617989412 2663.8799886222696,3706.7441453011124 2670.0936752356356,3716.6610929111484 2671.775474631111,3718.144915090699 2690.8901412978303,3719.8210212438717 2692.495627662167,3720.0213099847315 2723.305994524504,3702.9468145040446 2725.4517887999536,3700.798387908668 2734.184679253376,3700.295631884539 2735.720260551083,3700.7922079775017 2747.852867413312,3709.967437319632 2749.0630988799967,3711.526178460568 2764.9347529954975,3735.050552296103 2766.449654044467,3736.7585429868777 2749.328155591036,3757.5610957679455 2748.9765913599404,3758.679433476529 2753.4877983288607,3768.3924640786718 2754.2072379733436,3771.7182588903815 2753.534692977788,3792.8543557873927 2754.1262646043906,3795.8041020885576 2786.274439680041,3849.778918700351 2788.3724654933903,3852.2386609554524 2788.2081885866355,3858.2524033440277 2788.1021659022663,3860.845771607943 2794.185363057768,3866.128713051963 2795.357438008883,3867.98158816871 2793.887392711127,3875.582243874669 2795.0116992000258,3877.641044642485 2803.1602998045273,3888.786715037655 2804.7788933689008,3890.61328378279 2816.7213001955533,3895.980667552969 2817.133448817767,3896.9974618304987 2815.0960073955357,3908.7261105319485 2814.5469613511814,3910.5064158279565 2806.030776604428,3919.7546667836723 2805.509110044455,3921.954441331618 2809.3451505777193,3932.649399510992 2809.5516617955873,3933.6682396371034 2807.5386871467344,3945.6597631447366 2807.05750727118,3948.553778399015 2784.6640017066384,3970.7144474055967 2781.3886580622056,3974.786688193388 2766.342466275557,4002.5709841243806 2766.796849208884,4003.617167284887 2759.8541110045044,4003.389483882929 2757.437725866679,4003.612083446991 2742.7055243378272,4016.902735433716 2741.2424695467344,4017.935066664417 2712.270897208946,4024.189975545043 2711.8995265422855,4024.982631642488 2715.2899222755805,4029.402655782469 2716.4040342755616,4029.697127921332 2732.1428687644657,4028.64051251777 2734.0128292978043,4029.1677314245608 2736.657279715524,4034.8098555160104 2736.8157312000403,4038.5416773210163 2730.940210346598,4078.6361933671287 2729.8196903822245,4084.5535821910016 2714.144644266693,4109.033178881917 2713.7654092800803,4109.964257886808 2709.48110250663,4129.311487054394 2708.455536924419,4130.690762239916 2711.582041031099,4138.571011678316 2711.5878664533375,4140.308476811217 2699.2877787022153,4163.035356159729 2698.732033422217,4164.361478374281 2706.2343034311198,4182.883707340807 2705.7257440710673,4184.731580620573 2661.9479873422533,4182.513913480856 2656.0535338666523,4182.986770508054 2616.0515245511197,4170.142049348913 2614.347006008844,4169.042777438648 2598.873519502231,4184.396990173496 2596.587915093405,4186.233966632979 2574.5835477332585,4189.4277802386205 2573.1749606400263,4190.295811904536 2558.5158681599423,4207.942544066813 2556.923780266661,4210.560973190644 2557.2546642489033,4222.141857852694 2556.3537627022015,4225.533736966492 2543.5087067022687,4251.168888817716 2542.433916302165,4255.286026448302 2528.0506575645413,4266.235982709331 2526.6406141155167,4269.029092637182 2506.5930060800165,4257.6710941626225 2505.919004728901,4257.9210643360275 2499.557643662207,4266.268633850152 2496.708429653314,4267.6613828541595 2451.7711226311512,4283.405240975204 2446.9366047289222,4286.152108500653 2436.2481200355105,4302.689698430768 2433.8209578666138,4305.582923560927 2348.633769813343,4344.955889964942 2347.2930488889106,4345.26707652054 2337.74285169784,4365.414763417386 2337.303032319993,4366.81826185633 2334.652756479918,4377.9524336312315 2334.1543916088995,4380.685318842006 2337.042635946651,4384.144179123454 2337.284682239988,4388.073694302526 2331.7849011200015,4395.337495164713 2329.1471499378094,4396.251666934055 2329.83804501337,4404.462398507458 2329.28404735995,4405.763445401564 2314.83088355558,4415.857957093511 2312.732566471095,4415.400359669526 2313.6794888533186,4420.64709353674 2312.8636384711135,4422.052128258452 2303.1171245510923,4429.407868601789 2302.0577715199906,4432.844010413508 2278.8236575288465,4439.381156604504 2276.0460962132784,4439.888748930476 2248.868171377806,4466.72602133028 2246.3850851556053,4469.29309090192 2174.6071452444885,4482.989048399089 2171.621325084474,4485.890199883317 2145.761984568904,4478.217290356231 2144.1990237866994,4478.592856723815 2142.504699733341,4482.621825659415 2141.842349226703,4484.846542823419 2128.2653289244045,4490.38306472206 2125.7650577066233,4493.092741440341 2126.0458430578,4499.358428709966 2126.2293438577326,4500.181639348681 2113.9816849067574,4514.590152790886 2113.801096817828,4514.979081770871 2108.5765668977983,4511.5939679300645 2107.8379033600213,4511.7813663490815 2100.4107812977163,4521.596953710425 2099.002485475503,4522.9543629530235 2091.1215630222578,4520.822738179588 2090.104153031134,4521.185923821235 2071.387653973419,4537.623749944498 2070.1663542044116,4538.305134885188 2050.395162453293,4539.9444387864205 2048.6816145066405,4540.8588639270165 2050.1403002310544,4550.192498635559 2050.986734080012,4551.119937546318 2043.7868034844287,4556.608399528137 2042.9202719288878,4557.826835116663 2007.8949208178092,4562.289917297079 2005.8895192177733,4562.5932520955685 1967.3540599467233,4586.055222896102 1966.186645333306,4586.814763343602 1928.0272170667304,4562.125021898595 1927.0447596089216,4561.495881641633 1914.4309728711378,4563.649304019811 1913.2163723377744,4564.04577547271 1901.9240826311288,4597.165108860587 1901.0592987022828,4598.0271674646065 1870.8932235377142,4616.188847336161 1868.2141118578147,4617.699791630439 1855.9224709689151,4614.090903996141 1851.1543628800428,4614.992405578087 1850.94610403548,4620.7111481842585 1851.1371778844623,4622.1684432884795 1845.171654257807,4623.645296542207 1844.8745577244554,4624.243861937721 1849.3895512177842,4632.725092010223 1849.5316915200092,4633.856241478585 1860.6524225422181,4639.470979660749 1862.290822542156,4639.284028839145 1863.8625214577187,4652.380429725279 1864.011360995588,4654.65126056585 1848.2768955733627,4682.611623657867 1848.2972845510812,4683.814659921976 1868.3463489422575,4701.997955933679 1869.9812536889222,4704.235060774721 1888.8876615110785,4742.470280022651 1891.6387171555543,4745.524845306063 1907.300364799914,4757.508097610611 1910.051129173371,4759.374640145688 1963.6365667555947,4754.113232723146 1966.0593598578125,4754.362398514058 1977.5089359644335,4761.582678034378 1978.020699306624,4762.294302094961 1981.7052788621513,4782.805321088876 1982.6583179377485,4784.275535579422 2004.75094044453,4799.7220998643315 2005.925345564494,4800.992709171958 2018.948659484391,4805.9671852720785 2020.4935614577262,4806.046483602724 2070.0358647466637,4800.324635174125 2071.7167903289665,4800.002727948886 2087.54358869337,4809.65399083565 2089.871718684444,4809.956334264018 2120.1053687466774,4806.351003468153 2128.4048477866454,4807.281579370203 2161.8692770133493,4835.261144901451 2163.6291370666586,4835.359623880067 2223.749824568862,4809.4964824536 2226.0514488889603,4808.1274231188 2238.1933764267014,4817.597730074718 2243.998409671127,4820.185850944428 2272.237726435531,4817.968859671673 2280.4815726933302,4820.990379462775 2283.521278008935,4836.073957496788 2290.0906066489406,4851.339191241248 2312.186141866725,4836.812546858331 2315.804602880031,4836.89292264235 2327.5171967999777,4843.761708754231 2331.214009742136,4840.833842227585 2350.68664860446,4844.174800858425 2350.759175111074,4857.473797451181 2352.2997080178466,4857.946965704265 2395.5607497955207,4848.203231634514 2397.6445033245254,4847.457431425515 2428.696916480083,4808.2183077194495 2430.959801742225,4807.829422807903 2461.327727786731,4831.019274956547 2462.8301041778177,4832.239054463338 2473.29722282663,4860.875739994342 2480.2245236622402,4872.435230870324 2537.787559537799,4887.491070664371 2542.850142720039,4889.652491787798 2575.9024233244127,4890.268227705965 2580.6938331022393,4891.443950156856 2586.092251875554,4906.874851480767 2586.306044871104,4909.379261525406 2583.2596403199714,4926.250418936892 2583.542755839997,4928.228040876507 2589.6250791822094,4931.810816497076 2590.5431657244917,4932.065253720328 2578.7061990400543,4940.694267150713 2577.4747047822457,4940.826005761279 2570.9100364800543,4956.673999807332 2571.550832924433,4958.37021425931 2560.467675875523,4965.1162477487815 2558.593928817776,4965.810347907885 2551.9226552888285,4977.812074788264 2550.764852622291,4978.6161522786715 2552.8957920711255,4989.470973401796 2552.4926728532882,4991.356601688603 2546.611617848859,4996.151128286147 2544.865738808876,4997.337987156061 2555.2629523911746,5017.52322910144 2563.3253367466386,5026.273359691084 2568.0127627378097,5054.210881550738 2562.622208284447,5061.554422107758 2561.1769210310886,5063.163904948102 2562.3594817422563,5068.5541041061515 2562.503078400041,5069.475492246507 2557.7911856356077,5064.731776210887 2556.7845526755555,5065.024801481632 2559.1056921599666,5073.169696614321 2558.8793745066505,5073.625861651031 2546.137719751103,5083.148364055844 2544.2001843199832,5082.085581364576 2549.1378121955786,5088.0856568808085 2550.450279822224,5089.648325112881 2546.0753877334064,5098.710544614878 2544.6641792000737,5101.211438662489 2495.1658578488277,5146.656994843215 2494.776137102279,5147.169097152655 2493.224827164435,5161.033840861055 2493.6879482311197,5162.4615763115 2498.0747824355494,5165.322088321904 2498.5696520532947,5166.013163413911 2504.5905171911,5189.34779566573 2505.8878387199948,5191.898146633874 2512.8879573333543,5194.398213057779 2513.8878910577623,5194.7731849479605 2516.0127138133394,5202.273241079238 2518.450361742289,5204.023297755048 2518.0752045511035,5212.14826349396 2519.762829368934,5214.460858304985 2518.262783146696,5223.898333404446 2516.82536021329,5228.335666916508 2513.8878910577623,5232.523103564454 2505.3877262222813,5245.148307473573 2496.137829546584,5249.773297846958 2493.6378496000543,5253.210629143112 2495.3878064355813,5263.3983753621 2494.9503172266996,5269.960692528402 2500.803992746747,5290.260142657964 2502.8664834845113,5292.885126824956 2535.616424675565,5317.947759233706 2536.366447786684,5318.760263185715 2514.7416066844016,5325.947640543862 2513.3665157689247,5326.072693360446 2509.554068195517,5334.760114065197 2508.553843199974,5335.9477150310995 2510.4913786310935,5343.635196008661 2506.9288416710915,5347.510118707432 2482.428863431094,5343.5101509830565 2480.5539512889227,5344.135014155705 2441.585080604418,5379.67837752559 2433.741440853337,5380.884941058641 2427.241434737807,5392.38515843451 2425.366522595519,5400.510115697398 2412.8039995733416,5410.135029003664 2409.9914857244585,5411.697718560055 2408.303860906628,5424.697514797212 2406.678859377862,5428.697776231216 2384.929062968935,5460.072498191672 2381.581775359926,5464.822567927942 2392.2099669333547,5464.865917500225 2398.7099730488844,5465.0534043236985 2407.3974252089392,5474.303322071268 2412.0225191822974,5472.116039755812 2414.897365048877,5473.17843614117 2423.772395804408,5494.303435339825 2427.33493276441,5500.553360639024 2430.4599805155303,5509.741073837387 2431.960026737768,5514.115760646353 2426.085088426713,5544.303296515951 2424.585042204475,5548.553576924547 2425.4279807999264,5568.391345011827 2425.286131768953,5569.637907521217 2430.6356169955106,5577.343939442479 2430.386288924492,5580.943024845095 2418.1657181866467,5599.427741911204 2417.264234097791,5600.489659229177 2407.5072344178334,5604.356362159306 2405.7840745244175,5604.957178554847 2410.8530656711664,5621.365760064917 2410.051487573306,5623.229113269539 2383.7001901511103,5649.085525714734 2381.5127441067016,5652.4605950706755 2373.592208782211,5683.990581845574 2371.387869013357,5693.148144677631 2364.200171804405,5700.085604071326 2362.2629276444204,5702.273286821321 2360.700258133351,5712.898160136829 2359.8252797155874,5716.460870053561 2362.8877041777596,5719.898295745661 2363.3878166755894,5721.898147964617 2351.512693475466,5735.960596545716 2350.700338346651,5741.0856877515325 2344.0127536355285,5748.585671325913 2343.137775217765,5750.27315824962 2337.075258311117,5749.460812829377 2335.32530147559,5750.585681454453 2330.9504093866562,5760.148147081491 2328.3878061511787,5763.460543230525 2308.0754326755414,5772.148226500256 2306.012941937777,5771.648083005042 2292.45019391994,5788.210806160874 2291.450260195532,5790.335744139331 2297.7076374755707,5835.613081790565 2298.1451266844524,5837.488371503656 2304.707464817795,5846.050761806255 2305.5201112177456,5847.175606997742 2313.895029475563,5848.613223349035 2316.2077220977517,5848.113215077901 2324.0752460800577,5866.523109941394 2324.575358577771,5870.398079099832 2342.3254200889496,5886.148117256642 2344.102173866704,5886.700360888208 2344.9148202666547,5895.2627045645495 2345.9147539910628,5898.075041395088 2362.5824520533206,5904.113337473245 2363.895210951101,5904.42569072108 2381.457693866687,5921.800788964552 2383.378044302226,5922.170107326587 2384.1470000356203,5926.720185410406 2389.6467811556067,5951.220319384651 2385.647046257858,5971.720398900739 2382.646953813266,5991.720321077271 2397.46449777775,6055.890465942619 2405.146773333312,6069.220061990549 2392.6468736000825,6094.220059796586 2334.5225582933053,6114.428304893023 2332.3974442667095,6117.303340205108 2329.8348410311155,6136.178302069951 2305.2099074844737,6168.116046228155 2312.272358115646,6192.678543241462 2290.567417457816,6237.036337359401 2263.698240000056,6269.701895171893 2262.1358617600054,6273.889422766573 2260.6984388267156,6279.701788720384 2259.448303217767,6296.3893459233805 2267.553213155479,6359.055543954659 2271.3161446399754,6379.845900627493 2247.099573191139,6552.851372312289 2244.4120146489004,6573.913976387994 2238.0369638400152,6581.78884183371 2243.4120809244923,6587.413920561783 2211.9119840711355,6600.288969627989 2198.3276819911553,6611.7386847668095 2188.2869842489017,6611.53900321055 2184.7244472888997,6613.976547750237 2169.8495229155524,6641.163736923074 2163.099606186617,6643.288767672202 2163.724673991208,6666.726368056494 2164.1621631999733,6672.351205453568 2158.787046115496,6707.101363470545 2164.661984426668,6711.0389577579335 2154.662064639968,6718.288908883289 2143.7245431466727,6729.289002782141 2142.0995416177902,6748.663828692981 2188.2246522312053,6750.726203468104 2179.4070018844213,6781.492830796749 2176.8443986488273,6786.430068541027 2136.8444282311248,6825.8677248391905 2135.656915911124,6827.2428693155525 2184.969406293356,6851.992896278563 2185.8443847111193,6855.367700596224 2181.1569587200647,6859.805068838119 2179.3443785955897,6863.6801605007495 2180.5318909155903,6872.930200927018 2181.219290737761,6875.9302078058245 2177.4694664533017,6879.18035932054 2175.531931022182,6884.117700560775 2190.3902529422194,7048.099446441687 2193.2400494932663,7066.782310822746 2190.042183964397,7073.834271887201 2190.1578185955295,7081.014650045603 2179.667106986628,7086.396761934215 2179.0315534222173,7089.063355289749 2181.9171763199847,7092.396921103296 2184.214431573404,7100.676610215858 2168.3235535644926,7153.573381205497 2167.5924630755326,7156.497179847269 2170.6688685510308,7200.355950615194 2170.384587946697,7203.604201082955 2151.229725866695,7257.5218420992605 2149.2782094222493,7270.328953408345 2153.9172844089335,7292.584420998464 2161.417224248871,7336.459256747214 2169.729810488876,7348.646671600582 2173.261181440088,7355.625285509508 2171.073735395563,7373.312744276249 2167.0766219377983,7386.863501409767 2203.8860086044297,7408.937677762122 2213.136196551146,7415.875354476797 2291.136269937735,7517.125393770868 2293.9487837867346,7527.125343356747 2302.698567964486,7525.00043263362 2322.761030826601,7548.375375531381 2325.292468053405,7550.375318383973 2368.9487647289643,7551.750203747302 2378.261284693377,7556.187875509146 2428.0735963023035,7598.87530028075 2434.386023822124,7605.250490630162 2439.4486070044804,7645.812678949384 2439.761140906601,7651.875307575101 2436.6360931555973,7657.625222249713 2434.3236918044277,7663.687959201052 2446.7612595199607,7688.625453399436 2445.636079217773,7714.00017402583 2436.82367175119,7774.937703931762 2436.948627057718,7780.031579673581 2420.5107419022825,7808.781112583005 2419.500613688957,7814.265622163832 2423.703947093338,7830.444099039247 2426.9143372799736,7846.767105567851 2425.1600113777677,7889.605382800044 2426.53597610665,7919.30339541455 2453.239129031077,8074.681272080459 2455.1784120888915,8090.292069435993 2450.8105105066206,8105.108888714807 2445.810550613329,8121.17148016236 2477.935424000025,8207.483937208366 2485.0616630044533,8230.544654208818 2519.311650417745,8257.606804434676 2519.783800888923,8258.289692966908 2519.686807608814,8320.857077812485 2516.9916760177584,8332.174087953172 2492.624226133339,8327.981939370744 2482.1241938489256,8328.231925033731 2433.991642737761,8344.61177100474 2426.304124302231,8345.111713207385 2421.4294109867187,8365.674033794843 2416.2418724978343,8376.861627479142 2388.866757120006,8402.361865208717 2385.929287964478,8408.236561133119 2378.4293481245404,8426.486646870384 2372.804320426658,8436.924349097593 2359.5543975823093,8486.486828786728 2355.9918606223073,8492.799088234839 2322.618016711087,8516.300493734016 2316.1791775288293,8520.049232661026 2339.0541542400606,8522.54919875064 2342.4917358933017,8522.98664591118 2355.304169528885,8544.299238917883 2358.116683377768,8547.486557529657 2357.866772764479,8554.299203262199 2356.1791479466483,8561.986821753962 2323.3668747377815,8623.049165124714 2322.6168516266625,8623.674024589185 2310.804351715604,8658.611838124925 2308.116793173249,8670.049177659675 2309.1563397689024,8679.179291047272 2315.656345884432,8690.991928507166 2319.5314167466713,8760.054614427325 2321.781486080028,8780.74195165676 2319.8439506489085,8819.554470018309 2320.4532898132456,8835.679710619443 2306.7993739377707,8839.305418324948 2304.656492373324,8840.679505375505 2304.5312457955442,8864.116874536208 2304.7814476799686,8874.179287559004 2322.09372871113,8901.242079480493 2328.0312903111335,8906.554468366841 2334.4063411200186,8921.179451207223 2341.093925831141,8933.61708136776 2342.6094094222644,8961.953248943435 2343.193116728915,8964.385512610723 2359.281476551085,8983.6170171962 2369.000028444454,8997.710743703821 2435.218767928891,9010.116893036524 2442.343841848895,9012.742128795071 2453.2501973334,9027.273258624307 2458.1540377599886,9031.305054745753 2489.3418919822434,9044.179953821294 2499.654345671064,9047.742399062088 2533.7994754844112,9074.899160599569 2541.466604942223,9079.211017821857 2545.4980883911485,9090.774025602092 2548.799355164403,9095.2429433894 2571.4165569421602,9107.283959304914 2577.541405866621,9110.47148635186 2581.2915214222157,9119.783843117126 2587.955804444384,9124.24268310977 2597.9245582221774,9121.523947307258 2603.88513024,9117.721312128415 2624.8863598933676,9120.536023073131 2627.636250453419,9120.692236588278 2673.5097028266173,9147.902059561107 2677.946926933364,9151.183285114996 2683.0098013866227,9148.464445934223 2684.698882560013,9147.504786600533 2712.5097395200282,9153.08938155265 2721.7040034133242,9155.353857721086 2783.996117048897,9141.7916985802 2785.3283911111066,9142.875125566148 2734.651878115488,9196.386661127093 2721.1409763555275,9213.12516986049 2710.8285226667067,9234.062452586659 2703.7660720355343,9250.25014154875 2656.2658705066424,9317.187695078552 2648.516020053299,9336.500178591756 2632.216779946699,9354.66281691275 2628.265978595591,9358.87500357395 2615.7692828443833,9391.265812901489 2615.0725623467006,9392.696071977669 2614.5159432532964,9442.250153548084 2610.016095857718,9459.250184216246 2575.0160853333073,9521.874868777173 2561.8823796622455,9541.42372354382 2510.641091982252,9589.937583475199 2494.313016035594,9604.718925869674 2451.3129531734157,9628.250089798763 2449.7593130666064,9629.307845411939 2437.813993528951,9645.073323105113 2437.6264149333583,9645.448198032565 2433.276572159957,9668.921595485182 2432.516063288902,9671.620960775297 2429.5628654933535,9677.00003783527 2423.578409244423,9679.375044310407 2422.641098808963,9690.999908120837 2406.6409941333113,9731.624898948532 2398.4533632000675,9737.812522494409 2396.5784510577796,9740.62513213337 2396.3399000178324,9750.244670467742 2395.053064248874,9754.423358451168 2321.2301098667085,9951.580433129682 2316.5796753066825,9964.037936132285 2321.8709063110873,9995.419375045632 2323.437944888952,9997.02124891337 2304.0727850666735,10149.040378925682 2296.334294186672,10161.051611722447 2303.771902008797,10159.80175299052 2317.179985066643,10177.40518326644 2315.6176068267087,10181.155227505777 2303.6175283200573,10182.155183770577 2300.0549913600553,10177.530268435075 2295.11736348446,10184.842682480754 2293.1801193244755,10185.280113813526 2275.3051025066525,10175.65505133965 2273.68010097777,10175.530320723832 2266.242493155529,10181.717747745803 2265.741215573391,10185.70439670462 2244.322594417841,10189.384331940615 2231.366272853338,10191.454541589075 2204.1161127822706,10209.829583728046 2201.1786436266266,10209.767048083362 2185.1788302222267,10231.76704147039 2182.5536036976846,10237.266869148298 2167.241190115572,10236.267101990466 2159.1788057599915,10240.141802362341 2124.867360142176,10266.342818683595 2111.5551052800147,10277.217799429374 2130.260827306658,10293.61529415974 2134.044730311143,10297.713014111796 2129.666342968936,10305.406384596776 2128.4226153244963,10307.271531938575 2140.71687765338,10318.733525715012 2142.889177599922,10320.737463607162 2143.5602662400343,10346.435805272078 2144.1666926933685,10348.871766687313 2155.313638115651,10370.28135516186 2155.8262752711307,10373.351356929634 2157.7445868089562,10436.77970444085 2158.6259731911123,10443.160763514694 2174.285290666623,10461.398540268943 2179.9944957154803,10471.557678145997 2187.654052124475,10497.286047287926 2189.185264355503,10503.80776726146 2185.368447715533,10525.147429889825 2185.8306949689286,10527.049860656203 2199.7164626489393,10547.295428468089 2200.180166257778,10548.628804842243 2191.279212373309,10562.047761713038 2191.4035851377994,10563.371843717177 2209.471423431067,10579.335946233477 2210.083966577775,10580.56874960952 2207.3690285511548,10594.037337666494 2207.5601024000207,10595.810865456646 2217.769737386727,10607.626657492132 2218.0167352888966,10608.755376130983 2212.213449671166,10615.417246598401 2211.6664425245253,10617.570302273729 2220.34777799109,10627.604794341081 2223.482146417722,10631.391988413292 2218.7851084800204,10644.045416419802 2219.000940373284,10647.370114513498 2228.3303540622583,10687.173439647711 2230.019726506667,10706.107899031544 2225.028504746617,10731.55777154828 2218.3350946133723,10752.27966928028 2219.9600961421384,10800.563947291987 2219.725040355581,10811.880369824416 2242.2965125689516,10857.946110937686 2245.9851699200226,10866.123905788409 2256.643071146682,10899.274127092853 2258.672356977826,10902.311282832641 2265.2038203733973,10906.77373194421 2269.2682174578076,10913.836449304072 2289.9557481243974,10921.898904534348 2319.5663692799862,10929.10516076925 2333.7203976534074,10938.211706696602 2341.653748906683,10945.16131391871 2321.622452053358,10956.361573165457 2314.4099968000082,10961.317591966072 2278.0037293510977,10949.561441524304 2274.188077795552,10947.362272034457 2258.2683639466995,10949.906289650244 2258.0024334222544,10950.00410877756 2251.319509048946,10956.345624743088 2251.0430927644484,10956.59902735165 2250.03908124438,10980.156715533987 2250.0620916621992,10980.456166980846 2242.7622550756205,10986.302319298673 2241.0169585777912,10987.25097470783 2239.361956124427,10997.086404795817 2237.5493759999517,11000.242673349858 2191.2291137422435,11051.02426379791 2190.3255907555576,11051.67014269851 2179.580599466688,11071.336349866353 2168.201510968851,11088.5370882235 2142.087016960024,11088.367756878259 2124.263846399961,11091.06854475179 2103.389028408914,11098.943339049642 2098.2014899200294,11104.25578324811 2091.6289572977694,11119.338179449958 2088.639059342211,11132.505728591292 2091.128844800056,11150.83801049029 2100.428548835567,11168.674395747017 2125.826515911147,11188.318239479791 2143.638909440022,11196.755951843516 2199.201495324378,11200.756051682692 2203.888921315549,11201.31838429271 2215.014021404437,11212.256034999271 2215.326555306674,11221.506048663578 2201.638851982192,11241.568401847268 2199.5140292267315,11244.193426787504 2195.8888689777814,11241.50573236501 2194.951558542205,11241.81837151351 2197.7014491022564,11254.256040963635 2194.8889352533733,11259.693483296956 2170.624304071185,11259.938480931974 2169.6243703466607,11258.688353576348 2128.249309013365,11280.93847934209 2112.3744509156095,11290.125793981482 2101.686840035487,11302.875761262898 2100.2773791289655,11304.065522290417 2105.277339022141,11333.940360221895 2107.6523636622587,11342.440429717186 2126.6522695111344,11362.878170166514 2125.9022464000154,11364.002921322885 2092.652483982267,11367.690361953166 2089.2772343467223,11368.44065613643 2078.152425528853,11360.127855855331 2072.4647745422553,11360.878169352596 2059.9022515199613,11366.627913798904 2058.9023177955532,11367.12799397175 2063.7773223822005,11381.377974661475 2063.4647884800797,11382.627933788055 2057.6524734577397,11377.815632757382 2042.1524812800344,11392.877964273386 2039.5272547554923,11395.440416028432 2019.0328368355986,11398.529412890784 2011.9648520533228,11403.003074918 2012.152430648799,11411.25309062883 2013.9023874844424,11417.002911008196 2009.2772935112007,11423.252957414195 2006.8399368533865,11431.690645387513 2008.0274491732707,11439.815663001325 2006.2774923377438,11445.378108152014 1992.777367608971,11450.815552187967 1992.5274569955654,11454.253176392172 2008.5898936889134,11464.815587811929 2008.4649383822689,11467.627897672413 2044.9023718399694,11483.502845176612 2044.6524612266803,11493.253031554574 2029.8398688711459,11495.815669753181 2015.5897210310213,11497.690584161552 1999.9024415288586,11493.878127718926 1997.0273043911438,11494.253114027728 1996.964972373331,11505.565447889268 1979.6270594844827,11506.14948333375 1975.9395672178362,11504.211655636027 1948.1895859199576,11513.08671691455 1945.8145612800727,11514.96187495126 1921.1270044444827,11504.899341844779 1914.7519536354812,11503.02447339677 1895.4395138843684,11505.586672698613 1892.5643767466536,11506.461841002747 1896.37711559108,11533.211939801113 1896.8769368177745,11541.211771154136 1867.0644647822483,11524.336778358149 1864.689440142247,11531.899305760511 1870.8769123555394,11540.899450387456 1872.9394030933036,11545.711912276107 1865.5020865421975,11547.836925512296 1865.4394632533658,11549.399196590704 1883.0835020799423,11576.943605212087 1882.7799975821981,11582.938451889262 1867.1530112000182,11585.017928900896 1858.6528463644208,11585.480504442065 1855.535371662234,11589.393977588916 1852.9104364089435,11602.268887458136 1842.660606008838,11601.58142882341 1837.7229781332426,11605.26907393668 1828.5980367645388,11628.831356397015 1827.6604350577109,11632.456427511643 1832.347861048882,11648.51907124155 1831.660461226711,11650.206326348882 1798.2726363022812,11654.76420038211 1791.0980462933658,11655.769037526043 1781.2854138311232,11670.33136620454 1780.2854801065987,11671.143820258207 1767.8479123910656,11669.581488215073 1763.4103970134165,11670.70648125722 1758.598015715601,11678.769041299529 1747.848072817782,11683.643945839896 1740.9105774933705,11694.643914375105 1736.473062115605,11699.01904073637 1732.160502044484,11720.706348888169 1734.0980374756036,11725.58126625052 1702.4729853156023,11720.393865029328 1688.4104160710704,11727.26878682425 1684.035523982253,11726.768965022755 1673.0980024889577,11719.081358504016 1671.2230903466698,11716.89395246189 1658.9104779377813,11718.581522808701 1648.4104456533678,11718.206468734832 1642.2984126578085,11713.653818570601 1639.2575422577793,11713.2851211722 1644.4637220978038,11725.493956062535 1644.555763768847,11729.041486021655 1639.8566869333154,11729.778487433563 1635.8479226310737,11728.768954097235 1622.211483022198,11743.231178631308 1620.0921944178408,11744.751411805977 1620.6910478222417,11750.23387088778 1620.1382152533624,11751.800370014564 1610.9701657600235,11755.67027991719 1604.0134465422016,11757.835837968218 1605.11911167996,11762.212499892747 1608.0676491378108,11766.727289185976 1604.704341617762,11777.554160526546 1607.1000465067336,11779.995930124715 1531.278098488925,11791.049199371948 1522.5111293154769,11792.464932195959 1483.403031039983,11834.324223208125 1449.7650042311288,11867.179187396134 1440.7650181689532,11892.135432913958 1430.0450761956163,11917.217797440477 1391.6071927465964,11923.24917311041 1389.5936355554732,11922.524312413065 1335.1134131200379,11947.173875181063 1323.5843200000236,11953.524292971939 1280.1132717510918,11950.861436276697 1277.2384258845123,11950.423805718077 1263.2780928000575,11955.649192281475 1261.4258998044534,11954.986222513835 1258.5653262222186,11976.705566241406 1253.4092450133758,11983.011554898228 1237.0508768711006,11988.236364393262 1226.926001777756,11988.423896392691 1206.1135158044053,12014.798679023399 1205.3634926932864,12019.673680354084 1199.1133971911622,12021.486291607725 1197.4883956621634,12022.5488516505 1202.4883555555716,12027.173715330195 1203.1760466488777,12029.923809886037 1199.9260435911128,12036.173929505167 1200.3635327999946,12038.48644022597 1209.175940266694,12041.298928851786 1213.363545031054,12042.048921293404 1211.17580771551,12044.423884788936 1201.1758879289264,12051.923644085356 1177.3633095111,12055.923790899978 1175.8009312710492,12056.61124998919 1172.4125744354678,12064.25298969337 1171.7213880888885,12066.648605948256 1130.608762026648,12066.2362153235 1126.35853397334,12064.73635141371 1117.2962158933515,12071.923836241534 1114.108544853283,12073.298678317049 1080.6085805511102,12065.23630689684 1076.421267057769,12065.86125006032 1062.6086084266426,12078.298756206932 1061.0462301867083,12083.73618303024 1052.6713119288906,12085.736224265245 1034.8586271288805,12098.67385135754 991.3966082844418,12103.58665433136 979.39594723552,12103.630076988426 973.3718781155767,12117.837415812479 971.9344551822869,12119.775096308033 972.7468103111023,12139.587494153006 972.6844782934058,12142.212644837156 967.2470291911159,12152.087548951327 967.3093612089287,12155.462646029482 973.0593442133395,12180.962408048741 973.0593442133395,12184.337528267119 981.4342624711571,12184.524935778696 982.8093533867504,12184.337528267119 983.8719103999902,12191.462459410192 983.4967532089213,12195.087680413679 983.0592640000395,12198.837436311354 981.6218410666334,12200.712472876883 975.2467902577482,12200.774938599498 972.6218550044578,12207.024973255291 973.7467440355103,12217.712543910777 973.934322631103,12219.400075462472 967.496939804405,12230.962689347507 964.4345153422328,12233.712651769398 968.1220076088794,12239.025127032422 968.7467841422185,12242.27502332232 964.3718920532847,12249.212603137654 959.0436696177348,12252.430983622093 964.3407260444947,12277.681405006966 964.2993655466707,12283.586525462044 953.2467919643968,12338.775019812747 946.1662825244712,12372.755495207792 903.747014257824,12495.962315109384 867.3092895288719,12593.650229949562 824.3931127466494,12729.961380368448 826.0402508800616,12755.986242653162 813.8290008178446,12766.956596322125 804.7981400177814,12795.160491994 790.1212800000794,12806.94155412371 786.2057224534219,12809.461478462967 750.6432674133684,12822.086488044122 742.5182597688399,12827.774047088169 665.0349013333907,12893.09533568524 656.2056001422461,12901.086615231121 594.893031253363,12927.586535689072 589.8056900267256,12931.206282884872 390.3930404977873,12823.336351691163 382.2942472533323,12824.466824000003 273.7360477866605,13019.433931333188 265.1546183110913,13044.794376437494 259.5094929066254,13048.589353445277 255.73927964444738,13052.50920698559 245.98140615108423,13108.67789510655 240.99338837328833,13127.928615873621 194.416224995628,13146.957871128398 191.97741198225413,13148.268284200225 169.54167210671585,13163.77047269768 156.5317566577578,13175.587235859944 156.07242211559787,13184.602597450488 138.98471111105755,13192.685588460881 138.14614158228505,13201.003312839428 151.65471317328047,13205.592945477634 166.12680960004218,13195.072455843736 160.87082239997108,13205.930244985793 168.22192270227242,13210.53316682129 167.06586766219698,13212.19255070138 122.59313806216232,13236.454092693748 112.10155263997149,13249.8139080205 97.9912149333395,13248.327403672272 85.820742826676,13261.478155521385 81.56701952009462,13264.81533545407 49.73399978666566,13274.036518234469 38.17344938660972,13287.09400962398 29.116082915570587,13316.313233510358 49.8138080710778,13365.41920971754 116.86733055999503,13479.673201979138 105.67086904880125,13509.255841904902 99.9243812977802,13527.952286514454 57.3122915555723,13618.286417088879 61.62485162669327,13748.848703995987 5,13864.349020673952" stroke="red" stroke-width="3.365760635767211" fill="none" stroke-linejoin="round" vector-effect="non-scaling-stroke"></polygon></svg>