<svg width="145.03153948439285" height="147.7780622030259" xmlns="http://www.w3.org/2000/svg"><polygon points="5,55.552989720134065 17.90010623994749,63.98691630276153 18.882854968775064,64.57961613929365 7.975334399961866,76.4181736172759 8.031549724400975,76.52657750347862 35.80541525327135,103.48284093575785 35.790269155520946,105.04783630504971 48.36706446215976,107.16809194697998 49.138932906556875,106.85358642367646 57.60909681767225,127.03966913674958 57.73259576887358,127.30040064215427 67.240267377696,118.76539272832451 67.31891057780012,118.74096209986601 97.18992810661439,142.31259778578533 97.66120476438664,142.56842567835702 103.77818936877884,140.2863948860322 104.08781055989675,138.7074360860861 92.2767670043977,133.23851073201513 91.39916714665014,132.7361605235492 115.79632668441627,100.82991969777504 116.60751672880724,100.9676307264599 116.37770382221788,88.42624641215662 116.71499576885253,87.89491775812348 137.13659591111355,85.52480323024793 140.03153948439285,84.1822453555651 88.56306033779401,21.06704655883368 87.81740629323758,19.767203088325914 66.25431466661394,6.87500819854904 65.87449713773094,6.748348984809127 54.641044195508584,5.235099079844076 54.12141653324943,5 42.81048547546379,30.28260639187647 42.69019050663337,30.575891116866842 5,55.552989720134065" stroke="red" stroke-width="3.775233902850913" fill="none" stroke-linejoin="round" vector-effect="non-scaling-stroke"></polygon></svg>