<svg width="465.9147281065816" height="334.69119996897643" xmlns="http://www.w3.org/2000/svg"><polygon points="5,261.6155859317514 14.486408817698248,261.6783097622101 23.854852835531346,261.75785082561197 29.365410986705683,261.8328466587118 31.04750165331643,261.8333011788782 52.57389311993029,262.062379199313 55.51864405325614,262.10510404146044 55.51951786666177,262.0373806175194 60.31617052445654,262.0778328666347 65.16175672889221,262.12237578380154 70.20424220443238,262.1623734976747 75.26653411553707,262.2000986073981 80.48931640887167,262.2450960187125 85.67714616877493,262.2941840933054 92.47890915547032,262.40190510702087 94.19070947554428,262.40554125845665 99.50640725332778,262.41417711781105 104.87045603559818,262.42644912796095 111.32764529774431,262.38236079207854 111.08589027554262,262.4614470790257 116.0806072888663,262.46599226701073 121.04998371540569,262.473719086498 124.9090346666053,262.5228071094607 129.3564532622695,262.5228071094607 133.4549290665891,262.525988740148 141.07720277330372,262.56053215655265 141.46488462213892,262.5637137867161 145.49374663108028,262.557805044984 147.37652309332043,262.5959846045007 154.200131413294,262.6350731943385 155.89241656882223,262.62143764056964 158.648423822131,262.54053333716 158.83308970660437,262.5278068148764 159.0317366044037,263.3063959009596 159.79428437328897,265.6326016727835 161.29840839107055,267.81379467161605 166.55439559102524,272.95103357353946 168.11910399992485,274.15681044507073 168.54756380442996,274.39405636972515 170.68898901331704,274.5154061965877 170.68636757333297,274.4290523940581 174.19793208886404,274.1799896559678 175.32078222208656,273.9236547151231 177.62939704884775,272.83559133595554 178.17087004438508,272.7169675557525 178.15485013322905,272.64515695994487 177.87464732443914,271.2362100922619 177.86503537767567,271.13258396217134 177.83095665776636,270.8044342242065 177.74444913771003,268.8773398951744 180.21122417773586,268.73144361475715 181.96292863995768,268.49373700417345 183.61618346662726,268.25603013375076 183.85386069328524,268.2228511425783 184.14425799099263,268.18921763956314 184.81622044439428,267.8019774732529 185.32477980444673,267.48518541577505 185.62741048890166,267.30883612210164 186.3404421688756,267.0574926805566 187.1594965333352,266.93568418110954 186.79336874664295,268.17649144795723 186.73598833777942,268.4251065577264 188.2922498844564,268.2755739206332 189.08479857770726,268.19694425561465 189.32771868433338,268.16921933804406 191.35030527994968,268.0937711838051 191.8533304888988,268.06195568921976 193.9766968889162,267.55381615896476 194.5138008177746,267.41200956649845 195.1021684622392,267.56426984642167 195.7246148266131,267.72243862139294 196.92173909326084,268.0292311756057 199.80940088885836,267.53245427430375 199.97251271107234,267.5065473050927 199.98125084443018,266.8647806948866 200.45340131549165,266.4425408648676 200.72603107558098,266.22028512432007 201.17284095997456,265.8225876800134 201.5174146844074,265.5262457971694 202.29394346661866,266.6970665871049 202.29598236444872,266.36800113267964 202.2991863465868,265.55488007649546 202.08743224886712,264.721302846272 201.65780735993758,262.62507378828013 201.539842559956,262.05647044390207 201.46556842664722,260.91107789665693 201.43644131545443,260.543823770422 201.3493512533605,259.29524600546574 201.6580986310728,259.25933849374996 201.93305855989456,259.23933937068796 204.7947972266702,258.9648057682789 205.01616327103693,258.9316253590514 205.15451704885345,260.3056536836666 205.99978581327014,260.0974819055409 209.10327950213104,259.28888264944544 209.13298915547784,258.0798416135367 208.7587057776982,256.98397191771073 209.049685617676,256.5685308626271 209.44464924442582,256.00718419335317 210.15098168887198,255.26856794644846 210.1672928710468,255.19675158668542 210.1897207465954,254.99221119162394 212.04249628435355,254.29813601647038 212.78756778663956,253.74132885487052 213.527396408841,252.69725476537133 213.877213013242,251.74908387690084 213.79623964440543,250.081820338557 212.8935904711252,249.43136591045186 211.54296632879414,249.36727490759222 210.65371562656946,248.83000065101078 210.48943872004747,248.29272506659618 210.5060411732411,247.6522653803113 210.82556558214128,247.24135199730517 211.18499413330574,247.12544155522482 212.31745621329173,247.12089604645735 212.81844252441078,247.11453233403154 213.32379790220875,246.99634906864958 213.56526165327523,246.91816625773208 214.1716881066095,246.1431548963883 215.32104391104076,243.4930951706483 215.9900936532067,241.97531914099818 217.31392085331026,242.49624616053188 218.66192355542444,243.1494486958254 219.73409251542762,243.77628491295036 219.93623466661666,243.90992488787742 220.37634531548247,244.25538838800276 221.04219107551035,244.98904194758506 222.19096433767118,246.2990664949757 223.18012103100773,247.68044746428495 223.755964017706,248.52181735640625 224.17597695998847,249.11909254797501 224.18675399105996,249.13772896217415 224.277921848814,249.2677292699227 224.30617514660116,249.30818389524939 224.31316565326415,249.3190930064884 224.54763889766764,249.67409336706623 224.76842239988036,250.00909317558398 224.3481181865791,250.3063653007266 225.18231864878908,251.59635797789088 226.01477148430422,252.64861906296574 226.63721784891095,253.4613338575582 227.22587676439434,254.17495675908867 227.2992770842975,254.04905021359446 227.7195812977152,254.51040416711476 228.4052334933076,255.1949334507226 228.31348309328314,255.32402106869267 228.41746687993873,255.43174553633435 228.51912049774546,255.29356730653672 230.57549454213586,257.383049120137 232.26661461323965,259.08389157877536 232.52438954659738,259.4675110744429 232.82993294217158,259.79113268177025 233.29159765329678,260.3524695800734 234.15812920883764,261.59467798419064 234.59357952000573,262.2491866920609 234.80970268440433,262.574622232758 235.16301454219501,263.217765059846 235.51894783996977,263.9922610344365 235.56059960881248,264.10816248343326 236.05139143101405,265.4744313773699 236.26198044442572,266.2648271928192 236.62723441771232,268.0133234242094 236.69218787550926,269.17004117177567 236.52150300436188,269.31548265344463 236.71403320878744,269.7586240678211 236.7338396444684,270.1204085937352 236.8346194488695,270.3453873609542 236.60655416885857,271.34256317449035 236.13061717327219,273.65095763781574 235.70973041770048,275.03398278338136 235.0802935466636,276.63606302265543 234.70601016876753,277.3009796664701 234.03317390219308,278.33357345784316 232.68400611553807,280.1619614372612 231.30891519994475,281.9008018592722 230.37801272876095,283.12425364315277 229.59041564445943,284.20681185030844 228.695630791015,285.57431784959044 228.01172622223385,286.59596510621486 227.88677091547288,286.7986578968703 226.7103268976789,288.3870175053016 225.95447836443782,289.3536615783232 224.76288824889343,290.8556552424561 224.61900031985715,290.887921860849 223.58265770657454,292.3649098307942 222.64418218657374,293.59557398967445 221.65677311993204,294.84213697205996 221.13510655995924,295.47518645372475 220.6903355732793,296.25183976080734 220.45644487102982,296.6858373286086 220.06497649778612,297.601092186349 219.8488533332711,298.30320911557646 219.58816568891052,299.65517545695184 219.48680334212258,300.6249505049782 219.5130177421961,301.89964824105846 219.59573873772752,302.5799384128186 219.79584199097008,303.529250933032 220.62276067549828,305.6573500572704 220.71072455111425,305.9599992338917 220.8502434133552,306.1413158811047 221.1409319821978,306.6398222747375 221.52715747547336,307.16104879486375 222.41174784000032,308.1330624810071 222.9555510043865,308.65746637718985 223.23254983103834,308.9073984649731 223.80285866663326,309.31774088775273 224.13170375104528,309.5740341011551 224.5723969421815,309.8857662194059 225.22717439988628,310.5151365538477 226.54692380444612,311.513491390564 227.35724003554787,312.24828125722706 228.27561784884892,312.96670976484893 229.11447864875663,313.64787413348677 229.0501077332301,313.70921971899224 229.68100095994305,314.1781720677973 230.3911199287977,314.95475856837584 231.43241415114608,316.1634833550197 231.97650858666748,316.81782780453796 232.3237037510844,317.18953092733864 233.21732351998799,318.2183000712539 234.07016533322167,319.5187954417779 234.39609770663083,320.0795237501734 234.2944440888241,320.33216909569455 234.51173233776353,321.06465717899846 234.85484970663674,321.7680615268764 235.7808005688712,323.00946468213806 236.32023466657847,324.1999691030942 237.32861525332555,326.10658016166417 237.60503153770696,326.52188836061396 238.48700046213344,327.30615529074566 240.30802744883113,328.232640794653 242.02507064887322,329.17820628447225 242.71829589328263,329.4544687556918 243.55366143991705,329.69119996897643 245.02603690663818,329.57442471937975 246.19461660436355,328.851961664157 247.27931022213306,328.03543920832453 248.29817656881642,327.5883271153434 249.16004778665956,327.3556830610032 250.0661922133295,326.98672362067737 250.98194858653005,326.5977706263657 251.86828657775186,326.092948588077 252.31451391999144,325.9184643707122 252.75957617769018,326.01706614607247 255.7296676976839,327.0321620092145 256.94601585774217,327.3325095185428 258.88966798211914,328.0958719715709 259.41191708436236,328.38122343848227 260.538262471091,328.3544149567024 260.96322702209,327.89458082296187 261.3104221866233,327.41884231136646 261.5562550043687,326.57414261833765 261.5108167110011,325.8171362322173 261.5373223822098,324.8483823186252 261.6517919288017,324.49214152019704 261.91801372438204,324.15725646179635 261.536157297669,323.57154716184596 261.5026611199137,323.5065692291828 261.8055830755038,323.314816055994 260.54379662219435,322.1352122465032 260.2263111110078,321.67036661464954 259.212687644409,319.08257144654635 258.86374485329725,318.63362333754776 256.47998207993805,317.1918029493536 256.1499719111016,316.8250982873724 256.1467679288471,315.9412784377928 258.3956721776631,313.40794456592994 261.05439487996046,310.5514900193084 262.0426777598914,309.6444692398072 262.6759011555696,308.8846773779369 262.70124174223747,308.72335759183625 262.75570943998173,308.57885131571675 262.90600533329416,308.3202848144574 264.47799551999196,306.5212169373408 267.49876821320504,302.75080588361016 270.9873223110335,298.3354746287805 273.4750688710483,295.3842964763753 276.5447751111351,291.692767934117 276.8241041066358,291.30238842085237 277.86248561774846,290.1412438162952 279.30427761771716,288.4261014580843 289.29021639109123,276.7155986134312 291.2143533510389,277.63639139180304 293.71986744890455,278.96757997979876 294.15298759099096,278.23404108331306 294.76378311100416,276.4479044234031 296.1735352887772,274.0509132341831 297.40502954658587,272.22111036319984 298.07174911990296,270.872609418293 299.4401407999685,268.416925443511 299.7835494399769,268.5728210679372 302.41489265765995,270.01223690161714 303.01869767101016,270.35493190953275 305.51722126221284,271.6929825770785 308.6571238399483,273.43825367995305 308.88606293324847,273.0773836686858 308.96791011549067,272.9796668749186 313.45931064884644,266.7579709122074 314.54080028436147,265.1080939868116 314.65585237334017,264.98582988156704 313.39610481774434,264.16497689665994 312.27238087099977,262.6846156991669 311.07962567103095,260.4833722272306 309.9532802844187,258.88889989315066 309.1822856531944,258.24847142468207 311.2610875732498,251.55272198707098 311.5878937599482,251.0004532210878 316.4162949688034,241.90031645685667 317.167774435482,240.5970838680514 317.9917804087745,239.126108085562 318.91365347546525,237.61375641316408 317.1569974044105,235.7950111758546 316.44658716442063,235.27497724810382 315.1612077510217,234.39673530776054 312.3556844088016,232.76843263272895 311.82440590218175,232.36794649326475 311.23283427546266,231.77289818815188 305.29789411555976,225.160888193117 305.20031829329673,225.0540579171502 304.189898808836,223.94756592833437 304.57495921768714,223.521605924936 306.08694755553734,220.4994025482447 306.3569558755262,219.4838091285783 306.3086048710393,218.43047826352995 305.8926697244169,216.07649036165094 305.52916337770876,214.25529180892045 305.0954606933519,212.24040833109757 304.36582655995153,209.6435814985307 303.70668003556784,207.99872660421534 303.02102783997543,206.68892584141577 302.4233395198826,205.97969339421252 299.05449784884695,206.1251771618263 286.4954700799426,200.94134858594043 286.5729481955059,199.92520912660984 286.95917368878145,198.41713120322675 287.16772380436305,197.1018168317969 287.5489976888057,195.4932397325174 286.3119692798937,195.22999209235422 286.2685698843561,195.09768616314977 285.8966166754253,194.56346037209732 285.56573269329965,194.32112602720736 284.60424675547983,193.67050471383845 285.63767665764317,191.4667435582378 286.6882915555034,189.4680169848143 288.7968031287892,185.56417271867394 290.18121472001076,183.19982576777693 291.3413475555135,180.88956114207394 292.0299124622252,179.9492614030023 292.95702840888407,178.11048168473644 293.3307292443933,177.20609099703142 301.8026407822035,161.57076814660104 302.5576155021554,160.335263678513 303.41628273774404,159.10748268134193 304.5959307376761,157.60412361344788 305.18284202658106,156.94384284125408 306.02694570668973,156.1930666056578 306.52793201769236,155.7565147249843 308.05448391113896,154.5559925310663 309.5420054754941,153.53872667829273 310.9217567289015,152.65924489678582 313.1965841065394,151.04715555434814 314.8090609777719,149.8379670107388 316.06414819555357,148.78930087038316 317.1124329243321,147.83658374956576 317.7535206399625,147.24403252173215 321.31256234657485,143.91652949823765 322.20938609773293,143.0824856305262 322.11297536001075,143.29577196243918 322.2536593065597,143.89333639136748 322.5257065243786,144.2398684353684 325.2522953954758,145.6560054543079 325.7730881421594,146.02754661854124 326.42233144887723,146.31995861808537 327.77586830221117,147.16717809985857 328.3467596799601,147.60010916320607 328.7938608354889,147.83931230095914 329.5016496354947,148.0671462234459 329.7032092444133,148.47142578940839 329.75359914661385,149.2422379508498 329.4506771910237,150.45506783394376 329.3787332265638,151.12037059041904 329.45970659551676,151.93573886010563 329.6586447644513,152.93436755338917 329.86865123559255,153.77610429475317 330.45061091554817,154.90205282869283 330.7919806577265,155.38135225180304 332.26756010658573,156.93793122755596 333.5811928177718,158.4144654557458 334.3143222044455,159.9728416390717 334.92715662217233,161.48527892120183 335.4957178310724,162.4597631515935 336.03893845318817,163.00316239969106 336.4085614932701,163.26326599396998 336.9305193243781,163.655239703774 338.080748942215,164.5001179871615 339.82662798219826,166.07618462841492 340.5591748266015,166.5054402675014 342.6493363198824,167.40032641601283 344.1683151643956,167.94143972819438 345.1283447466558,168.08285651466576 345.6540891021723,168.25428445707075 346.291681564413,168.53802696126513 347.6067706310423,169.8489670866984 348.17766200890765,170.7574807862984 348.93409308441915,172.37624453246826 349.5553743643686,173.84221567836357 350.1317998932209,175.25634100538446 350.5748232533224,175.90610804624157 351.26659214217216,176.74229944095714 351.9545745066134,178.1882345546037 352.97314958216157,179.0730693480582 353.74763946654275,179.98881954938406 354.45105919998605,181.45655809988966 354.9942798221018,183.26120817731135 355.55701560887974,185.83425225288374 355.5887641599402,186.19435777614126 355.53225756436586,187.66569182107924 355.36477667547297,189.18839385343017 355.3175907555269,191.21031105844304 355.51652892446145,192.2960551031283 355.54332586657256,192.6811564824893 356.4308289421024,195.38275760115357 356.8155980799347,196.12839723395882 357.17444408882875,197.0077031236724 357.63290481781587,197.7387882489711 360.7375635911012,201.58785631938372 361.9713880177587,203.2245761617669 362.41645027545746,204.28661888820352 363.5314360888442,206.0483435592032 364.5479722666787,207.8727933090995 365.304694613209,209.57038617500803 366.3561833243584,210.5573843945167 367.7306916976813,212.00127606460592 368.74431516439654,213.33786748728016 369.86687402660027,215.23635872657178 371.74673777772114,217.5335291395313 375.21868942212313,220.77580315881642 376.05725895101205,221.7836622761679 376.7665041065775,222.66877420985838 377.26836423110217,224.07849050028017 377.67002709326334,225.76550110580865 378.4014088532422,227.80753469170304 379.40542037331033,230.6750775211258 380.4618606932927,234.4171912939637 381.19469880883116,235.9941147453501 381.65257699554786,237.46011144045042 381.7396670577582,238.9997382554575 381.94268302212004,239.54567357717315 382.61755818664096,240.30025303002913 383.39583459543064,240.6993608623161 384.8460734577384,241.11437768285396 386.29805994662456,242.19078125339 389.577481386601,243.95128962543095 390.29779484437313,244.64357961335918 390.8704338488169,245.3799591899733 391.30384526215494,247.22362452198286 391.3422930488596,248.6809090822353 391.53948359098285,249.48045687860576 392.09085980441887,250.9509080533171 392.4802892799489,252.04726270370884 392.6946648177691,252.77089010708733 392.7724342044676,253.67769365984714 392.74155946657993,254.24404624052113 392.1333853865508,257.1644203562173 392.0710533687379,259.4029685052228 392.39669447101187,261.12152150372276 392.5274752000114,261.6201311374316 393.564400355448,264.80766050482634 393.63692686217837,265.35853065678384 393.8542151110014,267.716984527593 394.09451377775986,268.75325988716213 394.703270399943,270.3053911526804 395.4972754488699,271.7507040069322 396.26943516440224,273.51233649236383 396.87324017763603,274.3858754800749 397.2440283021424,274.69629457680276 400.56888803548645,273.5877827660297 400.276451839949,274.44632315734634 400.36062919104006,275.5757371953805 400.8531686399365,283.20424133579945 401.80242119100876,297.28298020991497 402.0639826488914,301.6728843774181 402.2917566576507,302.5149542063591 402.47380110214,303.3256648729439 403.158870755462,304.91481260501314 403.9051073421724,306.12677420064574 404.5426998042967,307.2187608087552 404.82610659557395,308.0603547352948 405.0524242487736,308.70290859637316 405.3005872354843,309.4063529372215 405.3806867910316,309.6340175755904 405.63176248874515,310.4124379810528 405.7217652621912,310.69099638663465 406.04391111107543,311.2331163713825 406.6727654399583,311.97381458460586 406.9786001065513,312.22646934882505 407.8154220088618,313.075768913317 408.0274673777167,313.3561415563454 408.2264055465348,313.7210344224004 408.39942058653105,314.19589408434695 408.55874588445295,314.89704860781785 409.0410908443155,314.875236965192 409.7124707554467,314.69256437249715 409.992091022199,314.5262503858539 410.61249848874286,314.2663277258398 411.1790207999293,313.7537520591286 412.3936213332927,312.46458256302867 413.6128822043538,311.488952910644 414.9565158400219,309.94211425137473 415.7770265599247,308.95056852372363 416.60947939543985,307.9935544725158 417.4640688354848,307.1396908016177 417.5872765154345,307.0406260393793 418.5036154311383,306.1040528230951 419.03402012435254,305.6446260586963 420.2809517510468,306.81841179856565 421.5689526044298,307.90312415204244 422.32072334212717,308.65428542153677 424.08903025777545,310.475602153223 424.2958327465458,310.6401015659212 427.5041840354679,314.1368206901243 427.7800177776953,314.4703579519992 429.7376509155147,317.874317290436 429.74435015104245,317.9874636020977 429.88212138658855,318.39369927172083 430.8369080887642,320.3153563750093 432.36287743994035,322.564159826783 432.8874567110324,323.30754579015775 434.1113779200241,323.7255856799311 435.53278094215784,324.256313425547 438.3394693689188,325.18190314940875 440.8129436444724,325.15282233437756 442.75543068442494,325.1696346810204 446.565839359886,325.3073141197092 448.57881400885526,325.09466069267364 448.5348320710473,326.2029099239735 448.52551139553543,326.25834495649906 450.48518343106844,325.83485730021494 450.4994557155296,325.83758361823857 451.34297685325146,325.62175000237767 451.3965707378229,325.14146264008014 451.21540010662284,324.6148265549564 452.8570040888153,323.3488954237546 454.0593712355476,322.0193417274277 455.0106626843335,321.4190860108356 457.6428797155386,320.83291493804427 458.55805354658514,319.1834483232233 459.67216554656625,318.951704077248 460.5599598932313,318.7272300035693 460.9147281065816,317.5721391014522 460.6601571554784,316.03670389024774 460.65083647996653,315.98626472771866 459.9756700444268,315.5100457521039 459.5772111644037,315.21331717976136 458.9032098132884,314.80752997734817 455.09717020438984,312.6849733781419 453.56683178665116,312.0042604080518 451.84192426665686,311.3717134682229 450.9981118577998,311.13314464018913 449.3579642310506,311.08633967739297 448.93270840891637,311.2758315516403 446.4012711821124,311.89974487683503 444.934429866611,312.08832721196814 443.80691939557437,312.03288856655126 442.0878372977022,312.26872991927667 440.59245141327847,312.2051118532545 439.52639914664906,312.2646401870297 438.4102482488379,312.06287996674655 437.0325358932605,311.5789273236296 436.05095224885736,311.04998630139744 435.34665870212484,310.8255040697404 432.37452828441747,309.48496769956546 430.59020145772956,308.8196950558922 430.38485532440245,308.37027133250376 430.2977652621921,307.3550883398275 430.7524394666543,306.2903680492891 431.0801194666419,305.0556858784403 432.20966883550864,301.4770220122882 432.5251154488651,300.24049474758795 432.6189047466032,299.332976510399 432.6675470221089,296.8230803581537 432.8009491910925,295.0725435653585 433.40999708429445,291.9722592388862 433.8055432533147,289.6481531357276 434.1413788443897,287.18768209574046 434.0781730132876,284.44813706347486 434.0225402311189,283.6137233238551 434.05778403545264,282.22166320862016 433.32378083548974,278.5044599855901 433.2841679643607,277.158270455664 432.923865599907,275.817980971362 432.67541134217754,275.27031876676483 431.8814062932506,273.35780789813725 431.18643342214637,272.7460553852725 430.3828164266888,271.8788727961364 429.81571157323197,271.1357654668973 429.46909895108547,270.47401148075005 428.55975054216105,269.0864122758503 428.52217656886205,268.92188141919905 428.45955327991396,268.9355165778543 428.2297403732082,268.61599913652753 427.61661468446255,266.49435505393194 426.91756401769817,264.144523709605 426.8488240354927,264.17134010995505 422.5895665776916,266.280280561361 422.3183931732783,265.2680826005526 422.26043022214435,264.2549708968145 422.47975736879744,261.47422998660477 422.51674879994243,260.2520199257997 422.55461404437665,258.42482806841144 422.28577080881223,255.63764911703765 422.28547953779344,255.58492327382555 422.0428507021861,253.37133538891794 422.0128497777041,253.18315665243426 421.96566385775805,251.99999047798337 421.7734249243513,249.57591150706867 429.0199588977266,242.8953499609488 430.6408826310653,241.4312081724638 430.77253717323765,239.9602380344877 430.576802986674,239.14247251854977 430.26223018660676,238.20787959039444 429.56550968880765,236.44732470193412 428.8192731020972,234.29809196962742 428.2113902932033,232.7002454874455 427.9544891732512,231.79335442109732 426.35133297764696,230.93373638874618 423.1793905777158,229.00174268288538 420.10298510221764,227.31793934031157 418.8499367821496,226.5001262614387 422.2508182754973,222.24417550914222 427.21087402664125,217.03572759777308 426.86542648880277,216.046485716186 426.6233801955823,215.18998773006024 426.43987939553335,215.0531477709883 426.05278008885216,215.21726478805067 425.5180063288426,215.8500915718032 424.0176688354695,217.31258722610073 422.31577173329424,218.77916453155922 418.4433223110391,222.09597491082968 417.1442531555658,223.01336226728745 416.8491955199279,221.06493236875394 416.44112469325773,219.01692551223096 416.21538958209567,218.24499694391852 415.8591650133021,217.61490480828797 414.8944750932278,218.2736374521628 413.78181944880635,219.01419785426697 412.1786632533185,219.96251154207857 409.38566456886474,215.47048664605245 412.90276323549915,213.19329779112013 415.9325653333217,211.25114462460624 422.21644828433637,207.38315305311698 423.939316906617,206.20928492047824 428.6683946666308,203.18956867192173 428.79364124441054,203.24958150828024 429.7396898132283,201.5951306570787 430.6516596621368,199.63741574529558 431.3396420265781,198.6417295432766 431.7054785421351,197.86427276208997 431.99034168885555,196.92541042756056 432.16219164442737,195.0585854263627 432.6031761065824,193.301772972045 432.8565819732612,191.64542772766436 432.95940067549236,190.82748041598825 433.1589213865809,189.59487028681906 433.19707790215034,189.14974672568496 433.2506717866054,188.64869745908072 433.36193735105917,188.2776838276186 433.77932885324117,187.19191970844986 433.96778126223944,186.0784147750237 433.9596256710356,185.58281458279816 433.8958372977795,185.2527169471141 432.5661846754374,184.39064141822746 432.20937756448984,184.2310479467851 432.1750075733289,184.3138001318439 430.7885570843937,183.92913860909175 429.72279608878307,183.7695447987062 428.37275448883884,183.66724101250293 427.1045600711368,183.6567832894507 423.47037041769363,183.8845796652604 421.0624321422074,183.67497063358314 419.63083463103976,183.52583436650457 416.56404110218864,182.8965509419213 417.24532423110213,181.872142741282 417.68310471100267,180.21525569731602 417.9534043021267,179.38044174254173 418.5641998221399,178.22597424167907 419.1263530666474,176.94282120576827 420.04735231993254,175.65238538809353 419.7578288355144,174.73434340307722 419.87200711108744,174.25190373748774 420.0977422222495,173.76400654931786 420.73038307542447,172.96418017783435 421.40030663111247,172.3275908540818 421.3004006398842,172.24710764246993 422.01022833772004,171.19400253432104 422.3673267199192,170.34096546756336 422.6600541865919,169.50111173675396 422.60209123557433,169.50338530295994 422.51412735995837,168.283840985212 421.79497898661066,165.28496968216496 421.464677546639,164.40144292119658 421.3376833421644,163.69161773851374 421.31467292434536,162.03413735231152 422.0346951110987,159.10930162121076 423.045114595443,157.12846700573573 422.94957767101005,157.04661394731374 421.94469233765267,156.46318264270667 421.44545365322847,155.90521530777914 420.49823999998625,155.0762196293217 419.73161443544086,154.35726908879587 419.07538062217645,153.61830732569797 418.53186872880906,153.07261087239021 417.48882687999867,152.15447349735769 417.807186204358,151.79249256459298 418.5452671998646,151.48371689557098 419.5792796444148,151.49235716328258 420.78164679103065,151.21996119007235 421.77925034658983,152.2908983154921 422.72238620440476,153.10580744576873 423.4907593955286,153.71835152694257 424.54312191996723,154.43957790499553 425.32139832887333,152.93846028437838 424.79361507552676,152.68107282277197 424.3738934043795,152.35137995751575 423.80970126215834,151.89617560693296 422.43228017771617,151.0307844869676 420.47552085330244,149.15583436371526 420.0121085154824,148.20630215440178 419.31713564437814,147.2576753156609 418.9877080176957,146.0207251830143 419.27694023109507,145.79425340349553 419.8845317688538,145.47228106972761 420.8902909155004,144.99432408442954 422.25227463105693,144.32445491332328 422.9580245332327,144.07933594303904 423.48872049781494,144.50363261281746 424.60807537764776,145.95205605390947 425.40411932440475,146.24765148834558 425.881803946686,146.245377678948 426.336769422167,145.8924821561086 426.8322215821827,145.05799110792577 426.187638613279,144.74102009885246 425.458587022149,144.02885686280206 426.73843228444457,142.66273387992987 427.2024271644186,142.18431594473077 427.0975695644738,141.45941071637208 426.47337557328865,140.71904077247018 425.89258097764105,140.19013858604012 424.61098808876704,139.02454822591972 423.5207603198942,138.35647976578912 422.8365644799778,137.57926206995035 421.8567284621531,136.23674724932062 421.3796263821423,135.50727433647262 421.1416578843491,134.95880368823418 421.0405868088128,134.320738663082 421.644974364317,133.52758893504506 423.06521230214275,132.32648913929006 423.5650335288374,132.72124739637366 424.5384615821531,131.75299689127132 424.37622357322834,130.44228172517614 425.34499128884636,128.93417635344667 425.5582017422421,128.30837322288426 426.52988216886297,127.29598730744328 426.3670616177842,126.66153820435284 426.0358863644069,126.0566495207022 425.3889732265379,125.80514267779654 424.2932113065617,126.20264160528313 422.8991877688095,127.03584065911127 422.0882889954373,127.41469048231374 421.2223399821669,127.44334296311717 420.03308003547136,127.09723893465707 418.98945564439055,127.02447060617851 418.06874766224064,126.86074177821865 417.589897955535,126.60559744184138 416.9694904887583,126.08211855194531 416.3502481066389,125.29439642088255 415.8885833955137,124.2774483843823 415.64158549322747,123.44014546711696 415.51750399998855,122.96168520854553 415.207008995465,122.11164247395936 412.59721983992495,121.90242866391782 411.7825345421443,122.3049376628478 410.29559551994316,122.75520108331693 409.62829340447206,122.79431483137887 408.7952580265701,123.11995925096562 408.43728583096527,122.74928853940219 408.0729056710843,122.13119940675097 405.83681735105347,122.36633727519074 405.402240853291,122.44956783298403 404.99067477334756,122.02204441040521 404.2059903999325,121.06739066768205 403.1632398221409,119.76707184320549 403.37324629328214,119.42095558781875 404.12210431997664,119.05619121069321 405.1628159999382,118.69460995838745 406.01507527101785,118.24069955950836 406.9780175643973,117.59940168849425 407.5780360532226,117.71947462536627 408.4340818488272,116.54785101226298 408.9213784177555,114.29691509349504 409.68771271104924,114.49203654780285 410.27287637325935,115.0555681558908 410.82367004442494,115.6281948221731 412.4006118399557,118.99751957668923 412.80198343109805,120.80450767144794 412.9872318577254,120.77812839130638 414.8126279109856,121.6031616028049 415.7068302221596,121.46171456581214 417.9006842310773,120.68079791608034 418.83013034658507,120.48022422922077 420.11842247110326,120.33377348381327 420.9465062399395,120.35469502484193 421.51885397324804,119.82028546306537 421.576816924382,119.24721502576722 421.1672897421522,117.9605299422401 420.7198973154882,117.1259316203068 420.13619000883773,115.93201836600201 419.74239146662876,114.59073427965632 419.47063551994506,114.03402390604606 419.52947228436824,113.80388014850905 420.84893041767646,112.88967032526853 420.9138838754734,112.4948760382249 420.9170878577279,112.01002400845755 420.41260629321914,111.24362811498577 419.97744725318626,110.30120761919534 417.949326506583,110.9684526687488 417.48154510220047,110.51998417003779 417.27590769773815,110.29893343348522 415.2212812799262,107.60309699428035 414.6693225244526,106.94630302587757 414.0771683554631,106.5182942537358 414.7371886932524,105.81055420037592 416.064219875494,104.6711606468889 417.29017998219933,103.72143402934307 418.17360526218545,103.45307182864053 419.70540003548376,103.10329076793278 419.81317034666426,102.99185195012251 419.56325973325875,102.7962653155555 419.05382655991707,102.41873712750385 418.5111884799553,101.9866257457179 417.4390195199521,101.17743801523466 416.09567715553567,100.04165903461399 415.57342805329245,99.57224444206804 414.75437368883286,98.76941577770049 414.0821199644124,98.0966749129002 412.67149397323374,96.94814360595774 411.28970382211264,95.37066576065263 409.96733297780156,93.26234055013629 409.48236657772213,92.3253005563165 409.3466342400061,92.38670864078449 409.09468472888693,92.43628997047199 408.67175907548517,93.21230453607859 407.9983402666403,94.33128900657175 407.49414997326676,95.09774455596926 407.0852053333074,95.62220783391967 406.5612086043693,96.16759371600347 406.0774072888307,96.6315572753083 405.7147747555282,96.90402168809669 404.9810628265841,97.33386885665823 403.1667350755306,97.85650728427572 400.43519459548406,94.21074827341363 400.15091399103403,93.22003737540217 400.2866463288665,93.010340871464 401.5472676977515,91.83630963444011 402.01737927109934,91.45284900680417 403.5579121777555,90.27971911203349 406.7950993066188,88.25049420777941 406.1545941332588,86.75619744410506 404.0644326399779,83.79759599926183 403.66422613325994,82.98834052425809 403.4422775466228,82.05216601199936 403.41926712880377,80.70839826692827 403.33625486213714,79.89503717824118 403.2316885332111,79.21677904285025 403.1364428799134,78.79417447937885 401.9783489422407,75.57480142969871 401.49687779543456,73.71330241038231 399.51128263107967,68.56225315137999 399.24156558222603,67.53867057320895 399.2188464354258,65.29814521007938 398.55008796439506,62.62586200417718 398.18454271997325,60.31204035767587 398.09483121777885,57.07556032197317 398.24483583995607,56.99594430718571 399.6842976710759,56.579665812139865 402.86672583105974,54.40909037535312 403.5165516799316,53.73439231375232 400.9175395555794,52.12111387465848 397.7362764799036,49.400897294515744 397.364031999954,47.906788263237104 396.5222584888106,45.90810563857667 398.42280248890165,44.731089990295004 398.7554340977222,44.39531860529678 398.2864876087988,43.462162613577675 397.71064462221693,42.73829286947148 397.0849942754721,43.42985923826927 395.27911338664126,44.66830351058161 394.83172095986083,44.848018385935575 393.05118065769784,45.98044616804691 391.5636590933427,44.07865568535635 390.82324792887084,42.78834050951991 388.3555990755558,41.801944895938504 385.75047025771346,41.312385262339376 384.69519502215553,41.12083793064812 382.4355137422681,40.865137904009316 381.7146177422255,40.71044379158411 381.7731632355135,39.871453804313205 382.2016230400186,38.8600206777337 382.3696864710655,38.19528406119207 380.3738968176767,35.95172608847497 379.78290773322806,35.356594674580265 378.2878131199395,34.813786084007006 375.7790950399358,33.79504945164081 375.09635555546265,33.53388082742458 373.6868946488248,32.84865294437623 370.966422470985,30.84573673963314 370.3451411910355,30.42485808773199 367.89147335104644,28.851902221038472 367.7146717865253,28.93971868616063 366.2612289421959,28.470150439243298 365.99180316436104,28.39097894873703 364.70263722667005,28.17712477844907 363.9147488711169,27.872268469713163 362.2498431999702,27.890468858357053 360.8092162843095,27.669334032863844 359.94938396441285,27.486874881898984 358.689053866663,26.986362708441447 357.7584426666144,27.585612147231586 356.7692859732779,27.527370816504117 355.6895439644577,27.591982291836757 353.31859712000005,27.954170206503477 351.39737287105527,28.95518894068664 349.81780963554047,30.446243293001316 347.5773522488307,32.03374764818 340.6587895466946,36.645589019404724 337.2162562843878,38.17435460694833 338.73436131549533,40.696794305811636 338.48881976876874,40.82191456016153 337.41956352000125,41.28053654904943 336.24690602661576,41.67637022520648 335.1016280177282,42.0535489997128 333.7830436977092,42.280583917337935 333.21448248880915,42.35702046944061 332.4586339555681,42.54629181616474 331.9870660266606,42.69916470651515 331.2192753776908,42.70598938659532 330.0419575466076,42.34974079899257 328.567834453308,42.37021487153834 327.6581947732484,42.55630135390675 326.4660221154336,42.87160155788297 326.1121277154889,43.000360384059604 325.61114140436985,43.212835029291455 324.5998481066199,43.685101269511506 323.9779842844,43.958542043343186 323.0310619021766,44.39531860529678 322.6556134399725,44.57912847929401 321.7392745243851,44.97541111899773 321.23770567111205,45.174234628037084 320.08223317330703,45.65559605421731 319.64416142215487,45.81529133900767 319.00307370664086,46.066890794434585 318.14586282661185,46.38764555484522 314.8914907021681,48.60743750509573 311.33536170667503,51.13612551946426 310.471160319983,51.84358873910969 310.0406616177643,53.448225072119385 309.74968177767005,55.38041532790521 309.7030783999944,57.131518989102915 309.5230728533352,59.09461270371685 309.19044124439824,60.849325952876825 308.7383884799201,61.80606407450978 305.72606264881324,64.82501608721213 305.36459519993514,64.18447040213505 302.0522601243574,67.32621971826302 302.2479943111539,68.53586752765113 298.653708799975,73.07778699620394 297.26201543107163,72.45591721456731 298.3222422754625,52.64568090823013 291.03405653336085,48.492330998997204 278.2699739021482,41.218204053875525 235.3456415288383,16.75564117828617 223.31061048887204,15.607589830935467 221.93610211543273,14.34304269979475 221.26268330658786,13.61862087546615 219.83283342211507,11.98593267943943 219.10989852447528,11.263778216729406 218.43822734220885,10.73501583369216 217.83791758213192,10.123433640634175 215.79406819550786,7.7917607328272425 215.6536755199777,7.644323899643496 214.31732366222423,6.016596407920588 213.5530282665277,5.311259208538104 213.31331214215606,5.159270118630957 212.97019477328286,5 212.18987946666311,6.079849115747493 208.57316607993562,11.195066482352559 206.73932316433638,13.453896480321418 203.78670791105833,17.15561483608326 198.00643271103036,24.356834808539134 193.13725354662165,30.691035492054652 192.44198940438218,31.892697286617476 191.3546743466286,34.18680179916555 190.41940280876588,36.4349279179587 190.40047018660698,36.548675838217605 187.86641151993535,35.14320235606283 184.51766755548306,33.54662076756358 182.0267170133302,32.701233117317315 180.81852444435935,32.39183315489208 178.7901124266209,32.23167300125351 176.25634503096808,32.10563779732911 170.86025642661843,31.776671920495573 169.7904176354641,31.7352667748346 168.28338090667967,31.63243637891719 164.36869717331138,30.120004933385644 161.01441905775573,30.018083783390466 157.88529351109173,30.002613604592625 156.29990485333838,29.750995542795863 153.53282929770648,29.16995235887589 151.25246776884887,28.671719103644136 147.38118343101814,27.666148961696308 144.8800383999478,27.636573298892472 142.77356572449207,27.635208268184215 141.5604215465719,27.613367775978986 137.801859128871,27.19020780554274 133.44881237321533,26.853954295103904 132.16081151994877,26.772507155372296 130.14172017772216,26.582312039739918 126.93307761778124,25.620413617405575 122.48653283552267,24.310423059447203 120.75026574218646,24.107030277547892 118.15824412438087,23.78351250727428 114.73609984002542,23.50822626124136 111.60901319107506,23.333043923194055 110.08683036430739,23.203363400010858 107.5128675554879,22.916245896194596 105.71659861330409,22.55905481101945 103.70857557328418,22.231894562777597 98.81289073766675,21.399203530105297 94.08206535107456,20.611556779476814 90.56234524445608,19.9827113962383 90.55884999106638,20.182922859094106 90.41350570658688,21.866966973117087 90.24864625779446,23.043651491461787 89.5242550043622,22.979948703141417 87.62720625777729,22.616387432382908 86.77465571544599,22.464410450484138 86.50872519111726,22.44484454393387 86.60863118211273,22.635043282120023 86.61329152004328,23.058212126255967 86.48338460433297,24.413711938483175 86.37765319109894,24.403701564704534 85.39228302217089,29.35013506305404 85.00664007104933,30.97313768422464 84.59012238215655,32.19754795328481 71.90643057762645,25.373795644321945 71.76079502212815,25.69549098913558 70.78125027555507,28.060642418509815 69.42188799998257,31.418585399806034 69.09974215109833,32.17206791386707 68.79798527993262,32.91599283210235 68.49448078218848,33.62442538602045 68.19592789327726,34.34377553820377 67.90436551102903,35.08405306219356 67.62299761769827,35.74515925341984 67.34192099550273,36.442662778368685 67.04191175103188,37.11331963306293 66.7299603910651,37.916376168548595 65.79993173328694,40.184028001560364 64.5841661154991,43.11228495539399 60.63744255993515,52.7148344903253 58.62242901325226,57.63378150301287 58.52456191997044,57.913573975965846 57.07927466661204,61.41800104570575 55.057270613266155,66.27306091337232 51.95057294215076,64.27909658808494 47.4449001243338,61.497160500555765 46.74118911998812,60.270185708475765 45.50153927097563,59.48768426151946 45.68533134215977,61.14048778632423 45.81785969773773,62.13634929509135 48.50803967984393,66.14477080950746 51.02782606217079,70.0339289844851 52.10145137773361,71.6347916231025 52.11135459551588,71.98644301813329 52.72972316434607,72.68519494176144 54.1275332266232,74.60675114422338 54.67774435551837,75.2895727760042 55.22009116434492,76.25716511061182 56.194684302201495,77.14878375717672 55.24572302214801,78.35701216611778 54.88134286215063,78.69000164582394 53.029732408816926,79.94689586205641 52.06912028440274,80.59876755945152 51.954359466559254,80.85032673546812 50.94597887992859,82.21729329624213 50.62732828431763,82.71267439593794 50.07187427545432,83.74482844909653 49.586616604356095,84.77561292727478 49.192818062147126,85.39471811166732 48.97902506659739,85.87144154828275 48.67930709326174,86.79531767300796 48.02685980440583,88.29006905085407 47.70704412437044,89.3576773275272 47.27159381331876,90.21785555285169 47.21071815106552,90.52899268665351 47.202853831113316,90.78918304719264 47.303342364379205,91.18265214387793 47.90044814220164,91.89271422493039 48.76552334218286,92.63325055356836 49.95303566218354,93.98877120140241 50.8682094932301,95.17006870865589 51.385506986640394,96.38229070190573 51.81163662218023,97.688207840838 53.27381759986747,95.47755980567308 54.110639502177946,96.06388407904888 54.184622364351526,96.51693107635947 53.371102150995284,99.02322822011774 52.62166158214677,101.4035014451365 52.83982364437543,103.08054815669311 53.057694435468875,103.94840451324126 53.301779626635835,104.7380234276061 53.78441585774999,105.71776548778871 54.82891406212002,107.26560338871786 55.78661347553134,108.61102625919739 57.108401777688414,110.53317443322157 57.635311217745766,111.45194251858629 57.88726072886493,112.07233619672479 58.260379022103734,113.9617060321616 58.40106296876911,115.4817408064846 58.85894115548581,118.70552562759258 58.724665173213,118.89745938911801 58.43688931548968,119.14488085999619 59.48896056890953,120.8959254968795 60.38898830220569,122.19305388041539 61.75126328889746,123.73213305399986 64.06453845323995,126.21082807442872 64.69980074663181,126.74067389249103 65.16030037333257,126.89894518238725 67.09667071991134,126.51008878968423 68.13155697763432,126.38911110343179 69.5418916977942,126.92668812646298 70.67551886220463,127.35101828927873 70.18356195546221,127.94908136693994 70.5633794843452,129.28073225350818 70.48910535103641,131.06580474186921 70.75445333321113,131.3787025618949 70.83892195555381,131.43873523158254 72.12459263997152,131.95719850755995 73.4906541510718,132.55888723226963 74.44544085324742,133.15420724084834 76.0686947555514,133.82365605857922 76.45084245328326,133.94872269470943 79.06733084435109,133.71541651181178 80.91923256882001,133.72860536706867 81.75430684443563,133.94644875644008 82.47549411549699,134.27616954641417 83.30183025775477,134.70730714855017 83.99767694214825,135.16072836652165 84.72061183990445,135.8947502783849 85.25655068433844,136.7315504247672 85.47646037326194,137.27637835318455 85.71501141320914,138.4069601636147 85.56092899548821,138.75031751353526 85.72666225780267,139.40565102919936 86.35376895987429,140.21742505877046 86.39309055998456,140.41979962476762 87.06068394659087,141.2893259524717 87.04553784884047,142.0619826723705 85.39548700442538,143.2998648750945 84.7077959110029,144.03749742696527 83.03997752885334,146.45820614491822 82.05373354663607,147.8111172679928 81.78984191990457,148.0917031589197 81.52362012444064,148.41367161169183 80.11823701334652,149.8466073438758 79.301804088871,150.58785569650354 76.65851875557564,152.88980225409614 73.8261984710116,154.88249884493416 73.49269304878544,155.07394591224147 73.41142840881366,155.11259910016088 71.0509673244087,156.42498443566728 69.12420892436057,157.53818657418014 68.84633628441952,157.322185788129 69.02954581321683,156.6682705206913 69.46586993767414,153.08534380525816 70.05918919108808,151.92300585989142 71.45204764441587,150.72200773557415 73.28064767993055,149.57375455281 73.80580949329305,148.94528232089942 74.17077219544444,148.22949480096577 74.27533852437045,147.47823369893013 74.2770861510653,147.20264937489992 73.6925050310092,146.616463074286 71.82807864877395,145.32357334782137 71.69059868436307,145.27718743204605 70.42968604445923,144.8501636836445 69.50926933332812,144.2448708623997 68.79215985769406,142.9683387017576 68.71380792884156,141.5039783596876 68.99517582217231,140.73359352292027 69.31411768891849,139.9413767514634 70.62454641773365,138.77714938955614 70.79319239105098,138.11271840025438 70.6784315733239,137.40917426900705 70.30298311111983,136.97349421435501 69.79442375106737,136.86298232880654 68.59526058658957,136.84706497442676 67.33434794668574,137.8766880115145 66.35975480882917,138.11999486287823 65.60652771557216,138.60933641559677 64.04036295111291,140.12510581227252 62.300309333368205,140.6885709480266 60.48423395550344,140.57078457146417 58.27202986658085,141.2647682482493 57.531036159954965,141.74500729324063 55.696901973336935,142.37440988916205 54.26180920889601,143.30623162788106 52.66127445327584,144.2380493709352 51.359001315548085,145.52139552432345 50.50761585775763,146.22400386846857 49.667298702173866,146.43956092448207 48.785621048882604,146.39272048528073 48.15006748435553,145.7351342254551 47.98142151103821,145.56095993809868 48.05365674663335,144.25078282144386 48.77863054221962,143.13160062528914 50.178770773345605,139.93955765111605 50.34333895111922,139.13642334245378 49.91837440000381,138.98316351370886 49.3704934399575,138.4046862720861 47.65112007106654,138.61570330592804 47.060422257636674,138.6498116434086 45.9282514489023,138.46517177904025 45.05094286217354,138.06542138726218 44.33732863992918,137.6142801300739 44.306453902157955,136.69835134985624 44.38742727099452,136.15033849090105 44.691223039873876,135.80015527649084 45.23706510220654,135.4304157634615 45.80737393768504,134.9515271196724 46.75895665772259,134.54312932287576 47.72918072878383,134.36121468967758 48.63153863104526,134.37986094661755 49.71011555555742,134.6063446222688 50.725777919986285,134.7637006113655 51.08433265774511,134.84510727779707 51.699205973302014,133.146930611867 51.56609507557005,131.82803759659873 51.743770453264005,131.64657548291143 51.77231502206996,131.06489515455905 51.2293856710894,130.891163902299 49.36437674658373,129.2889186066459 48.12996977765579,128.65720411459915 47.38577208889183,128.40615508076735 46.14466588443611,128.0891597814043 44.77569166221656,127.8522089041071 43.76876743102912,127.77307362080319 42.08522040885873,127.97818857739912 40.778578204335645,128.6117242386681 39.4023222043179,129.53087068308378 37.90198471106123,131.17813874944113 36.85661269328557,132.37333261052845 36.04600519104861,133.5234958383371 35.57181582215708,133.84002842236077 35.005293511087075,133.69540583336493 34.72858595557045,133.32338879449526 34.43498467549216,132.86814458313165 33.419031039928086,129.45037161989603 33.303396408911794,127.84948010166408 33.46155662217643,127.53566759772366 33.86351075547282,126.83208922058111 34.17051050660666,126.58604091173038 34.844511857721955,126.25267002295004 37.97713265765924,125.57546619250206 39.1305662576342,125.28029744216474 39.45620735990815,124.92645825765794 39.82175260432996,124.15283098997315 39.9274840176804,122.85753354872577 39.861656746594235,122.51369627384702 39.3606704355916,121.86968213622458 38.82968319999054,121.75779812957626 38.38520348444581,121.91743748734007 36.98360689776018,122.23535141465254 36.06668543990236,122.31221465481212 34.06448782212101,121.91107010783162 33.345921991043724,122.02340884815203 32.90522879990749,122.1625814580475 32.633181582205,122.3626987800817 32.12287459545769,123.00898550922284 30.99186887103133,125.4986041066586 29.89698076446075,125.90838331583655 28.84287061332725,125.83152134768898 27.561860266607255,125.62867838999955 25.723648284445517,125.14749411406228 24.92440035555046,125.31076942727668 23.986798648838885,125.57137294608401 21.970620017731562,127.03311184648192 21.31788145774044,127.14817675005179 20.361929671023972,127.02901862742146 18.945478257723153,126.33407987793908 17.57970801764168,124.28836377325933 15.37595079105813,120.4611219636281 14.029404444387183,119.51055472396547 13.25200184888672,119.11486282892292 11.076497919973917,118.68278464936884 9.53509119991213,118.0824219629867 8.281460337690078,116.7952751586563 7.802610631100833,117.22781191417016 6.623253902187571,118.01465364650358 6.357323377742432,118.21613925037673 6.187803591019474,118.51131759682903 6.026148124365136,118.83469433884602 5.958573226584122,120.73810464964481 5.913717475486919,124.46755799447419 5.91546510218177,127.35556630376959 5.782062933314592,134.96244197239866 5.6748751644045115,143.93290110159433 5.436032853322104,159.98284576873994 5.46486869326327,163.59612538450165 5.407197013264522,170.59287548274733 5.262435271055438,185.52416090742918 5.09611946658697,210.5887536794762 5.073691591038369,215.9378324962454 5.065535999950953,221.00128760712687 5,261.6155859317514" stroke="red" stroke-width="3.913141508473534px" fill="none" stroke-linejoin="round" vector-effect="non-scaling-stroke"></polygon></svg>