<svg width="371.8801800532965" height="215.09129509155173" xmlns="http://www.w3.org/2000/svg"><polygon points="5,93.45063713897252 43.91440298676025,121.04430728155421 44.7436518400209,121.44341659033671 92.34638080000877,129.85258836473804 93.31398343108594,129.53763541043736 145.8814284800319,164.22107768349815 146.6862105600303,164.02340154285775 141.87528561789077,174.72293683164753 141.76780657772906,176.06752402998973 146.07308487116825,185.24680841504596 146.60261575120967,187.22244786901865 140.09445404447615,190.22172632301226 139.56142791116145,190.55957346677314 136.16054641781375,201.6153867422836 135.91150961781386,202.84627789258957 141.68013397336472,209.9566281462321 141.99674567114562,210.09129509155173 162.05425692454446,199.81867753039114 163.31429575115908,199.60908346273936 164.51666289777495,176.31989177002106 165.31678464007564,175.56324735179078 179.7317919288762,167.4854660774581 180.46463004453108,166.79636750079226 195.49829717341345,172.85291239444632 196.7260049066972,173.179754117853 199.40890311112162,156.70282080152538 196.59901070222259,155.27490163018228 201.02196252450813,147.55956118489848 202.08743224886712,147.05016062501818 217.86180181335658,153.89386585424654 218.73619768896606,154.84643208916532 225.33057564450428,145.517813962535 225.70282012445386,144.73117752873804 235.0319425421767,148.0390770387603 238.0375691378722,148.60318492882652 242.02885717339814,137.13040232623462 242.34925539558753,136.6641955646337 254.011750684469,134.82694490655558 255.3530541510554,134.47061945596943 272.9807817955734,149.8224253038643 273.5231286045164,150.49364820984192 294.49406606226694,151.044417226105 295.33729592897,151.10970027162693 292.5754632533062,141.94367535889614 288.3829068801133,138.88441577961203 307.69301646226086,131.02319779538084 310.2130941156065,132.73036347486777 328.3767606044421,110.20554031606298 329.61116757337004,108.51888870843686 332.8806857955642,88.33000619220547 336.3704049778171,84.27158411592245 333.364195840084,67.95526679430623 332.37562168890145,63.36110714811366 364.44457102229353,46.6149828650523 365.03468629333656,46.236433397745714 366.72172856889665,38.43301473860629 366.8801800532965,34.006582239991985 356.6836522667436,8.218954781885259 355.5776958578499,6.703563162358478 324.4501347555779,19.19671511615161 322.3457009778358,10.179655151558109 282.1412582399789,27.16183142468799 278.92708152893465,28.38497858052142 249.6190910578007,29.877217914210632 247.30348572449293,29.019779559224844 189.76986823114567,45.9020398161374 189.30645589344203,46.08280559931882 181.93758805340622,43.09118138276972 180.21326307556592,43.57184951141244 176.99792128009722,28.228578052367084 176.7963616711786,27.078570685407612 168.0867729067104,16.12927333859261 167.34374030225445,13.264662853674963 149.24065820453689,11.363335410598665 149.14716017781757,11.36931590072345 131.83691804448608,19.319540685450193 131.32806741341483,19.566111654392444 101.49520640005358,19.26985844114097 100.74518328893464,19.450186532456428 70.62396387557965,54.04554897546768 69.58558236446697,54.22630793211283 61.255519857862964,38.22786358301528 59.03807288885582,35.77247429033741 67.3515329422662,13.432115035946481 67.2880358400289,12.948619507136755 49.52078933338635,6.453297097817995 48.95980117341969,5 30.619041848927736,9.7969013415277 30.00387726223562,9.987358250189573 17.924573013326153,22.679965912131593 16.476081777829677,24.02458134898916 21.51012039114721,25.861396206659265 22.085672106710263,26.22894130286295 19.84637980442494,32.423752927512396 19.123153635649942,33.21815897815395 33.65117411559913,51.33138672891073 33.84312177775428,52.00935555464821 26.819118933402933,66.88733692350797 26.783001315547153,67.0032365451334 50.57985109335277,82.3340917758178 51.18482119112741,83.05427254200913 5,93.45063713897252" stroke="red" stroke-width="3.77650187935048" fill="none" stroke-linejoin="round" vector-effect="non-scaling-stroke"></polygon><polygon points="5,93.45063713897252 43.91440298676025,121.04430728155421 44.7436518400209,121.44341659033671 92.34638080000877,129.85258836473804 93.31398343108594,129.53763541043736 145.8814284800319,164.22107768349815 146.6862105600303,164.02340154285775 142.0302418489009,172.16612943809014 141.90994687995408,173.49648212268949 145.53219441778492,184.65613559063058 146.07308487116825,185.24680841504596 143.20581205340568,175.29616870655445 142.777934791171,173.3406464860891 147.74265088001266,169.6924974701833 148.3251931022387,169.0259313188726 148.7163702044636,152.56477147660917 149.46784967114218,148.3066491804202 132.7573347556172,142.94318959850352 128.942848284496,141.1809334558202 110.3737324088579,110.89022146037314 110.33149809774477,110.76606855995487 118.85758606228046,102.65367117582355 119.39323363557924,101.8710169934202 125.12807054223958,81.05330458621029 124.12493283557706,80.9208565002773 141.06001777783968,61.003049664897844 141.23681934224442,60.339826978801284 128.27088583109435,63.06123468041187 127.69620792893693,62.685933581145946 115.33029290672857,77.65101858589333 115.31835079111625,77.28448092204053 125.4639061333146,61.1948411433259 125.41584640007932,61.01454795978498 146.22978872887325,49.479610268143006 146.43892138660885,48.60845111240633 136.6280365511775,40.48635546135483 135.84917760000098,40.04845827375539 140.0111505066743,36.505690131976735 141.25371306668967,35.42426489002537 135.13265066663735,34.496930375811644 134.16766947554424,35.085714656626806 138.51867733336985,28.463638803223148 138.09487786667887,27.659095170907676 111.94397496897727,38.62528627226129 110.51587271108292,38.083429692778736 122.83867960900534,23.876457856269553 123.64317041786853,23.133078790502623 138.54052266664803,17.3727241778397 138.46420963550918,17.041966034681536 101.49520640005358,19.26985844114097 100.74518328893464,19.450186532456428 70.62396387557965,54.04554897546768 69.58558236446697,54.22630793211283 61.255519857862964,38.22786358301528 59.03807288885582,35.77247429033741 67.2880358400289,12.948619507136755 66.42179555562325,11.286969138425775 49.52078933338635,6.453297097817995 48.95980117341969,5 30.619041848927736,9.7969013415277 30.00387726223562,9.987358250189573 17.924573013326153,22.679965912131593 16.476081777829677,24.02458134898916 21.51012039114721,25.861396206659265 22.085672106710263,26.22894130286295 19.84637980442494,32.423752927512396 19.123153635649942,33.21815897815395 33.65117411559913,51.33138672891073 33.84312177775428,52.00935555464821 26.819118933402933,66.88733692350797 26.783001315547153,67.0032365451334 50.57985109335277,82.3340917758178 51.18482119112741,83.05427254200913 5,93.45063713897252" stroke="red" stroke-width="3.857095006572748" fill="none" stroke-linejoin="round" vector-effect="non-scaling-stroke"></polygon></svg>