<svg viewBox="0 0 48.04638594844146 71.09770078667353" width="48.04638594844146" height="71.09770078667353" xmlns="http://www.w3.org/2000/svg">
  <title>Olomoucký kraj</title>
  <desc>Geojson of Olomoucký kraj</desc>
  <!-- Generated from maps/2-geojsons/world/europe/czechia/olomoucky-kraj/okres-sumperk/okres-sumperk.geojson -->
  <metadata>
    <collboard>
      <support-module name="@collboard/map-svg-geojson-import" version="1.1.4"></support-module>
    </collboard>
  </metadata>
  <polygon points="2.5272351424964654,30.392874226347892 4.19439088293857,33.909759116453465 4.219381944273301,33.9516466808751 3.9709713771617317,35.87693839289114 3.957201535382592,35.88843637246301 5.328651562050618,38.0662889048208 5.343768532716604,38.084060619430794 5.003061432271898,38.84380097666709 4.999711814493458,38.84706978632149 5.7760002980501675,39.37562975722959 5.7820077647162185,39.38886204368447 5.8148849913848615,41.54180239717371 5.819734655384491,41.574802085301606 5.297470989607792,42.241400515675025 5.284167181607154,42.27931305734219 6.685181226051464,44.54777587422414 6.688086655383632,44.55688281329477 4.685058914939691,45.717893054011626 4.6792407744940645,45.7208527411056 4.278779405605564,49.46142751904682 4.281794061604706,49.48450172453141 6.009206513161008,50.867410054078036 6.0656694180504935,50.88595270331553 5.738834104273519,52.34582788847456 5.718226673162826,52.356591681536344 6.1015831460505074,53.208037540294576 6.1056827869409975,53.227113732496036 7.905170274938974,55.64225777679076 7.892543672272405,55.65470647447928 8.99649031049612,56.0067425510626 9.027991281161485,56.024523599316126 8.36990789627289,57.55733240509708 8.352883099828432,57.56684601243887 9.855062882939638,58.73842612638964 9.885136625161795,58.74854623673873 8.117550605605174,60.92884667696326 8.116807864274415,60.9390190590535 11.178795419828203,60.916376189379484 11.188953499827585,60.89396979470166 12.260357873161958,61.815935685300616 12.279916728273202,61.822254381528005 12.046543032274167,63.616693928751744 12.064004735383605,63.61950882100046 13.193823530050395,63.1522168681242 13.197158584272074,63.149919719918216 12.799274964717734,62.8169694136579 12.693361506939802,62.79095593760849 13.230589226051052,62.22097074852045 13.235424326496833,62.21240002078248 15.482129478495153,62.15803584097721 15.521545741605042,62.15639150476327 16.241444138050248,61.175107634100826 16.192932934494277,61.06506265323824 17.251667014494707,61.60056627443537 17.314159231382472,61.602548689365904 18.504860970048867,60.8915252503617 18.611509887385,60.808128458641114 19.73422166694054,62.80256629653577 19.736195028715702,62.80314062014932 23.34754902693949,59.432478027684375 23.377673741607396,59.40116363690886 23.348269922938016,59.121433320019975 23.702382776271953,58.553184226304985 22.50159577538416,57.768769549789255 22.10383594605064,57.50513126252754 23.638303131828252,54.949043819891635 23.62137299849692,54.9322291342889 25.76448029805015,53.22249980447505 25.775126257160267,53.213418590019685 24.847857393161213,52.19936372831708 24.847959338049805,52.19736661648622 26.286860472272203,51.73162470846273 26.31584194782754,51.7124530195737 25.723381944271207,50.113326593574136 25.702344888273913,50.102580953089465 26.76960593005042,48.206648985003824 26.77589010427164,48.19884664348047 27.71497729360399,47.8534774140555 27.737929457161044,47.829176761858804 27.465547277606493,45.39980770735984 27.487829517607864,45.36156662869453 30.424068052717303,45.857516238823706 30.441631700718247,45.85359644572146 31.266074580716488,47.66595758905879 31.270552874050736,47.69758775465581 32.62470139671914,46.915113631797254 32.674909254495105,46.851200280162274 32.946767146049936,44.8775933009818 32.96845228027069,44.8358686734091 34.19442695049493,44.15406135989889 34.211881371828895,44.14650181748567 34.32863739671575,43.07590155658673 34.33352346960728,43.06561673609377 35.91087304471858,41.41512650886271 35.922436507828934,41.41219840133109 36.25408507671655,40.41349767240009 36.25364817005157,40.41065948716697 35.268904234049664,40.24430080625589 35.244736013604964,40.2290690992084 35.314502726495085,39.285920794047534 35.30792728116194,39.235252447044886 37.29040584471641,37.92673764152697 37.3236981327178,37.94681758693024 38.28023974338412,36.095588237031016 38.31626997982658,36.06529397074319 37.56324677627399,34.3675953625947 37.55828788560448,34.361788170924235 34.802266068718566,32.278021858770636 34.800103380717154,32.26712777703925 35.98481221627426,31.637034549219067 35.9985456491615,31.599217803674225 35.74645778427348,29.18321539849258 35.69874029449693,29.06426300005242 40.53843554071773,23.18871502445091 40.57362109093793,23.09578976052563 39.54134899138572,18.744879482782387 39.502566242939615,18.692066980186617 34.96148942160635,16.754565286951955 34.93541337538318,16.737836774891008 33.442219306051086,13.281971777944825 33.40190738427318,13.172819429983617 31.98588559582986,11.809633889539516 31.96047947316238,11.777999205874046 27.119517197605276,12.262354571425938 27.08718610427441,12.27204987660353 27.30893080116348,11.037344864140147 27.333667000272364,10.962470098311138 25.289038463384898,9.55596062052046 25.271496660716185,9.550172371555352 25.81171719049435,7.83165392676147 25.872447217162517,7.712335937637369 25.11114463227259,7.3475972713740765 25.07938879938429,7.356254723359422 24.590067896272924,5.4489383178688575 24.575118406495132,5.421340770083595 23.330393158492917,5.786072293303556 23.27094472471781,5.736968680955584 21.771386381605225,2.527235142496471 21.745696269604196,2.531675887583521 20.821507597606796,3.1877845103603306 20.78763276738155,3.2317651462783092 21.018392305160344,4.172339449856196 21.01194793182931,4.242640895060146 20.359056454495114,5.009033772475783 20.32385634071816,5.050803075851405 16.179541745161806,5.020426467206386 16.1484849629398,5.032354058045718 15.15043721893726,6.105843726901918 15.127077275828743,6.146614624924957 14.99250274071801,7.608941577713819 14.960375537161418,7.650474745078651 13.541579391385131,7.8461575554900325 13.507835633161996,7.832268198880598 13.736672781605558,10.224251530243606 13.733912987826443,10.250687646890407 12.482291896274365,11.558381448082043 12.455254655383579,11.599395624785217 11.289813403828703,15.90318561742152 11.286609421606228,15.920825377011903 10.735895850049383,15.849652628901646 10.718448710493796,15.864191663711797 10.810381154939932,17.327551051189772 10.812070527384458,17.330696537314914 9.2877687033817,17.9605065694208 9.277952866939996,17.9775833001344 10.703288049163348,20.639012973663746 10.707540607385273,20.642440260814155 8.817256632272437,22.47355115846277 8.81324437271669,22.48132234788919 9.896976795827323,23.617010556119027 9.936589666938927,23.669843321617925 9.409046712273085,24.349398451593704 9.406570907827518,24.350169632736478 10.097779099829314,25.07758294281503 10.300125140716956,25.291428159478354 9.476898317606356,26.006879409444636 9.44833190338377,26.020620377657004 9.656357730939455,26.755235506097787 9.642704397605668,26.79327861436596 6.5534902749406685,28.44055320316093 6.519921279384107,28.4416524438957 6.646900920272856,29.455284596887765 6.626424561161366,29.528590939316025 5.2455883229382385,30.913317595214 5.193450794051569,30.942235950502624 4.819648013607185,30.195406738211574 4.814011917606513,30.193605470067823 2.5272351424964654,30.392874226347892" stroke="#009edd" fill="none" stroke-width="5px" vector-effect="non-scaling-stroke" stroke-linejoin="round"></polygon>
</svg>