<svg viewBox="0 0 125.05280176001476 137.5275381420936" width="125.05280176001476" height="137.5275381420936" xmlns="http://www.w3.org/2000/svg">
  <title>Litomyšl, okres Svitavy, Pardubický kraj, Severovýchod, 570 01, Česko</title>
  <desc>Geojson of Litomyšl, okres Svitavy, Pardubický kraj, Severovýchod, 570 01, Česko</desc>
  <metadata>
    <collboard>
      <support-module name="@collboard/map-svg-geojson-import" version="0.11.1"></support-module>
    </collboard>
  </metadata>
  <polygon points="8.05255000000011,37.71642281636707 11.961626764452149,45.05264557671728 11.974151422218483,45.1503783866425 17.696754942218604,43.42562279577362 18.19461008889607,43.61996417931334 17.988754231111443,46.77565500396997 17.868823351112724,47.05957913934947 21.067708328897197,46.87507946140943 21.09428681777331,46.87202894097538 23.13602448889992,52.590099520435274 23.15881645333843,52.62229607578013 27.817697875557997,54.683287971776394 28.20042811556027,54.96897841455177 30.291536240001506,52.27299067800743 30.458216133359883,52.306881985299356 34.629436897790356,59.02654755462538 34.721842657781735,59.164580931515616 36.46990623110446,57.31951346874814 36.55910800889956,57.31601168963937 36.46597407112836,64.22548838823388 36.48461542223936,64.42777487268143 45.09473510221119,76.69491892315966 45.352582853352715,77.0872034026321 47.626827688894764,75.63255232646009 47.78345872890327,75.56762172477431 49.51419167113613,62.741805360994135 49.51069641780464,62.51940755791259 53.433972648904955,58.039745584530124 53.46623092445202,58.006422633297575 76.01906178668264,57.555261758846996 76.05394150224288,57.53865661794373 72.68808536002302,47.248145526296526 72.64555977777468,47.04421360517847 73.87523359110469,42.72779593684356 74.22272002668592,42.52136131318514 79.66300902222406,41.55245273978619 79.9660037955689,41.5573114496143 88.06530676445232,47.731026160945135 88.40813286221942,47.91326334316511 100.85895341332775,52.01564199783718 101.20185232890776,52.176061422949374 116.81034299557336,44.261398821624994 117.00025176001486,44.24648445018795 115.11973264889798,42.5384229893167 114.95494601780206,42.31379599171453 114.08411821336608,30.22155537916808 113.82146448890103,30.143912833249146 106.99778335111455,35.326621076230026 106.86598317334551,35.38154203794659 98.98950260444667,32.32396501937876 98.54123636446434,32.27909908976983 76.51633439111879,34.35046521168954 76.50635835555272,34.651405146075945 68.5037573955558,31.19258644601325 68.46567369779928,31.142633919436435 64.95833261335042,32.48557246998064 64.54887824890443,32.295711919395785 49.78638452446444,18.193441540388108 48.953713235568785,17.574874133722574 54.95710210665834,9.385203381570705 55.04302708447335,9.216517742439123 50.48973144000752,8.161768427562151 49.80852112890693,8.052549999999997 39.892268968898634,10.626926182878037 39.8240387111216,10.680967560335944 27.30156546665944,27.24563080343762 26.86145481779363,27.604703346856354 13.76124532445806,26.758499967654302 13.684349751106993,26.73295656019002 8.05255000000011,37.71642281636707" stroke="#009edd" stroke-width="6.422886093163267px" fill="none" stroke-linejoin="round" vector-effect="non-scaling-stroke"></polygon>
  <polygon points="25.430803937786322,109.39548855028227 27.753618231108476,113.41346862860485 28.314533573349536,114.40265550625156 27.066655315553135,116.86482476068306 27.47174061334931,117.54195826475154 37.16531600888243,128.9211940254969 37.45025197335758,129.4749881420936 42.099448631117184,125.23988289086958 42.71279277335975,125.35518498981367 39.83634491556563,120.48644919528272 39.54645734222845,120.17007297161729 47.073631031125615,113.8550277956598 47.17594000889926,113.6276472750975 42.662694142236205,102.73608366707742 42.66706320888602,102.68416497244436 51.79025695112773,97.3516263943817 51.890672666668024,97.18208366956208 52.65482242668054,93.30537159002381 52.66894907557412,93.23718830124528 50.7275543022331,91.53404597644806 50.685975351115985,91.52117653411517 53.38241766222177,86.43107423006552 53.38300020446309,86.35170520273789 50.53269392890047,82.60485905499775 50.43016649780452,82.39372013221839 53.96226562667994,79.48477493681241 54.03501058667439,79.37637666932244 55.399907013321126,74.68805853886408 55.42138825779671,74.36949710886222 43.51356987556915,81.33970693272533 43.39727988444042,81.34772360696627 45.76975590224151,88.59194480691042 45.71892909333815,88.81931670637971 38.85432436445967,99.98172876104184 38.30913766221033,100.75930096154445 35.73182523556875,96.75337075585378 35.524221751118375,96.47636488719547 30.67412084446528,94.63199373373175 30.647760808882367,94.62160845752044 29.64353083555011,98.45838204579888 29.768049235579156,99.63690259081307 26.192259440001862,100.62238855828002 25.91635288001976,100.96404813594529 27.891680737789784,105.08557867097954 28.06141897777684,105.53961987634068 26.519356897777243,108.56341769998073 27.100515582227445,109.55009681927152 25.430803937786322,109.39548855028227" stroke="#009edd" stroke-width="5.668271336591703px" fill="none" stroke-linejoin="round" vector-effect="non-scaling-stroke"></polygon>
</svg>