<svg width="418.21937493328005" height="435.18098472600104" xmlns="http://www.w3.org/2000/svg"><polygon points="5,297.08516125316964 130.88242261332925,370.468199582072 132.45412152889185,371.3631330860662 135.85558556450997,351.14467369398335 135.92141283559613,350.7525975446333 159.03639694221783,356.8792703827494 159.56942307553254,356.9892289600102 187.0033752177842,384.80832469445886 188.53342236438766,385.8987557743094 211.37053383118473,395.6948186464142 213.10738346667495,396.1170023783343 242.8881069511408,398.4000245144707 243.70920021331403,398.706408146536 265.34889614221174,410.9523907737457 265.78871551994234,410.6933309104643 279.88856746663805,430.1224198449054 279.94886058662087,430.18098472600104 297.4941585067427,394.3507640498574 297.86174264887813,393.8186369006871 289.76353194669355,378.09619614703115 286.7544100978412,373.86361015960574 286.79081898671575,373.6355988375144 292.66197077336255,369.44753832154674 294.21910613332875,358.01175095152576 294.4477539556101,357.23483295965707 286.3317757155746,342.5959022361203 285.99827029334847,341.7459191362723 288.74262670229655,325.18275766650913 288.9762261332944,323.38304391119163 277.278195768944,307.4369240323431 276.58788323553745,306.39117708598496 276.6866241422249,306.24558347219136 282.50389077328146,298.0664924280718 281.1052068978315,292.0098462707829 281.0999640178634,289.28033382090507 294.1235692088958,274.0931641513598 294.18240597331896,273.73385979252635 289.4157542400062,266.4561288462137 289.17225159110967,265.9408222291968 292.93372671992984,248.3448295443668 293.0211080533918,248.10766982234782 284.8975567644229,245.55480496713426 284.3086065778043,245.48987830878468 291.7995170133654,233.11603820353048 292.7749839643948,230.79792248975718 311.7445976177696,230.64822033821838 314.7866331022233,229.3387730528484 313.83883690671064,221.3272558733006 314.1315643733833,220.4488434914383 320.2328203378711,213.9580421896535 320.91002567112446,213.74113769305404 379.0203599644592,217.47763705143007 379.2219195732614,217.4573448667652 378.69442759116646,170.25984132796293 378.53102449781727,169.52284916862845 411.86991587560624,143.90924907737644 413.21937493328005,143.57814934378257 405.07514339557383,98.96666974044638 404.0618111999938,93.57768560928525 398.05492707551457,98.94365945778554 397.862396871089,98.96170673851157 398.3019249778008,80.8631448901142 398.397753173369,73.4206058504642 370.9530239999294,73.10564377548872 365.36149248003494,73.07134988316102 362.13566492439713,21.390655800991226 362.25625116436277,19.905734889616724 337.67733845335897,6.260689732793253 336.30312135105487,5 317.688567182282,17.76183430943638 311.8331440355396,6.519326576672029 309.4907417600043,16.83430869615404 309.4153025422711,17.07939248922048 300.55541788449045,23.152237337490078 300.5434757688781,24.183994869643357 277.77597809780855,28.359268353960942 277.38829624885693,29.656380634580273 270.8903290311573,14.306724994152319 270.68731306667905,14.350055246788543 207.27759217785206,98.03993996890495 207.0967128177872,98.14912644616561 208.45170602668077,104.6023113008705 207.41914993780665,106.101996411453 181.41067861334886,135.53597069566604 180.104327679961,137.4806821490056 175.40874609781895,132.70390576217324 175.25728511996567,132.59654099837644 152.20783701341134,171.4361370067927 152.0654054399347,171.87363800237654 120.05267143109813,189.33597817464033 119.15963420446496,189.73240283475025 104.73851022217423,183.68899093248183 89.17793365335092,179.01289906556485 80.52310385776218,208.11732872243738 77.23377920000348,215.87590148317395 61.51183843554463,243.4383663245244 61.47717717336491,243.48886531213066 57.57647445332259,263.83855701616267 55.98729927116074,267.327593878319 48.606489315629005,263.6068242073525 32.22511075553484,253.8165649222792 5,297.08516125316964" stroke="red" stroke-width="3.49613292942645" fill="none" stroke-linejoin="round" vector-effect="non-scaling-stroke"></polygon><polygon points="152.0654054399347,171.87363800237654 169.46273763559293,177.8912174773286 175.60185884451494,178.65388942084974 165.44873045326676,193.11032669106498 164.55365432891995,194.10339931637282 173.89675776008517,197.89480267447652 179.19789198215585,199.29373137559742 185.56012686225586,206.4095489361789 185.82139704888687,207.03908853512257 181.20183722663205,212.87036092573544 180.8453213867033,213.233823840681 185.63177955558058,220.07953045557952 185.64925582229625,220.4037503580912 195.996079502278,222.07669937598985 197.0580539733637,222.57001397374552 191.5521561600035,234.9115351746441 192.1443103288766,236.1830735830008 198.40809557330795,227.69428733899258 200.23203527112491,229.08535982808098 195.17352988442872,235.6776154062827 194.60001706669573,237.16332544956822 198.34226830222178,242.14432578725973 198.38887168001384,242.87385899020592 186.3477239466738,259.07040213252185 186.28306176001206,259.1474977483158 220.77043512894306,262.9724882003502 221.67279303108808,263.03335207607597 235.32059221330564,245.71667064970825 235.4636063289363,245.4731957615004 264.0888573154807,288.37785168911796 272.5523219911847,301.2993998081074 294.1235692088958,274.0931641513598 294.18240597331896,273.73385979252635 289.4157542400062,266.4561288462137 289.17225159110967,265.9408222291968 292.93372671992984,248.3448295443668 293.0211080533918,248.10766982234782 284.8975567644229,245.55480496713426 284.3086065778043,245.48987830878468 293.6761767822318,228.20021488919156 293.76472320000175,226.9755255083437 284.24277930671815,205.26771460747113 284.2459832888562,203.22980510513298 291.686795093352,191.17377699591452 292.08146744885016,189.50780738185858 288.79185151995625,177.09787346579833 287.9920210489072,176.56702143041184 290.89599402667955,142.16397794120712 290.8642454755027,141.80310339067364 298.1148572444217,136.7327529535396 298.13087715557776,136.57847532216692 296.73364963557106,124.22418256168021 296.63636508444324,123.98508361255517 290.5228757333243,121.60490698000649 290.4063672889024,121.63919325644383 293.8264726756606,114.5946038478287 294.0338577067014,114.12946798664052 276.5179781689076,98.49789115053136 278.31191694224253,87.4815303813084 253.8929120710818,89.22362865920877 250.36008476442657,90.78974555904279 247.71738197340164,84.01127975818235 247.1086253511021,82.74336791638052 218.1457911466714,111.2308056114125 217.79277056001592,111.67654794600094 210.0545709511498,101.54380606795894 209.77349432883784,101.21309331961675 181.41067861334886,135.53597069566604 180.104327679961,137.4806821490056 175.40874609781895,132.70390576217324 175.25728511996567,132.59654099837644 152.0654054399347,171.87363800237654" stroke="red" stroke-width="3.714942905629684" fill="none" stroke-linejoin="round" vector-effect="non-scaling-stroke"></polygon></svg>