<svg viewBox="0 0 90.39037445331566 107.1737388348695" width="90.39037445331566" height="107.1737388348695" xmlns="http://www.w3.org/2000/svg">
  <title>Jílové, okres Děčín, Ústecký kraj, Severozápad, Česko</title>
  <desc>Geojson of Jílové, okres Děčín, Ústecký kraj, Severozápad, Česko</desc>
  <metadata>
    <collboard>
      <support-module name="@collboard/map-svg-geojson-import" version="0.11.1"></support-module>
    </collboard>
  </metadata>
  <polygon points="8.052549999999997,36.86088615083247 10.679232879985307,40.56592647330365 10.74338534221863,40.7146157267631 10.50723728887499,44.290865932074325 10.680252328871234,44.51785743833864 15.920947795537018,46.63202258028434 16.097385271110056,46.79520531614946 38.49540553778172,45.98976645933692 38.89968983998517,45.894987832005086 35.382154266647944,50.087659739939795 35.200765182212876,50.172873264229224 33.350392631116506,59.30180022987008 33.22470914666303,59.55117947169458 30.366684186657608,60.08930969121104 30.113496773301108,60.06375035437634 31.18894253331348,72.39207435261744 31.202777911100952,72.79563387562632 26.51899280888722,82.44505492189603 26.49561830220739,82.68972369825462 43.31164617776051,80.85422044114205 43.686657733319976,80.70460615849117 48.08448742220173,90.35606296759909 48.14980496888859,90.49943682683045 57.06051643554349,98.8693465534376 57.61109165332857,99.12118883486949 71.26988631996903,93.04523737272359 71.58773591998727,93.01946354273935 76.93904159111082,89.33080218212092 77.10310004442692,89.20951863946505 77.44250370664633,86.85732338421042 77.42378953775153,86.69207553451236 76.18093570665917,89.24875746254804 75.65606516443188,89.47889661210468 74.23451650667232,87.7380996824428 74.30551383997192,87.66548854104587 79.37676233778586,85.71749416838395 79.41207895999071,85.72336311353831 79.96782423998923,64.5547541479533 79.92012859552744,64.15285973471293 82.32573670222303,55.74013338488987 82.33782445331565,55.666557968877555 80.84076375998086,44.379082937586304 80.66228738663597,44.079305762170065 77.41403195553687,43.072627285269505 76.9532410577882,43.27002573788161 79.38608301332681,46.44315838727164 79.36183469332866,46.570065985091446 72.73126630220906,50.02087066719071 72.48492375997705,50.07695046315314 64.75211266664667,38.17382735695685 59.16167341330549,29.86267699534767 66.96380703108264,22.414691338802754 68.6387615555501,19.20062201334042 60.32930647998694,18.907502616209626 59.754046035529996,20.07109886607907 36.269875795529174,8.069721269573733 36.23091828445433,8.052549999999997 14.949194551103233,10.39355430103717 14.82285570665374,10.446333474544758 14.155917679985237,16.0125171914475 14.182132080000542,16.18558696401999 17.145160275547482,21.497820891010292 17.145742817759697,21.803369299224528 12.848256026663535,22.012482312136513 12.808351884428362,22.03483373765596 11.502219404420998,28.88752759167221 12.024686959986525,29.95829022122018 8.052549999999997,36.86088615083247" stroke="#009edd" stroke-width="5.134564004555446px" fill="none" stroke-linejoin="round" vector-effect="non-scaling-stroke"></polygon>
</svg>