<svg width="522.5582210845314" height="258.4495854729903" xmlns="http://www.w3.org/2000/svg"><polygon points="5,143.55572147027124 26.240945777855814,151.9378767220187 27.944881777861156,152.44550323823933 26.281141191138886,153.74438433826435 23.64630272006616,155.63919800234726 24.445550648961216,155.87547946942504 28.731896320008673,157.64826516562607 31.987724800012074,174.23590297286864 32.619491840014234,178.8363500374253 38.76065194664989,161.59350362757687 38.81774108449463,161.48424343054648 65.98226744891144,170.2940808236599 66.83307036443148,170.89635254145833 89.80504035553895,165.52956556284335 89.91950990224723,165.1353252392728 122.20691256888676,169.40774140297435 122.93538161786273,169.3025822485215 164.77239893341903,150.3161955412943 165.7067966578761,150.54428787098732 166.71488597337157,145.4214858316118 166.34642801783048,145.1624287321465 156.00164323556237,144.81732230924536 154.51819946675096,144.4972560995957 162.9129241600167,120.68082104146015 163.8997506845044,118.95827625214588 172.3224374044221,115.07919923390727 172.68273976899218,114.90161334699951 181.9739969422808,132.89169175946154 182.0567179378122,133.20130294171395 200.51922858669423,132.98685171391116 201.45857792010065,133.2003923212178 214.6254884977825,151.75758935080376 215.25201265781652,152.2019337125821 243.55744796455838,156.7773529945407 244.79826289787889,156.59889068617485 245.08487367117777,165.6247112150304 245.10671900445595,165.87145237717777 283.8679133866681,171.58329534134828 284.9552284445381,171.80908918671776 285.30824903119355,176.89394082629588 285.3402888533892,185.60073303349782 322.2405521067558,197.5917455891613 324.77985365339555,198.2230727384449 325.51298304006923,188.92093922325876 325.63648199115414,186.19795511069242 335.69174328888766,186.96587468200596 336.06690047995653,186.9818065945292 355.6161436444381,196.59627504344098 358.3794326756615,195.2903673487017 356.61811626679264,203.27635484421626 356.61869880894665,204.2208167052595 361.05912689783145,205.56490402115742 363.7143543467391,206.6468131664442 361.3704957156442,219.05401863902807 361.4931208534399,219.3402953884215 377.4818659556331,238.63284023606684 378.67229098675307,239.600812895922 374.1354521600297,246.23770341655472 373.54533688898664,248.1708462262759 390.2957559466595,252.91762178740464 392.51873706665356,253.4495854729903 400.3271330134012,242.24166794097982 400.6813186844811,241.5349249416031 396.4025460622506,234.42322395788506 395.90884152892977,234.09964899491752 398.64970268448815,219.8696105463896 398.5139703467721,219.22469242213992 390.3676999111194,206.64453738502925 390.21944291563705,205.00733409880195 400.4247088355478,164.95550406875554 400.4538359467406,164.55397879111115 393.8422729956219,140.1596978015732 393.5789639111608,139.63974955084268 378.6746211556019,122.50079337961506 378.5327721245121,122.16748960420955 379.79659747565165,115.33510479493998 379.4555190044921,115.17026886320673 440.2694317512214,122.95066159858834 442.54746311111376,123.08543974987697 473.76852223998867,118.8216741773067 475.2007022933103,118.46195496898144 475.64023040013853,104.98571549111512 475.2636168533936,104.72979773115367 477.55533795559313,103.51167970296228 481.5445870934054,101.66331484535476 482.65957290667575,86.06474734930089 482.3601462044753,84.68257633200847 488.91025095118675,82.05756569915684 496.3883454578463,78.5339718615287 493.82020807114895,71.92793320992496 494.0040001422167,70.89863917976618 508.09161870228127,47.638480912311934 508.63163534225896,46.74298627558164 504.1416911644628,44.09109798667487 511.09695402672514,35.29253644973505 511.16045112896245,35.073433322133496 510.4407202133443,21.1537819202058 508.88096341339406,18.26196108874865 516.8335385600803,13.626220843638293 517.5582210845314,13.595698247780092 514.5828866844531,6.9589817457599565 515.420873671188,5.13302908744663 404.90737123566214,6.412746520480141 404.3615291733295,6.1439563719322905 403.6112147910753,18.707489871187136 403.84248405334074,24.97121796774445 397.47209358226974,41.84639635682106 395.21911153779365,47.10510179481935 388.50181717344094,39.291926815290935 388.1575347200269,38.40368589007994 372.2669479822507,39.67819660669193 371.88101375999395,39.58572878292762 372.9697851734236,32.830460518889595 373.4795096179005,28.671515821188223 317.90294271998573,21.667180866585113 304.9568156445166,19.452769102994353 305.40595569775905,25.493718608748168 306.2462728533428,37.14101099583786 285.56136362673715,26.237152400892228 283.6847038578708,24.99262821918819 273.62245205335785,61.600158295361325 267.4454656000016,86.21002280339599 262.3190940445056,84.12697298219427 259.2517179733841,97.96927022503223 259.10957767115906,98.5225612357026 236.93772942235228,100.33315636496991 232.77663032885175,100.82450993324164 232.32428629335482,115.52999352512415 232.41894940449856,117.97519473696593 222.19911992899142,106.50664399738889 222.43417571554892,102.57224419689737 224.20452152891085,101.31221937260125 227.5363717689179,100.84818959515542 243.76075520005543,32.34259719966212 244.3855317333946,29.675956094637513 223.9977190400241,26.232141519896686 223.69508835556917,25.905067400308326 212.24638606223743,34.8178886466776 212.16978175996337,34.964564949972555 213.61856426671147,30.520046752819326 215.75096007122193,21.694057974149473 206.9624368356308,19.383070114592556 186.96347107563633,19.67507683794247 184.8170942577999,28.699303120316472 183.13879011559766,28.55945552972844 168.2927015821915,16.083047949708998 167.2974281955976,15.916314410453197 166.93246549344622,29.476434995303862 166.72071139561012,30.429852656670846 153.10961237340234,35.902471018140204 151.28975047112908,35.84325414482737 140.94321806228254,60.102143789234105 140.9082655289676,60.209633164689876 130.99339690664783,53.19174054439645 130.30395818676334,52.958535648474935 119.42672981333453,60.113985841628164 116.5676125867758,61.21347205026541 71.97342293336987,60.977087539911736 68.04708835564088,61.05907063628547 17.61058275552932,56.001566557213664 17.04464298672974,56.59504598577041 12.222649742267095,50.72576827998273 11.162422897759825,50.19376320159063 8.376123448950239,53.13435030018445 8.273304746719077,53.25368555262685 17.792918471153826,115.77451488567749 18.04137272888329,115.84008481254568 5,143.55572147027124" stroke="red" stroke-width="3.022083424857314" fill="none" stroke-linejoin="round" vector-effect="non-scaling-stroke"></polygon><polygon points="232.32428629335482,115.52999352512415 266.6916559644742,114.21904470142908 267.1279800889315,114.1912683469709 270.29904867557343,99.15053343988257 270.4245865244884,98.82447993336245 284.0400546133751,96.01794046646683 284.8631867733784,95.17774757253937 344.562696248875,113.87388909247238 344.9562035200652,113.99045885825763 368.5401341156103,114.52595041540917 369.70230584894307,114.3911669505178 378.23567559116054,130.0783075633226 378.38917546672747,130.1725581176579 360.3201720889192,136.6361362048192 360.0227842844324,136.7536043560831 361.86390897782985,147.2212184497621 362.76481052453164,152.1787149211741 369.62395392009057,151.3228047969751 369.97056654223707,150.98317144036992 377.03592988452874,169.264342543378 377.0193274311023,169.58846935455222 385.51861845329404,170.88679268595297 386.247670044424,171.65021410619374 390.768780231243,198.87260495580267 390.8847061333945,198.88534978718963 395.63912448007613,191.85464100242825 396.7634309689747,189.51268986368086 400.4247088355478,164.95550406875554 400.4538359467406,164.55397879111115 393.8422729956219,140.1596978015732 393.5789639111608,139.63974955084268 378.6746211556019,122.50079337961506 378.5327721245121,122.16748960420955 379.79659747565165,115.33510479493998 379.4555190044921,115.17026886320673 440.2694317512214,122.95066159858834 442.54746311111376,123.08543974987697 473.76852223998867,118.8216741773067 475.2007022933103,118.46195496898144 475.64023040013853,104.98571549111512 475.2636168533936,104.72979773115367 477.55533795559313,103.51167970296228 481.5445870934054,101.66331484535476 482.65957290667575,86.06474734930089 482.3601462044753,84.68257633200847 488.91025095118675,82.05756569915684 496.3883454578463,78.5339718615287 493.82020807114895,71.92793320992496 494.0040001422167,70.89863917976618 508.09161870228127,47.638480912311934 508.63163534225896,46.74298627558164 504.1416911644628,44.09109798667487 511.09695402672514,35.29253644973505 511.16045112896245,35.073433322133496 510.4407202133443,21.1537819202058 508.88096341339406,18.26196108874865 516.8335385600803,13.626220843638293 517.5582210845314,13.595698247780092 514.5828866844531,6.9589817457599565 515.420873671188,5.13302908744663 404.90737123566214,6.412746520480141 404.3615291733295,6.1439563719322905 403.6112147910753,18.707489871187136 403.84248405334074,24.97121796774445 397.47209358226974,41.84639635682106 395.21911153779365,47.10510179481935 388.50181717344094,39.291926815290935 388.1575347200269,38.40368589007994 372.2669479822507,39.67819660669193 371.88101375999395,39.58572878292762 372.9697851734236,32.830460518889595 373.4795096179005,28.671515821188223 317.90294271998573,21.667180866585113 304.9568156445166,19.452769102994353 305.40595569775905,25.493718608748168 306.2462728533428,37.14101099583786 285.56136362673715,26.237152400892228 283.6847038578708,24.99262821918819 273.62245205335785,61.600158295361325 267.4454656000016,86.21002280339599 262.3190940445056,84.12697298219427 259.2517179733841,97.96927022503223 259.10957767115906,98.5225612357026 236.93772942235228,100.33315636496991 232.77663032885175,100.82450993324164 232.32428629335482,115.52999352512415" stroke="red" stroke-width="3.616980750623422" fill="none" stroke-linejoin="round" vector-effect="non-scaling-stroke"></polygon></svg>