<svg viewBox="0 0 69.30889960889114 87.0376812891184" width="69.30889960889114" height="87.0376812891184" xmlns="http://www.w3.org/2000/svg">
  <title>Andělská Hora, okres Bruntál, Moravskoslezský kraj, Moravskoslezsko, Česko</title>
  <desc>Geojson of Andělská Hora, okres Bruntál, Moravskoslezský kraj, Moravskoslezsko, Česko</desc>
  <metadata>
    <collboard>
      <support-module name="@collboard/map-svg-geojson-import" version="0.11.0"></support-module>
    </collboard>
  </metadata>
  <polygon points="8.052549999999883,36.50751151258703 13.516504773323959,45.864015888837116 13.623037182208918,46.04729600557005 23.960613004433526,55.2302578215382 24.11163707555488,55.36596393728507 25.13086751109904,59.72585336140003 25.20463191997942,59.87573040367681 28.181495493313832,59.3126398771343 28.217540293327602,59.17717052289629 33.42248223111483,63.212855345576486 33.56498662220065,63.291476240097495 37.747712595540634,75.33853058628267 37.97148162665644,76.49431770347985 47.060305377766326,78.78597020530253 47.251379226661356,78.85957823065803 47.18475096001157,76.15348215093366 47.17907117331151,75.95487782129896 50.15236667553063,75.44662437687623 50.210620897770696,75.45082108843019 49.37438153778885,72.00385075479392 49.60324781333429,70.88052386762104 55.995410799986985,68.0871359863446 56.64152294220503,67.80648474414886 61.00112329776266,60.005752090720875 61.256349608891014,59.79460851304577 60.12680023999519,48.373140810209975 60.34226804442687,47.50738663209597 55.599427724438556,52.33621027621086 55.203735919996234,52.902663693872114 50.16277961777041,50.780929437205145 49.68240073775041,50.4968980821792 42.09558928889555,33.59532733045455 41.97179906667543,33.40178914054525 37.955388897745706,31.940525198100318 37.56457588443982,32.13781458240521 32.778336168884834,27.43525343971089 32.57546584000329,27.347498705530256 32.68061471111241,23.469006711551287 32.6504681510919,23.232970944569047 24.35863497775381,17.972592971236395 21.531776026654825,17.661480021524426 21.616099013313487,8.333963998236527 21.5941808622224,8.052549999999997 14.89589193778329,17.340940985690054 14.345607991104316,18.234312522988716 8.052549999999883,36.50751151258703" stroke="#009edd" stroke-width="6.1548232352554235px" fill="none" stroke-linejoin="round" vector-effect="non-scaling-stroke"></polygon>
</svg>