<svg viewBox="0 0 56.482871637333304 53.25856209926715" width="56.482871637333304" height="53.25856209926715" xmlns="http://www.w3.org/2000/svg">
  <title>Zlínský kraj</title>
  <desc>Geojson of Zlínský kraj</desc>
  <!-- Generated from maps/2-geojsons/world/europe/czechia/zlinsky-kraj/okres-vsetin/okres-vsetin.geojson -->
  <metadata>
    <collboard>
      <support-module name="@collboard/map-svg-geojson-import" version="0.11.1"></support-module>
    </collboard>
  </metadata>
  <polygon points="1.2968712300500103,11.540913289721482 1.3477781384922765,11.973569557553981 1.3547031091614827,11.997189390848632 1.8088748709387348,11.868606224522352 1.8110739678262235,11.869233412153097 1.9116134736048025,12.94528109808174 1.9119484353841019,12.946736783837094 2.9957391127159556,13.16713435278956 3.0119701953839013,13.176271204801868 3.542607905605246,13.902255242248192 3.5634556353821156,13.919048666561265 2.9730272478279858,14.733994236964044 2.9884354896058998,14.74746052815475 4.509962956272784,14.807291655516146 4.54667039804931,14.777493708714736 4.9258471304930485,15.15537388012466 4.927813210492741,15.156638697977304 5.803636314493042,14.373078618178386 5.806461644271758,14.370246364994216 7.1956136727154,16.44058084200382 7.22764621316178,16.483171573744166 6.538382255827447,17.51533075443598 6.51766559804978,17.568776875030142 6.756529754493522,18.602700939761544 6.748031919828055,18.653250510746272 4.9990799696069645,20.57062529539411 4.956386906493709,20.618976291376875 4.7376423020499265,21.511402960625254 4.713233782939051,21.559846304218937 3.4794166380482694,22.478131966287165 3.443422810491893,22.489634298352883 3.5993329544931387,23.090248402438135 3.6069933847176348,23.123443792655724 4.182952879826326,23.280755922230437 4.212684378493714,23.289954211587737 5.0322703127168555,24.47361103547313 5.0541229278258015,24.498026437647184 5.632157729604069,24.34744257804863 5.648046568717246,24.344738377854938 6.01290732604989,25.399297967020665 6.062328751827727,25.428759089394717 7.778301530494492,25.136274765970427 7.815416751825388,25.136889268607902 7.942491055827259,25.95566981106689 7.952445246049456,25.973398336980736 9.868499432713861,26.239129471361355 9.896628940271468,26.24263701863687 9.177349494936198,28.25240665102623 9.124483788272618,28.29296304772155 9.872191294049982,28.78035341244262 9.898784346494494,28.800618537623212 10.506237530493081,30.151201875075767 10.537250622047715,30.20736062074733 10.313248574049931,30.80968881467719 10.352919699382756,30.886790280607364 11.376926981160205,31.811934818216958 11.408544460270925,31.86104637702241 12.888325494938318,31.401494144661537 12.898563674494063,31.3995411332145 13.34775470026957,32.37601623444802 13.351162572272143,32.38854675339257 12.911321349159834,32.893303227688136 12.885339966049788,32.9135755323908 13.33168381671435,32.99258883324086 13.355407848715686,33.00788483830414 13.267494945603676,33.4385988819516 13.268266814047957,33.482173793492386 12.536528246937223,33.336119505256775 12.528896943826249,33.354694452135426 13.204121633604656,33.86240771871684 13.211869445160984,33.90959349229537 12.259158049605459,34.37918703538611 12.208957473604961,34.4010823534832 12.550975294047522,36.10618480131974 12.546263983825476,36.12808440643433 13.703950142048553,36.5405590270589 13.735545775827042,36.551965112122836 14.056694021160503,37.77195653278044 14.062257299380281,37.79524290762505 15.636635909159805,37.72361107364426 15.673598213159266,37.7318043044333 16.000338863826027,39.005185261645366 16.00936098649413,39.06702668284428 17.366829999827452,40.88289812706074 17.38358537049221,40.89045163381974 17.332780406938536,41.487446735851826 17.331192979382603,41.49563437355404 17.953661189158584,41.80462804577559 17.960826458493965,41.80907250919276 18.085170095827333,42.69860596975208 18.086954131382072,42.70369566992171 18.928640261158716,43.37617414323917 18.950449185606114,43.381485934560025 20.75591501315953,42.54125729766978 20.782930408715174,42.52095355685755 21.54979627182779,42.41728414156545 21.55274539182733,42.41522365319847 22.74146648693727,43.118863508344056 22.779528339381933,43.1471275070567 25.903826067384355,42.37263262932842 25.92562771005046,42.37451492786653 26.136071087827577,42.60692373902579 26.138568737605375,42.62937667117525 25.862174298495077,43.22903437621147 25.78929826649269,43.24268725880842 25.92308636960529,44.16873260325532 25.927681171381984,44.18856264184154 26.16776866649466,44.553618575804414 26.16779051182689,44.55365197618097 26.832689640717717,44.28165486827214 26.85482624516021,44.27341569620779 27.44552405849404,43.64497554253334 27.47428708071834,43.63395159101359 26.999442351827884,42.83671671472852 26.979635916272084,42.80675830326521 27.050130806936206,40.52569902344416 27.050123525160735,40.525654457064356 28.386621018493454,38.72487856390375 28.395650422939937,38.727107610619115 28.301715489605115,37.63543553316716 28.308341907384012,37.62049794407079 28.78617216516009,37.494976006013296 28.799352182936993,37.49152021061176 28.90020480515973,36.0067768944516 28.898457178493985,35.99874835930253 28.03636750738092,36.03599174304994 28.03440142738414,36.03275804605959 28.205231934049653,34.01723801111524 28.221251845162033,33.94774339665177 29.190529285158984,33.23646077750322 29.26261888516033,33.14988686012524 29.36610751093845,32.526916153420586 29.37806419004933,32.51610425150587 30.912232822939544,31.54143956140628 30.93677241404962,31.503942573732765 30.933568431827144,29.625418384175408 30.919434501161007,29.588220928004137 32.28382848516062,28.896159502794163 32.39138034293733,28.863780490387708 35.5633955607163,28.727228283794958 35.58618752516063,28.723655326936694 37.85169422738268,27.747592962562464 37.889195382938624,27.730395025256566 39.143408787381624,27.64585633119581 39.24637312516002,27.615368478231666 39.55264469849367,27.489506579248825 39.59269447627025,27.474653121750578 39.46387982738393,27.08308812049958 39.44363648516023,27.017079980757387 41.27624149849303,26.140805532405047 41.30638805849317,26.102713191052445 44.11518820071665,25.420022436264972 44.14649984515868,25.409073669789485 45.05985323182845,24.756018542705114 45.11104412960427,24.724285574216754 46.199888360715846,22.803206100301885 46.24634610293738,22.742735405193653 46.92231353404946,22.537621902296213 46.95602816516198,22.524543561182636 46.534995774048866,21.84465054615879 46.5135145296053,21.790318078741382 47.76022770293944,20.648317669029474 47.77974286738331,20.58815873068537 46.93032348960419,17.45540603709827 46.91275255982778,17.328494606190485 44.19344546649386,16.341253407145395 44.17481867893962,16.30849823631155 44.681499340271834,14.650475628904076 44.698058102937786,14.582784438188662 44.221422056717124,13.318069616498668 44.19149395004802,13.253318000648996 43.69091541849498,13.308877016164605 43.65939260249448,13.301050417396016 43.72683642827047,12.83154605771864 43.695095158938926,12.748188882110242 43.0123556744949,11.766440882851146 42.97400255093831,11.736223231622843 41.03887010649501,11.298967078131808 41.035673406048005,11.300378396608119 39.97097555004889,9.79864238278982 39.89673054382743,9.721401442465265 39.496560446047944,6.954262341931588 39.450284748271365,6.890332418664309 37.39211938649255,6.51840758999764 37.013401406048935,6.552476805128515 36.06358815805011,7.687525543305799 36.00291638560607,7.715736794826933 33.75736903627417,6.703807034097679 33.73821067893891,6.664469871738527 32.39845094915959,6.905656387127363 32.32207966382571,6.988418529080935 31.53238542738268,6.536568895858489 31.4794177758276,6.490896460331112 29.43371881760554,3.8429942047268355 29.431927500272423,3.8420744787553645 27.482595589160475,4.697442739714586 27.42946773849267,4.704776967148189 26.713210230937833,3.4827975296212914 26.69072410116219,3.4560227096838734 23.709855550050406,3.6967109724560374 23.616605103828036,3.677530777700429 17.4591556602712,5.283454733170345 17.372276769604788,5.369324936052852 16.956712993604153,5.245744528850025 16.92162210649417,5.233308963071739 17.060274437160253,3.321742829005359 17.06354395538233,3.2995214407653637 15.59842842116209,1.5263211609098448 15.576604933160844,1.49517183132715 15.129714949158506,1.7549199584508983 15.111117288714878,1.8232295743336522 14.365718106494889,1.2987564211828955 14.36355541849348,1.296871230049999 11.487624566938166,1.4838498589700408 11.458395510938272,1.476455218222816 11.243408303827302,2.6487010668833477 11.227330138493699,2.6920608305722795 10.257921626491726,3.7523219416370353 10.200679571382489,3.8012025982215505 10.321841071828523,4.271962263676812 10.343686405161998,4.34178822949774 10.098159422050367,4.5550289394742665 10.065617157161023,4.576280780698414 9.321521413160509,4.748142909702563 9.26347108071509,4.796240912584596 6.392826799827299,3.3832017171590794 6.2440309527156845,3.1215788291361037 5.708099390048438,3.2716800791736547 5.670722024716224,3.291904901818032 6.117102284272687,3.7193457592934807 6.119738287825157,3.7174614000280943 5.7964928904928,5.267543144224454 5.786866380271523,5.303212399545135 4.450776666493176,5.705358517280672 4.424402067382608,5.730743247208136 4.038373182050555,5.473986539150189 3.9944494984928953,5.44950886505552 3.6098988140498025,6.737662103361925 3.586648097605348,6.76791849348532 2.011876271825304,7.060294917709086 1.9909702878272129,7.0596447612087445 2.984510611381984,9.046791090123714 2.9883262629389264,9.064630277129016 1.3777208087152304,10.401171803972227 1.3620577047172902,10.416194702600604 1.7419917420514595,10.794151031613126 1.7449044531590971,10.801096249616364 1.2968712300500103,11.540913289721482" stroke="#009edd" fill="none" stroke-width="5px" vector-effect="non-scaling-stroke" stroke-linejoin="round"></polygon>
</svg>