<svg viewBox="0 0 56.482871637333304 53.25856209926715" width="56.482871637333304" height="53.25856209926715" xmlns="http://www.w3.org/2000/svg">
  <title>Zlínský kraj</title>
  <desc>Geojson of Zlínský kraj</desc>
  <!-- Generated from maps/2-geojsons/world/europe/czechia/zlinsky-kraj/okres-vsetin/okres-vsetin.geojson -->
  <metadata>
    <collboard>
      <support-module name="@collboard/map-svg-geojson-import" version="1.1.4"></support-module>
    </collboard>
  </metadata>
  <polygon points="2.5272351424964654,12.771277202167955 3.141977386051258,14.175645010528212 3.1423123478305572,14.177100696283567 4.772971818051701,15.132619154694664 4.793819547828571,15.149412579007738 4.203391160274442,15.964358149410515 4.218799402052355,15.977824440601223 6.156211042939503,16.38573779257113 6.158177122939197,16.387002610423774 7.034000226939497,15.603442530624859 7.036825556718213,15.600610277440689 8.425977585161855,17.67094475445029 8.458010125608235,17.713535486190636 7.768746168273902,18.745694666882454 7.748029510496235,18.799140787476613 7.986893666939977,19.833064852208015 7.97839583227451,19.883614423192746 4.709780550494725,23.708495878733636 4.673786722938348,23.719998210799357 4.829696866939594,24.32061231488461 4.83735729716409,24.3538077051022 6.862521642050524,25.577806490495103 6.8784104811637015,25.57510229030141 7.243271238496345,26.629661879467136 7.292692664274182,26.659123001841188 9.008665442940947,26.3666386784169 9.045780664271843,26.367253181054373 9.172854968273715,27.18603372351336 9.182809158495912,27.203762249427207 11.098863345160318,27.46949338380783 11.126992852717922,27.47300093108334 10.407713407382653,29.4827705634727 10.354847700719075,29.52332696016802 11.102555206496437,30.01071732488909 11.129148258940951,30.030982450069686 11.543612486496386,32.040052727123665 11.583283611829211,32.117154193053835 12.60729089360666,33.04229873066343 12.63890837271738,33.09141028946888 14.118689407384773,32.63185805710801 14.128927586940518,32.62990504566097 14.578118612716025,33.60638014689449 14.581526484718598,33.61891066583904 14.141685261606291,34.12366714013461 14.115703878496243,34.14393944483728 14.497858858050131,34.66896279439808 14.498630726494412,34.71253770593886 13.76689215938368,34.566483417703246 13.759260856272704,34.5850583645819 14.43448554605111,35.09277163116331 14.442233357607439,35.13995740474184 13.489521962051914,35.60955094783258 13.439321386051416,35.63144626592967 13.781339206493977,37.33654871376621 13.77662789627193,37.35844831888081 14.934314054495008,37.77092293950537 14.965909688273497,37.78232902456931 15.287057933606958,39.002320445226914 15.292621211826736,39.02560682007152 16.86699982160626,38.953974986090735 16.903962125605723,38.962168216879775 18.563144319384993,42.7178106482983 18.56155689182906,42.72599828600051 20.159004173605172,44.60653805568564 20.180813098052568,44.611849847006496 21.986278925605987,43.77162121011625 22.01329432116163,43.75131746930402 23.971830399383727,44.34922742079053 24.00989225182839,44.37749141950317 27.134189979830808,43.60299654177489 27.155991622496913,43.604878840313006 27.153450282051747,45.39909651570179 27.15804508382844,45.41892655428802 28.063053553164174,45.51201878071862 28.085190157606668,45.50377960865427 28.675887970940494,44.87533945497981 28.704650993164798,44.86431550346006 28.22980626427434,44.06708062717499 28.209999828718537,44.03712221571169 28.28049471938266,41.75606293589063 28.280487437607192,41.75601836951083 30.016536077606546,38.72533991845977 30.02971609538345,38.72188412305823 30.130568717606184,37.23714080689807 30.128821090940438,37.22911227174901 29.266731419827376,37.26635565549642 29.264765339830593,37.26312195850606 29.43559584649611,35.24760192356171 29.45161575760849,35.17810730909824 32.142596735386,32.77180347385275 32.16713632649608,32.734306486179236 32.1639323442736,30.855782296621882 32.14979841360746,30.81858484045061 40.37377269982808,28.87622024364228 40.476737037606476,28.845732390678137 45.34555211316311,26.650386348711443 45.376863757605136,26.639437582235956 48.152677446495915,23.767985814742687 48.18639207760844,23.754907473629107 47.76535968649532,23.075014458605263 47.74387844205176,23.020681991187857 48.990591615385895,21.878681581475945 49.01010677982977,21.818522643131843 48.16068740205065,18.685769949544746 48.14311647227424,18.55885851863696 45.42380937894032,17.571617319591866 45.40518259138608,17.538862148758025 45.91186325271829,15.880839541350548 45.92842201538424,15.813148350635135 45.45178596916358,14.54843352894514 45.42185786249448,14.483681913095467 41.20133946249535,11.029006295236293 41.12709445627388,10.951765354911737 40.7269243584944,8.18462625437806 40.68064866071782,8.120696331110782 38.62248329893901,7.748771502444112 38.24376531849539,7.782840717574988 37.293952070496566,8.917889455752272 37.23328029805253,8.946100707273406 33.628814861606045,8.136020299573834 33.55244357627216,8.218782441527408 30.664082730051998,5.073358117173308 30.66229141271888,5.072438391201837 28.71295950160693,5.927806652161059 28.659831650939125,5.935140879594662 27.943574143384286,4.713161442067764 27.921088013608642,4.686386622130345 24.940219462496863,4.92707488490251 24.84696901627449,4.907894690146901 18.689519572717654,6.5138186456168174 18.60264068205124,6.599688848499324 18.187076906050606,6.476108441296498 18.151986018940626,6.463672875518211 18.290638349606706,4.552106741451832 18.293907867828786,4.529885353211836 16.828792333608543,2.7566850733563175 16.806968845607297,2.7255357437736225 12.717988479384623,2.7142137714165133 12.688759423384727,2.706819130669288 11.328523334496822,5.785392851920739 11.295981069607478,5.806644693144887 6.938463302494893,4.502043991620127 6.90108593716268,4.522268814264504 7.347466196719143,4.949709671739953 7.350102200271613,4.947825312474567 7.026856802939256,6.497907056670925 7.0172302927179775,6.533576311991607 5.26873709449701,6.704350451596662 5.224813410939351,6.679872777501993 4.840262726496258,7.968026015808397 4.817012010051804,7.998282405931793 3.2422401842717594,8.290658830155559 3.2213342002736685,8.290008673655217 4.214874523828439,10.277155002570186 4.218690175385382,10.294994189575489 2.6080847211616858,11.6315357164187 2.5924216171637458,11.646558615047077 2.972355654497915,12.024514944059598 2.9752683656055527,12.031460162062837 2.5272351424964654,12.771277202167955" stroke="#009edd" fill="none" stroke-width="5px" vector-effect="non-scaling-stroke" stroke-linejoin="round"></polygon>
</svg>