<svg width="574.8093457065988" height="545.8701964209322" xmlns="http://www.w3.org/2000/svg"><polygon points="5,210.81095984269632 43.8759551999392,251.54472729581175 47.01003235555254,253.68587550666416 64.20260095992126,315.09953806217527 64.44289962667972,315.887788471533 77.71059000887908,336.13452221034095 77.76476643548813,336.90243892063154 87.96799345780164,339.523371449206 90.08000028436072,342.79201129992725 81.05350855109282,358.3316439865739 80.28222264884971,359.31675890047336 79.28665799112059,381.9598109620856 79.30850332439877,382.68705949623836 93.70166527992114,425.05333620437887 95.44754432002082,427.97231837786967 108.81950976001099,445.0459386410075 108.78339214215521,447.7966975791496 139.8439608888002,455.7390984562808 141.05331854219548,457.0168677381589 156.45136583107524,496.31389251194196 156.31738111993764,496.44224378757644 176.51994538668077,505.7500378145487 178.3392247466836,506.1364546196419 190.7808702577604,528.8956428603269 193.58115071989596,531.5078025748371 218.23346375115216,533.8352152821026 219.38398464000784,534.5127360390616 234.22075249778572,528.45820995752 236.518590293359,527.9789186287089 237.22783544880804,521.2875876384205 237.55202019552235,520.8400195603608 250.72737763554323,511.5604774255771 251.53652878222056,511.0572280625929 236.1311997155426,483.3960268830997 236.79238513775636,482.3130238177837 257.03805752890185,474.55609687400283 257.7432248889236,473.8282380422461 266.8069993244717,478.628748357587 271.62986638222355,477.24666874675313 276.4882685155608,473.7343799608643 279.1271847821772,468.5224317809916 275.28211484442,461.5485854516155 275.5547446043929,461.21086096734507 311.6024573155446,476.8316750700469 311.97615815117024,476.75346109474776 321.61373667547014,497.3798038351233 321.67315598216373,497.475491775549 336.73857166222297,503.21209023008123 337.4693708799314,503.4871855028323 326.3498049422633,487.4450483508408 325.4637582221767,486.72689431294566 355.5712878933409,450.2635159478523 356.0547979377443,449.858593399229 358.5591469510691,450.68960408109706 359.80811747547705,450.8782605450251 358.00922709330916,471.41183952084975 358.0913655466866,472.05550963321 365.1517772799125,483.373023475986 365.497807359905,483.8873790711514 385.86552234669216,490.81587777932873 386.5039886222221,491.2133625855204 389.8294308978366,498.4383493125206 387.4360561777139,500.11931437189924 400.8345272889128,507.64071344403783 402.10272170661483,508.01562647143146 414.3320305777015,530.9576831734739 414.64572956436314,531.4512268148246 453.7319825066952,540.8527184913983 453.92014364444185,540.7092154368293 451.2244295111159,531.0666952398606 451.481330631068,528.4614297613152 459.5579872711096,510.40631421032595 460.2369402310578,508.6932283625938 466.3306231466122,511.8627024839516 467.4025008355966,512.3829701995128 483.45299541333225,497.6884892981616 483.53163861331996,497.36140230327146 498.33957063104026,498.9706103290664 498.5055951643735,498.90344522573287 511.2216180622345,471.99891827080864 511.29822236439213,471.79371694586007 467.95678975991905,439.5111838145531 467.8696996978251,439.4168506292044 465.6895354310982,433.89713700517314 465.59021198225673,433.0918314147857 470.18064469331875,425.5738134557032 469.8139343644725,424.7859641126706 446.6357444266323,416.39095602498855 446.2372855466092,416.1741964702378 444.06382051552646,409.59445080003934 444.38771399110556,408.11389980401145 454.156073244405,405.36171395133715 455.53291178657673,406.266073212435 493.538548906683,362.05065936461324 493.6518533688504,361.972864057112 510.19896519114263,370.71476339554647 511.0582149688853,371.0296142992447 519.8368349865777,350.5499985628412 519.8726613332983,349.9409523422364 507.8061730132904,339.30285156704485 507.1438225066522,338.2927847551182 504.43354481772985,322.29543904506136 504.43354481772985,322.246174943808 510.7608271643985,317.2575508695445 511.1039445332717,316.6189433996915 535.5238232177217,326.7139687449089 535.702081137686,326.6794385421672 536.2560787909897,316.75983317004284 535.9814101333031,315.964679566212 527.4136703999247,306.4304350282182 527.257840355509,305.9326923195622 532.5898493154673,296.69638657505857 533.3165707377484,296.38142704806523 529.8920962844277,282.69037293473957 529.6174276266247,282.1276451825979 532.742475377745,279.2472112919786 533.6736691199476,278.64348957123 537.1817383822054,245.95617955032503 537.1555239822483,245.85577411978738 544.6857560178032,241.51803061069222 545.2805316266604,241.45493049063953 557.2453663288616,252.76245325879427 558.9487197865965,252.75186036218656 567.3920867554843,242.34477865125518 569.1216546132928,240.92111194727477 569.5964265243383,230.15234150277684 569.8093457065988,230.046862004383 562.419506346574,208.45564143167576 561.8369641244644,207.6388977803872 531.0627148799831,185.29586529522203 528.8799291732721,184.0952647830709 515.426407822175,161.22544965235284 513.90014719998,158.8119937745505 504.7996726044221,167.41470229852712 502.1549309155671,168.30854229727993 486.98436636442784,163.8245611806051 481.5658498844132,164.9363502410706 479.88113777781837,154.83696654095547 479.57151658658404,154.14949640916893 471.6771956621669,146.76274019939592 470.9825140621979,145.7596036833129 469.23838264879305,140.5751980469795 469.0985725155333,140.12868176068878 484.58167096879333,128.2839117536205 485.1872236088384,127.7617941944045 499.14377016888466,85.96524160902482 496.4739791643806,83.67769584979396 484.0908791467082,85.51215921872063 483.34842908440623,85.38171924906783 448.4791992888786,68.13437035260722 448.22084181336686,67.86655493540457 433.2133890844416,76.27699849271448 432.685605831095,76.49041279655648 384.2207143821288,74.6249894683715 383.7957498311298,74.47472239367198 349.9078124088701,86.79903977253707 348.6352489243727,87.96561431646114 333.2503088355297,81.1066553099663 331.41530083550606,79.88565381109947 334.34985728003085,72.6834939121618 334.84967850660905,71.9976052576094 306.3019056355115,51.80992801109096 305.7735398398945,51.39457505237078 285.5159253333695,26.99475534184603 285.3228125865571,26.80434418207733 251.1470993065741,5.52149314439157 250.2604700444499,5 199.4083205688512,39.033654613711406 198.1526508089155,40.20141000702279 173.7013148444239,86.30217204609653 172.89769784884993,87.78401442751056 141.8770332443528,99.41669902583817 139.43181226658635,100.44816551060649 134.99109290668275,113.42219088115962 134.25767224887386,116.12142363918247 126.58559118222911,117.28092658874812 125.69371903990395,116.92468886682764 106.9352769422112,101.13488531892654 105.59659491549246,101.60222224495374 63.21198791114148,123.90693297114922 60.01383111102041,125.23459828464547 61.9056369777536,145.88079130108235 62.90324053331278,147.08483035449171 52.14019043557346,137.16939356341027 50.66053319105413,136.29984724341193 27.435739875538275,129.8705330733792 26.688338204403408,129.505099689879 20.82854599109851,145.79784921271494 19.73191025783308,145.91857601964148 23.907864177715965,156.4809880918474 23.72465464891866,157.4200284027611 57.60152376885526,166.89221884938888 57.508899555541575,167.81462704512523 47.5858753422508,181.00711998221232 46.39515903999563,182.42058635258581 32.59094727109186,182.81956181762507 31.842089244397357,183.08723431936232 26.1625938488869,197.00943150173407 25.60859619558323,197.81377714552218 5,210.81095984269632" stroke="red" stroke-width="3.2519549900372455" fill="none" stroke-linejoin="round" vector-effect="non-scaling-stroke"></polygon><polygon points="141.49459427548572,142.4409717695671 156.11028735991567,100.12831003352767 156.51952327112667,99.48813676548889 187.63543352880515,112.6313558210968 189.01984511991031,113.15811865776777 260.7826389333932,121.48845044203335 263.40466147556435,121.21148453193018 261.1822628977243,139.16330024803756 260.97604295110796,139.212145430909 266.60747861338314,161.4590530527057 266.728938666638,162.025782142533 274.48403199994937,169.72070978715783 274.6459787377389,170.20264149998548 257.6584649955621,169.83174768654862 256.15958385774866,169.33276779711014 218.32667050661985,183.55116848711623 216.6967173689045,183.81285087385913 187.46096213324927,233.42356214282336 187.19998321775347,233.56174271536293 182.0307948088739,200.47740204510046 182.01710506656673,199.67444837017683 191.0572865421418,185.87773489335086 191.5151647288585,185.35759975312976 187.29464632889722,173.53512831876287 187.256781084463,173.15456489409553 190.78232661332004,163.26889487437438 191.0450531555107,162.6266055002925 178.3986440532608,160.78450526547385 176.8677230932517,160.4605925648939 170.0053757155547,169.6437664788682 168.88339939562138,170.31321841385216 161.99046855105553,160.7660749683273 161.15772444440518,160.35876500076847 156.16096853336785,165.85646308021387 155.31569976895116,166.39599662245018 146.81116586667486,160.50528609589674 145.94172160001472,160.41083068429725 144.89576703996863,165.69750545948045 144.07700394664425,165.9739534201217 146.14532010664698,155.10928151599364 146.09085240890272,154.4333315285039 141.49459427548572,142.4409717695671" stroke="red" stroke-width="3.814452090127083" fill="none" stroke-linejoin="round" vector-effect="non-scaling-stroke"></polygon><polygon points="226.7135308799334,311.6255846991553 227.98172529775184,318.98182762693614 228.4457201777259,320.0564433320542 253.63892366213258,310.97084526804974 261.45256248884834,307.57417987432564 264.9163585421629,315.0949337873026 265.0150994488504,315.19899037556024 275.3910502400249,314.180522846058 276.83342478214763,313.55894219636684 291.92097706662025,328.80050353269326 293.8754062221851,328.82858782162657 293.33626339549664,321.32580896414584 288.91826318216044,313.01839578867657 315.37383566214703,312.9990576466662 321.43897400889546,316.49416839546757 340.1001315554604,283.44190230517415 340.74267562665045,281.5469564932864 360.0492899555247,288.74812240333995 361.6920590221416,290.3100777720101 369.13578353775665,281.6082028761157 369.544145635562,281.48939408751903 377.36477496894076,285.77844194934005 378.6414162488654,286.64278021035716 382.31084970664233,281.05698480369756 382.3621134221321,280.9736342456308 372.7915272533428,276.8742205979652 373.15561614220496,275.828862242226 391.01694321772084,266.8620580692659 393.19040824892,266.74093849473866 383.56273294216953,254.05063771811547 382.57153735111933,251.09291421010857 389.14319615997374,236.44739342085086 389.2605784178013,236.36955275182845 373.1824130844325,209.39583714207401 373.1122167466674,209.30278512829682 348.8545760711422,210.23007889540168 348.21174072893336,210.29733402573038 333.290795519948,199.09491941751912 332.91622087114956,198.72038994065952 327.02730154665187,207.08841173368273 327.00778638210613,207.15981376887066 321.4785868799081,203.81126317376038 320.0143670043908,204.3249044562108 316.77514097769745,217.3189304950065 317.055635057739,217.81549606024055 293.09130439104047,220.43004689068766 290.20713784883264,219.01821180869592 268.3641346844379,240.89808264462044 268.0783977244282,241.19792397139827 264.1890545777278,256.5652694927412 264.321874204441,257.0566785376286 278.5120201954851,274.06141221662983 278.67047168000136,274.48738834046526 226.7135308799334,311.6255846991553" stroke="red" stroke-width="3.2916968885458293" fill="none" stroke-linejoin="round" vector-effect="non-scaling-stroke"></polygon><polygon points="252.209365048795,308.5797862696927 257.2375782399904,306.84207336528925 259.6702745599905,305.27517289936077 258.2139190044254,303.0903338053031 257.05728142219596,301.3894131760462 252.209365048795,308.5797862696927" stroke="red" stroke-width="3.068817918794675" fill="none" stroke-linejoin="round" vector-effect="non-scaling-stroke"></polygon></svg>