<svg viewBox="0 0 10550.55310511998 7629.349464642363" width="1000" xmlns="http://www.w3.org/2000/svg"><polygon points="8.052549999993062,5850.47685773464 21.922589039982995,5949.421729456488 36.1045794399397,5993.567510378169 64.11466583996662,6074.569115306047 104.90893257778953,6149.267994683498 142.26561766219675,6206.497948895878 201.1918023377366,6281.542979500577 270.934630995529,6346.509686485428 347.5456324533152,6400.084112605517 465.5034419466683,6456.230551916204 593.4005868355453,6488.5029844523815 719.5466098044126,6493.011121802061 848.5668960977637,6471.067932736914 954.5942408799601,6431.5136486642 1051.6015018933394,6373.02725114426 1145.1976869243954,6291.018174017634 1217.8832276177418,6196.6598846349225 1271.1404026577657,6089.957448577421 1308.3264028710837,5940.601216323703 1312.984410479985,5878.187436818349 1312.1604045066342,5791.236003581464 1294.794820862211,5685.083764195879 1260.6703712977178,5584.097074700199 1209.7462778577756,5490.521235303808 1151.96711881776,5413.162019206298 1086.6417078310915,5347.873734850524 1012.32271874664,5293.162551235844 928.3539177510829,5248.741980508697 841.629109502217,5218.680030159623 751.4122519021912,5201.9757072793145 644.6500301066262,5190.04982445194 543.5807021777437,5194.882539795275 446.21954676441965,5215.906974924932 353.5321276000177,5252.513009324932 237.60039995549596,5327.860284133843 188.32635735996882,5371.344435662759 122.01353730660048,5450.4279590224905 69.78454928883002,5539.53802828581 54.04367590221227,5574.329432524013 26.12767007111688,5658.973650990491 10.251355617743684,5750.558942156815 8.052549999993062,5850.47685773464" stroke="#009edd" stroke-width="6.142265444808753px" fill="none" stroke-linejoin="round" vector-effect="non-scaling-stroke"></polygon><polygon points="1602.8079041688761,5798.462957608834 1612.2133396177378,5905.556179050793 1616.1079256444064,5925.531118694489 1657.7576556355052,6053.070480381924 1663.4199660355516,6065.253607359977 1710.2406320621667,6146.654145390814 1715.739539368864,6154.539525106695 1783.0878282222257,6311.698129382188 1793.5167903555266,6329.097905027826 1844.393989146658,6399.652356792445 1849.1603496088937,6405.225904988911 1923.6214789955702,6479.216175267909 1939.2979814666614,6491.952767618204 2028.7097657154955,6550.569925951917 2038.1976308888698,6555.532468716876 2203.477383991092,6677.905542603898 2214.7431680266454,6685.116790215456 2335.6477673510963,6743.825286770501 2354.6470906577597,6750.384761911613 2511.694939617737,6790.245526034472 2524.729030568822,6793.149166631891 2632.2602080977813,6810.195022334316 2643.5915281332855,6811.473669528234 2726.216404222214,6814.361262258521 2739.553125857754,6813.776023474027 2846.452536346653,6798.356743622309 2868.0951449866698,6793.2364962295105 3003.84728919997,6843.670799133804 3012.472991884424,6846.691804667673 3124.901310604444,6943.043487650197 3134.972009271063,6951.213055813889 3174.841198959999,6996.433384353848 3184.285082195507,7005.919535400899 3245.048896311113,7058.28578475563 3255.4586345510616,7065.954090511979 3296.0760997244215,7131.165816991561 3302.8399974666245,7140.429121548339 3366.1582592266204,7281.607672449929 3376.5665411110676,7298.974550659157 3423.203415066673,7364.326876560546 3427.353154586657,7369.407124646212 3481.051022817759,7426.44209775576 3488.089006675553,7432.9642139895295 3553.9375405777537,7485.204123108677 3565.0279794044036,7492.649726362171 3656.9694532532885,7543.810782234388 3668.9290450755216,7549.737256497116 3730.25850768885,7575.282046036067 3742.4129598844156,7579.439034803741 3847.5018291466113,7607.959418582352 3867.8380868532986,7611.962567992654 3953.9826830488455,7620.931608724786 3973.9737844888296,7621.296914642357 4065.100281768857,7614.987857371481 4072.8006161332887,7614.123840353597 4241.497270639957,7616.468064647197 4254.747776026634,7615.009580161277 4414.3221106044075,7576.76052528646 4426.946674373321,7572.453892534511 4546.941342746635,7514.6184055395715 4552.776376915543,7510.883220402087 4837.983223493298,7518.339794635511 4851.302468862239,7517.755622995755 4924.144130871078,7509.369064643484 4940.923094497732,7506.124081242218 5023.785939084395,7484.344796617894 5033.697312453325,7480.912067531404 5146.816817519983,7428.896393664618 5163.885013359977,7418.572605817724 5216.323425306677,7382.591917393118 5226.779766924417,7374.560480711603 5291.422438426613,7316.703934217832 5300.653111208841,7307.018739073974 5373.701575706626,7211.416596392897 5384.111605217768,7194.046910829929 5421.444406071067,7120.273498906608 5428.489089164446,7103.883314480743 5452.520994728868,7034.2299721702875 5455.496329128888,7023.007969925558 5589.357832559996,7009.676887237496 5596.348047955515,7008.119673755631 5757.4320407022315,7033.811283791292 5770.662157111074,7035.56168696165 5891.7391889333085,7044.307492125925 5899.3396173066285,7044.641027468926 6022.806819866615,7081.08487765395 6035.768093039951,7084.272073919157 6185.324157751078,7114.132558870042 6195.4134977688955,7115.76051346687 6389.773467333318,7133.119239115302 6397.834977875493,7133.29593175443 6580.368466515531,7174.594185333786 6591.325211902178,7175.546475756593 6663.4445215555315,7201.962221569935 6673.950379262184,7204.970811508101 6811.168490977754,7236.311694248492 6831.797184879979,7240.377897098922 7056.248081662197,7255.530135286128 7065.085247173294,7255.658721297426 7218.231810871075,7240.607215211872 7231.415906444454,7238.568148210848 7395.857672559941,7201.932521382376 7407.256567493343,7199.201015721395 7468.9405070488865,7180.299022936117 7487.563799351075,7173.098381719465 7565.594164933282,7134.996097836847 7572.803998746647,7130.678302484303 7745.519320773339,7163.425622635958 7757.163465982216,7164.259123707219 7937.611744737747,7153.873951616028 7957.223902462196,7150.027268783102 8021.631809448852,7132.684397365869 8040.61715174219,7126.1298811880115 8111.832938408857,7095.513627762179 8123.9279712977295,7089.8461768091365 8252.720483582205,7006.43779238264 8263.99558829327,6996.598788481293 8354.485949466674,6983.6569874228735 8363.721865128871,6981.599490873312 8505.278460044385,7007.031091873912 8523.440670177719,7008.667945734196 8655.43920358221,7004.236115670268 8666.06448244446,7002.59250975083 8794.967386479984,7014.467342699791 8814.980915795575,7014.833057309006 8924.22127220445,7005.8644016501785 8937.486632417742,7004.404274100059 9016.766842337762,6989.443175772409 9022.444298835559,6988.6740359440155 9118.154238319985,6988.883550844708 9124.925126568909,6988.288393538358 9203.218801235518,7023.423297511385 9222.207930053322,7029.97936649897 9339.275032488891,7056.060430489626 9348.47046146667,7057.0723460907175 9365.203695528879,7067.404557378701 9370.873870248877,7071.034076378943 9427.307356755511,7111.316087840853 9432.272946657758,7114.974098088773 9487.664556399948,7203.284031360265 9495.562372577755,7214.099970058975 9573.061168382206,7299.937643173413 9730.480679279979,7436.911724309641 9937.346665271063,7214.449934402626 10143.40612155557,6976.442390432261 10148.993284008844,6947.427113999234 10149.090277288837,6946.97803134608 10184.663218088826,6912.968275895313 10186.397155013314,6910.258897054155 10186.417835262226,6877.375496993569 10186.191226337774,6874.896944382606 10200.456811546668,6865.578526098601 10202.542895244405,6863.242692124943 10200.97207014219,6838.531374060345 10200.659536240011,6836.781556213013 10211.11529531554,6831.48917281974 10212.46475437333,6828.58635209917 10207.253622924414,6802.797316047974 10206.144462533266,6799.563104803528 10198.019454888854,6799.156797022064 10197.691192346654,6798.312926032842 10210.78499387551,6782.672269709961 10211.503850977722,6780.37560462972 10205.51939472885,6764.875386631902 10203.86322719112,6763.594177061546 10184.034946302214,6768.813072114222 10181.691378942196,6766.328503187542 10171.738062533288,6731.641090358986 10169.70673780443,6729.219172954123 10181.410011048865,6699.984912779735 10182.003621573298,6699.281863640324 10174.706988968857,6688.6566378597345 10174.269499759976,6686.984790649469 10183.581728453311,6688.313074449572 10184.034946302214,6687.625640489248 10176.253638568829,6674.437955044064 10176.722585057752,6672.5941235026985 10187.72243856886,6670.8131159732875 10189.566184702184,6669.375371799542 10183.816201697715,6652.969306857878 10182.691312666662,6650.969392584026 10174.31610313771,6649.750437343348 10168.316209519951,6647.938090670825 10172.753724897775,6640.250644420885 10173.253837395547,6637.56287804016 10177.441150888888,6640.844348097715 10179.409852328856,6641.0941509453405 10178.441375884431,6620.156896647328 10178.066218693304,6617.250480676099 10174.230178159982,6614.219294555049 10172.581874942203,6615.0395464305475 10157.143632239982,6638.115206089715 10156.628664915537,6637.969308169704 10159.050001662195,6626.408304280281 10158.737467759958,6625.75205550043 10150.331092222215,6621.6738543848915 10148.838327777776,6621.61561603818 10145.096950355539,6627.642638317804 10144.08128799111,6626.556657466077 10146.031639351073,6606.77014846899 10145.40424137775,6605.048081933433 10138.659276257764,6606.822257907625 10137.938380257721,6606.377181833173 10126.939109288825,6584.693988558982 10126.751821964426,6584.010100149579 10115.62293535113,6577.889091393648 10115.260885359981,6577.189560597035 10122.53683771551,6558.732898131566 10122.224303813331,6557.959462776635 10090.071468399983,6564.683684022195 10089.756895599974,6564.706981838186 10072.093341608852,6555.330755187402 10071.612453004433,6555.259634289512 10058.065724897751,6520.009789029806 10058.0593169333,6519.589473426429 10077.04087270223,6483.52908885639 10077.956337804411,6481.939382451965 10104.54997279108,6465.892740831681 10104.948431671044,6465.400330009143 10100.47188596442,6447.634910998604 10100.216149928892,6446.608661828417 10114.510862248862,6400.2714724412945 10114.651546195528,6399.785134007951 10146.675057235494,6377.825848024309 10147.284396399948,6377.32998274648 10144.9702474222,6342.334897601773 10145.440650266624,6340.939511674194 10317.567604648852,6046.839042628504 10326.161558782187,6028.685282428429 10288.766425911075,6013.702078286413 10036.921189857792,5911.532994757552 10006.87540966217,5878.5272258833575 10013.583674622205,5869.751573822374 9972.89310039996,5853.07129453079 9936.452462960006,5849.990629639855 9916.210285822192,5792.715417409578 9895.071867475548,5756.731238206063 9788.30906313777,5701.18104512585 9719.45577645328,5671.564124940516 9701.410657306638,5613.733959802572 9692.488731902238,5585.14127172876 9788.096435226646,5569.705064544076 9787.16698911108,5543.298981955479 9787.012615422165,5526.699290484161 9669.221413004416,5408.708583009808 9590.911427155515,5328.845688317757 9596.11119903109,5308.603510515852 9594.039387617755,5296.717545955471 9554.651669075567,5260.747961670539 9548.517790746613,5255.243154540396 9532.45069371551,5223.896641053463 9530.561509288877,5221.625175130117 9508.017999102216,5221.487491585634 9505.634818871127,5220.847631423763 9489.976957751118,5206.6149967672245 9488.598954124405,5205.275000850466 9494.546418942191,5195.966851882666 9495.043618728901,5195.275019231689 9485.77566324445,5188.271199387818 9483.552973395534,5187.111878048308 9450.460206106625,5180.97284144556 9447.233504737756,5180.21552263308 9448.141105519986,5184.206187021598 9448.393055031047,5185.794268728205 9432.958890124428,5191.121237977903 9429.784326284396,5190.49148313349 9408.454542817752,5167.889267052844 9407.34043081777,5166.215991717676 9444.560218479979,5141.99685203933 9447.160104417737,5136.601758606586 9472.38505645332,5127.536757317692 9492.109353555512,5120.849562008079 9511.674907902227,5085.853123820125 9538.736324293335,5058.0330824396515 9596.728111244418,5083.836823208694 9602.200512879965,5084.846357831993 9651.520285039995,5123.825382179028 9657.177935102227,5125.255036268471 9690.374977448868,5085.729852730205 9693.18166587557,5082.920124730532 9705.90380546663,5084.531877554284 9709.191965039965,5083.14607168801 9759.590896666603,5108.636256921309 9770.960955759947,5115.77885570479 9787.672635760013,5146.480528192042 9790.031640488858,5149.106720581796 9804.328682977735,5146.891793742805 9808.873968666681,5147.470269851474 9820.73190687105,5122.9674648918735 9822.61672223112,5116.609119607107 9864.092563368875,5122.603518185992 9866.724489128886,5121.562395592191 9886.514322231087,5137.897668084333 9894.199801768846,5142.4376292025845 9935.637195119954,5135.641504823085 9943.01392728,5131.00281483939 9966.264643724397,5135.96302405218 9977.48498946664,5139.604230879428 9990.177710675547,5131.873936357122 10002.530809768854,5123.563181165577 9997.28559959997,5073.993450873037 9995.506224382232,5043.685334457114 10014.590016311064,5017.552481268736 10018.60635366218,4984.070164143894 10011.076121626626,4970.029395245743 10030.02709392886,4950.025757632771 10051.876796328841,4959.478506900807 10064.495825946651,4949.48303879294 10066.31830928885,4917.012663257512 10070.488729057746,4906.012958413252 10170.153838960017,4869.106127136183 10204.017892151052,4856.542470357235 10237.866507973318,4667.207856437046 10250.442138195533,4604.143007598672 10249.750951848895,4538.026385363279 10253.957780506666,4516.438738646073 10240.219687279983,4496.238490276999 10238.612162017758,4489.0415109601745 10241.270302177727,4384.9921761880105 10249.621627475513,4375.7659725767735 10213.552943244431,4376.080574923806 10205.48123821328,4376.897555073694 10207.982674515544,4355.309635818034 10200.574193804438,4336.054350413935 10138.879477217764,4291.50658294672 10116.038579226675,4288.2510441820195 10085.181317715527,4193.881040942651 10076.675618728885,4176.8461938281835 10077.972648986644,4141.262057349639 10077.753030568856,4140.923289752653 10051.580864879972,4131.649901992263 10050.976768595487,4131.338845932711 10040.394306586619,4146.379268716526 10039.616321448848,4146.818737971218 10033.638564435561,4134.588602519041 10032.704749253317,4134.304650005448 10015.540433946677,4141.683052770124 10014.908958177752,4141.600516752893 10011.100588400004,4129.022550282505 10009.855695671082,4127.896582290094 9988.242505413335,4125.205459512741 9987.665788613289,4124.839271082339 9985.4410598666,4112.590749028226 9984.534915439988,4111.528806575778 9948.70507351993,4113.094308559288 9947.661449128907,4112.361914166802 9959.250835368846,4097.449545833078 9958.783927777753,4097.193292503216 9946.233346871071,4098.401562792744 9945.491770622233,4098.703706919769 9929.966146586608,4116.078389127884 9929.142431884393,4116.17016881067 9918.54161979552,4092.8449743131932 9916.948949359969,4092.8357343288662 9895.729266373295,4113.744161414012 9894.950989964447,4115.675851869077 9907.840319173323,4129.288027059025 9907.492541466636,4129.645280973258 9896.855320488889,4134.927066318778 9895.665186728846,4134.432767427963 9881.961172222189,4114.439903440332 9880.505690479971,4114.247719814099 9881.210566568858,4122.303355141106 9881.091436684394,4122.825384039228 9864.454613359965,4141.023688172892 9863.55749833773,4140.858923883963 9864.353833555564,4131.402597041422 9863.813816915528,4130.084456565353 9846.988249911083,4114.586197017779 9846.027055244456,4114.842441667832 9842.081496773317,4137.902088850125 9841.852848951094,4139.2935065186175 9848.233142640005,4160.330309340468 9848.059253786603,4161.025988280569 9828.011354479968,4167.809347520146 9827.178319102182,4167.827516837249 9803.428946515516,4159.15359660369 9802.070458053291,4159.58627982586 9804.165571155521,4166.374893308122 9803.970128239976,4167.240863139596 9789.738330479973,4181.29080423995 9788.985394657793,4181.28279763207 9783.238906906656,4180.088579870149 9782.123921093269,4180.130152737227 9771.179117822176,4129.043492771016 9771.47388418662,4126.871013015712 9801.484711848869,4133.092460503249 9803.59497104885,4132.033640198264 9808.647942284384,4113.378272798873 9808.855327315541,4111.39791154486 9800.408465093322,4095.1294013455918 9800.492351173336,4091.9289830538037 9824.366970337782,4079.8111950136663 9828.470106479974,4076.5349109405943 9823.362376275501,4062.6539777709695 9823.875013431098,4060.2046160137106 9837.748547724419,4051.7848457909713 9838.876640737726,4052.1085790386132 9839.18364048886,4066.6584988906106 9840.474262782169,4068.341183118493 9855.91541819551,4073.3676419164112 9859.084156613302,4071.9156752362323 9859.147071173327,4059.4949395975855 9859.289794017765,4057.240231970529 9873.929953875573,4041.8657571923977 9874.24481794666,4040.668750921235 9871.011417342204,4025.174875957222 9871.643766924419,4024.3062021381047 9893.187925928883,4028.6745075974322 9894.291843439947,4028.4169877661334 9899.191897342185,4008.017679434415 9901.202250551112,4004.065377458028 9921.187817839993,3999.7803453298693 9922.506693431089,3999.4408682122885 9924.785889875522,3985.8230911619903 9925.842038924427,3984.555099207413 9930.723451475526,3985.1817020377202 9935.294660293293,3987.8415208625083 9941.42708226663,4019.5161480883544 9943.295295173273,4020.798223532067 10009.24402633778,4004.969511580217 10009.969000133307,4004.6731652395392 10007.987191493303,3992.8586027412384 10008.988872844406,3990.6932478098024 10019.788331831078,3985.6508834979904 10026.864472204441,3985.395806565677 10033.033011795516,3988.9847396528057 10034.330624595546,3993.1216855027305 10028.208105839993,4013.4236275509174 10028.959002764459,4014.543069709238 10055.17398530661,4023.360516555578 10057.054431600001,4022.7934124104504 10059.520041555545,4019.044533273176 10062.56411593777,4011.234947805613 10051.919904453302,4000.4556022311735 10049.30662004443,3998.732031872525 10049.870520915516,3979.481559676089 10050.97414715556,3976.5395060306473 10065.45964205332,3964.1475754861312 10067.272222177737,3963.5280327062064 10092.57639995552,3963.925452079362 10093.995181537728,3962.5680633981538 10093.787213964417,3957.6024424747156 10090.33798146664,3952.644475505891 10075.895012151072,3950.3809795693087 10074.81701776883,3947.470799821458 10105.290092684416,3907.9596066077647 10106.532363973296,3906.0761231176148 10114.36639177773,3903.2510389423405 10117.251432133286,3903.8922225733113 10130.603299866634,3920.768527811131 10134.510119279992,3919.666442630376 10138.46732859555,3913.856193074811 10139.769601733336,3910.1493438725884 10130.352806711075,3893.870439813327 10130.768159315543,3892.791097570007 10154.71122719106,3875.485260778776 10155.665140080004,3874.7365039823635 10162.61020845329,3859.5130854219606 10163.717912488879,3858.25125152446 10194.327884826664,3868.182832386432 10197.545556791098,3867.532668088883 10204.262559884432,3850.1566439798044 10206.032323155523,3848.341664330015 10235.280894320022,3842.6812899830693 10236.773367493326,3842.1494229633536 10246.017147475533,3837.651026120555 10247.903710462182,3836.5845076790138 10254.19866171552,3818.938712584524 10255.158982568857,3818.1837096820527 10263.517298373306,3822.1315921188507 10264.461016773275,3821.764878853661 10268.674835937767,3808.802474458789 10268.445605573273,3807.563936381688 10255.316560239968,3801.1351389990014 10254.798680204462,3799.9273999056604 10266.987793662207,3784.5670763498347 10267.47567277329,3783.8194191031216 10282.466523048846,3784.631795186171 10282.96139266665,3784.608989501925 10285.300590959989,3794.932772117696 10286.091392026603,3795.1053521609574 10309.63629229329,3777.689882791805 10311.220515866677,3775.879884975642 10278.854761271068,3756.817657352396 10278.80641026664,3756.2906321704213 10285.60001766219,3739.326294722123 10286.078867368837,3739.038732600253 10322.133279315516,3734.2349109638308 10322.890001662221,3733.606459504488 10318.214809057798,3708.297622957063 10317.776737306645,3707.3738537988684 10295.92383092441,3696.747768216679 10295.437116897752,3696.1158799577097 10306.174535137747,3676.900554699212 10307.749438035506,3675.096672620828 10323.64876290664,3667.744831563934 10325.18463547554,3667.9541370165825 10359.274132506602,3684.496702393546 10360.02415561772,3684.137288143538 10364.586335031112,3667.032144311903 10364.671968737763,3666.891887836595 10375.77347586662,3664.6678157134156 10375.82386576882,3664.4791621638287 10366.786888275557,3639.817041479837 10366.906600702234,3639.7871390554064 10379.260573608888,3639.88886894568 10379.682916719961,3640.0843135869654 10393.38314470221,3654.0140211758844 10393.54800415106,3654.0254269371217 10401.16707387552,3640.3034951065492 10401.33542857776,3640.2381414143892 10420.817679386673,3653.3006981976505 10421.03817161775,3653.338922963332 10443.953052471072,3638.701402416016 10444.323549324443,3638.438137135672 10447.808025626611,3644.5298882513016 10447.9685160089,3644.381302303431 10471.774977733294,3585.3353035436303 10471.768278497766,3585.1475455304317 10441.241609697725,3559.29084832847 10441.30452425775,3559.0670071178756 10460.978722728876,3561.4389173095988 10461.222807919985,3561.4213430774107 10489.009489377757,3549.6665123392304 10489.147843155573,3549.629513099004 10469.611998462206,3532.0524114510918 10469.47131451554,3531.8874507731816 10479.150836079993,3527.2851804622624 10479.223362586665,3527.151668984181 10472.90656599999,3519.403318110475 10472.99016080887,3519.2210859855113 10482.605602728872,3517.7379422350496 10482.625700435514,3517.6192288788443 10475.638689022191,3498.7570204567455 10475.579560986633,3498.6605044392927 10467.006869644421,3496.3549070980807 10466.94715906665,3496.195793668652 10472.701802408876,3486.369209450233 10470.856308648858,3481.7893463631917 10497.765390248882,3488.932027567498 10497.96928002665,3488.9705730428395 10499.847978693346,3479.892261981644 10499.915553591127,3479.8284295329067 10508.189692044427,3481.213314337976 10508.232217626617,3481.1223456232983 10491.943463279953,3463.6807210378756 10491.575296595547,3463.3939283606887 10467.735921235551,3457.4366219300136 10467.676793199993,3457.200708937162 10479.340162302222,3453.4165262069146 10479.51812895111,3453.156248891464 10474.578753448877,3444.682360792387 10474.643124364462,3444.5978617422807 10495.375510782207,3451.6127770000894 10495.883778871066,3451.6118518407166 10502.38844532441,3436.356669689849 10502.56262544883,3436.2635341728746 10526.214130942157,3441.682635905716 10526.399670639978,3441.48495628158 10529.226456773322,3426.988754800026 10529.189756613312,3426.905794813443 10520.935424595518,3426.564702681353 10520.724544311088,3426.4635469236237 10518.101065413299,3417.863075013418 10517.917273342173,3417.782580791827 10499.601272062195,3417.8729440358875 10499.303884257766,3417.786898489896 10492.066088417749,3394.4896074730495 10492.107157644437,3394.2385525903956 10506.080015386658,3370.4497679563647 10506.200019084412,3370.2529858986672 10525.670327777712,3366.0505295344337 10525.85324603555,3366.089701215009 10534.087480346643,3376.3535026281897 10534.271854959981,3376.350726738543 10535.986567991116,3365.2325501271116 10536.141232951108,3365.0006039918226 10542.460650977708,3365.0437854612537 10542.500555119972,3364.8414494014287 10528.540222035575,3356.6347418348596 10528.345070391108,3356.595877868269 10510.705691902229,3362.364985204622 10510.634330479981,3362.275537398731 10523.610167208855,3350.3106716507755 10523.536184346623,3349.9982137173356 10507.341219297756,3332.335236669547 10507.02140361772,3331.859592750232 10501.74852269332,3307.379368242837 10501.480553271103,3306.979585608962 10488.592097875517,3308.6456529763236 10488.277816346643,3308.2813458046585 10494.174308719957,3291.1817496226577 10492.534452364402,3287.090618391492 10479.61017062221,3286.858636502555 10478.979859937768,3286.7121053344745 10474.145050764404,3276.7062399484857 10473.113659759954,3275.993004076212 10453.88627117328,3276.707782412501 10452.95711632885,3276.8762194567535 10449.355840311066,3284.11093868225 10448.819901466632,3284.6165507505357 10429.278813893296,3274.4465250957583 10428.389854462206,3274.216079888429 10388.035407102172,3271.4340704377682 10387.338395333296,3271.3294902768976 10377.131090515497,3259.784509833873 10376.481847208837,3259.538324289111 10362.294613928854,3266.640636628348 10360.808257448865,3266.762802192854 10342.202150142199,3265.7367339346965 10341.0778436533,3265.2613360003743 10335.892344062187,3256.1611277989286 10335.24659600886,3255.840590668755 10323.726823564415,3259.764148627961 10323.073502462212,3259.5080909683893 10289.928597644408,3225.2494935450086 10289.534216559987,3224.6324448521773 10294.75204724443,3211.7800751305476 10294.967587866617,3211.1210495597043 10289.430232773273,3201.7468115290103 10289.071386764437,3201.244202083064 10266.800797608885,3178.6990785748058 10266.01669577774,3178.1038803643605 10244.982843759964,3176.777101117099 10243.974171902199,3175.8116356118408 10249.724446177745,3168.4824920475075 10249.989794159977,3167.2315932106867 10241.312245217763,3144.034480375616 10240.60999056886,3143.504041906883 10220.80005975996,3177.7798997065693 10220.503837039956,3178.4941996431153 10223.000904275483,3192.447684590443 10222.452732044418,3192.7330878569337 10203.330201057746,3174.097613531543 10202.371627831104,3172.8118617419095 10202.720861893293,3144.6886561964347 10202.184631777782,3143.7721926624945 10175.421768275526,3156.474476026575 10174.489700719976,3156.104196562752 10171.919524435507,3145.035801040445 10171.322709928878,3144.1505040735065 10153.024476186634,3135.9602764514566 10152.559898764448,3134.969738080603 10159.014466586668,3113.190980762389 10158.706010479975,3112.2775460361445 10149.723209413321,3102.7104524140886 10149.0468778933,3102.1935489317693 10136.064050657762,3103.4455345449096 10135.73316667552,3102.8036492842075 10138.184795617737,3089.9500338270154 10138.407326746645,3089.4146008622774 10150.699258906621,3084.2719466362323 10151.153059297736,3083.5908434604353 10148.862503279961,3074.7623423202604 10148.217920311057,3073.427576294198 10133.002500008879,3062.5440864733246 10132.60724511111,3061.4552616502915 10127.353879351082,3065.540194357425 10126.889884471108,3065.21737600668 10131.45293769773,3054.4392601165164 10131.327982391085,3053.433439033135 10111.302510959998,3022.8587929381465 10110.405978479976,3021.2217225950735 10112.241860293288,3013.7079213331162 10112.154770231078,3012.8751738996652 10097.69374210664,3013.4338370812766 10096.727887102199,3013.112837317778 10090.49206388442,2994.4713515824114 10089.557374888886,2993.0036467731406 10075.291498408857,2985.9718770442705 10073.590183848894,2985.3514493015537 10075.037218728889,2977.774761154229 10076.70125058663,2976.0458675677946 10113.602970195498,2956.1614673079166 10116.770834800001,2954.408421790373 10129.854441839998,2939.1413261039124 10130.613494355493,2938.3004292960104 10145.123747297766,2935.41963708002 10145.794544666627,2935.408832534653 10151.346754586644,2941.7495172974013 10154.144996151066,2940.381059807114 10177.717567173328,2921.280610801681 10181.103593840002,2921.4155170346785 10178.478076044441,2909.920882418024 10180.891548471089,2907.991089253599 10235.09681097776,2875.919505082449 10238.80847874665,2872.8342790807656 10256.498538408865,2873.8775093228032 10260.08758103996,2874.955624838505 10270.162940044393,2857.962069726753 10274.835802479967,2856.1855260621815 10292.312651688844,2867.636928746564 10296.706767671072,2872.1071966478194 10304.347682728869,2890.2864122132014 10304.914205039997,2891.3042905621405 10329.511176559987,2892.6111359072675 10332.177472311101,2890.8757754510443 10337.572978373297,2883.6774080029863 10337.718905199989,2882.3353438090126 10332.681953875552,2868.8487429821107 10332.813317146647,2866.585658237076 10341.62135554661,2855.4750920901715 10342.485848204436,2853.3419316454965 10332.165821466624,2838.221828672773 10332.031254213274,2837.8556381077215 10319.936803866614,2779.599536533089 10319.85000507554,2779.0798310685495 10340.695113413298,2752.1334624666197 10341.16930278219,2751.7520772914577 10346.195768346632,2699.0705824470206 10346.384220755572,2698.3892667633772 10354.091545626667,2697.79473622932 10354.635057519976,2697.4031178097066 10361.783724399953,2665.9602264017158 10361.870814462221,2665.510824991419 10373.514959671098,2663.502258303197 10374.080316897744,2662.980270564294 10370.56117933328,2646.463247786596 10369.967568808846,2644.426805605908 10377.679554017755,2630.8881003774877 10377.814995084394,2629.5157072801667 10373.38534402664,2609.370162795967 10373.181454248872,2608.2917858928267 10353.832896879961,2586.5828949093993 10352.391687422205,2584.234512084193 10357.809621360007,2580.229076039017 10357.902828115533,2579.6869217765343 10350.439297164412,2573.849844841083 10349.719274977775,2573.2570201501076 10352.074201911077,2560.083712231164 10351.794872915518,2559.5158947709424 10342.21350971554,2558.2539042577555 10341.747475937736,2557.0085929984634 10347.635230177752,2544.4703510930703 10347.465710391087,2543.9961253585934 10331.54774416887,2530.3484267837775 10331.107050977793,2529.264009648614 10336.98694089774,2515.7994312727533 10337.342291653302,2514.7860434219765 10331.513665448845,2493.5309961033927 10331.183364008873,2491.7432742656965 10341.428242799971,2482.5064036620606 10341.823788968875,2481.839933444833 10337.630358782219,2478.1126893347537 10337.240638035553,2477.5704244475055 10348.372146088892,2453.299220025394 10349.168481306668,2451.0203545191034 10350.104626657761,2423.861348882696 10349.317903386633,2420.036022585904 10345.580021217727,2415.358386519103 10344.443481342198,2415.4238990660815 10335.459806462197,2425.7410909475584 10334.454338586627,2426.090895857982 10317.71091003556,2422.2655866301793 10315.000341075502,2418.2656520330056 10315.109567742184,2401.1067311637744 10314.869269075542,2396.56025692643 10305.535777591082,2394.6804050567735 10305.033043653326,2393.8280878386286 10307.32796873778,2360.7562529046263 10307.153206071089,2357.564938107709 10303.415323902183,2352.909278220992 10301.601287422207,2352.3848029271176 10293.775997751072,2361.4120677315805 10292.31148660442,2362.0459388307354 10279.589929555514,2358.7671693003213 10278.103573075525,2356.8874841908982 10278.266102355527,2305.459494944924 10278.00599725332,2304.1427718872146 10244.510110746633,2269.410318487353 10244.447487457743,2269.4019724670507 10245.065856026631,2255.0654670569056 10188.923931902187,2197.1226665497234 10182.63597115557,2104.520377006993 10181.318843191053,2045.2967500914529 10199.757469608885,2027.0335891252325 10220.097222568846,2006.9802945197152 10219.0827252889,2000.54021961955 10212.644468648854,1959.478949612967 10200.133791884378,1947.983820271882 10199.614164222177,1947.7784372151073 10188.214395475545,1950.1449768887542 10187.845063706656,1949.9222733360075 10163.696067155543,1920.3537767461094 10162.729920879967,1918.7882601736637 10151.210730977735,1914.9544095360616 10150.219826657762,1913.8253450786287 10155.390762693278,1902.9521680326725 10156.187680453324,1902.154998554237 10150.927615457767,1887.8453253491025 10151.006258657755,1886.9018090907193 10157.033823031088,1885.6176960437151 10156.745464631094,1883.8358328690229 10141.266152702185,1877.939243079658 10140.673124719964,1877.160904069984 10154.259465697774,1864.4075400143338 10154.077421253285,1863.2715543394152 10141.734516648838,1856.247689621494 10140.292142106598,1855.8739716883574 10134.336521697725,1860.9179025246121 10134.089815066633,1859.5201844416733 10143.659818693326,1834.4561835034692 10100.012260151067,1743.7483236272528 10012.178874053323,1737.813859445363 9691.706086426653,1541.9693325018452 9349.426121982193,1145.1571871082706 9273.360962586623,1056.9449075685989 9218.250429466629,1052.212210491387 9150.545042231068,1013.9306208099879 9111.051009733317,996.0119200956251 9017.871924933308,964.1117833714525 9004.757734426617,960.8795042346173 8911.4338878844,946.4119337625161 8897.960560097737,945.5223992764659 8672.574100506637,946.3421967969334 8666.688967706606,946.8610395824944 8535.333560915518,886.1316117297683 8522.45588255112,882.0417140156787 8254.98802918222,818.3081567067711 8245.646090835537,817.2776376145484 8231.402642231114,752.7126952222025 8227.638545662194,739.662805034226 8200.135853537737,665.4317373306549 8195.975919528893,656.2756425447005 8162.673728311114,591.7436024725612 8151.752226728859,573.4904980776191 8096.124687386648,494.28774462194997 8088.792228435486,485.00898017184227 8037.687546906673,424.9351601872768 8027.63461577773,414.45024655145244 7962.481637288845,353.7724785434257 7953.800301822164,346.60588972477126 7782.688718533289,234.60381858961773 7770.564267262205,228.58053178546834 7697.10278032886,195.32616618127213 7683.829264524422,190.26812325799256 7479.238688453304,120.48816664362676 7465.212236826628,115.71932093295618 7324.615088951105,50.38635018831701 7318.22197933335,47.96339268182055 7195.142458622198,16.8107053899148 7182.603528559994,15.1117543305445 7096.040958319994,8.967407853080658 7074.4752452533285,8.052549999993062 6889.884508755553,16.81722666733549 6876.407976986637,18.005029304040363 6758.124817662203,32.24507965307566 6752.057057875529,33.259881039353786 6576.506211582193,69.59382673658547 6568.388194444444,71.78969883106765 6386.6481283110625,127.82172722488758 6374.155219084438,133.03410377827822 6325.405173217732,156.5895306248858 6307.746862106636,166.43121930470807 6239.861178053339,212.16378376286593 6229.836791493319,220.0174334628682 6179.375819119945,264.63904846293735 6169.823583031044,274.26530962387915 6117.101473022223,336.20896479763906 6109.118896951113,347.1843348847178 6076.275166462205,398.462426109676 6066.392628933332,416.4689327617816 6030.722694853292,496.95261488921824 6028.029893431085,504.7203644523688 5925.424984204437,516.7224546549551 5915.623128773324,518.7943820058426 5797.303851831093,556.8512499895005 5784.937936808885,562.3322800130991 5663.76158153775,627.5818720912503 5652.371424737765,634.8925556186296 5512.119141857751,739.653812901437 5507.999985804403,742.5517516473483 5471.39157620442,753.7337389463501 5437.272369520011,766.0964767873811 5295.247410657728,775.3410396799736 5281.820686248859,776.822150175547 5172.116626231087,798.4340070528851 5160.8589977866795,801.6152772326313 5065.984715119965,838.1545248000475 5053.875701217767,844.1699380322534 4962.284043973283,901.5491700780403 4951.577500471118,909.8268631274404 4896.959215528885,958.5426048513909 4887.916995155538,967.7711227598775 4829.928412186651,1035.3801337194454 4825.156226302177,1040.9710579096281 4747.283438391081,1159.911336607387 4741.327817982208,1172.0946456990496 4696.0045767377305,1301.2059159266355 4694.1567528088635,1309.2879276513995 4658.135837039939,1371.6433228734822 4652.182546799973,1383.8216856444196 4623.485643119988,1455.1987191098451 4620.21932887999,1465.329396917572 4600.243664808833,1544.452973660169 4598.757017057767,1552.363517947757 4580.968799031078,1686.7469201095228 4580.3976163821935,1700.2971009309695 4579.400012826634,1818.9175053983054 4579.747207991051,1833.2628931844083 4591.035128631076,1956.6364321997098 4594.0092979466135,1975.3580842785595 4615.338207599969,2062.1794098248647 4619.150946444453,2074.1645037546696 4654.853211617767,2160.2951741865545 4661.389044079959,2172.860074290278 4705.359913555527,2243.9790368755057 4713.334042764414,2254.8963779737533 4811.4015306221845,2375.51682286468 4820.911823671107,2385.070583230903 4918.202491475531,2475.29197854668 4934.007735777792,2488.1304252691043 5062.944718533283,2571.8195949922374 5080.164957893285,2582.2327248202346 5237.045034693292,2655.9661234544765 5255.825030853302,2663.2258210772125 5394.091718568845,2696.3363575677213 5407.46688799109,2697.808016659372 5467.918459475535,2700.828842084302 5488.097430782189,2700.460389450687 5720.305168524414,2683.1965515001502 5736.47129773334,2680.3874965108407 5930.131051546632,2676.5508486627077 5949.147851119953,2673.5456290432776 6079.328852791077,2699.072435525566 6092.704022213322,2700.5440865941055 6226.981460791052,2699.072435525566 6228.856664204417,2699.0409331890114 6329.008196862211,2763.8633085046604 6346.75330676444,2773.7295818286657 6475.26998530663,2826.7530829108728 6492.432552986633,2832.577956450201 6561.802845893282,2876.71265179108 6573.501167528884,2883.0071481868217 6575.645505448891,2996.7841740662407 6577.393714657723,3012.1952089823026 6533.0610864621995,3108.4096254160104 6526.471368844417,3127.770224688429 6500.468140399986,3246.432627547387 6499.0208142488555,3259.875209741207 6497.0844439022185,3354.4022180399334 6497.979811297759,3367.8903615038435 6515.593266657757,3474.42484491723 6517.293998675566,3480.780364784325 6460.954010195535,3608.244344609586 6457.128164151072,3620.773157619493 6374.144733324443,3604.963495756878 6354.021977342229,3602.0741608843964 6227.143116257765,3536.5757048960368 6219.98571124443,3533.639731277508 6076.4193456622015,3488.366179654229 6058.994925253297,3484.9821801299404 5935.828023208858,3473.629859692446 5925.025068968855,3473.629859692446 5732.560983066651,3489.45100360128 5719.20707643553,3490.9240539016027 5628.960217911081,3508.8522480185784 5616.470512666652,3512.4710510644654 5513.3252955288335,3553.900132632727 5501.414345982223,3560.146438825439 5358.6338298577175,3645.82338566854 5349.540345768881,3652.285274742433 5219.553913199954,3766.6951181466866 5210.277510853339,3776.4605149756244 5136.929619653296,3872.813457327924 5126.643962906644,3890.041121672868 5064.083297306643,4038.683796640049 5060.062590888905,4051.563992449519 5036.679054817738,4170.556294606271 5035.525621217763,4184.003497414378 5040.546552631102,4334.8928163830715 5042.557197111106,4351.398175570794 5067.638552488905,4461.010036697233 5074.135063351103,4479.976590527425 5130.955940435553,4600.817130677955 5136.9124346577155,4610.7383900352 5192.027045573312,4687.166085824108 5205.331436115521,4702.51702959885 5307.930811191123,4794.383391787211 5309.715138017753,4795.86439366077 5343.178984702186,4837.201558614586 5358.240031315567,4855.319979469146 5329.942169057758,4848.665580545174 5319.657968666666,4846.51980551859 5229.164986053336,4769.16203504664 5222.584589111066,4764.5600672294095 5102.141945768817,4699.409591524425 5089.652531795524,4694.517207712663 4983.349061999965,4663.861463619076 4964.902862533316,4660.259998425579 4865.008522266668,4650.937791343342 4845.481415706658,4650.862413077819 4766.04916226663,4600.721129472688 4751.2983193866385,4593.177594485664 4591.432713697752,4527.810456015082 4572.607570515509,4520.516669197619 4502.019764364435,4499.41331574737 4488.930623173277,4496.4905443108 4392.521633022203,4482.053405110404 4379.1933582488855,4480.583200984896 4270.016207671055,4479.405988259852 4256.659388328873,4480.583200984896 4129.082932933263,4506.120516681258 4114.500444755511,4510.266233632428 4022.94519639996,4545.743052620994 4010.9244376443967,4551.714497299254 3894.7291096444533,4625.096864006919 3883.7461498577322,4631.933814277203 3816.2504778221773,4618.440127316426 3801.8683841688617,4616.58539477564 3692.665310462209,4608.335631326336 3680.98533890667,4607.80363214828 3592.438629857759,4540.391927238932 3575.135960773303,4529.902773068257 3438.4980611110514,4463.452875568328 3423.935088097729,4457.686624656169 3198.529695884412,4400.793805958208 3185.5043430666265,4397.583590779424 3092.81371991997,4383.213869986503 3079.4318512621976,4382.330409372662 3025.8076746221923,4381.74122957178 2940.1926093066286,4385.703250692721 2773.218240879971,4402.772438560991 2755.8660557066614,4405.567690513417 2444.8362775022106,4481.696703258756 2443.049911777751,4482.219906925835 2362.9739491821674,4493.696399987297 2349.8845167199906,4496.619187225733 2246.305888168892,4530.887534746289 2234.1826019821747,4536.279071693687 2152.633390106639,4581.409448079154 2141.4919788355182,4588.909768415353 1981.4702518310805,4711.515912639123 1966.228908399964,4724.882589681976 1901.763912275579,4792.68830844757 1893.9412440444285,4802.482867149374 1833.1759735733212,4895.971873033937 1827.0021911022195,4907.93369522554 1784.673216879979,5016.739276920649 1780.213856168877,5033.297035748343 1760.8944259111013,5168.732664640149 1760.642185128847,5181.018022362812 1685.1607330399856,5390.220704402163 1681.711209271074,5403.231750902458 1665.2232254843984,5494.303119989665 1664.5445637955272,5500.905072926398 1618.7019861599838,5658.548661206936 1615.8213148711075,5671.692171482049 1602.8079041688761,5798.462957608834" stroke="#009edd" stroke-width="5.053732010923561px" fill="none" stroke-linejoin="round" vector-effect="non-scaling-stroke"></polygon></svg>