<svg width="648.1974323199829" height="3097.2742213624297" xmlns="http://www.w3.org/2000/svg"><polygon points="410.0477238044841,117.02880230417941 422.8470502400305,132.11782109778142 423.1980319288559,132.42991492082365 442.4629944888875,141.62258525419747 443.93012707552407,141.99890375079121 443.1043734755367,144.9388125964324 442.3144462222699,149.1798103809706 451.5110402844148,164.44744515849743 453.0684669155162,165.47879406705033 446.70040661329404,182.1127181975171 446.0759213510901,184.05681257025572 458.9780664888676,166.65135529165855 459.36225308442954,166.2277033656137 466.7917053155834,166.68916504702065 467.5594959644368,166.45000684494153 482.78248931549024,179.00112885423005 483.9053394489456,178.42945885600056 480.1357087288052,209.8089540079236 480.7366010310361,210.87788947240915 505.7576632888522,214.1698314975947 506.90993180440273,214.72273440670688 513.7329575822223,219.4073231377406 514.1296688355505,220.7572091978509 509.16728291555773,227.42499490990303 510.7049031110946,228.16822560073342 522.771973973373,227.74697077274323 524.5565920710796,227.5424911075388 530.3071576177608,219.1135715165874 530.728626915603,218.48963264608756 535.6164474311518,231.07600014552008 535.5876115910942,232.1111311588902 564.1566472533159,235.53071718342835 566.2019529954996,233.96551982418168 575.342623004457,247.1602765347925 577.6806562133133,247.30599499645177 585.6282797511667,237.68563439243007 586.5527742578415,236.3772943522199 577.3008386844303,226.35614091996104 577.2219042133074,225.6675538836862 589.839768746635,220.60327524662716 590.1185151999816,219.68604523863178 583.2075255466625,203.12468599458225 583.4731647999724,202.28025646338938 591.3103965866612,213.3477615538286 591.6238043021876,214.0873969233362 590.913102791179,224.13279846363002 591.0593208888313,224.58912746969145 621.6130779022351,215.6937268821057 621.7793937067036,215.6026395924273 632.1900057599414,222.92365858482663 636.3315896888962,225.88068819977343 642.4762450489216,205.52177307155216 643.1974323199829,205.41064136580098 640.7487160889432,179.55184378725244 640.9164882488549,179.1159181862604 609.2611438933527,148.021277694148 608.8559857778018,147.67002649162896 597.440197119955,146.44588199502323 596.4723032177426,144.44450248859357 601.3921635556035,138.96601323742652 601.6799394133268,137.76961124117952 596.7146407822147,130.8161344299442 596.619395128917,130.27896429237444 618.7312415288761,102.68330616829917 619.2331016532844,102.04718496347778 606.1774566399399,82.13100027607288 605.249175608973,80.6986779391882 597.5916580978082,72.2162010910688 597.3117465599207,71.99425680050626 579.7480985600268,73.54239325097296 578.0523181511089,72.62317432381678 523.8493858133443,29.68032703071367 522.4495368533535,28.604117090580985 505.55843384889886,24.529877945315093 503.8244969245279,24.400419998681173 496.85991338663734,9.037680436857045 496.0723163022194,8.224862246657722 477.73854748439044,5.389775973628275 477.5279584710952,5.496451381244697 468.1440770844929,34.0771885906579 467.8455241955817,34.666104189294856 435.9292009244673,42.72478862036951 435.5895788088674,42.99826813489199 425.92898986663204,76.47776088712271 426.13054947555065,77.29351351130754 416.3464615822304,89.20543111243751 416.1000462222146,89.40912974369712 417.49494357337244,98.03174074110575 417.6772792888805,98.90482821653131 410.0477238044841,117.02880230417941" stroke="red" stroke-width="3.149674347610169" fill="none" stroke-linejoin="round" vector-effect="non-scaling-stroke"></polygon><polygon points="5,2888.6637629702454 10.801829262287356,2896.6963438449893 12.340323271113448,2897.6941538156825 36.4068900977727,2904.374145030626 36.817291093291715,2905.4942798474804 25.32285923557356,2915.7025376524543 22.630057813366875,2916.8734451885684 23.496006826637313,2930.314817341976 23.27638840896543,2931.4096307440195 16.402390186674893,2935.1316854987526 16.141120000043884,2935.7042690935195 24.646527715492994,2943.7607618695474 25.602479502209462,2944.575300331693 31.961219128919765,2967.4994251429453 32.164817635552026,2968.3984232677612 39.243870720034465,2967.8394168635714 44.08508785779122,2969.371621680795 45.426682595629245,2962.2380309622386 46.13359758222941,2959.8787050331593 55.194168035523035,2963.323240398313 56.62634808884468,2963.882258328609 74.54622065776493,2957.5018136204453 76.0349073066609,2958.4044507292565 77.36019086220767,2976.3763640206307 78.18652700446546,2980.003667595098 74.67845774220768,2981.9728914278094 73.22851015103515,2982.447319277795 78.53750869340729,2994.568489917845 78.65896874666214,2994.8023178155418 101.85201351111755,2988.395792823052 102.55688960000407,2988.3553214442218 118.92865621333476,2992.9667621079134 119.64430933329277,2993.5050195033546 132.15294719999656,3013.295065704966 132.3294574932661,3013.9497272223234 131.7565272176871,3027.7776457979344 131.73235171556007,3028.102707160113 127.16522069333587,3033.0055451403605 125.20991772448178,3034.5557272941805 148.9400664177956,3040.027584784897 150.4520547555294,3039.943064485793 177.0794771910878,3056.1753090404673 178.5361240177881,3056.354227016971 184.21561941329855,3042.068200619484 184.4701903645182,3041.7998060995596 193.97524053335655,3043.0532101857243 195.09663431101944,3042.311418820056 197.5386513066478,3035.9134764342452 197.5010773333488,3035.49850962637 194.03582492447458,3031.5254886022303 194.6250663822284,3030.8992040734156 231.40590847993735,3023.291030367487 232.09767736890353,3022.6952958847396 222.08115512889344,3010.14492942614 221.7150273422012,3009.1336928029777 225.56126236449927,3002.7617605310516 225.81437695992645,3002.5202970293467 228.62164792895783,3008.032073561277 230.83268693333957,3008.2155272725504 243.35559708438814,3001.5198169286014 245.77664256002754,3001.7459932792117 260.6454502400011,3020.7651050331187 261.69519132445566,3021.8976835578214 247.76340280892327,3036.0645367455436 247.5825234488584,3037.6385250422754 258.10032327112276,3063.3377580069937 262.05636750219855,3062.3456471500685 258.65927253337577,3077.6875749878236 260.35417912888806,3079.5282644446706 276.2468047644943,3074.0884093134664 277.2205240888288,3074.1230212794617 311.5803207111312,3081.7163948228117 312.27529358223546,3081.9348470668774 317.6308955021668,3089.607057385263 317.8085708799772,3090.399479058222 344.2018113421509,3087.7102678333176 344.79134407115635,3083.0985735605354 338.24677347554825,3085.1900293944054 334.00324465776794,3077.6111601950834 340.5961662577465,3077.5774477779632 340.6698578489013,3075.5205310250167 336.1321452088887,3067.6666712559527 333.9315919644432,3065.102598387166 334.64054584887344,3054.000859541993 334.58083527116105,3053.3337303334847 323.23466040892527,3049.218073616619 321.0818756266963,3046.9248707796214 312.3725781333633,3015.6493201061967 312.139561244403,3014.5041196835227 310.5445606400026,3004.5635105100228 310.5069866667036,3004.3386860161554 316.65164202672895,2992.0314411820145 317.31894414220005,2991.914975460153 309.3815150933806,2987.67270306102 308.7570298310602,2987.4595530114602 326.9827370666899,2976.3682693012524 326.5670931910863,2975.1108859322267 294.88553443551064,2949.6958937832387 294.4372681955574,2948.9506378676742 293.2302407111274,2929.6949904012145 295.7599303111201,2927.4949954201 287.03985578671563,2906.7030293450225 287.63667029328644,2905.601344642462 267.6120726754889,2892.861166266259 266.8483598222956,2892.322661467828 253.4525101510808,2895.393065813987 251.88721919991076,2894.8032815944753 253.1061888000695,2884.6012477905024 246.44132323551457,2881.9832924817456 248.8373193955049,2874.430682685226 245.66159047116525,2873.331085197162 246.8258011022117,2870.542024085764 254.58817621332128,2871.3757316701813 261.0858521600021,2868.449867491843 261.2314877156168,2860.502639728191 261.7924758755835,2857.56808118918 276.3070978844771,2850.4060993994353 279.319423715584,2850.943807366304 270.09515889780596,2836.8216731763678 270.02467128890567,2836.4513283792767 277.06061624886934,2832.3770442610257 277.7375303111039,2832.3702942243544 270.8495510754874,2817.077326954168 271.66336255997885,2814.89825205144 265.5708447288489,2811.044089594856 260.60962389339693,2810.2155528164585 265.57259235554375,2797.797026449931 267.01030655996874,2795.320707941428 264.76023722661193,2790.582229046093 264.37430300435517,2789.708605809661 269.7689352532616,2784.5937215962913 270.11438279110007,2779.4044495063135 262.7568745245226,2772.8750370753696 263.4838872178225,2771.387369677541 246.27500743116252,2785.452962081821 245.47808967111632,2785.705917517189 221.67890972446185,2769.6939822591376 220.2359526399523,2769.660672540078 184.6236902399687,2784.609025018406 183.34442751994357,2786.02368674241 183.77288732444867,2772.9304024141748 183.68637980450876,2772.5000828264165 172.97488469339442,2754.3763782702154 172.6544864710886,2753.595794572262 173.2131444622064,2744.3789343483513 173.79656049772166,2742.977959221229 169.50759338669013,2746.2638439964503 165.725729280035,2745.770896897884 164.42724266671576,2740.76618299837 163.48556316446047,2740.03957384167 157.44780430221,2745.353579171351 156.71350983111188,2746.235032507102 129.18605966225732,2744.812460502959 127.73028664884623,2745.2756977814715 98.06519779551309,2759.1268948125653 97.09147847117856,2757.989355134312 92.30443776003085,2767.598160870606 91.8631620266242,2770.550580456038 86.50726883555762,2767.359588864725 83.25522687996272,2767.1381217888556 87.30302151106298,2758.6722397739068 89.53357567999046,2758.8396969871246 85.52597646228969,2755.109242092003 83.96010296884924,2754.162550832785 86.26813525334,2745.695266559953 85.80355783109553,2744.65309584816 68.29292117338628,2742.2459551542997 67.48726527998224,2741.379792198073 71.02708309330046,2732.087682896352 71.51554474665318,2731.754078031692 68.44816867553163,2724.3885293347994 67.32211456005462,2723.2116393562173 67.37163064884953,2725.0679170341464 67.77941020450089,2728.675975147402 58.13047210662626,2728.172183233779 56.488576853415,2728.6327544388478 53.09060807118658,2735.645652945037 49.52748856879771,2736.393436080427 55.43708814214915,2739.94638401689 55.52272184891626,2740.333999403985 51.115207395516336,2745.586322812771 51.36861326219514,2746.5001881020144 23.95038975996431,2751.9283792400965 23.160171235562302,2751.9932033995865 28.291785671026446,2763.8615532391705 28.303145244484767,2763.9542827390833 22.492869119974785,2768.6505754077807 22.425876764464192,2768.948563549202 42.733881173306145,2792.0049537067534 37.537022008909844,2792.1354784418945 67.5233828977216,2810.5013331024675 68.31564031995367,2811.541390174767 55.45805966213811,2806.4436681336374 55.0249395200517,2806.4616703626234 43.75216497783549,2818.97241143015 43.84770190215204,2820.839577882318 35.628031146596186,2820.858028953604 34.48799601779319,2820.150586764852 25.744037262164056,2839.5364659094485 25.711414897814393,2839.605314019369 13.592789048911072,2850.463244994986 11.368060302222148,2849.9394848048105 15.415854933322407,2865.6526453912375 16.266075306688435,2867.2481057079276 5,2888.6637629702454" stroke="red" stroke-width="3.8896211190789893" fill="none" stroke-linejoin="round" vector-effect="non-scaling-stroke"></polygon><polygon points="479.6516161422478,207.85051576868864 484.90294300438836,213.50853226415347 486.15803022217005,214.21583088720217 505.7576632888522,214.1698314975947 506.90993180440273,214.72273440670688 511.72784725332167,218.05515152669977 513.7329575822223,219.4073231377406 508.73183260450605,223.3895539571531 508.1792913066456,224.0576543736388 512.4880648533581,228.74249708186835 513.187115520006,229.0180193388369 522.771973973373,227.74697077274323 524.5565920710796,227.5424911075388 530.3071576177608,219.1135715165874 530.728626915603,218.48963264608756 535.6164474311518,231.07600014552008 535.5876115910942,232.1111311588902 564.1566472533159,235.53071718342835 566.2019529954996,233.96551982418168 574.5806577777257,246.60517937422264 575.342623004457,247.1602765347925 585.6282797511667,237.68563439243007 586.5527742578415,236.3772943522199 577.3008386844303,226.35614091996104 577.2219042133074,225.6675538836862 589.839768746635,220.60327524662716 590.1185151999816,219.68604523863178 583.3152958577266,208.0504594591912 582.4758525155485,206.212701293407 585.4645853866823,184.64896531618433 585.3084640711313,183.99668620113516 569.3304960000096,172.93360632291296 569.0587400533259,172.69308842142345 571.9085366044892,169.01422457653098 572.267673884402,168.71767154347617 556.2034895644756,147.4057904521469 555.6725023288745,146.62446993635967 551.645387946628,166.54931447329 551.9890878577717,167.30140884360299 532.5930532978382,167.97287066455465 530.8489218844334,167.83210984431207 515.5848593065748,176.97681811871007 514.5068649244495,177.17542369756848 505.6487278933637,173.58728525816696 503.69925034663174,172.21615156705957 485.456358115538,185.1773464026628 484.22020351991523,186.10428770107683 479.6516161422478,207.85051576868864" stroke="red" stroke-width="3.917711041402568" fill="none" stroke-linejoin="round" vector-effect="non-scaling-stroke"></polygon><polygon points="566.0851532799425,158.84372747514863 566.0851532799425,158.84372747514863" stroke="red" stroke-width="3.0494180945525455" fill="none" stroke-linejoin="round" vector-effect="non-scaling-stroke"></polygon><polygon points="565.3910542222438,158.67107181600295 565.3910542222438,158.67107181600295" stroke="red" stroke-width="3.992974173500068" fill="none" stroke-linejoin="round" vector-effect="non-scaling-stroke"></polygon></svg>