<svg viewBox="0 0 207.87421303109954 253.71491680382974" width="1000" xmlns="http://www.w3.org/2000/svg">
  <title>Nasavrky, okres Chrudim, Pardubický kraj, Severovýchod, 53825, Česko</title>
  <desc>Geojson of Nasavrky, okres Chrudim, Pardubický kraj, Severovýchod, 53825, Česko</desc>
  <metadata>
    <collboard>
      <support-module name="@collboard/map-svg-geojson" version="0.11.0"></support-module>
    </collboard>
  </metadata>
  <polygon points="8.052549999999883,147.30115424821963 15.120534782159211,157.075951116312 15.192770017754356,157.11840411500418 12.262291368889692,178.1429150158434 9.794933786709862,181.21547177687864 24.032265697816456,195.94228103754688 24.955303848931635,198.88499509529322 51.949727884471486,204.52015701655876 52.59460212439399,204.63710314778257 75.4969583200068,186.17735194453383 75.69706157336577,185.9836293968616 86.51545318213857,196.5139391962217 70.8817675644309,204.32599920870382 70.04232422225277,204.26233347130585 67.96235721777293,219.92490012638848 67.83914953782323,220.58995528377238 93.82664934229206,230.1005191379005 98.0678479911071,232.05043832478225 103.87754157334666,244.89310395110044 104.5014442932802,245.66236680382974 115.29420404448274,237.6120594009186 115.48993823104638,237.21251589162387 117.10736671111181,204.7666920309199 117.0729967200673,204.61046291501373 94.47764027547191,202.62462759225275 93.42090868447076,201.86875919844135 92.79962740440487,182.20848903546687 92.43320834669385,179.33960966408597 75.18180297778554,175.76711801949534 73.4781582489154,175.58422438320815 75.7771611287967,163.48851853280905 75.88230999999314,162.46877077330248 107.15201140449017,162.06186389431934 107.73193218673214,162.49722261328827 124.56332461335796,141.64419093935396 125.3357756000255,140.51684564838763 119.96473631109211,136.93197540750373 119.89512251548103,136.2034315230336 139.9307884356017,121.04392783353217 140.754503137759,120.2629332962457 168.834494604474,118.53470757630532 169.46684418663017,117.76996558797657 182.17558530657652,129.77470551225235 183.23697723562464,130.17489731123317 198.16782566215943,115.42467989316322 199.82166303109943,115.2385737091314 191.98880031108956,102.60059890113882 191.2859631200331,100.75206944513013 192.45745552887774,84.68474388737343 192.97853954669654,83.56297759569827 154.70668063112635,57.318416756439206 154.43900247998636,57.58454687157757 144.59928180449742,27.182617737889473 143.2643863023036,25.071799122240577 112.23906135999232,32.914397302236125 108.12631327109511,34.246097166301865 110.05714946668695,43.7200463653204 109.47751995558019,44.41320193271497 89.4217563288762,8.166437861836698 89.34864727999184,8.052549999999997 72.29501499547723,28.028566289670948 71.7200458221846,30.208947415325042 77.07215248884268,56.43282014909312 76.21901940435737,60.422494866630245 62.81093634662784,54.7348141568724 61.98751291548933,54.837833523786344 42.244865733292954,65.38215077770985 41.89301023117832,65.73095352992061 43.38781357333164,78.80568476519659 43.165282444424065,79.57011145828403 20.57546015116486,102.28573563000066 19.75873595555413,102.85176640735119 8.052549999999883,147.30115424821963" stroke="#009edd" stroke-width="4.86737480843101px" fill="none" stroke-linejoin="round" vector-effect="non-scaling-stroke"></polygon>
</svg>