<svg viewBox="0 0 559.3691216178261 479.70330297086844" width="1000" xmlns="http://www.w3.org/2000/svg"><polygon points="8.052550000000338,165.6250637264235 14.914606106678548,194.85007563720103 15.274034657843004,196.65566345080845 46.27081503111549,197.48273127279356 47.635128915637324,198.0213377910328 98.73835408894956,233.85935314812343 98.95389471119415,234.00445993481082 51.33893236445874,229.12575474251173 49.0349778756281,228.88600769520383 90.24954882669408,248.54078794932104 91.04763167116471,248.76699510435685 56.563462284488196,299.2057992675469 56.07703952896554,300.1270856468251 51.1324211467072,345.497779133009 51.71321574223839,346.4922874953842 72.95707423109707,360.8355860585358 74.09943952886533,361.57556053801784 122.90861343124561,323.04221642742743 123.04114178670716,322.66923634589295 161.45572354665637,319.8579010445752 161.80233616891928,319.26869175871946 198.9501798667261,340.92514446596726 200.30167782222998,341.72374091865606 193.45272891558852,354.4806200266827 193.08077570665773,354.94452528059594 200.53585979561467,389.114072761418 200.57605520889774,390.0259742168488 182.6305507822908,424.81138930386044 181.46575760885753,427.0081440873688 190.00524404444877,435.0723278454749 190.51118196451716,435.36362522104866 187.33428795563668,461.45455355747947 187.43069869335886,461.8804175720212 212.5580749066794,469.560683334748 213.74005307557672,469.8883974895358 321.96824237341207,452.2402019580255 329.37293656005204,451.89580422003166 361.80539224003587,466.0795904659677 369.8409796533888,471.65075297086844 443.39246936012205,387.501011102671 443.6333505689181,387.24342449950166 395.0411736445749,332.6444327796704 394.3837747466532,331.77463357061026 436.9807183911107,291.6677739626972 437.214317822225,290.35269261452015 438.5104742666954,298.31784671862954 438.6893147289302,298.74988496411936 458.955084826659,294.6898631138971 459.2070343378946,294.6916651819844 475.9606573778219,265.6814004200638 476.18260596445907,265.2884971110394 501.9682548889905,287.871181506525 502.9976069956101,289.1038310656801 527.1518464267501,328.5841390258644 527.41748568006,329.029630893761 549.6997256800314,298.8877405749878 551.3165716178264,297.97636020239554 541.2112116890276,286.520935695538 541.0463522400023,286.2839547568361 544.3094624978039,255.06239957790933 543.8215833867216,251.88430414137076 526.9645591022927,229.25148664156552 524.3387500355966,225.88058491293452 513.9858096622411,215.78334176573082 512.112062604494,215.34888620823733 480.63410235555057,235.31221923939995 480.5222542489428,235.29599622221542 481.62413286229275,221.43388948354516 481.4886917955955,221.18512063517812 433.27924511113815,172.48226681809285 433.04389805332903,172.4096930229931 434.233740542295,157.16054797670915 433.6643055201057,156.3905794944509 393.7785133778598,141.40946459558438 391.640583422246,140.80038849768573 392.1704055734226,111.84409819191899 392.32099273787026,110.30248661360349 366.60990921778284,87.6879281397338 363.6759353155285,85.41245441020112 344.8638993333807,29.137223966222905 344.27087135110196,26.773182124692198 354.05932831121754,16.29323593938136 354.11204838226695,16.20617535702297 339.01750559113134,9.631422365644198 336.4091727911509,8.052549999999997 304.3463401511326,21.994049780514274 303.4853427466951,22.72434585731355 249.38289894231275,98.28935735577363 248.47762832893204,99.56861883743079 277.5665829244317,109.46381649221405 278.22747707562667,109.52153152842186 299.1311309067314,151.89243074283115 300.3856355822427,152.47803382020322 283.98299423114076,199.19725318658277 283.64337211565726,199.7930959828442 292.5213155823076,224.9752095412474 291.8318768623067,225.44344545526076 212.61108624898043,237.288263864211 211.59396752899193,237.3639705780439 127.1364136090051,203.74986562031665 126.59727078231663,203.95087968602422 168.48147401781898,137.0633922336052 169.36227785782103,135.0314385161979 117.71058918230847,131.92373458887562 117.18571863996476,131.69244715406205 103.22247284450714,102.65558980950266 102.5580834400389,102.0409947696968 80.9967394401101,108.24097558190226 80.41681865786813,108.3992418815393 72.6704634579146,138.72248399371858 72.11879597334337,138.84105447176955 29.191550888914207,112.64443334702048 28.76979032005329,112.605205720443 8.052550000000338,165.6250637264235" stroke="#009edd" stroke-width="6.312610487208144px" fill="none" stroke-linejoin="round" vector-effect="non-scaling-stroke"></polygon></svg>