<svg viewBox="0 0 151.9211054044565 132.0046507427171" width="151.9211054044565" height="132.0046507427171" xmlns="http://www.w3.org/2000/svg">
  <title>Fulnek, okres Nový Jičín, Moravskoslezský kraj, Moravskoslezsko, 74245, Česko</title>
  <desc>Geojson of Fulnek, okres Nový Jičín, Moravskoslezský kraj, Moravskoslezsko, 74245, Česko</desc>
  <metadata>
    <collboard>
      <support-module name="@collboard/map-svg-geojson-import" version="0.11.0"></support-module>
    </collboard>
  </metadata>
  <polygon points="8.052549999999883,47.44567843160587 9.768064026669435,54.751931409300255 9.85792116446055,55.20332836270211 17.60711625777867,55.41009531819839 17.94819472890913,55.5447469477582 30.72400102223719,64.50425078703086 30.777886177798337,64.5405274837027 18.874145591114484,63.32085118562793 18.298156968906824,63.260914423800955 28.60179970667332,68.17460948733026 28.801320417790976,68.23116127608921 20.180278071121847,80.84086231688673 20.058672382241184,81.07118391170627 18.8225177866766,92.41385728325224 18.967716435559396,92.66248437384604 24.278681057774065,96.24830901463395 24.56427238221613,96.43330263450446 36.7665658578112,86.79996660685686 36.79969794667659,86.70672158647324 46.40334338666389,86.0038877611438 46.48999654222962,85.85658543967986 55.776957466681324,91.27069861649181 56.11483195555729,91.47034772966401 54.40259472889693,94.65956750667067 54.30960642666423,94.77554382014898 56.173377448903466,103.3179306903545 56.183426302224234,103.5459060542122 51.6970501955725,112.2422598259651 51.40585190221418,112.7914485218422 53.54072351111199,114.80749446136872 53.66720799112909,114.88031880526216 52.87298448890897,121.40305088936987 52.897087173339514,121.5095168930053 59.17893122666965,123.42958333368699 59.47442576889398,123.51151187238395 86.53147309335282,119.09946298950638 88.38264664001281,119.01336355500791 96.49076056000877,122.55931011649193 98.499657413347,123.9521007427171 116.88752984003031,102.91466527566774 116.94775014222932,102.85026862487541 104.79970591114352,89.2005206949176 104.6353561866631,88.98307089265256 115.28459209777748,78.9563559906743 115.34299195555604,78.62758565363004 115.66703106667364,80.61887417965738 115.71174118223234,80.72688374102984 120.77818370666455,79.71187827847427 120.84117108447344,79.71232879549609 125.02957684445528,72.45976260501595 125.08506399111457,72.36153677775985 131.53147622224742,78.00720787663124 131.78881424890233,78.31537026642002 137.82737410668733,88.18544725646609 137.8937839200148,88.29682022344025 143.46434392000765,80.76134764374694 143.8685554044564,80.53350255059888 141.3422154222567,77.6696464238845 141.30100056000038,77.61040118920903 142.11677812445078,69.80501239447733 141.9948083466802,69.01048853534269 137.78055227557297,63.35228416039138 137.12410000889895,62.50955872823363 134.53586491556007,59.985247941432704 134.0674281511233,59.87663405205933 126.19793808888744,64.86746730984999 126.16997606223549,64.86341155555385 126.44544571557299,61.39788487088629 126.41158544889868,61.33569265879453 114.35922377778434,49.15997920452321 114.30038701333206,49.141835755748275 114.59784763557354,45.329549494177286 114.45548888002622,45.13705737361272 104.48404084446474,41.39177864889609 103.9495583555613,41.23950962442143 104.08201389335545,34.000437047979744 104.11966068446736,33.61503415340087 97.69188980444551,27.961394534933447 96.95839632888192,27.392526102550278 92.25538733334497,13.323718491555724 92.10713033777529,12.732708031173047 94.55424457780418,10.112721484845338 94.56742459556654,10.09095633925574 90.79378889778263,8.447268091411047 90.14170569778753,8.052549999999997 82.12599753778295,11.537924945128566 81.91074818667357,11.720498964328385 68.38513723557799,30.611751838943405 68.15881958223281,30.931567209357695 75.43105823110773,33.40536662305351 75.59628176890647,33.41979538210546 80.82219522668265,44.012520185707785 81.13582139556047,44.1589209550508 77.03516105778499,55.83872579664569 76.95025552891411,55.987686495711046 79.1697413955767,62.28321488531185 78.99738171557647,62.40027386381519 59.192184062244905,65.36147846605274 58.93790438224778,65.38040514451097 37.823515902251074,56.97687890507916 37.688730195578955,57.02713242150605 48.159781004454544,40.3052605584013 48.379981964455055,39.797272129049475 35.467059795576915,39.0203461472189 35.33584215999099,38.96252428851551 31.845030711126583,31.703309952375662 31.678933360009523,31.549661192424196 26.288597360027325,33.09965639547556 26.143617164466832,33.13922297038482 24.207028364478447,40.72003349842964 24.06911149333564,40.749676117942386 13.33730022222835,34.20052083675512 13.23186008001312,34.190713930110746 8.052549999999883,47.44567843160587" stroke="#009edd" stroke-width="6.0702757339752935px" fill="none" stroke-linejoin="round" vector-effect="non-scaling-stroke"></polygon>
</svg>