<svg width="365.4363892622059" height="365.731301083928" xmlns="http://www.w3.org/2000/svg"><polygon points="5,331.82514864974655 5.993234488880262,332.32993026683107 6.957050595548935,332.496227006719 8.907693226705305,332.79075770580675 10.907851946656592,333.0490381450509 13.734055537730455,333.3530836731661 13.740172231104225,333.4976297590183 13.766677902196534,334.00150125846267 13.805999502306804,334.4197318427032 14.094066631048918,337.26530973566696 14.61165539547801,343.152547405276 14.851080248947255,345.8543796406593 15.27342335996218,350.95029836532194 20.654074595542625,350.10846280440455 22.547045546700247,349.7745368180331 23.564746808842756,349.5679283532081 24.486619875533506,349.3527109938441 25.283828906714916,351.18091905739857 28.438877582200803,349.3119329439942 28.45518876449205,349.4016446437454 29.173463324434124,352.63305356376804 28.38965276442468,352.77849302324466 28.994040320045315,356.71755473094527 29.592893724446185,360.731301083928 30.830504675628617,360.13551882246975 32.140642133308575,359.5116447005421 34.802277546725236,358.463242189202 36.07105450669769,358.12298601143993 36.18960184894968,358.1057693065377 36.79631957330275,358.02920026052743 40.92450503108557,357.7038947825786 44.89627790229861,356.95179390732665 47.388393528875895,356.62648682075087 48.38687089784071,357.0351594334934 49.44651519996114,357.5009184166556 49.90002431999892,357.81036668474553 52.15417144889943,354.82233758829534 52.277670399984345,354.67010331805795 52.915845404495485,353.85546693380456 52.96798293327447,354.0770229594782 53.11187086231075,354.34705821977695 53.355373511090875,354.57722223794553 55.08552391116973,355.88027221208904 56.44838144001551,354.80240215419326 58.40135424002074,353.4930026024813 60.5981209599413,352.0698711896548 61.88262655993458,351.05269579507876 62.47303310222924,350.8234342263313 64.90951594663784,350.45869941508863 68.34971903997939,349.77000593277626 73.92843463108875,349.2566560196574 74.1952389688231,346.8258167495369 74.84156956442166,343.21416930877604 75.59596174221952,343.32336690369993 75.84761998220347,338.7646605882328 75.79198719991837,336.3074234928936 72.12575772439595,334.2860612665536 75.58489344001282,327.5992559447186 79.54909326229244,320.12104656209704 83.59980060451198,312.251498065365 85.73656547558494,308.2046830150648 86.92902940441854,305.86311526969075 83.13959224894643,302.6128850754467 83.76990293338895,301.7368735768832 84.25079153780825,301.163589442207 84.67109575110953,300.6623611287214 85.79569351114333,299.38028092694003 87.75944334222004,297.31280307326233 89.72756223997567,295.2734041157528 92.44308280898258,292.7214093253715 95.84367303107865,289.75333515612874 96.95516359107569,288.76442132802913 98.01568170671817,290.40868071001023 98.5536594488658,291.3092111146543 98.9818279822357,292.09598249249393 99.41261795558967,292.98064368916675 99.80525141325779,293.8390154117951 100.46032014221419,295.3468228095444 100.70236643555108,295.86483177903574 101.02422101341654,295.7506251829909 102.01133880880661,295.43383752566297 103.48983096890152,294.9829015106661 104.92725390230771,294.60221108281985 105.1279396978207,295.0640247420524 105.97379100439139,294.8995122357737 107.37334869336337,294.5215408829972 109.67672064004,293.79414812475443 110.20712533337064,293.59201861545444 111.02064554661047,293.21631102485117 111.64483953779563,292.8619035119191 111.91513912891969,292.7322862978908 112.40156188444234,292.5319686337025 113.17313905782066,292.27228052774444 113.38372807111591,292.82020847243257 113.7111167999683,294.0746818189509 113.91617166227661,294.934862041031 114.057438151096,295.6572657781653 114.13404245337006,295.9745063110022 118.33795840002131,294.69194531504763 118.62369536003098,296.2958251797245 119.89334613329265,295.8349205335253 121.8506879999768,294.97655667562503 125.3109888000181,293.0613144596573 127.49872611556202,291.98630600771867 128.3206931911409,291.67631101666484 130.4443508621771,291.05903897515964 130.98611512884963,290.8020683804061 131.27767751109786,290.6099067500327 132.19022990227677,289.8602934863302 132.61723335110582,289.52174299862236 132.31722410663497,289.9708774673636 131.5989495466929,291.5226729848655 130.73270926228724,293.21132575685624 129.84345855994616,294.89180779026356 129.39985265780706,295.85304856160656 129.92122794664465,296.04837796872016 130.11754467559513,296.07330398255726 130.92989980441052,295.97224030888174 131.61351310217287,295.80319648061413 131.98546631110366,295.6898962543346 132.7354894222226,295.4134434546577 132.9402530133957,295.73113754356746 133.5737676799763,296.8165510846302 134.35379171557724,298.07009502482833 134.74875534221064,298.6669534330722 135.37440568895545,299.54796240024734 136.00296874670312,300.3600827365299 136.52492657781113,300.9646391014103 136.5791030045366,301.01992828038055 137.37194296892267,301.8370281996904 138.6252825600095,303.088730507181 139.79910513781942,304.1310549636837 140.65369457786437,304.8230650109472 141.2659464533208,305.2884824507637 141.4343011555029,305.0220118279685 141.8170313956216,304.49813325860305 142.17995519994292,304.0290886607254 142.56821959104855,303.55505802179687 143.18658815999515,302.84446331544314 143.72718734224327,302.2693693463225 144.60507847112603,301.36571192590054 146.354452764499,299.6318030884722 147.08292181335855,298.9221019727411 147.56002389325295,298.40047471027356 146.3361026844941,297.2017696214607 146.71067733329255,296.71866014791885 146.90524643554818,296.4793710062513 148.01877589325886,295.0304877673043 148.61442531552166,294.1616970432806 148.66889301338233,294.0243761264719 148.5564623645041,293.88932114711497 148.3694663111819,293.7148372409865 148.60335701331496,293.359524127387 149.72445952007547,291.8856936467346 150.4267141688615,291.01235827233177 151.22596209775656,290.0674117983435 151.6520917332964,290.46351935644634 152.8474683733657,291.6835623665247 154.4308181334054,293.33595742081525 155.2495812267298,294.16260345163755 155.79891854221933,294.66067429893883 156.08931584004313,294.23964815214276 156.29903103993274,293.87436538923066 156.82768810668495,293.26435087353457 157.2066318221623,292.91583512705984 158.01753059553448,293.73659108619904 159.0430961777456,294.5790977140423 159.67719338671304,295.0803400251316 162.16202723560855,296.89359484653687 163.70867683552206,297.9509044254082 166.5185692444211,299.9028122277232 167.3312156444881,300.4439231122378 168.74096782226115,301.26646346517373 171.04259214224294,302.69536502473056 171.34114503115416,303.06471166742267 171.74047772446647,303.07966679439414 172.53768675553147,301.8433728348464 174.18278599111363,299.33360200730385 174.35201450670138,298.9492936289171 172.29476664890535,295.74337396846386 171.60503665776923,296.60490719863446 161.9447389866691,288.7104886849411 161.63832177768927,288.82333932624897 160.64013567997608,287.7428713486297 158.53511935996357,285.708368231426 159.19310080003925,284.8105340136681 159.52427605330013,284.2884197330568 159.9177833244903,283.6371348006651 160.35323363554198,282.9758769166656 161.0951011555735,281.9148688109126 162.01639167999383,280.68978553067427 162.87505891546607,279.5852557787439 163.51294264895841,278.832431921619 165.64562972437125,280.77589963783976 167.23538744880352,282.7945858507883 169.0931145956274,284.5023417077027 170.20431388448924,285.4124142010114 172.39030357333831,287.16048600850627 174.28473088005558,288.57316433172673 175.39068728894927,289.3622116627521 177.00199907564092,290.5609598925221 177.67774805333465,289.52718156488845 179.1740077510476,287.27650998259196 180.76230912003666,284.98955728532746 182.70974776893854,282.09797352622263 185.53886407113168,278.18294362543384 185.59799210669007,278.22509470419027 185.6402264178032,278.16617383924313 187.38115384895355,279.3296313532046 188.23195676447358,279.955094842182 189.79666517337319,281.14437698584516 190.62212750222534,280.4006231741514 191.2693319111131,279.76518981321715 192.64587918214966,278.164814126736 193.0827858488774,277.7034178765607 194.9268232532777,275.56820108828833 196.4178400710225,276.5100377770723 197.32777102221735,277.03307718224823 197.52408775116783,278.643432386918 197.69185991107952,280.4382414961583 197.8776908799773,280.5361397494562 198.72208583110478,280.53704621456563 198.12206734227948,282.0136728596408 199.13015665777493,282.6024171561585 199.46511843556073,282.45103886700235 199.65706609771587,282.53624582116026 199.84988757339306,282.7787228753441 199.95998805342242,283.0470336188446 201.14604401774704,282.8349231259199 201.5721736534033,282.98086241888814 202.24879644438624,283.4848507777788 203.50009713775944,284.0409588816692 204.20089543110225,284.1800989920739 204.63226794661023,284.48330628627446 204.96548209770117,284.3618421293795 205.3007351467386,283.84516548132524 205.48540103109553,283.7536138772848 205.87686940445565,283.87235901970416 206.58494947559666,283.7744622657774 207.13982094230596,283.97796056140214 207.75032519106753,284.0047008577967 208.00314851559233,284.0636201434536 208.32121656893287,284.2870600587921 208.5166594844777,284.5517431508051 208.67394588445313,284.57938982511405 209.23376895999536,284.54086576984264 209.63310165330768,284.44795478490414 210.3679786666762,284.1180071621784 210.51186659559608,284.0146718149772 210.62575360003393,283.7635848459322 211.0865444977535,282.9717978693079 211.6373381689191,282.5280877100304 211.8988996266853,282.25479080853984 212.1188093154924,281.9882920073578 212.22745343996212,281.97514835064067 212.41794474667404,282.0957073797472 212.62795121769886,282.14828197308816 213.0718483910896,281.7077427470358 213.43418965337332,281.587183503143 213.56992199108936,280.93317110370845 213.78167608892545,280.85294907336356 214.19149454229046,280.9195741515141 214.55150563560892,280.7781657981104 214.9691884088097,280.7038357293932 215.23424512008205,280.1137266008882 215.20511800888926,279.6351115714642 215.36444330669474,279.411213649204 215.51503047114238,278.65838919056114 215.55988622223958,278.28582850209204 215.66794780443888,278.0102600889513 215.97611263999715,277.49900724116014 216.23155740450602,276.59887298115063 216.50535224890336,276.0549834080157 216.2088382577058,275.5088262616191 215.8511573333526,275.48253816529177 215.2514301155461,275.29126950656064 215.12938752002083,275.02430894144345 215.0982215111144,274.629079796141 215.18210759107023,274.34761456621345 215.57241088000592,273.9523841929622 215.84329301328398,273.92292318458203 215.947276800056,273.86218817019835 216.21378986665513,272.9171672932571 216.34369678224903,272.6592687974917 217.03284423111472,272.28307185007725 217.20877198223025,271.954465551069 217.22857841779478,271.5542450718931 217.21721884445287,271.0860360353836 217.05876736005303,270.7388445608085 217.05177685339004,270.3794146835571 217.29353187559173,270.0875191135565 217.77092522673775,269.94565047323704 218.18773418664932,269.8731297268532 218.9913511822233,269.70859819388716 219.35573134222068,269.21092354436405 219.46262783999555,269.1316037091892 219.94293390214443,268.4916048964951 220.37925802660175,268.3882621356752 220.7981058844598,268.3896219091257 221.46832071105018,267.78860120056197 222.0989226666279,267.60412467760034 222.97506616893224,267.54520093958126 223.38430208002683,267.8021989724366 223.73033216001932,268.18610904947855 223.83926755562425,268.881406096858 224.0801487644203,269.4855965790339 224.28170837333892,269.81103381852154 224.7127896178281,270.21533678716514 224.84590051556006,270.2833248807583 224.97901141329203,270.30553432006855 225.17212415998802,270.21533678716514 225.31892480002716,270.7043973347172 225.27319523552433,270.82994838251034 226.41672561783344,271.5397410316509 227.56054727104492,272.03967661142815 228.44018602662254,272.31162658089306 229.61983402667101,272.59672043443425 229.3367185066454,273.6106362508144 229.1835099022137,274.2605914263404 228.87330616894178,275.14305884274654 228.60533674666658,275.72502307168907 228.1442545778118,276.48239007854136 227.89143125340343,276.9437889151741 227.53957575105596,277.6712379445089 227.42743637331296,278.06555509450845 227.36015274666715,278.51244700164534 226.9750923376996,278.7241084673442 226.24982727109455,279.69675144483335 224.8922126222169,281.64565021242015 223.74169173336122,283.20702280686237 223.35808767995331,283.17801627726294 222.74001038225833,284.086734628072 221.11326122668106,286.29438321845373 220.28896398213692,287.3784841275192 219.2520388267003,288.68329575052485 217.96840703999624,290.34296495851595 216.98973610659596,291.490495094331 216.73982549330685,291.76287398987915 215.96184035553597,292.84377523482544 215.6009554489283,293.41164279635996 215.38075448898599,293.7882564601023 215.24939121771604,294.0941696065711 215.97261738672387,294.516555644921 216.01426915556658,294.7463296802016 215.9927150933072,294.9797290931456 215.672608142253,295.6912558573531 214.67267441784497,297.6785332672298 215.9440728178015,298.36149990384 216.0043659377843,298.4793306927895 215.9967928888509,298.62118075048784 215.95484984887298,298.7965671158163 215.58435299561825,299.6889053766499 215.910285368911,299.8375525326701 216.12058311107103,299.8996398819145 216.5478778311517,299.98891873972025 216.90788892447017,300.0346911349916 219.5133090133313,300.1996529547032 219.73584014223889,300.18651039677206 220.0343930311501,300.13756569102407 220.56625407992397,298.15665545722004 220.7721827555215,297.55435728508746 221.3384137955727,296.07330398255726 221.44123249780387,295.831748128403 221.9194996622391,294.848753531056 222.19737230218016,294.35385554039385 222.4892259555636,293.92920316319214 224.02480725338683,292.0900907818577 224.4558884977596,291.4868694160832 224.60967964446172,291.3771926247282 224.78968519112095,291.36359632434323 226.89703167998232,291.8458112565568 227.44869916443713,291.92013752332423 228.46581788442563,291.8276828948874 228.9854455466848,291.87028454226675 229.01748536888044,293.42206652869936 228.98661063110922,295.3463696077233 228.93913344002794,297.1102236309089 229.21147192886565,297.2747344675008 229.41943950217683,297.41885129682487 232.9720732443966,299.6567286923528 236.50926961784717,301.85651529289316 239.08381496893708,303.49931630142964 240.1571490133647,302.18915517325513 242.40838343114592,299.41789597144816 243.15345493331552,298.3687510310556 244.452815359924,296.61261158355046 245.20371228444856,295.6395909349667 246.89075456000865,293.59337823162787 248.10652017779648,294.3932842676877 249.3589859555941,295.107078958652 250.83718684443738,295.8516889595776 251.16632319998462,295.4066454306012 254.62429383117706,291.3518128634314 255.59247900440823,292.0574597665109 256.40862065774854,292.4988844768377 256.73338794661686,293.26435087353457 256.70280447998084,293.76333018473815 255.0917839644244,295.71663511305815 253.74203363549896,297.2797196424799 254.93245866673533,298.0533267694991 254.91935146658216,298.06828224047786 254.99071288888808,298.1285573102068 254.66594560001977,298.54141842911486 256.21143011550885,299.9164079950424 256.6413462755736,299.38934479362797 258.4923741866369,297.02502237737644 258.8844251022674,298.46800081199035 258.88180366216693,298.7584987694863 260.4677748621907,301.2786995792412 263.0458154666703,305.39996496168897 264.17944263108075,304.2280362028978 265.35268266673665,302.8807182034943 265.9591091199545,302.2100017973571 266.22736981336493,301.89820860273903 266.4341723022517,301.7069631376071 266.95379996451084,301.2773400110891 267.749261368881,300.63562287704553 268.6265699554933,300.00568684603786 268.80133262230083,299.88468453654787 268.844149475568,299.87607388274046 267.0688520532567,297.60058338887757 269.2880466489587,294.69103890890256 270.39604195556603,294.0570068472298 271.00800256000366,293.6364327389747 271.8623007289134,292.6919508554274 272.50076700444333,291.7560758518521 273.4092415999621,290.58271405281266 273.67837610666174,290.36064023157815 274.1013017600635,290.44493766792584 274.7651086222613,290.8795674806461 275.19910257775337,291.22582043346483 276.18884181336034,291.9958233908401 276.7393442132743,292.34388740122085 277.2668361956021,292.65841351554263 277.7084031999111,292.827912991168 278.10016284440644,292.8872830971377 278.62212067563087,292.81612960941857 279.98119167995173,292.44903162831906 280.6094634666806,292.38376970024547 281.6067757511046,292.35476439259946 283.283332266612,292.5074954222655 283.567612871062,292.5097614604747 283.62062421336304,292.9199139882112 283.8049988267012,294.05927286931546 283.9014095644234,294.4725949044805 284.088988160016,294.8659752358217 286.3084740266204,297.3454333014088 287.3515158755472,298.5400588439079 288.06920789333526,299.31275510799605 288.3619353600079,299.56609011942055 292.18923776003066,302.68494173616637 295.8106114844559,305.65329289401416 298.7798291911604,307.99214384227525 299.02041912882123,307.753320259857 300.0736554666655,306.26327271736227 301.476999680046,304.2225980036892 302.16439950221684,302.8553397824289 302.3263462400064,302.4646930001909 302.5500424533384,301.67161443125224 302.9187916800147,299.8506951117888 303.16695466672536,298.1154146271874 303.5365777066909,296.1272348028142 303.9015404089587,294.3928310639458 306.16966855106875,295.3658572816057 307.33154901338276,295.79730487038614 308.0268131555058,295.89746222412214 308.6029474133393,295.8861322089797 310.53145343996584,295.5960836223094 311.2634177422151,295.46828084113076 311.39274211553857,295.195906578796 313.9597144178115,291.4184347304399 314.4120584533084,290.70236189535353 314.7473115022294,290.1208908929257 313.84000199113507,289.89745696168393 311.3901206755545,289.0576515152352 310.603688675561,288.8908683969639 310.02085518219974,288.3660445988644 309.76832312892657,287.27515032701194 309.78929464891553,286.9044172533322 309.9031816533534,286.4244574836339 310.471160319983,285.4500316575868 313.37367694231216,285.1916947772261 313.46979640889913,285.3666387331905 315.6787965155672,288.3764685726492 315.7743334400002,288.45895391260274 317.17359985783696,285.40017719578464 317.4360351288924,284.94423495203955 317.96236202667933,284.1121152358246 318.1779026489239,283.0520191193791 319.30424803553615,280.7763528698706 320.7588559645228,277.2179989591823 321.2024618666619,276.2308411851991 321.53101568005513,275.1190369214164 322.0582163911313,274.32359255710617 322.6215347200632,273.0617534868652 323.0432952889241,272.06007287086686 323.16300771560054,271.4323204535758 324.2494489599485,269.2249744835426 324.48916508443654,268.7055423859274 324.9712187733967,267.5379487860482 325.71920298668556,266.14961020695046 326.5152469333261,265.4030856083846 327.2440072533209,264.66154437256046 328.01296298671514,263.2310334867798 327.6980989155127,262.0579712880426 329.28407011553645,260.7457477793796 329.78971676446963,260.10663087596186 330.83654513780493,258.48027387226466 331.31481230224017,259.3147578986827 331.47326378675643,260.0372797801392 331.65356060443446,260.6428546173265 331.8673535999842,262.00131240522023 331.79890488891397,263.97076652466785 332.1985288533615,268.36741227447055 331.8746353777824,271.509373194247 332.06600049778353,273.072178193077 332.3296008533798,274.2229720373871 332.5946575644193,275.0800579490606 333.0638953244779,276.19956751866266 333.3199226311408,276.7742770789191 334.3932566755684,278.1607349893311 334.5310279111145,278.687396322086 335.0558984533418,279.3028904827661 335.44591047102585,279.4497386117 336.77177656884305,279.9220087750582 337.44170012441464,280.0344107359415 337.975600071135,280.0452883420512 338.76785749336705,279.91249086440075 340.27285532443784,279.39580366236623 340.82044501334894,279.1193301824387 341.73299740441144,278.51879231631756 343.35392113775015,277.0788544014795 344.21025820448995,276.1673873644322 344.66143715556245,275.5115457196953 345.2416492088232,273.8939154186519 345.203783964389,272.83558256493416 344.78056703996845,272.41134148463607 344.7121183288982,272.35015279921936 343.2406166754663,271.23107669642195 342.7008913066238,270.71572865964845 341.30453760002274,269.657833618694 340.46305536001455,268.58361617295304 339.94226261333097,267.7070145512116 339.53477432893123,266.63188096135855 339.504482133314,265.7394072682364 339.56623160885647,264.53100384480786 339.88517347560264,263.5637323575793 340.42548138671555,262.5320922419196 341.43939612444956,261.8286160393618 343.53247032896616,261.4922883408144 344.52686990227085,262.91646487719845 347.8365835377481,264.3827858590521 349.5920745243784,265.09939848817885 350.9796900978545,265.25985412381124 351.04668245336507,264.5359897692106 353.45898979564663,264.34879089397145 355.27797788439784,263.0791884653736 356.7657907200046,261.2951148528373 357.0797809778014,260.1777950495598 357.7377624177607,259.01106228958815 358.57196287997067,257.7459615467815 359.49034069338813,256.7623417748837 359.91151871997863,256.0003733590129 360.22521770664025,255.53485059388913 360.38163029332645,253.99322428484447 360.31784191995393,253.2507376235444 360.4363892622059,253.20676855387865 360.1791968711186,252.0780749632977 359.88210033776704,251.35462009173352 359.5684013511054,250.49426774925087 359.3697544533061,250.21866417268757 358.5949732977897,249.55050536990166 358.3004982045386,249.35876064037438 357.64368184888735,249.03057305177208 357.26794211554807,248.88687750173267 356.4267511466751,248.7191570236464 355.9947960888967,248.7354757785797 355.8823654400185,248.47573545138584 355.34322261333,247.0433050461579 355.21739349339623,246.71103424218018 353.3727735467255,247.0859154536156 352.18526122672483,247.26814284699503 350.8771626666421,247.34112442203332 349.51896547561046,247.31891264091246 348.03959950222634,247.17793577339035 346.7017912889132,246.973949790583 345.14116067555733,246.62218684714753 343.2042077865917,246.0650765899336 341.73678392893635,245.54332272987813 339.12291697773617,244.32347455306444 336.44730055110995,243.0043445326155 334.267136284383,241.9875663528801 330.6827539911028,240.73007308627712 328.5107453155797,240.1398556464119 326.37776696891524,239.70693784375908 323.7947747556027,239.4363071154221 321.9256880355533,239.20012826524908 320.27272448001895,239.05869282357162 318.00080981338397,238.97754873055965 316.43231487995945,239.01517420762684 314.91654001781717,239.13530369917862 313.5324196977308,239.3003116475884 310.37067178671714,239.81800060824025 310.2425124978181,237.99021762458142 310.2500855466351,237.98795101908036 310.3697979733115,237.53236283775186 310.902532835491,236.09260725585045 311.69304263114464,235.22403473884333 312.4334537955001,234.95158513018396 313.2685280711157,234.79110716457944 314.80148792883847,234.99329124874203 315.886181546608,235.25259432860184 316.1882296889089,235.36003275203984 316.87475569779053,235.24080783163663 317.36758641782217,235.2494210410514 318.3590732800076,235.0912099306006 317.99702328885905,232.4505633970257 317.8604171377374,231.60010973154567 317.39642225776333,228.86603283055592 315.4533526755404,222.94669087603688 315.84307342232205,222.1415355099598 316.4553252977785,220.5643109381199 316.6099902577698,219.76957402180415 316.65601109329145,218.84063940367196 316.57037738664076,217.80244033923373 316.36765269341413,217.12239460123237 315.7140403200174,215.9513508633827 315.1262552177068,215.38146783504635 314.58041315560695,214.86734773765784 313.3532879644772,214.21404170047026 312.28694442659616,213.8336634450825 310.69835178670473,212.03785200580023 308.06613475549966,209.16751521569677 306.4699690666748,208.13199033489218 304.2312593066599,206.7895183939836 302.84247864887584,206.28807285113726 301.50117518217303,205.7471813823795 298.76060529774986,204.8458437457448 295.0291310932953,203.32018074352527 295.1514649600722,202.27918731223326 295.1785531733185,202.0937485002214 291.8772864000639,202.02709930436686 291.0218231466133,202.24291567440378 290.3533559467178,202.35173056978965 289.4603187199682,202.41792627127143 289.04205340438057,202.42472719831858 288.1440645689145,202.3712265661452 286.99208732438274,202.27964070765302 285.7043777422514,202.04795551748248 284.512787626707,201.95591612689896 283.9060699022375,197.7143542257836 283.8061639111256,197.09409538516775 283.7126658844063,196.64612956828205 283.3357610666426,195.15169442887418 282.23504753783345,190.08160170796327 282.1435884088278,189.73110712261405 281.9088238934055,188.5340709091397 282.9483704888262,188.27788616763428 282.5126289066393,186.71628628764302 282.25368888885714,185.7495759880403 281.9603788800305,184.39517680648714 281.6522140444722,182.90428507467732 281.4092939377297,181.81014179519843 281.1931707733311,180.79806570301298 280.8366549334023,178.92217566771433 280.5316940799821,177.1083918356453 280.21624746662565,175.10822419810575 279.10970851557795,175.0243355598068 277.0932386133354,174.8334321056027 276.80808419559617,173.9759515807964 276.23719281773083,172.51582361478359 275.6773697421886,171.16814402048476 274.84753834665753,169.4263963608537 274.5114114844473,169.59281752811512 274.2210141866235,169.73656540946104 273.38477482669987,168.2215395932435 272.7157250844175,166.98856108734617 272.2729929955676,166.1528162616305 271.3962669511093,164.58924380596727 270.65294307563454,163.2900371546857 270.0896247467026,162.3526989556267 269.51465557329357,161.44846079743002 269.20882090670057,161.01629349088762 269.538831075537,160.8734468157636 271.0426638221834,160.22179269982735 271.11868558230344,160.3573840787867 272.9944715377642,159.9469818198122 268.9533761421917,153.10199297463987 268.0248038399732,151.6979591260897 268.7223981510615,151.27121448598336 270.36691484448966,149.97782392113004 269.4747514311457,148.38692484906642 268.4430691555608,145.98105340078473 265.9215351466555,138.97008808038663 265.2344265956199,137.07705698919017 264.2327452444006,134.4746792842634 263.70612707559485,132.84556956740562 263.249996515573,131.66091976838652 262.6884258133359,130.45585399877746 260.30495431111194,125.04318050842267 259.31492380448617,122.50052909459919 258.9840398222441,121.52763731474988 258.56490069336724,120.3969002867816 258.333340160083,119.69931470666779 258.72131328005344,119.70974675717298 260.09669546666555,119.69613973470405 261.5807217778638,119.70521108317189 261.5148945066612,118.73638893646421 261.5291667911224,118.11817292572232 261.53411839995533,117.43055863154586 261.63897600001656,115.35863118892303 261.80645688890945,113.72665694332682 261.9640345600201,112.52602772391401 262.12394239997957,111.47144616220612 262.16035128885414,111.1298967160983 264.1506067911396,111.37211111956276 265.2658838755451,111.48460011428688 266.21717532444745,111.56307022523833 267.78858296899125,111.83023125829641 269.4109630577732,111.90870124474168 269.8965120000066,111.92004083580105 270.4242952533532,111.94816301914398 272.7946595555404,112.14683253329713 273.25079011556227,112.21396283048671 275.2707552710781,113.01136031746864 275.43328455113806,113.08484048501123 276.0901009066729,113.33612432726659 276.47253987553995,113.50576343585271 276.943525262177,113.7810865205829 278.43978496000636,113.72166756464867 280.2101307733683,113.5252673891373 281.21093831106555,113.46221972000785 281.9056199110346,110.29983407573309 282.6276809955016,110.40688058303203 285.14397212443873,110.40914851694833 285.9653566577472,110.42275611986406 286.81033415114507,110.45768229692476 287.20733667560853,110.45133208332118 288.40708238224033,110.43908524233848 288.45252067549154,110.29212309641298 289.49468871112913,110.01452766126022 290.8796828443883,109.39084381586872 291.52164437330794,109.03386905812658 293.33305941335857,108.00013580359519 294.60329272889066,107.17505075846566 294.90796231105924,106.23429577017669 295.27263374219183,105.07172745640855 295.57147790223826,104.00849138211925 296.8848193422891,104.11281938367756 297.44813767110463,104.12914897943847 298.10058496007696,104.10737618478015 299.1864436621545,104.04931538866367 300.58862279111054,103.93909055332188 301.97157802665606,103.70412549184402 302.61586972442456,101.58307805366348 303.6117256534053,101.72052037646063 304.5102970311418,101.71961316675879 304.9745831822511,101.66019091871567 305.18546346668154,101.64340753271244 305.8023756800685,101.51775889936835 306.2011258311104,101.3571825621766 306.42220060445834,100.55475270631723 306.7606576355174,100.4354539506603 307.24970183114056,100.23994900425896 307.96885020437185,100.2340521006845 308.4727492267266,100.21908303676173 309.28044401772786,100.4917012808146 309.43656533327885,99.99636138929054 310.00600035546813,100.17735109571368 310.6144657066325,100.41730964742601 311.2855543466285,100.73800998320803 313.1307568355696,101.52229495241772 313.9533064533025,101.85750900796847 313.66407424001954,103.19926727202255 313.5653333333321,103.7385991460178 313.4202803199878,104.39450473815668 313.284839253407,104.79276456905063 314.3771059199935,103.56305561296176 314.5113819021499,103.15662869851803 316.0507497243816,100.95392677478958 316.96504974225536,100.25310363498284 317.66934328887146,99.24926694837632 318.65908252447844,98.29396212473512 319.28560668439604,97.34228202095255 319.143466382171,97.22162066202145 318.70160810661037,97.337292266835 318.292080924497,97.18442428973503 317.6774988799589,96.57567300146911 316.58435839996673,97.71016266872175 316.3332827022532,97.75643121422036 315.83957816893235,97.73964752722532 315.7411285332637,97.60628521221224 314.962852124474,96.42008279403672 314.78634183108807,96.01092084310949 314.63313322665635,95.68204842926934 314.641580088879,95.39808371081017 314.68177550227847,95.01114716439042 314.3523478754796,94.89411346620182 313.7858255644096,94.67773704451974 312.734919395647,94.29034559743013 312.28286663105246,93.93606780393748 312.1716010667151,93.29011039435863 311.901301475591,92.07984233484603 311.79003591113724,91.45020996395033 311.71634431998245,90.90676499798428 311.624593919958,90.30570784211159 311.54536817769986,89.7241551122861 311.4314811733784,87.96451769489795 311.5025513244327,86.61359279975295 311.58935011550784,85.65687160927337 311.8739219910931,83.6386252072407 311.77139455999713,83.04707450268324 311.69012992002536,82.6955002779141 310.478150826646,83.0584155972465 309.3558832355775,82.99626639171038 308.36264874669723,83.07429312868044 306.6153133511543,83.3981945166015 305.78868593776133,83.53564832132543 304.2720372622134,83.85501260170713 302.55965439998545,83.99927074526204 301.7455516444752,84.11268116824795 301.1012599467067,84.3417700426071 300.04889742226806,84.68789792410098 299.43693681783043,84.77046045678435 297.56085959111806,84.88795323774684 295.8141067378456,85.02223062398843 294.61756501335185,85.04899536340963 292.98615552007686,84.96824749559164 291.11619498673826,84.83124823553953 288.09513102215715,85.74850653787144 286.987426986685,86.14135683432687 285.38601841777563,86.8313381447224 284.594926079968,86.98194521432742 281.58405660442077,87.6056932634092 280.1140113066649,87.91688616730971 278.590954666608,88.40045909723267 278.78552376886364,82.27996149414685 278.87931306660175,79.670123901451 279.0858242844697,78.03107727388851 279.2952482133405,76.20375029288698 277.6591783822514,76.07899429165991 277.76170581334736,74.75702994375024 277.03178040892817,74.60142414062284 275.3648358400678,74.15502086951165 273.6084710400319,73.57115667284233 271.23519402660895,72.93012914288556 262.54482915555127,70.90813538664952 262.4609430755954,71.18804903706769 260.40515157335903,70.58512275281828 260.29446855105925,70.52659934503026 260.04164522665087,70.37099051778205 259.06879971548915,69.74991511087865 257.5804043378448,68.56446823535953 255.99880220449995,67.26922517560888 248.6806155377999,62.69929203472566 249.77113457769156,61.11501405155286 253.05987669329625,56.60801585635636 252.90200775116682,56.58034022175707 252.7415173689369,56.47190614417195 252.57840554672293,56.24687123356853 252.48170353774913,55.90659622923704 252.74180864007212,55.42022889945656 253.32551594660617,55.07360077352496 253.45425777777564,54.90573093306739 248.22419370664284,53.97473152150633 243.99668480001856,53.41712811536854 239.25741255120374,52.6222345411079 238.261556622223,52.38676037359983 237.10812302224804,52.07143329561222 236.85937749338336,51.933505912078544 236.66218695102725,51.674438123242 236.61004942224827,51.321452093310654 236.67995448887814,50.915381338098086 237.3306541511556,46.72577581880614 237.5126985955285,44.274315567687154 237.45182293339167,41.57599859876791 237.64435313781723,37.80592144257389 238.26679950219113,33.325665408105124 238.7307943822816,30.591366205364466 238.58486755553167,30.695729400846176 238.3326267732773,30.774228641064838 238.1092218310805,30.697090659523383 228.01434766221792,27.448649317782838 226.9485866666073,27.19772006745916 222.31009422219358,25.78107608744176 219.5692330666352,24.99878699099645 216.77623438218143,24.182916364748962 215.87562410661485,23.887967944028787 215.36036551115103,23.583036233554594 214.9237501155585,23.08933636773145 213.40185855992604,20.957066455332097 212.73047864891123,19.855756065575406 212.29939740442205,18.9686231247033 211.59073479112703,17.482043399242684 211.3096581689315,16.55451415281277 210.2814711467363,10.780964113189839 210.1410784710897,10.040824127849191 209.75514424883295,9.50988218310522 209.29610097780824,9.236696164996829 200.78399402671494,5.774192497308832 199.84668359113857,5.376659061934333 198.9352962845005,5 198.1310967466561,6.504817123059183 197.96536348445807,6.902802300173789 197.71836558217183,7.817666265007574 197.59748807107098,8.637682433298323 197.30097407998983,10.94387625507079 197.13844479992986,11.639995287230704 197.11135658668354,12.19407540251268 196.46240455110092,16.92162380379159 196.40677176881582,17.629975780495442 196.3791010134155,19.955586656113155 196.3689065243816,21.397226033033803 196.4021114311181,21.929500291938893 196.49327928898856,22.222182513854932 196.65056568884756,22.38871625356842 197.44573582231533,23.09795797429979 197.5564188444987,23.436922970809974 197.38835541333538,23.831700815353543 195.65412721782923,26.283391327713616 192.4192702578148,30.997928632539697 192.2261575111188,31.332343809888698 191.69138375110924,32.359181231295224 191.38846179563552,33.135998898767866 190.01773994672112,38.18615363165736 180.8010481777601,41.64224320271751 179.9027680711588,42.016570209059864 179.28003043553326,42.31240152096143 178.70622634666506,42.62683528137859 178.20261859556194,42.93310149444733 177.71561329776887,43.265229700598866 177.2431715555722,43.61822879582178 176.78820607997477,43.99345985415857 176.23158698668703,44.503446374088526 175.93303409777582,44.805172711610794 175.59894613327924,45.16996610094793 175.29456782224588,45.52749932708684 175.11368846218102,45.75073043437442 174.8037760000443,46.165885238558985 174.40589966229163,46.75345270638354 174.16035811556503,47.15499404037837 173.8204447289463,47.77794879069552 173.61335096880794,48.20126662403345 173.3774213688448,48.741642211796716 173.16683235554956,49.29335931187961 172.98100138665177,49.85414927318925 172.82400625781156,50.423104602028616 172.6504086755449,51.21346910612192 172.58778538671322,51.57961288356455 172.51030727103353,52.16535090468824 172.4602086399682,52.753809591173194 172.43836330669,53.394896542304195 172.44244110223372,53.934351827250794 172.76779093337245,56.48188752605347 172.84323015110567,56.90972541470546 173.0937233066652,58.07345836504828 173.4141215288546,59.708118352340534 173.55101895111147,59.869632799818646 173.7642294045072,60.37731366767548 174.17521294218022,63.22420633764705 174.48017379560042,65.45405722188298 174.75222101330291,67.75420500326436 174.896982755512,70.57468834787142 174.9791212088894,71.46251831232803 175.2433041066397,71.44346425810363 175.62137400882784,73.6972751012072 175.36359907558654,73.66415767924627 175.51972039113753,74.49844297941308 175.71021169773303,75.75916494370904 176.2796467199223,76.42831091489643 179.1876974933548,79.05724076426122 179.1285694577964,79.2024093909422 178.87807630223688,79.47051744372584 178.98060373333283,79.58030101808254 179.6717900800286,80.14010565623175 177.15695530665107,83.85728081228444 175.77866040891968,85.58837220672285 174.3089063821826,87.27453997626435 173.51606641779654,88.10922674834728 172.85022065776866,89.03826565283816 172.7514797510812,89.18932482652599 172.16136448003817,90.36558681807946 171.24677319114562,90.27803649159614 170.0647950222483,90.84008175763302 169.23583744000643,91.12042340601329 167.3568475022912,91.70061152835842 165.86612195556518,92.21592978370609 165.5500928000547,92.31754169007763 164.37510513782036,92.76073235215154 163.9451889777556,92.9181396678905 163.36526819551364,93.11954828648595 162.75534648890607,93.3182349842973 162.15620181337,93.50240559712984 161.56870798231103,93.70608178304974 159.81146936886944,94.1919099559309 159.2062079999596,94.2994180045207 158.12326200888492,94.3928637758363 157.94500408892054,94.42234908370301 158.09792142221704,97.94195891055278 158.14743751112837,98.28715794428717 158.44395150220953,100.12019646784756 157.4632416710956,100.38601072091842 156.92905045335647,100.59875261120033 156.20465920004062,100.95211234886665 155.62852494220715,101.222461645375 155.2947282488458,100.57743307069177 153.74749610666186,99.58765976928407 152.09598890668713,98.70992395211942 150.26884522661567,97.76051373244263 150.49661923549138,97.41077772510471 149.25929955556057,96.63373579096515 148.5337432178203,96.19463556143455 147.73420401779003,95.76233870576834 147.35933809773996,95.52328225853853 146.89068287995178,95.13226336718071 145.21296128001995,94.84739069314674 144.09331512881909,94.54119751485996 143.389021582203,94.51851652149344 142.1942274844041,94.33933659136528 141.42352412443142,94.17331151175313 139.5529810488224,93.66616308002267 137.61282417783514,93.05558746156748 137.83797674661037,92.2177442824468 137.37136042665225,92.04400595917832 135.60946147551294,91.21387054194929 134.3374805334024,90.56382240139646 133.46017194667365,90.18504258285975 133.0780242489418,90.05394378560595 132.69150748441461,89.95006267557619 132.16314168891404,89.51775341900066 130.68901859549806,88.83186330914032 130.2506555733271,88.52384713996435 129.82539975107647,88.13326930906624 129.39257088000886,87.63699402747443 129.0182875022292,87.07176504353993 128.6748788622208,86.38949632138247 128.29651768889744,85.38242023083149 128.11476451554336,85.0000022785971 127.89718499558512,84.65523581462912 127.53630008886103,84.32543896255083 127.14657934219576,84.11903215019265 125.63983388443012,83.52975096506998 125.23962737771217,83.27888635837007 124.9198116977932,84.08228718064493 124.77213724446483,84.40482614585198 123.91230492445175,85.94266358588357 122.93479907559231,87.81844764365815 122.70149091549683,88.29975262813969 122.00739185779821,89.4996082058642 120.8819202844752,91.36764996463899 120.39637134224176,92.11658595438348 119.80130446224939,92.59425244462909 119.11885624891147,93.08870193350594 118.877392497845,93.23295395815512 118.5275758933276,93.39580439939164 117.60657663992606,94.010915273102 116.43479295994621,95.21119299111888 117.42220202670433,96.12114969268441 118.86020750226453,97.69791511096992 119.33352305775043,98.57520139712142 119.52925724443048,98.75301700772252 119.6938254222041,98.98163686494809 119.89946282666642,100.42456736892927 119.77479879104067,101.16712171607651 119.82635377778206,101.91012713487726 119.31284280889668,103.23147299757693 118.99652238225099,103.8184328507632 117.80959260440432,105.16789019003045 117.32899527112022,105.82968822796829 116.56994275550824,106.59807903942419 115.09407203563023,108.34849402622785 112.56234353780746,110.74117378622759 110.84617415105458,112.54235668852925 109.06068224005867,113.97068277513608 107.7994783289032,114.9916875177878 105.80893155559897,116.79464954789728 104.2643208532827,118.52865403844044 103.14525724446867,120.1941562036518 102.00376575998962,122.30096190446056 101.45617607107852,123.48475551558658 100.02632618672214,126.07547217892716 99.41931719111744,127.30822884198278 98.87930055113975,128.85891614452703 98.58948579546995,130.47263516369276 98.70686805341393,132.2478029783233 98.84143530670553,133.44877698057098 96.16902286221739,134.74589402787387 93.4872897422174,137.85667576419655 91.1550819555996,140.5928026365582 90.6899219910847,141.46402030263562 90.45661383110564,142.26040362531785 90.1793237333186,142.70349262963282 89.67542471108027,143.43002965959022 88.96996608003974,144.10032821493223 88.6670441244496,144.63774471374927 88.4916989156045,145.1021440627519 88.42150257783942,145.58649701613467 88.6632576000411,149.259018339857 88.28577024000697,150.56057623116067 86.42600419558585,150.4322348057176 84.41827242670115,150.61363609158434 79.8193928534165,150.77326909819385 77.8495263288496,150.87893520004582 74.0787305245176,157.94529606867582 73.84542236442212,157.966156504408 72.89704362663906,155.6066471549566 70.22667007998098,156.41567649703939 67.59241415106226,158.1997025507735 65.95721813326236,155.59258888312615 64.95699313771911,156.46873493061867 64.55882552894764,156.0968721320387 63.69753685337491,156.7476316129323 62.78527573333122,157.54169159237063 59.76450304000173,154.14322153228568 58.34310001775157,152.62990120833274 58.03406136890408,152.31607979454566 58.43164643552154,152.12833092891378 62.64866958220955,149.91750783426687 63.773849884513766,149.27579805557616 64.70125710219145,148.70301946118707 65.47603825770784,148.07445784454467 63.95239907561336,147.33931962563656 62.740128711098805,146.59057358274003 61.643201706698164,145.53298241691664 60.43937820440624,143.30576569528785 60.03218119114172,142.11527704098262 59.83557319105603,140.94065518892603 59.874312248895876,139.00047440594062 59.49449472001288,139.05852588178823 58.9439923199825,139.24537896446418 58.26067029335536,139.56511505699018 56.678194346721284,140.12839366914704 56.215655822190456,140.3025471479632 55.10562161775306,140.67987920774613 54.492495928891,141.04587253986392 55.24426666670479,142.3025810207473 55.87719879113138,143.3887595187407 56.62780444440432,145.19874263106612 54.4100662044948,146.6078070155345 53.563341084402055,147.20870875084074 52.987789368839,147.63410082581686 51.55357041780371,148.82818735868204 49.400203093420714,150.80501428438583 48.27036245330237,151.93695389933418 47.39684039109852,152.8883953858167 46.264669582247734,154.27700271504 45.12783843558282,153.47567487647757 43.18535139563028,152.00860693014693 42.680578559986316,152.60904026136268 41.925603840034455,153.6316778108594 38.67851349338889,157.91944726509973 38.063640177831985,158.65364279039204 36.850787271163426,157.8060752833262 35.83570744888857,157.13128402631264 35.30675911111757,156.76939914387185 31.939956337795593,161.99309014785103 29.889990257797763,165.67032294295495 28.568201955524273,168.62557773926528 32.20559559110552,169.75742471555714 33.645348693360575,170.1941092958441 34.466150684515014,170.45575685420772 36.06959815113805,171.02122286055237 38.07441720890347,171.8963999110856 40.444490239955485,173.06359947752208 41.45782243553549,173.48168575682212 41.2495635910891,174.10563949192874 40.60760206216946,174.85882544878405 40.341671537724324,175.22294752683956 39.58058012451511,176.47583117091563 39.39737059548497,176.74608670489397 39.271832746686414,176.8671574476757 39.035611875588074,176.8281608861871 38.30510392889846,176.54974337207386 38.09626254218165,176.722507376282 37.63110257778317,177.240345119033 36.83389354671817,178.04657340911217 36.270575217786245,178.65645728085656 35.49841550225392,179.5542757831281 35.013157831155695,180.19952386501245 34.080507733277045,181.47641113051213 33.58622065780219,182.22911815554835 34.170219235587865,182.6272356385016 35.51123143103905,183.45656915102154 35.93590471113566,183.7435930809006 36.13629923562985,183.9231528826058 36.282808604533784,184.10225910285953 36.477377706672996,184.41195381479338 36.73806535115,184.90846198715735 36.96642190217972,185.42083909676876 37.15574812446721,185.97765108430758 37.44090254220646,187.0427540873643 37.587411911110394,187.74465819948819 37.761592035531066,188.7322171307169 37.89149895112496,189.33164236019365 38.04295992886182,189.9482959426241 38.64589112892281,191.7193515948602 39.067360426764935,192.6873956391355 39.51504412444774,193.67810604831902 40.009913742309436,194.6130423556897 40.29099036438856,195.11134091066197 40.769257528940216,195.79644288588315 40.79809336888138,196.5649696709006 40.72381923557259,197.1911242970382 40.10049905779306,199.93829409813043 39.788838968845084,201.2028238888015 38.323454008903354,200.68368293059757 35.8441543111112,203.4172068812186 33.8623456711648,205.25525461358484 31.982481920043938,207.5570996152237 34.617320391116664,209.2396027976647 37.403328568907455,210.97967190871714 36.18960184894968,212.93145253061084 34.44896568893455,215.1420893163886 34.27595064882189,215.24409724003635 34.16788906662259,215.40322950558038 32.95765760005452,216.83813485334394 31.891605333425105,218.33242117875488 31.031773013295606,219.4966517193243 32.073067235643975,219.26045124453958 32.15462314663455,219.42638097144663 32.08413553785067,219.79677556140814 31.716842666617595,220.45913200324867 31.411881813313812,221.09972533152904 31.188768142135814,221.93661936733406 30.841864248970523,223.60586428054376 30.57768135110382,224.53251182753593 30.074073600000702,225.9777839864837 29.518910862272605,227.39811268280027 29.090451057767496,229.06867575499928 28.977146595483646,229.86564542760607 28.86850247113034,232.2429369557649 28.948019484523684,233.283787168446 29.091616142191924,236.04727474664105 29.02753649780061,236.9113107471494 28.35703040007502,240.41683192527853 27.865073493332602,242.07822888891678 27.459624106646515,243.1661763774464 26.48066190222744,245.42410338390619 26.70930972439237,245.61041191476397 26.851741297752596,245.61630488268565 29.9284380445024,245.77088190853829 33.19533482659608,245.90642003150424 34.25556167110335,245.949483965931 35.503658382222056,245.94721744325943 38.305977742304094,246.03425189625705 38.2733553777216,248.7010250723688 37.87722666666377,252.96199212729698 41.769191253348254,253.59614382125437 41.72666567109991,254.97323027637322 42.82796174217947,255.1726759141311 44.360047786612995,255.3929724743939 47.575680853333324,255.70709866576362 49.066406399942935,256.02031783689745 48.368520817835815,259.52190525783226 51.84163754666224,260.62925639841706 52.39650901325513,260.83050995122176 53.334693262237124,261.27109140413813 53.83946609776467,261.6287232245086 54.308703857823275,262.12777501146775 54.839691093424335,262.5923771458911 56.278279111138545,263.89915032329736 57.29277639114298,264.7626225746935 58.214940728852525,265.45475770306075 58.2324169955682,265.4669958289596 59.42866744892672,266.35357823153026 59.75052202667575,266.39301202754723 62.18700487120077,263.81892201898154 63.40655701328069,262.40698968124343 63.510540800052695,262.2841534015024 64.12075377779547,262.8040540823713 64.92233187553938,263.8239079597406 64.87951502227224,263.86334221379366 63.232085617724806,265.15922941698227 63.08936277334578,265.64603499963414 62.73779854224995,266.4170349112828 62.41798286221456,266.88117463566596 62.08709887997247,267.3570981306257 61.402611768920906,268.0723411987419 60.923179519944824,268.5378371683182 58.03726535115857,270.8081922494457 57.76958720001858,271.0815035131527 57.03063239110634,272.0700443748501 56.37381603557151,272.7975096812006 55.0511539200088,273.89210243313573 54.06024960009381,274.5429632588057 53.4978050844511,274.7981400573626 52.354565973277204,275.5727335170959 51.3968665599823,276.13022154651117 50.43246791115962,276.6414776070742 49.35301717335824,277.08293355914066 48.68775395560078,277.47770501318155 47.76267690665554,277.4246760534588 47.68374243553262,277.9440873588901 45.7494109866675,280.2338334271335 45.0197768532671,281.2576847781311 44.156740551115945,282.14057707658503 43.789447679999284,282.46463572367793 43.22642062220257,282.79141325573437 42.49387377779931,283.2287777015008 41.92997290659696,283.5551008610637 41.366363306646235,284.0169379415456 40.96877824002877,284.5268158185063 40.88576597336214,284.6632362748496 40.75323761778418,284.9519397492986 40.550221653305925,285.4065223096404 40.081857706652954,285.7935739114182 39.231637333286926,286.1847038125852 38.909782755654305,286.1235189960571 37.72751331562176,285.93724511552136 37.62585969781503,285.92002270481316 37.54372124443762,285.90506639971863 36.62476088886615,285.8252994220238 35.481230506673455,285.7174326670356 35.352197404485196,285.7115407839883 35.26802005339414,286.1566041212063 35.2109309155494,286.2454353913199 35.12675356445834,286.39001273806207 34.611494968878105,287.11108515702654 34.12215950223617,287.5955755925388 33.596415146719664,287.86524005478714 31.86509966221638,288.64930457784794 30.186212977860123,288.7118483315571 28.044787768856622,288.97290032706223 27.08301056001801,289.2271537927445 25.855594097753055,290.0619732456398 25.219457991188392,290.9357656412758 24.7883767465828,291.9690840753028 24.679150079959072,292.7050938655739 24.72983125341125,293.505003163591 24.898185955593362,293.9110749749234 24.97333390219137,294.5333241724875 25.271595519967377,295.09892131824745 24.068645831081085,296.4843561994494 23.498919537756592,301.33852057135664 23.25192163558677,301.8945830978337 23.27726222225465,302.04504150000867 23.34833237330895,303.2110905930167 24.253311715554446,304.82351819303585 24.272535608964972,305.32292420824524 24.026120248949155,305.60389623628 23.02764287998434,306.5311013573082 22.26305621326901,306.99153019534424 20.542226488818415,308.22824811318424 16.8570643911371,311.4435005742125 14.43689272890333,312.66025392722804 11.322622008970939,313.4369785846211 9.756457244395278,313.46144944481784 6.881028835545294,313.59196065278957 6.9721966934157535,315.88812942808727 6.996954737813212,321.169633599231 6.632574577815831,324.811553777894 6.422276835539378,326.00466929608956 6.039837866672315,328.0949846813455 5.34661262226291,330.7607534172712 5,331.82514864974655" stroke="red" stroke-width="3.9186596633317112px" fill="none" stroke-linejoin="round" vector-effect="non-scaling-stroke"></polygon></svg>