<svg width="55.75170104880817" height="63.91216347255977" xmlns="http://www.w3.org/2000/svg"><polygon points="5,20.631775066955015 5.0055341511033475,20.803541504370514 5.047768462216482,20.96981128596235 7.4102684444515035,24.855815718590748 7.687558542238548,25.305147653329186 6.581602133344859,26.36366190481931 7.138803768903017,28.08860306243878 7.056956586660817,28.187079107388854 6.8443286755355075,28.44357464183122 5.239133582217619,30.304074215120636 5.140683946665376,30.52850562724052 5.135149795562029,30.862404174695257 5.228356551146135,31.108820056018885 5.534773759893142,31.382716932916082 10.064913351088762,33.051739901769906 13.009955555549823,34.34838414588012 12.904515413218178,37.177066048723646 16.36015587556176,40.896982912905514 18.081859413301572,44.19273365708068 18.76081237324979,46.24178960680729 17.489705244428478,46.64161430846434 17.32601087994408,46.63520246348344 17.30387427553069,46.65306403138675 16.835510328877717,46.58757160860114 16.71783679991495,46.99884537560865 16.702981973299757,47.432101749582216 16.66336910217069,48.25098140508635 16.567832177737728,50.21573034976609 16.785994239966385,50.656765946303494 17.346399857779033,54.40896699670702 17.419217635528184,54.70481701416429 17.590485048829578,54.974562265502755 17.834278968861327,55.11973911221139 18.233902933308855,55.24430718051735 18.519348622183315,55.187518805323634 22.916086044395342,53.980762307415716 23.960001706611365,55.03455649479292 24.937798826606013,54.96082312677754 25.382569813285954,54.920521647902206 26.031230577733368,56.96077458024956 26.088902257732116,57.90555858728476 26.622219662182033,58.91216347255977 27.173887146636844,58.73355785210151 28.059060053317808,58.793093075277284 28.968408462242223,57.86663155257702 31.171291875536554,55.01486373436637 31.74334833782632,54.694741633255035 32.195692373323254,54.6974894645391 33.01066894212272,55.09134491009172 33.2329088000115,55.04554780211765 34.76237340446096,54.42362211557338 37.01622926222626,55.08081157616107 38.024318577721715,53.211823629855644 39.70466161775403,52.26793507102411 40.26885375997517,51.29747960832901 40.4858507377794,51.14863636076916 40.93557333329227,51.102838417864405 44.58956942218356,51.94460305990651 46.05786709324457,52.16580617357977 46.44467512879055,51.97757745150011 46.87196984887123,51.45273445593193 46.21631857776083,46.4176576078753 46.252727466635406,45.84471210947959 46.61302983108908,45.47282341157552 47.09275335108396,45.153603169484995 47.44956046214793,44.64752133208094 47.79733816895168,44.312728081131354 49.593024568865076,43.75076888734475 50.459556124405935,43.239187813480385 50.75170104880817,42.93965813610703 50.62878463999368,42.68455378699582 50.45256561774295,42.31998762401054 50.37741767114494,42.136330316599924 49.71040682657622,41.32017550780438 49.35068700450938,40.845228783320636 48.96941311995033,40.99407912255265 48.926596266566776,40.92812698497437 48.86513806215953,40.846144785755314 47.783648426644504,41.36047952133231 45.13715911109466,37.408360455185175 44.106350648915395,37.60530401224969 43.392736426671036,37.48484785790788 42.72659939550795,35.511739019304514 42.56523519998882,35.09815333841834 42.587080533267,35.09265717782546 42.55416689766571,34.99143619602546 42.495621404377744,34.83525350212585 42.43998862220906,34.68685693765292 42.4044535466237,34.57830753439339 42.379695502109826,34.58700980921276 42.2588179911254,34.247162815590855 41.45927879109513,32.18791677907575 41.428986595594324,31.965777189237997 42.844564195605926,31.18027144856751 42.287945102201775,26.36366190481931 39.59426986670587,22.33889837306924 37.99315256893169,22.621967154438607 37.62964622222353,21.612903121684212 37.48459320887923,21.297311996808276 37.31274325330742,20.82552759849932 37.03399679996073,20.033110710210167 36.99234503111802,19.873710892978124 36.96350919106044,19.794927031791303 36.91574072884396,19.664383942843415 36.87467150215525,19.526512033480685 36.440968817682005,18.34566530236043 35.90299107553437,16.917464247206226 37.312451982172206,16.112665590888355 36.78000839112792,11.248539832246024 38.048202808829956,10.926978741073981 38.03422179550398,10.719933454878628 38.34821205330081,10.63015269394964 38.314133333275095,9.949924799264409 38.29607452440541,9.75112378486665 38.27248156443238,9.752956053067464 38.14840007107705,8.956834036973305 37.494787697680295,9.121280654508155 37.47498126223218,9.030125024029985 37.39080391114112,8.724134988500737 37.235265137744136,8.155212244368158 36.65592689777259,8.354472796083428 33.39485553780105,9.6393553923117 32.36550343106501,9.738297906704247 29.46997731551528,5.233161133015528 29.360168106737547,5.138339248718694 29.234338986570947,5.066421173512936 29.09715029329527,5.019697315641679 28.953553635510616,5 28.800345031078905,5.010077696642838 28.65237930661533,5.05084655538667 28.51577315549366,5.120932328281924 28.396060728817247,5.217128450167365 25.106444799923338,9.493231874075718 23.810870897723362,9.11807417566888 22.6871469510952,10.085970549378544 20.994570524431765,9.50972230732441 20.81776895991061,9.482696318707895 20.63892849779222,9.480864048178773 20.46154439111706,9.504225496319123 20.289403164410032,9.552780655154493 20.111436515580863,9.632484382716939 19.947742151096463,9.73875597375445 19.802397866616957,9.869305055122823 19.657053582253866,10.1207835895475 18.801881600054912,11.599416488781571 17.294262328883633,11.58292621478904 16.276269795489497,12.688687912537716 11.392527075484395,11.55635854852153 11.216599324368872,11.558648864738643 11.046205724473111,11.601248741324525 10.88979313778691,11.682325902744196 10.756390968919732,11.796841615694575 10.66930090659298,11.911357267992571 10.605512533336878,12.040072788717225 10.56677347549703,12.178407533385325 10.555122631136328,12.321780867525376 10.916881351033226,14.997760283586103 10.975718115456402,15.484215154952835 10.877851022174582,15.559794203436468 9.811507484409958,16.384749250952154 9.730825386592187,17.72500820935238 9.721795982215554,17.87433251400944 9.550528568797745,17.959071720775682 5.316320426645689,20.05097447556909 5.192821475560777,20.166859891673084 5.096119466703385,20.306105526862666 5.030874737771228,20.462756759254262 5,20.631775066955015" stroke="red" stroke-width="3.653760985494005px" fill="none" stroke-linejoin="round" vector-effect="non-scaling-stroke"></polygon></svg>