<svg viewBox="0 0 538.9023016355488 458.10296438650334" width="538.9023016355488" height="458.10296438650334" xmlns="http://www.w3.org/2000/svg">
  <title>okres Havlíčkův Brod, Kraj Vysočina, Jihovýchod, Česko</title>
  <desc>Geojson of okres Havlíčkův Brod, Kraj Vysočina, Jihovýchod, Česko</desc>
  <metadata>
    <collboard>
      <support-module name="@collboard/map-svg-geojson-import" version="0.11.0"></support-module>
    </collboard>
  </metadata>
  <polygon points="8.052549999999997,193.89228252230498 10.038217982226001,206.04949101829664 10.1833438133541,206.5977196709497 9.13484063110775,208.66520471187653 9.1739437777793,209.0788048898172 11.545691617800571,211.55662652983267 11.670719742228925,211.6680397735978 9.656143102248848,216.4520680161728 9.737334924436823,217.08098717986252 13.263244542241978,226.18414551520948 13.572064737796268,226.513232380668 17.95190843556304,226.26852695139644 18.330633697776307,226.07152422235924 21.34878495112173,220.37613988877968 21.67398914669286,220.38255356308184 29.696687813331323,231.71839211937152 29.84771188445268,231.80602744024475 36.145648666693546,228.71969463967946 36.48075608001784,228.636779529617 49.5433187822415,228.96888922801702 49.647812293354605,229.01445290138474 48.26631341333962,232.21124053982896 48.273231102247905,232.47301875678352 50.877995831113026,241.24180940131885 50.91469599112281,241.38915501883423 60.9423593511234,254.81888617450716 61.05369773333189,255.26429814390542 56.53768479111716,260.78694814103767 56.42554541334505,261.2397323832771 60.78638367111091,266.869820378815 60.81463696889807,267.22778068058653 57.591066764441734,271.36180527344516 57.436474622234186,271.5805661073606 56.768153057789846,276.4060100171988 56.76917250667577,276.5580944611353 59.96864002667246,278.5733701762871 60.03250121779968,278.6808254860149 59.56137019556593,283.9818422237946 59.59049730667141,284.26349074708526 62.43665296887741,286.5514660626719 62.50175206224196,286.6118166082375 77.69110360000161,291.2483828221808 77.81052475554282,291.2635534523939 88.49667927998928,289.8828965186618 88.96475195556525,290.0205592187482 95.71139188443306,281.55618833014853 95.99385204446264,281.3194840738794 96.99662566223526,284.0732151875633 97.14794100443362,284.34969333763695 101.80791469335202,285.8526535990601 102.1610080977913,286.04438399166213 118.40527078224807,284.1364905946608 118.48733641778347,284.1154737268731 122.58923465779628,287.3678223714011 122.60962363557303,287.36759760537063 124.6910469955834,281.26115081657883 124.8213908177928,281.0724383697449 131.59111398223433,276.72670199849347 131.71352066667862,276.6302585506561 135.0242537511,267.98945035773033 135.1250335555593,267.85859007761576 134.62302779555432,271.74368063116674 134.66904863110506,271.88599793732976 138.61686445333874,273.08039203202463 138.72172205334175,273.1222094050387 138.64402548445617,278.0875706324074 138.75973293334357,278.3253004709619 145.63577005334776,281.9974490891833 146.0361950133298,281.9659787503548 147.28997151111946,285.6470989918522 147.29805428445218,285.72059974371916 151.4150258044316,284.2666376497724 151.68809247113643,284.0632124966138 158.9547241511242,288.75955595586095 159.01931352000213,289.11950842632325 161.12753382221092,288.09628423453944 161.2312991555733,288.0460496716038 157.74514804446483,292.18996530933475 157.67553424888285,292.3544793138641 160.20922882666457,298.8120502760354 160.41734203557246,299.3769911275373 168.94277463999572,299.4231704025948 169.02702480889968,299.4105862731009 176.7717780177842,307.0700787301827 177.33604297778913,307.1862408601952 180.6723351022298,303.00952950510657 180.83202448889608,302.92863677500975 193.0470610755507,305.61724490530435 193.05441567110358,305.6007301019923 193.88388297777385,306.8785342545085 194.1798144266719,307.44260554057075 190.69242541335518,309.55447910357145 190.3246956355648,309.9815846544294 189.45896507555847,313.62824748253445 189.52653997333948,313.8569491725717 197.7074716711137,315.93645074989 197.8562383911409,315.9716082842857 200.81628105778475,322.0649780692544 201.81555942222587,322.6382148330082 197.05720891556814,321.2634024221985 196.1694873866869,321.48993830043 189.76392592889135,328.2762584088556 189.7097495022241,329.00855618826574 185.67724660444185,328.2229162928776 185.39536898668268,328.44908650806576 180.22050079110306,334.97909629371827 179.69854296002416,335.667962916537 172.63645641779988,357.3113695297285 172.3316412000055,357.6493221309862 178.8355794755695,356.05572997601814 179.5995107822306,356.03350600810484 176.4636131822259,359.98552666213766 176.2802580177737,360.2233504044922 179.0967768444749,369.1129984071082 179.46297744889273,369.898950227063 172.98561766223395,375.5015042678639 172.78209197332728,375.9398774508078 175.38205072889798,382.5739534463279 175.89446943114274,383.0545646109746 164.4117612355691,392.4706199225253 164.08706676445547,392.8702720899088 168.33554719112692,397.7515589522733 168.41440884443693,397.8359009003394 177.7784109777782,401.47728571019945 178.10033837334015,401.5714910538296 180.93040130666452,410.5692622637067 181.04246786668193,410.8361327526869 186.30624656889233,413.75884030237614 186.48916482667084,413.9158139743446 191.03328543110513,421.79755739210634 191.13923529777787,421.89475475668553 193.61642328001437,423.7699463339883 193.72652376001463,423.7535791830811 202.85139231110918,414.5108522373845 203.15467835556012,414.2148475768114 213.60774317334983,409.6049295085901 214.08972404443887,409.3439960924512 217.59946811554948,418.8525189258868 217.8044501599867,419.3009723067295 235.22792393778911,423.1696274334605 235.820150924446,422.57535570034054 240.1261573955777,430.2450136005715 240.23283544000117,430.48096365882486 245.17978399113747,433.5571888069459 245.3449347111233,433.7015525065723 254.17285236446298,435.1581699561717 254.52164952000714,435.1778961198503 271.5484120444522,429.92140728660854 271.73548091555824,429.87757961347927 282.0385411111125,430.07878309296905 282.3581383377674,429.7857767780439 296.02741876446055,443.17234897016135 296.3864104088931,443.5792523219494 307.1674464977765,441.60925621295576 307.55643906669104,441.55647247865966 313.89362463111286,449.2140661446389 314.32587095999736,450.05041438650335 317.11501030222973,443.78141414348613 317.1850610044563,443.4063383771496 320.56518943110825,441.95587934696925 320.72174765333295,441.8091839522018 336.02047149334214,441.05855462745933 336.23295376889985,440.600977251284 325.5138856089103,431.91849969630823 325.263974995563,431.66697564081517 328.5273765244416,426.94530547111174 328.67548788444367,426.2432357784488 321.2367877955618,422.5851089386339 321.1489695555716,422.6083149124239 320.38256244443585,416.93343339415844 320.25673332444387,416.6476445697841 322.1427865866932,414.0513715911435 322.42386320888875,413.9251202565134 328.55905225777644,416.4567067580134 328.74939792889165,416.5997700311342 331.9811965422192,409.42518049415196 332.029547546677,409.15740607298324 343.40739814224764,395.78720727271104 343.6138365422445,395.43647886548536 341.9870145688834,389.7859317631588 341.4161231911345,389.58648741426407 342.4416887733456,388.46316919534695 342.55018726224773,388.15143141139527 360.5456446844397,390.62038200404606 361.02784400888015,390.9407429127965 362.1921274577686,392.2369740425271 362.20894836443006,392.26479175111274 359.4436204355512,394.32920772649925 359.4169691288913,394.3778868504229 358.9984125422267,400.98606951174554 359.1626166311104,401.18737896519417 363.083125786659,398.1086654616007 363.30820553779597,397.81683424791083 367.9244885600125,404.9779148814192 368.40778015112267,405.45989976236126 372.3729266044753,405.89511793036183 372.73206388444635,405.9629627601604 383.26646615999164,415.9766123895166 383.3059333955822,416.6497748176113 393.4862228178023,412.5330847268557 393.5770994044502,412.490700811533 392.4763858755538,402.2038963092415 392.3766983377933,402.05922541849543 396.08953119110777,402.6006738949287 396.31941691556824,402.8134163761639 402.98377275554924,397.2267741569009 403.3066467822133,396.63480101209245 399.116056488892,385.06469423400233 398.98651366224624,384.58320321313624 398.8736461066652,377.54254088059645 398.8258776444487,376.9984887968527 394.42681005335874,374.3074328960862 394.3766386044514,374.2743324454274 399.1298190488957,365.99208396350843 399.1116874222422,365.3656577392609 402.8036943911353,365.7061418166628 403.37560521777016,365.61613930960414 407.7087727200193,371.4232427202584 407.89016180445435,371.5356778118654 426.3398565244639,375.8794007854518 426.7825886133429,375.7887417633243 431.91413023111056,380.54813782807435 432.03631846223254,380.62454060567654 442.7192690044536,373.50774285938644 443.3487786933325,373.6855899051076 447.87251032001916,367.3431067738053 447.96193055110746,367.2119224480481 445.4797181422251,363.6939557351358 445.3335728622402,363.4005946083704 447.57803522668075,363.0957846747548 448.04406900445576,363.0461799523397 451.86168664001855,349.6066972986224 452.12586953779794,349.21346506861266 449.85089652444697,347.61334114208114 449.601568453341,347.4933355777099 449.28342758221663,341.85996305302945 448.95691266665347,341.71704149063555 445.72671604445316,347.68238070693735 445.49486424000463,347.4092529443802 444.6181381955463,339.07163418112725 444.63452219556314,338.67372297762597 450.6526202577876,339.79289701270284 451.16817012447393,339.79053922623973 456.93927028444125,336.6924324896605 456.9490278666559,336.5854277404211 455.12486971557485,334.0367890854901 455.0039922044449,333.851290095488 456.8741711911349,327.43737743580243 456.9229591022373,327.3420339262153 455.01032735111187,322.2294023938081 454.962049164467,322.1979551567707 456.07528735112976,317.00689208447113 456.0799476888857,316.95904279239005 450.7657062666618,307.48765460021207 450.947750711122,307.2247742783144 448.38937090666843,306.3878178445226 447.76044376000175,305.9750644207012 447.92180795555,301.5761375752405 447.8859087911038,301.4383915567083 445.41716767111905,297.0703373678622 445.2879889333341,296.88021865281155 448.5360987288947,287.98423974347645 448.6419757777836,287.581574449992 461.83328031111853,284.05714344728733 462.06061741332053,283.9893723508063 461.7424765422253,278.88168542113965 461.77830288891676,278.716231739592 469.6442248800082,266.11207006088046 470.3591498222155,265.64021341538285 486.70674093336095,273.0612819315644 486.7395089333364,273.0981531782378 488.42422103998945,271.74233165017324 488.706025840023,271.71613892965945 491.00939778667055,260.4414263830764 490.9881349955755,260.18124357469026 479.0988851466751,249.67159055203194 478.8606981955596,249.49930094258855 479.6390474222204,244.15074343572599 479.5081210577988,243.98361016710226 486.46848116446165,238.85677982774325 486.64419046222577,238.84058232767677 486.31534537778464,240.64522431296757 486.3403946933464,240.7013512791524 492.5239347466919,243.4250709254335 492.6175055911077,243.40482573917654 496.0368827999988,248.11140514171677 496.1549932355771,248.2760516170889 499.9930726666713,247.9251650891598 500.2983247911103,247.9741993673448 506.776412755578,240.14052894754388 506.9026059644599,239.8027505109418 509.98592912889546,212.38569318089105 510.2657678488828,211.83403383216466 518.8571005422342,201.50711923027814 519.0347759200155,201.33062578150532 529.5582555288926,194.28471785598197 530.8497516355488,192.7273431548598 522.5311943377961,186.53635718537373 521.8405905333417,186.27706128948887 508.9475476177828,184.72508829700348 508.67084006223706,184.5478651323716 502.4321769511222,178.36394840907417 502.34079064001673,178.25798507715047 502.85976294222166,174.5973382792214 502.81388774223853,174.4186182996997 502.6671599200123,174.38753650448746 500.27793581336266,174.6607403748418 500.97101542223356,172.51899265786744 500.9942442933458,172.44612806494808 497.1725488622393,169.63744498245762 496.70076248000953,168.9311689641105 503.38383248888533,156.60686801770464 503.8004958133457,155.90999921470177 508.72203096000123,153.59120740876062 508.7998731644544,153.59751626008767 507.6709791555546,139.83032093625627 507.6414879555592,139.7550463527656 498.73507273779944,148.53217557454593 498.4764968089072,148.6566741146304 495.02173015999836,144.44418458161056 494.8101216977881,144.13815322399716 485.2158697511255,143.5821993867354 484.7932353689172,143.33610857057613 480.8336958844517,139.12242023323017 480.581600737794,138.62985927394004 478.22427081777244,130.455584224757 478.1081992799951,130.24290805836029 468.2775080088828,127.74539454318403 468.2127001866826,127.7360395011998 465.9490139289188,123.54763764788333 465.7926013422326,123.47741304520571 462.774522906671,125.50329459252646 462.60121659556864,125.59459444630886 457.0275982488889,122.11077697134863 456.9259446311113,121.9719021089328 454.9890645600168,125.46463300355356 454.3343599200085,126.02437800572773 443.47322427554866,127.05525865426864 443.0918775733513,127.15309324468365 443.2359111377806,119.27414281102358 443.5204101955529,118.41908809892595 441.51005698668416,116.99719887780486 441.47605108444225,116.58075971811888 448.3141501422284,99.7906808490585 447.86413627558034,99.31806388985535 445.7361095377779,98.48773218817189 444.84365485332785,98.0370946254767 443.07767810667394,101.27650510491333 442.66516539557017,102.2542898410826 436.44317755557825,102.13205361041003 436.1695283466903,102.21053742094193 428.1205424622236,96.45013515967696 427.7949013600079,96.4154001703788 416.58475010665245,100.43605407415419 416.38719547558105,100.50236142781034 409.78997762667825,96.75688475583559 409.38001353777474,96.66824332150975 410.53832592888614,95.04165874802095 410.7681388355628,94.19547277905042 409.23088272888674,90.37467224119575 409.0729409688862,90.18078856061732 401.59754072002363,88.21924254322187 400.5686255200195,88.42700666023995 402.1075564355775,85.59798557867873 402.245182035556,84.94668427285035 400.34740511110397,82.89233839125484 400.502215706692,82.28059945120879 397.90990281778033,83.80423745576229 397.35910914667295,83.12866203711712 397.07191583110364,77.10801251259511 397.06128443557066,76.82687471838256 394.5895577866828,76.05791258972715 394.3024372888973,75.49991187296803 395.2980019466846,72.96187307802722 394.75179579554936,72.38838362869103 391.34355970667787,77.31390103072738 391.1912977333192,77.66453021133896 386.8525960800249,76.81514180948545 386.5662037600192,76.6643060158018 384.8549859822157,71.45575936235366 384.45077449779603,71.2796353294467 380.96862836444745,75.70851410204307 380.61830203555985,75.57222890685773 377.2488050044409,72.7616093962057 376.6940791733283,71.99902113929386 376.44591618667584,69.46804088450847 377.5397848444478,68.05627341115144 380.17141933332425,67.91128083944898 380.4555543022358,67.62829033777928 378.8664519377995,65.74029544895859 378.009750782228,64.94556232778234 365.65504969779397,64.71468922921451 365.4176637422421,64.862172792367 361.43700710222004,58.43628199329362 360.88665033778636,58.184051796829976 355.10783149334713,69.169374770128 354.60502473777854,69.27645245796123 348.4495195288979,68.3195157501683 348.3271128444536,68.21773939405796 346.10085492445035,70.40148889923114 345.5997957955766,70.4896088172751 342.8963629777787,63.30584567764129 342.72276539557026,62.99225032568904 344.3560681511077,59.83622304788844 344.21254431110685,59.28753619909514 330.0837837066862,66.27086335994647 329.8245524177688,66.45422516772635 314.74945197333693,63.92750166962617 314.1549676355568,63.801004445449166 310.1480965955485,67.38411394184334 310.07819152888953,67.35759749302053 308.2447127022384,64.8662350730807 308.1892983733338,64.83644500739285 309.98556731557585,62.92341483289022 310.79027657779045,61.84877997989645 309.59060368891335,56.75416105498846 309.5863074399891,56.678546216549535 299.06319192000194,54.46614512656345 298.88092902221945,54.31039449113416 296.79812212446234,49.77390590255493 296.4238387466827,48.880627079815554 297.83803280888935,45.057783967531236 297.3438913688948,44.54552274762648 293.08507081776736,46.61384107877495 292.6656404177844,46.54600084815286 287.2719548000092,40.2622303158347 287.04236034668395,39.90097478026985 281.4087401511275,39.163102921629275 281.3898075289104,39.16231266182842 276.4012800266861,31.956474166457724 276.15799583111186,31.524143290436427 264.9618984088953,28.62453615733068 264.8264573422272,28.676025851461986 259.62122413333384,19.767811962643123 258.2381960800045,18.01605881605758 252.30959106668126,17.151511609095564 251.08974765334972,16.63593905559503 240.66398950224504,8.105301647861438 240.62364845333616,8.052549999999997 238.91978527111462,9.02748710061826 238.77502352890554,9.328063778673481 239.28176244445024,15.678192229220826 239.34118175111473,15.766513453687026 238.18330626667705,14.727318229771868 238.12446950222477,14.803555917409199 236.96615711111338,20.33372316473799 237.00271163555556,20.559927896909016 234.63693485334045,21.089466911572913 234.32840592889227,21.841360572252256 230.8576193688856,17.47067850827409 230.5785088266781,17.340911299899403 223.3890639911184,19.782493428974362 223.26796802666615,19.853303214949506 224.7933548355719,22.356658101467133 225.28210776000162,22.483590167095485 223.43989079999267,22.862238961628123 223.4150599377823,22.862577745537806 224.97714690666874,26.996375364083747 225.04734324443382,27.761511971657114 216.295738622233,29.459769783257457 215.9240766844374,29.39450526639814 217.49140653332108,33.328980631900436 217.47385744890892,33.43308015868354 210.58063533332427,26.69149208667625 210.46747650666623,26.612899676889015 204.0963578577863,26.088495701441957 204.04713304001018,26.068847392547127 193.7780787466687,35.90860325934011 193.580596933352,35.8213307289185 192.99303028445104,40.957640492422456 192.91205691555626,41.23772121246259 187.48101577777527,39.98970839265496 186.84990409779823,40.17361003853841 182.96056095112692,44.60997897416348 181.9275679555791,45.89920040657273 180.97198025778164,54.35915125955182 181.00263654223056,54.65304530268588 183.54171963554802,59.14297175758804 183.5930561689089,59.4390971034951 191.00153688001558,58.736812469265374 191.1183365955436,58.74967780007103 193.46190395556152,69.78396850647516 193.45615135113587,69.86791468156264 198.25673616887764,72.3229447488917 198.37928848888953,72.3381762192945 195.0403749244648,73.68653940909246 194.50967896002805,73.83241923148273 196.08239732444747,77.77678071216326 196.2061875466676,78.04358625322459 190.62179216888728,81.15930468477711 189.49297097780038,81.93146637525172 188.64202242668364,84.85227088290378 188.2721809333376,85.57271875213303 181.99747302220896,85.4882327159354 181.26638253333624,85.86418893413031 180.31581926221372,83.77569853963325 179.7747103555663,82.75460466357583 175.86141016000295,84.62644512335066 175.31032521778945,84.89648840482516 166.6661996355757,80.33986505997711 166.48430082668312,80.28831124747342 166.91399853333826,82.95494451630623 167.51685691555724,83.56577348491521 164.11896095111263,85.39754261979363 163.66494210667554,85.5472263170592 161.1566609333455,80.78388012693142 161.0557354933186,80.7936944436002 161.8869504266837,77.31412666154904 161.83532262224583,77.18675791145472 158.54075508446078,78.41226085634082 157.0546170577942,77.3204443243518 154.77651288000163,83.31749461167021 154.7492062133457,83.40863937227516 148.7149426044558,89.9818286756996 148.58598231999315,90.12721383295832 146.1403972533368,104.4159315125504 146.15000920001296,104.59657187447704 140.00011096001947,100.81314788379643 139.85804347554915,100.85532268754434 131.00696976888105,111.65675175084436 130.91638445333922,111.72338372354682 122.99468404445327,105.12540945102921 122.7053061955445,104.96687147378509 107.95213314667456,115.78214363769041 107.71365492445295,115.96071719038412 97.00805805333187,113.15600785714162 96.83205748446164,112.78756762069645 95.57252838221723,116.93756282030483 94.5023255022312,117.38984827051866 86.61375718223974,116.68537710920612 85.95846999999014,116.70792393448176 85.48930505780265,123.60027786068497 85.29560976889445,124.09714486645646 81.93681695112139,122.3053364529984 81.84914434666973,122.32201938905166 82.2612201511289,125.11487400381122 82.28510438223714,125.25847497257166 75.36661449779751,128.5371859687217 74.39544379557594,128.8318083484843 75.50489545780113,126.5541354142839 75.14794271114044,126.41380655809883 71.60987252442976,132.26831347082737 71.36717087112595,132.4923646150488 69.77217026666733,127.6271602201083 69.80683152890526,127.35360852278939 67.67086765333772,130.511148131896 67.63489567110776,130.7155957745341 66.27451394667844,128.39922911342694 66.11081958222314,128.34749520291336 61.343439671101464,128.9453062937315 60.891459724465335,129.02239910323226 63.60850946667017,123.65787769284327 63.77977688000067,123.64694387419843 63.72327028445545,119.17336316200783 63.572828755575415,118.75953337088106 60.28379536889372,118.29700075134281 60.058278711112166,118.2337587216822 52.8027153333602,124.54565138149303 52.27675252446318,125.1347121507057 42.84998146669352,125.58343558350282 42.549535315578055,125.6143197033449 43.370264488890484,126.86567545867695 43.631389040012095,127.10259799408198 40.61651458667586,130.4840987723943 40.040380328900596,130.93029878778145 39.08187991998386,135.61726392477397 39.07649140444812,135.84411870936276 44.56229151110858,142.1992763149825 44.57736479113339,142.22575647090673 35.40574722667918,145.79944571734052 35.216930728907414,146.03673690312246 37.520593946690155,153.29998553251028 37.66309833780508,153.6323275874089 36.41077819554596,160.30983434577468 36.78214886220633,160.70453828448774 23.782209448901654,166.81420090495487 23.50608443556814,166.97008174801124 24.44434150224663,169.41636163465557 24.073990284443084,170.25226147378964 18.961235653354038,176.569525713399 18.831474373356855,177.07446993774613 15.622540542251613,175.61277650413797 14.55932816889947,175.73056927111577 11.495228897787115,178.02015802046628 11.230900364469221,178.2857990640547 12.649754764460909,181.46370730657475 13.145206924447507,181.90431192852668 9.669905662223414,185.94525532608498 9.519027226669664,185.93692355900532 9.821221004450877,191.77155199395895 9.842046888901336,192.66452488455218 8.052549999999997,193.89228252230498" stroke="#009edd" stroke-width="4.954800298860628px" fill="none" stroke-linejoin="round" vector-effect="non-scaling-stroke"></polygon>
</svg>