<svg viewBox="0 0 358.9949861510679 326.4997863702149" width="1000" xmlns="http://www.w3.org/2000/svg"><polygon points="8.05255000000011,292.36839524083894 37.21199220451649,294.94319747758686 37.933179475577845,295.05591853577766 29.100965573313943,315.86358694369096 28.726682195534295,317.10065782818833 43.536070568930654,318.3664692722739 45.94604774224695,318.447236370215 52.01409879999824,302.48625189331483 52.16788994670037,302.5925802054478 46.46917065777939,289.80497170947615 45.69089424887329,288.88994493065525 56.363941573283,263.37032297880046 55.83674086220685,262.99377025126137 104.39280016892712,247.81381455876522 104.52940632004879,247.88000123573124 109.3056700000086,202.9583354205604 109.22265773334198,200.75818864894222 133.92390431112267,220.06338370496064 133.44913239996072,222.58745900574263 152.82186527105637,225.5876419449703 154.67988368889905,227.1205860948901 159.93616215998895,175.16563108689274 159.97373613328796,173.19396741755895 154.4209436711169,146.03861686783034 154.31084319108754,144.90606157770503 163.42005592000328,140.30956170100376 163.6181202755322,139.08746544420842 133.47709442661267,114.95695967364713 132.33356404441997,114.24444434836164 156.07303341336205,109.45043416121166 156.63081759107422,108.57986414709717 133.2915547288501,52.99499407583039 134.464794764506,47.27764123955399 124.57614054214332,41.71456781795837 122.92958495111793,41.19644907498855 132.5287156888296,38.72508785801597 133.82341577774037,37.437081252784765 132.72998402672943,28.55241415077012 132.61813592000522,28.15443467684213 109.35198210666545,24.221206705645955 109.23168713771861,24.237199296687095 104.81718217777211,10.309489864251873 104.54950402663212,8.05255000000011 84.13052532447159,22.011933134788478 82.61649808890775,23.224180554366967 61.6237152977626,48.66793039176969 61.06651366220444,49.611384757248516 83.82032159108326,53.735579883599485 85.7103798311216,54.18970712784335 92.12416969784658,64.14189049785614 92.13640308436129,64.13229671089334 87.29081687992561,85.22709383888991 87.59286502222653,85.94518621496513 117.18134957328562,94.01077148479067 118.61585979557253,94.20307746445883 111.8053586755193,107.0465379400191 111.5665163644369,107.63072873964097 118.30536479104899,117.45987955129362 119.07228162661318,117.64074636376586 116.68939266665961,131.5090360239626 116.94279853333842,134.20175168236142 99.78896898669313,138.91666369941208 99.26875878216356,138.87967185988214 102.45060439999338,169.03962521753397 102.45060439999338,169.3108608052496 113.172585271044,177.61899855660863 112.9334516889428,178.73220545586787 99.6019729332545,176.40167880591594 97.18063618671272,176.17656979079015 90.77150665768545,186.9924968683406 88.9621305155813,186.90985441979842 67.43370015113737,178.87786253923673 65.90132283556864,179.32076905671397 64.26903952888802,167.27156269687816 63.78174295995973,165.25781689221162 38.32144386668347,171.7592717390287 37.50617602674879,171.7031074565382 32.58369424890384,202.36983601327643 32.24785865782883,203.07521331278963 52.64819600896567,194.79635890175246 55.728970551142766,195.00546858667053 55.54692610665347,205.90720016076352 55.834410693357995,209.3116531799094 67.61603586664546,220.10447035320226 66.614937057813,229.6760775816872 58.68886758221902,221.96751340959577 54.641946764407976,221.20467659374822 55.987328026654495,229.19675403586712 55.741786479927896,230.78719113392413 43.87569268441416,232.41870087534312 41.680673591072036,232.27216678669333 44.14249702226493,251.49604538197286 44.20075124441769,252.14511937669135 20.999259617739654,266.6949128582853 17.17690882666625,266.5219295518252 8.05255000000011,292.36839524083894" stroke="#009edd" stroke-width="5.272962528872434px" fill="none" stroke-linejoin="round" vector-effect="non-scaling-stroke"></polygon><polygon points="157.75425026668358,235.7547211766721 204.95706399108872,263.54969877526287 205.15978868443176,263.7578292845062 209.69313225776546,253.30952221339226 211.8631020355749,251.78315359829116 236.0272446844972,246.76212837271282 237.39243238219183,244.56516502789577 266.4108993689076,248.23649602410273 268.6565996355855,248.2944663119631 264.5767651822896,238.86701565839007 264.7221094666527,235.3694472346467 282.0145840622497,225.63968370503403 282.16983156451147,225.39362650152884 308.73433943998657,236.69462238703977 309.64660055991385,238.25213790618704 340.3133707644663,225.6584004752583 340.8047451288219,225.61229330659967 350.8847644710693,209.6777987571329 350.942436151068,208.1944944596396 337.95028823996086,181.89052220443386 338.1865091111756,180.3508656623087 326.0311831021461,176.76468372319482 325.1063973244525,176.68934312996112 332.53031540438656,154.9239470631362 332.9561537689076,154.90339756015578 324.9354211822863,132.75218333406497 324.3621996355721,131.51862682778278 290.50659330664325,124.02716634047806 289.6432657333569,123.67229404886143 288.4927448443848,108.45242994276464 288.12632578667376,107.4261022744247 305.76395664885763,73.81358214535408 307.05632656891953,75.16030274806667 303.60126864884637,59.21473971175851 303.5913654310641,59.1457542367059 215.46991220440373,32.57831694596803 214.38900511115912,32.68432086605003 214.04880045328878,49.80281640063163 213.5655816799042,55.488578889671544 180.723598817807,49.5437668570446 178.70683764442924,50.013436700602824 183.03104856002733,66.90031504128251 183.67213627554133,68.73224038477179 201.2092786044593,83.0079358160508 201.58006672884926,83.57940087244037 200.40129254220642,100.31749640921021 200.84198573334265,101.6590278174624 213.92617531549308,113.50315187845968 214.90076845334966,113.87082960663952 213.706265626686,140.93659122303484 214.86639846218873,141.9728071916395 185.30791483561165,159.15253666541662 185.13606487992342,159.38222982848652 175.2523622666265,212.5754402536911 175.07090036440763,218.75454162198707 160.2877263910848,216.35459683565546 159.95917257780798,216.12131183731958 157.75425026668358,235.7547211766721" stroke="#009edd" stroke-width="6.1739808548064445px" fill="none" stroke-linejoin="round" vector-effect="non-scaling-stroke"></polygon></svg>