<svg viewBox="0 0 481.3876895822607 524.75908003679" width="1000" xmlns="http://www.w3.org/2000/svg">
  <title>Protivín, okres Písek, Jihočeský kraj, Jihozápad, Česko</title>
  <desc>Geojson of Protivín, okres Písek, Jihočeský kraj, Jihozápad, Česko</desc>
  <metadata>
    <collboard>
      <support-module name="@collboard/map-svg-geojson" version="0.11.0"></support-module>
    </collboard>
  </metadata>
  <polygon points="8.052549999999997,153.55065421059362 75.85726068446058,176.2831642305605 76.36989783994034,176.37683730436356 85.87378292447067,195.27523460458133 86.31855391115062,195.5446328801113 97.40578875560425,190.53662566203957 98.93787480003778,188.70431243067242 108.88361816001236,198.33136922689255 110.87241730673816,198.80503953839752 102.52080073775835,182.31518284310687 102.17855718229077,181.2500125327856 135.04063775120414,208.23497019764136 137.57760912887863,209.9324308219143 134.92529439109023,211.40688285497117 131.02488294229954,213.5271150984113 133.65564361771214,227.503903440876 133.4668999378115,230.6122135462715 103.39956567993033,235.3878659908437 102.89391903111357,235.53101356104116 85.85514157333057,269.04683679805703 84.77481702223997,272.99412958996936 61.58555878230948,288.43083005332255 61.468759066635926,288.37287144034735 62.316358000017885,309.93777348203685 60.60310132438428,315.6304629368019 40.900940826722604,328.06292826336676 39.951397004515115,328.111069828366 53.47132816896885,328.05713344467904 55.25565499554034,327.90780537113415 41.638439280075204,331.15511095975626 40.108974675625745,331.2246477972726 55.23788745780587,336.13273416946276 55.22215881778504,336.9626985594873 43.126543386700746,345.8897442025259 41.68242121776677,346.6670771846325 38.13794306663442,378.2559453013596 37.80938925335761,382.32116192448984 28.216666479922083,382.4356928135744 27.433438462299478,382.4512904007929 23.613417839958515,393.7846513166801 22.759410942300406,397.7297114112657 32.73777666674107,396.6370620507291 35.01027387553006,394.9593089169134 34.17549087116606,414.92129270730175 33.629648808833394,417.8527422049442 54.12610562667362,422.550822282828 54.74593055117987,423.3532821367039 103.41529432006757,413.75966331645714 104.17201666659787,413.7757042703229 110.51240621330328,426.7248291944629 110.93212788445055,426.88344702791755 118.71256180442981,411.5727356845523 120.2056175200047,408.1639727174547 132.22521119120177,405.215016048845 132.77687867554016,404.53904082449253 129.50182630224265,411.29023367117725 128.85724333333894,411.86726815542306 137.12730399109535,422.52186060112535 137.52896685337294,422.7161265781392 123.35076297782473,481.437649957697 122.7018109422421,483.7352451468828 135.07355138668902,491.14769958655916 136.3612609689368,491.7695130564166 156.98209055115115,472.60518256601745 157.1221919555461,472.5281174197221 192.3622098755801,479.2130846231953 193.07582409782447,479.2892565344587 207.25431924439147,493.4153504210767 208.8568928977253,495.13244234977856 236.45570448888577,484.2849183078865 236.6875562933052,482.6078318085997 250.05223995549716,487.67691484132183 250.16408806222137,487.64796171020816 258.9496985866932,474.5166568544005 263.9216964533331,471.30041700797256 273.4785928799316,474.7309226903376 274.3387164710799,475.27750008603425 271.5655242223071,484.02121790240153 271.7857251822494,484.92590497234005 294.51768777785,481.63186404811086 294.793521519961,481.770842833655 313.65128706672806,516.5056662066268 313.70691984889675,516.7065300367899 357.63089467559587,499.5879106379357 360.2048574845318,499.2458364859699 362.1257904622249,435.80462540008693 360.9560456799587,430.3440498473133 382.42884326223395,411.06654885502167 383.18847831999994,409.7075027639289 404.18796034667287,413.2312023510235 405.48673823112733,412.8292859965363 409.9775562222127,396.6415182173728 409.8357071911229,396.1473287899057 421.9473425333632,389.8711603980405 422.1186099466646,389.7419275615607 412.4181168622814,376.1671559784804 411.7965443110803,374.9063857891956 417.01699643556606,368.85868871954835 418.3967476889735,367.1103073608024 436.5082766489137,379.60760917832476 437.76889801779873,379.3870117820111 454.5947562933212,366.12090366116126 455.87372774221114,365.0191840469265 452.6945035644818,350.77833861645877 454.9929239022091,345.39633245298273 473.0042556000186,334.2254088892146 473.3351395822607,333.7881347483267 464.3648631733155,314.5547921607281 463.65882200000453,313.6186467247094 433.6185759556025,301.42833287173517 432.4261120266525,301.4359116269984 424.62295895998943,245.19080702492602 424.2600351555517,240.5736729957639 385.69195352003555,258.5243901429708 383.45324376002065,257.81140141291644 363.42718978666346,280.21036318745564 363.9045831378095,281.6375309885839 332.9491632622445,296.95102621764045 332.7225543377932,297.0932421757384 329.7419770577468,270.29037764491613 329.54274761779345,269.63583640286333 296.94339359107073,266.00862610151626 295.8956914044462,261.41957334030985 266.88275856883376,270.40318326213264 265.19455120896566,269.99030550485577 224.27765933328885,240.02963499390853 223.50258690663725,239.5333106290559 200.06895220440458,235.02085481791391 197.09099636445865,235.29288016880264 177.4727219467528,180.99040994313646 177.31689190222062,180.66166876789748 181.50828319110553,145.02758888013295 181.56915885335877,143.1618835910699 173.60289396448172,134.99533340891458 170.32580269335415,134.54695627708088 167.5039681688428,109.65635573960708 168.27234135996662,107.1919944745382 152.31010192886572,113.33432907271299 150.96734210660327,114.12720694408154 155.02999156443514,102.5175300682672 155.15611195550412,100.51135303072033 145.15415327109042,96.88760483024043 143.84488962669968,95.52305028492219 149.37612802661135,83.1676013505562 150.92452525333613,81.61776645694727 143.5775027466949,72.3087100912594 144.0280991556134,70.06171448701161 173.85833872887417,83.380909186591 174.0153338578308,83.2622065251121 169.41092013332639,77.88615841090314 160.8254128622135,67.77899339583337 168.17156155556552,63.71734259554751 167.86485307556688,62.423096850375714 147.3401429600559,57.84229840498983 146.31195593786072,57.31030550550304 105.003304417805,11.962560350460535 103.56442512895558,8.648497379129822 82.72805492449663,8.102547145426342 81.84492091564573,8.550735335367335 65.09916219555419,40.510362037668074 64.33865332449898,42.68222887555703 81.2816025867138,62.613217563928174 82.12920151997935,64.56127598343983 92.2933982133178,108.66311839406944 92.24155195555761,108.82062668153185 45.594192240015786,133.2852493618625 40.12674221336022,133.64796853261169 39.497305342206914,146.50292140295596 39.94411522671692,147.35902909338574 50.18549876448344,147.78552027091018 51.02086431111786,148.84728342420522 47.77697794672679,156.89599550967205 47.75746278218105,157.17391663158878 8.052549999999997,153.55065421059362" stroke="#009edd" stroke-width="5.366300523866553px" fill="none" stroke-linejoin="round" vector-effect="non-scaling-stroke"></polygon>
</svg>