<svg width="13948.232015075628" height="4614.437714873406" xmlns="http://www.w3.org/2000/svg"><polygon points="11749.955888071097,4298.521918313112 11762.256267093355,4353.705084863817 11762.814051271067,4355.479099731427 11784.612489955616,4404.149588255677 11784.725794417784,4404.393253432354 11790.93889848888,4452.456185384828 11790.99336618674,4452.660461616935 11799.88383431104,4450.24712920055 11800.26219548448,4450.314178986242 11805.404878222267,4462.611658107431 11815.81636408891,4466.070758976915 11843.516829297878,4467.132301833306 11844.100827875547,4480.163161135104 11869.817154275603,4476.725735168962 11873.760965120047,4478.155954030575 11869.405005653389,4489.02799509617 11869.226747733308,4489.775690748531 11872.797731555533,4510.8133658662555 11872.953561600065,4512.523999064346 11869.981722453376,4512.359996928135 11867.282221795642,4512.2429163092165 11871.15554503107,4523.579338081065 11871.063794631162,4524.335406457074 11856.873357368866,4531.756088639901 11855.648271075566,4532.404442493571 11840.74946247111,4567.707129527873 11840.681596302195,4567.843838076224 11844.536278186715,4568.659173242981 11845.400188302272,4568.484937488509 11850.474713600008,4585.367741261027 11850.661127111176,4586.193286134978 11845.508541155607,4600.428534226841 11845.483783111093,4600.487944479508 11857.99504241778,4609.106281471788 11858.074268160039,4609.149162371294 11868.684983466752,4606.205994580465 11870.161145457765,4605.852668862673 11868.968681528931,4600.222608339915 11861.766129493364,4597.95696416928 11864.405628302251,4586.6954017408425 11864.404754488845,4586.070437391463 11882.19035107561,4577.43690269225 11882.992511715507,4577.31360232085 11885.601427057758,4559.388299243874 11885.629680355662,4559.266329092614 11902.7899178667,4557.446597892325 11904.233457493363,4557.71064526285 11899.699240106624,4548.675219908648 11900.192653368926,4546.3152163333725 11920.56240725331,4533.47192100354 11922.473728284473,4533.301232029102 11931.538085262175,4475.30042343575 11931.822074595606,4472.509664034995 11965.316504746675,4472.698278293712 11965.574279680033,4472.653582986328 11967.48676579562,4456.433950374834 11969.288277617772,4456.004396342789 11985.539457991137,4467.622621162445 11986.907267128932,4468.2465810988215 11985.410424888949,4457.150914861879 11985.715968284523,4455.626692052523 12000.407391857821,4439.606963299448 12001.299555271049,4439.181846623076 11998.734913137741,4433.818421822973 11997.912072248873,4433.162624871649 12003.296801279997,4430.800040915201 12009.384950044448,4427.938978126505 12015.66679409775,4432.581927779829 12016.133119146689,4432.44200592651 12020.346647039987,4425.267427153885 12021.307259164518,4424.423843324883 12033.900656924467,4422.06787135452 12034.463975253282,4421.909613509546 12052.416470186668,4423.189084691228 12052.618029795587,4422.783159629616 12051.98451512889,4414.904578062356 12052.064614684437,4413.900008453173 12037.827574044466,4396.917304079048 12037.393871359993,4396.169292771374 12043.43978581333,4391.944970767887 12043.754067342146,4391.538988046581 12044.15019605332,4381.36681954714 12044.712349297828,4380.30575703131 12035.728383146692,4363.3325323574245 12034.66903011559,4361.56394698075 12039.50121784897,4360.274726478907 12039.603454008931,4359.408981380286 12008.450552319991,4344.569151254545 12007.882573653362,4344.311556162196 12009.501167217735,4342.800862204109 12015.887868871097,4339.104135118134 12013.687315626652,4328.5981322034495 12013.64362495998,4327.5605192253715 12007.92364288005,4326.7067210816895 12006.910019413335,4326.118586854485 12007.704315733281,4318.814410112798 12007.575282631093,4318.36401297478 11994.384487822186,4305.187587563181 11993.950493866694,4304.614603801281 11999.071913813357,4296.746101989062 11999.059680426726,4296.144020957348 11986.231518151122,4276.680617564532 11985.7753875911,4275.675863744516 11990.43048248894,4271.182598588348 11990.405141902156,4270.193477409892 11985.815583004383,4267.169271082501 11984.49641614221,4265.700100215385 11983.347934151068,4255.897025528946 11982.583056213334,4254.230029861792 11957.050521884463,4259.318666786712 11956.183990328922,4259.333430552273 11940.001258666744,4272.414184681955 11939.554740053252,4272.534077184275 11936.623678862234,4264.794613646343 11935.212761600036,4264.954774091602 11923.754738631193,4275.003937657457 11916.60257649771,4272.560024060542 11912.696048355545,4280.488440770772 11912.456623502192,4282.682651051844 11916.617722595576,4289.701740189805 11917.805526186712,4289.662822908373 11903.364595768857,4305.506507620739 11897.155569493305,4309.334854090121 11861.382234168937,4300.639012585976 11861.093875768944,4300.164423818991 11849.424972515553,4303.031622166629 11848.627180942218,4303.544672280317 11842.865838364465,4312.943073365139 11842.834672355559,4313.005244964792 11786.944989013253,4297.951601031818 11786.279143253341,4297.825907377119 11749.955888071097,4298.521918313112" stroke="red" stroke-width="3.922693419880704" fill="none" stroke-linejoin="round" vector-effect="non-scaling-stroke"></polygon><polygon points="6995.113450666657,3093.56113335141 7061.944150755531,3075.3878768911236 7062.19610026665,3075.505276541342 7091.47933269327,3057.7475269201095 7091.5043820089195,3057.690846638987 7107.511768462253,3055.6458482685266 7107.857798542245,3055.3516476355726 7125.259791075601,3067.9025071969954 7125.921267768834,3068.077488112205 7128.598049280001,3055.0070635169977 7129.7479876267025,3052.872519264347 7138.484082062263,3047.885387047194 7139.310126933386,3048.1764486692846 7159.797263075598,2998.133357360377 7159.970569386613,2997.797682519653 7141.889041351038,2973.246127240651 7141.866322204471,2970.857423542766 7111.669954844401,2951.486269983696 7110.3403022221755,2950.6451028389856 7071.471920071053,2948.962758853042 7071.07550008886,2949.0127162844874 7060.012732017785,2956.256423169165 7059.316885333275,2956.6038630423136 7052.221812337753,3008.3198990731617 7051.418195342296,3009.6706297838246 7010.189060835633,3014.9056449310156 7007.854814151186,3016.5132441452006 7004.215964160045,3033.2701772287837 7004.559081528918,3034.7363759818254 7015.731950080022,3042.867549819697 7017.810751999961,3044.2225661483826 7024.293281848892,3066.3807521082927 7025.061072497745,3068.713085993193 7003.608081351151,3067.721678443544 6999.890879431041,3067.2988444572547 6995.113450666657,3093.56113335141" stroke="red" stroke-width="3.543169143326841" fill="none" stroke-linejoin="round" vector-effect="non-scaling-stroke"></polygon><polygon points="11749.955888071097,4298.521918313112 11762.256267093355,4353.705084863817 11762.814051271067,4355.479099731427 11784.612489955616,4404.149588255677 11784.725794417784,4404.393253432354 11790.624616959947,4448.924009250011 11790.893168924493,4452.430259722518 11799.88383431104,4450.24712920055 11800.26219548448,4450.314178986242 11805.323904853314,4461.497797279153 11805.404878222267,4462.611658107431 11831.525780195603,4467.554682724527 11831.729961244506,4468.188029059791 11832.233860266628,4468.029804387479 11842.836419982254,4467.186831475468 11841.897944462136,4462.32246605074 11842.280965973274,4461.947901430889 11916.380627911072,4459.383591674094 11919.090031786589,4458.996953567839 11931.20632746676,4467.136771476653 11932.436947911163,4467.845208792714 11932.174803911126,4474.389095102204 11932.204222293338,4474.584411987744 11945.787068017758,4475.291037532908 11948.8573568,4475.560546867899 11965.316504746675,4472.698278293712 11965.574279680033,4472.653582986328 11967.48676579562,4456.433950374834 11969.288277617772,4456.004396342789 11985.539457991137,4467.622621162445 11986.907267128932,4468.2465810988215 11985.410424888949,4457.150914861879 11985.715968284523,4455.626692052523 12000.407391857821,4439.606963299448 12001.299555271049,4439.181846623076 11998.734913137741,4433.818421822973 11997.912072248873,4433.162624871649 12003.296801279997,4430.800040915201 12009.384950044448,4427.938978126505 12015.66679409775,4432.581927779829 12016.133119146689,4432.44200592651 12020.346647039987,4425.267427153885 12021.307259164518,4424.423843324883 12033.900656924467,4422.06787135452 12034.463975253282,4421.909613509546 12052.416470186668,4423.189084691228 12052.618029795587,4422.783159629616 12051.98451512889,4414.904578062356 12052.064614684437,4413.900008453173 12037.827574044466,4396.917304079048 12037.393871359993,4396.169292771374 12043.43978581333,4391.944970767887 12043.754067342146,4391.538988046581 12044.15019605332,4381.36681954714 12044.712349297828,4380.30575703131 12035.728383146692,4363.3325323574245 12034.66903011559,4361.56394698075 12039.50121784897,4360.274726478907 12039.603454008931,4359.408981380286 12008.450552319991,4344.569151254545 12007.882573653362,4344.311556162196 12009.501167217735,4342.800862204109 12015.887868871097,4339.104135118134 12013.687315626652,4328.5981322034495 12013.64362495998,4327.5605192253715 12007.92364288005,4326.7067210816895 12006.910019413335,4326.118586854485 12007.704315733281,4318.814410112798 12007.575282631093,4318.36401297478 11994.384487822186,4305.187587563181 11993.950493866694,4304.614603801281 11999.071913813357,4296.746101989062 11999.059680426726,4296.144020957348 11986.231518151122,4276.680617564532 11985.7753875911,4275.675863744516 11990.43048248894,4271.182598588348 11990.405141902156,4270.193477409892 11985.815583004383,4267.169271082501 11984.49641614221,4265.700100215385 11983.347934151068,4255.897025528946 11982.583056213334,4254.230029861792 11957.050521884463,4259.318666786712 11956.183990328922,4259.333430552273 11940.001258666744,4272.414184681955 11939.554740053252,4272.534077184275 11936.623678862234,4264.794613646343 11935.212761600036,4264.954774091602 11923.754738631193,4275.003937657457 11916.60257649771,4272.560024060542 11912.696048355545,4280.488440770772 11912.456623502192,4282.682651051844 11916.617722595576,4289.701740189805 11917.805526186712,4289.662822908373 11903.364595768857,4305.506507620739 11897.155569493305,4309.334854090121 11861.382234168937,4300.639012585976 11861.093875768944,4300.164423818991 11849.424972515553,4303.031622166629 11848.627180942218,4303.544672280317 11842.865838364465,4312.943073365139 11842.834672355559,4313.005244964792 11786.944989013253,4297.951601031818 11786.279143253341,4297.825907377119 11749.955888071097,4298.521918313112" stroke="red" stroke-width="3.8261209373669804" fill="none" stroke-linejoin="round" vector-effect="non-scaling-stroke"></polygon><polygon points="5,41.73933593346737 14.772145777824335,56.66830088093411 16.37937976885587,57.2406820806209 13.186757120070979,71.34586672252044 13.459969422314316,72.05274365074001 48.23191466671415,67.65000299934763 48.581440000096336,67.42288592382101 54.44181475555524,77.35698340425733 54.458417208865285,77.8946512270486 57.02830222225748,72.82392094912939 58.115617280011065,72.51107229886111 106.65274396445602,72.52429768821457 108.48163527110592,73.2539730949793 115.1826184532838,67.68968005443458 116.26410808891524,67.91223627468571 114.83862727112137,55.76799464621581 114.85173447115812,55.67449758388102 102.85019960883074,47.86210552882403 102.99059228447732,47.0470537279034 110.55199032882228,37.81627566553652 115.28864113776945,36.60618357511703 119.96529009775259,21.672644339152612 120.31015509332065,20.10027289064601 98.72376177774277,29.112858364125714 98.40511118224822,29.65155808290001 76.48637752886862,26.401550046692137 76.08442339557223,26.66702621418517 61.07726193778217,18.438938537845388 60.40704711107537,19.082581665948965 67.49978993774857,11.839091401314363 67.5414417067077,11.44951714843046 37.062832640018314,5.23949957487639 36.89709937782027,5 5,41.73933593346737" stroke="red" stroke-width="3.9047211110199247" fill="none" stroke-linejoin="round" vector-effect="non-scaling-stroke"></polygon><polygon points="5963.364765297738,49.00189583119936 5973.827806151123,54.49506288790144 5973.865380124422,54.37237577047199 5972.39999516448,46.314553525007796 5972.024546702276,45.787753904471174 5963.364765297738,49.00189583119936" stroke="red" stroke-width="3.4250774794320398" fill="none" stroke-linejoin="round" vector-effect="non-scaling-stroke"></polygon><polygon points="13842.961935075582,3419.5083204512484 13850.262354204431,3435.1791531244526 13850.706542648957,3435.741387147631 13873.51918734226,3457.071085987729 13873.67326975998,3457.273595921928 13881.053788444493,3475.23247491871 13882.671508195577,3476.590208204754 13918.933596444433,3456.00779350783 13921.638922524406,3454.5480030773906 13941.935858631157,3452.3737908857875 13943.232015075628,3451.9575359071605 13938.695467519923,3438.0356642352417 13937.904083911097,3435.5123622802203 13924.956209208816,3424.512600034941 13924.39580359112,3423.671001639799 13935.424492942286,3412.7510369378724 13936.12150471122,3411.9147827979177 13918.826117404387,3394.3136326880194 13918.517952568829,3394.039200037194 13873.796768711181,3418.787062446354 13872.259148515528,3419.4126618361333 13848.17306652444,3412.7447493246873 13847.851503217826,3412.5646540410817 13842.961935075582,3419.5083204512484" stroke="red" stroke-width="3.944782075747444" fill="none" stroke-linejoin="round" vector-effect="non-scaling-stroke"></polygon></svg>