<svg viewBox="0 0 70.64051831110488 103.37833243574939" width="70.64051831110488" height="103.37833243574939" xmlns="http://www.w3.org/2000/svg">
  <title>Ledeč nad Sázavou, okres Havlíčkův Brod, Kraj Vysočina, Jihovýchod, 58401, Česko</title>
  <desc>Geojson of Ledeč nad Sázavou, okres Havlíčkův Brod, Kraj Vysočina, Jihovýchod, 58401, Česko</desc>
  <metadata>
    <collboard>
      <support-module name="@collboard/map-svg-geojson-import" version="0.11.1"></support-module>
    </collboard>
  </metadata>
  <polygon points="8.052549999999997,56.57489716418024 18.603190639994523,53.056235066287286 18.81763899554028,53.15565830843809 21.700349182217565,58.19211548606802 21.772657235538304,58.41165898262227 21.609181324434417,62.17078245826235 21.66699864000077,62.284261414468006 26.621957146656882,63.41689908857336 26.84274064889871,63.41205832543312 27.52824720886531,66.05246215369664 27.88803984889057,66.45118526598492 26.464161022223948,68.05685502611561 26.37823604443804,68.18326687394404 28.523374960008027,68.53402163809335 29.552581431089152,68.76241626250669 28.29072215999588,74.2761292233987 28.05908880886966,74.56021362059221 17.421358106664798,80.58427894073941 17.131397715543812,80.86686756920938 20.041487386660833,79.97419313803368 20.056851937762644,79.98297139925819 20.508759066644075,85.15953686612886 20.46091778664379,85.34465030405374 24.127365715546716,88.4866444016003 24.20346029333416,88.49170799549722 24.58720998222236,92.68847855613387 24.648376915552603,93.09398354692496 39.755007457780835,94.9604604239936 40.59481488887798,94.79889438332577 40.021010800009776,82.87004261106597 39.79957193777193,82.70697790136148 43.91712599999266,84.0310628020012 43.98389990223916,84.0615593655308 47.63694935999922,90.11248406624475 47.78091010667379,90.19057356460655 53.5108682221977,84.93289864937071 53.665897271108065,84.51124103838049 59.04851458667656,84.30463099892188 59.32354733334034,84.14393376225019 59.32012489779265,78.4298724979086 59.37444695999841,78.1253248916397 62.46490626666457,73.95974030801847 62.58796831110487,73.614873180784 60.33069001779188,72.57395556262748 59.905142924435154,72.7481935854372 50.319993199991245,79.73706701047888 50.099792239990734,79.8195604594872 46.13646623108764,78.11103159574088 45.9672377155581,77.81379772243201 47.55648571556196,67.72939857848507 47.60046765334084,67.41612369706093 50.03702331556235,67.0733541198639 50.085956862232365,66.89943572990126 46.8501532711158,63.28360908183788 46.838429608883985,63.2455583277839 49.461617235566905,59.48988622698346 49.58598999999924,58.89645293661272 45.31996048888652,61.4435208608553 44.519474657783235,61.77957095842396 42.519898479985955,60.05178990297247 42.384603048885424,59.99189581681969 44.84533421332128,52.50596975500923 44.968833164435296,52.39134452658584 40.77918950221613,52.12639943981014 40.546318248881676,52.02472234029085 39.255841591111334,46.013839898739775 39.23632642665291,46.016542579563634 41.26961723555689,42.54157302437636 41.303259048879795,42.38964998054837 39.51762150222896,41.267613720897884 39.28234726223275,41.03031975530723 39.25613286221744,31.68020808323456 39.07299615108752,31.065972050295045 40.938077893347895,26.65899508928817 41.24828162664892,26.391221662073463 41.18376507555479,10.2963854222686 40.67993887110026,10.085100106509003 35.418563155551624,12.047599372155332 34.66810313778808,12.008386135413843 29.66654125331081,8.684060603518105 29.4759771289024,8.778493574958361 29.75144678221079,18.606631542722994 29.536634337775126,18.977083187746416 31.1151053066784,20.51136622591696 31.313024026668813,21.330316395127397 27.68211117332214,24.429687812989528 27.398704382219535,24.559580209526416 24.803770053323774,31.70870630493266 24.600244364446212,32.35515011985956 27.258093253308857,37.51245953943692 27.310012328881953,37.63117059745821 22.10099259555102,44.11224561486563 21.719063351112368,44.50639886093961 11.247794088885371,41.76348383354309 10.814528311114941,41.71719680682111 8.563803617762119,47.80163408663759 8.429382000009014,48.779513415203496 12.077188577771835,52.02190735699662 12.017113911111323,52.390331139402065 8.052549999999997,56.57489716418024" stroke="#009edd" stroke-width="5.687364231868635px" fill="none" stroke-linejoin="round" vector-effect="non-scaling-stroke"></polygon>
</svg>