<svg viewBox="0 0 266.7881643201247 395.02955551243144" width="1000" xmlns="http://www.w3.org/2000/svg"><polygon points="8.052550000000338,255.2816358987834 14.718580648979696,272.0248624649025 15.257432204532961,274.07163518088737 11.23614324452501,285.27850390572667 11.32265076458134,285.6317221869026 33.258860684560204,318.15732144666936 34.31559227567777,318.58267235538324 23.886047600048187,328.44363479989215 24.147900328949618,329.6447007903839 45.57555088899244,338.9377751889183 46.05440059558168,339.3206000058922 64.54836852450535,370.254994739174 65.32402349342738,371.18588162968035 87.76558879120421,358.22938531861973 88.02336372456193,357.81690242895957 109.42479988453124,371.3516868730435 111.0291211644435,372.1354917603089 124.93353019559436,364.0227912543701 125.37742736898508,364.0730369422595 152.0619389422718,386.44537039465604 152.46855341338232,386.97700551243133 172.23770626678743,366.50582784796234 173.04656614232954,365.5324406983341 202.79175455121003,374.248918895471 204.7610385333901,375.88227746173607 222.74033040888753,360.5526131492584 224.00095177777257,359.13611404851645 224.84389037345682,323.50544299328567 224.87534765349847,323.3866581975958 245.93832678229228,302.0157565500481 247.62012617788423,300.45403322167795 242.63210840008833,270.63794475215354 242.64026399117574,269.2926032361934 258.2952124000076,252.68261352924264 258.735614320125,251.16760720089178 226.48170783112437,232.43229556651886 225.5918745867457,231.42768278244284 231.98323657792207,218.06195859573882 236.19967718233966,215.63847001139175 224.1282372534988,161.4255927038389 223.77958573340584,160.35298353408098 209.16651408895996,148.55073129802577 206.62983398230426,147.51738063185576 190.42001410676312,151.09156415277494 190.1028198668282,150.97451366330597 184.30681602677942,139.4918273763974 182.61336578682676,135.92248220983993 190.12816045337968,126.40988536106988 191.2539232978379,124.0516770758909 191.52859195564088,98.49111174760719 191.7080149601461,91.77817905692018 209.7158514045659,61.50290947242274 209.89177915568143,61.212906507520074 186.20153460451547,76.70739450326755 185.49957122674823,76.86747936494749 167.7331985333949,62.825299769617686 164.8799067289583,63.18619976528089 162.17428937785007,46.40119734893187 162.4888621778009,44.26764219403367 136.8031192444978,56.87242138162355 134.60810015115567,56.94332261788759 144.79996760012727,42.50186237259868 144.6036508711768,40.63222435655871 129.62619906673353,30.732983581641292 129.27667373346776,30.729781203066068 125.79656649786193,11.01366780474882 125.61044425782893,10.50261251044094 102.9157643645085,8.3773964844072 101.91291792898119,8.052549999999883 90.37479540447384,36.9066239584713 90.31362847120181,40.12398377751333 68.85685080008261,51.45183875083558 68.83092767114431,51.89235192628212 72.55075103123818,76.67492013113906 73.42339928015281,78.40062895804977 106.14712607113324,97.8320845818157 107.0395807556124,99.14967956892315 96.54275245345343,106.18433944203525 96.28701641780935,106.23693160442735 95.88884880903788,134.67644406590944 96.73703028457385,137.51465702706582 89.7360378578087,144.63357460904035 88.64435373337619,147.1822264583093 50.70017481791001,147.0029896341507 49.82082733335119,147.2416672090544 30.150415386749955,163.73995977474942 27.62888137796108,165.4005097630211 50.51492639116623,195.68776765347093 50.77910928903293,195.84685029116326 39.61264870232117,217.25245608957584 39.81042178671487,217.56921830014426 21.051688417886908,220.94981470666926 19.764270106774347,222.16336098171405 20.259139724519628,239.9333789254665 19.426978160023282,242.48228041307402 8.052550000000338,255.2816358987834" stroke="#009edd" stroke-width="5.39071481597001px" fill="none" stroke-linejoin="round" vector-effect="non-scaling-stroke"></polygon></svg>