<svg width="469.0656989866402" height="797.3974091367563" xmlns="http://www.w3.org/2000/svg"><polygon points="5,239.2274560792721 7.864068835508078,242.1542235291563 10.754643342224881,245.88860319042578 13.457930524484254,249.04504748783074 16.74492501327768,252.15217754547484 26.942035342217423,257.8888312174822 32.067241813289,260.32590738718864 34.4734324621968,262.0446902348194 36.725540693383664,264.2197389388457 38.442292622174136,269.2792666660389 40.18875420442782,272.8939315774478 41.919487146660686,276.282941389014 55.046202311175875,289.8237159040291 63.954437973327,279.4412424527691 73.19210126227699,282.9199239904992 82.75453183997888,286.732321356365 87.94207032897975,289.6386478134664 90.19213966222014,290.63856605417095 91.8375301688211,292.8404875167762 95.31705486215651,298.1074218485737 98.09956778667402,303.72040229290724 101.81706097780261,307.9513319301186 103.96664177777711,310.9126110296929 95.23375132447109,323.0408638413064 89.98650225775782,328.1961312252097 79.72735118214041,337.3542516878806 74.71777934220154,339.1433008023305 74.36009841773193,344.03353808348766 59.21167047112249,354.8878575001145 59.8081937066745,369.0817800150253 51.772023751051165,385.81580411316827 48.942033635568805,386.3307261185255 47.289361351169646,392.02331629849505 46.60458296886645,394.02173826354556 40.41681948443875,394.5927783000516 40.75789795559831,397.1516264792299 41.845504284487106,401.64345662354026 45.17851960891858,408.2728992982302 45.625329493312165,412.33843944757245 49.52952746662777,417.0972693677177 54.78988373337779,421.82930923916865 67.79251740442123,439.0685149875353 69.14110264892224,440.6957040920388 77.85389539552853,449.3664781433763 84.74391352885868,456.8496168210404 88.9085078756325,460.56095853063744 88.32713073783088,461.22152281715535 85.85627790226135,464.414375005872 81.95557518221904,467.41490457148757 85.40888547559734,471.3859536256641 66.96472490672022,481.3226854856475 59.70945279998705,486.26903213601327 65.54565205331892,492.50124897481874 62.68303957337048,496.07951790932566 69.90452423109673,501.60594102478353 62.88343409774825,509.2505315518938 65.13379470224027,512.0476241986034 62.5309960533632,514.1051795495441 64.56057315552607,515.3855080624344 65.44341589335818,515.9920978326118 66.30033550225198,516.6511126848636 68.77759630221408,519.2600191262318 79.35277653334197,527.8715317498427 93.22689336887561,534.6667777553084 100.49498140451033,542.6895553306094 109.97119573340751,554.3325592541369 117.596382151125,561.6920518258121 122.29720661335159,562.8107131721918 124.17677909333725,562.6304771286668 122.05108252447098,563.7767206240678 120.29588280885946,565.0829618019052 119.68159203557298,565.3960722921765 116.4755709154997,567.062768794247 113.36217400885653,568.7060039922362 110.20246499555651,570.6388813017402 108.64008675550576,571.5418656214606 105.94320753775537,573.1041483014706 105.0982300444739,573.5091997329146 99.02901390218176,575.6971999319503 99.4848531910684,577.2479586438276 100.89693553780671,580.1181891274173 101.67695957329124,582.3764631189406 103.59847509325482,590.4319457889651 105.20716543996241,597.4343901057728 106.88925610668957,604.5993397581624 108.23434609780088,610.3280022820109 108.95349447114859,612.6466377180768 109.62691327999346,612.8562514300575 109.25991168001201,614.2918240751023 108.41842944000382,615.456180013949 107.15169137786143,617.2093673493364 104.77550165331922,620.4196766016539 103.23409493337385,622.3070440195734 102.11386624001898,624.0440877500223 101.15878826670814,625.1270325186197 97.4957627733238,629.6770878265379 99.0007606043946,630.0218198971124 101.06121244444512,630.5407555353013 103.69284693337977,631.096920776763 105.459697493352,631.2021783346427 106.72061013325583,631.0288940308383 106.64021930668969,633.127141558216 106.09146453335416,633.1344957305118 106.27263516443782,635.5273462351761 103.56497891549952,635.5333214337006 100.91819832881447,634.6609406946227 95.66949290665798,633.2094163466827 94.97044224001002,633.0145307633793 94.54198243562132,633.7738481275737 93.62476970662829,634.841576195322 92.33880775119178,636.495785869658 90.80788679118268,638.7879415220232 90.27107413334306,639.6763923371327 89.73717418662272,640.6540057415841 88.60179939563386,642.6538019668078 87.88002958218567,644.6016435810016 87.6167204977246,645.781922250404 87.81099832896143,646.6822940433631 87.66186752007343,646.9474870607373 87.36127573333215,647.2705900712172 87.08311182225589,648.8571429246804 86.97767168004066,650.9326967708766 87.07437368889805,653.031669912627 87.35370268451516,654.3162295641378 87.77488071110565,656.0681819550227 88.00032455113251,656.9928688239306 88.67490844440181,658.6276062413817 91.00041699560825,663.2412951054284 93.32621681783348,667.5750119959703 94.18867057771422,669.1664706936572 95.12102940445766,670.7831932097906 96.7469047466293,674.113107098965 97.3690598399844,674.8961762660183 99.09105464885943,676.8060443110298 100.26254705782048,677.766946023039 101.7829822577769,678.6483432564419 103.32438897783868,679.4603468017885 106.40050318220165,680.7208533254452 107.5050032355357,681.1367315509124 108.3394949688809,681.5806404630421 109.36972088890616,682.0617705194745 110.02158563560806,682.6394008892821 111.21958371554501,683.6558795352466 112.18602126219776,684.5579313937924 113.17284778668545,686.2825264111161 114.24967708450276,688.355422670953 114.96416511991993,690.5817765444517 115.08416881773155,692.1376832822571 115.10601415112615,693.5947848234791 114.3670593422139,697.6751681905007 114.1022939021932,698.4434479582706 113.76820593781304,699.9758638468338 113.18420736002736,702.7488886213978 112.53845930669922,705.6160714626312 111.85863253334537,708.762117516424 111.1295809422154,711.6067064978415 110.42703502217773,713.9343619771535 109.49525873770472,717.9454424906289 110.21644600888249,718.3906540467287 108.95611591113266,727.8685261060018 107.83559594664257,737.8683347918559 108.03890318225604,740.3087212983519 108.59144448000006,742.7862917929888 109.62079658661969,746.6456954892492 110.65364394662902,751.1945671630092 112.0872803555103,751.683351547108 114.31987342215143,752.2222074846504 116.657615359989,752.4045821220498 118.74894193781074,752.751874456415 121.84457130671944,753.0532281983178 124.0707564088516,753.3839818210108 129.0104231821606,754.345920725842 133.27871004445478,754.7074506193167 133.88542776892427,754.3073330013431 134.35058773332275,753.687172196398 134.66050019557588,752.9898336961633 136.54589809768368,752.3182183331228 138.90665045334026,751.3204384354176 142.60521102219354,748.3665786378551 144.8424644266488,746.8459911902901 146.44503807998262,745.7820329979295 146.92010126216337,745.6814252809272 147.67798869335093,746.9190347598051 148.545394062181,748.329827405978 149.86951253330335,750.2064291857532 152.0429775643861,752.6126819609199 153.5404023466399,754.2563420691295 155.68182755552698,756.1149767356692 157.65868458664045,758.1738805832574 158.45327217772137,759.6806072307518 158.87328512000386,761.1965106202406 158.79580700444058,762.1009945707629 158.61318001779728,762.7445585474488 158.74541710224003,763.3380505351815 158.63123882666696,764.7032596555073 158.20219648000784,766.2829777353909 157.59081841784064,767.7221234549652 156.81312455108855,769.9237727537984 158.19491470220964,775.1602362447884 159.3069878043607,776.4927581229131 160.10157539555803,777.7894442137331 161.40297471999656,778.3263976678718 163.27934321772773,780.2505081858835 164.53617806220427,781.9789318225812 165.78718748444226,783.4046527277678 166.30419370660093,783.9889016153757 167.320147342165,784.3457887191325 167.64083683560602,785.1716333193472 168.72174392885063,785.2313438743586 172.21029802667908,785.3002406479791 176.05478542216588,785.1771450635279 178.4245671823155,785.1082482506754 179.1323559822049,785.5239253547043 179.60246755555272,785.6745794003364 180.6367712711217,786.0778540414176 181.3011606754735,786.3961557033472 181.9410833066795,788.7997085085954 182.63518236437812,789.2562565038097 184.5709701688029,789.9865475668339 185.92246812442318,790.973125531862 186.4522902755998,792.3974091367563 187.9500063288724,792.2150682904175 189.21004515548702,791.5389819944394 192.15042702225037,791.1922113674809 194.65040696889628,791.460901239654 194.98129095113836,788.1603559706709 197.97672305779997,787.8866096209968 198.94461696001235,787.5030885640881 197.86691384890582,785.6033861906617 197.7393371022772,785.0554273458547 198.8196616533678,780.1687487658346 197.80166911997367,778.4784347164095 201.64761287113652,775.9603934232146 201.6840217600111,774.7546445329208 203.3460147200385,772.2342630962376 201.90334890666418,770.3348856675439 201.59285390214063,769.5677804920124 206.1952287289314,769.2756367262336 206.560482702218,767.7051275353297 206.9076778666349,766.5544547290192 207.3314773333259,762.2792266136967 207.4063340089051,760.9659102457808 207.45585009781644,760.0356970705325 207.7753745066002,759.0218749844935 208.30519665777683,758.0176949022571 208.73423900443595,757.3690637468826 209.1726020266069,756.1636703599943 209.96806343109347,754.9343826700933 210.83576007105876,753.4487543461146 211.5930649599759,752.1036868567462 211.66559146670625,750.7576922135777 212.4392075377982,749.4962165758479 213.75313152000308,750.9662530253408 212.7665962666506,752.3375123740407 212.2300748800626,753.5438458902063 214.42480270226952,754.4603057259228 216.4098153244704,752.7123676845804 217.5119852089556,752.2157761343988 219.98079914669506,750.2142387551721 219.99944049783517,748.2673502974212 219.41660700447392,747.4326360156992 218.34472931560595,745.8656430285773 218.0301565155387,745.4149753925158 217.85452003555838,745.079615582712 217.74966243549716,744.7704409402795 217.5454813867109,744.153009125148 218.04617642669473,743.6449128688546 219.7739966578083,743.7335771298967 221.39550293330103,743.8989611465367 222.5372856889153,743.8052435526624 223.60100778657943,743.4992828895338 224.5977375288494,743.3021998903132 225.0856166399317,742.8620931491023 225.47155086218845,742.7862917929888 225.77330773335416,742.7169220438227 226.3707047821954,742.944785507163 226.92353735107463,742.5809388946509 227.17053525336087,742.0181698830565 227.90774243557826,741.8458933616639 228.34639672888443,741.6740761072724 228.74631196446717,740.9868057219428 229.66468977776822,740.945918577956 230.39694535115268,739.9425731999218 231.00657578662504,739.6287971081911 231.4702793955803,739.0402934276499 233.2214013155317,738.0305074168136 233.69559068442322,737.5118302359479 233.83481827564538,737.0537945232354 234.50474183110055,736.405100356089 235.41671168000903,735.4270018522511 235.79070378665347,734.7259289899375 235.9261448533507,733.9279160203878 236.70179982227273,732.8896218440495 236.89199985773303,731.525589734083 238.11388216889463,730.9811689871713 239.03488142229617,730.1702781552449 239.42110691557173,729.3373315957142 239.91830670216586,729.3575465530157 240.32026083557867,729.0341070085415 240.64677575114183,728.5622703263653 240.68930133327376,727.3741745590232 241.0592156443745,727.0704877776443 241.70962403551675,726.8563906371128 242.41770410665777,726.4598968737992 242.2508057600353,725.8074953532778 242.04924615111668,724.3947176948423 241.47748095996212,723.3177843826124 241.15387875551824,722.4949191724882 240.99018439115025,721.1418481163564 241.16552959999535,719.8131194881862 241.5249581511598,719.0196458973223 241.67146752006374,718.17333211191 241.85904611553997,717.825984125142 241.7670044443803,717.3237988121109 241.83720078214537,716.6231265915558 241.74661546666175,715.5429382717703 241.67146752006374,714.648826793069 241.68399217783008,712.9272152738413 241.98604032001458,712.7516992633464 242.2703209244646,712.3772339994321 243.0334512355039,711.0911820893525 243.56909880880266,709.9916682515177 243.13306595559698,709.6130629421095 242.90150542219635,708.7855507236673 243.24025372450706,708.5594890883658 243.41996799991466,707.5389924573246 243.53822407103144,707.3143079492729 243.85570958221797,706.7119317640318 245.08458239992615,704.9121448448859 245.88557795563247,703.9982314693043 247.120567466598,703.78686834767 247.31834055110812,703.0475552782882 247.3579534222372,702.4084081283654 248.12778296892066,702.039438782318 249.46617372438777,700.033760005841 250.37435704888776,699.9262385552865 250.5663047110429,699.0991486824933 251.51817870221566,698.3607385451905 252.1633442133898,698.463665809948 253.33483662223443,697.8079631545697 253.9409718044335,697.4624203789281 254.45302641775925,697.1246885408182 254.697402879945,696.7823611722561 255.09790065779816,697.0925235763425 255.83510784001555,697.4876928080921 256.51609969779383,698.4811266803299 257.0881561600836,698.7320116619812 257.6578824532917,698.8000170645537 257.4385553066386,700.2193952047965 258.54625934222713,700.047544803354 259.3903630222194,700.4468440549681 260.3361203200184,700.1095763811609 261.3011015111115,700.6784280924476 261.8315062044421,700.3057798467926 262.1146217244677,699.7419815858593 262.72221326222643,700.1376054586144 263.6260275199311,700.5056590721942 263.9994370844215,701.5808682799106 265.3279246222228,702.2641287830193 265.52045482664835,701.1429738945444 267.02166613331065,701.6024643074488 266.77525077341124,702.3992183640366 268.82434304000344,701.1714623286389 268.4538461866323,700.8314388380386 268.9393951288657,700.0751143957023 269.83126727107447,700.1353079933906 270.36720611562487,699.9809182740282 271.42073372448795,699.9777018203749 272.1727957333205,699.7066005538218 272.4663970132824,699.1896692286246 272.80310641776305,698.5822159021627 272.40668643557,697.8042871705256 273.3591429688968,698.0423070093384 274.1875180088682,697.2496723574586 275.06803057785146,697.0989565695636 275.7560129421763,697.1536370047834 276.6073984000832,696.4905783556169 277.2047954489244,696.9229681839934 278.0011306667002,696.758467161213 278.17414570669644,696.3582420819439 279.0272787910653,696.5728289848194 280.16789646225516,696.3862716466538 280.8972393244039,696.9914336565416 281.25550279114395,696.5650174738839 281.7162936888635,697.417848996527 283.3695485155331,697.4679343636963 284.4306491733296,697.964651916991 285.7390390044311,697.2414013717789 286.33934876450803,697.5134247329552 286.7782943289494,697.9219186294358 287.6055042844964,697.9159451584565 287.82337507558987,697.2289948927937 288.16969642660115,697.2970007691765 288.8236000710167,697.9278921002406 289.6921705243876,697.9949787610676 290.3233550222358,698.4278250716161 290.5115161599824,696.1114898548694 290.3754925511312,694.639701157168 289.6272170667071,692.4418787402683 288.37358620448504,690.2504671339411 287.6646323199384,689.0129921188345 286.38886485330295,687.2948522110819 284.9604713243898,683.6535818945849 284.1778258489212,682.0190340823028 282.0215458133025,677.384607834334 281.1334601956187,675.9944903209107 280.04090225778054,673.0138643652899 279.50438087107614,672.0612134361872 282.2557277866872,669.9794290388818 282.4677731555421,669.1968015857274 283.11876408883836,668.2914685772266 283.91218659549486,666.703220375115 283.3439166578464,666.0681016467279 282.4313642666675,665.6278373500099 281.4360908800736,665.3254423544277 280.16789646225516,665.2670773140853 279.29932600888424,665.6572496066219 278.60668330662884,666.3401643121033 278.35298616893124,664.7983181496384 277.94316771556623,661.6957501978613 277.25052501331083,658.3394484785385 276.6455549155362,655.9491489140783 275.78688767994754,652.9636500828201 275.4359059911221,651.3242737782421 275.1041481955908,647.8997892820043 274.5967539199628,644.6802371042431 274.50879004446324,643.9774904905353 274.14790513773914,642.8753365147859 273.7576018489199,641.9386390934233 274.94802688003983,641.0699612064054 277.75791928893887,639.7044292665669 279.3537937066285,638.9345614378108 280.6167452444788,638.9235304758186 281.8753277155338,638.5140056129312 283.1534253511345,637.626009636966 284.51919559109956,637.0795134021901 285.7681661155075,636.738010005909 287.49511253333185,635.8697708077962 289.10496796446387,634.8259487025207 290.12936846225057,633.450265267631 291.03784305776935,631.8516485055443 289.95373198227026,631.5671320895781 290.7829808355309,629.2353703283006 290.77336888888385,628.2108212651219 289.24157411558554,627.9570963847218 287.75201365328394,627.3866739608347 286.95859114662744,626.8934710843023 286.06089358218014,625.6937837045407 285.41689315554686,624.3667654100573 284.36307427554857,622.4283939169254 283.6413044622168,620.6297424230725 283.58275896892883,617.8685326828272 283.03953834658023,616.6081185523071 283.30051726230886,614.3184852763079 283.03633436444215,612.6291698995046 282.8187548444839,608.6400347187882 282.5499116089195,607.659518084256 283.2544964266708,608.0856503337272 283.7715026488295,608.1913788089296 283.1569206045242,606.6808357614209 283.81781475560274,606.3608898022212 291.8668006400112,607.0357177931583 291.99059086223133,599.4479185419623 285.1433895821683,595.52979556832 284.22093397332355,595.7150609937962 284.6622097066138,594.457275723049 285.6866102045169,593.4399169937242 286.1156525510596,592.6951687454712 286.4232348444639,591.909502528666 286.8444128710544,590.7275498918025 287.0063596088439,590.3064403474564 288.13969550223555,589.5777717813617 290.9979389156215,587.5457618930377 291.91282147553284,585.4879875751794 291.6699013689067,583.1731978731696 291.605239182245,581.7240854998236 291.8397124266485,581.1880217933794 296.62500551110134,578.331598122837 301.99313208891544,578.4368814307381 305.13449102221057,578.6313565761084 305.5044053333113,578.6092884833342 304.18319957330823,576.9688872642582 303.61405582213774,576.6075191753334 303.61405582213774,576.2948847168009 303.85610211559106,575.9744339265744 305.992866986664,574.8057270101272 307.55145870218985,573.7009207467781 310.4967921777861,571.7322090842063 310.77029575104825,571.599336491432 311.1451616710983,571.513819831307 311.95780807116535,571.3887631490361 312.5086017422145,571.3611771063879 312.9108471466461,571.2715224435669 313.41095964447595,571.076121126127 318.48898019560147,569.029224215541 319.66600675554946,567.7561107458896 320.6609888711246,569.732215034659 322.92969955550507,568.957499712822 324.03944248892367,570.0057785339886 329.9108855467057,573.6388528113021 333.58294044446666,576.2479895089637 335.34833464887924,577.3886435845634 336.8626531555783,579.0934067504713 337.09188352001365,579.2897203059401 338.2546377956169,579.8887743839296 347.09092949330807,580.3595570810721 350.30918400001246,579.867166169046 351.59048561775126,579.6713128886768 346.69217934214976,570.7285362276016 341.7472696888726,563.5445297943079 340.4458703644341,558.1355621859548 339.951874559978,553.2943199849688 342.0854354489129,534.9215320867952 342.50836110219825,531.648329882184 342.47777763556223,529.9018046432175 342.37379384890664,524.0247675004648 342.88002303999383,518.5522649722407 343.47305102227256,511.90781641728245 345.0963049244601,512.2660736753605 345.9101164089516,511.7482330824714 346.7821821155958,514.2183123320574 347.89075996447355,514.2638413619716 348.0524154311279,513.8315451351227 348.04018204438034,512.3580523362616 347.94697528891265,511.65671405626927 347.54851640888955,509.52739107387606 347.0690841600299,507.91313868935686 345.8734162488254,500.7836094039958 344.8761039644014,495.317415993195 342.0484440177679,466.1724705202505 341.4123079110868,459.6170288931462 347.5042432000628,460.09175425657304 353.518700373359,459.70074991497677 364.30330453335773,459.2366038407781 382.2126913422253,455.7492662476725 385.61881571554113,454.96816113672685 387.2298362310976,454.55828682804713 388.5755087644793,452.6501299578813 389.85506275552325,452.5622660116642 392.3783443911234,452.75639468280133 394.3715126044117,451.7443475580658 399.05660842661746,449.12450350401923 400.8691885510925,447.8511419916176 402.75167374219745,447.3221059150528 406.7283982222434,444.6741458348697 407.08374897774775,444.5526958781411 406.93782215111423,445.66000412614085 407.853287253296,445.6701249064645 407.9045509689022,445.4244658307871 409.04720753780566,445.6604641616577 411.20057486218866,446.4328623501351 412.0924470043974,446.72176340362057 413.12616817781236,447.05666732485406 413.67696184886154,447.59444464871194 413.5418120532995,448.42203946673544 412.4006118399557,452.55398563784547 416.18480611557607,453.9731450508116 415.883923057816,455.43369644338964 415.58799160888884,456.8689373077359 418.3177844622405,457.43475079210475 424.59525944886263,458.73565616388805 425.1722675199853,457.8791203412693 425.56490097776987,454.6599504498299 428.6774240711238,452.0534824563656 428.6765502577182,455.12962655944284 431.8496577423066,455.8918705267133 432.6052150045289,453.0742685039295 432.3754020978231,452.21955027687363 432.3940434488468,451.47845438914374 432.4514238577103,451.0037100609625 432.4578318222193,450.9508072852623 432.67541134217754,449.91207015514374 435.6457941333065,449.89734930958366 436.0110481067095,451.11457583587617 436.5656283022836,452.9730641544447 438.086646044394,456.6159307976486 438.6889947021846,450.21936757763615 438.6490905600367,446.24010808812454 438.5564663466066,444.29737472336274 441.43422492442187,442.7847631939221 446.54457656887826,440.099023508199 447.361300764489,439.5662880218588 461.2077468445059,431.4766437129001 462.047190186684,430.6600254669902 464.0656989866402,429.4118587571429 462.6614809599705,423.00758711929666 462.091754666646,421.7533949807985 461.8671846400248,420.2199212377891 458.7610695110634,413.84804387856275 457.4989917866187,410.23390163999284 456.7571242667036,408.6248871887801 455.65641073777806,407.41432250349317 452.98603719112,404.9890316388337 447.84393699560314,400.92013196996413 446.22330453339964,399.87379163049627 445.43425109330565,399.0243840844487 439.5138744888827,393.98124543967424 437.6159519288922,392.50325216096826 435.05218360887375,395.72104957385454 430.9071044266457,392.80096830951516 430.3274749155389,393.73276658088434 429.7798852266278,393.8703502806602 426.7762975288788,391.9708591979579 427.44767744001,390.8849023189978 427.49864988436457,390.3943793249782 426.865135217784,389.8302304864628 426.65920654218644,389.3824995663017 426.69241144892294,388.4644872175995 427.15058090665843,387.65230761968996 424.2783564799465,386.46969502803404 423.5350326044718,387.0660639007692 422.91637276438996,389.090760727413 421.24651548452675,390.1707446438959 420.17085127113387,391.92530433717184 418.5860451555345,393.44287421694025 415.69255793781485,394.59415873349644 418.89974414219614,365.92985454411246 422.91899420449045,352.879868023796 437.8664450844517,351.5244760583737 437.86790144001134,343.17332462151535 436.879618559964,336.3573117789347 435.6242400711635,324.6878010581713 435.39151445333846,313.333897140983 431.12992682657205,305.5953528538812 424.70769009774085,292.3419151731068 421.35894613328855,285.276611350826 411.2547512889141,273.24798223597463 407.28472604439594,271.30737232783576 400.1296512000263,270.90405476558954 395.8054402844282,270.93950622540433 394.1140289421892,270.638859244762 392.49223139556125,270.121358712262 388.817263786681,267.57619565789355 366.37977628444787,246.01338837237563 363.3476440177765,242.38630030408967 360.3245411555981,238.20795915159397 357.1054128354881,233.75877020822372 345.16620999109,230.2917282997514 331.45986531558447,228.087786084041 330.0273939911276,236.2504562701797 314.7050771911163,233.0929035578156 299.43810190225486,232.19817078649066 291.28018062224146,231.26613434497267 287.75667399109807,231.9209548353101 284.5957998933736,232.55965616711183 284.7522124800598,228.2784330418799 283.709753173287,224.8785369732068 282.09727630228736,220.90985143207945 282.02241962670814,218.98811191576533 282.2848548977636,217.48635242582532 282.45845248003025,215.5364902325673 282.53651313774753,214.18806316552218 282.605253119953,212.43481904140208 282.78642375115305,207.89114704111125 282.5359305954771,205.27892977173906 281.86600704002194,203.02222856332082 280.2098395022331,202.3502796976827 278.8921289955033,202.08638145489385 273.464583111112,201.43791808211245 268.77657457778696,199.60305091820192 268.1188844088465,194.95594042702578 269.5344620088581,191.45004603645066 270.3619632355403,187.90448419982567 272.45998904888984,181.22634430928156 273.37603669334203,181.69891967403237 273.9737250133185,180.36225645896047 274.552480711136,180.56400009454228 275.73067235550843,180.84174273570534 276.55118307552766,178.81969442544505 277.13984199101105,177.08136255166028 277.0218771911459,175.30754945799708 274.7942357333377,174.7165822572424 273.78964167111553,174.62215632665902 270.88479488005396,173.23017512407387 268.1605361778056,171.98512276815018 266.9182648889255,171.83818492700811 265.97542030224577,171.22325588355307 265.1566572089214,169.11682271689642 261.67276344890706,172.0947503085481 260.24640881770756,171.17627246875782 257.61157034663484,169.67279778397642 254.98838272003923,168.187277104822 253.59290282661095,167.45671961153857 254.3021479822928,166.08265678206226 253.36891534214374,165.32122965657618 251.34021205327008,163.77072907733964 249.55180743115488,167.31945191207342 250.12532024888787,171.23477142490447 248.82071694219485,173.1297605134314 247.45465543109458,175.8160655333777 243.51200967107434,177.78010548104066 241.99623480893206,176.4028842226835 238.67603541328572,180.78370698954677 233.59510215115733,178.91411851614248 232.9382857956225,179.9555444001453 233.0679014400812,181.03104970388813 230.73540238221176,181.51283749035792 229.8170245689107,179.763472866558 227.6374428444542,179.4433532631956 226.33633479115088,178.64788853476057 225.48494933336042,177.68337785394397 224.8403663644567,176.4839516711654 224.4340431644814,175.343477263581 224.27792184893042,174.00355030433275 224.5123950933339,171.97222540678922 224.95745735103264,171.16383568069432 227.13325255119707,169.6400934078847 227.8247301687952,169.23013672436355 228.7629144177772,168.8800607364974 230.0069333333522,168.4461499726167 232.450697955559,167.6782823917456 233.5050993777113,166.6566043064231 233.93501553777605,165.72889061202295 234.20240241778083,164.48609808122274 234.1158948977245,161.42561029444914 234.54610232892446,158.65068131498992 234.20415004435927,157.22312673483975 231.93369173328392,154.3666072197957 231.11085084441584,152.69026729342295 230.6774394310778,152.11213659349596 231.18512497772463,150.7066506280098 231.9735958755482,148.62120765121654 233.3597550933482,147.54922590317437 234.7639731200179,146.80017145967577 236.84481393778697,146.2501261322177 238.35359829326626,146.30724983289838 241.28029041772243,146.78450854687253 243.194232888869,146.97430611995514 244.93923811556306,146.29987903370056 246.963281066739,145.16154819878284 249.15363982215058,142.68815706548048 250.62339384888764,140.9214317247388 252.17616014217492,138.93171770084882 253.69368263112847,137.26401084370445 255.2080011377111,135.8515175334178 256.3704641421791,135.0416101460578 257.3115611022804,134.738009265624 258.09187640890013,134.86654444027226 258.9252030578209,135.14112111541908 260.5458355200244,136.76415696402546 262.33453141339123,139.34311411966337 263.51301432889886,142.9839151459746 263.8610833067214,144.74832017923472 264.4972194132861,145.80327085393947 265.8283283911878,147.27328302559908 267.87130396452267,148.64930851908866 269.3294071466662,149.56419706891757 270.0249625600409,149.73694749188144 271.274806897738,149.16940424888162 272.6158190933056,147.69894434488378 274.61685162666254,145.265200587688 277.24673848890234,142.50342322979122 280.42916664888617,138.71611433668295 282.24698965332936,136.8355647320859 286.092642133357,133.76270581805147 288.11668508441653,129.99413233948871 289.4343955910299,127.01930839568377 290.75472753774375,121.5136794730206 292.30137713777367,121.75740443333052 292.77032362669706,119.2634722944349 293.469374293345,116.88239208899904 293.8675419022329,115.81992791598896 295.7077927822247,117.27908703882713 298.68837006227113,119.70900043891743 299.0448859021999,120.33559482195415 298.883812977816,120.99812425323762 298.14922723558266,121.71686041366775 297.57600568886846,123.75741301930975 297.97329948446713,124.51345842180308 302.2520721066976,125.85507541842526 302.45537934219465,126.1973891313537 302.90306303999387,126.9511223876616 302.11692231113557,129.73889894003514 303.3003568354761,132.60726266977144 310.82913251558784,127.23492346814601 314.53584867552854,122.57611556048505 316.9108733155299,119.35746176255634 318.2192631466314,116.81604582397267 313.9533064533025,111.90221876255237 310.53844394662883,109.1713448894443 310.1691121777985,108.99395438173087 308.03904654225335,107.51170123345219 304.7028272355674,107.44627359794686 304.50796686217654,105.96493132086471 305.6718862222042,104.9392743690405 305.19653176888824,103.4768062789226 304.658262755489,104.13477991888067 304.3300002133474,102.94277717598015 304.0358163911151,101.6074682403123 293.56724138662685,95.0759465538431 283.38265571556985,86.0512924384675 283.75460892438423,79.1386631031055 286.78790627559647,72.38572101958562 282.6763232711237,66.3662351986859 277.19052316446323,68.74142218567431 274.1977124977857,70.05343217082554 270.75867448886856,72.78019377507735 261.3162476088619,73.51199412287679 261.1598350222921,66.60679665621137 254.88556401780806,66.84182770573534 254.77866751991678,68.12619873386575 244.01619996444788,68.15753600082826 241.1966956089018,63.64215749176219 233.35829873778857,41.21824615402147 232.9458588444395,37.9048121283995 232.78332956437953,36.6009026337415 239.64975473785307,19.984929047874175 246.95803818665445,6.742487193085253 245.97354183113202,5.875394138274714 244.98001607111655,5 240.51395612442866,11.304233443108387 241.50456917332485,7.326078957878053 240.87979263998568,7.263847683905624 240.7795953777386,6.404132317635231 234.298230613349,18.811820234637707 233.3265501866117,20.67219729325734 228.36969841772225,33.2403840435436 226.75634773331694,37.251245189108886 224.46695679996628,42.71985240851063 222.2547527111601,46.95130222575972 218.4032748088939,49.75486270838883 217.25479281775188,52.63857901562005 217.1921695288038,55.576178392977454 218.43414954666514,58.640935784205794 217.12954624008853,64.10715644666925 215.87970190215856,67.35751258028904 215.3484233955387,69.77923334389925 215.05919118225574,69.81840462621767 214.08285041782074,69.46678450721083 211.2170339555014,70.61795806797454 209.19211719103623,70.54468499432551 207.33235114673153,72.04424343630672 205.59841422224417,73.57604957651347 203.36203463107813,72.8672910501482 202.28578787553124,73.26406707952265 200.3575731200399,74.78756964066997 199.45171996438876,75.20968762075063 195.75461575109512,76.63870752305957 192.11372686224058,77.60459241864737 189.56714353780262,78.13868435350014 187.09192163555417,77.21980577753857 187.03599758225027,78.41978483984713 185.16399815119803,79.40179038036149 182.28944355552085,80.06628900847863 179.12973454222083,80.16997272876324 177.02151423995383,82.1454836766934 175.26340181333944,81.4040355758043 174.1297746488126,81.5137092283112 172.3527296000393,83.2357625743607 157.5485841066111,97.01215444959234 154.51470421336126,98.08254463225603 151.4135406933492,100.82599995750934 141.71566904895008,104.97337086021435 138.8894654577598,105.9547945734812 128.98945166217163,105.9547945734812 116.49595989333466,110.3642346651759 114.7952278755838,110.96459345513722 81.39749973337166,121.10317045706324 80.44329557335004,117.88265170506202 76.74560881778598,120.62585483759176 69.34557496884372,144.99754698376637 69.43295630218927,146.55002539191628 69.8250072178198,147.2857211929513 69.3406233600108,149.23758322396316 66.60354872886091,150.9977910500602 68.33806819561869,157.1867352553527 68.64535921777133,163.2617239287938 64.20201841776725,165.14250348031055 63.40422684443183,168.56683437048923 61.39562126225792,169.0643113272963 64.85388316446915,172.9814415993169 67.98970794666093,177.7598387436592 68.68846734217368,178.53642190503888 66.03178353782278,179.5018499745056 60.59841223107651,180.22131216304842 59.892953599919565,181.02828609966673 60.18276835558936,182.4220593069913 62.52196664887015,183.09637331275735 62.88197774218861,184.80840287392493 62.56682239996735,186.66964960028417 61.70145592885092,188.01364305370953 60.44345599994995,188.9200739315711 53.969955555628985,187.31677566468716 49.33233692450449,186.0027162201004 44.164313600049354,183.2018498344696 39.25493902224116,180.7325802478008 36.03639324451797,178.59261583298212 32.79396323557012,181.20193249324802 38.35403747553937,188.8473016746575 42.22328291554004,192.41034989745822 44.969386951066554,193.88511037023272 44.479468942270614,195.61225299234502 44.604132977779955,195.70344573794864 44.14771114673931,197.9100220729597 44.28053077333607,199.3368465024978 44.230723413289525,200.93821308610495 43.88236316444818,203.29395506263245 44.06469887995627,203.3105349735124 44.90676366223488,205.22090060822666 39.435818382306024,208.2881349750096 35.15529813338071,211.00900242599891 30.4763190044323,213.1661450912943 28.60315448883921,214.40681471466087 20.974764088867232,219.4035001504235 20.337462897761725,219.82072965533007 19.525399039965123,220.93656132614706 14.510293048806489,224.18731491593644 11.892930844449438,226.552473274176 9.879373653326184,228.3456659867661 7.646489315549843,229.69124147237744 6.143821653327905,231.60828060191125 5.797209031064995,235.77063280780567 5,239.2274560792721" stroke="red" stroke-width="3.7154636549962783px" fill="none" stroke-linejoin="round" vector-effect="non-scaling-stroke"></polygon></svg>