<svg width="2449.199821368791" height="1100.158224082843" xmlns="http://www.w3.org/2000/svg"><polygon points="2119.9125472711166,83.32464238564717 2128.5443666488864,106.773234232096 2130.7935621688375,110.75826073513599 2143.385794844362,111.26281496556476 2144.072612124379,112.2931309423875 2146.636380444397,127.65658306475962 2150.3200861866353,127.37634647503728 2147.7464146488346,140.73479332431452 2146.8807569066994,143.50493414106313 2150.2790169599466,151.82010926661314 2150.682136177784,152.7162233175477 2160.505836942233,163.23603869823273 2161.3508144355146,163.81943032256095 2174.4868502755417,161.6342980785994 2174.7382172443904,161.80439897760516 2176.057966648834,170.9499473355827 2176.4106959644705,172.21549504430732 2197.8797070221044,204.48471116571454 2198.246999893221,204.92679629585473 2210.5933997511165,212.0289066634723 2210.604468053323,212.12634254834848 2226.1801907200133,208.35518123296788 2227.3811015110696,208.4386346694664 2227.3764411732554,223.6248252055375 2226.9739044976886,224.1728724152199 2234.53734143998,234.14934676786652 2234.581905919942,234.38795024057617 2269.053259377717,233.64327199972467 2269.9125091554597,234.03884034539806 2274.232933546533,229.26085004402557 2274.9465477687772,228.38264108641306 2272.217046186677,226.4033878268092 2270.9319580444135,225.61673342256108 2279.1035690666176,221.42856296978425 2279.5506702221464,221.35819560784148 2356.4398355911253,297.3083825579961 2358.320864426554,298.7558187820832 2372.9505385244265,328.91081510850927 2372.8142236443236,329.7570608527749 2382.8852135821944,338.61381565366173 2389.740570453345,343.4574904985493 2393.6610796088353,340.3116386891925 2394.2418742043665,340.48069894406945 2395.458804906695,324.47619941137964 2395.744250595453,323.40360042633256 2416.289349688799,305.8431578729651 2417.023061617743,304.4602474896237 2411.3491003732197,299.95885193976574 2411.1548225422157,298.79008818400325 2422.2717670398997,263.05771201167954 2422.743043697672,261.85131883452414 2411.6473619909957,241.1914224573993 2411.3415273244027,238.30885808815947 2431.145923982258,208.6335095972172 2431.7139026488876,207.53598256438272 2427.8711628799792,171.2973533188342 2428.5900199821917,168.86549983819714 2442.217138915439,168.09894152643392 2444.199821368791,164.72136063460493 2438.8683949511033,141.77399507869268 2438.7157688888256,140.70591400394915 2419.001083733281,121.10409725515638 2418.907585706678,120.29088937235065 2425.746048853267,96.06836205319269 2425.9240155022126,94.93822478019865 2422.828386133304,66.54837778577348 2422.930039750994,65.41221965564182 2441.1895344355144,23.870455279538874 2441.331966008758,23.76977503747912 2430.182107875473,5.763518665509764 2429.9607418309897,5.157128837658092 2382.910262897727,39.47397741914028 2382.078101333347,40.211191659327596 2376.6601673954865,59.09169615327846 2375.1947824355448,61.65703280526213 2376.9957117155427,62.82751689100405 2380.233772657695,62.48174399579875 2382.2018915555673,77.66454052733025 2382.2266495999647,78.76723375491565 2375.550133191049,79.51875910587842 2375.003417315427,79.80041118391091 2373.8380415999563,63.522672230319586 2373.85872184881,62.66907533205813 2350.4536317155,54.45523528906051 2347.2056675554486,57.73791933938628 2344.4950985955074,49.280122733151074 2342.7643656532746,48.79483678773977 2312.0163308088668,63.57593728840584 2309.763057493372,64.66967370378552 2302.574486471014,57.28695947822416 2301.516298524337,57.128062488453 2295.0928967110813,63.75062853196869 2286.8094375822693,64.11942069855286 2282.5120236088987,52.27803740144009 2282.466294044396,52.13990219839616 2274.0803074843716,48.958705557801295 2269.941053724382,46.47176931955619 2273.316012088908,39.82204397494206 2273.807968995534,38.86226377566345 2262.046732799965,36.73321606958052 2259.493158968864,36.32510107714916 2262.342372977757,41.06984221824678 2263.955141120008,41.23371678363765 2260.9958266309695,52.684316904167645 2268.4447940265527,54.455686706642155 2263.6580445866566,58.698970832454506 2257.3048391110497,58.445730337291025 2260.9547574043972,73.15395723102847 2262.370917546563,76.88818338111741 2241.642608924303,53.825055424065795 2241.3746395021444,53.573163536784705 2229.3250449065818,67.55678652791539 2229.2152356976876,67.63984236720717 2190.4074379376834,86.88853558973642 2189.7736319999676,87.22840230778093 2172.5181488355156,72.32748080737656 2171.2435464533046,69.75730421423214 2174.9156013510656,49.05395704531111 2174.9674476088258,48.686945161258336 2166.6936004265444,26.298054062470328 2166.6685511110118,25.669598866486922 2171.215001884382,15.279961123946123 2171.2677219554316,14.738613680179697 2148.8360598755535,17.022287115978543 2147.715831182082,16.672829739109147 2142.908110222197,13.396301010798197 2143.1417096533114,12.412474948854651 2151.869065955514,5.176544174668379 2151.7799369954737,5 2138.9203174399445,13.593155991809908 2137.4278442665236,12.5542473118403 2133.691418453236,75.52187837747624 2133.6853017599788,77.15900595480343 2119.9125472711166,83.32464238564717" stroke="red" stroke-width="3.1919286387993377" fill="none" stroke-linejoin="round" vector-effect="non-scaling-stroke"></polygon><polygon points="5,1034.2090948231053 41.81142556446139,1066.2216106412816 42.644460942130536,1067.4595251423889 53.80072703992482,1069.9007349556196 53.97257699549664,1070.0413744128891 63.92356323543936,1091.6920345894177 64.26202026661485,1094.874281651515 72.83704177767504,1095.0265862608212 73.21831566223409,1095.158224082843 81.31565255112946,1079.0843469867832 82.16791182220913,1077.8136984223383 80.51756970665883,1065.204313780996 80.22163825773168,1065.1589307280374 95.7225042488426,1044.861429302895 96.0726121243788,1044.5104641619255 96.4116516977083,1024.2312740997877 96.76438101334497,1023.9184767716215 71.43777535995468,1020.4210486539523 68.93138744891621,1018.1523196102353 69.38664419553243,1009.4389772709692 69.65752632881049,1007.8946565909428 64.75135573325679,1000.470888650103 64.59727331541944,997.814056193165 53.02303317328915,988.6760325765354 52.141938062151894,986.678471884632 57.878813866642304,972.6972847373108 57.895416319952346,971.5222184328595 41.840843946672976,957.3741771365749 41.80064853327349,957.141305825091 30.771376639953814,962.9180596742663 29.957273884443566,962.6519277465413 21.48274090664927,976.7056788817863 18.716830435558222,978.0407450972125 23.52717283554375,989.4977061709506 25.10819242661819,991.3927578112925 18.060014079906978,996.5555217079236 13.508902968838811,994.6569188636495 12.019925048807636,1011.0295802371693 11.685254542157054,1010.5832777163014 18.220504462253302,1019.8349925297662 18.440414151060395,1020.1554359882139 5,1034.2090948231053" stroke="red" stroke-width="3.543625418833835" fill="none" stroke-linejoin="round" vector-effect="non-scaling-stroke"></polygon></svg>