<svg viewBox="0 0 57.950128014219814 45.64974777747266" width="57.950128014219814" height="45.64974777747266" xmlns="http://www.w3.org/2000/svg">
  <title>Pardubický kraj</title>
  <desc>Geojson of Pardubický kraj</desc>
  <!-- Generated from maps/2-geojsons/world/europe/czechia/pardubicky-kraj/okres-chrudim/okres-chrudim.geojson -->
  <metadata>
    <collboard>
      <support-module name="@collboard/map-svg-geojson-import" version="0.11.1"></support-module>
    </collboard>
  </metadata>
  <polygon points="1.296871230049999,16.07543041570474 1.6029025047145637,16.351523056641 1.6441464940494712,16.418177260155918 1.5463376549364853,17.283094237413152 1.5707170469367497,17.315184554287537 3.1605257438264176,18.090174480909027 3.16210588960397,18.087034805520798 3.8054800833809512,19.133530890933017 3.820932015826236,19.15303150906124 4.8718964389381085,19.41626609943791 4.954085864714705,19.437843252958686 6.5507321509388365,20.87042738010654 6.604850323381959,20.940029008730328 7.014159052271987,20.69314578908974 7.072675418492998,20.73998119867769 7.1990288264934295,21.685487408048488 7.226379183825464,21.71646837302846 8.266763183826823,21.95081195380639 8.296917025602431,21.953283545569995 8.25920469849383,22.934800763876538 8.231446561604514,22.96899049952639 10.318222028270373,22.911770527574248 10.3207415233804,22.930851440687675 11.742719806049843,22.216620160611768 11.759540712714205,22.214182543824556 11.848087130492912,23.272852244481456 11.898265861161178,23.33438980564255 12.750408623827514,23.184132681014436 12.798788755381374,23.213074169711163 13.40064225227119,22.141200244624763 13.426951315382155,22.10383410359804 13.879266223826688,22.77065320106789 13.880052655827729,22.771646203151743 15.076579816715219,22.757710305144556 15.139261359826321,22.779985156693275 15.382720318049667,23.009408584222676 15.383841711827097,23.048257957692968 14.982877900271104,23.23223301236589 14.971503763381168,23.25940279885412 15.292870462048576,23.774068707291864 15.400116485159504,23.842651814600814 15.750348150936896,23.409996336688476 15.783363731383123,23.41339245685971 16.3603281118268,24.059869219233352 16.457416054935436,24.051881945048937 16.800679059382073,23.523737006497814 16.813465861158456,23.524267286784145 17.070578152715587,24.543934896010743 17.074197196270813,24.598295127626756 17.5408062344913,24.727848302721526 17.56280448515912,24.780097351200077 17.41050610293763,24.993577800603944 17.39514883360547,25.128129589939036 18.24381818827254,25.306406452527284 18.24558037849214,25.303507779976773 18.33090825049452,25.853269344175477 18.276287635380992,25.952253256066015 18.947966099382153,26.273552352711103 18.977005829161623,26.335665066696073 20.087455094937596,25.936464669805844 20.117776417604308,25.926968940952918 20.93879686204904,26.49536412285537 20.95523911627255,26.506482666009234 22.061137270936285,26.17691989486788 22.124699909161553,26.217235312900574 21.519758938491705,27.90302183512553 21.485891390047744,27.943504895726928 21.63624553760468,28.96781481018419 21.647474038938654,29.000738248383403 22.996001029160233,28.5370078303023 23.03088074471465,28.482619134808317 23.868423542939254,28.65440666172666 23.91754641582678,28.63317022843561 25.044335990937668,29.280957034445727 25.149106209603033,29.309719729751066 25.760411454050463,30.570835407244285 25.81760981849524,30.619039780972653 27.17066607449391,31.13286658476294 27.18593596249424,31.151096335378078 28.080939269159117,30.251107280599662 28.088818152714648,30.251343922838114 28.224361164271375,31.62600611567626 28.218273598048963,31.645180549923808 27.78690836426989,31.79701896559576 27.71833586293809,31.876428845385217 27.01946724071471,33.11705142323785 27.008362529604472,33.178545820326086 28.52066398382607,34.94061838729407 28.56956840338256,34.977840577482255 30.98941238560377,35.42635593710451 31.14054568338337,35.453386374705715 31.005512396269605,35.60411717403198 30.978598945602553,35.707213793430256 32.04401041582472,36.90677654661425 32.12996452071542,36.93293304236444 33.08819550382626,36.54742720965309 33.13021864338092,36.54156298022148 34.27488498293691,36.83746798122896 34.35167861138192,36.83714158285306 35.03062428960415,36.31510436824768 35.105641164272804,36.25158531598148 34.660695414937926,35.035418505853286 34.647457142936894,35.00294796139655 36.00104496871658,34.904825848783496 36.05115816338233,34.87822054809379 36.00459119449382,33.18307340245241 36.01157441938134,33.07381346519554 37.781607116272916,31.509910352403075 37.783551350937465,31.508310568236755 37.743239429159566,30.975376134234956 37.748001711827364,30.96765810672381 38.725820677160065,30.996502066217488 38.74649364427036,31.01732370490803 38.45397734915909,31.333018705883422 38.45223700427172,31.34591877420329 38.73644479093795,31.699988418043485 38.75601820960304,31.69805071861205 38.680782881603356,32.578213798438206 38.67765171715886,32.582426489130135 39.477241889602865,33.35581700742199 39.50333978116117,33.3716067035873 40.49662524249301,33.33314598734736 40.514174326937194,33.33314598734736 41.48656108604931,33.98333786780726 41.51760330471747,33.99177234251996 41.85089027360385,33.44714208732343 41.88088391627256,33.42689280545177 43.05316275715899,33.86002864160122 43.064019887827584,33.86474710058987 43.86407609405009,33.534704164521955 45.21753284782766,33.42020309296216 43.460199571380635,32.00725154452679 43.453507617602135,32.00369178461564 44.08320663271601,30.298942610435315 44.08287895271509,30.290806689884757 42.58857805315942,29.067035374655223 42.58774064871554,29.06373293567898 43.011226998936166,28.40001491605375 43.01951366204898,28.361846114881462 44.81796713760426,27.898219313466814 44.84002364249331,27.878806260385446 45.899515027381256,28.696687658764258 45.963871379383036,28.75934769773461 46.359373857604936,28.39894402892982 46.361216147380894,28.284402985102624 47.714134049604894,29.23378904231662 47.88551797138365,29.35488091343881 48.549237452270006,28.414522597799206 48.56758025049361,28.37994983821567 48.69879788604752,27.344886451267065 48.71057980249183,27.31472662183818 48.433187759824925,26.79822921241006 48.4255418931601,26.726165103179063 48.92065180960648,25.984281390905508 48.93485127627222,25.956843215084646 48.83878278204951,25.050877483945936 48.85675420960482,24.99008114693001 49.19743218293601,24.97091718913593 49.24699924426981,24.886477666840204 48.61703080338206,23.79604608235399 48.614693352716984,23.775715885283844 48.712713363382626,22.432153095619416 48.71525470382488,22.403749142366124 49.1748004176044,21.28898325455097 49.1804583589373,21.281691732947493 48.83849879271597,20.155057242435706 48.83525111982612,20.11081342668635 48.62285622560316,20.39110475388165 48.62182949493594,20.45094759438811 48.29213972426964,19.942245606309864 48.28533854382707,19.890063152526402 46.78459327093746,20.127115604136037 46.71560570827,20.086168144949028 47.33042805138406,19.464298013970385 47.35801870738227,19.427613592689287 47.246549253160026,18.949361223884754 47.23958059182636,18.90463336699626 46.09136074471475,19.060258982259384 46.039842166938016,19.083407094818668 46.14922175093683,18.734390890794877 46.16100366738114,18.710834767855832 45.74578213493818,18.622752487023664 45.72842965849281,18.64767539964536 45.85528550916073,18.358384183689616 45.86479551093666,18.334916784329234 45.409029039828,17.4441990525172 45.40771103804886,17.438935519459612 43.08064418649314,15.804521128308389 43.073770188269684,15.791482615837722 45.005014163383876,14.445919136816649 45.00990751804797,14.433295527732245 44.430845985605394,14.507092936098472 44.40839626471583,14.499622830370337 43.51369879271673,13.41234778217344 43.4918388958265,13.390294649390981 42.89522827893683,13.358859455668554 42.83006364960469,13.309937297972048 42.510866920714165,12.098318291227171 42.49194886204799,12.027529695961986 42.92107859004767,11.787626294381463 42.90877238560364,11.745089770347242 42.38203042649269,11.798141651890312 42.36700083715854,11.741765530407557 42.91271182738141,11.556158918888961 42.9143138184941,11.555729240451312 42.72498759627064,10.617965848783335 42.6676435962699,10.624887119078032 42.94438756071626,10.4211017910567 42.96895627893695,10.410301035315335 42.65688112871443,9.879918024464988 42.64468415093737,9.86783807320475 43.41531469316118,9.178342937489052 43.4166399767158,9.177777324520994 42.97578658649303,8.699247725754814 42.95598743271561,8.621106527329667 43.0227977438249,7.543023792293517 43.01526110382705,7.529637358503661 42.529668470937885,7.629044706685946 42.48251167805005,7.614707981894154 41.34707863271482,6.406247922478489 41.34769758382767,6.401369856586226 40.75100686738164,6.504102586486389 40.736698174048925,6.473883949930443 40.60125710738079,6.053080512173019 40.60147556071473,6.027194476939749 41.44193107004989,4.784520154708425 41.44276119271539,4.784169191855599 41.040909004269764,3.8099903362105945 41.04018082649285,3.807657713830249 40.346802664714176,3.760461528026044 40.339309715380786,3.745740944965055 40.293063144714814,2.4641730500968517 40.273642643384065,2.4440803254315506 39.51303910916044,2.866227162125997 39.49957510204999,2.866555597816605 38.763350959826624,2.384356698938191 38.761166426492984,2.382940902387909 38.49621894204769,3.382922618882858 38.46153583449208,3.481227935763436 36.90642480871478,3.610298390696826 36.88723004249345,3.6090867415813954 36.960492008715065,4.556683899779582 36.96000412960433,4.56266183616257 36.09515466471506,4.726384547958278 36.0697121331615,4.764956771479174 34.65002761049267,4.254325361392821 34.5318443571597,4.217017649751633 33.75396844604997,3.0049498409557964 33.756975820270725,2.9766823663857758 32.994850394493675,2.9683130819482724 32.98140095093708,2.9648815583613577 32.43135730293883,2.1967774401711178 32.37592112871656,2.134423264046327 31.886592943826816,2.961914364606619 31.879114558047277,2.994281604564585 30.940296794494625,2.157235574045753 30.93487187004952,2.1498164866892147 30.805445551825812,2.4825781020686373 30.786898863825026,2.5358901078173766 29.954052812268618,2.1618002899472595 29.941164065603644,2.1563180996673874 29.23665206560412,3.2418767002819915 29.165268798050363,3.3197779846815503 28.494121903827306,3.091348195859009 28.48229629671563,3.098833950280223 27.872265363382883,1.6847837809765587 27.857410536715307,1.6670670326887738 27.694174924271774,2.1500203701406826 27.692754977604036,2.1652323194838936 27.308626636269164,2.1738633545000448 27.277759180270493,2.1484912440676815 26.942214860272486,1.3350259309461219 26.92925329582662,1.2968712300500012 25.94583464338224,1.644739769745629 25.924338835381914,1.6478889275459914 25.859727621160108,2.678981617922673 25.83853764782556,2.7669480725760334 25.327211212270903,2.486938674503599 25.262235909159187,2.407100004283839 24.51286815804791,2.8806103617987358 24.485292065603552,2.876725769095483 25.06400407271589,3.0883017966364967 25.07083438027197,3.097939284256554 24.96652291360382,3.7639151975237293 24.95945958915994,3.789370372696558 24.49259568871652,3.7976591318250392 24.481032225603247,3.7989047092925285 24.408396492269947,3.0785057429822156 24.294261907381713,3.0702951642089285 23.877511201604047,4.20483456020751 23.856110056716844,4.215794812998629 21.024182988272642,3.140271548513683 20.523575329603172,3.3500254429296 20.522534035382105,2.71576755676082 20.506565096715477,2.6612341257104526 19.16490482293897,2.345042723567294 19.160448374936948,2.3373747097067645 18.946611688716928,3.1439747566242113 18.963621921604624,3.2435753882281824 18.441933516270492,3.261830587932618 18.175464140271778,3.268512066328676 18.45532470560296,3.36580025811576 18.489483525158846,3.3723230685632553 18.274896815826775,3.78107027748787 18.248995532270182,3.9063516792100383 16.712889946493796,3.703787065025372 16.62252308427136,3.6760101349036085 16.211532264715185,4.315885357685456 16.176084570493675,4.4288473305424665 15.814143806049959,4.361785994777292 15.743532406937573,4.488831597748631 14.3923038771581,3.815516156118374 14.274695884270603,3.7687276841520907 13.76759287982726,4.2304122232658665 13.69870726204839,4.228555327467748 13.448265078937528,5.07239265181137 13.431633498493591,5.116068061042588 12.717254689603704,5.279491136770357 12.671131909158555,5.338843427664088 12.870499702936048,5.707338426129845 12.870208431827031,5.789154903928411 12.230169292271729,6.778722327869165 12.196381843384131,6.861790234653873 9.63156494738372,7.928613656698272 9.617838796271952,7.955192180280702 9.04935768693698,7.679251234929089 9.023128723382376,7.664948588390089 9.062996456714007,7.331337763369212 9.035988342936742,7.3104369007226895 8.711774469161298,7.965760190686106 8.681751699381982,7.986228580834123 7.875200147382691,7.9072172287401745 7.864226508268747,7.91500187221549 7.875600645161592,8.445983361345261 7.862311400717715,8.460295272481872 6.871843987380396,7.617129499226704 6.842884357160199,7.54441561742 5.852191208716374,8.129267556750111 5.811172954493793,8.136395646735165 5.3862520940486665,7.7875043054723765 5.364115489603262,7.742582993314264 5.466358931383127,7.357228921176412 5.463948662937162,7.352849612481205 3.654412321603866,7.325928668542602 3.625110447825989,7.274836221404385 2.821464325158866,8.002748065760661 2.7879244567158254,8.058925254619808 4.169532563380324,9.595737997678354 4.201943756270464,9.609300340787868 3.5462269491575515,10.071972081271944 3.507094675381211,10.066701430062077 3.5071383660485824,10.861087166177587 3.5234058576055194,10.902420557115821 2.9781900282717633,11.381616228702606 2.9498347856047418,11.409071227852966 2.7881938824926125,12.207060265897727 2.7899487909367395,12.240571079956263 3.0957397669380384,12.475808033293417 3.11629622560298,12.489792820294808 1.4620729224932234,12.947223687640637 1.449846817602645,12.945867154281714 1.8365310629365355,13.86999515952206 1.901062177604888,13.904603399917088 2.001907518046335,14.579261993584934 2.0056139429392146,14.594473201457133 1.7321176513827028,15.087040270457639 1.7187701527146944,15.106736152300565 1.9615883144929627,15.517485870764487 1.9622800833837915,15.59498597444921 1.296871230049999,16.07543041570474" stroke="#009edd" fill="none" stroke-width="5px" vector-effect="non-scaling-stroke" stroke-linejoin="round"></polygon>
</svg>