<svg viewBox="0 0 1934.1102205687923 1442.0950110989063" width="1000" xmlns="http://www.w3.org/2000/svg"><polygon points="8.052549999999883,599.1949174261896 20.293800986582482,610.2386230636399 21.943560559978778,612.9047912042366 24.048285608856077,634.3942730241466 24.0488681511265,634.4005988632922 12.566960951058263,639.8701219073042 12.535212399997818,640.0178716821607 18.031206995459343,647.501470294526 19.006382675469922,648.7850829695013 51.61447483555048,671.9755600676068 54.06814267553955,674.1386139769817 82.59873055105663,679.784680034361 82.66193638215873,679.6590930188319 108.39690413323797,721.5189364353206 109.01498143104936,722.2989611604495 151.05355835552427,732.8283447755163 154.34113538658812,733.6914309163473 175.41256137772098,762.8658909791044 175.2683821777823,764.2441084019152 196.400683831052,767.6850982078828 197.87859344887647,767.1987568756809 218.20698683555338,790.9947960022615 220.37171373327828,793.778861147213 230.52950246222417,794.7649697745579 232.54538982219628,794.6019731886696 236.7440628888794,783.9035323615896 239.08471753771983,785.7769487451075 243.0695976088532,791.3636889311962 243.35038295991353,791.9994295056455 237.09999618665415,800.7925974314345 235.40450704887144,803.1173660738638 244.1388538577371,823.5971971199393 245.23286815101847,824.8364357191382 286.8482281510728,834.2101789502555 288.0543818220972,834.3090426207997 292.73569112001087,854.8798386213381 292.8702583733025,854.9899776741873 283.1120936088041,866.002699811164 282.466345555476,866.940637784173 286.5458887377531,873.5697313530615 285.4355632621805,874.9373207790555 302.80376834664594,864.3547538019844 306.32902260436776,862.7988755363982 345.1240044355868,876.1713033626216 345.3142044710471,876.3003881899418 360.01553126212775,867.411862079614 359.9540730577205,866.6025653216417 368.90658192881483,872.6485219009697 369.00736173321593,873.411758425507 425.88649303999364,844.8425072224705 426.5593293065681,844.7450025509821 421.8433587465911,858.7193254521477 420.60021364442173,859.5638590573577 430.1011860177164,887.0917905772582 432.10833524444706,889.5532930237019 466.1940457511005,883.5430080385773 468.1292510132548,884.7006675864465 480.2472943198877,875.2649993503943 482.12977951099265,872.9242983863584 492.2033908888475,841.8257105829904 493.25575341328613,840.3310649419215 511.3483497510674,867.0038288407155 511.37980703110907,867.0435489240696 559.2408934666087,866.4861130037822 561.7481551910528,867.3771070657309 571.4865135199866,876.5540441669069 571.5313692710838,878.1080191057187 555.492816808844,885.4670212926354 555.0378513332466,886.5538127521646 567.8925192799429,907.1404490896745 572.1823602043801,909.8837733820325 586.1916268354757,892.5775542655389 587.5122500533248,892.7133990723884 594.8735448444272,912.9018867175106 595.9739671022176,914.2520818178087 610.5908252710719,918.572469567334 614.4743429954174,918.2529785999574 628.2048631732828,897.1271810579125 628.7163352443381,897.1483922693657 639.0008269066234,937.9350966384296 639.1455886488325,940.10950590307 657.8099501776519,945.2916329068609 658.6898802043647,947.3815948460029 652.5979449155052,955.9208128221577 651.9836541422187,961.3028843955614 685.9304283289016,968.4339588990912 686.0009159376855,968.3180119970708 689.4140308177807,990.3084745650191 687.2292062132396,994.2678310406405 714.0963447732861,1007.1197949064441 715.2579339644649,1009.6043034658429 759.6759045955037,993.6362875902338 760.8887575021722,993.2564584361168 793.7295752799614,1015.9922657122148 794.3872654489019,1016.4370074383693 817.9129418221778,1015.9034074698353 820.3698136444214,1016.6120171189319 826.9554534666017,1002.0334107845334 829.0837714754521,999.7432362565083 838.6231916354513,1003.2544965927151 841.165697164462,1004.867113314023 840.6463607732217,1021.543353426248 840.3218847554886,1023.4291666130081 816.968058337668,1072.2985742030212 815.6133563999097,1073.9178966270772 822.6720205065571,1081.2455075779942 823.7907928443524,1081.2712101503055 821.6275223021871,1114.8902932053677 822.076662355546,1116.2072307333362 863.9899927021247,1107.7545269720501 867.0465917421748,1111.6923697775126 876.0177419644092,1097.658014010092 877.4129305865858,1095.4824661903328 899.63575127998,1109.7338271033148 900.1140184444153,1109.973235539837 910.91464251557,1102.3539672670665 912.8795574310711,1101.5045099354245 922.1012008088651,1118.1954712677177 922.559952808871,1118.5390157594009 957.9511404355067,1127.4159821758292 962.1419491821212,1128.5664899880428 971.6269016443762,1160.61552735509 972.0355550133168,1162.1142948503618 986.5941589600184,1179.0111170877715 988.8820935378094,1180.9392920369062 1027.7947488977584,1183.8441424871341 1028.949638853293,1184.1474706505903 1043.0043437777563,1201.4923641885177 1043.6151392977695,1202.2215542131232 1079.4152715643645,1166.2219920219866 1079.7304269065858,1166.2314577115246 1085.152147368855,1221.2179454250506 1084.9086447199584,1221.9849227949524 1067.6540353687956,1228.0584594218305 1064.9111353155236,1231.2348546134087 1036.9563904265883,1280.8597577275139 1036.5122019821788,1283.3195336110437 1052.8094031910655,1296.084245041922 1053.6861292355238,1297.379370014394 1050.7582720266432,1304.8184193562263 1050.8208953155913,1306.2378192539688 1060.3777917421899,1305.1450037725515 1060.9647030310948,1305.2693309534004 1059.15066655106,1320.1741163973127 1059.0723146222076,1320.6267980632035 1097.0042601510427,1353.802436289763 1098.9604369333024,1355.2913238972903 1126.6987673865874,1350.6854672678526 1129.565457662196,1350.6138588752144 1170.174767244352,1374.6427887148236 1173.108158604336,1378.5042303740408 1195.7541962221508,1373.2319382821804 1201.7995281333347,1374.3131557862287 1196.398196648784,1380.3423877592793 1195.321658622102,1384.4662525352103 1237.9381174309888,1432.4487626625703 1241.3762816266167,1433.4950224925776 1279.7055209510504,1418.0747891841236 1281.3864465332367,1417.8402200068592 1327.1731001154762,1429.6764200471587 1330.2448452532767,1429.6633641121223 1332.1410201866888,1416.7268008861936 1334.1679758488676,1414.932621885069 1357.4026723821657,1408.7818755279075 1360.403347368912,1406.2411134372594 1342.605517395517,1357.5944410321315 1342.0759865154755,1356.295619253862 1379.844820222213,1364.2924380226539 1381.1351512443284,1364.5405747646944 1396.219499546663,1352.3707347493398 1398.2240273332932,1351.306522721752 1390.578743208876,1324.2297503861262 1390.141545271013,1321.5114389334701 1396.3613485777528,1283.5006368960965 1396.6406775732535,1279.1302394058218 1424.4226986933277,1244.0336961819337 1426.6800498044827,1241.0710679900146 1437.3662043288127,1241.3418741496641 1439.0363528799276,1242.1844801889745 1467.4419854489165,1216.574114894123 1467.5197548354986,1216.5101235274703 1461.5714162044237,1207.6439837472642 1461.418790142146,1207.1707883857669 1465.9072779643825,1195.1927461673984 1466.0977692710944,1194.8840250669525 1505.2105278844024,1196.0377834466997 1506.0374465688142,1196.8706489943213 1506.3726996177352,1207.2906646408153 1506.5544527910893,1208.1775666220126 1494.3367947643633,1209.498449033337 1494.2671809688686,1210.0144517661317 1505.6354924355178,1224.1772375197395 1506.4184291821216,1224.099729542482 1503.409016062134,1259.3062527355285 1503.2837694843543,1259.4747603632056 1535.2673763821144,1290.4103810948798 1536.3112920444469,1291.0419689414919 1576.0427104977202,1289.5035402918945 1576.7446738754875,1289.5035402918945 1615.6401442399724,1315.5112155102904 1616.8818329866986,1315.8485944987985 1630.213311742154,1294.0633842909372 1631.4130574489022,1293.253413016071 1678.3042110843594,1310.578846462049 1678.738496311103,1310.7675848215947 1680.8773000798897,1302.5048363442545 1680.5901067643204,1300.1218563004293 1710.7407445600033,1297.5658673788782 1764.8790147111063,1292.9858245164867 1694.5856836532253,1236.4677625790716 1694.3180055020853,1236.3253721826256 1709.4646858222327,1202.7375741151407 1709.7282861777126,1202.7524462864164 1707.8790058933441,1184.5603207883903 1707.6914272977515,1182.8836756461312 1719.5059661066402,1168.1354052154127 1719.4928589066035,1167.8099683933904 1659.7208229243765,1118.859115784209 1659.6873267466212,1118.7270182251593 1666.6623960443317,1116.9182204116148 1667.7127196710567,1116.6797212782328 1676.6267807554464,1092.1782974401501 1676.9582472799589,1090.6515453932586 1748.8963863021704,1072.1064733366727 1749.778646497732,1071.3299512134179 1781.3964168799353,1087.4406419294899 1783.7088182309885,1088.476829664294 1792.1583018932502,1104.0452071485704 1794.7325559733213,1106.5516087073845 1810.5526551021971,1092.1354619551928 1810.6263466932355,1087.553820202105 1864.7430627821955,1125.529262490665 1871.598419653346,1130.3729373355525 1877.3166541066962,1111.3916462483828 1877.6020997954543,1110.3190472633357 1898.1471988888002,1092.7586047099683 1898.8809108177443,1091.375694326627 1893.2069495732208,1086.874298776769 1893.0126717422168,1085.7055350210064 1904.1296162399008,1049.9731588486827 1904.600892897673,1048.7667656715273 1893.5052111909968,1028.1068692944025 1893.1993765244038,1025.2243049251626 1913.003773182259,995.5489564342203 1913.5717518488887,994.4514294013858 1909.7290120799803,958.2128001558373 1910.4478691821928,955.7809466752002 1924.0749881154402,955.014388363437 1926.0576705687922,951.636807471608 1920.7262441511043,928.6894419156957 1920.5736180888266,927.6213608409522 1900.8589329332822,908.0195440921594 1900.7654349066793,907.2063362093537 1907.603898053268,882.9838088901957 1907.7818647022136,881.8536716172017 1904.686235333305,853.4638246227765 1904.7878889509952,852.3276664926449 1923.169717502176,807.7370309800386 1923.396035155492,807.4453701158997 1913.2166923644031,797.3119449464499 1912.3923951199754,796.1678190187446 1909.7176525066384,762.3799904954282 1909.5877455910445,760.6102378654538 1902.3147059465769,760.9353784901101 1901.2509838487963,760.9295078997744 1901.091949822126,771.8218909532658 1901.0508805954373,774.2156045735243 1900.1354154932556,763.4276556183828 1900.2213404710415,761.0004065569734 1887.8632897687853,753.8675250503944 1887.5912425510828,751.780226899056 1827.5614316354981,761.2623249634413 1824.8019291287997,759.6244265959609 1849.3948228533623,734.7496213568153 1850.4984490932907,733.2822445055714 1846.039670924401,714.1521497533901 1845.7609244710543,712.3630354778503 1812.5012588355235,706.037556589035 1811.3405434577503,705.8049322995136 1799.8321305865898,718.5880600883753 1797.7713874755204,719.5139845907466 1802.146570835473,705.553336429795 1802.6178474932453,704.6110915122332 1786.008986195527,701.0878002789465 1785.314887137712,702.0847167838143 1790.389121164429,690.5130681455845 1790.769521235466,689.5743721711693 1783.394536702173,687.8916659652965 1782.9634554576837,687.3816566106176 1772.53886239112,653.9456628986878 1772.486142319954,653.7351215763844 1714.1943461244005,614.8745714600442 1713.6866605777536,615.0819870665215 1704.3662762932722,595.2663542942388 1703.820434231056,594.0520239710819 1679.4034682577253,588.3585459303355 1679.1285083287871,587.8370054315088 1716.793940791023,570.2349607138673 1718.6930284355544,571.4150733783969 1719.2245982133095,557.6637207304371 1720.5367745688195,555.0967718958051 1731.8375111376877,557.8797787899163 1733.4907659643573,558.0090519198926 1756.3782673333549,534.0144662706658 1756.5740015199185,533.5095219072897 1742.2408414132437,528.7036769242037 1741.195469395468,527.6431309851829 1733.4115402222155,536.4614182419388 1732.513551386633,536.1626140128134 1702.5330159199434,511.6552058902231 1702.0066890221565,511.1153980145824 1696.7256525066691,492.67161208493746 1695.8512566310596,491.78948677363917 1671.986831955473,490.5320790247421 1669.3802467821874,488.5751927168818 1656.6123776265663,440.11043244708674 1655.8556552799196,437.27888863647934 1673.0208443999068,427.6827525732584 1672.5285962221456,425.98129161188956 1651.4589178577075,428.10336687361234 1650.8577342843414,425.8483220143022 1672.6861738932562,418.4240575535583 1672.750253537764,418.40687041605236 1665.1772046488254,380.8963347493333 1662.8834446487958,381.17318556112116 1673.9532032266502,373.0217724402679 1674.9359519554778,372.5897422106133 1662.452945946577,351.37442177659943 1661.9650668354948,350.8912237261899 1674.8634254488638,346.27816671910807 1677.1129122399502,345.16289260562155 1677.8847806843473,330.04029852143833 1677.8011858755267,328.00640765860555 1692.790288524447,323.311418297562 1692.8432998666317,323.2887937788397 1675.209164257721,304.14760982819246 1674.4171981066243,301.0219618911866 1676.8079513866464,286.3429904680012 1676.7249391199798,283.9832929906912 1669.190338017746,271.3520960581733 1668.779937022227,269.5801669553399 1677.089610550996,257.8986524897406 1676.788144951082,257.36319513814635 1657.3644396355153,261.33948906543776 1655.4781679200019,260.7660200737661 1610.0608461065926,212.42761769713945 1610.0856041511065,212.23249506144896 1586.2179754932654,216.34180425745546 1585.6456277599568,215.1330587952176 1580.2279850932314,198.30092128492072 1580.2367232265892,197.2654798755899 1593.4508197243335,188.03412348344102 1593.996370515531,186.97871127606015 1596.349258551119,160.2235954794229 1596.6769385511066,159.02133125844523 1613.8549435999953,147.55850698633697 1613.8881485066154,147.5444684722239 1607.2390115821977,146.14695250659827 1605.809744239879,145.85938735152706 1597.8140609687903,108.57731424642373 1597.784933857714,108.48400935120992 1570.049807386567,106.59616191904172 1569.7500894132313,106.00733859660215 1563.2174609332355,79.94895457520727 1563.1166811288344,79.94442461719848 1573.1803892887906,61.214961101744514 1573.2220410577497,61.1832486672571 1567.9002265865925,54.74462280187402 1567.1234065333624,53.940913815261986 1536.6992651644173,70.82678728303983 1536.1607048799992,70.83992471066415 1506.7117391910647,51.55196875552759 1506.6243578577191,51.49533689351632 1496.0264584799074,91.49460555331427 1494.639134177683,95.4268182285374 1475.8000099821725,104.5855501845723 1475.244264702174,104.84554022088525 1432.4346931465911,100.58963642587298 1431.6669024977377,100.54117046125577 1434.5973811466024,138.44505678918324 1434.577865982173,138.68417424450274 1399.9838873866024,145.23308271633107 1398.96618612446,146.7759716571669 1380.895726391092,132.5037189551291 1380.8202871732424,132.42989843289945 1374.6313586043902,137.70098318075873 1372.8138268710823,139.08587286397926 1342.1788052177067,126.35071525371279 1337.4514750843878,124.85840678806528 1328.4584795288752,116.00126648040134 1327.1049426755412,115.73132548187971 1328.2534246665668,102.45805908690784 1328.4648874932677,101.05572445112159 1315.7296407021126,99.75756037855865 1313.7685123111364,99.27652204162553 1306.3364386399985,76.37569443623181 1306.456733608829,75.24499545343099 1275.971716577747,74.91022407593084 1275.433738835483,74.77296313245427 1253.431992915553,44.04879840484467 1251.2145459466624,41.55463135985304 1238.2515251466316,50.87147932741903 1237.660536062183,51.09392983371038 1231.6414185510725,74.6542753822647 1231.342283119891,75.94896498058336 1193.7895725777848,42.467123759830095 1193.5725755999806,42.170360265568554 1188.3955228710324,55.48082488074545 1187.653655351001,57.61330511069503 1154.3398132887446,42.64971239589034 1153.8242634221456,42.430424784695454 1125.6437834221647,85.85276880927961 1122.7884527200144,88.96882018526196 1095.9425769510922,79.83162863236032 1095.469552666625,80.13105880920887 1071.0683153333152,23.569052037062313 1070.474122266612,22.86038210555092 1061.177622213239,30.145888396516632 1060.12671604436,30.79517880010065 1063.9446977688708,42.17851560362727 1063.8878999021613,42.78699357735571 1048.5227662487664,43.132234978001755 1047.2880680088197,42.11735056070723 1050.0991255021431,36.54582273969539 1052.251036471083,32.96641360389879 1041.4900252710572,33.22059890125059 1041.0152533600117,33.211537041912045 1033.8662952088994,9.578738035844829 1033.3478326310646,8.052550000000004 1025.7922600088418,17.205439705612328 1025.3343818221251,19.459278091475092 994.0110865332895,21.967291587825123 993.1512542132764,22.09325789983962 989.1555971110715,39.7894415702682 988.5299467644431,40.0898329369735 995.9372623910672,43.9754009812383 997.0834142132439,43.46796132726707 990.5668056444042,63.33696551490687 989.7192067110223,66.85562370104128 968.2056311733099,64.22626224390808 967.9831000444024,64.20950018938277 969.266149288836,55.655247778143924 966.6671371643674,52.46170096935351 965.5605982133197,61.92214719122388 965.3561258932818,63.18429423913006 936.6924271199164,71.40211526994938 935.589383422142,71.24673156181927 958.7378637066354,79.70977266345983 959.0110760088787,80.09527216826211 954.8386173421527,106.73430869894912 954.5560843643975,107.75251570586227 935.8815283466606,108.08406607100153 935.4189898221298,108.13388916970109 932.5135604887978,79.31793051728857 927.9481770932684,78.98950736635709 911.2781488621617,124.37108320630034 910.4221030666736,124.80949331794511 906.229837964383,113.42096107730288 906.413338764432,112.070330902097 883.3714637065782,117.62135836706841 880.1698116533003,118.03985372678255 879.8517435999597,113.29776511048078 880.0597111732709,109.9039605946524 839.742546515517,101.40359124894132 834.8879309065883,102.80411185304513 819.5309528443972,83.46507957726828 818.3778105155575,78.45949930648896 797.1450203289055,81.78856273854728 777.1207139821267,90.17871851518396 779.2335946220915,86.22647989544896 782.2473768088744,85.37079380758917 777.079062213284,64.80840306843277 776.4403046666189,62.62706582641807 722.7738937155586,49.97940974069173 722.5956357954778,49.67268918627054 713.5184628887578,56.71265528849438 712.8272765421784,57.5462548497377 714.042168346677,81.9366910629684 714.7225776621849,85.92071632712725 693.8550414488195,86.65092431530468 683.196266408871,86.918183451147 694.3906890221183,90.80971112263035 695.7570418043538,91.07062354053016 694.2759282043912,99.6076323478261 693.4545436710828,108.85496401382954 687.173573431071,107.42051189751476 686.1375220888071,112.43176796640148 654.8485967911324,117.38855865246262 652.3692970933403,117.9483645501092 624.6932986577517,104.32918339901482 621.0786241688543,103.2181061941443 604.6389913866074,128.8131151054182 603.2210836177469,133.33159401969863 588.7434530399983,130.64914058909164 585.9189970755028,135.7309647079452 572.6961624444007,124.29725992933493 571.1550469954741,123.58710590107478 564.2268723465745,130.62876051941532 562.6793489332554,133.92124928706437 551.2114227466295,128.66230127393612 543.6045864089169,125.31764938918752 546.3017568976861,115.0030266233731 544.8130702487902,114.262043445931 539.8920448266213,121.04402896817885 539.2157133065407,123.07849288857653 528.7116032265835,118.20154490057723 526.3936677244269,117.37270652273548 531.8698558843239,108.79834704273492 527.165536168824,106.92680816408358 515.5639165421958,124.84436681165937 514.185039102194,127.32625826894184 506.8814159910903,125.39418972863461 504.12599127993553,125.31991389670986 506.9452043644628,132.29448526263116 507.034624595522,134.20566001311056 502.43894900437544,132.50734204755975 500.6566610755176,132.01460091825686 494.108303955501,159.07340687045473 493.44304073774356,160.82042323970347 483.707595119929,156.50583796008834 482.7350408799025,155.01283027881402 464.86788838214807,167.35734626881424 463.02297716434214,169.73143790456345 470.9976889154418,184.47123784319376 470.9860380710811,187.7438969551364 445.38447248886905,227.3265939127665 444.0329745333652,230.64931018415484 405.92451871102776,235.1276540467294 405.6982010577117,235.03757202320378 398.01097389331653,250.9950896869774 397.8344635999306,251.12047105478234 355.4827702310645,256.0555511588242 355.16936251553807,256.06958268662095 341.4402986933487,273.3222470659308 340.891252648878,274.385388009228 318.15200827547915,263.3477501951635 317.102849733295,262.7756443336035 318.6975590665602,249.43121133276838 317.6172345154696,248.5951768269075 304.64867956445187,274.8081084254442 303.4477687732792,275.62684403136484 271.18570669330757,272.4663899476069 270.74676112874977,272.7777756866195 271.2017266044636,294.0170352518104 270.67015682670853,294.5895116972748 231.05146029321577,260.8628807670681 229.89307508440788,257.95432549479995 214.38696621321242,275.10727087999805 213.76568493326295,275.8350350163888 190.2653491466549,281.34840306800436 188.62461897775165,281.6335266674065 171.62778455994658,267.677873016895 170.7423203821304,265.8810205305705 174.832058053325,250.4668576450564 174.7356473154864,250.29168529724814 157.22180667552266,257.96473589252093 156.54401879999887,258.17520687063336 137.17973279112584,245.40219258404215 136.69564020445205,244.68564319713153 102.35419366215456,249.214847539704 101.1821187110395,247.17114965417534 69.03627380435455,276.2876234284264 67.69467906663294,278.53471098279226 122.95900333321288,340.00722070513405 124.25545104881849,340.54971442951467 114.58000727996796,356.7243660980963 113.9074622844123,358.1730134318128 98.02677876430198,359.05658404887765 96.46148781324837,358.845758000483 100.12276567993786,365.0302056697907 102.56565648885544,367.9079272763116 92.80603536879744,383.2717213823122 92.75884944885138,383.4101453246327 96.46323543994322,390.6211874451034 97.1139351022207,392.27452308263275 91.3890014132262,391.4960319947346 87.69160592891376,391.6100238907162 92.72273183111201,395.50018780833454 93.55256322664309,395.35996217476315 75.30530192887045,411.4423499461042 74.1710922221896,412.54054991211854 75.17393865771692,420.39604644044414 78.90162633776299,422.5543587985227 67.70545609770443,444.460111433909 67.77565243546951,445.80054399625044 80.00729147552147,455.21002212973656 80.82954982211913,455.7694136097922 59.87317591996498,470.72005526078976 58.829260257748956,471.0564803926169 14.660617697728867,474.06664830362536 14.17157350210573,474.0123869692685 19.664655386680806,492.11095878910385 23.318068933301674,492.5961048297828 18.003827511077816,504.5847019545978 18.10227714663006,504.9206227612227 29.638943315461347,510.9775071788823 32.22018790219545,512.3618367946834 36.25400151985332,539.3481805413973 36.40225851556852,539.9566288562852 25.46240685330804,559.6593116163054 24.9285069065877,560.4471468900225 34.641233377718436,576.8771356285794 34.66890413335159,579.9771397759683 31.65541321770388,591.4267515882744 30.12012319113228,593.1169804991001 17.88091110214691,580.5059303723752 17.18127789334494,580.6699907841754 8.052549999999883,599.1949174261896" stroke="#009edd" stroke-width="5.897916028849165px" fill="none" stroke-linejoin="round" vector-effect="non-scaling-stroke"></polygon></svg>