<svg width="263.14896554662846" height="298.76941470091697" xmlns="http://www.w3.org/2000/svg"><polygon points="5,45.81967822089791 5.771577173261903,49.101017235487234 5.8904157866491005,50.02057900320506 5.819345635478385,53.77066909545101 5.810316231101751,55.04374108504271 5.8324528355151415,57.94745668611722 5.788179626688361,59.62330298603047 5.867114097811282,61.846141574322246 6.022070328937843,65.1964052352123 6.183725795592181,67.20671956636943 6.407130737788975,69.3395221249666 6.669274737709202,71.59390522027388 7.0330723555525765,71.65990445471834 7.072976497700438,71.83168319042306 8.697104213293642,71.62148024525959 9.67810531554278,71.39816764736315 10.176761457696557,71.29148381552659 11.388740551075898,71.13462232385064 11.719333262182772,71.09800622460898 13.7055109689245,70.55599682638422 14.9314710755134,70.23187546723057 16.965999786625616,69.42902885586955 18.247301404364407,68.93583727139048 19.03897628444247,68.60990528261755 20.042987804394215,68.34047985915095 20.42542677326128,68.19717794645112 23.134248106624,66.703577645123 23.84669724444393,65.89890980726341 29.124821048928425,70.49180546577554 34.3580891021993,75.03442775015719 35.53103786660358,74.22210587968584 36.530680319992825,73.58427061664406 40.31137934222352,71.27701820712537 41.627633493277244,70.50129855546402 42.50173809775151,69.81237039912958 42.78427107562311,69.5727820135071 43.31001543113962,69.03122088196687 44.269753742264584,67.78625805961201 44.67753329768311,68.09456106147263 48.174825528869405,70.34669675689656 51.66308835556265,72.58208345033927 51.405022151069716,72.20417135278694 51.50026780436747,72.06132402585354 51.60075633774977,72.1273231189698 57.09587711992208,68.98285099939676 58.405432035564445,68.21661638165824 58.299991893349215,68.14654759509722 60.99832746665925,66.62220687500667 61.629511964390986,66.321586822276 64.76096768002026,64.87318004242843 65.4183665777091,64.32934692443814 65.56516721774824,64.51062478101812 66.87967374210712,63.68967448163312 66.52898332441691,63.52467033173889 66.36179370665923,63.401708254008554 66.2636353422422,63.17341450677486 66.20683747553267,62.732648675562814 66.22081848885864,62.60019271844067 66.4165526755387,61.684300521505065 66.442475804477,60.602041904465295 66.47830215108115,59.66444175411016 66.46053461334668,58.247636198066175 66.46373859548476,57.82810809079092 66.30761727993377,54.258469929452986 66.25489720888436,50.77964403247461 66.61286940437276,50.806317502458114 68.6144844800001,51.05361206037924 71.66118030215148,52.11331353732385 73.98756266664714,52.8796047011856 74.98196223995183,53.07490679761395 76.81551388441585,53.377353449119255 78.14137998223305,53.56632588268258 83.56513934221584,54.26660746888956 87.974110151059,54.79057395149721 95.60599580442067,55.75486790854484 98.32355527102482,56.06725664518308 98.68181873776484,56.09664195921505 99.38145194668323,56.02882969012717 99.7898140444886,55.92259042628575 100.3676959289005,55.709207578212954 101.00324949331116,55.452424552233424 101.36442567105405,55.14319952146616 102.34775694215205,54.418508148984984 102.75087615998928,54.00982274534181 103.15079139557201,53.46325003012316 103.39312896004412,53.04552107671043 103.46944199106656,52.77291181543842 103.79362673778087,51.73807853460312 104.15917198220268,50.38089787226636 104.84715434664395,47.91019255062565 105.07784106663894,47.50827645021491 105.33066439104732,47.35049366171006 105.58348771557212,47.27047197468346 105.96505287103355,47.28765177441528 106.51264255994465,47.46984798787162 107.02644479996525,47.68640358722769 108.80756764439866,48.492042781435885 108.75397375994362,48.66067507583648 108.05812707555015,49.70275647053495 107.36490183102433,50.787329608923756 106.64225820440333,53.95918910217006 107.121107911109,54.8547699310584 107.45315697765909,55.276564171887 107.80268231104128,55.57177444698755 108.22619050671346,56.557312749209814 108.04764131549746,56.886879380908795 107.84491662215441,57.242666118894704 107.8591889066156,57.54058620665455 107.60898702219129,57.53968204918783 106.14767985767685,58.33307878486812 105.98835455998778,58.37331364216516 105.9108764444245,58.737235329230316 105.97699498664588,59.847079707775265 106.49254485336132,60.55367015337106 106.75061105773784,60.95465808350127 107.0281924266601,61.75617966311984 107.67015395557974,61.91892480198294 108.2800756621873,63.233539417851716 108.67503928893711,63.78867691173218 109.0662163910456,64.71902632038109 109.49525873770472,66.53721959382528 109.490598400007,67.97973858675687 109.38049791997764,70.64414690359263 109.6921580088092,70.70924232236575 109.56982414214872,71.1662658614805 108.33133937767707,73.65885811077897 107.89676288003102,73.64574879547581 107.35528988437727,73.79085531062447 106.06583267555106,75.12483622983564 105.56950670224614,75.9760302300565 104.98405176890083,77.32717522676103 104.41898581327405,78.21135926101124 103.52827875560615,78.32888856634963 101.46549674659036,78.51422311156057 99.9881696710363,78.7158307551872 99.50757233775221,78.98614743794315 99.43388074659742,82.22675732185598 99.44203633768484,83.33060591539834 99.56903054215945,85.65671575278975 99.53087402659003,87.31743271363666 99.55854478222318,87.55654960218817 98.75055871997029,87.55428951937938 96.52990776882507,87.70571501425002 93.59069098660257,87.95658388652373 90.94740565330721,87.98144475003937 91.0921673955163,89.2574812694802 91.02925283554941,89.70406968798488 91.25294904888142,90.28174039599253 91.89025023998693,92.23125474504195 92.05918748443946,93.18498716235626 92.23103744001128,95.07255145080853 92.1946285511367,95.68591592949815 91.98345699545462,96.42177022923715 91.89724074664991,99.97987100447062 91.80345144879539,101.32996342150727 91.81335466657765,106.43465651676524 91.84859847114421,107.39239464653656 91.96685454226099,109.12209792929934 91.90597888000775,109.83982811274473 91.57072583108675,110.89382055250462 91.40441002661828,113.96808674989734 91.24246328882873,115.27651240164414 90.99954318220261,115.72756716399454 90.79507086216472,115.84146060392959 89.67979377775919,115.9815675317077 89.18172017775942,116.54515803942923 88.59655651554931,116.79960941162426 87.89896220434457,117.303087806853 86.41027555556502,118.09491144318599 82.38432625774294,120.13230745762121 82.2596622222336,120.3957936190418 82.34995626669843,120.70944568456616 82.45539640879724,121.13698797603138 83.40872675552964,121.84699557581916 84.81469240877777,122.99177062918898 86.91067932441365,124.98166733852122 88.8793807644397,126.52458180265967 89.35502648889087,127.6982560637407 89.44473799108528,127.67385165742598 89.78115612443071,128.84751973859966 89.86737237335183,130.37820482306415 89.15958357322961,131.24183728615753 92.22026040882338,133.8196084710071 93.34514943999238,135.50210294197313 93.73254001780879,135.93684692017268 94.09255111112725,136.1976025082986 94.19333091552835,136.29069714900106 93.93526471103542,138.00480642041657 94.11002737772651,140.22639492788585 94.46712576004211,143.43627019994892 94.44295025768224,144.37577002565376 94.66722901328467,146.8499024566263 94.06662798218895,151.91602475842228 94.13798940449487,152.41580709989648 95.01908451551571,154.4271257313667 94.76567864883691,155.17407893098425 94.3596467198804,156.30105611420004 93.58981717331335,158.50890232727397 94.96083029336296,160.7058814475895 95.43589347554371,163.04743378190324 95.88911132444628,163.9719378798036 96.18300387554336,164.37860999675468 96.46670193783939,164.79748148511862 97.33294222224504,165.74140792281833 97.89422165323049,166.23935119668022 98.25831054220907,166.46844086947385 98.80823039996903,167.2049602792249 99.43038549332414,167.92385504889535 100.26837247994263,168.70555440580938 100.45944632892497,168.83523489546496 100.4011921066558,168.96898194000823 100.40993023989722,171.08587948523927 100.38138567109127,171.83955331437755 100.41779455996584,173.29176881082822 100.38517219549976,174.18686010874808 100.1888554666657,175.29882858815836 99.95642111997586,176.11393719550688 99.72660821327008,177.1793572716415 99.13212387554813,179.77737000910565 98.66492501331959,181.52863906277344 98.4942401421722,182.38845461443998 98.09811143099796,183.9743377888808 97.82489912887104,184.4993484269362 97.44828558224253,185.12917880003806 95.16413752886001,189.3590255168965 94.13245525339153,190.94350264733657 93.22048540448304,191.01127301238012 90.98148437333293,191.17843982286286 90.06223274662625,191.28461327112745 87.98663480882533,191.33521506661782 86.58765966224018,191.7571974400198 85.59500771551393,192.08655998914037 84.15671096893493,192.4326386206085 82.45423132448923,192.98925479879836 80.04192398220766,193.79616501764394 78.0991456710035,194.6762630204903 76.93930410663597,195.141611146566 75.31575893331319,195.88029278535396 74.61641699553002,196.11070673016366 74.28640682657715,196.03842002851889 73.18860600888729,195.3652489706874 71.83710805338342,194.89719055540627 70.7157142754877,194.66632353508612 69.17896789324004,194.33651308249682 67.81581909337547,194.06769460538635 66.54529450670816,193.8255317946314 65.24447772442363,193.5061114077689 63.069847608800046,193.01274830754846 61.16639089770615,192.61742450593738 59.30225578660611,192.20041359425522 57.575600639916956,191.8335517651867 55.34650282666553,191.38581685035024 52.76438442664221,190.85043131175917 52.653992675594054,190.95027968473732 51.807850097771734,190.7907933476963 51.08957553782966,190.63266230351292 50.489557048887946,190.34621892042924 47.177513244445436,189.717307208688 45.738342684460804,189.40827234170865 44.88579214224592,189.3034533985192 44.0026581332786,189.3210738277994 43.132922595599666,189.58492829144234 41.08994702226482,190.43929047096753 39.74252686218824,191.0998262576759 33.31708615110256,194.5497604457778 31.980151751078665,195.25004163535777 30.854388906620443,195.40410319564398 29.105305884382688,195.52292479388416 27.851675022160634,195.7298459020094 24.956731448881328,193.78261111915344 24.74468608002644,194.1137777964468 24.71614151110407,194.14901787706185 24.71818040893413,194.315730489383 24.677984995534644,194.56150711653754 24.53031054220628,194.75397170853103 23.514648177777417,196.24488885654137 22.00644636445213,199.1923569170758 21.070883555570617,200.6705938485684 20.1463890488958,202.17186151479837 19.16859192890115,203.53577886155108 18.281671395525336,204.96655017335434 17.61961216002237,205.99478420126252 17.39999374211766,206.6417198247509 16.99075783113949,207.20417277194792 16.27044437325094,207.71692981861997 15.791885937796906,208.23781746200984 15.287404373288155,209.0184689493617 15.048853333340958,209.4449347864138 14.600587093271315,210.18311626883224 14.366696391021833,210.8616627737647 14.447669759974815,211.51129453547765 14.67748266668059,211.80539005901664 14.80039907549508,211.90748764423188 15.878684728872031,212.30006596772 16.640067413216457,212.46360241423827 17.187074559973553,212.5440153182135 17.443975679925643,212.5114887538366 19.45782414218411,211.86728107882664 20.27746104891412,211.84921070979908 20.710872462252155,212.09406408166979 20.98321095108986,212.48709382745437 21.417496177833527,213.64268753340002 21.596627911087126,215.57257863122504 21.385456355521455,218.57941615954041 21.424195413244888,218.6607303012279 21.963920782203786,218.92183884052793 22.2697554489132,219.11337847006507 22.97201009769924,219.29949700576253 23.02909923554398,219.1454523067223 22.939096462214366,219.01580169866793 23.376003128825687,218.89021671575028 23.629117724485695,218.7190054175444 23.638729671016335,218.59432375442702 23.802715306635946,218.58122314081993 24.116123022162355,218.30882054753602 24.87575808004476,218.41633603954688 25.30771313770674,218.40323541522957 25.58296433778014,218.37477543542627 25.776077084359713,218.23383071931312 26.26512127998285,218.20040151046123 26.519692231086083,218.47325598442694 26.79115690663457,218.52520671486855 26.99038634658791,218.3598678255221 27.150294186663814,217.97904580913018 27.850509937736206,217.45321218215395 28.379749546642415,217.19616762013175 28.55334712890908,217.13518160756212 28.71383751113899,217.2688990647439 29.39570318220649,217.37641506880755 30.430589439929463,217.36331438209163 30.929245582199655,217.55350013653515 30.942935324506834,217.20384733908577 31.26770261337515,217.41842761059524 31.99092878215015,217.5110358732054 32.233848888776265,217.4274625647813 32.49075000884477,217.61042030638782 32.78172984882258,217.40939265605994 32.530071608838625,217.16273825237295 32.85163491545245,217.2110753095476 33.07096206222195,217.07419557799585 33.14727509324439,217.26483333238866 33.314464711002074,217.467668106372 33.320872675511055,217.68450685450807 33.71234104887117,217.76311084756162 34.2835236977553,217.8900517190341 34.56955192878377,218.17691071191803 34.78596636443399,218.19452881114557 34.90538751997519,218.1222494210815 35.088888320024125,217.96504166536033 35.3268568177009,218.1660688041011 35.752112640067935,218.50984736980172 35.845028124400415,218.65259888843866 36.24581717338879,218.83691083779559 37.020889599923976,218.6223319603596 36.40310357324779,219.7679548508022 34.9653893688228,221.07845694525167 34.30653411557432,223.79249486909248 33.67767978669144,225.85781537095318 33.139993315562606,228.60928702709498 32.823090346646495,231.4126716736937 33.04940799996257,233.15178198897047 33.424565191031434,234.92611195147038 34.09944035555236,237.97875689622015 34.770237724413164,241.16325519129168 35.806289066560566,244.6968646821333 36.06289891549386,246.4051544275717 34.64732131548226,249.770653900865 34.299543608911335,250.29595802316908 33.508742542238906,251.49155091424473 32.57987896888517,253.4825350502506 32.977172764367424,257.391730804753 32.412980622262694,258.9359680530615 33.15776085329708,259.4264722466469 34.48974364437163,260.2579782198882 35.07985891553108,260.45580481295474 36.74709475552663,260.9061080563115 36.952440888853744,260.82887456699973 38.51219768892042,261.4322887037415 39.40494364441838,262.1201607194962 39.83107327995822,262.41915628442075 39.93855232000351,263.0049515442224 40.022438399959356,263.95387329906225 40.19457962666638,265.74601889168844 39.72708949330263,268.96714682650054 39.69213695998769,269.32258806657046 39.523199715535156,270.05514747591224 39.04231111111585,271.9294405722758 39.02396103111096,272.795223059773 39.09998279099818,273.8967535631964 39.19115064886864,274.52497121860506 39.417468302184716,276.4719376771827 39.48824718222022,277.47499573702225 39.43843982217368,277.9993299714988 39.08978830219712,280.73072515719105 38.65579434670508,283.4977634532843 38.13966193771921,284.86523736303207 38.43967118219007,284.9243980291649 41.9908485688502,285.3466511730803 46.02728362660855,285.3583929600427 47.99656760878861,285.24052345438395 49.2292269510217,285.27936168934684 49.8694408533629,285.24368470627815 50.430720284348354,283.9155032541603 50.6296584532829,283.5320858886698 51.11695502221119,283.13421627355274 51.411430115578696,282.99782947357744 52.47398712893482,282.31634580960963 53.25692387553863,282.13615196041064 54.02820977778174,282.14428100944497 55.02377443551086,282.33441034762654 56.114584746654145,282.6677008071565 56.78567338665016,283.05202291428577 57.25811512884684,283.61021457018796 58.290671217720956,284.0424056733027 59.17700920894276,284.83814086939674 59.36021873774007,284.7974961225991 59.52944725332782,284.6389815378934 60.127718115458265,283.98459959833417 60.82764259551186,283.1098292361712 60.8553133510286,283.02402297162917 61.05192135111429,282.64015242806636 61.222606222261675,282.1465390785597 61.846508942195214,281.35034245904535 63.1569376711268,279.00915532029467 63.22451256890781,278.777022357448 63.26732942217495,278.7286989275599 63.35441948438529,278.59953531465726 63.80792860442307,278.7535380750196 64.55882552883122,278.9847678221995 65.01757752883714,279.09451154235285 65.10058979562018,279.32980550522916 67.7243599643698,276.0081177368993 68.12864426663145,275.33699970145244 68.86293873772956,273.6411303334753 68.85740458662622,273.38008722115774 69.70238208002411,271.63949074037373 70.46959018660709,269.96075494022807 78.38517390214838,275.64139669714496 78.51362446218263,274.191668331041 78.56081038224511,273.97488569212146 79.28170638217125,271.62052204622887 79.43753642658703,271.18198344670236 79.56220046221279,270.9959091300843 79.61433799110819,270.9304217721801 82.6659854222089,268.0295379329473 82.8183202133514,267.73280826822156 83.35280270222574,266.6466026311973 83.59688789327629,266.2721878766315 83.24532366218045,265.9040955440141 82.49763072002679,265.27630473533645 80.25396935106255,263.93987210368505 79.94376561767422,263.6395236647222 79.9580379021354,263.3287867998006 80.18930716440082,262.52574674936477 80.38358499552123,262.0700269819936 80.52077368891332,260.8487475141883 80.66466161771677,260.0913159509655 80.5799017243553,259.5651320721954 80.63436942221597,258.96126111387275 81.05030456883833,257.7905506546376 81.51604707550723,256.8438604462426 81.71469397330657,255.8781960719498 82.2153890132904,254.66817373922095 82.8558941866504,252.7842473090859 83.91641230217647,250.4874701317167 84.45934165338986,249.41789092205 85.1505279999692,250.2973130621831 88.30615921772551,250.98883358272724 89.87086762662511,251.21918937691953 90.31447352888063,251.3700497065438 92.00035072001629,252.3294105613022 92.77891839994118,252.71920616389252 94.81985507556237,253.02408636466134 98.33345848880708,254.57467789354268 99.32581916439813,255.27386324782856 101.53074147552252,256.332122093183 102.18289749335963,256.74765553406905 103.4598300444195,257.82307047431823 105.43639580439776,258.81627763598226 106.19690467556939,259.0579167123651 106.65303523559123,259.02720372308977 107.88977237336803,259.09495295840316 108.49182975990698,259.2616159878089 108.8503844976658,259.44273203529883 109.88497948436998,260.18526109377854 110.4404334933497,260.65814780950313 111.25570133328438,261.45306490926305 112.41699925332796,262.4299959950149 113.74170026660431,263.46157266543014 116.00167281774338,264.8838216509903 118.29368519107811,266.60776108223945 119.26856959995348,267.05714834912214 120.5283171555493,267.40220487921033 121.21426062216051,267.74726086400915 122.40963726211339,268.5466685767751 123.93385898659471,268.9007555777207 124.87815992883407,269.183482796303 125.44002190220635,269.58273274981184 126.32781624887139,270.2633528767619 127.90708821336739,271.18198344670236 128.27875015104655,271.46154626028147 128.7645903644152,272.02383225696394 130.11725340445992,273.77481319056824 130.43095239112154,274.4201931299176 131.18447075551376,276.5514237608295 131.6140956444433,277.6913232783554 131.9426494577201,278.9766386555275 132.18964736000635,279.46483973797876 132.9708364799153,280.53427178261336 133.08326712890994,280.6345307682641 134.48777642659843,282.1772488162969 134.5536036976846,282.0593775935704 136.16811946663074,282.89034577657003 137.7607899021823,283.41286056360696 140.09940565330908,283.8558907044353 141.88285866670776,284.1778886016691 142.09053496888373,283.2276998918969 143.96515584003646,282.1370551880682 144.9394577066414,281.68905379774515 145.50772764440626,281.5413757186616 146.55834254215006,281.03827594732866 148.96278556447942,280.9858884718269 151.51169905776624,279.36774155229796 152.83523498661816,279.0443817016785 153.58292792888824,278.7183116467786 154.85316124442033,281.409052462026 156.01708060444798,281.4108589234529 158.28462620440405,281.2667935814243 160.30866915546358,280.83324213535525 161.66016711108387,280.25743029033765 163.2114770488115,280.05691192671657 164.88541212445125,279.93813632271485 166.3624479288701,280.83956476673484 166.70702165330295,283.2511836931226 167.17713322665077,284.75369010929717 167.55607694224454,285.7151623405516 167.0175166578265,286.89836801285855 167.46694798220415,288.781096952036 168.15347399108578,290.26188866456505 168.39901553769596,291.54577527329093 169.6404130132869,291.47577813250246 171.29978453333024,291.5697097743396 172.8481817599386,291.33578378357925 174.4015305954963,291.024183136411 175.58583893324248,291.52455033618025 175.7906025244156,293.3467262520571 176.18818759103306,293.76941470091697 177.0914193065837,293.2527953745448 179.2174071467016,292.3107748205075 180.76172657776624,291.86776183196343 182.27866652444936,291.47442334884545 183.80609223106876,291.01876399083994 185.37691733334213,290.57123241736554 186.46831018663943,289.8166135298088 188.37234944000375,288.9734785105102 190.49804600887,287.9912469459814 193.40638805332128,287.06004218320595 195.10828515549656,285.3430383154191 196.26929180440493,283.8229231510777 196.91125333332457,282.24182957416633 198.72150328883436,281.06537291244604 199.12403996440116,280.6254984290572 199.7211457422236,279.26251416746527 200.7711780978134,278.0381694943644 201.3190590577433,277.1773756587645 202.0460717510432,276.8363991980441 203.0439665777376,275.5266833391506 205.5398687288398,273.4175726699177 206.78942179551814,272.7789642653661 207.69061461335514,271.156691801385 208.67511096887756,270.3943279729574 209.15570830216166,269.6992557886406 210.43730119115207,269.1437384170713 211.67462087108288,268.5660891797743 212.29881486226805,267.52956853917567 213.5527369955089,266.6416345265461 215.51473920000717,264.8499479339225 215.70319160888903,261.7231554016471 215.40522126224823,260.6884089112282 215.4829906488303,259.4960280007799 215.337355093332,258.3325470179552 213.69545983988792,253.89129883015994 214.7900566754397,252.41432553750928 215.0539483021712,251.13382225797977 215.38337592885364,250.22368925932096 216.27087900438346,247.92643346323166 217.04566016001627,247.03074106236454 217.60839594667777,246.06638835382182 220.61110983113758,244.6408549560001 224.0801487644203,243.71624070720281 225.6256332800258,243.6141579951509 227.17606940446422,243.7952870222507 228.66067825781647,244.50173396116588 228.9528231822187,244.41184729721863 229.5041993955383,244.22349170566304 229.8164420266403,244.1168923060177 231.78951253322884,243.36211286461912 233.7695735465968,243.01159800589085 234.4727020089049,242.66876140766544 236.21013418666553,241.5887548502069 237.63124593778048,240.63025020225905 238.723512604367,240.46176615124568 240.6415328711737,240.05342893046327 241.8782700089505,239.77563270780956 242.11885994661134,238.9097192871268 242.61081685335375,236.6995240795659 242.46343367104419,235.73873941903003 242.54324195545632,235.00064433540683 242.48178375104908,234.4540729287546 242.40634453331586,233.3482779978076 241.808073671069,231.34130009735236 241.6557388799265,230.7983332903823 241.85846357326955,229.39438290777616 241.9647775288904,228.21718975354452 241.3874781866325,225.8537497986108 239.98966812435538,223.25312317430507 239.83442062221002,222.8108735291753 238.604382719961,221.52793792710872 237.76115285325795,220.55534123035613 236.2541161243571,217.77847024513176 239.78315690660384,217.18035643338226 241.66185557330027,216.37579138745787 242.58431118226144,216.11016229906818 242.6839259021217,213.98195567342918 242.48498773330357,212.87560529459734 242.99878997332416,211.00938866403885 242.9408270221902,209.55471346352715 243.5029802666977,207.99024916195776 243.686189795495,207.5208625085652 244.53699271101505,207.2308271327056 245.77343857777305,206.78357556415722 247.07017756439745,206.28798361460213 248.33138147555292,205.74134032335132 249.29985792003572,205.30086229543667 250.1631854933221,204.59790269925725 251.1022435554769,203.6704082005308 253.2521156265866,200.88835284404922 254.42389930668287,199.7494076450239 256.51347825769335,198.09858164424077 257.535257315496,196.98537392239086 258.14896554662846,195.88029278535396 258.08517717325594,195.25139701610897 257.8049743643496,194.9301715384354 257.7674003910506,194.57867532642558 257.57079239108134,194.32612178620184 257.4938968177885,193.81559227057733 257.29204593773466,193.22780415497255 257.4429243733175,192.66802599246148 257.06019413331524,191.36910019093193 256.56561578670517,190.90284041815903 256.1234662398929,190.26670144777745 256.13336945779156,189.26685711776372 256.0270555021707,188.87649640755262 256.0719112532679,188.2566166233155 255.9632671289146,187.80209723731969 255.60529493330978,187.37513731012587 255.54849706660025,186.89486287010368 255.35858830215875,186.25554953492247 255.3483938133577,185.93431082030293 255.05013219558168,185.2317406758084 254.8421646221541,184.86531895102235 254.9027490132721,184.54317455907585 254.7673079466913,184.21289699617773 254.51943623111583,183.9720787042752 254.67905280005652,183.47959769319277 254.96100323554128,182.37218908627983 254.9545952710323,182.24161299696425 254.9129435021896,181.78572562307818 254.78915327996947,181.60996700567193 254.7786675200332,181.41839446965605 254.60827392002102,181.3189935592236 254.429142186651,180.6489398778649 254.622837475501,180.06970098533202 254.32515839999542,179.61471272772178 254.3694316088222,178.57460691244341 254.04379050666466,177.2850856978912 253.47377294220496,176.55989610444522 253.42076159990393,176.50657988968305 253.44377201772295,176.18351949652424 253.489792853361,175.90293099096743 253.17492878215853,175.6273123010178 253.110557866632,174.8799772496568 253.31299128883984,174.50359774543904 253.09366414218675,174.26819078682456 252.78520803549327,173.67266878695227 252.79540252441075,173.32520489708986 252.93463011551648,173.14266187755857 252.9197752889013,172.99174748384394 252.71384661330376,172.68494814028963 252.9092895288486,172.3826667747344 253.0094867910957,172.17753090104088 252.91482367995195,171.85265673330287 252.74209991109092,171.5399818342412 252.77443100442179,171.27881661860738 252.56791978667025,171.06419099122286 252.71268152887933,170.90830487693893 252.9130760532571,170.8567946581752 252.9017164800316,170.33762519591255 253.2331830044277,170.07826592458878 253.7399947377853,169.50939146109158 253.43153863109183,169.2287943767151 253.71203271113336,168.57316274632467 253.73533439997118,168.481437419774 253.81543395551853,168.38293431675993 253.7254311821889,168.22433519066544 253.97912832000293,167.7661592901568 254.250010453281,167.85607751616044 254.39739363559056,167.77564814995276 254.51652351999655,167.56373018363956 254.69099491555244,167.39835269388277 254.95954687998164,167.38298975134967 255.3122761955019,167.13989363389555 255.2930523022078,166.77886377030518 255.57354638224933,166.59586342365947 255.60412984888535,166.27821060584392 255.74510506668594,166.16886201826856 255.93530510214623,166.1137358499691 256.20123562659137,165.76851920114132 256.1383210666245,165.47662092815153 256.43483505782206,165.01663183572236 256.65911381330807,164.96240908897016 256.7823214933742,164.4283143146895 256.71096007106826,164.1865704804659 256.78785564447753,164.09574702673126 256.7788262399845,164.02390158141498 256.6978528710315,163.89647752593737 256.57289756438695,163.67777790979017 256.50648775103036,163.44958902697545 256.6931925333338,163.32397207495524 256.75814599113073,163.08448631857755 256.6929012621986,162.87843798584072 256.76105870225,162.66470782109536 256.90785934217274,162.55445370078087 257.0505821866682,162.2110388709698 257.3127261865884,162.04339801438618 257.32146431994624,161.87620889174286 257.4059329421725,161.78719192824792 257.5032174933003,161.83147448312957 257.61593941331375,161.69456002413062 257.4877801244147,161.50613305391744 257.3389405866619,161.50297000986757 257.2873855999205,161.40536748524755 257.2981626311084,161.28200867620762 257.1705858843634,161.10081117838854 257.25854975997936,160.9065094550606 257.4504974221345,160.87759011401795 257.51894613332115,160.6986516061006 257.6141917866189,160.48988982802257 257.62642517325,160.1677094628103 257.32903736887965,160.1582202722784 257.29903644439764,159.86405516287778 257.38059235550463,159.61778760049492 257.25738467555493,159.46596012089867 257.179032746586,159.02809992304537 257.07213624892756,158.97613503213506 257.0514559999574,158.8500636368408 257.2265099376673,158.82340336823836 257.21369400888216,158.6236771850381 257.35437795554753,158.4619078799151 257.34418346663006,158.34984415699728 257.1117491199402,158.35029602696886 257.03951388434507,158.17948911321582 256.97223025769927,157.94361267914064 256.6462978844065,157.75653808476636 256.6116366221104,157.15057797159534 256.33784177771304,157.04077293880982 256.2842478933744,156.93955343583366 256.31483136001043,156.817547722545 256.18492444441654,156.67294827033766 256.2029832532862,156.49536193709355 255.83423402660992,156.17679067177232 255.7293764266651,155.97163956821896 255.46373717323877,155.7353088730015 255.21557418664452,155.39188331493642 254.98284856881946,155.29879682062892 254.7378895644797,154.13882732146885 254.97818823112175,154.0489034448401 254.86313614225946,153.79765864857472 254.85323292436078,153.47637216583826 254.98692636436317,152.93050037662033 254.83051377779339,152.8369609512156 254.73992846219335,152.38914604549063 254.43001599994022,152.4885601301212 254.355159324361,152.21065246174112 254.15884259552695,151.62862679979298 253.76504405331798,151.47860129992478 253.69979932438582,151.20882627129322 253.5873686755076,151.17809810617473 253.53960021329112,151.0104487761855 253.55795029329602,150.82833898067474 253.35493432881776,150.7840541935293 253.32551594660617,150.49258776847273 253.41814015991986,150.29782471555518 253.62086485337932,150.2155813323916 253.70853745774366,149.98105195432436 253.6540697599994,149.69274767214665 253.53785258659627,149.39721279335208 253.70795491547324,149.0741122768377 253.6683420444606,148.7175714315963 253.37153678224422,148.64255769416923 253.13502464001067,148.69904394459445 253.04123534215614,148.58019685663749 252.72025457781274,148.53907484537922 252.49859726219438,148.29912097682245 252.70976881776005,148.18705203628633 252.59879452444147,147.93218536057975 252.25509461329784,147.76272597006755 252.201791999978,147.41612462012563 252.3917007644195,147.234011825989 252.32674730662256,146.9633277641842 252.3395632355241,146.72563163354062 251.97605688881595,146.74189981800737 252.02819441782776,146.57153571466915 251.8470237866277,146.34558842290426 251.88022869324777,146.23261468927376 252.01246577769052,146.3812881106278 251.9970284088049,145.98904312076047 249.5748178488575,144.5804801293416 249.77462983108126,144.3604054626776 250.29950037330855,144.583191520127 250.82204074668698,144.73593314818572 252.04013653332368,145.59363415150438 251.82197447109502,145.0942880868679 251.42788465775084,144.80281406408176 250.64756935101468,144.48603332822677 250.30416071112268,144.44897763442714 249.78482431999873,144.2627952725161 249.51510727102868,144.1317444856395 249.1510183821665,143.81948177638697 248.86557269329205,143.1366597370943 248.78809457772877,142.81129044271074 248.16623075550888,140.84144014999038 247.86709532444365,138.89190804190002 247.66903096879832,137.75173550576437 247.43164501327556,136.14472835010383 247.26678556448314,135.56311176455347 246.80890737776645,134.40936425421387 246.32073699554894,133.24250490916893 245.46148721768986,131.28657796420157 245.25905379548203,130.49028290755814 245.01759004441556,128.4638299436192 244.8218558577355,127.82524931937223 243.59385685331654,125.19588634325191 243.49802865774836,124.94731996796327 242.8918934755493,123.73883141181432 242.59916600887664,123.38857637229376 242.16837603552267,122.97595261764945 241.56544483546168,122.64558188599767 240.01442616886925,121.93060548498761 237.69212160003372,120.76006384310313 236.78947242663708,120.18789718882181 236.45625827554613,119.9912992954487 236.2919813687913,119.7156099973945 236.06682880001608,119.0923701202264 235.84488021337893,118.95271714089904 235.06048711109906,118.85283582896227 234.83941233775113,118.08225675014546 234.54144199111033,117.66013192542596 234.3285228088498,117.43731838581152 233.97987128887326,117.49607248528628 233.8738486043876,117.05541635362897 233.30907392001245,116.72774839692283 232.8040098133497,116.74130708072335 232.66623857768718,117.08117781352485 232.10262897773646,116.84751674160361 231.77698787557893,116.96412133099511 231.07764593779575,117.55979806755204 230.31422435550485,116.95237048371928 230.15286015998572,116.67170582822291 229.51177244447172,116.29115832748357 229.11826517328154,116.17726512235822 228.9452501332853,115.95761377300369 228.54358727112412,115.62994416826405 228.31697834667284,115.49164484947687 227.73880519112572,115.59152769960929 227.57190684438683,115.7320867460221 226.0176841955399,114.79698322020704 225.29649692436215,114.50772853911621 224.40171207103413,114.1701136060874 223.51886933331843,113.3281078232103 223.16614001768176,113.11523306102026 222.9584637155058,112.72202435537474 222.4705846044235,111.91119865013752 222.25300508434884,111.47007927543018 221.48783587559592,110.39077934122179 220.70402531558648,109.16639117017621 220.62771228444763,108.87351324746851 220.2697400888428,108.36504369811155 219.95400220446754,108.02335149550345 218.94037873775233,107.93521651509218 218.35725397337228,108.17702265805565 217.47091598215047,108.22583582822699 217.28391992882825,107.59849536506226 217.1435272532981,107.42403292737436 217.10857471998315,107.19262139580678 217.24634595552925,106.83013643324375 217.2367340088822,106.31623839092208 217.08236031990964,105.8900230017025 217.10362311115023,105.55420265480643 216.89245155546814,104.88798417896032 216.77419548435137,104.80301179835806 216.6305988265667,103.56593674450414 219.36854727112222,84.04616080457345 218.97940906661097,84.0443527091993 217.70859320880845,84.42992869520094 215.8258167465683,84.87110272736754 213.452248462243,85.30594757082872 211.6454937600065,85.84611225582194 210.2299161599949,86.36638676794246 208.45112348441035,86.7058527879417 207.41099434671924,87.07424740522401 205.78074993775226,87.56920606532367 204.83528391108848,87.69622267293744 204.5416826311266,87.26680679817218 204.42371783102863,87.37709895614535 204.17934136884287,87.54886532056844 203.4089292800054,87.82956743054092 202.84386332437862,87.89601377083454 202.52929052442778,87.76176502159797 202.43957902211696,87.54615322116297 202.38248988438863,87.25821847212501 202.31549752887804,86.70992095267866 202.27734101330861,86.56663110188674 202.12151096889284,86.18151091050822 202.00005091552157,85.82622337067733 201.74547996441834,85.26074544445146 201.5421727289213,84.8688426167937 201.28294144000392,84.34223620966077 200.64738787547685,83.3952455247636 199.81668266665656,82.36733785830438 199.1254963199608,81.5704122679308 199.0168521956075,81.47458210866898 198.38625024002977,81.0767960922094 197.95021738670766,80.73777334665647 197.67001457780134,80.36710787552875 196.67124593781773,78.35375052667223 196.48279352881946,77.9500823476701 196.3837613509968,77.58348047657637 196.25094172440004,77.4487733457936 196.10647125332616,77.24626045580953 195.92238791112322,76.92983368888963 195.53121080889832,76.02259040100034 195.50703530665487,75.42589619732462 195.52509411552455,74.91780075593852 195.5935428267112,73.79492371616652 195.83733674662653,71.8443405656144 196.05142101331148,71.09936237649526 196.20259071991313,70.76348848978523 196.41463608888444,70.52842166676419 196.9829060266493,70.21876594598871 196.80377429327928,69.49005615129136 196.43036472890526,65.50878045608988 196.58415587549098,64.40122519491706 197.2220396088669,64.14942511240952 197.83079623105004,64.3469774457626 198.54557553771883,64.07799882430118 199.12025343999267,63.57258935808204 199.7173592176987,63.2864312431775 200.5227238399675,63.05000016372651 200.73564302211162,62.80814401444513 201.72421717329416,62.07669705688022 202.58084551116917,61.56766639230773 203.49077646213118,61.55184392805677 203.9043814400211,62.1345619239728 204.49507925321814,62.338445044646505 205.0068425955251,62.23537333565764 205.2867541332962,62.34341780125396 205.89842346659862,61.875526110176 206.39562325330917,62.1042732844362 207.26419370656367,62.06177876825677 207.5554648177931,61.75527552317362 208.2632536177989,61.6720946271671 208.6430711466819,61.85699124960229 209.71815281768795,62.03149011870846 210.48477838223334,61.851566412020475 211.28227868443355,61.955994511023164 211.9696785066044,61.74397377285641 212.6329028266482,61.888636132585816 212.8193163377,61.827154641388915 213.99517781322356,61.57625572942197 214.11780295101926,61.493074765312485 214.10178303997964,61.27156008646125 214.06450033769943,60.74760916538071 213.88857258670032,59.90765760920476 213.28301994665526,59.11110207007732 212.79164558218326,58.81815696344711 210.63157902215607,58.57810443016933 209.18396159994882,58.224580256210174 207.3469147022115,57.63416648411658 204.5641105066752,56.410386449773796 202.58667093329132,55.469151624827646 201.48391850665212,55.12330783775542 201.12856775103137,54.98406600148883 200.4437893688446,54.66986737551633 199.6692994844634,54.20331548759714 199.57463637331966,52.22000674554147 197.34757745778188,48.670621212455444 196.60804010659922,47.428706920705736 195.28363036434166,45.873478473047726 196.43007345777005,43.798768383217975 200.83438392879907,39.88891026558122 193.43464135099202,30.883039680309594 194.23505436442792,30.319680033135228 194.82487836433575,29.92089648230467 195.15197582216933,29.677195064665284 195.6721860265825,29.422189950360917 195.93025223107543,29.002606418682262 198.91811128892004,26.756373962154612 200.16358655993827,25.702427212323528 201.32371939555742,24.643049608916044 202.70259683555923,23.20431344519602 199.14530275552534,20.996454427368008 197.92312917322852,21.327883388963528 196.44143303111196,21.841077308694366 187.47028280887753,24.86143644998083 187.02492928004358,24.860984303522855 186.00810183107387,25.357892679108772 185.17157120001502,25.89820577960927 184.85554204438813,26.352610321948305 184.8240847644629,26.422692530439235 184.10726655996405,27.169179688673466 182.83994595555123,28.754834730061702 181.57408170669805,29.098911761771888 180.50832071108744,29.213302560150623 178.59030044439714,29.570490833255462 177.54026808892377,29.774404382624198 175.73700863996055,30.543486808717716 176.21352817770094,31.204506692360155 175.1241742221173,31.407966581813525 174.7737750755623,31.96273291646503 173.91394275554921,32.32443799858447 172.85284209775273,32.22994260373525 172.0701966221677,32.33845405851025 171.36328163556755,32.66172744735377 170.57801471999846,33.3977942999918 169.99401614221279,33.34218245616648 169.38351189321838,33.025692018389236 168.6157212444814,33.20835226989584 168.04861639102455,33.50947007362265 167.7707437510835,33.63109261216596 165.05755335104186,34.57649077731185 164.71356216887943,34.12165123404702 164.90813127113506,33.162687221425585 163.5537206043955,32.17206980579067 164.44646656000987,31.315731455455534 164.6416182044195,30.538061192666646 163.54032213333994,28.992659385490697 162.21503857779317,28.44014619436348 162.53572807111777,27.242426625278313 161.90599992882926,26.292475247813854 161.85269731550943,26.34944531857036 159.62185187556315,28.00292731751688 157.01148017775267,29.95932803535834 155.81959879107308,31.096898940741085 153.86749980435707,31.064345324819442 151.66461639106274,36.822642731131054 151.37072383996565,37.428032790194266 150.96789589338005,38.068686460435856 150.44302535103634,38.70662554324372 148.03304817772005,40.93600679677911 147.92819057777524,41.11504352441989 147.36632860440295,41.51606717694085 146.7240758043481,40.22799647995271 145.73754055111203,38.999597650778014 145.0588788621826,39.91920198884327 144.18943459552247,41.90849998127669 143.26231864886358,43.55734300345648 142.2087910400005,46.19175868539605 141.51148799993098,48.326122943661176 138.23323164437898,47.622205498744734 132.66616689774673,46.79712275124621 132.6277191110421,46.86358158668736 130.72134968882892,46.26364293048391 127.08366478211246,46.14564425160643 125.99431082664523,45.995998325699475 124.4543604622595,45.50456219154876 123.3667541333707,44.9407881887164 122.23516586667392,44.41679805412423 117.336277048802,41.825311519554816 115.5772908088984,44.61029930296354 114.93765944882762,45.611710734665394 113.13556508440524,48.17602641496342 112.74031018663663,48.576584993628785 111.86416668444872,49.02868182875682 111.27900302223861,49.03591537056491 108.90747363551054,48.179191101924516 108.72047758218832,47.86633897386491 105.68281116441358,46.24555884592701 104.87336874660105,46.40921975672245 105.4524157155538,45.075515388394706 105.76116309326608,44.13377956330078 106.19399196433369,43.47641570965061 106.62361685337964,43.1332655660226 106.8007096889196,42.7589193393942 106.77100003545638,41.95461531064939 104.44170495995786,40.622240055992734 105.4081425066106,39.059277105960064 105.46290147549007,37.51619625091553 104.8972529778257,33.04920275241602 104.66365354659501,31.997094925143756 104.45335580443498,31.342407304793596 104.09188835555688,30.399255801807158 102.75087615998928,29.667700198770035 102.40484607999679,29.262133396579884 101.89774307550397,28.924386554630473 101.78210844437126,28.73946202476509 101.2505386666162,28.646773631684482 101.17684707546141,28.385437365272082 101.48268174217083,27.89803082786966 101.75909802666865,27.250565172347706 102.15027512877714,26.359844615566544 101.1279135288205,25.65676059294492 98.96842951106373,25.57266164489556 95.58211157331243,25.16211362706963 92.55289201776031,24.89218240592163 89.59241244441364,24.535890768514946 87.62138083553873,24.458121450443286 85.9407465243712,24.600095649657305 84.98217329767067,23.625716723210644 81.790424462175,21.773254392901435 81.14788039110135,22.220885247457772 80.65708856889978,22.077553043491207 79.87327800889034,21.01544491352979 73.32521216000896,15.457492085872218 74.08601230219938,14.675695791258477 75.12847160885576,13.688611795194447 76.91279843554366,12.64364535547793 77.82156430219766,12.178812289028428 77.2160116621526,11.053803647868335 76.97047011554241,10.50034067616798 76.2658852977911,9.618143118801527 76.07830670219846,9.236956704524346 76.14559032884426,8.131376682897098 76.45317262224853,7.090453276294284 75.59741809777915,6.80331671028398 74.39738112001214,6.598929507075809 72.80354560003616,6.186084860004485 71.55632270220667,5.833380161668174 70.04957724444102,5.322409523068927 69.28149532445241,5.266338335874025 68.72866275545675,5.335522943758406 67.52221781329717,5.738873292983044 66.36936675547622,6.384141863789409 66.48121486220043,7.289866007631645 63.9917206754908,7.913877458835486 60.820652088848874,9.734805019921623 61.9129187555518,11.507334758527577 61.37144575989805,12.599332518293522 60.93220892443787,13.815219245385379 60.60918926226441,14.33883070590673 60.41811541339848,14.521506601944566 59.78780472895596,14.4283600008348 59.2119617422577,12.593002112291288 59.18778623989783,11.669665206107311 58.99933383113239,10.772550581139512 58.605244017671794,10.008824588847347 57.882017848896794,9.36537545232568 56.31002766219899,8.005670297134202 56.070311537827365,7.58694994286634 55.45106915559154,6.629678036551923 55.113777208840474,5.939643816673197 53.81179534224793,5.052453755750321 53.84966058668215,5.247798666008748 53.128182044485584,5.378480695770122 50.25391871994361,5.687776260892861 48.90212949330453,5.84242387895938 47.62403185770381,5.935121960006654 44.46607047109865,6.587172715226188 43.411377777694725,6.6862010575132445 39.90563868440222,6.3755503536667675 39.67786467552651,6.003854170325212 38.62637596449349,5.937382888398133 38.59113215992693,5.703602776513435 35.67405198223423,5.420986252604052 34.140509582241066,5.483840199245606 31.445086720050313,5.614069901348557 30.582632959936745,5.532224160153419 28.357321671093814,5 28.02002972434275,8.74995956942439 27.68681557336822,10.848516075406224 26.37027015106287,13.782663050922565 26.36444472882431,17.338494248804636 26.16084622219205,18.50732997182058 26.779506062157452,20.873920536541846 26.92543288890738,22.908155075157993 23.69232355558779,22.779744298022706 22.985117297735997,22.26383967511356 22.191403520060703,21.787723283399828 19.961140622152016,20.664120652189013 19.242283520055935,21.24694784998428 18.53973760001827,22.200086258468218 17.479510755511,22.02510338067077 16.076457813265733,21.419670583913103 14.67602631112095,20.908284291508608 13.599197013303638,20.642417204449885 12.661012764438055,20.620261599193327 12.480715946643613,22.210485753195826 12.501687466632575,23.871233493904583 12.910632106708363,25.82586268056184 13.310547342174686,28.44376330653904 13.37637461326085,29.074496326618828 13.270060657756403,29.864379480248317 13.084229688858613,30.346356004360132 12.904515413334593,30.7537293281639 12.605379982152954,31.006924351444468 11.463888497673906,31.382647139253095 9.29187982226722,33.57095954392571 7.397452515549958,35.8731851853081 8.054851413355209,36.37232909584418 8.653413546620868,36.774717830179725 9.308482275577262,37.18298339424655 11.163296711049043,38.455247927457094 10.543471786659211,39.83103949902579 9.475963164470159,41.99937429733109 7.511339519987814,46.42097440303769 6.444122168817557,46.259121909504756 5.131945813307539,45.86714903230313 5,45.81967822089791" stroke="red" stroke-width="3.9265153441930183px" fill="none" stroke-linejoin="round" vector-effect="non-scaling-stroke"></polygon></svg>