<svg width="35570.97159623116" height="29734.260022100876" xmlns="http://www.w3.org/2000/svg"><polygon points="5,13475.548307840188 21.33127992891241,13712.58064934815 77.36222976009594,13943.14866176789 1552.0209706666647,18408.679145434697 3783.855276088929,26286.469213396544 3859.280221582274,26491.094750540913 3967.447535217798,26680.15666422434 4105.28022897779,26848.49398172146 4268.911970133311,26991.535758346436 4453.799220622226,27105.416847517947 4654.844444728922,27187.073332054657 4866.532715235546,27234.31333854911 5083.075018808886,27245.871885989327 5298.557386808912,27221.43800150312 5507.092356266687,27161.664920821786 5909.747870435589,27009.55762042792 12353.545360782242,29626.497935522173 12583.230690702214,29699.910791602277 12822.476994844445,29729.260022100876 13062.991493404494,29713.548939257336 17266.317616071145,29088.49598992779 18382.34967523557,29090.344568405068 18567.686939591193,29077.86259614193 18749.35622684448,29038.94559846603 20245.04008163564,28610.63768335653 20530.40508842666,28491.84120067954 21109.789931804466,28166.08033092902 21278.59260899556,28053.34481640614 21427.915074275574,27915.578897966887 21624.703371093317,27703.484006766754 22420.73129784898,26743.07498943794 24566.691306666704,26473.05477496126 24768.196156586695,26432.664092598716 24960.998699520016,26361.263844792033 25140.391994311183,26260.558176246006 26448.503661511175,25391.408286936465 26677.62654691562,25199.854509671335 27146.4375947378,24708.94376094028 29841.40287004446,23394.662060741335 30030.773656746664,23284.020659222093 31485.917815751163,22273.23390271375 31667.7304083911,22122.813109204988 32686.999583004508,21121.668609970482 33042.4097578667,20725.849767397915 33125.18696874671,20609.84104417445 33204.62912540446,20715.321630797698 33325.382555022254,20835.10897689761 33508.87636451557,20970.05683915125 33570.4933117156,21005.61792663322 33712.25146624009,21072.200375658053 33785.16041187564,21099.007420993352 33929.75379939558,21138.71911793691 34012.60499313782,21153.904951822828 34163.37536711112,21168.11459941638 34246.05121564452,21168.710883503314 34478.55604992004,21142.99682979926 34628.14415445336,21104.13799057575 34703.20384597342,21077.510324650328 34845.27802965336,21012.655417013797 34913.29682460445,20974.1610648465 35102.54585998226,20835.97092700581 35216.3591728356,20724.164009066997 35353.791368817794,20543.91401637462 35396.45734371559,20472.20954059309 35459.326756693365,20343.004506432684 35492.13029176893,20257.39631795697 35529.89941674669,20127.01110964862 35549.25875114667,20028.96419313876 35563.39879850671,19901.969802431064 35565.97159623116,19793.77989500371 35558.74399488006,19674.212941816775 35541.60880668444,19558.965989586897 35515.9268502756,19450.194803188788 35476.7578763378,19331.68653467315 35436.02914560004,19236.312316764495 35373.255852088914,19118.928385772568 35321.20716088894,19038.71413789352 35234.149721031135,18927.27764679049 35063.615728355595,18762.706234179554 34866.83995619556,18630.371742804593 34649.859580871125,18534.442977183033 34419.372381582274,18477.950686252792 34357.378820835555,18473.92599451018 34398.786504533375,18401.697008405346 34610.20331036451,18099.448035049892 34755.61371335114,17833.446148993156 34804.02326328895,17715.5900667666 34869.69033528888,17511.93892835785 34902.965147022216,17300.304368694895 34956.57039104006,16615.231504675932 34957.77101056004,16416.17002952384 34906.70594190224,15670.90048595285 34636.81966449786,13330.599834676716 34601.063805439975,13139.447868996183 34539.12849891558,12954.913221026596 31900.783997440012,6721.74466830946 31780.072510862257,6498.316976446018 31622.031136142206,6299.215760373278 31431.43934094225,6130.692927749769 31214.133615786675,5998.075306434825 30976.82863360009,5905.572837229527 26579.747220195597,4681.921469082474 26214.659562666726,4633.293837691483 25722.83926215116,4631.242455825675 25391.51575182221,4668.504386034212 24367.764497351134,4907.79227169865 24124.468068408896,4988.614091543597 23899.24035157339,5110.849528821185 23699.070397155592,5270.601544914825 22250.576248888916,6662.985965212574 21753.408502044447,6861.875636928366 21814.224162417813,6753.876987416763 21897.562944000063,6520.0658795451745 21940.08736113785,6275.162733224221 21945.55714133341,5912.197929750488 21902.58358414221,5677.816000888706 21834.603819520038,5470.086999345978 21743.935491697805,5287.255554205913 21653.92223260447,5135.818108439329 21509.953330346674,4932.972066844872 21346.789370595594,4765.262115525082 21218.537748764444,4664.060311713431 20987.952391111117,4529.8486338601215 20736.647754240024,4439.882807265327 20473.07885596447,4397.263203808339 20206.24451726227,4403.428903869353 19944.94025187561,4458.19410943921 19698.08652885334,4559.673661596549 19473.420091448876,4703.624820355559 19282.321193244483,4882.060396860004 19126.247937422246,5091.535925250442 19010.097173902206,5325.2147620770265 18937.435517439968,5575.523479686468 18922.51136824896,5718.4050925234915 18904.17614307563,5803.890453577391 18895.84404167114,6065.422254120989 18934.225709795603,6323.874156086007 18974.70249102224,6443.37593943486 18999.095864035597,6543.958141818002 19099.121858844475,6766.543510422984 19228.539730204502,6961.4246974134585 19387.254815004533,7132.913147396641 19509.70955918223,7242.600438815309 18103.01048519113,7182.925477141165 17927.189048035594,7186.932530498365 14260.667427555542,7533.298399509164 8314.746929208923,5398.837581621716 8187.947585137794,5329.83074293955 7919.7404856889625,5214.299755218264 7690.658669511147,5153.99029489822 7454.778585600026,5131.749448579911 7197.492987733334,5151.37568255316 7043.984082773328,5194.473752284306 6225.035449742281,5126.879879070737 5936.707050666737,5132.48259354668 5655.218862364418,5194.970678378828 5391.728898559988,5311.80542213365 4758.4996775822365,5673.11720044422 4505.631788657745,5856.808598375297 4298.155589688919,6090.170139732771 2413.599752248905,8764.766903411131 2311.480391964491,8935.458091665176 1423.5153604266816,10695.736622998957 194.6247751110932,12793.779563728487 92.76843264006311,13009.374031200772 28.992292693350464,13238.861971232225 5,13475.548307840188" stroke="red" stroke-width="3.696042924827255" fill="none" stroke-linejoin="round" vector-effect="non-scaling-stroke"></polygon><polygon points="16939.638714879984,1526.6025821586954 16944.942179271195,1646.5806472941767 16946.283191466646,1661.572318544262 16962.51427413331,1781.4610390410526 16965.23998919112,1796.4415512668202 16996.764552817855,1931.210443184129 17000.85895082669,1946.1785776927136 17039.748013226665,2065.8791567707085 17045.402168035565,2080.8361703664414 17090.23549127113,2185.500710678578 17097.422314666735,2200.4478541195276 17158.092339484487,2312.512150629831 17162.585196373344,2319.9806404752308 17232.018112568883,2424.5071971084108 17237.474203022255,2431.971073600871 17321.79136426671,2536.43308675522 17328.429141617846,2543.8923561014817 17519.356481137802,2722.822806876211 17528.925902222283,2730.2744114056695 17749.694549617823,2871.7967439735075 17764.09674097778,2879.2422290012473 18002.235049813404,2976.0057267636294 18027.03095950227,2983.44693465624 18295.411947804445,3035.5268429057323 18426.908912355604,3042.9656091262586 18659.783952213358,3028.087771571765 18706.674232035642,3020.648395097116 18978.46600504889,2946.2378415997955 18997.759220906708,2938.795106774138 19247.791876835516,2812.2218557177694 19259.494858808874,2804.7736182708177 19375.24192056898,2722.822806876211 19384.811924195616,2715.3708960837685 19504.45968867559,2611.0119719996583 19512.183615999995,2603.555463966797 19603.430116977775,2506.592939592607 19609.808954311186,2499.132135219872 19696.15161486226,2387.1832036400447 19701.334201742313,2379.7174825519905 19775.728338773362,2260.224102383887 19779.87866083556,2252.753149541386 19842.358353066724,2125.699804765929 19848.75845319114,2110.746494142106 19893.31448632892,1991.0755628292682 19898.085215857776,1976.1111372928135 19933.486597973388,1841.3756561863702 19936.606694115617,1826.3988596162526 19955.92845454224,1706.5398884752067 19957.64957553777,1691.551938911085 19966.54033493332,1541.6041877510143 19966.602375680057,1526.6025821586954 19962.83012352005,1421.5565320264432 19961.687758222222,1406.5449777454487 19947.041772942233,1286.407719149196 19944.5135396978,1271.384955407586 19918.91750826669,1151.1579482067027 19915.100400355528,1136.123956766387 19873.069979022257,1000.7618174632662 19867.515147662256,985.7153293596348 19823.33106773341,880.3548744750442 19816.229878044454,865.2983727504616 19751.674587875605,744.8012418872095 19747.155516586732,737.2675065202639 19677.207341795554,631.7622638266184 19671.7023177956,624.2238205283065 19586.489789155545,518.6526219747029 19579.770747164497,511.1094643397373 19386.15322766232,329.9792602979578 19376.55759217782,322.4282311674906 19154.845226382196,178.8987510659499 19140.362644195557,171.34141186386114 18900.652927715564,73.06725357007235 18875.672352142225,65.50549049081746 18605.13654015999,12.564293537987396 18472.52458979562,5 18235.453789582243,20.128270668152254 18188.178449351166,27.69193141895812 17914.324476871174,103.31114439462544 17894.900480284472,110.87132687150734 17643.44904277334,239.3460991581087 17631.69508835557,246.90059740946162 17516.1423044267,329.9792602979578 17506.70512042666,337.5299742255593 17396.610174577858,435.660584839643 17388.99314375117,443.2068889301154 17305.426005617774,533.7379938068916 17299.05940167117,541.2802080615074 17213.01150748448,654.3757094680914 17207.8551350045,661.9128966921708 17129.40563029342,789.9970687546302 17125.236666880082,797.5286092751776 17062.59124138672,925.5168655813904 17056.187937280047,940.568358683202 17011.70443064894,1060.935265303473 17006.95350755559,1075.9755022504833 16971.81164800003,1211.2814319827012 16968.727960746735,1226.3091835582745 16948.062275413366,1361.5028464258066 16946.539510044444,1376.5181351698702 16939.638714879984,1526.6025821586954" stroke="red" stroke-width="3.7535126120648394" fill="none" stroke-linejoin="round" vector-effect="non-scaling-stroke"></polygon></svg>