<svg viewBox="0 0 318.84734127992056 251.40811804083864" width="1000" xmlns="http://www.w3.org/2000/svg">
  <title>Městec Králové, okres Nymburk, Střední Čechy, 28903, Česko</title>
  <desc>Geojson of Městec Králové, okres Nymburk, Střední Čechy, 28903, Česko</desc>
  <metadata>
    <collboard>
      <support-module name="@collboard/map-svg-geojson" version="0.11.0"></support-module>
    </collboard>
  </metadata>
  <polygon points="8.052549999999883,75.86823733265169 29.744674728811788,114.66516772806767 29.942156542186694,115.27913730251726 76.45407519103128,125.35181359653484 86.08874100444473,129.23794313820667 80.52458896881535,138.5258705928934 80.38973044438853,138.51312835099066 90.72665090658802,148.7007672542602 91.77580944877218,148.4227261866688 89.17301080001153,164.9625926779479 89.41272692438315,167.54484234689858 106.39732795544069,167.350549034403 107.43716582222942,168.56453812318045 88.69270473774623,196.41162145170506 87.15479327107414,199.33016256915994 81.15111312884937,225.8882223554317 81.00576884436987,227.12872314957326 85.79455718221243,238.8974344489177 86.5946789243967,243.35556804083876 134.13653222213134,222.86541023440782 135.2413235466006,221.9246679489513 143.20991860444292,240.20609104549635 143.47177133334435,241.09899333419867 165.09952514662973,231.34191499205895 165.2364225687702,231.45290706502396 172.15323764432787,195.6245412966016 171.24330669324945,189.8000595180563 181.38332788446087,190.95659691465676 182.97803721772607,191.38426850745577 184.65109847996018,174.02194499746088 184.42157684438962,173.78898195605848 211.68513538651268,171.33921484646976 212.93031938662853,171.38062087223057 221.15028141320317,160.26577722919296 221.28339231105156,160.26395709123585 215.59137225777476,148.76402040976222 215.5669054843961,148.299860135048 223.39190388433735,127.00566853586474 224.1279459821303,126.48548381878186 242.25462103993732,138.92861606952624 242.5109396177354,139.0569483696961 247.95945702211566,124.72740498968756 247.91401872886445,124.55992482478155 228.36506683551806,108.12485038265709 228.43526317328315,107.78167171686778 264.15937367999095,110.22942492968991 274.71299984874304,110.59399124232709 299.3353119555172,102.45277478380717 304.3935260710782,101.54974410354748 310.77935391103483,86.6710448035517 310.79479127992045,86.17215738961363 307.8911095732833,73.7624193373847 307.9208192266301,73.57851208371699 268.342026835518,88.74897138492793 265.47417147548504,90.04305668766733 260.7899494666849,65.10495303068433 261.121998533235,63.93317773272406 211.56542295995268,68.7759284152196 198.0469481510586,67.30235609409988 198.00820909321874,44.08441937881412 198.00966544877838,37.635766018625645 175.24449794655766,42.3074620708137 173.78086061331078,42.45679442576488 173.22744550216112,30.24216111153487 173.12899586660888,30.045468387288338 108.38408820445284,21.5984404868575 107.98359042659968,21.43634467232164 68.50761673771876,28.244264691114722 67.9204141776786,28.142274954916275 49.36032770653355,21.799694110617338 48.15766928889889,21.193656049646734 44.03676560879785,8.264289302205498 43.688696631091716,8.05255000000011 8.052549999999883,75.86823733265169" stroke="#009edd" stroke-width="5.061423475089447px" fill="none" stroke-linejoin="round" vector-effect="non-scaling-stroke"></polygon>
</svg>