<svg width="199.57991935999598" height="221.22885834088083" xmlns="http://www.w3.org/2000/svg"><polygon points="5,112.76958897529403 18.74100593791809,122.70431889535394 19.032859591185115,122.97641822113656 21.22409216000233,131.67988096817862 25.892585528898053,130.06990769214462 30.816232391167432,144.27080487232888 33.81253831111826,147.35029623407172 61.07405795564409,162.42286266153678 61.9985524622025,163.11559569567908 66.57442161778454,176.89327883976512 66.04896853340324,181.16968485841062 57.95454435562715,191.93641474843025 54.03694791113958,193.44288370059803 62.60031857783906,196.1603402759647 63.18198698665947,198.07412800751626 71.02620928012766,189.10390695289243 71.28398421336897,189.49048182263505 67.8094111289829,214.3532612355193 68.0893226666376,216.22885834088083 112.60137386678252,204.50445765303448 112.94507377792615,204.48632437677588 124.30406456894707,212.6505715136882 124.73310691560619,213.1843772046268 147.41700977785513,214.26304112112848 147.8067305245204,214.12461508985143 159.35300864011515,190.85764223174192 160.11643022228964,189.39892467757454 159.11533141334075,178.4675260212971 159.65156152902637,177.61958364851307 167.2487859200919,167.9920919071301 167.65248768008314,167.58070803416194 182.88742314674892,168.0810038051568 184.15911281784065,167.1852479786612 185.2604088889202,157.72982689423952 184.95603057788685,157.14766943024006 175.94468494225293,156.10367501311703 176.29828807117883,154.921212687972 193.64785180450417,147.93070987029932 194.57991935999598,146.83933632588014 179.55499036447145,140.2038288168842 178.83904597337823,139.44422108348226 178.6476808533771,124.2656778038945 178.12339285342023,123.80554483924061 171.04375722678378,130.96802558086347 169.59002311120275,131.22109065408586 160.62848483561538,122.19905389565974 159.8694323201198,121.7052911898354 169.23962396453135,117.4095977380639 170.61471488012467,116.41408577980474 173.3736348444363,107.85471074376255 173.01974044449162,105.97465694107814 154.01138773339335,97.17549233569298 153.5663254756946,95.91306719690328 160.88771612453274,78.82603536406532 161.52851256902795,78.70389821578283 170.02576469338965,82.31797877314966 171.83601464901585,84.36417629296193 177.23064689780585,98.4383527720347 178.7222462578211,99.43704284448177 187.53290609782562,95.15375019161729 190.10016967123374,92.17530855402583 177.43395413341932,66.22298547398532 177.28307569783647,64.35098710027523 170.0018804622814,63.53314455063082 169.57837226672564,62.24662962811999 184.37523598223925,49.86658443923807 187.89845134224743,46.03067922301125 145.3632571734488,60.87380773987388 144.775180800003,60.9516985709779 143.8809784889454,54.103839283809066 143.80728689779062,53.88432190811727 129.62150997342542,50.374669824843295 129.1103291733889,49.5359742466826 129.89443100453354,25.40629496832844 129.57374151120894,24.46127269108547 105.48008647118695,28.30684637709055 104.21043569792528,28.380765015084762 100.15011640894227,14.00556058390066 100.08574549341574,12.77940225682687 108.4431874845177,9.655545132351108 108.79009137791581,8.605543874786235 103.84052138670813,7.365632948698476 100.16584504896309,6.667543666320853 92.60794225789141,10.106176524132024 92.40346993785352,11.645753089338541 68.50001493340824,5.076139777083881 68.11582833784632,5 87.25204906670842,18.527237440284807 91.17226695118006,21.268085640273057 84.20710087113548,26.531906408490613 83.77368945779745,31.603947759256698 77.95991808001418,30.31282127124723 75.67256604449358,32.30682730663102 92.26657251559664,39.6293894641567 92.41541205346584,39.666568200220354 87.4338022400625,69.0119239424821 87.9476044800831,69.52704615506809 76.04073272901587,88.22818117239513 75.63673969788942,88.79812946752645 39.271832746686414,68.35784092009999 38.361027982318774,68.41360179428011 38.932210631202906,72.41684187110513 39.20629674673546,74.23788061772939 33.67447580455337,76.21069258917123 32.24579100450501,76.65101049572695 33.06338901340496,84.70314231113298 33.700690204510465,86.14617591741262 21.442836764501408,82.8286448882427 19.206748444586992,83.92829886288382 17.533395911217667,107.77108430722728 17.412227128981613,108.16532294638455 5,112.76958897529403" stroke="red" stroke-width="3.581732624490094" fill="none" stroke-linejoin="round" vector-effect="non-scaling-stroke"></polygon><polygon points="25.892585528898053,130.06990769214462 28.888891448965296,141.0797855813289 30.816232391167432,144.27080487232888 61.07405795564409,162.42286266153678 61.9985524622025,163.11559569567908 66.57442161778454,176.89327883976512 66.04896853340324,181.16968485841062 115.08358627557755,160.0376503727166 115.83302684454247,159.93281014892273 141.4331360711949,162.92051592224743 142.52656782232225,162.91299583681393 161.32374897785485,174.24635981873143 161.78512241784483,174.31536412483547 167.2487859200919,167.9920919071301 167.65248768008314,167.58070803416194 182.88742314674892,168.0810038051568 184.15911281784065,167.1852479786612 185.2604088889202,157.72982689423952 184.95603057788685,157.14766943024006 175.94468494225293,156.10367501311703 176.29828807117883,154.921212687972 193.64785180450417,147.93070987029932 194.57991935999598,146.83933632588014 179.55499036447145,140.2038288168842 178.83904597337823,139.44422108348226 178.6476808533771,124.2656778038945 178.12339285342023,123.80554483924061 171.04375722678378,130.96802558086347 169.59002311120275,131.22109065408586 160.62848483561538,122.19905389565974 159.8694323201198,121.7052911898354 169.23962396453135,117.4095977380639 170.61471488012467,116.41408577980474 173.3736348444363,107.85471074376255 173.01974044449162,105.97465694107814 153.5663254756946,95.91306719690328 153.4696234667208,94.9546281688381 161.52851256902795,78.70389821578283 163.35478243557736,78.69858790340368 170.02576469338965,82.31797877314966 171.83601464901585,84.36417629296193 176.39178609789815,97.12416358839255 177.23064689780585,98.4383527720347 187.53290609782562,95.15375019161729 190.10016967123374,92.17530855402583 177.43395413341932,66.22298547398532 177.28307569783647,64.35098710027523 170.0018804622814,63.53314455063082 169.57837226672564,62.24662962811999 185.97344056889415,45.52523943327833 183.22529763553757,44.99811141949613 141.47158385778312,66.43009921634803 140.9787531378679,66.94124448322691 105.58727424009703,70.89937191130593 105.49465002666693,70.90423986886162 79.49316920898855,101.4321970891906 79.26510392897762,101.50033909938065 72.91714133345522,131.25869645323837 71.82953500456642,133.3283328358084 58.5446596267866,141.82080690993462 57.281999360071495,142.5162587040104 45.11240106681362,111.56167527381331 44.56685027561616,110.42410657258006 33.94768810668029,115.33140614454169 32.5918210844975,116.67557402036618 25.892585528898053,130.06990769214462" stroke="red" stroke-width="3.7949078048079716" fill="none" stroke-linejoin="round" vector-effect="non-scaling-stroke"></polygon></svg>