<svg width="32934.09772259556" height="22269.391901396797" xmlns="http://www.w3.org/2000/svg"><polygon points="5,18708.714124659135 12.852669155574404,18723.24291687482 13.130833066650666,18723.80159276037 19.411512035527267,18723.13018550549 21.42332159995567,18722.93596144335 23.889805368846282,18732.85293861176 24.35088753781747,18734.391716047423 33.66632021323312,18733.08382382698 35.6469637688715,18732.71214378206 41.885117155499756,18744.707446577435 42.05347185768187,18745.087707299623 58.26300046220422,18739.48151060124 59.869069368811324,18739.08177385421 76.96872248884756,18754.4745045671 76.66550926223863,18755.558197325096 107.89064618665725,18768.687472128484 107.79714815993793,18768.98847881111 125.6165321955923,18762.855102713744 125.93576533335727,18762.807121379185 126.57481415104121,18772.074112824164 126.63452472887002,18772.30495650589 156.4761238755891,18766.405692166067 159.30203619552776,18765.441099961812 167.4803464532597,18753.082082740148 167.76928739552386,18752.608584864996 163.70343395555392,18740.023394919233 162.9577799111139,18736.574687938206 167.53423160884995,18735.82500117598 170.89433514664415,18735.02596625127 173.33110926218797,18712.068645712046 173.54694115556777,18711.700551916147 198.47829191107303,18709.076337543724 198.98160839104094,18709.029249902815 194.7366232178174,18626.291420545836 194.83944192004856,18626.041851709597 253.06686719995923,18612.716906714428 255.114211839973,18612.461886733887 270.48662727116607,18630.182573907718 270.49711303110234,18630.568922556646 292.3392423822079,18627.60357722058 293.8221036088653,18627.71273453068 320.92837575112935,18640.70342278527 321.16750933334697,18640.90632537834 323.7953572977567,18631.572157643444 324.2270210843999,18630.039901021286 319.9476659200154,18628.02480637282 318.8842350933701,18627.22945258103 326.1121277154889,18617.502439457225 326.3573779910803,18617.144603919238 323.9951692799805,18613.32795692794 326.92972572438885,18610.19568363682 319.209002382122,18608.908335702203 319.2692955022212,18608.42002932378 333.36769109324086,18584.826914181816 335.8085430044448,18581.51528406702 337.03566819557454,18566.376733384037 337.0714945421787,18566.289292343426 240.20957781327888,18555.736758637126 238.13048462220468,18555.361604413018 231.72514161770232,18547.361785224464 231.13123982213438,18546.628212112817 236.07935345778242,18541.312338591262 235.48370403551962,18540.41970135516 218.5261912177084,18532.284752962936 218.0228747377405,18531.870588827645 221.37773539545015,18525.453209781088 219.8005023287842,18523.14622412063 196.36657635553274,18509.664075683453 195.8996687644394,18509.416185945156 204.7615923199337,18502.15203032043 204.61129642662127,18499.31092682737 194.57438520889264,18490.281147211674 193.49842972448096,18489.37606383901 140.3764044799609,18462.57083825965 140.22989511105698,18462.50012684299 98.36899356439244,18468.47516057099 97.25284266658127,18466.916373385582 91.81597610667814,18479.27214119723 84.8339163021883,18483.026324622333 83.3472685511224,18512.40172037715 82.81191224884242,18519.698161705164 78.45944803545717,18516.139925213705 78.02545407996513,18515.34053754824 76.99668451549951,18530.637154430326 59.03894670214504,18530.926708540297 53.57936099555809,18552.380283388193 53.35449969780166,18552.62631188042 64.92087551997975,18553.423750387505 65.26399288885295,18553.52071146149 66.89015950227622,18563.202555819298 66.8118075733073,18564.20474191266 53.65916927997023,18589.55462065537 53.36906325328164,18592.576656783698 46.45516088884324,18595.97328295 43.53749816888012,18597.25663032179 55.21543082664721,18613.438480282377 55.268150897696614,18613.62283673673 70.28900209779385,18611.00332977809 76.22335971554276,18609.53978036146 76.85192277329043,18651.561163535574 76.67803392000496,18653.97955719719 69.11197553772945,18661.61271921947 68.93983431113884,18661.998559290776 73.32055182219483,18668.30096994934 73.35463054222055,18668.89239181811 46.60429169773124,18677.038543995004 45.69086549337953,18676.675372201076 57.67259391990956,18691.879164004 58.2956228266703,18693.017051083036 20.94621951994486,18694.119614074472 15.411485866643488,18694.38812241028 5,18708.714124659135" stroke="red" stroke-width="3.887465680704379" fill="none" stroke-linejoin="round" vector-effect="non-scaling-stroke"></polygon><polygon points="7441.4002121955855,22212.857730956166 7470.640336497687,22224.97158021928 7471.225791431032,22226.080137744895 7468.535320177791,22234.399933641893 7467.070809031022,22235.39304848702 7450.733994951122,22232.616860234237 7448.622861937736,22232.492106932506 7449.178607217735,22245.019213923253 7450.175628231023,22246.00693470682 7465.83378062211,22238.27078401507 7466.136702577816,22238.296179563215 7474.446958648856,22252.44059995486 7475.723308657762,22253.85196267336 7485.026216675527,22251.71976791043 7486.718501831056,22251.87525042327 7499.341609244351,22262.548484236002 7501.627213653293,22264.391901396797 7504.544293831103,22262.398355093785 7504.494195199921,22262.116806990583 7495.594988942146,22252.253932302818 7495.341874346603,22251.685018221964 7495.883638613275,22239.241159196943 7496.213940053247,22236.87135113083 7506.407263857778,22234.35671589116 7507.512055182247,22234.488151292317 7523.632454826613,22248.989673147385 7524.734042168828,22249.316680404707 7528.661833102233,22241.73524441372 7528.627463111072,22238.466374213924 7537.7780363378115,22239.081212433695 7539.6045974756125,22239.47951975686 7535.8565208177315,22213.831337062293 7535.989340444445,22212.291834356263 7529.970805475488,22206.198328174243 7528.3076474310365,22204.736307239218 7534.7680406755535,22195.40873305255 7535.048826026614,22194.239861974842 7489.508879075525,22173.255722739967 7483.745206328807,22169.541499894694 7475.439901866601,22186.182816153858 7473.493337031105,22189.13739756099 7467.334409386618,22190.24880903802 7463.6265281421365,22197.734424938622 7448.8585002666805,22198.754441865603 7447.523022222216,22199.498173382715 7441.4002121955855,22212.857730956166" stroke="red" stroke-width="3.7377911989993935" fill="none" stroke-linejoin="round" vector-effect="non-scaling-stroke"></polygon><polygon points="10249.060319288867,22137.76259361615 10263.11444167106,22136.64066548797 10263.181725297705,22136.626401764224 10276.968752071145,22155.200108446064 10277.53148785769,22155.698404766037 10304.150754702161,22161.81737392419 10309.890251946636,22161.19608055515 10317.591460124473,22188.89541749528 10317.689909760025,22189.022423640243 10337.176529635559,22207.360897488543 10337.180024888832,22207.437985999917 10347.779671893339,22206.50980288448 10349.22991075553,22206.04325905582 10342.39086506667,22182.074411593843 10342.525432319962,22181.45941441215 10378.046235591057,22152.68810734409 10380.768164124456,22149.974169092835 10396.997790435562,22115.656392699922 10397.242166897748,22114.206253288663 10397.275080533349,22102.672557709622 10397.37236508436,22101.655662667123 10369.932587519987,22083.30036873324 10369.712677831063,22083.196931690327 10373.453763982165,22072.243922522175 10373.731927893357,22072.011623305036 10370.019677582197,22065.816144060344 10368.833912888891,22065.249869909137 10387.0211723377,22044.834938060376 10389.105799679994,22042.79302871786 10408.95912988449,22032.942189153633 10410.293151573278,22031.625291631557 10417.155498951091,22009.058876001392 10417.181422079913,22007.946996622253 10391.171494399896,22004.395902648044 10389.220269226586,22005.497095785337 10377.650689422153,22022.07007920876 10375.850342684425,22024.658937828965 10366.283834311063,22064.564542474865 10365.253608391155,22065.28777019307 10300.521807928919,22102.742104064615 10300.37646364444,22103.014939552988 10298.200959715527,22101.820167268685 10279.656893155538,22097.987936052145 10275.973478684435,22108.870567537146 10259.141794986674,22103.998392776004 10259.03198577778,22103.96451141429 10254.92302421329,22109.964551897254 10251.796228835476,22107.811350123142 10249.060319288867,22137.76259361615" stroke="red" stroke-width="3.1462727163982294" fill="none" stroke-linejoin="round" vector-effect="non-scaling-stroke"></polygon><polygon points="43.53749816888012,18597.25663032179 55.21543082664721,18613.438480282377 55.268150897696614,18613.62283673673 70.28900209779385,18611.00332977809 76.22335971554276,18609.53978036146 75.03526485327166,18651.20111948758 75.38508145778906,18651.41714598774 83.60999509331305,18649.132779452077 84.69585379550699,18647.84384994011 82.45685276435688,18641.337945667794 82.5503507910762,18640.858317192527 89.15230179554783,18628.553832799953 89.46250552881975,18626.881144681887 119.3917772800196,18616.45293786557 121.69311032886617,18614.82726486912 162.4329093687702,18624.010414162767 169.72400782222394,18625.645077436056 183.47083918226417,18641.197091711278 184.45679189334624,18641.94483948697 193.21851818659343,18637.151238081628 194.80303303105757,18636.04566935508 194.7366232178174,18626.291420545836 194.83944192004856,18626.041851709597 200.0304756622063,18624.40447376261 200.1309641954722,18624.238244110253 200.2541718755383,18607.08420229476 200.30922211555298,18606.91116475931 230.84928938664962,18592.166231311625 231.32027477328666,18591.93655579287 227.09130951110274,18587.154538716422 226.4528432355728,18586.447374763957 243.38181148434523,18581.744970570784 244.49271950218827,18580.576149157016 236.21159054210875,18567.88859701919 235.78895615995862,18566.36721907562 251.01427967997734,18559.585676800227 251.94226944004185,18558.98489664239 286.98451427556574,18562.57596063486 287.87842531548813,18560.641342295334 240.20957781327888,18555.736758637126 238.13048462220468,18555.361604413018 231.72514161770232,18547.361785224464 231.13123982213438,18546.628212112817 236.07935345778242,18541.312338591262 235.48370403551962,18540.41970135516 218.5261912177084,18532.284752962936 218.0228747377405,18531.870588827645 221.37773539545015,18525.453209781088 219.8005023287842,18523.14622412063 196.36657635553274,18509.664075683453 195.8996687644394,18509.416185945156 204.7615923199337,18502.15203032043 204.61129642662127,18499.31092682737 167.81006535107736,18480.851689011615 165.7667985066073,18479.963789655594 164.51287637325004,18472.43893525086 164.20762424881104,18471.392813959974 140.3764044799609,18462.57083825965 140.22989511105698,18462.50012684299 98.36899356439244,18468.47516057099 97.25284266658127,18466.916373385582 91.81597610667814,18479.27214119723 84.8339163021883,18483.026324622333 83.3472685511224,18512.40172037715 82.81191224884242,18519.698161705164 78.45944803545717,18516.139925213705 78.02545407996513,18515.34053754824 76.99668451549951,18530.637154430326 59.03894670214504,18530.926708540297 53.57936099555809,18552.380283388193 53.35449969780166,18552.62631188042 64.92087551997975,18553.423750387505 65.26399288885295,18553.52071146149 66.89015950227622,18563.202555819298 66.8118075733073,18564.20474191266 53.65916927997023,18589.55462065537 53.36906325328164,18592.576656783698 43.53749816888012,18597.25663032179" stroke="red" stroke-width="3.471002445203479" fill="none" stroke-linejoin="round" vector-effect="non-scaling-stroke"></polygon><polygon points="32918.68186766212,6.032605021318886 32920.9028098844,37.26251094730105 32922.03905848891,40.10320212109946 32926.48094293324,37.073130146367475 32927.3932040534,19.495561184710823 32929.09772259556,14.502936371834949 32925.46498929779,5.671094942779746 32918.68186766212,6.032605021318886" stroke="red" stroke-width="3.561265685738423" fill="none" stroke-linejoin="round" vector-effect="non-scaling-stroke"></polygon></svg>