<svg viewBox="0 0 310.4083433777116 312.09035097989477" width="1000" xmlns="http://www.w3.org/2000/svg">
  <title>Lázně Bělohrad, okres Jičín, Královéhradecký kraj, Severovýchod, 50781, Česko</title>
  <desc>Geojson of Lázně Bělohrad, okres Jičín, Královéhradecký kraj, Severovýchod, 50781, Česko</desc>
  <metadata>
    <collboard>
      <support-module name="@collboard/map-svg-geojson" version="0.11.0"></support-module>
    </collboard>
  </metadata>
  <polygon points="8.052549999999883,136.8578973200997 27.12003074665654,131.71257021217707 29.064847955457935,132.20012378643833 44.18997421322956,146.49282225254092 44.6490174844871,146.5829175472968 60.92349954668998,135.42590789855558 61.5989572532485,134.83454061145994 68.23090918220214,146.29525274396974 70.85322299550853,149.400548933168 96.62343455115433,157.42609264105658 96.82412034666731,157.44895831574786 96.8573252532874,170.09879392697576 96.29342438220147,172.06603257862253 84.55811131545443,185.18827342996474 83.1672917599567,187.39040171085026 100.55938107553038,189.24454343130446 101.7745641510478,189.33050572020102 83.64060731555901,189.91120752259258 84.26159732437327,191.03419808540593 93.05798488003302,191.39450489820547 97.16956788438938,191.5769442866217 112.13740774218559,209.5718455090896 112.20585645337223,209.90880413781952 131.64499913770806,207.5958034845312 131.86432628436114,207.76588462733298 139.88418505780965,245.44379415384128 140.01554832884676,245.81543860558986 148.23376272884298,249.40842587312318 149.64730143102452,249.82714671918757 130.25650975105918,284.85603797072645 128.84996155554063,287.5402433788181 175.75771764442425,302.94144568456204 176.68192087996385,303.3641760827518 190.35214793773002,298.65788344221755 190.80099671995367,297.9225445421539 195.52949193781342,268.15133321929125 196.0130019822168,267.44148727387756 257.463342106646,275.3214238493015 260.04371287997446,274.4210047720476 273.40927035557206,242.56707081126615 273.6711230843571,240.97349682599406 284.82622409772694,242.97391943305365 285.5514891644484,243.10785931765668 298.3251837421917,216.34749357411738 302.3557933777115,212.5358747308851 286.0169403999821,203.294809317194 285.6543078666796,202.95372543860094 298.56053080000083,193.32908617365274 299.35890491549026,191.11695896727133 292.3133480087631,196.28739376340627 291.97197826670117,196.3340313646254 282.03642939552765,169.29351046580223 285.20662416888035,165.51810410861026 275.8134221066498,158.2021522911159 272.76468738666836,157.66481016620628 288.2113769510538,137.52609482742946 288.33633225769836,137.14100110167738 264.6906521866108,125.28142539799546 262.3065981421164,125.20275577696839 246.22668518216915,90.94902427620355 244.98237499545894,87.98790432917986 225.75265623999394,72.24109218156764 223.72278786657944,70.51587717698521 222.11322370669905,50.283490956273 222.11846658666718,50.218977812538924 203.45701776885062,44.170213220851565 203.099336844381,44.32166317254405 204.07189108440753,31.568839882303564 204.00489872889693,31.459478346899687 199.522818871053,36.302905916796135 198.39356077320508,35.72957054913377 200.02817424885097,32.90039221835423 202.11047142217967,29.63738806520223 177.56097709338746,12.122208763997605 176.38744578659634,8.737162294542486 156.35440130657616,10.132465003967354 155.52631753773994,10.083956762834987 152.32641311115685,20.11532112103987 152.34068539550162,20.19219853761706 142.58514207110375,12.351934211306343 139.42776322653617,10.569953931706095 94.07714249773517,10.576818290609936 90.83296486220888,8.13263510625211 84.14887540447626,42.27685110268749 83.9417816444543,44.205902342895115 71.88869179550193,59.695340768411825 70.98021719998314,62.1252161630905 57.32659259552702,56.381040077401394 54.1814471378234,54.06502567275993 57.28989243551723,51.99651378088265 59.086161377701046,51.05169918316051 54.79136884443096,43.96339921837307 53.9286238132986,42.005062140734935 43.65432663993079,43.68932460513997 40.22664820435557,41.7735379409055 37.207331866702134,80.51195979017166 37.713852328808116,82.45530933925284 26.28000486220799,80.44288089508291 25.76270736879769,81.3226058383948 20.156612293306807,113.36356663457218 21.549470746634597,117.37818730201207 13.251448062226245,119.10440098224308 11.833249022230575,119.06689463099565 14.309927279922249,132.20927112256277 14.404299119930783,132.3917603972145 8.052549999999883,136.8578973200997" stroke="#009edd" stroke-width="6.01726262779914px" fill="none" stroke-linejoin="round" vector-effect="non-scaling-stroke"></polygon>
</svg>