<svg viewBox="0 0 89.68091084442791 90.1014127449737" width="89.68091084442791" height="90.1014127449737" xmlns="http://www.w3.org/2000/svg">
  <title>Lázně Bělohrad, okres Jičín, Královéhradecký kraj, Severovýchod, 50781, Česko</title>
  <desc>Geojson of Lázně Bělohrad, okres Jičín, Královéhradecký kraj, Severovýchod, 50781, Česko</desc>
  <metadata>
    <collboard>
      <support-module name="@collboard/map-svg-geojson-import" version="0.11.1"></support-module>
    </collboard>
  </metadata>
  <polygon points="8.052549999999997,40.25388683002495 12.81942018666416,38.96755505304429 13.30562448886451,39.08944344660961 17.086906053307416,42.662618063135255 17.2016668711218,42.685141886824226 21.27028738667252,39.89588947463892 21.43915181331215,39.74804765286501 23.09713979555056,42.61322568599246 23.75271824887716,43.38954973329203 30.19527113778861,45.39593566026417 30.245442586666854,45.40165207893699 30.253743813321876,48.564110981743966 30.112768595550392,49.05592064465566 27.178940328863632,52.33648085749121 26.8312354399892,52.88701292771259 31.17925776888262,53.35054835782614 31.483053537761975,53.37203893005028 26.949564328889778,53.51721438064817 27.104811831093343,53.79796202135151 29.30390872000828,53.88803872455139 30.33180447109737,53.93364857165545 34.07376443554642,58.432373877272425 34.090876613343085,58.516613534454905 38.95066228442704,57.93836337113282 39.00549407109031,57.98088365683327 41.01045876445244,67.40036103846035 41.043299582211716,67.49327215139749 43.09785318221077,68.39151896828082 43.451237857756155,68.49619917979692 38.60353993776482,77.25342199268164 38.25190288888518,77.92447334470455 49.97884191110609,81.77477392114054 50.20989271999099,81.88045652068797 53.62744948443253,80.70388336055441 53.739661679988444,80.5200486355385 54.92178548445338,73.07724580482284 55.042662995554224,72.89978431846941 70.40524802666152,74.8697684623254 71.05034071999364,74.64466369301192 74.39173008889304,66.68118020281656 74.4571932710893,66.28278670649854 77.24596852443176,66.78289235826344 77.42728479111213,66.8163773294142 80.62070843554795,60.12628589352937 81.6283608444279,59.1733811827213 77.54364759999555,56.863114829298524 77.45298946666992,56.77784385965026 80.67954520000023,54.37168404341321 80.87913872887259,53.81865224181786 79.1177495021908,55.111260940851594 79.03240706667532,55.12292034115637 76.54851984888194,48.36279011645058 77.34106854222011,47.41893852715259 74.99276802666247,45.589950572779 74.23058434666711,45.455615041551596 78.09225673776348,40.42093620685739 78.12349556442462,40.32466277541937 72.21207554665273,37.35976884949889 71.61606203552913,37.34010144424212 67.59608379554231,28.776668569050912 67.28500624886476,28.03638858229499 62.47757655999851,24.099685545391935 61.970109466644885,23.66838179424633 61.56771842667479,18.610285239068276 61.56902914666682,18.594156953134757 56.90366694221268,17.081965805212917 56.81424671109528,17.119828293136038 57.05738527110191,13.931622470575917 57.04063718222426,13.904282086724947 55.92011721776328,15.11513897919906 55.637802693301296,14.971805137283468 56.04645606221277,14.264510554588583 56.567030355544944,13.448759516300584 50.42965677334689,9.069964690999427 50.13627394664911,8.223703073635647 45.12801282664407,8.572528750991864 44.92099188443501,8.560401690708773 44.12101577778924,11.068242780259993 44.12458384887543,11.08746213440429 41.68569801777596,9.127396052826612 40.89635330663407,8.68190098292655 29.558698124433818,8.68361707265251 28.747653715552246,8.072571276563053 27.07663135111909,16.608625275671898 27.0248579111136,17.090888085723805 24.011585448875508,20.963247692102982 23.784466799995812,21.57071654077265 20.37106064888178,20.134672519350374 19.584774284455875,19.55566891819001 20.361885608879334,19.03854094522069 20.810952844425287,18.802337295790153 19.737254711107767,17.030262304593293 19.521568453324676,16.54067803518376 16.952994159982723,16.96174365128502 16.09607455108892,16.4827969852264 15.34124546667556,26.16740244754294 15.467875582202055,26.653239834813235 12.609413715552023,26.150132723770753 12.480089342199449,26.370063959598724 11.078565573326728,34.38030415864307 11.426780186658675,35.38395932550304 9.352274515556587,35.815512745560795 8.99772475555767,35.80613615774894 9.616894319980588,39.09173028064072 9.640487279982722,39.137352599303654 8.052549999999997,40.25388683002495" stroke="#009edd" stroke-width="6.415453124232408px" fill="none" stroke-linejoin="round" vector-effect="non-scaling-stroke"></polygon>
</svg>