<svg width="9402.327666346682" height="2314.407076319796" xmlns="http://www.w3.org/2000/svg"><polygon points="5,1321.5655563688488 5.002330168907065,1324.1625923937536 5.124955306702759,1334.6889656405547 5.183792071125936,1337.296133950178 5.53419121785555,1347.807046375412 5.64982584893005,1350.421652095567 6.227707733341958,1360.91351177037 6.400431502261199,1363.5328601971269 7.204922311124392,1374.0017760950723 7.4353177600423805,1376.6234720780049 8.465834951144643,1387.0661522294395 8.753319537790958,1389.6875013921526 10.009280568920076,1400.1000553442864 10.354145564429928,1402.7183634805842 11.83525916445069,1413.0974998162128 12.236922026670072,1415.7103722528554 13.942314382235054,1426.0522010844434 14.397571128909476,1428.6572432991234 15.797420088900253,1436.1813380173407 16.71405027556466,1438.5205150293186 16.836384142225143,1441.5505971626262 16.522102613409515,1451.1044629725511 16.390448071120773,1464.2315052315244 16.543656675552484,1477.3580099425744 16.981145884492435,1490.4779905036557 17.702915697766002,1503.5848620868637 18.708674844470806,1516.6726389892865 19.99784078222001,1529.7347373005468 21.56983096897602,1542.7654715231038 23.423771591158584,1555.7582586389035 25.558788835594896,1568.7071147011593 27.973717617802322,1581.6057568843826 30.667975395568646,1594.4479027986526 33.639523271122016,1607.2278690588428 35.92454513779376,1616.1708085230202 35.427927893353626,1634.4065098056453 35.20394040888641,1651.3821320506977 35.35685774224112,1664.5052495790878 35.794346951064654,1677.621845797461 36.51582549337763,1690.7253375739674 37.52129336888902,1703.8097407448222 38.809876764484216,1716.8687723329058 40.3815756799886,1729.8961498090648 42.23493376001716,1742.8855910892598 44.369368462241255,1755.831113756809 46.783714702236466,1768.726436591358 49.47709866671357,1781.565578021109 52.44806400005473,1794.3422576718149 55.695154346642084,1807.050494797295 59.21662208007183,1819.6843090479379 63.01130211557029,1832.2374212698778 67.07686428440502,1844.7041510922718 71.41156095999759,1857.0785193158663 76.01335324445972,1869.3545471105608 80.87991096888436,1881.5262560069095 86.00890396448085,1893.5882662266959 91.39800206222571,1905.5348991313367 96.55466581333894,1916.333460609254 95.95202588447137,1921.2241130323964 94.65033528895583,1933.4709434783435 93.15873592894059,1949.5424660192803 92.09617891558446,1965.6480368612683 91.46382933337009,1981.7762868257705 91.81073322665179,2023.20478261268 93.4162195911631,2048.447680581303 96.07494229334407,2073.599383431778 99.7825322666904,2098.6156363661285 100.22031274664914,2101.196143256384 100.85965283558471,2104.897007396561 103.27283399109729,2117.7861815587385 105.96505287114996,2130.619203173381 108.93427057779627,2143.3900938984007 112.17961329780519,2156.092277665972 115.69962467555888,2168.7200760136475 119.49226581334369,2181.267511792714 123.55578908446478,2193.7286082347273 127.88844686222728,2206.0970899018575 132.48790897784056,2218.367279815837 137.3803898310871,2230.5777580857975 137.23417173331836,2241.8045332395704 137.38679779559607,2254.917671073752 137.8237044622074,2268.023698442965 138.54460046224995,2281.1169345782837 139.5489032533369,2294.191101100354 140.55874019558541,2304.4236240538885 219.80224995559547,2304.4236240538885 780.5579756089137,2304.4236240538885 782.9851377778105,2309.407076319796 806.6273225955665,2285.1368356064777 807.2579245511442,2284.4897777402075 810.8291996445041,2280.8239031505072 809.8362564267009,2279.365621550125 808.9612780088792,2277.7404878508532 808.2051382045029,2275.5813120416715 807.8987209955812,2273.6155924140476 808.0862995911739,2272.3657101594727 808.8989459911827,2270.4905837930273 812.5800302933203,2263.9561602634494 814.1426998044481,2261.456360917946 815.8987733333488,2259.303117874253 818.2676812800346,2257.3313744609477 820.7676612266805,2255.3312186839175 822.1424608711386,2254.6437666721176 823.3299731911393,2254.2687925774953 824.8926427022088,2254.2062968765385 826.3926889244467,2254.2062968765385 827.9550671644974,2254.3937839635764 832.7051164445002,2255.5187054850976 834.0175840711454,2255.4562098899623 835.5176302933833,2255.0812362083234 838.2051888355636,2254.2687925774953 839.3927011555643,2254.018809741887 840.8924561066669,2253.893818292301 842.6427042133873,2253.9563140197424 843.7675932444399,2253.6438353296253 845.2050161777879,2253.081373353838 846.0799945956096,2252.2061326269177 846.9549730133731,2251.706165472977 847.704996124492,2251.6436695549055 848.8301764266798,2251.3936858297675 849.8301101511461,2250.7687261461397 851.8299776000204,2249.0188362151966 852.6426240000292,2247.1436505143647 853.2050685155555,2245.706234168494 853.9550916266744,2244.5188011611463 857.2050946844975,2239.9562417425914 857.9612344888737,2238.6781937564374 858.3987236978137,2236.927976109844 858.8362129066954,2235.490539852937 858.9614594845334,2234.178095605923 858.9614594845334,2232.8656490228605 858.8300962133217,2231.268820911704 858.4552302933298,2229.7688758505974 857.9551177956164,2228.1436328911223 857.1424713955494,2226.143696987303 856.0863223467022,2223.8656533389003 850.5239179378259,2213.6780650952714 848.5176425245008,2211.2687044069753 847.2675069155521,2209.143723679299 846.580107093323,2207.8937321535195 846.267573191144,2206.7062382400036 846.4551517867367,2205.5187424127944 846.9549730133731,2204.6437442628085 847.7676194133819,2204.0187449480873 849.2676656356198,2203.3937451032107 851.0799544889014,2202.8937448455836 854.2050022399635,2202.4562443417963 855.8926270578522,2202.0187435782864 859.3302087111515,2200.4562387305195 860.5800530489068,2200.206237647333 861.9612606578157,2199.8031256743125 863.1426562844426,2199.2062324663275 863.8300561066717,2198.456227689807 864.5174559289007,2196.8937152863364 864.9552364089177,2195.5187016297714 865.2112637155224,2192.4905524564674 865.4550576355541,2191.518647307821 867.3925930667319,2188.768896409718 868.0864008533536,2187.490759653505 868.3989347555325,2186.490737210028 868.39252679114,2185.4563226138707 868.0237775645219,2184.0531768153305 867.2114224355901,2182.4906338571454 866.2738207288785,2181.3030989915133 865.1425237333169,2180.518684959039 863.9550114133745,2180.1436731514405 862.7112837689347,2180.240566172637 856.9551840711501,2182.3312393364613 855.0799806577852,2182.7062500299653 854.2050022399635,2182.6437482609763 853.3987638044637,2182.1781248676125 852.9612745955237,2181.2405971034314 852.330090097792,2179.518653047853 851.5177349689184,2176.3938436257304 850.8364518400631,2175.1156853903085 849.6489395200042,2174.115646140999 848.7052211199771,2173.768742256274 846.7676856889157,2173.3937270108727 844.6489796266542,2172.7405899551813 841.0864426667104,2170.9905147316167 839.711351751117,2169.8657632334507 838.4550994488527,2168.581313462404 836.8927212089184,2166.018687420874 836.2737700977596,2164.6780078778975 836.0238594844704,2163.6157501243288 836.0174515200197,2162.7688137899386 836.3926087110885,2161.6437506691436 838.080233528919,2157.518803574203 838.7050100622582,2156.1437163840747 838.8299653689028,2154.9561390158487 838.8987053511664,2153.553234145569 838.5177227377426,2151.3311900483095 838.4583034311654,2148.6467843534774 838.6426780444453,2147.018670780759 838.9951160889468,2145.3729086710955 839.5863964444725,2142.990539626102 840.2050562844961,2141.7688472601585 841.3302365866839,2140.0812037709984 842.885041777743,2138.6247371121426 844.8415098310797,2137.5056184717105 846.7525395911653,2136.8497579320683 848.3926872177981,2136.393675816653 852.1489194667083,2135.490482858615 853.142736497859,2135.1438598361565 854.0864548977697,2134.928229728539 855.3925145600224,2135.2063656391692 856.4550715733785,2135.643607040809 857.4550052977866,2136.6436985720065 858.0800731022027,2138.0188222071156 857.9551177956164,2139.3936442025006 857.0801393777947,2140.3312252729665 855.3989225244732,2141.678229606012 854.6424914489035,2142.5186107225018 854.5175361422589,2143.393682708207 854.892693333386,2144.8312987108948 855.5174698667252,2146.9561659813626 856.4614795378293,2152.178139545431 856.8925607822603,2153.206320569676 857.7113238755846,2153.990763706737 859.1426301155589,2154.768626624602 861.3988161422312,2155.6155721653486 864.8926131200278,2157.143780049926 866.4549913599622,2157.581307476328 868.1426161778509,2157.83132303186 871.642529848963,2157.6438113731565 874.8925329066697,2157.206283983891 876.7051130310865,2156.7687563344953 879.7739454578259,2155.7405802876456 884.1427208533278,2153.7688587943558 886.5174542222521,2152.8312948477105 888.2114870044752,2152.2406439011684 889.6425019733142,2151.5812077272567 893.7738914133515,2148.740690867766 895.2675296711386,2147.64371848217 896.2674633955467,2146.643641904986 896.6426205866737,2145.4563482705853 896.7739838578273,2143.8656110504526 896.4550419911393,2142.3313942294917 895.8987141689286,2140.7406502523227 894.1426406399696,2138.518866528 893.2676622222643,2137.643788743415 892.3364684800035,2137.365653754445 891.0175928889075,2137.7062943339697 889.8988205511123,2138.4282484735595 887.0863067022292,2142.115766228817 886.0799650133122,2142.3936003538547 885.2113945599995,2142.178271439392 884.6425420800806,2141.643836764095 883.8989269333542,2139.8655751107726 883.0801638400299,2138.518866528 881.9549835377838,2137.268755088444 875.8924666311941,2133.7687308262102 874.4614516622387,2132.8655346448068 873.0237374578137,2131.6782187719364 871.5175745422603,2129.956158742134 870.2677302045049,2128.456306368753 869.830240995565,2127.0811648545787 869.5800391110824,2125.7063198436517 869.3924605156062,2122.643788760528 869.0237112889299,2121.240523186687 868.39252679114,2119.768766283407 868.2113561599981,2118.115765330498 868.0237775645219,2117.053141260927 868.1426161778509,2115.7688983571134 868.7738006755244,2114.3970229864935 869.8925730133778,2112.2998760941555 870.4299682133715,2111.7094916770584 870.8925067378441,2111.3000505339005 871.523982506711,2111.0530099675525 872.1802163199754,2110.8654863829142 874.5799990044325,2110.6438675394747 875.4864347022376,2110.6749719426152 876.3299558400176,2110.8624955757987 876.7051130310865,2111.112527012301 876.992597617791,2111.4594604435842 877.2052255289163,2112.3312795073143 877.1426022400265,2112.8313412961434 876.7362790400512,2114.456240681291 876.6800637155538,2114.8656800665776 876.6113237333484,2115.6749876328977 876.7051130310865,2116.393673538638 876.9614316088846,2117.021738049516 877.3613468444673,2117.831342320249 878.5488591644098,2119.206202055677 879.5552008533268,2120.02178546082 880.2988160000532,2120.4874481874285 881.1737944178167,2120.8313864281517 882.2363514311146,2121.1125184357516 885.7677223822102,2121.6125742518925 886.6112435199902,2121.768692086509 888.705191537796,2122.050122811983 890.5489376711193,2122.0812267325236 891.2675035022548,2121.9562128900434 892.0801499022054,2121.737588152755 893.1427069155616,2121.362546386372 894.5801298489096,2120.6749693177408 900.9612973511103,2117.459289341641 904.1489683911204,2116.2719485927955 907.4237294933409,2115.362450263696 908.3051158755552,2115.084306847304 909.1489282844705,2114.6781574545894 909.8613774222322,2114.237613713776 910.4549879467231,2113.7686571538216 911.3052083200892,2112.928243182425 914.0175249067252,2109.9562804460875 915.7363157333457,2107.799902658444 916.0176836266764,2107.1126119869296 916.1114729244728,2106.4875298347324 916.2113789155846,2105.7093167664134 916.2049709511339,2104.081108127197 916.3675002311356,2103.3031915947213 916.61770211556,2102.553089060413 917.0176173511427,2101.7688901378424 918.0862910578726,2099.334338952147 918.5176635733806,2098.050065089483 918.742524871137,2096.521734396112 918.7675741866697,2095.4249831900233 918.742524871137,2094.3656162766274 918.579995591077,2093.5186001866823 918.267461688898,2092.456239642692 917.0176173511427,2090.64376287139 916.6488681245246,2089.9280426773475 916.023800319992,2088.490618401207 915.2114451911766,2085.8029923486174 914.6175433956087,2082.8970192635898 914.5799694222515,2082.049989951134 914.6175433956087,2081.115624562488 914.8051219910849,2080.0843517805915 915.1112479289295,2079.1437029253575 915.5175711289048,2078.237448675849 916.0176836266764,2077.36259821587 917.0237340445165,2076.2092894871603 917.8052144355606,2075.678096890915 918.4614482488832,2075.42805339623 919.0489420800586,2075.3936574542895 919.5175972977886,2075.518679218134 919.9926604800276,2075.834523579397 920.5551049955538,2076.3968219166854 921.0799755377811,2077.112555294647 921.45513272885,2077.7687682342366 923.4864574577659,2082.2686264949734 924.0489019732922,2083.2373859932995 924.5239651555894,2083.8968834697152 925.142624995613,2084.487589323544 925.9238141155802,2085.0498810367426 926.8675325156073,2085.5532513915095 927.6737709511071,2085.862511438434 928.8050679466687,2086.178052261239 929.8926742755575,2086.268676756823 930.7050294044893,2086.20616679237 931.8925417244318,2086.0186368672294 932.9550987377297,2085.800001439464 933.9550324622542,2085.331325823092 934.9925401600776,2084.77172614733 937.3363987911725,2083.021740658267 940.6175678578438,2080.4594146130257 942.9299692088971,2078.49048215308 943.6176603022614,2077.8967805351713 944.3612754488713,2077.050044551026 945.0550832356093,2076.115672801854 945.3676171377883,2075.396947500936 945.3300431644311,2074.768847411149 945.0489665422938,2073.956204735965 944.5176880356157,2073.2688824044308 944.117481528956,2072.8968068617396 943.5550370133133,2072.4906341489404 942.9614264888805,2072.2405895690317 942.2114033778198,2072.084461211518 940.2427019377938,2071.52186047571 937.7363140266389,2070.3625606306596 936.673757013341,2069.7688524420373 935.0802127645002,2068.4875178690418 934.6176742400276,2067.896799146489 934.0799877688987,2067.0500516323955 933.8612431644578,2066.2374004153535 933.7051218488486,2065.175000412215 933.9299831467215,2064.0219716422143 934.2739743288839,2063.1782106609317 934.7114635377657,2062.396960706217 937.1427035022643,2058.706351001456 937.517569422198,2057.9250962880324 937.7674800356035,2056.956303396437 937.8988433066988,2055.9593935381854 937.8050540089607,2055.053110674082 937.517569422198,2054.2374551396933 936.4299630933092,2051.490480953187 936.1488864711137,2050.615598623117 935.9301418666728,2049.7093091610586 935.7049892978393,2047.4875492700958 935.5549846756039,2046.4595194301219 935.2989573688828,2045.7688811758417 934.8614681600593,2045.143746812304 934.3613556622295,2044.5811254298314 933.6424985600752,2044.0813162801205 932.7113048178144,2043.5530915185227 928.7739019378205,2041.7719004624523 926.7987925334019,2040.7686886847368 925.7988588089356,2040.0188213827787 924.3926018844941,2038.8313554398483 922.8613896533498,2037.0812604424427 921.9301959111472,2035.8342666045646 921.3674601244857,2034.8032293217839 921.0176435200265,2033.7374935841071 920.8364728889428,2032.4904940630076 920.8300649244338,2031.3936472057248 920.711226311163,2030.4906242508441 920.3614097067039,2029.5499118420994 919.2362294044578,2027.7061718446203 917.0176173511427,2024.3623622548184 916.6112941511674,2023.299901628925 916.1426389333792,2020.518712219142 915.9926343111438,2018.4906926428084 915.9926343111438,2017.0531284669414 916.1738049422274,2015.9873669396038 916.5489621333545,2014.9563017594046 917.2113126400509,2013.9593348324415 917.8675464533735,2013.1155162812793 919.0862247822806,2011.9594144919538 920.5862710044603,2010.9594522762927 921.5800880355528,2010.4874385281 922.7987663644599,2010.2062641610974 923.9239466667059,2010.050122604298 925.1114589866484,2010.1437477180152 926.142558720021,2010.4874385281 926.7987925334019,2011.0500860600732 927.267739022267,2011.7688743842882 928.055044835608,2013.1155162812793 928.5487493689288,2014.4875809037476 929.611306382285,2019.1436676995945 930.142584888963,2020.6748515469371 930.5489080889383,2021.3000067601097 931.0175633066683,2021.7376150923665 931.8302097066771,2022.0498931957409 933.5175432533724,2022.2688467291882 934.4863109689322,2022.112408623856 935.6738232888747,2021.8626459965017 936.9862909156363,2021.2063830707339 938.0488479289343,2020.5812277777586 940.1425046756049,2018.8313883587834 942.3051926755579,2016.6469248454669 942.955018524488,2016.1123988240142 944.7113833245239,2015.0532165639452 945.236253866693,2014.5500969765126 945.673743075633,2013.9874521300662 946.0177342577954,2013.206149798585 946.1426895644981,2012.2375969777931 946.2114295466454,2011.3031427040114 946.1799722667201,2010.240663158591 946.0550169600174,2009.2406985989655 945.8613216711092,2008.5500253025093 944.4614727111184,2006.209388785821 942.9614264888805,2002.9279982381267 942.086448071117,2001.1155994778965 939.2675262578414,1996.237445679726 938.6112924444606,1994.018814218347 938.4924538311898,1993.1468546194374 938.5801264355541,1992.3000208222074 938.9238263466978,1991.768767470785 939.4300555377849,1991.146877500927 940.3364912355901,1990.5845138222794 940.9927250489127,1990.334441324405 941.7363401955809,1990.2061146147898 942.361407999997,1990.2061146147898 942.9238525156397,1990.3000413927948 943.954952248896,1990.7062596126925 945.1488725333475,1991.4594677633722 945.7052003555582,1991.9563214851078 946.1738555733464,1992.64371999813 947.6488524799934,1995.99066551344 948.0863416889333,1996.6780602427898 949.2112307200441,1998.2718084670487 949.7987245511613,1998.9251006567501 951.3302280533244,1999.8936710642884 951.9550045866636,1999.9561883814167 952.7364849778241,1999.8625619667 953.334755840071,1999.6738134713378 953.6175800889614,1999.5843747854233 954.6113971199957,1999.424940579047 955.329962951073,1999.26879672613 959.1427017956157,1998.831174983934 961.0802372266771,1998.3938521071686 964.4237383111031,1997.9251206628396 965.3613400177564,1997.8626031725435 966.5176863289089,1997.8626031725435 967.6489833244705,1998.0217385920114 968.2364771555294,1998.2062997400644 969.3302001778502,1998.3938521071686 969.9238107022247,1998.4563695521792 970.3924659200711,1998.362443819351 971.3364755911753,1997.9281119302032 973.5550876444904,1996.6469510087627 974.2675367821939,1996.1438187900349 974.6426939733792,1995.6436775026377 974.8363892622874,1995.115716981527 974.9237705955748,1994.3936219192692 974.9863938844646,1993.4250442439807 974.9237705955748,1992.6751285309438 974.3362767644576,1991.084359432396 973.9299535644241,1989.8342960727168 973.6488769422867,1988.5531210031477 972.9550691555487,1983.5501453055185 972.7674905600725,1982.4251067239675 972.6489432178205,1981.5531333301333 972.5863199289306,1980.615648599225 972.6801092266687,1978.8343046520022 972.8362305422197,1978.1780032041715 973.1487644444569,1977.584519529133 973.5862536533386,1977.0843655748176 974.5177386666765,1976.3311426477158 975.486215111101,1975.7373583407607 976.5863460977562,1975.2249385495088 983.367720106733,1972.6155705617275 986.9401602845173,1971.4555160975433 987.3776494933409,1971.408551502158 987.9869886577944,1971.439960945223 988.8308010667097,1971.5491461417987 989.8776294399868,1971.8147801958257 990.5807579022367,1972.0493038751301 990.9716437333846,1972.3304928814177 991.3307810133556,1972.7678313129582 991.5652542577591,1973.2524331004242 991.7839988622,1973.9709593581501 992.3621720178053,1976.4397288442706 992.5809166222461,1977.1274410484475 992.8363613866968,1977.7876321917865 993.7215342933778,1979.3616786345956 994.3620394666796,1980.346128995472 995.2276972089312,1981.1929766066605 995.9957791289198,1981.8441900878097 996.9872659911634,1982.205543023767 998.065260373347,1982.4867281320621 999.2058780444786,1982.5022830498056 999.7895853510709,1982.3969882156816 1000.2433857422438,1982.1956716296845 1000.3622243555728,1982.1430241924827 1000.9089402311365,1981.752356159268 1001.6746919822181,1981.0179834503797 1002.3364599467022,1980.224979751627 1002.5237472711015,1979.8657197776483 1002.909098951146,1978.8929350170656 1003.1590095644933,1978.5336743899388 1003.5551382756094,1978.1154840292293 1005.0706218667328,1977.0374013403198 1005.3464556089602,1976.7212153007858 1005.6333576533361,1976.2719138065004 1005.8151108267484,1975.7523151302594 1005.8777341155219,1975.1899396365043 1005.8206449778518,1974.5530787821626 1005.6799610311864,1973.8031437548925 1005.4550997333135,1972.8312483552145 1222.4517862399807,1976.9886422911077 1259.596425955533,1977.7002847796539 1289.18840576004,1978.2671453678631 1313.3225474844803,1978.7296075597988 1323.589854151127,1978.7538374596043 1350.796614826715,1978.8181513873278 1617.3792952889344,1979.4478293114807 1826.956141511153,1980.4325786904665 1959.9251902578399,1981.0571699556895 2302.471376497764,1982.6665070650051 2557.533993244462,1980.370657975669 2590.9713342578034,1980.746370058332 2874.3996794311097,1983.9312401419738 2909.9137834667345,1984.3302827174775 2981.6078372978372,1982.9309405568056 3000.702114986663,1980.6530403233483 3008.6456607289147,1980.6374853663146 3035.6488228978124,1988.9404949762393 3040.5177107912023,1988.7125575743848 3085.330062506662,1977.728104333335 3089.1489180444623,1984.7592382871662 3112.086226773332,1984.8779937247746 3169.8053839644417,1990.6993796299794 3190.157952853362,1992.7520046485006 3192.5239480889286,1992.990709429083 3204.914912426728,1993.2506522658514 3219.698668942263,1993.5605494744377 3235.039335822221,1993.8821125590475 3288.7203103288775,1973.327815571858 3358.40983637335,1973.9470284367562 3427.6982820978155,1975.6012515426846 3436.6499171555624,1975.815133642638 3488.1175224889303,1976.211189282476 3517.0089952711132,1976.4137040547794 3539.232107235526,1975.4759136117063 3554.9310375822824,1976.6422435534187 3554.770255928859,1900.6905126051279 3553.262345386669,1882.9230995151447 3552.8318466844503,1874.3224023464718 3551.4590859378222,1848.492776476487 3554.6045226667193,1823.296836583584 3553.928773688909,1796.8681844167877 3553.8160517688957,1792.6583016482764 3552.890974720067,1758.1025335917366 3552.6675697777537,1755.2132121287286 3550.1506961067207,1683.6443880062434 3549.5905817600433,1667.7163386995671 3549.772334933339,1590.2434329555253 3551.4337453511544,1571.7279723677784 3551.2508270933176,1514.8692074294086 3549.914475235564,1500.6918340125121 3551.1014050133526,1468.3720479949843 3550.2086590577965,1458.4687713994063 3551.0431507912,1450.2920225815033 3552.724076373386,1437.808943811222 3550.55032007111,1430.9138213467086 3559.5304996977793,1430.0184354903759 3565.533597297792,1431.7313726259163 3578.7972098844475,1432.9874840307748 3586.0379184355843,1434.7776485620416 3599.341143893369,1431.6224057567306 3604.4497479111305,1431.1730669275275 3611.3094738489017,1431.5840877328883 3618.139490133326,1431.129360404273 3627.980667164491,1430.2321786541725 3638.2572945067077,1431.0658961329027 3645.5446064356365,1430.609971038357 3658.8093841066584,1432.3007541861734 3673.3315791644854,1431.8226772701018 3684.0270543644438,1428.7850703414297 3697.718252942257,1429.1763347076485 3707.5632164978306,1429.5523314813036 3712.697743644472,1428.6973576426972 3726.819149653369,1429.0877239746042 3740.5065617067157,1428.1803614170058 3758.692947342235,1429.7502086856402 3769.6613435733598,1428.012419888284 3785.0902656000108,1424.7185427656514 3793.049539982283,1424.0997603932628 3803.020041386655,1421.2555100759491 3816.7016280178213,1418.238514923025 3829.6241621333756,1413.0310402886244 3835.102971733315,1410.227161137329 3843.8349883733317,1406.8457869552658 3865.1062263466883,1395.6600464580115 3875.2016830578214,1389.2432258905028 3882.020922311116,1384.6223253367352 3887.875471644511,1381.2492139164242 3894.027117511141,1378.3356376958545 3898.2354025244713,1373.0180014558136 3904.2242278400226,1369.5637024034513 3905.9106875733705,1366.5542753307964 3913.6011187200784,1365.6665937387152 3919.6088766577886,1369.0879790424951 3922.6308144355426,1372.517431495944 3926.4820010666735,1374.2394865037058 3933.316386417777,1375.0867408497143 3940.6080674133264,1375.9330960532534 3947.4517734399997,1380.218745742226 3951.3026687999954,1381.9135387840797 3958.1685114311404,1384.4935923420126 3962.8780740266666,1385.347121606581 3970.575495679979,1387.0320231346413 3982.147114382242,1389.1665853449958 3990.2779474488925,1392.1495730719762 3998.83724031999,1394.2925026549492 4006.9747726222267,1399.847384813882 4012.1165815466666,1401.5660815472947 4029.662462008884,1404.9582577857655 4041.6739000888774,1410.9633076993632 4053.6474729244947,1412.6649140430382 4061.3510112710646,1416.9491482982412 4069.5016507733962,1417.361374655331 4078.9155330844806,1417.3374254180235 4088.124069262296,1421.1851595683256 4091.543009564397,1422.4487733867136 4110.37601706665,1424.567065368814 4117.643231288879,1426.6874466731097 4125.791831893381,1426.2614549946156 4133.054094506719,1426.2434932879405 4145.458457315632,1428.351595876622 4151.883606755524,1427.0365022112965 4156.593751893321,1428.3243540335097 4165.148675697797,1429.1700481357402 4174.132350577798,1429.1484941744711 4184.403735040047,1427.824720486533 4197.6626872889465,1427.3601118692313 4206.6402454755735,1424.767338837264 4215.617803662259,1422.1748558667023 4231.87946979556,1417.3727505427087 4242.550769493391,1414.3434651425923 4252.812833280012,1408.7165465264698 4263.268883626733,1405.498621517385 4271.866333013342,1401.1481581054977 4277.986521599989,1395.5579597618198 4288.35431679996,1388.7672161210212 4297.617029404442,1380.9773764351849 4304.973081315518,1374.4370794789866 4312.597102648928,1367.4901570004877 4319.525277297827,1362.0607689894969 4322.800620942202,1359.1297507070703 4327.683781119995,1353.298815192713 4332.833163093368,1346.0864252569154 4340.057851733349,1340.7919043190777 4346.311733759998,1334.253937672649 4349.776986168872,1332.0805903011933 4351.362083555548,1331.0485548911965 4356.5484569600085,1328.5195079993573 4359.175431111129,1324.0742681726115 4365.166877866664,1320.6230281837634 4370.702194062294,1317.5792645166512 4376.048184035637,1314.0483508203179 4383.809685333399,1307.9134481841465 4396.352693191147,1298.167857835535 4404.47682702227,1298.150791184802 4409.183768177812,1297.7079563702573 4414.318586595589,1295.964460063551 4424.168210488977,1297.676817197993 4430.167230293388,1297.6645411777426 4435.279329564481,1298.0873152173008 4439.980445297784,1294.6122968764394 4443.422104746685,1293.7388987122104 4449.853370880068,1294.5922359774122 4455.394221226685,1294.1479018924874 4464.603922488925,1298.7861493817763 4470.370507946645,1303.7019225637196 4478.607654968859,1306.2577041646 4486.0371072000125,1308.679640196031 4494.273962951091,1311.235404142586 4499.903068444459,1314.7980688695097 4507.3348508444615,1318.3301765191718 4515.70685639116,1321.4272311532986 4521.788597191102,1322.4443100946373 4530.348763875547,1325.460208687 4538.9103869155515,1329.315318904817 4547.473757582193,1334.036573290301 4555.202053973393,1338.3266634274041 4568.473530880001,1343.472702010593 4577.4644875378,1346.894192564243 4585.597650773416,1352.0500499759219 4599.26962545776,1355.7340658134199 4606.637910755642,1354.5838046194403 4618.85149098665,1355.0490588474786 4639.9520440889755,1361.4278616573429 4656.2361380978255,1367.003354978282 4693.4827227022615,1377.714121147932 4747.41477290669,1393.9763625631458 4755.5426932622795,1396.9683116392116 4762.836413155543,1399.5554963541217 4789.8075355021865,1411.9925345346564 4815.458617173368,1405.5108957026969 4846.286169031169,1406.7374150729738 4861.239154062234,1405.0103482683771 4891.31347882672,1400.9074628330418 4907.9529235911905,1398.6373192710453 4909.163155057817,1398.473262727668 4910.883402239997,1397.6044809223968 4964.560007680033,1387.1918909858214 5018.887604053365,1379.814282091218 5022.334215111099,1382.8149718653294 5023.594836480042,1379.8085938516888 5047.6777144888765,1367.0997573728673 5061.231433102221,1359.9473832558142 5104.643062044517,1330.3892730118241 5171.543084657809,1272.813255514251 5221.997940337809,1226.2474967765156 5229.285543537757,1222.3687773233396 5233.5552867555525,1213.3209458045894 5242.958683306701,1198.2299934852635 5250.6386286932975,1181.0011556505342 5253.613963093318,1168.4882558941608 5261.319249066699,1148.6862004013383 5273.252043946704,1100.8512147382717 5287.76928739564,1052.1444372535334 5292.032040106715,1032.748919319769 5300.123260302236,988.7834996093297 5309.935601493344,941.807164018508 5312.504903964407,923.7102912424598 5321.038856248953,891.81991454534 5326.177752462274,888.7818197805318 5336.859246648906,882.3260126823443 5350.125189404527,876.2745954008424 5353.190526577819,873.9596503228531 5358.707492693327,869.7935091868858 5376.245508835593,852.1175472745672 5391.203445475607,838.7507068920531 5399.354376248899,830.563299685833 5399.9054611911415,830.2202456592931 5410.467825493368,823.6470589090022 5452.84282055113,783.9558736753534 5474.26202424895,765.8439056430361 5484.0697051022435,732.213575303671 5549.160351573315,708.9035750203184 5614.687613440037,689.0665934380959 5633.100899271143,679.1420511362958 5639.137784319988,694.1244066283689 5646.090425742208,710.7321082631242 5656.252583537833,745.1940753270173 5662.126939306734,760.825855770323 5665.7908386133495,768.1672923915903 5673.711082666705,784.3666663516196 5678.640263680019,792.411982623511 5682.785634133383,798.0826909164316 5697.788717795571,818.6048481471953 5723.100759893365,845.4732567711035 5747.226746026659,874.5630287338863 5775.765198222303,902.3517364239087 5795.901935217844,919.1705733574927 5828.44740408886,949.3156888415688 5849.415720106743,966.1349174542702 5869.979751822248,983.360833750572 5886.6666737778,993.7073871679604 5897.0557317688945,1003.7560504353023 5898.0783846400445,1005.1644755182206 5903.541756871156,1007.5209304245654 5907.659456568945,1010.4189369694213 5912.0462907733745,1011.935780365835 5919.312922453391,1015.5113125903299 5923.16148764448,1017.163533726125 5929.728194844443,1019.9264127576607 5937.290466702194,1025.1813648583484 5943.049770382291,1029.1629897724488 5948.539648284495,1033.4429198142607 5953.464460231189,1036.2057360011386 5961.699277084437,1040.214855661674 5968.830467697815,1044.332379395084 5978.706888533372,1047.935605076782 5986.376348160033,1052.6218679778394 5995.014575502253,1056.4688577579218 6002.952878364478,1060.4784629992791 6010.24514190224,1065.1649433438433 6018.0491687822505,1067.7934562544688 6027.790148551168,1072.7512438392732 6036.696927857818,1076.4903028965346 6040.54520177783,1077.8722283084644 6046.438198897813,1079.796556502697 6053.703082951135,1084.077082493226 6060.134057813382,1087.7888277221355 6064.788861440029,1090.823082055489 6069.201910044474,1092.20527933212 6075.4986089244485,1093.1816510999925 6085.91155114671,1098.1404610511963 6091.400555235567,1100.768853021611 6098.262028800033,1103.8039509053924 6101.948064711178,1105.727909991867 6106.494806755567,1109.0600847029127 6110.449685902218,1111.6611828195164 6115.535570773354,1112.6375280942302 6124.576043520006,1115.9445134715643 6129.5270698667155,1117.462630886177 6138.298408106668,1120.6339255706407 6139.939429546706,1121.7447289398406 6146.370113137818,1123.967528467998 6149.114178275573,1126.0268014323083 6157.347247502243,1128.6565886351163 6165.715175253397,1131.2866656832048 6170.504546133336,1132.3716969376546 6176.962026666675,1134.0260444972082 6182.154808035528,1135.4090569629334 6188.208586808934,1137.496747864643 6195.608038115548,1138.1768707873998 6198.890663537779,1139.017814487568 6202.308147484437,1139.0193118935567 6208.63135203562,1139.2927381758345 6214.093559182249,1140.134579010657 6218.775159751123,1141.0845312676975 6227.951073564473,1141.0887239924632 6233.144437475537,1141.091119835095 6238.768300088879,1141.3917980275 6247.271086364461,1142.073115178675 6256.473214577767,1143.0524138630135 6256.8769163378165,1143.0527133425348 6263.442749724432,1142.7852780853282 6273.882780159998,1143.7385211054352 6277.83824184892,1143.7406174600474 6283.596089173341,1144.7187159539317 6291.695173688873,1145.4000299469917 6293.901843626692,1145.2658635501866 6300.871670044435,1144.321906407189 6304.585376711155,1143.7552919420996 6311.447432817833,1142.8116322920541 6313.896440320008,1142.1090527687338 6317.206445226737,1141.840119759785 6318.57891470223,1141.5699887294904 6321.861831395538,1141.5720850904472 6324.875322311127,1141.9799769161618 6327.054321493371,1142.9562809320632 6330.067521137826,1144.0682476612856 6331.600772266742,1145.0169967970578 6332.972367928887,1145.9926977252471 6336.522088960046,1149.4342939698254 6337.939705457771,1151.0865058661439 6339.264989013376,1152.6312022564816 6341.261652480054,1154.1761947979103 6342.277023573348,1154.96201643924 6345.153325795603,1159.648478329298 6347.896225848934,1162.6833271650248 6352.010430293332,1166.6935364999226 6356.823976675572,1171.2460597515455 6364.084782933351,1177.587261486915 6368.333554631099,1181.733044533059 6371.211313208914,1183.7927507331478 6375.621449102298,1187.8034411371336 6379.036311608972,1190.9738261978491 6385.625155413407,1196.096063238394 6389.174876444449,1198.8606486152858 6392.482842453406,1201.1916122511611 6396.301989262283,1203.1437585340464 6404.397869795561,1207.5630938853137 6408.64722403558,1209.7595754975337 6413.999621973315,1212.3899544627056 6419.217161386681,1215.5617283213069 6423.735358862206,1218.326837733097 6426.883125760069,1218.735584323702 6428.818622293358,1221.0925354056526 6432.664857315598,1222.611927802558 6437.452189297765,1225.1066110367537 6441.180168248946,1226.047467596538 6442.939737031178,1226.4915442785132 6449.772666026722,1227.8507226550137 6454.722236017755,1229.1000026513939 6461.582253226719,1230.2157288291492 6462.523932728916,1230.2163277155487 6465.966757262242,1231.735401394486 6469.517934648902,1232.0090918365167 6472.692789760069,1231.876139380969 6478.718897777784,1232.8559145576437 6481.597238897753,1233.2643534485833 6486.116892728955,1233.836586724734 6490.36741205334,1234.3818698154064 6492.7083579733735,1234.1129713412956 6496.959751111164,1233.8458694167202 6502.017965226667,1233.5793662765063 6509.012549688923,1234.6684352278826 6512.29401002673,1235.645811073773 6515.038075164426,1235.9189011462731 6520.12337749335,1235.6526982149808 6524.0907812977675,1235.309838276531 6524.778181119997,1235.2505489430623 6532.311908408883,1234.9864418528741 6536.293875768897,1234.9900351472897 6540.275843128853,1234.858281007735 6546.03310791112,1235.4050605290686 6546.801772373379,1235.1909601635998 6547.00187562668,1235.1352641140693 6548.508912355581,1234.5950720976107 6552.195239537745,1234.300421735912 6554.401618204487,1234.3025178262615 6560.025189546752,1233.6308702618699 6562.608764302218,1233.0915754416492 6566.187612444453,1232.3911802881048 6570.574155377806,1231.420387759048 6574.960989582294,1230.070798312372 6576.198891804437,1229.6387015775545 6581.257979733404,1228.8314016464283 6583.06065663998,1228.6975502720452 6585.9407453867025,1227.3195084994659 6589.357938062225,1227.0521046075155 6591.13381802669,1226.918252901989 6593.205046897754,1227.4620440160506 6593.608166115533,1227.8683898608433 6594.440618951106,1229.6563687394955 6594.976266524522,1232.1480331150815 6596.911180515541,1234.5055391244823 6598.1455874844105,1237.9455137081095 6599.782822399982,1241.9544048373937 6601.018394453393,1244.1486853534007 6601.9825018311385,1248.5629777675495 6602.785827555577,1252.435567311477 6604.720159004442,1255.4700244446285 6605.123569493415,1255.4706233099569 6605.552611840016,1256.9872482132632 6607.862391751143,1261.1319746391964 6610.898601813358,1265.1152851676452 6613.905102222227,1271.7514920445392 6614.737263786665,1273.6747020519106 6616.240222720022,1277.4127153393347 6619.785283413366,1283.4811068365234 6620.616571164457,1286.1082221251563 6621.450480355532,1286.2444581820164 6622.254388622241,1289.548249526939 6627.600669866719,1296.7282694577589 6629.399560248887,1300.4395152586512 6629.764231679961,1301.585671050183 6630.364832711115,1303.4725724594318 6632.970835342247,1307.0762949021882 6635.012354560022,1309.8398551541031 6636.51676984888,1312.034228221688 6642.8329838934005,1317.699326655711 6646.1115315200295,1321.0056684278534 6648.584131982236,1323.363482351473 6652.427163022221,1326.9683029534062 6655.438906311116,1328.054536059266 6657.639168284484,1333.4443598058424 6660.380029439984,1336.479373922688 6663.792853048944,1339.7859289710177 6664.895314204507,1340.4910100540146 6667.500734293368,1344.20262934122 6669.569924266718,1346.1540885279537 6672.310202880006,1349.5953263377887 6673.680050915515,1351.3836018668953 6675.453309439996,1353.6053925611195 6678.329320391174,1355.530779286055 6681.206205155584,1356.9145636172034 6685.049818737782,1359.950676537701 6686.957644515554,1361.956282434112 6689.429662435548,1364.5037741091219 6694.779438933358,1367.5416514141834 6700.963124622242,1370.445092118869 6705.211022506701,1372.3991747860564 6708.221309439978,1374.595453203423 6711.796371057746,1377.0899096255307 6716.9853659023065,1379.288568820397 6721.36695722671,1381.9195263871225 6725.640778240049,1384.8211129858391 6732.0656364088645,1388.2936010578414 6738.113881031168,1391.7388292069081 6743.5982247822685,1394.506256388675 6750.291634915571,1398.2499302200158 6757.849246435566,1398.935794310004 6762.227342506754,1404.4633980137878 6772.365616071096,1406.5329454275197 6779.650015288906,1410.5483833772014 6784.703860337788,1413.1804245334351 6789.090985813411,1416.7216303824098 6791.01861802669,1418.2774323846097 6798.707884088857,1421.2106054974138 6806.368605582218,1425.3346303487197 6813.357655893313,1428.6731094203424 6819.940383004432,1434.3390885977424 6825.854060373327,1437.3784683296108 6833.2473949866835,1439.8783957299893 6837.988123591116,1441.852048029832 6841.204921742261,1443.1910631234641 6849.13506901334,1446.504014692502 6856.153537706705,1447.7586036662105 6863.682895928912,1449.1490964183467 6872.045580800041,1450.81169715937 6873.902142862207,1450.9787353372667 6881.5118919111555,1451.6636513333651 6887.5091640889295,1452.6778526746202 6890.547121777781,1453.191837876162 6898.641837226634,1454.1775988044683 6905.096987591183,1454.186579310859 6914.264745813329,1456.9606523942784 6920.988739413326,1457.105537326017 6928.383239111106,1458.4966108035878 6935.67171612446,1458.7776989219128 6943.473412835563,1457.5710248753312 6947.0674070755485,1457.4051856155857 6955.416402204486,1457.0199235062464 6964.1851190044545,1456.6271774616325 6971.875550151104,1458.0188505564583 6978.709644231072,1456.3781188838184 6986.805816035601,1456.1197803885443 6996.544756906689,1454.4832353089587 7004.778117404436,1452.4389706685324 7013.2774084266275,1452.4521421095706 7020.405686328944,1452.0569987756317 7027.6708616534015,1450.1195959109464 7035.772567608918,1446.4240873326198 7043.33542200888,1443.269194712222 7050.738951111154,1439.0042752891895 7057.036523804476,1436.6594120507361 7064.306650737824,1431.7176020884071 7071.305021724489,1428.6970582819195 7080.350154808897,1424.0291107998928 7088.589049457805,1418.9267549540964 7095.72053134226,1416.7458790058154 7103.286007182265,1412.3463870520936 7108.914238862286,1408.4848348501255 7116.586319928931,1404.9247282777214 7124.551128462248,1403.1515539528336 7127.82355939562,1408.544109937211 7133.02653525339,1417.5131529279752 7137.561917724437,1423.5845570559613 7142.766058666632,1431.6059409810696 7147.004635875579,1438.2178653457086 7151.27059256885,1444.2887962050154 7157.847494257789,1451.7711184259388 7164.264196835575,1458.3870492710848 7168.396751359978,1463.780689934385 7172.906793244474,1468.6067339196452 7180.021381404484,1475.792157451564 7184.690166044456,1482.0262118947576 7188.526789119991,1487.3921373885241 7191.96058424894,1492.378766503709 7195.101651911158,1495.4158070584526 7202.084585528879,1500.949857265281 7208.261863253312,1505.6436493663932 7213.337844906724,1509.5232411833713 7223.7633117866935,1514.7931788467104 7229.780681671109,1518.5122842163546 7237.19236636447,1524.4535341349547 7241.9980484267,1529.0364258055924 7249.114675484481,1534.4085879527265 7256.796368497831,1539.673854874156 7260.907077688957,1541.7385258736322 7264.750400000019,1542.9905553066637 7269.801914879994,1545.3548287514714 7273.106676906638,1547.012120275409 7278.4538319644635,1549.3769792246749 7285.034811448946,1553.395216361445 7292.854275697784,1556.7121533204918 7293.169722311199,1556.899220690073 7301.745617635606,1561.979951991816 7308.893993244448,1564.4836394775775 7315.748476302251,1566.0127851795405 7321.903908693348,1567.5404311403981 7329.189181724505,1568.6646136911004 7338.920840817853,1570.334721930849 7349.05794929777,1570.9234491336974 7355.643589120009,1572.316997741058 7366.077502862259,1572.338248139422 7374.300960142224,1575.1154603326577 7381.691964586731,1577.052229564928 7391.993058702268,1576.2617793252575 7400.625751893385,1576.1444538092474 7408.180741973338,1576.8367339394172 7413.798196622229,1578.2287746915244 7422.160881493357,1578.5442357162246 7429.7182017422165,1578.1273123403662 7437.94806698669,1577.603538915515 7445.4777164800325,1577.6197010725737 7452.899013119983,1577.9333665677113 7459.056193137832,1578.3526844462613 7465.378815146687,1576.8508010169608 7469.893517368939,1578.3763290588977 7472.652437333309,1583.3617335248855 7475.243293866632,1591.4863998467918 7475.713696711173,1591.935040636221 7480.019848817843,1596.0431287891697 7484.688633457816,1600.7623434224515 7487.42337792,1604.475919970544 7491.820697884483,1610.2769985084306 7494.415923484485,1616.3716275918414 7494.415632213408,1616.3985630811658 7499.216362666746,1622.173209646775 7504.553031964519,1628.652909979748 7508.925011342275,1633.641859762778 7512.621241742279,1640.252838814864 7517.019726791128,1645.377278835862 7521.253352391126,1652.016581622709 7526.724880213325,1658.225778671389 7531.385509262211,1666.246062654769 7536.7271301689325,1670.2630544691929 7543.166551893344,1676.3389256419032 7550.712803840055,1680.3609490658273 7557.42339896888,1685.327997594315 7563.596307626693,1690.3210471943603 7569.60639573331,1695.8551076158183 7576.746324480046,1700.9857392334961 7581.65890304005,1704.433670934639 7590.0338212978095,1710.2435275710886 7596.878692408907,1715.1029440207058 7601.683209386712,1718.5505096001434 7605.9261556622805,1720.7792543550022 7608.12787399115,1722.0291797844693 7610.035408497846,1722.5749928492005 7612.370528995583,1724.2309823956457 7617.982740764448,1727.2748333709314 7622.651816675556,1731.0197819909663 7629.495522702229,1736.149866520369 7634.972875946667,1739.1933684415417 7641.015003875538,1742.238353801542 7645.119013831136,1746.1172804536182 7651.836308195605,1747.7842879453674 7658.282429155603,1750.4243819355615 7666.793953564484,1754.85533762892 7671.705658311141,1758.3305429377942 7678.585190684476,1759.4568242774694 7685.566376675561,1763.0454131214647 7690.643523413339,1764.735421991907 7695.719213795557,1766.9394892868004 7702.838462293381,1768.9053704572725 7710.385588053323,1771.9544207175495 7715.032527360076,1773.4810355949448 7722.716841813293,1775.2862191517488 7732.442966755538,1777.6643987872521 7741.096922737837,1778.6604910977767 7747.6746982400655,1782.1403703438118 7749.173870648898,1784.6061973371543 7754.51927807997,1786.2973530752352 7763.03371519997,1789.3493227187428 7771.66029169783,1790.480941942369 7775.908189582231,1790.3567691096105 7781.688464782259,1790.101242298144 7789.779684977781,1790.3926745092613 7820.014208853361,1793.2429591731052 7845.214111573412,1792.255563899409 7868.426671502239,1794.5181931514526 7897.12677916442,1795.0555740474374 7918.389279004477,1793.593035358237 7937.2642295467085,1789.8056210040813 7956.264135395526,1785.355428884097 7977.151769315591,1775.1805952411378 7989.3266104889335,1766.6555282350164 8004.226584177755,1759.0055938116275 8015.401782897825,1751.5554631384439 8018.038368995534,1749.648183924728 8023.401835235592,1745.7680791548337 8031.664322844474,1738.243004838063 8045.651744142233,1743.530433954671 8059.289057564456,1749.6179618574097 8074.301753173349,1755.8179478196544 8085.797932657821,1762.6983144971891 8100.361488213355,1767.6863452236285 8118.163978524506,1771.8395205268753 8131.917800391093,1776.8274886955624 8148.097910613404,1780.9836040728842 8165.090667235607,1784.3078808879363 8183.699978524412,1785.1396957580582 8206.001442417793,1791.5972996408818 8225.537287111161,1790.6927837383118 8236.817634702194,1790.3756194445887 8244.26077667554,1790.1661712505156 8263.912255999981,1781.6816735397442 8276.160788764479,1776.8224020027556 8294.543199857813,1769.3470197441638 8309.106755413348,1762.6983144971891 8325.28977834672,1757.710249628697 8339.853333902254,1751.0614382047206 8353.6071557689,1744.4125661006547 8368.170711324434,1737.7636333055561 8380.307978524477,1728.6190073169419 8394.061800391122,1721.9699303152738 8407.815622257825,1715.3207925850875 8419.95288945781,1706.1758846801822 8432.087243946677,1697.8627764053526 8441.798222791112,1687.056790657749 8449.886821546708,1674.586764879874 8457.978333013307,1662.1195178913767 8463.643556124473,1647.1561450853478 8468.0866056534,1639.548648209602 8470.92533390224,1634.685434787185 8476.743765617779,1620.0028218278894 8495.19695559115,1617.228474946809 8513.806266880012,1618.0604808416101 8523.166846577777,1620.3490906999796 8530.796110791096,1622.214510400081 8535.187022791128,1622.410838586511 8549.405422080017,1623.0465105821495 8568.01473336888,1620.5534999912488 8588.240599324461,1619.7214969528723 8596.872709973366,1618.5650710025802 8606.849910613382,1617.228474946809 8608.398599111126,1616.521269186691 8621.413466168917,1610.5783791788854 8637.59648910223,1605.5892709398177 8653.776599324483,1600.6001284109661 8668.340154880018,1593.949880307715 8680.477422080003,1585.6354879973806 8690.18548821332,1574.8278327502194 8704.74904376897,1572.3346565228421 8720.932066702226,1575.659887255053 8737.921910613368,1578.9851027439 8745.62719658669,1579.6740878813434 8756.531221902289,1580.6492012623348 8776.760000568931,1579.8171524803038 8795.369311857794,1577.3210004081484 8803.561894400045,1575.8568266348448 8813.975710435596,1573.9957772909547 8830.15873336891,1569.8384787013638 8838.105774364434,1567.389881534502 8838.874147555558,1567.1531324885436 8846.341756302281,1564.8520833737566 8860.905311857816,1558.2015075526433 8874.65913372446,1551.5478776295786 8889.222689280054,1544.8971797652193 8903.786244835588,1538.246420876123 8915.920599324512,1529.0992828472517 8928.867600213387,1522.448378959496 8941.004867413372,1514.1331666028127 8957.994711324456,1509.1463879864314 8974.327447608928,1512.3431983969058 8974.98455523554,1512.4719086328987 8979.429061120085,1512.8882711233455 8979.705477404466,1512.9149111307343 8993.59386652452,1514.1331666028127 9009.776889457775,1517.4586643520743 9028.386200746696,1519.122904118034 9046.99259932444,1520.7871400603908 9063.98535594676,1524.112607262039 9081.784933546674,1524.9417267701356 9102.820533191145,1524.9417267701356 9123.049311857787,1524.112607262039 9129.15755832888,1523.871054938063 9144.0849115022,1523.2804935887107 9162.69422279112,1519.9550225671846 9178.874333013315,1515.797414009634 9195.057355946687,1510.8076535845175 9209.620911502221,1504.1565817352966 9221.755265991145,1495.8411593458732 9233.89253319113,1486.696479092585 9246.029800391174,1478.3808561270707 9255.73786652449,1467.5716007862939 9267.875133724476,1458.423569783743 9271.494759822206,1454.7035569401924 9277.583199857792,1448.4462168855825 9289.720467057778,1439.2979439524352 9301.854821546702,1430.9847696268698 9311.565800391138,1420.1718121354934 9314.868814791145,1416.7770130395656 9322.083600213344,1409.36168652575 9331.79166634666,1398.5513991516782 9341.502645191096,1387.7409499654896 9349.591243946692,1375.265771852748 9367.390821546724,1351.9823872579145 9374.67259932449,1339.506590924575 9382.764110791148,1326.2012321722577 9388.429333902197,1312.0602768180543 9395.711111679964,1278.7921583080315 9397.327666346682,1259.661770265433 9395.711111679964,1239.7014275408 9395.711111679964,1218.905071852787 9395.407898453355,1215.0131370156887 9394.091644302243,1198.1111092416104 9392.641405439994,1181.6923175116535 9392.475089635584,1179.8110859657172 9386.809866524476,1163.1726631457568 9381.14755612443,1149.0314974896028 9373.865778346662,1134.8900532469852 9367.390821546724,1120.745335422689 9356.87302172446,1110.7633033844759 9345.545488213305,1100.781132405391 9343.00793429336,1096.8660947938915 9339.073444124428,1090.7958274345146 9334.220867413329,1078.3184932059376 9327.74591061339,1064.1756543663214 9318.847578168905,1052.527520024334 9312.375534080027,1038.3811766724684 9304.28402261337,1025.9029293106287 9292.956489102275,1015.9165803830838 9284.05524394667,1004.270656093373 9274.147657102265,997.4765136169735 9271.920889457804,995.9494551637326 9263.227320604492,990.9210425023339 9258.973888568871,988.4608906328795 9246.029800391174,980.1395057290792 9231.466244835523,975.1460291941767 9218.296130275528,969.306283378799 9207.21122560004,963.8828706525383 9200.076248462254,959.3038666684297 9199.999352888903,959.2544398658792 9198.264250880049,958.1937099026982 9196.930811733298,957.1997796348878 9185.351328711084,946.0145238761907 9176.452996266715,933.5316686960869 9171.597506844497,916.8905180671136 9166.74493013334,901.0788187508006 9162.699174400012,884.4369113488938 9155.417396622186,870.2872398264008 9148.942439822247,856.1402834842447 9140.04410737782,843.6558556124219 9133.282539804408,836.8323207657668 9130.103024355543,834.217638743401 9129.526307555614,833.6699534740183 9119.00850773335,823.6839113489259 9108.490707911144,813.6947330242256 9100.28239672893,806.5533134225407 9097.96999537776,804.5413586957729 9085.025907200063,796.2178280798253 9073.384674702247,789.4813299234374 9072.081819022249,788.7271665511071 9059.134818133374,780.4034509656485 9044.57126257784,775.4115719388938 9030.199363413325,771.7146824086085 9028.391152355529,771.2496484211879 9022.851467093395,771.0015502674505 9009.781841066724,770.4166615239228 9006.179691235593,770.5592881265911 8988.743328711134,771.2496484211879 8970.13693013339,769.5836736510391 8951.52761884447,767.9206913466915 8940.200085333374,757.9307302174275 8928.06281813333,750.4396654840675 8915.925550933345,742.9485218155896 8900.55517440004,737.123353934323 8885.991618844448,731.295141784416 8864.953106488916,732.1281745207962 8844.727240533335,732.9612062805681 8828.544217599963,737.9563798388117 8816.409863111097,746.2775958077982 8801.846307555563,752.9386934523936 8789.709040355578,761.2597340551438 8777.571773155592,770.4166615239228 8765.437418666726,779.573471106356 8753.300151466741,787.8942001176183 8743.592085333308,798.7136989896535 8731.454818133323,807.037200419989 8719.317550933338,812.0318538006977 8705.563729066693,806.2042554152431 8690.190439822269,800.3796055546845 8675.626884266734,794.5549080293276 8658.637040355592,791.2230637315079 8640.837462755619,789.5601320095593 8619.801863111148,790.393096492975 8602.809106488945,791.2230637315079 8589.828609422257,795.9256937576574 8574.016374613333,800.1318171811872 8562.978655857849,804.4382889334229 8548.060040817829,812.1630865724292 8531.241173048853,819.4944058987312 8515.422530275537,828.4842998685781 8508.200754346675,832.2318282238557 8497.653827413393,836.2163268735749 8483.366105600027,843.0662328756298 8476.289673955529,847.0413832245395 8468.81944376888,852.7335274201469 8466.879578168911,854.4861917506205 8457.168599324476,865.3046790764201 8449.08000056888,873.6244065857609 8447.460533191159,873.6244065857609 8439.369021724502,876.1230022297823 8420.759710435523,878.6185932166991 8401.091337386635,887.9007369238534 8383.01621731557,887.431884161022 8363.978737493337,886.6256963575725 8347.685031537781,888.300684564223 8331.447540906724,891.8819285725476 8319.728830293403,895.9442849875195 8311.741302613402,900.1255520164268 8302.803648568923,908.6755481749424 8299.42257351114,913.4945373103255 8294.058233457792,916.3932247881894 8287.851828622224,917.4435317522148 8287.092193564516,917.5720489557716 8282.80380899558,918.2976165098371 8282.741476977826,918.3075024375576 8282.419622400077,918.3584299418144 8282.26262727112,918.3832945455215 8265.497353386716,921.035114538623 8247.663114524446,925.3663194573601 8238.715265991108,928.5495495899231 8224.151710435573,936.0387420016923 8211.569380977831,942.6007078347611 8198.263534080063,951.0168912187801 8185.678874453413,959.7819584733224 8173.988999679976,968.490003232786 8164.280933546659,979.3067628156277 8153.763133724511,990.1233587312163 8144.052154880017,1000.9397910273983 8135.9635561244795,1013.4214690426015 8128.681778346712,1025.9029293106287 8118.163978524506,1036.7188207040308 8112.256126577791,1041.0583104768884 8106.836445013352,1045.0395475612022 8085.797932657821,1045.869218767446 8065.57206670224,1046.7018842101097 8046.9627554133185,1050.0295411141706 8029.972911502235,1054.1898392906878 8012.173333902203,1057.5174614007701 7993.564022613398,1060.015414193971 7979.000467057864,1066.6705888266442 7965.246645191102,1073.325701633934 7950.683089635568,1079.9807526269578 7934.500066702196,1084.97349783167 7918.3170437689405,1089.9662082560244 7901.327199857798,1094.1262745447457 7885.147089635546,1099.1159262421425 7868.96406670229,1104.1085381719167 7854.400511146756,1110.7633033844759 7841.456422968942,1117.4180068454589 7824.463666346623,1118.2505891614128 7809.900110791088,1112.4284825000213 7795.3365552355535,1106.6033336270484 7779.963265991129,1100.781132405391 7766.209444124484,1095.7884973050677 7750.836154880002,1089.9662082560244 7737.892066702247,1082.4786271012272 7724.138244835602,1076.6532348565524 7711.191243946669,1069.1655145980185 7706.308083768934,1066.0266389875906 7705.089405440027,1065.2434154961375 7698.247155768913,1060.8450680506066 7685.30015487998,1053.3571825549006 7672.356066702283,1045.0395475612022 7660.21879950224,1037.551496788743 7648.084445013315,1030.0633676910657 7636.756911502278,1020.0770768213551 7624.619644302293,1011.7590550961322 7611.675556124479,1004.270656093373 7598.728555235604,996.7821786946733 7588.21075541334,986.7954232207849 7572.837466168858,980.9722476725583 7562.31966634671,970.9852713534492 7551.801866524504,961.0011510390905 7541.284066702239,951.0168912187801 7532.382821546751,939.3669139012345 7524.294222791155,926.8839425198385 7517.012445013388,912.7381085564266 7508.622963199974,901.7573689344572 7508.1111998577835,901.0875065938453 7500.950882133329,897.6219475543476 7480.603556124435,887.7740118944203 7464.420533191122,883.6127448724001 7448.240422968869,880.2843129529501 7433.32297301339,875.7598975072615 7430.437932657835,860.3103991832468 7429.4365425777505,854.6440811291104 7427.201910613396,842.0017349002301 7424.775622257846,823.6926001354004 7422.349333902239,805.3829946560436 7419.1133118578,786.2399498597952 7416.684110791131,767.9293808138464 7413.448088746634,749.6183403453324 7408.592599324475,732.9698961750837 7406.166310968867,714.6579550299793 7401.310821546649,698.8417633714271 7394.83877745783,683.8583087546285 7387.556999680062,669.707643800939 7381.084955591126,655.5566966285114 7373.803177813359,641.4024702280294 7365.711666346644,629.7504199042451 7359.099520853371,618.0721041393117 7347.912088746729,605.6065701696207 7337.3942889244645,595.617321220052 7326.849400888954,584.7221957613365 7313.099365546717,571.1722884863266 7294.024311751127,557.0220708515262 7280.3995229866705,546.8972577708773 7263.899305813306,536.92216700461 7248.299407644488,529.472229052335 7227.811980231141,522.7595744090504 7207.424458808906,517.6720621070126 7185.0743526400765,513.2970060458756 7162.674439111142,509.52830936730606 7137.74949632003,506.8971338950796 7114.874519608915,506.09710833325516 7092.249453511147,505.89717673818814 7069.499432106735,505.94723457912914 7047.349429191148,506.64714473846834 7027.674356906675,508.09702066652244 6996.024255431199,512.8222107201582 6974.424463644449,516.5720060264575 6944.099354453385,524.622158870392 6937.125158968905,526.808456289582 6907.574248391145,536.0721197123639 6874.349244017794,543.5222878780332 6842.349325937859,554.3470122065628 6805.54925994674,569.6970656024641 6779.123688391177,583.9615208057803 6766.989333902253,593.1177391410456 6756.471534080047,603.9402065967442 6746.760555235611,614.7655057351803 6737.052489102294,625.5876425296301 6727.344422968861,636.409614088363 6715.207155768876,644.7350173061131 6712.780867413327,643.0687457248569 6668.093471004453,616.1875876974664 6660.188955591118,611.4328177526477 6607.597043768852,580.631685042521 6554.198310968932,549.8262150402297 6501.609311857785,520.6859672042192 6500.799578168895,504.03214495134307 6499.989844480064,484.04763970605563 6497.563556124514,465.72926223342074 6496.753822435567,444.9133011121303 6491.898333013349,428.25769190397114 6486.236022613361,411.6046873203595 6483.806821546692,393.28442905045813 6479.763978524483,377.46105069859186 6474.098755413375,360.80384786758805 6468.923159039987,345.21179741236847 6464.416903680074,331.65549323370215 6457.948063573393,316.97427446447546 6450.636867413414,300.00890901120147 6444.971644302248,285.8475541523658 6437.689866524481,271.6889125102898 6431.829200497828,260.70542416063836 6424.079350044485,245.8742940138909 6414.566726826713,232.09297552221688 6404.516999680025,220.88096766342642 6393.999199857819,210.8832680300111 6383.4814000355545,200.88842474250123 6372.963600213407,190.89343907433795 6361.636066702253,181.72899462649366 6350.308533191157,171.73373592406278 6338.980999680003,163.40274535882054 6327.892599751125,154.74746703525307 6317.811124053318,148.87245716154575 6307.429930382292,141.64753700827714 6296.767368817818,134.59108942118473 6288.33623523562,129.1975630884408 6276.681021724478,122.58305892156204 6261.567546311184,115.10384038923075 6249.17337799113,109.25189150712686 6236.226377102197,101.75393553526374 6221.662821546663,95.92346946307225 6207.099265991128,90.09295481897425 6192.5357104355935,84.2593923220993 6177.972154880059,79.25958565610927 6160.955514026689,75.03626581624849 6144.802200746664,71.76130832184572 6130.143108266639,69.36754134012153 6119.514916693326,68.2769814573112 6107.665134080045,66.82379877293715 6088.874360888905,65.33312113798456 6076.627575751103,64.51129750168184 6071.577517226629,64.71435401553754 6066.243178097822,65.45489492313936 6060.302412515623,66.76141232799273 6053.846388337843,68.79556748823961 6040.352380302269,73.85183612303808 6013.327372800035,86.06435274198884 5985.81652508449,98.46740615705494 5982.939931591158,99.76426445506513 5968.646384355554,100.55185576394433 5955.071111680067,100.15176188910846 5937.1025968355825,99.6580925200251 5919.873910613358,95.92346946307225 5913.3817688177805,92.58082696277415 5900.457778346667,85.92698635993293 5847.865866524458,65.93059231404914 5822.548581546696,55.10074814764084 5795.276867413311,43.43509038136108 5743.494689280051,22.606609548209235 5700.200151324505,6.396618656755891 5695.0032921600505,5.196774618991185 5690.868698737817,5 5686.106416071125,5.174877446144819 5680.5812943644705,6.040565153642092 5672.29346616898,8.439648349012714 5621.321021724492,27.6038218367612 5586.1252770134015,38.93170387746068 5571.215691377758,44.51789045584155 5561.30460928008,48.326873844722286 5536.478116124461,57.867987693694886 5527.690757973411,61.30557621805929 5520.768700017827,65.19605062052142 5517.478210275585,67.86787109565921 5514.0749986133305,71.13054956751876 5511.6749246577965,74.37101788399741 5483.203173546703,114.06163802556694 5480.340561066696,117.14925174124073 5476.746858097729,119.51166442607064 5471.903019520047,122.2303635875578 5465.909242595546,124.83058777049882 5462.665647502232,126.18348029482877 5457.838993920013,128.32572972710477 5443.515737031121,135.67434826522367 5369.035092480073,172.62680743949022 5296.713349404512,217.18657334987074 5194.364467484469,241.30533967236988 5192.544314311119,241.7341395650874 5191.9888603022555,241.86517836124403 5123.776078791125,257.9395850196015 5119.215355733351,227.62408676365158 5109.665158542222,197.84916048886953 5102.402895928884,178.16154630470555 5092.965129386692,162.62422152794898 5081.09029745782,149.01161059376318 5064.202689706697,136.5116834110231 5049.440195982228,127.8614712714334 5036.14017450664,121.82398396462668 5015.002629973402,112.93665756064001 4999.552736426704,107.96164896403207 4982.040352142241,104.84910149371717 4960.502892373304,103.111671357241 4955.021170062246,103.16265763016418 4937.702772337827,103.32401416351786 4916.027832604421,104.94897435343591 4897.427841991186,108.71144152624765 4876.153400035575,116.74976717837853 4861.5898444800405,123.41681079060072 4847.836022613337,130.08079185779206 4834.082200746692,136.74470952543197 4821.944933546707,145.90974207635736 4809.807666346664,154.23794158524834 4796.80648903118,165.21409946214408 4783.775019520021,176.7118903803057 4775.668944497826,183.86417693825206 4753.068927715591,209.08912467648042 4726.862683306681,223.00373624952044 4702.31260643556,246.75377758068498 4696.146979555546,252.56949612294557 4689.409587484493,260.4256623053807 4685.050132764445,266.51622962375404 4680.359502791078,273.64451315352926 4676.328310613288,281.0161971168709 4657.806380657828,319.2766489808564 4635.131215928879,347.7890097410418 4622.8812268088805,366.10175651614554 4603.806464284484,400.6266797244316 4591.006264035532,431.9767592572607 4578.818898204423,458.1265913655516 4567.818753422296,488.9141750878771 4559.531216497766,516.4140414296999 4552.656344462244,543.5642503023846 4549.1313814755995,573.5391725777299 4545.218736640003,588.114052826073 4537.8688014222425,601.5266698171035 4531.143934008956,618.0765996400733 4524.356443306722,633.4390577863087 4518.731415608898,656.1704496216262 4513.866314240033,678.6913409266854 4513.81272035552,678.9391716425307 4509.056263111124,699.1767898022663 4505.156434204488,727.926742981188 4191.893771662202,709.8819697451545 4131.813570844417,706.4211732903495 4131.374042737822,706.4061901536188 4105.262461439997,706.3552474863827 3696.1675255467417,705.5590430882876 3420.019210524508,705.0217469549971 3254.8038283377537,704.7002081375686 3239.372867413331,704.6702417911729 3014.5191426844685,703.9468538051005 2980.4648894577986,703.8371768547222 2950.5280446577817,703.0041109410231 2897.9361328355735,703.0041109410231 2890.9243633778533,703.0041109410231 2846.156867413374,703.0041109410231 2727.2585435022484,703.0928115308052 2555.2722730666865,703.2207681053551 2485.3040005689254,703.0041109410231 2464.9994914133567,703.3307448150008 2433.5218224355485,703.8371768547222 2380.9299106133403,703.8371768547222 2329.957466168911,703.8371768547222 2278.178200746712,704.6702417911729 2227.2057563022245,704.6702417911729 2175.423578168906,704.6702417911729 2122.8316663466976,705.5003091191757 2090.0188105955604,705.5003091191757 2071.8592219022103,705.5003091191757 2020.0770437688916,706.3333721045638 1968.2977783466922,706.3333721045638 1917.3253339022049,706.3333721045638 1906.3345097955316,706.5074761518626 1899.925380266679,706.6090617982554 1896.519255893305,706.6630010735826 1864.7334220799967,707.1664341128198 1812.951243946678,707.1664341128198 1788.9682719288976,706.3303754769149 1782.214568675554,706.0948405006784 1763.095241671137,705.4283899666625 1757.7719708444783,705.5902080495143 1753.4460123022436,705.3756492502289 1750.329411413346,705.3834404927329 1742.1644996267278,706.0426991595305 1738.0007790933596,706.2977122342563 1642.166466844501,700.5070049923961 1554.8529996800353,700.5070049923961 1504.3232873245142,700.5070049923961 1479.674178275629,700.5070049923961 1437.6341449955944,700.5070049923961 1407.403990186751,700.5070049923961 1401.2523443200043,700.5070049923961 1395.5396440178156,700.5070049923961 1390.8463926044642,700.5070049923961 1366.7512812089408,700.5070049923961 456.9062550755916,700.5070049923961 454.5251137422747,700.5070049923961 450.2978961066692,705.2584809400723 441.80210033775074,715.2377954543917 433.52475790219614,725.4012574500521 429.2908410311211,730.8381719728932 427.08096711110556,733.3249831527937 418.7535260444274,743.1109306475264 417.05250275554135,745.4898262415663 404.8537773511489,749.952144255687 391.83221105783014,754.8995552906999 378.92860956449294,760.1504673610325 366.1499633778003,765.7021770078572 353.5035542756086,771.5516808393295 348.78845752892084,773.7998407314299 326.96700842666905,784.7579828598537 305.6080978489481,796.6022467025323 294.37551872001495,803.3006254778593 283.2911965866806,810.244029589463 272.36037432891317,817.4291561031132 261.5877122844686,824.8527019717149 250.9790358755854,832.5110644371016 240.53929671115475,840.4006406638655 230.27286385773914,848.5175281486008 220.18556273775175,856.8578243484371 210.28117987560108,865.4179262891412 200.56524942227406,874.1930325989961 191.04214044444961,883.1798398894607 181.71622200886486,892.3732472448028 172.59186318225693,901.7693521548645 163.67372430220712,911.3633534141118 154.96617443556897,921.1510490560322 132.96005944890203,947.9607751576114 120.05762303998927,965.2716037303908 107.78200206224574,983.0376232344424 96.14950769778807,1001.2357354219421 94.08119153778534,1004.603142672102 84.64225991116837,1020.5119955707924 78.24798520893091,1031.9632632218418 72.10391239117598,1043.5521273890045 66.21237162675243,1055.2728906323318 60.57685816887533,1067.120155324752 55.19941091560759,1079.0879251181614 50.08294257783564,1091.1708030080772 45.22978332446655,1103.3630928036873 40.6419720533886,1115.6587991620763 36.32213020446943,1128.0522265938343 32.27229667559732,1140.5373804837582 28.493927822215483,1153.1079671248444 24.989062542270403,1165.758591631311 21.7594484622241,1178.4829610782326 18.806541937810834,1191.2747829646105 16.131799324473832,1204.1283641277114 13.736094435618725,1217.0371134513407 11.621174897823948,1229.995638053515 9.787623253359925,1242.9967488045222 8.560498062230181,1256.0865560598904 8.342336000001524,1258.6014845549362 7.268710684438702,1269.143487704394 7.123948942287825,1271.673641305475 6.330526435631327,1282.2253339595627 6.166540800011717,1284.7767004496418 5.602931200002786,1295.3276022975333 5.493704533379059,1297.8965878661838 5.159325297805481,1308.4431058205082 5.10544014221523,1311.0276139259222 5,1321.5655563688488" stroke="red" stroke-width="3.292370806097206px" fill="none" stroke-linejoin="round" vector-effect="non-scaling-stroke"></polygon></svg>