<svg width="466.7661135644885" height="423.55737794202287" xmlns="http://www.w3.org/2000/svg"><polygon points="5,206.92968052870128 17.064449422294274,247.22856341890292 15.786643057828769,248.9350886348402 24.448463360080495,264.76220465713413 24.405063964426517,265.5689528142102 52.1378602667246,289.2586937758606 53.050121386768296,290.4589850176126 49.816138240043074,313.54775282833725 48.945528888958506,314.3701006510528 52.080479857861064,314.791192033852 52.36971207114402,320.9568869016948 93.22893226670567,336.7959204679355 94.39343416900374,336.54707789846 97.96587434667163,342.37722260388546 97.98801095120143,342.57376695261337 93.55661226669326,351.9463831896428 93.77302670222707,352.5661914270022 141.44012657785788,400.7048235783586 142.21782044449355,401.3416190391872 140.40990065783262,411.79507480643224 140.44106666673906,412.40750311291777 145.62307100452017,418.0995343484683 147.81779882672708,418.55737794202287 158.4873508978635,403.31824197166134 159.4561186133651,402.18481810204685 172.2930190222105,396.41395458590705 172.84119125339203,395.5053846122464 171.05890332453419,370.8423070637509 170.73675747564994,370.0873308064183 175.0522302578902,348.2419217649149 175.4588447290007,345.03100718930364 190.0279344356386,323.15153656410985 191.89352590229828,319.23063609946985 200.16213020449504,324.6933684688993 201.24944526224863,328.2003193204291 222.66253226669505,323.27280970144784 223.7035352177918,323.305269414559 229.30060088890605,360.8444071994163 229.37545756460167,361.62195288558723 242.69703310227487,359.1784217428649 243.49802865774836,358.4653256039601 252.3083972267341,365.16797690978274 255.70811363565736,366.4895514266682 263.9120557511924,361.01524211175274 264.8965521067148,360.4756918149069 274.79161429335363,367.6948276342591 280.780730879982,371.30881347798277 288.1609582933597,360.24851234426023 289.19031039997935,359.05491473991424 297.22473272890784,364.8623729342944 299.62305905786343,367.1232913527638 309.97891214233823,355.0864263171097 310.1895011556335,354.75241009134334 308.4506126223132,352.359739132924 307.1165909334086,349.0258231325424 314.48400241788477,333.45094775391044 314.85537308454514,332.6394911350217 309.40161280008033,329.3616265520686 309.37248568900395,329.2782254231279 318.9815196444979,313.48418304882944 319.10967893339694,312.26237731124274 315.7259824356297,298.0109292714624 315.75481827557087,297.87386126013007 324.33333504002076,299.48891375027597 326.17708117340226,299.8428530288511 323.97885809780564,274.1377061700914 324.20226304011885,272.89133012399543 331.85045987565536,275.1090087699122 331.93521976901684,275.15770906524267 331.81638115562964,256.10198828869034 332.0357083022827,254.95742871396942 349.009823573404,226.8669399698265 349.3876022044569,226.4398158112308 365.9341314844787,239.96485858637607 366.44239957339596,240.60257336997893 364.7227349333698,257.2537573194131 367.9610871466575,259.67362502845936 364.54243811569177,265.04044066305505 363.64386673783883,266.17908513348084 376.72659996454604,287.5173128732713 381.4332498490112,290.9234084858326 381.3184890311677,279.7499177954742 381.5573313422501,278.76330449583475 403.6764595200075,250.2618757254677 404.7978532979032,249.37750222039176 446.17116700450424,255.69386194105027 447.23663672897965,255.71641037787776 461.28551623108797,250.47248326882254 461.7661135644885,250.0837385657942 452.98545464896597,245.67265540355584 452.39300920895766,245.51571102358866 442.8949495467823,189.63680062256753 442.1044397512451,188.54016143956687 392.3072742400691,154.00471512059448 389.63078400003724,153.6130917184637 380.73856824892573,164.08381328143878 380.2678741334239,164.5566261667991 378.07256376894657,158.1131091087591 376.33920938672964,158.14378867659252 359.0414919111645,169.13582016859436 358.8212909512222,169.37177012709435 336.8810032355832,205.48084087425377 336.65293795557227,205.63781400304288 336.5722558578709,219.1465532759903 336.9028485689778,219.4952101407689 331.5955976534169,227.59354525338858 331.4945265778806,227.83664853021037 291.4782449777704,198.78411785629578 291.255422577844,198.61947133403737 261.4164448712254,212.73667059873696 261.26964423118625,212.6243572779931 261.77995121781714,220.39549101225566 261.60081948456354,220.39458892901894 254.61730332451407,210.12052203918574 253.50901674677152,208.73440167168155 260.93788643553853,190.90575550793437 261.14294129784685,190.35225209669443 266.5279615999898,196.19396559067536 266.67126698675565,195.96706642908975 263.41980757343117,178.07782967481762 263.5331120355986,177.28068339754827 244.08523121778853,176.9391772832605 243.5070580622414,176.6820323007414 232.0513652623631,157.6416357953567 231.7012573867105,157.4065755145857 208.45724017778412,173.65852597053163 207.789938062313,174.35192406119313 198.44188302231487,201.32191404147306 197.6839955911273,202.18753667949932 170.47752618673258,214.92654329061043 169.63895665784366,215.5047923150123 156.56962190230843,204.92647222685628 156.8667184355436,204.04011097172042 145.64899413345847,211.0668497364968 145.14451256894972,211.85891114163678 137.7744796446059,200.78422488208162 137.0934877867112,198.21574851474725 141.42294158227742,181.42247398552718 141.41682488890365,181.00924581702566 126.84977408009581,179.4370769211091 126.30888362671249,179.61482054262888 118.60330638231244,169.53373180585913 118.01552128000185,169.9465305277845 106.87673144892324,135.97351961344248 106.37108480010647,135.85394737747265 91.41314816009253,170.61422517045867 91.71344867558219,171.54809195833514 56.68023324443493,171.02521727746353 56.46498389344197,170.93769542267546 52.576805831165984,179.65903086256003 52.45854976004921,179.9445932240924 31.737231644568965,186.16191062319558 30.165824000141583,187.0239844234311 5,206.92968052870128" stroke="red" stroke-width="3.064869304089564" fill="none" stroke-linejoin="round" vector-effect="non-scaling-stroke"></polygon><polygon points="123.81502037332393,82.71859521121951 125.20380103110801,89.83182618033607 125.58594872895628,90.15722128353082 148.85122872889042,79.60397329862462 150.25544675556011,79.1129232182866 171.3239600355737,80.85054951958591 172.3818567112321,80.72598248359282 192.19062243564986,73.46937872213311 193.35395925340708,73.52173473121366 223.9385910044657,105.86226174654439 225.2565927823307,107.38125837192638 240.9246483911993,82.92936428287067 241.53777408006135,81.25403790955897 226.12807594670448,75.87729081802536 225.6294198045507,75.87548545812024 221.4683207111666,56.27381302427966 220.40052081784233,54.023669700254686 204.32293802674394,41.45810022763908 202.85318400000688,40.068652433226816 194.0139795911964,5.266828331281431 193.81795413338114,5 172.7657520355424,5.328230405342765 172.37311857787427,5.2072321840096265 167.8706497423118,12.594773085671477 167.73783011559863,12.692290747072548 169.80964152887464,40.614411246497184 169.62381056009326,41.29062664415687 143.03017557330895,36.90286329027731 142.09111751115415,36.826573209662456 140.8826336711645,47.0934437502292 140.74748387560248,47.638282216736116 126.6820019200677,60.60431450896431 126.15713137784041,60.8841646850924 123.81502037332393,82.71859521121951" stroke="red" stroke-width="3.964112106394012" fill="none" stroke-linejoin="round" vector-effect="non-scaling-stroke"></polygon></svg>