<svg viewBox="0 0 523.8500960372693 527.2811009248325" width="523.8500960372693" height="527.2811009248325" xmlns="http://www.w3.org/2000/svg">
  <title>Jihomoravský kraj</title>
  <desc>Geojson of Jihomoravský kraj</desc>
  <!-- Generated from maps/2-geojsons/world/europe/czechia/jihomoravsky-kraj/okres-breclav/okres-breclav.geojson -->
  <metadata>
    <collboard>
      <support-module name="@collboard/map-svg-geojson-import" version="0.11.1"></support-module>
    </collboard>
  </metadata>
  <polygon points="17.261356071965565,253.56760082194887 24.759839556401857,265.73358297557934 25.24524286309679,267.33607818659584 22.12514672083853,283.5428486170167 21.91841704973558,284.219590060693 39.62333153862346,289.8112661949017 39.63352602754094,289.7827352812201 58.86440986754678,305.0638030634909 58.83120496086849,305.30901237976286 84.4383775119677,304.99183204390647 86.35617932530658,304.6465688490316 87.87260954753219,308.7235886695162 88.17283724529625,309.51709074528844 103.62571632086838,292.53556905431105 104.25930380529098,291.77997435907673 121.86780755642758,314.502915853187 122.06303201865012,314.69801097225354 134.4968860275294,316.302517939901 134.57815066753028,316.34529384058624 142.67621573420547,326.7037171161828 142.74961605419594,326.7343287539734 167.61848915640803,329.5918562710176 168.2804755741854,329.52698944347867 177.3998099741766,323.1871342152044 177.77802551196146,323.18039259450234 193.42947866754912,328.2781500922756 193.52712730753774,328.3350617971191 194.00189921864148,334.5355461797044 194.0207590230748,334.6138876151708 203.93256929864947,344.49937953973495 203.96067696086902,344.61339056301586 206.32761882753766,362.234998782169 206.28516606307312,362.7674303787244 200.96728375195016,373.19790680110236 200.96262341419424,373.2242968854298 207.55554501420193,387.1681004357124 207.5579480008637,387.34847903917034 220.89663571642086,377.87869314584896 221.0544318408538,377.6869115522604 237.73297975196692,375.9259567782028 238.2571949341982,376.0400136638673 246.9035050497514,385.6707366958617 246.99132328974156,385.72571287032406 254.2160847475061,382.69708482108035 254.66791905863283,382.5735472029519 262.01414056973954,399.16509159795896 261.9538474497567,399.2791007454398 284.88292776975504,402.8587364628511 285.6751123742033,402.7350229818294 293.22056332532156,411.47970634825833 293.3012454230811,411.5049748147612 296.9838588986495,404.6204924650847 296.9623776541739,404.5679628390826 308.91337697864583,406.64935606495783 309.26748983197103,406.61834706766604 317.5917997341785,400.23100728729696 318.0044580808499,399.773100890543 322.9291243919761,405.12823950277016 323.2801788986435,405.32676832504876 343.52162785864857,404.20676513632134 343.6234999297485,404.24958368517764 350.618594116404,392.7486370115839 350.7262916097425,392.6378154763843 355.3162145964343,399.66659765628356 355.8717414230814,400.09746544069276 367.19745448975664,398.11251012393404 367.34724065864066,398.18127011852994 379.36799941420395,425.05604372678863 379.3931943653042,425.2116989645183 373.4476228097519,444.5202656149813 373.5105373697479,444.8065441095714 382.8259700453091,451.4141387440941 382.84686874751424,451.59276511840653 380.05743813420486,472.97835141203905 380.0591129430868,473.1329906856881 386.5631240364346,485.4745286757134 386.5623230408419,485.68059446491316 379.48028442751456,503.27293128030215 379.5305286941766,503.534231467278 395.10362992085356,509.49070545839277 395.14098544085937,510.019744852867 407.1338549875254,502.01785808247587 407.16589480975017,501.9759961165437 416.43268520974743,478.1514243059246 416.5695826319752,477.56289801501043 415.1343442319667,453.12143055361594 415.29745605418066,452.6859019131989 436.46922494307,427.56831671037435 436.73865072084664,427.12045341193516 436.9425404986432,408.6390822443245 437.08162245421045,408.2683106563527 447.5506343653142,398.23557169130436 447.73996058751436,397.89784153509027 449.08781765417734,386.471197668423 449.23709409863295,386.1046937322426 467.2529404986308,360.1772312993744 467.5114436097392,359.70121260367523 469.81903898752716,347.79168495763224 470.08628023196434,347.28573300228527 502.06784823198177,325.00601564733734 502.37586743197244,324.7032044303087 506.4052391653131,309.2162953209372 506.58873996530383,309.02792425742155 497.56690856973364,315.8461290799787 497.4903042675469,315.9088012529428 488.4164081608651,312.7758796113085 488.1699928008784,312.82197440315576 466.96844144085844,297.4534836079438 465.567136125308,296.6017589332223 467.9283253875219,292.7666796733283 468.15384204530346,292.45573061658433 451.0006678586542,275.6782616098826 450.96542405420405,275.6507189393633 429.4510475208699,291.28202596449773 426.84846732528604,293.99011237432205 416.3045987386322,287.18846188144016 416.2758357164166,287.146437612133 406.9072460630741,289.01759262699125 406.8654486586347,289.00067289120125 405.3035073253159,262.68733141744815 405.248529903085,262.1279376154307 398.8227979208641,247.76896821988703 398.31103457861536,246.8127812736093 370.75948172530116,227.0541989430967 370.64442963640977,227.0992579848571 376.3272018319585,220.3213904723125 377.63646547640747,220.40044712358576 371.9459017786321,194.2150089535753 371.8522581164325,194.0954816346093 377.9945104897379,188.44937731720347 377.9954571208691,188.0443369851455 367.7440975475365,175.34577249003996 367.36879472087094,174.96423974121353 377.6047897430726,166.24489565579643 377.82200517419915,166.14126774718534 389.1788842497517,165.56382953755747 389.47081072086075,165.32764338206107 399.2245336008673,173.8157471292252 399.325167769759,173.89963532575712 403.56265271197844,169.95398202562137 403.8852354675073,169.3784676310206 397.1608777786205,168.13210879960752 397.28146401864433,167.90524320426994 406.090376231954,162.74537910514118 406.1062505075424,162.6057219240065 388.64316385864004,160.47856648259403 388.56590419642816,160.46327008671142 390.49841520087284,152.35824585032606 390.4996531030811,152.34206033170994 381.0305020986307,150.37537371924918 380.8925124097332,150.22315768637418 393.16660421419147,134.85649597506927 393.312239769748,134.73295905694613 391.525946863072,114.13003919202674 391.4657265608439,114.09775670800082 397.99078199196447,108.43616035607192 398.65626366307333,107.88630051499422 395.47551031197145,104.34236925778168 395.201351378626,104.02081790480952 397.8986675030792,101.74105617210807 398.02668115641063,101.57061951257128 380.8013445519791,83.19344463217203 380.65367009865076,83.05314244160036 368.6704853164156,87.60501210346774 368.50912112083824,87.37515222606089 366.93727656976625,80.55883416984943 367.03426984975886,80.30985226958364 374.29442074751205,74.53200276797361 374.37648638310566,74.33306205729968 361.15976844528996,44.23425350056277 360.92798945862523,43.911796887117816 362.59296794752663,36.76195154406378 362.77275504086356,36.358798189805384 368.9292068808754,38.07770630937375 369.14664076529516,38.0679304692203 365.5683023475467,17.27924815280494 365.56182156531213,17.261356071965565 353.618249654206,19.497154497094016 353.4088257253061,19.634395499993843 347.05671251642707,29.670400257706206 347.0541638941977,29.72350889574227 333.588481974195,29.09886808459487 333.491925600847,29.007426832442434 323.44933459641834,39.26545801484099 323.4544318408771,39.65114967183399 312.2083086053208,40.420747558124276 311.9931320719661,40.34432145764367 295.79081242754546,28.49366417590136 295.20229914751326,28.206781651493657 292.9989060097614,39.064612906095135 293.0347323564238,39.218801583443565 281.86528624086714,53.898747638468194 280.4792726586347,56.102524304867984 280.55442060532005,52.626127642350184 280.2873978142052,51.741973220970976 262.74042508528873,57.24358054044205 262.4669215119684,57.18028168772071 234.67943905863285,38.468405232142686 234.62009256975216,38.41774894540504 221.70549559196297,48.11969107039113 219.4188717341931,45.87261059678349 215.80390597418955,48.68447350630959 215.7724486942061,48.70901947538732 219.90274586751548,54.24979857712242 219.92437274752956,54.285780894675554 210.32779063198905,62.30125767339268 209.9128021164106,62.569752689207235 210.3596848186462,67.73508523674172 210.4008996808443,68.16299117653762 199.19067560976328,79.85462209697653 199.24172087195984,80.53041721073168 195.18846490751093,78.68750181580617 189.0742473786413,80.83378969556725 189.15776936976545,102.4006055867685 189.62351187640525,102.98979936969772 178.982577191975,104.99290031752389 178.87305925418696,104.94763079345648 166.80766320084876,127.463090790774 166.19905221420413,127.76875680032026 167.31491184085098,135.19915977080018 167.26408503197672,135.37969505280853 155.5967109519588,142.34992470074576 155.4882852808405,142.42643167930146 156.95898593862148,146.52594221190157 156.97660784087566,146.79125680441575 149.01114394753313,154.86683314519541 148.63300122753208,155.481740608393 155.08327280085723,172.24977384887825 155.09783635639542,172.37610834448788 150.5258993608768,185.28663815932305 150.56543941419295,185.49005513159864 154.93858387643195,186.63176887408554 155.32866871198712,186.825098952384 158.0998220630754,201.65133841945863 158.263734880853,202.1395708291857 163.6942662942056,208.37257354117537 164.49679102308073,208.58908462328327 153.5509683030723,212.4438369047748 153.40008986751855,212.50762278038383 154.75588407197574,220.12020517989367 154.76680673864394,220.2094487184695 135.7259044808634,223.6602731280327 135.4468667564106,223.70721711845908 128.62806440976055,218.66172836198893 128.46750120974684,218.5129110762391 124.81780136975067,212.47550837304516 124.8227529786418,212.41139024192307 135.6440572986503,203.4564920461744 135.98120360974644,203.11380757183724 133.16075262306913,198.053814482093 132.9210364986393,197.86074514883876 115.17956748530924,203.18314209363962 114.80419184085986,204.27664456288403 104.57904666754257,199.70290708962784 103.56083568085523,200.0263396956907 99.76695664086219,211.15559011776713 99.6776820453124,211.59135820213487 66.05545669420462,191.4445452945547 66.07242323640457,190.7162633314474 57.02911059641701,190.94790988079694 56.77643290751803,190.98402494175025 39.03678433863752,198.82874348257974 38.867191734188964,198.9067231587287 26.21976318308225,218.69339627445515 25.347187751980528,220.06440021425442 30.306224054180348,223.88392102746366 30.78303486308505,224.27519196267895 17.261356071965565,253.56760082194887" stroke="#009edd" stroke-width="11.16168402539339px" fill="none" stroke-linejoin="round" vector-effect="non-scaling-stroke"></polygon>
</svg>