<svg viewBox="0 0 505.43248389333826 508.86348878090143" width="505.43248389333826" height="508.86348878090143" xmlns="http://www.w3.org/2000/svg">
  <title>Česko</title>
  <desc>Geojson of Česko</desc>
  <metadata>
    <collboard>
      <support-module name="@collboard/map-svg-geojson-import" version="0.11.1"></support-module>
    </collboard>
  </metadata>
  <polygon points="280.05432948444627,324.527960538682 284.44604247998336,336.5508683484438 284.3759917777859,336.70553089517466 300.1755562933465,344.5100164897083 302.5228373599891,344.456002719038 311.50847832000704,354.6998948201142 311.5665140888957,354.74495320914843 310.70478850667837,365.39835784353613 310.68978804446647,365.5010446150625 307.8514967022418,365.0962588850159 306.3698733777926,364.9814255162562 291.99586249778054,379.7054317632644 288.3093896800199,383.513450136066 292.95640180444,387.50961266569334 297.0348527200183,390.5521545638401 293.2983540888888,396.70295050311665 293.2837905333215,396.75338213876944 303.6248616088776,396.5879617883836 303.69702402665985,396.5720708148508 308.38299366221304,391.0222012153315 308.7956520088844,390.56429481857754 313.7203183200106,395.9194334308047 314.07137282667804,396.1179622530833 334.3128217866831,394.9979590643559 334.41469385778305,395.0407776132122 341.4097880444385,383.53983093961847 341.517485537777,383.4290094044188 346.10740852446884,390.4577915843181 346.66293535111595,390.8886593687273 357.9886484177912,388.9037040519686 358.1384345866752,388.9724640465645 361.122507120024,392.42348831488175 361.17311547557597,392.608013680823 358.4542452888925,395.41709385181434 358.5705352799921,395.6817276147556 365.50883159999626,402.0368629721995 365.63852006223874,402.2481696808461 370.1591933422385,415.8472376548232 370.18438829333877,416.00289289255284 364.23881673778646,435.31145954301587 364.30173129778245,435.59773803760595 373.8547683822178,441.67066301227146 373.8912500889053,441.67275803644566 375.5275383733167,433.5311182566145 375.66662032891304,432.9819182134013 381.1897759555502,432.35628672962025 381.79547423113377,433.1292543402303 384.83051920889534,428.24225062190794 385.00185944000964,428.00324932032504 378.7608661600168,411.47271684039856 378.30102189334116,410.5567961885897 371.97148219557835,403.2477553741844 371.82235138666124,403.10199507509947 382.9712628888735,400.8840962365282 383.46817140444887,400.7522332918086 378.8097997066868,393.6083247282147 377.86906683556276,392.23509964415985 381.9527606311092,388.1830986007478 382.01851508444065,388.1087087169069 379.39925961779204,386.22663356873795 379.282751173341,386.0919764384523 377.3530800622318,378.35835639990523 377.319729520015,378.2626480071119 370.011227617804,372.80512000516296 369.82976571555605,372.68202247258864 364.3773889688962,363.90761160289526 364.2737692711014,363.9667961292505 370.6874135022297,356.7469223546284 370.7628527200211,356.582487077372 365.16615113776766,355.5870303419722 365.0192776800029,355.5582066670538 371.0688330222108,349.41963759529585 371.5146962755605,348.7367347571487 372.20238736889564,342.7093082082499 372.2634086666583,342.5672550005472 376.3135334666656,340.7414081032109 376.35270943112096,340.7123557853845 375.14174978668575,338.6818593399437 373.6579419288971,336.04909588908026 375.2069945155597,334.6491466190125 375.77497318221845,333.14961947312236 374.629331084441,331.94636684109696 375.86111661332666,329.81986804016174 380.2695776977705,324.1995614517725 381.6183085777809,321.464889513001 384.0100813066599,322.1858093281405 385.4394214666752,322.7755554343237 389.05227551112307,316.6459562923626 389.4548121866608,316.2674478050392 385.2610907288979,315.6186174663378 384.7952025866905,315.67895867641323 385.5629204177892,314.2761743381632 385.9950211111061,314.21240554712836 379.84971039111383,309.87451889273484 373.93661556446,306.70176370685635 375.8149501422374,302.9847504232964 375.95723608000094,302.7358131631843 369.1460067822261,300.16247482022277 366.2373734666687,298.8292752148334 367.0897783733451,296.4350733654644 367.7000641689008,294.7574011529284 364.0762146400009,288.980734912511 363.293569164445,286.78469645114797 350.70803572444834,295.1632532336587 349.8611649689044,295.6898283377011 354.9787255733461,305.654565438286 354.9841869066656,305.67136674878543 335.74529311111087,307.4468607574306 335.6823057333311,307.4707355307835 337.36825574222144,312.7702387338866 336.382739937784,315.1530154088466 331.89279576001695,311.7930054516544 331.0044916888944,310.95976840495837 317.2578059644509,314.40183290241816 316.89218790224527,314.2800424600498 315.18898008001975,312.6665701521631 315.09584614221944,312.3988876941946 316.31015540444764,309.6912655808626 316.30709705778986,309.50569059063105 312.49938264000934,307.0047334675544 312.10886089778046,306.9255923107046 310.86484198223457,310.03080320503045 310.7326048977627,310.3128654318932 300.46274960891583,311.85202455285594 296.4079644711235,316.80056383363967 286.1089820711129,317.8395948998584 280.7827985333349,318.02359486280307 280.05432948444627,324.527960538682" stroke="#009edd" stroke-width="5.2794242366916695px" fill="none" stroke-linejoin="round" vector-effect="non-scaling-stroke"></polygon>
  <polygon points="208.5395530222229,170.58783976981772 219.80963330667123,175.88438584190567 219.93721005332895,175.94587656023918 243.25142360002042,179.86009109678685 245.04834790222935,179.93465015371453 246.37144692446577,178.20591775187472 246.60147828446475,178.14708849488648 245.84912500443875,175.10339237904532 245.99162939555367,174.62918470157433 248.15184159111936,174.10832714822732 248.27017047999084,174.0820680862887 248.91031156446093,167.21051875176613 248.96281318221713,167.02103074291495 259.8545322933421,166.15281276929431 260.02266854223103,166.16899155674741 258.55903120889684,162.57840375057253 258.1283140533267,161.95924455789623 262.26545609778964,157.5573294798594 262.5217746755586,157.14137977350742 265.4934681866796,160.70195439876238 265.7465827822232,160.9043196443015 267.24611928000354,155.07089455598157 267.2514349777846,155.0465106702684 262.78741392889765,153.81167448126484 262.3079088622251,153.80812765422866 263.70433538666816,152.2189045885823 263.8693404711155,152.02116294223356 263.23480635556166,148.8290450325219 263.22009716445586,148.78747689611168 259.0632215022413,148.24542553889455 258.9759129866504,148.2363358798682 257.18059067556874,142.6931393698976 257.0637181422278,142.54769005228422 250.4297273155605,138.6033401479433 250.1686027644389,138.43348887121078 254.28914235556272,137.19861450049916 253.29663604446228,134.2733002299717 248.8759415733291,135.33693773547543 248.63921097777325,135.49227388986742 247.21329325333477,133.31486693320744 247.07595892446238,133.15242836271477 249.96449453334913,128.11371295982804 249.99762662224362,127.89259819212725 249.27010420445708,117.30489040580119 249.24702096888336,117.18122394235229 247.6015576444404,115.20296658561688 247.46320386665298,115.00864190750121 250.1167565066787,105.02174135181826 250.14675743113162,104.96105925139977 244.1937584622426,103.7055793570687 244.0406226755656,103.63546600522363 235.67502509334713,96.78678251199722 235.51977759111446,96.49885961338418 230.8278368977842,105.41700539651333 230.74416927112156,105.83323324243952 230.31833090665873,111.9956347108016 230.32772440001258,112.09579732100951 232.038286817791,114.94808167991118 232.02510679999955,114.99610838598869 226.4803971111321,121.93591723310942 226.42738576888928,122.05025730067405 224.06947330668459,121.01664111763944 223.85174815110054,121.16137072671677 229.4569694133313,131.18139511653112 229.9299936977693,132.12733573346463 224.71696898667847,136.07624966349226 222.09043174223166,138.41974109493435 213.55706200001418,151.93016164447886 212.53258868444368,153.66858199703688 214.98137773335452,155.0725570932625 215.37706953779684,155.28137137753197 208.5395530222229,170.58783976981772" stroke="#009edd" stroke-width="4.940932016273223px" fill="none" stroke-linejoin="round" vector-effect="non-scaling-stroke"></polygon>
  <polygon points="286.7280788177811,74.28710844800639 297.32379366222426,97.2059600673308 297.3745476533438,97.30847945166875 311.68731878221274,114.77338834421948 311.8113274577843,114.89772568926105 315.4929214844667,113.31914196190314 315.5481901777746,113.28597702290404 316.971486462229,115.6047018548486 317.194527315565,116.05290719714662 321.87940468444845,111.65998326821841 322.023365431123,111.58355739067315 325.06882335112437,102.24959967417067 325.3822310666799,101.74314850192582 327.9079885066674,103.9084860089713 328.18593396445044,103.94664879525203 332.9273907466629,96.1104109686928 333.0129516355589,96.0400660779776 335.8509517066775,100.90208538804268 336.0102041866701,100.95899983685354 338.2867791911192,96.45492211436044 338.4128267644335,96.23667649445247 344.6614659111144,96.40987504626514 344.90824536002015,96.58728927199968 351.6481132355764,84.2538142176852 351.77430644445826,84.18400913049823 335.4152101244324,80.87177296289133 335.2854488444352,80.91072854380013 335.5480297511165,77.75901123774361 335.52931558222167,77.53036961529119 331.59489823113086,73.78084507139988 331.51239568889264,73.52643515192153 334.186337306666,69.73334630723525 334.3394002755592,69.52387576812885 341.6985105333222,74.27356671228313 343.8476544266812,75.60330493184279 348.48075835555915,75.1764158308431 348.51774978667504,75.19517415753921 355.0471742844454,80.7262719606731 354.9374378933351,81.389957632309 359.5982853955427,79.38566919354321 359.8381471555401,79.30231745547621 357.8254637777934,71.10104619761819 358.2242139288935,70.3115785614716 362.6355149066728,67.91246907570871 363.8042402399949,68.39136682204094 365.0856146755466,65.32319669600815 365.1676803111402,65.12425598533423 362.26392578666105,56.411571328244236 362.3369620177616,56.28932306358888 357.3969311555627,53.79666528116627 357.18270125333925,53.71827170771553 355.941449413345,40.01856396831113 355.9852857155563,39.57518405590213 353.31280045334256,37.21783591874532 352.9076423377917,37.07288638134901 347.19195650667075,41.965861521391844 347.04690349335556,42.031166381267894 343.13921026667936,53.491085171270015 343.06100397333626,53.71482949442702 339.9151303377946,51.37329751138873 339.84544372445794,51.30200731597847 336.95472358220263,55.08503551490844 336.9451116355556,55.102357188799715 331.87459131557966,50.67471625796293 331.46855938668136,49.28419014059887 329.09105894223444,49.649536999036854 328.93537453335716,49.65664402643574 318.81734431110795,60.729282099367765 318.650591600024,60.89670762023138 313.07690043556045,55.080260950002184 313.0115100711189,54.9920979795786 305.57863540444646,62.817512803252384 305.2304936088983,62.91732046148513 296.03069556444075,56.31586017581117 295.78792109332403,56.268559707481245 293.50857901335235,59.65266170964583 293.44930534222635,59.84929055252701 287.92097965334665,60.82909352862748 287.8267534488766,60.843637781923235 289.1783970400063,67.08543375883141 289.24000088001026,68.18544351979631 286.7280788177811,74.28710844800639" stroke="#009edd" stroke-width="5.251062613350817px" fill="none" stroke-linejoin="round" vector-effect="non-scaling-stroke"></polygon>
  <polygon points="370.2714783555491,494.0641252083367 385.8948238488881,500.2818993864273 385.9321793688939,500.81093878090155 390.53404447111075,495.4947617362848 391.02920535999124,495.0937862419885 397.92504891555996,492.8090520105104 397.9570887377847,492.76719004457823 398.4063744266821,488.4023563121225 398.59570064888226,487.8669189873833 402.21984144888825,482.96731780599634 402.3603797600151,482.57396478349233 402.51766616001964,475.92290237101383 402.6691271377856,475.4182001416118 407.223879137782,468.94261823395914 407.36077656000975,468.354091943045 405.5716437599983,459.86495397677186 405.47261158223387,459.2212167736068 405.81121424888966,444.27648123466474 405.9255381600012,443.9126244816505 412.1674780711253,436.7077700536827 412.428893893353,436.2832124441991 415.53384393780266,427.51675110821793 415.7996288266802,427.1814608102211 427.26041887110455,418.3595106384089 427.5298446488812,417.9116473399697 428.73570704888675,413.5045239940589 428.73861976000603,413.09964681338874 427.42862793777726,400.36271163471224 427.5720789599943,399.8782885380713 438.3418282933487,389.0267656193389 438.5311545155489,388.6890354631248 439.61271696890594,378.11726366218477 439.7418957066618,377.64589342568775 435.378727280018,379.2458865769511 435.2927294844483,379.25471765170346 435.8143960444502,381.76114065715933 435.65310466665665,381.8447008595465 430.3159984622105,380.14366852449143 429.6499342488894,380.68599552516366 420.36938128888846,372.0898256840662 420.04512372444856,371.7729691030179 397.83198779557256,361.0563002004708 397.0580804533454,360.6356912127592 389.8700191555615,354.07249712636235 389.0944370044524,353.23072833146557 382.460810266675,356.16206504972774 382.19356902220875,356.30198521134275 374.7459851644596,364.6908076983889 374.5096186577937,364.95150255131716 374.2753638666834,370.45330271061516 374.3119183911256,370.6556764112245 378.29708973333595,377.2032212452684 378.43537069333956,377.31813972412033 377.252154622234,380.1830765473494 377.28667024890433,381.144314558878 381.1338519022463,387.61446597851295 382.01851508444065,388.1087087169069 380.12197606222594,390.0198569671991 377.86906683556276,392.23509964415985 383.10910694223253,399.09260929111747 383.46817140444887,400.7522332918086 371.92757307555416,403.09471256714437 371.82235138666124,403.10199507509947 377.9003784800077,409.8254389195424 378.30102189334116,410.5567961885897 384.8700592622115,427.92758925699286 385.00185944000964,428.00324932032504 382.91999917332555,431.9763607701532 381.79547423113377,433.1292543402303 375.82346982224385,432.80282047916967 375.66662032891304,432.9819182134013 373.4820869955654,441.64618430288806 373.4310417333397,441.64497139359423 373.6119210933173,454.53659152688465 373.57755110224366,454.8636693927035 370.8486320622394,463.7695453400736 370.85030687112135,463.9241846137227 371.46219465777517,468.7450107566617 371.51010875555926,468.84298800417287 377.35431796446915,476.2657226037479 377.3535169688764,476.4717883929477 375.2000040088967,479.7217966573587 375.10111746667076,479.93357943991555 375.526810195566,483.38017021163955 375.505474586658,483.4711802307645 373.45856685331796,484.5367356055865 373.42397840889294,484.5930372602959 374.16628283556906,486.64079215787183 374.1260874222278,486.8904487124162 370.67132077334804,489.4084357079189 370.5388652355539,489.6264612451266 370.2714783555491,494.0641252083367" stroke="#009edd" stroke-width="5.451441020227219px" fill="none" stroke-linejoin="round" vector-effect="non-scaling-stroke"></polygon>
  <polygon points="125.91424002667895,307.54976537847665 133.5301785866684,312.8592078845902 133.5790393155546,312.9091631712579 133.46740966224002,317.49491104421736 133.54080998223048,317.52552268200793 158.15263632889378,320.38890699575836 158.40968308444258,320.38305019905215 163.24827878224437,314.16698267208244 163.3130137866608,314.13073275969487 170.31531693333068,314.05038607064466 170.35827942222363,314.0544752446947 184.19693399998482,319.05873523004243 184.22067259558366,319.06934402031015 186.1371636889014,322.61488698353764 186.15769830221666,322.62251156292746 196.1354086666613,315.01663846677525 196.64047277335317,315.34288161420386 206.04161197334884,301.29975939782867 206.15819323555456,301.17407114257344 203.8983663200122,297.95505031164043 202.8631159733411,297.3588493232744 206.15455234668457,293.43988156441605 206.27382786668727,293.25414162028005 204.92939323557198,289.6304298342218 204.92524262221536,289.46314185938513 207.2251193155605,284.06885686581495 207.23545943998738,284.0499480256474 224.28079049778876,279.94303839312465 224.4867191733572,279.9179353146826 225.85234377778374,277.3957367925975 225.95188568000572,277.2956515709009 222.20963444445056,271.4784543664789 222.1558221066732,271.2067018554296 224.9494033333392,262.2541615723237 225.0642369688792,261.88601193048066 224.52239988445194,257.89915308445757 224.5280796711229,257.8852136758285 221.2610372533452,258.87932810560574 221.0754975555535,258.8555430253398 222.0729554755742,257.51814132038976 222.48393901333452,256.79073789373047 220.0915837422433,255.07247904918745 220.08197179556714,255.06329627236823 221.85552159112535,252.01154291691614 222.01448280001182,251.65394692436507 214.84448031109764,245.58762987284695 214.6600328800048,245.5116099766526 206.81238815113443,245.85430728672486 206.57201666667947,245.90797457793792 205.84726132444462,246.10637712287257 205.0757569689083,246.3888754492143 206.99261215111596,255.54621976054455 206.94477087111568,255.57896768436308 201.03473439111963,247.93678137005895 200.84599071113166,247.76947816069128 196.53889197333024,248.06646313986107 196.01016208891065,247.74391790366622 195.0106652711181,242.44173540623865 194.98925684445544,241.96434146083607 196.30223419555819,238.7465281449911 196.28293748445117,238.45071056648862 184.13853414223536,246.5755470743386 184.05697823112837,246.71851033591497 184.4455338933401,251.69366763276753 184.2776889155573,252.39049035966286 181.53733748445643,255.53305420463562 181.49655952890294,255.58549513982848 187.0494976266707,260.46471897411516 187.22309520887916,260.4923752402026 182.47610427556333,265.81606006273773 182.64831831999595,266.4004329161032 167.84752244444803,264.7755005294673 167.78002036445082,264.7780447086186 168.2378985511093,267.567943419366 168.1743286311173,268.83044202373253 163.79623256001628,271.44980815321446 163.14589698665782,272.7499331529614 153.06580482668483,271.5545492549352 152.96990381336195,271.4860859806429 139.40715579555376,274.9780475442601 138.27447526224546,275.04064491783333 136.97293030223932,279.5787661755237 136.47594896888018,281.39667524475203 137.74144912887255,281.7398142370582 138.16262715557946,281.8700804333273 136.81018256888615,292.06959260121926 136.80297360890086,292.15859497019096 125.91424002667895,307.54976537847665" stroke="#009edd" stroke-width="5.898050100868749px" fill="none" stroke-linejoin="round" vector-effect="non-scaling-stroke"></polygon>
  <polygon points="8.05255000000011,244.35879474998342 15.551033484436402,256.5247769036139 16.036436791131337,258.1272721146304 16.06840379554319,267.5895125435561 16.09323465778266,267.7149451303337 12.916340648873074,274.33404254505126 12.709610977770126,275.01078398872755 30.414525466658006,280.60246012293624 30.424719955575483,280.57392920925463 49.65560379558133,295.85499699152547 49.622398888903035,296.1002063077974 75.22957144000225,295.783025971941 77.14737325334113,295.43776277706615 78.66380347556674,299.5147825975507 78.9640311733308,300.308284673323 82.45688152002526,298.62509164875496 83.56560500444152,297.564916920506 90.20585815999198,286.4006765608426 90.22100425780059,286.25306095137034 94.41691024890292,283.3267629823456 95.05049773332553,282.5711682871113 112.65900148446212,305.29410978122155 112.85422594668466,305.4892049002881 125.28807995556394,307.09371186793555 125.36934459556483,307.1364877686208 133.5301785866684,312.8592078845902 133.5790393155546,312.9091631712579 133.46740966224002,317.49491104421736 133.54080998223048,317.52552268200793 158.40968308444258,320.38305019905215 159.07166950221995,320.3181833715132 162.69479085334,314.5256123883371 162.77824002665125,314.4606281926897 168.19100390221115,313.97832814323897 168.569219439996,313.9715865225369 184.22067259558366,319.06934402031015 184.31832123557228,319.12625572515367 186.0655838133314,322.5931182511629 186.1371636889014,322.61488698353764 184.79309314667603,325.32674010773894 184.81195295110933,325.40508154320537 191.15372603556148,329.25350978055917 192.57119689777733,329.8327949949669 194.723763226684,335.2905734677695 194.75187088890357,335.4045844910504 197.1188127555722,353.02619271020353 197.07635999110767,353.55862430675893 191.7584776799847,363.9891007291369 191.75381734222879,364.01549081346434 198.34673894223647,377.95929436374695 198.34914192889823,378.1396729672049 211.6878296444554,368.6698870738835 211.84562576888834,368.47810548029497 214.15263860446407,370.09370943209046 214.15562413333805,370.10850392058614 215.8265008622327,367.2550819987298 215.84281204443664,367.24348870688823 228.52417368000147,366.71715070623736 229.04838886223274,366.83120759190183 232.53439433777362,369.59698771281523 232.55114242668037,369.60471624660545 232.03340802668367,372.07514212636283 232.17787849778665,372.197909797447 236.7391112800176,373.1040857907135 237.33294025777263,373.6516703507584 237.69469897778595,376.46193062389625 237.7825172177761,376.5169067983586 245.00727867554065,373.4882787491149 245.45911298666738,373.36474113098643 249.83873823111185,385.90698791383306 249.90230815110385,386.03822386982915 253.79216102223268,388.06610556349165 253.8084722044366,388.07372115548765 252.80533449777408,389.9562855259935 252.74504137779127,390.07029467347434 257.3613244000078,388.1790148856596 257.41644745777717,388.12934805668897 266.0260574133206,395.5806416389894 266.2168399911095,395.62886717657216 267.109804399988,394.23957970654715 267.9533983555518,393.2085997703323 268.54970313778153,394.6804607014126 268.7355341066793,395.27087156940956 275.6741216977896,393.64993039088563 276.46630630223785,393.52621690986393 281.88555096000323,397.330639020576 282.6188259822154,396.88503387329524 284.0117572533561,402.2709002762929 284.0924393511157,402.29616874279577 287.75036760001217,398.9973780314974 288.261402764452,398.784293358425 287.77505282668403,395.4116863931192 287.75357158220845,395.35915676711716 299.7045709066804,397.4405499929924 300.0586837600056,397.4095409957006 308.38299366221304,391.0222012153315 308.7956520088844,390.56429481857754 313.7203183200106,395.9194334308047 314.07137282667804,396.1179622530833 334.3128217866831,394.9979590643559 334.41469385778305,395.0407776132122 341.4097880444385,383.53983093961847 341.517485537777,383.4290094044188 346.10740852446884,390.4577915843181 346.66293535111595,390.8886593687273 357.9886484177912,388.9037040519686 358.1384345866752,388.9724640465645 361.122507120024,392.42348831488175 361.17311547557597,392.608013680823 358.4542452888925,395.41709385181434 358.5705352799921,395.6817276147556 365.50883159999626,402.0368629721995 365.63852006223874,402.2481696808461 370.1591933422385,415.8472376548232 370.18438829333877,416.00289289255284 364.23881673778646,435.31145954301587 364.30173129778245,435.59773803760595 373.6171639733436,442.20533267212863 373.6380626755488,442.3839590464411 373.6119210933173,454.53659152688465 373.57755110224366,454.8636693927035 370.8486320622394,463.7695453400736 370.85030687112135,463.9241846137227 371.46219465777517,468.7450107566617 371.51010875555926,468.84298800417287 377.35431796446915,476.2657226037479 377.3535169688764,476.4717883929477 375.2000040088967,479.7217966573587 375.10111746667076,479.93357943991555 375.526810195566,483.38017021163955 375.505474586658,483.4711802307645 373.45856685331796,484.5367356055865 373.42397840889294,484.5930372602959 374.16628283556906,486.64079215787183 374.1260874222278,486.8904487124162 370.67132077334804,489.4084357079189 370.5388652355539,489.6264612451266 370.2714783555491,494.0641252083367 370.32172262221115,494.32542539531255 385.8948238488881,500.2818993864273 385.9321793688939,500.81093878090155 390.53404447111075,495.4947617362848 391.02920535999124,495.0937862419885 397.92504891555996,492.8090520105104 397.9570887377847,492.76719004457823 398.4063744266821,488.4023563121225 398.59570064888226,487.8669189873833 402.21984144888825,482.96731780599634 402.3603797600151,482.57396478349233 402.51766616001964,475.92290237101383 402.6691271377856,475.4182001416118 407.223879137782,468.94261823395914 407.36077656000975,468.354091943045 405.5716437599983,459.86495397677186 405.47261158223387,459.2212167736068 405.9255381600012,443.9126244816505 406.0886499822152,443.47709584123345 412.1674780711253,436.7077700536827 412.428893893353,436.2832124441991 415.53384393780266,427.51675110821793 415.7996288266802,427.1814608102211 427.26041887110455,418.3595106384089 427.5298446488812,417.9116473399697 427.73373442667776,399.4302761723591 427.872816382245,399.05950458438724 438.3418282933487,389.0267656193389 438.5311545155489,388.6890354631248 439.8790115822119,377.2623915964575 440.0282880266675,376.89588766027714 448.2545123822126,366.25738756290934 448.5071900711116,365.80689548631904 450.63638189333847,357.5671036642668 450.82934900443774,357.25016416164704 458.0441344266653,350.96842522740894 458.30263753777376,350.4924065317098 460.6102329155617,338.5828788856668 460.8774741599989,338.0769269303198 472.6652160266601,330.48709385011875 473.0897436711309,330.1490072593658 479.65499451556366,321.2906253004692 480.0249088266644,320.99999955564977 492.8590421600163,315.7972095753719 493.167061360007,315.49439835834323 497.19643309334765,300.00748924897175 497.3799338933384,299.8191181854561 488.3581024977682,306.63732300801325 488.28149819558143,306.69999518097734 480.3570307111147,301.70666902470816 480.32127718223614,301.68290231252445 479.20760208889965,303.567073539343 478.96118672891293,303.6131683311903 469.0513425333263,294.61909457587876 469.1556904089009,294.2780253235612 457.759635368893,288.2446775359783 456.35833005334257,287.39295286125684 458.71951931555645,283.55787360136287 458.945035973338,283.2469245446189 441.79186178668874,266.46945553791716 441.7566179822386,266.44191286739783 436.1496490933421,268.9055450733938 435.4915948355699,268.4133361949132 420.24224144890445,282.0732198925323 417.6396612533206,284.7813063023566 407.09579266666674,277.9796558094747 407.06702964445117,277.93763154016756 397.69843999110867,279.8087865550258 397.65664258666925,279.7918668192358 396.0947012533504,253.4785253454827 396.03972383111955,252.91913154346526 389.61399184889865,238.56016214792157 389.1022285066499,237.60397520164383 386.7781763111195,234.4694698224264 385.9390970577731,233.1355745357357 373.4184442577605,227.08427598325193 373.24178832889424,226.94779287820688 366.1594584444317,218.47256272414938 365.05801673778456,217.5464744669805 361.5506756533357,217.84539287113125 361.4356235644443,217.89045191289165 367.11839575999306,211.11258440034703 368.427659404442,211.1916410516203 368.1952978755651,200.89417126171588 368.21328386668006,200.74865330680746 362.73709570666665,185.00620288160985 362.64345204446704,184.88667556264386 368.7857044177724,179.24057124523802 368.78665104890365,178.83553091318004 358.53529147557106,166.1369664180745 358.1599886489055,165.75543366924808 368.39598367110716,157.03608958383097 368.6131991022337,156.93246167521988 377.9254277955695,158.9480173894915 378.01419266669086,158.9530046517391 379.97007817778626,156.355023465592 380.2620046488953,156.1188373100956 390.01572752890183,164.60694105725975 390.11636169779354,164.69082925379166 394.353846640013,160.74517595365592 394.67642939554185,160.16966155905516 392.5470191199927,157.89181594475644 392.3094147111185,157.74729321392783 387.95207170665503,158.92330272764207 388.0726579466789,158.69643713230448 396.88157015998854,153.53657303317573 396.897444435577,153.39691585204105 379.4343577866746,151.26976041062858 379.3570981244627,151.25446401474596 381.7343801155582,148.25684303530556 381.77239099556004,148.14167031783268 381.2896091289074,143.1494397783606 381.2908470311156,143.1332542597445 371.8216960266652,141.16656764728373 371.6837063377677,141.01435161440872 374.41961588443496,137.3070468428266 374.60923337777035,137.16169423728547 377.0141861244408,138.6494615534391 377.16906953778357,138.62495956155885 376.645291262226,132.86691231327836 376.55703611556214,132.6119979040884 378.69540297779145,131.73104280525126 380.9210055377696,130.77456138580578 380.16370064891066,129.26063460708951 379.85415227557655,128.78814080937423 383.957798142226,125.64768990310381 384.1034336977825,125.52415298498067 384.9003514577705,116.77495270857594 384.9032641689189,116.04603052791913 383.0113854844601,112.07328016087536 382.68152095110395,111.7741227348522 384.43970619556035,108.7462967398967 384.4756781777903,108.43791418759042 382.31714079110657,104.92123312006129 382.25692048887845,104.88895063603536 388.781975919999,99.22735428410647 389.4474575911079,98.67749444302876 386.266704240006,95.13356318581623 385.99254530666053,94.81201183284406 388.68986143111374,92.53225010014262 388.8178750844452,92.36181344060583 381.89858420444193,87.39095695084666 381.6250806311216,87.19531382530818 378.0826413777902,77.93570838747087 377.89520841776516,77.6150559187297 371.5925384800137,73.98463856020658 371.4448640266853,73.8443363696349 359.4616792444501,78.39620603150229 359.3003150488728,78.16634615409544 357.7284704978008,71.35002809788398 357.8254637777934,71.10104619761819 362.6355149066728,67.91246907570871 363.8042402399949,68.39136682204094 365.0856146755466,65.32319669600815 365.1676803111402,65.12425598533423 362.26392578666105,56.411571328244236 362.3369620177616,56.28932306358888 357.3969311555627,53.79666528116627 357.18270125333925,53.71827170771553 355.941449413345,40.01856396831113 355.9852857155563,39.57518405590213 351.9509623733245,35.02544742859732 351.7191833866598,34.70299081515236 353.3841618755612,27.553145472098322 353.5639489688981,27.14999211783993 359.72040080891,28.868900237408297 359.9378346933297,28.859124397254845 358.85605378667947,26.02894592878124 358.8465146577871,25.980064197901584 360.1943717244501,25.429475169141142 360.18133734222624,25.30982464830572 355.1952128266637,14.772118931352225 355.1104529333604,14.516548238643509 356.35949627558125,8.070442080839484 356.3530154933467,8.05255000000011 344.40944358224056,10.28834842512856 344.20001965334063,10.425589428028388 337.8479064444616,20.46159418574075 337.84535782223224,20.514702823776815 328.6169423911267,20.073166276393522 328.3454777155491,20.108053791809425 328.93828724444734,22.202042112119443 328.9369037066715,22.35647435757687 324.37967590222956,19.890062012629414 324.28311952888157,19.79862076047698 314.2405285244529,30.056651942875533 314.2456257689116,30.442343599868536 302.9995025333553,31.21194148615882 302.78432600000065,31.135515385678218 296.78326729778905,28.0973811699439 296.03025865779614,27.86409034548683 291.371886960005,22.979420765906752 291.2084110489011,22.789437854596827 290.5497014311038,18.94308773850912 290.5116177333473,18.872977886588842 286.58200635558,19.284858103935903 285.9934930755478,18.9979755795282 283.79009993779596,29.85580683412968 283.8259262844583,30.00999551147811 281.0919099999953,31.399229419119138 280.44142879112746,31.67771629260801 278.1026674044622,39.07360068753019 278.01572297779035,39.254420017452276 272.6564801689017,44.68994156650274 271.2704665866693,46.89371823290253 271.3456145333546,43.41732157038473 271.0785917422397,42.53316714900552 253.53161901332328,48.0347744684766 253.25811544000294,47.97147561575525 229.69704962668015,33.82291794164462 229.3671850933531,34.74731066104846 225.4706329866674,29.25959916017723 225.4112864977867,29.208942873439582 214.27460838220554,40.515807197712775 214.20528585778789,40.61343383295002 212.49668951999752,38.91088499842567 210.21006566222763,36.66380452481803 206.5950999022241,39.47566743434413 206.56364262224065,39.50021340342187 210.69393979555002,45.040992505156964 210.7155666755641,45.0769748227101 201.1189845600236,53.09245160142723 200.70399604444515,53.36094661724178 201.15087874668075,58.52627916477627 201.19209360887885,58.95418510457216 191.71544237333705,66.17346033531771 191.62551241779124,66.20709760163277 189.98186953779782,70.64581602501107 190.0329147999944,71.32161113876623 187.8504203644477,72.00827622655902 187.53271640002617,72.0682174880128 185.97965883554548,69.47869574384072 179.86544130667585,71.62498362360179 180.82423298666959,74.40065910152748 177.5616324533546,81.39983516824554 177.5615596355708,81.87573053962092 179.9489632978,93.19179951480305 180.4147058044398,93.78099329773227 175.10971224000218,98.0030321796437 174.9766741599958,98.09512078409148 169.77377112000954,95.78409424555844 169.6642531822215,95.73882472149103 169.6236936799903,99.38955967390916 169.54410384890048,99.57839188812773 164.9590596533451,105.9094451979397 165.38191248890485,106.89619749702229 162.89642327998422,107.25095810180187 161.85906121778658,108.19908292146988 162.6650083822385,111.57900954846241 163.35677727111738,112.01648807095603 161.55257119111025,116.39130481550069 161.4502622133366,116.74733547296614 157.5988571288833,118.25428471880855 156.99024614223868,118.5599507283548 158.87906648001058,122.5097223278351 158.91642199998728,122.63825651471393 157.2999401511113,123.33038413315785 157.1741110311193,123.34058687894844 158.10610576888553,125.99035369883472 158.05527896001126,126.17088898084307 151.26807952891227,133.1314720891894 151.26036084444036,133.2595380811906 149.29202349333332,131.2383893004951 149.1418732355594,131.20135417594406 146.38790487999336,133.1411186287803 146.27947920887505,133.217625607336 147.75017986665603,137.3171361399361 147.7678017689102,137.5824507324503 144.59673318221007,136.66986519759644 144.42065979555605,136.74880649219972 144.8104533600051,139.49549426441786 144.83149769777788,139.58407694384346 142.55812667555415,139.71789306299593 142.54960699554772,139.8243248736469 144.94705951109768,140.64040615186218 144.95412283557357,140.78430838115287 139.80233787556767,145.65802707322996 139.42419515556662,146.27293453642756 142.0496401333437,150.24123463658157 142.1274095200131,150.42523784956552 139.80415831998812,151.79537747419795 139.69449474666158,151.96086490053108 142.53941250668845,154.5956285199279 142.5973026400095,154.70458095923073 140.83219970667392,155.46114610150812 140.8576131111256,155.56145172016818 142.75444340444642,156.061868748169 143.07935632891144,155.96289404491085 142.4702356177802,159.1473967017007 142.54443693333428,159.21278498008155 144.66976941333974,157.87363979384077 144.92230146667112,158.16390334410949 145.87446672889178,163.0409677769128 145.88903028442996,163.16730227252242 143.2563763466676,164.5227202829335 143.23314747555537,164.63165318122606 144.36808535998694,173.48708093903383 144.381411013346,173.5505686992035 141.31709328891134,176.0778320873576 141.3566333422275,176.28124905963318 145.7297778044665,177.42296280212008 146.11986264002167,177.61629288041854 149.08471128001815,187.16485065046413 149.25153680888593,187.784392604495 148.89101599110995,192.44253234749317 149.05492880888755,192.93076475722023 154.48546022224014,199.16376746920992 155.28798495111528,199.38027855131782 144.34216223110684,203.23503083280934 144.1912837955531,203.29881670841837 145.5470780000103,210.91139910792822 145.55800066667848,211.00064264650405 126.51709840889794,214.45146705606726 126.23806068444514,214.49841104649363 119.4192583377951,209.45292229002348 119.25869513778139,209.30410500427365 115.60899529778521,203.2667023010797 115.61394690667635,203.20258416995762 119.26721481778782,202.48919574137085 119.37942701334373,202.42551967423765 126.43525122668484,194.24768597420893 126.77239753778099,193.9050014998718 123.95194655110367,188.84500841012755 123.71223042667384,188.6519390768733 105.97076141334378,193.97433602167416 105.5953857688944,195.06783849091858 95.37024059557712,190.4941010176624 94.35202960888978,190.81753362372524 92.06256585778442,193.02712590835995 91.90018221332116,193.43771114049719 90.55815056889674,201.94678404580168 90.46887597334694,202.38255213016942 56.84665062223917,182.23573922258925 56.86361716443912,181.50745725948195 47.82030452445156,181.7391038088315 47.56762683555257,181.7752188697848 29.827978266672062,189.61993741061428 29.65838566222351,189.69791708676325 17.010957111116795,209.4845902024897 16.138381680015073,210.85559414228896 21.097417982214893,214.6751149554982 21.574228791119594,215.0663858907135 16.972873413331172,227.49826160915086 16.937338337774918,227.57242448275042 13.718501288916514,225.86377522051748 13.613279600023589,225.9578652074631 15.898811191123741,228.07230179897283 16.779615031096682,228.698470363546 8.05255000000011,244.35879474998342" stroke="#009edd" stroke-width="5.7432935386235355px" fill="none" stroke-linejoin="round" vector-effect="non-scaling-stroke"></polygon>
  <polygon points="295.9124394933531,283.00055257420877 298.1105897511077,287.6918264526246 298.43353659555555,287.7537460480887 307.21718104001025,283.0744200483093 307.4081820711215,283.2305587564549 306.04350409776794,286.5495080807666 306.0080418400246,286.6663836673904 308.62591376889736,286.2532820986596 308.6419336799952,286.3614230101591 306.9099628355541,294.05138171034173 307.20283593779436,294.27680918957753 315.59457510221523,292.55915914306365 316.57819764444844,292.7245582444373 320.32212368891464,287.9623924616242 320.3996746222326,287.90721789020586 319.4367323289114,286.1606213134289 319.3789878310997,285.9906690888381 323.9815082933417,288.14980868191174 326.2163587111352,289.1887133018679 356.3457337155485,266.4095032014227 357.3603038133367,265.2941788140231 340.06178534220794,254.90575056306966 339.85731302222825,254.78991435205512 338.5398937866919,256.66151906961 337.7775644711289,257.7550017291576 327.9200034400053,249.80563010654419 327.8117962222093,249.67628434676567 326.17761965335353,250.9146275952587 325.86180895113625,251.16169544836862 316.00453919111874,238.51733329398098 315.91526459556894,238.38176370600536 313.3013976444561,242.2683292262734 312.68295625778387,243.0210431190278 310.57393496001146,242.19518197677803 310.37616187555955,242.36028879325727 307.1383193866711,250.7387031054311 306.7828229955701,251.67342003287172 303.14652162665857,253.2768300112582 303.09707835556014,253.31278781798733 298.60778953776,263.636028374887 298.14969289780834,264.23580005754025 302.28232023999567,268.96615835883836 302.3273216266605,269.07212084097387 298.04286921778817,273.19189128651465 297.977988577775,273.26908981821157 299.3212581244368,277.02348520891223 299.30589357333497,277.1482328986965 295.9124394933531,283.00055257420877" stroke="#009edd" stroke-width="5.398968309074907px" fill="none" stroke-linejoin="round" vector-effect="non-scaling-stroke"></polygon>
  <polygon points="191.75381734222879,364.01549081346434 198.34673894223647,377.95929436374695 198.34914192889823,378.1396729672049 211.6878296444554,368.6698870738835 211.84562576888834,368.47810548029497 214.87462687111815,369.9492973523227 214.97103760889854,369.9034784564499 215.8265008622327,367.2550819987298 215.84281204443664,367.24348870688823 228.52417368000147,366.71715070623736 229.04838886223274,366.83120759190183 232.53439433777362,369.59698771281523 232.55114242668037,369.60471624660545 232.03340802668367,372.07514212636283 232.17787849778665,372.197909797447 236.7391112800176,373.1040857907135 237.33294025777263,373.6516703507584 237.69469897778595,376.46193062389625 237.7825172177761,376.5169067983586 245.00727867554065,373.4882787491149 245.45911298666738,373.36474113098643 249.83873823111185,385.90698791383306 249.90230815110385,386.03822386982915 253.79216102223268,388.06610556349165 253.8084722044366,388.07372115548765 252.80533449777408,389.9562855259935 252.74504137779127,390.07029467347434 257.3613244000078,388.1790148856596 257.41644745777717,388.12934805668897 266.0260574133206,395.5806416389894 266.2168399911095,395.62886717657216 267.109804399988,394.23957970654715 267.9533983555518,393.2085997703323 268.54970313778153,394.6804607014126 268.7355341066793,395.27087156940956 275.6741216977896,393.64993039088563 276.46630630223785,393.52621690986393 281.88555096000323,397.330639020576 282.6188259822154,396.88503387329524 284.0117572533561,402.2709002762929 284.0924393511157,402.29616874279577 287.75036760001217,398.9973780314974 288.261402764452,398.784293358425 287.77505282668403,395.4116863931192 287.75357158220845,395.35915676711716 292.1625423911098,396.44174258938415 293.2837905333215,396.75338213876944 295.7862462844421,392.30396587559494 297.0348527200183,390.5521545638401 288.2809907466651,383.7832180965122 288.3093896800199,383.513450136066 303.05295078224276,368.39021916304023 306.3698733777926,364.9814255162562 310.61398473778513,365.5075591457787 310.68978804446647,365.5010446150625 311.35592507554225,357.265293370692 311.5665140888957,354.74495320914843 306.87464621334925,350.0936963146012 302.5228373599891,344.456002719038 300.1755562933465,344.5100164897083 297.3097398311145,344.52161453178974 284.4292943911057,336.74894680400735 284.3759917777859,336.70553089517466 283.77837627556414,333.2851784819138 283.7212143199938,333.01870031154954 274.81618263998075,337.5699761185749 274.71540283557965,337.66895837993775 266.1187544444472,336.72475321013894 264.6064748355491,339.5906816629647 235.9677525600198,336.34660265275284 235.50754420445423,336.16310535356 231.21675664888585,338.87959878119705 230.93313140446094,339.44353895908694 228.48892987555132,338.28251189488924 228.33841552891658,337.5598127513874 231.0210952800187,333.1912704833592 231.17219216889475,333.03792390399735 220.85434996445088,326.65753502568236 220.23984073778388,326.50737469294813 217.09054466666544,330.6567992837006 216.988818231104,330.73049282265833 222.81627935110714,338.1127193163627 222.903879137775,338.15259907732957 214.63323593777727,340.52887292490755 214.20433922668576,340.58852425254713 214.01646936001612,342.78718325720524 213.98668688891462,343.11867568240973 213.16770534220973,341.24468462391064 202.874111457764,342.9907624787663 197.04927177777404,346.80130070122664 196.43083039110184,346.68565629618365 197.07635999110767,353.55862430675893 197.01752322665538,353.89634740507586 191.75381734222879,364.01549081346434" stroke="#009edd" stroke-width="5.2326839858199055px" fill="none" stroke-linejoin="round" vector-effect="non-scaling-stroke"></polygon>
  <polygon points="315.91526459556894,238.38176370600536 324.92610050668713,249.96529259124486 325.86180895113625,251.16169544836862 327.08405535112956,250.22143761226448 327.8117962222093,249.67628434676567 337.56049467557,257.60808422910463 337.7775644711289,257.7550017291576 339.82760336891056,254.82476481350727 339.85731302222825,254.78991435205512 358.2939005422302,266.00421485669335 360.58343711111934,268.30272685670184 368.64574864891597,256.8453902851977 368.6922063911113,256.72612851934514 371.42032443558105,258.29000824946684 371.9633266044327,258.60353117570753 377.0768094133307,253.31865170424112 378.75919135113486,251.79258203076438 382.3252963822231,255.85776679259266 382.5165158666857,256.10791035423586 388.91042648000416,237.82586959191372 388.9683166133252,237.48954153783393 386.7781763111195,234.4694698224264 385.9390970577731,233.1355745357357 373.4184442577605,227.08427598325193 373.24178832889424,226.94779287820688 366.1594584444317,218.47256272414938 365.05801673778456,217.5464744669805 360.7840500889067,218.0911690171704 360.3220941066754,218.38897739043 352.2865066933516,210.12159859631333 352.2386654133513,210.11539795892145 350.13146455999936,204.96442152560462 349.9498570222129,204.49799964330282 344.7230697511184,203.07589804157737 344.4478185511032,202.89096235129523 326.77450697779545,222.95321625422343 326.65879952890805,223.0894878021861 320.4173693422415,236.00575598706905 319.34600137780194,237.66174529803516 315.91526459556894,238.38176370600536" stroke="#009edd" stroke-width="5.8073670775941695px" fill="none" stroke-linejoin="round" vector-effect="non-scaling-stroke"></polygon>
  <polygon points="273.4573300888949,166.4142215027748 279.8508766133525,169.01084409878945 280.2110333422386,169.2375566127082 274.4128449688794,185.4638162097615 273.58985844444373,186.93222985375155 284.8189423200163,200.94976477823343 285.1857982844592,201.53039253268048 287.71621606223175,199.84652204815188 293.10604233778554,207.7833554432798 293.30752912889125,208.0287333252561 295.18943177778397,207.28008377740457 295.4442211822386,207.46721943040734 310.2887077244593,221.5146509094991 310.3071306222189,221.58649703698006 314.48475935112924,221.83181377463166 314.71952386666794,221.95867841220002 319.2151478311059,214.62307814864448 319.267066906679,214.56240538441466 330.68627800001536,205.8175248903351 331.03303625778767,205.58963329971425 332.70842768889975,207.26148090870242 334.04652717334807,208.9608493232879 336.93222288889933,205.38765279700579 337.0876160266705,205.24934445108352 339.5564299644682,208.82299281389692 339.6610691111198,208.99550717086072 347.40072507557466,202.34146715352085 348.05943469334284,201.40735710069544 346.66970740445663,200.6630478168006 346.5188289689029,200.5052365730878 346.9370942844614,187.82006064110442 346.6724744800083,186.90520146923495 338.5283157599986,197.31746389848536 338.3175811111066,197.73864936033328 334.04259501334286,195.3819409506757 330.36609823111917,193.0470626772801 331.276902995545,191.46239943433443 330.84567611554644,191.1531483373617 318.17734886223457,187.32557997285744 316.9719233688736,186.83397496649536 314.1559870844428,184.664236639808 313.8990131466778,184.08886010101537 315.53857823112753,179.9056242029253 315.54258320888744,179.797940008262 312.841043653352,174.04938273861603 312.93942047112046,173.28487249160366 306.795493288904,171.4251849346399 306.17013421335264,171.42762260221184 304.3730642755761,164.34940239146067 304.2015784088942,164.1155775218574 293.6779531644495,161.06446029170888 293.57265865777276,161.01226224922698 291.3465463733371,157.52208526148002 290.9654909422168,157.30263962306321 288.42101933333447,159.74586280808558 288.3031273511076,159.76536826117785 283.9825573244377,155.64768115641323 283.9520466755855,155.62340835955524 278.06137972445117,157.04972190388776 277.82173641777604,156.7092453926232 277.6222885244422,160.41946191772126 277.8424894844427,160.71026623887133 273.4573300888949,166.4142215027748" stroke="#009edd" stroke-width="5.2371843583883875px" fill="none" stroke-linejoin="round" vector-effect="non-scaling-stroke"></polygon>
</svg>