<svg width="9706.701899662381" height="11019.969548951136" xmlns="http://www.w3.org/2000/svg"><polygon points="6623.262477937853,7687.113171366043 6625.466817706823,7697.217407024524 6627.096770844539,7700.148953652591 6660.984125724528,7722.65037850081 6660.97538759117,7722.816940688936 6684.273581226706,7728.7982801180915 6684.351059342269,7728.795586464461 6727.136455395608,7720.468896007922 6727.36568576016,7720.28482260881 6732.214475946734,7722.669234603876 6733.6679187911795,7723.38980590133 6734.159875697806,7734.53478941822 6734.463380195666,7734.614250107086 6739.1778944000835,7715.550491487782 6739.5087783823255,7715.10511340003 6748.359924906748,7716.036275830469 6751.30409329792,7716.037173767283 6776.192627200158,7703.378144521965 6779.124270933447,7702.459051238839 6803.551722666714,7702.992458068649 6806.337730844505,7702.802982053778 6817.874397013336,7688.2676183296135 6817.989449102315,7687.881905298331 6793.811907982337,7656.1087657544995 6792.781099520042,7654.97615504032 6794.4754235734,7653.958956053539 6810.578638222301,7644.463074807543 6799.576745813363,7634.483962230734 6799.25430869346,7634.355509465677 6805.042156942305,7607.906110759475 6806.282971875626,7607.62761286716 6783.282748586731,7591.66100662481 6778.733967644512,7589.888814124977 6733.404318435583,7585.32507171802 6728.996221440029,7584.372689038864 6714.6464588800445,7575.6038353953045 6713.453703680076,7575.271385658532 6683.409088568878,7601.423755996802 6682.297598008998,7602.643339146918 6685.803919644561,7625.850960535114 6685.43051008007,7626.0908081576345 6666.743720675586,7615.02340861148 6663.5199320178945,7612.851186193409 6650.8478910578415,7590.300305473036 6650.8639109689975,7589.989890128141 6642.725504853413,7590.753124753712 6642.6401624177815,7590.83488369087 6648.850353777874,7604.786015763413 6648.991911537829,7606.736866426421 6643.881559893489,7640.791978323599 6642.066649600049,7640.806799365266 6644.842172017787,7649.712716821348 6645.166065493482,7650.449246496486 6637.822246968979,7651.547748963756 6637.380679964437,7651.487569494348 6642.177915164502,7667.04161634238 6642.0710186667275,7668.561259629903 6637.637289813487,7670.905818640313 6637.061738097924,7671.56279361737 6637.05562140455,7679.751689050812 6637.078631822369,7680.410882731201 6623.262477937853,7687.113171366043" stroke="red" stroke-width="3.8830987065560754" fill="none" stroke-linejoin="round" vector-effect="non-scaling-stroke"></polygon><polygon points="1639.1104503467213,10865.472894253093 1645.1729672533693,10881.382029068482 1645.4196738845203,10881.821941626724 1675.559534648899,10903.138509263867 1675.8534272001125,10903.48943128693 1680.1383165156003,10917.109909839346 1681.4624349867227,10916.453685698041 1675.249913457781,10934.411755491048 1674.836308480124,10934.810856349417 1677.8352358400589,10939.365953277273 1679.5001415112056,10941.247696453938 1725.878657991183,10953.708034799085 1728.369899804471,10955.016721244203 1729.8574213689426,10977.431312265864 1729.9200446578907,10978.078508439707 1738.0095172267174,10975.756467737956 1737.5621248000534,10976.520456760889 1696.1780340622645,10990.439902412647 1695.580345742288,10990.95833688823 1703.93778773339,10994.783301910327 1705.060637866729,10995.12390505633 1715.0101677512284,11014.244172774954 1715.2373592178337,11014.826243114192 1752.954929208965,10996.307607505645 1756.9791308800923,10989.445495691849 1786.9072375467513,10990.80218738271 1787.9258126222994,10990.638960161712 1802.6178187378682,10981.412666860386 1804.1635945244925,10981.16626732354 1821.124020053423,10983.01757491799 1821.529469440109,10983.128608645638 1817.7837229511933,10996.43898216373 1817.738575928961,10996.961383653455 1825.0561800533906,11005.293100854731 1825.614255502238,11007.000011500902 1844.0776399645256,11003.656506658532 1845.2555403378792,11003.312820342777 1848.6304987022886,11000.116113995318 1851.87292871112,10996.870704397676 1847.4904635734856,10979.1994849029 1848.1630085689249,10977.441929306486 1862.275676444522,10981.56395692518 1862.7626817423152,10981.758598961867 1856.9398809600389,10951.007904447382 1856.9544445156353,10950.764568128972 1871.0933267911896,10944.634616947442 1871.684024604503,10944.137311418192 1890.563344213413,10946.265010258532 1893.351973831188,10945.960612091934 1904.0585173334694,10929.131787041959 1904.2073568712221,10928.849046560237 1910.8774653156288,10927.86985021166 1911.5272911645006,10924.279131608433 1910.4787151644705,10912.614978928352 1910.3173509689514,10911.725982486154 1902.6225507556228,10910.118345721043 1902.492643840029,10909.97718465561 1900.9541498312028,10896.389458214748 1901.045608960092,10894.942795324547 1889.0799004444852,10893.603661212139 1888.7679490845185,10893.508956774953 1887.9838472533738,10898.318032359064 1886.849055004539,10899.98328377644 1870.1769878756022,10892.922584943008 1868.5749967645388,10892.331786094583 1871.5191651557107,10898.342814294854 1868.8118001779076,10898.677370157093 1865.9605472711846,10887.868659270986 1865.781415537931,10887.301302452572 1848.8026399289956,10881.840086894634 1848.410006471211,10881.601542888791 1856.897937920061,10864.714276260405 1857.1912479288876,10864.164121681126 1851.3731074845418,10860.165169441723 1850.700271217851,10859.663690870977 1852.6896529067308,10856.378601951874 1852.6311074134428,10856.189161224524 1839.9832419556333,10858.682861013338 1838.926801635651,10858.71738488169 1825.6661017599981,10849.823327505786 1824.6387885512086,10849.239495888585 1825.3165764267324,10841.67344788555 1825.422599111218,10840.955029502802 1799.2376174933743,10819.627167932456 1798.5423533512512,10818.997659388813 1799.5414132622536,10800.106258738437 1799.5667538489215,10799.898175195442 1795.157200497808,10794.970522701973 1795.2614755555987,10794.698236822267 1778.8008712533629,10795.135222291108 1778.2876515556127,10795.804645168013 1771.254328035633,10787.680229542428 1770.7644100267207,10787.447782750358 1755.58510734234,10785.147210493451 1753.6600965689868,10784.74916833546 1748.0140973512316,10766.523916070466 1748.167014684528,10765.725550129428 1719.8234228623332,10775.115798742045 1719.8726476801094,10775.415118271834 1711.0485893689329,10767.504711111716 1709.5310668800958,10766.705905907264 1697.1567049956648,10794.387432043324 1697.0833046756452,10794.674328777823 1668.2256193422945,10793.233642968582 1666.442457600031,10793.361153338163 1665.6126262045,10801.232120136963 1665.7981659022626,10802.237554246443 1650.1196245333413,10817.953786849976 1650.1053522489965,10821.421832966269 1661.0728746666573,10830.941194527782 1665.840691484511,10833.061126884539 1669.5765347556444,10843.500247418066 1669.5045907911845,10843.9012825666 1639.1104503467213,10865.472894253093" stroke="red" stroke-width="3.0252662707440443" fill="none" stroke-linejoin="round" vector-effect="non-scaling-stroke"></polygon><polygon points="3764.5204084622674,5047.735722707235 3765.171690666699,5055.586420273059 3764.9188673422905,5055.719126166194 3780.744791893405,5064.315295960521 3782.671841564472,5064.973344543774 3790.572570453398,5065.243743764004 3792.8925448533846,5065.310548225534 3792.8130278401077,5060.830968231079 3792.6187500089873,5058.525473260786 3797.4218106311746,5058.535017051501 3799.388764444506,5058.358684089733 3802.153218560037,5064.89745092066 3801.9647661511553,5065.799538080173 3794.1755940978182,5077.961670730845 3794.239673742326,5078.212967945728 3824.9545036801137,5104.369011117611 3825.191307093366,5104.938336506486 3864.945444693323,5119.022872066067 3867.0487133867573,5120.474482878286 3871.6461366045987,5112.488913252368 3871.745168782305,5112.2999021344585 3876.3172514134785,5116.611677385226 3878.27867107559,5118.556264591985 3872.2106200178387,5117.005139657995 3869.3535416889936,5122.5671479525045 3885.2551967289764,5128.550623254152 3887.3098231467884,5129.634627815336 3915.8637127111433,5128.612865070463 3918.632244622335,5126.353521155426 3920.5490998044843,5113.8360670622205 3920.309966222383,5112.15678062581 3915.2657331200317,5108.239303896902 3915.1017474845285,5106.778069730615 3924.1911537778797,5091.190052118851 3924.8532130133826,5090.59524437692 3916.986271573347,5064.716124132974 3916.9638436977984,5064.534797194123 3892.9275690667564,5054.367976419162 3892.547168995603,5054.495229360415 3870.495906986762,5012.015423374134 3870.3817287111888,5010.446719166706 3832.7276558222948,5017.456480055524 3832.651342791156,5017.364660512772 3843.0476825601654,5029.166790276533 3841.3082114844583,5030.932168345316 3825.2667463112157,5017.246476885863 3822.6269562311936,5015.873269340722 3806.771030755597,5036.2159446883015 3804.950003769016,5041.950912454515 3780.304389973404,5037.625839043758 3778.8663844978437,5037.712195912143 3764.5204084622674,5047.735722707235" stroke="red" stroke-width="3.441154191521612" fill="none" stroke-linejoin="round" vector-effect="non-scaling-stroke"></polygon><polygon points="5883.803770026774,4986.385623804585 5891.267300977837,4991.980069527286 5891.562358613475,4993.92849942582 5901.283531946712,4986.961622874718 5901.628979484551,4987.950864756305 5896.668923733407,4993.159312667674 5893.268042240059,4997.415263419971 5904.994908444583,5010.057609677082 5905.190642631147,5010.87537519302 5903.438064355636,5013.810487119481 5896.191530382261,5020.491048665601 5896.736498631188,5036.183219759085 5897.007672035601,5037.195417719893 5901.266929493402,5035.086477268487 5901.335669475608,5035.059660868137 5907.741886293399,5049.419597144122 5908.475889493362,5053.136800367152 5904.802960782312,5079.285408491036 5905.008306915639,5079.734832214424 5935.068941937876,5086.901401886251 5935.078262613388,5086.95184104878 5935.16010979563,5086.914579686592 5935.582452906761,5080.0470198355615 5970.304008248961,5081.9251347392565 5970.688486115541,5082.148707946762 5974.092280320125,5049.486860953271 5972.3705767822685,5048.764228400716 5976.98110720003,5046.580409139278 5977.714527857839,5046.975816126273 5979.058744035661,5022.486949892715 5979.261468729004,5021.331956677313 5981.866306275595,5014.274137539207 5982.890706773382,5013.3595634097 5989.183036586735,5014.513689868618 5990.272973084473,5014.755969280493 5991.382716017892,5006.872885968711 5992.27254926227,5006.126473805634 5985.023976391181,4993.915315987775 5984.729792568949,4992.679251467402 5991.491068871226,4983.859302039957 5991.496311751194,4983.792017920408 5983.093431466725,4978.526970988489 5983.024400213384,4978.501056876732 5991.536798435613,4970.5048146284535 5991.627092480077,4970.329319544777 5982.116508160136,4967.8660083130235 5978.830387484515,4966.885313513456 5986.353920284542,4963.518091290956 5986.919568782323,4963.2839387374115 5986.941414115601,4963.224832227686 5982.20621966233,4960.8028155011125 5986.176244906732,4950.904866090568 5986.211488711182,4950.537020521588 5991.758747022366,4952.446718802792 5993.391321600066,4953.404289767146 5997.7242706490215,4938.062185704184 5998.159138417919,4936.560701136128 5943.6838675912,4915.719824355154 5942.007602346712,4915.405581570114 5929.687125617871,4925.115973936045 5926.317118862295,4925.78945061448 5904.017111324589,4921.06961299025 5902.261037795572,4920.949557974469 5891.6634296890115,4952.787279899814 5890.982146560098,4953.8116881004535 5906.984290133347,4955.30577857676 5908.313942755689,4956.167854105646 5906.580297102337,4965.973722584895 5906.408447146765,4967.840547586093 5883.803770026774,4986.385623804585" stroke="red" stroke-width="3.4195268293815806" fill="none" stroke-linejoin="round" vector-effect="non-scaling-stroke"></polygon><polygon points="2899.0773330489174,3141.4036317940336 2911.7601510401582,3153.591695436975 2913.088638577843,3155.361413163948 2914.312268515583,3166.193512024707 2915.1450126222335,3167.3309265519492 2931.143660942209,3178.0542369635077 2931.760573155596,3178.3361688172445 2921.139954631217,3186.7779091473203 2920.238470542361,3188.202176784631 2922.7125273600686,3199.8132521958905 2923.144482417847,3200.9330714540556 2912.834358897875,3211.2302778403973 2912.5888173511485,3211.637755685486 2922.319020088995,3222.931782445521 2922.198142577894,3223.419904302398 2908.0819794490235,3232.0560414098436 2906.496882062289,3231.355281910044 2909.710476231179,3245.7540813637897 2909.60241464898,3247.1834597862326 2923.2601170489797,3258.031579417642 2926.5497329778736,3256.9404679809813 2923.767220053356,3267.084246662096 2923.635856782319,3267.2363813894335 2926.9496482134564,3266.7891416447237 2927.0859630933264,3266.999930983933 2928.131917653489,3280.6962150963373 2928.179977386724,3280.9386072249617 2934.810764231137,3283.032607304107 2934.961060124566,3284.225307692017 2941.5793223112123,3282.7407314855373 2946.410927502322,3281.60621514183 2944.57067662233,3275.7342189602787 2944.274162631249,3275.461120289634 2947.737084871158,3273.7808227225905 2948.412833848968,3273.5792044658447 2970.2575846400578,3283.433993186569 2971.1281939911423,3283.151281974744 2972.2472576000728,3280.6985061385203 2973.484286008985,3279.00083722244 2963.477666986757,3265.5051551872166 2963.5222314668354,3264.8003799355356 2974.1198395733954,3248.0991002470255 2974.2966411378,3247.619283131906 2959.7464840534376,3209.4435998853296 2959.0567540623015,3209.141999122454 2967.8749869512394,3204.518470919109 2968.3180103112245,3204.512053739745 2970.207194737857,3195.157437140704 2973.2428222579183,3193.3857533005066 2964.9526638933457,3187.370170920505 2965.080531911226,3186.4684838138055 3002.083322595572,3176.017898734135 3003.5402606934076,3175.358674817835 3000.617646364495,3170.2324296854204 3000.166758684558,3169.8748441073694 3002.6725640534423,3163.456082347664 3002.2024524800945,3162.3929178454564 2984.370252515655,3158.31992703944 2983.2538103467086,3158.1846789544798 2985.0684293688973,3150.729398499476 2988.4492131556617,3147.9803106785985 2972.9093168355757,3123.963276259252 2972.5032849067356,3123.0507780619664 2951.8341043200344,3123.900914696045 2947.3817341156537,3124.226478540746 2937.881053013378,3133.3604078853386 2937.126078293426,3133.929431571334 2908.111980373389,3133.4736625176156 2906.594457884552,3133.45440464915 2899.0773330489174,3141.4036317940336" stroke="red" stroke-width="3.3651436897696687" fill="none" stroke-linejoin="round" vector-effect="non-scaling-stroke"></polygon><polygon points="9376.932280604495,220.72031341306865 9413.057762702229,234.55332545330748 9413.761764977826,234.73875722225057 9439.90713372454,234.7643179798033 9442.508767288993,234.62907830061158 9430.012071537902,274.1665490473388 9429.862358186743,274.64374974463135 9450.30434730684,272.13320679892786 9453.364732871181,271.70897185313515 9461.456826879992,239.73280657897703 9462.844151182217,235.11752086272463 9496.190033066785,225.2675894498825 9497.300358542241,224.81444638385437 9508.717603555648,204.2137823930243 9509.497045048978,203.95116609573597 9570.068620231235,226.2435866430169 9576.939123200136,229.48340067605022 9610.331608462264,253.5497203064151 9611.473099946743,254.020461150154 9624.983419164433,248.90499086794443 9625.454695822205,248.74977755977307 9655.695045120083,214.2835962398094 9656.08097934234,213.5106566165341 9675.382350791246,224.30599548423197 9679.936665884568,227.11733273800928 9677.246485902346,222.17457848519552 9677.188522951212,221.30220653512515 9683.806202595588,209.63290237798356 9684.226798080024,208.98079321614932 9701.005761706736,199.4754841455724 9701.701899662381,199.17149321601028 9699.524065564503,188.6370577639318 9699.715430684504,185.94561069621705 9635.592969386722,151.64691897516605 9634.6789606401,151.09273190179374 9604.777068373398,120.12896963249659 9603.254011733341,118.5019638419617 9595.511734328931,126.34997892327374 9593.061270471197,124.4956451128237 9594.122953671147,120.1531491051428 9594.43636138679,119.0078760839533 9588.668028302258,114.46903793502133 9587.598772053374,114.57273339561652 9594.494906880078,110.77316872100346 9595.825724586728,110.34256883751368 9588.760943786707,105.58870716224192 9587.859168426716,105.54453011834994 9589.49756842677,100.68685976124834 9589.451256320113,100.35575663961936 9561.283592249034,91.69853036070708 9560.966980551137,91.7013206704869 9552.253896533395,78.6706423581345 9551.093763697892,77.1791257855366 9551.56329272897,62.245714059623424 9551.2659049246,61.47036490077153 9541.553469724488,50.97287483129185 9541.344919609022,50.45749895228073 9544.88415488007,30.469911600695923 9544.192677262356,28.142579980776645 9525.475304391235,5.815564243472181 9524.950433848891,5 9493.44101632014,55.25770277623087 9492.674682026729,56.29726762138307 9426.845954560093,117.01165474718437 9426.019035875564,117.84492713276995 9442.154872888932,149.1372583352495 9444.51067363564,153.6037643731106 9406.28920462227,163.4370020784554 9404.230500408914,164.73452243744396 9411.899960035575,172.12619392224588 9415.06054286228,175.16693262662739 9408.268100551213,179.13363478437532 9408.097415680066,179.33677927812096 9411.612184177851,187.76966245507356 9411.491889208904,188.0378767066286 9390.878050133353,206.6474996949546 9390.594352071173,206.8385332474718 9394.436218026793,208.25803270179313 9392.735486008925,215.52224592212588 9376.932280604495,220.72031341306865" stroke="red" stroke-width="3.5544732336270846" fill="none" stroke-linejoin="round" vector-effect="non-scaling-stroke"></polygon><polygon points="5,2674.126496666635 5.914882560027763,2678.419075903017 5.996729742269963,2680.6926103607984 14.304655644460581,2677.836444380926 14.613403022289276,2678.4034533117665 8.680210488964804,2686.2527439666446 8.308548551169224,2686.5514000926632 17.58116437343415,2691.7819505227963 18.114481777884066,2692.320895852521 12.805774506763555,2704.186541234725 12.773152142297477,2704.3482616242836 39.80864540452603,2716.637737820158 40.94402019563131,2717.3222525530728 43.61410247115418,2713.0906303905067 46.19592960004229,2711.5575599570293 34.4839182223659,2700.266163006483 34.28614513785578,2699.926176070294 21.9901351822773,2699.306847139611 20.653492053388618,2698.5345212571556 30.248836266691796,2695.8798309636186 31.840632888954133,2695.5742959767813 30.836038826731965,2685.7073508667527 30.532534328987822,2685.1206037601805 38.57744241785258,2689.4373159162933 40.0498178844573,2689.2158539135125 46.66808007110376,2681.6529279457172 46.86730951117352,2680.0190070546814 41.0442174578784,2665.830576497712 39.065612800070085,2666.4040501680574 39.851753528928384,2654.2808231638046 37.68760917335749,2652.897605233593 5,2674.126496666635" stroke="red" stroke-width="3.723403384392853" fill="none" stroke-linejoin="round" vector-effect="non-scaling-stroke"></polygon></svg>