<svg viewBox="0 0 1895.6402244799967 1496.5275890074402" width="1895.6402244799967" height="1496.5275890074402" xmlns="http://www.w3.org/2000/svg">
  <title>Северна Македонија</title>
  <desc>Geojson of Северна Македонија</desc>
  <metadata>
    <collboard>
      <support-module name="@collboard/map-svg-geojson-import" version="0.11.0"></support-module>
    </collboard>
  </metadata>
  <polygon points="8.052550000000338,845.5711547899773 8.933936382214597,849.3234498038437 9.140156328889134,849.7049491297294 13.990839777754445,854.0599846966288 14.197278177751286,854.1991347121002 25.113900968899543,855.2073067692472 25.423376524420746,855.3127127148982 18.95737631110387,865.3797230085111 18.973104951095593,865.5108757942871 23.862527457771648,866.9053173200882 24.06314043552993,867.0039955163156 26.769995688875497,864.5215356587796 27.079471244425804,864.5725780566936 29.561902106659545,868.7144578260704 29.674114302215457,868.8878930378487 38.36921232887107,871.1954886228559 38.43919021331385,871.228735580029 44.57707351999852,887.4897407115859 44.715136026650725,887.99492297494 43.82464742221782,894.8388784662602 44.090068222205446,896.2813553868109 51.383569662204536,911.6484287208805 51.541001697776665,912.0110921725936 47.93724987554742,916.3626965472431 47.86443209776917,917.2199837249282 51.14698470221629,922.40289853172 51.98307842665963,923.6964237410793 70.41995721776766,925.0848187290903 71.2519003288835,925.677504688625 70.9017924533182,932.8627230982602 70.25939401778305,933.8007814119119 83.78973812444747,943.8725448405676 84.10241766219406,944.260269169281 86.52098733332969,954.1977439899129 86.75800919999165,955.1283978975334 86.42341151109576,957.9594003453458 86.12369353778922,958.3918885894891 82.58518644443393,959.1322083858613 82.02259629331093,959.4909099096913 78.70028518222534,971.776104006618 78.63343846219504,972.323801999948 76.12391938665678,975.187225210575 75.998017448881,975.5371977969553 80.20855981333443,982.110615143938 79.96833396444708,982.8103845566147 72.42033439109946,991.0419667815077 72.09272720889567,991.553403229489 69.24751817776269,996.3510594842155 68.91423120888794,996.9698537531876 69.6392050044451,1000.1187415453678 69.1435343911071,1000.7615583193328 62.396894462210184,1004.5601167849309 62.09681239998463,1004.8644300647793 61.65648329776741,1014.1986754877216 61.55337332443014,1014.4435827644847 54.72940091556666,1021.6557490482737 53.95170704887278,1021.5902863543088 45.96301428444713,1013.5333958380143 45.554433733319456,1013.1050680397238 41.282287528891175,1011.6413018191888 40.9965505688815,1011.7003730233482 40.96254466666869,1020.6609027449813 40.691516897764814,1021.4922376591057 36.079093217769696,1025.1702687607976 35.86457204444014,1025.4898049372787 41.961458942219906,1031.2919904533264 42.03318445332843,1031.3951631790915 40.94353922666778,1035.8252255804327 41.05327561777813,1036.3594727557283 46.59063071109267,1045.641660014393 46.931927635545435,1046.1823194600802 47.20106214221596,1052.5061501253003 47.13683686222794,1053.116930706521 49.12286893331475,1055.139414657875 49.270543386672216,1055.2559248221587 47.72061698666221,1060.794271761457 47.70991277331632,1061.0053668107357 48.90346896887786,1066.252470864034 48.876089484438126,1066.3617889773668 52.882013893344265,1069.5336763975574 52.928253182217304,1069.5603261677388 53.049349146669556,1073.472487489773 53.0323826044405,1073.5766573112705 50.71204411556391,1077.1098991355757 50.313658053324616,1079.8129676504395 51.13780966221384,1091.4399707209886 51.30580027556425,1093.085656969335 53.21988838222023,1095.4840701708526 53.618274444430426,1095.9759666136015 52.77453485332808,1098.9606827695752 52.88776649776992,1100.3531727955342 58.095839599998726,1109.1970356186866 58.23907216889347,1109.4439963388504 53.82886345778388,1114.3278097735529 53.696043831099814,1114.4528296752615 53.56613691556413,1123.7884361234392 53.61572582220106,1123.93493248929 57.979622426653805,1128.419609924873 58.161739688897796,1128.6695938219273 59.28655590219569,1135.3224624968789 59.439618871118,1135.76855019082 65.21887462223094,1142.824023655201 65.72335618665238,1143.92110112901 66.5175796888725,1153.9101751488852 66.72278018666111,1155.00870582091 70.0302364711024,1158.3396990086258 70.48170669331012,1158.8871380441778 74.34563643555884,1157.1701938991537 75.04526964441902,1157.5163541774891 81.00387558222428,1162.8330687251073 82.70140361777885,1163.4240130268809 82.98721339554322,1160.8237007429925 83.1838213955416,1160.2729882820786 84.77896763553872,1160.3147926642196 85.22978249775042,1160.7623494248328 85.27208962667646,1171.2924234499878 85.22912713778351,1171.387337684726 102.11957478221302,1195.2457761322803 102.67910658664914,1196.2909778168614 103.09810007998749,1203.5103972068246 103.57360016887105,1204.8338666511045 106.22962861331325,1207.2802686773575 107.86467899554555,1209.000207145531 112.46071867555293,1219.5330995129552 112.7428875644473,1220.381452134381 112.8617989955601,1222.0293023784252 112.50033154665289,1223.2503951164472 104.42221855110984,1226.640928628949 104.07851863999531,1227.0784472801824 106.68787088886165,1230.140993350804 106.83751142220717,1230.7485164013997 102.89100631999463,1236.5777354217498 102.54803458665992,1236.9683091344705 103.92225168887671,1241.9526729988938 104.34408507555054,1243.0777057017913 109.32846196441824,1249.4527397813436 109.781606995537,1250.1558406991608 111.9347558666559,1258.2466420632918 111.97145602666569,1258.5759223021232 139.34693549332587,1263.8881320680157 169.63556297778996,1270.14631351742 211.03334345776966,1433.072582720466 211.13412326219986,1433.3651151522718 231.16716774222004,1441.3260873718027 231.6160165244437,1441.5906427675145 242.33195351999166,1439.240820595056 242.81306057776237,1439.2259833941716 244.62214544887684,1441.4785007018727 244.8557448799911,1441.6076952808435 252.5852791733123,1441.2349474945877 252.94907679109747,1441.2795540258448 260.47275522666314,1445.1475826334718 261.1151536622274,1445.4508492716777 271.08652887997596,1444.5493300461312 271.29842861332145,1444.5539542422557 278.7915964000058,1439.9726564232187 279.3836049333113,1439.4496008411152 280.6990580888596,1432.1679012944005 280.78636660445045,1431.725335981122 289.8591704444334,1414.5437551641007 290.17738413334155,1413.9478174581964 295.6301249688622,1407.6013084311053 295.72471526222216,1407.5240009422778 326.0118135733428,1420.2057044405155 326.22895618665643,1420.3141253707217 332.210062817765,1426.307347316957 332.5537627288795,1426.6080054401173 341.9808978755391,1427.1011973265922 342.10315892444487,1427.1709646864983 341.6610093777781,1424.8083719418282 341.7421283822114,1424.550010744926 344.7154238844305,1421.0705610181685 344.972907546653,1420.9207009301826 354.0282351200076,1422.9554913340617 354.7877973599898,1423.2539487773684 358.03466925331304,1420.3610595294813 358.8074843288705,1420.292537573543 363.41743220442004,1419.9766224548002 363.59372404442547,1420.0308813252122 364.43870153776516,1423.2622365650095 364.6150661955544,1423.3572569369353 368.75999974221486,1422.0517262974536 368.92274747556803,1422.1059834001135 374.5698389599929,1427.0201553112202 374.9902888088909,1427.2918046566847 377.0422937866606,1431.8887569294675 377.28317499554396,1432.2190663870788 383.3631681688785,1433.2794560911207 383.95896322665067,1434.0418080510644 384.9616640266686,1438.270807230183 385.29145574221184,1439.249202648578 390.863909004438,1445.9754932941796 391.0160253422291,1446.4201753340676 390.1659506044598,1454.2860838663255 389.9352638844357,1486.8693136395377 510.21144578667736,1487.2809777648 510.6450028355539,1487.2653815577723 519.7072480977586,1484.8781541869175 520.2973633688889,1484.6481492180392 534.7973490044315,1468.4645575978138 535.0922610044436,1468.1091085703592 547.734810764443,1466.0544761288984 548.2191946222229,1465.92947221519 557.1127939111102,1459.4214183412914 557.4184101244391,1459.4001327348742 582.6653531288684,1468.6488779875726 582.7622007733225,1468.6970284718336 588.7465842044403,1475.667679286409 588.8690637066684,1475.8298321213733 589.1449702666505,1479.9373417456736 589.3743462666534,1480.2487233037027 595.0317050577796,1482.5075901922464 595.5165258222332,1482.9579868014916 605.7562345510887,1477.426976996816 606.1324111911017,1477.1515934432755 610.6408510844412,1478.4971100471666 610.9938716710967,1478.4880591501205 631.3915875822204,1475.515829137723 631.5339463377677,1475.5139033250234 636.7868751910937,1478.1420058036092 637.0351838133138,1478.2433955846136 644.6509767377647,1472.1216865433016 644.8230451466588,1472.008442629456 670.3914786399764,1463.7479314770826 670.5431580710938,1463.738589560795 710.440164151114,1426.8636600931713 710.4920104089033,1426.8378344906887 726.8236544266474,1429.3242716211025 727.2213851288907,1429.452238165737 727.242939191121,1427.6031544327634 727.4695481155431,1427.6206925055085 744.7097395466772,1437.2828582955917 744.8646229599908,1437.686171462563 763.3577898933218,1432.134465703166 763.5613155822284,1432.0601750327114 783.6410362577662,1435.6480938537934 784.1878977688975,1435.7340387825607 788.7738157777712,1434.280860167848 789.0237992088732,1434.0933570517445 794.0394149244312,1436.4996372582027 794.6253795822049,1437.0621237063388 794.5378526133209,1440.4625655212076 794.5550376089013,1440.63241906459 805.1800980177723,1454.1246468078243 805.3050533244459,1454.2496738733244 807.601944488888,1461.2496424116907 807.7816587644411,1461.5152708583555 815.547237857776,1465.163649359376 816.680064026652,1466.0699812197636 818.6605619466645,1475.734023340563 818.8753743911002,1476.1910154871657 833.721462924419,1473.7633155194853 834.0648715644274,1473.7263388891079 837.3347538755406,1476.3218729385917 837.3265254666694,1476.5602850884097 841.9515466222147,1472.829456448053 842.3218978399891,1472.2908779684294 845.9769133777663,1463.2028235554535 846.0531535911214,1463.0524846672852 851.9858363999883,1462.3242846888097 852.1821531288806,1462.6777434609467 858.5005517066529,1455.1379561789436 858.7559964711036,1454.8916618375442 864.6647222311076,1455.0044545539495 864.8548494489005,1454.9038947037116 868.1601212000023,1447.4737780846845 868.322359208898,1447.3305307499759 878.6821444533198,1442.5726481466918 878.8938985510977,1442.5408558030394 894.9090036888738,1445.3851480449448 895.3234096622109,1445.388712482738 895.8494452888917,1437.9635561747054 895.8249785155422,1437.7559272315048 893.6776550666618,1434.3419479086806 893.6202746577692,1434.1351743412743 894.6888755466571,1430.8780648740285 894.6785354222011,1430.6526828879214 891.6276161688802,1427.3406609431913 891.6747292711007,1427.1310701005496 894.9896857866624,1419.4384644770544 895.1085243999914,1419.2530379313903 902.8650740888916,1411.8145210180592 903.0078697511126,1411.6544221072036 904.2728601866474,1405.5171543702381 904.3537607377584,1405.3066241222623 906.8067003999968,1404.0258834486667 906.9997403288799,1403.9339189918028 916.0178580177671,1404.4242981619827 916.2333258222279,1404.4359623345154 920.4668786044422,1402.0320372527422 920.6759384444522,1402.08727543211 938.6601091111152,1414.6394632230295 938.8348717777772,1414.7738205172718 950.1300013777873,1414.6714622600048 950.3447410044391,1414.7093406173299 956.034139617761,1419.5974836937748 956.2397770222233,1419.6615731446436 963.9295528088769,1416.3473411578234 964.138248559997,1416.298572818203 975.8656244888916,1416.4594310933098 976.4848668710983,1416.5570638686404 979.7652349422351,1413.940974214238 980.5759880799815,1413.6990506103975 981.915034195561,1408.8387938364103 982.0580483111044,1408.6788802271258 992.2006909422125,1401.0766887323189 992.2852323822226,1401.0519131057008 991.1978445066561,1398.4702785292393 991.2123352444396,1398.2881651728603 992.9160527910935,1393.6686360242675 992.8914403822055,1393.4521852911203 989.7422171288999,1388.190518811134 989.6541804355584,1388.001722855748 989.4789808622227,1372.1103855198817 989.56876518223,1371.9256890894248 1000.0106160622163,1361.3325721539804 1000.1830485600003,1361.1979090733876 1006.6954336977578,1359.1609505148444 1007.1587003999812,1359.1807261885333 1012.472286462209,1353.8608483329808 1012.6675109244316,1353.7691007752655 1019.7157620888975,1352.8638704060359 1019.916302248872,1352.780707809703 1023.9295084355472,1348.935814379809 1024.2393480799874,1349.0257357505398 1024.0559200977805,1340.9630847996814 1024.0769644355532,1340.7626657751462 1027.5638437244415,1335.0092993235667 1027.6673177866396,1334.8155202832786 1032.115610195564,1332.6031355402447 1032.5222246666453,1332.3698776655729 1032.8116753333088,1328.9688671308759 1032.9267274222002,1328.7921524451885 1042.3562655555506,1325.8919732512513 1042.557533893334,1325.8000888101014 1042.532921484446,1322.5665791636493 1042.583529839998,1322.3654264765573 1050.1820649511137,1320.4845601336638 1050.2936946044283,1320.2993275986591 1048.720903422225,1307.955678153383 1048.7726040444468,1307.7196265505409 1059.6614832622072,1309.6899788687515 1059.8664653066444,1309.61554509079 1071.9839260710942,1298.8267452432701 1072.1563585688782,1298.7442843877725 1069.1326003466747,1294.5030063872473 1069.049879351085,1294.3049514927043 1068.1517448799932,1284.8538961676313 1068.0739754933238,1284.6469258360958 1064.8034378222146,1281.063325109666 1064.7342609333355,1280.8562458389279 1069.6056974488965,1268.47111735028 1069.6646070311035,1268.2608090515641 1069.3413689155495,1258.356982051926 1069.4604259822008,1258.1799742013754 1076.9034951377616,1256.0343911002637 1077.0888891999857,1255.92559305131 1084.5552600444425,1250.1885990594528 1084.8730368266479,1250.0651994843865 1085.435262888881,1246.421856613997 1085.6039088622274,1246.2873363171748 1098.6987298399981,1240.6058161027831 1098.9045856977827,1240.592285535422 1101.1258920088949,1234.8202689440295 1101.2687604888997,1234.6602068823631 1106.3267561511093,1234.1406789903776 1106.5217621599804,1234.0316500852423 1115.7589885422276,1222.1480194168616 1115.952611013323,1222.0476706643603 1127.8329042755431,1225.7246043799169 1128.1034223199895,1225.8750220546717 1139.395056666668,1221.2956300180595 1139.5827808977701,1221.1955699464233 1156.0867845955436,1218.9026525686277 1156.2772030844426,1218.8112899321495 1159.2842860355522,1214.3452851360853 1159.4297759555411,1214.1851714003205 1164.8858664088839,1212.2067278606337 1165.0423518133248,1212.063819618059 1168.7441891822164,1204.9168364150464 1168.861498622231,1204.76617562108 1177.319429146657,1202.6425746123205 1177.469579404431,1202.4824313243225 1179.28915003554,1199.7849812060085 1179.3487877955558,1199.574541810267 1179.753509004433,1192.2828108429603 1179.9406506933228,1192.1828016989384 1192.603589431099,1200.6297297469791 1192.7774782844426,1200.7566102957135 1193.5787651111095,1203.6569027466248 1193.5518953510982,1203.8664582669517 1191.833614248877,1207.5192082166686 1191.8981308000002,1207.7268170327661 1195.659824382201,1209.4900624589427 1195.8208244888883,1209.6345236073757 1198.3773838488924,1214.133056999366 1198.5538213244363,1214.2684189909269 1205.599159777783,1213.5387177500597 1205.8163752088803,1213.5513838959232 1214.9392048622321,1217.3753807103567 1215.1345021422094,1217.466938779624 1221.8521605955393,1224.940415969475 1221.8615540888932,1225.331061333949 1228.1330580177673,1228.2178569673633 1228.3430644888795,1228.265513175058 1230.341912488897,1226.0108423350393 1230.549297519996,1225.936697065008 1235.733923297761,1226.913725632221 1235.9472793866662,1226.8742851741772 1242.760547582213,1223.628676776214 1242.9142659111021,1223.4773837176108 1246.316385306658,1214.8968815956396 1246.4075531644412,1214.6947106895022 1252.1023402933279,1209.8620444141052 1252.2287519555612,1209.685191294986 1258.5934626399903,1196.3368204499202 1258.7618173422015,1196.2025807473328 1273.6239257866473,1190.994673258312 1274.0491816088688,1190.9161345141547 1283.751131048899,1191.6292666102017 1283.9373261066576,1191.5556614579618 1286.023045715563,1186.8253114222389 1286.160889768893,1186.6569061944392 1290.842563155551,1183.2145124241724 1291.0523511733409,1183.192747179397 1297.6230633510932,1188.3116301772316 1297.8160304622215,1188.4122257880008 1306.7700685066593,1190.0764796177318 1306.979273982237,1190.1593719736338 1312.566727706675,1187.0837704994701 1312.778408986669,1187.0358898742197 1314.710191813334,1188.7567645450836 1315.0964901244224,1188.7601499531083 1324.5435045244303,1187.077579875222 1324.765307475558,1187.0992470574784 1333.134400311108,1190.3297990906503 1333.2936527911006,1190.4833958954623 1334.9451599911044,1197.4635329730881 1335.1231266399918,1197.5906132834425 1351.8393941600007,1202.2168788212366 1352.0389876889021,1202.3001421256267 1356.768283902209,1206.6410937316614 1356.9801108177708,1206.697855821847 1370.2524615377552,1201.1440199121207 1370.3605959377674,1201.1244850854928 1368.334441271094,1207.4525837250185 1368.3603644000032,1207.669765772378 1371.4752904799898,1212.1995727871326 1371.5320155288864,1212.3987542613831 1373.0496836533202,1219.0230190157672 1373.1145642933334,1219.2394846861062 1371.7556389244346,1223.8025908431227 1371.789135102219,1224.0109197397032 1374.7716056444406,1230.4142586154849 1374.9823402933325,1230.4623964850107 1378.160253751128,1230.6363884798266 1378.2456690044564,1230.4258581054673 1377.4959371644436,1223.230577078204 1377.6507477600026,1223.0621718400434 1384.3724111910924,1221.8536432909386 1384.5770291466688,1221.806175616941 1388.688757786651,1216.7030484527568 1388.873205217773,1216.5950530901246 1398.8848486666466,1219.5055459897048 1399.0958745866737,1219.571191030649 1403.0715796177756,1214.4907020916944 1403.0825022844438,1214.3754514468383 1406.3175048799967,1214.375644820575 1406.5436040799905,1214.3452851360853 1411.7556093422245,1218.9679115141116 1411.9035022489043,1219.0783198289646 1417.434449377768,1219.532712796914 1417.6504269066572,1219.572157820141 1424.005962551113,1214.2292607302152 1424.2229595288882,1214.2339017105187 1429.2374829777764,1215.473998154448 1429.453970231094,1215.626760579653 1426.8240833688833,1221.9713939052526 1426.8565600977527,1222.1885262382639 1438.1286792799729,1232.0561453239134 1438.3435645422214,1232.0957758802178 1448.1268514400072,1229.898079164741 1448.3636548533177,1229.8938259832867 1449.2252347999965,1232.229069691566 1449.4226437955585,1232.3125835829487 1457.7374873866574,1232.7857302321427 1457.9335856621983,1232.8168543619904 1462.29180247998,1229.5389743167398 1462.4633611644458,1229.4749828760614 1472.8227823200068,1234.2362724418708 1473.0465513511226,1234.2323095210668 1476.3978439377752,1231.5611479240833 1476.585276897771,1231.462070652 1486.2080005955431,1231.8328605074712 1486.4235412177877,1231.8029924789225 1504.8494973422276,1225.4842833701769 1505.4846868177774,1225.3427584235687 1543.3846653422297,1220.8221076279951 1543.8084648088916,1220.8123432458888 1549.9614213955429,1230.0230645744086 1550.2738824799962,1230.3199160182921 1559.3559341777654,1234.6558573641887 1559.75825240001,1234.6676493905616 1563.6371826044415,1233.995693703102 1563.7889348533135,1233.9099589140023 1584.082885431104,1218.8371035157834 1584.2375503910953,1218.7591793323882 1589.1586486311062,1210.0270037405498 1589.3499409333235,1209.6800665116243 1599.745770977759,1199.2673918796281 1599.8965765955581,1199.3962093490773 1598.3610681155478,1198.8524082969598 1598.353713519995,1198.7971865527434 1601.953169093329,1192.468417337186 1602.14125741335,1192.2490553564785 1601.5322823377865,1183.5563708880873 1601.5233257511063,1183.4873028581133 1606.5758600799963,1174.006372659882 1606.7000143911064,1173.8213893316642 1619.694710924443,1167.4671937325984 1619.8983094311043,1167.437972674954 1620.1245542666657,1172.5772850214344 1620.1272485244335,1172.8100666418977 1624.8465687022035,1174.656518985219 1624.9888546399961,1174.8286324984 1627.8252527199875,1182.677150528536 1627.944965146664,1182.8498226695592 1651.309859866662,1211.5361779382001 1651.4760300355629,1211.6817947172603 1652.958964080004,1212.6265552193581 1653.1414454311089,1212.5889429783638 1656.0512438310907,1208.6177770054128 1656.226589039994,1208.501935511631 1666.8014051822029,1206.6826741434124 1666.979444648874,1206.566829114403 1677.9975754222032,1190.5431708738251 1678.1220210044485,1190.3671343683745 1679.6878216799887,1185.1603918355322 1679.7184779644376,1184.9507744698858 1688.5777072622222,1091.5097204771664 1688.6558407377815,1091.001998619271 1686.9417830666425,1082.6873159571624 1686.9105442400105,1082.5350076478571 1685.0003882933306,1080.8474806708182 1684.9417699822297,1080.7849859840571 1687.4448810933172,1078.900427273482 1687.562117715548,1078.7362887560375 1687.9378574488874,1074.5702834302283 1687.7574149955544,1074.1581640179284 1690.9300855733236,1073.1874973616432 1691.0386568799804,1073.0097776039984 1689.9847651821983,1067.7734099764275 1689.9996200089008,1067.6347302211434 1692.4612978044388,1064.4958928128544 1692.5589464444274,1064.351390895572 1687.167663813314,1059.4343491540276 1687.0270526844324,1059.3171682231841 1684.9068902666695,1052.539010871791 1684.5787733600082,1052.2655585347457 1690.9768345866541,1036.5624079308836 1691.3206073155525,1035.8905765663148 1711.9418738044405,1027.999974493454 1712.2348197244355,1027.8593649667819 1716.5522585866638,1018.48068174933 1716.6616308888842,1018.0900185424471 1723.2856456799855,1020.1852951160763 1723.4900451822105,1020.1737540218528 1725.1028133244326,1014.5866469719113 1725.304737022212,1014.5139025001627 1733.2591326133188,1023.3593069457347 1733.4873435288973,1023.3823879680785 1767.50475095999,1017.3808442031805 1767.7221848444387,1017.3692056082291 1778.2017553333208,1017.643390937832 1780.751615457768,1017.3096547638343 1786.702284257779,1019.8650532147803 1788.1575475466452,1020.0312843740758 1796.5451360977677,1017.2339067845387 1799.7216660177874,1017.0465247091997 1808.842820862199,1019.9110238358626 1809.86510964443,1020.0379762844022 1810.4635261422154,1017.480645066862 1810.547557857768,1017.2936516771806 1817.1961122399734,1017.4186696219767 1817.469251724433,1017.2407929682158 1825.1986403822157,1007.457193458722 1825.6447949066715,1007.1783077137588 1835.1641901777548,1005.7735778671122 1837.7128123999937,1005.4497706435577 1835.599858942216,981.5712507598 1835.264969982214,981.0385778113632 1838.2012012355626,964.6499674371807 1838.126198924445,963.8105062879986 1834.4558188355368,952.1479463533396 1834.250399884455,951.4047289849041 1830.4230246666775,948.7434438323326 1830.1356128977568,948.57935508222 1827.8805191377542,943.4825847843822 1827.8556882755438,943.3304259112701 1833.4826092355434,934.0113303197504 1834.8952741244357,931.7795538199498 1836.847518746661,929.8196431665638 1837.2611237244346,929.4962229161538 1839.9968876355342,930.4917303930924 1840.4461733244316,930.3003999323191 1847.8240705688731,915.5351240741511 1847.9500453244327,914.9464228733341 1846.8796239911244,910.6582584639036 1846.7267066577697,910.1666650182815 1837.3876810222064,897.9909256974424 1836.640497804423,897.421786682251 1839.15074505777,888.8165401122751 1839.5556119022149,888.4919375083628 1834.769299368876,886.0418141952032 1834.490407279991,885.5140679020042 1835.5069434577672,879.5326342085973 1835.5069434577672,879.1729913958188 1832.5104919022197,869.9148841331262 1832.241066124443,869.3626986513045 1833.977770124453,865.1074026750211 1834.9578974133256,863.5275131693706 1840.5503027466548,859.2300131430748 1840.7119582133091,858.4132605095729 1841.7197562577567,847.8907888150206 1841.7372325244432,847.2294898218315 1836.307939013328,839.7008889933713 1835.67806523553,838.991845046352 1832.699818124449,829.701561394897 1832.6189903910927,828.8601058042914 1834.1124830133122,822.3333357226293 1834.3549662133228,822.0210377539115 1840.5014420177686,821.81225450895 1841.1206115822206,821.5342973615407 1840.3653455911044,811.5800535190428 1840.3296648800097,810.930049569688 1843.1549946577652,802.9650095864272 1843.1185857688906,802.1348746805234 1839.0742863911219,798.2662820299811 1838.696362124443,797.5801294274934 1838.5347066577888,788.250630826813 1838.4895596355564,787.8301137778108 1834.940421146668,781.5210469535741 1834.7598330577675,780.9077263313884 1829.8388076355404,780.0052579635303 1829.1819912800056,779.8124960503264 1827.8501541244405,777.036853670761 1827.6164090577877,776.4595124456318 1826.581668435545,767.5601926542658 1826.5365214133126,766.4657035062046 1828.1108417688883,762.8734250053167 1828.22807839109,762.4887692963457 1826.950854568895,760.033733968572 1826.9326501244286,759.5166159236469 1829.6407432800115,748.1837476743458 1829.7215710133387,747.5097106939429 1828.6416833688927,739.5804668110868 1828.4443471911145,739.0388259146202 1825.0474706755558,734.9044712265968 1825.133322835558,734.1969722604044 1827.4183447022297,725.583979955969 1827.4991724355277,724.8853404320616 1832.236697057764,723.2327395699758 1832.4165569688848,723.0641640419562 1832.811957502221,719.6448089557744 1833.1090540355435,719.4645300086195 1850.8831454133106,719.879658051017 1851.099414213335,719.6750178097936 1851.7380261244616,716.2311148226217 1851.6754028355426,715.6892724778809 1849.362710213325,712.2217605571423 1849.2462017689031,711.5473374505891 1855.2427457688973,704.475204449358 1855.512171546674,704.3065785421131 1858.040404791107,695.5442309409191 1858.5355656799875,694.3997423319161 1868.158435013327,686.1264380654393 1869.0038494133405,685.2830574224718 1878.0419919910855,667.6289367558857 1878.7526935022106,666.4117661139535 1879.5442227466629,665.8451105047498 1882.1583809688818,666.0801610432463 1887.1383887910997,659.6934954181561 1887.587674479997,659.295526489972 1885.4104229244476,652.6360000770728 1885.1315308355333,652.0331253617987 1886.9308581244331,647.2723576273202 1887.0932417688673,646.5845528925493 1885.4104229244476,640.0027092259334 1885.3747422133238,639.4846011732952 1880.9976655911087,631.4753352784392 1880.4668239911043,630.8371260589993 1878.5320556355364,622.6608372387927 1878.2174828355564,622.0576741353798 1874.6814515466467,620.1524994682477 1874.1411436355338,619.6098264115353 1874.566181004433,614.1567749160822 1874.5729530577737,613.0856694390895 1871.2262479911224,609.0326193859 1870.9022088799757,608.5864945325957 1868.8873409688895,601.1854346565742 1868.852898160003,600.9810901268283 1863.4886309244393,600.6914137719068 1862.9126423022317,600.5469168082273 1859.8084204355619,603.0199168453473 1859.3900823022195,603.5700557679302 1855.1073047022,599.1858952654657 1854.6128719910994,598.896894057827 1851.1299248622163,600.8760374478516 1850.4287624800127,600.9354957236865 1844.041187013303,598.2847147981593 1843.4018469244256,598.0913937887599 1841.4765448799953,600.3233363898835 1841.2245953688762,600.4082775162024 1837.5764247022234,597.6002776318564 1837.0368449688904,597.1052520813464 1836.3254152799855,596.0077850340676 1835.655491724443,594.1135350992918 1837.47739252443,592.141110873119 1837.7475464799863,591.2115111834937 1837.4278764355477,583.19704738781 1837.2662209688933,582.4968194779431 1832.2767468355378,578.981889096649 1830.4956239911044,576.7374652127255 1828.4661925244218,569.5534004366564 1828.2863326133302,568.9985668477093 1825.6321246133375,567.0790782002659 1824.507818124439,566.1500831662925 1823.027432702227,559.4747848414481 1822.973547546666,558.460678980402 1820.1037989244287,555.9077559191574 1819.7702935022317,554.8691661405392 1821.4887930577752,543.9253097383989 1821.4982593688837,543.4425634191502 1816.5044161688784,530.5545956579226 1816.1090156355422,529.9710705678517 1817.0352577688827,525.0925095929197 1816.9274874577895,524.813918687978 1813.2836858577575,522.196081070615 1812.788524968877,521.4599777889453 1810.28723430221,510.44280978537427 1810.2515535910861,510.0321581342796 1801.6023307644427,496.6730687091549 1801.8311970399882,495.760435174896 1791.8789000799952,496.74416593998467 1791.60000799111,496.21313515067595 1789.638297057776,486.947241917027 1789.2880435466723,485.1973850387076 1790.835421324453,482.18857301379467 1791.23082185776,481.59579257303994 1787.8979521688962,475.89659663389466 1787.7537729688993,475.4495213408736 1789.5348958133327,470.61464278575295 1789.49047696888,469.2302450303032 1785.5495788355547,463.36749410507764 1785.2706867466695,462.8019326213325 1785.8728897688634,458.799802774789 1785.719972435567,458.3036773706335 1783.637383991103,454.32866054478654 1783.3133448799854,453.88143085300544 1778.2211976799954,452.7814474814586 1777.235973146664,451.53268842670514 1774.1499557244315,442.0820218749068 1773.8615973244378,441.2108755930167 1771.0318984800033,438.2361620062802 1770.897185591115,437.8367819664927 1773.8033431022268,431.8075949121485 1774.0014074577557,431.4806179676016 1772.0222202577643,429.8594135662206 1771.8416321688928,429.3513100422351 1770.8979137688948,420.66004340227664 1770.8316495911058,419.5438079060914 1774.1448584800019,399.38546705817134 1774.3553018577586,398.9368640173125 1771.2219528799833,396.43030861668376 1771.0144222133458,395.74463699630724 1772.260334391096,378.7463870550928 1772.2515962577672,378.2858778121372 1763.4897243288942,373.575064839104 1763.388944524435,373.3288193663393 1764.9588958133318,367.6775467560874 1765.237787902217,366.8053609106064 1768.0179706577692,365.06193263014575 1768.1803543022033,364.8071273362657 1766.0926686133098,353.7750194208129 1766.0387834577778,353.5201679834063 1755.8268183022228,350.7647653237291 1755.2777722577812,350.4863756396153 1752.7094892355453,352.4733057619669 1752.3672456799904,352.7026759552318 1737.0845417511082,353.80471934748493 1735.897903244455,353.2976622224596 1727.7318991911088,346.6347659477833 1726.8584499466597,345.72817038367066 1721.7108156000104,337.5950810389113 1720.8246960622273,336.84807142495265 1720.614689591086,333.18770270130335 1720.469563759987,332.9209027116958 1716.5503653244596,330.26548927003023 1716.0712243466478,330.1027151472881 1711.8094182666755,337.52017458572664 1711.5123945511077,337.8410755508012 1703.7773989244379,338.8494566135996 1702.782708079998,338.9728927076576 1680.9148012355508,329.4114106702982 1680.707998746664,329.302566287668 1673.5815412888842,331.26683493899327 1673.0088294666857,331.07150908032054 1669.3760961688895,329.10252746690094 1668.7374842577628,328.4357267584346 1664.9495034577922,318.48778157699417 1664.787119813329,318.1366716766861 1658.3631354577738,313.36805016164 1657.670638391115,312.67655992165237 1656.7436680799947,308.3204852923882 1656.5186611466706,308.23514595255983 1639.239730657755,313.56127372143237 1638.9695767021985,313.7191869469316 1628.1415731466623,312.34699591407116 1627.1337751022147,311.9585789517514 1622.463971013327,306.5871909376365 1621.9870145688838,306.2477852623924 1609.2366216799783,300.58591185187834 1608.3240692888867,300.02112851343554 1603.2997882577838,291.8223146831806 1602.867978835544,291.2885552368025 1593.7308040800053,283.64469636890135 1593.3388988000006,283.20075459304644 1571.7281843466408,279.35528555801284 1571.3051130577878,279.1246636989017 1564.457911777783,267.30105701852153 1564.2300649510944,267.02887041233043 1558.3104165244513,267.5565560201867 1557.454297911121,267.24873995947564 1547.2836932533319,260.20035631913197 1546.6843301244444,259.64502314863057 1544.2548377866697,254.13893623858894 1544.3111259288635,253.6541384910597 1534.190911173333,243.39857314649998 1533.7596114755506,243.06029556383874 1520.236986053329,238.75541760409396 1519.8033561866687,238.62363192668272 1516.4815547999824,231.51887066075142 1516.3391232266513,230.92419247868384 1507.0106561688663,224.47458888106485 1506.517461360003,223.7808330957996 1510.5542605066512,220.1267742369455 1510.5442844711142,219.77746639506222 1503.3740635288777,210.0929205160428 1502.8947040977728,208.80116691596777 1502.4769485066718,200.85925935400155 1502.5579946933212,200.44921596030326 1499.5289935911205,192.0047468259363 1499.4684092000025,191.74304064861644 1501.6185725422183,188.26685301202087 1501.7752035822268,187.9936322023932 1500.6944421244334,184.87892832136276 1499.7944143911081,183.44590175458143 1489.4659407911022,177.97198635037785 1488.7457729688686,177.64367370137916 1476.4104414133253,178.0201518325557 1476.1228111911114,177.91104221736168 1475.1078041866785,169.58315211772424 1475.083701502219,169.51492478838918 1461.5424347288863,143.58940540595358 1461.3582785688704,143.26248452999425 1462.8153623022154,138.03682776069763 1462.5459365244387,137.52633628721378 1455.1328682933308,132.10326087254361 1454.7041172177778,131.72424167471036 1454.609162835557,128.48374452220014 1455.037622640004,127.25089263066911 1451.020338657785,122.05320619326812 1450.7771272799946,121.83380608032894 1444.90655803556,123.61161336716759 1444.1404421955303,124.30481650506408 1443.5818570222254,116.5297936175848 1443.3682096622142,116.14034780851944 1438.9748218577952,115.13926997408998 1438.5495660355446,114.81062481951813 1427.5619459110967,99.89233569906355 1427.3749498577745,99.71567032143503 1425.6542657688624,95.85744853915094 1425.6142159911178,95.36531115153775 1427.3749498577745,90.85026046704297 1427.2941221244473,90.38466100168444 1418.7236881333301,86.15286107926659 1417.8854098755473,85.74353584092023 1417.444789502224,81.96684650655516 1417.040650835559,80.63579983943055 1411.0971909955624,72.78509507358103 1410.1536910488867,71.5249435266669 1402.7784152444583,72.36189654400368 1402.4028211466575,72.549470934704 1394.6309797244394,69.12577968753612 1394.2341956533273,69.26403076359566 1390.0890436533155,63.1949711035777 1390.0473918844436,62.781161128259555 1380.1224744088904,61.38490136758628 1379.7370499111203,61.22880745871953 1375.9363260000027,58.389011455838045 1375.6421421777704,57.99358650021168 1369.686594586652,47.12348417100293 1369.511540648884,46.91672286470566 1363.663690551104,48.34611005392071 1363.5136859288978,48.26080677516438 1359.663081840008,42.37242959510331 1359.5863319022246,41.999363291419286 1349.0575365955374,33.28353249938664 1348.1194979822103,32.488516917779634 1346.8808675822002,30.1698191873802 1346.7808887733045,28.897863350568514 1351.6339752088898,17.171365643334866 1351.8843227288817,13.43671756360709 1349.0777071199918,8.0837956278192 1348.6230329155587,8.052550000000338 1340.1680151022229,12.086949641809042 1340.0892990844222,12.00819995126949 1333.5409419644348,20.068731274506717 1333.3674900177648,20.123326590757642 1326.800564364421,14.994507327144674 1326.6768469599847,14.926306798959558 1324.0102599377642,15.383110926275549 1323.8800617511224,15.463038982685248 1318.5321056977918,20.14569685987226 1317.9656562044474,20.671248037433543 1318.8664849333363,27.211143997606996 1318.8408530755332,27.596123654897383 1316.372621680006,31.33405612012575 1316.154896524422,31.665804462136293 1310.3690871733488,29.800719192520774 1310.0786898755541,29.78938800466858 1306.8100454666492,31.525400346588867 1306.5889706933303,31.732804208622838 1311.5346813422293,34.77707798771007 1312.4011400799864,34.8506754786431 1302.0099703733358,45.2500971220943 1301.7616617510866,45.37786120009696 1297.3557492889013,45.72864464230224 1296.411084257772,46.13242239377723 1294.4088866399907,42.50167728614906 1294.3230344799886,42.44877639643528 1285.000465662226,44.707811036387284 1284.9203661066495,44.768590657673485 1281.9046906577787,40.757795849574904 1281.825028008876,40.71070583843539 1276.695234017774,41.20298186370201 1276.4413184266668,41.23145238066354 1267.4521093955627,47.7009149030273 1266.7977688444444,48.432004229813174 1266.8110944977743,55.495900079265994 1266.79019579554,55.578435647570586 1261.594865804429,58.99844353195658 1261.1333467288714,59.21993731827388 1256.0371945510924,67.6886986006648 1255.8526743022157,68.39355588344188 1253.074311991113,67.16768200853403 1252.4646815555534,67.05296126708708 1250.4960529333111,62.968370600247 1250.3480872088767,62.83355226316053 1240.8804653777697,59.57152876366308 1240.5440472444243,59.39760450527683 1232.44438018668,72.68308657180023 1231.3514581600102,73.26195305356669 1227.141134248879,71.98408750483213 1226.078577235552,71.23417355675338 1221.3910784266554,65.79663216093468 1221.2346658399983,65.69047620672063 1214.5786112266433,71.35912702284259 1214.1411220177615,71.7341828405406 1211.8285750311115,71.04659518553672 1211.1411023910987,71.109121372363 1208.672361271114,74.76536585296708 1208.2661108888642,75.10909077813994 1206.0161143733203,73.67165610219672 1205.8286085955406,73.60913250034355 1197.7660786044216,76.60911121778918 1196.1410770755392,78.10909535966493 1189.1411040977764,77.48409817351057 1188.6231512444283,77.17937530059862 1183.0233913155462,81.67691311015369 1182.3721819288985,81.96733875225618 1179.9440731288996,77.75032332819683 1179.0360354399963,76.86362371926225 1174.3507211644392,76.52374837686511 1174.2677088977725,76.52522524362575 1171.5759997422065,72.94234144100483 1171.4561416799916,72.89832825250778 1164.972082657776,74.42016210486327 1164.8842644177857,74.44664814222051 1158.235127493339,82.10418290526286 1157.8415474044523,82.33652192648879 1153.6537970044374,81.14104961699195 1153.4917046311093,81.1632009646928 1147.5732212888615,72.77967956853536 1147.4634120799965,72.64675338727102 1141.1302314933346,70.0068788436547 1140.8610241688802,69.95350909021363 1139.4004451822038,65.88417622011184 1139.319180542203,65.74837947701599 1132.734997075553,60.399484267698426 1132.4218806311037,60.11585141662363 1119.0842123644325,54.79030512486497 1118.921610266647,54.7778950914435 1095.5171026755488,36.67866327678348 1095.397244613334,36.59472322733927 1085.9733134488706,40.30837047624664 1085.8541107466808,40.465009676678164 1086.6225567555593,43.92771851190628 1087.0585896088814,44.66062551941286 1082.4017470844337,70.2749085340547 1082.4069171466472,70.63382230347634 1078.1082652710975,74.16209495519433 1077.493901679998,74.57070898439997 1061.4117313688985,79.25845149231463 1061.1894186933132,79.31968950277223 1057.0144114044451,80.2805866966446 1056.42458740445,79.80102603472915 1049.7576101244267,67.55743552497734 1049.5430161333425,67.3492653059875 1044.686652897777,70.87565713084041 1044.5906790666413,70.92351195634546 1042.8000899110993,69.80068622099498 1042.7242137866633,69.82934053769714 1042.5390381777615,71.99984190222312 1042.4942552444481,72.12252913496195 1039.3898877422107,71.2342720229426 1039.2914381066585,71.372518395925 1037.3924232799982,64.17492749554367 1037.2036067822264,63.8455197047806 1030.794986977773,58.04854234864615 1030.5931360977775,57.5921512617133 1021.1776517955368,55.19392533275095 1021.0673328622142,55.178856104299484 1014.041509573326,59.16281583064847 1013.89405357332,59.16705070136959 1014.8243735022043,68.89939780801797 1015.0096947466445,69.1566991145155 1008.0790442933285,75.16363761193497 1007.8916841511164,75.12061060082488 1006.98634072001,77.16972653897392 1006.1105613066538,77.33582286901219 1007.4257960088798,79.72246082616766 1006.5621043466745,81.16211801011377 1001.3553419644377,85.05019690626796 1000.1299644000028,86.58895979083172 992.1426551733239,86.81330824908946 991.5925168622125,86.71801685743412 985.4600948888765,81.90580800947646 985.3998745866484,81.84280046557978 981.2168573422314,95.53893766779947 981.3498226044248,95.67220848485158 979.4522641333242,95.55183168107033 979.1845131644295,95.8428813285791 978.8534107288942,99.9893784165688 978.4202905866623,100.45096897969051 973.4380254133212,102.88710635266762 972.8597066222355,104.18618302929826 974.1958400266376,104.17063363605848 974.9835099288684,104.14671905525756 975.2859221600011,107.26213064429612 975.1745109600088,107.52006006670854 971.2570601510888,108.49665911839838 970.8384307466695,108.57262929887656 973.8354648444292,111.58764531315683 974.196058479989,111.75729034649703 972.6727105688842,111.6294662026412 972.170122266667,112.43507863404375 972.8956057866526,114.07451239394868 972.3269717599978,114.93214501218608 969.4173189955545,111.80786888034345 968.9706547466703,111.73731476630928 969.78002434667,115.11319489817106 969.4653059111224,115.58805475175177 968.0394610044386,114.48935773850098 966.4569850577755,113.79309295754501 963.5515557244435,119.48627469424537 963.6597629422104,120.18975632914953 957.7909413244415,122.82739707415021 957.6129018577703,122.88032780457434 953.7391417155523,119.29844866797066 952.9244564177716,118.74618372612895 946.225657768875,119.46453058935731 940.6333252533295,118.87664975182997 937.4656062844224,116.05995911954233 936.0615338933203,115.40336559706338 936.9917810044499,117.388474614585 936.1456384266567,119.2437438619163 934.4328914755679,118.901444169147 933.9012488799708,119.21865441134287 935.0708480266694,119.81833869772527 935.7765979288743,119.93827485939983 934.8666669777667,121.12817857338086 934.7280219288732,121.93376604862715 931.8052619644513,122.58920822852087 931.4925824266465,122.59904669543175 929.461184880005,126.13587446064776 929.4003820355647,126.28727963876008 927.5484074933411,125.09206392654596 926.9871280622101,125.33427675741405 924.9517255377796,138.11945026333706 925.0981620888706,138.27899007025553 918.4608944622232,142.613456906176 917.8325498577688,142.67581263554894 915.6700803111089,147.67714790741593 915.6303946222251,147.94720244718337 904.8545285955552,137.53381172251102 904.7129708355424,137.4315162139319 891.8446131466553,137.49092631828535 891.5282927199805,137.43643427108327 885.5807550844402,130.8530691264532 885.4271095733347,130.75696002376935 883.5907180355352,132.51680526190466 883.3812941066644,132.5582185705789 881.2518838311153,131.73958742299146 879.3943023199754,130.12354124183912 864.2326215377616,128.69466087269393 863.821346728866,128.66377111618203 855.3975677422204,124.61747357503191 852.6875813244333,122.67381899298198 848.3522292888738,124.74438552957872 847.307585448878,125.02044272961939 843.5905291644231,123.06223995195614 843.5471297688855,123.05653368394269 844.0191346044376,125.45321845531726 844.0116343733462,125.48952071471285 833.8834824799924,117.14111430862249 833.8435783377863,117.06515462132666 821.1285748888986,128.64301397815143 820.8039532355688,128.96706063950114 815.6215848088686,128.42314528891438 813.1591788355508,126.73008109656075 810.4333909599882,129.27487388809823 809.6381480088821,129.28185844711697 806.6743188177716,126.26022545925662 806.6195598488921,126.17138928868371 803.3181474399826,126.28708288113558 803.2261785866649,126.12820089402521 802.777766711115,128.55988698142028 802.7859223022315,128.59136704062257 798.9791545155531,129.07999453668162 798.7809445244275,129.2226372315272 794.21760002667,138.6144944543703 793.8530014133212,138.92806302180543 787.6419362399974,138.37262853289576 786.0196289688829,138.0899422392904 783.429427795556,120.47488549483387 783.4077280977872,120.36183754554804 785.2138274399986,119.30356494233274 785.1956958133451,119.22327874223265 778.8544324533214,114.22102711264597 778.623527280004,113.93675478739169 778.9125410399938,109.76973779765103 778.6361975733089,109.49154621049092 774.1640209333054,109.12675612958992 773.3638991910921,110.21344440084795 768.0235890044496,105.77869581283448 767.7803048088754,105.49330226402526 762.4248485244534,105.99677496363438 760.8109152977777,106.17627636082034 750.6180284000075,100.5598211790275 749.2639090044322,100.14409529514523 739.6387095022146,103.53025112348405 738.9634702488911,103.62158009263658 735.0339316888785,103.38892715186375 734.2951953333468,103.39591462600947 733.2189485777708,101.1596858842895 732.8613404711141,101.11382276629593 727.1721603111146,105.61543118133704 726.8262758666606,105.82317772354145 727.2000495200118,116.60968972690898 727.3366556711044,116.63556738559419 724.6598013422117,119.31615884663915 721.1266099466666,120.05634140407346 723.0274452177764,129.8052062677816 723.1259676711124,130.0680589967451 729.2719337511007,138.10410609259998 729.4160401333138,138.26767869178002 729.8282615733406,144.14203939712752 729.9798681866741,144.52108111578127 722.5156818755568,147.62384494244907 722.4236402044262,147.70714309819596 710.2741396177807,134.16790590508754 710.2512748355584,133.8524443155693 708.1634435110973,135.74548489051085 707.7732858577874,135.67741709024267 698.74985247109,130.60576249543374 698.6490726666598,130.52745836065878 691.0237406133165,134.0374720279142 691.0214832622223,134.0675721777443 687.2068511555335,133.1378052543223 686.8599472622227,133.1613151905549 684.7824560622175,134.85626959347428 684.7133519911222,135.00312870622292 687.271294888873,138.0258114186945 687.270275439987,138.10164709052333 680.1201522044503,143.29425218763208 679.7499466222143,143.51465830577217 679.4936280444163,148.2581669258434 679.4661757422218,148.3981102674079 675.7013509955505,151.97565516077884 675.6297711200095,152.0364280779686 676.820341786668,154.92867812366603 676.7994430844337,155.02012814087357 673.5970628533469,157.99758844250027 673.4897294488983,158.05511062556616 667.8226858933122,158.10044003485382 667.4006340533451,158.44743999132334 665.8408044355529,163.83409764501994 665.7863367377795,164.04420567857596 663.7314918666743,163.10869345718675 663.1720328799929,163.80902621310815 658.2387740711056,173.98355822693702 658.2429975022169,174.1515582592765 652.9753594577851,175.26335509293858 652.8060581244426,175.24782349705492 650.412829040004,171.49319198514422 650.3893817155695,171.50921605589247 650.939447208897,173.63310614082002 650.9190582310912,173.85124190728675 647.5259682399992,179.62984042315657 647.508710426664,179.77806807604065 650.5517653599745,188.29112832799 650.524021786674,188.3752564751121 644.5074528977639,202.22840933033876 644.5471385866767,202.29964675162773 638.2031809688851,205.40650145675318 638.1455821066702,205.42290979634708 639.6801439555493,207.15696193229087 639.7625008622199,207.22377242396033 637.488474479971,208.17640362124803 637.4768236355521,208.18593378944934 640.2914491999909,217.00817944473965 640.1740669422215,217.41988182176283 632.7450516177705,228.6954982249954 632.4027352444318,229.00291585230298 632.5421084711052,233.068346450229 632.612741715544,233.14220019827917 626.7930720977674,236.39059802178963 626.623115404429,236.53996701232245 629.1496010222254,242.30763361501886 629.706292933326,243.68775237880618 628.774225377776,245.40679451151664 628.6997327910867,245.58108213019295 632.4310613600028,249.67193867007882 632.5548515822229,249.9133717032455 633.3816246311253,255.36014249351138 633.6384529333227,256.2337924229287 636.9420498755426,259.69616858867084 637.0179260000077,259.8837669540444 635.665627048882,262.2275699073871 635.7310902311074,262.41201940744213 639.9787696622152,268.8319740701627 640.3962339822101,269.21398583998234 627.4702046133243,272.69536734675785 627.4373637955359,272.6920303390434 622.9708669422325,264.76868420912797 621.6397579644472,265.1311872466831 618.3515255733291,271.7941724706834 618.5900037955507,272.08243454722833 602.4093838488989,282.08077865451196 601.8488325955477,282.307366142697 589.1458440799979,284.6421799888849 585.4196127555406,284.27233278690983 576.6281039911046,281.73682335511694 576.4246511199817,281.68235950284725 576.5392663021994,278.8360416916039 576.4320057155346,278.8105259108197 568.4369049866582,283.33342717967025 568.3206149955295,283.2229321309205 566.9635100711093,275.20641491100105 566.9228777510943,275.1035606242149 561.3086270844287,266.5226767201166 561.2217554755407,266.3306812930605 564.3083554399855,253.7235498219452 564.3939163288815,253.4908693833204 562.6753439555541,245.12204185830342 562.6318717422328,244.86448687007214 559.9714742311116,242.82050523114594 559.7877549777695,242.73812005086074 554.2749394755301,230.44677620026778 554.2296468177592,230.3404103790599 552.3121362755555,230.12227639438788 552.0708909777823,230.08691917034594 552.0628810222333,226.96823469177616 552.2066961333112,226.86903295206866 548.7020493066593,225.80756442873826 548.6978986933318,225.80461778966855 549.1361888977772,223.5462725429461 549.1318926488821,223.44274344121368 546.640942106671,222.8856085403895 546.5435847377594,222.78256946878537 545.8815255022273,219.119807524512 545.86696194666,219.01027889630495 542.1465560444412,215.9973309748093 542.0280087022184,215.90341652141797 542.1522358310831,213.17119041342085 542.1188852888954,213.02549844136956 537.9987097866615,211.55460931570997 537.9444605422104,211.54134639807307 529.1308879911157,193.1552385259638 528.9539407911143,193.05824308048614 531.075850835543,191.91865809617593 531.10810911109,191.84170882238686 528.7815811111141,187.91156744395994 528.7357787288856,187.6930879238862 523.6938757955577,181.47391272662935 523.386876044453,181.30367179090536 497.7865483644491,176.7043360694879 497.72144927108457,176.7068918420482 493.24315593776555,172.45413738309435 493.1661875466598,172.14535849339882 482.45054182221793,173.09980569361505 482.0016930399943,173.0785718851621 477.49390850665077,176.36343438657786 477.413954586671,176.45966950909497 473.24200564443163,184.09715647213307 472.9216074222131,184.56156198179087 456.5381171466506,192.3634485825096 455.93118096888793,192.78592780355393 451.1051827466654,197.23018797019176 450.80233360888815,197.51643754548422 442.8550741599829,210.8220990483169 442.3676319555452,212.02902693046053 438.0720384266824,212.35381768429215 437.93186420441634,212.18434903628804 427.2473844888809,221.76474250434694 426.99820205334254,221.97642281035223 425.9380480266482,225.54334857126378 425.6882830488976,225.7804553441165 413.1904950311073,227.50136766678042 413.18226662220695,227.3829158938388 407.52782054220006,232.40365877014847 407.26960870222683,232.60322295717924 384.27870608887315,241.101195211937 384.1504011644356,241.18652847113117 366.62447277332103,239.92203273293126 366.258636257764,239.6899880498895 354.3372009511004,249.94577216098696 353.96371856888436,250.25946662898787 348.2986410933154,249.1489123701831 348.188249342209,249.02392345557018 344.227253502213,261.8167530629944 344.1677613777647,262.1531617052169 327.57732297777693,279.1818776270593 327.4600135377623,279.5937574752679 317.3701637955455,280.74969543629413 316.98080713777017,280.80514144969493 305.11536870222335,277.75848153349216 304.95181997330656,277.4263772643826 296.1178584444351,277.7385592528808 295.8755936977759,277.6713337762412 291.45460795556573,279.34046690254036 291.1953038488937,279.5788407401633 285.9243890044527,290.5276457602522 285.664939262213,290.8518306383412 263.1189532711069,294.9959302979041 262.68961965331255,295.10287241977494 254.51196475554752,293.4654604831376 254.13360358222417,293.6299002262749 250.20399220442778,297.23735950151604 249.62203252444306,297.79588920063543 250.25853272001405,304.23053948561574 250.5963343911062,304.7977370588269 245.27335483555362,311.34289386883756 245.23621776889922,311.64087953922717 230.48544770666194,322.78038142092555 230.3724345155424,322.7946993992009 231.02611970666476,327.54994942618214 231.235762088887,327.95189954074885 234.97743078222993,330.9244259511979 235.3673699822175,330.73831626747415 234.298623457762,334.49727108801744 234.25995721776417,335.1232185811168 223.08366623111215,349.6206149846912 223.0482767910944,349.9540989437155 225.4439816799786,360.16997905070457 225.775084115543,360.17223326979 223.3391838133466,378.77930843664944 223.1264830844375,379.6360420885685 223.84075266664877,392.11946382626047 223.49013506668416,392.41226354684477 227.31831127999612,395.02604504959163 227.5785620177703,395.0811935525344 236.75753417777742,411.61473004932486 236.85678480889328,411.6266773511088 236.10341208001046,420.3652220899603 236.06642064886546,420.57045155330707 227.90726146664383,427.1451725174047 227.8464586222035,427.2711752824034 241.07650221332005,446.8364066313734 241.0999495377837,446.87203256387875 239.09090704890696,448.0872170352159 239.204721235561,448.51383748246735 243.35336848887528,454.69387944039045 243.71476311999868,454.93266020026203 228.6403908533175,467.04136641433433 228.52519312888762,467.11905276292964 224.49909819555614,477.73524574239127 224.17811743109633,478.08086073312006 217.9342114399842,479.45801917071367 217.74495803553873,479.6656957073792 214.6035991022145,486.01050238134485 214.44988077332528,486.29229842863424 213.93025311109523,495.73989783318393 208.3527026044394,507.9946016306276 197.94573143998423,507.7833036412703 192.30286338664155,507.6203074345758 176.9642354044263,514.482891581596 175.95592763555032,514.3976382078909 173.73986420443543,509.0322100830599 172.31321830221714,503.83519501423143 168.21132006220432,500.44287071744475 166.541681235547,499.0620673988087 151.3051437777831,497.9134935238617 150.42856336889236,497.9663997743992 144.32665204443765,505.14822768173326 141.67499266667437,508.72421464839863 130.65496863111184,514.3674279821935 129.18099117332167,514.337119974145 111.06975348442938,495.36484566771105 110.80862893330777,495.1609376137858 99.00493997330341,497.9687468159027 98.8032347288754,497.9757879398603 93.65669264889584,495.5818578730177 93.5991666044356,495.5501715952778 93.0180079199854,500.5465275260867 92.90812589330744,500.68431258390046 84.2007216622078,504.02186480456294 84.16875465776684,504.01550884918106 86.73237734221766,516.6132105036886 87.27101044444862,517.5143947069955 86.88354704887752,527.2206099044779 88.53505424888135,529.120990857431 85.87036048889422,547.0539823712679 85.84436454220122,547.3875861699998 88.38220973331045,550.6807289260396 88.75212404444028,551.8566697507122 92.08011494222592,568.0696003032281 92.39337702221383,569.511201998459 95.75136884442327,572.109674060579 95.93246665778133,572.330913315549 96.53991255997244,581.0970238081572 96.5271694488838,581.3193055987431 91.20819487112021,584.2021586155824 90.79284226668096,584.2042094478602 75.1340345155404,578.6099727200999 74.38219096000103,578.9934137809978 77.38810882665712,586.5731688745218 76.46186669331655,589.4518739873383 65.80047021332575,593.9674606629196 65.66328151999187,594.190282627831 68.29913944000873,600.5537511315852 68.31421272000443,600.7757686019977 63.08990125332639,607.92257286737 62.95300383109861,608.2008917165731 62.614765253332735,612.6146817845074 62.6135273510954,613.4320017288046 57.30809687998408,618.2844545970656 57.212559955551114,618.5208548055307 56.21335440889379,632.7134816633261 56.27852632001304,634.5018613058564 53.98381968888134,636.1315286809186 53.801483973315044,636.4275789089806 52.85310523556109,641.1302380513589 52.65227380442229,641.3895785206769 55.09174217776308,653.4038277492582 55.22310544888751,653.8823129862358 61.94149207999726,662.9935164324925 62.09069570666907,663.3797576505531 62.60631839111011,676.648234899425 62.62728991112817,677.1272254197465 64.14794356443599,679.6558095866421 64.22607703999529,680.503068722719 59.45309015998646,695.826742889556 59.25633652444958,696.8042166197483 54.53869115556154,705.4432838394932 54.57167760888842,706.0901888183362 61.57645656000386,714.7225205633804 61.72828162665974,715.2155464090683 60.74458626667183,730.9541829137233 60.9670445777665,731.4519527994053 64.4087768444515,733.3587188837191 66.02489460443758,733.9379176985894 73.37351910220605,743.1939493359314 73.8151589244444,743.5443371754154 71.8257044177808,746.4310416686421 71.87157961776393,746.7835543800393 76.11394335111981,751.2367913741109 76.42465680887835,751.7465753140641 76.6089586044327,757.67326484761 76.78896415109193,758.3907251735582 81.65843458666495,763.1962418399999 82.29493478223594,764.4125111876419 80.73372162666783,768.8698543499122 80.7511250755415,769.398677296289 83.29341215111344,776.5309745307095 83.37154562667274,777.18727306855 82.06293734221981,781.960687069768 82.04342217776139,782.405970448257 83.980957608881,783.0817749190537 84.36936763555423,783.4071163994449 73.24703462221805,787.0239202180601 72.96435600886616,787.10004277595 56.27918168000906,801.3161154163754 55.848828613328806,801.6172269805757 49.22044475554867,800.699386939501 48.63957734223368,800.7176835317878 33.558942746669345,805.7342525977947 33.594040915551886,805.945132813802 21.48859508444002,805.609203312466 21.02139622221148,805.5873074976334 10.953027724441199,809.0161965399966 10.884724648880365,809.011331067617 13.046393200005696,817.5705745932719 13.148920631101646,818.0050979717998 14.333447422228346,817.2967824591251 15.028711564438709,817.7203132841023 14.732561662218359,819.2575709788289 14.99040941333078,819.9294770062625 19.482319671114965,823.8764151748692 19.787062071096443,824.2826821166454 22.193543991110346,831.7966882860419 22.29170235555648,832.5519207478137 14.62945168888109,834.7006456489398 13.923337697786337,834.7882856097785 9.58856820443907,839.983823504539 9.029254853325256,840.8916563486637 8.052550000000338,845.5711547899773" stroke="#009edd" stroke-width="5.751247118322107px" fill="none" stroke-linejoin="round" vector-effect="non-scaling-stroke"></polygon>
</svg>