<svg viewBox="0 0 308.3173080710251 277.7521580216264" width="1000" xmlns="http://www.w3.org/2000/svg"><polygon points="8.052550000000338,150.01575541884085 44.09589364447311,196.34987095979886 47.838727422269585,201.1354823882939 52.727713022242824,197.37445104387734 55.63867650656175,195.1938379818821 94.63347032000456,226.92103751123796 95.50174950224027,227.50870751144976 103.7019050933668,215.7877598488485 103.82074370663759,215.6483580030399 177.56709378664527,260.5055600215928 186.72524006220192,269.6996080216268 218.97448621338845,223.87026173561026 219.16031718216982,223.39321467219997 230.07278936004877,229.64873359268677 232.24479803545546,230.90282529764954 252.69872927104734,209.7633074117839 259.428257022264,203.65902871787694 273.6926771466169,219.91976776519004 274.45755508446746,220.92034201176284 300.0331975377412,147.79217896247428 300.2647580710254,146.44686674615514 291.50419686220266,134.36657988452498 288.14787984881696,129.03099873776227 238.0652686487665,104.82580452782713 237.35864493330155,104.27987210764695 209.02932539545145,70.37895149141696 204.6235585688628,66.67459846274141 187.52769197335147,68.85337666350097 185.67986804442626,70.04461015653942 153.53751839113102,36.975094980072754 153.34615327112988,36.950292430505215 144.917349857722,16.346386697237904 144.1909197065761,14.480699168030696 123.28377062219806,8.79229276112892 122.1827658221373,8.052550000000338 51.489519528906385,88.30156561171316 51.02668973335676,88.84665180356387 26.06096898669057,140.51172454309562 21.77549712893233,147.13568178696005 8.052550000000338,150.01575541884085" stroke="#009edd" stroke-width="5.177286819516316px" fill="none" stroke-linejoin="round" vector-effect="non-scaling-stroke"></polygon></svg>