<svg width="349.77241144888103" height="500.4923402951681" xmlns="http://www.w3.org/2000/svg"><polygon points="5,79.78602848987794 10.485800106660463,89.09258257871261 10.583375928923488,90.1048517881427 9.68276565335691,110.32204263331369 7.0755979378009215,112.7321595173562 10.750274275545962,128.49565909558441 11.5675810133107,131.13600849360228 10.617163377813995,160.44314155826578 10.488130275625736,162.1154103942681 34.76353848888539,211.84714647883084 36.18785422225483,215.3042031916557 53.53100999107119,286.63645843206905 55.02726968890056,289.1132227976341 63.160432924400084,295.4717174854595 66.43199004442431,296.16341754817404 84.9792605866678,270.5418623012956 85.32004778669216,270.1803118950338 115.8904072532896,279.5785830531968 116.56382606225088,279.91570836212486 119.9582995910896,287.09054938179906 120.20529749325942,287.33877922262764 107.24489813332912,292.1241709564347 106.73196970659774,295.257575537893 159.31689102225937,338.5771514151129 161.10908216889948,338.836832633242 154.77277041773777,363.30393763497705 154.728497208911,363.441129383049 183.52530688000843,364.9437876447337 185.30934243556112,365.09617060259916 182.91567644441966,384.3015455456916 182.79916799999774,386.93692032201216 167.85899889771827,396.41203478275565 167.53510542225558,396.774754360551 149.99097258667462,390.17021646146895 147.16593408002518,388.07898277096683 134.17058218666352,393.2451171053108 133.47269660444,393.5908105271519 131.94497962656897,398.4166512094089 132.24994047998916,400.23436879197834 140.39621091552544,414.92330266867066 139.9808583110571,416.31375840795226 122.2529334044084,420.85603541409364 122.00273151998408,420.7128969266778 125.52303416887298,443.72015291417483 126.044991999981,444.84580749081215 117.10180380451493,449.2517268032534 115.32971036445815,450.98940324399155 112.46651534223929,462.2848790111602 110.94520632887725,465.9564944424783 101.78764259547461,473.942812821595 102.79514936893247,475.2528242400149 108.08113749336917,473.76519913971424 110.58839921781328,473.5443321809289 121.05697422218509,483.72698398528155 121.71990727109369,483.85857769299764 166.36040903104004,480.0427876843605 169.241662862245,480.037726299779 168.79281408002134,486.91281747235917 168.7060152888298,487.22201197687536 179.80373589333612,495.0069417504128 181.00668558222242,495.4923402951681 181.7473880178295,484.1719176314655 181.20941027556546,478.30350490729325 222.3843683556188,490.5835533734644 226.46624170662835,491.8078849527519 234.521926826681,479.68296895944513 235.16505344002508,478.41669675300363 238.75875640881713,481.99003154062666 242.4229469866259,485.7473526529502 241.23397831106558,476.40224111959105 238.05766684445553,473.1532130530104 248.37681976892054,458.6780852289521 250.9493262222968,452.3271652616095 249.20490353775676,435.36591870628763 248.24691285332665,435.1091151033761 262.169089422212,416.9484586584149 263.4739840000402,414.8547231894918 265.7761908622924,398.46314151847037 266.0246451200219,395.9540313981706 279.1260196977528,367.642929648282 280.20139264001045,365.3806798851583 282.5863204977941,343.13303800777066 282.54000839113723,342.9336768199573 302.64528810663614,332.59979261655826 304.35446698672604,331.25898500625044 335.9131093333708,294.9854077232303 339.11534392880276,294.5083073063288 340.7805408712011,283.3329870462185 338.37027242663316,281.5432977192104 343.88665600004606,275.1894581427332 344.77241144888103,274.30425338516943 330.9548012089217,258.7679032739834 330.56537173339166,258.13365813496057 332.1329928532941,228.6421910613426 333.25526044447906,223.89454618596938 305.0016713954974,211.70985816651955 304.76137272897176,211.5048469331814 324.92956700443756,197.95616640232038 325.9335785243893,197.10658118885476 307.3117425778182,205.21528389462037 306.3319065599935,207.49165515747154 285.99477503995877,203.50188516295748 285.0635812978726,202.38602633448318 283.76305578672327,196.42884567927103 285.3108704711776,195.107462632237 295.97459711995907,193.3110505719087 296.87812010664493,192.606580198335 298.96915541333146,175.7746280079009 299.094110719976,175.05166917049792 302.85092551109847,174.58858718699776 304.4756357689621,173.91584939719178 296.6174324621679,172.19575068494305 295.3981715911068,170.39131412631832 298.93886321771424,162.84624632069608 299.5214054400567,161.7518347252626 295.3087513600476,157.00409762840718 295.12146403547376,155.89721424347954 318.87928348442074,132.4199928533635 318.93142101331614,131.954514842364 313.30027662217617,101.60455966868903 313.04308423108887,97.4233797157649 299.1378013866488,68.54931155790109 298.47661596443504,66.97589388431516 281.1614222221542,50.13135227683233 279.997502862243,48.96167797537055 278.5012431644136,31.707667467184365 277.5872344177915,31.018345124670304 265.6858968178276,31.63158852106426 264.7258672355674,31.592396326130256 241.1780542577617,47.87360315240221 240.34618396451697,48.650931743730325 203.86564238218125,51.64818493038183 203.16833934222814,52.23877858358901 197.01640220440459,40.2002142702695 197.23369045334402,39.30758815567242 191.58332216890994,39.39703536086017 189.9618158933008,39.26286453916691 182.5145961244125,27.99682790559018 181.44126207998488,27.424611490685493 156.4534047289053,28.44454814947676 154.56363776000217,28.90932780894218 147.16127374221105,7.365643660305068 146.4630968888523,6.863465337606613 124.13949639117345,7.2554319892660715 123.89541120000649,7.271571777178906 110.2246015999699,22.893396855448373 109.29195150220767,23.943787655211054 76.2623900444014,37.946971704717726 75.8263571910793,38.21116527018603 61.616696035605855,55.62647731031757 60.432970240013674,57.13727785961237 44.22839324444067,55.94274586456595 40.99353628442623,56.418991950689815 5,79.78602848987794" stroke="red" stroke-width="3.144475329215032" fill="none" stroke-linejoin="round" vector-effect="non-scaling-stroke"></polygon><polygon points="89.34337564441375,273.63781431294046 172.07951729779597,304.73303793685045 172.9038145422237,304.44108055270044 176.51878030213993,307.97539610945387 176.48877937777434,308.4340470120078 168.74854087107815,326.7097541530384 168.70106367999688,327.0251644515665 160.21458858670667,326.38513431255706 156.99283882661257,326.3653347887448 164.5967624533223,329.9324428929249 167.06149859551806,331.06605904875323 177.49220835557207,315.904485449777 177.74444913771003,315.8395582649973 186.1985931377858,324.3715594696114 186.27170218667015,324.51706425088923 233.74481550219934,340.2171895999927 235.11961514665745,340.518306989572 281.384244622197,340.3336769580492 284.1484074665932,340.99806807748973 291.7633993955096,334.79286070744274 294.43435548443813,334.0179454331519 276.1605885155732,323.6606106442632 274.3060653511202,323.096546597837 193.05511509336066,308.4897665831959 192.34033578669187,309.2850352568785 193.33327900443692,301.3492552068783 193.37522204441484,301.1480133240111 205.2797636266332,293.3247621357441 205.59812295110896,293.08482864522375 201.64790414227173,286.0893374363659 201.26604771555867,285.54451775783673 192.31383011559956,288.2994582487736 191.83934947557282,288.8940086546354 177.74532295111567,272.06128852214897 174.92232334217988,269.69901136821136 157.88121571554802,262.9754299534252 156.5803989333799,261.97088179021375 150.81963889778126,268.2371407827013 150.6751684267074,268.1726598101668 148.5407337244833,258.86462894809665 147.95964785770047,258.65459600056056 116.8996616533259,254.43731216643937 114.60357148444746,254.0379648244707 89.34337564441375,273.63781431294046" stroke="red" stroke-width="3.755358338350732" fill="none" stroke-linejoin="round" vector-effect="non-scaling-stroke"></polygon></svg>