<svg width="49057.22978133336" height="20173.59751026641" xmlns="http://www.w3.org/2000/svg"><polygon points="12119.868451555609,20029.52479974099 12127.25013532443,20039.17887749622 12127.696653937805,20039.97406955296 12126.783519004472,20047.22061887826 12125.937958968803,20047.67891728197 12142.07874759112,20104.030618923774 12141.539604764432,20105.56567403901 12171.052358826622,20099.349848430662 12171.943648426677,20098.208642534737 12198.321160248946,20125.555030408897 12200.034125653328,20127.923921844224 12205.810905599967,20144.175471943978 12206.329368177801,20146.646659358346 12202.924991431064,20151.64918883337 12199.341482951073,20156.43268338329 12215.056141937734,20168.587621168408 12215.19536952884,20168.59751026641 12236.389129386633,20158.700996987813 12239.55903288885,20152.36485409207 12256.395959466696,20161.817529879452 12256.462078008917,20161.820226989512 12245.766311537707,20140.004914706515 12245.842624568846,20139.12646663672 12278.374112426653,20108.342594685324 12280.15931306663,20107.494144848024 12277.445248853299,20099.132219396357 12277.136792746722,20096.968057749793 12291.001588906627,20096.641160915664 12291.1358648889,20096.553928390495 12286.282414364396,20081.03857663367 12286.486012871028,20079.07434754382 12293.6364273777,20079.81947956275 12303.732466631103,20095.559744941304 12309.609735111007,20088.674529762764 12310.361214577686,20086.660905165074 12314.975822791108,20096.951870297722 12327.310863075545,20097.676707258623 12327.854083697777,20099.077812103962 12398.548203804414,20098.1744692169 12401.369455786655,20099.482044474164 12414.751033173292,20067.492772414524 12415.66445937776,20064.40772677597 12415.868057884392,20038.163294302358 12415.871844408917,20037.424767162243 12395.506459591095,20035.62431571429 12394.237391359988,20035.476788684202 12404.15721159114,20017.256886258838 12403.81613311998,20015.88539571804 12376.129648924456,20017.250588847266 12375.696237511118,20017.273979232006 12372.648376604426,19989.81599605485 12372.445069368812,19988.873063422972 12365.222128355526,19975.044867886987 12365.220963271102,19974.0298870338 12312.119909546687,19979.381878459535 12308.820390399895,19979.299548042123 12307.963762062252,19970.988065616868 12307.61423672887,19968.802841099387 12319.470718577737,19959.57264765381 12319.62101447105,19959.476811774075 12322.311194453272,19934.06937537645 12322.536929564434,19932.48271891818 12250.30751943111,19972.778250798176 12249.338751715608,19973.459858046554 12251.492410311126,19983.13215361681 12252.076117617777,19983.499709518335 12247.099750684458,19989.183025981358 12246.92848327104,19989.6292993151 12232.429589902167,19973.66456475976 12231.218193351058,19971.85998975759 12185.009196657804,19995.67189468554 12182.556111359969,19997.124036144058 12176.975648142165,19995.204040367913 12172.96484494221,19993.210249992437 12158.036617955542,19998.7592582606 12154.399806862231,20000.44710057968 12127.149938062183,20014.851261880423 12126.694681315566,20014.965066321834 12129.667394275544,20021.540883390175 12131.01277553779,20023.537564467813 12119.868451555609,20029.52479974099" stroke="red" stroke-width="3.9228138627291376" fill="none" stroke-linejoin="round" vector-effect="non-scaling-stroke"></polygon><polygon points="5,7269.453118040867 40.47653006226756,7283.557949062961 68.25185194658116,7294.410627574252 48.98368540441152,7311.361986482167 35.427636622218415,7308.84213430871 35.13403534214012,7309.212478108413 34.62693233776372,7320.20891061594 35.33180842665024,7321.384304717591 63.83123029326089,7343.110019005253 69.95637048885692,7347.73469955154 93.33204223995563,7350.659189778671 100.38196821324527,7353.584116560523 121.36368270218372,7370.545982812182 122.90683704882395,7371.334163482359 143.2736782222055,7364.768127707124 144.88469873776194,7364.645984716539 177.29647416889202,7370.349891400547 177.76250794657972,7370.769269160868 181.68709489773028,7385.042882799811 181.4645637688227,7387.303252083308 173.0570231466554,7398.341406192107 172.8478904889198,7400.957027173194 160.89470663107932,7402.679130867997 155.9017372444505,7486.918137512694 184.58844643551856,7483.90112108324 187.18833237327635,7483.026097175723 190.44736483553424,7525.184768837818 193.31085112888832,7532.184411997499 205.3310273422394,7528.990692733147 198.44188302219845,7515.795289799455 198.12905784882605,7514.779271027946 206.12008078221697,7503.689043310413 209.37998705776408,7499.915085984743 236.42334464006126,7475.4172892973875 240.3735634488985,7471.242723863223 245.0152598755667,7478.663321590109 252.10712888883427,7475.0686966955545 251.00437646219507,7469.302767441201 257.177867662278,7473.429683807248 262.97649294219445,7469.24077247252 260.0611603910802,7464.627818759647 274.92326883552596,7456.142257306317 280.8372374755563,7459.358064433269 290.06558008887805,7464.399862882739 316.85757070221007,7498.300107228046 318.5606328889262,7500.914487957663 329.05221831111703,7495.937457318592 332.612716373289,7494.371084505634 335.24726357334293,7506.2928675893345 337.00945379550103,7515.082503797195 359.35664725326933,7553.808799531835 364.85205930657685,7564.8763708416955 369.92163299547974,7584.973648255516 370.70748245331924,7587.692286615493 383.8741017599823,7584.844960087037 390.21653020440135,7584.782522465743 415.005740657798,7597.522750511125 419.50034517329186,7598.659424933197 431.112741831108,7618.663891834498 431.3743032888742,7619.1899985692 490.2154368000338,7552.307210725208 500.2357455644524,7539.657688089355 506.4025375287747,7544.535960220732 506.48584106657654,7553.610971777001 512.8477846755413,7541.90305164078 516.4959553421941,7533.251358031703 508.1195807289332,7528.856249392091 515.1106699376833,7519.064062160614 526.7696699732915,7502.708250033786 564.0389737244695,7493.813672315911 567.5243238400435,7493.223357371811 609.5649396622321,7494.408753881871 611.9085070221918,7493.97913186223 599.5274459021166,7472.969498961873 598.908494791016,7472.119704202341 595.1883801600197,7472.746320871869 589.4040271643316,7472.752520266455 588.5709917866625,7466.436673285207 588.2570015288657,7464.541500768333 588.2727301688865,7463.096026832121 594.7462306133239,7462.085476809938 600.6884525511414,7447.890051376133 599.2414176710881,7445.968003602 609.6852346310625,7441.978863891447 621.5475419021677,7442.8149488057825 614.7382058666553,7396.3993474346935 611.2790701510385,7395.393248056003 614.1195460266899,7384.062014292227 614.5381026132964,7381.154685579066 527.8476643555332,7356.633536143287 521.7414567822125,7354.995987568109 484.3757422933122,7365.377410239249 481.3351631644182,7365.167954657518 463.7444269511616,7351.018008430314 462.86799217772204,7351.553849507647 461.12881237338297,7348.711442766653 460.3881099377759,7346.035050587438 472.88189297774807,7343.943156117166 477.9899144533556,7343.432108485547 476.0678163911216,7324.625552406826 492.72852394660003,7317.764566195605 476.63200853334274,7281.250644699612 474.36329784884583,7272.527144779218 460.22266794671305,7272.147667197452 459.72838087100536,7271.919502988982 462.30991672887467,7265.721743013186 463.50529336882755,7261.816545054608 453.8726664533606,7259.718563194154 451.1912246043794,7259.817853819288 450.53353443555534,7207.84617864975 450.3380915200105,7197.750651833077 415.280409315601,7183.624314768065 414.3990229333285,7181.817805805244 409.71771363553125,7152.127809901547 409.7803369243629,7146.471961496223 417.1556127289077,7126.221517681435 418.1835084799677,7123.84513795987 368.1731325155124,7122.48999243055 364.12970695109107,7122.937091108819 343.7573316266062,7142.37541233981 343.2178975288989,7143.128147880256 337.4990805332782,7155.596610525623 333.4256540443748,7163.416127307748 338.37405895104166,7176.288349921757 338.03035903989803,7177.034278601583 295.18379605328664,7175.095909150143 290.05858958221506,7175.47126368148 237.49871758220252,7193.908179500431 234.1237592176767,7192.845721379621 234.05035889777355,7194.475935822527 238.94866517337505,7212.1353060430265 231.28037063102238,7214.065695223806 228.49902279116213,7239.034064418112 227.37005596444942,7245.745805144019 245.2803165866062,7253.3156511291745 246.37782613327727,7253.13186229096 254.62138111994136,7271.628330732172 257.050873457687,7276.151479239226 249.9962871465832,7312.408098076354 249.80899982224219,7313.908056503802 228.0292024888331,7324.001835620322 225.65417784894817,7325.251653398911 210.06039637338836,7329.876725953945 208.87288405327126,7329.970257120789 194.52923818666022,7319.408130854426 193.65134705777746,7319.124659816152 171.18589752889238,7318.750038414379 170.07964984886348,7318.600189667137 162.84185400884598,7306.345637405 162.34174151101615,7305.501851987792 124.24784924439155,7281.159478451707 124.2166832354851,7278.7533434798825 105.497854008805,7276.003509476024 102.06056362658273,7275.253157980274 58.31047765328549,7244.347046177427 55.15426389337517,7243.065717525373 44.02916380437091,7242.347234374902 43.21680867555551,7242.253186897375 5,7269.453118040867" stroke="red" stroke-width="3.543424091392517" fill="none" stroke-linejoin="round" vector-effect="non-scaling-stroke"></polygon><polygon points="12125.937958968803,20047.67891728197 12142.07874759112,20104.030618923774 12141.539604764432,20105.56567403901 12171.052358826622,20099.349848430662 12171.943648426677,20098.208642534737 12198.321160248946,20125.555030408897 12200.034125653328,20127.923921844224 12205.810905599967,20144.175471943978 12206.329368177801,20146.646659358346 12202.924991431064,20151.64918883337 12199.341482951073,20156.43268338329 12215.056141937734,20168.587621168408 12215.19536952884,20168.59751026641 12236.389129386633,20158.700996987813 12239.55903288885,20152.36485409207 12256.395959466696,20161.817529879452 12256.462078008917,20161.820226989512 12245.766311537707,20140.004914706515 12245.842624568846,20139.12646663672 12278.391297422117,20108.329105842335 12280.175332977786,20107.480206322973 12277.460686222184,20099.11828033923 12277.153977742186,20096.955017857894 12290.872264533304,20096.722547930956 12291.152176071075,20096.540438821656 12286.245714204386,20081.523335590202 12286.502615324454,20079.061306586664 12313.628693902283,20077.542704305088 12318.94526549324,20077.523817269423 12336.91756686219,20067.61824200995 12339.298125653295,20067.377646127425 12338.597036088817,20056.948572462075 12348.99337585771,20056.871218270913 12360.957919288776,20051.99110299413 12360.845488640014,20035.397627797967 12361.444924586685,20030.847178071446 12267.870293617714,20033.567923882918 12267.492223715526,20033.54183654854 12274.317579662194,20007.871742871823 12274.339716266608,20007.65942094178 12264.799131022184,20001.019308562565 12260.924933973234,19998.869472241902 12254.972517546616,19987.022726280673 12253.618398151128,19985.995204324834 12247.099750684458,19989.183025981358 12246.92848327104,19989.6292993151 12239.519128746586,19983.900106309855 12239.28989838215,19982.78619162331 12127.888892871095,20040.793546129193 12126.285736675607,20041.083195733372 12125.937958968803,20047.67891728197" stroke="red" stroke-width="3.461942442404956" fill="none" stroke-linejoin="round" vector-effect="non-scaling-stroke"></polygon><polygon points="12248.171045831055,20078.839160508185 12251.772613120032,20086.220675258257 12256.848886044347,20083.732617693953 12253.535094613326,20076.952708515048 12253.257221973385,20076.447253540682 12248.171045831055,20078.839160508185" stroke="red" stroke-width="3.329835255245375" fill="none" stroke-linejoin="round" vector-effect="non-scaling-stroke"></polygon><polygon points="48970.4533779911,7161.667232314649 48973.07336163556,7200.924566105416 48973.67716664891,7216.622013202927 48986.63610965328,7233.424949390872 48990.38855537772,7244.710819880944 48977.28222919104,7248.482190023176 48978.749361777795,7256.11829170119 49029.44859391998,7227.284303396998 49032.26081649773,7225.23706332338 49029.91724913777,7209.580843496369 49052.22978133336,7199.706002599734 49026.442676053266,7162.55409868533 49018.69865102216,7157.549964773352 49003.02564380446,7151.147289054061 48994.61373411561,7161.453753422131 48970.4533779911,7161.667232314649" stroke="red" stroke-width="3.050912521418028" fill="none" stroke-linejoin="round" vector-effect="non-scaling-stroke"></polygon><polygon points="48248.112673279946,4585.538513703912 48260.37518705777,4605.456967726001 48250.73353073781,4615.5991795703885 48252.825439857785,4629.485670518654 48270.36578616884,4615.415483253484 48278.37574172439,4623.2949434300535 48288.13332394662,4613.336803159502 48278.113597724354,4602.5563400337705 48286.123553279904,4590.905080049066 48282.86131683551,4585.925297866168 48273.132861724356,4584.7165949833 48273.8610395022,4590.518305098463 48270.86094705772,4595.497977895488 48259.12272127997,4580.12346030277 48248.112673279946,4585.538513703912" stroke="red" stroke-width="3.1096495713161207" fill="none" stroke-linejoin="round" vector-effect="non-scaling-stroke"></polygon><polygon points="47755.33438207989,2113.4684954899712 47768.16836977773,2160.3103811651818 47771.377303608926,2159.062581751903 47769.44675868447,2129.813209997432 47772.7165681778,2126.7517010362935 47767.40407438215,2111.9082709637005 47767.34145109332,2102.81431139895 47780.62253994669,2087.4363109946135 47785.43521251553,2082.3454522231477 47779.18511701329,2075.9704484877293 47762.126824391074,2082.396341855696 47755.33438207989,2113.4684954899712" stroke="red" stroke-width="3.722802836478813" fill="none" stroke-linejoin="round" vector-effect="non-scaling-stroke"></polygon><polygon points="46003.906336142216,28.531166583125014 46004.3813993244,38.862642893975135 46008.21248824883,38.93182735168375 46043.031328142155,36.06262960995082 46041.73458915553,23.03164138813736 46048.06274531549,22.531497578078415 46039.96890367998,7.3437476816470735 46030.25006051548,5 46019.44390229334,21.950301273725927 46020.84695523558,26.043845545558725 46037.647764195455,25.529871241829824 46037.79835136002,29.415781786839943 46003.906336142216,28.531166583125014" stroke="red" stroke-width="3.63456631052173" fill="none" stroke-linejoin="round" vector-effect="non-scaling-stroke"></polygon><polygon points="46377.21075171558,2467.73467364884 46377.73270954657,2472.134773682046 46381.23903118225,2471.7186509926687 46377.21075171558,2467.73467364884" stroke="red" stroke-width="3.2252613468187725" fill="none" stroke-linejoin="round" vector-effect="non-scaling-stroke"></polygon></svg>