<svg viewBox="0 0 416.25568261330704 352.7923039857553" width="1000" xmlns="http://www.w3.org/2000/svg"><polygon points="8.052550000000338,284.44876924795244 38.51630423995812,305.68653927240666 38.71174715550296,305.8863604190774 38.265228542244586,324.2293519109153 38.55882982220646,324.35179846207757 137.00613520885963,335.8053357170793 138.03432223105483,335.78190853025444 157.388705022262,310.9176384223756 157.64764503992774,310.7726387728253 185.65685762660723,310.4512520166245 185.82870758217905,310.4676087128246 241.1833258932238,330.48464865421556 241.27828027561918,330.52708381528646 248.94424464889016,344.7092556681964 249.02638310215116,344.73975398575567 288.93722455992975,314.31626160114683 290.9574809866972,315.6212341908613 328.56203778667987,259.4487453253605 329.0283628355028,258.9459923043396 319.9890551733333,246.06990898060758 315.84805378664896,243.68510502714344 329.0137992800228,228.00923399171006 329.4909013600336,227.26627421516605 324.11316283557244,212.771427070933 324.096560382146,212.10227517158637 333.29606715552654,190.52513519730564 333.33742765323404,190.44949983663537 401.51875188443955,174.02186130654445 402.3424665867133,173.92144899277628 407.8049650044195,163.8326549044359 408.2031326133074,163.43231401764933 393.23412767108675,140.16352519996144 393.0188783199774,139.07651515576435 404.19320322664134,103.26635402334068 404.65253776880127,101.7937554559685 402.4851894310923,85.84632007187611 402.5079085777761,85.79056243735977 389.4397389066653,89.76702015646879 388.69758011549857,89.67187983540498 392.6874117955813,84.32227301560488 394.3313459466226,81.4126593089677 384.76192486225773,74.53962393079564 384.7234770755531,74.50289282351878 391.81767625778593,62.29587940171041 392.4535210933318,60.86549543150613 363.7735111376751,36.60022722543363 363.0357214133037,36.29614764065627 331.64514249782223,37.666936880945286 330.6836565600024,37.881606045797525 327.784635191063,38.67521622553613 324.69861776891776,39.805209530903085 332.3660384977484,76.43458677622402 332.17467337774724,76.56557847149816 308.53452745776303,45.99683321428165 307.7795527378112,45.327620376810955 290.5511577866055,46.515560293490125 288.4362382489271,45.2253793487107 284.438250977757,24.01664935900044 284.3526172711063,22.10707357739011 289.60452667551726,9.235820314010198 289.5273398310892,8.052550000000338 240.94972646222595,40.55189603140025 240.623502817798,41.123749077705725 242.17772546664492,61.024378265115956 241.5063455555137,63.81166917269729 230.54493983111024,76.38192455258832 230.38182800889626,76.59168829335977 252.59358039996732,96.10858363050647 253.28797072880116,96.2192086948562 234.30000699553784,117.51394798499678 234.98886317326833,119.85143939845875 175.78567967107665,113.35170985191507 175.5156713510878,113.36188656852028 177.34718409772177,124.52148141150974 177.09290441775374,129.57147582897596 159.58052013334964,140.0489403469037 156.9791778399158,145.24944034589134 116.65880920002382,140.46790475378657 116.27520514673233,140.19405165661738 62.024213075499574,154.16189791108627 57.49349094226636,154.41228740537917 52.2873111022418,172.56477243614063 50.29938576880522,179.83640871305397 55.361386408774706,181.20896468227875 57.04609851560235,181.73002946735505 51.636320168829116,222.52807813892287 51.60748432888795,222.8840876148097 8.052550000000338,284.44876924795244" stroke="#009edd" stroke-width="6.0921563733211235px" fill="none" stroke-linejoin="round" vector-effect="non-scaling-stroke"></polygon></svg>