<svg width="2345.5498313956195" height="1569.2849316447973" xmlns="http://www.w3.org/2000/svg"><polygon points="5,1296.6444611675106 21.948774684453383,1321.5386807894101 22.50422869331669,1322.505236147088 26.909995520021766,1339.4632349103922 27.403117511072196,1341.5283226107713 36.49834922666196,1327.5932249365142 37.09836771548726,1326.7556836443255 42.240467911120504,1333.6399342941586 43.54507121781353,1334.3394421251724 40.46750065777451,1341.2798276130343 41.66753763554152,1341.3587507372722 64.93514780444093,1326.2735434483038 65.87449713773094,1325.6186609547585 70.7002769067185,1327.8854841474677 72.36343495105393,1328.2273547655786 69.7134503822308,1330.3457680323627 69.14314154663589,1330.8481947369874 72.56615964439698,1339.6648287380813 73.20928625774104,1340.2366867273813 102.23124849773012,1346.511241623317 103.03923455998302,1347.1516302545788 100.83460351999383,1350.5528742035967 100.48391310218722,1350.9113952438347 104.08023751107976,1354.7761696274392 105.59484728891402,1355.556331663509 99.76651235553436,1364.3994766256073 100.04846279113553,1366.0341340587474 109.99304106656928,1375.1343303900794 111.72348273778334,1377.1796917854808 104.7559864888899,1383.6434671380557 104.01965312007815,1384.1453204591526 110.4217921422096,1382.438202839112 111.14530958223622,1381.6243187739747 122.20254350220785,1398.3482386821415 122.74139505776111,1399.2513327267952 138.70945991110057,1400.3595678495476 141.60819000890478,1402.8519491810584 143.9144746667007,1398.7504158217344 144.49381290667225,1396.7372683506692 155.44240270217415,1396.4509625574574 157.08779320889153,1394.3552829099353 197.27912874671165,1434.3189756908105 197.3676751643652,1434.4573704724899 215.3705599999521,1427.5663760105963 217.24605468439404,1427.148473444162 246.5196751644835,1430.2045084042475 246.76288654224481,1429.968736759969 252.0293595022522,1440.8099122233689 252.67335992888547,1441.3670806555892 278.2784207643708,1456.7490569024812 279.2940831289161,1457.2214436897775 273.21205105783883,1442.9768206336303 269.80126634670887,1440.0589046304813 281.3198737066705,1430.552079523215 285.0714456178248,1427.0073691609432 288.8378723555943,1413.570488184574 289.74838584894314,1410.6584915710846 295.0110722844256,1411.1692997891223 295.3224411022384,1411.4673082688823 297.1303608888993,1421.601158204372 299.473345706705,1424.8403024851577 308.00584163551684,1423.0776008320972 309.1362648177892,1422.3513275518198 312.60355612437706,1429.5237903448287 316.0385163377505,1429.6153042204678 315.89958001777995,1421.3090242525213 315.24771527107805,1420.1314680076903 327.92441656882875,1408.0138114039437 329.4393176177982,1406.1323991006939 346.0339066310553,1402.733823210816 346.953740799916,1402.1941400083597 356.54442467552144,1409.6972852279432 360.66882360889576,1412.7972957761958 374.3038068622118,1404.6612523444928 375.56617585767526,1404.894796989509 379.68562318221666,1395.9978321499657 381.00449877337087,1394.9139223700622 412.1827410488622,1388.6939618121833 412.7958667377243,1388.8328363678884 424.9744944354752,1402.3176766318502 425.5334436977282,1402.635535141104 474.3251413333928,1417.9395374649903 475.7480007110862,1419.7523224001052 474.5223318755161,1436.174901028513 474.82204984885175,1439.0013589527807 481.89149098668713,1471.0351507292362 482.0508162843762,1472.3399864234962 494.5445993244648,1499.1223290440394 495.6205548088765,1502.6690252453554 490.63544974219985,1515.470452634734 490.82943630218506,1516.3870325885946 495.46676366217434,1519.7743795516435 496.1506682310719,1519.3255602206336 507.7531616711058,1499.4891691578086 507.9920039821882,1499.1556781706167 518.3295069866581,1499.4788039050763 519.2470109866699,1499.5639792283764 524.5909620621242,1510.7617667439627 524.6326138310833,1511.4016745015979 518.7664136532694,1534.1924358513788 518.4206748444121,1534.8728281882359 520.955024782219,1544.2967202684376 521.2518300444353,1544.5589523388771 554.0606079999125,1549.7066574174096 555.2941411555512,1549.5219278647564 573.057892408804,1532.4360225383425 574.2174427022692,1532.5310981197981 587.9610700799385,1560.2742797767278 588.604779235553,1561.4564881052356 607.5443919644458,1552.8830801987206 610.2170956799528,1552.3406135316473 620.5400351289427,1564.1916719836881 621.5160846222425,1564.087599561317 623.6612963555381,1558.3274967269972 623.8206216532271,1557.43091643363 615.4130810310598,1541.2927438650513 614.8940359110711,1541.0232986376504 628.9732076089131,1519.9933814210235 629.5513807644602,1518.8217639306094 669.3489177599549,1502.9159849229036 669.5769830399659,1502.434683687752 701.4274790399941,1515.284792903869 702.4795502932975,1515.4186301528825 709.2585941333091,1508.4927829512744 709.7400652799988,1508.1363227820257 723.3170855821809,1508.9299077767646 723.4775759644108,1508.9069249469321 727.3800263110315,1500.2336634186795 728.128884337726,1499.658618437592 725.429966222262,1495.460654134571 725.7116253866116,1494.3015240834793 746.8249944177223,1449.5121260232409 746.9126670222031,1449.0329610743793 729.7026221511187,1447.837974111084 728.2832580265822,1448.1886725842487 726.9640911644092,1443.0110798827372 727.3031307377387,1441.6817269261228 759.6849052445032,1399.1561991814524 762.0305115021765,1397.3905852056341 780.7414764089044,1393.029692038137 781.3327567643719,1393.0161655592383 797.1947989333421,1398.2422838192433 797.2664516266668,1398.2449890504358 800.6350020266837,1418.6455380601692 801.6250325333094,1420.6963531692745 829.7149272176903,1440.1612329477211 830.9435087643797,1441.3535571667599 846.0869851021562,1394.65827398072 845.8889207466273,1394.2822403569007 857.3792748089181,1385.8014733351301 857.7462764088996,1385.7040794484783 889.4983227733755,1413.725126338075 889.8050312532578,1414.4446656958316 895.0097547377227,1414.569547912106 895.5614222222939,1414.450977434055 896.8036935111741,1394.2989229174564 896.7757314845221,1394.0419211673434 903.1979682133533,1384.448776580568 903.3077774222475,1384.1277353218757 925.4437993244501,1378.2388892730232 925.4490422044182,1377.7694882100332 939.4734549333807,1407.1175163565204 940.0766774043441,1407.4209405943984 987.0485131377354,1408.7500510155223 992.2532366222003,1410.7599319565343 1010.6184627199546,1359.2848364003003 1011.3553786311531,1353.0444705345435 1063.9592325688573,1379.868483219354 1065.3899562666193,1380.3248034202843 1126.3763015110744,1298.45283929765 1127.237298915512,1297.7225432208506 1161.0538749155821,1289.1509673344553 1159.3001315555302,1283.7810434403364 1176.111717546708,1291.5498876733473 1177.0030071466463,1291.9346687973593 1214.0978395022685,1275.71733882837 1214.6203798755305,1275.5165882604197 1218.4374877866358,1266.902185101062 1218.6268140089232,1266.5096904590027 1253.3961378132226,1267.218887160474 1253.8752787910635,1267.1200869946624 1267.3250136177521,1229.653107133112 1267.4922032355098,1228.9830447487184 1275.6343958756188,1235.054592226632 1276.8425884444732,1234.6498577238526 1293.6926222222392,1210.7403144793352 1295.0843155911425,1209.1843685057247 1286.3991935999366,1178.6827920617652 1285.9768504888052,1178.2905902475468 1288.2976987021975,1157.0650583014358 1288.3189614933217,1156.4561597214197 1302.4581350400113,1143.5849375475664 1302.9093139910838,1143.2102772530634 1305.146567395539,1132.7651215259684 1304.2529476266354,1132.3985682459897 1331.3930072176736,1136.7330665561603 1331.7856406755745,1136.8626216804842 1332.5193526044022,1101.5079244499793 1332.4683801600477,1101.4207879203605 1355.8152160710888,1100.6952508034883 1355.9797842488624,1100.5719950363273 1365.0770548622822,1134.7748337506782 1365.0150141154882,1135.640647469554 1381.5822236443637,1148.7660172774922 1382.5623509333236,1149.595664736582 1387.6103705599671,1170.9546166695072 1387.791249920032,1171.4474804944475 1400.014150826726,1173.8160999212414 1400.781941475463,1173.5516173945507 1421.5417073777644,1192.488388921658 1421.873756444431,1193.1933129559038 1442.5545878754929,1197.884474830178 1444.5128035555827,1198.1150815370493 1456.0436443021754,1188.3138561881497 1456.4051117510535,1188.070151272579 1485.1978436267236,1182.6553189714905 1485.8217463466572,1182.5515160744544 1512.2173169776797,1204.4266610195627 1512.6553887289483,1204.2687158093322 1524.4876950755715,1177.0711043893825 1525.4573366043624,1175.8078326233663 1554.7111506488873,1157.2140102531412 1555.7556488533737,1156.197072635172 1555.9400234667119,1152.4962463763077 1557.0576307199663,1149.799690723652 1542.0964900978142,1142.6974881457281 1541.9348346310435,1142.5814784712275 1536.5046673066681,1128.0666925029363 1535.6876518400386,1126.1011590660783 1558.9229309154907,1090.194783866522 1560.5464760888135,1087.5439648687025 1607.8692935111467,1087.6532310805633 1608.112504888908,1088.2063340002787 1611.5011529955082,1069.5964734350564 1611.6261083022691,1069.3851477033459 1580.6829218133353,1045.9709770265035 1580.388737991103,1045.7013720526593 1565.3474978132872,1015.4321458081249 1564.701167217805,1014.4253877684241 1548.9547596799675,953.7218115157448 1547.5566583466716,953.0649076077389 1549.4790476799244,936.2033962604473 1549.5504091022303,932.7880135237938 1573.3257048177766,939.9020161219523 1574.3285512533039,940.9859266832937 1616.3382923377212,884.4202043871628 1616.4384895999683,884.0202427546028 1645.7257998222485,875.1594358308357 1646.2567870577332,875.3176192569663 1654.389950293349,866.2458405018551 1654.553062115563,866.1179325955454 1651.8975433955202,851.0559135025833 1651.7318101333221,850.9876610802603 1655.7886341689155,835.5778872855008 1655.9834945421899,834.9296684409492 1642.9010525866179,814.127330481424 1642.5995869865874,813.4279628059594 1646.3965971911093,796.3458781787194 1647.647315342212,795.604858695413 1673.8124905243749,808.4771712297224 1676.9529756443808,810.0753068033373 1676.458688568906,823.6705141580896 1687.2642642488936,831.2053110032575 1735.3636104533216,837.2038503504009 1747.8964238221524,836.4783387198113 1756.333674097783,848.9540907038609 1756.695141546661,849.2478951078374 1756.89524480002,860.8862993986113 1757.097969493363,861.4530845511472 1787.0499603911303,874.7445427571656 1788.2933967644349,873.3547808004078 1816.0774567822227,913.8874516898068 1817.4350714311004,915.2155013001757 1826.7802137599792,907.8268518843688 1827.2322665244574,907.7843746739672 1823.5683672177838,898.0663658091798 1821.262665102142,890.881403917796 1825.6259063465986,885.8080881645437 1825.4712413866073,882.3544059701962 1834.9282318222104,885.2237409092486 1835.816899982281,885.448802914354 1848.9275952355238,902.852895112941 1863.3143492266536,912.4907089316985 1863.5625122132478,923.8315860814182 1863.193762986688,927.1599028512137 1880.6362422044622,938.7833099573618 1881.1949001954636,939.3620920126559 1903.3449031111086,925.7763486084295 1904.594456177787,925.4053810714977 1945.3377504710807,921.7047081571072 1950.5730574221816,918.9108618800528 1957.9165846755495,935.1221729248064 1958.2847513599554,935.5947852046229 1969.5508266666438,940.3470571661601 1970.7584366933443,941.493767879263 1976.3546285510529,935.2694690224016 1977.9889507555636,932.6384565829067 1977.4862168177497,922.368936120416 1977.6347650844837,919.8945637340657 1986.893108622171,954.1008631465374 1987.5254582044436,957.6162081201328 1998.256177208852,956.1804398233071 2003.67818894214,955.9071096723201 2003.2826427733526,944.0035884719109 2003.0152558933478,935.4886056706309 2013.5415025778348,935.1506381293293 2017.149477831088,935.0345181446755 2015.2224281599047,908.2281255492708 2015.5431176533457,904.6161841164576 2031.3096228977665,897.3315664244583 2031.912262826576,896.5628714316408 2035.263919502264,904.9560065005207 2035.3271253332496,905.0893143392168 2061.4564741689246,922.0883339417051 2066.4916778666666,926.7893895113957 2072.6325467022834,918.6207661369117 2077.4149270755006,912.3330043188762 2095.479852657765,911.1395969507284 2097.3352496355074,912.8196740610874 2153.8601952710887,858.06229529751 2154.70866801776,857.5601358121494 2155.2996571022086,847.2468532868661 2153.8383499378106,844.6116154881893 2162.1780243910616,834.2222307542106 2162.813869226724,832.9416044950485 2191.104740977753,842.7059074011631 2203.2006476799725,846.7017278037383 2225.563861048897,818.8750148118706 2228.3239460977493,815.887267791375 2240.4626696533523,820.3103303896496 2241.4649335467257,820.5431444675196 2255.0739936711034,809.7692432728945 2256.210533546633,809.2583829526557 2273.51757169771,789.6833941799123 2274.3474030933576,788.6529877806897 2283.524190719938,759.1425971128047 2283.9165329065872,758.0550698564621 2294.877647359972,742.0110389063484 2297.959878257825,737.8360238966998 2327.1388356266543,729.8896171854576 2331.2678948977264,730.4110651882947 2329.3146308267023,709.2554664508207 2328.67878599104,706.6212752923602 2337.4862418489065,691.5532171190716 2340.5498313956195,685.6773286453681 2329.4159931732574,686.1450533568859 2329.1550142577616,686.1296736434451 2320.7780571022304,679.1489811695064 2320.3679473778466,678.5396527373814 2321.064376604394,672.487893096637 2320.444260408869,672.0251152099809 2274.5175054222345,649.4839744640049 2274.3153632710455,649.3328659527469 2277.818189653335,645.5641677185777 2278.8422988799866,642.8835113925161 2274.080890026642,627.3757768876385 2274.056714524515,627.0785062598297 2247.1016120888526,627.0929852038389 2246.845876053325,627.0848407979356 2225.25190968893,591.1677671619691 2223.611179520027,588.9484921863768 2225.4773535288405,585.8064417007845 2226.329030257766,579.9811060396023 2219.468721777783,578.1052170771873 2216.3183334399946,575.7880533052376 2223.9041982577182,531.1819243453792 2223.969151715515,528.3355416159029 2209.7262856533052,466.5270983388764 2207.8720537599875,464.5565023869858 2093.1858013866004,435.8187335021794 2091.623423146666,435.51893724058755 2050.9139163021464,449.25162828632165 2048.59452444443,450.87775709241396 2027.327072995482,431.2583439818118 2027.2216328533832,431.18135545484256 2028.3535123910988,420.8592120995745 2030.3865847466514,414.427552209585 2025.8118806754937,367.28689881175524 2025.900718364399,367.2030925801955 2020.185396622168,357.724173290655 2020.0837430043612,357.52121734584216 2018.707778275595,339.46463011344895 2018.766323768883,339.3658620478818 2004.8613321955781,314.4399921359145 2004.7468626488699,313.71908265480306 1968.684877653257,328.0937756948406 1965.8656645688461,329.1911522226874 1956.7972297954839,310.0682806641562 1956.7331501510926,309.92146793560823 1913.5446348800324,302.953187045292 1907.3434729244327,303.0537841801997 1909.3914001066005,310.8562645757338 1892.528550399933,311.0905295133125 1892.3450496000005,311.0937013772782 1892.9363299555844,332.0831795752747 1892.7449648354668,332.1715301121585 1903.7136523377849,349.0168309137225 1904.0457014044514,349.62708107579965 1896.8920829156414,361.7420278446516 1895.3364039111184,365.7548252058914 1852.4805202488787,383.93833107763203 1851.1464985599741,384.24091613304336 1832.7294262044597,345.141906371573 1831.0566562133608,342.33975794143043 1802.7317057421897,333.0418942547403 1799.390826097806,331.97715888376115 1795.2282706488622,318.5723750626785 1794.4459164444124,316.0254408617038 1785.360587946605,313.21748049592134 1784.9999943111325,313.1060131926788 1754.402255360037,329.3356865392416 1743.7723161600297,330.85850152070634 1738.7982793955598,322.91355827328516 1739.4061622043373,319.1944912741892 1712.1600799288135,303.8499499564059 1708.2587946666172,300.2062329123728 1679.6556802844862,251.78989923140034 1678.8115766043775,249.54314328433247 1674.8901936354814,236.54123682552017 1674.769898666651,236.39890732173808 1703.350876444485,202.0888907595654 1703.5078715733252,201.91525755031034 1652.7978623999516,159.9368401800748 1652.440181475482,159.44848691055086 1650.3881764977705,150.33009088004474 1650.396623359993,149.62133487011306 1652.165512817679,147.7394699061988 1657.8307359288447,140.7968346234411 1663.3558576356154,109.64339818828739 1663.3427504355786,104.35547910246532 1656.9385725155007,98.40704026003368 1653.35360767995,96.04213348962367 1631.086222506594,97.67090114788152 1628.3942948977929,97.43096370907733 1597.818983822246,87.10932136396877 1595.0947251199977,86.32687773928046 1599.8372013511835,63.9550578215858 1599.929534293362,63.47556199179962 1588.8897766399896,65.28058384405449 1588.8274446221767,65.27287204592722 1582.859008284402,36.187469508266076 1582.8208517688327,36.025500043528154 1548.5568833422149,39.587893048650585 1548.2061929244082,39.70585208479315 1539.1095048533753,26.063465746003203 1537.2578943999251,20.584311332087964 1526.8452434488572,19.430023385910317 1522.000239786692,18.906871211947873 1507.900096568861,7.5002077841199934 1505.107971697813,6.153456960164476 1468.5578163199825,25.185975466039963 1463.817670257762,28.139210728462785 1442.2551611734089,52.16332749964204 1438.0017291377299,56.2653052949463 1420.2260357688647,61.26814372558147 1418.0793676800095,61.83247555594426 1422.0959963022033,96.92205960815772 1422.4158119822387,101.65999241248937 1420.9874184533255,118.0333237797604 1420.300892444444,121.08870207442669 1415.347827199963,126.15218175866175 1414.9249015466776,127.60068263288122 1428.5033782044193,160.49320789065678 1428.7620269510662,162.55950975592714 1439.1283657954773,166.69114781741519 1441.2298868622165,167.2996418835828 1454.94496967108,161.92107581091113 1455.0373026132584,161.84036456805188 1467.8986697955988,140.50298077485058 1474.7039280355675,138.60425815323833 1474.698102613329,130.14483272616053 1475.1277275022585,128.66188254230656 1529.517073351075,137.78798826388083 1532.3298784710933,138.4255860056728 1545.7429131377721,179.74165777349845 1545.8367024355102,180.04815376672195 1539.1112524799537,182.7984372669598 1539.0457164800027,182.84241613087943 1541.6569619911024,191.69604198931484 1541.5360844800016,192.27726395172067 1530.4296257421374,202.48103836004157 1528.1058648177423,204.47395328682614 1534.7171364977257,214.49582658614963 1539.9413751467364,216.51809738745214 1539.7980697599705,217.47732081852155 1536.7298198755598,217.4755075457506 1537.9598577778088,232.22598250536248 1537.9540323555702,232.37012788496213 1527.6188595199492,233.62301012210082 1526.7625224533258,233.12394320603926 1522.3308324977988,242.51717893849127 1522.2274312532973,242.71344306715764 1536.0957226667088,257.7205527962651 1536.1935897599906,257.7318836573977 1534.7185928532854,276.45011458802037 1535.4814318933059,281.1365586856846 1511.2840843377635,264.5280279163853 1511.122137599974,265.3800803941558 1506.0446995911188,254.58414779562736 1505.8737234488362,254.4808088276768 1427.554125653347,254.78901262226282 1424.7992834844626,255.88267933262978 1417.1537080889102,223.35723186429823 1416.563884088886,221.1537004201673 1375.3306717866799,239.87643468845636 1371.8097865955206,243.0252896330203 1357.012922880007,279.2340766619309 1354.3649772088975,281.35136861819774 1321.4726044443669,264.4895041884156 1315.1858087821165,264.12964691768866 1303.217478826642,266.9001699948567 1302.6052269510692,266.9948919832241 1293.5702883555787,280.59500105894404 1291.9540249599377,281.79367701045703 1274.3720268799225,282.1385500415927 1269.2045860977378,281.40665721637197 1180.9989555199863,393.139356132946 1178.3437280710787,400.6351435772376 1139.895358862239,410.3640185127733 1138.4666740621906,410.78296636161394 1084.7265715199756,395.19711111841025 1081.2292792889057,394.59242396295303 1020.6626557154814,428.5954308984801 1020.036422826699,428.99441705679055 999.9468717511045,392.32721019757446 999.6413283555303,392.0404897998087 985.9690624000505,395.65141804213636 985.7418709333288,395.59887611330487 979.8299411911285,382.8833568423288 979.270409386605,382.434459000011 969.8973050310742,383.18956715078093 969.6433166222414,382.8906044285977 967.6332546843914,364.7849291614257 967.1779979377752,364.23316012503346 945.7579204266658,364.3373530714307 945.257807928836,364.1484466927941 932.3967320177471,349.68371147930156 932.077207608847,349.3335088280728 930.7329914311413,339.39395205280744 930.2127812267281,339.01518974703504 919.940522951074,350.5295414344873 919.6445915022632,350.5399613865884 915.8953497599578,342.2051995432703 915.7034020976862,341.9673435856821 897.3757499733474,331.517735291156 897.3338069333695,331.51954761496745 924.1788088888861,293.29383315856103 927.8791170844343,288.0139968365547 905.6833846045192,259.0254108804511 901.1747990754666,253.1373977829353 816.001883306657,243.26823955512373 815.116127857822,243.1803062191466 806.420811377815,239.31619028793648 806.1033258666284,238.84251974744257 806.0692471467191,224.2593088670401 806.0203135999618,224.12286429386586 798.3397856710944,217.67859400785528 797.6209285688819,217.26335452136118 788.413848746568,225.915675705357 787.5438219377538,225.84269429004053 777.6120595911052,212.94227829447482 777.299525688868,212.7682004100643 754.537853440037,212.3602048230823 754.1696867556311,211.9490351638524 737.1413950577844,187.85504162951838 736.8084721777122,187.20761421712814 751.2732868266758,176.75465944118332 751.4401851732982,176.63042698986828 754.1999789511319,166.3007494622725 754.254737919895,165.86772840068443 748.3652360533597,145.50660469272407 748.1729971199529,145.2730685234419 732.6797041777754,144.82549462129828 732.5570790399797,144.52348374802386 731.008099271101,133.67076699458994 730.9999436798971,133.2322391149355 742.0440704000648,114.2635891137179 742.2319402666762,113.81050905433949 733.2342843733495,108.55579996807501 725.5674461866729,102.74989286682103 709.8399712711107,105.77464419626631 708.2979820088949,107.55482382752234 711.6741054577287,117.84193603240419 713.0191954489565,123.56898283294868 696.0881883022375,137.0587845747359 694.67523214221,138.0623459847411 676.6659393422306,146.8905847730348 675.6692095999606,147.2352180252783 650.8001908622682,143.22292763390578 650.0481288533192,143.30273883254267 630.5542271999875,162.41713189339498 629.8543027199339,162.63341924652923 616.9442932622042,158.9147885381244 615.7655190755613,158.86536355892895 591.3304942932446,165.47415458405158 590.8714510222198,165.37666787207127 567.630055253394,145.8902383222594 567.4491758933291,145.82720636576414 480.2542560711736,163.3008706884575 479.3245186844142,163.47226753568975 453.19750001770444,179.87858355155913 452.3388327822322,180.31112335785292 456.40439495106693,197.77612726925872 456.96742200886365,199.42272170633078 437.109722737805,203.38138844474452 436.12580892443657,203.33152020914713 434.91761635558214,215.91019415075425 433.8838951822836,221.49730954720872 421.1151522133732,250.34403715864755 420.70329486217815,253.33773153461516 395.75097258668393,257.17485783045413 395.11571029329207,257.7572647839552 381.41344341333024,288.5682247878285 380.62468124437146,289.7482769874041 365.8732558222255,296.31412658438785 364.87040938669816,297.2362933520344 317.00320625770837,351.26256120362086 316.10842140449677,352.30862779018935 302.0621633422561,355.0653448248049 301.20728263107594,355.79427206062246 296.56908145779744,369.174569012539 297.0508438756224,370.2264386168681 288.0715380621841,379.4520506612025 287.79395669326186,380.4975289477152 302.00886072881985,384.0144303526613 310.74058609770145,393.2847539424547 311.3170116265537,393.7762068795273 309.6092891022563,400.9146056806203 309.7584199111443,401.2230553331319 323.36456732440274,409.64659675851 323.56234040891286,410.0166308749467 348.3512595910579,418.12008460995276 348.7508835555054,418.06301908777095 362.35906986671034,415.22874602134107 364.1966993067181,413.8269946001237 379.26415388437454,393.9324750927044 380.19942542223725,392.55821687873686 389.2763070577057,366.6227901680977 389.5445677511161,366.05607648484875 396.67896234663203,363.312635929673 397.53326051554177,363.2102545534726 425.458587022149,396.96858570352197 425.4952871822752,397.01116251706844 419.355874702218,411.64078787667677 419.1729564444395,412.86184161144774 426.4896867555799,446.8674325388856 426.6160984176677,447.1341558279237 449.47680284443777,458.98874805978267 450.670140586677,461.67936407844536 447.5782977421768,471.4897334818379 447.11080760881305,472.0607009527739 435.6909411555389,474.5274805772351 433.1586301155621,474.3662895159796 434.95839431113563,483.4666061181342 434.9283933866536,484.08825177536346 458.3069778488716,485.0915741654462 458.6608722488163,484.865645925398 486.03831779561006,502.8848382518627 486.05725041776896,503.10214605438523 503.1472915910417,498.6341635287972 503.96343324449845,498.49970159551594 503.15952497778926,503.5281592636602 503.3782695821719,503.59968956152443 529.0546918399632,503.52906471060123 530.2963805866893,503.71694487234345 546.3693030399736,518.3964494117536 546.441829546704,518.426327121444 552.9368840534007,543.6434646671405 554.2406135466881,547.7552093019476 582.11584142223,524.2519495821907 582.465075484477,524.6235999093624 558.6752162133344,575.6070238484535 558.6449240177171,575.6880345488898 557.2957562311785,566.8513547467301 556.465924835531,566.3783955901163 521.1393993955571,561.8270730284275 518.751267555519,561.6292856756481 469.1239131022012,573.1848352582892 468.9118677333463,573.237786978134 472.62382677337155,578.6333640457597 472.80470613332,579.6000461862423 468.82856419554446,605.3535777310026 468.35903516446706,605.7762236184208 474.3437826844165,610.6890825724695 474.36329784884583,611.1053831168683 470.05685447109863,621.7397825744702 469.9653953422094,622.2596792849945 432.3299638044555,618.2452662545256 431.84878392890096,618.2647231235169 416.4842328177765,656.4063512220746 416.1143185066758,656.7117251772434 369.7558997333981,673.8038416625932 368.8249972622143,674.6239870964782 344.4033709510695,667.9283797793323 343.41654442669824,667.5488307183259 321.2365405866876,695.3374045304954 321.22605482663494,695.4224416957004 311.99975111114327,694.2527254412416 311.8008129422087,694.4083261090564 312.23014656000305,705.3711088796845 312.20859249774367,705.4556898289593 304.53855032881256,714.0791560921352 304.00552419549786,714.8946272605099 281.03268039110117,717.5368595455075 280.3918839467224,717.5535938828252 262.39220309327357,708.2079450676683 262.2853065956151,708.2029697813559 240.96513507550117,759.6730190427043 239.67451278225053,761.7051606918685 212.5696969955461,771.2176290620118 212.42551779549103,771.4066352596274 232.54856504884083,783.9968827472767 233.5787909688661,785.4098208290525 211.41771975101437,804.3386916423915 210.89401429332793,805.2541912113084 224.86366805329453,813.6300427716924 225.24523320887238,813.8135872765561 235.46943175105844,792.40836387116 235.87517240887973,792.1235254263738 260.433696142165,824.8300435689744 261.01274311111774,826.1071009951411 247.0308559644036,837.3453361380962 246.5543364266632,837.8552266504848 239.691697777831,858.1102060431149 239.23644103109837,858.9179073127452 227.3959790932713,865.5475437755813 226.4642028089147,864.8492448150646 251.14564295113087,896.5267187491991 251.2251599644078,896.593601207016 240.78833351109643,907.7075541659724 239.8518968889257,908.4956409160513 226.95907242666,903.1493383402703 226.25681777775753,902.6454749934492 215.12647480890155,907.2963380463189 214.81102819554508,908.4481931130867 239.16566215117928,942.312907817075 239.22420764446724,942.688364753616 230.71938247105572,954.5896987237502 230.55219285329804,955.0938939764746 200.81166478223167,973.2161391323898 200.55709383112844,973.3331423093332 194.17942158225924,966.3426571340533 193.82290574221406,966.1791184825124 179.14866716449615,968.3267958768411 179.0056530488655,968.5341535981279 171.73494357336313,981.7287471459713 171.21065557328984,982.4989492326858 176.29799680004362,993.6943541939836 176.30527857784182,993.7544312792597 169.90954751998652,998.5447351349285 168.65213013323955,999.3704364866717 170.8547222755151,1001.0286052071606 171.59163818659727,1001.5665700709214 166.32924302225,1034.1866258323425 166.4186632533092,1034.7683163998881 191.09835576883052,1046.3290950112278 191.11845347553026,1047.076489418163 177.0643310933374,1046.0292333337711 175.999443911016,1046.2030989649938 169.74963967991062,1052.9580102753825 168.34571292449255,1055.493193153874 172.37049713777378,1068.0164925542776 171.99038833775558,1070.506797326263 161.37035235553049,1075.5613739542896 161.14782122673932,1075.741989142727 152.87106133333873,1093.9729693388217 152.65173418668564,1094.3441021015751 145.80453290662263,1114.9816128630773 145.54064128000755,1115.8547283175867 147.98760988446884,1129.9672029629583 148.20344177784864,1134.9215438246028 123.854633244453,1151.6052221276914 123.30238321772777,1151.7379280971363 120.06606990215369,1160.6191144449986 119.8950937599875,1162.0959670996526 97.16604387550615,1167.240048593725 93.73865671118256,1167.7545854856144 86.22502712882124,1182.2121253886726 84.5094402844552,1187.6287739000982 77.88564394670539,1186.4707181910053 77.7676791466074,1186.2567976416321 74.66942833771463,1209.4533205160405 74.1460141511634,1213.9640837532934 64.27716636448167,1213.515087384265 62.346038897754624,1215.6152091993135 61.72970922663808,1228.3396024376852 61.298627982265316,1232.2205325355753 42.87835164438002,1232.2164716053521 42.29144035547506,1231.6492942732293 31.290421759942546,1251.1716207950376 30.480396799976006,1253.7500726366416 20.490962773328647,1251.7112258324632 19.346267306711525,1251.8984630549676 12.341197084402665,1258.6930354062933 11.707391146570444,1259.275933102006 5,1296.6444611675106" stroke="red" stroke-width="3.295491917755535" fill="none" stroke-linejoin="round" vector-effect="non-scaling-stroke"></polygon></svg>