<svg width="181.82548878225498" height="181.95466633798787" xmlns="http://www.w3.org/2000/svg"><polygon points="5,47.91550114232814 32.65007530665025,70.4456649881904 33.05639850674197,71.24166587297805 32.960279040038586,78.63401507231174 32.3873487644596,79.6547731696046 18.52517404453829,89.61105662648333 17.638544782297686,90.38073210598668 7.022004053345881,108.4394499345799 5.431081244489178,110.32132369198371 18.30002147553023,127.20080288866302 19.85686556447763,126.71356353280134 18.654207146610133,146.87412867404055 18.93848775117658,147.52755749126663 35.26889386668336,152.00802729319548 38.72599068447016,151.66221017733915 42.62640213337727,165.76382285606815 44.764914631145075,167.34590866306098 71.78205781336874,175.49742627725936 74.06358442676719,175.8924705280806 99.79505692445673,161.19707346294308 101.05829973332584,160.40186532307416 129.8067584000528,154.51760225120233 130.3884268089896,154.47615996620152 147.51371178671252,159.21894749539206 149.63824327115435,159.11672540864674 169.04301596444566,176.26173035003012 169.45632967108395,176.95466633798787 176.75995278230403,144.7770646662102 176.82548878225498,144.02600318123586 154.98685468442272,136.58063649811083 154.5942212267546,136.2283474963624 157.6866466134088,115.55879671598086 158.24676095996983,112.68170255917357 170.14780728891492,96.52375854324782 170.70151367108338,95.00471499777632 163.46488291560672,79.3991234683781 161.61560263112187,77.75558805424953 164.46394282672554,73.6996685587219 163.82489400892518,72.74659700837219 154.84733582218178,67.69004198646871 154.4981017600512,67.43069283780642 136.69998051552102,77.47966818348505 134.784290417796,79.8966036887723 129.69694919115864,67.75130914646434 128.80653340439312,66.80558179493528 95.57599488005508,57.554002661665436 94.52188472892158,57.03251557529438 96.04523263999727,37.44681303267134 95.33948273782153,36.61797600321006 52.753607395570725,9.038782078016084 49.738951395615004,6.584649252647068 30.797008497756906,7.963316873123404 30.5284565333277,8.139335967425723 34.96043775998987,12.609804113162681 34.37323520006612,13.5659064159845 12.85470805328805,31.05192330875434 9.17886663111858,33.057027320435736 5,47.91550114232814" stroke="red" stroke-width="3.584064339327953" fill="none" stroke-linejoin="round" vector-effect="non-scaling-stroke"></polygon><polygon points="5,47.91550114232814 24.941876622266136,61.17535475146724 26.150360462255776,61.878795678843744 33.35757283563726,73.90603632363491 34.00710741337389,75.42522865079809 7.022004053345881,108.4394499345799 5.431081244489178,110.32132369198371 18.30002147553023,127.20080288866302 19.85686556447763,126.71356353280134 18.654207146610133,146.87412867404055 18.93848775117658,147.52755749126663 35.26889386668336,152.00802729319548 38.72599068447016,151.66221017733915 42.62640213337727,165.76382285606815 44.764914631145075,167.34590866306098 70.37987868441269,174.42969815729884 71.78205781336874,175.49742627725936 99.79505692445673,161.19707346294308 101.05829973332584,160.40186532307416 124.16075918229762,158.1423899314832 124.60028728889301,157.62713229091605 114.44016839121468,129.073762819462 113.25877276447136,128.69014584628167 125.03224234667141,113.7216427391977 125.11612842674367,113.48860077926656 110.43460807111114,106.78876690904144 110.45616213337053,106.53130711620906 134.6939963734476,80.57925523252925 134.784290417796,79.8966036887723 129.69694919115864,67.75130914646434 128.80653340439312,66.80558179493528 95.57599488005508,57.554002661665436 94.52188472892158,57.03251557529438 96.04523263999727,37.44681303267134 95.33948273782153,36.61797600321006 47.00770218670368,5.640957237454131 45.52687985775992,5.241453561291564 30.797008497756906,7.963316873123404 30.5284565333277,8.139335967425723 34.96043775998987,12.609804113162681 34.37323520006612,13.5659064159845 12.85470805328805,31.05192330875434 9.17886663111858,33.057027320435736 5,47.91550114232814" stroke="red" stroke-width="3.361807623882229" fill="none" stroke-linejoin="round" vector-effect="non-scaling-stroke"></polygon></svg>