<svg viewBox="0 0 558.2268291377834 520.0783677441643" width="558.2268291377834" height="520.0783677441643" xmlns="http://www.w3.org/2000/svg">
  <title>okres Plzeň-sever, Plzeňský kraj, Jihozápad, Česko</title>
  <desc>Geojson of okres Plzeň-sever, Plzeňský kraj, Jihozápad, Česko</desc>
  <metadata>
    <collboard>
      <support-module name="@collboard/map-svg-geojson-import" version="0.11.1"></support-module>
    </collboard>
  </metadata>
  <polygon points="8.05255000000011,161.56219178844879 17.56378968002514,173.21402310439555 17.63922889778746,173.51238376835647 16.53989890666685,174.00327179172712 15.9009957244632,174.13875474934287 16.985470888910413,179.0198780512652 17.043288204447663,179.51863865827147 10.15756632001262,179.77871215403832 9.934015742219117,179.75551156623226 14.064822639986005,181.12783764284507 14.222982853337953,181.15103764647904 9.686144026672764,182.55071520466993 9.757359813323774,183.09425752923528 14.59872258667724,185.93172526588717 15.444209804445336,186.2220951032574 15.587223920017777,189.91563192805154 15.61897247113643,190.28382901261614 9.844158604457107,194.8124271063058 9.834837928887055,194.85598689912115 25.12191092444823,201.60020692436194 26.274252257782564,202.28824876527472 24.9009089689132,203.74914932670765 24.754399600009265,203.88761270432553 25.55328344001441,207.7608248152461 25.548695920013188,207.7953250301722 30.030120417773787,211.35020065050742 30.037183742220577,211.39103264055268 28.287955084473424,214.73089539696923 28.334048737778858,214.83483514928196 33.434424346669175,219.2260238515952 33.53789840889635,219.4671348480839 39.099574640021956,217.99364954212035 39.160668755568395,218.00111376330426 41.92424905778148,221.1621195861877 42.295182817768136,221.20939022281493 40.16184038224287,222.96108898802015 40.07926502222085,223.05483551511827 43.1951377333387,226.6376640293962 43.17183604444267,226.6573393093346 47.72272870224674,226.3894608937477 47.843242124457674,226.50830454064237 48.60076546666801,228.63048507023598 48.531297306682745,228.80461599578086 45.477028435568855,229.6309388084552 45.46989229333826,230.33490893053352 48.50115074669134,233.77016632912967 50.39710722666473,232.96165715985228 52.0053606666695,237.00747480217944 52.24551369780215,236.9706189106288 53.072650835565355,250.57960289133882 53.084592951119475,250.7457519127562 55.69197911999777,253.64457530766197 55.72205286223448,253.80551607312339 54.20933634666267,257.3788664694945 54.227467973345256,257.5813847286696 63.18602072000044,261.8192910774011 63.3521180711175,261.86505744877616 64.03179920887465,260.346836469536 63.367045715574704,259.6124023911176 67.61567177778466,257.93420771258354 68.23804532443296,257.94177948126855 64.38503824891063,264.64283480805864 64.34527974224306,265.23606890753547 68.08614744002239,265.929071164173 68.44477499556501,266.04918463390607 69.9677588177799,270.72221820940433 69.96826854223741,270.88469039217273 68.2619295555703,274.35524280415086 67.37996063111473,275.3985798029677 71.9534268000059,277.9845234678429 72.34591462222284,278.50463468726196 69.889843795572,281.56826481821884 69.54803714666173,282.76452502662835 70.15002171556239,288.0643539747613 70.17237677332719,288.12353926948674 67.01070168001002,292.32090060546 66.88895035556175,292.6523793459561 64.20394043555257,290.7567681369179 64.0748345155514,290.62846414144553 61.60456422222319,292.5603334921394 61.47982736890094,292.7094138155004 58.7850598666771,302.3944706135586 58.57476212445886,302.99068203995523 54.688987048902845,308.4737151485093 54.688258871123026,308.5909123571397 61.48616251556791,314.27332025797625 61.61089936889016,314.3264937204291 74.10941556446028,308.53547517324444 74.25512393780059,308.464569691008 81.41070850668598,315.16518252327626 81.58765570668743,315.44075372761984 84.69136784889974,312.6552868656505 85.31468802667928,311.9520392892224 88.99315088889102,314.1725050372694 89.03786100444972,314.1399912421981 88.08940944888286,319.74393204738556 88.15960578667705,319.9052424285834 99.974071777782,333.03717608385307 100.30808692446567,333.45011496036716 99.08882605334634,335.56915664858354 98.97457495998947,336.2698431362729 106.27171728888766,343.8120641003112 106.46235423113808,343.9116962793265 103.6729236177996,345.4659573064488 103.75804759999278,345.7971135590848 111.67938392001793,348.2305709014687 111.91400280001812,348.67667794452393 106.87763401779353,356.75979077180784 106.61825709333766,356.98653254139174 98.24617872888462,358.6411549322871 98.10156262221403,358.81780445735023 99.09210285335553,364.9267516151664 98.93503490667331,365.2042148558754 91.51235472888925,368.6000928513746 91.15780496889033,368.7590033577941 87.66772169777664,387.13999180819485 87.60859366221825,387.6373049967875 103.94366011556826,389.5678880559059 104.2691555822164,389.71873312378705 105.4088994400006,391.29762082461787 105.42142409779603,391.3474500259541 102.94044959112193,395.74903811368097 102.52415035558056,396.1390708246687 102.76000713778899,400.3847237358492 102.94947899555677,400.7001051563926 105.47858605333727,398.9522965832217 105.72099643556408,398.9277236148988 106.64010242667405,404.1765067857265 106.65291835554649,404.21291185804114 109.25797435557593,402.38834544861277 109.77432521776768,402.34788149286 114.90987181335345,405.7073022445762 115.59566964445526,405.74009970497684 116.90187494221732,413.02233923531423 117.55548731555587,413.72304739738286 124.46247199111508,411.64580131041987 124.46735078222241,411.6703685620229 118.6107625511138,419.44140531551204 118.48267607999855,419.59633703171096 114.49706783111446,416.55441190874956 114.46531928002491,416.49040751731775 101.37319256002206,420.2090735827147 100.72489588443545,419.8378042783512 93.24731110223343,424.95287337435695 93.1980862844573,424.97709664786055 89.38134246224195,429.7467317691404 88.79137282667921,430.4684047745319 89.69424045333994,432.5280382424022 89.58639732446295,433.2972125331795 87.78284660445183,435.7845634098845 87.18894480891299,436.5214761274034 74.94915017780272,443.93859958041105 74.3224075644464,444.0025718507892 77.44563487111714,451.82047861726426 77.8537785155711,452.2156294432567 90.12437506666879,453.9312198321783 91.2347733599961,453.93257111289824 91.57199248890515,458.49182734969474 91.5106071022526,458.9798220373556 97.67980205332401,458.5790902172954 98.35132760002284,458.8055226348439 97.75822679998942,460.933558731114 97.3031885066664,461.29723069108843 99.45065759111435,461.90409585367127 99.47024557332747,462.03920406447253 84.23050413333817,469.37136398199766 83.91731487113407,469.3866741726448 84.26684020445805,473.5792536760779 84.32138072001521,473.63745041644836 81.16407469334786,477.063294513871 81.16356496889034,477.11743542423176 90.67655227555201,484.089909223541 91.20368016890257,484.3075701764243 89.90249929778633,486.2757080866355 89.81286061334663,486.42302297255776 76.46223078223534,483.9452891354373 76.35875672000816,483.7816485125437 74.24594889779814,490.62206196746376 74.20262232001528,490.7482093341747 82.37168472001918,505.54459458155145 82.43998779558001,506.01169488732523 93.76176870222093,504.60205682733033 94.29028013334732,504.74527231102513 101.72541215111391,511.3363791487278 101.97124496891752,512.0258177441643 105.10961837333866,512.0149064814246 105.19146555555176,511.9728362315724 104.66317257780588,503.455081913438 104.6268365066569,503.22343393984886 108.2290591555718,502.0222014047828 108.65162072002545,501.9294949039537 108.31542104000232,500.0898459294036 108.28527448001091,499.9469557995104 122.18189200887696,495.51346352097573 122.2764094844531,495.392278081206 119.90764717333491,487.2743804535345 119.6391680266604,486.8649652508244 121.92906868443947,486.79969261543704 122.88210776000756,486.8192744142358 123.95245627556119,483.1452011343132 124.02782267556881,483.0648427957709 128.77991085334338,484.25760052027874 129.05741940445273,484.27020548289113 129.27077549332876,480.6423323783016 129.2727415733459,480.61925926300285 139.021585662216,480.8392976007814 139.93464777776512,480.7414903875102 140.13234804446233,477.4875281957717 140.2015249333415,477.20309276341106 142.40411707555882,476.987767291626 143.67558829335735,478.4471914031525 144.04732304890763,475.3912032227887 144.2287849511265,473.9387892212759 151.67360173332395,473.26249122225965 151.72828788444872,473.2523601966601 150.43642768890254,476.3729650704696 153.4368842222391,479.8384818157716 152.8823040266941,481.6243376571289 156.17978427556932,482.19845086026874 157.37304920002475,482.2960303725191 158.9025138044451,485.2834323994099 159.51061506669043,485.79527198624385 163.781669004449,478.58653589282005 164.82208941333352,477.2039932340773 160.82708767112467,477.2227905556862 162.37533926222363,474.4784258023934 172.38909442665295,472.3804095650481 172.85367184889742,472.28877852131666 177.43667714668095,481.80430439272425 177.4643479022268,481.858215513486 182.1179136266653,478.31043535944593 182.37299430222606,478.09218776354794 183.95263035555377,483.19618472491095 184.09833872889408,483.75294945330063 187.95345752000117,484.1872602738073 187.9992599022296,484.16463883133076 188.22164539556957,489.87552467604803 188.2342428711197,489.93955578366115 185.9023263555498,492.6175419380521 185.84188759999938,493.7702577130764 191.72920493334072,494.36438521734783 192.02455383999745,494.45507911360585 189.4851794755739,497.94780500197487 189.30393602667732,498.5020568494725 192.87091487111297,499.59816730152636 192.89603700445855,499.6653373883088 197.75283714666853,497.1260932427464 197.82783945778624,497.1160791523504 202.95093421333127,500.1471143885643 202.97343490666367,500.1634285751858 215.64168934224995,498.29502880150505 215.74967810666544,498.2422590270795 217.68379110223736,500.2418491147906 218.34723387557437,500.9606800734542 223.7165255377838,495.67841931507394 223.84111675556755,495.53101682147064 227.5681490755594,498.6821931170922 228.04233844445093,499.0840940080303 232.880497235579,496.1583185762644 233.32570512890356,496.4221769866923 235.48635423111386,485.0637495604093 235.3496024444537,484.8277470851532 241.38546804447083,482.2689062118367 241.50918544890715,482.2466216216195 240.10584123555577,479.67572934019665 239.98824052446412,479.5268205307581 253.19032208889962,471.1121952665195 253.76135910224525,470.5363897045096 252.634940897791,464.74512607853796 252.63741670223658,464.73600673593285 259.55845520890557,463.7150810882955 260.01735284445,463.8474827548413 258.80551938666736,462.3552433843357 258.60359568888794,461.87639862923936 259.99659977778333,460.77660482253816 260.13466228446464,460.4363488201267 259.388207244461,457.6035397347947 259.3732067822491,457.4712355536973 254.4336856444495,446.4456258701026 254.31623056889634,446.2927974130067 260.93289076444466,439.3538004284561 262.6782600800286,437.42193349074626 256.67385175999493,427.37041582479253 256.5868345155684,427.1676248713553 261.4899467644643,425.4774456784868 264.215370551108,425.047062414778 253.63960777779698,425.99559108711367 253.5064968800068,426.0536131526675 251.64986199999817,422.5043520539981 251.63915778668138,422.44779095230444 248.6675370933442,422.7399475672788 247.74479021333514,422.8368445186421 249.60717769776943,419.6157175500481 249.791770764459,419.23295104095416 248.04596454223042,419.62045000114415 247.52109400000313,419.7011269617575 247.48446665777715,415.81666660459416 247.47463625777868,414.3881371226813 249.1663388711238,414.2357824815623 251.52687277334167,400.17371699453327 251.62335632890586,399.8510058567841 250.58832443555707,400.05874502981135 250.1907393688814,400.1233322515251 250.33892354666727,396.69717348438974 250.35334146669607,396.58129240718665 252.2764589777869,391.3396712622267 252.3101736088936,391.2012316296965 237.75724944889203,386.4879871806694 237.02004226667464,386.48934012931534 235.2715417866782,382.7788652523228 235.03772390224162,382.1879216135636 242.47154520001618,370.89280300208304 242.60363664889132,370.96813859120414 243.54247625778203,362.69673062995537 243.6048082755658,362.2476925832667 249.52190808000864,358.6404781130765 249.69011714668136,358.1673794392333 256.89121282668907,359.5065742251387 257.42729730669066,359.47735865145626 258.71653606222367,365.9066642728791 258.79073737777776,366.2278841183212 260.57047668443533,363.4869654637365 260.73103988444905,362.9557069360086 260.81732895112486,366.3928920335817 260.35886822222506,366.96257718464005 265.87612560889806,371.2398195162019 266.2023492533551,371.4569151747197 270.9596074933431,369.4346780012635 271.0819413600036,369.3741146160097 276.6208984444454,377.27453198626574 276.90969375114196,377.4309364490251 279.2739413600136,374.420043705533 279.54977510224103,374.3061452550388 284.3280776800018,374.5802905293891 284.5179864444433,374.5808543808449 292.7028503022227,380.09402866167477 292.84965094223276,380.25132712309244 295.9552563466784,378.8560344990907 296.0583663200157,378.7468812864314 298.1301049155661,371.4800344018073 298.0817539111083,371.28109595197714 303.93229826668517,367.6375973370956 304.38609865779995,367.2924752936011 295.9982916533552,352.75973071261944 295.8471219466662,351.7458497933618 306.13015725336277,351.20985150854506 306.7614873866912,351.13392457395787 313.6684720622213,346.8696624131186 313.9287956178084,346.81448973218323 330.3382818400057,346.2883719811722 332.06814096889116,346.07219174081513 335.5013535555697,348.59262416467357 336.18452994668746,349.32473388540495 336.5700272622414,361.70751105221973 336.68289481776424,362.27352280455636 339.2000597600197,361.5202679301507 339.25365364444565,361.5195911466068 338.3659321155644,372.4929852746351 338.36746128890786,372.76533526181413 340.69129503111594,375.2352564758836 340.8056189422275,375.6114523747161 345.8114770755417,376.7220947598904 345.8937611644576,376.6716883907426 348.12009190224467,370.0162860874767 348.9490494844574,368.8786652580526 353.2289143733576,366.94881728861185 353.55127867556416,367.0282186081673 356.5557401866606,369.18486770206766 356.57190573332605,369.58467641314894 351.65459401778185,377.68736211934413 351.88535355556064,378.12477146853746 364.2660505866877,382.56429515657476 364.88267152891035,382.37746175956966 365.8372397777928,380.67834224027285 365.8049815022166,380.49037481401285 362.99377837332554,378.7690953360212 362.8319044533489,378.4970007968583 363.651759813343,375.5481893966422 363.73098555557203,375.16579076284654 371.13393211557536,367.4289453818561 371.6227578577889,366.68354386158865 373.6529175022513,359.46810892987526 373.73323551112094,359.1916317731444 392.07297538666876,352.05372771809164 392.2082708177984,351.9907759053964 395.694713200013,341.9412471956963 396.08137559999136,341.6339892940374 399.98863192002295,341.90389790661686 400.3061174311222,341.6871361204463 408.9230091644347,332.52954702622776 409.1905416800071,332.4715384253283 411.288421857789,335.750169126222 412.0532997955522,336.0759675041114 424.69330093335134,337.16473163334706 424.7595651111112,337.07885457127816 425.93761112000334,331.60591637939035 425.95253876446054,330.64220445558715 423.5890921511234,326.2675352876755 423.43865062224336,325.9770069218281 423.78147672001046,320.11226988920646 423.6490211822163,319.8653946320625 420.2518533955515,318.15507270234923 419.6883894311102,318.1083375249797 413.87549186667434,320.98744327825955 413.1224104088976,320.56921758001374 414.70670680001035,311.0105607411748 415.4356127555436,309.1534102942311 421.9206912266743,301.6522460398188 422.01943213336176,301.40731987871516 419.97441766222596,292.90965515452956 419.9421593866789,292.235065918641 421.789619226656,289.25651867256204 421.80352742222726,288.88401941631275 418.43847227557103,282.8711592246178 418.45733208000433,282.46506707043557 424.654780328892,271.23991300653836 424.87971444446134,269.73472040630406 424.45991995555937,265.01990644830914 424.152774568887,264.31321985518264 417.85855149335816,254.33207386920515 417.814642373334,253.96713448200137 423.96031718221616,243.92825324915577 423.9584239200119,243.88699345109455 431.8922120799905,245.32677238556028 432.27887448002707,244.98878890934395 440.50327839112265,231.19252809700959 440.7062943555718,230.16112209817913 439.21141819557647,227.64493878195174 438.79744912891306,227.5809387169062 429.948341502233,229.7062434669275 429.15229755556334,229.4214194443117 425.70677876444074,227.38633735104634 425.2440946044587,226.88993676500797 425.29353787558625,223.73898804058956 425.4490038311412,223.4364919081196 431.8405114577979,218.23668858192798 432.51618761776604,217.97973894542486 442.35889382224536,218.60695630708472 442.743808595558,218.33621100312268 443.63954007998814,217.31259160850425 443.9738464977779,216.51673149811506 442.86126367111115,214.35313663076488 442.4645524177829,213.81239415377024 447.4050930044393,206.5984376020857 447.9324393511122,206.29697754856136 465.0250291466725,217.30444871892507 465.2141369155795,217.36687750802196 475.58258747554623,212.98605780913897 475.65081773335237,212.81391225314985 476.8934531111224,219.8298171580169 476.9921940177808,219.86317883338018 482.0408690044494,205.7133959201816 482.0136351555482,205.53376147310303 470.5377718311281,201.83607887232904 470.41281652445446,201.73675258410333 469.0696197955765,188.81645718245238 469.32113240002195,188.32309997632512 483.32821449777816,185.7660576040431 483.77138349335996,185.92380400935474 496.26851615112514,199.88798355882284 496.69297097778303,200.22749112493295 506.9205191377912,204.09055594096537 507.20654736890697,204.02833819509362 513.3418092355785,200.8130546879471 513.5905547644431,200.43825400512253 522.0087267822307,176.4507415762415 522.3104836533382,176.18205044020544 535.2830435822323,169.2037659552949 535.6292192977924,169.13890487352148 546.0282533244533,171.82361370210822 546.4144788177871,171.78761923967215 550.016337377783,166.71125640496723 550.1742791377835,165.7353442973905 549.6620060711355,159.88210851808947 549.4709322222404,159.33720246131236 545.5858853244642,153.14800955267094 545.4252493066667,152.62183232466452 541.1938810577919,150.73425567396737 540.2031223733281,150.41131159345207 534.9894423022122,151.88662503151102 534.4141090400005,151.69503696425056 530.6189192800155,146.19327323525033 529.5243952622475,146.2886240550066 526.2471583555814,130.4528911122976 526.0357683466643,130.0561968324688 521.3570804889093,129.12595893735818 519.6399644711125,128.4929530976002 517.9682139288996,124.74721589840885 517.8803956889094,124.45912388399995 509.66465709332965,123.34333354944067 509.4123434933497,123.4160662385035 506.88957158223616,127.75017004210497 506.257149182238,127.9907798458513 499.5753170755704,126.051937570424 499.2209857688938,126.14664394401882 498.0800768266852,127.40964418113401 497.9133969333268,127.9192993607063 500.2651927022159,131.00567558182922 500.02722420445184,131.59526840778528 496.56371942221426,130.95220978804684 496.4002435111104,130.96036559050083 492.45424813332625,134.28284730077542 492.17113261332975,134.4061961394542 469.20120152002323,134.8823721394798 468.75177019555827,134.8531492793478 454.50628269333515,132.84534267163656 453.9865093955666,132.75155411560957 452.385173644441,130.75159931847122 452.236698195549,130.5682060405594 453.47372660446104,129.23923766017072 453.32481424889534,129.0160783511452 449.08543604444253,126.9823412530892 448.95960692445055,126.87880021926651 449.79832208887797,125.27445545762714 449.4040138222115,124.69770904251311 443.5455323288986,121.32717193321844 443.4288054311253,121.26519949864417 445.64428631999886,119.44916059246282 445.60671234667075,118.73888471919747 435.58210733332794,112.02088682506985 435.5057943022182,111.75935650234862 429.54798936000566,109.55386257726752 429.5113620177797,109.53618472310302 421.09129673778784,111.08444835850207 419.5185783733393,111.458504425878 415.49670687111916,102.95021808871354 415.4528705689079,102.86329137514224 405.1971419288964,101.61898882572825 404.8481991377846,101.48615878372914 405.332437360026,96.03656093720167 405.66907394666464,95.36021103057249 409.88558736889513,91.78630980144192 410.05772859557305,91.10775328752754 431.1215815378016,93.9306333522178 431.1922147822113,94.01791438479961 431.232628648904,90.29837144303713 431.26459565334494,90.2158455593086 420.54720230223734,89.0290687062876 420.4562528978056,88.95753705579375 418.81930925333995,80.92385528765556 418.9259872977925,80.50990636974859 402.8106848977984,81.83337537786394 402.7551249333262,81.68961280467158 399.00508219557355,88.21058683640842 398.9093268177892,88.33120599037613 395.1812750488823,89.88710109942588 394.7005320800015,90.05974886846491 388.64638921776327,86.31102664226603 387.86651081778814,86.42019986674825 389.42765115557245,82.55479019128654 389.55144137779257,82.31840119482479 383.67278935999616,82.21046688479657 383.4839728622244,82.2450467028026 382.88592045332894,78.32094748339262 382.84128315555404,78.0383923507103 380.4444131822454,80.699704210179 380.0078706044367,81.1573024947935 364.12208984001313,79.36362218984107 364.0754136444664,79.36418910192845 363.9937849155756,82.50150355269545 363.97004632000585,82.75421780770523 361.4090450755682,87.30876880924154 361.13444923557813,87.66076869804931 358.74435131555197,87.71246317601583 358.3023474044528,88.2546854114695 356.39321090668795,94.47891460815265 356.3651032444393,95.08556545705471 348.9266216088797,94.65324807419495 348.7461791555759,94.58625784217259 348.2337604533311,87.57087007007033 348.1689526311309,87.41034453415307 332.05670857779455,90.29202330257215 330.9782772888791,90.3263712680124 328.7246398844652,84.42432455482015 328.78544272890554,83.46587026485179 331.01337545779074,85.2231369420548 331.44897140443913,85.57186260251149 331.4596028000012,80.44822759813508 331.50948297777336,80.2076343687146 333.5789642222296,80.07565912014218 334.2856607555657,80.12010442860594 331.84881382220897,78.317432560994 331.68104166223907,77.91843069910067 332.5424759733503,74.96023785709224 332.54720912889,74.75216388879164 339.7146629955457,70.70221703487152 339.8598616444576,70.43765311125719 338.0818699644367,66.2735219599341 337.98007071112056,66.20808452855965 341.1360660177959,61.80658452404134 341.34024706666946,61.38500446438377 341.2555599911209,57.04096310793068 341.1970144977747,55.78234109695006 352.6584599022533,57.38873510914675 352.9562117955718,57.4928621057112 350.1250565955486,51.168089972612165 350.06782182222355,51.02991844290921 352.7488995822275,47.180146113699834 352.93305574221426,46.81597202375235 349.79992521779036,44.217899222937945 349.6216672977678,44.01277098550747 351.2168863555487,42.73399228313758 351.4408738400159,42.447281230553585 345.11002342223196,39.891435604825915 345.0513322933473,39.91367468001374 342.6224224977848,32.12671952009953 342.58827096000437,31.985435630012603 339.06330797335954,36.20915478659265 338.25503064000054,36.6841480656218 336.3563799022302,33.8712332514184 336.31006779557333,33.727570863665846 337.6545752444724,26.065367549271855 337.73824287113507,25.98569502939756 334.8454110133241,24.157507767573065 334.7412087733171,24.146612004936856 334.9632301777672,29.488451838136484 334.9016991555761,29.625543228037373 327.5725170044532,34.39470128544019 327.71749719998456,35.29104207042076 321.5804148888926,33.447167116558944 321.52179657779175,33.44160668769439 310.8652060711245,39.234130670425316 310.4310664800066,39.00549607224059 308.3637697688898,34.84780969603855 308.25294111110975,33.8598855252709 309.9768291822181,23.743013260179964 309.9039385866852,23.433388796074382 305.90289296891547,23.918708469914804 305.8035695200158,23.9708040334732 302.63839917333803,19.348518927835926 302.5785429599998,19.264409767223356 298.71992891556124,19.653399356400428 298.6002164888848,19.52627146286943 301.04842299555435,17.34450618764788 301.10478395556106,17.22214040086658 300.6099871555705,14.633664912332847 300.6378035466548,14.414235351032062 296.1487331822352,12.92928808301042 295.9908642399894,12.608476933287989 300.18822658668046,10.410540448377674 300.8163527377835,10.305869184426797 299.04098249780486,8.116354457648072 298.98855369777425,8.052549999999997 289.2043929866702,14.259623819619833 288.80600692446,14.36860115618731 288.2626406666602,21.85845349716658 288.1602588711319,22.11757866145456 285.28009730668396,22.607904109310425 285.1693414666877,22.65557440320083 283.31736692443496,27.755600503609116 282.8525710488973,28.27526876914601 276.44031035557396,27.421257911620728 275.8083248622204,27.340225487255907 277.11809823112685,19.857257393937857 277.3508238488937,19.181095031839163 275.7747558666813,9.871174762279793 276.29088827555074,9.247679073152199 275.2008061422164,9.119164506475158 274.0510862488952,9.205219347080515 274.3339833155694,11.316017940400002 274.30609410667216,11.885225887926595 260.8667722222233,12.389947377224985 260.4463223733253,12.478267480175077 257.2620737688919,17.142227901720275 256.9286411644496,17.407505163449628 251.99975142224116,14.300490346423999 251.92249176000018,13.878769016729734 245.99060994666775,14.035311447798108 245.24815988445312,13.938139404395429 244.98565179555567,15.368117478901354 244.96992315556395,16.51881556772389 248.79518665778573,17.15948174668995 248.92611302223645,17.203297407387822 251.64243458669057,21.498195961255647 251.8891412177834,21.674125427809145 246.54926793778554,26.624887798759687 246.12568692444597,27.337728687961885 247.6946915822407,28.88209066121601 247.7287703022373,29.18487488998619 241.57683316447196,39.57237195394521 241.48209723557352,39.67630612252799 245.67319725332322,41.84809903967073 245.9180834400247,42.16238402631245 251.74962235557155,39.62547371553194 251.71707280891837,39.28326145369613 256.10383419556433,41.94544815741358 256.4080668711174,41.97086328302214 257.25136955557514,46.1437751285481 257.65499849778257,46.73701059108828 254.22375199112116,51.02889746969561 254.01199789334328,51.36320844815748 253.13141250669264,58.20110188062938 252.19395643557777,59.01572502095189 244.37820589336457,62.23485298651906 244.5436478844565,62.80749800279557 241.1347564355599,56.255121776680994 240.90639988444286,56.273724387392235 243.99853399999097,67.1435941585147 243.6155124889117,67.36632677597629 227.03665211555904,67.08802426969453 227.01167561778107,67.08859130963504 225.24497069334734,68.57444255099801 224.89486281778204,68.69306394378475 226.0373737511179,72.98321955114773 226.13633311109857,73.34268276657497 223.32301826668095,74.76667806605803 223.08366623114102,74.84219708223065 221.06129808890523,74.9318899518181 220.6989568266797,74.91658207680268 221.09195437332505,70.21584027504252 221.03515650667373,69.9850677809078 219.78181691555778,73.36422780500254 219.53518310224877,73.61324247249979 208.0446834044485,70.71321687866987 207.91259195557336,70.76163884513483 210.83345865779097,73.34188900182892 210.9947500355845,73.47784939296946 205.7124028000178,78.46766694563087 205.73424813335419,78.63728957133537 213.54846950222395,81.95400866364764 214.47252710222506,82.99684052869964 212.06437037335832,84.15653952162359 211.7027572889126,84.4271588516782 216.32115202668479,96.7966652841784 216.4110091644759,97.4037436863797 211.72285499555414,101.59224150544435 210.7636992266705,102.75199777918863 207.0347008266906,110.83639824981913 206.8524379289081,111.35096781903815 208.3278717422288,120.81915450245253 208.4395013955725,121.74364299141564 211.3634992622317,126.5847154217114 211.5012704978069,126.89239423930815 209.12675558223395,130.74582226972382 208.64987195557455,131.05834839939018 191.1249630133459,127.01757234770741 189.80783504888655,126.4743765710515 176.6379389422434,115.3259416950383 175.85390992891166,114.53504926323478 174.6930489155709,112.53476532120078 174.16147913778673,111.7413394191459 174.90837108446408,107.98674383531727 175.10854715554865,106.82029954368011 173.17123017778044,107.27835827253114 172.91789712888544,107.32448124123732 173.288248346689,114.75894777059841 173.3330312800024,115.49692251727504 171.58467643557356,115.00301422431187 171.42877357334487,115.08618239459577 168.66271746668622,107.06202176277986 168.61866271112353,106.73439893733996 158.75775206223602,103.2600704601715 158.18911803558126,103.0185580281319 158.4364072088863,100.32886899849802 158.3250688266778,100.18708202431264 155.50192358223262,101.84430047673925 155.22004596444435,101.76745888162225 156.73552955556784,97.3928625796758 156.70727625778068,97.13307551135188 155.06661890669034,100.35391685883917 155.0387296977931,101.181396481457 146.79284454225103,98.13231950825832 146.44317357335945,98.06692036562129 148.61452688888653,97.48535191734084 148.79882868444088,97.60617721243 148.3526013422304,95.08205161696935 148.30920194666373,94.74676221961965 142.41402029334108,98.97434062055947 142.13075913777698,99.0325981617276 134.58341492445447,99.26086738194101 134.2681139466947,99.48380864090689 132.11205236445653,95.92763369183342 132.05583703998832,95.75069729598874 127.33396823998896,100.45716832439177 126.91329993779777,101.00051035137551 121.48437051554333,95.89260917226022 121.43033972444368,95.74525657769811 118.76448088000302,98.93535110292544 118.72028048890184,99.05299962055108 114.8449911733403,96.32809043222335 114.52000543112058,96.26019548321312 113.82372183999519,92.09429866600078 114.65566495111102,91.66422466439656 112.51991952889489,91.08134087664769 112.39649339556468,91.20864177759324 111.26191960002302,86.70577240609384 110.41643238222582,86.6914881463523 99.10127789335797,96.986859731354 98.61907856891753,97.55324533848727 101.79633666668792,102.05759766950325 101.85597442667472,102.1232186887861 101.15182651556802,105.3800299084611 101.07354740444111,105.60815919067647 90.75643337777706,105.25831523571799 90.62113794667653,105.28721399549215 88.93708120001952,110.61792284630758 89.03174431113416,110.82449997498009 92.87637734221767,109.66695538041643 93.50763465779141,109.70038457084559 89.84460916443618,115.69079077894969 89.77805371554109,116.10594527262549 79.24663696889888,115.08754209115398 78.68601289779303,115.44604756397132 75.63523928001064,123.2320818028744 75.13141307558521,123.70167138786167 68.79415469335049,123.20070015911881 68.02461641777313,123.47089891804319 67.93191938667565,128.0497993199166 67.9636679377652,128.14201004007884 65.27385204443249,130.62371117440455 65.23649652445579,130.8419930602464 60.70482776000404,129.89885498291517 60.22961894222658,129.97123908678589 62.110283688881964,131.20900370387938 62.386627155566885,131.39522667729 54.80840820444405,134.3144490959745 53.71657844444394,134.89064062030923 55.655351777771784,136.07426636493585 55.69146939556936,136.1978376752155 53.44897311111686,141.4924520831188 52.55469798224635,141.931872437293 50.04226619558881,136.6443230612855 50.03695049777866,136.61147672177287 40.95577261332778,138.5789375193632 39.95707679109887,138.66512768937503 40.25963465776999,151.2133462584967 40.15317506666884,151.5246226621308 34.04602086221689,146.92765142942483 33.31136230222887,146.57603442365473 30.862136346673424,151.33699646515709 30.3433824977908,151.39440539426107 30.97813506669604,153.48894069663186 30.991533537780697,153.51679482401926 21.25521410667693,151.50718488953828 21.17322128889623,151.46053315875872 11.430056986697082,153.5282308640668 11.12385823112686,153.62243656798785 8.05255000000011,161.56219178844879" stroke="#009edd" stroke-width="5.071839580701046px" fill="none" stroke-linejoin="round" vector-effect="non-scaling-stroke"></polygon>
</svg>