<svg width="203.26420764438808" height="112.26550460926956" xmlns="http://www.w3.org/2000/svg"><polygon points="5,9.445787146454677 6.629953137715347,14.605289818602614 6.339555840007961,16.71358968655113 6.264699164428748,18.046401979168877 6.196832995512523,20.05580856045708 6.054983964422718,21.095196427893825 6.072168960003182,21.50877346645575 5.7284690488595515,25.483517121581826 5.707206257735379,26.276643252931535 5.653612373280339,27.128264321538154 5.704584817751311,27.320082664955407 5.4704028443666175,28.964815992163494 5.54671587550547,29.264557893271558 5.273794844397344,29.566113247186877 5.81148131552618,29.849529552506283 6.800638008862734,30.217290000466164 7.197640533326194,30.761447353521362 7.5972644976573065,31.809399891470093 8.325442275498062,33.05550911021419 8.441950719919987,33.51078158750897 10.079768177703954,37.11710453918204 11.344758613267913,41.261604116880335 11.582435839925893,41.076599690830335 12.244203804410063,44.58666912163608 12.527319324435666,44.463334738393314 12.66858581325505,47.435583243961446 13.779202559962869,47.617408265941776 13.82842737773899,47.73756686295383 13.622498702141456,48.19326207181439 13.310547342174686,48.438112834934145 12.863446186645888,49.08560574857984 12.412267235573381,49.583466637530364 11.951185066602193,50.277205322287045 11.80991857778281,50.56150151742622 10.728428942151368,51.59620957565494 10.023261582129635,52.43503590032924 9.385377848870121,53.223529699258506 10.519878826569766,54.13489620317705 10.82367459544912,54.47631759790238 11.132421973277815,54.897992685146164 11.390488177770749,55.309691875008866 11.62263125332538,55.78305429883767 11.91244600887876,56.796880702488124 12.066528426599689,57.62661883526016 12.06215935992077,58.24824025016278 12.136724764364772,59.23167707002722 12.547417031018995,60.47082834370667 12.746937742107548,60.736068369820714 13.159377635456622,60.9618621886475 13.828136106603779,61.257026044651866 14.432814933359623,61.16181194130331 14.609033955493942,61.303726280108094 15.373329351074062,61.74805811687838 15.811401102109812,61.95707512635272 16.10995399102103,62.24498326017056 16.446663395501673,62.464427944330964 17.097071786643937,62.69792772695655 17.997099519940093,62.8706720652408 17.785636693239212,63.765222574875224 17.527861759997904,64.6098961402895 16.919105137698352,66.28336479526479 16.582978275604546,67.10626596014481 16.030728248762898,68.22658535744995 15.611006577732041,68.78696958720684 15.373038079938851,69.04947917954996 13.125590186566114,71.4156783039216 12.393043342162855,72.09075895050773 11.856230684439652,72.64614609337877 11.227667626575567,73.28177927306388 10.907851946656592,73.49622571188956 10.274337279959582,73.7016044499469 9.374600817682222,73.946879907744 9.234208142152056,74.17175328236772 9.931219911086373,74.61379200150259 10.439779271022417,75.41943359473953 10.502402559970506,75.62299703725148 10.712117759976536,76.24275360698812 11.139412479940802,77.835887126741 10.909599573351443,78.66418500919826 10.112390542170033,82.33912382542621 11.026690559927374,82.62065803166479 12.541591608780436,83.25762216281146 12.084004693315364,84.84979766461765 11.900212622131221,86.19125995924696 11.561755591072142,87.46244539745385 10.764255288871937,89.99074045737507 10.600269653252326,90.69749726634473 10.32560099544935,91.94417623244226 10.11297308432404,92.64639335178072 9.690921244444326,93.5716482164571 9.595384319894947,94.13332722877385 9.535965013317764,94.70815138472244 9.38042623992078,95.30790714779869 9.266539235599339,96.13024532026611 8.580304497736506,96.73861037136521 8.699434382142499,96.94306053989567 8.82438968878705,97.28350817714818 8.178641635458916,99.99755040276796 8.411658524419181,100.05874855985167 10.72143843548838,100.65712963347323 11.861473564407788,101.02975701680407 12.499939839937724,101.3670250477735 14.144747804384679,102.26141744479537 14.491069155512378,102.3887989319046 14.40368782216683,102.76776974834502 14.449708657804877,102.99533324706135 15.971308942185715,104.38790788454935 16.481033386546187,104.29316594696138 16.760071111028083,104.44910480792169 16.889395484351553,104.24148850911297 21.28467655100394,107.26550460926956 22.776858453289606,101.84799374209251 22.880842239945196,101.4522486072965 23.067838293267414,99.99619044351857 23.19075470219832,98.3238874724484 23.298816284397617,97.2912147087045 23.60668984882068,96.07131269900128 23.793394631007686,95.76939609658439 24.026702791103162,95.45614584599389 24.062237866572104,94.61567189102061 24.55419477331452,93.05484784580767 25.195573759963736,92.24337812245358 25.962199324392714,92.2968717503827 26.773098097764887,92.55935300537385 27.668465493246913,92.26604491547914 28.771509191021323,91.81497528922046 29.847173404414207,91.55521316092927 31.034103182144463,91.02118114568293 31.325083022238687,90.84573910268955 32.21724643558264,90.1693565705209 33.271939128870144,89.58908033790067 33.41815722663887,89.47030485590221 35.39647061319556,91.7229479040252 36.14066830219235,90.85344586207066 36.65155783109367,90.38015966280364 37.8262542221928,89.49161191278836 38.69977628439665,88.83109218021855 38.917938346625306,88.54956600238802 40.61692273768131,89.410463748849 42.63717916444875,91.36843810591381 43.43584455107339,91.63545385142788 43.72420295106713,91.1748628190835 45.12317809776869,89.16475236415863 45.304057457717136,88.67922222608468 45.38066175987478,88.55273940740153 45.559502222226,88.31065380759537 46.39166378660593,86.84906761546154 46.84546417777892,86.77109189785551 47.82238748448435,87.5907422316377 50.39635029330384,90.022927635815 51.199676017742604,90.76323142636102 51.732410880038515,91.29001066845376 52.11310222221073,91.73246798018226 52.8835143110482,92.60831320448779 54.515506346710026,94.22943358134944 55.178148124367,94.84596389066428 56.721011199988425,96.34466926171444 58.26882588432636,94.83055065420922 61.529897244414315,90.86205929866992 61.068815075443126,90.64490992401261 61.7637879466638,89.63260110898409 61.92136561777443,89.2549674619222 62.0326311821118,88.90000030357623 62.398176426650025,89.31843534758082 62.62595043552574,88.50015154719586 63.654428728856146,87.01091247517616 65.25234204437584,84.59410739480518 65.27389610663522,84.6058945414843 65.49031054216903,84.27268072543666 68.00514531543013,85.73655095539289 69.6948090310907,86.61604707408696 71.68069546669722,84.23641252424568 73.86522879998665,81.64276712422725 75.31867164431605,79.55776392121334 77.45339761767536,75.99249366822187 78.69566890655551,74.37803812959464 80.46251946664415,72.3641456150217 84.40254378668033,67.48529817798408 86.64591388439294,68.55846357066184 87.63215786661021,68.82324036152568 90.47496391111054,69.47792679799022 90.80846933333669,69.61348835576791 91.103235697723,69.11023264972027 91.80927687103394,68.17353920277674 93.13048263103701,65.7447368943831 94.53091413329821,64.72732500243 94.67043299542274,64.82299093977781 94.56703175103758,65.7510843690252 95.21015836449806,66.44567832903704 96.05338823108468,67.06908812338952 96.13465287105646,67.9491130206734 96.64787256880663,68.66772937437054 97.20944327104371,68.77835527755087 97.42877041781321,69.53686661610845 97.89538673777133,69.83972635271493 98.71851889765821,69.6615469479002 99.22329173330218,69.9857154765632 99.60718705772888,70.51571864687139 99.44320142210927,71.7792881532805 100.15215530665591,72.20727702358272 100.74430947552901,71.83460032159928 101.48792462213896,72.22495874908054 102.33901880891062,72.31699437403586 103.02962261321954,72.5232809780282 104.01324515556917,72.38953474059235 105.05017031100579,72.37230640568305 105.28347847110126,72.14289739553351 105.54999153781682,71.82235910522286 105.91058517328929,71.55169203446712 106.11622257775161,71.30142670474015 106.29244160000235,71.22072514216416 106.45409706665669,71.47053718543611 106.7453681777697,71.98874891316518 107.84346026659478,72.92315906949807 108.27104625769425,72.93449347186834 108.43066282663494,72.95489539456321 108.96456277323887,72.91862530843355 109.43292671989184,72.52282760117669 109.65574911993463,72.16239263705211 110.66354716441128,72.06128938909387 111.32065479108132,72.16601965855807 111.81814584881067,72.31019371334696 112.45020415994804,71.47779125138186 113.43382670218125,70.52251936355606 113.73121450666804,69.99841017834842 114.27589148434345,69.40765237872256 114.86134641768876,68.98101815918926 114.99562239996158,68.78923651087098 115.17621048889123,68.99008584523108 116.42022940434981,68.56299742247211 116.8929624176817,68.6124164017383 117.62172273779288,69.20136282319436 118.59922858665232,70.56468380207662 119.66207687102724,70.6299706583377 120.39637134224176,70.63767813314917 120.90959103999194,70.30580308870412 121.36426524445415,70.05009574227734 121.56495103996713,69.7096055294387 121.91855416877661,69.67877549724653 122.4655613155337,69.58447184209945 122.74226887105033,69.52779895276763 123.28927601769101,69.60260716360062 125.27516245329753,70.33028569119051 125.61158058664296,70.87842323823133 125.66226175997872,71.1522648044629 125.18282951100264,71.6192454888951 125.62847431108821,72.01187119248789 125.8775111110881,72.2544282884337 126.02110776887275,72.89187611604575 126.55413390218746,73.92783820000477 127.03793521772604,74.4492176908534 127.76553045329638,75.323318941053 128.37574343103915,75.59987514134264 128.8164366221754,75.29203633242287 129.22567253326997,75.01729322824394 129.4916030577151,74.82370340713533 130.13269077334553,75.2657408027444 130.90077269333415,75.9997475835844 130.79708017769735,77.5529866355937 130.68464952881914,78.12558772962075 130.9966008887859,78.41936822904972 132.14100508438423,79.00239440461155 133.08122823107988,79.17467244702857 133.33026503107976,79.50245371449273 133.70716984884348,79.74545582954306 134.300489102141,79.71916083764518 134.86555505776778,79.13160294923 135.01322951109614,78.74307035747916 135.18478819553275,78.6220221389085 135.3400356976781,78.61612840369344 136.20977123547345,79.04093029437354 136.6810478932457,79.58768583048368 137.09581795544364,79.91229294554796 137.5044713243842,79.85380929720122 137.7907908266643,79.78217814047821 138.23235783108976,80.00432532164268 139.04383914661594,80.69388686306775 139.68638321768958,81.01622553297784 140.92108145775273,81.56569625873817 141.5117792710662,81.52988096489571 141.96354076440912,81.59969811444171 142.27024924440775,81.85765868757153 142.48637240880635,82.57124223106075 143.50378239993006,81.97507824964123 144.0199148087995,82.04761539923493 144.2127362843603,82.48873141995864 144.58061169774737,82.83600198547356 145.71977301326115,83.70734945230652 146.3323161599692,83.97528129711282 147.27632583107334,84.52610461291624 147.90401507541537,84.28401453711558 148.7580219733063,84.02968366187997 149.32454428437632,83.91815879946807 149.63503928889986,83.91679873986868 150.07136341335718,83.87146341329208 150.5566210844554,83.79121986217797 150.99294520891272,83.58403722336516 151.33402367995586,83.64161316247191 152.1134651732864,83.90319814288523 152.99922062223777,84.49346327013336 153.23369386664126,84.73373970703688 153.56807310215663,85.00575044780271 154.00497976888437,84.99350997176953 154.48441201774403,84.69883163733175 155.488714808831,83.61350522562861 155.95358350221068,82.69727516797138 157.16701895103324,82.6174845402129 157.59635256882757,82.88133752765134 158.0705419377191,83.06721315154573 158.58725688885897,83.1850854162476 159.20912071107887,83.11118858086411 160.25041493331082,83.2467416523723 161.43676216877066,83.38728153705597 161.61443754658103,83.01915751764318 162.70320896001067,82.95795457228087 163.56682780443225,83.97618800331838 164.47268095996697,83.32426527742064 164.85162467544433,83.09396109415684 165.4650416354416,82.91851266508456 166.7049827555893,82.88949792418862 167.05742079997435,82.61068420123775 167.6102533688536,82.08252389391419 168.13133738655597,81.8213900841074 168.713879608782,80.7963461825857 169.42982399999164,80.79407938406803 169.80206847994123,80.77458491525613 170.1990710044047,80.61001526040491 171.05395171546843,80.35477337328484 171.39240874664392,79.75769660051446 171.04288341326173,79.25537106208503 171.12094407097902,79.00647467561066 171.8310630399501,78.87726605671924 172.07427441771142,78.56399150838843 172.5167152354261,78.41302112367703 173.01886663096957,78.6492239916115 173.9620024889009,78.52726899203844 174.61619740445167,79.09578725509346 175.2770915555302,79.40271396189928 175.6123446043348,79.993898010056 177.17443157336675,80.03923414379824 178.08377998217475,80.2400731028174 178.7522471821867,79.79215210035909 179.59139925334603,79.37596556602512 179.83198919112328,78.86638532753568 180.1905439288821,78.50233394640964 180.82522368000355,78.69728058984037 181.1849435021868,79.17059217917267 181.5615570488153,79.47525196836796 182.41498140443582,79.9453883364913 182.89295729773585,80.11449210497085 183.35112675547134,80.4554194106604 183.72832284437027,80.945954836905 183.87279331544414,81.51265335310018 184.01056455110665,81.74386592407245 184.11746104888152,81.66543502069544 184.22435754653998,81.87352619960438 185.38070385775063,81.23519794386812 187.11464078212157,80.65852478588931 187.4845550932223,80.39693590812385 187.54921728000045,80.49667520530056 187.748737991089,80.40237623458961 188.31613411556464,80.08955724124098 188.77838136884384,80.00387196027441 189.44539221329615,80.28994279302424 189.94608725327998,80.1824962644605 190.6626141865272,79.52149493480101 191.24748657771852,78.93983023968758 192.35548188444227,78.10110600339249 192.60073215991724,78.00317907112185 192.99423943110742,78.42435524024768 193.50163370661903,78.58031262480654 194.30233799107373,78.5454035687726 195.11906218656804,78.73128289351007 195.8845226665726,78.52817572082859 195.87811470218003,78.38445914722979 195.86821148439776,78.15233627916314 195.7132552532712,76.9853710802272 195.70742983103264,76.69521559239365 196.0814219377935,76.65123886754736 195.87112419551704,73.14123286667746 196.78163768886589,70.31804439029656 197.1064049777342,69.95987268851604 197.66972330666613,69.11340633803047 198.26420764438808,68.49272270791698 197.70758855110034,67.83077912242152 198.03293838212267,67.63582275132649 195.39751736877952,67.6716403302853 194.59360910218675,67.83894008293282 194.0783505066065,67.93777835892979 193.68775594665203,68.04749786033062 192.75423203560058,68.77110112161608 192.0065390932141,69.21995156048797 189.79928661324084,70.44136413105298 189.1238289065659,70.86708872887539 187.76417535997462,71.59249613701832 185.79955171549227,71.76659355533775 183.32374727108981,71.18082772940397 181.06464853335638,70.58871299447492 179.240126293269,70.22374101198511 177.11413845326751,70.07276484544855 175.22378894221038,70.2881212074426 174.7589202488307,69.88551798288245 174.07181169779506,70.51934569573496 171.35687367105857,71.14410396805033 169.2381676088553,71.95701244741213 168.2848372621229,72.4815702958731 167.93618574226275,72.83021694829222 165.99865031102672,73.8045204335358 164.5000604443485,74.52266409277217 163.4424550399417,74.81010224227794 162.42184106667992,74.87040073331445 160.50702478224412,74.78471339889802 159.65796949330252,74.67998438875657 158.0632601599209,73.934638810053 153.10407822218258,72.666548043082 151.08906467549969,71.89943341899198 149.33823402656708,71.29054559697397 144.55731000879314,69.26710347202606 139.50899911101442,66.22442409658106 137.7867130311206,65.74972419580445 135.90364529774524,65.33260404027533 135.1614865065785,65.0392592784483 134.33485909330193,64.89734737400431 131.13728483545128,63.684971614857204 129.3718906310387,62.63082490244415 126.68433208880015,61.2416104307631 123.21937095106114,59.598481090622954 121.59873848885763,59.29968775098678 118.14542819547933,59.53409773495514 116.04390712885652,59.90724889107514 115.31514680886175,60.16070113435853 115.03610908437986,60.3125909777591 114.94610631105024,60.361558427102864 113.93597809772473,61.05480937543325 112.3366084266454,62.248610446811654 111.65445148432627,63.110065567307174 110.61140963551588,63.82053677877411 107.13771036441904,58.6504115841235 106.60497550212312,58.673081874032505 106.36205539549701,58.691671509935986 106.10224156442564,57.63704721792601 105.65281023993157,56.53934385208413 105.42124970664736,55.50873999274336 104.63598279107828,54.20698921161238 104.24713585770223,53.26751115551451 103.73741141334176,52.228276846930385 102.95418339548633,50.83355494518764 102.17881969769951,50.03008950827643 101.42442751990166,49.33136235870188 99.43388074671384,47.803313991753384 96.34232917323243,45.315338114625774 96.15708074660506,45.089074637391604 96.07144703995436,44.999748109607026 97.38158449775074,42.5997074302868 97.52343352884054,42.2818462899304 97.54498759109993,41.84427634335589 97.38333212444559,41.46474605076946 96.31786239997018,39.71536131144967 95.99542527995072,39.12724203057587 95.73794161772821,38.55045735347085 95.48540956445504,37.88026066037128 95.16996295109857,37.13705636729719 94.34158791101072,35.93722272885498 93.99468401772901,35.462003345019184 93.7517639111029,35.079287743836176 93.26708878215868,34.2122802445665 93.03145045333076,33.86085101234494 92.30851555545814,32.92264554841677 91.79383950214833,32.19166777905775 91.68694300437346,31.803504889190663 91.54888049769215,31.395388954959344 91.44955704885069,30.877987543237396 91.24421091552358,30.195070212939754 89.66464768000878,30.282135489745997 89.14793272886891,30.36421261978103 88.56772067549173,30.536529145785607 88.10547342209611,30.683451549732126 86.91941745777149,31.126032019383274 85.63403804437257,31.66293170931749 84.41914623999037,32.24744346458465 83.84039054217283,32.40887544944417 82.997451946605,32.5644123328384 81.60517603554763,32.898612199234776 80.8478711466305,33.16025814093882 79.30034773331136,33.873547820257954 78.91120952891652,33.08815816405695 77.1493105776608,30.592758719576523 77.3534916266799,30.45807979692472 78.9851923910901,29.332124467473477 77.5701973332325,26.258050849544816 77.51893361774273,26.16735617595259 77.4469896532828,25.986420189554337 76.56618581328075,26.463927618111484 75.67839146661572,27.125090021290816 74.63797105767298,24.8014898247784 73.96193080884404,23.32859379943693 73.44492458668537,21.703771139727905 72.98529877327383,21.489727172651328 70.48473628447391,20.855756730772555 70.91931278211996,19.27263650135137 70.96009073778987,17.74210972461151 71.00494648888707,17.575224969303235 69.77170460438356,17.446433385834098 67.86679153773002,17.67998144752346 68.1268966399366,16.250119192583952 68.00165006215684,16.231979427218903 69.55995050666388,10.131037092884071 69.89054321777076,7.698412696947344 69.0167298844317,7.389117341954261 66.17800163547508,6.692067401541863 65.63594609778374,6.426761535403784 64.103568782215,5.676647132146172 63.01363228436094,5.073469830560498 59.06428728881292,5.742860478523653 59.16972743102815,5 58.21697962656617,5.134694670443423 57.36501162662171,5.300681927590631 56.659844266599976,5.509299612254836 56.33391189330723,6.8312961626797915 56.30303715541959,8.187298007309437 56.36216519109439,9.668459602515213 56.720719928853214,11.597219840274192 57.44219847104978,13.526869991910644 57.25054207991343,13.795795200450812 56.17138261324726,14.062452583631966 55.477866097702645,14.25020095333457 54.50181660440285,14.499171367904637 54.011024782201275,14.636127649398986 53.02041173330508,14.936796269961633 51.91445532441139,15.189393870008644 51.86115271109156,15.628831366368104 51.58182371559087,16.21383966022404 50.73830257775262,13.625732923392206 50.125176888890564,11.845739785116166 49.42525240883697,10.374116635066457 49.3480655644089,10.161875557270832 48.89630407106597,10.391349875892047 48.31376184883993,11.187252011965029 47.80957155546639,11.716944812622387 47.51276629336644,11.37727038236335 47.26984618662391,11.13918051251676 46.45312199112959,10.82716901274398 45.410953955492005,9.975030676578172 44.45150691550225,10.45211971423123 43.73235854227096,10.369581571489107 42.710579484468326,10.626266022678465 41.84288284438662,10.372302609612234 40.81731726217549,10.453480232739821 40.56478520890232,10.23987871245481 39.69912746665068,10.10201265179785 38.86842225771397,9.605422005639412 38.03101781324949,8.329700386559125 37.74761102208868,8.216322703636251 37.20002133329399,8.207705997279845 36.298828515573405,7.877096323587466 36.166300159995444,7.592290879809298 35.70172273775097,7.14558095409302 34.51770567102358,6.67619441007264 34.1198293332709,7.165989041735884 33.35378631099593,7.88117792760022 31.77655324432999,9.31925829697866 31.30615039996337,9.614945672568865 30.19932017766405,10.41901375958696 29.9176610133145,10.607218776945956 29.195599928847514,14.186711184564047 28.876075519947335,14.752676470088772 28.60606719995849,15.03611205786001 28.267027626628987,15.17125401616795 27.81584867555648,15.19302184053231 27.301463893265463,14.94768019404728 26.301530168857425,14.190792670298833 24.456910222186707,13.603057943051681 23.094926506630145,12.28881204884965 20.411445759935305,10.634882633341476 17.358050702139735,11.947778001485858 17.099693226628006,12.063874758430757 16.333067662199028,11.272510871756822 14.832730168825947,10.909253476827871 13.896002275520004,10.638510679709725 13.112191715510562,10.360964950348716 11.976234382251278,11.23849803279154 11.136499768821523,11.825332136126235 8.834584177704528,13.253862947924063 8.603606186574325,13.2806194673758 7.945624746615067,12.650706637301482 5.758469973341562,9.960518446052447 5,9.445787146454677" stroke="red" stroke-width="3.1741214570476117px" fill="none" stroke-linejoin="round" vector-effect="non-scaling-stroke"></polygon></svg>