<svg width="180.7390475376742" height="222.87616874463856" xmlns="http://www.w3.org/2000/svg"><polygon points="5,50.112631817522924 9.251684408867732,70.23109514679527 8.970316515536979,70.49009971093619 18.92887580441311,87.24126728088595 18.86625251546502,87.61981755000306 33.417283413233235,104.13597252604086 33.423691377742216,104.5550976509694 56.79266389331315,117.31750139920041 57.88871708442457,119.68005912867375 49.65681294212118,149.4757785134716 49.42991274653468,150.67470370483352 34.243910826626234,172.42652112455107 33.85215118213091,173.41650070995092 34.321097671054304,184.44623878702987 35.40025713772047,186.19382571452297 58.7837932088878,204.79946115252096 59.11846371553838,205.11738066311227 116.77412380441092,217.50776433153078 119.68479601771105,217.87616874463856 150.75264654215425,211.53790297283558 153.00912384002004,210.93590246606618 138.19944419548847,186.13880512630567 136.85784945776686,184.92428976064548 154.58140529773664,147.53844945318997 155.7278483910486,144.91908108844655 152.8661097243894,106.40122372470796 153.2389367466094,104.11025653418619 175.57593571546022,26.176449380116537 175.7390475376742,25.043636452173814 158.40783388435375,27.484367120079696 155.31249578658026,27.233435269095935 125.82333468436264,18.075128126656637 125.34914531558752,17.596712018013932 74.54359921778087,20.96771792403888 73.23084031988401,20.88557594292797 18.371965439873748,6.819885900942609 15.852179057663307,5 10.291522275540046,14.028416937217116 8.83050638216082,14.94960772676859 15.590035057626665,26.54923832602799 16.001601137802936,27.895064312033355 8.30709219549317,40.645248484099284 7.909507128759287,41.67779489699751 20.125708799925633,46.71499899250921 19.708608568878844,48.49572800507303 5,50.112631817522924" stroke="red" stroke-width="3.7277743841732205" fill="none" stroke-linejoin="round" vector-effect="non-scaling-stroke"></polygon></svg>