<svg viewBox="0 0 163.24585801955837 123.13729049159156" width="163.24585801955837" height="123.13729049159156" xmlns="http://www.w3.org/2000/svg">
  <title>Jihomoravský kraj</title>
  <desc>Geojson of Jihomoravský kraj</desc>
  <!-- Generated from maps/2-geojsons/world/europe/czechia/jihomoravsky-kraj/jihomoravsky-kraj.geojson -->
  <metadata>
    <collboard>
      <support-module name="@collboard/map-svg-geojson-import" version="1.1.4"></support-module>
    </collboard>
  </metadata>
  <polygon points="2.527235142496477,83.49709700967342 5.108304966497065,84.80999642809894 5.117669332719936,84.81262147196377 7.705358292721042,84.59154854360659 7.754444756719579,84.613967484141 8.918072845606195,86.00279006129695 8.926614370941946,86.0130111244418 10.761534989607583,86.39711231093224 10.77703789449571,86.40994586015131 13.290561947828804,89.27108492090174 13.317307917607662,89.2764303852715 14.600473670495388,88.70743596929078 14.66500478516374,88.70765733619464 17.907500330052983,89.64872984341328 17.909131448273378,89.64939383127476 19.78595141627285,87.14189615744527 19.79300745894126,87.13571827149408 23.180876415385697,87.54073164921411 23.291850708718826,87.56050384273968 24.274548465161764,86.87653978296277 24.308372322941263,86.88753427249594 25.08120196205256,87.97614639637014 25.082651035830906,87.99150019689242 24.393321542496974,88.82295508572406 24.395993954941346,88.82701708228979 25.9346408811629,89.62300025248824 25.968865236718386,89.62865523949131 26.79145126338391,88.78351925305888 26.881832689163105,88.8353070878422 27.41918419849518,90.76077584514405 27.443578154052204,90.77421888564405 28.37694914783043,90.05472143750212 28.394476386939473,90.07195063426316 28.94279425360711,91.117586235827 28.94194228560938,91.12515368648292 28.070262513164028,90.6226812915671 28.04272282960866,90.63076944979531 28.056616461605714,91.57582984467572 28.07292036205164,91.59002316427923 29.98384089538578,91.12836210542574 30.010084422497144,91.13299771433941 30.797047992274578,91.67846785599086 30.816242758495914,91.70906640382145 30.329004443829593,92.6867703219059 30.325232482940024,92.70435632993741 31.057633691830972,93.28737280215265 31.08250096294197,93.30694755446439 31.57052570960933,92.3654563902017 31.61137648294081,92.35412987249856 32.78845401538694,92.84694471977691 32.81629953360808,92.87028144019405 32.194646882940845,94.77675870010553 32.179020187831895,94.83983413895459 35.432249073163085,97.69658171659667 35.43648706783116,97.70418439436162 43.32461119938509,101.45098117944417 43.3389563016097,101.45335541021177 56.039570957608355,101.88446575116232 56.08311598871934,101.88212483105582 59.87333229449852,102.98801129706099 59.86857001183072,103.01583172103838 60.80384154960904,101.42836520012042 60.810431558496035,101.42884004829085 62.05782921893971,103.34617755812488 62.04456910160644,103.36678764305816 63.34791266072117,103.31908737830508 63.37204447227397,103.32248745702947 64.14834751938744,102.1591194950508 64.156481265163,102.152638114782 65.71170879938565,101.69584184383257 65.72405869449705,101.68584841854737 65.95603428916348,100.52520775429421 65.9608912349415,100.51145698793681 67.28750735583,99.39098083755653 67.52278887760751,99.21869962718611 67.5733899513869,97.85572745705996 67.57829786960775,97.83047793422284 69.31833692383063,94.47947079204151 69.37321968294256,94.42236200296594 73.58293920649723,95.53491001575294 73.61296197627364,95.61426022333018 75.15824988383085,93.91610805423244 75.2216086322731,93.840548584709 76.98245900738677,96.11284273412002 77.00198145360902,96.13235224602668 79.06329982516456,97.33292286041961 79.0706398571636,97.33598402419867 84.17362234249578,97.51444584720866 84.1793749469418,97.51925293188525 85.18893518160895,99.11248910277482 85.19174594783091,99.12389020510291 85.42844013449778,100.88605102701823 85.42419485805132,100.93929418667376 84.89240662693902,101.98234182891156 84.89194059316344,101.98498083734431 85.5512327531642,103.37936119237257 85.55147305183038,103.39739905271836 88.5689762269407,102.25514682662161 88.62139774516383,102.26655251518805 89.48602875671915,103.22962481838749 89.49481058071817,103.23512243583373 90.21728672649462,102.93225963090936 90.2624701576073,102.91990586909651 90.99709230871797,104.57906030859722 90.99106299671968,104.5904612233453 93.28397102871952,104.94842479508644 93.36318948916434,104.93605344698426 94.11773458427616,105.81052178362717 94.12580279405212,105.81304863027745 96.55485822516187,104.68565187753103 96.596124059829,104.63986123785563 99.14784103760887,105.08322766243346 99.15802824471886,105.08750951731909 99.8575376633844,103.93741484995972 99.86830741271825,103.92633269643976 100.32729971138744,104.62921091442968 100.38285239405215,104.6722976928706 101.51542370071968,104.47380216119473 101.53040231760808,104.48067816065432 102.7324781931644,107.16815552148019 102.73499768827442,107.18372104525315 102.1404405327192,109.11457771029946 102.1467319887188,109.14320555975847 103.0782752562749,109.80396502321074 103.08036512649542,109.82182766064199 102.80142206516449,111.96038629000523 102.80158954605268,111.97585021737014 103.45199065538746,113.21000401637266 103.45191055582819,113.23061059529265 102.74370669449546,114.98984427683155 102.74873112116165,115.01597429552913 104.30604124382936,115.6116216946406 104.30977679582993,115.66452563408802 105.50906375049654,114.86433695704892 105.51226773271901,114.8601507604557 106.43894677271874,112.47769357939379 106.45263651494152,112.41884095030237 106.30911267494066,109.97469420416292 106.32542385716206,109.93114134012121 108.442600746051,107.41938281983876 108.46954332382866,107.37459648999484 108.48993230160832,105.52645937323378 108.50384049716504,105.4893822144366 109.55074168827542,104.48610831793177 109.56967431049543,104.45233530231036 111.80430627494043,99.39112444902986 111.81668529716245,99.36991409879684 115.07935864827579,97.07905035796848 115.12057351049717,97.02136048834346 116.3292029860515,94.71714318227005 116.34959196383116,94.66020268821431 116.70516117271892,92.00878164250881 116.73690972383174,91.97072908167303 119.85547669272037,90.48879898206488 119.88686115494039,90.46456704479624 123.23058069271775,86.8444087327689 123.24099363494007,86.83831909162964 128.86980785716423,88.73331370037613 128.9049060260526,88.7493627029804 130.94169208827353,90.59391346485918 130.94744469271956,90.59933510516112 132.06563448827347,90.41045973390266 132.08755263938494,90.41023843502317 132.30389425716405,91.38984200468677 132.3121954838307,91.41152541952161 134.93734919049876,93.87314776211697 134.9751780260527,93.9257837497671 136.1611247638297,93.32419982122647 136.22331114605458,93.29865317633067 137.52587555494082,93.95906801344518 137.56264853271696,93.94701493107405 141.58990855049615,90.28985053416382 141.66424093805236,90.25230623555818 143.3992628473845,90.82512511627266 143.43416440827406,90.84983123178517 145.77511032827587,93.24700656925835 145.7874893504979,93.2529785784047 146.45384483494254,92.17802387892571 146.46149070160737,92.18023616152333 146.21813368827262,93.37706220174424 146.2229396616078,93.41466275137773 147.1294481771618,94.07428973515617 147.14757980382984,94.07572722711612 148.90176007049723,93.26481198493258 148.93438243494003,93.23528371777775 148.60102264827273,92.39957959708536 148.58704163494096,92.3864170235347 149.0292639993857,91.95369383896305 149.04727911760548,91.93047494006733 151.49778666605107,92.63661118115397 151.54606485271924,92.63506271093193 152.48563263938397,90.9018321002337 152.49014734160718,90.89707459424955 155.7516556082728,89.41541064867324 155.77309316205483,89.4182548492243 154.9086660402738,87.76774229633429 154.89257331138634,87.74339882219483 155.19952209005115,86.79628931311582 155.2046047709415,86.75400455391483 153.96802783227452,86.64332524258043 153.9648675407194,86.64539579421817 152.5069318393855,83.21950053976599 152.50604346249875,83.2183039731257 147.94343442427618,81.84383209061326 147.8524122020519,81.78617176215322 148.92033588560864,79.6248337474941 148.95943903227436,79.58029902497056 148.60784567405335,79.0986758396959 148.57341014693938,79.0711120658436 146.77170899849716,78.06557243180123 146.74971802960772,78.05560283356445 145.70631937361014,78.50182179406966 145.70188477094035,78.50281978316471 145.0043778411635,76.99676026240905 144.9829038784983,76.98754298036056 144.60658160294096,77.73308384640968 144.59988964916246,77.73643311895412 142.68848851849597,77.45586351611547 142.6502373398309,77.39714816184988 140.307390875829,78.76263457516598 140.28965246516145,78.76875528354995 137.55243948027473,75.44582236752595 137.54391251849574,75.43016744534525 136.0320625344959,76.0114113048503 136.0084987016073,76.0960449718461 134.29355993538613,75.58257638004125 134.28155956560786,75.57811633984657 135.09014273360935,72.74394316133385 135.10031537716551,72.7337308569664 133.11223712649644,71.53817253723082 133.11263034249697,71.52901276719622 128.77375392649537,71.72118711207132 128.7073004224976,71.73923954387556 128.1715873131643,69.46650107592268 128.13938001005135,69.44680849746638 126.98719887582975,69.85211937665572 126.98680565982923,69.85314114055055 126.96000143582916,69.01127691026468 126.94471698427498,68.99570372382568 125.45479971494042,68.77902971565618 125.43354420560918,68.77914079852908 124.85563319405173,69.6246611458917 124.83548451494117,69.61227728692157 125.55479308738414,66.20533986345963 125.55925681716454,66.11480884033354 124.23971130249538,63.09345999128982 124.21072254516167,62.9411620756915 119.23673675316368,65.11959214188083 119.21719246160629,65.13983370273472 116.66136127938499,64.68055099123285 116.65247751049446,64.67121309523337 117.37973050249548,63.743358804134004 117.39083521360863,63.725280222740366 116.90502412738552,61.86965371492825 116.90184927227365,61.781531860354704 118.88175736827526,61.792120348903524 118.97277230871823,61.7657936807007 119.49311358516262,58.52859179947391 119.48647260382987,58.50275036122457 122.32344594427542,57.922354492619164 122.3339389860541,57.91355053379066 123.40178257005155,53.79361491677974 123.41344069627503,53.74708925002761 122.94094798160641,52.83372772519633 122.91216311405279,52.82366790870128 121.88080851849791,53.99605324616405 121.81405646160692,54.04637486422416 119.3883579300511,53.83020473322231 119.38408352649695,53.82851169380283 120.67047510694229,52.16670989343093 120.6787253611632,52.13866596940916 118.56612871049711,49.353294925199414 118.54561594249662,49.33711992808659 119.40946052205382,47.66780780885293 119.40781484027667,47.64858366356767 118.1971246216066,46.051875661309 118.11590367227309,46.019126983727446 120.44021073005261,42.41110719289409 120.46423331494134,42.3385121492027 120.01940407405182,42.52816803287115 120.01595979316318,42.52311196678767 120.26704277271911,42.03998510579387 120.2681059122724,42.037507079410545 119.14403972205164,40.274990580294805 119.13122379316174,40.24026465101616 118.79962619671988,37.12732826483389 118.92752334160888,37.0237493802617 111.32877705894043,33.26003609251912 111.23270128293935,33.22924599257077 112.38534845094237,32.60532360723865 112.3906350216099,32.56117911250313 110.34995320827566,31.896251712538476 110.3269063816084,31.885929904294432 110.78436950694287,29.461948960186973 110.8154481344971,29.446453787942126 110.43881274249561,28.359064662636783 110.43364268027636,28.28751482602948 109.51604401716304,28.052201723476 109.48955290960713,28.037105441900902 109.77078973094159,26.738748378574208 109.75238867849676,26.707809787652337 107.80147662160726,25.795177300006443 107.77621613449574,25.773279242886755 108.19635286694084,25.141209502664978 108.19750338782887,25.091686556399335 108.11256145005154,24.59038574531715 107.4559635478303,24.70018987676868 107.74373212383053,22.540017994239868 107.74182429805205,22.532087014008546 106.4922566678286,21.96932783471985 106.4438255638319,22.004964798781845 106.85841358160815,21.21644990482292 106.85053469804971,21.204584175711904 105.6107028047174,20.98540531667514 105.58062178071978,20.971017931453943 105.23210861449752,20.295732046288148 105.21382407049515,20.283113488065837 105.67950832294282,19.638486216496503 105.67529217360698,19.57501571568119 104.7960029433858,18.25801932446903 104.78429384471947,18.252671825735714 104.18327047049516,18.063275082071602 104.15836679049808,18.06171674150956 104.02425828916294,18.83249195030931 104.01852753005205,18.840159249896356 101.85880321360875,17.595629730564365 101.79446142516373,17.602850277721707 98.38256988383057,19.73330392685294 98.35719288827369,19.77784302817291 101.15255086871895,21.954864606010787 101.20513258605189,21.93344416939636 101.4422127069409,22.87315362453647 101.44297001182842,22.884858930579327 100.78434049360787,23.35001543417439 100.77280615760812,23.36299655377207 101.8998651584958,23.778924950014158 101.93350697183034,23.813833413075017 102.4935630642749,25.420424125087273 102.52847918871831,25.44618621544924 101.70721844560741,26.15703117300855 101.63263119583118,26.186192939855218 101.89034787494148,26.877309488790168 101.88189373094048,26.91366455149965 100.94545710872028,26.763037960641494 100.91629358871707,26.751945358377824 100.86113412205287,28.350011880555947 100.8716126002748,28.357632332225155 98.55967728294183,30.641378132870713 98.4419090909416,30.790433199546356 94.52192422338396,28.074560706261952 94.49358354427369,28.052783640095555 94.64058807405219,27.347578575051564 94.6235414322755,27.299620045294986 93.73298001005298,27.064119121775555 93.70865159049555,27.03092142104852 94.1255115229402,25.470761412851978 94.12634892738699,25.46339446316543 96.20563144471946,24.528775327247974 96.20651982160909,24.52532637756213 95.47589536649741,24.276593165517085 95.45770548560814,24.25817176779511 95.4372145629399,22.912682734930247 95.41609012560787,22.875875530464516 93.96654303227535,22.375996718415816 93.95535822160875,22.381452224141512 93.9338041593872,20.30499983211758 93.93228226783087,20.268556163280852 92.99958119760834,17.86512684844184 92.96744671227336,17.836885041405736 93.20411177182962,16.405197096335 93.21772141449603,16.384977369355152 94.46218451849693,16.084240785796833 94.48999362782908,16.07939584909164 94.5301016598298,14.345317796271235 94.57646473894113,14.281505559693148 96.49005768471963,13.875246078710013 96.50023761005416,13.865327904444536 89.56641230160878,12.655759584787127 89.56568412383187,12.624258949121401 90.66908462872073,10.786146656606986 90.67239783760726,10.77351742930169 89.93025361005259,9.288622651845623 89.92305193183113,9.281615729958691 90.13353171849724,7.69759689488256 90.12772814160837,7.684938083996355 93.58155544116437,9.200687378767004 93.5935922198287,9.197790240667933 94.26121473360965,8.78803189984156 94.29866491671984,8.731915002720603 93.28045393005289,7.283659963877113 93.25632940027555,7.200500372398352 94.434397254497,6.601473632847598 94.46114322427586,6.501406652750854 92.20883838516295,6.48020664363558 92.195804002942,6.477925980640982 86.58078874960758,3.388227574218587 86.56638539316465,3.302187256477015 84.30732306427365,3.08367429581686 84.29273766338576,3.0853942847430575 84.6208472882745,3.5724891476826146 84.6389570696074,3.660593485185933 83.22709317627579,4.167149063525545 83.22328480649723,4.166519649491062 81.1753139336097,2.543413654307193 81.11910589094025,2.527235142496471 79.84926579138539,3.823287154859105 79.80001912827703,3.8688436635535313 77.58536108027312,2.7934493434017043 77.5579743140521,2.781835978111309 75.80758057182813,3.0430014590876513 75.78020836916386,3.0546142705336083 75.20120509094251,7.402393002944706 75.16773075849616,7.422960404184238 72.73622136827309,7.28371612959291 72.71351678516349,7.309215305466029 71.36094112649718,6.27320171353768 71.33374368649658,6.268348098402027 68.32856127938413,7.683298164918785 68.31993965449784,7.688622283970296 68.68573247938458,6.647658640659762 68.68680290071917,6.644850028097977 67.59875238338411,6.425279476356633 67.57257439227526,6.426616429694519 66.30813009005198,6.755968877200036 66.21763943760872,6.837820831220421 66.45310300382828,7.907580623184737 66.45302290427482,7.916015746860473 65.43783385538538,9.376096131044148 65.43763724738658,9.389604427071578 64.37058009538724,8.508519808723765 64.36067687760789,8.51215853253653 64.33743344294182,10.486146934408868 64.33290417716472,10.498956448677752 62.9729375140507,11.731639535285474 62.981901382497576,11.784178972503112 64.02376358338499,13.235105589071289 64.03822519405205,13.265850916180177 65.55199028560875,13.042225222753594 65.58434322427476,13.063366202486037 66.26473069449695,14.558670547802292 66.30671014338715,14.66271879220131 63.88456511938695,18.27238019150664 63.86395768827626,18.290631106463668 61.714835640272774,17.23935568406578 61.698531739829754,17.237214045494152 62.287787761163614,18.88357345033274 62.264449663387325,18.92875837914017 63.613952411830375,19.203290018925152 63.63875414694177,19.200364533669024 63.515641130052806,20.177311451370596 63.519813588718364,20.191925051828555 64.18654044382839,20.188484583444193 64.21452431583003,20.18096485513216 64.26011552649707,20.813437738573526 64.258142164719,20.851054355795902 63.003506417161965,21.4200456860619 62.96146143227508,21.412650891369964 63.650062747829196,22.274693601546286 63.68195693449799,22.323838673393592 63.42314070693957,22.847345856830188 63.416871096275116,22.873265637151604 61.50380243849633,23.239702679822045 61.47702005983139,23.2638733358499 61.049674367386444,21.98962782500003 61.031331569162845,21.95609695076401 61.419952767385816,20.857822406122985 61.368492443830306,20.829248626962187 58.77007014338725,21.360438875687947 58.75804792827386,21.34489842233289 57.08014428383014,23.38221617061045 57.08693090071885,23.425000856973753 59.546533389607625,23.137060210128954 59.56084936471872,23.115677987561327 60.318802331830206,24.1759186331472 60.32545059494134,24.189278552160076 59.36883616649703,24.58464129171317 59.35815379849502,24.59216618877818 59.77887307316397,25.11967832857609 59.81672375405307,25.1750568303467 55.32007305894205,25.513395480808512 55.290195924718695,25.52774857733585 54.34907711938414,27.073879162856436 54.335911665164,27.086034419135657 54.70919015760575,27.999661113021837 54.752516735385704,28.05836779838556 52.442729542497375,29.353224511691778 52.42922912649794,29.35350421307358 53.0895188900524,31.273441826534516 53.10568443672074,31.272994460619344 51.83415496471845,34.12211125441518 51.8583086216093,34.17527524893213 55.72489621271944,36.23595646395825 55.7337654180532,36.238895240517564 53.311321841162695,36.92667103463301 53.313411711386124,36.95515005936741 55.72410249894003,38.08038368436665 55.72839874782932,38.08297519626777 56.7781616776074,37.42411102229945 56.79436363316182,37.40209166572732 57.20745160471981,38.45752519110666 57.258475021607424,38.493256455598576 54.46627733271727,41.65775309563015 54.43802403494175,41.74817308712792 56.85089935582929,44.638764923866084 56.84261269271939,44.65927147190506 54.41897490427347,44.99533145138685 54.3620095567194,45.04075967124646 52.95850514427568,48.167500542808384 52.95498804560904,48.179140990110874 52.95361178960576,49.84625841659418 52.95289089360723,49.84800841193629 55.80675795849803,50.89641209289676 55.82942613271863,50.91910193281056 55.31342479582801,51.54861858752538 55.299727771829765,51.59498452548706 55.78440290071868,52.768689517500576 55.928021403829746,52.79521512788761 54.64508866782982,53.83926025761739 54.64141865182884,53.85224761350383 52.82005670338387,53.86100236616458 52.808092742497514,53.866460156588985 52.23841742160713,54.96649562531075 52.24191267494154,55.01268805937998 53.75964633538662,57.02226342243648 53.76488921538386,57.03119125534413 52.870905357607825,58.12933808326761 52.8636891158296,58.14392914838663 50.692656198495946,57.841148291449464 50.67798341627332,57.87476174888125 54.41324414516259,61.37748576499562 54.44055809360563,61.45575907572475 51.97096500560566,62.401836212712624 51.89172469982861,62.472065656035376 51.60279103938648,62.96736081892141 51.60683970782831,62.99314800036355 52.3625280420527,63.9617536191885 52.36128285805154,63.97049234513379 51.22132054693922,65.283323233362 51.2089779336062,65.31686916734598 45.94806097005186,65.64579303894406 45.93441491849646,65.64453709007776 45.24164842605225,66.84967205720004 45.239886235829744,66.85375022134086 46.518792148720074,67.93882382303691 46.515187668718696,67.95154473219864 44.928633926497255,68.20431256670254 44.875651711385416,68.20523465041461 44.42030758338498,69.23206264896707 44.406246470496825,69.23839385007723 42.146965688274776,68.93596537325921 42.10845236560837,68.90960609277373 42.16727456649516,69.8364152860535 42.135445915828875,69.84487817493482 38.290419668718656,68.03614636535185 38.27270310338337,68.03399106734123 38.28499474427355,69.29036496184108 38.26775877627644,69.31300151038867 35.78250258427271,70.18698127164953 35.6537825984966,70.16971225854631 33.61355953716539,68.96072498741687 33.57021839582868,68.91496015823778 33.87185147671827,68.17098413655458 33.87135631583207,68.15967464356491 33.050598015385745,66.97163786624715 33.02967018605251,66.90074334508954 31.984749638495682,67.90381617419025 31.900703359386366,68.00759415337798 30.9200080918292,67.6049700321497 30.858462506052287,67.59298162930337 31.090212365606398,68.93658741965756 31.081576177163345,68.96065833988233 29.86698292560742,70.00672565402911 29.82075820027368,70.0562907045487 27.488645076719525,68.94089731063706 27.405042986053573,68.91447140559012 26.750287373605364,72.29294093865592 26.757991494497233,72.32392437442887 24.950632404719194,71.60390038114546 24.94902313183103,71.60069172583154 22.647078413609247,72.06735941703937 22.638056290941144,72.05420391132338 21.483741595831646,73.1237497824519 21.14760745182849,73.35897770904249 21.612964024275257,73.78727483293315 21.72518350160955,73.83578496510873 20.74624314249651,74.96409423091373 20.70235586783075,75.02410033704346 18.238471693609437,75.38920481701335 18.234597787831273,75.38829502605059 18.098610587831185,76.7512824936448 18.01620999049611,76.99588401122583 16.872737862498447,77.31255658493302 16.733524834940738,77.25962934969121 16.952371384273114,77.73791921936773 17.086880383387154,77.85015191782423 16.25376490605105,79.08887441694078 16.220414363828436,79.15055434811202 14.469947803829394,76.86180485274218 14.461420842050405,76.84138433831669 12.776432027830573,77.60707431123575 12.748753990497619,77.6142166288364 11.156746196717553,77.18305476674851 11.11532744471898,77.19795051389356 11.437240276718342,78.11907970154844 11.45241550160846,78.13152214689163 10.081344127384193,80.11319549125602 10.044469204719475,80.18888703833927 9.656510648273809,79.58330349474836 9.608188770941172,79.4411381793847 8.47716120116221,79.7281702179198 8.45520664116467,79.71997742797667 7.6131564224981165,77.83478105239465 7.54995059138729,77.80092285544652 5.848475832276574,78.24189494886797 5.84423055583012,78.24386884209217 5.246651462497368,80.02277000540909 5.237825947830982,80.08755457861972 4.3820350144988085,79.69327040061454 4.346565474942156,79.70372484801611 4.48229781271931,80.79332914809912 4.478504006497508,80.82030796968884 3.735515092720573,81.10760098507144 3.667663487384391,81.09231675158645 4.51732316382969,81.28084520859393 4.5163328420514635,81.28463566197297 3.1017819727187206,81.69810090628872 3.0489963656056833,81.70768714392307 2.527235142496477,83.49709700967342" stroke="#009edd" fill="none" stroke-width="5px" vector-effect="non-scaling-stroke" stroke-linejoin="round"></polygon>
</svg>