<svg viewBox="0 0 479.57947852446455 470.5585913364332" width="1000" xmlns="http://www.w3.org/2000/svg">
  <title>Karlovy Vary, okres Karlovy Vary, Karlovarský kraj, Severozápad, Česko</title>
  <desc>Geojson of Karlovy Vary, okres Karlovy Vary, Karlovarský kraj, Severozápad, Česko</desc>
  <metadata>
    <collboard>
      <support-module name="@collboard/map-svg-geojson" version="0.11.0"></support-module>
    </collboard>
  </metadata>
  <polygon points="8.052550000000338,132.5726193764492 32.57699501337629,138.89907574220683 33.16011977787275,139.1281399163197 28.413274480124528,147.6862232307683 28.79483963558596,148.1570833457879 56.2986968445839,162.75415111674351 57.231055671210925,163.63114608437877 110.63182736896124,164.35332100452047 111.0404807377854,164.8441800140788 115.03963309337996,174.46670492794487 115.62421421343606,175.11143937751308 109.75014971566998,184.71484198267694 109.8555898578852,186.0711768183753 92.48388952014648,191.42039867895778 91.878336879985,192.7316185855086 104.30396248002216,214.0992896081077 104.30075849788409,214.5313105300081 80.76692653340433,213.0331183863816 78.28908319117181,212.96301129947074 86.97624408009142,232.91075123017777 87.37295533341967,233.7423983610713 48.49263106680155,281.3276114064863 47.69163551121164,281.6666588648002 52.49090960899048,290.20774962861447 53.673761591177026,292.47448634284206 78.00684148443543,290.1249252331688 81.29995266671904,289.00861313063774 123.3367819644991,340.3321042322566 125.44966260458023,343.9263691793674 172.1928505155738,372.9922332982894 172.11216841787245,374.15132971932303 178.9978174845237,355.79657538093284 179.0281096800245,353.9053748174117 165.3377849155586,316.02148261082016 164.9466078134501,314.39476239504415 173.82513382225443,321.59592150149524 175.95228674668033,321.49399850887835 211.31871632891853,309.53273019483436 213.42373264893104,309.87491889435455 243.0748404889382,331.45355996365083 244.52886587565445,331.14097981862847 257.2049846311347,320.7637006672228 257.5655782667236,320.1011978219974 250.36681275556475,287.70980658636086 250.0930179111674,286.74229533240555 260.8368441156126,275.3038558477199 261.2749158667648,274.78730511488516 258.4635671023061,292.75754234774627 258.29404731558316,294.75485148680286 274.775623137808,293.773264396448 274.99349392890144,293.9798667765933 277.52726132443786,318.6510557653162 277.6172640978839,318.727954033973 270.9427865866819,325.98766502677586 270.30810683556047,327.11789215714793 294.6668185867384,359.03209611910984 294.87449488903076,359.3946788910323 343.5461888266509,350.4304726514745 346.2957881155671,349.50782628879074 351.3574974845178,344.8972654839524 351.89984429334436,342.44863301746204 348.29390793780476,331.6169022476895 347.24999227570515,329.9620890822041 383.1372146045105,306.69418134386774 386.2503202400185,305.0537398385129 406.6343464089805,321.008498597286 406.8874610045241,326.0131452523417 434.7032695733724,321.15956335337955 435.3696978756707,320.91112547604257 463.4025034223232,299.7919571755699 464.36864969784074,298.84270217570133 455.3931304089274,289.0882523823309 454.4846558134086,287.2979549566296 460.32784557340347,274.9292997999362 461.41108283561334,272.0470625769592 447.36336841781304,263.44381438007235 445.95215988448035,261.9414082533692 461.7821622311385,256.5998402067705 462.6245182845523,255.74916425228707 470.33679476448015,235.36380522975355 471.5269285244649,234.21534788129043 458.15175910233665,220.07466815532075 456.9758976268131,219.25753596696427 430.277987582238,213.85710258255835 429.72835899561323,212.65982064969262 441.46396333337907,164.14477389094077 441.4831872266732,163.92347695303738 426.37349833778717,147.894330776973 425.6368736978402,146.552784975014 429.4892254133956,130.22861410977907 428.38851188447006,129.27588509271277 376.9678012000877,128.77993606721407 375.64601289793063,128.63101451329544 361.4713042756557,150.97857962383546 359.8987315466875,150.7950650834025 327.7426921512015,116.09618984172243 327.49918950230494,115.90171514559893 306.23290313778125,121.2285281621514 305.73715970674675,120.64648364784784 301.30080941340566,108.82809203465126 300.8773012178499,107.7700575064298 305.2629703378552,82.84303929957218 305.18228824003745,82.42259963296942 244.26497424892295,98.8546706741688 242.83133784004167,99.58617068231229 216.89335412448418,62.424582822459115 215.4757376266425,61.055630692491604 216.76577737785556,51.60939786924405 217.09229229341872,50.19117463389534 204.46568962673337,46.80844929171849 204.33782160896953,46.624846663653216 212.06728308447782,35.96287133088458 215.28233360892773,35.4156803618896 205.35843558234774,26.282262537431734 205.0965828534463,26.05535741089966 210.91676219562214,21.243819356990343 212.30233887115173,20.344377965760714 204.55947892447148,9.711641119654587 205.50348859557562,8.05255000000011 163.74627956454788,25.88039425979491 163.69676347563654,26.043510952011047 94.45142587563168,12.47342328096397 94.22976856012974,12.531292288658506 85.8353351378828,24.120275337809062 85.49425666672323,23.8696747963329 86.95410747567803,39.00952887794824 88.2310400267379,40.37816446574993 60.691647742271016,60.52900321406901 59.87317592008185,62.65190548505757 70.1678620711682,85.97194120384643 71.77946512899507,87.64774593592279 17.646437857860292,112.93401877707925 15.398989964487555,113.8749778499839 11.891211973364989,117.0794913170173 10.789624631150218,118.59428607815767 16.31125108453125,124.66884391170584 16.63427074682113,125.64072095740244 8.052550000000338,132.5726193764492" stroke="#009edd" stroke-width="5.269905601685125px" fill="none" stroke-linejoin="round" vector-effect="non-scaling-stroke"></polygon>
  <polygon points="100.42568763564486,458.7018350992364 136.5875786222532,448.8654296865932 138.75754840006266,447.66716856536345 144.31529247118306,438.62838335670654 144.8203565778458,438.1304115823948 141.25752834670857,425.8153657120199 143.16331522676774,424.769334606455 164.0902707467103,427.30754310914904 166.38956489784323,427.3580250058801 170.1431757067112,439.55792761545285 170.60862694224488,440.98179616468383 184.24827053337503,440.221430600948 184.43817929781653,442.0031921305706 191.51169823119562,429.6519827849477 191.94598345782288,424.92260121808044 167.8776690045852,387.41590182585765 166.78831504900154,386.481585707377 132.59949456898175,419.7865190515074 131.4912079911228,420.72705924997695 101.38513467563462,426.9000491710392 101.19580845334713,426.9000491710392 100.42568763564486,458.7018350992364" stroke="#009edd" stroke-width="5.808145591964024px" fill="none" stroke-linejoin="round" vector-effect="non-scaling-stroke"></polygon>
</svg>