<svg viewBox="0 0 114.85612833777783 90.93890594471237" width="114.85612833777783" height="90.93890594471237" xmlns="http://www.w3.org/2000/svg">
  <title>Kladno, okres Kladno, Střední Čechy, Česko</title>
  <desc>Geojson of Kladno, okres Kladno, Střední Čechy, Česko</desc>
  <metadata>
    <collboard>
      <support-module name="@collboard/map-svg-geojson-import" version="0.11.0"></support-module>
    </collboard>
  </metadata>
  <polygon points="8.052549999999997,51.64531998660061 15.619118106645715,63.36086722950097 16.900274088875108,63.42596043481137 14.691638071096918,64.81709606233164 14.582338586660285,64.89491045309808 22.609988862218984,67.92299651948963 22.68477271998529,67.95184868720355 25.611610480009062,65.36815586727573 25.825694746664908,64.92842172574422 26.584237537790273,68.73141937508592 26.59683501334041,68.79105385737023 44.74251551109012,71.77042290257634 44.91793353777723,71.83198496352236 56.107113271085495,80.67132338448539 56.25325855109952,80.80498876391323 69.6669485777744,82.2103291715681 69.99979863997544,82.18000827104663 72.19867707553897,81.47047165859078 72.44108745776578,81.33737573128712 70.81841609776131,75.76851819665865 70.91744827555488,75.66482426001278 83.42936294220965,70.80563861890516 83.73709087109421,70.78099062093645 82.63863469332102,66.8695411369041 82.63441126220971,66.81194923079568 86.06573058665492,65.96964643295325 86.32700077331504,65.90398829631852 83.17923387556914,56.86149191973493 83.03104969775416,56.49213038128039 94.61337261330448,50.838688251147346 95.1321992799709,50.56848269125442 94.5803861600067,47.933396728265166 94.54739970665071,47.811241089242344 92.39068276441651,48.60314564996918 92.20740041774809,48.68109688847437 92.62595700444183,44.98283514247271 92.56653769777733,44.502707424813366 86.88223632888514,36.22156977770612 86.86162889778609,36.17156044694241 106.55942032888527,33.2167229028488 106.80357833777782,33.158640668443354 105.12818690666575,20.50057464114036 105.30688173330384,20.114594332356887 105.15549357332168,20.11675446542324 99.7398169866716,21.57891746590724 96.00208045333386,18.263669797793796 95.59255327110407,17.800815114481907 94.0478697510913,19.77579345083325 94.03483536889655,20.149952289175076 81.18286167999725,20.829934756860553 80.94729616886582,21.272981787136473 74.60501335998526,18.295163328620788 73.69056770666032,17.452904060722744 79.50004283554847,11.353638631691524 79.60453634666158,11.273245918105772 78.19660461330898,11.611076450069618 77.36109343110695,11.985405235325402 74.78975206221332,8.058349539329015 74.557827439981,8.06073758475361 53.48814907554299,14.662485852844497 52.365590213310156,14.723771534314096 51.92722719111009,18.07334388366837 51.85156951999636,18.504589159397824 47.248684968864495,21.552655496408647 47.07617965332577,21.744447163240352 47.86202911110706,24.18640634933365 47.937832417759296,24.455833670486413 41.693999244430984,25.844556847754234 41.655333004433146,25.914583206067277 42.571671919991445,25.82432194168325 43.79115124443308,25.74451903647389 44.07579593777302,29.615165943825218 44.1234915822057,29.847850673256858 47.94649773333333,30.18317864783569 48.087472951104814,30.553855739599044 42.45982381332544,33.979742655217365 41.69793140443619,34.3337992762896 42.57087092442782,32.63794373528037 41.62686125332368,32.50313686169795 31.422105057754038,34.752640165366415 31.03944763556467,34.72467965300132 8.052549999999997,51.64531998660061" stroke="#009edd" stroke-width="4.83501913830386px" fill="none" stroke-linejoin="round" vector-effect="non-scaling-stroke"></polygon>
</svg>