<svg viewBox="0 0 61.1232347555481 47.977921568977095" width="61.1232347555481" height="47.977921568977095" xmlns="http://www.w3.org/2000/svg">
  <title>Mnichovice, okres Praha-východ, Střední Čechy, 25164, Česko</title>
  <desc>Geojson of Mnichovice, okres Praha-východ, Střední Čechy, 25164, Česko</desc>
  <metadata>
    <collboard>
      <support-module name="@collboard/map-svg-geojson-import" version="0.11.0"></support-module>
    </collboard>
  </metadata>
  <polygon points="8.052549999999997,18.05012562701416 9.384314337752244,18.45237116411557 9.74847604442732,18.276537615187074 8.694220257755319,21.70779178509077 8.673394373333963,22.012708790112477 11.000213644416021,23.538852167963007 11.005966248870777,23.56826810813039 9.12377232887195,27.772660931608364 8.976898871078106,28.14858888264974 14.418498586637384,32.44561303003105 14.543963617768554,32.582035312988985 16.14158566221124,37.47988948855312 16.157459937741464,37.50126714858164 26.709702568863236,37.210914827424524 26.82635664888187,37.196323649324434 29.536197431101414,39.58368252410549 29.59270402664663,39.802766411572186 34.82422445330997,37.384312017041914 34.851749573317306,37.24428223552935 38.79505069330446,39.918359104303484 39.032727919991544,39.92537156897709 37.05652624887409,36.82419073311724 37.024267973297924,36.54616393626896 42.4917179999826,33.066297725068246 42.67172354664183,32.88168803466363 45.22107394663146,26.22819545401547 45.25245840886021,25.865038339652195 47.244315902185576,26.85641760972033 47.30133222221741,26.898049940522135 53.02684845330771,18.32496544457502 53.070684755548086,18.222904875401248 37.10837250663428,16.49984016697966 36.11164276442253,16.183463817294644 35.27016052441434,14.490094948392318 35.270451795520444,14.444832111744866 38.620797751099985,15.232400106651433 38.642934355513376,15.137236245027118 30.74307927996381,10.666610622145193 30.35750914665516,10.503313307453602 31.355331155536646,8.06873336628599 31.24850747554558,8.052550000000004 28.35742324442947,13.098698168417862 28.367617733317843,13.184586490103932 26.406707795547504,10.418212919008177 26.29981129774353,10.354048043627365 14.291577199975677,10.207272021674392 14.145723191096863,9.969283537742406 15.353406035551984,15.648018686893586 15.30228795554251,15.897750407085944 8.052549999999997,18.05012562701416" stroke="#009edd" stroke-width="6.0242520069923655px" fill="none" stroke-linejoin="round" vector-effect="non-scaling-stroke"></polygon>
</svg>