<svg width="114.47224832000211" height="132.68290829652688" xmlns="http://www.w3.org/2000/svg"><polygon points="5,38.70079450297635 5.161946737673134,40.54223301913589 5.04893354664091,41.38851362047717 5.718274559942074,43.34676549618598 6.462472248822451,45.804818170843646 6.772967253229581,47.430573185149115 7.866981546627358,52.66141653328668 8.887595520005561,57.477597176795825 8.694774044444785,59.18265395669732 8.131164444494061,63.43486327142455 8.6805017599836,66.238199893618 8.664773119962774,68.13623909500893 8.682540657697245,69.58862488053273 8.487680284422822,70.96161673031747 8.663608035538346,72.4306723746704 9.001191253308207,73.61646415665746 10.668135822168551,77.09351677785162 10.786974435555749,79.03430961741833 10.99989361781627,80.18668949615676 12.181289244443178,81.04860253003426 12.859077119966969,81.83293592673726 13.61579946661368,83.10527296119835 14.068726044497453,83.51795778889209 14.739814684377052,84.51381042698631 17.125033813295886,86.9326129546389 18.149143039947376,87.97084517305484 22.014893226674758,90.6281920534675 24.07359743991401,91.73360636853613 25.18712689774111,92.07050631509628 27.20301425771322,93.5768531387439 30.319032604340464,94.76929517905228 31.907625244464725,95.82056905591162 32.72755342221353,96.75638346152846 33.590589724481106,97.87935545982327 35.04199367109686,99.15791294060182 35.52929024002515,99.69549113663379 37.68819171551149,101.13188276719302 38.498507946613245,101.78761383041274 38.82531413331162,102.66657899948768 39.073768391041085,103.73450113972649 39.48125667555723,104.73883025022224 39.87971555558033,105.52352962212171 39.9569024000084,105.69715525198262 40.71741127106361,108.24199508840684 41.22975715552457,109.78701364586595 41.80414378666319,110.73584625008516 42.29901340440847,113.5376743854722 43.04350236442406,115.60621494380757 43.050492871087044,117.09977293619886 43.03884202660993,119.75811857439112 44.10431175108533,120.03049007611116 44.92569628439378,120.09542627807241 46.29845703113824,120.11436599999433 47.435579448821954,120.28256869665347 49.47535103990231,120.39485407090979 50.59587100439239,120.6058963050018 53.661208177683875,120.71096640120959 56.372942222165875,122.21576305263443 59.508767004474066,122.93907187145669 64.40241294214502,123.7137852711603 66.72763022221625,124.01275717024691 68.31476650666445,124.37801640154794 69.08488732436672,124.46549815154867 69.07964444439858,124.52592366980389 69.37907114659902,124.59356415551156 71.78730069333687,125.04450019157957 71.99119047110435,125.01383657066617 72.99461944890209,125.283044978627 72.99840597331058,125.2690659906948 73.38870926212985,125.2722225363832 74.69855544890743,125.23704959568568 75.79839516442735,124.84744125825819 76.3553055288503,124.82354165019933 80.19746275548823,125.22757995687425 81.96984746668022,125.48596566997003 82.74346353777219,125.818304262124 83.21765290666372,126.16056288115215 84.48293461336289,127.32622227363754 85.4782079999568,127.68290829652688 87.42215139546897,127.47638219996588 87.53720348444767,127.38303955522133 88.27848846220877,122.9868714971235 89.70921215997078,114.04906164249405 90.20495559100527,110.7038277265383 91.01439800893422,105.82838907808764 92.00093326217029,106.07732725341339 91.80636416003108,105.23986563412473 91.50140330661088,104.00553967041196 91.35460266668815,102.77616753370967 91.45887772436254,101.77182940562489 91.79675221326761,99.7315701629268 92.23686286213342,96.95617368072271 92.46463687112555,96.18136544595473 93.62302207993343,96.58229973562993 94.88189582212362,97.21369082707679 96.12678855110426,97.82388348458335 97.62887367105577,98.63025520410156 101.7235629510833,97.1194332728628 104.55996103107464,96.10334327706369 107.05586318217684,94.62272077059606 105.26658474665601,92.50121432589367 105.9073811910348,92.13184279564302 108.0715255466057,90.94434743234888 108.55794830224477,89.47496520436835 108.92990151105914,87.29387502884492 109.01873919996433,86.58984189538751 108.80028586660046,85.26295201625908 108.59785244439263,84.28063338180073 108.31211548438296,83.15849356201943 108.42804138665088,82.29388270550407 108.65785429335665,81.61599292838946 109.26282439101487,80.19931828323752 109.47224832000211,79.63282626576256 108.86698695097584,78.72309835383203 108.6045516799204,78.16697625326924 108.29085269325878,77.09622298483737 107.36111530661583,75.6894418677548 106.93032533337828,74.64709195576143 106.85313848883379,73.93895871681161 106.81294307555072,71.84341213811422 106.38244437333196,70.76676427281927 106.31574328884017,70.34323020715965 106.38448327104561,70.33060085074976 106.52487594669219,69.99141214822885 106.62944227550179,69.4158726669848 106.74828088888898,67.21563801419688 106.70575530664064,66.21474493353162 106.81090417772066,65.65137407666771 106.86682823102456,64.4141181713203 106.75847537780646,63.596343653742224 106.78119452437386,63.224667958100326 106.85925518220756,62.68248941435013 106.96440405328758,61.32929250592133 107.04537742212415,60.457378193037584 107.44733155553695,58.889908381330315 107.83443086221814,56.94532805029303 109.1180626489222,57.27641764242435 109.26486328884494,55.16041271260474 109.33476835547481,55.127934967167675 108.88125923555344,54.274941342067905 108.78921756439377,53.856337224307936 108.33192191994749,52.62984058645088 108.06074851553421,51.82465240173042 107.68850403546821,50.54807345755398 107.48519679997116,49.94090643862728 107.06314495997503,49.27284033270553 106.69556081772316,48.50868929200806 106.51351637335028,47.81986844306812 106.21146823104937,46.92399210680742 106.11622257775161,45.82466652919538 105.7917465599021,44.02251846384024 105.53513671108522,42.911900665727444 105.35542243544478,42.39673809759552 105.09065699554048,41.89826527971309 104.67676074663177,41.2626543994993 104.35519744001795,40.581479580141604 104.09625742211938,39.82271148695145 103.80731647997163,38.90334447694477 103.32001991115976,37.98713140597101 102.7223315910669,37.12820635817479 102.39144760882482,36.71949398948345 101.85346986667719,36.19664780300809 101.32248263107613,35.586734191165306 100.5430411377456,34.96644308412215 100.28992654220201,34.69125882931985 100.20516664884053,33.87743320199661 100.03710321767721,33.22375399293378 99.9133129955735,31.969622776145115 99.79214421333745,31.382704939576797 99.52883512887638,30.525107326335274 99.40067583997734,29.708108258550055 99.09192846214864,28.33350381802302 98.74473329773173,26.8930245769443 97.83800632879138,23.723305221938062 97.66003967996221,22.752890915609896 97.07458474661689,21.498699607967865 96.64816383994184,20.737158352218103 95.82561422220897,19.035861990996636 95.20171150227543,18.102872842049692 94.69402595551219,17.27635301538976 93.12407466664445,14.953328312491067 92.86280447989702,14.547281451523304 92.32453546661418,13.638636075891554 91.72597333334852,12.716903068649117 91.50955889781471,12.32348476187326 91.17255822219886,11.917884183349088 90.55360711109824,11.51228285196703 90.03922232880723,10.994339234312065 89.45930154668167,10.290511444909498 89.13715569768101,9.825803392683156 88.84413695998956,9.131446510204114 88.43635740445461,8.462804464041255 87.6985676799668,7.536537844513077 84.07369870215189,7.259965511155315 82.7632699732203,7.258160796540324 81.04651804442983,7.268989083764609 80.1144504888216,7.442241607059259 78.71547534223646,7.262672582932282 75.90966072876472,6.092312062275596 74.3848564622458,5.6515077276853845 74.33038876438513,5.732720466214232 71.94080056878738,5.294622502464335 70.31987683556508,5 69.97967217781115,5.003158283070661 69.41344113775995,5.113698164350353 69.21537678223103,5.152499905438162 69.16411306662485,5.139415598125197 68.46418858668767,5.235517560620792 68.39690496004187,5.403808688861318 68.37010801781435,6.814200556720607 68.33690311107785,7.0618979968712665 68.24660906661302,7.028961923555471 67.62212380440906,7.006402966391761 67.62940558220726,6.79254393663723 67.27755007997621,5.982675038627349 66.77248597331345,5.663238458451815 63.2169395199744,5.7543771914206445 60.60103367106058,5.827017441391945 56.71576832002029,5.615864349587355 54.743862897739746,5.859953695908189 51.00423310219776,5.884317497257143 49.05504682660103,5.903718300280161 46.51021112885792,6.122090009856038 42.891458844416775,7.268989083764609 40.40225592884235,8.30714863340836 38.662202311097644,9.667892664670944 38.32957070216071,9.168894013739191 36.89535175112542,10.315325924777426 35.77454051550012,11.09449915861478 34.425663999980316,11.939540295570623 33.8850648177322,12.246786156203598 33.087855786667205,12.655995464301668 32.53560575994197,12.901430447993334 32.066367999999784,13.025050169904716 30.624576000031084,13.629161600838415 29.746976142167114,13.91790732590016 28.268192711053416,14.459755695948843 26.139874702203088,15.460434666078072 25.225283413310535,15.798805688740686 23.60698111995589,16.3510260724579 21.9496484977426,17.03362989600282 20.286781724425964,17.784356292220764 19.681229084380902,18.031138985359576 18.977226808900014,18.81254048284609 17.77252949331887,19.959372955956496 17.40232391108293,20.44661703146994 16.95726165326778,20.933860020770226 16.50870414217934,21.611938039655797 16.076457813265733,22.470021778077353 15.947715982212685,22.793945257668383 15.232936675427482,24.637322380498517 14.895935999928042,25.632992200437002 14.6859295287868,26.413013099692762 14.521943893283606,27.201151689514518 14.348928853287362,28.048837360925972 14.246692693326622,28.847346135415137 14.14037873770576,29.53036206017714 14.074842737754807,29.79607903934084 13.891633208841085,30.410520120582078 13.526087964419276,31.367366558406502 13.28025514667388,31.941652861132752 13.107531377696432,32.29623893718235 12.870145422173664,32.756387949048076 12.636837262194604,33.15428072528448 12.485667555476539,33.335632974805776 12.40731562662404,33.43803828302771 12.442559431074187,33.539541294565424 11.397478684433736,34.728701953194104 10.789304604404606,35.044035958941095 8.865750186610967,35.413955099647865 7.983198719914071,35.80733184039127 5.796626488794573,37.29196176165715 5.128741831053048,37.72909335338045 5.0096119466470554,38.01374720176682 5.000582542154007,38.302460710227024 5,38.70079450297635" stroke="red" stroke-width="3.4703471327868813px" fill="none" stroke-linejoin="round" vector-effect="non-scaling-stroke"></polygon></svg>