<svg width="224.65952711110003" height="265.0927008832805" xmlns="http://www.w3.org/2000/svg"><polygon points="5,88.72596327285282 18.88635022228118,107.04905511334073 19.034024675609544,106.94693735177862 26.232790186651982,137.91989457188174 23.507366400095634,139.34131249634083 31.553730844520032,146.9641116465209 31.81616611557547,147.3546743580373 34.17837482667528,167.13157999975374 32.67541589343455,168.083822657587 41.08645176887512,177.58997470291797 41.289467733353376,178.24973744142335 40.76051939558238,220.50164536817465 40.86217301338911,222.85938333638478 44.88317070226185,237.57216837187298 45.32677660440095,238.52900912845507 84.91663729783613,220.58499116665917 85.80647054221481,221.67294065200258 94.90490624005906,210.4691661381512 96.23892792896368,208.39655922050588 114.88523064891342,217.43922255048528 116.09254940447863,217.53237502882257 118.13494243554305,161.53216730523854 117.86522538668942,160.81885611149482 150.97197368892375,160.97355567273917 151.17673727998044,161.15946249454282 180.953965511173,150.98607191932388 182.82858638220932,151.13854918221477 171.70202993787825,143.30500477703754 171.38221425784286,143.20513309095986 176.0996411733795,136.98268112668302 176.6221815466415,136.60458437469788 172.56914403557312,124.76733117061667 171.70698154671118,122.58155216276646 184.1497921422124,138.2890717521077 184.79903544893023,138.17359248315915 195.44499456009362,127.28527534706518 195.74791651556734,126.88531340716872 196.89202944003046,117.52902898425236 197.07873422221746,116.68715348199476 183.41404131555464,97.71734759409446 182.99228074669372,97.44844086572994 174.82649514672812,103.52128266968066 167.20218254229985,106.88227760937298 169.35846257780213,83.75249363167677 169.36341418675147,82.48903964395868 182.49449841782916,70.6056172400713 184.53164856892545,69.33405978081282 177.58017223118804,63.036820889799856 176.9085010489216,62.49089411867317 171.39939925342333,34.339488964003976 171.3769713777583,34.25562663353048 160.95878627558704,37.45664699043846 158.8153221688699,38.229684651247226 150.99411029333714,28.223254104494117 149.21123982220888,25.964250240649562 146.8758280533366,11.742789443582296 146.79601976892445,11.260977273923345 131.0035913955653,7.30427803855855 126.86870670225471,5 127.97233294229954,11.426488795492332 128.58458481775597,14.726432451279834 120.37714744894765,12.954007049440406 120.18403470225167,12.910287340171635 115.94137969776057,49.80619025271153 115.88836835557595,50.24732814950403 98.54608640004881,48.76690334430896 98.31044807110447,48.720514458138496 98.25335893337615,48.968070420320146 98.54725148447324,54.275068104616366 84.1369045333704,56.707733852323145 82.11548302229494,57.091766089666635 82.47840682661626,58.47356295888312 85.12984775111545,67.43808306846768 78.69129983999301,69.11953112413175 75.61402055120561,69.88576765387552 82.83434012450743,80.94773192505818 83.13347555557266,81.82854422437958 57.26044529781211,56.234494599862956 56.24128768010996,55.79381472140085 28.53091925336048,82.15589331585215 28.455771306646056,82.20227516407613 24.56497180450242,57.841541386034805 24.135929457843304,55.542698161676526 15.984998684492894,71.01906138530467 15.67508622223977,71.55292500799987 7.26579797337763,71.00657333189156 7.015596088953316,71.00077530683484 5,88.72596327285282" stroke="red" stroke-width="3.6192712218436633" fill="none" stroke-linejoin="round" vector-effect="non-scaling-stroke"></polygon><polygon points="5,88.72596327285282 18.88635022228118,107.04905511334073 19.034024675609544,106.94693735177862 26.232790186651982,137.91989457188174 23.507366400095634,139.34131249634083 31.553730844520032,146.9641116465209 31.81616611557547,147.3546743580373 34.17837482667528,167.13157999975374 32.67541589343455,168.083822657587 41.08645176887512,177.58997470291797 41.289467733353376,178.24973744142335 40.76051939558238,220.50164536817465 40.86217301338911,222.85938333638478 44.88317070226185,237.57216837187298 45.32677660440095,238.52900912845507 84.91663729783613,220.58499116665917 85.80647054221481,221.67294065200258 94.90490624005906,210.4691661381512 96.23892792896368,208.39655922050588 114.88523064891342,217.43922255048528 116.09254940447863,217.53237502882257 119.03759160893969,233.4421518027084 117.90745969780255,234.57415929203853 126.04178801784292,248.65557926072506 127.05075114662759,250.13198836881202 138.34012814227026,254.05269116628915 142.09927310224157,250.1480313956854 151.28421632002573,259.93762523517944 151.3576166400453,260.0927008832805 182.6747952356236,248.50940842786804 183.82881137775257,248.25182666344335 202.32743964449037,251.94573429098818 203.99321912892628,252.00856895605102 208.45199729781598,245.30253857880598 210.22030421334784,245.36983162973775 213.27486435556784,250.54866104928078 213.79332693340257,250.62486527254805 217.79772216896527,244.32522725244053 219.65952711110003,241.93919681559782 212.1295863466803,211.20772264734842 213.19301717344206,209.11996810650453 192.762387626688,174.9749767506146 191.33399409789126,172.77899644477293 193.41629127110355,169.55453017819673 194.52574293327052,167.84041270660236 191.61681834666524,154.679826234933 191.1536972799804,152.20811625767965 171.70202993787825,143.30500477703754 171.38221425784286,143.20513309095986 176.0996411733795,136.98268112668302 176.6221815466415,136.60458437469788 172.56914403557312,124.76733117061667 171.70698154671118,122.58155216276646 183.37967132451013,138.12098028656328 183.76094520895276,138.2257588013308 195.7651015111478,126.81620062381262 195.8626773332944,126.4563679114217 195.33139882667456,108.75249725783942 195.08614855108317,108.43276841402985 182.53877162665594,97.2045069495216 181.71185294224415,96.91062642482575 174.82649514672812,103.52128266968066 167.20218254229985,106.88227760937298 169.35846257780213,83.75249363167677 169.36341418675147,82.48903964395868 182.49449841782916,70.6056172400713 184.53164856892545,69.33405978081282 177.58017223118804,63.036820889799856 176.9085010489216,62.49089411867317 171.39939925342333,34.339488964003976 171.3769713777583,34.25562663353048 160.95878627558704,37.45664699043846 158.8153221688699,38.229684651247226 150.99411029333714,28.223254104494117 149.21123982220888,25.964250240649562 146.8758280533366,11.742789443582296 146.79601976892445,11.260977273923345 126.86870670225471,5 126.78860714670736,5.021860640612431 127.97233294229954,11.426488795492332 128.58458481775597,14.726432451279834 120.37714744894765,12.954007049440406 120.18403470225167,12.910287340171635 115.94137969776057,49.80619025271153 115.88836835557595,50.24732814950403 98.54608640004881,48.76690334430896 98.31044807110447,48.720514458138496 98.25335893337615,48.968070420320146 98.54725148447324,54.275068104616366 84.1369045333704,56.707733852323145 82.11548302229494,57.091766089666635 82.47840682661626,58.47356295888312 85.12984775111545,67.43808306846768 78.69129983999301,69.11953112413175 75.61402055120561,69.88576765387552 82.83434012450743,80.94773192505818 83.13347555557266,81.82854422437958 57.26044529781211,56.234494599862956 56.24128768010996,55.79381472140085 28.53091925336048,82.15589331585215 28.455771306646056,82.20227516407613 24.56497180450242,57.841541386034805 24.135929457843304,55.542698161676526 15.984998684492894,71.01906138530467 15.67508622223977,71.55292500799987 7.26579797337763,71.00657333189156 7.015596088953316,71.00077530683484 5,88.72596327285282" stroke="red" stroke-width="3.568017911642784" fill="none" stroke-linejoin="round" vector-effect="non-scaling-stroke"></polygon></svg>