<svg width="6114.630631537759" height="6150.392590468284" xmlns="http://www.w3.org/2000/svg"><polygon points="5948.86412430217,4020.726553400804 5963.577684479998,4017.9751936602406 5963.954589297762,4018.685908574902 5961.662576924427,4027.0070050992654 5961.633158542216,4027.5698754672194 5966.500881351065,4042.9826770899235 5966.50321152003,4044.031277747941 5956.57669205335,4053.9370839424664 5956.205321386689,4054.3277554534143 5964.841801102157,4069.946834635688 5965.765713066678,4071.721167902462 5988.763606186607,4096.186846021854 5989.399451022269,4096.6301522232825 6009.448515413329,4095.306538157747 6009.966395448893,4095.2997804071056 6015.362192782224,4107.253013847978 6016.123866737704,4106.997134185745 6011.550327751087,4107.949023034773 6011.494986239937,4108.248599122744 6039.687117084395,4110.362738709431 6042.305935644428,4110.892058761732 6044.460176782217,4105.385716125602 6045.661087573273,4103.162957840948 6041.7038782576565,4097.159956017393 6042.199621688807,4096.758548668702 6059.226165759959,4106.447081997176 6062.5052959288005,4106.999386648822 6090.193527751137,4100.186931147706 6094.83202019555,4099.348086155194 6092.610495431116,4108.421587233432 6091.336475591059,4110.029829526728 6096.970241422183,4113.264748314628 6101.841750755557,4113.660269151442 6109.594222648884,4099.337724462268 6109.630631537759,4099.146708817338 6082.848544142209,4093.6053804772673 6082.11657983996,4093.583755506377 6085.6520285867155,4080.7719359869952 6085.574259200017,4080.504761668155 6070.690596693312,4065.1955336206593 6068.720147626591,4064.9594302431215 6064.76730737777,4049.7162550848443 6061.781487217755,4047.3090799599886 6020.535167715512,4046.5907975631417 6018.6025838932255,4045.6737899457803 5990.056558648823,4024.4062457818072 5989.491201422177,4024.132242652937 5993.318795093219,4013.467035057547 5988.840501760016,4010.2202740469947 5963.473991964362,4008.907855027821 5957.871683413279,4009.68259783939 5948.86412430217,4020.726553400804" stroke="red" stroke-width="3.534853207136974" fill="none" stroke-linejoin="round" vector-effect="non-scaling-stroke"></polygon><polygon points="2491.8727466666605,6070.686844003794 2498.866166044376,6069.781827286468 2499.2660812799586,6069.888089925575 2493.1266687999014,6074.337680284807 2492.773939484381,6075.249821809004 2503.7988423111383,6101.056548222026 2503.6980625066208,6101.802065650816 2524.611910826643,6106.102803746122 2525.460674844333,6104.065387532639 2544.72447231994,6117.840346797835 2544.7699106133077,6117.968459070893 2556.720181760029,6114.50583041145 2558.734612764325,6114.560290120775 2581.9719307377236,6137.17508284573 2582.411750115454,6138.627038897597 2591.008908231044,6136.821130841505 2593.3460676266113,6136.847911593155 2593.3457763555925,6143.332328397897 2593.4261671821587,6145.392590468284 2607.173581084353,6136.380587010295 2607.6364108799025,6135.283017543261 2623.3600992710562,6138.088749513496 2624.1203168710927,6138.190069423465 2627.3493484088685,6131.586324065109 2628.7136622933904,6131.6546165985055 2616.208810951095,6124.4650373936165 2615.4430591999553,6124.184716271644 2620.1939822933637,6112.808198457118 2620.2242744888645,6111.636856026482 2613.476105386624,6092.937833951204 2613.4548425955,6091.878441536683 2616.913104497711,6080.456055065733 2617.1024307199987,6080.200679716596 2629.47533624887,6072.330330564291 2630.27079765324,6070.30421035469 2608.204680817784,6050.354994360125 2607.710976284463,6050.334454384923 2571.461995235528,6071.983864436974 2570.808382862131,6072.276306887041 2542.983544888906,6072.02627977822 2541.5076741687953,6072.233445117134 2533.531506062136,6060.32737252902 2532.734297031071,6059.053501617629 2510.6440046933712,6057.029938281048 2509.5103775288444,6056.972338787629 2499.5127879111096,6046.078172974521 2499.4032699732343,6045.681654108863 2495.1903246222064,6047.541446437361 2494.4103005866054,6049.4744528351 2497.398742186604,6062.880450192082 2497.687391857733,6063.736380935996 2491.8727466666605,6070.686844003794" stroke="red" stroke-width="3.892796746485482" fill="none" stroke-linejoin="round" vector-effect="non-scaling-stroke"></polygon><polygon points="5,4164.575128263445 22.45325624884572,4186.772490567819 22.936183751095086,4187.875792363717 19.051500942208804,4205.919616381056 18.926836906699464,4206.9305128454 32.7339613866061,4212.900785641628 36.105715768761,4214.107068058511 37.83470108441543,4231.6075462642475 38.33219214214478,4232.575551836169 55.12571932433639,4232.759247293987 56.47954744880553,4232.5273767763865 59.361966364318505,4227.052910022787 61.05687295994721,4228.533312271233 52.6336036977591,4260.32442496391 51.72542037325911,4262.631120136648 58.96205112885218,4277.427784461819 63.21490062226076,4279.118060764042 52.29747683554888,4302.7661557397805 51.727459271089174,4303.840517443605 52.81826958223246,4312.000453289016 52.34815800888464,4313.748521331116 74.73117781325709,4324.621425157529 74.77341212448664,4324.749687905656 125.27166719990782,4319.726682519191 129.8894793955842,4319.903554033139 122.5774094221415,4332.9583474808605 122.10496767994482,4333.787296978757 160.9465528888395,4348.681301519973 161.20170638221316,4348.818550075754 161.84861951996572,4332.859341359173 161.8850284088403,4332.587974350783 170.41286399995442,4333.375072756433 170.5054882132681,4332.782386570063 163.2155548443552,4325.152477450436 162.9985578666674,4325.053467798687 170.2852872532094,4318.8886786458315 172.81119032891002,4318.072724423604 161.26432967104483,4307.992986125988 161.7056054044515,4306.051336501259 187.71320291550364,4307.498348693247 188.29516259545926,4307.079323751503 192.9263732621912,4313.745370860561 195.51635598216671,4316.835960653436 208.2553892977303,4309.269856661675 209.31940266664606,4308.9741562521085 223.77285774215125,4310.947285062983 224.5161816177424,4309.254103986314 237.51007715554442,4319.76448712952 238.42903751099948,4320.986382628675 253.54542563552968,4309.988627528946 254.92342926212586,4309.023664719833 262.5908499910729,4290.209640608518 264.2674065065803,4289.192827075603 277.719180231099,4286.022625125828 280.60072533320636,4284.432780594332 291.2778504533926,4303.5209550244035 292.357883733348,4304.189785131603 302.1699336533202,4287.496776994085 303.616968533257,4288.024768515781 305.0270119821653,4274.001277511183 304.7785577243194,4272.122797902324 294.3519257599255,4253.515390805318 293.42247964441776,4251.485469815554 297.2748313599732,4214.675761046237 297.37065955554135,4213.23894162965 294.03618787555024,4205.950686319615 289.85761251556687,4202.974706522538 273.2898204444209,4201.156857826281 273.1768072532723,4201.059593264305 271.41024796443526,4191.487378108839 271.22354318224825,4190.096789557312 275.85475384886377,4182.792451982619 276.8430367289111,4182.038587232528 297.83640206221025,4189.334393832134 298.8369183287723,4189.352857079473 326.1866931199329,4177.523450443812 328.65405070222914,4177.1402044419665 326.61631800886244,4179.96927368833 326.4922365155071,4181.050092779449 344.5318215111038,4185.222004397248 345.36951722658705,4186.608120640391 382.231332693249,4187.521835740539 384.3069306310499,4187.8622825794155 407.897851733258,4194.368498158408 412.0432221866213,4195.504634320037 436.0891087644268,4227.222202271165 437.36633258662187,4228.804808312212 455.4804829865461,4221.507165740593 455.98438200890087,4221.332916241139 454.4508396089077,4214.535726726346 453.63702812441625,4211.614347234368 432.848135111155,4205.962844120455 431.97519559110515,4205.844418105553 428.08701752882916,4197.660259725992 427.5111745421309,4194.652195017727 428.7249012622051,4170.161046732974 428.5952856177464,4169.133767260122 435.6906498844037,4168.57396321994 436.01687352883164,4168.348780177184 434.8427596800029,4166.232048247242 439.456202808884,4164.432359631988 436.95971811551135,4158.183325894352 437.50352127989754,4156.976284757839 462.2703038577456,4134.379966179025 464.7769830399193,4134.160153181525 468.5990425599739,4121.210615797085 468.9779862755677,4118.43979813077 473.8521170488093,4117.608681128768 475.0317650488578,4117.370381958783 467.4150254932465,4115.0414331165375 466.73082965321373,4114.988276934717 465.13757667550817,4106.429062246112 464.5308589510387,4104.9442296540365 445.2874504532665,4110.841604480054 444.8074356621364,4111.188477431657 432.86124231107533,4106.833605301101 431.40517802664544,4106.326800130366 438.1017921421444,4099.803099144308 439.3973660443444,4098.167300508358 434.4772144354647,4092.126317643211 431.7989765688544,4091.240587137756 401.43629340443294,4105.801072992501 400.71102833771147,4106.308329875348 371.67974542221054,4099.245370220742 371.2789563733386,4098.99398628308 367.3945648354711,4085.921623429982 367.4496150756022,4084.276259659091 363.4271610310534,4082.165472296183 359.05605546664447,4080.184872931335 360.70989283546805,4073.550905849377 360.8415473777568,4072.2969895716524 354.36513422220014,4066.651799201034 354.20551765337586,4066.2683589257067 336.07097827550024,4067.507440823014 334.54326129774563,4067.010006606579 344.81755847111344,4054.5476486842963 345.776714239968,4053.2490137369605 346.0004104533,4039.8922725532902 346.3589651910588,4038.859874838905 357.6931979377987,4025.9997834915994 358.6771117510507,4025.3796751745977 350.05140906665474,4019.9635671820142 349.41439914668445,4019.1248651426286 350.1280133689288,4011.730537698022 350.86842453328427,4009.1859334789915 334.47393877326977,4015.8795401684474 332.81165454222355,4015.635721974133 309.73395313776564,4002.6471653790213 309.1112155022565,4002.666095097433 290.2575277511496,4015.3445819629123 288.8949614933226,4015.3292587936157 272.8319422577042,4009.261650078639 271.47316252440214,4008.9344460132997 271.42481151991524,4001.1066413776716 271.221795555437,3999.177590754465 263.8977834666148,3995.911687286687 262.03335708437953,3995.772414304549 217.94394026661757,4010.8169894305174 217.67131050664466,4010.803919397993 204.966647182242,3997.5157991559827 198.08886243554298,3997.678959074663 199.6620177066652,4008.9357980972854 199.79512860439718,4010.042701330036 191.81430015992373,4014.4360063086497 186.2285940621514,4015.386044650688 183.3607387021184,4006.162656399305 183.19850069331005,4005.6700403571595 187.32260835554916,3999.7923648097785 186.31684920878615,3999.2334793763002 178.27747527102474,4008.8506167938467 176.3239199288655,4010.842228111811 179.7845119999256,4028.5491492841393 180.4692903822288,4030.8199841200258 151.1752809244208,4039.5087853635778 150.41011171555147,4040.2996424623416 156.2640785066178,4063.208472432976 156.3497122132685,4064.5768881611293 146.96437447110657,4093.3044327731477 146.6932010666933,4093.945973487338 149.41862485324964,4104.905937418109 149.27065912890248,4106.094345099293 145.125579946558,4110.439321264275 144.57828152889851,4110.972695491393 142.03140693320893,4136.326292531681 141.85926570661832,4137.731636597076 127.67407132440712,4146.31755227159 127.10288867552299,4147.8345335092745 129.5798582044663,4152.384513317957 129.33693809772376,4153.583923042286 124.64339541329537,4156.337180802948 124.70951395551674,4158.074332154822 128.69468529778533,4172.162448917166 128.99090801773127,4172.622264429694 125.63837752887048,4177.828335444268 125.77702257782221,4178.6326533623505 115.56214471103158,4171.131125595421 114.84853048878722,4171.038801654824 88.01983971544541,4183.203158567194 87.83371747552883,4183.6710569055285 78.34293959115166,4172.715488416783 76.02092629321851,4170.909998433664 65.62895559112076,4173.445066074375 65.17369884438813,4173.4383107368485 37.000500622205436,4163.0100727220415 35.16054101334885,4162.504298422718 17.384265102096833,4170.058814401738 15.749651626567356,4170.571777026984 5,4164.575128263445" stroke="red" stroke-width="3.7293714093290453" fill="none" stroke-linejoin="round" vector-effect="non-scaling-stroke"></polygon><polygon points="2082.9761663998943,3255.9402600612375 2096.7419303820934,3257.4797172010876 2097.799244515598,3257.2576633898425 2124.7106562843546,3246.392579232517 2126.4291558399564,3245.816837689723 2131.367074986687,3248.3070333101205 2134.62435982225,3248.697339273116 2136.540049919975,3259.7337088805507 2138.3465133510763,3260.7969300182885 2180.629175466718,3272.851080351975 2182.433017457719,3273.3118879635585 2183.4081931377295,3283.6067726478213 2184.194333866588,3283.7329346539336 2201.282627413282,3278.746992818429 2201.958085119957,3278.4924019454047 2209.3852071821457,3269.3070348186884 2210.2124171376927,3267.8680554035236 2218.6059767466504,3277.582564993936 2219.108419413329,3278.3273473129375 2236.095350613352,3272.83253949543 2236.460022044368,3272.8714300707798 2245.1401924266247,3259.475477868924 2246.8776246043853,3258.798920213827 2256.41384078213,3265.2121140400413 2262.801707519917,3267.385077155661 2259.9329783465946,3271.3800167628797 2259.1911108266795,3272.143813390401 2264.9041023999453,3276.3923550628824 2266.0021944887703,3277.352844129957 2287.412660053349,3255.714134419337 2288.056660479866,3255.393035605317 2265.2955707733054,3241.907363174483 2261.6849740799516,3240.9964690668276 2255.359730631113,3232.171363577945 2255.061760284356,3231.3585783737944 2259.7573418666143,3230.3942683495115 2259.7462735644076,3229.5647412122926 2250.1719008710934,3222.8641811722773 2245.262526293285,3223.367160017602 2249.5855721243424,3211.5644918994512 2249.6444088887656,3211.1374796337914 2236.7745948444353,3210.8574785523815 2235.7522332444787,3210.3956343031605 2234.893274737755,3205.1732431836426 2234.3707343643764,3202.9788516687695 2222.333373155445,3197.9983016882325 2222.0100622222526,3197.7133076498285 2220.8490555733442,3183.915531791514 2220.4331204266055,3182.4787033781176 2212.316850915551,3176.2010636834893 2210.8453492622357,3175.1464784929994 2210.9810815999517,3162.4625544130104 2211.725279288832,3159.4542274880223 2219.917861831025,3146.7236904664314 2220.303504782147,3145.5621774790925 2216.4890183110256,3138.985281954636 2216.4770761955297,3137.400191058754 2190.5003534222487,3120.049864533241 2189.072833706625,3118.651533361699 2155.6095695644617,3076.201805208868 2153.071724373265,3073.9029161944054 2132.623909831047,3064.1797824239475 2131.90184874658,3064.1652976592886 2111.043633208843,3064.8315958363237 2109.7535934577463,3064.9366100371117 2110.5767256177496,3070.0464856198523 2110.637892551138,3070.435752834077 2084.71942400001,3078.455860683811 2083.6006516622147,3080.1726387083763 2083.65278919111,3096.5748139094794 2083.676382151083,3098.317698802217 2087.9618540088413,3103.272466590046 2088.685662720003,3103.693354171468 2085.1225432177307,3105.673325173091 2085.0849692444317,3105.883766748302 2090.9733060265426,3116.304670018493 2092.483838008833,3117.3934801790165 2087.240958008915,3117.3975530248135 2086.6528816354694,3117.648711699352 2089.352091022185,3129.0464857014595 2090.0922109155217,3130.1370422904147 2107.57401173329,3141.175792545604 2107.8728558933362,3141.2798650070326 2131.5488281599246,3143.3898103277897 2133.4519935999997,3143.604740348179 2136.7952034132322,3152.280044107465 2137.6130926932674,3153.934706104861 2119.628849208937,3180.2623679407407 2117.8008317155764,3184.996313677053 2117.6805367466295,3205.987935382698 2117.761218844331,3206.518999064632 2108.29956807103,3212.1131833399995 2106.2897974044317,3214.6720665786415 2107.355558399926,3222.216458504845 2106.870883271098,3222.7529105156427 2100.2345622754656,3223.8800886888057 2099.8751337244175,3224.5608254947 2094.8081814754987,3237.785243014805 2094.6870126932627,3238.72193087748 2098.990543360007,3245.1370717595564 2098.0348828444257,3247.160986041301 2082.9761663998943,3255.9402600612375" stroke="red" stroke-width="3.3708919290305577" fill="none" stroke-linejoin="round" vector-effect="non-scaling-stroke"></polygon><polygon points="2731.522752568824,30.035673250444233 2732.8917267910438,44.73585842963075 2732.959884231095,46.30973701371113 2738.0638279110426,48.957168608903885 2738.9254078577505,50.05138189642457 2733.3178564267,56.35860559833236 2732.265202631126,58.26331238576677 2748.8574614755344,60.00140003999695 2753.5434311110293,61.748193870298564 2755.285523626604,56.47885505377781 2755.629806080018,55.94966515514534 2766.0937207466923,65.20502324821427 2766.289163662237,65.36473734141327 2781.9982884977944,56.594973739178386 2783.2391034309985,56.75515316723613 2792.356180479983,69.29284074925818 2794.1137103644433,69.94728823465994 2818.864764302154,76.10845152201364 2819.212250737706,77.09468025964452 2825.5686601955676,72.80003194848541 2825.8672130843624,72.43793384497985 2835.591299128835,82.88851104618516 2836.3952073955443,83.66728183662053 2845.8583145244047,78.45538399054203 2846.029290666571,77.71101356827421 2831.6544787910534,68.39607007650193 2828.6535125332884,66.697978252545 2839.3201518933056,65.94943677843548 2840.360281031113,64.56111724313814 2834.185916017741,59.33866111119278 2832.154882559902,58.16325832682196 2839.4197666132823,33.65504295891151 2839.512682097731,33.573338135669474 2834.875646008877,19.76064747828059 2833.9499864176614,18.08925702981651 2819.010691128904,22.68704150861595 2817.4215159466257,23.00331921002362 2816.5220707554836,17.28500192053616 2816.6886778310873,16.427034691500012 2795.1369457778055,7.628657151595689 2793.989628871088,5 2788.938987804344,9.727979111019522 2788.1808091021376,10.564855977427214 2781.7463389866753,5.554104859358631 2780.9200028444175,5.589453671243973 2759.6939118932933,20.50567673362093 2758.6931043554796,20.722804307588376 2759.4107963732677,21.3907112267334 2762.6270119822584,25.90212735917885 2758.313578097732,29.68819220579462 2758.807865173323,29.994361134362407 2741.522089813254,30.384530804061797 2738.5383085510693,30.813716626376845 2739.7899005154613,38.98736335989088 2739.8006775466492,41.38473023381084 2736.4784392532893,31.007423744886182 2735.9430829510093,29.172707406745758 2731.522752568824,30.035673250444233" stroke="red" stroke-width="3.919611103427112" fill="none" stroke-linejoin="round" vector-effect="non-scaling-stroke"></polygon></svg>