<svg width="20011.022425315576" height="17272.402933721023" xmlns="http://www.w3.org/2000/svg"><polygon points="5,8832.182815708104 84.19865400891285,9389.044246869627 90.67069809779059,9440.970238756447 263.81389738665894,11199.018157504674 267.85965312004555,11250.804699671338 309.9337651199894,11458.734641383577 320.45156494213734,11510.498235556006 340.7147135999985,11546.437369591556 374.73051904002205,11572.251694562146 375.74385123560205,11564.980987108778 376.807282062131,11561.600305463944 392.57087459554896,11546.687718721107 391.6696817778284,11539.799026616907 383.16427406214643,11527.870402697707 380.65817742224317,11525.157655814837 370.8592347021913,11520.63137767237 369.15471616003197,11519.162284342456 360.5700827022083,11497.927398264583 360.99941632000264,11493.112998765777 377.9889689600095,11490.963970572455 381.91297336888965,11492.254289997683 404.70639416889753,11481.3888398665 416.58646897773724,11474.234980279463 431.8624736710917,11471.545763539849 439.06793841777835,11467.877867467178 458.3390176711837,11486.543563420943 460.88327082665637,11487.022965742857 474.71078428439796,11475.451992364426 473.5911381334299,11471.420124226424 487.04378567112144,11469.843018227082 488.7404398933286,11470.569503380219 499.06454442674294,11459.451519983646 503.3252582399873,11457.024950483348 531.4212696177419,11455.950981044734 532.751504782238,11455.327879605815 546.0506524443626,11444.55411539547 558.1046161067206,11421.876738612656 563.3795359288342,11414.985873123573 572.5542846578173,11410.328998187731 587.7638795378152,11403.950843015511 627.4312183466973,11415.728348923963 637.9394062221982,11418.364582315902 669.7514544356382,11412.460848097515 677.6178133334033,11411.483300158987 694.1675465955632,11425.49077767093 707.4276639289455,11436.378768801631 731.1327633067267,11441.92670120456 754.7548504177248,11442.931858921307 764.2526188088814,11440.756820782612 767.8527297421824,11439.506681679515 803.6278126933612,11417.106886848109 826.8115367821883,11407.925398478692 860.2908208355075,11407.42910637724 872.9957754311617,11403.363765943504 891.9021832533181,11380.982311719912 909.1605791288894,11376.931542081002 952.09860124439,11381.429322805197 973.1353659733431,11386.816579714767 1000.4164007822983,11385.769252963422 1019.0414407110075,11381.61299707921 1114.059320035507,11393.406824959326 1128.2063579022652,11394.88881714741 1149.7764400355518,11389.172157134337 1153.339268266689,11389.066943923244 1167.2937759289052,11417.121014893404 1171.608083626721,11417.352774912957 1173.4136732444167,11405.06547642016 1174.4832207644358,11404.042526792793 1176.0135591821745,11404.17148526496 1183.3378625422483,11414.752609302755 1189.982047857833,11414.406621193339 1198.9322265599621,11415.459614862164 1220.1175395555329,11387.743961545988 1226.9571677866625,11377.973170882615 1254.1892690488603,11382.936292089522 1272.5961469155736,11380.449024402187 1288.9233490489423,11389.849429211929 1303.5448675556108,11399.429164031928 1313.730327039957,11399.429164031928 1352.9027962310938,11395.958374599286 1366.3446667378303,11420.352421737683 1452.2064386844868,11440.38860260474 1461.5999320177361,11442.244720763469 1487.9593850311358,11460.77616535849 1498.4905833244557,11464.932234644017 1553.636942791054,11460.079126284749 1572.4728630044265,11466.399341739248 1582.073158826679,11483.058794260607 1584.7650864355965,11489.566347173939 1604.033252977766,11498.426629514492 1610.2617944177473,11505.72089406324 1619.2268279467244,11526.141350905353 1630.8278650310822,11544.803636385011 1652.8861175467027,11555.83276172611 1695.5812195555773,11590.95358044526 1712.8958307555877,11588.406973571924 1774.4114156088326,11543.909228898177 1782.5381708799396,11536.560376417241 1792.1623509333003,11534.344464751892 1802.0070232177386,11535.747706007096 1835.600776817766,11550.372919329326 1845.0201932799537,11552.065243766061 1853.1944257422583,11550.685478236643 1861.6246855111094,11546.08213213255 1871.6945103644393,11533.747883469972 1875.1944240354933,11531.622727437818 1903.6382131200517,11534.557250290993 1912.2257592888782,11533.591600125306 1935.3821038933238,11522.654080742388 1938.7634702222422,11518.255820909806 1942.2258099199971,11512.185249693226 1943.4325461334083,11506.410973282938 1943.006999039906,11488.779168336827 1944.0383900444722,11486.24780658388 1964.8508760178229,11470.060332651366 1965.975765048992,11466.154072673933 1965.2749667555327,11407.760669220763 1964.5383421155857,11400.060433359875 1972.2570265600225,11383.841734612884 1973.4445388800232,11380.35252761026 1951.1946299732663,11343.435329188302 1951.4445405866718,11336.62272882217 1977.0382418489316,11268.747897999303 1977.5695203555515,11264.4977141688 1994.3345029689372,11253.824330681353 1995.9446496712044,11251.497745724744 1995.0195726222591,11231.302902767551 1995.5383264711127,11227.466520644899 2008.9758279111702,11206.122919084039 2018.9466205866775,11196.519685952982 2023.943085226696,11175.216297890816 2025.1632199110463,11163.685376056063 2045.569673955557,11120.872847857361 2049.975732053281,11115.122883569333 2072.172338346718,11116.213034874585 2077.882125937729,11114.62276666722 2108.1944192000665,11088.060399427195 2118.2237573688617,11084.015984887898 2131.0495894755004,11090.676564452064 2150.406884977827,11086.313978028833 2162.6632820622763,11093.37271648139 2164.9133513955167,11093.716463807796 2186.3893529600464,11086.897722970229 2197.6321265777806,11083.904107517737 2225.8819291022373,11070.216732730507 2229.8196232533082,11068.49793406087 2245.8039992888225,11055.081829559116 2250.225786026567,11052.341612503747 2265.548102826695,11023.845216788002 2303.3239270400954,11011.419282333867 2324.0592261689017,11008.950490302115 2355.4480574578047,11031.86918054003 2373.1576322844485,11038.447267242707 2392.3448254577816,11034.91295600374 2414.51143082662,11021.784620423045 2438.194684871123,11019.497835274786 2450.652059022221,11015.054177023703 2476.9445196799934,11016.904251131811 2484.3232907378115,11017.429104584851 2490.5384337066207,11015.68520596443 2495.5028585244436,11011.986850559071 2496.9446505244123,11004.654144824424 2503.6945672533475,11002.091483726108 2541.692340053385,11001.270648066013 2555.802386488882,10999.75770905061 2564.1007004444255,11001.560301805323 2572.257165368879,11038.24785931874 2577.2585816177307,11043.836070958117 2585.7569988267496,11049.716575705854 2620.991773866699,11057.510450712987 2626.0695031466894,11060.1541038531 2640.0071170844603,11093.622933275357 2646.4896469332743,11098.50484874181 2673.0695921777515,11095.935329010303 2675.442869191058,11097.78187157336 2678.0383860622533,11103.372894758824 2677.9445967643987,11105.966745579964 2669.943670613342,11113.766883238219 2668.2883768889587,11116.622931306949 2668.9757767111296,11126.43541022687 2671.444590648869,11131.778999308415 2691.0069410133874,11142.466651230701 2698.2517273599515,11146.609348637692 2711.225816462189,11172.341554705286 2714.850685440004,11177.466467469523 2739.819610168808,11191.997816715331 2742.1631775288843,11193.841689399851 2736.819517724449,11219.622901759401 2739.3194976710947,11223.62290023826 2743.569434453384,11225.90417864779 2748.257151715574,11225.497957106563 2761.413285262184,11219.654172981682 2763.6945206044475,11219.872770812071 2769.806844871142,11242.58490855107 2772.8509192533093,11247.216483653407 2797.288274204475,11244.27920760907 2799.22056675551,11247.525875582418 2792.9990158221917,11263.915927578579 2791.100801991066,11266.060267187771 2772.095653262222,11272.977610040689 2765.899734186707,11276.667912864767 2764.8508669155417,11300.154108635441 2763.132076088921,11308.091492132808 2763.59577969776,11316.958967070095 2766.1318772621453,11318.966647004068 2794.105554773356,11315.931975440704 2803.6318677333184,11316.529049804492 2814.131900017732,11328.029091861274 2818.6943707022583,11331.029135909572 2831.4444723200286,11331.341495675675 2833.2803541333415,11337.114563536306 2820.8491943823174,11369.237568007899 2820.2346123377793,11379.249877930037 2831.8196295110974,11398.904007622157 2830.69095395552,11403.15244212083 2800.569443271146,11435.403960780648 2801.2111135289306,11440.220574814419 2831.908758471138,11469.853838863957 2838.069433742203,11475.154126679932 2859.132121599978,11474.653976537229 2862.6235884089256,11475.679524388106 2889.3150904888753,11507.770992332778 2896.4445334755583,11517.153997343965 2916.269319111132,11523.319798187062 2922.882047146675,11527.1541977023 2935.132036266732,11541.904020723538 2937.6058018133044,11547.628706038056 2948.257003804436,11553.2165989973 2955.9538429155946,11556.165453953203 2955.75694364449,11577.716469576466 2956.444634737796,11581.778959094023 2962.1844232532894,11586.022939373448 2970.163212800049,11591.935376881913 3014.882066488848,11579.247945034236 3021.5906227199594,11581.931324516481 3028.6655980087817,11591.072586149676 3027.667994453339,11641.31216443557 3027.506921528955,11651.779001217918 3013.2387148799608,11683.799031590752 3013.6007648711093,11693.060312793823 3016.7884359110612,11698.935460883251 3038.1633664000547,11700.685405674856 3044.427442915505,11704.889281076263 3055.5071047111414,11725.90406169009 3057.5695954489056,11731.278965038597 3085.8447385600302,11743.913080615283 3099.673125831061,11753.626317565038 3103.06963825773,11758.310278157413 3097.9444317866582,11789.404169184098 3101.0071475199657,11793.216637058475 3123.7070702933706,11799.358901523461 3129.148597191088,11802.03269951645 3147.5091629511444,11793.298354024359 3158.075022506644,11787.366638200881 3178.7881850311533,11798.9665433169 3181.007088355487,11797.997964357084 3189.444629902253,11790.122801482736 3192.1907339377794,11791.597016788844 4309.632545280037,9657.061463164166 4315.256990435533,9655.966487045225 4317.100736568798,9655.77901778603 4338.632079644478,9663.435375022469 4339.413268764503,9664.247932771745 4340.975938275573,9693.060223865148 4341.58527743991,9694.49780615099 4351.538302577799,9706.903978998424 4352.600859591039,9707.810209526855 4366.850716160028,9713.403977647307 4367.381994666648,9713.997979290143 4368.31959637336,9728.029038364708 4368.600672995555,9728.529001140327 4384.0694991644705,9730.404084147885 4384.882145564421,9730.935386820056 4405.600842240034,9753.122837806877 4406.1321207466535,9753.841562954534 4405.350931626745,9776.904232954315 4405.569676231127,9778.247912951047 4419.350877582212,9798.591714954819 4419.6319542044075,9799.560494626 4418.132199253305,9821.60730060807 4418.569688462187,9822.247908177786 4434.788246471202,9827.84159681265 4435.663224888849,9827.966643709748 4449.663170844433,9826.685439184017 4450.694561848883,9826.966569179262 4457.6632231822,9839.841469852836 4458.3509142755065,9840.37298454385 4470.475656817784,9842.06032989762 4471.100724622258,9842.935337268573 4471.788415715564,9860.685319361102 4471.944537031115,9861.528966302343 4481.382012302289,9888.997815888724 4481.475801600027,9890.372900165443 4481.913290808909,9903.247754440235 4481.788335502148,9904.31037878734 4475.288329386734,9918.84167604358 4474.788216888905,9922.185226582515 4477.225864817738,9935.935240065912 4477.81947534217,9936.779091019649 4485.944482986699,9937.96668662387 4487.694439822226,9937.669637291634 4500.6790146844,9931.060405346274 4501.553993102163,9930.560296643001 4514.5694427022245,9909.638538581727 4515.2571337955305,9909.013382135541 4524.819564373349,9909.732236677024 4525.210158933303,9910.15402857936 4528.8819225600455,9922.96673160186 4528.944545848877,9924.154051046353 4525.600753493374,9936.935448859585 4525.788332088967,9938.247768676956 4541.350947555504,9964.239954975026 4541.403376355534,9964.581879186153 4538.382021120051,10006.90408814873 4538.882133617764,10007.935215554025 4550.85075484449,10015.247949790151 4551.91331185773,10015.21662172419 4566.819402239984,10004.529145226174 4567.444470044458,10004.779171333066 4574.975867164438,10037.497727445792 4576.194545493345,10038.591460552765 4602.69468245341,10033.43544632144 4604.319683982292,10033.747814524802 4630.756906382274,10054.716507258883 4631.475763484486,10055.466527788143 4634.819555839989,10064.310379791888 4634.725766542251,10065.122739488608 4621.225933084497,10088.435256470693 4620.538241991075,10089.77919938881 4615.225748195546,10110.716582693218 4615.632071395521,10111.591531794984 4628.569460337749,10123.46662916243 4629.756972657749,10124.154226495826 4646.444477155572,10127.372943456809 4647.413244871073,10128.060235516052 4697.63217095111,10182.029087927542 4700.163316906663,10183.716455957445 4729.663255039952,10191.341630981013 4736.725705671124,10191.68524361652 4759.569516373333,10185.654077936022 4762.257074915455,10185.591739238938 4797.382040746626,10197.716655074852 4798.850920959958,10197.841631309537 4836.694611342275,10191.84154062788 4837.382011164445,10192.12281492463 4841.194458737737,10205.841566604737 4841.882149831043,10206.529077673797 4876.257092551095,10218.060365071578 4877.1009049599525,10218.810500048741 4887.78822456894,10249.185278864403 4888.131924479967,10249.497845508216 4901.350681315642,10247.872979137872 4902.50702762662,10248.060278616496 4959.725781048881,10265.966705667845 4960.506970168906,10266.56020567671 4970.8194238578435,10297.497948570759 4971.475657671108,10298.779135914578 4985.056464497815,10310.463871003536 4985.850760817761,10310.685477602645 5006.131968284491,10300.966633338423 5006.9131574044,10300.810362256248 5068.600883484469,10298.185363852768 5069.507027911139,10297.997777537326 5087.319421440014,10286.40405665699 5088.819467662252,10286.18545295688 5095.507052373374,10287.841539785732 5096.506986097782,10288.4353211759 5111.381910471129,10305.810416296881 5112.444467484485,10305.466562176123 5117.225682773278,10296.622945864161 5117.538216675515,10295.31043962395 5118.257073777844,10261.310226342059 5118.44465237332,10260.49780824635 5125.163403093349,10256.091521684604 5126.257126115612,10255.997873095272 5141.538373688934,10256.841613280587 5142.88200732437,10257.154176286538 5166.194473244483,10272.091684329149 5167.444608853315,10272.310292710026 5177.725896533346,10264.997712620592 5178.725830257754,10264.59150597459 5195.881989973364,10264.904065298964 5197.19445760001,10265.216624474793 5209.382114702254,10279.654106994218 5210.600793031044,10279.997974595812 5235.257183857728,10275.747794561787 5236.163328284398,10275.435240387742 5238.975842133281,10267.591527351411 5239.256918755593,10266.93539617228 5244.413291235571,10265.31027175195 5246.007126755547,10265.529183502134 5273.725650773384,10275.591517493303 5275.444441600004,10276.747786254506 5289.725755448919,10301.747988193005 5291.007057066658,10302.466713400674 5318.632083057775,10303.122809166322 5319.725806080038,10303.904161462735 5338.514540373348,10323.966381541686 5342.075912248925,10329.264336396765 5340.395569208893,10346.051550601376 5340.429065386648,10350.881152570306 5349.554880568874,10372.950366597099 5351.226194204413,10376.272938386945 5346.321479964419,10403.167812517786 5346.608090737718,10407.921131357958 5349.158460586681,10411.969659167225 5352.8477004800225,10416.267429664324 5364.908072106657,10420.501651536964 5367.23969735112,10423.037957002816 5354.4301764266565,10451.337949642097 5352.093890844379,10456.889552617795 5356.919961884385,10467.292737261334 5357.2138544355985,10472.393877318595 5352.022820693324,10483.188140397426 5352.824107520049,10487.079377998889 5378.914134755498,10500.257400153729 5383.035912248888,10503.646456395567 5393.190788266715,10497.34542873135 5396.480695466627,10495.408722838794 5408.4991240534,10496.033020632749 5412.627309511066,10497.109436274506 5414.398820408853,10506.536426601466 5415.322732373374,10510.45401525934 5432.871234275517,10517.84002903616 5434.670124657801,10520.900303276256 5432.111890488886,10539.38716507185 5430.929621048854,10542.313399028848 5477.132501048851,10570.55290880194 5479.326063786633,10573.051618836005 5482.789859839948,10586.013638772245 5483.81513415114,10590.590179206687 5497.338560568984,10604.953135856369 5499.05210851552,10608.480098073254 5489.71133525332,10632.16253599216 5489.299477902241,10636.441120879957 5496.769416817697,10651.78174409055 5501.92462421325,10655.283479403355 5498.916958719958,10664.839427273197 5496.633684479981,10670.988396639295 5501.225573546719,10681.602178854868 5505.502307271119,10688.533696578175 5524.849117013277,10710.158339306363 5528.806326328893,10713.686848966929 5532.481002666638,10726.18994778354 5534.563882382237,10730.464316087833 5557.966642346582,10736.651494518504 5561.393446968868,10738.23453875212 5572.848848497728,10753.31644940708 5575.124549688888,10755.806046606798 5577.2953932799865,10763.491423133411 5578.748253582278,10765.267273487407 5573.708680817741,10781.875547599106 5573.370806328952,10787.091311060009 5577.708124444471,10801.795121098927 5579.216617528931,10806.017253979982 5580.962205297779,10807.603141913482 5583.807632782147,10807.585089710134 5610.229709084495,10794.651462828042 5611.855293155531,10795.727695067355 5626.277290951111,10852.948732966266 5629.485059697763,10860.635094532452 5634.446571804467,10868.46366605087 5637.57511480886,10872.028941914556 5648.066991502186,10870.927863055898 5649.461888853344,10871.026839891041 5659.631619697786,10884.325703211594 5661.2784665599465,10885.922535731865 5681.624627484474,10882.023706574575 5684.12402488885,10880.770119858731 5699.852373617818,10889.908884486882 5703.040335928905,10891.3943957265 5727.6675996443955,10879.270746428578 5729.49823857774,10880.718977562094 5735.793189831078,10895.772092078289 5736.828076088917,10899.299317594385 5736.2883507199585,10932.177577754192 5738.198797937832,10933.743612866907 5746.445265635615,10930.321252851863 5748.755919359974,10929.684728654101 5774.3426301155705,10939.23252792348 5777.259419022244,10939.432867807278 5785.628220586572,10930.901223331806 5787.712265386712,10930.12662571593 5802.141253688955,10932.963002277596 5804.512783075566,10934.877075867204 5801.307927040034,10953.427332359599 5801.03820999118,10957.363044100464 5815.985369600006,10979.810957462818 5818.870409955503,10983.91615975945 5824.164844942279,11029.408885514422 5824.068725475576,11033.405206113122 5829.445590186631,11039.403702613665 5864.650364302215,11053.228251847264 5867.607639893424,11055.60665308073 5866.947619555518,11078.51322016836 5867.928329386632,11086.545551301853 5889.215587271028,11102.480307019257 5894.301472142222,11103.999930920487 5921.903487715637,11100.724901047244 5925.429033244494,11100.150190298154 5937.341147875646,11094.088781360537 5942.888988728868,11091.145722751331 5953.716992284404,11097.330160816957 5956.57523569779,11097.725031821174 5963.221168639953,11083.388027794193 5964.507421866641,11081.347163175873 5973.576147911139,11082.714657440782 5976.673233635491,11080.66386611748 5978.878155946732,11070.545454353443 5981.282307697809,11070.048311708437 5986.390911715571,11079.938764471852 5987.043941546581,11081.276788422954 5998.426234026672,11081.27408170153 6004.013396480004,11082.493007471261 6015.531421297812,11096.481172333297 6018.817250702297,11098.608302981651 6023.006311822217,11099.708405509882 6027.394311111188,11100.285221805738 6038.3670764088165,11091.824497991533 6040.205870933365,11090.92197037267 6057.069885724457,11090.530403530225 6059.282963626669,11091.60255029262 6082.136095004389,11121.16726154316 6085.269589617848,11121.92329364369 6098.026390471146,11094.96784694289 6102.674786133342,11090.752953069343 6164.149884302169,11062.418795002799 6168.37739320891,11060.789000112563 6174.887885084492,11066.184240629256 6177.971863608807,11067.818232932827 6183.580871395534,11065.851005560136 6186.7554352355655,11065.31867121585 6190.963720248896,11051.839042666717 6192.438425884466,11050.851045208809 6225.195066311047,11052.791849793342 6228.86391722667,11052.034536663734 6232.031490560039,11036.507924912672 6236.2919131022645,11034.651889639033 6258.702312391135,11035.487121187325 6261.342393742176,11035.029653838952 6292.628406328964,11023.074937674974 6303.4922362311045,11016.831764175615 6323.127113102237,11013.965665741067 6326.485760284471,11012.037080474198 6329.015158613329,11013.676919704361 6329.920720497728,11017.211042311974 6337.708144924487,11013.433590916218 6341.19582520891,11011.886089939508 6349.744923591148,11014.383144165447 6352.897059555631,11015.45300663315 6369.75204494223,11034.267508331453 6377.359463822213,11034.496392689063 6384.309192533372,11024.955367593153 6385.257862542174,11024.111701272777 6401.668076942209,11021.027272215288 6402.814520035521,11020.299699797935 6408.770722986665,11009.765300960105 6409.373654186726,11009.216679939593 6450.91299242666,11015.510154144431 6452.863926328835,11015.5029355117 6461.400500053307,11007.192733697942 6463.126281386707,11006.030819156731 6471.434207288898,11004.994328323693 6476.338630257756,11004.18462513946 6480.042724977713,10996.099871578743 6482.39852572442,10994.793259873462 6501.869999502203,10998.412904917845 6508.928663608851,10997.69824163476 6517.099692088901,10976.622851039632 6518.538862648886,10975.341167212755 6544.231304817833,10977.003355152614 6546.571959466673,10976.07149568369 6547.340041386662,10964.644230194797 6547.322565120063,10964.5723391723 6563.32703886216,10963.946676390595 6567.931743857684,10963.393806579697 6573.585024853353,10953.641204175598 6577.112318008905,10949.905506449693 6601.74074680882,10947.123347113375 6609.411954062292,10946.617990946805 6619.851693226723,10931.965804764011 6621.346496568876,10930.679823871877 6625.407107128878,10934.670116736786 6626.555880391039,10939.518298009702 6638.677127680043,10938.93201798515 6641.016325973324,10938.567735986726 6663.707510613371,10952.696979144122 6667.423256177804,10954.545420970418 6676.627714560018,10949.529198193282 6679.427703751135,10948.781995559577 6699.419679004466,10956.4913178336 6702.699391715578,10957.72220221092 6748.825958684436,10943.500416237337 6749.587050097878,10942.536323467386 6760.485249991063,10943.183363729564 6763.496993280016,10943.40957198583 6765.256853333325,10942.446080703172 6766.942730524461,10940.423436349665 6762.878624711069,10936.00271582848 6765.034613475553,10930.201227777812 6767.453911324497,10927.10282867594 6781.128507448826,10935.825537456956 6785.146883697831,10937.826537318877 6805.077400746639,10938.165852395527 6811.120985031128,10938.975635552197 6813.84873898665,10937.96099996299 6817.211172693409,10935.991284967226 6820.8736156444065,10924.920403980359 6822.454343964462,10924.840988253884 6882.580856888904,10943.182160493918 6891.116556800087,10942.668378690316 6924.156312746694,10915.435271754686 6926.928339911159,10913.85836410732 6943.8675026489655,10913.650796817907 6945.525417813333,10913.515125989565 6955.94505927118,10906.869327398948 6957.316654933267,10906.865115845285 6949.694672497804,10892.292078517668 6948.533957120031,10891.641679779452 6956.052538311109,10880.55351716379 6957.005286115571,10878.503609843086 6971.017465457786,10886.36596593837 6976.091699484503,10885.964351754461 7013.391877973336,10873.139044169628 7016.092543715495,10873.123400465061 7021.223575608921,10864.186272557767 7022.852363662212,10860.37305751926 7044.1876812800765,10844.46381831501 7046.104536462226,10843.37593150558 7106.455910684424,10850.540728593594 7111.581699697766,10850.890617825033 7114.114884551149,10840.891776235832 7117.27022449777,10839.288217050838 7121.675117511069,10839.010527141509 7125.766311537824,10837.451189347834 7139.341001671157,10843.119002226682 7146.468114488875,10842.19748574309 7155.930347804446,10834.303018732055 7158.444308764418,10832.781878976966 7188.092503893306,10829.676107575244 7191.498336995486,10828.37518730521 7226.915156479925,10801.141625325487 7229.19260529778,10799.179328914091 7235.95388159994,10791.856018933991 7238.096763164387,10789.393334763648 7240.236732017831,10776.281832810433 7240.915684977779,10774.449746351514 7265.3195437511895,10759.029209610599 7265.772761599976,10758.63835077663 7268.038268302218,10747.99781532603 7267.975936284522,10747.451085255074 7261.991480035591,10741.450866208877 7262.085269333329,10741.06029794534 7273.829320533434,10728.178939198784 7274.257197795552,10727.716747473285 7281.040028159972,10732.861320457887 7286.066493724473,10732.752092352312 7293.491576888831,10722.91968390951 7293.9290660978295,10722.638635453768 7305.803898026701,10721.638414932007 7309.6632402489195,10722.122878128372 7323.553959537763,10724.857229933841 7324.460103964433,10725.075989628735 7341.882194204489,10737.685393441294 7342.5069707377115,10737.607159003906 7354.350927928928,10721.122957739804 7359.6476930844365,10718.591705061088 7412.490680604475,10709.38860052923 7418.191438791109,10707.7284533059 7433.955031324411,10684.540725092229 7435.386337564443,10682.377366508299 7433.657934791176,10675.931184200803 7434.059888924472,10674.504174364207 7438.340409173397,10673.832798578544 7440.649315271061,10672.180687636312 7448.645872355555,10656.806830817251 7450.345439288882,10655.195605212764 7458.345491626649,10654.863669380953 7461.296359253349,10652.471800474217 7477.938134186668,10628.45091573475 7479.657507555559,10625.837450723513 7479.665663146647,10618.115570517955 7480.4040354132885,10614.990738581866 7490.095499093295,10607.005090386898 7492.3176064,10603.929563907906 7495.593823857722,10593.34915027034 7496.6761873066425,10591.442220039782 7492.866943715606,10574.285921531788 7494.9087542044,10570.993840611773 7529.467197724502,10555.44878549286 7530.819569493295,10553.66244121542 7527.764426808804,10539.829923580808 7527.647335822228,10538.54499001382 7536.687517297687,10513.219039282529 7537.169279715512,10511.127362583182 7521.033442702144,10489.75058331556 7519.856124871061,10488.15821633354 7520.0029255111,10473.969425071438 7520.3809954132885,10472.473046124098 7536.608291555545,10461.881801247771 7538.6868022044655,10460.822486808931 7543.223932302208,10443.884664162586 7543.756375893368,10442.999921472801 7552.225957262213,10446.092150709184 7553.6639627377735,10445.758905906114 7574.316832142184,10426.615260068502 7574.69111552008,10425.787993523467 7587.436265528784,10424.791539358499 7587.765984426718,10424.89780780481 7587.780547982315,10436.173003529373 7589.046412231051,10437.292565109732 7605.399828764494,10438.08489686955 7606.7303552000085,10438.360045290261 7624.1425422221655,10432.833272929769 7625.056259697769,10432.610804246797 7625.180923733395,10429.080797227332 7624.8780017778045,10426.295552378113 7631.226255644462,10421.637195081741 7631.485778204398,10421.299121213611 7650.972106808913,10423.260428910668 7652.1849597155815,10423.205337768595 7661.387961742235,10418.93350242899 7664.719811982242,10419.186381400505 7681.776648248895,10429.728939961002 7683.966715733404,10430.439096550166 7713.347523982171,10430.482145441289 7715.626720426604,10432.14118134114 7717.651054648915,10422.48674414499 7718.306705920026,10420.932748892112 7724.689329777844,10418.323883081554 7726.460549404495,10418.321173660981 7744.116239075549,10428.91883670498 7744.426734079956,10428.986872170877 7744.052741973312,10435.29788375838 7744.848785919952,10435.668161615205 7759.452536888886,10432.053277529369 7759.898764231126,10431.893425019865 7765.326310115517,10436.322619693412 7766.430227626697,10436.34820796753 7779.379849955556,10428.571133218938 7779.91724515555,10428.306517196528 7779.796658915584,10424.076861034438 7779.972004124429,10423.875161451753 7792.57938289782,10421.839798483474 7793.742428444442,10421.36113655765 7807.556834702264,10404.731483282754 7807.634604088962,10404.665251635073 7814.92016839108,10407.9283565933 7817.179267128813,10408.422983974568 7821.831449315534,10401.586676895327 7822.0889329777565,10401.583064242965 7831.6560238932725,10407.738393087813 7832.4680877511855,10407.974116415251 7845.166634382214,10407.728157334786 7845.510916835512,10407.749531995389 7855.529769244487,10418.110440915276 7856.731845119968,10418.536422038975 7878.937189546647,10400.05942634301 7880.279658097774,10399.394696435716 7883.068870257819,10392.355081330868 7883.584711395553,10392.070279857726 7909.420750222285,10391.543727973127 7911.22721365327,10391.13850250881 7928.637070506578,10381.94890963519 7929.066695395624,10381.89682567824 7970.071842417703,10394.02595430531 7971.695096320007,10394.106336736353 7954.909142186749,10419.847478825657 7939.308661475545,10438.512069259072 7943.5903468088945,10501.034605988418 7939.308661475545,10517.10829420836 7994.32977436448,10566.440641210938 7999.834798364434,10588.502057549136 8049.088743253378,10625.79110406083 8078.795483875554,10646.52639799175 8127.731943253311,10644.600360253768 8179.196635875618,10652.274383631826 8182.9219933865825,10652.822094848845 8188.971694364445,10676.102413137909 8188.974607075565,10677.42951113591 8181.576320853317,10704.626912842097 8181.7685597866075,10706.077329414198 8203.098343253369,10715.869063031336 8204.10322858661,10716.43477648421 8196.623386453371,10735.37085381028 8196.875918506645,10735.915788398066 8207.033415964455,10737.997729295574 8207.974221653421,10739.002739623305 8214.08800227556,10755.44978864718 8214.17072327109,10755.9510772418 8209.016972231097,10757.67037991219 8209.395624675555,10758.804744134366 8220.947436942253,10767.858526123804 8221.323176675476,10768.679949899553 8218.203663075576,10774.297498506145 8218.518235875526,10775.368648615316 8233.488988444442,10779.672488303855 8234.86524444446,10780.0160962292 8242.25100600894,10795.939812203113 8242.810246542213,10796.597224457073 8242.099545031087,10813.408404271468 8242.105370453326,10815.108303081011 8247.408252302208,10818.918467592332 8247.718456035596,10819.726289469574 8245.272069973289,10832.525547331432 8245.085947733372,10833.154041061469 8251.542554453365,10833.942289899278 8252.388114488916,10834.808459970693 8247.579810986645,10871.373108277738 8247.626414364437,10872.226293561573 8256.573097813409,10876.03643243527 8257.769930808921,10877.441951521032 8256.415520142298,10887.553057835612 8257.930129920016,10888.241967268754 8241.720892586629,10901.295012029354 8240.209195519914,10901.989923824964 8231.672039253288,10900.070641867118 8230.023444764432,10900.765554937534 8206.94603463111,10928.0892040857 8194.392249742174,10947.401292842056 8172.509051164496,10961.51801637013 8172.209041920025,10961.641344624513 8162.669913031161,10988.3789745479 8161.877655608929,10989.251260809076 8144.946065919939,10992.096710841404 8144.284880497726,10992.83063045016 8145.103352320031,11002.921943403722 8145.1062650311505,11004.191242331406 8154.994919253397,11000.425447964342 8156.259035875555,11001.493227274565 8153.567690808908,11015.265923693602 8153.43661880889,11016.201337868231 8167.5370532977395,11025.862194911984 8168.603105564485,11026.993095584621 8173.873656320036,11039.127900478605 8174.475131164421,11039.947185877536 8177.425707519986,11053.839394700422 8177.693676942261,11054.840921890805 8174.713973475504,11058.389865043224 8174.4518294755835,11059.46055945428 8184.757001386606,11065.048594081658 8185.071574186673,11065.355363201175 8183.11131960887,11071.469663505035 8182.782183253323,11072.804997612839 8189.321219697711,11088.094984960859 8189.656181475613,11088.762635782536 8188.01341240888,11096.58492762543 8188.214389475528,11097.854049029527 8194.867021653336,11102.581655484799 8195.531119786669,11103.249291877903 8205.27705116442,11096.879652715521 8206.209118720028,11097.478124693502 8204.774899768876,11105.944190398674 8204.898107448826,11106.876771327807 8210.624788764399,11112.638234165264 8211.288886897732,11112.836717752973 8253.990396871115,11104.674482836796 8255.149655893329,11103.591530455858 8255.94366094214,11087.508534366032 8256.124249031069,11086.597279346723 8268.774153386708,11067.90274448233 8269.158631253405,11067.43056237878 8276.286035342258,11033.303245644842 8276.70837845339,11032.391916875786 8293.609093404491,11008.72099564824 8293.85550876439,11007.824672392802 8305.914132764447,11002.939990324841 8306.39473009773,11002.515887551126 8303.526874737698,10997.629662794701 8303.368423253298,10997.176982117118 8308.12196778669,10991.275562127761 8308.602565119974,10990.547656564217 8336.4830358756,10969.119205524505 8341.408430364449,10945.716771501 8358.564298808924,10933.594108712918 8395.64311125339,10931.42825001158 8427.420789475553,10931.097354313766 8455.263394986629,10938.707913889142 8489.953784320038,10944.633862681745 8479.529191253358,10931.42825001158 8478.247598364484,10915.30441443238 8464.645237475517,10894.15633077774 8438.60268743115,10866.659811512916 8438.110439253272,10861.334862216958 8452.440977919963,10866.238630631298 8482.118591431063,10876.707905107702 8507.517432320048,10893.584751648596 8529.537528319983,10893.31400346919 8522.343131875503,10853.813674942474 8548.062370986678,10857.574279184977 8521.440191431204,10823.45730063296 8517.624539875542,10816.537418192718 8530.909415253322,10796.80031506787 8523.391707875533,10760.273096011137 8532.188095431076,10743.242422160984 8542.790363875567,10753.021572641097 8554.615970986662,10763.131558607449 8562.949237475637,10742.129094374191 8560.269543253351,10731.116075851838 8567.638702364406,10724.255414721032 8575.648657920072,10729.100011724862 8592.073435875587,10721.577330417 8596.620177919976,10720.584330124082 8610.685659875511,10731.778065724473 8613.130589582259,10731.740151776816 8614.329461475485,10726.331674902758 8621.116078364546,10726.090949416975 8636.554029795574,10711.90424076526 8639.320522808819,10712.55000046693 8645.874122808804,10720.674602939223 8655.74821347557,10731.687794417026 8658.748305920046,10752.510051410354 8663.845550364349,10765.117430655228 8674.855598364375,10763.462537693675 8691.95729038224,10778.94495359977 8694.505621333257,10782.329878778488 8709.607737173326,10782.468284241739 8718.132368782186,10794.776928068255 8743.537326364429,10794.724274792825 8784.548298808862,10827.127817797009 8811.48796387564,10823.036092451832 8823.163275093306,10820.32591230038 8839.511448746664,10821.842868401727 8866.959964444512,10844.71683598269 8872.569554773392,10837.560400274873 8875.725768533302,10836.091617107624 8884.944499199977,10835.841604738496 8889.007731199963,10836.19420940039 8906.661964515573,10827.95759256347 8913.663248213357,10830.560334773269 8916.381972764386,10832.497868321545 8919.111183075584,10836.499579327996 8925.17399125325,10891.057764368423 8925.695075271069,10891.690113749879 8943.5409649777,10893.119967206323 8944.082146702218,10893.534512828046 8946.61620536889,10887.52207193611 8946.731257457752,10887.314797289728 8949.956211199984,10889.422738332592 8950.382340835524,10889.238327600935 8950.68205880886,10883.31820461544 8950.94682424888,10883.110928662994 8955.830275697866,10887.810270829475 8956.325727857766,10887.890894297161 8967.850743182236,10879.036995491886 8968.18890894216,10878.941629899608 8974.913193813409,10884.200856498908 8975.249320675619,10884.185513889242 8979.374302151147,10878.35740253498 8979.569453795557,10878.341758952767 8986.155384888873,10889.7401172049 8986.413451093365,10889.810512119147 9002.085293226643,10883.419887134572 9003.913310720003,10882.888610842696 9013.616425244487,10886.982375552645 9014.014884124394,10886.943267102062 9024.358503822237,10868.0136054022 9024.60084138671,10867.864989051712 9048.577405439923,10869.177565106715 9048.725953706657,10869.099346115487 9048.264871537802,10859.3883870875 9048.366525155492,10859.177493536787 9055.31945784879,10856.04476878664 9055.366352497716,10855.747831565735 9055.421111466596,10850.685437747685 9055.210231182165,10850.388498139742 9049.842978417757,10848.622802846017 9049.788219448877,10848.357150891738 9052.986958791153,10840.796706042776 9053.028610559995,10840.49013466324 9046.27869383106,10842.66110225924 9045.777707520057,10842.549786188116 9032.594777031103,10833.388710660278 9030.81219783111,10832.717796074809 9027.916962986696,10825.725802971981 9027.136356408824,10824.832242627803 9021.75075356441,10831.944588741695 9020.74878094229,10832.055906584254 9007.624104675488,10826.97738716309 9006.6774735644,10826.41778490675 9005.783271253342,10821.32718795666 9004.947323164437,10820.544941478758 8999.054908586666,10821.22188559972 8998.27721472003,10821.336213872186 8996.101419519982,10815.517481615709 8995.655774720013,10815.240684399207 8987.153570986702,10818.438888703531 8986.262281386647,10818.381724321109 8982.860234808875,10807.866403157183 8982.02719943109,10806.581687302853 8967.507334542228,10800.777869803598 8966.951006720075,10800.60938082618 8965.270372408908,10787.686750969675 8964.769386097789,10786.51031283784 8954.669269048842,10775.78687810566 8954.06779420434,10775.115002832317 8958.290351502248,10773.505869326007 8958.532397795469,10773.021443555539 8956.14980010665,10762.919731905858 8956.02455352887,10762.623054054158 8961.977843768895,10762.115150893456 8962.32940799999,10761.724594763247 8959.86845838232,10756.005839838472 8959.743503075559,10755.568340725906 8964.32170239999,10749.224571257655 8964.399763057823,10748.951056334248 8958.896777955582,10745.21481316426 8958.693761991104,10745.120932901336 8956.303008711198,10734.863230741641 8956.162324764417,10734.363129864738 8963.389052302227,10729.011545487272 8963.748189582257,10727.925576326554 8961.85084956442,10693.255777933868 8961.85084956442,10693.044831732637 8986.342963484349,10666.849366803013 8986.553843768896,10666.638412213826 8984.33523171558,10662.568269533804 8984.468051342177,10662.443080276484 9001.15555584,10655.177548870794 9001.272646826692,10655.099304716568 9007.17117809772,10647.068095098424 9007.264967395458,10646.935379348113 9020.894416497787,10645.996738171089 9022.467280497774,10643.77577363816 9032.05592547555,10589.001666385331 9032.615166008822,10588.462931540038 9038.647390719969,10590.69612005516 9039.695966719999,10590.84660418582 9050.135123342276,10586.283910156053 9050.580768142245,10586.226725796761 9055.576067697839,10574.750627925037 9055.852775253356,10574.302174222015 9080.22051640891,10580.493216299219 9081.056464497815,10580.770111336256 9086.389638542198,10574.497808425105 9086.389638542198,10574.04935455101 9096.68024689774,10574.545964527759 9097.347257742309,10574.822862050147 9114.235156764393,10549.453150935413 9114.345839786693,10549.004680104146 9127.4763414755,10551.457721541985 9128.309376853402,10551.737638576247 9134.257132942206,10545.799158271111 9134.536753208959,10545.573416712054 9139.712640853366,10548.98361099721 9140.321397475549,10549.374894302164 9147.879882808891,10538.063703643566 9148.488639431074,10537.278113507142 9153.888805831084,10541.136826983711 9154.445133653353,10541.194015235815 9165.399840142229,10536.369115327543 9166.011509475531,10536.089191795676 9163.28229916445,10530.328158626857 9163.224044942297,10529.319822169025 9166.891148231109,10525.060712421197 9167.502817564411,10524.220927122922 9172.177718897816,10526.960007857298 9172.95832547557,10527.017197334208 9173.407756800065,10522.024537381541 9174.566142008873,10521.250065202534 9175.737051875563,10525.951666268054 9175.850647608866,10526.454332267225 9181.131392853335,10522.252393967356 9181.632379164454,10522.195204078685 9184.358676764416,10526.225574135315 9185.028600319987,10525.888456744084 9189.525826275581,10515.305291323224 9190.0268125867,10515.025358882092 9194.81822236441,10528.624520612182 9195.208525653346,10529.238553193572 9202.88351943111,10527.441603298124 9203.218481208896,10527.330234383582 9199.938185955514,10523.482878375216 9200.474707342219,10521.660327880527 9206.15624163556,10519.929878512747 9209.11788629333,10520.711275239184 9209.793926542276,10531.684443989012 9210.851240675547,10532.746955879906 9222.401014044415,10527.642970287881 9223.123366400017,10527.417222537333 9240.926439253264,10533.374228388246 9241.841030542157,10533.527735485462 9246.77225045336,10525.789127480006 9247.15964103106,10525.509199473716 9254.17053667549,10526.345973161922 9255.169596586726,10526.511521787907 9251.115102719981,10534.800940037181 9250.783053653315,10535.526334443246 9256.905572408927,10540.784667638014 9257.292962986743,10541.290332280856 9262.797986986698,10534.680542548478 9263.185377564398,10534.903277885343 9266.861218986684,10540.050249254738 9267.306863786653,10540.947202743962 9262.91449543112,10547.105447915033 9263.028091164422,10548.225122701493 9269.258380231098,10551.132656450442 9270.595314631122,10551.355386252631 9281.267488142243,10540.604073029128 9282.380143786664,10540.209774628573 9286.163755520014,10543.454452192294 9287.110386631102,10544.348391176085 9290.334757831064,10540.540864904411 9290.72506112,10540.20676471619 9296.512618097826,10547.198754219571 9297.459249208798,10546.696103972092 9303.290496853297,10531.914404214302 9303.902166186715,10531.185995896638 9314.588903253316,10542.542452591355 9316.088949475554,10542.990927799663 9320.20461027557,10540.468627040158 9320.70559658669,10539.34893913637 9318.58805560891,10533.527735485462 9319.700711253332,10532.68796093011 9327.934945564484,10538.337606498797 9329.603929031175,10538.280417999951 9352.349290097714,10526.180424494669 9353.511461831164,10526.04798553104 9360.079625386628,10536.399214624951 9360.80197774223,10538.247308866761 9359.08056547551,10545.13397292298 9359.639806008898,10545.973731690727 9388.592154453392,10551.042360563355 9390.03394645336,10551.10857754841 9387.732904675533,10557.82655725797 9387.901841919986,10559.226127786678 9394.408838542178,10559.334481510683 9395.410811164416,10559.614395215816 9397.525439431076,10566.834923993738 9397.749718186678,10567.337558956759 9408.148096853285,10559.274284999585 9408.59374165337,10558.994371150737 9421.109661297756,10563.635508073261 9421.552393386606,10563.409772593935 9428.668146631098,10547.511781725741 9429.611865031067,10547.174675174465 9436.733443697798,10549.970848430006 9437.735416320036,10550.81060106348 9449.81442929781,10573.308953530737 9450.536781653296,10573.980130100448 9460.102124942234,10568.770216998179 9461.159439075505,10568.153211288736 9461.546829653322,10561.26979642926 9461.768195697805,10560.878520152182 9482.183387875557,10566.750649830909 9483.296043519978,10567.813105456939 9485.08153543109,10592.104650181485 9485.47183871991,10592.718623915222 9516.23589347559,10616.777519466064 9517.17961187556,10617.505833688774 9523.74777543114,10641.458499195927 9524.13807871996,10642.298135935212 9557.45658112003,10675.816530002048 9558.126504675485,10676.261905781284 9571.134672497748,10670.655565908062 9571.862850275473,10670.511118522496 9588.270151964505,10683.366812788765 9589.324553386657,10684.037878009898 9597.835495253326,10682.749913668958 9598.557847608929,10682.749913668958 9611.458245120011,10689.91192669823 9612.34953471995,10690.134609899076 9630.422907164437,10689.183691925602 9632.537535431096,10688.73531557346 9670.964933120064,10696.234295035247 9672.354296320002,10696.456976116751 9688.982964053284,10693.492904254177 9690.26164423104,10693.378554008785 9696.879323875532,10700.543461629597 9697.4356516978,10701.383023655682 9707.723347342224,10698.024769185868 9708.725319964462,10697.74491388048 9711.227338808938,10705.132452587655 9711.504046364455,10705.52364379348 9722.51409436448,10703.79036408494 9723.906370275537,10704.238730276411 9728.520104675554,10716.552131874196 9728.630787697737,10717.334500611469 9723.903457564418,10733.619597721263 9724.791834453354,10735.352799647313 9740.418529564398,10735.969649937178 9741.306906453334,10736.755004843988 9754.594694542233,10762.999166926893 9755.372388408869,10764.344144820061 9764.768794453237,10771.225454500935 9765.826108586625,10772.57041576656 9765.269780764473,10781.076405381551 9765.325122275623,10781.299058053643 9776.055550008896,10786.392969789973 9776.667219342315,10787.286581710563 9778.499314631103,10791.932140853023 9778.33329009777,10792.997245052014 9772.271938275546,10799.484114062565 9772.828266097698,10800.380717145803 9781.278041031095,10800.829018234741 9783.057707519969,10800.886184123694 9782.501379697816,10807.375984985323 9783.113049031119,10808.161255626532 9800.292219164432,10809.843115685624 9800.682522453368,10810.34556679352 9800.12328191998,10821.534783983137 9800.012598897796,10822.542676815356 9792.392946631066,10827.296300066751 9791.839531520032,10827.970228719409 9793.115298986668,10832.669658679515 9793.840564053273,10833.451890922734 9806.962327608955,10830.936710131704 9808.18566627556,10831.216509421065 9812.129477120005,10837.988819826976 9815.799493120052,10837.82034026063 9823.419145386666,10830.885564012337 9824.252180764452,10831.333844571956 9830.310619875556,10836.929804702871 9831.64464156446,10838.497266831226 9836.86713258666,10853.940031589416 9837.534143431112,10855.170503399102 9848.817986275535,10864.740427910758 9850.15200796444,10865.805415732786 9853.906492586713,10881.855238134449 9854.797782186652,10883.097691880073 9868.248682097765,10890.353816207557 9870.788566186675,10891.599262448377 9886.228847786668,10889.875492033374 9888.081332053407,10889.249759262777 9896.801989119966,10879.935898259864 9900.25063907553,10875.477473037376 9917.324951608898,10870.28195611434 9922.739681564388,10871.933575320232 9943.45488298661,10890.480165932153 9948.502611342235,10896.06359653984 9981.451199431089,10913.246792474005 9988.852398364455,10916.901774474885 10048.318308408838,10963.725889480673 10055.463188764406,10968.58679422026 10105.334628408891,11028.030755425047 10112.598929920001,11038.930598118226 10172.775541475508,11089.316003527085 10190.991636764491,11098.32019491354 10207.8154561423,11098.873554767866 10227.08012743108,11101.4087791302 10254.124650097801,11096.419520630385 10268.996953031048,11089.33705555182 10282.159494542168,11075.063631003024 10288.643189475522,11068.164399389934 10294.7453192533,11065.484687395743 10302.178558008862,11065.68318494811 10314.307087075547,11056.898108178691 10317.88389632001,11054.203313162085 10319.00529009779,11033.79349790176 10318.437311431044,11027.606668554246 10340.604499342153,11012.333647441177 10342.267657386605,11011.004809844017 10338.904932408826,11003.315967736242 10339.909817742184,10997.850739293324 10356.908399786684,10981.96011582407 10360.66579711996,10979.084543382458 10416.817041920032,10998.220703882631 10418.675351608894,10998.653832897951 10420.542399431113,10990.168664097611 10421.116203519981,10987.437505685724 10427.26493667555,10985.86136954365 10429.55724032002,10981.692411380354 10435.851609031088,10929.51506898296 10438.094396586646,10924.885509192653 10446.069399608881,10919.275245897938 10451.216160142212,10919.281262291363 10457.423147519934,10927.887657536077 10459.922253653407,10928.55246010347 10476.379071431118,10915.46986621496 10481.959825920057,10914.284628903551 10484.965743786655,10911.697555381572 10487.686215964379,10907.816926299536 10491.429049742175,10887.53500779724 10492.00576654228,10883.937023730366 10499.44191800896,10883.660254921531 10503.525538986665,10883.103708599636 10504.36439978669,10870.949824482552 10506.563496675575,10868.32949024759 10509.863598364405,10865.15559285722 10513.481185564422,10861.376980626781 10525.930112853297,10859.689233692014 10527.360254008905,10857.890168975631 10521.077536142198,10845.847140847472 10517.853164942237,10841.201957689133 10500.432239786722,10832.200318892777 10500.985654897755,10829.30003236502 10533.873076053336,10793.054411613382 10535.879934008932,10787.879313534882 10545.285078186658,10784.115307045053 10547.341452231165,10782.051262476132 10549.595890631084,10772.850239580963 10553.897964942269,10765.24982191436 10585.413499164511,10745.062859526835 10592.401093119988,10739.98668538878 10593.31859712,10723.617490000557 10595.401185564464,10721.53520316194 10635.919909831136,10715.583197007654 10642.642447075574,10713.714532918879 10662.434319075546,10698.012732400966 10665.428586097783,10697.678711532906 10717.216589653282,10695.448892246524 10718.16613347549,10695.169035856088 10729.027633208781,10702.508456392039 10729.56939747557,10702.71909867099 10778.942763520055,10702.78830969095 10780.498151253327,10702.78830969095 10804.388207786717,10725.197255288193 10806.080492942128,10726.491155489173 10823.297528319992,10725.007683651987 11014.54264462227,11182.644565271738 11149.288155875634,11110.619712887681 11247.609632142237,11155.566461057344 11456.687530951109,11245.369449963502 11482.555318328901,11281.422823491273 11709.380365937715,11423.970076077385 12061.239945955575,11536.837477569294 12395.574325760012,11673.983534237545 12753.63535900449,11829.04888682015 12937.149266204447,11941.161478695285 13141.281381546636,12104.675307599246 13292.179914808949,12295.515739734517 13409.996749084443,12493.676207440614 13519.960040391074,12684.665126666136 13643.280151039944,12862.880828139372 13806.807908408926,13161.18699923408 13878.55817756441,13239.452915909293 14036.633339733351,13514.268137281586 14206.364006684395,13607.433454932238 14479.596989155514,13842.382453598839 14613.920739840018,13879.920617292984 14771.094709191122,14008.02212980995 14966.893266773317,14091.519342826854 15177.068966399995,14189.480194845702 15253.513652053312,14373.288121484395 15407.900156871066,14523.02096318861 15456.255239111139,14633.197878219245 15666.922895644442,14843.378854453389 15884.897379271104,15099.818412073655 15900.453878044384,15118.582624952483 16011.424676124356,15308.280408528575 16121.025917439954,15570.41369740403 16306.908732586657,15735.41499628796 16385.902623004396,15935.734051948122 16604.3489658311,16006.271178143448 16857.64094549336,16051.339897753904 17021.128216177807,16408.789270017995 17030.5284087467,16430.08159709786 17322.34303175111,16825.581034856557 17396.256571448874,16927.996273015626 17526.42737863108,16804.321767504676 17545.447382186656,16782.989112962212 17570.409316408914,16762.968699577963 17601.16754574224,16760.193847096292 17626.275115519995,16766.220933300036 17648.38259285339,16783.85436499334 17761.920071964385,16830.93454484403 17778.056491520023,16841.58536533988 17792.707428408903,16858.351905181247 17813.737202631077,16863.632394766202 17848.689735964406,16889.616650536424 17870.768086186727,16906.05400027428 17920.715838862234,16957.547775857965 17940.789661297807,16978.242939939606 17974.531089351163,17003.469298032345 17977.693711075583,17005.834040547255 17994.96608796448,17026.772792784555 17996.83022307558,17035.064620896417 18059.744783075526,17088.57162416255 18088.289351964486,17122.809398747282 18141.27156707563,17162.413583591755 18157.23322396446,17170.10753609694 18169.728754631127,17201.449168849795 18223.264384853304,17245.164315633243 18260.73466567113,17267.402933721023 18264.16059648001,17256.34587464237 18263.551548586693,17251.625957735523 18251.240683804383,17236.90335470304 18253.902610488818,17230.776458549313 18264.04204913776,17218.092524119245 18268.857343146694,17213.335697265633 18286.728864711127,17205.212465581775 18291.544158719946,17201.33674678963 18302.36866702221,17185.755548246845 18306.665207182174,17180.321587810584 18316.824743537698,17178.231432348723 18318.85927224881,17178.605388382333 18349.555752106593,17192.050688211282 18353.86336056888,17192.891626786557 18373.166188373347,17185.30525442696 18376.963489848888,17183.73936309514 18392.857863111072,17183.759044856823 18399.16067868448,17183.621868931747 18411.1989137067,17172.425249820808 18413.880646826583,17164.713129075768 18408.488053475507,17140.518802544975 18408.626407253323,17138.871703651734 18425.401875626645,17139.231662009493 18427.934769208892,17138.691873523232 18432.322477226728,17122.137780259654 18434.12165888003,17120.199865401082 18452.239595804363,17123.58569594723 18454.040233813343,17122.60689927335 18439.99892736005,17103.549046839413 18440.820894435514,17100.984781306353 18451.312771128956,17096.169677357597 18456.030198044493,17095.445246932446 18479.04964522668,17096.032485974487 18486.781728142174,17094.584220677672 18491.910138595616,17090.512600389484 18494.376331093255,17088.86837791046 18518.159199857735,17084.385743883904 18522.415835875552,17083.711706189148 18557.380893866648,17089.9137256362 18560.375743431156,17088.817676273116 18582.67079936003,17071.513908734603 18587.72114915552,17068.75388365792 18600.65970318229,17047.96599219821 18602.96365767112,17043.226019626425 18617.884311608854,17034.3398351426 18621.769868231146,17030.8572748836 18624.83637048886,17005.241960764106 18624.75801856001,17002.971472281788 18609.536772835534,16977.418771182303 18606.620275199995,16970.293835954217 18609.17355775996,16947.548549043306 18608.841508693295,16946.178459060262 18590.824934115517,16935.311020972964 18589.76791125338,16933.999376998865 18585.246218524408,16915.991118418868 18581.11628543993,16913.15267932095 18561.424319431186,16916.813264464494 18560.48467882676,16916.578195219976 18554.220893582213,16908.356991210952 18552.146169457817,16906.81082590297 18540.76125553774,16902.329226048605 18540.350271999952,16901.73229395866 18541.970613191137,16892.55958831904 18542.02595470217,16888.213344070246 18535.991108551156,16877.70785548212 18535.534395448864,16875.853158750455 18545.555286755553,16865.209374648402 18546.39968170668,16862.731730765547 18554.381675235578,16806.692788446147 18554.575370524428,16805.65481503238 18569.73137151997,16803.89691033255 18570.174394880072,16803.481600286206 18569.22543360002,16785.366763536294 18570.29206840892,16784.378289543733 18586.875589120085,16785.837280291307 18588.564379022224,16783.913440786244 18584.924072675523,16765.50454795116 18587.526288782246,16763.22082277533 18603.0559906133,16764.341800299124 18604.633806222235,16763.165325841925 18606.811057777726,16746.65033477824 18608.125855573337,16741.999816414493 18625.94931740442,16708.315689452982 18629.648751786677,16704.870747229957 18638.926901760045,16701.367005828826 18641.921751324437,16700.818854753685 18670.75496988441,16710.488576207077 18674.983061333303,16710.155870105722 18679.974283093354,16706.495496698946 18681.266361742164,16704.3813821621 18685.435616426636,16686.35343324003 18687.451795057743,16684.944086709 18715.893253973336,16690.99235233938 18722.059172124485,16687.214616402518 18729.09249564435,16666.89389774576 18728.580149760004,16664.831597329932 18710.808242915547,16646.699467909697 18710.66988913773,16644.498946304666 18734.157991537708,16630.06200724421 18734.412562488928,16628.61346394173 18720.24513564445,16607.94441653363 18721.20021361776,16604.013474274834 18744.64724679105,16594.394040474668 18745.33930695115,16593.577220147534 18740.540032853372,16573.782565165428 18739.055715271155,16571.59287668264 18741.365495182225,16563.665238760295 18744.22315605334,16560.61151090759 18782.29549425782,16554.034553909267 18785.52510833775,16552.253390698635 18792.258713884512,16518.70299832622 18795.09889848891,16507.937861064158 18805.62164992001,16490.8992173397 18809.61614193779,16485.561243657372 18835.22149404441,16483.508603165392 18839.927561386605,16483.397867277556 18852.02579825779,16486.79933212971 18853.686626133276,16486.771573658974 18858.26802943996,16491.82359872799 18862.69010744884,16500.53994984494 18876.78034744889,16507.40509207244 18886.884251022246,16503.39125526161 18903.715060906718,16484.567309078004 18906.732629617793,16478.144908432034 18920.933552640025,16469.563515488 18922.788367075496,16467.29353437625 18950.332128426642,16468.816108908446 18957.69575338671,16468.56687372428 18981.16637951997,16458.690826764854 18985.903321600053,16456.381114152668 18991.971372657805,16445.223772557452 18998.939742719987,16435.984717165236 19009.470941013307,16431.404250998283 19012.720361528918,16428.311487974075 19020.706432853243,16408.42389530316 19024.582377528888,16405.13551499066 19048.423791786656,16400.71158228186 19050.498807182186,16400.43754835875 19055.196718933294,16394.60460249189 19057.545529173338,16392.99948975118 19154.816390542197,16355.259111743013 19502.837017315556,16207.216086501838 19515.54080682667,16212.44822272542 19516.457437013276,16212.173225195496 19518.27875527111,16205.434709510417 19518.434294044506,16204.855746157991 19531.018662400078,16196.896224258118 19545.62503480888,16189.511115395406 19539.065609386656,16179.122931634367 19539.280567466747,16178.880767906143 19555.885933511076,16181.072182599222 19556.74343566224,16181.355253554124 19567.27667285339,16174.419686124602 19567.756978915655,16174.193048136367 19571.514958791086,16176.361185586255 19571.85865870223,16176.50958975451 19999.127455573296,15961.817148164031 20006.022425315576,15931.851603310031 19965.058056248818,15862.931073381042 19856.577334897825,15737.090821890451 19809.72433777782,15620.99793859321 19750.66096440889,15432.551426590304 19660.85246890667,15318.79605896573 19554.052964408882,15137.747937752458 19427.835580017767,15035.577619988937 19391.426691128872,14994.871629464149 19361.140029724455,14941.457355684543 19304.482264462276,14879.093466957158 19256.67360682669,14835.915705624444 19203.534687857842,14796.838303310098 19167.492800568813,14775.565474979987 19099.43468401779,14718.283806836 19016.123573191115,14668.721094922686 18925.929143466637,14633.385489585635 18834.981486648903,14613.17704413447 18738.586768782232,14606.56076299079 18652.507708586636,14615.570572494995 18619.681163093308,14591.78395533748 18631.83008113783,14573.308484203124 18674.483531377744,14477.14263300848 18699.78829169774,14374.943102921708 18707.74640099553,14268.497549474065 18698.054937315523,14165.796654522826 18674.29740913771,14078.29065360775 18566.158348800032,14012.253762401117 18326.668833279982,13971.49039326288 18142.19722666673,13663.610047222464 18075.042924373294,13552.907204818039 18087.988468906726,13534.59380476916 18046.724964408902,13370.584305228258 17956.949965084437,13122.463523228245 17844.763401386677,13151.701901361579 17750.79963221331,13196.932621347485 17665.424865564448,13249.91117849038 17594.112085617846,13311.409243553004 17569.84949333337,13340.111602215387 17513.265710933367,13257.133896677755 17479.893032106687,13221.975362778467 17452.039649564424,13198.582836714399 17442.273620479973,13172.945596467296 17407.040301795583,13116.143788542482 17371.15599217778,13035.936747184314 17296.6765127111,12929.194101703528 17267.738436551066,12900.312077774317 17229.26123150217,12802.978074327577 17170.10028231109,12709.349369210307 17094.85068202659,12628.233207629877 17006.066587022273,12562.395123176218 16906.76527473773,12514.081917375617 16800.32549006224,12484.94495367253 16774.68518542219,12482.852761800808 16743.014112426667,12401.276655050286 16694.19561784889,12317.353857420734 16632.581583359977,12242.423686932598 16560.914617742295,12178.65725202876 16482.94192383997,12128.720261516923 16395.95613667555,12090.656878436916 16302.76132323558,12066.281750687747 16206.882737777778,12057.265484602307 16182.467228160007,12059.564383951423 16095.690573653323,12011.874531924317 15991.225024568848,11976.367843434971 15973.017958684359,11973.761706469697 15906.657952711103,11946.459294210363 15857.161378986668,11935.234352482948 15844.139521422214,11862.59622094559 15804.709568568855,11757.895963763993 15747.605867235572,11662.746890264156 15674.10243726219,11579.754028392606 15586.69343317335,11511.745838969015 15488.348655217793,11461.043378508359 15382.413643377833,11429.378034890338 15318.605463608867,11422.673614394676 15239.901679217815,11293.825420618756 15200.70386944001,11239.452473604237 15069.087775004446,11095.17054613016 15037.873123839963,11067.712367916247 15013.278191217803,11012.56163696741 14984.371572337812,10961.8356617791 14957.71647914662,10919.110095878132 14888.837269333308,10828.763297457306 14829.028824462206,10765.799546247057 14813.38290545775,10712.743186611799 14725.128632604494,10543.691030101443 14662.711563662277,10458.576818870904 14623.171510328888,10408.981132747314 14460.699610737734,10260.924192368286 14404.082914702245,10221.47255383723 14389.19430058659,10188.251819540921 14342.201202062191,10113.19806180487 14254.903463537805,10017.073409505247 14139.95652351994,9936.849587622622 14044.20434972446,9893.916952616477 13974.95639068447,9869.508908480406 13927.204530915595,9856.594218823186 13857.147420728812,9822.629078422498 13781.428291413351,9795.85351093451 13678.130739484448,9776.036067749781 13605.443742435542,9752.125661853235 13543.480765155633,9737.899841724371 13510.448290986591,9733.688027974276 13501.886959217838,9719.335531346325 13429.961053582141,9637.08305753523 13416.072081919992,9589.52181971952 13361.447097742232,9484.460699344345 13287.499188053305,9392.120666182134 13216.270585457794,9328.539257397468 13141.741881173337,9280.156449065369 13060.945313848904,9243.327941058145 12956.213834239985,9214.125228115416 12904.010478079901,9203.927023294673 12841.107568924432,9145.907007655711 12768.445621191058,9089.66336807172 12681.043025066727,9042.101859386137 12580.309823999996,8956.950580395875 12452.78463232005,8890.852878186328 12427.44433692447,8871.131925554306 12402.192296675523,8813.020478913444 12388.884993422194,8792.675709631294 12448.817228515632,8783.528319273319 12542.436715235584,8752.349728068395 12635.155300408951,8702.743453717092 12717.920860444428,8637.697381780774 12791.685269333306,8554.42793914181 12843.9355201422,8524.664119227498 12911.23138019559,8469.765208164346 12985.349100942258,8464.056407164317 13040.87556920899,8452.633215318841 13135.612080640043,8421.129743343743 13223.895771875512,8374.340600066702 13357.081526328926,8271.946904158744 13436.443000888918,8182.367209233693 13487.290490026702,8099.722042609472 13523.353057564469,8013.142272863188 13545.720348728937,7921.990383072582 13553.866036622203,7826.888227704039 13535.791207822273,7673.194007059385 13496.413975039963,7559.285752097785 13435.421804373385,7455.441112752189 13424.494477368891,7442.133380504441 13446.670694684493,7361.872617993446 13458.466592142242,7247.257252758136 13450.308088319958,7140.871320798004 13424.032812657766,7038.279493931041 13380.43826545775,6941.824703657825 13320.842739768908,6854.444589642226 13247.052990293363,6778.803833154088 13161.310639502248,6717.2108506938675 13110.11857664003,6692.624729731702 13054.560942364507,6631.711731429794 12981.880644551013,6573.282624806103 12942.44719644438,6551.027202042518 12904.008147911169,6487.006290615012 12838.262723982218,6411.109045844292 12760.960827448987,6347.162153888377 12669.96773233777,6295.331806538277 12616.625506133307,6230.401104727993 12550.534925937769,6171.009835934674 12481.664162986563,6121.1291185361915 12406.523206826649,6081.441219504632 12332.419175822171,6052.237346285838 12317.611243804451,6049.96772711596 12264.663107413333,6032.212747110287 12232.571147662238,6028.565528257808 12162.005769386655,6005.2065546549275 12048.071870293352,5990.501989812881 11933.428143502213,5997.748056712095 11834.181590186665,6020.47736040171 11798.2701923555,6034.96929142467 11753.389391928911,5960.104908166628 11668.820281173335,5862.264198897581 11649.664254008909,5847.8663534846855 11687.109485511086,5742.338210694725 11697.978267022176,5696.881626604067 11708.941420373274,5591.00314796943 11701.423130453331,5484.801846953866 11688.902841742267,5434.415476060007 11705.895889635547,5343.511368755018 11709.612509013386,5279.751655211789 11697.96137329773,5153.832866586337 11669.630306133302,5053.229151275475 11624.622802773374,4958.960465839249 11564.25540864002,4873.805721874582 11541.117414115462,4850.799590798444 11549.202808888862,4762.4666502721375 11542.342209137743,4664.036333761818 11520.9372777245,4572.835655323754 11517.181919288822,4535.101638493594 11477.399528391194,4411.464581145672 11399.19789539557,4277.824872708297 11323.557118008845,4194.560319036478 11239.868519822252,4130.382783425506 11146.40602823114,4081.7184064388275 11040.53888255998,4048.8308525684406 10913.546134471078,4034.5337274438934 10833.23220337776,4031.501059945964 10725.067802453297,4043.3554448456853 10611.043026773375,4077.6080585403834 10595.244481706643,4086.0160825163475 10515.634552888921,4079.3317073124344 10411.095894755563,4088.8224812528933 10309.750441813376,4116.303910389368 10209.951638471102,4163.6680508277495 10131.177949013305,4218.1262576147565 10107.181869795546,4241.059686963155 10051.551709013293,4198.474611103185 9951.591832746752,4147.924936348747 9844.09677283559,4116.704456799838 9732.726642062189,4105.880178236752 9626.353849742212,4113.82976223086 9528.8939534222,4138.324124370876 9436.792571733356,4178.664166226343 9352.576481564436,4233.7397581720725 9334.884965546662,4250.061312432459 9304.572672284441,4253.488120794238 9196.617112746695,4286.89099506085 9127.65459939558,4322.81477751449 9054.249619057751,4301.732520471909 9035.323113528895,4299.7209981685155 9018.035299271112,4233.794491500594 8995.303627946647,4181.700321545533 8973.979378631106,4137.563205556304 8939.903571342234,4083.911958889861 8867.594352924498,3998.002867325209 8780.827601635596,3926.9008048706455 8682.550689848955,3873.0304269989138 8576.105079751112,3838.2307643375825 8547.510120960069,3830.851578654372 8447.6189846755,3818.916456551291 8418.761590613285,3819.612676255463 8407.196671146667,3772.5064051229856 8369.226569102146,3676.260394701967 8351.129312426667,3644.0689887111657 8336.516532053356,3589.319794646057 8293.32859932445,3480.506934604724 8254.325067377766,3400.792956398276 8229.260314453277,3283.8821912442218 8208.520063715521,3213.9762176228687 8186.7961904355325,3104.7811046694405 8161.739593102131,3022.062530384108 8140.946039751172,2970.3008137729485 8107.551806862233,2818.9555422527483 8094.396838400047,2776.665571587102 8084.839068160043,2733.7675742951687 8078.222553599975,2624.86963431153 8063.887063324451,2551.0839732800378 8028.279461262282,2442.6531046425807 7985.174249528907,2358.5129043259076 7979.09076110227,2320.9322898103273 7937.241801671218,2165.1005731443875 7908.564995697816,2093.7392192647094 7902.380436195526,2044.7302515479387 7883.245963093243,1961.3010497341747 7825.909244871116,1798.0181066402001 7737.154859520029,1595.0887932818732 7666.2813164088875,1462.9282420551172 7639.343690240057,1425.1110687455512 7631.446456604404,1393.7753384711687 7617.937593742157,1358.9405923782033 7554.110190080013,1221.7567648505792 7471.4122049422,1066.7336923249532 7413.965386240045,979.7598051129025 7389.113552497816,932.9859601390781 7307.411132017733,822.1948420792469 7216.262789404485,681.0833200591733 7159.69852216891,585.9289904910256 7086.483450595522,503.0166007296648 7068.497168213362,474.5401117595611 7049.1209400888765,436.31871204130584 7025.9864408178255,344.65890176192624 7002.261535004363,275.22341260814574 6953.147691520047,181.4201852864353 6907.800274773384,115.26616735529387 6863.663963306695,5 6262.347570346668,162.17786530050216 5884.85875399108,530.8876879226882 5699.284977493342,973.5082111886004 5705.511188764474,1016.133300933463 5705.395262862206,1020.999085051415 5645.753716337844,1126.6023485528422 5642.524684800068,1130.8048982734326 5642.877705386723,1140.001475209312 5642.498470399994,1144.303900133178 5573.576443733298,1286.140313371725 5571.420163697796,1310.3018780878047 5522.876920319977,1344.261621152691 5509.9299194311025,1351.9023512216518 5440.348163697752,1385.009938689298 5424.977787164506,1390.950940300012 5374.00534271996,1424.9087704420672 5365.104097564472,1436.7898502002936 5362.677809208981,1455.466586054652 5361.868075520033,1476.6849380605854 5365.913831253303,1493.661477062211 5369.149853297742,1509.78503939847 5367.530385920079,1552.2198116646032 5367.530385920079,1572.5882010133937 5362.677809208981,1588.7125167508493 5357.822319786646,1605.682561365771 5331.121497031068,1643.8670781564433 5318.987142542261,1652.3528476025094 5306.0401416532695,1659.989318056556 5291.476586097735,1665.9273647392984 5234.841831253376,1665.9273647392984 5216.232519964455,1663.382931745844 5173.351586986682,1643.0178831298253 5161.214319786639,1634.5350253757206 5150.696519964375,1623.5043667443679 5142.605008497834,1610.775000709924 5121.5694088533055,1570.8895909412531 5109.4321416533785,1561.556307635794 5094.0617651200155,1563.2518912687665 5075.452453831094,1564.9505247952766 5043.08932067547,1595.5005970404018 5030.952053475543,1603.1378515650285 4974.314385919948,1598.894605961861 4957.324542008922,1603.1378515650285 4950.852497920045,1617.5628104301286 4963.7965860978,1665.9273647392984 4969.461809208849,1680.3537429113057 4970.271542897797,1720.228217413649 4967.842341831187,1738.8923349147663 4956.514808319975,1769.432819298061 4947.616475875606,1782.1585431917338 4937.0986760533415,1791.4911661290098 4925.771142542129,1801.669531926047 4911.207586986595,1807.6060624069069 4892.59827569779,1809.3039473181125 4873.988964408869,1805.9112260703696 4861.8516972088255,1797.4278053917806 4849.717342720018,1788.9442551416578 4841.625831253361,1776.2217406946002 4835.960608142312,1761.7978557458846 4831.917765119928,1744.8325907825492 4832.724586097756,1723.6214623743435 4850.524163697846,1634.5350253757206 4846.4813206754625,1617.5628104301286 4836.770341831143,1607.3810646384372 4822.206786275492,1600.5931300648372 4747.7724538311595,1589.55874012399 4730.779697208898,1592.9558404237614 4701.652586097829,1604.8333077750285 4688.708497920074,1612.470433527953 4488.864475875627,1739.741383093351 4475.917474986636,1747.3766500675702 4384.490385919926,1865.2854379495257 4375.592053475557,1878.0089670288144 4339.183164586662,1903.4520989639568 4327.045897386735,1911.93390215392 4280.119208675576,1926.3508391014184 4263.939098453382,1930.5915824011317 4205.684876231127,1924.6563646043069 4188.692119608866,1919.5668038882432 4161.994209564407,1904.3008957445854 4149.85694236448,1895.818976219336 4115.064608142246,1827.9650706973043 4104.546808319981,1816.9382578011137 4092.4124538311735,1808.4550055111176 4076.2294308977434,1803.364381203719 4056.810385919991,1805.0622790788766 4040.6302756977966,1808.4550055111176 3959.7209864533506,1847.474450990907 3949.2031866310863,1857.6517914721626 3940.301941475598,1870.3754951913725 3933.829897386604,1884.7935088700615 3921.6955428977963,1936.529789977416 3915.2205860977992,1950.9460900945705 3878.8116972089047,1976.3858891637647 3868.2938973866403,1986.5608730283566 3859.395564942155,2063.7235190046486 3852.9206081422744,2078.1365308506647 3844.022275697789,2090.0066883359686 3835.1210305421846,2101.8765935010742 3811.659142542165,2120.527919973887 3798.7121416534064,2128.1579673405504 3719.422319786623,2150.2021149222855 3702.4324758755974,2154.438105171954 3488.8317192533286,2184.9558184969355 3470.2253206755267,2186.6525544914766 3403.069853297784,2201.0623962748796 3386.080009386642,2204.45271384425 3339.9601416533114,2219.7104144850164 3325.396586097777,2225.645547668042 3246.9164979200577,2271.4156696944847 3232.352942364523,2277.3472037544707 3216.979653120041,2282.433505227731 3178.144475875655,2279.8918858474353 3161.1517192532774,2283.2817261768505 3137.689831253374,2301.078814288543 3118.022623288911,2312.021927530528 3116.8729762133444,2324.8683030632674 3109.6278985955287,2332.9287912384025 3108.0730934044113,2341.0712311209063 3114.936023324495,2376.7688629460754 3116.342862791149,2384.3112236397574 3128.5978035199223,2401.2131383696687 3130.9570995200193,2404.761176321539 3171.047946524457,2432.3497546803555 3174.7817508977605,2439.9084507409134 3173.9635703467065,2458.3761931560584 3173.897451804485,2469.186304898467 3158.7324214044493,2477.6491648684605 3136.1306569954613,2487.9431445795926 3108.766027377802,2494.458297618956 3104.998144284473,2500.313666414935 3105.023776142276,2517.1785448374576 3113.4301516800188,2529.755201390013 3112.9146018133033,2538.764888423728 3101.729791146703,2543.2285063780146 3101.154530702159,2582.865199409891 3090.455560248927,2597.1374100212124 3100.7007303111022,2610.2196981596644 3106.9048049777048,2631.1362132945796 3131.707122631138,2649.2900242882897 3129.2155895465985,2663.8764394222526 3117.6090183111373,2676.9047366541927 3086.2999953066465,2683.920787218027 3070.48076999106,2696.4589668147964 3060.1604519821703,2723.3771684227395 3047.158109582262,2759.1316669250955 3033.4791443910217,2771.8266998931067 3027.312643697718,2777.4792100930354 3023.771078257705,2789.2568697966053 3028.298013866646,2804.773070545867 3029.610772764543,2820.1550278674695 2995.112622364424,2849.6326168670785 2991.209589475533,2853.195208718418 3002.661204479984,2896.3285906531964 3000.9147428977303,2904.649423605879 2978.3793883022154,2935.930469159677 2942.094289635541,2967.8345173305133 2933.7193713777233,2970.9426037254743 2922.844181902241,2971.675815859926 2902.5941404444166,2967.3694761726074 2896.2193809066666,2968.017364339321 2891.1961193244206,2982.21190259367 2886.6732615111396,2990.0314090026077 2875.225433031097,2994.19526745833 2867.7817085155984,3006.398695177166 2865.0070599111496,3009.310938455572 2857.110991359921,3009.28320867999 2853.540590079967,3011.835561253247 2854.808201955515,3026.6935846784036 2856.5727223466383,3035.19441765832 2861.161698702257,3039.758634208527 2862.331152213388,3043.0406181245344 2855.9159059911035,3045.056540915277 2847.6257476266474,3051.0725775441388 2838.7393572977744,3048.9320531705744 2836.102771200007,3050.1667025191127 2832.9890830222284,3091.7498451811844 2833.6368699733866,3096.399526414927 2823.148488533334,3101.412035819958 2808.2849237333285,3110.0491574205807 2795.1762673777994,3102.671859071532 2793.2474700800376,3101.4138638605946 2767.2570575644495,3104.1345911051612 2760.7995770310517,3103.8015845387126 2745.4673570133746,3091.905840607069 2727.149608106585,3086.512091115932 2706.523535644519,3085.776894389768 2659.5187862755265,3104.796947593917 2623.9196310755797,3097.1801060928265 2607.736608142266,3092.948144884256 2568.0916972089326,3089.563162608538 2549.4823859200114,3090.4101717642625 2520.355274808826,3102.259027333872 2507.4111866310704,3110.722779757052 2443.494654008886,3170.8063199981116 2432.1671204976737,3180.95975732425 2404.656564053381,3194.500438555435 2390.0930084978463,3200.4222911625984 2371.483697208925,3202.1159784328192 2350.4480975643964,3201.269135426788 2331.8387862755917,3198.728598859627 2313.2294749866705,3196.1910971956677 2282.4858092089416,3185.1910643798183 2266.3027862755116,3180.1128828798537 2228.2773427199572,3179.2690534944995 2209.6680314311525,3180.95975732425 2115.0049203200033,3230.0367235913873 2098.0121636978583,3229.1899220549967 2064.8422095644055,3219.884160464804 2051.085474986583,3213.1156846196973 1971.7956531200325,3130.1846674141125 1959.658385919989,3120.877288517484 1943.4782756976783,3116.6455035571707 1924.8689644088736,3114.107636143279 1826.9698312532855,3113.260662266519 1810.786808319972,3108.1818392305286 1798.6524538311642,3099.7180490092724 1788.1346540088998,3089.563162608538 1770.3321636978071,3065.864675631514 1759.8143638755428,3054.862123845145 1731.4969864534214,3041.321166840731 1643.30591943115,3051.4769148373744 1636.8338753421558,3065.8908791838912 1630.361831253278,3080.255119189096 1627.935542897787,3098.874100460438 1631.1715649422258,3115.7985334576224 1636.8338753421558,3130.1846674141125 1691.0423418311402,3200.4222911625984 1699.1338532976806,3213.1156846196973 1708.8419194311136,3244.4199734763242 1708.0350984532852,3265.573840314406 1687.8063197867014,3329.8713001520955 1680.5245420088759,3344.2520351192798 1646.5419414754724,3392.4714527328615 1635.217320675496,3402.6209486184525 1622.2703197866213,3431.3783985322225 1617.4148303644033,3449.985927754722 1621.46058609779,3466.9029995481833 1631.1715649422258,3477.8976104148896 1665.9609864533413,3505.8079334357753 1678.0982536533847,3514.2657078090706 1686.1897651200416,3526.9490909829037 1694.278363875579,3539.635238055198 1695.0880975644104,3579.3784784674062 1694.278363875579,3599.673716047604 1682.144009386655,3651.253329787927 1681.3342756978236,3672.389132720942 1687.8063197867014,3687.607403782895 1720.1694529422093,3717.196657699824 1721.7889203201048,3731.5676843171823 1680.5245420088759,3794.9700036627473 1675.669052586658,3811.8738792101503 1673.2427642311668,3830.469091383391 1682.144009386655,3882.028036333213 1685.3800314310938,3898.929361536575 1684.570297742146,3920.0591255333857 1682.144009386655,3938.65085328446 1605.2804758755956,4156.6415295192855 1598.8084317867178,4171.001635135675 1576.9630984532414,4191.276088435727 1566.4423859199742,4201.411529206671 1513.8533868088853,4230.97450207948 1500.9063859200105,4238.5763400711 1466.9266980977263,4267.295186904317 1456.4088982755784,4276.584039216046 1406.2432748088613,4354.28229432489 1399.7712307199836,4368.637520674616 1394.918654008885,4401.569299268944 1395.7254749867134,4420.990668034763 1423.2360314311227,4475.0290714168805 1423.2360314311227,4496.134849630587 1420.8068303643959,4514.708154705644 1389.2534308978356,4588.998513549857 1382.7813868088415,4603.347971482377 1364.1720755200367,4669.18626420683 1359.3165860978188,4685.223105125071 1354.4640093867201,4722.357130090415 1353.6542756977724,4743.453994173964 1358.5097651199903,4778.898300047149 1362.5526081422577,4795.773619274783 1381.9716531200102,4837.964353810938 1390.063164586667,4850.621895073855 1437.7995869866572,4907.995081672911 1445.891098453314,4920.651116886642 1498.480097564403,4972.110726259067 1508.9978973866673,4982.232652531995 1524.3711866310332,5010.070849985874 1530.0334970310796,5024.410030713712 1529.2266760533676,5061.522658630856 1526.7974749866407,5080.922203303489 1512.2339194311062,5150.92409330979 1507.3813427200075,5166.9478227938525 1504.1453206755687,5206.580250625557 1503.335586986621,5227.662832206348 1507.3813427200075,5243.68144991406 1510.6173647644464,5260.546519320225 1561.5898092088755,5374.364095603174 1567.2521196088055,5388.694458596408 1574.533897386631,5422.412846743246 1578.5796531200176,5439.272841243423 1579.389386808849,5478.887093303958 1576.9630984532414,5497.432515234745 1572.1076090310235,5513.443862243672 1555.1177651199978,5537.886354832153 1543.790231608902,5547.998627255787 1467.736431786674,5596.036405920051 1455.5991645866306,5603.62064549292 1433.753831253387,5623.842790935014 1423.2360314311227,5633.956640376069 1353.6542756977724,5818.466444454447 1333.4254970310722,5869.848400981922 984.7098973867251,6844.461337553745 966.9103197866352,6895.756375253783 828.5565420088824,7015.99408003554 775.1578092088457,7062.229821132205 578.5498092089547,7808.2871872641845 566.4125420089113,7859.505361330463 602.0116972088581,7926.66750201711 629.5222536533838,7979.553143223573 572.884586097789,8000.536928202608 521.1053206755314,8017.325867728796 339.86769720888697,8576.93653981603 298.9452711822232,8645.299474097672 206.8441807643976,8660.615981469397 5,8832.182815708104" stroke="red" stroke-width="3.5863403734914954" fill="none" stroke-linejoin="round" vector-effect="non-scaling-stroke"></polygon><polygon points="19538.965412124526,16187.629070126626 19538.965412124526,16187.629070126626" stroke="red" stroke-width="3.433171101564225" fill="none" stroke-linejoin="round" vector-effect="non-scaling-stroke"></polygon></svg>