<svg viewBox="0 0 129.5621154666435 144.31512407593186" width="129.5621154666435" height="144.31512407593186" xmlns="http://www.w3.org/2000/svg">
  <title>Karviná, okres Karviná, Moravskoslezský kraj, Moravskoslezsko, Česko</title>
  <desc>Geojson of Karviná, okres Karviná, Moravskoslezský kraj, Moravskoslezsko, Česko</desc>
  <metadata>
    <collboard>
      <support-module name="@collboard/map-svg-geojson-import" version="0.11.1"></support-module>
    </collboard>
  </metadata>
  <polygon points="8.052549999999883,64.89188191825053 14.453305484442808,74.8355692442052 14.633602302208146,75.30307104046335 9.870008915524068,92.45550790765958 9.828065875546145,92.93143614900293 12.870538266644417,95.98948933371105 13.367373964435956,96.19668635914388 29.654599137756577,93.86996306351614 31.643908008852577,92.48293286321098 32.13018512886583,94.78894991896925 32.44672400886293,95.49485404074187 43.172709857760765,95.16543325276109 43.41846985775146,95.14421663508222 53.4108165955181,85.62084728549928 53.49375604443003,85.41756073496765 58.82525527998905,84.1179085664113 59.266676648876,83.6992455699143 61.658449377755005,76.94138430539863 61.673813928856816,76.89724351607549 62.79513488888142,77.998381857156 63.00179174220057,79.18495378917544 75.3519053066625,76.48642765524676 75.60946178663971,76.49658801884618 74.74496912887071,80.45955009078136 75.17838054220874,81.09768370936911 83.37263789331291,86.74867319031148 84.81712415107859,88.4448831003898 83.72653229331581,89.0578669465391 82.33746036442562,89.89375318076748 87.49623583109451,95.8643356298195 87.72138839995705,96.10832301798621 89.06502203553782,102.46673299768702 89.18837535108423,102.49979488520296 88.50359696886835,115.67229256543908 88.59993488886494,116.52728774146055 86.67084631996795,119.2396287856169 86.47365577775736,120.24470849084139 88.9077356355333,130.35516521801003 88.9674462133039,130.51418710867404 87.23576663996892,133.62404346277583 87.11088415107906,133.85805087802112 88.88137559997949,135.91772399846343 88.96846566218983,136.26257407593187 96.6783391555141,135.11152413854836 97.31673261331844,135.05423601922632 99.62563871109842,133.5682198590581 98.6450016977683,131.04121166867083 110.11671440886084,126.54977993056639 110.16914320886235,126.5389521372341 112.34399177775003,131.95957336917456 112.73101826664742,132.62823202610127 113.91132162663371,128.99049024767703 113.8516110488631,128.42058737891023 111.17970832889068,124.22536441381783 111.07048166220875,124.01534102069093 115.4643063733015,123.27923761995737 115.88832429331478,123.17208107264707 112.18794327998285,116.57726263599 112.1115574310893,116.41019063123497 112.01886039999181,111.53046994870931 111.91298335110287,111.34645937519201 106.54864329775546,108.21017403380358 106.47276717329032,108.04984609787755 104.51105623998546,102.36359783427145 104.48877399997536,102.1974979056755 104.6987804710875,94.35660029882968 104.61700610665821,93.88158733375133 95.68874555553293,83.4908723347977 95.59699515553757,83.33769605297823 94.7116037955343,76.32928045746633 94.70359383998539,76.3212650351121 109.72662957330567,62.282535408281205 109.7797137333323,62.18756765800174 105.62203707552499,55.00917617468042 105.47829478220183,54.80882492371131 111.24662786664658,51.41155082721491 111.4042055377572,50.588402858447466 119.49731899554126,49.596384632262584 120.16243657776022,49.37782872241917 121.34048258662324,44.848837034958365 121.50956546664338,44.312056125003096 117.1443581421986,39.18074250997563 116.6971841688569,39.00270130568936 102.98960159108492,38.44778742966412 102.94816827553541,38.4500468624243 102.6426248799612,35.730412907323284 102.5007030310876,35.54061077013432 95.34424464885478,29.13010780909792 95.31839433775849,29.102538014536208 91.09547295107723,32.888960685151346 91.05170946664975,32.91302609064553 75.07366857777333,24.22721096160933 74.5621236888469,24.028554689917314 72.0065837777579,29.730086363131363 71.45600855997282,30.180348421133772 65.95389727107931,25.18240078428755 65.77687725329406,25.10770832264791 57.94481552884781,25.741856500644303 57.64109257775226,25.775077887701286 55.999634231069194,20.949742010859723 55.662706373324454,20.12455226784334 52.28541783997889,19.58673700593465 50.97484347553791,20.13268895730255 48.87798274664192,8.052549999999997 48.77880493330986,8.053454276763318 42.638591457747225,10.472114875293869 42.51982566220204,10.672515954712821 42.21755906663702,25.800728400579487 42.58652674663563,26.50605628145388 35.620341217763325,30.992392581574336 35.60417567106879,31.096340592841102 35.317564897740795,34.598255978729526 35.35528450666561,34.64943571814331 37.57396937776457,32.61599271369744 37.75499437330973,32.60605014593568 39.26195828442678,34.91776138089301 39.44451245331538,35.01763468012325 37.09053215108679,37.64805532751018 37.11813008884883,37.73628740033712 43.34288500442153,41.96888688911679 43.35191440885637,41.973857320342745 41.40913609773952,45.87505436127651 41.44044774218446,46.02426938487736 43.86345929775371,46.109212198694536 44.00975021330623,45.90035655903159 45.536739013310125,51.16160339455348 45.685068826634506,51.23998739405181 42.16301855107986,55.598367221194735 42.46557641775098,56.11165958501044 39.8027759199681,57.89148746821559 38.79847312888114,58.780250351431846 30.674776204431964,53.94303704874585 29.55593104888203,54.03463096296002 19.889079777763527,61.09028857708438 19.68540845331836,61.2082948470412 8.052549999999883,64.89188191825053" stroke="#009edd" stroke-width="6.209682002174186px" fill="none" stroke-linejoin="round" vector-effect="non-scaling-stroke"></polygon>
</svg>