<svg viewBox="0 0 90.6301633955875 88.55128340893067" width="90.6301633955875" height="88.55128340893067" xmlns="http://www.w3.org/2000/svg">
  <title>Havířov, okres Karviná, Moravskoslezský kraj, Moravskoslezsko, Česko</title>
  <desc>Geojson of Havířov, okres Karviná, Moravskoslezský kraj, Moravskoslezsko, Česko</desc>
  <metadata>
    <collboard>
      <support-module name="@collboard/map-svg-geojson-import" version="0.11.0"></support-module>
    </collboard>
  </metadata>
  <polygon points="8.052549999999883,32.37978003305727 11.401876506693498,38.27115386274056 12.1024563466558,38.76363338015619 10.751176844445126,46.8106341127492 10.662339155569043,47.1591283570375 19.004635048891487,45.690362314089384 19.282507688890746,45.65675267739391 23.776311208908282,49.87245783757646 24.099840595568367,50.251607243589774 18.87967974221783,54.015328747925764 18.36260070221715,54.15177640302102 19.083059795556892,60.91576998914354 19.01708688887402,61.10237515475421 12.340206391126685,59.56531590982161 12.080611013348516,59.591249633005305 14.894872488897363,66.04430495529198 14.98006928890345,66.56393025878754 12.18321126222827,68.79389987141587 12.246999635571683,69.04586493279896 15.7642439377737,73.6208298246853 15.9132291111232,73.75271949374985 10.537383848895388,77.66981029549027 10.531412791118328,77.86357219117747 16.505456097780097,75.83416686833482 16.60645435556171,75.77216985199595 17.14275728891471,80.44575866586058 17.169845502248336,80.47213333158982 37.7388288266734,77.22367063730019 38.174133502244786,77.18410628263484 61.53691650668725,78.10354743210303 61.95838580447116,78.03896049340949 63.082837928879144,71.09919595614303 63.466077893338934,70.65987934018597 71.7160408444538,67.3012508064345 72.33936102223333,67.07610979208368 82.55897204444727,56.46445594391082 82.57761339558738,56.252125168080624 66.07324560889492,53.21625737503166 65.77593062225014,53.09886529556354 59.44063832000347,44.67698884598906 59.34517421332521,44.58957956944471 58.09977176000348,33.60557564904559 57.76277108444583,33.50348346953217 62.57151149333322,12.52541550494027 62.97062573332323,11.3709224329574 54.45334872001649,12.572249263997605 53.683810444468236,12.662643948038408 40.706881448895274,8.32838335569943 40.293859013333986,8.138099119423373 34.541036115558654,10.66117357090809 34.251585448895185,10.922661066964451 33.43296799113841,14.574326693334683 33.2389086133403,14.684692166374248 13.76080841778412,17.329108595069215 13.408588826663163,17.366459467658956 11.91167376889598,19.903776459199094 11.926237324463273,19.949926868582793 17.229847351125045,28.50163547728846 17.298951422220398,28.890410000174256 8.052549999999883,32.37978003305727" stroke="#009edd" stroke-width="5.730849535321751px" fill="none" stroke-linejoin="round" vector-effect="non-scaling-stroke"></polygon>
</svg>