<svg width="199.3011729066493" height="192.255148886994" xmlns="http://www.w3.org/2000/svg"><polygon points="5,132.67322989931563 6.056440319982357,134.98991587630007 8.974976853351109,140.6909912552801 9.527518151095137,141.681165198097 10.159576462116092,143.18956084101228 14.665249280049466,148.43256112345261 16.39015680004377,150.4300774235162 16.490645333309658,150.57074689451838 18.29827384883538,153.25570127082756 19.179660231107846,154.53849607118173 20.013860693317838,155.76819322124356 21.000687217805535,157.16849671822274 22.124119893298484,158.7012878197129 23.45988920889795,160.64562097686576 25.47577656887006,160.57846576877637 26.27269432891626,160.67420730908634 26.933879751130007,160.7767550732824 27.18058638216462,160.72366619255627 28.303727786638774,160.43099648930365 29.57600000000093,160.1505777068669 29.147540195612237,161.84442870353814 29.60134058666881,162.12257656239672 30.106695964350365,162.1289290378336 30.39651072002016,162.03954061568948 30.909439146635123,161.86439365142724 32.41705841768999,161.05717304901918 32.766583751072176,161.6243604067131 34.01497173332609,164.18621384882135 34.40440120885614,164.18439887295244 37.67013290664181,163.95480430917814 38.633657742175274,163.79236374032917 39.20192767994013,163.66123146080645 39.961271466570906,163.59679965430405 40.93790350225754,163.6140419705771 42.26202197337989,163.05593472422333 43.43467946664896,162.49782604683423 45.44328504893929,161.60484918614384 47.45625969779212,160.69916362786898 48.81212671997491,160.14740144030657 50.394311395590194,159.63057687255787 51.730663253343664,159.92869268608047 51.677069368888624,160.536720629083 51.892318719998,161.1311343642301 52.46262755559292,160.9019903303706 52.65486648888327,160.78855260054115 53.43634687992744,160.49860549444566 53.277021582238376,159.75672029552516 53.035266559920274,159.01846260554157 52.82962915557437,158.72942065203097 53.363237831159495,157.6948560399469 53.590138026629575,157.6803357998142 53.78266823105514,158.06194553751266 53.77713407995179,158.45943606301444 53.71276316442527,158.9957748678862 54.28103310219012,160.48136293148855 54.29326648893766,160.59752333001234 54.59560590214096,160.80443388636922 54.56443989335094,162.34718183329096 54.52337066666223,162.82180150214117 54.584246328799054,163.35223086335463 54.81376796448603,163.9479981425102 54.96814165334217,164.23158823949052 55.23261582222767,165.25477823760593 55.28533589327708,165.81650977005484 55.03105621330906,166.53523362305714 54.86270151112694,167.32564562518382 54.691434097709134,167.76304804824758 54.3174419910647,168.15008493646747 56.15507143107243,168.53122258285293 57.54909496882465,168.94548214867245 58.46689023997169,169.14240262965905 60.77259235549718,169.93961114337435 63.71879964438267,170.88019546412397 64.08434488880448,171.1115976407309 66.14537927112542,171.77222681470448 67.92417194670998,172.41152882453753 70.4060930844862,173.11798031657236 73.26404522662051,174.03767962608254 76.81930040882435,174.72098601970356 78.53779996442609,174.89430775184883 79.73871075559873,174.96009737846907 80.12639260443393,174.95374527742388 80.56213418662082,174.91971616185037 81.030206862255,178.79854737373535 81.54954325326253,187.255148886994 84.71158243552782,187.10134593420662 87.09184995549731,187.067772413895 87.76759893330745,186.98066271527205 89.11443655111361,186.9602463747142 90.75545799103566,187.0804759086459 92.72707214218099,187.0650502363569 94.24692479998339,186.95933898165822 94.33576248888858,186.37633822130738 94.44673678220715,184.2634577897261 95.85211989330128,183.9712734403438 96.18213006225415,183.89505137159722 97.28196977777407,183.49942210997688 102.81262563553173,181.9944817541982 104.44986055104528,181.80347109452123 106.66992895992007,181.42689376854105 106.9014894933207,180.78262743511004 107.48548807110637,180.4881698631798 108.6712527644122,180.20505465724273 112.02349198213778,179.24318614258664 112.32845283555798,177.7658930143225 112.75924280891195,175.7368671906297 113.52965489774942,175.6052883871016 114.70522510225419,175.69376379821915 116.47702727105934,175.98505182075314 117.18423352879472,176.1297882476938 119.94286222220398,176.58396054891637 121.78107420448214,176.7627254104591 123.25694492436014,176.55900605145143 124.89971399109345,175.87071451247903 126.54335687111598,175.99820968165295 127.4084320710972,175.76953501917887 127.8590284800157,175.43242094153538 127.75213198224083,174.76817310188198 127.5016388266813,173.980964191549 128.3070034488337,173.58214083861094 128.57322524441406,173.45010700792773 128.6271104000043,173.21643869188847 129.1860596621409,173.04266189801274 130.13443840004038,173.47279323876137 130.30832725332584,173.62433720065746 131.29078471113462,174.90428962762235 131.70118570665363,175.52815594803542 131.79002339555882,175.99095017230138 132.21120142226573,176.17107667791424 132.6125730132917,176.552653997147 132.01546723558567,178.602089342603 132.17916159995366,179.3021687681321 132.56276565336157,180.28626883245306 132.9664674133528,181.3905971244094 133.80940600892063,182.22768694040133 134.44845482660457,182.4518177594291 135.2867330844747,182.45590111229103 135.93801528890617,181.7894061700208 136.29482239997014,181.23905856971396 136.6801740799565,180.8375262603513 137.4255368532613,180.34661230625352 138.74237354670186,179.71776896924712 139.2885068799369,179.16424014180666 139.73298659548163,178.86569696030347 139.74813269334845,178.3384814056917 139.9357112889411,175.90020628430648 140.57184739550576,176.01227498048684 142.1304391110316,176.37842614838155 143.23057009768672,176.51454166712938 144.9723713422427,176.56263579666847 145.00790641771164,176.02860887470888 147.12428231106605,176.0639989746851 152.38026951113716,176.47279958374565 153.97468757326715,176.41064016218297 155.80707413330674,178.3039991047117 158.15675818664022,177.8707013031817 160.264687217772,177.63930631242692 161.4379272533115,177.59711072879145 162.89399153774139,177.70146538317204 165.63019235548563,177.75409640726866 165.79417799110524,177.572156347509 166.68867157329805,177.62025024340255 167.57005795557052,177.4528289938462 169.55448803550098,176.95464792853454 173.43742321780883,176.05991550185718 174.7140644978499,175.90202116244473 175.768174648867,175.19149521755753 175.48069006216247,174.91563266754383 174.75571626669262,173.93513810972217 173.66257578670047,169.66283447184833 172.9926522311289,167.98628629051382 172.4532181333052,167.08108102419646 172.30466986668762,166.4063716927194 171.7981494043488,166.08376279310323 171.28842495998833,165.6209475028445 171.53454904886894,164.96529082366033 170.73267967998981,162.15978391614044 173.72461653326172,162.16976637596963 175.01319992891513,162.1280215414008 174.88271047116723,161.12296685826732 174.86494293331634,160.31846601812867 175.04057941329665,156.75013090105494 177.2807455288712,156.6534801152884 178.20145351113752,156.654387634655 179.4559581866488,156.70384743151953 179.83490190224256,156.74150947120506 180.76988216885366,156.7083850269555 182.43187512888107,157.44211297272705 183.8672591644572,157.38947703671874 185.7747936710948,157.3799481159076 186.93084871117026,157.44574303686386 187.78835086221807,157.5918530659401 188.769060693332,157.54284722858574 188.4673038222827,155.51726296480047 188.2811815822497,152.8237149033812 187.91039345774334,152.5528154518688 187.87311075557955,151.8553725988604 187.9610746310791,151.08850051899208 188.15739135991316,150.16507404408185 189.35247672884725,150.60704867873574 191.95964444440324,151.96972252364503 192.09770695108455,151.00546036241576 192.22965276439209,148.9394292170764 192.3677152710734,145.53109293343732 192.51538972440176,144.6797946454608 192.5054865067359,144.43202810018556 193.26716046221554,144.5300456683035 194.3011729066493,144.96431741816923 194.29971655108966,143.88521631981712 194.06058296887204,141.92439697147347 193.9397054577712,140.78583395906026 193.8654313244624,140.2544420089689 193.58784995554015,139.9985021268949 193.27065571548883,138.87263534782687 192.9153049599845,137.57704182242742 192.69364764448255,136.9802947495482 192.73063907551114,136.60772407444892 192.6359759643674,136.15029172768118 192.1259602488717,133.14564524131129 190.89475726219825,132.7408475279226 187.6584439467406,132.17086202726932 185.51294094219338,131.944864178251 184.88554296887014,132.01248203316936 184.5747566933278,132.18810683343327 184.24416398222093,132.32651904394152 181.04484209779184,133.2854182678857 180.5665749333566,133.46966439305106 178.29640789330006,134.30013144476106 177.9331928177271,134.40677589125698 175.9694429866504,135.56443203007802 175.61117952002678,135.74549960310105 174.18074709328357,133.75964751053834 172.5167152355425,135.17053012282122 170.27509276440833,137.26119718776317 167.26538837328553,136.69485393626383 166.1830249244813,136.80013580614468 161.75716039107647,137.43908675102284 159.48670208000112,137.6378509379574 158.62017052446026,137.5053415002185 155.96872959996108,136.6789708911674 154.96238791116048,136.14666130836122 151.16217372450046,135.20093501900556 150.5787576888688,135.0216822119546 149.9231064177584,134.75620626442833 148.8241405155277,134.03510842390824 148.77316807105672,133.51958326710155 148.95637759997044,132.6609770381474 149.27794090658426,128.78676927933702 149.34493326221127,127.82149675639812 149.42561536002904,127.17162586684572 149.4244502754882,126.97375976364128 149.52785151998978,126.29438785207458 149.73989688896108,124.51766370859696 149.75329536001664,122.91882649203762 149.6667878399603,121.56640888989205 152.47435008001048,120.75767730141524 153.13903075549752,120.57115123909898 153.60826851555612,120.45587714499561 153.5631214933237,119.83548362943111 153.6228320710361,119.72338600229705 153.8686648887815,119.49102150643012 154.207121919957,119.23914174322272 154.63499918219168,119.04535297030816 156.0884420266375,118.57472237455659 156.881864533294,118.29697269300232 156.86613589327317,118.09002171939937 156.86846606223844,117.81998671003385 156.73477262223605,117.39201457198942 156.69428593781777,116.47933734947583 156.70477169775404,115.33973351464374 156.6922470399877,114.4774247748428 156.72719957330264,113.18713221041253 157.17517454223707,113.16262429306516 157.2841099377256,111.65492821915541 157.47605759999715,110.97687004733598 157.77752320002764,110.29835590656148 157.9068475732347,108.9907919196994 158.05481329769827,107.17262498073978 158.1969535999233,105.66397967311786 159.05649464891758,105.65535621921299 159.14999267552048,104.24292063119356 159.27523925330024,102.67162065388402 159.50330453331117,100.95189198973821 159.57641358219553,99.84624769777292 159.6014628978446,99.27708379057003 160.5626575644128,99.31430189061211 160.52333596441895,99.04787461966043 161.58647551992908,99.15362858393928 162.5333979021525,99.2144484371529 164.80006968893576,99.20355533034308 164.8425952710677,98.96844564267667 165.66805759991985,98.81866520730546 165.51834424887784,96.01639041636372 165.54776263108943,95.68732273881324 165.5952398221707,94.97562708036276 167.6032628621906,94.73552004800877 169.77818424883299,94.59753781498875 171.6260081777582,94.49178163643228 171.75620636437088,95.17669949523406 173.70714026666246,94.94521656353027 174.3158968888456,94.82312056497904 175.24097393779084,94.53172389016254 176.76810837339144,93.91171035222942 178.2757276444463,93.37702668778365 179.6318859377643,92.9013477563858 181.50679807993583,92.3321656837361 182.63256092439406,91.91185962501913 182.62935694225598,91.85012994118733 181.6620455821976,89.52663005999057 180.63793635554612,86.77416520012775 180.51035960880108,86.2857624553144 180.28229432890657,86.28485464252299 179.8209208889166,84.38116283988347 179.75684124440886,83.9817213396309 179.74140387552325,83.67124584881822 176.35100814211182,84.0929295582464 173.2064452265622,84.59041542414343 170.6645222400548,85.18095145811094 170.11314602661878,83.27770391030936 165.61038592003752,83.89956339466153 165.26610346662346,80.8755847432185 165.4455264711287,80.62139068712713 165.42105969775002,80.26824202365242 165.33979505777825,79.0903191366233 165.15454663103446,77.6645472967648 164.98182286217343,77.07626049121609 163.400803271099,77.34543821617262 162.63563406222966,77.57058492762735 161.2252993421862,78.09577504062327 158.78648632881232,78.86335831013275 157.46411548438482,79.1638543937006 156.48864853323903,79.41759623168036 151.4511146666482,80.30909472616622 151.02906282665208,78.93008481775178 150.4444817067124,75.7802989926422 148.8730740621686,76.14707276731497 146.778834773344,76.14707276731497 145.67229582217988,76.19064980832627 145.3119934577262,76.10485750046792 145.02625649771653,76.1706769989687 144.26254364452325,76.15206597041106 143.7097110755276,76.28642848250456 143.61796067550313,77.4348614338669 143.4758203732781,79.0485583623522 143.19037468452007,81.4720317730098 143.22503594658338,84.1274267900153 142.39374819549266,84.21684722061036 142.38617514667567,84.6303594953497 139.13005539553706,84.80148344504414 137.05824398226105,84.76108549564378 136.9749404444592,83.73615523515036 134.41379356442485,83.52054705913179 133.807949653361,81.47067002375843 133.76571534224786,80.94594197411789 133.40046136884484,78.97048384975642 133.3017204621574,77.8869701345684 133.43483135988936,75.666362954129 133.6075551288668,75.1779352761805 134.62554766214453,75.1811127832043 138.30080654216,75.68361223867396 138.30896213336382,74.96050289954292 137.93788273772225,70.94273109390633 137.97487416886725,69.33396740799071 136.08772863994818,68.8668608252774 134.46884380443953,68.2894448878942 132.42819840006996,67.4255878374679 131.35661198222078,66.85724701412255 129.7517081599217,65.538981114747 128.83245653333142,64.828548693622 126.52122026658617,63.284201332891826 125.89702627551742,62.31001302681398 125.5352675555041,61.58731319871731 125.95236778666731,60.2317905901582 126.71520682668779,58.30653448658995 127.83514424890745,56.75578528014012 128.97430556442123,55.44744553248165 130.12482645339333,54.701116350945085 130.98990165325813,53.35145251615904 131.86604515556246,52.115728740231134 132.58461098663975,51.5083057366428 133.24754403554834,50.97714970255038 134.27077944891062,50.02061159122968 136.61871587554924,47.73343791876687 139.07063608884346,46.6443207662669 140.9015662933234,46.02689469855977 140.44893098669127,44.566856673627626 141.18526435561944,44.37799531791825 141.48527359997388,45.00223595323041 141.5528484977549,45.11573405814124 142.2536467910977,45.29642291896744 143.0252239643596,44.82290882675443 143.42601301334798,44.0520274961018 144.03564344893675,43.716525286610704 144.4358499555383,43.040979349112604 144.78479274665006,42.092578320764005 145.41510343109258,41.807013007986825 145.8811372088967,41.883284861105494 146.39377436449286,41.60044327133801 146.52018602669705,41.08152106788475 146.49892323557287,40.83817654621089 147.02321123552974,39.69636046345113 147.1184568889439,39.25733852968551 146.3139660799643,38.68801610911032 146.51348679116927,37.888964584853966 147.32059904001653,37.086732062569354 147.67216327111237,36.7598452969105 148.6642326755682,35.9557925654226 148.34470826666802,35.90085717709735 147.8183813688811,35.168535346048884 147.29088938666973,34.53337014984572 147.8635283911135,34.27548982674489 146.62591743993107,33.21218428033171 145.26102101337165,30.84447200456634 144.32953600003384,29.79885663598543 142.80939207109623,28.415894330420997 142.51316935115028,28.25017435726477 142.06839836447034,28.284226416843012 139.6202646754682,27.000687098538037 136.99416433775332,25.715778109093662 134.95381020440254,24.817699405073654 133.5510485332925,24.306909812730737 131.88381269329693,23.86331645603059 130.2288102399325,23.533685597009026 127.23133923555724,22.588831840839703 122.18477596447337,20.236895492125768 120.49016063997988,19.329713248007465 119.70168974227272,18.957395115983672 118.58175232005306,18.599151824077126 118.20543004444335,18.472018448112067 116.53994183102623,18.020694363396615 113.88442311109975,17.323274218069855 110.22547541325912,16.333896361174993 109.35049699561205,16.047843182168435 107.530926364474,15.341789678030182 107.07974741328508,15.258697700162884 106.4287564799888,14.991259370115586 104.69947989331558,14.298824135621544 103.1094308977481,13.632268004934303 102.25309383112472,13.427941806614399 95.51890574221034,9.815876994631253 92.39327544893604,8.549029246845748 89.64891903998796,7.477878746343777 88.77394062222447,7.059679090511054 87.74750122660771,6.528868597582914 85.66986439109314,5 83.45999047101941,5.144850203185342 83.0379386311397,5.257006877276581 82.87948714662343,8.61486918607261 82.7105499021709,9.817239192605484 82.3566555022262,11.085441745002754 82.24247722665314,11.916376035718713 82.22762240003794,12.928022898791824 82.36918015999254,14.067709196300711 82.73676430224441,15.321357227454428 82.9674510222394,19.322448510036338 81.81226979556959,19.450035434914753 79.1118953244295,20.35721717728302 77.10125084442552,20.877096901007462 75.59275775996502,21.160873518616427 75.5170272710966,21.184029674332123 75.45877304882742,22.689628544729203 75.39993628440425,22.93526355997892 74.74923662224319,23.174541764659807 74.29776640003547,23.48873589572031 73.46880881779362,24.530749310564715 72.81752661336213,25.34891930880258 71.5164185599424,26.246541788277682 70.85931093338877,26.51215015782509 70.36415004450828,26.687860131787602 69.02255530667026,27.27038081327919 67.9891254043905,27.436555561958812 68.05116615106817,29.724850668222643 68.12573155551217,30.465363235387485 68.29262990225106,31.469659513735678 68.24631779559422,32.04808121570386 67.71241784887388,33.87050813919632 67.20793628436513,35.51403900940204 66.45470919110812,37.13939710665727 65.82527231995482,37.05949151754612 64.49328952888027,36.98003990831785 63.29383509326726,36.86245147342561 62.31429034669418,36.803884237015154 61.082796088885516,36.76120732608251 60.18684615113307,36.70218605257105 59.09457948443014,36.71898441662779 58.243194026639685,36.826130708504934 55.369513244368136,36.98685004742583 54.585702684358694,37.08627805352444 53.299158186651766,37.04042313393438 51.8401811911026,37.12396080192411 49.6798233599402,37.333258840139024 48.10608554666396,37.496701853582636 48.125600711093284,39.10161492152838 48.05016149324365,39.34541538992198 50.307803875533864,42.547484452079516 50.45023544889409,43.32427306211321 51.4903645865852,44.14782031899085 52.21126058662776,46.47952265641652 52.06096469331533,48.23781671223696 51.993681066669524,50.2802891783067 52.277961671119556,52.47845661599422 52.155919075594284,54.95352480345173 54.41705671104137,59.035600697796326 56.407312213326804,60.787891811167356 54.23792497778777,68.96763609122718 51.77348010672722,79.51291956490604 51.142004337743856,81.63907296169782 49.46981688879896,88.16901198454434 48.06880284450017,93.70745953195728 44.18848910217639,108.30909456289373 41.7560840533115,108.22785352374194 38.59637504001148,120.54528264852706 36.72845340438653,127.64859135303413 36.61602275550831,128.37424854165874 35.246174719999544,128.41327693976928 32.86445084447041,128.56757518928498 31.892479146597907,128.63791700208094 26.836595200002193,129.1412006636383 25.051394560025074,129.21290374157252 22.439275235519744,129.4438964081346 20.053764835582115,129.61226222483674 17.541551502188668,129.72072423173813 16.635989617789164,129.67579646134982 13.954256497789174,129.35585601016646 11.678846577764489,129.04998342267936 10.019475057721138,128.87662517779972 8.067376071121544,130.2485113851726 5.504772835527547,132.0329035288305 5.247871715575457,132.28930658934405 5,132.67322989931563" stroke="red" stroke-width="3.501608573671395px" fill="none" stroke-linejoin="round" vector-effect="non-scaling-stroke"></polygon></svg>