<svg width="14489.852976355469" height="13482.589842752379" xmlns="http://www.w3.org/2000/svg"><polygon points="98.56793173332699,82.43979410256725 98.70308152888902,92.67042321030749 98.79628828447312,92.91683909163112 109.92808760888875,102.70500194851775 111.64979114662856,106.00075269269291 111.15841678215656,116.78258130111499 111.40221070218831,116.92775814782362 120.74181887996383,120.54157688771375 121.6269917866448,120.60111211088952 139.62579882657155,113.973825209192 140.01260686211754,113.78559648711234 144.02748785773292,105.04720684909262 144.31963278213516,104.74767717171926 137.67428238224238,99.41332304786192 136.96066815999802,99.29286689352011 130.008900551009,80.15368433797266 129.47092280886136,78.72548328281846 130.9587356444681,70.53215402411297 130.80319687107112,69.96323127998039 104.78453105769586,73.36666790035088 104.6141374578001,73.40926777693676 98.56793173332699,82.43979410256725" stroke="red" stroke-width="3.1881423978532473" fill="none" stroke-linejoin="round" vector-effect="non-scaling-stroke"></polygon><polygon points="5,137.63484019157477 5.219035875517875,137.98652793688234 8.697395484428853,145.7093184409896 24.92119637329597,139.3612185586826 25.514224355574697,138.74027344374917 28.858016711077653,148.11882758740103 30.446318079950288,148.3230530883884 27.455837582121603,151.2627799641341 27.450594702153467,151.50958699116018 47.126832071109675,157.63205112563446 49.52253695996478,158.32162451499607 73.01296952879056,153.63147474755533 75.4392578843981,153.35536493791733 80.71621660434175,143.80852556147147 81.08321820443962,139.7074084240012 74.85642439103685,141.81567442341475 74.46815999993123,141.92786437098403 73.46181831101421,136.1667208491126 73.06539832882117,134.94175400817767 81.08001422218513,128.98213409690652 81.29584611544851,128.79987173294649 83.08104675554205,137.09448551025707 83.12590250663925,139.01685983606149 89.44415544893127,138.24846166721545 92.3434680888895,137.61285968846641 100.36915228434373,132.12590672902297 101.77657429326791,131.6684253955027 98.35472127993125,123.89384239760693 98.41384931548964,122.97838597663213 108.84310271998402,125.03735605522525 109.51710407109931,125.00850496406201 118.93302527989727,138.27273173455615 120.19044266664423,140.18685299681965 148.18829567998182,126.12957310618367 151.96782961778808,125.75176280061714 150.08126663102303,138.65235186746577 148.92433777777478,141.70211066218326 153.57855886220932,139.13820971449604 153.73875797330402,139.10340749216266 155.66639018664137,123.30445193959167 155.55366826662794,122.05834607966244 178.8640952889109,109.74390617519384 179.16468707553577,109.28958340280224 172.5542892088415,108.06629627355142 171.05686442670412,106.43538866826566 170.14489457779564,97.65227487264201 170.86841201782227,96.82647803227883 173.44208355550654,95.59166999626905 183.15801400889177,95.68831138394307 184.74340266664512,104.07213088683784 185.17157120001502,107.14390297490172 199.2554032355547,103.09567652712576 199.46977877325844,103.07644051522948 198.63470449775923,91.64857294381363 199.5498783288058,87.5597494909307 191.26729301328305,82.06144941493403 187.6333946310915,81.35605924681295 187.8824314310914,80.88243884267285 190.13162695104256,76.69309752626577 183.1999570488697,69.7154150273418 183.3231647288194,68.00497126096161 189.39034197328147,72.7194235806237 191.39050069334917,76.91388049640227 216.58778197329957,71.99430609331466 218.3957017599605,71.07313311932376 232.0149563732557,76.60148626915179 240.7656143644126,72.74553326162277 239.70859150215983,76.17686758574564 239.73567971552256,78.9659603877808 245.62576412432827,82.19794672727585 245.53983914665878,82.9711245073704 235.9963411911158,112.97680648817914 235.45428565330803,113.92161579907406 252.31189247989096,113.37158431741409 253.29755391995423,113.39310930593638 251.54730581329204,126.81329359329538 251.48905159102287,126.87282709003193 261.0028398933355,126.3883155407384 261.0293455644278,126.54814035899471 259.93300110218115,135.70100530132186 259.47832689771894,139.30535188829526 250.93592775100842,145.78258403309155 250.93738410668448,147.21675300045172 260.47563918225933,151.12541043933015 262.1854006043868,151.18951622839086 290.22985699551646,135.38732218905352 290.97201578656677,135.21559766493738 285.69913486216683,129.04029316070955 284.69133681769017,128.5296835238114 286.3504170665983,121.3045424305019 287.2813195376657,118.40974713291507 277.4290742044104,115.31935811566655 276.12971377768554,115.0271702655591 277.77976462210063,105.92197769111954 276.70060515543446,105.5349721791572 294.11832632881124,92.56965827086242 295.00437304889783,91.94949483725941 299.0303223466035,81.68081383721437 301.11407587549184,79.03237782674842 294.80193962669,74.50220367813017 293.46675285324454,73.76060192350997 297.640376604395,67.1827258025296 308.9096558933379,53.74738756543957 304.50097635551356,51.25665742531419 304.09494442667346,51.50312050594948 306.8896907377057,46.32504620956024 306.2783126755385,45.68367652245797 281.63153379550204,36.45323976292275 276.7649760710774,34.92579079599818 152.046764088911,5 146.91806236444972,5.8325625155703165 146.41358079994097,10.813666208763607 144.60682609770447,13.836820818833075 135.60159715556074,15.888583087944426 134.26204131555278,17.379970193724148 133.1086077154614,26.193376851384528 132.9629721599631,27.46569227136206 117.04500593768898,32.7083591746632 116.10041372443084,33.40337066492066 128.16340679104906,50.15902289567748 130.43211747554597,54.30764900916256 114.03122375102248,51.02302115992643 111.4424061155878,51.33224557468202 77.9686562132556,63.5290780843352 71.92798464000225,64.42050785786705 76.76628906663973,81.91258479829412 76.95328511996195,84.03515552240424 15.795963733224198,95.48999038536567 15.405077902134508,95.5312118550064 5,137.63484019157477" stroke="red" stroke-width="3.8441928043391584" fill="none" stroke-linejoin="round" vector-effect="non-scaling-stroke"></polygon><polygon points="8235.080493795453,7017.3037264538 8243.113751039957,7028.658441570355 8243.9555245511,7031.49958066002 8243.955233279965,7033.924481538241 8244.045818595565,7040.121280393621 8237.380370488856,7044.402055103332 8236.778895644355,7044.844414849067 8245.582564977813,7061.06868955266 8245.665868515614,7061.932046021335 8238.173501724377,7098.726267607999 8238.119325297652,7098.918338675867 8249.745411697775,7104.113065918325 8251.778775324346,7107.0259810269345 8252.48161251552,7120.07086367812 8253.233383253333,7120.955723310704 8263.886332871043,7107.436278916779 8263.404570453335,7106.507895685732 8290.14587989333,7108.166385496734 8291.169115306693,7108.3486899837735 8295.871104853344,7097.639044633019 8296.21917383105,7096.6365413585445 8281.17735111108,7096.456888743094 8280.28780913772,7096.397891679546 8281.463379342109,7085.138036291697 8281.163370097755,7083.412831921247 8289.279057066538,7082.22616386821 8289.536831999896,7082.187569323811 8282.47787662223,7069.459431136085 8282.290298026637,7068.738069673069 8298.203021368827,7064.58509363397 8298.246712035616,7064.291396618064 8285.655353173264,7052.292963467073 8285.587487004348,7052.201122632716 8306.9612524088,7036.555679687299 8307.071644159965,7036.3706537914695 8278.606592284399,7005.443863232678 8277.953271182138,7004.87139995757 8293.683658808819,6993.313093879842 8294.980106524425,6992.4379308851785 8262.192008817685,6968.388676753617 8261.32431217772,6967.195177672082 8250.309021297726,6976.782490599027 8250.022993066581,6976.995971241035 8263.644286577823,6992.221802371088 8263.84264220437,6992.457901681773 8235.080493795453,7017.3037264538" stroke="red" stroke-width="3.2650043572652683" fill="none" stroke-linejoin="round" vector-effect="non-scaling-stroke"></polygon><polygon points="14409.079379342147,13470.61945713847 14410.489422791055,13477.2289986416 14410.852929137764,13477.111303843092 14484.381408426561,13418.894886955677 14484.852976355469,13418.675392055884 14460.136874951073,13387.021049747767 14459.722104888875,13386.065744294669 14453.386666951003,13394.217410778161 14444.172305351123,13399.842454402591 14434.458996337722,13390.34884528583 14433.854026239947,13390.731391999638 14424.206253226614,13398.293780805601 14422.938058808912,13399.091191619867 14410.533404728863,13423.68361758726 14410.172519822256,13424.646957369521 14409.079379342147,13470.61945713847" stroke="red" stroke-width="3.065147226398769" fill="none" stroke-linejoin="round" vector-effect="non-scaling-stroke"></polygon><polygon points="85.18868451553863,64.21345461020246 96.91322055109777,112.05306019017007 97.28196977765765,112.88017282629153 118.93302527989727,138.27273173455615 120.19044266664423,140.18685299681965 148.18829567998182,126.12957310618367 151.96782961778808,125.75176280061714 150.08126663102303,138.65235186746577 148.92433777777478,141.70211066218326 153.57855886220932,139.13820971449604 153.73875797330402,139.10340749216266 155.66639018664137,123.30445193959167 155.55366826662794,122.05834607966244 178.8640952889109,109.74390617519384 179.16468707553577,109.28958340280224 172.5542892088415,108.06629627355142 171.05686442670412,106.43538866826566 170.14489457779564,97.65227487264201 170.86841201782227,96.82647803227883 173.44208355550654,95.59166999626905 183.15801400889177,95.68831138394307 185.17157120001502,107.14390297490172 191.02000383997802,106.06166590098292 199.2554032355547,103.09567652712576 199.46977877325844,103.07644051522948 198.63470449775923,91.64857294381363 199.5498783288058,87.5597494909307 191.26729301328305,82.06144941493403 187.6333946310915,81.35605924681295 187.8824314310914,80.88243884267285 190.13162695104256,76.69309752626577 185.9865477688145,72.53802992054261 183.1999570488697,69.7154150273418 185.45264782221057,58.92299364448991 184.97234175994527,58.334342266549356 167.00615708448458,54.79232208780013 165.21716991998255,55.08550754364114 157.07381219556555,63.59320984536316 156.80293006217107,64.46081908652559 147.7706129066646,55.46435753622791 147.25156778667588,54.335135224158876 149.6105725155212,43.87454563146457 150.16078364441637,43.57264057255816 132.34780757327098,38.38246477267239 131.92226048000157,38.22578174044611 124.77679758216254,43.50804474647157 123.89745009772014,44.20256339665502 128.16340679104906,50.15902289567748 130.43211747554597,54.30764900916256 111.4424061155878,51.33224557468202 106.54206094215624,52.399639045179356 85.18868451553863,64.21345461020246" stroke="red" stroke-width="3.8101584446204466" fill="none" stroke-linejoin="round" vector-effect="non-scaling-stroke"></polygon></svg>