<svg width="2458.9067224177998" height="1917.8202110510902" xmlns="http://www.w3.org/2000/svg"><polygon points="5,1280.3829310075962 24.989062542212196,1274.8550748197013 26.349298631073907,1274.8009062309866 39.24707470217254,1286.4709661874804 40.04078847996425,1289.4304862017161 60.714046862209216,1286.040371326555 62.57090019562747,1286.269324091496 71.04455936001614,1302.7805972611532 71.5091367821442,1303.1014704696718 87.09592775115743,1299.9933042260236 89.37337656889576,1302.5584890037426 93.31019690667745,1321.9711674252176 93.42670535109937,1322.6451686286018 110.99501368892379,1325.8604122942197 113.18828515557107,1324.4277802314027 120.12228522670921,1348.2511142493458 122.84567011555191,1357.7508677471778 118.18096327106468,1369.2986267181113 116.46188117330894,1374.3727305498905 157.05517084442545,1388.5283623012365 158.5962862932356,1388.8682171573746 173.35674111999106,1402.570248970238 174.04559729783796,1403.1430058371625 175.98750179552007,1413.5328899117303 176.57033528888132,1414.2043325543054 186.63753870222718,1418.4749503288185 186.99318072886672,1418.9130159819615 194.20854869333562,1449.8182973270887 194.28107520006597,1450.5978774239193 201.86839637334924,1460.5188587217708 202.19898908445612,1461.1619580916013 197.7172004977474,1481.2089670539717 197.65457720891573,1481.8010715499404 185.8379995021969,1496.5913365755696 185.5432331376942,1496.6509066937142 223.06739911111072,1498.5821519821184 224.1092758756131,1498.6235323738656 217.33897016884293,1516.7401114113163 215.65571441780776,1519.3750334393117 218.78862648888025,1527.6442525565508 218.86697841773275,1528.0166260002297 213.14000583114102,1540.1804743490648 212.58571690670215,1540.7046766285785 215.49930183112156,1541.997673203412 216.77186531561892,1542.4127580256318 215.32483043556567,1551.4657744952128 215.33502492436673,1551.7735513332882 187.54805219557602,1540.4000666112988 186.28539192897733,1539.7849349317257 162.53543679998256,1546.4553608624847 159.3332022044342,1547.4619081771816 165.76097308448516,1549.3781540698255 167.60209777776618,1549.304050450155 165.08959317335393,1562.1613323113997 164.75084487104323,1567.4700468107476 170.679959608824,1572.7058997415588 170.78306958219036,1572.8399991976912 198.77189319115132,1582.3508489445667 199.0695722666569,1582.3431215196033 204.19710890669376,1591.6685598674812 204.2474988088943,1592.1821837151074 192.79734016000293,1597.2792664577719 192.84685624891426,1597.3497175399098 214.8605442844564,1605.3900813711225 215.62134442664683,1605.7877739554388 205.56841329776216,1618.0681628718157 204.3922605511034,1618.8316874633892 214.95258595549967,1641.7357239999692 214.52383487997577,1642.418277163175 211.66704782226589,1638.9523209059262 210.13496177771594,1636.6737665259861 190.92825343995355,1636.3111224414315 189.38247765332926,1635.6653599864803 167.32655530667398,1617.397349767678 166.66653496888466,1617.1682911605458 174.33948984893505,1618.0277141727856 175.28874240000732,1616.6551808254444 168.6646547911223,1613.0233794301166 164.5297700978117,1609.6510354858474 156.14844387560152,1610.1468914944562 152.80610787554178,1609.1451793822343 150.76633628446143,1615.84620015783 149.2863877689233,1615.7603025956196 118.31611306662671,1598.081952919194 118.29222883563489,1597.2292689018068 117.07966719998512,1609.604676754505 116.4385794843547,1610.315055053623 98.52074581338093,1619.4506857891101 98.62531214219052,1619.934248600097 83.48125326214358,1618.852138978138 82.67792753782123,1618.8507755438332 76.29792511998676,1630.406937167747 74.29980529774912,1631.1763263078174 85.03693226666655,1641.5707657568273 92.15588949329685,1642.126988092612 88.39062783995178,1650.9377418175573 87.52234865771607,1652.241897524742 52.504570595454425,1653.2647681824747 52.1684437332442,1653.7182650507311 65.12360021332279,1665.3221011493006 68.06572970666457,1669.1861224650638 74.21621048892848,1664.4065215954906 74.48651008005254,1664.0780025328859 81.2722531555919,1669.190666193841 82.42102641775273,1669.997630916827 82.90133248001803,1673.7570656065363 82.72627854219172,1676.9135047487798 93.2714578488376,1684.0658708278206 96.24679224891588,1684.4906799860764 93.11213255114853,1686.4938597960281 93.4168021333171,1689.953606369265 97.30148494220339,1689.7968626394286 102.6361153422622,1689.0399478496402 112.1764093155507,1698.746521503257 113.8899572622031,1699.3044148396002 118.80661361780949,1680.7877701070975 119.76693447108846,1679.732315657253 121.38611057773232,1686.750105553132 121.4370830222033,1687.7323781581945 132.34868138667662,1689.7182635671343 136.09005880891345,1689.973596865777 163.19895239104517,1678.5137432783959 163.64022812445182,1678.1202728862409 182.10652529774234,1681.0649226002279 185.52779576880857,1680.473814970872 200.56641450664029,1700.018134602753 201.0694397155894,1700.9898982290179 201.72829496883787,1712.7016026318888 201.59984440892003,1714.6527349159005 229.37604010663927,1724.8964600416948 231.79009507549927,1725.884465665673 212.215220053331,1735.8732911298866 209.7679601777345,1736.7740344226477 208.97570275561884,1742.6380863942322 209.23376895999536,1743.3625651878538 234.9579596800031,1733.6688844707678 235.52564707561396,1733.6720641378197 251.39584483555518,1751.2367445570417 251.4412831289228,1751.2957907412783 254.60856519115623,1787.9013394876383 254.19699911109637,1788.4403851023526 260.7083648000844,1794.6009412911371 261.1423587555764,1795.401991506631 255.00382008892484,1798.8768078359426 254.67380991997197,1799.0956848944188 252.79132472886704,1809.731391449459 252.7901596444426,1810.8261740098824 266.9188474310795,1811.686648347706 268.67929002665915,1811.3415508690523 277.86627214215696,1803.6520921526826 277.94782805338036,1803.5876110732206 323.5262227910571,1803.4990630809334 325.49929329776205,1803.4245919210953 324.8529627021635,1793.876179030398 324.47926186665427,1792.704565757711 329.0781414399389,1792.3603463952895 333.43846997327637,1792.8744046619977 335.0454126932891,1825.2653454953688 337.6782122666482,1832.6080684967455 331.6666678044712,1863.8432004814968 331.50821631995495,1865.2445903184125 345.61214606219437,1863.3701669537113 345.9072036977159,1860.8252107650624 357.07686826668214,1868.0963703349116 359.68520106666256,1868.984763445973 369.3020993422251,1849.2109166579903 368.95228273782413,1846.5059859821922 377.97993955551647,1844.8711164770066 380.9159523556009,1844.3540030152071 382.21793422219343,1839.4661077690544 382.6554234310752,1836.4809236004367 378.460536888917,1830.2130386060453 378.1852856888436,1828.4554558210657 383.22048938658554,1815.241120519524 383.49894456891343,1813.3580929941381 425.97093290660996,1789.9099247446866 427.8840015643509,1788.805954451498 429.86755783110857,1794.0146832832252 431.5403278222075,1797.107165107096 412.8998505244963,1805.7558904054458 412.2383738310309,1806.3175961025408 427.5336024177959,1813.9256819797447 430.8261310576927,1813.5406297735171 432.7027908266755,1824.0389612863655 432.69405269331764,1824.7722499728552 422.64083029329777,1833.2228264189325 422.6757828266127,1833.9887742208666 437.8285798400175,1832.8872977535357 438.5890887110727,1832.9413274382823 442.5308606578037,1841.3820523004397 443.8972134399228,1843.6988697968773 452.5738885689061,1845.352362317033 453.0684669155162,1845.4463413332705 451.59143111109734,1851.1190574942739 451.4891949511366,1851.7669045032817 466.457908622222,1848.177163134329 467.8906712178141,1849.6172435536864 461.7299959466327,1895.274927153543 461.80252245336305,1900.2913815236534 469.8666544355219,1905.2219369272934 470.376670151134,1905.8614530509221 469.9991827910999,1911.9056726583512 471.7357411555713,1912.8202110510902 472.4394521600334,1906.9198957631015 472.69810090668034,1905.6435911332374 485.17877674661577,1909.7861073637032 485.7607364266878,1909.7842918813694 514.5013307733461,1891.2846481941524 514.3621031822404,1889.6501151201664 526.1757681778399,1888.7654376965365 527.2648308622884,1888.606567588402 527.7285344711272,1894.2023568014265 527.9997078755405,1897.1250191531726 536.6227891200688,1897.3265493237996 539.1449056710117,1897.047856651072 538.0648723910563,1888.2752095609321 540.3015432533575,1885.9543274792377 546.7400911643635,1889.6328664413304 548.2826629689662,1889.4286056667333 547.0054391466547,1881.9929290200234 547.800609280006,1881.9166690089623 549.3766772622475,1889.1008802009746 550.7724484266946,1888.9047893816023 549.8584396800725,1884.4981463059084 549.669695999939,1882.8971528274124 564.4444231111556,1874.5574522074312 566.1355431822594,1876.7377346499707 568.5385298489127,1872.1932986492175 568.5070725688711,1871.2735960274586 564.1712108089123,1859.4651042423793 563.9169311289443,1858.7741523448494 566.4215714134043,1852.8074508124846 566.5899261155864,1852.469682399009 571.4337646933272,1854.7541488677962 572.5898197332863,1855.4905119218747 581.0264874666464,1835.9088532121968 581.0512455110438,1835.766743430111 579.1536142223049,1827.1110384278581 579.5276063289493,1826.6460978214745 566.4614755555522,1819.0148456924944 565.7941734399647,1817.4133702704567 583.1603396267164,1812.7573551986716 583.7262793956324,1812.7555389064946 587.926700088894,1805.344032517518 587.9779638045002,1805.2500361758284 602.3891845688922,1810.5391971149947 602.7975466666976,1810.5723447820055 613.0211626666132,1794.1768012637622 612.8053307733499,1791.8467410304002 623.8174176710891,1791.5343085266068 626.9552813511109,1791.6569201731472 626.9427566933446,1768.250466486381 626.8119759644615,1766.5718626548187 663.2811579733388,1767.319878462411 665.5865688177291,1762.8435536380275 684.0350984534016,1780.5707314718165 684.6141454222379,1780.9631082739215 696.7767532088328,1778.8531663527247 697.3295857778285,1778.9112967529218 712.868899555644,1787.9167797344853 714.56584504887,1788.4599124247325 735.5528024177765,1783.7278914165217 736.1003921066877,1783.1743018106208 740.2897444977425,1763.8318410690408 740.6206284799846,1762.5006495508133 727.2466241421644,1751.3471154883155 727.4024541866966,1747.526795238955 757.8309646222042,1745.1267404452083 759.7944231822621,1745.0545203692163 752.4934215111425,1733.6820573771838 751.870101333363,1733.0624756704783 754.1688129422255,1729.176422586257 755.310886968975,1728.4369063150953 752.6565333333565,1716.0137472111965 752.6856604444329,1714.9412011838867 756.199846399948,1713.1259015726973 756.3964544000337,1712.513075535011 751.6184430932626,1705.452958804206 749.868486257852,1704.651122932497 748.8534064355772,1687.927741745778 748.7202955377288,1685.0277102690306 757.0293865244603,1663.0619985284866 757.538819697802,1662.2068429990322 763.4070587733295,1664.2479419162846 764.3478644621791,1665.007214918849 760.4416275911499,1672.950569200504 762.6482975288527,1675.7030950398766 765.8592702577589,1669.7713539486285 767.0077522489009,1669.1465920208138 773.499311502208,1676.5291186118266 774.4724482843885,1676.9557599209365 777.7623554844176,1689.603318051959 777.8345907200128,1689.6328495141934 809.0856507733697,1688.6914753890014 810.8204615111463,1689.2952819447382 822.7727715554647,1681.2030443665572 823.1374429867137,1680.996316032426 815.8699374933494,1665.2330424637767 815.7295448177028,1664.7014158776728 819.7490861511324,1656.566003826505 819.927052800078,1654.4171391341952 810.7464786488563,1648.4089298025356 809.9402402134147,1646.701681052975 811.4991232000757,1626.3372641459573 810.6253098666202,1622.4988405295298 805.0500895289006,1615.1844699128415 803.1032334222691,1613.2315358732012 785.2229737244779,1612.342097450979 783.4861240888713,1610.8527230738546 821.664193706587,1607.0985635626712 822.2033365332754,1607.251276400988 827.2175687111448,1594.5857453814824 827.7771005155519,1593.0721591551555 823.8752327110851,1588.535428116389 823.9014471111586,1587.2972536349553 828.0843915378209,1586.586800114892 828.863250488881,1584.0026933536865 821.1195167289115,1578.3784617576748 820.2317223822465,1577.769346878922 819.8711287466576,1559.0886920402409 819.9156932266196,1557.9521814537584 811.8693287821952,1546.4326293877675 808.2584408178227,1546.2907849322073 816.6785060977563,1538.8360920387786 817.0338568533771,1538.793810011819 809.6239197866526,1521.2760677855113 808.9202087821905,1519.7669725198066 813.1692717510741,1521.8125920498278 814.2038667377783,1521.8917065327405 810.0992742399685,1508.6982864453457 809.8315960889449,1507.6310830786824 829.4207433955744,1519.0149217352155 830.5497102222871,1519.1522371270694 828.9416024177335,1513.7491292822524 828.6794584176969,1511.781642612943 852.032119751093,1510.6767139323638 856.3799236266641,1509.679090371821 869.8509212444769,1499.2824344726978 869.5727573334007,1497.2670699344599 880.7007701332914,1496.9710389570682 881.6532266666181,1496.3712453105836 882.4248038399965,1491.6073971053702 883.9298016711837,1489.61060607346 879.2863576178206,1485.149933279201 878.9982904888457,1484.5623854974401 896.8147618132643,1474.3100576658035 897.2927377066808,1473.3586549540632 890.6983597511426,1475.080909102573 890.0802824533312,1474.3914633448585 891.1964333511423,1466.714182410913 891.109343288932,1466.0497239820543 886.2381252266932,1460.018567938183 885.955592248938,1459.411395303614 898.8463778133737,1448.8108428257983 898.9783236266812,1448.697134349437 907.7930612622295,1452.2789227702306 909.2147555556148,1452.979354492738 921.031041991082,1434.679607237631 921.3482362311333,1434.0327905651066 943.3027962311171,1429.148853149789 944.365061973338,1428.5588795423391 947.9940087466966,1420.5642835570616 949.1229755734093,1420.384600779391 947.6535128178075,1404.7043179203174 947.7941967644729,1403.5906559033901 972.8347741866019,1394.2730662992108 973.7085875199409,1394.0938167241984 996.2509326222353,1396.7092990298988 1003.527176248841,1395.8858508740086 999.5556946488796,1386.4278018136392 1001.0787512888201,1385.9259754988598 1012.3413313422352,1389.1148049530457 1013.5885542400647,1387.8996066676336 1046.5930663822219,1422.9679244513973 1047.447947093402,1422.9924883959466 1063.9009783467045,1411.7655665331404 1065.2026689421618,1411.3361298011732 1100.589487502235,1409.5364895183593 1103.7017193244537,1408.123060876911 1133.5674939732999,1379.7770303837606 1134.1112971378025,1379.2870181688922 1156.0731389155844,1389.19396776543 1157.9253319110721,1391.013339623285 1160.350746453274,1387.8067945386283 1161.5335984354606,1386.6975955363014 1154.0476396088488,1376.4770474869874 1152.5641958400374,1374.604320158076 1200.0253670400707,1344.039182761102 1201.5714340977138,1342.5561593528837 1197.8769513244042,1328.5276858877041 1197.1091606755508,1326.3300659836386 1182.2354013867443,1304.4700690300087 1181.9123817244545,1304.1482875699876 1193.1595244088676,1312.2117960857577 1196.0908768711379,1313.0250937801902 1228.4671172266826,1315.3311653106357 1229.0400475021452,1315.0276045015198 1246.784283591085,1278.9249634959851 1247.1134199467488,1278.347782269877 1242.8617355377646,1273.0274464876857 1242.580658915569,1272.5144332298078 1268.2576637155144,1270.4182129592518 1271.3343604621477,1269.34938319528 1272.5978945422685,1260.5108516406617 1272.9733430044726,1259.2703511549043 1307.0503153777681,1211.3324395490927 1307.1015790933743,1210.4240516060381 1337.0550263467012,1179.675951698795 1337.8082534400746,1179.2802106969175 1347.812833564356,1191.6598680201569 1348.320227839984,1193.0633218647563 1340.5106668089284,1198.9138324963278 1340.3900805688463,1199.0049039561418 1345.8860751644243,1212.5349663137458 1346.7336740978062,1214.424572727119 1337.9792295822408,1239.3476254024426 1337.623296284466,1240.5481759418617 1341.8429408711381,1250.6585786646465 1344.0557275022147,1251.4279479261604 1366.3711724088062,1234.9145908003557 1368.8962016711012,1234.4834384135902 1394.6378686578246,1241.1181733431877 1395.403037866694,1241.4559825985925 1420.770130204386,1257.6283273202716 1421.2722815999296,1257.699343856133 1488.1376429511001,1237.5401856399258 1488.9368908799952,1237.4250006816 1549.2844785777852,1243.6007404216216 1549.7580854044063,1243.6931589304586 1552.5071021511685,1237.587534379738 1552.6192415289115,1237.574331366748 1575.2480941511458,1246.2071093893028 1576.467646293342,1245.8460893184529 1582.5834658133099,1219.4098674435518 1582.7180330666015,1218.4769262113841 1582.0766540799523,1198.4097512753797 1581.9717964800075,1194.9913484667777 1591.8782182399882,1201.2284017952043 1593.4321496178163,1201.2192947441945 1600.1270161066204,1171.5902141463012 1601.5571572622284,1168.921012136445 1613.336452266667,1184.842377651541 1614.4776524800109,1185.8196357582929 1610.2952905955026,1203.8480291548185 1609.736341333366,1204.9618051727302 1626.7844394666608,1207.1278691542684 1626.861043768935,1207.1479041206767 1635.3597522488562,1187.2873361973907 1635.7981152711436,1186.6420592556824 1648.6026845866581,1188.5159527642536 1650.3389516799944,1188.7518390634214 1679.5313075199956,1141.4383004069678 1680.9987313777674,1138.7728269782965 1706.6107827200321,1110.987006974814 1709.008817777736,1107.887022412091 1716.9605191111332,1080.9884128997219 1717.0825617066585,1080.429840650002 1732.7427529954584,1080.922805793176 1733.2125732977875,1081.2959459472913 1754.6084753066534,1066.3074172767228 1753.883210239932,1064.3445299818995 1775.3860087466892,1074.7324127079337 1777.7222943288507,1074.1287180566578 1771.6845354666002,1083.0049105433864 1770.838101617759,1084.0537006009254 1778.5063961599953,1085.4551167636528 1780.854332586634,1085.50659904466 1779.2875852800207,1090.4789097682224 1781.1887118221493,1091.5887117845123 1783.685196515522,1079.425682680332 1783.6438360178145,1078.3495336368796 1793.7011362132616,1076.8036421206198 1795.7607142399065,1077.193191418366 1818.4449083732907,1122.7469573087874 1818.769093120005,1123.2639687032788 1823.1635003733682,1156.5286718867137 1823.2727270399919,1157.002335527388 1833.0017646934139,1170.3838172342512 1833.9291719110915,1171.1038306938135 1843.5236423111055,1164.1640949134598 1844.6226082133362,1163.572945596883 1900.846088248887,1155.095377632475 1901.3729976889445,1154.920485026145 1904.5533869510982,1111.0589825782808 1904.702226488851,1110.0403889046866 1917.4447550578043,1105.8088007703773 1917.507378346636,1105.7937675293651 1907.1745356799802,1083.9525577319437 1907.071134435595,1083.1566254916252 1930.429329919978,1067.8515610308386 1932.232298097806,1065.7834356366075 1944.5382112710504,1034.7619236067985 1944.71879935998,1034.0350778640131 1968.8156583822565,1034.431083777512 1968.8578926933696,1034.4793882468366 2043.2103779555764,1008.1431989037083 2044.2968192000408,1008.038830341713 2049.260952746612,1016.5143967386102 2049.505911751068,1019.0510319750756 2043.428540017805,1026.2934500147821 2043.0032841955544,1028.406611888262 2067.381802382297,1020.9008520173375 2074.108999964432,1016.8078932417557 2090.421638542204,997.0201446322608 2090.98961720895,996.6423017158522 2126.5803255466744,988.9193947275053 2126.7006205156213,988.8560387706384 2132.0471930310596,978.3418842254323 2132.1832166400272,977.9439526458154 2130.8156987733673,969.4290447497042 2127.3478249243926,970.2800947405049 2133.8673462043516,954.9784630048671 2134.0951202133438,954.545842421765 2150.183771306649,945.0954430874554 2150.603201706661,945.04894227552 2154.014277688926,954.1223384020268 2154.3882697955705,954.8795393016771 2158.5569419377716,952.6503249963862 2159.2070590577787,952.3754325661575 2155.9008406755747,945.0785751470248 2155.824818915571,944.0555549022392 2174.5430655999808,934.317473611969 2175.369984284509,934.0548676140024 2174.0444094577106,895.1469145778101 2173.823334684479,893.6991248238483 2164.3954713599524,888.5540350410738 2163.1584429510403,888.4851776542491 2166.794088960043,884.2629468530649 2166.878848853288,882.2254482626449 2155.3471342934063,880.5399828594527 2153.5983425421873,880.6412205991219 2158.9929747910937,877.1945506084594 2160.3971928177634,877.0490760342218 2161.633638684405,866.0086848568753 2161.6834460444516,865.3998485541088 2180.936757760006,871.8543384933728 2182.4595231289277,871.5953052197001 2183.385473991162,879.9840865004226 2183.466738631134,880.5399828594527 2216.8027172978036,875.4479372045607 2218.2634419200476,875.1802435154677 2213.1338663821807,880.5550317156012 2211.991501084529,880.9303407307598 2213.460090026725,887.7113285656087 2213.6112597333267,890.0666119903326 2274.684403768857,881.3932057542843 2275.2413141333964,881.2381574820611 2278.3337395200506,872.162168125913 2278.0660613689106,871.1433643833734 2271.2468221154995,868.4385403600754 2263.977568995557,866.2836867614533 2283.6275919644395,864.7964832510334 2283.707691519987,864.4412129487027 2267.6213705955306,857.223490269098 2266.2955044977134,857.0588471353403 2267.346410666709,839.7090473876451 2267.8587565510534,834.8368061554502 2269.865614506649,831.757960318937 2270.122224355582,828.6252468304592 2272.8470655999845,832.1967555372394 2274.427502648905,832.1297047660919 2273.9649641244905,818.681272869173 2275.219468800002,815.5967236993602 2266.272494080011,810.7084308037884 2265.150517759961,810.3384743269417 2262.508106239955,798.0611265793559 2262.025178737822,796.9899676662753 2252.1889533156063,795.2481826332514 2251.438347662217,794.942524832848 2246.9798607644625,746.1270946035511 2246.743348622229,743.9477532107267 2282.7931002310943,733.4249130128883 2283.3433113599895,733.3231501826667 2270.7548652088735,728.7223251492251 2269.9043535643723,728.4412162291701 2289.1544612977887,724.6525990861119 2290.096723342198,724.6699405343388 2292.229119146592,707.0964092318318 2292.438251804444,706.7134969446925 2305.9185700977687,704.7172305146232 2306.049350826652,704.6574426448788 2322.9448228977853,687.9645720392 2322.715301262215,686.9540310872835 2357.084127288894,677.5910127591924 2358.083478471148,677.134559270402 2371.0663057066267,699.280118091905 2372.450134755578,701.2034100797609 2386.734652586747,712.7920925955987 2388.2137272888795,713.7030229446827 2392.371039857855,714.0950504087959 2394.5835352177965,713.911587120383 2393.531463964493,697.5872966671595 2393.3508758755634,696.7223962828284 2402.2422178133857,695.6877061706618 2404.8333656177856,695.7675787637127 2405.397849031142,690.5698654641747 2405.887475768919,688.3329116752138 2453.1631072710734,709.7484804161941 2453.9067224177998,709.9830623319722 2446.60572074668,691.0066643976024 2446.4597939200466,689.9080472211936 2444.8470257777954,689.9226528868894 2443.009687608923,689.8815744494204 2443.4591189333005,697.264157507976 2443.4235838578315,699.1276779876207 2441.4012885333505,691.5676096992684 2441.320606435649,689.9034829503507 2439.9245439999504,696.8305660712067 2439.754150399938,698.2737375766155 2430.9752391111106,693.7780578111415 2428.1796189866727,693.3499364390154 2427.8900955022546,684.823390010919 2427.6646516622277,683.8826697089826 2415.091060337727,687.4506299396162 2414.042193066678,686.851790005865 2418.630295608891,686.0174279496423 2421.4859175821766,685.2702421350987 2421.6437865244225,664.8537737777806 2421.7501004800433,664.145315920061 2412.250584462192,664.3986629070132 2411.106762808864,664.5091312303557 2415.3971862755716,663.2140920175589 2417.2141354667256,663.0232819201774 2413.4354753422085,659.3211675962084 2413.5712076799246,658.5209365462069 2421.605630008853,659.6662748840172 2421.960980764474,659.1604825340328 2417.576768000028,658.3095801052987 2417.4925906488206,657.8480645687669 2420.3307363556232,646.3984213989461 2420.330153813353,646.3290305449045 2417.6717223821906,640.9959117250401 2417.788813368883,640.2293963591219 2408.0015214933082,643.3200939187082 2407.200234666583,643.2479629270383 2404.857541120029,616.0414537744946 2404.6332623644266,615.0072915942292 2398.2660758754937,617.0381714173709 2398.0458749155514,617.100722944364 2394.528776248917,606.9379175974173 2394.312944355537,605.6735834269784 2383.9597127110464,600.5225668501225 2382.74365582224,600.4855810034205 2379.3852999111405,594.5065760665457 2378.4838158222847,594.4846579200239 2378.597120284452,579.6117710876861 2378.6824627199676,578.1257962446543 2371.315925048897,586.3323235292919 2371.075917653274,587.3054323836113 2366.8600595911266,577.7431126897573 2366.6625777777517,576.6722344721784 2349.421658168896,571.5981634301716 2347.760539022158,571.789510718605 2348.6395952355815,577.3298319578171 2348.6157110044733,578.5801750057144 2306.1201297066873,589.2265218301909 2305.4429243733175,589.4283562433557 2297.722201031167,576.341608315648 2297.4574355911463,575.7397212826763 2294.7235649421345,552.5653424155316 2293.7999442488654,549.9807687553694 2279.2803706310224,552.5868080863147 2278.0025642666733,552.8211034620763 2280.0886479644105,560.5211964582559 2280.345257813344,561.7154627632699 2253.674435982248,551.9131503800745 2252.470612479956,551.5258533403976 2227.344401351176,552.3972707061912 2226.029894826701,552.3424646857893 2191.34678727109,512.5176587289898 2190.900268657715,511.75251594610745 2170.6441105067497,518.4614699121448 2169.5166000355966,519.2142557589686 2162.2123943822226,513.5893108836608 2160.636035128846,512.4294961460982 2163.3206809600815,509.2419150338392 2164.247505635489,508.3013458101195 2160.649433600018,503.4084013723186 2160.0983486578334,502.709922369977 2160.8658480355516,502.0767667958862 2163.723508906667,499.8269024727633 2161.887918364373,492.3786569862277 2163.222231324413,491.2374593602144 2167.294492728892,496.26864295254927 2167.597705955617,496.65695245587267 2191.6366020266432,489.43930710613495 2193.2476225421997,489.62021944118896 2193.0836369066965,486.1988492125529 2192.9342148266733,483.7912028381252 2201.6076859732857,479.4674230799428 2203.232104960014,478.9159796209424 2201.9420652089175,466.6605060311849 2203.59823274659,466.09669370169286 2194.271731768851,450.3550458101672 2193.8089019733015,449.372182931751 2194.4159109689062,435.87575879733777 2194.450572231086,434.38240017177304 2197.007058773306,431.29146239795955 2196.675300977775,428.02957040962065 2211.2277882311027,424.00811732030706 2215.058877155534,423.00045743229566 2214.6126498132944,414.39654192951275 2214.5704155021813,412.62425831420114 2224.261296640034,411.94742312206654 2226.994876017794,411.7285137853469 2225.770080995513,409.0115517239901 2219.4238660266856,408.3159673947375 2221.079451022204,389.32501222536666 2221.1310060089454,389.21120407112176 2215.9545358222676,386.9213164508692 2214.217686186661,386.25674173788866 2216.0296837688657,379.78045950707747 2216.7264042666648,377.3647735505947 2225.65794161777,380.82214434078196 2226.338350933278,380.97435149009107 2221.4869393066037,333.1669047305477 2221.7065577245085,333.1938783072401 2208.6625635555247,308.66482283279765 2208.306338986731,307.70783616101835 2177.4968459377997,299.54287150962045 2176.5805070222123,299.29641345719574 2179.1300030577695,280.84418470895616 2179.2703957332997,279.7764104003436 2137.0459878400434,290.3437145159696 2135.4710849422263,290.30301750608487 2134.9500009244075,296.4907042369596 2134.8474734933116,298.3919694434153 2116.627591680037,298.3439579012338 2110.3017656888114,299.5543027668609 2091.1425345422467,287.14463184279157 2090.3598890666617,284.14670642936835 2080.5597812621854,286.6503153948579 2080.4852158577414,286.6786666000262 2076.862677048892,279.2541822469211 2075.702252942254,277.34863328182837 2072.1490366577636,278.8412461337284 2068.4257180443965,280.3516830377048 2067.758707199944,290.0227109270054 2068.615335537703,291.3995477496064 2061.0396652088966,296.2186363012879 2059.7735096889082,297.10708545480156 2057.5208189155674,305.27351368329255 2058.706001066719,307.16007026663283 2043.7119468088495,326.9350040939753 2041.5358603377827,326.4403212949983 2037.326992782182,339.45531459565973 2036.5510465422412,341.58844071807107 2001.4138473244384,324.69886426016456 2000.692660053377,323.8658494053525 1993.6514722133288,301.5145258284756 1990.0933043200057,300.3805524400086 1992.4916306489613,295.3214955768781 1993.4743793777889,293.36761812650366 1973.7340623644413,277.7478533523972 1973.0067584000062,276.95581464719726 1969.8051063466119,255.74575117201312 1970.0454050133703,254.6467535875272 1961.3439718399895,244.51129062776454 1962.5579898310825,241.4171837599133 1952.383598648943,239.98468648875132 1950.7495677155675,239.69928360095946 1948.5149357510963,229.10800905531505 1950.0461479822407,228.3578732231981 1941.5672459377674,217.33057647763053 1941.1044161422178,215.83845426380867 1946.3242857244331,216.75147692573955 1947.2918883555103,215.5708592167939 1942.7999052800005,205.0479362854967 1948.7255247643916,198.11562865652377 1959.1684679110767,202.995348607481 1962.3040014222497,200.09781372133875 1958.0831917511532,185.4928971194313 1958.0610551466234,185.12370133394143 1961.5035884089302,174.5590365920798 1961.3559139556019,172.9019130761735 1965.0329204621958,179.93659408268286 1965.7261457066052,182.8517837896361 1970.7995059199166,178.615778788866 1973.3737599999877,177.4624035237939 1972.3400388266891,167.90438726957655 1972.2386764800176,166.84429120080313 1961.2554254222196,160.15051332314033 1960.2333550932817,156.5601289658225 1966.3809231644263,157.17645124992123 1967.9138830222655,157.44594871258596 1964.3475595377386,143.676898439473 1964.262217102223,143.36162579612574 1960.5237523911055,150.08703751891153 1957.4892899555853,150.61186525167432 1940.858000782202,130.1888588150032 1939.6052437333856,130.02778066007886 1945.122209848836,102.53291123331292 1946.1305904355831,100.82718064828077 1936.4723316621967,79.87401848420268 1935.1252027733717,77.18492818175582 1916.0524791466305,63.82732076669345 1915.5392594488803,63.10087251017103 1923.5430983111728,56.191939284384716 1924.091270542238,55.94520393694984 1937.5759579022415,57.7675598571077 1938.71482794662,58.12415571551537 1946.2316615111195,40.05100938229589 1947.362375964527,38.1076442397316 1933.6001072356012,27.06606890569674 1932.7233811910264,26.7716863292153 1941.3013154133223,7.135051770776045 1941.743173688883,6.081951451080386 1936.8530230044853,5.60713889071485 1936.4362140444573,6.097976929100696 1935.3625887288945,17.041727570758667 1934.03060593782,17.627313882985618 1919.3750087111257,9.175762447586749 1918.8877121421974,8.653796550410334 1880.6857582933735,31.688234869216103 1878.7231735466048,32.95546755724354 1847.832998399972,65.34932952577947 1846.8636481422,66.2808393787709 1834.9311445333296,67.23294358473504 1830.6474203021498,67.51399662147742 1829.6696231822716,90.5073839998222 1830.120510862209,91.39072806102922 1809.468515271088,128.04403843765613 1809.1172423111275,129.50153017038247 1799.2370349511039,113.6516384705319 1800.8008695467142,111.45127877494087 1784.8004735999275,105.89810844644671 1782.735070151044,105.0331300724647 1769.2751408355543,111.05404007260222 1768.7004629332805,112.12127419636818 1768.2329728000332,132.77616024651797 1767.0311881955713,133.9430441192235 1764.554218666628,130.99562061042525 1762.6044498488773,128.46549937943928 1764.1548859733157,120.322142933961 1764.7362631111173,117.75803193985485 1759.171528533334,127.55118893348845 1756.8474763378035,127.347550695471 1742.911610026611,117.06700271880254 1741.0699027910596,115.58562999172136 1738.412345173303,120.08188752742717 1737.73164458666,120.9976024190546 1728.4866995200282,106.18002657673787 1727.9332844088785,105.11139016278321 1719.539433528902,110.86503107909812 1713.8704238933278,114.79208232025849 1710.0276841244195,107.66741322784219 1709.535144675523,106.76033741579158 1709.4891238400014,113.10155064443825 1709.117753173341,114.24886202270864 1700.9161412266549,118.12734267831547 1700.0015499377623,118.52822945767548 1678.8115766043775,112.62285411026096 1674.910000071046,112.25078809942352 1673.5159765332937,124.40918975224486 1673.9322029511677,126.35223744885297 1667.172674275469,128.29572530946461 1668.9695257600397,132.4663629612769 1637.9788620800246,149.43683504889486 1637.271947093308,149.86740565742366 1638.0111931733554,179.39765483589144 1639.4395867022686,179.3436693365802 1634.6898286932847,188.44506827456644 1632.816664177808,194.3209264743491 1637.544868124416,195.9842905580299 1640.913418524433,197.1183535156306 1636.325607253355,214.08238431817153 1630.3580447288696,219.92506982467603 1639.7492078933865,225.53432034520665 1645.4811320888111,219.14059565594653 1666.2464321422158,240.17724175011972 1666.6964460088639,240.98359363235068 1699.462115840055,255.16309563611867 1700.5118569243932,259.6610276387655 1700.8826450488996,289.7954474145663 1701.310231039999,290.59064002981177 1695.3053858133499,303.71112512476975 1695.7629727289313,304.28450520307524 1671.104834275553,321.0371411238448 1669.1766195199452,321.7426071460941 1617.8386298310943,318.0963791895774 1616.703255039989,317.24367877672194 1604.8572589510586,323.111469850468 1601.7558041600278,323.3222391906893 1601.330257066642,333.4444123840076 1601.2955958044622,336.191124637553 1587.6480878933799,342.36332809430314 1586.4017388088396,342.96494965523016 1479.6534980266588,361.0676736815949 1473.6620512710651,361.9362006750307 1436.86315036437,377.7880347590544 1435.3395111822756,377.8360286882962 1435.32407381339,377.8296294983593 1429.8627404799918,375.46465877472656 1427.636264106608,359.75893405865645 1425.8041688177036,346.73601815401344 1354.5088651378173,330.78224440285703 1342.3925694577629,329.03807916265214 1342.9113233066164,322.9445915938704 1342.8454960355302,321.3750152865541 1329.9823812267277,321.6749410298071 1322.03359260445,321.6566528865951 1313.5637199644698,313.40579952747794 1313.3158482488943,312.19141708500683 1265.812442737748,312.6875041090534 1257.9976388266077,311.89330710074864 1230.4186336711282,301.8954115250963 1228.2643925333396,301.25983958056895 1226.1238411377417,332.6077737324522 1225.553823573282,339.96825425786665 1208.4101885155542,358.61840879608644 1208.4026154666208,359.3744931483525 1186.35193600005,355.8902662823093 1164.4643683555769,349.95982049411396 1156.568299804465,391.5545430406346 1156.3609147733077,393.2008526206482 1114.7155538488878,386.8088782314444 1110.4067803021753,386.088540936762 1117.4578713600058,367.0933507824666 1118.946849280037,362.2922957353876 1071.4227635200368,349.9424490276142 1075.3453115733573,340.4679349529324 1048.0779665067093,337.2883368366747 1041.1885309155332,335.35586812347174 1042.411287039984,327.6299355069641 1043.1179107555654,325.1126273078262 1018.8451239821734,312.00349810899934 1018.696866986691,311.94954567210516 1019.5657287110807,328.9951034853584 1019.8325330488151,330.3310029999702 1011.9504455111455,329.916792738426 1010.3155407643644,330.78087284992216 1009.2116232533008,339.63406643411145 1005.0525630577467,338.42120259825606 998.1966236444423,366.64629902289016 997.7897179021966,367.7127307849587 983.5497645511059,385.68540696351556 983.3968472178094,386.0487760544638 966.933038933319,385.31746657093754 965.9893205333501,385.52131933771307 972.5959318755195,402.915286901698 972.8196280889679,403.26308801886626 963.3032183466712,407.8891096765292 962.329207751085,409.49736258160556 950.3911699911114,440.53901099349605 949.5426972444402,445.68195223243674 958.750068337773,448.22344772255747 960.4388582400279,448.8165504329954 958.7238539378159,455.65767631080234 957.5651774577564,459.89329048088985 980.2345167644089,468.26055539544905 988.5540935110766,471.7713019034709 983.566367004416,481.5301838039304 981.8871890488081,484.7017257614061 1002.5380195556208,501.19464003585745 1004.5291488710791,501.31980997603387 997.9292367644375,528.9381135454751 997.9027310933452,529.0902166477754 1016.5082558578579,544.0597454973613 1015.760854186723,546.0981413301779 1001.70061511104,545.3550402533147 1001.0196232533781,544.9334765547537 1006.6501851022476,536.2590390376863 994.5507831466384,525.8791284865583 989.4960642844671,520.4407246703049 977.7805576532846,522.502181726275 974.0977257244522,520.6937829409726 971.0749141332926,526.3299626551452 969.8166229333729,528.9755683733965 954.1057504711207,534.6878105923533 951.3401312711649,542.178905264067 944.0548582399497,541.696589062456 941.7838173866039,541.840005166363 934.1487277511042,550.4315527743893 933.6302651732694,551.4514081932721 933.8825059555238,560.6997659495682 932.6084861154668,560.6942855581292 921.670964622288,550.0766803273582 919.8109073067317,548.2333438251517 929.5673244444188,535.2683442899724 930.0613202488748,534.5946327336715 912.4053393066861,531.1095693357638 907.3462513778359,529.312204767426 892.1952019911259,507.45122120605083 891.3062425600365,506.5375962036778 879.7480223289458,507.72439433349064 875.0961314133601,506.3781682459521 871.9387525687926,517.6383357920568 869.1367244799621,516.5685308357351 871.0500844088383,500.044352308556 871.0308605155442,499.94476396549726 868.2285411555786,514.2361367286649 867.8073631288717,515.9500331606832 865.0053350399248,514.5568081476376 861.882908728905,513.808574098337 863.2131438932847,506.87426746543497 862.3859339378541,506.6481450339197 861.7122238577576,508.53705951047596 860.6234524444444,513.5267294670339 854.4080182043836,512.9584711053758 854.1677195377415,513.1000790359103 858.6323231288698,516.3885545895319 860.8890916977543,516.8745814695139 859.4542902044486,522.4715774774086 859.2209820444696,523.3225566981127 820.9520358400187,528.9947525510215 820.668920319993,529.4629373116768 829.6770619733725,534.5521545787924 830.6563154489268,534.95957911812 827.0940697599435,543.8026039035176 826.8543536355719,544.9078995325253 814.8539838577854,551.4244617840159 813.5994791822741,556.1761123784236 822.0853717332939,558.6966736569302 823.6430896356469,559.0250432247412 822.8764640711015,561.7204864317318 822.178578488878,564.0039600320742 830.83690353774,570.0902130156173 832.0736406755168,570.9999166415073 832.9663866311312,564.5305256298743 835.0976173511008,565.0557198776514 836.7666008177912,574.7167834914289 835.7031699910294,576.3836216121563 811.2541641956195,574.8268408695585 805.3975759644527,572.7923686834401 781.4428572444012,599.7440362747875 781.0225530311,601.1129696972785 756.9484131555073,585.9998855283484 754.8623294577701,584.9715163951623 752.1604986310704,593.6385244432022 751.9694247822044,595.1746218444314 755.5124465777772,601.4166178671294 755.1201043911278,601.840354752203 746.5514908444602,595.3084134033998 746.2101211021654,595.0627482931013 732.9229155555367,593.6622691945522 731.8833689599996,593.7120418380364 731.6885085867252,598.5910752989003 731.3346141866641,599.518010745116 718.6442231466062,581.4288112953072 718.1350812443998,581.3009476926527 701.3409715199377,593.1339478614973 700.4936638578074,593.2426259937347 683.1598287645029,584.8655740046524 682.4791281777434,584.5769720575772 644.6957309156423,588.6228440246196 643.6212317866739,588.9333592934418 643.1289836089127,596.0166396996938 641.354560000007,596.8755493361969 648.542548479978,606.678567599738 648.7717788444133,607.0041248534108 641.8526336000068,614.0402427591616 640.148115057731,615.2264522034093 661.6916915200418,660.4906956249033 661.7779077688465,660.7472423031577 700.5865793421399,677.8123923550011 700.9087251910241,679.7723907082691 695.3815645866562,708.0210551840137 695.0722346666735,709.5540601923713 702.617904071114,716.8351154734264 702.4536271644756,717.0747097893618 667.256717368844,704.8614515677909 666.2055199288297,704.935387640202 663.5473797689192,729.3105535118957 664.2854607644258,733.7174238419975 667.3653614933137,740.2200977719622 667.8951836444903,743.5649060094729 702.4253738666885,746.2142495513544 703.1034530133475,746.2206378707197 703.5910408532945,756.8897811949137 703.8983318755636,757.9999223527848 681.4634658133145,775.782395194401 681.5400701155886,775.9936371324584 647.4989240888972,784.4924185244017 645.579156195512,785.084145408473 632.6956524088746,794.781027850986 628.6379545599921,796.603564493882 628.3903741155518,804.0696460554027 629.8781869510422,805.874313492619 623.7303276088787,812.2863268649089 622.7743758222787,813.3875172556145 629.8234279821627,817.6991666625836 630.1059609600343,818.0061608595424 627.4929678222397,822.32045532536 624.8642460444244,827.0903466648306 637.6347366400296,833.1190436319448 638.4715585422236,833.7252338190447 617.4248905954883,827.2016443972825 616.9040978489211,828.752964631014 622.9383614577819,838.9487076447112 622.2556219733087,840.8730416378821 628.6595086222515,841.98275290936 632.3274857244687,842.9925715485006 644.3948478577659,860.0447518039146 645.3974030222744,862.6247191120638 645.2590492444579,866.8847676537698 645.4786676622462,868.724028352357 640.183067591046,869.3912296550698 635.8288557510823,868.7395340792718 634.5158055821666,876.7535662538721 633.805686613312,880.3644127933076 650.8118417067453,886.4285661574104 653.5646449777996,886.2187998090521 652.3678119822871,892.9977983126882 652.1918842310552,896.2052769734873 624.4675347910961,901.3415216058493 619.7425348267425,901.0925551662804 624.3294722844148,908.6275392621174 624.5881210311782,909.2540368947084 553.9143899021437,915.6684660448227 547.905758151086,915.933374060085 560.0605016177287,980.1756419703597 560.1350670221727,980.4710108960862 538.5408093866426,985.9949738677242 533.9771736176917,986.7333756226581 537.9850641066441,1018.119052119262 538.0852613688912,1018.4531069727964 545.5150048711803,1022.7684296471416 546.2047348622,1026.6771656473284 540.660971804522,1036.473988879472 540.0589144177502,1037.4829025735962 518.7996185600059,1038.0051297706668 516.5341118577635,1039.3681094929925 506.48613233771175,1050.5072200100985 504.5692771555623,1052.4898260477348 505.91582350223325,1062.471842406725 506.40049863106105,1065.8021167428815 496.13027925335336,1076.49564709299 494.52100636449177,1078.2297080745338 458.8216539021814,1083.1757607028703 456.90042965335306,1083.7142795253894 439.7136864711065,1046.3824665299035 439.77980501332786,1042.475908206019 431.80392817780375,1042.2002181837452 431.2650766222505,1042.1906487716478 431.01400092442054,1036.4106468062964 430.8415684265783,1033.0831113246386 419.2853870933177,1034.4073872414301 417.27911167999264,1034.8662793160765 416.98114133335184,1026.10933918535 416.9173529599793,1024.4363843663596 429.0202501688618,1019.7724591100123 430.64175644447096,1019.090680907073 427.36320881778374,1009.0610931765987 426.5164836978074,1008.2698995357496 415.85974755557254,999.5834427748923 415.72692792885937,999.2634879396646 379.89038677327335,1009.8217483980116 378.35160149331205,1010.94654703798 368.2028421689756,1008.1805710401968 363.19327032892033,1008.8104273007484 366.36084366217256,1012.009813649056 369.08393727999646,1014.750674919982 351.7268004977377,1016.898585403862 349.79858574224636,1016.9045100160874 312.9064780799672,1042.6303856026498 308.90703445335384,1045.349898870627 292.8501319111092,1048.0160641991533 291.08619406225625,1047.913537510496 318.76714410667773,1055.0228511675377 316.91640746663325,1061.9396498989663 308.3204144355841,1084.3821868008235 308.26361656887457,1084.5457463182975 279.1455348622985,1081.7738742185757 277.85462129779626,1081.6859427853487 265.33054606220685,1108.9124593847082 264.694701226661,1110.0258115007891 246.02276664890815,1122.2099018777953 242.69382911990397,1121.9794094871613 247.8164141511079,1163.4855027262238 247.79194737784564,1163.6658536083996 255.8077283555176,1161.234292111185 256.052978631109,1161.0744338644436 255.10197845334187,1171.0036392105976 255.1363484445028,1171.125690647692 190.30959359998815,1168.636374258087 188.44429340446368,1168.8030582449283 183.44899384886958,1187.8825193683733 182.77848775114398,1188.367043713748 157.1833301333245,1188.8342625940568 156.29174926225096,1188.4157693164307 151.60111928894185,1214.5702766350587 151.38237468444277,1215.9968037943472 193.3626973866485,1244.425676656072 195.90520291554276,1245.2988673353684 192.38810424890835,1261.4103807715583 192.0365400178125,1263.803947728884 145.4302495289594,1264.5181888249354 143.25387178664096,1264.7990592816495 120.04713727999479,1253.7150982021121 119.09293311997317,1253.5826225993806 118.19581809779629,1259.2594256146112 117.32171349332202,1260.7721524908557 91.64063089783303,1246.2717560473247 89.27725710219238,1243.9012142472784 90.2058294044109,1247.7335848451476 91.03769969777204,1248.2220729349065 49.73603868437931,1266.9112663128763 48.064433777704835,1267.3874204912572 37.235265137744136,1266.5402659186511 36.01163520000409,1266.193391357141 45.31832974217832,1263.1734652681625 45.372797440038994,1262.9281001190539 36.54844785784371,1260.3446932710358 36.35300494229887,1260.281871717365 25.912974506733008,1265.4495666105067 25.86520604440011,1266.3650078432984 5.580212053377181,1264.3543096224894 5.445353528833948,1264.3793467308278 5,1280.3829310075962" stroke="red" stroke-width="3.86697482164867" fill="none" stroke-linejoin="round" vector-effect="non-scaling-stroke"></polygon></svg>