<svg viewBox="0 0 30596.844595253307 20432.461369932586" width="1000" xmlns="http://www.w3.org/2000/svg">
  <title>Sesel</title>
  <desc>Geojson of Sesel</desc>
  <metadata>
    <collboard>
      <support-module name="@collboard/map-svg-geojson" version="0.11.0"></support-module>
    </collboard>
  </metadata>
  <polygon points="8.052549999993062,17278.337872904463 27.742477111140033,17441.662415861007 46.15488912895671,17523.963384156785 79.0251252889575,17622.926408481173 143.72197321787826,17774.211808696593 191.2565447378147,17857.652421836945 251.56248066676199,17932.273166549596 1016.7013973600406,18735.334898595087 1089.399171440018,18800.104752802377 1171.6698618577502,18852.000044351415 1261.2852446133911,18889.613170294528 1355.817283724522,18911.92340534026 1462.4860074934259,18920.175282900775 1501.3374959199864,18919.670184584073 1604.7343712977308,18909.110496454494 1704.6825967200275,18880.455193303846 1798.0807173956127,18834.59593737693 1894.142803653347,18762.301730995852 1949.798305022152,18706.312794462516 1997.5536600444175,18643.37181459958 2035.9959125599999,18581.497956553096 2087.3417665689194,18471.648359325685 2100.2424553511373,18435.13141630494 2121.6695233689097,18358.584793772287 2132.7419033866317,18279.84891947647 2137.0465991378005,18189.15814354745 2125.3721617333067,17305.960854711913 2119.1040074221964,17190.482555843744 2090.700996293308,17078.433955628512 2034.5957723288739,16962.964413722482 1966.2953182133788,16870.595593171165 1881.561056737759,16793.251515307435 1783.5853192800132,16733.84154233939 1665.7329499289335,16677.826130069996 1509.0084119022067,16625.85177018642 1397.2363269955094,16601.066088471765 1233.7496388533327,16581.27921181041 1153.2839555111423,16577.117421132483 856.6030660533288,16582.34311756745 615.6732148888696,16596.538662328705 484.2913024266891,16622.9425806489 369.48795906672603,16669.573497164267 349.2262667644245,16680.419162163715 272.1702030489396,16729.726946857263 203.60061442662845,16790.4265515109 145.16434776000096,16861.063280123606 63.18143319999217,16993.89969281011 27.187023102276726,17093.881958771584 9.50162377775996,17198.736393566098 8.052549999993062,17278.337872904463" stroke="#009edd" stroke-width="5.611584305423362px" fill="none" stroke-linejoin="round" vector-effect="non-scaling-stroke"></polygon>
  <polygon points="3799.890653324401,18220.531113280653 3799.94890754667,18245.169252691296 3806.89426719115,18334.59106934545 3827.151299155521,18421.94548702656 3860.2600863555854,18505.23550035231 3898.0941647911386,18577.409513829247 4541.937887600012,19647.48716422377 4604.238448097807,19726.6801052418 4690.7812119021255,19813.40645455147 4768.604483724426,19867.8998241004 4885.914214995544,19923.078438988392 5000.225310177746,19949.850696830865 5117.537371617829,19953.32598962271 5222.887802337733,19938.425159818813 5327.943757964502,19906.224572370964 5418.019057804457,19861.788506444864 5499.3099122044805,19802.6447352854 5596.730486924382,19696.838538554934 5658.573751777847,19602.197135437018 5701.438664844463,19497.4730774122 5729.8763372355315,19368.442085692048 5731.772803439962,19258.56235696908 5728.511149537837,19215.02022442766 5709.091522017814,19102.301782922208 5420.589816631138,18049.970782256423 5396.8019962578255,17982.29562832936 5383.753924293298,17953.452003990737 5348.659541928879,17890.965267689287 5307.433902675606,17837.749080964684 5285.503518177749,17809.437491036457 5195.686575813306,17712.28208045868 5127.097472026682,17648.939987701684 5049.460031173396,17597.257262685074 4908.4845221244905,17518.745016127214 4761.859227333422,17460.754457490606 4662.666267902212,17441.40876720412 4558.452377057838,17439.61137743105 4445.378310284548,17458.37679131035 4338.042866942211,17498.813525057485 4240.503162337787,17559.397969124228 4049.2787262844795,17705.77644164473 3972.1108144622704,17776.520508834365 3908.5411857333675,17859.861466862 3860.566503564449,17953.19054506332 3843.900553128886,17994.137325547956 3810.862836079992,18105.15436575745 3799.890653324401,18220.531113280653" stroke="#009edd" stroke-width="4.936384421927692px" fill="none" stroke-linejoin="round" vector-effect="non-scaling-stroke"></polygon>
  <polygon points="13173.426963937789,17028.80290332189 13178.667805039993,17169.79083491568 13207.278201200039,17284.919893325627 13314.352374355512,17584.51359928734 13421.928698906646,17933.33788813578 13442.723708613397,17990.29742243371 13547.465965253388,18237.360149277578 14081.788255031192,19735.50347661096 14107.392150782252,19833.591708542284 14142.374976311083,19931.793533698394 14200.7267743556,20051.385271476553 14252.40176471995,20132.75534403007 14326.906002231146,20227.334737520054 14418.850971333304,20304.8396866213 14536.472071422235,20374.06453833109 14634.205762586644,20408.06772237571 14736.333569733397,20424.408819932578 14839.728988755582,20422.58601933936 14941.225320133351,20402.655408757477 15037.714992382302,20365.228590027516 15378.606467439997,20164.460378212243 15456.415175706701,20093.60465189509 15576.908791493363,19921.262249426538 15620.198377840075,19839.75227597714 15669.776798746636,19727.299878446123 15713.117940079974,19592.172634986782 15730.106910177827,19490.954044691374 15729.551456168963,19388.313669331226 15541.405173217849,17162.78180542923 15527.06677023109,17073.58388424231 15433.833800275548,16797.40590513448 15394.407051404443,16716.5160301055 15343.270330053376,16642.572685749125 15219.764679706626,16490.106851129647 15159.470685893408,16373.601310121798 15101.127043439978,16301.46482735264 15014.50476262215,16225.724391536642 14928.597843653377,16170.832234920323 14834.594461608882,16131.636239907442 14735.296644577727,16109.302201629005 14633.663124506682,16104.494953394023 14532.72282967993,16117.357288452185 14435.483716862247,16147.50675018932 13760.125916186691,16423.13509304085 13560.184609591117,16504.652216968912 13466.643183528882,16550.275949914212 13431.823761093401,16573.0500582362 13347.013769128913,16644.66993720617 13276.99889325336,16730.99490387374 13224.251442657755,16828.984001104924 13188.87598367114,16932.089088117675 13173.426963937789,17028.80290332189" stroke="#009edd" stroke-width="4.925107978728539px" fill="none" stroke-linejoin="round" vector-effect="non-scaling-stroke"></polygon>
  <polygon points="18998.173437182297,10323.640216991043 19017.77161389342,10433.619592748786 19014.117326533393,10567.231995788141 19017.17945972443,10645.82043763934 19030.163743315585,10768.744122910866 19049.5090967023,10868.716369456 19085.652055066632,10963.854888996313 19137.518119279965,11051.321496969875 19203.562969911116,11128.506111736846 19281.818196791195,11193.103945024865 19369.949844506657,11243.18686173574 19465.32948255117,11277.259180700028 19591.097726888926,11302.337552557787 19685.197519671143,11303.604861813801 19778.283688986645,11289.693897450663 19867.954413253436,11260.964327735215 19967.84846224889,11217.974829206214 20047.296735600074,11175.076315193292 20119.264293004497,11120.420227303373 20182.048363546695,11055.303289392003 20234.164920915588,10981.26799768649 20256.910864524398,10943.025760399498 20302.696935564483,10847.474764963583 20330.738770515512,10745.222159216733 20340.134011475573,10639.576004544826 20340.034396755596,10503.341741176526 20334.606559599953,10423.668593768583 20318.537423671078,10345.468151202047 20303.8920209333,10298.627228525904 20307.02726317334,10272.805010640033 20301.628844400024,10170.171006854478 20278.612309928838,10070.046445522079 20238.68020568005,9975.47015481288 20183.04771472895,9889.312956788897 20113.4056658755,9814.188395413774 20031.8695612,9752.374965498893 19782.33031853332,9637.730902747804 19679.807839031186,9612.109601482138 19574.380512737756,9605.439838163875 19469.47514427555,9617.938410266506 19368.50222708445,9649.201019062632 19274.744969128835,9698.213631420833 19191.252978942328,9763.38455761582 19120.743815991067,9842.59756266253 19065.512987902242,9933.278419587848 19027.36142395562,10032.479347987653 19007.53430815108,10136.974342934875 18998.173437182297,10323.640216991043" stroke="#009edd" stroke-width="5.914593716087px" fill="none" stroke-linejoin="round" vector-effect="non-scaling-stroke"></polygon>
  <polygon points="19325.196912097716,7570.045941573306 19338.727911564492,7671.754799632676 19369.60264934224,7769.558294772141 19416.885853893327,7860.48135106251 19479.141558640025,7941.758627724455 19554.478540257755,8010.9164720781555 19640.606242728856,8065.8502328701725 19734.90555622228,8104.887818373361 19834.5080428356,8126.841807675053 19936.383317928965,8131.044221749384 19952.965091013437,8128.8004517714435 19973.880104417767,8197.163809340534 20017.89175184883,8285.18189349465 20075.873635582248,8364.580307134864 20146.202792986733,8433.132241954998 20226.908192453295,8488.915213345404 20315.728405075584,8530.364334250655 20415.863335280068,8557.375235794432 20534.215234586707,8567.044361268374 20652.064399955532,8552.449390549416 20764.244846960035,8516.44241071082 20858.82057673784,8464.294314068946 20922.364282337803,8411.955474890856 20997.434750888933,8394.613744506001 21091.333275333367,8354.632599631994 21176.901154728926,8298.843772149616 21251.538503137737,8228.946086568612 21312.978066231095,8147.067185636697 21368.76201816005,8044.161130279157 21397.846021146717,7957.945742066338 21415.298403582157,7847.932325171045 21415.815701075568,7741.893715702201 21397.42629947557,7637.489036941639 21360.730217271106,7538.105280307907 21306.920792204415,7446.965472565935 21237.74506840002,7367.024601449695 21155.44845485335,7300.874105142982 21062.700742568908,7250.658696702769 21009.073361946706,7231.715681456932 21032.172617413307,7178.330214987247 21107.26667892441,7211.413713204063 21207.55598281775,7235.666749337892 21310.517990426713,7241.787394764222 21412.94172902216,7229.585957117466 21511.633993413387,7199.444159671402 21626.08402491556,7143.394239537738 21707.487601235596,7081.765917063545 21777.016928168916,7006.846483378642 21832.561746515537,6920.915830893064 21868.67208251552,6835.491559264454 21901.67164304896,6870.103798632481 21983.875923653337,6930.610806508543 22075.27213798216,6975.822774558881 22173.080685822264,7004.364494568756 22274.325941502204,7015.368026727549 22375.928004293324,7008.4997781743 22474.796487706684,6983.970514616434 22508.007802337845,6972.558419226756 22603.37520699561,6929.866185828665 22762.072232986655,6837.525899651315 22848.330133644486,6759.492834560078 22913.3502925066,6681.18709800599 22963.933307475614,6592.7470442283375 22998.55786953782,6496.839328144299 23016.183849555528,6396.3554974053695 23016.28346427562,6294.323729787226 22998.85729624002,6193.816845736437 22964.432254888903,6097.861872086738 22914.047595546668,6009.347056326311 22849.22171451556,5930.936563031486 22750.150506408856,5849.483994696377 22657.291237288824,5795.4515619096055 22556.181131404446,5759.428139645577 22450.23009965333,5742.628680057911 22328.266147297778,5747.4069398943975 22220.161456951144,5771.122576018184 22118.436186479958,5814.942442598491 22028.034662995575,5874.7340981892485 22002.786409271037,5898.938994317519 22025.31156937775,5850.8212858439365 22051.85976607105,5753.957244315039 22061.62987295116,5653.9625765206 22054.33935703998,5553.759428561054 22030.204050231114,5456.274844530242 21989.931158782187,5364.356543377944 21877.324873413396,5208.094597688381 21796.845791599917,5125.297828272538 21846.28265474664,5076.944831790141 21924.605165253364,4980.175407526054 21980.84553901336,4868.939921888144 21998.1924813067,4823.1541262452665 22032.344310355576,4683.817287269136 22035.38576329776,4658.305465613346 22038.659941857768,4555.979462255462 22024.2370702489,4454.640585607936 22012.680306373368,4419.154777106334 22085.1899193156,4278.239095519151 22113.807014711056,4164.581019181263 22121.734540542326,4111.143071383442 22128.071434835525,4015.855216769589 22118.982611084444,3920.797956505179 22113.26321154667,3888.673582258605 22086.533844222286,3789.502188528859 22043.04357208006,3696.5426993268484 21984.124960453337,3612.640375084913 21911.582725146756,3540.3621734586486 21827.637517111114,3481.920076353912 21716.327096915542,3428.3975806212693 21617.98552294224,3402.51227279866 21516.672109822248,3394.205862796254 21415.461806675623,3403.731511553022 21317.427814995608,3430.8016045429686 21225.547216808976,3474.5961915572116 21134.094204613328,3539.612811484112 21067.939836044417,3606.834080848581 21013.366698124533,3683.8829749742 20971.793863706727,3768.7601638713095 20909.05523145778,3946.401424512238 20891.342743920017,4044.3210225879156 20890.310770373413,4143.850825613568 20905.991641911067,4242.131182337733 20910.947037324513,4256.7451852720405 20834.503225484485,4339.108722646226 20785.015681164426,4415.36360482985 20747.83026349332,4498.407386677078 20723.843504951074,4586.244044878142 20712.111104595562,4694.536508565157 20719.344240097766,4796.696947770979 20744.094128951052,4896.044778673531 20785.6104567734,4989.559403102816 20842.63289346671,5074.3963088612945 20878.651187795534,5111.831552576245 20826.930759137816,5156.880991371669 20761.4722372533,5238.586045394273 20711.491570942308,5330.7155483431125 20671.29062345784,5446.093549904617 20656.217634728848,5547.426081196609 20658.854803368886,5649.859577068215 20679.125525075564,5750.280924633931 20695.67263689774,5792.595059673156 20601.182249555568,5892.662632148102 20540.43416408004,5997.884254292672 20502.20046168004,6100.148179795098 20481.82896016896,6227.5742884328065 20482.48694160892,6330.083525795693 20487.221844791056,6356.128113985847 20463.321593768866,6354.6285590777115 20362.12439782216,6366.112496624206 20264.440805288934,6395.107643442083 20173.236538622266,6440.735266870441 20091.2824599022,6501.6123789291305 20021.068063315557,6575.892528075696 19964.728074835584,6661.322066604596 19923.976916222222,6755.307823016978 19900.055402408907,6854.99562362532 19893.948612293316,6953.253821100661 19835.799538942258,6955.897952155414 19736.358999066724,6978.244105871505 19642.2784301778,7017.62982596943 19564.052621679934,7066.5099418579775 19496.352768595534,7125.172894039162 19438.316999706643,7193.535999189451 19390.054250408866,7272.429339754599 19351.2595598489,7367.303141220444 19329.418013040064,7467.523520569521 19325.196912097716,7570.045941573306" stroke="#009edd" stroke-width="5.3526916866828405px" fill="none" stroke-linejoin="round" vector-effect="non-scaling-stroke"></polygon>
  <polygon points="26230.63086025775,629.699691135058 26238.6134363288,728.9434535631153 26240.687286640023,740.6194440260006 26268.621351279988,839.8675333733845 26273.197511706705,851.5440354759048 26319.109703137743,942.0387674517406 26326.502455208887,953.715745385125 26390.644140399963,1035.4561246318917 26399.04935085328,1044.2141820862598 26473.5923274222,1108.4408854435605 26486.022904631187,1117.199201946234 26573.87143682674,1166.8302521520236 26587.112038995576,1172.6692653039645 26686.10547771558,1204.7840869094653 26699.630360488867,1207.703637089202 26808.663040595566,1219.381872760685 26824.62935782221,1219.381872760685 26918.25903903108,1210.623190763261 26933.661746657774,1207.703637089202 27024.433184453374,1181.4278111611202 27039.655595262273,1175.5887771049456 27117.977814497746,1137.6353951565397 27132.574866231153,1128.877005818853 27224.938391920034,1058.8110134043673 27234.222949857794,1050.0529042748676 27293.90498306669,982.9084294845525 27309.25409680893,962.4735147031897 27366.328962302156,866.1397392707586 27374.233768986625,848.6249048751488 27405.896103848907,755.2145075045701 27408.654150000046,743.5384500164946 27422.825654640066,626.7808151612699 27422.911288346717,609.2676289197698 27415.478049591155,521.7034814802173 27412.45494672886,504.1910073904728 27386.682696275617,410.793133983243 27382.24809360897,399.1186343728041 27332.37636269335,296.96897178920335 27325.267891226657,285.2949760928459 27260.95348226672,200.66004016177612 27249.975765360025,188.98646659599035 27176.590882728895,124.78272032245877 27164.386914444476,116.02778278788901 27073.630914017762,63.49875378291472 27060.819936737855,57.66225795735954 26967.298317111068,25.56175531129702 26955.116776702198,22.643546603241703 26832.588632204424,8.052549999993062 26815.686169626628,8.052549999993062 26722.078916293307,16.80713857730734 26706.679703920003,19.72534102559439 26615.928072559967,45.98930399198434 26601.157423244527,51.82577469604439 26509.406440702238,98.51799298738479 26495.711455600074,107.27287368426914 26402.938985271117,183.1496989049192 26391.653103528864,194.82324701242032 26337.30890470228,261.94713876847527 26329.416622675577,273.6210317717341 26274.279583884374,378.68838498726836 26267.519763937773,396.20001758725266 26241.747804755665,489.5973691403342 26238.724410622235,507.1097448714718 26230.63086025775,629.699691135058" stroke="#009edd" stroke-width="5.1883802808813195px" fill="none" stroke-linejoin="round" vector-effect="non-scaling-stroke"></polygon>
  <polygon points="26241.32021876445,2856.8555938251957 26254.688980222185,2963.5415283660113 26286.24907892439,3072.1914356378547 26328.06978505777,3157.2857748440874 26406.19714391997,3267.1497081694833 26448.348442764458,3320.365830915951 26841.57026818671,3761.7021021237306 27182.402615208848,4095.3034881635976 27293.835660542216,4197.434976636869 27409.155136311165,4279.498927480046 27520.172829040064,4335.663303268113 27633.056113235507,4368.121072010923 27750.111856097792,4377.177452296455 27835.036317608872,4371.921506865736 27932.409123866673,4356.230654214014 28025.767340399994,4324.258728599962 28112.444380186702,4276.91962050632 28189.965312595567,4215.565468404995 28686.796932577825,3748.809300138004 28736.10214118226,3765.609506560577 28836.669608986675,3781.097144066909 28938.382354800095,3778.764315720735 29038.147079422226,3758.6809424779785 29192.20386534228,3714.145674284169 29297.84148937775,3661.9512941726425 29381.80446495113,3601.5761050648 29453.889113342244,3527.258315754094 29511.841869964468,3441.3236992500897 29553.85190232002,3346.4608040763706 29578.60790786668,3245.6365871074086 29585.33801816005,3142.003912643384 29573.83484816886,3038.802982691297 29544.46073915562,2939.2587545737333 29501.93457439108,2852.3410366596363 29425.158422213368,2748.205889933597 29419.88845399997,2743.239019271772 29473.900021217734,2617.8086547258717 29499.453235795576,2488.994341173995 29500.457538586663,2369.151866932254 29479.39048166221,2258.551932272938 29459.934736524447,2201.4739425261214 29410.845651084528,2102.4209281602816 29344.166120702255,2014.406358666689 29153.447913840035,1830.770313647081 29058.43819010674,1757.3929361429473 28950.549040382233,1705.0981212324405 28373.683692115563,1495.7030466806318 28289.173126853275,1472.090216552926 28345.12980255109,1458.653879272024 28436.259503813315,1419.3888598805934 28519.461387973366,1365.1461627981334 28589.268587546743,1306.4959816926566 28617.321199528844,1277.4261631493864 28678.747364151146,1195.930864299502 28708.69760742222,1141.9118360784778 28725.178891973308,1104.9369836868427 28748.93642015112,1034.0463722116256 28767.783408666583,940.693583102402 28770.401062142308,822.8065095864877 28756.03498840003,716.313011179649 28722.617745093274,614.2480750651739 28671.272764897876,520.0345376067271 28603.724372791097,436.83095783760655 28517.06160528885,363.7787810595182 28415.14496969778,306.36628383686184 28303.907949822227,270.562466845935 28187.816314337746,257.8026272379502 28067.536200275616,266.741308571276 27919.52095974222,313.16468305312446 27833.966478817834,358.12900156047544 27756.95497958231,416.6902353594487 27690.597886320058,487.2431310870161 27636.714478391194,567.8543792956916 27596.7835392266,656.3144472603162 27571.900248204445,750.1981747320096 27562.74909243555,846.9321025900717 27569.582312702172,943.8638755009451 27600.52666427553,1083.8926581287233 27643.10118004444,1179.4188899208966 27701.86541798219,1265.810712567385 27774.949708826694,1340.3156397918647 27866.4895198133,1407.1899346228165 27955.871885679982,1450.3177061255265 28033.223007031105,1472.430089681613 27956.700260719954,1491.6867262765008 27859.566879315622,1536.3355680206732 27078.930591884506,1986.2632211999444 27024.08511547555,1971.5830049019714 26922.830830391118,1962.8603737692756 26821.611789111135,1971.9658820631157 26723.500901857828,1998.6225843919383 26631.476707013295,2042.0206332377566 26548.333077075513,2100.8423094058817 26473.60951241778,2176.896186986676 26416.208132008876,2259.48047626295 26373.68458868444,2350.73495798753 26347.29338711998,2447.970667370566 26343.489095137775,2488.250318906823 26302.241901822243,2563.1945239022316 26272.69972937784,2636.8707994846336 26245.996285182162,2749.7718253007333 26241.32021876445,2856.8555938251957" stroke="#009edd" stroke-width="6.429172326542934px" fill="none" stroke-linejoin="round" vector-effect="non-scaling-stroke"></polygon>
  <polygon points="26657.443817840045,6843.561007217009 26670.782869644434,6945.618660586391 26701.58828489782,7043.780425268778 26748.92042299555,7135.0409946213185 26811.333414142224,7216.604715918744 26912.320021075517,7327.051574971381 26990.787002053316,7398.6123772924475 27080.794726995606,7454.753574616712 27179.391454462166,7493.629926524329 27283.341162408906,7513.9633277883695 27389.23190104004,7515.084327777004 27493.587349644484,7496.955099410698 27607.479014426674,7458.054940070579 27691.289072666754,7411.079305054824 27766.33711334222,7350.9393786142755 27830.602297484496,7279.255955214932 27882.355639777816,7197.9611138725595 27920.204573039984,7109.245016383327 27943.13197855113,7015.497749203554 27950.52356553785,6919.243299707159 27950.035103884496,6820.536248456658 27938.87475999116,6708.997899065114 27906.90688173342,6601.621254424419 27855.29567974221,6502.30235740784 27733.770964222233,6330.863879951619 27657.981638569006,6262.351855834917 27571.53208152004,6208.128488931892 27477.04810214226,6169.838132641948 27384.535736915626,6149.559747499035 27282.79677670225,6144.837739186449 27181.78978079112,6157.965680472174 27084.580086355534,6188.544766203355 26994.118561022187,6235.646940656676 26907.86386434661,6302.7543808821065 26778.691243262234,6458.609454052959 26723.54400998223,6545.266886824713 26684.237264808937,6640.275985755812 26661.975996328838,6740.731511473976 26657.443817840045,6843.561007217009" stroke="#009edd" stroke-width="5.724419016218748px" fill="none" stroke-linejoin="round" vector-effect="non-scaling-stroke"></polygon>
  <polygon points="29240.70312678229,10818.02586454802 29253.745664595597,10922.030774692277 29284.8653613778,11022.07977034882 29333.08471128004,11115.01400370404 29396.885318000073,11197.89759139411 29474.255371973355,11268.111564717925 29562.754021288914,11323.436136395874 29659.587102177757,11362.121238984022 29765.339195759938,11383.351204589912 29860.30930662222,11386.198497763573 29954.48949023112,11373.566362157784 30072.114959386614,11335.17697390946 30157.771385199943,11292.740405017714 30235.447856382205,11236.87441005939 30303.08450363562,11169.061678647035 30383.751455315592,11069.878044482408 30472.505549395544,10944.00908731608 30511.327910711145,10878.327155533218 30549.67579138672,10782.964892762218 30588.253484968882,10589.398494845344 30588.7920452533,10462.07121238063 30577.290914159938,10375.830913188955 30551.040979084413,10280.751069103804 30509.419211120083,10191.410755009943 30453.59331615115,10110.307139567187 30385.125963688915,10039.706012653041 30305.933426373376,9981.579218208644 30218.230238462187,9937.549437830312 30124.468320168875,9908.845818904549 30027.26823768005,9896.26954173317 29929.34638537778,9900.170772010082 29810.598939902236,9927.317148115108 29707.524210373376,9969.44268545098 29614.209975777747,10030.415431941248 29534.258385946712,10104.346278355311 29475.918530017807,10180.878728633135 29430.74500212443,10265.962445424608 29379.90304713775,10385.625421502482 29364.69316098673,10433.933350954292 29311.203842871095,10515.089691543806 29269.896647706715,10611.295591491595 29246.145527493412,10713.34683422916 29240.70312678229,10818.02586454802" stroke="#009edd" stroke-width="6.217326911940755px" fill="none" stroke-linejoin="round" vector-effect="non-scaling-stroke"></polygon>
</svg>