<svg viewBox="0 0 105.09058787555841 86.40463515907322" width="105.09058787555841" height="86.40463515907322" xmlns="http://www.w3.org/2000/svg">
  <title>Zlínský kraj</title>
  <desc>Geojson of Zlínský kraj</desc>
  <!-- Generated from maps/2-geojsons/world/europe/czechia/zlinsky-kraj/zlinsky-kraj.geojson -->
  <metadata>
    <collboard>
      <support-module name="@collboard/map-svg-geojson-import" version="1.1.4"></support-module>
    </collboard>
  </metadata>
  <polygon points="2.5272351424964654,54.170519031543336 5.090886954054986,54.63723886959906 5.091950093608284,54.6391396390447 10.021123825164796,52.498825653761564 10.085480177163664,52.440468012001475 10.365216952276933,54.15555613193701 10.370772948721243,54.18433688870701 11.429434210943691,55.60078949830623 11.434014449166535,55.61411477664351 10.698671402054424,59.099832414797675 10.710242146943166,59.11158322323154 11.301362303388125,58.282245767800305 11.30830183761118,58.27844673483906 12.801037154943153,58.48466824032349 12.819474616276967,58.49500966013566 12.86467989272187,59.33052353615185 12.861563291831226,59.35244707686052 13.970512511386005,58.94490377663442 14.014137642053356,58.94611443377635 14.574951039388361,61.206348604897904 14.582058054499612,61.238545480185536 18.868207117609384,61.090282863935684 18.98738797449896,61.028318703506194 20.971934562941716,62.22980659307487 20.975073009167502,62.23303679327637 20.160052749610443,65.06762570757692 20.156317197609862,65.07742227615654 21.847167842942692,65.56567546782445 21.883256333609282,65.59535090815608 23.357401272276004,64.9439966242002 23.418670150497746,64.92947338165523 26.144610943388944,68.22990647614334 26.164410097163454,68.26806121985992 28.511101339832933,66.91253600065083 28.524994971832896,66.89645409815985 30.4592244758298,67.23286666602053 30.474647281164472,67.23573905526409 30.857661510500293,66.48684891667054 30.87913547316548,66.49606619871902 31.557702498943947,67.88716728042618 31.576642402942344,68.00212571947468 32.49705183227761,67.55536344604752 32.62447566160972,67.55490876987442 34.652610971833745,68.79320830780908 34.658436394054846,68.79950582317524 33.80116725983371,71.20162922214641 33.727169834053896,71.28547769846318 34.38801301272161,71.96208154808974 34.45025764916482,72.05144775486825 35.54299034960841,71.38921709646512 35.56377254338859,71.38946090004593 38.394017521166646,72.73222351576824 38.42802342338819,72.76592662150198 39.84909148383286,76.12814836826128 39.83962517272139,76.14470173052814 41.06198808116588,76.24031165412434 41.07936240294348,76.25331049022479 40.83092999049677,76.87549167175149 40.76733094338834,77.24270475850481 41.64753039583138,78.91441777783312 41.647850794056836,78.91756078553426 45.72917073005502,78.26980897865852 45.75474433361069,78.28010241312569 51.50989740027853,72.02525302364793 51.53116019138815,72.0023380725177 51.480770289164326,71.16033620670478 51.43322028027597,71.05305715285631 58.96112214694422,70.79172199445584 59.00575944472203,70.78684539414517 60.287934875831525,66.75952312270219 60.2966001913881,66.73955882239953 60.285313435832904,64.74664812492975 60.298639089165775,64.6940561742098 61.10720769361051,63.23359758535644 61.129344298053006,63.162456818439935 61.08029424294346,61.6639707165652 61.086592980721434,61.5533766271632 61.807401599388506,60.65788488237577 61.84587123138754,60.54939147050591 66.63881746427778,59.615078556869236 66.69554251316568,59.60165186964423 69.04370467494282,60.414179782249086 69.1391833451662,60.40833907799952 71.48891108916415,59.57793019858491 71.51672748027468,59.600585729309934 73.32311809360964,57.64453816813166 73.33127368472033,57.63898338433337 74.2982209558335,56.192883164294294 74.30920187672,56.18577117122168 74.03090689360961,55.2754715826477 74.07270429805195,55.18822341792966 75.7326583602784,52.84389930549933 75.7711061469423,52.757947037649686 75.38810648116615,50.152991843654135 75.38677391583315,50.14760751249833 76.2543249202774,49.654095680586586 76.25607254694314,49.65209306295566 75.13038252027745,47.85389415599039 75.13038252027745,47.851445713412076 75.99742380027583,45.799491374791074 76.00584881716622,45.783982488250885 77.28360420916562,44.87533945497981 77.31236723138991,44.86431550346006 76.83752250249945,44.06708062717499 76.81771606694366,44.03712221571169 76.8827423424982,41.80036173955287 76.88492687583185,41.77105950234091 78.62425231583165,38.72533991845977 78.63743233360856,38.72188412305823 78.7382849558313,37.23714080689807 78.73653732916556,37.22911227174901 77.87444765805249,37.26635565549642 77.87248157805571,37.26312195850606 78.04331208472122,35.24760192356171 78.0593319958336,35.17810730909824 80.75031297361112,32.77180347385275 80.77485256472119,32.734306486179236 80.77164858249871,30.855782296621882 80.75751465183258,30.81858484045061 88.98148893805319,28.87622024364228 89.08445327583159,28.845732390678137 93.95326835138822,26.650386348711443 93.98457999583025,26.639437582235956 96.76039368472102,23.767985814742687 96.79410831583355,23.754907473629107 96.37307592472044,23.075014458605263 96.35159468027688,23.020681991187857 97.598307853611,21.878681581475945 97.61782301805488,21.818522643131843 96.76840364027576,18.685769949544746 96.75083271049935,18.55885851863696 94.03152561716543,17.571617319591866 94.01289882961119,17.538862148758025 94.5195794909434,15.880839541350548 94.53613825360935,15.813148350635135 94.05950220738869,14.54843352894514 94.02957410071959,14.483681913095467 89.80905570072046,11.029006295236293 89.734810694499,10.951765354911737 89.33464059671951,8.18462625437806 89.28836489894293,8.120696331110782 87.23019953716413,7.748771502444112 86.8514815567205,7.782840717574988 85.90166830872168,8.917889455752272 85.84099653627764,8.946100707273406 82.23653109983115,8.136020299573834 82.16015981449728,8.218782441527408 79.3329877469454,5.11239024792431 79.27179896827711,5.073358117173308 77.32067573983204,5.927806652161059 77.26754788916423,5.935140879594662 76.5512903816094,4.713161442067764 76.52880425183376,4.686386622130345 67.29723581094277,6.5138186456168174 67.21035692027635,6.599688848499324 66.79479314427572,6.476108441296498 66.75970225716574,6.463672875518211 66.83639394072216,4.421200042792594 66.82839854872127,4.3938517021246355 65.43650857183366,2.7566850733563175 65.41468508383241,2.7255357437736225 64.20379825716645,2.529120333629368 64.20163556916505,2.527235142496471 61.32570471760974,2.7142137714165133 61.29647566160984,2.706819130669288 60.158231850055564,5.6431099345585665 60.14133812561031,5.684874452468472 59.15960156383208,5.978506822149035 59.10155123138666,6.026604825031069 55.95524068916548,4.326691765204129 55.91288258783152,4.316808965807837 55.50880217538779,4.522268814264504 55.50251800116658,4.528561713918868 55.955182434944255,4.949709671739953 55.95781843849673,4.947825312474567 55.63457304116437,6.497907056670925 55.62494653094309,6.533576311991607 53.87645333272212,6.704350451596662 53.832529649164464,6.679872777501993 53.44797896472137,7.968026015808397 53.42472824827692,7.998282405931793 51.849956422496874,8.290658830155559 51.82905043849878,8.290008673655217 52.82259076205355,10.277155002570186 52.8264064136105,10.294994189575489 51.20013785538886,11.646558615047077 51.17031169360835,11.699491319537453 51.580071892723026,12.024514944059598 51.58298460383067,12.031460162062837 50.971715768278045,13.952181474072683 50.971642950497156,13.980120512380205 46.97405617716704,13.956044796455359 46.96667245449771,13.955126557759474 45.02170232827757,11.23922297926893 44.9362725113866,11.111063800187374 43.61612989094265,11.329713500800251 43.60980202605406,11.33343302480335 42.92878832294355,13.789493941733788 42.91876859672175,13.798351846498377 41.76280821983219,12.415897882051475 41.752817620721004,12.385598625146493 40.02620616471959,12.624851790728105 40.018538452719625,12.625143010138533 39.921778189609,13.594213266395498 39.91882178783108,13.608357294414425 41.89097479050088,16.489440696532082 41.89581717272213,16.504998761493887 40.55031212027807,18.06145560567075 40.55980755849723,18.07897859516798 37.58249979672237,18.490517798228947 37.566683775387176,18.491569544635247 37.00292125805263,17.38456218866032 36.84567126694292,17.33752602571604 34.27232012738805,17.543271294847187 34.25986828738805,17.540910052077205 33.035393663387914,18.594315247124 33.03149791227752,18.597929157691947 31.32091364916687,18.067207091144343 31.2702688847201,18.0487776991211 31.991543537165672,18.419390183170442 31.995672305163865,18.421986016045963 31.603534008277165,18.85490231527056 31.60226697894086,18.85609943657019 32.04359368472051,20.00706125547859 32.03848187672247,20.045741289018594 29.166825428721314,23.202145862731967 29.034741261609998,23.257795670267484 27.297658609165047,20.434774806190223 27.299879551387676,20.420033173748934 25.830183778944594,21.03892402670154 25.828334207387343,21.041775845456694 23.011094484719617,19.54722003752523 22.960668173609704,19.52650233856967 22.910598669611318,20.239193299875303 22.907496632274526,20.307433983418566 21.922213844721956,20.397003488252636 21.826749738052424,20.416733637553815 21.93122868561168,18.556307505050615 21.94997198160836,18.43862393299333 22.59248692560923,17.64015970837482 22.615875995831267,17.612239279338798 21.549357695388426,16.787465118117513 21.454672738941554,16.746602020606048 20.400802886497516,17.220375916134625 20.383457691830518,17.230515296428173 18.7724298944986,20.18619740994455 18.7637427336098,20.193054019671223 20.519328383388167,24.60190616544988 20.5142893931652,24.612054291990177 17.513563434054777,25.839660636649757 17.499429503388637,25.845068775584338 17.27038846516498,27.317382088478013 17.265720845610304,27.364857975437015 14.810217997609108,29.83715994054638 14.742482900721189,29.872823169463487 13.113483675831048,29.06535283491813 13.11125545183295,29.063834082323417 10.012575018053576,30.62913291133428 10.001230008277162,30.63876754218491 8.672655089167348,29.664836517863847 8.656642459830437,29.67188231016026 8.689738139833025,30.338746377866308 8.714197631386742,30.379151327126426 7.5785388509420955,30.926715764505033 7.539807074944656,30.917662141735317 7.4523456420543885,32.79966937339032 7.437905876722471,32.850178049255746 6.167060891832626,32.1443983874282 6.122554666054021,32.137924973692684 5.499875284722475,33.966216738094055 5.461631387832859,34.02429048650502 4.175917012721584,35.04619898776564 4.151603156720921,35.04540697054454 5.2825724722786624,37.147889599877644 5.284218154055816,37.1671137451629 4.462098161162976,38.78384286135389 4.420373574498626,38.83642586439656 6.543346758498046,41.599354174930895 6.553482993165199,41.63797190571914 5.26014459672133,43.317926705209366 5.258841158498945,43.32781763011281 7.676981204721779,43.53015443616297 7.688814093608926,43.54568080053414 8.72161776294215,42.33741184833471 8.786920746054784,42.32297384501126 9.286086612721375,43.14596880337322 9.288198328277032,43.24639518633759 8.214798747832356,47.403618419814855 8.208696618056093,47.41285647010064 5.3770244118319175,47.99375406989112 5.361230235831863,48.00205629753455 4.834575658052746,51.235569554588984 4.847529940720233,51.26509961701068 2.7812089878307233,51.275710380518106 2.77660690427565,51.28083779666468 3.2605611371660417,53.221617530248295 3.2655928456106267,53.22458615905035 2.5272351424964654,54.170519031543336" stroke="#009edd" fill="none" stroke-width="5px" vector-effect="non-scaling-stroke" stroke-linejoin="round"></polygon>
</svg>