<svg viewBox="0 0 105.09058787555841 86.40463515907322" width="105.09058787555841" height="86.40463515907322" xmlns="http://www.w3.org/2000/svg">
  <title>Zlínský kraj</title>
  <desc>Geojson of Zlínský kraj</desc>
  <!-- Generated from maps/3-geojsons-aggregated/world/europe/czechia/zlinsky-kraj/zlinsky-kraj.aggregated2.geojson -->
  <metadata>
    <collboard>
      <support-module name="@collboard/map-svg-geojson-import" version="1.4.4"></support-module>
    </collboard>
  </metadata>
  <polygon points="1.7261356071965566,53.36941949624343 4.289787418755077,53.836139334299155 4.290850558308375,53.83804010374479 8.198106878310865,51.76855954610401 8.27800254408685,51.730274024528995 11.499009562754146,51.04354702111632 11.597714060532235,50.98292482774304 11.310943088088607,50.549730908284616 11.315370408977106,50.390480499623294 11.652858963642576,49.34892202714582 11.651300663197254,49.32488160244138 10.778521342309615,48.35675865115954 10.764868008975828,48.334438542003404 10.95415054053192,47.47726023585601 10.954754928088006,47.44104821956025 13.645728624087134,45.7316797060881 13.662687884531989,45.71816550512485 14.450700030308873,44.144425227593814 14.459794970754956,44.07787002414588 16.8051973387559,43.17153915333802 16.919186288085257,43.15341903513362 18.633338622308294,41.79250260066655 18.666951308532227,41.77672847632675 21.50009443386407,41.20511995661545 21.546035169864265,41.1790274635121 22.08609550053261,41.64084188359302 22.093450096088418,41.63863612180175 23.402597232089104,40.1864851701368 23.407374078310752,40.173625961863216 25.330819269419955,39.6856781854487 25.3585701245338,39.64648403194914 25.68496853164288,40.266514681070475 25.710877096977857,40.263138355086625 26.196294967197538,39.51947166260397 26.20267380453188,39.48409891544907 28.375643674754613,38.728868914145636 28.38228465608736,38.72779888883124 27.46850164453099,37.263898850970506 27.472768766309674,37.20341487009609 28.709869992976383,36.673022748357106 28.71078021519825,36.66972227174592 30.057588705864692,37.218510841972964 30.060690743198577,37.217172943624966 29.724651262311454,35.4950841841277 29.723879393867175,35.47993887818629 30.0768271627534,35.060136357319784 30.07499215475582,35.04877090800328 29.470269637422827,34.979350814479766 29.462347063197015,35.00408963067056 28.54031379741973,33.476856152103935 28.49992177608547,33.42729774514336 29.504843518308554,32.00735253330385 29.571195077420636,31.938943113752245 30.421226124534225,31.598769395723135 30.42710980097654,31.591102103735096 31.33521302586487,32.217976785636345 31.377745889865402,32.2488767412844 32.126960723642334,31.764824472276445 32.13856787742298,31.752715645131318 32.640595482754364,33.09667753614812 32.64164405875381,33.09860778294278 33.29894829341975,32.6486969315727 33.333675091642725,32.626469342656854 33.88280123564364,33.245315716720135 33.88682805875324,33.24862940314524 34.62577558586381,32.72161662964099 34.707047507643075,32.610010603285986 34.98299047653163,31.43173831464846 34.96414523564345,31.22499043391326 35.98154066319876,32.620789688323924 36.006029281866,32.70725593302522 37.65904380986649,32.109898111931756 37.69677798231023,32.11396016756952 37.92401313964401,31.56883676298348 37.91941105608894,31.522988850389442 37.2752213031974,31.14155914805196 37.272847443643336,31.13846742259229 38.73983439475305,30.77242610846187 38.77190334408843,30.739151462669902 38.54061223653153,29.93719510107948 38.52175971386496,29.926109334333518 40.07842904008758,26.930504238779026 40.060705192976826,26.85704980129121 40.937358419645534,26.170768634773044 40.9963553831989,26.11724549409009 39.01474335119892,26.3612290378358 38.961863080975675,26.351588318338685 38.799129911199636,25.38245899137873 38.815324584975684,25.36598974699918 40.72297560008774,24.34168238264137 40.740466430310704,24.312894832239905 42.98461567831001,24.7920717037854 43.01177670942161,24.804676352763266 43.82085503830931,23.97568037246128 43.84068331920025,23.97362398701698 45.21866510053115,24.77384631362838 45.22197102764221,24.77476261304291 47.670235788532956,23.54849448995846 47.75428206764227,23.509308230474193 48.151830725420226,22.467226830673823 48.18028791297584,22.41654068558309 48.83274976542052,22.20583156109969 48.886365495199065,22.18827955600172 50.6163921049756,23.13390625631618 50.64645128364391,23.141473565205885 52.48040342586356,22.918898675499435 52.51639725341993,22.907396343433717 53.713863763642806,22.017653259339927 53.75021439831071,21.98911068136549 53.97619708986495,21.089759119198785 53.993367521865366,21.048240668523427 55.728906437421756,19.132538258807102 55.77845165342042,19.093286953679122 55.55790844986514,18.082522431177853 55.55464621342144,17.998041252176694 56.263032119199124,17.025849229496448 56.26462682853344,16.912435950890718 54.88057204453108,14.847837960954706 54.84344225964342,14.799510742140768 54.006933473864414,15.516785389530192 53.964793825864405,15.585903075123856 52.03662276097639,15.183418859877925 52.02541610497756,15.176724905301302 52.603734896086465,14.362139591189402 52.60043625075377,14.348313043707817 50.96374018675597,13.372429131408348 50.948929050755766,13.376001160983646 50.86095061164415,12.358886662983053 50.848054583197886,12.298497789299649 50.12223610142137,13.208964301624286 50.11170665075661,13.215369509162333 48.80057887119947,12.857360697511826 48.771349815196665,12.859074088976554 47.17492926408777,13.490607209064542 47.17131022053255,13.490607209064542 45.50298939564273,12.569480943859157 45.49150603208873,12.563634944857398 45.57115411742016,11.804240519715307 45.58537542942104,11.686731809364932 44.220602792977665,10.438123443969012 44.13517297608669,10.309964264887453 42.81503035564274,10.52861396550033 42.80870249075415,10.53233348950343 42.459271820531654,11.165736153994288 42.40733818142217,11.166139429192476 42.55946908275546,12.471811626710764 42.617796122753134,12.622038659234017 42.12768878764364,12.988394406433867 42.11766906142184,12.997252311198459 40.96170868453228,11.614798346751554 40.95171808542109,11.584499089846572 39.04491903830967,11.995681028155737 38.95796732986528,12.120586425524738 40.880618807197976,14.837729244999714 40.9556065547531,14.89086976181315 40.64467464364316,15.10052742606676 40.63693411386521,15.100751307382957 41.08987525520097,15.68834116123216 41.09471763742222,15.703899226193966 40.00880796275342,16.55363843782288 39.919460549419824,16.595638496692477 39.73214409786633,17.301131063107817 39.72978480186321,17.304935520103385 36.78140026142246,17.689418262929024 36.765584240087264,17.690470009335325 36.77124218142017,16.96300502212434 36.82469771208889,16.916128773348824 36.20182172275272,16.583462653360396 36.04457173164301,16.53642649041612 33.47122059208814,16.74217175954727 33.45876875208815,16.739810516777283 32.234294128088,17.793215711824082 32.23039837697761,17.79682962239203 31.829711272976784,17.30047087765451 31.82392954142015,17.12587701509801 30.51981411386696,17.266107555844425 30.46916934942019,17.247678163821178 31.190444001865764,17.61829064787052 31.194572769863953,17.620886480746044 30.802434472977257,18.053802779970642 30.801167443640953,18.05499990127027 31.184101573420413,18.28091551698489 31.26339285164322,18.448111482001327 31.2424941494206,19.20596172017867 31.237382341422563,19.244641753718675 28.365725893421406,22.401046327432045 28.23364172631009,22.456696134967565 27.72557024542075,20.82999807609194 27.694812016086146,20.76090158478364 26.49655907386514,19.633675270890304 26.498780016087768,19.61893363844901 25.005236421422524,19.67613274098439 24.97413594853315,19.681322461937448 25.029084243644686,20.23782449140162 25.027234672087435,20.240676310156772 24.76743540453208,19.731966722986904 24.76593535830798,19.73063575124724 23.891058885421444,19.88548488055421 23.879772129866254,19.880396011354236 23.965056311201263,19.261968262304794 23.60596272186558,18.950910531189944 22.20999494941971,18.746120502225306 22.159568638309793,18.72540280326975 22.10949913431141,19.438093764575385 22.106397096974618,19.506334448118647 21.121114309422047,19.595903952952717 21.025650202752516,19.615634102253892 21.13012915031177,17.755207969750696 21.148872446308452,17.637524397693408 21.79138739030932,16.8390601730749 21.81477646053136,16.81113974403888 20.74825816008852,15.986365582817593 20.653573203641646,15.945502485306129 19.599703351197604,16.419276380834702 19.58235815653061,16.42941576112825 19.225725808086647,17.758765962058163 19.228784154753157,17.77915164714977 18.116747461421255,18.49422512489436 18.109101594753522,18.50177644875839 18.246020862310615,19.27816497497151 18.26182232008905,19.29423859912676 17.971330359198692,19.38509787464463 17.962643198309888,19.391954484371304 18.608835440087205,21.825331779143376 18.599842444532623,21.839016543464453 19.37968443564496,22.199459183561334 19.385131205422297,22.201091407281996 19.71822884808826,23.80080663014996 19.71318985786529,23.810954756690258 18.485198135198516,24.001228662289574 18.350579909420414,24.060293261200783 18.079493886309866,24.922787661811522 18.075459781421888,24.937392166880088 16.71246389875487,25.03856110134984 16.69832996808873,25.04396924028442 16.46928892986507,26.516282553178094 16.464621310310395,26.563758440137093 15.036060300532336,27.8617580308306 15.014717409863444,27.880017866586055 15.156733921864726,28.37586930066354 15.156806739642708,28.377544360976387 14.009118462309198,29.03606040524646 13.94138336542128,29.07172363416357 12.31238414053114,28.264253299618208 12.310155916533041,28.2627345470235 11.359206711197112,29.160076780959567 11.317096190307712,29.208311440116447 10.69451875386476,28.836223691399567 10.558415045422226,28.730222538290032 9.386966327198389,29.17813133135532 9.348751557422293,29.17410060508009 9.211475482753668,29.82803337603436 9.200130472977254,29.837668006884993 7.871555553867438,28.86373698256393 7.855542924530528,28.87078277486034 7.693166561866019,28.979985819044302 7.592954736088359,29.041699096458974 7.888638604533117,29.53764684256639 7.913098096086833,29.578051791826507 6.777439315642187,30.12561622920511 6.738707539644747,30.116562606435394 6.6512461067544795,31.998569838090404 6.636806341422562,32.04907851395583 5.365961356532717,31.343298852128278 5.321455130754112,31.336825438392765 4.698775749422566,33.16511720279413 4.66053185253295,33.223190951205105 3.3748174774216753,34.24509945246572 3.350503621421012,34.24430743524462 3.2132348285307675,34.633966151644195 3.1895617689751816,34.7173333847375 4.481472936978753,36.346790064577725 4.483118618755907,36.36601420986298 3.6609986258630673,37.98274332605396 3.6192740391987175,38.03532632909664 4.661165367199646,39.111400795895676 4.685027752978567,39.127349728986516 4.660954195644081,40.12755988632743 4.666750490754566,40.13781168293681 5.742247223198138,40.798254639630976 5.75238345786529,40.83687237041922 4.4590450614214205,42.51682716990945 4.457741623199036,42.52671809481289 6.87588166942187,42.72905490086305 6.887714558309018,42.744581265234224 7.920518227642242,41.53631231303479 7.985821210754875,41.52187430971134 8.484987077421465,42.3448692680733 8.487098792977122,42.44529565103767 7.413699212532447,46.602518884514936 7.407597082756183,46.611756934800724 4.575924876532008,47.1926545345912 4.560130700531954,47.20095676223463 3.9072319414222876,49.51504395081611 3.9019890614192265,49.51590052314896 4.033476122752837,50.43447001928907 4.046430405420324,50.464000081710765 1.9801094525308145,50.474610845218194 1.975507368975741,50.47973826136476 2.0019911947561924,51.916072523847475 2.005122359197776,51.96922337707256 2.459461601866133,52.42051799494839 2.464493310310718,52.423486623750435 1.7261356071965566,53.36941949624343" stroke="#009edd" fill="none" stroke-width="5px" vector-effect="non-scaling-stroke" stroke-linejoin="round"></polygon>
  <polygon points="9.284380641863754,51.63936847670157 9.564117416977025,53.35445659663711 9.569673413421333,53.3832373534071 10.322631080974316,53.76546581651674 10.342954522754372,53.783517773067075 10.628334675643783,54.799689963006315 10.632914913866626,54.81301524134361 9.791410828532026,57.54160826801999 9.773599600086527,57.60629069414754 9.897571866754516,58.29873287949777 9.909142611643256,58.31048368793163 10.500262768088215,57.4811462325004 10.50720230231127,57.477347199539146 11.999937619643243,57.683568705023575 12.018375080977059,57.69391012483575 12.063580357421962,58.52942400085195 12.060463756531318,58.55134754156061 13.169412976086097,58.143804241334514 13.213038106753448,58.14501489847644 13.77337818853157,59.13972999702565 13.803655820530913,59.213366401799796 13.773851504088453,60.405249069598 13.780958519199704,60.437445944885624 15.84939846942034,59.949820832020855 15.859345377864157,59.89741292238068 16.575209669421383,60.62664875831579 16.58819307919948,60.6291800042487 18.067107582309472,60.28918332863577 18.186288439199053,60.22721916820629 19.05417440541969,61.20412026333106 19.12231728186489,61.249122717601495 20.170835027641807,61.42870705777496 20.17397347386759,61.431937257976465 19.35895321431053,64.26652617227701 19.355217662309954,64.27632274085663 21.046068307642784,64.76457593252454 21.08215679830937,64.79425137285617 21.41098003742118,64.25261346182269 21.480761313865152,64.20967688588898 22.556301736976096,64.14289708890028 22.617570615197838,64.12837384635532 22.75355053342246,64.92527624516406 22.741564727198057,64.95161174779533 25.343511408089036,67.42880694084343 25.363310561863546,67.46696168456002 27.71000180453302,66.11143646535093 27.723895436532985,66.09535456285994 28.545323660532087,66.74487095881231 28.53938172986564,66.7517354671687 29.658124940529888,66.43176713072062 29.673547745864564,66.4346395199642 30.04705925519702,65.68544990263364 30.056561975200385,65.68574938137063 30.75660296364404,67.08606774512627 30.775542867642436,67.20102618417478 31.695952296977705,66.75426391074761 31.823376126309814,66.75380923457452 33.638919934309165,67.7651273419866 33.64706824364148,67.76931846685366 34.02296817608767,68.26233004220303 34.03309712897644,68.27850542598063 33.0000677245338,70.4005296868465 32.926070298753984,70.48437816316327 33.586913477421696,71.16098201278983 33.64915811386491,71.25034821956834 34.7418908143085,70.5881175611652 34.762673008088676,70.58836136474602 36.1302272836434,71.7889859098872 36.14090965164251,71.82661202605996 37.560288339642646,71.90516513685762 37.57970155920084,71.91651037413577 39.22858003742186,74.87967963277951 39.25072392364273,74.91565697347869 39.047991948532946,75.32704883296138 39.038525637421486,75.34360219522823 40.26088854586597,75.43921211882444 40.278262867643576,75.4522109549249 40.029830455196866,76.07439213645158 39.966231408088426,76.4416052232049 40.846751258756925,78.11646125023435 40.86944856008813,78.12096548703158 44.928071194755105,77.4687094433586 44.95364479831078,77.47900287782578 47.36631622942114,75.18320412174107 47.383719678309355,75.17467806898821 48.721382256086876,72.78764215101728 48.722110433866696,72.78454042812409 50.70879786497863,71.22415348834802 50.73006065608825,71.2012385372178 50.679670753864414,70.35923667140487 50.632120744976056,70.2519576175564 55.47748849608652,69.99217410380844 55.53872824720057,69.99372574802437 56.96566542053079,70.53843681658218 57.00935608720065,70.54885396259088 58.16002261164431,69.99062245915593 58.20465990942212,69.98574585884526 58.46658545608989,68.18909121516226 58.467968993865725,68.16802628067126 59.48683534053162,65.9584235874023 59.49550065608819,65.93845928709962 59.484213900533,63.94554858962984 59.49753955386586,63.892956638909894 60.3061081583106,62.43249805005653 60.328244762753094,62.36135728314002 60.27919470764355,60.86287118126529 60.28549344542153,60.75227709186329 60.69123410319917,60.347338631505046 60.7002125351999,60.33890071027745 58.207477957422455,58.03216718450604 58.19206243386616,58.02096003670486 58.60901702942101,57.628006846359135 58.617951770754374,57.61506602936024 58.64932166942054,55.637475141878895 58.64952555919772,55.63238584915999 55.173831080976015,55.93439058518307 54.97336373875333,56.013025335390196 54.13318493697625,54.96024686885249 54.07683125875374,54.91407070524329 52.914776033866296,54.90874736336591 52.73203253875436,54.85641386076641 52.06430808008773,53.12706222180459 52.06860432897702,53.11837980658056 51.83335193431012,53.501493674017915 51.80997014586356,53.50896381339881 50.74392516097469,52.86260373627192 50.65946382053262,52.84421524043028 50.792632972532374,53.53255249075774 50.697991706755786,53.544535767050185 49.875718796531515,52.65800325524069 49.87038125342115,52.660037846061826 49.98257160364192,52.10879196808855 49.97110280364177,52.10483357037192 48.80989226497659,53.94033610466031 48.76562633786416,54.00745049986763 46.627878426753526,54.019032596834954 46.60746032186617,54.00386026718079 46.057088993867005,55.234295288466456 46.00715056186491,55.279468631222336 43.6791516427551,55.66697739048286 43.62968652630989,55.68000055517514 43.70266450320087,53.301886028313675 43.674848112087425,53.16782825772571 42.84296325519863,52.49635650967284 42.82392140630873,52.477032852733466 41.26672051031092,52.456730709928166 41.2413944871998,52.43520546493419 40.73094186497511,50.873867707020324 40.738711521863664,50.858697853198464 40.27550307386737,50.592751532260806 40.272495699640785,50.588769802963725 40.54842410497841,50.43009888928245 40.546246853420236,50.41867609808287 39.80352008364462,50.23563015213912 39.716866928087626,50.22546384461347 39.56068007653121,49.62720929772076 39.51146982230894,49.604794209330066 40.42242022230821,48.58054446588976 40.46938040719724,48.5761384886111 40.35814396986571,47.764922542831115 40.36156640542213,47.75623168859056 41.637719806308816,47.15425935149724 41.66107246764477,47.16041372781365 40.64758735475371,45.34161360163598 40.619800090753785,45.326027750793216 38.85062664364414,44.74575744637295 38.82245344542207,44.75140234987375 38.30680891564298,44.962820423393346 38.279414867643574,44.991967847988775 37.919651354752204,46.037688457825055 37.907235923644116,46.07911911279407 36.15333236453189,45.769773099299705 36.1451403645322,45.758752536256 35.156799230310206,46.51332081763139 35.15499334942033,46.513877336121 33.33442511475478,45.87412226859924 33.319461061423134,45.87073824287399 31.783559365421027,47.76980766487577 31.759959123643423,47.79155141303381 31.245297633867086,47.41845732072288 29.767118590309476,48.344207773373995 29.662690615198883,48.34132596318559 29.957100172531867,47.61808866664978 29.98455247475249,47.57967418769149 29.188486682753503,47.0178374352301 29.13664042497585,47.000497876778894 28.76971164275492,47.51191404487363 28.758992865863913,47.516932931090196 28.352691511197555,46.12686082233158 28.35772321964214,46.082658848040225 27.013157516533468,44.751569358766204 26.96341569253309,44.71947015692312 26.988479571642895,44.005479054029635 26.992579212530472,43.9842437437841 26.094619504087678,44.203508026129924 26.0525672374195,44.2326705989446 23.155752247198325,40.86790228986538 23.14139258141986,40.85962394782873 22.093450096088418,41.63863612180175 22.08609550053261,41.64084188359302 21.561778373421475,41.202022732897966 21.546035169864265,41.1790274635121 18.69843043386536,41.768986216585105 18.666951308532227,41.77672847632675 17.03203199830787,43.01473746166775 16.919186288085257,43.15341903513362 14.463858202756455,44.07827089443199 14.459794970754956,44.07787002414588 13.666641889866515,45.70176808173892 13.662687884531989,45.71816550512485 10.959276912086716,47.43837737920003 10.954754928088006,47.44104821956025 10.764678682755402,48.33338150568197 10.764868008975828,48.334438542003404 11.681192360977366,49.52991714239943 11.692420862311337,49.564669305144704 11.522413196532945,49.906884101040845 11.3553837778647,50.03666076538393 11.536212165422695,50.936804360546006 11.597714060532235,50.98292482774304 9.284380641863754,51.63936847670157" stroke="#009edd" fill="none" stroke-width="5px" vector-effect="non-scaling-stroke" stroke-linejoin="round"></polygon>
  <polygon points="50.33385184542167,11.970177666868034 50.384758753863935,12.402833934700533 50.391683724533145,12.426453767995184 50.8458554863104,12.297870601668905 50.848054583197886,12.298497789299649 50.94859408897646,13.374545475228292 50.948929050755766,13.376001160983646 52.03271972808761,13.596398729936112 52.048950810755564,13.60553558194842 52.579588520976905,14.331519619394744 52.60043625075377,14.348313043707817 52.01000786319965,15.163258614110596 52.02541610497756,15.176724905301302 53.96282774586471,15.584638257271212 53.964793825864405,15.585903075123856 54.8406169298647,14.802342995324938 54.84344225964342,14.799510742140768 56.23259428808706,16.86984521915037 56.26462682853344,16.912435950890718 55.575362871199104,17.94459513158253 55.55464621342144,17.998041252176694 55.79351036986518,19.031965316908096 55.78501253519971,19.082514887892824 54.03606058497863,20.99988967254066 53.993367521865366,21.048240668523427 53.77462291742159,21.940667337771806 53.75021439831071,21.98911068136549 52.51639725341993,22.907396343433717 52.48040342586356,22.918898675499435 52.6363135698648,23.519512779584687 52.643974000089294,23.552708169802276 54.069250928088515,24.902875412619682 54.09110354319746,24.927290814793736 54.66913834497573,24.77670695519518 54.68502718408891,24.77400275500149 55.04988794142155,25.828562344167217 55.09930936719939,25.85802346654127 56.81528214586615,25.56553914311698 56.85239736719705,25.566153645754454 56.97947167119892,26.384934188213442 56.98942586142112,26.40266271412729 58.90548004808552,26.668393848507908 58.93360955564313,26.671901395783422 58.214330110307856,28.681671028172783 58.16146440364428,28.7222274248681 58.909171909421644,29.20961778958917 58.935764961866155,29.229882914769764 59.54321814586474,30.58046625222232 59.574231237419376,30.636624997893882 59.35022918942159,31.238953191823743 59.389900314754414,31.316054657753917 60.413907596531864,32.241199195363514 60.445525075642585,32.290310754168964 61.925306110309975,31.83075852180809 61.935544289865724,31.82880551036105 62.38473531564123,32.80528061159457 62.388143187643806,32.81781113053912 61.948301964531495,33.32256760483469 61.922320581421445,33.34283990953735 62.36866443208601,33.42185321038741 62.39238846408735,33.437149215450695 62.304475560975334,33.86786325909815 62.305247429419616,33.91143817063894 61.573508862308884,33.76538388240333 61.56587755919791,33.78395882928198 62.24110224897632,34.29167209586339 62.24885006053265,34.338857869441924 61.29613866497712,34.80845141253266 61.24593808897662,34.83034673062975 61.58795590941918,36.535449178466294 61.58324459919714,36.557348783580885 62.740930757420216,36.96982340420545 62.7725263911987,36.98122948926939 63.093674636532164,38.201220909926995 63.09923791475194,38.224507284771605 64.67361652453147,38.15287545079081 64.71057882853093,38.16106868157985 65.03731947919769,39.43444963879192 65.04634160186579,39.49629105999083 66.4038106151991,41.31216250420729 66.42056598586387,41.31971601096629 66.3697610223102,41.91671111299838 66.36817359475427,41.92489875070059 67.96562087653038,43.80543852038572 67.98742980097778,43.81075031170658 69.79289562853118,42.97052167481633 69.81991102408684,42.9502179340041 71.77844710230893,43.54812788549061 71.81650895475359,43.576391884203254 74.94080668275602,42.801897006474974 74.96260832542212,42.80377930501308 74.96006698497695,44.597996980401874 74.96466178675364,44.617827018988095 75.86967025608938,44.710919245418694 75.89180686053187,44.702680073354344 76.4825046738657,44.07423991967989 76.51126769609,44.063215968160144 76.03642296719954,43.26598109187507 76.01661653164375,43.236022680411764 76.08711142230787,40.954963400590714 76.08710414053239,40.95491883421091 77.42360163386512,39.1541429410503 77.4326310383116,39.15637198776567 77.33869610497678,38.06469991031371 77.34532252275568,38.049762321217344 77.82315278053176,37.92424038315985 77.83633279830866,37.92078458775831 77.93718542053139,36.43604127159815 77.93543779386565,36.428012736449084 77.07334812275258,36.46525612019649 77.0713820427558,36.46202242320614 77.24221254942131,34.44650238826179 77.25823246053369,34.37700777379832 79.9492134383112,31.97070393855283 79.97375302942129,31.933206950879317 79.9705490471988,30.05468276132196 79.95641511653267,30.01748530515069 88.18038940275329,28.07512070834236 88.28335374053168,28.044632855378218 88.5008604427556,27.51235249764613 88.4806171005319,27.44634435790394 90.3132221138647,26.5700699095516 90.34336867386483,26.531977568198997 93.1521688160883,25.849286813411524 93.18348046053035,25.838338046936038 94.09683384720012,25.185282919851666 94.14802474497593,25.153549951363306 95.23686897608751,23.232470477448437 95.28332671830904,23.171999782340205 95.95929414942111,22.966886279442765 95.99300878053364,22.953807938329188 95.57197638942053,22.27391492330534 95.55049514497696,22.219582455887934 96.7972083183111,21.077582046176026 96.81672348275498,21.017423107831924 95.96730410497585,17.884670414244823 95.94973317519944,17.757758983337038 93.23042608186552,16.770517784291947 93.21179929431128,16.737762613458102 93.71847995564349,15.079740006050628 93.73503871830945,15.012048815335215 93.25840267208878,13.74733399364522 93.22847456541967,13.682582377795548 92.72789603386664,13.738141393311157 92.69637321786614,13.730314794542569 92.04933628986656,12.195705259997698 92.01098316630997,12.165487608769395 90.07585072186667,11.72823145527836 90.07265402141967,11.729642773754671 89.00795616542055,10.227906759936372 88.93371115919909,10.150665819611817 88.53354106141961,7.38352671907814 88.48726536364302,7.319596795810861 86.42910000186421,6.947671967144192 86.0503820214206,6.9817411822750675 85.10056877342177,8.116789920452351 85.03989700097773,8.145001171973485 82.79434965164583,7.133071411244231 82.77519129431057,7.093734248885079 81.43543156453126,7.334920764273915 81.35906027919737,7.417682906227487 78.4706994329772,4.272258581873388 78.46890811564408,4.2713388559019165 76.51957620453213,5.126707116861138 76.46644835386432,5.134041344294741 75.7501908463095,3.9120619067678435 75.72770471653385,3.8852870868304255 72.74683616542207,4.12597534960259 72.6535857191997,4.1067951548469805 66.49613627564285,5.712719110316897 66.40925738497644,5.798589313199404 65.99369360897582,5.675008905996577 65.95860272186583,5.662573340218291 66.0972550525319,3.751007206151911 66.10052457075399,3.7287858179119158 64.63540903653374,1.955585538056397 64.6135855485325,1.9244362084737021 60.52460518230983,1.913114236116593 60.495376126309935,1.905719595369368 60.28038891919896,3.0779654440299 60.26431075386536,3.1213252077188316 59.29490224186338,4.181586318783587 59.23766018675415,4.230466975368103 59.135140037422026,4.9842933166208185 59.10259777253268,5.005545157844967 58.35850202853217,5.177407286849115 58.30045169608675,5.225505289731149 54.7450800054201,3.7009444563202067 54.70770264008789,3.721169278964584 55.15408289964435,4.148610136440033 55.15671890319682,4.146725777174646 54.83347350586446,5.696807521371006 54.82384699564318,5.732476776691687 53.07535379742222,5.9032509162967415 53.03143011386456,5.878773242202072 52.64687942942146,7.166926480508477 52.62362871297701,7.197182870631872 51.04885688719696,7.489559294855638 51.02795090319887,7.488909138355297 52.021491226753646,9.476055467270266 52.02530687831059,9.493894654275568 50.41470142408689,10.83043618111878 50.39903832008895,10.845459079747156 50.77897235742312,11.223415408759678 50.781885068530755,11.230360626762916 50.33385184542167,11.970177666868034" stroke="#009edd" fill="none" stroke-width="5px" vector-effect="non-scaling-stroke" stroke-linejoin="round"></polygon>
  <polygon points="23.12198664364296,40.83452144301445 26.030816567199146,44.18408849539009 26.0525672374195,44.2326705989446 26.976908826754155,43.98179393870705 26.992579212530472,43.9842437437841 26.974505840089478,44.669645323376244 26.96341569253309,44.71947015692312 28.344761655199182,46.069390394795114 28.35772321964214,46.082658848040225 28.753837367198503,47.50500333154814 28.758992865863913,47.516932931090196 29.12468374586497,47.01657981825301 29.13664042497585,47.000497876778894 29.867090117420958,47.499761866878906 29.98455247475249,47.57967418769149 29.676183749419945,48.303706519147454 29.662690615198883,48.34132596318559 31.245297633867086,47.41845732072288 31.759959123643423,47.79155141303381 33.28320508986544,45.89442637935463 33.319461061423134,45.87073824287399 35.15819004986442,46.49319707132708 35.15499334942033,46.513877336121 36.13793140453236,45.760377792393044 36.1451403645322,45.758752536256 37.87987100275241,46.06413643469023 37.907235923644116,46.07911911279407 38.750203646308,44.78127459313146 38.82245344542207,44.75140234987375 40.603845715643914,45.3239236575555 40.619800090753785,45.326027750793216 41.6620919165307,47.135317629410196 41.66107246764477,47.16041372781365 40.367136965420286,47.75191407601705 40.36156640542213,47.75623168859056 40.47219117342211,48.56503452016222 40.46938040719724,48.5761384886111 39.516974846310404,49.59173445828964 39.51146982230894,49.604794209330066 39.71171871119768,50.18505425548246 39.716866928087626,50.22546384461347 40.52241359475484,50.393939612352185 40.546246853420236,50.41867609808287 40.29045256364516,50.58047267067486 40.272495699640785,50.588769802963725 40.71161602675457,50.843772633750994 40.738711521863664,50.858697853198464 41.215631557420785,52.40779845871039 41.2413944871998,52.43520546493419 42.79189614764364,52.47940106058559 42.82392140630873,52.477032852733466 43.62895834853298,53.14703950690346 43.674848112087425,53.16782825772571 43.606632417867154,55.58802657518136 43.62968652630989,55.68000055517514 45.98333914853174,55.283969276129575 46.00715056186491,55.279468631222336 46.53044095830883,54.03033678897373 46.60746032186617,54.00386026718079 48.71045958942159,54.01364170059569 48.76562633786416,54.00745049986763 49.955483390308295,52.10334361094465 49.97110280364177,52.10483357037192 49.88387438764221,52.66428491301231 49.89318778141933,52.70343115375036 50.70308895119997,53.4744365667244 50.697991706755786,53.544535767050185 50.94494591831062,53.48662006283594 50.95138300986619,53.47677099780594 50.65839339919803,52.85163068112634 50.65946382053262,52.84421524043028 51.748468250754016,53.48614206121311 51.80997014586356,53.50896381339881 52.06451925164329,53.117379271297615 52.06860432897702,53.11837980658056 52.76482966586373,54.79424426035148 52.73203253875436,54.85641386076641 53.955837239198814,54.877585150576856 54.07683125875374,54.91407070524329 54.94891152897508,55.94959094635015 54.97336373875333,56.013025335390196 58.64388946319996,55.63404153660704 58.64952555919772,55.63238584915999 58.624301480978104,57.5650131076156 58.617951770754374,57.61506602936024 58.195230007196734,58.01700587407577 58.19206243386616,58.02096003670486 60.69550122497785,60.33712430416672 60.7002125351999,60.33890071027745 61.799506117422794,59.35939256340535 61.828778864090054,59.346522427870156 64.705925772533,59.460675819481914 64.7885812320881,59.45073746129529 65.83771792897788,58.813979021569324 65.89444297786576,58.800552334344324 68.24260513964292,59.61308024694918 68.33808380986629,59.60723954269961 68.65950876275492,59.06099537062292 68.72061744186685,58.985580094789114 70.68781155386424,58.776830663285004 70.71562794497477,58.79948619401003 70.4599647271989,58.45808859542631 70.45814428275517,58.452979687831615 71.69830385608839,57.77922887663627 71.7098818827526,57.770120571212104 73.49712142053359,55.39178362899438 73.5081023414201,55.38467163592177 73.19696654053006,54.558951436439024 73.2298073583097,54.47437204734779 73.6035081938655,54.48459721972358 73.60831416719775,54.48648665167894 74.9315588249785,52.04279977019942 74.97000661164239,51.956847502349774 74.58700694586624,49.351892308354216 74.58567438053323,49.346507977198414 75.45322538497749,48.85299614528667 75.45497301164323,48.85099352765573 74.33219569608809,47.05368496317715 74.32928298497755,47.05279462069047 75.17447893164244,46.018676113283796 75.17811982053281,46.014223564109486 74.83310918942043,43.84440267367499 74.82107969253157,43.8150710103062 75.12539974942229,42.870216235267065 75.12353561430828,42.85412219906175 71.84460933519767,43.5737971259794 71.81650895475359,43.576391884203254 70.62981947564295,42.87736665011798 70.58972600719899,42.84448803034502 67.73491959297571,43.66265297978134 67.661089648087,43.60535732122989 67.00322471653236,42.246479490471025 66.99780707386563,42.23833688633931 66.3733218116442,41.933587659041585 66.36817359475427,41.92489875070059 66.42682831475577,41.341708020380246 66.42056598586387,41.31971601096629 65.09908351831146,39.509943109388765 65.04634160186579,39.49629105999083 64.72255007119857,38.216893799179886 64.71057882853093,38.16106868157985 63.142586337864124,38.215366641944634 63.09923791475194,38.224507284771605 62.76885637519772,37.00610426149105 62.7725263911987,36.98122948926939 61.59223759475463,36.568175898350084 61.58324459919714,36.557348783580885 61.25743601608738,34.85907932369773 61.24593808897662,34.83034673062975 62.2089823271981,34.33391621045193 62.24885006053265,34.338857869441924 61.590686576087684,33.79575082010305 61.56587755919791,33.78395882928198 62.274307155642965,33.91263184615854 62.305247429419616,33.91143817063894 62.39021849431047,33.45016919503868 62.39238846408735,33.437149215450695 61.92511678408664,33.35452127521748 61.922320581421445,33.34283990953735 62.38991265964178,32.846788543758514 62.388143187643806,32.81781113053912 62.01159517697707,31.88377972783819 61.935544289865724,31.82880551036105 60.45778758942215,32.28977511580924 60.445525075642585,32.290310754168964 59.42113914142138,31.35214955893352 59.389900314754414,31.316054657753917 59.57688180453152,30.656449534559574 59.574231237419376,30.636624997893882 58.940600062309024,29.242689542177317 58.935764961866155,29.229882914769764 58.1820281440876,28.76196838379728 58.16146440364428,28.7222274248681 58.948733808087496,26.695370627496228 58.93360955564313,26.671901395783422 57.03275243919816,26.415364212687194 56.98942586142112,26.40266271412729 56.873194124531075,25.572443914261015 56.85239736719705,25.566153645754454 55.04988794142155,25.828562344167217 55.00881143297775,25.809178470733237 54.71046971564247,24.809861235447528 54.68502718408891,24.77400275500149 54.12864838942078,24.91979300716666 54.09110354319746,24.927290814793736 52.480752951196706,22.92165967874061 52.48040342586356,22.918898675499435 50.667116968975826,23.143384951771072 50.64645128364391,23.141473565205885 48.94003947919882,22.239213755031592 48.886365495199065,22.18827955600172 48.22496890142102,22.379626926374108 48.18028791297584,22.41654068558309 47.81806315919857,23.456318038468083 47.75428206764227,23.509308230474193 45.23019215475543,24.766337122435285 45.22197102764221,24.77476261304291 43.85474443208841,23.973366938780597 43.84068331920025,23.97362398701698 43.028248090752825,24.798407554887305 43.01177670942161,24.804676352763266 40.79082720542101,24.353505797191243 40.740466430310704,24.312894832239905 38.89380758586522,25.321933717247518 38.815324584975684,25.36598974699918 38.94295958586627,26.29441392435146 38.961863080975675,26.351588318338685 40.9957218685322,26.09613102485491 40.9963553831989,26.11724549409009 40.091026515643534,26.827203070829633 40.060705192976826,26.85704980129121 40.203675617864434,27.19215536397714 40.22218589697623,27.21516443015025 38.52992258675404,29.913237313311033 38.52175971386496,29.926109334333518 38.77766323030992,30.718925380426295 38.77190334408843,30.739151462669902 37.28062438231027,31.135308726558648 37.272847443643336,31.13846742259229 37.87385625431089,31.507642883940203 37.91941105608894,31.522988850389442 37.71823738142157,32.095111757723856 37.69677798231023,32.11396016756952 36.05483903830937,32.70919747461775 36.006029281866,32.70725593302522 35.016901715642966,31.22488998228982 34.96414523564345,31.22499043391326 34.73591975653144,32.48691998991744 34.707047507643075,32.610010603285986 33.97812698853268,33.14632817784622 33.88682805875324,33.24862940314524 33.33497124808673,32.62857828943415 33.333675091642725,32.626469342656854 32.64310769608892,33.09772634084984 32.64164405875381,33.09860778294278 32.20976910053178,31.846616949096273 32.13856787742298,31.752715645131318 31.40268597875438,32.21674926485757 31.377745889865402,32.2488767412844 30.428631692532875,31.596849783593274 30.42710980097654,31.591102103735096 29.569949893422383,31.943150373384192 29.571195077420636,31.938943113752245 28.530031927199527,33.39515482987226 28.49992177608547,33.42729774514336 29.369016517421187,34.84166801481369 29.462347063197015,35.00408963067056 30.05857902764292,35.017273210506026 30.065562252533347,35.026631079241994 29.724287173421544,35.459607522041544 29.723879393867175,35.47993887818629 30.107141203644645,37.135159154511705 30.109835461421245,37.162876294857774 28.725802522754023,36.67424927632418 28.71078021519825,36.66972227174592 27.512206874754703,37.18935573353556 27.472768766309674,37.20341487009609 28.381665704977422,38.72597092843825 28.38228465608736,38.72779888883124 26.22128602853227,39.48132391717408 26.20267380453188,39.48409891544907 25.74226884097625,40.23867943019613 25.710877096977857,40.263138355086625 25.387719080977334,39.65474190776767 25.3585701245338,39.64648403194914 23.41148828275509,40.17287936912507 23.407374078310752,40.173625961863216 23.12198664364296,40.83452144301445" stroke="#009edd" fill="none" stroke-width="5px" vector-effect="non-scaling-stroke" stroke-linejoin="round"></polygon>
  <polygon points="1.7261356071965566,53.36941949624343 4.289787418755077,53.836139334299155 4.290850558308375,53.83804010374479 4.6797047734220545,53.240221414440384 4.818939646309082,53.169040006028446 9.220024289864886,51.69772611846165 9.284380641863754,51.63936847670157 9.564117416977025,53.35445659663711 9.569673413421333,53.3832373534071 10.322631080974316,53.76546581651674 10.342954522754372,53.783517773067075 10.628334675643783,54.799689963006315 10.632914913866626,54.81301524134361 9.791410828532026,57.54160826801999 9.773599600086527,57.60629069414754 9.897571866754516,58.29873287949777 9.909142611643256,58.31048368793163 10.500262768088215,57.4811462325004 10.50720230231127,57.477347199539146 11.999937619643243,57.683568705023575 12.018375080977059,57.69391012483575 12.063580357421962,58.52942400085195 12.060463756531318,58.55134754156061 13.169412976086097,58.143804241334514 13.213038106753448,58.14501489847644 13.77337818853157,59.13972999702565 13.803655820530913,59.213366401799796 13.773851504088453,60.405249069598 13.780958519199704,60.437445944885624 15.84939846942034,59.949820832020855 15.859345377864157,59.89741292238068 16.575209669421383,60.62664875831579 16.58819307919948,60.6291800042487 18.067107582309472,60.28918332863577 18.186288439199053,60.22721916820629 19.05417440541969,61.20412026333106 19.12231728186489,61.249122717601495 20.170835027641807,61.42870705777496 20.17397347386759,61.431937257976465 19.35895321431053,64.26652617227701 19.355217662309954,64.27632274085663 21.046068307642784,64.76457593252454 21.08215679830937,64.79425137285617 21.41098003742118,64.25261346182269 21.480761313865152,64.20967688588898 22.556301736976096,64.14289708890028 22.617570615197838,64.12837384635532 22.75355053342246,64.92527624516406 22.741564727198057,64.95161174779533 25.343511408089036,67.42880694084343 25.363310561863546,67.46696168456002 27.71000180453302,66.11143646535093 27.723895436532985,66.09535456285994 28.545323660532087,66.74487095881231 28.53938172986564,66.7517354671687 29.658124940529888,66.43176713072062 29.673547745864564,66.4346395199642 30.056561975200385,65.68574938137063 30.07803593786557,65.69496666341911 30.75660296364404,67.08606774512627 30.775542867642436,67.20102618417478 31.695952296977705,66.75426391074761 31.823376126309814,66.75380923457452 33.85151143653384,67.99210877250917 33.857336858754934,67.99840628787534 33.0000677245338,70.4005296868465 32.926070298753984,70.48437816316327 33.586913477421696,71.16098201278983 33.64915811386491,71.25034821956834 34.7418908143085,70.5881175611652 34.762673008088676,70.58836136474602 36.1302272836434,71.7889859098872 36.14090965164251,71.82661202605996 37.592917985866734,71.93112398046833 37.62692388808828,71.96482708620206 39.22858003742186,74.87967963277951 39.25072392364273,74.91565697347869 39.047991948532946,75.32704883296138 39.038525637421486,75.34360219522823 40.26088854586597,75.43921211882444 40.278262867643576,75.4522109549249 40.029830455196866,76.07439213645158 39.966231408088426,76.4416052232049 40.84643086053148,78.11331824253321 40.846751258756925,78.11646125023435 44.928071194755105,77.4687094433586 44.95364479831078,77.47900287782578 47.36631622942114,75.18320412174107 47.383719678309355,75.17467806898821 48.721382256086876,72.78764215101728 48.722110433866696,72.78454042812409 50.70879786497863,71.22415348834802 50.73006065608825,71.2012385372178 50.679670753864414,70.35923667140487 50.632120744976056,70.2519576175564 55.47748849608652,69.99217410380844 55.53872824720057,69.99372574802437 56.96566542053079,70.53843681658218 57.00935608720065,70.54885396259088 58.16002261164431,69.99062245915593 58.20465990942212,69.98574585884526 58.46658545608989,68.18909121516226 58.467968993865725,68.16802628067126 59.48683534053162,65.9584235874023 59.49550065608819,65.93845928709962 59.484213900533,63.94554858962984 59.49753955386586,63.892956638909894 60.3061081583106,62.43249805005653 60.328244762753094,62.36135728314002 60.27919470764355,60.86287118126529 60.28549344542153,60.75227709186329 61.0063020640886,59.856785347075856 61.04477169608763,59.748291935206 62.95060954853143,59.22140626955552 63.00870357164131,59.186648193722434 64.705925772533,59.460675819481914 64.7885812320881,59.45073746129529 65.83771792897788,58.813979021569324 65.89444297786576,58.800552334344324 68.24260513964292,59.61308024694918 68.33808380986629,59.60723954269961 68.65950876275492,59.06099537062292 68.72061744186685,58.985580094789114 70.68781155386424,58.776830663285004 70.71562794497477,58.79948619401003 70.4599647271989,58.45808859542631 70.45814428275517,58.452979687831615 72.52201855830972,56.84343863283175 72.53017414942042,56.83788384903346 73.49712142053359,55.39178362899438 73.5081023414201,55.38467163592177 73.2298073583097,54.47437204734779 73.27160476275203,54.38712388262975 73.6035081938655,54.48459721972358 73.60831416719775,54.48648665167894 74.9315588249785,52.04279977019942 74.97000661164239,51.956847502349774 74.58700694586624,49.351892308354216 74.58567438053323,49.346507977198414 75.45322538497749,48.85299614528667 75.45497301164323,48.85099352765573 74.32928298497755,47.05279462069047 74.32928298497755,47.05034617811216 75.17447893164244,46.018676113283796 75.17811982053281,46.014223564109486 75.19632426497593,44.998391839491156 75.20474928186631,44.982882952950966 76.4825046738657,44.07423991967989 76.51126769609,44.063215968160144 76.03642296719954,43.26598109187507 76.01661653164375,43.236022680411764 76.08164280719829,40.99926220425295 76.08382734053194,40.96995996704099 77.42360163386512,39.1541429410503 77.4326310383116,39.15637198776567 77.33869610497678,38.06469991031371 77.34532252275568,38.049762321217344 77.82315278053176,37.92424038315985 77.83633279830866,37.92078458775831 77.93718542053139,36.43604127159815 77.93543779386565,36.428012736449084 77.07334812275258,36.46525612019649 77.0713820427558,36.46202242320614 77.24221254942131,34.44650238826179 77.25823246053369,34.37700777379832 79.9492134383112,31.97070393855283 79.97375302942129,31.933206950879317 79.9705490471988,30.05468276132196 79.95641511653267,30.01748530515069 88.18038940275329,28.07512070834236 88.28335374053168,28.044632855378218 88.5008604427556,27.51235249764613 88.4806171005319,27.44634435790394 90.3132221138647,26.5700699095516 90.34336867386483,26.531977568198997 93.1521688160883,25.849286813411524 93.18348046053035,25.838338046936038 94.09683384720012,25.185282919851666 94.14802474497593,25.153549951363306 95.23686897608751,23.232470477448437 95.28332671830904,23.171999782340205 95.95929414942111,22.966886279442765 95.99300878053364,22.953807938329188 95.57197638942053,22.27391492330534 95.55049514497696,22.219582455887934 96.7972083183111,21.077582046176026 96.81672348275498,21.017423107831924 95.96730410497585,17.884670414244823 95.94973317519944,17.757758983337038 93.23042608186552,16.770517784291947 93.21179929431128,16.737762613458102 93.71847995564349,15.079740006050628 93.73503871830945,15.012048815335215 93.25840267208878,13.74733399364522 93.22847456541967,13.682582377795548 92.72789603386664,13.738141393311157 92.69637321786614,13.730314794542569 92.04933628986656,12.195705259997698 92.01098316630997,12.165487608769395 90.07585072186667,11.72823145527836 90.07265402141967,11.729642773754671 89.00795616542055,10.227906759936372 88.93371115919909,10.150665819611817 88.53354106141961,7.38352671907814 88.48726536364302,7.319596795810861 86.42910000186421,6.947671967144192 86.0503820214206,6.9817411822750675 85.10056877342177,8.116789920452351 85.03989700097773,8.145001171973485 82.79434965164583,7.133071411244231 82.77519129431057,7.093734248885079 81.43543156453126,7.334920764273915 81.35906027919737,7.417682906227487 78.5318882116455,4.31129071262439 78.4706994329772,4.272258581873388 76.51957620453213,5.126707116861138 76.46644835386432,5.134041344294741 75.7501908463095,3.9120619067678435 75.72770471653385,3.8852870868304255 71.46563649253112,4.311167335637214 71.42159630053393,4.313152583186815 66.49613627564285,5.712719110316897 66.40925738497644,5.798589313199404 65.99369360897582,5.675008905996577 65.95860272186583,5.662573340218291 66.03529440542225,3.6201005074926744 66.02729901342137,3.5927521668247153 64.63540903653374,1.955585538056397 64.6135855485325,1.9244362084737021 64.14809790408654,2.2524939514802043 64.14589152542067,2.2521461221494916 63.40269872186655,1.7280207983294475 63.40053603386514,1.726135607196551 60.52460518230983,1.913114236116593 60.495376126309935,1.905719595369368 60.17243656364335,3.2843952371364082 60.157887571644466,3.3377038154318086 59.29490224186338,4.181586318783587 59.23766018675415,4.230466975368103 59.35713231475566,4.842010399258647 59.340238590310406,4.883774917168552 58.35850202853217,5.177407286849115 58.30045169608675,5.225505289731149 55.15414115386557,3.5255922299042086 55.111783052531614,3.515709430507917 54.70770264008789,3.721169278964584 54.70141846586667,3.7274621786189472 55.15408289964435,4.148610136440033 55.15671890319682,4.146725777174646 54.83347350586446,5.696807521371006 54.82384699564318,5.732476776691687 53.07535379742222,5.9032509162967415 53.03143011386456,5.878773242202072 52.64687942942146,7.166926480508477 52.62362871297701,7.197182870631872 51.04885688719696,7.489559294855638 51.02795090319887,7.488909138355297 52.021491226753646,9.476055467270266 52.02530687831059,9.493894654275568 50.39903832008895,10.845459079747156 50.36921215830844,10.898391784237532 50.77897235742312,11.223415408759678 50.781885068530755,11.230360626762916 50.17061623297814,13.151081938772762 50.170543415197244,13.179020977080285 48.80057887119947,12.857360697511826 48.771349815196665,12.859074088976554 47.567351550310924,13.580980257697588 47.56233440542019,13.582648634779975 46.17295664186713,13.15494526115544 46.16557291919781,13.154027022459553 45.43729319653249,12.460432999088148 45.43324452808775,12.458876275559664 45.57115411742016,11.804240519715307 45.58537542942104,11.686731809364932 44.220602792977665,10.438123443969012 44.13517297608669,10.309964264887453 42.81503035564274,10.52861396550033 42.80870249075415,10.53233348950343 42.459271820531654,11.165736153994288 42.40733818142217,11.166139429192476 42.55946908275546,12.471811626710764 42.617796122753134,12.622038659234017 42.12768878764364,12.988394406433867 42.11766906142184,12.997252311198459 40.96170868453228,11.614798346751554 40.95171808542109,11.584499089846572 39.6028270063096,12.229137122912284 39.59810841430917,12.253127299109833 39.225106629419685,11.823752255428184 39.21743891741971,11.824043474838613 39.12067865430909,12.793113731095577 39.117722252531166,12.807257759114504 40.02262149519993,13.506608195424263 40.029182376976316,13.51554364547664 41.08987525520097,15.68834116123216 41.09471763742222,15.703899226193966 39.74921258497816,17.26035607037083 39.75870802319733,17.27787905986806 36.78140026142246,17.689418262929024 36.765584240087264,17.690470009335325 36.77124218142017,16.96300502212434 36.82469771208889,16.916128773348824 36.20182172275272,16.583462653360396 36.04457173164301,16.53642649041612 33.47122059208814,16.74217175954727 33.45876875208815,16.739810516777283 32.234294128088,17.793215711824082 32.23039837697761,17.79682962239203 31.829711272976784,17.30047087765451 31.82392954142015,17.12587701509801 30.51981411386696,17.266107555844425 30.46916934942019,17.247678163821178 31.190444001865764,17.61829064787052 31.194572769863953,17.620886480746044 30.802434472977257,18.053802779970642 30.801167443640953,18.05499990127027 31.184101573420413,18.28091551698489 31.26339285164322,18.448111482001327 31.2424941494206,19.20596172017867 31.237382341422563,19.244641753718675 28.365725893421406,22.401046327432045 28.23364172631009,22.456696134967565 27.72557024542075,20.82999807609194 27.694812016086146,20.76090158478364 26.49655907386514,19.633675270890304 26.498780016087768,19.61893363844901 25.005236421422524,19.67613274098439 24.97413594853315,19.681322461937448 25.029084243644686,20.23782449140162 25.027234672087435,20.240676310156772 24.76743540453208,19.731966722986904 24.76593535830798,19.73063575124724 23.891058885421444,19.88548488055421 23.879772129866254,19.880396011354236 23.965056311201263,19.261968262304794 23.60596272186558,18.950910531189944 22.20999494941971,18.746120502225306 22.159568638309793,18.72540280326975 22.10949913431141,19.438093764575385 22.106397096974618,19.506334448118647 21.121114309422047,19.595903952952717 21.025650202752516,19.615634102253892 21.13012915031177,17.755207969750696 21.148872446308452,17.637524397693408 21.79138739030932,16.8390601730749 21.81477646053136,16.81113974403888 20.74825816008852,15.986365582817593 20.653573203641646,15.945502485306129 19.599703351197604,16.419276380834702 19.58235815653061,16.42941576112825 19.225725808086647,17.758765962058163 19.228784154753157,17.77915164714977 18.116747461421255,18.49422512489436 18.109101594753522,18.50177644875839 18.246020862310615,19.27816497497151 18.26182232008905,19.29423859912676 17.971330359198692,19.38509787464463 17.962643198309888,19.391954484371304 18.608835440087205,21.825331779143376 18.599842444532623,21.839016543464453 19.37968443564496,22.199459183561334 19.385131205422297,22.201091407281996 19.71822884808826,23.80080663014996 19.71318985786529,23.810954756690258 18.485198135198516,24.001228662289574 18.350579909420414,24.060293261200783 18.079493886309866,24.922787661811522 18.075459781421888,24.937392166880088 16.71246389875487,25.03856110134984 16.69832996808873,25.04396924028442 16.46928892986507,26.516282553178094 16.464621310310395,26.563758440137093 15.036060300532336,27.8617580308306 15.014717409863444,27.880017866586055 15.156733921864726,28.37586930066354 15.156806739642708,28.377544360976387 14.009118462309198,29.03606040524646 13.94138336542128,29.07172363416357 12.31238414053114,28.264253299618208 12.310155916533041,28.2627345470235 11.359206711197112,29.160076780959567 11.317096190307712,29.208311440116447 10.69451875386476,28.836223691399567 10.558415045422226,28.730222538290032 9.386966327198389,29.17813133135532 9.348751557422293,29.17410060508009 9.211475482753668,29.82803337603436 9.200130472977254,29.837668006884993 7.871555553867438,28.86373698256393 7.855542924530528,28.87078277486034 7.693166561866019,28.979985819044302 7.592954736088359,29.041699096458974 7.888638604533117,29.53764684256639 7.913098096086833,29.578051791826507 6.777439315642187,30.12561622920511 6.738707539644747,30.116562606435394 6.6512461067544795,31.998569838090404 6.636806341422562,32.04907851395583 5.365961356532717,31.343298852128278 5.321455130754112,31.336825438392765 4.698775749422566,33.16511720279413 4.66053185253295,33.223190951205105 3.3748174774216753,34.24509945246572 3.350503621421012,34.24430743524462 3.2132348285307675,34.633966151644195 3.1895617689751816,34.7173333847375 4.481472936978753,36.346790064577725 4.483118618755907,36.36601420986298 3.6609986258630673,37.98274332605396 3.6192740391987175,38.03532632909664 4.661165367199646,39.111400795895676 4.685027752978567,39.127349728986516 4.660954195644081,40.12755988632743 4.666750490754566,40.13781168293681 5.742247223198138,40.798254639630976 5.75238345786529,40.83687237041922 4.4590450614214205,42.51682716990945 4.457741623199036,42.52671809481289 6.87588166942187,42.72905490086305 6.887714558309018,42.744581265234224 7.920518227642242,41.53631231303479 7.985821210754875,41.52187430971134 8.484987077421465,42.3448692680733 8.487098792977122,42.44529565103767 7.413699212532447,46.602518884514936 7.407597082756183,46.611756934800724 4.575924876532008,47.1926545345912 4.560130700531954,47.20095676223463 3.9072319414222876,49.51504395081611 3.9019890614192265,49.51590052314896 4.033476122752837,50.43447001928907 4.046430405420324,50.464000081710765 1.9801094525308145,50.474610845218194 1.975507368975741,50.47973826136476 2.0019911947561924,51.916072523847475 2.005122359197776,51.96922337707256 2.459461601866133,52.42051799494839 2.464493310310718,52.423486623750435 1.7261356071965566,53.36941949624343" stroke="#009edd" fill="none" stroke-width="5px" vector-effect="non-scaling-stroke" stroke-linejoin="round"></polygon>
</svg>