<svg viewBox="0 0 7503.926605422238 4525.843969567285" width="1000" xmlns="http://www.w3.org/2000/svg"><polygon points="1395.2175269244253,80.97353862072453 1402.7410597244525,93.54397083415063 1403.9973120266586,95.01247217469029 1421.7581505689086,88.92803486015293 1424.6525115999175,87.50156737663895 1430.1199616266895,101.31660081065604 1430.9206659110278,103.11619591931924 1425.5571996711442,108.67955617441442 1423.1559606310693,109.6734184897283 1429.668782675617,127.2342231832223 1429.9833554755678,129.06345833428315 1425.5857442400666,139.6378014426806 1422.170881733393,142.8419369895488 1433.378994088831,162.3439034483523 1433.644342071122,162.61978322946345 1456.896806142271,173.63569437640365 1457.0223439910696,173.71619287037868 1459.9216566310279,208.25273353743944 1459.8200030133376,208.77046421074886 1480.9386149244165,216.2292668979859 1481.3370738044396,216.37892867319863 1481.6930071022143,228.53238819065848 1482.1121462310912,228.95919381015813 1524.4414117244087,224.32577627755347 1524.9895839554738,225.41586803957 1533.608004862188,209.08969316658442 1535.1412559911623,207.7056107045861 1586.023988933397,206.41421451120516 1589.3197215555483,206.00726034542424 1625.3295690221494,221.2620964405138 1625.4932633866338,221.28832056493377 1621.1163323999863,232.10188617793722 1620.2366936444087,235.19344471922489 1641.1077251111637,237.2518974731571 1641.8857102489346,237.78583515409957 1640.5391639022637,255.97736478548143 1640.6949939466795,255.99589957993123 1650.8632684355616,252.22878326403554 1654.0823967555552,250.7975061348185 1647.3251982489382,229.52886950152572 1646.878097093293,228.91307714154357 1697.8158802755424,220.28592377200368 1699.4318523999318,220.14711609480548 1699.6529271732797,210.66231851312443 1699.5879737154828,210.40910760706868 1715.5306979822708,216.38299802513905 1717.6345492177425,216.2116330264613 1723.6458024089006,212.87292767407018 1726.0275262844298,209.9917611331108 1728.4447852355443,191.20129944894109 1729.9157043467058,189.43544191754302 1769.113514124394,189.1021657942689 1770.2413158666823,187.720669786249 1804.4583896444892,204.8808976907527 1804.6485896799495,205.31860173351708 1803.9122563111378,190.62609723359458 1805.301910782211,188.3008539542567 1796.9354393867325,169.39410530837597 1796.2727976088427,166.82984630848625 1777.4127018933432,157.948774897122 1776.5639378755368,156.3228533912112 1788.2503173955265,150.79055904722884 1788.8095579289147,150.2016816522006 1786.630267475477,142.46381164142042 1786.0573372000144,141.01643583164662 1769.6925610932303,142.0969932431832 1767.3717128799544,141.6125749064155 1755.8359205244124,128.5790110524755 1755.142112737849,127.64584766314476 1762.91526488003,122.68775651531871 1763.611694106694,120.98422067074682 1759.8173053422724,115.52612164125424 1759.597978195503,114.73494378981525 1751.0826672622716,106.95781583755854 1750.6565376266153,106.86462614112645 1730.443487599936,113.10191467832885 1728.8359623377692,112.85175706141274 1708.1915397954654,94.42525378624089 1708.0205636532992,94.32255826620496 1714.833103671066,80.54734823128786 1714.804850373279,80.3840202711068 1698.3937621599543,69.49461041749566 1698.2667679555962,69.39280806753197 1693.9527515289155,51.29792972162943 1693.7019671022208,50.53366848637927 1699.292042266672,45.388749611483604 1699.781377733314,44.136212730176 1636.3917545511868,15.052075272869502 1635.8135813955232,14.642048499641191 1633.1292268355392,22.78586851698458 1631.0160549244392,25.65638509082021 1620.1009613066926,20.718149970729087 1616.4166730223005,19.535617944180217 1578.5435642577722,64.23204534149374 1578.9889177867226,65.99484458924383 1561.9303338932586,66.31337763558952 1560.5680589066833,65.83422050448246 1568.2599464088926,79.95149466643454 1567.4088522222373,81.41239621930401 1537.3994809156065,73.28660098728835 1537.3292845778415,73.27890938960593 1546.1320800977774,98.1421657004172 1545.1583607733264,99.2772226945741 1534.5971615555245,99.3319622408959 1525.8339789067177,97.6133148884179 1483.8993857688984,65.31886524786353 1483.3771366666551,65.52835572299193 1479.3573040622068,52.76128567857779 1478.302902639938,48.388835793455314 1445.8209308711594,37.98202527347132 1445.130909608888,37.84400657824119 1427.0435561510749,39.95002660793364 1426.1010028355304,40.70165452999174 1395.2175269244253,80.97353862072453" stroke="#009edd" stroke-width="5.312831556696895px" fill="none" stroke-linejoin="round" vector-effect="non-scaling-stroke"></polygon><polygon points="846.8915046667462,1027.9486432956542 860.1656030133381,1051.3850875922722 860.9657247555224,1052.064778636653 952.1999923466719,1065.4207972337967 953.3883784799618,1065.4451186498404 961.2235713688206,1085.1364713486178 961.6310596533367,1086.7816157687698 917.6709672088982,1085.4355075531416 916.8542430132875,1085.380564184837 909.734411973368,1121.486191362062 909.3889644355295,1123.2774027768533 901.0146287199823,1132.4444113668064 900.9860841510599,1132.4984424024365 936.5971814667355,1147.948069805781 937.9676120443983,1148.8431188352183 952.1079506755123,1173.3461404664336 952.0552306044628,1174.984769684706 984.0580613955171,1160.2497208984346 986.0943377333242,1158.0783883653708 1057.7857701243847,1150.1951401817855 1058.1891806132408,1147.9813865857209 1071.9441675644848,1148.6306125559854 1073.0780860000305,1148.6058501583534 1076.8182983377264,1158.3849784036643 1076.7612091999981,1159.4091931119106 1067.192079386652,1177.8739492301606 1066.7315797600677,1178.1476495218008 1083.7182196888389,1187.3533234724086 1085.9511040267316,1190.7996121219253 1082.9384869243731,1178.6662386094463 1082.9323702311158,1177.2545209906307 1111.2978073867052,1170.0994575513537 1112.1162792088944,1169.8361013763129 1112.5584287555903,1161.6196797299558 1117.6973249688526,1161.5967195967455 1137.3307454844253,1167.3911505450737 1140.6497797956472,1167.46137967395 1147.924275795558,1184.7564172972702 1150.3785261777011,1186.9968077565786 1175.2900704977583,1167.456877807424 1177.4623704444166,1165.944245401282 1197.268223457715,1182.5700225817632 1197.414150284465,1183.2047410244481 1271.4727429955747,1182.6519508813867 1271.8082873155145,1182.6069353359412 1289.7555393689327,1198.8492936184407 1291.0578125066604,1199.375935840049 1310.0213094666615,1188.0794073457141 1310.458507404408,1188.1910430901694 1312.841396364478,1201.049479377783 1313.1967471199823,1202.7275112620332 1315.3265214845087,1175.6883861034653 1316.4126714578379,1173.555021356769 1330.6998107288746,1171.6674331419413 1333.2006644889261,1171.7633210349372 1337.5175936266096,1203.6146844015234 1337.9166350489031,1204.639587707446 1354.1054834044553,1211.7138552777828 1354.6294801333934,1211.773717990472 1376.2487870844561,1212.1184908891805 1378.3168119733236,1212.2085098334132 1381.6661384800464,1200.9675579640093 1382.9177304444383,1199.965143456218 1407.6352882043939,1204.3213595705815 1409.4694223911283,1204.6256342909542 1393.9044767555097,1190.7019320126633 1393.42300560882,1190.515574448254 1402.266870355561,1184.9369278058653 1402.9711639022935,1184.1217033541539 1426.4697520622067,1198.8974566777247 1427.2331736444976,1200.3108351925398 1448.3558633511202,1191.8799422206134 1449.4583245067406,1190.9112464791174 1438.840036151094,1178.7445670628 1437.968844257739,1174.4243058517236 1446.8540695021875,1141.2292322768258 1447.300296844427,1140.3264979863084 1426.955009733305,1144.4313200897082 1424.5756160266246,1144.368737551245 1422.5643890044666,1127.0101718109577 1422.3491396532409,1125.9002537735864 1406.7504065688481,1119.155073002075 1405.1702607911793,1118.7236985604754 1409.3613608088126,1100.2778181572571 1409.179607635575,1099.6689780787924 1391.4342064622106,1077.5505427568346 1391.2874058222878,1077.3019374641367 1430.4196796000251,1074.9527836516277 1430.9506668355098,1073.4498704466746 1425.9815816799892,1054.1286121945373 1426.2099382311353,1053.3903727894426 1413.9782991910834,1054.206534817385 1411.474532720029,1053.8106155383643 1398.2534457155052,994.5610341978969 1397.659835191189,991.3288182366883 1375.7274117955021,951.4236415877018 1375.614981146624,950.4088173439737 1360.4522809155533,948.8942329719208 1357.4329645777834,949.3930871203553 1356.8361500710962,925.5220687759935 1356.5323543022168,920.7082518579915 1321.9060446133153,910.886042080099 1320.7735825333293,910.7120660497818 1318.7105092534111,889.0807190518605 1319.1520762577202,887.8866528961586 1300.2139198845034,886.7831839247152 1292.6003843111466,885.95963543855 1298.0314254489276,864.8884508845873 1298.7179514578092,862.530703211996 1275.2883945511203,854.3315842618828 1274.9647923466764,854.3144526638567 1270.008523119941,837.3404369276028 1269.3598623554935,836.2191289484978 1257.1739528799444,837.5622631564398 1254.9768948888886,836.9026450716552 1253.6207365955706,815.94532154312 1252.310307866639,812.5589561663579 1241.807071599971,817.6033137985283 1239.204272951094,817.6664408047578 1238.4251227288987,807.9965237042412 1238.4128893422676,805.7761475468066 1210.121726319987,785.4819286286726 1209.6169534844594,784.0694750249164 1219.4089056977318,778.0141306791699 1220.1443652533708,777.1410143879253 1231.8185113867294,739.1403901642549 1232.296487279913,737.5120245228533 1254.1980359378285,703.8698018913634 1254.870872204403,702.8005928876588 1303.7659710844528,702.0444739956653 1304.0919034577455,698.1217268917022 1285.8903717244757,697.0019602855097 1284.9207301955685,696.6491559194761 1278.0624606132988,678.2145609633077 1277.6217674221625,677.8053268029831 1244.2400591911064,677.0008433031395 1242.4839856622057,675.1310732399357 1263.7630879555145,657.1959891437797 1264.2681520622937,655.7664615156606 1256.0345002932954,633.6193206800159 1255.501765431116,633.1080119120667 1232.4651332533467,636.1153748126013 1232.3130897333394,636.1275594221439 1200.7672633154798,616.4426623272954 1200.5677426043912,616.1497538415493 1162.6104564888883,630.7856712391145 1160.6481630132548,629.5703362089477 1130.8852070666399,653.988563727216 1131.1304573422312,654.7813996296387 1032.3117812889177,655.2894989856646 1031.0173724710257,655.4325427297514 1059.6586433688426,661.594615872578 1061.1211156177815,661.1122513019142 1057.7362540355898,684.42878000436 1057.8667434933377,684.8131867919361 1033.533372328944,686.6327933133358 1031.8789524177337,687.7305054671375 1032.9939382311204,676.3502156705141 1033.2249162221342,675.7758389034785 1027.2419163288796,675.2619215690426 1024.0487111378243,674.9095333041402 1026.5591768444065,690.9514218789769 1027.0365701955525,691.9435393905511 1015.2068852889133,694.3892996111896 1015.0193066933207,694.4998341526149 1023.61937752003,710.699532937702 1023.7460804533694,711.0775777381856 1051.6964562755093,721.217776472076 1051.7882066755337,721.155974924193 1037.7128215022167,741.1837237918877 1037.6289354222608,741.5170605117233 1059.7404905510848,753.0067176313383 1059.9752550666235,753.1451870266825 1062.7350488444572,778.237370080176 1064.6536516533015,778.6500241303362 1059.1439673155328,795.5018794512504 1058.8314334132956,796.6486495191708 1036.4775407199995,821.3958618048706 1036.182483084478,821.4251702658727 1044.2131188888816,838.9847410430444 1043.9206826933441,842.8211019846273 947.0584746933091,863.1289333745732 945.0192856443828,863.5801970938697 944.5919909244185,868.0197529442736 944.187997893292,872.3311930841661 983.1714321332765,882.5022305559611 983.8337826400311,883.9140483841544 971.3114550311366,897.40023570913 970.9680463911282,901.3018298954481 932.4483157599825,915.8023852185357 930.4062140000533,915.9421036595955 932.7786171999542,937.0840807033015 932.8566778577879,938.8236249978432 920.3296899110792,943.9993634363415 919.5129657155849,944.390975056485 951.0098585866872,982.5541968997346 952.3808717067368,984.2875222706131 954.2697648622343,998.0076573688199 954.1153911733782,999.8701628958585 923.7460087733125,1004.642141459895 923.0169571822989,1004.7290921428718 890.730137057697,1030.4915529357745 888.6734717421714,1032.4794615342757 858.8403194577913,1023.0240086383197 857.1157032089322,1017.5208279957075 846.8915046667462,1027.9486432956542" stroke="#009edd" stroke-width="5.827744155432619px" fill="none" stroke-linejoin="round" vector-effect="non-scaling-stroke"></polygon><polygon points="1241.5725983555676,673.5838986080267 1276.5679485421642,677.6000326411228 1277.6217674221625,677.8053268029831 1283.9580791733242,695.8285000822285 1284.9207301955685,696.6491559194761 1309.928976524483,695.7563147044635 1311.776509182273,695.7712029405881 1333.9754456444425,718.1705333489587 1333.8848603288425,719.0483963465446 1358.5613488622257,697.4761248469364 1361.2355089332923,697.5717697146825 1363.2837273867117,719.1489939879754 1363.4753837777316,719.8238540983654 1430.426670106688,775.1674700856453 1432.0939059466837,776.8221637159364 1436.1862650578623,753.002658266552 1436.3485030666707,750.1931087661429 1450.007370551095,742.6068289736064 1450.0603818932796,742.526990988386 1446.6790155643612,734.3567496438988 1446.452115368891,733.9503270805359 1486.1200367199272,719.8206963352637 1486.436065875554,719.501310923231 1482.6276960978066,700.3747773662686 1483.4522846133696,699.7693343668722 1497.6112645955072,711.7790791856602 1497.9427311200197,712.2320088274788 1518.158111315548,711.4714113039441 1518.5836584088174,711.6690045094361 1530.5741249688217,731.8266328481037 1530.273824453332,732.8830695592693 1549.1187740710811,737.0654622964572 1550.2282257333645,737.4930794772587 1570.6038050399875,725.7107473008579 1580.4298359732857,723.7277165428746 1578.9431882222198,715.527900841356 1578.4596781778164,712.9037324345333 1605.5612899822663,721.0892111884674 1606.1482012711713,721.1541704991029 1624.8131453422611,689.1729079985304 1626.6787368089208,687.5324394401174 1614.273208915467,658.1972846495697 1612.8652043645052,656.4072231620445 1632.9317450221643,626.5908639124606 1633.3427285599537,625.1647464657214 1569.7955277067158,617.9812152432056 1568.4923807555824,617.6842469410982 1544.352996151174,596.2143549832759 1543.8828845778262,596.0545719731377 1545.8087691644687,582.451373484662 1545.9252776088906,582.2459897061123 1520.5992544977707,589.284449426668 1519.375915831166,589.1057034324982 1510.513118462266,568.9276807465136 1509.749114337821,567.9760839356237 1489.1958596532713,559.0819744026882 1487.8408664443778,559.188063012181 1493.1259807556416,545.5848257924441 1493.8232837955948,544.0069362963328 1487.9445589600145,522.413761490701 1487.943102604455,522.2489577983866 1528.2212369333502,502.1171384858677 1528.2634712444633,501.7116383450117 1518.2880182310255,489.3755848964571 1516.275043582289,487.3416361167689 1502.745209200053,487.8162559656554 1501.0971972533516,488.70633474700264 1495.6247956178631,472.05209321660334 1494.163779724484,469.03840596424527 1482.2601119555547,468.6057467149582 1477.1692754755277,467.00742917470745 1468.4454144267147,481.05813206264395 1468.9318371822374,483.147685924872 1457.6578975555967,484.766207096494 1457.386724151067,484.7793033405684 1413.7851864445038,460.00477262863535 1412.6337917422425,459.9618662690988 1358.920486142255,487.90567043636804 1357.755692968938,491.09521420175554 1277.4271983200233,486.251045210323 1275.9353076888729,487.80812737558847 1287.6752810933176,498.90427429226804 1288.0635454844232,501.1494459243037 1282.4082255911562,505.593210138824 1282.0356898400714,505.9183270275604 1285.3136549243718,533.1632088136172 1285.7330853243839,534.6698410087625 1273.771163333302,538.5792705650452 1272.5650096622776,539.7282927395787 1283.7247710133452,548.2882048211537 1283.9589529867299,548.8037753125897 1272.4496663021637,559.0625624387536 1272.4703465511338,559.2151494574279 1289.4197037777412,581.3292083308112 1289.6798088799478,582.6116178371955 1274.4629322222681,589.7683267380122 1274.3484626755599,590.86065777226 1290.4595416444135,607.535180283921 1292.0859995288556,609.6803929604717 1264.2681520622937,655.7664615156606 1263.7630879555145,657.1959891437797 1241.5725983555676,673.5838986080267" stroke="#009edd" stroke-width="6.41422618925322px" fill="none" stroke-linejoin="round" vector-effect="non-scaling-stroke"></polygon><polygon points="7335.10754818665,932.5197391158796 7349.821108364478,929.7683793753164 7350.198013182242,930.4790942899778 7352.744305235545,954.7758628049993 7352.74663540451,955.824463463017 7342.8201159378295,965.7302696575422 7342.448745271169,966.12094116849 7351.085224986637,981.7400203507638 7352.009136951157,983.514353617538 7375.007030071087,1007.9800317369296 7375.642874906749,1008.4233379383583 7395.691939297809,1007.0997238728229 7396.209819333373,1007.0929661221813 7397.793751635567,1019.7422087498486 7397.738410124417,1020.0417848378198 7425.930540968875,1022.1559244245069 7428.549359528908,1022.685244476808 7427.947302142136,1008.9531417324685 7428.443045573287,1008.5517343837779 7445.469589644439,1018.2402677122515 7448.74871981328,1018.7925723638979 7476.436951635616,1011.9801168627815 7481.07544408003,1011.1412718702701 7478.853919315596,1020.2147729485074 7477.579899475539,1021.8230152418033 7483.213665306663,1025.057934029704 7488.085174640037,1025.4534548665174 7495.837646533364,1011.1309101773437 7495.874055422239,1010.9398945324134 7469.091968026689,1005.3985661923431 7468.36000372444,1005.376941221453 7471.895452471195,992.565121702071 7471.817683084497,992.2979473832307 7451.0107312622495,961.5094407999201 7448.024911102235,959.1022656750644 7406.778591599992,958.3839832782174 7404.846007777705,957.4669756608561 7376.299982533303,936.199431496883 7375.734625306657,935.9254283680126 7379.562218977699,925.2602207726228 7375.083925644496,922.0134597620705 7349.7174158488415,920.7010407428967 7344.115107297759,921.4757835544657 7335.10754818665,932.5197391158796" stroke="#009edd" stroke-width="5.0750945453879455px" fill="none" stroke-linejoin="round" vector-effect="non-scaling-stroke"></polygon><polygon points="8.052550000000338,845.3350563803466 22.857569306601363,877.8186444489762 23.21292006222211,878.9244125637703 23.196608879930864,913.4001154802169 23.480015671091678,914.5075065160996 43.06537645331264,934.3025837193487 43.13586406221293,934.3994770312926 44.969124435541744,950.773379525846 45.0567970400225,950.9779666893079 81.31859401774273,958.3028721943043 81.43510246228107,958.3826314270042 91.84309307553485,1004.1515227096166 92.15125791109313,1005.3251313864963 130.23903348446038,1078.8007708887812 130.23408187551104,1078.8773336186782 171.1754405244501,1087.752123580292 173.5673588888967,1086.9581539369897 249.54280678227224,1122.182325041365 251.39208706664067,1123.136015581294 254.48567753783573,1148.794494535286 254.53752379559592,1150.678678256088 269.0317568266546,1157.1397069436275 272.7521627289025,1159.044528204809 361.15993545772653,1155.9601591131427 361.34634896889474,1156.169056596736 363.5870976266233,1200.1379893925982 363.62263270220865,1200.32883995548 385.07212859552965,1248.4016776346612 385.1630051822649,1248.7571933202921 363.4761233333047,1272.9795024267291 363.38728564451594,1273.0735460747742 365.23627465774916,1294.8559365285687 365.23627465774916,1294.8887810327938 374.09062516442646,1301.5619622152076 374.065867120029,1301.6802887682347 348.1540978044286,1341.6471600624277 348.09263960002136,1341.8046000225945 349.9643477600548,1351.0272353740652 351.1151599200457,1352.1881902364325 381.0141394756283,1366.1533517282583 381.0645293778289,1366.2846869487325 363.50758061334636,1403.6445603287207 362.6564864266911,1403.827138982167 367.3503203822547,1421.3458872177648 369.3012542844299,1422.980413267716 395.84449936889723,1426.641977154453 397.71941151106876,1428.6955377748595 377.98754135994386,1445.5320304551637 376.24661392890994,1445.905660468597 379.89827984883595,1460.350400656323 379.7144877777682,1464.5858991532364 425.31880564449966,1453.4761395297605 431.2141329332735,1450.3842252673126 470.1343613422723,1456.1597796284836 474.78159191992745,1457.8115799575821 464.7773030666649,1489.0527186376053 464.90604489771795,1489.4285220645029 506.5257739644512,1528.0564174357346 509.33916162662354,1530.5849860725352 540.0245731821997,1525.4491656484674 540.1445768800113,1525.4289403366633 585.6667562933653,1535.7966398359054 586.0998764355681,1535.7957409756268 623.8521076888792,1578.8846633721619 626.9914277244607,1579.882649182669 646.3359072977692,1566.7520996304006 647.9349856977133,1564.5776036194652 645.1690752267386,1559.5257153801863 645.2634470666308,1556.40833396247 666.787217093377,1522.0081390730115 668.7876670844635,1522.9236839432629 677.6600764000104,1535.8339425335648 678.4322361155428,1537.9538938425608 675.6162270133864,1563.5701112762104 675.8938083821922,1565.7163070525635 696.4150232444299,1574.8670617369712 697.5399122754825,1577.383407359746 701.8291706577656,1613.708580335347 701.9654855377521,1613.765637667187 775.6803783377181,1593.3696155130524 776.0555355289034,1593.1391182951406 782.872153342214,1583.1933593008794 783.5997485777843,1580.5436269273991 781.3622039021939,1561.5573595814417 780.2917825688855,1559.3531528283852 813.6254310667064,1568.7059371185965 817.389527635627,1566.2429666236053 809.6513280266445,1544.583721565526 809.0518920799732,1542.1685675818949 836.3189458756024,1511.1786205185122 837.3756774667199,1510.019856404258 867.0439703021912,1522.821207829787 869.3802558844691,1521.339343937208 861.8459460533704,1500.3427231712044 862.1203234400382,1499.980873075408 880.4840931822328,1523.9834998850488 881.1278023377308,1524.2190138426154 894.1782044711072,1493.9475527474783 894.8312343022335,1493.6445787718762 920.130751742261,1487.97655071281 920.5195986756371,1487.6573854414523 944.9330693955781,1503.5116953716856 949.6426319911625,1503.9086002914478 994.9900487378254,1495.3010411630162 996.7577731110869,1494.7018392524692 993.9697260355824,1467.7648295315225 993.7241844888558,1464.686604203052 967.1066652710797,1434.837669005246 966.8835516000181,1434.24819374967 1013.9552933244049,1413.820165086399 1016.7238252355965,1412.939239383711 1030.0148173066336,1479.1669690051126 1031.518067511126,1486.0984137441624 1046.455615173305,1493.5996271078252 1048.5984967378681,1494.1363493749882 1093.1463742845008,1486.5564864518597 1094.4230155644254,1486.0835791850473 1122.9996242755806,1463.7231606911296 1125.4564960978241,1461.36870811144 1113.3591330399286,1443.9066650389354 1112.7693090400207,1440.796181086021 1121.903279813334,1438.8326597312475 1123.7481910311399,1438.34391238544 1162.6148255555672,1461.491893769627 1164.7725619466291,1466.5716683112328 1210.0256068532835,1469.2308714027527 1212.7216122577447,1468.4850389995622 1225.7096823733082,1440.5457397948844 1225.5899699466318,1439.91491423254 1257.8639741422157,1441.9890330728153 1259.7018948533587,1441.6783436407927 1265.550910035592,1413.1487911992367 1265.9843214488137,1412.093385489868 1277.088450017829,1411.3154308593143 1278.2998465688215,1410.6251624430074 1282.6581362044453,1436.2738057415477 1282.780761342241,1437.4271147452305 1310.1273321510307,1437.8142475173586 1311.4540720622535,1438.5093761903477 1321.4737982844017,1462.617196046725 1321.8780825866634,1466.6768681676253 1326.278606533284,1465.9962152115545 1330.2195046666093,1465.374454421551 1333.009881911079,1451.786989508873 1336.2773612355595,1445.3355484716371 1348.2602547466304,1453.9162965257779 1349.6991340355962,1453.294501451404 1367.597452542257,1424.806031796244 1367.5907533067293,1424.74622729238 1386.4202655554764,1427.4090856952603 1387.5937968622675,1426.5790255723764 1392.6409426755054,1432.9302993974775 1392.5905527733048,1434.1564674802717 1379.0656700000181,1461.5292091195365 1378.2378775022007,1462.8433348000758 1391.57547295103,1471.9462373648198 1393.168725928852,1473.6774903788241 1399.7028107644073,1494.2329952046052 1400.4854562399923,1496.7363320986983 1422.0456351556131,1506.5026236873014 1426.5775223733872,1507.3373254299872 1425.5181693421691,1485.471765132424 1425.1223319022465,1483.7743205788788 1436.638317822224,1469.5788357420602 1436.7155046666521,1469.5666974604605 1418.3910565244514,1418.2166463745302 1418.8681586044622,1415.9480424705903 1454.8748020889252,1395.6676133419164 1456.1068788888879,1395.7643026222718 1445.7795703733354,1365.158889677819 1445.4714055377772,1364.7477900709268 1460.814111315507,1349.7781112389998 1461.545201804467,1349.4241089731 1571.5160661599148,1348.2599907526524 1571.5373289511554,1348.089510787489 1608.5940047910917,1360.7429018839389 1610.2061903910726,1361.0321162761898 1617.9068160266397,1372.8549456743417 1618.0274022667218,1373.4063562875158 1659.5681968622157,1360.14693011999 1660.8725088977735,1359.4816887789416 1669.5873405422099,1339.3350287538265 1670.5298938577544,1338.764189465182 1706.8414981955211,1333.2086624152503 1708.630194088888,1333.2617442313126 1717.1682241689196,1354.7228378354116 1716.690248275503,1357.3703550066343 1761.2631751377849,1355.6890098900544 1764.1720997245066,1357.0599953225824 1760.7123814666193,1371.0306931650625 1761.053751208914,1372.4483581667077 1776.8517137333765,1396.910629487807 1778.901097271104,1397.094113183884 1782.3643107822645,1395.952284449631 1784.4981629422182,1394.4331348262854 1778.496521697707,1376.3810711629699 1779.0420724889045,1375.5008943901407 1822.329037395517,1350.1316631214936 1826.7397558311714,1346.5547353103534 1866.147863351136,1356.4442224154259 1867.6100443288233,1356.4131863355065 1862.1262831199929,1348.5942030697838 1860.0629185689395,1348.5204335039375 1864.0507113510757,1345.1670407207926 1868.640852791119,1344.3051812429107 1873.1724487377578,1316.1939277942652 1873.305268364471,1315.2698704620484 1898.470801093361,1296.1971580964523 1901.5830329155797,1297.483031375777 1895.2749744622051,1267.2477133065472 1892.4231390133282,1264.9343462736938 1917.3477905333057,1242.5850890138895 1918.3631616267157,1241.8573857737715 1891.9038026222042,1198.3375041943286 1891.4948579822449,1197.9760550057758 1896.931141999994,1181.0588450945575 1900.1193955822164,1170.1098117192519 1953.3366664800342,1181.1938926583166 1953.9358111555703,1180.675309559308 1957.13018143105,1174.0371573057269 1959.499089377794,1172.2134983747742 1921.111304559956,1145.071551937122 1919.338628577745,1143.452959366004 1929.8074948533686,1131.596572617978 1931.9698915822446,1129.5330193348705 1930.3929497867139,1114.0883959413982 1930.35362818672,1112.5299143596562 1989.0438832621803,1084.3938329827283 1992.5653509954936,1083.1400339269671 1988.963783706633,1081.7713851613003 1983.8971227288494,1080.1721404334307 1990.00333030217,1071.181294163434 1988.089679102275,1070.2053082084526 1964.7970196177266,1070.4575246545496 1960.7267971111942,1070.9025058184993 1959.2876265510931,1052.4237663612944 1959.6234621421681,1050.71350212067 1908.8965592444656,1045.4267777647833 1906.0994827644681,1043.845735442104 1892.4114881689675,1012.8185081337357 1891.9739989599693,1010.9935050722339 1942.575072737738,981.6683798784867 1943.4401479378357,981.0691221786907 1951.6531194577474,970.8531028304493 1952.6976176622338,969.4039962134917 1949.9488921866068,957.3804568075353 1949.8498600089006,956.8568367672048 1967.9104165243698,937.4423558539489 1967.476713840013,934.8916042605193 1996.8846103022588,917.1193406568269 1997.5839522399256,914.3344347824819 2051.522992951075,901.9463795363914 2052.5456458222834,900.9448477383481 2067.58047803559,913.1161681575246 2068.615073022178,913.368565795921 2091.335384773418,883.9316284337325 2092.5537718310734,881.6646919171686 2068.8530415200876,888.4126919042097 2064.906317964407,889.8754072586086 2057.5927916355213,859.9092005682538 2057.0670472800048,857.9436164889845 2034.1250782133793,844.7106281535595 2033.7816695732545,844.3747436405171 2026.7311610578108,851.6802280726621 2021.2960421243697,851.8348651012417 2017.7818561688546,832.4674169758579 2017.56835444444,830.6941121286724 2008.570116008843,837.1470150932215 2006.4822846844108,837.7836382946476 2013.591629964394,795.2209356504969 2011.7609910310493,793.8581501642253 1945.690217271076,785.5707703925215 1945.1187433510568,785.5324376562272 1958.7499400799643,710.9305102681752 1959.315588577745,710.0192311002535 1986.9598384621568,696.6432908804633 1990.424508328877,695.8000770925788 1986.769055884426,671.3409497029858 1987.0906191910399,670.2544354984781 2019.1365581067294,663.7420051882287 2021.1573970755344,662.9293478346441 2040.935288062181,632.6598824139579 2042.3403799022562,629.6899294471729 2011.4772929688697,618.4708961365756 2009.7165591021549,618.1716719054162 2019.9698847555337,611.9984446673549 2020.533785626736,610.6300027863832 1992.3413635111428,582.852661233315 1990.5826685421416,580.0625902141688 1995.967106302247,570.759989495367 1995.9167164000464,568.7836775105458 1948.364086071124,515.9646518949663 1947.322791848892,514.6041873834107 1949.1275076532984,499.5062101420259 1950.8358127199826,491.54318263786956 1938.145130408906,485.4413400331174 1935.9431208089009,482.7913748259667 1921.6355925599128,496.31678921756213 1921.0349915289335,496.7462325795565 1892.2332302488867,468.93904796613026 1891.704864453386,468.8414964331092 1841.5972039376866,492.14017140379985 1841.1279661777444,492.2891925507935 1813.251573217778,467.97166000350956 1812.8169967200156,467.7711364721541 1828.4955380889369,448.01505286279246 1828.9834172000192,446.94594582889806 1840.3298833333902,406.59608817767696 1840.6036781777875,405.8208729310787 1850.6965134489365,397.8603011637239 1850.9837067643894,397.49707423485927 1862.1772555644638,404.67882587502356 1862.2401701244307,405.5927350529015 1874.847548897822,387.9910660784004 1875.3738757954925,387.4773747470241 1872.7643779110876,369.13278696765303 1872.8765172888307,366.0413177755905 1882.6754600088825,350.28236792804785 1884.068027191075,349.00175641812496 1865.100161164395,338.81579232586193 1864.2042112266427,336.57753688094783 1874.3526792799603,319.3327556511282 1874.5574428711334,318.52197923776805 1866.8932261244408,301.4904590501461 1868.4634686844438,299.1799562047014 1852.4208384266603,296.6597084644378 1852.065487671156,295.927493299219 1867.2526546754889,269.405636824005 1867.6365499999156,266.75033559415135 1848.9727710133666,272.8813474743289 1848.1525515644826,273.4328272335475 1848.3637231200482,282.4267229694302 1848.0928409866538,282.44344746418176 1811.9827962578056,265.00407544847224 1811.5942405955648,265.30875658375555 1817.587726248872,250.5850289446313 1817.5725801511217,250.20528196157068 1807.2181834222065,238.58334844429157 1807.0227405066616,237.9662253201019 1804.6060640977012,185.88062109243003 1803.6664234933924,182.86569331159228 1796.9354393867325,169.39410530837597 1796.2727976088427,166.82984630848625 1777.4127018933432,157.948774897122 1776.5639378755368,156.3228533912112 1788.2503173955265,150.79055904722884 1788.8095579289147,150.2016816522006 1786.630267475477,142.46381164142042 1786.0573372000144,141.01643583164662 1769.6925610932303,142.0969932431832 1767.3717128799544,141.6125749064155 1755.142112737849,127.64584766314476 1755.0014287910672,127.20255972955022 1763.7587860177518,120.40747623224854 1763.8650999732563,119.82077856033686 1751.2620902666604,107.4970486397284 1751.3270437244573,106.98767272229418 1730.443487599936,113.10191467832885 1728.8359623377692,112.85175706141274 1708.1915397954654,94.42525378624089 1708.0205636532992,94.32255826620496 1714.833103671066,80.54734823128786 1714.804850373279,80.3840202711068 1698.3937621599543,69.49461041749566 1698.2667679555962,69.39280806753197 1693.9527515289155,51.29792972162943 1693.7019671022208,50.53366848637927 1699.292042266672,45.388749611483604 1699.781377733314,44.136212730176 1634.3027581422139,14.490437963256795 1634.1055675999742,14.383179102187228 1633.1292268355392,22.78586851698458 1631.0160549244392,25.65638509082021 1620.1009613066926,20.718149970729087 1616.4166730223005,19.535617944180217 1578.5435642577722,64.23204534149374 1578.9889177867226,65.99484458924383 1561.9303338932586,66.31337763558952 1560.5680589066833,65.83422050448246 1568.2599464088926,79.95149466643454 1567.4088522222373,81.41239621930401 1537.3994809156065,73.28660098728835 1537.3292845778415,73.27890938960593 1542.9085827111048,99.26455569008942 1539.4922638488715,99.71061475933641 1483.8993857688984,65.31886524786353 1483.3771366666551,65.52835572299193 1479.3573040622068,52.76128567857779 1478.302902639938,48.388835793455314 1445.8209308711594,37.98202527347132 1445.130909608888,37.84400657824119 1427.0435561510749,39.95002660793364 1426.1010028355304,40.70165452999174 1395.637831137843,80.54372877642857 1395.2175269244253,80.97353862072453 1358.7637822844335,70.09320727395937 1355.4645544088926,69.11726280194819 1327.3065022844603,84.5775739430461 1326.0001513510724,85.14400742061082 1315.8339157600203,82.87509769466817 1315.7753702667324,82.88595594294713 1317.872230995541,63.48321332029411 1318.0350515466198,61.96518039654586 1286.6928236355088,38.84950471201557 1286.5885485778344,38.55355749800913 1265.5013939466808,47.881131802546975 1263.7112416977543,48.51372536409292 1239.2939844534048,41.35463201240748 1238.5168731288068,41.397620759416554 1233.490990106693,52.58798213079683 1231.8284146045116,52.69431722208503 1212.1681971467115,40.13239051405219 1210.0599768444445,41.62749728348683 1218.2114901599489,25.872701851163242 1219.2845329333577,24.26616012110719 1205.3259474755978,13.573983969086498 1204.1958155644606,13.408342984308206 1171.2757720444133,23.712239890337173 1168.9365737511325,23.71495518906852 1142.470224239958,9.583630494867634 1138.5957359199892,10.605099147047099 1135.5685552622672,19.603049142962504 1135.6335087199477,20.903245294910107 1148.7948851466426,22.429257481394984 1148.9489675643636,22.58040994589794 1101.8408169511022,47.89199179327227 1100.213485253371,49.16894193963492 1093.925524506696,57.44269181063976 1093.8058120800197,57.42640253777029 1100.4368901955677,70.01040826013889 1100.3439747111188,70.06063061647694 1069.8007034577677,36.04342025225162 1069.5700167377727,35.38409150785412 1028.9149775911137,58.41280631806114 1028.7332244177596,58.5643863200454 1007.5444161689156,40.72111265370734 1007.2228528621854,40.03193200400676 989.773091866613,74.02544554972667 989.7244495911073,74.1150297171913 967.4052181599909,87.83726084940247 967.6262929333388,89.39537850532327 939.788639031096,94.15788341066911 937.818189964375,94.28727080763895 912.4289610221531,76.89121577857406 910.9434783555116,75.89765650951415 890.4647890755223,75.55018116129907 888.8467780533028,76.18405179048534 910.0245179999401,99.03338273041993 910.6204586933382,100.21095985090471 918.0202012711452,135.854653654074 917.6296067110743,138.13612939869165 864.6328280444504,136.38567333514914 863.2926896622885,136.5720274653064 803.7507578577861,156.58291119166063 803.2730732355049,156.91940291171306 822.425313875523,172.9478380562283 823.0547507466763,173.5561003306426 831.7241440978614,221.14363570113312 831.9830841155272,222.62439032152872 830.703238853348,231.4029111824708 830.9222747288659,232.0268346363224 811.3136122578071,235.84131916039735 809.8441495022053,236.93090128675215 796.8569532000474,231.8098179851437 793.7645278132768,230.85313367486344 801.7808913333356,221.2856077246612 802.8606333421558,217.3560231177613 795.5648745511207,211.70681039451267 794.3083309777794,211.38396798328142 779.7651643999634,146.69099863337 779.153495066661,145.26717034911383 740.3244345155326,123.32375188251137 732.7697357067154,120.96748379476014 661.0136411288768,130.12191083675827 657.2661470132662,130.53760082097835 651.0792573422441,141.54789525256604 652.3244413422435,147.99948320419173 631.7225443823045,147.71725283729722 630.021521093302,147.728107858136 617.4639496799573,165.79463691285457 616.4319761333536,166.48115902665415 623.3534515467254,199.46785497383792 622.7744045777727,200.33830988207012 590.9134228178082,194.68232577920537 590.5108861422414,194.60680916967215 574.0904772532886,225.5555766273534 573.8895001866404,226.10175044227037 536.9950623555123,179.15519927591197 536.3615476889318,178.24802928113024 485.55134125331097,186.43503405512422 485.0226841866752,186.55351364098135 445.872642871087,169.8644423122529 445.53476838218194,169.64419809144567 438.56523323557485,197.18973369032722 437.90987323548325,198.74842702321587 415.5052993688514,230.85675063668862 414.0072920444436,233.18922640002677 407.3610678310288,233.47315468019917 401.15291536888253,235.11387312701083 364.96073218665697,272.1336833459569 360.7943902133047,276.32536094918726 352.0620823022691,326.91070305658616 351.95926359992154,333.3694662898557 335.9093515644563,370.60350124291256 333.03887476443924,377.0560018301836 295.4619887200897,387.7543254566623 291.6358514044914,388.1984398091223 292.07334061325673,475.5304499063419 291.9708131822772,475.8709663970873 252.238812186617,456.71224959448557 249.03337360893056,455.96340820802254 223.5148202932687,488.6702078250015 219.3790617866689,493.28672845822405 228.7515836000457,532.9948012727906 228.80896400890924,533.0349843171203 224.5977662844598,558.2630588912649 224.6242719555521,558.7768000726134 219.54159106672887,570.0408812422316 220.27413791113213,577.1325484575715 196.75020916443464,593.0561363546655 193.01873495998007,599.9213782839721 212.4581689155675,644.3772865910793 212.5205009333804,644.5943448419927 196.8160364355208,665.0857484738586 197.15798871996958,667.3197372389037 218.98264180447586,681.5267576449329 222.66547373330832,681.3904988070495 218.1726168443929,707.7387608859932 218.19620980448235,707.9557562077895 204.1214071733193,705.7122577909391 203.9603342489354,705.7136112053773 23.626816311130824,812.6013424219924 20.45400009779405,813.158224911174 8.052550000000338,845.3350563803466" stroke="#009edd" stroke-width="6.296247996667891px" fill="none" stroke-linejoin="round" vector-effect="non-scaling-stroke"></polygon><polygon points="5884.889366213327,4424.33391288072 5893.558759564512,4443.598336878211 5923.743476079988,4443.200929711085 5930.766022568896,4442.073903941062 5936.0607488266905,4486.711888806873 5936.782518640022,4497.772535607197 5945.682307440067,4494.309796227179 5946.425631315542,4493.965248699977 5967.908040844464,4517.062048848347 5968.856128311112,4517.791419567286 6017.476849804494,4479.023697495555 6017.990069502244,4477.290192302295 6016.555850551093,4453.826003477421 6015.877771404434,4450.746221609043 6006.601660328895,4448.970803685581 6005.319776168886,4447.854895447475 6004.79315800008,4434.084763323051 6004.254888986681,4433.737460695011 5996.889516400035,4439.526653751476 5994.560512595555,4439.9081000136575 5988.052350888938,4417.718366247696 5988.048273093278,4417.642512983621 5951.903858373269,4429.473977118825 5951.871818551073,4432.680025071408 5931.718479102223,4431.820854906437 5930.924765324431,4431.892267731811 5927.436211226719,4422.1954371083775 5926.116461822159,4416.689243723908 5884.889366213327,4424.33391288072" stroke="#009edd" stroke-width="5.9219590748618245px" fill="none" stroke-linejoin="round" vector-effect="non-scaling-stroke"></polygon><polygon points="627.5448428356103,1221.8196195361447 666.0718552444378,1247.673093685043 666.3007943377379,1248.0893633786832 635.4406201155871,1285.1350965569504 635.3643070844482,1287.133291957703 656.484666622222,1289.2057086348427 657.603730231036,1289.9062584251292 675.2090300000054,1317.9403585101022 675.303401840014,1318.5818826270765 710.9721708355719,1300.8034110070216 711.7766616444351,1300.3053572720742 726.3134202577421,1280.3156855802295 727.9302661955371,1279.5026160581979 735.6008909066222,1289.7969242124013 736.343049697789,1291.9620014216412 736.823647031073,1330.827614841844 737.931933608932,1332.3930901839408 764.4623627643814,1325.4252894186425 765.8409489333644,1325.2219517263943 772.4158117244733,1305.90445983169 772.4560071377564,1305.3906710912484 794.7050422311077,1294.7565031365152 795.3152552088504,1294.5535868888032 900.7277266755482,1282.5060537518943 900.9706467821743,1282.459258933704 892.0428959555938,1251.4653938598708 893.7832408444738,1246.6321909760368 874.0822454311201,1238.8065862461003 873.3657184978729,1237.7048856894612 872.1814101600103,1221.1760115297288 872.0847081511529,1216.8975454513925 858.2353493600167,1205.1293070481984 856.6371447733618,1205.3876695677532 858.8167264978183,1191.8043192872788 858.9693525599796,1191.1826797795725 843.273917466613,1193.6044080919596 842.7569112444544,1192.2742613783116 864.2093198488947,1172.8838107180559 864.6771012532772,1172.1365181152719 862.6836417688537,1155.2236138087242 862.5761627289248,1154.8611929904214 854.0524049333544,1149.239316432016 853.4497650044286,1148.9862903222452 789.0753541955273,1142.0189528868427 786.6595515999725,1142.1414178573536 752.0970302844435,1156.1839135222613 751.3100157421795,1156.2717044250817 734.1541472978206,1125.5688532195995 734.6787265689127,1123.3683588226336 726.7794540355462,1123.5255055649682 722.7703984621694,1121.5618385961639 649.622901786679,1133.2958488864601 648.0445036355886,1133.5236787766694 642.5383145510932,1149.8988937947793 643.0477477244349,1151.526443083399 660.5211016799803,1146.5717221792215 661.5096758310465,1146.8585182605088 671.0383189599743,1159.7229845272154 671.2057998488672,1160.2353144504955 654.7449042754961,1168.7588137572525 653.3642792089158,1170.7814810447521 663.1617655732916,1177.2783798142696 664.4864665866844,1179.1618681777395 666.2198209689013,1196.881350957999 666.2116653776975,1197.1622294924232 627.5448428356103,1221.8196195361447" stroke="#009edd" stroke-width="5.315567993844455px" fill="none" stroke-linejoin="round" vector-effect="non-scaling-stroke"></polygon><polygon points="1602.327306835541,894.4104388026532 1615.619172719984,913.1341965698881 1616.5314338400276,913.4537499331415 1650.1412073510946,907.7048730017628 1652.9176035822384,908.2980216670327 1673.863200453321,926.86871069749 1675.1383853778025,927.1224445086915 1693.637887457713,915.2592852691665 1695.3546393867364,914.4592808125086 1717.4458055377254,927.0332095607079 1719.0550784267034,927.4289076892088 1735.9822990488974,920.6933789328683 1736.4579447732322,920.789376885608 1735.3015984622543,929.4281187223747 1735.6578230311643,930.9180508577043 1744.8453876889325,937.0349586558074 1744.9205356355305,937.1728608896734 1739.4781349244076,940.7709067444445 1739.080841128809,942.550078889915 1817.8487051643679,958.4164277033193 1817.962883439941,958.507001697995 1814.2657792266473,950.1663763971079 1813.3124488800313,948.410248726817 1824.615224346613,943.8420876861561 1826.9771417866941,942.4482320401363 1815.0003649688806,931.9334162157971 1814.763270284493,932.1001646255969 1815.3498903021464,930.6106912179163 1822.14233261333,913.3099735129869 1830.8967771288953,914.9194527475989 1832.3173063377399,913.83640207674 1818.9371853066623,899.7675236658321 1817.2183944799253,896.8030007882986 1814.0452869955698,870.8291409868758 1814.2651966844933,870.5451383801188 1793.9965138755288,860.7287898106512 1793.4567885066863,859.7658397580741 1790.290380257742,869.397854252929 1789.0559732889305,870.2940437045542 1785.5170292889015,862.6704556949331 1785.2883814666202,860.7301422655361 1791.8647006132887,855.41583135652 1793.4672742666226,854.6124521125818 1784.998857982202,850.2122979460761 1784.9554585866645,850.1843458639702 1808.9891117778388,823.7599147377547 1809.409707262159,822.6146395685861 1827.706193377824,817.9090287020441 1828.5951528089136,818.2521683722513 1842.8467570044813,790.6842971607472 1844.5512755466407,789.5090849975601 1886.868307653327,789.3440316705743 1887.2417172178175,789.1298229318705 1900.158425911075,745.2387597833655 1901.0045684888973,744.5238339840213 1878.7802914399435,731.9132410029193 1877.3717043467113,731.5749277033971 1870.2976028711782,742.6163012748362 1869.84351120887,746.3370797205495 1854.6123622666128,742.7998834159586 1852.271125075502,742.2586088471359 1842.2432432622663,756.5090191996202 1841.4917637955878,758.0123079909023 1807.6262542488766,742.6131438411318 1806.279999173341,742.5951013617811 1780.9402863200303,756.5027047334949 1780.1920108354898,756.9862119012756 1736.7774691822488,758.8945212613104 1736.5808611822795,758.4849871184339 1731.1879765599515,787.4873986383678 1731.1431208088543,787.5708279568713 1725.2518713155077,784.3436685200792 1720.4645393333412,781.7776008118886 1719.4587801866946,791.8162108075118 1719.2208116889014,792.7257961320935 1710.314614924464,791.8644635696907 1708.9235040977146,791.643943849696 1710.9781305155266,797.738594102069 1711.5679545155508,800.878524059524 1698.2784187999569,816.6176283219608 1698.6969753866797,819.0462122455716 1672.87287867556,811.7112293274619 1670.0140527200201,812.260899391818 1665.1084646667368,832.2996908174606 1665.5086711733384,833.4156084030179 1655.1193219111083,833.714988959931 1654.394348115522,833.6094844128016 1646.3206041865997,865.3987669191916 1646.0686546754805,865.8725663409347 1625.944733608958,867.4138724858418 1624.530612364506,867.8110309224354 1607.2043503200184,879.7434797555103 1605.263319635509,881.2707140744675 1602.327306835541,894.4104388026532" stroke="#009edd" stroke-width="6.26881233472883px" fill="none" stroke-linejoin="round" vector-effect="non-scaling-stroke"></polygon><polygon points="481.46509883550607,697.4364231914293 492.5698099466754,717.4167232024262 493.3413871200537,718.514731851035 509.840730480013,721.0206430062896 510.93357968886994,721.3472438918321 540.9193580355277,703.5111437580559 541.4657826400144,702.633669490962 559.5353685599766,709.9479526684514 564.6122240266777,709.2085503495542 559.9862562399139,695.1851470619218 559.9393615911031,694.7150379770679 616.6679057333167,700.4803462421183 617.87842847102,700.9319458575116 629.688306942211,715.0835492872644 630.6171705155648,717.0838008378411 627.1120139644263,725.715709366115 627.0359922044227,726.2786774995981 638.2350751556005,731.0318209913454 640.3633931644508,730.8162018394574 634.3815583556207,757.7885969024861 632.174305875531,758.6563781526417 676.1632341600271,753.2155492916714 676.2844029422631,753.0504685572593 687.4240665867474,776.8063790171651 688.4452631021632,779.7044306130043 701.6890692533707,787.7922537232877 701.8711136977436,787.8062337540101 702.5786112267306,792.6112526256835 703.0268774666838,796.9350028838741 691.4683659644579,797.8269799367769 690.9137857688838,797.8161571834713 685.9933428888689,834.2740720349026 687.2533817154836,834.3498186641151 715.2695848089425,815.1895939500315 717.0239107111483,813.0648851920629 730.1753839199446,829.4681652809737 730.3903420000352,830.6373012092441 748.5697371288916,830.1602692561934 749.3351976088961,830.0845211754564 784.3724908355871,801.473315419025 784.726676506667,799.980697190949 798.0642719556126,804.4688927915191 798.1102927911343,804.4436404668737 757.0917472977671,759.1980631429248 756.6801812177073,758.841299907224 758.2807159733275,743.9564022527553 758.3313971466632,743.7777827384194 779.1028138933252,718.7199875804141 779.6742878133446,718.5873608233884 775.665523511103,706.5378390138864 775.0573494310738,705.5498480029415 817.462636684395,726.5006164613657 817.7480823733858,726.4518981720099 861.8619659645265,713.234856676521 862.0160483822474,713.2253831015329 865.7457749600071,700.1582256664766 865.787135457831,699.3732239558373 892.12532567999,706.1439965572569 892.2683397955043,706.1006873778312 914.1355184621425,680.2999738546565 914.651068328858,679.54513068169 906.8380120444126,647.8966722591209 906.5560616089278,645.3159153155062 861.9205114578144,644.3475031135382 860.7146490578089,644.0952459220786 840.4541218399318,629.7427309693081 839.8610938577694,629.6538258349534 836.1575816799668,618.3260229173826 836.0964147466948,616.4841839915385 846.8058709599791,603.4590827597782 846.8277162933737,601.8021731874102 829.4938811999527,595.7273323926271 826.3732025155114,592.9428422556736 824.35440244442,578.9399613892089 823.0966937866542,577.2833172408642 792.5956568444162,603.3530156479461 792.0827284178013,604.1279814018413 783.252553413251,599.7056297171872 781.7644493066255,598.2676014003588 766.0853253955502,566.1315633214323 766.1360065688859,565.8187245798541 779.644869431133,506.8990933764504 779.5373903910877,505.80634237602465 799.7306339822026,490.02767281296076 799.3033392622383,488.3807406466 774.1482922932846,487.8740592640021 772.6998010577881,487.5624631775787 744.824281911111,471.29156224840665 743.9545463733157,470.0279188329365 733.9100621066536,499.9099081245146 733.9260820178097,500.8374172171822 681.7049583199914,519.035035180255 680.0621892533745,519.0765753640222 611.0353049866171,584.7706169059162 607.6184035822298,589.1761185385764 573.9742600800018,586.7964364774303 573.175303422242,587.3281658637931 576.7783270666623,617.6725126229936 576.1005391911385,621.7487962858064 494.75929488891416,618.4347906703839 494.1825780889267,618.341367748893 495.14639419559535,635.4113740030222 495.2055222310373,635.9429850805096 511.61894061332714,639.801865089779 513.610943742191,640.6755302503949 481.46509883550607,697.4364231914293" stroke="#009edd" stroke-width="5.948315673915117px" fill="none" stroke-linejoin="round" vector-effect="non-scaling-stroke"></polygon></svg>