<svg viewBox="0 0 50.71102071112479 55.30189004879436" width="50.71102071112479" height="55.30189004879436" xmlns="http://www.w3.org/2000/svg">
  <title>Krásné Údolí, okres Karlovy Vary, Karlovarský kraj, Severozápad, Česko</title>
  <desc>Geojson of Krásné Údolí, okres Karlovy Vary, Karlovarský kraj, Severozápad, Česko</desc>
  <metadata>
    <collboard>
      <support-module name="@collboard/map-svg-geojson-import" version="0.11.0"></support-module>
    </collboard>
  </metadata>
  <polygon points="8.05255000000011,24.617707861157783 8.92082918223582,32.70478828825401 8.952068008926062,32.91932757767029 14.047492008896143,43.17685815096013 14.533405040019488,43.33305270801759 14.27126104001195,46.20051000544447 14.183879706695507,47.128204443920936 26.479816844461084,45.93305340823247 26.6555261422252,45.91093543743011 24.172804008914454,44.33962909886725 24.212708151120523,43.406215581642414 34.531278533373325,41.85536846475554 34.903887102241924,41.690888961784026 39.813261680021014,36.46993773958059 39.93603245335521,36.400282344424 39.11435664891155,32.89277966283373 39.093239493354986,32.81041297275044 36.98975234668592,32.505677825923726 36.17179024892516,32.412986268092595 37.96907864002401,28.146053861484347 37.98764717338031,27.9924253461719 36.4040061422636,27.019926355911252 36.06482093336649,26.765991310654158 39.63114441780613,26.33232469921461 39.771974000010005,26.30486583874847 39.43526459558757,20.008478194249278 39.4587119200221,19.84381915009692 42.525141360041516,13.349545855256679 42.65847071112489,13.077160963882875 40.56663440890384,11.521136119357493 40.54238608890569,11.49412377054216 35.33547807113041,14.406726794120573 35.19938164446626,14.783402831649823 36.221160702239786,9.913878017461343 36.30686722670339,8.906210448716251 34.188598071144725,11.195398077462983 34.17032080889453,11.655062692639717 25.53449645336491,8.419508726110166 25.43699344891479,8.401802144762428 16.23755949337624,13.723164912582092 14.809675688920606,13.923592547310932 8.05255000000011,24.617707861157783" stroke="#009edd" stroke-width="5.765138224700854px" fill="none" stroke-linejoin="round" vector-effect="non-scaling-stroke"></polygon>
</svg>