<svg width="445.902946417802" height="271.82401336636394" xmlns="http://www.w3.org/2000/svg"><polygon points="5,222.23525440669619 6.573446542257443,228.09430526720826 7.643867875565775,230.9509062828729 18.549932088935748,228.4209455443779 22.018097208929248,228.06324015225982 29.669498026720248,242.21019804279786 31.21585635561496,245.2429392398335 40.98538069333881,244.80120958172483 46.576620942214504,244.87566872889875 46.055536924512126,249.7844343293691 46.11786894220859,250.35451268451288 49.07368817785755,250.47601957595907 50.85073322674725,250.50662468443625 52.36039139563218,242.16588745603804 52.6370989511488,240.23951019661035 49.884295679978095,239.98689175175969 47.649663715506904,239.755286517262 48.35162709339056,231.5055018896237 48.40056064003147,229.7590234404779 63.57258154661395,222.34672632685397 66.12499029340688,222.00454389792867 66.64869575109333,250.61534130357904 66.7002507377183,252.7024157390697 148.38810766220558,248.10570930619724 150.29127310228068,248.11667245056015 154.02653383114375,260.6298264784273 154.45499363553245,263.62759570160415 164.53792568889912,265.7419504200807 164.75958300451748,266.82401336636394 207.26331989339087,260.7896963702515 209.0709484089166,260.46447520900983 221.3200637155678,249.96897908928804 223.06157368887216,249.48386356700212 224.9778463288676,239.10432373336516 225.029983857763,238.49675670353463 255.92365425778553,235.0345057460945 257.021746346727,234.7083322670078 261.2186717867153,234.83898444788065 262.4632732445607,234.96872289909516 262.15277824003715,241.50305481394753 262.54715932451654,242.38378582103178 251.7136216177605,242.54595322499517 248.39254840894137,243.51758467778563 251.44390456890687,250.51210619602352 251.41681635566056,250.69893429719377 272.4931939555099,256.8787881885655 273.4351647289004,257.3533812541282 282.2231054222211,239.4387132814154 283.0709956266219,238.62420887581538 286.19109176890925,245.14609682722948 287.65531164442655,245.85048735002056 298.2409776356071,238.02486324077472 299.43402410671115,237.70737383689266 318.38324878225103,241.90596228535287 319.06278428446967,242.00417657807702 313.5994120533578,233.12039946200093 313.57902307563927,232.56261017627548 303.09530197340064,230.8494891402661 302.73092181328684,230.4355970660108 342.2505861688405,224.36097749252804 342.3263166578254,224.34041934204288 338.3300770133501,218.75264171609888 338.37697166227736,218.68411276617553 356.14247054222506,215.0200666745077 357.0975485155359,214.88848880428122 366.7124078933848,216.8297111496795 367.60136732447427,216.9795623748796 363.1667646577116,227.4423937590327 362.97103047114797,229.00021688069683 391.14451996446587,228.88646419311408 391.81823004444595,228.97463395213708 391.19927893334534,234.40180184092605 390.9039300266886,236.26107808941742 397.950360746705,237.422775026178 398.6546542933211,237.56347560847644 401.29881344002206,220.8286017641658 401.37629155558534,220.16159212216735 406.5344116622582,220.41240626276704 407.41608931554947,220.64768702315632 410.6133723022649,211.84344388917089 410.9783350044163,211.41398174717324 426.4002665245207,215.70262559386902 428.0348800000502,216.22482283296995 429.75425336894114,211.45144549984252 429.97445432888344,210.77389882557327 423.6031900445232,209.0487265860429 422.36091875552665,208.78876167547423 424.01533866662066,197.9339201899711 425.08692508446984,194.38786306104157 418.3055510756094,191.48645887337625 417.05279402667657,191.29181209899252 428.7219885510858,166.29378304746933 429.09598065784667,165.44473065098282 402.92964039114304,151.98694277077448 402.6867202845169,150.8124484505388 421.9117787022842,145.90692354890052 423.179099306697,146.29264240677003 440.8473136355169,129.9076689716312 440.902946417802,129.6197291475837 436.82951992889866,98.61093993549002 436.7459251199616,96.44375590456184 409.5333390223095,85.19516921858303 405.80652515555266,84.81939864711603 387.789950577775,69.95856682822341 387.5583900444908,69.49819253606256 383.70458197337575,53.37578861397924 383.41331086226273,52.47417136951117 400.6708329244284,44.31143829494249 401.1930820266716,42.900886102579534 411.8425363911083,45.96065249433741 413.05830200889613,44.70191043813247 401.8589277866995,34.45978512929287 401.25424896006007,33.786714213201776 396.3273981155362,40.654957130609546 336.0133065955015,39.225634337810334 335.8909727289574,39.23615082271863 332.8655396978138,32.545276973512955 332.83000462222844,31.93850192776881 313.5330022400012,27.00056098564528 311.5200275911484,26.22503933100961 281.34142776892986,43.0508577284636 278.56969187560026,44.85965366871096 256.1386123377597,69.35281097725965 255.41655125340912,69.4209300216753 254.9050791822374,61.28901051945286 255.07547278224956,60.11631013615988 252.47121777781285,67.41346650762716 252.29499875556212,68.90386479278095 232.31729578669183,60.48023654881399 229.9923697777558,60.34536439436488 230.1447045688983,45.751700905151665 230.27024241781328,43.14367548155133 224.13286883558612,44.02932859165594 222.14843875553925,44.33384245331399 222.3068902400555,33.92526091111358 222.35728014225606,32.53293115302222 204.70450318220537,31.640372194116935 204.09574656002223,31.658205119136255 205.63773582223803,11.592034533969127 205.71171868452802,11.224824847886339 193.34085205337033,15.442897100117989 192.63044181338046,15.34503729181597 194.0107756089419,8.915002191672102 194.43282744893804,7.383033361576963 186.90492558223195,5.257008506101556 185.95742065785453,5 183.48889799113385,18.20993346418254 183.37238954671193,20.441462395712733 173.65325511118863,19.20955152239185 171.23395726224408,19.075568217085674 169.05874460446648,65.4558173440164 169.07185180438682,67.52273225190584 179.9068458667025,99.81040137610398 180.11277454218362,100.56600381922908 175.66972501331475,106.97823348734528 176.0140074667288,108.86831485282164 179.70120846224017,110.53623510478064 180.7293954845518,110.51246653153794 189.08683747553732,134.53339261980727 189.3387869866565,135.34783150989097 173.92530232889112,134.11246088170446 172.5021516799461,134.33412427682197 155.39725568005815,145.11903123511001 153.83749887999147,146.0083804714377 142.33287253335584,161.77338611957384 141.8653824001085,162.461139614461 139.95959552004933,177.44219941250049 140.00503381330054,178.01155429380015 143.57863907550927,180.7321909046732 142.5883172977483,182.46444273064844 131.65807758225128,183.63145448308205 131.0065041066846,184.35158075939398 130.80174051551148,195.76590220863 130.79358492442407,196.47273785236757 107.0171241244534,203.22479816002306 105.37493760010693,204.22219185251743 114.8997942043934,209.05877794709522 115.12057770672254,210.257627853367 106.23710008896887,215.32525392709067 106.19486577785574,216.17411082040053 5,222.23525440669619" stroke="red" stroke-width="3.833487018049662" fill="none" stroke-linejoin="round" vector-effect="non-scaling-stroke"></polygon><polygon points="141.4109994666651,164.2415199126117 166.10962460446171,167.11952672281768 166.5742020267062,167.01031122088898 158.0853967644507,173.06689024961088 157.58761443558615,174.42404521082062 170.73297095112503,192.45466405601474 171.16143075563014,193.36529386258917 184.42271317332052,187.78539869881934 185.35536327108275,186.93140435306123 208.40481137786992,193.17201951722382 209.00599495111965,190.43965925520752 208.56967082666233,198.2765975476941 208.4412202667445,198.84955287876073 215.07084202661645,197.00960242701694 215.75620295119006,196.62671531754313 211.61665791994892,207.07636638416443 209.30891690670978,208.51417625532486 221.87231374229304,209.52936387673253 225.15726933337282,213.0715181666892 223.07701105775777,220.07433248969028 220.89276899548713,219.4283360018744 223.3344947200967,228.2414076628629 223.58294897782616,229.81247329059988 266.0094990222715,218.6617266377434 268.3166574933566,217.8087677383446 259.82144426670857,202.5888030823553 259.0897712355945,201.33554007520434 266.2934883555863,203.14621266245376 267.53954616887495,203.50076096045086 264.01487445330713,192.73338206519838 262.98027946671937,191.3014073665836 271.1367443911731,185.3239302065922 270.8711051377468,184.86608575686114 325.14860288007185,200.20380490948446 325.41336832009256,200.63877205149038 367.3299026489258,197.9439720667433 368.6790704355808,198.29167533898726 375.7945324089378,201.91990969271865 375.97890702227596,202.23882223584224 373.4704802134074,210.8022251619259 373.09532302222215,211.3148398338235 396.03845717338845,219.63986123085488 397.67802225775085,219.7485933416756 403.47256974224,200.78132411802653 403.89491285337135,199.52576615224825 401.09725383110344,177.3206515474012 401.09783637337387,176.1060830433853 404.0941422933247,166.6858631707728 404.3257028267253,164.51524751563556 384.6049009778071,173.19666570454137 383.73050510231405,173.23459302354604 384.4773242311785,160.44402782502584 384.46043050673325,160.13967720163055 358.0846663111588,157.43980339716654 358.00078023120295,157.43112060718704 365.9157814044738,145.86624936386943 366.09578695113305,145.65373804833507 362.67975936003495,143.59442404750735 363.2098727822304,142.74345457705203 379.04104021331295,128.59091245784657 378.5924827022245,128.355531675159 319.76562147564255,113.74222605943214 318.0616854756372,113.42181193263968 292.30720256001223,113.83135686640162 290.75851406226866,113.56487849866971 278.74911487998907,102.87896284641465 276.9368260266492,100.93580465891864 266.81661127111875,111.23055054573342 261.4432418133365,114.4200763516128 244.48485518223606,114.65638644027058 243.2128742400091,115.85530193010345 244.18193322664592,106.3753237722558 244.3817452088697,106.07455393124837 229.2126370134065,114.56314225809183 228.87942286219914,114.86755693948362 221.1662725689821,128.53652352298377 217.57693866675254,131.54800457134843 204.89674211561214,132.17186815140303 200.77350826666225,131.07816326757893 201.0583714132663,138.23170665907674 200.75399310223293,138.4949554729974 173.92530232889112,134.11246088170446 172.5021516799461,134.33412427682197 155.39725568005815,145.11903123511001 153.83749887999147,146.0083804714377 141.4109994666651,164.2415199126117" stroke="red" stroke-width="3.9018163561210155" fill="none" stroke-linejoin="round" vector-effect="non-scaling-stroke"></polygon></svg>