<svg viewBox="0 0 4991.930851608907 5200.804134110017" width="4991.930851608907" height="5200.804134110017" xmlns="http://www.w3.org/2000/svg">
  <title>조선민주주의인민공화국</title>
  <desc>Geojson of 조선민주주의인민공화국</desc>
  <metadata>
    <collboard>
      <support-module name="@collboard/map-svg-geojson-import" version="0.11.0"></support-module>
    </collboard>
  </metadata>
  <polygon points="8.052549999993062,3302.595878665503 69.35266704889364,3323.1770892137647 72.86721709332778,3323.677799919962 74.81094203554676,3341.6653167653494 82.57972511110711,3361.3901823782 103.69222032889957,3385.9651104119184 125.10472479110467,3403.3275694933764 148.54221883555874,3415.7462332776267 179.7201698400022,3426.086075507228 174.86715622225893,3444.071173433964 173.33594399111462,3465.589839584187 181.62967042665696,3528.120853045715 210.7359556533338,3591.21433252695 234.3796696444624,3619.8954729806646 269.56092361776973,3644.8328325173425 281.29215888888575,3693.2701587388656 300.69219842669554,3748.7262168220404 329.52971323559177,3780.0073503246604 365.47344216000056,3802.107245283194 415.060965288867,3817.4447650808943 462.5297095377755,3820.8197242281385 532.0109767377726,3808.1947488052756 591.3171973955759,3781.8511512997284 633.8922228888841,3723.457579824033 646.198427333351,3696.076445580031 650.2734558133234,3682.307706302636 672.9820439022442,3686.686515741392 691.3244052177761,3694.237296811225 688.3796542844211,3708.8326620407097 685.6921685599955,3728.326323480833 640.0359316178074,3802.3072411966787 608.5984580533404,3869.5945467160855 578.0734640622104,3927.763099647702 521.7546655555489,3963.450470029544 481.33592009780114,4010.4440323288945 458.5171587111254,4058.0501222868115 448.45468845334835,4099.687405838595 388.36094352888176,4141.631033268226 358.9296725600143,4173.474651535005 333.85472514666617,4210.180743922123 318.11093904890004,4257.05560809443 311.7171740711201,4310.761634927076 309.72968564441544,4352.305198882801 317.19845947556314,4398.842608435247 335.60468198222225,4445.048608372534 369.5234213244403,4479.860992074966 373.5984498044709,4502.560973671316 343.6421626577794,4534.4671121843785 265.48596795555204,4578.104393405367 253.5672269066563,4597.391836868766 231.41722399112768,4634.304255860006 228.2546750844631,4687.641536426578 244.91166893334594,4762.586181280123 402.68347223999444,4762.586181280123 560.455275546672,4808.805488298407 567.0074191911262,4925.027072448291 572.591668933339,5024.0802946513795 704.0681716888794,5142.958214467253 847.6799027466332,5192.751584110018 980.1087892177457,5132.185275610136 1045.9078798489063,5102.0880763381065 1175.7672453955456,5093.133497678929 1215.8205184266844,5071.924026232584 1400.6112125422223,5121.322793148553 1409.9992445422104,5123.804371605271 1472.6882150666788,5078.373490018152 1478.7707568622136,5073.964747151294 1497.05770384887,5071.940595254528 1514.9106568800053,5069.353846039863 1519.138092968904,5059.250030621617 1527.1259119200113,5054.525712578477 1534.1424145333294,5040.324455111455 1531.8171244355326,5020.55054958845 1531.6241573244624,5013.2577921996635 1535.0577340000018,5008.315607413002 1537.0577470844437,4996.065565206132 1539.2139543022204,4985.581193822574 1547.932718106691,4971.94051347256 1560.1827072266897,4965.940550344218 1563.9026034044218,4965.327829771231 1570.8076948177768,4964.1905113517205 1598.6827042399964,4969.815515987146 1611.682716471114,4969.940523099394 1658.659576631122,4959.750675605763 1699.0164997955435,4952.158903821175 1707.4278269422066,4955.27154607846 1719.840345342236,4959.240244183813 1727.87156368891,4967.5902403253785 1732.2890541777888,4976.597557524867 1739.0028532888682,4982.402745309017 1783.0735559377645,5002.415878010936 1798.163438391086,5010.58958027661 1813.6295703022333,5025.529797193063 1816.667600808898,5027.826867631775 1828.4121617333149,5027.345224304772 1837.3039405777527,5025.344558087607 1846.5090543200204,5014.087136040347 1853.1465404000191,5009.827820263417 1862.1465992800076,5008.327769375777 1872.7530911555514,5010.912597854629 1880.3634227466537,5011.129569725796 1881.5393570399901,5002.913362044441 1882.2958609333436,4999.589944929663 1880.9118134310993,4993.270240926366 1880.7430218222144,4989.930685637541 1882.1253945155477,4977.973592196409 1883.0925602400093,4972.830833672364 1887.7587962577527,4964.795958762545 1889.0766523999919,4962.544426842411 1895.4835245777795,4959.640309887698 1901.2145021422475,4957.049107403167 1896.6337541955581,4929.14936916477 1895.4426009866584,4925.732127629461 1895.4271636177727,4901.154381898923 1897.2185537688783,4895.989196336966 1899.2388830133132,4890.15151927618 1898.512307226687,4885.599957384264 1891.9779311199964,4882.503044706049 1888.4467058044684,4873.542146076601 1886.8169711200171,4869.546834788613 1887.4450972711493,4864.632785283924 1885.8420138932997,4863.353064961753 1885.3097887555778,4860.160029824423 1885.7598026222258,4858.503758521394 1887.5287648977828,4856.026339975469 1886.2869305155764,4847.944112960693 1886.3310580888938,4847.667882309317 1891.8325140177622,4850.385163558145 1892.9822339111124,4850.454241647742 1897.7368707111164,4847.1186500527765 1899.0564016622375,4846.8588552736255 1908.403655706672,4852.137767457993 1909.8278986222285,4852.467079798887 1918.8024712800106,4850.73073800264 1923.24938015113,4850.552594688699 1928.3876210044546,4846.555744714402 1932.1462562399975,4846.143190780487 1934.0532810222358,4841.406537177907 1940.7388268355571,4836.868977357772 1942.8927038844558,4834.9217218860795 1949.9253720444394,4834.680908977862 1959.822254675586,4825.827785253721 1966.314469288889,4827.741859894151 1971.845707688888,4815.127039456136 1974.1324043644418,4811.71606420153 1989.4251571466739,4809.652671170879 1994.123797075561,4805.865308248198 1997.8017502133443,4801.649567737732 1997.462637822231,4797.665175538154 1998.201592631085,4794.010145433836 2008.2164400622132,4780.655122252087 2010.3381316533487,4777.576432453519 2014.5175808266504,4778.0551352885595 2018.5926093066519,4777.125461333613 2017.3421824266843,4775.183329779677 2017.799987795559,4774.133703148698 2021.5703466933046,4772.234108466284 2021.8999927733385,4772.055943610911 2025.570882586675,4747.428623650347 2025.6935077244416,4746.786456423804 2029.2818221778143,4745.084494185918 2029.6907668177737,4744.664199762039 2029.4493758844328,4740.823620038202 2029.4505409688863,4740.494689561434 2031.918335457769,4736.997808120555 2032.1126861066732,4736.724547384241 2030.338845040009,4735.352306672394 2030.0124757599842,4734.689765497496 2030.5729541955516,4730.034772867868 2030.6039745688904,4729.4133490222375 2036.991477217758,4715.3114045196635 2037.1443945511419,4715.131886755575 2039.5475268533046,4713.19417498423 2039.7359792622447,4713.093771499982 2046.220766462211,4714.326179250456 2051.7278293599957,4716.187148262754 2058.302910604456,4705.722360365144 2059.8513078311225,4701.834865212797 2063.8888351555506,4700.400552194471 2069.687241982203,4698.50517983389 2080.3138315644464,4691.197437814837 2082.251366995566,4685.27394825864 2093.7056034400302,4685.138602099738 2095.476895884465,4686.516583665849 2100.017229964462,4683.918808068316 2100.9500256977917,4682.5662329271945 2103.7856956000032,4676.876233213356 2104.0935691644263,4676.409868630486 2103.5432123999926,4673.201059684616 2103.1607734311256,4672.342907081496 2089.3443282755616,4663.081517072969 2088.894387226668,4662.793232859745 2090.964596648875,4658.584124661873 2096.613799848885,4655.777906757132 2100.3263414311223,4652.413810904538 2103.0435368088656,4639.61070860472 2103.962278711115,4637.368447627399 2098.8153725422453,4632.4374162544045 2098.7732838666707,4632.327535152617 2098.890374853334,4632.248135290654 2108.6421316533524,4624.51032340651 2113.4968928977905,4614.987055645186 2115.8667474755202,4610.4797840733445 2117.5511683110963,4608.845377714308 2126.0682996888936,4608.790696011616 2135.3246043288673,4596.310986341523 2136.555370408896,4591.814981306867 2140.3986927200167,4589.239608718555 2144.242015031108,4586.921874684158 2146.6210446488985,4584.386831365373 2147.6187210222415,4580.180524019561 2153.2746962755336,4575.725540677777 2156.728661928908,4569.22010174668 2163.639578764414,4569.33880283968 2167.469284151128,4569.706033021903 2168.789761733351,4566.004799074937 2176.0265381244535,4564.557116238859 2179.529655777791,4559.0055530850295 2182.4272936088673,4556.748552053374 2181.7710597955447,4554.025840731418 2182.3780687911203,4552.1133656449165 2195.1631957599893,4550.793023045444 2199.8667872977676,4545.7038870111355 2203.3052427644434,4542.611868859945 2204.3993298755668,4538.364542192816 2206.4749278133386,4535.108148086911 2218.076911528886,4531.807522728508 2219.462051297771,4530.743434833006 2222.1585664266895,4519.429733667152 2223.119469822239,4518.315706368325 2227.601112773351,4517.170755896812 2228.3042412355426,4517.334467281784 2233.2952445422125,4521.714434228365 2236.6827275644464,4526.168351879744 2296.860067297792,4501.600298380297 2302.4577155111183,4500.896469008228 2308.6413283822476,4504.966732542052 2331.831970159983,4510.066003422828 2338.178840488894,4512.1581548374015 2342.944399955566,4518.009354908667 2344.6658850399836,4518.834858005539 2348.96868752889,4514.94019499921 2362.2709663555434,4512.391767103989 2365.781074515544,4514.837825384566 2366.782683048892,4514.804970552279 2377.2248252000136,4506.014427237773 2379.949083902233,4503.803082629376 2386.973305199994,4506.980051835686 2390.371273982222,4508.380521675477 2390.5222980533435,4506.468512933403 2390.2996212888975,4506.208797082822 2402.6616041511297,4499.0159961165555 2406.6170658399933,4496.647994075516 2418.0482918666676,4501.30501027243 2425.709231813322,4503.394092405819 2429.646925964451,4507.81339430753 2449.4701096088975,4517.09474690412 2454.324142675556,4519.4148850406855 2460.56935938666,4514.930821178765 2468.3085056266864,4516.147086675082 2472.9834797777585,4517.024027837491 2476.7397120266687,4524.647523771091 2477.435048986663,4525.2529267885475 2492.108923475549,4529.474542774471 2494.172215208906,4529.98349430845 2503.3366966311296,4525.48983424293 2508.085143919976,4523.069497207987 2512.2124555644405,4519.020281591736 2514.9944587644422,4515.355426091184 2521.8608839377703,4512.238253214855 2524.2726087377523,4508.335875651777 2541.41245727113,4502.035941122078 2543.74765058668,4499.878864642924 2557.437465626659,4499.890561332279 2574.7804029422114,4499.825022713332 2575.7124704977905,4508.109396405802 2587.238214000012,4509.016608271246 2587.8917535555374,4509.613798355691 2590.748030888906,4509.898190402826 2594.9519468355575,4506.770832801914 2604.8933211288822,4508.1193280936495 2606.9988471733523,4508.213818284021 2609.4796760444297,4506.1898613632875 2613.1405898222,4509.742907296306 2619.92655135112,4507.973415672568 2627.723369271087,4508.556228088062 2634.0989298044296,4497.939414022774 2635.890392773348,4497.002716955081 2643.3708174488856,4498.164349344581 2645.5708609689027,4498.229982414741 2646.2739894310944,4503.451087561123 2646.750508968893,4503.8120866984755 2661.8614357600163,4493.867518322782 2666.552866728889,4493.109667885357 2674.018509395537,4498.771383175823 2680.8934542489005,4496.3394087142005 2684.5458483466646,4498.006625481263 2686.197428364423,4498.105771543276 2695.0021171466797,4485.701538811532 2696.2071785511216,4485.664398622648 2705.0294164177903,4506.419874301464 2706.200544737774,4509.502695783602 2723.6583156888955,4524.933151440353 2724.3567838133604,4527.247173415373 2734.311483760015,4522.167485988226 2743.1051770577615,4517.514419416104 2747.867678177805,4518.151904564751 2750.1717054844194,4520.448898437135 2763.022004364466,4514.880518080499 2768.4597447377746,4502.320086721556 2779.0235653955315,4502.960129338528 2781.484150924458,4507.781649884775 2793.557921022206,4509.2820679933575 2809.6115467644413,4511.381668984388 2815.589667866676,4514.696475243625 2819.87251828445,4516.266809446177 2838.8282237422536,4511.764065719144 2843.7157529866963,4511.971877013806 2844.3531998133403,4516.134371918648 2849.9047543733323,4517.446856216331 2860.2328638844483,4517.06105790921 2871.071134746686,4515.990704285003 2878.5192283288925,4517.029689077848 2876.7828884178016,4519.601513476453 2876.555988222215,4520.56053975183 2882.8305504978052,4523.102348005741 2883.050897093315,4523.380094363929 2899.197001413326,4524.2593540111775 2903.2516409155796,4523.2062826274705 2914.3547500355635,4515.503085882046 2918.798527742212,4513.465612024411 2932.232169840019,4501.815010359067 2937.207226053317,4496.191614020492 2939.4149882577767,4496.030636264761 2946.616593662242,4501.600948179803 2952.807197040034,4500.641558796058 2957.0853143022105,4496.603340264577 2959.2657698399853,4492.4767731350075 2961.6814268000016,4492.118127038055 2963.322812328901,4492.445485679527 2964.8688793866604,4490.12599558659 2965.831384773337,4489.859531809103 2968.3298355466686,4491.533779546553 2969.0595424977655,4491.184598394881 2969.6790761510783,4486.714993798938 2976.318601128907,4479.941036064723 2982.66073830222,4471.858247798264 2988.4201147999847,4475.328508183353 2992.7576513688837,4467.964485584242 2994.5123413600086,4463.669160703175 2998.9170159199857,4462.530152799249 3003.7935496800055,4461.616090335643 3007.073262391117,4466.512927376658 3009.003734497761,4466.199652687756 3011.082609235542,4459.309004920804 3011.5857800800295,4456.536366411885 3015.7607873688976,4449.664515407996 3017.701381146704,4449.2426540894885 3021.125200240029,4441.098288387679 3022.14472194665,4439.429566567727 3032.1101989244635,4433.847130606613 3033.162270177767,4432.956373270899 3031.610668968904,4428.3876413165635 3031.3439374488953,4428.055138123709 3033.1924167377583,4424.661894443612 3033.1991159733443,4424.237924414461 3044.029959422216,4418.040519000446 3045.316868008871,4417.30532797725 3050.9116035111074,4410.192705897272 3052.248537911102,4408.951189294101 3060.7759365955426,4404.210608123765 3061.1028884177795,4403.956446401418 3063.4304358666413,4392.383352306271 3063.504782817792,4392.0680579719265 3069.6832984444627,4381.69840941397 3069.8232542133483,4381.713381501402 3071.841981466656,4372.097544401222 3072.003782568907,4371.614832935993 3077.1383097155485,4365.180952502757 3077.5654588000034,4365.107654871019 3077.3323690933466,4364.093665071523 3073.68485378669,4358.023079217841 3073.7717982133618,4353.932921481355 3073.57620966222,4353.85309924397 3076.8537378400215,4346.554823950595 3075.867493857804,4342.753254350588 3079.931162764464,4337.930476634014 3082.27997300445,4333.677911067476 3080.904153911135,4312.223548607792 3080.4521739644697,4310.615572133953 3081.5321344266704,4289.524260508442 3081.5570381066937,4288.988339212978 3084.756214355555,4288.49823054282 3084.84942111111,4288.44198375487 3081.354531866673,4288.254618285813 3081.2208384266705,4288.204983110954 3081.508687102236,4281.695192526102 3081.495579902199,4279.939421492942 3083.4448389955505,4276.127827877521 3083.5317106044386,4275.573543506362 3081.7841567555442,4269.867528581926 3081.594830533315,4269.873490163263 3083.152038711094,4266.350568737187 3083.1789084711345,4266.274275068274 3081.3126616444497,4263.660209507689 3080.949009662232,4263.384646522049 3079.2704870666494,4264.635290916711 3079.2541030666325,4264.610976935706 3079.8071540889214,4257.665480131858 3079.9069872622204,4257.516320069371 3084.4878808444482,4257.8760365557755 3084.568854213343,4257.860384596621 3103.892580719985,4244.417912193625 3106.013325679989,4242.197738796131 3115.6888422666525,4237.693798554908 3126.8239183911355,4230.194013494191 3238.6219992444385,4233.127110277412 3331.8860623911314,4235.559609597964 3307.5673276000016,4174.46578850106 3299.5485610933392,4136.778324318126 3288.8720913333527,4089.4518238341043 3246.7408173777512,4048.9456328417364 3226.465799422236,4007.751840200617 3168.4345452355337,3945.2393987965697 3093.8158381777757,3913.9019133763286 3061.9783037421876,3885.220660326093 3054.80953915554,3865.7456174018516 3018.0470471377485,3841.445654538482 2978.0970297155727,3822.945596646641 2943.028279208869,3787.4893970820776 2875.3033039911243,3734.9456315258794 2836.3658177689067,3659.6081565748536 2771.8033186400135,3582.951879796041 2724.278286248882,3526.083146748999 2717.459556720016,3479.5019078586265 2700.0170775022416,3419.5756624918213 2711.628309075575,3396.758076952341 2725.978290088882,3360.8268644870914 2737.2720361511165,3324.8580786776074 2730.1345832089137,3275.570629361806 2726.1762088088726,3261.1910021003496 2776.9970466399973,3249.2455939788124 2849.2282772178005,3218.9705714667143 2891.7157757422538,3190.1581289749665 2924.509553235548,3147.6893502736857 2947.3157899644575,3149.2143646175027 2998.578340435546,3148.2018295619273 3071.2345355644356,3128.864385771005 3112.947034479992,3111.2018235596115 3145.453327386698,3095.076874191487 3198.6470781422395,3068.8206227360424 3243.228306231089,3037.570625040411 3258.24078338666,3017.339328291353 3293.3658220355574,2995.720637943152 3328.365832559997,2967.8705920953726 3365.4345233333006,2953.576844988602 3418.2908365066687,2928.8331136121633 3463.2095749955624,2896.3643694037964 3518.859542213322,2803.2206471208265 3524.0657948711305,2771.7331371970868 3592.4282897333615,2745.514340169517 3641.7782812711084,2706.420604271574 3658.1533246844483,2681.001905985795 3694.3782758666785,2670.5956639779542 3790.2658179111313,2611.870588648402 3815.603273413377,2559.1143718388266 3855.703295457817,2520.7268297070477 3878.415815706656,2470.9393240634163 3952.865803973342,2421.3456633442183 3967.3487502489297,2388.223676089234 4010.372041982191,2366.826826649449 4075.0806863910984,2327.897238028854 4151.609549395565,2328.8393218894125 4250.622066373326,2271.30812514641 4287.034523333306,2192.126901314121 4315.828274657775,2120.264397005034 4325.334562728909,2032.0768418890002 4320.040783102217,1977.4643479875594 4304.44707444447,1934.0956541492124 4307.572049377806,1878.7018629912563 4302.665805964469,1824.3331480855195 4306.1095771288965,1794.208116079004 4331.197049199982,1727.2081570823866 4352.409523226699,1663.0393538788703 4355.422067511128,1607.8456233839315 4350.747093359998,1552.8956611154936 4307.478332897794,1464.0956183127928 4272.39079540447,1426.076883133217 4314.165771973319,1397.3268976160252 4345.540840702219,1373.5893388540644 4367.76577311111,1334.7143996335872 4383.234526462213,1293.4331311279893 4392.453329946671,1275.733089064648 4425.7657884711225,1242.4581270344133 4460.478314408887,1171.6081633700596 4479.815803475532,1146.6206076843591 4581.859578906704,1073.333160223694 4592.971644613339,1047.6515845170434 4632.115787688876,1023.9831341835015 4665.865808240022,994.3831226140683 4681.9894846844545,976.5299637876087 4738.45333620446,970.7456177057393 4779.328285039985,962.001856792449 4812.135825093341,939.5938725282394 4858.340816808894,917.2393455548663 4902.234572257788,903.5518555641102 4951.528275653342,873.1956057816205 4983.8783016089,837.2456621765959 4832.788548862212,725.2918380627161 4821.824521697767,717.1677130163516 4816.588705022266,715.8599221586555 4812.997914764448,713.7884667439139 4811.5484040800075,711.874755308927 4804.082761413301,702.0180925090172 4790.367460151145,689.0911539607259 4787.19391575997,685.5937641803248 4784.16367675559,680.2907218582332 4781.20203209779,671.4520972654791 4781.265165111137,664.3489194241483 4781.365653644461,661.0837458156966 4787.37377567112,652.0414496357917 4788.605415564438,650.6112691597737 4798.952748968906,642.6099071791032 4800.105600026698,638.097431611277 4792.793384417746,626.0422464992516 4786.271678604477,617.4454280912978 4784.591845288902,609.8697219180249 4781.528619831079,600.4166605235878 4774.426556328894,593.4059357503647 4769.407518177759,588.9213379597713 4759.196863742196,582.037364546959 4727.563801626646,579.9333094805406 4723.883882408874,574.762793417256 4719.917352417804,564.8371034231895 4719.236579013319,561.8833627339263 4720.0849789422355,549.2845390727962 4720.239498266688,547.1475840001003 4735.645628328901,538.47611245195 4735.575723262242,534.5866300997368 4734.0385399733495,529.9052231385358 4731.825971795566,528.0653036692165 4715.569184453314,524.3853990629214 4712.447996044444,520.656886153527 4709.643419333326,511.3600518075182 4709.361250444461,505.0603017016765 4711.563187226682,493.3856930448601 4711.0973719022295,489.93867361541925 4696.191427155543,474.61351260559604 4693.893589359999,470.91025872101454 4692.50051245332,466.23212583245913 4693.007688275538,451.8194243173857 4692.664498088881,447.9424723791526 4681.884190177778,431.7281930543468 4681.681465484435,430.2682784577846 4683.684391279996,423.56065305804805 4690.1125990666915,415.5253773550721 4690.974324648851,413.242916402196 4690.561375031102,406.80442333639803 4690.3113187822455,405.77320869469986 4687.74267167112,401.2702106982397 4687.0217028533225,400.2219836486256 4670.6546693955315,393.20837732429936 4669.302880168892,393.0026444303003 4654.424897448916,402.06195957751333 4649.270855137787,408.59918836756697 4647.8007370222185,423.68468448498606 4647.814208311116,425.5413675345844 4654.483370124421,433.8990128494552 4655.968707155553,435.95118859540526 4660.4171452000155,448.52807443493657 4660.4171452000155,451.7887766499698 4658.577185591101,456.67975394840323 4654.990473128884,461.03508037802385 4637.013657057774,466.35192018935777 4632.69061122663,464.87908579559735 4624.804591528897,460.1289281434947 4621.648304951144,457.5820026797519 4612.349984453322,446.3417522507734 4611.96288514667,445.36024012233975 4612.238427617762,441.9540434792507 4614.601947048912,435.3643793151641 4619.288280773355,431.7341267919619 4623.00897794668,427.4585230185112 4627.016868435545,418.7596340135715 4627.75859031998,416.6676147961334 4625.089017768914,407.91931880480115 4621.734594017791,403.2087010400792 4614.488060044445,399.8366859698217 4612.840921911149,400.2968858709428 4600.057979475561,412.7863744987044 4597.844464666676,414.5985736663206 4589.870117004466,416.10347263106814 4588.477986728889,415.6619879702703 4587.72650726221,414.86101612944185 4585.190700968873,408.8602713245273 4585.226745768916,403.1035262451551 4584.801635582204,401.4855135749458 4581.68183071111,396.24095288351964 4580.0518047555815,393.88979459660914 4571.172186479991,385.89409657808574 4569.179600808886,383.22355264468206 4568.635360737768,379.54083675638685 4568.237921306689,378.3049674152353 4563.095238568931,373.7523477180439 4560.479478355526,372.4629072228636 4550.4901899644465,369.94809392430034 4550.23226939555,369.7767336363977 4544.539448346652,361.9503763319153 4543.413612684468,360.31078721084486 4533.755572364433,354.71684589896904 4533.1058921511285,353.9606307170834 4533.41136272889,351.60874906837853 4533.495467262255,350.62067649661185 4529.14722648001,338.44502940444363 4527.241002693307,326.8513554891324 4522.990993093321,318.78878811680624 4521.975403546647,316.0700513835691 4496.316821644461,309.79182709771703 4494.650823706674,308.71013337324985 4493.761500186665,301.79322539838176 4492.57573549333,297.79125490466686 4487.221371475549,289.7963458369268 4484.272615564434,285.62665887729236 4483.114084719971,279.28058701309055 4481.788437075535,275.1497466626097 4487.68441972445,257.27770193680044 4488.409102248901,252.66642610803683 4487.501938373345,245.3188520302865 4483.674563155568,240.83226952500263 4483.890759137808,236.29545664438774 4483.659926782246,235.65296820567892 4485.169657768885,233.46968751065288 4486.132964151126,232.62397527341818 4490.6759196711355,232.79194790556357 4491.519295173348,232.49350595982833 4494.4239963289,228.8650582097398 4494.548951635545,227.63885833608947 4494.170881733327,224.84781787415704 4493.661084471096,224.04515196024295 4486.740410053346,216.45686569256213 4486.527854960033,215.99389897342917 4485.138855848898,212.16071802467195 4484.912902284443,210.6950880756267 4485.954123688891,208.80511122667667 4485.954123688891,207.0862954004042 4483.07520002668,200.90661753340828 4482.890461324452,198.8213719055857 4483.563880133326,195.30113073020038 4484.135790960019,194.0096300984078 4494.167022391106,180.5721026256433 4495.799524151109,177.95727257891122 4495.951276399981,171.19207935570012 4494.744176097796,166.2876870522814 4491.455798071111,160.44947914196382 4491.572597786639,159.28906204815576 4503.411384915555,146.12421100914798 4504.840579439973,142.80821310177998 4505.77315672001,138.18008223924699 4506.958484506642,131.482252159396 4502.531673342222,115.4479140135445 4501.327631386666,113.0666027509942 4497.141628613346,109.82854695952119 4494.1745226222265,109.33226588955586 4473.816419582232,113.51116097399063 4469.626193377771,113.55002984243765 4440.786858124455,104.07026622886042 4436.07765961776,102.68735917348386 4429.3306556000025,102.93652138084144 4428.048407351103,103.02421510102431 4413.952924471145,113.99269580453256 4410.924578728882,114.58228253514244 4401.299524862232,106.83230818318407 4399.189702568896,105.54252236452157 4391.275211120024,104.32847037936881 4388.584011688858,104.19116595887317 4384.1117622311285,93.62685063819663 4384.50781812449,90.59590835094423 4391.669155297801,87.20450403735595 4394.831704204436,86.48974127474503 4400.623630248883,87.13369446284923 4404.497681662237,86.09680218902213 4407.470904346672,81.70905980942916 4407.826983280014,79.46807394966163 4407.856984204409,77.22024228097143 4406.699764079996,76.37287019046926 4399.074868933298,76.53391058272246 4397.440983635548,74.96874713591387 4394.169062426692,63.7770856269417 4394.335159777809,62.65901081123593 4416.20969304,47.16822074037191 4416.97435252447,46.42233899348503 4417.334509253327,41.08287389265752 4415.8814304978005,38.30263657692558 4412.6314274400065,36.80258567599958 4406.995549893327,39.11420741145412 4405.256442906655,39.67754311495082 4402.506406711123,34.42757089490624 4400.881405182212,31.55256588593329 4387.38142608889,29.30257594235445 4382.256438071112,30.302603807613195 4376.33992080891,33.52933919577481 4373.756418871082,34.67760822416312 4356.506397039979,49.30261638072989 4352.715649164427,50.22161358928861 4341.506444542232,45.30255389384547 4340.773460791126,45.126105262075725 4334.038544524461,50.10697603338485 4332.256402231113,50.30261603838153 4308.924421146658,45.52607466770132 4298.865810231102,46.82608158245421 4280.256426124484,40.42758769264765 4277.1238781422435,38.142291838616075 4274.381414995529,28.427563039986126 4274.756426551146,23.67758752998634 4279.384578871104,11.294997031443927 4278.256413040013,9.42763858584658 4246.506405573338,9.287332969128329 4238.0543732889055,11.9667262813673 4229.136598497775,17.510053108991997 4223.561742248916,21.877012101547734 4221.222908044467,32.741384841479885 4222.113105377764,35.563381131847564 4224.721875084477,37.5604290054398 4227.881438462209,38.30263657692558 4247.616002871131,37.58571019456576 4248.03790907556,37.562320118369826 4249.76274377777,41.449727593128046 4249.402441413316,42.946778417121095 4244.438235048903,49.16280021995044 4243.484759066661,49.8704358841278 4217.403834053315,43.729923843180586 4214.790404008905,43.61358224751166 4203.8406491288915,53.18679063732998 4202.384366391139,55.240677156041784 4201.1023365955625,69.79272984610725 4201.192193733354,70.10330521061405 4215.311342391127,97.4021176407623 4215.307410231093,97.63648557929992 4212.54528628441,100.80707649981923 4209.381426657783,101.05256747612293 4204.881433626666,97.30258308593329 4201.756458693359,94.92762672680692 4197.32819117335,95.25040504935168 4196.836234266666,96.30464328658854 4194.084814533329,106.28887749239948 4192.950968915538,112.38574245903146 4195.4676241333655,118.11699997980759 4196.350394053326,120.96856192815903 4195.334804506681,131.6872722651824 4195.170746053336,132.71852393144945 4191.819162195548,139.68301852107834 4190.689175919979,141.9017322942891 4192.424642017781,148.92946444640256 4192.252792062238,149.6990362479628 4175.613711386657,164.6162505001921 4174.187575208896,166.30854495784297 4175.0926273688965,176.96848983201926 4175.010561733303,177.77326108799753 4171.478753875563,190.6380390833292 4170.562123688869,193.02676491750026 4166.038246426673,200.82333215997642 4165.97940966225,201.07686082363216 4169.399223777757,206.26930254743638 4171.13141307552,209.67755289052002 4169.221475582221,215.0154547171478 4169.1629300889035,215.29661389317334 4171.315277964459,223.65597081784654 4171.256441199977,225.17755384180782 4152.190271173342,246.60133858452173 4151.936355582235,246.95287945464224 4151.998833235557,258.882551843948 4151.981284151087,259.1208658036703 4146.045761448884,273.7927003283912 4145.836774426658,274.44896838446584 4146.287880560005,280.48811014016246 4146.155133751105,280.95287134151295 4144.2410456444195,284.9138068086977 4144.056889484433,285.1700617717506 4136.119970160013,289.0544984753142 4136.014457200014,289.3709048048113 4135.918774640013,307.09934954233904 4136.010597857792,307.55053181913536 4145.272291013331,322.5231893454693 4146.331935315538,324.18429247198947 4167.68050576892,334.97031627821707 4167.7407988888735,336.00578764010424 4160.367998888862,342.2359780632469 4159.892862888868,342.2255789257979 4153.660971831123,335.1148316457475 4153.35237008892,335.17733270368626 4146.692237680021,342.10316608995345 4146.188047386648,342.55983603614004 4148.528192311118,347.376601333548 4148.643608488928,348.3654191802998 4146.135108862218,360.88227214363724 4146.151128773345,361.5442454615477 4153.13144095114,365.92758468232205 4153.713254995557,366.44872528028645 4153.709322835552,371.66741212020133 4153.499534817791,371.903012785966 4144.296241520002,370.9897087096542 4143.910598568909,370.7480659442008 4139.456407919963,359.3569143699933 4139.12829101333,359.25532812100573 4126.788444755541,366.3784349174166 4126.546034373343,367.1794433002433 4127.871900471073,373.20078013002785 4128.305530337762,373.7866967924565 4135.0783846666745,375.16301973614463 4136.392381466663,375.4981869354888 4140.392043546657,381.2501874910595 4140.541174355545,381.5625570562188 4130.739683013351,389.99247295787063 4130.152917360014,390.92063638964464 4131.5678396,398.0080228160441 4131.686241306656,398.46784057816694 4148.072207386664,399.8009661605829 4150.029986159992,400.4636097773837 4149.675654853345,408.8748143744815 4149.622352240025,409.3217888896106 4135.501310319989,411.89217569414905 4134.326978017751,412.7252381864164 4131.25909222223,417.43898652114876 4130.8850272977725,418.190466209453 4132.339999315562,421.098765527604 4132.372403226647,421.63427646931814 4130.147892933339,429.46710077168973 4129.950047031132,429.9841439261145 4124.72107522664,431.4084626485055 4122.557440595527,432.24590951215214 4118.934901786677,437.13942567451886 4118.674651048874,437.9607752388183 4119.151097768918,449.1438255889734 4119.139446924441,449.4568399557538 4117.573937520006,454.1398039731939 4117.748845822236,454.95687398075097 4126.044756791118,471.1922281435036 4126.04279071113,471.67462710143445 4124.152149928879,476.838658967441 4123.969450124481,477.59603637144755 4125.137010373321,483.9201306212126 4124.976374355581,484.4129040888729 4118.823126497766,492.35138018972793 4118.737784062192,492.91047838213126 4121.514471564471,501.7419575804597 4121.366068933363,503.8435402554096 4115.2410743733635,514.3825776944213 4115.264448880014,514.9529328639692 4121.123877004458,520.7107066366952 4121.389443440014,521.3435134976244 4120.912923902215,530.5232239360994 4121.032272239972,531.774708452278 4124.49104386667,543.257561587794 4124.44028987558,543.7732575791961 4119.88947003553,546.9685221892796 4119.064735884429,548.0661806993521 4115.709802408877,556.5916188718911 4115.3582381777815,557.9255769827505 4111.862111031136,561.1189257456208 4110.741008524463,562.3357439196479 4111.158982568886,568.9880493452292 4110.671685999987,570.5280667293628 4102.5613875466515,574.3318153383079 4100.205878071109,575.3279542574819 4096.045725608914,585.0935282067439 4095.0379275644373,585.9021595613376 4079.7488156711333,583.4841260074681 4079.1785068355966,583.4567991527074 4074.9519445600163,578.3201225119337 4074.6512071377947,578.0348925493236 4070.1121109600354,577.6755660400886 4069.479324471118,577.6209071843696 4063.9968739821925,578.3318631843795 4063.653174071136,578.4099040681103 4053.9285054844513,587.4684889640557 4053.3133408978174,587.2224640344721 4038.951709040004,565.0995000081821 4038.594537839992,564.7088158570041 4035.387497271149,554.3884918387266 4035.110207173333,553.8962763523086 4031.5845160089084,550.1619435893008 4031.034013608878,549.9177442807922 4026.5492394933535,550.3599476556919 4025.9663331822376,550.605823208105 4019.1511717244575,560.6521270152225 4018.193909217778,561.3025849140176 4009.1043572888884,561.9490884782645 4008.6523045244685,562.8440766813947 4007.9011891466507,565.8163235122847 4008.049227688898,566.0845380994942 4012.8543272089155,570.2459583863601 4013.369512986683,570.7941887397537 4022.594433164457,568.3659926174951 4023.604342924431,568.2927742343381 4025.057421679987,568.8084587371923 4025.5405676355294,569.323744236659 4025.369955582195,572.6521759012176 4025.0671792622306,573.7204685695688 4017.361747653311,584.5572627631409 4016.3312304622086,586.640148523169 4016.7367526666494,593.525976933619 4017.2077380533447,595.6097442790851 4015.8343219466915,599.7628661146373 4014.7992900533427,601.0884963652861 4011.6742423022224,602.9947859114109 4010.975701360032,602.8378784777524 4004.2564409155457,597.4276324112361 4003.1257264622254,597.5230081714908 3998.874187688896,604.1753758445193 3998.3225930222543,607.0753242759456 3994.823407528922,609.3745950571974 3992.91558175112,611.8558103762844 3988.8814040444267,622.8025586352378 3988.8444854311238,624.5113004434606 3994.2628562755417,625.4708449567479 3997.7359001867007,624.6625334544151 3998.5108997955394,628.1753928826292 3997.99913645332,630.2550363172122 3994.870229360007,633.1237964625543 3986.2563959733525,633.2791485190319 3982.207727528905,636.1253933623011 3985.2839873688936,642.7302471856456 3985.656960026652,644.3378134887098 3982.0084980888932,650.4104322413259 3980.8452340888907,650.4347731586822 3979.6561925955466,642.2269070427647 3978.8163851644786,641.8659819460518 3976.547601662198,641.1292427283988 3975.8108313866833,641.4745995683552 3975.0441330044705,644.8886400142146 3974.786285253329,646.9585567556132 3972.189821751119,647.1433409876117 3971.3468103377672,646.0299953224967 3969.897081199975,636.7790994117458 3969.3128641688963,634.6744409151797 3963.117600453348,624.9088038899863 3962.8441696977825,624.6979262634632 3963.2425557599927,621.4088718332569 3963.1331834577722,621.0103599753566 3951.9694899466704,618.1872805494277 3951.1472316000145,618.0524975435765 3946.3972551377665,613.2400490160289 3945.397102959978,612.5662743812354 3942.3190954932943,598.9744374781221 3941.256392844458,598.2401463290371 3932.5847421422077,592.5837904067666 3931.928289875592,591.8806921144351 3917.287838746648,589.7243952631179 3916.6472607555916,589.3337680283803 3911.256415031152,573.9275733246395 3909.959748862224,572.2400292401071 3902.9753588888852,568.9118714147698 3901.2096005955827,569.2713475350392 3898.8034827644587,576.0055879239735 3898.256402800005,577.6462633743431 3893.131633235549,579.497829114167 3891.647242835519,579.169687600348 3882.0064603288774,571.802619926857 3879.1589211288665,571.7811095311408 3876.9908446133486,567.2869501200839 3875.100203831127,561.7478648452889 3872.018337022222,560.5858077552621 3871.131634942227,560.644330558287 3865.7485807199846,564.8963129793046 3864.131661964435,568.4568740749019 3866.3188895555213,576.8377213788553 3866.1314565955254,581.5525710351576 3863.3501815733325,586.685427869299 3861.779866195575,588.298692569304 3846.728358711087,585.6399498937608 3844.756380471139,585.7792427525055 3839.991039457789,580.4685297896722 3840.0455071555625,580.0525875505919 3850.3582521155768,567.4372376434549 3851.2252205777913,564.5681926420875 3850.2837595288875,560.2205571035956 3848.154858977796,557.2713331462219 3842.1314452177903,556.6775828586324 3835.1080249155348,559.5292297103078 3827.297444435564,568.7147161796092 3826.6784933244635,571.9451014416045 3827.2410106577736,574.5700968590318 3830.4754307111434,580.0310800247753 3834.5222787111124,581.2966569323544 3837.100392133376,583.3669262707917 3841.194134782214,589.1169491196997 3841.737136951124,590.2029102633605 3840.4363201688975,594.5427173988792 3838.6277450222406,595.3630612941561 3830.9480909066333,593.4373023268927 3830.201999955578,594.8200790868359 3829.412873697758,599.8981821031994 3829.5066629955545,600.3591616092235 3835.373882622225,601.0544707971058 3836.639237146679,601.3650397093807 3837.9519960444304,603.9919425826156 3837.8464830844314,604.7986503911889 3833.7173509955755,605.0681752400924 3831.2722756533476,604.1325747987357 3824.776201697794,596.3278909425353 3823.5066965600126,594.726375952996 3822.272580862249,592.2414156794766 3821.7501133066544,590.8989254730332 3824.0529755288735,585.2189126314552 3824.8190185511194,583.4971481867324 3824.026542675536,580.8295172402795 3823.4258688266564,580.3471807063252 3818.0099009689,585.2283830418673 3817.4756369333772,585.9399421268245 3816.7564157422166,591.8025695885808 3815.624536204443,593.3584913072045 3808.0064859288686,588.1195526202282 3807.22544244444,588.2419715512588 3803.8970874578226,596.4120243213765 3804.139279386698,598.6386076178387 3809.8424405599944,604.7636406741149 3809.6863920622272,606.0270351337022 3808.811340826651,607.1520469041352 3807.1783293422195,608.033068311277 3801.307468826679,607.2809367606751 3801.6590330578038,609.0661372044924 3809.6277737510973,617.4059885835086 3813.244632773334,620.591633840806 3815.4205007911078,626.4823285631937 3813.5923376622086,628.271312748424 3798.8309362044383,622.031085488481 3797.1626809155277,621.3925054888314 3794.4676949599816,632.1677221458594 3793.5806287911255,632.1971961494055 3780.483332008909,623.2692828961808 3779.55162854222,623.1950449887008 3777.244688524428,625.5721912328663 3776.4752230666927,627.11898296445 3774.611961768882,637.9667331643213 3773.561346871109,638.6521576952582 3770.857986871095,638.919760985118 3768.623937448894,638.656001728632 3763.5376884888683,631.4861688651654 3760.5689076888957,631.3884796038546 3752.682159813354,638.4509862837076 3751.885533324443,639.2302384905124 3754.115796222235,645.9588398600536 3754.70197933336,647.7224265606128 3750.0923955466424,651.0916786747912 3746.79571629336,654.0974301708848 3745.31132589333,657.8904287001424 3745.8503959022055,660.1326355648562 3751.237600737775,665.6389801073165 3751.8347793333523,666.1755286704065 3756.600411617779,667.5857445057554 3759.9715106399963,669.0623284382964 3769.101622071117,681.5200721140936 3769.3738149244164,685.4217014149253 3764.9910585155303,690.398229451348 3762.6667878666485,692.2146167927931 3748.964739440009,696.1304423139591 3745.928529377765,696.8669215377231 3736.4277026400378,689.7550359385277 3734.6095155466755,689.3387440658043 3724.908075831132,693.218215916153 3722.909446284466,695.3936589141013 3734.917971653369,705.5064819638719 3736.9334221066674,707.0689024942185 3746.3267698044365,699.9473561037958 3747.3185479378153,699.609020936703 3754.405028435547,701.4322278381369 3755.084782391117,702.1951308612115 3748.726698124432,710.632519313127 3747.2305112444155,712.0179977544103 3729.5127080089005,719.7933508835777 3729.049150035571,720.3173232673507 3728.494933928916,724.2420043584789 3728.5457607378194,724.3513587640991 3734.7829674933455,727.3122208655623 3736.225196399988,727.9004984521816 3744.6829084711208,726.4586818764728 3745.952486426657,727.0164559754121 3746.4558757244085,730.3552201042985 3745.9519767022284,732.6091754835725 3743.9129332888697,734.7575511555697 3742.8894794222433,735.5544880820598 3742.6003928444406,741.0075922913893 3741.7019671022426,742.9528766652875 3734.493225555576,747.0090544565246 3731.5379160444427,747.5935047615712 3719.4275914222235,744.3437338273143 3718.10820610667,744.4529543991885 3711.31860368888,748.5643294878755 3710.752736737777,750.0623037824917 3710.096939831099,771.1918424610267 3710.4524362222583,771.97306680162 3713.4373097511125,774.524689630889 3714.5804032266606,774.8855316182817 3719.345525786659,767.6772440148561 3719.9383353155863,766.9043263037674 3728.4285241155594,766.0193640322032 3728.9949736088747,766.1755636919042 3732.9597559733375,772.5388901505721 3733.0066506222356,774.0544805573372 3727.897318426665,776.9372457766949 3725.8113803644374,779.015444477227 3726.2254222489137,784.1091562936126 3727.9129014311184,788.3669694137861 3731.7566606488836,795.2028916623167 3733.70198758223,795.8513832451936 3740.5066632800153,791.2732574772599 3741.9676063555235,791.5466920855179 3744.3191836710903,802.4919366409376 3743.7879051644413,803.5935311306603 3739.573066551093,805.6013398236173 3737.67856642665,805.7576365287896 3733.1726751555398,802.7771183846271 3730.3895068711136,801.8747756641751 3729.053519102221,804.5779307345583 3726.7410449333547,805.8279207679952 3720.7956918311247,804.5623007848553 3719.7332076355233,805.2146266625714 3719.048938977765,807.0658933361628 3718.709753768897,808.9138611070448 3720.889481128863,817.8200981432383 3720.182420506695,819.0115424746982 3708.8687223733577,822.4195584027111 3707.2147393688792,822.7533919997732 3698.907031920011,822.4666313088019 3697.8152749777946,824.1989680642364 3696.994909893343,828.4958942041194 3697.346474124439,829.7048209571585 3703.665964968881,843.3026687519086 3703.1347592799866,844.0450663221927 3687.4745679911284,843.3913796863126 3685.6450213244825,843.1891028526516 3676.27512095109,846.9145651921499 3674.6085404710902,847.6113392972547 3676.9852399199735,851.8073397659391 3677.3653487199917,852.2250972280963 3676.5594743733236,855.6109606036698 3676.043414782238,857.6517600817533 3670.9480636000226,859.9060103314914 3668.412985484407,861.1910299718074 3666.2722884533578,867.7660767636044 3665.602801804431,868.4762670961427 3660.009595475538,869.2191497144158 3659.101120880019,868.933683511008 3656.5324737688934,864.8270280981305 3655.6506504800054,864.6422035682117 3645.5305085422297,868.6483141974095 3644.0103646133502,867.8299078083 3643.353329804464,867.3220072821641 3641.5962368266773,864.1307415378033 3640.768371511105,857.0740412789673 3640.2879198133596,855.4529230433036 3633.508220613323,850.3480643000585 3632.1980831555557,850.6872487091096 3628.3503917778144,855.8982559476208 3628.4441810755525,856.9763137489863 3634.8543300533493,868.0622522577105 3634.157682373334,869.3635026104384 3621.625888453331,868.3749240603138 3620.48840194667,868.5985266434072 3618.4988746221934,874.808308084328 3617.6676596888865,875.3590563724065 3613.59656336889,872.2419472372203 3612.4246340533427,872.62932368763 3608.408296702226,878.291814427088 3608.18525584889,878.9017368947025 3609.3132760444423,882.9939145437311 3608.8425819288823,884.9606756343783 3601.463665235584,888.0544702693223 3601.2566442933166,888.2810453615602 3602.4793275999837,889.92948193536 3603.627736773342,890.101371538236 3612.2176131111337,889.1052691084842 3613.0379053777724,890.0232310352076 3611.901219866675,892.1169895653511 3611.903622853337,892.7434640747742 3606.4754216088913,894.3278804625661 3605.9753819288744,894.851364104099 3605.467623564473,896.1794399114806 3605.3152159555466,897.6950607478575 3607.6844151733094,900.5066305439323 3607.6961388355703,901.0241732543145 3598.862031671102,908.3012140321298 3597.5377675644704,908.9648175553375 3591.0574222488794,906.6248034286764 3588.7898766488943,907.4002053758813 3585.7605842755293,917.8396628304254 3585.500770444458,918.040813940599 3571.484222035564,913.9945098495737 3570.7133730400237,913.8205273979038 3564.38543533333,917.053204811782 3563.5467201689025,916.9929567134895 3555.789660755574,911.524266731627 3555.371905164444,911.8454539287704 3552.7449310133234,917.327951100473 3552.23709983108,918.0798666173578 3545.7929449511284,922.3300839967487 3544.696891760046,923.160136212151 3543.825044506666,926.1989551705992 3542.8441890399845,927.8718954733267 3544.4051109244756,931.6655713692235 3544.381663599983,933.781570998246 3542.6101527022256,941.9519704187915 3542.8540922577668,942.646405920088 3546.2227154755383,945.7222305127289 3547.0711154044548,946.1950662237577 3548.2736281866673,945.0474452680719 3549.3039269244473,944.8940483000697 3552.15787408888,949.9796821990094 3552.4199452711036,950.4941658654934 3548.3035562933655,955.2301385169048 3546.681321840035,956.6781309994622 3548.0395918488794,963.6346154396815 3548.0361694133317,964.3645972813174 3542.7156656622537,971.7498264669193 3542.1414246666827,972.6364735662282 3544.297704702243,976.6774991082275 3543.674602977786,980.0622849630236 3538.3307247200282,978.1478336922082 3537.7151232266915,978.1411678093064 3531.3679616267036,985.3962653382841 3530.934404577769,985.5818098880045 3531.405098693358,988.2185803413959 3531.3386888800014,988.6482627934529 3522.51841709335,990.357162135122 3521.6277828533202,990.7439024109553 3521.2957337866537,994.392334815835 3520.772319600015,994.8787175359539 3515.2019780533446,995.5740334118964 3514.1051238666696,995.2590597109738 3513.0175903555646,992.5875992960573 3512.366016879998,991.7966941174018 3504.3503815378062,988.0583307671113 3503.3523410755733,987.2829522368775 3503.067186657776,983.253690556412 3502.514499724435,982.1130254085219 3499.494964933343,979.7692885263605 3498.7254266577947,979.2204433845691 3495.069173217751,979.1111443017799 3494.065234515554,979.7635050431927 3491.7664500889077,985.0037088839963 3491.0984926133533,985.1130956500929 3487.9382738755376,981.5466549105986 3487.3973106044286,981.183383065676 3478.7722632799996,981.0387991060343 3477.297703279997,980.3787078045352 3475.4890553155565,975.697093392977 3474.8269960800244,975.5466147979969 3463.0496671555156,980.9392075190772 3462.373845360009,980.9138194808111 3457.401192133315,973.8552496077828 3456.8191596355755,973.0622439997169 3450.781036684435,971.5553192681182 3450.475420471106,971.4685555284741 3449.1521758133313,967.2214943437939 3448.705875653308,966.4861534430311 3444.237121448852,963.8699362422267 3443.3493271022453,963.5766675556588 3436.1756109066773,966.2581960015596 3435.610544951138,966.5330194287017 3424.1882755111146,965.0408401212117 3423.664861324476,965.1775193105641 3415.7117764533323,973.6638860926105 3415.088674728904,973.695061131577 3411.5203123466636,968.0173195105672 3411.2742610755377,967.8259380653835 3404.403175564483,967.0955065522212 3403.9460983733297,966.6423405762689 3404.4773768799787,963.3200685788397 3404.2527340355446,962.8317726125024 3397.5301239733526,954.5564369206186 3396.716021217784,954.3518733926394 3391.8621337866934,957.4958602233601 3390.9402607200027,957.6287316281159 3385.3895071555744,955.8787287736995 3385.2020013777947,955.9802236140749 3385.717624062265,964.1950696886561 3385.7156579822185,964.4822564150891 3380.162938337802,964.2381134646785 3379.5340111911355,964.2419373977827 3379.352403653378,967.3669927682131 3379.338713911129,967.5447474576722 3375.7078738755663,967.4646451590161 3374.834788720007,967.7282862408538 3372.2801226222073,974.1404311329024 3371.920694071101,974.6130511991723 3366.2937731111015,977.3747825780811 3365.8503856621974,977.8064023320403 3366.1921923111368,981.5798844744495 3365.877765146666,981.9392331395429 3358.784002871107,985.6443440597723 3358.3427999555715,985.8853646772113 3359.133601022215,991.5642229298755 3359.0398845422023,991.6755583116828 3356.8680215022177,989.376775565841 3356.7293036355695,989.3571735577643 3353.1883207377687,993.0193097231895 3352.971542213316,993.0818364338847 3347.600430106657,993.025189980799 3346.9890520444605,993.132602588601 3336.2644497333677,986.6853621767295 3335.744967706647,986.5915624622066 3327.4685719022236,989.148215768706 3327.182470853324,988.9744431151412 3326.264457128884,986.7420143915151 3326.432447742205,986.292715826472 3330.47740247997,983.8455304152521 3330.5554631377745,983.6110691890863 3329.6238324889273,978.9529298639172 3329.7019659644575,978.6189529627954 3318.3269552622223,969.7966878086809 3318.1824119733355,969.5857036010348 3313.231239991088,968.253702236143 3312.922711066698,968.3415489267718 3301.0320776799927,975.4138796314874 3300.770370586659,975.4861291626512 3294.1531278488983,973.3962506825264 3293.797704275552,973.4568363815124 3290.6414176977705,975.9724633792575 3290.461776240001,976.2868483444836 3290.5222878133645,979.3220962608102 3290.0066651289235,979.8670195082886 3283.9188076355786,981.9939292358395 3283.6551344622276,982.4978564238627 3286.0964960977726,992.1892077930606 3286.116011262231,992.4040357045815 3282.0671971822158,998.5212242174675 3281.5632981600065,999.2146375727243 3264.9714762221847,1007.5779122395543 3264.871934319992,1007.6189664391204 3261.6316888444417,1003.6209052037375 3261.2761924533406,1003.2907839919135 3254.3738681155373,1006.0427205240339 3253.528162444418,1005.779045485855 3249.4187639733427,999.9861439617016 3248.9168310310924,999.9627235475564 3245.7684087733214,1003.0447352555275 3245.1551374488627,1003.3338007760103 3229.635557288886,1004.2224483851678 3228.811332862184,1004.2146094495765 3222.467593697773,1007.5291174755766 3222.2752091288858,1007.6384647248851 3209.3113873333205,1005.8435190838572 3209.227355617768,1005.8631159089637 3205.32694416889,999.6091624187466 3204.5535465511202,998.8122706152717 3193.3348028000037,997.460706285281 3192.3347962577536,996.9450422764858 3192.366035084473,992.6481663421655 3192.0222623555455,991.8669645375849 3189.569177057798,990.476340337038 3188.819153946679,990.3356982735495 3187.1941524177673,986.335744341508 3186.2879351733427,985.7107007847153 3176.819148257782,990.6325653651365 3175.7879028889,990.8825834002855 3170.6004372177704,985.1951355986457 3169.991025235533,984.3396408387562 3168.1277639377804,984.9021632913427 3145.303541217785,988.4763509635013 3106.5305503555865,985.1951355986457 3061.6634396711015,981.0788905562586 2954.1785742488864,983.6834072367274 2944.198096808919,986.3767145172678 2921.6004101955623,984.9842035175461 2915.7065392622026,984.6927004796089 2895.2816623200197,997.5545876431934 2876.963549324457,1009.0899431104699 2881.5751720088883,1011.9802577946612 2882.0834400977765,1011.9743793244925 2891.0246622133127,1023.8046587432109 2891.1688414133678,1023.9878360542862 2895.546864666656,1025.464401857149 2896.175282088865,1025.3920143126088 2912.2800987288647,1041.8748115787384 2912.709796435578,1042.3748276789775 2918.2294568088546,1052.3199677330776 2918.381791599997,1052.6117423283795 2926.4432293244463,1058.4518428883239 2926.6332837244263,1058.7249876100032 2927.4926791377657,1072.7555782149648 2927.4929704088718,1072.8259532617594 2924.9871650399873,1079.5213014905676 2924.953960133338,1079.7126341417243 2926.6351769866596,1093.3092571442467 2926.488667617785,1094.0266665633462 2928.920708577789,1103.363881221354 2928.995492435526,1103.5270633854889 2933.266473555559,1107.6072615699304 2933.3202130755526,1108.197238446497 2929.213290408865,1123.6551713267618 2929.0440618933353,1123.975072338384 2928.819200595579,1147.3789543698877 2929.0455910666496,1147.6063490439774 2924.67812639114,1162.4410383561262 2924.413360951119,1163.3147189188676 2926.6195939822355,1166.310982085277 2926.782196079963,1166.9847476953219 2926.4495644711424,1179.3870326051328 2926.387159635575,1179.8590788264337 2929.5652915466635,1183.4352189251003 2930.0110819822294,1183.3651637170187 2930.4423816800117,1188.2542818227885 2930.7919070133357,1188.9918029226174 2931.03810392,1192.8651847436195 2931.2150511199725,1193.349926758754 2928.901994408865,1194.8831599863988 2928.5832709955575,1195.664171329372 2929.5001196355734,1203.4853720985338 2929.63279362669,1204.5588073830804 2931.7397032089066,1209.7963019884992 2932.1851295555534,1210.347129103313 2936.9070711733075,1210.4629584437425 2937.6286953510717,1210.811128821886 2939.5251615555608,1214.5678275302562 2940.1168060000055,1215.4082612063721 2946.4552294666937,1219.9350417991154 2946.6376380000147,1220.3132352279135 2952.130210160016,1215.721150434656 2952.3150944977533,1215.6003503779575 2951.6492487377836,1220.16383298445 2951.7059009688965,1220.4724995799115 2957.3582353333186,1221.8494211502039 2957.4988464622293,1221.8562563707455 2953.0731275644503,1225.3298189291017 2953.0184414133255,1225.6794688935843 2956.3406797066564,1229.3708371520552 2956.670762693335,1229.5505816159202 2954.022307297797,1230.148196518472 2953.787906871119,1230.4919616317857 2954.819152240001,1235.0115016980635 2954.8953196355433,1235.7927936578853 2958.5906762222003,1237.4685895772927 2958.631745448918,1237.5543989621729 2957.549600453349,1241.0075678351786 2957.537876791117,1242.0837766476834 2959.1199158311356,1244.3083709973944 2959.0653024977655,1244.6169186313273 2956.1648247733247,1248.4060446849544 2956.174655173352,1249.0427164081411 2960.703920951113,1253.1834136547914 2960.832808417792,1253.4138401771997 2959.998899226659,1261.4587178474103 2960.000865306647,1261.8611541860373 2964.2020141777757,1267.260909001161 2964.564501075569,1267.7944482576931 2963.41864052444,1270.3367960576652 2963.270601982251,1270.9377297197716 2967.8894336266967,1276.2575805802699 2968.354302319989,1276.6872388869451 2968.0925952266844,1279.4373140134194 2968.369958142226,1280.0056744966496 2972.0535182488675,1280.7732358832945 2972.307433840004,1281.1209181979284 2972.8191971822234,1286.6599671358927 2973.5730796355638,1287.2732300050775 2980.153185306699,1287.1189150204227 2980.4929530577792,1287.1540309795164 2984.242631706671,1290.469864360719 2984.9001762399857,1290.780135615183 2988.153164826712,1289.1989164143088 2988.465625911107,1289.4842235485921 2990.2644434755493,1295.210770397498 2990.3543006133114,1295.3201034185695 2996.6385476533324,1299.3688996472847 2997.0496040088765,1299.6765912322808 2994.7996074933617,1302.1248067158085 2994.8445360621845,1302.5739869287718 3000.134601982223,1309.0612884117945 3000.8191619110876,1309.5174396430593 3001.2458740888687,1312.7058226798763 3001.3855385866773,1313.0036984416874 3008.0066406666883,1309.6442994109457 3008.463717857783,1309.6364986639892 3010.962751173356,1317.6990281415274 3011.533933822211,1318.143514536343 3019.8113490755786,1319.3669814432578 3020.7820100533427,1319.2301969021864 3021.6511630488967,1315.9636583725878 3021.908064168878,1315.9226110656818 3025.1238428711367,1318.9646215033354 3025.6365528444294,1319.1394295189457 3029.3738524711225,1318.34747609216 3030.4900761866593,1318.3747749116374 3030.9734405955824,1321.0427872279179 3030.9226866044337,1321.4529331205922 3028.70756980445,1323.1724554622124 3029.0083072267007,1323.4925087620722 3033.945134106645,1326.0417632382232 3034.3382044711325,1326.1575739459877 3038.6316862844396,1325.3161867427043 3039.022280844423,1325.6482196989164 3036.813717644458,1331.6681813865507 3036.9716594044585,1332.094243651336 3045.2005051999877,1331.0196761212937 3046.1649038488977,1331.525185235536 3043.8835956888797,1337.8103724336324 3044.1220739111304,1338.8955447377593 3046.6636328089226,1342.0800964798473 3047.5327858044475,1342.49663462038 3052.4891278489085,1340.1335188290614 3052.716610586678,1340.379707270673 3049.256673875556,1350.074047121925 3049.2058470666816,1351.0192713838696 3053.9170844710898,1352.2539856828153 3054.3992837955593,1352.8987636980382 3053.2224756889045,1355.327949498016 3053.293473022204,1355.8550889203834 3056.596487422241,1358.3162160624415 3056.8884867111337,1359.0427752797186 3054.588828471082,1363.5906676503873 3054.6668163111026,1364.35525878732 3059.476794622198,1363.799547702678 3059.8582141422085,1364.1911959281933 3060.498864951107,1367.4567845531055 3060.4910734489094,1367.8709137468759 3057.9734716000094,1371.9773766486542 3058.1598122933065,1372.3153972902146 3070.838261217781,1368.0588345621873 3071.072297555569,1368.4455853261243 3069.1453207021987,1371.454658726252 3069.074396186683,1371.8894130537155 3072.4978511911177,1379.7468134169103 3072.299641200021,1380.238099632661 3070.506649057759,1381.316208117314 3070.09260717337,1381.3045203478614 3067.2195817510947,1378.739976349716 3066.9500103378086,1378.7908202065519 3063.0994790667028,1384.940383153349 3063.508132435585,1385.9173192370145 3065.8924777511565,1387.382354020483 3067.01299771553,1387.2674352894755 3071.35825296893,1384.394301305605 3071.885599315545,1384.4333560059094 3072.709823742218,1386.9568614978562 3072.5301094666356,1387.4177060963048 3069.756698764453,1389.1052332897016 3068.6892629599606,1389.9606660520294 3068.584769448935,1392.3689427837162 3069.16782139556,1393.36407070321 3072.457801413315,1394.9958360424425 3072.7039255022537,1394.993888505087 3077.8660505866865,1393.2810060241827 3079.2371365244617,1393.2888937651223 3080.186461893347,1395.3418150969592 3080.496665626677,1395.716518099398 3075.973443724448,1400.1794797382245 3075.7447959022247,1400.7077034469621 3081.009594053321,1407.2321902951444 3081.5145125244453,1408.0898102676801 3078.85622672888,1410.806389600075 3078.6628955288907,1411.3377366092973 3080.4988501600164,1414.8006305877861 3080.5300889866485,1415.616970420706 3076.947818408895,1418.2946775636447 3076.811212257773,1418.915903339126 3081.3256232088897,1422.5509536857644 3081.202706800017,1423.2741425469503 3076.1707070844423,1424.744925349536 3075.2967481155647,1425.05511781916 3065.350422213349,1433.9333514223617 3065.162916435598,1434.1052122527835 3064.592389146681,1435.290902942339 3064.8621061955346,1436.0388575174948 3068.848588257766,1438.5710935838215 3068.750793982239,1439.7947473295426 3062.7179867288505,1441.5947157535193 3062.4693868355535,1442.5442080230496 3062.341081911116,1448.2339527769582 3062.5372530044406,1449.438932976882 3066.2586055377615,1449.3572071527524 3066.500797466666,1449.5075242115927 3070.0947917066806,1455.9174098969888 3069.955855386652,1456.238052418841 3064.086960951099,1460.6908843533238 3063.6829679199727,1460.9529431596384 3057.674627439992,1460.3904005852455 3057.4638199733163,1460.61773337068 3055.420698764472,1463.4450737037623 3055.2381445955543,1464.0720789869738 3056.7839931999915,1470.2106812698403 3056.5672146755387,1470.732189759925 3045.2449240444694,1480.1052811595073 3043.9563406489033,1480.7344543535946 3040.6316993688815,1488.1755306197374 3039.8723555822216,1489.1863538441467 3034.581343031139,1489.1072076324417 3034.268372222228,1489.1013737554094 3032.3074622844288,1491.9763400823504 3031.7879074400116,1492.6091864603732 3025.3562772177393,1494.4079366161677 3024.467609057785,1495.8591690177636 3024.0356539999775,1498.7137030129306 3024.0767232266953,1503.0304513557276 3027.600448311103,1504.5935652622356 3027.98325136886,1505.359165854512 3026.4050716710917,1510.2302711964658 3026.381697164441,1510.4177671532598 3027.6833877600147,1513.193108592408 3027.541829999973,1515.8826062797525 3027.1238559555495,1518.214635944947 3027.014483653329,1518.570142615201 3024.198037644441,1519.4216788655249 3023.3582302133727,1520.2927374212813 3020.32988447111,1535.8393450576768 3020.105824168888,1536.8537757891972 3026.6831627644424,1537.6565839763716 3027.691324897809,1538.0865965968333 3029.1691616977623,1542.3557651760275 3028.8106797777873,1543.3642621727704 3023.918999919988,1547.200502984073 3022.9488486667105,1547.5953825869728 3017.77230566222,1546.7913409925895 3016.4195698044787,1546.752095495809 3012.8766208266607,1550.3553908013782 3010.786386515567,1552.378912064647 3006.4632678666385,1562.3932788322054 3004.873364506697,1563.5370301002622 3002.842622319964,1579.2263836533166 3002.106288951094,1580.3141967577758 2999.9519749955507,1581.7888895127617 2999.408535919996,1581.778501054454 2989.9894835466694,1578.3763345610278 2989.2562085244863,1578.3643920421528 2978.7123399378033,1585.043499562722 2974.4423782666854,1587.5744124659323 2966.2550386044313,1605.2171124688102 2964.895749146701,1606.3104946919702 2954.8353177866375,1609.6045022782855 2954.3451085067063,1609.7891797777193 2944.090981857764,1609.2168039306052 2941.6816600444727,1610.9132456199368 2941.140842408873,1617.8666176551706 2940.811341964436,1619.7629030242024 2937.318345982203,1625.1394933425981 2933.0642585866444,1628.07530221482 2927.5609822133265,1622.0356923483996 2925.303631102259,1619.9033052482628 2915.640493537765,1617.2561807662496 2915.350605964457,1616.4404120649197 2917.4066159199865,1611.2621163400108 2919.720619262196,1609.260668794297 2928.4500872800127,1606.237609603144 2929.057169093314,1605.4301420018528 2929.4834443644504,1601.1502941614235 2929.06750921777,1598.6442884719654 2926.38104294223,1593.9505619633637 2925.2517848444404,1593.2696145344162 2923.170361484459,1593.4373525163028 2922.8119523821806,1594.449012764053 2924.9525037777785,1598.6458414711888 2924.3771705155377,1599.5779252920256 2913.280323724437,1597.1317461520885 2911.4260190133355,1599.0755354731737 2910.6104599022656,1600.5265925315107 2910.035126640025,1602.0811763041784 2912.678193519998,1608.1408436244456 2913.1543489689066,1609.1845845864955 2909.8923309777747,1612.2202150764278 2908.35456514667,1612.426039920283 2904.538695137773,1608.8079469978911 2903.30567170665,1605.6762654326085 2903.6993974311044,1599.4584430681934 2902.2908831555396,1597.1532945293075 2894.875411937741,1594.602090242981 2893.1634659822157,1594.5093895946557 2888.681458942214,1598.7833788125936 2888.0607602044474,1599.054181876032 2877.293049768894,1597.94203772302 2876.685603866674,1597.3723692800195 2880.842188257753,1593.8482504453495 2881.4526196889055,1592.5901158326233 2879.290295777755,1586.1660646785967 2879.3907114933245,1585.2597038758322 2883.650478675583,1576.2438308908822 2883.0066238844593,1574.7699794754371 2876.194884862198,1570.927453193166 2875.623993484449,1571.1143802495426 2874.996813964477,1575.1570156674643 2873.943941715552,1576.735527792618 2868.6571525955806,1580.8556690294135 2867.6834332711005,1581.0340227836496 2863.080475902214,1578.5494522839945 2862.698692293343,1577.7204636111492 2863.692946231109,1566.0051002584296 2863.851397715538,1564.480898195754 2852.878559600009,1564.0207654781188 2852.029722764448,1562.480685197479 2857.513047066692,1556.684506726211 2860.1699493244523,1555.816476351487 2861.0825745333277,1553.678158757648 2862.5470128622255,1550.7802657165812 2861.6370090933633,1546.7804610553358 2860.9145111022226,1546.1615643897603 2855.347519173345,1546.3648849032106 2852.3483005422167,1547.5324351554955 2846.959784986684,1560.7184523511896 2845.172545448877,1570.4002673569412 2839.1238639200164,1575.4048107982017 2838.2078162755643,1575.4156857973067 2837.0299887200235,1573.8125741749172 2836.375648168876,1571.587861576576 2837.1754786399833,1561.3130232732146 2836.6374280799937,1560.0607466555011 2830.355802479986,1555.436800362797 2827.31318445332,1554.5206732898296 2813.5286334844423,1554.4334501496705 2812.661883475579,1554.0765916355813 2810.586358355562,1551.5860048619143 2810.71320692444,1550.6182424241488 2814.8307609866897,1544.1072424122467 2814.4679828177614,1542.9800423606575 2807.883944986679,1544.336216120726 2807.327762800007,1543.9655056184201 2805.4411269955745,1534.9684042376248 2804.601392382203,1534.7830217061783 2801.133445715561,1538.632706452503 2800.8389706221933,1539.374285165126 2802.18034690668,1546.3974277816378 2801.700550568872,1547.5315608851743 2794.208402231132,1552.8425294065746 2792.4090021244774,1552.9516096307998 2787.1416553510935,1562.7666002836995 2786.072908826667,1563.7263098538897 2783.640940684447,1563.2573339906448 2782.5504216444388,1562.5266220497651 2780.695170302235,1557.3836233182737 2779.2024058577954,1556.5504712619513 2776.2906413777673,1558.295338185526 2775.6757680622104,1559.39827507882 2770.8412501600105,1559.089812107406 2768.449550248886,1557.0422246173039 2766.938945448899,1554.5716667179004 2766.7863922044635,1552.8014421494227 2770.995551031112,1548.535409513388 2770.8278516888968,1547.74313395004 2765.7678171288862,1545.6178512233819 2762.3269586755487,1546.2374332294785 2760.148760488926,1549.0765719067058 2759.687678319984,1550.2304727575465 2759.9834641333728,1554.3486551549504 2758.504607884446,1556.3963301257681 2759.514007919992,1568.8550990281583 2756.942375279992,1575.2435304573373 2760.56819088888,1580.4393464908717 2761.2767078666657,1582.1015133456167 2757.5065674222133,1587.8085677455747 2755.0707399377716,1588.7773128778426 2750.029346728901,1586.315570243627 2747.519754835579,1583.0080166127518 2743.2605701955617,1570.9350273911623 2741.727537520026,1570.2594636157373 2732.003014568909,1571.437350055312 2730.245630319987,1572.8116525665464 2729.027680168918,1574.527133928561 2730.42133961778,1582.288795638764 2730.325875511131,1583.653541521715 2728.955299297784,1585.446103048038 2728.103476933349,1585.443773061772 2724.392100435565,1584.2730411671146 2722.68212055997,1582.3503491585652 2719.677804684412,1573.6198290582324 2717.9214398844633,1570.9554194581506 2711.877637146652,1568.0397724763243 2708.3188138933037,1568.4634600408535 2702.842116008891,1572.2378730145501 2701.4893801511207,1575.0699181665186 2702.3066868888855,1584.3760478055265 2699.690999493323,1585.321060330818 2697.9731552977755,1585.0701974861222 2696.733359813312,1583.623833346348 2693.546999493352,1567.8082628726188 2691.9651789066556,1566.3259597640063 2690.4220245600154,1566.118430663737 2688.8940891289094,1566.5088217603407 2685.3445137333474,1570.918228207207 2684.045444577787,1571.9957945451679 2675.588023777789,1566.525427895198 2673.635123795568,1565.5134168010627 2666.9887539466436,1565.854866750793 2662.295575351134,1566.1668897894779 2651.0601563288947,1572.7302808644818 2648.212107404426,1573.5788524386226 2629.1792151022237,1569.892304243629 2625.9613246844383,1568.4684125946878 2622.9849708355614,1569.2154668972871 2619.98480557336,1570.07855462336 2615.7194314222434,1577.295381801603 2613.8132804533234,1578.1403965739519 2611.771469964442,1577.500932225761 2610.1299388000043,1575.8250504714597 2608.6169310133555,1571.1153512977398 2607.1385844889155,1568.1908747626512 2603.0639929155295,1564.8578976370554 2601.074538408924,1563.7599120493614 2597.204055066686,1567.44157478118 2598.003011724475,1570.4782433625005 2604.9704351555556,1577.9863082022712 2606.9541370577645,1581.261114830726 2602.594463884452,1585.7650191044304 2599.0847198133124,1586.32624919901 2587.0616308889003,1580.8362510616498 2582.9115272799972,1577.1666332967652 2574.8919597777713,1563.0205624948794 2572.587131475564,1560.7158300887022 2555.8544071377837,1566.6444869561456 2552.5375573599886,1566.7252838417407 2533.2545359911164,1560.747491472859 2530.4286964888743,1558.6015711897853 2519.482145591115,1542.072477691334 2518.654353093356,1539.546538476432 2521.202538408863,1518.6741313385355 2520.3116128977854,1517.4402503375968 2516.957917324442,1517.254330287651 2512.702592026675,1518.0541810744835 2509.780196151085,1524.3726453146883 2506.8277265333454,1526.279906529111 2499.2529300177703,1525.5687838367812 2495.8783357422217,1524.0451584709444 2490.06842370666,1518.2453468245149 2487.5023252177925,1516.4657432758177 2475.155197182263,1523.166377498339 2472.8699568622105,1523.604943503502 2470.3796616799955,1522.7497709784875 2469.489974071126,1521.5902162373168 2470.3626223200117,1518.6484743237015 2471.089198106638,1515.1881802652715 2468.4082659822307,1511.1834913475395 2465.566916293348,1511.3537806113818 2461.1188423377753,1515.975228233241 2460.4480449688854,1518.899990366881 2462.4969187822135,1528.1306536530974 2462.60658235554,1529.1341311637589 2457.9796679377905,1532.5947282013876 2456.4596696444496,1533.6789738781445 2444.7687026044587,1532.884082443743 2437.1959449866845,1529.4667415154909 2434.5284113333328,1529.5558454219936 2432.829936666647,1529.857942679686 2428.0875332533324,1534.3814548452574 2425.1081938755524,1535.998102941834 2420.1897170755547,1532.82228628327 2417.9291619822325,1529.9105107583237 2415.121381288889,1515.4007366686928 2413.053574853344,1513.6521546486547 2411.1728372888756,1513.3108105361534 2404.143445928872,1512.246819738044 2401.00834932446,1513.845472005829 2395.8006403111212,1515.6696627411802 2388.755156222236,1514.7601495564086 2385.035478497797,1514.6889080139445 2385.7571026755613,1527.6584005483965 2385.560421857779,1529.0347266775716 2382.0284683644422,1530.8007605425883 2379.137748222216,1531.2669657915176 2338.864856773318,1509.7899596790448 2336.0747708000126,1508.7008315435742 2327.7083722222014,1512.3562618423966 2325.1285839911143,1516.0060373942906 2312.5104281866516,1515.085643655104 2308.9882322755584,1513.3290829899415 2306.2957949422125,1506.6011570760238 2307.704454853345,1505.1522135396444 2322.2331306933484,1501.551581568674 2324.864983635547,1501.0730047521574 2327.039395297761,1498.6570257992062 2329.6351306222205,1495.319590969717 2331.7029370577657,1491.1065426858186 2328.0948889866704,1482.7676034987016 2325.052780684462,1480.9431400860267 2318.1062559555867,1481.4194388540855 2314.082491191104,1483.3203193199224 2302.0485524177784,1495.280216174382 2300.6883891467005,1495.082952940189 2292.1385625866824,1486.8785300312666 2291.7764397778083,1485.4522749826356 2297.079685715551,1476.244431721825 2297.075025377795,1474.463835258568 2293.0280317422294,1471.6579004534942 2289.1981807200063,1471.9129110303984 2279.274573964445,1475.7703305874238 2277.6539415022125,1475.1328412791408 2277.2761628711014,1474.5212150332445 2275.8281813600042,1472.2567165608998 2277.742997644469,1463.5542115912176 2276.992027902219,1462.4914222917214 2273.040279920009,1461.4111057112095 2269.226812897774,1462.1537888753155 2267.640914515563,1464.5957782702535 2265.932827902201,1467.6537487805253 2259.2323544444516,1470.2420963944533 2255.5892082044447,1469.5430818493114 2251.389151599986,1468.303860830165 2247.4892498755653,1454.576744565602 2243.5495168266643,1453.7466092611357 2241.2092990844685,1454.2829442686707 2238.9719728622003,1455.1142399022865 2228.8738218933286,1469.048699684201 2227.695557431114,1469.1535483214757 2224.6076467466773,1467.0666579810131 2223.4052067822486,1464.9824219540824 2224.2617623022234,1463.258410514558 2226.6520786755427,1460.2223080360345 2226.4261251111457,1455.4811933570236 2223.811748435546,1453.997995583988 2214.5834786400083,1456.0684895412342 2208.1943739999842,1457.531501534926 2201.5030027644534,1455.2810814122713 2197.122649342229,1450.747991082164 2196.93791064003,1443.0188514805704 2198.8591348888876,1441.10750914472 2208.2604925422056,1446.1526928077874 2209.6517490044644,1446.272368824597 2211.051962053316,1445.4040801018637 2211.4435760622146,1443.5992583029802 2208.2032577688806,1436.275231111802 2208.816237822204,1434.9321034648965 2213.8540629599884,1428.4590560163415 2215.125242906681,1427.4686685759443 2223.8603178933554,1427.3623878648723 2226.7660384977644,1426.5108704446975 2228.2986342666845,1424.5598019102545 2226.1569177866622,1415.1270315090733 2226.9308251288894,1413.2092923100936 2231.2743327555363,1409.9978729379582 2233.7882208977535,1408.3677626918143 2250.494366746687,1409.7570196064262 2254.551846142218,1409.1576081780731 2256.451953235548,1405.2185044003927 2255.9691713688953,1402.8680678637102 2252.4680926133296,1398.5444409959819 2251.8339954044495,1398.1815368595635 2245.926726000005,1397.8002272236845 2243.5241034222418,1397.254841366368 2220.2154240266536,1399.1353850500964 2216.185396933346,1397.7781236575029 2211.4050554578134,1391.9017073089854 2210.739355333353,1390.024355593785 2213.8317807200074,1387.0578541473005 2215.2277703377767,1385.3166090662926 2213.664809555543,1377.00716973206 2212.6940029422403,1374.4260856177061 2210.9102586577646,1372.9810101407274 2209.3338265866914,1372.8260290576509 2202.430191528925,1377.0731127137478 2199.462284542242,1377.7613701901646 2190.774832382216,1374.5614836387904 2188.3848800977867,1370.6965833728245 2196.5036254133156,1366.5348964695659 2197.9095182488672,1365.468906925722 2201.635603937786,1356.2383096817284 2200.5147198844643,1354.365445804542 2198.5422319199715,1353.026023016566 2196.9181042044365,1351.8183158459651 2189.7081247555616,1353.035669769095 2187.486599991098,1355.3745250263237 2181.380173964455,1353.7162005705832 2178.58331593778,1353.5688697855294 2174.8800222132995,1342.099880642163 2172.749738124461,1339.843763737379 2151.9799233688973,1330.0698616360096 2149.2901074755355,1327.5081956702852 2148.055336417776,1325.4748920860075 2148.5484584088845,1323.6844619684052 2152.2087896444136,1319.108523731229 2154.8889935910993,1315.8494863431479 2156.607201875566,1308.3314200402456 2157.230667688884,1306.7668305689222 2159.3210476355744,1305.230774322954 2161.557208773331,1305.2580788507403 2168.595046995586,1311.6582248062696 2170.9542701777827,1311.5828524678582 2175.0745913155843,1310.1290164226739 2178.001647528872,1308.3402935744598 2181.46078324446,1302.5220085754336 2182.109444008878,1297.4916069408864 2181.1645605244557,1296.300580948293 2179.684175102244,1295.7681619972354 2164.001555937779,1297.509747188109 2162.3794671200158,1296.4871557083316 2161.40931586668,1293.394800043381 2161.104791919992,1290.974042177353 2162.5686477066774,1286.0876675862455 2162.5762207555526,1285.1434155603856 2158.921642124449,1275.6687956249589 2158.553912346688,1273.589613654527 2161.0736987288983,1258.6520331043357 2158.9474924355745,1257.0860082303334 2152.59945702221,1258.9332830057174 2150.2642637066892,1259.5579421336515 2134.6806767199887,1259.127092924893 2129.4880409867037,1256.3167904297516 2126.484307653329,1254.4703168783963 2125.431071315572,1252.822205444063 2129.013196257787,1241.9850883374093 2128.467354195571,1239.331768969343 2117.052002444456,1237.529505466715 2111.659117822215,1236.8031967737406 2107.333741822222,1226.2891303449505 2106.065110497788,1225.3115601367535 2077.469496346661,1229.6626653550702 2073.9210860355233,1226.196568418316 2074.5183374488843,1216.8352929212488 2075.3695044533524,1214.9347251901563 2083.388198142202,1214.3507348228813 2086.0754654133343,1212.8449325242182 2087.234651617793,1204.328689412585 2087.5131067999755,1200.9872928833865 2085.454402586678,1195.3005797690203 2083.0601540533535,1193.400530404433 2077.02909442666,1192.1179400504261 2069.335750568891,1194.9284872400676 2058.0879525244527,1203.3048690708747 2052.218402728875,1206.8879716738375 2039.8993823555647,1211.334210889232 2037.3990383199998,1213.2818620909748 2023.5396306755429,1231.995679946871 2019.3617834933393,1238.642088621993 2010.8911826755793,1272.5829256715006 2009.1500367911358,1275.6879178081217 2000.684314764454,1276.9683103139905 1999.2025458044372,1275.6042094324584 1994.495677466679,1264.0248395055896 1992.891793093324,1257.3619952639347 1987.3532000978012,1251.5268747924492 1984.277668435563,1251.4713405033035 1977.7263986044272,1263.3072298778934 1976.8468326666625,1266.8515794445339 1975.6350720266928,1283.5052801459897 1975.0240580533573,1287.212459990078 1978.2313898933353,1299.3097017587352 1978.260735457763,1302.4268285897633 1976.529055884428,1304.8849809536696 1973.5328956000158,1306.4991546061137 1970.1713357066328,1306.992867159097 1966.1509933777852,1305.7295676609428 1961.9204989421996,1301.625204537071 1958.5461959377571,1297.0531185085056 1958.0224176622578,1282.2568230724937 1954.680445751117,1279.1541074071065 1946.458808915544,1275.1468358209022 1941.8219184621994,1272.6655648463566 1926.5661571111123,1257.4796895061663 1923.698083297786,1254.795698355003 1903.1242211822246,1250.1218128659311 1899.6545997066423,1252.2928330426003 1897.1903004711203,1255.7316242568559 1894.854524613329,1261.3134146643788 1896.4702054666413,1269.3474236542752 1898.6718509777857,1271.749795720396 1920.484416311112,1279.1674726804413 1929.6140180178045,1280.6952900044198 1931.1243315466854,1283.5786376880496 1925.7724433333497,1293.2959974195765 1916.1281655733183,1301.165582621492 1907.9671859466762,1310.569461121362 1898.792218764458,1316.396847197604 1895.492335528921,1319.5957024687013 1896.1750021955522,1322.9574933742333 1897.9715624089004,1325.7745594345688 1888.5302277955634,1330.4856021959931 1879.5835443466785,1333.8297522280554 1875.8138408088707,1338.9904744924206 1868.6737664266839,1342.641554939757 1866.1069397600077,1341.987218038419 1862.1107729333453,1340.9686648541901 1853.3332451822353,1329.306997351312 1845.336396826664,1324.5816331352617 1839.9796298222209,1330.6360089464506 1838.9963713688776,1339.8539972901563 1841.877989288856,1351.1298714371442 1839.451264026662,1359.687288723835 1829.2514594400127,1367.2142093746734 1828.7271714399976,1379.2067253065106 1822.4713961511443,1381.813228501087 1810.4920707111014,1379.219874486058 1808.0010473511356,1384.795073447931 1809.7325084710901,1397.533523322425 1826.0065536266775,1431.9759927598716 1822.9478428711009,1444.848014858515 1814.5087721511372,1448.1229397136558 1809.7195469066792,1454.75409421324 1802.3319648977777,1467.7517912431722 1794.6516554222326,1497.3027849213904 1798.314608097775,1504.5806366807155 1788.3090813422168,1515.3120015038076 1765.4828197244497,1555.8659146785722 1764.7978228888824,1559.631175277107 1765.8672247733339,1572.7404766085601 1766.1165528444399,1594.5588946698626 1770.869442017778,1606.772939399416 1772.0988973777567,1608.6792627820032 1782.0891324000258,1615.3407038497317 1785.3202028355736,1619.365369946834 1787.4191752799961,1624.8178655343145 1786.1426796355518,1631.398927155933 1785.2579436355445,1633.0833257483246 1777.6546025511343,1640.1406642720613 1774.428338088881,1641.2433355197209 1746.6406371822231,1643.0504603223453 1744.8912628889084,1642.5839164949066 1743.9105530577654,1637.5810115112326 1745.2766145689238,1636.1942471008297 1761.678527742246,1634.0974550248575 1765.367185093317,1631.5827648141785 1767.6803874400211,1628.5940510778382 1769.1230532533082,1625.2451499030794 1766.7282949955552,1619.375267066287 1763.7687620533397,1617.1541010918954 1756.4965962222486,1617.51788047015 1752.048085360002,1618.035260600016 1738.122122266679,1627.2409487407058 1731.424779973342,1630.785128628071 1718.591083546693,1634.4093348212118 1713.2640990133514,1636.3085185707969 1710.59547309333,1639.4166620534888 1709.8694798488868,1643.9067193197334 1712.5882772177865,1654.8733347570887 1712.9696967377677,1657.419001686496 1711.5536094133568,1658.659941971353 1708.7201240444556,1658.9066337676122 1698.4949788711092,1656.562247022368 1697.3973236888996,1656.277144421787 1694.2621542666748,1658.4348736549946 1692.2445192800078,1660.1739201104429 1685.8867991022416,1682.5979399450516 1684.4206859644328,1685.302230064808 1665.257741111127,1700.6489377982725 1662.0745847733342,1704.8262166005807 1658.4412689333549,1719.372830882574 1656.7077689155412,1725.1667879219094 1656.9501064800133,1739.118446970322 1655.4263216622057,1742.0767607247471 1631.4423301955394,1753.70491451228 1628.1929096800159,1757.3758161087244 1621.897303066682,1774.777412385134 1621.789824026695,1775.2221718282744 1620.9184136799886,1788.9412971140046 1620.0507170400233,1793.9833359365075 1605.7917582489026,1794.6236137348096 1603.8090029777668,1797.0119466885153 1609.1741440266778,1807.788949890215 1609.783920097805,1812.4467105638396 1604.67779188446,1820.0718600287146 1601.9250614311022,1823.5074721503115 1597.3067395111138,1827.1798438288024 1569.0314507644507,1836.7463930230806 1568.6271664622182,1837.0006109677415 1564.816684968886,1841.6352441369745 1561.7289927377715,1852.095500748539 1560.4683713688864,1853.8492463596267 1535.1497756711324,1863.6509997725298 1533.48275828443,1864.5609200593244 1532.6240182311158,1866.174174522508 1533.3394528977806,1870.2784081945647 1522.204595226649,1883.9795908582237 1518.621086746658,1887.487493921326 1508.2685104622215,1892.1110980831072 1485.6955818933202,1890.5783074807623 1482.8176776800246,1892.3099282146359 1478.132509040006,1903.5398247941848 1477.4555221600167,1907.29527126444 1485.6261865511187,1914.8890387097417 1493.0060498755483,1920.7420225993483 1491.116064453323,1931.5778807451934 1485.819153662218,1944.6482267550527 1481.8310696088884,1946.4284735930923 1472.2097294488922,1941.2575883449972 1467.3191418577626,1944.0231689296124 1467.014472275565,1949.8642032086864 1471.9285071911,1963.9450572517744 1473.2566306400113,1972.538855534418 1448.6382506933296,1977.138907516368 1443.5222920800152,1980.6326019607004 1443.459741608909,1986.1325313920024 1453.0927326133242,1993.5982413300299 1453.4708753333252,2001.068283417546 1443.7026617155643,2009.514536906201 1435.5045450222387,2011.954877722419 1434.4549495733518,2019.9665725123414 1434.900303102244,2027.2756037607542 1424.1199951911112,2034.446526228603 1422.9128220711136,2038.9872590045488 1424.2430572355806,2043.6825563067177 1422.7762887378049,2047.2829525488414 1416.8832187999797,2047.8067645198244 1407.6271326133283,2043.053651563816 1403.6425438133301,2041.7402085553258 1386.3083446311066,2049.605425894515 1379.7352294666925,2057.9951347846436 1379.376237822231,2063.498597626014 1381.2578492000175,2065.158841637305 1388.3286738755705,2062.5988431101796 1395.382750462246,2059.3236601905883 1404.576941537758,2059.706688952916 1408.9409109600238,2064.3274242856496 1411.1672416977817,2072.1090238617253 1404.5581545511086,2077.652594227613 1393.8868548533355,2081.463759957587 1378.4813073333353,2070.595498331917 1373.8599998844438,2071.748131732158 1370.2570490577782,2078.564562852138 1371.4428137511422,2084.6974464802697 1371.4747079377703,2087.1214238201574 1359.2737980000093,2094.4794788052604 1350.6137253244233,2095.7239403274943 1342.7604736266658,2093.977623224615 1337.7651740711008,2092.6367220081374 1333.7443948355212,2089.4795264606873 1329.4117370577587,2083.1018631230036 1328.9956562755397,2078.9994941744444 1332.5008856444329,2073.285040171868 1334.1417614489037,2068.8339444178637 1333.5580541422241,2063.7154887874713 1332.8503381600021,2063.0915031592085 1330.6963154755358,2063.440207431522 1329.959253928886,2064.290039637148 1325.048859902221,2074.634633520349 1321.9507547288958,2076.9329900413068 1318.5756507288897,2076.526752068188 1314.028326142201,2075.109282049867 1305.046762977785,2068.2014340968235 1302.0315972533426,2068.022904152509 1296.0160478133184,2084.4347775809074 1293.672043546656,2089.3330324895433 1273.085656773328,2097.2995621076334 1269.2540581244393,2099.5299812004014 1261.4884790311044,2109.323988196651 1257.753363937809,2110.127763332108 1254.492365395563,2109.6033079446424 1249.1121510666562,2106.7146339674873 1251.5540952444426,2093.205137358971 1249.9854546755378,2090.8071067043566 1247.4522698222136,2088.6073959814166 1240.5734656266868,2084.62144887921 1229.5777627288771,2081.5788697230673 1224.669407599984,2083.1156374213097 1221.330930942262,2088.35851635968 1219.3789775911137,2091.7930463689627 1219.664860186691,2102.7192265004196 1217.7429805777792,2104.9265388070853 1192.078209164436,2102.1831547835827 1187.5748665155552,2103.4002150040396 1180.8534215377877,2108.324839599656 1174.1378748000134,2120.8688587076394 1171.7857149422052,2124.412916421912 1160.4871629066765,2137.043566649598 1158.94604745775,2139.621172977313 1131.3248079911282,2158.2655141200885 1129.7196128978103,2160.875839566441 1127.897129555582,2170.679769745846 1129.8389612355386,2173.332102644963 1163.7583559377526,2182.9090757522135 1166.3743346044503,2184.0228479898433 1168.4854676177783,2187.9288315501544 1169.0859230133356,2192.9050178939287 1168.2572567021998,2201.2537893349872 1167.4007740000088,2203.0239013880855 1162.8563621244393,2205.775068322364 1157.3018220355443,2206.9486237955352 1141.1319063022383,2202.6912459749656 1135.6026339822274,2203.272718813496 1105.9186125066772,2213.3963050939856 1100.3685871199996,2212.2650686803754 1098.131770622218,2201.2226381541914 1095.6623741422081,2195.5775819237533 1088.174886142253,2186.683858882716 1082.7498888800037,2188.152608631084 1072.7486583733116,2200.313863072377 1068.9764790310874,2205.7638200825677 1067.1375388711167,2219.324490882449 1066.876487137779,2225.2054176657475 1060.8372719199979,2243.2622401995686 1057.0965498577862,2246.9447816045795 1051.494459760026,2249.9626779512982 1033.065590924467,2245.991115195131 1028.1931349599909,2245.0001556051066 1019.8209109600284,2247.159032730393 1015.7876070666534,2249.0941778699707 999.8097846311284,2267.2219594624403 998.7431498222286,2269.3323532764553 998.5624160978186,2290.27836563906 996.2097465155239,2295.788824752606 993.4597103199922,2298.5387884823067 988.5409422488883,2299.2683802584434 973.4875415021961,2293.025109799106 969.3931434933329,2294.90395356292 967.5672377155279,2298.654275734407 967.6512694311095,2305.4972195649534 970.0222162755381,2312.4762978000726 972.683050693362,2319.7372410582684 973.4410837600008,2331.5940076961924 971.7887755644333,2334.927893231252 962.0676750488929,2337.6169815576795 958.9944735555619,2337.4994538318642 952.6651523111213,2331.8217924289565 946.8712601866573,2321.9625972131107 940.0338164888672,2313.085278945211 934.2056271911133,2312.8028160702743 913.4375600622152,2324.3090747199094 909.4153244711051,2326.2418888598695 905.5542346221919,2325.7586428126015 901.8931023910991,2323.584278372895 890.7570068177592,2314.4081253650147 885.7084774666582,2311.4119825694142 877.3615940533637,2309.133372862656 871.5507353866706,2309.702552976516 863.982055564411,2315.975580943741 863.0153267466812,2318.8216067637622 863.187540791143,2331.948349813836 862.8320443999837,2336.8711325616387 860.7026341244637,2343.956827204289 857.0388804533286,2349.341999084798 851.0449578933476,2352.570026668509 846.7156497333199,2354.145373251544 831.4878504088556,2351.5814826723436 827.6539944089018,2351.2730990995697 804.9656496621901,2354.5245287619255 799.4476640977664,2356.8441097998802 752.18200863112,2395.673312602892 747.5598273689102,2399.187131108767 704.3264563466364,2416.9801496738583 697.7486808444373,2420.024925563317 679.4264900533308,2431.493760459234 675.6986567377462,2433.83259365493 673.0780177333218,2437.145172207449 671.5563446310989,2440.380087971098 669.4875187466969,2450.7974573724714 669.4714260177861,2456.7564857655743 670.5320169511251,2458.6373377659984 673.1986767911294,2460.507601396581 693.8375651822134,2467.2905968128543 697.3986457866558,2470.333084225036 699.3487058755709,2473.6053902273343 700.420874835545,2478.5173181860664 698.9931366666569,2491.6114374680983 695.2653761688853,2495.5873407371037 681.9721995644504,2499.2796323153525 679.740990035556,2498.6671520749005 660.722224382218,2485.542116686258 655.747240986675,2485.54843420814 637.137565608893,2496.941840432548 633.7722191911016,2499.423372926518 618.5846880977624,2502.0233764844816 613.0659743555589,2501.235893406927 603.7159532355727,2496.0171508039566 602.1847410044284,2494.26717134285 601.0159428533516,2492.073432787751 601.2222356177808,2488.6921857973575 603.7222155644558,2481.6921416508485 604.0222248088976,2478.5734162318768 597.2846871022193,2474.9108577768857 590.2957096089085,2479.6091152124063 572.4773450222274,2511.7479832641766 571.0409415377944,2513.8296817163427 545.5099363822374,2540.522495971127 543.8490356889088,2542.3979346166234 529.4474996889185,2553.612988278932 523.0886144266697,2557.3752866986833 510.0898400977603,2560.39487220061 506.7170662666613,2561.909870201569 488.42851728890673,2573.476354109989 484.7846428710909,2576.5011109428524 481.15329311112873,2581.166341089898 478.4701764533529,2585.6451564236268 472.6577886133455,2614.4856382687212 471.894949573325,2618.5192020760223 468.8597589599958,2624.523275853171 466.7875834578008,2627.6493603672643 457.6566710311163,2634.597741399273 455.48458953775116,2636.1924541881526 436.7810520444473,2643.382639866475 430.776206817769,2646.5153533093326 424.1680663022271,2645.3436948534 420.67237606222625,2645.5966282210065 405.84623959998135,2648.8167871867263 402.9793308711087,2650.319205694286 401.2359276355419,2653.6865354270485 400.7074162044446,2654.315491513633 391.03925421333406,2660.356231818405 388.5194678310945,2662.1359738555257 366.48189556444413,2681.8919756542236 365.31681111999205,2682.344401559407 358.9044047911011,2691.8148440367295 357.35156568003003,2694.6634627288367 342.3870026222139,2704.3949136145166 339.2385075466882,2708.571286868151 319.46651480003493,2718.1236264929394 318.6941366311221,2718.743943676418 319.91681993776,2721.9881131445363 319.70586683554575,2722.601335950174 313.82699636442703,2725.921602716415 312.4559104266518,2726.624810575806 307.8425401155546,2741.0426992070206 306.8848407022306,2744.629818205525 299.9004507288628,2751.889537934643 297.94762356445426,2754.407317631434 296.4223823911161,2760.996948586202 294.8682325600239,2767.5074742929646 293.2554644177726,2769.2186051294193 291.92311753777904,2770.6321718550826 285.20691543997964,2767.896878472522 277.98412006223225,2767.936619295848 268.8660235644493,2771.7654425706933 268.3269535555446,2772.2497353521976 264.1628689333447,2776.8669161403304 263.8816466755816,2777.366988505375 255.42073062222335,2797.8434804368517 254.9832414133125,2798.45293606606 241.36129254222033,2802.345962809377 236.88918872000067,2805.5419370092495 228.22744123559096,2823.5347059652195 227.20631753775524,2825.057444053811 213.28545168889104,2837.043947393606 211.365392524458,2838.6971694627646 207.61709741331288,2848.047085383172 206.262249840016,2850.305282361376 196.84698399109766,2857.860556339707 194.38698100444162,2861.2784756658293 188.79362904001027,2871.5081260588704 186.08728351112222,2877.32539288891 185.24529154668562,2885.877323922432 185.53969382224022,2887.0508158424273 186.6338537511183,2889.3089860369146 187.42829570666072,2890.182116486387 204.15978214223287,2897.358672069844 210.1770792088937,2900.895960460468 211.02096443556366,2904.7568742850344 211.57838452444412,2909.087420692602 212.27685264890897,2918.6618490673936 202.4022522577725,2948.2869305280256 199.35825069335988,2962.468487813916 192.45199419558048,2958.2419402790474 192.01450498666964,2957.11696201875 193.2202217511367,2946.1407734222084 192.9636847199872,2946.132599984361 179.67072656890377,2953.0661566778945 177.23322427558014,2954.534921155013 176.73515067555127,2956.929479584658 173.36798381333938,2960.992016250173 167.9558752978046,2965.050593324915 167.37384279997787,2965.3825654424654 156.11213655999745,2964.441181592607 154.40506939555053,2965.183420380381 154.17074178668554,2967.9763361048026 153.9910275111033,2968.226396725244 147.67073567112675,2971.570104962484 147.5418482044479,2971.8005812522824 149.069128275587,2974.4528997848174 149.14726175111718,2975.9138659863893 147.13166566222208,2983.749742207867 147.33475444445503,2984.515411400258 155.49100091555738,2987.5856912794043 155.54568706668215,2988.1794994350566 153.18092973335297,2989.2229246140414 150.24105759110535,2992.6169323651047 149.14726175111718,2995.101352203921 148.72542836447246,2997.11692946891 149.86604603557498,3000.5310364773977 148.4363417866698,3003.249791665272 142.79070665777544,3000.5032130657273 132.91843643557513,2998.5306642582364 122.38439824891975,3001.206771378427 116.76089972443879,3002.9956876885044 107.08436368888943,3011.4193319164697 104.56588802667102,3015.6800177841433 98.04316276442842,3038.8932265605763 97.10978448891547,3042.643836251802 98.28753922667238,3058.060053234767 97.36537488887552,3065.2112592796548 75.44438388445997,3090.3444880905663 67.2990600799967,3096.8304988279197 64.07920358222327,3128.675786442218 57.766703244444216,3178.4726515540897 8.052549999993062,3302.595878665503" stroke="#009edd" stroke-width="5.905830135043598px" fill="none" stroke-linejoin="round" vector-effect="non-scaling-stroke"></polygon>
</svg>