<svg width="242.67027626675554" height="241.75588714383775" xmlns="http://www.w3.org/2000/svg"><polygon points="119.9169390933821,121.66717932146275 132.00352512008976,138.40326997631928 132.71422663109843,140.12454162957147 134.5416615823051,152.17801285284804 134.8556518399855,152.39304655016167 129.02061767107807,165.96853314025793 128.8915845688898,166.1210265364498 142.40860302222427,186.2307813525549 142.5026835910976,186.5114511101856 137.22892885340843,212.30814385018311 137.18407310231123,212.591028879222 148.0837293510558,234.52587388973916 150.4153545955196,236.6771917610895 161.97503118216991,227.0154323807219 163.83887502225116,225.59659961954458 168.62212920887396,232.7878058727947 173.7750064355787,230.73673296405468 191.80730965326075,213.28767105739098 192.38169628439937,212.71065900410758 215.43638727115467,206.05399771750672 216.3393277155701,205.22465556586394 220.22371925332118,188.07806752581382 220.13284266670235,187.14160738087958 235.41001244448125,174.26419959095074 235.61535857780837,173.9880123042385 236.88500935118645,153.8910787909408 237.67027626675554,153.41647809394635 227.02519096888136,148.76938564592274 225.99642140441574,147.00409447890706 219.86341688898392,121.32433681376278 220.3550825244747,119.98355649790028 194.93206613336224,126.79805476608453 191.88770048005972,127.11254418559838 184.25668864010368,114.32969255169155 183.43239139555953,113.73037261579884 149.73844053340144,102.1796451752889 149.18473415111657,102.14679778291611 148.8541414400097,91.04679676349042 147.9302294754889,90.63190824113553 141.86305223114323,91.33343837450957 141.14128241781145,92.12811315461295 119.9169390933821,121.66717932146275" stroke="red" stroke-width="3.644850647377928" fill="none" stroke-linejoin="round" vector-effect="non-scaling-stroke"></polygon><polygon points="5,24.87879130971851 23.08589710225351,51.1175981265842 23.59008739562705,51.00373058830155 21.737603128887713,73.97631968668429 21.885860124370083,74.19998061197111 39.591648426721804,74.61805042094784 39.77048888884019,75.00911822775379 33.328445724444464,96.91635014343774 34.58236785780173,98.43546068127034 46.26233941339888,101.66848519665655 50.50324679107871,103.06877271732083 49.21175068442244,111.78932066221023 48.59629482659511,112.92722733673872 66.97055032884236,107.755981047987 69.02168149338104,107.90446541662095 83.90184874669649,117.62682274187682 85.3180088888621,118.1604420375661 82.1923785955878,131.26970093155978 82.15247445332352,132.5834180371021 91.32227157335728,145.73590124043403 91.47926670219749,146.26405355602037 88.8010288355872,170.3800027401303 88.83190357335843,170.94453128613532 97.44391651556361,194.95341550098965 97.94315519998781,195.8250751059968 106.84381781332195,197.4928228239878 109.28991260449402,197.80496189760743 133.22074709332082,185.19176036905264 133.8609609955456,184.96191566745983 134.92002275551204,192.16570065822452 135.24479004449677,194.67410588439088 127.36969301325735,212.67063239059644 127.29396252450533,215.15496698673815 131.22029710223433,221.18309403950116 131.54477312008385,221.730402343499 137.06319559109397,214.16420477541396 137.429032106651,213.35693039104808 148.0837293510558,234.52587388973916 150.4153545955196,236.6771917610895 161.97503118216991,227.0154323807219 163.83887502225116,225.59659961954458 168.62212920887396,232.7878058727947 173.7750064355787,230.73673296405468 191.80730965326075,213.28767105739098 192.38169628439937,212.71065900410758 215.43638727115467,206.05399771750672 216.3393277155701,205.22465556586394 220.22371925332118,188.07806752581382 220.13284266670235,187.14160738087958 235.41001244448125,174.26419959095074 235.61535857780837,173.9880123042385 236.88500935118645,153.8910787909408 237.67027626675554,153.41647809394635 227.02519096888136,148.76938564592274 225.99642140441574,147.00409447890706 219.86341688898392,121.32433681376278 220.3550825244747,119.98355649790028 194.93206613336224,126.79805476608453 191.88770048005972,127.11254418559838 184.25668864010368,114.32969255169155 183.43239139555953,113.73037261579884 149.73844053340144,102.1796451752889 149.18473415111657,102.14679778291611 149.83659889770206,91.97736816032557 148.8541414400097,91.04679676349042 134.65933511115145,89.79672896151897 133.33696426672395,89.57713388063712 109.8442015289329,67.4058967923047 109.0697116444353,66.46261989383493 109.9298352355836,56.008445535146166 109.11398485326208,54.80453400046099 84.27059797337279,53.5988155885716 83.84126435557846,53.367482517438475 65.32574236451183,32.63157524325652 65.3440924444003,32.24583302158862 49.85662492446136,31.849287508637644 48.45095054223202,31.36902086873306 24.726044728886336,7.066693335655145 22.122954808874056,5 5,24.87879130971851" stroke="red" stroke-width="3.636349552575844" fill="none" stroke-linejoin="round" vector-effect="non-scaling-stroke"></polygon></svg>