<svg width="244.16828359104693" height="270.0155437531066" xmlns="http://www.w3.org/2000/svg"><polygon points="5,60.90503356588306 25.94705322664231,77.88876402465394 30.498164337826893,85.18593392701587 14.892440746654756,122.95432631747099 14.666996906627901,123.28465825581225 12.603341084439307,142.6972465015715 12.421296639950015,142.9634471159079 20.180176497786306,172.43138342967723 20.5078564977739,173.61087361886166 17.836317866691388,197.7236125477939 18.398179840063676,199.41921158193145 26.120068266638555,198.23807914293138 27.047475484432653,197.5384754865081 29.672119466704316,187.68548846337944 29.621147022233345,185.91413831192767 38.46938083553687,176.76965082797688 38.98230926215183,176.59873885981506 39.316688497783616,185.4788646668312 38.2319948800141,190.260596770735 52.4879681422608,202.505969455 53.02041173330508,203.59940836491296 62.48264504887629,203.65859721123707 68.2495217777323,201.30972239171388 94.67742350220215,220.58462092926493 99.02114958222955,221.54313751042355 94.47790279111359,229.17952693620464 93.93905123556033,230.1433459034306 109.7023524978431,238.11627235414926 110.2764478578465,238.50294173142174 101.35860024893191,256.73614793719025 101.18092487112153,257.4520260641584 109.95546709327027,261.95635451184353 111.93174158222973,262.77854915399803 118.40698965336196,264.571972838894 120.00548551115207,265.0155437531066 121.88971832895186,258.73383809177903 123.01810261327773,255.70570648327703 145.23305898660328,259.2966584461974 146.51552568888292,259.02659383864375 143.2477550933836,255.58513206103817 143.14289749332238,255.4053826155141 156.1184429511195,250.39547532470897 157.23488511994947,249.73652612761362 163.27672177774366,236.6630301803816 163.58605169772636,236.34132218413288 160.40507989330217,218.21634623780847 159.84816952887923,217.09004960296443 165.45309951994568,190.9691245846334 166.53954076441005,187.82879808015423 214.3650921244407,148.3786457614624 214.4652893866878,148.24688418215374 235.79419904004317,138.7059793921071 239.16828359104693,137.22225662891287 235.5349677511258,103.92735156405251 237.11540479992982,101.54090578510659 230.82220117328689,79.93171094619902 230.13480135111604,77.84690746018896 229.70575900445692,89.0508248610422 229.75614890665747,90.026387436199 219.66040092450567,101.25150295638014 217.1333327643806,103.57472911133664 158.7439607466804,99.71231876505772 156.78982286225073,99.99638075724943 154.87384149327409,90.30244726326782 154.76723626663443,89.68977208295837 138.23119274666533,82.05300721683307 137.12290616880637,81.49285161908483 120.23122062231414,59.31212948873872 118.3152392533375,61.853111075179186 101.67084288003389,13.595289523771498 100.57158570666797,10.423485395440366 78.34701738657895,5.292647121066693 77.32727722660638,5 68.4502075733617,9.925952088553458 67.86271374218632,10.504106174746994 71.11359061335679,19.49291557451943 72.53674126218539,21.162715500686318 66.81996316439472,30.48022537556244 66.49577841779683,33.70963946770644 70.60066218662541,43.380229368049186 71.16689322667662,44.8868507585139 63.52452181337867,50.27684593189042 62.87061816896312,50.621537499537226 59.47177557332907,64.00797946698731 58.80359964445233,64.68885828420753 17.581746915588155,48.297308349458035 15.301967928884551,47.681844450940844 5,60.90503356588306" stroke="red" stroke-width="3.635422898274675" fill="none" stroke-linejoin="round" vector-effect="non-scaling-stroke"></polygon><polygon points="5,60.90503356588306 25.94705322664231,77.88876402465394 30.498164337826893,85.18593392701587 14.892440746654756,122.95432631747099 14.666996906627901,123.28465825581225 12.603341084439307,142.6972465015715 12.421296639950015,142.9634471159079 20.180176497786306,172.43138342967723 20.5078564977739,173.61087361886166 17.836317866691388,197.7236125477939 18.398179840063676,199.41921158193145 26.120068266638555,198.23807914293138 27.047475484432653,197.5384754865081 29.672119466704316,187.68548846337944 29.621147022233345,185.91413831192767 38.46938083553687,176.76965082797688 38.98230926215183,176.59873885981506 39.316688497783616,185.4788646668312 38.2319948800141,190.260596770735 52.4879681422608,202.505969455 53.02041173330508,203.59940836491296 62.48264504887629,203.65859721123707 68.2495217777323,201.30972239171388 94.67742350220215,220.58462092926493 99.02114958222955,221.54313751042355 94.47790279111359,229.17952693620464 93.93905123556033,230.1433459034306 109.7023524978431,238.11627235414926 110.2764478578465,238.50294173142174 103.34710812440608,258.76898659864673 107.51665408001281,260.95040765980957 118.40698965336196,264.571972838894 120.00548551115207,265.0155437531066 121.88971832895186,258.73383809177903 123.01810261327773,255.70570648327703 136.47337159106974,260.0930579188862 141.124679964385,260.18782481580274 156.1184429511195,250.39547532470897 157.23488511994947,249.73652612761362 163.27672177774366,236.6630301803816 163.58605169772636,236.34132218413288 160.40507989330217,218.21634623780847 159.84816952887923,217.09004960296443 165.45309951994568,190.9691245846334 166.53954076441005,187.82879808015423 207.43458730669226,153.49547462392366 209.36018062219955,152.12803097534925 178.23961002670694,138.69618587527657 176.27119985769968,138.1953804550576 171.47979007998947,144.20586078701308 169.81867093336768,146.01983450638363 144.25555313774385,132.64727068325737 139.2876330666477,127.93284809816396 153.33651256887242,99.14063176623313 155.77474303997587,97.74880816059886 154.87384149327409,90.30244726326782 154.76723626663443,89.68977208295837 138.23119274666533,82.05300721683307 137.12290616880637,81.49285161908483 120.23122062231414,59.31212948873872 118.3152392533375,61.853111075179186 101.67084288003389,13.595289523771498 100.57158570666797,10.423485395440366 78.34701738657895,5.292647121066693 77.32727722660638,5 68.4502075733617,9.925952088553458 67.86271374218632,10.504106174746994 71.11359061335679,19.49291557451943 72.53674126218539,21.162715500686318 66.81996316439472,30.48022537556244 66.49577841779683,33.70963946770644 70.60066218662541,43.380229368049186 71.16689322667662,44.8868507585139 63.52452181337867,50.27684593189042 62.87061816896312,50.621537499537226 59.47177557332907,64.00797946698731 58.80359964445233,64.68885828420753 17.581746915588155,48.297308349458035 15.301967928884551,47.681844450940844 5,60.90503356588306" stroke="red" stroke-width="3.6566595867008758" fill="none" stroke-linejoin="round" vector-effect="non-scaling-stroke"></polygon></svg>