<svg viewBox="0 0 103.03707482667166 152.46217492023356" width="103.03707482667166" height="152.46217492023356" xmlns="http://www.w3.org/2000/svg">
  <title>Moravský Beroun, okres Olomouc, Olomoucký kraj, Střední Morava, 79305, Česko</title>
  <desc>Geojson of Moravský Beroun, okres Olomouc, Olomoucký kraj, Střední Morava, 79305, Česko</desc>
  <metadata>
    <collboard>
      <support-module name="@collboard/map-svg-geojson-import" version="0.11.1"></support-module>
    </collboard>
  </metadata>
  <polygon points="8.052549999999883,102.1577195565693 21.994824275526753,113.44135859864002 22.202719031112338,113.75193107939378 24.10377275554447,117.81819271948882 24.98486786665262,120.05141243641958 23.10959163553298,121.1475228898704 22.908760204423288,121.26366127524636 23.117237502191983,124.66888687338326 23.101800133335473,124.90193766661798 32.31070039998258,132.77659868740704 32.40893158221252,133.03272483289004 26.15082612442302,136.33756884287106 25.832539617760176,136.46787820666907 33.79516361776723,139.8076823385269 33.8274947110981,139.83383275537165 33.21873808888586,144.31686627983402 33.478333466664026,144.40962492023357 34.10929951110256,140.9239107682148 34.13966452444538,140.74886403221865 39.95438253333077,142.10492618854153 40.132130728895845,142.07967855947902 60.05019593775023,126.40608919756016 60.217895279994536,126.20078019616597 61.764908968885265,119.76703577940464 61.89801986664634,119.74696473024198 60.4588493066326,119.2447350664221 60.27039689777985,119.13377934977291 62.18208201774496,118.97174300513109 62.27820148441924,118.85018724116492 57.91699913776347,108.37530454941555 57.8176756888638,108.19034143858119 71.3695738577585,106.15807441267646 71.40925954664226,106.13743442972884 72.63106903999096,104.16464465755382 72.6173792977711,104.03865709232161 69.82685641776288,103.67095671785466 69.35754583997868,102.88501706717182 80.36766665775895,100.22539372850554 80.45512080885919,100.20475150403911 83.72158068442468,95.43528616097285 83.93916020441202,95.18710599342705 82.38785026665528,93.28634695064795 82.28277421332996,92.57449008172955 89.85582310221025,93.63640565014032 90.21284866665474,93.742336603034 88.61624607109798,85.86565771209246 88.49849972443872,85.41907998661156 94.96770391998098,79.60432276668837 94.98452482667153,79.4171182123315 94.3352815199828,73.66322730767536 94.33440770666448,73.2795227413659 90.51482399108454,71.53543865594077 90.21197485330731,71.38748124388042 84.7129219111007,75.27915821850877 84.07816934219545,75.62357700643008 82.85395686221409,74.29351263351384 82.7536139644285,74.20785745414435 86.1957103199743,71.45192346120132 86.24602740444925,71.32405467902538 84.49898327998335,68.53761460603675 84.90079177777034,67.48615898047103 77.97392784889189,63.382060348004984 77.93948503997626,63.333411142135105 80.39511895998248,61.44610454769975 80.67306441776554,60.60266510336771 76.16098363552692,56.3098621292371 76.07622374222365,56.11241758461222 77.68899188441674,54.222377698933656 77.78103355554731,54.0285382283688 75.19301691553073,51.95677239777399 74.9571601333223,51.89185557229905 75.84160486222345,48.65167406308285 75.82420141332068,48.52815520263505 81.85089197330626,49.4902174756204 81.98502231998236,49.50354012952414 83.05988553775342,47.102700233524615 83.12046992887144,47.10326477752062 81.41041723555054,36.439229334988 81.38944571553247,36.300550066872916 79.85510231997569,36.10664694896661 79.80274633775798,36.09749949307991 80.88438160886972,32.99484246448958 80.93615504887521,32.92933839488944 70.30388567998989,28.57235069025012 70.27242839997734,28.59042222880055 72.66026896888025,9.178818836931555 72.55577545776714,8.981542688335708 66.26796034665995,12.303053677831144 65.96933463999403,12.336947910785625 54.459611048870556,8.220339317070852 54.24858512887249,8.052549999999997 47.3425470844154,16.271021471831432 47.236451582204154,16.495497559291493 52.127985804435866,18.62113979015669 52.22883842664987,18.66440641409247 54.07571572444385,25.88414268298186 54.112998426665854,25.968970093242774 58.41478146665713,29.686675745389607 58.56959206221609,29.83022843386391 56.459478497773944,34.67759247494507 56.49588738664852,35.00939303171583 57.77536855999597,39.513120699826345 57.82546719109041,39.91953445261572 63.57122676441895,44.8925786767428 63.62584009775992,45.02502589858307 63.28862096887997,54.930670529931035 63.25679959997751,55.00088968832972 56.93250278221194,51.25148929005775 56.60897339555186,51.24900548520202 55.31878800888762,55.98067460105051 55.35993005333103,56.37387058480056 54.13855746665604,55.77735854159221 54.08175959997561,55.810887116567415 54.55755095999439,60.14526984911174 53.82165449776903,61.17858033179766 46.024618124450626,63.313432221395146 44.89674356443675,65.38837905496587 42.29561972444162,63.32302661927645 42.21879696887436,62.190311642472466 45.54118089777285,56.99329244983494 46.73670317332244,55.74992605581758 40.70469691552671,52.213503573795265 40.62401481776715,52.19679463336763 36.170115439984784,59.02287428982493 35.230256382208154,59.59124302285602 39.38421933330346,60.56022187480232 39.50364048887377,60.628063296149435 39.16896998222319,64.02172000475514 38.640312915529194,64.5370994122128 33.32425104888489,62.276775816360555 32.50381314664946,61.126768528359776 28.63580560888613,63.61142214542599 28.64403401775735,63.98029529891903 25.433643831092468,61.62479193307047 24.81716852443742,61.88915337256151 22.95645584888507,63.95297980811267 22.39175398220641,65.37934937500506 23.338093822217616,68.9211267649149 23.414843760001077,69.19278898639425 29.596490551084116,75.13583783388424 29.54071213331872,75.62572115328624 20.59694139555313,75.84115105830244 20.270863386663677,75.52291485924036 17.923363866640557,80.25327101906407 17.845594480000273,80.28193244031684 12.477831991105177,78.18577244583105 11.889245893318275,77.2999356031138 8.052549999999883,102.1577195565693" stroke="#009edd" stroke-width="5.538157478025915px" fill="none" stroke-linejoin="round" vector-effect="non-scaling-stroke"></polygon>
</svg>