<svg viewBox="0 0 41.50873304177949 44.87709811923414" width="41.50873304177949" height="44.87709811923414" xmlns="http://www.w3.org/2000/svg">
  <title>Ústecký kraj</title>
  <desc>Geojson of Ústecký kraj</desc>
  <!-- Generated from maps/2-geojsons/world/europe/czechia/ustecky-kraj/okres-most/okres-most.geojson -->
  <metadata>
    <collboard>
      <support-module name="@collboard/map-svg-geojson-import" version="1.2.0"></support-module>
    </collboard>
  </metadata>
  <polygon points="1.7261356071965566,13.052367883596526 2.1667195716425343,14.322542108501148 2.2187988463108925,14.34210439287308 2.077466821422058,15.053492344169719 2.0505023983092543,15.074095923688219 3.709924890754701,16.992821034010923 3.745802209865724,17.02472443964689 5.946610316531224,17.790441371839915 5.975227703199562,17.82277577679961 5.782493608976438,17.23540603731417 5.799467432975144,17.21443227972086 7.485927166308466,16.374325608370782 7.492437075642011,16.374658213487784 6.909625427642095,16.8635197158339 6.910113306755739,16.870606999098165 7.964296275643938,17.721884913371834 7.972903336976379,17.837842167464625 6.932096993863889,18.4244126536727 6.921268990308818,18.4389499873756 6.72728971208744,19.12539319615062 6.720524940530959,19.16756651951182 7.092769420530022,20.099468239442288 7.099090003643141,20.240416672324137 8.280012314753913,19.13270677786095 8.280310867644221,19.1295772997506 9.269118035644714,19.164184870767713 9.323141544974716,19.160837609590455 9.374703813418819,20.09658000737727 9.378002458754418,20.110150100160173 10.310142832088241,21.678538387097433 10.322150483641963,21.7017290991691 11.319797729865606,21.12418887284184 11.343601861420394,21.103539604026082 12.30265568542127,22.77194551512257 12.3224184303097,22.808179356113033 12.578584090753067,24.133955511894968 12.607966064087305,24.15250882478322 12.36338571208653,24.554596152453815 12.277271408088929,24.625505175811487 12.69121134764173,25.1364990320817 12.728785320975659,25.16999181090396 13.503224232975118,24.769450381044955 13.50851808542102,24.762270388841355 13.267564058753852,25.688639650884216 13.224164663198827,25.733784402329547 13.801230988531097,25.88802707970499 13.815721726308766,25.89226319566551 13.527552652532542,26.30484498635233 13.42694032897598,26.347866714693737 14.241210565420989,27.662016726380173 14.24723259564089,27.69192298007438 15.627245992976896,27.805102861552225 15.664062661420395,27.820393237284225 16.255961968085103,28.52805227834797 16.26958617430828,28.558228382947348 15.073000759196658,30.70368749849331 15.048781566309117,30.734652178232864 15.376119322753585,30.839006533725843 15.537112147642256,30.887448324212528 15.432815244530866,31.598343190832022 15.405916357420574,31.666655275067388 16.882558945865096,32.58588528886794 16.901309523643068,32.58102549750947 16.174355084529452,34.54178560877663 16.173240972530404,34.57329986363948 18.349560460531574,35.75874040559902 18.675784104976994,35.830519804299186 18.505193896974742,36.33699406369597 18.46228238053045,36.425425934333546 19.523994707641034,36.5899449069304 19.61113574230876,36.6032337264307 19.79617299742131,35.63685838354322 19.813722081865492,35.522207923267345 20.855169221420148,35.74933507394635 20.91217825964159,35.75757473962331 21.39874665075513,34.50630470471697 21.40872268630956,34.304708400428716 26.069883304975885,35.38706308934962 26.34721709341866,35.44161286476483 26.58521471831082,36.21895314837348 26.58560065253296,36.2191131281219 31.05021152541922,34.76625637617144 31.119694248975794,34.704304380332545 32.42421017430788,34.815954623354266 32.4315283609747,34.81677758956685 33.22749220808801,34.06009876444769 33.23486864897605,34.037978411659786 33.2149092960859,33.26473810188363 33.188665768977444,33.15228980181746 31.471003617866156,32.28387240923075 31.461063991197808,32.2713391565314 31.638469943199382,30.54354225526222 31.633911550308767,30.519897552350088 32.381429729862795,29.98060554365111 32.55041794675526,29.93201834713582 31.454139020531514,28.54771196667025 31.455835674754418,28.52822392902199 32.43228566586513,27.140421861062716 32.43345075030993,27.10850944063459 30.19869499564411,25.880333368714858 30.194020094311057,25.869170598929124 30.161448702308192,25.213709594284957 30.163866252532536,25.189812567920672 30.778630341419557,25.11989569727921 30.8122066187545,25.0707838794875 30.513224104974142,24.613881748155475 30.50005136897562,24.598559398438738 30.8054491289764,24.192718903477726 30.822146245419937,24.190531464566085 30.651563319198978,23.294294185607942 30.7411655947526,23.065646849671978 30.12826564097668,23.20577338471085 30.097500129863693,23.165785057879475 30.40942964453025,22.132686999446378 30.412364200975937,22.11907615730779 29.78181321786433,22.09319484019252 29.757120709419908,22.09942744847249 29.47340080186441,21.209672797647727 29.45033212986491,20.994631166967523 28.753029089865233,21.58128297314579 28.716226984975584,21.581626715911625 27.51841094941956,21.33943160254894 27.497701573420272,21.331868917729665 26.509739091642043,20.217815658710972 26.510860485422384,20.208807317600076 25.783010387643664,20.613617711712507 25.72625621164225,20.623553647993322 25.20882036453295,20.229551693807664 25.104698224088136,20.239270578575454 25.8599933423091,19.631909837334025 25.873552012532674,19.63633425522894 25.997582533421884,18.37835839735526 25.996978145865796,18.370596663015387 26.4876170507534,18.326089722845428 26.55518466675312,18.350934317098655 27.038177704975897,17.48047990653031 27.042517644532566,17.450287755063982 25.77434507208709,16.40443202301722 25.73492152719882,16.385748862031686 25.296849776087402,16.713801550372228 25.259006376976686,16.687263558146153 25.25392369608635,14.833914792236829 25.246255984089295,14.82379611300603 23.49868757164113,14.32142917875499 23.492869431198415,14.31638083475882 23.2974046703097,13.375310002664992 23.302443660532663,13.36292790810294 24.452098017865865,12.59652539892013 24.457049626754088,12.584818672362964 23.552150384088236,12.485700703287513 23.524516037419744,12.456892337075624 22.57438967297676,10.123638718905932 22.549303948531815,10.076457205125553 20.203668563643078,8.81533272427805 20.180694554753792,8.808579413495682 20.945601619642186,7.0423443769705045 20.9611409334193,7.013529911470323 21.633649520085967,6.89312330239809 21.637756442754835,6.890745015016364 20.47184187564308,6.037469609921755 20.46272508986476,6.028334152757089 21.480521015198974,5.2559586003004375 21.478249100530594,5.245235810330269 19.91536113608636,4.647817452044182 19.887901552087353,4.631921098183739 20.385632908532354,3.782955537554881 20.42581375831105,3.740374420142689 19.914166924530946,3.3600724210165938 19.90162042142074,3.3505990179040968 18.50541235030869,3.271258613358441 18.48121500275338,3.2723853219580636 18.125704048086845,1.9548721877046775 18.11845867919801,1.9433723399681186 15.764609448977353,1.7743217471335813 15.761361776087506,1.7749312587944588 13.898690302308024,2.82409766743549 13.644272268530404,2.929579116468449 14.707288033863371,4.496909395199691 14.711438647199612,4.504185354696893 15.032499511198331,6.0095575796312914 15.03731276630897,6.014498789424033 14.62122470230861,6.5273717445354125 14.619076577863963,6.5296238012397225 14.73744187564189,7.101087266266768 14.735337441864614,7.10393650416263 14.02556071653271,7.094377764627644 14.016858992087146,7.101213643786105 12.738339013421864,8.745146117471814 12.737268592087275,8.746512875690314 13.040132293421266,9.325941230364334 13.05331959297655,9.358705348978765 13.677600965420789,9.253418472617705 13.695222867642952,9.247768202575754 13.572073441864996,10.430727588049558 13.575444904975667,10.440245972955381 11.638448325421269,11.24758272676154 11.632724848085855,11.249270292283109 9.247199884533257,14.714313544523975 9.241389025866011,14.718684629573909 5.6175030880858685,13.024124878428484 5.614109779642968,13.021829625680766 4.924765722755183,10.95543077760558 4.921052016086833,10.947463193095246 3.936825086309182,9.583156605369368 3.9284291965323064,9.566780994211513 3.2893803787523215,9.775342391951199 3.2727779254189957,9.771036200791787 2.754621182308256,9.139562092746564 2.7477617476444722,9.135186486934618 2.3721021138644574,9.167848403763855 2.371344808976937,9.180860286722965 2.9102036463085827,11.660159570280303 2.910254618754334,11.670858138442055 1.7261356071965566,13.052367883596526" stroke="#009edd" fill="none" stroke-width="5px" vector-effect="non-scaling-stroke" stroke-linejoin="round"></polygon>
</svg>