<svg viewBox="0 0 81.11098657776826 85.21946723083899" width="81.11098657776826" height="85.21946723083899" xmlns="http://www.w3.org/2000/svg">
  <title>Rumburk, okres Děčín, Ústecký kraj, Severozápad, Česko</title>
  <desc>Geojson of Rumburk, okres Děčín, Ústecký kraj, Severozápad, Česko</desc>
  <metadata>
    <collboard>
      <support-module name="@collboard/map-svg-geojson-import" version="0.11.0"></support-module>
    </collboard>
  </metadata>
  <polygon points="8.052550000000004,71.10719137949468 28.422522337794028,67.23452372219595 28.50284034666368,67.24087826825394 30.79048365331949,68.88806679848472 30.934080311104147,68.94721999607987 27.35472244444066,71.81688061502769 27.211562693329718,72.14232019222231 30.589433768887496,76.56761762755173 30.516543173325438,77.16691723083909 38.08908233777732,69.7480924269546 39.521917751124086,68.34170537768637 47.07421357333772,74.19830877251638 47.10137460445515,74.23284991029482 55.25936870222325,60.1719633435348 55.468210088881854,59.86597973315634 62.53422879111134,54.28678873909644 62.57609901333456,54.22854392178829 65.14183341334103,43.66172749212251 65.17503831999022,43.51146300161031 72.77284525332618,30.993879847846756 73.05843657776825,30.728657994979358 68.93804262221204,25.09695130011073 68.92690150222154,25.060644138858834 62.6109787288948,25.101576414431975 62.319125075569566,25.12111751802854 54.52492859555753,14.334966057365591 54.17933542223876,13.72097120065132 48.88162363557024,18.946468746267556 48.83866114667729,19.425452067611104 45.418482942222575,19.251644755546067 45.200539333345326,19.33698733835604 29.808900008887242,8.349460120174399 29.353570444429018,8.05255000000011 19.867598533346275,9.874698658000625 19.648781111092497,9.78830008942873 14.831739475550087,21.366319995074946 14.712463955547385,21.93906152816612 15.039051688894354,35.312395275082736 14.9252375022403,35.576207232974184 20.034424062243154,41.68849007640506 20.700997999992644,42.820472111132176 23.9700064977875,52.43170651478408 24.09328699555011,52.560796978744975 10.308954479994675,61.41436832003069 9.871902177786644,61.49155547904206 8.355035048887324,64.26605979406281 8.144737306669079,64.56081068434992 9.549901964440899,69.39953184479214 9.518735955563564,69.87760342285742 8.052550000000004,71.10719137949468" stroke="#009edd" stroke-width="5.582524278476477px" fill="none" stroke-linejoin="round" vector-effect="non-scaling-stroke"></polygon>
</svg>