<svg viewBox="0 0 71.68683042133344 56.09671452251933" width="71.68683042133344" height="56.09671452251933" xmlns="http://www.w3.org/2000/svg">
  <title>okres Benešov, Střední Čechy, Česko</title>
  <desc>Geojson of okres Benešov, Střední Čechy, Česko</desc>
  <!-- Generated from maps/2-geojsons/world/europe/czechia/stredocesky-kraj/okres-benesov/okres-benesov.geojson -->
  <metadata>
    <collboard>
      <support-module name="@collboard/map-svg-geojson-import" version="1.2.0"></support-module>
    </collboard>
  </metadata>
  <polygon points="1.7261356071965523,20.038752893731356 2.3859229280864342,20.254580486526898 2.4080231236399374,20.29527471407964 2.0918119236408486,21.72540947021225 2.111297960974112,21.790563413002015 3.398512382309487,22.495647730840204 3.4242170578643667,22.499365160096563 4.153705555641859,21.67081160328998 4.169594394752126,21.670383470938027 3.910989338752184,21.766295547181286 3.9063581280864996,21.765822356524946 4.031000318307266,23.132113649258457 4.055219511197715,23.1600811708271 5.9371075965307645,23.683395492069025 5.970669310308946,23.69875751305844 6.279875440085376,25.597504393592313 6.273897100529935,25.614977641425863 7.220921427639038,25.634454842882764 7.266155831197462,25.637652249676826 7.301457889863009,24.348686891627217 7.3070939858636805,24.336434774296137 8.41080760719669,24.539796099103473 8.457724101418348,24.53731873768447 9.206319984085345,23.90299846429734 9.258049733417643,23.918585108672048 9.246267816973337,24.80893221344049 9.257794871197616,24.900172667585498 9.800090707642445,25.768080085168545 9.90018602497475,25.776456181717 9.676686419641552,26.036210132731135 9.674181488085374,26.03866430012458 10.715140748529299,27.255716871297405 10.757054661419893,27.26665685847874 10.49319216186304,27.993756803432547 10.494218892530258,28.009770687109626 11.139195077419933,27.567104027123783 11.15139205519699,27.611682926361752 10.812490835639252,28.293477619759866 10.807269800974241,28.301681056261074 11.03820410141961,28.548307299979566 11.037730785862728,28.563734433462738 10.195483959197368,28.554788726782494 10.163895607197261,28.56102259185172 10.709781360086705,29.724628048610242 10.70399962853007,29.73713810712106 8.775515447194989,30.79735166891514 8.763762657864204,30.811703920668876 9.08433564275219,31.68222810483457 9.077170373416807,31.720621961077626 10.242895614308141,32.435290074748984 10.246674856973183,32.43793253073999 9.77456807652961,33.21588358633925 9.7808959414182,33.2442268472736 10.879031720974668,33.54956249617571 10.965961584086832,33.651854394552714 9.989001868530245,34.10375284073415 9.945966561862221,34.094276609916776 9.87772902230681,34.85303135768226 9.879331013419502,34.91817530320004 10.459783365419204,34.99366982773535 10.463278618753607,34.99540067108937 10.224865932531607,35.46168568409084 10.236247351197013,35.47986919747964 12.183889889864437,35.25634714765365 12.223473633862518,35.24263590997034 12.714338273862445,35.512797161423435 12.751577285417076,35.514943653224684 12.675023955641151,36.202519459603714 12.680900350307999,36.218127302888384 13.741141758307998,36.503544102552766 13.759688446308786,36.50134181733774 13.692069857863311,37.3951721511261 13.692499482749913,37.40301369967237 14.357981153861687,37.78998804152397 14.40050673608384,37.7740364358473 14.178827575197278,38.272603257527585 14.117704332531497,38.28586884686265 14.803356528086073,40.3442183310839 14.809728083642035,40.46548235060072 15.293201719197164,40.476250016718765 15.305194807197035,40.46557217480622 15.439689242751406,41.480368234696286 15.329319336974363,41.46803090494686 15.785966903197181,41.544714985834794 15.794683191196595,41.570848621636465 15.171392140527672,41.4647304680755 15.157098010751719,41.49525382034371 15.704090593861833,41.942767945728335 15.784612492529044,41.93852489399032 16.01797162497423,43.045423528229364 16.011549096975425,43.08407451862767 15.260943443641366,42.977873422473564 15.254047600085682,42.979107939263116 15.365138401861254,44.32952529977956 15.35607258852869,44.36941266399262 14.102609207197743,45.68507305109997 14.116160595640025,45.74974064809685 18.52689359475225,46.091810018358586 18.548302021420746,46.08976861306764 18.989825335196286,47.783481244708305 19.000842664974694,47.78785433332123 19.96550345786272,47.287258818757614 19.986467696084944,47.267959376470024 20.083839628530036,46.73062039211836 20.153868485418567,46.59288473827946 19.74351846230747,46.01999023143762 19.745491824085544,45.998442990317194 22.769191792085252,43.85604966236315 22.781680040974237,43.854759237559115 22.840342042751214,43.33681430529868 22.87819272364031,43.20459338077526 24.038070696975407,43.59819431226242 24.04118001608476,43.599193035603456 26.03647450853204,42.73260309116194 26.093468983196722,42.67155876987854 25.12972569430894,41.40996986838618 25.126492584972944,41.40169623287693 25.466143827639822,40.70771042571468 25.45776978319809,40.68835413056258 24.8025772640849,40.37082927625051 24.748721235640183,40.37975570360177 24.980922565418947,39.218951154673775 24.98548824008503,39.19379459828669 25.675676983197988,39.09032581529063 25.706508030307663,39.06616821800162 25.76484235208372,38.434102041293585 25.802532833863,38.430226934946035 25.106140016085188,37.79702021350276 25.083318924530246,37.79484091516242 25.64459107386246,37.71043175482955 25.658207998307258,37.6971198374802 25.420290472974372,37.28458040584118 25.489132400085868,37.23201371738432 26.65771209786362,37.47909186597571 26.685215372529996,37.45879172617169 26.333731240973062,36.591893212347706 26.338260506750153,36.55284809279873 27.803099333418135,35.82783921639675 27.92503270230845,35.8429761522133 28.12728408008588,34.631787922773576 28.157102960085098,34.57680163048389 29.109508520974845,36.38116986105924 29.11627329253133,36.42256459412055 31.590199038306668,36.689487940101024 31.611308912084855,36.69304967658135 32.110467496973065,37.86299412865955 32.10857423475135,37.885921366607725 33.86568905786152,39.59183863866092 33.895500656085275,39.631086703800605 34.27643957875152,39.72713378753869 34.30332390230796,39.74825650860766 34.13469977430832,39.16787423993119 34.13728480541794,39.14749050979044 34.588026849863304,38.3521850794601 34.614365040084884,38.330910955423676 35.360987560973804,38.412581126181244 35.37049028097426,38.41507468121745 35.49999669875142,37.93224734983559 35.50896784897377,37.88066417402769 36.228684200974016,38.42912617960137 36.2630105014181,38.42170169133933 35.72319775119722,38.660268718218504 35.718399059640426,38.67775648576098 36.04687277341909,38.78326595566068 36.06523741697492,38.795193766644296 36.1587500071957,39.958041921808395 36.10286236275169,40.027751515985074 36.642019752973646,39.69829625699967 36.65800325519703,39.69254670005939 36.9753868214193,41.32210254782294 36.97164398764034,41.32423553893786 37.52639894586354,41.845917788039145 37.56939784363967,41.874833823273725 37.26603898141948,42.177578697401984 37.265048659641245,42.21056746093272 38.57857214408468,43.33378432490026 38.60930124630576,43.34312114801905 40.21527548986378,42.63553119017779 40.22046011564271,42.63380275828422 40.26192984008412,41.73332789030137 40.275983671196805,41.72157485342941 41.254552659641554,41.80323941698188 41.271373566308824,41.8080326119878 40.495063237419885,40.61778840380902 40.478955944975674,40.61481305885427 40.94565964630928,39.75466854658334 40.950116094305486,39.74485397052231 40.76440163386178,39.23594299549768 40.772914032084,39.21423430914765 42.00409517341941,39.611838903828534 42.0325596427534,39.6236301545392 44.65943184897369,38.98741663143919 44.6817650614179,38.99201013070305 43.00289294053109,37.44447935218377 42.91192897252804,37.42462845446898 43.828144097862605,36.29072734866822 43.84780489786244,36.28050204832288 45.36194136008453,36.063676241219575 45.39820461341769,36.067137251230086 45.62280376719609,36.7143975754112 45.587945896973906,36.79149650465879 46.718842394753665,37.29339951660549 46.72265804630769,37.308476231045276 47.78595780097421,36.77906996539277 47.80570598230879,36.78038452829532 49.183563973418856,37.542530722338775 49.24066039297504,37.61548393741286 52.55938158764221,36.674690417056624 52.65126305963968,36.682532996889854 52.62370881253046,36.19958666335187 52.60294118230704,36.12407504683833 53.69496026853049,35.784833009407514 53.72808507564078,35.78510271230661 53.33879395386503,36.37273131981964 53.32916016186246,36.43916060311203 54.34450212808625,36.94881450401335 54.31426818675136,37.00546225888574 55.76211862586388,36.70577977573739 55.84936888719567,36.70812804322522 56.32103147919588,37.901883879838344 56.3218251929724,37.90483823151626 57.13701293341765,38.18012514506736 57.178548193864486,38.19152633279627 57.060918355641846,37.38564544094151 57.061930522752306,37.338393612341676 57.71187288008696,36.498847391178785 57.72211105964271,36.447385553051205 57.62741882141745,35.423879966125604 57.62214681430669,35.367901400936894 58.17041370852858,35.8972530169256 58.31892556630956,35.82946865841404 58.18159851919518,35.515662896361384 58.12560892986258,35.43809647510533 58.89388745786455,34.7583599535199 58.91999263119833,34.679647578193176 59.79411179919444,35.713147755583115 59.79933283386236,35.71579986821925 61.67956795563987,35.4067751530576 61.70683093164007,35.4142374433828 61.902441328084755,34.77116198786134 61.90458217075393,34.767464125001055 62.961830768087026,34.258371585847996 62.99413273430728,34.252503909448926 63.378763518306734,33.45800518599171 63.38018346497447,33.4391404124839 62.9384635431943,32.86896187778802 62.94127430941917,32.84033558275296 63.41096353964131,32.34204991756596 63.41296602852999,32.313960615432364 62.412515297862775,30.90355294179062 62.390189367196946,30.855277846308667 62.27574166586456,29.640791918637476 62.263500997420124,29.617807634563718 60.31015682675243,29.899642519072582 60.28349095652993,29.89696508844972 59.50884815475038,28.793245884869606 59.46611868275395,28.75461770073343 58.65592624186429,29.367685582492044 58.625044222308865,29.33477689594619 58.1804625618639,26.244923003240906 58.153847664084246,26.175003952802577 57.22203497075134,26.420949346277116 57.18125701519784,26.424483999003492 57.29936016897446,26.03829279779347 57.299294632974856,25.986800078822483 56.32716273608567,25.608413921496318 56.3224222987501,25.6010170612968 56.35064646941792,25.04391580208357 56.35709812453024,25.02510082206754 57.285524791198625,25.068596994314063 57.276182270307984,25.046809542518528 54.51940314852873,24.99090490873095 54.456153626750535,24.98836019277114 51.90118169430826,23.956571737275585 51.887834195640245,23.9494091438235 52.58121235741892,23.370052654897513 52.5998609903083,23.338008928126143 50.31019334941993,22.416240585394913 50.30267855475431,22.40930127658539 50.04338901164192,22.035252741916697 50.01198270408676,22.007301998640827 50.59609779030907,21.39993232403685 50.60504709519628,21.36618695998222 48.18392880186329,20.771209024802733 48.14141050141952,20.74913399962424 48.24926819386201,19.77888295614866 48.16283349164186,19.675722728687465 47.19943972808432,19.903387195304454 47.17428846763978,19.87729642685335 47.845078554751304,18.954482212620857 47.82724548097357,18.924779779071464 46.3598434685282,19.117025498890502 46.31390273253091,19.121297549197692 46.50718296008599,18.234262608469358 46.48811198408548,18.209697104937 45.63852512541816,17.889907081575434 45.62478441075254,17.890763938652885 45.54858060630686,17.36060304583115 45.54316296364013,17.30147385609634 44.77156394497324,17.482805853929673 44.73495844808531,17.477878556080753 45.41443569608563,16.45086280691648 45.42187039119781,16.43990115764354 45.086173153862546,16.251655082301653 45.08374104008435,16.218757591610842 45.3686770045304,15.552160107183221 45.3361857120868,15.520115633191375 44.08453549342121,15.692303125480606 44.01699700452918,15.691276738979282 43.64357287652856,15.056086972977567 43.598418572529404,15.051123645280672 41.997993043640236,15.914663523390841 41.932194899641395,15.85786463945296 41.20539337786212,14.748904892926289 41.17688521786367,14.745294997516972 41.48455489252992,13.743039352562114 41.47339920897393,13.69214151600499 40.77607432364202,13.296462641425382 40.7277087556391,13.273849619785683 41.494188684529576,13.145414005271228 41.518356904974276,13.155626225371448 41.789013303198224,12.507117995119549 41.78501560719633,12.48751495853539 39.871102263195276,11.836004062784555 39.852373530752445,11.77796632094723 40.59843535475265,10.962336484545446 40.61899181342051,10.91700070133556 40.58186931030832,9.907945029889012 40.6259459111945,9.869736408822424 38.64878304541816,9.341258007014764 38.61959039830726,9.31766876684596 39.32235477164104,8.832299499438156 39.34749146852882,8.80489095741977 39.23517732808432,7.416372787730139 39.23748565164169,7.396209248800365 39.5610441654182,7.033512636080919 39.56245683030756,6.926643181567847 38.48148420097604,6.704447430391515 38.47425339564106,6.635023524806089 39.43239699741716,5.664453754006896 39.428173566305844,5.603898290245339 38.69701754141897,5.302218334529967 38.64516400186294,5.2862507656438495 39.105845672973736,5.201372125641861 39.11051329253132,5.197823715448973 39.127072055197274,4.471062927350063 39.11760574408581,4.454832974750384 37.876128168973445,3.801119061785353 37.84435049075291,3.7818690537056643 37.42258992186289,3.965673903940838 37.41377897075326,3.978356108465592 37.36798387030612,4.775546423464035 37.36526776719729,4.780281769937206 35.49951610141906,5.992858543531106 35.45150734053058,5.999841337450558 34.86451595208381,5.637187493827146 34.854860314751924,5.622848075637371 34.762745825863746,4.722496700169354 34.74666766053014,4.713150221247993 32.443834565418726,4.876332695754896 32.43342890497478,4.887046354620903 31.395251283642207,4.137050720378825 31.341912261418834,4.07845632435819 29.65534330141854,5.086126719399541 29.636898558306342,5.096342727446241 29.268142049863304,4.792001452240579 29.227669928972677,4.8277028172382375 29.1144528480876,6.08615380787996 29.093160929864457,6.091622440466377 27.51455888897362,6.155426515262294 27.432901032975128,6.147393140843265 26.665998760973523,4.994317399271309 26.67337520186156,4.93208191626945 25.453269644531606,5.224380232538166 25.446177192974204,5.232494070277967 25.517422106753287,4.754344678596313 25.512142817864145,4.745597239591366 24.5351685387508,5.687798897918033 24.51061438408396,5.70834163796862 23.322082615197356,5.8385568556670435 23.27531175653166,5.843110490225441 22.537886120974505,5.31382389136597 22.479471699639177,5.322502616858761 22.459337584085365,4.764403085953741 22.45584233075096,4.760605756815126 22.974501516529195,4.43695284572204 22.97922010852962,4.422610272556263 22.696847329863882,3.701906754506122 22.670166896084623,3.655640218245749 23.48169918408566,2.9607697898962173 23.478138394751653,2.9395044634777108 22.39405644630787,1.948330685255128 22.37343445164042,1.9393865188194426 20.410769605420132,1.7374547712406596 20.398943998308454,1.7261356071965523 20.246645616086965,1.9517115989601692 20.20646476630827,2.021918794852168 21.189905264084878,3.9246091302982635 21.207017441864078,3.944333372019533 19.79190587563971,5.855166869079763 19.786531923640354,5.873279635596915 18.04738124630712,4.160119830551044 18.03369150408725,4.161363140920362 17.706819781418375,5.129171694592874 17.71777157519718,5.162667208243871 17.086689022307468,4.899319570884469 17.05474386319583,4.9126437771676095 17.18845186675207,5.600282342800707 17.15229784008588,5.609706400813953 16.704126263196297,5.378834893972449 16.670338814308703,5.320999661479796 16.792723653420758,4.678679997321519 16.763225171641164,4.659817346517589 15.955086192085941,5.108355553144425 15.892579411641414,5.1138138650177964 14.994066288085373,4.540322238103904 14.979451760086882,4.4695710395699235 14.867203155641977,5.279617374031291 14.843784958309328,5.2926355387102335 10.869834835639992,5.263807946509401 10.829406405416735,5.272780565034551 10.5278242969729,6.1123218431112 10.47824995386363,6.200112650760635 10.985768019642634,7.809755869787837 10.997105747640667,7.851130269277561 9.430139987641082,7.888765677748957 9.386660492529696,7.820045846655917 9.038125480975209,8.457749354331822 9.000260236529353,8.508752477770392 7.267743258753395,8.389454567358548 7.2417910027510475,8.370062622399196 6.967908776972395,6.971639317977311 6.956643866752343,6.9500055201428 6.176000880085117,7.746727926195668 6.151992858750233,7.779755563038994 3.9934845991974686,7.449560568012017 3.958954408973291,7.459704376173973 3.344139347640517,8.344639531361823 3.365183685419102,8.405379176522906 4.4264372605295605,8.01233269100521 4.450292364530101,8.005792971294792 4.5012356818642685,8.552888542712386 4.526896666751777,8.587706993085517 5.081090928086265,8.696339582467404 5.130592453420464,8.73831710237027 5.290412912085954,9.306478239568602 5.287623991196229,9.329819101463723 4.77358873430821,9.904410969482338 4.7734212534200156,9.931678500878112 5.383663358308327,10.637515797942248 5.39417824541924,10.69048547801976 4.604418472973698,10.911841700158035 4.587182504973676,10.936880307995667 4.863977441862876,11.942416274118656 4.811002508529414,11.98972998974677 3.460443902305629,11.844638563263649 3.4346008729731654,11.916366467524854 3.0421276143071694,13.242062594232625 3.0514337263088196,13.350670322042783 3.8496840516414483,15.010785160189329 3.820768112085712,15.058749119613271 2.3141464445292472,15.24436296707026 2.2997285245295602,15.294569554945696 2.4646243823070066,16.887416293680502 2.4629204463086314,16.917377884380763 2.122541025864844,17.981511107164618 2.133237957417801,18.019787042095043 3.576136787642095,19.20279275073153 3.578175685416859,19.257550531432567 2.314321207195822,19.39253772765114 2.20398771030777,19.431401158740115 1.7261356071965523,20.038752893731356" stroke="#009edd" fill="none" stroke-width="5px" vector-effect="non-scaling-stroke" stroke-linejoin="round"></polygon>
</svg>