<svg viewBox="0 0 3204.452835608899 480.2638712640612" width="3204.452835608899" height="480.2638712640612" xmlns="http://www.w3.org/2000/svg">
  <title>Česko</title>
  <desc>Geojson of Česko</desc>
  <metadata>
    <collboard>
      <support-module name="@collboard/map-svg-geojson-import" version="0.11.0"></support-module>
    </collboard>
  </metadata>
  <polygon points="162.61731273777661,129.93715188172757 164.22483800000157,134.4035771528794 163.7638286489015,134.54618624076068 166.85312287111412,134.7596478822594 166.9002359733346,134.74712452144706 169.89668752888213,141.00100128967426 170.4697634399996,141.12057993552992 180.64575661332458,139.19499347604108 180.90091010666913,139.26121519314586 179.6890766488865,136.5343257430428 179.71798530666968,136.47746474004055 183.52366082664923,135.20834333811183 183.88585645333626,135.05411526800128 185.82004226666288,130.90299398569152 185.90043309331634,130.7195304327539 190.55341627557175,133.0228221251524 190.75155344888447,133.06355252877222 197.16599867554726,129.94245503337117 197.71220482665342,129.89743464455353 199.06064443555772,133.7734526356286 199.12195700445557,133.85840986562073 198.20823952888134,139.0035479581926 198.2659840266639,139.28411638158252 200.02198473778083,141.04014640348726 200.04412134222332,141.08989562871977 198.92025175999845,144.84103720258975 198.7278671911114,145.28908585049032 186.54414224890172,148.8265332572406 185.8873987111216,149.04027748399642 183.06228738665925,162.71354557635607 182.81004660443398,163.24218694461854 166.20657382222237,167.85450122364966 166.1373969333432,167.86002620531474 169.0643803289055,174.86649373367948 169.2884406311274,175.61542219413207 167.01375888888253,177.6004895555012 167.00239931556973,177.67929100291042 168.7929156533279,182.46635037742783 168.89566153777525,182.82796966750868 175.03114185776906,182.7983232883049 175.16891309334426,182.73609965685284 182.45957464000787,178.70268488856493 183.17093151109987,178.28884285246716 187.61361695110793,172.50171547488537 187.67500233778958,172.4372252136742 191.6239832444477,177.51402202825523 192.72790075554042,177.84782876726933 193.0062831199972,182.01499925333303 193.20558537779254,181.9661890807689 192.55313808887843,176.50886926108035 192.44871739554912,176.0792273274634 194.37991768000177,173.03341899382178 194.41967618666934,172.87647905306187 203.8425879022176,172.49889684616176 203.8723703733191,172.48593115225196 206.40650185777451,175.18227830854414 206.43278907557362,175.34890720598162 204.50479277331726,187.86931111766137 204.50464713777876,187.9736836709559 228.98489175999532,193.02176354727237 229.78661549333594,193.16737540197903 234.95791561777116,187.90549212252483 235.2457642933365,187.76290951910016 233.13900034668734,185.52166500484566 232.75328457778198,185.3679170419124 232.99700568000083,180.83305938133674 233.6364914044458,180.2837332755513 231.04250370668126,177.56497813648423 230.92584962666263,177.44987588641345 232.95790253332927,175.79625480471407 234.10747679111194,175.9999726211896 234.10063191998745,174.4491276723635 233.5506392444437,173.81822467958375 236.87236781334616,170.34079929517577 237.8462327733356,168.5346335450373 241.14822772445734,167.13049828200712 241.27019750222792,167.13196411295905 255.03253904887936,176.11699446569367 255.06283124443837,176.14574256832532 254.51502310220496,174.41226131114638 254.46572546667414,173.43410987294158 259.22327497776826,172.05310070006055 259.91599049777835,171.77878882108018 259.57731501333876,168.00841121847736 259.6046944977785,167.77410703936005 264.1229647911165,166.15007408706117 264.58273624000833,166.09211631543405 267.38454587554554,161.6905288127815 267.64159263112344,161.37263643593872 266.5301020710973,160.4089116705651 266.3551937688968,160.15337402915577 269.90709933333676,159.39577571009397 270.89050342221856,158.6029814639693 269.27780809778017,155.885628551761 268.5830536799982,155.54458247585683 268.65550736888656,151.72842042049854 268.7305096800043,151.47397006209178 275.1620670844346,152.14753908329988 276.06122100444156,151.98072663148162 276.04534672891134,147.7585891526611 276.1771469066804,147.7194488527963 267.80557826665574,141.7911179832223 267.55603174222745,141.344619976771 257.8504414133273,141.98932221970574 257.72883572444664,141.97217538191 256.1177423911064,138.66205802924344 255.23657446221443,138.0932418519584 250.12148966221832,138.1327274978754 250.08143988444465,138.13983491110378 245.93796269331472,132.2542416127759 245.69780966221117,132.21723393996183 247.77471832000413,129.12125022628572 248.01363344889944,127.94459725110903 239.92015590222547,129.3517710414959 239.62393318222132,129.29569240115927 233.57838281777333,126.78089547428647 233.5178712444391,126.83776657275268 227.48892333333026,120.29246219840536 227.2365369155665,120.1758849799877 224.44230032887538,121.97078543279315 224.19166153777735,122.0823934530705 222.87751910222107,127.73731503965212 222.58639362667566,128.43171299325297 216.0619207377964,129.1468636982387 215.1561403999873,129.17981140662562 214.56340368887288,123.50980493636564 213.6780123288696,122.39927322205733 206.44808080889163,119.32191823227151 206.11472102220398,119.21549590846519 202.8223380177875,121.14799368623756 202.24358231999906,120.83200947140688 200.71076809778572,119.52652387764067 200.57372504001944,119.44842848735391 201.9510004888649,114.1200728764303 201.79953951109894,113.73474800645602 193.04189101333725,106.61500367281371 193.03839576000576,106.55890167911241 185.8129061244323,109.35501358603472 185.54573769777892,109.31731313841703 182.7255779822368,118.67322411319003 182.35187714666938,119.30848849128927 163.6412763288896,120.62187895637874 163.55476880889148,120.67390382622364 163.22461300445832,123.00120430088248 163.22097211555922,123.05266266797082 167.35272564445734,124.16555084000686 167.6492396355385,124.39688248432469 164.18427849777038,126.1694145847938 163.65722342223273,126.9406760289927 164.7549514222261,130.13190132554848 164.50977396444762,130.7744792983209 162.61731273777661,129.93715188172757" stroke="#009edd" stroke-width="4.989795762912865px" fill="none" stroke-linejoin="round" vector-effect="non-scaling-stroke"></polygon>
  <polygon points="3137.297663457786,318.52788881885465 3141.017195546657,318.85521397878586 3141.2165706222363,318.9521405314223 3139.7774000622226,321.6724233188503 3139.9671631911256,322.1128416277421 3145.2982255199818,326.7073953042633 3147.240202835564,327.90574981953944 3142.137497057796,337.4194775485154 3141.7152267644483,338.3345653827779 3141.3769153688986,349.273857318192 3141.4131786222347,349.3262270521733 3145.8968604711185,347.4198690436966 3148.442351528887,346.43536530936365 3149.1700923999956,343.9976309367263 3148.9903781244425,342.9626006218092 3156.336381182227,338.899841703074 3156.638939048898,338.70021406465787 3179.705572151091,338.1676453297183 3179.804167422211,338.1513467114197 3187.172234266654,340.7333245845581 3187.7413780177953,340.8966400616988 3195.905124719989,335.6361307665135 3196.4002856088987,335.24337076329505 3195.1616552088885,327.18847162984423 3195.0468943911033,326.82285850495794 3182.9806973422014,315.54071737678134 3182.2583449866574,315.027265058328 3181.3642154933254,312.82429080364057 3181.332466942207,310.6214528247143 3176.0486633511096,306.81598422665377 3175.698701111112,306.52367748996005 3173.0877468711183,300.8004942626063 3172.1779615555492,300.4295307189383 3161.43588297777,302.1909665325726 3160.78736784889,302.2190860571933 3147.739514337772,312.9319113603193 3147.6612352266743,312.96924676001765 3137.4764311022077,310.088610926097 3137.3443396533326,310.09625833490975 3140.18670879113,314.7337651838385 3140.2164912622316,314.9952162979822 3137.297663457786,318.52788881885465" stroke="#009edd" stroke-width="5.7133416400452015px" fill="none" stroke-linejoin="round" vector-effect="non-scaling-stroke"></polygon>
  <polygon points="11.923178977776502,172.0178111684869 12.960759493325554,175.43503994157766 13.127220933332524,175.6004279420664 23.856702035561852,180.6803127831878 24.392786515563444,181.20990764973214 27.086461751117554,189.5116340965975 27.3527563644235,189.79633897054703 33.961333786668206,190.2372566563496 34.142358782213364,190.29282195080998 32.068654106645795,192.2125512810668 32.068654106645795,192.2277663854253 36.67335910222721,192.0383098579838 36.81797520889779,191.98995945523313 37.67183647110471,194.4313195938081 37.93296102222632,194.49161401663844 44.896379475576055,192.87637671092637 45.451542213333255,192.91458305654635 48.34699551109918,197.3404778633336 48.5861290933459,197.39107741020382 52.51384720887984,195.90023058781628 53.1344003111077,196.36363823345857 59.74319618667471,186.98551782617108 59.89742423999235,186.69234462110728 56.373699155555755,192.24455934754917 56.46625055111474,192.2597744430019 61.490604400001416,190.82356346864947 61.771389751119955,190.69823274468183 63.95854452445167,186.04343547585415 64.15500688888244,185.9335360823676 67.45845819556382,186.19751968931052 67.47768208888704,186.18455724477064 69.68187622223161,181.00147469290062 69.64910822222703,180.51155829610764 74.48544656887645,178.7219621175824 74.88463362665027,178.3597519936808 73.47116774222343,177.2152739777299 73.39492752889748,177.19058491485305 74.41568713778508,174.94394624204836 74.83300582221239,174.45724503295025 75.33683202666691,177.44694477794803 75.30515629333206,177.66057707861876 81.74865581331653,176.08294767357404 82.44646857778537,175.98678228195752 86.42210079110339,178.02425737515262 88.12254153777724,177.35348742976896 90.70720856000082,182.2303045751538 90.94146335111111,182.8455545844405 89.49326338666253,183.46981547045982 88.89768678224175,183.47387348107407 89.6297239022457,188.7234469536703 89.28937360889506,189.74933909950016 92.52685200889357,192.71487289595063 92.58598004445196,193.50705975332642 74.04934089777055,202.81217002207234 74.02822374221398,202.82400169815048 83.29581513777487,203.42628696918075 83.62742729779677,203.43440002762475 85.84378199998866,212.20526416908945 85.8488064266636,212.24818886339892 83.58577552889585,216.52539244438924 83.56982843555272,216.57608689313167 92.95764198221843,222.6528842631302 93.28510352888372,222.75628930083587 95.0943340355658,220.2103057931305 95.28271362666385,219.92204189432198 102.74071042665275,219.61823105258338 103.2082005599874,219.37491080738948 101.97058960889228,217.21472026734375 101.96483700443753,216.91404868358916 105.51921837335215,212.19985633120052 106.40249801779976,211.69568576140557 110.0026089511299,211.96799477836578 110.60787032001065,211.93115371227725 113.84265446221218,208.5726538988016 114.08630274667632,208.5742312895378 113.36096486220015,210.54492014485697 113.74952052444098,211.47587720413105 115.95131167112379,212.85532745283092 116.86721367997927,212.87898645603093 122.23672379554012,208.3831413361546 122.38163117334591,208.27700500042522 119.25323380446173,205.9975028187979 117.93894573333785,205.4540634012443 123.76050861331862,198.14600807159843 124.34720144887217,198.3278930764278 123.75643081777491,194.59698822210305 123.51263689777227,193.93464879922215 129.8873964355513,193.88889219765372 130.00390488000232,193.91503883182997 133.28951583110722,199.36757851986442 133.33917755555706,199.50370755834558 139.8300086311134,199.7534268337546 140.2841002933343,199.98601632420434 139.89117556444364,202.7607867133844 140.3258248799899,203.03956311976765 145.3914664088876,201.62166495199892 145.50032898667962,201.64386391128176 148.1403375199949,194.35164069377754 148.19764511110372,194.1993826706963 142.81699387555238,192.69751656085248 142.635022248876,192.63992504581222 141.97871561779868,188.29097050053645 141.85405158223114,188.09507568792435 152.63261186666898,181.6035495514585 152.659554444435,181.25759122688726 159.59071462223767,182.80226862486563 159.6105938755569,182.8387911555252 166.31492667555688,176.54235210380978 166.60860077333166,176.2806893422163 169.2137295911158,176.58902512306634 169.29157179553988,176.3694135641632 166.16535895999516,169.43428496242962 166.0996773244475,169.2970662461663 165.84037321777544,162.772634583867 165.86680607111305,162.7310242016316 157.94838246223628,162.73711352784414 157.47106192887406,162.52285904950224 153.57014075553855,165.82814833283885 153.52819771556062,165.96515024289658 150.14187977778022,164.2862611743982 149.40591049777106,164.43894084028545 144.0397500000032,170.40258604309167 143.77775163556328,170.8343020822864 138.14704415109702,170.31734737256886 137.93609104888276,170.36481495550072 138.36768201777124,173.79984766050586 138.3808620355627,173.97211787894014 136.9543617688829,174.41282501717035 136.38572774222814,174.48497933924193 133.7278788533364,169.6624934695061 133.54641695111752,169.5075733714399 128.6770921511121,170.4341558873199 128.3823986044223,170.5876076203782 129.32385965332617,169.0961422454344 129.07067223999877,168.19389191829362 125.52240756442882,169.43124067255815 125.41165172446165,169.51208342420398 119.76441460444005,165.01368461951608 119.25927767999349,164.98042023363053 119.34629492444913,162.13776270404162 120.0682103733485,161.0831599312438 115.90856763555314,159.53933451916203 115.83574985777489,159.50651788828657 115.31226285332343,150.23407154920972 115.23820717333695,149.95231865019707 113.70342687110644,150.7806544946576 113.1800855022226,151.38328799900012 110.91428752890317,146.58301437437296 110.73988895113109,146.4553261645848 107.14094310222538,149.10084759566928 107.04220219556703,149.09678703163047 97.81808301332751,144.4949588433443 96.87465588443558,143.99523948215176 96.4056365777866,146.2505957706959 96.33944521778142,146.62802101320233 100.1495626222237,149.19311255290052 100.46697531556822,149.51615146874212 95.77081119112665,151.26102487961873 95.61665595553461,151.2471518331073 94.70883671998274,153.19103584407242 94.65087376887789,153.31656540193183 97.35437940443046,154.4651531026244 97.6576654488814,155.10823437566398 93.6791205244441,156.0960745721892 93.45964774222341,156.2915202306682 90.21146512887901,153.14344055444928 90.00145865776688,152.9341110159654 88.91589122667904,156.29321190960002 88.83426249778825,156.50906971152983 82.95167831998663,151.44284041561298 82.65443615109655,151.3329842025629 79.24212226668135,153.41153006899515 78.76698626665859,153.90270454236418 77.65789869332332,151.8634275097935 77.43143540443964,149.9439720649749 79.57031199109736,149.75267700551888 79.71441837333953,149.7284266995481 78.9238357599894,146.27789320085833 81.29274370664609,143.387448237983 72.78799135110569,146.44224149017066 72.9782642044662,148.18924339576154 65.67507800000715,142.35324002110394 65.42684219557088,142.30586090341205 64.84196980443778,147.02010735608167 64.84473687998945,147.12173802310247 61.73308760001203,146.86681501562236 61.56269399999985,146.90042882541422 58.47572994666518,153.49645676326293 58.321938799992154,153.6550313529366 59.67911654222519,155.62070901663503 60.33673389332364,157.2665952810272 58.55794121776819,156.58891658204777 58.16967682666257,156.76022607013113 59.33607199110668,160.285202732142 60.10713943999838,162.3514548619347 58.76263199109928,164.43003265877599 58.61830715556391,164.56117447504187 55.96344379554614,164.92437815468986 55.763850266673785,164.99598120310804 55.38162975109992,161.65872838156758 54.98695739554353,161.71996111027659 54.48932070221747,166.0491553594253 54.33319938666648,166.01228333089205 53.9168273333122,159.02317512444972 54.128872702225294,158.7044778132473 46.645899404429315,156.8638686135306 46.08309080001311,157.03664334133612 45.16689751999331,156.1204348308744 45.075001484430345,155.51931971888519 47.922977591115,155.35781824647677 47.88496671111318,155.1651887710392 44.25034015111271,154.9044386568345 43.67697296888912,154.969626302052 43.92113097778167,152.4133777527237 43.89287767999451,152.3937528803432 35.95311846220977,151.0109711349138 35.78556475556218,151.00183518483357 35.43167035555928,153.70025773408236 34.71434242666112,153.64544470876683 36.47689673779644,154.68609331321898 36.60643956444221,154.94413771646907 36.745812791115554,160.8537878992571 36.833048488893496,161.01076237322525 35.05381890666433,162.89081240716735 35.15620070222178,163.12998639918044 14.960481306661336,156.86048529095535 14.590858266666714,157.0934829495742 15.420398391120784,163.15659881071008 15.391489733337608,163.41122029617657 11.923178977776502,172.0178111684869" stroke="#009edd" stroke-width="5.022494178721737px" fill="none" stroke-linejoin="round" vector-effect="non-scaling-stroke"></polygon>
  <polygon points="8.052549999999997,194.37034890421603 9.444898728870271,197.7111269110825 10.445560631116336,198.1509665308182 14.650423208898815,196.52862483217143 14.871425164433845,196.93556710769883 11.374205751118666,201.59631079965732 11.211458017765494,202.02834394857166 13.984431813332435,205.02205732325785 14.091910853348622,205.60043088350324 11.70931316444296,211.23691466902494 11.904173537775591,211.8884540969226 23.59550466665644,214.97411958923442 23.757815493335897,214.99315871671536 24.77631775112934,218.9392972753045 25.03336450667814,218.9764715678681 27.92153602667497,211.964614865086 27.9374831200181,211.71720464496286 32.32824948445307,210.69093599980226 32.48713787555573,210.68665467628273 29.90108731555631,211.6457754387153 29.85477520889947,211.6410435321519 31.55951220443933,212.72790664520983 31.77898498666002,212.77928058745567 31.338583066658998,220.261109472434 31.302538266674333,220.6133545271365 32.78685584889138,221.20553113794415 33.24021933333245,221.1328752316109 31.101197111107126,225.30395645948704 31.34338904001163,225.58363167517348 35.28385026666331,225.2026963327586 35.651070319996165,225.30902509269765 34.98893826665119,226.58123717565434 34.72927007111832,226.80098502129078 37.048443475541376,230.408395310507 37.363598817762636,230.83119087870693 50.16226989334211,230.81677488759271 50.49788703112392,230.97039509748686 51.847637359991154,237.42486958874326 51.841666302214094,237.56022825033108 53.120856204455436,237.2847809040319 53.921050764452616,237.31653737364798 54.61937325334986,240.83835058048828 54.66066093333177,241.02425998205547 52.4268299644242,246.802000198462 52.23451821335004,247.36180493172253 53.58994832888823,249.95786390282558 53.53016493333382,250.13259638116108 63.00040820442484,250.3273683957301 63.45275224000909,250.3593424636707 63.805772826664565,237.46968888317463 63.86213378667128,237.3471677098638 66.68018178665773,236.5241966862592 66.70661463999534,236.51766512066354 68.3555732177698,240.0357011622615 68.63016905778898,240.28928920409055 74.89927000000137,239.3807809579372 75.36843494221796,239.35600734374714 82.85439376888792,233.01280460987584 83.3716912622109,233.16867105362292 84.62117151110544,236.30786631450576 84.63660887999106,237.22014179189102 83.25387209776784,242.07214210130735 83.36914264001064,242.98454664275744 88.62345503111248,248.93343848625193 89.07295917333215,249.33560008646566 88.79210100445891,251.6636208185879 89.79305417778198,251.74738178407245 87.55805812444999,254.3449212942138 87.53300880888821,254.36946296814824 92.76482050665766,260.3840926300978 92.86523622222705,260.364506475809 94.13248400888517,266.5425773625244 94.33899522666582,267.1166991215938 97.94260141332745,266.5399886798765 98.3617405422334,266.64938855168987 95.72311554666487,273.92038800122793 95.73338285333705,274.0805268379987 102.18314470223379,269.6538602381403 102.30511448000436,270.09964923051996 98.91610228442698,276.9175961645011 98.86389193777688,276.9996305295132 101.17323494223058,279.4658929666981 101.16850178666175,279.6201643015298 92.74603352000815,279.5307072347274 92.43015000000707,279.59304588541966 97.88900752890152,291.2291004530049 97.83119021333516,291.35420103811305 94.16954825775576,294.6359642513049 93.62115757333925,294.9083107066177 84.46395792888472,296.0353674004069 84.20829471111176,296.101399446408 78.54634839998437,301.95633665605385 78.42882050667652,302.0998591735912 82.61795444443817,308.3113466412684 82.85519476445154,308.52424351905177 81.63455035555637,310.80510101524817 81.56289766220254,311.1890395776787 83.44734893332463,310.2858687468175 83.70024507554592,310.1906137761904 93.22015007111588,318.3357207143923 93.2579424977663,318.3621452743024 88.53687469333056,326.141655830295 88.60015334221646,326.42508843963844 99.58151113778115,329.47844492865954 100.45080976890279,330.5013639124296 97.97937439112104,335.5050611988041 97.96131558222226,335.6676054015767 90.68121261333692,335.020348374244 90.25085954665667,334.9255860660702 89.56848415110255,342.5131335437251 89.58450406222948,343.1645729989028 95.3890275822265,343.919518244256 95.42398011557054,343.93682667779615 93.03985325335054,348.59967680781085 93.1536674400046,348.7815119416988 98.48778811557679,348.6031606757384 98.88544600000716,348.5997891906369 101.3978049688809,345.1554839992674 101.7551946222153,345.0940066854888 112.63009282667883,346.5462914434389 113.02593026665966,346.4091790666058 117.93457666665893,349.1107915811368 118.30696678220522,349.1322564991493 117.54143348444597,356.0080145629396 117.60019743111445,356.1640929957863 128.20261151111447,359.0182609924301 128.38807839112235,358.99623814027984 127.7118925066676,367.9345414781634 127.71618875553361,368.01295696362615 129.70564326222632,366.66740806666314 130.06113965332736,366.5647239265742 130.47146783112078,369.86501272142743 130.4685551200015,370.0493610787886 134.37100546665135,371.88270038214216 134.79626128887287,371.7231843253754 132.57946968000726,376.7088525421783 131.96823725334946,376.8415084355289 134.1529162222356,385.68626986636775 134.5250878844305,387.34625144195854 137.80538313778345,387.12490100955586 138.22728934221198,388.01456485203346 138.82475920889522,397.42500327774144 138.88847476445483,398.63764347290964 143.7232111200061,398.7453201340901 143.84314200000483,398.6385417149646 145.7383703022275,404.0629815679782 145.8725006488745,404.3401733854622 143.77629528000364,406.28811085361633 143.6260722044459,406.73772868268827 145.18808635554853,408.7865023138653 144.0843872977781,408.66312901637104 148.6508629600063,409.4299698252504 148.73802584000043,409.6913061832671 148.85009240001784,411.353704044515 148.86429186666612,412.0428283331927 146.16544656886947,411.5952745808969 145.2534767199901,412.46377472818824 142.5051153333112,408.63012464765745 142.36217403555167,408.93535817033955 143.3908707822044,413.2568289553234 143.41664827554598,413.6749597922968 147.8320998666528,413.4104994241858 148.63731885332493,413.36806890680566 148.20507252444042,418.456129345817 148.0511357422289,418.8697309780615 150.97091017777677,424.4370552491961 150.90668489778875,424.8235651531792 147.44492774221692,421.092239154044 147.20018719111215,420.91692893492984 145.09182125333575,424.8436537176964 144.85006623110496,425.1074978124303 143.40062836444815,423.7615541916381 143.3316699288913,423.77389935953363 144.44257794664702,437.278072964698 144.3519198133214,437.67694660682866 139.78420624888497,440.02222006380146 139.40256827555243,439.93066842918745 138.9130871733429,445.3312802846991 138.83429833778757,445.7965081651124 135.8029670666798,445.85551677266596 135.46319931554137,445.4588341135892 131.8172860000119,450.8335504779021 131.95279988443474,451.4802264478709 135.95107842668187,450.7717428871616 135.9824628888815,450.7490838255395 138.5898490577598,455.32030387491216 138.8722364000056,455.37246022518195 157.2938962755503,450.18114597119677 157.82379124445254,450.1473813589324 176.06012987555698,454.90092015048833 176.27421414224193,454.88050609757886 178.9107274222257,458.98200784122275 179.00313318221708,459.201049556788 180.68944727999735,471.8176324139855 180.7996205777814,471.8613633001147 186.20677748445416,472.2113212640612 186.42879888890423,472.1024432004848 190.44622850666167,466.8554081544786 190.6558708888839,466.66241373160267 189.72241979555804,463.3609937631478 189.67450569777395,463.1824541628081 191.62959021333484,461.28902388808604 192.32987878222013,459.91166734969704 189.01251927999658,457.42098784028315 188.28405023110793,457.0846191127854 188.22637855110918,454.18272228127864 188.2461121688899,453.9672498700744 191.8630440088815,453.74358838762384 192.07989535108902,453.7569363151339 193.6025150844431,448.69862434690697 193.85519277334208,447.939624174374 197.33471746664839,447.359205190594 197.93269705778914,447.29178465148254 198.90881936890185,443.8652313376148 198.91275152887795,443.7623551428329 203.7611048088944,444.39812020672946 203.8388741955638,444.5751503526477 211.4052238488872,438.0179223653755 212.49042719111424,437.4737514233926 212.97204397334247,432.69783069851803 213.08585815999652,432.5402868977759 218.483111848887,432.5433165905339 218.60799433777686,432.5304123424936 219.1946143555466,427.35096301988926 219.57312116443757,426.028753774655 228.06469350221562,426.8355274073907 228.63507515556523,426.64205544129766 231.17190089778853,429.9647630895266 231.20299408888206,429.974750322937 238.02929666668172,426.8084817733685 238.80116511110793,426.3712608759739 241.67033119110386,422.2452097467391 241.92752358222026,422.0779839373496 251.1559390133549,421.30885087852187 251.7258837600017,420.6984076656878 248.43131622221665,419.9899752510606 247.48257339554368,419.93172445987113 251.46381257777796,417.9574462139641 251.48886189331063,417.5216138699685 245.37996006222204,411.9996109870186 245.3557845600077,411.96952720385855 247.75316425777385,410.7330469816585 247.14928642666894,409.81984100536613 245.0138322755589,410.809380658298 244.82152052445565,410.9490261092502 242.08845087112388,408.0825186507642 242.0561197777639,407.9997822956717 245.4526322044327,401.05992422404927 245.36889176001534,400.86636127252825 240.62277463998873,400.52594031677984 240.34344564442983,400.93091975749815 238.81696656888346,397.69111272940756 238.2784062844363,397.7803770029201 239.5895631910895,394.23563149169024 240.29443927997602,394.08684799957666 240.60041958222394,386.1723315136402 240.64607632888476,385.92076594976936 247.54796376001434,384.88607811980876 247.85627423111112,384.6445021469186 246.5035383733408,382.20375015785214 246.18226633777488,381.83266367397266 248.43961744887167,378.3238403798383 248.8165222666645,378.2850893163628 245.0958250933396,376.17901204122575 244.44090200000903,376.06769658470114 245.3563671022199,373.3704460857913 245.43923373334803,372.5889465270517 241.85259408888635,371.95302210193006 241.62438317333692,371.93122911852663 247.2371046666591,371.0871375151979 247.37327391110705,370.95401834170445 244.99409865777818,366.8286240253143 245.68251792889316,366.30295714074566 248.48731309333346,368.6762261508044 248.68173655999237,368.95528212859756 257.36831490667066,368.77373862665956 257.64334765333444,368.57073722861935 255.78467387555395,365.08780361415813 255.7309343555604,364.9442213781946 256.758684471111,363.0732362944178 256.84599298667274,362.88751622019447 254.1285063377651,359.90175209037955 254.173798995536,359.5113008948898 262.442694568868,355.0933343180292 263.4036707822303,354.94770322836814 261.9000564889062,352.1923260112595 262.019623280015,351.9089143435482 268.82218726221583,352.2612121308699 270.04152095111897,352.41258148903546 269.5501465866761,349.3007164798397 269.2566181244398,349.08145992563334 272.06403472889326,340.30069919463824 272.36222352888547,339.7508362717414 273.51223469334184,345.63493724514376 273.6367530933127,345.88758696233674 280.4836631022114,353.2433636958955 280.6744456800003,353.5072156006423 281.88627913778294,357.79451857749484 281.95392685334775,358.208465908108 287.17619942222484,357.53169860276796 287.24807056887187,357.5395641183783 299.5040307466767,362.0514872068958 299.64464187555825,362.0965416423784 306.69318431110116,360.87769936791267 306.90428304888303,360.913316732716 311.8958688977651,372.612761253498 311.876936275548,372.8420336329797 321.4388571288797,381.3840769605373 321.30319760888926,381.7696550958859 325.47128720890726,381.98395135443536 325.5955871555558,382.04695968612907 328.5992476711177,385.67189459490294 329.2214755822275,385.7836397699499 329.4480845066497,389.9012063535116 329.7462004888872,390.2936870049085 333.5555897155497,391.2541578422894 333.8244329511141,391.46538505297906 334.507536524448,388.7267796500306 334.58341264888406,388.54620004731225 332.1381916711176,385.6615623662143 332.1640419822139,385.4577250648068 337.0219343910936,379.61788551824395 337.2116975199966,379.5681280763889 336.6714624266675,377.50467076150346 336.9348443288833,377.2919295211392 344.4010695377725,378.1086312287149 344.49609673777707,378.1335667790769 345.79116091554863,373.3052934652584 345.88087241777214,372.7894617071794 346.1766582311026,376.312006195301 346.35870267556277,376.8418454102863 353.07803593777464,378.2740817629161 353.42129894221546,378.1998368802957 352.60144358222135,380.8614699315 352.3872864977817,381.2743444989097 348.02317144000665,380.58550714908745 347.97518452443876,380.76038482451224 351.25992166222534,381.8154795235092 351.44356809778367,381.9347576333454 352.0301152977987,386.2851987239188 352.2091742133267,386.7121828233718 350.15054281778396,387.7377396677399 349.92225908445073,387.97503452591593 353.62926651555574,391.25269800227363 353.88740553777427,391.5341095201653 352.37869399999147,393.5632391849864 351.81981755555137,394.26033512675315 357.2113914577709,390.96578253689916 357.3712264800048,390.90828696749634 357.92070943112014,400.6562930499564 357.91277229332593,400.7544222931389 362.3104563466692,404.66204645069195 362.4716020888951,405.34743780375686 360.3781637955759,405.3602361848531 359.86203138667736,405.4080616878124 360.5450621422275,407.20384544513183 360.5076338044379,407.22517535628106 366.0551833866699,412.4419978472939 366.48517236443115,412.7311581996397 363.4515837422292,415.7586069409223 363.44168052444695,416.08849457622966 370.75353204445094,421.4334302909625 370.81812141332887,421.4903326851851 371.4903023199946,425.4989409018523 371.40270253332676,425.8715274851198 376.57691536888126,427.32066321590503 376.8842063910921,427.41403144709295 379.01317975999666,424.31854295585765 379.25187643554057,424.29071048618755 385.25592066665524,426.58650506966626 385.3875752088858,426.67314118025354 387.9108568444277,424.7154907941509 388.1551604888879,424.5117986661131 386.59402015110356,420.8170400190353 386.6923241511173,420.7202935023157 392.9439488266722,420.3381318686803 392.9957950844615,420.3208475497446 393.41049232887565,411.3160988699161 393.5510306400025,411.1985685011965 403.33672052445,412.0152141367213 403.50492959112273,412.0631460867804 399.5061413244472,402.0687084728776 399.5694199733331,402.0306478348863 395.74182630223333,400.1607040049927 395.5807533777912,400.1309505554451 398.4859642577718,397.92510832739174 398.50227544000484,397.9467786945239 400.2477903911273,391.52950543273585 400.2923548710893,391.4313596721255 398.43521026665223,386.3422499218792 398.5203342488745,386.1251630583789 410.8321456622285,390.1012090051878 411.11679035556847,390.21912151229446 412.9396377866575,386.5224998716218 413.19027657778463,386.3407899510272 423.11533968890546,387.6444161362957 423.23818327999436,387.70842868400325 437.38551241777134,383.8569862812943 437.60884454221343,383.902921273933 435.7599283466767,380.1974496847175 435.63824984001224,380.08636702766637 431.7587370933394,379.1796141266892 431.6437578222318,379.0419094752648 429.5536691466765,372.9625669391313 429.4300973777787,372.8357429778331 420.82012333334535,368.4276134887401 419.9104836533148,368.22910451159225 423.9516518666711,359.647481599102 424.0674321333423,359.3404003737447 429.0726349066605,356.89009345358465 429.26924290665886,356.7878404501313 444.4106075288797,354.61958237909823 444.77324006221136,354.6541924792033 443.9143543733295,356.739410664282 443.75910687112594,357.33461088545266 444.1272007377771,357.30067666873913 448.11848877333216,359.3853446781792 447.01923159999535,361.12679572101445 446.6706528977735,361.8977850134903 453.73565215108795,362.8715620162908 454.11204724445236,362.7758366951963 457.9796178755711,366.91681513295737 458.0177743911114,367.0675822773552 468.65077193777654,361.77351962083014 468.84825375112234,361.7866652498557 469.69388660445804,364.06418212867686 470.0492373599915,364.1494565618701 475.37076055998443,363.2105316735175 475.66123067556293,363.1576134462299 479.39088443553885,368.10754970651 479.3107848800206,368.68701094930987 482.626833662223,369.4081271902902 483.19779785778485,370.13765934103105 492.56347480000807,367.6008812092838 492.8430950666731,368.06733095928905 497.24951725331596,364.1138413009245 497.3330392444401,363.9525050022563 503.0771968266705,366.1232024004636 503.5355847377865,366.3296956079936 502.88524916445715,363.21232931942325 502.87432649775985,362.79370094033186 506.2951600622106,363.58590132604115 506.28554811556353,363.89644165072934 513.3863008977856,358.1656555392907 514.0550593688746,357.9068824401544 516.3850098044564,360.7297241374687 517.3038245244312,360.808149935801 517.028282053339,355.97868660042116 516.8206057511048,355.22357043528575 521.555508933328,355.38819114126784 522.3587618400121,355.4275202469504 523.4165856977703,353.05064312417346 523.0905076888808,352.50720117233107 527.7407966133393,351.8311500609776 528.0720446844422,351.8338470899686 527.5855491111066,354.1307685649441 527.3917081866599,354.4874345229979 525.3380284000083,353.79736133022345 524.5786846133484,353.6618403170502 524.1791334666847,357.7101331650989 524.082795546659,358.37442599802273 528.8569475110922,358.187903451682 529.1814235288836,358.19824086243864 534.2362152088969,363.47096500703594 533.933875795548,364.03744255575987 541.618554337772,363.6035406029183 541.8225897511071,363.5577009416662 541.457772684436,360.60534373709345 541.433160275548,360.0037745628721 544.5442270133423,360.20725714276307 544.7272180888755,359.7498416250379 542.9491535910998,359.1187120526225 543.3136793866648,358.96904664737633 548.4123801866732,361.04061772427633 549.2848827999911,361.06410039915465 554.1001039911131,367.9403833233588 554.3913751022261,367.96824442261243 554.0015087199932,373.0016587652859 554.0094458577584,373.031202282065 562.1613232622109,375.784071417576 562.5766758666792,375.89808329486516 564.0948537155415,370.591842683301 564.1220875644427,370.46130608053465 561.4003774844529,367.8392743763176 561.4104991555574,367.3667560903192 564.7055036000162,361.7852046245604 564.4727779822202,360.808149935801 567.909922728904,358.9712938786903 568.0123045244615,358.4566754974145 567.34165279111,355.55977820384544 566.8940419111237,355.38751692778135 568.4467353866854,353.18931210542326 568.4746974133374,353.16178060952336 566.2266669777815,351.85519856478606 566.072074835574,351.7939535226393 567.0653821422089,348.22161962815846 567.0126620711013,347.6618339762714 569.5810179110919,347.1855452732194 569.6239804000139,347.1491322807484 569.0253454488771,348.804999872336 568.9475032444531,348.88085795270274 572.4953310133202,352.9553501361585 573.98044959113,352.27750655104285 572.6071791199862,349.1394489305163 572.0472832266602,348.3637847179558 576.2042317066877,342.29890762692196 576.3487021777906,341.9712729802483 578.97072472002,343.9363771081622 579.1244430489093,343.99279806833476 579.7300685066799,341.56641950210144 579.9911202400177,340.7792957488342 588.7323119199788,351.11429752273364 588.784522266658,351.14081864909497 592.38303120889,347.9406598675047 592.668986622222,347.6718362194148 595.5498763644497,350.059285691044 595.9524130400165,350.15907890315395 607.5868734844331,348.0505714974785 607.8595032444351,348.1251944007305 610.3045785866631,346.7182433653285 610.4047030310973,346.39872704348056 609.8156072088819,341.69443984551583 609.8370156355737,341.657461216913 615.0780751911003,339.7535338956292 615.1238047555449,339.7264452496962 615.2317935199895,337.27042727746414 615.3089803644467,337.21073961171317 618.0276320977788,338.4302210222737 618.186374853343,338.42403881796747 617.882433448896,334.823404461065 617.9270707466709,334.8011470564594 620.4095016089046,336.5665358253824 620.7325212711072,336.50785906139174 624.5788291111018,328.56287182681956 624.5930285777791,328.37422409174144 620.1758293599775,322.67243874478265 620.2039370222261,322.386175794432 624.9008293244475,317.40331914256205 624.9208542133343,317.1224261212261 622.2131251466704,310.90035491676065 622.1093598133372,310.6057083094271 614.9163469066622,303.01834938480863 614.6930876000039,302.53559842998914 612.22070559112,294.07698043739185 612.051622711129,293.6194621679384 613.54861058668,290.3907391532772 613.4262039022357,290.16089631253965 600.6281153688684,289.7818728972412 600.2591476888989,289.7832229407719 593.8927621955587,292.97924515762827 593.6261034933337,292.95247085139965 585.8796754755382,281.9152788155985 585.4523807555739,281.52899697423675 582.1598521155607,287.16846369520465 582.1090253066574,287.21796763351415 577.3504563466773,287.6596757918229 577.041636151123,287.3305889263644 574.0268345155706,278.36302592089453 573.5157265333179,278.2274305910174 575.4274116533412,273.0169395995978 575.44911135111,272.8144831847527 573.009060435557,270.4426825693005 572.9523353866604,270.2252483009721 572.5958195466734,256.4320499993115 572.3296705688768,255.73285949492822 570.0690426577709,254.29212288495148 569.9365871199767,254.25756185176544 563.0115436355478,258.1923134296736 562.6037640800129,258.2276599569374 563.784795617779,254.36574794483715 563.784140257783,253.8508207551273 559.2120576266676,253.9333400209067 559.0563003999774,253.90440763220943 554.0628212888911,250.06695918186563 554.0154169155354,249.99299057987048 554.2976586222136,244.42197798773816 554.3621751733368,244.23382818757784 563.6464418400207,244.66878991004307 563.5530166311142,244.45091539208772 535.9852254133217,243.89186905421195 535.3527301955397,243.86642189461384 533.4464335911103,243.02384399124242 532.7916561333183,242.58830618460308 533.204897022231,239.34519703585067 532.8171423555538,239.17448397371447 527.6738042577705,240.06115010407632 526.3073786577803,239.98694275836863 517.484339795548,233.9019356244895 517.1789420355414,233.76510386350094 509.80301087111695,233.5485373396583 509.66953588443687,233.47691140513746 509.34032671110583,229.91329011205346 509.7936901955469,229.50490378836514 516.6033175022236,227.6833465158776 516.7898038311174,227.36290924816387 510.43645272000106,228.58191243155272 510.3364739111054,228.5808987655979 510.3518384622072,228.1238461415993 507.43388447110885,226.51850018636435 508.683801626648,225.11720515657328 508.71169083554526,224.98970028183942 507.5142752977623,223.8508162571594 507.3376921866799,223.73772629080452 493.89312742223376,218.14522582085158 493.81797947557754,218.07583273275634 491.22508404445364,214.33534738606943 490.9110209689021,214.05583995331074 492.24555238223513,214.53914694721573 493.02543078221026,214.96736013406883 491.3913270311092,213.24153123441613 491.3903804000071,213.12627875785222 496.7521718311251,207.98214320727095 496.8416648799972,207.64468956672465 492.5565571110998,209.23335129876034 492.4086642044491,209.23819608308952 488.33465517333354,204.1146531600167 488.2284868533385,204.02766416402994 472.6304819466674,201.6949102149298 472.20529894222966,201.47415996314487 474.9996811644593,195.20015302707145 475.09572781332065,194.97903845085932 473.2838758666545,191.77164952838905 472.4195288444531,190.7400472537771 462.7855912088777,193.016691919947 462.53407860443224,192.75578423543595 462.5105584622139,190.38163613783365 462.57980816890597,190.15013286594296 466.9910363288724,188.4731137240666 467.15050726221637,188.329405476317 469.2419794755475,183.527642093111 469.0636487377702,183.2306177576171 454.3896286133164,185.15307495580748 453.9302212533436,185.1957954588794 455.86302352889436,176.32544605159603 455.67231376888924,176.07979101627245 447.17644518221607,172.8818907826568 447.0390380355599,172.8904593534313 446.276999991103,167.588850425214 446.22282356443577,166.99755852786586 438.50683337776684,168.81087850619917 438.1407784088875,168.76160552771 444.9355508888908,158.49144803606725 445.0098978400125,158.38183154333785 444.58733627555887,156.38287081802957 444.4879400089045,156.09889404712123 441.6529254666599,156.499370789919 441.62860432887794,156.17039588301088 444.47796397333843,149.50442103873468 444.1530510489025,149.18397629881622 438.3445953689003,147.56875279665803 437.44201901334566,147.28066950849427 431.6365488622465,150.90585122170853 430.9611639733263,150.89558735669527 427.22692269332003,144.54368969667814 426.7753796533285,144.49405641970918 410.7711243644368,153.12945520081087 410.1131429244484,152.56146636143205 402.8451277066557,141.47186889616535 402.56004610667117,141.43576994207217 404.56785069333966,139.8927429695101 404.68734466666467,139.55385330202228 404.47355167111493,133.91211450059893 404.17303270221566,133.64528317808401 405.63674285333366,131.4132134925236 405.52518601777376,130.90423512695236 398.55193716445467,126.94744638115628 398.0682814844255,126.72131616475929 405.73308077333024,125.43696001961473 405.97476297777723,125.53908222061693 406.07670786666097,122.63433633576608 405.68509385779146,122.11839235130867 408.6813269600167,119.05399991809793 408.6413499999977,118.85796955225635 403.3654835466656,119.41321781243425 403.1604286844446,119.38466554973968 389.50221655998723,112.342860594748 389.3149292355589,111.76248317637476 396.775547475561,103.6061848123569 396.9811120622395,103.15282698025806 394.39054680002266,96.05473478779425 394.3632401333376,95.74955698333326 396.60988703111764,93.06227026579256 397.05065303997947,92.68018405512669 380.09008187556867,90.98549108287955 379.73910018665595,91.33427988450387 377.2790243822161,87.39540003705008 376.98709791110707,87.15950763536205 384.0147416444448,82.305814961284 384.2661086133227,82.03172954110016 383.1429672088776,68.14654784420384 383.16605044445134,67.9449124549061 386.4016355822165,64.31794632771164 386.4157622311101,63.24925178258093 375.6060359377949,61.027294270817606 375.53372788444506,60.33305521496334 384.32778527111043,54.101115727644014 384.8176304622099,53.61706496756926 385.11516390220606,50.62735750697141 385.07292959109293,50.02180286935584 377.76136934222416,47.00500331220212 377.24283394666384,46.84532762334095 380.08636816888577,43.598374243119565 380.1211750666622,43.58605597462849 381.8496506577718,45.99654122332106 381.89632685334766,45.96105712139217 382.12300859555364,41.344084790158036 382.23478388443584,41.16088506900235 380.3860861422214,42.111234004106905 380.1143301955377,41.11014055871749 382.0619144800072,38.69344924040308 381.96725136889256,38.5311497144063 369.5524756177689,31.994010584755983 369.23469883556356,31.801510503959094 365.01709314666334,33.63955900631083 364.9289836355671,33.76638105155837 364.4710326310957,41.7382842015428 364.44387160000736,41.78563766627451 352.7925174311164,45.736512285314916 352.2838124355545,46.01597836489202 345.7863549422251,53.91140540221352 345.3062673333403,53.98123334140803 339.43635344887264,50.354694905173915 339.33979707555375,50.21130072327617 338.4186521866719,41.207786968596 338.2578705333359,41.114322179382384 321.4954365422378,39.72589348490112 320.9218509066628,39.720129482600555 315.2295395822217,42.74614692445141 315.1254829777823,42.85328351311148 304.74370676445653,35.353327170690704 304.2103165422228,34.767383210484354 295.0311259288934,36.08292259064149 294.88010185780115,36.1715358392172 295.65903362667416,40.571612947627386 295.6746894488821,41.138394746208746 287.34462694221986,44.84408716089786 287.1601795110979,44.94624724136486 286.556301679993,42.06421986642056 286.47256123554655,41.89379327760946 283.4726144266675,41.90283448930825 283.06789321776125,42.25984813928483 284.549006817782,46.35183299679886 284.5531574311095,46.60338359776472 281.93572240891046,54.84435804570205 281.72280322667905,54.89904437156622 265.9367828177707,55.537085119525386 265.12020425778576,55.4567513753351 257.4511815377697,43.92599395961554 257.52494594665006,43.303639129596945 245.32389037335054,46.226622292284105 245.25296585777653,46.307760669682125 245.96541499556736,41.52626675286558 245.91262210667594,41.438792362816116 242.18551696887118,42.64104437037133 241.94470857777162,42.87046151198558 236.14287931554247,50.860808946082784 235.89733776887408,51.06623634658865 234.54125229333988,48.44669654827851 234.36044575111703,48.38567565964297 232.66553915554653,51.238668209967386 232.73792002668017,51.79110187989829 224.01202008000803,52.36838852357289 223.54431149335107,52.41392486915686 216.1700551377795,47.121058880562146 215.58591092442623,47.20784613549006 217.6860484533314,43.805863191642516 217.90624941333192,43.495759591321644 215.38456976888813,41.62685082643986 215.3496172355441,41.58887753505371 220.53620909332642,38.35234842412285 220.5833950133307,38.20892269246508 221.31710694221658,34.557486244557026 221.40062893334073,34.25784194976552 217.7596672266733,31.001887511963673 217.49286288888072,30.539222149359944 225.06074171554758,28.43982734998974 225.1663274933304,28.354366750419672 225.60818576889108,23.590517865864626 225.57257787555102,23.377864601679562 218.53299202665914,21.11663419369836 218.21725414222567,21.118330066841395 216.73679590223003,19.37392708374648 216.66936663998752,19.06843318016729 218.06025901332725,17.57316168698128 218.40213847999223,17.09964107862436 214.7317583911132,13.466126819453734 214.52553844443867,13.37668515509688 211.9491726488992,14.715694073871077 211.15276461331052,14.553888544214374 210.26081965334708,12.506684878353212 210.11139757332387,12.286412265871718 207.43854822222022,15.15056525683724 207.14654893332738,15.188670028822912 206.92052255111741,12.362625785848309 206.66755359111232,12.003494083626379 194.8988899822358,11.35736767930905 194.78063391111903,11.244176038867977 193.25765008890414,13.499935956504146 192.85584159111716,14.202007915424133 197.26510367112462,18.79391684334371 197.36967000002153,18.893186090040786 197.88354505779682,24.33440208101058 197.95847455113073,25.12914862686705 202.69024656888325,33.22891126988509 202.86136834667525,33.42615368709778 199.20227501335432,36.322991823653524 199.0746254488837,36.38549555137399 200.64836326221814,37.40475961629238 200.95427074665315,37.92376544864203 193.83982822221117,43.03421729538934 193.5021721866575,43.45597941008566 193.91242754666712,47.37701308323415 193.8074971288803,47.684947563575065 190.24699906667922,49.40618454777689 189.6726124355697,49.34064474321315 188.71025268443157,52.53448865770008 188.65651316443802,52.7156163228716 184.9453551200055,45.0281785836047 184.5910238133289,44.64756407880452 181.46160699555878,42.103549003578905 181.1977153688855,41.76472981698282 177.9611107822344,45.48744385716384 177.52689837333276,45.22876859174687 175.90612027556165,43.151524448817895 175.60378086224193,42.72150999983535 176.1794782133435,39.28918382112863 176.20540134222358,39.06981048921409 171.26500639110566,35.58401827241289 171.128108968907,35.596451376106074 168.45657033776627,37.26167046752346 168.30729389333976,37.29162201865222 167.85939174221824,45.274536912831195 167.96890968000628,45.609492049341156 161.65808415110916,42.976015675747135 161.3386325599928,43.10925773857855 163.6071247911092,45.4878958880214 164.11160635555973,45.51546976247448 162.67571259555518,49.985643394909516 162.31417232889328,50.07988397504198 157.83245655999747,47.77116890662694 157.4945820711215,47.19281658170041 158.45432038221736,46.4920731649396 158.73073666665698,46.155993383675764 157.32207675555367,44.51138751986548 157.1254687555553,44.15314548844583 159.48884255110863,43.15367168724299 159.55598054221593,42.962906176143974 158.71843046224205,40.76961994011765 158.42344564444613,40.580993432078344 150.3420558488939,45.0663754983467 149.7169880444486,45.12095861708042 148.7549195644457,41.225982634444904 148.75055049776677,40.91213480215049 142.36486829331955,41.28622041663732 141.9607296266546,41.73568484550162 140.7318568088882,39.3860423479415 140.5857115289033,38.67853036260169 138.6451905688806,38.84591541652446 138.57586804443383,38.8496451249008 139.46322548445426,46.77899370721536 139.22904351112777,46.90917535400479 130.12318040000503,43.99922500356445 129.4697864800179,43.90214864476695 122.8284410577686,45.75267231194414 122.13441481779557,45.724646528491235 121.72750907554985,48.30329735173257 121.45305887109828,48.64377095207567 114.12999341332,48.32567171927769 112.95034541332973,48.25967860883213 108.70324852443412,44.303788244411066 108.64907209776686,43.47202710033855 99.48954228443438,46.62089943199646 99.08525798220182,46.710625617247956 96.06943689776347,55.10603839801445 95.57369346667076,55.9839464745088 97.8662883822177,58.6132926991919 98.12071369778243,58.904216786489656 96.71955401777052,64.3042771109973 96.76957983111026,64.52128964287806 100.82458342222492,66.68843043978961 100.94029087111232,67.00834301737598 99.17598893334036,67.45578821901984 99.16215355555289,67.65381063757343 100.6488741244608,72.08037866478082 100.76225140444114,72.49412265967806 88.89928877333989,75.41859219354922 88.12348816887936,75.4821806099568 85.0925938044453,72.87047674439202 84.65779885333143,72.18327843346162 81.17244873778657,78.56031351022068 80.793796293328,79.07034474460636 63.46862651556842,77.87736564048794 63.20910395554495,77.68344619089441 62.194169768895904,75.92040782393417 62.14793047999376,75.55943535367953 63.54501236446197,72.84438505334367 63.676084364451185,72.75955873344321 60.47028169775842,63.69921314667556 60.3576325955579,63.48287516833045 52.55120272888564,71.45009922885913 52.311122515536795,71.78037559729239 43.58187295110076,67.87544126588148 43.34026356443758,67.51915998962761 30.726039920009157,68.47842564702262 30.380738017767385,68.57986372864218 28.000980222226303,70.03917312465603 27.71517044443283,70.10649538144173 27.252996008879222,74.60718394253456 26.976725360007208,75.0327681708801 24.29207952888794,75.43271040963702 23.920927315549875,75.35308362315811 24.23258740443964,77.42921528052068 24.44303078222549,78.03661173213152 35.05556653333008,74.10614687695454 35.294117573335484,74.04074967985036 35.80355074667716,79.51170539402631 36.06016059555225,79.85988989775763 41.60210320889712,80.94621579157649 42.09711846223911,81.36599099060516 41.55935917332647,84.1654261691798 41.513702426665645,84.42493328068633 43.69532304889401,87.04760236258846 43.66743383999676,87.28101098153968 38.52708127111657,93.02692966172583 38.52540646223463,93.29960497568356 44.627827511117744,100.35797794632492 44.732976382226866,100.88767474710005 36.83537865777146,103.1012369684828 36.66301897777123,103.35162304685912 40.19854054222344,109.00916179727176 40.377089733352136,109.58189297561296 39.430968346663235,113.406982708089 38.901219013328614,113.88011986437016 25.39563295109076,112.42920559953893 25.137202657766125,113.146484642151 24.862315546669947,118.48655948563066 24.803624417785272,118.7688133096741 21.212470071106168,126.40344590922871 21.305531191122668,127.48952318733029 28.23064749333537,136.19406139787282 29.318617911114075,137.83184615613538 29.288034444448954,144.09067156879576 28.99887504889159,144.57031116303517 24.574248417782314,145.93532074351208 24.116443048878523,145.88016152667808 18.394567706658222,142.89922498382623 17.932029182214706,142.94603955615423 13.932658373326944,146.42644963760506 13.788479173330074,146.92851551635943 15.43743775110454,162.8569829037075 15.420398391120784,163.15659881071008 12.016604186682912,173.79793103854865 12.12357350221248,174.1806903878529 22.139804471116463,179.21617834590836 22.98463632888854,179.84115706751584 26.552561804455422,186.01074747421774 26.572950782203066,186.55832528122812 13.934405999992691,187.90819724341384 12.831071031112174,188.2968315543036 8.052549999999997,194.37034890421603" stroke="#009edd" stroke-width="5.203052347352643px" fill="none" stroke-linejoin="round" vector-effect="non-scaling-stroke"></polygon>
  <polygon points="191.4681532000028,56.67609415831214 196.73360671112425,61.99300056714094 197.0778163466672,62.24922393612326 195.87959981332062,63.19649433217239 195.95540312000196,63.58680788116874 200.69460255109118,62.66417219312973 201.44105759112392,62.728453304349046 202.51249837331818,67.17846525565949 202.79175455109328,67.7564928295684 203.83727220443654,66.8296350219822 204.70620674666827,66.65849502142339 203.5266315644327,68.55964390334668 203.02637343109348,68.73574816360599 206.08675899555203,69.3197460373409 206.15753787555843,69.50974167721108 203.45861976000708,71.15178701535444 203.53100063111162,71.62913095570514 207.4081832089065,73.34893515319675 207.4418978400132,73.3586488545767 203.9512320266582,76.49924636667822 203.7281183555384,76.90697090401193 212.4295515288901,77.08654944319971 213.427591991123,77.08485530882137 217.28409432000592,74.36954204843607 217.42718125333306,74.22045059806953 212.65179138666247,65.84379348191544 212.5304041511041,65.58148682051217 213.0666342666442,61.90668872043136 213.37836717334687,61.28069779912005 214.5190576622332,59.50436285787839 214.854019440019,59.227903317026744 218.32575263112778,61.25629519223696 219.4628750488988,61.54720518901706 222.93351597333788,55.538102001598986 222.96599270220725,55.20354677484249 227.7624269066506,52.72951442829037 227.7732039377803,52.583866627282646 215.58591092442623,47.20784613549006 215.48869919111132,46.868606627620125 217.6860484533314,43.805863191642516 217.90624941333192,43.495759591321644 215.38456976888813,41.62685082643986 215.3496172355441,41.58887753505371 220.0729423911322,38.873944733880876 220.26270552000608,38.72204374473188 221.31710694221658,34.557486244557026 221.40062893334073,34.25784194976552 217.7596672266733,31.001887511963673 217.49286288888072,30.539222149359944 225.06074171554758,28.43982734998974 225.1663274933304,28.354366750419672 225.60818576889108,23.590517865864626 225.57257787555102,23.377864601679562 218.53299202665914,21.11663419369836 218.21725414222567,21.118330066841395 216.73679590223003,19.37392708374648 216.66936663998752,19.06843318016729 218.06025901332725,17.57316168698128 218.40213847999223,17.09964107862436 214.7317583911132,13.466126819453734 214.52553844443867,13.37668515509688 211.9491726488992,14.715694073871077 211.15276461331052,14.553888544214374 210.26081965334708,12.506684878353212 210.11139757332387,12.286412265871718 207.43854822222022,15.15056525683724 207.14654893332738,15.188670028822912 206.92052255111741,12.362625785848309 206.66755359111232,12.003494083626379 194.8988899822358,11.35736767930905 194.78063391111903,11.244176038867977 193.25765008890414,13.499935956504146 192.85584159111716,14.202007915424133 197.26510367112462,18.79391684334371 197.36967000002153,18.893186090040786 197.88354505779682,24.33440208101058 197.95847455113073,25.12914862686705 202.69024656888325,33.22891126988509 202.86136834667525,33.42615368709778 199.20227501335432,36.322991823653524 199.0746254488837,36.38549555137399 200.64836326221814,37.40475961629238 200.95427074665315,37.92376544864203 193.87507202666131,43.2188798872736 193.7551411466626,43.371898477016316 194.65786313778483,47.964516665444194 194.67810647999397,47.98158005253174 191.4681532000028,56.67609415831214" stroke="#009edd" stroke-width="5.984420021590381px" fill="none" stroke-linejoin="round" vector-effect="non-scaling-stroke"></polygon>
  <polygon points="1626.0294206844478,21.35575178630063 1630.9599852355673,27.005970678735707 1631.0444538577644,27.11223381921411 1631.0520269066687,30.254024809509815 1631.171739333316,30.57381197502366 1639.490587902233,32.420266420078065 1639.6771470489107,32.50504244206934 1642.1917633688786,29.675599783433086 1642.1947488977526,29.651748238720415 1659.1923114933375,25.23417187740381 1659.7542462844353,25.07330195057841 1661.6959323288825,19.553242841567794 1661.7508369333295,19.060857995012725 1660.740417448898,11.897088424236813 1660.7468982311034,11.792717953015767 1634.9071456977758,8.160998692568342 1634.6466765066502,8.052549999999997 1634.5810676888864,12.041601054639273 1634.363488168899,12.666687270516945 1626.0294206844478,21.35575178630063" stroke="#009edd" stroke-width="6.3695685531844735px" fill="none" stroke-linejoin="round" vector-effect="non-scaling-stroke"></polygon>
  <polygon points="423.2844225688965,232.32277492335527 426.8081476533331,234.54070455063595 427.8099018222198,234.66469603223197 427.39899110221415,237.07025533368108 427.4650368266517,237.3928879592055 431.0881581777718,239.99651427294123 431.42887256001234,240.19064674851654 431.7853883999993,243.08070686672693 431.8937412533338,243.247917158085 436.8294030488829,245.34661619400833 438.76810356445606,245.07312218094705 442.7078366133279,249.86227869621473 442.8185924533242,249.95752614620835 460.4233096799941,251.36280080982363 460.51156482668705,251.36629087181757 465.3972736266802,248.09893247429102 465.52987480001286,248.17031408544392 470.83042647998775,254.65732022093255 470.8915205955633,254.72171357974696 469.5358720266446,257.7030881304887 469.569732293348,257.789203807573 477.139868471109,257.7442885889974 478.22412518220483,258.0275127590645 478.222741644429,264.3113126045861 478.252742568911,264.4325352882803 480.71653208000464,266.8648111166327 481.4754389599908,267.2588498833426 495.65145830222866,265.80693636465696 496.320435226669,265.6947209795104 495.88942679999275,264.64909213459 495.3689981422282,263.8595109329541 502.8682098044443,257.34511562772207 502.8916571288788,257.2221886808471 509.69509492442705,259.4055642888485 509.70208543111914,258.8858441447443 503.5157054844382,254.81436333191925 502.78512471999386,254.6017077136854 502.91575981333847,244.87675511326927 502.91517727112625,244.29350473528723 499.24290391998477,242.57501929940884 499.32475110222697,242.0806998352415 483.4354750844428,242.96281485910697 483.14930121778855,243.04219775752392 479.65965485331947,237.594124168863 479.6530284355464,237.36800083314995 478.8335371644422,239.93244139629644 478.7373448800132,240.49974836916192 468.8954396710975,237.73466250408785 468.6011830311105,237.52374225472852 470.9551633333391,234.91188983656286 470.98727597334766,234.83204467065627 468.34246146665066,233.12902876323608 468.195223919996,232.95153906528833 469.9128496622212,229.8720686854864 470.180891902222,229.27728283985164 468.3692584088782,227.3733840285928 468.3019747822324,227.05181861771382 469.81687583111454,223.99116463521898 469.8159292000124,223.5231475743127 461.7791038844513,214.43719093225775 461.6046324888954,214.08806055249408 467.45117186665414,206.12786888381345 467.4880176622315,206.01733380465123 463.1277619466488,198.0593476550781 463.0992901955684,198.00108563333163 468.37166139556905,193.16399432614674 468.235492151092,192.62121624313988 463.7429265333409,193.39390700546903 463.52112358221314,193.3799319486494 462.6180375022301,191.08538203049795 462.4906063911109,190.52353566257045 467.15050726221637,188.329405476317 467.3559262133273,188.08290268445091 469.22828973332764,184.11807884398843 469.26535398222734,183.89567949550803 468.0338597244478,182.57016962669843 468.0228642399958,182.55686814865442 453.0940547111164,185.50464454049472 452.8166189777618,185.47894475647593 451.0954251644504,186.5132388020353 450.894156826667,186.49993828355912 452.31228304887884,187.65391529395822 452.73681069332054,187.765501933383 451.47473296890496,189.28542453503871 451.1112266222259,189.37807251050947 443.0912222133262,186.58740604059824 443.0166568088822,186.41359755106498 443.6763858755654,188.91990307067283 443.6827938399871,188.970623123903 433.38803487111693,192.67294719393942 433.19914555556136,192.71723966848333 433.5815845244575,188.35149712171517 433.60423085332843,188.2363048725889 429.2477616622124,188.56012747549505 429.06316859555193,188.59303937647894 428.43831924442895,190.60265660376865 428.3388501599908,190.98913032442908 430.8689766666863,194.93587479774544 430.87429236443825,195.0734799542039 438.4649631555436,198.49309913005675 439.0897396889119,198.87410791376135 437.16917079999223,201.9569020828709 437.1559179644461,202.17134008385585 440.06862907557627,201.8463585704227 440.2708440444618,201.92467433372042 441.25206360000413,205.39073878018064 441.2405583910946,205.60110694486468 440.59371807112586,206.90848130721827 440.40701328888065,207.51827067159286 437.53486167998165,204.88019542792574 436.1408381422003,205.0885373540583 431.5879794044373,208.1664742661884 431.2380899822234,208.1292926234088 430.7822506933368,210.11239095283202 430.79972695999425,210.23598716645904 435.1089374133222,212.22576888290462 434.99082697780216,212.75201635217638 426.6224623200029,220.93754864202458 426.4405635111103,222.9397820726805 432.534464879987,228.49270975680668 432.77789471112885,228.69758285498358 430.854413111119,231.88580042210344 430.85164603556734,231.90956381594117 425.23411856889254,228.5885575744975 424.9576294666691,228.41612148565002 423.2844225688965,232.32277492335527" stroke="#009edd" stroke-width="5.586041332620711px" fill="none" stroke-linejoin="round" vector-effect="non-scaling-stroke"></polygon>
  <polygon points="113.89493762667519,84.87709154919833 114.81258726222552,87.78316924721696 114.95662082668389,87.98495720196627 124.0538914400164,92.83193492700923 124.15379743109918,92.90272927428998 118.23414900442697,95.66645980878786 118.11298022222002,95.71546006017127 116.47581812446117,98.44608197341552 116.44166658668075,98.6244606917677 117.58752713778051,100.13151180378156 117.46380973334419,100.59799039006577 124.82102672887379,101.7518642717838 126.09657574221603,100.49932124409645 125.73292375999847,105.18602164676815 125.33249880001642,105.24867232594227 126.98786534221256,109.14088824271278 127.10080571554829,109.24292804716208 130.96888607112453,106.00803799497191 131.07767583110365,105.60707798251644 134.22580681779766,107.53858997964528 134.67254388443655,107.62584561479855 134.3423880800034,105.39508273192735 134.35840799110122,105.25013981847553 140.6309313688904,104.75649568517804 140.7504253422154,104.75401221380855 138.73257190222614,108.04812479719806 139.10459792888253,108.41012415893022 135.25799881778187,109.85358262614284 134.6152362933277,110.28622895520641 145.82618854221766,111.41382485343604 146.04231170667447,111.41709812095326 142.45064763553785,117.53539511399106 142.46921616889415,117.79440508870869 147.15678779554548,120.76057421518601 147.4297088266536,120.82986528657023 138.06250271111605,123.2401016170403 137.80807739555132,123.24958075211146 136.65333307555522,127.89291781854229 136.54294132444886,128.09151100405836 124.01209403554788,125.97386112271454 123.86063305778191,125.84826871465305 120.05284582221759,129.87261135664414 119.99815967112193,129.956784823538 148.12431760889706,142.79657120284503 148.3086194044514,142.96059154757643 170.43699543999503,141.45032233582572 170.4697634399996,141.12057993552992 162.81683344889427,131.54827079947393 162.80554669333617,131.53360293771368 164.76507309333067,127.56241653564905 163.65722342223273,126.9406760289927 167.2322850400011,125.01966753879208 167.608461679985,124.72311485987268 166.3005087555572,122.97705496277888 165.96678488000873,122.31091270212312 157.56863775110799,125.46246237718844 157.28705140445493,125.52700811399666 156.56178633776256,121.25463794609061 156.5301106044277,120.98142509230058 148.930264773349,117.69475128740999 148.6440909066656,117.7103257326886 150.7076739110995,113.52334864359693 150.87945104888752,112.65437918536884 149.39003622221173,108.00590831375268 149.47501456889552,107.25311746419868 151.5605157244496,105.99979757390213 151.84071853332682,105.65369876586885 149.321369057761,103.83241076887464 149.23486153776287,103.67572342970345 149.26697417777143,100.83179265446199 149.2991596355638,100.38033098421113 161.86190111112194,102.49649002262561 162.38502402665438,102.5212128683703 177.5095677422138,100.7716205594403 177.8269804355583,100.74825164162723 178.76064998220647,97.76620533709468 178.51423462221976,97.02332148476091 184.04445357333282,91.31169731672674 184.43665012444364,91.15915182661377 182.79002171554714,86.15619132170798 182.68290676444997,85.50032753882226 178.21204084443855,82.86312903113833 177.60481339556975,82.583512794699 179.95173037332245,78.58165902279836 180.38004454223085,77.99369439145778 178.61173762666988,75.52826240007528 178.5977566133439,75.50036485039857 172.32181080000703,79.52480611616159 172.2832173777639,79.56083308588825 151.97528578664753,78.12741567849991 151.69952486220393,78.0319811785663 151.96356212444482,75.50894871337334 152.01293257775944,70.55267266877456 146.330087564456,69.68155048241135 146.32965065778228,68.70852489944775 150.48667195556447,66.08915412726458 150.69544052443928,66.00827108982014 148.19589748443798,63.58082045851154 147.9247968977794,63.099565093368824 149.94272315555247,63.114929180002605 150.19918736888906,63.10012994957617 154.5552924711152,52.02906810655952 154.6340084888867,51.88500035826985 153.35321659554722,47.242651402055 153.73390793777764,46.94330278295786 152.05429307555426,44.55794751019096 152.06441474665883,44.32797241403716 148.64984351112037,44.77967196760403 148.52015504887788,44.651180381136896 148.7549195644457,41.225982634444904 148.75055049776677,40.91213480215049 142.36486829331955,41.28622041663732 141.9607296266546,41.73568484550162 140.7318568088882,39.3860423479415 140.5857115289033,38.67853036260169 138.6451905688806,38.84591541652446 138.57586804443383,38.8496451249008 139.45230281775696,48.493253180356646 139.61657972445357,49.37590064785729 137.21796212445008,51.606581294625016 136.86566971554532,51.89573483105744 135.90542167999195,66.68097482767882 135.8849598844314,66.94146879178118 139.5131784800102,74.25546453588288 139.66362000889023,74.48023089208402 142.73674868443743,75.51052995112661 142.8512182311166,75.63465697272443 141.63385062223063,77.49336606174586 141.6855512444523,77.7181190842308 144.98827437335387,78.05445630067663 145.052135564452,78.0939853874512 142.86709250667593,81.22956722837228 142.82660582222854,81.5029790776531 144.54860063110357,85.38480526080059 145.10405463999598,86.1621762682986 138.68800742223505,82.75979767282081 135.79342793778744,81.80360630425969 132.94057303999546,84.85778117023403 132.72561495999219,85.26307184308064 124.10340752889863,84.70047472924455 124.0016810933372,84.45982774598053 121.08678544886754,87.2317773162282 120.63990274669015,87.84561406053365 115.99412852444914,82.76578299180949 115.93485485335225,82.40327475222114 114.90615810667043,84.30195552131738 114.88212823999459,84.31471631181887 113.95617737778923,82.4833429786446 113.90505929777976,82.48402056538146 113.89493762667519,84.87709154919833" stroke="#009edd" stroke-width="4.976238960311715px" fill="none" stroke-linejoin="round" vector-effect="non-scaling-stroke"></polygon>
  <polygon points="305.94316120001133,261.36271603250464 307.7119778400007,264.59844222132926 307.78705296890223,264.70514465058625 312.0522814844513,265.4607224600692 312.36983981333435,265.88662378027914 309.0752722755493,269.44846519846 309.38139821333573,269.72093702652603 318.45602249776823,269.53433730061045 318.71671014224523,269.56765068797506 319.63319469334203,267.01754227501044 319.9672098399966,266.4045891529455 322.1119846666767,267.3846805740974 322.7905007200094,267.18749317341246 323.32884255110514,259.6337352941697 324.1363188889005,259.0155213681061 328.9259810400032,259.2140890206716 329.5601510666671,258.810198955856 329.34512016888004,259.8567273503646 328.62953986664763,260.7177315606601 332.7816823733225,262.12160425588775 332.7637692000204,262.25138637031307 335.3642376799904,258.81751583137486 335.45038111109864,258.493208455409 339.725876933349,260.3263472240284 340.4029366311221,260.1612152879021 343.1757647911214,256.7810227573715 343.2056928977905,256.2884076625411 339.3561082577868,255.84824736980192 339.48921915554786,255.58977819208633 344.0195772000076,255.79342408790365 344.26125940445456,255.76865790555132 341.8271795466786,254.58099372892286 341.7851636888878,254.32330659978436 346.16435202665855,251.9854918927664 346.27292333334447,251.9391083500301 350.06884127110936,254.13609146730562 350.230423920009,254.06888299226523 351.1801133777841,250.33885204201908 351.26334409777303,250.2026243182696 356.0601423911063,246.8266578485851 356.18466079110624,246.79850984526968 357.0112153866572,248.57203094242834 356.9497571822209,248.75048325234786 352.7382681866653,255.73612413081685 352.3210223199927,255.97117740386568 354.95513261334384,258.3613911973731 355.3570867466693,258.37287315732794 355.84656784887886,264.418353261142 355.8780979466752,264.4673150058876 363.72501449776576,268.2906980246695 363.90028688888526,268.41866474615347 362.1810591555619,271.27189600992244 360.91301037334017,273.437492859906 362.04816671112314,275.26247875464435 361.91724034667243,275.4502968123048 378.64748887997814,273.6406221906433 379.84424905776507,273.11822379506305 385.0604049333266,278.4708267815655 385.2253371999901,278.5405934049701 384.69689858667664,280.64030209472514 384.013358106669,281.0732866648101 398.74184592889617,285.8586182247742 399.2504781066742,286.4050847956747 403.42686893334724,284.7037860109482 404.08346683555976,284.3392392152815 416.09606999997743,286.11615688703716 416.21214153775475,286.3469167996151 420.76121375110927,277.60076200083824 420.7776705688808,277.3060486133978 419.59066797333764,266.9725220810284 419.4625086844386,266.5997534518025 406.47050640889904,260.8119470441085 404.56799632887817,260.35392544701574 404.2146844711166,263.08590164973396 404.11696301334416,263.31462009743666 399.80680592888496,264.98957089003636 399.6372861422202,265.5440120910713 394.1645204177836,261.14040548950254 393.15264457779233,260.3857810913538 395.85738811555314,256.9335569250467 395.9231425688846,256.64863851507073 389.36546477332706,252.81667380841793 388.9836083466722,252.38053848199309 390.7373517066659,246.29837370779535 390.80696550221876,245.55660552305164 385.5787946933193,243.05278213526583 385.53160877334415,243.0517687374737 385.162131368888,234.25488115438895 385.1236107644578,234.11478435002903 388.65731188443135,233.26732617429627 388.63415583110293,233.14648488898058 382.9363831733132,221.8617954620928 382.45797037333944,220.50881897536567 383.66128415111564,217.17427783882124 383.6406039022328,216.9800636428041 382.04793346668123,217.82450735360146 381.63986263998197,217.8675402884761 379.98187465777266,214.57846474087967 379.66147643555416,214.32532074349695 374.2160901955573,214.4127439921209 373.5862164177885,214.35123228796112 364.6996076355641,230.508181666322 364.3374120088771,230.62463639307646 362.8881197777879,224.82615119103104 362.7587954044644,224.6234037052269 349.111942853349,210.15835931286676 349.0896606133389,210.0994341776892 338.9730867466493,211.23049274774496 338.7231033155473,211.2066077005071 334.9648321688943,208.40984439454735 334.7369853422348,208.1966702483984 324.9151050222059,207.43376589954244 324.8129416799999,207.48503214350023 325.6599580711114,210.78388570433128 325.6303940533322,210.99952841031302 323.0511155466735,213.1473464330262 322.891134888872,213.07389118819958 324.1874369688809,215.78434689323296 324.1683587110962,215.9087188758782 320.1497640088852,223.52168325473724 320.0636933955317,223.8592642034415 322.0206711733259,233.07711083378638 322.47592792000034,233.3880545729986 321.82413599111135,235.59411641644658 321.0924629599973,237.6142815324198 316.6562583022238,238.73204638763093 315.14929439110676,239.6298677644005 320.973405893346,249.53780564192095 321.0355194577784,250.27310250529956 315.4376527911005,251.69345504815976 315.05535945777194,251.7217131147405 315.7956978044309,254.082955125377 315.79751824890957,254.099729103276 305.94316120001133,261.36271603250464" stroke="#009edd" stroke-width="4.863510628409445px" fill="none" stroke-linejoin="round" vector-effect="non-scaling-stroke"></polygon>
  <polygon points="111.99832578667667,318.69610563462595 113.68835359111074,320.00314168063744 113.84236319110607,320.16809316947877 113.40574779557176,328.70025373745705 112.87133812445211,329.1139713210647 119.91005015999656,335.26506593714987 120.61630978665892,335.2469678911508 117.23916688888096,338.3130962327483 117.4902425866527,338.78238070889313 125.33672223112774,335.3750030072184 125.59551661334228,335.23078081390815 126.22706519999304,337.78468271977147 126.63040287112347,338.7270784119679 130.34826015111287,337.25469042274165 130.52185773335043,337.3125795445882 132.53090022222716,341.0917637648305 133.04397428446794,341.44154599033175 133.5089157955441,337.1985997395601 132.77760685331998,336.68298990641017 135.09423163557187,334.17152854592825 135.1698893066565,333.6799466978333 140.58483771555586,333.6104751363524 141.7149696266639,333.4370206750242 142.4936101244599,330.9445216943783 143.0669773066544,330.2154791481222 144.4570686844596,331.8192475213797 145.12429798223422,332.77343706509384 143.7597656444483,333.76830360499264 143.66248109332048,333.9600803201389 145.06094651556452,337.08360803907965 145.11388503999444,337.4886070614226 148.90936607111473,339.4886041151691 149.45346050666524,339.7878161876357 153.34294928890415,334.6640052730287 153.47773499554717,334.0230314987781 158.82357933332207,335.1488336619001 159.1965519911097,335.13534440700425 162.36230487999967,331.07740087836976 162.46286623110757,330.984767708003 167.62207860445017,333.8058496267255 167.69351284442348,333.9965020823216 173.41684454223252,332.845045576723 173.8145752444467,332.73746415107564 173.54165421333857,341.8393193991284 173.8929999911121,342.27980034285395 181.41245499556646,339.91482908256114 181.67692916445196,339.6660858535248 186.12056123556215,342.84537312978466 186.4130702488834,343.1561434488027 185.68816927111004,346.8264716511254 185.74351078223083,346.9591999215114 188.34791142223514,346.00334689720296 188.43682192889503,345.97457551876835 188.28776393776172,347.9542583531071 188.12355984887802,348.09485076257954 183.48208187556122,347.283770323476 183.23340916445125,347.18161177212426 182.46387088887388,349.61763111684525 182.44362754666474,349.6259472918242 183.60230402666605,355.56034004662763 183.46016372444103,355.8809266120294 186.42959988443874,357.2049416129081 187.11947551111336,357.30651964793617 198.3152816622238,350.96292457689526 199.0149148711131,350.7948068431357 195.67141378665804,345.7432800601597 195.73265353777208,345.2267391541169 201.52093869334897,345.022414187442 202.39089268443752,344.80089269408893 205.3221723288949,347.5909191439056 205.87129119112035,347.6529555791418 205.38268390222913,346.2175583255954 205.19656166222524,345.3804881314351 209.64529097776506,341.5141547455638 209.67179664888647,341.35972052848194 207.60770391999506,336.75942681340496 207.58949947555777,336.4401896118576 215.63397065777792,333.27267122295564 215.72557542223478,333.1569967916363 216.516085217772,331.25198699800933 216.59305360887777,330.48854803282995 209.16105275555276,328.8438185900228 209.0994489155488,328.8395465011778 209.4829801511147,325.7185841168754 209.4675427822291,325.25435949354835 210.9805505688779,322.73753918329714 210.98309919110727,322.62690212261043 217.0078964888886,322.11992517130386 217.05712130666473,322.11992517130386 216.90842740445044,324.127229565354 217.00221670221765,324.2483198480692 221.12290192887997,317.7147961081715 221.40448827556213,316.35283033249254 224.78425261332416,315.0291767381783 224.8378464977792,314.9799228478438 220.15406139553636,313.3617167404369 219.37520244444715,313.2084401172975 214.33446459554364,307.30600783254306 214.3297314400039,306.8750302229088 224.81104955555168,295.78867457145645 224.94088365333266,295.48854700409686 220.5541222666576,290.92523534107715 220.44030808000355,290.81037141438685 220.98454815112166,287.9922484051855 220.9562948533345,287.6689014463551 215.78652390224272,284.2662170497857 215.9196347999747,283.91494419248886 211.14701200888487,285.8357783460739 210.9621276711183,285.83667843999103 211.77091472890572,289.7148206930066 211.89375831999462,290.01677997146146 207.7691409333271,294.4113139660982 207.54275046222722,294.5027716045803 208.92133663109382,296.0483038381859 208.91951618667338,296.2404377019626 206.98948098667427,295.6721334776154 206.29530911110453,294.9324967162171 201.13558701333352,298.9816465269611 200.7547500355646,298.9030196498712 200.29454167999904,302.39938810580463 200.17883423111164,302.6928416362713 194.30025503112813,305.0332150242681 194.35049929779018,305.82276478966344 191.89348184000812,303.64337732343813 190.8724309600144,303.71727344260546 189.4415616266557,307.47752068175 189.11315344888828,307.54691294083716 188.4995908533234,304.531811269822 188.38519412445714,303.9615685786481 189.72191007110052,303.0861726284853 189.6759620533336,302.8314132433512 185.43483622224414,294.644626261848 185.55695163555322,294.38566530202627 179.58596667554923,294.38859015028686 179.4658173422282,294.5656556732789 178.82931714665722,294.235935360986 178.19973463999452,293.951323599969 179.58640358222294,291.3718635976908 179.6258708177844,291.2819757351896 177.44483273779736,291.18905020526256 177.42349712888938,291.16306252883044 170.26922327999603,299.47815183783644 170.0299440622399,299.97206554354455 166.0736085599998,300.2924152979755 165.9064917599968,300.2103033556119 161.66005023112632,307.49304116222595 161.19539999109804,307.95561694153696 160.87762320889271,312.99826039642323 160.68516582222185,313.23059384505143 157.07209332445166,311.54362367914985 156.73545673778392,311.2226650001609 157.26287590221148,308.9098850421793 156.94269613334438,308.68754262335244 154.87059344890406,311.8543467744672 154.83782544889948,311.8717778043134 144.82756553777256,307.73237091312296 144.41104784887978,307.3981187344249 145.13689545778436,309.18508454978985 145.25930214222865,309.6170561402174 138.81005001778942,312.2157864769757 138.6272773955494,312.6774227015918 118.19096806224081,312.52999192111713 118.17079753778637,312.53246597256623 111.99832578667667,318.69610563462595" stroke="#009edd" stroke-width="5.693835236972964px" fill="none" stroke-linejoin="round" vector-effect="non-scaling-stroke"></polygon>
</svg>