<svg viewBox="0 0 528.3443792177852 370.2748325244313" width="1000" xmlns="http://www.w3.org/2000/svg">
  <title>Spálené Poříčí, okres Plzeň-jih, Plzeňský kraj, Jihozápad, Česko</title>
  <desc>Geojson of Spálené Poříčí, okres Plzeň-jih, Plzeňský kraj, Jihozápad, Česko</desc>
  <metadata>
    <collboard>
      <support-module name="@collboard/map-svg-geojson" version="0.11.0"></support-module>
    </collboard>
  </metadata>
  <polygon points="8.052549999999883,185.6657236119279 19.252215493448148,205.1725735844591 20.58128557340342,207.40617105828255 39.70294274678554,213.1835716470157 41.461928986689145,215.3546086592612 46.18168607119105,205.0939095432766 47.32871170665703,202.81578665981192 71.31080991109002,240.41571833726607 72.76658292450111,241.18065781155724 65.5279132711944,264.2552266135824 62.45325542227465,270.31648198233574 84.82375056899718,279.10428553997895 87.62344848897874,282.6366532069294 77.58216820457119,298.3646817853803 76.5883511734205,298.8827443760599 89.02358872010473,303.9078430293373 90.28683152897383,305.6192438365904 50.25715145780805,335.13015670373693 48.249710960058565,334.68495718259487 46.80762768895465,345.41082449371584 45.53127768004879,347.71082487176295 163.25548774234585,359.0703165700904 163.5671478311774,359.0887334901852 165.49507131564997,358.55149782179046 177.1191188178268,352.72267570321105 173.26123295116804,332.11392349037465 173.28482591114107,331.5703322149709 187.89003323563475,320.82267186462536 188.0671260711747,320.4470805076196 174.75108468448843,308.9993222652481 174.7834157778193,308.8164587949648 226.85278722664907,299.2767946333404 229.62306676453545,298.8926293399197 238.55314776008117,265.94941110481864 238.81034015116848,265.77729693856213 256.78322406227335,285.1790599331505 258.18365556453455,286.18379224788055 260.2464375733175,272.9897982360342 259.5564163111626,271.14108376680065 268.80398281777843,264.10917561324436 269.07195224005363,264.0233425183467 265.64864287115734,246.03450058992144 265.31746761789645,244.611616706861 288.7167323288518,236.29569582289673 288.8920775378133,236.2278296350048 292.6180175911645,243.47770736387588 294.53312514673553,247.08075928167796 377.9243355289577,254.67587236988015 384.8551316178414,255.2933569758677 387.87240905778117,224.95321119644336 387.84910736894335,223.2285951247684 380.32761346674624,217.82363144178066 379.09815810676764,216.85544340973843 384.1377308711885,211.17523088478606 385.2052394933776,211.4139133492497 352.71016052444566,180.4140321973607 352.14276440008643,179.8381456904824 357.89129104893755,163.44699878289953 357.6576916178233,163.11789547777857 379.18757833782684,158.19342591209693 379.72876006222896,158.30987360803533 404.53399042666524,135.29923599583685 405.1322612889121,134.83924140127033 401.946920417809,123.54951117208816 405.70373520893145,122.0372447825282 476.1144485244072,139.1180981037685 476.5466948533208,139.7817720472592 519.7614245245709,80.19553281510139 520.2918292177851,78.5201508624375 468.71091942230805,63.104686133250425 466.4602675466808,62.66298174780218 417.88556688893686,70.9675048392744 414.6163399377615,71.5562715629128 380.20848358222383,51.57824893846532 379.1939863023358,50.513962719392794 303.18737240005385,36.48163446281228 302.7973603822534,36.90089895061806 286.430545377872,22.365178447194694 286.2691811822365,22.307143399353436 275.075049840008,32.548516604095994 273.4774277956235,31.98168835059164 270.1094599377607,11.440821890522557 269.66031988451823,10.090648391494824 254.9036515822877,8.42372827218037 254.73704450668401,8.05255000000011 250.4183677423057,9.245717188146727 248.49015298669792,9.748717093818186 247.00379650665081,28.78492947560858 247.19632671107638,30.230809590873605 262.3759206667087,35.43526916017413 262.16533165341343,36.97602458412416 247.87790111112508,39.80153942792799 247.66323430228613,39.832578952343965 244.91043103111542,61.839843907022214 243.71185040890805,64.83056326161727 227.92553872892267,72.61550793992478 225.54031960000384,75.57279682203784 235.18401481779392,91.93633989236673 233.666783600092,92.09824664213352 202.83457140447672,35.03939448329743 200.51954861332297,32.835978943366854 169.66345218671586,49.782993913373275 167.3251277067243,49.612059317565354 120.46164482666745,19.049957921706437 120.23124937780767,18.828611515091097 84.44335049784377,23.32342933808809 83.79527227555036,23.36841753978638 62.78996482663888,30.897062896379566 62.05217510226748,31.75855555627618 60.16532084448363,57.87164638416266 60.19532176896564,59.441481476744 85.65474704895269,92.50930935235351 85.86562733338315,94.28892314880045 65.59228418672092,102.90794988684479 65.31062502225495,103.39859234073788 56.68171835560452,95.89717427813571 55.05147394675396,95.7456142030785 35.594272453315625,118.17536459500093 34.18976315562713,120.11980369824573 18.068489697855966,123.38807734507259 15.961143208878184,124.56038100980345 8.052549999999883,185.6657236119279" stroke="#009edd" stroke-width="6.172016424263325px" fill="none" stroke-linejoin="round" vector-effect="non-scaling-stroke"></polygon>
</svg>