<svg width="615.4186552888714" height="587.6561794398003" xmlns="http://www.w3.org/2000/svg"><polygon points="5,148.4327910806751 12.366537671070546,165.50550560839474 12.981119715492241,166.66859355400084 35.15617194666993,174.71533300133888 35.48559957323596,175.2781381950481 56.38022399984766,173.91892509895843 57.30967011547182,173.96988446835894 56.61324088880792,186.25615740637295 56.8168393955566,186.46674743987387 65.2398173866095,186.11997273704037 66.04081294219941,185.87826728727669 67.76979825773742,179.14016936311964 68.35321429325268,179.08154492545873 74.06911857775412,185.41289335524198 74.14164508436806,185.51615955552552 67.23327687103301,207.1369532556855 66.31431651557796,207.0364026654861 65.45914453326259,219.49530570808565 65.66390812431928,221.20456204283983 69.95724430214614,220.37676243740134 71.39437596441712,220.115256463876 61.56630613328889,277.65436296298867 54.79949567990843,278.26378152746474 54.93318911991082,294.11618106788956 54.98532664880622,299.51574088376947 63.475588266621344,297.56326101970626 64.06803370662965,297.64303720055614 59.051762631046586,307.76536180404946 55.88011150213424,312.058611111308 68.15806264884304,310.8435661108233 71.45758179551922,310.50239684595726 75.48120092437603,321.72239521320444 78.92693816882093,324.9256856474094 120.3124852621695,314.796043100534 121.0351288887905,314.6008996757446 121.50349283544347,317.6573755395366 121.76243285322562,320.8994826958515 96.40670008875895,327.04376132029574 91.24828871106729,329.38173252216075 103.03049642662518,349.3314336487092 115.61399096890818,370.3989669997245 83.58669340435881,404.55933009361615 82.16587292437907,405.8824226887664 102.06347633770201,450.028673341847 102.39377777779009,450.5961752515286 105.13696910219733,461.58380303753074 105.43959978665225,462.4566283172462 100.19176817778498,466.4563574193162 99.31533340434544,468.21682755369693 108.17754823109135,478.539770047646 108.67562183109112,478.9230092568323 105.93039160885382,483.32007948611863 105.93650830211118,484.89532956434414 112.63224860432092,504.01268374337815 112.68584248889238,505.8665108489804 105.16027079103515,551.6330942553468 105.08687047101557,551.7672507901443 143.5684445865918,574.9976008641534 143.9596216888167,575.6539066223777 156.7784632887924,557.88073985558 157.515961742145,556.4131579092355 164.41559182212222,558.4632681208896 165.21716991986614,558.3075072373613 168.33144064003136,551.8374803528422 168.74475434655324,551.4296083474765 186.94337336882018,566.6216521626338 188.8171204266837,568.2152093076147 248.12545279995538,559.0520972801605 247.98243868444115,556.1673594800523 287.7231778133428,567.9856297563529 287.78463601775,568.1625410789857 320.581180586596,545.2844248811016 322.472695182194,544.5807565997238 321.3469323377358,532.1736732163699 321.2889693866018,531.008024949464 336.8361474843696,528.5808092720108 340.09867519990075,528.2170172533952 364.98167495103553,533.30599843862 366.5201689598616,534.4743358173873 394.5835579732666,528.1553346358123 396.4474018133478,528.8734633036656 399.7358526577009,532.7783311117673 399.9863458132604,533.9705332964077 397.7837536711013,543.0113385785953 397.18985187553335,547.6866944313515 390.5718809599057,556.3775936847087 390.22410325321835,557.391847085557 395.388922595419,566.7639023681404 396.9390674488386,567.7839596772683 453.7914018132724,562.7250409637345 455.00367217778694,562.4198274989612 467.1048217599746,582.5922615315067 467.56503011554014,582.6561794398003 513.1673090843251,571.0475709415623 513.7009177599102,570.90172231826 512.6302051554667,569.187093407556 511.10190563544165,566.7197868080111 526.9065673954319,552.9926633866271 529.2006186665967,552.0067515137489 507.1848917332245,538.1440902352333 506.7380818488309,537.5259405985125 508.48658232891466,532.2452597558149 510.0230374399107,531.3583053824841 503.00981162663084,499.20760965452064 502.9972869688645,498.62312244880013 481.05758179549593,491.11696116876556 479.69443299551494,490.69141368742567 481.58041343989316,477.94261807377916 481.484585244325,477.545416537032 474.14484451548196,468.3884152128594 474.0458123377757,468.2294376749196 484.8746897066012,452.3869494047831 484.799833031022,451.736579400138 491.2520706843352,456.17833384213736 493.06028174213134,458.3054978372529 498.53588735999074,435.641107429401 498.87201422220096,434.0555932088755 508.0595788798528,447.5523660379695 507.985304746544,447.68208235804923 520.062861368875,448.1833811639808 520.7496786487754,447.0925030474318 512.2471836444456,428.8818722848082 511.9084353422513,427.92377907410264 517.4271490843967,425.49947370466543 517.4667619555257,424.5472215494374 510.906171448878,415.1357383315335 510.14449749328196,414.9870829291176 515.2105759287952,419.09353865799494 516.6389694577083,420.7629467359511 525.4883683554363,415.5001688755583 525.7097343999194,415.4019663906656 528.7418666665908,406.8617853600299 528.7535175110679,406.3558869747212 526.0106174576795,390.578297783155 525.6450722132577,389.8759338951204 539.0930594132515,388.8280153966043 539.7857021155069,388.48831932863686 532.2764415999409,376.17781038139947 531.4943786666263,374.677920980379 538.2687621688237,372.36070905649103 539.8468690487789,371.73893695126753 533.1895765332738,362.1652256529778 531.9374020266114,360.2781890693004 544.9280935821589,355.2315929089673 546.1855109687895,354.7846030643559 532.6416955732275,351.6894436851144 532.3145981155103,351.5659788562916 537.6486459732987,325.5011733438587 536.6108470044564,324.1730878627859 547.575456710998,327.19157519727014 550.249616782181,327.4610648744856 548.9866652443307,318.8723826846108 548.6024786488852,318.1107506568078 560.2495365687646,322.23975593346404 560.8035342221847,322.1996470015729 584.0792999821715,305.2022617047187 584.7617481955094,304.9728566968115 581.6369917155243,302.7842577243573 580.6676414577523,301.9860626567388 582.5559520710958,294.8778966650134 582.7505211733514,293.41711311705876 590.995823786594,285.64383173303213 591.9759510755539,285.2494360335404 598.23740615102,256.63153792876983 598.3011945243925,256.3029064190923 598.5776108088903,221.54046022630064 598.7509171199054,220.7049970785156 610.36913919996,202.43853098276304 610.4186552888714,200.7985684563173 593.3420125865377,198.5958499108674 592.8008308621356,198.80146797531052 596.589976746589,167.54845938499784 596.809303893242,166.79171184595907 593.7014411377022,166.58786760334624 592.7189836798934,167.3013216209947 597.9840002843412,144.75153070443776 598.6451857065549,143.247797836666 565.094248959911,149.2432734288741 562.6178619733546,150.60489504918223 523.3218938311329,131.28657401027158 521.8833058133023,130.55721542076208 528.2499097599648,143.4246019978309 528.1488386843121,144.2856181776151 513.8919916087762,151.57051822566427 512.8410854398971,151.81135958631057 474.921082026558,135.21027396980207 473.80463985772803,134.67939007410314 471.68972031993326,128.01639435091056 472.36313912877813,127.02360323048197 488.2167344355257,113.98383628868032 488.66092287993524,112.83445187215693 491.1885735820979,99.04993868933525 491.12391139543615,97.45070384501014 483.711352888844,90.8447700124234 481.4146801776951,89.6474428664078 464.9668918043608,91.96449503977783 462.2746729244245,94.22783790063113 453.24235576891806,107.55929530970752 452.7815648710821,108.48947155021597 450.00487736880314,126.27167710440699 448.4759953066241,127.39798659970984 429.26753934216686,123.15298288164195 428.12342641770374,123.15704253560398 418.9987763199024,111.88309261604445 418.37079580442514,111.772574083996 421.78303687111475,68.7554193616379 421.9155652265763,66.78959762316663 412.234004764352,72.02107174298726 411.63252991985064,69.80532425496494 413.9970687999157,41.07076093147043 414.51902663102373,38.37006007658783 409.7343160888413,18.603613807819784 409.63907043554354,18.0101685783593 394.76880640001036,5.277559554204345 393.1735145243583,5 325.1876332088141,8.949887484195642 320.61613312002737,7.969191965472419 294.5191153776832,23.482439687184524 291.94690019555856,25.246931332570966 248.58187463111244,27.96584516641451 248.28943843545858,27.694632210186683 261.0290542932926,61.57198545121355 262.02228878217284,64.39557554421481 280.30595896882005,88.35762455826625 282.4453452799935,89.88113421114394 258.71956565324217,105.22030409728177 257.2279662932269,105.83561684464803 249.90977962664329,133.93019658816047 249.13441592885647,135.6987581824651 237.40580209775362,140.86273180739954 236.29955441772472,141.71654152910924 230.09810119098984,134.80387953156605 224.75123740441632,128.7953781381948 203.30785820435267,121.32883737247903 202.97289642656688,119.03465056011919 186.4598633244168,119.36980361584574 183.1000510577578,117.93581405689474 174.02404323546216,130.89099763764534 172.53972565336153,130.43497883284 149.29658225772437,98.2884427109384 149.22871608880814,98.20769150077831 135.4361551643815,108.98297760891728 134.7059384888271,108.88508847018238 122.82149461319204,95.20859748963267 122.45187157322653,94.25219904771075 108.813101795502,92.35157028608955 108.26580337772612,91.63832270901185 111.50357304885983,80.09611038689036 112.41088255995419,78.90007784048794 108.90776490652934,74.50975665147416 107.82511018658988,72.53406078077387 101.20713927107863,84.68482635199325 100.06390015990473,85.62276951002423 95.41463068441954,60.573929218924604 94.61013987555634,58.62066764256451 66.15761265764013,53.691638887044974 63.66141923551913,53.38075079367263 62.362350079929456,58.782650497742 62.5840073954314,60.84104055608623 43.008549830992706,70.90034216240747 39.3201837510569,69.70200336980633 38.47811896877829,84.50030507403426 38.98929976881482,86.14655419718474 35.50511473766528,87.55593931808835 33.92351260443684,88.06212471344043 36.58456547546666,99.69865177222528 35.315497244358994,104.58378740155604 29.589689742191695,108.35368952329736 27.030290488852188,109.17379363806685 24.848087324295193,121.63241160544567 24.983819662127644,123.11148419155506 14.35155029327143,130.20899883512175 13.440162986633368,129.6149544932996 5,148.4327910806751" stroke="red" stroke-width="3.0718320751587793" fill="none" stroke-linejoin="round" vector-effect="non-scaling-stroke"></polygon><polygon points="193.59658808878157,204.5798877835623 233.7920014221454,230.32908661593683 234.0902630399214,230.4188060609158 239.60052991996054,238.61828653968405 240.04792234662455,239.76746061549056 237.4084235377377,247.94991035712883 238.00727694213856,248.72125387517735 275.2410456177313,261.94276771333534 275.6167853510706,262.1586942889262 262.5011384888785,270.7013719094102 262.19006094220094,270.80369629792403 264.51877347554546,275.05124309513485 264.4471207821043,275.91940391849494 207.5441052444512,307.5201852496248 205.19121720874682,308.8533294480294 201.03914751997218,333.6668966586585 201.1442963910522,334.1373628192814 233.5613147021504,340.61923800985096 233.70025102212094,340.79182702768594 234.01715399103705,378.46299308596645 234.28832739545032,385.3174969020765 220.04342243552674,390.0502861419227 219.68574151105713,391.1869512592675 262.64852167095523,389.22402645961847 263.1416436621221,389.3208891247632 279.8343910399126,403.9070159200346 281.41308046213817,404.47553846472874 300.8895058488706,400.78822451957967 303.2208398221992,401.9144723904319 304.04601087991614,396.4777951067081 304.4569944177056,395.6240785357659 320.944978204323,397.50855769298505 322.6369720888324,396.96884956693975 332.16386759106535,392.4506564361509 332.46096412441693,391.0351259392919 322.5498820266221,350.0843954733573 321.7191768178018,348.9281406418886 336.047676586546,347.20906769728754 336.8186712176539,346.89409061323386 356.3877208177,355.32396468834486 356.67928319994826,355.8200680654263 358.35467463103123,367.76946612779284 358.4953585776966,367.7811809035484 352.48119267541915,384.7570341655519 352.45119175105356,385.0606934148818 358.3048672711011,392.65429024159675 358.53759288880974,393.86752931709634 385.11695559101645,400.9053545683273 385.7440622933209,401.94916073285276 394.6074422043748,397.140493113664 395.05250446219,397.0251630813582 391.5642416354967,376.8703061628621 390.55440469319,375.1442439595703 394.7405531021068,372.57787831744645 393.5926536532352,370.7233720449731 419.22742414218374,358.0766258123331 423.9372780089034,355.31360102724284 429.37880490662064,360.24079061532393 429.690173724317,360.8783657940803 442.44260551105253,356.840658667963 442.66659299551975,356.7762241702294 437.5233277154621,342.57629035098944 436.5860172800021,341.25732101034373 422.41771662211977,331.7444640722824 421.5881764977239,331.30148201598786 442.042399004451,319.88683637278154 441.74209848884493,319.29375784425065 422.0684825598728,318.33202982111834 421.30185699556023,318.08055572293233 405.90992639993783,306.4524922335404 405.4214647465851,305.7980826246785 386.4305883022025,276.65729283273686 386.2887392709963,276.3755701141199 389.86205326218624,256.3651165369665 390.1734220798826,251.85754195507616 388.56910079997033,252.18257369397907 386.2558256355114,253.05668577936012 382.023656391073,242.6004712593276 377.6094427021453,240.53161971160443 374.3078846576391,225.6992427719524 372.87220935104415,224.6956236101687 382.09152255987283,204.43424552417127 382.89688718214165,201.76802813156974 380.1644728888059,188.69935007271124 380.47059882665053,188.1676941923215 395.51853823987767,184.9682619094383 397.20878449780867,185.27535532717593 407.2736577420728,196.45759094518144 407.57512334221974,197.0352205344243 425.2712996976916,200.01893939403817 426.3417210309999,199.88997792778537 432.0302458311198,172.00996954314178 431.04371057776734,171.2361004584236 406.30489002668764,166.501729824231 405.1197078755358,166.57974990829825 390.43585735105444,176.0443265903741 390.15652835543733,176.17240019788733 385.1524906666018,166.39394480665214 384.67684494215064,166.09900143259438 370.58194460440427,183.573033225548 370.1109592176508,183.7502557208063 328.5756987732602,186.99570181127638 327.78256753773894,187.22613251407165 323.56175786664244,177.1929277064046 321.4715963732451,174.7653902526945 287.7505572977243,156.9235382300103 287.5207443910185,156.8337886170484 280.117215288803,173.79310501203872 280.20226645329967,174.0433922104421 274.2612095999066,175.49009169847704 272.27124536875635,176.5110733548645 238.22573027550243,143.8950266588945 236.29984568885993,141.7151884259656 219.00358456885442,176.35413832205813 218.67299185774755,176.88627389620524 199.89095679996535,190.4304920247523 199.1479241955094,191.05638732976513 193.59658808878157,204.5798877835623" stroke="red" stroke-width="3.9294186996652014" fill="none" stroke-linejoin="round" vector-effect="non-scaling-stroke"></polygon><polygon points="326.1689255821984,276.64377015054924 326.1689255821984,276.64377015054924" stroke="red" stroke-width="3.6004848956161712" fill="none" stroke-linejoin="round" vector-effect="non-scaling-stroke"></polygon><polygon points="327.367797475541,277.04539345548255 327.367797475541,277.04539345548255" stroke="red" stroke-width="3.968703569691211" fill="none" stroke-linejoin="round" vector-effect="non-scaling-stroke"></polygon><polygon points="201.814511217759,286.7499388483702 201.814511217759,286.7499388483702" stroke="red" stroke-width="3.7010564642219874" fill="none" stroke-linejoin="round" vector-effect="non-scaling-stroke"></polygon><polygon points="203.30756693333387,279.93471557996236 206.02658275549766,284.62200735212537 206.49232526216656,284.48994059709366 203.30756693333387,279.93471557996236" stroke="red" stroke-width="3.8311234192228336" fill="none" stroke-linejoin="round" vector-effect="non-scaling-stroke"></polygon></svg>