<svg viewBox="0 0 4380.851779182193 4141.730218177529" width="4380.851779182193" height="4141.730218177529" xmlns="http://www.w3.org/2000/svg">
  <title>Guinea Ecuatorial</title>
  <desc>Geojson of Guinea Ecuatorial</desc>
  <metadata>
    <collboard>
      <support-module name="@collboard/map-svg-geojson-import" version="0.11.0"></support-module>
    </collboard>
  </metadata>
  <polygon points="8.052550000000338,3946.3078314024096 16.247098622210615,4011.8651500808264 16.951392168884922,4014.7788703297047 23.141340186652087,4033.7181832857677 24.99236809777358,4038.0888265533795 37.493505733327765,4060.6706807762166 39.51478160886472,4063.584492717353 51.372210088891734,4078.1536367132285 54.1498442222146,4081.067482470018 72.75201936887606,4097.093736146147 79.74762327998906,4103.112440623088 99.03865460443922,4114.30350432761 119.09310751112207,4123.911804615032 142.08663156443072,4130.730717118808 165.88821449777606,4133.67766817753 201.95449574222584,4130.658086977499 213.5976943200003,4127.704804308632 224.95734047110454,4123.800638047345 235.9560288977882,4118.9723311505 266.0511067288826,4099.302167518246 278.5637495733172,4087.3686933800127 301.4284589777599,4056.844854177769 315.3325767377755,4028.580143595267 324.6230329155587,3992.9260981838815 325.39963451555377,3988.555579421438 327.54135099554696,3956.8726540667194 328.7042509066596,3940.157668242151 327.9366787110994,3923.4200482893866 323.1627451999884,3898.6395076144327 320.6030546755428,3890.5462031908464 314.0903054488954,3874.87611871877 305.79657901335304,3860.071539346165 287.14947529778146,3836.6390337838166 277.6376530755733,3827.7641895240886 267.3707104977584,3819.774913029025 256.43100447112374,3812.7352873973796 240.14589101332967,3804.5922469472644 225.25414573335001,3799.099162510225 209.85245755557116,3795.2618276123903 166.4709751733244,3790.4370191893613 161.98787586668186,3790.4370191893613 138.62654921776993,3792.622034532287 134.78344536000077,3793.3503735144113 110.25514100443252,3800.6337780906833 106.70869677331211,3802.090462236789 84.85957691554358,3813.015627915047 81.21723167110031,3815.2006684140433 54.231618586672994,3835.5944995744285 51.98082107553637,3837.7795658697214 36.948464666675136,3855.26018782991 34.873958995543944,3858.173640783505 20.738571973321086,3883.6665518265 19.52309762666846,3886.580050216762 11.601178764431097,3912.8017505805547 10.699985946652305,3917.1720720027006 8.052550000000338,3946.3078314024096" stroke="#009edd" stroke-width="5.274102097667046px" fill="none" stroke-linejoin="round" vector-effect="non-scaling-stroke"></polygon>
  <polygon points="2044.8608944622174,467.75165398269746 2046.0932625333444,485.25778166829696 2046.506139333338,488.17542798887735 2052.5811080799976,517.351241518023 2053.7116040799956,521.7275121807252 2074.5709118844316,581.5339287731986 2076.509830853327,585.9098184858522 2084.2935415733155,600.49593294238 2085.652175671108,602.6838256923002 2096.6788261244437,617.9988974064254 2099.7778051111163,621.6452974002386 2111.5639449866503,634.0429266396895 2114.7265667110987,636.9599865899145 2132.656415315556,650.8158696653045 2134.826749182197,652.2743691336145 2155.058586195555,663.942265576763 2158.161424524449,665.4007402460484 2193.648804435543,678.5268888911014 2198.0886499822154,679.9853361757196 2262.6702273688934,696.7572842775335 2266.0490450755533,697.4864912684789 2301.18100141333,701.1325160757333 2304.224857342204,701.8617190092555 2321.743722408901,709.8829067468687 2325.294535706642,711.3412957596229 2345.506420648897,717.9040130514404 2348.550203759987,718.6332005059448 2379.166511244439,722.2791277281576 2384.320262284433,722.2791277281576 2397.1584734133285,721.5499436230093 2403.132662355558,720.8207588484293 2425.7749134488768,715.716446663755 2430.2146133599817,714.2580657162835 2454.411669644418,703.3201228501348 2456.9257762399866,701.8617190092555 2481.391384488881,683.6314424533703 2484.462328631118,680.7145587946652 2503.7818317066485,660.2960668758387 2505.5921544800003,658.1083393987719 2527.8737391200048,625.2916798931474 2528.9840645955483,623.1038524959367 2541.133783635545,610.7060448044285 2543.731703493344,607.7888840812884 2565.6053629422167,580.0752931727402 2568.940489982233,574.9700461069078 2580.9281166488727,551.6313268944141 2582.072156755552,548.7139351954029 2593.0026149244586,512.2455591018734 2593.9431293422313,507.86923128162016 2606.556624808909,487.44601752072776 2608.3956377866634,483.79895405780553 2616.686597146654,463.37505493255594 2618.0133370577896,458.9984289342756 2631.5298457866666,434.92650208589475 2633.3554602933364,431.2791686984201 2642.2940609688885,409.39476923186885 2642.677737839993,408.66527742383914 2681.2137068355587,358.32848211327655 2682.7823474044344,356.1398420021069 2696.2735883644273,333.52348125525896 2697.6487520977753,330.60518611176667 2708.6175852355445,301.4215377289438 2709.7484453244324,297.0438806622915 2716.100776986663,267.8587622486011 2716.9254383200096,263.48088325528806 2719.0386102311095,243.050394988466 2719.1267197422058,238.67235013412574 2718.2121284533423,219.70048171962117 2717.660970693345,215.32227934088587 2708.9018658399946,172.99811849559046 2708.1359684533163,167.22816943807265 2657.0572100533245,111.6689739168869 2651.016829751119,104.99653800093074 2621.2240913333153,81.26989003623748 2604.705669715542,68.68145979969268 2538.913423955564,42.43006035315193 2530.7766198311074,39.310805303910456 2487.949936097757,27.760772358182294 2484.099113555545,27.03084969449992 2467.966189253326,19.731574479279516 2464.1172599733472,18.271708825639507 2444.611489022216,12.4322107825501 2441.565230106651,11.702269537760003 2410.9236548533445,8.052550000000338 2405.3704254844415,8.052550000000338 2386.5424424088924,9.512440478742064 2381.961330373313,10.24238438608154 2360.7278120088813,15.351966893395002 2358.4462125777573,16.08190370514785 2324.594756862214,32.140289818860765 2321.0636771822246,34.33003665268916 2302.51072685331,47.46835148626269 2299.713286284452,49.65804298684088 2283.3637290933475,64.98566317612858 2280.7645713333404,67.90516627030593 2270.1318650577814,81.77261611753056 2268.680898017781,83.96218485298596 2257.1020703555623,105.12761547465198 2256.1109475822086,107.31710147619742 2245.0467959733287,122.64328763917001 2243.6877249688914,124.83271204258926 2221.734621324438,148.18609615875903 2219.874855279988,150.37543142629875 2204.795822675551,172.26836699796695 2202.8132858577665,175.91711611134087 2191.706317395561,203.6469277192591 2190.5278344799954,208.02520937659574 2187.6696638844514,221.1598759233093 2186.9832835111083,225.53803879184852 2185.5484091999897,245.96907523142727 2185.2605605244244,246.69874325338606 2165.745905804426,254.7250377502569 2162.898075333338,256.18435344994214 2133.8908222844548,274.42552617571346 2131.0944011644533,276.61443295884965 2114.7369796533094,291.93657769924175 2112.7485445955317,294.12542662879423 2091.548959315558,321.85022485128866 2088.968806995552,325.4981392140253 2074.074804364449,352.4920928512802 2072.7633561866605,355.4102937357602 2055.8834671200093,400.6408169736169 2054.482088986675,405.0178068990572 2047.1787571466775,440.03273702860315 2046.6926984799866,442.9505689365251 2044.8608944622174,467.75165398269746" stroke="#009edd" stroke-width="5.895567140711046px" fill="none" stroke-linejoin="round" vector-effect="non-scaling-stroke"></polygon>
  <polygon points="2691.2961291644388,2257.7260304449665 2691.3211784800005,2267.159562620778 2692.06974523556,2278.263550957061 2696.5277952266406,2302.2851160682258 2701.4555198844537,2322.4795931037734 2716.3059046666676,2353.502497931542 2725.6120894844425,2366.443726650912 2875.2457051288875,2298.7098850133843 2994.9149508533374,2213.846700556118 3005.1205808622253,2198.2572943724153 3011.436576453336,2189.4233236536456 3015.496458835558,2179.1614333704274 3015.5484507288857,2170.415952359246 3029.211978551124,2172.5363787236347 3039.242481804431,2172.5251630096245 3049.3304382844435,2169.9469311212524 3053.5883850222235,2168.8394142930993 3073.9866834755594,2159.6344119947535 3079.4077485777743,2156.431067545629 3092.611723404443,2145.3062858615085 3097.9554560266624,2140.5562241539956 3104.4867009688824,2138.337519995148 3108.035766640016,2137.685906326158 3153.8370565955483,2136.0083298132595 3157.099729946647,2136.8447148222112 3161.4241593155384,2139.2905783856913 3164.549134248875,2142.103066923977 3179.1565989244336,2157.5727474769737 3182.3616734133175,2161.384363741883 3194.9914072444444,2186.28629417529 3195.549191422215,2186.806219552418 3223.7291616977673,2182.850151920189 3225.1571183200067,2182.78351339035 3232.1801017155594,2183.786586932103 3239.738150142228,2188.9090794920266 3252.4524982311195,2191.0836010707208 3260.684548008874,2199.4328193313922 3262.469238924423,2201.7005518311416 3265.2769468000115,2216.847214977628 3269.218063386659,2222.116386318863 3287.952548435547,2228.415839453395 3291.261897982222,2229.9141948951365 3292.633348008887,2231.6292842477196 3294.7290436533294,2235.4088127497307 3308.6127724355683,2243.1786150398766 3310.105172791118,2243.704791660937 3312.7863233688768,2239.7344677932197 3314.4823950488717,2238.45882416753 3324.9068424799843,2235.9976225429637 3326.1504973066694,2235.8446121199013 3330.245113768884,2237.3943793336 3331.8714988355423,2237.2413689938476 3339.452703315539,2234.2038096264805 3340.0211917066554,2233.61587335042 3340.3616876355445,2231.880466451221 3340.3589933777766,2231.561044833572 3335.1073752444427,2230.103109677111 3334.782680773329,2229.9136851019503 3338.1234147822033,2226.6109513855117 3338.9768391377656,2225.6384101882795 3338.259729662219,2220.131900193148 3338.178537840002,2219.4554019214047 3340.2743791199828,2217.885960183783 3340.396858622211,2217.638272328062 3337.042070782227,2215.3288968702327 3336.8343944799926,2215.1343732199966 3334.2688057155538,2201.2217049008977 3334.2496546399852,2200.9443013662894 3338.11460383112,2199.509289245827 3338.9971552977877,2198.727183978779 3342.1781999199957,2187.2516408949523 3341.85292290667,2186.9454683525328 3683.9346773599755,2186.848241811451 3840.0806053244523,2186.8526115437344 3916.98666441776,2167.228062671762 4036.5491592800026,2166.9780390637825 4038.048695777783,2186.8856758509573 4296.282890835551,2186.905558132399 4315.974638391119,2186.869944814978 4315.9710703200035,1840.0327695204833 4315.986580506673,1706.462351577 4327.05451863999,1695.2922544064568 4328.447013004457,1694.7558678377318 4330.391247671105,1689.2862139967547 4331.415866622214,1688.3310148390083 4335.576965715569,1689.496019704944 4337.898323653331,1689.6747187785004 4340.723070888904,1687.583581248684 4343.374803084422,1687.8089041064159 4347.715179546656,1689.7949199364157 4348.228399244435,1689.0809977584504 4347.708261857777,1674.214142180157 4348.418089555555,1673.1159281906948 4345.948474622222,1670.5691611734146 4345.782231635538,1670.0137513145964 4346.633762728896,1660.52454263041 4346.357783351101,1658.616799984804 4350.527110853327,1652.758053214442 4351.086569839979,1651.9534124592683 4349.943476364431,1648.9789695030704 4348.912012542227,1646.5927227449065 4349.75356759999,1636.448413912476 4349.693201662223,1635.9326218111164 4346.728353022227,1631.9559892753678 4345.728346480006,1630.393526841559 4346.663618017781,1627.036925691129 4346.916222888867,1626.438005293494 4345.459357608874,1622.9410071651291 4345.544845679986,1622.420838755621 4351.036252755563,1616.161827384647 4351.359199599981,1615.7684935921643 4350.9367108533115,1610.8248921167324 4351.078705519998,1610.1356262764675 4353.232509751113,1607.9221195844948 4353.464652826668,1607.817137656537 4357.1527276355555,1608.2878442099682 4357.295013573348,1608.2051554837017 4359.1190989066745,1604.5361021794888 4359.328377199978,1604.0508964057444 4357.45936329777,1594.8199320006606 4357.457397217753,1594.649963044918 4363.074633413322,1589.2534919362297 4363.162524471096,1589.0679313858782 4361.969113911102,1583.8531373462247 4361.043454320003,1582.7947016635662 4367.556931724459,1580.1800092340927 4369.049259262196,1577.2035125869224 4368.174208026649,1561.0785119734282 4367.484769306677,1557.3373443055098 4372.299189502206,1551.4535255314622 4372.799229182194,1549.828529191982 4372.799229182194,1548.203530782128 4370.600350746659,1546.9091551173697 4365.91591028445,1547.2216384769781 4364.064299831116,1547.370048010278 4362.544447173343,1545.7993977861697 4360.431493715565,1544.4403225923234 4351.82202939556,1529.6140391005101 4351.299197751105,1529.0405741852665 4339.174091119996,1526.9779634891675 4335.799132755557,1526.1030104392485 4330.799100044453,1523.228025093973 4323.9866328444405,1516.7280275156882 4313.266909324455,1485.9350875049204 4312.016919351103,1484.4100433370986 4313.548131582218,1481.7725597838362 4314.991889662233,1478.691347470849 4314.298154693337,1476.6038069253336 4315.210634266645,1473.1038477914772 4318.685644257792,1467.5475798906627 4318.960604186643,1464.7663032662458 4316.460624239997,1458.7975971645865 4316.048111528893,1454.7726127780406 4308.604387013336,1441.3288432867485 4307.216917075544,1440.63511243034 4308.404356577761,1433.0475457180219 4309.379386622233,1431.9350618335811 4307.435661679985,1431.6600738416819 4306.379366995541,1429.522611988381 4307.573141644454,1429.7100909016372 4308.87941976,1429.2475505670227 4308.129396648881,1424.4350946284176 4306.604373928894,1423.7413537942703 4308.685651653337,1421.0976152506992 4309.93564162666,1419.0163126903135 4309.098164364441,1411.3788388648463 4308.8856092711285,1410.0788522636794 4313.329386977777,1400.3538626411828 4314.516899297778,1397.4350745826596 4314.654379262218,1392.2975756775195 4314.935601519981,1390.347599307548 4321.544979937789,1377.535061802082 4322.939804471105,1376.7227376060982 4321.072611013318,1374.7071538549426 4320.971103031108,1374.253991314552 4324.2288975911,1375.7852267357011 4324.5825007199965,1375.5663332106124 4323.838303031087,1373.605543748643 4323.689827582224,1373.355608246282 4325.419977982216,1372.2850384074336 4325.400754088863,1371.969813253243 4323.670312417795,1370.5636136078028 4323.385157999997,1370.1182462490906 4326.677832275549,1370.4413416312236 4327.072650266644,1370.2745474773183 4326.506055137761,1365.4751061621428 4326.534454071116,1365.3071453839293 4329.399178266649,1365.5529291953208 4329.526973466658,1365.3432879222746 4327.995324328869,1360.611593092348 4328.057510711114,1360.3663911452386 4332.254654604425,1360.8339872042052 4332.409683653335,1360.7990104136625 4336.18077072889,1353.730032862768 4336.294803368895,1353.4884728456018 4335.631797502232,1351.8428028469862 4335.4941719022245,1351.8202863569968 4331.64859224001,1353.2214815621046 4331.528224453337,1353.116841947769 4332.994701679978,1351.627912443284 4333.045018764453,1351.5344216239828 4332.4845403288855,1347.788151318011 4332.468666053326,1347.4723363141748 4329.9173495733485,1344.6802771026487 4329.762393342222,1344.4411926787361 4333.167571084436,1342.4568847002884 4333.457167386667,1341.8909070347654 4331.493636008883,1339.2218378653706 4331.545190995537,1338.5079329112414 4334.684583848903,1333.4592847463136 4334.751430568904,1333.1690430659146 4321.908850373329,1333.0767166102523 4320.459412506672,1334.9155929018816 4318.705450693327,1335.610918338636 4316.901098977782,1333.0304440742984 4263.017982319994,1333.1026583775747 4259.783562266683,1329.2721603437312 4254.236668044447,1326.509349052627 4237.330418942212,1326.134284167456 4217.924335528871,1316.768769541748 4191.041613964429,1331.4646823291478 4184.331747013326,1337.0474759167191 3602.602826551105,1337.0000376294847 3478.1059806133053,1337.000766328223 3467.1820032266623,1347.079644205609 3466.752378337791,1347.5250207338322 3458.9008014488863,1344.923442158739 3458.3460756177737,1344.7124853630594 3452.877314871097,1344.8921812060653 3452.6898090933173,1344.8687172736318 3453.580443333318,1342.5250176944755 3453.3070125777813,1342.446828707216 3448.2211277066745,1343.0327723254668 3447.033615386674,1342.900004130708 3435.2692480266633,1353.6796805377162 3434.8520749777745,1353.7830084613597 3427.3351685955495,1346.5753891511486 3427.1624448266593,1346.22015152948 3429.1313647199786,1344.4990509683048 3430.317930408877,1342.9197517611246 3427.0804520088786,1337.6031085455252 3425.877356684454,1336.2749821406542 3413.142983706646,1339.4000043355409 3412.111738337764,1339.5718311127057 3407.81483408888,1338.9468274783503 3398.438088844421,1339.3466637020829 3382.6898608622214,1335.9625158695053 3382.080448879984,1335.9625158695053 3381.0257561866674,1339.462453680455 3380.9008008799938,1340.0093407334425 3376.846088559985,1341.1968972041432 3375.8773208444545,1342.1265671407673 3374.017991706649,1345.3843407178283 3373.7757997777735,1345.7046742122984 3374.783597822221,1347.5952666228186 3374.7211201688697,1347.931266347885 3370.8773609511045,1353.8296444745283 3370.5804828711043,1353.946890317784 3370.619513199992,1340.001543678074 3370.566647493317,1339.6844148008022 3363.585679955555,1335.603995691832 3360.258053146659,1333.6397839902857 3347.4554499111036,1330.8843435799718 3347.0726468533467,1330.90780780957 3338.7913722577578,1334.9702454096478 3337.7312182310925,1334.65683145832 3338.2132719199944,1330.6577898590695 3338.1296771111156,1330.3755631738968 3328.943568808878,1326.6924727783844 3327.562798106672,1326.4458787847907 3315.2973716177876,1319.037466839487 3314.1366562399853,1318.5210294633362 3309.262379831118,1320.5895465982976 3307.8034028355396,1320.11275177879 3301.0687778399806,1313.4703216927373 3300.891248097767,1313.2974706239256 3298.4476291110986,1313.9742275817916 3298.115652862216,1314.2203142919534 3297.3923538755407,1316.6397874766335 3296.8890373955437,1316.4624917655965 3293.628621395539,1314.1048131334755 3292.9498140711003,1313.5787543896658 3290.533865840007,1308.7029887722529 3289.3358677599826,1308.1326942307423 3288.3656436888923,1309.2683277367105 3288.025803119999,1309.806266653024 3283.6259345333165,1309.5113549013986 3282.814817306651,1309.571838415177 3281.175689128875,1313.7833044813815 3280.8236151733217,1314.346746145362 3276.9656564889083,1314.4145893989844 3276.119513911086,1314.5718458180563 3275.376554124443,1312.7731604052024 3275.012319599984,1311.632283814055 3276.6046987644295,1307.2749199563477 3276.3617058399905,1306.7515541619578 3273.911824524439,1305.2774276759956 3273.249765288878,1304.6927755405268 3271.4279373066456,1299.1603897577515 3270.250401022211,1297.874846928804 3265.189856737772,1296.0171798108568 3264.588309075545,1295.696831744186 3262.7054597955503,1296.653867666515 3262.631404115564,1296.6137148782364 3263.2679043111057,1291.5682245358257 3262.792477040006,1290.2397504251057 3258.0486900888864,1288.913169368352 3251.051848275565,1287.3146967678113 3245.8627806133372,1282.846758239415 3244.955471102214,1282.3140527360447 3237.6586200444217,1280.8530828434814 3235.221117751098,1279.6968689180721 3222.744519706648,1245.8921743090832 3222.4823757066697,1244.7464890740011 3224.9710688977575,1239.5484393597508 3225.2639419999978,1238.321416867293 3225.8929419644483,1218.3531102206252 3225.267946977787,1217.1343706423722 3215.8487489688923,1204.2373452493557 3213.4129214844506,1203.2840144730217 3212.9746312800053,1208.0250061161423 3212.742415386667,1208.8243398139966 3208.666149004428,1212.018898967559 3208.3278376088783,1212.5165858101172 3197.6148861422043,1199.9487708647866 3189.515510355537,1188.5444053363244 3171.66619821333,1173.801228290824 3069.1860986577594,1130.6366122452528 3052.5904901955582,1156.587267081537 3048.0268544266655,1166.5651913112742 3039.007498835541,1198.1560109527272 3036.8505634400135,1212.5516403289294 3036.0802241689016,1225.6502130667868 3036.4931009688953,1238.7647979719695 3046.394279848879,1294.2925751027724 3048.9628541422207,1307.7644001008084 3038.001885324433,1332.2971516425678 3034.3335441333256,1344.8639807654763 3028.262871635561,1381.5727736821354 3028.0337140888805,1393.4092232120238 3029.557862995549,1411.6511356323972 3033.3029541244396,1429.4725544576868 3044.966177591101,1459.9216409066066 3048.984699475557,1474.7816232038094 3039.8944193688876,1486.0861273207338 3032.2699611288917,1497.8436417177654 3022.513252720011,1517.233593812176 3015.0671252177635,1536.2693021832165 2996.377495920002,1557.0950240918392 2990.468770159998,1565.7111334537549 2979.8627151910987,1574.0970351145006 2961.744559813327,1592.0426525445728 2947.589948897781,1608.6136450268314 2935.3819028177604,1626.4459462176674 2921.463075866668,1657.51230853187 2918.5588844355443,1668.1321749324925 2910.624004008867,1731.0204829315408 2908.2170851822084,1736.1046921989982 2899.936611582212,1746.1003395817024 2895.088840844437,1752.9597559290196 2872.6438531110834,1770.2408473342293 2858.906560879994,1783.3809712573347 2838.3080135377895,1808.6434804710952 2830.6017081155514,1819.6803804070296 2823.9409203466857,1830.9403198813598 2818.0672927555643,1842.8918136862994 2809.7137829244384,1868.1518526474902 2807.593838959998,1879.6731729711246 2795.07784649777,1892.4720223403056 2785.288734177775,1905.1753562578888 2776.9580891289006,1918.8793983584983 2765.0587176088957,1948.612421660444 2763.819868755563,1954.2810497733808 2747.4477380533135,1973.94637491303 2736.7323835999778,1991.3359616951711 2728.4888286133137,2010.1236731114113 2722.971789679992,2029.8843386150184 2720.2346422310875,2051.153695488123 2720.4201091110954,2071.379864321607 2721.567061928865,2081.4341712468813 2723.410516791111,2091.3843528810903 2725.9415899288797,2101.18212389612 2733.0140894133147,2120.131812301006 2738.9897347111037,2131.743664490299 2735.6126646311095,2134.7605977811254 2721.8868047911164,2151.442438118822 2710.857824168874,2169.7995244270205 2704.442359493325,2183.5599431832743 2702.4585119555486,2190.140759984999 2696.7450106577962,2211.6213652374354 2691.2961291644388,2257.7260304449665" stroke="#009edd" stroke-width="5.422385498674798px" fill="none" stroke-linejoin="round" vector-effect="non-scaling-stroke"></polygon>
</svg>