<svg viewBox="0 0 17475.091816728775 16518.60557271012" width="1000" xmlns="http://www.w3.org/2000/svg"><polygon points="8.052550000000338,15761.07367560963 40.83074448884145,16023.302950323297 43.647918675538676,16034.95783131881 68.40771074660734,16110.715083143063 75.8118223910933,16128.19765621351 125.81637293331005,16218.525073104858 133.90147643545788,16230.180320869404 181.33119035556592,16288.456896852906 192.44172688885737,16300.112279880064 266.85042747550324,16364.217294584581 294.8328431199552,16388.292112492345 371.99696841775585,16433.056367310433 452.21478004448727,16471.48956846012 544.1888762577219,16498.765218475222 639.3952079911032,16510.55302271011 783.6603329689024,16498.474697909987 830.2331272800002,16486.66156723452 875.6717118844172,16471.044902189373 919.6664655911518,16451.731674601993 1040.0467769155293,16373.051020072977 1090.0973482932677,16325.317123520043 1181.5561859110385,16203.221766711067 1237.172656951101,16090.16292438106 1274.3344816622339,15947.546742735518 1277.440888062214,15930.064667685743 1286.0077539821868,15803.33296626687 1290.6593536266373,15736.473022968596 1287.5890648443965,15669.522543157538 1268.4933307999527,15570.400380457722 1258.2545687021702,15538.027162763377 1232.2035717955805,15475.346824875072 1199.0286660534111,15416.128507384652 1124.4402511911248,15322.398485135258 1086.3929623022923,15286.899108096346 1045.3251919910326,15254.942002116091 1001.566367884494,15226.78349958951 936.4259140533177,15194.21133778905 876.858932933399,15172.239000040892 815.2521802222836,15156.889660449553 641.7262506932966,15137.590426757437 623.7938534667264,15137.590426757437 530.3485468710787,15146.33048812914 514.9761314400021,15149.243844057637 416.86291401772905,15178.377462362725 402.67713709324744,15184.204198947147 315.2806576621733,15227.90486166018 300.7112766844002,15236.645023656165 192.76882434669096,15318.220348297706 183.76563430214446,15326.960613478877 123.63620866669953,15396.883101319632 115.33818598217476,15408.536913134012 58.79663789328333,15510.508557305991 53.934740506672824,15522.16255086704 22.247065057723376,15627.04935232221 18.642293786608207,15644.530638010794 8.052550000000338,15761.07367560963" stroke="#009edd" stroke-width="5.321648224634644px" fill="none" stroke-linejoin="round" vector-effect="non-scaling-stroke"></polygon><polygon points="8155.285927848869,1846.8489659307816 8160.2154001333765,1916.8734766731795 8161.866907333351,1928.544061955501 8186.16678231999,2045.2473160720838 8190.688766319981,2062.7523987228924 8274.125997537725,2301.978065092786 8281.881673413307,2319.4816239434003 8313.01651629326,2377.826081769512 8318.451052684431,2386.5776527691924 8362.557654497774,2447.8379396256933 8374.953570444464,2462.4235396009462 8422.0981299466,2512.01405655875 8434.748616844394,2523.6822963596496 8506.468011262223,2579.1058286612097 8515.149346728787,2584.93982653445 8596.07669478222,2631.611412307044 8608.488048097795,2637.445310984185 8750.43756774217,2689.9499055643973 8768.19694992886,2695.78369470287 9026.523259475573,2762.8714871101256 9040.038530302212,2765.788315073907 9180.566355653318,2780.372414302925 9192.741779368815,2783.2892260370136 9262.817239635602,2815.3739769874664 9277.020492826567,2821.2075330384832 9357.868032595587,2847.4584022057534 9370.043165039948,2850.375152023771 9492.508394977755,2864.958860912622 9513.12339913773,2864.958860912622 9564.476243653313,2862.042124492029 9588.37299942223,2859.1253853937087 9678.942003795506,2838.708136655012 9696.700803439926,2832.8746128651255 9793.489028577671,2789.122841400531 9803.545454959945,2783.2892260370136 9901.407887955524,2710.3681198134727 9913.691664524471,2698.7005851786525 9990.969676826593,2617.0266175033466 9998.21096792,2608.2757075950794 10087.337306480018,2477.009069572581 10091.778608382192,2468.2577599837387 10140.37748454218,2418.666529217706 10150.769163973375,2406.9978863251454 10238.263801768866,2296.1435226909525 10251.60430992893,2275.722534427623 10299.55481659549,2182.367657577648 10304.130977022207,2170.6980907816032 10347.852809697833,2024.8245864074852 10351.614867368924,2007.3192751264723 10402.068849235635,1925.6264200829028 10409.424901146653,1911.0381662312138 10442.588738586615,1829.3425697302155 10447.895698231157,1811.836065737094 10501.961733146665,1715.5483583435707 10509.264191173344,1700.9590247936721 10545.018593875553,1613.421426927467 10546.55330135997,1610.5034596953483 10700.697177342234,1409.156278453098 10706.971739617737,1400.4017180084193 10760.936703457708,1309.9362750210275 10766.4373583911,1298.2630944470584 10810.312690942177,1181.528500915767 10814.836131297729,1164.0178726491577 10840.24545794665,1047.2773989943962 10843.544103280037,1029.765883021144 10851.996790924437,948.0439299538557 10852.349228968822,930.5317505364947 10848.690863813368,854.6442768784764 10846.486232773379,837.1314673635352 10811.449813359977,667.8348239823536 10808.386223813264,644.7550277522823 10604.071190213297,422.5182456675393 10579.909669004475,395.8285020037147 10460.73871533326,300.92191014494165 10394.665028862168,250.5681891987624 10131.496045822256,145.56259141259943 10098.948829324429,133.08557121563354 9927.642094391027,86.88543943272089 9912.23880422218,83.9657487779914 9847.707107013302,54.768647917109774 9832.311389893388,48.92918530254974 9754.288306088863,25.571193130192114 9742.103270426604,22.651428151031723 9619.536969413377,8.052549999993062 9597.324051937765,8.052549999993062 9522.012119635569,13.892111914959969 9503.687671493251,16.81188754431787 9418.753598035524,37.25021757357172 9409.627200311028,40.16996482058312 9274.221377448855,104.40350927543477 9260.097058728898,113.16249661074835 9185.88525741324,165.71575594504247 9174.695495137807,174.47452194735524 9109.297266373389,235.78500270450604 9098.90063533336,247.46301508121542 9056.369810231125,302.93281447011395 9050.565942071124,311.69108941193554 9004.250631422248,396.3528118985996 9000.286140328833,405.1107559047814 8956.029533893314,466.41550055667176 8950.593249875565,475.17319817034877 8862.780835297752,568.5867346350278 8855.34177111995,577.3440757051867 8795.025640702203,664.9158179918595 8787.095493431065,679.5108144453552 8742.667619582244,790.4300608770282 8737.95368791998,807.9431875063747 8726.521005537805,860.4818536932289 8723.775484044432,877.9945051673858 8718.035986799958,959.7186509257008 8716.884592097696,962.6373230135359 8638.825973217703,994.7425010010193 8627.434651333351,1000.5797637997603 8511.405639137818,1073.5444547028455 8500.219954657812,1082.3000818353903 8434.790268613237,1143.5886607969587 8426.836528382126,1152.3440565151686 8342.038187262231,1263.2432494051463 8331.717577982206,1277.8349068560929 8272.141567457795,1385.8107214051124 8266.895774746641,1397.4835249430325 8199.376218480036,1578.4056178944593 8193.7707059467,1595.9135775962204 8164.557378586709,1735.9732981144043 8162.613143919945,1747.644625746092 8155.285927848869,1846.8489659307816" stroke="#009edd" stroke-width="5.51322951926614px" fill="none" stroke-linejoin="round" vector-effect="non-scaling-stroke"></polygon><polygon points="10741.026866657754,9006.746471779858 10741.127063920001,9044.480600483104 10744.121330942238,9088.896553828235 10761.953530906561,9184.982814272895 10781.664429537814,9265.760722415085 10841.06596866667,9389.85234172616 10878.29070793777,9441.61725660364 11476.825170515549,9170.681890053529 11955.502153413348,8831.229152224463 11996.3246734489,8768.871527489653 12021.588655813342,8733.535644614574 12037.82818534223,8692.488083481701 12038.036152915542,8657.506159436976 12092.690264204495,8665.98786489453 12132.812277217723,8665.94300203849 12173.164103137773,8655.630074485001 12190.195890088893,8651.200007172389 12271.789083902237,8614.379997979006 12293.473344311096,8601.566620182508 12346.289243617772,8557.067493446026 12367.664174106649,8538.067246615974 12393.789153875528,8529.192429980583 12407.985416560063,8526.585975304624 12591.190576382192,8519.87566925303 12604.241269786588,8523.221209288837 12621.538987262153,8533.004663542757 12634.038886995499,8544.2546176959 12692.468745697734,8606.133339907887 12705.289043653269,8621.379804967524 12755.807978977777,8720.987526701152 12758.039115688858,8723.067228209664 12870.758996791068,8707.242957680748 12876.470823280026,8706.976403561392 12904.562756862237,8710.988697728404 12934.79495056891,8731.478667968098 12985.652342924477,8740.176754282875 13018.580542035495,8773.57362732556 13025.71930569769,8782.644557324558 13036.950137200045,8843.231209910504 13052.714603546636,8864.307895275444 13127.652543742188,8889.505707813572 13140.889941928886,8895.499129580538 13146.375742035547,8902.35948699087 13154.758524613317,8917.477600998915 13210.293439742272,8948.556810159498 13216.263041164471,8950.66151664374 13226.987643475506,8934.78022117287 13233.771930195486,8929.677646670112 13275.469719919936,8919.832840171846 13280.444339226677,8919.220798479597 13296.822805075535,8925.419867334393 13303.328345342168,8924.807825975382 13333.653163262155,8912.657588505914 13335.92711682662,8910.305843401671 13337.289100542177,8903.364215804875 13337.278323511106,8902.08652933428 13316.27185097777,8896.254788708437 13314.973073093315,8895.497090407793 13328.336009128812,8882.286155542039 13331.749706551062,8878.39599075311 13328.881268648875,8856.369950772583 13328.556501360006,8853.66395768561 13336.93986647993,8847.386190735124 13337.429784488842,8846.39543931224 13324.010633128906,8837.157937480923 13323.17992791997,8836.379842879978 13312.917572862214,8780.729169603583 13312.84096855994,8779.61955546515 13328.300765324479,8773.8795069833 13331.83097119115,8770.751085915108 13344.555149679982,8724.8489135798 13343.254041626678,8723.624223410123 14711.5810594399,8723.235317245795 15336.164771297808,8723.25279617493 15643.78900767104,8644.75460068704 16122.03898712001,8643.754506255122 16128.037133111131,8723.385053403821 17160.973913342204,8723.464582529588 17239.740903564474,8723.322129259905 17239.726631280013,7335.973428081925 17239.78867202669,6801.691756307991 17284.06042455996,6757.011367625819 17289.63040201783,6754.865821350919 17297.407340684418,6732.98720598701 17301.505816488854,6729.166409356025 17318.150212862274,6733.826428819768 17327.435644613324,6734.541225113993 17338.734633555614,6726.176674994727 17349.341562337686,6727.077966425655 17366.703068186624,6735.022029745654 17368.75594697774,6732.166341033793 17366.675397431107,6672.69891872062 17369.514708222217,6668.306062762771 17359.63624848889,6658.11899469365 17358.97127654215,6655.8973552583775 17362.377400915582,6617.940520521632 17361.273483404402,6610.3095499392075 17377.950793413307,6586.87456285776 17380.188629359916,6583.655999837065 17375.616255457724,6571.758228012273 17371.490400168906,6562.213240979618 17374.856620399958,6521.636005649896 17374.61515664889,6519.572837244457 17362.755762088906,6503.666307101463 17358.755735920022,6497.416457366227 17362.496822071123,6483.990052764508 17363.507241555468,6481.594371173967 17357.679780435494,6467.606378660508 17358.021732719943,6465.525705022475 17379.98736102225,6440.48965953858 17381.279148399924,6438.916324368649 17379.589193413245,6419.141918466921 17380.15717207999,6416.384855105862 17388.77238900445,6407.530828337971 17389.70096130667,6407.1109006261395 17404.45326054222,6408.993726839864 17405.02240429339,6408.662971934798 17412.318745626697,6393.986758717947 17413.15585879991,6392.045935622969 17405.67980319108,6355.122078002634 17405.67193887101,6354.442202179664 17428.140883653286,6332.8563177449105 17428.492447884382,6332.114075543504 17423.718805644407,6311.25489938489 17420.01616728001,6307.021156654257 17446.070076897835,6296.562386936363 17452.039387048782,6284.6564003476815 17448.539182106593,6220.156397893705 17445.781427226706,6205.191727222031 17465.039108008823,6181.656452125841 17467.039266728774,6175.1564667679195 17467.039266728774,6168.656473128503 17458.243752986637,6163.47897046947 17439.505991137798,6164.728903907904 17432.099549324463,6165.322542041104 17426.02013869337,6159.039941144671 17417.56832486226,6153.603640369285 17383.13046758224,6094.298506402032 17381.039141004418,6092.0046467410575 17332.538714479982,6083.7542039566615 17319.03888102223,6080.254391756986 17299.03875017781,6068.754450375884 17271.78888137776,6042.754460062744 17228.90998729782,5919.582700019673 17223.91002740441,5913.482523348386 17230.03487632887,5902.9325891353365 17235.80990864893,5890.607739883388 17233.034968773347,5882.257577701326 17236.684887066578,5868.2577411659 17250.584927031166,5846.032669562643 17251.68476674657,5834.907563064975 17241.684846959986,5811.032738658338 17240.03479611557,5794.932801112154 17210.259898053344,5741.1577231469855 17204.710018302176,5738.382799721352 17209.459776311043,5708.032532872079 17213.35989648893,5703.582597334316 17205.58499671994,5702.482645366719 17201.359817982164,5693.932797953516 17206.134916577816,5694.68271360654 17211.36002904,5692.8325522680825 17208.359936595523,5673.582728513662 17202.259845715576,5670.807765177073 17210.584956613347,5660.232811002788 17215.58491650664,5651.907600761246 17212.235007457763,5621.357705459377 17211.384787084513,5616.1577590547095 17229.159897911108,5577.257800564723 17233.90994719111,5565.58264833063 17234.45986704887,5545.03265271007 17235.584756079923,5537.232747230184 17262.022269751156,5485.98259720832 17267.60156788442,5482.733300424385 17260.132794053272,5474.670965419762 17259.726762124432,5472.8583152582 17272.757940364398,5478.983256942796 17274.172352879985,5478.107682842441 17271.195562124347,5470.2645249945635 17270.601660328895,5469.264782985119 17277.52226192886,5464.982503629726 17277.445366355452,5463.721603012964 17270.523599671178,5458.096804431203 17269.38298199999,5456.315334996354 17282.553679102195,5457.607716524886 17284.132951066575,5456.940539909265 17281.866570551043,5437.742774648563 17281.980166284462,5437.070931535709 17293.439063066595,5438.054066781275 17293.95024386663,5437.21550168909 17287.823647315476,5418.288722369383 17288.072392844457,5417.307914580946 17304.8609684177,5419.1782988168125 17305.48108461334,5419.038391654642 17320.56543291556,5390.762481451064 17321.02156347558,5389.796241382399 17318.369540008927,5383.213561387936 17317.819037608897,5383.123495427979 17302.436718960038,5388.72827624841 17301.95524781335,5388.309717791068 17307.82115671991,5382.353999773128 17308.02242505781,5381.980036495923 17305.78051131554,5366.994955272035 17305.717014213304,5365.731695256691 17295.511748293393,5354.5634584105865 17294.891923368887,5353.607120714936 17308.51263433774,5345.669888801145 17309.671019546666,5343.405978139053 17301.81689403553,5332.729701461474 17302.023113982148,5329.874081644957 17314.58068539561,5309.679488985246 17314.848072275614,5308.51852226365 17263.477751493316,5308.149216441001 17257.68000002669,5315.504721607518 17250.664152773308,5318.286023354536 17243.446745911126,5307.964126297185 17027.914279279976,5308.2529835102905 17014.97659906673,5292.930991374917 16992.789022177785,5281.879746210499 16925.16402576885,5280.379486669815 16847.539692115482,5242.917428166984 16740.008805857717,5301.701079316583 16713.169338053303,5324.032253666868 14386.253656204419,5323.842500517931 13888.26627245322,5323.845415312884 13844.570362906648,5364.160926822427 13842.851863351163,5365.9424329353205 13811.445555795544,5355.536118634947 13809.226652471094,5354.692291452229 13787.351609484387,5355.411074824253 13786.601586373268,5355.317219094519 13790.16412333327,5345.942420777894 13789.070400311124,5345.629664828855 13768.726860826697,5347.973439301859 13763.976811546694,5347.442366522824 13716.919342106652,5390.5610721508565 13715.250649911097,5390.974383845431 13685.183024382197,5362.143906604586 13684.492129306636,5360.722956117912 13692.367808879913,5353.838553873211 13697.114071635508,5347.52135704449 13684.164158035514,5326.254784182092 13679.351776737814,5320.942278562608 13628.414284826584,5333.442367342155 13624.289303351055,5334.1296744508145 13607.10168635552,5331.629659913393 13569.594705377684,5333.229004808323 13506.601793448885,5319.692413478013 13504.164145519935,5319.692413478013 13499.945374746669,5333.692164721811 13499.445553519974,5335.879712933762 13483.22670423994,5340.629938816564 13479.351633377817,5344.348618563061 13471.914316826595,5357.379712871305 13470.945549111093,5358.661046849185 13474.976741288883,5366.223416491266 13474.726830675478,5367.5674153915315 13459.351793804417,5391.160927898105 13458.164281484416,5391.629911271128 13458.320402799967,5335.848524712288 13458.108939973266,5334.5800092032005 13430.185069822219,5318.25833276732 13416.874562586636,5310.401485961134 13365.664149644414,5299.379724319879 13364.132937413386,5299.473581238271 13331.00783903103,5315.723331638583 13326.767222924369,5314.469675833272 13328.695437679977,5298.4735094362695 13328.361058444461,5297.344602695579 13291.61662523551,5282.612241113529 13286.093542426686,5281.6258651391545 13237.03183647115,5251.99221735794 13232.38897495994,5249.926467853336 13212.89186932447,5258.200536393182 13207.055961342157,5256.293357115152 13180.117461359921,5229.723636770941 13179.407342391067,5229.032232495694 13169.632866444394,5231.739260327158 13168.304961448863,5232.723607167805 13165.411765502162,5242.401499906526 13163.398499582174,5241.692317062378 13150.356835582155,5232.261602533894 13147.6416062844,5230.157367558655 13137.977813360027,5210.654305089003 13133.18582103993,5208.373126922961 13129.304924755568,5212.915660946834 13127.945562479996,5215.067416612088 13110.346088133265,5213.887769605586 13107.101619226603,5214.129703660699 13100.5451065155,5230.975567925518 13099.136810693286,5233.22933458144 13083.704975955632,5233.500707595929 13080.320405644343,5234.129733272217 13077.34856649777,5226.934991620801 13075.891628399935,5222.371485256212 13082.261145057717,5204.942029825383 13081.28917335996,5202.848566647823 13071.489648097755,5196.952060703974 13068.84141115551,5194.613452162099 13061.554099226581,5172.483909030998 13056.843954088843,5167.341737715207 13036.601776951087,5159.911069243419 13034.19558630218,5158.629676976736 13026.6641891822,5162.457820666052 13026.367966462254,5162.297209512937 13028.913967244422,5142.115248143295 13027.012258160023,5136.801351700415 13008.037110355544,5131.4950274734 12980.04974310226,5125.101137071237 12959.293472453348,5107.229382957652 12955.664234408854,5105.0985609441705 12926.476830177686,5099.254681373917 12916.726821004391,5094.62982567228 12866.820428826592,4959.4110472363245 12865.771852826678,4954.828306295996 12875.726625591029,4934.036107438995 12876.89811799999,4929.128017469164 12879.414117857792,4849.254790882493 12876.914137911146,4844.379832569481 12839.237345875568,4792.791730997415 12829.494035937802,4788.978407892078 12827.74087512002,4807.942374464561 12826.812011546666,4811.139709255978 12810.506946017711,4823.917945870227 12809.153700435512,4825.908693240461 12766.301894568816,4775.637433459138 12733.904391422147,4730.019971345289 12662.50714285332,4671.047263163287 12252.586744631037,4498.388798981003 12186.204310782232,4602.19141832614 12167.949767706661,4642.103115245089 12131.872345342163,4768.466393810901 12123.244603760053,4826.048911315709 12120.163246675605,4878.443202267139 12121.81475387558,4930.90154188787 12161.419469395514,5153.012650411081 12171.693766568882,5206.899950403225 12127.84989129773,5305.030956570263 12113.176526533302,5355.298273061897 12088.893836542244,5502.1334447285335 12087.977206355521,5549.479242848087 12094.073801982195,5622.4468925295805 12109.054166497757,5693.732567830739 12155.707060364402,5815.528913626418 12171.781147902228,5874.968842815229 12135.42002747555,5920.186859282927 12104.922194515566,5967.216916871053 12065.895360880044,6044.776725248696 12036.110850871053,6120.919558732858 11961.352333680006,6204.222446367348 11937.71743063999,6238.686883815011 11895.293210764394,6272.230490457994 11822.820589253308,6344.012960178283 11766.202145591124,6410.296930107317 11717.36996127104,6481.626134870661 11661.694653466671,6605.891584127472 11650.077887742176,6648.371049729962 11618.338366035467,6899.924281726155 11608.710690728833,6920.261118795985 11575.588796328848,6960.243708326801 11556.197713377747,6987.68137371607 11466.417762444333,7056.805739336909 11411.468593519974,7109.366235029331 11329.074404151157,7210.416271884373 11298.249182462205,7254.56387162811 11271.606031386742,7299.603629525431 11248.111521022256,7347.409604745189 11214.697481697753,7448.449760589952 11206.21770583999,7494.53504188449 11156.15373599108,7545.730439361214 11116.9972867111,7596.543775031547 11083.674706515601,7651.359943433985 11036.077220435582,7770.2920366417675 11031.121825022252,7792.966549093515 10965.633302213253,7871.627849652112 10922.77188439991,7941.186196780676 10889.797664453254,8016.337042445637 10867.729508719967,8095.379704460065 10856.780918924349,8180.457131952484 10857.52278644438,8261.36180728642 10862.110597715458,8301.579034987517 10869.484417164444,8341.379761524353 10879.608709715518,8380.570845584472 10907.898707653258,8456.369599204016 10931.801288844414,8502.817007961188 10918.293008524437,8514.884741124493 10863.389569164465,8581.61210247528 10819.273646675494,8655.040447708074 10793.6117879733,8710.082122733089 10785.676397822193,8736.405389939988 10762.822392631184,8822.327810949733 10741.026866657754,9006.746471779858" stroke="#009edd" stroke-width="6.436215258554853px" fill="none" stroke-linejoin="round" vector-effect="non-scaling-stroke"></polygon></svg>