<svg viewBox="0 0 407.87523020438607 333.22283578089196" width="1000" xmlns="http://www.w3.org/2000/svg"><polygon points="8.052550000000338,221.93202067298228 43.04790018659696,225.9481547060783 44.10171906659525,226.15344886793866 50.43803081775695,244.17662214718405 51.4006818400012,244.99727798443166 76.40892816891574,244.10443676941907 78.25646082670573,244.1193250055436 100.45539728887525,266.5186554139142 100.36481197327521,267.3965184115001 125.04130050665844,245.82424691189192 127.71546057772503,245.91989177963808 129.76367903114442,267.4971160529309 129.95533542216435,268.1719761633209 196.90662175112084,323.5155921506008 198.5738575911164,325.17028578089196 202.66621670229506,301.3507803315075 202.8284547111034,298.54123083109846 216.48732219552767,290.95495103856194 216.54033353771229,290.8751130533416 213.1589672087939,282.7048717088543 212.93206701332383,282.2984491454914 252.5999883643599,268.16881840021927 252.91601751998678,267.84943298818655 249.10764774223935,248.72289943122416 249.9322362578023,248.1174564318277 264.09121623993997,260.1272012506157 264.4226827644525,260.58013089243434 284.63806295998074,259.81953336889967 285.06361005325016,260.0171265743917 297.05407661325444,280.17475491305925 296.7537760977648,281.23119162422483 315.59872571551386,285.41358436141275 316.70817737779726,285.8412015422142 337.0837566844202,274.0588693658134 346.9097876177184,272.0758386078302 345.4231398666525,263.8760229063115 344.9396298222491,261.2518544994888 372.04124162669905,269.43733325342293 372.628152915604,269.5022925640584 391.29309698669385,237.5210300634859 393.15868845335353,235.88056150507293 380.7531605598997,206.54540671452526 379.3451560089379,204.75534522700002 399.411696666597,174.9389859774161 399.8226802043864,173.51286853067688 336.27547935114853,166.32933730816114 334.97233240001515,166.03236900605373 310.83294779560674,144.56247704823147 310.3628362222589,144.40269403809327 312.2887208089014,130.79949554961752 312.40522925332334,130.5941117710678 287.0792061422035,137.63257149162348 285.85586747559864,137.45382549745375 276.9930701066987,117.27580281146913 276.2290659822538,116.32420600057924 255.67581129770406,107.4300964676437 254.32081808881048,107.53618507713657 259.6059324000744,93.93294785739965 260.3032354400275,92.35505836128834 254.42451060444728,70.76188355565648 254.42305424888764,70.59707986334217 294.7011885777829,50.465260550823245 294.743422888896,50.059760409967225 284.7679698754582,37.72370696141263 282.7549952267218,35.689758181724414 269.2251608444858,36.16437803061092 267.57714889778435,37.054456811958175 262.10474726229586,20.40021528155887 260.64373136891663,17.386528029200804 248.74006359998748,16.953868779913705 243.64922711996041,15.355551239662987 234.92536607114744,29.40625412759948 235.4117888266701,31.49580798982754 224.13784920002945,33.11432916144952 223.86667579549976,33.12742540552392 180.2651380889365,8.352894693590883 179.1137433866752,8.30998833405431 125.40043778668769,36.253792501323574 124.23564461337082,39.44333626671107 43.90714996445604,34.599167275278546 42.415259333305585,36.156249440544 54.15523273775034,47.252396357223574 54.54349712885596,49.49756798925921 48.888177235588955,53.94133220377955 48.51564148450416,54.26644909251593 51.793606568804535,81.51133087857272 52.213036968816596,83.01796307371808 40.25111497773469,86.92739263000078 39.04496130671032,88.07641480453424 50.20472265777789,96.63632688610926 50.438904631162586,97.1518973775452 38.92961794659641,107.41068450370915 38.950298195566575,107.56327152238339 55.899655422173964,129.67733039576672 56.159760524380545,130.959739902151 40.94288386670087,138.11644880296774 40.82841431999259,139.2087798372155 56.93949328884628,155.88330234887655 58.56595117328834,158.02851502542728 30.748103706726397,204.1145835806161 30.243039599947224,205.54411120873522 8.052550000000338,221.93202067298228" stroke="#009edd" stroke-width="5.978804465089983px" fill="none" stroke-linejoin="round" vector-effect="non-scaling-stroke"></polygon></svg>