<svg width="9748.393281422206" height="1624.7810446333606" xmlns="http://www.w3.org/2000/svg"><polygon points="9223.18220316444,319.74250291800126 9240.19884401781,341.0622955643339 9240.623808568926,341.7637976005208 9285.845104924403,367.555509076803 9290.1564999111,368.99079707084456 9295.14218751993,369.2459383599926 9296.009301617742,367.9368710645358 9293.488641422242,351.864997046534 9299.320471608895,350.047302469844 9341.329338880023,356.1828627180075 9343.409888426657,356.75042715203017 9342.338884551078,351.2347564417869 9341.079428266734,348.61143930017715 9344.971392853302,337.36765097483294 9347.60943530663,335.78562970482744 9343.259592533344,325.10747572785476 9342.298689137795,324.88880347064696 9347.631863182178,321.394526390126 9351.262848853366,322.82515780988615 9348.65218588442,314.40896092751063 9349.20356209774,310.93300322967116 9344.131075697718,308.1833999294322 9337.638642631122,305.21777557907626 9338.723627520027,293.25341525906697 9340.216100693331,288.9113083635457 9344.424676977796,288.1469551442424 9348.065565866651,286.4238812404219 9329.38838840893,279.15895288210595 9326.035857919953,277.56613805668894 9329.6554840178,273.23048421018757 9330.797558044433,269.44404506101273 9342.290242275572,268.5727398711024 9344.96148963552,268.3900900508743 9330.037922986667,253.2485656972276 9326.962100053323,251.84183403244242 9354.05089592887,247.89761505561182 9354.542561564478,239.54483678814722 9336.4153039644,233.39247024047654 9336.409769813297,232.32932014390826 9317.246169600054,235.67527102702297 9316.148951324401,235.10152843699325 9307.338874026667,218.11499823036138 9307.430624426692,216.50189034407958 9281.953140337835,200.2312092059292 9279.050041173352,200.98143388004974 9269.873253546655,214.02356325183064 9269.292458951124,214.30189152131788 9265.61486990226,230.1800000591902 9265.626812017756,230.60715937486384 9243.766915128916,248.6905237971805 9243.175343502196,248.9182928414084 9248.926491591148,257.33836446295027 9250.186530417763,258.0496063930914 9242.906791537767,263.61543431383325 9242.714552604477,265.30215752043296 9255.615241386695,280.5492741165217 9255.231054791133,282.40813287027413 9238.47743175109,291.45327090867795 9237.08748600888,292.7375437441515 9240.116996835568,307.8492788380827 9240.109423786635,309.5207809935091 9223.18220316444,319.74250291800126" stroke="red" stroke-width="3.5094045886857517" fill="none" stroke-linejoin="round" vector-effect="non-scaling-stroke"></polygon><polygon points="9373.424793884391,91.42406650306657 9438.671852942207,122.42077512457035 9438.928462791024,122.80888308677822 9439.360709119937,134.2194003671757 9439.107594524394,136.31009814306162 9428.036088319961,152.7881397329038 9426.808089315542,154.68508565297816 9430.096831431147,168.0444610438426 9430.47373624891,168.502874184167 9427.50859633775,172.24459036358166 9427.397330773296,172.69036151573528 9440.081896391115,180.8340975100873 9441.230960924411,180.91981943277642 9435.646128640044,185.366485266597 9435.533406720031,186.02201794023858 9446.06256611552,197.63179387163837 9446.503841848811,199.17466473812237 9457.213880604482,203.7495286160265 9457.62719431112,204.2755348313949 9436.51382528001,207.67785320372786 9433.399845831096,208.40459453500807 9433.922968746629,215.76795840251725 9432.557198506664,224.06796699296683 9450.22337393777,227.5484637496411 9452.536940373364,228.52142318699043 9452.479268693249,252.56842852989212 9451.665165937855,254.17540703731356 9458.700237084413,261.47769689618144 9458.710722844466,262.8974455129355 9473.909540693276,267.2400691587827 9473.771186915576,268.6981142272707 9475.621923555504,264.1728662038804 9479.448352142237,264.4804453274701 9478.721630719956,268.653466533171 9478.670367004466,269.05800136813195 9489.842070471146,274.1522800977109 9489.960909084417,274.2339066499844 9486.537017173367,279.1499335783301 9486.031079253298,279.8561439415207 9490.09227235557,289.3798397827195 9489.320986453327,293.6736873066984 9501.321064959979,306.3247603334021 9502.54032583104,306.0249055461609 9505.84450531553,326.54574759851675 9506.095289742225,326.6688343755668 9522.880661333329,324.3369368427666 9525.069272462279,324.5317134587094 9548.84573326225,340.0668440818554 9557.439978666604,345.6995609890437 9570.523876977735,319.227595670498 9601.718430435518,323.37793000176316 9602.390684159938,323.27197459200397 9597.252370488946,296.9167894964339 9597.089841208886,294.0073791296454 9609.82829198218,305.51267145446036 9612.356816497864,308.3808963667834 9632.768513422227,306.23773485107813 9642.656585102202,305.66553016909165 9642.905039360048,279.2937914298964 9699.501055146684,268.6769178483519 9699.820288284449,268.60791685595177 9739.211793351104,277.0123480766779 9740.744170666672,276.89960564498324 9742.293150435551,263.91309229598846 9743.393281422206,258.9182474883273 9725.342919395538,187.42827100638533 9725.312044657767,187.13862963265274 9719.35234645335,191.47148013173137 9718.61164401786,192.14233341498766 9711.686964622233,184.9306654840475 9710.836161706597,185.14361273276154 9708.204235946643,192.13872425688896 9707.286149404361,192.78250688733533 9706.344178631087,184.23226923745824 9706.227670186665,183.99405605369247 9694.728577991133,181.21713889349485 9693.373293511104,180.7023563843686 9694.208950328873,175.61447139515076 9693.69019648002,174.53976066235919 9681.409332622192,162.6413399989833 9680.024338488933,160.96465331304353 9670.121411982225,163.12503193714656 9667.996880497783,162.56147658161353 9670.971341084456,151.8319897216279 9670.912795591168,151.04549792589387 9657.416748657823,147.06336032703985 9657.119360853336,146.62701290578116 9659.61293283559,133.99963451345684 9659.369430186576,133.8313126731664 9653.654399715597,132.7654217624804 9653.062245546607,133.04295101424213 9656.432252302184,138.74824254534906 9655.71718172438,140.39712211687583 9648.202095786692,143.6952951758867 9647.596543146647,144.2945474347216 9634.819062044378,141.6980766095221 9634.294482773286,141.3104534483282 9642.31346773333,129.397587479325 9642.655420017778,128.76986400055466 9639.09259178664,117.04631155042443 9637.609439288848,112.71604676771676 9640.142332871095,102.77574487030506 9640.327290026587,102.0540681129205 9652.111536639975,101.10085538367275 9652.244647537824,100.49426329962444 9642.852610560018,97.11509934032802 9641.86869674665,95.79492291639326 9643.768949475605,86.52502870507305 9644.235565795563,85.94006162590813 9584.229056568933,92.17150539672002 9581.11070805334,92.47706995671615 9540.864904817776,86.89830549014732 9537.329747342155,85.7676404749509 9532.116576995584,55.08579307020409 9532.088032426662,53.1721820429666 9503.501229226706,63.131443423451856 9501.899238115526,63.66636506491341 9461.424787057796,56.53080883028451 9460.386696817703,56.64456786564551 9448.253216142184,39.18953730806243 9447.888544711052,39.08073525200598 9449.60063630226,26.420049588021357 9449.815885653254,25.717986026895232 9444.71252451546,22.157066835090518 9444.394456462236,21.901520002167672 9445.775372800068,15.61975976335816 9446.060235946672,13.901759659522213 9415.045688035549,5.5291941311443225 9413.03038321773,5 9397.040181759978,5.499393130536191 9396.466668942245,5.438888056145515 9394.535250204382,14.208788265124895 9393.876103679999,16.20310915634036 9384.442706204369,24.574814036139287 9383.6976347022,25.010502329096198 9389.405965937767,38.94394254870713 9389.153725155513,40.833299534861 9373.424793884391,91.42406650306657" stroke="red" stroke-width="3.7269649770718827" fill="none" stroke-linejoin="round" vector-effect="non-scaling-stroke"></polygon><polygon points="5,1553.10939542891 15.228858880000189,1556.0249971511075 15.401000106707215,1555.996303120046 17.878552177688107,1563.4507966086967 17.979914524476044,1563.8883653141675 14.115620693308301,1596.2243411869276 14.555148800020106,1597.2741685513174 17.408731875475496,1597.772633074259 20.32755967997946,1592.098946180311 71.76778552890755,1619.063901024172 73.67502876440994,1619.7810446333606 74.87535701331217,1615.9810532578267 75.2117751466576,1614.289457740495 83.45270869333763,1616.2585023649735 87.46496824885253,1617.6511212619953 86.60804863995872,1615.627405987936 85.7910331733292,1611.981533880171 88.40839537768625,1612.9869113464374 90.61768675560597,1613.825992359256 101.44889429328032,1598.3473003015388 101.53656689776108,1596.7263941821875 95.77726321783848,1590.0010300368303 94.40275484439917,1588.0021635062294 78.1212822755333,1589.6186512807617 77.03018069337122,1588.4455108939437 76.88483640889172,1556.084626922151 76.92619690671563,1555.6515261112363 64.84252359112725,1550.8133822572418 63.771810986683704,1550.281632762868 64.17667783109937,1540.2942771249218 64.10910293331835,1539.6463723658817 56.46644024888519,1531.4938184043858 56.304784782230854,1531.139586613106 33.45077959110495,1523.5315362169058 33.06018503115047,1523.2840134392027 29.478715448873118,1536.888384068152 27.482051982195117,1541.1179429054027 14.329996231128462,1537.4197176251328 13.479484586743638,1537.560509592644 11.052904960000888,1549.9529876167653 11.120771128917113,1550.2641468807124 5,1553.10939542891" stroke="red" stroke-width="3.7866862942872737" fill="none" stroke-linejoin="round" vector-effect="non-scaling-stroke"></polygon><polygon points="9525.637542399927,240.57547656539828 9570.95670584892,253.66214939876227 9571.391282346682,253.99680434027687 9578.047118506744,279.39706236845814 9578.456354417722,280.5339413973852 9589.33008753776,288.2069310392253 9590.724402346648,289.7320268389303 9586.22368113778,294.9142066320637 9585.972314168932,296.4036322038737 9589.626018986688,296.51997201202903 9590.45497656893,296.43249169690534 9587.745572693297,322.70522499643266 9587.57605290669,323.47982749633957 9601.718430435518,323.37793000176316 9602.390684159938,323.27197459200397 9597.252370488946,296.9167894964339 9597.089841208886,294.0073791296454 9609.82829198218,305.51267145446036 9612.356816497864,308.3808963667834 9632.768513422227,306.23773485107813 9642.656585102202,305.66553016909165 9642.905039360048,279.2937914298964 9699.501055146684,268.6769178483519 9699.820288284449,268.60791685595177 9739.211793351104,277.0123480766779 9740.744170666672,276.89960564498324 9742.293150435551,263.91309229598846 9743.393281422206,258.9182474883273 9725.342919395538,187.42827100638533 9725.312044657767,187.13862963265274 9719.35234645335,191.47148013173137 9718.61164401786,192.14233341498766 9711.686964622233,184.9306654840475 9710.836161706597,185.14361273276154 9708.204235946643,192.13872425688896 9707.286149404361,192.78250688733533 9706.344178631087,184.23226923745824 9706.227670186665,183.99405605369247 9694.728577991133,181.21713889349485 9693.373293511104,180.7023563843686 9694.208950328873,175.61447139515076 9693.69019648002,174.53976066235919 9681.409332622192,162.6413399989833 9680.024338488933,160.96465331304353 9670.121411982225,163.12503193714656 9667.996880497783,162.56147658161353 9670.358215395594,154.2920708550373 9670.971341084456,151.8319897216279 9667.524438755587,146.74523742240854 9667.100930560031,146.6030972515582 9636.59290311113,169.23561130126473 9634.978387342184,169.8384030481684 9588.559966720059,174.63676457689144 9587.173807502259,169.53700738254702 9532.175705031143,184.11541848478373 9532.096479288884,184.14203700149665 9536.951968711102,191.2540275832289 9538.517259662272,193.86840643844334 9533.540601457818,203.9119320422178 9533.441860551131,204.15869479510002 9543.72780856886,212.57327326002996 9544.343264426687,212.75461642310256 9545.516213191091,229.06721680250484 9545.847679715604,229.55482135090278 9525.637542399927,240.57547656539828" stroke="red" stroke-width="3.95102721454277" fill="none" stroke-linejoin="round" vector-effect="non-scaling-stroke"></polygon></svg>