<svg width="608.2248413866619" height="671.5374958056491" xmlns="http://www.w3.org/2000/svg"><polygon points="5,192.90180949564092 5.487005297793075,194.20193275704514 5.748858026694506,194.99096617865143 5.904396799975075,195.78180748259183 5.9900305066257715,196.74375998124015 6.219552142196335,201.06230854452588 6.387906844378449,202.9476857818663 6.627040426712483,204.39441317744786 6.988507875590585,205.6578021213063 7.484251306625083,206.87908622965915 8.189127395511605,208.07546725310385 8.787106986739673,208.86671375174774 8.982841173303314,209.05637710250448 9.96821134223137,210.04588298220187 12.404111644485965,212.25980690785218 15.219538204488344,214.77426490117796 15.86091719113756,214.60769144323422 21.009716622182168,214.813192375761 21.598084266646765,214.76611728942953 24.750511502265,214.95984931045678 28.583930595545098,215.07029459124897 30.81564984889701,215.083421280724 31.344306915649213,215.148149427725 31.6795599644538,214.81545560085215 32.799206115538254,214.54205784469377 33.54719032882713,214.25643829943147 34.09419747546781,213.80288636684418 34.52032711112406,212.72467828448862 34.62285454222001,211.9696578636067 35.18588160001673,210.40664864727296 35.553757013287395,209.4800636099535 36.1794073600322,209.2655045200372 37.73712526226882,209.57693199068308 39.23688021337148,209.79013280780055 40.3518660266418,209.84490410931176 41.717636266723275,209.69371717749164 42.973306026658975,209.54071951692458 45.291532800067216,209.22295480198227 46.48283164447639,209.02740705490578 48.45794104889501,208.57248627010267 49.277577955508605,208.44031010300387 51.76590705779381,208.27599509852007 52.569232782232575,208.13793418632122 54.44123221328482,207.6327663002885 56.39420501329005,207.08776307466906 57.581717333290726,206.88768679776695 59.377986275590956,206.83608338434715 59.63546993769705,206.86143243103288 60.80404963553883,206.99813616788015 60.7769614221761,207.2045495947823 61.85495580441784,207.31273550144397 62.559249351150356,207.5571720803273 64.37969379557762,208.32805082958657 65.30360575998202,208.8911572477664 65.72390997339971,209.1831210158416 66.05712412437424,209.30081172648352 67.19686798227485,209.90329663874581 67.80096426664386,210.15723606164102 67.81523655110504,210.21472319832537 67.6192110934062,211.98323739069747 69.33654556446709,212.84598827618174 69.7434513065964,213.08634481410263 71.83710805338342,214.7158736763522 74.47107271116693,216.602490767953 75.10633500444237,217.14203852723585 76.56938979553524,218.78556881728582 77.12921287107747,219.22960503189825 78.56197546666954,219.77322000230197 79.86716131551657,220.22223317727912 81.3989560889313,220.78168781509157 83.1762924088398,221.44434096571058 83.27736348449253,221.16144625365268 90.40476757334545,223.72332737664692 92.91057294222992,223.82562094484456 92.98106055113021,223.9242934564245 93.353013760061,225.3147563933162 94.08439552003983,229.38289585715393 94.3477046045009,230.19262216886273 94.84839964448474,230.9679470040719 95.84425557334907,231.89217767713126 97.05040924437344,233.0626228483161 98.37161500449292,234.08551255532075 99.33018823107705,234.85991834074957 99.70039381331299,235.33967741252854 99.67942229332402,235.62255372898653 98.51579420443159,236.8070094556315 97.85926912003197,237.42616449290654 97.20303530665115,237.99191134481225 96.62340579554439,238.45808564784238 97.13953820441384,238.8387184899766 99.4732023467077,239.5714687849395 101.94609407999087,241.8434768981533 102.49047978664748,242.15033195610158 102.59854136884678,242.55222996301018 102.36202922661323,242.87085127970204 101.21121706662234,244.35487823863514 102.3795054933289,245.00524002651218 102.04483498667832,245.54788557300344 101.72676693333779,246.0860039681429 101.21616867557168,247.04682938964106 100.65721941331867,248.1723882170627 100.22264291555621,249.29658351407852 99.85826275555883,250.17638448614161 99.66922780440655,250.73485712957336 99.5929147732677,250.9575216745725 99.51951445336454,251.2150338422507 98.91192291548941,253.9132361948723 98.47705514659174,255.33744997158647 97.66761272889562,257.79574687668355 96.85875285335351,259.9109823765466 95.72337806213181,262.7801393720438 95.15423431107774,263.34944079827983 92.61668039101642,266.3669850662118 91.72451697778888,267.31459758081473 89.28308252443094,269.75737341085915 88.45674638217315,270.8570208825404 88.10867740446702,272.1145944654709 87.89430186664686,276.29680032655597 87.62283719109837,281.9477643240243 87.24709745775908,285.57909207302146 87.01349802664481,290.0338906873949 86.81368604442105,292.4325210971292 86.2489113600459,295.39808049367275 85.49655807996169,302.11410445638467 85.49481045326684,303.3461599708535 85.50762638216838,304.45197250769706 85.51665578666143,304.9940176852979 85.57753144891467,308.0218445972423 85.83676273771562,309.8895566725405 85.97016490669921,310.32345357880695 86.01502065779641,311.47266540536657 86.03074929770082,312.67254467715975 86.37910954665858,314.70807137491647 86.27454321773257,316.19115710275946 86.31124337785877,317.4177039092174 86.34124430222437,318.8478370117955 86.52561891556252,318.6894867661176 86.61270897777285,318.67138958798023 87.32719701330643,319.1256283078692 89.40366876439657,319.6794001288945 89.55076067557093,319.50250095000956 90.14029340445995,318.3374963797396 90.39981596451253,318.14114159857854 91.85296753782313,317.6317041760776 92.5295903289225,317.1765574794845 93.00203207111917,316.7286487692618 93.92507022223435,315.7201721544843 94.3104219022207,315.409348677611 94.67101553780958,315.27678481844487 95.88823751115706,315.12929046398494 96.43844863993581,314.9980837457697 97.17623836442363,314.6474447150249 99.84690318221692,312.8842873928952 100.32546161778737,312.54631334508304 105.03094641771168,308.5172785014729 105.65426659549121,307.8010481202509 106.28020821325481,307.0621927100001 106.62099541339558,306.472644925816 107.57723847113084,304.3053757507587 108.89640533342026,299.5422849119641 109.24593066668604,298.84095658530714 109.6435157333035,298.3124702657806 110.26304938667454,297.5581986170728 111.52250567113515,296.52429472788936 112.23874133324716,296.32475297537167 114.74076017783955,294.4895032608183 115.91603911109269,293.8555783579359 118.39504753774963,292.0121631376096 120.27025095105637,291.1275535899913 121.41611150221433,290.1289133334067 122.46643512882292,290.7298174883472 122.7556673422223,290.9759705195902 122.98897550220136,291.3737061722204 123.41335751104634,292.19270449184114 123.59219797328115,292.89767406281317 124.00871566217393,294.04245291411644 125.925279573421,296.316608410154 126.37471089779865,297.13151589932386 126.73821724450681,297.9228917736327 129.50267136003822,297.10753476741957 137.00319374224637,295.23609339573886 138.87723207112867,294.88723250536714 141.1500205511693,294.3039865278406 145.86511729774065,292.8854570228723 146.67252081772313,292.78726819576696 150.96527445339598,292.3614811113803 151.6925784178311,291.7225726832985 153.38165959110484,290.68818863946944 157.08051143109333,288.3289058880764 159.85545130667742,286.74608163465746 161.71463480894454,285.5818070619134 163.30235363554675,284.49626135325525 167.6851100444328,280.8825633805245 168.5746520177927,281.71246124984464 169.6858513066545,282.7631780128577 171.50862591993064,284.3161661277991 172.50826837331988,284.91437130310806 173.3244100266602,285.362345359812 174.37094712886028,285.4442475878168 174.81193159113172,285.41890767525183 179.51071715552825,284.1962533951737 180.1305420800345,284.10168066527694 181.04513336892705,284.12385322293267 182.20817891554907,284.4623238220811 183.54598712886218,284.6759039298631 185.02884835551959,284.6718314298196 189.30063047108706,284.06548056640895 192.50024362665135,283.69488170859404 193.60299605329055,282.51701571117155 197.70438456896227,278.81187749898527 200.23436543997377,276.8144796108827 203.40397767105605,274.7089110093075 204.8026615466224,274.2265234210063 204.52420636441093,273.6663008488249 211.74073941342067,272.08110753353685 219.10582072881516,270.4117322040838 219.4276753066806,269.86733840755187 219.43990869331174,270.39272595976945 219.34437176887877,270.4221403847914 219.86166926217265,275.2641531880945 220.35304362664465,282.7066150085884 220.30207118217368,283.2957745420281 219.91846712888218,284.3238586404477 219.61088483559433,284.5835939090466 219.35864405333996,284.6469439276261 218.9424176355824,284.78269390540663 218.50201571546495,284.8691213472048 218.04588515555952,284.92025379661936 217.77150776889175,285.0107536778087 217.6238333155634,285.13428595499136 217.47790648892988,285.49764239392243 217.44237141334452,285.9352078126976 217.4569349689409,286.3483375418 217.7071368532488,288.0746049959562 217.79393564444035,289.1429382446804 217.90840519114863,289.9474652924109 218.9054262044374,294.1324965292588 219.032420408912,294.86144121119287 219.09737386659253,295.4994354881346 219.29106915555894,299.3508903730544 219.40029582229909,304.0805033734068 219.26835000887513,304.88633269048296 218.64706872880924,305.82065661018714 217.37654414214194,307.5273144726525 217.40013710223138,307.5784416097449 217.67218431993388,308.04944414109923 218.24773603549693,309.8370727337897 218.93484458664898,311.54731872008415 219.95021567994263,313.9647149719531 220.64344092446845,316.56441534502665 220.79606698674615,317.02589737961534 221.18695281783585,317.72716722951736 222.2064017066732,319.0193075767602 222.51398399996106,319.7929593726876 222.61330744891893,321.3321111005498 222.63369642663747,322.95133042661473 234.2050238577649,325.11569982150104 234.31745450664312,323.8109278662596 234.4068747377023,323.47297075076494 234.60697799106129,320.8131802061107 253.85242538666353,324.01361140049994 261.28449905780144,325.2573060169816 260.74069589341525,326.2621192234801 260.46107562666293,326.8669955400983 260.34311082668137,327.14160973904654 260.07455886225216,327.83741813816596 259.86222222226206,328.6350163228926 259.7122175999684,329.4606608322938 259.6038647466339,330.2799685407663 259.5275517156115,331.0847962528933 259.3938582756091,333.0939119425602 259.8779508622829,333.14865228219423 262.53754737775307,333.9769940916449 263.9196288000094,334.4284865548834 265.92357404436916,335.01388721505646 268.7742444089381,335.65040686074644 270.141762275598,335.87434190209024 272.14337735110894,336.22811355942395 273.8216814933112,336.4470716890064 274.7785070933169,336.4715008881176 275.6368830577703,336.4470716890064 276.40146972448565,336.37785560975317 278.0911334399134,336.0978243200807 278.67425820440985,336.03946557303425 279.3141808354994,335.9399389917962 279.9462391466368,335.8336264571408 280.9027734756237,335.5730474294396 281.59803761774674,335.4504485083162 281.787072568899,335.32106359436875 281.7116333511658,336.44616690371186 281.51298645325005,338.8877161247656 281.384827164351,338.926621449762 281.32948565331753,339.3161267047981 279.45690367999487,339.9254906733986 279.00921998219565,363.5726549170213 280.49149866669904,363.79837063665036 281.33385471999645,363.9521647806978 283.26731235557236,364.37328877917025 287.1033528888365,365.318213889841 288.2244553954806,365.6004693279974 289.6979959466262,365.9487647979986 291.7540787199978,366.4119516783394 298.1725289244205,367.8987568253651 297.15074986673426,371.2726406187867 296.9223933155881,372.1935629649088 296.45868970663287,373.7300833911868 295.52633088000584,376.352591634728 295.10864810668863,377.0989016017411 294.78155064885505,378.4228039699374 294.2065814755624,380.5418451888254 293.1967445332557,383.7934139815043 293.6062717156019,383.94448026426835 293.79821937775705,385.05485946149565 293.7411302400287,385.25070172327105 293.35869127104525,386.3986142630456 293.10848938662093,387.2036872237222 292.37827271106653,388.92734748800285 291.6349488355918,390.46148864750285 291.31717205327004,391.03136144788004 291.8883547022706,391.35519326489884 291.82777031103615,391.49223367951345 293.52209436451085,392.30135833326494 295.56011832889635,393.5062203385751 296.0581919288961,394.1810125184711 299.36732302221935,404.458671598346 301.27485752885696,410.12395348469727 301.40126919106115,410.1755088189384 301.46564010658767,410.3916792986565 303.3408435200108,415.87229820759967 306.0342274843715,423.7825254421914 309.36869916447904,421.74213754187804 309.99959239107557,423.21499925176613 310.1044499911368,424.390749083017 311.9499437510967,421.8000211495673 312.14072632894386,421.58521862199996 312.2846142577473,421.4726167914923 313.1112416711403,420.54783249046886 313.4202803199878,420.14490568381734 313.8117486933479,419.5375746466452 314.56526705785654,418.04524250433315 314.8247896177927,417.45689905714244 315.55325866665225,415.49740094621666 316.00793287111446,414.3121063315775 316.1882296889089,414.0403152432991 317.0445667555323,412.9205866565462 319.7344554667361,422.3815696683014 319.7868842666503,422.58868377417093 322.43249976891093,432.2237945039524 322.80270535114687,432.90570201992523 324.0508020622656,432.2604222163791 326.9760378311621,430.92554161086446 327.28332885331474,432.06371776224114 329.47106616885867,439.9964190549217 330.93091697781347,445.3641570006148 332.449022008921,450.8936345605762 333.9653794133337,449.67642902501393 336.96430677338503,447.1429738859879 346.8678158222465,438.8623539082473 353.90346951119136,433.0617084132973 356.07256547547877,431.22715660824906 356.1771318044048,430.78581278258935 356.26218296890147,430.78264740353916 356.37344853335526,430.7532545962604 356.57471687102225,430.73923648661 356.7255953066051,430.79350013146177 361.70749639102723,428.69936584786046 366.50910065777134,426.6658070140984 366.5889089421835,426.8914574616356 370.0142572087934,439.40813480032375 370.0162961066235,439.66587675199844 368.7157705955906,452.8808481733431 368.87567843555007,452.9197331739124 373.45242140442133,454.3444567277329 376.67504497780465,455.1533483151579 386.3877714489354,457.3955312866601 386.6041858844692,457.3082678915234 386.3000988444546,454.9910276614246 386.0723248355789,451.5718664970482 386.17368718225043,449.6994890740607 386.4780654932838,447.8289042300312 387.2598371555796,444.4222915522987 389.28883171558846,436.42961054231273 389.70272796449717,434.67693326901644 390.0009895822732,433.71557747456245 391.8607556265779,429.75073139416054 392.56708807114046,430.0577743977774 392.54407765332144,430.1188211879926 392.9632167821983,431.79511415213346 395.0533782755956,439.2417328171432 397.43102435558103,447.6570827246178 397.0083899733145,449.4046819882351 395.67436828440987,455.00504421285586 398.228233386646,458.0262682605535 398.3692086044466,458.2030551425414 399.9892585244961,463.02824179123854 402.2940868267324,469.84625840664376 402.11408128007315,469.9402985256165 402.1644711822737,470.07502901012776 408.7996270933654,465.8938240647549 410.7671634488506,463.7738031868357 412.5759570489172,461.83913617383223 414.6431081244955,453.68386724271113 417.8817516089184,440.85465104097966 418.97867861331906,436.4843249571277 420.23726108449046,431.5735385346343 419.97569962672424,431.37276369909523 419.3014070043573,430.1445964942686 418.49021696008276,427.5973484367132 417.80835128889885,425.8436957944068 416.9712381155696,424.4395877851057 415.74760817782953,423.0929017907474 412.31439559115097,419.61264320591 412.11953521776013,419.3408587210579 410.77094997337554,417.96926895854995 411.12921343999915,417.638241057517 411.6631133867195,417.336607273086 411.9060334933456,417.1918952644919 423.2597814043984,410.6847301508533 427.1648531911196,408.4334744574735 428.9893754310906,407.39240782213164 429.18860487116035,407.3123603556305 430.45476039114874,406.55665655457415 437.6069225243991,402.4732781612547 442.6392135111382,399.5896768348175 443.6860418844735,398.9768614162458 443.80255032889545,398.9262079613982 450.3276057600742,395.2049559146981 465.1538878577994,386.7138594785938 473.3639466667082,382.02267415460665 477.5096083910903,379.6413117238553 480.04512341332156,387.47505946224555 480.40280433779117,388.6912552312715 480.2292067555245,388.9219200826483 481.32933774217963,391.3506704774336 481.95265791995917,393.7594937875401 482.1591691377107,394.6025304350769 483.9137863111682,403.0001554018236 483.1352186311269,405.6987418853678 483.12968447990716,406.1125493294094 484.19078513770364,410.587951054913 484.14301667548716,411.171790649998 483.9021354665747,413.5455731919501 484.2490393599728,415.29525462840684 484.5458446221892,415.6990948484163 485.8274375110632,416.6071673271945 486.1256991288392,416.9282478271052 487.61729848885443,422.9255829368485 489.9396030578064,430.26940319745336 491.91675135993864,436.2292923612986 492.82114816003013,437.41130262601655 496.1882422043709,439.5795106231817 497.79168967111036,441.0337127157254 500.8442109155003,442.74564342945814 501.69122730672825,445.04764002084266 502.28076003550086,446.0030677339528 502.5726136888843,453.06396933615906 502.87932216888294,454.55244478955865 502.8892253866652,455.47120707295835 502.44416312896647,457.9692985442234 502.24988529772963,458.41194380569505 502.12434744881466,459.3406368700089 501.7908420267049,460.5464851113502 501.6370508800028,461.2084102217341 500.6720696889097,465.93496736709494 499.76942051562946,469.58900422014995 499.2562008177629,471.17773612367455 498.57404387556016,473.39714900334366 497.9842198755359,475.80009349575266 497.7640189154772,476.58584834297653 497.9128584533464,476.6997780399397 498.62996792886406,477.5361648668768 498.6975428266451,478.3133235910791 498.52074126224034,479.1207700376399 497.87324558221735,480.89343453914626 497.18730211560614,481.7501494056778 496.8106885688612,482.1416601984529 495.6689058133634,483.23616874578875 494.9165525332792,484.4274181952933 494.4438195199473,485.79226108884905 494.26294015999883,486.54045719769783 493.6509795555612,490.00834656658117 493.48845027550124,491.8424042190891 493.76777927111834,495.1886042704573 493.8904044087976,495.90467175858794 494.4968308622483,497.6053226257791 496.02920817770064,501.50429273140617 498.6206472533522,507.9856960705947 499.05405866657384,508.7378844101913 499.692233671085,509.46204405196477 500.84945379558485,510.67665598355234 503.78546659555286,513.5298599502421 505.4704699732829,515.153529710602 505.53920995548833,515.2213330290979 505.0239513600245,515.391293254972 503.9651808711933,516.0263828212628 502.47299896890763,516.6262130490504 501.6108364800457,517.1772236894467 501.0871310221264,517.5962439753348 503.664006542298,523.6387253755238 502.64193621336017,523.9921927016694 503.627015111153,526.8492905707099 505.37172906659544,530.4209493022645 506.7453636266291,534.3035137869883 506.9760503467405,536.1019448719453 508.2503614576999,538.9656638085726 509.92779178661294,540.4295990475221 512.4041787732858,542.5985915580532 513.0758499555523,543.233601956279 513.6665477688657,544.6152516496368 513.6726644622395,544.794228202547 513.6892669155495,545.5946493241354 513.2273109334055,545.5336348303827 511.0392823467264,545.0649525580811 507.29091441771016,544.3246404189267 501.58025301329326,543.6430809913436 500.4274019554723,544.1280369563028 500.1652579555521,544.2342480443185 496.90185642661527,543.1780103723868 494.1085664711427,542.675877619884 492.2158867911203,542.649663637043 491.9636460088659,542.7911287138704 490.9307986488566,543.754715870833 490.69807303114794,543.8338093744824 490.19592163560446,543.9305293913931 487.3586497422075,545.315338391054 484.64196408889256,544.8294811426895 484.2336019910872,546.231006878952 484.06874254217837,546.9898427593871 483.24415402673185,547.9525074710255 482.9336590222083,548.4930441050092 482.69685560883954,549.5230428981595 482.5984059732873,550.3785844923696 483.6003785955254,550.7668085470796 483.86223132442683,553.230817529955 486.19473038229626,554.0303038292332 487.33389169781003,555.0263810228789 489.14821944886353,556.1856030678609 491.7947087645298,556.9195478773909 490.9680813511368,557.5558724143775 490.1743675733451,558.798236493778 489.9483411910478,559.3170535941608 489.79309368890245,559.9524672826519 489.47269546659663,560.7645829383982 489.6678471111227,560.7962178778253 491.5503323022276,561.3547997660935 491.70121073781047,562.371632058057 491.4568342755083,563.6894396606367 492.00908430223353,564.3216771779698 492.3399682843592,565.1138921539532 492.7486216534162,565.6932512002531 493.33931946661323,566.4194814676885 494.5233365333406,566.7200054204441 496.75884231110103,567.3612724413397 497.73576561780646,568.0111239203252 499.21513159107417,568.6257243733853 500.7282850133488,569.0812506513321 501.75414186669514,569.2466498384601 503.2914707910968,569.7283855545102 503.672162133269,569.860342994798 504.19178979552817,570.8088977262378 505.8281508978689,571.9034135946422 505.88232732436154,572.0760411124211 505.5339670755202,571.9413735840935 501.72821873775683,571.3340129607823 500.23545429331716,570.7641589344712 499.54601557331625,571.0502158997115 499.07299128884915,571.0330434541684 498.5268579554977,571.128395700187 498.05965909326915,570.7637070274213 497.0739976533223,570.4564100272255 496.4107733333949,570.2937232048134 495.8139588267077,570.2236774523626 495.566378382151,569.9773873699596 494.6121742222458,569.9367155864602 494.15516984881833,569.843170455657 493.233296782244,569.6090814986965 492.9994060799945,569.7225107351551 492.5001673955703,569.4888735583518 491.68926862219814,569.546266079531 491.24566272005904,569.6768679020461 490.6444791466929,569.5444584413199 490.0194113422185,569.8449780914234 489.5944467911031,569.8219307344407 488.890735786641,569.5846783884335 488.38567167997826,569.5693134656176 487.37554346665274,569.3749922906864 486.7860107377637,569.0369634160306 486.31123882660177,568.7391541207326 485.57228401780594,568.5118426553672 485.4400469333632,568.4797569224611 483.0527889066143,568.0644496164168 482.92375580442604,568.017902611231 482.95783452445175,569.1987473545596 483.05803178669885,569.7780955584021 482.8896770844003,571.0122557552531 482.5806384355528,572.0267835361883 483.309981297818,572.3652596844477 483.4279460977996,573.2392397279618 484.3527318754932,573.3996648470638 484.56390343105886,573.8705457831966 484.0780632176902,575.0088804337429 484.0166050133994,575.6749774322961 484.05301390227396,575.8109983469476 483.97145799105056,576.1585065446561 483.46785023994744,576.9908971430268 482.9228819911368,577.0817278468166 482.7163707733853,577.590107954049 482.8521031111013,578.0325106571545 482.3752923022257,578.5788473850116 481.8486741333036,578.7709009140963 480.3334818133153,580.6692844723584 480.3972701866878,581.141053497442 478.46206492441706,583.7583589179558 477.40329443558585,585.5970514342189 477.0397880888777,585.933247162262 476.6261831111042,586.888510154793 476.51695644448046,587.7294454031507 475.9606286222115,589.610128199798 475.7625642666826,590.8554729077732 475.41303893341683,592.4600411916617 475.08186368003953,593.8314384166151 474.88875093334354,594.6664727702737 474.5663138133241,595.1748119247495 474.95661710225977,595.7522837679135 474.6903953066794,596.5678810691461 474.37436615116894,596.9709341228008 472.6270307555096,598.6766717109713 472.1499286754988,598.8171967829112 471.88283306662925,599.5577759728767 471.5018504533218,600.828367241309 471.59127068449743,601.9936718638637 471.69205048889853,603.1526445061318 471.7762278399896,604.2081401631003 472.2207075555343,604.1679265950806 472.3284778665984,603.3894085306674 472.5588733155746,603.2027987388428 473.17957205337007,604.0798181896098 472.67305159114767,604.6979317909572 472.53906688001007,605.3106216158485 472.94830279110465,605.948160603526 473.31617820449173,605.8912294869078 473.71492835553363,606.0755778108723 473.9566833777353,605.9915366824716 474.2831982932985,606.5400626036571 474.4617474843981,607.5042720434722 474.65748167119455,608.1196649702615 475.0029292088002,608.5150156048476 474.9807926045032,609.1918542291969 475.2831320177065,609.735402018996 475.0734168178169,610.6761024771258 475.2178872888908,612.2547712740488 475.68013454217,612.8904827025835 475.8709171200171,613.8171632103622 476.51316991995554,614.1158146469388 476.98968945781235,615.3135790115921 476.7266716444865,616.9251965135336 476.64307683554944,616.9166120953159 476.06985528895166,616.8768526797066 475.80887637333944,618.4875550246215 475.6929504710715,618.944332685147 475.7780016355682,619.1535193658201 475.85081941331737,619.1358988972497 476.10626417782623,619.7986986219767 475.8007207821356,620.971130834776 475.7075140266679,623.1361605913262 473.6502661688719,624.0054194193217 472.75111224898137,625.9056686083786 472.1528413866181,626.7460017768899 471.441557333339,627.1413186809514 471.14970367995556,627.8885786220198 469.89723790227436,629.2791800950654 470.01782414224,629.7088280767784 469.68868778669275,630.5803196509369 469.13032106671017,631.4576809045393 468.65263644442894,632.2460380348493 468.743221760029,632.2912160076667 470.00559075560886,632.8116655800259 471.55515306664165,633.4717131230864 471.76108174212277,633.5792360792984 472.2052701866487,633.7956371626351 472.5929520356003,634.0310126277618 473.46181375999004,634.8360761195654 473.5841476266505,635.4120877388632 474.8537983999122,636.3115663730423 475.3078900622204,636.7100283504697 475.70168860442936,636.8826046274626 476.06956401770003,636.9530807642732 476.3724859734066,637.1206873825868 477.38843960885424,637.9221253370633 477.8014620443573,638.2672758384142 478.47633720887825,639.1464132630499 478.7839195022825,639.4743947666138 479.0848025600426,639.7693969926913 479.5321949867066,640.1655938422773 479.99560732441023,640.516613711603 480.50329287105706,640.7253279610304 481.7007084089564,641.1581157469191 481.9803286755923,641.700228673406 483.302990791155,642.1912914706627 484.23505834664684,642.6145894262008 486.63018069334794,643.8212325623026 487.0528150756145,643.9779917763663 487.53923783113714,644.104935034411 489.6160008533625,644.7464265262824 490.3165078755701,645.2067632732214 489.59153407998383,645.9991365193855 488.1998407111969,646.9744654319948 487.8360430933535,647.3259261028143 487.4562255644705,647.7794811966596 486.9779584000353,648.4611673094332 486.5588192711584,649.154144913773 486.1516222577775,649.8990707981866 485.9349165511085,650.4267062725266 485.8728758044308,650.8915484550525 485.8734583467012,651.1991839908296 485.9314212978352,651.6287888373481 486.0546289777849,652.7486486014677 485.99317077337764,653.5586121687666 485.94190705777146,654.0984356327099 485.8842353777727,656.0503719318658 485.75957134214696,656.7211907224264 485.73277440003585,657.4909358054865 485.7680182043696,659.2034281891538 486.13210709334817,660.4104313694988 486.03511381335557,661.751588379615 486.1227864178363,662.6017213627929 486.1591953067109,663.5512283586431 486.83843953779433,663.4861813888419 487.17864419554826,663.375059437356 489.2664755199803,663.007814536686 492.5517223821953,663.6216958873556 493.321843200014,665.818374176044 495.89871872006916,666.5374958056491 496.2872743821936,665.0482067388366 496.5718462577788,663.5973032838665 496.7911734044319,660.8558283128077 496.9636059021577,659.1388316482771 497.0361324088881,657.7371271753218 497.01661724445876,656.4596393987304 496.90913820441347,654.6725895007839 496.728258844465,653.3178369213128 496.59980828443076,652.7432277532062 496.0906663822243,651.1738865182269 495.8777472000802,650.2889248718857 496.92282794660423,649.9356619981118 496.8214655999327,648.5433851063135 496.82000924437307,647.2048574523069 497.1007945955498,646.1030392972752 497.35944334219676,644.5919266350684 497.4249793421477,644.1668254928663 497.4910978844855,643.8781537885079 498.3218030933058,643.6807364562992 499.97068885329645,643.3233970783767 500.1032172088744,642.0146535540116 500.2849703822285,641.2145859062439 500.51041422225535,640.4104494606145 501.3469448533142,640.5373947930057 502.3052268088795,640.6462695566588 503.545459200046,640.6336202092934 503.70594958227593,642.2902267120662 503.98673493333627,644.3100318149664 504.1291665066965,646.4251375946915 504.2118875022279,647.8382083809702 506.2388431644067,649.361495672958 507.02585770667065,649.9839985120343 507.0022647465812,649.8552516988129 506.74623744003475,648.0835071414476 506.6035145955393,646.8389406005153 506.5726398577681,645.5835249130614 506.6338067910401,643.7629560533678 506.09786794672254,641.8271732558496 505.8948519822443,640.7614689362235 505.7497989689,639.5981782912859 505.47687793779187,638.4881899436004 505.21881173329893,637.3759371067863 504.966570951161,635.9871942943428 504.6875332266791,634.6987366542453 504.49296412442345,633.4378298275406 506.5965240888763,633.5236674993066 507.3564504177775,633.9203274598112 507.90840917325113,634.4484533274081 509.05572607996874,634.503569896915 509.7142900621984,634.4543264051899 511.4986168888863,634.2831035353593 512.343303111149,634.0328197320341 512.5990391466767,634.7258431345108 512.7248682666104,635.6144820489571 513.1961449243827,636.520284642349 512.8996309333015,637.2919080270221 513.2669238044182,638.2117084516794 512.96079786669,638.9146574408514 512.471462400048,639.0402483457583 512.5501056000357,639.7856605035486 512.3007775289007,640.1786949801608 512.6535068444209,640.551851196331 512.3596142933238,640.8793788265903 512.5320467910497,641.3424342929502 512.2410669511883,641.7467599702068 512.7347714843927,642.7442440252635 512.7644811377395,644.188509737025 512.7953558755107,645.0500049414113 512.9596327822655,646.1504731577588 513.3525575111853,647.9095844759722 513.5602338132448,649.2413316404563 513.566933048889,652.1586788245477 515.6946685155854,652.0552306672325 517.4775389867136,651.3383200378157 518.0798876445042,649.605437490507 518.2974671644624,648.2542674418073 518.312904533348,647.7433413830586 518.3589253688697,646.8827603052487 518.236300231074,646.117947083083 517.8952217599144,643.4742838150123 517.835511182202,641.7779314158834 517.6598747022217,640.2080595965963 517.4912287289044,638.8839373522787 517.341515377746,637.473970992316 517.2203465955099,636.164740631124 517.2191815110855,635.3813671575626 517.1670439821901,633.5995660440531 517.1393732266733,632.3481402400066 517.1600534755271,630.9065068933414 517.2681150578428,629.2796318809851 517.3461757155601,628.30422391498 517.3913227377925,627.5669047650299 517.476082631154,626.7911808878416 519.4377935644006,627.2547180264955 520.6710354489041,626.8887677356834 521.977968924446,626.5743210699293 522.0630200888263,627.4774504341185 522.1838976000436,628.5662607582053 522.1888492088765,629.5226925670868 522.169042773312,630.2459998108679 522.1754507378209,631.6889928619494 522.05049543106,632.9580417987308 522.2689487644238,635.1767137628049 522.5022569244029,636.321053571417 522.2951631644974,638.6011316288495 522.3254553599982,640.1380362740019 522.5701230933191,640.9805734709371 522.7588667733362,643.1711549659958 522.8174122666242,643.435884505685 523.2342212266522,644.9067991046468 523.182957511046,646.7368451720104 523.1418882844737,649.198867643252 524.8749513955554,648.911106082669 526.6502488177503,648.5849457390723 528.3932151467307,648.4123787120916 529.890639928868,648.2465877486975 531.3970941154985,648.3075735400198 532.5819849955151,648.3897913947003 534.2830082845176,648.5221530408598 536.5525927821873,648.1286818371154 538.254489884479,647.8824796325061 539.8311404088745,647.9136502021574 540.3886333155679,647.9525004712632 541.0830236444017,648.0134863447747 542.5023877688218,648.2420702819945 542.786959644407,648.2420702819945 542.7639492267044,647.7334029333433 542.6188962133601,646.8990232861834 543.0948332088301,645.9011064617662 542.9098760533379,645.2176053439034 543.5672749511432,644.4487204978941 543.3039658666821,643.7625042974832 543.9791323022218,642.7916786154965 543.6135870578,642.4194297450595 544.1562251377618,641.4919671167154 543.9165090132738,641.088996252045 544.3301139911637,640.4009624399478 543.9875791644445,640.1678526592441 544.2762288355734,639.7644275863422 544.2121491910657,638.8925209068693 543.6668896711199,637.7816254348727 543.9470924800262,637.3244354165508 543.5206715733511,636.6490393193671 543.7490281243809,636.2044965340756 543.5629058844643,635.7156791336602 543.2727998577757,635.7007706376025 542.6672472177306,635.2499010915635 543.0823085510638,634.755660258932 542.143833031063,634.2203067235532 541.7442090666154,633.4816522221081 541.2172996266745,633.182123721228 540.5759206400253,632.4692171295173 540.2569787733955,631.633423800813 540.3536807822529,631.3067858627765 540.0064856177196,631.2891663750634 538.8073224533582,630.6142033899087 539.244229120086,630.2279284535907 538.7717873777729,629.3324908264331 539.0278146844357,628.3552759452723 538.8454789689276,627.592656762572 539.0173289244995,626.8797319183359 538.0552604444092,625.9919610343641 538.2792479288764,625.6779648702359 538.1679823644226,625.2519233095227 538.51779896894,625.1633716189535 538.23351836449,624.5769416588591 538.3747848533094,623.7487986701308 538.2769177600276,622.6116217551753 538.3019670755602,621.8914518252714 537.7817568711471,621.1717313224217 538.1513799111126,620.3020094067324 537.8327293155016,619.5154163683183 538.1691474489635,619.2768626064062 538.3584736710181,618.5300249957945 537.6055378488963,617.7985463596415 538.0433183287969,616.8289606468752 537.4255323022371,616.10967526678 536.7998819556087,615.7992793990998 536.6128859022865,615.3917429608991 536.7422102754936,614.9272770016687 536.9979463111376,614.4230501918355 537.0614434132585,614.0421684154426 537.9978800355457,613.6400505163474 538.2343921777792,613.070758741058 538.7988755911356,611.6466191626387 539.7425939911045,609.8745644940063 539.372970951139,608.8864186345018 539.6811357866973,606.8807444011327 540.1684323555091,605.8740597821306 540.8494242134038,604.7114868941717 543.7967965867138,601.7460620962083 545.8292863999959,599.2378677597735 547.1630168177653,596.8295041562524 547.9436233955203,595.0993518761825 548.7454927643994,592.7917077354505 549.221721031121,591.7049782840768 549.9391217777738,590.6774378514383 550.6696297244634,590.1144123265985 554.6582963200053,587.7357716098777 555.2370520178229,586.9332456418779 555.5842471822398,586.67748505692 556.9514737777645,585.094112503517 558.6105540266726,584.6350046152365 559.5531073422171,584.0769341790583 559.8499126044335,583.0303788100136 559.937293937779,582.2802539990516 559.7424335645046,581.1921165587846 559.2755259732949,579.2969007731881 559.9518574933754,576.8087837274652 559.9396241066279,574.7662109406083 561.4347187199164,572.7471179933054 561.0834457600722,569.0035220283316 562.5502870755736,567.2130445729126 563.497209457797,566.3855877628666 565.5063975822413,565.1116325602052 568.3119209244614,564.6877323730732 568.9926215111045,564.2918504313566 568.7526141154813,563.154815656133 569.1670929066604,562.8321425464237 569.68730311119,562.6915943060885 569.8646872177487,562.128948514699 569.7327414044412,561.5165893987869 569.850414933404,561.4243964384077 570.3394591289107,561.4781756700249 570.9686047288124,560.9159786781529 571.232205084525,560.5901387619087 570.8681161955465,560.2475769940647 571.268322702148,559.901851181814 571.5333794134203,560.3185298054013 571.9440716799581,560.3632707382785 572.0305792000145,560.1472487755818 571.9204787199851,559.9163129260996 572.0212585245026,559.7237908766838 572.365249706665,559.9782272580778 572.5062249244656,560.1901820277562 572.6734145422233,560.0568629536428 572.5254488177598,559.4051800697343 572.6943860622123,559.2022631572909 572.9952691199724,559.1995515714516 573.2355677866144,559.6103564441437 573.6226670932956,559.029173526098 573.861509404378,558.8768726144335 574.4356047644978,559.1109730816679 574.5655116799753,558.9279408844886 574.8334811022505,558.7855824027793 575.1136839110404,558.5071922146017 575.8223465244519,556.5141611787258 576.1677940621739,556.0097994188545 576.4051800176967,555.8904878643807 576.5907197155757,555.6902793138288 577.1193767822115,553.9168664376484 578.9307918222621,552.1551897369791 579.9519883377943,551.3371667323518 581.0477502577705,549.8064160005306 581.2996997688897,549.57592116046 583.5247197867138,548.2087653899798 584.1122136177728,547.6826906069182 584.9548609422054,546.7340353660984 585.7800320000388,543.7226264984347 586.4974327466916,543.0541721591726 588.1035016532987,540.5434954189695 590.8131967999507,539.3615916897543 592.0936246044002,538.1204728919547 592.1734328888124,536.6488385437988 592.6735453866422,536.0531311553204 594.4371919644764,535.1193407324026 594.9174980266253,534.6682633854216 594.7057439287892,532.8431533402181 594.3632091021864,531.6539761016611 594.7741926399758,531.3357763041859 595.7816994133173,529.9517825834337 596.710562986671,529.2398947399925 597.018436551094,528.7675615242915 597.6670973155415,528.3340988507261 598.3696432355791,527.9078672487522 599.2705447821645,528.0186061862623 599.3387022222159,527.7799524063012 599.2996718933573,527.5263824792346 599.4295788088348,526.4293840527534 599.3611300977645,525.4810884271865 599.2067564089084,524.1648581181653 599.3675380622735,523.7363583515398 598.0830324622802,523.5325042642071 597.544763448881,523.7679986583535 596.4615261866711,524.6046571093029 595.8912173511926,524.4776443365263 595.3861532444134,523.9831526236958 594.9349742933409,523.324581939145 594.7013748622267,521.674756467808 594.3233049599221,521.1436456143856 592.5366479645018,519.7207141661784 591.2372875377769,519.0390778986621 590.1892940800171,518.4627591015887 589.8866633955622,518.4388022872154 589.2720813511405,518.481291729724 588.2436030578101,518.1712090127985 586.3785941333044,517.7422454608604 584.9997166933026,517.1306658302783 583.3237427199492,516.8621669145068 580.8607542044483,516.0779131392483 579.7518850844353,515.3361466004862 578.539905991056,514.4027195550734 578.0071711288765,514.1120680909371 577.5967701333575,513.8987124929554 577.3678310400574,513.7816380402073 577.8091067733476,513.2676849697018 578.0916397511028,513.0366995104123 578.5704894578084,512.7840165067464 579.657804515562,512.2447475080844 580.0673316977918,510.9519429730717 580.245298346621,510.4723376648035 580.6061832533451,509.70975853392156 581.3241665422684,508.34551725850906 582.2052616532892,507.2701202618773 582.9488768000156,507.1119067215477 583.4495718399994,505.40274113370106 584.3105692444369,505.01579250383656 585.2059366400354,505.100324564497 585.3938065066468,504.0429933849955 587.481929102214,501.0730361600872 588.4477841067128,499.5523300865898 591.7904113777913,493.5964306395035 592.0679927467136,493.0082908774493 592.9907396266935,491.2009152623359 593.5479412622517,490.2194651538739 593.649594879942,490.0815825878526 593.7250340977916,490.0097027894808 594.1176675555762,489.5734506744193 594.5324376177741,489.5933419815847 594.855457280064,489.60102725884644 596.1926829511067,489.65030344191473 596.3205509688705,489.65663249220233 597.2735900444677,489.74930784956086 598.0070107022766,489.8831219547428 599.2950115555432,489.69867546402384 599.2245239466429,489.5635050202254 599.3002544355113,489.5232703234069 600.8853518222459,489.7569931213511 601.3141028977698,489.6136853619828 601.443135999958,488.92200936417794 600.9438973155338,488.5788830065867 600.4991263288539,488.3315966146765 599.5050180266844,488.0978722900618 598.3387684978079,488.36188582214527 598.1838122666813,488.45863042690326 597.1763054933399,488.64353004284203 597.1940730310744,488.42698500008555 597.0047468089033,488.17969843605533 596.8518294756068,487.898053616751 595.7645144177368,486.9378364444128 595.265858275583,486.8315974675352 594.9900245333556,486.3410891801468 594.9489553066669,485.498406930652 594.9687617422314,482.6918537397869 594.9282750578132,478.26178435469046 594.9265274311183,477.0659802342998 595.8615076977294,476.3213684600778 598.3049810489174,472.28043766482733 597.975553422235,471.3540602377034 597.6927291733446,470.3209797471063 597.6892339199549,469.4018278728472 597.8406948978081,469.2291191199329 597.7189435733017,468.03326549753547 597.8162281244295,466.9034151653759 598.0696339911083,464.5645747393137 599.0351977244718,462.38621598901227 599.9623136711307,460.7834038925357 600.2597014756175,460.2390328743495 600.2745563022327,459.57258344988804 600.0278496710816,459.1484782107873 600.0686276266351,458.9649100158131 599.1464632889256,458.83152908767806 598.7101391644683,458.7722988866735 598.3381859555375,458.6574555503321 597.7859359288123,458.45173209987115 595.9727732621832,457.79567646002397 595.7147070578067,457.8241613426944 595.6765505422372,457.5573980101617 595.6817934223218,457.4104519673856 595.6701425777283,456.9741346723167 595.6139272534056,455.4680420520017 595.6319860622752,453.87422211805824 596.5017215999542,453.50707669905387 596.3939512888901,453.2443774425192 596.2276354844216,453.0748209558078 596.2258878578432,452.55529906006996 596.2194798933342,452.2519049352268 596.1731677866774,451.6329072678345 595.9459763199557,451.1685448262142 595.771213653381,450.7484926523757 596.5261883733328,450.2723722567316 596.6910478222417,450.16973268112633 596.7163884089096,449.9658098567743 596.8628977778135,449.7569131073542 597.479809991084,449.8319712697994 597.6670973155415,449.55932011059485 597.8433163377922,449.1139439351973 597.3665055289166,449.0895273470669 597.2430065777153,448.80647558835335 596.9290163200349,448.02604663261445 596.9246472533559,447.5178167736158 597.073778062244,447.297613611212 597.5066069333116,447.27138816856313 598.1744915910531,447.2772662852658 598.7354797510197,446.8137989010429 599.0908305066405,445.6295787426643 598.6565452800132,444.8835031775525 598.2435228445102,444.5389510554378 598.5053755732952,443.2104759690701 598.3306129066041,442.73524346831255 598.3073112177663,441.57767947774846 596.2177322666394,422.12516394176055 598.5103271822445,404.7969555121963 596.3721059554955,387.1711225323961 596.1484097421635,386.6817470025271 595.9258786132559,385.9911014800891 595.8443227022653,385.67811667267233 595.2463431110373,380.98283837223426 595.1939143111231,380.6603480600752 594.3468979200115,372.23562857846264 594.3212660622085,371.86246559466235 594.5601083732909,370.10655556689017 594.6425380978035,370.1106264720438 595.1743991466938,369.3149892372312 595.7196586666396,368.6129805802484 597.6443781688577,366.3409357849159 598.3530407821527,365.4507473381818 597.5832112355856,365.5027655637823 598.1089555911021,364.05574959900696 596.7213400177425,363.1660041633877 601.5174101332668,356.378126693191 603.2248413866619,354.58545126160607 603.013378559961,354.5203121342929 601.2587613866199,353.4667745194165 599.6366725688567,352.9777757265838 598.4628499911632,353.08724641188746 596.3732710399199,352.7882375092013 594.7404051910853,351.83013965631835 594.1380565332947,351.33344704506453 594.2178648178233,350.13106625917135 592.1821710222866,349.14400529512204 591.1507800177205,349.80355431709904 589.3711135288468,349.73117592104245 588.1841837511165,349.76329383731354 587.6092145777075,349.5018267198466 586.9526894933078,348.73687527363654 585.967028053361,348.1727727546822 583.0248985600192,347.15222752152476 582.6844026311301,346.9685650620959 582.9136329955654,346.85456759569934 583.2421868088422,346.65416714327876 582.6846939022653,345.65849534841254 582.262933333288,346.04663146368694 581.647477475577,345.82542110502254 580.8354136177804,345.62185309204506 580.0818952532718,345.2934296305757 579.5896470755106,344.89624467358226 578.3840759467566,343.6228051111102 577.9020222577965,343.33464031352196 577.1951072710799,342.9740944968653 576.7817935644416,342.5692148579983 576.0559459555661,341.44640504481504 575.2328137955628,340.23085059656296 575.0720321421977,339.7662509587826 574.6062896355288,338.77642876142636 574.129187555518,337.8797943558311 573.5559660089202,337.13018344924785 572.6868130133953,336.28692464879714 572.1095136711374,335.8232213977608 570.636264391127,334.8872164172353 569.093401315622,334.1692630404141 568.2778422044357,333.92949232517276 567.6594736354891,333.89284809835954 566.3548703289125,333.95482660189737 565.1294927644776,334.2312414654298 564.3188852622407,334.26743323833216 562.7731094755,334.436629696982 562.2695017243968,334.6279934478225 560.7467363555916,334.77230784401763 559.5676708976971,334.719377496629 558.6303604622371,334.45608275732957 557.3770208710339,333.7897013526526 555.4793895821786,332.26918598951306 554.3751807999797,331.00381597102387 554.0789580800338,330.4333339156583 553.7789488355629,330.1342939551687 553.9741004799725,329.97052303142846 553.8599222043995,328.83679055736866 552.6904686933849,326.27478680742206 551.5609193245182,324.4302883425262 550.8749758576741,323.8697423040867 549.6889198933495,323.5263562469627 548.7256863288349,323.47342317027505 547.9194478932768,323.76070937223267 547.4458410666557,324.1466223675525 547.3045745777199,324.3737361441599 547.2978753421921,324.6854516794556 547.4665213155095,325.02385933243204 546.8906783288112,325.3011903464794 546.4983361422783,325.17587115545757 545.8135577599751,325.1410351220402 544.7798365866765,325.142844786169 544.4614772622008,324.56013213458937 544.1230202310253,324.257917195966 542.1749990399694,323.860241511371 541.8779025066178,324.0262791151181 541.1293357510585,324.30813557555666 540.0961971200304,325.02295449987287 539.1594692267245,325.98162253119517 538.3503180799307,327.13799044373445 538.1231266133254,327.82294100295985 538.3302203733474,328.7159974842216 538.4018730666721,329.32901032827795 538.3651729066623,329.39234735042555 538.3308029156178,329.8257530516712 538.0098221510416,331.04815154802054 537.8012720355764,331.49286403122824 537.5921393778408,331.7303754132008 536.8342519466532,332.6297495024046 535.3583812266588,333.96296976169106 534.5544729599496,334.5035844090744 533.2041400888702,335.1287956609158 532.525187128922,335.1554869841202 532.2111968711251,335.1161285911221 531.5753520355793,335.12200973078143 530.4947362133535,334.6284458442242 529.2294545066543,333.9267779382062 528.6422519466141,333.29387245548423 528.6646798222791,333.17579624720383 528.3445728711085,332.8776648467756 528.2202001067344,332.885355646722 527.3909512533573,331.90816947846906 526.9604525510222,331.45667179790325 527.0379306667019,331.1852298566955 526.9144317155005,330.45007290283684 526.9709383110749,330.2582530807704 527.3903687110869,328.9815611934755 527.6865914311493,328.37171423842665 528.3905937066302,327.2533554508118 528.646038471139,326.5950954736909 528.8094415643718,326.35712608578615 528.8644918045029,325.73460417764727 528.9102213688893,325.62738183815964 528.7389539555879,325.1622986755101 528.5772984889336,325.0053102634847 528.064078791067,324.84605965507217 527.7690211555455,324.64925831655273 526.7312221867032,324.4167158162454 524.883980799932,324.222628597985 522.5931335110217,324.65287765307585 521.9969015467213,325.01526342262514 520.4799616000382,326.5507589914487 519.7937268622918,327.3506239387789 519.286623857799,328.17401126155164 518.3434879999841,330.55276882310864 518.2156199822202,331.03819866420235 517.6333690311294,332.2583283588756 516.4406138310442,333.85710866132285 515.8606930489186,334.48413135297596 514.9493057422806,335.31473006517626 513.6779073422076,336.2738052533241 512.4702973155072,337.0378956277855 510.13954588444903,338.1684187494684 506.8778919822071,340.4832811434753 505.7996063288301,340.8935932550812 503.7904182043858,341.76850095711416 502.6439751110738,342.1005487733637 498.5449167643674,341.9906201926642 497.6364421688486,341.7816200221423 497.3422583466163,341.9060249096947 496.8386505956296,341.7413580615539 496.65078072890174,341.51607189769857 495.05432376882527,341.4065954046673 494.4487711288966,341.2980236217845 493.3666989511112,341.24509485810995 491.47664071107283,340.673282437725 490.731277937768,340.347565832024 489.0159823644208,339.2726975818514 488.52431672893,338.8637395837577 487.7547784532653,338.06617880414706 487.3507854222553,337.58483611705014 487.1722362310393,336.7831991337007 487.0898065066431,335.16679686593125 486.8034870044794,332.3076400939026 486.7254263466457,330.96174240484834 486.893489777809,328.6345639140345 486.57483918219805,327.21218598471023 486.4356115910923,326.82084946287796 485.8577297066804,325.9336666089948 484.08971406228375,324.40088120120345 483.8022294755792,324.1515989667969 483.1462869333336,323.9534397459938 482.81569422222674,323.68741749518085 482.44752753770445,323.86205118621 481.8865393777378,324.10454747860786 481.59060792892706,323.82857219927246 481.46361372445244,323.55485866748495 481.39312611555215,323.44899251515744 482.9741457066266,322.64187451906037 482.8666666666977,322.49664725305047 482.6505435021827,322.13878152146935 482.62229020439554,322.0917295990512 482.5567542044446,321.815299349837 482.43179889780004,321.33663534000516 482.45189660438336,319.8513224670314 482.52558819553815,314.37371966044884 482.56257962668315,307.4626137421583 482.601318684523,305.0836043211166 482.5995710577117,304.8189164272044 482.71229297772516,298.53146646457026 482.743458986748,296.8007570357295 482.7353033955442,296.6455581074115 482.73763356439304,296.3604985635029 482.8655015822733,287.727090129978 483.22988174215425,267.0123033004347 483.2913399466779,262.92495386622613 483.2697858844185,262.7579646440572 482.8410348088946,261.9415710505564 482.6540387555724,261.3890102375299 482.57685191114433,260.64275676140096 483.38221653329674,259.53355418285355 483.44513109338004,257.2467960132053 483.50571548438165,256.46658647229197 484.5953607111005,249.2861743250396 485.70714254223276,241.5538198099821 486.6992119466886,235.4428707351908 487.26427790219896,231.82745450088987 488.3236309333006,225.04454016906675 490.14436664886307,213.15107355394866 490.14378410670906,212.5531241139397 490.06543217774015,212.06199863099027 484.91022478218656,194.9588254582486 484.8330379377585,194.29428105038824 484.95799324451946,193.33548657072242 485.2140205510659,191.70715597236995 485.42723100446165,190.80855853820685 485.64772323553916,189.92082212126115 486.09802837332245,188.32008072070312 486.7405724443961,186.08010950451717 488.4238281955477,179.28400101413717 489.6264866134152,178.46820023399778 489.52891079115216,178.21694022230804 489.40570311108604,178.29842998756794 489.0206427022349,177.2286480332259 480.865925404476,175.7948694024235 481.9153752177954,173.9423066045274 482.8066648178501,171.8805649803253 483.39678008889314,169.8527592368191 483.8980576711474,166.53189797187224 483.9653412977932,164.83273834874853 483.0370602667099,157.9191545424983 481.76537059550174,147.47999717463972 481.6485708799446,146.61698755517136 481.60546275554225,146.34440982993692 481.6290557155153,144.84794299013447 481.77381745772436,143.7354343578918 483.2648342754692,136.7419401255902 483.3953237333335,135.8585115863243 485.43130880000535,128.9743478751625 485.7021909332834,125.92410887288861 485.9736556088319,123.68394921196159 486.2794902755413,121.82505657395814 486.72367872006726,119.90229735011235 486.3712406755658,119.29729941813275 484.0844711821992,120.15770016459282 480.143864320009,120.75907298538368 473.1143273244379,123.27503947541118 469.13789411552716,122.57178538781591 463.34159900434315,122.34400846471544 462.83828252449166,122.32408363302238 462.5688567466568,122.41963224095525 458.82660551113077,123.74825166998198 456.875380337704,123.87504519347567 454.47880163555965,123.97512145817745 452.0117353243986,124.07066934229806 449.8234154667007,123.92485691473121 443.94847715552896,123.4308147036354 441.44907975103706,123.09616952668875 436.4907716267044,122.40695280721411 428.66664704005234,121.65026098187082 426.3332741688937,121.44059665396344 425.0257581511978,121.28300864621997 423.24055751110427,121.13991139119025 422.7753975467058,121.10911829862744 421.66012046218384,121.04345654277131 421.1183561955113,121.03983382467413 420.68902257771697,121.07379680476151 420.2733787022298,121.1304017601069 419.48811178666074,121.38263326208107 419.49976263113786,121.19561065034941 417.52203178661875,123.79444074782077 416.4653001955012,125.16244811489014 415.26060287992004,126.15595751692308 414.4628113065846,127.32334791892208 413.94959160883445,128.28560256795026 412.34352270222735,129.9402178056771 411.93050026660785,130.35771862597903 411.4621363200713,130.67514550412307 410.9853255111957,130.90200808248483 410.1027740444988,130.83544363779947 408.67059399117716,129.51909360836726 411.62029653333593,125.07097619201522 412.60071509331465,122.91231823642738 413.60268771555275,120.3225344462553 415.013313706615,115.35526204231428 416.25063338666223,110.46893869357882 417.38717326230835,106.24686784064397 410.4188032000093,102.28829077794217 402.3136019911617,97.65257475536782 398.10648206225596,95.21828618750442 391.6859929600032,91.43704617395997 385.78396643558517,88.00855648925062 385.4769666844513,87.88717700197594 386.24097080889624,84.7059233491309 387.0227424710756,81.41320444480516 387.20653454225976,80.48471213009907 388.03723975119647,77.31557954277378 389.06164024886675,74.13190687668975 384.1426537245279,75.21895356260939 380.17379356443416,76.08722820749972 376.59378033783287,77.68109425611328 374.5840096711181,78.22008013742743 371.9981047466863,78.36275264754659 368.53518250666093,78.68704918032745 364.3126252088696,79.15945234429091 360.0781257955823,79.26589011616306 358.5702152532758,78.91441880795173 356.3233499021735,78.32651836809237 354.4688267377205,80.73291436547879 353.7823007289553,81.75923666637391 352.7031412621727,83.03828293608967 352.57323434669524,83.47127281950088 350.61327104002703,83.86078181222547 349.18458623997867,84.27972966106609 346.24799089785665,83.92600185470656 342.96187022223603,83.51611168088857 338.66503879101947,82.62431481620297 336.3905026844004,82.39694905927172 335.95592618663795,82.09530408331193 329.1474639644148,80.36559307365678 328.753956693341,80.26006168796448 324.305664284504,79.16534039261751 319.031327004428,78.50134871085174 316.7911608888535,77.8744952257257 314.8544992711395,76.71136924246093 312.39733617776074,74.88514021970332 310.49708344892133,73.76412152044941 304.6690397866769,70.82272221206222 301.589721599943,69.50510376377497 300.5137661155313,69.1001688898541 298.3027271111496,68.6997627489036 295.44448369776364,68.69387441786239 291.94719146669377,68.08918726240518 291.2746464711381,68.8388179061003 287.6462822400499,71.65523192682303 285.04843520000577,73.68938673543744 282.5423385599861,75.61753598868381 281.0903520710999,73.90000288200099 279.49709909339435,71.7825087030651 275.8783468088368,74.31036407966167 272.5246512355516,76.3988460159162 267.74168831994757,79.23418525338639 266.14697898668237,80.2446622538846 265.86648490675725,80.32800035411492 262.54016881773714,82.45809326029848 258.584998400067,84.85085618798621 255.4978158933809,87.48635246849153 252.58015317330137,89.6204515544814 250.53513870225288,88.82514882012038 249.27626495994627,89.31972238793969 248.10069475555792,90.62680427148007 247.61718471103813,91.0901235146448 246.479479751084,91.90126949513797 240.92610474664252,95.92434589436743 238.24611925333738,97.54388152022148 237.98310144001152,97.72865998779889 237.93970204447396,97.80338652944192 236.88267918222118,98.51804270641878 234.21172309329268,100.24489235098008 232.67293781333137,101.25753634190187 231.7164034844609,101.86711314838612 231.38056789326947,102.09219419793226 230.75433500448707,102.4911803562427 229.46575160883367,101.49167562893126 228.23542243556585,100.62576660444029 227.52792490669526,100.13438887579832 227.00684088887647,99.66927732306067 226.72518172452692,99.36312740494031 226.46362026664428,99.06150591105688 226.09254087111913,98.59276897739619 225.61223480897024,97.95917996414937 225.33843996445648,97.26309041172499 225.2868849777151,97.04751505714376 225.00901233777404,95.28531440417282 224.99561386660207,95.12589590903372 224.94609777780715,94.74138888844755 224.86687203554902,94.47780417860486 224.79055900441017,93.95788013911806 224.6309424355859,93.02310069761006 224.48414179554675,92.52400654391386 224.27879566221964,91.9216500085895 223.86082161776721,91.08287708240096 223.6479024356231,90.76493963273242 223.2756579555571,90.2884854922304 222.81282816000748,89.71873193001375 222.33543480897788,89.24906908988487 221.65793820447288,88.61364128318382 221.05063793773297,87.91571024578298 220.82344647112768,87.6104496344924 220.39877319114748,86.93244345358107 220.06293759995606,86.0723644415848 219.86807722668163,85.45957305899356 219.80894919112325,84.884371893364 219.8109880888369,84.4975822242559 219.79846343107056,83.37117795425002 219.67146922671236,82.57630533352494 219.42155861330684,81.83351576264249 219.05397447105497,81.08619443210773 218.81338453339413,80.7311026713578 218.4621115733171,80.15453025104944 217.83500487112906,79.22512672032462 217.43887615995482,78.34871186496457 216.95886136894114,77.14437169674784 216.73166990221944,76.51615551137365 216.56185884447768,76.14565658057109 216.1485451378394,75.28870553977322 215.87533283559605,74.65278409031453 215.39823075558525,73.61736955470406 215.19201080896892,73.22874813119415 214.86170936888084,72.74500860780245 214.22411690664012,71.90117950935382 213.65060408890713,71.13162988756085 213.31738993769977,70.79011023242492 212.923300124472,70.37385412008734 212.44881948444527,69.73067118600011 212.15754837333225,69.22382357879542 211.77685703116003,68.4800825965358 211.58694826660212,68.13357633911073 211.26421987556387,67.06823600258213 210.94731690664776,66.39152476761956 210.66478392889258,65.8239734970266 210.35924053331837,65.53725309926085 210.01088028447703,65.28948651172686 209.25503175111953,65.01046566636069 208.81608618667815,64.83471858687699 207.62857386667747,64.47869442950469 207.07399367110338,64.41482743911911 206.32863089779858,64.53214338596445 205.38840775110293,64.64764744183049 205.0560674133012,64.70879662316293 204.3698326755548,64.94841065700166 203.80680561775807,65.31304020306561 203.3457234489033,65.70167574321385 203.19484501332045,65.93540027970448 203.08212309330702,66.25880939944182 202.83017358230427,66.76702276058495 202.54210645332932,67.22133370127995 201.845094684395,67.89305990713183 201.34614727110602,68.12497029436054 200.8754531556042,68.23956654698122 200.31504753779154,68.39628701622132 199.93523000890855,68.53670121380128 199.32822101330385,68.73418683512136 197.9624507733388,69.0775215033209 197.55962282663677,69.13776354631409 197.0804818489123,69.18758777983021 196.68697457783855,69.1481813415885 196.45978311111685,69.09563941275701 196.06947982218117,68.93620175821707 195.78607303113677,68.74052811367437 195.50266623997595,68.4560762984911 195.03022449777927,67.95239637733903 194.91837639105506,67.76623380969977 194.70254449779168,67.21136876568198 194.67603882669937,66.90064372378401 194.75322567112744,66.35075896343915 194.8601221689023,66.04999768373091 195.24197859561536,65.25687370408559 195.60665002663154,64.38719703315292 195.7575284622144,63.64932801097166 195.77354837337043,63.358528115204535 195.73247914668173,62.74567285843659 195.5970380799845,62.11062072979985 195.40625550213736,61.726961378590204 195.2361531732604,61.41577555285767 194.85837454220746,60.985459632240236 194.08796245336998,60.11576591414632 193.395902293385,59.41230798745528 192.33276273775846,58.29936315200757 192.10061966220383,57.9741303359624 190.54785336891655,56.380120141780935 189.98832156439312,55.931222299463116 189.51587982219644,55.65354839828797 189.19897685328033,55.54574016504921 188.7923623821698,55.45695687411353 188.61381319107022,55.467375323409215 187.69368775107432,55.5964734578738 187.39775630214717,55.74504946183879 187.0820184177719,55.95251212711446 186.62093624891713,56.59392383444356 186.31917937775142,57.21313800639473 186.07888071110938,58.117269072448835 185.85052416007966,58.624142513028346 185.5318735644687,58.90724825579673 185.42293816886377,58.9865177978063 185.0070030222414,59.1156138475053 184.6641769245034,59.03272060339805 184.11542215105146,58.77588723687222 183.4682177421637,58.38814528478542 181.48582655994687,57.28380169183947 181.18989511113614,57.09491217392497 180.6152172088623,56.68633045023307 180.3612288000295,56.38736772804987 180.2353996799793,56.029517869697884 180.27734271995723,55.58967882115394 180.54938993777614,55.11994242016226 181.08969784888905,54.33719716122141 181.75000945781358,53.26997745153494 182.10710784001276,52.65935873036506 182.30371583998203,52.203205497935414 182.56032568891533,51.39281770796515 182.63110456895083,50.95251631480642 182.6264442310203,50.365446406649426 182.5003238399513,49.709067761607 182.30458965338767,49.096174115431495 181.7805929244496,48.158937260799576 181.39494997332804,47.82553545507835 180.8051259733038,47.44592788658338 180.21151544887107,46.888293135212734 179.90509824000765,46.48739318357548 179.68081948440522,46.23190401599277 179.45916216890328,45.92069606145378 179.18332842667587,45.51209338521585 178.88856206217315,44.934521776332986 178.7673932800535,43.94471902807709 178.80554979550652,43.651627832092345 178.81399665772915,43.08175232238136 178.95147662225645,42.524559405399486 179.12245276442263,41.889448342844844 179.20255231996998,41.47812007641187 179.22061112883966,40.89872574969195 179.10148124443367,40.250019718310796 178.64884593780152,38.81624569569249 178.35116686217953,38.28169246087782 177.8959101155633,37.729923424485605 177.4892956444528,37.42821661173366 177.2172484266339,37.247011117928196 176.8039347199956,37.15323721570894 176.4727594666183,37.15051913098432 175.95633578661364,37.260148521279916 175.71195932442788,37.26241359079722 175.32252984889783,37.29185949161183 174.36220899561886,37.155502286332194 173.8763687821338,37.06671150209149 173.4630550754955,36.96433024678845 172.9629425777821,36.866026075789705 172.3748662044527,36.67032363114413 171.71630222222302,36.50814415718196 171.3326981688151,36.37722265027696 170.74462179548573,36.24947217665613 170.43267043551896,36.19239215366542 169.88944981328677,36.00121926906286 169.2946742044296,36.00439038465265 168.75087104004342,35.955464596510865 168.32503267552238,36.05105107976124 167.98424547561444,36.06917173543479 167.54413482663222,36.150261650793254 167.088878080016,36.29341472388478 166.65168014215305,36.393531216017436 166.23079338658135,36.55888188269455 166.0904007111676,36.600559291255195 165.360475306632,36.71426609356422 164.94512270216364,36.89954916218994 164.3552987021394,37.1210732110776 163.69760853331536,37.27962811791804 163.15060138667468,37.34033196605742 162.7116558222333,37.37566703406628 162.21037823997904,37.39877072919626 161.62346695107408,37.348939226707444 161.13850055111106,37.30137278186157 160.37012735998724,37.23659179743845 160.2204140088288,37.25652441009879 159.62942492438015,37.41100209625438 159.0014444089029,37.657441345450934 158.4955064888345,37.784284967929125 157.8054852266796,37.931514080031775 157.26051697775256,37.96095989050809 156.4758326044539,37.83411637088284 155.97572010662407,37.64520999224624 155.04423509328626,37.152331187506206 154.34256298665423,36.537590160092805 153.5855493688723,35.68456049653469 152.90135352883954,34.89812126813922 152.4897874488961,34.44057179347146 151.7787946666358,33.61109103867784 151.20702947548125,33.002229316101875 150.89012650668155,32.71002944780048 150.36612977774348,32.20037757680984 149.53280312893912,31.495017420849763 149.17978254216723,31.150717478827573 148.72161308443174,30.74299315956887 147.99693055998068,30.06254487449769 147.56381041777786,29.531594403728377 147.15603086224291,28.922721281589475 146.72261944890488,28.227770266821608 146.51173916447442,27.787875095615163 146.33435505779926,27.368818622431718 146.2024092443753,26.73230427550152 146.0794928355608,26.05139042803785 145.83890289778356,25.321546276682056 145.48559103999287,24.768838340532966 145.27179804444313,24.461224053869955 145.01606200879905,24.19302390923258 144.7871229154989,24.036724686040543 143.84107434668113,23.54109684296418 143.50028714665677,23.389327579643577 143.37911836453713,23.34357025870122 143.11464419553522,23.180474778753705 142.79511978663504,22.83027212752495 142.68618439114653,22.366354682832025 142.6366683022352,21.925088540301658 142.66433905775193,21.761085906415246 142.84259697783273,21.51100430439692 143.11959580436815,21.027149955159985 143.4679560533259,20.57455488620326 144.13904469332192,19.535258947405964 144.327788373339,19.20498470129678 144.45390876440797,18.96169594465755 144.64585642667953,18.719313021283597 144.69537251547445,18.365931827342138 144.74401479109656,17.783757713157684 144.59051491552964,17.294911477249116 144.44517063105013,17.003143599722534 144.26021347555798,16.762570723542012 143.73417784890626,16.385174320545048 143.45368376886472,16.08162571885623 142.81609130674042,15.62086531688692 142.52977180446032,15.320034007541835 142.2376268800581,14.940369804215152 142.2192768000532,14.787688428594265 142.08470954664517,14.562064122757874 141.7354754845146,13.528629326145165 141.45090360892937,12.890715352259576 140.9306934045162,12.511953046487179 140.16523292451166,12.460303590167314 139.84949504001997,12.404123465763405 138.96636103116907,12.319400186417624 138.29265095107257,12.245550456165802 137.49835463112686,12.459397459228057 137.0975655822549,12.786963542050216 136.65570730669424,13.339701873715967 136.52114005328622,13.665001318324357 136.34725120000076,14.178774103638716 136.24239360005595,14.813512882450595 136.17656632885337,15.357184884429444 136.27559850667603,15.765844112844206 136.2327816534089,16.32627686369233 136.1620027733734,16.731762878363952 135.9388891021954,17.24054482160136 135.74402872892097,17.83721812465228 134.8142913421616,19.763143354852218 134.67972408887,20.251077954424545 134.69690908445045,20.68555176188238 134.80875719105825,21.375543316826224 134.79244600888342,21.819528848223854 134.7216671288479,22.04288041125983 134.55098225781694,22.44337229570374 134.24543886224274,22.85518954048166 133.88076743111014,23.310498129576445 133.3206530844327,23.777131815673783 132.8059770311229,24.06345412641531 132.3221757155843,24.162670155754313 131.56341447110754,24.159951908979565 130.65843512886204,24.02630473393947 130.3625036800513,24.036724686040543 130.0723976533627,23.896281810244545 129.22188600886147,23.614942744839936 128.62245006219018,23.221701703267172 127.89048576005735,22.451074055512436 127.18211441778112,21.581679568917025 126.7565673245117,21.01944814505987 126.43849927117117,20.215740109269973 126.32024320005439,19.820680732140318 126.19907441781834,18.999752304400317 126.20664746663533,18.245872701518238 126.37558471108787,17.629266111180186 126.63248583115637,17.125015633297153 126.78977223113179,16.721342576900497 126.84336611558683,16.32310546177905 126.78889841772616,15.96654897427652 126.61326193774585,15.701962842722423 126.42131427547429,15.464106885134242 125.82216960005462,15.167352897871751 125.13098325335886,14.958492215606384 124.69844565331005,14.85066384577658 124.03609514667187,14.734227268840186 123.09965852438472,14.508602907531895 122.69304405339062,14.468733518267982 121.53436757333111,14.057353484095074 120.54171562672127,13.672703388438094 119.76489557337482,13.302550652762875 119.05856312892865,12.93964631977724 118.57534435554408,12.654215520829894 118.06853262218647,12.162639379443135 117.6371601066785,11.683294940390624 117.3211309510516,11.18446751870215 117.02519950224087,10.52933004195802 116.83441692439374,10.248879856080748 116.5271259022411,9.624548420542851 116.33139171556104,9.28655692609027 115.89331996440887,8.345524225442205 115.51525006222073,7.392254408681765 115.12203406216577,6.80597327707801 114.69532188447192,6.275419208337553 113.92228835553396,5.627969324821606 113.35052316449583,5.333014261326753 112.77963178663049,5.129128039290663 112.18310855107848,5 111.90552718215622,5.076570671051741 111.2114281244576,5.176701508113183 110.28372963552829,5.276832299074158 109.72623672895133,5.240585864288732 109.33593344001565,5.259615243354347 108.77086748438887,5.113723294809461 108.73649749334436,5.0661498120753095 108.63630023109727,5.013592428760603 108.38056419545319,5 108.0936621511355,5.014498590608127 107.96841557335574,5.232430415635463 107.52801365335472,5.862664466490969 107.35762005334254,6.7941932690446265 106.3538998044096,8.746947434497997 105.7768917332869,9.88778272003401 102.2970757689327,22.96890351595357 102.02968888892792,23.05770004534861 101.97784263116773,23.30596770043485 106.71857123554219,27.007749858079478 106.54672127997037,27.412309926352464 107.12664206221234,28.27171443181578 108.52649102220312,29.366691434406675 110.41567544883583,30.467099270841572 116.79276515555102,36.01979294535704 116.71062670217361,36.244489000644535 122.03011100448202,40.76690086751478 120.66434076451696,43.57008770748507 126.9799722667085,48.42846688040299 125.5984733866062,49.22391705750488 124.92330695106648,48.658586022793315 123.65802524448372,47.61625308264047 122.46031843556557,46.61785562156001 121.12542293325532,45.559658037731424 119.9731544178212,44.57801210548496 118.58262613334227,43.43509343394544 117.50084522669204,42.52365339943208 116.1178899910301,41.39703214378096 114.91027996444609,40.45885615842417 114.04054442665074,41.603602460294496 111.57114794664085,44.93995775160147 111.39871544891503,44.78276741341688 108.88621084438637,47.5877145617269 107.20441144891083,49.633871738100424 105.87854535109363,51.15228279790608 104.95900245336816,51.94409916503355 103.46623800881207,53.693513912614435 102.4537796266377,55.10861800075509 100.37323008000385,57.85681085847318 98.34103153774049,60.201376543496735 96.83574243553448,61.901805039145984 95.88241208880208,62.813616985222325 94.31129571550991,64.28437565558124 92.52842524438165,65.7537655356573 90.02407623105682,67.55878239125013 86.48746239999309,70.36660699901404 83.84213816886768,72.68793814373203 82.61821695999242,73.84746209881268 81.10418972442858,75.19449507177342 79.31782399991062,77.16701824491611 78.32488078216556,78.40215741965221 76.59065258665942,81.17134390084539 75.38741162663791,82.87659088661894 73.67852401779965,84.97767234302592 71.7739022221649,87.8636257504113 70.39939384884201,89.8672846716363 67.76164266665,93.97871335619129 66.02042396448087,97.00584920775145 65.31846058671363,98.30926189827733 64.7627153065987,99.9410076594213 64.01210965332575,102.0238094368251 63.10654776880983,105.75052119843895 62.63031950220466,108.11449781456031 62.378952533355914,108.77794641407672 61.18590606225189,108.23496030422393 61.12182641774416,108.38802908593789 52.64408945781179,104.4734197150101 46.49885155551601,133.78644782240735 46.24369806225877,133.81678631069371 46.03165269328747,133.87927452696022 45.522802062216215,134.15413190342952 44.80540131556336,134.37646274012513 44.292181617813185,134.44302610331215 43.76847616001032,134.38370773300994 43.288170097745024,134.20575252524577 42.93369315552991,133.99293058470357 42.478436408913694,133.5713614037959 41.96783815114759,132.8310096875066 41.68530517327599,132.61365824739914 40.54672640003264,132.19344484864268 39.82087879104074,131.80130532116164 38.62841486220714,131.3978446321562 38.190051840036176,131.1646431077388 37.3342973155668,132.0354117982788 37.25478030217346,132.18167161673773 35.23190243553836,131.45399408822414 30.642052266630344,128.10628390603233 28.301688888925128,125.03791949758306 28.55305585777387,124.51354003045708 27.998184391180985,123.97240445611533 27.39991352893412,123.65315647888929 27.034077013260685,122.96484719228465 27.227189759956673,122.20498744235374 27.513509262236767,121.67697845189832 27.334086257847957,121.52618319663452 26.823779271100648,121.04889061988797 26.431728355470113,120.14683196583064 25.760639715590514,120.13369955820963 25.41926997329574,120.43619757331908 21.898384782136418,119.94758155889576 21.227878684410825,119.57172234094469 20.523002595524304,119.19088119507069 19.59355648001656,118.90830659738276 19.068394666654058,119.53006079734769 17.07843043562025,121.4718425385654 15.437991537735797,122.71895722945919 12.964517262182198,124.40169036079897 11.603116088896058,125.53920335276052 6.6104379734024405,130.72133311408106 7.192106382222846,131.52825624967227 8.540400355588645,132.97500489722006 8.997113457764499,133.49121335765813 9.846460017724894,134.54083345731487 10.239676017779857,135.30653673480265 10.820761884446256,136.67266062065028 11.28504803555552,137.66068389604334 12.091286471113563,139.68244992080145 12.371780551038682,140.43545675138012 12.977915733354166,142.1701246444136 13.046364444424398,142.56994303385727 13.071413759957068,143.356446604128 13.246467697783373,144.80764464882668 13.919595235493034,147.14312499103835 13.826679751160555,147.86033611104358 13.881729991058819,148.23207150172675 13.98454869328998,148.52547487028642 15.38381511112675,150.507748392527 15.718194346642122,150.9646014745813 16.135585848940536,151.2964872062439 17.46145194664132,152.13321734021883 18.09671424003318,152.47415678220568 18.634983253316022,152.87259795097634 19.097813048865646,153.2465886581922 19.482873457716778,153.6305397093529 20.081435591098852,154.33867407240905 20.731552711105905,155.26549351285212 21.729447537800297,156.7990156081505 22.397623466677032,157.7262773513212 23.379498382215388,158.83328144456027 24.16651292447932,159.64915570942685 24.58128298667725,160.0593554902589 25.05343345773872,160.60311802767683 25.169650631025434,160.74754764931276 25.2648962844396,160.97800098534208 25.372666595503688,161.1835524783237 25.43995022214949,161.36556046677288 25.55296341329813,161.712371287751 25.665685333311558,162.25114940595813 25.704133120016195,162.9755548608373 25.706463288865052,163.98790745134465 25.789184284512885,164.54252617491875 25.911518151056953,165.0170070324093 26.19113841780927,165.7875834761071 26.504254862316884,166.3838502180297 27.477682915632613,168.10789856198244 28.066924373270012,169.42265735764522 28.23935687111225,169.97318761091447 28.37072014226578,170.45308949355967 28.40363377786707,170.79716943827225 28.479655537754297,171.86924662603997 27.705165653373115,173.10520744882524 25.993656604434364,175.19229021994397 25.393638115609065,175.59838621562812 19.40044373332057,178.95125245198142 16.51627719111275,180.48641879553907 14.752339342259802,181.61594301194418 10.496868408867158,185.1190153643256 7.745230222120881,190.06342153449077 5.4823449599789456,192.3703501917189 5,192.90180949564092" stroke="red" stroke-width="3.601891660989203px" fill="none" stroke-linejoin="round" vector-effect="non-scaling-stroke"></polygon></svg>