<svg width="2096.2797232355224" height="2360.883844191907" xmlns="http://www.w3.org/2000/svg"><polygon points="1632.6439404088305,328.1087195908185 1671.552226702217,344.85149385326076 1672.7720701155486,345.7192661657464 1694.4566217955435,392.1191530104843 1695.0071241955739,393.86393911449704 1700.8363329422427,396.2870006321464 1703.1408699733438,397.41029835504014 1733.3946177421603,387.1693285459769 1733.9518193777185,387.272451045108 1724.8661996088922,379.6352948198328 1724.5583260443527,379.3625833571423 1727.7876488532638,366.0419283119263 1728.0993089420954,363.8376295432681 1738.6214778310386,360.6152517339797 1738.8309017599095,360.5602462902898 1745.6440243199468,334.95369213283993 1747.6599116799189,334.27475169231184 1748.6647970132763,337.5653695418732 1750.535631359904,343.05542788718594 1792.4518744177185,340.95174716203474 1792.955482168938,341.18966719013406 1786.2673149155453,360.4855305402307 1785.6975886222208,361.7006896251114 1807.8880782221677,371.50605379906483 1809.8046421332983,371.8589872783632 1793.659484444419,373.88994782755617 1793.6833686755272,374.50046981382184 1815.188206079998,386.8938766514184 1815.8330803199206,387.71702303376514 1817.9733404443832,407.3588591358857 1817.7033321243944,408.40510875103064 1875.4577331199544,412.74174337054137 1876.4964059022022,412.9209261271171 1875.5861836799886,404.5798342549824 1876.1273654043907,403.2622596768779 1889.373792995466,402.68389918655157 1889.9027413333533,403.1788512071362 1901.3362975288182,416.7281808966072 1901.673589475453,417.2075199679239 1893.7288786488352,432.5311458375072 1893.3170212977566,433.35640957567375 1892.500588373281,453.5718671303475 1892.22067683551,456.228387518262 1918.4100275199162,488.5191322256578 1920.893405013252,488.91860160557553 1918.0680752354674,494.4909392602276 1916.7256066844566,497.16482241253834 1921.2036087466404,499.59084916848224 1923.5320300088497,501.88767041265965 1921.3099227021448,504.70575520931743 1919.8349257954396,506.3713030128274 1922.8682231466519,509.09176178171765 1924.2319544889033,510.0477390817832 1914.5442773333052,517.9816837083781 1912.57470207999,519.3773426062544 1902.0688443732215,514.406612195191 1899.4532297955593,514.1629280389752 1897.9793979732785,507.2966018045554 1897.7903630221263,506.7684490683023 1886.5793379554525,507.9562183278613 1885.1055061332881,508.44543261639774 1879.2425099377288,522.3463513609022 1878.541129102232,523.7804568481515 1856.6419106132817,536.5427064925898 1856.4834591288818,536.790945482906 1834.7505564444,529.0367775048362 1834.0660693333484,528.8993709578644 1832.607383608818,534.8934213889297 1835.876028017723,536.5060660270392 1829.9288544710726,547.3000786923803 1829.4325284977676,548.5957087115385 1817.9613983287709,548.3708402899792 1816.670484764385,547.8491996093653 1822.3144450844266,551.0298600611277 1822.2017231644131,552.2013571911957 1812.5545326933498,552.9721237337217 1811.3102225066395,554.1211698845727 1812.581620906596,561.4201495017041 1811.96383487992,561.7755208123708 1805.2721723732539,554.5782220170368 1804.6581728711026,554.673479253659 1787.7382340265904,580.5869270052062 1785.847010702244,580.7563545685261 1791.285624888842,583.6540032699122 1791.5107774577336,584.1485412054462 1789.3556625066558,591.5531957603525 1789.6527590400074,591.9098912278423 1805.9511253333185,597.4218832472689 1805.0726516621653,600.0107035887777 1815.265684195445,599.3692248177831 1817.0106894222554,599.5674836274702 1804.00922083552,587.634085769183 1804.3095213510096,586.9032799761044 1825.1715234132716,589.1016425759299 1825.768629191094,589.2756424106192 1825.398132337723,601.3943865087349 1826.15339832881,602.1191910705529 1866.4758058666484,613.477197745291 1866.6406653154409,613.4739928450435 1908.738079004339,652.3193898304016 1910.617651484441,654.4356071125367 1935.899110115599,667.7755848614033 1937.5686761244433,669.5469848844223 1933.251164444373,658.3255843605148 1932.3167667200323,655.9645074313739 1937.47255665774,649.2400118053774 1937.4177976888604,648.7016769105685 1929.6190136888763,640.215401019319 1929.1739514310611,639.7539519410348 1925.6734552177368,617.3679115986452 1925.532188728801,616.5529643852497 1954.9668821332743,609.6651642856305 1956.0349732977338,609.1629012048361 1958.629033813253,599.6096078777919 1958.9625392354792,598.0651992957573 1987.6629381688545,596.618765722611 1989.2343458132818,597.30512461334 2003.8666413510218,582.3759837938705 2004.7789024710655,580.9885159062105 2012.272725617746,583.6054652264575 2015.59758535109,585.10784999514 2034.1588369066594,503.2037279129727 2034.7614768354688,501.11214095767355 2025.7067318044137,498.14146636624355 2024.0030870755436,497.43005589256063 2021.319897599984,480.9964179340168 2021.4235901155043,480.7261249299627 1936.6057338310638,441.60245879297145 1935.5222052977188,440.66954746609554 1894.7541529600276,378.8052425584756 1891.959989191033,377.1272530722199 1884.8049143466633,358.07811107626185 1884.5748101688223,356.96973567438545 1886.0521372443764,347.62899475742597 1885.930677191005,346.1730918196263 1891.9966893510427,340.82980731577845 1902.841295359889,332.03024468338117 1927.318554453319,348.1763310455717 1930.6075878399424,349.94668398599606 1944.6558848000132,334.9055566552561 1946.4070067199646,332.86597785609774 1948.6480466489447,321.61562885000603 1948.53357710212,316.91634878353216 1941.0493659022031,266.39653074007947 1941.0385888710152,266.15027392678894 2069.8963458844228,269.9743308435427 2074.8534889244474,269.0553527234588 2077.4245390221477,255.0317386171082 2079.2359540621983,251.0583686704631 2090.2550314666005,240.0408735499368 2090.4953301332425,239.49463919724803 2091.2771017955383,227.2789923112141 2091.2797232355224,226.60108944779495 2081.4193223110633,209.2496296960162 2080.598520319909,208.45928841014393 2039.612305919989,182.1295923248399 2038.864612977719,182.23464775300818 2027.3180435911054,136.23796339944238 2023.9538622577675,130.31957154138945 2015.0951426844113,135.43817779165693 2014.4054126932751,135.65842885692837 1995.7646441244287,131.06385333579965 1994.395961173228,131.1643449475523 1960.8322084976826,143.58685878431424 1959.003317191149,144.40267353365198 1926.6262030221988,132.38125335576478 1925.8875394844217,131.907247238094 1908.6693390221335,133.66790169663727 1906.058384782169,132.65335901128128 1893.2424558933126,125.01591591513716 1892.6747684978181,124.47397941560484 1894.1005405866308,117.30799178034067 1894.114812871092,114.90933355735615 1917.6972871110775,95.88295049604494 1918.9899483021582,94.28766683582217 1865.489270613296,68.44573430420132 1860.3154218666023,66.49543880787678 1847.2842436266365,50.18919589824509 1843.172951893299,47.47397026815452 1812.8402696533594,37.842103301896714 1812.0791782399174,37.461997937527485 1801.6924504176714,22.809527822420932 1799.0873215999454,14.760965668479912 1789.4270239288453,5.988972116319928 1788.6047655821312,5 1779.3685586488573,6.441675575333647 1776.2659387732856,6.64736608293606 1778.4659094754606,24.12483388185501 1776.9230463999556,26.238029596046545 1761.6980141510721,37.1369797764346 1760.1216548976954,37.7686530421488 1748.1643932444276,36.36712548520882 1745.842379946611,37.67454486025963 1726.116917759995,60.981822805595584 1725.8201124977786,61.23428082629107 1702.7473627021536,71.22449628222967 1701.6052886755206,71.62611485266825 1715.0920149332378,81.79851993295597 1718.9388324976899,83.91482301556971 1706.6011707732687,102.05882677814225 1704.634216960054,103.99411556415725 1698.629080462153,90.36228261422366 1693.024733013357,87.17667049216107 1670.071113102138,106.96562434564112 1669.0085560888983,108.0725295972079 1666.10516565328,123.82374559738673 1665.9475879821694,124.20782890100963 1674.4783362844028,129.19075455400161 1679.9364656355465,131.08909095951822 1663.754316515522,133.65046500146855 1662.6195242665708,134.88800800358877 1652.2945459198672,171.47698190202937 1651.7676364800427,172.4014217540971 1652.326294471044,191.55318210052792 1652.5441652621375,193.24270543747116 1646.8955446043983,203.4745214021532 1646.3444596620975,204.82083725527627 1657.817628728808,215.13650334998965 1661.254627839895,216.6515423534438 1670.2840322843986,210.56196597835515 1670.5374381510774,210.67847500089556 1676.1065417955397,223.62526335171424 1676.072463075514,223.79680561175337 1688.9469374577748,229.09436717629433 1689.52831459546,229.28241675789468 1713.6356593777891,225.2461946712574 1714.0061562311603,225.3393038258655 1713.7443035021424,231.68255716160638 1713.8797445688397,232.58655879757134 1737.4237710221205,268.0515343323932 1739.8841380977537,271.1069980991306 1740.1768655644264,280.2135187756503 1740.1585154844215,280.41619743185584 1758.7092812799383,281.9995605708682 1759.1182259198977,282.02982456656173 1712.722233173321,319.5296195795527 1712.3013464177493,320.05318687600084 1673.24625948444,331.07898110518 1672.5046832355438,331.0097564596217 1648.0778140444309,305.9416418168694 1645.3220980621409,304.51067537860945 1632.6439404088305,328.1087195908185" stroke="red" stroke-width="3.0258007795825628" fill="none" stroke-linejoin="round" vector-effect="non-scaling-stroke"></polygon><polygon points="1772.7360241777496,631.7924269803334 1778.4137719465652,650.7195103307022 1778.7498988088919,652.5748201401439 1792.0368130843854,666.1263846702641 1792.9452876799041,666.791925200203 1810.3239785244223,672.5661128401989 1811.5047916088952,672.8444051094702 1809.8125064532505,647.7710318788886 1810.3196094577434,647.4327393576968 1862.2916963555617,650.732785488246 1863.802519608871,650.830289206584 1892.2378618310904,640.8251715058577 1892.8416668443242,640.0638737024274 1865.2967404088704,618.246036676399 1863.2156083199661,616.8693290894153 1847.3797805510694,620.6134770886274 1846.5464539021486,620.6601755172596 1818.3377206043806,603.6031326947268 1814.2430313244695,603.0491168029839 1812.947457422153,608.9481685017818 1813.0045465599978,611.1183783349115 1803.8851393421646,613.6127191971173 1802.112754631089,614.995857266942 1782.720506595564,611.4054487645626 1782.453410986578,611.5199105520733 1772.7360241777496,631.7924269803334" stroke="red" stroke-width="3.7022774188041465" fill="none" stroke-linejoin="round" vector-effect="non-scaling-stroke"></polygon><polygon points="5,2298.0681729839416 24.151658097747713,2319.3842666832497 29.528522808803245,2327.002458759409 26.792030719923787,2332.078077031125 26.310268302098848,2333.1178055870114 35.22345557331573,2341.35505994549 35.18326016003266,2341.943715310481 53.36818943999242,2344.8987775052083 54.37045333336573,2345.1363253355958 52.169317546649836,2350.5889532522415 53.293041493278,2352.636435371591 64.03599388443399,2348.025031537283 63.72928540443536,2346.404908114113 70.56600092444569,2353.370853609056 70.93737159098964,2355.883844191907 99.27484671992715,2349.893131959252 100.83518606214784,2350.1188653510762 91.58849336882122,2341.7306912920903 91.33858275553212,2340.7654945648974 104.84016383998096,2321.409330006456 105.09473479108419,2320.638917828561 90.19621745776385,2301.9837530195946 90.01329919998534,2301.279598913272 97.47857777774334,2287.2042157638352 97.59217351104598,2284.017115770839 52.448355271015316,2287.96020810958 50.609269475447945,2287.9215907758335 26.55522730667144,2278.5001193670323 25.44257166213356,2278.0789445752744 12.649361919960938,2286.1529095391743 12.488580266595818,2286.3028368395753 15.105942471069284,2295.2096959784394 13.93386751995422,2296.4245078663807 5,2298.0681729839416" stroke="red" stroke-width="3.977917111962701" fill="none" stroke-linejoin="round" vector-effect="non-scaling-stroke"></polygon><polygon points="1800.964272639947,231.39406472217524 1813.9272934399778,230.19560154463397 1814.3912883199519,229.76354774693027 1800.964272639947,231.39406472217524" stroke="red" stroke-width="3.75993675510772" fill="none" stroke-linejoin="round" vector-effect="non-scaling-stroke"></polygon><polygon points="1816.3780485688476,227.67206491873367 1816.3780485688476,227.67206491873367" stroke="red" stroke-width="3.613648849444833" fill="none" stroke-linejoin="round" vector-effect="non-scaling-stroke"></polygon></svg>