<svg width="547.8443400532706" height="419.7190148368245" xmlns="http://www.w3.org/2000/svg"><polygon points="5,184.25282082438935 15.087009848793969,193.33213969290955 15.564111928804778,194.16947021172382 6.7857831821311265,200.13518850097898 6.741218702169135,200.18293160770554 12.836357973283157,207.68162288947497 13.484144924324937,208.7801242240239 21.31001713767182,202.77635754388757 22.108973795431666,202.9299443261698 60.87948885327205,223.2177655050764 63.105965226655826,224.58730355504667 72.21372160001192,206.41692079615314 73.37647587549873,203.84560756816063 87.84973738656845,213.0164413988241 89.43570858659223,214.07258041965542 87.38486869318876,226.3297254674835 86.96077795547899,227.0205655688187 95.50259455991909,228.197780899005 99.34882958210073,228.67289852868998 105.68485006212723,208.93370679201325 105.62251804431435,207.80593082029372 113.61849258665461,210.7965061297873 114.70114730659407,210.84469729487319 114.00559189321939,204.61939181608614 114.1920054043876,201.80754224723205 141.10196081770118,208.03923319547903 142.487828764366,208.20182408590335 153.6298225776991,280.69361488043796 153.90856903104577,281.7822947448585 167.70899427542463,294.84107839060016 168.8143681421643,296.0593482053373 150.61341895104852,299.3417997537763 149.67610851547215,299.1585672313813 139.52210631105117,308.64863959274953 137.19222869328223,309.439610443078 146.77883477322757,339.1779503253056 146.8842749154428,340.37931901565753 181.86244010657538,336.943089940818 183.98522396443877,337.19966117455624 183.16413070214912,339.7802109125769 183.02723328000866,342.0186432492337 203.98914133326616,358.0200895764865 204.2096335644601,358.0542957979487 195.3599433954805,377.5824751945911 195.33081628440414,378.50730889022816 208.03518833767157,386.96609312546207 208.24257336882874,387.0209958499763 222.87603399099316,379.35338203649735 223.91412423097063,378.9974016590277 224.1841325510759,363.3521448656684 224.21122076443862,362.800357205444 262.5171583999181,362.6819882194977 263.0463980088243,362.73014595150016 273.61983061325736,378.5622137361206 274.01450296887197,378.93034587206785 308.36439637327567,374.0145156927174 311.53429987549316,374.123877575621 302.6289769243449,401.5634327257867 302.59810218657367,402.58131313388003 321.46984874655027,414.263649432105 321.7797612088034,414.7190148368245 358.18777628440876,391.0603585358476 359.0496475021355,390.85020190954674 362.7278190932702,384.0310274299118 362.88161023997236,383.6669541335432 356.0282922665356,375.906963613932 356.5991836444009,374.9303635190008 381.3709178310819,362.5699201852549 383.8743930310011,362.7035916894092 381.0470243555028,352.1302386439638 380.8801260088803,351.9695550247561 390.61178510216996,338.33982408978045 391.3277294932632,337.7407104045269 417.1206601954764,337.15779957268387 417.2456155021209,337.2370215221308 422.2583913244307,331.7976478995988 422.8761773511069,331.24533055588836 421.8902246399084,328.0074715098599 420.7796078932006,324.47561624343507 425.7481105065672,313.1486268597655 426.4969685332617,312.0078825390665 455.57514609768987,319.4293667708989 458.322706488776,318.1328985232976 467.39725795551203,330.17670282244217 469.2066340977326,332.3409611558309 466.7139359288849,345.40167993016075 466.9894783998607,345.9485602747882 477.23202702216804,344.8669511610642 483.0160887466045,344.2989129400812 491.27333347545937,331.2885436990764 492.6332782933023,330.6682542222552 490.0269843910355,304.9877173550194 489.5562902755337,303.0586406068178 493.74156487104483,293.8582637642976 493.90991957322694,293.6525159384473 508.90776035550516,333.2943443725817 509.3266082132468,334.27653180476045 540.634174862178,302.45627896953374 542.8443400532706,300.68700089736376 525.3893361776136,287.47098668059334 524.9914598399773,286.15722038422246 516.4120692622382,285.72409899241757 514.489679928869,287.0905445443932 514.0035484443652,294.8888008390786 513.8911177954869,295.57537264958955 492.33356031996664,283.8677904283395 491.7137353954604,282.9069881069008 475.5275084798923,282.3432914358564 472.84373646217864,281.9650915773818 467.86300046218093,276.9039041483775 467.5941572266165,276.12587296322454 472.39022734214086,266.00806394126266 472.3051761777606,264.815742699313 464.8748501333175,255.4421964425128 464.2640546133043,254.46956164680887 436.50999551988207,248.5183834907366 434.45303893322125,246.27989527967293 438.17839644441847,235.4599876034772 438.9994897065917,235.2046480725985 434.24099356436636,230.46437544061337 433.9622471110197,229.4830730363028 439.2971687820973,226.55264998890925 439.17599999997765,225.56502508051926 430.78360547556076,225.46594709635247 430.0396990576992,225.53440098115243 416.1492710399907,209.49804298544768 415.33225557324477,209.00802089914214 394.55268323549535,205.85888218472246 394.3651046399027,205.78276542772073 385.4807532088598,194.96085495920852 385.09015864878893,192.74163733026944 374.07195505767595,203.85011155880056 374.4718702932587,204.3617643028847 349.94451256876346,193.37628091912484 348.4814577776706,192.55336087953765 343.95743487996515,198.03313025826355 343.7139322310686,197.82549066864885 337.81598350207787,173.22938978218008 336.96518058655784,170.59777430584654 333.6974099910585,172.49783809180371 333.3286607643822,172.1541340823751 328.5258914132137,155.99763451097533 328.55793123552576,155.1281724277651 317.9772168532945,141.4690551792737 317.100199537701,139.98456198337954 307.59922716440633,153.7838781356113 306.8521167644067,154.2168102755677 292.4886644621147,141.90020958532114 292.04738872882444,141.26361453637946 296.53616782219615,114.90208707301645 296.57840213319287,114.21404691709904 277.27732195553835,118.56664169812575 276.26777628436685,118.42200717580272 259.6472641421715,104.48527890746482 256.88921799103264,103.2051100640092 255.83481656876393,90.85228985606227 255.58082815993112,89.91993071115576 232.26894478220493,38.97751875210088 232.0819487287663,38.28608451609034 236.31848703988362,29.092145216302015 236.47606471099425,28.59721120656468 254.49380437331274,25.829076023306698 255.09324031986762,23.498153709981125 248.77207466657273,15.393599025555886 248.29439004440792,14.118768822634593 241.1862098488491,18.752389406901784 240.60046364436857,18.449915565084666 229.3693408711115,5.229010714392643 228.8191297420999,5 215.38803626655135,11.106118973577395 214.98870357323904,11.209802061202936 214.81860124436207,16.49982826341875 214.8453981865896,17.178258666361216 222.29057905764785,35.59740322979633 222.60689948440995,35.942674126825295 223.76499342219904,24.55024974315893 223.73848775110673,23.948022299155127 229.74741077329963,22.373928960820194 232.65109247993678,21.955160525860265 230.98968206217978,36.072488631121814 230.7735588977812,37.16644321603235 212.34716586652212,47.212359475088306 211.4783041421324,47.819931498670485 201.3312924443744,39.505333115230314 199.61861831101123,40.18729803618044 202.7725019021891,62.32588837679941 201.85121137765236,66.62858886132017 190.87232938664965,64.86326153052505 189.25926997326314,65.4937694047112 189.410148408846,76.48747943772469 187.43416519102175,75.14405373577029 171.68775765330065,44.57066356588621 170.98026012431365,43.95542013156228 170.23052828444634,49.18515950930305 170.21742108440958,49.96174463420175 173.88656327105127,48.62536747683771 174.361043911078,48.846670295344666 163.34808319993317,70.99655224580783 163.16749511100352,71.24126738263294 166.48361671110615,79.3099534525536 166.86751203553285,79.32617705222219 162.9574886399787,92.35378980071982 162.96477041766047,93.89899011596572 140.12824149325024,90.20473102619871 139.16326030215714,87.67215824860614 131.39389468438458,96.39634240732994 130.58736497769132,96.57568923698273 122.38313159102108,90.57334860489937 121.26756323548034,89.59502356976736 120.49919004435651,103.57280452200212 121.95350670209154,104.04774228215683 93.43719111103565,89.64143890526611 92.82377415103838,88.71448223287007 93.93322581332177,79.11752344167326 93.88196209771559,78.43027202092344 87.24156330665573,71.29354535054881 87.1250548621174,70.6004105876782 90.43972010654397,52.218468228704296 89.96844344877172,51.76820708240848 79.38365127099678,50.94295126351062 78.04147399100475,50.256963444524445 64.51629994658288,37.03888307453599 64.23289315542206,36.83199208602309 59.961111039971,52.6119389217929 59.77994040888734,52.63762942352332 43.121854293276556,33.208438223577105 33.6503003021935,36.34654122055508 33.46563441772014,36.40964538656408 32.10248561773915,44.30428365408443 31.654510648804717,45.19672269030707 79.92250282666646,103.6800486225402 80.27028053323738,104.11893779679667 84.6885720177088,118.61575433338294 92.48415203543846,121.87518660130445 77.59379029332194,118.91313335788436 77.27280952886213,118.67072442598874 67.4453222398879,129.9253346286714 66.01518108439632,130.60386381897843 47.512766293250024,104.66056367458077 47.32751786650624,104.66506970790215 47.407617422170006,111.90659585921094 47.64267320884392,113.58458064810839 40.511191324330866,111.53486010804772 36.03901468438562,113.08623312605778 21.57303495099768,133.86266691575292 21.0746700798627,134.07397156511433 23.858930631075054,141.0293398835929 22.407526684342884,144.26996680244338 14.385337742161937,139.41193687764462 13.52783559099771,140.40535713243298 12.543630506610498,151.39079761318862 12.530523306573741,154.25600388180465 17.701459342148155,165.22813546302496 18.524591502151452,166.37505093577784 14.48262229328975,177.91009149845922 14.378638506517746,178.42045355483424 10.870569244376384,178.28982260345947 6.5821846754988655,178.24297562259017 5,184.25282082438935" stroke="red" stroke-width="3.604558288154102" fill="none" stroke-linejoin="round" vector-effect="non-scaling-stroke"></polygon><polygon points="119.74159388442058,96.76269645302091 121.60572899552062,119.8620400869986 121.58941781322937,120.44102436443791 145.6393821865786,128.1055503989337 146.324451840017,128.11861649464117 142.80531427555252,144.98809728602646 142.70948607986793,145.37148969690315 147.77206926222425,161.27154626592528 148.72976867551915,161.38236597413197 146.23037127102725,169.8549520894303 145.7436572443694,171.03112363943364 156.64273095107637,178.09072286542505 156.70418915548362,178.32585873582866 144.11428664880805,194.96445829811273 143.11930453323293,195.7585426645237 145.8520100977039,200.21851372765377 145.8223004443571,200.61577193945413 141.9032476444263,211.02304955176078 141.86363477318082,212.08955698320642 153.6298225776991,280.69361488043796 153.90856903104577,281.7822947448585 180.87736120878253,306.73805279348744 180.95250915549695,307.1306158157531 207.66265258658677,304.87381901347544 208.01159537769854,304.46189368667547 197.9341974754352,236.1976334634237 197.93944035551976,234.00720527465455 199.74969031102955,225.3227342943428 200.27863864880055,224.28601492661983 213.12398591986857,211.4977540927939 214.0144017066341,210.8919876802247 254.21418410656042,204.75135823956225 253.82621098659,201.87825554981828 267.71460010658484,214.12932804366574 268.6370557154296,215.07917299325345 272.5732935110573,213.05697561311536 272.7308711821679,212.9322202851763 271.1414047287544,203.15019028633833 271.16849294223357,202.35838475753553 276.21272604435217,192.36598511226475 277.91374933323823,189.77063406107482 367.1047500799177,221.16817117336905 367.9677863821853,221.8689355350216 374.93236991995946,209.37148407741915 375.2545157688437,208.61618259554962 355.3659417598974,194.63385170546826 354.6744641420664,194.37035699235275 343.95743487996515,198.03313025826355 343.7139322310686,197.82549066864885 337.81598350207787,173.22938978218008 336.96518058655784,170.59777430584654 333.6974099910585,172.49783809180371 333.3286607643822,172.1541340823751 328.5258914132137,155.99763451097533 328.55793123552576,155.1281724277651 317.9772168532945,141.4690551792737 317.100199537701,139.98456198337954 307.59922716440633,153.7838781356113 306.8521167644067,154.2168102755677 293.58617400878575,142.68412451003678 292.8125579376938,142.3277589356294 296.53616782219615,114.90208707301645 296.57840213319287,114.21404691709904 277.27732195553835,118.56664169812575 276.26777628436685,118.42200717580272 259.6472641421715,104.48527890746482 256.88921799103264,103.2051100640092 255.83481656876393,90.85228985606227 255.58082815993112,89.91993071115576 232.26894478220493,38.97751875210088 232.0819487287663,38.28608451609034 236.31848703988362,29.092145216302015 236.47606471099425,28.59721120656468 254.49380437331274,25.829076023306698 255.09324031986762,23.498153709981125 229.76168305776082,6.217630986589938 229.3693408711115,5.229010714392643 215.38803626655135,11.106118973577395 214.98870357323904,11.209802061202936 214.81860124436207,16.49982826341875 214.8453981865896,17.178258666361216 222.29057905764785,35.59740322979633 222.60689948440995,35.942674126825295 223.76499342219904,24.55024974315893 223.73848775110673,23.948022299155127 229.74741077329963,22.373928960820194 232.65109247993678,21.955160525860265 230.98968206217978,36.072488631121814 230.7735588977812,37.16644321603235 212.34716586652212,47.212359475088306 211.4783041421324,47.819931498670485 201.3312924443744,39.505333115230314 199.61861831101123,40.18729803618044 202.7725019021891,62.32588837679941 201.85121137765236,66.62858886132017 190.87232938664965,64.86326153052505 189.25926997326314,65.4937694047112 189.410148408846,76.48747943772469 187.43416519102175,75.14405373577029 171.68775765330065,44.57066356588621 170.98026012431365,43.95542013156228 170.23052828444634,49.18515950930305 170.21742108440958,49.96174463420175 173.88656327105127,48.62536747683771 174.361043911078,48.846670295344666 163.34808319993317,70.99655224580783 163.16749511100352,71.24126738263294 166.48361671110615,79.3099534525536 166.86751203553285,79.32617705222219 162.9574886399787,92.35378980071982 162.96477041766047,93.89899011596572 140.12824149325024,90.20473102619871 139.16326030215714,87.67215824860614 133.83911566215102,96.47294785507256 133.6031860621879,96.56307187688071 122.38313159102108,90.57334860489937 121.26756323548034,89.59502356976736 119.74159388442058,96.76269645302091" stroke="red" stroke-width="3.157017519703033" fill="none" stroke-linejoin="round" vector-effect="non-scaling-stroke"></polygon></svg>