<svg width="340.1558044444537" height="441.4259601419326" xmlns="http://www.w3.org/2000/svg"><polygon points="5,252.81576055905316 5.011650844593532,252.8319630905753 5.610795520013198,253.7523549266043 7.183659520000219,256.0418409628328 7.8425147734815255,256.76194170536473 9.226052551181056,258.3943113053683 9.934715164476074,259.4983029246796 11.259998720139265,261.08339652535506 11.818656711140648,261.7319224270759 12.294593706727028,262.31563910108525 13.912896000081673,263.2904469773057 14.692920035682619,263.56092614046065 16.2832603022689,264.4295175326406 17.369410275598057,265.5078261967865 18.770715591148473,267.7827880294062 19.35762688005343,269.35162033943925 20.25969351117965,271.92176280298736 20.214255217812024,275.230816170224 19.854826666763984,275.98460550245363 18.75556949339807,278.1154526511091 18.66207146679517,279.086590047169 19.296459946781397,281.379861258436 20.008617813466117,282.47068670066074 21.682261617854238,284.6298210344976 22.716856604558416,284.42416868178407 25.04120007122401,286.56978372239973 25.967442204477265,287.11878419236746 28.55072568904143,287.130034187634 29.480463075567968,287.0413842095295 33.474955093464814,286.56798371858895 37.76800000015646,285.4357783930027 38.87191751122009,284.8692235299968 40.36701212450862,283.14839977025986 41.566466560121626,280.39703368069604 43.48186538671143,275.75194363918854 45.04482616891619,273.5081165378215 47.70791793789249,272.7966214333428 52.8942913422361,273.54186862008646 55.03659036452882,274.2520112238708 56.183616000111215,275.4009252731921 57.103741440107115,277.3031680637505 57.469286684528925,281.9513752661296 57.308505031163804,282.4954372148495 56.30769749335013,285.7372803831822 53.98102385783568,287.99808207689784 52.93914709344972,289.7107678181492 51.81367552001029,290.2098111426458 51.41521664010361,290.58060544606997 51.472597048967145,291.79423240968026 53.03031495120376,294.30336344987154 53.97898496000562,295.53451909672003 55.34970680892002,297.09730282472447 56.650232320069335,298.5543309887289 57.51414243562613,299.49027972854674 57.04636103124358,300.02709852234693 58.071635342319496,300.5603162224288 60.11461091565434,301.09668242157204 62.36992312897928,301.5741012301296 63.97948728897609,302.2567048248602 65.35545201785862,302.86821144563146 66.39266844454687,303.63135491363937 67.41532131563872,304.32070156163536 69.68840106669813,306.36848027282394 70.17977543128654,306.6929013786721 70.29919658671133,306.7437468066346 71.30058666667901,307.065017644607 72.60577251564246,306.957027499564 73.71901070233434,306.7459966039751 76.7642501690425,305.6098459631903 79.0594665245153,304.70092120574554 80.88049351121299,304.2298087205272 82.04033507558051,303.97287875262555 84.56711196445394,304.020125091658 85.82365553779528,304.19156172167277 87.93449728004634,304.8872060921858 88.48703857779037,304.87910675263265 91.80578161787707,304.7261191707221 93.97400376899168,305.0986887421459 95.44113635562826,305.5630499293329 97.48731591121759,305.7529337743763 99.3092167112045,305.7439345437451 100.09827015118208,305.88387253845576 102.03376668447163,306.320784480311 102.99408753786702,306.53856518433895 103.54895900457632,306.64205593889346 106.10631936008576,307.94108572765253 106.52050688012969,308.14761590526905 108.17230535123963,308.5800237727817 110.0486738489708,309.0322287977906 110.27906929794699,309.1483171011787 112.16912753786892,310.12156661995687 113.30916266678832,310.71145361231174 114.48618922673631,311.4007779696258 114.63794147560839,311.5389125504298 114.9027069156291,311.8088821636047 115.46748160000425,312.4568078771699 117.93338282674085,312.7600724482909 119.0445821157191,312.9719974407926 121.02406058670022,313.4444409532007 124.54989738680888,313.3589512502658 126.40412928001024,313.5920230986085 128.4546779022785,314.0725642730249 129.67918165342417,314.22464543621754 132.39557603560388,314.9652521946118 133.29968156456016,315.45028977119364 134.44728974229656,316.1076534545864 133.84057201782707,317.1258658595034 132.75937365344726,319.56586686108494 131.41166222235188,321.0992336256895 131.15883889782708,321.97479562973604 130.79241984011605,322.15926610899623 130.3322114845505,322.4143750279327 128.8493502578931,323.65707066154573 128.01398471114226,324.4021447483683 127.47076408891007,324.30811077938415 126.92550456896424,324.7170907619293 126.07877944898792,325.50625349755865 125.62527032895014,326.0200625982834 124.94456974230707,327.09896780195413 124.53795527119655,327.37656682136003 124.32154083566274,327.8345819382812 123.72210488899145,329.1987234472181 123.73171683563851,329.90598608215805 125.11787605343852,332.6904730711831 124.44999139558058,333.21641275205184 123.3364619378699,334.1693096574745 122.98489770665765,333.72975385701284 122.46527004451491,333.13902906305157 121.08347989339381,331.98096989199985 120.53297749336343,331.4514279740397 120.00839822227135,330.93178279086715 118.13727260450833,329.04665268410463 118.06678499560803,329.12088842492085 117.551235129009,329.2189695467823 116.83325184008572,328.78165337990504 115.6364188445732,329.1550818484975 114.64638833794743,330.04410898912465 113.856169813429,330.0409596079262 113.48188643564936,329.75931475654943 112.93750072899275,330.0409596079262 111.74241536005866,328.62238369474653 111.32123733346816,328.21386092179455 110.57995235559065,327.961458255013 109.76031544897705,328.11128019401804 108.91417287127115,327.15655725472607 108.36658318236005,326.4425369539531 107.87841280014254,326.4137421356281 107.09372842672747,325.0396849947283 105.88087552005891,323.55763727333397 105.42095843562856,323.59273141546873 104.89637916453648,323.05866995151155 104.09538360894658,322.009440097434 103.6829437155975,321.3071011809516 103.4222560711205,319.8268279255135 102.30464881786611,318.00999254273484 101.86191672889981,317.3017916061217 100.91149909340311,315.97087157762144 100.39973575121257,315.4588386613177 99.62874112010468,315.4282426319551 99.13853184005711,315.4547891871189 98.97571128897835,315.73825220257277 99.18775665783323,317.1204666015692 99.3727138134418,317.45387052639853 100.36303559120279,318.80412873381283 101.15383665787522,320.1147846011445 101.21937265782617,320.58856249495875 101.42326243571006,320.7496377467178 101.72152405348606,322.623591115349 102.41358421347104,323.90902836585883 102.88107434671838,324.2581692771055 103.16885020455811,324.72968859307 103.16215096903034,325.00999014789704 103.3179810133297,325.2817428377457 103.74760590237565,325.4963552368572 104.20198883558623,325.6538275133353 104.09276216896251,325.883736833639 104.09014072897844,326.0020658026333 105.80135850666557,327.11201541370247 105.90213831118308,327.6267205795739 106.17360298673157,327.81478562689153 106.59012067562435,327.9124174178578 107.44092359114438,329.0790464649908 107.4677205333719,329.47541997913504 107.61772515566554,329.64503702986985 107.63549269340001,329.78450983786024 107.28975388454273,330.33430178347044 107.91889948456082,330.59435019339435 108.43765333341435,331.0595571320737 109.05369173339568,331.2134261341416 109.3711772444658,331.6412893696688 109.33564216899686,332.0124634236563 109.32370005338453,332.4313269640552 109.80371484451462,332.80564902035985 109.90478592005093,333.09853758697864 109.9595448889304,333.1624241346726 110.02741105784662,333.16557347099297 110.88258304004557,332.8132974210894 111.03258766233921,332.8893315079622 110.8048136534635,333.7198559680255 109.79730688012205,333.97630112909246 109.74866460449994,334.29438269219827 110.41218019567896,334.54587825451745 110.53917440003715,334.70019470877014 110.54732999124099,334.91119866410736 110.42994773341343,335.2432257983601 110.40315079118591,335.93607212638017 110.2988757333951,336.60147247777786 110.20625152008142,336.83361979189795 110.01721656904556,337.1489978224272 110.17566805332899,337.4049890709575 110.19955228455365,337.5934956163401 110.00906097784173,337.9916532993084 109.77604408899788,338.32502544642193 109.59021312010009,338.657947192085 109.5680765156867,338.7740197897656 109.99478869349696,339.61756879708264 109.79031637345906,340.2150244747754 109.32078734226525,341.1642918148427 109.64759352896363,341.6942601322662 110.24877710232977,341.7689414728666 110.24003896897193,341.9034577992279 109.97847751120571,342.08026341348886 109.83575466682669,342.3789880964905 109.8555611022748,342.6696144301677 109.77225756447297,342.8419205727405 109.59632981347386,343.02547370339744 109.56225109333172,343.12354859744664 109.64060302230064,343.3273462872021 110.20217372453772,343.53159367118496 110.46781297784764,343.78307862451766 110.4919884800911,343.92974055709783 110.5627673601266,344.0737030946766 111.70658901333809,343.6746567033697 111.7552312889602,343.82716719130985 111.5760995557066,344.33913377526915 111.32036352006253,344.7732697034371 111.38386062229984,344.8857400107663 111.78552348457742,345.146670901333 112.37884273787495,344.9347770466702 112.84167253342457,345.6509864482796 113.07993230223656,345.7297153538093 113.23343217780348,345.93396049703006 113.2078003201168,346.1535013195826 113.25469496904407,346.41218130965717 112.88914972450584,347.0505572296679 112.82070101343561,347.3065369031392 114.04520476446487,348.3533961796202 115.16164693341125,348.8653521814849 116.94917774235364,349.75654865807155 117.69949212449137,351.3315417400445 118.34349255124107,352.72432824084535 119.59683214232791,354.1076587778516 120.9824088178575,355.3434266676195 123.29422762675676,355.5305681936443 125.20729628449772,355.562058338488 126.04615708452184,355.57825326838065 127.10201486235019,354.3874728679075 128.64720810670406,353.9511066873674 130.7874682311667,352.42111901415046 132.35974968899973,351.8479894474149 133.93261368898675,351.1925325236516 136.4710414223373,350.28739592107013 137.38650652451906,349.91895206749905 139.0164596622344,349.52756414480973 139.603662222391,349.1802630115999 140.3038779734634,348.9994142759824 142.5545298489742,348.16804801742546 143.1580435911892,348.25172463431954 145.49491171562113,348.5571890021092 149.5540659200633,349.50282120669726 148.35228131571785,351.50519066955894 147.39603825786617,353.16339605057146 146.67048192000948,354.54132547881454 146.01337429345585,356.17701497499365 145.53743729786947,357.4069230669993 144.71692657785024,358.8230632580817 144.16642417793628,360.88067884230986 143.5751438223524,363.31344469147734 143.17202460451517,365.23786569130607 142.70657336898148,367.62784887396265 142.41093319118954,369.18966832448496 142.04655303119216,369.9120960192522 141.20565333333798,370.78746287187096 141.02448270225432,370.9678437875118 139.40909312013537,372.5048990789801 138.58508714672644,373.26195219747024 137.68069034675136,374.0302482303232 139.2474376533646,378.1145870416658 145.51763086230494,380.44595466088504 145.9591978667304,381.99778699321905 146.94718947564252,381.9618025999516 147.53380949341226,383.65396229724865 147.7810986667173,385.1634908549022 147.78605027555022,386.6185837726807 147.65672590234317,388.51491292356513 146.47766044456512,388.1996088589076 146.09988181339577,389.7446394171566 145.87123399123084,390.54301338194637 145.20597077335697,391.89596948958933 146.63552938669454,392.6147240222199 147.68235776002984,393.0820481381961 148.53985991119407,393.3064892985858 148.73705045343377,393.07844988128636 149.05628359119873,393.13467263936764 149.55668736004736,392.7959865262965 149.74310087121557,392.6520560142817 149.99534165346995,392.45999858994037 150.30729301343672,392.3286617999547 150.56623303121887,392.25624661840266 150.8167261867784,392.17708465334726 151.03139299561735,392.1986742829904 151.35295630223118,392.4033258751151 151.94656682678033,393.2237294585793 152.0689006934408,393.4369259393425 152.22385692456737,394.0706669954816 152.3659972267924,394.8271957911202 152.54396387562156,395.6480400718283 152.83290481788572,396.14054516365286 152.8282444800716,396.3807253271225 151.23237006226555,398.3606274268823 152.86028430226725,399.79584286164027 154.4080989867216,401.2072113249451 156.66108103119768,401.8265374448383 156.91303054231685,401.71814425621415 158.1290874312399,399.3618159957696 158.58871324453503,398.07457270950545 158.87881927122362,397.0625836820109 159.25543281785212,395.72090390860103 159.5601024000207,394.83259313344024 160.23439502238762,393.0195284153451 160.67887473781593,391.9652362994384 161.11432504898403,391.0526218331652 161.13820928009227,391.0247350818245 162.12066673778463,391.84019619820174 163.8473218845902,393.2241792404093 163.86916721786838,393.1792010535137 164.793370453408,390.9041923095938 165.63718286226504,388.76319768780377 165.76475960901007,388.4231554394937 166.67731200007256,386.060836779885 166.93858218681999,385.36095225368626 167.25665024016052,384.5688565924065 167.39092622231692,384.2445508415112 168.3512470757123,382.2537258200464 169.31127665785607,383.49113410164136 170.2584903112147,384.66826228122227 170.6234530133661,385.1252579895081 171.1157011911273,385.88856463943375 172.20942421350628,388.0786147393519 172.86798819561955,387.965716820152 173.9017093689181,389.53458786796546 174.34385891561396,390.45035717246355 174.76270677347202,391.3400350792799 175.37204593792558,392.99524017283693 175.57331427559257,393.4315285626799 175.85526471119374,394.3130983269075 176.17857564450242,395.9174562364351 177.78231438226067,395.77577665867284 179.21682460454758,395.58956907410175 179.3776062577963,395.1492369825137 179.89869027561508,394.93514261196833 180.3685105778277,394.5685729830875 183.69686556456145,394.22269261127803 184.7748599468032,394.09000753820874 186.19771932449657,393.82868517632596 186.95356785785407,393.59389958682004 187.08056206232868,392.6273179479758 187.23668337787967,391.9665856526699 187.509895680123,391.0818579396 187.8445661867736,390.59743764204904 187.89204337785486,390.5628040235606 187.7149505423149,389.5903617464937 187.47698204452172,388.578783306526 187.26872320007533,387.89824791636784 186.86560398235451,386.97886958316667 186.67365632008296,386.4476614581654 186.6052076088963,385.8750707323197 186.52365169790573,385.3168720479589 186.4889904356096,385.2152176622767 185.9224681245396,383.8761641146266 185.5732340622926,383.03458478627726 185.62711921788286,383.02648833661806 187.06133816891816,383.2315983021399 187.76767061336432,383.35259509971365 188.49177059566136,383.4659451987827 189.4686939023668,383.929690429708 190.2664854755858,383.56085337145487 191.57633166224696,384.17483178927796 192.96511232003104,384.96827827207744 194.44447829341516,385.640726413636 195.3069320534123,385.3816429594299 196.09190769784618,385.2898841626011 196.84659114677925,385.244904346182 198.86859520012513,385.3371129598818 199.54463544895407,385.12076000485104 200.56816213345155,384.5211778297089 201.54071637336165,383.7079384679673 202.24355356453452,382.98420687241014 202.46724977786653,382.7620041500777 206.4329059557058,380.78510968061164 206.67262208007742,380.68120415339945 207.3317686044611,381.073885821912 207.83595889783464,381.601508535794 208.69375232013408,381.8677933443687 210.24680988455657,381.23986445972696 211.07780636451207,381.51649524329696 211.3026676622685,382.00948191975476 211.04838798230048,382.39001649688 210.51448803569656,383.9638752962928 210.54099370678887,384.5436678134138 210.919063608977,385.0766797508695 211.27324928005692,385.2494023281615 211.42674915562384,385.86292621528264 210.98372579563875,386.3338631063234 210.07991153781768,387.4880365341669 209.94097521784715,388.0174429656472 209.54251633794047,388.5981243342394 208.90405006229412,388.5688878962537 208.38150968891568,388.47937939257827 208.214320071158,388.5958753776504 208.06256782228593,389.2485216225032 207.73809180455282,390.0239581888309 207.05389596452005,390.4170728935278 206.93913514679298,390.60778274782933 207.11797560902778,391.2523268517107 207.98771114682313,392.79328783013625 208.62180835555773,394.2766661773203 208.4598616178846,395.6763760112226 209.6266936889151,396.88672200078145 210.16700160014443,397.86003142624395 209.64737393788528,398.7825124761439 209.99369528889656,399.4067929129815 209.46445568010677,399.8052879962488 208.69666503113694,400.0859432404977 208.04159630229697,399.91817981243366 207.25021269347053,398.9044002229348 206.5896098134108,398.5391865501879 205.6470564978663,398.3358900054591 204.03166691563092,398.29316172539257 203.40601656900253,398.07862065627705 202.78124003566336,398.03274392243475 202.26743779564276,397.90860682952916 202.00733269343618,397.9720247009536 201.911504497868,398.11685126047814 201.96509838232305,398.81399640248856 202.07665521791205,399.2669146701228 203.0663944534026,400.7826323484769 203.81991281791124,401.049343602499 204.7758646045113,401.83148485061247 205.48918755562045,402.9653373298934 206.3854287645081,403.98089716164395 207.4733263645321,405.39808549534064 207.64867157349363,406.2643154232064 207.58546574227512,406.5714979028562 207.44856832013465,406.8359533381881 207.26506752008572,407.48809547902783 207.71741155569907,407.410288277315 209.68727808003314,406.7361079562106 211.23451022233348,406.33087915950455 212.73805169784464,406.56834962184075 213.7947832889622,406.76264344505034 214.8899626667844,407.20789947302546 216.65390051563736,407.89152312790975 217.03430058667436,408.10830334119964 217.37508778681513,408.30664355598856 217.75636167114135,408.457310038968 218.8864935822785,408.92864809860475 220.2094469689764,409.3977364008897 220.4028509866912,409.45530421542935 220.156726897927,410.2473098769551 220.00672227563336,410.6925588209415 219.84273664001375,411.811074144789 219.8147746133618,412.22978508658707 219.52991146675777,413.5128975206171 220.96762567118276,413.7463125390932 222.29640448011924,413.8308635826688 224.30180608003866,414.17311507998966 225.01017742231488,414.3624550346285 226.05263672897127,414.48658280202653 226.5052720356034,414.5320063516265 226.7540175645845,414.2913963535102 227.42598001786973,412.56214475946035 227.65258894232102,411.93655258836225 228.14454584894702,410.2985810135724 228.1547403378645,409.56459307158366 228.26775352889672,407.8478972084122 228.7069903644733,407.1008582074428 229.52691854222212,406.1554746754118 230.3261664712336,405.1205853598658 232.8852744534379,405.75923992629396 233.32771527115256,405.733154072077 233.92219960899092,405.4911851377692 234.53532529785298,405.29374188760994 235.2177735111909,405.08820282516535 235.7391488000285,404.966318519786 236.02546830230858,403.9880933171953 237.69299541343935,404.63889466261026 239.29149127122946,405.410678685992 240.42104064009618,406.15502492012456 241.28349440009333,406.987970093498 242.0274008178385,407.53531948971795 242.28168049780652,407.75075079966336 242.3958587733796,407.8492464637384 242.75674368010368,408.16272323660087 242.8546107733855,408.24187942396384 243.62094506679568,408.93809283943847 245.02836707560346,409.893358808069 245.43352519127075,410.06921004585456 245.87101440003607,410.1775991016766 246.38423409778625,410.1479157971917 247.17765660455916,410.05931560660247 247.44941255112644,411.07799076172523 247.63436970673501,412.0368453429546 248.5090568533633,414.9093362648273 248.93198250676505,415.66534334846074 249.4108322134707,416.34264432569034 250.04522069345694,417.15216465841513 250.2380421689013,417.3702849029796 251.11476821347605,418.21847826393787 251.2915697778808,418.37453469098546 251.82983879116364,418.8463011387503 252.47500430222135,419.4543341847602 253.07385770673864,420.06371472298633 253.68086670234334,420.65015756629873 253.90048512013163,420.8570312007796 254.37816974229645,421.1471036853036 255.7054921956733,422.02181606087834 255.88229376007803,422.87358917651 256.78523420449346,425.35873299033847 258.5823769600829,426.01396798482165 260.4331136001274,426.5185470634606 262.29462727112696,427.5524358582916 263.1902859378606,428.8876247367589 264.01574826671276,429.79198684787843 264.113615360111,429.91160880669486 265.2859815823613,431.720770542277 266.86146702233236,432.5234885250102 267.89722709334455,433.13058420526795 269.18872320011724,434.0983362105908 269.3914478934603,434.19367214333033 270.5466291200137,434.5817609130172 272.2598857956473,435.84810372669017 273.34283178672194,436.4259601419326 274.65762958233245,436.2474319025059 276.24505713791586,436.3234300877084 277.56655416905414,436.42191290389746 278.74066801788285,436.27666197682265 280.17110044450965,435.8337135085603 283.53149525343906,434.51295727625256 286.35507740452886,432.08323067909805 287.59938759123906,430.9576236035209 288.3645568001084,430.0474201244069 289.0991425423417,428.40913427242776 289.3100228267722,427.89511562604457 289.4119677157141,427.66981048474554 290.4445238044718,425.3672775910236 290.6414230755763,424.82536935806274 293.60772807127796,424.3131411734503 293.67151644453406,424.2830100664869 293.60394154675305,424.1872201017104 292.7854697245639,422.7715024994686 292.007484586793,422.0434027487645 291.6690275556175,421.24604304949753 291.71475712012034,420.21437311859336 291.76718592015095,419.7808364404482 290.6559866311727,417.91760835429886 289.72158890683204,416.6628549483139 289.1058417778695,415.8605285725789 288.3823243378429,414.5891230786219 288.30309859558474,413.5844061942771 288.1335788089782,412.9979444324272 288.09920881781727,411.7966823474271 288.3767901867395,410.2167270879727 287.9626026666956,409.2403243309236 288.00134172453545,407.79572599427775 287.4703544889344,406.3439220514265 287.13014983118046,405.3436649129726 286.8228588090278,404.4931728984229 286.40692366240546,403.33773979905527 286.4016807823209,402.61002520506736 286.07516586675774,401.7653695109766 285.26688853336964,400.8420014921576 285.11484501347877,400.6674921453232 284.251517440076,400.57259138533846 284.97969521791674,398.82748951233225 285.5666065067053,398.19151336245704 286.2703175112838,397.1970660488005 286.49983914673794,396.87682696583215 286.9070361601189,396.00426304357825 287.2993783467682,395.37232669221703 287.6258932623314,394.83034424087964 289.170212693396,393.68430556205567 289.59226453339215,393.7769604033092 290.5700616533868,393.77920930669643 291.0197842490161,393.53632760309847 292.25885155564174,392.6241694666678 294.12589937786106,392.5103743241052 294.41280142229516,393.37890413287096 295.14622208010405,393.9087461051531 295.62594560009893,392.79508696089033 296.6969494756777,392.4734920912888 297.9756296534324,392.29672715766355 299.25139712006785,391.762383437308 300.13773511117324,391.72730021813186 301.6144796444569,391.1389807824744 302.52877966233063,390.8650608729804 302.90947100450285,390.75801161979325 303.71075783122797,390.7053865476628 304.07513799122535,390.63746870076284 304.6809819022892,390.1193133078632 305.96752640011255,389.56382417702116 305.290612337878,388.10875082737766 305.36779918230604,387.51502414874267 305.3878968890058,387.01260417921003 305.02642944001127,386.0950213139877 305.0226429157192,385.5494175228523 304.4986461867811,385.5363733925624 304.29126115562394,385.19497673906153 303.99037809786387,385.25390031014103 303.1468569600256,383.9692729063099 302.89840270229615,383.78440468700137 302.7256789334351,383.25903624354396 302.87247957347427,382.59017921832856 302.6062577778939,382.115635839873 302.8477215289604,381.37435654283036 303.35307690675836,380.8512313540559 303.44948764448054,380.529618945322 303.4407495111227,379.5058537835721 303.53453880897723,379.1307119242265 303.9399881956633,379.1136191143887 304.6658358045388,378.10873947443906 304.7267114666756,377.4974429347785 304.6402039467357,377.205963189248 304.6964192711748,376.73230777529534 304.6023387023015,376.1174088579719 304.754673493444,375.46292420709506 304.69700181344524,374.6168143473915 304.9751657245215,374.4323880535667 304.9384655645117,374.07702963479096 305.1615792355733,373.8224307169439 305.37828494235873,373.9281387841329 305.5909128533676,373.44278089737054 305.5370276978938,373.26195219747024 306.1073365334887,372.3632043541875 306.4874453333905,372.2282569120871 305.95296284451615,371.5841066427529 306.11665720900055,371.33715188194765 305.80004551121965,371.0353179073427 306.33714944007806,370.51171819254523 306.5323010844877,370.17434657912236 306.7562885689549,370.0137575084809 307.1320283022942,369.71911899157567 307.55757539568003,369.3277664553607 307.80428202671465,368.743435332377 308.2344894579146,368.49872653128114 308.22924657783005,367.92114070325624 308.56333454232663,367.8977493447019 308.90703445335384,367.2990196842584 308.91722894238774,366.8136471052421 309.1764602311887,366.718281838228 309.165391928982,366.391700467444 309.31277511117514,365.95625788206235 309.33199900446925,365.80556215764955 309.64453290670644,365.1038135375711 309.80910108448006,364.6287824261235 309.77385728014633,363.79972471285146 309.9821161244763,363.5972956030164 309.8399758222513,362.97066386102233 310.1050325334072,362.844257671386 310.2428037689533,362.108761134441 310.2229973333888,361.9783058332978 310.1222175289877,361.51226488128304 310.3045532446122,361.2194143162342 310.2168806401314,360.9998885974055 309.5795794490259,361.220314011327 309.4380216889549,360.1802639894886 309.25364707561675,359.9045059536584 309.2545208890224,359.5950087560341 308.5726552179549,358.5473035132745 308.3046857955633,358.40874873060966 308.0142884978559,358.0592124121031 308.0643871289212,357.38802913978 307.79700024891645,356.79241974116303 307.4751456711674,356.8895887566032 307.3673753601033,356.5391502989223 307.0356175644556,356.3484107743716 306.7105590045685,356.18331298569683 306.60919665778056,355.88280769932317 305.83325041783974,355.12794379889965 306.27656504896004,354.49364017823245 305.86004736006726,354.1418483000598 305.95966208016034,353.896223456657 305.880727608921,353.80895009438973 305.51343473792076,353.50889141322114 304.87700736010447,353.29655578616075 304.41242993786,352.8026047386229 304.10076984902844,352.9015749831451 303.85202432004735,352.60466411546804 303.46492501348257,352.5997155975783 303.30414336011745,352.1372536155395 302.7402424890315,351.8808297222131 302.8343230577884,351.4408596055 302.42479587567504,351.35133592557395 302.1853710223222,351.4138675450813 301.9771121778758,351.1156050552381 301.8606037334539,350.98649281077087 301.16679594665766,350.3922156097833 300.6162935467437,350.74941194063285 300.36114005348645,350.6697851011995 300.43191893340554,350.1542343556648 299.85520213341806,348.9382315851981 299.4290724978782,348.16309939918574 299.48208384006284,347.8081482251873 299.1144996979274,347.15222933271434 299.1328497779323,346.69065560091985 299.2353772089118,346.4607681258931 298.7795379200252,345.803495559725 298.68545735115185,345.7684049770469 298.42913877335377,345.7540088390233 298.3178732089,345.46203695918666 298.40583708451595,345.0103570438223 297.50027520011645,344.10384523903485 297.52328561781906,343.17618510499597 298.08835157344583,342.55174435372464 298.07000149344094,342.09870877477806 297.63455118227284,341.8742151266197 298.1052452978911,341.1256013781531 298.03563150228,340.2766594933346 297.7295055645518,340.57583652681205 297.5145474844612,340.26091332233045 297.35493091563694,340.1007522046566 297.04501845350023,339.94149075233145 297.28356949344743,339.69899922260083 297.3534745600773,339.07589823461603 297.06511616008356,338.54052485030843 296.9020043378696,337.89087673381437 297.0954083557008,337.54175755917095 297.01297863118816,337.34245345095405 296.78229191119317,337.41803606867325 296.75170844455715,337.11255616165 296.39781404449604,336.68830280040856 296.6783081245376,336.6640083094826 296.6334523734404,336.33108353218995 296.41208632895723,336.2779954803409 296.34509397344664,335.9491192115238 296.7010272712214,335.81010022980627 296.8236524090171,334.87925564777106 296.3669393067248,334.58142053789925 296.23761493340135,334.29168327490333 296.1551852088887,333.8278329145396 296.4636413156986,333.76754579268163 296.61801500455476,333.4206695672474 296.36140515562147,332.98021245282143 296.59500458673574,332.9158759462298 296.7161733689718,332.66167907440104 297.1626919823466,332.9586169841932 296.95618076459505,332.39038545032963 296.64393813337665,332.3899355435278 296.3780076089315,332.09569630696205 296.6072379734833,331.8329502324341 296.418785564485,331.5859506386332 296.37596871121787,330.97722367430106 296.202079857816,330.79006116325036 296.36431786674075,330.6064977759961 296.27664526226,330.424283967237 295.9923646579264,330.5471095882822 295.986830506823,330.3284529403318 296.0750856534578,330.1412898746785 295.9812963557197,329.7314201988629 295.8362433423754,329.60499482019804 295.6582766934298,329.7219720414141 295.60118755558506,329.2324669454247 295.3265188978985,329.0435032885289 295.5461373156868,328.7605074114399 295.3483642311767,328.52385239081923 295.1858349512331,328.16527005669195 295.35797617794015,327.964157750248 295.3428300800733,327.72255278896773 294.89689400896896,327.45755188225303 295.1899127467768,326.7475818285602 294.9726244978374,326.87940787442494 295.2111755377846,326.3381557193352 295.2306907023303,325.86034098430537 294.94087594677694,325.80545071256347 294.8540771555854,325.5710421021213 295.13194979564287,324.93440324719995 294.75446243560873,324.520474518009 294.91844807122834,324.4489367561182 294.58785536000505,324.18168226932175 294.7014510934241,323.9004798056558 294.9047583290376,323.9756171393092 294.8613589335,323.73670732439496 294.44134599121753,323.8001466792193 294.346974151209,323.55178824905306 294.6143610312138,323.35202148131793 294.7270829512272,323.05552046978846 294.9586434845114,323.1931977724307 295.0838900622912,322.7707171473885 294.79669674672186,322.6762325509917 294.6816446578596,322.2820963662816 294.3830917690648,322.2820963662816 294.24444672011305,321.4002365800552 293.98696305789053,320.7892316452344 293.61209713784046,320.61015918361954 293.1778119112132,320.6753991677542 292.8754724977771,320.05629343213513 292.65439772454556,320.05899302486796 292.5952696889872,318.8761182744638 291.9302977423649,316.65028071659617 292.6771168712294,316.14139897032874 293.69773084449116,315.30405870400136 293.55180401785765,314.4874126408831 293.661904497887,313.708108984516 293.3793715201318,312.78481953858864 293.6065629867371,311.79763343639206 293.7688009956619,311.3805302224355 294.05628558225,310.874335934408 294.0338577067014,310.6142641027691 295.0739868445089,310.27725014532916 295.7657557333587,310.2336047750432 296.1653796979226,310.1490137234796 297.2605590756284,310.03337590326555 298.1626257067546,309.9316865634173 298.65137863124255,309.898839996662 299.89277610671706,309.80434984568274 301.77060096000787,309.62661826063413 302.07177528890315,309.55552558612544 302.4711079823319,311.22529743181076 302.5567416889826,311.20819932065206 303.87794744898565,311.21134897274897 304.4197117156582,311.2419455915224 305.7013046045322,311.12405859609134 306.1600566045381,311.1303579027881 306.97415936004836,311.07591388886794 307.4337851734599,310.677257308329 310.499996160157,310.7294516648981 314.2882682312047,310.6462106592953 314.4974008889403,310.8419394600205 315.5322871467797,311.3733310230309 316.50629774224944,311.6810965882032 317.00204117340036,311.9128203759901 317.1406862223521,310.16521201247815 317.42584064009134,309.097022277012 317.4313747911947,308.6029715130571 316.96446720010135,307.43353361357003 316.75125674682204,306.95522766339127 316.6417388089467,306.4940191488713 316.68135168007575,306.2762384004891 316.66970083559863,305.9752146539977 316.62601016892586,305.7034380012192 316.5744551823009,305.5765487862518 316.2517267911462,305.25842550199013 315.9240467911586,304.38234668486984 316.0988094578497,304.27120546472725 315.8754045156529,302.50058772892226 314.76740920892917,301.7639885346871 314.7152716801502,301.60469919559546 314.91566620452795,301.5120053460123 316.59222272015177,300.74615465995157 319.54891576897353,299.63112166849896 317.0113618489122,292.55966442101635 316.54765824007336,291.30284254753496 313.96932636457495,290.3637088545365 313.90553799120244,290.3533590118168 313.84204088896513,289.7809669479029 313.1802729245974,288.1807811942417 312.63501340453513,287.26503408537246 312.13257073785644,286.49328354769386 311.751588124549,285.4173282576958 311.4836187022738,284.8399732391117 311.11982108454686,284.45206901227357 310.9127273245249,284.12986497877864 310.69048746675253,283.6569081991911 310.47873336891644,282.9220456383191 309.993184426683,281.74707042996306 309.88104504894,281.39381161815254 309.7202633955749,280.474886026117 309.5274419200141,279.88446754787583 309.1726737067802,279.5649568842491 308.82460472895764,279.2566961541306 308.673435022356,279.1630928099621 308.04254179564305,278.76752823602874 307.8066121956799,278.4084143860964 307.5118458311772,277.9624463664368 306.9485275023617,277.66138368821703 306.97328554675914,277.4296236463124 307.5686436977703,277.3072182437172 308.07312526227906,277.1848127726116 308.6629492623033,273.55356934072915 309.63666858675424,273.6197234032443 310.5136859023478,273.82673598686233 310.8340841245372,273.19444693799596 311.1812792889541,272.5099526066333 310.6103879112052,271.9609155015787 310.3013492622413,271.4262780464487 310.15483989345375,270.7093757734401 310.0444481422892,268.3241849594051 309.78958592005074,267.6675778698991 309.3110274844803,266.9403123385273 307.0466858667787,265.5753328229184 305.97772088903,265.28910458495375 301.2434002489317,264.2571496703895 299.40810097788926,264.09738299273886 298.2741825423436,264.04022699804045 295.50798080011737,263.27514531754423 293.475782257854,262.9137558056973 292.6963407645235,262.3826966609922 291.30930773343425,262.2152777482406 290.5059820089955,262.17972371540964 290.4832628623117,262.09871450497303 290.35189959127456,261.89754150272347 290.40374584903475,261.1612557392218 290.5613235201454,260.4128160222317 291.2029937778134,259.27417462394806 291.4115438935114,259.4087416433031 293.1880064001307,260.1009278803831 294.22900935122743,260.38041208020877 294.32978915562853,260.30615302803926 295.1450569956796,260.53253054455854 295.18700003565755,260.4785240011988 295.3536071112612,260.54198168823496 295.3600150756538,260.2350443364121 295.7698335290188,260.4429696862935 295.86129265790805,260.4740234554047 296.6191800889792,260.84621828683885 296.64422940451186,260.883122697589 299.1497435022611,262.06496065843385 301.09077418677043,259.36373596044723 296.99812380457297,257.21155340533005 296.11528106674086,256.806947923149 295.0768995556282,256.37848835473415 294.2756127290195,256.1269029863761 293.73122702224646,255.98018222663086 293.0473224534653,255.7745029592188 285.4043684977805,252.17395931773353 285.08018375118263,251.88456305139698 284.70065749343485,251.46599545743084 284.0618999467697,250.70942124875728 283.9570423468249,250.6135553236236 283.84082517342176,250.53254183294484 283.7187825778965,250.4731319207931 283.5772248178255,250.4537786883302 283.440909937839,250.47268184565473 283.3098379378207,250.53074153279886 283.2017763556214,250.62705756910145 283.13711416895967,250.747677592095 283.0934235022869,250.8935017103795 282.9375934578711,250.8917014132021 283.1461435734527,250.1054202117375 283.217213724507,248.79974610498175 283.4548909512814,247.8464775676839 283.59528362669516,245.99393816979136 283.7648034134181,245.38272275199415 283.92587633780204,245.0505593129201 284.7816308622714,243.6606883991044 285.05047409783583,243.38658392906655 286.37663146678824,241.08751354779815 287.27199886227027,239.67196192324627 288.00541952007916,238.6907474764157 287.63230122672394,237.94133072765544 288.3829068801133,236.79672109591775 288.59407843567897,236.43033672485035 289.08079246233683,235.71196951932507 289.4565321955597,235.13043243589345 290.05305543122813,234.1586499141995 290.34520035563037,233.7260950281052 290.9152179200901,232.96945950412191 289.24099157343153,232.62062309018802 287.63230122672394,232.02917530649574 287.56589141348377,231.55115469708107 287.33753486233763,229.6579667754704 287.27840682666283,229.38564524473622 287.0649051022483,228.55787573492853 286.77276017784607,227.66753613943 286.55314176005777,227.04681695846375 286.516441600048,226.91493078536587 286.3489607111551,226.19023060047766 286.4249824711587,225.01900199981174 288.34416782227345,224.63504291238496 288.5323289601365,224.60803521377966 288.85389226675034,224.4617434553802 289.05952967121266,224.32310379098635 289.4571147378301,224.31005005177576 291.2694035912864,224.8348997781286 292.8757637690287,225.10947760695126 293.0216905956622,225.01720148976892 295.38040405348875,223.99540968961082 296.1831472356571,223.52862479991745 297.5104696889175,222.689579833881 298.5345789156854,222.12826415814925 299.2595527112717,221.30271787865786 299.54558094230015,220.81882207433227 300.1144334223354,220.20483553269878 300.9931983645074,219.7173361942405 301.98526776896324,218.99486287857872 302.8488866133848,218.42048363760114 303.6236677689012,217.72456445009448 303.7710509512108,217.1015663536382 303.2866670934018,215.95099584333366 303.228412871249,215.44007937796414 303.10724408901297,214.88459703954868 303.02801834675483,214.46100704814307 302.64150158234406,213.97754626872484 302.46936035563704,213.79253445885843 301.856234666775,213.0754434115952 300.7738712178543,212.12697097891942 300.95067278225906,210.9592683763476 301.4924370489316,210.28898446133826 301.90371185785625,209.81946938845795 302.0510950401658,209.55747683905065 302.12740807118826,208.7841018140898 302.11896120896563,207.71991890762 302.058959360118,206.76151963695884 302.11226197332144,206.49187061213888 302.3531431822339,205.67841987218708 302.56955761788413,204.89917894580867 302.65548259567004,204.60116695117904 302.60014108452015,202.90042003791314 302.1882837334415,201.64803522266448 302.33974471117835,201.30860258976463 302.34294869343285,200.17865727387834 302.2919762489619,197.9664685584139 302.8028657778632,197.19080165296327 303.6085216711508,196.35615758271888 303.9062007467728,196.17473237181548 304.36233130679466,195.87040587386582 304.90671701333486,195.29326481476892 305.2722622578731,194.2776369152125 305.5376102400478,193.3745524752885 305.850144142285,191.28880034235772 306.2296704000328,189.40651915967464 306.7099764622981,187.2203334677033 307.3225196090061,186.5765390378656 307.50602040905505,186.65802640945185 308.6338221511105,185.19755200902 308.9941245156806,184.07247584225843 309.13451719121076,182.80872792901937 308.8875192889245,182.3517599295592 308.78732202667743,180.77239914191887 309.54724835557863,180.60851954773534 311.2101151290117,181.12266885204008 311.65605120011605,178.50463682529517 311.9345063823275,176.77442237525247 312.3318001778098,175.2440963999834 312.8319126756396,174.19550852233078 313.6069851022912,172.75971388019389 314.3002103467006,171.79305724287406 314.70274702238385,171.1370609960286 315.58646357338876,169.42074579617474 316.0795855645556,169.72826076322235 317.34428472898435,168.78275216557086 318.1913011200959,168.42300758359488 318.4744166401215,168.69270351465093 318.7508329245029,169.05649983684998 319.1498743467964,168.4864919645479 319.32667591120116,168.50765342067461 319.067153351265,169.04974619776476 318.8023879112443,169.56347241578624 319.0447254756,170.17489959450904 319.1527870579157,170.41307658248115 319.35172522673383,170.8187422733754 320.109612657805,172.1545972302556 320.2476751644863,172.3644072106108 321.183529244503,170.81964275136124 320.3146675201133,170.24783851060783 321.2120738134254,168.71431519428734 321.22984135127626,168.6778454837622 321.81413120008074,168.5526777888881 322.67134208010975,168.28973534796387 324.2083797334926,168.92367822991218 325.6428899556631,166.24921922851354 326.0215424001217,165.6602935625706 326.49281905789394,165.93224414344877 327.0360396800097,165.56213913083775 328.1982114134589,165.77375642879633 329.1477552356664,165.37618588953046 328.82910464005545,164.24965706362855 329.5045623467304,164.3950885690283 329.4186373689445,164.47703445208026 329.5243687822949,164.49144251621328 329.632139093359,164.49774604401318 329.8369026845321,164.49774604401318 329.83078599127475,164.38203125511063 330.14098972454667,164.3950885690283 330.25545927113853,164.4527208416257 330.40400753787253,164.15600452612853 332.0759037156822,163.33294107788242 332.1396920889383,163.17400122608524 332.0974577778252,163.07539542438462 333.5951738312142,162.33382434095256 333.98460330674425,161.87231101386715 334.09616014233325,161.41394852183294 334.6859841423575,159.8614523197757 335.1558044444537,158.90464450547006 334.54763036454096,159.69845758995507 334.4509283556836,159.6863005196792 334.377528035664,159.7218712051399 334.37548913783394,159.66108585317852 335.14036707556807,158.44942764868028 334.85171740455553,158.66285288048675 334.8289982578717,158.64529258443508 334.6452061866876,158.50300910836086 333.79906360898167,159.2927712855162 332.4359148090007,159.5791381667368 331.6960861866828,159.56112768210005 329.2333889423171,158.77812042960431 328.3991884801071,158.56829742365517 327.5279965867521,157.49396446009632 327.22012302232906,157.25127074262127 325.42123264004476,157.92802082723938 323.8439995733788,157.5506980175851 323.1277639112668,157.4619955442613 321.1643053512089,158.54803553479724 320.30651192890946,159.54536850686418 318.77500842674635,160.56611045851605 318.3299461689312,160.68587960349396 317.5735150934197,160.68587960349396 316.94524330680724,161.4297075624927 317.0442754845135,161.7894636404235 317.1118503822945,161.99973381508607 317.60905016900506,163.062338031712 316.11191665788647,163.21722567314282 316.09269276447594,163.0272181443288 316.1477430044906,161.65393607597798 316.15881130681373,161.49094268132467 316.2351243379526,160.83536581275985 316.4331886934815,160.82140776747838 316.15881130681373,157.92621976521332 316.11512064014096,156.93113075196743 316.1028872533934,156.63800638343673 316.1049261512235,155.80951142159756 316.2185218845261,153.91521795024164 315.9790970311733,153.86253591498826 315.9342412800761,153.59867527446477 316.42823708453216,151.90428613952827 316.46872376895044,150.439977546921 317.101073351223,150.05948985443683 317.6061374578858,149.1125454234425 317.5915739022894,148.81175574997906 318.352082773461,148.4344172217534 319.3700753067387,148.36777502740733 319.4889139201259,148.11516490380745 318.8291848534718,146.79627415788127 319.40065877349116,145.43549838557374 319.6779488712782,144.51104860159103 320.03388216893654,143.03903550293762 319.60163584013935,141.02034864050802 319.5588189867558,141.25945796072483 319.2579359289957,142.09476248075953 319.28502414235845,142.90214543661568 319.2538581333356,143.07280771015212 318.9448194844881,143.38936561177252 318.62121728016064,142.36764294293243 318.77529969788156,141.99254479422234 318.06022912007757,142.19067594932858 317.93673016899265,142.20193339593243 317.9460508446209,142.68240067735314 317.3943833600497,142.72337768808939 316.04900209780317,142.8138873220887 314.6008021334419,142.37394710804801 313.941946880077,142.56127078738064 311.4271121068159,141.8943797464599 310.7979665066814,142.08170383621473 309.9879415468313,141.93355571117718 310.00920433783904,141.82998705352657 309.246365297935,141.6084400212858 308.4660499911988,141.057273260667 308.4165339022875,141.9646262988681 308.2936174933566,144.91496114054462 308.16633201786317,145.63227555109188 308.05069738673046,146.29870491148904 307.1684371912852,146.43874487711582 306.8966812446015,146.72738002205733 306.56783616007306,146.7935724274721 305.97480817791075,149.6020031849621 306.61909987567924,150.3904466421809 306.94386716454756,150.33055926056113 307.8887506489409,151.60890364530496 308.2371108978987,153.99491638957988 308.1928376889555,155.11339312116615 308.13137948454823,155.69739419943653 306.6333721601404,155.05710920336423 304.8408897422487,153.9584442260675 304.88428913778625,154.35558523552027 304.55165752896573,154.42762887885328 303.80687729793135,155.51188284618547 303.4468662046129,156.1719783534063 303.26365667558275,156.59748224628856 302.83577941334806,157.45028861617902 302.99219200003427,157.4701003402588 303.6219201423228,157.30034982779762 304.7220511289779,158.75740829639835 304.96875776012894,158.83935629046755 305.1644919466926,158.69347082910826 306.03044096007943,159.5372637877008 306.2308354845736,159.31393363076495 306.53725269343704,159.59894969814923 306.4804548267275,160.0289495397592 307.96855893335305,161.01186747057363 309.19714048004244,161.8169293492101 309.32500849780627,163.33834413031582 309.31685290671885,165.4644349050941 310.0438656001352,165.45588015508838 310.00221383117605,166.7305342113832 309.9730867200997,167.62517393485177 309.9588144356385,168.08217268425506 309.26442410680465,171.02270043327007 308.9096558934543,171.9605453311815 309.31452273787,173.88079610955901 309.01859128894284,175.30982995097293 308.49401201785076,176.68482723948546 308.2819666489959,177.44075690815225 308.1037087289151,178.44025490363128 308.0142884978559,180.23213627905352 307.9111785244895,181.46438387734815 307.78622321784496,182.17932742182165 307.1128044090001,184.33945122233126 306.469677795656,186.19251250766683 305.0267207112629,185.6851282394491 304.58515370672103,185.55501797574107 303.6225026845932,185.44336619996466 300.74066631123424,186.31857052852865 297.76911843568087,186.04394403274637 297.23900501348544,186.2402344812872 297.09861233783886,186.28930706589017 294.4739683556836,187.16450801171595 293.0575169422664,188.7505757045583 291.31222044455353,190.19571962673217 290.71336704015266,193.3178282036679 283.18138737778645,190.97906468069414 281.9134842312196,191.71963831724133 281.69386581343133,191.53415749571286 280.82267392007634,190.8498579597217 280.0618737778859,190.19481922849081 279.85361493343953,189.97872354695573 278.95329592900816,189.01754537824308 277.75675420451444,187.78038806078257 277.6918007467175,187.7160088677192 277.61898296896834,187.1325434296159 277.93996373342816,186.69179188611452 278.1604559645057,186.4464293041965 278.35997667571064,186.33928005362395 279.15369045338593,186.60265101661207 279.32583168009296,185.68963032320607 279.848372053355,184.88195499643916 280.2730453334516,183.97432966786437 281.01636920904275,183.44668067328166 281.0775361423148,183.2810022282647 281.13258638232946,183.1576437393669 281.2246280533727,182.67186273669358 281.16899527120404,182.06002025463386 280.8145183289889,181.11456493195146 280.85296611557715,180.38881264661904 280.89782186679076,179.73284216423053 281.3682247111574,177.9454589439556 282.19776483566966,177.0288003248861 282.0250410666922,175.99147670681123 280.01497912895866,175.29092030134052 279.2602956800256,174.71372497128323 278.9876659200527,174.0185672644293 278.5935761067085,173.95193286048016 275.96135907561984,173.58814467588672 273.89071274676826,175.86271136603318 273.6469188267365,176.09007668925915 272.9385474845767,176.82124594936613 268.2234507378889,181.6588775665732 267.0225399467163,182.93568832695019 266.5081551645417,182.77136013831478 265.7153152001556,182.52239144197665 265.59094243554864,182.4733180127805 265.3439445333788,182.3729200452799 264.3381853867322,181.36623653338756 263.3423294578679,180.84578474459704 262.30889955570456,180.36450080375653 260.7730269867461,180.23393715749262 260.3215567645384,181.13122298958478 258.9965644800104,181.6404186821892 258.37965226673987,182.30358689278364 257.8326451200992,183.62001260794932 257.1895185067551,184.40923394088168 257.3383580445079,185.12011597957462 256.72931015118957,186.0772593964357 256.6264914489584,186.35053522943053 256.1019121778663,186.84396156936418 255.33499534230214,186.93940522207413 255.15353344008327,187.33963782188948 254.40817066677846,187.7344672397012 254.19496021338273,188.03700423642294 253.69280881783925,188.14190163905732 253.028419413371,188.7415716626565 252.99870976014063,189.30702477437444 252.95385400904343,191.14878907275852 251.28661816893145,190.8525591462385 250.89981013338547,190.47529309708625 251.55517013347708,189.46459504694212 251.52837319124956,188.7636315646232 252.13509091571905,187.32703208189923 252.8114224356832,187.1717112971819 253.21250275557395,187.05330726259854 253.8955335111823,186.843511363375 253.99136170675047,186.34783398732543 254.31845916446764,186.42121772048995 254.4914742045803,185.14802897011396 255.12702776899096,184.37681874533882 255.39470592001453,183.21887277904898 255.9221979023423,182.56606228265446 256.33638542238623,182.2743228933541 256.56386816012673,181.83581264759414 256.8828100267565,181.75567412981763 257.07446641789284,181.137526038161 257.6171044978546,180.8836030823295 258.13061546674,180.48741064802743 258.1463441067608,180.05114792182576 257.7024469333701,178.649158412416 257.8673063823953,178.08187686803285 258.8054906311445,178.492931022658 258.64004864008166,177.52269790665014 259.0556925156852,177.54115713824285 258.88617272896226,176.965318421775 258.3764482846018,176.9455084624933 258.0085728712147,175.43409332237206 258.32693219557405,175.0459951678058 257.86876273795497,174.7222793593537 257.9442019556882,174.1099644205533 257.1370897067245,173.90690960304346 256.55017841781955,174.62998199660797 256.1712347023422,174.13292626175098 255.62917916453443,173.79975421330892 255.09353159111924,173.7547309246147 254.76934684452135,172.8848791689379 254.83022250665817,172.7236950788065 255.1998455467401,172.4859708410222 254.62050730676856,172.2721088534454 254.43642396456562,171.64267804357223 254.049324657768,171.721019315999 254.13204565341584,171.3040993483737 254.3580720355967,171.2054972097394 254.42186040896922,170.9024867063854 253.69339136010967,171.0911366827786 253.5899901156081,170.49456997250672 253.28007765347138,170.50042308773845 252.98181603569537,170.15418853983283 253.23201792000327,169.92546632734593 253.6016409600852,170.27530315786134 253.4711515023373,169.10377530462574 253.85912462230772,168.21994748956058 254.22874766227324,168.07721999357454 254.07262634672225,167.52611989283469 253.16327793791424,166.96781445405213 252.0631469511427,165.31810360978125 251.68041671125684,165.2163470205851 251.23768462229054,164.05109562631696 251.14360405341722,163.1767027543392 250.9563167289598,161.91238391696243 251.7165343289962,159.0005506068701 252.06518584897276,157.73305578128202 251.49079921795055,156.8185638365685 250.4614471112145,156.62539887492312 250.26920817792416,154.48301241348963 249.67443256895058,153.2668227883987 250.05221120011993,151.15006937651196 248.62906055117492,150.1036174550536 248.21021269343328,149.09498436108697 248.11875356454402,148.83336939301807 247.66437063121703,148.6591093353927 247.53271608892828,147.989084875735 248.15079338673968,147.60859292186797 247.86301752901636,146.75529790984 247.48378254228737,146.4117275273893 247.14124771556817,146.84580587618984 246.54763719125185,146.86336711910553 246.1098567112349,146.38380959583446 246.48559644445777,145.88713999208994 246.91551260452252,145.7218834006926 246.93153251567855,145.38866809592582 246.48472263128497,145.34724129282404 246.44423594675027,145.05995520344004 246.7212347734021,144.54527087457245 246.4488962845644,144.59615398111055 246.3300576711772,144.42324142926373 246.27704632899258,143.86037410306744 246.84648135118186,143.7189816031605 246.4421970489202,143.06830474949675 246.17917923559435,143.07190711796284 245.95053141342942,142.75624935049564 245.79033230233472,142.7904718979844 245.68110563559458,142.58828861254733 245.78829340450466,142.3906081148889 245.64353166229557,142.23660632787505 245.49993500451092,141.69534772529732 245.0706013867166,140.8767028027214 244.7207847823156,141.21217647736194 243.90639075555373,139.9900591650512 244.21164287999272,139.2367019461235 243.7141518223798,138.82017039175844 243.0896665600594,139.10251132654957 242.7497531734407,138.48109060595743 242.4488701155642,138.36446144792717 242.08478122670203,137.94882884656545 242.2985742223682,137.53949976019794 241.9831276088953,136.63122775475495 241.50456917344127,136.14534346334403 241.13028579566162,135.30776467279065 240.93251271126792,133.45877562707756 240.99659235565923,133.17372551187873 240.9799899023492,131.79620321351103 240.39832149341237,131.73045659076888 240.10209877335,131.04777131369337 239.71237802680116,129.59773351380136 238.186408675625,128.11661355540855 237.75678378669545,127.03267417103052 237.3594899912132,126.72194689285243 237.09210311120842,126.5607287978637 236.30246712896042,125.68528544844594 235.386128213373,125.39662254741415 235.02320440893527,125.39842387707904 233.389464746695,124.75850055518094 234.32648391113617,123.86413590150187 236.35198321787175,121.91912784456508 236.54189198231325,120.06822429021122 236.6706338133663,118.29926825634902 236.62432170670945,118.08985678124009 236.16469589341432,115.94619230541866 234.47532344900537,113.23956073180307 235.0840800711885,113.13237563089933 236.5217942756135,111.32463244732935 237.12676437350456,110.7468180108699 237.24618552892935,109.56776558095589 236.67733304901049,108.19234650535509 238.07980344898533,107.20063426328124 237.85814613336697,106.31970899261069 236.9161753600929,105.63379181921482 235.32350492454134,105.02848952030763 234.8676656356547,104.46687197615393 234.39784533332568,104.40426977083553 233.90559715568088,104.01289298787015 233.17858446226455,103.8165287686279 232.83488455123734,103.56882135989144 232.05719068448525,103.99487792921718 231.42717127117794,104.6380146042211 229.9393584355712,103.77779635589104 228.40931128896773,102.65455340547487 227.83725482679438,101.68983893893892 227.26723726233467,100.90392228215933 227.54627498670015,100.29410305741476 228.13114737777505,99.74598491820507 228.95515335118398,100.25041579513345 230.28451470239088,100.40714943787316 231.06541255116463,100.8115937790717 231.12920092453714,101.28449545695912 231.51018353784457,101.69524351356085 234.6288233245723,103.4602803888265 235.02699093346018,103.67646152281668 235.2853484089719,103.313907624688 235.7426440534182,102.54015704774065 236.61034069338348,101.18406023376156 236.24479544896167,99.83335963555146 235.46418887120672,98.63533212064067 236.31790449796245,98.69793597655371 237.0577331200475,99.15192599256989 237.426773617859,99.16228488076013 238.01222855120432,98.42319949739613 239.82539121783338,95.89921084808884 240.6566789689241,94.71107049490092 240.70736014225986,94.62774729402736 241.9158439822495,95.28937767446041 242.96179854229558,95.74832909111865 243.8193006934598,96.15007968829013 244.65524878236465,96.5626389508252 245.83518805343192,97.16481193667278 246.94551352900453,97.68140928051434 246.98250496014953,97.62195786100347 247.55805667559616,97.42288556601852 249.08402602677234,97.30398257041816 250.71630933345295,97.12022326816805 250.92485944903456,97.12202483077999 251.03321230236907,97.13959006470395 252.00897052453365,96.9008829187369 252.95472782221623,96.43292607879266 254.23166037339251,95.81048337975517 254.323993315571,95.31955409742659 254.99420814227778,95.30964542168658 256.0407452445943,95.22001692513004 257.7732258134056,95.11012062802911 259.3303611734882,95.0808449658216 263.5296167823253,95.78255899145734 264.48498602677137,95.82444557256531 266.01212046237197,95.70959525019862 267.83343872008845,95.24749099079054 269.8761230222881,94.96103990718257 270.0864207644481,94.94978002994321 270.4315770311514,94.93356580566615 272.82436920900363,94.7826833827421 276.13291776017286,94.5732493995456 277.2677100088913,94.55118000030052 280.19789738673717,94.50659079931211 280.3505234490149,94.11970027972711 280.1355653689243,93.55084836645983 279.8180798578542,92.81624802260194 279.067182933446,91.32361900358228 278.715909973369,89.94042834499851 278.6130912711378,88.22032330185175 278.5411473067943,87.42895333428169 278.8498946845066,85.89079577766825 279.38466844451614,84.22515938233119 279.617102791206,83.56169386859983 279.96604558231775,82.78607175598154 281.129382400075,81.98747538367752 282.55078542232513,80.58936168719083 283.291196586797,80.11911783041432 283.81053297792096,77.30754295614315 283.57169066672213,75.8841750305146 284.41841578669846,74.51034594036173 284.7466783289565,73.94189347885549 285.0233858844731,73.50091388798319 285.4512631467078,72.1144574531354 285.935938275652,71.48203581070993 286.70169002679177,70.97888993599918 288.11988906678744,70.32033915549982 290.0186854400672,69.48385969066294 291.32066730677616,69.5271026493283 292.0293299200712,69.99241436144803 292.78080938674975,70.84240522433538 293.4128676978871,70.8009643049445 293.4647139556473,69.88475762540475 292.58332757337485,67.6928729788633 291.1517300623236,66.8113381692674 290.3079176534666,63.87796835304471 290.2630619023694,63.72526267415378 290.05305543122813,63.48967228771653 289.48041642678436,62.35811416222714 289.0569082312286,61.80629726871848 288.9345743645681,61.72070921771228 286.93994979560375,62.02612326736562 286.88053048891015,61.84548757557059 287.0707305246033,59.927406616159715 286.96266894228756,59.58730361034395 286.5356654934585,58.87556315888651 286.34051384893246,58.438607430667616 286.3265328356065,57.828219359740615 286.1817710933974,57.12323028006358 285.1564967823215,55.21997365553398 284.48424305790104,54.97401312983129 284.35025834676344,54.619036645279266 284.5655076978728,53.85097007226432 284.4784176356625,53.53608452191111 284.2025838934351,52.802250772248954 284.21685617789626,52.035529271000996 283.90053575113416,51.156634279876016 283.7449969778536,51.19672746496508 283.4318805334624,51.33682831254555 283.27401159121655,51.264750717266 282.658264462254,51.680548018426634 282.33582734235097,51.62964329926763 281.1416157867061,49.59840019035619 280.91646321781445,47.7617509632837 279.75079623120837,47.66624658368528 278.1951172266854,46.818418140523136 276.2756406045519,46.51388384879101 275.72688583121635,46.2043936830014 275.60804721782915,45.65839249774581 275.8626181690488,43.94064225722104 275.7772757334169,43.68881254119333 275.661349831149,43.64961898152251 275.6922245690366,43.7383676066529 275.4038661690429,43.74287261196878 274.6110262045404,44.095163746213075 274.24781112896744,44.01947976520751 273.98013297794387,43.48248314810917 273.81265208905097,43.0229715735768 273.91314062231686,42.442273703054525 274.1747020800831,42.28594903240446 274.7496712534921,42.48462100094184 274.92181248008274,42.24360169598367 274.9462792534614,42.42515458026901 275.0257962667383,42.44092219346203 274.9611340800766,41.930501454742625 274.22858723567333,39.94016455032397 273.6696379734203,38.786409583699424 273.2915680712322,37.86421215184964 273.4191448178608,36.8140646655811 273.2781696000602,36.439236028003506 272.7669888001401,36.593762815813534 272.4430953244446,36.228845153120346 272.4768827734515,35.98601688956842 272.17396081786137,34.74934557743836 271.564912924543,34.23079752968624 269.91893987567164,32.470608325034846 269.28688156453427,30.446395756443962 269.2472686934052,30.017042229534127 268.8196827023057,29.604357457719743 267.6499379200395,29.878729843592737 266.9942866489291,30.129674401017837 266.4612605157308,29.858906562963966 265.7668701867806,28.12841733894311 265.6151179379085,27.9639728445909 265.3285071644932,27.943698857328855 263.8165188267594,28.932166184298694 263.4101956267841,28.218974391231313 263.293395911227,27.390894079289865 263.16902314673644,27.23140491056256 261.94393685343675,26.562810632633045 261.0852696178481,25.34365704585798 261.1709033246152,25.129651188268326 260.05824768007733,24.013213024358265 259.64493397343904,23.568528440082446 260.28660423110705,22.206986026838422 260.292429653462,21.98486728442367 259.97669176897034,20.9283358984394 259.4451219912153,20.920676590525545 259.6880420978414,21.358157811511774 259.07520768011454,21.04818150633946 258.9056878933916,20.22097514627967 258.68082659563515,19.1896661039209 257.133303182316,16.986910672974773 255.96647111116908,16.228173659997992 255.1398436978925,15.035996053484268 255.51092309341766,13.958254696335644 255.42383303120732,13.778930995380506 255.05654016009066,12.962510679615662 254.26166129787453,11.745534121757373 254.15563861338887,11.321550694701727 253.22677504015155,9.720228616439272 252.4546153245028,7.753929646569304 252.39373966224957,7.570095108821988 252.1147019378841,7.197919811820611 251.46808007115033,7.538554853934329 251.50885802682023,7.7093227508012205 251.2356457245769,7.634076754678972 250.89573233784176,7.758435393101536 250.1812443023082,7.6800353900762275 249.43879424012266,6.393189946538769 248.62760419561528,5.8871908724540845 247.97486563562416,5 247.6821381689515,5.355958171887323 244.8282638223609,8.05356158898212 243.3576359823346,9.470161786244716 242.71072284458205,9.807188726495951 242.63965269341134,9.846388350240886 241.52029781334568,10.579465077724308 240.0007364267949,12.005060234805569 239.2527522133896,12.666489977855235 238.41534776904155,13.214375770883635 237.07113159121946,14.94227962451987 236.70529507566243,15.412663603317924 235.8207047112519,16.36469244962791 234.80358599114697,17.989845227450132 234.62736696901266,18.657564604654908 234.1825959823327,20.95626984303817 233.84472149342764,21.942966563336086 233.61490858672187,22.11237158003496 233.37635754677467,22.657530450553168 233.35742492449936,23.86002897383878 233.28693731559906,24.61333303619176 232.34030620451085,27.030916948686354 231.86582556460053,27.5810194335063 230.90929123561364,28.644727194216102 229.41623552003875,30.30132571887225 228.73029205342755,30.848716816981323 227.9167718400713,30.867188426840585 227.2162648178637,30.82033360848436 225.75204494223,30.67165959929116 225.3500908089336,31.50468327512499 225.21377592894714,31.779503802768886 224.49870535114314,32.75894333422184 224.23889152007177,33.94156341906637 224.21034695126582,34.34162545198342 224.20044373348355,35.20076520537259 224.17743331566453,36.129731608729344 224.3516134400852,36.77667193370871 224.2811258311849,37.37315282225609 224.12966485344805,37.62859391386155 223.45886748458724,38.616116457094904 222.86613077344373,39.507676091918256 222.65816320001613,40.28480317839421 222.53408170677722,41.24348136933986 222.3211625245167,42.322890319046564 221.70745429350063,44.550618578796275 221.61803406232502,44.75964995508548 222.0226096357219,46.432794764696155 222.04795022227336,46.80760627950076 222.01416277349927,49.98536944913212 222.1344577423297,52.16166460281238 222.14348714670632,52.25986991787795 222.1871778134955,52.49817529274151 222.2952393955784,53.00181415351108 222.49796408903785,53.8635835039895 222.52359594672453,53.98881682299543 222.60922965337522,55.46368152287323 222.90807381342165,56.692127212299965 222.97856142232195,58.086789864930324 222.72544682677835,59.64361209154595 222.273102791165,60.51796832756372 222.0974663111847,61.76170139363967 222.07416462234687,61.931526040891185 222.086398008978,62.59055253514089 222.02493980445433,63.109483825275674 222.81515832897276,63.71670394559624 222.90923889784608,64.6739280866459 222.7461270756321,65.40321745659458 222.44291384890676,66.17800028808415 222.07066936895717,66.70818440045696 221.69026929780375,67.14512361213565 220.94461525348015,67.93206244480098 220.2650797511451,68.72260203980841 216.62652103125583,73.4094746990595 214.05401457787957,74.97789923520759 210.28758784011006,74.4711579020368 207.32798208016902,74.03918814111967 202.74687004450243,73.38965536246542 199.67512490670197,72.96894447528757 196.16618183115497,73.80496017698897 194.1735961601371,73.82883342332207 192.89811996452045,73.89324613136705 188.98722275567707,73.9680189016508 185.1771053512348,74.1207174314186 180.1419016533764,76.39271482417826 175.42796999122947,78.51019154908136 173.53936810675077,78.84035571780987 170.56432497792412,79.27501856349409 166.9688743823208,80.36505008849781 166.19118051568512,80.5956676324131 164.2757816889789,81.08347698801663 162.24795221339446,81.27805991779314 162.11950165347662,81.29292388446629 155.37220636452548,82.0244099671254 151.301110044471,82.49735225341283 150.48351203568745,82.59103974688333 148.4370412089629,82.87615576619282 147.8035265422659,82.97299603570718 146.53911864897236,83.16577560768928 145.98308209783863,83.25135526963277 144.82848341343924,83.4270186816575 143.83554019557778,83.57790893572383 142.99114524456672,83.92383008066099 141.88198485341854,85.3903855268727 140.5025248711463,87.13528543536086 138.36983779561706,89.38012329069898 137.50796657789033,90.81015947350534 137.1829080177704,91.1376026639482 136.10025329783093,92.49466254666913 136.05685390229337,92.60456015740056 136.00733781338204,92.75814648007508 135.80344803561457,93.02388209151104 135.40382407128345,93.48824303777656 134.93050851568114,94.03052169270813 134.31359630229417,94.77457626454998 134.15281464892905,95.07589062256739 133.58192327118013,96.10594120586757 133.19161998224445,96.85449263185728 133.10219975118525,97.09680295392172 133.05472256010398,97.23282089817803 132.96879758231808,97.24002714455128 132.96734122675844,97.14229240827262 132.9245243734913,97.14094123651739 132.83073507563677,96.58335697191069 132.7386934044771,96.01451146393083 132.6568462223513,95.78976528556086 132.5747077689739,95.62041731120553 132.36790528008714,95.16822154610418 132.1316844089888,94.76782033249037 132.0009036801057,94.5538823758252 131.89167701348197,94.25707126432098 131.6959428268019,93.74316822073888 131.12854670232628,92.38701688253786 129.80384568904992,89.06033439311432 129.6468505600933,88.05187028739601 129.6357822578866,87.12132268806454 129.65879267570563,86.75153476482956 129.7665629867697,86.02186614030506 130.0051140267169,84.51612868788652 129.82073941349518,84.48730202461593 124.98243498674128,84.58188949892065 124.85777095123194,86.72090674808715 125.00165888015181,88.20996389567154 124.98126990231685,89.3242728690966 124.83446926227771,91.63169414328877 124.86447018675972,92.78111685917247 124.71533937787171,93.92287678422872 123.76142648898531,93.91341844247654 121.65611889783759,93.49995338841109 119.55139384896029,93.21710320637794 118.61000561784022,92.96127661212813 118.46203989337664,91.48936708585825 116.53586403571535,90.99392407538835 115.37893518235069,90.61648582905764 114.42676992004272,90.26742243231274 113.19498439121526,89.23509232752258 111.8035822934471,88.09285753010772 110.4625700978795,86.29751901782583 110.00119665788952,85.8281882572337 109.48914204456378,85.19040127214976 108.87863779556938,84.76340725156479 108.12045909336302,84.98546226287726 107.83909120014869,85.29534798715031 106.9836279466981,84.80304386245552 106.64895744004752,84.96834646887146 105.9924323556479,84.44721493986435 105.42212352005299,85.0066317958408 104.8669607823249,84.9985243154224 104.580350009026,84.44406202284154 103.88100807112642,84.42199160187738 103.567017813446,84.55261242785491 103.33807872014586,84.15534470812418 103.01738922670484,84.37830117030535 101.41161159111653,83.80807267507771 100.40905642672442,82.79688183910912 100.2779844267061,82.34646125405561 99.89729308453389,82.19692141475389 99.73534634674434,81.60461652907543 99.51398030226119,81.28346499672625 99.16154225787614,80.85646335122874 98.58686435571872,80.5375628444599 97.99907925340813,79.84841185680125 97.72353678231593,79.81237775849877 97.43343075562734,79.60112773790024 97.4246926222695,79.4723056636285 97.35333120007999,79.3299706960097 96.9662318933988,79.05836289038416 96.56136504898313,79.33807838661596 95.32055011566263,78.5534327236237 94.88306090666447,78.76153075695038 94.22740963567048,79.47140480962116 93.4089378133649,79.35114077618346 93.12873500445858,80.06686845066724 93.08475306676701,80.26910951518221 93.12727864889894,80.8582650476601 93.28864284453448,81.00600410666084 93.24757361784577,81.30958954291418 93.38971392007079,81.71271792059997 93.14883271127474,81.60506695165532 92.87241642677691,82.21493826829828 92.8307646579342,82.34195704356534 92.87416405347176,82.52392707526451 93.08213162678294,82.7635507476516 92.98863360006362,83.19910663791234 92.5403673601104,83.7265469947015 92.46201543114148,83.89049916079966 92.6746433423832,83.98508689308073 92.77396679122467,84.3368628147291 92.50716245349031,85.51334872795269 91.25702684454154,85.38092681625858 89.9331996445544,85.11518192186486 90.68147512897849,85.74351043114439 91.10090552899055,86.32319255243056 91.02604885341134,87.14294242550386 91.19469482672866,88.60542262077797 91.50810254225507,89.80260424443986 92.01433173345868,90.70206257683458 92.31288462225348,91.13219782849774 91.95636878232472,93.44725680572446 91.77927594678476,94.47010871896055 91.69917639123742,95.46322984539438 91.59606641787104,95.75913853396196 91.62635861337185,96.02937442949042 91.82908330671489,96.10053649311885 91.73529400897678,96.4995840920601 92.00442851567641,96.69595487811603 91.98928241780959,97.0688787297695 92.16899669345003,97.3499223717954 91.7548091734061,98.05973611702211 91.54946304007899,98.1457603421295 91.1810050845379,98.11063003446907 91.01032021339051,98.39167233835906 91.25615303113591,98.89790788537357 90.72079672897235,98.94790083402768 90.28185116453096,99.2496598312282 90.1452450134093,99.74823684443254 90.59467633790337,100.73998286441201 90.27515192900319,101.40294590767007 89.80504035565536,101.44032759557012 89.7429996089777,101.76415182917845 89.51726449781563,101.83035783737432 89.52949788456317,101.87494554591831 89.74037816899363,102.75453757471405 89.49075882672332,103.09232159232488 89.58309176901821,103.69943075574702 88.99501539568882,103.80842198512983 88.93355719116516,103.95254253561143 89.46949603559915,104.37454497645376 89.56619804445654,104.95642961130943 89.85047864890657,105.55317501741229 89.88601372449193,105.72521754167974 89.94776320003439,106.66784603928681 90.09835036448203,107.50913741788827 89.76950528007,108.24999358190689 89.54318762675393,108.55399158602813 89.84902229334693,109.03498312080046 90.48166314675473,109.29034055653028 90.71555384900421,109.06605838018004 90.9238126934506,109.35249099839712 91.37178766226862,109.53714075789321 91.6426697956631,109.27908141654916 92.79610339563806,109.9046383521054 93.09494755568448,109.85644936445169 93.48758101346903,109.81771802098956 93.8630294756731,110.18701659888029 94.52275854232721,110.77609157701954 94.41731839999557,111.35931027214974 94.60606208012905,111.74391850706888 94.42081365338527,112.51718617917504 93.91458446229808,113.43366470956244 93.07980145781767,114.14432699140161 93.54670904902741,116.27089577418519 94.06138510233723,118.70908368157689 94.32615054235794,119.74893058510497 94.92034360894468,121.04186455934541 95.94212266674731,124.22440407681279 96.42417635570746,125.22279415809317 95.22792590234894,125.61458333779592 92.63240903115366,125.97349763743114 89.84494449780323,127.21235539577901 89.27434439118952,127.43436733190902 88.4282018133672,126.49948390375357 86.59960177785251,127.44607586582424 86.58358186669648,128.04005797946593 86.45571384904906,130.35877939569764 86.15017045347486,133.13589892844902 86.13473308458924,133.4592259429628 86.12774257792626,135.9994428723585 85.89734712895006,140.4052375878673 86.05346844450105,143.13404796575196 88.41014300449751,142.57297851203475 89.48027306678705,142.85171223263023 90.85565525339916,143.72528572927695 90.3019488712307,146.35048818896757 90.27544320002198,146.6377725841594 90.25185024004895,147.24566151859472 90.29699726228137,148.2925773918978 90.3689412267413,149.3124712650897 90.59118108451366,151.665188450017 90.47642026678659,152.92056097404566 90.0523295289604,154.20609460002743 89.6465888711391,154.91662448097486 89.51289543113671,157.06801204296062 89.55134321784135,157.69793503859546 89.74765994679183,159.76824816595763 90.13563306676224,163.7994041123893 86.86873628455214,162.73365168541204 86.64125354681164,163.76158282230608 86.22910492448136,165.5810496211052 85.67102947563399,166.48875123256585 85.62267847114708,167.70576787221944 85.5265590044437,169.34735636238474 85.16043121786788,170.20731689350214 85.01479566225316,172.0564457111177 86.06220657785889,173.95058216294274 86.17784120887518,174.32202368520666 86.4944529067725,175.04554493748583 86.89145543111954,175.98652419517748 87.44953088008333,177.3912321140524 87.72128682676703,177.89458359079435 88.2977123556193,178.89182840182912 89.0392886045156,179.60542968742084 89.5009533156408,181.00065980065847 89.8583429689752,181.53146621095948 90.62351217784453,181.94791647978127 92.73027612455189,182.50663392007118 93.19339719123673,182.69077174866106 93.59768149349838,182.92398276145104 93.83914524456486,183.12522835854907 94.31479096901603,183.579043253907 93.81118321791291,185.29839889000868 95.29113173345104,188.28686706570443 94.98937486228533,189.64062341710087 94.85626396455336,190.24974351358833 94.33925774227828,191.3837918600766 94.44848440901842,192.69566102104727 94.16187363560311,194.17319264414255 94.32411164452787,196.12025976052973 92.22695964458399,195.42111834749812 91.88413354672957,195.32973009045236 89.86038186668884,195.06006698159035 86.94941838236991,195.81458262412343 86.05259463121183,196.6370737416437 85.34946616890375,197.91469749249518 83.64931669342332,198.0943205296062 81.27691349340603,198.86413187650032 80.01192305784207,198.559358936036 79.00791153789032,197.93990775221027 78.32313315570354,197.36592344066594 77.3532003556611,197.0602480439702 74.17834524449427,197.2340193822747 71.65797632012982,196.5623428756371 70.18035797344055,196.487161797937 68.62409642676357,196.09549947822234 67.78290545789059,195.89516618172638 66.82520604459569,195.68853007251164 65.22234112001024,194.92050831392407 64.59552568895742,193.99536715412978 64.30949745792896,193.56228269799612 63.8125889422372,192.74563254596433 62.75469226681162,191.84524295898154 62.2475892623188,191.7574547760305 61.542130631161854,191.78086496167816 59.87081699562259,190.97186152049107 58.45407431118656,190.33528130711056 57.68977891560644,190.48654806020204 57.684827306773514,190.6351135195 54.629975893418305,205.7725048107677 54.56327480892651,205.78285865322687 55.313880462315865,207.0712329649832 55.835838293423876,208.24255760596134 55.924967253464274,208.47168994066305 56.207208960084245,210.10216890100855 56.33274680899922,210.3884693091968 56.697709511150606,211.19379973830655 57.709294080152176,212.17108606698457 58.19746446236968,213.1578212219756 58.74039381346665,213.61022339842748 59.00457671121694,213.81279123394052 59.28827477339655,214.00905678037088 59.74032753787469,214.31110731174704 59.70916152896825,214.37953002698487 58.099888640106656,214.79546765144914 56.22526776895393,214.03291473607533 53.679849528940395,212.97550963284448 53.25080718228128,212.77429148030933 50.858306275564246,211.73848772828933 50.7554875734495,211.6182963626925 50.38965105789248,212.0999617369962 48.64260693336837,213.5418004426174 47.41752064006869,214.8485851699952 43.318462293362245,220.20348512055352 42.07764736004174,222.42760268878192 44.27907441789284,224.5549200635869 46.972167111118324,227.19715809635818 48.85523484449368,230.50103607709752 48.89426517346874,230.4974351473502 48.91145016893279,230.80351396731567 48.84824433783069,230.8084652388352 48.836593493353575,231.10059005970834 49.93119032890536,231.3026915951632 49.93585066671949,232.7768118500244 48.94436380453408,232.21687237895094 48.422114702290855,233.08783870283514 47.900156871182844,232.98116239352385 46.92760263115633,233.79001058021095 46.66108956455719,233.99300985061564 46.2926316090161,234.27972912043333 46.090198186808266,234.41431150527205 45.49658766225912,234.70913215947803 45.39202133344952,234.7221852785442 43.47720504901372,236.59642504760996 43.037676942301914,237.4997812799411 39.63359146681614,232.4527313018334 33.99924309342168,229.69892750529107 28.74791623116471,227.12423815613147 28.76917902228888,226.33427057985682 28.044496497954242,225.8283297342714 27.682446506805718,225.753158708103 26.746592426788993,228.77483357093297 25.53403079113923,232.5283501392696 25.752192853484303,232.9284993862966 25.374705493450165,234.25722369685536 25.102658275631256,235.24340918823145 25.5212148623541,236.39432839967776 27.13980842672754,238.27665565605275 29.621729564503767,240.43352533399593 30.491465102299117,241.78245827672072 29.466190791223198,243.7822124386439 28.359360568923876,244.7080433689407 26.977279146783985,245.41107814421412 23.749995235702954,247.01562728878343 21.372640426736325,248.2087921136408 19.299663928919472,249.24757384770783 17.766121528926305,249.9843497585971 15.554208711138926,251.11493814864662 13.279672604519874,252.26352355908602 10.636387271108106,253.591680444777 10.008406755630858,253.6524397165049 8.322529564495198,252.97328512032982 7.344732444500551,252.31888234312646 5.90585315565113,252.21851640730165 5,252.81576055905316" stroke="red" stroke-width="3.7661151615125963px" fill="none" stroke-linejoin="round" vector-effect="non-scaling-stroke"></polygon></svg>