<svg viewBox="0 0 59.21702627555642 51.23507353657624" width="59.21702627555642" height="51.23507353657624" xmlns="http://www.w3.org/2000/svg">
  <title>Moravskoslezský kraj</title>
  <desc>Geojson of Moravskoslezský kraj</desc>
  <!-- Generated from maps/2-geojsons/world/europe/czechia/moravskoslezsky-kraj/okres-frydek-mistek/okres-frydek-mistek.geojson -->
  <metadata>
    <collboard>
      <support-module name="@collboard/map-svg-geojson-import" version="0.11.1"></support-module>
    </collboard>
  </metadata>
  <polygon points="1.2968712300500103,13.547385465822424 1.4060177971610301,14.243102914613099 1.414282614938702,14.335608164616986 2.0571106753837287,14.29889188666433 2.1172800051602736,14.300893576767828 1.8746220424947297,14.780547149261237 1.8778114611604453,14.790678400921877 2.371836392715477,14.834599015420952 2.4186727873836844,14.839377862872915 2.1002916176048076,16.355534932139687 2.0561130718271214,16.39080979567092 2.888434835380895,17.718308201698655 2.899350220270708,17.742976505454987 3.299163510938661,17.656687529772295 3.3268998024928353,17.669263462763173 3.0123852567166525,18.87872201140284 3.039903094936881,18.927104237783478 4.123162202493541,19.36513158176689 4.144315766939099,19.37122097790574 4.020336218495641,19.895715041704662 4.016440467382336,19.94048221529678 4.375504929604495,20.82353964561784 4.38165803182651,20.834940179126114 6.555123062938356,22.54600926211873 6.6286763002719,22.571756231742746 6.017152602493434,23.16206188259397 6.007489683380254,23.182506708163544 5.231616261159207,25.656138318881986 5.232155112715692,25.658494973291944 6.103456232714371,26.529871459532423 6.102342120715321,26.537220802396895 7.055432168714606,26.823332601973505 7.057332712714697,26.822210624070557 7.4853192016047165,27.581153797975404 7.4888654273819615,27.58996009961569 8.884141430937007,28.235496419988465 8.903394451382473,28.22183423168184 8.725646255826133,29.31575596202905 8.712939553603201,29.384479094721737 9.178587397161891,31.336740160192257 9.182359358048553,31.441490544477837 10.000088438938974,31.87663613434719 10.160564257603392,32.22680810576579 10.310663542937391,34.443279635121996 10.322598376716043,34.46599051579846 11.328241014937658,35.904976351687345 11.461541238936617,36.04496746994131 13.46842832160487,36.53966825125548 13.560542810493054,36.625190248909476 14.120962991827538,37.49277795544344 14.15270426115908,37.576135131051835 14.07708299893725,38.016236460652856 14.08526043538309,38.04563949072921 14.562952339381582,37.981156402002796 14.617361782936634,37.997907073982184 14.936959009606063,38.79173629101291 14.981086582937998,38.79686375342439 15.114102817606318,39.29621983554111 15.123925935826401,39.327373511521856 14.600686511828236,41.053087309644745 14.619313299382476,41.08584248047859 17.315267731383347,42.061604109063175 17.338620392716393,42.07308367952368 17.883246398047913,41.79977164423921 17.94193752693841,41.805813814309786 19.47111086027303,42.503192252881256 19.49164547360283,42.50833862826124 20.659715446940528,42.4268910785498 20.709741260271542,42.429911819668035 20.680905420269255,42.022208636650014 20.66801667360428,41.98953736889829 21.12392878027181,41.439579169720076 21.17526531360359,41.370089181368655 22.563609064716868,40.76221014039342 22.5837067713846,40.74654226576107 23.02716703804922,39.06702275409492 23.039254789159305,39.02716920360412 23.905931980273593,38.58808931764228 23.924791784715627,38.54845620873106 23.62201546471638,38.04092561112642 23.623034913602307,37.989195835171394 24.398180158049357,37.702321870927825 24.42104494027167,37.69381171963772 24.721054184716333,36.92067664326618 24.739768353605314,36.90051813142649 25.994782753606117,36.22214106210898 26.025657491383164,36.19122738138261 26.156729491381114,35.408134764596014 26.159787838047624,35.379344937243275 26.69485286916038,35.197864729332046 26.737087180270603,35.195512168732364 26.981172371382264,34.5061684889691 26.993842664716205,34.489810509726645 27.827533402494876,34.12398406170263 27.84551939360695,34.10426347489569 26.864809562493022,32.25480744784594 26.856435518048375,32.23451970823093 26.87150879804699,31.656119450192037 26.8662804816036,31.641176635716818 28.185505598047303,30.18865968630429 28.206404300272837,30.15143274377782 31.363127784716337,29.36097336813995 31.43556691005083,29.354132465054988 31.75881958916157,29.696279309122602 31.77447541138404,29.73373361669086 31.836588975825137,30.820694254560056 31.840666771380484,30.82887872002042 32.866669260271145,31.032813718775415 32.92790901138228,31.055684460909234 33.834708798048226,30.670008215846735 33.93243025582647,30.644781354084387 34.48133066471505,30.930903223742042 34.51344330471488,30.92484907536722 34.69133713582719,30.507096704529374 34.717842806936964,30.41358577861114 36.24657923360369,30.18652923556232 36.32442143804815,30.24046302336077 37.201526134938604,29.644728755662925 37.3026554647136,29.646713634752214 37.960636904716516,30.34451673327725 38.03796938471801,30.419528366888827 39.76287690471523,30.246966438045035 39.787780584715215,30.249545376218283 41.44241894916063,31.551305902250295 41.45931267360297,31.57955531224301 42.86542396249438,31.796577675464633 42.88465513760471,31.804502864828226 44.6194585936029,30.004204438961587 44.68251150738229,29.941734936979028 46.090668975826844,29.471099519243708 46.18023484249147,29.455511532371872 46.75141749138143,28.811431020143335 46.79241390027178,28.79068191419077 49.895325046937934,28.580326411636033 49.906116641604015,28.578958036984968 48.91380693849365,27.852392617461863 48.910428193604595,27.851383026808744 49.450277352714465,27.342424717878874 49.454093004271414,27.33496426668438 49.37118268249338,26.742381307037558 49.41014747538152,26.67853945686669 50.31003685493793,26.299478592057255 50.38268715182799,26.248053196641685 50.51332224516096,24.83895783306665 50.51389750560643,24.827307475840044 48.91243796427166,23.439694079656455 48.90870969404946,23.426794581438426 48.507651219383256,21.083836555773576 48.50759296515912,21.0605872375368 49.04975772960475,19.884739445446883 49.04490078382673,19.804382132867012 48.453176239825694,19.84813898704173 48.33204386649318,19.846835835458606 48.00627169227241,19.276126757275904 47.99986372782746,19.256611115858085 47.967306899381356,17.748584455138314 47.965595681604604,17.65387788932288 47.604339404270426,17.295018763556563 47.56818537760424,17.192942480402543 47.68087817049541,16.60865908083955 47.67384397315923,16.5588400292197 46.69692066649455,13.60902990296321 46.66095596604878,13.513453174200675 46.93361485316141,11.29100930409926 46.93416098649337,11.154964117202452 46.54057361582541,10.418791963788806 46.53323358382927,10.408956460133902 44.83185348782586,9.704557889753904 44.78900750738117,9.679729533876651 43.594730415826916,9.779852622820307 43.58898509316219,9.761473600455918 42.78455253849402,10.500423711200837 42.64342440338237,10.6324228436309 41.92306725493995,10.679201311696795 41.90103259538023,10.67166186949338 41.53668884427184,10.052221822549598 41.50218778115828,10.011616588827872 40.25291870382803,9.867706423119069 40.160287208715594,9.88752566730849 39.99757588427178,8.476634811706152 40.000262860270006,8.470454483655464 39.59422364960497,8.545867517618296 39.590837622937535,8.546351580608587 39.58273300426968,7.585593602486313 39.61333831626994,7.525716553663495 36.65487579538326,7.639378801913825 36.603582952715946,7.644625560901602 36.510150462048614,6.97924908502622 36.506436755380264,6.944285109186729 35.4782424513834,7.158929991792082 35.46466921760598,7.173410504733454 35.448773096714426,6.86093369267486 35.445110362491825,6.7936953571917345 34.676089093162,6.649058628335604 34.672054988271114,6.647966293424668 34.048836755383086,5.958299056525118 33.97701658115852,5.937361832076693 33.93910764605112,6.287866762865576 34.004738309158846,6.401791232258382 33.725962728716105,6.51131009679242 33.68894217049251,6.543438968202224 33.59512374560304,6.106884597730948 33.57696299182731,6.069966653997961 32.492546081604225,5.9506742670143815 32.45255455804886,5.93572874772375 31.281855862937075,7.0479152057684935 31.226310462047834,7.080164788526725 30.740776083382798,6.924680411737189 30.730654412272408,6.917653782793912 30.67260407982699,7.758746953339267 30.671213260272772,7.763745902289646 29.456940406936475,6.857026211961181 29.387967407825773,6.800879797578216 28.210977256714386,7.435460628483395 28.2089092318261,7.437104524667792 27.715852776717067,6.896483756412761 27.70847633582612,6.884626253706063 27.873255685161123,5.878221342312589 27.883115212270198,5.870709069020939 27.363837075382026,5.183106529410122 27.3617472051586,5.117537213560843 24.971241505604258,6.007178547703496 24.963224268271144,6.0140599340754655 24.464488026494067,4.819688752557102 24.4605485847163,4.814619522198462 23.86334086204893,4.590081698015399 23.8321238807142,4.592086943148877 23.473073982048803,5.018241176419668 23.440393363381872,5.000567081291354 22.067436008717188,3.1878973499567453 22.04415616515921,3.175107799007799 17.26763034116025,3.903681383872879 17.250139510937288,3.9054277435586644 17.109491973160903,3.265749574618656 17.091353064714486,3.2301195581473965 17.511540769605336,1.3083576025209709 17.49528784160516,1.2987987780449999 16.72020813316062,1.7689423751698428 16.709190803382217,1.7590800321574875 16.22648903627137,2.8763984815509844 16.224413729604702,2.8787086169876943 14.543320666492356,3.4064644606537855 14.54087398916031,3.413213906521685 13.432718483382041,3.4671190315887888 13.423594415828257,3.466623251087856 13.309947710047846,2.0253683184333 13.311506010493169,2.0170505279501754 12.726043795381111,1.377331690664994 12.707890323380845,1.3547762789459172 12.385810010493287,1.553567297443931 12.384513854049283,1.5591580494104507 12.427381679826205,3.0333840497363216 12.38998246915885,3.048630487750177 10.177006511826903,2.726586931414329 10.150333359826028,2.729404246826141 10.034414739383056,2.2285190953845246 10.056362017605124,2.143484085564103 8.357974732271533,2.5925148469993817 8.297048097604558,2.4413882140318837 7.4585004140507865,3.3239492760244844 7.4478326096055305,3.3377751353139846 7.594436641605125,4.54433261910466 7.608053566049922,4.574050975931584 6.623994117160464,5.0632090436179515 6.575897974937243,5.130953023143355 6.181029011382043,4.829252687704991 6.178822632716174,4.828835885225397 6.340157701159615,4.354403945538922 6.3322351269367125,4.319051406503547 5.295368225604898,3.573350234817315 5.3153931144917355,3.5036263813120403 3.5458410149383326,3.394114868680606 3.5044441082719917,3.416582992409656 3.383588442494647,3.713538911582271 3.3914236353828073,3.748208069316877 5.152252165158416,5.819969981443262 5.161354387382881,5.854017594276354 3.6242657616037377,6.586592486580901 3.516466323382474,6.654858134780205 2.649279407828135,7.6677968097298965 2.577903422049849,7.789382332207004 2.314237530494711,11.29824409940933 2.3118199802703656,11.318969540961678 1.6210996673822138,13.499158135216693 1.620320517159553,13.51113627820754 1.2968712300500103,13.547385465822424" stroke="#009edd" fill="none" stroke-width="5px" vector-effect="non-scaling-stroke" stroke-linejoin="round"></polygon>
</svg>