<svg viewBox="0 0 434.9648998933401 451.9399584411433" width="1000" xmlns="http://www.w3.org/2000/svg"><polygon points="8.052550000000338,422.59831742294 9.744835155644978,438.99592180419813 10.666999493354524,442.6748810039494 18.06703334229678,440.9391950676577 27.100515582227672,439.00170008952364 23.748567635520885,432.34457076792705 23.74973272006173,430.64747520056653 43.391017555586586,428.5672040759596 44.65222146662563,428.05202279476316 54.92040194673609,443.4104877027926 56.06888393787813,443.8874084411432 104.81310438222863,426.8336298421268 105.7655609155554,426.65360404583726 107.84290648005117,410.1750660678149 109.75451878223248,406.9045502076983 124.7637191378526,398.8131828038963 126.7865970044877,397.92938712376736 122.35112052455224,383.12528381226684 121.41963551109802,382.16406535110536 126.6971767733121,376.68833035589296 129.7779513156056,375.62926948417544 77.80615568892244,369.99775472420833 76.99962598222919,369.8163487353372 15.76424393789057,343.2814504001067 12.628419155582378,341.84069506123296 18.462288239948975,375.29136486291054 18.680741573312844,376.37977158322565 8.052550000000338,422.59831742294" stroke="#009edd" stroke-width="5.6793183304138095px" fill="none" stroke-linejoin="round" vector-effect="non-scaling-stroke"></polygon><polygon points="107.45988496891368,310.14792585359055 179.34617773336504,376.2832913021916 179.7991043111324,376.5980747364006 213.89792201782257,376.02052682077147 216.1045919555254,375.77287879164896 233.34755046221107,360.93616557631276 234.72060248009075,360.20250740022266 238.28692596450128,337.5085895220177 235.59325072888896,334.14094354291547 258.4705576089691,298.379271928839 258.5742501244895,298.320117970557 265.3130985511016,300.716062987201 265.38970285337564,301.2813545592139 258.7140602577492,308.0144841349461 258.3706516177408,308.9617935084166 260.83451394664735,322.04625531743613 261.20704969773215,323.61210494695797 293.6030964889578,354.4523214659198 293.39920671119035,357.2562894789512 303.2773751733839,354.9396613103813 303.5348588356064,354.5456987091816 291.8152744088802,329.54008604199726 291.85809126226377,329.2434684141549 302.97387067552336,330.70787511041954 304.57091017775383,330.4414987873529 335.4182684711195,354.92054124546803 337.87834427550115,355.83341133289605 348.0603085066905,340.1700296488484 348.2237116000397,340.2100510601663 366.1127094311887,367.9973897619416 366.24873304003995,368.27216868513597 362.7858108000146,344.5412142647324 360.6665221955409,339.7382426282634 365.56016813332826,330.0817345955652 366.0273669955568,329.40623016030395 376.8885754578296,315.8040928846817 377.083435831104,315.50612261120796 390.2136462490089,331.09076271820913 390.9231826755931,331.7191238694136 408.3682833333514,328.6288860940617 412.12713702230394,329.7157439697544 414.57061037337553,305.2721562512229 414.59449460448377,303.8329319485706 426.82263839114603,285.2458148717192 426.91234989334043,285.0074056965309 393.6159840977998,278.2068535005451 392.68682925331086,277.9733296095287 385.70476944893744,263.7239016898452 385.39660461337917,262.9627853790075 367.9014053244391,263.83155206088077 366.5787432088764,265.8057260050914 360.42884496899933,254.05962043579302 359.5119235111415,253.43637654776785 342.4661555466955,260.702107670229 341.2964107644293,261.2319143810669 344.3792242045529,248.41788680721174 344.25572525335156,247.02722759047856 322.0282442222597,217.13082977498516 322.27378576886986,215.98735610212998 283.6649261778002,221.83769658589836 282.7037315111156,221.94892674589164 263.25934594669525,201.15814627774625 262.2672765422394,200.5521066147844 264.80191775106505,181.09432345789492 264.32889346671436,180.42281309710916 240.83059657781996,172.6604678417566 240.73389456896257,172.00050237528149 228.59604482664872,187.33451058020682 227.74349428443384,188.41716931548535 214.28589513779298,172.6008351700507 213.0468278310509,171.6346946382905 164.5297988534221,204.90736788421736 163.46782438222,206.24356332733396 107.45988496891368,310.14792585359055" stroke="#009edd" stroke-width="6.42332153160979px" fill="none" stroke-linejoin="round" vector-effect="non-scaling-stroke"></polygon><polygon points="147.62034576884616,127.0572403141773 163.87968173341505,132.97981892954658 166.37325371555198,134.11170504985012 165.0066096622977,143.03662183692313 165.8335283467095,146.24339713072504 186.54377815998305,132.56097953473318 186.86388511103723,132.48130648860342 187.3462300711326,151.27355647754257 187.06107565339335,153.02620761373646 197.67470367110946,148.66858736516542 197.92869208005868,149.289456704842 193.80312806225993,161.16040958974145 194.3495526667466,161.40028767128342 217.66027096004836,136.98746196172533 223.52355842674297,129.83650111544512 221.35533627562836,113.7791548346645 221.45524226674024,113.4662221654794 236.4993951555589,117.15327975361242 236.54803743106459,116.81675984813 223.1708291111063,96.2026017768435 230.07337190220278,87.97385082158826 218.1309650755502,79.6597584008482 217.8848409866696,77.97063488691447 226.78725122669857,75.55357192454494 227.81805968899425,75.24726328938368 223.79997471112438,43.356337849610554 223.11810904005688,39.75933102411318 231.14787103117123,22.431160153915243 231.17845449780725,22.323837300391006 188.344707439981,9.656701927283848 187.74789293341018,9.46252979929659 177.11562356455397,18.18318377933565 176.75532119998388,18.497142270359745 198.17714633778814,22.867576198630104 198.7081335732728,23.123190909718232 176.20540134222392,18.859641305614332 173.6675561511438,18.968747163984062 149.64526253331132,55.18000478184649 148.9435904266793,56.29403458405386 157.13413407115877,67.18959069866787 157.43647348447848,67.49056773537404 151.64250854225975,82.83851666752116 151.5257088267026,83.39323645664945 155.49136500442546,79.8124645019193 157.08986086221557,80.01503365647613 160.7820134666763,103.65958665536118 161.54426996454276,104.6420504448829 155.6605935200132,113.54590207638785 150.60645719999593,111.47599561510242 147.62034576884616,127.0572403141773" stroke="#009edd" stroke-width="5.316316780077123px" fill="none" stroke-linejoin="round" vector-effect="non-scaling-stroke"></polygon></svg>