<svg width="194.89249336894136" height="283.6252704655635" xmlns="http://www.w3.org/2000/svg"><polygon points="5,213.09696954640094 11.729236480081454,218.87851336936 13.110152817796916,220.71798120386666 16.754536959924735,237.63086759473663 17.376983324531466,239.06887476157863 27.8723552711308,247.01344504847657 29.728626062278636,249.3452435521176 29.02928412449546,264.7087326866458 29.890281528932974,266.04037394333864 51.001029120059684,277.5096847533714 51.56813397340011,278.6252704655635 105.1582318933215,237.98969239462167 106.026219804422,237.63493488170207 130.52415914658923,239.06164407671895 131.39505976892542,239.43402403610526 143.8480648533441,227.11893725651316 145.4049089421751,225.87338006251957 151.83355363551527,237.6010408216389 151.72869603557047,238.13747019483708 176.50013895111624,236.58105311146937 177.30608611553907,236.18426440248732 182.55420899565797,204.32673687394708 182.56731619557831,203.058449981967 188.27448234672192,195.80159190727863 188.87945244449656,195.32427157612983 167.08043121779338,171.94378955778666 166.93916472885758,171.8741727976012 173.37975153781008,161.7727262962726 173.8431638755137,161.0986771309399 171.16958634671755,144.14504555391613 171.11133212444838,143.48902656557038 178.72457642666996,129.31428482336923 179.0277896533953,128.4502337567974 173.45664711110294,120.14097146195127 173.07042161771096,119.53507066448219 178.21077418664936,108.83340964501258 178.1635882667033,108.41965761600295 167.4509280710481,90.27755536988843 167.0070308977738,89.30300607247045 168.44591018673964,75.34815844870172 168.91194396442734,74.2541460453067 189.2382984533906,57.11646507243859 189.89249336894136,56.44254479499068 184.88991203554906,48.34900668205228 184.67553649784531,47.47016081336187 183.01121336885262,26.680329996161163 180.54880739550572,22.05039771401789 148.52354872890282,5.123958351148758 148.04761173331644,5 138.30692323553376,39.192643084330484 137.20708352001384,41.27969274291536 121.77087971556466,55.05172958644107 119.96849408000708,56.714374633855186 105.2960031288676,58.43490039976314 102.1558092799969,60.04731562011875 97.33789383107796,70.8734818927478 97.18992810661439,71.19323390931822 81.75576319999527,54.9250858098967 81.37769329780713,54.48771191609558 65.6752676977776,49.680159687355626 64.83902833785396,49.55034661886748 48.22055509337224,98.70824257511413 47.705005226656795,99.59321294573601 68.86614271998405,139.30781991349068 69.75102435552981,141.21351605682867 59.3127415466588,174.05036413809285 58.92942876450252,175.0588908214122 61.613783324486576,182.8281420551357 61.291928746621124,183.85742165253032 58.50999836449046,180.9951354067307 58.28193308436312,179.22042675403645 38.48336184886284,185.18096772849094 36.73282247118186,185.97472989885136 24.68526677333284,198.50277138344245 23.828347164439037,199.03658485697815 21.42972956446465,211.8603718110826 21.442254222230986,212.2635323688737 11.486898915609345,208.57042727223597 9.417708942200989,207.88386712910142 5,213.09696954640094" stroke="red" stroke-width="3.321672257428703" fill="none" stroke-linejoin="round" vector-effect="non-scaling-stroke"></polygon><polygon points="47.705005226656795,99.59321294573601 61.71077660436276,119.67569405923132 62.18147071998101,120.61483897280414 68.86614271998405,139.30781991349068 69.75102435552981,141.21351605682867 67.22337365336716,148.6114380536019 65.56807992886752,150.97864778514486 102.87146240007132,217.31472753931303 103.51721045339946,219.36527331953403 115.80186083563603,234.18539641750976 116.09924864000641,235.6103204607498 130.52415914658923,239.06164407671895 131.39505976892542,239.43402403610526 150.64341987553053,220.95390200102702 152.35463765333407,218.964837636624 158.02830762672238,205.54574979480822 158.3938528711442,203.9127138806507 152.69047324440908,193.2075060501229 152.6164903822355,192.84725157672074 173.37975153781008,161.7727262962726 173.8431638755137,161.0986771309399 171.16958634671755,144.14504555391613 171.11133212444838,143.48902656557038 178.72457642666996,129.31428482336923 179.0277896533953,128.4502337567974 173.07042161771096,119.53507066448219 173.11731626663823,117.8512002095813 178.07970218674745,108.99393617722671 178.21077418664936,108.83340964501258 168.8510683021741,97.64147995767416 167.72792689781636,96.90889726724708 169.52594346669503,75.91302669863217 168.44591018673964,75.34815844870172 189.2382984533906,57.11646507243859 189.89249336894136,56.44254479499068 184.88991203554906,48.34900668205228 184.67553649784531,47.47016081336187 183.01121336885262,26.680329996161163 180.54880739550572,22.05039771401789 148.04761173331644,5 146.91136312892195,5.123958351148758 138.30692323553376,39.192643084330484 137.20708352001384,41.27969274291536 121.77087971556466,55.05172958644107 119.96849408000708,56.714374633855186 105.2960031288676,58.43490039976314 102.1558092799969,60.04731562011875 97.33789383107796,70.8734818927478 97.18992810661439,71.19323390931822 81.75576319999527,54.9250858098967 81.37769329780713,54.48771191609558 65.6752676977776,49.680159687355626 64.83902833785396,49.55034661886748 47.705005226656795,99.59321294573601" stroke="red" stroke-width="3.5059398901084835" fill="none" stroke-linejoin="round" vector-effect="non-scaling-stroke"></polygon></svg>