<svg viewBox="0 0 98.54014014224164 97.61440276236614" width="98.54014014224164" height="97.61440276236614" xmlns="http://www.w3.org/2000/svg">
  <title>Luže, okres Chrudim, Pardubický kraj, Severovýchod, 53854, Česko</title>
  <desc>Geojson of Luže, okres Chrudim, Pardubický kraj, Severovýchod, 53854, Česko</desc>
  <metadata>
    <collboard>
      <support-module name="@collboard/map-svg-geojson-import" version="0.11.1"></support-module>
    </collboard>
  </metadata>
  <polygon points="8.05255000000011,41.24974883330981 10.62957115556469,47.641912161364985 10.721685644449963,47.80681244628033 9.869135102235077,50.81674842979521 9.849255848886742,50.86873595225154 17.022899226670916,53.37232858356549 17.426382533339847,53.37684902791045 21.72124788445194,49.412614519642034 21.695251937788044,49.036371919682665 23.32586043558672,50.90817862643564 23.40006175114081,51.001077878193996 25.609280311131215,57.160894602587746 25.783678888903296,58.04106993930293 24.090811191133753,58.825746314752564 23.81505026669015,59.17062066790061 24.79787181333063,65.13235363850947 24.55939359110903,65.82021268107167 30.15675053335849,65.20907159278397 30.448968275573634,65.16794445543894 30.582297626686113,61.39010391085287 30.542830391124653,61.16603534392891 33.615522159998136,66.04482706064994 33.804629928905115,66.12335148729437 39.32611074668944,64.47341089137592 39.43417232891784,64.41702978951037 37.91075160000014,55.85591728395195 37.92728123555548,55.582442154532714 40.477942355566256,53.97241429346434 40.50910836444359,53.87725989995636 40.826812328923324,63.71288254380454 40.853390817799436,63.94168619969389 45.14403273780022,71.68507910898882 45.163329448907234,71.75580028011575 51.167956222234125,73.00888289279067 51.363908862236485,72.9849331522488 57.84359881777323,69.00065711388709 58.17353616891319,68.8123212164279 59.175581608905986,70.96396647235781 59.34197023112915,70.99876266360627 62.795571795584465,69.16006989405253 62.83219913781045,69.09070110152936 62.92009019558441,72.41318646132243 62.98569901334827,73.12614609333798 66.12596568000276,75.414648555197 66.24203721778008,75.61843788135559 65.69357371557976,79.19479409715098 65.72736116447027,79.32582480784151 69.64211771556415,78.47920272569866 69.83209929778945,78.48394700879692 68.99039860445896,80.40399228913122 68.90083273780306,80.54337875650492 77.38060859556549,89.36703748541879 77.56214331556816,89.56185276236613 79.66177112001583,88.6034678325592 79.84629136889248,88.40616448611365 79.28697801777867,86.50616564868653 79.00437222223968,86.19037746682409 80.48657808890107,84.58204306959635 80.51119049778913,84.55583947635716 86.97027302222682,87.12361887857662 87.42968038222875,87.43228640384734 90.21911099556723,85.81868023801474 90.30787586668862,85.80512696397602 90.4339234400029,83.00325412222412 90.48759014224174,82.49859224940121 86.34688002666348,74.4853866927657 86.18020013333421,74.06311294419686 87.39217922668445,72.02840355350747 87.41089339555015,72.0075036408449 85.63756205334334,67.59122903409991 85.50110153778928,67.28764645331069 80.60053791112273,67.10834325737198 80.35594299558556,67.24798965352932 78.64042896891601,62.35190467499308 78.60518516443676,62.19608777442011 68.6604612533481,59.524871706620274 68.39271028445341,59.35729486717139 74.25337631113484,50.06620130813792 74.70914278223768,49.47454906958558 63.7730048266601,44.68820254876448 63.69181300444302,44.516737128251066 63.730552062253764,42.5081666556722 63.68533222223755,41.99646105158138 66.13164546667372,40.939124391392056 65.73777410668094,40.194432390395036 67.74215625780175,41.28953757140664 68.05803977777373,41.9432216905185 75.91580617780687,37.50359956733121 76.60320600000682,37.3012504455761 73.69908738666686,28.802248572311896 73.50990680000518,28.094362619660046 77.80120408000198,25.69532860385482 77.67814203556168,25.269963363512602 72.41072244445218,25.800482178943298 72.26042655111064,25.23672096411576 77.71753645333933,23.380654848929794 77.73355636446627,23.3763580645533 77.64639348444302,19.309526011965886 77.60852824000881,17.803935341776764 72.96850662222255,8.925940256456329 72.72318352890557,8.779584460403953 62.37148105778738,8.563669357761341 62.21171885336639,8.551567228750741 58.59391320002737,12.589005124980417 58.39796056002501,12.632660027425686 59.54068994668319,14.023943819403598 59.61875060445868,14.19607059352677 58.19530868443667,17.120107074391512 58.63112308446557,17.75496958746919 52.68846424000344,20.685826136097262 51.346723866685124,21.50564168010135 52.813419546677096,23.210705461773273 53.09456898665644,23.87421743186826 52.18099714667892,27.99328376082815 51.67848166221643,28.640117382841368 48.79977645332815,23.77403533076688 48.7381726133533,23.43945291678358 26.741815208901016,18.564086285033795 25.760814106680982,18.321295994457273 22.67108297779464,28.172263312567907 22.676034586685773,28.67313158323634 18.520688097785523,30.91013629230258 18.51377040890634,30.92359015202203 14.554158106657042,28.50964325833013 14.320922764461784,28.45899117443298 13.302420506697445,35.096387675184474 12.899811013346834,35.16263433811366 14.818559457787842,38.49634287459014 14.818195368897932,38.507194899262345 8.05255000000011,41.24974883330981" stroke="#009edd" stroke-width="6.243798611406101px" fill="none" stroke-linejoin="round" vector-effect="non-scaling-stroke"></polygon>
</svg>