<svg width="1060.3221703111194" height="2656.9897144383867" xmlns="http://www.w3.org/2000/svg"><polygon points="5,2340.7652882905677 10.037242595572025,2355.8619783222675 10.852510435623117,2356.0435150583507 6.421985564404167,2385.489830969309 6.822483342257328,2385.8018889452796 21.104962275596336,2391.5105046584504 22.219365546596237,2391.942813715141 51.29550421331078,2385.8667146870866 53.337897244491614,2386.0893574340735 79.33588280889671,2397.2390895272256 79.5927839288488,2397.276194749109 90.5629277867265,2388.730652186554 90.70885461336002,2388.698463274166 110.41771434666589,2394.6770258780452 111.67221902229358,2394.3354747445555 132.75500458665192,2418.3916272427887 136.14831303118262,2421.9041874532704 151.71588010666892,2420.318222950911 152.34648206224665,2420.234633185668 171.34871807997115,2431.919459084631 177.48783928889316,2434.7765394889866 191.786046862253,2455.278757615015 195.30518442671746,2458.7102823139285 223.8748026310932,2479.641066676937 224.07927495113108,2479.773791037558 230.0814987377962,2498.818683451158 230.08703288889956,2499.206991031533 269.1962962488178,2532.0596207756316 269.3969820444472,2532.172208569129 273.5138079288881,2552.7024340937496 273.2371003733715,2553.356006678543 279.70885319111403,2558.563968222821 278.7654260622803,2559.630740816705 340.33635242667515,2566.552575566224 342.007083519944,2566.7522535320604 345.6654486756306,2616.3887207832886 346.0333240889013,2622.704531411291 343.0842040888965,2648.595585396921 341.63163505785633,2651.9897144383867 356.9120088177733,2630.7841460453346 357.3375559110427,2630.7305568300653 361.36554410669487,2597.7626786657493 361.6536112355534,2597.111917789327 377.6391523554921,2580.019488083315 377.7052708978299,2579.398155698669 370.5382539377315,2568.7249012858956 370.2708670577267,2568.4917223776574 374.49225927109364,2556.5318146671634 374.25399950228166,2555.816156211018 353.65443271107506,2536.4219088791288 352.18642631114926,2535.5873442671727 349.89965681778267,2525.674190225778 349.61158968892414,2524.316837913182 360.21793592895847,2516.540718806733 359.8544295822503,2513.853148801427 403.9150105599547,2498.6363707950222 404.79202787554823,2496.605898063164 436.51552967110183,2502.6168294374947 438.0368386844639,2503.192354545463 425.6589815466432,2495.0799032542855 420.9549531022785,2490.7793561196304 422.8834591289051,2485.040693807765 422.71452188445255,2484.7377140180906 414.5874753422104,2484.6510206091916 414.1642584177898,2483.8363690208644 419.2140256711282,2480.733247250435 421.77604636445176,2481.182809364982 421.1372888177866,2464.2029344781768 420.03657528886106,2460.9507110192208 438.3024779377738,2452.74329218379 439.1780388978077,2451.9548919012304 427.35592703998554,2445.2515876240795 426.02248789335135,2445.83530792885 423.19919701339677,2435.5708119780174 424.71904967108276,2434.1927898440044 412.76091420452576,2421.1103126264643 408.3484481421765,2418.336198253557 449.7118586311117,2395.822380651254 450.6806263467297,2394.440533068613 448.3985171910608,2391.0670181661844 446.16475903999526,2388.876843437669 442.53581226675306,2395.5188309233054 441.408884337754,2396.5703003585804 429.02461923554074,2399.846274948679 427.56039936002344,2400.2186636230326 419.64161166222766,2395.1129051538883 417.3976590222446,2394.7525783477467 404.8473693866981,2402.558036878938 404.33444096008316,2403.067661996931 394.9898811733583,2391.789024447906 394.8856061155675,2391.578905217233 386.3694213689305,2391.326761875418 386.2319414045196,2391.208737233188 378.5927739733597,2406.5245878831483 378.33325141330715,2407.0605786399683 368.0685661867028,2394.4517094830517 367.9191441066796,2394.138769662648 370.86709902225994,2383.984077952453 370.7948637866648,2383.521351899719 363.62580792896915,2371.302796531236 363.435607893276,2370.9880353604094 329.1296964266803,2383.883485415019 326.38504874671344,2385.4603240317665 319.47930197336245,2381.712463710457 319.16181646229234,2381.555537711596 334.7474423466483,2322.691449868609 334.73025735118426,2322.038533335086 316.69649777782615,2313.1743287987774 316.4661023289664,2313.2248648556997 316.2290076444624,2299.017961748119 316.0434679465834,2297.9933082764037 304.3387383465888,2293.272505712812 303.6650282666087,2292.5631466122577 312.0122757689096,2279.0553677133285 312.13752234668937,2278.7046911451034 307.37203569780104,2271.923641422065 307.1873698133277,2269.4410808220273 267.7906218667049,2261.3285035700537 267.7387756089447,2260.3072530993377 258.33858304005116,2269.2634983861353 258.3895554844057,2270.160355317639 265.9390114132548,2270.8035851186723 267.46090296888724,2270.41711069335 273.79401073779445,2280.1659889196744 273.77478684450034,2280.279152988689 263.4699062044965,2287.372142723878 262.42802943999413,2287.7621655398398 248.0622469688533,2284.074364817352 247.5513574400684,2284.1817122253124 220.09701631998178,2298.8994403118268 217.90490993775893,2301.1549146489706 209.7376679822337,2296.189083618985 209.0042473244248,2296.162248237175 203.40456021332648,2316.984178260376 203.2041656888323,2321.2434035965707 180.10403640882578,2339.577613002388 179.6240216178121,2339.951445223007 176.39702897774987,2314.932350643561 176.2977055289084,2314.746755004511 166.91440668446012,2318.854866661073 167.27033998223487,2319.7094837742625 161.80055978661403,2313.725752579223 161.30190364446025,2313.586666906136 155.31569976895116,2329.2813263172284 155.15812209784053,2330.8236759154242 145.15237688890193,2331.451524031465 144.59779669332784,2332.52521170635 136.67493119998835,2325.574545110576 136.13695345784072,2324.2137217106065 133.75697720889002,2329.2236389231402 134.1545622755075,2330.0491485621897 141.36439608887304,2334.923885269556 141.5717811200302,2335.4609448749106 130.58357845328283,2335.743560227216 127.64552675560117,2336.254681690538 128.7124528355198,2341.3729856283753 128.7532307910733,2341.529493132897 120.99435093335342,2345.6648282212554 119.69469923549332,2345.0665330374613 112.81458431994542,2332.3628844183404 112.41729052446317,2330.9229511640733 119.16575089783873,2320.370904158335 118.94438485335559,2317.282917040575 108.85125831107143,2313.082201089943 107.78491477330681,2312.1823886231286 107.37130979564972,2301.499741227017 107.35674624005333,2299.747426238493 95.06830933329184,2299.6991233304143 94.29847978660837,2298.0009115716675 54.89153735106811,2319.805633581709 53.22575786663219,2320.4706313323695 20.01007416890934,2324.807154442242 18.33468273782637,2325.252116140793 16.821238044416532,2326.0356043003267 9.074300302308984,2330.2476997141493 5,2340.7652882905677" stroke="red" stroke-width="3.6028212947585514" fill="none" stroke-linejoin="round" vector-effect="non-scaling-stroke"></polygon><polygon points="629.9786754844245,198.7417938800063 642.2592480711173,205.8514514483977 642.9376184889115,205.98736579774413 668.6923926755553,204.5577774111298 670.7074062222382,205.0160956167383 705.2716751644621,222.88524041092023 708.2717676088214,221.26387055090163 710.0689103644108,209.4669249560684 714.4371032178169,208.42523040942615 712.0513015466277,167.68326482822886 711.7961480533704,162.1499249896733 737.4679099733476,154.88302591553656 739.8624497777782,153.80448728287593 743.4345986844273,148.01921991608106 744.5280304355547,148.13529712858144 743.5959628800629,136.63432002818445 743.4337248711381,135.35152808972634 751.1101750044618,129.17098510504002 751.9155396266142,128.17633632407524 753.6037469867151,117.03839972417336 753.4432566044852,114.12971331656445 758.1662176711252,113.82343844405841 760.8896025599679,111.89001192827709 769.1034478932852,114.54575858340831 769.4882170311175,114.78201412037015 765.0105062399525,122.18214896449354 766.5708455821732,126.2678808120545 779.1086105600698,127.257569527952 780.9086660266621,127.44864081719425 773.4157166933874,141.72792336228304 772.8969628444174,146.17462278006133 788.5921066666488,141.8458106199978 792.847577599925,142.38872352952603 817.8179586845217,152.64825904666213 820.0461826844839,154.12199732474983 826.5438586311648,143.77581019874196 827.4153417955386,141.95285761496052 869.0621590755181,155.4024207602488 871.5102927644039,156.1670580531354 882.7032590222079,166.56007863674313 885.6931569777662,169.17225667578168 880.8758240711177,176.42874497780576 880.24522211554,179.60981804691255 972.8965236621443,228.05178093031282 973.5824671288719,228.58319217484677 993.8802770489128,219.98473623918835 997.0061986134388,217.54790369136026 1008.7578228622442,191.73892744648037 1009.0581233777339,191.3578003385337 1022.7044662045082,196.49979924072977 1024.2761651199544,197.4629792139167 1042.1421525332844,216.47464122850215 1042.9478084266884,216.7866419245256 1042.8843113244511,206.1056699133478 1042.1663280355278,205.6649641803233 1048.8885740089463,202.82835128356237 1051.0763113243738,200.15290659922175 1053.887660088949,189.0755394983571 1054.4206862222636,187.20690374274272 1049.0910074311541,174.4136801137356 1048.7749782755272,173.2047225922579 1055.1599323021946,169.82710277254228 1055.3221703111194,169.5886486970121 1031.7877558044856,153.21508263837313 1029.0731090488844,152.4906321449671 1026.1137945600785,140.2870739584323 1025.6929078045068,139.9568967842497 987.9430067200447,140.4898774745525 980.2094674488762,141.648880146211 982.1938975289231,130.52653684315737 982.2821526755579,130.05270448653027 960.5751731200144,107.44351771147922 962.0720153599977,104.31379644514527 951.895294008893,100.49193393916357 950.1290259911912,99.87482788052876 941.944016497815,105.65595001727343 939.1495614578016,104.5139228629414 949.1794821688673,123.61995585553814 949.3280304354848,124.36934626859147 939.5998665955849,134.45763446291676 938.9139231288573,135.45677151484415 936.4043312355643,130.68463129963493 935.5686744177947,129.3141744065797 911.9966859377455,141.59377571567893 912.0561052444391,141.9912499843631 901.3798539377749,139.29654093802674 900.3956488533877,139.41397782822605 907.4781971911434,133.51269593765028 909.0705763555598,132.42546954442514 902.8414523733081,131.35359543270897 902.2991055644816,131.07173638540553 909.0956256710924,121.61298622208415 911.382395164459,118.58329894114286 924.2082272710977,111.59096171864076 929.164205226698,116.28265995590482 933.7648324266775,100.91252279368928 933.7954158933135,100.82759191951482 913.074389048852,89.77997197257355 911.8493027555523,87.81922530417796 893.95680967113,92.42288604471833 891.7818882844876,93.44299714057706 890.8000133688329,81.2352344301762 890.4790326044895,79.55407792108599 882.146348657785,84.19767087040236 880.4007608889369,84.83831448899582 880.7264019910945,73.2327955175424 879.7354976711795,71.19328331772704 872.9541236622026,70.38903977302834 869.5054737066384,69.61506551899947 869.7667438932694,64.68153641419485 872.260607146658,62.957779611460865 885.4324693332892,60.18347402557265 886.5168716800399,60.306827449647244 880.7881514666369,57.30114102445077 877.8457307021599,55.622511307592504 882.8285055999877,47.48312043782789 884.0055321600521,44.60061973310076 879.9277366044698,43.15641789039364 879.6629711644491,42.36472371418495 880.7360139377415,26.67033039801754 879.6318051555427,25.416718613007106 867.0410288355779,18.48783030814957 865.6312766578048,18.28220183798112 861.2919196444564,30.595164284226485 859.13301816897,31.723569208930712 865.4917577955639,44.17856674094219 865.6423449600115,44.36112509469967 844.1127495111432,60.00815841648728 842.8031945956172,60.66920596989803 839.0190003199968,29.246222428046167 838.8430725688813,28.543504021130502 831.2822570666904,18.172834528726526 829.935128177749,17.034868944145273 825.8584977067076,23.18604912504088 825.4609126399737,24.93678313982673 807.8809534577886,5 806.1146854399703,5.040224295691587 802.9468208355829,11.192646411247551 802.9648796444526,12.584182466263883 822.292756764451,31.005494022741914 822.8467544177547,32.153780523804016 809.4246903466992,56.71734986547381 809.2301212444436,57.919271138031036 798.7691192888888,39.932234430569224 797.3582020266913,38.2349436673685 788.599970986601,45.04436193476431 788.1007323021768,46.11440051929094 797.7176305777393,59.607371946272906 796.8659538489301,60.44328426977154 778.5345152000664,49.90874759724829 778.4940285155317,49.74020172300516 778.9489939911291,55.078027025272604 778.5348064710852,55.724630200187676 749.8938268444035,57.673465220606886 747.720653084456,57.92830811499152 741.292882204405,48.28021847619675 740.8484024889767,45.5201863279799 726.6780629332643,46.95714258716907 726.1636781510897,46.737984775332734 718.2111030044034,29.306778120517265 718.2818818844389,28.93350171856582 705.3520659911446,33.08017806010321 700.2015189334052,35.59001777600497 690.0952851910843,32.129829706042074 688.6631051377626,31.89438850886654 687.1586898488458,35.33514880086295 686.702559288824,38.281036402331665 691.2487187910592,39.72707804804668 694.2758994488977,40.15185096114874 693.2914030932589,48.99688123445958 693.1157666132785,51.91502093162853 714.8253676089225,49.6394356287783 716.534546488896,48.68238134775311 719.3735660088714,55.441769787692465 720.2342721421737,56.5935425615171 699.3408127999865,58.25499458174454 699.2962483200245,58.311475594877265 700.6777472000103,62.95190571178682 701.8696285866899,65.40898932912387 691.9136907377979,77.84128193417564 691.4328021332622,80.08313985785935 694.6696979911067,100.6726381649496 695.599435377866,102.19461357209366 680.7606286222581,113.00444467598572 680.1681831822498,113.80582084978232 660.8539958044421,118.77528126735706 660.7028260978404,118.76986059220508 653.1006500978256,103.31677564338315 652.0532391822198,103.16769647330511 659.5348289422691,121.46346782706678 660.4080597333377,122.87282144255005 654.4786537244217,132.80669952346943 654.1550515199779,133.24122861668002 657.522145564435,140.9772374924505 657.857398613356,141.70398456277326 642.3853684621863,176.63106332736788 641.7774856532924,177.7569073268678 645.7178012444638,189.654912682774 645.5042995200492,190.26228198577883 629.9786754844245,198.7417938800063" stroke="red" stroke-width="3.3587814685415758" fill="none" stroke-linejoin="round" vector-effect="non-scaling-stroke"></polygon></svg>