<svg width="1805.390759822214" height="2132.8475929804263" xmlns="http://www.w3.org/2000/svg"><polygon points="5,975.0539193903678 10.485800106660463,984.3604734792025 10.583375928923488,985.3727426886326 9.68276565335691,1005.5899335338036 7.0755979378009215,1008.0000504178461 10.750274275545962,1023.7635499960743 11.5675810133107,1026.4038993940922 10.617163377813995,1055.7110324587557 10.488130275625736,1057.383301294758 34.76353848888539,1107.1150373793207 36.18785422225483,1110.5720940921456 53.53100999107119,1181.904349332559 55.02726968890056,1184.381113698124 63.160432924400084,1190.7396083859494 66.43199004442431,1191.431308448664 84.9792605866678,1165.8097532017855 85.32004778669216,1165.4482027955237 115.8904072532896,1174.8464739536867 116.56382606225088,1175.1835992626147 119.9582995910896,1182.358440282289 120.20529749325942,1182.6066701231175 107.24489813332912,1187.3920618569246 106.73196970659774,1190.5254664383829 159.31689102225937,1233.8450423156028 161.10908216889948,1234.1047235337319 154.77277041773777,1258.571828535467 154.728497208911,1258.7090202835388 183.52530688000843,1260.2116785452235 185.30934243556112,1260.364061503089 182.91567644441966,1279.5694364461815 182.79916799999774,1282.204811222502 167.85899889771827,1291.6799256832455 167.53510542225558,1292.042645261041 149.99097258667462,1285.4381073619588 147.16593408002518,1283.3468736714567 134.17058218666352,1288.5130080058007 133.47269660444,1288.8587014276418 131.94497962656897,1293.6845421098988 132.24994047998916,1295.5022596924682 140.39621091552544,1310.1911935691605 139.9808583110571,1311.5816493084421 122.2529334044084,1316.1239263145835 122.00273151998408,1315.9807878271677 125.52303416887298,1338.9880438146647 126.044991999981,1340.113698391302 117.10180380451493,1344.5196177037433 115.32971036445815,1346.2572941444814 112.46651534223929,1357.55276991165 110.94520632887725,1361.2243853429682 101.78764259547461,1369.2107037220849 102.79514936893247,1370.5207151405048 108.08113749336917,1369.0330900402041 110.58839921781328,1368.8122230814188 121.05697422218509,1378.9948748857714 121.71990727109369,1379.1264685934875 166.36040903104004,1375.3106785848504 169.241662862245,1375.305617200269 168.79281408002134,1382.180708372849 168.7060152888298,1382.4899028773652 179.80373589333612,1390.2748326509027 181.00668558222242,1390.760231195658 181.7473880178295,1379.4398085319554 181.20941027556546,1373.5713958077831 222.3843683556188,1385.8514442739543 226.46624170662835,1387.0757758532418 234.521926826681,1374.950859859935 235.16505344002508,1373.6845876534935 238.75875640881713,1377.2579224411165 242.4229469866259,1381.01524355344 241.23397831106558,1371.670132020081 238.05766684445553,1368.4211039535003 248.37681976892054,1353.945976129442 250.9493262222968,1347.5950561620994 249.20490353775676,1330.6338096067775 248.24691285332665,1330.377006003866 262.169089422212,1312.2163495589048 263.4739840000402,1310.1226140899817 265.7761908622924,1293.7310324189602 266.0246451200219,1291.2219222986605 279.1260196977528,1262.9108205487719 280.20139264001045,1260.6485707856482 280.244792035548,1245.3301119323587 280.13410901324823,1243.608656632132 288.1073644089047,1231.3043858042802 288.9727308800211,1230.5419067483745 304.35446698672604,1226.5268759067403 305.0060404621763,1225.769905288238 317.32913863111753,1244.5423602239462 318.15343587554526,1245.4401483240072 328.95231232000515,1251.1895867211279 329.9199149510823,1251.7512629008852 342.253207608941,1248.048316638684 346.0076922310982,1245.8259658558527 357.10686919116415,1255.928798648587 358.45137664000504,1256.4881605781848 387.7774259200087,1262.1553588306415 389.4615554844495,1263.1649423596682 412.4984789333539,1317.4453063834226 413.0839338666992,1319.026257263613 411.5556343466742,1371.7483547235606 411.5812662044773,1372.6732210064074 417.91699541325215,1374.7576065884205 418.86624796444084,1376.581542471482 417.98777429328766,1385.4391912641586 419.3480103822658,1386.7845318799373 540.8581623466453,1391.9256433346309 541.9044081777101,1392.0282434698893 548.2782939021708,1407.8676464357995 549.0361813333584,1408.827781968168 559.2498941154918,1411.38198849943 560.5003209955757,1412.202254098549 552.6712447999744,1437.2407056147931 551.747915377724,1439.404045190895 538.0229293510783,1456.1442385561531 536.282001919928,1457.2679017534829 538.7286792533705,1466.896300823777 538.9494627555832,1467.1437432658277 529.8685033244547,1483.1956200946006 529.888018488884,1483.5474400116946 514.9609565866413,1493.211915642256 512.5084538310766,1498.2148304661969 511.6101737244753,1512.8922594157048 511.1951123911422,1513.4325617711875 521.9872895999579,1530.2962123107864 523.2653872355586,1532.0742332652444 560.9713063822128,1558.0223835256184 561.9954156088643,1558.8342760606902 581.3585365333129,1590.1904825313832 582.9686832355801,1592.4175606020726 617.9535476622405,1624.3502745878068 619.6679694221821,1626.1417677976424 640.5355056355475,1663.5405025762157 640.8425053866813,1664.2931808665162 624.3315111822449,1686.7491730373586 624.0434440533863,1687.8330410224153 610.0854411377804,1691.7384125221288 608.8621024711756,1691.4760656629805 606.2080401066924,1697.9905354169896 605.3068472888554,1698.9204359285068 605.1909213867038,1691.2762040062808 605.3260711822659,1690.6462939876365 594.126405688934,1689.2054425675888 592.8928725332953,1688.9839843216469 589.729668266722,1699.2682287166826 589.1721753600286,1699.9229229994235 581.9646717155119,1701.1633909302182 579.2803171555279,1702.5651111106854 576.9003409065772,1716.4825820928672 576.7375203556148,1717.0154838501476 583.7868637866341,1733.5265171560459 583.6924919466255,1734.1517084143707 571.4436679111095,1752.330155321164 570.1847941688029,1754.979050966911 575.4040812088642,1758.252116931195 576.2773120000493,1758.4831496025436 579.0073961244198,1774.4137026754906 579.060698737856,1774.7609145539463 588.9208083911799,1791.0627102290164 589.2345073778415,1791.5430746483617 603.2181421511341,1801.1023798303213 603.6299995022127,1801.4518448708113 600.2139719111146,1808.2692849040031 600.4545618488919,1808.5985334281577 611.7969501866028,1811.792723167804 612.20006940444,1812.0310456656734 608.4205354666337,1815.5199834425002 608.4429633421823,1816.1247330455226 613.5413728711428,1822.1744317697594 614.4748967821943,1824.5827845754102 605.1169385244139,1820.8207833553897 604.7120716799982,1820.6141537801595 612.1237563734176,1841.4795282577397 612.7607662932714,1841.9960519002634 612.0518124088412,1878.2616457194672 611.8304463644745,1879.327108499594 621.2149102933472,1885.936440887046 622.1705708089285,1886.807234494947 615.8427059199894,1876.7779765970772 615.2671542044263,1875.9677383818198 626.5440065421863,1869.8268142594025 627.1154804622056,1868.9444753098069 658.9872392532416,1870.609072206542 660.9783685688162,1869.448997346335 674.4924743111478,1877.8535459160921 680.8217955555301,1881.5709439839702 686.383326151059,1876.9657310810871 686.6673154844902,1876.7816490579862 688.4900900977664,1883.416765799746 688.5748499911278,1883.5879889585776 683.1732272355584,1890.0374487417866 683.0433203199646,1891.0826562196598 688.7289324088488,1904.3917398858466 689.0569036799716,1905.7026368054794 682.4319422577973,1905.321210686583 682.2364993421361,1905.5823797865305 681.05422990222,1921.6581297077355 681.3789971910883,1922.2529439183418 701.8614729954861,1926.1770243886858 701.9532233955106,1926.1531588516664 708.344585386687,1935.8299588945229 708.876737706596,1936.8900894334656 712.4777224533027,1936.9538806721685 712.6186976711033,1937.009870089125 714.8932337777223,1925.3050126687158 714.968672995572,1923.3948357432382 735.6946514488664,1925.548258397379 737.0808106666664,1925.6267395078903 755.0935987199191,1957.4510033088736 757.6384344177786,1960.0813227149192 751.3059091911418,1964.7613948712824 751.250567679992,1964.8279311009683 729.153576106648,1957.2233956574928 727.6124606578378,1956.0977438067785 724.1265279999934,1961.2253089293372 724.0073981155874,1961.47402073408 755.141367182252,1975.0655476971297 756.3370350933401,1975.3555398982717 753.8440456532408,1980.4376817898592 753.829190826742,1980.7969511086121 758.2993285688572,1983.1838056619163 760.4483268266777,1984.634625932551 782.3323992177611,1983.1071807909757 782.9064945777645,1982.937413015985 787.3684767289087,1991.3205698815873 790.0481709510786,1992.512107062852 791.2415086933179,1990.887907661032 792.4164963555522,1984.6433436719235 787.1074978132965,1979.8026500124251 785.8235747555736,1980.4808124931296 784.1481833244907,1967.7981792817009 784.1242990933824,1967.4489833678817 808.075231288909,1963.523358391365 808.2386343822582,1963.4669169741683 804.5843470222317,1948.9963193540461 804.1486054400448,1947.5113005259773 815.0654466844862,1927.407013881253 815.8944042666117,1926.819098135864 823.961157688871,1926.58411497029 824.7333174044034,1926.8562731835991 830.3874722133623,1937.16957752686 831.416824319982,1938.2788066727226 818.3492371911416,1940.685405883065 819.2469347555889,1941.4733731374145 849.3291238399688,1947.4796359217726 849.5027214222355,1947.5062525459216 863.7953948443756,1957.3193029430695 864.266962773283,1957.6102367449785 868.6377770666732,1948.2859346126206 870.2214180978481,1946.5563123803586 874.423003875534,1952.5491258036345 875.8618831644999,1955.4575926647522 880.2603682132903,1952.4224703139043 880.9923325155396,1954.2112427756656 885.0739145955304,1952.3430811464787 885.8387925333809,1951.8226913153194 884.037863253383,1947.5062525459216 883.2287121067056,1944.787668689154 894.7173185421852,1939.2085905536078 896.4259148800047,1937.7037705119 905.457940764376,1956.773686286353 905.7623190756422,1958.3270151965553 900.3746773332823,1961.5635018483736 900.1279707022477,1963.694059172878 906.9509964799508,1961.2757855181117 907.3631451022811,1960.9444753295975 913.3347854221938,1970.8610758814611 914.3871479466325,1972.1114593860111 932.1497341155773,2016.1171361879678 932.2079883377301,2016.4167072581477 959.4552356977947,2027.1574089878122 960.6835259733489,2027.8624882688164 970.9735517866211,2052.5392720672535 971.7259050667053,2055.1647643910255 978.0660033422755,2053.251148750249 978.7003918222617,2053.3080253943335 978.3511577600148,2043.6750183248078 978.3336814932991,2042.4805523928953 988.1594211555785,2045.012133451528 988.6746797511587,2045.3309298328822 993.7861964799231,2057.246696575079 994.2755319466814,2057.5787764339475 989.3247968711657,2068.2477169443155 988.0994193066144,2070.4152899181936 995.1816763733514,2074.878330319363 996.7408506310312,2075.444287338876 995.777034524479,2077.04033318453 994.2120348444441,2079.3247679440537 999.607832177775,2085.512020526745 1001.821201351122,2085.542289060948 998.2481786310673,2114.0675802210462 998.3807069866452,2114.351883253199 1014.5273210310843,2100.9245763674844 1016.436894435552,2098.369803878886 1028.743681422202,2104.399220248102 1029.0393215999939,2105.3819423058885 1065.1592695466243,2087.417554068612 1068.1118848000187,2087.5867811445496 1074.4068360533565,2093.4004991388647 1075.5020154310623,2095.469222297892 1078.2632655644557,2111.3034015641897 1078.7904662755318,2112.7817921589594 1088.0572566755582,2121.1832974987337 1090.0690662399866,2122.424557595805 1136.1204852622468,2126.224869258527 1137.8069449955365,2126.071720925567 1142.0210554311052,2122.348440632224 1142.4428160000825,2118.8832562476746 1138.9825152000412,2111.4648144287057 1139.4153440711088,2110.499086799682 1162.7417910044314,2102.2255680889357 1163.7227921066806,2101.5546663923888 1179.3148259555455,2078.535927513032 1179.8577553066425,2077.822299618623 1163.3429745777976,2071.420181479072 1162.455762773403,2069.0797079575714 1163.8095908977557,2061.966402443708 1164.6350532267243,2060.5716001986293 1177.4702060088748,2055.646376395831 1177.6321527466644,2055.4743722316343 1163.2308352000546,2035.0567343233852 1162.0139044978423,2033.9461671841564 1158.9366252089385,2019.4211114457576 1158.4921454932773,2018.9674027577275 1183.0282413511304,2016.6451700614998 1185.6549242311157,2016.8662924643722 1193.3972016355256,2004.9386635512346 1192.3209548799787,2002.8585211204481 1201.5332775822608,1997.7608487399993 1202.5838924800046,1996.9629931687377 1195.289881315548,1991.7197378635174 1194.409077475546,1991.5683294055052 1204.1631644445006,1982.6396308397525 1203.6077104355209,1980.8446701046778 1194.9199670044472,1979.4695328854723 1193.7758540799841,1977.7029940803768 1201.4354104888625,1973.9831208360847 1203.2669232354965,1973.0952422732953 1205.3850467555458,1977.8209167311434 1207.6068627911154,1982.0192882234696 1229.6723970844178,1967.4691734229564 1229.8733741511824,1967.3338082449045 1229.970949973329,1934.0052371728234 1230.4460131555097,1933.695914105163 1222.4191638755146,1912.9138045577565 1221.7407934578368,1911.4753539400408 1226.3329737955937,1913.1015276232501 1228.4717775644967,1913.9997503996128 1230.434362311149,1901.2705247118138 1232.2317963377573,1900.594867486856 1233.6208682666766,1907.589561641973 1234.0994267021306,1914.253106378368 1238.6630624710815,1911.3399536596262 1238.9656931555364,1911.4675512142712 1238.7277246578597,1899.1623019343242 1238.8311259022448,1897.8779880499933 1243.83661994664,1892.6438021038193 1243.9196322133066,1887.7234689961188 1250.6174114133464,1888.2568662488484 1252.1931881244527,1888.2320784538751 1249.1965909332503,1877.9389301907504 1248.9600787911331,1877.1094159425702 1255.0948309332598,1876.1183097928297 1257.275286471122,1876.2427147515118 1243.1136850488838,1853.9551799959154 1241.986465848866,1851.6600961759686 1242.1854040178005,1842.8220280281384 1242.098022684455,1840.4175517662661 1233.0059949511196,1843.1608655700693 1232.3672374044545,1843.1429595344234 1208.7946663822513,1807.1515811471036 1208.600971093285,1806.8269224799005 1231.729936213349,1746.5490470001823 1232.183736604522,1745.3593670103 1207.436760462122,1709.198234416952 1207.3420973510947,1709.043871210306 1223.3526877866825,1686.1978180097067 1223.4257968355669,1685.8766530568246 1205.70923150226,1677.0814178737346 1205.5997135643847,1677.0400644428446 1212.3417659733677,1664.4204650309402 1212.5316747378092,1663.3658881898155 1207.887939413311,1649.76896723354 1207.6520098133478,1648.9955588713055 1225.472267662175,1641.551763737516 1225.459743004525,1641.1877933449578 1213.4325762843946,1630.9862622836954 1213.5983095465926,1629.4563127283473 1205.8373907910427,1635.1164744480047 1205.6032088177744,1635.1293424607138 1190.4562372266082,1630.0721543466207 1189.1251282488229,1629.9797782159876 1188.745019448921,1618.5170181448339 1188.291219057748,1617.4833589479676 1176.63833571563,1612.558127766475 1174.9454680178314,1610.7697391218971 1182.1590883556055,1602.3272046719794 1182.3685122844763,1601.3872352471808 1182.149476408842,1576.1710842411849 1182.538323342218,1575.165263801755 1199.028928568936,1549.1773381457897 1199.7623492266284,1548.2348383056233 1188.440349866636,1522.6455432329094 1187.801592319971,1521.6380937221693 1190.9968364088563,1514.8410201863735 1191.203056355589,1514.6313384193345 1188.6430745599791,1496.5133281991584 1188.4895746845286,1495.7416695030988 1201.4630812444957,1458.2227578954771 1201.9477563733235,1456.941336303018 1196.0433996800566,1460.9231012946693 1195.525228373357,1461.1940076657338 1194.7353011199739,1438.4196662761387 1194.794137884397,1437.645039708761 1200.9463662933558,1429.3792697604513 1201.625319253304,1427.6661839127191 1207.7190021688584,1430.835658034077 1208.7908798578428,1431.3559257496381 1224.8413744355785,1416.661444848287 1224.9200176355662,1416.3343578533968 1239.7279496532865,1417.9435658791917 1239.8939741866197,1417.8764007758582 1252.6000938666984,1391.414942383184 1252.6999998578103,1391.2916378279915 1251.104416711023,1384.962982844212 1250.9631502222037,1384.6841588752577 1209.3451687821653,1358.4841393646784 1209.2580787200714,1358.3898061793298 1207.0779144533444,1352.8700925552985 1206.978591004503,1352.064786964911 1211.569023715565,1344.5467690058285 1211.2023133867187,1343.758919662796 1188.0241234488785,1335.363911575114 1187.6256645688554,1335.1471520203631 1185.4521995377727,1328.5674063501647 1185.7760930133518,1327.0868553541368 1195.5444522666512,1324.3346695014625 1196.921290808823,1325.2390287625603 1234.9269279289292,1281.0236149147386 1235.0402323910967,1280.9458196072374 1251.5873442133889,1289.6877189456718 1252.4465939911315,1290.00256984937 1261.225214008824,1269.5229541129665 1261.2610403555445,1268.9139078923617 1249.1945520355366,1258.2758071171702 1248.5322015288984,1257.2657403052435 1245.821923839976,1241.2683945951867 1245.821923839976,1241.2191304939333 1252.1492061866447,1236.2305064196698 1252.492323555518,1235.5918989498168 1277.0904601599323,1245.6523940922925 1277.1382286221487,1245.5713631946128 1277.644457813236,1235.7327887201682 1277.3697891555494,1234.9376351163373 1268.802049422171,1225.4033905783435 1268.6462193777552,1224.9056478696875 1273.9782283377135,1215.669342125184 1274.7049497599946,1215.3543825981906 1271.280475306674,1201.663328484865 1271.005806648871,1201.1006007327233 1274.1308543999912,1198.220166842104 1275.0620481421938,1197.6164451213554 1279.1858645332977,1163.5529318217887 1279.1305230221478,1163.4875297068502 1286.0741350400494,1160.4909861608176 1286.6689106489066,1160.4278860407649 1297.585751893348,1172.0412209044443 1298.1161565866787,1171.9836508894805 1310.510033635539,1159.8940674974 1310.7022725689458,1159.390185795026 1311.1782095644157,1148.821294865047 1310.8251889777603,1143.5601466228254 1304.79150791117,1129.1634183999267 1303.8078853688203,1127.428596981801 1272.4510939022293,1104.2688208453474 1270.2683081955183,1103.0682203331962 1256.8147868444212,1080.1984052024782 1255.2885262222262,1077.7849493246758 1246.1880516266683,1086.3876578486525 1243.5433099378133,1087.2814978474053 1228.372745386674,1082.7975167307304 1222.9542289066594,1083.909305791196 1210.6267616710393,1059.5481535971048 1210.4869515377795,1059.101637310814 1225.9700499910396,1047.2568673037458 1226.5756026310846,1046.7347497445298 1240.7771081954706,1005.77337806992 1240.914005617844,1005.0773942025844 1257.0810086400015,989.5927845892729 1259.013883733307,987.5664372714236 1258.0727867733222,972.3709904262214 1258.0171539911535,970.2619635186275 1271.39960519108,917.4599484641803 1271.2833880177932,916.6225804787828 1296.409307875554,911.5314421342919 1297.2100121600088,911.5517313042656 1303.8655570489354,887.8572890887735 1304.0406109866453,886.2344319464173 1310.379544177791,884.2112621311098 1311.9559034311678,882.192223923048 1322.1396152889356,851.3149056261173 1323.308194986661,849.8098529117997 1338.9523663644213,855.3766043109354 1340.5531923910603,855.6482732233126 1365.2363801599713,848.1009157552617 1366.9391510755522,848.2157678275835 1420.2953582933405,886.6001408046577 1424.0326579200337,887.4131836186862 1430.6925718755228,909.1986359564471 1433.8680095288437,912.3208738825051 1484.3272342755226,880.8810841265949 1484.58850446227,880.8543355002766 1512.3932447289117,889.9961767437635 1513.4258008177858,890.9489387448411 1525.9251180088613,908.3658470783266 1528.5535485155415,911.4069403677713 1531.366644906695,930.9597521524411 1530.8205115733435,934.9258905754541 1549.4502118399832,916.3532940469449 1550.9278301866725,915.2351062012604 1581.1501206755638,910.1577686569071 1583.1995042132912,910.3680394855328 1608.3510559289716,929.6816459426191 1609.1788484266726,930.5351008228026 1686.2340383288683,962.6084425267763 1687.9968110932969,962.9809367760317 1729.1350690133404,989.0341120279627 1729.615666346741,989.1249194653938 1725.472043519956,979.4096893929527 1725.2232979910914,978.6509278798476 1727.4969602844212,940.6536548560252 1727.2450107734185,939.4751946757315 1708.0595652266638,916.997920936672 1706.8239931733115,915.2295728861354 1695.376164693269,882.5570172898006 1694.4924481421476,880.7593317318242 1715.8504849066958,874.2939039294142 1718.3676498488057,874.395828507957 1721.0910347377649,854.268246943655 1722.0895121066133,851.5976495679934 1736.450051697786,844.8080023610964 1738.7621617778204,843.7097383500659 1766.816521386616,801.5844774915604 1768.2708380444674,799.9951100803446 1783.8590853689238,794.1902438010438 1785.7907953776885,793.2352078821277 1789.6227581155254,775.7060856573517 1790.4266663822345,773.1567879413487 1787.9196959289256,765.6674456004985 1788.3813606399344,763.8512488858541 1800.082886257791,759.705685539986 1800.390759822214,757.6850174622377 1787.2223928888561,752.7723938158015 1785.7561341155088,752.8563791188644 1736.1223716977984,685.5431793570751 1735.1180689067114,684.1634464900708 1730.6598732799757,669.1875363742001 1727.722986666602,659.3452078179689 1693.8420397511218,620.5365617308998 1690.3995064889314,616.3018883129116 1689.749680639943,579.4930568917771 1689.7971578311408,578.2710520965047 1671.7674760533264,526.0688915682258 1670.7384152177256,522.714224940748 1672.0339891199255,503.1940343385213 1671.9841817599954,502.8678666233318 1661.2607445332687,481.5430010225391 1660.8232553245034,481.16412779979873 1668.9567098311381,457.27436067862436 1668.9753511822782,457.2105919356691 1663.4496469333535,430.71489090344403 1663.0092450133525,428.2294372310862 1668.1472674133256,412.0210603810847 1669.072635733406,409.7040916121332 1686.9360017066356,397.5212225129944 1691.0848674133886,394.25838151131757 1694.8978975288337,381.48896026890725 1698.5518936178414,377.91246183402836 1723.2799371377332,361.9212680676137 1724.318027377827,360.8903425821918 1734.5023217777489,329.93438558035996 1734.0019180089002,327.4190990984789 1716.2780708977953,301.67132182081696 1715.043372657732,300.1823018742725 1683.7171646577772,287.67690165364183 1681.119317617733,284.09375437907875 1690.4863052800065,245.57207168044988 1690.8020431644982,243.78061691776384 1682.4175129600335,209.86273318354506 1681.6753541688668,207.14479640917853 1624.4749508267269,200.29174204391893 1623.1881150577683,200.03173527121544 1607.3688897421816,206.255618819152 1607.0382970310748,206.55262860050425 1585.5523922488792,186.05428875656798 1585.423359146691,185.95758947374998 1580.3756307910662,177.25401305273408 1580.3668926578248,176.98703796014888 1591.9918139734073,166.5266278332565 1592.0497769244248,166.20550133101642 1579.4275433244184,157.131859678193 1578.5327584710903,155.99166973179672 1582.5706498844083,150.74088733753888 1582.5423965866212,150.58632812456926 1574.2420437332476,138.07175303332042 1574.2097126399167,137.6501607070677 1588.4487921778345,125.1075261227088 1588.0482943999814,124.59797478560358 1572.4146087822737,118.65774805989349 1570.1062852266477,119.0553110211622 1550.4591749688843,129.7105572510045 1546.6545917155454,130.9702877663076 1521.4002212977502,133.13060195511207 1519.8066770489095,133.37171536544338 1503.6134596266784,149.4275932366727 1503.3923848533304,149.4979319544509 1478.9468743110774,147.01523892744444 1478.470354773337,147.17396554723382 1456.452297671116,165.95331951917615 1456.032867271104,166.499790190137 1465.986766222166,186.51603879826143 1464.459923057817,188.78544717025943 1435.7516598044895,203.94845875998726 1434.8862933332566,204.17191248235758 1383.1361550221918,175.10015774070052 1382.3972002132796,174.92664536309894 1393.3766647466691,166.48035603261087 1394.5432055466808,164.92469229165 1399.1869408710627,144.5167831776198 1399.5213201066945,142.74438446143176 1392.7288777956273,119.40474002429983 1392.3787699199747,117.84179290139582 1391.9811848533573,70.37359927035868 1392.6004272354767,64.85731188848149 1383.7664657066343,23.419055820908397 1383.912101262249,19.77500681974925 1307.6715966577176,49.87568237411324 1303.8734213688876,50.612265399773605 1305.500753066619,52.99653630628018 1306.3582552177832,54.70902833377477 1298.9104529066244,60.60287797462661 1297.2711790933972,62.98426029353868 1298.4551961600082,75.89900320128072 1298.198586311075,77.04841378401034 1277.6386323911138,114.0674392794026 1276.9110371555435,115.6924327663146 1272.2183682844043,137.2891918667592 1271.072799004498,140.7674253465375 1291.0723473066464,141.09877088712528 1293.452032284462,142.0539317075163 1296.6571795911295,143.80689991265535 1297.90003342228,144.73382003081497 1297.254285368952,152.37763481179718 1297.297393493238,152.65389545366634 1257.809477688861,158.17810819554143 1257.4748071822105,158.179959139321 1235.2243157332996,143.59356426162412 1235.0981953422306,143.43344669241924 1190.0842840177938,152.06481663754676 1189.8623354311567,152.4035487229121 1177.132040248951,140.49068664002698 1176.958733937703,140.4184938754188 1165.3026466133306,98.92538932315074 1165.3303173688473,98.67035130853765 1196.2365124266362,74.10335510328878 1196.3340882488992,73.99688413355034 1194.243635484483,64.66658172686584 1194.1746042311424,64.47446258203126 1182.475117511116,55.91873669187771 1182.3487058489118,55.82197879237356 1131.5655876266537,44.62971220019972 1131.1374190932838,44.172286785324104 1128.8477368889144,49.98448015167378 1128.6045255110366,50.16318616876379 1107.311733475537,50.35207734123105 1107.1559034311213,50.434022724686656 1104.826899626758,33.21091564313974 1104.5895136711188,32.906257925904356 1085.4538754844107,30.715302459313534 1085.3149391644401,30.638905679807067 1081.3085050310474,14.977454847772606 1081.006748159998,14.601462265767623 1061.0564246756257,6.497550762607716 1059.5167655822588,6.369745353818871 1052.1455675732577,7.954804880078882 1051.4939940978074,8.298394972225651 1051.851675022277,45.91123894159682 1051.9792517689057,49.121503923786804 1047.9835946667008,54.79791643592762 1045.4920615822775,57.0640876541147 997.5960226133466,56.701131502806675 995.9215049955528,56.5099311406957 986.5976254577981,53.04653626709478 986.4476208356209,52.92894374812022 979.3939083378064,40.614706063992344 979.1539009421831,40.663319940678775 985.8560492089018,35.30276349140331 985.8671175111085,35.01292478904361 979.8611072000349,27.680245848488994 979.3933257955359,27.109344821888953 978.4932980622398,13.574888032744639 978.2195032178424,12.960885942331515 967.7803465955658,14.107392194448039 967.1022674489068,13.918932176893577 961.3380121599184,10.643776262528263 961.2308243911248,10.489116172888316 962.7844644978177,5.2083796742372215 962.4646488177823,5 947.0613586489344,10.60024918266572 946.7645533866016,10.654426504159346 942.7665661155479,5.577442734385841 942.3654857955407,5.481125208956655 931.5776776532875,11.553675431990996 931.3496123732766,11.527281464601401 925.1828204088379,38.302061784721445 925.0834969599964,38.48124052013736 910.478580906638,40.3609877480194 910.3938210132765,40.35682083887514 875.864504604484,67.28123675636016 875.34516821336,69.85141902510077 845.326476231101,61.779221180826426 840.8959513599984,62.318549933319446 837.1595255467109,79.71383760322351 836.3078488177853,82.36904455086915 791.2112164978171,158.08926287596114 790.8753809066257,158.72228497604374 807.2212243911345,167.84629539283924 808.0871734045213,168.41404608741868 849.8103037155233,213.01873508328572 851.130344391102,214.15399619471282 859.6610926933354,199.1823159342748 859.7269199644215,198.84689615340903 900.4926421332639,174.72166922694305 900.608859306667,174.7003850119654 914.3664676977787,194.64045630494365 915.4721328355372,197.2299341368489 925.6575923199998,236.82604148832615 927.2324952178169,240.95302055950742 946.1706515911501,264.2947247037664 946.6130924088648,264.85065788473 934.0071699910332,265.9981327217538 933.7269671822432,266.102658541 914.7372558221687,283.76725399296265 914.6757976177614,283.7751159060863 927.883194879978,342.5015919392463 928.1706794666825,345.4452847830253 922.3062269155635,368.52924429799896 921.2524080355652,373.39148294803454 924.0765727289254,387.65489426697604 925.1309741510777,390.82677521475125 906.9891529955203,407.82664916827343 906.0256281599868,409.1513062246959 890.4985477689188,438.9821219703881 888.4063473778078,442.1208968422143 873.2354915555334,447.7227012376534 871.9195286754984,448.24211540148826 858.6780526932562,465.9980236516567 852.6560224711429,474.8645695641171 867.7566819555359,503.48693806899246 868.5122392177582,505.05539841682184 878.8357612089021,512.0696718028048 878.9135305954842,512.1800836820621 880.346001919941,542.4515886236914 880.9084464355838,543.3107380862348 899.3936762310332,539.074081763858 903.2302993066842,541.4663339660037 873.0994679466821,570.8478934119339 872.246043591178,571.8967482133885 873.513655466726,597.0977453830419 873.504626062233,598.3007098447997 865.8957508266903,612.3534223574679 865.8334188088775,612.5949222395429 877.2192065422423,623.6597588798031 877.868741119979,626.0261369281798 889.6771632354939,690.5048822659883 890.2084417422302,692.4864849118749 889.3998731377069,717.7490495755337 888.9842292622197,718.9831850719638 847.0146835910855,716.4410612955689 844.6192699733656,716.5684451191337 765.1776958577102,750.5416952517699 764.7000112355454,750.5832268801751 734.9321036799811,740.8401486468501 732.0447331555188,739.9633284170995 704.9719571911264,717.872278830735 700.927075271029,716.0404479098506 601.8002343821572,686.9764488592627 599.2623891910771,686.5222350168042 594.6014688711148,686.0153977068258 592.5835426133126,685.8229100002791 584.2502761244541,725.2557516061934 584.1727980088908,725.5506606518757 518.1328989866888,680.5652055607061 517.4038473955588,680.4521104185842 496.54417550214566,679.814621995436 496.21969948441256,679.9655698231654 486.8197981866542,710.7022495004348 486.63833628443535,710.9796396940947 462.3375874843914,719.1156442202628 462.24030293338,719.1470282574301 437.96547726215795,712.1907367822714 437.7962487466866,712.1791981607676 419.23470591998193,717.8238178960746 418.93673557334114,717.7864337390056 387.40343381336424,700.5954946561251 387.01604323554784,700.6485751678701 369.2304466489004,710.5928625870729 368.84538623993285,710.7124035570887 373.95632042665966,721.5857385541312 373.80019911110867,723.3279872137355 363.59901098674163,743.7950065095793 363.3997815466719,744.4295365222497 363.38114019553177,759.7638273412595 363.055207822239,762.00642768736 332.55125816888176,799.0880812112009 331.710358471144,799.8488600074779 318.31742151104845,849.6604079366662 318.29878016002476,849.7231379388832 308.49022549332585,867.5838398667984 308.35536696889903,867.8006092447322 308.6067339377478,883.13302983006 308.8449937066762,885.8641107418807 303.2834631111473,900.7470165404957 303.01112462219317,902.6759591221344 305.6468369066715,919.240266820183 305.5932430222165,919.8613689828198 291.65271637332626,938.7928282420617 291.04920263111126,939.3105970245088 283.54722389334347,943.4139743233682 280.1390606221976,944.1779315508902 278.90844017779455,929.6779573134845 278.858632817748,927.6883937329985 274.9797754311003,925.5342035807553 273.1916620800039,925.4050990343094 241.1780542577617,943.1414940528921 240.34618396451697,943.9188226442202 203.86564238218125,946.9160758308717 203.16833934222814,947.5066694840789 197.01640220440459,935.4681051707594 197.23369045334402,934.5754790561623 191.58332216890994,934.66492626135 189.9618158933008,934.5307554396568 182.5145961244125,923.26471880608 181.44126207998488,922.6925023911754 156.4534047289053,923.7124390499666 154.56363776000217,924.177218709432 148.2768420977518,904.6302466972265 147.86003313784022,903.3247771862661 139.78978446219116,900.2678909004899 137.10397354664747,900.5141404001042 123.26422670215834,902.6828761693323 122.97878101328388,902.8318231994053 110.2246015999699,918.1612877559382 109.29195150220767,919.2116785557009 76.2623900444014,933.2148626052076 75.8263571910793,933.4790561706759 61.616696035605855,950.8943682108074 60.432970240013674,952.4051687601022 44.22839324444067,951.2106367650558 40.99353628442623,951.6868828511797 5,975.0539193903678" stroke="red" stroke-width="3.80970758431616" fill="none" stroke-linejoin="round" vector-effect="non-scaling-stroke"></polygon><polygon points="1128.933370595565,1649.4799159478862 1132.4012444444234,1648.6858271157835 1132.9348531200085,1647.6886165146716 1128.933370595565,1649.4799159478862" stroke="red" stroke-width="3.6204661553633826" fill="none" stroke-linejoin="round" vector-effect="non-scaling-stroke"></polygon><polygon points="1006.7713538844837,2019.034381046542 1006.7713538844837,2019.034381046542" stroke="red" stroke-width="3.2210122836009667" fill="none" stroke-linejoin="round" vector-effect="non-scaling-stroke"></polygon><polygon points="662.0301485511009,1811.2990870993817 662.0301485511009,1811.2990870993817" stroke="red" stroke-width="3.433267567612922" fill="none" stroke-linejoin="round" vector-effect="non-scaling-stroke"></polygon><polygon points="1005.8078290489502,2020.8533382817404 1005.8078290489502,2020.8533382817404" stroke="red" stroke-width="3.764524887216007" fill="none" stroke-linejoin="round" vector-effect="non-scaling-stroke"></polygon><polygon points="1139.6471958755283,1637.3283826463157 1143.2429377421504,1639.038425363833 1144.2096665600548,1637.6569729331532 1139.6471958755283,1637.3283826463157" stroke="red" stroke-width="3.564366965160761" fill="none" stroke-linejoin="round" vector-effect="non-scaling-stroke"></polygon></svg>