<svg width="1206.4543431111379" height="20303.809027414885" xmlns="http://www.w3.org/2000/svg"><polygon points="5,19841.519683577877 12.833736533415504,19857.204627950094 13.926585742156021,19857.927301373857 8.20339967997279,19864.56596329779 7.822708337800577,19864.781316585024 12.21478542231489,19874.02238593367 12.504891448887065,19874.293593168375 54.07947349338792,19874.45983132365 55.71263061335776,19874.69139320485 74.72884764440823,19885.91959779471 76.53094200894702,19886.8120090093 83.66417152003851,19870.21643897443 84.20389688888099,19869.564988291007 104.14810367999598,19885.089800759044 104.46442410664167,19886.27548155235 122.3420623644488,19890.976246226637 124.08531996444799,19889.2959653266 124.08881521783769,19899.462143317214 123.91900416009594,19901.809018212196 135.50839039997663,19890.70641110203 136.4754104888998,19890.06583289581 140.5470893511083,19875.920379008574 140.9347712000599,19875.092796585464 147.47846798226237,19886.966525068856 149.13114026677795,19887.66792750114 152.5238661689218,19874.808075071604 152.4755151644349,19874.038153805304 159.37893176893704,19871.910381877795 159.86797596444376,19871.618898488116 165.9706882844912,19889.558144053968 166.4297315555159,19890.3181002051 172.29505792004056,19888.162556765892 172.94313614221755,19887.836407904513 161.32840931555256,19865.37916863698 161.13296640000772,19864.641652343445 163.30468380451202,19842.987660410232 163.0617636977695,19842.004504517536 167.75414129777346,19839.216318856867 168.35736376896966,19838.867117275717 203.76224113779608,19837.190941925917 205.09888426668476,19837.459941899753 217.5527631645091,19852.510346382973 218.03569066664204,19853.496608926915 235.51720021339133,19848.022773131263 236.12799573340453,19847.591582781053 263.4317496889271,19815.878964663716 264.01545699557755,19815.18544337171 233.7503496534191,19808.833244804293 233.58257749327458,19808.485346648027 281.11714901332743,19806.936922753346 281.913192959968,19805.090606708254 311.7180919466773,19811.746194178588 311.96101205341984,19811.032831605524 262.0348134400556,19775.08499740495 260.63205176894553,19774.246216171596 231.74087025783956,19772.75884766446 228.2709575111512,19772.88054183137 221.50764231116045,19742.588323373 221.04947285330854,19741.849942106986 192.40820195549168,19721.81081908429 191.7309966222383,19721.1927381095 187.16561322670896,19700.4943567561 187.3724157155957,19698.741373990662 171.43872085330077,19693.512550499465 170.8474404978333,19693.526076978364 148.0050861511845,19700.788322654436 146.40047360002063,19701.693212133425 118.52699335117359,19740.616145624197 117.40909482666757,19742.17811186635 118.37553237332031,19748.53630374209 118.38922211551107,19748.685057524475 137.0716424533166,19748.34337444324 137.01863111113198,19749.529346014606 113.53839303110726,19808.37313585542 113.58354005333968,19809.40330988716 100.82761301333085,19808.79493998259 99.8460293689277,19808.632707722252 93.79458076448645,19815.834802879603 92.58551438222639,19815.91501509311 60.171700053382665,19802.885101600667 59.68294712889474,19802.93106862798 19.833272604388185,19819.32085261075 19.657344853389077,19819.318148870836 5,19841.519683577877" stroke="red" stroke-width="3.8401615167732137" fill="none" stroke-linejoin="round" vector-effect="non-scaling-stroke"></polygon><polygon points="28.344214471173473,20046.945163444034 71.07892935117707,20090.10444740404 72.29935530666262,20091.362378290854 86.68843946664128,20132.00833336357 86.85388145782053,20132.22927337035 130.82941127114464,20175.845933735603 131.29806648893282,20176.201796272595 115.34835171559826,20192.413848247088 114.93998961779289,20192.77013371582 112.50467185780872,20203.298287613317 112.33049173338804,20204.1732118231 132.4069356089458,20216.53378552792 133.24434005329385,20217.810331836226 138.02293390221894,20246.073266099265 138.20614343113266,20246.902595320076 145.50627128896303,20259.441544549714 145.5834581332747,20261.063671727316 174.05287907563616,20250.944855700596 174.39541390223894,20250.891337164212 190.36493511113804,20266.65850171115 191.749055431108,20267.680225184828 194.4759355733404,20282.327852101647 194.67836899566464,20282.642621655134 230.9861868089065,20297.19437398069 232.73847381339874,20298.809027414885 254.35399423993658,20264.457193084527 254.37350940448232,20263.952170641278 254.69478144007735,20263.900004409836 261.5769352533389,20273.36167626473 266.75311416888144,20270.9427829794 268.3393766400404,20270.090160574066 277.66849905776326,20256.3425152041 277.91345806221943,20255.619357075077 313.16454428446013,20234.525294972933 314.66226033784915,20234.9782121515 313.5941691733897,20223.92757522408 312.2362632533768,20218.9595769929 347.5505553067196,20223.052280138014 352.3710921956226,20219.29287945025 373.88146375119686,20239.254567702126 376.2492066134,20238.63344888267 375.8682240000926,20229.610161326244 375.87055416894145,20228.702504705405 354.8876745955786,20201.483652170864 354.2448392533697,20200.75806368678 477.3936824889388,20147.181128980243 479.73113315552473,20146.629491188563 487.1463131022174,20141.788877452607 489.7057123555569,20140.395347599057 486.9033929955913,20136.67097517231 486.0808433778584,20135.96722050535 495.02403157332446,20121.873202072282 496.10697756451555,20120.200543061364 480.6017425067257,20112.81315041124 475.64489073783625,20110.174671191955 494.06225436448585,20088.68943529186 494.14002375106793,20088.644428395317 490.2238836622564,20079.362458364572 490.1455317334039,20077.85555823031 458.75873934221454,20062.796789252257 458.0119202133501,20062.664003174985 451.3951143822633,20038.81431718316 451.6091986489482,20038.1381585747 427.4843776000198,20046.02774612431 427.1004822755931,20046.12362946861 401.59590997337364,20037.65872394154 400.42762154666707,20038.105295952584 403.41082026669756,20013.27820082393 403.50810481782537,20011.58850360161 396.6815837867325,20007.936678016908 396.3087567643961,20008.097862086026 396.13224647112656,20000.20195434097 394.46268046216574,20003.23302246793 413.2479195022024,19967.54417002143 413.57297806220595,19966.25085259741 414.110373262316,19959.22213316639 415.2049700978678,19956.45120293321 406.2480921599781,19931.69140849408 406.07769855996594,19931.16940366116 406.97190087113995,19922.364494270063 407.354339840007,19921.587984158657 413.1456833422417,19918.18869312841 413.2986006755382,19917.94861929922 394.3380164266564,19912.5101783438 393.40128853335045,19912.179561457015 383.68535808008164,19898.12022407481 383.05970773333684,19897.279662209563 375.1674257067498,19895.625106294872 374.7992590222275,19895.493570139282 336.6657538844738,19898.84816786088 336.03806464001536,19898.894114726456 316.1215286045335,19919.16970502457 315.753070648876,19919.770561378333 287.53618176002055,19929.723637441522 287.3963716267608,19929.809212655062 287.7849272888852,19951.941442329786 286.82839296001475,19953.559094330994 292.9060559645295,19957.230741704465 294.15997809777036,19957.480679890607 293.1230529422173,19960.420922272955 289.340315022273,19961.662035856047 291.41037880885415,19974.953578704386 291.4330979556544,19976.23018358642 282.7476846934296,19987.272617572336 280.96918328886386,19989.997229827277 281.651922773337,19998.299185729004 281.13258638221305,19999.112344429363 254.70293703116477,20007.165874346392 253.06715847121086,20008.090208096663 255.54092401778325,20012.07204738469 250.34377358225174,20019.20622004487 251.09554432006553,20020.825175735634 238.90380942216143,20023.65471775731 237.24909824004862,20022.343273473554 200.2757259377977,19973.19243713538 198.94403441785835,19971.29213552503 197.21708800003398,19982.787807612563 197.27563349332195,19984.26294199616 203.44009528891183,19992.60653995769 204.07331868447363,19994.619222117355 176.5315962311579,20014.72341511585 174.76445440005045,20016.3212437341 161.77463665779214,20051.923818447045 166.45856739557348,20055.70229892817 144.54857187555172,20060.16986056685 143.4793156266678,20059.951548590558 142.76803157338873,20066.276205891278 142.31510499550495,20068.33502224041 121.39455743995495,20042.98556637636 120.67919559113216,20042.505242033338 140.61874204443302,20011.634877027478 140.3825211734511,20010.788447901374 129.63956878217869,20016.963253300288 128.26709930668585,20016.334750266164 111.58949802676216,19993.040596467676 111.20589397335425,19992.751075468026 63.113829546724446,19990.986474965466 61.717184568871744,19991.85234221071 28.344214471173473,20046.945163444034" stroke="red" stroke-width="3.5808024722348692" fill="none" stroke-linejoin="round" vector-effect="non-scaling-stroke"></polygon><polygon points="727.722852408886,171.50990087911487 727.755474773352,175.7135880984133 727.8658665244002,183.59477675973903 743.4293558044592,190.03879919904284 747.3015139555791,191.04218415997457 766.5498740621842,211.73751836887095 774.2071003022138,218.5300706566777 797.182565546711,220.24201163381804 799.5098217243794,220.47972518007737 800.0239152355352,229.29766663571354 809.589549795608,240.32611178909428 811.7781609245576,244.85601947788382 848.0551040000282,256.0382942489232 848.8916346310871,256.2962255709572 868.6462239288958,253.78656977857463 880.4855207822984,252.378797157784 883.9062087112106,244.16124571405817 887.5852541155182,235.2367035356001 884.1156326400815,217.5757463609334 882.1122699377593,207.58596491499338 844.2982892089058,181.5913897069986 828.8457742222818,165.82163804559968 845.3896820622031,157.2402558028116 888.2365363200661,157.12704778992338 912.1236801422201,145.58692029927624 947.8871122489218,149.63886732852552 955.9535744000459,183.41139326052507 939.2142236444633,213.21624201862141 913.1402163200546,240.71007312787697 931.5587450311286,247.07374541845638 933.0989866666496,248.264132611861 945.21469980455,230.57315567380283 948.1763444623211,224.52081361506134 966.8887657244923,213.53155672177672 971.1273429333232,210.41100726445438 1020.4200268799905,226.8380903743673 1020.497796266689,227.97522179741645 1027.610636800062,225.9139502745238 1029.3926334577845,225.6638881250401 1030.7852006399771,216.47364704846404 1029.4153526044684,211.95349571184488 1055.920149902231,218.84735409123823 1065.8149208177347,216.8700081059942 1069.9034934043884,197.32435063825687 1070.5291437511332,195.4446634214837 1076.3076713244664,196.2028669497813 1085.7873809066368,189.1970394847449 1110.0546335289255,193.8738782868022 1112.3513062400743,191.89085620630067 1111.2237957689213,185.33122753788484 1113.4138632534305,183.68276123795658 1097.0289894399466,172.20096446131356 1096.5644120178185,171.45947984053055 1100.528903111117,168.2745259606745 1102.1040972800693,165.83844551851507 1171.599054222228,224.89492040907498 1172.866666097776,225.4612683748128 1185.8576489244588,216.03231145977043 1186.5974775466602,215.69426654151175 1195.30327978672,221.92132101370953 1196.5621535289101,221.71375555556733 1195.5118299023015,212.52729254425503 1194.228780657868,207.08876137097832 1200.6498523021583,195.80498343741056 1201.4543431111379,191.87602795357816 1093.5022788266651,49.64388677815441 1089.160882915603,43.83009279577527 1096.4945069511887,38.13831201917492 1103.021601280081,33.07359824690502 1086.8709094400983,11.474827717349399 1082.1695024356013,5 884.3760290134232,149.1034572167555 881.8306107732933,150.71116650907788 859.3651612444082,147.9550151489675 857.2927672888618,149.4796781328041 838.9543381333351,130.15754904376809 833.5608709689695,126.97294705722015 854.7042409244459,115.29960862587905 855.3712517688982,114.64642804767936 850.4423620266607,109.33190398541046 853.4025503288722,103.5494594257325 852.5779618134256,102.43488377309404 831.9877156978473,84.71756466571242 827.6434070755495,85.27589011855889 813.1413097244222,94.62724617950153 812.0289453511359,94.83098333264934 778.9315177245298,156.67124896170571 778.8027758933604,156.97676282108296 773.6804821334081,152.23729225748684 772.748123306781,152.35940160485916 767.8128256000346,159.22855410620105 766.4386084978469,159.34670449688565 758.9010946844937,151.59559903421905 756.3116945066722,151.9995001630159 744.8798859377857,157.5363760321634 744.0247139555868,158.32190827321028 741.3499713422498,169.40061025344767 739.6157431467436,171.04573026509024 727.722852408886,171.50990087911487" stroke="red" stroke-width="3.6180168229872436" fill="none" stroke-linejoin="round" vector-effect="non-scaling-stroke"></polygon><polygon points="218.66075847111642,20179.870610836602 219.9336132266326,20184.41031823971 222.71874759113416,20184.57137242728 231.3438677333761,20179.027531237283 234.4878481067717,20176.1487093569 259.75678208004683,20179.89220514876 263.09125376003794,20179.92999518977 268.46637084451504,20210.65249033994 268.3201527466299,20211.71405893471 277.9609352534171,20215.673754362564 278.261527040042,20217.641205621185 266.55621489777695,20222.980763067375 265.5082214400172,20223.37882948469 280.27974456897937,20254.144700730452 281.32657294231467,20254.73069680092 313.16454428446013,20234.525294972933 314.66226033784915,20234.9782121515 313.5941691733897,20223.92757522408 312.2362632533768,20218.9595769929 347.5505553067196,20223.052280138014 352.3710921956226,20219.29287945025 373.88146375119686,20239.254567702126 376.2492066134,20238.63344888267 375.8682240000926,20229.610161326244 375.87055416894145,20228.702504705405 344.0153978312155,20188.097889595083 343.57295701338444,20187.267437928123 342.98488063993864,20155.780829453957 344.41851704893634,20153.021385116677 337.8197700267192,20140.61492925603 337.59024839114863,20134.5786033186 342.4457378133666,20112.323078814487 347.72764814225957,20100.17444279068 370.13338709331583,20069.204184413888 370.64398535108194,20067.959629535442 361.191072711139,20061.00979698496 361.4637024711119,20058.71144240914 397.34306047996506,20004.82102966722 397.44325774221215,20001.244282712345 376.405910471105,20018.897374523338 375.28131271118764,20017.39501042769 363.45832704007626,20035.287195212324 360.06152334227227,20038.37539954926 336.7924568178132,20015.46988031786 336.44031004444696,20015.2096532929 319.55328483565245,20021.931335181813 317.7252673422918,20023.245032951352 317.4951631644508,20012.609617151786 318.40422030224,20007.10013979557 303.38977706665173,20012.599261967815 300.82076586666517,20013.34618463856 295.4342892089626,19997.253691531718 295.3096251733368,19996.409908334957 301.34447132446803,19982.097967241774 301.95264540449716,19978.6775516629 296.87782883562613,19968.203434736235 299.57616440893617,19964.211340334266 293.1230529422173,19960.420922272955 289.340315022273,19961.662035856047 291.41037880885415,19974.953578704386 291.4330979556544,19976.23018358642 282.7476846934296,19987.272617572336 280.96918328886386,19989.997229827277 281.651922773337,19998.299185729004 281.13258638221305,19999.112344429363 272.7337838932872,20002.673367624113 272.2354190222686,20003.52703204169 274.4397587911226,20012.74243359943 276.98692465771455,20020.96474032069 275.990194915561,20034.073960158334 276.65138033777475,20036.36807168671 271.77200668444857,20044.088912867475 274.8189937778516,20048.734521293663 252.7971501511056,20058.216298232554 252.57665792002808,20058.509333694237 266.35523783112876,20080.99537188909 266.77961983997375,20081.350938544318 262.92814193782397,20084.829610203742 262.6191032889765,20084.90477302583 250.07085255114362,20074.245797083247 247.10949916450772,20073.592703015427 244.102416213369,20121.911002128385 244.2736836266704,20123.79874662246 224.28374727116898,20139.761349324894 223.1116723200539,20140.90695452015 223.33711616008077,20166.983825266478 223.5581909333123,20168.783899779664 218.66075847111642,20179.870610836602" stroke="red" stroke-width="3.896359316973598" fill="none" stroke-linejoin="round" vector-effect="non-scaling-stroke"></polygon></svg>