<svg viewBox="0 0 5511.198794008887 5603.7120801004485" width="1000" xmlns="http://www.w3.org/2000/svg"><polygon points="8.052549999993062,3876.9237475354166 96.90800642673275,4268.335511560697 114.15125620443723,4398.4822357605735 104.17580319111585,4482.650204111036 107.675425591151,4635.1559756559145 107.84378029344953,4733.383325682866 98.76311213345616,5236.575269162044 100.06917179559241,5326.018603940116 73.7877794400265,5372.765168955113 74.8721817866608,5404.530661736935 90.20294544889475,5420.258100580802 93.54877670222777,5423.247611256636 116.85366957340739,5428.765243285132 123.94612112894538,5432.703251300118 142.93146342234104,5452.525348038907 143.29263960008393,5453.5192447974405 181.6122669778706,5452.831824383262 193.9275008267432,5454.889930420759 373.6915837422421,5507.370152805088 433.62527519112336,5524.201704257837 479.4192105511611,5521.998099417746 504.04035757339443,5524.505782305874 508.05232585789054,5529.106692838803 501.1742498400563,5564.3711359507 506.8115109244536,5578.974700230727 516.3692811644578,5593.377198344766 531.5346028356289,5590.688168487832 543.7123567200906,5589.003849743836 559.3617709778191,5594.810849850677 572.2802272977715,5594.621891571296 586.9404848622798,5562.346807536815 592.2072490934224,5556.134071854729 610.1148882755951,5560.513813300437 648.931132897822,5569.43875949012 832.6745617334673,5564.205013043975 873.6526205422997,5565.4197860760905 879.289881626697,5562.8161056579265 884.520236968965,5556.242942689831 889.1852350844711,5500.084568507882 888.7535712978279,5495.1731878975115 899.7802217511635,5483.107480904233 902.0538840444933,5478.050040238391 920.0148258399859,5473.698962505005 927.2963123466761,5468.59340543978 963.3425687022682,5471.014016967878 974.6852483111143,5469.78694962195 988.1544983022322,5438.054973771359 994.2496375733463,5430.380146171927 1056.3145597421972,5424.275067762559 1085.1536037245241,5402.586371330632 1096.4892928267072,5399.2713061835675 1104.799257626728,5403.6482695250015 1104.8292585510935,5408.350691745378 1092.9209304444666,5418.830988376314 1099.5444355110812,5428.592864168197 1147.299499262328,5417.182834072533 1152.7436476000294,5415.8687588709 1203.2416114044318,5419.247847794759 1228.0212099111814,5419.998490945174 1237.5950000623416,5423.377563950809 1245.8551575021993,5432.7637765621475 1244.5569621600152,5441.46334946368 1251.9872882044583,5448.5803085192165 1454.4786733777437,5428.405056933378 1478.7366053245205,5418.777582884912 1492.7747077955573,5407.755213211669 1498.8366421600513,5389.237913444376 1516.4206791378965,5381.973304570973 1563.0881365600217,5371.647451244731 1589.6398285067116,5366.0986010989 1617.515638924524,5376.168161076697 1643.4373114577902,5379.590722861263 1657.0725859822414,5349.107940232119 1669.4781138755789,5345.747570837586 1681.5731467645091,5338.854396534647 1690.8195481867006,5337.498959028308 1696.2465115289378,5339.165363512147 1707.23034512889,5350.965113681654 1720.580756506737,5353.435602241283 1746.1115432089136,5349.305556255538 1901.1385532000277,5397.139783580526 2000.7052134667465,5329.468067389302 2149.9659292711585,5224.894458818511 2369.722409555543,5152.994124213612 2434.2325527022767,5135.157901955914 2443.9624641688715,5105.876345155091 2451.4714334133023,5094.988333339774 2493.1465039911855,5067.580414914031 2505.911751706706,5059.69603694955 2518.0746507644362,5059.89520274612 2537.5711738578684,5065.020367057616 2550.4698237422563,5077.099868035963 2560.6908183023043,5082.143901105184 2571.1110423023056,5100.628247902001 2581.7683609866945,5112.270361740288 2595.774132364517,5109.8342122464965 2608.549574568955,5109.673345409305 2637.1582231021894,5132.404246532795 2655.2382947822043,5144.85083023578 2677.455872595514,5173.972296755732 2680.2873190666724,5176.323387576995 2791.9927028889942,5143.1653565171 2799.492642728932,5138.054899499781 2809.8464569155767,5136.462012074917 2824.4266149245377,5147.840987315198 2828.2311981777602,5147.81130838723 2836.7931124889,5143.96194284808 2842.3019230133796,5138.851193721377 2844.454125253338,5132.036814808816 2845.0229777333734,5116.484338117036 2856.704405644414,5106.263376973424 2866.4608227822173,5107.524197222345 2885.5754894489364,5123.121353977913 2888.118286248966,5125.790748528641 2890.417580400099,5137.590715725761 2893.2251426400326,5159.683095511427 2907.6797628000786,5167.19202627553 2918.4969893245434,5175.783248616877 2926.9924938222102,5207.641080457572 2954.7561648622795,5244.024779204832 2956.5684537156194,5264.696294716414 2965.1804666578246,5287.569146577007 2955.8175567912112,5311.627443925972 2954.5033415377547,5324.580359116109 2976.1354644178355,5377.095681092556 2982.2128361510986,5381.025613444537 3136.9016803822888,5394.597912360128 3145.397184880072,5395.394269212295 3168.228470924514,5403.62423663793 3173.8916551378497,5399.462680105673 3195.444843546691,5431.741967165872 3201.148514444445,5434.154669669253 3218.4048714223027,5432.561728979781 3230.882634551119,5423.269863431662 3252.4195117777854,5431.81436020523 3270.970568844554,5432.030945902137 3341.3236104800308,5411.323331149149 3353.150965217821,5404.9131105399865 3447.6617415378278,5387.943379034958 3475.1286073155643,5389.604940156656 3491.3873607377463,5351.590006114362 4250.978145306668,4120.270707379823 4336.721078640054,3974.1532984115474 4373.319585022255,3874.4064884803665 4589.5671222312085,3494.7680857398373 4825.668280915561,3229.7605024252844 4791.661796151166,3055.5741031120706 4780.704176951171,3016.503736482089 4817.270934782311,3008.833093233203 4856.488259724545,2995.8499637507193 4956.4819234399765,2949.252831376536 5032.640872133401,2897.321828476881 5104.85338854228,2828.785833105707 5187.718272026716,2712.82024468467 5269.144858764572,2551.717884139187 5324.9212376444775,2425.8204925185128 5347.701551244449,2364.250130406377 5384.557541288872,2208.560886153282 5396.031001626718,2087.1564900528465 5393.441601448896,1925.3821826256753 5394.94048258671,1904.910440738051 5356.074139333301,1587.941808006406 5333.564707866724,1511.7550738404098 5359.858916151075,1485.7080693982716 5418.044980933395,1404.783778860903 5462.06944429336,1315.2449088443827 5490.704015955533,1219.5776556305645 5503.14624400888,1120.438938702544 5499.044564222306,1020.585083741491 5478.506455635623,922.794401946041 5440.764710142248,827.0745084724913 5202.533194551099,750.5636699658062 5146.26777147557,724.3159369553032 4840.876419440116,723.420725495409 4520.369844364555,596.1590677755594 4431.0390334845,483.80723142731586 4382.010241164564,322.14089524318115 4454.2778078133415,8.052549999993062 4027.0090109422745,222.74499159047264 4026.134032524511,247.88161080036662 4025.7824682932987,248.17064587198547 4000.75907586675,236.47538675236865 4000.775387048925,235.74651723136776 3977.3088387112075,249.20197466175887 3975.0375065867265,249.6737459046708 3973.2648306043993,257.1229152160522 3971.6077892533212,258.4086270314583 3960.088890622341,253.18992536744918 3957.9873695556016,253.45148833779967 3487.6797707644,449.2959702081571 3479.7327297689335,451.3709168266214 3444.733593057812,498.3883925403061 3441.053673840099,502.61651598862954 3420.264780826721,512.5875114285445 3412.846105626755,514.8022755602433 3382.4231293422345,512.1170970877574 3377.9387193155417,513.528936212213 3364.2358698933094,522.4425655477971 3361.882981857838,524.3803102679958 3351.80645776898,543.0659226212592 3342.034603262291,549.6266570975713 3331.9306996889354,553.6404939084023 3328.1103877955757,554.4156204362225 3311.522206746711,535.0416985774937 3308.8369783733215,533.0069754949363 3266.723836044519,530.543929536565 3264.766494177835,531.7966454933339 3254.7927887912083,544.3317508953915 3250.249250728957,554.1732629001199 3241.4782037599653,597.0401021078869 3240.675460577797,598.4887925345975 3202.5055465511687,604.5175118746411 3199.3735082933854,606.8469127435528 3194.6170510488737,615.8707746818254 3194.1472307467775,616.8493780030112 3200.6833544800465,636.8231775038003 3200.4896591911966,639.8126219834958 3177.76235693341,647.7160756525409 3176.350565857807,650.2488761107961 3189.562914728973,674.8488657776907 3189.308343777753,676.2974090801727 3166.8166798490274,689.6546757530014 3165.8202413777763,690.7343481406278 3182.6093994934054,709.7104315826145 3183.7305020000495,711.0669991658942 3179.754360062274,729.515602883388 3177.209524364531,733.45001823848 3171.0436062133813,737.2277541753429 3167.578936346661,737.8934812288207 3145.068631066679,730.5922351936752 3142.602147297788,731.1794885449635 3133.0499112088874,754.7274408824451 3130.1334135733487,756.391271941684 3088.772624524514,749.1683809281385 3084.7991040267225,751.1061490659195 3068.3175282044976,778.8624853778456 3065.014513804548,783.822182716016 3061.0852665155835,807.1999428347626 3059.78415846228,809.4007276778866 3044.212804862269,808.667332343437 3042.6766410222917,809.456224611291 3044.033090586745,828.0447868415213 3043.714731262269,830.1488426222058 3026.8812999378133,830.0068220215326 3025.442420648964,830.6136913796945 3025.9198139999935,848.4436219348863 3025.3247471201175,849.7170021221682 3010.736142248934,850.7830237953167 3009.725722764473,851.8902168683417 3002.532782675553,903.790755451395 3001.5500339467253,908.9671326015086 2991.528851368901,919.887799168966 2990.684747688909,922.0885605864169 2995.2853748888883,946.6070707510517 2995.5006242399977,947.9676957946212 3013.9517753156542,961.2086807600863 3015.635031066806,962.8135970559379 3033.2714968445653,957.8222367756243 3036.2666376799752,959.3880811569106 3044.918263493426,980.234778834827 3045.9752863555623,981.5464228089259 3062.1230654844258,990.0608681242738 3063.99186093334,992.4138608962239 3060.9460389244778,1013.3503488915449 3061.7706274400407,1016.5292377901787 3078.381527635589,1044.508982042811 3079.9083708000544,1049.20687411775 3077.6248052889423,1075.7421215622162 3076.920220471191,1077.0926767195633 3060.1345576089516,1087.357475194527 3058.1140099111653,1089.461421462387 3044.770006497827,1112.4642744842276 3042.871501395566,1114.9892854938807 3021.2807390133094,1128.143308695493 3015.526095671201,1135.0530781090783 2981.4971830311406,1129.6011415473477 2977.5661881155975,1129.9471080251096 2898.9270659110916,1145.3215833176218 2895.971246675559,1147.2201831423154 2909.386320240068,1167.3153519771004 2909.190586053388,1168.842301109311 2891.3205208445142,1166.103035734006 2889.272011120076,1166.4352672370442 2883.7911626222485,1184.1381695273158 2883.0851214489376,1184.927275359194 2865.465258124488,1184.1244511270488 2863.7767594933684,1185.1071054876957 2869.442273875553,1206.1135430114518 2869.0309990666283,1210.94853091173 2856.425076648913,1228.8004189167696 2854.311030924524,1229.8572707677085 2812.6263483999937,1238.9054622703989 2809.0137128089264,1239.127028622519 2765.1235254311177,1224.9377086187305 2761.815559422219,1226.5569896465458 2749.25886182228,1244.4010645182861 2746.694510959991,1247.5721486255934 2719.1924013778043,1264.3279259552073 2709.0529627288633,1277.0118603852752 2717.1654457156255,1308.8928422409517 2715.885017911176,1313.638335556985 2678.4147370933497,1291.399717469205 2624.8791068711726,1247.6845706857566 2612.3835762045055,1216.3429379329027 2574.4892046489695,1192.276716901135 2543.439704204531,1169.044800583244 2514.8951353155717,1134.8070259985107 2451.980575315625,1081.3000227323791 2438.3520000267017,1058.7466392758943 2432.844063315628,1052.0694423832174 2375.866191102279,1003.7831776939274 2325.918438426772,952.2894021102402 2268.887554871122,909.8677966021642 2247.8577806489484,904.5873070172092 2233.2068437600683,887.8207671758428 2217.0704242044303,877.169946679991 2103.532945093437,830.0897668293037 2081.42546776004,812.4563351359975 2037.7301407556224,808.1060964669159 2025.559668648959,809.204101413925 1981.5777308711258,850.5571693406382 1851.406923688919,974.2316748515877 1799.3585237600782,1062.2704436497006 1794.9020757600374,1079.9876529687608 1762.8622535378381,1112.9155320750142 1690.4583720089577,1214.6547481269517 1656.1405184267496,1262.8927103816823 1634.5573290933098,1350.1995822548924 1598.1484402045317,1463.2546331271005 1559.9336704266898,1500.1609473226417 1424.8130019822565,1611.1079228846647 1384.3257349955093,1659.8054787676374 1373.8405575378274,1672.4171433304728 1241.8466844712093,1871.913023425237 1207.021145342238,1937.4154790422472 1150.2276477423438,2009.1484693326347 1141.4554356889275,2020.5968929610972 1105.8921068355849,2130.2087969474087 1101.3532291111478,2142.1129983805877 1097.187469680066,2144.5846654208435 1093.9453309422533,2145.606631080591 1083.1551926311513,2130.367262649961 1080.0074257333472,2129.67769832004 980.702909466665,2298.2386513500533 950.1727454133506,2345.4959769445995 868.7248958844866,2429.7383818332746 793.5993770933419,2568.8623051946925 598.9839627644687,2853.0067226526153 564.0436628178868,2907.7881049208518 543.0797158667992,2930.9380631470412 481.1286807022698,2949.54325527171 382.6921523468045,2986.6125173234905 373.994214426697,2998.173516934592 368.0717989245604,3096.7480979350803 343.6146375378303,3116.335745095421 316.9924579823564,3121.3040588040894 227.8343708711618,3162.6559210164996 211.80572162670433,3159.2788312770135 196.6357396178355,3166.1189705068537 131.13410960891633,3352.728722562053 113.17841069339192,3396.348557025398 113.27278253340046,3451.91147492078 102.66585375109571,3460.925714440731 97.40957528000581,3489.4600480624067 104.39949940456427,3511.1231700749777 101.81417702228646,3589.4901767718547 103.47646125344909,3645.101992816926 53.00587693331181,3722.133742999664 8.052549999993062,3876.9237475354166" stroke="#009edd" stroke-width="5.908535776498224px" fill="none" stroke-linejoin="round" vector-effect="non-scaling-stroke"></polygon><polygon points="4034.200494675635,224.45208533582627 4048.7200682933617,233.6629199552408 4048.790264631127,234.1941213523678 4034.200494675635,224.45208533582627" stroke="#009edd" stroke-width="5.015991685316375px" fill="none" stroke-linejoin="round" vector-effect="non-scaling-stroke"></polygon></svg>