<svg viewBox="0 0 89.49369633778339 108.62815508959399" width="89.49369633778339" height="108.62815508959399" xmlns="http://www.w3.org/2000/svg">
  <title>Kamenice nad Lipou, okres Pelhřimov, Kraj Vysočina, Jihovýchod, 39470, Česko</title>
  <desc>Geojson of Kamenice nad Lipou, okres Pelhřimov, Kraj Vysočina, Jihovýchod, 39470, Česko</desc>
  <metadata>
    <collboard>
      <support-module name="@collboard/map-svg-geojson-import" version="0.11.1"></support-module>
    </collboard>
  </metadata>
  <polygon points="8.052549999999997,46.69921031960223 12.230470000016453,49.46146394867503 12.491813004431265,49.61595480908693 10.924410337763788,54.52279672183033 10.9397020711109,54.72396254029411 15.12788937777043,56.06787877782301 15.27869499556948,56.14293696152856 19.286731120002173,55.901343067110815 20.066536702222606,55.549617096031966 23.910878462229107,50.52367759496667 24.135157217773326,50.60712120967912 20.411547333329167,61.10939433149872 20.128067724442758,61.43841314079293 19.996558817779828,70.96335840349604 19.965611262224797,71.28159866204771 17.639083262219742,78.96816099419777 17.60806288888091,79.19156685121527 13.795833768882972,78.8534990652621 12.7016738400049,78.88643508684584 15.049173359998917,88.43091028901802 15.175075297774697,89.05044297459938 27.93646367110307,100.20463375427755 27.899035333342567,100.35329043788772 32.07331444443082,100.55373079621461 32.182177022222845,100.57560508959398 32.717824595550724,98.12752754936048 32.716732328880994,97.97596302725253 40.41823177776644,99.82238781110902 40.58949919112604,99.93577841741319 43.239993484435786,95.00574990317511 43.328903991124776,94.66420753335808 42.117434622232054,91.41453795829841 42.01964034667583,90.96369449522865 49.6478122933255,88.46127313447471 49.776408488898255,88.38625901526359 54.27239654222615,83.21182411314624 54.32730114667322,83.21327541651374 53.93736194665655,81.14300804337074 53.985785768898154,81.04208275117674 55.98208514665714,81.27229039288761 56.088035013329886,81.18889326437022 57.88262914666086,75.29004005176068 57.9475097866449,75.19468677584484 60.3387727911246,75.25531540015766 60.99719113778667,75.11463009226247 59.08434093330982,70.44222204802611 59.08273894221168,70.16920135317889 60.12381471109222,62.09812008098345 60.09869257777575,61.946121265434726 62.11887618667208,60.13941398931604 62.40119071110496,59.88041461872456 60.51280728000677,58.23045167214116 60.25408571554692,57.72002869139362 71.98561225776905,52.388003418534595 72.44072336887587,52.661559154737574 72.5055311911052,36.88637452356454 72.63420020443266,36.418100567192255 81.35427472886624,30.880076000532085 81.44114633778338,30.717933834537348 80.7265126666822,27.607080688197698 80.58699380444125,27.481359991251907 59.81514015110554,15.651935954134046 59.43859942223173,15.564080028044941 56.52901947554312,8.112581920162143 56.324474337779634,8.052549999999997 49.04539081778023,12.587626108630161 48.60913951110672,12.520445009365744 51.602168631106565,14.525558693617882 51.63974260443467,14.525894028170683 51.261308613327515,16.832053223588105 49.596038853349114,16.407424059805294 47.5058045422262,32.16155219510949 47.32645435556299,32.7200376238394 44.95827458665701,33.08878239792068 44.65666335111712,33.01793889680232 46.387978835562194,39.6913537433353 47.6622171288833,40.21054691609572 46.858672951093126,45.25675543897489 46.37210456000287,45.75768659076823 36.757900542208176,40.664599506802574 36.52138840000373,39.74453579563817 33.12698768889061,42.13912732381834 32.929360240006304,41.86060346505076 33.206286248874335,45.84772859338375 28.740153484431744,41.90372839062877 30.912890337792874,35.82367405509979 30.960804435547857,35.813841382106716 29.121573004441984,28.10616108241777 29.13671910222149,27.94635750818236 17.90916439999239,34.049071580978875 17.823166604451785,34.18863280957851 15.918763262226662,40.41578719548818 15.887742888887828,40.60594380960504 17.52162818666659,47.4790720095549 17.53014786667302,47.96959387521895 8.052549999999997,46.69921031960223" stroke="#009edd" stroke-width="6.230779265267089px" fill="none" stroke-linejoin="round" vector-effect="non-scaling-stroke"></polygon>
</svg>