<svg viewBox="0 0 309.6594853511335 386.1973203583759" width="1000" xmlns="http://www.w3.org/2000/svg"><polygon points="8.05255000000011,162.63919127840882 24.764230000065936,173.68820579470002 25.809602017725183,174.3061692363476 19.539991351055278,193.93353688732122 19.601158284443727,194.73820016117634 36.35390751108184,200.11386511129194 36.95712998227805,200.41409784611415 52.98927448000882,199.44772226844316 56.10849680889055,198.04081838412776 71.48586384891655,177.93706037986658 72.38297887109343,178.27083483871638 57.488539333316794,220.27992732599478 56.354620897771156,221.59600256317162 55.82858527111944,259.6957836139841 55.704795048899314,260.96874464819075 46.39868304887909,291.714993976791 46.27460155552376,292.608617404861 31.02568507553201,291.2563462610483 26.649045360019727,291.38809034738324 36.039043439995794,329.56599115607196 36.54265119109891,332.0441218983974 87.5882046844124,376.6608850171101 87.4384913333704,377.2555117515508 104.13560777772341,378.05727318485833 104.5710580888915,378.1447703583758 106.71364838220302,368.3524601974418 106.7092793155241,367.74620210901 137.51527711106587,375.131901244436 138.20034676450427,375.58546366965265 148.80232393774327,355.86534961270036 149.15796596449923,354.4991801334322 144.31208848892834,341.50050183319354 143.92091138670344,339.6971279809145 174.43359917330213,329.68744253789873 174.94798395559314,329.38738606105426 192.9319361689047,308.68964645258484 193.151554586693,308.69545166605485 191.59179778662633,300.41438217348286 191.78549307559274,300.01068100470684 199.7706905866287,300.93151157155035 200.19449005331967,300.5979230574808 207.37286658664357,277.00251020704263 207.63238914657973,276.62109710337927 217.1974411644985,276.8636116006305 219.8311145511468,276.3008703690498 212.1797137332394,257.61123819210434 212.17330576884683,256.51915541271546 216.33760884436902,224.2348303239337 216.23712031110313,223.6268350617388 224.31785474668845,216.40000595726406 225.44711284441996,215.36400847489813 217.8935791200272,208.76415668856453 216.8586928621878,206.7224647655744 263.7847990310763,185.39436367413828 265.6052434755036,186.4885866189502 265.86447476442095,123.38784809425806 266.37915081773076,121.51475226876892 301.2594489154651,99.36265400212824 301.60693535113364,98.71408533814929 298.7484006667289,86.27067275279069 298.1903252177651,85.76778996500752 215.10291060442228,38.45009381653608 213.59674768892705,38.09867011217966 201.95842790217262,8.292677680648467 201.14024735111866,8.052549999999883 172.02391327112105,26.19285443452054 170.278908044427,25.924130037462874 182.25102452442638,33.94458477447142 182.40132041773882,33.94592611268263 180.88758445331018,43.170562894352315 174.22650541339658,41.47204623922107 165.86556816890493,104.48855878043787 165.14816742225207,106.72250049535751 155.67544834662817,108.19747959168262 154.4690034044686,107.91410558720918 161.3942653422489,134.6077649733411 166.49121851553332,136.6845376643828 163.27704180437263,156.86937175589946 161.3307682400116,158.87309636307282 122.87395216883283,138.5007480272102 121.92790360001504,134.82049318255258 108.35030075556256,144.39885929527327 107.55979096002534,143.28476386020293 108.66749499549746,159.2332643735349 90.8029639377271,143.45726356251498 99.49391135117162,119.13704622039904 99.68556774219155,119.09771552842676 92.32864201776806,88.26699432967098 92.38922640888609,87.62778003272933 47.47900759996969,112.0386363239154 47.135016417807265,112.59688123831393 39.51740304890677,137.5054987819526 39.39332155555144,138.26612523842005 45.92886274666648,165.7586380382195 45.9629414666922,167.7207255008757 8.05255000000011,162.63919127840882" stroke="#009edd" stroke-width="5.597782136372418px" fill="none" stroke-linejoin="round" vector-effect="non-scaling-stroke"></polygon></svg>