<svg width="59709.44131811545" height="40053.412326828926" xmlns="http://www.w3.org/2000/svg"><polygon points="6888.834738915437,39887.093149295775 6889.612141511054,39901.68961844058 6891.553463466582,39905.9071858229 6899.1827276799595,39902.73775197065 6900.394415502204,39902.838463664986 6915.25361123553,39910.38031520316 6915.906641066656,39910.589933918905 6909.591883377754,39924.14363253163 6908.668845226639,39926.85026087967 6895.432029582211,39927.357863851066 6893.368956302176,39927.396594729216 6892.074838755536,39938.11612477957 6892.036390968831,39938.62279013323 6899.919061048771,39954.60629014217 6900.444805404404,39955.8373184558 6913.378116551088,39953.445873269695 6915.252446151106,39953.092780921026 6912.425077475491,39964.70534533664 6912.292549119913,39965.72902899049 6920.591154346592,39991.00022933964 6920.601348835509,39991.600608924404 6924.852450702107,39988.34542019118 6925.578007039963,39987.990106962854 6937.124867697712,40006.618213199195 6938.76530659548,40006.9402451404 6992.0125784176635,40002.503723450354 6992.355404515518,40002.2531984736 7008.499979662127,40048.374983748945 7008.81047466665,40048.412326828926 7024.186385351117,40043.67334758164 7026.046733937692,40042.90506395721 7039.743466666667,40026.72083580907 7040.145712071098,40026.01443344471 7037.936420693295,40004.87868586712 7037.923022222123,40002.71052021335 7047.125150435488,39987.714966576255 7047.22010481765,39987.67123562179 7030.047925191,39965.603289736435 7029.716167395469,39965.18188047316 7029.894425315433,39947.943034581374 7029.183141262154,39945.827151866746 7061.36131726217,39917.37144582579 7063.523131448892,39915.58928028634 7072.125532444334,39888.329573783325 7073.000802133349,39886.842035315814 7069.073885013349,39879.78383620182 7068.605521066696,39878.09707173298 7055.330257635447,39885.206369267195 7054.383917795494,39885.50488265895 7038.09720234666,39842.83608906239 7038.0331227021525,39842.69888269674 7007.027312924387,39862.58104925277 7002.59911822225,39864.97030549531 6996.575340373325,39861.434725634 6991.415472639957,39854.264937922824 6979.709577955422,39854.13594338682 6978.911203839933,39854.20112438104 6975.270314951078,39862.502196967194 6975.166039893287,39862.76473394554 6962.185542826541,39849.71954355738 6960.669185422128,39848.540788554354 6939.90388536884,39850.24328067445 6938.618505955441,39851.43159858289 6905.16456248879,39840.29935269349 6898.96689578658,39840.12385411188 6897.590931057697,39863.16537570133 6897.387915093219,39864.11023097369 6888.834738915437,39887.093149295775" stroke="red" stroke-width="3.735985337834508" fill="none" stroke-linejoin="round" vector-effect="non-scaling-stroke"></polygon><polygon points="5,39746.16797042405 14.66845326218754,39761.57330373395 16.081700693350285,39764.22268095752 67.26356906653382,39729.233701136545 67.61571583990008,39729.09596682072 68.57487160887104,39745.79401882738 68.81924807105679,39746.48902103666 96.01581425778568,39729.679284730926 96.77865329768974,39729.258785191225 126.25703736883588,39729.43574171292 127.15473493328318,39729.57940476225 113.85995633772109,39723.53407260741 113.37673756433651,39723.050621189876 114.24210403556935,39715.5464960438 113.64907605329063,39715.05527305929 100.39420159999281,39713.78319648234 98.86648462212179,39714.45868877409 107.83617848879658,39697.02018814057 107.98793073778506,39696.55994087935 89.91048049775418,39707.22428954457 88.53247687104158,39706.89451450744 103.31099050666671,39688.45140078175 103.46565546665806,39688.31820215983 98.96697315550409,39680.01456626225 98.43249066662975,39678.339933029725 82.4650083554443,39687.46563780983 72.49508949322626,39693.710400162905 66.30266567098442,39672.91815649794 65.66419939545449,39670.466109550965 44.8482181688305,39693.0439662367 39.07609856000636,39695.82555026305 43.06097863113973,39706.76816902845 42.34474296879489,39707.08243616682 64.02201287110802,39712.784777621215 64.05230506660882,39713.02788323094 5,39746.16797042405" stroke="red" stroke-width="3.7701095576515145" fill="none" stroke-linejoin="round" vector-effect="non-scaling-stroke"></polygon><polygon points="19000.936697457684,34793.40435848571 19001.142334862263,34794.63958910969 19001.87109518214,34799.632237310405 19041.32347591105,34821.47317634139 19045.57923811546,34823.82899183652 19048.80302677327,34816.37138663081 19051.694475093274,34820.05659503897 19015.406754986616,34932.186620768276 19014.229145884397,34935.8171353151 19027.98529791995,34933.65375713038 19029.859336248832,34933.005065848876 19072.120444302214,34958.35106142226 19081.463256462128,34963.926935587195 19078.67113159108,34956.38562202768 19078.638509226614,34955.749123544665 19116.315883804346,34916.671946662595 19116.472878933302,34916.628572832095 19115.733341582236,34906.354323582374 19112.57421511109,34891.79304397694 19172.227995022084,34853.254666498106 19172.378582186648,34853.46553509554 19172.237024426577,34847.14545161405 19171.595936711063,34842.653585994616 19217.30715107557,34858.20535838569 19237.572629902163,34859.88666413701 19234.785165368812,34848.037935062835 19239.214233884355,34847.85085441882 19242.46918855107,34846.71110520989 19240.82816711103,34837.17812227493 19240.259897173266,34833.87579367793 19248.251793919946,34823.28961549781 19248.179849955486,34822.64618813596 19212.937501866603,34804.64810031379 19211.613092124346,34804.019082367886 19206.617792568868,34819.14066477609 19204.9068660622,34819.75610688847 19200.810137884342,34801.10401730414 19199.590585742262,34799.51324387477 19206.085640248843,34781.2257314407 19206.502157937735,34780.60224470525 19216.64363548439,34778.55863283342 19226.424810666707,34777.971539988765 19236.500752213295,34801.50999161182 19236.572987448773,34801.609851840534 19263.363230435527,34779.116789558204 19264.07334940438,34779.0276525871 19258.745709511102,34753.84986929409 19258.55580074666,34753.26177504315 19248.20752071112,34762.29071034351 19248.017029404407,34763.41410816007 19242.671330702142,34751.63843980979 19226.846279964433,34760.26512560528 19225.506141582155,34761.20977857412 19210.798115555546,34728.24760047527 19205.875342506683,34729.14524879976 19212.019706595456,34692.40953819291 19212.117864959873,34692.054712802346 19199.350287075504,34691.289968705736 19198.615118791116,34691.416025613435 19202.503296853276,34660.541065360245 19202.496888888883,34660.50791227608 19192.62891491549,34662.16882876627 19189.379494399996,34662.87811134866 19187.41457948438,34641.62989694509 19187.444289137726,34639.48828762508 19144.56364743109,34635.398342543165 19144.032077653334,34635.26571455854 19131.28896654211,34661.226072298945 19130.89662435546,34663.020527909684 19092.7593326933,34656.31097041664 19092.533306311117,34656.28855662048 19088.207930311095,34656.95396519161 19087.52315192879,34657.031012365886 19089.601371306577,34661.0416296107 19089.69457806216,34663.410421943176 19061.59536270215,34661.26155998779 19059.353157688864,34660.7250415365 19068.585869368864,34745.47264065116 19069.012581546558,34745.790503384895 19057.348629902117,34778.679504689295 19055.638868479873,34788.03076548403 19016.810099199996,34772.68903186743 19008.331197155523,34770.22577686119 19008.67402325326,34783.85966280493 19000.936697457684,34793.40435848571" stroke="red" stroke-width="3.5099425296207727" fill="none" stroke-linejoin="round" vector-effect="non-scaling-stroke"></polygon><polygon points="7014.900662328815,39931.172594332485 7014.900662328815,39931.172594332485" stroke="red" stroke-width="3.077325741014283" fill="none" stroke-linejoin="round" vector-effect="non-scaling-stroke"></polygon><polygon points="7016.597899093293,39916.96543599176 7016.597899093293,39916.96543599176" stroke="red" stroke-width="3.4335330723484105" fill="none" stroke-linejoin="round" vector-effect="non-scaling-stroke"></polygon><polygon points="7010.9588903822005,39928.330690285075 7010.9588903822005,39928.330690285075" stroke="red" stroke-width="3.3392501081957384" fill="none" stroke-linejoin="round" vector-effect="non-scaling-stroke"></polygon><polygon points="59672.56606407103,7.384513784665614 59676.12860103103,20.63466661144048 59681.578574791085,27.425127020222135 59688.62879203551,22.947057237266563 59696.816131697735,33.44681613170542 59704.44131811545,32.69708911050111 59693.19126271992,18.32224874291569 59685.69132287998,7.697171253093984 59672.56606407103,7.384513784665614" stroke="red" stroke-width="3.3536940080497386" fill="none" stroke-linejoin="round" vector-effect="non-scaling-stroke"></polygon></svg>