<svg width="270.99377038225066" height="300.5227292617783" xmlns="http://www.w3.org/2000/svg"><polygon points="5,66.0230277304072 7.1923976534744725,78.69330679927953 7.381723875645548,80.63260246167192 29.873970346758142,118.6276881400263 30.418064782279544,119.1649639767711 29.85445518232882,144.365175806568 27.118254364468157,157.35245104983915 33.87894812459126,176.33884741505608 35.60851598228328,182.1316805491224 37.91014030238148,217.01922882569488 38.091893475619145,219.89160330488812 33.13271153788082,223.5174079783028 32.45201095112134,227.65093395777512 52.401751893456094,249.03240684513003 58.42552974226419,254.61966186290374 60.42219320894219,268.219416531967 61.57766570674721,271.94896144163795 83.29658737778664,277.78215326566715 83.45096106675919,276.0468670085538 95.99979434674606,285.8845372470096 105.63853795570321,288.70350053923903 109.1696176356636,283.15410237998003 110.25897159113083,283.3819062364055 114.86717184004374,294.24636564514367 116.08847160905134,295.5227292617783 213.22971733345184,287.7699369994225 217.3261542400578,287.30155592865776 197.2657302756561,255.22782704245765 197.09766684449278,255.0616319226101 215.45502862229478,200.3239970743307 214.8034551468445,199.10324650024995 206.9705924267182,194.48415271256818 204.53527466673404,194.44122217199765 166.09069198230281,201.17481916485121 165.61825024010614,201.40818953543203 129.3340253867209,175.69985870202072 127.93738040898461,174.89735198026756 95.42482517345343,180.0270406466443 93.15232796454802,179.7918202902656 82.35053880896885,163.81039685755968 81.86032952892128,163.2243569517741 63.95414670230821,158.37382239016006 62.462838613428175,158.43320429662708 50.93549312010873,143.71284515038133 49.941384817822836,142.84169743640814 48.7774654579116,133.40685647795908 48.61318855115678,131.50001209316542 59.62702307570726,109.75650490826229 60.04295822232962,108.53295944439014 95.44725304900203,83.41494048706954 96.32805688900407,82.6874875187641 91.73529400897678,59.69332262838725 91.58295921783429,55.44828139455058 97.75382897781674,46.2285457852995 99.4510657422943,42.06230670027435 100.80168988450896,18.83163218019763 101.21733376011252,14.93866099929437 83.90272256010212,25.919887006748468 83.18066147563513,26.513154454994947 77.39892992004752,40.904648372204974 77.20261319121346,41.199433650122955 65.52235036459751,49.36322680860758 65.41195861343294,49.775909966789186 48.275022791232914,53.87162200186867 45.62940728897229,53.81815248215571 37.677414684556425,47.942822950775735 34.98606961790938,45.46257804823108 10.652698453399353,47.599145971471444 8.013782186782919,47.63799246586859 5,66.0230277304072" stroke="red" stroke-width="3.3948852529327835" fill="none" stroke-linejoin="round" vector-effect="non-scaling-stroke"></polygon><polygon points="5,66.0230277304072 7.1923976534744725,78.69330679927953 7.381723875645548,80.63260246167192 29.873970346758142,118.6276881400263 30.418064782279544,119.1649639767711 29.85445518232882,144.365175806568 27.118254364468157,157.35245104983915 33.87894812459126,176.33884741505608 35.60851598228328,182.1316805491224 37.91014030238148,217.01922882569488 38.091893475619145,219.89160330488812 33.13271153788082,223.5174079783028 32.45201095112134,227.65093395777512 52.401751893456094,249.03240684513003 58.42552974226419,254.61966186290374 61.57766570674721,271.94896144163795 63.5964657778386,273.69660711544566 83.29658737778664,277.78215326566715 83.45096106675919,276.0468670085538 95.99979434674606,285.8845372470096 105.63853795570321,288.70350053923903 109.1696176356636,283.15410237998003 110.25897159113083,283.3819062364055 114.86717184004374,294.24636564514367 116.08847160905134,295.5227292617783 213.22971733345184,287.7699369994225 217.3261542400578,287.30155592865776 198.01313194667455,252.90838912152685 197.85613681783434,252.53992494626436 212.99437027564272,221.01223001809558 214.26198215119075,219.37330007355195 241.40116792893969,213.57872253563255 242.91257372451946,212.21145546482876 235.42748871119693,183.9896659720689 236.73500472900923,180.33944942429662 229.04311722668353,170.68197332159616 228.21998506679665,169.48572079266887 246.68453461339232,161.3840077681234 247.2653292089235,160.9491550446255 265.842600675649,135.0930338273174 265.99377038225066,133.99800223921193 262.95610396459233,119.50121756386943 262.82386688003317,117.71806249080691 248.83236778678838,119.09186530171428 248.09807331569027,120.35875322145876 239.6028600889258,113.49243348324671 237.65105237346143,112.37810369784711 237.0955983644817,102.81811561598442 238.01951032900251,102.02036479022354 225.92069091566373,88.83694701117929 225.334653440048,87.0576518937014 230.24024149344768,84.54267053562216 230.304321137839,84.47915591171477 227.44578645343427,76.4597138412064 226.5384769423399,75.2158740623272 214.420433635707,70.07090763328597 212.3969732268015,69.06054415332619 198.41159082669765,75.22044365579495 198.08624099567533,75.0170966538717 202.02946929784957,63.38852923788363 202.43025834672153,62.65872407396091 189.67316622228827,58.10344127146527 188.66245546680875,57.521685274201445 189.9318149689352,51.4092683721683 189.6335533511592,50.81652613315964 174.03423772449605,30.655925910454243 172.22864810668398,27.22617019288009 135.68664832005743,5.3844270936679095 135.0333272179123,5.209812255809084 105.4189195377985,7.770511031267233 104.93861347564962,7.809364671004005 81.16273521783296,28.589120666729286 80.81583132455125,28.962079462595284 77.39892992004752,40.904648372204974 77.20261319121346,41.199433650122955 61.37989262235351,50.32843801367562 57.59191182232462,52.46267289679963 48.275022791232914,53.87162200186867 45.62940728897229,53.81815248215571 34.98606961790938,45.46257804823108 30.09999672905542,44.6746704611578 10.652698453399353,47.599145971471444 8.013782186782919,47.63799246586859 5,66.0230277304072" stroke="red" stroke-width="3.9218344021822307" fill="none" stroke-linejoin="round" vector-effect="non-scaling-stroke"></polygon><polygon points="121.57194154674653,260.0542786217993 124.18872120894957,265.7672594260075 124.26183025783394,265.8037840325269 129.20644864009228,262.42888439341914 129.20877880894113,262.38459761755075 121.57194154674653,260.0542786217993" stroke="red" stroke-width="3.5050754619997138" fill="none" stroke-linejoin="round" vector-effect="non-scaling-stroke"></polygon></svg>