<svg width="263.7769460622221" height="171.04443684773287" xmlns="http://www.w3.org/2000/svg"><polygon points="5,41.68549121043179 5.034661262179725,42.85903284186497 5.042234311113134,46.01913828053512 5.50098631111905,47.82337933045346 5.911387306638062,48.23588039341848 7.484542577760294,48.96051762573188 9.692668871139176,49.67732601042371 12.219737031147815,49.51205055706669 15.11904967110604,49.89692578982795 17.073187555535696,50.78867353813257 18.784114062204026,51.53217748727184 20.16299150220584,53.385631891782396 20.465039644390345,55.72291368932929 20.47902065771632,57.48564106191043 20.078814151114784,59.715615544700995 20.11959210666828,61.35309450048953 20.475525404443033,63.65346210967982 20.286781724425964,65.49346231191885 19.970170026645064,66.91223582928069 19.88162360887509,67.55533028813079 19.620935964398086,70.35325220396044 19.472096426645294,70.88769811223028 19.35879196447786,71.76232679968234 18.48643498669844,73.05124681664165 17.95836046221666,74.06074200407602 17.577086577774025,75.37956922210287 17.112800426664762,77.34651712584309 17.092120177694596,77.50256488041487 16.661621475592256,78.80618064547889 16.266949119977653,80.0573129367549 15.515469653415494,82.24976896913722 15.034872320014983,83.57406973396428 14.887489137705415,83.91377435380127 14.082998328842223,85.93265824316768 13.600362097728066,87.1050383610418 13.659781404421665,89.7991409440292 14.336986737791449,91.09439713833854 14.2793150577927,92.68883117497899 14.516118471161462,93.76773712289287 14.767194168874994,94.30902919871733 14.947490986669436,94.35873962729238 14.975161742186174,94.4797936786199 15.121671111090109,94.4089103260194 15.22594616888091,94.38175371073885 15.511683128890581,94.60683131718542 16.06859349331353,94.74767730716849 18.552553528919816,93.49663029157091 19.919780124444515,93.75254778482486 21.16642048000358,94.50418859324418 21.127681422163732,94.6284645308042 21.53516970667988,95.2875860829372 22.626562559977174,96.47924695676193 23.74999523558654,97.40900482423604 24.471182506647892,97.64696696051396 24.63604195555672,97.738101326162 24.961974328849465,97.93970145256026 25.26635263999924,98.28904917032924 25.550633244449273,98.63563468644861 26.174244693364017,99.83464136958355 26.437553777708672,100.31148056132952 26.64115228445735,100.62354270450305 26.95485127111897,100.9751874100184 27.425254115602,101.22373175108805 27.50651875557378,101.24490403360687 29.72979114658665,102.88252775440924 30.211553564411588,103.47074369271286 30.339130311040208,104.07736846420448 30.163785102195106,108.09310774831101 29.9400888888631,108.63942661188776 30.117181724403054,109.22762683965266 32.149962808936834,109.33118305151584 33.25475413328968,109.69063778326381 34.30886428442318,110.17850112100132 35.055974684422836,110.76531640859321 35.78648263111245,111.44279842427932 36.351257315604016,111.18920316360891 37.1965260800207,111.15054251695983 37.6879004444927,111.00372404546943 38.372678826679476,109.87243604287505 38.54802403552458,108.94687419256661 38.815410915529355,108.87277384276967 40.39934321772307,108.97218797082314 40.69964373332914,109.10888232197613 41.42753023991827,109.64967562258244 43.783330986625515,111.49572661705315 43.501089280005544,111.86438262544107 44.01372643560171,112.26387431717012 43.93770467559807,112.38353758305311 45.24259925330989,113.98609845654573 46.66138083557598,116.33975184382871 47.16644494223874,117.25469659478404 48.0591908977367,118.3058657500078 49.45321443560533,119.02336399408523 50.06022343109362,119.29720008990262 51.73969265783671,119.45183679036563 52.73380096000619,119.17477929010056 53.754414933384396,118.59028804651462 54.675414186669514,118.20139338826993 55.90050048008561,117.85806095297448 56.5523652266711,117.77521926467307 57.49870506674051,117.95655047427863 58.215231999987736,118.27733145351522 59.03370382229332,119.14348373608664 60.4189892266877,119.58162107830867 61.12415658670943,119.6966780058574 61.21182919119019,119.41455831023632 61.48533276445232,119.39062644302612 65.97848092450295,119.1996316385339 67.2921136355726,119.17984180571511 69.32110819558147,119.17615997610847 69.50053119997028,119.08825627679471 69.65257471997757,119.13059733016416 70.23336931550875,119.24013175576692 70.64901319111232,119.36347297509201 72.3171228445135,119.8913541873917 73.77959509333596,120.43119998363545 75.8415032888297,120.39392167294864 76.57812792889308,120.23652428970672 77.4510674488265,119.713706425915 78.05691136000678,119.37267754093045 78.15856497781351,119.46932545781601 78.24827648000792,119.06938689155504 78.34672611556016,118.8158006038284 79.47627548442688,118.35925248794956 80.27115434664302,118.34544557426125 80.69990542216692,118.42092335852794 81.50468750228174,118.61514046241064 81.62847772438545,118.75228892790619 82.33247999998275,119.40627420262899 83.3624146488728,119.72383143170737 83.55523612443358,119.69897914375179 84.1077774221776,119.5632119642105 84.62245347548742,119.32711493643001 85.34131057781633,119.11448932171334 86.63193287106697,118.7182319345302 87.27302058669738,118.95202848338522 87.6385658311192,119.156370141136 88.689180728863,119.8609791919007 91.39479807997122,121.64021034480538 93.25485539552756,122.37610636517638 93.94371157337446,122.82206089235842 94.4260565333534,123.39089319162304 94.87840056885034,123.97307032544632 97.4174108444713,126.56362445070408 98.98823594674468,129.46386679640273 99.38465592893772,129.84951969410758 99.74000668444205,130.07916232093703 100.25905180443078,130.24805764382472 101.23772273783106,130.48506311903475 101.5298676622333,130.5499519513105 101.92424874659628,130.61530096828938 102.73573006223887,130.56237747019622 104.52063943108078,129.85780340031488 105.68834531563334,129.1946456892183 106.90847999998368,128.58487014321145 108.0453111466486,128.2613432474318 108.89902677328791,128.2176233594073 109.39710037328769,128.39664473943412 109.79526798229199,128.5572576248087 110.08129621332046,128.7036039318191 110.74422926222906,129.1403412198997 111.8411562666297,129.9217720098677 113.6849024000112,131.19791879330296 114.09180814225692,131.4593139566714 114.53803548438009,131.6719273944036 114.93154275557026,131.82241340220207 115.80215210665483,131.9406852062093 117.18481607106514,131.62038476206362 118.11863125336822,130.91719476139406 119.41740913770627,129.81868589587975 120.90988231112715,128.73535830620676 122.02399431110825,128.03768141113687 122.78129920002539,127.605543996091 123.2324781510979,127.11864052445162 125.65847523557022,124.63394301605877 126.76792689785361,122.97347351984354 127.20774627558421,122.12712619174272 127.39357724436559,122.19661976257339 128.15088213328272,121.68715313024586 128.3917633421952,121.71982898470014 128.65390734223183,121.8450096771121 128.7232298667077,121.7676921992097 129.73452316445764,122.56065525457961 131.90740565338638,124.1879922375083 133.14589041785803,124.68088514963165 133.69056739553344,124.80376303894445 134.1397074488923,124.8566879510181 134.8850702221971,125.65194071701262 136.63065799116157,125.52952352631837 137.4925292088883,125.59533428039867 137.32708721782546,126.24975900689606 137.25193927111104,126.84849606337957 137.18611200002488,127.26866949966643 137.30698951112572,127.47530432825442 137.17416988441255,128.49651007191278 136.9600856177276,129.99402430141345 137.00727153779007,131.82241340220207 136.98863018664997,134.09395701478934 136.57094741333276,136.19566577556543 136.3635623821756,137.96693889738526 136.23278165329248,139.4312539853272 136.08918499550782,140.89233784982935 135.99423061334528,141.62770796648692 135.58062563557178,144.51486275048228 135.2954712177161,145.9598061562283 135.37557077337988,148.85932738345582 135.96714239998255,148.36188809073064 137.33553407993168,148.42309021181427 137.1499943821691,149.14462969754823 137.72933262225706,148.417568216566 143.2996013511438,141.1044818017399 144.80197774223052,139.65950584970415 146.00580124440603,138.27710577717517 146.62912142218556,137.37237443204504 148.81569365330506,135.50997806643136 149.31784504884854,135.14780522155343 149.67698232887778,135.56888286792673 149.85436643555295,135.7143040279625 150.30030250665732,135.9816762212431 151.4024723911425,136.27389846282313 151.59354624000844,136.2863236516714 152.73795043560676,136.5688814575551 157.99393763556145,136.14596499485197 158.38074567110743,136.11927382997237 159.4668956444366,136.11697286739945 160.4988691911567,136.37053880200256 160.93519331561401,136.5569164765766 161.6135637332918,136.97430984477978 162.93709966226015,137.90389305265853 163.86013781337533,139.4657678916119 162.19231943110935,142.03036575968144 161.74376192002092,143.82413956709206 161.92405873781536,144.6759238007944 162.30445880885236,145.6869242740795 162.42038471112028,147.2809545325581 162.0676553956,148.86300870595733 160.73800277337432,150.18551977700554 159.72175786667503,150.79247325507458 158.01665678224526,151.70497098460328 157.08808448002674,152.64369381626602 156.54602894221898,154.745221728459 156.315342222224,157.33908724796493 156.55476707557682,159.67984347930178 156.6733144177124,160.37741797114722 156.89963207102846,161.21579277073033 157.1157552356599,161.76841894292738 158.58696561784018,163.7640272224089 159.14271089772228,165.64136377803516 159.6795235555619,165.61973769019824 160.03254414221738,165.84842195594683 160.1007015822688,165.87879047193564 160.56877425778657,165.81713317730464 160.82421902217902,165.82081421033945 161.63657415111084,164.79104277532315 161.90512611554004,165.28890428890008 163.02972387557384,165.0836860963027 163.1546791822184,165.05147694528569 163.49867036449723,164.99027954490157 164.89240263111424,164.88951085531153 165.46533290669322,165.73246940074023 166.57303694228176,166.04443684773287 170.60976327117532,162.07901171513367 171.1675474488875,159.92601943179034 171.7419340800261,159.39777610794408 173.056440604385,159.3016062346287 173.77442389330827,158.51153919205535 174.74202652450185,157.5401714920299 175.8240987021709,156.74135517241666 176.61489976884332,155.33191570290364 176.92102570668794,154.23629217187408 177.3331743289018,153.66846157389227 177.6937679644907,153.14756541495444 178.25970773340669,151.8710884108441 179.9630611911416,151.91848477208987 181.26475178671535,151.61293911439134 181.38126023113728,151.62628373800544 183.28879473777488,151.96404048823752 184.81592917337548,152.15730705542956 185.15700764441863,152.14902420609724 188.84071338665672,150.2232530984329 189.54267676442396,151.66907855990576 190.6728086755611,153.08498416637303 191.66924714669585,154.38124058564426 192.96598613332026,155.35446312575368 194.0512622933602,156.2651009466499 194.61458062229212,156.94704145472497 195.32382577774115,157.90184657112695 197.2631088355556,159.85515759768896 199.07161116448697,157.53925119852647 199.5207512177294,156.92403405037476 199.60696746665053,156.75700022093952 200.07387505786028,155.9268907851074 200.6604950755136,154.65273100323975 201.16381155548152,153.8350376416929 203.44359054218512,157.0174440968549 204.17788501339965,160.8499819940189 206.0059025066439,162.9776576156728 206.50368483562488,162.1149024066981 206.9746702221455,160.64199873479083 207.9349910755409,159.26433464535512 208.76074467552826,158.78210411965847 209.58824590221047,157.48173284088261 209.9875785955228,157.24245630885707 211.08479687105864,157.16791241185274 211.75268152891658,156.49747632839717 212.45493617781904,156.31203619251028 212.84698709333315,156.04008771455847 214.39421923551708,155.76169678545557 215.5866831644671,155.3447999447817 215.9263052799506,155.0751510070404 216.3833096533781,155.17132276587654 217.32207644439768,155.12944894318935 218.32754432002548,154.54137395811267 218.67211804445833,153.9850480236346 219.1366954665864,153.97676524461713 220.24905983998906,153.1581490067183 221.55337187554687,152.45502926164772 221.88454712892417,151.98428747005528 222.33543480886146,151.84762030572165 222.74700088892132,151.91940508969128 223.20400526223239,151.5287299187621 223.80635392002296,151.22548450995237 225.22600931557827,150.12339783104835 226.0322477510199,149.7377812032355 226.62148920889013,149.18926567048766 227.2319934577681,148.4318333705305 227.58355768886395,148.15665378345875 228.15037127118558,147.97028613789007 228.42533120000735,147.62562061077915 228.80165347561706,147.0540912458091 229.51905422226992,146.76510480651632 230.0357691734098,146.93720824219054 230.50762837333605,147.52070229017409 231.46416270220652,147.77977682254277 232.29282901331317,147.91230505972635 233.50946844450664,147.98685215739533 233.96210375113878,148.20911279541906 234.5178490311373,148.29102245520335 236.06566371559165,148.02734686620533 236.71374193776865,148.1787417900632 237.09093802666757,148.17552062263712 237.56570993782952,147.8915975280106 237.83542698668316,147.60123170749284 238.0343651556177,147.12679796409793 238.32767516444437,146.95423451042734 238.82108842663,146.86772264703177 240.03335879114456,146.23544871853665 240.50958705774974,145.68186238082126 241.047856071149,145.2815122731845 241.39417742216028,145.20834475941956 242.11594723560847,145.14990276505705 243.49336832005065,145.48214759246912 243.96814023109619,145.4269268810167 244.24164380447473,145.25988414278254 244.72602766228374,144.92855932022212 246.64142648887355,144.46010196593124 247.04279808001593,144.16835099703167 247.80388949334156,144.0441036191769 249.07849187555257,143.30367979686707 249.46588245336898,143.4155028242967 249.7982227910543,143.27146739134332 249.93774165329523,143.05932557204505 250.39882382226642,142.62169612688012 251.3329302755883,142.53472234582296 251.66585315566044,142.05153403425356 251.3107936711749,141.61666362779215 251.6766301866155,140.9457189940731 252.00809671112802,140.04053866525646 252.28393045335542,139.77915390767157 252.39344839111436,139.3935187748284 253.1358984534163,139.20898429653607 253.45804430230055,139.04423767118715 253.7472765155835,139.12983230222017 254.29166222224012,139.37879283714574 254.87857351102866,139.16664718696848 255.09964828449301,139.47727252583718 255.41334727115463,139.40824471146334 255.58694485330489,139.18689537083264 255.7733583644731,138.89513726480072 256.1802641067188,138.87120756041259 256.6451327999821,139.56746883667074 256.9984446577728,139.6815947269206 257.4248655644478,140.1330356602557 257.84983011556324,139.39996137219714 258.06333183997776,138.84865841339342 258.3112035555532,135.47776449623052 258.6129604267189,134.56427768082358 258.7769460622221,133.69312518718652 258.7568483556388,133.60200602246914 258.7434498844668,133.45658343739342 258.7309252267005,133.4298919396242 258.7382070043823,132.5292820513714 258.5264529066626,131.1693862035172 257.98002830229234,129.55774894962087 257.1813629155513,128.53562781627988 256.619500942179,127.27695330500137 256.49338055111,127.08596548833884 256.2245373155456,126.88761410675943 255.42470684449654,126.5755899863434 254.2537969778059,126.01366930297809 252.83326776896138,126.14298942621099 251.29652138671372,126.4080724256346 250.87388700444717,126.51714294019621 250.58145080890972,126.48308717360487 250.27707249787636,126.42464010237018 249.99512206215877,126.19131187233143 251.0760291556362,123.9201451963745 251.12059363548178,123.79542592796497 251.1319532089401,123.7204102446558 251.2359369955957,123.26341229712125 251.30147299554665,122.88603158982005 251.39176704001147,122.45986672851723 251.46400227560662,122.04612703446764 251.43196245341096,120.8665733578382 251.4374966045143,119.78550191188697 251.55575267551467,118.19218877243111 251.17477006220724,117.51012564828852 249.43821169773582,115.08468801307026 248.67974172439426,114.64654152980074 247.95651555550285,114.26178190880455 247.10746026667766,113.61606535536703 245.66042538674083,113.18389902613126 245.59576319996268,113.12636883184314 245.54915982228704,113.07206031423993 244.12600917334203,112.48755252175033 243.30491591105238,111.86484286980703 242.6198462577304,111.35765304334927 241.2866983822314,109.4140279853018 238.40864853328094,106.45966591930483 236.8753974045394,105.60450885002501 235.60283392004203,104.82621171127539 233.86161521775648,103.15868567186408 233.39383381337393,102.5884191832738 232.9082848711405,101.97258491272805 232.70206492452417,101.69550494349096 232.64526705781464,101.53809390531387 228.0510478222277,95.14674044569256 226.71149198221974,93.97900689579546 226.080890026642,93.36775086342823 225.26969998225104,92.59953581611626 225.03872199112084,92.4490224213805 224.98046776885167,92.14109102019574 221.83940010669176,90.17289726180024 220.60295424005017,89.29880357789807 218.49036487110425,87.97361739818007 217.99840796447825,87.72966073534917 217.7321861688979,87.47833905438893 213.795074559981,85.24312820687192 212.79776227555703,84.59226138226222 211.55083064886276,83.39178898546379 211.22955861338414,83.23252335679717 209.913887004368,81.97956826543668 209.53610837331507,81.65735233272426 209.53552583116107,81.31073951290455 207.5400274489075,79.7525860205642 206.63067903998308,79.28812981641386 205.49035264004488,77.48046962998342 205.7781284977682,76.77710297459271 204.22710983105935,74.94042136927601 203.00144099560566,73.26115591800772 200.9168136533117,70.7620274880901 200.2655314488802,69.88601373927668 199.9296958578052,69.33591395284748 199.26093738665804,68.24307556729764 198.31984042667318,68.54275505262194 197.96390712889843,68.35723922995385 197.769046755624,68.25320299144369 197.21941816888284,67.9719366262434 194.87526826676913,66.98036618495826 193.49493447120767,66.48227754724212 193.01025934226345,65.75355614465661 189.33325283555314,60.86926380719524 188.98605767113622,61.01381467044121 188.39739875553641,60.674534306279384 187.29318997333758,60.40016336325789 186.5015150932595,59.87121571053285 186.02965589333326,59.39566810510587 185.38885944883805,59.330297490698285 184.99127438222058,58.89756193716312 184.92690346669406,58.84784332854906 183.673272604472,58.47357232333161 182.83732451556716,57.89904434955679 182.57314161781687,57.20758317067521 182.4956635022536,56.88210766669363 181.6358311822405,56.223789373994805 181.12057258666027,55.67365471262019 179.30537102220114,53.9122936228523 178.70069219556171,53.55136474315077 178.07387676439248,53.35800973745063 177.57056028442457,53.35156456765253 176.04342584882397,53.751625101896934 175.96769535995554,53.724463362945244 175.6499185777502,53.538014045974705 175.28466460446361,53.49704121146351 174.9785386667354,53.65448734187521 174.65289756446145,53.92794613720616 174.20113607111853,54.006208691513166 174.1996797155589,54.040736279974226 173.5335426843958,54.09045599773526 172.58662030217238,54.84499734186102 171.96067868440878,54.65762826136779 171.48590677336324,54.70090270717628 170.85210083553102,54.74647897586692 169.38642460445408,54.479926722473465 166.60216405335814,54.14616048254538 166.5532305066008,54.27874630584847 166.45041180448607,54.59547877602745 165.79388671997003,54.35240506147966 165.80175104003865,54.17102033062838 165.85651000891812,54.01403494540136 165.92524999112356,53.194118215935305 164.78550613333937,53.19918228161987 164.43539825780317,53.25120404094923 164.34656056889798,53.30184467951767 164.09111580450553,53.49427899764851 163.66119964444079,53.692237566632684 163.19429205334745,53.79720157128759 162.62107050674967,54.35562763141934 162.62136177776847,54.27460300014354 162.31232312892098,54.41685645189136 162.1567843556404,52.22872096503852 162.99302371556405,50.72790406172862 163.08186140446924,50.480682605993934 162.73291861335747,49.209121959866025 162.14222080004402,48.1447250925703 161.02315719111357,47.5945698065334 160.46828572452068,47.12175740499515 160.19682104885578,46.737797982641496 160.08817692438606,46.28201792424079 160.00225194671657,45.38518727757037 159.85282986669336,44.62416737957392 159.61719153774902,44.010009011020884 158.98338560003322,43.15920801938046 157.6974236444803,42.2190874327207 156.90341859555338,41.81025800376665 156.6401095110923,41.66569425875787 154.43547847110312,41.06027497409377 151.8682148978114,40.00642700586468 145.95104227552656,38.233888218179345 145.71686030225828,38.17725881654769 142.30403669329826,37.52072499273345 141.90441272896715,37.32137035729829 140.737871928839,36.312623865844216 140.60942136892118,35.816766374278814 140.47747555549722,35.35681954724714 140.73874574224465,31.471864138846286 140.49990343116224,30.091992890520487 140.16115512896795,29.443721999356057 139.5340484266635,28.86911662458442 139.02956686227117,28.61174080352066 138.1924536889419,28.400406938919332 136.19316878227983,27.798173351271544 135.0971155911684,26.94961047777906 133.62765283556655,26.260352119454183 131.87653091549873,25.69586768024601 130.44522467558272,25.381855304702185 129.67918165342417,24.803555656399112 129.30285937781446,25.09408696356695 128.5668172800215,25.68573825591011 127.71543182223104,26.57160065585049 125.50905315554701,26.924747489159927 123.87152696889825,27.1549602370942 121.97564330662135,27.212973810732365 121.23756231111474,28.898123182589188 118.48592412436847,28.43309694022173 117.01325738662854,28.114944744796958 115.9981775644701,27.906833358458243 114.8208597333869,27.51501248171553 114.3070574933663,27.611241176724434 112.93604437331669,27.64715426717885 112.33049173338804,27.815209033957217 112.41816433775239,28.95613628695719 112.2136920177145,29.26692050881684 110.27965183998458,28.966725978883915 106.20418645336758,27.747526718943845 104.89608789328486,26.9901279345504 103.80586012452841,25.773680060287006 101.19257571559865,25.03238938114373 100.75741667556576,24.86018857266754 99.76680362666957,24.932936524564866 98.35326492437162,24.461916122119874 97.02739882667083,24.303067367116455 93.8778843022883,24.079758049803786 92.34201173332985,24.007930673775263 92.48735601780936,22.86421461449936 90.62962887110189,22.81356682255864 88.68452039104886,22.532241143402644 86.53319196449593,22.407002752297558 83.51125418674201,21.531252851360478 82.4719988622237,21.037203098181635 79.91900757327676,19.778361048782244 79.93561002670322,18.662709588883445 75.49547320883721,17.338009867002256 75.1377922843676,18.1272132541053 73.86785023997072,17.71833811455872 73.45482780446764,19.16459230578039 73.13530339556746,19.86400305997813 72.99782343115658,19.828088672365993 70.44133688881993,19.413231016951613 69.80520078225527,19.19498149701394 69.01614734216128,17.827003204787616 68.33166023110971,17.109167970949784 67.22949034662452,16.183668085141107 66.87559594667982,15.141209722030908 66.3306276978692,15.214421406039037 64.3563921067398,15.661518634413369 62.935280355624855,15.286712163884658 62.86857927113306,14.270955724350642 60.43500913772732,13.798991107614711 57.78881109331269,12.842626465426292 56.31497927114833,14.780676349415444 54.84842922666576,14.491512493346818 53.68625749333296,14.201887796225492 51.89494015998207,13.862533721025102 51.07006037328392,13.706439876114018 50.13653646223247,11.792784609249793 49.62069532449823,11.859090562094934 47.59111822221894,10.602497194951866 45.27056127996184,9.653946230420843 44.870646044495516,9.044292823644355 44.40694243554026,7.869646086473949 43.954889671178535,7.783999307896011 43.69041550217662,7.975092879962176 43.32778296887409,7.342411344870925 43.36331804445945,7.911088063847274 42.84951580443885,7.91154853021726 42.35610254225321,7.76235737465322 41.28568120894488,9.02495333692059 40.69993500446435,9.636909111752175 40.05418695113622,9.589941913029179 40.24205681774765,9.108757766894996 37.32206392881926,7.395825578365475 37.74265941337217,7.160987039445899 37.09807644446846,6.629606341943145 36.607867164420895,5.699456732487306 36.60000284446869,5.488100395072252 36.43019178672694,5 35.41744213330094,5.1234066194156185 35.17597838223446,5.171295736276079 34.87422151118517,5.212738232687116 34.28847530670464,5.16761195845902 33.89176405337639,5.37482436420396 33.81836373335682,5.422713425126858 33.325533013325185,5.664460926258471 32.73570901330095,6.358389865607023 31.833351111155935,6.256165570346639 31.857235342264175,7.533044841373339 31.2551779554924,8.813139796955511 30.644964977749623,9.27038050419651 29.894650595611893,9.687560000980739 27.727010986651294,8.04600466840202 27.174760960042477,8.284525967319496 26.529304177733138,8.746832906908821 25.08023039996624,9.61250458820723 24.9744989866158,9.883716968644876 25.189748337841593,10.066059905162547 25.11139640887268,10.336350792320445 25.13964970665984,10.33957402058877 25.119843271095306,10.535269933869131 25.055763626703992,10.528363022371195 24.367489991127513,12.9038670824375 24.783716408885084,15.125093939248472 24.894108160049655,15.983833259611856 24.559146382147446,17.685646487632766 24.021459911135025,20.258600489003584 23.6964013511315,23.112388622947037 22.94317425787449,24.192563816322945 22.669961955631152,25.676990116364323 22.507723946706392,26.00205232715234 22.147130311117508,27.13424109981861 21.87391800887417,27.564277895493433 22.568017066689208,27.9593216474168 21.93362858670298,29.04868096881546 20.93806392897386,30.73243473225739 20.128621511161327,32.16663080238504 18.578185386606492,34.50920725741889 18.530125653371215,35.51980382046895 17.73116899561137,36.834723278472666 16.15102321782615,38.330572528066114 14.14853432890959,40.26056643703487 13.81095111113973,40.549235318554565 11.176986453356221,40.65006215730682 9.73315555555746,40.945176058332436 7.429201066726819,41.09710661403369 5.44273208884988,41.20760149648413 5,41.68549121043179" stroke="red" stroke-width="3.724227206148514px" fill="none" stroke-linejoin="round" vector-effect="non-scaling-stroke"></polygon></svg>