<svg viewBox="0 0 116.85803468442397 91.80510054087723" width="116.85803468442397" height="91.80510054087723" xmlns="http://www.w3.org/2000/svg">
  <title>Konice, okres Prostějov, Olomoucký kraj, Střední Morava, 79852, Česko</title>
  <desc>Geojson of Konice, okres Prostějov, Olomoucký kraj, Střední Morava, 79852, Česko</desc>
  <metadata>
    <collboard>
      <support-module name="@collboard/map-svg-geojson-import" version="0.11.0"></support-module>
    </collboard>
  </metadata>
  <polygon points="8.05255000000011,29.853656931510727 13.697238497763237,37.98907846419718 14.131378088881092,38.03614531367896 13.778211866658012,47.709490632296024 13.99309712887748,49.060918326220076 26.72077087109915,56.066289569112655 26.63506434666465,56.79440150378616 31.69043856889016,56.64808367292392 31.742576097756455,56.734998532825216 28.332592382219218,61.753704901646074 28.32895149332012,61.76875078536216 25.42526978665387,60.01183523823386 25.27664870219428,59.883267276112406 23.07165357331519,66.28524854318641 23.18641439110047,66.6275692146952 28.274410977762955,64.90336953655753 28.379050124443665,64.88125110539079 33.638241306652844,70.06345664764342 33.66197990219348,70.2069320357765 38.75274356443674,70.7895864430244 38.80895888887585,70.84381003528654 37.23849787555059,74.54391024550534 37.248255457765254,74.59633402154543 65.07884603553225,83.73593936183136 65.13542544886127,83.75255054087722 70.78280820442137,82.04684799670179 70.89458349333268,82.072438977753 69.2154783555377,81.59956510515588 69.30351504887926,79.925336574153 71.5213261066599,80.09752092310339 72.01102566219174,80.03376563399036 73.38582530664985,70.30617457279698 73.43097232888226,70.17493638315466 72.68837663110003,65.17451607654914 72.91170875554212,65.1225323924806 69.52335191998986,64.61683972695721 69.37458519999177,64.75639969201404 65.50665047998314,58.128873961140584 65.35038352889364,57.89407474244183 69.89159142220865,50.02092500008405 70.1579588533275,49.77486031578849 63.345928559989034,44.35565410802485 63.151505093330115,43.97556739042159 64.40018434666104,40.316985594115636 64.4918619288726,40.31316648759059 59.48279981330393,28.59972530639027 59.41020048887708,28.493890860619672 56.811698088866024,25.977285247041095 56.758177022194786,25.897287673032793 56.17461535108282,28.54793161695818 56.164639315545855,28.561526060795245 56.08002505775198,26.48041337897996 55.89484944887931,25.809200321563935 48.69280713776948,32.13090582995903 48.39789513775736,32.516579509515964 46.998118995550385,30.716483635820282 46.947801911104534,30.355850689556632 47.80603223999037,25.71965219281958 47.78338591111947,25.492803768727413 41.31017673775909,25.67167590806605 40.074968773325736,26.34221651851078 38.42673837330199,23.95877142126085 38.20835785778013,23.736073050072832 41.71089296887635,24.29865997518175 41.90866605329916,24.19888464478538 41.72603906665586,21.648821707501725 41.80854160886497,21.54151308566327 48.03919476443093,16.56092572998716 48.24213791109628,16.38550748737873 44.72059735999915,15.340965064773286 44.524644719996786,15.391197953481992 43.34958423997864,9.51914444205579 43.293077644433424,9.482842517019549 38.43919021331362,8.074691383611594 38.378096097767184,8.052549999999997 36.30038644443971,10.061085490080245 35.90440336889128,10.392069245433618 36.5457095377858,14.945843018423716 36.71908866667195,15.432440581592914 35.21824144889956,17.032787900861535 35.154380257772345,17.125159586248287 37.87142999997718,23.582026371564666 37.9765788710863,23.67438701418689 33.4056613244245,25.178989615720297 33.266360915564064,25.293144918403073 35.6890083822143,26.582206941042045 36.239146693325665,27.31183428766201 33.08744763554546,31.566377124668747 33.021838817752496,31.7532058754947 34.84556006218895,32.23886777152768 36.21438864887,33.02627574792825 34.83478303111747,36.12322162262683 34.624776559976226,36.383164789651005 28.28613463999477,38.68047406138032 28.15244119999238,38.72978691526043 8.05255000000011,29.853656931510727" stroke="#009edd" stroke-width="6.077216386147836px" fill="none" stroke-linejoin="round" vector-effect="non-scaling-stroke"></polygon>
  <polygon points="76.70726260444621,57.8229947232245 82.41595792887506,65.71545783730801 82.42229307554203,65.72253113755835 91.41456045333302,53.569816310605916 91.87047256000346,53.10860033552274 93.33454679998226,55.199594677956725 108.76842043555348,51.70785902013415 108.80548468442407,51.66304998013186 97.81793737778912,47.392546644412164 97.37942871999235,47.25305476904725 88.75540084444924,48.78913050908125 86.8652697866562,47.794847310760474 76.70726260444621,57.8229947232245" stroke="#009edd" stroke-width="5.197216024750863px" fill="none" stroke-linejoin="round" vector-effect="non-scaling-stroke"></polygon>
</svg>