<svg viewBox="0 0 1780.0132392355729 2076.2732779881476" width="1000" xmlns="http://www.w3.org/2000/svg"><polygon points="990.358838071093,1218.480838923169 1002.1582307822314,1251.9737205301421 1002.4104715644858,1252.6428120376436 1031.0721314400212,1274.1571046761014 1033.5922090932504,1276.7140244614343 1047.1543745688173,1301.0396523317681 1049.0421026400068,1307.6348276713175 1120.0668154577502,1330.28602648076 1121.251997608902,1330.9887912879708 1131.8746550311112,1313.115112423758 1132.6412805955401,1312.436833616673 1185.5224246310313,1278.6634940670115 1187.1363578578234,1277.5753993772446 1173.9449805066465,1273.2314468720938 1172.8288296088353,1273.194848942548 1176.884197288869,1270.3067175518731 1177.5022745866804,1270.3245704352516 1171.6057822133657,1260.32940728739 1169.7372780355868,1257.6049169055545 1133.2873199200035,1225.8440851395494 1132.258841626673,1224.2677979575014 1144.4124200088913,1211.2454753339184 1144.6943704444925,1211.4244984278698 1130.7934566667313,1197.2361320781997 1126.7887701600334,1194.0474187085415 1136.8151956177094,1175.0677699800358 1136.8751974666734,1174.8784474675554 1148.1642831910644,1181.675202292135 1149.9375417155456,1182.2869088656512 1170.763426159952,1169.3317614200419 1171.9835608444187,1169.2643358628625 1188.5676640977395,1130.0504205139364 1189.5684716355531,1127.280996336754 1227.3087607733682,1154.4730807771916 1231.5380173066874,1154.9165113678096 1229.531450622227,1165.6804814992133 1229.5040711377292,1168.8356695860052 1243.4265389777497,1169.1477923014677 1246.5454700356127,1167.6260224357025 1249.1042867466817,1131.3500415230878 1250.6689951555813,1130.4367347766888 1253.3658743733317,1132.6643926994652 1256.7603479021705,1133.5200788844154 1249.0390420177496,1152.4841072011982 1251.4111539466317,1153.197710474698 1260.0345264621787,1145.0759826372155 1261.7792404177376,1138.1083936902937 1289.019206000004,1139.582136185701 1289.6265062666275,1138.8524115892137 1301.0982189777783,1152.8583249759754 1301.5482328444264,1154.2520349829933 1308.9421499999949,1147.8889468669436 1309.0738045421672,1147.780876830198 1313.767929768866,1187.0081548357043 1314.3123154755226,1187.1421020813646 1377.9940835821685,1152.3697875631983 1378.469438035601,1152.2353726004726 1397.2814740177487,1154.6110668270626 1397.6531359555443,1154.6642070627781 1399.9259244354685,1169.7608732569856 1400.1720485244655,1169.6260223847125 1407.7282036888423,1149.6363694788665 1408.0672432621718,1149.1509508907689 1421.848444613373,1146.6050535384343 1422.4391424266864,1146.8136029814846 1427.3715274221972,1123.377125407023 1427.3121081155036,1121.9448103621612 1387.8393384088772,1114.0756204899876 1386.9631949066893,1113.1684950447884 1380.7133906754675,1084.8362506058543 1379.9700667999928,1084.1992580278088 1410.7090722399075,1076.7812409881512 1411.6577422489422,1075.069424124878 1381.0751493955972,1057.012340379158 1380.6679523822163,1056.8434670425263 1374.1749367733496,1037.308236393124 1373.2728701422234,1036.4338574547796 1412.759329591157,1030.9301498230557 1413.095165182232,1030.6835118701924 1416.5502231021887,1046.8721156466995 1417.3905402577725,1048.9277190700882 1416.2009890399418,1034.2811815747186 1416.2140962399785,1033.518938035449 1423.181592488872,1047.316656592629 1423.8340397777279,1047.1526903381814 1420.1686841154947,1029.9261707766923 1421.056187191141,1029.7045530670798 1436.9135690221806,1041.8284118171791 1437.1739653955224,1041.7153750540233 1446.4928933244441,1032.0203577527204 1446.671733786679,1031.5547860107395 1453.6567063021716,988.9758288360676 1453.731271706732,986.9227936126767 1437.3408637421448,940.4218229825851 1435.5734306400186,938.7773352750587 1436.1297584622876,902.958067472478 1436.0251921333615,901.7071688250649 1419.5424512265959,890.5524864459653 1419.4087577865935,890.0749908239591 1425.6801160799582,877.3691132791932 1425.2449570400418,875.8363819836882 1404.8137449511337,849.387930974633 1404.7971424978236,847.0876431632564 1396.6232013066542,846.8993798180959 1395.777058728832,846.9235276195463 1398.3821875466742,855.417575899955 1397.8823663199796,855.4792845529514 1380.093857022213,844.0552868750306 1376.8758937866437,843.0034997921098 1384.332725502179,831.5184803419756 1385.445381146717,829.5471574496255 1376.4185981421974,818.4107295454955 1375.4466264444413,817.97645959803 1322.652572471044,863.1976484780675 1321.866723013321,864.0673503933717 1282.483664808889,864.1393409890366 1279.7259099288854,863.0366749958262 1276.9072793866285,879.7598487360879 1276.14123636447,881.6828807865745 1266.9507589955824,884.660618704605 1265.8963575733137,885.2145808160781 1247.2905415377822,862.6078589500171 1246.7438256622768,862.3234716222864 1230.3988559910572,861.0307566663028 1230.022533715564,860.9243342733021 1222.5863822488823,880.0598625157504 1222.3655987466695,880.6022112756978 1210.1022111555571,864.1406824284709 1209.959779582197,864.1156422241834 1170.6684717777894,874.6148393593389 1169.0093915288812,875.7330966143413 1176.4129206310968,864.9553818083727 1176.690502000019,864.5627883015909 1171.3983971822086,858.8213635677598 1171.2833450933463,857.9494051139113 1163.624662497757,863.0380164419544 1159.1982154221982,868.2418717187606 1145.084965004447,860.933724486596 1144.6524274045146,860.5554327226487 1146.1556776088905,852.959947643139 1145.933146479983,851.6636002781811 1120.872762622173,853.1875566540762 1120.6802324177474,853.0672682276704 1120.1812850044585,841.0993588504857 1117.79257062215,841.6480643776954 1105.8583193867012,862.6109889971917 1105.453452542169,862.9637897414864 1074.2961817866667,872.1118183101421 1073.4893608088382,872.3537156570014 1074.634930088861,941.5460036188374 1074.3678344799914,943.5668323784844 1135.1205802933323,943.9414055440352 1135.5321463732757,944.9810885786787 1126.7578954222622,964.8789420076423 1127.4053911021688,965.6070089465134 1110.1595198843638,971.7764862307008 1109.6454263733244,971.8403968910347 1110.911873164448,984.7432661677954 1110.9730400978365,984.8228146066899 1079.885674408964,1041.5429156910172 1080.0761657155595,1042.0415284022233 1059.0932861421966,1053.888162675757 1058.4626841866188,1054.1133301192672 1079.199148399966,1152.6314722719612 1079.1021551199733,1153.1186694249986 1060.9647030310948,1162.4774683469218 1059.6933046311383,1164.5717342758794 1058.4332658044073,1204.3518594061966 1058.3796719200686,1204.5902666683319 1048.0613928088928,1213.562942587981 1046.3297860532543,1215.6589548639963 990.358838071093,1218.480838923169" stroke="#009edd" stroke-width="6.295822040852141px" fill="none" stroke-linejoin="round" vector-effect="non-scaling-stroke"></polygon><polygon points="724.4711304799198,718.6067234509169 731.353575564433,733.1440973881176 731.6987318311362,733.3991226069988 764.1402169156131,738.3089715180463 764.8768415555601,739.2189861443253 753.6996039377768,754.6403426738466 753.0087088622163,755.7838153311527 753.1907533065892,773.6616575373114 752.700544026658,774.7186969285026 771.5446198311179,788.4208314987841 772.0761896088729,789.1271177899102 800.3743431378166,855.057608412149 801.1188320978322,856.458571729228 776.9631363111325,863.2343146437556 776.311854106701,862.9821228445285 768.8992955999925,875.219798908081 768.3569487911659,877.7630252855374 778.0985111022378,907.7085562918578 778.1998734489093,908.0237319043731 789.8242122222214,899.8974215231497 790.0170336977822,900.3275060992232 791.4262033334012,946.5651877634004 791.2706645600042,947.9391968375198 829.5087360265675,944.2641279748418 831.2240315999147,944.4174433128569 861.7824489511327,918.1287827082338 862.524025200029,917.8006574881506 856.7725858399422,911.6877829064974 857.6551373066391,909.4377695554062 872.78521517336,910.4414044217915 874.5360458221762,911.230897495559 880.8336185156145,897.9284996924466 881.7353938754891,896.3507564695096 890.8271303376891,903.4310644643624 892.3187296977044,900.2322795451978 898.2816318843757,880.517259785825 898.9771872977503,878.3299711800423 878.7489911733205,833.2438205874419 878.9423951910353,832.9021524171471 893.3597326489175,830.36958763752 894.6162762222589,830.6294194827565 909.0639058755255,843.7592486723802 910.9038654843821,843.8281156010703 873.537859724463,811.7145583596789 872.6541431733417,810.8656703731754 877.5652653777283,795.7689606721174 877.766824986647,795.2818662092682 955.4298976977366,769.4920505695986 956.467987937714,768.9995298165372 987.3537940177844,779.585575329525 988.8847149777935,780.2086890225542 1002.2057079733127,764.9725385495472 1003.5872068532985,764.0286319042566 1013.4120727021723,777.1771997020473 1018.7303919199398,787.8223426696272 1023.7562749422864,790.8402663736265 1038.6833368444127,801.7101738796114 1052.2350165599269,798.505436412735 1054.0921611644803,800.5226597205979 1056.6553469422283,794.5263980071536 1051.992387724436,792.2215106569706 1063.751293751156,779.0868147120123 1063.921396080033,776.1698252521232 1052.495412933385,755.2416060330938 1052.032583137719,754.183130893834 1069.5869104622175,761.6809261449157 1071.1807459821935,763.1576395711522 1081.2569788000324,750.9853060726086 1082.2930301421798,749.4628781656861 1095.6035373777627,767.7035821103268 1095.3373155822987,770.0252779704529 1126.790809057747,779.6218081195616 1128.453967102199,780.1644046187644 1130.383055671096,773.5887426564364 1130.8202536088424,771.4549651905904 1145.0581680622195,775.6191670188341 1146.6150121510505,774.9575701285862 1142.7303293421642,750.9902272153772 1142.8905284532589,750.6940637004805 1160.3257258933513,754.9843693061625 1161.4619744978622,755.0622114082576 1193.6191789777727,740.2135553440089 1194.1603607021748,740.2605321855294 1167.6881857688782,686.2685698042401 1166.9314634222314,685.3015021661772 1124.1047068710682,675.4623204393788 1121.2371427822868,674.0960060817665 1109.9294157066392,653.7372293623407 1109.7636824444412,652.1116325146063 1131.6591144088666,614.2329857493528 1131.9669879732896,613.9160457635076 1149.756953626616,618.6580111166472 1150.6715449155085,619.2408454502943 1157.112714266615,603.7508933777349 1157.5507860177672,603.1138489704822 1169.9839846666214,611.1517546165046 1170.8974108710895,611.7560965416264 1201.0736805244592,554.3590281908178 1202.2641055554627,551.3839775797455 1202.0602157776952,541.6910513345861 1202.091673057737,540.8979910920384 1159.0610267289226,531.3116321868506 1158.004295137805,531.4092577938932 1157.6719548000033,517.3798341355064 1157.5292319555078,516.4859189602789 1148.6262391733248,515.4683918494625 1147.669122302184,515.6381293139198 1135.4628238487999,536.50901588027 1133.3694583732645,536.3016781822439 1146.7163744978384,514.2806737855785 1148.0812709245142,513.5537979118303 1135.7176860710383,509.2090633202238 1135.3835981066582,503.6975177830095 1158.111482906715,492.12309079312354 1157.0733926666212,489.62063759714465 1136.8868483111505,461.55152419847536 1134.9839741422106,458.4780065047448 1080.338600986615,443.8068657493927 1076.5934370399696,446.75066982050294 1079.3590562400418,425.2457898951611 1076.5255708710533,417.33908100848885 1061.006937342208,405.28379282923515 1054.988402373368,401.3406447124212 1073.5787810400138,399.7042174562007 1073.489069537703,399.25702081082954 1045.871907866654,383.84431135209843 1045.8145274577905,383.8124944934166 1057.2387629777436,374.8870114264205 1062.9488418400065,371.1010665878198 1036.4708414844713,358.97422078953923 1036.339186942299,358.8630732391971 1040.5955316888644,351.0449568030667 1039.6331719377554,340.4481052714759 1034.1001859111489,339.41541938085675 1034.8997251110627,334.357698371728 1016.0573969332977,346.7382407397158 1015.419804471057,346.79157658896975 998.5942374666697,317.0577443489815 998.2496637422369,316.5032447173503 955.2181436000169,321.27404739577423 947.2734327733992,321.71378261064046 944.8739413600192,330.3236296430473 942.0419123467068,333.6333643793837 913.5448206488286,336.72117998361455 913.0822821244142,336.91122556987784 897.8872508000127,364.731855862286 897.1879088622295,366.26994843697275 884.0530381066269,372.21785539904477 883.9376947466294,373.05813216066554 913.6674457866243,469.32180870252296 914.1567812532662,470.50753012489395 928.8356801689147,497.71778683909315 929.4386113688593,498.4805463862499 940.3772979466953,501.648455965194 940.7483773422205,501.4621359535736 951.569681662229,535.3155899509798 952.019695528877,536.6473901746572 916.3503439910487,562.3275234111129 915.1313743911228,564.4122876847173 906.7319893600429,557.467921993964 905.5537977155541,556.5593934122949 889.2947530221204,566.1880828900971 887.6988786044308,568.4075828412674 874.810423208844,552.423279639544 876.189591919981,550.5654285934065 835.0163814666225,531.9582890693341 833.8023634755295,531.2023631074476 833.112050942123,542.5450096713389 833.0150576622468,544.4306919662408 857.7288288977938,563.4576686982541 859.28392535993,565.3069034019495 841.9454299288113,576.5627205836131 840.6475258577625,577.9336709792037 856.4929655733063,576.4830243144893 856.5981144443863,576.8009137548283 817.6481763822735,581.243706355664 816.4294980533664,581.4232428965402 831.3195685244641,599.2297631443721 830.7681923111445,600.1117019805602 791.3347442043955,617.628870527587 790.7035597066638,618.2215558225066 818.462570408919,623.6603983591554 822.0143303377331,624.8618496216145 826.8555474756063,630.0337447829438 827.4313904621881,630.6075965163541 823.3634981243881,654.8942065794031 822.8263941955297,657.6118482592642 842.8204083466912,662.4177667257386 842.953227973288,664.8596235755026 779.411561271037,667.1904616270108 778.1232691466353,667.0700714036134 769.0466787821856,695.378755699006 769.0292025155863,695.8620441397429 731.4491124888659,676.259370520223 729.9639210932432,676.8545829010322 724.4711304799198,718.6067234509169" stroke="#009edd" stroke-width="6.2309676509395455px" fill="none" stroke-linejoin="round" vector-effect="non-scaling-stroke"></polygon><polygon points="8.052549999999883,1515.876372616192 25.12249346668932,1512.5701098974455 26.19349734215166,1511.6173656031965 27.28110367115687,1499.2451366456003 27.263336133305984,1498.5794687489756 45.83303455109808,1481.0863512883438 46.43829592000793,1480.6596290404918 60.94854886222265,1497.8357731017527 62.30587223996508,1498.7992775935923 84.83015853327333,1499.3039899730716 87.28062239112433,1500.4186333600442 101.38950374219667,1473.0645482502073 102.94052240890551,1471.3954949502145 134.72897766213964,1470.6392219147306 135.62259743104323,1470.786374300696 168.30700262226264,1486.9881429172597 168.86333044441517,1487.5486176322224 184.785374462233,1480.475473834063 185.3411197422315,1480.498214557861 184.97673958223413,1463.3679880153863 184.95838950222924,1463.021053283162 267.09130868441525,1465.009900509474 267.67938505774464,1464.5068933100915 279.34362797332096,1473.2121449282054 279.672473057733,1474.6345972715421 270.1997539821091,1524.66697395451 270.1854816977643,1525.2839702346605 289.65753801781784,1557.6965828045281 289.9062835466825,1557.9243560295795 286.2359762756164,1574.1134818556961 286.2281119555478,1575.2067989239945 295.1468333777516,1576.727984831064 295.0425583199608,1579.1949311674466 287.38970114661015,1614.1495080500968 287.3832931822176,1616.0327166917045 272.00068326222345,1635.2689544847594 271.6421285244646,1636.3419172050558 269.45963408888883,1658.8083257963658 268.57708262219194,1659.457470867062 275.9476980889226,1667.3281471292498 275.9581838488589,1667.8903911883604 255.3513352799705,1693.2059273124682 255.24909912000976,1694.012665796828 271.5815441332302,1692.6401840420217 272.86546719106946,1693.7654326157422 301.5469335021694,1754.7269719912215 302.7216298932685,1755.8202847543648 311.8870579466234,1755.8897578059473 314.0340173066138,1755.4671297373493 306.9817611644753,1739.8738592364602 307.67993801771763,1739.3523276143019 322.12203351999733,1744.8499482265684 323.2862441510438,1745.684110218986 316.38894424003183,1764.429432442797 316.87827970667377,1766.7428720834791 340.5163867289443,1777.7009876622828 341.16563003554575,1777.7107841736647 358.0913943021801,1767.2429637390665 358.23062189328584,1766.9005146333143 386.2631361689196,1829.154726967659 387.8630883821529,1830.9657612107471 453.0856806667066,1849.9308666572683 453.82958708433534,1850.156557713904 468.62936351108465,1867.0319860032537 468.5224670133098,1867.4138949844414 501.9376714222376,1879.1744095736426 502.84090313778825,1879.4067470887453 499.86061712887704,1897.741945711175 499.6019683822301,1897.9221924338267 505.923134035525,1911.9498315606393 507.5787190310434,1913.0695120516243 526.5122150666789,1859.1417232149174 526.4935737155388,1859.0731729283357 557.4160799555025,1845.9988195531546 558.323680737732,1844.584547508602 603.1730238843952,1889.0547692856994 602.2025085421988,1892.626882913733 624.8977709777896,1901.7095648368481 625.3597269599336,1902.2316029638528 636.0852030844903,1903.923656675593 637.3216489511319,1904.2467564618923 641.4288628889258,1890.9801394828023 641.8812069244227,1889.9960931517194 725.0935768444101,1906.9525873457674 725.6600991555965,1907.14840276735 736.0185736800554,1905.3259775261754 737.4758030489097,1905.96549696182 760.5925347822263,1861.627324416862 760.9429339288977,1861.1105317729302 774.5977236177782,1852.6471567085023 774.746563155531,1852.2816925566653 806.2160765422518,1860.0221918854872 807.0657143733474,1860.0796136333151 831.6021015022193,1880.9796923388271 833.8245000799429,1881.7158660326745 843.5908204355287,1872.8722724545291 843.8672367199101,1872.6007588663847 830.3074014133085,1853.7266301150444 829.6663136976781,1853.2178315549168 834.9493891111119,1835.079709776655 835.010556044384,1833.952955816501 862.4823734310698,1834.0566833080734 863.6617301599831,1834.4586825252986 889.5362167733033,1853.1274673834337 891.2372400621894,1855.8566271011146 881.1435309777512,1878.0162790778918 881.1924645243921,1878.117760394212 894.7514260178209,1859.6856734351963 896.7402251644303,1857.5503717867318 924.9780855733911,1862.9707125530472 925.8935506755729,1862.9279806508343 923.9443643999762,1883.0448892281634 924.044270391088,1883.8811994540515 932.0679156888286,1892.9620159506808 932.4564713510695,1894.2482455910426 933.4718424444795,1915.431681038673 933.5152418400171,1917.7737991441168 906.10109613333,1909.1016520893677 904.759501395492,1908.7772243149006 874.3100194399954,1925.655291288836 874.1451599910865,1925.8564300855865 919.2438312088848,1950.724139234378 920.3372629598957,1951.2505109185363 937.0611763467091,1978.2352783574966 947.005463351124,1982.504861431989 945.9516444711257,1969.5663960062443 946.4913698399682,1966.7340869217655 955.0489150844292,1964.185155646213 956.0441884710231,1963.0924297176894 991.1406097333888,1971.3856215548944 992.1099599911608,1971.784701310076 973.4231705866764,1993.0238684979045 968.3463151199753,1999.2082501781183 1062.1041556177438,2067.6723995037387 1062.973599884404,2068.2207279881472 1071.0126825510301,2057.4611448172723 1073.782379546646,2057.810259137746 1082.2385624444355,2016.8182422968453 1083.7158895199896,2014.4762850610782 1113.8813821421713,2003.3573206841606 1114.0820679376843,2003.1678183588442 1109.19745140439,1982.5680348036472 1109.4992082755557,1981.9256230549431 1152.4549979289072,1979.0859093928952 1155.8780160266683,1979.5659450212038 1147.7867958310303,1964.2688005676969 1146.349955440011,1963.4230065769875 1158.2317778755455,1959.4128934386313 1158.3462474222538,1959.350603300241 1158.6214986222108,1942.351412591735 1158.939275404416,1941.7787433290282 1147.5030977688507,1918.6785095924056 1147.0417243288607,1917.2135265251632 1154.1758276532414,1914.4072468768932 1154.6826393867154,1913.7014436846143 1150.488044115576,1904.8137375881556 1150.3112425511713,1902.7723316912084 1156.472209093255,1889.8563413043516 1156.6035723644086,1889.6066570510516 1173.8176950310367,1876.2679445118188 1174.0163419289524,1875.9804115844668 1166.7599047377948,1882.4146501573045 1166.0025998488777,1882.3149511563602 1168.7149164355137,1875.308758132021 1173.1789374843715,1872.4378505531708 1170.4765241155178,1861.6660504318784 1170.5656530755582,1861.5823666207502 1153.4121148000481,1848.5077167495397 1153.0622981955307,1847.8822757419907 1158.4036278311173,1790.1827261844078 1158.6634416621887,1788.3602253197237 1181.911827937794,1771.9926646629242 1182.5243710843856,1771.4066392142918 1197.0349152977356,1742.4578943970623 1197.0663725777772,1742.2984529106539 1189.1802072444475,1724.8478209954696 1188.9221410399546,1724.8536112301294 1189.204382746691,1665.3429062443097 1189.3663294844805,1664.0869737539683 1154.2623351732977,1657.3540913320971 1154.0575715821246,1657.3808236698164 1170.8642059644694,1633.3400146050622 1170.9434317066111,1633.1934162667962 1150.4565868355344,1622.5008321247074 1150.4260033688984,1622.22499972795 1163.3325175733548,1615.047443187424 1163.4959206665876,1614.778731467704 1160.0178523289283,1593.8146430249103 1159.7565821421808,1592.302934077546 1167.3765256799302,1571.379051183328 1167.6142029067046,1571.048332085927 1120.7250881688446,1571.5640218907279 1119.3258217511243,1571.3059542827318 1105.613360382245,1559.3854866985125 1105.4522874577447,1558.8006790024006 1110.2602996888813,1534.0759795940025 1110.4006923644115,1531.9504514131472 1141.8868082044423,1494.7191795197791 1144.2892123288252,1494.2755406559804 1144.8688418400484,1464.8765680391584 1144.8254424445108,1464.4935154433838 1121.84589940447,1444.1220957126711 1121.4255951911687,1442.6780397174657 1105.9553126665774,1441.4128105510968 1105.6602550311723,1441.2620707442761 1087.876114799968,1393.383585626761 1087.3923134844295,1392.7920922724657 1100.5079603466215,1383.041144553899 1100.5650494844663,1382.9363124954757 1100.4983483999745,1394.6258949305407 1100.5609716889226,1395.2896465458684 1111.3627608443853,1397.4329974844363 1111.755103031151,1397.5235485842927 1118.5038546755454,1385.8845278284057 1118.5297778044837,1385.7756823288287 1101.3005090399888,1379.9684293153473 1101.3436171643912,1379.8609191938663 1147.167844720046,1376.0083642035966 1147.9306837600666,1375.6563847118882 1142.4192517954866,1357.5958255679357 1142.2447803999307,1357.2630009369236 1128.1711428533085,1362.1495833887961 1127.6692827289003,1362.0670482022465 1116.7474898755095,1340.3797449712652 1116.0370796355196,1339.8626215752224 1131.8746550311112,1313.115112423758 1132.6412805955401,1312.436833616673 1185.5224246310313,1278.6634940670115 1187.1363578578234,1277.5753993772446 1180.6861591022239,1313.4984282733417 1180.8108231377332,1314.4957603329453 1200.7017273155284,1324.674982613396 1201.2073739644616,1324.7084485074515 1206.1528661600091,1334.4418995695664 1206.0349013600276,1335.4842020175197 1198.862641519961,1342.7052236179948 1199.4058621421932,1343.919263634692 1215.584224737809,1351.432688455075 1216.9127122756104,1351.6593364813957 1222.3120048622145,1370.9030451253998 1222.904741573358,1371.3103507889678 1230.4084679378207,1364.6265168686873 1230.5966290755673,1364.665330266092 1276.1645380533078,1385.4986613682481 1276.4400805244,1385.6262427235265 1279.8243595644376,1401.5760067554434 1279.9525188533366,1402.6028258190267 1319.367325608829,1407.810892617657 1320.8487304800433,1408.0780725813015 1353.7949884000477,1381.53200419827 1354.7145312977732,1380.4943805644066 1356.5070137155485,1377.3680971861827 1351.869977626578,1372.0892705853107 1374.1006626400408,1348.3742557709115 1374.2955230133152,1348.2555761268372 1345.2622011999842,1271.3109399935706 1344.618200773351,1269.9840264352747 1323.3146317066635,1248.3086341881785 1322.4373231200511,1248.548779332988 1324.1199963289323,1217.597357832397 1323.6597879733667,1216.4473538922389 1307.3873448088775,1198.1045149357883 1307.3620042222096,1197.571877424583 1316.5647149777283,1197.5745562417792 1322.556161733322,1196.8945820982112 1313.3310231021383,1187.0751284686626 1313.0971324000052,1186.4518264033609 1326.1050089511332,1186.9594873162928 1328.6297469421766,1186.9197496088814 1337.684491973348,1171.696554654954 1337.7651740710494,1171.1227731315662 1377.8484480266702,1152.7283759162306 1377.9940835821685,1152.3697875631983 1397.2814740177487,1154.6110668270626 1397.6531359555443,1154.6642070627781 1397.7055647555749,1170.4936210888914 1398.917835119973,1170.3502866956183 1407.7282036888423,1149.6363694788665 1408.0672432621718,1149.1509508907689 1422.9267302666335,1145.7445058886437 1423.1539217333552,1145.4216321870113 1420.0422724532905,1135.364526834433 1420.0440200799853,1135.0161819160926 1427.3715274221972,1123.377125407023 1427.3121081155036,1121.9448103621612 1387.8393384088772,1114.0756204899876 1386.9631949066893,1113.1684950447884 1380.7133906754675,1084.8362506058543 1379.9700667999928,1084.1992580278088 1410.7090722399075,1076.7812409881512 1411.6577422489422,1075.069424124878 1381.0751493955972,1057.012340379158 1380.6679523822163,1056.8434670425263 1374.1749367733496,1037.308236393124 1373.2728701422234,1036.4338574547796 1412.759329591157,1030.9301498230557 1413.095165182232,1030.6835118701924 1416.5502231021887,1046.8721156466995 1417.3905402577725,1048.9277190700882 1416.2009890399418,1034.2811815747186 1416.2140962399785,1033.518938035449 1423.8340397777279,1047.1526903381814 1423.8506422311543,1044.8888712819676 1416.1261323643625,1031.1057451537122 1415.6376707111262,1029.8403833026891 1434.3084402044547,1042.3431081229132 1434.5143688799358,1042.702322539793 1445.8494754399649,1032.762500307093 1446.4928933244441,1032.0203577527204 1453.6567063021716,988.9758288360676 1453.731271706732,986.9227936126767 1437.3408637421448,940.4218229825851 1435.5734306400186,938.7773352750587 1436.2159747110923,903.152988851281 1436.1297584622876,902.958067472478 1462.0575476889276,895.3998131077165 1463.2800125421268,895.8115761117438 1458.0764541422027,927.7760713054809 1458.0109181422517,929.3079937386569 1490.155306693377,935.098090347055 1490.600660222211,935.0699292021814 1485.0070898044864,913.1143143205913 1485.032139120019,911.7011944012261 1488.9613864088674,915.8949287208738 1489.7501485777098,916.794373958815 1499.4669528445006,895.4105430980921 1499.594820862148,894.8186045156103 1496.681818479999,927.1252133749435 1496.549290124421,928.4711818727442 1504.7322607199671,928.7755993782553 1508.3247986044512,928.470287841315 1502.723363866658,919.1600940759304 1503.1366775732963,917.858772344865 1518.386759137829,915.2310714027622 1518.7735671732585,914.7786637863387 1524.8695802577781,882.2167304600366 1525.0393913155199,880.2798425532305 1541.1513440977792,882.1465342201768 1543.4424826577083,883.5204985883679 1548.4523457688988,866.3920534390268 1548.7281795111262,865.5344335944169 1559.7644419111089,866.2494151252681 1561.1179787644428,866.2127494622032 1619.7942528265771,918.3934283058402 1624.6442080978081,918.4184623323158 1643.3787659643926,894.5494597089487 1644.2653952266332,893.5658712357758 1657.1145290222262,892.4682707247334 1659.6669377689027,891.8691707829489 1668.6803223022503,904.9461680201125 1668.8510071732812,905.0789458515133 1681.3345957244524,897.7183730249303 1682.4082210400152,897.2377634031941 1672.097806248908,883.3926259244104 1670.6385379822236,881.5800452735634 1688.7139493244244,858.3187581938469 1689.7016496622014,856.5010521245199 1713.4172348000352,846.703514219123 1713.9054051822527,844.6263443366984 1746.6809782311097,845.9866804141561 1747.8923747822187,846.2321839578576 1750.9242157777549,860.0702703473285 1750.7092576977807,861.2623816965856 1759.6192409866267,860.2567338015429 1760.4802383911806,860.7655948940442 1763.091775173299,856.2376735415087 1764.1007383022002,854.5554416035079 1753.3528343022112,845.8824866596619 1751.9742481333446,844.2842466619109 1706.1465253244164,821.6777895566552 1705.9502085955824,821.4877155263453 1687.063898479893,766.2667129699616 1686.025808240032,763.5365462644036 1674.1026253066734,752.96314921158 1674.0679640444937,752.9027539029262 1681.4138214667105,733.9149885049915 1682.0639385867175,732.9306813197686 1662.2042004178288,724.2761943884902 1661.163780008886,723.6439735171512 1650.9273480799525,704.6438365307181 1650.1863543733266,703.108558411222 1655.7068157421668,684.0126687146035 1655.727495991137,683.2966468650625 1636.6402088089158,683.2165417756546 1636.040190319974,683.0173977116715 1601.1575620532744,706.0162255872633 1600.9647405777137,705.8855648527165 1609.471895919974,701.441711239378 1610.1301686310685,698.634219808016 1604.0463889332964,676.091994718277 1604.0294952088511,675.411301975349 1626.7768951733374,683.6058790875027 1626.1742552444116,686.122682038847 1634.3668377866047,677.2484067482069 1634.541891724431,676.6585657686005 1607.067452897761,665.907787677635 1605.8709111733838,664.7983089536206 1622.2222888088795,647.2423788262308 1622.901533039963,646.8990787191792 1611.2431155466252,633.7897159504714 1611.1874827644565,633.5717272439865 1618.06439369775,626.3336632305068 1617.894873911027,625.7606956006853 1589.9156622488294,624.8569256544356 1588.5726111555482,624.5019520934216 1595.61583789331,602.5417161580185 1596.4777091110368,600.4953666537544 1564.3417674222505,590.8193807751882 1559.5745331466674,591.3405061241715 1591.7262034755909,567.761480972556 1592.22718978671,567.5770080183643 1666.743951955555,607.9625923703202 1667.7121371289027,608.3399759992385 1696.794975031145,591.8168601731081 1698.3687128444212,591.5845033928995 1718.8354600087982,604.8624710095824 1719.044883937669,604.8123315033513 1711.5985379821864,589.9915768853748 1711.4296007377338,589.8518930658825 1729.8638580888287,571.9796904179743 1730.1612458933155,571.2136040504915 1729.7214265155849,551.731456971414 1728.8481957243998,551.0562001241847 1747.3462414488672,494.683742315719 1748.5617157955198,492.82002811527445 1731.4131291288427,479.06899243858743 1732.015186515498,476.7267514135233 1738.692868008838,466.66947856444267 1739.453668151145,464.67158671664174 1755.6128068533503,478.49788031998423 1756.152240951174,478.45398301337946 1756.0980645244485,466.23675285830495 1756.2585549066785,465.9343819055716 1771.2747457688452,458.29612960186887 1771.9606892355728,457.9870281161052 1761.6907611288839,435.92322595892574 1762.3417520622966,435.1683135146518 1727.6490325600384,419.5681502642469 1726.8529886132815,419.1581824406526 1674.7405090400493,357.45490061221744 1673.1868689333564,356.55137070790033 1658.3011675288212,301.4482910836591 1658.2105822133376,300.0146456056168 1671.1937007199517,280.77025407888095 1673.2034713866665,278.6334783100533 1646.3937132354836,282.321488249559 1645.2554257333754,283.22577201351623 1624.935187937786,263.8019058516725 1624.1758441511552,262.95044991953864 1606.231213537721,264.645287855506 1605.291281662277,264.45293785920467 1593.893843084435,219.23076633385017 1592.9635231555217,217.50283979337064 1577.260223742203,211.48346804219864 1575.9069781600042,210.7116382806921 1574.1736237777873,195.82389685683984 1573.774873626629,194.0446556195161 1562.1211164711053,198.3494348320305 1561.3772100533602,198.1633057832728 1547.0329816443623,183.86722614427663 1545.7158536800193,184.4400022160621 1536.145850053384,164.16542068267108 1535.2845613778113,162.40431440665952 1538.8654484178182,126.86651176503028 1538.3988320977437,125.13561452236127 1498.4891557243895,96.49710868168722 1498.1646797066564,96.24403509576905 1494.836033448904,74.9031380346637 1494.2036838666313,72.52112856167469 1465.8650436532694,50.21029888801377 1465.2466750844392,49.744886096253595 1392.6278354755846,33.39242736288679 1389.676967848885,32.732630290418 1371.9315666755206,11.711444110005232 1371.6187415021482,9.0544762813729 1355.4188248443893,8.311560951325646 1354.5630703200363,8.052549999999883 1336.617565893313,42.57507052689425 1335.622875048873,43.68724882466586 1352.6121364177448,54.03723818108074 1353.4198312088624,54.5838742303672 1362.296027048818,114.28736046501535 1362.6237070488055,116.83716788897391 1372.8968391377489,125.09344111695054 1373.041018337804,125.44608232149722 1343.7956511555017,157.43806212730806 1343.3939882933405,157.84358454761195 1328.258085004381,154.03595071277914 1327.6231139822407,154.82682071693807 1332.5584116888708,195.95530986748736 1332.4247182488684,196.55272228908825 1291.959005324497,212.5746091460819 1291.3400542133963,213.18901831340145 1249.3110892355685,171.1971448014733 1249.044576168853,170.44177008359793 1232.1374532533587,168.71166510348075 1231.7474412355582,168.4295180924014 1212.2867444888466,138.74598470688898 1211.3491427822514,137.8572560345997 1195.081068684441,151.55207102545637 1194.766787155509,151.33943490373304 1196.348389288854,124.74259396162915 1195.7841971466328,124.10146644464794 1203.5564754755246,111.5890100777392 1202.2276966665881,110.35289069414239 1130.4314066755828,100.5888731829832 1128.3170696800585,99.19564468853741 1125.3315407910627,103.66964912726644 1123.7808133956055,104.93586870001263 1132.4280701422608,112.07627700266994 1132.5661326488257,112.31632062400558 1133.1390629244047,126.87010096238328 1132.5716668000455,128.33583450489778 1088.674780186709,181.0625304998607 1086.2345108177756,183.2195433348893 1074.0477275289372,210.86008454088687 1073.1139123466342,212.98899916749315 1049.594935208886,204.1094902296095 1047.8117734666225,202.29040006901005 1039.4476322399928,212.56070643696103 1039.143253928843,213.18049732209283 1042.7110337689296,236.73887736324787 1042.712198853354,237.02317869265198 1071.3756063555843,250.86740069473262 1072.8182721688422,251.56286215675163 1060.0926373244506,272.00961025877723 1059.1722206133195,273.257821606217 1103.3845538400124,307.9789253858976 1103.048135706667,308.9938280480924 1089.925789608947,317.4428002621057 1089.5902452888909,318.1797389157359 1042.0349935199843,313.43217895899534 1041.0033112443994,313.8266548517636 1028.224956328842,320.1242768461593 1026.8565646488928,320.2152725515548 1016.9772311021584,346.4231555844667 1016.0573969332977,346.7382407397158 998.5942374666697,317.0577443489815 998.2496637422369,316.5032447173503 945.3953166488568,321.28390894944414 943.6619622666399,320.906928330754 888.7159973244193,267.66906145131315 887.5488739821371,265.73302615513194 881.635196613242,272.2055404550406 880.623320773338,273.4165376267988 874.043215102261,263.2513070270429 873.5780551377461,263.1109668776985 848.6749576799116,266.2746514598616 845.0582442933005,266.10023749687343 777.560824631109,287.1082767324765 776.2029187110961,287.3015035223575 740.3908443288888,280.9549680868872 739.4960594755607,281.3961290692455 720.7384911910408,269.40780208036404 719.0476623910722,268.5137736782558 703.0708594043749,238.355443896005 701.3969243288516,236.8913418443185 629.730832524459,223.73550956082863 629.3341212710143,223.79380826987426 615.1460141778002,184.91993089798007 614.475216808823,183.96590341276124 573.0491830310561,202.54963030803583 570.735034053308,203.44930935020193 537.186427475513,238.0289925846514 533.022415671126,241.6042357752808 511.06203024890374,212.83920892535343 507.6294002044956,208.75760971921363 493.1462354755272,228.01907808715578 493.1750713155848,228.46662366038754 451.96341307552166,247.75640555631935 448.4407802577839,247.12236337524473 440.5286917955159,261.52193349644176 440.0148895554953,262.1173739891742 410.92943021338533,259.0060899106097 410.70019984895,259.10473340305134 425.176374071139,288.2098016526793 425.23200685330767,288.2559786042907 421.34645023101575,309.100966350386 421.55034000889964,309.6796915898808 414.7462468533554,304.48590297727014 413.5287336088727,305.33809439608694 379.059710320063,345.7696773916027 378.29395856892324,346.9116942523756 338.1026230311031,373.09801721768554 336.77064023991215,373.4654971774212 346.9744498043797,379.5113505215045 348.9128590489049,382.573874047353 355.92899757330406,417.08548094219395 356.7757226932804,418.032671213477 351.55963963547356,461.8019371691403 350.7857322932464,462.5813961091112 354.913626479894,484.4947074712031 354.90488834665257,484.6859689836051 384.5516271199808,522.9250723608197 385.14552891554877,523.1315270014816 380.8213179999507,552.225360367192 380.83879426666635,552.2817808114701 422.6854235288697,568.370419722261 423.9550743022478,569.2135284553874 440.8633623021665,597.1851735583982 440.9166649154863,597.556755738427 436.9271245066552,607.3533156539556 436.5939103555643,609.2702261152222 418.2857733955384,600.0714104356953 417.4582721688562,600.0338049872439 384.60492973330065,609.0038651994905 383.2324602576914,608.4039923749874 382.4693299466521,638.2555273476532 382.4987483288637,638.39697082874 362.25074576886936,668.0886869742894 361.052165146662,673.1185915827296 363.1825220533424,695.4029201462758 363.0159149777387,696.1211400052775 381.5139607022061,712.8149513139283 385.2323277066239,713.8150093947547 424.2192571999981,705.9432882689648 425.68901122673515,706.4484793815423 428.41705645327556,725.2471174519519 428.52832201772935,726.3406311967187 422.629790746701,729.5142063691524 422.8561084000171,731.2765879111025 438.4379477599646,738.4454292119258 439.01495583108726,739.8878489670819 432.584272239917,753.5120747005344 432.889524364356,755.4608162238505 470.2293157244344,764.1977301699585 471.09235202658556,764.743496171875 486.38321154667165,786.9022411955298 486.589431493288,787.1768854027391 485.3617237600042,798.7858807605585 485.2679344621497,799.6066368844836 421.3484891288458,779.4276718662363 418.93618178668066,779.4308030975294 396.7360802399703,796.9770755234417 396.3038339110567,797.3241669005724 376.64507280881617,797.6269768426205 376.0022374666073,797.7168804526805 367.79771280880186,806.2356398645566 367.7543134132643,806.4937111704853 380.057022604487,815.2308339727238 380.28363152882184,816.4943000957496 348.80974907553855,822.4295866407115 348.1229317955217,822.9555300093266 344.7328273332455,836.5853430891652 344.41068148436125,841.0989116570922 352.36616934228323,870.9211071596142 352.5444272621312,871.5309953134051 378.22288841775253,877.1012884815932 378.9522312800177,876.9143921858408 389.57343234666723,909.1936777108126 389.97684283552326,909.9693166095308 378.39182566220506,920.708169641242 376.7199294843954,923.6612399751098 394.91534452440783,944.2046791416137 394.99427899553075,944.6078581319666 298.88442427557993,933.1285895253309 297.7438066045065,934.0664066865352 299.877367493325,950.9155911014309 300.6681685599974,951.9203776714053 292.0599421422007,958.1894628454825 292.2786867465834,958.842463655666 323.73946199994634,972.9711208886943 324.4265705510984,975.00551559931 325.6889395466783,1028.236330103689 325.74282470226854,1028.3735016839705 310.21632685335453,1035.894573464851 310.12049865778636,1036.8726111427309 290.42503739553604,1024.1895066099019 290.00502445336997,1024.2556361554084 273.4733499999634,1040.204340495729 273.30033495996713,1040.3718862345918 281.1920344445166,1068.8805054250183 281.5832115466251,1069.2490578600914 254.4504337332687,1096.4094504411692 254.1772214311418,1096.5778467503037 235.5332488800409,1172.210500882276 235.1382852532911,1172.5226188135925 236.3418174844478,1188.1047338899002 236.25385360883183,1188.588727142465 254.9263707288551,1216.1477983086147 255.2170592978141,1216.4857469778867 249.09483181333735,1229.344375520806 249.02929581326998,1229.999250861561 176.20394498666383,1196.9936986175376 175.40993993785332,1196.8133243778498 147.33839533324453,1217.779054334132 145.60241951104354,1217.6893221739224 145.62513865784376,1174.0858809367414 142.43309855109646,1173.4044946977879 80.92625183109294,1203.9246008020486 79.23542303112436,1206.0537422958655 74.67732141327679,1214.4178680021791 74.23750203554619,1216.4259251904218 94.79832976891294,1227.3574173578886 96.3688636000511,1227.587764358766 72.31656905773661,1275.280474905368 70.8520579110841,1275.2505719977557 73.27747245328601,1285.3874251118173 73.239315937833,1286.0626631842238 55.17439035545203,1327.134489176074 53.92279839106004,1329.5921834718679 85.41619600888907,1340.218673879724 85.78640159112501,1340.2097502701577 77.67158843551397,1358.170906084451 77.20235067557178,1358.6688023555685 80.81935533331807,1368.8205548955953 80.84906498666487,1369.1096421194738 64.01505112005498,1385.422380173091 63.47998608891021,1386.3132179817544 42.544292435609805,1433.1563094677763 42.317683511042105,1433.7499244413116 17.53080322672713,1450.8561417134256 16.794178586663747,1451.8024593705554 22.35570918219264,1467.230164137763 23.136898302218015,1467.7469887143593 15.738612079970608,1485.1515415615645 12.752209377802046,1485.7637437138833 19.822524328810232,1496.2413667831347 20.021171226725983,1496.408565973608 8.052549999999883,1515.876372616192" stroke="#009edd" stroke-width="5.510566753606756px" fill="none" stroke-linejoin="round" vector-effect="non-scaling-stroke"></polygon><polygon points="1175.4703673155523,174.35587480440836 1190.5608323110278,191.0117942252905 1191.577077217727,191.71820978497954 1191.4101788711046,206.81118802665833 1191.4031883644416,207.563298178698 1204.6790343377284,211.10495337923157 1205.6571227288582,212.28803377107351 1192.5373980711224,231.0958233640772 1191.6222242399595,233.24203057800287 1225.114032951045,249.96836439843855 1225.9313396888097,250.6467896352765 1237.077702568938,240.36077701368004 1237.4313056977476,239.69173678462494 1265.5427544443878,262.61417099551863 1265.8689780888158,262.7787235468054 1289.0958103021617,312.4639169445504 1289.2793111022106,313.25645765124455 1288.406662853296,321.68464625770093 1288.113061573334,323.8774822004848 1276.505616524351,319.4675825831723 1276.092885359983,319.5724744949034 1284.1322592977444,336.18286600334204 1282.5969692711728,339.1200452228436 1274.2686543911473,329.40205865327835 1272.9130786399833,329.2568301873757 1267.9943833866632,338.5028508968894 1267.1893100355296,337.5405262897034 1273.4638723111489,350.83699576624304 1274.3962311377759,351.64867016251765 1282.0726812710996,341.1513508258863 1282.5194911554931,340.4247981782314 1288.7771597066671,355.12435955598585 1290.5565349244057,355.4107485303316 1290.4213851288437,344.13866263532645 1289.8414643466017,340.6847617706294 1301.2959920622884,342.09617942051364 1301.7588218577216,341.38755835567235 1305.0909633688639,315.61792510256737 1307.8842533244529,315.48165280433705 1327.192615280022,323.9142384627262 1327.420680560033,324.224873456616 1336.5788268354731,359.27270546500904 1336.8022317777863,360.4706736614239 1357.5806390311113,363.8960288933954 1357.978515368864,363.93636377991743 1349.9487533777497,372.45178877239914 1349.9283644000311,374.3281763738264 1371.6691314044651,373.6581998373508 1372.6361514933883,374.2573695856622 1368.9346782132993,368.37808579180955 1366.07293954664,365.92710530837167 1379.9744358666717,351.20675393896045 1380.8826191911717,350.41031647075533 1385.701699724515,358.7066598572778 1386.5219191732826,358.4767454288444 1382.9818100888292,344.2776063815468 1383.113464631118,343.59902221951734 1432.463820257784,316.40014438893513 1432.5911057332773,316.34097374379735 1438.042244577758,299.03780675432745 1438.4069160088907,298.12551872528957 1454.2642978400468,287.75341145284574 1454.35430061326,287.6659888602803 1456.8135026044688,270.65333808735113 1456.7599087200138,270.1762869744339 1442.508304524446,270.41570937305323 1440.4694067466548,270.48385952119816 1448.6983981777225,207.106740266237 1448.969862853271,205.69400593531418 1488.336318604393,202.14867544905383 1488.7196313866657,202.11279578394124 1519.0747415021538,181.1773564211103 1519.0202738044095,180.80417195746077 1528.1009419644029,183.6922981501334 1529.822645502259,184.67996668825026 1514.4720754043442,209.16797061471834 1514.1650756533268,209.45320462107293 1514.1050738043627,233.34516996992852 1513.9553604533207,233.60167294325174 1533.2657613066035,269.2880903640539 1533.3298409511112,269.34592861714873 1514.0820633866601,292.1428774826122 1513.725547546615,292.467903394288 1520.0132170221545,299.84160333566933 1521.3347140532928,301.1219335864075 1519.985837537773,314.7460498916694 1519.578640524392,316.0455685419506 1568.6444242755892,359.6249706410813 1569.3810489155362,361.3374374470218 1579.1843607021506,341.3933851037068 1581.2660753333253,341.1168385089618 1673.1935681688842,355.58778065161414 1673.2710462844475,355.55685606352154 1658.3011675288212,301.4482910836591 1658.2105822133376,300.0146456056168 1671.1937007199517,280.77025407888095 1673.2034713866665,278.6334783100533 1646.3937132354836,282.321488249559 1645.2554257333754,283.22577201351623 1624.935187937786,263.8019058516725 1624.1758441511552,262.95044991953864 1606.231213537721,264.645287855506 1605.291281662277,264.45293785920467 1593.893843084435,219.23076633385017 1592.9635231555217,217.50283979337064 1577.260223742203,211.48346804219864 1575.9069781600042,210.7116382806921 1574.1736237777873,195.82389685683984 1573.774873626629,194.0446556195161 1562.1211164711053,198.3494348320305 1561.3772100533602,198.1633057832728 1547.0329816443623,183.86722614427663 1545.7158536800193,184.4400022160621 1536.145850053384,164.16542068267108 1535.2845613778113,162.40431440665952 1538.8654484178182,126.86651176503028 1538.3988320977437,125.13561452236127 1505.5932581244047,98.51046916886798 1505.1432442577566,98.10752932451533 1469.7905044177091,96.93370480245312 1469.8207966133264,96.64697836273217 1433.8234738044916,114.81545076330758 1433.2814182666839,115.08734722666077 1402.7792162400215,140.2116389195212 1401.6030634933627,141.6117849024954 1381.575844435581,176.77625117926027 1381.2583589243945,177.08754301581166 1334.807607208822,150.79662867976685 1332.2881120977468,151.66780958729896 1326.0709302311075,165.79822182187445 1326.0508325244077,166.12164060594614 1332.5584116888708,195.95530986748736 1332.4247182488684,196.55272228908825 1291.959005324497,212.5746091460819 1291.3400542133963,213.18901831340145 1249.3110892355685,171.1971448014733 1249.044576168853,170.44177008359793 1232.1374532533587,168.71166510348075 1231.7474412355582,168.4295180924014 1212.2867444888466,138.74598470688898 1211.3491427822514,137.8572560345997 1197.6768768266552,153.0589105494796 1197.1074418043495,153.7569249942676 1187.3341309422171,147.73356144838135 1186.6799360266664,148.03412793399866 1185.0089136622623,165.7399077046207 1185.0712456799588,166.2929940542449 1175.4703673155523,174.35587480440836" stroke="#009edd" stroke-width="5.770332857341554px" fill="none" stroke-linejoin="round" vector-effect="non-scaling-stroke"></polygon><polygon points="497.87851721779543,1550.5097932517306 499.40943817780453,1577.9737181835003 499.4374002044565,1583.5003215238462 527.4291365244203,1595.890551925731 528.341397644464,1596.0719367685738 522.5346167733437,1606.5884372304204 521.8917814311349,1607.3687542322218 537.4409984266163,1615.220345414396 539.7697109599608,1616.183337038477 521.2326349066348,1657.0159269805076 520.9407812533677,1657.881163325837 531.9505379821417,1662.927268122126 532.840662497772,1663.2097325220016 539.7161170755057,1714.493747441949 539.374164791057,1715.405973049324 552.79185979555,1728.7597579930803 552.988176524384,1728.8403744327147 585.5653939466933,1727.871639023338 585.6804460355556,1727.901480591368 583.0444424799421,1740.0880832261532 583.0339567200058,1740.236392020342 621.6355345332772,1746.2604060908557 621.8822411644283,1744.1836852342017 638.6396507288805,1764.5443256865615 640.1108611110608,1765.6024094905947 659.6764154577172,1747.272705781717 659.787098480017,1747.3052168694335 655.526093395521,1717.7328439403568 655.6860012355969,1717.2838631068366 683.6620089155399,1693.0259587443793 684.4134883822185,1692.7938703496252 680.798813893321,1687.212984119869 680.3939470489054,1686.8566008923003 690.3964882755895,1679.4111781081078 690.8255306222486,1679.3136148057888 691.2618547465895,1657.0337485666746 688.1557396177445,1655.7430164648463 712.0749232622106,1626.4511241533105 712.125021893276,1626.3611126467363 705.8198761511371,1620.3405071275552 705.7362813422001,1620.2647527728473 715.7959117066125,1600.5240634045108 715.9986363999556,1600.1831379666469 670.8198656267264,1551.2314692978757 671.7271751377043,1549.686482363591 645.5777285955623,1541.516949934979 644.789548968874,1541.2945090405187 633.2380279733111,1548.7802573495205 632.7918006310715,1548.5970505609653 613.9328699999965,1518.6591944683237 613.5312071377189,1518.3159133133372 593.0825187822115,1515.8487314667796 592.9703794043521,1515.7733870256702 574.1000892000516,1548.627807915654 572.5846056089281,1549.7248174272022 542.6463044533516,1519.8316962002204 542.2737687022668,1519.175898471592 536.8089401155953,1529.0469860300432 536.7233064088282,1529.2654271020797 552.3549531288222,1546.1212923135386 553.8197555467264,1548.6331570204125 545.5447432799042,1556.6125394946207 545.0827872977602,1557.1728372162684 497.87851721779543,1550.5097932517306" stroke="#009edd" stroke-width="6.190815125373306px" fill="none" stroke-linejoin="round" vector-effect="non-scaling-stroke"></polygon><polygon points="538.6337536265851,1431.920461293928 579.8786167733847,1465.1459084645971 583.2023114221879,1466.4118932400957 581.0212733421718,1488.8639663780118 581.3096317421655,1489.379402593338 607.0690662666234,1491.3871845941535 608.9527165421528,1491.315398788523 617.9430906576813,1464.00254717304 618.184263137729,1463.2194928818858 633.8010550311078,1460.4127822634541 634.3527225154462,1459.4892444684879 625.6737172177304,1413.0380157488175 625.6783775555446,1412.015705661593 655.3746324177841,1390.522455978767 656.6748666577982,1388.5507796878587 628.785657768814,1381.2835281325165 628.5182708888092,1380.931557067764 612.3183542311667,1391.8058204109325 610.3645076177559,1392.379919494189 563.7022930755988,1395.8623983488428 561.8649549066099,1395.200878804469 543.4269110311066,1413.3069735046952 542.7266952799177,1414.3966281846874 538.6337536265851,1431.920461293928" stroke="#009edd" stroke-width="5.7117930747034px" fill="none" stroke-linejoin="round" vector-effect="non-scaling-stroke"></polygon><polygon points="490.28799206214126,1177.3472181125903 491.85677826658457,1189.1807691026838 491.589100115561,1190.7345368120364 510.5249263199289,1186.1357097818177 510.7323113510861,1186.063824441611 534.8781039200035,1201.0217204983123 535.9578459288236,1201.9905420797654 552.0255255022562,1192.3333880579808 553.8212119021696,1193.1745550666014 566.8733616622408,1218.5415530063688 567.9921339999196,1221.0218875679197 586.9364070666265,1215.9928863938908 588.434705662286,1215.8250278271512 587.0488377155048,1206.219822503022 586.9495142666633,1205.7907817116716 597.1396340888236,1196.2811302155965 597.7944115466448,1195.7190210584445 632.4253815732441,1196.425787145366 635.5023695911291,1195.7359870429277 774.5723830311103,1230.2090605452318 775.5577532000384,1230.4519038443464 798.6861357777157,1221.1187611190612 799.7891794754901,1221.1392965207701 838.5594032621952,1232.5638257302703 838.7539723644509,1233.847217955255 861.554674942257,1214.4308146278267 864.8667187466995,1210.2726764757895 864.0948503023023,1192.8521973888633 863.0713236178049,1190.390297842539 845.3203882933371,1165.8099763805872 845.1814519733666,1165.575992470352 849.8988788889033,1148.7892307318175 849.6635318310941,1148.5003007457485 872.9291031021635,1136.485925770517 873.2678514044742,1136.4077719078991 873.5736860710672,1120.7826944569601 873.4169822133622,1120.3650994262202 901.5310523999865,1087.6732126946804 901.8377608799851,1087.0335481640427 890.47207085332,1068.8143892864823 889.0987275644216,1067.6622677116898 865.401492506709,1056.701845652285 858.488755226695,1054.6199560250166 828.825705271192,1068.2037075278708 825.6860939644753,1069.5188825243745 798.6223474043431,1067.2057060396542 798.4210790666762,1067.332131724666 792.8534317777735,1038.6906148117046 794.2308528622157,1036.5151743957317 764.3665345689292,991.1892778741671 763.6642799199103,989.7257137214542 766.2000862132768,978.474937528757 766.6364103377341,977.4045755265756 789.7458602933689,963.1774281099565 790.138493751037,961.9675440556962 790.5526812710809,902.3227835228677 790.0170336977822,900.3275060992232 779.3827254310959,907.4805566312057 778.1998734489093,908.0237319043731 767.6340138932933,889.0618740211717 766.3014485600647,887.6803435884426 737.5538637067434,886.6426252170709 737.197056595563,886.7101374185654 706.6016478133165,898.1533797121733 706.0330866044164,898.3657413487449 702.2585042755595,918.7702795109722 701.7132447556137,919.9441914644335 654.766458337755,914.9266351545007 651.504804435513,912.477271507239 640.5920409866153,940.6077713491172 638.4558586578128,941.2746810249296 688.0339882933545,965.0863228912126 688.3299197421652,965.2744851186067 684.4717426044876,979.8045031199358 684.8681625866807,980.1691825638768 698.1958548177276,970.7217341903374 698.3470245244457,970.5563700644775 712.7422253777981,982.2785910175658 712.9726208266579,982.3505429408174 717.5618884532955,1000.8199575531539 717.7762639911157,1002.0635898355172 725.806608524384,1004.6446741465838 728.5066917243889,1006.8293667632165 718.667553591054,1023.1917523389925 717.5851901422498,1024.2913818474403 726.6964417688791,1034.7905339336498 727.7123954044432,1037.603567482765 726.5071155465916,1049.8069628354638 726.7849881866491,1053.0232316237884 705.5559845244056,1049.2292893548506 704.0684629600505,1049.3391948670974 690.383672346688,1052.1703598150993 689.3173288089233,1052.1314912987068 690.8628133244124,1059.3716392389974 687.2603722222625,1060.85797113306 682.2892481689119,1035.3155230699117 682.4552727022451,1032.4381204255983 669.1500083466303,1026.1001062836508 668.4407631910649,1025.9665078280736 631.9905138043464,1039.6762354921443 629.5458753688504,1040.4670521574803 601.1119895021907,993.9590743201329 599.5481549066967,993.0715634755102 560.7368618933028,1007.0720097471271 560.2064571999722,1006.9964910570775 546.7756549955589,1015.7609546343806 544.4690790666277,1018.5402721442292 522.6537466577497,1082.6210630052733 521.2145760977651,1084.4744247533158 538.363454035461,1101.831121556555 538.7910400266769,1102.1790723269 510.3912328799265,1118.3521462781132 509.69247348441377,1118.8858687306997 490.28799206214126,1177.3472181125903" stroke="#009edd" stroke-width="4.8541819273083515px" fill="none" stroke-linejoin="round" vector-effect="non-scaling-stroke"></polygon></svg>