<svg width="10816.663868871168" height="3454.0945701538003" xmlns="http://www.w3.org/2000/svg"><polygon points="10552.448891164502,3244.482009083731 10564.780144924414,3266.684320212924 10565.201322951121,3267.3573839797755 10598.583322453429,3286.0525178709067 10598.647110826685,3286.198705193121 10595.072631751187,3297.281953333877 10595.055155484471,3297.549874119344 10598.55827313778,3303.7192022211384 10599.026928355568,3304.9356688503176 10597.67280896008,3324.535775919794 10597.716208355618,3324.5330608440563 10587.690656711231,3352.397007604013 10587.64114062232,3352.969814632088 10591.138724124525,3376.67076179001 10591.285816035583,3377.473325803585 10626.633312995662,3381.646249154466 10629.580976640107,3381.9647343876422 10630.576541297836,3376.862581191468 10645.00407324452,3376.211570792133 10645.828079217812,3367.7758565632394 10645.654190364527,3366.9239425809355 10653.521131804446,3365.0178691339097 10653.828422826715,3365.076684846601 10672.6535660089,3382.2235032971366 10673.515145955607,3382.7523499913514 10687.917628586758,3383.474818552437 10688.141033528955,3383.6259168718825 10694.21374492452,3396.9253256321535 10694.556571022258,3397.0877236868255 10719.083637475618,3394.7557845910196 10719.660354275606,3395.1384866841836 10721.816925582243,3399.162698774133 10721.765661866637,3399.4743730739574 10710.949891697848,3410.7739620247157 10710.922512213467,3411.1539220170234 10720.765145600075,3412.7823144873837 10721.478177280049,3413.2853043707437 10732.60939406231,3429.459519911383 10733.092321564443,3429.6788828627905 10746.894203164498,3409.9534271168523 10748.518330880092,3409.709618189372 10753.380228266702,3412.0242088384693 10753.407899022335,3412.1549324946245 10750.317803804413,3424.9039573806804 10750.446254364564,3425.0333164058393 10767.660959573346,3428.4662778907223 10767.819411057862,3428.5535712003475 10765.21282588446,3435.863018144213 10765.34098517336,3436.1931835322175 10772.563052373356,3439.8308493754594 10772.784709688858,3439.9258267834084 10783.686696106684,3434.296308724268 10784.829643946723,3434.6065759751946 10790.834197902353,3448.030413274886 10792.487161457771,3448.6830183852 10806.31234474678,3442.0858732382767 10806.905664000078,3441.6485288758995 10811.663286328898,3429.955686931964 10811.663868871168,3420.5640533166006 10807.968512284453,3417.9917317470536 10807.771904284484,3417.91348058905 10809.202045440092,3403.3456112201675 10809.304864142323,3402.688799304946 10797.13147932454,3375.5533199413912 10796.699524266762,3374.5349499345175 10797.951116231154,3365.6367906079395 10797.789752035635,3364.4437364593614 10790.146798080066,3354.231704111793 10789.880285013467,3353.4240775877843 10789.569790008944,3296.794988360547 10789.075502933352,3295.9269570214674 10773.187246364425,3290.120833725843 10768.114759964403,3289.293961124029 10725.96783018671,3296.0296908377786 10718.557893119985,3296.8388876639074 10694.363167004543,3311.2419077166123 10693.727613440016,3311.0785406434443 10685.244924871135,3297.238506688969 10685.320946631255,3296.301233731676 10705.809830400045,3253.5430920067593 10705.80953912891,3253.487414823263 10673.27368220454,3245.7060490801814 10671.668195840088,3245.4231262449175 10673.057559040026,3225.655190889258 10673.081152000115,3225.416608436266 10665.354311964475,3224.5962811973877 10665.980253582238,3217.6623101980076 10666.772802275605,3209.0651656506234 10604.610886826762,3200.137612305698 10599.881517795613,3200.2838572501205 10599.641219128971,3192.1324761983124 10599.386648177868,3183.9726398235653 10593.363744142232,3182.8016843536752 10592.136327680084,3182.630070475163 10575.2760994134,3218.3581619815086 10572.790391751216,3222.507420747308 10552.448891164502,3244.482009083731" stroke="red" stroke-width="3.5673143307956376" fill="none" stroke-linejoin="round" vector-effect="non-scaling-stroke"></polygon><polygon points="5,158.0210285297362 35.64842012443114,180.74759824597277 36.376306631136686,181.40413456619717 32.79891484451946,191.67935651214793 32.052386986790225,193.55887818400515 58.63495367113501,190.4324542597169 65.53778773336671,192.02597202255856 69.93510769784916,185.42365431261715 73.06423324451316,185.81802691880148 106.81439943122678,207.05753160477616 106.94459761783946,212.304535787669 112.51865287113469,204.02173946041148 112.83002168894745,203.76374336192384 129.4575243378058,200.21098637708928 130.41318485338707,199.88871505204588 127.94670108449645,209.42902802693425 126.51219086232595,214.77191493625287 135.88383886229713,211.2969188920688 136.23918961780146,209.42351935460465 144.0146719289478,214.70489440544043 144.57099975121673,214.81827844202053 159.54320867557544,168.63483360642567 159.63583288888913,168.06641411408782 164.49802154675126,164.64806016010698 165.45863367116544,162.54926961829187 166.62459192890674,128.20949716842733 166.939747271128,126.67796383972745 176.51178979559336,129.47145409637596 176.9192780801095,129.11233901127707 181.0162975289859,113.08013489388395 181.97312312887516,109.8188983022701 176.8589849601267,98.781031078659 176.77509888005443,97.37880997604225 178.66515712009277,36.902858542161994 178.51107470225543,35.873748408281244 169.29263530671597,39.878980677051004 168.63552768004593,39.34743485937361 164.1648073955439,32.83554776100209 160.41556565335486,31.657561588450335 163.43721215997357,22.380006578052416 165.3080465067178,17.535928776487708 141.75906844448764,5.762753710092511 141.16691427561454,5 106.57555712002795,26.061120559461415 105.14599850669038,26.310140231158584 69.27800007117912,30.57880729995668 68.37010801781435,30.755690293502994 53.542952106683515,24.6363733332837 53.077792142285034,23.724364769353997 22.30965959117748,24.62488710321486 21.228461226681247,24.59456345322542 7.1600665600271896,42.205913897254504 6.3646051556570455,43.71783277497161 8.814486471237615,61.77183411014266 9.476545706624165,63.47471247171052 6.019157617818564,66.58873556012986 5.692642702255398,67.4210940564517 11.148733155685477,70.14782655925956 11.638651164481416,70.39174249500502 22.025087715592235,98.41497554763919 22.392089315573685,99.16729477385525 25.286450346698985,121.7558590117842 25.20169045345392,123.37743813288398 5,158.0210285297362" stroke="red" stroke-width="3.030785973941782" fill="none" stroke-linejoin="round" vector-effect="non-scaling-stroke"></polygon></svg>