<svg width="5505.815463822335" height="1875.8229517304571" xmlns="http://www.w3.org/2000/svg"><polygon points="5028.65683712007,358.38630742410896 5033.25746432005,375.0309466032777 5033.862143146689,376.6345609672717 5057.483065173379,367.11587271565804 5058.284351999988,367.66358977154596 5062.779247786733,377.4312053126632 5063.086247537867,377.83356343524065 5061.097157120123,389.90172140853247 5061.4961985423,390.4511757303262 5071.545634417911,393.74652719148435 5072.709845048841,394.4623748662416 5080.026575360098,411.49581072770525 5080.552902257768,412.13939375197515 5092.712888604496,413.4418026836356 5092.8567765334155,413.5992214215221 5092.964255573344,426.0802394715138 5092.973576248856,426.3120935661718 5111.908819911187,440.27804817212746 5112.762535537826,440.81616562395357 5119.272444871254,439.31885054236045 5120.360633742297,439.33499415573897 5132.226436266676,435.3896391245071 5133.019276231178,435.2465861605597 5127.011809564545,425.0729942750186 5129.4814973155735,423.2046901889844 5142.667631786666,423.8401665033307 5143.552804693347,422.68805600731866 5139.659092480084,417.0861744834692 5138.874408106669,414.4535861060722 5142.943465528893,413.1825772796292 5144.295254755532,412.84935109416256 5142.853754026699,407.5176633174415 5143.083275662269,407.2709888940444 5160.692944497801,408.3128500711755 5161.045673813438,408.11461427470203 5192.637229795684,374.6227519849781 5193.102681031101,374.16611139132874 5187.338134471094,367.2544842865318 5187.311628800002,365.8078058126848 5197.879818524467,354.4556467026705 5198.338570524473,354.1927627500845 5200.588348586694,335.16155036806595 5201.40827676456,333.7837523103226 5240.079468373326,315.199457444367 5241.710295324447,314.8041634639376 5242.991888213321,305.62650231685257 5242.922274417826,305.24196007533465 5258.394304568996,298.98823043581797 5260.739910826669,297.95527322078124 5266.991462684469,284.5304255686351 5268.975310222246,282.3319875377929 5305.233029404539,296.74282114522066 5306.542001777794,297.10494206356816 5321.134393173386,346.1046655285172 5321.112547840108,346.7650394051452 5331.781808639993,333.6684493777575 5332.352700017858,332.623541830224 5342.439709866769,345.57169929286465 5342.811954346718,345.8090219600126 5368.836445582332,346.3168646879494 5369.663946808898,346.32449129235465 5377.5454518044135,363.4285036363872 5377.972746524494,363.9349598242552 5402.170385351172,371.7258940767497 5403.13769671123,372.1161512421677 5405.277374293422,386.4721982815536 5405.288733866648,388.7368736966746 5387.801981440047,414.0939012216404 5386.234651591163,417.17273094161646 5380.549330773414,416.27218332357006 5379.35278904892,416.2443775116117 5378.646747875609,425.30484943377087 5378.622281102347,425.4510481119505 5380.274953386746,425.6107005450176 5381.823933155625,425.6905267180409 5378.979379484546,433.8209842877113 5378.918212551158,434.4514969846932 5381.381201066659,434.4784036029014 5382.640074808965,434.6743733724579 5382.200837973389,443.75381522014504 5382.369775217841,444.2358711985871 5396.310884409002,452.7418550483417 5396.423897600034,452.76158492453396 5405.773117724573,468.5085993852699 5406.620425386704,469.09372679213993 5419.370235733455,474.40598456317093 5420.020352853346,474.5781555203721 5434.099233280052,468.3982993316604 5435.149265635642,467.8544206141378 5441.267706595594,454.94889974431135 5441.626843875623,453.9211604403099 5484.019315200043,436.8708372171968 5484.357480960083,436.7762166267494 5490.800106666749,422.0951809078688 5490.677190257818,421.7126365934964 5499.8665025422815,416.44978165230714 5500.815463822335,415.5564067842788 5476.796665457892,398.53180791356135 5475.472255715635,396.7332471187692 5464.894454044523,374.91028255899437 5463.588685653405,374.24461057875305 5464.342495288933,361.1191562641179 5463.703737742268,359.67468032334 5425.680041813408,345.08135126775596 5424.960019626655,344.7323197093792 5409.0752583112335,325.8909696683404 5407.650651306729,324.86980446765665 5424.642534115585,312.15778428385966 5428.117981013376,313.63981440023053 5430.876027164515,297.91982412489597 5431.414296177798,297.4446261981502 5453.5476966400165,286.9460343600949 5454.880261973478,285.60697455191985 5448.147821511142,277.8282396066352 5446.762536106748,276.6946591514861 5444.444018062204,257.8164972868399 5442.430752142216,257.14822591125267 5468.101931520039,233.25158594653476 5469.154294044478,232.98451701627346 5469.296143075568,227.58965499594342 5469.631687395624,226.21701645932626 5461.970965902321,220.7658779071062 5460.142657137825,218.65927102416754 5456.6797348978,200.07419842598028 5456.314772195532,199.1763506392599 5468.772146346746,186.54458942566998 5469.96461027558,185.95107583678328 5469.8102365867235,178.51900039846078 5469.700427377829,177.52274014044087 5417.145215715631,193.20197786350036 5416.477039786754,193.72498889348935 5371.0932141511,167.96936669829302 5370.893402168993,166.69109214667697 5338.145208604517,163.3685312360758 5337.572569600074,162.95949356810888 5311.749929244514,123.65464349137619 5311.670412231237,123.59177235985408 5317.894002062269,101.22197758499533 5318.02856931556,100.05604495562147 5309.504520248971,96.15264062868664 5309.325971057755,95.74886718951166 5313.8383431111,87.44911469996441 5314.661766542238,87.23576663038693 5313.645812906674,74.29031557787675 5313.542994204443,74.05269892624347 5294.245991822332,66.78662569692824 5293.89646648895,66.7637167024659 5273.834003626718,72.23665238171816 5272.6540643555345,71.70346939901356 5256.529004373355,28.814151145750657 5256.669397049001,27.867529273265973 5249.418494008947,27.741732038848568 5247.713101653382,27.583586841938086 5238.880305208964,5.1541175921447575 5238.849430471077,5.067398377228528 5233.210713031236,9.588434196368326 5232.682929777773,10.950747516355477 5229.138742897776,33.43443387752632 5229.247678293381,34.61195243895054 5239.897715200088,44.149574740673415 5240.296756622265,44.34499507001601 5241.243387733353,59.208559080725536 5240.8918235022575,59.79163480119314 5254.742347377818,67.23986393946689 5255.1443015111145,67.38315710367169 5255.704707128927,74.6060892927926 5256.116855751141,74.79923657560721 5252.185860835598,94.81600846903166 5252.046633244492,95.2094534591306 5242.842757404433,104.93711138772778 5242.331867875648,105.86768146557733 5244.661745493417,151.57976874383166 5244.654754986754,151.76386779232416 5242.210116551258,168.35145574831404 5241.613010773319,170.79124251537723 5232.143495680066,185.6031378498301 5232.111455857754,185.6619506322313 5248.591575324535,200.55050518468488 5249.199458133429,201.05509293166688 5244.837673244532,220.02163257065695 5244.844081208925,220.1217332664528 5216.171935573337,229.71323287673295 5213.1802899912,231.39735780807678 5185.86779790232,229.83128363324795 5184.77757013333,229.90040838124696 5174.9055183645105,234.89394050487317 5173.893933795625,235.00660225533647 5166.297000675579,247.56196536670905 5165.933203057852,247.85998548788484 5119.519442773424,255.52802963834256 5118.354649599991,255.1707769939676 5111.637355235638,246.4901667649392 5111.611723377835,246.27068977203453 5118.640677831136,237.1830722845625 5119.05282645335,236.61797315033618 5118.355814684532,212.2630163198919 5118.208722773357,211.9604588416405 5123.946472391253,202.56301327468827 5126.38819811563,197.92250005435199 5121.173571413383,191.7070124190068 5119.500801422284,190.43156988034025 5121.394354915596,187.30062105087563 5125.635553564527,185.05541499709943 5124.273861119989,173.96193698456045 5124.1014286222635,171.35022554011084 5120.446267448948,164.79319764021784 5119.806053546723,162.9949644828448 5098.977256391197,159.51519552257378 5093.894575502258,157.75418688415084 5095.618900480098,148.83353141747648 5095.708903253428,147.99743990815477 5083.91009308456,140.1428735810332 5083.866693689022,140.0728224440245 5091.794802062213,136.09962901496328 5093.897488213377,136.81721606676 5095.766866204562,126.843982526334 5095.4304480711,125.4145787799498 5081.5012809955515,132.8071406702511 5080.489696426783,132.90817930479534 5076.90793557337,119.86527837486938 5076.722978417762,118.92084594222251 5079.777829831117,116.15982850990258 5079.707633493352,115.80504333262797 5065.28039281792,120.79892869258765 5062.802549475688,121.76356178591959 5057.500832711114,127.21985623362707 5056.8780950756045,127.8220611527795 5063.189066240098,135.74487610062351 5062.731770595652,136.76826933998382 5056.043020800105,132.28712776105385 5055.876704995637,132.12277109292336 5033.793111893465,147.63597078737803 5033.068720640033,148.12361718760803 5038.488693475607,153.7673942722613 5038.806470257812,154.2658034398919 5032.754439111217,157.9836306773359 5032.713952426799,158.48113224562258 5039.968641991145,194.64395890105516 5037.41594197345,196.09176656237105 5052.084646400064,204.50816582306288 5053.270702364505,204.38516338041518 5055.432807822246,211.3926013202872 5056.37681749335,215.8222998875426 5033.2726104178,222.88323758816114 5032.0617964089615,222.83790107816458 5033.828938240069,245.79134048416745 5033.813792142202,246.40713357256027 5046.885457066703,272.7342618171242 5047.703346346738,273.80099570407765 5041.240622933372,290.26492886489723 5041.141299484414,290.4991701982217 5045.5016280177515,300.59958013368305 5045.713090844452,300.635926230927 5052.513688746723,291.45363373530563 5053.326917688944,291.2292656232021 5062.166704640025,294.93579741881695 5063.19838691561,294.85726985218935 5098.351897315588,287.25836080737645 5098.590157084516,287.41272888722597 5100.132146346732,291.74441446724813 5099.743881955626,292.44085070246365 5092.670945564401,297.69366773287766 5093.008528782288,298.7445750236511 5105.606004337897,299.2413086989545 5106.879150364548,300.0727854053257 5109.120772835566,311.46320541604655 5109.056401920039,312.15195126633625 5093.469319680007,321.7627589746844 5092.820367644541,323.41566778731067 5108.6864876089385,341.5708221932873 5108.673380408902,342.0055476265843 5105.3948327822145,348.8246573919896 5104.430142862257,349.5985232355306 5083.695426275604,355.1698281374993 5083.067445760011,355.21513730846345 5059.112144497805,343.6726600858383 5058.286973440088,343.59190681402106 5028.65683712007,358.38630742410896" stroke="red" stroke-width="3.9433999264053226" fill="none" stroke-linejoin="round" vector-effect="non-scaling-stroke"></polygon><polygon points="5228.3619228444295,223.77560183778405 5234.301523342263,239.98610405402724 5234.685709937825,241.11628351197578 5232.135922631132,251.75620226206956 5231.077443413436,254.31489423417952 5277.011480177869,269.3572093123803 5278.700270080008,269.39894595951773 5277.433532017865,274.5621118735871 5276.829727004515,276.0502299629152 5271.065762986662,275.29001649457496 5269.148033991223,275.1271132658003 5271.701025280054,280.4929832604248 5268.975310222246,282.3319875377929 5305.233029404539,296.74282114522066 5306.542001777794,297.10494206356816 5312.418687715544,325.8254644861445 5312.754232035601,326.90225951955654 5341.406862506759,321.46842862921767 5342.022027093335,321.35222187498584 5380.516417137813,326.1018423822243 5382.622016000096,326.2144573016558 5399.002520746668,316.8259433429921 5399.109125973424,316.68191569892224 5383.640882346779,302.9270643593045 5382.0525809779065,300.80464383831713 5371.52487793786,278.3250206441735 5371.069912462262,277.0245020496659 5378.3677101511275,255.09582567436155 5378.6283977956045,254.80185468267882 5353.471020657918,244.0619939440512 5353.348104248871,244.04808012209833 5358.092036835616,235.91776886762818 5359.7540297955275,235.94918833847623 5360.290551182232,212.69081572152209 5359.391105991206,209.40306834952207 5371.14651676442,206.44432292156853 5376.63581212447,204.7820031302981 5364.639811413363,206.15342909039464 5364.481359928963,204.96650643466273 5369.8349229511805,201.29436767636798 5371.981882311171,200.51414249971276 5366.685117155663,193.89154407544993 5366.607930311235,193.73262080486165 5371.09729194676,189.64412294817157 5371.709543822217,188.28291953064036 5373.301340444479,171.3964706582483 5373.286194346729,168.69493123551365 5338.145208604517,163.3685312360758 5337.572569600074,162.95949356810888 5311.670412231237,123.59177235985408 5311.56875861343,123.51228526048362 5302.379446328967,122.23285335313994 5300.5173501155805,122.0060666447389 5280.804412586731,139.04225986095844 5280.812568177818,140.14556785509922 5262.023251342238,142.55648081889376 5261.283713991172,142.65706592064817 5260.673209742294,137.15714853757527 5260.462038186728,133.94146506860852 5254.6989479822805,135.88004151917994 5254.347966293339,135.9869164424017 5252.488491520053,129.2083386738086 5252.217609386658,128.73681669100188 5255.9499574045185,124.36643325915793 5256.708718648879,123.81271939969156 5243.937062968966,122.98147236736258 5243.90094535111,122.9877594987629 5242.73061802669,165.46848538448103 5242.794115128927,165.86584455467528 5232.143495680066,185.6031378498301 5232.111455857754,185.6619506322313 5248.591575324535,200.55050518468488 5249.199458133429,201.05509293166688 5246.949971342343,205.02890532731544 5248.597983288928,205.98643430927768 5243.269469582243,220.48398069432005 5241.924379591248,224.48841332824668 5228.3619228444295,223.77560183778405" stroke="red" stroke-width="3.7567706495134052" fill="none" stroke-linejoin="round" vector-effect="non-scaling-stroke"></polygon><polygon points="5,1829.0188950833399 10.358514631167054,1838.8234334277804 10.348028871114366,1839.1946097223554 14.784379164455459,1837.6648959569866 16.28355157340411,1838.9655766444048 19.45782414218411,1850.6998738609254 19.53734115557745,1850.864733281429 88.67636480007786,1852.6759509622352 92.19200711115263,1853.142899627739 110.317808355554,1869.6507709880243 112.87575125333387,1870.8229517304571 115.38679950230289,1854.3401194084436 115.4468013511505,1851.7340305118123 104.84249400894623,1825.3858070177957 104.01528405339923,1821.2098875896772 107.27052999113221,1803.3114939231891 107.95734727114905,1801.0189970361535 75.51615345780738,1785.1954835769138 75.37139171559829,1784.9628288117237 52.049313848954625,1817.8690059808432 51.14375196455512,1818.580679948791 25.102075733360834,1812.1046741377795 24.77789098676294,1812.1086849351414 21.586433422286063,1820.2972441506572 20.959035448962823,1820.6016075923108 10.95270769787021,1817.795922237332 10.252200675662607,1818.0775618962944 5,1829.0188950833399" stroke="red" stroke-width="3.0556042483169437" fill="none" stroke-linejoin="round" vector-effect="non-scaling-stroke"></polygon></svg>