<svg viewBox="0 0 407.1986074132867 353.6275283719435" width="1000" xmlns="http://www.w3.org/2000/svg"><polygon points="8.05255000000011,126.94989133984882 28.70017652432557,167.41724697300333 29.434179724404885,170.00261391638878 86.73041126211297,144.46492193206313 87.37382914659224,144.038100375888 91.64211600888643,166.89293481721643 91.65172795541707,167.9131672573053 149.81594740445848,178.51404996563315 151.27608948443208,180.24761644370255 152.37767682664685,146.12502995317436 152.9497332888202,145.3964158363301 144.52500767107244,146.9823276436432 143.60896002662025,145.05386102238072 158.50165193770204,136.2434212221774 160.86677335992113,134.97206500065613 160.8918226755702,125.57542992136541 162.19817360884167,123.72738155563229 171.60098761771928,133.7776428361899 172.245570586623,133.62330176079513 195.81464635543648,112.56089457535518 195.89532845325425,109.91575422508276 233.39619273771655,98.82321765824554 233.75736891557585,97.69135026579124 219.2686700355041,97.32902319145023 218.05669094212476,97.32077806755069 206.01641702219035,50.49256468282647 206.32487312888384,49.875878208643826 197.82470829328645,51.75983612097434 196.93837030218106,51.415300297528574 149.17573350211728,8.10937319251343 149.16641282660544,8.052549999999883 112.67946327987715,29.80740884450597 112.05614310209762,29.882096327877207 123.8750509776653,49.1735132391691 123.98981179550879,49.36777488105099 95.44524290666573,44.39801237770689 94.24229321766302,43.84636948459183 73.10970029325813,57.82119438905602 72.21054637325119,58.63440224089527 64.07767440888688,84.60596503646912 65.67063611545723,85.9912228791286 51.672729057703464,89.65542529381446 50.2955992443965,89.6586318445402 68.3480001687783,111.66773391943525 69.01792372434988,113.10686583651795 56.3974377510383,128.0284779049466 55.610714479909575,128.94950871353603 30.633925431036687,136.23838344214118 29.622340862151532,136.25258082201572 8.05255000000011,126.94989133984882" stroke="#009edd" stroke-width="5.491800823683745px" fill="none" stroke-linejoin="round" vector-effect="non-scaling-stroke"></polygon><polygon points="210.24887753776397,215.50889614827565 219.174880737766,235.03690924074135 218.9893410400034,235.81878046130396 232.67034512884106,240.89675468844462 233.94640386661172,241.7394863770819 226.26966246215284,270.8416985291183 226.1715040977358,271.55341324848223 263.79703241770744,326.91352509163653 265.48407469326753,327.9188183496367 296.9052370755014,344.46865095329804 298.5430545332854,345.31784239618673 300.01746889772016,320.86839737380024 299.84998800882727,320.5316113914955 313.2321479377349,321.7286635359992 313.42846466656897,320.72379910862173 342.82179757333483,341.63188813770057 342.97529744890176,341.76366116954114 394.086095671031,345.3064039560627 394.2427995288524,345.34987002550724 399.12392080887344,321.856787990931 399.1460574132868,321.76572811822507 370.13137695097953,309.23433441468615 368.76152891547076,308.8398708754462 356.84009360880714,285.1373328633849 357.51089097778436,280.4288254986527 338.18534402651835,268.30101807698475 336.34858839991625,268.1527230703282 326.4514873155638,246.15999746786065 326.56653940442607,244.51164306721284 316.075245253254,245.20604993732513 313.19020489764057,245.553023662163 310.9037266755256,228.48977128722572 310.7773150133214,228.15329925812648 273.43839746664867,210.52921564577946 271.6665952977271,209.046322744201 319.6025384088059,172.3850988117406 320.09624294212676,171.97802224060388 286.97201837329317,145.64920995009697 285.89460653320543,144.65360243732675 283.464822924441,115.2078346682024 281.02630118220236,113.39084363208485 254.07061620438594,120.87031808132406 253.83934694212053,121.03657657662507 247.6507096444036,146.2889792400888 246.5893177154719,147.17329573698908 254.48567753771908,155.46902507395816 255.4556103376451,156.41878907554883 243.38795693321276,162.2368039453645 242.38190651554737,162.55322986117199 250.64089887109708,166.79585679385445 249.968353875425,168.38023795324943 218.73447881776497,195.81108765953786 218.49214125329286,195.96858933757858 225.2172999377142,215.06069755039744 224.59660119991872,216.0097421036112 210.24887753776397,215.50889614827565" stroke="#009edd" stroke-width="5.835825674843633px" fill="none" stroke-linejoin="round" vector-effect="non-scaling-stroke"></polygon></svg>