<svg viewBox="0 0 43.58281562665003 40.178678054943944" width="43.58281562665003" height="40.178678054943944" xmlns="http://www.w3.org/2000/svg">
  <title>Klášterec nad Ohří, okres Chomutov, Ústecký kraj, Severozápad, 43151, Česko</title>
  <desc>Geojson of Klášterec nad Ohří, okres Chomutov, Ústecký kraj, Severozápad, 43151, Česko</desc>
  <metadata>
    <collboard>
      <support-module name="@collboard/map-svg-geojson-import" version="0.11.0"></support-module>
    </collboard>
  </metadata>
  <polygon points="8.052549999999997,19.724024267510345 12.1056603288813,21.580044223701066 12.118913164456558,21.620699622107736 10.155600239995351,23.99613242988528 9.61987984888367,25.52404674617685 11.173447137763674,25.946213976297827 11.91495056887618,26.01849708068005 10.59818669330673,29.386006310443577 9.899791386654783,31.12454616449361 11.655136737775706,31.738833651346454 11.909125146666725,32.12612805494393 14.868148364424655,27.712155100867335 15.04261975998054,27.22126007744339 14.88948397333263,22.869582048900725 15.09439319998603,22.745905602445077 21.018119422231052,22.296876647123668 21.52544087998797,22.44053891015176 30.096894319991065,27.73978851027607 30.730773075548882,28.280578345925846 32.2253579644381,22.108105224578708 32.13550082667609,21.685337074704535 26.959030639998332,19.165789726735625 26.958812186646924,19.13324109500502 35.1757158666511,22.425122071893952 35.53026562665002,22.571867354570372 35.378804648884056,22.034560705192803 29.39900873776753,19.512060274973578 30.73448678220268,12.382803182240991 30.737181039999655,12.11929701000156 28.750930515561436,14.143475800788678 28.38305510223256,15.220981491896623 25.73685705775972,14.281563110467346 25.700739439991253,14.274824366577036 27.035125217756672,12.906613551276337 27.12651152889123,12.06207248323301 24.37108681776556,10.412700852488001 24.390310711088773,10.15809461998981 27.757259119978357,10.984389713608493 28.205670995557398,10.331601644101852 24.13573975998554,8.066828639384426 24.050615777763255,8.052549999999997 15.844416311104965,11.701590840580707 15.125632026676271,12.186001771253018 15.545353697765336,15.761325278239042 15.49969695110451,16.358312662261255 12.807332435542435,18.417052040640215 12.72854359998712,18.497111277705358 10.272764044442397,18.16750858088892 10.144240666653445,18.12673638230592 10.44585190219334,15.804383513335438 10.220262426657087,15.323202934515962 8.052549999999997,19.724024267510345" stroke="#009edd" stroke-width="5.945047008795533px" fill="none" stroke-linejoin="round" vector-effect="non-scaling-stroke"></polygon>
</svg>