<svg viewBox="0 0 646.9089064355496 440.0576666354457" width="1000" xmlns="http://www.w3.org/2000/svg"><polygon points="8.052550000000338,270.24286530228676 17.40322647998255,290.6426855295209 17.706148435572686,290.9356810773385 55.9678128622254,315.38919726576535 57.86544415108074,315.37420849080775 73.83671298667468,307.6830138798465 76.14358018674102,304.8245799598295 73.93224991110765,288.9542058198491 74.29109592000168,286.94136824642885 97.48151924447302,250.06012406186312 98.92505887113657,249.4749311008851 118.01321986664698,249.57670390289388 119.88143277329073,250.57671001760866 116.30112827555422,255.80747124183802 115.81820077330485,258.70334973079264 142.4363025333514,274.0353251509147 145.02045983108837,276.36582888043597 151.31191583115287,265.1505616549181 152.09048351107776,264.9806495656736 171.27359888886713,272.5261630189849 176.04986256894335,275.5063165718235 225.66906143117376,262.14118992558326 226.46889190222282,262.21524350383663 244.90897467555624,295.4732004946924 244.25303213331063,297.0626045192836 253.34243842666183,298.07601954058157 258.309775955604,298.49437550755795 259.0845571111204,336.16945895003266 258.92668816887453,337.0482604359055 269.42905062225327,376.634244465247 269.40312749331497,377.9533353552466 294.97585723558586,388.5734283716662 295.5537391199978,388.33187231046725 306.4583469778081,404.8456071475299 307.68867615119234,405.61017301548384 394.5329055555412,413.28473997986987 395.0472903377158,413.3805341536423 398.8122607199257,395.4612956720299 399.30887796448224,393.7518354384589 416.45659081775375,406.82421092174593 417.3158405956128,407.34360278104543 431.87531835548725,382.86364332328196 432.52339657778066,382.6811093530629 449.94170029331144,398.19277184722125 452.1946823377875,399.53080126891257 442.31593133332353,416.5235584575927 442.36486487996444,418.00221242695227 454.55281325334363,431.3931751860433 454.880201982196,432.0051166354457 505.0944677244188,430.2904959297517 507.87960208892036,430.40444122497104 518.8829508533017,418.1134402128879 520.5653327911641,417.0669887939945 530.1909692000845,422.1130628115276 530.6115646844046,422.008192828485 540.4480813778719,405.60200071041584 542.0949282400325,404.0320044131728 532.9743559377748,386.8552869477786 532.6155099288808,386.24321849013324 543.6002173422385,362.4661136741994 543.247779297737,361.85443069853466 572.8021851288868,338.8508142336283 571.2730117955725,336.5500462826236 591.3232412710568,338.0147108904563 592.746683191137,337.5042366552876 597.059825804412,328.2705318971781 596.9969112444451,327.3344682301173 588.7449093955584,318.0826179283682 588.0406158488258,316.89170315871127 594.4404247022248,312.2819567153125 594.6565478667399,310.80939715865645 582.0631501066746,283.30267755434727 581.9547972533401,282.5272333536774 587.9150780000273,278.5981827176653 588.3621791555561,277.96718392577134 583.3100817333689,264.4272985796921 582.9754112267183,263.76491106503056 586.6014452888412,226.5125879198091 586.5158115823069,226.34082807109337 596.7423402933418,213.9883037230244 596.4580596888918,213.2857737061928 627.9400977333789,216.05271094068996 629.7786009866759,216.43032766183717 619.546246853286,189.56701011697407 618.7595235822737,187.8863803110213 628.1847654666999,186.9592560907255 631.774099368813,185.6012846551381 624.6665017155246,180.9892085695534 624.053958568933,179.92161808445928 627.6063010400176,170.92574428572664 626.7010304266369,168.1686864596337 638.1680827999735,172.25926415998367 638.85635643555,171.03255343865715 634.8304071377279,158.7937010417005 634.5735060177758,158.212353182818 594.8671368800351,128.51790942069022 591.3392611822128,126.6676965496514 621.3436808800107,99.14721663841158 625.1922460710412,98.26427045567073 607.1311070133015,67.14471901205945 606.7909023555476,66.52174595310464 592.0703516710564,59.24237803961262 590.750019724459,58.06777952329833 564.1476466044332,52.868183548190814 563.9787093599807,52.534848550021366 549.5144772532876,61.75344192083105 549.0274719554945,61.73161461621169 546.1197124533137,54.462545513036844 545.3076485956335,51.38204212461244 526.6665887555355,47.499745292916145 526.5180404889179,47.38923729278724 521.4068150310559,62.71384115282092 521.2638009155417,63.9675377410382 476.262122977736,92.88513205361198 475.1188838666785,93.02835316819949 450.2125824267059,73.78586460636109 448.61146512893174,73.9168211371067 421.5873314399287,30.4567467219091 419.67571913774736,29.51758065706929 339.496937839991,37.336867111014385 335.9827518844759,37.552890631930154 354.2445767378449,45.03171990262456 355.4507304088693,46.4137630023539 353.586304026634,55.47299932185672 352.74132653335255,56.482538939373285 341.95701364448905,51.89955519352918 340.31104059561767,51.79678028848832 335.9827518844759,67.69720822326019 335.6740045066472,68.24605825477158 352.78559974229574,72.2725834155932 354.07127042671345,70.40734071881855 362.69901200893946,102.56621230472922 364.17808671118837,105.35592743344716 334.2217267467422,123.45865363706946 332.6354642755832,128.02194481270965 312.3819275643691,127.90647717976356 311.0546051111087,127.78464512257017 306.53087348442205,98.52069803790766 306.41145232888084,98.04285136014335 286.4022920799689,68.62256766539178 286.25403508448653,67.64309617327638 242.32889517336298,29.991030013515797 241.13468361783453,28.75760359652452 200.15604226661526,26.829678590736535 196.23407675556518,27.535540355987564 170.66396845327836,11.15640977500118 170.70853293335676,9.241519109614842 160.45287711112906,17.332158324053694 160.0558745866656,17.401747066796474 138.1039360266659,8.692520027084925 137.7051858755076,8.323639168381874 124.97547323557228,24.294560793415826 124.06088194667973,25.49799499623589 117.39456002668157,78.63347719002161 116.91658413338155,80.07987361998642 100.35112223108445,85.91992527849618 99.29584699552652,85.6825796173431 70.60972034672886,76.2508352347428 67.57846189334668,76.38679203377217 64.75691864008695,65.91650545362029 64.36719789330527,65.60410793216545 54.851661964414234,79.49513230546256 54.699327173388156,79.99666402661353 58.67634292445291,99.69144069133438 59.00314911103487,100.70714008258767 83.97149129780155,121.46019470072463 84.6551045955639,122.16847683533672 80.91430971559748,133.83752463813983 82.89174928886496,138.05693884354662 111.73254089777038,165.43068345046015 112.64742345779814,166.5719767447223 101.5744608978057,183.4393293624522 99.99751910215855,184.39282837659232 75.97697311113734,187.92137462812354 75.72531487115339,187.9259193442773 89.77914598221105,214.1791588335542 90.16595401775703,215.52831792014297 56.801139511146175,221.74415695339087 54.378928951082344,223.0950866917625 39.50371330659982,260.9813167860626 39.0146691110931,261.9058538467867 31.081317857700924,256.53984955160524 29.971574924515153,255.7070643459225 8.052550000000338,270.24286530228676" stroke="#009edd" stroke-width="4.84189017887997px" fill="none" stroke-linejoin="round" vector-effect="non-scaling-stroke"></polygon></svg>