<svg width="284.6412782932166" height="467.66685327060986" xmlns="http://www.w3.org/2000/svg"><polygon points="5,273.94161495228764 6.003137706546113,273.51099281723145 7.636877368786372,272.90292245394085 9.573538986616768,272.03181503515225 11.85885212442372,270.91603968292475 13.078986808890477,270.32947117002914 13.662402844405733,270.1040742965415 15.728388835559599,269.93334609328303 17.198142862180248,270.13588977378095 19.32121799106244,270.817456849094 20.073862542165443,271.4990218090825 19.08936618664302,271.9713213361101 18.84965006215498,272.1039593507885 18.87324302212801,274.0393001890043 18.374586879857816,275.8509501675726 18.247883946518414,277.9220291139791 19.34510222217068,277.8516790678259 20.84980878222268,280.51913988706656 21.00126975995954,282.98000395140843 21.73527295992244,284.12797953991685 22.022757546626963,286.48261014558375 21.4658471820876,287.21475845598616 21.9685811199015,288.9151791721815 22.41480846214108,290.89338591496926 23.533580799936317,293.14981923648156 26.247645013267174,292.7747940974077 27.159323591040447,292.92803025303874 31.26333354669623,294.517288990377 33.01387292437721,295.24044943542685 34.469937208807096,295.86727617215365 33.43708984879777,298.6926788429264 32.42550527991261,300.08610064937966 32.1455937421415,300.72949114325456 33.39165155554656,301.3204588847002 33.001056995475665,302.681157183717 31.87500287988223,306.7950116684078 31.768980195512995,308.259618456359 32.01423047110438,309.2040584003553 34.54362879996188,314.13138841150794 35.07374222215731,315.81995243381243 35.86512583110016,317.4068054908421 37.72023153770715,320.8734705664683 37.82159388437867,321.4137600400718 38.63307520002127,325.3682263636729 39.45882880000863,331.05049106827937 40.13574286212679,335.59431551519083 40.14768497773912,336.680196350615 40.72411050659139,337.9053896103287 41.336071111029014,339.0091776130721 41.69491711992305,340.11161618167534 41.74734591995366,341.33096682152245 41.760161848855205,342.62646346504334 41.73365617764648,342.9673587878933 41.61277866666205,344.06216226518154 41.55743715551216,345.122915912536 41.703655253280886,345.75004826078657 41.59734129766002,347.06433267419925 40.94314638210926,347.98620845994446 40.80071480886545,348.654991533258 42.5349430043716,348.9179351577768 43.31991864880547,348.2097336386796 43.851488426560536,348.6670860509621 44.333250844385475,348.13627047883347 44.971134577761404,347.9736659582122 45.247550862142816,348.3848804633599 45.97514609771315,347.70489789173007 46.089906915440224,347.31518361123744 46.63662279106211,347.673093648802 47.6120897422079,347.56916989327874 47.585875342134386,346.85110915242694 48.57910983101465,346.7359862825251 49.641666844370775,347.1337646586471 50.06575758208055,346.7306108941557 50.52247068437282,346.2683270002599 50.82102357328404,346.46676875220146 51.29288277332671,345.7805089292815 52.01902165322099,345.65597852272913 51.959311075508595,344.9307442845893 52.35369215987157,344.9517980607925 52.97060437325854,345.5045709548285 53.46634780440945,346.28893269842956 54.083842559950426,346.88291351438966 54.737746204365976,346.7897401592927 55.26174293330405,347.1185344187543 55.24048014217988,347.46211045573 56.13439118221868,348.05698399204994 56.43789567996282,348.67604495259 56.11953635548707,349.67630401893985 56.95694079995155,350.25370182748884 57.65366129775066,350.02166782459244 57.481811342178844,350.95741735276533 57.72181873768568,352.0284402833786 58.05328526219819,354.44729343423387 58.46659896883648,356.63812429178506 58.826027520000935,358.23588063620264 59.821883448865265,358.7841408585082 60.472874382161535,359.4542348275427 61.57417045335751,361.1872424380854 62.62274645327125,363.71976502786856 62.731099306605756,364.4758432263043 62.994117119931616,364.6541124697542 65.58584746660199,366.81975868571317 65.66419939545449,367.51043185108574 65.70614243554883,368.04836709896335 66.30353948439006,369.2559171958128 66.43752419541124,370.79401108284947 66.12761173327453,371.34179206506815 66.41422250668984,371.99572341976454 66.36470641766209,373.64308432716643 66.59015025768895,374.4125651512295 67.32735743990634,374.6239703538595 67.92766719998326,375.0620084524853 68.05116615106817,376.8405774856219 67.91892906662542,378.97878269135254 67.65503743989393,380.6704313438386 68.14000383985694,381.82147950620856 68.09223537775688,383.04910827369895 68.52098645328078,383.86155199666973 68.65234972443432,384.8737433907809 69.02867199992761,386.64775431499584 69.2252800000133,388.12705618247855 69.32431217771955,389.56738412496634 69.86549390223809,391.0005368842976 70.22579626657534,392.94244395697024 70.44250197336078,393.6066116479924 70.89834126224741,393.44448863418074 71.18757347553037,393.3419300913811 72.65237589320168,392.9858858700027 73.42249671113677,392.74852273525903 74.01057308434974,393.50450103450567 74.85904583102092,394.81402126909234 75.33527409774251,395.801530510711 75.59130140440539,396.5906390133896 75.6405262221815,397.04699502082076 75.20303701329976,398.4008306704927 75.12352000002284,399.64090635161847 75.78412287996616,401.1783396862447 75.89626225770917,401.78247235750314 75.99325553770177,402.49677088920726 76.01277070213109,402.69337051641196 78.03827000886668,402.50931027834304 79.30384298658464,402.34226764179766 80.94020408880897,402.1496982249664 82.70880227547605,402.12103671592195 82.69394744886085,402.328832571744 82.7032681243727,402.4367609451292 83.29804373334628,402.36510725918924 84.76575886213686,402.36689860158367 85.32499939552508,402.32121936499607 86.17026815994177,402.0973014009069 89.53008042660076,400.9347156630829 91.38402104889974,400.05202415498206 93.98041173326783,399.2087392039248 95.28035470214672,398.8768879984855 96.50340209773276,398.6713280935073 97.71275975101162,398.6489359353436 98.42695651540998,398.55891943664756 99.0712482132949,398.238263350504 99.88593351107556,397.57769242418 100.65721941331867,397.1710484526702 103.29671822220553,396.8830831586383 104.84715434664395,396.6219883278245 105.58902186667547,396.7043922187295 106.00117048877291,396.7500726232538 106.0037919288734,396.8302372316248 104.9980327822268,400.0699377672863 104.32519651541952,401.83666060329415 103.27021255111322,405.5881565064774 105.66999523551203,405.4954558754689 105.73290979547892,405.5093385811779 105.57504085334949,405.9616456090589 105.1363865599269,406.68802187766414 104.91589432884939,407.2289959847694 104.69015921768732,408.09464135044254 104.60452551103663,408.1013587092748 104.72016014216933,408.48424782580696 104.0822764087934,409.9934066167916 103.798869617749,414.300945564406 103.27021255111322,415.33046128990827 102.6591257598484,416.0568065854022 102.070466844365,416.55924625415355 102.12580835551489,416.60492253059056 101.50161436432973,417.6845815574052 100.80198115552776,418.75124901509844 99.54951537773013,420.2160051674582 97.44799431099091,423.1687734259758 96.76379847107455,424.1951130630914 96.66884408891201,424.97964169929037 96.83457735099364,426.0695586829679 96.84855836431962,426.12687544955406 96.88059818663169,426.20434261806076 97.2053654755,426.1112028977368 97.41566321766004,426.05836400028784 99.12513336876873,425.9365658155875 100.1888554666657,425.964328643051 101.53511054208502,426.45286427473184 103.06836167105939,426.7036245804047 103.8623667198699,426.7219838058809 104.40063573326916,426.8773654814577 105.34406286221929,427.5172502443893 106.28574236435816,427.9699597522849 106.3131218488561,427.8078620930901 107.13392384001054,428.001304589794 108.39075868437067,427.73756003240123 109.4760348444106,427.6444209620822 111.11326975992415,427.64039090520237 111.93378047994338,427.5665065170033 112.92264590214472,427.610389368725 113.61587114655413,427.8647306225612 115.21553208876867,428.2628099164576 116.2705160533078,428.65058950241655 117.11520227557048,428.75357934681233 118.25145087984856,429.1677771463292 119.60848298668861,429.5743619025452 119.95742577768397,429.86541880998993 121.90428188443184,431.57010898622684 123.26568305771798,434.04226685583126 127.47251171548851,435.98782345093787 128.73924977774732,436.45708285435103 130.65581368876155,437.4435094206128 131.38603036443237,437.6499285820755 132.96501105767675,439.83366128301714 133.65386723552365,440.74529721972067 134.80846591992304,441.59827339160256 137.6300091732992,441.55887089075986 147.82187662215438,442.6903467121301 150.86391210660804,447.110971822578 153.5674905598862,449.6465338355629 155.0561772088986,451.5462832696503 161.1961722311098,462.66685327060986 163.98771456000395,462.66416699421825 168.96495530661196,462.29435596917756 170.67879452439956,462.3709149613278 171.95689216000028,462.5482093669707 173.03925560880452,462.1703392997151 174.35754865780473,461.7682919979561 177.10161379550118,460.9310641871998 179.73441336886026,453.21767309086863 180.06879260437563,452.01774812012445 180.65424753772095,451.1433210570831 183.84075349324849,441.74065964267356 183.52967594657093,438.0050049071433 182.7680019910913,435.54274251830066 181.29504398221616,432.1271417324897 178.5661249421537,430.80844054196496 175.84507022215985,429.3733085213462 173.3587800177047,428.15713314386085 171.67290282656904,427.2799244126072 172.0317488355795,425.984926867648 172.23126954666805,424.7329095363384 172.33845731557813,424.14048254000954 172.4121489066165,423.3487862221082 172.48409287107643,419.30786645936314 172.98041884438135,415.8879830163787 173.62966215098277,413.40397773555014 173.70772280881647,410.7847032408463 173.52101802662946,409.3109277827316 173.70306247100234,405.74489661486587 174.0924919466488,403.26301582326414 174.44871651555877,401.129525335622 173.97103189327754,397.1074542833958 174.1929804799147,395.7867514935788 174.33191679988522,393.9899738787208 174.2346322487574,390.03002477192786 174.42191957333125,385.7260407577269 175.3700070399791,381.11024890228873 177.0241356799379,375.0861945798388 178.23640604433604,368.0026807260583 178.23349333321676,364.4462809759425 178.66515711997636,362.3428718613577 178.96691399102565,360.91804261808284 179.42187946662307,358.89388232363854 179.7999493688112,357.93756199924974 181.3340743110748,355.7695885634166 182.14206037321128,354.5055247558048 182.20934399985708,353.44795196317136 182.75897258659825,352.61344683909556 183.3610299732536,351.36997009115294 185.2572049065493,351.8156695187208 185.97052785777487,351.71891474496806 186.4339401954785,351.3274158271379 186.64540302217938,350.1815831771819 186.92677091551013,349.1441470531281 187.08027079107706,347.6578634463367 186.95036387548316,346.4022640037583 187.0971645155223,346.042112143361 187.79213738662656,345.4799336188589 188.65692131547257,345.2317682985449 189.68685596436262,345.47455819975585 190.35444935108535,343.8995547288214 189.9356014932273,343.46503813174786 189.55636650661472,343.23344491398893 189.03469994664192,342.6407981016673 188.80488703993615,342.15028422442265 189.48325745773036,341.56614572170656 189.80074296880048,341.15760621381924 189.95948572433554,340.60079072683584 189.93647530663293,340.0650280729751 190.14123889768962,339.7729562431341 190.53270727104973,339.7653408681508 191.23437937779818,339.76982050051447 191.6418676621979,339.46072565193754 192.37033671105746,338.45101278217044 192.12042609776836,337.8014612334082 192.13120312883984,337.3333349607419 192.34761756437365,336.79129276709864 194.4211766043445,336.7469438011758 194.97284408879932,337.2182071026182 195.73626567109022,336.92209976597223 195.76714040886145,335.920438706351 195.84665742213838,334.7328641526983 196.0257891555084,334.34536672831746 197.0464031288866,333.9162069334416 197.17048462224193,333.19854953646427 197.27912874659523,332.6842717573745 197.28378908440936,332.1973194752354 196.94795349321794,331.3461583398748 196.67474119109102,330.896833526087 197.1177645510761,330.6858342185733 198.29537365329452,330.28085833450314 198.58314951101784,329.85034664778505 198.4287758221617,329.55019752215594 198.417707519955,329.02515955775743 198.67781262216158,328.7836954309605 198.76898047991563,328.83342183125205 199.23064519104082,328.76980787568027 199.5725974754896,328.5104240210494 201.01642837328836,327.7690056146239 200.7799162310548,327.5615872076014 200.86351103987545,327.35775251314044 201.3126510932343,326.3403681656928 201.58994119102135,325.43049732700456 202.05772259552032,325.4403531613061 202.3175364265917,325.4636487678508 202.26510762656108,325.16707759175915 202.26772906654514,324.96906458976446 202.27035050664563,324.7907631365233 202.37928590213414,324.3606886837515 202.6568672710564,323.76485497748945 202.75619071989786,323.51621712592896 202.90415644447785,323.18380355852423 203.11241528880782,322.33126349770464 203.30028515553568,321.9562881824095 203.47708671994042,321.70675228338223 204.06778453325387,321.1301754323067 205.20374186662957,320.0527297852095 205.37879580433946,319.8108077906654 206.39474943990353,318.4054149335716 208.52539761771914,315.84817719308194 210.3679786665598,313.5261186034768 211.3405329065863,312.02077713317703 211.73200127994642,311.41505348763894 212.96524316444993,309.4733216063469 213.35816789325327,308.8053152761422 213.9150782576762,307.85818544751965 214.9948202666128,305.60145520046353 216.75409777776804,306.02932622656226 218.81717105780263,306.4150814844761 220.77480419550557,307.08085493493127 223.24070542212576,308.07413499214454 224.51734670216683,306.2018184987828 224.66939022217412,306.03649473935366 225.01833301328588,305.1027939893538 226.07535587553866,303.2295560903149 227.19208931550384,300.25814954552334 228.4760123732267,300.0533934221603 230.50355057767592,298.56991392560303 232.5104085332714,297.2396575562889 234.6640671287896,296.09130244900007 236.1716863999609,295.03568863408873 237.2974492444191,293.462563725363 237.47395953768864,293.1283124356996 238.1010662399931,291.94319484976586 237.9076622221619,290.47892731416505 235.4379744710168,286.9060377095593 233.95103544881567,285.25085696042515 232.78332956437953,284.0164084052085 228.35804757324513,280.3085402613506 227.72511544881854,279.69735211867373 227.16208839102183,279.42670814559096 224.8852221154375,277.525021551759 222.73680639988743,275.45393886137754 221.74007665773388,274.46812890231377 220.4150843732059,273.7336976064835 219.69418837327976,273.3465406448813 217.67451448878273,272.5090425212402 216.8755578310229,271.99910362961236 215.20191402663477,270.04850922658807 214.5398547910154,268.8623708715895 214.22266055108048,267.98228523193393 213.9514871465508,266.25795242981985 213.90022343106102,264.3691471929196 214.69714119110722,258.65423611097503 214.89986588433385,256.7788094491116 215.67726847995073,249.7833491130732 215.04375381325372,249.38404993910808 214.66772280889563,246.9855507320026 213.39894584880676,243.0054721009219 212.12346965330653,239.5281661126064 208.32966343103908,237.7883720403188 206.6499029332772,237.26177013805136 205.3021915021818,237.16675757523626 205.01616327103693,237.0896718808217 204.0089477688307,237.88652153185103 202.88580636435654,238.48393278755248 201.59110627544578,238.86577318876516 200.25300679099746,239.35024344641715 199.6288127999287,239.3905785722891 199.6952226132853,240.0238390774466 199.45405013323762,240.77944688720163 199.40162133332342,241.96484061412048 199.550169599941,242.64873593661468 199.550169599941,243.8865541642299 197.74545379553456,244.5982292619883 196.3129824710777,245.29018319078023 195.37508949323092,245.63481487170793 192.3974249244202,246.64405824348796 189.9990985954646,246.89412759814877 188.41400120884646,246.06235459283926 187.95262776885647,245.39460351021262 185.87819491547998,243.57418722490547 185.17215374216903,243.1098935068003 184.21212415990885,242.50622057332657 183.49297578656115,241.6591933920863 181.20882773329504,242.5263878473197 174.99484984891023,243.657544873422 175.79001998214517,243.06194033520296 175.51389496889897,242.9041877714917 174.57163292437326,242.96648212126456 173.46625905763358,243.24523791589309 172.88429937767796,243.74090249027358 172.4756460088538,244.14110824244563 171.50979100435507,244.63004843477393 170.7283106133109,244.92090234986972 169.74206663109362,245.03742307063658 169.56147854216397,245.04593804397155 168.8665056710597,243.68533074919833 169.28855751105584,239.87639217323158 169.51196245325264,238.41446644591633 169.54895388439763,237.37336502957623 169.37768647097982,236.6966240532929 169.12253297772259,235.13831918576034 169.18195228441618,232.81271795777138 169.3872984177433,231.41662830329733 169.6564329243265,230.49336670542834 169.31768462213222,229.30746286042267 169.4135128177004,228.84627630200703 171.92281343985815,227.24892295058817 172.32272867544089,227.03423849132378 173.5850976711372,226.67389082722366 174.60454655997455,226.1988046943443 175.15708785771858,226.10871749091893 176.0521639821818,226.04731474909931 176.18032327108085,226.02400859433692 176.13430243555922,225.12716795434244 176.86568419542164,224.21508488582913 177.55745308438782,223.5862607898889 178.24281400884502,222.7378160158405 179.3714895643061,221.19196182652377 179.63479864876717,220.76795932638925 180.60240127996076,219.154411670228 181.16164181323256,218.74654080194887 182.08701013331302,217.27685476304032 182.69984455103986,215.93534867156995 183.144906808855,214.91162116877967 185.7937262932537,214.62879543483723 186.8813326221425,214.40782356995624 188.054572657682,214.10437908465974 188.78508060437161,213.73594223312102 190.13512220431585,212.44551193801453 190.28163157321978,211.04122471180744 190.6390212266706,209.96234234119765 191.71031637326814,207.42535667435732 191.50176625768654,205.29982420633314 191.8760496354662,204.62836323666852 192.94996622216422,203.51493477995973 194.0372812799178,201.47632408328354 194.89449215994682,200.10827480547596 195.87957105773967,199.03785546828294 196.6112440888537,198.44840540573932 197.3079645865364,197.5828298602719 198.05827896879055,197.1206801524968 198.74771768879145,197.34032465482596 199.79308970656712,195.9417681505438 200.6596212622244,194.0675988153671 201.01642837328836,192.82681012351532 201.1623552000383,191.6671504797414 201.23633806209546,191.52146416180767 202.41540351998992,191.3408129932359 202.5566700088093,190.8459266485297 204.10128071100917,190.32055695320014 205.6514255644288,190.89568429347128 206.69213724439032,190.8548919907771 207.45060721773189,191.61201382311992 209.52358371554874,192.38392575632315 210.62750122661237,193.317657644453 212.12026567105204,194.5978903984651 213.63225400878582,194.62075162981637 215.94698552880436,194.8417434100411 217.78607132437173,195.72839784930693 219.47806520876475,195.78487824334297 220.98160668439232,196.01662700960878 222.5830152533017,196.24165168975014 224.40753749327268,196.8499343819567 225.95214819547255,197.09154362033587 226.53439914656337,197.22467512788717 229.27176504884847,196.9292754784692 231.02638222218957,196.66704632155597 232.35661738656927,195.63157428288832 234.58396757335868,194.5432027374045 237.03355761768762,194.52751365175936 240.0086007466307,194.9296021492919 242.21614449773915,194.5647191958269 244.28067413321696,194.21552474505734 246.26073514658492,193.68971485155635 248.03049841779284,193.01687358599156 249.59666318213567,192.30234169657342 251.9970284088049,190.64420635107672 253.24629020434804,189.47512151068076 254.51040682662278,188.21727250993717 255.56451697775628,186.462278701365 257.09864191990346,184.61223555612378 262.2850153243635,178.12508200807497 264.5470267732162,175.3281635659514 266.782532551093,172.60293820186052 269.2469774221536,169.53965305443853 269.87583175103646,167.20439057413023 270.5265314131975,164.62028541928157 270.9212037688121,160.920712046267 271.18218268442433,157.03053353424184 272.1162891377462,152.69059647142421 272.764076088788,148.79578857921297 273.7811948088929,145.1515452087624 274.8169548799051,141.94933162187226 275.03453439986333,138.54485477192793 275.96223288890906,135.73039357044036 277.98511075542774,133.03202807769412 279.6412782932166,130.8537620130228 278.57784746657126,130.10270808055066 277.1666389332386,129.1184872458689 276.21534748433623,128.7678434951231 275.04239871993195,128.02530193864368 270.96343807992525,126.07163440750446 266.72398705768865,124.01930071751121 264.0186609777156,122.59382103924872 259.53104696876835,120.32173347508069 256.1161844620947,118.60655410494655 250.25435335107613,114.0483717652387 249.18101930664852,113.45062179747038 248.05350883549545,112.77977668412495 245.93480277329218,110.9528792630299 245.76994332438335,110.38965008914238 245.18448839103803,108.13896112097427 244.39135715551674,105.59003584325546 241.59398940438405,101.80022610130254 241.60884423099924,100.63874012965243 241.5031128177652,100.28311790619045 241.38485674664844,99.93601571000181 240.3100663466612,98.10901138046756 239.07944590225816,96.90535073331557 236.24945578665938,94.8644043491804 233.5423820799915,91.14437085192185 232.35457848885562,89.74424064694904 231.28940003551543,88.84325527609326 230.59122318215668,88.21763110312168 228.82058609765954,86.22548834350891 227.62841343996115,84.8661387693719 226.64275199989788,83.72295110218693 226.50323313777335,83.59019922581501 225.06901418662164,82.15817810199223 222.62524956429843,79.77130596688949 220.26799246214796,77.37768038921058 219.04261489771307,75.98418988200137 217.28450247098226,73.27791364863515 215.14482488879003,70.30339321889915 214.19324216875248,68.96009160182439 213.39108152885456,67.84507773735095 212.320368924411,66.58787711244076 208.40335502219386,64.15553451515734 207.8310072888853,63.88283058500383 205.6741447109962,62.47176174359629 204.85945941333193,61.92141552438261 201.89519331546035,59.88283498596866 200.90021120000165,59.37374756205827 199.0765627733199,58.23132417211309 198.08944497769699,57.23197916476056 198.13313564436976,55.34002898121253 198.37197795545217,53.27312877192162 198.44683463103138,50.4266236575786 197.8444859732408,48.940559280337766 195.6424763732357,46.28418852732284 194.93381375994068,45.165022359928116 189.96414606214967,39.04337399516953 188.36943672876805,37.03643019404262 187.97884216881357,34.365560556878336 187.63863751105964,31.584753275907133 187.15571000881027,28.322115775663406 184.80456960003357,23.9168277165154 184.28319431107957,23.616708641988225 183.27947406214662,23.004805400967598 181.74243640888017,22.7526864138199 181.77098097768612,22.57952267123619 180.70318108436186,22.218390592141077 179.29168127989396,21.38441995444009 179.1847847821191,21.40281310118735 178.9797299199272,21.225162156508304 176.69558186654467,19.786453373963013 175.29427655099425,18.675675812235568 173.7837445688201,16.968225671094842 172.31340799992904,14.008643860230222 171.44250737770926,12.764145058579743 170.15421525330748,10.236094938358292 169.5285649066791,9.204229375813156 167.3236425954383,7.13958640769124 166.50866602663882,6.670754517661408 166.55439559114166,6.598074268898927 164.10684444440994,5.036789038858842 164.03519175108522,5 163.41798826656304,5.8116006551426835 160.86907477327622,6.764072332531214 159.4080588800134,7.246811933582649 158.57502350211143,7.741663786582649 157.6464511998929,8.825578360934742 157.04497635550797,9.786561059358064 156.1740757332882,11.033319921814837 154.42907050659414,14.477908699016552 154.00964010658208,15.46354104403872 152.03802595543675,19.92821617994923 151.4027636621613,21.08698910009116 151.37771434662864,21.158767322078347 150.55487345776055,21.232788588909898 149.2569693865953,20.8958794696955 146.83068103110418,21.215292655339 144.97732295107562,21.336418320424855 143.43649877328426,21.135439402540214 141.27584967098664,21.278547177673317 138.2341054577846,21.70158936548978 138.24342613318004,21.627568256808445 135.9953956976533,21.780096574686468 132.7689855999779,22.4310324100079 131.21388913772535,22.813248830498196 130.23172295105178,23.189632659603376 129.38208511995617,23.38253472937504 128.1386487466516,23.53281878249254 125.57750186661724,24.412539190147072 124.3055209243903,25.06257000460755 123.79113614209928,25.34070544462884 122.68139320879709,26.16882919962518 122.60857543104794,26.145501812687144 122.35662591992877,27.110894676705357 121.22241621324793,28.68592940014787 120.33025279990397,29.744170533318538 119.73664227547124,30.52921258704737 119.67751423991285,30.480315764027182 118.65923043549992,31.885310044395737 117.85240945767146,32.491805434110574 113.08692280889954,32.29083673330024 112.32379249762744,32.03020517528057 111.08181247999892,31.883964268723503 109.63827285321895,31.954841775470413 108.36891335097607,31.98444882844342 107.19509077328257,31.815329699253198 104.82093994657043,32.289939551148564 103.50818104879,32.722829494508915 102.40193336887751,33.537916323926765 101.49549767107237,34.25386241171509 100.81392327102367,34.70828061521752 99.0796950754011,35.50541669118684 98.28277731547132,35.735540410736576 97.34022399992682,36.15990047727246 95.81017685332336,38.285725709283724 94.66635519999545,39.02094513142947 93.66350876435172,39.462793324608356 90.77264298661612,38.90566073573427 87.67060565331485,38.36826419306453 86.06191530660726,39.21473043836886 83.93680127989501,39.50809953571297 83.08599836437497,39.0195993995294 82.7178316799691,40.504833814222366 82.13150293321814,44.52985377178993 82.01295559108257,47.76085114548914 81.50876529770903,49.430831556150224 80.97224391100463,50.559395596385 80.77913116430864,52.498933274066076 80.29066951107234,54.72776564897504 79.93823146657087,56.25819650571793 79.72560355556197,57.48136730369879 78.60653994663153,59.835290307411924 78.77868117333855,61.06875740934629 78.60712248890195,63.63703793648165 78.34148323547561,64.77046269306447 78.14050616882741,66.82738716958556 77.3354328176938,68.49273732485017 77.06891975109465,70.062541413703 77.12950414221268,73.27387708309107 77.61592689773533,74.98223468969809 78.21390648884699,77.56829233904136 78.28206392889842,79.92648483905941 78.03506602661218,82.88248685351573 78.26196622219868,84.08936380408704 77.99487061332911,85.38951850356534 77.11785329773556,86.00618111313088 76.3151101154508,87.70008832484018 74.98749639105517,89.92049071250949 74.52816184877884,92.20724399934988 73.94445454212837,95.24873694695998 73.88328760885634,96.40845760231605 71.79574755544309,101.10871666087769 71.19369016878773,101.92041039920878 70.2499717688188,102.66079803655157 68.63953379553277,105.26043127535377 67.17589646216948,106.79230354790343 65.68953998212237,108.79860955127515 64.97709084441885,109.42327819514321 63.988516693236306,111.07305854931474 63.74151879106648,113.37708005355671 63.58102840883657,116.12456493341597 64.41581141320057,117.11826080526225 64.81660046218894,118.11105534719536 65.87624476442579,119.35630213463446 66.50568163546268,121.47011143958662 67.5717339022085,124.60222462553065 67.17997425771318,126.42093726922758 65.84653511107899,129.11310652765678 65.27156593766995,130.39774927514372 64.56232078222092,131.42456128296908 64.35464447992854,132.03078166313935 65.14544554660097,132.17830101429718 66.09935843548737,132.4181878932286 66.51558485324495,132.86657387996092 65.07117141317576,134.22562621033285 65.71255039994139,135.70035212987568 66.47509816882666,136.1245189543115 66.57413034653291,136.73969390726415 66.69093006220646,137.39208237093408 67.13424469332676,138.7161335463752 69.54160042654257,139.82944232271984 66.81646791100502,143.3217786453315 64.43183132435661,146.5800169085269 61.836896995431744,148.64917710173177 60.759776426595636,150.59681516105775 59.951207822188735,152.30995120451553 59.69372415996622,153.90740153077058 60.32549119996838,154.26383357058512 61.03735779551789,154.92872348928358 61.1422153954627,155.4555229053367 61.10551523556933,155.6527921484667 61.107845404418185,155.72228468058165 61.18765368883032,156.15268955053762 61.3021232355386,156.46473255357705 61.271539768902585,156.74180484830867 61.08017464878503,157.26815157779492 61.19173148437403,157.48469760862645 61.2537722310517,157.7106584564317 61.17338140436914,158.25224620848894 61.08337863103952,158.4696879350813 60.8066710755229,158.8812574587064 60.49413717328571,159.59275981527753 60.178108017658815,160.10251150350086 59.72925923555158,160.57101574912667 59.53614648885559,160.98123634885997 59.33313052437734,161.8518878032337 59.01622755546123,162.42977967858315 58.95709951990284,162.76422998373164 58.60932181333192,163.2587313108379 58.42989880882669,163.49320435221307 58.23795114655513,164.0545039998833 58.4520354133565,164.59428281866712 58.53563022217713,165.15378637285903 58.15202616888564,165.65455877734348 57.86454158218112,166.13336247904226 57.61987384886015,166.25664977985434 57.4652088888688,166.40728435176425 57.38947840000037,166.54895248584216 57.49579235550482,167.10800274269423 57.69240035547409,167.37923350918572 57.32918527990114,167.74505827663234 57.25578495999798,168.02794441301376 57.43433415109757,168.1714047548594 57.20422997325659,168.51077775284648 57.09616839105729,169.05951184709556 56.79907185770571,168.8837736263522 56.55207395553589,169.38139934587525 56.685184853267856,169.6288668512716 56.998301297659054,169.7221154042054 57.3420012089191,169.93461436219513 57.48472405329812,170.3062628894113 57.41860551107675,170.41340872913133 57.187627519946545,170.90475467167562 56.61644487106241,170.98545006802306 56.51770396437496,171.30329997977242 56.51158727100119,171.61666636745213 56.72450645326171,171.98338068509474 56.499062613234855,172.1918427075725 57.35831239097752,172.95396024466027 57.791432533296756,173.89629250601865 58.55310648877639,174.51001671818085 58.91107868438121,175.0394589442294 59.896157582174055,176.92858447437175 60.66074424888939,177.94173005525954 60.926383502199315,178.56037417275365 61.14134158217348,180.22353196155746 61.212994275498204,181.17793676583096 61.48649784887675,182.4075841853628 61.61553095106501,183.31670296774246 61.74747676437255,184.0536781527917 62.333514239871874,185.99158832093235 62.861880035488866,187.2548293666914 63.16742343106307,188.02092907199403 63.441509546595626,189.11964317574166 63.664623217773624,190.46669233596185 63.785209457739256,191.3062964999117 63.84258986660279,191.35650230653118 63.763072853325866,191.64339240983827 63.41092607995961,192.14051827939693 62.070787697681226,193.24234960298054 61.006774328881875,193.72692053765059 60.052278897725046,193.87798452336574 58.67078001762275,194.39438050880563 57.99648739548866,195.34827545436565 57.43054762657266,195.75305199134164 56.76877966208849,195.9417681505438 55.46621525322553,196.0870032790117 53.25867150211707,196.12958763493225 51.987564373295754,196.1986190994503 52.09912120888475,196.84455532347783 52.328060302184895,197.37080591532867 52.36709063104354,197.75182131456677 52.210095502086915,197.94457002950367 52.20660024881363,198.17810952465516 52.065333759994246,198.5940871273633 52.01523512881249,198.99706467846408 51.869890844332986,199.34894102299586 52.00183665775694,200.064346476458 52.8980778666446,200.97563338046893 53.05565553775523,201.2114108814858 53.23653489770368,201.91650064254645 53.297119288821705,202.64489677816164 53.298575644381344,203.03755732334685 53.46722161769867,203.26974667597096 53.65013987547718,203.63461516267853 53.670820124447346,204.243773852475 53.79315399110783,204.6485339900246 53.9411197155714,205.07480880973162 53.86422414216213,205.51990876358468 53.84033991105389,205.9618701612344 53.72470527992118,206.4172777296626 53.87179719109554,206.74807515449356 54.01277240877971,206.8507208666997 54.07510442659259,207.30164425616385 53.91053624881897,208.29627219610848 54.22132252436131,208.75795015040785 53.83626211551018,209.02061309688725 53.85111694212537,209.47556609194726 53.7363561243983,209.5616260598763 53.84237880888395,209.88435063901125 53.649848604458384,210.14925337664317 53.22925311990548,210.54862390493508 53.4386770487763,211.12773229175946 53.355082239955664,211.37425629637437 52.96681784885004,211.4423865179997 52.85060067556333,211.7610743129626 53.07837468443904,212.31776833889307 52.77020984888077,212.72520292707486 52.65166250662878,213.15639250387903 52.47544348437805,213.2868249429739 52.38573198218364,213.84172221971676 52.32718648877926,214.09003605577163 52.55146524438169,214.220019720844 52.643215644406155,214.39034302753862 52.67991580441594,214.5481160778436 52.56369863101281,214.85514569468796 52.686323768808506,215.13797113706823 52.64496327098459,215.42572660150472 52.454471964389086,215.60770260397112 52.427092479891144,216.20517447777092 52.87302855111193,216.25044422334759 52.76525823993143,216.76589116395917 52.690110293217,216.9397982065566 52.51884287991561,217.06171233998612 52.41107256885152,217.3718759327894 52.41078129771631,217.7335834999103 52.06649884430226,217.79812605143525 51.8215398399625,218.26292150485096 51.7918301866157,218.60087245109025 51.961058702203445,218.9495799113065 52.20485262211878,219.13513866829453 52.42097578663379,219.06432157661766 52.25815523555502,219.4009266628418 52.1046553599881,219.56810849130852 51.9185331199551,220.0911671698559 51.98669055989012,220.26372695760801 52.084266382153146,220.40043006977066 51.87222101329826,220.61691384052392 51.9633888710523,220.82577789732022 52.20223118213471,221.00147454661783 52.21184312889818,221.26188182190526 52.005331911030225,221.4788129478693 52.033293937682174,221.77910981402965 51.90076558210421,221.9391185734421 51.89115363557357,222.16456489107804 51.9555245511001,222.43527944770176 51.94154353777412,222.7700865585357 51.68347733328119,222.79608226998243 51.51978296879679,223.30389443028253 51.308611413347535,223.28551819437416 50.957338453270495,223.4441812543664 50.927337528788485,223.66917782649398 50.749079608824104,223.70951583294664 50.79218773334287,224.00487945467466 51.10355655103922,224.20656910468824 50.88976355548948,224.50865503388923 50.525965937646106,224.46428338787518 50.49771263997536,224.7184117847355 50.55363669327926,225.09220857487526 50.667814968852326,225.37860640441068 50.91219143103808,225.48034701443976 50.909861262189224,225.6542471551802 50.66985386668239,226.25662183528766 51.10122638219036,226.48878663539654 51.34269013325684,226.49685413367115 50.92180337768514,226.76980431796983 50.57577329769265,227.2448892153334 51.02200063993223,227.79526930174325 50.87636508443393,228.08838647213997 51.138509084354155,228.27617845963687 50.96491150208749,228.9825258817291 50.54751999990549,229.40337520081084 50.18372238217853,229.32404583820608 49.868858310976066,229.3110483692144 49.540595768834464,229.85066677711438 49.85779000876937,229.8829362744582 49.94983167992905,230.21952477633022 50.133623750996776,230.7712419636082 50.42081706656609,230.92183227930218 50.430720284348354,231.03567131829914 50.65179505769629,231.0217775804922 51.016757759964094,231.46144672867376 50.76772095996421,231.73035708873067 50.17818823107518,231.81416741700377 50.41266147547867,232.08487007691292 50.398389191017486,232.4048724597087 49.59914126212243,232.5052652679151 49.49952654214576,232.67781529994681 49.31165667553432,232.9597214241512 49.530110008781776,233.13720108778216 49.2472857600078,233.30706154060317 49.50651704892516,233.6248212432256 49.28631608886644,233.7906477036886 49.817012053215876,234.01428913732525 49.74361173331272,234.25989109050715 49.483797902124934,234.15725819091313 49.290393884293735,234.31322432507295 49.68040590209421,234.80353093327722 49.292141511105,235.44935359747615 48.959509902168065,235.81954671791755 49.02562844438944,236.3170207515359 49.30961777770426,236.34480755624827 49.777399182203226,236.92877781530842 49.659434382105246,237.42311213165522 49.392338773352094,237.6319602029398 49.672541582142,237.92147887439933 49.011647431063466,238.13122281280812 48.90941127098631,238.31228365842253 42.59494485333562,236.9995891455328 42.5349430043716,237.43073105619987 36.39145272877067,237.38053578377003 32.250742613337934,237.15286422532517 30.54447644436732,237.06636689812876 29.09977173327934,240.9493014283944 27.7573031821521,240.82784872234333 26.36269710212946,243.80498923867708 26.14045724447351,246.13361113209976 26.12531114660669,246.49885655206162 23.768345315475017,246.4737599537475 22.409565582172945,246.52171238022856 20.778738631051965,246.52888283558423 18.122637368855067,246.69201063294895 16.912697173305787,246.214727038634 16.698321635485627,246.8044970377814 14.948947342229076,245.95255673554493 14.240867271088064,245.75312783388654 14.015423431061208,246.29001691396115 12.9383028622251,249.2240611774614 11.209608817705885,252.31805286265444 11.179607893223874,252.35659304040018 9.008181759971194,256.0555223421543 8.826428586617112,256.32440258574206 8.827302400022745,256.49066003831103 7.31298389332369,258.74162119213725 6.517231217701919,260.1034795786836 6.544610702199861,260.19086408318253 6.5550964621361345,260.41447863110807 6.510823253192939,260.5569823725382 6.427228444372304,260.97777118260274 6.294700088794343,263.58449283911614 6.23528078221716,265.9823626423604 6.465967502095737,269.9078040671884 6.260038826614618,271.15487881947774 5.932358826510608,272.1801365526626 5.3125339021207765,273.0360080052633 5.059419306693599,273.2896320987493 5,273.94161495228764" stroke="red" stroke-width="3.544171846191695px" fill="none" stroke-linejoin="round" vector-effect="non-scaling-stroke"></polygon></svg>