<svg viewBox="0 0 385.7601370683768 301.6731929644519" width="385.7601370683768" height="301.6731929644519" xmlns="http://www.w3.org/2000/svg">
  <title>Hlavní město Praha, Praha, Česko</title>
  <desc>Geojson of Hlavní město Praha, Praha, Česko</desc>
  <!-- Generated from maps/2-geojsons/world/europe/czechia/praha/hlavni-mesto-praha/hlavni-mesto-praha.geojson -->
  <metadata>
    <collboard>
      <support-module name="@collboard/map-svg-geojson-import" version="0.11.1"></support-module>
    </collboard>
  </metadata>
  <polygon points="17.26135607196551,101.8301194753912 33.62642344973932,101.70807700870859 35.75896488975917,101.29313057329631 43.76476983195238,109.28100282106965 43.88652115640065,109.44241692404097 43.95664467641103,119.11923659241069 43.9555524097413,119.87928496529997 52.41632282753193,119.3131935027231 52.87762344973811,119.28482068016086 53.90085886307128,124.09732069615342 54.26618565417078,126.71470343802133 63.49605744086506,131.09639573721864 64.54776460530769,131.18013408253677 65.22213004528379,135.39854172933332 65.14348684529608,135.67163374585283 56.61142782307064,138.0761911907211 56.67041022309053,138.23422976948854 44.13628613418035,137.07224408550604 41.74021715640623,137.5565779829521 42.32239528974236,144.0454875689647 42.22256211641428,145.60321892069254 34.230446916411836,150.93900695674887 34.4825420630695,152.53884739280687 51.58008346752098,157.04865839956977 51.62901701419099,157.06476298257252 50.4819185608539,173.08906989802557 50.513011751976535,173.19145117696092 62.81237132531891,186.7863826077991 62.98028912085641,186.950967471017 83.61014810753471,191.81551768565618 83.84258245419545,191.89768923812147 80.5699330675015,210.5372261776974 80.62898828530518,210.72847825974526 74.069854134188,205.72635822448132 72.86340919197022,205.24886271173085 72.6129160364107,213.1952073565662 72.67167998307917,213.67184013616128 68.5338825786202,216.06762991141653 68.5266736186349,216.1299392054097 85.32304069419109,230.5530757798005 85.46627326308584,231.21496065578316 97.49598860530017,225.68043136522823 97.7582054230624,225.60227521822156 103.39524805419563,229.22916863741187 103.41935073862618,229.2469508183894 98.18739340528913,231.31247586898456 98.00141680085284,231.4733019716113 100.90262270307352,240.00671086353026 101.1143768008514,240.43475604759072 91.81088624084435,250.5046245412413 91.84460087198016,251.0125185439719 105.64473484528202,247.21236933773974 105.9121945430706,247.27532236547626 105.28377712086143,254.23786329581702 104.99257882753221,255.2942187116459 97.20442622308104,255.68659672027928 96.82810394752954,255.93316172097178 90.51829786751836,266.2661528634089 90.81000588530509,267.0883250497172 99.54340606306863,276.22849595376823 99.69035233864628,277.07609269055314 136.01222398308522,275.46508178951984 136.20657463196034,275.44493819358826 140.57221886307883,283.4273300847162 141.87187056085162,284.4118368924864 145.47620492529308,252.1778490613978 145.57480019641292,251.8509974809021 158.92754174307987,259.8725032741822 159.24349808083565,259.8951429957123 177.5505427741918,248.29829887186128 177.57595617861438,248.23489413484998 189.74176794752196,251.5812047615654 190.42545406306812,251.73574418724814 193.33969434751265,240.55569518865735 193.38447728085515,240.11236359856042 205.37312339640988,235.33615698550778 208.44406753864672,234.84601042278877 206.25800503195563,227.66238846427945 206.22196023197097,227.2214437938564 222.10584773419026,221.8403400028364 223.20321164529372,221.4920100133931 225.12567379641763,227.40810665362 227.93126995639244,227.03568642944805 239.3397040186282,218.09966917625928 239.78061566308673,217.82370508827802 233.41838078307404,210.14610904660725 233.208665583068,209.88596701223645 237.70989651642225,206.56247518955564 237.92616531638845,206.3547785431619 262.61612513861104,205.4005875347247 263.6159860452935,205.50698728910714 267.45180812529355,210.02566887768984 267.66836819639497,210.3051848351351 277.61811653418766,200.30233393876182 277.9180529608456,200.09370682978255 277.4339603741718,206.14946062145822 277.42332897863884,206.2268515183859 292.25740257864885,207.94403997694093 292.38738231196834,207.9485722403951 298.1860804097268,220.10399199904708 298.2688742230711,220.17887088320634 319.0161882853026,224.1044872724487 319.97672759196206,224.93103389464153 324.88187873862984,220.07136697646996 324.9072921430815,220.0448591312342 318.82919223198036,212.1835809622316 318.62035084529265,212.08274585339308 326.2556589341729,209.7888666399994 327.00553640972424,208.67112351644386 332.43330074752515,213.3762535293244 332.81712325419716,213.7065082954104 341.30199635641833,197.89123119923528 341.37437722752287,197.28628558501435 335.4108196808556,189.4456367461134 331.60965886309344,183.5554537821044 332.1775647119684,177.1534474124382 332.21397360084296,175.77608950274947 338.95282202751326,175.0820121658798 339.41856453418217,174.97067780010178 330.29551642753717,163.0960478520173 329.96412272083757,162.80812456288908 322.91091994753873,170.80295802698305 322.80700897860874,170.82620172463425 320.1282613875118,154.93608139582278 320.00570906752904,154.14306412231593 363.2084966230795,136.8716566597322 363.5509586319567,136.86189956020456 367.95643418752655,122.01024644759667 368.4987809964113,119.96531037758172 355.87246960086117,109.65593231165616 355.32386046306414,109.4314062726225 356.8081780452812,104.91083472750682 356.5145039475355,104.51907124951316 333.27187027641406,97.85616249307708 332.5623338497425,97.85128044290826 333.7419090319781,79.84284269687845 333.78559969862175,79.56526795035819 316.49640190306303,78.07515343292101 316.3715194142023,78.07265473099318 314.3984489075264,71.40775366455267 314.25885722750166,71.27473810252917 291.37536083640947,71.95276193655803 291.1151100986353,71.70661152409224 282.0423062586232,54.31639341584008 281.8033183119441,53.84665731630588 290.04781992973943,44.013082823501406 290.0129402141792,43.744985215718714 265.4000216008462,47.6483512761078 263.9637637519517,48.248258565716185 262.4992526052992,36.11836692715946 262.3354854230601,35.2862185766607 254.6725793964178,30.848485057827872 254.72275084529605,30.11754284958073 243.02857982307972,35.114126752410755 242.85075880973085,35.29769892334656 241.3661499564077,18.536309990962707 241.5748457075278,17.542205531939487 237.61712666751185,17.278411748604356 237.47658835641408,17.26135607196551 195.37859212530378,25.928019830291248 193.82786472973015,26.227696329693515 191.50242899642393,35.68018631503577 191.79654000084332,37.1640755098087 167.05764663197982,39.31385274489361 165.5926257608407,39.72779500934479 166.13883191197596,44.2392429817009 166.2040038230661,44.45130989306557 159.69817228529786,45.07068600510314 159.6769823119575,45.07227705391773 161.34174234750748,48.53383438247323 161.48912552972973,48.631223006672315 145.6712109341933,50.94508902024603 145.08415400974985,50.821000483676414 141.66390298751134,57.7515703205317 141.3909819564032,58.180824346552924 120.43111280085935,50.93838461021727 120.12709857862859,50.67907103174724 112.00740663196842,62.42966552893989 111.6973485342059,62.615190427404684 116.86478931641972,86.89667258375624 116.54693971640148,87.04384475930777 87.99195788528954,87.73211922140393 87.29115959197583,87.92664233346653 83.69774789420256,73.93532826278891 83.84789815194739,72.7360739677278 74.27418081862919,71.28291669472304 74.05776638306628,71.07754278481656 64.1347421697464,86.60902705033726 63.802110560867675,86.81422873725018 57.29373040087006,83.92554909056702 56.87619326306225,83.56634137606665 27.830565245316336,91.82717781608875 27.725197920855805,91.83535331713568 28.139094169735415,96.91176146841093 28.101884285297217,96.9648972344184 17.26135607196551,101.8301194753912" stroke="#009edd" stroke-width="11.091842295585476px" fill="none" stroke-linejoin="round" vector-effect="non-scaling-stroke"></polygon>
</svg>