<svg width="336.59734527999535" height="368.87826725875493" xmlns="http://www.w3.org/2000/svg"><polygon points="5,107.85253417445347 19.29121706658043,122.04386530164629 22.53685105778277,126.38832830812316 19.94016910227947,122.11108373885509 19.611906560021453,121.78505126060918 41.14004565333016,113.9153104996658 43.05748337775003,110.11980740830768 80.20998741337098,119.80186696961755 80.40426524437498,119.63084676780272 85.42927445331588,126.15283970534801 83.37581311992835,127.84606564801652 91.52120974229183,129.618840271316 93.41476323560346,131.12319527968066 91.3977107910905,141.07590926950797 91.09508010663558,142.1147291426896 96.43553592893295,146.4715914761764 96.25844309327658,147.0545420589042 131.18330567108933,149.20070110930828 132.19838549336419,148.19026245118584 137.49398556444794,176.10132488474483 137.4663148089312,176.6576808237005 151.39664696890395,197.2674438150134 152.09919288894162,198.96697029919596 148.5488893155707,214.27444943692535 148.3030564978253,214.22919914481463 140.1410574221518,192.3776881910162 139.34705237334128,189.94305428338703 127.6950428445125,191.48173146840418 126.99045802664477,191.33956656605005 106.40312462218571,177.13494804955553 99.87311758217402,175.64371305331588 72.82888618670404,180.00035789690446 47.232563484460115,182.74184487387538 47.34120760881342,191.4607038681861 46.7962393600028,191.77428917319048 18.940817920025438,182.29567560460418 14.785835520015098,179.7608132804744 30.538068479974754,196.89535635523498 30.75914325332269,197.11888317367993 26.566295608878136,207.2258025861811 23.609602559939958,212.86757229606155 33.123973404522985,208.60620541928802 34.980244195554405,209.1332244447549 44.09557361784391,229.86649722734 43.181564871105365,231.25681057886686 59.39138474664651,245.9715556630399 62.1476832710905,247.60397749650292 58.33436188439373,256.753446702729 57.86133760004304,257.99004177958705 50.90986126230564,255.0178146524122 49.9477927822154,255.80154701357242 66.36179370665923,261.4118911337573 69.42509198223706,261.7733573728474 74.33825308445375,268.65298222971614 77.35465671110433,271.0862744760816 76.47035761771258,284.2781267333776 75.71072255994659,287.03200158529216 83.91582976002246,274.53304898703936 91.9260765867075,278.69990359898657 85.15955740446225,328.71143990487326 85.59559025778435,330.7621498325607 75.1855607467005,339.73451983660925 74.5706874311436,340.422472993494 77.25067292444874,349.3866775110364 77.98904519109055,349.94761315896176 81.44701582216658,345.8415123487939 82.76734776888043,345.3700983089511 112.71467832894996,358.07918976654764 127.17250247113407,363.87826725875493 128.56011804449372,357.08479864837136 129.2521782044787,355.227097547031 137.03028195549268,353.52559928176925 140.0359085511882,350.5236212989548 148.8398691555485,356.0100106491009 149.46377187559847,356.0666506937123 187.5733927822439,293.55809282849077 187.90777201775927,293.073314683279 217.8216063999571,267.7331220966298 221.5390995910857,265.5986476916587 225.5070859377738,280.2895838880213 226.22128270217218,281.7832969883457 247.29387377772946,283.6923469461617 249.60773148445878,285.7005323685007 251.4709927822696,294.03007654007524 250.81301134219393,294.98317894444335 240.35841735103168,297.3544941501459 239.9191805155715,298.74254676664714 243.2871483733179,299.26843271241523 245.04671715560835,300.03053101792466 244.64913208899088,306.7910662777722 244.6578702222323,308.0040750473272 259.5694947555894,292.78637668373995 260.0567913244013,291.95023353007855 271.41345194668975,295.55065211380133 273.16894293332007,296.0454765384202 277.532475448912,305.5913002631278 278.6882392177358,305.88187634333735 289.1282696533017,306.19483913842123 291.8146631111158,307.0035146320588 294.6603818667354,299.6115600391058 295.35535473772325,299.1834503611317 320.9050740621751,311.3122877916903 324.3321699555963,312.2159725301899 329.8453495466383,312.6303504695534 330.55517724435776,313.03467658133013 331.03839601774234,307.3489140922902 331.59734527999535,303.9213940061745 331.21374122670386,300.0830736680073 330.6009068088606,297.77209880237933 303.7264864711324,284.09398552018683 303.637357511092,284.140591995907 304.4025267199613,268.5053844684735 305.6098454755265,261.0883532044827 285.1902842310956,260.53906877711415 282.27262151113246,259.7466709841392 284.8119230577722,238.57431864592945 284.6033729421906,237.31841765565332 300.2891960889101,239.21049278776627 300.4651238400256,239.31560758815613 304.52573440002743,232.16265753936023 304.6276792889694,232.16814196959604 303.81532416003756,215.4463830011664 302.5774219377199,215.08529650251148 308.4846913422225,199.3002002594294 308.0367163734045,198.46095345332287 276.64817635552026,180.35647430829704 272.6481501866365,178.13245144067332 274.485488355509,167.3370444625616 275.83552995556965,159.56405471765902 231.2515347910812,138.45368992752628 221.25423644448165,133.4172022306011 223.2491522844648,123.78330711927265 223.03390293335542,123.61366185778752 182.4024567466695,108.9152928784606 179.0615771022858,109.54590325750178 172.8924549688818,91.53597224591067 172.8965327644255,91.46325631893706 144.95839032891672,88.95156918029534 144.6749835377559,88.84775337093743 148.8357913600048,58.72168624191545 149.0996829867363,54.743623330956325 145.12441486224998,47.552552770706825 144.77343317330815,46.481259041815065 131.9566304711625,62.58761454874184 130.7688268800266,65.3173245122889 135.4285821155645,68.641596389818 135.47518549335655,69.52388287044596 129.40742570674047,70.47888875589706 127.07929571554996,69.47082686447538 130.7501855288865,46.72506802948192 130.9144624355249,44.30526309891138 122.85499079118017,20.122195080155507 122.75828878220636,18.333883845130913 127.63329336885363,6.383980520593468 125.55478272004984,5 120.43015879113227,17.341591190488543 120.25015324447304,18.47113005060237 120.31714559998363,43.65067605744116 119.2505107910838,46.85726453270763 110.24324295111,47.5365428692312 109.92167964449618,48.14171631884528 113.29226894222666,63.2874261821853 112.87429489777423,63.97900251467945 121.95933212444652,67.04441544809379 123.32248092442751,67.43868056777865 114.01724273781292,90.4104733056156 113.60858936887234,91.38596703635994 108.85387975117192,68.31045216880739 108.52590848004911,67.87639633833896 71.65710250660777,44.592530581518076 70.95572167111095,44.26089213206433 68.02000014227815,49.38910931535065 78.39449457777664,58.11517016321886 80.08444956445601,59.431573188863695 5,107.85253417445347" stroke="red" stroke-width="3.7832535057225822" fill="none" stroke-linejoin="round" vector-effect="non-scaling-stroke"></polygon><polygon points="142.3352027022047,143.0931904859608 145.79084316443186,144.2207016714383 146.4703786666505,141.11203029064927 142.3352027022047,143.0931904859608" stroke="red" stroke-width="3.9581901257422833" fill="none" stroke-linejoin="round" vector-effect="non-scaling-stroke"></polygon><polygon points="138.449354808894,177.4183821111219 152.3441518933978,199.88666545948945 152.63396664883476,201.9742492721416 141.6419774577953,236.259488199139 141.38653269328643,237.42993172083516 144.9132433066843,236.45006846182514 145.85754424892366,235.9413970275782 152.87135260447394,251.1457238807343 153.0898059377214,251.46607769734692 142.24345230218023,265.9655905177351 141.24555747548584,266.97959242993966 163.8706235733116,262.8481560777873 165.12745841778815,263.39606373920105 164.29354922671337,269.422042621125 163.90703246218618,271.2887048809789 177.3963801600039,304.8863318321528 178.056109226658,307.1574824489071 197.612925440073,282.9023184994003 199.6060936533613,280.77027824602555 241.2197060266044,254.25692891795188 244.27921777777374,251.82344758696854 282.03465301333927,259.7905408339575 282.27262151113246,259.7466709841392 284.8119230577722,238.57431864592945 284.6033729421906,237.31841765565332 300.2891960889101,239.21049278776627 300.4651238400256,239.31560758815613 304.52573440002743,232.16265753936023 304.6276792889694,232.16814196959604 303.81532416003756,215.4463830011664 302.5774219377199,215.08529650251148 308.9690752000315,201.468239453563 309.24636529781856,201.540004242328 276.64817635552026,180.35647430829704 272.6481501866365,178.13245144067332 274.485488355509,167.3370444625616 275.83552995556965,159.56405471765902 231.2515347910812,138.45368992752628 221.25423644448165,133.4172022306011 224.46491790225264,127.00517005554866 224.81822976004332,126.30099178827368 214.51131022220943,119.17860285600182 214.8113194666803,118.46845454379218 185.3425473421812,108.75478189403657 184.9135049955221,108.68847390287556 178.7895298844669,109.17960985266836 177.00753322674427,109.53218441456556 166.84100636444055,132.52740293834358 166.77022748440504,132.68103760969825 142.28772551112343,131.4633883976494 141.9920853333315,131.48122108669486 141.76722403557505,142.74661449721316 142.01334812445566,144.34826643578708 151.18664049787913,168.13800954888575 151.08120035554748,170.2519579671789 138.449354808894,177.4183821111219" stroke="red" stroke-width="3.32651965989211" fill="none" stroke-linejoin="round" vector-effect="non-scaling-stroke"></polygon><polygon points="169.46419399115257,200.22080821089912 174.64124671998434,197.57644962251652 175.16203946666792,196.3888775568921 169.46419399115257,200.22080821089912" stroke="red" stroke-width="3.273906335590843" fill="none" stroke-linejoin="round" vector-effect="non-scaling-stroke"></polygon><polygon points="169.61769386660308,204.44485837011598 169.61769386660308,204.44485837011598" stroke="red" stroke-width="3.8260940047668743" fill="none" stroke-linejoin="round" vector-effect="non-scaling-stroke"></polygon></svg>