<svg viewBox="0 0 2351.6549313956198 1575.3900316447973" width="1000" xmlns="http://www.w3.org/2000/svg"><polygon points="8.052550000000338,1299.6970111675105 29.962545520022104,1342.515784910392 30.455667511072534,1344.5808726107712 39.550899226662295,1330.645774936514 40.150917715487594,1329.8082336443254 43.520050657774846,1344.3323776130342 44.72008763554186,1344.411300737272 67.98769780444127,1329.3260934483037 68.92704713773128,1328.6712109547584 75.61870964439731,1342.7173787380812 76.26183625774138,1343.2892367273812 105.28379849773046,1349.5637916233168 106.09178455998335,1350.2041802545787 102.8190623555347,1367.4520266256072 103.10101279113587,1369.0866840587473 113.04559106656961,1378.1868803900793 114.77603273778368,1380.2322417854807 107.80853648889024,1386.6960171380556 107.07220312007848,1387.1978704591525 125.25509350220818,1401.4007886821414 125.79394505776145,1402.303882726795 158.4949527021745,1399.5035125574573 160.14034320889186,1397.4078329099352 200.331678746712,1437.3715256908104 200.42022516436555,1437.5099204724897 249.57222516448383,1433.2570584042473 249.81543654224515,1433.021286759969 281.33097076437116,1459.8016069024811 282.34663312891644,1460.2739936897774 276.2646010578392,1446.0293706336302 272.8538163467092,1443.1114546304811 291.89042235559464,1416.623038184574 292.8009358489435,1413.7110415710845 315.6561061243774,1432.5763403448286 319.0910663377508,1432.6678542204677 330.9769665688291,1411.0663614039436 332.49186761779856,1409.1849491006938 359.5969746755218,1412.749835227943 363.7213736088961,1415.8498457761957 382.738173182217,1399.0503821499656 384.0570487733712,1397.966472370062 415.23529104886256,1391.7465118121831 415.8484167377246,1391.8853863678883 428.02704443547555,1405.37022663185 428.58599369772855,1405.6880851411038 477.37769133339316,1420.9920874649902 478.80055071108654,1422.804872400105 484.94404098668747,1474.087700729236 485.10336628437653,1475.392536423496 497.59714932446514,1502.1748790440392 498.6731048088768,1505.7215752453553 493.6879997422002,1518.523002634734 493.8819863021854,1519.4395825885945 521.3820569866584,1502.5313539050762 522.2995609866703,1502.6165292283763 527.6435120621245,1513.8143167439625 527.6851638310836,1514.4542245015978 524.0075747822193,1547.3492702684375 524.3043800444357,1547.611502338877 557.1131579999128,1552.7592074174095 558.3466911555515,1552.5744778647563 576.1104424088044,1535.4885725383424 577.2699927022695,1535.583648119798 591.0136200799388,1563.3268297767277 591.6573292355533,1564.5090381052355 610.5969419644462,1555.9356301987204 613.2696456799531,1555.3931635316471 623.592585128943,1567.244221983688 624.5686346222428,1567.1401495613168 618.4656310310602,1544.3452938650512 617.9465859110715,1544.0758486376503 632.0257576089134,1523.0459314210234 632.6039307644605,1521.8743139306093 672.4014677599553,1505.9685349229035 672.6295330399662,1505.487233687752 704.4800290399944,1518.3373429038688 705.5321002932978,1518.4711801528824 726.3696355821812,1511.9824577767645 726.5301259644111,1511.959474946932 749.8775444177227,1452.5646760232407 749.9652170222034,1452.0855110743792 730.0166411644095,1446.0636298827371 730.355680737739,1444.7342769261227 762.7374552445035,1402.2087491814523 765.0830615021769,1400.443135205634 800.2473489333424,1401.2948338192432 800.3190016266672,1401.2975390504357 803.687552026684,1421.698088060169 804.6775825333098,1423.7489031692744 832.7674772176906,1443.213782947721 833.99605876438,1444.4061071667597 849.1395351021565,1397.7108239807199 848.9414707466276,1397.3347903569006 860.4318248089185,1388.85402333513 860.7988264088999,1388.7566294484782 892.5508727733759,1416.7776763380748 892.8575812532581,1417.4972156958315 898.062304737723,1417.6220979121058 898.6139722222943,1417.5035274340548 906.2505182133536,1387.5013265805678 906.3603274222478,1387.1802853218755 928.4963493244504,1381.2914392730231 928.5015922044186,1380.822038210033 942.526004933381,1410.1700663565202 943.1292274043444,1410.4734905943983 990.1010631377358,1411.8026010155222 995.3057866222007,1413.8124819565342 1013.6710127199549,1362.3373864003001 1014.4079286311535,1356.0970205345434 1067.0117825688576,1382.9210332193538 1068.4425062666196,1383.3773534202842 1129.4288515110748,1301.5053892976498 1130.2898489155123,1300.7750932208505 1164.1064249155825,1292.2035173344552 1162.3526815555306,1286.8335934403362 1179.1642675467083,1294.6024376733471 1180.0555571466466,1294.9872187973592 1221.490037786636,1269.954735101062 1221.6793640089236,1269.5622404590026 1256.448687813223,1270.2714371604739 1256.9278287910638,1270.1726369946623 1270.3775636177525,1232.7056571331118 1270.5447532355101,1232.0355947487183 1278.6869458756191,1238.1071422266318 1279.8951384444736,1237.7024077238525 1296.7451722222395,1213.792864479335 1298.1368655911429,1212.2369185057246 1289.451743599937,1181.735342061765 1289.0294004888055,1181.3431402475467 1291.3502487021979,1160.1176083014357 1291.371511493322,1159.5087097214196 1308.1991173955394,1135.8176715259683 1307.3054976266358,1135.4511182459896 1334.445557217674,1139.7856165561602 1334.8381906755749,1139.915171680484 1335.5719026044026,1104.5604744499792 1335.520930160048,1104.4733379203603 1358.8677660710891,1103.7478008034882 1359.0323342488628,1103.6245450363272 1368.1296048622826,1137.827383750678 1368.0675641154885,1138.693197469554 1384.634773644364,1151.818567277492 1385.614900933324,1152.6482147365818 1390.6629205599675,1174.0071666695071 1390.8437999200323,1174.5000304944474 1424.5942573777647,1195.540938921658 1424.9263064444312,1196.2458629559037 1445.6071378754932,1200.937024830178 1447.565353555583,1201.1676315370491 1488.250393626724,1185.7078689714904 1488.8742963466575,1185.6040660744543 1515.26986697768,1207.4792110195626 1515.7079387289486,1207.321265809332 1527.5402450755719,1180.1236543893824 1528.5098866043627,1178.8603826233661 1557.7637006488876,1160.266560253141 1558.808198853374,1159.2496226351718 1539.5572173066685,1131.1192425029362 1538.740201840039,1129.1537090660781 1561.975480915491,1093.2473338665218 1563.5990260888138,1090.5965148687023 1610.921843511147,1090.7057810805632 1611.1650548889083,1091.2588840002786 1614.5537029955085,1072.6490234350563 1614.6786583022695,1072.4376977033457 1583.7354718133356,1049.0235270265034 1583.4412879911033,1048.7539220526592 1568.4000478132875,1018.4846958081249 1567.7537172178054,1017.4779377684241 1552.0073096799679,956.7743615157448 1550.609208346672,956.1174576077389 1552.5315976799247,939.2559462604473 1552.6029591022307,935.8405635237938 1576.378254817777,942.9545661219523 1577.3811012533042,944.0384766832937 1619.3908423377216,887.4727543871628 1619.4910395999686,887.0727927546028 1657.4425002933494,869.2983905018551 1657.6056121155634,869.1704825955454 1658.8411841689158,838.6304372855008 1659.0360445421902,837.9822184409492 1645.9536025866182,817.179880481424 1645.6521369865877,816.4805128059594 1649.4491471911097,799.3984281787194 1650.6998653422124,798.657408695413 1676.8650405243752,811.5297212297224 1680.0055256443811,813.1278568033373 1679.5112385689063,826.7230641580896 1690.316814248894,834.2578610032575 1738.416160453322,840.2564003504009 1750.9489738221528,839.5308887198113 1759.9477948000203,863.9388493986113 1760.1505194933634,864.5056345511472 1790.1025103911306,877.7970927571656 1791.3459467644352,876.4073308004077 1819.130006782223,916.9400016898068 1820.4876214311007,918.2680513001757 1829.8327637599796,910.8794018843688 1830.2848165244577,910.8369246739672 1826.6209172177842,901.1189158091798 1824.3152151021422,893.933953917796 1828.678456346599,888.8606381645437 1828.5237913866076,885.4069559701962 1883.6887922044625,941.8358599573618 1884.247450195464,942.4146420126559 1906.397453111109,928.8288986084295 1907.6470061777873,928.4579310714977 1948.390300471081,924.7572581571072 1953.625607422182,921.9634118800528 1972.6033766666442,943.3996071661601 1973.8109866933446,944.546317879263 1980.53876681775,925.421486120416 1980.687315084484,922.9471137340657 1989.9456586221713,957.1534131465374 1990.578008204444,960.6687581201328 2001.3087272088524,959.2329898233071 2006.7307389421403,958.9596596723201 2006.335192773353,947.0561384719109 2006.0678058933481,938.5411556706309 2016.594052577835,938.2031881293293 2020.2020278310883,938.0870681446755 2018.274978159905,911.2806755492708 2018.595667653346,907.6687341164576 2034.3621728977669,900.3841164244583 2034.9648128265762,899.6154214316408 2064.509024168925,925.140883941705 2069.544227866667,929.8419395113957 2075.6850967022838,921.6733161369117 2080.467477075501,915.3855543188762 2098.5324026577655,914.1921469507284 2100.3877996355077,915.8722240610874 2156.912745271089,861.11484529751 2157.7612180177603,860.6126858121494 2165.230574391062,837.2747807542106 2165.8664192267242,835.9941544950485 2194.1572909777533,845.7584574011631 2206.253197679973,849.7542778037383 2228.616411048897,821.9275648118706 2231.3764960977496,818.939817791375 2243.5152196533527,823.3628803896496 2244.517483546726,823.5956944675196 2258.1265436711037,812.8217932728945 2259.2630835466334,812.3109329526557 2297.930197359972,745.0635889063484 2301.0124282578254,740.8885738966998 2330.1913856266547,732.9421671854576 2334.3204448977267,733.4636151882947 2332.3671808267027,712.3080164508207 2331.7313359910404,709.6738252923602 2340.538791848907,694.6057671190716 2343.60238139562,688.7298786453681 2277.570055422235,652.5365244640049 2277.367913271046,652.3854159527469 2277.1334400266423,630.4283268876385 2277.1092645245153,630.1310562598297 2250.154162088853,630.1455352038389 2249.8984260533252,630.1373907979356 2228.3044596889304,594.2203171619691 2226.663729520027,592.0010421863768 2228.529903528841,588.8589917007845 2229.3815802577665,583.0336560396023 2222.521271777783,581.1577670771873 2219.370883439995,578.8406033052376 2226.9567482577186,534.2344743453792 2227.0217017155155,531.3880916159029 2212.7788356533056,469.5796483388764 2210.924603759988,467.6090523869858 2096.2383513866007,438.8712835021794 2094.6759731466664,438.57148724058754 2053.9664663021467,452.30417828632164 2051.6470744444305,453.93030709241395 2030.3796229954824,434.3108939818118 2030.2741828533835,434.23390545484256 2028.864430675494,370.33944881175523 2028.9532683643993,370.2556425801955 2007.9138821955785,317.4925421359145 2007.7994126488702,316.77163265480306 1971.7374276532573,331.1463256948406 1968.9182145688465,332.2437022226874 1959.8497797954842,313.1208306641562 1959.785700151093,312.97401793560823 1916.5971848800327,306.005737045292 1910.396022924433,306.1063341801997 1912.4439501066008,313.9088145757338 1895.5811003999333,314.1430795133125 1895.3975996000008,314.1462513772782 1895.9888799555847,335.1357295752747 1895.7975148354672,335.2240801121585 1906.7662023377852,352.0693809137225 1907.0982514044517,352.67963107579965 1899.9446329156417,364.7945778446516 1898.3889539111187,368.8073752058914 1855.533070248879,386.990881077632 1854.1990485599745,387.29346613304335 1835.78197620446,348.194456371573 1834.1092062133612,345.39230794143043 1805.78425574219,336.0944442547403 1802.4433760978063,335.02970888376115 1798.2808206488626,321.62492506267847 1797.4984664444128,319.0779908617038 1757.4548053600374,332.3882365392416 1746.82486616003,333.91105152070634 1715.2126299288138,306.9024999564059 1711.3113446666175,303.2587829123728 1682.7082302844865,254.84244923140034 1681.8641266043778,252.59569328433247 1677.9427436354817,239.59378682552017 1677.8224486666513,239.45145732173808 1706.4034264444854,205.1414407595654 1706.5604215733256,204.96780755031034 1655.850412399952,162.9893901800748 1655.4927314754823,162.50103691055085 1666.4084076356157,112.69594818828739 1666.395300435579,107.40802910246532 1600.8715338222464,90.16187136396877 1598.147275119998,89.37942773928046 1602.8897513511838,67.0076078215858 1602.9820842933623,66.52811199179962 1591.94232663999,68.33313384405449 1591.879994622177,68.32542204592721 1585.9115582844024,39.24001950826607 1585.873401768833,39.07805004352815 1551.6094333422152,42.64044304865058 1551.2587429244086,42.75840208479315 1542.1620548533756,29.1160157460032 1540.3104443999255,23.63686133208796 1510.9526465688614,10.55275778411999 1508.1605216978132,9.206006960164473 1423.278585768865,64.32069372558146 1421.1319176800098,64.88502555594425 1425.1485463022036,99.97460960815772 1425.468361982239,104.71254241248937 1418.4003771999633,129.20473175866175 1417.977451546678,130.6532326328812 1431.5559282044196,163.54575789065677 1431.8145769510666,165.61205975592713 1442.1809157954776,169.74369781741518 1444.2824368622169,170.3521918835828 1457.9975196710802,164.97362581091113 1458.0898526132587,164.89291456805188 1477.7506526133293,133.19738272616053 1478.1802775022588,131.71443254230655 1532.5696233510753,140.84053826388083 1535.3824284710936,141.4781360056728 1548.7954631377725,182.79420777349844 1548.8892524355106,183.10070376672195 1533.4821757421378,205.53358836004156 1531.1584148177426,207.52650328682614 1537.769686497726,217.54837658614963 1542.9939251467367,219.57064738745214 1541.0124077778091,235.27853250536248 1541.0065823555706,235.42267788496213 1525.3833824977992,245.56972893849127 1525.2799812532976,245.76599306715764 1539.148272666709,260.7731027962651 1539.246139759991,260.7844336573977 1537.7711428532857,279.50266458802037 1538.5339818933062,284.1891086856846 1509.0972495911192,257.63669779562736 1508.9262734488366,257.5333588276768 1430.6066756533473,257.8415626222628 1427.851833484463,258.9352293326298 1420.2062580889105,226.40978186429822 1419.6164340888863,224.2062504201673 1378.3832217866802,242.92898468845635 1374.862336595521,246.0778396330203 1360.0654728800073,282.2866266619309 1357.4175272088978,284.40391861819774 1324.5251544443672,267.5420541884156 1318.2383587821168,267.18219691768866 1277.4245768799228,285.1911000415927 1272.257136097738,284.45920721637196 1184.0515055199867,396.191906132946 1181.396278071079,403.6876935772376 1142.9479088622393,413.4165685127733 1141.519224062191,413.83551636161394 1087.779121519976,398.24966111841024 1084.281829288906,397.64497396295303 1023.7152057154817,431.6479808984801 1023.0889728266993,432.04696705679055 1002.9994217511048,395.37976019757446 1002.6938783555306,395.0930397998087 989.0216124000508,398.70396804213635 988.7944209333291,398.65142611330486 972.9498550310745,386.2421171507809 972.6958666222417,385.9431544285977 970.6858046843918,367.8374791614257 970.2305479377756,367.28571012503346 948.8104704266661,367.3899030714307 948.3103579288363,367.2009966927941 933.7855414311416,342.44650205280743 933.2653312267284,342.06773974703503 922.9930729510743,353.5820914344873 922.6971415022635,353.5925113865884 900.4282999733477,334.570285291156 900.3863569333698,334.57209761496745 927.2313588888865,296.346383158561 930.9316670844346,291.0665468365547 908.7359346045196,262.0779608804511 904.2273490754669,256.1899477829353 819.0544333066573,246.32078955512372 818.1686778578223,246.23285621914658 801.3923356710948,220.73114400785528 800.6734785688823,220.31590452136118 791.4663987465683,228.96822570535699 790.5963719377542,228.89524429004052 780.6646095911055,215.99482829447481 780.3520756888684,215.8207504100643 757.5904034400373,215.4127548230823 757.2222367556315,215.00158516385238 740.1939450577847,190.90759162951838 739.8610221777126,190.26016421712814 757.2525289511323,169.3532994622725 757.3072879198953,168.92027840068442 751.41778605336,148.55915469272406 751.2255471199533,148.3256185234419 735.7322541777758,147.87804462129827 735.6096290399801,147.57603374802386 745.0966204000651,117.3161391137179 745.2844902666766,116.86305905433949 736.2868343733498,111.608349968075 728.6199961866732,105.80244286682102 712.892521271111,108.8271941962663 711.3505320088952,110.60737382752234 714.7266554577291,120.89448603240419 716.0717454489568,126.62153283294867 699.1407383022379,140.1113345747359 697.7277821422103,141.1148959847411 653.8527408622685,146.27547763390578 653.1006788533196,146.35528883254267 633.6067771999878,165.46968189339498 632.9068527199342,165.68596924652923 594.3830442932449,168.52670458405157 593.9240010222202,168.42921787207126 570.6826052533943,148.9427883222594 570.5017258933294,148.87975636576414 483.3068060711739,166.3534206884575 482.37706868441455,166.52481753568975 456.2500500177048,182.93113355155913 455.39138278223254,183.36367335785292 459.45694495106727,200.82867726925872 460.019972008864,202.47527170633077 440.1622727378053,206.4339384447445 439.1783589244369,206.38407020914713 424.16770221337356,253.39658715864755 423.7558448621785,256.39028153461516 398.80352258668427,260.2274078304541 398.1682602932924,260.8098147839552 384.4659934133306,291.6207747878285 383.6772312443718,292.8008269874041 320.0557562577087,354.31511120362086 319.1609714044971,355.36117779018934 305.11471334225644,358.1178948248049 304.2598326310763,358.84682206062246 291.12408806218446,382.5046006612025 290.8465066932622,383.5500789477152 351.40380959105823,421.17263460995275 351.80343355550576,421.11556908777095 365.4116198667107,418.28129602134106 367.2492493067184,416.8795446001237 399.73151234663237,366.365185929673 400.5858105155421,366.2628045534726 428.51113702214934,400.02113570352196 428.54783718227554,400.06371251706844 422.4084247022183,414.69333787667676 422.2255064444398,415.91439161144774 429.54223675558023,449.9199825388856 429.668648417668,450.1867058279237 452.5293528444381,462.04129805978266 453.72269058667734,464.73191407844536 438.74349115553923,477.5800305772351 436.21118011556246,477.4188395159796 438.010944311136,486.5191561181342 437.98094338665396,487.14080177536346 461.35952784887195,488.1441241654462 461.71342224881664,487.918195925398 489.0908677956104,505.93738825186267 489.1098004177693,506.1546960543852 532.1072418399635,506.58161471060123 533.3489305866897,506.76949487234344 549.4218530399739,521.4489994117536 549.4943795467043,521.478877121444 555.989434053401,546.6960146671405 557.2931635466884,550.8077593019476 585.1683914222303,527.3044995821907 585.5176254844773,527.6761499093624 561.7277662133347,578.6595738484535 561.6974740177175,578.7405845488898 560.3483062311789,569.9039047467301 559.5184748355314,569.4309455901163 524.1919493955575,564.8796230284275 521.8038175555193,564.6818356756481 472.1764631022015,576.2373852582892 471.96441773334664,576.290336978134 473.10940447109897,624.7923325744702 473.0179453422097,625.3122292849945 435.3825138044558,621.2978162545256 434.9013339289013,621.3172731235169 419.53678281777684,659.4589012220746 419.1668685066761,659.7642751772433 372.80844973339845,676.8563916625932 371.87754726221465,677.6765370964782 347.45592095106986,670.9809297793323 346.4690944266986,670.6013807183259 324.28909058668796,698.3899545304954 324.2786048266353,698.4749916957004 315.0523011111436,697.3052754412416 314.85336294220906,697.4608761090564 307.5911003288129,717.1317060921352 307.0580741954982,717.9471772605099 265.4447530932739,711.2604950676683 265.33785659561545,711.2555197813559 244.0176850755015,762.7255690427043 242.72706278225087,764.7577106918685 215.62224699554645,774.2701790620118 215.47806779549137,774.4591852596274 235.60111504884117,787.0494327472767 236.63134096886643,788.4623708290525 214.4702697510147,807.3912416423915 213.94656429332827,808.3067412113083 227.91621805329487,816.6825927716924 228.29778320887272,816.8661372765561 238.52198175105877,795.46091387116 238.92772240888007,795.1760754263738 263.4862461421653,827.8825935689744 264.0652931111181,829.1596509951411 230.44852909327165,868.6000937755813 229.51675280891504,867.9017948150646 254.1981929511312,899.5792687491991 254.27770996440813,899.646151207016 243.84088351109676,910.7601041659724 242.90444688892603,911.5481909160513 218.1790248089019,910.3488880463188 217.86357819554541,911.5007431130867 242.2182121511796,945.365457817075 242.27675764446758,945.740914753616 203.864214782232,976.2686891323898 203.60964383112878,976.3856923093332 182.20121716449648,971.3793458768411 182.05820304886583,971.5867035981279 174.78749357336346,984.7812971459713 174.26320557329018,985.5514992326858 179.35054680004396,996.7469041939836 179.35782857784216,996.8069812792597 172.96209751998686,1001.5972851349285 171.7046801332399,1002.4229864866717 169.38179302225035,1037.2391758323424 169.47121325330954,1037.820866399888 194.15090576883085,1049.3816450112276 194.1710034755306,1050.1290394181628 172.80218967991095,1056.0105602753824 171.39826292449288,1058.545743153874 175.42304713777412,1071.0690425542775 175.0429383377559,1073.559347326263 155.92361133333907,1097.0255193388216 155.70428418668598,1097.396652101575 151.04015988446918,1133.0197529629581 151.25599177784898,1137.9740938246027 123.11861990215402,1163.6716644449984 122.94764375998784,1165.1485170996525 100.21859387550649,1170.292598593725 96.7912067111829,1170.8071354856143 80.93819394670572,1189.5232681910052 80.82022914660774,1189.309347641632 77.72197833771497,1212.5058705160404 77.19856415116374,1217.0166337532933 67.32971636448201,1216.5676373842648 65.39858889775496,1218.6677591993134 64.78225922663842,1231.3921524376851 64.35117798226565,1235.2730825355752 45.930901644380356,1235.269021605352 45.3439903554754,1234.7018442732292 34.342971759942884,1254.2241707950375 33.532946799976344,1256.8026226366414 15.393747084403003,1261.7455854062932 14.759941146570782,1262.328483102006 8.052550000000338,1299.6970111675105" stroke="#009edd" stroke-width="5.345285760547642px" fill="none" stroke-linejoin="round" vector-effect="non-scaling-stroke"></polygon></svg>