<svg viewBox="0 0 599.9925578489049 405.9263329111993" width="599.9925578489049" height="405.9263329111993" xmlns="http://www.w3.org/2000/svg">
  <title>okres Opava, Moravskoslezský kraj, Moravskoslezsko, Česko</title>
  <desc>Geojson of okres Opava, Moravskoslezský kraj, Moravskoslezsko, Česko</desc>
  <metadata>
    <collboard>
      <support-module name="@collboard/map-svg-geojson-import" version="0.11.0"></support-module>
    </collboard>
  </metadata>
  <polygon points="8.052549999999883,330.96366529187765 13.530048880005324,341.66835872759805 13.653329377767932,342.1846306526928 15.927137306665372,338.70085623412854 16.077141928871697,338.49147091108136 16.91942516444351,342.12250690325857 17.219434408885263,342.14223768431805 23.036336951110115,338.37093586207595 23.271174284432618,338.2072152386896 24.944089911099127,341.7187571845203 25.104871564435143,341.8617216818453 32.36036212443241,343.4303604058292 32.56235863999564,343.5904575636447 31.744178088883473,347.90241915640183 31.814665697783767,348.31108351468686 34.3008102666422,350.58613259751985 34.73342068444572,351.0974729463702 32.99154662222236,352.7134167845139 32.80746328001942,352.83888011478814 37.353185875551844,356.3896096705354 37.48789876444016,356.6153831816988 45.66315067554342,355.91529063936434 46.074498302222764,355.39137072748383 56.122332186677795,365.3822939227026 56.144468791091185,365.41689261812246 68.43246879112075,364.35367710106186 68.49327163556109,364.29473418999225 76.37215519109259,370.9898142256203 76.62607078222891,371.1079109224444 75.10556276445959,367.54675515840756 74.2528665866771,366.8172761576203 79.01201808889846,360.1951720461435 79.23964646223567,359.46717289277115 84.95343903109415,364.1834975862072 85.8121790844375,364.20637605511695 88.78365414220707,358.8060028509859 89.16237940444944,358.33564977517347 95.93865616888024,359.2268713069858 96.96975590222382,360.00187394404895 101.72395579555405,355.8020080374914 102.0536746933426,355.53103059251555 109.84823526221544,353.9760404530458 110.00151668443095,354.0107590919721 113.04617360886868,357.38196915796254 113.18591092443194,357.461433785276 125.38383533334809,361.28743436624757 125.73955017777143,361.7406306000263 127.27542274667167,374.56133768230904 127.31525407109393,374.88754660587404 130.43869983111608,381.58313226100984 130.707688702219,382.46980631133886 129.46141243554985,385.6701631586835 129.50990907554615,385.89930814714864 136.3849267466644,381.6722509762691 136.61430274666736,381.6935448070941 137.95029051553092,384.49299168599066 137.9607034577707,384.65296862539947 137.04130619555463,392.8767300671094 137.11550751110872,392.9422880847193 145.317701999978,394.2292143543524 145.62608528888768,394.1830319661891 150.0670231022009,389.9115556345856 150.35691067556718,389.9353245299495 153.7928175199845,396.87111994418194 153.95374480888813,397.1666720263089 158.68864799111134,395.02332004968014 159.35682391998807,394.8877033829118 161.93755878223556,397.85046799592203 162.1815711555605,397.8244498903292 160.65582025776484,392.1257359662628 160.52605897776766,392.0583746594126 164.04585190222815,386.8008953552559 164.19039519111493,386.50799098265236 174.13977943998862,382.5315462307259 174.19679575999135,382.411220921938 182.1594197599984,385.62374822596723 182.42243757332426,385.65720753822063 187.6318213955451,384.03502694419115 187.67194399110258,384.029281236733 193.50879860443047,369.1805815058102 193.53071675555066,369.0607902685948 188.54357279110218,367.5553199706843 188.62833268443455,367.2229817315307 196.72377631112568,356.5915997953631 197.310177875544,356.1501963014085 206.1012497333354,356.3631209548108 206.1191629066666,356.36379726260895 206.9613005066708,361.4639345150423 207.20880813332724,361.9766382923186 214.23128180442245,366.8428582369303 214.5384271910948,367.14093929168996 218.32429627553893,355.46711849518 218.2747801866567,355.3731100892252 221.14736870222941,353.25291833378253 221.23911910222478,353.22856986211957 229.17713069334377,360.2338315845187 229.25380781331432,360.4137164239579 230.55498868443055,360.4449369780265 230.69290555557336,360.41529435851373 232.6020420533382,352.914744145142 232.62949435556175,352.8344838304689 238.1634998311124,351.3622723182558 238.16481055110444,351.2449220525083 241.67091373334506,358.5819290891301 241.8217193510859,358.6577851485996 253.56467828443374,358.9900627538806 254.86585915554997,359.49253298913357 259.4571656799885,346.62375910007506 259.64139465778817,345.0636676336359 272.7923581422142,351.7696708048385 273.1500390666547,351.88375085507107 288.3966253777685,331.4157598244125 288.61187472887786,331.23318580521266 297.0660187288954,329.09029183361383 296.62758288888244,327.7478108600841 300.83047938667687,329.6900219183368 301.05330178666145,329.78621719933983 311.4119219466588,323.5280962752655 311.4592535022307,323.4299726147507 320.15158445330553,323.6072717901185 320.27136969776575,323.5825717486656 323.6338034044379,314.215826783278 323.67560080887733,314.0483111871796 325.7111489689046,315.566198056658 326.0131971111182,315.46501443096315 330.22570555555967,309.4876286198338 330.5736288977855,309.0986421264312 328.402348399984,301.4732480154413 328.2967626222012,301.3751975618867 328.87697467554926,296.06881457535894 328.8822903733303,295.9165899303549 333.08919184888464,289.9938303814921 332.86578690665874,289.90219206149743 339.6508018044183,290.9858166390401 339.7489601688935,291.01820542012103 339.93238815110044,282.17953111249483 339.9196450400118,282.1577469800901 345.7563540177721,281.9763627008721 345.7974960622155,281.9455487590818 348.07181371557044,290.49625843766955 348.0563035288719,290.7127118673885 352.1981059110908,293.99405431937305 352.4431377333308,294.2014661841455 353.70514263999166,299.5412041673768 353.7503624800079,299.6644201236119 362.187976844441,304.9246472304145 362.2709891111076,305.10087823897595 367.4411969688731,306.2736687075445 367.93075088889555,306.3313203842623 378.1020109066808,302.4663797428726 378.2579865866642,302.4404290186136 384.8568792444198,307.9092152548907 384.96639718223696,307.86972895233305 387.92447376889277,301.0703260973456 388.16688415109047,300.75450815584156 395.4803376622217,296.1060525632853 395.7414622133433,295.851818158793 390.9287168266669,288.8192231257341 390.72446296000953,288.32783976651956 396.53328272887256,279.3512459666305 396.93916902220326,278.6885412171756 408.76987337778655,278.7158577701408 408.8306762222269,278.8541335000697 409.6778382488769,274.2016683587641 409.70907707556717,274.14883692583646 401.9732804533337,268.2952942566259 401.8997344977756,268.2278930131648 398.1394244533217,260.6605864520312 397.97784180445115,260.408896942106 394.04123991999177,245.2330028789362 393.6917145866678,245.0687769019347 394.172311919981,240.85339906511183 394.19015227555747,239.99955338094844 400.133976204444,241.77805403048808 400.38468781332585,242.0490316708234 410.8871230844302,227.9076010967907 410.91217239999196,227.8076106886507 420.40003757333716,223.36401012546378 420.44081552889065,223.33203314888635 420.74970854222875,215.6970218213752 420.79842363554735,215.5349671102373 417.52781314665435,210.334382620356 417.45244674664673,210.15954070148985 418.4016992977772,205.88901954467985 418.7143788355529,205.70376467385324 425.2556726310936,208.9218428074306 426.0407939110951,209.32137670083432 425.91722214222636,212.7201785395224 428.6186160622233,214.60387775081438 440.6434526133303,216.10351258760022 443.776655955538,215.92213467995282 446.0263612000049,222.02412484965282 446.07704237334065,222.1658211377868 453.56504009778246,225.4886856892914 453.8758991911086,225.14124520010193 460.82191419555556,235.2744129224517 461.161317857775,235.60642532504392 463.4976034399947,233.7592629710922 463.6106166311142,233.7486436684918 462.69464180444584,231.31914145229496 462.11821627553536,229.522900979449 463.20902658664954,228.25457204113593 463.1703603466517,227.39115149254906 476.9616105511154,241.49837748934044 477.1012750488658,241.64307300316398 482.638775777777,238.24663715210738 482.9511640444466,238.15389526787442 493.13698761777005,237.2287270392768 494.4458143555453,236.5302654700132 499.19025666666084,241.88931429154002 499.49215917333595,242.17599196981575 501.1741042044373,237.394784030104 501.2112412711208,236.77619093351643 503.52582715554263,245.32776578663436 503.6839145511108,246.2066020300332 506.3665943022129,245.84765995582677 507.7220972355349,245.77932741808002 507.623210693338,242.80344711797773 507.55636397333683,240.67470141765773 510.1879256444586,240.59020953233232 511.0899194577719,240.56117953616888 510.60815703997605,233.8595813873177 510.6883294133363,232.9565960291144 514.6299557244415,231.13544160611457 514.7806157066439,230.9432678579102 522.166668542231,237.32463348542626 523.4254694666665,238.49989737784892 524.9606866755707,236.45774153422792 526.156281768875,234.88580107971904 530.6725131644412,234.5874492376821 531.1363624088767,235.00746851527185 545.2675988177721,221.3181238243775 545.4797170044399,221.19258395303734 547.3470560977653,215.35810768855265 547.5060173066809,215.03795112376213 554.5787352444381,217.47902685029078 557.602711919993,218.47798195093458 563.1935152622241,211.52130370296766 563.8835365244372,210.77436694784376 566.918217413338,211.8801325974124 567.1687833866813,211.9383361168799 570.5710484177757,209.24486081822363 570.8551833866582,209.1171457381639 580.5219618399929,192.3053097265871 581.2925195644561,191.26155597417494 588.5872589066635,189.2749542963644 589.6195237244315,189.40531629707368 589.1312077066755,184.11641661270517 588.9722464977599,183.45786882309005 591.1741104622265,179.6908542797679 591.9400078489048,178.22188216134202 575.4319263555585,169.1735436160012 575.3813908177613,169.13576648818673 575.3227725066604,163.64649422190962 575.3167286311286,163.57217656495743 568.577953022213,163.57579630095972 568.5140190133311,163.5737601994839 563.1155274222324,154.59449179049227 562.7053448800066,154.0396730465942 563.17188838221,153.25416042519612 563.3848075644414,151.79782650990057 561.6697304444456,151.3288542692968 560.8821333599985,150.74956332630939 562.7785995644294,139.5980310863448 562.7948379288787,138.88643540397572 559.2341214133262,123.43432458471909 558.7705634399967,122.94167559674645 530.09900034665,115.75723337554484 529.7084057866664,115.68228431014688 519.5310290755365,119.11545707158041 518.9511811111074,119.52198927310349 513.6343182488704,114.61713599545294 513.6079582133457,114.59788886371064 513.2555201688733,98.6242747029388 513.2777295910996,98.60332314504888 508.0178830488944,85.41254803397862 507.98926566221735,85.23232066370076 498.97376941331413,88.82599392371014 498.2689661422114,89.10033805567184 496.00185744887085,84.31962016603904 495.985837537773,84.28291698390206 485.188708720008,82.540846761323 483.63841823110806,82.56599604504993 484.15040002665,84.51661614393345 479.93468759998314,84.57518237832812 479.8888124,84.57597534431955 480.036632488896,89.82334489381867 479.9887912088666,89.84543252803962 482.7309630844461,94.05675772843063 482.81397535111273,94.20932026894991 481.0255707289102,97.2380569611629 480.6366509777795,98.24125630147284 469.92268006221957,102.787132769408 469.5891746399934,102.86277903326084 464.9849065511148,93.08802659289324 464.5667140533401,92.3874894853576 457.4854764355473,90.06302356368508 456.6502565244514,89.79683972094028 455.60961766221544,86.44564376566962 455.414029111103,85.80891021542595 445.40311384000915,89.13647163481039 442.7456290400073,89.51717538017658 434.84256998220326,82.76503748910147 433.8672486666542,81.8541082280932 426.7164700711214,69.75002480785008 426.50544415109425,69.18833582108311 425.52509840887024,65.93785920638004 425.49502466666263,65.90227683043452 432.64026911112114,57.32477268989135 432.6795178933312,57.28136438757758 420.00201559998777,46.786760045018696 419.91259536887037,46.66467172763771 422.64151440890373,34.213399547071845 422.63823760889454,32.89141977561633 406.2572959555614,28.57988034099219 405.5762312799993,28.384269434820112 406.76185033779575,22.791314455396446 406.78493357334037,22.671440497949902 404.0249941599973,23.12269596101362 404.00941115554406,23.1207680114818 402.5173020711004,15.849417377066516 402.50776294220805,15.808925010882035 393.9417708355536,16.699523262162643 393.85409823110194,16.729013021198284 391.5799262133437,13.318416436500797 391.11702359998117,11.948627833021987 383.77757414221514,8.677601946029995 383.0795429244531,8.340914240041116 361.85905894221605,22.119585931395363 361.32239192000225,22.26066888898606 362.3265490755507,31.033064902039428 362.40650299555955,32.21754810312234 360.6395067999906,38.340595439665435 360.5337753866693,38.7027206582203 363.9283945511047,46.92585197266419 363.99305673776644,47.44242743898178 366.5846414488692,48.47533695435379 367.110021715554,48.6274604708957 370.53879241776986,47.28281895272778 370.5618756533145,47.26264114201297 375.4770756533321,39.33875818154013 375.5844818755645,38.968020635576636 389.1818183377686,41.249547065970205 389.8850196177732,41.4089465014182 393.2382782844429,51.73796444337461 393.26172560887744,51.814588441680485 389.40995643553424,57.42280959001039 388.82901620443545,57.92103832170653 390.4818341244313,60.426506646537405 391.787893786684,60.93207434686303 391.2925144444521,64.85904562634062 391.29105808889244,64.89508197124053 387.3852581244496,67.43184473462281 387.3594078133242,67.4809107667894 390.82648066667707,71.23268819906627 390.8509474399975,71.23552091434942 390.4821982133212,75.91507864700509 390.67290797332635,77.08668967142114 383.3137248977796,70.44858694890684 383.27098086220894,70.4227522069192 363.69108141333663,70.4998031555657 363.00237087111555,70.77321983315744 361.09097702222743,62.641857966074554 360.9435210222214,62.09097510504182 350.63521794666985,66.77165867211409 349.75499664888,67.55887240825507 346.0557807200016,76.61106916548272 345.39379430222425,77.14039215454943 337.1707011110916,72.9249260471039 335.599002195529,72.83496172942216 325.3955567199805,77.33718751039817 324.1036965244343,77.15421430409299 302.05228887999647,105.08738903323649 301.38848201776955,106.9613358943094 291.7763897155596,109.39355462819333 291.4192185155475,109.49829159040348 277.98419287999377,105.60182777960256 277.1098698222263,105.45065599073826 261.9682139288702,113.95140772462003 261.8116557066746,114.05115426419763 256.789267937776,104.88435254939361 256.71288208888245,104.81267244995217 253.2948156000125,105.71540451053409 253.23801773333207,105.70226902832621 249.27687625776844,102.59994178769523 249.21337915556023,102.52520110714943 248.71086367109774,97.99878229035642 248.5970494844437,97.86084003125836 243.24203010666633,97.88688826785767 243.11700198220888,97.83966167319852 239.4857978577852,91.65103801320186 239.3557453066819,91.55634743675876 236.78768073776837,94.43493535862183 236.71369787556569,94.4375403466471 231.14648749333674,89.681983822789 231.13600173334225,89.68243690374186 237.8472522222214,80.12600828964025 238.77232927110845,78.80604920913868 233.2233961511297,71.55890272011277 232.09624976886653,70.08689944573382 210.80302082666412,67.61960988878093 210.58158196445538,67.59762655478664 206.3874964177735,61.22219850196382 206.20778214222037,61.11838863034029 203.90601218664187,63.281468926339244 203.68850548443834,63.26322357251013 201.20556489777618,60.0381195736187 201.1274314222169,59.994600102516074 195.43701336000913,59.892601205770575 195.34497168890766,59.78980879096309 191.08789876444598,53.76631040737959 191.00466804442794,53.60445355428203 195.35254473778286,48.37773736556812 195.36623447997363,48.2694821001711 193.8938590133398,43.17920117318101 193.8457992799881,43.12081713086047 189.97247604444374,43.008923655324566 189.94181975999481,42.93342093700596 192.31356760001609,35.36844727842947 192.36053506666894,35.25517726358487 190.11112109333726,33.94149999201875 188.1944115466681,32.490023216705254 184.26254281777756,33.246211049066574 183.8770455022236,33.69125595688058 184.72107636443207,36.263034008101044 185.057348862239,37.694795708237166 180.82459707555927,41.067246143683974 180.47135803555238,41.318136496185275 169.50259771556694,42.60828190847644 169.3145822133297,42.628234708135665 164.44110679999676,47.40683297334874 164.26612567998336,47.460904811632304 154.63517357331102,48.17108864601289 154.52041275555484,48.14671696801781 148.71006381334837,43.275109580564845 148.66484397333215,43.25935159144103 126.86611401779328,47.62776767211437 126.63367967110344,47.670616883922435 120.101925004426,51.77219588788978 119.88725819555793,51.88033083946323 120.90364873776662,56.24658181731468 121.0444055022158,56.65823042658269 116.07998068445113,57.647897111186126 115.83400223110903,57.63543005228678 112.08133805334319,69.38855928966188 111.97837371554442,70.13698288365379 105.74029314667087,71.09626445761353 105.5814775733229,71.24186619598879 102.15591085333244,78.94460619695712 101.95872031109275,79.23961924685102 86.05335156442698,94.61819030090521 85.82965535112407,94.87970694754733 82.31809083556391,95.56888620620123 82.10437065776887,95.75111801515561 78.82043451554591,101.66556266530063 78.75103917331535,101.92693223692879 93.89036489776436,111.33257115248819 93.99027088887624,111.31830477194273 97.39231746667747,110.60973650533526 97.8517248266794,110.25929865003093 105.97229058665789,97.63070898241824 106.18586512888533,97.60511363836815 113.16719675553713,106.04469642588049 113.17637179556868,106.0553406292671 111.64151867555438,109.71274696916919 111.59578911110975,110.01801040286193 113.42497168889486,118.5194081347214 113.4565746044168,118.58608895698092 119.17175071110933,121.54973701494566 119.47008514666913,122.22239101961134 115.7252852888846,125.43442014430877 115.09220752889041,125.3941223789949 115.54214857778379,127.66920152953355 115.53464834666329,127.82461294384086 121.37929446221779,128.07544354136155 121.46776806220396,128.0189614813495 128.3121294489024,132.52375956296567 128.31686260444212,132.5780865135963 139.06622295999068,132.6848161776503 139.37664514667222,132.73178621808586 143.39487575999328,136.4016623529384 143.41300738667587,136.409131780361 145.03677101335006,142.71341616678512 145.3627033866719,143.7413523254869 152.33151035555738,137.86553739554768 152.41881887111913,137.9584499773406 146.47135405333347,150.70430596211338 146.46378100442917,150.72455863722246 146.12648905779452,148.5153886866825 145.91903120888264,148.39714889752906 137.08739984888916,147.25931825710688 136.49036688887963,147.20987141891203 124.08352827555018,150.0987588145723 124.03051693333646,150.11199674453349 124.31676361777454,162.23749564361754 124.29389883555223,162.36746982124862 114.88504095111375,161.3638665636314 114.76474598222512,161.36873078087922 110.92360820444401,170.90413780551864 110.83112962666883,170.98048129431083 99.24152493334941,175.2535104156483 99.00879931555346,175.45854677411955 92.90339273776726,173.78464494483308 92.65668610667444,173.68975767958148 87.11168514667179,180.63690113262385 87.10906370665862,180.6581604239251 84.8024877777857,180.3657313603104 84.75275323555206,180.4046315272641 82.93718758220302,185.3223390230338 82.80393104887435,185.52620681512747 72.40060077331827,183.85453626691708 72.37387664890366,183.85329244533898 67.04383376887517,196.72080476067606 66.72117819556252,197.22884017296712 59.94497424888641,199.60695726550296 59.90892944887264,199.65420881490684 64.93969126221009,202.80177068681917 65.1972477422164,203.15500520726312 59.656979937753476,207.88722291059787 59.526053573331865,208.11609780282708 63.018467013323516,210.2100606929231 63.11385830221798,210.255946819139 65.66990793776449,204.90464096779 65.77134310221982,204.83343135659345 71.91097403554113,213.0100608922436 72.05573577777932,213.32932524878527 63.65154477331771,223.18943594389532 63.41860070222856,223.01486120376615 69.5889607377826,230.93422968729976 69.60883999110183,230.950950301754 66.99963337777399,233.7294385414931 66.7655242222313,233.92646022901283 60.58416870222527,233.6266345115797 60.50530704888615,233.91459827827168 66.5939655377947,242.38077695426875 66.6086019111167,242.474641188404 57.0054661955578,250.10658478309745 56.94182345778199,250.1358355773333 51.58971679112392,248.88424896921026 51.55396326221626,248.93608839953197 49.736285893340664,252.23473678649282 49.60521389332234,252.42728730817146 50.87704920001079,255.2261385484959 50.87886964446034,255.24115781981493 49.27993687999651,256.4387337837321 48.96558253330977,256.6451591216679 48.384860755562386,265.34920645808563 48.407215813327184,265.49462909997203 54.57713894220751,268.38482375280694 54.58216336888245,268.57167235454074 49.23995991997754,270.04205256884563 48.88897823112302,270.6758482884685 49.89517428444333,273.8066731385694 49.80014708443878,274.42924933156576 45.020315333334565,280.2957923347054 44.965483546671294,280.3885755253938 43.79945247111709,289.29435074073956 43.85341044446204,290.5329359561507 36.819067475538304,296.95732861124964 36.77632343999676,297.32654177491315 31.09406096887642,298.61256214843127 30.237214177795522,298.7411963714036 26.27396098667623,303.4202295477513 26.244469786651734,303.36674941040803 25.46990708442854,309.16588012901013 25.339053537790733,310.29357093832334 22.8718415911203,310.1813218460662 22.38905972443854,310.7063522998284 22.234977306659403,313.8874506094213 22.127206995566212,314.85768313389383 17.522137911094887,314.856667901338 17.375410088868648,314.7148735683073 14.62515543998552,319.5954551987594 14.422649199993884,320.2400681591604 9.88784927110055,321.47580885157333 9.729397786642494,321.6215332755015 8.052549999999883,330.96366529187765" stroke="#009edd" stroke-width="6.31298436297192px" fill="none" stroke-linejoin="round" vector-effect="non-scaling-stroke"></polygon>
</svg>