<svg width="296.0838638934074" height="336.42990394111257" xmlns="http://www.w3.org/2000/svg"><polygon points="5,217.29429022799013 13.982509795576334,231.09487267327495 14.795447466662154,232.18667516415007 54.43890204443596,221.55479399196338 54.857167360023595,221.300624882977 69.80112298671156,231.10695412394125 69.81830798229203,231.30249454802833 91.02575758227613,229.20613105257507 92.34900223999284,229.26788121287245 87.93740999116562,243.45787657413166 86.71174115559552,247.4261505192262 81.09632540447637,246.11563026555814 79.54851072002202,246.0386721928371 81.33633280009963,252.0252139000222 81.05583872005809,253.214001773973 72.27692743123043,259.68667566077784 71.15349475562107,261.5219149393961 43.76410709344782,261.7429300452932 43.462932764552534,261.92904785682913 37.488671004539356,280.5042445855797 37.39313408010639,280.76281886035576 42.423386168899015,281.5998279656051 42.45571726222988,281.9161101063364 29.43793749343604,290.37324529967736 29.315312355640344,291.5457216799259 31.757620622287504,301.02282319322694 28.887435093405657,309.65903875464574 39.247365973424166,331.0644946626271 39.5205782756675,331.42990394111257 68.94653354666661,316.0432773657376 71.8175928889541,313.34029754350195 87.77895850676578,327.5432062029722 89.47357383114286,328.6246901008999 91.58441557339393,320.1359272459522 94.07303594669793,315.28691154601984 109.54273592901882,312.95383536058944 110.99297479121014,313.19850536307786 113.99306723556947,306.74037847906584 114.39210865786299,306.4344201241038 150.19777507556137,312.0485092542367 151.27839089778718,312.3723516295431 164.5405471289996,292.9901717765024 164.68268743122462,292.80542226240505 162.3836845511105,282.1250260658562 162.61582762678154,278.16140464134514 168.47183331556153,262.3625764751341 168.9815577600384,261.995262809447 219.35573134222068,245.8350911148009 220.3026537244441,245.6413533424493 273.9122668089112,251.73886584141292 274.15576945780776,251.6820436042035 257.6139005156001,242.17194178979844 257.1365071645705,241.8931873633992 264.8036366222659,224.083492132253 265.23763057775795,223.2596883410588 262.03335708449595,222.04567962582223 261.13653333333787,221.19143947132397 274.91860849782825,185.33810341579374 276.3105931378668,182.60845279973 290.4471452444559,168.80348306859378 291.0838638934074,168.46465871599503 280.83811128896195,159.9455386986956 279.9575987200951,159.30590878461953 281.67551573342644,156.54952569078887 284.50754474673886,151.56350878835656 261.2556632178603,92.38603789394256 260.50301866675727,90.97877515491564 255.8514190223068,65.05899261962622 255.66733568010386,64.90002380358055 216.24786858668085,104.96011026523774 216.0486391467275,105.11905010172632 193.74164110224228,86.73857490171213 190.1738612622721,86.38260927802185 203.86535111116245,31.083174763596617 204.04273521783762,30.451679166639224 214.72073415108025,14.987532205064781 214.8270481067011,14.796278228692245 211.81413973344024,8.859259924152866 211.8645296356408,8.428366345120594 204.47206883551553,5 204.16361272893846,5.057781898532994 198.8758769778069,11.699463501980063 197.1879608889576,13.343727957690135 182.0005026133731,15.674611861119047 181.3002868623007,16.618335108913016 162.7375789511716,7.425482902501244 161.91328170674387,7.367253709817305 132.37897358229384,22.368823087832425 130.91854023118503,23.35193140397314 118.82904149335809,43.802721919026226 118.54534343117848,43.90975628513843 145.80103765334934,72.54427854187088 148.80054755555466,74.66989921440836 136.3632711111568,83.05620578455273 136.05364992003888,83.0651610372006 137.60612494230736,83.36605731473537 140.36213219561614,82.4427701078821 138.37012906675227,90.05910192220472 138.0841008356074,91.10235315386672 154.17129557346925,106.56875519116875 154.36499086231925,107.19107778964099 145.65307192900218,118.47137674549595 146.1936711112503,119.32601621816866 128.50448526232503,135.73006258287933 127.43552028445993,136.52106812241254 110.9286038755672,141.18064625479747 107.35470734222326,142.8606486095814 100.02545237331651,155.00749376241583 99.31475086230785,155.9040669084643 100.54478876455687,169.44935155671556 100.92460629332345,170.15027113660472 85.47558656008914,181.2715874426067 85.36956387560349,181.44479409232736 66.96297728002537,188.71129428129643 66.7218048000941,188.97131918458035 50.867044408922084,179.9732045669807 50.81286798231304,179.95127387001412 39.896318008890375,185.44685908348765 39.7032052623108,185.69972699158825 38.43792355561163,184.81714959489182 36.91282801784109,183.22697965125553 40.964117902331054,173.25783338525798 40.55138673784677,172.87649583432358 33.71496248897165,183.8164135334082 31.128475022269413,184.59292424551677 23.020943644456565,178.0549316527904 21.017580942250788,176.77488021779573 19.450833635637537,183.21892359637422 19.90579911111854,185.39583791268524 28.049448106670752,189.54641619999893 31.552857031230815,190.99422186845914 5,217.29429022799013" stroke="red" stroke-width="3.1638008918174334" fill="none" stroke-linejoin="round" vector-effect="non-scaling-stroke"></polygon><polygon points="151.0890646756161,218.124381200294 163.54090467561036,224.47682267439086 169.53031253337394,229.34663501544856 180.97144177777227,243.5867381002754 183.0881089422619,245.99213939160109 184.16552078223322,257.3114005201496 186.2917998933699,259.35917645081645 219.35573134222068,245.8350911148009 220.3026537244441,245.6413533424493 266.6651502933819,254.18623487686273 268.93298716447316,254.9405738437781 273.9122668089112,251.73886584141292 274.15576945780776,251.6820436042035 271.9182247822173,247.57290682464372 271.958711466752,245.90444293187466 257.6139005156001,242.17194178979844 257.1365071645705,241.8931873633992 264.8036366222659,224.083492132253 265.23763057775795,223.2596883410588 262.03335708449595,222.04567962582223 261.13653333333787,221.19143947132397 274.91860849782825,185.33810341579374 276.3105931378668,182.60845279973 290.4471452444559,168.80348306859378 291.0838638934074,168.46465871599503 280.83811128896195,159.9455386986956 279.9575987200951,159.30590878461953 281.67551573342644,156.54952569078887 284.50754474673886,151.56350878835656 261.2556632178603,92.38603789394256 260.50301866675727,90.97877515491564 255.8514190223068,65.05899261962622 255.66733568010386,64.90002380358055 225.94719658663962,97.22340683918446 225.8641843200894,97.50413573649712 195.9512237511808,118.25648520793766 190.95446784014348,125.07605521025835 198.09148387564346,129.52771050401498 198.2866355200531,131.10170541901607 190.1887160888873,147.9381795838126 189.60850403562654,149.0559100031969 175.0161126400344,167.5314343838254 173.86646556446794,172.01445569295902 166.69857479108032,170.32348655036185 165.60048270225525,169.02235347568057 152.39978467556648,184.65200160536915 151.28450759116095,186.22067872073967 151.0890646756161,218.124381200294" stroke="red" stroke-width="3.641137172108581" fill="none" stroke-linejoin="round" vector-effect="non-scaling-stroke"></polygon></svg>