<svg width="387.142203733325" height="398.83695899276063" xmlns="http://www.w3.org/2000/svg"><polygon points="5,248.32309508766048 6.464511146652512,251.63907659810502 6.700440746615641,252.89180737058632 6.271980942110531,254.13516905874712 5.819928177748807,254.214968655142 5.309621191001497,254.5849887522636 5.202724693226628,255.53678458253853 5.478849706589244,256.70791133033345 6.710926506668329,260.3126423176145 7.923488142201677,262.10384091344895 8.969733973266557,264.517790113925 9.678396586561576,265.6732666924363 12.158278826624155,269.87340869917534 12.652565902215429,270.4119055165793 13.327149795484729,271.3868132131174 13.411909688846208,271.58518210682087 13.942023111041635,272.6559252779698 14.469515093252994,273.767673925031 14.29970403551124,275.9920459273271 13.570652444381267,277.67568893090356 12.52877567987889,279.27774555340875 11.90632931550499,279.7217191181844 10.895327288890257,281.2751738008228 10.407448177691549,281.9134911746951 9.415670044370927,282.9672457004199 7.922614328796044,284.14625018730294 8.522341546602547,283.87568147317506 9.99617336888332,283.4727251448203 10.705709795467556,283.331868555455 12.058372835512273,283.1526774477679 12.294302435475402,283.1330644818954 14.22397354664281,282.6485345202964 14.88719786668662,282.42788804875454 15.331677582114935,282.16132898651995 16.210151253268123,281.47754557052394 17.29659249773249,280.71263279544655 18.089432462118566,280.3448853243026 18.80712448002305,279.6396999727003 19.439765333314426,278.80880864866776 19.537341155461036,278.8471438323031 20.39921237330418,277.313731287024 20.728639999986626,275.83914893091423 21.03360085329041,274.9623294136254 21.707602204405703,274.2852101759054 21.619055786635727,274.07257915008813 22.375486862147227,273.85816484724637 23.221920711104758,273.1734641387593 23.612515271059237,272.71877889952157 23.979808142175898,272.3470061541302 26.420368782244623,270.3530632131733 26.858440533280373,270.0811402432155 27.91808483551722,269.7619646571111 28.882774755591527,269.22836980305146 28.91830983106047,269.28186307975557 29.05520725331735,269.53506441332866 31.587809564429335,273.4703463477199 31.766067484393716,273.7222055658349 32.220741688855924,274.19650249829283 32.73192248889245,275.1290457469877 33.70010766212363,276.3495481116115 34.14283975108992,277.01328816090245 34.54828913777601,277.3048160666367 35.94376903108787,278.2092633394059 37.337501297704875,279.28666069405153 37.739455431117676,279.58041437575594 39.136391679989174,280.3457768340595 38.40937898657285,281.7048792753485 38.294909439980984,281.84217088937294 37.45430101326201,282.6743880318245 36.75991068442818,283.48164011578774 35.87852430215571,283.78876064601354 34.086915697786026,285.79640013270546 31.821991537697613,287.5396974767209 30.780697315582074,288.5907506822259 27.33059100434184,290.6616406815592 28.137703253305517,291.8909716911148 28.846948408870958,292.89698547741864 29.959021511022,294.1592878198717 30.72943359997589,295.7959911134094 30.772250453359447,296.6860994325252 30.374082844355144,298.4899283554405 30.31291591108311,298.4707624721923 30.064170382218435,299.4602547355462 30.021936070988886,299.57391234626994 29.085790719953366,302.09620479523437 28.805005368893035,303.6254336129641 29.3403616710566,306.75784588750685 29.363954631146044,308.5165769253508 29.450462151085958,309.68519379524514 29.574834915576503,311.5214518789435 30.45971655100584,312.8322277243715 30.684286577743478,313.36126017500646 30.83720391103998,314.14255009090994 30.926624142215587,315.43860278488137 30.983713279943913,315.4323632096639 31.70082275546156,317.81453104445245 33.61826047999784,322.41300038743066 34.156238222145475,323.9737306374591 35.32598300441168,326.9685904132202 36.32999452436343,330.04139904945623 36.89506047987379,331.9599329808261 38.394815431092866,332.06109563075006 41.79773582215421,334.38514989527175 42.98670449771453,334.9007612989517 43.304772551055066,334.689080012904 43.37846414220985,334.60351615119725 42.11056099552661,331.35028219607193 42.25415765331127,329.40990583214443 42.053471857798286,328.1736534651136 42.39134634658694,325.2817584744189 42.87718655995559,323.8502809315105 43.65342407103162,322.7320997607894 43.64002559997607,323.69919978943653 43.72944583115168,324.9038350446499 44.2222765510669,326.1877916060621 44.79870207991917,327.5559703417821 46.25505763548426,329.8069846999133 46.892067555570975,330.5850967714796 47.251204835483804,331.14171706693014 48.58522652438842,332.3984526784625 52.59602972434368,336.7189837655751 54.899401671020314,338.5817549601197 56.9254835199099,340.4017296085367 58.84554268443026,339.3402281010058 60.37413347547408,337.75866159040015 60.99221077328548,335.92306763865054 62.64459178666584,338.4476181343198 62.86217130662408,338.7475319211371 64.45717191102449,340.05502648756374 66.75297080888413,338.1365629884531 68.25884245336056,339.259122402058 70.07986943994183,340.1281104813097 72.14905941335019,340.96322708018124 73.84221838216763,341.3504812492174 75.34342968882993,341.9770383380237 76.54754446214065,342.7354998002993 77.37883221323136,343.653047518339 77.79622371552978,345.4596116137691 79.26597774215043,345.76218959956896 80.6393210310489,346.0206505841925 82.50141724443529,346.92392478347756 83.78912682656664,347.40296608640347 85.0503307377221,348.5758330504759 86.33949667552952,346.34149828145746 87.08689834666438,345.24392985057784 87.78973553772084,344.28984745417256 89.58396558219101,342.6490478030173 90.73739918216597,343.44538528018165 91.59257116436493,342.7395104591269 92.86775608884636,341.8593919080449 93.61544903111644,341.4859532031114 94.28275114670396,341.2952229283983 95.42162119108252,341.07820019556675 96.59748266660608,340.8660792071605 99.18630030215718,340.3353302098112 100.32051000883803,340.08978595095687 101.71511608886067,339.72926765982993 103.59119331545662,339.0853243753081 104.56112611549906,338.5670489334152 105.01172252441756,337.8718538223766 105.06036479992326,336.89278365741484 105.05716081766877,335.5674446108751 104.90715619549155,333.8811240994837 104.8008422399871,332.7647763915011 104.1192678399384,330.86719514324795 103.29700949322432,329.7548430712195 102.16512995550875,329.14251225232147 100.76848497777246,328.76637806766666 98.96406044438481,328.60683280503144 96.25727800885215,328.6032675465103 95.1006404266227,328.27036127226893 94.06255018664524,328.11616355052684 93.53360184875783,327.9597374277655 92.9621279288549,327.68922247516457 91.56198769772891,326.922241702734 89.79338951106183,325.73366134776734 86.66484650666825,325.2122348732082 83.40202752000187,325.5028077273746 78.46643854212016,326.05141892808024 76.24811775994021,325.5166232982883 74.8392393955728,324.9925223228056 73.89464718219824,324.2357824917417 71.47651441767812,323.19202988862526 70.4285209600348,322.014125521353 69.18217187549453,320.39143273362424 68.07359402661677,319.08248453232227 66.29217991104815,316.7079069800093 66.05712412437424,315.8758182922611 66.00586040888447,315.1653983631404 66.01197710214183,314.77230429439805 66.07926072890405,314.2562001332408 66.30586965323891,313.62956426886376 67.09084529767279,312.1084272689186 67.84086840879172,310.9206584416097 69.00886556447949,309.5590619141585 70.08190833777189,308.47423561813775 71.29330488888081,307.21290663216496 72.36518257774878,306.1365371446591 73.74202111992054,304.7985334621044 75.01225443556905,303.62142224260606 75.52605667547323,303.27287844917737 76.36783018661663,302.88823165389476 77.41582364437636,302.5642007506103 78.69537763553672,302.33376858051633 79.26248248887714,302.30880879523465 79.67696127993986,302.3288657658268 80.37047779560089,302.34491134091513 80.8030153955333,302.3248543718364 81.2317664710572,302.23794081801316 81.62032213329803,302.12651313480455 82.34005304879975,301.8675549814943 82.80579555546865,301.6246421515825 83.86631367111113,300.66145671810955 84.64080355549231,299.75398153910646 85.77792597329244,297.11889491800684 86.94767075544223,294.588522457052 87.95022591995075,293.49337074754294 88.49956323544029,292.9732052094769 91.51363669335842,290.8484031583066 93.12290958222002,289.5080780107528 94.37158883549273,288.33177662990056 95.8529937065905,287.09975132677937 96.94234766217414,286.2176276779501 97.77159651555121,285.6114163531456 98.91454435547348,284.8166529512964 100.64789873769041,283.42235555208754 102.64922254218254,282.0035330017563 104.40005319099873,280.5677626527613 106.07748351991177,278.3634959688061 107.0022692977218,275.80705392110394 107.37189233768731,273.19486106804106 107.21722737781238,270.8951250509126 106.77536910225172,266.9994717357913 106.7710000355728,265.6647967858589 107.17965340439696,263.618190343841 108.29201777768321,260.03045365575235 109.09417841781396,256.49526334996335 110.12964721769094,252.89804871601518 110.70286876440514,251.4781380717177 111.17938830214553,250.51205863116775 111.67979207111057,249.55533711687895 112.3517545243958,248.42206702457042 113.06041713769082,247.69181357941125 113.95025038218591,246.83226918429136 114.05336035555229,247.9138322820072 115.7788504177006,249.4140130369924 118.14309802663047,250.46792292105965 120.85133681772277,250.4264620944159 125.4679839288583,249.65698340220843 126.98900167108513,249.74882167228498 127.68688725330867,249.8790001255693 129.47733077325393,249.64182562578935 130.93019107554574,248.92851732164854 132.59364039101638,249.394842886657 133.4805609243922,249.87409614410717 135.60159715544432,250.52677053253865 135.72072703996673,249.9699466705788 136.8298874311149,249.70780652726535 138.08439210662618,249.29631720413454 138.97364280885085,248.84559508156963 140.0149370310828,247.86256292276084 141.70401820447296,247.50724364432972 143.00716515548993,249.18575439497363 143.89408568886574,250.7100004949607 144.50284231104888,251.96942373132333 146.56183779553976,251.7304682296235 147.7662438399857,251.64710123057012 150.32127402664628,251.76969974767417 152.3671623111004,251.74874655145686 153.95517240883783,251.69123670458794 155.96377799112815,250.94940291717649 156.40825770667288,250.8794100570958 157.69538474665023,250.2579438156681 159.76399217767175,248.56027100631036 161.8436679111328,246.3226933053229 162.21532984881196,245.6972017927328 161.99483761773445,244.53448726574425 162.91088526218664,244.22775787120918 163.3486657422036,243.78861693409272 165.30192981334403,246.79526590113528 165.9899121777853,247.28210378007498 166.87071601778734,247.64990640961332 167.72996579553,245.53313815128058 169.96954936883412,241.03783603396732 170.94618140440434,239.4934603658039 171.50920846220106,238.21078216447495 173.690537813236,237.2705034133396 176.72674787556753,236.02660075190943 177.5758031643927,235.35738713294268 179.00769194669556,234.2860169293126 179.5646023111185,233.92443388327956 181.5315561244497,232.76076555415057 184.26746567105874,232.68184989329893 185.6885774221737,232.36306600394892 187.1746426310856,232.4424276307691 186.8877405866515,233.17183989554178 186.81667043548077,234.0323292562971 187.27134463994298,234.3974789076019 187.62844302214216,234.76976150705013 188.65925148443785,237.56832566129742 190.810288639972,237.22904010437196 191.20874751987867,238.51841161050834 191.02815943106543,239.51084802730475 190.92534072883427,240.39494193473365 190.86213489773218,241.2768031267915 191.23729208880104,241.95536125812214 191.74789034656715,242.61786737898365 191.95702300441917,243.26075499504805 191.82362083543558,243.81492083217017 191.53060209774412,244.4979294242803 191.16563939559273,244.7279762282269 190.43629653332755,244.87019496556604 190.09813077328727,245.26296786713647 189.52316159999464,246.68782259803265 188.94790115545038,248.2682592656347 193.1611377777299,250.5285537932068 194.12466261337977,251.3038250200916 195.80850090656895,252.8093324318761 195.56470698665362,253.34519607713446 195.20527843560558,253.82354912930168 194.31282375112642,254.54531192826107 193.4119222043082,254.92201856547035 193.03297848883085,255.29382069804706 192.42101788439322,255.21179246366955 191.55536014214158,254.8083379321033 191.39283086219802,255.06868878612295 191.74789034656715,255.2528065847 191.7007044266211,255.62460815929808 191.79012465768028,256.0918111674255 191.98964536888525,256.5032878058264 192.54422556434292,256.92367972119246 193.64027875545435,257.278983821976 194.15786751988344,257.16931661986746 194.4771006576484,257.5776706406032 195.2105213154573,257.61600951640867 195.55422122660093,257.59015306603396 195.97248654218856,257.9057798733702 196.3496826310875,257.6588063930394 196.65988636447582,258.0118803088553 197.09854065766558,258.2566243959009 197.7693380266428,258.2209604292875 198.07225998223294,258.3573750703363 198.50771029328462,258.1812842595391 198.9312184888404,258.8945626242785 198.6154806043487,259.5177877061069 199.10976767993998,259.8516894035274 199.30695822217967,259.9493187761982 200.39281692437362,260.1209502170095 201.3047867732821,261.27020873344736 201.43702385772485,261.75835202343296 201.67207964439876,262.0454421843169 201.6732447288232,262.409653853334 201.73382912005764,262.7511296084849 202.1354919822188,263.3141622377443 202.05597496894188,263.8040841552429 202.70434446225408,264.8579252449563 203.49048519099597,265.2158912710147 204.18924458662514,264.71036996424664 204.84227441775147,263.94004955352284 205.46006044442765,263.95164004259277 206.29426090663765,263.9971104169963 206.5307730488712,263.61685297766235 206.84185059554875,263.5214541737223 207.07661511108745,263.1804254014278 207.60818488884252,263.0832432494499 207.6786724977428,262.86213140457403 208.75928831996862,262.40742489753757 209.57630378659815,262.3209413969307 209.71815281768795,262.20993932837155 209.97942300443538,261.8296788063599 210.20195413322654,261.8461731216521 210.8110020266613,261.7235802084906 211.07635000883602,261.92017462902004 211.45675007998943,261.6103488752851 211.78996423108038,261.4213326619938 211.76753635553177,261.1917490718188 212.13162524439394,260.8640905240318 212.39930339553393,260.7838475401513 212.74329457769636,260.42765749793034 213.02990535099525,260.3549928754801 213.2442808888154,260.193169120932 213.3217590043787,259.9684880087152 213.75866567110643,259.7696628650883 213.6683716266416,259.3675540671684 214.49732920888346,258.88430926407455 215.02482119109482,258.16612706927117 215.65542314655613,258.01098870881833 215.9035861332668,258.0372909097932 216.18408021330833,257.9075630743755 216.4063200710807,258.0136635090457 216.5962288355222,257.89151426474564 216.78002090658993,257.9120210768888 217.04129109333735,257.82687321392586 217.31421212444548,257.83311441965634 217.57722993777134,257.6802048282698 217.66461127100047,257.5482477779151 217.97947534220293,257.5821286497521 218.27453297772445,257.87100745068165 219.009992533247,257.7978961849585 219.25699043553323,258.0038559079403 219.69069311989006,258.0502191091073 219.83050325326622,258.0016269076732 220.11827911110595,258.1616690719384 220.3067315199878,258.20089944551 220.4934363021748,258.3600498663727 220.79140664893202,258.23165961983614 221.04947285330854,258.3226027188939 222.22300415998325,258.1260050899582 222.9106952532893,258.41176258353516 224.07024554663803,258.1068356973119 224.2697662577266,258.3983886061469 224.37986673775595,258.76082310662605 224.20568661333527,259.5980311508756 224.12413070222829,259.7843741487013 223.7451869866345,261.72268862335477 223.81043171556666,262.4778598884586 222.39834936882835,262.1787339175353 221.93668465770315,262.22777098976076 221.45812622224912,263.0208326705033 220.85927281773183,264.53071793320123 220.79897969774902,265.3175303355092 220.3810056532966,266.14668937493116 220.2586717866361,266.5345207583159 219.74894734215923,266.36155696120113 219.38078065775335,266.06778566510184 219.09096590219997,265.40267530526035 218.65726321772672,264.9408414621139 217.83879139553756,264.55389884859324 217.2821723021334,264.89002184884157 216.3838921955321,265.1240594442352 215.52143843553495,265.56761572905816 215.3370638221968,266.076255556196 215.32716060441453,266.57464120723307 214.38664618658368,266.66825555986725 214.87976817775052,267.9552259868942 215.47745649772696,268.7442550585838 216.06553287105635,269.66121919453144 217.2003251198912,269.50698047690094 217.65907711989712,269.69465242838487 217.9151044266764,269.6193162010168 218.2098707910627,269.4427886088379 218.77056767989416,269.33134434907697 218.95610737765674,269.33892256056424 219.52729002665728,269.63402682734886 220.4034335288452,270.32854558201507 220.68159743992146,271.9993044579169 221.01277269329876,273.1721268305555 221.49307875556406,273.767673925031 222.012997688842,274.21344165556366 223.03623310220428,275.1085405362537 222.71874759113416,275.56188355304766 222.54689763556235,275.97376961557893 222.5605873777531,277.1260658215033 222.71379598218482,277.9034723158693 221.7860974932555,278.968835708336 221.47065088001546,279.27462525409646 220.02448981336784,280.2022437158739 220.92655644437764,281.1490256653633 221.5251185777597,282.036072861054 221.68997802666854,283.07377982430626 221.27695559104905,283.10007903527 221.31802481773775,284.12842029880267 221.796291982173,285.3408494371106 222.07387335109524,285.849443645624 221.89270271989517,286.2608647455345 221.61541262210812,287.267795704538 223.55673457775265,289.6319926828728 224.46462663111743,290.4771067185793 226.274585315492,292.65584568376653 227.01004487101454,292.1098257676349 227.63336504879408,291.4296390664531 228.23833514656872,291.85977048124187 228.47455601766706,292.27519194217166 228.76553585776128,292.3358113174327 228.99797020445112,293.7612532922067 229.69585578655824,293.85842192173004 230.39723662217148,294.6656330561964 230.43364551104605,296.88489128509536 230.60054385778494,297.2026904442464 230.81288049765863,297.2169535093708 231.36862577777356,297.05827685794793 231.99485866667237,296.9187661121832 232.41195889771916,297.49419165449217 232.60594545770437,297.99295200547203 232.4317653332837,298.4408993483521 232.47778616880532,299.09209281753283 233.11800007114653,300.0182907562121 233.6839398399461,300.6948852511705 234.90116181329358,301.56357961834874 235.5876878221752,301.69907601969317 236.45625827542972,302.8436607188778 236.70529507554602,303.1128690295154 237.71134549332783,304.38402700959705 238.51700138661545,305.2018965197494 239.14905969775282,305.63556669675745 240.488906808896,306.46323701035 242.04982869327068,307.64835565246176 243.9273622755427,309.23949777922826 245.20079957332928,309.9815811471781 245.39158215106,310.11439820716623 249.2060686221812,312.07232632196974 250.31173375993967,312.6334502497921 251.86857784877066,313.47312786837574 253.58620359108318,314.1514638217632 254.63361450657248,314.6907438725466 255.4273282843642,315.0174310634029 256.0876398932887,315.29865798464743 257.18340181326494,316.02289365028264 257.57137493323535,316.28673768317094 258.1725585066015,316.5844532059273 258.646747875493,317.19592753995676 259.062974293367,317.8118569696089 259.64143872004934,319.2406996580539 260.02271260437556,319.1836530906148 260.3937919999007,319.51880146283656 261.00138353777584,320.39009571186034 261.2606148266932,320.7461888920516 262.4120095288381,322.1357935737469 262.87542186665814,322.63182416942436 263.30096895992756,323.0106428306317 264.20245304889977,323.6947431169683 266.12717255111784,325.5322215225315 267.49061262223404,326.2109660396818 269.4569838932948,328.98296726180706 269.7133024710929,329.1229033769923 270.17030684440397,330.33998730866006 269.9375812265789,331.5298797880532 269.6725245155394,331.9978132736869 269.02910663106013,332.63286427303683 268.26248106663115,334.3450417839922 268.5021971911192,335.1828541494906 268.7183203555178,336.1155851287185 268.2115086222766,338.8437894542003 267.53226439107675,339.719909328036 266.8603019377915,340.5220506156911 266.3744617244229,340.8830132431467 265.46889984002337,341.5946872110944 264.9961668266915,341.18069555808324 264.19021966215223,342.0229382538819 263.5625304178102,341.7929929482634 262.6126953243511,341.37989293050487 261.39547335112,341.07508077076636 260.13776469335426,341.07508077076636 260.0200911643915,341.7052036888199 259.10113080882,341.4565415359102 258.32314567104913,341.11741581815295 256.5181385955075,340.8839045081404 255.81355377775617,340.6053840154782 255.26945934211835,340.23149755294435 254.24360248888843,339.88434852974024 253.96456476440653,339.5937946267659 253.43998549331445,339.4427242713282 252.2344143644441,339.47258184239035 251.13399210653733,339.05814056890085 250.1564862577943,338.16240999440197 249.4329688177677,337.986382911331 249.45860067557078,337.4235409409739 249.2695657244185,337.33753250062 247.8950573510956,337.3308479054831 246.57880319992546,337.720782287186 246.11509959108662,337.7573246739339 244.87603228446096,337.514451380237 242.7433452088153,336.50373909412883 241.91147491557058,336.35444918833673 239.42722360882908,335.118681400083 239.1030388622312,335.12269219744485 237.60794424882624,335.95738211111166 236.49674495996442,336.8682734245667 237.5284272354329,337.6459149394068 236.5855826488696,338.86339746497106 235.668952462147,340.4614444869803 236.94471992889885,341.27160444832407 236.58092231105547,342.2479813925456 235.9115812977543,343.3112514129607 235.28418332443107,343.61561485461425 234.2644431644585,343.5942247583298 234.18871267547365,343.24307037936524 233.9926872177748,343.0051050382899 233.68918271991424,343.0091156922281 233.3859694933053,343.158401092689 232.92634368001018,343.2956544463523 232.7192499198718,343.3045669988496 232.11020202666987,343.2194521080237 231.1128897422459,341.8509249277413 229.22574421332683,340.37900229985826 228.65339648001827,340.0260602637427 227.4361745066708,339.35849916096777 225.27785557333846,340.8099294996355 224.57734855113085,341.09156915859785 224.01228259550408,341.9944179189624 223.33420344884507,343.05991730251117 222.95030812441837,343.7172177841421 222.02115327992942,343.82817882462405 221.41589191101957,344.0648063994013 220.81208689766936,345.165945690067 220.4514932621969,345.429309230065 220.13604664884042,345.32904396002414 219.77312284440268,345.48634900781326 219.59923399111722,345.7385715980199 219.47107470221817,345.841510416707 220.31459583994,346.4916726682568 220.96180024882779,347.4132153308019 221.53443925327156,347.9559789845953 222.03950336005073,348.2928660978796 222.82185756438412,348.4916114285588 222.0092111644335,351.61001807264984 220.48236799996812,350.8547064206796 219.8342897776747,351.01156191463815 219.6283611021936,351.5119836680824 219.32514787546825,352.0329023456434 219.44340394658502,352.4277124312939 219.72681073774584,353.1148407140281 219.67962481768336,353.7685463730013 220.72208412445616,354.7791795289377 221.79046655993443,355.68375466007274 222.26844245335087,355.80852335249074 223.61731896887068,355.6249351091683 224.08364401781,355.2635510088876 224.67405055998825,356.00369709404185 225.04746012447868,356.61194292025175 224.54385237337556,358.5177689784905 224.52841500448994,359.5528880833881 224.35773013334256,360.2792063797242 225.11736519110855,360.74173175363103 224.6836625066353,361.8374406900839 224.6731767465826,362.2086169846589 225.3731012266362,362.5419176147552 227.9537632710999,362.7099045062205 228.7069903643569,361.7558976749424 229.1095270399237,360.6789032192901 230.60869944887236,361.9795839067083 231.35260586661752,363.4491344252601 231.87194225774147,364.7328665702371 232.44166855106596,366.3137940495508 232.93624689767603,368.8821086672833 233.25081969774328,370.96962202055147 233.58082986657973,373.2687600723002 233.78297201765236,373.71388112322893 233.8624890310457,373.8787405437324 235.9669228089042,373.8595812119311 236.94530247105286,373.72769367392175 239.9238408532692,372.79512177116703 240.4708479999099,372.5665452562971 242.15934663102962,372.09290544706164 242.70984903106,372.13300669332966 245.00652174220886,372.4248544322327 245.26080142217688,372.4551531067118 246.2225786310155,372.419953175704 246.90327921777498,372.2363787610084 248.05962552886922,373.00988545425935 249.981432319968,374.151426666067 250.79407872003503,374.91022303909995 252.0488746666815,375.8713019553106 252.40917703101877,376.03348639421165 252.96696120884735,376.21616652590455 253.64562289777678,376.3480525757186 256.21492536878213,376.59221978404094 257.8594420622103,376.8457434788579 260.5577776355203,377.02352178352885 261.4012987733586,376.897873974056 264.04604046221357,377.07520667731296 264.8115009422181,377.1055047127884 265.71007231995463,377.34476993547287 269.1913446399849,378.51569543767255 270.6631375644356,378.4466341745574 271.64559502212796,378.55579551600385 272.17396081774496,378.5856477917405 272.68863687105477,378.70416574238334 273.76400981331244,378.9202603379963 274.18926563544665,378.91090366919525 276.04000227549113,378.6939179521869 276.40933404443786,378.6738679264672 276.5852617955534,378.7402557823807 278.54726399993524,378.7580780221615 279.5442850133404,378.759860246093 280.79791587556247,378.79060360603034 281.76260579552036,378.5001009607804 282.62942862219643,378.093753060326 284.6549279288156,377.7671593037667 285.57330574211664,377.67715657374356 286.9172306488035,376.97985694999807 286.96674673771486,376.19344290799927 286.96296021330636,375.51618890761165 288.79796821333,375.1401338145952 294.64407068444416,375.36826209921855 297.20609137776773,375.48366284079384 298.3041834665928,375.5135155324824 303.0015126755461,375.6899582245387 306.5171549866209,376.1569068900426 306.3214207999408,378.9523403424537 311.43322879995685,380.29345857317094 314.88333511108067,381.7147676635068 315.38898176001385,382.84200629103 315.70209820440505,383.5940895699314 315.89521095110103,383.89616969111376 316.1579374932917,384.2864672880387 317.45234631106723,385.47740534343757 318.286255502142,386.1782424277626 319.7563008000143,387.5701080756262 320.19495509332046,388.11589166347403 320.85497543099336,388.78998822229914 321.9256880354369,390.4580676109763 323.35087758209556,391.56699481687974 324.64295623102225,392.6647782503278 327.2008991288021,393.83695899276063 327.18720938661136,392.3578093259712 327.20526819559745,391.1548790896777 327.3561466310639,389.8811024760944 327.41381831106264,388.6741489074193 327.5352783644339,387.54070255410625 327.7950921955053,386.28962764615426 327.9296594487969,384.89107076334767 328.25996088888496,382.49225104873767 328.52443505777046,381.34763415530324 328.64647765329573,380.38078691932606 329.2864002843853,378.87926921457984 329.51970844436437,378.20558791898657 329.64582883554976,377.6464130585082 329.71194737777114,377.35412667074706 329.77194922661874,374.7480377741158 329.6236922311364,372.20474334887695 328.9543512177188,371.0199716183706 328.47142371558584,369.68503503198735 327.65673841768876,369.28268106485484 327.1732283732854,368.27790687815286 325.7244458666537,367.0458826138638 324.0196360532427,365.89628414518666 323.8390479644295,365.588832376292 323.47612415999174,364.8014865439618 323.4924353421666,363.01602352556074 323.2541755732382,361.58657328481786 322.60522353777196,359.1652202833793 322.51522076444235,358.59886759438086 321.5776190577308,354.6651047662017 320.6472991289338,352.1131121268263 319.27016931551043,349.5004863087088 319.1676418844145,348.39981428009924 318.3404319288675,344.22389485198073 318.22392348444555,342.02739455585834 318.5880123733077,340.0732974881539 319.2623049954418,337.7466293418547 319.1877395911142,336.24259310308844 319.3249282843899,333.9132106566103 319.46794240002055,332.068671686342 322.1907447465928,332.0869433488697 323.8539027910447,332.4069200217491 326.0404750221642,333.0531110514421 327.32148536888417,332.9800247127423 328.9808568888111,332.8735147000989 330.53915733320173,332.75630906189326 331.6707456000149,332.12348666921025 332.67825237323996,331.66402082215063 333.7708103110781,331.11988010816276 335.26328348438255,329.7592996211606 332.9584551821463,328.81941124389414 331.04975559108425,328.06268454669043 329.44048270222265,327.27876999386353 328.4361799110193,326.7577928341925 327.1618687999435,326.18511763279093 326.7855465244502,322.64296590408776 326.37135900440626,320.0968420727877 328.58443690661807,319.42342684493633 331.2760732444003,318.10154821933247 331.9308507022215,317.72584087913856 333.99916686222423,316.93030187144177 335.38619989331346,317.0301343750325 337.49325511115603,316.0897460533888 340.7380152888363,314.46700966451317 342.21796380437445,313.62510739278514 344.27084259549156,312.5942295609857 346.31236181326676,311.3418379887007 347.19170929770917,310.4495603652904 348.8065163377905,308.2647574522998 349.0450673777377,308.02006887469906 350.2890862933127,306.71015582361724 351.29659306653775,305.2183875904302 350.80900522659067,305.0855675810599 350.44316871103365,304.9255594769493 349.6249881599797,304.5444812126807 349.18749895109795,304.3755585900508 347.96882062219083,303.9258404758293 347.661820871057,303.7707343128859 347.2930716443807,303.60225680534495 346.5404270932777,303.2390045983484 346.11779271112755,303.06116679665865 345.6797209599754,302.8293980177259 345.01970062218606,302.45232752209995 344.71765247988515,302.35293412802275 344.32938808889594,302.1028904587147 343.728495786665,301.61037937167566 343.0285713066114,301.2257296759635 342.8007972977357,301.13926140172407 342.36272554669995,300.7826908403076 341.73066723544616,300.2322339039529 341.0840453688288,299.63898687349865 340.17557077331,298.6334495682386 340.0593536000233,296.6281555851456 340.0555670754984,296.1712901017163 340.6736443733098,293.99258587666554 340.92850659554824,292.78599880292313 341.1586107732728,290.3068361133337 341.2253118577646,289.3025934550096 341.3627918221755,288.0322399971774 341.8058151821606,284.79926886293106 341.72222037322354,284.2175697272178 341.82008746662177,283.4232470493298 341.90455608884804,282.38999923848314 341.53988465771545,281.40488788607763 341.47347484435886,280.95868894283194 341.3485195377143,280.00967739801854 341.9738786133239,279.80641276895767 342.6819586844649,279.61429186171154 343.29857962660026,279.378040864598 344.14384839113336,278.92871751484927 344.61308615107555,278.6256020393921 344.5111412621336,277.8727148862672 344.80299491551705,277.4844576881733 345.2436881066533,276.92324429552536 345.8993393777637,276.1271122820326 347.474533546716,276.17480896180496 347.8159032887779,276.53632271301467 349.441778631066,276.456085433485 349.4642065066146,275.4357321484131 349.3040073955199,274.5589110266883 349.2684723199345,273.4030352513073 349.03166890656576,272.7245739133796 348.88195555552375,271.86423557420494 348.28281087998766,271.5767124273116 347.343170275446,271.5704716107575 346.0350717154797,271.43139050819445 344.74415815097746,271.00879738893127 343.23857777775265,270.8086448799586 343.3140169954859,270.52245768066496 344.8528022754472,268.53518491855357 344.8868809955893,268.2681632786407 344.92969784885645,268.12328495807014 344.96028131549247,267.36189209576696 344.48987847100943,265.77847182087135 344.30346495995764,263.9993393566692 344.58774556440767,262.97580788476625 344.78435356437694,262.2117224946851 345.010088675539,260.74238865368534 346.03944078215864,259.5418607425527 346.7486859377241,258.58161202585325 347.2924891022267,257.7172062843456 348.03319153771736,256.2670120401308 348.4284464356024,254.75617856305325 348.79661312000826,253.88997458753875 347.4882232887903,253.34742512449156 346.62780842662323,253.13477390247863 346.0231295999838,252.80442851560656 345.3934014576953,252.29040832590545 344.5414334577508,251.47323412587866 344.1120998399565,251.24898993957322 342.7486597688403,249.883904106915 340.26236956438515,248.65523046610178 339.8493471288821,248.70471636555158 338.8753365332959,248.37258106167428 338.5392096710857,248.72388657578267 336.85333247995004,247.52418485254748 336.31040312885307,246.77877045964124 335.51261155551765,246.01239980454557 334.5053960533114,245.07527511497028 333.6222620443441,243.8630703323288 333.297786026611,243.43819521355908 332.8620444444241,243.11987270979444 331.6465700977715,241.47876578499563 331.00082204444334,240.82472710200818 330.81207836442627,240.2237409708323 330.66644280892797,239.5425024846336 330.5365358933341,239.04405571403913 330.11069752881303,237.9290110487491 330.1401159110246,236.86166592955124 329.923410204472,236.84561558748828 330.1345817599213,235.87100096448557 329.76117219543085,235.61642342503183 329.4265016888967,235.19643671892118 329.40727779548615,234.49021523073316 329.2336802132195,233.91328766406514 329.4209675376769,233.39877757127397 329.4302882133052,232.67872893437743 329.73495779559016,232.0795040030498 329.9038950399263,231.47626475954894 329.68340280884877,231.07187507400522 329.80661048879847,230.66035096091218 330.063511608867,230.2506095044082 330.2761395199923,229.3455195830902 330.317791288835,228.9397884120117 330.012539164396,227.38373556756414 330.00321848888416,225.91283196257427 330.3509961954551,224.00808861106634 330.54294385772664,221.43050591554493 331.1295638754964,219.47578550095204 331.32180280890316,218.61434755241498 330.839749119943,217.90584352822043 331.151991751045,217.3426949037821 331.47442887106445,217.02344294637442 331.10480583109893,215.83114872704027 331.37423160881735,215.05842804914573 331.49685674661305,214.41501228441484 331.7590007466497,213.73146458074916 332.8550539377611,212.92261935421266 332.16037233767565,212.85885689756833 332.1318277688697,212.24976844491903 332.46183793770615,211.85782849940006 332.538150968845,211.60456090571824 332.7662162488559,211.45384871354327 332.7790321777575,210.90495225501945 332.66631025774404,210.5000789304031 333.1603060622001,209.61720280186273 333.12040192005225,209.25379569130018 333.34031160885934,208.982243238308 333.40817777777556,208.8194899657974 333.3877887999406,208.53545177489286 333.6787686399184,207.21647528500762 333.81013191107195,206.47404589841608 333.8412979199784,205.13945032842457 333.7084782932652,204.12590141769033 333.70177905773744,201.69612968183355 333.75886819546577,200.99247634096537 332.17114936886355,201.09280727792066 332.3418342398945,199.99228588218102 333.5176957155345,199.50400578824338 333.7384792177472,198.74059218598995 331.83502250665333,197.68286756810267 331.51578936888836,197.9990260907216 330.7622710043797,198.82531695684884 330.3070142577635,199.1535136565799 330.0463266132865,199.63064657407813 330.07341482664924,200.02751335396897 329.9854509510333,200.26072799350368 329.98836366215255,200.68479451647727 329.47718286223244,200.936290996382 328.48656981321983,201.6470791415195 329.1818339554593,202.8679884345038 330.0416662755888,204.98828780814074 330.48701980442274,206.24708049977198 330.80013624893036,207.07690766919404 329.3746554310201,207.4675184095977 328.649390364415,207.82022682821844 327.5090639643604,208.24026570038404 326.9212788621662,207.16207513853442 325.9324134399649,205.5858027699869 326.429030684405,205.12384358333657 325.2846264888067,203.6246990901418 324.8043204266578,204.0309227722464 324.20634083554614,204.71316283708438 323.27194311108906,205.88322192698251 322.4138584176544,207.06308467371855 321.56159914657474,208.73699853516882 320.8340039110044,210.61066114576533 320.16466289770324,212.6051445621997 317.69147989328485,211.47926468215883 316.5540662043495,210.94329924945487 315.53869511105586,210.31770733301528 314.39574727101717,209.6666974662803 312.7308415999869,208.484619155759 311.99217806220986,206.98906474758405 310.1236738844309,205.75926016812446 309.80240184883587,205.92915018677013 309.4694789687637,206.66756827372592 308.97140536888037,207.47732825949788 308.93412266660016,208.2500755158253 308.7447964444291,208.81458507082425 308.6748913777992,209.28188730520196 308.1418652443681,209.71797571051866 307.6656369777629,210.14425352221588 306.9578481777571,210.66193917032797 306.3511304532876,210.97183654323453 304.9204067555256,211.1952299188124 303.7273602843052,211.92783375130966 303.4040493511129,212.28187270998023 303.138992639957,212.4687016038224 302.21653703111224,212.99842085212003 302.0519688533386,213.93746548175113 302.036531484453,216.00236863753526 301.42398833774496,217.81443787144963 301.2879647288937,217.78991439612582 301.0610645333072,217.77163325808942 300.21026161767077,218.12343342672102 299.78005418670364,218.4881635537604 299.1430442666169,218.94741945667192 298.2849595732987,219.42852242960362 297.63425991113763,220.00816317100544 297.0257945599733,220.5833436306566 296.52073045331053,220.20791593485046 296.3252875377657,220.01351369387703 295.42992014216725,219.91319136932725 294.3586249955697,219.71299246081617 293.646467128885,219.66617531795055 293.26140671991743,219.9769517853274 292.8355683555128,220.4634030230809 291.78378837322816,221.22406614304055 291.4529043911025,221.65879330062307 290.8019134576898,221.2129192815628 290.68103594658896,221.02431430004071 290.41947448882274,220.32339791895356 290.35539484443143,219.66528356273193 290.32306375110056,219.07984549552202 290.7317171199247,218.50689051218797 291.7141745777335,217.71010161202867 292.3517670399742,217.44836898340145 293.61559239111375,216.52672878606245 294.9021368889371,215.6933701087255 295.26884721778333,215.4195961584337 295.7261428621132,215.1016790760914 295.9416834843578,214.98039782431442 296.7024836266646,214.89969224849483 297.40124302217737,214.86669659009203 297.618822542252,214.86981780122733 297.72892302216496,214.09753964201082 297.42367089772597,213.57540316390805 296.0316862578038,212.01745827693958 295.34719914663583,211.56532223836984 294.5607671466423,211.3793843674939 293.7527810843894,210.97228243842255 293.0854789689183,210.3631887724041 292.924406044418,209.77237522607902 292.4044871110236,209.64440257381648 292.0153489066288,209.89009216468548 290.93735452438705,209.21589430165477 290.4620000710711,208.73031003947835 290.086551608867,208.283518065291 289.5086697244551,208.14172162069008 288.655827911105,208.17605598829687 288.23727132438216,208.3784948781249 287.7555089065572,208.5818253820762 287.23034709331114,208.94924669410102 286.1220605155686,207.1513734688051 283.6308187021641,203.15470939525403 283.0532280888874,202.42296822648495 281.8727062755497,200.27544324932387 280.4947026488371,198.9265407193452 279.53030400001444,197.3216703934595 277.6842276977841,191.17721443757182 276.4699184355559,190.13372351659928 273.9087715555215,188.7165300725028 273.0809790578205,187.94416026817635 270.60488334216643,186.83643811033107 269.74825500440784,186.17777781106997 269.8615594666917,183.8227278292179 272.37843313778285,181.3597315736697 274.28596764442045,180.52133439050522 272.9874810311012,179.8996697391849 273.18991445330903,178.79859655164182 275.1554119110806,176.41492594976444 272.20046648883726,176.115683160373 271.2293686043704,175.55733338184655 270.752266524476,175.59747039398644 269.93554232886527,176.0108811930986 268.89483064890373,176.21245769853704 267.6939198577311,176.39441155386157 267.3327436799882,176.66734205535613 266.61155640881043,176.75519706308842 264.65334072883707,176.23074228398036 264.13109162659384,175.25496765587013 264.5394537243992,174.07761043368373 264.7701404443942,173.92553466721438 265.7424034132855,174.24618696724065 266.5032035554759,174.21586103952723 267.5375072710449,173.73778115666937 268.844732017722,172.94529011117993 270.5169194666669,172.17197308549657 271.6284100266639,172.3030893120449 272.75970702210907,172.06226352998056 273.22137173323426,171.99447548447642 273.47332124435343,171.9797583402833 274.91190926218405,172.0520061296411 276.31583601771854,171.57258362794528 276.42448014218826,171.43968306609895 276.6315739022102,171.15827255148906 276.6653613511007,170.68375384935644 276.5794363733148,170.5495148206246 276.5925435733516,170.32563426508568 274.96462933323346,169.71776619146112 273.9536273066187,169.58977027924266 273.03757966216654,169.4265419348376 272.0224998400081,169.3944314266555 271.6945285687689,169.31058729987126 271.3231579022249,169.22629716148367 270.916543430998,169.38729575753678 270.1598210844677,169.97955550870392 269.2592108089011,170.39476075570565 267.88586752000265,170.87998351175338 266.3339750400046,171.29028133209795 263.9723488710588,171.955229764455 263.1055260443827,172.14343076734804 262.185691875522,172.11845623597037 261.82102044438943,172.014098341926 261.45984426664654,171.82812710048165 261.16158264887054,171.65553494472988 262.68580437335186,171.17209779913537 263.5636955021182,170.61373549571726 263.9175899021793,170.40635616489453 264.24323100445326,170.1548248437466 264.54469660436735,169.9095369313145 264.8184914488811,169.61519107606728 265.0937426488381,169.2994378124713 265.2987975111464,169.0198084852309 265.47996814223006,168.63849519437645 265.6119139555376,168.26164105988573 265.93085582216736,167.5329059115611 266.6179643733194,166.72968892019708 267.0199185066158,166.2087781680748 267.8547015110962,165.07195753371343 268.35918307548855,164.48548245365964 268.9577452088706,164.32403428689577 269.129012622172,163.39682001143228 269.1467801599065,163.33438119944185 269.1616349866381,163.16981024609413 269.3961082310416,163.09220764006022 271.1550944710616,160.31856551964302 271.93948757334147,159.7637437065132 274.1848965687677,158.9154523498146 275.70504049782176,158.98369041876867 278.6197905066656,159.33736843802035 280.9790865066461,159.15584649902303 282.1214518044144,158.93418437079526 283.4586774755735,156.98113960429328 285.079309937777,155.01068320090417 286.964416568866,152.9938238824834 286.50129550218116,152.34264466306195 286.1791496532969,151.3310829907423 286.8010134755168,150.54118746856693 287.75172238226514,149.5157909214613 287.276076657814,146.06758684449596 287.4083137421403,145.3075563372695 288.30368113773875,144.57919130800292 288.5774759821361,143.94984273333102 290.6711327288067,142.03725431882776 292.7490608354565,140.17192938545486 294.05453795555513,138.1665313562844 294.8462128355168,137.74323660152731 296.6952018488664,135.9264944526367 299.01401116442867,133.57269159366842 299.7241301332833,133.9099065081682 300.5428932266077,133.4103286730242 301.75545486214105,132.5021646360401 306.6604603732703,128.05228517448995 308.2907047821209,125.59981720469659 309.10131228435785,123.6839470078121 312.03615999990143,123.60766871104715 312.85637944878545,123.24411974078976 315.3883992177434,122.5879457865376 315.7067585422192,122.16551325388718 315.7265649777837,121.19752857787535 315.15130453323945,120.26924066152424 314.58565603545867,119.1130015165545 314.3896305777598,117.79348970903084 313.837963093305,118.07452229782939 311.71983957325574,118.51257555477787 311.17924039112404,118.48804102675058 310.41611007996835,118.77576395636424 310.17435505776666,118.92520129866898 309.8702680177521,118.24804859037977 310.2273663999513,116.29241274751257 309.0701462755678,117.01239566283766 308.42032042657956,117.23543821997009 306.0225766398944,117.73549881268991 305.4927544888342,115.36365807719994 305.4513939911267,114.1917800034862 307.35455943108536,110.36696213827236 310.83408412442077,105.75514453731012 311.5509023288032,104.16922442120267 311.9388754487736,102.01895725610666 312.586953671067,101.790545901109 313.7925247999374,101.72764351370279 314.7720695466269,101.79946822405327 316.4829960532952,101.61566829727963 317.4581717333058,101.67812460032292 317.65361464885063,100.64937781082699 317.7669191111345,98.93761459318921 317.7048783643404,96.65301231574267 317.5752627198817,95.39582407823764 318.2815951644443,95.40742343477905 318.8859827199485,95.32801244355505 320.82759594661184,95.56133791489992 321.2621724443743,95.60193562950008 322.31424369779415,95.79377088259207 322.78319018660113,94.47188875987194 323.1394147555111,93.83302827290026 323.5113679644419,92.56020922504831 323.9258467555046,90.81358436745359 324.3094508089125,90.77343190909596 328.86027064884547,90.96750205685385 330.3023539199494,91.09465137135703 330.4925539555261,92.32375762809534 332.7464098132914,93.23654861812247 333.0143792354502,93.31105289660627 333.30739797337446,92.36614048015326 334.4034511644859,90.2884788615047 333.0659342221916,89.15662017150316 333.30739797337446,88.10015399532858 333.4314794666134,86.58682875521481 333.10671217774507,84.86335636547301 334.1916970666498,84.65857322060037 336.55507086217403,85.79134731611703 337.42364131554496,86.17771162674762 337.72190293320455,86.16298874979839 337.60655957332347,84.3766057031462 337.3365512533346,82.965870393964 337.59053966216743,82.9814857931342 337.87452899548225,83.5347163635306 339.1575782399159,83.67302378913155 339.75992689770646,83.75600820279215 340.637526755454,83.75288513395935 341.4859995022416,83.90145392762497 342.58234396437183,83.78456197230844 344.18520888884086,84.1535298798699 345.3269916443387,83.59003934415523 345.569620479946,82.29619180544978 345.63020487106405,80.98805960366735 345.18222990224604,80.34692921827082 344.9026096354937,79.52644022053573 344.46046008879784,77.70207934512291 345.08203263999894,77.49996653571725 348.20766293327324,77.50799751176964 350.44608142226934,77.41697976557771 350.81890844437294,76.38678118330427 352.2248740977375,76.48895354021806 353.9754134755349,76.79993199452292 356.10169258655515,77.11492550501134 357.37862513773143,77.0306000909768 358.5547778843902,77.7462496694643 358.472930702148,78.45341981848469 364.6193336888682,83.11979356600204 367.7936062577646,84.15085296856705 370.5566040177364,84.62734265899053 370.71097770659253,84.26685242628446 374.066420906689,85.59861105575692 375.0972293688683,86.40390843182104 375.59879822225776,86.88708544464316 376.55970161780715,87.22526410850696 377.373221831047,88.42003892542562 378.4319923198782,88.90588837023824 379.0017186133191,88.27236546599306 380.5550674488768,89.04909998562653 381.0915888355812,89.29581635072827 380.70652842661366,86.94999206915963 380.2987488710787,85.97516044450458 379.51726848003455,83.52490099449642 379.4202751999255,82.99487042013789 380.00514759111684,82.08292930928292 380.65759487997275,81.61089568614261 381.29081827553455,81.06926039617974 382.142203733325,79.25115856179036 380.4906965333503,77.7498189882026 379.8362103465479,77.25725245341891 377.93071473774035,75.8473638931755 377.0871935999021,76.98642962309532 376.21804060437717,77.61373866978101 375.91861390217673,77.6503242062754 374.497793422197,76.14763521926943 372.7551183643518,74.81001923850272 371.9014027377125,74.17422493908089 370.94632476440165,73.40457675326616 370.35737457778305,72.48278008308262 369.6589064532891,71.46906699775718 369.03529500437435,70.37191364425234 368.419256604393,69.25512281770352 367.6689422222553,67.81618102517677 367.330776462215,67.68366405263077 367.0112520533148,66.85821983602364 366.69930069323163,65.93684196309187 366.8213432888733,65.19036689447239 367.2832992710173,64.61344211106189 368.87072682660073,64.03606962418417 369.8007554843789,63.28691095014801 370.2630027377745,62.74746158398921 370.5647596088238,62.31197461427655 370.7960288710892,61.933153793914244 371.1968179199612,61.01710970711429 371.43857294216286,60.11043202318251 371.8320802132366,58.267615978838876 372.14228394662496,57.51620665891096 373.4929080888396,55.52478108200012 375.57345763547346,52.8666929458268 376.93631516443565,50.60213897365611 376.2305652622599,50.596338115865365 375.21898069325835,49.16441400581971 374.43691775994375,48.25456396560185 373.71369159105234,47.51382991694845 371.5670235021971,47.70079856546363 369.7154130488634,47.678041053470224 368.32721493334975,47.56871571805095 367.1528098132694,47.4933035162976 366.97484316444024,48.89132552139927 366.3949223821983,49.787340066279285 365.7060662043514,48.37325967196375 364.1471832176903,45.52276014664676 362.6785942754941,43.49463494250085 361.9894468266284,41.430345757864416 362.0710027377354,40.457990129478276 363.32026453327853,37.29680063948035 364.1862135466654,34.748716801870614 364.7093364621978,33.990533451666124 363.7332869687816,32.13857374311192 363.72687900438905,30.59987344883848 363.70124714658596,29.50876420387067 363.6916351999389,28.310545984248165 363.7350345955929,25.017532062425744 364.1789317688672,23.676035384763964 364.536903964472,22.98163136705989 365.75354339554906,20.76987750211265 366.51026574219577,19.49618995707715 365.9128686932381,18.974484698381275 366.36463018658105,15.979453098319937 366.6687172265956,13.766736332327127 364.2695170844672,11.92130105313845 363.5270670222817,11.330847758159507 363.1355986489216,11.034058467135765 361.9381831110222,10.082098539045546 361.4715667910641,9.500120072683785 360.8272750932956,8.999813735485077 361.2251514310483,8.677135628880933 361.1890338133089,8.300900393049233 360.4462924799882,8.333034388488159 360.19579932442866,7.883604332455434 360.17744924442377,7.452025649778079 360.0003564087674,7.007056877599098 359.9656951465877,6.064898366108537 359.62112142215483,5.997951847559307 359.04003555548843,5 357.4100824177731,5.645366514567286 356.85754111991264,5.702940613846295 354.89116984885186,5.645812825474422 354.2739663644461,5.645812825474422 353.63986915547866,5.681517694960348 352.0949671821436,5.749356930959038 350.9223096888745,5.864951370516792 348.8985580088338,6.158177147852257 348.0349391644122,6.419268264784478 347.0283062044764,6.7084765254403464 345.07445959106553,7.108815111452714 343.56217998219654,7.485498690628447 343.38421333325095,7.494424833974335 342.84652686223853,7.657326886605006 341.4108515555272,8.140676651557442 340.73102478217334,8.38346689962782 339.2810771911172,9.008293513441458 337.51393535989337,9.76254613592755 336.6663364266278,10.129852838814259 336.2731204266893,10.389600344060455 335.5003781687701,11.408057538268622 334.6801587200025,12.464891576149967 334.3306333866203,12.913865988259204 333.0338943999959,14.361646029981785 332.02959160879254,15.479161478113383 331.58627697767224,15.96918842883315 330.5851781688398,17.078662542044185 329.75796821329277,17.76594458776526 328.7277422932675,18.66788744722726 327.67450595553964,20.236125664203428 327.35847679991275,21.341115494375117 326.7683615288697,22.645585449179634 325.6210446221521,23.836247826111503 323.45457009773236,24.1803248480428 321.79228586668614,24.20977888716152 321.6204359109979,23.908990483847447 320.73118520888966,23.627837747277226 318.3194604088785,23.18334792694077 317.22282467549667,23.249842947057914 315.8794823110802,23.43326199252624 314.3328327110503,23.802330995851662 312.8584183466155,24.081698415451683 311.2610875732498,24.48155915364623 310.946514773299,24.588218312710524 309.74618652439676,25.0349366562441 309.36840789334383,25.059481593954843 308.0329298488796,25.531190137553494 306.08403484441806,26.284493645187467 304.4462173866341,27.017266267852392 302.44343722669873,27.982987243391108 300.28511829325,28.699242441216484 298.75652750220615,29.566778328386135 297.83203299553134,29.83587441383861 297.0747281066142,30.27276437333785 296.4141252266709,30.83282122563105 295.76895971549675,31.04345578479115 294.6988296533236,30.951972579350695 293.8972515555797,30.769452314591035 292.4036132977344,31.169747171807103 290.59452842664905,32.331356780952774 289.3813842488453,33.27741924347356 288.23261098668445,34.53897829045309 287.6690013866173,35.396227414603345 286.7328560354654,36.72515777562512 285.90506353776436,37.10759192449041 285.27620920876507,37.14686167117907 284.3077327643987,38.06835996673908 283.7950956088025,39.15005571115762 283.46188145771157,40.06440576823661 283.04303359996993,40.90199885389302 282.5469988976838,41.32057108316803 281.8727062755497,43.12202905176673 281.45327587553766,43.869025136809796 281.35948657779954,44.9529235541122 281.15151900437195,45.5330234389985 278.3256066844333,45.31258566270117 276.9767301689135,45.221108383033425 275.42629404447507,45.05243310437072 274.73306879994925,44.75033446511952 274.0899421866052,44.54417533316882 273.6131313777296,44.44421932089608 272.16959175106604,44.15773799887393 270.68818687996827,44.08723319263663 270.0709833955625,44.090356823813636 268.56045141327195,44.38844027649611 267.5153706666315,44.82173152215546 266.3820347733563,45.33623588003684 265.68502300442196,45.682510469458066 267.02224867558107,44.43841830093879 267.5811979378341,43.68696180835832 268.1558758399915,42.76504078076687 267.3216753776651,41.49862022307934 268.52986794663593,39.24956788291456 268.494915413321,39.089812894701026 265.9742552177049,38.07862360647414 265.783763910993,37.99696072086226 265.7089072355302,37.972417224780656 261.9649083733093,36.44580639078049 263.9012787200045,32.98958463186864 263.68369919992983,33.00252604106208 263.27038549329154,33.04982911655679 263.1859168710653,33.06589430972235 262.3403568355134,33.13908017473295 261.6969389511505,33.17924313910771 260.8408931555459,33.36622395471204 257.12835157325026,33.73215253779199 255.87297308444977,34.20205749757588 254.7416760888882,34.36627855768893 253.4277521065669,34.43232394946972 251.55080106656533,34.23954275029246 251.52546047989745,34.469362910604104 252.49306311109103,34.69293530238792 251.38739797321614,39.271880022773985 251.63614350219723,39.29419216053793 251.0096193421632,40.350446173222736 250.2715383466566,40.663706845778506 249.2471378488699,41.00463390909135 248.6474106310634,41.626244330080226 247.28659199993126,44.632975502405316 247.1086253511021,46.09482640994247 247.02910833770875,46.74944331450388 246.73055544891395,47.6856268910924 246.2968527644407,48.62626872735564 245.26808319997508,50.12914545129752 244.21222542226315,50.96491539262934 244.33252039109357,51.13135505048558 244.55097372445744,51.43299872090574 245.45420543989167,51.30448785854969 245.45449671102688,51.3330458344426 245.14866204443388,51.41158024908509 244.1062027377775,52.03940834128298 243.65851903997827,52.60208715085173 243.4697753599612,52.74398372124415 243.01277098653372,52.893912073690444 242.66674090665765,53.12058926996542 242.6536337066209,53.30264480202459 242.53916416002903,53.39099522656761 242.2997393066762,53.37225423043128 239.68791125330608,54.713123862515204 237.584060017718,55.86300789169036 236.5375229155179,56.451110791182145 235.2702023111051,57.10212726856116 232.9167317332467,57.7723286509281 232.29224647104274,57.96151961752912 231.36746069323272,58.2470905801747 230.348885617801,58.599145523039624 230.24752327112947,58.51258200244047 230.2149009066634,57.1391624181997 230.10130517324433,56.74382303003222 229.5778909866931,56.36990092427004 228.45504085323773,57.13470035226783 228.3009584355168,56.396673411130905 227.67967715545092,55.96295872278279 226.60809073771816,55.275349632429425 226.04826766217593,55.11471384461038 225.24319431104232,55.12899258604739 223.71780750213657,55.28784352215007 222.8958404266741,55.383332512923516 221.06520149332937,55.10623584140558 221.89066382218152,53.58866801782278 221.29996600886807,53.6667554146843 220.38333582214545,53.58331345242914 218.7018276976887,53.261593077506404 217.12488590215798,52.8876650610473 215.99184128001798,52.31115427415352 214.72539448877797,50.99882804090157 214.5180094577372,51.22506096860161 214.13236650661565,51.31162735284306 214.1084822755074,51.39328530267812 213.19010446220636,52.38388752931496 212.9046587733319,52.77298772591166 211.45471118215937,54.52571495366283 210.93857877328992,55.28248899808386 210.63420046214014,56.216851478326134 210.8147885510698,56.36053055303637 211.29858986660838,56.83529552485561 211.45238101331051,58.50633514911169 212.0328843377065,59.717775175347924 211.7017090844456,59.99932805437129 211.26043335103896,59.58079131488921 210.54419768881053,59.73026881314581 209.24774997332133,59.79809140576981 209.08784213324543,60.13006484723883 208.7211318043992,60.045732931699604 208.01479935995303,59.637905117240734 207.51177415100392,59.208658834104426 206.2668814221397,57.29711949225748 204.96722972439602,56.98254385148175 203.03115064883605,56.630486325128004 201.96859363547992,56.625578041304834 200.44175047113094,56.044614948448725 199.5350235021906,54.89562428952195 197.4157348977169,56.19454105460318 194.54846207995433,57.901281945290975 193.1582250666106,56.81030792032834 191.4143849244574,55.87371691141743 191.09689941327088,59.116741122095846 190.49746346659958,62.17543856333941 189.70229333324824,64.09362846397562 189.34402986662462,64.84099963068729 189.17480135103688,64.967717833817 188.75391459546518,64.92622209223919 188.3001142044086,64.8418920126278 187.29318997333758,64.5947020695894 184.63388472876977,62.468589392025024 182.09662207996007,60.46426878776401 180.0484036266571,58.60449996648822 179.94908017781563,57.32299945410341 178.7149644800229,51.30627273209393 176.8231586132897,52.080014076665975 176.2866372265853,48.86589079233818 170.4938373689074,49.51157502189744 171.5185291377129,51.73062602058053 166.31963107548654,55.284273839439265 159.6390368710272,54.14063376671402 158.7704664177727,56.841096218442544 158.20947825768963,57.68130275059957 157.4556686221622,57.731277759419754 156.54195114655886,56.993699023732916 154.33586375101004,53.9822282163077 151.83238855109084,54.08485717745498 150.64895402663387,53.77206180320354 149.9982543644728,53.80552780604921 147.7406119821826,53.3334335903055 146.48290332441684,53.295951586565934 143.44669326220173,53.771615589852445 141.29186958214268,54.184808815422 140.5467980799731,54.473061945755035 138.72402346658055,55.427061102353036 138.10885887988843,54.630574719863944 136.73405923543032,53.00189612148097 134.7805038932711,51.66056985582691 132.6093690310372,52.713641066104174 131.95837809774093,52.95370490010828 129.57374151109252,53.2731946525746 129.38616291549988,54.94693856325466 129.2679068443831,56.07629577105399 127.46930773323402,57.501035660505295 125.79537265771069,59.326010031974874 125.00486286217347,60.499964772723615 123.90851840004325,62.078167730302084 123.549381120014,62.61717253981624 124.40746581321582,63.08969305554638 122.66770346660633,67.62075192655902 122.24448654218577,68.50732044212054 122.02282922656741,68.90531581721734 120.30957255105022,70.80604614497861 120.15490759105887,70.94793099060189 119.64052280888427,70.63203630398493 119.66382449772209,69.83515871199779 118.36912440881133,69.20291951240506 117.45657201774884,68.92807113641175 116.50498929771129,69.20916606241371 115.91953436436597,69.69371933082584 115.71447950217407,69.61652997729834 114.19608319993131,68.89193033421179 113.63392995554022,68.4801032433752 112.01766655989923,67.85678385273786 111.21696227556095,67.7456837904756 109.30127217771951,67.86124570138054 108.29172650666442,67.73229823703878 101.70783431106247,69.96455112611875 100.12856234668288,75.01391919713933 100.4649804799119,76.52330842684023 99.8166109865997,78.34143277269322 96.8960355555173,79.10794057731982 95.34006527997553,81.43332512001507 95.46006897778716,83.18448588153115 95.75396152888425,87.19938765920233 95.79677838215139,88.28931891941465 95.60046165331732,90.04667114734184 95.48744846216869,90.79529269295745 95.44113635551184,96.23142231168458 95.50084693322424,98.83143754687626 95.71900899556931,101.62369839439634 95.41375687113032,103.57678776141256 93.59680767997634,105.26219450024655 92.68542037333827,106.02102482342161 92.27822335995734,106.1727013529744 92.2284159999108,106.36675793712493 92.21618261327967,106.66475714044645 91.48975246225018,109.35565385047812 90.4851583999116,109.39312631811481 87.68604302220047,110.82019804720767 86.54280391102657,111.52369327569613 85.27781347557902,113.24249620293267 82.81569877325092,112.95476604776923 82.55268096004147,113.03194021922536 77.0636768710101,114.28099819563795 74.05805027554743,115.88424294954166 73.68260181322694,116.57255507842638 73.23462684440892,117.06458764139097 72.18896355549805,116.01048571104184 69.53577500442043,117.20242793578655 67.39930140436627,116.70771916490048 65.4410857243929,117.92999129684176 64.52795079106,119.22719824535307 62.27846399997361,120.1247111002449 60.46005845325999,120.02345113502815 54.147630933322944,123.10806751792552 54.46366008883342,125.04847652220633 52.86749440000858,130.26385438314173 51.2780279465951,136.58039845887106 51.12685823999345,136.58173659606837 50.651212515542284,137.27489056182094 49.55748949327972,137.6932797380141 47.77724046225194,139.90430614852812 47.18916408892255,140.2771944361739 47.023139555589296,140.9988831335213 47.15129884448834,141.944479085505 46.370400995598175,145.2290553842904 45.60028017766308,147.19647708465345 45.594163484405726,149.54032199492212 45.573191964416765,150.5799909849884 45.42639132437762,151.83329628850333 45.47328597330488,152.8542219242081 45.30027093330864,154.0664813464973 45.55280298658181,156.47001792909577 44.77423530665692,157.47352795052575 44.57005425775424,159.29767446406186 44.232179768849164,160.36985524685588 44.11858403554652,161.5669094916666 43.19030300434679,161.5405957759358 40.631777564412914,160.97596512013115 40.30526264884975,160.67759335995652 39.27299783111084,159.59337209776277 38.55443199991714,158.98101441643666 38.08752440882381,158.94890238624066 37.12516465771478,159.08404048194643 36.17736846220214,159.2611024818616 34.185947875492275,160.22936596540967 31.83684636442922,161.16016153572127 29.634545493288897,162.441058259923 28.451693510985933,163.69518808997236 28.060225137742236,164.1309207166778 27.460497919935733,164.31868241191842 27.20709205325693,164.41992202447727 26.139874702203088,164.42081400332972 24.915953493327834,164.7686854439089 24.202047999948263,165.13127393781906 23.96670094213914,166.3202745799208 23.50620131555479,168.06362513813656 23.24114460439887,170.11914661887567 22.506267591146752,172.55996985622915 22.84268572437577,172.79633537027985 24.18253283551894,173.5923947180272 25.060132693266496,174.14004620187916 25.63801457779482,174.78893117420375 25.672384568839334,174.81881105469074 26.41658225771971,175.3655675565824 26.817371306591667,175.6857717948733 27.350979982176796,176.12683230283437 28.169451804365963,176.7748194966698 28.680050062132068,176.97951705101877 29.578621439985,177.2885698612081 30.05717987555545,177.76976377796382 30.724190720007755,178.4016915425891 30.743123342166655,178.97341291315388 30.063879111083224,179.33686995552853 29.836687644477934,179.38770929776365 30.379908266593702,179.66108205076307 29.954652444343083,180.6667162582744 30.63447921781335,181.05737380834762 32.30317141325213,182.058542107814 32.351813688874245,182.90317677083658 31.17478712880984,182.32433034444693 29.664546417770907,181.56085723207798 28.81782129779458,181.18224137229845 28.183724088827148,180.87453189049847 26.799021226586774,180.2934503495926 25.60917873773724,179.83233006257797 24.33515889768023,179.24812405812554 23.540280035464093,178.82847588858567 22.68103025772143,178.44316591974348 21.853820302174427,178.168007809727 21.397689742268994,177.9312020947691 21.03826119110454,177.67744954914087 20.82388565328438,177.5396470776759 20.48513735109009,178.45877455419395 20.099494399968535,179.46887383726425 19.418211271055043,180.3821958260378 18.97780935105402,181.41904359403998 18.31575011543464,183.42716972099151 18.017197226639837,185.16057411779184 18.202154382131994,185.64844004361657 18.22021319111809,186.06316982605495 17.385721457656473,188.44762795930728 16.64094122662209,189.93037599278614 16.50841287104413,191.30787342280382 16.34821375994943,191.67220199288568 16.399186204420403,192.25771286414238 16.63628088880796,192.88870722532738 16.906289208913222,193.31635538022965 16.975029191118665,193.52817245927872 16.925221831072122,193.73285445390502 16.709389937692322,193.99952047108673 16.499966008821502,194.34734522609506 16.543656675494276,194.8615005571628 16.71812807105016,195.17008236551192 16.748711537802592,195.39393768436275 16.354912995477207,195.80998690612614 16.09131263999734,195.64142686594278 15.595860479981638,195.52236453752266 15.285074204439297,196.35134023753926 15.133904497721232,197.99456687632482 14.842924657743424,199.98604303854518 14.831856355536729,200.52203511679545 14.566508373362012,201.1980432336568 14.449708657688461,201.56993599701673 14.313393777702004,201.71931720618159 14.267081671045162,201.94673318084097 14.341355804353952,202.6436947947368 14.131349333329126,203.00666689290665 13.95775175106246,203.63049592077732 13.899788800044917,203.87396266771248 13.698520462145098,204.01264049316524 13.734929351019673,204.40325666422723 13.872991857700981,204.60034812241793 14.218439395539463,205.45738178049214 14.266207857755944,206.30950715532526 14.465437297709286,208.80611297913129 14.553109902190045,210.53798009909224 14.604664888815023,213.17499365203548 14.273489635554142,214.71464896568796 14.129892977769487,216.14638944889884 14.131931875483133,217.40422665246297 14.005811484414153,218.4359955896507 14.300869119935669,220.0835163554293 14.729328924324363,221.34623570775148 15.200605582096614,222.55811845278367 16.150149404420517,224.08299455943052 16.717254257760942,225.36085044732317 17.095615431084298,226.8692102332716 18.0119543466717,227.92545721685747 19.11674567114096,230.02277687418973 18.885185137740336,232.53561062784865 18.575855217757635,233.54902890964877 18.06816967111081,234.9253620718373 17.930689706583507,236.59371423372068 17.61145656881854,236.63161091599613 16.77492593775969,238.74356042570435 16.768226702231914,241.10515701357508 16.521811342216097,242.88492009066977 15.480808391002938,244.03426846966613 15.121671111090109,244.63747334753862 14.198050417704508,245.34009572130162 14.717095537809655,248.3748101593228 14.09173646220006,248.3962094957824 12.511590684414841,248.73770695901476 12.236339484457858,249.07207080337685 9.939084231038578,248.60485291737132 7.835232995450497,248.28564623504644 5.183500799932517,248.3222034483333 5,248.32309508766048" stroke="red" stroke-width="3.016580597520093px" fill="none" stroke-linejoin="round" vector-effect="non-scaling-stroke"></polygon></svg>