<svg viewBox="0 0 224.59346607998236 253.6435569830494" width="1000" xmlns="http://www.w3.org/2000/svg">
  <title>Hoštka, okres Litoměřice, Ústecký kraj, Severozápad, 41172, Česko</title>
  <desc>Geojson of Hoštka, okres Litoměřice, Ústecký kraj, Severozápad, 41172, Česko</desc>
  <metadata>
    <collboard>
      <support-module name="@collboard/map-svg-geojson" version="0.11.0"></support-module>
    </collboard>
  </metadata>
  <polygon points="8.052549999999997,25.83610296858342 37.58336287106033,59.69548071476265 39.412545448845435,60.04769188431192 35.91234050665628,72.24144762565948 35.922243724438545,72.49013373183652 48.02106313766092,79.54665455406166 49.383046853333894,80.02614888005292 53.23365094219446,94.95955223390001 53.96707160000335,96.29123072754692 66.3399771288747,107.75715620458459 67.49632343996893,109.7769900840135 68.66373805326987,92.27831085955359 69.39541108438391,91.96553536263627 81.04101264882013,113.98144436148095 82.01356688884664,114.31570916422743 44.00152180446423,133.40320398050926 41.87232998220827,133.5524650597722 42.455454746588316,160.25846749565198 42.82944685323275,162.63855342215493 54.346889128886346,161.30453656890995 55.31478303109873,161.33291999178573 68.47091657770909,185.76737654020644 69.17754029329046,187.43356340970013 44.038221964357604,211.79321492647387 40.74278061334155,216.63552458919685 16.668640737748888,218.09048473972462 15.895315937792134,218.46440654507705 26.99624052443653,231.3814749424123 27.185275475472395,233.85962959574636 39.913531759964485,232.8605911623231 41.45552102218028,232.77455373839575 40.24033794666286,244.99106783161506 40.80453008888401,245.59100698304928 76.80010527102388,222.29741104090454 77.61945090661868,221.61960348670937 124.49604098659586,220.09601616240207 128.82782495112735,221.68001585998672 130.25010178655032,204.1848945397428 130.3864166666532,203.9789265432987 184.53779401779286,216.31514828091122 185.58870018667187,216.3934116800442 203.690617199965,209.05300547657635 204.5658868888637,208.93171596495768 211.8485384799784,188.54083819039033 212.17913119108528,187.9526420819816 202.60446722663585,181.2718121756111 201.7871604888711,180.70007552413836 207.13111156444177,157.61191304159684 207.21033730658348,157.60321474660986 190.04194420445822,154.00117495444238 189.63445592005849,153.9650077535548 187.17816663996894,135.6183010749296 187.01476354661975,134.70809029762268 216.43605847992114,104.9336614982235 216.54091607998237,102.92156703942555 204.31044212435484,77.08092864181481 203.96703348434642,75.64013299110911 188.82763494223002,77.24350987500611 188.16120663993172,77.14321329768381 185.67316880889814,65.36605661441672 182.48549776882976,65.4201006414728 192.86756525326166,61.18722162061704 193.84681872881595,61.16111509825669 192.27774125323742,45.79390266063956 192.12715408878978,44.69918012628432 206.40497268443107,34.12634863946687 208.6891207378136,34.065425792104634 196.46505474657863,33.198762073450325 194.9583092889294,33.34351164647478 199.2871805422252,23.09720126479033 199.9279769867204,21.66474964391773 192.6461992087785,16.380583962636138 192.40910452439095,16.29079554961163 181.26740198219306,23.221343571181478 179.6560901955014,24.180122894212673 91.62056194662694,8.2202224765565 89.8053603821678,8.052549999999883 8.052549999999997,25.83610296858342" stroke="#009edd" stroke-width="6.383460301442425px" fill="none" stroke-linejoin="round" vector-effect="non-scaling-stroke"></polygon>
</svg>