<svg viewBox="0 0 68.2271915199956 75.48971424576236" width="68.2271915199956" height="75.48971424576236" xmlns="http://www.w3.org/2000/svg">
  <title>Hoštka, okres Litoměřice, Ústecký kraj, Severozápad, 41172, Česko</title>
  <desc>Geojson of Hoštka, okres Litoměřice, Ústecký kraj, Severozápad, 41172, Česko</desc>
  <metadata>
    <collboard>
      <support-module name="@collboard/map-svg-geojson-import" version="0.11.0"></support-module>
    </collboard>
  </metadata>
  <polygon points="8.052549999999997,12.49843824214588 15.43525321776508,20.96328267869069 15.892548862211356,21.051335471078005 15.017497626664067,24.099774406414895 15.019973431109634,24.161945932959156 18.044678284415227,25.92607613851544 18.38517421333347,26.045949720013255 19.347825235548612,29.77930055847503 19.531180400000835,30.112220181886755 22.62440678221867,32.97870155114617 22.91349335999223,33.4836600210034 23.205347013317464,29.108990214888422 23.388265271095975,29.030796340659094 26.29966566220503,34.534773590370264 26.542804222211657,34.61833979105688 17.039792951116056,39.39021349512734 16.507494995552065,39.42752876494308 16.653276186647076,46.10402937391302 16.746774213308186,46.69905085553876 19.626134782221584,46.365546642227514 19.86810825777468,46.37264249794646 23.15714164442727,52.481256635051636 23.333797573322613,52.89780335242506 17.0489679910894,58.98771623161849 16.225107653335385,60.19829364729924 10.20657268443722,60.56203368493118 10.01324148444803,60.65551413626929 12.78847263110913,63.8847812356031 12.835731368868096,64.50431989893661 16.01779543999112,64.2545602905808 16.403292755545067,64.23305093459896 16.099496986665713,67.28717945790379 16.240545022221,67.43716424576235 25.239438817755968,61.61376526022616 25.444275226654668,61.44431337167737 37.16342274664896,61.06341654060054 38.246368737781836,61.45941646499671 38.60193794663758,57.085636134935726 38.636016666663295,57.034144135824704 52.17386100444821,60.11819957022783 52.436587546667965,60.13776542001108 56.96206679999125,58.30266386914411 57.18088422221592,58.272341491239445 59.0015471199946,53.17462204759761 59.084195297771316,53.027573020495424 56.69052930665896,51.3573655439028 56.486202622217775,51.214431381034615 57.82219039111044,45.442390760399235 57.84199682664587,45.44021618665249 53.54989855111455,44.53970623861062 53.44802648001462,44.530664438388726 52.83395415999223,39.94398776873243 52.793103386654934,39.716435074405695 60.14842711998028,32.2728278745559 60.17464151999559,31.769804259856414 57.117023031088706,25.309644660453728 57.0311708710866,24.949445747777304 53.2463212355575,25.350289968751554 53.07971415998293,25.32521582442098 52.45770470222453,22.380926653604206 51.66078694220744,22.394437660368226 54.25630381331541,21.336217905154285 54.501117182203984,21.329691274564198 54.10884781330935,17.487888165159916 54.07120102219744,17.214207531571105 57.640655671107766,14.570999659866743 58.211692684453396,14.555768948026184 55.155676186644655,14.339103018362607 54.77898982223235,14.375290411618721 55.8612076355563,11.813712816197608 56.0214067466801,11.455599910979458 54.200962302194625,10.13455849065906 54.141688631097736,10.112111387402933 51.35626299554826,11.844748392795395 50.95343504887535,12.084443223553194 28.94455298665673,8.094468119139151 28.49075259554195,8.052549999999997 8.052549999999997,12.49843824214588" stroke="#009edd" stroke-width="5.317985481385278px" fill="none" stroke-linejoin="round" vector-effect="non-scaling-stroke"></polygon>
</svg>