<svg viewBox="0 0 152.88324670221414 126.29071134791526" width="152.88324670221414" height="126.29071134791526" xmlns="http://www.w3.org/2000/svg">
  <title>Frýdek-Místek, okres Frýdek-Místek, Moravskoslezský kraj, Moravskoslezsko, Česko</title>
  <desc>Geojson of Frýdek-Místek, okres Frýdek-Místek, Moravskoslezský kraj, Moravskoslezsko, Česko</desc>
  <metadata>
    <collboard>
      <support-module name="@collboard/map-svg-geojson-import" version="0.11.1"></support-module>
    </collboard>
  </metadata>
  <polygon points="8.052549999999883,90.05684403694579 15.965148186638089,103.15056227640127 16.4386093777498,103.71575458654081 27.97651344887663,109.45000127037167 28.272007991100963,109.54917444743444 49.46169005332149,91.74752258629417 49.650652186660864,91.4717265494761 54.82464656889306,91.4964717645122 55.194123973320075,91.69881971670077 60.29260631997704,99.20282479399577 60.352753804421354,99.24623526016478 66.12815021331289,98.95653160101904 66.29191739555199,98.92357996194153 67.39241247109703,103.95707845521213 67.42962235553523,103.94943167606073 74.71671583111265,98.37149647888839 74.8935902133303,98.0934845178923 84.75610285331595,94.81987746286143 84.84668816885778,94.79355914978771 91.65362121776661,88.34642845023302 92.80902089775873,87.78433953127353 91.11127440888185,79.7558604551374 91.64830551998557,78.6091119605477 89.06152678220633,72.99630170278363 88.92026029332874,72.83574078090135 83.6623798311116,70.5056978745339 83.5619641155422,70.38845048245969 85.12041019552953,68.42862650837162 85.40483643554717,68.07293180523959 92.67357983109059,67.60875855583402 92.80858399111412,67.60436998996704 107.88870886222094,72.251101516718 108.13971174220887,72.29082027878724 107.81865815999436,71.05963777052932 107.26633531554353,70.47025363182877 111.53003465774918,68.3649369592091 112.0259237244386,68.45529507847789 115.69441055108427,60.45999327456923 124.94998701330724,40.025410783425855 116.71123799999577,43.74911470329209 115.35675451555971,44.089882421721654 113.96404169777043,34.76736949937879 113.8737476533056,34.559856721905476 107.63617680888956,39.6056957652396 107.198250693305,39.827937970541484 107.18973101332767,42.61658434036474 107.49039561776544,43.38267727583991 99.4089330044294,35.13408982963995 99.3527904977741,34.6066963541449 96.55658783109493,38.06055833033281 96.30849766219717,38.112686601619885 93.80036212443474,35.82980457184715 92.9941236888767,35.6632797091512 85.02713062221983,37.39301933795616 84.95030786665257,37.503807280452406 82.48047447999807,26.22750636444073 82.41158886222502,25.841469449696547 78.06109072888603,23.675422993815687 77.75190644441273,23.825542216981944 72.2487757066624,8.689694141015593 72.07714420444199,8.307588786301153 54.55107017775981,10.97032994886797 54.37667159998773,10.957037967927704 56.533315724438125,21.845016458777195 56.83121325332422,22.67030055050384 63.305004968867706,34.30584109469021 63.78800528887177,35.7005479949363 66.89441168888106,50.91807336855675 67.00465780441982,51.22581606769347 72.33703085332627,56.44963627045911 72.54973158220628,56.76286279105227 63.31658299553192,69.61980996639579 63.28505289776467,69.6858610393316 63.407678035560366,67.05118281713624 63.506783031108625,66.89251744145406 61.30950658664324,66.93932940156776 61.08777645332839,66.80181915482501 58.34327440887091,70.42040661039175 58.585830426665325,70.78891342742247 52.046138622193666,70.88601878015436 51.71838580442227,70.4188313087576 40.992691226659645,76.3477205744781 41.010094675562414,76.42388935713791 34.32920919999697,73.78120942248609 34.07573051553436,73.55325429797051 29.84195927999781,74.7416259167145 29.602680062212585,75.15780866433454 27.638129235543147,71.54549796715548 27.454628435552422,71.27657634407626 23.171268293320736,76.53201059334208 23.075221644430258,76.67073398939795 18.80584251555365,77.09837786626997 18.481293679978535,77.20075988249266 19.912745555549463,79.83539956072457 20.01177773331392,80.08492884768168 14.467504951091087,81.26067123897485 14.17958345777106,81.40849506657798 15.922549786664149,84.11391559403967 16.35071831997584,84.47355579789257 8.052549999999883,90.05684403694579" stroke="#009edd" stroke-width="5.252572003090351px" fill="none" stroke-linejoin="round" vector-effect="non-scaling-stroke"></polygon>
  <polygon points="108.2485015022171,97.9757338806154 109.16549577774231,101.60361930242618 109.1166350488561,102.93521190054128 111.19026690666897,104.46243822719373 111.51000976889145,103.97799463978265 116.26268048887823,113.59319566119632 116.4922021244488,113.99828967788892 124.26440763555684,115.80054507780699 124.74879149330764,115.89543448566803 126.14703846220027,112.34202874640289 126.30716475554027,112.06791053797463 128.44443935109985,116.4621816601499 128.58563302222274,116.62801115641889 141.61397136888218,117.88290256378934 141.79135547552823,118.05895831259079 144.75620411555383,109.81869520153089 144.83069670221403,109.5883039508841 143.2947513155591,107.94663984026522 143.205549537764,107.77111379901874 144.59207284442482,104.88660397678143 144.48160827553465,104.60547646118323 134.66460674667132,94.25425588849578 134.27881815998217,93.62429346398096 133.5127751377654,83.32814358648432 133.18808066665179,82.70120530299721 124.8556151733278,78.01395880938037 121.10156745775703,75.61167940212874 115.3041072622068,78.62385007556406 114.49837855110627,78.02599694292405 108.48930989331666,93.31195268387785 108.34673268444703,93.39563364379103 108.2485015022171,97.9757338806154" stroke="#009edd" stroke-width="5.424856501637727px" fill="none" stroke-linejoin="round" vector-effect="non-scaling-stroke"></polygon>
</svg>