<svg viewBox="0 0 358.3749000194729 546.765311227973" width="358.3749000194729" height="546.765311227973" xmlns="http://www.w3.org/2000/svg">
  <title>Jihomoravský kraj</title>
  <desc>Geojson of Jihomoravský kraj</desc>
  <!-- Generated from maps/2-geojsons/world/europe/czechia/jihomoravsky-kraj/okres-vyskov/okres-vyskov.geojson -->
  <metadata>
    <collboard>
      <support-module name="@collboard/map-svg-geojson-import" version="0.11.1"></support-module>
    </collboard>
  </metadata>
  <polygon points="17.261356071965565,442.03407484387935 30.241489049705706,456.96473536166377 30.29224304082527,457.0101172372124 41.011529654166225,448.7433263865714 41.20682693417257,448.87938093745106 41.11726106748756,452.2152267951642 42.114136445296026,454.5356382667851 37.08832624084971,459.7023747259118 36.793923965266,460.05228625843665 40.36279607193501,469.1268552788424 42.72536887195383,470.4548569047947 36.35461431193471,483.50498239370427 36.33801185862467,483.74167701391343 46.38897690752128,488.691130415933 46.82894192084859,488.97315841266027 55.6243828452898,521.2745644748102 55.88405104085177,521.6004217524205 66.92905157416317,529.2985602506997 67.14422810751785,529.3749863511803 78.03310732527825,528.598056793755 78.39035134307414,528.60538846489 88.38866913861784,517.9961088852615 88.42784510304409,517.9616656254984 101.10563866749362,518.379538691388 101.99008339639477,518.6777476887983 108.34474522750315,508.58863429304984 108.55416915640308,508.45139329015 131.3533425608366,500.93573309301064 133.01686469417837,500.08816090276014 132.48784353859446,495.10660531711255 132.61061431195776,494.9285374244828 147.59374590307198,481.25071824073166 147.77193100528166,480.51891867966697 161.84418501415712,484.2888835195372 161.9998694230635,484.2776548342845 179.65191820527616,475.033114992013 179.81561256973146,474.59879057422586 196.44012968971583,482.0547748823192 196.76409598304963,482.1497221695645 199.47277168084474,478.2505230074639 199.96421886304233,477.49700187219787 198.17930949417132,484.37626707127856 198.405772783055,484.5358028427472 208.38006071195196,483.4351634016384 208.5945818852815,483.71677354128406 204.9807083919477,445.5356569587202 204.8909968897242,444.6336088829157 215.27408382307112,433.6250535249019 215.37631998306097,433.48706964064695 231.94818984972153,450.9216051012954 232.35494995639965,451.5324332603959 232.52650864083625,464.0497513026967 232.5358293164063,464.0560906061328 246.2216393785966,457.06873543789334 246.25702881861434,457.03113971102357 251.95370920973437,462.85427912099476 251.99375898750804,462.8976542271739 272.7369224363829,456.33850616102063 273.20157267638206,456.38466717060146 271.83500144082427,452.81602917318014 271.7886165163836,452.60022607229257 280.6080873075007,447.77035413927297 280.73682913861194,447.66311032197336 281.6714453163913,440.2156076846186 281.7677832363879,440.044149753845 301.3680716630661,430.28174043052786 301.3947957875098,430.2560338367075 299.16242117416186,425.2790784086137 298.97542512083965,425.01252858389125 314.2608233075189,427.6899881110621 314.6128972630722,427.7231522701222 319.7485166764127,421.73091091348397 320.1141347386183,421.4676829960845 330.2135964275112,421.5522722312344 330.31852684529804,421.46423264294936 340.9969626852726,380.2648764728401 341.1135439475074,379.7996198053188 336.3886168008212,370.6660045570061 336.10076812528496,370.5654063920556 325.7872221697362,382.28925976668324 325.1197016008264,382.7924759472844 300.8627162852681,380.63077463726586 300.81997224972656,380.61384424307107 313.68388805418,363.995826239352 313.7663905963891,363.71538699913435 302.9528777786072,356.74606372164635 302.91006092528187,356.7247801243102 303.4355140097214,347.71116222524506 303.3814104008379,347.2016072975712 292.6404240897282,335.86167655703684 292.4352964097234,335.69992658590854 301.0737422052953,319.006805393572 301.05728538752373,318.8145639407194 288.9503832008231,302.84748391813264 288.138173707488,302.51999714231715 302.8478745430657,287.5785728069932 303.23031351196187,286.9978353228835 311.3812442852832,266.43979923398365 311.6214701341705,265.71384879706966 307.1731777252753,267.6104076337542 307.1387349163888,267.55984697291933 309.6495647119482,262.72857836298135 309.66019610748117,262.7037980991481 303.23766810751476,247.33174555981896 303.3203162852915,246.97768954511048 298.4195342052735,245.07863310799075 298.2913749163745,244.73137381520428 292.7300627741679,223.8867784826034 292.70574163638594,223.84410845705497 296.11514280971096,222.3291894046597 296.3515821341607,222.23803824777497 294.97539895195587,213.60200995338164 296.2543704008458,212.56622110765966 286.78398149415807,213.20751646873032 286.77524336082934,213.2089688713204 278.94944396526625,199.6865560215556 279.24726867639765,199.2041259392463 248.4977774764011,192.19449930945484 248.0623271652621,192.4332309013589 220.26690757416145,174.9290882302339 219.30614981415056,174.62118723075037 230.83262149418078,168.3819633774292 230.885487200856,167.940518430074 210.4786690675137,161.29124443042747 210.248200800841,161.18802634798703 211.5551342763829,140.31251943407187 211.5370754675132,140.27246942480633 214.8228320541857,136.94821690691242 215.13361832972805,136.79326518446396 208.61009207195093,128.89585456140412 208.45069395639075,128.70440233213958 211.36726440971324,125.91937393141052 211.31556378752066,125.20387556533751 202.13957715638753,122.85074453980269 201.87466608082832,122.69978172405172 204.78031386751172,123.32981652564558 204.9177938319517,122.92919132476163 204.68703429417292,109.71621109078478 204.50302376972468,109.40682518156609 184.99390320082966,100.28050030510713 184.74129832971448,100.06151973391025 188.94266565416547,93.74082233169247 188.95417086304587,93.24559286903605 188.10475148527257,88.23258475821422 181.53877246306,89.3306260727295 184.41645822306236,67.72890724744138 184.39737996527765,67.64959744512817 171.901703663043,62.022005652241205 171.417392623076,62.378375292861165 176.90217328082144,58.71497326325698 177.38648432084665,58.36272526688481 175.5632728008386,54.49322635327189 175.48448396525419,54.374569062161754 163.08616503193116,52.1827804717941 162.7853547919549,52.03890661958212 163.11842330750733,46.55819739734943 163.39432986748943,46.16541650116051 159.30022312973233,45.286047767924174 159.11737768970852,45.15986218570106 163.77422021418533,38.71358947000772 163.7320587208269,38.078884461854614 155.2568703830657,26.803717595601483 155.8567432363816,25.38828729119632 148.81184168970867,22.96147812575873 148.5628048897379,22.945894720138313 147.2217198763865,30.653646808135818 147.16441228527765,30.730319804006285 133.77628129859295,18.009880529763905 133.37884186748488,17.5027552039719 125.56716912084448,18.285024610686378 124.92375123639431,18.357230082259775 103.00552730750132,30.15482133919795 102.9376611386142,30.20930002670866 107.33206839194827,33.67912229324065 107.33148584973605,34.08208048784945 99.0408905786062,40.4012436827652 98.6613643208293,40.70900130164591 90.8048358230626,39.661766573572095 90.55106586749389,40.10715758677179 99.99036158305898,43.7398621564389 100.12551137862101,43.75521552187638 97.58650110305825,51.28053727839506 97.57885523639925,51.413656059190544 104.16129107638335,50.87400755557246 104.405084996386,50.80655111959277 111.27879194751222,61.461847501796 111.25650970750212,61.62496614504562 121.74110462305907,65.68552309398729 121.9955299385947,66.1310390763283 114.82254192083565,75.82888164678661 114.70719856083815,75.95869284276341 125.9777885697149,80.1179768051843 126.31420670306034,80.46706143579286 125.64785121860405,88.62002586845847 125.6424627030683,88.84666645316247 131.91476762750608,96.53296855591543 132.26392887194015,96.79058945953511 124.05132144083109,103.89903903512823 123.30544894306877,104.19065670359487 125.88261573417185,111.10182219294438 125.79807429416178,111.46537282003919 115.60970209860898,110.5746247373645 115.52792773417968,110.69047429347484 115.59047820528576,125.82884611060217 115.69526298750498,125.90505062729426 94.11789907639104,143.12590361248658 93.72723169862365,143.57672080387783 87.75296993861048,165.82739268655496 87.63238369861574,166.3717276896532 69.18057726305051,152.13125497717192 68.1705946852926,151.88194646848206 60.89456951195098,156.78659566890929 60.836096836388606,156.85571148943927 58.65593256971988,165.3751924598364 58.295557387482404,165.4259589416506 68.98557125415027,180.1752148031701 69.36487905863396,180.34692458967402 70.53484229416426,197.5731970796951 70.77157288972012,198.00691667638966 77.17931888082603,198.63541846904627 78.39712339638572,199.63045711889936 61.57636236529288,208.42398801412855 61.324776943063625,208.62119639672528 52.70846775193422,227.86846113708816 52.657058400847745,227.9989190033266 80.53257754749575,243.59053903646782 80.53687379639086,243.67942160112216 74.57222398305385,250.3899756662904 74.26762721861087,250.6136057737931 64.73745491639784,250.24237706464555 64.7097113430682,250.2793325761777 73.83538088972637,254.54724812943095 73.84870654305632,255.12162972505394 68.31732250751884,266.1685734842795 67.96328247194833,266.5274171432866 55.70965246305059,272.35866150587754 55.60122679193228,272.39203087067654 56.643758916401566,284.71008286932556 56.61929214305201,284.87555313222765 63.01101822306009,288.4809631083517 63.43998775196451,288.6274550942362 67.11451845417105,302.84056834558214 67.63014113861209,303.87532911879316 79.28455365416085,308.1521415273055 80.17875596527665,309.1211121070555 85.95728353860977,322.525352228844 86.36491745863532,322.92564168807075 77.3792764986174,326.7705023877097 77.2414324452875,326.7097386386922 80.00719728084005,330.7454209247262 79.98513349418135,331.0205652491022 74.793881298614,329.31962064921754 74.7268161252905,329.834357868549 82.41455301417227,338.4069187170571 82.64880780528256,338.84900503013705 86.44407038308054,355.3024377480215 86.47188677416489,355.3793280816353 81.87431792084317,356.0181823142084 80.635032160837,355.771801417799 76.90734448084913,365.59141702919806 77.00907091638146,365.82928656932563 68.8968792008418,370.7542366834714 68.92120033862375,370.7925596843015 49.086875574186706,365.22441629659806 48.58312218751598,365.33895109230434 49.28006113860829,372.24413512986575 49.43436200970973,372.4560196152197 43.63151329862376,372.6895149292868 43.63275120083199,372.6996523465823 53.16321477418023,392.9738761667577 52.69128275638286,394.40950060628893 33.8025696541481,426.46212116953757 33.642079271947296,426.83483559506203 17.261356071965565,442.03407484387935" stroke="#009edd" stroke-width="13.38475379693618px" fill="none" stroke-linejoin="round" vector-effect="non-scaling-stroke"></polygon>
</svg>