<svg width="242.35424711112864" height="193.91727927344618" xmlns="http://www.w3.org/2000/svg"><polygon points="5,36.465516069554724 13.221127111115493,46.158538578194566 13.946683448855765,46.55440494272625 9.04342556442134,48.81374822050566 8.808078506612219,49.1772293880349 10.064330808934756,55.38687126990408 9.978988373302855,55.92318335024174 18.308759608888067,65.03116525657242 19.774144568829797,66.8662140556844 14.260964977787808,72.4893745171139 14.477379413321614,73.82776646409184 28.70568191993516,96.6202026453102 28.14148977783043,97.8804767440306 44.13693411555141,106.01919067034032 44.26917119999416,106.15551722759847 36.46397923550103,107.12302297534188 35.008788764476776,109.51350053102942 59.88450673781335,133.3548271029722 62.42701226659119,134.72384350473294 60.74113507557195,145.25125907122856 60.952015360002406,145.6013587753987 70.55289372440893,141.2692910391488 71.78351416881196,140.4820060498314 75.99529443553183,145.85071329819039 76.04248035559431,146.14474157220684 75.33148757333402,164.8459445098415 75.37663459556643,165.21925928414566 75.99500316451304,164.7465761222411 80.45611150225159,158.33220483199693 107.36431928887032,175.16086488903966 109.46263637335505,176.9380082321586 114.24326911999378,187.73182445554994 114.45240177772939,188.6182955087861 132.906756835524,183.41974059585482 134.8591470933752,182.40289488929557 140.25377934216522,173.1156962766545 144.7646950399503,167.78002634248696 156.3494209422497,150.29893101588823 157.42712405335624,148.3998568058596 153.6108899555402,135.3411061494262 153.78798279108014,133.23720890725963 160.52391850668937,120.01843210594961 161.33073948451784,119.29580977495061 178.58272739558015,123.55126839649165 192.1402325333329,111.29665288282558 201.76412131555844,122.00118599942653 221.27229525335133,126.57480901072267 221.60317923559342,126.74850630946457 236.8276289422065,110.71807603503112 237.35424711112864,106.97894604981411 218.75804302224424,92.17681170412106 218.6788172799861,92.01175017433707 229.80333482660353,76.37091641302686 229.79197525326163,76.15340233338065 220.6411107556196,72.20117455726722 220.45557105785701,72.00508892262587 222.8212750222301,65.67097155854572 222.80350748437922,65.0393737598788 218.21802638226654,56.377861855668016 218.1941421511583,56.17218493670225 223.53343288891483,48.846128625271376 224.01024369779043,47.751577051589265 216.3431142399786,47.3561689373455 215.7655236267019,47.189249032584485 215.39852202672046,39.81500077270903 215.06268643552903,39.64397033164278 212.37454535102006,40.27929073013365 211.08858339558356,40.36640199646354 201.82674460439011,72.26319230243098 201.61440796440002,72.92212975030998 187.16648703999817,68.49877424107399 187.1073590044398,68.09063534677261 161.84366791101638,73.12505472038174 161.38433336885646,73.04570879950188 149.7331976533169,62.57042435684707 149.59309624892194,61.90689511364326 130.24512142222375,95.39366257330403 129.56500337773468,96.98497158894315 87.39302428450901,70.82811537617818 83.14512639993336,67.83389506774256 85.65297066664789,52.777803531847894 89.7467861333862,43.1334207149921 78.33303637325298,39.2325845581945 77.45485397335142,39.418209942872636 79.51909233781043,29.600370226369705 79.51151928887703,29.303447309648618 73.0106393599417,28.38850255520083 69.01265208888799,30.55909551680088 65.35719964443706,17.880044237244874 64.32872135110665,14.983161491749343 59.76275541330688,15.431539985642303 58.511163448914886,15.736236134020146 56.03535900451243,8.435270231566392 55.92467598221265,7.627888546907343 39.11046855105087,10.370693295728415 37.04302620445378,10.420869011664763 37.63896689773537,17.782889136928134 30.783610026701353,18.423290967417415 18.420025173341855,23.835158267989755 19.603750968934037,26.5567770304624 21.270695537677966,29.576652896241285 5,36.465516069554724" stroke="red" stroke-width="3.2118497649369653" fill="none" stroke-linejoin="round" vector-effect="non-scaling-stroke"></polygon><polygon points="71.80390314664692,129.47065761697013 74.03212714660913,132.62905799399596 76.29035207105335,135.77966244122945 72.61946225783322,141.9799876580364 72.52450787555426,142.09896871179808 75.99529443553183,145.85071329819039 76.04248035559431,146.14474157220684 75.33148757333402,164.8459445098415 75.37663459556643,165.21925928414566 75.99500316451304,164.7465761222411 80.45611150225159,158.33220483199693 107.14266197336838,175.18456630664878 107.36431928887032,175.16086488903966 116.9480126578128,188.91636773827486 119.81848945771344,188.91727927344618 132.906756835524,183.41974059585482 134.8591470933752,182.40289488929557 144.7646950399503,167.78002634248696 156.00513848883566,150.89381282078102 153.6108899555402,135.3411061494262 153.78798279108014,133.23720890725963 160.52391850668937,120.01843210594961 161.33073948451784,119.29580977495061 178.58272739558015,123.55126839649165 192.1402325333329,111.29665288282558 201.76412131555844,122.00118599942653 221.27229525335133,126.57480901072267 221.60317923559342,126.74850630946457 236.8276289422065,110.71807603503112 237.35424711112864,106.97894604981411 218.75804302224424,92.17681170412106 218.6788172799861,92.01175017433707 229.80333482660353,76.37091641302686 229.79197525326163,76.15340233338065 220.6411107556196,72.20117455726722 220.45557105785701,72.00508892262587 222.8212750222301,65.67097155854572 222.80350748437922,65.0393737598788 218.21802638226654,56.377861855668016 218.1941421511583,56.17218493670225 223.53343288891483,48.846128625271376 224.01024369779043,47.751577051589265 216.3431142399786,47.3561689373455 215.7655236267019,47.189249032584485 215.39852202672046,39.81500077270903 215.06268643552903,39.64397033164278 212.37454535102006,40.27929073013365 211.08858339558356,40.36640199646354 201.82674460439011,72.26319230243098 201.61440796440002,72.92212975030998 187.16648703999817,68.49877424107399 187.1073590044398,68.09063534677261 161.84366791101638,73.12505472038174 161.38433336885646,73.04570879950188 149.7331976533169,62.57042435684707 149.59309624892194,61.90689511364326 130.24512142222375,95.39366257330403 129.56500337773468,96.98497158894315 120.53006478224415,91.51337302528555 112.79273898666725,86.7675614313921 71.80390314664692,129.47065761697013" stroke="red" stroke-width="3.009453802168209" fill="none" stroke-linejoin="round" vector-effect="non-scaling-stroke"></polygon><polygon points="179.35401329782326,83.08091341285035 179.35401329782326,83.08091341285035" stroke="red" stroke-width="3.156917704493943" fill="none" stroke-linejoin="round" vector-effect="non-scaling-stroke"></polygon></svg>