<svg viewBox="0 0 200.99759336894135 289.7303704655635" width="1000" xmlns="http://www.w3.org/2000/svg">
  <title>Jílové u Prahy, okres Praha-západ, Střední Čechy, 25401, Česko</title>
  <desc>Geojson of Jílové u Prahy, okres Praha-západ, Střední Čechy, 25401, Česko</desc>
  <metadata>
    <collboard>
      <support-module name="@collboard/map-svg-geojson" version="0.11.0"></support-module>
    </collboard>
  </metadata>
  <polygon points="8.052549999999997,216.14951954640094 30.924905271130797,250.06599504847657 32.78117606227863,252.3977935521176 32.08183412449546,267.7612826866458 32.94283152893297,269.09292394333863 54.05357912005968,280.5622347533714 54.620683973400105,281.6778204655635 108.2107818933215,241.04224239462167 109.078769804422,240.68748488170206 133.57670914658922,242.11419407671895 134.44760976892542,242.48657403610525 146.9006148533441,230.17148725651316 148.4574589421751,228.92593006251957 154.88610363551527,240.6535908216389 154.78124603557046,241.19002019483707 179.55268895111624,239.63360311146937 180.35863611553907,239.2368144024873 191.32703234672192,198.85414190727863 191.93200244449656,198.37682157612983 170.13298121779337,174.99633955778665 169.99171472885757,174.9267227976012 181.77712642666995,132.36683482336923 182.0803396533953,131.50278375679738 176.50919711110294,123.19352146195126 176.12297161771096,122.58762066448219 181.26332418664936,111.88595964501258 181.2161382667033,111.47220761600295 170.5034780710481,93.33010536988843 170.0595808977738,92.35555607247045 171.49846018673963,78.40070844870172 171.96449396442733,77.3066960453067 192.2908484533906,60.16901507243858 192.94504336894136,59.49509479499068 186.06376336885262,29.73287999616116 183.60135739550572,25.102947714017887 151.57609872890282,8.176508351148755 151.10016173331644,8.052549999999997 141.35947323553376,42.24519308433048 140.25963352001384,44.332242742915355 100.39044383107796,73.9260318927478 100.24247810661439,74.24578390931822 68.7278176977776,52.73270968735562 67.89157833785396,52.602896618867476 51.27310509337224,101.76079257511412 50.75755522665679,102.64576294573601 71.91869271998405,142.36036991349067 72.8035743555298,144.26606605682866 64.66633332448657,185.88069205513568 64.34447874662112,186.90997165253032 41.53591184886284,188.23351772849094 39.78537247118186,189.02727989885136 24.482279564464648,214.91292181108258 24.494804222230982,215.3160823688737 8.052549999999997,216.14951954640094" stroke="#009edd" stroke-width="6.427123470528925px" fill="none" stroke-linejoin="round" vector-effect="non-scaling-stroke"></polygon>
</svg>