<svg width="5371.7809453511145" height="5841.502350392344" xmlns="http://www.w3.org/2000/svg"><polygon points="5,5678.157581347681 9.17100231104996,5689.163901400927 10.267346773296595,5692.042759675765 54.85192447993904,5724.332906962489 55.87603370659053,5725.144799497561 75.23915463103913,5756.501005968254 76.84930133330636,5758.728084038943 111.83416575996671,5790.660798024677 113.54858751990832,5792.452291234513 138.41614990215749,5835.820455480774 138.7001392354723,5835.98311793973 145.5170483199181,5831.860000314424 146.35328767995816,5830.904682982597 161.42802403552923,5835.322358374833 162.58844814216718,5836.502350392344 194.57962808886077,5799.052376829262 194.61632824887056,5797.747174330696 208.3148086044239,5793.83105987031 209.5669831110863,5793.120995123289 225.08008248882834,5772.293687602971 226.68236487102695,5769.843365047942 241.5103945955634,5769.188378221588 241.63243719097227,5769.194813189504 256.812613688875,5752.339135287504 257.90604544000234,5752.15710332559 257.2760260265786,5746.871214287938 256.5527998576872,5744.241782162164 267.623723519966,5730.356286062859 268.31024952884763,5729.26352095179 269.8102957510855,5722.8010606297175 268.1928672710201,5717.670767348609 273.16865166218486,5711.215315911279 275.1254109865986,5708.946368034056 271.929293084424,5706.4042904811795 273.0023358577164,5699.849187571905 241.38980835548136,5686.2394827842945 239.19012892444152,5684.3597412033705 225.79107527108863,5684.513321487233 225.55805838224478,5684.434232252999 215.76406727102585,5699.9347081881715 215.5196908088401,5701.922363283113 204.7615923199337,5701.67959723057 204.3663374221651,5701.65155037737 203.1115414755186,5699.5121624472085 202.5223000177648,5695.603000352276 204.83120611554477,5695.8292205559555 210.18360405322164,5698.696035304689 216.72060159989633,5686.073488651542 216.72730083554052,5684.10729912197 205.8937631289009,5691.923210344394 203.84496213321108,5690.584253306326 203.8711765332846,5679.530643081642 203.81321358215064,5678.345193781424 197.54185528878588,5681.580103091896 195.8326764088124,5683.1600639048265 188.96566869330127,5660.511626497842 188.70527231995948,5657.490704711294 177.14559573330916,5652.312408782251 176.5211104709888,5651.503921161755 178.81312284443993,5625.337270604563 178.7490431999322,5624.215456371079 172.2481632711133,5614.720967051748 170.88384938659146,5612.854401182616 218.2730766221648,5580.726052933605 219.55321315547917,5579.117278621183 217.35499007999897,5571.183182020206 216.8647807999514,5570.450760840904 209.4921264355071,5574.843410375528 208.2192716798745,5575.403296538512 210.64177351107355,5567.393151580123 211.01460053329356,5565.373891114839 219.07203327992465,5560.738123861374 220.40955022210255,5558.227885144064 221.20908942213282,5547.765635226562 221.51958442665637,5545.379937425663 212.52396743104327,5529.649775058846 211.68044629332144,5528.1621003996115 206.72359452443197,5526.971677186026 182.0156487111235,5525.6491815318 177.85251071990933,5518.666141110647 171.82960668439046,5517.514320354327 154.02216476434842,5520.960100590717 148.73326392879244,5522.267899663479 149.57503743993584,5532.582760227728 106.84294399991632,5556.768473392236 106.43807715550065,5557.15403142944 103.67537066654768,5546.492039376986 102.09347726218402,5542.593445777078 86.74844131548889,5525.3284498045105 84.41099064878654,5524.634526442969 75.20798862213269,5527.053585139918 67.13395342219155,5524.936392583011 42.90427477331832,5546.946172864176 40.31924366217572,5549.032321901643 36.3326159643475,5562.145519475103 36.56272014218848,5563.511958861374 42.1589119998971,5574.17816987267 42.916799431084655,5575.138305405038 53.130512213218026,5577.6925119363 54.380939093302004,5578.512777535419 46.55186289770063,5603.5512290516635 45.62853347545024,5605.714568627765 31.903547448804602,5622.454761993024 30.162620017654262,5623.578425190353 32.60929735109676,5633.206824260647 32.83008085330948,5633.454266702698 23.749121422180906,5649.506143531471 23.768636586610228,5649.857963448565 9.38042623992078,5658.7438704302185 8.841574684367515,5659.522439079126 5,5678.157581347681" stroke="red" stroke-width="3.334463003242111" fill="none" stroke-linejoin="round" vector-effect="non-scaling-stroke"></polygon><polygon points="125.19681052432861,5692.759134665248 133.38910179550294,5724.4556564829545 133.55250488885213,5726.576867499622 141.52197375998367,5736.49442456133 142.43015708436724,5735.5037467123475 143.06046776880976,5747.3612412773655 142.7301663288381,5748.9209539188305 135.7044158577919,5762.47154592094 137.1686357333092,5767.144806541852 136.833091413253,5758.014686094713 137.04047644441016,5757.256238528178 147.9229476976907,5744.909256429528 148.45859527098946,5744.090542871039 162.05367438215762,5743.209767263383 164.47297223110218,5743.282399208401 169.8909061688464,5721.588264610618 169.82158364437055,5720.907845359121 181.87525603547692,5713.473205697606 176.30760874657426,5710.665437320189 198.67198719992302,5689.815452788782 198.70956117333844,5689.225056272582 188.96566869330127,5660.511626497842 188.70527231995948,5657.490704711294 177.14559573330916,5652.312408782251 176.5211104709888,5651.503921161755 178.81312284443993,5625.337270604563 178.7490431999322,5624.215456371079 172.2481632711133,5614.720967051748 170.88384938659146,5612.854401182616 165.47640120889992,5629.930714753573 163.40604615106713,5633.695269849151 145.84734976000618,5657.128779898863 143.84981247992255,5660.943905953551 138.61858332436532,5680.679759360733 140.69039473764133,5682.328700635931 129.73976604430936,5682.441357903765 127.88640796439722,5681.056359162205 125.19681052432861,5692.759134665248" stroke="red" stroke-width="3.167497150142376" fill="none" stroke-linejoin="round" vector-effect="non-scaling-stroke"></polygon><polygon points="5210.358746737707,84.68457993317861 5210.560597617761,89.03515385999344 5210.389621475479,93.56405512581114 5218.142967182212,98.85465221852064 5225.127065884415,102.01648678828496 5237.889400888816,89.80594711622689 5237.982607644401,88.25963767094072 5244.578150684363,94.90972669271287 5271.147318897769,101.09375892527169 5310.54989226663,97.98854958673473 5312.477233208832,99.52440436277539 5326.490868906607,84.24559984868392 5327.393518079887,81.60178767231992 5316.221814613207,77.38370379188564 5316.618234595517,76.0393371359678 5328.4653957688715,70.35259079397656 5330.42332017771,68.41810874373186 5342.659037013305,71.52563927479787 5346.0616661332315,70.57823201175779 5365.872179484344,57.340050406055525 5366.7809453511145,55.59994910849491 5337.461595306522,38.05037569894921 5337.236442737747,37.522067255864386 5323.260381013271,42.31503721186891 5322.249378986657,42.44014776253607 5313.104922453291,17.738588864798658 5313.12793287111,17.25178088468965 5292.640505457646,29.43911444360856 5281.640069404384,35.82146223972086 5280.194490880007,20.963958606182132 5279.677775928867,17.978451163624413 5279.008143644431,17.52941738651134 5276.102131768828,22.557974782772362 5268.9054051554995,12.39449979912024 5263.2908632176695,5 5257.128731591045,7.419059191364795 5251.05805909331,5.106244639144279 5249.474418062135,19.628677538130432 5249.216934399912,21.614598173066042 5230.971420728834,31.010876303655095 5230.566553884419,31.643071615486406 5230.323925048811,48.157857209211215 5230.420918328804,48.647426849696785 5223.464490382117,51.0145296882838 5220.986355768866,51.06882072787266 5219.544563768781,66.71963972575031 5219.401549653267,67.32906972366618 5214.639266986633,66.21831025043502 5212.720372906653,67.14260604506126 5220.573333333246,74.97771573148202 5221.297142044408,76.17764491343405 5210.358746737707,84.68457993317861" stroke="red" stroke-width="3.236400039857023" fill="none" stroke-linejoin="round" vector-effect="non-scaling-stroke"></polygon></svg>