<svg viewBox="0 0 507.56939439999337 568.4848475419997" width="507.56939439999337" height="568.4848475419997" xmlns="http://www.w3.org/2000/svg">
  <title>Saint Kitts and Nevis</title>
  <desc>Geojson of Saint Kitts and Nevis</desc>
  <metadata>
    <collboard>
      <support-module name="@collboard/map-svg-geojson-import" version="0.11.0"></support-module>
    </collboard>
  </metadata>
  <polygon points="8.052550000000338,267.8170671640182 36.3417469422202,309.8086877856913 37.24381357331731,310.9200473062883 67.25165570666286,339.927260107077 68.60315366222494,341.1071317523674 115.25852333331568,377.20827267228015 116.65939174222149,378.10505972113606 139.8972194399903,390.93354509599885 141.38627017777617,391.6715383746705 159.66302267555875,399.17430281815905 160.09825453331723,399.31943996884365 165.61238075554866,424.5384426218152 165.9919070133401,425.80696110340796 179.0804656622131,462.067957937943 179.7993955822094,463.57236885603197 193.44857830221736,486.4376134310951 194.43059885332332,487.78271080173 213.2420522933171,508.8625985483304 214.46590068443766,509.9893014084446 242.6556285422048,531.8743538743656 243.99962626666093,532.7879028071984 266.520344488883,545.291946662539 268.00422516444087,545.9485419009798 296.4182317777668,555.7191033131166 298.2967119911118,556.1774007408894 328.850905911102,560.3334416853831 330.12288685332896,560.372938375287 366.61063739553356,557.1277049422133 367.91982822221325,556.8530481158596 375.6338523288796,545.4788714969109 386.7412576977731,529.5505702984738 450.0233290222168,452.0490366531958 453.0602672622117,448.5339423444311 466.92622850665794,417.135745287429 479.3439169688718,393.01273189402855 492.6275544444288,334.3993387001901 493.86356340444036,330.6905366214414 498.0119922044323,279.21907256101986 499.5168443999937,263.2452226227979 498.0396629599927,250.40298118355713 481.1403315466523,228.12282195089938 480.20141911999235,227.0485661889761 462.68248123554076,210.6142402407786 461.37197968886903,209.57784259362234 438.97286715555674,195.08158408765303 437.4839620533239,194.27358544637536 421.5125475822206,176.44110916819045 420.3000587644419,175.2968625455178 399.3226405244277,158.89536971426423 397.9395396533291,157.9948163764857 380.46247199110076,129.34845770286483 379.437270497765,128.03176574984536 348.75790281776426,91.06365102866403 347.6566067466556,89.79790711067471 333.46813556444977,75.65685974377993 332.269991848887,74.620144082779 273.62466534220584,34.53675967576419 272.1407118488787,33.77915855700121 234.6410854666683,16.292526542682026 233.87249382220762,16.012762755744916 201.12451871109806,8.118025585128635 200.5857399733286,8.052550000000338 151.2291220177649,98.31253643622767 141.02327355554007,113.03064264878776 113.34225069332024,148.81028997999238 105.447274408878,158.42670111443294 8.052550000000338,267.8170671640182" stroke="#009edd" stroke-width="5.2585020706574035px" fill="none" stroke-linejoin="round" vector-effect="non-scaling-stroke"></polygon>
</svg>