<svg viewBox="0 0 3915.600865333326 5416.857268842809" width="3915.600865333326" height="5416.857268842809" xmlns="http://www.w3.org/2000/svg">
  <title>Éire / Ireland</title>
  <desc>Geojson of Éire / Ireland</desc>
  <metadata>
    <collboard>
      <support-module name="@collboard/map-svg-geojson-import" version="0.11.0"></support-module>
    </collboard>
  </metadata>
  <polygon points="8.052550000000338,4468.103398107218 9.825735706654086,4496.497173619799 10.129094568888831,4498.862634317564 15.695503955539607,4527.2399235626435 16.32435828443704,4529.604011445896 25.990918284449435,4557.964839393935 26.982186693327094,4560.32755654143 40.67658925332216,4587.491234417183 41.37498456000321,4588.671948112627 58.35470679998252,4613.460862308486 59.28444418665458,4614.640997713133 79.51912109333352,4637.058581156853 80.73779942221154,4638.238191484816 102.96477072888956,4657.108389429217 104.5548197244425,4658.28755392212 130.35299330666749,4674.793105270619 132.51466185777826,4675.971876745571 118.55891629333928,4723.101276977315 118.12084454221622,4725.456648796615 115.08223149333935,4749.004621458087 114.91045435555134,4751.358844438022 114.57876937776018,4777.248411650238 114.68996212443017,4779.601383023801 116.75944336888642,4800.773436854877 117.10933279110031,4803.125366554355 121.96824464889505,4826.638939990829 122.59353090666264,4828.989725244224 130.13119035555428,4852.4918615196875 131.02896073777083,4854.841503786527 142.27894331554853,4879.506480815726 142.90284603555483,4880.680718220676 167.90067942221503,4918.242634543181 168.86209254222194,4919.4160171890035 201.93257759110566,4952.260230970634 203.38616607110453,4953.432863812013 241.0339766311008,4978.052188388327 243.29620653333404,4979.224253251647 288.77302047110425,4996.802131036551 293.2638384622187,4997.97378327886 300.4908572711065,5037.794632469413 301.1395908533377,5040.136108673345 316.9929677066466,5081.0952974873 317.58118971555814,5082.265097652089 340.3123513155515,5118.516178250509 341.209466337772,5119.685157739841 370.59355138666433,5151.237923800356 371.9118444355481,5152.406186441389 392.7745018577625,5168.759178155633 394.4675151911142,5169.927057247034 448.7442119377738,5204.951552061095 450.7841291644363,5206.118639534099 474.4354162044401,5217.78811131807 477.2295071555491,5218.954918234223 504.7388256977647,5228.288455818089 509.2102013422191,5229.45503331998 563.1697766666693,5236.453963236963 569.0844734844504,5236.453963236963 599.2407910666589,5234.121088510896 606.5787841688943,5232.954612932714 651.7541325066632,5222.455186010389 657.7005050577645,5222.455186010389 678.6372909777783,5265.606303527362 679.3640852177705,5266.772066297046 709.5289952977691,5305.227976757909 710.6662633510932,5306.392875518497 747.1844517244535,5336.671336926716 748.9379766311104,5337.835550766082 794.5644311022261,5361.1145066182 797.7054259466604,5362.278188476215 852.5286201155468,5375.0770183511995 862.0801280266533,5376.240396508241 909.3460747644349,5378.567076926971 916.6524649511048,5378.567076926971 965.601303351119,5372.750186134355 971.0448691466663,5372.750186134355 1016.1711383022121,5394.851007352256 1019.4568220711008,5396.013955624854 1072.2819692355479,5407.642048507019 1092.7950285066545,5408.80471884281 1124.031597822228,5407.642048507019 1133.5774987644472,5406.47935291149 1169.7608709955457,5398.339776348723 1173.4045269600101,5397.176878623177 1221.8433496444413,5376.240396508241 1224.0887586399986,5375.0770183511995 1258.5561799377683,5352.968024629859 1260.1824193688735,5351.8041401880255 1307.5311599199995,5356.459525992737 1313.5976818044364,5356.459525992737 1371.8970510488798,5348.312334879556 1376.034120275559,5347.148349110874 1402.132230284442,5337.835550766082 1404.8232112622136,5336.671336926716 1431.7001074044456,5322.698793255542 1433.6037825688763,5321.53424977215 1456.7207327555443,5305.227976757909 1458.1647821066654,5304.063052609425 1480.7347251466635,5283.090074939559 1481.8263364533268,5281.924668143176 1512.8279227999956,5283.090074939559 1533.3894787110985,5281.924668143176 1561.86457944,5277.262786771629 1566.740312204427,5276.09725287489 1598.692898728892,5265.606303527362 1601.4845866933247,5264.440515320013 1654.0251619822302,5238.786736065747 1655.9736200800035,5237.620362387774 1687.0142367555454,5236.453963236963 1707.5937786577779,5235.287538611818 1736.0939287022265,5230.621585338718 1740.973884897765,5229.45503331998 1772.9545062666512,5218.954918234223 1775.7485972177747,5217.78811131807 1811.1797618044293,5199.115731956663 1813.047829075549,5197.948491377632 1866.7632463910923,5190.944511872534 1871.6468434755589,5189.777092602795 1919.1185732533413,5172.262738756799 1921.4343242222312,5171.094910780266 1953.5856304622212,5151.237923800356 1955.1609702666683,5150.069635577493 1984.1766701777742,5124.360819495159 1985.2866315644424,5123.191942483674 2008.7380338044386,5093.961687745534 2009.5264318844347,5092.792144204774 2030.6041202044362,5055.353196583652 2031.6619440622235,5053.012388952928 2058.353737413323,5041.306808190762 2060.675240986653,5040.136108673345 2086.372052222221,5024.914673655097 2088.102202622227,5023.7436138868725 2143.0936058577863,4976.8800977235005 2144.2379372355426,4975.707981255684 2195.5364596888903,4954.605470820512 2198.9317342133218,4953.432863812013 2291.9095506755475,4925.282542303663 2295.2244343733255,4924.109289024338 2326.6854280799816,4910.028231360389 2328.8376303199984,4908.854641650243 2360.6944614666645,4887.725598261 2362.173827440005,4886.55151638839 2391.733112062233,4858.365772498779 2392.761590355549,4857.191042217739 2418.579060648881,4845.4423115852915 2420.7887889333288,4844.267295706719 2449.2151017511133,4826.638939990829 2450.828306800009,4825.463508372333 2489.1164768977687,4790.188464634288 2490.4085555466518,4789.01222642068 2533.604498231107,4769.012190921123 2535.570286959999,4767.8354836956205 2578.8312559199912,4734.877091188966 2580.432955759992,4733.699627301416 2643.051584311099,4697.185286449538 2644.66872152,4696.006986143846 2669.686506977763,4674.793105270619 2670.8870536799877,4673.614307605101 2694.4334103022193,4646.4947292075885 2695.304092471102,4645.315302512165 2714.853626906661,4614.640997713133 2715.480660791094,4613.460862308486 2730.6240643111014,4578.044577797271 2731.01531423111,4576.8636273147495 2796.904261999989,4576.8636273147495 2804.4390815555453,4576.8636273147495 2827.8093647911082,4580.406399816442 2848.644715546652,4581.5872713561475 2908.355875866655,4576.8636273147495 2909.7343892177814,4576.8636273147495 2939.0539577155505,4583.948935503453 2946.4823176800055,4585.129728114138 2977.010078746658,4587.491234417183 2987.245127137772,4587.491234417183 3025.20124816888,4583.948935503453 3031.4458823377718,4582.768116584637 3077.0727737155466,4568.596236965786 3079.936769733329,4568.596236965786 3106.489481128876,4582.768116584637 3109.1289799377773,4583.948935503453 3138.3295641866644,4594.57512209018 3142.525688631118,4595.755677996487 3163.713695884442,4600.477638708711 3171.13972567999,4601.6580631661855 3209.1961896088833,4604.018833227114 3230.0226565955454,4602.838461338477 3263.8033334311112,4596.936207609957 3268.3283757777754,4595.755677996487 3306.9211426399925,4581.5872713561475 3309.400879244444,4580.406399816442 3345.0679006133214,4559.146211137842 3346.7186068177616,4557.964839393935 3380.3579443466515,4529.604011445896 3381.5968660177678,4528.421980694424 3397.826419511104,4528.421980694424 3418.682741786666,4527.2399235626435 3447.5662046133293,4522.511431202081 3452.5118424444445,4521.329242145868 3481.9833088266532,4511.8707795447335 3484.92288969778,4510.688352927587 3517.7883927022267,4494.131607234704 3519.7219959733266,4492.948784405562 3556.0176532177647,4488.217228808942 3561.5109535555457,4487.034273832069 3601.7263917777673,4474.020024092511 3604.4615731466547,4472.836751803879 3651.0923304088865,4445.614185102713 3652.661407884436,4444.430277523752 3673.4086491288836,4426.668484203685 3674.6322062488834,4425.484152603189 3694.0026817688704,4404.161648314919 3694.9483662488856,4402.976812674162 3710.7700673688887,4380.459890385253 3711.499555866678,4379.274523571228 3724.7590178399914,4354.375679268858 3725.831041164427,4352.003749015734 3734.9111996000065,4328.278590076188 3735.663043155546,4325.905488267432 3742.6292286844327,4297.419949771349 3743.0442171999966,4295.045461452297 3745.9990169866724,4268.919042221423 3746.1232441155516,4266.543272173461 3745.5733970755464,4235.648529818565 3745.363973146661,4233.271262142742 3740.9436427644323,4204.73569518685 3740.4126555288894,4202.3570346559645 3731.0892857155486,4171.424685193393 3730.1766605066587,4169.044522289776 3717.4514625688826,4141.66492587106 3716.798651191093,4140.47418611918 3700.008109537761,4114.2711057406195 3699.123810444442,4113.0797471310725 3678.7351239377676,4089.246918419223 3677.562539262224,4088.054994035825 3653.1773218399976,4066.5957436100944 3652.7078656266604,4065.4033067347846 3671.7798610755635,4041.5488994080733 3672.638018586651,4040.3558954286054 3707.086725715555,3989.031140065308 3707.831360311109,3987.836945596144 3734.772481733329,3932.8746872907577 3735.6715628355523,3930.4837210524056 3749.119185946656,3887.427732764503 3749.7426517600034,3885.0346994928477 3756.081366497783,3849.126122900525 3756.315330017773,3846.731345377506 3756.7870435822188,3808.400055263708 3756.6122809155568,3806.0034208656507 3750.4621642222264,3767.642390948524 3749.861781644424,3765.243895948348 3768.4260915466657,3734.053485960896 3769.055091511116,3732.8534846449984 3782.1985547644363,3702.8445313020275 3783.0581686311125,3700.4430735427813 3791.226211582216,3671.617003472398 3791.7351350311,3669.2141158255763 3796.235856239997,3635.5621241952394 3796.449430782224,3633.1575839451616 3821.1923291288767,3600.6854918040262 3821.952401093331,3599.482435333477 3841.0683056622147,3562.1739795140675 3842.033214035553,3559.7660699124317 3849.415771617765,3538.0899014745155 3850.096981928895,3535.6808845161504 3855.4653997777714,3511.584618334011 3855.9330355466736,3509.1743817668976 3886.313559066657,3429.574251961145 3887.192178373334,3427.1602356217263 3896.1556099110967,3397.3073908067236 3896.4551822488793,3396.2302096708227 3901.895471244432,3354.6878845808315 3902.009940791111,3352.2704086594385 3899.9222551022176,3308.7367093918074 3899.573312311106,3306.3171067740404 3891.404249911102,3270.009612293805 3890.6486926488797,3267.588215042626 3876.3678157066533,3232.4653308913184 3875.7562191911056,3231.253775419107 3875.7453693422212,3197.318799483117 3875.5875732177738,3194.89402806796 3868.267857377774,3119.6701582820897 3867.892627368892,3117.241774438844 3860.1339659644364,3083.232517868564 3859.4249392622078,3080.802435947051 3846.181570017776,3044.337601941581 3845.113260399994,3041.9057053816578 3841.496911102229,3022.4464446796846 3841.442224951119,3020.0135258605515 3846.2535139822066,2990.809631269476 3846.491555297769,2988.375233911058 3847.2547584266504,2954.2817126517402 3847.1263078666598,2951.8456064280836 3865.294343422218,2890.905854468241 3865.785062426665,2888.4667789355954 3869.2966269422104,2864.069729958188 3869.5105655733278,2861.62939539372 3870.477804115544,2829.89461794051 3870.843567813332,2827.45267856976 3885.2566090222317,2800.5837701444034 3886.3611818933205,2798.1404530798245 3897.239138444427,2768.811682367894 3897.958141182222,2766.3668705619857 3904.5017651466696,2737.0201489551037 3904.878742782217,2734.5738400738264 3907.5425627288714,2700.3134075062626 3907.548315333326,2697.8653683236116 3905.3848991555496,2666.030346642314 3905.0444032266605,2663.58068969554 3897.55451224,2629.273341936605 3896.8178147822255,2626.821948646648 3902.1719603466554,2587.583888522837 3902.3252417688855,2585.1305235854597 3901.4327870844354,2545.8608848032964 3901.1669293777595,2543.4055441790624 3895.388037715551,2511.4755237546124 3894.759693111111,2509.0185530531962 3882.985204079996,2474.608720203505 3881.9185692711108,2472.149999935231 3860.9136987288875,2434.0248976146177 3860.0802264444283,2432.794588010751 3830.4372013777684,2397.102881190156 3829.191362017773,2395.871693498011 3794.486190675547,2367.5462870204865 3792.6408425510963,2366.31439571143 3750.8055728622203,2344.1353333722436 3747.7567653244405,2342.9028843090564 3746.6808098399997,2308.3823785185305 3746.463885679994,2305.9157458774207 3740.75344272887,2271.3705232655993 3740.149346444443,2268.902123534812 3770.3706903022176,2240.507047532672 3785.3836043644333,2236.5952052929424 3694.3107737866594,2160.687636883631 3603.872622960007,2064.107920661241 3576.1297049866625,2034.8271307129398 3488.636596364442,1970.9179202626765 3470.168260293336,1957.1305688105567 3452.7863654666653,1937.4555069869893 3451.349597893328,1936.7859648666272 3448.1320715644324,1936.9316748669298 3446.8828097688893,1936.2180273241174 3443.221677537782,1940.262271946085 3443.1158733066623,1940.4940505310879 3433.787406248892,1943.6068128611296 3433.6747571466476,1943.659972005953 3432.863639919997,1951.0825861889825 3432.8403382311153,1951.2440272762833 3427.7602787822034,1962.0036800816815 3427.2093394755575,1963.1732475826502 3415.3514012711166,1959.0545635310627 3413.7646290755583,1958.5258601711757 3415.134841199986,1945.9693609488531 3415.158725431109,1945.936821068848 3411.336374639992,1937.886419194685 3411.1522184799906,1937.203963890286 3404.8984820888945,1934.7174098030446 3404.531990213327,1934.6477194665567 3400.9154224622253,1938.8273579369343 3400.265960702214,1938.9796455479736 3392.070829537777,1934.8986539264079 3392.0237892533405,1934.900020397843 3390.473862853316,1938.1634234087178 3390.4191767022203,1938.3328548482896 3391.7164254133313,1948.9902639200664 3391.6987306933224,1949.2232451302334 3394.6769049866634,1955.0747516298652 3395.0018179110994,1955.2069989227384 3392.3070504088755,1959.2888650460736 3392.072941253333,1959.591208033431 3394.8272736977888,1977.1985394152362 3394.87722669333,1977.6179483162778 3394.0435359555486,1985.6864676147452 3393.967878284435,1985.9829470471232 3380.111310533328,1991.1882473040823 3380.004705306659,1991.14543658014 3373.916993448882,2003.050783162842 3373.673636435553,2003.1758359346786 3371.5759747111224,1999.9973171491802 3370.826315688879,1999.7015386856438 3358.789318568881,1997.8330331465331 3358.686354231111,1997.8232313784174 3351.8884505866517,2002.2598917885261 3351.848619262215,2002.309144515595 3347.8595157599993,2000.5618225079888 3347.599192204427,2000.4020246954533 3345.8114429422203,2003.6022288683089 3345.773140791098,2003.6674839201369 3343.0796111911113,2000.4329173236256 3343.0322068177848,2000.370883914984 3336.7380565599815,2005.3979532339363 3335.775405537781,2005.9720756019742 3332.190950426673,2000.652390923955 3332.1750761510993,2000.6402324335286 3331.021132826667,1991.862418448749 3331.0025642933397,1991.6984987593532 3326.7383552266474,1986.2931999633365 3326.626434302212,1986.0363106817458 3322.4255038844494,1988.5314332470225 3322.128261715545,1988.4673999798179 3311.1008830844294,1980.5980239259443 3310.7803392266724,1980.3834294885091 3307.8847402933243,1986.0065263343495 3308.1232913333297,1986.8146688559427 3315.4987855911095,1993.5641246744126 3315.4936883466507,1993.7981452124004 3305.7920301777704,1993.2580103090222 3305.720231848878,1993.2575139729379 3297.799113982219,2001.8674811001329 3297.1208163822084,2002.5096286820117 3292.712792204453,2002.1292539746282 3292.0592526488836,2001.6923034385763 3287.5185544800115,2004.7877241110182 3287.469985022217,2004.7897090111292 3287.587003191111,2010.2729518214983 3286.94402221332,2010.6977975336704 3283.155458871108,2010.922313123323 3283.1085642222097,2010.9272747827563 3271.973560915554,2002.191533391604 3271.3905817866544,2002.0139996358994 3262.4432429777735,2010.6971773235055 3261.5202048266583,2012.1490688789272 3252.7360506577606,2014.9876126832023 3252.567695955535,2015.0502486576806 3244.139547902225,2012.9272807999005 3243.993475440009,2012.8828756541698 3244.2645760266532,2009.6916827877503 3244.2042100888866,2009.6372272436492 3239.953472311121,2010.1944325078439 3239.820943955543,2010.182524355063 3231.692659511107,2004.65585213944 3231.571053822212,2004.6523785551908 3225.199425448889,2011.1645655879183 3224.902620186658,2011.599699259641 3226.836805999985,2018.4074255057712 3226.8729964355516,2018.6405891175891 3225.381906799994,2020.7693985279693 3225.314404719982,2020.8847349481002 3219.0447940533413,2020.2155320804814 3218.4971315466755,2020.1958130354396 3217.112428684435,2025.6260786035782 3217.0159451288855,2026.633494393369 3210.5908685066606,2023.6808820637161 3209.9947821777823,2023.2752411748443 3209.133711955561,2027.6909869797455 3209.0610398133213,2027.8090359317066 3204.871978693329,2027.726823297322 3204.6288401333222,2027.8371841187836 3204.492525253321,2030.7610398261095 3204.4389313688807,2030.814605101179 3200.0255186755458,2022.4934650761206 3199.793448417775,2022.213813544593 3195.8831337511147,2021.7553305667607 3195.7369884711006,2021.7032440629773 3193.0158609333375,2017.698502428182 3192.854715191097,2017.4838143871093 3192.9221444533396,2014.2926583380395 3192.8948377866545,2013.956526780872 3189.214918568883,2010.6360245644973 3189.0516611111016,2010.5180603152767 3185.4701187110986,1999.8385101314852 3185.4554823377766,1999.8014137342034 3177.7755369511215,1998.3175359431552 3177.436643013316,1998.2273356395817 3174.5198541066566,1994.0085890727423 3174.379971155555,1993.8378516668963 3174.9548675111073,1989.8809530699436 3174.901492079989,1989.6207311706603 3171.6034292888726,1986.0523197613293 3171.543281804443,1985.6221826069304 3179.0693632266557,1982.6603934859377 3179.2540291111145,1982.3048184170839 3179.0465712622317,1972.7348937051065 3179.0395079377704,1971.890034473523 3181.201103671112,1968.8452732809747 3181.2772710666686,1968.3309469716842 3177.525262248899,1964.9230795629192 3177.4102101600074,1964.7559703205116 3176.731912559997,1961.220725469866 3176.6170061066587,1960.876797782279 3178.0946244533334,1958.4549603647683 3178.9264947466654,1956.7604135353104 3183.331460577763,1960.3203005371834 3183.903152951105,1960.6827321566743 3187.58241680888,1957.605645114898 3188.966245857773,1956.9414559311917 3188.947677324446,1952.528335192903 3188.7771380888953,1951.2370729013855 3180.810217839993,1938.5584313249783 3180.610478675553,1938.2989437616707 3177.175372826656,1925.305254994768 3177.1628481688895,1923.8172415677036 3180.2730410933364,1922.1461571909822 3180.5356948177723,1922.0963307329876 3186.197932400006,1925.4160839334872 3186.4424544977737,1925.105836852912 3184.6479331822266,1918.5162791541006 3184.633879351102,1918.3657949805129 3185.5454851111062,1915.3429705971866 3185.5809473688787,1915.2392034851728 3192.7441049866684,1912.7446288750434 3192.7947861599896,1912.6800042032191 3191.8140763288757,1900.1702470952223 3191.7276416266614,1899.848535703095 3194.596807706672,1898.6699459980664 3194.7278797066756,1898.5989637293605 3195.022791706673,1894.6298922318601 3195.0768953155566,1894.555672018665 3198.687710462218,1893.6246157303613 3198.7477851288786,1893.6068373519156 3200.0538447911167,1885.8661945243002 3200.1616879199937,1885.448773232718 3196.638909466674,1875.8134455151958 3196.573227831097,1875.5742865779976 3195.8376226399923,1864.1186026915311 3195.794660151114,1863.9191961604156 3191.0258967022164,1858.2027543488584 3190.8071520977755,1858.0402747620756 3189.803067759982,1852.590317656337 3189.7804214310963,1852.5334560985139 3186.440925324445,1853.226864198492 3185.9487499644383,1852.9683147739488 3179.3544448266694,1846.58678377256 3179.092519279984,1846.5989786941573 3174.710491048878,1836.3786205240394 3174.3432709955596,1836.1143855684131 3168.6245268177663,1837.3433217386992 3168.2489327199946,1837.3576346769187 3165.1837411822125,1833.8670267251655 3164.704454568877,1833.0773908508054 3161.711061359987,1836.1834626661657 3161.4634080977776,1836.141643028859 3157.885579404443,1834.0424029092028 3157.84188873777,1834.017758172813 3155.2286771466534,1827.7161597064332 3155.0129908888994,1827.4300954981518 3147.6918915110946,1827.1959399295374 3147.4341893955498,1827.1853587117148 3139.5077558311095,1833.2632252264666 3139.083519457774,1833.486648788028 3139.536518853325,1838.0605817333199 3139.535717857776,1838.3073825736283 3133.837799564448,1843.5094646826838 3133.7855892177686,1843.576042946479 3133.64512372444,1849.7551263255955 3133.6201472266766,1850.0805106035477 3124.0306284355393,1845.4171778079108 3123.49359732445,1845.3601838811956 3119.8184840799877,1850.2845746457388 3119.275918817766,1850.1419787599807 3109.0656284711076,1830.6894900844418 3108.0541895377755,1828.5580356987412 3094.197184879995,1829.0619347729298 3093.8934619288993,1828.9449230761747 3087.890728417762,1820.5820053309653 3087.668270106653,1820.2931624094854 3075.479520737783,1811.2877952573836 3075.4328445422216,1811.2433403811228 3074.3993418222162,1806.997909433143 3074.3045330755485,1806.646722929123 3075.8977860533414,1801.4724216843388 3075.8876643822223,1801.400184271064 3069.851361875546,1796.9007143568379 3069.8349778755437,1796.886265597852 3065.135100044434,1798.478344944444 3064.3675278488736,1798.9652258997012 3064.9219624088946,1794.642797399858 3065.216073413314,1793.7996186755845 3061.8689314400035,1787.4073784816937 3061.7205288088808,1787.0396133253162 3062.2566861066516,1779.7345945158668 3062.1791351733336,1779.4419086609196 3055.2694562400065,1768.7761168924844 3054.9352226400006,1768.490721644448 3054.7016232088863,1756.9368658534586 3054.5591188177714,1756.185813357144 3056.411967173328,1752.5559248043792 3055.939598248886,1751.0362270921978 3052.1048684355555,1750.146204427765 3051.807990355541,1749.976526134873 3047.7111893599867,1743.390680580058 3047.54683963555,1743.2355685217117 3046.331365288883,1745.672294946875 3046.0227635466654,1745.867173210303 3038.8156968088806,1746.523120784237 3038.384178657776,1746.6450580343298 3038.004506764446,1741.8163462647572 3037.8869060533398,1741.7046223075085 3028.5013498577828,1740.85670935893 3028.3709332177605,1740.8219196906648 3028.459479635545,1734.8643093004139 3028.446518071105,1734.7731471970546 3019.415584453316,1729.1810219187828 3019.3159697333394,1728.8951572881415 3021.476910106656,1725.736571545298 3021.7448795288874,1725.4263651057627 3019.476168844434,1721.7948023101853 3019.4171864444434,1721.62091394062 3023.288616417769,1718.0997349673635 3023.503501680003,1718.0442214810246 3026.707192631111,1720.599401442938 3026.8173659288805,1720.840779106591 3026.5710962044323,1725.2481234053776 3026.684327848874,1725.3420465058225 3033.0320719911033,1725.7153673046778 3033.1766152800046,1725.5646922134547 3032.1523604177855,1717.4832200300516 3031.977015208897,1716.8477353373237 3038.3986693955594,1713.840990261895 3038.6549879733284,1713.4862972670453 3037.4422078844436,1710.0684933247321 3037.418178017768,1709.725752176273 3039.0313830666637,1706.9030103258629 3039.0974287911013,1706.395292124791 3033.2407677422234,1698.3588510248737 3033.0845736088886,1698.1632933134024 3034.924751671111,1686.306263031256 3035.0221818577775,1686.1313807166807 3030.303225768883,1684.0663263201059 3030.1149918133233,1683.8529879755151 3029.077993840001,1666.4949636052843 3029.6089810755584,1665.425275599824 3026.4713358488734,1664.6068231056488 3026.331234444435,1664.473701585688 3021.237485253332,1654.9603639233464 3021.103864631099,1654.8884198758096 3020.8418662666736,1645.2801111563385 3020.8418662666736,1645.0523699668047 3013.6289012888956,1645.6024200547472 3013.36267949333,1645.5989221395794 3008.403497555548,1639.147611520173 3008.221453111102,1639.1057561865236 2999.01473737778,1640.3126753976903 2998.76249659554,1640.1934840176473 2999.259987653313,1628.5421281667295 2999.1688926133284,1628.3109385932257 3001.0605528444503,1627.3265592253229 3001.155143137781,1627.1724709659684 2998.209008666665,1626.8291761574437 2997.935796364436,1626.5698602096454 2995.5746799199915,1621.406263295059 2995.508124471111,1621.2171615075422 2998.3917812888903,1616.505389940874 2998.3934560977723,1616.3042704020845 2994.4650826222132,1613.5060146308606 2994.310708933328,1613.3446346455821 2995.254063244436,1609.9115333919108 2995.0991070133387,1609.64550627453 2987.5604281155465,1604.835778210494 2987.2836477422024,1604.7061273473882 2981.1952805244437,1608.408987133742 2980.939544488887,1608.3913598635918 2979.1284207200006,1603.3084527438987 2979.2160205066684,1603.1612939849801 2986.1486370400016,1599.6861241603256 2986.0681005777806,1599.5180737169794 2975.9545850577633,1599.1922243400695 2975.751423457761,1599.2027275755754 2970.2438508355626,1594.233206706289 2970.1292356533304,1594.0522581495097 2971.516123048881,1589.5445949301575 2971.376021644428,1589.3274867712098 2960.0842416622254,1587.867110384068 2959.9032166666657,1587.8027012881576 2960.373983599995,1580.8620536920134 2960.1647781244465,1580.677055303844 2954.6403845955574,1576.436168994922 2954.5599209511056,1576.3798766682085 2947.3538736622213,1576.983827563694 2946.433238497768,1575.957432059011 2947.440963724446,1570.7464537492415 2947.3894087377776,1570.471591037458 2944.5369907466447,1568.7360561083697 2944.4058459288717,1568.5681545023472 2945.9907248622258,1567.4227306001922 2945.890527599993,1567.304871222841 2938.634672951106,1566.2239805054924 2938.412651546656,1566.2117188526536 2937.765519955552,1568.225218143787 2937.8045502844398,1568.4160166560832 2939.5174428711107,1568.5625244091716 2939.3956915466624,1568.8291399214577 2934.1006011999925,1571.3677356365297 2933.6205135911077,1571.4161517704997 2929.12095746665,1567.6844725378542 2928.955515475558,1567.5163172589891 2931.374667688877,1565.273193239358 2931.4298635644445,1565.1838566175065 2930.1716451822067,1561.6824642185748 2930.0193103910933,1561.5037783136577 2921.4485851288846,1559.2976818692186 2921.303677751108,1559.2963053755739 2921.1696930399994,1557.1166439219596 2921.0148096266566,1556.9429477748272 2918.5544425511107,1558.2684297181477 2918.4546821955373,1558.4039543125764 2918.838868791114,1560.68141471134 2918.5567727199887,1560.6617689193154 2916.3627730755616,1555.7906316413646 2916.186117146666,1555.5746320571998 2909.583073875554,1551.374222955048 2909.3145219110957,1551.3207816937575 2901.617537164442,1555.5682496686277 2901.3343488266473,1555.6584790489796 2890.659772328894,1565.5031655082494 2890.630645217774,1565.5642243487746 2888.805613253331,1564.2281702490218 2888.772699617759,1564.2749665134688 2889.6183324710946,1567.9811201273042 2889.435341395547,1568.627332999975 2879.7467176088903,1583.4774767762647 2879.4809327199837,1583.8504545160322 2878.6913695555486,1591.0383141847633 2878.7145256088916,1591.2402831014697 2868.7686366133203,1602.646922671578 2869.0285960799883,1604.7445100381956 2853.548119066654,1617.7537134189552 2853.2593237600013,1618.1054434199104 2850.624194017779,1617.6897167985808 2850.562226088885,1617.770962494389 2856.1259412177824,1627.1287313109278 2856.4355624088857,1627.1554749901625 2855.176543031099,1633.0922269543444 2854.862188684441,1633.3994927907697 2840.521309893338,1639.6440006812845 2840.30853634666,1639.7434528533267 2837.618938906664,1645.7325922998498 2837.041930835556,1646.2643962108632 2832.1156625333315,1647.106001809494 2831.126068933336,1647.2793930853295 2827.7406248088737,1653.5719259306716 2827.6164704977637,1654.2921297410285 2824.1579901422156,1653.6708515061691 2823.681616239999,1653.8494666459665 2818.8189906755506,1659.245099685264 2818.7751543733248,1659.2904355888531 2798.69994839999,1653.4695027855269 2798.3398644888875,1653.2897621625962 2793.255144702205,1655.8461667479642 2793.0077827111163,1655.99742117391 2799.051294177778,1663.0099665071248 2799.0946935733155,1663.1424674069785 2800.0416159555534,1690.8239122191662 2800.025960133331,1690.9243886684344 2786.5221216977734,1689.1569730087867 2786.406923973329,1689.1994116679634 2779.394207884434,1699.711136563703 2775.9965303733406,1703.4691703028438 2779.497900399998,1709.6945597485537 2779.9145637244437,1710.0479064618921 2785.071300293326,1710.596512345197 2785.4103398666703,1710.7171624325492 2794.9311186755585,1718.4913216537898 2794.9433520622188,1718.5277481705925 2798.293552382216,1717.7538038827988 2798.400011973332,1717.7591681402628 2798.1174061777783,1719.8404577736583 2798.1742768622134,1719.9491106531568 2804.40274548444,1720.266460572333 2804.5200549244546,1720.3042580146503 2805.7661855555416,1723.2118333715262 2805.7773266755466,1723.4301225351737 2804.1572767555554,1728.45937280621 2804.1267661066595,1728.5425637754743 2799.975788684438,1731.5454555673568 2799.8477022133375,1731.641986204857 2799.938724435553,1737.0991644084206 2799.890810337769,1737.1845860473622 2801.7652127555557,1739.7568955478419 2801.8806289333224,1739.7568955478419 2813.0411912799973,1735.673911473532 2813.329404044438,1735.7937544576635 2815.9730534666523,1739.489295566389 2816.0289047022306,1739.649406813107 2814.5366499822194,1741.513469036152 2814.559441946658,1741.6144698747594 2819.430514373329,1744.3027649265641 2819.5719264977743,1744.5567491696493 2818.586046604447,1748.0460688521925 2818.62252831112,1748.6002536560918 2820.870340293339,1754.9211532791742 2820.896627511109,1754.9711419123123 2826.751176844431,1758.1125993608948 2826.923099617772,1758.3833433440086 2826.6999859466523,1763.2597318500266 2826.5899582844504,1763.3934701532344 2814.9544055733204,1772.192262266668 2814.7786234577725,1772.88750205197 2824.0183256444507,1777.953658172708 2824.2351769866727,1778.3540097641453 2821.3840697155465,1786.2512515121125 2821.380938551105,1786.5969710835561 2824.875390888883,1796.7250869252093 2824.899129484438,1796.844289438879 2806.233966959997,1805.678581475011 2805.961118746658,1805.7221694032996 2796.0523668177702,1802.6189902124388 2795.9309067644426,1802.7187501801163 2796.2805049155504,1797.1474636569837 2796.2585867644448,1797.0671239088333 2793.749941502225,1796.6894631318646 2793.526682195552,1796.6431272518457 2787.137213466667,1806.8959161530147 2785.8905002933243,1807.9815924811628 2778.677389679993,1811.6141700770168 2778.2249728266543,1811.705694120472 2769.9359067288824,1807.9477199253379 2769.6879621955522,1807.9531993108903 2761.812937982213,1813.9614924002744 2761.224643155547,1814.0846395025073 2760.3185715466607,1817.1998269243413 2760.206286533321,1817.3987920757863 2761.7842477777813,1820.6141265556435 2761.6962110844397,1820.6984135497987 2756.5784320266466,1819.1713906817095 2756.4756861422284,1819.1218379368584 2749.9587134844405,1822.0493521229 2749.8770847555497,1822.0824684094914 2748.2651904266604,1828.732932058243 2748.896957466677,1829.966525791002 2752.877759742223,1827.3364831924337 2753.5064684355384,1826.4176544315924 2760.41614736888,1830.0974766885847 2760.843806177778,1830.327760253138 2758.6760209333224,1835.3616258849725 2758.595921377775,1835.7818184950374 2741.7616890577847,1837.2191101598655 2741.6013443111224,1837.279349079232 2744.0110302133326,1839.5843059841063 2744.0633861955503,1839.8184051715289 2741.6143058755624,1847.2404523830555 2741.5229195644424,1847.6743603126451 2743.6294650577693,1850.1584034371117 2743.7646148533313,1850.2705141614788 2742.660478888887,1855.5116978299848 2742.43321460444,1855.7953664566667 2746.1761212000056,1856.1345225954065 2746.3469517066624,1856.211659776418 2747.2848446844364,1861.157653465627 2747.469510568895,1861.5828603312184 2752.6485293777732,1861.5487742462647 2752.859191208867,1861.6152047705327 2755.540341786669,1865.1892644717518 2755.53706498666,1865.3453774632435 2742.6041179288804,1871.723712007246 2742.5491405066496,1871.7970945127236 2742.290346124435,1875.8350854265955 2742.25502950223,1876.3244683497687 2746.2777748177687,1878.9799891346265 2746.3486993333427,1879.0394330280324 2746.6395335377674,1882.7210898211852 2746.6322517599983,1882.7966949562178 2742.552562942212,1885.1274671982028 2742.4678758666632,1885.1847901323272 2742.2041298755576,1890.6382593341623 2742.023468968873,1890.8651638517404 2743.4045309422145,1892.0159584317225 2743.5781285244375,1892.1801957071802 2738.699919955565,1894.8606331156552 2738.254566426658,1895.5962370996058 2739.157943777762,1904.9869759541107 2739.0276727733362,1905.4912458665422 2728.2436511555497,1915.6222087210845 2728.12415718221,1915.706961603726 2727.527779582211,1923.7531277984308 2727.3837460177674,1923.9514329194135 2718.056516862205,1928.1475939889424 2717.916561093334,1928.228723274944 2713.981051475559,1926.6003980121677 2713.307996755546,1926.3302893307773 2709.94221343111,1924.063258778704 2709.492418017784,1923.5061150883485 2709.4767621955616,1919.311315407038 2709.817476577773,1918.9676047728644 2705.821164115543,1912.572503367519 2705.563607635566,1912.073522561077 2712.8694880977782,1909.9712875515906 2713.0487654666576,1909.9625876126302 2716.8043423555428,1913.2769093844909 2717.4002830488826,1914.0445617775476 2721.523589715558,1908.0330291135397 2722.6025307288874,1906.9219931856132 2723.42464343999,1902.8692867056452 2723.565909928897,1902.535286206221 2711.0234846133317,1897.1967019982621 2710.96457503111,1897.0326050437943 2712.3462195466636,1893.0823102620125 2712.9097563288888,1890.832340465604 2719.100214071099,1890.915642200176 2719.400587404445,1890.9176314936994 2723.3138876000085,1885.6441173684943 2723.833005537781,1885.0541036969735 2722.38822800888,1880.3515337861245 2722.3285174311095,1880.2179748741692 2726.5322877422223,1868.0612945476823 2726.64005805333,1867.4928470754603 2718.8436770399785,1862.857713455327 2718.3893669244353,1862.52233361065 2712.2489349955504,1869.4195724895326 2711.7678279377797,1869.7693356935852 2705.0474024088835,1868.34663539756 2704.5967331822103,1868.3261118059818 2693.3934268000085,1887.4757900621116 2693.1538563111026,1887.823814182375 2683.484529235553,1893.65868057825 2683.243720844439,1893.9203823985808 2683.474043475544,1895.3023448641688 2683.8376226399923,1897.1028435769767 2689.544715973323,1900.199335275007 2689.911499119982,1900.694826274288 2691.865782639994,1907.9886577389625 2692.0054471377734,1908.099151090959 2698.1141305155397,1904.8227795333296 2698.491399422208,1905.2247553081324 2698.4295043111124,1908.991292325496 2698.4243342488844,1909.2148845085394 2703.0090143555644,1912.4155393163746 2703.2671533777684,1912.5783444591434 2700.5452248444417,1918.3889081852321 2700.450416097774,1918.5984177288701 2708.087763084426,1922.8793833575546 2708.1677170044495,1922.9458590316426 2706.606649484449,1930.1376473054916 2706.4686597955515,1930.3315795911112 2698.7305330044255,1935.3384074070127 2698.456738159999,1935.4635004370575 2694.737642977787,1930.315553183922 2694.3761755288942,1929.7556196864534 2695.0793768088843,1924.7892512009348 2695.1829236888807,1924.2810700051996 2693.2689812177778,1922.238478904641 2692.298902782226,1921.4378962772244 2685.991135600001,1930.9610780117146 2685.84870402667,1931.100095867696 2678.627801911098,1931.585847895818 2678.545153733321,1931.5403787187752 2678.300558817784,1924.2557229389422 2678.242158959991,1923.985974710762 2666.1163969688714,1912.8773577543107 2666.0327293422088,1912.7109494888791 2661.7178391022244,1913.1629473848952 2661.3375846666677,1913.3539609751824 2645.497096559986,1926.798319435351 2645.201529200007,1926.9674155414032 2643.825491653326,1920.5203732678128 2644.315191208887,1919.1815854155648 2659.171037324435,1903.2347332249701 2659.045499475549,1902.7351646962416 2656.3813882577742,1899.7912290965542 2651.1314449333368,1900.5971206995819 2646.8915570044264,1906.0373980455115 2645.48238736888,1906.24235898615 2638.5232651644255,1900.9930384528052 2637.0240927555496,1901.1378553319737 2624.738350106658,1906.3902684364366 2624.1003207377726,1905.9338607652826 2620.8847604888797,1901.4199052344702 2620.9727243644375,1900.9341171338965 2628.7067733599906,1893.9852792711972 2629.1289708355544,1893.4646101031321 2632.058357217764,1887.6059729935005 2632.657356257776,1886.2818716421243 2632.552644293326,1881.8425450348223 2632.2520525066575,1881.8090941301562 2619.8690253066525,1883.8224516768169 2616.5384129688828,1887.1732720072541 2613.444385591116,1885.7933294488976 2608.7080988711023,1884.750079259531 2600.6856186577716,1895.8555670102287 2600.2887617688903,1896.2349869415702 2589.627802195544,1901.0922349513203 2589.423111422213,1901.262409952782 2590.500596079997,1909.2833664114514 2590.495134746663,1909.5079516136102 2586.9559722933263,1910.5381475488175 2586.882280702215,1910.6169432043025 2586.9665308711046,1918.6441468634803 2586.933690053331,1918.7868016202628 2581.8700146044357,1924.1528435418659 2581.5681120977606,1924.3110143173908 2572.6299483288967,1923.2649410726663 2572.273650942203,1923.1961050052414 2559.90482320889,1914.8918617502422 2559.5180151733293,1914.758640971144 2552.468234835549,1915.0412376243257 2552.214537697764,1915.0634824137305 2546.1513654311057,1907.5915508773396 2545.957378871106,1907.5647041057455 2539.7133272444407,1913.2049530367876 2539.409604293345,1913.4846998620415 2539.257706408891,1918.0028168939243 2539.0761716888883,1918.1495741758044 2532.508736311116,1915.7218741199686 2532.362081306659,1915.7756834134852 2533.8364228533246,1918.8817388874668 2533.917250586652,1919.1088917429515 2532.11945247111,1924.4060656494767 2531.9192763999963,1924.463717613784 2525.881590355544,1918.3471552917254 2525.735080986655,1918.2716023507746 2518.9108901244254,1918.8872064734387 2518.5309269599893,1918.940391143049 2516.1320909066635,1911.5696899608083 2515.998324648892,1911.1074869465592 2512.126239315541,1910.741972025302 2511.8290699644494,1910.2645989191733 2512.2530150666644,1900.51221863104 2512.1403659644493,1900.3912671261278 2505.992506622213,1899.308533390802 2505.959374533333,1899.175396591112 2499.612067297763,1902.3367742760383 2499.4537614488727,1902.3562898848104 2486.289982035545,1897.621362597427 2486.0020605422105,1897.5689017879995 2486.721063280005,1895.1857323362128 2486.6491921333145,1894.9285125106326 2476.188335813342,1886.5778048463471 2475.1311673155506,1885.8582365688708 2475.1888389955348,1870.7193561829117 2475.18301357334,1870.649952294778 2472.0209743911037,1864.650515522626 2472.002333040007,1864.5890646953558 2460.5344796710924,1857.6766221891667 2460.3332841511074,1857.5341711992005 2452.6446734488927,1845.6604590341376 2452.7285595288777,1845.408466949848 2446.813207351115,1842.613823102518 2446.666552346658,1842.5644173816618 2441.261434337772,1850.6311083754044 2441.1886893777773,1850.7216920319988 2438.0779139111037,1850.2576979645164 2437.8266925777643,1850.0853633554143 2435.95061535111,1837.7844073267552 2436.0544535022273,1837.6919339967499 2431.5710629244495,1835.8403166016433 2431.481497057779,1835.7971275804084 2432.277104097775,1830.4961777966164 2432.312566355562,1830.4050606131568 2429.138220968882,1828.7390316358578 2429.1187786222217,1828.680276490857 2431.41632514666,1817.9999161558735 2431.3882174844402,1817.973147109551 2426.635765217761,1822.7754155910588 2426.4966832622085,1822.8377878492392 2419.5500128977656,1818.0823398296125 2419.3722647022005,1817.9552180661049 2413.1858847555486,1823.724436801269 2413.047749431098,1823.760539846735 2392.2799735733206,1823.1737999708785 2392.0883171822134,1823.2385371411729 2388.3910673333376,1822.2348528520015 2388.259995333334,1822.1478294389017 2385.4944489511035,1815.9549699128474 2385.414349395556,1815.851873782427 2373.179360737784,1818.3009735871674 2370.9392674399933,1818.4463968930286 2371.1419921333218,1815.8241075187325 2371.11657872887,1815.8173838472503 2368.2015374488765,1818.6505864573192 2367.9472577688794,1818.7082325107694 2348.3238132888873,1818.7595287286167 2345.285054604443,1818.834729887567 2339.5652181599944,1826.5728892194093 2339.418271884446,1826.7053425894046 2304.6896532177707,1806.4570563128145 2304.149782213317,1806.119814140744 2302.7250295733174,1804.36768840273 2307.5956650933294,1799.496567315051 2307.6010536088797,1799.052039440976 2304.408430959993,1791.4309461744924 2304.2837669244545,1790.8401001595557 2304.9775747111053,1774.4595143314582 2305.0697620177743,1773.9662952014987 2302.749787617773,1759.3906430354327 2302.6793000088874,1759.0491032158825 2303.9368630311,1752.7885505299128 2303.9368630311,1752.5662720588953 2301.1445925244407,1752.3483559450178 2300.5873908888825,1752.4389882167234 2295.280358426673,1745.3896391084054 2295.0201805066536,1744.836666530602 2296.1053110311113,1731.4307160724638 2296.4945948711174,1731.2639691976874 2294.68427209778,1729.114918982341 2294.643639777765,1728.6419687000816 2296.7682440800054,1723.4982285644292 2296.885116613332,1723.41839731222 2296.4901529866547,1717.690929753655 2296.5319503911087,1717.5926263975343 2300.245511422232,1717.371817411964 2300.943105733335,1717.0538258553643 2302.6420173066654,1712.2781019796166 2302.911661537779,1711.1962664981475 2293.9511427111065,1709.6586260483673 2293.7945844888964,1709.67883875782 2289.405420115545,1713.1538093485506 2289.077084755547,1713.128482788532 2285.756666906651,1705.7600446160868 2283.676845537768,1702.3706773675149 2273.909797004446,1701.2097658041093 2270.8464987288826,1707.1568051569848 2267.169273768879,1708.0488204057256 2264.1751523822095,1706.6936348852396 2261.5406779999976,1699.1513076471674 2240.7574647733345,1696.9005740995126 2230.2935501066604,1687.4381778470633 2228.8833610222136,1677.2399337013994 2223.263139297771,1666.0404176069933 2222.310682764444,1664.1964680444435 2215.1908517244374,1657.9944124467365 2214.9712333066636,1657.6299663958125 2212.311563973337,1648.2212922362596 2212.1922884533196,1647.7821994901387 2202.9179250044326,1644.199362173349 2202.722773359994,1644.0746829286436 2201.5303094311166,1640.8332911063262 2201.411033911114,1639.8304108760422 2204.032692364439,1633.365504956244 2201.6504587644376,1629.9923503640093 2196.77334246222,1626.5332434425582 2196.664916791102,1626.538867179821 2190.0226247377796,1631.8301560394539 2189.8961402577625,1631.9354964124286 2183.5527651822267,1628.0432572566715 2183.443538515545,1627.9321603444332 2179.6565043466617,1632.1795403606884 2179.541160986664,1632.1795403606884 2173.7806922222153,1624.9915663694483 2173.608186906662,1624.7953541470852 2168.1415378755555,1624.6957480376514 2168.023573075545,1624.662379322901 2165.51237919111,1620.2588934255982 2165.311984666674,1620.1386555778226 2160.68834704889,1620.943943814862 2160.5844360799892,1620.921946352748 2159.5801332888877,1618.9321369252211 2159.614794551111,1618.7872727871072 2161.5541504266657,1617.5248501375536 2161.5100956711176,1617.3768571720211 2158.856033306649,1612.2890895262753 2158.8245032088817,1612.1883340846907 2155.5974377511084,1611.4044099912353 2155.4715358133326,1611.2627748443992 2152.9496377155374,1602.554400303481 2152.8961166488807,1602.2962120022494 2141.166119280002,1581.5490060351513 2141.043639777774,1581.3063472995054 2100.5012497333155,1541.3858724998063 2085.632369235558,1527.6547241331937 2084.474785022212,1525.4593175478149 2085.46059209777,1523.8079111749612 2092.762176311102,1523.0316516656967 2092.8868403466695,1523.0370363099428 2098.2530736622066,1514.5377359141057 2098.261010800001,1514.3211867917053 2081.05904870222,1504.0858493409542 2080.1871286311143,1503.6091926194422 2078.717811511109,1497.7884870612397 2078.3611500355546,1497.2636615156443 2073.157518817774,1496.9796345647992 2073.06926367111,1496.9884047191808 2081.909633164447,1491.7645098166759 2082.3648899111067,1491.5692909930585 2117.6855171111165,1491.6799317911573 2118.825625057776,1491.6343222498617 2120.6306321333323,1490.1707857573856 2121.0805003644273,1490.1057526440636 2118.639866906662,1485.9390757667788 2118.608773715554,1485.8182720472323 2119.6983461244454,1482.644190161278 2119.8663367377812,1482.4033188493995 2135.283171013325,1482.5118489354281 2135.710975457776,1482.2459122193468 2131.7106580177715,1478.68245271028 2131.4555045244415,1478.5527332485872 2132.858921555562,1475.7330398311533 2132.8660576977636,1475.6216125689316 2130.545719208887,1473.165889747026 2130.471590711102,1472.4596847083812 2137.796330977777,1468.9208668123392 2138.2008337333173,1468.755145218216 2169.845983600004,1468.2209965543225 2171.273284862218,1468.327550944865 2174.2159968977867,1449.2953036239705 2174.4755922755503,1449.1573584472862 2171.841117893324,1445.1386016567049 2171.852695919988,1444.8175389937314 2189.7566213955506,1413.8965520053825 2189.6805268177777,1412.8273557617722 2193.4254723111007,1410.5160838200463 2193.799828506664,1410.6276527439986 2192.1073977155393,1407.5308660007067 2192.1344859288874,1407.3926828247713 2197.5815469777663,1396.1054606639154 2197.9527720088736,1395.1790054543017 2203.2515032444426,1397.018090535763 2208.6603349599973,1398.9069441996617 2222.937862284445,1393.7683259536498 2223.955709182228,1393.7875336510406 2224.821731013326,1397.2958933467962 2238.7412861422126,1410.5046633653183 2238.9327968977814,1410.6276527439986 2242.6888835111095,1407.7415914887315 2242.798328631099,1407.7087088311746 2245.927162906657,1410.679734891899 2247.6849112444543,1411.6933809948896 2269.6798122933324,1406.0947970363995 2270.4456368622123,1406.0183611937755 2297.707302142233,1409.5767115342533 2297.9154881688955,1409.6021883913127 2305.273870248893,1406.8617848667855 2305.613128275545,1406.8837488393983 2311.025673697768,1411.2006789563384 2311.0775199555574,1411.1931490870847 2330.2022354755536,1397.462348353547 2330.473991422208,1397.2804529228524 2330.517390817775,1394.7112521895106 2330.494234764432,1394.579436890861 2325.9521530577695,1392.565633562168 2325.85421314666,1392.5514471472634 2323.755531973329,1387.3668654091525 2323.748104560007,1387.2799804301394 2334.5613989244375,1373.6683564017803 2334.7035392266625,1373.4494528928699 2343.646727422216,1370.0457157463898 2343.862777768889,1369.962946138483 2350.3049665688814,1363.009444541989 2350.4454320622244,1362.919377821563 2348.313618799999,1356.9057782419914 2348.3280367199986,1356.5996147434562 2352.6472232088927,1350.1976520378885 2352.763731653329,1350.0475031811293 2357.0364603999988,1352.030060847981 2357.363412222221,1352.2060862448052 2375.0697830666686,1345.2097100790343 2375.5503075822126,1345.0164451921519 2377.868898444438,1343.0797349174027 2377.9323227288914,1343.0206723964584 2374.9491240088755,1339.9191659802527 2374.760890053316,1339.660908085374 2376.902023991097,1334.5280291981398 2376.9420737688706,1334.4371582401 2383.23440358221,1328.8719786651418 2383.2721960088893,1328.80586055405 2422.698726426672,1314.662792257317 2422.782321235536,1314.6101094109981 2425.5307554399988,1303.3889360557587 2425.5194686844407,1303.2328647357572 2416.3716625333254,1302.6893152947378 2416.1320920444487,1302.5754986812026 2418.2880079911047,1293.250479870003 2418.2789785866553,1292.7695928580142 2417.148919493331,1286.3617791955112 2417.148919493331,1286.2715774962198 2414.4589579644307,1283.3592477780985 2414.392839422224,1283.3231398376447 2409.1037201333165,1290.724986424284 2408.839100328878,1290.9442439967752 2393.5483136266776,1298.441708935272 2393.244736311106,1298.6421931177829 2392.8095044533184,1303.2698389674115 2392.746517075553,1303.5047630532426 2390.66742388445,1304.6044147770372 2390.455524151119,1304.6730793456009 2389.415030924436,1301.8738545414453 2389.2368458222263,1301.7888366019688 2381.436823920005,1303.9514679757776 2381.235409946654,1304.009569511887 2378.7355756355464,1295.8323243364794 2378.6974919377753,1295.8167274990337 2368.3768826577652,1300.3228837609568 2368.0887427111084,1300.2508175631738 2359.9952651644344,1285.6752610064068 2359.9912601866745,1285.6300966684576 2344.541657911097,1283.8073867163112 2344.534084862222,1283.8073867163112 2342.124981502224,1277.7984505233107 2341.9617240444422,1277.5517065728855 2338.077696595552,1275.2584785611616 2338.0055341777697,1275.1293752610582 2338.376467937771,1271.8685909931883 2338.013107226674,1271.792080303414 2336.6322637066696,1276.0894631552583 2336.59556354666,1276.2178090575399 2327.556110248879,1285.5284453107233 2327.3679491111034,1285.7093543939045 2317.182999351113,1284.5724346032875 2316.987556435539,1284.529030613885 2310.26873289777,1288.6774049177402 2310.0049140888805,1288.56909227906 2308.3041092533167,1285.921210949302 2308.313502746656,1285.7421897013191 2310.980162586675,1282.076708304674 2310.956642444442,1281.8317464023203 2306.419512346656,1278.5525158119199 2306.362932933327,1278.3875610477626 2308.563194906652,1273.8457486051702 2308.638561306674,1273.5301534700484 2306.749304062214,1263.7915513978733 2306.68158352888,1263.656000291834 2291.763551031101,1257.2480632286388 2291.586166924455,1257.1935589655404 2281.403620151097,1256.9751637028457 2281.233008097777,1256.9069385938856 2268.055466124446,1241.5717286868967 2267.9366275111024,1241.3690060734007 2264.9916581244397,1232.1173262662414 2265.0875591377626,1231.6900178707656 2276.8645239733232,1218.0267347164554 2276.868383315559,1217.8909362806662 2275.717571155539,1212.8162504439897 2275.7062843999956,1212.791809300361 2273.418932364446,1213.5250385265317 2269.7441832088734,1214.842179049876 2266.9537331466636,1209.514070498095 2266.113852897768,1208.7191720594637 2261.1939925599945,1206.9198009024913 2260.494869075548,1207.1915817002227 2261.067435262208,1202.2587306532587 2262.0074399555524,1197.8569676256375 2264.3831199555643,1199.1315394265039 2267.0538575911123,1200.0466810302387 2269.5681826399887,1197.034918747151 2269.9633647200026,1196.7580429539594 2278.299543919995,1200.6174075640374 2278.737397217781,1200.7531258748713 2281.802006213322,1197.2444964682436 2282.3754462133293,1197.0594934492328 2289.9136882044477,1198.0800262859484 2290.0023802577707,1198.0215522453873 2307.807055102203,1167.7487273984225 2307.8446290755455,1167.6840399171997 2321.248707155559,1155.5067077639324 2321.2791449866563,1155.4947257367821 2335.04126808,1158.7755520836727 2335.1371690933374,1158.8208286118097 2335.539487315553,1164.4684771249522 2335.614052719997,1164.7802064217467 2344.394638817779,1177.8126229647387 2344.543842444451,1177.9644128810542 2355.8419575733205,1176.6030782371308 2356.1536176622103,1176.651112610496 2363.098686035555,1181.0466340214552 2363.501004257785,1181.512941036919 2365.2924672266745,1185.7137985144873 2365.3333179999972,1185.9935072669978 2363.7700659466573,1188.1623011042757 2363.9432266222066,1188.3221272082228 2381.19536016888,1191.84397276432 2381.5976055733263,1191.9291736660598 2379.44241780445,1194.1369114204645 2379.3972707822177,1194.433714242965 2384.0911775555505,1195.9171983985507 2384.325577982214,1196.0183978983623 2388.035643759991,1194.8754494352543 2388.069576844435,1194.8792303191367 2394.9482354044376,1180.2841958678255 2394.926681342222,1180.1979670274231 2411.164463244444,1169.5140461554183 2412.335591564428,1168.4938254454682 2422.5668534311044,1171.360630413219 2422.7967391555503,1171.7126653976957 2422.401557075551,1168.4938254454682 2422.581198533335,1168.2711420091146 2433.1644615377663,1163.0046354817823 2437.294248986662,1162.3800183368949 2443.7178692533416,1154.2648502987795 2444.3151934844427,1153.7338417035862 2465.75988340444,1137.3957565264645 2466.9709158666737,1136.4605662708564 2480.908821075551,1146.570236036634 2481.3820638133257,1146.6340672126898 2492.5975307644476,1143.964443114608 2492.9801153688823,1143.4260103876804 2501.781163262225,1146.3015387097912 2501.905972933331,1146.3063323833994 2502.9621219822075,1140.007309573375 2503.2975934844508,1138.517154758163 2508.8595609866534,1137.8090920423201 2509.157240062217,1137.7958441610026 2511.5395464799876,1139.9381711869428 2511.5571683822272,1140.1189653466208 2509.1422395999907,1148.5677608308106 2509.227654853319,1148.6257869073524 2523.6662551022237,1144.3987932155069 2524.4312058577707,1144.3868085832146 2530.4103464088766,1150.1141332484767 2530.6310570933347,1150.3559428619992 2540.8893343555465,1142.1658184521875 2541.153954159985,1142.1240596329371 2531.8008746933265,1131.6444186502558 2531.7262364710987,1131.3814473751627 2532.923724826651,1115.3715938321766 2532.9971979644397,1115.2016937406952 2531.4451598488886,1110.3388529666627 2531.3716867110998,1109.9853849221472 2534.7833452355626,1101.0393042145515 2534.9930604355395,1100.9865270313676 2534.1635203111146,1092.735444152022 2533.9889032800056,1092.0727136442947 2531.094687884448,1089.347573395913 2530.573458231105,1088.6678758293638 2537.0902852533254,1075.3050939236055 2537.7786317066566,1074.422707675527 2546.1070922222207,1071.9820123138124 2546.391736915546,1071.6881608933254 2545.5471963288946,1065.9818525681549 2545.6872249155495,1065.6832917130014 2553.441662888894,1065.0300653017985 2553.8009458044326,1064.8061722371713 2577.961156293335,1045.2210796397048 2578.1213554044443,1045.0647235274155 2580.0119961866512,1036.3889262987286 2580.226808631116,1035.724958232946 2587.242437431116,1031.609984051749 2587.5641463733264,1031.2625450870764 2594.8937654311085,1008.6690038871238 2594.908620257782,1007.3650037279949 2598.0408041511037,1007.3861280624915 2598.320788506673,1007.3102322092091 2598.6122780711084,1000.7422834424724 2598.9953724000006,999.2769032427386 2606.2234834755436,988.8149684056916 2607.038095955555,987.4802170789553 2608.735988079985,979.6368984485671 2608.506612079982,974.75137841791 2601.1663616266524,952.4098565745007 2600.9443402222023,950.6677862237484 2605.8397337866554,936.7375673066053 2606.3453804355595,935.1325277591168 2604.4487685955464,921.517110402543 2604.175629111116,918.4692298107475 2604.736908542218,904.399531742376 2604.810964222219,904.1126986423842 2619.319323902215,894.6677253389134 2620.9052222844402,894.0399420931572 2634.2872365777657,896.1897379994407 2635.4628795999815,896.3713978104861 2644.2255525244473,892.5685765050512 2645.0444612533247,892.1940725713721 2634.502267475553,879.967175589969 2634.4146676888995,879.7803849011179 2636.1775860888956,875.4899706483047 2637.6777779466574,873.2658690803146 2634.398283688897,868.7381013792692 2633.8196008088926,868.1195115531082 2637.41126488,863.8052823996622 2637.7327553688883,863.3091708303182 2638.989954302211,857.2754028304844 2639.0065567555503,857.1449844647359 2634.067618159992,843.8117509556541 2634.101259973344,843.6219089746519 2644.8587031022107,828.9771988455977 2645.0148244177763,828.8302062310177 2645.485736986673,824.9558204861169 2645.5327044533406,824.8383948692717 2635.3223412888838,817.9948700786117 2635.1682588711046,817.744496815103 2640.2395801866733,810.470184477359 2640.333587937763,810.3292336210943 2641.829410728875,801.2307289265955 2641.8530765066607,801.0651133304855 2645.463600382216,793.7499295290545 2645.5533847022234,793.584162575622 2656.0712573422134,785.7043382487973 2656.4165592444406,785.4142951673202 2670.986158675565,764.0713311985528 2671.182985128886,763.8641604691147 2681.9425399733373,757.4006457108699 2682.5826082399944,757.4155181643364 2698.6394379644407,764.7243583238087 2698.7386157777873,764.7094880056466 2711.9113517777805,751.0911556029387 2712.4411011111006,750.6904378586551 2720.347873875544,761.5491290887803 2720.687714444437,761.3655896489727 2728.3319063022136,753.2163562097921 2728.626891119995,752.9014654824059 2731.5843851644386,742.0493211173089 2731.7778619999954,741.6409029153365 2736.125156151109,738.0218336764301 2736.207221786659,737.8460935350085 2745.790186977778,737.4119542890476 2746.3719282044403,737.367192211248 2750.1507339644377,732.5578371180673 2768.49804688889,723.2321056660512 2771.5981909600014,721.1392348202862 2819.1907982488847,680.9692766210865 2882.31944251556,639.8492125604898 2891.4384856444303,633.1688434862808 2938.399689982216,593.1438060582368 2945.926208311117,573.6726932607489 2946.3593284533345,573.1782099091142 2970.660514159994,562.2072494035747 2972.745578408889,561.5423013640902 3060.322354657772,546.4060314843155 3134.813703422209,465.02809610703116 3116.7232187999834,292.38843354765413 3077.7759749955367,270.5444955384519 3075.1723025333413,269.2610841456262 3027.309614106671,248.72207901233196 3025.8807836710985,247.4381146594751 3021.061775955568,214.04361206958856 3020.5028266933296,211.47389187673252 3010.6305564711147,178.0556560487821 3009.661133395559,175.48410861766752 2994.0050199022153,142.04209780123347 2993.280701466654,140.75542521655007 2972.6897271733396,109.86546382575034 2971.6832398488987,108.57797273826873 2952.341745804435,86.68560923786572 2951.0570217511195,85.39752803130978 2927.667951528878,64.78376598156319 2925.9991136977696,63.49512682659406 2901.2538851822246,46.739828703131934 2899.0638905155574,45.450729612894065 2870.829015635558,31.268469875321898 2867.756906408882,29.978976232196146 2803.904162159997,11.922610534871637 2795.828015244442,10.63262328122073 2731.0587864444315,9.34260310362879 2720.5178305688823,10.63262328122073 2684.841051617761,18.37205301645008 2680.5729832088764,19.6618427699359 2642.153377022223,35.136753468257666 2639.610143315549,36.42611556065822 2601.5667137688943,59.62901231893193 2599.808382888885,60.91774999733752 2565.0786719555545,91.83760606546275 2563.169899546665,93.12552328303718 2532.5732528622248,106.00289226060704 2529.961206355547,107.2904488839049 2500.983080417769,124.02570376343647 2499.0168547822177,125.31280180907197 2454.202973893327,162.62441153451073 2452.97308162666,163.91052827124804 2434.4253741777575,185.76951466631 2433.4591550844416,187.05504350471165 2417.310866231106,211.47389187673252 2416.567906444434,212.75876827346656 2373.783893928885,224.32118906279356 2370.1727146933335,225.6057395456519 2333.5736985866606,242.30193177346518 2331.288021359993,243.58602632022667 2281.3829399022143,253.8576110103386 2277.380292293332,255.1414126667005 2225.289512417781,276.96106491266255 2222.8892200088812,278.2442812837762 2217.894794266649,278.2442812837762 2212.7963847377614,276.96106491266255 2161.747991351098,248.72207901233196 2158.5723352444547,247.4381146594751 2110.963999315565,229.45919552150735 2107.1699018222207,228.17474277294968 2071.4262033333143,219.1826612891091 2063.3828972355623,217.89794787490246 1995.6247899288792,216.61320186826197 1985.1268693599923,217.89794787490246 1954.1386086666535,224.32118906279356 1949.5953618755666,225.6057395456519 1912.3689477955559,239.73364501709148 1909.686486497776,241.01780467309436 1880.4153418222195,257.7089183819262 1878.4926612177733,258.99262244486454 1850.4587634044365,280.8106165385907 1849.0199569333417,282.09373542636604 1824.197687208878,307.74929290972796 1823.1268289688815,309.0317299269591 1801.9117335022092,338.5188298826906 1801.1198401688962,339.8004887168572 1785.5781234044334,369.26970390407223 1784.4505401155402,371.83143519286386 1771.9754712444483,407.68209432862204 1771.3070768622056,410.2418864204592 1764.826658728889,446.0654222509547 1764.5630583733364,448.6232787801928 1763.6976190844362,486.97566671357345 1763.7680338755526,488.2535807582681 1730.2129465155522,532.9603228385895 1729.454694995562,534.2370802151199 1685.8986683999901,569.9732644788382 1684.6440180888821,571.2490919825432 1625.685939226656,612.0586687254181 1624.2564534311168,613.3334401411048 1599.5947469066668,638.8221576607248 1598.5307335377802,640.0962581502026 1575.8626321333213,671.9383992837902 1575.0963706577677,673.2116703173597 1563.5393155111014,694.8524025781298 1562.351366284427,697.3977658998556 1551.4314666933278,725.3883607737589 1550.623480631104,727.9321969316152 1533.2203958311075,809.2678992401416 1532.8546321333342,811.8075474255529 1530.7289355644389,834.658684161077 1530.6209467999943,837.197066649409 1531.1096997244385,865.1109295740534 1531.3068174488944,867.6477952979985 1534.699761804448,893.0095088888556 1535.1834174844334,895.5449862274618 1541.5232973066668,920.892825429728 1541.8107090755439,922.1598865973865 1483.315460008882,974.082304194184 1482.0348137510955,975.3480444712259 1420.291600524426,1042.3873825858536 1419.290283262213,1043.6514296130554 1395.9787639733186,1079.03204435495 1395.2959516711198,1080.2951843753326 1359.627838035558,1154.76520417953 1358.661254853323,1157.2877102588463 1348.22566630222,1192.5897279095734 1347.6906012711042,1195.1103678229192 1342.694937626664,1235.4237136391093 1342.6002745155492,1237.9422427335303 1344.5193870488802,1278.2218508063743 1344.8555139110904,1280.73827349957 1353.8473443822077,1320.9842144115464 1354.6444805955616,1323.4985351086289 1369.6498944266568,1359.942313470754 1370.2906908711084,1361.1985328809897 1392.181244044441,1396.3601701416264 1393.1203749244378,1397.615496524486 1419.8262949244454,1427.7341043581764 1421.1416024444407,1428.9886621660771 1453.6735272088772,1455.3272830721617 1455.4917871199941,1456.5811655095094 1391.5384815200014,1464.1038159827367 1389.7653686311169,1464.1038159827367 1311.0608560622131,1432.7521512865424 1307.5339269955512,1431.4976856283538 1261.0584900533213,1420.2061123176027 1250.8045818577593,1418.9513394276946 1220.2873065511012,1417.6965358042144 1198.250826551106,1418.9513394276946 1153.2911644711057,1427.7341043581764 1149.1391675999985,1428.9886621660771 1071.1839499644339,1422.7155659043274 1063.3278583733118,1421.460854475874 1055.8382586577718,1420.2061123176027 1031.7412540000005,1403.8916669914834 1029.6086397422114,1402.636494418075 1002.1139575733323,1388.8275656596452 999.1224576266759,1387.572023864188 939.3623637599885,1371.2471787819159 929.0986251644426,1369.9912058830887 897.3784001688837,1368.7352021769839 875.320948648885,1369.9912058830887 815.0072212177693,1383.805213785432 811.6348114755456,1385.060847928973 768.5523188888837,1406.4019198715469 766.5546359733198,1407.657000181971 725.4481994222224,1440.2783003328586 724.1791311911002,1441.5325510410403 668.372678568885,1454.0733699559278 664.8472786755374,1455.3272830721617 616.4619770577774,1479.1458054403556 614.5079848088717,1480.399105336699 569.3156699288884,1497.9420874102434 566.8441617333228,1499.1949278852771 537.7742125777804,1516.7314810185999 536.0021919555511,1517.9838624948243 507.0587272799967,1541.7733015469057 505.7552162400025,1543.0250716810333 482.1790771466549,1569.3051909219284 481.2135862311188,1570.5562894446994 461.46147273777024,1600.5735064022956 460.7669367733397,1601.8238428282275 444.388689377789,1638.0703568169483 443.5067932711172,1640.5691733095955 433.2509918133219,1680.5337086861764 432.6555608444396,1681.7820994501308 370.496121199998,1786.5387906913456 369.89340845331753,1787.784609113929 346.4796530044332,1806.468264471092 345.1039067288875,1807.7136001795661 322.38359497777856,1831.3692514787472 321.3439755644431,1832.6139844567733 302.39045463999355,1858.7464227426608 301.6114500533222,1859.9904935656741 285.7102319199985,1889.8391744746841 284.5991054488768,1892.3257833458993 272.96799462222407,1924.6407733506276 272.27739081776963,1927.1257019148834 265.4306992622078,1961.902117659156 265.1365882577884,1964.3852490703212 263.65103277331946,1999.1365276230135 263.73149641777127,2001.6178651584705 267.95055846223113,2038.823599275369 268.4364714933399,2041.3030269466908 278.9875490399936,2078.4801409393476 279.91954377778893,2080.957662456487 298.5175683110938,2119.344036281407 299.25972710221686,2120.581830964533 303.6547168977777,2155.228032427527 304.1395376622022,2157.701871292091 312.89609389332327,2189.8509923683814 313.7665576088839,2192.323172633689 327.26522598221345,2223.215443651068 327.9129401155442,2224.450750205775 347.23965215110366,2255.323816811251 347.88445357332967,2256.558355794121 357.11629143999744,2303.4489955300887 357.86980980444787,2305.9157458774207 365.960374639988,2328.1112039312065 367.01098953777546,2330.5767778567024 378.6472704266562,2353.9938686546884 379.34785026666214,2355.226053438724 343.46536109332374,2392.1779546324033 342.48989414220705,2393.40923022091 309.0235716533425,2445.0963683606315 308.39406196444907,2446.3263856215563 290.71594441777415,2491.8164942539224 290.0466034044439,2494.2742810260315 285.22664905776764,2516.3891155955425 284.821563759986,2518.845736763127 281.9089254666542,2545.8608848032964 281.73008500443393,2548.3161090986323 282.00154967999697,2585.1305235854597 282.21672621332254,2587.583888522837 288.4767249333454,2624.3704394890447 289.10215682666603,2626.821948646648 296.8814984799901,2651.330669801646 297.80963387556403,2653.7809051814766 309.3752087022076,2679.5013930698115 310.0171702311127,2680.725860266706 320.9018260177618,2722.3405665436367 321.7778238844403,2724.7874518456447 334.695916115561,2754.141085105417 335.3369310133203,2755.363793161603 330.17684482665936,2789.587938446719 329.949434906659,2792.031657712323 329.34380944888835,2826.2316658607087 329.48405648888,2828.673662595793 334.05679447999137,2862.849576992572 334.573727884439,2865.289854292314 344.64610135998373,2899.441718217793 345.5781689155483,2901.8802791699345 355.9884168799981,2925.0409087596418 356.618581928873,2926.259603702747 369.53223227554554,2948.1912332756547 370.3430582311048,2949.4093861709916 405.314014462223,2990.809631269476 406.60856891553703,2992.0267872670593 450.8641559022144,3024.879249860205 452.94237527998484,3026.095609840202 502.45045421332907,3047.985233942214 504.6182394577845,3049.2010545253797 518.3639057333276,3088.0923418256352 519.4783090044439,3090.5220838882306 541.2835197422319,3128.168611181747 542.1456094133391,3129.3825628182603 574.0885111733296,3165.7879782110904 575.3977020000093,3167.00105454577 616.1980126133203,3197.318799483117 618.2693143022116,3198.5311429399226 628.3353526311039,3222.772099668735 629.5123063733263,3225.195576229329 643.9014633511179,3250.6352897499382 644.6666325600017,3251.846395534747 660.2807301955545,3273.6414976784217 661.2598380355412,3274.852070015382 680.0744954577749,3295.42750800278 681.3247767022185,3296.637575524095 710.2134824088935,3320.833041979182 711.816638604425,3322.0425212316113 737.4693950844303,3338.9722921016437 739.5350169866651,3340.1813516114707 766.1531915644373,3353.4791605957653 769.048062319991,3354.6878845808315 838.4791580710953,3381.2727439441296 841.3724996533347,3382.4808255083844 848.4625482222109,3386.1049027391637 850.5468114755422,3387.312872667644 872.7981767377714,3407.844093368207 873.6063084355483,3409.0515612636154 860.2376197955527,3438.0224320590423 859.3113776622122,3440.435947258673 820.9180586933289,3482.654453776624 820.011404542216,3483.860196546484 794.211410515556,3527.2484524639076 793.3500490222141,3528.453168741449 737.6675322577867,3573.0082034492443 736.3174178400004,3574.211867831131 708.653871244438,3589.856989285843 706.8151495377606,3591.0602667234707 657.5210092355483,3625.943301475745 656.0859164711073,3627.145750825912 615.6023631911157,3666.8111180963824 614.5144655911063,3668.0126307221 589.9383199555377,3700.4430735427813 589.1762819110954,3701.6438161607584 568.1367501066634,3743.6525090383293 567.2315523110956,3746.05199057547 560.3607580711032,3767.642390948524 559.7339426399922,3770.040776398171 554.5432001688823,3796.4157897052864 554.2221465866678,3798.8128615563983 552.4297369866617,3820.3815875465734 552.3513122399818,3822.7775661519045 553.0711159733255,3849.126122900525 553.2809039911008,3851.52079131145 556.7251120622168,3875.461477083918 557.2065103911082,3877.8549461101575 563.4493969333344,3901.783645805226 564.1843467644285,3904.1759170001824 540.1755244355518,3924.505829971131 538.9480351555467,3925.7014625349766 456.0658938577617,3959.168146954551 453.64120749332506,3960.36299208094 347.0244756177781,4022.457592157625 345.3661235466643,4023.6510016400352 308.2795195999861,4057.055492823878 306.9563477600095,4058.2481186562 268.2564659466516,4085.6710643904444 266.7380696444525,4086.8630426934324 234.10703988443856,4115.462437425951 232.86353069333563,4116.653742188624 201.67334630223195,4133.329182873153 199.8162745155496,4134.520083985677 164.73092155556515,4160.713106216623 163.35408301333518,4161.903389088307 139.65626541332313,4185.703407779009 138.63550580445008,4186.893126897565 114.52350068443775,4219.005407233191 113.76889005333214,4220.194375759449 76.21115508443472,4257.03912293625 75.23161033777433,4258.227235148799 51.76098420444032,4292.670866391265 51.101182319987856,4293.85817726532 33.89332198221382,4333.024474004131 33.11140468443773,4335.397256148259 27.287001911092375,4356.747503091632 26.770359777765407,4359.119220496468 22.97604383109865,4382.83054429468 22.731084826657025,4385.2010919229 12.730291226653208,4420.746561040774 12.264767173335713,4423.115409857179 8.052550000000338,4468.103398107218" stroke="#009edd" stroke-width="5.909325910850027px" fill="none" stroke-linejoin="round" vector-effect="non-scaling-stroke"></polygon>
</svg>