<svg viewBox="0 0 50.451098396445744 56.41915964495274" width="50.451098396445744" height="56.41915964495274" xmlns="http://www.w3.org/2000/svg">
  <title>okres Pelhřimov, Kraj Vysočina, Jihovýchod, Česko</title>
  <desc>Geojson of okres Pelhřimov, Kraj Vysočina, Jihovýchod, Česko</desc>
  <!-- Generated from maps/2-geojsons/world/europe/czechia/kraj-vysocina/okres-pelhrimov/okres-pelhrimov.boundary.geojson -->
  <metadata>
    <collboard>
      <support-module name="@collboard/map-svg-geojson-import" version="1.4.4"></support-module>
    </collboard>
  </metadata>
  <polygon points="1.726135607196551,30.286684205137494 4.420240467643083,31.737026770385633 4.436777384976807,31.734701125204808 4.543477274752871,32.90145885576384 4.544467596531098,32.904723010801895 4.985495749420437,32.48131686267916 4.989770152974592,32.48588926426491 2.8687193583104036,35.0648445288436 2.8657993654185647,35.072968180796664 4.500638576086561,36.41126264024096 4.507548983199007,36.41094983864204 4.737551216087371,36.91361022862438 4.769700264976194,36.93510216191971 4.389999244529821,37.529906134411064 4.3466799485311585,37.61385330763769 6.066737804531653,38.30076246638673 6.072454000088687,38.301935069465614 6.43355736008561,39.49396346233152 6.420340933419715,39.51753320921016 7.645274309419978,40.115016586745696 7.662568531641222,40.13150574382343 8.45857606941899,41.07248923106708 8.48834397697537,41.05679539876182 8.248751642751808,41.283559114813755 8.25177358053224,41.28871577114514 9.208205964531585,41.56129733856542 9.226039038309313,41.56490235198762 9.9091280480894,40.51943882329979 9.948151095198767,40.463667450970746 12.037446056977565,39.16852092555527 12.04549970319967,39.15536749289785 14.398358611642102,41.861788868843355 14.39461577786605,41.876654537204374 17.440678085420583,42.13921892730177 17.452379902308525,42.13936400553684 17.461707859642406,43.008425629743215 17.469790632975123,43.017140101104815 17.006371013420353,43.307231514195514 17.001972819642464,43.309541115649694 17.257031649865162,44.35445273122059 17.211615201864692,44.463874724727425 15.323726931641062,44.12628710503813 15.332807308533297,44.14741622150359 17.068411760086377,45.357441628193556 17.086252115642488,45.38172240552703 18.86071941519803,44.591722461868265 18.878406853419797,44.60289965546289 19.81495998408827,45.932634181263346 19.848252272086754,45.98325369294798 20.01279132275558,47.57253000972014 20.01270394142084,47.576521300388045 21.90140048897774,48.09887602644921 21.99382809431008,48.145295252149296 23.79084705964378,45.93213233314927 23.811942369865207,45.867549675259575 24.825442046310123,46.97230955200102 24.848889370753383,47.03838450205839 25.61065798942181,46.84509687406571 25.6329620747525,46.81373089866865 28.55718567653275,47.929159371239436 28.567016076531214,47.92687400225877 30.0592489511986,45.50790934284341 30.06399667030964,45.50326967634791 30.166480410755682,44.845122385381906 30.18743008542114,44.78077238011501 29.393628926309244,44.51565670659365 29.39084000541952,44.51533321015776 30.42271160719865,42.03785294599256 30.451991635644294,41.96522273233022 30.014677189420397,41.442285926152906 30.023655621421128,41.426872180757705 31.579968140532216,40.65381916435326 31.60359750942043,40.61064099080576 31.649545527199002,41.67516104952264 31.682830533419107,41.71776167770913 32.35691926586332,41.20521529384314 32.42801854408935,41.195861732807316 34.25275195564208,42.03117922017591 34.268502440974764,42.0255098949001 33.926018586753706,40.593316044156744 33.92122717697529,40.588594093700884 34.394440787642445,38.70039346238372 34.397200581421565,38.68997479211866 35.07439863297513,38.01108834770602 35.08235033430864,38.00675506986335 34.87532211030957,37.300061244856984 34.87527841964219,37.28482577922586 36.18603482853104,36.98543585178158 36.18634066319973,36.98486616546033 36.159216040977114,35.701403008682604 36.153434309420476,35.650666513343815 35.389990881864286,35.27356382446196 35.3497372143076,35.24659021475272 35.49008619919659,34.661362168232515 35.48636521075568,34.62718879052445 37.908524798309735,34.89471439804074 37.917627020531285,34.89072507666023 37.48329810319883,34.390081388281025 37.4607682827529,34.367059622738815 37.77744551653049,34.0331773111382 37.7921911165311,34.024761538599336 37.518105000978174,33.226087474126324 37.51657582764346,33.198388428007085 36.86683007830761,33.05948868593732 36.856380727196296,33.063803506196194 36.74408115030855,31.857802433836692 36.74584334053106,31.849416873594233 38.47648890142045,30.771922510773944 38.51617459031004,30.7612987007993 40.166873512974774,31.275635283525112 40.17446840719676,31.265694545473156 39.841895052530525,30.426515156471936 39.82007884630766,30.394116027657944 38.889074430310934,30.16775296179148 38.86500815475192,30.16204902895733 38.67036623475323,28.997360900089912 38.684995326311395,28.936740607899623 37.138993804531125,28.720878164402162 37.124452094307706,28.69887305374759 37.584580350308165,26.570270399467333 37.623581552085305,26.48562843273575 39.02602282497573,26.268505697008 39.06568666853018,26.214447516821743 37.568174504976554,25.084353073810412 37.56373990230968,25.08257314364782 37.67027959297592,24.359078923614646 37.671408268531735,24.353816798398107 36.92064969786333,23.39595885392227 36.91539225430933,23.392677847951195 36.95665080719809,21.73475762951602 36.96216311297503,21.72634540369799 36.46441719297618,20.622899137025883 36.46203605164082,20.612166052796596 38.56507172808815,19.006392447035246 38.58152854586551,19.017520913108086 38.31239403919789,17.765880918923717 38.31027504186677,17.753146958437352 39.01950563386381,17.8320163299988 39.043142284530404,17.82846297309042 40.70978101875407,16.516803238042115 40.73350505075541,16.494468866341407 39.82168083742035,15.133537603337386 39.80571189875372,15.097425704817937 38.43999991297787,14.252832938442948 38.40438473786526,14.227303808425853 39.551810871197446,13.279209555736811 39.58512500453398,13.245733060532434 39.32421890675214,12.550971128905434 39.27388725875244,12.534264344515755 39.91566674319802,11.936848345397806 39.94197580630898,11.930171622141273 39.630111827642025,11.107413657383944 39.620987760085335,11.084967462715936 39.96620956275328,10.700842714590904 39.96710522142129,10.66318637850963 39.36734887653037,10.799690769239163 39.228842181420255,10.705208812533597 39.946548762753444,8.543520153868661 39.96553235742212,8.507072891088677 41.54655194853149,7.1580505060646775 41.6126268000884,7.089270429477978 42.14058481608699,7.238622280322665 42.1772340036423,7.204098082735794 40.967220990309215,6.3416975107193085 40.94833205875366,6.325971516692147 41.31304718053033,5.520358327575735 41.30111962853007,5.500349609634208 39.78327674142092,5.649497621316181 39.72928235919862,5.658900685454495 38.09361302586512,4.903312468470898 38.03741226497695,4.877975712188704 37.7648917316419,4.196816861990732 37.763231486307994,4.175724530821384 38.11849486052997,3.760480113808075 38.11880797697704,3.744881566595353 36.75563733164344,3.5199563661084485 36.72548348986492,3.5123365738068912 35.53104619919795,1.7426954982151017 35.50818141697564,1.726135607196551 34.26167941519997,3.669922510434475 34.25664042497701,3.6770363599720386 31.58808004097554,3.0837792444570313 31.59506326586597,3.0722250068229133 30.97893020275405,3.8607907473098693 30.979563717420746,3.9145639525991953 29.776730536973986,4.066631944674367 29.764788421419865,4.065114881653057 27.992010494308847,3.4234269748663735 27.982296602752825,3.436823634262322 28.00065396453028,2.823353399745605 27.998928183199673,2.8083591480364647 27.435376837420694,2.3153131450864692 27.423937164531157,2.305005050277754 26.054052720086833,3.7632559313165928 26.02894515030966,3.781214425164575 24.52514881253191,3.919710869122713 24.496291127197395,3.939714123228981 23.95174522141933,3.090860136798068 23.916333936086808,3.060805619605884 23.280256083641504,3.0114187436691227 23.270083440085358,3.0123965946451734 22.82633918408719,3.6578075921704967 22.822567223197616,3.6620107301150657 23.07349000364374,4.009556373073787 23.015883859644596,4.0533829134237696 22.332001136087996,3.585701921339563 22.319105107641732,3.591815655946624 22.420649498755296,4.6531644512175205 22.419069352977743,4.671299808060934 21.789173729865066,5.572508724565336 21.758888816087342,5.562307867351405 21.874479756532306,6.318827407351995 21.875506487199523,6.415440587806001 21.040366675642503,6.124158075814552 21.018783486307434,6.128752486525986 20.54885395741912,4.953008125057744 20.54632718053071,4.9320422982349506 19.111583941420026,5.209434144186156 19.011226480086403,5.229376513895471 18.03516242319783,4.660209606266648 18.026118455197498,4.663074858121758 18.43033722142172,4.0675309447866255 18.425043368975818,4.009016967316342 15.95617117697438,5.438199661534231 15.97139737431025,5.458601819118844 13.996564677420606,5.772399002663218 13.937618686310083,5.83939819242259 12.502343877421294,5.024983445201719 12.502664275643832,5.004298783305052 11.491851575197138,5.499383437238061 11.419616339642738,5.532390486055005 10.30471062586475,5.009748036411833 10.284904190308948,5.015410759668516 10.075596769866019,4.305873144507126 10.095162906752734,4.291051506239813 8.133801498754833,4.691098065884211 8.095084286308333,4.708963628726264 7.615331639197024,5.576867675379976 7.608887265863081,5.64854270947871 9.347411710308,7.1942596573953725 9.37872335475294,7.215924385712782 6.751450650753753,7.82584848863516 6.729517936088445,7.847544409548931 5.48177803208709,7.435632911548959 5.46987232541905,7.438148564157377 5.646251546753405,7.957426416660377 5.647074387640527,7.968768225532035 5.186101445420713,8.773370366935337 5.175914238310719,8.838727313863997 5.964356008977115,10.021720630898557 5.968331859643872,10.031946866997528 4.9729419645318504,9.945489108439137 4.958888133419163,9.957242145311097 4.689120112087761,11.424950128396809 4.644941566307165,11.52106935106603 5.877287792087367,13.387759949003879 5.872459973419968,13.41211505942228 5.196878476530031,14.080823080714977 5.160251134306958,14.120127275864428 3.2375778116420353,13.871846560090848 3.039331411641973,13.891028311728219 2.725727088087655,14.538816130503614 2.717389452532001,14.555382217727669 4.328752211643217,15.941798752236714 4.367884485419558,15.96137694051758 5.0316039663088254,18.184672755563582 5.033635582308119,18.18574878143008 3.9308321831998856,19.21710102201941 3.8637888551998856,19.262016472673345 4.771586245419525,19.97799174704305 4.777644684531327,19.98509567585897 4.570427134308915,21.234392600258065 4.590947184087776,21.287682054819374 3.505838504973866,22.70959242818826 3.4984329369752176,22.71417296816398 3.4605531289755107,24.052993990174215 3.463436712975448,24.172897388709313 2.6584288978647184,24.450818228496424 2.59816490497505,24.467757476128824 2.697823315642376,25.12253747444083 2.71176792008809,25.126802558121923 3.7251438063092737,24.7986389121801 3.7624483538635047,24.791126988364336 2.7699493245327123,26.14264892509418 2.763941857866661,26.143186158883687 3.000337491643217,27.01707287053468 3.0451713974198302,27.04358331422736 2.699279671199105,28.05692718782265 2.6985223663086746,28.160632160566816 2.1331432943104973,28.25286741287891 2.107773580532006,28.272155617813766 2.2636837245303414,28.785897325839684 2.272982554753611,28.79322479838483 1.726135607196551,30.286684205137494" stroke="#009edd" fill="none" stroke-width="2.142857142857143" vector-effect="non-scaling-stroke" stroke-linejoin="round"></polygon>
</svg>