<svg viewBox="0 0 1634.1490358578296 1872.8714857981097" width="1000" xmlns="http://www.w3.org/2000/svg"><polygon points="106.35392856001977,1263.7372325077083 121.36079874679103,1297.8964265603934 121.60517520897679,1298.306377999579 139.73709314675193,1294.5336335742393 140.04700560888864,1294.7643187023712 150.93326338669408,1307.2263208699658 151.97164489780675,1307.4100536752737 152.14291231122456,1325.2644846519468 152.9599277778541,1330.0384141143074 157.28705140457146,1328.4632076417108 159.90645250675857,1327.7413087386883 174.28941997336347,1350.3345038887708 174.83380568002008,1350.5990987564217 192.62814040002536,1345.4859253801767 198.70696848896455,1346.3123545474734 200.7650901600498,1350.2174026801729 202.16843437343027,1355.2902414178022 195.7668778933364,1357.5370023135108 196.41903391117353,1358.3504251093034 211.42036994672503,1354.395910675208 212.16835416013032,1353.858237819433 219.88004809778772,1333.3367455057812 219.67499323559582,1332.4843423345953 235.08643899564754,1321.275402725303 238.5082920089842,1319.0474931287824 262.7333103200433,1325.9559956444207 263.9216964533332,1326.5782195793943 287.9457376978605,1317.1087821699691 289.0968411288702,1317.4355524957425 324.40909428449936,1387.2325832502463 324.7600759734412,1387.380499194878 327.66434022234876,1369.7134483760235 328.0994992622652,1368.4580698411226 353.4476589777985,1384.8744053508633 354.87284852445714,1385.6206951965357 383.879955937831,1352.3229801637715 385.4627231556003,1349.300703661145 390.82793702229515,1363.3135798200162 390.76123593780335,1363.8802796031594 389.5492568445404,1356.7289397675556 389.26293734226033,1355.9602049448074 404.45767739564303,1353.4676085032768 405.58344024010125,1353.030496158033 399.75306640900794,1339.853698886909 399.5424773955963,1338.5449599534984 418.8517131644546,1310.936710313057 419.70105972453143,1310.1758620603139 375.05997542231466,1272.792709852081 373.7760523645918,1271.819799336117 357.19748326225795,1283.9513638409333 354.08612525344483,1286.3128591167986 306.33106150231447,1256.507516739635 304.03963167125016,1255.1544617117395 304.58547373335,1254.1304984743836 308.6830757244968,1247.9526348512516 303.5243730756699,1240.9598493925657 301.15284368894186,1238.0116158312665 318.1039485423605,1230.2904819965258 320.67150338678744,1227.8568331858621 310.4708978045744,1210.105855354435 310.26351277341723,1209.516397419771 353.1584267645155,1204.133830980434 353.33464578676626,1204.1441176892038 389.4633318667545,1150.6860938517273 390.41840984006535,1148.8769749467972 367.34129097787786,1140.8153887873993 366.8708881333948,1140.400222518401 365.393852328976,1126.6666352045502 364.61120685339097,1121.9026064892312 314.42548568009056,1135.3403206146102 313.4226392444468,1135.5259866239865 304.88140518227715,1095.324518824207 304.82577239999205,1095.1728265770141 219.68402263997245,1098.8035674456985 211.4754201867397,1098.5431441048638 211.28172489788972,1077.3672777807585 211.6315415022907,1075.8605193916953 203.18176656901028,1061.9859530979081 202.93214722673997,1060.752536370397 210.45247604451265,1057.807256022388 211.64144472007297,1057.3664227920597 210.94792820452835,1046.8600087986922 210.9086066045345,1045.1856495300087 181.42119312901173,1037.9917122281402 179.81978456010233,1037.5642668704165 166.42946903999086,1047.4678056665941 166.2258705333586,1047.7439543510334 174.84603906676762,1079.044524452336 174.4021418933769,1085.7350361160713 153.20721695115913,1094.4004921554367 152.98468582225155,1094.4685078101827 140.6595487557131,1139.7497341367778 139.08318950233638,1143.0196043298126 113.19967348452315,1165.5320273978648 112.96112244457595,1165.8961510593433 119.65831910234533,1249.6455727595383 119.52404312007252,1252.0910535621003 137.6090664089204,1237.3207226815646 137.62304742224637,1237.1490052124498 137.6836318133644,1255.4272196740274 137.58168692453887,1255.8452988449496 106.35392856001977,1263.7372325077083" stroke="#009edd" stroke-width="6.0192614158088125px" fill="none" stroke-linejoin="round" vector-effect="non-scaling-stroke"></polygon><polygon points="703.658935777821,601.6861960565218 720.259932755587,601.0740249909938 722.495729804599,598.2665372801491 744.5787403645006,635.7960016978684 745.8606245245098,636.3421603239619 722.4802924357134,662.1320350260719 721.7826981245087,662.7538995613938 735.8784722756607,688.693541567867 736.5684935378156,690.1070225507499 737.627555297782,701.7771950756212 737.2480290400342,704.7532520454622 730.2094626399701,709.2183825036989 730.1220813067409,709.8154596249585 743.6227885779006,713.3508221907321 745.2710917956208,715.3011417492305 780.0284734845407,706.5920307516133 780.4857691289869,706.9761910083832 785.6680647377868,691.7585378034053 786.8978113689006,688.5151186466462 777.9132626756107,687.4956844006444 776.8090538934118,687.3522280142422 781.8372670844908,670.6438490409998 782.2109679201164,669.765109750653 808.5835281334364,647.0978004704009 811.1982688978094,648.0878291554179 812.5506406667189,637.2349339364807 812.2649037067092,633.2970171856939 831.9804626756593,626.8290306649067 832.231247102354,626.6958484073182 851.4624222133787,652.5846016153007 853.9845387645544,654.2229481057509 869.5296779644921,718.7158401799168 869.57162100447,719.1551123106399 882.775231742278,742.5961774878449 884.396446746752,743.2653220015125 894.1374265155534,741.8131906621636 894.1164549955645,741.0248227431218 881.0369257511118,713.0442201602052 880.1730156356714,709.9665216722422 890.0905056978588,706.5153779244063 891.1041291644576,706.4024158145546 905.8057472266735,741.4532936630783 905.9685677778687,741.9507850003208 916.3019929867949,743.9084696959251 917.3633849156101,744.6475269852451 908.9907968267578,739.7084795507615 908.4079633333965,739.1096909316618 910.3460813066702,729.2133071826318 910.3355955467339,728.2326086326282 920.6672731289652,726.813994432661 920.7718394578912,726.9197745122726 920.7773736089946,739.0178107969475 921.1035972534225,739.2903137185274 933.248437502283,734.0607084876754 933.5860207200528,734.0723618431728 952.2148471734033,704.331881767466 953.0633199200745,702.262224735088 981.1671956177813,697.900953742246 982.6352020178235,697.37018980072 985.5257765245403,684.1782314834779 985.5216987289966,682.6432200883062 992.0240350133752,697.2258433041641 993.8124396356068,697.3706380816654 1002.126190960036,671.1715392611584 1002.4582400267025,669.2118608624803 973.6229825690168,640.4172320350551 972.3078935022711,639.7500159659319 971.3863117067156,606.863345928992 971.1535860890069,604.8829121676752 974.6103916356585,605.2188158008864 978.1662293600164,605.3313815229701 981.6911923467194,585.5198223028344 982.1365458755533,584.4913878796867 963.609373040126,578.187916957984 961.9033981422906,571.2145978401893 946.2781593868056,575.0145841208066 945.4256088444743,574.5956559049444 930.4219426400739,552.795483554575 928.6606262310886,551.5583067183395 892.7745689867077,550.4238480066194 892.4189269600681,550.5557308153727 897.5502501245135,518.2425218722562 896.8002270133945,514.5599971221889 864.9873049867817,500.33539562553756 863.4342474223592,497.46290486606426 878.7804484533624,475.0640838455654 879.3769716889144,474.1159042862489 872.5082163467084,467.2936472423387 870.1192106933811,466.65282972131513 847.5343400089548,485.1536631498964 845.2551435645216,485.0311640357611 839.0836912622688,480.53858516811283 838.9872805245466,479.9449224893249 843.354599564547,463.56718637535937 843.0758531112003,462.0230021409004 835.0743444178731,461.7048297289655 834.6584092711344,461.9336985063053 827.8112079911878,475.50339518165106 827.6192603289162,476.16393110165495 830.4483766311093,498.87761799534906 830.0225382667047,499.811781321863 793.5149084712391,502.4881686381775 793.0573215555412,502.65956399773836 762.3317145867984,540.3906533804036 761.774804222259,540.92942327381 730.035573786801,546.0779511133221 726.941983315606,546.9818581033976 717.0536203644949,559.4343119049806 713.668467511168,561.333518149251 716.2208762578446,569.1939220584243 722.731950675581,573.200717857784 711.7836521512143,575.171569862963 710.3494332000625,574.6346781600512 703.658935777821,601.6861960565218" stroke="#009edd" stroke-width="4.863994463717397px" fill="none" stroke-linejoin="round" vector-effect="non-scaling-stroke"></polygon><polygon points="1105.1583949067642,1459.5207961405174 1113.7319600622648,1473.2564017998882 1113.2047593511886,1476.968906489528 1151.339138302348,1499.9009791040223 1152.477425804456,1500.141275280948 1183.948978089007,1486.386353487709 1184.3890887377563,1486.4645215699927 1183.3032300356788,1462.5701496032777 1183.501585662343,1462.2373405920005 1232.7135875111924,1471.5138124298317 1233.9444992267306,1469.2021018322337 1266.520260293364,1485.5354362821452 1266.7637629422604,1485.3634657386935 1300.714032382333,1521.5560604260315 1304.5305577511679,1522.6765857031348 1314.784757217836,1487.022864207487 1314.8951489690005,1486.6061173968844 1340.0423316178856,1465.8495199446695 1340.3038930756518,1465.8870441284741 1336.3117312267202,1427.4977998625034 1336.6496057156253,1426.6944621386717 1350.7057669955318,1414.4889976309858 1350.7229519912287,1414.2839068019891 1368.389709964489,1426.47061723387 1370.838426195645,1426.9008817893116 1386.4485188533797,1418.4245597834013 1386.4607522401272,1418.4017723305512 1384.457389537805,1362.999391535275 1383.4192992978276,1360.7205074614392 1352.7266059645697,1348.09884333457 1352.5244638133806,1347.4941115763284 1359.2997211288673,1342.766151443451 1361.1032718489657,1343.1112092594046 1360.0249861957052,1322.0661621630204 1360.0276076356893,1321.5422675903899 1455.3481176445273,1334.7957016337675 1455.7122065333895,1334.6361287785473 1438.339049840091,1314.6103812433792 1437.437857022254,1313.6895106216905 1450.1049463733577,1300.334218157666 1450.694770373382,1299.9975872561115 1439.7313257512649,1268.0506246771909 1439.6701588178764,1266.9426628324215 1413.6803288444423,1261.3866731496307 1413.26235479999,1261.5592659599859 1405.12860902222,1231.127182303673 1405.4507548711042,1226.613613735746 1367.6516289689823,1218.8840298110515 1366.4993604534318,1218.6143570575875 1362.102914302355,1239.030287985435 1361.8675672445459,1241.3157990796387 1358.3513423912007,1222.8758634377516 1358.2721166489425,1222.5145173757116 1342.3649274578563,1205.0967542868236 1342.2667690933229,1204.8494269658474 1334.6541073333717,1205.2801251770359 1334.5399290577986,1205.826211727435 1341.2680004533393,1220.8866638934485 1341.362081022329,1221.4184008752707 1319.8365633690044,1224.1450420543913 1318.2616604711873,1224.3686457029905 1303.0217733955722,1207.9448000300688 1302.503602088989,1206.7314332925378 1258.2848608977872,1212.2235079663003 1257.5438671911613,1212.264653285012 1253.952203120083,1203.545698786598 1252.2645783022524,1203.0756391495013 1223.6276764711145,1244.0913819683262 1222.5779353866599,1250.9092310727353 1250.3541310844955,1250.9771983346216 1251.3365885423043,1249.981386416686 1266.748034302356,1292.4002317398915 1267.054451511103,1292.7024500220793 1310.203936453421,1307.1369131232857 1311.871754835687,1307.4301703965536 1281.2926572356153,1334.3947578531004 1279.295119955648,1335.3334210755781 1222.6691032445303,1329.5006817310712 1222.6160919023457,1329.4608993163345 1221.608293857869,1350.8981084520708 1219.290358355596,1354.2859627168289 1193.0162477778283,1352.1884490698355 1192.6107983912586,1351.4782486754482 1194.617947617873,1363.936591962505 1195.4565171466454,1365.9463974453754 1176.8652646667103,1354.3141201260512 1175.5402723822988,1355.041295144452 1173.203695529002,1391.154779964803 1173.255250515627,1391.5538328618056 1131.6655223733758,1398.5914340723318 1129.019033057826,1398.7509605532175 1148.7310967733863,1420.3235059041542 1147.509797004495,1424.6780625988974 1105.1583949067642,1459.5207961405174" stroke="#009edd" stroke-width="5.0983877115400675px" fill="none" stroke-linejoin="round" vector-effect="non-scaling-stroke"></polygon><polygon points="1096.1887010400894,541.6157810056245 1100.789328240069,558.2604201847932 1101.3940070667084,559.8640345487872 1125.0149290933985,550.3453462971736 1125.8162159200072,550.8930633530615 1128.6290210401419,573.131194990048 1129.028062462319,573.6806493118418 1160.244752524515,596.6712762651512 1160.3886404534348,596.8286950030376 1160.4961194933637,609.3097130530293 1160.5054401688756,609.5415671476874 1186.8043087912736,622.548324123876 1187.8924976623164,622.5644677372545 1199.758300186695,618.6191127060226 1200.5511401511974,618.4760597420752 1194.5436734845641,608.3024678565341 1197.0133612355928,606.4341637704999 1210.1994957066852,607.0696400848462 1211.0846686133661,605.9175295888342 1210.3856179467182,590.747136898957 1210.6151395822887,590.50046247556 1228.2248084178207,591.542323652691 1228.5775377334573,591.3440878562176 1260.1690937157034,557.8522255664936 1260.6345449511207,557.3955849728443 1254.8699983911135,550.4839578680474 1254.8434927200212,549.0372793942004 1265.4116824444861,537.685120284186 1265.870434444492,537.4222363316001 1268.1202125067136,518.3910239495815 1268.9401406845789,517.0132258918381 1307.611332293345,498.42893102588255 1309.242159244466,498.03363704545313 1334.5233266044886,467.75989915015066 1336.507174142265,465.56146111930843 1372.764893324558,479.9722947267362 1374.0738656978135,480.3344156450837 1388.6662570934056,529.3341391100328 1388.6444117601275,529.9945129866608 1399.3136725600123,516.897922959273 1399.8845639378776,515.8530154117395 1469.702249271191,554.9553676582652 1470.6695606312494,555.3456248236832 1472.8092382134416,569.7016718630691 1472.8205977866671,571.9663472781901 1446.1786117956287,608.5343230152864 1446.1541450223665,608.6805216934661 1449.7327018934081,626.9832888016606 1449.9016391378607,627.4653447801027 1473.3049816445925,651.7380729667855 1474.1522893067229,652.3232003736555 1501.6310972000717,651.6277729131759 1502.6811295556615,651.0838941956533 1508.7995705156134,638.1783733258269 1509.1587077956426,637.1506340218255 1551.5511791200622,620.1003107987124 1551.8893448801025,620.0056902082649 1567.3983664623008,599.6792552338227 1568.3473277423543,598.7858803657944 1544.3285293779115,581.7612814950769 1543.004119635654,579.9627207002848 1531.874359208952,544.3486298456335 1531.2356016622869,542.9041539048555 1493.2119057334273,528.3108248492715 1492.491883546674,527.9617932908948 1476.6071222312528,509.12044324985595 1475.1825152267481,508.0992780491722 1521.0795605600358,470.1755079416105 1522.4121258934972,468.8364481334354 1511.9758819822234,441.0459708683554 1509.9626160622354,440.3776994927682 1535.6337954400585,416.4810595280503 1536.6861579644972,416.213990597789 1524.211598817819,383.30367200749583 1523.8466361155513,382.40582422077546 1537.3421005067428,361.7484739799763 1537.2322912978486,360.7522137219564 1484.6770796356502,376.4314514450159 1484.0089037067735,376.9544624750049 1438.6250780711196,351.19884027980856 1438.4252660890122,349.9205657281925 1405.6770725245367,346.59800481759135 1405.104433520093,346.18896714962443 1379.281793164533,306.88411707289174 1379.202276151256,306.8212459413696 1385.4258659822879,284.4514511665109 1385.5604332355795,283.285518537137 1377.0363841689903,279.3821142102022 1376.8578349777742,278.9783407710272 1381.1776768266934,257.5197891593923 1381.0748581244623,257.282172507759 1341.3658675467375,255.4661259632337 1340.1859282755538,254.9329429805291 1324.0608682933741,212.0436247272662 1324.2012609690207,211.09700285478152 1316.9503579289665,210.97120562036412 1315.2449655734015,210.81306042345363 1306.4121691289836,188.3835911736603 1306.381294391096,188.29687195874408 1296.6706068177953,216.66390745904187 1296.7795422134002,217.8414260204661 1323.2365710489464,257.83556287430815 1323.6487196711603,258.02871015712276 1310.374621324452,288.16658496924333 1309.863731795667,289.0971550470929 1312.193609413436,334.8092423253472 1312.186618906773,334.9933413738397 1299.6753596000851,368.83261143134564 1299.643319777773,368.89142421374686 1316.1234392445547,383.77997876620043 1316.7313220534486,384.2845665131824 1312.3695371645515,403.2511061521725 1312.375945128944,403.35120684796834 1187.0513066934434,438.7575032198581 1185.88651352001,438.40025057548314 1179.1692191556574,429.71964034645475 1179.1435872978543,429.5001633535501 1191.4783363112726,385.7924868562038 1193.9200620356494,381.15197363586753 1188.7054353334022,374.93648600052234 1187.0326653423033,373.6610434618558 1191.8057250400086,357.191410566076 1191.6332925422828,354.5796991216264 1166.5091203112167,342.7446691040893 1161.426439422277,340.9836604656664 1163.1507644001174,332.063004998992 1163.240767173447,331.2269134896703 1151.441957004579,323.37234716254875 1151.3985576090415,323.30229602554004 1163.298730124581,310.07345610784955 1162.9623119911191,308.64405236146536 1149.0331449155708,316.03661425176665 1148.021560346802,316.1376528863109 1147.3096937511361,299.38930209141813 1147.239497413371,299.0345169141435 1132.8122567379394,304.0284022741032 1130.3344133957069,304.99303536743514 1125.032696631133,310.4493298151426 1124.4099589956238,311.05153473429505 1130.7209301601176,318.97434968213906 1130.2636345156714,319.99774292149937 1101.3249758134841,330.8654443688936 1100.6005845600519,331.3530907691236 1106.0205573956262,336.99686785377685 1106.3383341778315,337.49527702140745 1100.2863030312362,341.21310425885144 1100.245816346818,341.7106058271381 1107.5005059111643,377.8734324825707 1104.947805893469,379.3212401438866 1122.9646717422654,394.62207490180276 1123.9086814133695,399.05177346905816 1100.8044743378193,406.1127111696767 1099.5936603289808,406.0673746596801 1101.3608021600883,429.020814065683 1101.3456560622215,429.6366071540758 1114.417320986722,455.96373539863976 1115.2352102667571,457.0304692855932 1108.7724868533912,473.4944024464128 1108.6731634044334,473.72864377973724 1113.0334919377708,483.8290537151986 1113.2449547644717,483.86539981244255 1120.0455526667427,474.6831073168212 1120.8587816089637,474.45873920471763 1165.8837612356072,470.487834388892 1166.1220210045356,470.6422024687415 1160.2028094844206,480.9231413143932 1160.540392702307,481.9740486051667 1173.137868257916,482.4707822804701 1174.4110142845673,483.30225898684125 1176.652636755585,494.6926789975621 1176.5882658400585,495.3814248478518 1161.0011836000265,504.99223255619995 1160.3522315645603,506.6451413688262 1176.2183515289578,524.8002957748029 1176.205244328921,525.2350212080999 1151.2272901956237,538.3993017190148 1150.59930968003,538.444610889979 1126.6440084178246,526.9021336673538 1125.8188373601076,526.8213803955366 1096.1887010400894,541.6157810056245" stroke="#009edd" stroke-width="5.219596587050125px" fill="none" stroke-linejoin="round" vector-effect="non-scaling-stroke"></polygon><polygon points="435.4058154934098,1399.456986727171 452.11749549347564,1410.5060012434622 453.1628675111349,1411.1239646851097 446.893256844465,1430.7513323360834 446.95442377785344,1431.5559956099385 463.70717300449155,1436.931660560054 464.31039547568776,1437.2318932948763 480.3425399734185,1436.2655177172053 483.46176230230026,1434.85861383289 498.83912934232626,1414.7548558286287 499.73624436450314,1415.0886302874785 484.8418048267265,1457.097722774757 483.70788639118086,1458.4137980119337 483.18185076452914,1496.5135790627462 483.058060542309,1497.7865400969529 473.7519485422888,1528.5327894255531 473.62786704893347,1529.426412853623 458.3789505689417,1528.0741417098104 454.00231085342944,1528.2058857961454 463.3923089334055,1566.383786604834 463.8959166845086,1568.8619173471595 514.9414701778221,1613.4786804658722 514.7917568267801,1614.073307200313 531.4888732711331,1614.8750686336205 531.9243235823012,1614.962565807138 534.0669138756127,1605.170255646204 534.0625448089338,1604.5639975577722 564.8685426044756,1611.9496966931981 565.553612257914,1612.4032591184148 576.155589431153,1592.6831450614625 576.5112314579089,1591.3169755821943 571.665353982338,1578.3182972819557 571.2741768801131,1576.5149234296766 601.7868646667118,1566.5052379866609 602.3012494490029,1566.2051815098164 620.2852016623144,1545.507441901347 620.5048200801027,1545.513247114817 618.945063280036,1537.232177622245 619.1387585690024,1536.828476453469 627.1239560800384,1537.7493070203125 627.5477555467294,1537.415718506243 634.7261320800533,1513.8203056558048 634.9856546399894,1513.4388925521414 644.5507066579082,1513.6814070493926 647.1843800445565,1513.118665817812 639.5329792266491,1494.4290336408665 639.5265712622565,1493.3369508614776 643.6908743377787,1461.0526257726958 643.5903858045128,1460.444630510501 651.6711202400982,1453.2178014060262 652.8003783378297,1452.1818039236603 645.2468446134369,1445.5819521373267 644.2119583555975,1443.5402602143365 691.138064524486,1422.2121591229004 692.9585089689133,1423.3063820677123 693.2177402578307,1360.2056435430202 693.7324163111405,1358.332547717531 728.6127144088748,1336.1804494508904 728.9602008445434,1335.5318807869114 726.1016661601386,1323.0884682015528 725.5435907111748,1322.5855854137696 642.456176097832,1275.2678892652982 640.9500131823368,1274.9164655609418 629.3116933955823,1245.1104731294106 628.4935128445284,1244.870345448762 599.3771787645308,1263.0106498832827 597.6321735378367,1262.741925486225 609.6042900178361,1270.7623802232335 609.7545859111485,1270.7637215614448 608.2408499467199,1279.9883583431144 601.5797709068063,1278.2898416879832 593.2188336623146,1341.3063542292 592.5014329156618,1343.5402959441196 583.0287138400379,1345.0152750404447 581.8222688978783,1344.7319010359713 588.7475308356586,1371.4255604221032 593.844484008943,1373.502333113145 590.6303072977823,1393.6871672046616 588.6840337334213,1395.690891811835 550.2272176622425,1375.3185434759723 549.2811690934248,1371.6382886313147 535.7035662489723,1381.2166547440354 534.913056453435,1380.102559308965 536.0207604889072,1396.051059822297 518.1562294311368,1380.275059011277 526.8471768445813,1355.9548416691612 527.0388332356013,1355.915510977189 519.6819075111778,1325.084789778433 519.7424919022958,1324.4455754814915 474.8322730933794,1348.8564317726775 474.488281911217,1349.414676687076 466.8706685423165,1374.3232942307147 466.74658704896115,1375.0839206871822 473.2821282400762,1402.5764334869816 473.3162069601019,1404.5385209496378 435.4058154934098,1399.456986727171" stroke="#009edd" stroke-width="5.142722401758608px" fill="none" stroke-linejoin="round" vector-effect="non-scaling-stroke"></polygon><polygon points="8.05255000000011,1150.4744939176378 71.42673581347458,1188.0765864786588 71.41333734230261,1189.7239157767979 87.36887753787573,1184.5815059345111 87.72626719121013,1184.6893023125956 115.8167444178614,1208.4881965275633 116.47822111121036,1208.3951707203303 120.74621670225292,1255.0654799426918 120.78582957338199,1255.1960461442138 138.42695568895556,1238.2598002193042 138.59793183112174,1238.4426962827345 135.52968194671098,1259.3687580413896 135.5119144089765,1259.420625800885 107.2003624089773,1261.688934044483 106.99851152892347,1261.860185225181 97.32423284449737,1285.6610138437024 96.87509279113851,1286.3495197674854 83.65051053345792,1288.7892276322016 83.41399839110795,1289.2291500851059 86.78458768895484,1302.3633807689546 87.05022694226477,1303.771579114116 72.81959426680237,1307.5124254150794 71.25808984004084,1308.3054695061653 69.64910822231445,1324.3767369079649 69.65056457787409,1324.5054739630211 53.75590004455421,1341.600906865882 53.63910032888066,1341.9258529440046 69.66425432006486,1364.3745764873818 69.66046779565636,1364.6999358556711 119.03266875560053,1395.4576313217765 119.30908504009835,1395.4451192578197 128.50917435563292,1415.5515348571132 129.79513631118584,1416.4112121889264 114.60709549333092,1440.2033710885805 112.87432365338441,1443.5612580176455 181.67663789340418,1471.0376243676071 181.90528571568552,1471.0845284907625 196.34942011556245,1518.7656642053987 195.82076304892666,1519.7084540805442 221.1415432800784,1523.240195703496 221.7867087911361,1523.528699154827 244.81809808893718,1543.6077891819657 245.50986697778694,1544.2673554650753 266.45954164452974,1570.241174790404 266.5472142488941,1570.3010064166517 261.85658427558496,1579.867606424588 262.3572793155688,1580.638685038815 277.3501684888977,1581.9066949548212 278.54088479115285,1581.2789416626108 268.95719142221037,1590.3494903046883 269.07806893342763,1590.5557565579436 307.3353642934014,1601.4590192547546 308.0486872445106,1601.6032197916427 335.3722476357141,1559.7846786441294 336.93316952008877,1557.553823750968 420.5049679912406,1505.747962734349 420.82711384012487,1505.2218254280522 436.5866285778827,1514.4357460151439 436.81440258675843,1514.746145253397 436.80712080896024,1531.1560394989572 437.16072393788613,1532.5283878689877 454.39436176894355,1534.135627817224 455.0401098222717,1533.655555985846 463.3923089334055,1566.383786604834 463.8959166845086,1568.8619173471595 514.9414701778221,1613.4786804658722 514.7917568267801,1614.073307200313 531.4888732711331,1614.8750686336205 531.9243235823012,1614.962565807138 534.0669138756127,1605.170255646204 534.0625448089338,1604.5639975577722 636.6342491289613,1624.5758828042087 637.1023218044791,1624.5816859336117 637.4754400978343,1659.3441509018664 637.798751031143,1659.6927297563304 619.2619662489521,1671.2963862799586 619.0860384978366,1671.3887703381258 629.2883917067445,1713.1852349609615 627.4717337867257,1717.562114701235 551.9562029777805,1704.0586099136633 552.3194180534699,1704.9037745722815 570.66542025793,1728.281510779612 570.7370729511383,1728.779898249464 602.2782390311838,1732.7174319483236 603.9125612356945,1733.1979624039739 621.7435961155932,1753.30479083988 622.4572103378375,1754.2760219332192 641.2817709778681,1733.1729766308342 642.3425803645293,1731.5747736097326 693.4359023200593,1722.6760241868685 694.1433998489299,1723.1231119306537 713.4130227467756,1743.2420136865474 717.2330433690001,1744.1704585262703 714.099257484522,1751.573338845257 712.927182533407,1752.0855038516236 718.5926969157078,1766.050464197622 719.9972062133963,1770.1506044013438 731.6055250756688,1776.3124929626717 732.9372165956081,1778.3372734300572 730.5656872089965,1785.1394895353367 726.5097369866924,1786.6378312980303 742.9921866223228,1831.7706569251966 743.8397855555884,1833.3788366927545 739.5187786223612,1841.9083261009434 739.5152833689715,1842.0679777276598 769.4398947822408,1842.2615217233904 772.3528971645062,1841.9310697754624 815.0631452712475,1862.9621667701065 818.7602494845412,1864.8189357981098 888.6198778578325,1797.7535228734848 888.9018282934337,1797.4586877318577 890.6410080978892,1776.2924190381088 891.4848205067462,1773.709112722521 909.2220660889068,1778.874356820808 910.0644221423206,1779.6166360297718 932.0248075645429,1817.8995077921788 932.9627005422733,1820.5425057944738 963.4334452890105,1812.8110006747663 964.325608702238,1811.556361658884 1000.0031158311538,1830.0465110610019 1000.9940201511852,1830.474649937394 1032.3138201867475,1837.1352241909842 1037.1037736090145,1838.5373308129854 1038.1762338400365,1830.478217757867 1038.729357680051,1830.4371878190211 1081.294552773448,1856.1735005617154 1081.6877687733866,1856.0820858024888 1076.8733485778573,1843.2484150771995 1077.5121061245225,1841.8307300171361 1102.222090835661,1824.4070416626998 1103.0356110489008,1823.7781950878923 1124.1714079556766,1776.618954651385 1124.197913626769,1776.3414886283351 1141.377083760082,1759.3234994258744 1141.5669925245236,1759.1379127660546 1137.9194044000249,1748.8724071738905 1137.9202782134305,1748.6970730021492 1145.6663421423652,1732.8120211274143 1146.5043291289837,1730.2380209167384 1114.7522827645078,1719.633393975884 1114.6407259289188,1719.6204541184486 1130.9542383200967,1675.9490135089507 1133.9572434756917,1676.0909338308045 1131.3113367022959,1667.675525499253 1131.5699854489428,1665.2788426443365 1136.8201472267754,1665.1927043951362 1138.1562078133936,1665.5194047265466 1155.915590000084,1620.5212435518404 1157.0867911379098,1617.6160350053467 1135.9882769334142,1607.2104491777498 1134.955429573405,1606.4541958370025 1139.5942132889538,1596.6985627582542 1139.953350568983,1596.0820129424462 1202.2058513334266,1565.1598922862684 1203.1510260889552,1563.4327653443686 1204.9889468000981,1606.0135676930438 1206.3203470489022,1607.7175928205031 1233.2838963466709,1587.2157374658634 1236.127867475712,1586.8415950244305 1309.1172039378214,1620.2542945191742 1309.7472233511287,1620.0275215081417 1315.6303172533878,1607.0233950217732 1315.9349868356728,1606.5140176244674 1297.4156783200813,1578.7915744299896 1296.9717811466905,1578.6169977890456 1296.0478691822861,1562.7397674784077 1295.8562127911498,1562.5508894601733 1314.784757217836,1487.022864207487 1314.8951489690005,1486.6061173968844 1341.9830710311433,1459.450659620379 1342.3011390844838,1459.2773285066721 1334.0200101245207,1431.0095755064174 1334.0182624978258,1430.4001568811725 1350.7057669955318,1414.4889976309858 1350.7229519912287,1414.2839068019891 1368.389709964489,1426.47061723387 1370.838426195645,1426.9008817893116 1386.4485188533797,1418.4245597834013 1386.4607522401272,1418.4017723305512 1385.3757673512225,1367.0632460594422 1385.144498088957,1365.0337862458907 1354.6067609867093,1349.9496786906163 1352.996614284442,1348.8707343022468 1361.1032718489657,1343.1112092594046 1361.3860960978561,1341.948648317986 1358.6105736800016,1325.4616124414385 1358.4617341423652,1324.094677333116 1455.3481176445273,1334.7957016337675 1455.7122065333895,1334.6361287785473 1438.339049840091,1314.6103812433792 1437.437857022254,1313.6895106216905 1450.1049463733577,1300.334218157666 1450.694770373382,1299.9975872561115 1439.7313257512649,1268.0506246771909 1439.6701588178764,1266.9426628324215 1413.6803288444423,1261.3866731496307 1413.26235479999,1261.5592659599859 1405.4370651290299,1233.0648624558014 1405.12860902222,1231.127182303673 1408.7703717244801,1213.3192230656057 1408.8408593333804,1212.9838006559073 1440.7539786222403,1206.6124666393514 1441.0015590666806,1206.5225707423303 1428.74953104891,1196.100659008698 1428.8759427112307,1195.1171220500034 1478.066681768956,1169.8840261430958 1479.6541093245394,1169.4590737441101 1545.682066231129,1190.0325370531425 1545.9858620000084,1189.6349075310643 1547.3495933422598,1178.337724302757 1547.3073590311467,1177.2051560493198 1532.682927813359,1156.0677319710155 1531.8102795644443,1154.7717668184557 1494.5701029245754,1145.7172441837972 1493.6074519022147,1145.4890868704313 1499.7174460000604,1130.9585572803405 1499.732883368946,1129.9161196136627 1483.9841456622596,1121.9634549899272 1483.5740359378758,1121.3048585576832 1488.6436096267787,1116.1120787275502 1489.246249555588,1116.3689018432995 1485.8217751022673,1098.9015617157345 1486.4069387645939,1096.476750028123 1448.1825570399885,1103.0047529026995 1445.9502552444826,1103.8432800413354 1424.566877893383,1087.8422522882245 1423.9852094844462,1086.9620478620416 1421.7319361689513,1063.4798280962057 1421.7700926845207,1063.1468622293103 1442.9088023022994,1028.64322539603 1443.2166758667224,1028.4252414753207 1442.3903397244646,1001.8179416908313 1443.9503877955501,998.4322630215681 1474.3975395823143,990.5818360837072 1478.176199706715,990.0620756338246 1495.9571359556646,999.2317946468609 1497.311837893423,999.2984967618029 1500.0480387111672,989.747353592458 1501.634592453345,987.5850263850077 1495.429352702318,968.7777023026499 1493.9997940889805,966.2780265017425 1441.7341059112002,942.3812486645545 1441.556721804525,942.3100514580508 1445.818309431175,913.3702826567239 1445.8634564534075,913.1597976480623 1415.8331136266713,874.8454798690288 1415.6228158845113,874.7142396301858 1417.2731580000616,808.3974308927789 1417.493650231139,808.0609418600577 1409.5163170400554,773.3379685365142 1409.6307865867636,772.6021446939337 1397.583813431185,763.9230911931734 1397.4885677777709,763.4937678240019 1438.4471114222904,737.4159529043607 1439.011886106782,736.9399648989563 1473.616350462289,696.0491020199622 1474.2466611467314,695.3663650426677 1481.6099948356639,699.2628235935479 1482.2682675467584,699.7079622364615 1486.0032370044862,678.7110493539146 1485.9499343911664,678.2842492508714 1471.5028872800538,649.6423624690867 1471.4181273868087,649.1330040496321 1499.7873510666902,652.2877789120901 1500.732817093354,652.1456446357549 1508.7995705156134,638.1783733258269 1509.1587077956426,637.1506340218255 1551.5511791200622,620.1003107987124 1551.8893448801025,620.0056902082649 1567.3983664623008,599.6792552338227 1568.3473277423543,598.7858803657944 1544.3285293779115,581.7612814950769 1543.004119635654,579.9627207002848 1531.874359208952,544.3486298456335 1531.2356016622869,542.9041539048555 1493.2119057334273,528.3108248492715 1492.491883546674,527.9617932908948 1476.6071222312528,509.12044324985595 1475.1825152267481,508.0992780491722 1521.0795605600358,470.1755079416105 1522.4121258934972,468.8364481334354 1511.9758819822234,441.0459708683554 1509.9626160622354,440.3776994927682 1535.6337954400585,416.4810595280503 1536.6861579644972,416.213990597789 1524.211598817819,383.30367200749583 1523.8466361155513,382.40582422077546 1537.6555082222692,367.0408342957742 1537.6913345689898,365.5345808525233 1513.701080773353,370.9947564817046 1508.1608129689482,367.2154782134819 1536.8690762222757,280.7479318668845 1537.6284200090229,279.29004135568516 1559.4621024979058,251.60624716562575 1560.415724115657,250.41453572180012 1576.5608818045364,252.24904096153455 1577.6732461778226,252.65241444260005 1600.8692036533973,225.32914595472516 1603.512197715674,222.57794289125718 1624.6305183556176,228.55201692504465 1626.0964858578297,227.17104902156984 1611.157190568956,201.51778616736533 1610.2592017334898,200.5046228266799 1577.6959653245065,192.6750261409104 1576.9404080622842,192.04598637982394 1579.2528094133374,178.6595922650083 1580.1330307111855,176.54452830725472 1595.1320365778881,166.66856754021842 1595.5535058756138,166.3886118518201 1591.5290129333514,159.8214588151675 1591.0519108533406,159.02111009750638 1542.9429527022655,148.3430730902835 1542.1623461245106,148.33273678957607 1530.3381953689748,164.9870305647853 1528.1784200800828,165.36315313031787 1495.0163302666986,134.5958117281914 1494.942347404525,134.26053478194058 1462.7516467467428,135.139624450974 1460.503616311216,134.1261541996862 1449.6027949778143,106.87980019176734 1449.5363851644577,106.03610694499343 1463.7469201333367,89.42633026446106 1463.7594447912195,88.8023883759522 1455.1177221956675,93.10161760703318 1454.9115022489348,93.09622339483008 1425.884879671248,73.38488522111561 1425.586618053472,72.87103967599228 1409.2326189778757,79.80538035647601 1408.026465306735,79.50058866441373 1403.0361173600902,65.35562989177538 1402.9790282222455,64.48210469095625 1376.903564542277,49.66446466212051 1373.8731799023005,49.9193915733847 1373.9331817511481,30.105245816906745 1373.7211363822933,29.10702730969183 1359.0693256800075,23.967029280414636 1357.5104426933465,24.162181438856123 1360.248973680056,8.714945640742144 1359.3343823911634,8.05255000000011 1345.5109467289656,42.13252195306245 1345.6883308356407,43.13922389216145 1318.7477919555747,60.849047691539226 1318.1198114400975,60.90794316851657 1309.474302320137,85.80402612951707 1309.2727427112184,86.08858011101961 1292.8237892534596,73.31295590851346 1292.7835938400601,73.08008459702955 1228.391415493308,80.55162371250458 1227.4782805600914,80.7957256561856 1207.9272897690314,73.43298793576082 1207.4260121866607,74.01696304008487 1202.5303273511597,62.35829549041932 1202.8096563467768,61.896125985054596 1178.1643338223,93.43875560453284 1178.189674408968,95.58968381610589 1130.0763471910975,101.67240349911276 1129.5986625689327,101.61172097826034 1058.687545484492,75.94420470679302 1058.298989822251,76.48007108263096 1059.0332842933492,51.941261701962276 1058.964253040125,51.34149163359666 1036.4221992089658,31.619651515596843 1035.9646122933843,31.207327723248227 1037.972344062269,44.009237250116485 1037.6350521156344,44.53169322372537 1024.9566031911888,40.87537449177012 1024.6478558133601,41.114125154774 1024.6589241155668,49.86588841907337 1024.2159007555817,50.9381970437023 1003.0687442756969,58.662260912569536 1002.9831105689298,58.81017542698078 1005.339493857791,77.6273242188397 1004.9389960800543,78.90538950623136 981.1692345156114,89.53736296480179 980.1649317245244,90.25570271872107 965.620600062284,83.17604250819545 965.4807899290242,82.92160382981069 948.127439671174,92.38283766431391 947.530333893468,92.66873165753327 935.3418029778184,82.65412822218036 934.3966282222898,82.7197609225766 920.0130782134145,95.79556047704659 918.8587708000339,96.59569064129732 897.0769345689112,62.641531184060796 895.6604831556103,61.439350496373436 881.3657708356402,62.1667740043265 880.218453929039,68.00360831825651 870.2173690577981,59.463875458902976 869.8104633155524,59.50298949794501 852.0606930756255,85.31942939895794 851.9098146400427,85.48755491674069 861.9467258578877,99.38938063508954 859.6424800979219,101.14244224908884 848.8048645956221,101.71600500375621 846.5140173068282,100.27715076957952 839.8220635289106,87.25241553426144 838.8416449689319,85.84358499901259 843.2873159379012,81.88002050566843 842.2166033334577,80.62894516791107 832.2871711556579,82.4352025657206 831.7713300178073,82.67975195000304 829.2806707467896,97.189493217076 828.0089810756979,99.20823013547465 836.2094279378432,103.57692711413961 837.6194713867515,104.6795384830109 833.3890497690079,109.95878101731773 831.2968493778969,113.58248375604285 835.8331056623499,125.1337037608389 835.7698998312478,125.85911803457543 821.8465581778216,135.06007507080335 821.6117936622829,135.26501578812145 810.5740749067406,161.9074746947515 809.3626783556317,161.49944040619425 817.2360277600599,173.6138705797273 820.2090319911729,173.87764036705607 818.6090797778231,187.0544918753219 819.9559173956293,190.5331383623195 813.9863159734302,191.76022200621787 814.0273852001189,195.6247492243781 780.6217927378382,183.97344874472014 779.7584651644354,184.1572251731775 781.2011309778097,165.9082376142976 781.2861821423064,163.90539373536717 760.9612840089028,137.12745071444783 760.8602129333665,136.28881764153607 739.7060659467022,127.94186165629776 738.999150960102,127.49151609393425 735.5172960978014,128.50726425540756 733.4384941778624,129.1531158368814 742.2063371644833,130.88032125667792 742.6295540889039,131.03178254506906 739.4602331289568,138.34269894727163 738.7492403468129,139.19480685439316 730.4587907111052,131.99537950693752 729.4533228355938,132.04751429640578 731.9267971111474,145.6614608271991 731.0110407378304,146.2632198115823 703.4704833689391,147.3844914795843 699.4561849155941,148.18218626795692 680.4626870312275,125.34944059872191 680.4463758489362,124.825379494672 660.4136226400512,125.41550996280398 660.0518639200379,125.53012003700837 661.8819203112287,109.41670373551437 662.0354201867956,106.67977731311817 676.2206145690068,101.7083635036031 676.0088604711707,99.36780440479174 658.4338528978185,102.30305122145342 656.0827124889254,102.06122073424172 654.4562546045997,111.6097262014298 653.1557290934504,113.74249703271903 632.9534560978425,111.77198831571854 631.0031047378213,112.92669778606046 632.5180057867908,130.47852136704728 632.9359798311268,135.26501578812145 620.5033637244267,125.06403869493056 619.9409192089004,123.65994580553502 592.3537584623334,141.9825607843593 588.8628741956561,147.61818264783483 577.4715523111879,143.26339666147373 575.2179877244414,143.2072198062449 577.2539727911133,156.5351121735073 577.863020684548,157.3511984768918 554.5185149423558,149.420292709641 553.0528387111624,147.84243605394272 537.1698250222032,163.18190288902383 535.0930620000943,164.30173988207366 498.8697128089623,169.9030858186668 496.5118731645414,172.58305340904167 466.5796887023387,145.8475164327317 466.3656044356537,144.66286982983706 444.19841652442824,148.56777515842236 443.9176311733679,148.63024229239795 439.1008808089898,140.0064635202068 439.11369673789136,139.17907704434015 398.68118872002356,158.9824632016605 395.7917792978476,160.30274515433825 380.1979978222878,143.9015647253616 380.1688707112114,143.1357628257026 351.19555074672803,139.39704716861138 350.40329332449596,139.62355609887868 352.19373684455763,135.80298425918568 356.19463682673063,129.57379475763423 339.22052155560937,121.68368330415228 338.75710921790574,121.3708595867281 342.0309965067788,111.24205149242312 342.8136419822474,110.64918596173061 264.35918566233136,126.6510483475065 262.81049716447137,127.36567086118862 243.62039128001902,162.0818327273371 243.3626163466613,164.94883409128647 277.9469829955849,182.70273611878633 281.4410712445167,183.37538795624982 290.3332869956282,204.37169160796452 290.2957130223292,208.2000539459766 304.9941271022906,211.84549490616314 306.27368109345093,212.37788415558293 312.9035941244581,226.77751200795296 314.1560599022557,227.64410114064935 256.9323548711616,242.64961116537575 256.6734148533794,242.86613078093046 218.1431984622975,237.3906344090717 216.4817880445405,237.39557584902627 209.0651517422882,252.04106525754446 208.18784315567586,252.9089020940953 158.27824699562166,236.43244217409642 157.80201872890007,236.53306827843312 164.85718758227426,257.30418237855315 164.89010121775914,257.75785473341944 158.2689263201098,280.25253762651823 157.72978349342134,283.8195308230131 146.45118352896657,289.9419403895515 146.04369524456683,292.5562182666979 161.58650427565567,299.7422903182812 161.99836162673432,300.1550073844626 177.58136607122265,339.87595094808034 177.74040009789292,340.28500039203914 137.92480429341208,336.82669004970353 137.36265104890458,337.2968115245819 136.5546649867681,376.0646695751709 136.79379856898572,376.33268527346786 126.57193019564852,396.00513084801037 124.80478836442467,399.84989975477924 156.43042306681286,458.01462430399965 156.40741264899384,458.18695195145096 174.09863739563275,474.51752367229324 173.90552464893676,475.49172808902927 146.88226477333933,502.2400489407371 145.4171710844164,503.8122167467152 125.5766568089382,500.22322471449274 124.6489583201253,500.22457076572005 119.6536587645312,487.3362000038394 119.59453072897281,487.12844712238416 68.51023817781947,493.88098811577197 60.580382177817,494.6482581812668 59.08907408893697,510.43458075213834 59.14179416010279,511.2264693010145 48.036209235644264,520.5597709322826 47.70270381341811,521.2224144212448 52.99393481782295,534.2079386444309 53.867748151162004,536.6932476139989 77.98353979559738,544.1875847070257 79.62135725338135,543.2145824557881 112.15721417786676,576.6790758016066 113.72250512892037,577.4622033328412 120.11823618677568,591.5611605290685 120.9838939289109,592.1087747268391 118.36711426670786,612.8386224678031 118.57857709340874,614.4804048019939 124.92362697792828,615.8351686845779 126.08172091560095,616.5863168530993 124.92566587564193,646.5346299868322 124.88459664895322,648.2550754081237 140.27128436449107,666.3940359346814 140.35254900446284,666.4370769693412 118.02661833781872,674.1327679847379 117.75690128896508,673.9843712507061 104.68319746675093,704.7335283484206 104.83028937780887,709.1749015988678 96.24041304013349,707.6911665929144 93.5586799201335,709.4877846190718 129.87057552891906,738.1267955938599 130.11291309339117,738.4109527464968 115.43634434670798,770.3498451848061 114.78826612453099,773.1107686240937 121.82421108449466,788.3828297224607 122.6450130756491,790.514407904913 114.48097510226194,791.0512200026785 113.75804020450573,790.9701157548477 100.15771821336944,833.6214391451574 100.00159689781844,834.3158424497594 79.24066591109272,847.3908228396683 78.94444319114677,847.5740444386972 82.28969190232579,874.2443720570661 83.65953993783455,876.0252947413608 77.4292508711585,901.1268853191066 77.544594231156,905.9230212605105 65.99715103113681,903.133760058299 62.40403060449876,903.1059926686355 57.52815220444586,916.7160715354619 57.277950320021546,917.4088687277178 45.3442816267268,917.039854851995 42.93372191114008,917.7174247572909 46.9200583378331,943.9086246897712 47.47784251566168,944.0792280370149 70.39039320007555,927.7029416925286 70.65399355567183,927.1346687788389 88.01287796450902,930.952682199342 89.50505986667827,930.6522052467114 49.80509869344655,984.7130827159051 49.564800026804505,984.7345720674855 59.020625377866736,1019.6900405335252 60.81398160893127,1020.7504582812323 47.89057368002955,1035.7134860170552 47.27628290674306,1035.9377289768088 46.97831256010227,1061.2842132250441 46.948020364485046,1065.4324121348106 24.332857484557962,1069.1218222272944 23.318068933418317,1069.8933504246886 20.709736133321485,1089.5771441350005 20.738863244514278,1089.8697967106489 29.55447469335172,1090.4430187457253 29.926427902282512,1090.7361176475313 13.922536702338903,1112.784089337896 12.513367066719866,1113.9706812771399 20.728377484578004,1131.5008018722071 20.732455280121712,1132.8595392533823 8.05255000000011,1150.4744939176378" stroke="#009edd" stroke-width="6.030322589606612px" fill="none" stroke-linejoin="round" vector-effect="non-scaling-stroke"></polygon><polygon points="93.5586799201335,709.4877846190718 149.1792287556234,751.3406105347456 149.4696260534472,751.761442438328 152.71147352012463,741.6782853804541 152.23204127114855,740.5864907484863 180.0641610222881,743.3379283164174 180.53223369780585,743.1375886115491 193.71691181333858,722.8140357173759 194.4841199201544,720.9086061826454 224.0289138044243,730.6561093810958 226.90550729781512,730.6359397978301 239.5026915822889,718.0009004960664 245.08461115565274,718.0161406139157 240.2961140889454,728.3249414983218 242.52870715558652,730.9694100035483 274.5979477601138,742.906323758514 276.07789627565194,742.6194832921972 286.3763689511468,767.2805681751122 286.7937604534452,768.2785696551216 298.52266555556685,773.7937120307249 301.0136160978361,775.222329558899 291.1645747467189,779.7613102144458 290.0195880089666,780.2130073723163 283.4820079201379,800.8498266200547 283.28627373334143,801.2719078645239 287.34630175118923,829.5141107033485 287.34659302232444,829.7891894188722 329.3729365600518,847.5041604238575 329.4582789955673,847.6107783349942 344.7913728266501,834.2087700833579 345.2812908356789,833.5631987681625 344.5886481334235,817.8126420154365 343.98396930666763,817.3798396949785 355.56665631113697,802.8405912399537 355.8535583556875,801.4224589401636 385.35582665782545,775.9922017759889 386.0359447023145,775.0350144902256 398.6270122934145,777.9222479082307 400.20774061335374,776.5433891907812 404.1853389066889,757.130899904332 404.3228188712162,756.515576868296 439.31758651565883,763.3597721537587 440.4742240978883,763.129873037549 442.16825688011136,736.9117282899458 442.3785546222714,736.6387742156874 479.86252518228844,746.8234513774294 481.0241143734672,747.0941518946563 530.1793183556072,717.1573134988791 530.5958360445,714.8883083720937 495.6400987290324,677.6507723580942 490.73742338675197,677.8641731290625 496.63304194677744,663.5775198859408 495.5285418934434,662.3651783892199 483.2966115822562,661.6536420036934 481.61422964451026,661.1084430613334 478.70472251563456,647.1569870933088 477.572842977919,646.3588631069067 454.3101844178525,643.1945868100518 453.822014035635,643.4676570886293 451.49912692452904,628.0832717326482 451.0665893244802,627.8146665439488 435.63708475567523,627.9971746128065 434.31850043565623,626.920060915734 441.2134701778193,607.3162958861574 441.051814711165,605.5251200010896 427.27876895116765,616.257605761966 425.7198859645066,616.8778064948053 413.1725090400794,612.4466737084219 412.0668439023209,611.6614287219488 404.4125303734106,585.55166646673 403.9395060889435,585.475419869508 365.85813848008524,594.4113406856557 365.3312290400279,594.5544093355782 354.05758068452246,603.7025364443905 353.63640265793197,604.0303693963576 357.556329271152,611.8627853569703 358.7683083645313,613.2570292382513 337.9249476534094,609.5415671476874 336.81753488895606,609.5886554736423 316.7772086311377,621.6949530971249 315.95349392886396,622.2097564047215 299.1943367378333,636.735411629408 296.85717734226614,636.7753196471383 279.3127532356664,684.6471609786165 279.0945911733213,685.8315845549585 266.70595700454555,685.9849046264787 265.8560279021983,686.1570533511474 272.00330470232416,698.8746153394238 272.11486153779674,699.4995137395815 257.4088744090184,693.644943934494 256.55049844456494,694.9032861602388 269.1736058578606,704.2364009431692 269.1773923822691,705.1060369647819 239.3768624622387,703.7764786442638 239.11267956448842,704.3403988342977 210.14052468442947,674.6721063271177 209.6494415912091,673.8691507566616 193.20398338672362,671.680846546056 192.04006402669597,670.7106510166557 199.65680358230725,663.3327207001637 200.4190600800573,663.1408266420256 190.07835309344932,642.9892233882344 189.97495184894774,642.469088097954 192.74377503115807,613.3072559353093 192.79853400003753,612.912168838993 204.33549144000403,600.4497432887799 204.63054907564197,600.4295617386013 234.56885023121845,611.2829315628403 235.2268316711777,612.6619316949289 268.965638284433,608.5531584332709 269.29826989336993,607.3768386313238 289.60365286234423,620.8231928263338 292.3142218222854,621.2675936850499 292.0785834934575,595.1697380140902 292.20149990227196,594.52436044193 282.83655113782856,586.8527881388216 282.7855786933576,585.312610870438 302.5218179111614,578.7104472230783 303.1361086845643,578.1950933477272 302.88852824000764,558.0083264552884 302.21481816002756,557.239483648307 285.8823731466907,558.4326691146487 285.3965329334385,558.3129022950086 251.19111000010867,533.6359547072568 250.63798616009421,533.6283282447619 230.33668098678004,543.8210832129478 228.6776007378719,544.0440346231696 216.7054842577561,536.9646560041363 214.27307920900762,537.0570693628176 195.4450233157038,571.216840533343 195.2856980177819,572.2233588759334 123.97058790233109,592.4307945589314 120.9838939289109,592.1087747268391 117.9814713155863,599.5191476559046 116.31889581340488,599.3186766585347 124.92362697792828,615.8351686845779 126.08172091560095,616.5863168530993 124.92566587564193,646.5346299868322 124.88459664895322,648.2550754081237 140.27128436449107,666.3940359346814 140.35254900446284,666.4370769693412 118.02661833781872,674.1327679847379 117.75690128896508,673.9843712507061 104.68319746675093,704.7335283484206 104.83028937780887,709.1749015988678 93.5586799201335,709.4877846190718" stroke="#009edd" stroke-width="6.437643948955745px" fill="none" stroke-linejoin="round" vector-effect="non-scaling-stroke"></polygon><polygon points="672.1151482579078,778.6880776259129 681.7649601689552,808.4951067071304 681.7387457689981,810.7779304560752 695.5965514222405,821.3534347664461 697.1708717777872,821.6603336389305 714.0844026579068,859.2730318725005 714.6139335378318,859.9265907155129 792.1450604356139,846.412443792309 792.6987668177824,846.2932819439809 841.8207658934186,861.1759174584656 844.0533589600598,860.2737510646473 862.3655737156294,894.1006639007026 862.45120742228,894.4392605504033 855.484876257811,919.854017827405 855.5576940355602,920.3255791665067 877.507302426711,938.6180640699238 878.3717950845382,940.3402529289958 868.1971126311471,958.2397396079975 867.4243703733443,959.3779140694312 855.8186729511724,950.4922058138543 855.9471235110902,949.6110033701186 827.9181044889626,957.5063258756197 827.3801267466986,958.0436255530001 817.5439013244829,948.9174121726317 817.278262071173,948.7248719425186 815.4333508533671,931.6602119997622 815.7744293245266,930.4538275401353 806.0136431200442,929.6956916749257 804.1011570044573,928.2085197474005 791.5112544978981,960.1914678901446 790.8156990845234,961.0139735614428 779.8216709956539,958.5128661964916 778.4826976978,958.5934608627356 758.8358787111717,980.0498437252024 759.0790900889331,982.6120407609048 794.4574617867836,1017.6215621491208 794.866988968897,1018.045017651202 824.0683742133913,1001.136154451269 824.6814999022533,1001.0703482170718 845.3975751378819,1018.7200380541396 845.9119599200565,1021.2750699818496 866.9027038133715,1016.8189640171256 879.5022182666942,1012.2539915130835 878.8366637778015,1024.0252323330858 878.9878334845196,1024.6313018955768 897.8980278312008,1042.8904899839324 899.5815748534876,1044.7626938876708 916.4202490577952,1035.3097585947032 917.7402897333739,1036.325342016389 920.7397996355792,1063.8933495189774 920.4156148889813,1064.3198486132094 943.022622177821,1054.171809980449 943.582153982228,1053.8782147671807 945.2074467822456,1035.4234468795255 944.245087031253,1035.30573026857 955.781461928949,1020.0794727195532 956.2807006133733,1019.3565606993868 1004.9987066578831,1048.4094846817677 1005.6097934489151,1048.463640053851 1011.8549373423227,1036.1915126492165 1012.1013527022221,1036.0353036862577 1056.8271968978004,1042.2737289065042 1057.476148933383,1042.1443789399707 1093.3584196533554,1010.093228672609 1093.7277514223022,1009.6590143926803 1078.797485537805,997.3650225455419 1078.5915568622074,997.0310611640232 1085.1518560978363,996.0972200768081 1085.9816874933674,995.9280001262448 1064.465490515671,957.3397627088486 1062.933404471121,955.8514346143127 1080.2695697333909,932.9480895098311 1081.0641573245882,931.8370940938255 1062.2261982133857,917.2351098439901 1060.6673152267247,917.1880874420528 1064.8164722044964,897.136370255939 1065.3241577511433,894.8329456815625 1031.776424986754,837.0011465691275 1031.2678656268179,836.5625580993726 1034.7945762400993,802.6824240153435 1035.9718940711825,801.8579811136949 1078.037267937885,813.5468585265114 1078.2653332178959,813.6355711788417 1098.4987722222938,806.1938888202783 1099.4628796000977,805.867701779214 1109.1726933599928,815.1418886236859 1110.4507909955935,815.5070413562714 1130.8854983378912,798.349583505398 1132.332533217828,796.8153700542532 1152.8552044356254,817.2987451693987 1154.4746718134045,818.5545868662664 1165.907062924445,806.6119272730209 1166.0203673867288,804.9433531784814 1197.104237822328,801.4072246098438 1198.0211592800695,801.2167953913811 1196.037311742293,844.9636821987003 1194.7458156356367,845.8072263666324 1210.570866373462,877.217644867698 1211.2163231555385,878.8856700226677 1203.23928123559,893.7804298164917 1203.1422879555973,894.8204050967249 1218.036727493374,912.2479921750853 1218.6900485956355,912.9878267678212 1212.1877123111406,926.0670819627483 1212.139943848924,927.585167363846 1236.3037952267111,911.3281217190449 1237.7983072978457,910.8937122291898 1252.7871186756308,874.5256656342897 1253.7436530045013,872.6650004742912 1286.5425277423126,861.3470330098423 1287.177790035588,860.7924747965078 1289.7249559022964,828.8900301902102 1289.398732257752,827.750731471089 1302.7162300001144,802.3141134928226 1302.8941966489435,801.440829748906 1258.7765265333944,767.9859365523805 1256.6729665689415,768.0307502228313 1258.2172860001226,757.4957009485004 1258.0200954577665,757.277895975312 1239.52321481784,765.1886491428374 1238.6552269067395,765.1783418660996 1226.0717323645729,748.272412344442 1225.7874517600064,747.9878197756841 1225.3857888978453,704.1288168659446 1225.5558912267222,703.9365101967485 1220.7277812890022,703.6917560104409 1217.9330349778536,702.7459085132939 1211.9943082934258,681.872572177999 1212.6205411823246,680.1214563976753 1199.5471286311292,682.8158197439986 1198.5894292178343,683.6263638443559 1180.4755700889289,669.9861399135332 1176.693414711255,668.6904426842591 1186.740520417901,694.1613716842619 1186.869262248954,694.851733271709 1141.8699144801137,719.1371828531626 1140.3742373244384,720.130920828007 1117.2327475467243,758.9544509092591 1117.180027475675,759.9430790140539 1086.3740296801332,767.838051375096 1085.0027252889483,769.3034546448396 1031.8530292889116,731.605870549545 1031.0968894845353,731.1805178961729 1036.1003446312168,706.529722315179 1036.1781140177989,705.9823934916419 1029.181490657829,702.8525967286912 1028.9560468179186,702.3550167936844 1026.6357811467967,676.9025230578043 1026.432182640048,676.2493159215444 995.3692837245542,643.432234198124 994.4913925956714,642.8542573667144 987.3575805423095,642.7080814490107 985.7197630845255,646.4947237432714 1001.6403507466673,665.286174732704 1002.335906160042,666.7746797920915 1000.2370065334032,686.3336849751429 1000.1618585866888,686.602666870727 992.0240350133752,697.2258433041641 989.1320041512151,696.7919066808897 986.4161923111894,683.1134977922554 985.5216987289966,682.6432200883062 982.7857891822712,696.9653917767935 982.6352020178235,697.37018980072 960.7257890400722,705.2293098334701 959.6250755111466,707.031327139506 979.2733508534509,704.3188820333232 979.7012281156856,704.3336748342042 979.8180278312427,716.8332353794028 978.8009091111378,719.4971164325032 995.229473591178,739.5910525701254 995.6666715289246,740.0975120001019 1015.543885964529,728.7547818518722 1015.7495233689913,728.8784896600771 1013.461297520065,737.1465850544407 1013.3838194045018,737.4329844710662 1024.6458169156465,743.9053323947371 1024.9321364178102,744.1787256215246 1017.84842299563,757.6413523016743 1017.4645276712033,759.0024035085005 1032.0161411111255,775.2039565568919 1032.9062656267558,776.1266378583166 1026.3981039200223,784.5457576145197 1026.3867443466804,784.6031147856627 1031.6034099467577,804.0302022676112 1031.799435404573,804.2192848581833 1016.2569176445029,802.1994083864045 1014.6354113690102,801.3095456431399 1007.3367398667394,782.7977010182001 1005.8230039023108,782.2312936403102 967.9667888623442,780.7390899942036 966.6397576801025,780.2394459668792 971.8907932712243,765.6941532542476 972.0559439911519,764.099660268497 961.9948572711799,740.2086640018749 962.0012652355724,739.432391587972 968.6664220711461,718.8252100578754 969.0092481688841,715.9838167382184 953.7830508356926,702.7441154336336 953.0633199200745,702.262224735088 934.4918738755875,733.0755495083065 934.2908968089394,733.6483585883177 921.4956481689367,739.1639226028708 921.1035972534225,739.2903137185274 920.2353180711868,729.9143157101714 920.7718394578912,726.9197745122726 912.3421622311942,728.0766287520307 910.3355955467339,728.2326086326282 908.6406889511052,738.7497895013437 908.4079633333965,739.1096909316618 918.1629241156404,743.3935035042011 917.7155316889764,744.513071629546 906.2598388889817,742.2228360926745 905.9685677778687,741.9507850003208 891.7603629778384,707.988810914663 891.1041291644576,706.4024158145546 881.1129475112318,709.6787416586665 880.1730156356714,709.9665216722422 894.1770393867989,742.2183541992924 893.9938298577688,742.519089040499 882.775231742278,742.5961774878449 879.5767836711382,740.6846449214861 866.0676295378723,718.6521904717445 864.0135856622144,718.9309939864104 868.6963513155713,740.3041291843181 868.3054654844816,742.1833954279789 835.9359243645811,750.9686285214045 834.883561840026,751.4347263658781 792.2513743911184,725.2644897132193 789.0899177511235,726.0121259849764 780.4857691289869,706.9761910083832 780.0284734845407,706.5920307516133 716.5019528800401,710.8944079322171 715.0531703734084,711.273629883515 706.9444739111711,717.9901427652001 706.7193213422795,718.6687752565847 718.4627899999975,741.1198393791926 718.6509511378606,741.6074712791958 708.6816148177966,758.5981672509586 708.5697667111888,758.9396617878008 697.2824286133762,773.1053911085253 697.2594181956736,773.3975692635647 672.1151482579078,778.6880776259129" stroke="#009edd" stroke-width="6.3000294734996425px" fill="none" stroke-linejoin="round" vector-effect="non-scaling-stroke"></polygon><polygon points="828.0206319200586,1285.3766692099523 837.9337529155671,1313.0846842762328 838.5768795290276,1313.7284018374992 830.1696301778791,1338.5409371783387 830.0892393511965,1338.681287288993 874.6977012889472,1354.924196440879 876.1386194756267,1355.1516896666506 885.2425893245743,1337.5455215635955 885.2286083112483,1335.9922708692973 864.244563653461,1306.340735536687 864.2713605955721,1305.959856750247 886.8579789066932,1284.870570619452 887.1259483289684,1284.6470284684108 915.5808057156171,1279.086567901111 915.7392572000169,1278.895657898545 905.5832160978823,1233.902446583939 905.2817504978518,1233.2079630133592 891.6234655555816,1238.1435336940701 891.037719351101,1238.1717059730797 869.5305517778977,1226.6122721283243 869.1580160268129,1226.1377897556883 855.5291494667542,1233.2347943575367 854.8962173423276,1233.7289376938495 843.2412951023796,1266.3488859876304 842.5370015555307,1269.0365182364255 828.0206319200586,1285.3766692099523" stroke="#009edd" stroke-width="5.293282311825255px" fill="none" stroke-linejoin="round" vector-effect="non-scaling-stroke"></polygon><polygon points="1005.635134035583,1248.7306903417118 1014.3426839023375,1285.1607279926318 1014.5882254489477,1287.1895834922104 1036.6916249866842,1321.9342946192844 1037.0964918312163,1322.7451670096268 1029.1293531289336,1334.9695778066305 1028.954590462359,1335.3548761881318 1025.7308018045512,1384.716209453625 1025.7957552622318,1384.9566314220208 1062.5043621245784,1397.8018433172035 1062.8049539112033,1397.8344637044136 1081.653981324496,1388.6572196960694 1082.3891496089998,1388.254586553994 1092.8970462134819,1407.0716478504253 1093.0033601689863,1409.5694459663716 1170.3830260889151,1391.5028899790266 1173.255250515627,1391.5538328618056 1174.5097551912547,1382.911695663446 1174.8333573956986,1382.2333233535535 1172.7397006489116,1360.4581594174158 1171.9264717066906,1357.870416636382 1145.6249816445413,1359.6572585133615 1142.1649721156352,1358.9238416797377 1116.5028221423051,1340.5143230285973 1114.0144930401364,1339.8161532063748 1107.804884222314,1317.0211665144668 1107.9001298756118,1316.9192462182616 1096.7269700533723,1310.8267406343145 1096.519585022215,1310.647033967696 1098.9129597423378,1274.3781513169886 1100.8003965422756,1269.7438550198929 1082.6728476711794,1260.6949591540977 1081.9784573422291,1259.4944031963603 1075.4927235111606,1246.130901057251 1074.6978446489445,1243.554333783082 1079.1187575734,1226.0532682832343 1079.8850918666938,1222.8736273870816 1065.649507582282,1200.7566337509559 1065.6722267289658,1200.520035682748 1041.1375872267888,1204.477317344026 1040.8046643467167,1204.3699779130764 1029.0710989066645,1183.67574589837 1027.6607641867374,1181.0241958123877 1021.0713378400321,1239.106308106311 1021.5493137334486,1240.624021961157 1005.635134035583,1248.7306903417118" stroke="#009edd" stroke-width="5.389580603959771px" fill="none" stroke-linejoin="round" vector-effect="non-scaling-stroke"></polygon><polygon points="1077.3428776089347,1073.3320777417173 1078.790495031142,1109.502583412024 1078.9291400800937,1109.7571770479333 1094.410782177794,1108.034077985714 1095.204787226721,1108.385768478365 1104.923630391109,1120.5348530261906 1105.4342286488752,1121.5343832176075 1100.8531166134414,1129.9000132417784 1102.4382140000596,1132.0855476354843 1111.2293586756348,1127.2223125226226 1113.220487991093,1126.2550214710425 1126.7718764357048,1135.9787425967877 1127.1726654844604,1136.2852023851372 1147.3589185690287,1175.3197658648494 1149.0526600800001,1178.5989477481705 1167.5035198845214,1170.0379034408613 1170.1398147111538,1169.9175749816711 1201.9611836001056,1183.8564509145579 1202.9602435112245,1183.3608536340541 1251.2512461066724,1118.630185108377 1252.57565584893,1117.5773982269236 1239.0927161156212,1065.0130757004151 1238.7542590844457,1063.0967382916494 1216.8486326312193,1068.6134355776956 1215.7971439200699,1069.212669365668 1212.5902489867074,1047.343381996943 1212.4009227645363,1046.5261226170476 1194.6383365957079,1026.4342818205257 1194.5023129867402,1025.2333412759833 1177.658978444502,1036.2125493779092 1177.2343051645219,1036.7259344509582 1173.4853546933516,1052.224049040851 1172.4181373422978,1051.6466993063584 1161.773634586694,1041.1682094365603 1160.9152586222406,1039.9794341178856 1166.9562214667455,1028.3894330076653 1167.532938266733,1027.4718390349078 1147.996511031153,1008.7583527592722 1147.679899333372,1007.9337875304407 1123.5929435289943,1029.821319558752 1123.757511706768,1030.103309246049 1111.9852072089923,1025.6487251064752 1110.157772257902,1025.2709407068103 1087.990584346793,1040.6409597309319 1086.5342287911114,1041.4103500065173 1095.7835429245386,1058.2816542470607 1095.8461662133702,1058.3662402380503 1077.3428776089347,1073.3320777417173" stroke="#009edd" stroke-width="5.922954598468011px" fill="none" stroke-linejoin="round" vector-effect="non-scaling-stroke"></polygon><polygon points="940.8867311200372,1579.1626051432465 965.2512682933373,1620.7020366091526 967.6900813067111,1622.3559513927682 967.447161200085,1633.6455410247215 965.9159489689407,1637.5990594709072 949.4734034755745,1649.2324460670131 949.4538883111452,1649.7033391186048 954.0015041689401,1683.7339667942504 954.0816037244874,1684.5881348972687 967.6085253956041,1705.5851694835944 968.8484665156354,1707.0880684248766 963.759668933322,1741.8071772525798 963.8773424622848,1742.4219808240084 968.4736005955854,1750.4156095520373 968.7436089156906,1751.6581049127633 993.1666915822786,1749.2079062687478 994.4433328623197,1748.06221044463 1011.3527859467792,1759.5041785960564 1012.6404955289106,1761.7316506116547 1001.5261724712107,1812.8926210956195 1002.7599968978682,1825.4894563518244 1032.3138201867475,1837.1352241909842 1037.1037736090145,1838.5373308129854 1038.1762338400365,1830.478217757867 1038.729357680051,1830.4371878190211 1080.7035636889993,1856.447298686813 1080.8486167022272,1856.4905534084899 1076.8733485778573,1843.2484150771995 1077.5121061245225,1841.8307300171361 1102.222090835661,1824.4070416626998 1103.0356110489008,1823.7781950878923 1124.1714079556766,1776.618954651385 1124.197913626769,1776.3414886283351 1141.377083760082,1759.3234994258744 1141.5669925245236,1759.1379127660546 1137.9194044000249,1748.8724071738905 1137.9202782134305,1748.6970730021492 1145.6663421423652,1732.8120211274143 1146.5043291289837,1730.2380209167384 1114.7522827645078,1719.633393975884 1114.6407259289188,1719.6204541184486 1130.9542383200967,1675.9490135089507 1133.9572434756917,1676.0909338308045 1131.3113367022959,1667.675525499253 1131.5699854489428,1665.2788426443365 1136.8201472267754,1665.1927043951362 1138.1562078133936,1665.5194047265466 1155.915590000084,1620.5212435518404 1157.0867911379098,1617.6160350053467 1134.955429573405,1606.4541958370025 1135.3952489511355,1604.4461386487599 1167.6080862134475,1580.0640598310054 1167.6459514578817,1580.0587020132004 1162.8076470312442,1568.7355556795735 1162.3049130934303,1567.2919912714058 1191.8266965599976,1558.7884770204325 1191.852910960071,1558.5728039104504 1163.447860933469,1532.0590305052244 1162.6037572533603,1531.529829993822 1170.4756503023452,1523.5376311442012 1170.356811688958,1522.031692617318 1159.7155129156088,1523.5184273666598 1159.608907688969,1523.5228933615506 1153.6544523645205,1500.6817173971574 1153.5880425511639,1499.810756308121 1122.267077431177,1476.2090787765117 1120.1585658578913,1476.1429678344646 1100.0177510666906,1482.551616626304 1098.4081869066938,1482.6092386763555 1091.6766202577635,1503.47770252874 1091.5149647911092,1504.4924666239892 1103.321930551181,1511.3571871404781 1103.3324163111172,1515.569706003276 1088.7688607555826,1539.4886927571858 1087.2187159022794,1546.0669744739787 1076.2756602578809,1544.444192128525 1075.33514584005,1544.9130765335647 1074.599103742257,1560.6165548972565 1069.962650195557,1564.435197186576 1045.620540897922,1575.340199812177 1045.6435513156246,1576.2032717845648 997.6636262667378,1555.667670994975 997.1416684356298,1555.645790813818 976.2857830667415,1582.6514241355833 975.9566467111943,1583.1376398496575 953.0251634045051,1565.1156872932113 949.0530992622732,1563.0523312189396 940.8867311200372,1579.1626051432465" stroke="#009edd" stroke-width="5.541858867276681px" fill="none" stroke-linejoin="round" vector-effect="non-scaling-stroke"></polygon><polygon points="551.9562029777805,1704.0586099136633 570.66542025793,1728.281510779612 570.7370729511383,1728.779898249464 602.2782390311838,1732.7174319483236 603.9125612356945,1733.1979624039739 621.7435961155932,1753.30479083988 622.4572103378375,1754.2760219332192 641.2817709778681,1733.1729766308342 642.3425803645293,1731.5747736097326 691.12204461333,1722.0932916938689 693.4359023200593,1722.6760241868685 713.4130227467756,1743.2420136865474 717.2330433690001,1744.1704585262703 714.099257484522,1751.573338845257 712.927182533407,1752.0855038516236 718.5926969157078,1766.050464197622 719.9972062133963,1770.1506044013438 731.6055250756688,1776.3124929626717 732.9372165956081,1778.3372734300572 730.5656872089965,1785.1394895353367 726.5097369866924,1786.6378312980303 742.9921866223228,1831.7706569251966 743.8397855555884,1833.3788366927545 739.5187786223612,1841.9083261009434 739.5152833689715,1842.0679777276598 769.4398947822408,1842.2615217233904 772.3528971645062,1841.9310697754624 815.0631452712475,1862.9621667701065 818.76054075556,1864.818043982006 888.6198778578325,1797.7535228734848 888.9018282934337,1797.4586877318577 890.6410080978892,1776.2924190381088 891.4848205067462,1773.7082205375552 918.6845906756132,1785.2081842004334 921.3299149067386,1784.3419161417767 918.9409092534113,1762.421792088229 919.0990694666759,1760.2166330400867 934.8562540357013,1732.246270149575 934.6325578222529,1731.245047981363 962.358363617888,1742.514781214042 963.8773424622848,1742.4219808240084 968.5574866756576,1708.9756021541323 968.8484665156354,1707.0880684248766 954.3699621244812,1684.7693216448313 954.0816037244874,1684.5881348972687 949.5453474400344,1650.0907650638617 949.4538883111452,1649.7033391186048 964.4153202045488,1637.1576008994377 965.9159489689407,1637.5990594709072 967.9006703200064,1624.8066686786258 967.6900813067111,1622.3559513927682 943.15078146672,1584.0631880077196 940.8867311200372,1579.1626051432465 902.4852565601248,1607.6216106185236 901.2980355112593,1608.517145258236 889.5033031378186,1589.5387102594611 887.5048920445622,1585.384755093524 864.1673768090329,1577.294943593304 863.3704590489867,1577.1851069199981 863.0579251467495,1567.8862962304627 862.6947100711766,1566.8512847549644 832.9626288622164,1569.3137825047377 829.7210726667906,1568.4734554524546 763.0403772000934,1534.7621758049133 761.1841064089456,1531.9692674700416 748.6789637956315,1552.7071287577053 748.3311860889442,1553.004077852216 708.190240453441,1555.3408076531266 707.7737227645482,1555.4243096732314 698.5392634578527,1576.2349727601174 698.4923688089254,1577.61775593795 706.5259173245647,1609.922493372789 705.3925814311731,1611.9389826089389 655.3976428356034,1601.140706280108 655.3201647200401,1601.071061304341 638.1118674756506,1618.827584838589 637.8165185689938,1618.8186567139126 637.4754400978343,1659.3441509018664 637.798751031143,1659.6927297563304 619.2619662489521,1671.2963862799586 619.0860384978366,1671.3887703381258 629.2883917067445,1713.1852349609615 627.4717337867257,1717.562114701235 551.9562029777805,1704.0586099136633" stroke="#009edd" stroke-width="6.2204187464256115px" fill="none" stroke-linejoin="round" vector-effect="non-scaling-stroke"></polygon></svg>