<svg viewBox="0 0 17181.14683681786 8391.665237658788" width="1000" xmlns="http://www.w3.org/2000/svg"><polygon points="8.052550000022165,4472.579682458512 27.425282871176023,4524.587390471104 29.378546942258254,4526.165485847479 44.26890868449118,4517.134312088805 49.456447173375636,4516.321856224589 59.581613537855446,4528.7279360631655 61.84712024003966,4530.618640943285 76.81583391118329,4524.900007186079 80.09729424893158,4522.102938237687 93.48790104006184,4536.274841395061 94.19102950231172,4537.509399495175 86.53467707562959,4552.681051142426 89.81584614224266,4557.477913798037 115.97228319116402,4562.587363051978 119.23772361781448,4562.712464504613 149.5503081511706,4583.24363711974 151.0815203822567,4583.931241122453 146.47215504897758,4596.806079643575 146.86274960893206,4601.1812550749455 160.50326701340964,4605.759217959392 162.11283117340645,4605.774818264967 187.7065324356081,4653.774786160007 188.97210541338427,4655.571688912372 196.5503971822909,4653.681188200746 202.03474093339173,4650.7749383763585 215.45651373337023,4616.134257742466 216.45644745783648,4613.3686099465995 229.30033837340306,4603.290540551097 231.67536301340442,4602.3842488114315 251.48791526228888,4630.712373813178 254.19091117335483,4632.931099431851 286.11276859563077,4628.806232571806 288.33167192008113,4630.868667837029 297.58156859560404,4665.837380704965 299.1439468355966,4667.399978329806 325.2846552444971,4650.837337173027 328.36280834669014,4651.087520993809 338.6283673867001,4678.259223176428 340.1126849689754,4680.618545880105 338.80021734227194,4704.259189261036 338.5191407200182,4712.524853894865 368.3470501244883,4739.118563208409 368.7222073156154,4742.821879883792 360.7221549778478,4756.149955255591 359.1909427467617,4757.212404022081 354.97217197337886,4803.21256387388 355.9566683289595,4804.946845334285 354.2221488622599,4807.290608005569 345.47207341337344,4816.868673098943 344.98768955562264,4832.071696295898 345.6753806489287,4834.821815540054 370.018946302298,4837.1967126651725 372.72223348449916,4839.118698366714 399.2847024623188,4880.2280125425605 400.8001860533841,4881.743532980472 413.737866266747,4870.25937047464 415.7688997245277,4870.790543064213 415.5970497689559,4926.931037619041 414.67517670226516,4930.337435937632 441.0503583556274,4936.384239415027 442.0814580889419,4938.056234371295 424.23789855116047,4955.087377125776 422.37842377787456,4958.431311385037 427.76897823117906,4969.056272695103 427.8627675289754,4971.821665887983 422.12851316446904,4999.993701575644 422.0970558844856,5001.415497275331 428.3471513867262,5010.453805307072 429.4097084000823,5012.266343016905 424.72199113783427,5020.9538328286435 424.9095697333687,5023.891234444018 436.90964824007824,5028.953917059087 438.4720264800708,5030.078791219479 446.7691753511899,5073.3757735559775 449.76897652453044,5079.750786906254 489.2845630844822,5131.681134295388 491.47230040002614,5134.978082097281 490.938109182287,5140.939102808392 487.30042427557055,5144.931242875609 473.987878142274,5146.321677768399 472.98765314673074,5146.8997992860095 486.4277760267141,5205.120634212479 487.4277097511804,5219.339576956205 461.9831392978085,5273.413075067947 461.3784604711691,5274.384450407786 466.09705247118836,5290.8374043037475 466.3894886667258,5292.444474079384 475.4748171644751,5295.2747119541455 476.706602693419,5294.228045410215 476.78466335119447,5300.853093764075 477.74877072894014,5301.194332324638 446.1755648267572,5328.72813796546 439.40991945785936,5334.4549155247805 200.76945922675077,5907.528069366032 200.61683316453127,5907.857669516787 2009.5103391556186,7493.795697511436 2012.2736281867255,7495.815456077369 3370.6566502667265,8304.367915940617 3373.7251914222725,8306.080061067856 3486.696148222254,8353.945005533838 3490.0574168444728,8354.957171394519 3614.0783257867442,8377.670692319836 3617.5782394578564,8377.915145718696 6563.721157431137,8383.610926897527 6564.976535920054,8383.61268765878 11157.076774142275,8359.477719775663 14534.143067617842,8341.724122089247 15032.018020720046,7737.553608935006 15045.388529804535,7721.243390442018 15150.645462497836,7355.737904410606 15251.842367173405,7004.331839650142 15271.668026622268,7022.996416496782 15273.500995724462,7023.831580640603 15294.640870426723,7020.276474354527 15296.640155333385,7020.943608336762 15301.275443795603,7004.51044932715 15304.43660916452,7002.996966540144 15334.8872562045,7001.3166225346795 15337.96482676448,7001.7881178841635 15358.13389485341,7034.156373695849 15361.450598995609,7036.295232022676 15404.768729911186,7040.991248818609 15406.89966936002,7041.7027294112195 15436.475920524506,7036.653617494885 15437.659355048963,7036.651854943688 15448.519398426753,7019.005070543528 15449.434863528935,7017.92666766452 15461.506303457834,7023.062219108193 15469.727139297815,7024.391783650528 15490.545741964539,7006.288319296291 15506.19486495119,6996.015886569192 15548.725981324504,6943.652755770454 15550.608175244532,6941.752292529651 15549.339689555578,6933.5314124544675 15549.546492044523,6931.633578222332 15590.143276968913,6905.2193111855595 15591.815755688935,6903.108437792776 15587.57834356447,6868.956753556471 15587.783689697855,6866.21533058057 15568.691159635608,6844.461778984667 15566.802557751187,6841.934192111628 15522.517406746687,6734.062985330616 15522.262253253371,6733.4662201303 15506.08913353784,6722.990903006954 15504.620253324509,6721.306076310197 15492.842705946707,6690.535704418289 15490.532343493425,6686.743421745399 15491.065660897875,6623.582288831851 15490.642443973396,6620.841510864877 15474.137566462276,6611.59828361767 15460.661325964495,6611.6191474400985 15474.47194569785,6595.348199636239 15474.679039457813,6593.8715500344115 15456.03011529788,6592.002594026941 15454.560070000065,6589.8959011400875 15474.19116034673,6548.739894925122 15475.86247398227,6545.5737212570675 15473.328415315598,6532.6071371398575 15473.324920062267,6530.287284962804 15479.595695813361,6520.575832951494 15480.010757146752,6518.04436604536 15461.12299067562,6498.037251731759 15459.022052151151,6494.24409564145 15463.122275582282,6435.919385484856 15463.746760844486,6433.176434644993 15475.471879422315,6427.463036533649 15476.936390568968,6425.984426011826 15468.9450763645,6407.224641964858 15468.941581111168,6404.967747198098 15484.091756684531,6382.625180087081 15485.817538017815,6380.882584707491 15510.302078888926,6377.178422539117 15517.422492471174,6376.274938009476 15511.717656488938,6337.289280360244 15513.093329946743,6334.390040382481 15520.336077395652,6345.883794258552 15522.067392880039,6347.621441927768 15559.38912543119,6356.2652625417395 15562.848552417825,6357.71015526788 15619.026302888931,6356.467477084283 15623.061281591188,6357.621686497732 15639.531206568936,6391.818660387158 15641.839821395639,6394.425328912068 15654.230494462303,6396.437712087325 15659.131713448965,6399.040844093746 15682.511754266743,6431.487693249452 15684.520651120052,6433.34895299896 15725.168991031183,6452.157425495243 15728.313845217868,6453.629539429763 15736.927023244498,6470.280558729573 15737.34791000007,6471.756471924746 15752.544980222301,6476.313218043157 15755.690708222275,6478.418044161372 15761.627396008931,6531.771356079 15762.049739120062,6534.301913695614 15776.868156897835,6556.001728327392 15779.19832578674,6558.048528637417 15799.3595295556,6627.308056471666 15799.383413786709,6646.048979861283 15809.86538726231,6653.64905804288 15813.360640595609,6657.158466276567 15814.5402885956,6670.041199072119 15814.836220044468,6674.140303018532 15838.956089484505,6718.261100438394 15841.773846213415,6724.319605006051 15863.475291617855,6742.478490675014 15865.086020862276,6746.51771360237 15851.57424528891,6791.714880577201 15851.58560486231,6801.084307740763 15871.08766210673,6812.772122552182 15873.124812257825,6813.647969809332 15895.521521804505,6813.913573823142 15899.887675760081,6816.543461901281 15931.480688097829,6879.26634325934 15935.499938160065,6883.706454073865 15957.177499333397,6884.489707644068 15960.389928417804,6885.294113848737 15982.485463635647,6901.028115034889 15989.710443546704,6900.615928101324 16013.365153022285,6873.92044461632 16016.169220008946,6868.664131687168 16033.823453324498,6860.5632387599035 16038.236501928943,6858.133812864049 16047.833885040076,6823.371273534693 16051.440986480098,6817.709883540723 16076.311461573408,6799.4988935164 16079.923223351128,6798.282800724759 16098.358937057841,6767.95473308806 16102.764412613411,6757.44297295055 16100.558907760074,6720.87179379529 16101.758653466764,6716.424943835096 16118.212267262279,6709.537790238537 16123.828556826746,6705.086492960254 16127.821301217831,6683.258778202435 16130.227491866739,6680.427332969644 16138.253467333387,6676.78164690049 16140.664609591186,6678.800042461167 16143.807133608963,6699.738980077935 16144.102191244485,6703.838281632954 16163.899597395619,6721.094517864141 16166.520163582289,6723.72753650762 16202.594964506745,6728.670051206223 16204.337930835609,6726.325877741998 16232.920073697867,6584.539966099866 16233.315619866713,6578.072613322787 16246.95904998231,6569.16790047547 16252.97671113786,6563.341982537153 16277.03395728895,6524.921985906578 16278.635074586724,6519.261610230693 16268.163295600098,6484.105347768491 16265.750988257874,6480.873768127727 16276.967256204516,6450.547179502813 16278.568664773367,6445.290868394513 16289.02267622226,6460.237719707919 16292.639680880064,6463.468177003466 16350.58078665781,6458.8094035091635 16352.186564293399,6457.999435821577 16350.680401377846,6433.909123163001 16351.477901680046,6427.036294022313 16363.886924826715,6379.325738708518 16367.496356435644,6373.461317226902 16403.21202008007,6341.091436429502 16409.230846320046,6334.618417499092 16420.03933471121,6290.54438477839 16422.04386249784,6286.0957155842625 16427.66364731564,6282.452997593646 16431.680858480046,6283.66253517181 16434.90056934231,6292.553996424744 16441.327757680032,6294.166209942865 16443.70423867565,6275.723361792421 16445.281180471182,6274.133463477163 16459.483559848974,6274.122587848484 16463.765827724535,6272.757548724272 16472.77659081784,6264.127550887904 16475.70532184007,6261.402152188733 16475.485412151145,6231.254528266814 16475.48075181339,6230.452937087772 16485.11017474672,6211.633473113558 16485.350764684496,6211.067617850116 16481.845025591203,6189.3426955230825 16481.834831102286,6188.677472891373 16495.67661684449,6159.6251495982 16495.632052364468,6159.578115505428 16520.99040656892,6166.9498058188765 16521.413332222262,6166.947454128211 16541.58181776892,6155.728368942306 16541.943576488935,6155.9312040864315 16531.29033560003,6132.859227795649 16531.16800173337,6132.393580108561 16546.264874693414,6126.782570462412 16546.423326177814,6126.560916390532 16620.952613004483,6151.608456597925 16621.252622248954,6151.697234019084 16646.221838248952,6142.022515332064 16646.359318213363,6141.913747440121 16636.57027871115,6119.14606499541 16636.506781608972,6118.744792180514 16647.27216187562,6115.364982200816 16647.531684435613,6115.147441709269 16653.711001057818,6094.270137356158 16653.73168130673,6093.980862339813 16619.8169469423,6051.818302132917 16619.708011546754,6051.623387558939 16619.51897659566,6030.80498085494 16619.484897875634,6030.386921600177 16598.236961591174,6023.7929147254035 16597.825104240037,6023.794972693751 16600.9702496978,6014.210976753122 16600.96791952895,6013.783797917975 16589.78106996452,5985.527043164388 16589.683494142257,5985.352698399773 16597.58014523564,5980.183791176794 16597.519852115656,5979.698975315579 16561.447672631184,5958.543000288162 16561.29825055116,5958.510365054273 16572.919385342277,5941.2276814621 16573.152110960044,5940.901324470033 16599.79322313785,5934.035164807428 16600.432854497863,5933.787896488357 16606.688775422284,5917.198459689127 16607.08636048896,5916.8917957033555 16619.506451937836,5920.59528007629 16620.08637272002,5920.543238495215 16629.79473012453,5902.901602920698 16630.133478426724,5902.4923207753745 16623.419679315586,5896.225170807011 16623.577256986697,5895.82764747311 16635.314900222234,5897.745284729841 16635.506265342294,5897.658253113303 16640.55981912004,5888.472560383292 16640.771864488954,5888.257037875155 16635.945210906735,5886.039770682197 16636.29619259562,5885.554623498028 16652.310569555615,5874.814885627624 16652.713106231124,5874.405006009067 16654.76015960006,5868.962179749011 16654.749091297854,5868.855151859549 16642.595512915635,5860.137933969469 16642.45628532447,5859.897707533179 16643.41631490673,5841.765032567404 16643.413984737825,5841.303684965271 16678.972361982276,5798.928353891039 16678.984595368907,5798.5707895881205 16694.061079351173,5794.468202172749 16694.37361325341,5794.452323438862 16688.867424168915,5760.31168392938 16689.01742879115,5760.044090312411 16744.909442302305,5747.435365118465 16745.6684948178,5747.710901185899 16775.35542900453,5716.0870683424 16775.632719102316,5715.958559919411 16789.447999173426,5724.070737697388 16789.955684720073,5724.550950101722 16830.163331440068,5724.750621951855 16831.959309111175,5724.687103369768 16849.752770017833,5707.375813215942 16849.843355333374,5706.410081317794 16886.731967742264,5689.195575249585 16887.545779226755,5689.076768488128 16923.480187475623,5695.655528325093 16923.914763973386,5696.053411138913 16936.309514835593,5695.463791697082 16937.000409911154,5695.303521026071 16942.01871988451,5686.30362715511 16942.312029893394,5686.214815949177 16964.866317111184,5687.3026057349925 16966.28451615118,5687.329660780757 16995.22783519118,5699.801972520392 16999.16989840893,5699.711103789014 17008.884372506698,5699.049732137733 17009.50681887119,5699.029146976041 17020.776680702285,5682.91144616864 17021.189120595634,5682.4218067758775 17061.532499653404,5690.686540300347 17061.759691120067,5690.898862984701 17075.416228435584,5682.080382433458 17076.00080955564,5682.021272783022 17121.443763226736,5698.012827701663 17122.098831955576,5698.077229903225 17172.150568417856,5653.958566695888 17173.094286817883,5652.9339752014785 17153.75097232894,5639.307472753426 17153.38193183113,5638.211993510689 17138.26962150226,5639.978287874692 17137.340466657828,5639.901824968663 17138.470016026695,5620.321868178406 17138.70565435558,5619.040210746025 17118.5415378756,5592.85386926771 17118.4911479734,5591.977158133959 17106.76457304007,5588.293258629361 17104.6709162934,5585.411950814858 17162.30939138675,5543.637360332097 17162.368228151172,5543.267073793715 17049.5635871556,5461.709787937609 17045.304329697858,5457.996370292414 17013.501602160046,5425.717830132839 17011.229396222276,5422.289618075622 17020.309773111192,5411.999922568473 17022.57994015119,5409.141723486158 16999.26427024894,5380.174312651128 16996.70836624893,5377.60342434785 16978.54382594669,5387.611326026818 16972.582671386714,5388.756450781337 16951.811545911187,5380.853214497591 16950.002461040043,5378.474997283454 16957.814934782276,5372.47398560142 16961.220767884515,5369.90072750047 16962.918878462282,5356.4695715937705 16964.621649377863,5354.46871060683 16994.99481830228,5347.313590164966 16996.980996008904,5344.169312401762 16975.9692805956,5333.032048610476 16973.98135526228,5331.318252137426 16976.24773577781,5317.886367896659 16975.678300755622,5313.885689835617 16967.330761982303,5304.042199637828 16967.32814054232,5304.029844479781 16967.719317644485,5279.9841107809625 16968.00039426674,5278.567062363523 16979.637257697876,5270.561015998217 16981.339446071186,5267.130887422798 16967.424260008964,5255.990549987095 16963.4487006134,5254.661727784813 16983.318050728936,5242.266866378923 16987.008164435625,5240.550879961898 16999.52612297784,5207.579806834896 17000.098179440014,5203.196009614941 16978.682470995584,5141.381595819286 16978.11332724453,5138.523923611705 16961.066685466736,5110.52025365099 16958.510198924516,5107.949076253892 16955.94264408009,5076.223599577701 16956.509457662294,5073.365181360365 16973.825525217864,5059.781789206114 16973.539788257855,5054.636853958102 16963.596666337864,5042.635644725669 16959.620233128953,5039.493207295862 16885.203668222297,4996.3621121280885 16882.93058847118,4993.218962705258 16902.52090086229,4984.634844071668 16903.088005715632,4982.633649351104 16893.70412432897,4953.19530169302 16894.555218515627,4951.479778097913 16906.76675984892,4952.617673702334 16909.60694445338,4953.473963693919 16915.84975817782,4942.122921066562 16916.1319998845,4937.834949712706 16900.05383455119,4907.034484048403 16902.918777200044,4902.902053408878 16886.389432915603,4894.619492067228 16881.31636397337,4891.415155657538 16860.259501537832,4854.945899453101 16858.444591244508,4850.894507163175 16823.244768737815,4842.728114819183 16820.175353768922,4838.673148754955 16818.198788008944,4789.948595140973 16817.809941075626,4781.362692148512 16788.657198106695,4740.607484521315 16787.361041662283,4736.960080105666 16787.641535742325,4729.620795572904 16790.122000524483,4726.406882491108 16807.846721448936,4714.260741956619 16807.134854853386,4709.263802512578 16760.648859333363,4654.315181776736 16757.45623668452,4652.532110752916 16731.924867440073,4657.187574514275 16728.02503853338,4659.331783536676 16722.715166177833,4676.112694500916 16719.169814213354,4677.542831077328 16678.457103386754,4670.78005610613 16674.958354800066,4668.846019426099 16667.570554337814,4628.943983464589 16666.169831564475,4626.480359255889 16617.546779902303,4582.423574619665 16614.826016453386,4577.414292926522 16600.16692397336,4522.465009216074 16598.765909928945,4519.825126501062 16607.349378302286,4483.020092920662 16607.791527848924,4480.313590594189 16617.78736984008,4469.057133848983 16619.078865946736,4466.706505201961 16616.643256915617,4438.319304575183 16616.580051084515,4431.9478450932365 16592.460472915613,4416.798154851451 16585.998332044517,4411.360397416254 16573.57183263119,4413.975505349896 16567.978553484485,4412.202955637622 16589.034833377867,4376.855311276071 16589.980008133396,4378.024094021384 16588.304325431178,4343.696418959269 16588.128106408927,4341.935537156212 16600.001773253374,4311.640939052188 16600.175079564506,4309.351816401904 16590.878288240056,4273.313502984733 16589.65145432006,4270.320907496061 16581.072063742322,4259.937741622125 16578.62159988453,4257.8263538471365 16562.87460980448,4254.316100460623 16557.161618231155,4257.425922870607 16532.17143071117,4208.595844880532 16531.521896133432,4205.699952982046 16517.882835084514,4192.332232095097 16513.64687931561,4188.633621985646 16511.407587013382,4164.87990205214 16510.705041093403,4161.534554011683 16487.19014175114,4126.525445290637 16485.251441235596,4124.751565980288 16477.387703777873,4095.3767345222586 16476.330389644485,4093.607223676314 16449.564904702303,4075.158384701732 16445.177487955603,4072.3077974745247 16436.45945232897,4057.9113389510603 16435.033388968965,4055.7315495231014 16362.81271696894,4066.224066720082 16358.42879547563,4068.625876520149 16332.535958782304,4063.3490147715493 16330.954939191171,4064.0725638185686 16336.058882871177,4040.614556082961 16337.969912631146,4038.348152894032 16332.230997928942,3995.1045102578646 16332.123227617878,3992.8144555816834 16306.034656737815,3956.953702124796 16305.73406495119,3956.6898188299674 16335.989269075624,3941.0722943958535 16338.680905413406,3940.436138102232 16349.49405414227,3915.5215012386616 16352.347345946764,3912.160984244634 16358.359764222289,3869.7333731756953 16361.279174568946,3862.51045870877 16360.113798853417,3860.1064428710088 16354.483528275625,3855.836813236616 16357.156523262267,3841.373086612235 16360.08554555563,3838.5416429039033 16352.981151884538,3819.024133038969 16351.562952844542,3817.3493279578106 16355.762499724515,3811.5307894276048 16355.675409662246,3808.5066337833123 16364.259460577858,3795.5736887395906 16368.426385093422,3795.7810553324234 16388.25524852448,3810.5752666983462 16393.2027796178,3809.936680154089 16400.14610036451,3799.2688731990347 16399.40918445337,3796.622008948383 16426.25651657785,3784.9210620801023 16440.381126568944,3787.5355527029897 16436.209250444488,3760.708750900376 16435.52388952009,3755.3544479731063 16414.1859504623,3726.8498722757504 16416.636996862304,3722.0604006937065 16439.371289626695,3726.0881064110727 16454.45592920005,3732.3842948433303 16491.46891437337,3732.1869319378457 16497.954939475632,3732.4653019959514 16488.731257200066,3705.89110610474 16488.1918231023,3700.726544620091 16459.511521875625,3662.483831587102 16456.921247884515,3657.6519572789257 16463.608250053425,3641.91478453725 16469.22978249786,3635.30375055442 16445.71459188452,3587.2875113492773 16442.634399884497,3583.383335204475 16444.686404862266,3558.4822524217598 16444.39542502229,3552.6832819155825 16486.36293179565,3537.3323477200756 16489.19729097787,3536.960238721891 16513.9209654312,3562.2000238605833 16515.068573608936,3563.0426266407885 16525.71540653339,3558.555317548191 16527.96081552893,3557.9221844989515 16549.47934267565,3576.353308837075 16552.140686817875,3580.3067098261963 16566.05063000007,3567.5629144886334 16572.31383270229,3565.800820501201 16556.496355013398,3508.0390622671403 16556.36091394676,3507.462469539925 16572.03450370673,3491.686929321062 16575.069548684463,3490.5340211807925 16574.689439884503,3486.780358455406 16574.282534142316,3480.321907406411 16560.02452198224,3466.8695282307744 16559.82995288004,3465.278755976382 16574.361177342245,3436.0825667170866 16761.506652755605,2839.2079366477265 15788.27345979563,1898.6616758720775 15773.54329716455,1885.7867014840303 14972.752213928965,1294.9912324173201 14955.804021786724,1282.9867902528786 14492.52537744894,992.2954280173581 13042.697790035629,234.06815214492963 12948.615764791146,194.91598523801076 12936.298783315578,191.15278353964095 12813.668402657844,168.95486117879045 12512.311738053395,147.09458499812172 11538.240266835608,88.84355546589359 10202.971063777863,9.055609206174267 9872.958564720058,23.965092150348937 9854.293329377833,26.970374557335163 4583.87248073786,1516.9681643172225 4423.575793804484,1562.3784242549737 2425.4111158311716,604.3083971746673 1843.361141786736,350.3125311457261 1466.9409991378197,771.4957933312107 1425.4136030133814,821.7644819232228 1417.8583216622937,841.538420969533 1420.6708355111768,850.2260233470879 1451.1707073689322,866.4133203524107 1458.3581133067491,872.1009505773836 1463.1707858756417,904.7885461777041 1459.7958275111741,910.2884076404443 1441.1081642934005,919.6632969124767 1432.358380115591,918.4133560996561 1399.0457031378173,869.6635674891586 1384.4833126667072,862.3507920239063 1316.795692968939,859.3196874126734 1312.483132897818,863.9136002334708 1328.988301680074,911.0008089571202 1329.1703461245052,928.631990244583 1312.0951597778476,960.4577139285102 1309.9397535555763,968.0881537968235 1316.0812049334054,1001.118468171655 1313.2858760800445,1011.5326573616185 1285.8568755467422,1035.0764863296936 1283.0094091645442,1036.7471140052367 1269.563169591187,1025.008363767789 1256.9109350667568,1023.2928274303267 1241.6253184267553,1033.7336623311567 1229.6968926133704,1045.9817340806185 1210.0360926134163,1051.8272315951472 1200.52026541339,1050.039683575771 1178.9696984445327,1042.080877830187 1172.4976543555968,1037.9788937532867 1168.9677397600608,1000.6852180916176 1164.7058608622756,1000.1258615442493 1139.9550981956418,1023.3232458138664 1136.6491710845148,1044.0624638905574 1122.3005736089544,1051.8880666448676 1116.323107866745,1050.4141445821442 1120.093321128923,1018.7291735537292 1113.842060542258,1011.6537416511856 1100.9171962578548,1007.1883797123737 1079.8125653600437,1012.9596790914948 1073.9504429778317,1012.658150040399 1070.4394610045129,984.3571363104566 1063.9499406489194,975.6334785954386 1028.4486525422544,957.8265041979321 1025.1604929689202,955.0304856158036 1029.5345112445066,942.5589137765055 1036.0913152267458,939.8818783122406 1055.2776345867314,946.431210548355 1063.3898263023002,944.9379370090028 1066.458076186711,934.4855509862246 1065.427850266744,928.0096837648598 1049.8797983556287,905.3547488661425 1044.3115685245139,897.8617674220295 1038.345462355588,894.911108230619 1033.6402688267408,899.6549015289929 1032.214788008947,905.7647065868077 1034.987688986701,917.2555645486864 1022.2705010044738,931.2987183096411 1012.4415573600563,928.1355037105677 1014.0292761867167,898.2977199383022 1006.0874780711601,888.9379905695969 969.3048883466981,889.7369484303927 961.9700992267462,880.7280341388832 975.4303198133712,859.7707206111809 974.2597012178157,854.5742269662151 969.0182775733992,852.1994207189709 965.2766088800854,852.5748413338151 949.6435058044735,869.722936682083 945.7296958845109,869.5084986850561 941.8161772356252,867.7938791713968 938.9800704267109,863.752623125125 941.0673192089307,842.0836874930828 934.4330371111864,835.8901985352568 912.6220737689291,839.3925019008166 905.5602056800271,834.3495001945703 916.2323791911476,806.5222970014147 917.132406924502,802.8275808464095 910.1366573778214,771.3655227956187 906.321297093411,767.3380575625633 891.5002578755957,764.3964675453899 888.5945372711285,766.3936657259183 886.4880645956146,789.4236342357763 885.3258928622818,792.9647961071169 859.892973253387,775.905189883284 851.9671950489283,774.3543558994133 842.7458429422695,774.2122698467865 837.8740423378767,774.4798996922036 822.7058079555864,790.2474842393713 817.7008964534034,791.6523699554091 773.6607044533594,748.5306971376704 771.5099585689604,746.7993281396048 768.5188955289195,729.1741107977286 761.6885879734182,725.1801527514763 719.2870872445055,751.6930004688038 715.4175505333696,750.7961539437238 693.770572826732,742.3998472569801 682.6644053600612,738.9940987261652 679.5134344800608,708.5947168333514 675.1967966133961,704.5997903375828 628.3248668711749,708.5069781029888 622.5673108178307,706.7817435916804 618.1332906933967,705.0597556967696 612.4066093778238,699.6775273641397 613.925879493414,682.3808775635262 611.3367705867277,674.7411749723542 588.3219837422366,673.1514831849781 583.3814431555802,673.9089578999847 576.1707355289254,677.6165579071094 575.5873194934102,679.2328308607393 577.6320426933817,699.3301142974815 575.7323725066963,705.2556175677746 559.0003035289701,723.2053236687498 556.896452293382,727.5384214756486 565.8591556533938,758.3253859997203 565.5801179289701,760.1613071551255 551.2577348534251,770.6072356909572 548.655227475625,770.5540639986575 546.6396313867299,769.6947499802627 538.1353887555888,757.1298937774554 523.002689448942,754.6361048148538 518.5331342489226,757.2294443332066 513.4519097156008,769.8197035598278 512.2932332355995,773.6764191468537 518.0554496266996,793.3750950849208 517.4254302133922,797.9164348332852 493.7063498222851,824.1807136952702 493.5225577511592,829.4869509307027 512.3896439733799,871.9916642590833 514.3583454134059,874.1008881042653 541.6530699644936,873.0307699076075 542.6031963289715,874.335114761634 545.130264488922,896.2381675341458 545.3225034222705,899.4903858166945 524.6431283467682,919.0262171599024 524.4808903378434,919.5560832409828 531.148377342266,930.987418265926 532.5945384089136,934.4533578241535 528.9355907111312,955.1908574414847 530.5777772356523,960.4396980361489 549.9959484000574,978.0221699436952 551.3806512622978,978.9238344834012 578.2209928800585,973.287310372194 579.9287154045305,973.9704286466294 586.6460097689414,982.8281832662469 586.9649516356294,983.8527031495178 574.2498025511741,998.4702352281602 575.0062336267438,999.7307087385852 597.9994664089754,989.8172842774366 600.4586684000678,989.6808400050213 600.0488499467028,1001.7489988013695 600.6407128444989,1005.0735277954664 618.0896000267239,1023.6138446940749 617.2297677067108,1028.8824115311436 372.7417486489285,1104.1242390082043 344.89797805337,1112.4209688783449 345.6788759023184,2262.5711832359375 345.328768026724,2277.1712211412087 356.258425200067,2280.47336149108 369.97729453339707,2288.19198217566 397.47882157337153,2271.1211541315715 476.2038687556051,2245.34625954894 487.5022751556244,2249.3419831013016 491.52880699560046,2265.6462428293016 488.61463952891063,2274.4483855548024 503.87724575115135,2299.2795843312924 508.8897303022677,2301.835704070196 512.977137804497,2326.4857496083423 516.7959933422972,2331.317058271059 538.1709238311742,2341.529393067438 537.545856026758,2346.404580240691 557.8832788178697,2342.479420712887 564.8085407555918,2344.492143343872 573.4770602934295,2359.667075963196 580.333290977811,2373.310762525449 621.946029537823,2390.173195413401 626.214607671136,2391.2045813995355 634.68331522675,2402.7046000348346 637.6397170044947,2407.8358002390305 657.5335338934092,2407.3108251517115 669.3145765244844,2407.810731209902 672.3085522755864,2411.1608330565796 673.358293360041,2419.6544544679055 685.2272998667322,2417.9795657109644 689.7833625866915,2420.4106456747104 700.0585335734067,2442.21078175414 692.6646164178383,2449.654542042612 714.7333546933951,2459.985769839055 728.514556044538,2462.5606721605 734.5709562578122,2489.5231914635224 737.207542355638,2497.9548475505726 792.1960328800487,2494.673142036918 796.1022697511944,2493.9733305952104 802.8335451289895,2497.2358694387076 814.2708878489211,2508.07327768064 859.7147153333644,2520.473244450608 870.6397121689515,2522.054489367554 907.158410266682,2552.9794180938334 910.9897904623067,2551.3669606226904 923.2569645778276,2576.198771874624 925.583346942265,2578.9231941126345 919.1509157245164,2603.9424962240446 915.902077751176,2606.979415057198 925.4601392622571,2620.7328724586696 927.106986124476,2622.0158550308843 938.4333545512054,2627.2545125822944 945.0149165778421,2627.451780003874 957.1647084356518,2641.7607955250714 957.9520142489346,2645.9670383116754 977.9958357600844,2655.341902407963 983.3368741244776,2657.8611951905477 997.6397420356516,2735.015802278853 997.8707200267236,2737.8380025183724 911.5350499823107,2773.0682982366125 904.3555083645042,2776.1737287318974 898.2915351022966,2780.6032193466963 890.3724561333656,2786.7995815236063 892.3225162222516,2800.843200756208 895.4216408444918,2804.410535123927 886.346798106737,2816.8480573287525 883.8468181600911,2825.1229529892735 856.7757898222771,2846.226185250125 855.7289614489418,2847.5233445801714 839.1652471733978,2845.9260695287085 835.7725212711957,2845.952897165407 822.8342585156206,2862.7123748600425 819.1342415911495,2867.117041695077 796.7850092356093,2874.524836601893 792.9690664089285,2877.2493876936205 758.6841264623217,2872.047912417009 748.1156454667216,2870.3805106041546 721.9364892711747,2880.213604226039 715.1591930577997,2882.243004475982 704.0218595822807,2906.778871668357 703.1929020000389,2908.3185723899805 684.5218412356335,2918.573165092588 681.9292370756157,2920.279699601495 602.6216476711561,2939.335868202412 600.2419626933988,2940.2732801403326 583.1956121867406,2932.758633094403 580.3466894489829,2932.6354127299564 572.5342157066916,2942.747984806163 563.8968621778185,2942.847916180297 498.1467779111699,3003.910455502366 495.58417467563413,3011.9731660632824 501.0967717244639,3023.285561377037 496.39682107558474,3029.0855575088353 500.3968472444685,3031.8981480474176 506.9216114045121,3031.5854090898356 513.0091776266927,3029.760556320398 518.459151386749,3032.560470500641 516.2466560267494,3040.19793006478 532.9967838134035,3044.7731291020464 538.4281162222615,3049.2480925771233 559.2682729511871,3046.481823359878 559.4031314756139,3047.239047885785 548.4973585333792,3078.3234119179833 547.8367556533776,3082.7183617226256 487.12187508447096,3117.4166510999494 479.0842487734044,3121.648160589946 493.009338053409,3172.6230483774852 492.37786228448385,3175.6418675149034 474.00914093339816,3179.523025756149 471.70285627560224,3181.235635133664 459.19043188448995,3179.9792503023928 454.1403733600164,3170.766896343004 439.2966149956337,3176.0043728162127 431.6778365423088,3173.3854903536558 422.2091952622868,3175.7323464916262 419.0122035467648,3176.88234247503 410.29038139560726,3191.535401794681 410.1275608444703,3194.6694022128067 396.82812191115227,3195.37936965251 394.1778460711939,3201.029326588934 402.6153876178432,3211.2979624923028 403.821832560061,3216.0917082478118 414.9341167200473,3217.0291769167816 422.2091952622868,3218.948023363977 417.8343031734112,3227.916839810234 409.4343356000609,3234.6478982270637 395.2840937511646,3236.5793860820413 391.22785225784173,3240.9168223042216 401.33059074671473,3264.0999189022405 403.0755959734088,3270.2858656152093 423.6550650578574,3286.7727124757657 424.62499785784166,3287.2418587533466 435.23425680893706,3284.6105702898058 438.5279505333747,3287.6293757850362 445.71943426673533,3298.447381647333 446.86383846227545,3299.753138106462 454.5027146223001,3345.6823048367223 454.53795842675027,3346.046227357787 474.7402314223,3360.2167169542226 478.6217102489318,3362.141796126176 506.3926630667411,3400.2283824091137 506.8115109244827,3400.9134657094546 541.1468407734064,3400.291734216007 544.7498644178268,3402.070003219211 548.4842513334006,3414.541967801022 549.4466110845096,3420.510498642543 558.9467096445151,3426.857331066072 559.3271097156103,3427.7728159092076 553.4364427645341,3451.41339503738 553.4935319022625,3453.29176120201 570.2331739289802,3463.101053113671 570.5436689333874,3463.4855619134905 575.2715816089185,3492.0481520181347 575.5145017156028,3492.663349945593 614.7889157956233,3527.818633414776 619.6968340178137,3531.7480480216036 628.215348933416,3543.1355231288762 640.6342752978089,3558.6481220364512 645.8655044533662,3578.1793169438315 653.8530321334256,3581.5293475709914 657.8661655022879,3642.148693224677 657.3710046134074,3643.512963192683 628.7932308178279,3648.1466372515133 628.9353711200529,3649.616658881918 661.0252919733757,3673.9916327692044 661.6439518133993,3674.7018815065094 664.0515988178086,3686.6926737251633 663.7408125423244,3687.8162147229013 641.9397524178494,3711.091287535237 641.7125609511859,3713.834680582484 649.1836649511824,3718.6147610168846 654.0886704623117,3723.121751016093 667.2992717067245,3752.873909776885 669.1695235111983,3756.9886957594717 667.668312204536,3774.7393361848954 667.7958889511647,3775.261591518385 674.9101858400973,3780.771326265094 676.6452878489508,3784.488651371066 629.2409145156271,3839.396997087373 625.6434250222519,3846.352616502467 631.9910963466973,3895.9511348629894 643.930881733424,3911.9995849288243 643.3835833156481,3961.9509803670517 648.5026730934042,3969.19357819212 631.4735075822682,4024.0051550842763 626.2682015555911,4040.4490522615088 542.2332820178126,4159.562852326402 542.0745392622775,4159.7677963883325 428.7604650933645,4186.755897725263 406.02850249782205,4192.185595285875 371.9678413067013,4178.363371721614 359.91475145786535,4173.513687225088 346.6173514223192,4205.758548122452 346.46326900454005,4206.093040926295 310.26904692454264,4226.488966337434 294.16524973337073,4235.4611852709495 292.86588930676226,4248.925270074484 292.4572359378217,4253.240527454385 277.8304745511268,4262.232851919631 274.90611259563593,4265.8228721552005 247.80158808006672,4314.752960826765 247.78090783115476,4315.70982485541 205.173769697838,4357.176599335828 205.18076020450098,4357.443628192501 190.38040123559767,4348.118189972796 189.77484859561082,4348.061663012457 172.0498364000814,4368.806870197033 171.60419160005404,4370.479977878305 148.96718338673236,4384.031088617776 146.34108304895926,4386.405144072458 147.6689880444901,4392.761547387607 147.76306861336343,4396.549583143467 125.98618399119005,4408.454126159922 125.40684575116029,4408.735568471107 109.66597236448433,4406.752811808168 107.96786178671755,4406.425737588754 102.44477897783509,4418.36285587927 102.3670095911366,4419.41560555037 79.79378975118743,4416.853795244388 75.26627160003409,4416.756939743849 30.502270888944622,4442.12426458011 24.780541182262823,4443.299163032818 19.938158960081637,4447.30399454353 19.168038142262958,4450.025588123623 25.956402657844592,4458.009284661763 24.925302924530115,4460.743805744423 8.052550000022165,4472.579682458512" stroke="#009edd" stroke-width="6.10386434847821px" fill="none" stroke-linejoin="round" vector-effect="non-scaling-stroke"></polygon></svg>