<svg width="401.7701302043861" height="327.11773578089196" xmlns="http://www.w3.org/2000/svg"><polygon points="5,218.87947067298228 15.98732885334175,225.60727687482722 17.595145386643708,225.88746604102198 39.995350186596625,222.8956047060783 41.049169066594914,223.10089886793867 47.385480817756616,241.12407214718405 48.34813184000086,241.94472798443167 73.3563781689154,241.05188676941907 75.2039108267054,241.0667750055436 97.40284728887491,263.4661054139142 97.31226197327487,264.3439684115001 121.9887505066581,242.77169691189192 124.66291057772469,242.86734177963808 126.71112903114408,264.4445660529309 126.90278542216402,265.1194261633209 158.6178403556114,292.53926901274826 160.16565503994934,294.07284183148295 161.9627977955388,301.6638688322855 162.3656257421244,302.1018220016849 193.8540717511205,320.4630421506008 195.52130759111606,322.11773578089196 199.22365468437783,317.7814106660662 199.95066737779416,316.8690351040568 199.61366670229472,298.2982303315075 199.77590471110307,295.48868083109846 213.43477219552733,287.90240103856195 213.48778353771195,287.8225630533416 210.10641720879357,279.6523217088543 209.8795170133235,279.2458991454914 249.54743836435955,265.11626840021927 249.86346751998644,264.79688298818655 244.47320433775894,252.95899356843438 244.29582023108378,252.45823413861217 246.055097742239,245.67034943122417 246.87968625780195,245.0649064318277 248.24254378664773,249.92283995402977 248.86965048883576,252.25026074092602 261.03866623993963,257.0746512506157 261.37013276445214,257.52758089243434 281.5855129599804,256.7669833688997 282.0110600532498,256.9645765743917 280.7352925866144,262.87785403232556 280.64878506655805,263.64790364174405 296.19741952000186,272.561244683282 296.27810161781963,272.57973952183966 294.0015266132541,277.12220491305925 293.70122609776445,278.17864162422484 312.5461757155135,282.36103436141275 313.6556273777969,282.7886515422142 334.0312066844199,271.0063193658134 343.85723761771806,269.0232886078302 342.37058986665215,260.8234729063115 341.8870798222488,258.1993044994888 368.9886916266987,266.38478325342294 369.57560291560367,266.4497425640584 373.5264042665949,252.92109830037225 373.46086826664396,252.3553753028391 383.44826339546125,244.47028939449228 386.82933845336083,242.68281933217077 388.2405469866935,234.4684800634859 390.1061384533532,232.82801150507294 389.7292336355895,223.60082318494096 389.29960874665994,221.23339168634266 388.97222001780756,220.73887636058498 384.39052543998696,221.29295002599247 377.70061055989936,203.49285671452526 376.2926060089376,201.70279522700002 381.3077119999798,196.29732519050594 382.74804764438886,195.7657507508411 380.3235069154762,187.9878294733353 380.79303594667,186.72833613160765 396.35914666659664,171.8864359774161 396.7701302043861,170.4603185306769 392.16775537782814,163.97858769469894 391.65453567996155,163.3602813630132 378.48179968004115,171.57187859388068 377.1346707910998,173.94661768717924 373.2645515376935,163.94112830981612 372.8436647821218,163.09129499655683 359.6616081066895,167.14049768308178 355.0837000532774,169.19350323209073 333.2229293511482,163.27678730816115 331.9197824000148,162.97981900605373 307.7803977956064,141.50992704823148 307.3102862222586,141.35014403809328 309.2361708089011,127.74694554961752 309.352679253323,127.54156177106779 284.02665614220314,134.58002149162348 282.8033174755983,134.40127549745375 282.1884441600414,123.37426062568557 282.06348885328043,122.99733984470367 273.9405201066984,114.22325281146914 273.1765159822535,113.27165600057924 252.62326129770372,104.3775464676437 251.26826808881015,104.48363507713657 256.55338240007404,90.88039785739966 257.25068544002715,89.30250836128835 251.37196060444694,67.70933355565649 251.3705042488873,67.54452986334218 257.5285580799682,67.95134642365156 258.40586666669697,68.04526179272216 259.6024083910743,57.20996115996968 260.9841985421954,55.9009471219033 291.64863857778255,47.41271055082325 291.6908728888957,47.00721040996723 281.7154198754579,34.671156961412635 279.70244522672147,32.63720818172442 266.17261084448546,33.11182803061092 264.524598897784,34.00190681195818 259.0521972622955,17.347665281558875 257.5911813689163,14.333978029200807 245.68751359998714,13.901318779913709 240.59667711996008,12.30300123966299 234.19249919999857,17.873803029593546 231.94505130662583,18.343487158650532 231.8728160711471,26.353704127599485 232.35923882666975,28.443257989827543 221.0852992000291,30.061779161449522 220.81412579549942,30.074875405523926 177.21258808893617,5.300344693590887 176.06119338667486,5.257438334054314 122.34788778668735,33.20124250132358 121.18309461337049,36.390786266711075 89.71678520890418,38.48205040249741 88.40053105773404,38.30819310218794 75.21760056889616,28.64557379228063 75.39760611555539,27.703990841051564 59.774697528919205,34.34872495918535 58.718839751090854,34.467040399089456 40.8545999644557,31.54661727527855 39.36270933330525,33.103699440544005 37.98383189330343,37.70443303883076 38.6645324799465,38.85008552973159 51.10268273775,44.19984635722358 51.49094712885562,46.44501798925921 45.83562723558862,50.888782203779556 45.46309148450382,51.21389909251593 48.7410565688042,78.45878087857272 49.16048696881626,79.96541307371808 37.19856497773435,83.87484263000078 35.99241130670998,85.02386480453424 47.152172657777555,93.58377688610926 47.38635463116225,94.0993473775452 35.87706794659607,104.35813450370915 35.89774819556624,104.51072152238339 52.84710542217363,126.62478039576672 53.10721052438021,127.907189902151 51.153946453356184,134.71408089145552 50.099836302222684,135.29906640021363 37.89033386670053,135.06389880296774 37.77586431999225,136.1562298372155 53.88694328884594,152.83075234887656 55.513401173288,154.97596502542729 51.79386908444576,167.98489953111857 51.68901148438454,169.5730521560181 35.375499093323015,181.3089571573073 34.15740330668632,182.88708480040077 27.69555370672606,201.06203358061612 27.190489599946886,202.49156120873522 10.124332657782361,210.0884772562422 8.291946097859181,210.76440769177862 5,218.87947067298228" stroke="red" stroke-width="3.5600606305269356" fill="none" stroke-linejoin="round" vector-effect="non-scaling-stroke"></polygon><polygon points="37.873440142255276,37.00990369147621 49.95216184889432,42.62929624598473 50.88102542224806,43.67151419923175 47.06187861331273,53.57910989027005 46.48137528891675,54.45917128690053 59.02554823108949,62.84373437677277 58.67980942223221,65.33705143164843 85.84637468436267,75.23869784426643 88.92511032882612,77.89531492412789 110.50567822216544,77.41447143367259 112.71729976881761,78.41904935252387 110.85199957329314,88.6523874849081 110.40489841776434,89.47542212973349 102.69087431114167,93.26323770091403 103.03923455998302,94.61807688022964 113.1341087288456,95.23973802954424 115.88050403550733,95.53724989260081 113.54625735105947,108.44047769316239 113.44897279993165,109.41692423424684 131.00155249773525,137.81096553721 132.3597496888833,139.6566174927284 133.76134627556894,151.69021096464712 133.98183850664645,151.9741056766361 171.94465877336916,148.64858771290164 174.45192049781326,148.2685510852025 177.3031734044198,155.4959039966343 177.3931761777494,156.03840844420483 207.78615153767169,162.49735748430248 208.0439264710294,162.67156728671398 227.06305621331558,162.5244367372943 227.47083576885052,162.21257380349562 243.98794666666072,129.1963627259247 244.85709966218565,128.77702128019882 251.2138003910659,126.94165947462898 251.9629496888956,126.54036950948648 256.9136847644113,150.59660356270615 258.46470343112014,152.0079563728068 268.2557818311034,144.0574121370446 269.32853333326057,144.1851466987282 269.89738581329584,136.83013216842664 270.0482642488787,136.023074073717 281.81357823999133,138.25285819306737 282.96526421338785,137.2345628439216 282.1884441600414,123.37426062568557 282.06348885328043,122.99733984470367 273.9405201066984,114.22325281146914 273.1765159822535,113.27165600057924 252.62326129770372,104.3775464676437 251.26826808881015,104.48363507713657 256.55338240007404,90.88039785739966 257.25068544002715,89.30250836128835 251.37196060444694,67.70933355565649 251.3705042488873,67.54452986334218 257.5285580799682,67.95134642365156 258.40586666669697,68.04526179272216 259.6024083910743,57.20996115996968 260.9841985421954,55.9009471219033 291.6908728888957,47.00721040996723 291.7028150043916,46.19078913418343 281.7154198754579,34.671156961412635 279.70244522672147,32.63720818172442 266.17261084448546,33.11182803061092 264.524598897784,34.00190681195818 259.0521972622955,17.347665281558875 257.5911813689163,14.333978029200807 245.68751359998714,13.901318779913709 240.59667711996008,12.30300123966299 234.19249919999857,17.873803029593546 231.94505130662583,18.343487158650532 231.8728160711471,26.353704127599485 232.35923882666975,28.443257989827543 221.0852992000291,30.061779161449522 220.81412579549942,30.074875405523926 182.37886378669646,7.165634067496285 180.30297457776032,5 153.7571080533089,13.213036537636071 150.7208979910938,14.62663223373238 122.34788778668735,33.20124250132358 121.18309461337049,36.390786266711075 89.71678520890418,38.48205040249741 88.40053105773404,38.30819310218794 75.21760056889616,28.64557379228063 75.39760611555539,27.703990841051564 41.606079431134276,32.35180355142802 40.8545999644557,31.54661727527855 37.873440142255276,37.00990369147621" stroke="red" stroke-width="3.942201708224764" fill="none" stroke-linejoin="round" vector-effect="non-scaling-stroke"></polygon></svg>