<svg width="255.79145727993455" height="233.69958414963912" xmlns="http://www.w3.org/2000/svg"><polygon points="5,183.47515547281364 13.792601031018421,202.2402509864769 15.0843884088099,202.48792936833343 20.15687480883207,201.14117482950678 20.826507093268447,200.4392670050147 22.116255573229864,192.18515968008433 23.360565759940073,191.09841823665192 34.82907448883634,198.09867362922523 35.62511843547691,197.95581348316045 50.21896618662868,183.77062536921585 50.982970311073586,184.3951802017982 51.91212515544612,191.3536282441928 51.56900778657291,192.2439859880251 45.52425841765944,197.67097749904497 45.38240938668605,198.13847984554013 55.85389710217714,196.486073570617 55.917976746568456,196.91863721661502 50.72898190212436,202.66793830454117 50.04216462210752,203.93463096191408 52.830502968863584,209.66473263240186 53.05711189331487,210.65275773609756 48.99009336880408,227.67847201734548 50.16158577776514,228.5801819342887 70.50862051546574,218.3741505627404 71.64341276441701,217.64266637241235 83.72854243544862,221.70958174823318 87.66303260438144,222.37117815372767 96.1736831999151,203.8815573923639 96.58437546656933,203.11110464506783 102.63873678224627,203.32251502247527 102.94894051551819,203.101816736802 99.0971713422332,196.11543042969424 98.86619335098658,195.43562153133098 117.2762751999544,204.0721799036255 126.21567687112838,208.22779838345014 131.8337140622316,196.69970173441106 224.4378296887735,139.93238924187608 227.6004514133092,138.0225084152189 246.7331768887816,117.11095798166934 250.79145727993455,112.64966043207096 181.59738339541946,71.0959474282572 180.7794941155007,70.63260258419905 175.50981717335526,78.11902145441854 172.4604999111034,82.4929520926089 152.71144476439804,73.35955229896354 152.31706367991865,73.46399177034618 133.0302557866089,50.69546560215531 132.59742691542488,50.178082563041244 126.06072064000182,55.131455557013396 124.79747783113271,56.11972696945304 85.36839879106265,5.542278351902496 85.01130040886346,5 74.55583260441199,20.5462620810722 72.08206705772318,23.5571176520898 63.64598186663352,20.25367308309069 62.85488952882588,20.91410034900764 49.903519573272206,54.42775759770302 48.48153400886804,58.16662530746544 33.93632853322197,64.58026522101136 33.738555448828265,64.72409644792788 26.445418097660877,91.22462430648739 26.571538488846272,93.06189568381524 15.781400177627802,106.01705867552664 13.949013617821038,108.41614540613955 20.011821795487776,119.90812761493726 20.77203939552419,122.80392644443782 30.479522986570373,127.33757861133199 30.659528533229604,127.76142853987403 22.683069155551493,129.1723385915975 22.151499377796426,129.28825491660973 22.378982115536928,134.04917802923592 21.491479040007107,135.1738045438542 28.1971225598827,135.61046955623897 28.366059804451652,136.1338470550254 13.521718897740357,144.24051032203715 13.262196337687783,144.54930444882484 18.635274524334818,159.5668860116275 18.573816319927573,160.0658767707646 5,183.47515547281364" stroke="red" stroke-width="3.0976256547401877" fill="none" stroke-linejoin="round" vector-effect="non-scaling-stroke"></polygon></svg>