<svg width="212.95508878224064" height="186.0191124487901" xmlns="http://www.w3.org/2000/svg"><polygon points="5,32.896187029371504 32.430748159997165,42.00801459106151 34.176044657826424,42.67220311803976 34.67353571555577,48.20015266444534 36.19892252446152,48.80565164767904 38.30277375993319,43.8332676004502 39.08396287995856,43.646250924037304 42.59319722664077,50.56255166203482 42.110269724507816,52.68795531470096 51.07413816882763,54.028640204982366 53.22401024005376,54.84267251152778 54.250740906689316,84.03901269921334 53.834805760066956,86.22641385230236 86.2459986488102,106.46833377558505 86.12016952887643,106.975147953548 128.0163148799911,119.43525447469437 129.3340253867209,119.68406438088277 133.98212977778167,127.51249501644634 135.20459463109728,130.55902273912216 148.18567423999775,118.09268410952063 150.24612607993186,117.08872928546043 168.42872519104276,127.56472942238906 168.7398027377203,127.52165894821519 167.94113735109568,179.64210990600986 168.24930218665395,181.0191124487901 180.05539413332008,179.46116580622038 180.24792433774564,179.43184826697689 184.18853119993582,133.3649609623826 184.1911526400363,133.2307129513356 180.3839479467133,112.01435592985945 179.25818510213867,109.18064644892002 184.46465621329844,108.47954506590031 185.6105167644564,107.7491141477949 185.1229289243929,99.76095321046887 185.1261329066474,98.43521620688261 195.36868152883835,80.55965648026904 194.155537351151,79.05231525190175 207.94722446217202,74.38127804972464 207.95508878224064,72.74694115685998 189.0038252088707,12.307212678540964 188.91294862225186,11.679606206307653 125.00631921773311,41.41991497139679 124.34804650663864,41.729320660524536 124.23765475559048,48.702978207496926 123.93531534227077,48.823986185423564 67.17939171555918,5.55656532687135 66.42470826662611,5 65.55817671108525,19.127788419369608 65.83371918229386,20.72952435683692 54.9171692088712,39.70236155844759 54.581624888814986,40.36289012001362 21.970037475577556,24.511481109599117 21.662455182289705,24.443177265347913 5,32.896187029371504" stroke="red" stroke-width="3.0986627886903704" fill="none" stroke-linejoin="round" vector-effect="non-scaling-stroke"></polygon></svg>