<svg viewBox="0 0 269.447178293208 271.04359267298355" width="1000" xmlns="http://www.w3.org/2000/svg"><polygon points="8.05255000000011,126.60707998244436 12.421034124424978,164.0638727284164 12.409674550966656,164.2503513467742 47.26375824886031,248.45592943757185 47.699208559911995,248.9337655398773 86.46418946653262,225.9091457871615 86.72138185773633,225.77773840961856 124.95421044433147,223.44649466561498 125.58452112877399,223.35873719593621 133.94254566214636,230.59701790396468 135.86114847110707,230.5988366514572 142.02124119990162,262.82737973545557 142.59213257776696,262.99104267298355 144.43704379545647,251.1965393624629 144.13324802657712,250.5382141863589 171.73846758213017,252.827340447962 173.2187073688035,251.09970021786978 145.9210701065383,223.01725572054386 145.0891998132936,222.66895315694967 145.3906654133241,211.06688494500816 145.37843202657655,210.92410039230128 176.8432850754832,207.5763668935757 179.3872469599371,207.1821112656977 178.37449730662752,198.63199954099366 177.65738783110987,193.34951582694305 189.51386967986014,178.1343720200599 190.9652736265923,174.2026194703427 200.5836282577145,177.61499363292353 200.94596951988183,177.30209256927594 203.46954242661718,162.1567785481235 202.88991291551042,160.23966127957794 245.83579935096327,176.21102850451246 246.4696052887955,176.85729929342745 260.9833534842835,162.743508566498 261.39462829320814,161.91708296075342 239.50880827542983,117.8636393748817 239.10452397328459,117.62980892099552 254.43295746655326,80.33881971150515 253.20961879994843,78.4291704259009 215.13232898663387,72.16047052926262 214.3141484354635,71.87835885471543 180.761172791106,52.28708197814524 180.04377204433672,51.877527442272935 171.90886118214235,30.717979433633104 171.44544884443872,30.356170372782458 155.38039071099024,28.861596745707743 152.93691735991865,34.330120622391064 119.1887900710351,9.062531835784853 116.42404468436848,8.052549999999997 108.23990900428157,8.5163502635329 107.53153766212176,8.406203479949568 109.15770427554503,58.797985255405024 109.9094750132424,59.89691983626801 99.71207341328386,58.14863289186144 87.94006018664345,54.692971753341794 85.75377922665916,70.12743820370054 85.3387178932096,70.70986659805169 77.89353702215135,59.06282217216324 78.25325684445102,57.42829089301051 58.139530266613065,61.91457655499801 58.09700468436472,61.93960375342397 72.56968365328044,77.30302913269372 73.32844489775721,77.54418311294978 68.82859750217881,114.30520395658789 68.72985659549136,114.50400839295583 8.05255000000011,126.60707998244436" stroke="#009edd" stroke-width="5.815094872179432px" fill="none" stroke-linejoin="round" vector-effect="non-scaling-stroke"></polygon></svg>