<svg width="2592.821528462344" height="2517.9835095956223" xmlns="http://www.w3.org/2000/svg"><polygon points="5,766.2683986084303 5.105440142331645,774.5601205409621 5.4832187733845785,790.2225610994501 6.199163164477795,805.8722461906727 7.252982044476084,821.5019722082652 7.864360106759705,829.3103874088265 10.41735139559023,857.9492503229412 12.137889848905616,873.4651580046047 13.588128711213358,882.8397814240307 14.873216853360645,904.6972101315041 15.180799146764912,911.4404643567977 15.557703964412212,916.4385523055098 15.866451342240907,921.9508618232212 16.633368177805096,934.6379509982653 16.79007203562651,936.7844032945577 17.122703644563444,941.2310372907668 18.96936248894781,964.0000823890441 19.759289742214605,969.9648337748949 20.367755093378946,975.1052080967929 22.200432924437337,990.774223097018 24.580117902252823,1006.2627065846464 25.913848320022225,1014.3364312613267 28.05818624002859,1024.862100607832 30.11135630228091,1035.4442623715731 31.03730716451537,1040.039475615311 31.552274488960393,1042.5123780693393 32.907850240007974,1049.4013984936755 36.12901745783165,1062.9838280510157 38.33947392005939,1071.5663790356484 40.55371690669563,1079.4370292223757 43.08020252455026,1089.4675175238517 48.54736128007062,1108.876330889063 54.75230975996237,1128.7657224468421 60.12800938670989,1144.6878933259868 63.05149752891157,1152.44783780555 68.76361528900452,1167.098775154096 74.79176220449153,1181.6204975100118 81.13331683562137,1196.005828451307 87.78507520002313,1210.2486722024041 94.74412458669394,1224.3414948903373 102.00667847122531,1238.2782029423397 109.56953287112992,1252.051984243677 113.22818929783534,1258.5553284691996 117.42890126234852,1265.6560277249082 125.58128839114215,1279.0846024455386 134.02261646231636,1292.330899154069 142.7485164089594,1305.388469197962 151.75549297779799,1318.2519437146839 161.03859455999918,1330.914515850891 170.5940346311545,1343.3700987998745 180.41657031117938,1355.6136852094205 185.17011484445538,1361.414154787024 190.50183253339492,1367.6388297362719 200.84516096010339,1379.4398067935836 207.24467854225077,1386.4849919955013 220.24177806230728,1403.215034925437 237.77659022225998,1425.7842388831777 255.3114023822127,1448.3520132562262 272.8465058133006,1470.9176395825925 290.3810267022345,1493.4814779388835 307.91583886230364,1516.0438882880262 325.45065102225635,1538.6041523381718 342.9854631823255,1561.1629894318758 360.5202753422782,1583.7196813908522 378.0547962312121,1606.27458814875 395.5896083911648,1628.8280695251306 413.1244205512339,1651.3794075119076 430.6589414400514,1673.928961956699 448.1934623288689,1696.477092593559 465.72827448893804,1719.023081584135 483.26279537787195,1741.5672886904795 500.79731626668945,1764.1100735607324 518.3318371556234,1786.6507185265073 535.8663580444409,1809.1895832641749 553.4008789333748,1831.7266683251946 569.9273105066968,1852.9664030144922 572.6171992177842,1856.4894527838915 580.3096692622639,1868.0192930830526 587.9625264356146,1878.8749163110042 589.743066737894,1881.812561797793 605.2322818845278,1907.3164725980605 620.7302351645194,1932.8324615681195 636.228188444511,1958.3461715879384 651.7261417245027,1983.8576034574653 667.2240950044943,2009.3663991882931 682.7220482844859,2034.8732771872892 698.2200015644776,2060.377879433683 713.717663573334,2085.880206726084 729.215616853442,2111.38025986281 744.7135701334337,2136.878039642179 760.1937558755744,2162.3445005973335 763.7944493511459,2168.1440129182884 771.1044804267585,2179.6724043856375 778.6309259377886,2191.058700276364 786.3711644444847,2202.2993321107933 794.3219919644762,2213.3896561540896 802.4807870577788,2224.3261047127307 810.8443457422545,2235.104393383139 819.4100465778029,2245.720596639847 823.5219208534108,2250.724017655768 828.8349971912103,2256.9271775515517 839.1459945244715,2268.6921636317857 849.7092326401034,2280.2283348697238 860.5194686577888,2291.530342427839 871.5720422400627,2302.592837745091 882.861419235589,2313.4104724927456 894.4743984356755,2324.0596122259158 906.4066107734106,2334.5284492039355 912.3098023822531,2339.5948260822915 914.5616193423048,2341.482375287742 920.5766590578714,2346.412091995997 932.6754784710938,2356.1110870566918 944.9799352888949,2365.544939549931 957.4836215466494,2374.7093757169205 970.1812943645054,2383.5997632730287 983.066837048973,2392.212544653972 996.1341329066781,2400.543445326097 1009.37706524448,2408.588907003461 1015.8476529777981,2412.4272166855517 1021.3054910578066,2415.5241967516486 1031.8824189156294,2421.4038524582866 1053.7929969778052,2432.6146684332634 1062.8704611556605,2436.8714535942418 1064.5755622400902,2437.6717880632496 1070.4615688533522,2440.3694074814557 1078.818719573319,2444.1087747233105 1086.3425436444813,2447.6478377618478 1088.643294151174,2448.7200445114286 1090.5517024711007,2449.6013073301874 1093.7679180800915,2451.0672067982377 1095.460494506755,2451.828812409425 1111.8375040000537,2458.7107551850495 1123.191834453377,2463.153427016223 1130.097581226728,2465.7737901936634 1133.1637922133086,2466.9003777999897 1136.351463253377,2468.051319485705 1141.0552004267229,2469.7238125669537 1143.2883760356344,2470.5147418577108 1147.4765633422649,2471.967997099564 1153.0797457067529,2473.8733013532474 1160.4698763377964,2476.29691317142 1169.6722958222963,2479.204432272294 1176.345025706687,2481.2325499830185 1179.521337173297,2482.2885123383603 1207.1317996089347,2490.248939208279 1222.27964501339,2493.962583273591 1237.5040947200032,2497.3441496184096 1252.7978669510921,2500.3918591265683 1260.3848968533566,2501.8188164596795 1268.3441712355707,2503.134017833974 1284.136890880065,2505.5606058454723 1299.9791266133543,2507.6329494767706 1315.8635966577567,2509.349981922598 1323.8152979911538,2510.119670434913 1326.9837451378116,2510.390439843817 1334.5675710578216,2510.957407235692 1349.7457086578943,2511.929809217807 1364.9407399822958,2512.5780753741274 1380.1459657956148,2512.9022079028073 1387.7501806933433,2512.9835095956223 1395.5460519822082,2512.898268172634 1411.1334254933754,2512.557302227244 1426.7100219733547,2511.876085437427 1442.2682683734456,2510.8542572187143 1457.8005916444818,2509.492888414883 1473.300001280033,2507.7919741903315 1488.758924231166,2505.7529411682626 1504.1700787200825,2503.3764984745067 1511.9391530667199,2502.0903100479045 1519.5261829689844,2500.663354065735 1534.819955199957,2497.6156474430463 1550.0444049068028,2494.23408429994 1565.1922503111418,2490.5204437508364 1580.2562096356414,2486.4765038441983 1595.2290011022706,2482.104399778822 1600.9778190222569,2480.322370354552 1624.3068873955635,2475.6904748318484 1649.4395064889686,2470.7006529095233 1674.5724168533925,2465.710744142765 1699.7050359466812,2460.720390303002 1724.8376550399698,2455.730307822989 1749.970274133375,2450.740138480556 1775.10289322678,2445.7495240285643 1800.2358035912039,2440.759180937079 1815.5371488711098,2437.7208684839425 1839.0738935467089,2434.932585714909 1854.4888345600339,2432.555555923609 1862.2602390756365,2431.269407998887 1869.8519293155987,2429.841382956947 1885.15560476447,2426.7914902964258 1900.3896664178465,2423.4076585700386 1915.547123768949,2419.691309044545 1923.1059003733099,2417.750175287656 1925.1960618667072,2417.1891142443637 1932.7053223822732,2415.0845881301793 1947.677240035613,2410.712469921855 1962.550999324536,2406.0138822341687 1977.3199010133976,2400.9913170878426 1984.821297208895,2398.3470720732003 1992.9468873955775,2395.2678215859924 2009.406909155543,2388.80035624461 2025.7038190934109,2381.92676755687 2041.8271314488957,2374.651684582059 2049.8443687822437,2370.9142776145018 2071.394353208947,2360.542449149245 2077.470268586767,2357.547363306803 2089.5650102044456,2351.4420644353377 2101.5429521066835,2345.108355744218 2113.4000164978206,2338.54837233125 2128.981273315614,2329.4067911718157 2138.3619507200783,2323.3736465226975 2140.6230883555254,2322.2296499085496 2154.6026453333907,2314.917568621284 2159.426094933413,2312.347794711939 2163.991187057807,2309.8704678259674 2166.8951600355795,2308.2773260056856 2176.5225440710783,2302.9372793686343 2182.2751485155895,2299.6767159938463 2188.833117582253,2295.7849231789005 2202.1814900622703,2287.6706983993063 2215.3201473422814,2279.2870483148727 2228.3058872888796,2270.597744767554 2241.1005533867283,2261.626419040782 2253.698028942221,2252.37734641094 2266.092779804487,2242.85444339324 2278.278106737882,2233.0623432437424 2284.5401443556184,2227.9130569746485 2289.7897235911805,2223.408655131061 2300.639281208976,2213.9159805201343 2311.006493866793,2204.48179212166 2320.1215320178308,2195.8558328576037 2325.1657651200658,2190.987705409003 2327.8282743466552,2188.3680542001384 2333.332133262302,2182.8325010034605 2339.92447232001,2176.057236871915 2344.486069191131,2171.2820046112756 2348.724063857808,2166.7630848596455 2354.011508337804,2161.000838695327 2358.682914417819,2155.7971821799874 2360.872690631193,2153.3353545625578 2364.828734862269,2148.846633424284 2366.447619697894,2146.9969026483595 2368.1940812800312,2144.987575110281 2372.907139128889,2139.4533342740615 2377.851466240012,2133.509787524061 2381.6289612799883,2128.88519021956 2387.1995212800102,2122.468370368646 2394.477221262292,2113.4834330193116 2401.4636501333443,2104.2675895274733 2410.721702400013,2091.6389448125847 2419.703920924454,2078.8099462034297 2428.406519182259,2065.78666489647 2436.824545564479,2052.575890254928 2444.954796088976,2039.182977515331 2449.142400853336,2032.104028145608 2451.9764687644783,2027.0939116665977 2457.943157475558,2016.3458123603486 2470.279362844536,1991.9955204480211 2471.960870968993,1988.3392275075894 2474.258417493431,1983.8206450165599 2479.56887239113,1972.5437914672075 2484.084157155594,1962.5655202427297 2488.9061504000565,1951.4633105941466 2490.114634240046,1948.648754028196 2491.59341767116,1945.162727767136 2494.571956053376,1937.9253372932435 2497.6337979733944,1930.250998163945 2504.947033031145,1912.7762496838113 2510.210593280033,1899.156761072285 2519.1919379910687,1879.6983502911753 2520.7869385955855,1875.4996736613102 2521.6275470223045,1873.5742275681696 2527.71686087118,1859.5874318932765 2533.0139172978234,1845.8964795059874 2535.478362168884,1838.8971043071942 2540.53686755558,1824.044807312952 2545.272353280103,1809.0840256865486 2549.682197902235,1794.0226416151272 2558.041096248897,1759.13655016158 2560.5838930489263,1745.5898128059926 2561.5209122133674,1740.5383954115096 2563.0634840178536,1732.9693617225275 2565.096265102271,1722.9654744936852 2566.8957380267093,1711.767743844539 2568.263255893369,1702.3108536314103 2568.657928248984,1699.1587266651914 2569.197362346691,1695.3815878952155 2570.2980758756166,1689.8393471728778 2571.251988764503,1684.1838518187287 2575.0559894755716,1660.484148908814 2575.658338133362,1656.5972915199236 2577.9186019556364,1641.4660629348946 2578.546291200095,1637.5584687126684 2579.176893155556,1633.4852018724196 2579.543603484519,1631.024256589706 2580.6239280356094,1623.7630867743283 2581.7223113955697,1615.7680773361935 2582.298154382268,1611.2008369879331 2582.858851271216,1606.5059739251155 2583.1125484089134,1604.255703351053 2583.369449528982,1601.910919040034 2584.3032647111686,1593.116548479069 2585.0489187556086,1585.2863265168853 2585.306402417831,1582.229923243518 2585.671365120099,1577.5302709530224 2585.831855502329,1575.2758189131855 2586.0287547734333,1572.3407644137624 2586.73013560893,1561.2007213586476 2587.270443520043,1549.7134546429734 2587.3639415467624,1546.70949717873 2587.4373418666655,1544.0372097984655 2587.720166115556,1532.1122351579252 2587.821528462344,1523.9877862811554 2587.7944402488647,1519.1006422121427 2587.767060764483,1516.8662140267552 2587.727447893354,1514.34927159769 2587.4685078756884,1500.866736113152 2586.981502577779,1487.8073474892299 2586.8594599822536,1485.6075401677517 2586.3200258845463,1477.5112402069499 2585.454950684565,1466.5846086320817 2585.257177600055,1464.0075490853633 2584.647255893331,1456.0792331782286 2584.2286993067246,1451.6327371281222 2584.0169452088885,1449.4531414264347 2583.111092053354,1440.4139143086504 2581.8318293333286,1429.3661395622185 2580.834225777886,1418.6145498145488 2579.180679680081,1405.9379020786728 2577.724324124516,1394.1977110622684 2575.1043404800585,1376.6213962123147 2573.756629048963,1369.3310835109442 2570.7405166933313,1353.9026499634492 2567.390025102184,1338.5427889695857 2563.7060280889273,1323.259423941141 2559.690564551158,1308.0597605932853 2555.345673386706,1292.951006112853 2550.6731022222666,1277.9403691366897 2545.6751812266884,1263.034699999902 2542.950339982286,1255.207624875824 2540.354240568937,1248.241569858219 2534.7123191467253,1233.5681915511377 2528.7529122133274,1219.021059695573 2522.4780586666893,1204.6073896814487 2515.8909624889493,1190.334038362198 2508.9951189333806,1176.2078637695522 2501.7931494400837,1162.23572507879 2494.2885492622154,1148.4241226996528 2490.265803946648,1141.217927960679 2485.0409827555995,1132.3985118462588 2473.9324851200217,1114.2409387469525 2462.2935827911133,1096.4201881610206 2450.1338877156377,1078.9521617191494 2443.9251527111046,1070.308278670651 2429.6849080888787,1051.0897878034157 2417.5406503822887,1035.6033896137378 2405.3130891377805,1020.8592599196127 2395.3283154489473,1008.6617328587454 2393.261164373369,1006.159371213871 2382.8295808000257,994.194537213596 2371.8821560889482,982.7030689978856 2364.7838791111717,975.565046503034 2360.4686976000667,970.6947545949952 2352.8435111822328,962.4336121649831 2344.740640142234,953.92410676484 2340.320309760049,949.3631517189788 2337.442842453369,946.4461187439738 2333.3041712355334,942.3186459178105 2328.426545208902,937.5320563554415 2326.4811454578303,935.6377099938691 2323.955242382246,933.1962894433527 2320.5992166399956,929.9942115591257 2316.69501866668,926.3170535887475 2312.8627646578243,922.7597810824518 2310.952026168932,921.011921928206 2308.724384711124,918.9910476547084 2304.343667200068,915.0504634962417 2300.7659841423156,911.8751938134665 2296.585369884502,908.2140090125613 2293.4716817067238,905.5187849320937 2292.193001528969,904.4245519450633 2290.3719745422713,902.8772027686937 2280.4792425244814,894.880990124715 2269.446184106753,883.9135657745646 2267.2546602666844,882.0620866978425 2264.3914652444655,879.6511834749253 2258.5957526756683,874.795454843028 2256.1875231289305,872.7947840139968 2255.2199204978533,871.9777973415912 2250.647546595661,868.1820925060892 2249.162063928903,866.9695599752595 2239.874884551158,858.3080508661806 2219.2590065777767,840.1570733035915 2198.660022328957,822.0204262255575 2178.061038080021,803.8822586577735 2157.458267306676,785.7396875745617 2136.861030684435,767.6010002654511 2116.2483566934243,749.4474576701177 2110.2761338311248,744.30335210677 2102.7756114489166,737.9972446686006 2096.0717155556194,732.082393432036 2078.7649686755612,716.4142164535588 2075.5909873778,713.5748005061178 2054.574611626682,694.998594650242 2033.5751296001254,676.4359500405262 2012.5753563023172,657.8717284355662 1991.5738353778142,639.3048478957498 1970.573188266717,620.7374710883014 1949.5748713244684,602.1710401135497 1928.5718940445222,583.5994250455406 1907.5700818490004,565.027312780614 1886.5668132978026,546.4525393226068 1865.5679138134,527.8805140028126 1844.568140515592,509.30654838262126 1823.5654545066645,490.72883846453624 1802.5677201066865,472.1542373630218 1781.5676555378595,453.5766127612442 1760.5681735111866,434.99776789423777 1739.5669438578188,416.41662003990496 1718.5662967467215,397.8346119846683 1697.5676885333378,379.25282604264794 1676.563837439986,360.6654881883296 1655.565811768989,342.0819806230138 1634.564290844486,323.4943637388642 1613.561604835675,304.9044413861702 1592.5632878934266,286.3169056493207 1571.5358438401017,267.70287743321387 1568.4699241244234,265.0195983299636 1562.3077924977988,259.6879810478422 1558.9867192889797,256.849753597111 1553.1455684266984,252.0230408196221 1540.9051912532886,242.1238699714304 1528.451603626716,232.49513134692097 1515.79121351114,223.1419073048164 1502.929846328916,214.06855795811862 1489.8736187733011,205.27980423124973 1476.6289388089208,196.77928353386233 1463.201923128916,188.57135502964957 1456.2454951822292,184.42595533287385 1447.530954808928,179.52614440204343 1429.566809031181,169.75226799532538 1411.3329462045804,160.4944707157556 1392.8436386133544,151.76110959384823 1383.5369440711802,147.52632710983744 1359.0617238756968,136.8083526517148 1334.6313594311941,126.10983580624452 1310.2039076978108,115.4119969723979 1285.7505328356056,104.70255534013268 1261.3207509333733,94.00318252877332 1236.8609681066591,83.29003851820016 1233.7935920355376,81.96360031998483 1219.672186026699,75.93566930614179 1213.089750186773,73.03562760754721 1210.5655947377672,71.93528011901071 1204.6411403378006,69.37910504237516 1197.3844118756242,66.34244299167767 1193.1554466134403,64.6268553713453 1188.038104462321,62.5962421814329 1177.6904069689335,58.58265844039852 1171.2757432889193,56.16472665051697 1164.0070727111306,53.592151636083145 1149.119623680017,48.502928723057266 1134.124695608858,43.74129536136752 1119.0292790045496,39.310519712395035 1103.8409469156759,35.21206253109267 1088.5666898488998,31.448467374430038 1073.2140808533877,28.02083154738648 1057.790110435686,24.931335123663303 1049.9828795733629,23.45757090242114 1043.3561705244938,22.346552087459713 1037.1713197511854,21.368851910112426 1028.0344362666365,20.04537431965582 1022.7222337422427,19.345514836197253 1016.3512607289013,18.13800925912801 1012.1933656177716,17.37563772557769 1009.4568735290086,16.901232029660605 1003.2126034490066,15.84366215672344 992.0554635378066,14.134632421773858 989.544997831108,13.790657320350874 983.955213937792,13.068741825351026 980.3836475734133,12.6322674966068 974.3930746311089,11.903483937087003 972.0570803200826,11.847117852012161 968.2883234133478,11.45400022767717 959.6728152177529,10.585743091767654 957.3108977779048,10.323422682180535 951.1662424178794,9.522729675169103 949.2954080711352,9.302683229441755 947.917404444539,9.136473977647256 943.8416477866704,8.57136178878136 937.2833874489879,7.785839512303937 928.2076708978275,6.841330989380367 926.1705207467312,6.674758959154133 915.0273618489737,5.936565459240228 912.3202881423058,5.779748774308246 901.5249069511192,5.439376775582787 896.7905863111373,5.340011199528817 895.0249008355895,5.330255304754246 887.1098996622022,5.330616634164471 884.9760475022485,5.342540505575016 881.0424311467214,5.375060152146034 878.243607040029,5.393849279556889 872.7784871823387,5 865.8106996623101,5.107314949913416 859.7339104712009,5.203428641485516 845.4316251022974,5.715432228520513 840.4669090134557,6.038098796328995 826.447156622191,6.1215656758868136 824.0371794488747,6.182991502282675 822.0265349688707,6.216956365213264 816.6109311999753,6.349563822848722 813.6772485689726,6.443509122997057 806.229737528949,6.759309633169323 798.3030855112011,7.178088025248144 793.7901309155859,7.445469934784342 792.1916350577958,7.550254667992704 788.6337584356079,7.801015216391534 782.4695879111532,8.26676440401934 772.0837339023128,9.203319014573935 760.712509724428,10.396409928100184 757.7596032001311,10.718348495196551 756.1672240355983,10.89900970744202 752.3125421510777,11.356804701150395 749.6415860622656,11.688859168440104 743.503047395614,12.969017617753707 739.6134129777784,13.452824223204516 727.8947023644578,14.99529097386403 724.164975786698,15.569784515479114 715.855884800083,16.899425456591416 712.3594663823023,17.500291031959932 707.8173846756108,18.369249506562483 704.3256265956443,19.05754943343345 701.4155369244982,19.660216966469306 698.0137816177448,20.37488938641036 696.5973302045604,20.658517726522405 690.9341459911084,21.765207490243483 689.4719650134211,21.983076364092994 683.7965474134544,23.35134685371304 679.2544657066464,23.57210495090112 674.6407313066302,24.45007734268438 671.4419919645879,25.05923682829598 669.8813613511156,25.359841736091767 663.0478498133598,26.69268824334722 651.5840014222777,29.12424073315924 646.0649964089971,30.389506857318338 638.6049607112072,32.1150576773216 635.0695119644515,32.95181595766917 632.6385632711463,33.54036336479476 625.9259292444913,35.234101291163824 623.5602252800018,35.85516006866237 618.1650104889413,37.32669178338256 598.9664577422664,41.83120027073892 586.130139875575,44.75360077462392 573.5664517689729,48.100107768550515 567.9323946667137,49.82157625461696 552.0438468267675,53.09215680253692 532.9749097245513,58.12385630229255 517.8806582045509,62.55469772772631 502.88660394668113,67.31565230415436 488.0000287288567,72.40453585970681 480.7319406933384,74.97693933738628 473.2282143289922,77.81952446856303 458.5781512534013,83.55698706419207 444.0565387378447,89.61509786971146 429.6709498311393,95.99058531521587 415.42779249791056,102.68017704872182 401.333765973337,109.68059997347882 387.39615203556605,116.98894147045212 373.62135864887387,124.6012046788237 366.9736780800158,128.3678915569326 360.01579377776943,132.51411451294553 346.5858653867617,140.72367297566961 333.3385639822809,149.22588159242878 320.27971498668194,158.0163803192554 307.416017635609,167.09153100900585 294.7530060800491,176.44661178451497 282.2970882845111,186.07726165169151 270.05438094225246,195.97839722695062 264.2120649955468,200.8057068301714 258.0301269333577,206.1456571990857 246.23073422221933,216.57431906688726 234.66144568892196,227.2589382030419 223.3277954844525,238.19443113153102 212.23531776003074,249.3760755051626 201.38896412448958,260.79770506423665 190.79426872893237,272.4542368891998 180.45618318230845,284.34022733429447 175.57710080000106,290.069524241786 170.37965909333434,296.44951119011967 160.569356800057,308.7766456492827 151.0299366400577,321.3154664936592 141.76605895115063,334.06017102475744 132.78180152899586,347.0045962423901 124.0818247111747,360.1425798450946 115.66991502221208,373.46723855572054 107.55015025776811,386.9731333836098 103.76158691558521,393.425264983729 99.7266082133865,400.6530219040578 92.20278414234053,414.50074518477777 84.9821732979035,428.50942361872876 78.06797966221347,442.6725394517998 71.4639897600282,456.9828544726479 65.17311630235054,471.43421390041476 59.197980728931725,486.01938185142353 53.541787022259086,500.7314844352077 50.939862186671235,507.7126752390177 48.23074958228972,515.492595560092 43.2642858667532,530.2947731020977 38.61763783113565,545.2004013149417 34.29371818678919,560.2029727210174 32.21229482674971,567.7272196395788 29.196765013388358,579.1049868286937 27.24350094224792,586.8162364429445 23.50649258669,602.2795707750483 20.109688889002427,617.820659890247 17.05483747564722,633.4326410095673 15.6905235912418,640.8103744511027 14.354171733371913,649.0347488081316 12.005944035598077,664.6190542332479 9.997047182288952,680.250083982537 8.328063715598546,695.9209818569361 7.000158720067702,711.6234514451935 6.013623466715217,727.3506397939054 5.369040497811511,743.0946143007022 5.066701084491797,758.8481648574234 5,766.2683986084303" stroke="red" stroke-width="3.487259566428942px" fill="none" stroke-linejoin="round" vector-effect="non-scaling-stroke"></polygon></svg>