<svg width="1415.7524428799516" height="1602.37721894047" xmlns="http://www.w3.org/2000/svg"><polygon points="5,1353.280063398357 30.438162488862872,1345.5742363903555 32.07161087996792,1345.2473301751888 37.14875761780422,1334.590821680671 37.52216718217824,1333.4513250658638 53.94869276450481,1327.7330095844227 54.34598655998707,1327.6599570350372 70.56104931549635,1333.758858967747 70.83513543114532,1333.8706893702038 70.99562581337523,1342.4598148408695 70.87795228441246,1342.70150311623 88.26945905771572,1347.81386899692 95.95435605337843,1348.260710606759 112.72807680000551,1379.7803538333974 117.21569080883637,1385.230421111628 113.71315569768194,1396.0864204821992 109.71604224003386,1409.0443005269044 166.35312725335825,1591.3707894058316 168.05968469334766,1597.37721894047 183.86813297774643,1594.5167990448535 191.2652541155694,1596.942596062494 225.85020330664702,1565.3817133057746 225.95302200887818,1565.205136119679 242.64110904885456,1563.4826001749025 247.69728426658548,1556.6954783551046 255.53684622223955,1524.9341574176797 258.5605316266883,1520.4039799138554 254.1795228443807,1504.259475523082 252.2416961422423,1500.8368605250143 266.0968803555006,1460.4850763136055 266.99632554664277,1459.350291623443 279.59059711999726,1469.2314638209064 281.1130712177837,1471.1372538051219 297.75076835555956,1504.8177405828028 297.93223025777843,1505.0651069697342 337.5229647643864,1491.746574846853 340.0136240355205,1492.2981128091924 339.83361848886125,1482.469353683351 340.7750067199813,1479.4253768944764 350.6386116266949,1472.8447446070495 352.5688652800163,1472.3995094410493 329.0067800177494,1451.5634727998986 322.3340501332423,1447.3008404733264 323.7580745955929,1437.8369408484432 325.87241159111727,1433.905773090606 319.98931768885814,1420.9029390533105 319.94853973330464,1417.6394885595655 328.7015278933104,1391.8650826707599 329.5467966577271,1389.1782425595447 336.9782877865946,1378.4873573916848 337.9796778666787,1377.7245400050306 354.37969777779654,1376.8255662171287 356.238007466658,1377.1650487288716 393.85188494215254,1361.7579629007378 409.4852792888414,1356.9340364635573 411.497380124405,1341.6048855133704 411.54660494218115,1341.186888786673 433.2113501866115,1329.5782547727576 433.9147699199384,1329.1845857353765 426.0350125511177,1302.366524518351 425.488587946631,1301.7301711728796 429.7897884444101,1271.4405858328682 430.02775694220327,1267.9692179527483 408.9665254399879,1262.381805654848 405.47855388442986,1261.3226756348158 399.13845560885966,1248.0546976294718 398.84398051549215,1247.2300743073574 402.1691315199714,1217.578558090201 402.1903943110956,1214.8002422685386 412.5739181510871,1210.9765036718454 413.7057976889191,1208.5211544793565 413.23393848887645,1197.1134803131572 413.4366631822195,1195.69577022671 426.4119173688814,1159.1281251349137 427.05446143995505,1157.3067126552342 456.1981750044506,1131.9597037156345 460.74113052443136,1129.0557259338093 493.9527364267269,1125.8899219050654 480.5303810844198,1117.351410484931 519.2857500443934,1122.071848861 523.4416062576929,1122.4347469581407 540.8039859200362,1114.9852850961033 542.4097635555081,1113.8514135602745 538.1394377955003,1113.117914706294 538.0695327288704,1109.505453340651 546.5600856178207,1080.3435751511133 547.2600100977579,1078.6321124079986 559.1840668444056,1073.1807139716693 560.3657537421677,1072.768975495419 570.1609099378111,1058.0691325157532 570.7556855466682,1057.1002147181425 564.867931306595,1046.7452581375837 564.0675182932755,1045.5654283629847 585.1934119821526,1047.4080912040663 587.574844586663,1046.8892935594777 585.5575008710148,1060.4570947017637 585.9084825599566,1061.8959997529746 601.7655731199775,1087.5838487027795 602.3067548443796,1089.1074447273859 614.4699451733613,1088.292604323593 615.7704706843942,1087.690387911105 623.0892398933647,1077.7508686459041 624.4686998755205,1077.5418436049367 639.6925670399796,1097.0078532730113 640.2809346844442,1097.7761652860208 645.1728329955367,1115.523781737953 646.0655789510347,1117.478698457533 660.2644630755531,1119.1532957282034 660.7925376000348,1119.3388096226263 654.5037030399544,1129.6262337857625 652.440338488901,1130.7875556883519 658.2844020621851,1132.5473550767056 664.7386786133284,1134.1414981206763 663.8141841066536,1165.7326488326653 662.9528954310808,1166.5652514180983 667.2977865955327,1169.6406638161861 670.5699262578273,1171.8491577685927 680.4600368355168,1163.0457351629739 680.7801437866874,1163.1039504717337 677.7809251555009,1219.5673016050132 676.874198186677,1220.6103921473841 685.9038939021993,1218.632034960494 686.369345137733,1218.6541421294678 719.2783203554573,1186.9339192715124 720.5817585777259,1186.314827832568 730.7410036622314,1206.7024096449604 731.8064733867068,1207.0304255231167 749.1930285511771,1194.0285277863732 750.7111335821683,1192.815651679528 748.2755245511653,1214.9252176103182 748.4100918044569,1217.6678895165096 768.2022550755646,1222.6509912978509 770.3696034132736,1224.3856886138092 774.9958624710562,1231.107341478346 774.5796360532986,1233.92469875206 766.0113137777662,1239.9820066834218 765.118859093287,1241.3470995963435 779.070454044384,1247.9653786233976 783.6000110933091,1251.5922422442236 798.518334862194,1270.9335963529302 800.4803370666923,1270.5916935308487 809.7299424710218,1261.5071667101583 813.612003839924,1259.3000297692488 830.717773653334,1223.8903200177592 832.0011141689029,1221.458576288307 842.8661091555841,1210.0790997514268 844.0911954488838,1209.0386660580407 872.9258703644155,1214.3377877647872 873.0607288889587,1214.399147638178 872.3707076266874,1203.3653728096397 872.8510136888362,1201.5100376966293 858.9492260977859,1189.0614686800982 856.4783732622163,1186.9916769839474 851.9930894222343,1171.579753387894 851.4000614399556,1170.0170209225616 832.542878435459,1172.7765019664075 831.3081801955123,1173.5553777990863 830.6685488355579,1165.8752519938862 829.7973569422029,1161.870143631415 889.0911257599946,1103.8142272009864 887.645547235501,1102.0009302386898 912.0156185600208,1117.797369439213 917.620257279952,1122.1454215339618 933.8393978311215,1119.9648614317994 934.6366068621865,1120.0578437391086 927.5948364799842,1096.1370662968257 934.5000007110648,1093.164446969051 934.8524387555663,1092.6629122179002 930.8093044622801,1090.4179545247462 925.7507990755839,1094.9620175082237 922.3694327466656,1087.3996621522238 922.1562222932698,1086.0327041737619 930.1763723377371,1050.0445033589494 931.2488325688755,1047.2220646881615 960.3878857955569,1017.7479547189432 961.87162083562,1015.9971650546067 981.9605893688276,1008.9098684335477 983.2159678577445,1008.5743293176056 987.629890275537,993.4880844291183 988.7606047288282,991.2380423535942 1015.0781147021335,959.0326212053769 1015.6795895466348,958.2574970651185 1027.4696615822613,967.6432703339378 1027.7827780266525,967.811748934153 1039.2477915022755,942.5204365129466 1042.2024456532672,937.7559101178194 1043.6745298488531,923.8565596461995 1044.260858595604,921.5086670247256 1063.9382610488683,914.2574634387274 1066.7650471822126,913.0651708332007 1077.5592632888583,901.6425059660687 1080.3347857067129,898.766640015936 1076.0164002133533,877.1243639647146 1076.0828100265935,876.5337654860341 1085.8631113955053,871.6114468411542 1089.550894933287,871.289705082716 1106.4186962489039,878.269406501262 1108.6757560888072,879.098135198059 1117.3034976711497,872.5771211530664 1119.6284236799693,872.5604015124845 1135.4534744177945,884.3415561608854 1137.2855697066989,887.6215673367842 1156.305864533293,892.4057134814211 1158.5454481065972,893.1096808027942 1168.1751623110613,866.5028366424376 1169.3816072533373,863.6002974607982 1184.7811108977767,875.065170146001 1186.4655317333527,877.2423027196783 1183.938463573344,864.5438641752698 1183.8306932621635,862.7362615278107 1187.4162406399846,846.7866827077232 1189.7065053866245,843.1191948579508 1234.8957619200228,796.1491126889014 1236.5490167466924,794.9973106422112 1243.2013576532481,777.6707258899696 1244.2385740799364,776.5834738939884 1266.1275980799692,766.9507723067072 1267.059083093307,766.3020065286546 1251.4501555199968,735.8403948048945 1250.7872224710882,735.1417981736013 1260.4116937955841,721.747753435222 1262.1476696177851,718.0962515835417 1263.801798257744,706.5738363843993 1264.8323154489044,706.4255061930744 1258.3806603377452,671.6605492520612 1257.8651104710298,670.7627350411494 1262.8877895110054,673.0830231444561 1263.811410204391,672.7831510414253 1269.2867245509988,658.1214804957272 1269.4885754310526,656.5066689360538 1277.5946504533058,654.8484214312048 1279.729667697684,655.0008576935506 1284.0765977599658,637.688935811806 1285.5300406044116,635.9749034395209 1297.7593494754983,647.4775260807364 1298.520440888824,647.8389522858779 1285.9567527822219,630.5056522859959 1280.1365734399296,626.9241006078082 1302.5498854400357,630.6273434849572 1303.8410902755568,630.79563008697 1321.5736755200196,624.569391731231 1324.1930766222067,624.2319039956783 1313.5351753955474,620.3828782429337 1313.4553671111353,619.8603501167381 1319.7715811554808,608.33048237412 1323.9428747377824,604.9535204774584 1321.4458075022558,596.2204111185274 1321.2532772977138,595.7580017344444 1303.793030542205,601.1303962728125 1297.8659547022544,601.5095446018386 1296.9478681599721,598.1089496368659 1302.4077451378107,594.5427019469207 1299.0662829511566,584.1259566472727 1298.1615948800463,582.3164817028446 1324.3433725155191,564.7788644533139 1328.1555288177915,563.6190522888792 1325.4242796088802,580.4572181148105 1327.565413546632,585.9535156261991 1337.0145396621665,599.6106292304466 1337.5956255289493,600.390195487591 1347.1044622221962,602.0655974624096 1347.5102028800175,601.9352939086966 1365.8311557689449,587.4715679516084 1367.002065635519,586.3829151053797 1386.4691703466233,556.95238844509 1386.248969386681,555.6418391891057 1396.8963848532876,553.576893560472 1398.4054604800185,553.3537895639311 1399.0072265955387,544.122152460448 1398.8945046755252,543.8804836874478 1400.8527203554986,547.5330930717755 1401.1250588443363,547.6932978068944 1410.7221506844508,537.0100090125925 1410.7524428799516,536.5565256291884 1387.0354013866745,522.9004409511108 1385.9536204799078,522.1269341408042 1383.9648213332985,505.06110973330215 1383.358103608829,503.8665787379141 1398.8668339200085,491.33379325649 1398.4855600355659,487.826005215582 1379.7498370844405,479.4960839114501 1377.0803373510716,479.01622439333005 1369.0316427377984,483.3539349772618 1366.7495335821295,484.1402546117315 1362.549112888868,475.21986459492473 1361.779865884455,473.7956467398326 1357.8177049600054,480.21587120811455 1356.0310479644686,480.82474602822913 1345.9050077866996,476.4054984903778 1344.699727928848,476.14655188989127 1341.843232142157,470.89647903916193 1341.0911701333243,469.5098085271311 1359.7977659733733,447.9566548015573 1360.9573162666056,446.068173558393 1330.4647261867067,434.5825410168036 1330.0234504533,432.50060062034754 1334.8868041954702,425.6103137443424 1333.7901684622047,422.38402516563656 1364.0200320000295,407.1276746779331 1366.050482915598,406.6422216386418 1363.7243918222375,397.8866730945301 1363.6946821687743,397.41886131092906 1351.078565262258,396.69744194537634 1348.615868017776,396.70514072076185 1350.634085546597,389.1448122303118 1349.5709459910868,384.7848462033435 1331.9341889421921,381.9216321175336 1328.3381558044348,382.99319054424996 1329.2850781866582,378.5307445107028 1330.0129646933638,377.3228384514223 1344.993037937791,361.59906800900353 1345.038767502294,361.2330904902774 1382.6555576889077,372.29412721155677 1386.7837431466905,371.83305430138716 1385.46690645325,360.58085180452326 1385.3999140977394,357.768956009706 1377.9701705955667,359.8543280811864 1372.5592271644855,359.29539234627737 1371.787358719972,352.1255782117951 1369.8661344710272,351.3700366456178 1367.8464605866466,356.91242577385856 1366.4675831466448,356.4218783849501 1369.706517902203,339.6243803052348 1369.8075889777392,338.80990677064983 1365.3986181687796,342.8641247599153 1365.2221078755101,343.09106814087136 1352.5794852977851,337.4699598157895 1351.0290491732303,338.11456683377037 1344.974396586651,332.7270793442731 1341.6070112710586,332.189365176484 1342.1653779911576,324.9393809105968 1341.696140231099,322.32091940089595 1340.1923074844526,324.6344993811217 1338.9969308444997,330.58119778399123 1329.888300657738,333.7803067039349 1329.326729955501,334.02583252236946 1327.4573519644327,329.7114234318142 1328.0244568177732,326.4461145683308 1316.5442972443998,322.3304328993545 1315.630871040048,321.4171351563418 1312.700392391067,309.29655051301233 1312.5407758222427,308.9200649521663 1299.971553564421,310.5949903084547 1298.0835342222126,310.67789809958776 1294.9471268977504,319.8994940323173 1293.2609584354796,319.63628415268613 1283.778627413325,317.515190523467 1282.4527613155078,317.40419722977094 1290.9275855644373,308.1471575383912 1291.202545493259,305.6403996797744 1274.29367495107,302.84138673654525 1273.3828701867023,302.6406791823101 1276.7260799999349,289.33376361319097 1276.9407468087738,288.94274457514985 1286.590267448919,282.04837011237396 1286.7225045332452,281.3904570452287 1292.9399776710197,281.057421780657 1294.0016608710866,280.8902242925833 1295.1897557333577,287.74023203511024 1295.2395630932879,287.8059308946249 1303.6025392356096,281.94642090355046 1306.113296213327,279.70624491322087 1303.0450463289162,279.6011228203424 1300.8742027377011,279.7198382835486 1299.7737804800272,264.0610727086314 1299.790091662202,263.1570467556012 1296.311732053291,263.05463555897586 1294.5603188622044,262.8652200329816 1310.3489607110387,257.2234619950177 1310.540034560021,256.541909606487 1302.828049351112,256.16533287084894 1301.6122837333241,256.3878349677543 1300.2709802667378,250.17219190945616 1299.524743679911,246.16745829721913 1293.4549449955812,243.0549812389072 1291.7568344178144,243.5557540645823 1287.638843448949,223.53663344902452 1287.5654431289295,223.00091586692724 1278.7571134577738,218.3312338027754 1277.6680507733254,217.86031689337688 1280.6069762844127,223.73877358186292 1280.1339519999456,224.95432979683392 1275.1919550577877,223.96946691226913 1274.1532822755398,224.9661136791692 1278.6848782221787,230.01635505101876 1272.2346794666955,227.7987592185964 1273.5634582755156,217.78281266550766 1273.9292947910726,216.30478816322284 1265.6968081066152,215.29314463579794 1265.3207771021407,213.4325603794423 1257.9431711288635,215.50073137000436 1256.6079843555344,215.83250713703455 1258.3553197510773,223.0761520874803 1258.7820319288876,225.7248130722437 1244.6617910044733,229.82645757932914 1244.8187861333136,230.71022722154157 1210.9588107377058,232.69439031020738 1210.861526186578,232.72067649749806 1200.6434443377657,246.0917768694344 1200.8805390221532,248.57157619512873 1206.765089279972,260.46307248366065 1208.5182500977535,262.5190151531715 1222.5234389333054,260.9470386932953 1224.2559195022332,261.37254742201185 1216.62782037328,267.02190137066646 1215.6328382578213,267.27701833314495 1194.6846199466381,269.2925677745952 1193.6008001422742,269.9052041072282 1171.916248462163,249.97007630439475 1171.508468906628,249.53276275022654 1160.4541476977756,255.55175157269696 1160.075495253317,255.97908348665806 1154.0289982577087,247.70509981480427 1153.2705282843672,246.6809130377951 1181.5101363200229,220.70846483379137 1181.948790613329,220.28378313832218 1167.3747492977418,230.7319815059309 1166.406272853259,231.16208139172522 1177.7285634843865,217.13739626907045 1177.3924366221763,216.91983974940376 1201.1790919110645,200.25663087080466 1202.242231466691,199.35732615436427 1193.449339164421,199.40356066072127 1193.2719550577458,199.47699191543506 1194.8922962489305,192.40798692923272 1195.3641554488568,191.81598417967325 1191.3312156443717,184.45434543601004 1191.0393619911047,183.31970620062202 1147.7905535999453,198.72636014479212 1146.1777854578104,199.09669027285418 1145.2853307733312,195.8226237546769 1144.5376378310611,191.4932377456571 1153.7554946844466,190.13561232603388 1156.1931426132796,190.32191801822046 1155.371466808836,181.4166903286823 1155.3175816532457,178.5974945187918 1123.8870985955,182.603923953895 1123.5174755555345,182.3518810067908 1118.357899093302,172.7472861186252 1118.2035254044458,172.3927779328078 1129.3906662400113,168.21887665375834 1130.5799261867069,167.77686548029305 1128.236650097766,161.736409555946 1127.237298915512,159.1508945171372 1116.170161777758,161.25766316376394 1115.6144164977595,161.61490962427342 1111.7052669154946,145.97984161769273 1111.3874901332892,145.38680586544797 1102.6144042665837,147.7593925713445 1101.9724427377805,148.27217258041492 1103.2709293510998,156.50595748849446 1103.4264681244968,158.89927779027494 1108.271471786662,161.11032149603125 1107.971171271056,161.97850250132615 1082.2828068977688,160.15101146203233 1076.037080462207,162.81086495687487 1080.0135136711178,122.64166852668859 1079.5827236977639,121.38019694987452 1060.0433837510645,116.44079884019447 1057.3808745243587,114.3567228433676 1051.2784534755629,91.67455539171351 1051.5012758754892,90.94758771947818 1030.5370376533829,83.88911788660334 1029.3565158399288,83.73310697352281 1029.962942293263,77.158778046316 1016.6929217422148,64.02539924468147 1015.5479350043461,63.10602852219017 1005.1425658310764,67.48423034127336 1002.7279283199459,66.63608250877587 1007.3119530666154,60.176443920179736 1007.1296173511073,59.568206596712116 986.2291675021406,43.02177593886154 985.9702274844749,41.21959552139742 1002.1244145777309,31.45998279977357 1002.7751142400084,30.266934824816417 984.319011555519,33.00685275864089 983.3482049421873,32.834021206072066 978.352031573304,19.39810274814954 977.8481325510656,19.016579145914875 959.3797964800615,32.14133274031337 958.2854909155285,32.13861097377958 954.5193554488942,30.546825374069158 953.7177773510339,29.60780703695491 958.0087833598955,23.229179615329485 958.2554899910465,22.213009491446428 952.3729786310578,11.96757211588556 952.0584058311069,11.490764646616299 937.584853048902,15.82373115705559 936.863374506589,16.295538866950665 941.1867116088979,22.243403934466187 940.7835923910607,23.586198974808212 931.0964977778494,30.150351459160447 931.1282463287935,30.65796495747054 946.27172266657,40.31600485899253 946.3028886755928,40.47839743323857 936.981921848841,49.27599285612814 935.304491519928,49.82619930821238 926.6956825599773,44.29549525969196 925.166509226663,43.51393688755343 925.3261257954873,28.993587054137606 925.3800109510776,28.962739919195883 915.502425031038,19.374966377625242 915.7846667377744,17.726833884080406 895.6534638933372,7.008451173896901 893.0474612622056,5 793.2559396977304,43.2086611490231 790.9015953066992,44.927816114446614 756.6131601067027,27.76514188927831 753.6320002843859,26.144291335425805 719.4420147199417,34.91706322040409 718.7674308266724,34.77825485583162 691.3093031821772,67.66655901604099 691.1010443377309,67.97180046053836 692.3369076622184,72.13537802756764 692.4706011022208,77.36695003131172 684.1090813155752,81.76799482444767 683.2967261866434,82.62197950453265 682.510585457785,95.33792760042707 685.131734186667,97.00587981962599 644.2943593243835,109.3881435333169 643.2652984888991,109.28384613862727 640.5491953777382,120.01351892080856 639.7645110044396,121.18430998193799 623.6350819554646,123.64149972161977 622.3092158577638,123.76936895825202 613.6042874311097,134.60669405764202 613.267578026629,135.0134063141304 620.5050825955113,149.89619466796285 620.4692562489072,150.89408721326618 610.8206094222842,156.9620459394646 609.9395143111469,157.8057617189479 611.1369298489299,168.2827981953742 610.5042889955221,169.42204919067444 622.9788481422001,176.3449222255731 623.6784813511185,177.86492375540547 610.5098231466254,182.8496202150709 609.1862872177735,183.7997640336398 602.375494826585,195.4663399764686 602.4145251555601,197.0981692968635 623.4946892800508,210.31961554061854 623.7807175110793,211.39020525832893 597.0140674844151,223.1323526207707 595.8545171910664,223.5434318871121 594.8272039821604,229.0772900438169 595.0733280711574,230.87429072969826 585.9052785778185,236.79318437591428 584.8465080888709,237.1344449328608 547.3386532977456,234.6332147185458 546.583969848929,234.01911956077674 543.1192999822088,221.76767266896786 543.2492068976862,221.1997711196891 528.5939009421272,207.8325817747973 527.6723191465717,207.09557670232607 511.5324043377768,173.07958035194315 506.807695644442,169.688160681515 471.4686455465853,176.0180729117128 470.6921167643741,175.8698345729499 462.2359338665847,185.99015612818766 460.1874241421465,186.88316976261558 465.33010687993374,191.30783964809962 465.7448769422481,193.1101381809567 454.5810377955204,221.68427780159982 454.1557819733862,224.2332456271979 470.60153144877404,228.5669663391891 472.65382769773714,228.0194774119882 479.6210326756118,242.68517902866006 481.65002723550424,243.97223303100327 496.0679472355405,243.0876108155935 497.22400227561593,242.32897189439973 483.83252167108003,255.31112209847197 483.6376612976892,255.53498455585213 483.2718247822486,263.19918940222124 482.9225907198852,264.02255538856843 456.68081123556476,285.94551276793936 455.0724121599924,288.10769229842117 451.6531805866398,303.0448124887771 451.5777413689066,303.24823805107735 459.95906759111676,305.50448210915783 460.376750364434,305.5969060664647 389.47932302218396,362.5448090475984 386.82293048885185,363.9036251940415 415.82625137781724,369.4896293632337 417.11133951996453,369.07927829859545 405.23534250666853,377.1643200988765 403.12741347553674,378.7834664163529 399.05631715548225,398.51706260308856 398.9470904888585,399.0405743434676 382.349880035501,416.6069248410058 381.8515151644824,417.6361999671208 395.28959914669394,457.8515581949032 394.8669647644274,458.59812865621643 364.0688312888378,451.67425731703406 363.5410480356077,451.72224933531834 336.0034033777192,464.7204532708856 335.3643545600353,465.75085940991994 280.3682909866329,458.86705638282 279.6698228622554,459.245999434439 283.6535378488479,439.46085065283114 283.2384765155148,437.79959336924367 243.25103075557854,418.89822139189346 242.55955313774757,417.71227466256823 213.26466986665037,419.11648198071634 209.39367679995485,420.7045249546063 206.8849587199511,415.45402225008 205.93395854218397,415.4956826227135 193.2581310577225,429.63574930181494 191.4403080532793,432.7976337852306 174.03802424890455,424.94015527440934 173.30751630221494,423.8624636842287 157.74519210669678,430.701639586885 155.5970676621655,430.8406486833119 143.36251591111068,413.50684377516154 142.7383219199255,412.54275757534197 130.90426794660743,410.4293606472784 129.46917518228292,410.37456692539854 108.66571861330885,433.6488851251779 107.24635448888876,434.6291784274508 83.11337784887291,426.51321318146074 83.08832853334025,426.4874031692161 72.59732565330341,430.43765789904865 72.12837916438002,430.53953766211635 57.77599516441114,456.35342940391274 55.52417820435949,458.95352970581735 54.73162951110862,499.49577975750435 54.887168284505606,499.9072433397523 74.3327189333504,511.3319506132393 74.35427299549337,511.44329782546265 97.03788458672352,506.5421561274561 97.59945528884418,506.36607870593434 94.56208014220465,511.76421284658136 94.76626119110733,512.7613548137597 116.25886520883068,523.0507064379635 116.33634332439397,523.1000405661762 106.1045717332745,540.3875706479303 105.61494499561377,541.4529195810319 108.98669937776867,564.1466929225135 108.86378296895418,564.872536098992 102.3684371910058,567.8419516652357 101.13752547558397,568.303515220643 84.90498645335902,596.8126737604616 84.7293499733787,597.1244141077041 152.08666823117528,594.5743740303442 155.16219989326783,594.6490296372212 117.44492117338814,615.7714677526965 117.27336248895153,615.9189547737478 115.22893055994064,620.4995986403082 112.42865009780508,628.8440403857385 117.90396444441285,632.8078211193206 120.36229262221605,634.0491455374868 123.16140799992718,655.4237886057235 123.19461290666368,655.8146031795186 113.57421937782783,666.14831876487 113.23226709326264,666.7381300109555 113.52324693335686,676.1997689654236 111.72290019551292,680.1735439976328 114.36036010656971,691.6236357336747 114.94290232879575,693.827020860801 118.55204266658984,698.871386513696 126.40733326226473,699.4226688224007 133.63813859550282,716.9499161068234 134.33427655114792,718.4657004321343 129.39169706660323,720.6127420680714 129.34771512879524,720.6335431262269 127.50047374225687,739.1217342967284 127.34755640884396,740.7942624750431 139.50521258660592,762.509739821835 140.14280504884664,763.9750237909029 136.6661930666305,798.3505384629243 136.7626038044691,799.1727901552222 156.9013796977233,862.4800326411496 158.43783480883576,866.4599066384253 147.3200164977461,873.5554438369581 144.1643852799898,875.639956945146 138.89936867554206,862.0945589875919 137.4779656532919,861.2594390537706 132.42674204451032,866.3469329031068 126.79996671993285,867.0428501829156 118.26077155559324,862.2165729961707 113.96889173332602,863.3738950705738 109.03009877330624,874.977505988616 108.61620252439752,875.1139728575363 107.40975758223794,867.7581966065918 107.01071616006084,865.8394541633315 102.69087431114167,866.6971512920572 101.09907768887933,868.2453357858467 102.72262286220212,873.8916423982591 102.74854599114042,874.1243601851747 83.87126527994405,866.2899941184442 82.766182684456,865.2275859748479 88.93880007101689,896.1482813508483 92.36123562662397,903.0811024625436 85.83530638215598,903.8708806790528 81.63372060447,904.3249566780869 91.73733290669043,927.8181476566824 92.37463409767952,928.9818984753219 96.7734104177216,929.6057856262196 96.73146737774368,929.9238273400697 75.29653504001908,959.144643580832 72.78344789333642,962.9967328779749 67.45173020439688,959.6668116370565 66.43577656894922,959.5868603806593 54.07859967998229,969.6460343446233 51.31210666662082,970.5805609272211 55.2634905599989,980.6116772769601 55.36951324448455,980.8510562060401 62.96557255112566,977.3804877149523 63.74909183999989,976.7111187323462 74.07552654214669,1001.2966616086196 77.335141546675,1006.6229536630563 51.66920504893642,1036.0448312693625 49.85254712891765,1037.5787207491812 55.01678392884787,1065.8501180019812 57.540065564448014,1070.334646188363 74.91817386669572,1076.561725679785 78.60158833768219,1074.8615198975895 76.68298552883789,1114.6742834970937 76.37336433771998,1116.2351549817831 85.0279028621735,1113.8961004877347 84.72061184002087,1116.0446732870187 63.414712604368106,1132.8186129674432 60.92580095992889,1134.114417645149 67.67659150215331,1148.9237773476052 68.82944255997427,1152.7012151972158 27.282531271106564,1165.2389523594757 26.91727729770355,1165.3341717843432 28.113527751062065,1181.0172827187344 28.19217095116619,1185.7228087225812 37.346530702197924,1205.578489057778 38.4784102399135,1206.5841974747018 37.659064604435116,1221.6458079822478 37.80120490666013,1222.5246668981854 49.73778631107416,1227.4287069480051 50.00255175109487,1227.6745827838313 58.07629568001721,1254.2767141057993 58.22105742210988,1255.7314846942318 50.85597610671539,1267.3458453760832 49.695551999961026,1268.1338565780898 51.620562773314305,1281.5647932259017 51.619397688889876,1281.936447266431 44.679572195513174,1309.6864842484356 44.51238257775549,1310.0396003765054 28.70626446220558,1319.3588639108348 25.699472782202065,1322.0830894230749 11.158345102216117,1322.856923817366 8.361851164372638,1323.9211671115481 5,1353.280063398357" stroke="red" stroke-width="3.7843307181121166" fill="none" stroke-linejoin="round" vector-effect="non-scaling-stroke"></polygon><polygon points="646.1139299555216,270.8517963551567 646.1139299555216,270.8517963551567" stroke="red" stroke-width="3.5117120978675516" fill="none" stroke-linejoin="round" vector-effect="non-scaling-stroke"></polygon><polygon points="644.4758212266024,273.18495422787964 647.2964906666894,273.8401733277133 647.4060086044483,273.56829842174193 644.4758212266024,273.18495422787964" stroke="red" stroke-width="3.673421370947887" fill="none" stroke-linejoin="round" vector-effect="non-scaling-stroke"></polygon></svg>