<svg viewBox="0 0 132.76901040000598 89.57783638466141" width="132.76901040000598" height="89.57783638466141" xmlns="http://www.w3.org/2000/svg">
  <title>Poběžovice, okres Domažlice, Plzeňský kraj, Jihozápad, 34522, Česko</title>
  <desc>Geojson of Poběžovice, okres Domažlice, Plzeňský kraj, Jihozápad, 34522, Česko</desc>
  <metadata>
    <collboard>
      <support-module name="@collboard/map-svg-geojson-import" version="0.11.1"></support-module>
    </collboard>
  </metadata>
  <polygon points="8.05255000000011,50.651092530322444 11.80142765335745,55.55132886808826 12.14090413333156,56.155712238112415 11.145339475573337,57.891567415477425 11.049729733327467,58.40914011447569 14.060016666662477,66.27999393032917 14.197642266670073,66.56609583624925 21.68330982220482,64.69216850515625 22.14220745777834,64.70909748002998 34.48999085333321,68.57302738233523 34.52232194666408,68.60934922988929 37.86152678222402,57.80657559134818 37.92262089777046,57.58837698087848 26.530133928906935,44.1280159735976 26.357628613339102,43.96236358014687 8.05255000000011,50.651092530322444" stroke="#009edd" stroke-width="5.614915981971222px" fill="none" stroke-linejoin="round" vector-effect="non-scaling-stroke"></polygon>
  <polygon points="58.53427544001147,59.51872059125856 61.81427942222922,71.18970834567847 62.17734886223457,71.82272864731897 59.72826854221762,76.18607671620668 59.433356542234606,76.50765898203065 60.083764933347766,81.03225283056202 60.11412994666148,81.5252863846614 65.92790132444475,74.24129891166342 66.66896784888354,73.61637729162578 72.26472280000576,72.89000205301966 72.53677001776646,72.76389426126082 76.58813272001112,68.97536897526118 77.78904351112556,68.44724598373398 81.52750822221401,60.63141801003769 81.6128506577877,60.55786676107493 90.49326992888359,60.5593243325053 90.70356767110184,60.38430336201384 90.80048813333974,67.13257769346058 90.81825567110332,67.18100808950078 97.26139110222698,68.68658912824287 97.28199853332603,68.86707671073202 108.7950717422134,61.43969040773629 108.93611977779778,61.17060395701958 110.3929850577913,63.95838772001264 110.62308923557407,64.2270120459649 118.55046943110187,62.0023010643996 118.79054964445072,61.940524050259796 121.08190665778943,60.375109419859314 121.24436312000739,60.28339415667108 120.62220802668139,57.714743907817706 120.41525990222704,57.25849850282941 124.14615156444029,43.43960755397677 124.7164604000061,43.33317152866914 124.18510907554423,40.653360634583464 124.16450164444518,40.475472098645355 121.18996824001783,41.144850425487334 120.84197208000819,41.19801450678608 120.23321545776685,38.75802170710051 119.83934409777407,38.54142980707513 109.27261072889792,35.41045404716681 108.87517129778985,35.47528959230806 103.30133449778782,29.16479405611574 103.2224000266649,29.02254321065959 98.92280152001308,28.11125400232379 98.59650505780132,27.979209486707646 100.23585168889963,12.95704242769682 100.44804269335123,12.45116033535271 93.07298534221604,8.06074266257167 92.86188660446328,8.107429593182701 93.4440647377703,9.458415428008834 94.06388966221834,11.274192100543246 86.15136429333484,12.702643121235837 85.7030980533525,13.054559978605198 87.06107679112006,14.764062731490071 87.4647785511113,15.76321177783359 86.37775476443471,17.261564584877874 85.19082498667535,18.34830201393163 81.42352443555842,19.729555159799588 79.98894139557501,20.13808973615926 78.15043814224896,15.349931647600556 78.111116542226,15.354981247153432 78.0590518311144,22.293813796735435 78.08650413333794,22.42643299613667 69.69272607111611,23.02400080794871 69.50638537778991,23.074265321374355 70.93776443554793,31.873996434900278 71.36061727110769,33.17391733673105 62.21448592888896,43.371416741741655 62.084142106679565,43.80545878677333 71.66557812444057,49.615908003812024 71.84609339555732,49.66951244867926 71.439406106663,52.3015608369675 71.417123866682,52.41145572695643 58.53427544001147,59.51872059125856" stroke="#009edd" stroke-width="5.254864044732488px" fill="none" stroke-linejoin="round" vector-effect="non-scaling-stroke"></polygon>
</svg>