<svg viewBox="0 0 493.2569873600289 242.19907611452732" width="1000" xmlns="http://www.w3.org/2000/svg"><polygon points="8.052550000000338,74.75384295514198 25.28647910219297,87.15154924718775 25.74464856004488,87.34946117419861 26.988376204484666,108.45073266325164 29.406800240023586,111.2198540135065 39.118652897865104,108.12196792287398 43.08197890662268,109.13226129624638 40.24558082663134,102.32095477192308 41.999324186683225,102.68414529387485 102.39118509330001,144.08525657151006 103.07712856002763,144.88937394382776 129.43483394661598,142.26013456899784 129.70921133328375,142.23840144390817 161.22125030225288,155.977831912263 162.9945088267341,156.73708382857842 196.12164610668697,197.76671029974352 196.35116774225753,198.69737346188742 226.47093079993647,177.20148078274326 226.48724198222772,177.14851477705054 245.92026797330618,190.98442780072912 246.07260276444867,191.09759582844674 303.49874121775065,173.65725703151077 305.46831647118233,172.54087573153777 390.9907575732577,233.96594557309402 392.4197336444413,234.14652611452732 485.1161822133945,206.42543603326305 485.20443736002926,205.9786797286721 478.90861229328584,147.2437545981735 478.69947963555023,145.78539988640807 466.925718782215,122.44496366286296 466.0224870666643,121.35956441393466 449.9559725777726,116.46138968200069 448.0481467999998,115.52041312351469 441.1118165600128,71.45162433278858 440.88666399112117,70.51770018254285 414.6783806844396,30.384620283009674 413.38338932439365,28.945415781555887 351.00505944001634,51.24318466053922 349.8341495733257,52.18625062911418 325.65952116446715,34.210221537250284 315.8002853244325,30.029916373525005 289.0059645422516,33.97149148779102 286.7713325777804,34.29855611923961 303.93797805332724,28.289004906233124 306.21105780438666,26.42259464940401 310.2509881155347,8.387355416991007 309.66407682674617,8.052550000000004 251.7582148533329,30.036711473053977 251.23159668441076,30.337960670214336 241.45624692444835,20.41690345152859 240.4041756711449,17.47764688541759 233.5531878666734,35.95380366387656 232.45742594669719,36.92955125179254 182.41734032889508,29.191852480209157 180.56776877339144,29.300574464468475 88.51502936005272,56.96221464998201 88.48706733340077,57.1447536865959 46.0698379644673,49.668228215748634 40.732877395559626,49.000555582729824 8.052550000000338,74.75384295514198" stroke="#009edd" stroke-width="4.927288212992548px" fill="none" stroke-linejoin="round" vector-effect="non-scaling-stroke"></polygon></svg>