<svg viewBox="0 0 115.78899688892058 89.30287403888293" width="115.78899688892058" height="89.30287403888293" xmlns="http://www.w3.org/2000/svg">
  <title>Koryčany, okres Kroměříž, Zlínský kraj, Střední Morava, 76805, Česko</title>
  <desc>Geojson of Koryčany, okres Kroměříž, Zlínský kraj, Střední Morava, 76805, Česko</desc>
  <metadata>
    <collboard>
      <support-module name="@collboard/map-svg-geojson-import" version="0.11.1"></support-module>
    </collboard>
  </metadata>
  <polygon points="8.05255000000011,76.56411796386931 18.43549129780854,79.76236858839513 18.720354444470786,79.99746955050034 28.37307906669571,77.32292860680138 28.892925182248064,77.37639846244531 33.689068115585314,81.23131634442655 33.6996995111183,81.25032403888292 36.5269953689201,76.56267281209114 37.588241662255086,75.27213714583888 60.398192097789206,68.42831448942127 61.71524724446476,68.38150688794087 72.77226271114318,60.555518462475106 73.57121936890303,60.17266324672494 103.33424813336,54.14492897611456 105.781289555576,53.30539321259823 104.35559028445982,44.35129306559213 104.34503170668154,43.23653065527435 107.47961858669419,38.7141817898879 107.73644688892068,38.64754792946735 106.7091336800147,34.25220526612941 106.52767177779583,33.89709168344382 100.39940041778732,29.18516782660265 100.38891465779284,29.1947362700663 94.42397357334971,19.188242047042536 94.33622815114336,18.94375684069348 90.54802889779216,17.193268982540417 90.5086344800145,17.171011945268788 67.2746661244671,17.935758599814676 67.11184557335923,17.927078473155802 63.44292184001074,10.10495027523541 63.21048749335,9.777172383015227 59.13276475558064,8.179102052359326 58.95406992891344,8.052549999999997 53.63786242667243,9.689022614191003 53.140007280024065,10.036501063040873 51.58643999114406,11.327895219168227 51.42915359113954,11.412703464716856 52.050362053363415,13.983266334929453 52.19075472889358,14.518799102290018 49.490525893350195,15.115758429171933 49.16153517337057,15.24641197661515 46.983773893363605,12.868112842442883 46.84236176891841,12.526773430384878 40.52119611556532,12.140802486762936 40.151063351142284,12.110975323339176 36.550442693354626,14.796468347347059 36.392500933354086,14.879490623781408 33.56687988446333,31.439603015816488 31.969913200016663,38.716295383484635 29.86351334225742,38.02036250959611 29.81108454222681,38.02892823292461 31.125955155562906,47.21462319432578 31.255497982237785,47.50992381854269 25.894944453357084,50.54670154891903 25.848996435590152,50.80650600769843 19.965174355580302,47.5072544414503 19.535476648896065,47.384796628298886 10.59228845334269,47.61603145361698 10.546267617791955,47.66730561508268 10.811105875596468,62.03064823990974 10.842417520012305,62.56215677216062 13.18227117337642,62.10359197323089 14.152859333356673,61.855293779349836 15.385809946695872,67.0751029509189 15.436127031141723,67.10478923893936 13.21329154668615,72.52810616492172 12.962652755588124,73.14589467389271 8.05255000000011,76.56411796386931" stroke="#009edd" stroke-width="4.865504799507726px" fill="none" stroke-linejoin="round" vector-effect="non-scaling-stroke"></polygon>
</svg>