<svg viewBox="0 0 75.20772215111289 65.16433269852065" width="75.20772215111289" height="65.16433269852065" xmlns="http://www.w3.org/2000/svg">
  <title>Bystřice, okres Frýdek-Místek, Moravskoslezský kraj, Moravskoslezsko, 73995, Česko</title>
  <desc>Geojson of Bystřice, okres Frýdek-Místek, Moravskoslezský kraj, Moravskoslezsko, 73995, Česko</desc>
  <metadata>
    <collboard>
      <support-module name="@collboard/map-svg-geojson-import" version="0.11.1"></support-module>
    </collboard>
  </metadata>
  <polygon points="8.052549999999883,26.313444465201997 11.77208208887123,26.640769625133203 11.971457164450385,26.737696177769635 10.53228660443665,29.45797896519764 10.722049733339645,29.89839727408946 16.05311206219585,34.492950950610634 17.995089377778186,35.691305465886785 12.892383600009907,45.20503319486272 12.47011330666237,46.120121029125244 12.131801911112689,57.05941296453932 12.168065164448763,57.11178269852064 16.651747013332624,55.20542469004397 19.197238071100855,54.220920955710994 19.92497894220969,51.78318658307364 19.745264666656567,50.74815626815655 27.091267724440968,46.68539734942135 27.39382559111209,46.48576971100522 50.4604586933051,45.95320097606566 50.55905396442495,45.93690235776705 57.92712080886804,48.51888023090544 58.49626456000942,48.68219570804615 66.66001126220317,43.42168641286082 67.15517215111277,43.028926409642395 65.91654175110261,34.97402727619158 65.80178093331733,34.60841415130528 53.73558388441552,23.326273023128692 53.01323152887153,22.812820704675346 52.11910203553953,20.609846449987913 52.08735348442087,18.40700847106166 46.803549893323634,14.601539873001116 46.45358765332594,14.309233136307398 43.84263341333235,8.586049908953669 42.932848097763326,8.215086365285629 32.19076951998386,9.976522178919936 31.542254391104052,10.004641703540642 18.494400879986188,20.717467006666652 18.416121768888388,20.754802406365002 8.231317644421779,17.874166572444324 8.099226195546635,17.881813981257096 10.94159533334414,22.519320830185848 10.971377804445638,22.780771944329558 8.052549999999883,26.313444465201997" stroke="#009edd" stroke-width="5.8964421441407655px" fill="none" stroke-linejoin="round" vector-effect="non-scaling-stroke"></polygon>
</svg>