<svg viewBox="0 0 297.2530836445069 375.11576975702997" width="1000" xmlns="http://www.w3.org/2000/svg"><polygon points="8.05255000000011,208.4692828886689 15.660551422253548,217.88873323266284 16.41173961779691,218.8984663408262 13.032120915573387,235.91788806769887 12.088111244469246,237.23169192564797 19.12143476444885,260.1243585834525 18.414811048867477,260.7523963626952 39.74459451551206,297.37746993519954 40.66297232881311,299.5905137012958 45.32709663102992,294.95074278230436 47.10618057774968,291.9572174704879 62.77627508444834,304.62555475548265 63.06754619556136,305.1158286093048 100.31529588448007,303.81322703706223 100.39597798229784,303.81412662644993 112.94044219560578,319.2293977334409 113.24394669323351,319.97780215097714 119.50627558222163,352.3272076741339 120.2615415733087,353.249080647867 131.2468315288204,349.56201517440036 134.12517264890607,348.8456406972616 165.95032806215,366.85862216455985 168.36875209780533,366.7970180167829 165.4324480267021,342.9049937119487 165.0747671022325,341.619706116129 147.92996695996385,328.484425996641 147.68792066662695,327.3339777369763 159.72848585781298,313.2987420109346 159.98509570674628,313.0252785078262 177.33291181326035,311.9750495451515 178.51576379556332,312.5642578488694 184.20137588444754,291.50469903965836 185.16577453338664,290.86010606188916 168.88750594665885,272.72705865649164 168.60176898664918,272.1467403576023 168.67779074665282,265.12251768323017 167.5779510311329,263.9357463996637 176.97930868445087,261.9306371650671 177.22718040002633,261.5176462651941 168.46924063107122,261.75293420450885 167.6860126133322,261.69759882274207 161.4091201688641,247.2842801821896 160.5673466577207,246.30887134673662 160.5189956532338,213.12843585879432 160.5230734488939,213.05778882859863 174.53583533337928,208.2298877651117 175.38809460445896,206.00512056341518 169.2766441510537,191.86895076974884 169.19275807109784,191.0863564020035 148.73853556437075,193.0147106807924 146.84702096888918,192.69609462246422 150.42499529777683,180.0082282776491 149.05456471999764,179.6144349688327 137.62333869338158,197.19672847176093 137.24119099553332,197.99595144621685 101.52523607991293,208.22133793452645 100.84890455994878,207.87439452359808 85.49483920887701,174.41089617621742 85.17851878223132,173.7695588844142 91.75571174218908,169.4304689430644 92.36446836448863,168.54922846935347 90.95063839105546,152.37301979141898 90.97947423111304,151.2054419490521 74.89956127104938,145.29183909207472 74.080798177725,145.30759330795968 76.02503284437239,135.53345990190405 75.23335796441074,134.74706296998897 52.840726213391235,130.7088004475006 51.19009282670572,130.82673983628752 61.96887156446587,126.90904743542319 62.010814604443794,126.81001259267919 64.84663014228113,116.95086972011609 64.91216614223208,116.69291714111 58.23681481774088,113.37056879371062 57.64815590214107,113.05678884333588 32.478836648842616,117.59822581333697 31.377249306627846,118.73221980708308 45.35971899561241,124.38634592816356 45.87934665775515,125.13946810566244 28.248706302234268,155.22622255548026 28.117925573351158,155.6412144013227 38.21309101334896,161.18861661639653 38.47261357340153,161.6107985496999 32.678066088912374,187.81959098866332 32.70398921773426,188.82181225912768 8.05255000000011,208.4692828886689" stroke="#009edd" stroke-width="5.557511908534125px" fill="none" stroke-linejoin="round" vector-effect="non-scaling-stroke"></polygon><polygon points="100.75715416004073,15.408855822788382 107.26589840881184,26.298959181854798 109.14110182223499,29.26099154933013 107.43716582222964,54.776854873729235 108.01708660447161,55.36405397926114 153.8925778754999,63.110971957248466 154.87620041773312,64.30828850807279 159.11419508441008,95.96252982677083 159.1074958488823,96.17278336614959 150.75850072000298,120.99748914628412 151.67862615999888,122.11120796306182 175.9744233510935,120.55272030700121 176.51910032888532,120.96102533813223 186.8041745333246,145.7063996526192 187.41642640889745,147.83275439902332 200.60052198227618,144.59100039801683 201.8573568266363,145.5425560503861 240.40767092441797,189.68046967124224 241.05924439998466,189.98828943292733 267.9665783733142,160.91946395670652 271.93310836444266,157.59778683257878 288.59935007102445,161.13415598785627 289.200533644507,160.90506112945855 282.0472064267158,151.1514289451659 280.0027744977049,150.60904762565747 287.64951497779816,129.76708365997888 287.7363137688733,128.95725800059859 277.9761101066613,119.47005553878967 277.7492099110748,118.60031846547622 276.3231465511269,63.42752525883384 275.2585506399407,60.630763241300656 266.2160389955168,54.8678168013937 265.68621684434015,54.72957266864955 237.98604290662456,70.46857898028225 236.35492468448479,70.60996508933727 241.0790508355492,55.16231704093639 241.07642939556513,53.10260828209698 222.78809887110378,53.43268534521462 222.16506996434305,53.31695579042548 202.19115351999767,37.96716198905028 202.00153602657497,37.67128758106969 203.13050285328768,15.387237212540413 203.38856905778061,14.634638011899142 240.52563572451595,16.37448490176007 240.1519348888903,15.502986829938664 119.72560272887472,9.794701226557436 117.1064928977064,8.05255000000011 100.75715416004073,15.408855822788382" stroke="#009edd" stroke-width="4.876552333337818px" fill="none" stroke-linejoin="round" vector-effect="non-scaling-stroke"></polygon></svg>