<svg viewBox="0 0 72.24578622220658 88.41619963447671" width="72.24578622220658" height="88.41619963447671" xmlns="http://www.w3.org/2000/svg">
  <title>Lanškroun, okres Ústí nad Orlicí, Pardubický kraj, Severovýchod, 56301, Česko</title>
  <desc>Geojson of Lanškroun, okres Ústí nad Orlicí, Pardubický kraj, Severovýchod, 56301, Česko</desc>
  <metadata>
    <collboard>
      <support-module name="@collboard/map-svg-geojson-import" version="0.11.0"></support-module>
    </collboard>
  </metadata>
  <polygon points="8.05255000000011,35.242304165723574 10.664814959985733,35.41127995000682 10.723870177789422,35.35076994018858 15.359595546680566,42.56659582853138 15.371246391099476,42.75511306297961 22.486198639998975,45.53744761084784 22.56476902220288,45.5339420762681 21.32737652445917,51.14635358905765 21.28805492443621,51.24528986120243 29.58884468442534,56.88820469413589 30.33377055111464,57.42647224422365 29.921549111116974,60.97295843595169 29.75013606221887,61.79911980711734 24.493056595536245,68.00352193561378 24.166687315540685,68.47453752707918 41.583607493324735,79.76401751043852 41.95257517332334,80.3636496344767 50.31220169779385,63.11498318077759 50.52410143111024,62.31337294050139 53.602764257789886,63.8056857005646 54.122100648884725,63.955129513815 55.86259117333225,68.32951444137836 55.90031078222796,68.313802641998 56.022280559998535,63.257759230567565 56.191800346663285,63.05043426602027 53.0036195822247,59.32625081012487 51.09113346666686,57.13365354692326 53.60509442666785,55.5207483278133 53.6482025510993,55.40327776093148 51.51442320887122,54.854701561962095 51.33041268442298,54.73101111257677 58.44653001777601,47.97667965453696 59.425200951118086,48.44458903113958 58.995794515539956,38.84994781364333 58.884383315547666,38.72361985212013 64.0524794577866,35.61633486711765 64.19323622220668,35.21312355559315 60.32420923555742,28.169847337768836 59.93062914667075,27.87540095591215 59.55772930666694,18.567338140368186 59.431536097785056,17.50123109079835 55.849848062214505,8.266986895796101 55.760791919987014,8.052550000000004 39.40824920000864,24.32585647404597 39.41909904889303,24.39757815746237 14.08892532441655,15.2360096702538 13.285672417761589,14.8564081400906 8.583901324432873,28.279910828634122 8.530453075545438,28.343709091604644 10.017392097775655,28.462369137479648 10.599206142221874,28.777965142733258 8.05255000000011,35.242304165723574" stroke="#009edd" stroke-width="4.946377010620969px" fill="none" stroke-linejoin="round" vector-effect="non-scaling-stroke"></polygon>
</svg>