<svg width="3729.8979254044825" height="8539.870856505062" xmlns="http://www.w3.org/2000/svg"><polygon points="3603.3132080355426,3869.179076416709 3624.7434800355695,3869.4026738232933 3626.284304213361,3869.4620881057344 3632.0503071289277,3861.001058911439 3632.8705265778117,3860.4672161301132 3656.236003839993,3855.8929870648426 3657.465459200088,3855.799551141332 3654.970430862275,3849.185909454769 3654.9849944178713,3848.005674648506 3660.423317333334,3844.0884467022843 3660.438463431201,3843.7745573922293 3683.6620916622924,3852.7265754836844 3684.349200213328,3852.54287593381 3724.747338240035,3809.5792314291466 3724.8979254044825,3808.6664477796294 3715.7068654933246,3781.096490940894 3713.93360696896,3778.0524070000974 3694.661071359995,3779.460340816062 3693.8446384356357,3777.8110200751107 3721.7801594311604,3757.2808084484423 3719.963792782277,3755.7824287466938 3692.1890534401173,3778.497066424112 3691.4401954134228,3778.7883632278536 3673.449543964467,3768.6353960222914 3672.838748444454,3768.489740874851 3660.479241386638,3769.1885216914816 3659.264640853391,3769.2211919084657 3644.5598188089207,3782.594242654566 3644.1182518044952,3783.3614904491697 3625.4535990045406,3780.032495655236 3624.33599175117,3779.704448298551 3619.2914673777996,3794.45474738325 3618.8044620800065,3795.3812015842996 3608.0644223999698,3805.0388661785983 3607.6135347200325,3806.0464833900915 3609.481747626676,3832.0886624865816 3611.10441898671,3833.8341927352594 3606.806713742204,3844.103868997772 3606.4985489066457,3845.969958686037 3612.7180609422503,3857.771222051757 3612.957194524468,3858.381270740647 3603.3132080355426,3869.179076416709" stroke="red" stroke-width="3.115617806924626" fill="none" stroke-linejoin="round" vector-effect="non-scaling-stroke"></polygon><polygon points="5,206.91922990378225 9.141875199973583,215.37116451188922 10.109769102185965,216.38179495674558 30.480979342246428,227.86648550705286 31.0760462222388,228.30373941722792 64.42513208894525,223.84306210762588 64.66251804446802,223.77249124506488 112.41903815115802,259.52727591095027 116.15633777785115,260.3403187249787 122.81625173334032,282.12577106273966 125.99168938666116,285.24800898879766 176.45091413334012,253.8082192328875 176.71218432008754,253.7814706065692 204.51692458672915,262.92331185005605 205.54948067560326,263.8760738511337 218.0487978666788,281.2929821846192 220.67722837335896,284.33407547406387 223.49032476451248,303.8868872587336 222.94419143116102,307.85302568174666 241.57389169780072,289.2804291532375 243.05151004449,288.1622413075529 273.2738005333813,283.0849037631997 275.3231840711087,283.29517459182534 300.4747357867891,302.6087810489116 301.3025282844901,303.4622359290952 378.3577181866858,335.5355776330689 380.12049095111433,335.9080718823243 421.7967266134219,361.7275445685955 421.95372174226213,361.44636363058817 417.59572337777354,352.33682449924527 417.34697784890886,351.57806298614014 418.92275456001516,311.5000380302081 418.7966341689462,310.79415462119505 397.8466682311846,285.3512989099254 397.1167428267654,284.75323113484774 379.9550489600515,239.06368787202518 377.53633365337737,234.8642863711575 373.1611502933083,209.1306124262046 372.7204571022885,208.13240251987008 360.74601045344025,198.96101700211875 358.308653795626,196.2024210091331 357.078615893377,186.63655404618476 356.386555733392,185.3946578031173 326.9419591111364,148.4131287401542 326.5618503111182,147.99463028856553 338.7168850488961,155.0923830632819 338.90213347563986,154.92166693141917 327.1333242311375,137.6957129073562 326.9346773333382,137.23058887571096 334.1800462222891,139.04216748161707 334.1628612267086,138.67902240663534 315.3234457600629,127.14711716817692 314.71002880006563,126.90992932452355 324.8413118578028,122.99306190863717 324.54217642662115,122.66265371476766 268.0440277333837,102.20958328212146 265.0978204444982,101.54131839668844 251.83071260445286,105.44611581857316 250.3347441777587,105.67040530405939 252.52248149341904,113.58038289856631 252.7298665244598,115.47984180186177 236.1492585245287,118.21039996575564 232.95372316450812,118.63310960750096 205.11723434668966,111.36986417957814 204.11118392890785,110.69424390606582 145.38714140444063,111.08604854438454 144.3280796444742,110.4773435050156 146.72873614227865,82.44274132163264 147.21428508451208,81.68348926713225 196.59901070222259,54.337090255576186 198.0527448178036,53.61836089810822 219.55466951115523,16.110465662786737 219.00504092441406,14.805255784536712 183.2716097421944,30.134392978041433 182.42692352004815,30.18979251064593 143.53028807113878,25.807183736003935 140.78098005335778,25.723621066310443 140.66359779553022,18.455852969258558 140.82146673777606,16.208806234877557 135.94034545787144,12.115861323662102 135.2459551289212,10.587162203737535 131.57797802670393,22.11608347762376 131.267774293432,22.929100493551232 112.96429767122027,19.865843186853454 112.70710528001655,20.411554012214765 109.63798158220015,13.63531561405398 109.48855950229336,13.423857714049518 93.53797091555316,17.73746540112188 91.73471146670636,18.351049791031983 91.90947413339745,5.263640120625496 91.75713934225496,5.132050959044136 85.26324991998263,19.446632915409282 84.70575701340567,20.50389073230326 88.32596565329004,24.173781578370836 90.09747655119281,25.97615566512104 85.54490908444859,29.51437890221132 85.17149951995816,29.824616995290853 87.2622435556259,37.011212584155146 88.05158826673869,38.10670066974126 73.44142933341209,64.79878509161063 72.34566741331946,66.10184531763662 67.70979640900623,59.33258531149477 66.11159182235133,56.5495798769407 40.953632142278366,53.90271396894241 40.80362751998473,53.84039636381203 46.13359758234583,70.87089535355335 48.34638421330601,73.61909781320719 40.986254506744444,84.44863081909716 41.325294080073945,85.5217232509167 56.62401792011224,83.27214612672105 57.24209521780722,83.58046050881967 72.70567850675434,118.08303314237855 70.39968512009364,124.75538419367513 42.315033315564506,153.21772795484867 41.96638179558795,153.42351171583869 40.344875519978814,165.6686754168477 40.28691256896127,165.8361534208525 15.686737066716887,172.731243494316 15.108272640034556,173.26364875549916 5,206.91922990378225" stroke="red" stroke-width="3.560771315192876" fill="none" stroke-linejoin="round" vector-effect="non-scaling-stroke"></polygon><polygon points="975.917005084455,8532.427504659805 986.8029715911252,8532.679255952127 988.246802488924,8530.954731655773 975.917005084455,8532.427504659805" stroke="red" stroke-width="3.6488194708050856" fill="none" stroke-linejoin="round" vector-effect="non-scaling-stroke"></polygon></svg>