<svg viewBox="0 0 55.847805952001366 55.701713697995004" width="55.847805952001366" height="55.701713697995004" xmlns="http://www.w3.org/2000/svg">
  <title>Ústecký kraj</title>
  <desc>Geojson of Ústecký kraj</desc>
  <!-- Generated from maps/2-geojsons/world/europe/czechia/ustecky-kraj/okres-chomutov/okres-chomutov.geojson -->
  <metadata>
    <collboard>
      <support-module name="@collboard/map-svg-geojson-import" version="1.1.4"></support-module>
    </collboard>
  </metadata>
  <polygon points="2.5272351424964654,26.7025580436528 4.973766840275312,28.78535868809396 4.998961791387228,28.872354516851022 8.43478125449892,28.13898514121812 8.436849279387207,28.139122213939675 10.072132678495656,29.435298075181905 10.095893119385984,29.462705989384098 11.888506609163414,28.86051073997352 11.934716770943306,28.835521085266205 12.720304084720375,29.843398994720896 12.744239288277278,29.886072125487967 13.892153300720203,29.646632345164665 13.945616113164398,29.65281031686301 14.783989034051594,30.814326497619746 14.788015857164101,30.826131751674815 13.650522068718965,32.808535746238896 13.652065805607528,32.81891004802002 14.808375707830237,32.88500153063925 14.867059554942353,32.86937749017217 15.247175636718566,33.818219421787774 15.23165088649821,33.90100383695373 16.518333738052572,32.24881899700687 16.594843377164036,32.22000982479496 20.270852280274084,33.43114128366707 20.280952106052247,33.434656046969586 22.10186258427548,32.04902355017094 22.120351018052133,32.05833776124474 21.992213574496965,32.8428655930764 21.9939320740521,32.8524523465616 23.017851974497717,33.08848656278407 23.04445230872061,33.06981601677673 23.449115263385284,34.61596665135422 23.460329201165408,34.63796330939059 24.166195611830155,34.959083815091994 24.181982506054737,35.01108285169013 23.998103053608613,36.58727936347551 24.06695226249849,36.6131456818037 22.933762004721032,37.58462853126822 22.93152649894164,37.59204036667199 23.941611021608516,39.40883167874255 23.94023476560815,39.46475486413239 23.15797522427438,39.69297840339988 23.119170630496047,39.713928619581395 23.011793535385916,40.84031102377177 23.018084991388424,40.859661376073035 21.417928888276037,41.315616837114625 21.37289109271933,41.36516202273907 22.931257073164854,41.10987640995137 22.96275804383022,41.09800236809807 22.508520746053364,42.091218281628805 22.514666566497,42.14409460659209 23.86174448294314,42.17575635235973 23.867722822498582,42.18818629991276 23.59981165449699,43.27553128756537 23.601792298053443,43.29325545675512 24.197929599386228,44.949606014288854 24.193349361163385,44.987150007151484 23.09842484560777,45.35089309690067 23.088965816274687,45.35923940746126 23.269954402942496,46.27263307786326 23.350782136275484,46.43852669132013 25.33945749271934,47.06925637456426 25.474767487385364,47.141776426423 24.92857589983014,47.47058027182485 24.8854459300519,47.5112141135278 25.353780749608816,48.068026451884194 25.411532529163924,48.10880377144332 26.898282225164987,48.19380580092094 26.976757944276144,48.204071051672344 26.07699235494347,46.33679621042521 26.083138175387106,46.31936659136101 28.53308502694108,45.89268207849947 28.5542531549434,45.88711462464254 28.236658417162655,44.69862281720836 28.24319017182843,44.65845759562927 30.0771059051649,43.22369117761392 30.09875463049666,43.1574636059244 29.461468002942095,42.81421549820354 29.452999295387237,42.806810796212645 32.54945878694107,41.600290375518505 32.569017642052316,41.590559556941855 33.563686641162896,43.581276481402 33.59835518516466,43.70182934658498 34.31997936294338,43.59573066523282 34.53886960294312,43.56471506031359 35.795252977163,42.33058748906607 35.82863264649914,42.284320899325955 35.89593811849755,39.726785948303416 35.87348839760798,39.50730670995237 38.402610018942326,39.01896060633718 38.48064154960721,39.01410428278743 37.59844689005386,37.32779647422559 37.611466708718034,37.2890134683823 39.708312874051444,35.589826516699226 39.77330274071992,35.55897041726986 38.830713016274785,34.953984277619575 38.78298096294148,34.95190795450018 38.832795604719834,34.26783026819013 38.83098244205158,34.23235704945529 39.69773973271931,34.50770482746285 39.73718512294272,34.535840103184285 39.7087643442761,33.69283656506142 39.69856257360644,33.60328212615697 38.72347427494224,33.132332420944124 38.720292138051995,33.12765341602918 38.26777333983028,31.337466367779246 38.26637523849768,31.332306340786285 41.67190978782874,31.627173449990927 41.70140826960833,31.636796600882203 43.00131482960697,30.979357961742622 43.06842369360657,31.018562898754148 42.677938360275405,29.908396308008935 42.692567451830655,29.84554579124216 43.90182316027622,29.35946878984379 43.951615956719436,29.107591457587674 45.48619236916402,30.609648530166137 45.4910565967175,30.62632949740347 46.48090505894197,29.715720167192753 46.528287586942135,29.626316931974557 47.36552455049805,30.17601669769048 47.56986579849891,30.26142589170469 46.108828059831104,27.803557795111388 45.914411874941834,27.75102116426116 48.328954722941674,22.451524281248396 48.37504109449783,22.41678544504522 46.557050609163525,20.5794029452749 46.522513137163884,20.570412125768613 47.74331774516304,18.393988330483094 47.72969353893987,18.363812225883716 45.80532356205204,17.53157427643729 45.720964166495655,17.527682927610126 44.93749585005262,16.308683090073295 44.90067189983074,16.183626662229482 45.29110626071906,15.732270704790256 45.28945329716353,15.728023143201256 44.7109743069419,15.581955369413311 44.69789623405359,15.569544349865295 44.984441471387804,14.609264099872792 44.98224965627578,14.5980303363771 43.76868313538708,14.47946174955706 43.75100297894369,14.461265123347232 43.80163317983079,12.675029418081806 43.79615000116446,12.643939303648779 42.79275015049771,11.051609078248852 42.817333432275156,10.93929955156183 41.81525886516302,11.530511219399171 41.79588205449673,11.537489046704843 40.826473542497666,9.068024450896894 40.79687311582948,8.996597557126199 38.62388140027451,10.080291094416873 38.57282157449791,10.076176619859883 38.39218979494162,8.292835688139723 38.39500056116358,8.274709934911346 39.41699807227397,7.7287649264586555 39.44663490783114,7.67360211500037 38.40544991227489,6.740644953991989 38.3838448776105,6.70636694663391 38.96291369183146,6.217678122779592 38.966168646496776,6.210418161023529 37.286510093608925,7.101416673826873 37.27319900382991,7.0501922272566055 37.45210500205267,7.657973887036326 37.448959274054324,7.658535724335355 35.248114758496925,6.8673879749591045 35.21953378072049,6.860484387182635 33.54003542693954,4.920088800205679 33.524233969164015,4.909855871223965 33.11531845627451,2.528612378546507 33.105488056276045,2.527235142496477 30.52514641005237,3.780523806567192 30.52146183049754,3.7851708977903513 30.121641258051206,4.523571562046539 30.120417919385183,4.538050121751269 30.395341439387813,6.927077265374658 30.39219571138656,6.9284533795651555 28.070808646498882,7.62717594079569 28.06778670871845,7.629583828251464 27.227738978943492,5.6134048706064394 27.166025912275472,5.560916020789421 25.215499789608113,5.365179499710042 25.20904085272032,5.363653864872879 23.114240866942964,8.940736964279324 23.111561172720215,8.94732838380861 23.579357140720642,10.459554258118272 23.57748572383116,10.471495693163718 21.097093759386738,14.361520413930533 21.082515640274323,14.368757979456689 21.092841201161903,15.841057519706204 21.09163970783102,15.843175532162252 16.82386985183093,15.48234582990682 16.819493503385274,15.480765801736391 16.521836273165356,14.086668982104868 16.524202850943947,14.082007839401024 13.096473442943353,16.186305491896757 13.082070086497517,16.1888469444557 9.192158961164933,15.088137386126448 9.175483690053625,15.098625862395977 8.21420892383012,19.9913192570397 8.213728326497767,19.99416780028097 8.320617542497166,22.32243601896172 8.31776308560784,22.32885105448496 5.799709766497654,25.31903050441598 5.7946270856102275,25.32381911843969 2.5272351424964654,26.7025580436528" stroke="#009edd" fill="none" stroke-width="5px" vector-effect="non-scaling-stroke" stroke-linejoin="round"></polygon>
</svg>