<svg viewBox="0 0 68.54890046223524 67.32630654436004" width="68.54890046223524" height="67.32630654436004" xmlns="http://www.w3.org/2000/svg">
  <title>Teplá, okres Cheb, Karlovarský kraj, Severozápad, Česko</title>
  <desc>Geojson of Teplá, okres Cheb, Karlovarský kraj, Severozápad, Česko</desc>
  <metadata>
    <collboard>
      <support-module name="@collboard/map-svg-geojson-import" version="0.11.1"></support-module>
    </collboard>
  </metadata>
  <polygon points="8.05255000000011,53.359682329777236 28.64512628445641,59.27375654436003 28.77117385777069,59.25462550779742 32.345143208898435,54.1025853477255 32.756126746658765,53.64486681047823 39.96217403555761,53.620525994054 40.2560665866547,53.75389089204658 37.99827856888419,50.96006581992663 37.9725010755717,50.89134205423 39.002071635542734,48.11265551301006 39.63660575109657,47.49942779055676 40.469349857776024,48.70764737984394 42.292852648890175,50.0759341851441 41.74067544000695,48.53951047002159 41.62351163555991,48.36944823273337 56.18903327111161,43.70747553035438 56.702544239996996,43.82036943744573 56.80842128888594,41.56765580234754 56.8442476355483,40.74055790961541 54.50963686223963,40.00234205193522 53.26918601777993,39.85399558126631 56.07500063110615,38.26349219760562 56.820290586656256,38.23438821428102 60.34889446222928,31.4469599595974 60.49635046223534,31.302554272122173 57.53681751999079,27.99776795691981 56.82058185779147,27.459410170449367 48.377214888874505,27.151661492454544 47.21657232888515,26.401934487257343 47.95348823999643,24.259282639897386 43.21865787555703,19.300140747385406 42.873210337776754,18.514393972880164 43.79005897779257,15.876802947160861 43.91224720888545,15.513022423190371 40.788582995570096,14.297948404498705 40.12506740444928,12.998214046870665 41.451734497771895,12.536524440765454 41.71933983112808,12.288853262310688 40.29451437333023,8.736585329686598 40.07948347557226,8.052550000000004 31.33137410667382,15.778805629997471 30.873350284447724,16.96155915853854 22.948154622230277,17.92462330326783 22.571613893327367,18.014460085345156 21.197323973326775,14.575746738460687 20.83651188444469,14.241414230716721 16.605362088892207,13.053050049252882 16.417856311112473,12.804248240055706 12.911825946655654,15.65962252802968 12.62252091555979,15.86841936854001 18.091645751097303,24.106928682965766 18.129656631099124,24.207403050378737 21.37296045333619,25.42542762326014 21.433544844425114,25.501319632072075 19.014756719996285,27.540962712351423 18.705499617768282,27.810878101714145 22.006111031114187,29.424452653263536 22.09902651553398,29.51755510325132 23.790801946662896,34.621636436109505 23.859541928897443,34.91360088765908 20.011632097775646,34.416988581658764 19.757061146672413,34.47361507100107 16.99886935999507,37.3499367913388 17.20312322665245,38.839679919481235 19.605672986661148,38.24763788955864 20.175180826663336,38.03779436322623 18.470443831123475,41.22193856377965 18.532266124449734,41.352276371900764 23.706843048894143,43.557780339942504 23.66548255109933,43.870758317461544 13.110691297777294,50.19730641546597 13.377932542214467,50.79578530674156 9.298753448885464,50.69241626682163 8.595697804448491,50.140809487412874 8.05255000000011,53.359682329777236" stroke="#009edd" stroke-width="5.093362704065922px" fill="none" stroke-linejoin="round" vector-effect="non-scaling-stroke"></polygon>
</svg>