<svg width="670.6328809245024" height="614.553692363319" xmlns="http://www.w3.org/2000/svg"><polygon points="5,412.23677335481625 5.0209715199889615,412.45746428653365 8.626616604509763,412.86139499541605 8.606227626674809,412.90508723515086 9.893645937787369,414.53283991653007 13.361228515510447,413.64919149992056 13.824349582195282,416.1209014771739 13.80483441776596,416.12313064036425 12.125947733293287,419.28629044722766 11.75312071107328,420.0067444599117 11.80554951110389,420.0468686859822 14.64282140438445,421.5640048959758 14.923898026696406,421.7222715159878 15.517799822264351,422.0022471175762 16.537539982236922,427.3671885995427 16.425109333358705,428.49018084816635 16.187432106700726,429.1036112762522 16.683758080005646,429.040306761628 16.733274168800563,429.2814879488433 15.623822506633587,430.99560542043764 15.274588444386609,431.72359978361055 14.96001564443577,432.31562282086816 14.397279857774265,433.095325434173 13.541525333421305,434.22007168701384 14.969918862218037,436.4160519928555 15.636347164516337,437.5537091929 17.627185208839364,441.29206646978855 23.376003128825687,454.16542114992626 26.833973760018125,452.8027417671983 35.4005484089721,470.56104334874544 34.33711758221034,472.64879788958933 34.0152630044613,473.1150187694002 33.53583075548522,478.37040984549094 33.4263128178427,479.6446817984106 33.77234289783519,481.8036623095977 35.014614186715335,488.0790265069227 35.64142961776815,489.9468933879398 39.73029347555712,496.9867953826906 39.72796330670826,498.6887992291013 40.263319608871825,499.81945019069826 40.715081102214754,500.4001488449285 41.04130474664271,500.95187799911946 41.67452814220451,502.8913866537623 41.867058346630074,503.38027205783874 40.005253404495306,505.76630249468144 37.60809216008056,509.3515387577354 36.00085816893261,512.065940514789 35.482395591097884,511.9897362915217 34.83635626663454,511.2517571882345 34.4588689066004,510.4090497690486 34.18303516448941,509.31499593512854 33.78341120004188,508.63984391570557 33.384078506729566,508.11309021140914 33.10329315555282,507.2743816319271 32.427835448877886,506.81090687197866 30.65952853334602,506.7436138210469 29.903679999988526,507.23293633246794 28.913358222227544,508.2534688595915 27.71273870219011,509.9518205989152 27.11097258666996,511.3422221507644 26.859314346686006,512.4701344047207 26.200750364456326,513.4496441982919 27.067573191132396,513.1702303376514 29.250358897726983,513.4313731272705 30.600983040058054,513.6497346081305 34.22119168005884,513.9897541977698 34.54508515552152,513.7624803492799 35.75560789334122,514.2139083718648 38.1463611733634,514.5779913061415 39.401448391145095,514.8418062268756 41.57840867561754,515.4429643857293 46.33690481772646,516.7807470828993 48.17569934215862,517.2076593732927 55.81399296002928,518.689368373598 61.26484053337481,519.5676940311678 62.20098588441033,520.0716936278623 63.1199462399818,520.4362125121988 72.71266901341733,527.3258625987219 73.98494122666307,527.603476094082 80.59999943105504,530.6852743421332 81.00690517330077,530.9383755811723 81.86557240888942,530.3693429866107 84.22515968000516,529.9665187117062 86.53202687995508,529.6390006450238 86.60892245336436,529.611818851612 87.22816483548377,528.9585635961266 87.69885895110201,528.5873747203732 88.45995036442764,528.0522021442885 88.86860373336822,527.8374197793892 89.77241799107287,527.8605913308566 91.64878648892045,526.4921287969919 94.01798570668325,522.7142190787708 96.96215409773868,518.3119234470068 98.27840824890882,517.9999850036111 107.68355242663529,516.4278085319092 109.18214229342993,516.0329801399494 110.15964814228937,515.6060655753827 110.46519153786357,515.4496488631121 111.77066865784582,514.780754491163 112.92439352883957,514.3890425878926 114.15268380439375,514.3435879192548 115.71447950217407,514.4839626010507 116.72082119109109,514.8917171222856 118.29543281777296,515.7482219783124 120.92939747555647,517.2085506298463 124.39290225773584,519.1131575979525 125.94071694219019,520.1429932125611 129.7557859555818,522.8216127824853 130.92232675547712,523.5091986167245 133.29531249776483,524.4784102638368 138.29585493332706,526.4239505326841 139.59172010666225,527.1026129694656 140.78709674673155,527.8512335892301 142.36199964443222,529.1136339138029 142.79453724448103,529.3555968640139 144.00272981333546,529.7000482670264 145.3195665066596,530.340824478073 146.02531640883535,530.661211885279 146.3436757333111,530.7383008581819 150.9847896178253,532.7791436347179 155.12433464895003,534.7660508037661 159.06290261331014,536.7587327249348 160.25158001785167,537.2711591992993 162.33766371558886,538.1302506517386 167.3798579199938,540.1224565918092 171.6443582577631,542.0384506948758 177.7025060977321,544.7355183706386 178.77729649771936,545.3789243226056 179.39508252439555,545.9710878370097 179.49527978664264,546.0931740221567 180.0297622756334,547.0025803045137 179.46294869331177,549.0000528640812 179.61149696004577,549.978954849299 179.63800263113808,551.6319838407217 179.84830037329812,552.3635900210356 180.38278286228888,553.2146026827395 180.46259114670102,553.7670908202417 180.68279210664332,555.6682632140582 180.72910421330016,556.3499545028317 180.78240682662,556.8177806385793 180.82231096888427,557.3288238642272 180.83949596446473,558.2043223660439 181.1065915733343,560.5968883309397 181.32766634668224,562.2284519489622 181.3894158222247,562.5986931323423 181.2895098311128,564.6267661802704 181.26912085327785,567.1671775922878 181.26824703998864,567.269648852176 181.33931719115935,569.2994610399473 180.91377009777352,571.1715407950105 180.77337742224336,572.2434574605431 180.78502826660406,572.456414515269 178.53029859554954,572.5967522108695 176.83976106671616,572.665807234589 173.98122638219502,572.8925748703768 172.08592526230495,573.2369582798565 169.69866723555606,573.8326111094211 168.65009123564232,571.9048642304842 166.40293461328838,572.1899954060791 162.90010823111515,574.1128391466918 161.59288348443806,574.8457072906895 161.77405411563814,575.251122664602 161.86434815998655,575.7429662495852 162.05483946669847,575.8988946934114 162.1229969066335,576.176447050646 162.1495025778422,576.4802840620396 162.33853752887808,576.6397760501131 162.46058012440335,576.7115028562257 162.72068522660993,576.6241832630476 163.050986666698,576.4834026215831 163.09846385777928,576.3034171136096 163.11215359997004,576.1800111235352 163.19836984889116,575.9786409120425 163.59624618664384,575.9238432341954 163.72702691552695,576.1563991392031 163.70838556450326,576.4161308276234 163.8697497600224,576.837581595697 163.58576042670757,577.1881959444145 163.62187804444693,577.4768843417987 164.04596878227312,577.6470677570323 164.10975715564564,577.8462089164532 164.30112227553036,577.9852066661697 164.24811093334574,578.4801626853878 164.30345244449563,579.1207971798722 164.26762609777506,579.6233241874725 164.22859576891642,580.0345222967444 164.31830727111083,580.3935960750096 164.55365432891995,580.6537682736525 164.72958208003547,580.8885466894717 164.87871288892347,581.2293536225916 165.07095182221383,581.3491927981377 165.2894051555777,581.7292028384982 165.33571726223454,582.0891648521647 165.5617436444154,582.6883577427361 165.82388764445204,582.8269069452072 166.01496149331797,583.0536641337676 165.91243406222202,583.1605829630862 166.02457344008144,583.3615011228248 166.26021176890936,583.3401173806051 166.4142941866303,583.6702286701766 166.51594780443702,584.488599601551 166.87217237334698,585.1996042167302 167.68277987558395,585.8954598976416 167.13023857783992,586.6006686328328 167.5246196622029,587.3210216584848 167.70491647999734,587.8743153349496 168.0317226666957,588.0364719947102 168.54028202663176,588.3340558845666 168.6943644444691,588.5648167682812 168.2696911644889,588.893583787838 167.7378301154822,589.3239203656558 167.43519943102729,589.1742381729418 167.39238257776015,589.4188081315951 167.62015658663586,590.1525163805345 168.39522901340388,590.7548057236127 168.1581343288999,591.5958697467577 167.87443626660388,592.0306558231823 167.48675441776868,592.9946661572321 167.8304543289123,593.6227852262091 168.31309056002647,594.8500623584841 168.24522439111024,595.7058112654486 167.95511836442165,596.1094064222416 167.5770484622335,596.4056430156343 167.33995377772953,596.7816179085057 167.02363335108384,597.0800809335196 166.50924856890924,597.3469154452905 166.07700223999564,597.6957153303083 165.75806037336588,598.0663424453232 169.0406857955968,596.5205737973447 169.1196202666033,597.9095387418638 169.4726408533752,598.4440963639645 170.18246855109464,598.7051381986821 171.54299591109157,598.6873196532251 172.79662677331362,598.6254001966445 173.80325973336585,598.5870903083123 175.15825294225942,598.6775194526417 176.46693404437974,599.0485903808149 175.67758933326695,600.309692314826 174.92523605329916,601.1182014183141 174.51046599110123,601.8799345563166 173.8277265067445,603.9562008230714 172.94721393776126,606.3571794967866 178.51631758222356,607.8832796288189 180.6408490666654,607.9906318676658 186.61540209769737,608.956354222435 191.95148885331582,609.553692363319 200.264657635591,608.9496725786012 200.03134947561193,605.6943516322644 200.22271459561307,603.1196384778013 200.07416632887907,602.6425559752388 199.61599687114358,600.8571624393808 199.64133745781146,599.3029495640658 199.19132359116338,596.5989761566743 200.48544113780372,595.8011417554226 200.80583935999312,595.1561010006699 200.63631957327016,593.5372542241239 201.04672056890558,592.1994915788528 201.88412501337007,592.4703412809758 202.2653988978127,591.0617410062114 202.08830606227275,589.8580533145578 202.1541333333589,589.6050196851138 202.36297472007573,587.9709856657428 204.8766444089124,588.9706524085486 207.08797468442935,589.7894491549814 210.86779989337083,590.9205241005402 211.3250955378171,590.768615593086 209.20784583105706,586.8657338725752 207.91227192885708,585.100259724597 205.52035356441047,582.1831647367217 204.24167338665575,580.3437000018312 203.88865280000027,579.6634193781065 205.09247630217578,576.4736014343798 205.67268835555296,575.2840904754703 205.98027064895723,574.627851908328 206.31581496889703,574.0228454438038 207.25458176003303,572.5891784327105 207.8307160177501,571.6393354916945 207.98392462229822,571.2789109036094 208.27694335998967,570.513953429414 208.41820984892547,569.3649529131362 208.3305372444447,568.595533556072 207.7640149333747,567.3569721491076 207.3058454755228,566.2979520773515 206.91961998224724,565.5369871021248 206.66825301328208,565.1266530253342 206.36824376892764,564.5470158568351 206.29513471992686,563.8497562146513 206.14833408000413,563.4857546182466 205.6889995378442,563.0985845742398 205.62346353777684,562.8303720163531 205.79298332438339,562.3705783011392 206.00269852450583,561.8475172307808 206.04464156448375,561.6933610057458 203.90554652444553,561.1306453159777 204.8285846755607,559.7249636659399 205.66773674672004,559.0357085657306 205.89318058663048,558.4836791718844 206.31698005332146,558.0091733827721 208.2483987910673,558.4181840673555 209.6485390221933,557.3747152206488 210.3309872355312,556.3980738083483 210.4346797510516,555.9917326765135 210.74109696003143,555.564449911355 211.84064540441614,554.9264202996856 212.05589475552551,554.2295757937245 212.64863146666903,552.5181983246002 212.95796138665173,551.9420924814185 213.0645666132914,551.6034680816811 211.8051103289472,550.5474912857171 210.08195043553133,549.6064646652667 210.3936105244793,549.0009439921705 211.03615459555294,549.303927318193 213.46593820443377,550.4913506057346 215.21210851555225,550.8099264975172 216.3690373689169,550.9404756461154 217.81490716442931,551.230535081937 218.41376056883018,551.1788501719711 219.1480550400447,551.0122108109063 220.26216704002582,551.3797974693589 221.28336355555803,551.1240463318536 221.86299306666479,550.5265499226516 222.2544614400249,550.0631660597282 222.62437575112563,549.520025465521 223.02254336001351,548.7701417085482 224.1354902755702,548.1111508473987 225.41533553774934,547.9119828366092 226.4272113777697,547.7613814024953 226.91334286227357,548.4127987003303 227.3986005333718,548.6351356276427 228.27561784896534,548.5023572891951 228.61523996444885,548.53087344917 228.7399040000746,548.5633996896213 230.50791964447126,548.2336814135779 231.43882211553864,548.0095618173946 232.2753527467139,548.0701587883523 232.82702023116872,548.1664010020322 234.4692067555152,548.2760101386812 235.09660472883843,548.4395326112863 235.4085560889216,548.2715544837993 237.74105514667463,548.6952868619701 238.00611185783055,548.1423404525267 238.7867184355855,547.184817565023 239.35819235548843,546.6474622759852 240.02957226661965,546.7508342078072 240.5340538311284,546.4554220499704 240.52531569777057,545.9666321354453 241.0670799644431,544.9244410885731 241.7075851378031,544.2043951454107 242.15614264889155,544.4539162830333 243.71735580451787,542.5294772015186 241.51592874666676,543.1403625542298 240.8725108623039,543.1608590430114 240.10763292445336,543.2869569640607 238.70574506674893,544.519861107925 237.87329223111738,544.6958624022081 236.6665560178226,544.4610454542562 236.68286719999742,544.3327203372028 236.4020818489371,542.7103814283619 236.08110108447727,541.6040116308723 235.71846855105832,541.137935539824 235.1997147022048,540.2779646409908 235.15777166222688,539.5155731277773 235.2253465600079,538.7594171650126 236.36305152007844,536.4352350506233 237.20569884451106,535.037416641484 237.63328483561054,533.8962519766064 238.51321486232337,533.3962943356019 237.7061026133597,532.6049152179621 237.2444379022345,530.6416054370347 235.8964352000039,529.6318709945772 237.0402568533318,528.2901558064623 238.74186268437188,528.9371745781973 239.498585031135,529.569486543769 241.21533695992548,531.723522294662 242.57353415107355,532.5380756354425 244.259120071074,531.2324717263691 246.3720007110387,529.9531506368658 247.4147512888303,529.4790290587116 248.52565930667333,528.8663234416745 249.4886016000528,527.9220850518905 250.09910584881436,526.8553002419067 250.0705612800084,524.1152349043405 249.77462983119767,522.342128456221 248.86848540452775,520.85732465412 248.1446766933659,519.8996832849225 247.47824839118402,518.7686896573869 247.2463965867646,518.4366987008252 245.89722879999317,518.4398180813296 244.8623425422702,517.9491835581139 244.44815502222627,517.3297614838812 244.1134845155757,516.6368088278687 243.98066488897894,515.3168505416252 244.0464921600651,514.4870820373762 244.3823277510237,511.8894675365882 244.8142828089185,510.2013804974267 245.5928504889598,508.7187231691787 245.34468750224914,506.8617108835606 245.82208085327875,506.43611551233334 246.43287637329195,505.2136940820492 246.7955089067109,504.7863129164325 247.4884428799851,503.6008717712248 247.69087630219292,503.2750971672358 247.8236959289061,503.18685717799235 248.68644096003845,500.180437254603 249.51947633782402,497.8915018646512 250.99156053329352,496.7822331561474 251.9512988445349,495.61635854269844 252.41150719998404,494.9028366729617 252.9794858667301,493.989204424317 253.63717603555415,493.4044777984964 254.11398684442975,493.0755683899624 255.070229902165,492.565713269345 255.45965937781148,492.1993655929109 256.1089026844129,490.95591821020935 257.2862205154961,489.06711267656647 257.69429134216625,488.81708317121956 258.07323505776003,488.7324028823059 260.38272369781043,488.97663857450243 260.5234076444758,485.75297306728316 260.4077730133431,485.37235190800857 260.53971882665064,484.8045387934544 260.18640696885996,480.5744187721284 259.2412322133314,477.8730005369871 258.9581166934222,476.5300789406756 258.846268586698,474.92061251122504 258.98141838226,473.5023468386498 261.64946176006924,473.3672946662409 262.4685161244124,473.1751906084828 262.9706675199559,471.8901839874452 264.3291559822392,470.9033580016112 266.01212046225555,470.38899437722284 267.74430975993164,470.1995620641392 269.0579424711177,470.22363111993764 269.67427214223426,469.6383957390208 270.833822435583,469.3161367509747 271.0994616888929,469.22743744478794 270.6325540977996,468.0801376752788 271.251213937765,467.930373162264 272.4725137066562,467.17976615356747 272.2057093689218,467.08170566684566 272.84009784890804,466.5780306610395 274.2580056177685,465.9236971652135 275.0840504888911,465.77838850952685 275.0957013332518,465.8684263995383 276.7276933689136,465.53278991987463 277.47888156445697,465.4168993833009 277.7188889600802,465.31348931457615 277.90268103103153,463.34111126192147 280.6345127822133,463.5929526061518 280.75655537773855,462.35915014031343 281.6886229333468,462.55705822620075 281.7713439288782,462.25395568000386 282.6996249600779,462.2954094351735 282.7776856177952,460.85210098308744 281.2598718578229,460.36133829748724 281.09209969779477,460.3738191060256 280.9586975289276,460.3920945742866 281.3693897955818,460.0903262826614 281.65075768891256,460.33236498956103 282.80127857788466,460.3363766785478 286.2609968355391,460.8168873481918 288.16154083551373,461.1939849695191 288.9345743644517,460.53116638050415 290.607926897821,460.47901446343167 291.02968746668193,461.72085077886004 291.05648440890945,462.0016670663608 292.1901115733199,462.92924975336064 292.11117710219696,462.3448864875827 292.5026454755571,462.8334160669474 293.2858734932961,462.64843464735895 294.27473891549744,462.2659906419576 295.92974136886187,461.48148804181255 296.86035256891046,461.14272469247226 298.8363357867347,460.22716956213117 299.69849827559665,463.4819641553331 299.8257837512065,464.8245194965857 300.42114190221764,466.87354985263664 301.28534328890964,468.76031689165393 302.22789660445414,471.213134475518 302.2817817600444,471.18639120005537 303.11132188444026,470.9742277658079 303.97464945784304,471.620969025651 305.24983438220806,472.1366669340059 306.0141297777882,474.045674709545 311.0656446578214,471.9120242596837 312.7261812622892,471.26929534366354 313.359987200005,470.83248821482994 313.8111661510775,470.3421934678918 314.21515918220393,469.6727165163029 314.59992832003627,468.91008084092755 314.8958597689634,468.1300591570325 314.93809407996014,468.1434309805627 315.11664327105973,467.38391011802014 315.2567446755711,466.19782212906284 315.51189816894475,465.3977328655892 315.82472334220074,464.85572088474873 316.0466719288379,464.11401811998803 316.17890901339706,463.3865764462389 319.4408541866578,462.2521727225976 320.00067726220004,461.61387305147946 319.1117178311106,460.236530174152 317.28865194669925,459.4667299372377 317.02505159110297,458.57211794686737 316.9930117689073,457.47602386795916 317.1491330844583,456.86623838567175 317.25457322667353,456.16952966270037 317.16893952002283,454.5251457054401 317.14010367996525,453.0519206022145 317.2641851733206,453.05504090781324 319.4102707200218,453.1896597658051 321.1844030577922,453.5088220278267 322.71940181334503,453.4682581346715 324.2835276799742,452.85043791664066 324.84684600890614,453.4722699485719 325.8954220089363,453.34032580745406 326.78816796443425,454.91963850229513 327.24313344003167,456.0812708189478 327.74878008884843,456.83369861583924 328.46006414224394,457.49608257226646 330.47158243553713,459.62095764651895 331.02354119112715,459.71500975149684 331.64890026662033,459.5701427484164 332.16678030230105,459.8941989588784 332.8256355555495,459.9120287228143 332.9182597689796,460.9118304271251 332.6601935643703,461.98205451184185 333.5663379910402,462.2067073043436 333.9907200000016,462.3702936182963 336.08292039111257,463.0981843829504 338.22725831111893,462.3283941380214 340.7939393421402,462.8031058690394 342.8931302400306,462.7982027484104 343.6568430933403,463.08080061437795 344.2457932799589,463.3874679203145 344.7942567821592,463.7645611448679 345.85652252449654,464.68723333626986 346.0088573155226,466.21030260715634 346.2171161600854,467.36741814529523 346.5075134577928,468.35738004697487 347.12413440004457,468.5289848772809 347.9906659555854,468.4977840089705 348.0128025599988,472.00205964478664 348.21610979549587,474.32870387402363 348.5079634488793,474.4566240228014 348.3317444266286,474.72850980691146 346.9310216533486,476.5630615140544 347.03005383117124,476.7582825900754 346.7635407644557,477.9603592423373 346.753055004403,478.4724766705767 346.8649031111272,479.0518944328651 347.9638690133579,478.419883290655 348.89593656896614,477.76335639867466 349.0133188266773,477.4313036959502 349.32206620438956,477.24588881479576 350.11548871104605,476.58668416482396 351.08658659562934,476.3174749377067 352.3967240533093,476.1512247044593 353.73249336890876,475.9270318321651 353.8390985955484,476.657552102115 353.65006364439614,477.8836975231534 354.33921109326184,478.6627932881238 354.63077347551007,479.18293177720625 354.27600526227616,479.53191861032974 353.1720877510961,479.70663467171835 353.7237552355509,481.0187835249817 354.5381492621964,481.5977488954086 354.806701226742,482.3750487418147 355.22904433787335,482.7922222999623 354.9074810311431,483.6747022259515 355.6633295645006,483.51781716395635 355.66857244446874,484.26792285765987 354.20813909335993,484.9721195821767 354.38727082672995,485.4142470093211 354.0511439645197,485.8586020079674 354.2745489067165,486.2886940073222 355.31118279113434,485.9838413192192 357.67688675550744,485.69770727225114 358.5282722134143,486.8119343344006 360.848829155555,486.44379433599534 361.71040910226293,486.71566533856094 362.1679960178444,487.205032298225 362.63577742222697,486.9844161802903 364.058928071172,486.2869112442713 364.2791290311143,485.8599390827585 364.98546147556044,485.24844932800625 365.8508279466769,484.74481582199223 366.8685292089358,484.46090863941936 367.72020593774505,484.3962829345837 369.8677478400059,483.4946409521508 370.3731032178039,483.75671028206125 371.55245994671714,484.4511033613235 372.6199685689062,483.7709725496825 372.7347293867497,482.8728935914114 373.5695123911137,480.8280232392717 373.7460226844996,480.2396960851038 374.38478023116477,479.6206137710251 374.8292599467095,479.57515193428844 374.4826473244466,479.2765298326267 374.3906056532869,478.9159542483976 375.02878065779805,477.9942330166232 375.44588088884484,478.13953362143366 376.13881486223545,477.99334160162834 377.45827299554367,476.2951893908903 378.43373994668946,475.9265861204476 378.4284970667213,476.5300789406756 378.3527665778529,476.96865762001835 377.53604238224216,478.0646547941724 376.98466616892256,479.11384747270495 376.0278405689169,480.00079915620154 375.199465528829,480.5793214975274 375.58831246220507,481.001401169342 376.2786249954952,482.78776532167103 377.2814714311389,484.7697746777558 377.9018788977992,485.7592127529788 379.0433703822782,486.3457424166845 380.1035972266691,487.1760625175666 381.1926599111175,488.16326135979034 381.15392085327767,488.8304537401418 380.0867035022238,490.07703289121855 379.3853226666106,491.10031891125254 379.20415203552693,491.77151352132205 379.2405609244015,493.2355663884664 379.04744817782193,493.8153910313267 378.5921914310893,495.2451135357842 377.1687495111255,496.48229734797496 375.52015502227005,497.6922884901287 376.58300330664497,499.3800256338436 377.50662400003057,501.49602955253795 377.8846939022187,502.67212320351973 376.9144698311575,503.55184963182546 377.6496381155448,504.77695419546217 378.1969365333207,505.4151289219153 378.53015068441164,506.1758557391586 379.5347447466338,507.3831197999534 379.7092161421897,507.5925743166008 381.20955363556277,507.75389872363303 382.4436693333555,507.1634151675389 384.0386699377559,506.1950187124312 385.73182890668977,504.8019107837463 386.6493329065852,505.47573759872466 387.35100501333363,506.347431137925 388.06724067556206,507.6148567002965 388.8353225955507,508.21603456221055 389.35582407109905,508.4807483863551 390.3009988266276,507.62020447209943 390.6901370311389,508.54492138675414 392.25338908447884,507.31092479266226 393.19215587549843,508.4713898221962 393.68032625783235,508.19731741107535 394.2529652621597,508.6135508249281 395.285230080015,509.65279399143765 393.75489166227635,510.4571791002527 393.52770019555464,510.20672820636537 392.93904127995484,510.5467531053 392.4275692088995,510.9585256752325 391.4020036266884,511.71477697463706 391.0038360178005,512.47369950742 390.51013148447964,512.8074819904286 393.18400028452743,514.748668900691 393.7202303999802,516.3177379338304 394.93162695108913,515.1497384462273 395.66329998220317,515.9411802093964 396.0891383466078,516.7348472780432 396.6326502399752,517.224147618399 397.58772821340244,517.8101479634643 396.4013809778262,519.6786542534828 396.40808021335397,520.0520862380508 396.97401998226997,521.8100600558682 397.2405330488691,522.0484660723596 398.48571704886854,521.0489415529883 400.8467606755439,520.30921027984 401.75960433785804,521.2196141389431 402.07009934214875,521.7868878685404 402.34884579549544,522.0631714818301 402.80672398221213,522.2980122808367 402.75546026672237,523.1544883698225 402.38525468437,524.2105963450158 403.5418922667159,524.5202979355818 404.4477454222506,524.3879506903468 405.46311651554424,524.3291296670213 405.7893401600886,524.7925676076557 407.1195753243519,524.82242367242 407.9910584889585,524.3607682497241 409.17303665773943,525.2163451028755 409.75150108442176,525.4444983697031 410.57841976894997,525.6481427855324 410.3337520355126,526.7496909386246 413.5493851022329,526.9778426190605 414.5627172978129,526.5335704768077 415.63779896881897,525.8932288133074 416.41607537772506,525.1882715399843 416.71375445334706,525.0666193931829 417.1288157866802,525.8829797666986 417.79029248002917,527.2897683626506 418.2793366755359,527.9038151800632 418.48934314667713,528.3284779078094 420.8168905955972,528.5138498389861 421.7221612089779,528.5419229783583 422.5607307377504,528.3734840881662 422.7381148444256,528.3587790995371 422.83015651558526,529.2517711739056 422.9146251378115,529.9081447789213 423.7406700089341,531.9030985905556 425.6228639289038,534.8302161551546 425.733255679952,534.7638228398282 426.89426232886035,534.1440024017938 428.11206684447825,533.8779825996608 429.7344469333766,533.1521078388323 431.3472150755115,531.9186945398687 430.651368391118,530.1594645016012 428.70859008003026,530.2129367459565 429.9395017955685,529.1773553057574 431.8094623289071,528.4051220905385 432.41414115554653,528.0972083809902 432.76046250667423,527.9207482321071 434.35167658666614,527.0932551955339 435.1398562133545,526.1503460442182 434.434980124468,525.3990459798952 434.2007981511997,525.1334612404462 433.8696228978224,524.7136941038771 434.9543165155919,523.6330796992406 435.80890595552046,522.0186096320394 435.4203502932796,520.7682004583767 434.47867079114076,519.8921076967381 434.4326499556191,519.7619857894024 435.4899640888907,519.0316083153011 435.77191452437546,518.1916043854435 436.0675547021674,516.6069516548887 435.99823217780795,516.1194324668031 435.79667256888933,514.71390950575 434.98956031992566,515.0454604346305 435.1442252800334,513.2834219602519 435.42064156441484,512.6965183105203 436.0567776710959,512.6372485308675 435.9816297244979,512.056136464118 436.31484387558885,510.5962193312589 436.57203626667615,510.20494563679677 436.5816482133232,509.1251514178002 435.807158328942,509.23834511684254 435.83395527116954,508.05337355297524 435.9880376888905,507.88491901149973 436.1974616177613,507.65808451815974 436.5265979733085,507.29532710288186 436.4537801955594,506.2997465599328 436.71388529776596,505.99848674517125 436.42290545778815,504.79923686373513 436.56417194660753,502.35793434275547 437.69284750218503,502.19616032927297 438.4175300267525,501.9835810731747 438.3872378311353,501.07488043332705 438.00596394657623,499.9339856564766 437.60459235555027,500.0128680243506 436.58659982227255,498.1633587522665 436.1013421511743,497.00016545620747 434.31352007121313,496.77287409547716 432.7284226844786,496.04375748249004 431.2834267022554,495.7785830553621 429.5299746133387,495.73758126667235 429.18831360002514,495.12879294279264 430.1483431821689,494.7325893897796 429.8949373156065,494.36223424365744 430.3155327999266,493.18698762124404 431.5901351821376,492.32861240953207 432.08034446218517,491.5357488479931 432.7371608178364,490.75447016052203 433.2477590756025,490.2134118772228 433.6450528710848,489.7851102682762 433.9552566043567,489.0439370480599 434.6190634666709,488.1908939500572 435.02567793778144,487.9243730159942 434.9385878755711,487.6270992864156 435.75560334220063,487.89986020489596 436.9233092266368,488.26175815751776 437.3267197154928,489.21953694184776 437.59964074671734,489.7735224920907 438.2844191289041,490.06143398216227 438.6718097067205,490.18533385754563 439.37668579560705,489.7583692453336 440.2685579378158,488.81708317121956 441.5469468444353,488.5710645575891 442.87164785782807,487.66008019971196 442.9887388445204,486.40769340709085 443.0787416177336,485.46059902687557 443.2569995378144,484.7978533869609 444.03818865772337,484.87406700849533 445.04715178662445,485.02738555910764 445.30813070223667,485.06749795295764 445.6669767111307,484.9895016248338 445.7080459378194,485.1200897471281 445.7494064356433,485.250232099439 446.2439847822534,486.4224011936458 447.06274787557777,485.60232917417306 447.3615920356242,485.3741346784518 447.43062328884844,485.3500672765076 447.6796600888483,485.62550516449846 448.35861304891296,485.467284413171 448.3746329599526,485.542160726618 448.7847426844528,485.5443891878822 449.6597211022163,485.5212131891167 449.7022466844646,485.40221331076464 450.41090929775964,485.542160726618 450.7895617422182,485.39641930762446 451.9150333155412,485.3077264702879 451.9406651733443,485.40667023626156 452.52320739557035,485.3153032467235 453.8409179021837,484.1720984459389 453.91315313777886,484.2073083509458 453.6291638043476,485.01089490618324 454.08383800892625,487.73049889004324 454.15519943111576,487.70286624209257 455.0992091022199,488.23546263668686 455.86845610663295,488.61964434181573 456.5366320356261,488.8754679830163 457.17946737783495,489.1214862569468 458.72961223113816,489.6331320779864 459.6401257243706,489.8207649604883 460.8660858310759,489.6197615576675 461.346100622206,489.5965859872522 463.09955271112267,489.958926838357 465.145732266712,490.0881749683758 465.4442851556232,490.2036068548914 466.89102876442485,490.97909363766667 467.6317311999155,491.6698985322728 470.2986094933003,491.2629924273351 471.19776341330726,491.38867434929125 472.4589673244627,491.61017742042895 473.1166574934032,491.8285605121637 474.17863196437247,492.07814092363697 475.069047751138,492.33975437289337 475.8103327288991,491.2950814355863 476.56530744885094,490.01419156527845 477.8224335644627,487.84147513477365 478.17807559110224,487.8806956416229 478.25293226668146,488.8153004285996 478.5680876089027,489.6028255642159 478.6758579200832,491.0388149204664 479.1089780621696,492.19802855642047 479.69152028439566,493.15623591904296 480.3404723199783,492.91779866220895 481.10302008886356,493.90006936807185 481.6479883377906,494.56412467121845 482.86841429327615,495.805769019702 483.68076942220796,495.6569146820111 484.0809759289259,495.62616332428297 484.4642887110822,494.52089428610634 484.77857024001423,493.9432998748962 483.7599951644661,492.2332371796947 483.1765791288344,490.7771999275428 483.03880789340474,490.40951223211596 483.062692124513,490.0944145313697 484.9786734933732,490.1942475149408 485.3057709510904,491.3195938691497 486.5328961422201,490.8083976431517 486.79504014225677,490.0872836022172 486.88795562670566,489.8149710734142 487.49117809778545,489.61307629721705 488.323630933417,489.6678954269737 488.87733731558546,490.5249439504696 490.18077553773765,490.99290975683834 491.2337206044467,490.9514613968786 492.31899676448666,492.3348519090796 492.9615408355603,492.6437069175299 494.28245532442816,493.32826712552924 496.3586358044995,494.1425166367553 496.75592959998176,494.27220798900817 497.7142115555471,494.5632333231624 498.5760827733902,494.40546465979423 499.5690259911353,494.2347713178606 500.43177102226764,493.976279843424 501.1864544710843,494.08502456964925 501.4244229688775,492.8464902736014 501.76550144003704,491.1604858421488 501.7445299200481,489.4267802913673 501.2164553955663,489.2930749268271 500.7874130489072,489.30689115152927 499.92961962672416,489.45753251365386 499.3156201244565,489.7169206533581 498.7869630578207,488.40170375828166 498.45462272001896,487.08380488306284 497.99936597328633,486.3827347368933 497.83654542220756,485.8586020079674 497.90994574222714,484.954737538239 495.4903566222638,484.3797922343947 493.85079153778497,483.97911241138354 493.047174542211,483.71882612950867 492.735514453263,483.47369322017767 491.6531510044588,482.5756130509544 491.5083892622497,481.5255454449216 491.2395460266853,480.3185854991898 491.09624064003583,479.7543250011513 491.1955640888773,478.6373880348983 491.4084832711378,478.4885221060831 491.74490140448324,478.1515677162679 491.7055798044894,478.02320400375174 491.4338238578057,478.07758030778496 490.80933859560173,477.47052605473436 489.7756174223032,476.9561777509516 489.77037454221863,476.8367275400087 489.6387200000463,476.6227867017733 489.1502583466936,475.91321476898156 489.24958179553505,475.3854914487456 489.3331766044721,474.26273805397796 489.23822222219314,473.6209074234939 488.84034588444047,473.12794457329437 488.9457860266557,472.2102106169914 488.270619591116,471.8741380717838 486.95553052437026,471.4319834918715 486.65989034669474,469.5505880116252 486.28007281781174,468.3841236656299 487.4037967644399,468.37832921522204 487.3586497422075,467.40352219197666 487.2983566222247,466.608340339968 486.98145365330856,465.1418819814571 486.59697578661144,464.6725240997039 486.96252103103325,464.42469560337486 487.4262246399885,464.4099863493466 488.97462186659686,464.32797109667445 489.9058156089159,464.0694445570698 490.2305828977842,463.4507625728147 490.2122328177793,463.32773914712016 490.1682508799713,462.774578620214 489.6116317866836,462.71574115776457 488.697040497791,462.50891843787394 486.60134485329036,461.40794077992905 486.2273527466459,461.12846096104477 485.75578481773846,460.31319802976213 486.3266761954874,460.036391286063 487.5902102756081,459.013852572185 487.8241009777412,458.22621816728497 487.88614172441885,457.6841885551112 487.7876920888666,457.2897007050924 487.74137998220976,456.7178035064135 489.70105201774277,456.46149679797236 489.87989247997757,456.575609038875 490.50117376004346,456.17042116599623 490.8201156266732,454.8839781654533 490.3546643911395,454.28889544395497 490.2713608533377,453.1548906646203 490.8871079821838,452.90571194607764 491.3971236977959,451.6901258582948 491.44343580445275,450.9341144084465 491.3869292088784,450.9367889818968 491.36100608005654,449.802766959765 491.70820124447346,449.07483229698846 491.7478141156025,448.17973236821126 491.62285880884156,447.4468888841802 492.1194760533981,446.63514152442804 492.0600567467045,445.9419666464091 492.8622173866024,444.673294954584 492.823478328879,443.767924290034 492.7573597866576,443.767924290034 491.6607240533922,444.0714980291086 487.86720910225995,443.7023951021256 487.69302897772286,441.77752223832067 487.5648696888238,440.5279952620622 485.6005373155931,440.03362105670385 484.9970235733781,439.9761148778489 484.8889619910624,441.1208862194326 484.80216319998726,441.8189798438689 483.8537844622042,441.69193231815007 483.1582290488295,441.50470425200183 482.0770306844497,441.42446360358736 481.3092400355963,440.72324824967654 480.3358119822806,440.42368195124436 479.83686456887517,440.4419590734178 479.8292915200582,438.93921794800553 477.56407608883455,438.7038425572682 477.1193051021546,438.8634342321893 474.84506026667077,438.42656289204024 475.04225080891047,437.3357181230094 474.98545294220094,437.2701870230376 475.9195593955228,436.5052102927002 476.3550097066909,436.4334378641797 477.92845624894835,436.53151198418345 479.01198478229344,436.53953622851986 480.10396017774474,436.3995577034075 481.34186239994597,436.13787786569446 481.33370680897497,436.0259840072831 480.62125767115504,433.61512564437 480.4709617778426,433.4506263965741 478.4472100978019,433.16219516971614 476.65560149331577,432.992346001789 475.46634154662024,432.9098732615239 474.2540711822221,432.33434641500935 472.9008256000234,432.3949751853943 472.49391985777766,431.79225313902134 471.87613383110147,431.8542194609181 471.3043686399469,431.55464111012407 470.6822135467082,430.234619152965 470.4497792000184,429.22264154674485 469.6898528711172,429.19767640170176 469.5005266489461,427.68371339305304 469.49528376886155,426.4751212076517 469.42770887108054,425.39313357439823 469.578004764393,424.54251904878765 469.3554736356018,422.4676834772108 469.08197006222326,420.3888159603812 469.25993671116885,417.97288245672826 469.6377153422218,416.2493012382183 471.35796252451837,416.12268480774947 472.0718680177815,416.2011513366597 472.9570409244625,415.8899600520963 473.6100707555888,415.13115080900025 474.47514595557004,414.7584327388322 474.1299896889832,413.7223088594619 475.62275413330644,413.07138517079875 477.60805802664254,412.149388601596 477.21425948455,410.3192050695652 476.99289344006684,408.920586850727 476.6529800533317,407.4091596721555 476.8096839110367,405.32970427989494 476.82949034660123,403.64793484157417 476.88133660447784,403.51774430752266 474.7492320711026,403.0495927791344 474.7305907199625,402.24927429214586 474.0967847822467,400.9848097463837 474.0519290311495,400.87111458869185 473.29404159996193,398.58426894492004 473.1886014578631,398.09693456825335 473.5838563555153,398.0090983400005 473.60395406221505,397.705907029449 473.55531178670935,396.66524427046534 475.27992803556845,396.8739122611587 476.59210439107846,396.59212125261547 476.24520049779676,397.874445780064 477.23610481782816,398.8468851018697 479.02713088004384,398.9944672191632 479.5770507378038,398.7884764421033 482.1673247287981,398.7492400817573 483.4728018488968,398.8014066047035 483.58727139560506,399.4354295125231 483.7786365156062,399.42472871911013 484.39933525328524,399.328421554761 484.7217723733047,398.47369362734025 485.10770659556147,398.0202450713841 484.93440028443,396.99652690719813 484.597982151201,396.260392135242 484.27146723563783,395.9433763429406 484.10456888889894,394.87907385698054 485.8329716621665,394.6503395558684 485.3549957688665,392.7620463450439 484.7444915199885,390.88131697982317 486.1181260800222,390.38103491603397 485.1869323378196,388.5912464701105 484.7704146489268,387.3347296054708 483.6813519644784,387.49569614743814 482.27567758224905,388.19083839585073 480.8385459200945,388.7397272302769 481.0569992533419,387.7271132138558 481.16302193771116,386.63646341115236 480.7383486578474,384.87072293506935 480.2242551466916,383.9900768806692 480.03725909336936,382.7041043721838 480.25250844447874,382.66887825122103 480.747378062224,381.33518641855335 480.7363097600173,379.51990783726797 478.1582691556541,379.93460065097315 476.0150963199558,380.30425627552904 475.9151903289603,379.16719537845347 476.3887971555814,378.59687909606146 476.5000627200352,377.5217909885105 476.8836667733267,377.1958300161059 477.71699342224747,377.14900931704324 477.7769952710951,376.78871255688136 477.66048682667315,375.9624357082066 477.72689664002974,375.2396081428742 477.79418026667554,374.9533303147182 477.750780871138,374.5430872961879 477.9703992889263,373.17679417098407 478.1314722133102,372.6492707665311 478.05632426659577,372.0066982866265 476.8393935644999,371.9184057384846 475.6466383644147,371.64996050088666 475.1069129955722,371.4118377076229 474.65107370668557,371.28118220798206 472.84431900444906,371.0778410714702 472.79625927109737,370.91284922196064 472.4245973334182,370.69523816136643 472.10594673780724,370.5895540236961 470.9897958399961,370.5520963424351 471.03989447117783,370.39602260210086 471.23096832004376,370.08476664160844 471.4666066488717,370.0089592493605 472.5513002666412,370.142736982787 472.8501444266876,370.23816504958086 474.2304782222491,370.12935921305325 474.63155854225624,370.06380812986754 475.055649279966,369.9451918344712 475.5831412622938,369.9220036790939 475.8368383999914,369.77529394696467 475.9457737955963,369.40383695438504 476.2387925334042,369.3449745643884 476.5114222932607,369.40249917295296 476.954154382227,368.1431973311701 476.9666790399933,367.04130231717136 477.05755562661216,366.80540420650505 477.1822196622379,366.35055269417353 477.25387235556263,365.07473378651775 477.520676693297,363.6834093972575 477.7787428977899,363.31952310795896 477.6447581866523,362.48829040915007 477.41494527994655,362.09318621386774 477.44057713774964,361.12771982187405 477.5582506667124,360.8766532727168 477.468539164518,360.20372215932 478.0793346844148,359.3243153806543 478.9851878400659,358.5300813949434 479.01314986671787,358.2228222239064 477.7711698488565,358.35928280849475 477.16911246220116,358.18134889227804 476.58424007112626,357.8959408067167 476.3960789333796,357.62569468514994 476.48025628447067,357.36035369883757 476.0002414933406,356.79622432170436 475.69411555549596,356.45551623561187 477.6887401244603,352.7384638264775 477.4204794310499,352.1823499343591 477.70476003549993,352.00485699326964 478.4297338310862,351.599476850708 479.17247516452335,351.25207127269823 478.9479051377857,350.6535869515501 479.98133504006546,350.3387353820144 480.3553271467099,350.2236761976965 483.47192803560756,349.71393653040286 484.3672954310896,349.5912955770618 486.5014388622949,349.5159271028824 486.476098275627,349.6234052150976 488.28547441773117,350.05242520733736 489.313952711178,350.2892331822077 490.172328675515,350.54254161927383 491.5273218844086,350.79139011731604 492.93037482665386,351.41261820611544 494.10361486219335,351.6552222390892 495.07587783108465,351.8826632774435 496.3131975111319,352.00351910624886 499.0156108799856,352.1547002895968 501.31199231999926,351.97586943907663 502.688830862171,351.5553264931077 504.6219972267281,349.83836128236726 506.5985629867064,349.2479005448404 508.45162979559973,349.24968441645615 510.4925664711045,349.8575378507958 512.173783324426,350.15767322760075 513.3540138666285,348.3470435013878 514.8348361955723,347.0100221505854 515.8487509333063,346.56003548868466 516.2565304888412,346.6648392036441 517.3793806222966,346.6519059819402 521.5163042133208,348.7082786986721 524.5088236089796,350.4243607826065 525.3572963555343,350.88415077590616 525.7729402311379,350.9666542134946 525.9220710400259,351.17224372614874 526.2707225600025,351.5437314482406 526.8381186844781,352.19751264119986 527.7687298844103,353.22054698714055 528.229229511111,353.69504779181443 528.6795346488943,354.09105895948596 529.2236290845321,354.55217917461414 529.7085954843787,354.87014642055146 530.4047334400238,355.21219482505694 531.1559216355672,355.44676747883204 532.6265494755935,355.8494648174383 533.6226966754766,356.16653828381095 533.9337742221542,356.1678761455696 534.6168049777625,356.426975220209 535.2104155021952,356.6133836603258 535.4154703643871,356.6838442258304 536.3897722311085,356.8742660211865 536.9341579377651,356.9063745981548 537.1185325511033,356.9273343611276 537.4811650845222,356.94874007441103 537.9670052977744,356.939375075046 538.4039119643858,356.8822931658942 538.8448964267736,356.75252095784526 539.1437405867036,356.5808290876448 539.5716178489383,356.2361070846673 540.104061440099,355.69382661988493 540.5837849599775,355.13727422908414 541.241475128918,354.30824045761256 541.2679808000103,354.2774693754036 541.4506077866536,354.10176195413806 541.726441528881,353.87789087428246 541.9775172267109,353.71288614801597 542.5137473421637,353.4707303395262 543.1813407288864,353.2571156945778 543.3916384711629,353.2076141501311 543.8664103822084,353.1523151145084 544.2258389332565,353.1607883547549 544.7754675199976,353.2535480160732 545.0699426133651,353.31063086510403 545.7095739733195,353.49035255122 546.3063884800067,353.6535736081423 546.6183398399735,353.7155619013356 547.525358080049,353.7173457368044 547.5402129066642,353.59872064343654 547.8096386843827,353.60496407101164 547.7802203021711,353.76595524908043 547.8614849422593,353.78646935208235 548.9863739733119,354.30734854226466 550.614870755584,354.60792381619103 552.4839574756334,355.5158905516146 553.1285404444207,356.09340182848973 553.2869919289369,357.0151869628462 553.1582500977674,357.82771038165083 552.8329002666287,359.30112610774813 552.8701829689089,360.12300596327987 553.2435925332829,361.53263649565633 553.7332192711765,362.3794807465747 554.3766371555394,363.121079964214 555.2035558399512,363.54918180406094 555.7260962133296,363.6428289707401 556.0622230755398,363.62320766295306 556.5801031111041,363.4796153117204 556.8215668621706,363.3021314688376 558.1311217776965,361.7841482399963 559.3605771377916,360.7691806482617 561.0610178845236,359.06477376417024 562.8473836089252,358.3151338050957 563.4342948978301,358.4061074993806 564.4441318400204,358.17644344386645 565.857670542202,358.45917547040153 566.8558566400316,360.32680315268226 566.8657598576974,360.3321544986684 569.8475022222847,361.4956232182449 570.8488923022524,362.1498208316043 570.9453030399745,362.2532793083228 571.7119286045199,362.47491217486095 571.805717902258,363.1803899562219 572.6547731910832,364.0950104439398 573.4647981511662,364.90795369807165 574.2104521956062,365.50550744176144 575.1597047466785,366.07451979920734 575.7769082310842,366.3416340277763 576.9134481066139,366.7884587748558 577.3806469688425,366.94542693399126 578.4210673777852,367.2125401069643 579.5864430933725,367.3940341817797 580.0189806933049,367.4337220553425 581.6265059555881,367.4863419216708 583.723075413378,367.6843352043652 584.8794217244722,367.7530085086473 585.8947928177658,367.7811021269299 587.6497012622422,367.7324957057135 588.963625244447,367.6410799303558 589.9530732089188,367.5955949937925 591.4012731733965,367.49526054179296 592.5637361778645,367.34988698811503 593.397354097804,367.2210128066945 594.4636976355687,367.13138054608135 595.7164546845015,366.93784608796705 596.8095951643772,366.6876780227758 599.3454014577437,366.4268072779523 601.3936199111631,366.43171254266053 602.8992002845043,366.5101967633236 604.5504162133439,366.6283689745469 605.6266629688907,366.76705401716754 606.9697140622884,366.8045123416232 608.4342252089409,366.9387379522668 611.6976267377613,368.0071887343656 613.945074631134,368.93159960978664 615.6696908799931,369.5505469337804 616.475638044416,369.97819035919383 617.2306127644842,370.29078424628824 617.2769248711411,370.3170938399853 618.3336564622587,370.6988055575639 619.5564125867095,370.99489923822694 620.7209144888911,371.73201024276204 622.4018400710775,372.5975439741742 623.5715848533437,372.7504947129637 624.8284196978202,372.5846122741932 625.9795231288299,372.0231973952614 627.041497600032,371.1429459294304 628.0970641066087,370.3933470513439 629.289819306694,369.8461962309666 630.5463628800353,369.3761894701747 632.5538033777848,368.81521234678803 633.9117092977976,368.4031741861254 634.1374444089597,368.528034316143 635.6275874134153,368.53115581849124 637.4171571199549,368.8027263532276 639.0305078044767,368.88656086777337 642.386824817746,367.86493703007 643.9911460977746,366.5686139775207 644.4079550578026,366.2212319948012 644.8134044444887,365.87072792468825 645.3816743822535,365.5835460573435 646.6265671111178,365.0274645764148 647.8935964443954,364.65198615106056 649.0712055467302,364.49546229548287 649.8253064532764,364.4535442070337 649.9878357333364,364.4183151690522 650.2191049956018,364.4959082325222 651.5770109156147,363.93625650182366 652.9020032000262,362.9404742511688 653.6625120710814,362.117267076741 654.896336497739,362.8994477475062 655.536841671099,361.7676483648829 656.3063799466472,360.457019201247 659.082776177791,357.76393944228766 660.8388497066917,356.12774028920103 661.5635322311427,355.0859892825829 662.1816095289541,352.9444976467639 662.0688876089407,351.87775768886786 661.9331552711083,351.42064554966055 661.5539202844957,350.6709795888746 661.9299512888538,350.4359558863798 662.5538540089037,349.83479354850715 662.3339443199802,348.3367861970328 661.8405310577946,346.7709807874635 661.8955812978093,345.7166982492199 662.7414326044964,344.91706350212917 663.2593126400607,343.778482081776 663.7308805689681,341.067805109662 664.23477959109,341.0303424105514 664.8094574933639,340.64991725981236 665.1117969066836,339.9501651796163 664.6323646578239,339.00779318844434 665.0914079288486,338.1488173849066 665.0022789688082,338.05738933745306 664.784116906696,337.70416452450445 664.5275070577627,337.00752503960393 664.4013866666937,336.51782451895997 663.7326281955466,334.3783824328566 663.5759243378416,331.6493036892498 663.1363962311298,330.93658888473874 663.3478590578306,329.812653470668 663.9866166044958,328.6472334341379 664.0413755732588,327.48314527003095 664.3058497422608,326.37034259806387 664.0116659200285,323.9890598055208 663.7652505600126,323.31155584112275 663.2942651732592,322.35796213691356 663.3350431289291,321.15949684451334 663.6056339911884,319.16218888235744 664.1692435911391,315.01363586448133 664.4246883555315,312.93776892183814 665.378601244418,307.41347681719344 665.6328809245024,307.10391610092483 665.3206382934004,307.0209501866484 664.9647049956257,306.9535961149959 664.8301377422176,306.80773656471865 664.3230347377248,306.9143434014404 664.0801146310987,306.9179118302418 663.0629959111102,307.0004317299463 662.1140346310567,307.04949760151794 661.0485649066977,307.07759895944037 660.6643783111358,307.0753686930984 658.6988808533642,307.12889507977525 657.1440756622469,307.14227667439263 654.7507009422407,307.2131991124479 654.0196104532806,307.4571899669827 653.055794346612,307.7341883975896 652.0060532621574,308.2266291922424 650.52523093333,309.5710226424271 649.378787840018,310.3444689065218 648.6768244622508,310.6054060475435 647.2050315378001,311.09962460619863 644.7970932621974,311.3507478715619 643.029368888936,311.75620205997257 641.5797125688987,312.227223810798 640.24306944001,312.9270639278111 638.5102976000635,312.42571278871037 634.581341582234,311.5523599484004 624.2592759466497,308.88187705772 623.7646976000397,308.69587428774685 621.5315219911281,308.4242296727607 618.8483325155685,307.71456211118493 618.3936583111063,307.59903461742215 601.5730429155519,300.7792367460206 600.6913652622607,300.70429764158325 599.7499770311406,300.5187340351986 599.9160015644738,300.4192611722974 600.1434843022143,299.09220859303605 599.6372551111272,298.2112196935923 598.2662419910775,297.28606603993103 598.5913005510811,295.87602447974496 598.0620609422913,295.2336741782492 598.208861582214,294.2179539424833 597.6271931733936,293.2927835221635 597.4081572977593,292.54559628257994 597.3402911288431,290.76661133154994 597.2511621689191,289.96543889446184 597.4518479644321,289.4537754630437 597.0510589155601,288.80471508484334 596.8139642311726,288.3064316966338 597.2371811555931,288.00844252482057 597.3003869866952,287.3076310729957 597.2354335288983,286.7031738292426 596.1300596621586,286.32845411484595 595.0788622222608,286.21916074480396 593.9283413332887,285.94213526591193 592.7629656178178,285.8243658747524 591.5550643199822,285.4576744126389 591.2503947378136,285.5000536274747 590.8233912889846,285.2471165089519 590.1493899377529,285.0713540370343 589.6178201599978,284.8701638272032 588.8899336532922,284.6993081389228 588.7786680888385,284.8353681624867 587.01793422224,284.35670416627545 586.6034554310609,284.4352176237153 586.3884973510867,284.7885278359754 583.7358913422795,283.57201415405143 574.8087230578531,276.9874671003781 571.9414502399741,275.809276374639 570.0880921599455,276.3468461922603 568.8854337421944,276.9143043610966 567.0868346311618,276.9352717339061 566.91498467559,276.9375023054308 566.9234315378126,276.9874671003781 565.137648355565,276.9571313333581 562.1771687822184,276.73496632417664 560.682947982219,276.4530216525309 559.9011763200397,276.5618737520999 558.6950226488989,276.08140731754247 557.2680854755454,276.16483099840116 556.2544620089466,276.3602296565077 555.9707639466505,276.58105669845827 554.7683968000347,276.8197281010216 553.4340838399949,277.3773705572821 550.7657491910504,277.695003069588 549.8578571378021,278.3030539188185 547.1886486755684,278.27762556029484 545.268589511048,277.85872639063746 543.4863015821902,278.5863345558755 542.919487999985,278.46454623213504 542.448502613348,278.36774008057546 540.7288379733218,278.88032147753984 540.3108639288694,279.6128334666719 539.0473298489815,279.69937857124023 537.9431210666662,280.25166044855723 535.969176746672,280.96498531557154 534.9098237155704,280.79144996008836 534.068050204427,281.0849878336303 532.6134422755567,281.1532420247677 530.9942661689129,281.6033622721443 528.7858486045152,281.43830341810826 525.3366161066806,282.1029991309624 523.3513122133445,282.74940263608005 520.5915184355108,283.3458409028826 518.8185511822812,284.04577275621705 518.0533819732955,284.31833962578094 517.2337450666819,284.6194564793259 515.9206948977662,285.1592352904845 513.8584954311373,285.5553696428542 511.86183196445927,286.0295700762654 510.15207054221537,286.4029520135955 508.88416739553213,286.63715183053864 505.0982254933333,287.79967142792884 504.0627566933399,287.8491876675398 503.0205886577023,288.26539129565936 501.4287920355564,289.01259304984706 498.2952974222135,291.2073441472603 497.29652878222987,291.8122351190541 496.08192824886646,292.3502119775512 495.39511096896604,293.1000763690681 494.29381489777006,294.08413011045195 494.1231300267391,294.5261945264647 492.74337877333164,294.18092935706954 492.1267578310799,294.8638758290326 492.0009287111461,295.32735038059764 490.84341731562745,296.0736360361334 488.83655936003197,296.6240925748134 486.6995032178238,296.67628327733837 484.79721159115434,296.02947455248795 483.1279368533287,295.3103994517005 481.4274961067131,294.8237288056407 480.4231933156261,294.42582680046326 478.2206011733506,293.459171738592 477.2535810844274,293.52340737037593 477.18396728893276,293.5051180604496 477.68611868447624,292.8864031943958 478.333323093364,289.76960621320177 478.5634272710886,284.8072639678139 477.80612238228787,281.1220146197011 477.0986248534173,277.5593847496202 477.09396451560315,276.94776293385075 476.78900366218295,276.45748280524276 476.8696857600007,275.93418898025993 476.62094023113605,271.8985837677028 478.01467249786947,270.87874081433984 478.2136106666876,269.7433457963634 479.08713272889145,267.6264541957644 479.79171754664276,267.1923662186018 479.6999671466183,266.46650496684015 480.00813198217656,264.65920267108595 480.6209663999034,264.0948359198519 480.6043639467098,263.70669352065306 481.20671260450035,262.5601079571643 481.45254542224575,262.1313637292478 481.425457208883,261.4648231790052 480.25396479992196,260.2914570700377 480.9996188444784,259.4388665970182 480.65154986677226,258.81514839990996 480.9302963200025,258.32572022336535 481.3045796977822,257.985752153676 482.0126597689232,258.3181356396526 482.2410163199529,257.35310676391236 482.5267532799626,256.4295661562355 482.3569422222208,255.35923574864864 482.4466537244152,254.24651492259 481.3395322310971,252.53236061579082 482.11606101330835,250.5219377639005 482.9153089422034,247.82215997384628 483.70348856889177,243.45809619745705 483.7299942399841,242.75803538935725 484.03408127999865,242.81470068730414 484.16136675549205,242.2623249569442 484.1843771733111,241.55199807242025 484.72701525327284,241.668452574173 484.99614975997247,241.0777018989902 485.3547044977313,240.7252139589982 485.46072718221694,239.97472509916406 486.0770568533335,239.5740468846634 485.8845266489079,238.99176822480513 485.99287950224243,238.04316383239347 485.9089934222866,237.2877576954197 486.4312425244134,236.9196468553273 486.7035810133675,236.5256560263224 486.5573629155988,236.00494452909334 486.46677759999875,235.5257282331586 486.95523925335146,235.05320388166 487.26340408890974,235.22945245995652 487.44340963556897,234.88498675264418 487.3143765333807,234.14295581524493 487.67788287997246,233.87032686336897 487.2800065422198,233.57047924690414 487.6968155022478,233.07028610934503 487.49875114671886,232.54331958596595 487.6539986488642,232.32824905932648 488.04168049781583,232.46121799893444 488.0617782045156,231.72140992665663 488.3046983111417,231.4532400421449 488.1529460622696,230.85799989732914 488.4771308088675,230.16994669125415 488.94287331565283,229.04862061631866 488.9087945955107,228.2766737616621 489.44706360890996,226.61229359410936 489.4004602311179,226.07326375553384 489.7826079289662,225.44588133890647 489.7470728532644,224.63956290646456 489.86066858668346,224.26295273262076 489.17035605339333,223.55122914118692 490.0712575999787,221.97650463401806 490.6890436266549,220.66370501276106 490.6141869510757,220.30092114087893 490.4586481777951,219.23487749905325 490.69923811557237,218.58918007626198 491.1332320710644,217.8479867138667 491.579459413304,217.39684371720068 492.7646415644558,216.4758130098926 493.9603094755439,215.09381348872557 494.6902348799631,214.48781935952138 495.4088007111568,214.10851438029204 496.98370360885747,213.75107461970765 497.90237269341014,213.33339146804065 498.81172110221814,212.48285046505043 499.44814848003443,211.97814698470756 500.0909838222433,211.61267132870853 501.85230023111217,211.04415243654512 504.386650168919,210.2984711942263 507.0118766933447,209.91960525116883 508.83639893331565,209.60723001416773 511.0593800533097,208.67545667593367 512.0843630933668,207.9239661123138 512.8737078043632,207.33133991685463 513.9138369421707,207.03413370944327 514.4617179022171,206.85340000886936 515.2030028799782,205.72838517057244 516.9252889599884,204.02277853060514 518.3726151111769,202.55457176151685 519.6052744532935,201.09661936806515 521.2931905421428,198.963894765242 522.6758545066696,197.3863168269163 523.3221851021517,196.330872944789 523.7832672711229,195.37494435388362 528.823131306679,179.69703424535692 529.3774202311179,178.34113647823688 529.9165630578063,177.52571928570978 530.701247431105,176.72949071775656 534.2905813333346,173.19105898973066 534.9010855822125,172.59075180150103 535.0193416533293,172.47247547097504 535.2602228622418,172.23547629325185 535.8381047466537,171.72041505400557 537.6343736888375,172.86301028291928 537.853700835607,172.40641922864597 550.4584581688978,169.01163729117252 551.793936213362,166.61392385693034 552.4991035733838,165.99262080865446 556.121059839963,164.2652820032672 559.2076598043786,162.53212715225527 561.4603505778359,161.09979805501644 564.5291830045171,160.1388066863292 565.761551075615,158.51943970570574 566.9889675377635,157.90971906355117 568.0325919288443,157.09020901133772 570.4367436799221,154.2160970970872 573.5754811733495,151.09019557433203 573.7621859555366,150.74559826031327 574.4956066133454,151.17143475881312 579.2523551288759,153.54744446848053 579.376145351096,153.19437006511725 579.6831451022299,152.45875937637175 580.9449315555394,150.81210736942012 581.2854274844285,150.08943349053152 581.7025277154753,148.26108923368156 582.7379965155851,145.60246391035616 582.8431453866651,145.30562077678042 583.2646146845073,144.0307530859718 583.6097709510941,142.4367117076181 584.6493175466312,138.07546980452025 584.9566085689003,136.6938710649847 585.2120533332927,134.97567688929848 585.946639075526,131.6472792379791 586.7249154844321,128.99291748076212 587.1166751289275,127.57778049516492 587.8040749510983,124.68676575721474 589.378395306645,122.63901509228162 590.2932778666727,120.93588988657575 591.3852532622404,118.11041406454751 591.4440900266636,117.17959287104895 591.7671096888371,117.04834006977035 592.451014257851,116.47466619330226 592.9342330311192,115.72553961270023 595.8795665065991,106.63045747892465 603.6570877155755,109.61814320838312 605.1818919822108,106.84118619322544 605.9622072888305,105.27723501855507 606.0961919999681,105.20401522237808 613.8812862577615,97.91718433564529 614.0074066489469,96.2094031086308 614.0543012977578,94.2895286596613 614.2034321066458,92.44643344020005 614.8797636266099,90.85559054440819 615.5156084621558,89.79606404673541 616.3029142755549,88.59722576814238 616.4808809245005,88.39674900926184 616.9434194489149,86.72238142282004 616.946040888899,85.25383894436527 617.0086641777307,85.0649682218791 617.0273055289872,84.93458928342443 617.380034844391,83.43567244894803 617.719074417837,82.21358108019922 618.0476282311138,81.38619860098697 618.1987979378318,81.08212471217848 618.3991924622096,80.37172431335784 618.6834730666596,78.81517589167925 618.845711075468,77.50107610190753 619.369125262252,76.52096598781645 620.1552659911104,75.75518215633929 622.3127111111535,73.98828766721999 623.574497564463,72.89251125487499 624.5327795200283,71.98963025980629 626.1924423110904,69.86101337859873 626.6980889600236,69.31043637357652 626.7944996977458,69.24434917903272 628.7396081777988,66.74195189285092 626.1388484266354,64.53960441274103 624.7678353067022,63.504511348786764 624.5351096888771,62.546666365582496 624.4774380088784,62.11038780550007 623.2957511111163,60.2295127135003 622.4711625955533,59.10374859115109 620.7133414399577,56.65259053336922 618.3983186489204,54.47425664472394 616.9707989332965,53.113121945469175 615.1378298312193,51.760463673155755 613.5271005866816,51.18661967024673 613.2766074311221,51.05398780852556 612.4895928888582,50.03982032556087 612.4185227378039,49.85851115954574 612.4531839999836,49.07119893585332 613.2605875199661,48.41249823040562 613.1825268622488,47.67564425850287 612.5000786489109,46.560087309684604 610.9021653333912,47.081246924062725 609.9747581155971,47.506390785682015 609.4982385777403,45.83573145221453 609.3919246222358,45.6164592646528 609.0575453867204,45.01937686488964 608.7965664711082,44.19810680486262 608.346843875479,44.18604898347985 607.9163451733766,43.97079443070106 607.4319613155676,43.37951320700813 606.7725235199323,41.75214188062819 606.1561938488157,41.42880981147755 605.9051181511022,40.10600156633882 605.8025907200063,39.7237165417755 605.1559688533889,38.3968786719488 604.7426551467506,37.64971939474344 603.4470812444342,35.495760675519705 603.6203875555657,34.067517667775974 603.8006843733601,33.020669503486715 603.8903958755545,32.46017494611442 603.8659291022923,31.906824736273848 603.7968978488352,31.070320931146853 603.0305635555414,29.781839817762375 604.4216743821744,26.785031353821978 607.5569166222122,26.378158981911838 607.6317732977914,24.706892678921577 607.5601206044666,23.400955823017284 607.2059349332703,21.639000694733113 607.3410847288324,20.62603759794729 607.4543891911162,20.011468650074676 607.633229653351,18.027060253545642 607.1686522311065,16.70991772710113 606.8447587555274,16.103824062854983 607.7852731733583,15.622789067740086 608.9858926933957,15.274406520882621 610.7935212089214,15.214109485619701 612.0340448711067,15.326217293506488 612.4094933333108,15.398127052583732 612.2755086222896,15.160065462230705 612.1100666311104,14.573619958595373 611.9201578666689,13.788861421518959 612.0127820799826,13.276555961114354 612.2093900799518,12.933082844596356 612.5530899910955,12.315812515560538 608.3879131022841,11.442608768353239 602.8922097778413,10.54662219248712 600.7679695644183,10.1164937420981 599.0185952711618,9.937831625691615 597.2756289422978,9.615346138598397 595.951510471059,9.641252192493994 594.8528358399635,8.422324391896836 594.3503931734012,8.373638604884036 593.7812494222308,7.7273225953103974 591.8480830577901,6.7138488189084455 591.2996195555897,6.055468025850132 590.3095890488476,5.777196583105251 589.52053560887,5.510984729160555 588.6656548978062,5.209932680882048 588.5252622221597,5 587.8937864534091,6.550817123381421 587.6068844088586,7.099764460581355 587.3027973689605,7.644243827497121 586.7208376888884,7.983258602092974 585.9035309511237,7.829161041998304 585.6766307555372,7.926979505689815 584.9516569600673,8.567935030092485 583.3648119467543,10.34786096739117 581.980109084514,12.43372825474944 580.9032797866967,12.887077952094842 579.6245996088255,12.632934246619698 579.8957730133552,12.982214272487909 580.2141323377145,13.904543134616688 581.7089356799843,17.044898771098815 582.4866295467364,17.832772176945582 586.1674225778552,19.546521089505404 586.5492790044518,19.8095895225415 587.12308309332,20.31026728451252 588.3554511645343,21.043193159101065 588.4847755377414,21.240158197528217 588.8989630577853,22.30358770757448 589.2540225422708,22.85115587589098 589.9717145600589,23.871254769386724 590.6002776178066,24.717611690750346 590.9122289777733,25.442037035827525 590.9267925333697,25.685893613263033 590.8673732266761,26.58003208588343 590.9771824355703,27.011914852715563 592.6750017422019,30.355739615974016 592.4804326400626,30.396381490514614 591.809052728815,30.47319907892961 591.3989430044312,30.419158801436424 590.8525183999445,30.23828009032877 590.499497813289,30.061420762329362 589.8921975466656,29.700555834337138 589.217904924415,29.345049707975704 588.4868144355714,29.05296258663293 587.733587342198,28.84662557928823 586.9780300799757,28.752389349217992 585.5208007111214,28.708174232160673 585.5659477333538,29.240094900131226 585.5575008711312,30.045342634548433 585.7951780977892,30.679534561757464 585.6142987378407,31.69557767920196 584.543877404416,34.880786632653326 584.3297931378474,36.305004946596455 584.4573698844761,37.26341070467606 584.4104752355488,38.246821782086045 584.471350897802,38.67153610708192 585.2269081600243,39.78579324402381 584.6510651733261,40.54500329319853 584.0900770133594,42.07100757223088 585.0314652444795,43.444268403341994 585.601191537804,44.379867218085565 585.7366326045012,44.658983039611485 584.679609742132,45.68567963258829 584.1177477688761,46.173794254427776 581.9177770667011,46.93476859666407 581.1362966755405,48.683570555993356 581.9471954489127,48.967593260575086 581.9917599288747,49.05199616350001 582.1056469333125,49.26322656706907 582.821882595541,49.680327868205495 582.8425628443947,49.83037696528481 582.5070185244549,50.42833946424071 581.1718317511259,51.66847010480706 580.3920989866601,53.13991601683665 580.3897688178113,53.33863861078862 580.3347185777966,55.338805023464374 580.3105430755531,55.63309008651413 580.8450255644275,57.813198743155226 581.8056376888417,58.62771966616856 582.1793385244673,58.903244976187125 582.4589587911032,59.299786470248364 581.9702058667317,61.253457390354015 581.8038900622632,61.29900562565308 579.8378100622213,60.92881430365378 577.8356124444399,61.96079362730961 576.2213879467454,62.27114561502822 574.6059983643936,62.45958934229566 574.3228828444844,62.950346064637415 573.0701257955516,65.53718302818015 572.5044772977708,66.05606501526199 571.8971770311473,66.76026004191954 570.3627608177485,67.55152786010876 564.3212154310895,69.19924912269926 563.5711923199706,69.50646516494453 562.8878702933434,69.9105786375003 561.2684029155644,69.85297576797893 559.7360255999956,69.71812247956404 557.0001160532702,70.29638351482572 555.1642342400737,71.08228024782147 553.5584566044854,71.37475814530626 552.5736689778278,71.18408939213259 547.4752594488673,69.94764094101265 547.2262226488674,70.54688840307062 546.6387288178084,71.27026990288869 544.895179946674,71.42744877864607 543.8952462221496,71.60293528868351 542.658217813354,71.9454238251783 541.0154487466207,72.14725515129976 540.9673890133854,72.37766413809732 539.9191042844905,77.0898322527064 539.6904564622091,78.4878795996774 538.9710168178426,80.0256767772371 538.1787593956105,79.86403890309157 537.4331053511705,81.0343480129959 535.8529595733853,81.97112663363805 535.2456593066454,83.88842945842771 534.5431133867241,85.44851403485518 534.105041635572,86.41117089765612 533.9931935288478,86.59378946572542 533.6792032711674,86.70496793306665 528.3335045689018,84.27644236775814 527.467555555515,85.51281035726424 526.9042372266995,86.44867692398839 526.6345201778458,88.43336170492694 526.2567415466765,91.6856163800694 526.2785868800711,92.24819262849633 525.8070189511636,92.28793010278605 520.0611137422966,89.2638431659434 518.4678607644746,88.67223706969526 516.3485721600009,88.34942039370071 512.0584399644285,86.50895445299102 510.9096667022677,85.69855518301483 507.73393777781166,82.40781235031318 507.5821855289396,82.23813906632131 501.10285966226365,87.02823351905681 496.6909761421848,90.26890014274977 495.63803107559215,90.55152973229997 491.67849159112666,90.96944580657873 491.23488568887115,91.00918351160362 490.91099221329205,91.0324010438635 489.64716686226893,93.56175792345311 488.710438968963,96.69338742084801 488.6807293156162,97.35506904893555 488.54179299552925,98.54403718060348 488.21760824881494,98.93470311508281 487.26398663118016,99.53521111421287 486.21715825784486,100.40940496197436 485.7053949155379,101.05812777520623 484.85313564445823,101.66532702499535 484.78235676442273,101.76756849873345 484.6949754310772,101.93633379682433 484.6591490843566,101.99973236746155 484.3943836444523,102.68952549505048 484.3672954310896,104.12268100690562 482.94356223999057,105.06784419505857 482.79763541324064,105.8250433311332 482.0738267021952,106.48089354450349 481.6663384177955,106.85011537157698 481.1449631288415,107.17960179969668 480.9550543644,107.04387845273595 480.9547630933812,106.60456283483654 480.06347349332646,106.81707740982529 480.1846422755625,106.40276309056208 479.927741155494,105.65628101327457 478.79294890665915,106.00630641722819 478.62139022222254,106.53536161594093 477.80233585776296,106.77868193452014 477.5358227911638,107.13629534613574 477.0097871645121,107.02959177974844 476.77706154668704,107.19969241961371 476.25219100445975,106.51750323327724 475.5205179733457,105.56073826819193 473.4055984355509,106.3165963292704 471.4983551999321,106.95458673138637 470.0638449777616,107.22781928442419 467.66173212451395,107.7899093690794 466.50742471113335,108.02340625802753 466.3719836444361,108.05242593062576 465.0644676266238,108.34396181319607 464.3159008710645,108.49798903800547 464.69338823109865,107.2898769575404 461.00968248886056,104.58878938760608 460.3811194311129,106.17238970508333 456.85965169779956,106.88761791668367 451.1507379199611,108.11939439107664 449.2621360355988,108.51182916015387 446.049706951133,112.33613410464022 445.5542547911173,112.70400677318685 442.1536645689048,115.44383521541022 436.2347443200415,119.2269478692906 436.2274625422433,119.93856222252361 436.24464753770735,120.11668866750551 435.9889115021797,120.20285002910532 435.70026183116715,120.27963629172882 435.4311273244675,120.47919116320554 435.61084159999155,120.59704898897326 434.9615982932737,120.8144607974682 432.50327011558693,121.70865946938284 430.5867062044563,122.05910578684416 429.14724437333643,122.2836589938961 426.5126971732825,122.65731859434163 425.20663751102984,122.87160338379908 423.53328497777693,123.13320911495248 422.0169275733642,123.35686837584944 419.0480011377949,123.8336502336897 418.09496206219774,123.97561317170039 417.2141582221957,124.08587991882814 416.37005454220343,124.33855573856272 415.467114097788,124.82649603293976 413.66239829338156,126.37289802054875 411.76214556442574,128.0206256021047 410.9777524621459,128.68132027541287 410.2714200178161,129.13085936929565 409.29653560894076,129.53530984534882 409.2607092622202,129.4040644079796 404.6874615466222,127.80947073770221 404.0018093511462,127.58804808335844 403.5249985422706,127.44698030839209 402.7161386667285,127.1108279361506 400.3652895289706,128.0233040979947 399.30622776888777,127.59474433620926 398.6261097245151,129.1558585371822 398.3834808889078,129.0598795733531 396.98858353774995,130.30269231612328 395.91641457774676,130.00984626694117 395.7798084266251,130.71115833480144 394.83929400891066,130.4299195179483 394.9456079644151,131.38791566668078 393.93839246220887,131.94548000616487 393.01826702221297,132.58116412826348 392.2155238400446,132.55616534908768 391.78764657780994,133.1597065095557 391.455014968873,134.01591073232703 391.69851761776954,133.98153763415758 391.3291858488228,134.9359471173957 391.1311214932939,134.9359471173957 390.7070307555841,135.79393003531732 390.95723264000844,135.78500203043222 390.6461550933309,136.2702385681332 390.2809011200443,137.0505431042984 389.99953322671354,137.59380841709208 388.9993082311703,137.7656710348092 387.28896426665597,137.940211893816 385.35142883553635,138.12055575620616 385.189773368882,138.13707238971256 384.6739322311478,138.21429879474454 384.2731431821594,136.91082058445318 384.1228472889634,138.22813704935834 383.7916720355861,140.8908689058735 383.0320369777037,141.47162140125874 382.4055128177861,141.79123549559154 381.3709178310819,142.1068316392484 379.69610894226935,142.37466393812792 378.4759742578026,142.66526161401998 377.4323498667218,142.46126297849696 376.46270833781455,142.22378511645366 374.85722197336145,141.67428178864066 372.88356892438605,141.12254514254164 371.6745025422424,140.81632177974097 371.45692302216776,142.21351821068674 371.4621659022523,143.55847879778594 370.4386392177548,143.4169748677523 369.16578446223866,143.21788716554875 368.7944137955783,143.54196257086005 368.59867960889824,144.34589963738108 367.57544419553597,148.92529417620972 367.43709041783586,149.61315484455554 368.4411019377876,149.798399238789 368.9289810488699,150.43492457224056 371.09196032001637,150.5786558444379 371.0791443911148,152.6542677966645 370.7235023644753,153.74964738002745 369.7270638933405,155.21594770776574 368.486831502174,156.29881650797324 367.27980401786044,157.39730246010004 366.2134604799794,157.97801143024117 363.9068845511647,157.87668876093812 361.5196265244158,159.04390523268376 359.590829226654,159.39072132494766 358.99197582225315,159.0273901670007 358.5236118756002,159.3701891133096 358.1790381510509,159.71298752602888 357.2871660089586,160.44053968100343 357.4625112178037,160.9150095154764 359.1839234845247,160.78378277737647 360.1896826311713,160.59765492280712 362.7193722310476,160.6962982417317 364.201068373397,160.95919809333282 365.78267050662544,161.25111029436812 369.1704448000528,163.3516169557697 370.10396871110424,164.42641159659252 372.4073406577809,165.11913360201288 374.0812757333042,165.60118113469798 378.29655125329737,165.985033044999 378.14013866661116,165.69268077868037 380.25593201769516,166.0859056453919 381.94239175110124,167.14104812924052 382.49435050669126,167.7476188678993 382.93766513781156,168.8714887133683 381.5535448178416,169.0616265712306 380.6736147911288,169.2620299103437 380.03951758216135,169.3794153004419 376.7446587732993,170.1377323399065 375.60870144004,170.53764421783853 374.52138638228644,170.59700607543346 371.9549966221675,170.75322141346987 371.2597324800445,171.45306476781843 370.60670264880173,172.4336451147683 370.4639798044227,173.41020418022526 370.58048824896105,174.22117338574026 370.8545743643772,174.6505350691732 371.7892633600859,176.06224539055256 371.85945969773456,176.2171178974677 373.19552028446924,178.14743611577433 373.544463075581,178.7847721502767 374.68275057780556,178.79459103825502 374.51060935109854,180.81905788334552 374.45876309333835,182.39363034284906 374.6737211733125,184.80456103221513 371.12895175116137,184.48991866863798 364.27796394668985,183.91999086015858 358.1027251200285,183.4719024951337 352.5566318933852,183.02113539149286 349.1892465777928,182.64802449697163 345.20465777779464,182.3365031941794 341.23055473784916,181.9276866039727 338.35104853333905,181.7344357027905 334.61928305774927,181.44969157176092 331.517245724448,181.1430779657676 331.4021936355857,181.05917198467068 329.17892124445643,179.53368426533416 329.09008355555125,179.58054697688203 328.5151143822586,178.7004189575091 327.3048829155741,177.6832686556736 325.55521735106595,176.41840736189624 325.11539797333535,175.93727614125237 322.77619967993814,174.9183277952252 321.59946439112537,173.71191899396945 320.1527207822073,171.49903654295485 319.27512092445977,170.6746674287715 317.84031943103764,169.6842599567608 317.0777716622688,168.1930612162687 315.5555888356175,166.156873509055 315.2908233955968,165.18920909590088 315.3610197332455,164.27331616863376 314.7458551466698,162.35939116741065 314.10010709334165,161.99785029527266 313.28775196452625,161.83537988300668 312.44160938670393,161.81707963673398 310.0633807644481,162.2339677962591 308.3996401777258,163.36009749874938 307.5986446222523,163.85062940546777 305.65178851562086,164.21038186567603 303.1121956977295,165.4596913664136 301.2457304177806,166.58044852182502 300.8618350933539,166.66614536952693 298.7032248888863,166.50948079465888 297.40444700443186,166.54072445095517 295.59390577778686,167.19907189242076 294.2697873066645,166.95447931007948 293.2899512888398,166.07519351301016 292.3165232355241,165.6837539857952 291.2862973154988,165.1396652776748 290.8316231110366,165.01201178482734 289.2101168355439,164.91961917560548 287.9585248711519,164.25590881000971 286.1267208532663,162.96731411060318 285.5141777066747,162.21879200986587 284.3758902044501,161.79833304136992 283.77791061333846,161.28904992504977 283.2352725333767,160.22361333901063 282.85370737779886,159.5429274427006 280.5040233244654,157.69055844959803 279.8300219733501,156.8487297052052 278.9949476978509,155.88771978748264 277.60471068450715,154.96643184206914 276.5718633244978,154.24957431154326 276.2730191644514,154.1187899649376 275.74261447112076,153.9206046636682 273.52254606224597,152.39225076459115 272.56834190222435,152.0079287957633 271.0586837333394,151.77626400976442 270.07214847998694,151.8360772918677 268.90735530667007,151.71912891906686 267.66916181333363,151.9115134230815 266.15746474661864,152.24137880571652 265.28976810665336,152.56231636949815 264.2106086399872,153.00421850848943 261.4126583467005,154.24957431154326 260.7878818133613,154.30804783385247 259.82523079111706,154.35089864954352 258.9508349155076,154.64639050560072 257.63021169777494,155.6395437627798 256.3873578667408,156.2439143844531 255.69092863996048,156.51262220798526 253.19735665782355,156.71259060810553 250.79961287113838,156.94380384439137 248.15050211560447,157.3535595240537 247.08823637338355,157.8427657422726 246.0553890132578,158.09183199435938 244.07707562670112,158.2498416211456 241.98837048886344,158.00747087597847 241.21358933334704,157.89498933462892 239.31828821334057,157.78473951411434 239.13041834661271,157.657081758196 238.46049479115754,157.36427208059467 237.8596024889266,157.14109371125232 236.78131683554966,156.8732793694362 236.1006162489066,156.69473629409913 234.5032854755409,156.15687440457987 233.31227790226694,155.59312231704826 233.27907299553044,155.52349013008643 233.21266318217386,155.44626979454188 233.06178474670742,155.75961457222002 233.04168704000767,155.8122850181535 233.10867939563468,155.8872734279139 232.77692159998696,156.5916276021162 232.15884430217557,157.71957157796714 232.09767736890353,157.65886718186084 228.10202026669867,158.54889907909092 227.3921925688628,158.66361205588328 226.6762481777696,158.46453813579865 225.50446449778974,158.57523397007026 224.29161159112118,158.01595162483864 223.51304391107988,158.04317928984528 223.04351488000248,158.17039046704303 222.7906915555941,158.33375629212242 221.52657493331935,158.35875214537373 221.23268238222227,158.0842439585831 220.65101397340186,158.5680923050386 219.32980821328238,158.12218413490336 218.2235605333699,158.31099220900796 216.71419363562018,159.00060897693038 215.7876602311153,159.72905618860386 215.4226975288475,160.44902033609105 213.03165297780652,162.08354892604984 212.54552149330266,162.02507746807532 210.67818240006454,163.52033506613225 208.57666133332532,164.00417147029657 208.23878684442025,164.2858137586154 206.99360284453724,164.5161263605114 206.76000341330655,165.33471610117704 206.14192611561157,165.5668129659025 205.23549041780643,165.9265626228298 204.4741077333456,166.93037710653152 203.12989155563992,167.80117911775596 202.25840839114971,167.8449199788156 200.73972081777174,168.85809871717356 199.8254208000144,169.09286986547522 198.9687924622558,169.57535503280815 198.46081564447377,170.17968741478398 198.36556999117602,171.31023977405857 197.86924401775468,171.77486699237488 197.96448967105243,173.06698076089378 197.40175388450734,174.79469686048105 196.82591089780908,176.98969353165012 196.66192526218947,179.6309801696334 196.53085326217115,180.23305341077503 196.18045411561616,180.99356462608557 195.82364700443577,181.30999721609987 194.6329307021806,179.74032643286046 194.34020323550794,179.15521171496948 193.47308913781308,178.5276956523885 191.90692437335383,177.84126422781264 190.0433718045242,177.1552769803675 189.4174301866442,177.08252739429008 188.85207295999862,177.29675923561445 188.31962936895434,177.10707480332348 187.65436615108047,177.39628770772833 187.39571740443353,178.4259361224249 187.36629902222194,179.56358713959344 187.57892693334725,180.18752976879478 187.70941639109515,181.26581272098701 187.8046620443929,182.651148633915 188.2884633600479,184.73984739126172 189.20392846222967,186.76872256223578 189.38189511105884,187.85366771783447 189.14101390226278,188.88058949296828 189.0189713066211,190.3627223877702 188.80517831118777,191.8743002259871 189.07285646221135,193.85714258282678 189.0521762133576,194.88939173484687 188.74838044447824,195.56015026394743 188.07204892439768,196.33221177745145 186.44326087110676,197.60231402126374 184.05891555559356,198.662660812377 183.30976625776384,199.08304941508686 182.08671886229422,199.70782929554116 180.39268608007114,200.0751097840257 178.32174848008435,200.6615077391034 177.19074275554158,201.92176716343965 175.92371342226397,202.11767794907792 175.2395175822312,202.5710835637292 172.89158115547616,205.5253374534659 172.3754487466067,206.28754637762904 172.39409009786323,207.53215469478164 172.22369649785105,208.92669671413023 171.94553258665837,209.74467517301673 171.74397297773976,212.25169552204898 172.0588370488258,213.96884073514957 173.03896433778573,216.27054401347414 173.25567004445475,217.0626135423081 173.2836320711067,217.21968840062618 173.5932532622246,218.47092844266444 173.503833031049,220.27102379634744 173.838503537816,223.09608181461226 172.95391317328904,224.2169919682201 172.86245404439978,225.0483002339024 172.97226325329393,227.0464615363744 172.79080135107506,228.08837186417077 172.22719175112434,229.9182846705662 172.14913109329063,229.8932969365269 169.46681543113664,229.13697043061256 168.65795555559453,228.4377565367613 167.01897301338613,228.29719955124892 166.71575978666078,228.9076178089599 166.72682808886748,229.04281986958813 165.9864169243956,230.3274584125029 166.0228258133866,232.09131427342072 165.87573390221223,232.26533419755287 165.31008540443145,232.85030785785057 164.73948529781774,233.57895708689466 164.05849344003946,234.4249546379433 162.93709966226015,236.6059713147697 163.03787946666125,237.17531663138652 162.7116558222333,237.69067103712587 162.81709596444853,239.96624750527553 162.36446065781638,241.18210961087607 160.2530363734113,241.3333668494015 159.00348330673296,241.80409298901213 158.61580145778134,241.79740020737518 155.90668885339983,241.76259773934726 153.56923818658106,241.4542833281448 151.30868309328798,242.03700166428462 150.63206030218862,242.2583092963323 149.35891427553724,242.89322895009536 148.3811171555426,243.67360204044962 147.81313848891295,243.80076377443038 147.38176597328857,243.89669275318738 145.9003611021908,244.08141169231385 144.26603889779653,244.17912527138833 143.3939731910359,243.85341317253187 142.42171022226103,243.84092009614687 140.5549536710605,244.44147932413034 139.5340484266635,244.65966128313448 138.95471018669195,245.15938192920294 138.74586879997514,245.4833073852933 138.4347912532976,245.85631186596584 137.99759331555106,245.90226811595494 137.0789242311148,246.27393335814122 136.7623125333339,246.64782885147724 135.8011178666493,247.0355551308021 134.83788430213463,247.16226874955464 133.92882716446184,247.17877720866818 133.40308280894533,247.60041175724473 133.2189994667424,248.08584820642136 129.7217072355561,248.4990037534153 125.01097955554724,247.98010524746496 121.96137102216017,248.02829191857018 117.69774449779652,248.83720177790383 112.90313073783182,249.1321207396104 106.99323989334516,251.22643556492403 101.50860487110913,251.02342977980152 100.88644977775402,251.2438360521337 99.98001407994889,251.00781394250225 91.08546815998852,251.29112967697438 83.94932593777776,250.4402890446363 83.81097216007765,250.74725237837993 83.78534030227456,250.82577781373402 83.57795527111739,251.27372919349 81.71265507559292,255.40295922697987 81.67712000000756,256.80612134491093 82.49326165334787,259.6610490476014 83.44979598221835,263.33461154432734 82.68608312890865,266.2514675541315 80.3334863644559,269.52831158187473 79.48850887117442,270.57760518125724 79.33005738665815,270.8890017249505 77.20756479992997,271.13169442804065 74.50719032890629,271.5448067600373 73.37123299553059,271.89189190021716 72.56645091553219,272.2242544075707 71.29709141340572,272.9188681228552 70.38453902222682,273.62641715758946 70.06501461332664,274.07119934097864 70.00617784890346,274.5039354079636 70.45910442667082,278.6858172757784 70.75328824890312,280.5005883380072 71.40049265779089,283.30033856397495 73.37006791110616,296.70349380967673 76.1432601599954,314.93290311511373 76.47618304006755,320.1389898125781 80.4083430400351,320.0863586399355 84.51846968883183,321.0644935484743 84.73459285334684,320.80223071586806 89.78115612443071,322.3356610186165 91.52237482671626,319.5105371080572 93.85458261333406,317.8379253646126 96.00474595546257,317.63319681514986 98.57142698660027,318.43605278234463 100.3007035732735,318.02971882227575 102.68563143117353,318.6082204032573 106.06787157326471,318.6889518061653 109.62807836441789,319.80045518593397 111.28453717334196,321.17376963666175 112.90749980439432,321.3414748747018 114.09035178658087,321.9538655243814 115.56127089774236,322.2170190317556 116.97218815993983,321.8410216359771 119.87703495111782,320.2750279547763 120.61482467560563,325.5229139486328 127.4052280888427,326.8110042079934 132.35363299562596,325.61479321232764 132.64548664889298,326.1513495067484 136.1669543822063,328.5558014444541 139.37996600894257,333.6487284746254 136.41482609778177,334.5755134666688 136.54152903112117,339.31686310243094 128.0789381688228,339.8801452507032 127.55173745774664,340.2525439801393 126.99773980444297,341.1913427747786 126.12829553778283,344.7386727555422 126.2794652445009,346.3357107738266 125.26584177778568,350.0577768028015 124.76136021327693,350.66964169376297 123.74132878228556,350.9278553033946 123.04693845333531,352.92755114939064 122.09885098668747,353.09835394541733 121.59436942217872,353.71021039469633 121.1504722489044,354.96112153696595 119.97490204451606,356.12015907105524 118.80253582226578,358.1652946972754 117.92697486223187,358.2486873085145 115.82195854221936,360.624248602835 114.96445639105514,363.44527799647767 116.55392284446862,371.75252267345786 119.34663025778718,374.95110073522665 120.47006293339655,382.57746867073 122.5954682311276,385.5168250685092 124.44736995559651,390.6570373715367 125.72255487996154,398.59630738338456 124.68970752006862,398.3666852025781 124.44795249775052,398.3082764155697 122.7553760712035,397.82495425548404 121.25969891552813,397.2707375959726 120.31452415999956,396.9514938996872 119.21118919108994,396.5234569333261 117.3951138133416,395.7084009114187 116.03662535105832,395.00168961274903 113.73966136889067,393.7732995970873 111.29036259558052,392.49407237319974 109.35078826674726,391.68836497463053 107.10101020440925,390.90093586116564 105.94582897785585,390.7150023020804 105.06560768000782,390.6267172478838 103.19652095995843,390.6204748690361 102.34950456896331,390.6815609978512 101.31520085339434,390.8220144415973 100.3455593243707,391.0231079465011 99.56407893332653,391.2326730446657 98.82512412441429,391.4600732449326 98.02150712895673,391.75123433524277 96.50165447115432,392.47044070938136 95.05432831996586,393.2783746433561 92.81561855995096,394.78633171285037 91.29110556445085,395.58890666801017 89.88776135118678,396.26529673603363 88.57500245328993,396.9456975713256 85.91657102224417,398.475477100641 84.21758663107175,399.43587537889834 82.4495709866751,400.4756333284895 76.69958798226435,403.75806170585565 73.73357425781433,405.38543608027976 73.12656526220962,405.8959387166542 72.28100522665773,406.94458321807906 71.7660379022127,406.62579938420095 71.51117567997426,406.96197141398443 70.45269646227825,408.5162030723877 69.84685255109798,409.1154219895252 68.74701283557806,409.83858431712724 67.54668458667584,410.3218801358016 65.86605027562473,410.6892555842642 64.99427583999932,410.74676940368954 64.76388039113954,410.7164520433871 63.091401671175845,410.4395830160938 61.75971015112009,410.2059605710674 61.41775786667131,410.11233318585437 60.666569671127945,409.74807769455947 60.71783338673413,409.91660723788664 60.302480782265775,409.8002416145755 59.424880924401805,409.30936526338337 58.693499164422974,408.6891920341877 57.96969045337755,407.8594679685193 57.31141774228308,406.83847060846165 56.52003413334023,405.9177855279995 56.160314311040565,405.6475982805714 55.6881638399791,405.24677533470094 53.38595697784331,403.6599730034359 52.69418808887713,403.59086502785794 49.991483448888175,403.31978321110364 46.58885432884563,403.1548154950142 43.088066844502464,403.0183826418943 40.0090399289038,402.9064719706075 39.6737868799828,402.87927454785677 39.28727011557203,402.8636694677407 35.3673435022356,403.3657066344749 31.571498382254504,404.3987582017435 28.81170460442081,405.4554352017003 24.562641635537148,407.062287901761 16.59375530667603,410.0450106128701 12.96335217775777,410.6411044681445 11.454859093297273,410.70218504883815 6.851027911179699,410.46499612974003 6.633739662240259,410.4373537954525 5.621281280065887,410.1916935435729 5.1249553066445515,410.1230334605207 5,412.23677335481625" stroke="red" stroke-width="3.2457118691179234px" fill="none" stroke-linejoin="round" vector-effect="non-scaling-stroke"></polygon></svg>