<svg width="247.6725663288962" height="230.53052604343975" xmlns="http://www.w3.org/2000/svg"><polygon points="5,180.12799069966422 15.846353635541163,202.33237314317375 16.229957688832656,204.58331946696853 73.10413738666102,183.35451779240975 73.1405462755356,183.34952531318413 74.69127367110923,190.2590070423321 75.44916110218037,190.00394468283048 68.63196074659936,217.6805515374872 68.42224554670975,218.02951589523582 82.42510421329644,225.24782478349516 83.28872305771802,225.53052604343975 85.22043306659907,217.6810053276713 85.41616725339554,217.2830309891724 116.3110027378425,204.3142055370845 117.06452110223472,202.09956224518828 143.44640199118294,211.52661609259667 145.40607402659953,212.00628533260897 146.57232355559245,204.83745710528456 146.8356326399371,204.45352763001574 235.31709696003236,218.25323397334432 236.66014805343002,219.63410943356575 209.60688725335058,197.94477617013035 207.29972878226545,199.72197236330248 202.32569201779552,173.7002103756531 202.16753180441447,170.04007607063977 191.02495544881094,159.1323836367228 187.6668908088468,158.64760478923563 188.69944689783733,150.932303915557 187.0930867199786,151.02036619733553 193.04550314659718,132.495635020372 193.33357027557213,131.6326404363499 234.53882055112626,94.99193501967238 235.437683199998,94.51155370782362 235.8993479111232,74.45763880811865 235.51690894225612,73.29925476660719 241.71341055992525,59.10889020754257 242.6725663288962,56.86461260128999 212.445906773326,59.43267824623035 209.5964014932979,59.52441053430084 178.3829154133564,53.053556384693366 177.34511644439772,53.1925212375354 110.99705258663744,11.274697903485503 109.15330645337235,10.205913520709146 99.17348437337205,13.54033990734024 99.12076430220623,13.56077963358257 85.98968007112853,5 84.82488689781167,5.465589347470086 89.50794382218737,27.205912170174997 89.57260600896552,28.72198516613571 86.66135125339497,59.25557124410989 86.79766613326501,60.44899717840599 93.82807694224175,75.12832717987476 94.21896277333144,76.67857661278686 90.90866659558378,72.10317476768978 89.67746360891033,69.83450989919947 77.89816860447172,71.19453101052204 77.16387413337361,71.34710713889217 63.68792490661144,74.6528969767387 63.57374663115479,74.70784168556565 73.74202112003695,79.90754633245524 73.51133439992554,80.59002388239605 51.22443406214006,86.53107532835566 50.15110001782887,87.37835666671162 47.653450240031816,103.94826416735305 47.34004252450541,106.00136645062594 52.121549084433354,110.2836704707588 53.51353372447193,110.64915158966323 41.60345799115021,118.43352661264362 40.93819477339275,119.17399476404535 47.36683946661651,123.7611183685367 48.23249720886815,123.92228336358676 35.5013282133732,125.75274614058435 33.91710464004427,125.80404609075049 46.439723519957624,170.20438401476713 46.292922880034894,171.47935497795697 5,180.12799069966422" stroke="red" stroke-width="3.3262985289379117" fill="none" stroke-linejoin="round" vector-effect="non-scaling-stroke"></polygon><polygon points="92.56396031996701,147.30855550518027 92.56396031996701,147.30855550518027" stroke="red" stroke-width="3.759708649205767" fill="none" stroke-linejoin="round" vector-effect="non-scaling-stroke"></polygon></svg>