<svg viewBox="0 0 43932.24793776004 24906.428274627266" width="1000" xmlns="http://www.w3.org/2000/svg"><polygon points="8.052550000022165,7572.441264996392 13.863117395550944,7669.885893899918 35.57475728879217,7765.035411382298 54.961179902195,7826.233114581992 89.13485428446438,7910.826257666544 208.65649837325327,8091.951545446616 296.9366943555651,8190.868602380477 3112.0926634932403,10702.004898764862 3234.401480844477,10785.865118521819 5608.812412613188,12002.084624311043 5883.929627902224,12104.059836394707 6600.298109751195,12276.217644995631 7063.934143742081,12335.067288493592 7165.409212328843,12337.72119625003 9778.617308186716,13601.607477149082 12477.692127599847,14907.023371634627 12753.756556542241,15120.377658833837 12838.355959493318,15174.893087890901 12930.918714622152,15214.180259645073 13028.76250626659,15237.098936035385 13607.391792382114,15321.037502528372 16279.628891617758,16735.046383765148 17727.48136962671,17501.174389820284 17998.71710608888,17708.259714245884 18049.789456524304,17743.16716758019 18520.925430355477,18030.010886209988 18643.932424560073,18086.65595745234 18847.9596823022,18153.423614048603 18916.81559042656,18171.419014447572 20665.682198213413,18515.08362891138 20780.806522337836,18525.986347162834 20895.83297936886,18514.13112057789 20944.405349857756,18504.221118554793 21045.38729645335,18473.975342111633 21139.426213573315,18426.17627645153 21223.53715487104,18362.34628650974 21295.05295078212,18284.516550802364 21351.7086771467,18195.161545610958 21391.712434088695,18097.120759536367 21413.801852613222,17993.505633807945 21437.93512052449,17795.788206602883 21441.459500968806,17690.60826136879 21426.520496951067,17586.460165132274 21393.59171529766,17486.59942973379 19984.761410586536,14202.82840304458 19934.824434942217,14109.840955842723 19905.69382857764,14065.54711388817 19853.569989431067,13997.550829605752 18982.26158765331,13013.273889083503 17080.49890932429,10864.940072942612 16022.530872346484,8721.755552308954 15972.104561235523,8637.7712710177 15908.569302497897,8563.349602532544 15833.677674409002,8500.541302544734 15749.495662959991,8451.076057563623 15607.39584742207,8401.622767659806 15485.224218764459,8380.106818557804 15098.646869928809,8353.130406544864 10869.48296080879,8058.008843183488 10527.569124151138,7706.47020742725 10467.092212079791,7652.308626059181 10137.027575493441,7395.411794163956 10066.024416737608,7348.006812755106 9988.372121057822,7303.976138719445 9868.386773359962,7252.670794022008 8255.051817555446,6766.358854348393 7574.143263315549,6443.446989757329 4146.924162302283,4818.133791300672 4095.151596115553,4796.491357658146 3738.4260409155395,4667.12404342994 3650.656151919975,4642.859723441157 3449.2576159555465,4603.824730144901 3352.719592702226,4593.368012162129 3255.7959264977835,4599.1291922756645 2646.806869928958,4686.575703300972 2630.378014177666,4688.9348919103795 2497.7302374666324,4790.663170663029 2095.818920986727,5098.891255608847 2107.1461632266873,5416.542717080418 1767.3300611110171,5970.565159058635 1099.024516577716,6201.200506179215 808.5625566133531,6201.200506179215 57.941757182125,6705.030803033471 27.163430142216384,6725.689798255189 8.052550000022165,7572.441264996392" stroke="#009edd" stroke-width="6.415853554236796px" fill="none" stroke-linejoin="round" vector-effect="non-scaling-stroke"></polygon><polygon points="10673.834116577636,1655.3167496500246 10681.086184702232,1747.9652684102475 10701.898961946601,1863.8324022034358 10745.223209555494,1973.2115129268204 10809.325864417711,2071.71700550252 10860.293357253307,2135.1338135389087 10941.292066728929,2217.713293678913 11171.90334751096,2410.434294999548 11255.21911867545,2468.5503472203563 11347.260207244311,2511.299738220492 11445.256916222163,2537.394863292313 12297.113941928954,2685.305421678786 12372.345483404468,2689.946105134528 12595.948489982053,2679.537151763303 12731.615291759954,2686.3820895375393 12838.673445004388,2669.605996870756 12940.81319426652,2633.2239776226634 13034.522392488667,2578.488654340239 13116.581328808796,2507.28358580402 13237.933903102297,2380.4224415863573 13300.594474693295,2302.6193300940504 13349.232672453276,2215.2474172585353 13382.440491831163,2120.840891763888 13399.258194515482,2022.137732445466 13399.201396649005,1921.9988131170103 13374.838024560013,1636.7573162704648 13358.645680950955,1540.9256123240048 13326.99645328871,1449.092258186749 13280.75687312882,1363.7640058155812 13221.191639635479,1287.2699460431177 12279.434076755424,264.0276472994301 12204.102629288915,195.25234458802151 12118.063473235467,140.6776964487217 12023.925815208931,101.95789255315321 11768.781351279933,23.60097192748799 11668.140774426749,8.466155800124398 11604.40716006211,8.052549999993062 11466.702625591075,31.568295503238915 11406.668445608928,53.118258025235264 11245.826790426741,132.42170691440697 11146.383337839972,195.6335410810716 11061.53548063105,277.626127781783 10994.726917146472,375.07630065942067 10844.182860826608,650.3591965693922 10802.419535102206,745.9471905572282 10778.1117957955,847.4704450556019 10678.385810231091,1522.5873519692977 10673.834116577636,1655.3167496500246" stroke="#009edd" stroke-width="4.850936257612591px" fill="none" stroke-linejoin="round" vector-effect="non-scaling-stroke"></polygon><polygon points="11015.04336841777,4156.842944983015 11031.231925502303,4304.407834055455 11053.458823991008,4390.103037817375 11088.199894497637,4471.4795393985405 11163.801350284484,4588.508673063567 11238.868906124262,4678.181254451367 11335.480620968854,4754.595927367307 11421.394530444406,4800.530328395049 11532.382513519959,4848.1408281034965 11632.786869502277,4875.122382580041 11736.350060684374,4883.801117981056 11839.804607742233,4873.902919682645 11967.607380791102,4835.189598490688 12078.78731152881,4778.598547354428 12154.921210906585,4724.576122512197 12246.769478000118,4644.628256856202 12334.481695315451,4539.380405602598 12387.583914124523,4447.122836408642 12421.307283368893,4356.331100164767 12451.270925111137,4197.76103807459 12460.077215884347,4081.3291383614705 12442.871540080057,3943.4975003037544 12421.992353022099,3852.514594428212 12354.94523849769,3690.163608074741 12295.973906800034,3601.1018317624403 12233.237895990955,3534.0419647135714 12160.884986906662,3477.651055420836 12080.684942817781,3433.3067764388106 11984.016430106596,3395.919692602911 11867.707506373408,3373.5589070340793 11765.829318568809,3369.7696641719376 11648.812897306518,3387.530188309349 11560.39755152876,3415.4570082401333 11307.706755439984,3552.464774796943 11229.18618057773,3618.3918975006964 11134.82948667556,3735.6688780178956 11076.33438324451,3844.163391337235 11041.603507226566,3942.9939016202406 11033.680350462091,3974.111274602561 11015.04336841777,4156.842944983015" stroke="#009edd" stroke-width="6.0998758160167625px" fill="none" stroke-linejoin="round" vector-effect="non-scaling-stroke"></polygon><polygon points="12318.103520737612,18966.488439070148 12319.060928880004,19072.701275414292 12338.711243120022,19177.074028147123 13220.316661217716,22297.820610186987 13257.362851297716,22395.39970102007 13294.838083724375,22461.87248439304 13996.541938942159,23535.36822714968 14773.112955475342,24542.102734100743 14857.562062533223,24630.940265544195 15003.23926985776,24755.656571798463 15093.472147368942,24819.432057849102 15193.82902615983,24865.41563944376 15300.882810337702,24892.033620794507 15410.976008559926,24898.375724627258 15520.346854426665,24884.22568257546 15625.258630853263,24850.068806222844 15722.128994444385,24797.07622624791 15807.652018088847,24727.0616405911 15929.000805857591,24607.340214713913 15990.69202719105,24536.045449963858 16040.496183208772,24455.899772520846 16077.182653466705,24368.892688290536 16099.847914977698,24277.181610217056 16107.935931191081,24183.039880298747 16134.44218484452,20758.277478575445 16126.822823848808,20657.864589044213 16102.571299866657,20560.174126787897 16062.380838142242,20467.974331994512 16007.395551599911,20383.87640660451 15939.176944666659,20310.260755688156 15482.956090622232,19894.139735255943 15442.592031315551,19863.299804045906 15402.339820115478,19832.31475029941 13417.696820933372,18560.57342848633 13311.966572684469,18506.76784201883 13210.081394373206,18467.21373683258 13062.916956755333,18430.94962420172 12975.595625270973,18421.058972862753 12870.167716435506,18418.608661151695 12765.974214568967,18434.99228412236 12666.307357039885,18469.692679283296 12574.318697270937,18521.61645734086 12492.917159848963,18589.124840776174 12424.679911564337,18670.086935553903 12371.768475333345,18761.946292743174 12335.862320382264,18861.79934210339 12318.103520737612,18966.488439070148" stroke="#009edd" stroke-width="6.360217549884749px" fill="none" stroke-linejoin="round" vector-effect="non-scaling-stroke"></polygon><polygon points="21400.09725556441,10584.68166347625 21405.52800543094,10691.585308814741 21431.94862537773,10801.481409802305 21472.316179937683,10895.022000072378 21528.07333492441,10980.182256115688 21597.558097377652,11054.419666528673 21678.698655884364,11115.517410042085 21769.07454751106,11161.650982909574 21886.622538551106,11196.238864083047 22005.113374177832,11205.617285754852 22123.04496927117,11190.766632502753 22158.215082124458,11182.236780732375 22259.12537602673,11182.912885614758 22362.70196567988,11165.768524473504 22451.612763617653,11134.931374161824 22534.480851084343,11090.1940106861 22609.1779100711,11032.708650338202 22677.78157741332,10958.956017798366 22765.095627119998,10821.992863195104 22805.874456488993,10714.308936921734 22824.560663350974,10608.271190297179 22823.80539736012,10500.591316614387 22804.790054142126,10394.110044967587 22770.05218761787,10299.652096340986 22719.875787119963,10212.51551015777 22657.708046248765,10135.751666207536 22588.903984382283,10074.41152589707 22511.42761645338,10024.642308469367 22427.18006900442,9987.665302810346 22378.17195693322,9974.97703821314 22332.52977382217,9943.339524596551 22225.741628897726,9897.30072599693 22097.48476418655,9868.598495850078 21981.929358817637,9867.48913412806 21869.226662711124,9886.624152363715 21773.235646604327,9921.982398541848 21650.483223351068,9996.039073789347 21564.901071671164,10077.920028868568 21497.335203297785,10175.404491998575 21446.034787582234,10281.799896425306 21412.14859778667,10394.721500941057 21400.09725556441,10584.68166347625" stroke="#009edd" stroke-width="6.365076292076789px" fill="none" stroke-linejoin="round" vector-effect="non-scaling-stroke"></polygon><polygon points="29638.610921840067,15578.111381718161 29790.248992453213,17617.049930719164 29816.483490159968,17841.991338452528 29844.57454992889,17935.03814440148 29887.330236328882,18022.256541635346 29943.61546583986,18101.32178681725 30011.934270035475,18170.124778823898 33158.441128986655,20848.51140112136 33243.17480791989,20908.448881199205 33341.489584951196,20958.387372746336 33417.94533890672,20989.47631756481 33650.975043724524,21036.89900732317 33774.90187209763,21045.705066859344 33897.933333075605,21028.36605181996 34145.66436468449,20966.273886274517 34228.328562373295,20938.927732926066 34306.12882377778,20899.7169500702 34417.81381862215,20832.69490885883 34506.49101712892,20767.579619088414 34581.73304436437,20687.154667271505 34640.97234548454,20594.17491279365 34682.18982914672,20491.822747613973 34703.984772577765,20383.598855242686 34705.62055113772,20273.201236435416 34681.12989357335,19956.04721223141 34662.86399092432,19848.36321439591 34625.421963404515,19745.84095007225 32752.50852354651,15765.759155432665 32703.813236648915,15680.837509454665 32641.924533502082,15605.127144767874 32406.502910319832,15361.16834877638 32318.121060719946,15285.937366832717 32216.868523262092,15229.497074822983 31486.641653217725,14911.74740616823 31389.005829146714,14879.046251520253 30354.34851046221,14758.106514248619 30240.59053911979,14756.344367877551 30128.60524375993,14776.5680042413 30022.545859155594,14818.029955933074 29993.429525075597,14832.802746606612 29901.549218159984,14890.622770960763 29821.703651013202,14964.370292428153 29756.582421075553,15051.56682636842 29708.381421253318,15149.281770120346 29678.728857057868,15254.227965874918 29647.073221430997,15424.294134116702 29638.610921840067,15578.111381718161" stroke="#009edd" stroke-width="5.782430093742695px" fill="none" stroke-linejoin="round" vector-effect="non-scaling-stroke"></polygon><polygon points="33618.12053620443,14581.733486058627 33634.68599810649,14680.987719578872 33667.67361652444,14776.007807541959 33716.13909051556,14864.060486610135 33822.91587586654,15024.276574972871 33881.08446438215,15098.120908892219 34109.27382587548,15344.68608179802 34185.724336951156,15414.01958897381 34270.239562551025,15467.514223086037 34479.09289133339,15576.031753066549 34572.09750473779,15614.628556124953 34670.26548112882,15636.762689397874 34770.74148980435,15641.790932944947 34870.60320770659,15629.567441718391 34966.946661857655,15600.449702888349 35056.97128052439,15555.287195827317 35138.06115785777,15495.395725966868 35207.86224073777,15422.519531566155 35264.3493211288,15338.779428346985 35305.88632920012,15246.611181141197 35331.271189075545,15148.69326373571 35339.772810266586,15047.869670942047 35339.750382391154,15010.913086298358 35331.75353403541,14913.822937422985 35308.09765947552,14819.36325244754 35269.4232638845,14730.073953393701 35216.773680382175,14648.353997959959 35151.56681673776,14576.398649263981 34985.260624240036,14420.819733181706 34681.93380183994,14147.623096164985 34598.088499795645,14079.080634724553 34527.561860577785,14030.431356274843 34426.531854248955,13982.714004344394 34331.03862047114,13953.14793648335 34231.957509146654,13940.228709937044 34132.12986996444,13944.326962795894 34034.41860667558,13965.326820340793 33941.62632991094,14002.627638740552 33856.41525762668,14055.162174233672 33781.232067155535,14121.426468246122 33718.23653378675,14199.522066866717 33669.240655102185,14287.210020412429 33635.654765822226,14381.975523235946 33618.448216204415,14481.09880400644 33618.12053620443,14581.733486058627" stroke="#009edd" stroke-width="4.920705511512082px" fill="none" stroke-linejoin="round" vector-effect="non-scaling-stroke"></polygon><polygon points="38712.178474693326,22094.597357030114 38720.30144343991,22198.52233715818 38728.907339688856,22240.842230765236 38746.24088351114,22299.45949649354 38789.21444070223,22394.337096525793 38821.083286782145,22445.93339783509 38894.22000642668,22531.766031804815 38982.11222928879,22602.209714868775 39046.754609519965,22637.930827227392 39100.659280239954,22662.27138904421 39185.281111066695,22689.228617017827 39340.49977744883,22706.03048445875 39426.43145446223,22698.39596597312 39510.35423462209,22678.317862546857 39644.23962228454,22626.83315336806 39747.69387807103,22567.83528584658 39831.0938265865,22497.956976105197 39900.46237186657,22413.986418645334 39953.49089908437,22318.731280943 39988.41750928876,22215.37351029119 40004.23935604445,22104.473780625704 40001.73034669331,22008.971725127398 39984.140775564476,21915.102082425467 39942.28890342219,21801.222669168812 39892.107260044315,21713.26928297404 39851.6925195643,21659.80860627067 39803.380545448745,21608.2994291583 39730.109841093305,21548.307528159203 39649.99950850662,21500.887913622748 39532.74220603565,21456.992329662287 39448.34989684448,21439.98547778392 39382.42038957332,21434.999721667 39279.10565264872,21440.572582554625 39178.31332354667,21464.105682540656 39076.98447305779,21508.16907670416 38993.656177235534,21562.299086088984 38920.430911173346,21629.636292124836 38842.181509715505,21718.17037329424 38782.54811878223,21812.10804917579 38749.79380852438,21890.420340345678 38736.67117115541,21929.866433191666 38722.11227593769,21990.84563802622 38715.99441751989,22031.991436657816 38712.178474693326,22094.597357030114" stroke="#009edd" stroke-width="5.268061550536925px" fill="none" stroke-linejoin="round" vector-effect="non-scaling-stroke"></polygon><polygon points="41734.242081591045,20087.20896748986 41749.91858406225,20182.088564072474 41780.568751813145,20273.200344107318 41825.3968321688,20358.164779831743 41886.93746633781,20438.918809230294 41971.13229371561,20516.806938209193 42068.64461883553,20576.943144157267 42175.830640097614,20617.078663044464 42253.86886999989,20633.446530329966 42357.61264927115,20638.49071470971 42460.62912457774,20625.202595155773 42555.564574177726,20596.13166440485 42641.4813963644,20553.803079467703 42719.49166424002,20498.101674547157 42787.55939273769,20430.486435649073 42846.741895991145,20349.49853182162 42889.833709253464,20263.95171231657 42918.72023042664,20172.564365992992 42933.15242271114,20070.208766831056 42932.359000204364,19980.76183860979 42918.266430035466,19892.452522187697 42891.19656678231,19807.27069007288 42852.065749360016,19725.51052884184 42805.72072905768,19656.534051589522 42724.96610477322,19570.148841252638 42641.6305271734,19509.10437354268 42549.03689730656,19463.540553234838 42449.99219487095,19434.838661535265 42347.49884248001,19423.869080338947 42244.66441161791,19430.96688852526 42144.60695952887,19455.920079129835 42144.09985652438,19456.14621113843 42044.03250121779,19499.435116527457 41963.412735457765,19553.54254319225 41888.13808585773,19625.170582618535 41838.65753204445,19688.117160560883 41795.028032311006,19763.192721739382 41755.26399149315,19864.807093897223 41734.6023839555,19972.035919519927 41734.242081591045,20087.20896748986" stroke="#009edd" stroke-width="5.577780298331776px" fill="none" stroke-linejoin="round" vector-effect="non-scaling-stroke"></polygon><polygon points="42718.592219048995,20961.434560978756 42735.814788577845,21066.75568449669 42768.42171565327,21160.725014878873 42826.243982817745,21260.77993436283 42874.50964482664,21326.47177750079 42973.64551511989,21418.029082514433 43062.17300027562,21471.591750765772 43128.64194164425,21499.335588516755 43228.85027216887,21524.551192511193 43268.81791149336,21530.443736660265 43376.323748435476,21531.149176621315 43482.177495635464,21512.280362647813 43582.887686284375,21474.464243913273 43675.13586861326,21418.953650457872 43749.0581464445,21355.659261001012 43809.285439173225,21284.484937556408 43857.70634868427,21204.716601125518 43895.45158943103,21111.1104440591 43917.19730804453,21019.066569923976 43924.19538776006,20924.730936892185 43916.274852435454,20830.48012452558 43893.63988312008,20738.687230310374 43820.83375618665,20583.168569947564 43746.65486850659,20490.826942314365 43688.35083892429,20439.783352575934 43602.65130498656,20382.048079639644 43557.27767384006,20359.42844797505 43508.299271422205,20340.155340217374 43459.71408500441,20325.80238914836 43357.83094559098,20309.72444250362 43305.2538885955,20308.4593634817 43153.497561911005,20331.62284336085 43099.76357606205,20350.03784565613 43036.29181442666,20379.20534570291 42952.71943341335,20432.296128046204 42882.324448737665,20495.188917671767 42822.71552457765,20568.523927874718 42775.40377545776,20650.450951480627 42740.78125229338,20741.651451213023 42719.47972212441,20850.491386475478 42718.592219048995,20961.434560978756" stroke="#009edd" stroke-width="4.9934250482646px" fill="none" stroke-linejoin="round" vector-effect="non-scaling-stroke"></polygon></svg>