<svg viewBox="0 0 54926.071263057835 33173.606351138165" width="1000" xmlns="http://www.w3.org/2000/svg"><polygon points="8.052550000022165,17682.251723943366 17.631000488996506,17696.29881789125 29.217765288776718,17702.981981916673 78.08198943117168,17699.718686889944 95.15746704896446,17700.896275477455 106.99559881782625,17708.590503363375 111.19310679996852,17715.18634239721 107.6311523822369,17735.374300655065 97.62598971556872,17746.55672166936 59.66229563544039,17765.254005060502 50.048601342132315,17777.20934423615 52.17546299553942,17790.88640895122 57.22610406228341,17793.972497709416 99.29555572452955,17797.800207056775 103.72433296905365,17802.861608044914 70.72681133344304,17824.243730920338 63.90465936891269,17831.066194913554 62.404613146791235,17841.165201869066 65.38955949340016,17847.59185292732 88.92455654218793,17862.155222706468 92.50107451551594,17878.3246335125 86.56001766223926,17887.235966715583 70.01261456904467,17895.51302516469 58.82722136005759,17897.27906188913 23.295641057775356,17888.55300821594 19.570866088964976,17891.213195259537 40.5371432089014,17935.871701473923 43.4725734667154,17948.789521886123 42.88595344882924,17964.633198642725 41.112986195716076,17974.68094280464 21.859965751180425,17996.823475997866 21.294899795553647,18002.4715648001 38.55795600893907,18015.59440978113 75.30996226659045,18030.761910759582 107.38357193779666,18037.17093602728 121.48225879995152,18042.45813962756 132.06297318229917,18049.51188111861 139.13620084454305,18056.58530848156 148.53901485330425,18082.399202776578 151.98067430220544,18091.57725039366 175.71693968900945,18101.011413648346 178.12313033780083,18103.417699928017 161.19998751115054,18135.19842559073 152.37185140443034,18142.260840668896 118.18565236462746,18146.69899319086 114.03125250665471,18151.942020588176 114.37320479110349,18172.167822404386 117.54194320901297,18185.73544825471 95.3418416621862,18212.542855276464 91.4670620711986,18217.480183329986 116.72492774226703,18232.622271340195 132.18181179556996,18240.032482038107 137.15963508444838,18246.594109176163 140.99829705781303,18253.62100068372 139.07649026671425,18268.417628028634 140.69246239110362,18273.47072861783 183.00163017772138,18255.94482532618 195.99261300463695,18254.173356029525 219.02574992901646,18268.33989267421 227.22852696012706,18281.22964648364 233.71193062223028,18308.382382672717 230.13803408900276,18316.72174152822 217.45492482674308,18325.20166591424 213.12517975992523,18329.552681704372 197.72858882672153,18355.20787354067 194.90471540449653,18358.1030374743 168.90760365338065,18366.23059166802 170.05521183111705,18369.523283968534 196.2218433689559,18399.079533916753 208.52630018664058,18411.384041029116 224.89981442666613,18445.905418653478 227.88155679102056,18448.398841607355 242.56103824905585,18442.165732645168 253.8766296445392,18440.343860532128 286.52520848892163,18452.678655981872 295.0408106932882,18452.678655981872 303.07668937765993,18445.79100118761 309.99321318231523,18437.72136634818 313.4806021954864,18420.28406163733 318.7834840444848,18404.96451426772 326.7185829244554,18398.860387818742 335.24263199116103,18405.558000949415 338.7993435289245,18418.006610876037 338.2101020711707,18432.74395106928 331.1692055022577,18448.586017201276 322.38330370676704,18466.158044775802 296.17356404452585,18497.559996241092 294.5293386223493,18506.449124785227 306.31067252450157,18521.73017945778 323.40420895116404,18532.679397271102 333.0554772177711,18560.336979579035 337.1443410756765,18562.719114613923 340.7383353157202,18562.00702627664 343.7829922400415,18558.763757526263 354.3377834933344,18513.6210833925 369.9193315823795,18502.847462979465 384.03986377781257,18498.785776053875 390.66569901339244,18499.78652719964 402.0803225868149,18522.690165306994 406.94542395567987,18528.72970029383 432.8435035289731,18541.241024563293 442.55127839103807,18541.574618388404 460.1408495201031,18536.203679527243 463.46250527119264,18532.599006654666 469.02753112011123,18504.476952673722 471.75907160004135,18502.835140594252 513.2850113689201,18506.339396599535 527.6196278311545,18508.64457048892 525.9008370044176,25107.308704875148 222.12574836437125,25606.48143980591 328.6934010578552,25709.081706682657 405.35741385782603,25796.216643695807 464.3144732711371,25849.003454140126 553.2849817866227,25907.14156156007 689.433837253484,25965.115568167268 811.2879804001423,25989.3456030667 1035.6013972179499,25985.90961127178 1093.520366391167,25978.86729635831 1171.5390811288962,25964.26345430533 1229.3459109244868,25948.086417415732 1339.095700506703,25902.470562938106 1545.7376990134362,25795.266070888232 1618.6026627111714,25744.103527152416 1680.3512644533766,25787.109779129823 1769.9742202578345,25831.039803649153 1869.770984702278,25863.122063212533 1926.5321512089577,25874.61802547399 2089.5032894845353,25887.76330113152 2195.861226977897,25916.853268206673 2291.1738726666663,25924.6607277563 2397.102476542117,25916.89696430482 2607.3841988532804,25874.715747169073 2741.9869872622658,25850.709852011147 2832.6171585688135,25876.25006757534 2911.7007604889804,25885.70108331353 3053.1408469600137,25891.479141767806 3188.7231801154558,25884.0300551776 3298.9789076178567,25895.087824661954 3330.3281260356307,25894.936958256032 3416.545831280062,25977.771875455946 3496.1548862843774,26031.21473137135 3555.1142758666538,26055.419174481736 3555.1087417155504,25475.86044830465 3555.1087417155504,25367.52792073376 3594.16441119113,25378.931605195365 3599.7891476176446,25379.6817238433 3646.7379729333334,25377.57389771947 3650.5393522043014,25376.729056947835 3696.699415351264,25334.047637102165 3800.2643541600555,25285.685322345438 3885.220272951061,25291.41930607808 4011.4402787822764,25261.90879016611 4071.3139683821937,25271.741602051043 4182.971292471164,25385.66941336295 4279.640387724503,25435.978462503263 4314.189219297958,25433.73890522399 4315.016720524407,25433.604927381937 4382.469866977772,25449.88719815467 4387.802167208982,25450.703177590593 4448.958323511062,25482.532778505323 4456.521177911083,25485.035688090342 4551.536435795599,25497.72267883559 4553.723881840007,25497.472709177382 4614.661293537705,25523.285124756134 4616.7864075644175,25524.097620395216 4706.223823671113,25574.347864213836 4710.411428435589,25575.910365424905 4771.473795440048,25624.035320807685 4774.411264595692,25625.78532390375 4841.411484471289,25698.97288401643 4846.723978266702,25703.66037104788 4936.223726391094,25769.222785191 4942.473821893334,25773.847714598378 5017.962555760052,25805.815116771933 5020.122913590982,25806.13601210082 5107.7614393156255,25756.220135287935 5410.356879955507,25703.739184771868 5515.534586906666,25699.642059856764 5557.357623208896,25691.64474337056 5581.287875155569,25669.840394705156 5583.288033875637,25667.840305918682 5617.850555191049,25656.965333870816 5622.475357893389,25654.902694360324 5656.975547191105,25631.465401637804 5659.225325253443,25629.402813152148 5728.14036141336,25610.993478598277 5732.70283209777,25608.430938021833 5785.202702249051,25557.056027043815 5786.64041645336,25555.743538001872 5857.306283262325,25516.12763532679 5863.272389431135,25512.310150783363 5861.009212897858,25863.032904247608 5861.010086711147,26092.22611653476 5943.262427048874,26051.229102010693 6037.225031137699,25979.856128799234 6097.003475084552,25915.233266213647 6119.534460613388,25883.062572468858 6250.496068862383,25805.70086979316 6273.283372968901,25787.665653047006 6348.948908400023,25750.07354979831 6407.925482977764,25714.764900547656 6494.527083546738,25649.645461700013 6540.9571550133405,25600.493064753915 6601.596013822244,25637.385183374834 6668.57788361772,25666.450931298634 6780.355793946539,25699.42952932659 6872.4580494489055,25722.191798657266 6940.646364186658,25731.304286306346 7039.457467191038,25734.516553402267 7172.570403866586,25712.80457442798 7238.686907191062,25692.593449203967 7334.361020328826,25648.88422631516 7436.346687173471,25579.29569443871 7518.785732293385,25494.081745390402 7574.655026657856,25412.732039855415 7581.424167279969,25398.176067190332 7741.11588411557,25350.93179192298 7822.643833200098,25317.06579173621 7936.638607955538,25243.388538145664 8026.021556364489,25153.567205447674 8102.594692577841,25035.86601033408 8142.157173786662,24948.51978251568 8174.68137986667,24849.10905710605 8189.3130928621395,24745.49805608086 8195.19123515545,24647.59842865166 8177.746134497807,24504.777007963363 8149.003501253319,24417.640266959643 8283.706195653416,24391.406130280666 8329.14215881785,24377.65840479298 8418.420249626623,24334.801954228635 8499.290799813461,24277.48972041646 8565.483907439862,24215.38700288112 8616.747914266656,24156.06526919696 8659.743025520002,24090.430318705243 8701.407610337832,24003.489225128986 8716.819347368903,23942.91534957217 8829.531072880141,23915.23748724346 8920.722523617675,23872.736017744726 8991.259066053317,23824.738077581016 9062.478930515703,23768.195665608015 9149.742007777677,23665.74638794639 9177.860155760078,23620.483130777226 9217.836824488943,23543.590547765343 9247.918139760033,23455.013435001805 9266.618910177844,23345.839223708812 9259.535488026566,23185.914989349985 9234.915797360009,23071.350742715615 9200.653867831104,22979.827146761556 9151.876733751036,22895.24530673385 8960.000432951143,22670.356813040184 8897.51287639991,22618.691782810463 8920.838740791194,22555.09680405745 8940.588378480054,22471.706891904672 9070.872198853293,22425.65796047097 9175.57833787566,22360.781926864147 9257.045702568954,22284.14891677929 9269.20102857775,22269.00447380924 9318.824887777795,22237.08337259965 9402.088521413272,22159.08642991059 9467.340823351173,22073.595785440964 9516.060577022261,21977.593214303575 9558.999472951167,21825.783760088467 9565.835023386753,21752.911108761647 9621.399939439958,21755.06768122557 9753.415949111106,21778.09283420301 9835.039435120067,21781.62925404284 9921.985318142339,21774.633194451308 9979.734476257814,21766.92801668981 10111.70242619561,21727.433433845028 10198.103049697704,21692.37747660055 10245.391205857857,21663.704993337713 10290.764254462323,21671.94655646602 10333.720044115442,21698.757173536083 10421.62333527999,21735.805143868405 10562.883124933229,21768.00396196064 10632.101665591123,21778.07400940612 10725.640470213257,21779.985610220785 10812.60266441782,21768.041317103634 10930.245027297642,21731.969144558738 11015.6416392799,21689.06514165175 11092.994508257834,21632.790075508616 11168.266245146748,21555.0743854538 11227.349133679993,21470.521423178114 11237.13176521787,21449.480554303474 11370.240332826623,21566.868934812228 11425.832337093307,21608.67190204814 11475.71367995569,21637.841874446574 11520.720309502212,21660.848899885983 11644.213726462214,21700.508353471494 11680.319402124383,21705.65279016862 11716.642657306744,21738.825244572916 11826.132050515502,21806.538616953156 11923.020181644592,21842.61656500408 12091.165751208784,21887.692587107507 12207.658758284408,21903.642876973696 12307.544069146737,21903.915276901767 12422.90141016012,21886.747143035143 12505.407738906797,21920.524435943196 12595.447503671166,21941.612968315458 12687.662481093314,21948.208157191373 12790.367878853343,21937.700116718275 12816.171004044474,21938.455268716294 12859.123880986706,21994.011589591944 12931.06901051558,22063.63356734437 13013.695051688934,22119.987504608318 13168.28923280898,22182.721419688984 13267.430054711294,22203.102554498095 13362.353853466688,22206.971852758405 13501.085701146629,22202.279557869624 13686.037905093282,22188.600596606237 13793.953851760016,22176.800490572437 13837.402472133399,22196.09724442041 13944.674418373383,22222.405035882926 14054.945583244436,22228.033710862364 14068.845623209025,22226.095788776496 14178.143068755628,22325.86467904874 14250.225678248797,22372.245160417253 14328.240897733252,22407.594051102147 14426.687911848887,22443.33984981416 14500.092892186833,22458.546000620205 14778.316222604364,22493.39540474603 14814.140821644454,22555.863831845665 14858.027222497854,22622.093267718068 14900.254251831095,22677.74999933524 14969.932709573302,22749.85783324609 15024.8399354578,22819.94471784329 15101.304136275547,22888.613260243525 15188.46148212452,22942.870807073865 15225.601170231239,22957.77173863721 15232.966542817769,23050.711967391515 15255.325969662168,23142.742184582952 15360.778345271247,23377.53696558412 15414.024452008889,23478.54904529496 15462.313124435605,23547.31207501478 15542.410932364524,23684.18766683954 15635.46593567112,23799.578948582028 15666.285623208969,23844.315591169026 15731.174127529026,23916.92073589514 15810.488416169072,23983.16474810752 15887.831381928874,24031.517670270492 15920.769775529043,24045.569296835078 15931.038829822326,24067.45669016891 15935.589067119989,24146.76974583938 15954.085365217878,24227.99455939498 16002.171312951134,24374.38423606669 16036.449844933348,24455.119596737524 16052.88627373334,24484.664274372015 16060.143293466768,24525.68208942024 16101.580978088896,24633.735960144637 16123.12863234675,24732.362445627426 16217.432606177754,24933.08653853109 16266.027987084351,25024.78317443127 16329.792184915626,25106.53429547054 16524.003314942238,25267.857150831114 16603.050507973297,25316.077004859777 16671.492228577845,25346.332655477774 16751.39284596441,25371.999082632916 16846.19314576895,25386.708431941894 16932.17055234674,25411.971863997373 16983.463686284376,25419.359404021146 16991.857245893334,25523.846168716293 17016.22848230228,25617.33079096579 17051.091595404432,25697.691798707907 17067.066650764435,25723.370779389254 17048.735794657725,25760.97548402389 17019.426056560013,25871.493593242107 17011.723974568886,25985.63058692505 17025.922567422152,26099.147259407066 17061.753865697887,26208.40056663935 17120.90520294232,26313.21313804711 17200.383477217867,26404.308459753025 17310.25501812459,26485.48031684439 17383.555432133377,26521.13458665213 17530.1335410045,26559.512235249014 17576.55487433786,26562.143060462986 17616.546106622205,26617.162724852184 17686.22602072009,26685.406707367016 17791.647812862182,26758.748746073426 17893.274342426565,26803.224120971485 17987.746962231,26827.89579920782 18086.447382213315,26844.027920877998 18186.437259404454,26843.1455085871 18284.84116539557,26825.274612875743 18329.404480311205,26811.896918926475 18371.26130406221,26821.108802627277 18483.042709644535,26870.567740233353 18540.467100471258,26882.976895373286 18596.996997715672,26946.776130241546 18681.894371013506,27089.38308232007 18705.935305982246,27116.57511066142 18727.914041484473,27148.261423084274 18819.34142182232,27239.898622011853 18833.45845876448,27247.932559821376 18847.430151422275,27370.280997834256 18880.7667126311,27477.530800215638 18928.143706479925,27568.331985894445 18983.727263884386,27651.76865357891 19107.64040251565,27789.27988269992 19146.59936998214,27821.95496012908 19222.645888026687,27918.768020407035 19287.4094370401,27994.93645295591 19393.452510462143,28087.519506457 19444.961476293276,28123.02807780003 19488.456408773432,28147.757715418673 19532.493396791047,28242.699306028982 19589.735160631244,28330.348483698413 19666.6785024266,28413.43707769757 19749.834657022264,28475.472845180746 19842.47634662222,28521.950712117687 19945.402236613212,28552.181541861937 20055.158434160054,28563.901069757732 20165.164251048933,28554.867543879984 20259.358998213313,28528.782300253137 20351.463001342257,28549.61840507455 20384.982189537724,28585.434572557773 20471.10406658682,28649.185077813658 20567.234019013355,28696.274443102273 20670.22427991999,28725.15806069583 20767.18115103105,28735.885458309174 20781.146726995707,28752.99583872661 20850.10195856879,28814.70864826985 20950.817392097902,28876.9148077422 21060.73611892457,28917.431213503558 21149.82663113787,28933.575309416367 21261.17899437342,28934.869550327858 21362.764454711112,28917.303864895104 21396.108588968986,28907.86945502108 21492.438062106725,28867.305197557638 21568.46826896898,28819.6205139948 21617.22967440891,28777.52299535167 21664.95881503122,28758.94168470832 21709.740292008966,28777.45103946919 21753.806989680044,28805.190298414527 21851.832534497953,28844.60133946172 21961.82058384898,28866.568096698 22055.51871376892,28869.612158247357 22148.514006497688,28857.701906282193 22166.93457410659,28852.26300742905 22231.608411617693,28856.928980122757 22293.467113840044,28855.63632919753 22396.66592486226,28841.436537123373 22521.382680488867,28812.957653064717 22580.836357146734,28832.887449449947 22668.444590675645,28849.087517904554 22690.197591066593,28850.379567394353 22726.283460293314,28876.004749769083 22822.09709229332,28920.86015543816 22924.318980008946,28947.818871294236 22964.645465342095,28951.63531728214 23015.062747048913,29013.14340904131 23088.118493324495,29077.223465277784 23171.02386349335,29128.844427740056 23260.189814924495,29165.71100308324 23355.910240169032,29187.757717962348 23438.519970159978,29193.97566248357 23564.01063312881,29181.74955703164 23648.36944614211,29158.21794865324 23731.952895457856,29120.607261165365 23761.41147309332,29101.46332575762 23850.547132328968,29080.92137111092 23936.611046426813,29046.519336826022 24013.154764257837,29001.216789263854 24049.411027084454,28973.54153739763 24109.651135742315,28999.624195744836 24214.982633839943,29026.61454137377 24247.60907608003,29040.54764557196 24269.34314384882,29091.288857195264 24356.106399884447,29230.803386747342 24465.436467795516,29339.416663897893 24561.656131724478,29399.940696025587 24664.072588542243,29439.856490031205 24772.059896631166,29460.006774507434 24881.885125431,29459.69502975882 24989.752138550975,29438.9337226832 25031.21749392897,29422.503939006914 25101.378879173426,29427.568115120725 25207.82827579556,29417.820564302936 25227.92598246236,29412.182174727757 25334.142362195533,29445.5249809534 25433.043176702224,29457.09617324124 25528.329607991152,29453.435265306704 25611.63052432891,29437.61446926088 25662.924240808934,29535.08407922191 25712.761310462258,29596.508244452736 25737.70431206224,29627.250792033476 25889.97793624003,29766.150831147068 26038.222698408994,29868.790234126587 26128.143624559976,29912.327597863477 26179.301608702168,29927.097974973818 26279.695478924434,29979.36284245769 26387.695311671123,30010.00850833123 26455.130690586637,30055.16678256585 26540.294576951186,30094.322888093273 26635.327311102184,30119.9909945009 26798.646518355585,30206.99068572765 26906.919854675652,30239.16365032617 26950.93208464887,30243.42274008246 27007.865974924527,30293.044426869805 27086.193728311104,30342.51702743044 27171.232950640027,30379.09646524882 27260.54191618669,30401.934503598924 27329.207624275587,30408.995643712202 27487.40541158209,30484.21752417201 27577.311482906574,30518.275075634447 27671.51496820443,30537.23626566268 27774.738828542293,30540.260172638897 28727.89237364463,30940.259406028985 29702.750276862178,31457.47526763656 30107.281285715522,31634.511642530415 30222.94358758221,31670.952382686053 30343.558954693377,31682.947237769462 31502.740498800064,31677.532820866298 31963.00477840891,31743.279106804257 32304.270245573367,31748.141020066425 32405.434236613335,31773.151317108277 32475.272893466637,31802.214903040993 32570.277374319965,31888.997423659515 32665.240494675585,31944.21348540098 32762.60456280003,31979.78582216063 32864.63712429337,31997.764991693053 32945.27902665781,31997.637493251794 33074.37591725332,32072.88901504429 33172.21446601779,32106.728261867276 33307.96398879122,32122.822655247146 33360.468519279966,32129.391168545204 33465.966624453315,32123.580032102967 33612.53774281766,32084.31207500896 36041.497054462205,32700.33147939827 36141.07041396445,32782.31172501188 36233.29354697792,32831.982296120346 36323.8278900889,32862.51480162222 36429.59600358235,32878.997573567176 36457.98882022232,32897.244979928684 36507.97793339554,32917.77483974592 36539.47103974223,32956.80298818168 36620.58421876456,33026.772152926394 36712.847547191195,33080.98597253623 36834.088564648875,33133.432930145034 36952.85756418668,33159.7752363543 37056.92174167989,33165.55380113816 37160.385900684516,33152.933333076624 37260.06178761786,33122.30425271785 37274.002605537884,33115.142148122395 37375.44534303108,33123.43812447364 37477.39518352889,33114.01900156363 37591.391997182276,33081.606743046636 37709.96584507555,33082.416780828935 37810.92215981346,33062.89634439789 39618.299017129,32544.634137203888 39691.37893890671,32525.91307884219 39784.26063590229,32484.05891521889 39868.66343085328,32426.8496818789 39942.105402622255,32355.972310526966 40002.42910608894,32273.516123028327 40052.55482541339,32172.420695037086 40080.55704749341,32075.87554524382 40092.16157983104,31972.446974593535 40084.92116255127,31858.28136774522 40058.894049875555,31755.07918863438 40010.6141155822,31650.27142289988 39950.33730676456,31562.672733136656 39875.55752678227,31487.256932861026 39784.056163582136,31424.302621340234 39332.54632848897,31037.803827897034 39255.060348613304,30981.60062362961 39169.61888087995,30938.648209492298 35759.158063244424,29549.21226036604 35555.55868276453,29315.185008795786 34704.24487768009,26829.19516551608 37522.432105271146,26189.179282364057 37617.74853748444,26161.92841865876 37712.30941243563,26121.365634373127 37774.659489022335,26082.684891481622 37853.14860660443,26015.894692441187 37873.480786515516,25994.212761244125 37941.40171437326,25906.782843697205 37993.96042128897,25809.42290711563 38032.291699511115,25690.989150958107 38045.20986456005,25567.124204490654 38039.881059582345,25480.39965858622 38024.09416536009,25402.605457080965 37990.05476696009,25307.170293339266 37943.57663576002,25223.676627766195 37893.46751888888,25157.699350677984 37764.606557893334,25022.02325077061 37684.789244044456,24963.474510567466 37596.382927671075,24919.16666647591 37488.82553574222,24886.67283085533 37382.48041417787,24875.33554390291 36985.74993695109,24901.069513706927 35015.237081911066,24169.54077983924 34914.83709499566,24142.02843165057 33951.20303277334,23967.74739604254 32474.765207920107,23553.229779635876 31822.204032026697,23277.45551802832 30277.107198320096,22456.020261355763 30238.65737275558,22429.561249578925 30140.134919422097,22385.73821277925 29440.834342142218,22210.769368042325 29402.14742189343,22188.847169003304 29280.306968488847,22142.751973794395 29171.062825555564,22112.473687260383 29069.788734035683,22103.633876777923 28949.704645431135,22114.908361272042 28889.62706605345,22133.17431370096 28350.521230817772,22133.21050341075 27886.651888666674,22180.991009409743 27362.967111137812,22185.93597027121 27306.49721574213,22144.16750393968 27208.695949680055,22096.515001403488 27103.852330693393,22067.821331041603 26995.556566497777,22059.065408955183 26887.5156645244,22070.544532806234 26783.427020257805,22101.864745744824 26686.852879386744,22151.953685666987 26494.70365755551,22310.574916645506 24506.845025306684,23934.715531150083 21781.365314586554,21610.202966905403 21244.77489666664,18452.137370808836 21683.510745911044,18205.759630637214 23807.953101395513,17012.75177444445 23879.652689377777,17021.395243859937 23971.052398960106,17019.116769962333 24060.979733075597,17002.524812783202 24147.23559483548,16972.02634782993 24241.219752986683,16920.212525373296 24284.286225662217,16885.084742712643 24307.309168097796,16877.818563626468 24381.731849697884,16841.207445687585 24474.520339937764,16777.22773637247 24506.76113922661,16749.45026012414 24614.206974320114,16726.639590744133 24659.455941431224,16707.721261932253 24648.019472524524,16763.12985142306 24642.739018551074,16852.94812167363 24651.1203447734,16942.531985626993 24673.775703066727,17032.20910283955 24713.377214604523,17124.246421388438 24767.929672275553,17208.182997519936 24835.850308862282,17281.57913846706 24915.16692767106,17342.301487273857 25003.575574213406,17388.5848283417 25098.50781983114,17419.08392362829 25197.2053271021,17432.912710531935 25299.27196731558,17430.151340285054 25394.96093527996,17410.858832812257 25486.125880346633,17375.815934875835 25557.85983832006,17333.95223616538 25612.55006722675,17330.09877413357 25667.51729495998,17338.61304784633 25749.978185413405,17337.028270551906 25979.534773502382,17402.421830131178 26033.395171013428,17411.557740935445 26099.612454142305,17419.34982678338 26196.509905946674,17416.61897142217 26290.786209022277,17428.85435704977 26392.645755475503,17425.0258591928 26489.917781928787,17404.17612699102 26533.228339795605,17386.67400194527 26651.904423848842,17406.11922428428 26761.753245608998,17401.771884783724 26825.087818551227,17386.999117829342 26859.04915629339,17392.899587835855 26960.572284613387,17392.59557834451 27061.70161439106,17375.14665278452 27153.858337591053,17342.20533327569 27239.91263974225,17293.738358967676 27297.123237573425,17300.405613983836 27326.44229634665,17313.175906785385 27439.82540176902,17350.614141367696 27538.025126711116,17367.60281220553 27631.15848194668,17369.130456591694 27695.9001856267,17362.27937525997 27791.220113093266,17339.780378418014 27881.473962124437,17301.58346755893 27902.778696275665,17287.966095228767 28003.278589182184,17270.538925984496 28045.739800488926,17256.325015436596 28169.155448062113,17258.503892460692 28261.578393057804,17241.309523791162 28395.756216915557,17188.045971561194 28476.505598320044,17135.082127840462 28547.51283487107,17069.484629482584 28606.848255457706,16993.03824996794 28647.45727376896,16917.893761147832 28697.196476329,16905.176082646096 28780.70099117339,16866.507612368412 28856.244775280007,16859.935776350758 28894.187789111165,16849.8220914985 29017.2358525421,16847.47442275597 29106.77637862228,16828.368795487302 29192.25716795551,16795.428381525533 29269.74227401777,16750.718522619078 29348.86286736885,16686.007420137612 29385.506812044536,16643.484030501306 29489.425062711118,16618.30477235696 29583.23940980446,16578.735857722437 29642.047338408884,16581.334217598516 29741.950416808948,16568.32400302842 29838.152021928923,16538.2415079466 29940.056132862228,16484.24180999337 29994.259647742147,16461.389963237423 30083.859593128902,16402.283539123222 30122.270097093424,16365.268352239596 30197.177162551205,16359.2043159116 30295.585437609,16334.22538766297 30391.609949893318,16295.000337401143 30481.71845464001,16241.200680070993 30621.235860506655,16116.501057867164 30680.900708720088,16046.228368039097 30693.099725395557,16026.197977930278 30772.97325456899,15977.586978729785 30838.771981111146,15921.283471459727 30921.243648595526,15877.987794350105 31030.188947368995,15809.24295086236 31101.71901556442,15748.045119969727 31130.850204471033,15718.753159945452 31191.773052613367,15646.747128538991 31240.445329093374,15565.84735104497 31256.55058263999,15531.688371085882 31313.817104524467,15506.791517701087 31394.14734679996,15457.934142027021 31465.67100703111,15396.76302223638 31538.015177982277,15316.496875875135 31601.43829734216,15216.816738792433 31616.716340933344,15222.118520294753 31728.028217484476,15238.060853902454 31783.489149751258,15254.985259661422 31859.766645786818,15265.620994845493 31955.6498915822,15273.601134667726 32074.91346946673,15262.225831461226 32162.09935988451,15239.402562724514 32260.934347119997,15194.914793306583 32349.63368223107,15139.017162065109 32440.23414388462,15104.19227201675 32510.89535035554,15063.091738101299 32626.978247706662,15019.104241937835 32715.209218871198,14972.297331141512 32794.24592614232,14911.069428973802 32839.54237044451,14864.447569082578 32860.54855170671,14862.37267383674 32969.81628759997,14829.132548140333 33070.5768681512,14775.140973656991 33106.21884020441,14747.325467465416 35210.914761982276,13159.152032070066 38334.50936152006,13768.470431951544 39267.36888322665,13949.373804993316 39401.7299166132,15168.046997570986 39449.57410932437,15330.204202792462 39473.165030426695,15378.547162134055 39517.8244648088,15447.434192609478 39578.65410619555,15518.721627339692 39647.094952986576,15577.266925476579 39735.47010335117,15630.78412847998 39830.40933947556,15667.42813443506 39872.15052859543,15675.593842854578 39889.55193858675,15692.663630394003 39903.73509407102,15781.10431051915 39920.383276968845,15841.186410148832 39974.23406253336,15972.06247666091 40005.760956328944,16028.355774137162 40093.41404560895,16147.027384355752 40178.36035245343,16231.79791875949 40202.42837563553,16248.741267912294 40244.65948276443,16315.301913176634 40310.52491039119,16388.453936774255 40387.61359647114,16449.494667181018 40473.75586249784,16496.704891476053 40532.979143706616,16519.655120339332 40568.12449851562,16545.37422118275 40591.62308667565,16642.221717384848 40632.20822075568,16735.511456771957 40688.161401199875,16820.36733244857 40757.80985801772,16894.247082693473 40832.95518324431,16950.371438534086 41179.26808749337,17689.211917942477 41253.79533542227,17808.59690650631 42113.65299600887,18875.79161551743 42123.00833282666,18917.951509864622 42163.04820738663,19014.97546471606 42219.5684926844,19103.305849560973 42226.42647099553,19110.694028077385 42977.04727042676,18606.86373122313 43267.50923039112,18606.86373122313 43935.81477492442,18376.22838410255 44275.630877040094,17822.205942124332 44264.30363480013,17504.55448065276 44666.21495128004,17196.326395706943 44652.637348435586,17113.690417940466 44635.28545453341,17009.585260042426 44603.42767675547,16920.106727281905 44555.791451617726,16833.15668204063 44513.99113446241,16777.197260020504 44454.36298640899,16715.876559272612 44386.511672346736,16663.937281449296 44311.87927554676,16622.482826890162 44286.691897484474,16613.392444939323 44257.36555693345,16532.497916380147 44206.31825581333,16443.684020716784 44140.723127777805,16365.149409128557 44101.07413904893,16328.415465453843 44017.642733253306,16269.616415306664 43881.6459213068,16201.869285760069 43824.11346889776,16184.82743297689 43769.26071071124,16121.235479121067 43738.60821279115,16092.761794929946 43690.5709073334,16056.151099960873 43642.01863455109,16027.166305822524 43621.9529677066,16002.553504064068 43532.87381506676,15929.111899572046 43449.05006708449,15881.077019411925 43353.4674130755,15840.771419022203 43272.66065126227,15764.975691245723 43241.05045392888,15744.363718752254 42470.46185474668,13144.312699975882 42527.120493822265,13148.869053803122 42629.0010117956,13138.994043611194 42727.59482655127,13111.344815410645 42819.866310568876,13066.775074111967 42930.375152666704,12984.037294410839 42998.7717262489,12919.899031974812 43030.66999071103,12878.559473544097 43059.464761484414,12849.03585392327 43152.27626214223,12696.058551368857 43186.59528080886,12609.788346454006 43206.962704524514,12519.152382658067 43212.86997392902,12426.421258337185 43205.42770576908,12227.49195490146 43181.23647490668,12129.3333341252 43140.672021075734,12036.813957745413 43074.26308155549,11931.261706387479 43063.72722292435,11895.109511975752 43003.51565883553,11784.377766550257 42973.773091866635,11741.405730017665 42920.36154313781,11675.093013976206 42793.90968550218,11552.405845539848 42761.13469499559,11527.664042532997 42682.46557186672,11477.619753884588 42530.89158089785,11413.780543682602 42440.36801481771,11385.89061863636 42346.552793911076,11373.113530128234 42170.087356328964,11378.346009508794 42051.61807476438,11401.997501298873 41964.53238160908,11437.250409358152 40857.27719483571,7701.249244683859 40818.467649448896,7603.078638622974 40762.78826384898,7513.515980053664 40692.04783163557,7435.468141947611 40608.54302552005,7371.469043516874 40147.12239959999,7079.836907034478 39926.6208478132,6940.473180431378 39844.711916115484,6897.403171422862 39757.06698242668,6867.917767062638 39665.892134142225,6852.759714165208 39573.48229634657,6852.310870742047 39482.163851404446,6866.582896666921 38334.50936152006,7140.786464995792 36549.54581620451,7567.259384307399 34822.216959457844,6018.190254147252 34748.726345413364,5962.097317613516 34667.36325577786,5918.387523709302 34580.1674621423,5888.155549023155 32747.272925324505,5411.79237532636 28978.06687860447,2701.847217532195 28894.72168905777,2651.9179074223794 28804.294824986602,2616.6297512349847 28709.302577520022,2596.9632413531363 28612.387358177803,2593.4642531907593 26946.553406035528,2673.1850625043444 26278.328543600044,2170.5071860877506 26243.144158462295,2111.601908185723 26163.56626946677,2012.4064236336562 26109.160612435546,1963.8614772665023 26045.827787120128,1922.127696653799 25947.805446284474,1844.5343732069887 25865.702236755635,1799.1074178368726 25808.048033022205,1756.7711495979165 25746.316616275464,1718.7511399592913 25635.509512559976,1672.6877431811008 25504.34954868455,1646.9819044632313 25433.524647848913,1632.8484893807617 25331.154794408823,1630.1595481864351 25229.90225695097,1645.5975197796652 25132.90897695115,1678.6855989088945 20852.14901193767,3576.4387101782195 20815.790512951207,3586.980260893324 20526.27693172451,3631.4677922697447 20034.39459046221,3743.1421469475317 19862.36608571571,3792.6496119218355 19167.375447066617,3570.95171504686 19113.699132897775,3546.0544247564103 19024.01384507562,3520.908385951392 18931.4933242579,3510.4788652062125 18652.564243937843,3498.4469123609306 18247.307970017777,3447.041931563843 18059.890738657676,3447.042222968972 17710.73095056892,3366.974579242844 17580.213822035585,3352.33752976518 16975.221005111234,3353.592881822464 14179.334076329018,519.0300040978182 14096.129279457848,449.1019275552535 14001.48306207126,395.9310822126863 13236.863481768873,56.1603571815358 13146.686528311111,24.70677186557441 13052.615280097816,8.525887957628584 12957.18379579566,8.052549999993062 12862.9619604178,23.298699377541197 12772.487036613282,53.85279185263789 10612.458633128903,987.6979208836274 10560.435282515595,968.58735465465 10472.779571795603,944.0195062192797 10382.39202932443,933.5255267829343 10291.48718936008,937.3608502085262 10202.292693359894,955.4305259904067 7817.087545484537,1636.8647144946444 6210.319296880043,2083.8951688816014 6183.975863777916,2096.1557525824464 6047.03387707565,2181.7683027549356 6039.099943279987,2189.0866393905308 5985.834612648934,2245.3459238426003 3928.109361520037,4211.210870756739 3702.0302592266817,4404.119131091953 2026.8549512799364,5832.286172433145 1622.591038035578,5630.702927582053 1613.0775410045171,5626.067353534367 1545.500313057797,5598.539738784282 1259.372467226698,5500.929943727184 1171.310142035596,5476.475983335491 753.2364828712307,5395.243162108905 528.5767447022954,5382.474249442661 507.1939498933498,5383.582053028134 469.264917075634,5941.626437444909 469.264917075634,13828.511346082174 469.264917075634,16837.1460129474 436.15438224899117,16831.386352045898 428.02937460434623,16832.292763089383 400.38891124457587,16848.27710174813 394.82621556450613,16850.152072442317 357.03641033777967,16841.94623551049 352.7008398489561,16846.076256020315 351.0440897688968,16861.93589733503 354.1586517599644,16869.88746672854 378.23191782226786,16893.693777065346 380.24314484454226,16900.23410872495 375.41124838218093,16912.81371052246 371.84201218676753,16918.01157491663 352.3108278310392,16928.980311550986 353.7482507645618,16932.51153080465 404.2867012533825,16957.375663295592 402.41441055119503,16964.67299877244 359.97096678230446,16984.52800296058 352.8176395643968,16986.330751611007 312.5654283645563,16983.250752014195 305.9538654134376,16983.961182420462 299.65279746684246,17007.29273591921 300.20446495106444,17013.97336379226 314.43014601781033,17033.79502090087 324.5229812889593,17035.195999626274 352.71423832012806,17015.9827749205 364.52236916450784,17013.43906487417 385.93895142222755,17013.59879766297 401.154954266618,17014.476595585787 413.60242520004977,17018.032634960342 417.329530337709,17027.039566751657 417.7140082044061,17036.272526636574 411.7939228711184,17044.267515100393 407.53845193772577,17047.964603516477 371.4578255910892,17055.55342338115 362.2667656800477,17059.964230099897 308.9417244711658,17098.206519109517 300.45787081774324,17101.189444112795 298.5331513156416,17108.18206269943 300.0789271022659,17112.59390395155 335.21059216884896,17116.186228645238 342.31061677332036,17119.761561689636 338.0726221067598,17155.803495958186 329.9260603999719,17166.991173071525 319.61331544001587,17173.52771374173 313.4887577868067,17174.421140902297 267.8497786577791,17128.104918094323 263.02399888890795,17123.393473371834 255.41337602667045,17118.81511468484 248.7173444533255,17117.10043210708 232.5284960977733,17123.024155825115 228.5188579823589,17130.47031868351 228.4900221423013,17167.46426523113 234.70137858670205,17174.13593591386 290.31027657783125,17193.908421498345 291.4197282399982,17197.225992158026 285.25788788462523,17216.553230877587 281.8826382489642,17221.16618615875 254.90452539548278,17232.042757206917 250.6135193867376,17233.514859808463 245.93570534221362,17251.011359579716 250.12331010657363,17261.730148919713 260.34197449777275,17268.7302643235 270.84200678230263,17270.542736781266 311.5853010757128,17262.06989412554 314.71763060451485,17263.109649782273 321.250550355413,17270.253409394034 322.06698328000493,17275.75093255841 318.3526940711308,17295.84547096092 320.8797622312559,17301.876318805007 350.5034905866487,17311.709881063405 354.97595849772915,17315.80572781674 350.409701289027,17327.016891198087 341.04416998219676,17331.19339671111 287.6524276888231,17337.4023317798 270.7965684890514,17336.821305681224 249.46037705778144,17348.936714590032 241.35401076439302,17359.359247107728 238.4616886310978,17393.56477372101 242.52404681767803,17410.974047089898 262.3884453244973,17447.22155235635 265.32183668448124,17466.5819684687 264.72997378662694,17477.827116966917 241.43556667561643,17507.230087763484 243.31077008892316,17515.792591145 286.92832770675886,17527.222533845896 286.32860048883595,17536.21937039934 272.81070822221227,17546.980112384743 262.18572063103784,17546.730311688007 222.74003913777415,17526.53676408212 214.7597932354547,17524.826592319383 157.72716205345932,17536.1322926243 151.85834043554496,17538.18639128664 144.97822551999707,17543.91976360217 139.7909783021314,17554.87084583423 142.60727867565583,17571.95863883008 149.95313609787263,17575.349188506225 167.7550438666949,17565.523828815058 179.515697519877,17557.87961516701 204.43364980444312,17557.320491415885 209.23321517335717,17563.31957500367 212.20185033767484,17572.818883046362 210.43732994655147,17586.347418937687 201.04238025774248,17613.349158431374 192.83727305789944,17625.65685427931 150.4040237776935,17664.970871085272 143.82187920901924,17667.67931998658 137.23623938672245,17665.92206767664 137.0451655377401,17631.1949995466 131.4047004712047,17628.808856225543 92.30359270237386,17664.285916096036 83.49963209789712,17668.3941847925 58.95363302226178,17677.160836893338 47.78921133338008,17680.098899925797 8.052550000022165,17682.251723943366" stroke="#009edd" stroke-width="6.330178487832724px" fill="none" stroke-linejoin="round" vector-effect="non-scaling-stroke"></polygon><polygon points="42417.69022864895,30221.073424659407 42429.18961211573,30342.317396823753 42431.45599263103,30353.35795676647 42474.47673574218,30481.20063380964 42479.34096329764,30491.35349460304 42547.69675892452,30600.273177282623 42554.24132952001,30608.447713910224 42653.22661264893,30705.987850143894 42661.73813705775,30712.480784121406 42772.57495042682,30778.51085288552 42782.419913982274,30782.903142871422 42930.397871813504,30827.95507295648 42940.70304372441,30830.14243621935 43056.034170337836,30842.257323016616 43066.62187522673,30842.266523734754 43218.269849057775,30827.622071867896 43229.02357848,30825.4735946492 43292.5521379821,30808.411508410674 43302.9391570756,30804.87976456128 43435.73868603574,30751.104057379504 43441.817222853424,30748.231364696025 43530.17751839117,30728.67475191885 43540.80570996448,30725.65909598602 43662.88646203559,30681.191103276884 43672.31782061339,30677.064018695586 43840.250179724535,30589.97722708396 43849.68095575995,30584.245076044317 43989.727309964364,30481.346597781725 43998.293884613435,30474.06326250054 44046.67984159116,30427.062429132377 44054.21152998239,30418.70239353922 44102.36505261343,30356.39013044149 44108.560389146674,30346.983662832616 44192.402778480086,30268.37708782658 44199.69911981339,30260.265030901035 44282.29137353797,30147.600249957846 44287.45561033778,30138.898551756138 44316.30950914661,30083.54176904654 44320.63138989336,30073.915795637033 44349.35072144889,29995.417334796133 44352.05400863115,29986.157316221826 44366.3230890932,29924.33736825685 44368.06256016879,29913.901041449833 44375.350163368974,29829.15723975745 44375.43404944893,29818.339894531848 44363.50416728004,29700.15742652022 44361.26137972437,29689.58143110978 44323.39613528014,29574.344324869075 44318.743953093304,29564.11714993787 44257.54789264896,29458.043554851174 44251.38750864891,29449.4975980889 44156.70983398217,29347.304394508683 44148.44093840895,29340.36747833187 44042.15290598234,29270.323348769074 44032.94873887114,29265.620907073462 43910.59797847993,29218.862083892192 43899.80871398223,29215.99995096118 43781.29690683563,29198.065089803393 43770.59502367105,29197.626639751223 43642.71826776001,29207.538624796987 43632.21211878222,29209.621287004527 43568.20878736896,29226.354154062195 43557.73759092449,29229.838466085464 43476.81898100441,29264.344568084663 43467.143245964544,29269.381199360214 43326.09841439128,29353.95039618874 43319.54161040892,29358.157876655896 43210.99622687115,29437.02714726291 43202.805683226674,29443.86967956074 43074.7428050756,29515.863563524414 43067.92385709344,29520.10143047161 42892.15630509332,29587.4325392232 42882.189007671084,29592.586255356873 42759.33667842671,29658.61030764549 42750.45931750233,29663.96035240413 42670.17859131552,29720.40629913946 42661.77862374217,29727.321823978185 42565.4351695911,29823.77656582053 42558.70680692454,29831.938008426427 42488.787176702404,29938.429567741783 42484.28121261322,29947.190977845545 42437.45297353796,30070.23280080626 42434.808814391145,30080.72789357949 42417.69022864895,30221.073424659407" stroke="#009edd" stroke-width="5.104054039832991px" fill="none" stroke-linejoin="round" vector-effect="non-scaling-stroke"></polygon><polygon points="46242.18827039108,12215.285764647851 46252.55752194673,12363.616032699327 46254.5203979644,12374.361064525176 46297.29676461348,12516.699264661962 46300.46288159117,12525.275544506818 46359.651501537766,12646.07617633391 46365.08370776009,12654.814682740922 46447.96257225785,12760.859160628723 46455.253088168916,12768.323226998182 46547.265632168856,12844.757377135771 46555.39442633779,12850.187190897734 46674.9087886489,12911.391769242211 46682.738156115636,12914.321079535614 46809.846538835554,12949.909384253173 46818.563700648956,12951.359887736704 46983.55742552015,12961.978916543041 46994.456499226624,12962.444390338234 47145.2364851468,12958.768553875707 47156.030409982195,12957.532361015416 47274.84863433777,12930.211766658787 47282.95820461342,12927.417218261253 47407.915841448936,12871.535874523775 47417.39671611553,12866.048111725802 47554.22481581336,12769.050895338267 47560.77841581334,12763.227217432315 47641.89392500452,12675.725632192887 47648.526168204495,12666.806074867462 47716.75642598234,12550.093442840007 47721.11966722668,12540.03207136711 47756.46891181334,12424.861531444796 47758.50198416901,12414.075597470131 47769.41008728009,12263.148202339391 47769.41591270233,12252.346188112831 47758.76092418656,12145.529837881884 47756.733385982225,12135.450043235178 47713.02815575991,11994.17625558257 47709.50697929785,11985.642859930726 47652.69454907556,11874.957112497505 47646.93874064891,11865.881262016104 47559.973925004364,11755.704221899941 47552.86137574224,11748.504558273678 47437.255871742265,11646.58021022295 47428.86405976012,11640.446539600234 47299.0713224801,11565.281888453843 47290.44969759113,11560.993274213135 47152.995365004404,11507.45791009962 47142.71349478222,11504.617999422335 46999.2950949244,11483.324633514363 46989.42653840885,11483.005585249019 46835.565777946846,11489.07685988638 46824.84700105782,11490.22216483808 46718.40430367121,11512.75178252437 46709.85549655999,11515.465777422854 46593.3123908533,11567.181059546157 46583.9861811467,11572.688665349124 46480.98048287106,11651.693564010988 46473.2303411467,11659.284725872538 46398.61775078217,11750.325291512505 46392.88873929775,11759.106092786387 46318.48673794663,11898.893551475456 46314.37107714673,11908.437988338846 46260.14193040889,12074.503261146456 46257.72991433786,12084.454454613937 46242.18827039108,12215.285764647851" stroke="#009edd" stroke-width="5.735624383095378px" fill="none" stroke-linejoin="round" vector-effect="non-scaling-stroke"></polygon><polygon points="53225.26111576008,11691.969110851263 53236.97341840889,11820.575075314351 53239.06736642681,11831.191295440163 53278.85267003556,11956.100927227031 53283.40756767127,11966.121389576787 53345.82463661325,12071.232383139984 53352.3549349244,12079.901156536973 53450.76320998231,12180.330342202185 53459.282889982336,12187.020050148567 53567.478748186724,12253.79880692318 53575.450547226705,12257.776123510179 53734.65700639121,12319.257764552924 53743.62495263119,12322.163684612577 53841.70496514661,12349.872729905503 53852.47617083555,12352.125714302383 53963.747560702264,12364.314322094055 53972.130343280034,12364.414286523097 54042.698925537756,12386.248742299824 54052.98399974231,12388.62745554719 54156.37388461328,12403.826968251582 54158.95163394674,12403.958503002272 54287.60608372453,12397.043294484814 54392.60058114678,12369.598998181842 54402.378261075704,12365.939767713164 54572.0113522046,12283.76624553962 54581.373388257925,12278.589647682704 54685.21707351995,12205.696052563231 54692.16942367121,12199.649276017299 54776.34124063118,12116.946828093933 54783.424662782345,12108.469032738329 54849.61602278217,12008.90199914595 54854.605788186775,11999.21740496924 54897.1549633689,11888.099019238347 54899.84339572454,11877.902725176624 54917.98317798227,11742.295200714114 54918.018713057856,11722.13873048636 54904.29110559123,11602.432906380476 54901.95744144893,11592.191840976331 54842.83523131558,11397.846529492497 54835.96443707554,11380.363336761453 54760.60124105774,11237.542693110387 54755.43700425781,11229.421344849019 54667.14923522668,11119.178205996257 54660.03668596444,11111.85186060096 54547.7193415378,11016.942256961804 54544.59691522678,11014.464907798538 54449.66612596437,10913.433427304582 54442.87397492456,10907.653512029297 54318.07304194663,10821.196083998395 54308.559836186585,10816.19246256174 54249.708508186624,10789.960653576505 54239.63373172446,10786.230843550147 54158.0277219821,10762.432639731414 54147.466814035666,10760.154474347102 53933.548280631076,10736.470744878956 53922.93465261336,10736.184224940924 53796.196184204426,10747.242577406316 53785.98130633787,10749.345487179904 53652.58496287116,10794.83599484965 53643.019910853356,10799.444972057681 53532.188049093354,10870.499775133881 53525.36997492437,10876.05497891255 53425.37660248007,10980.210239001986 53419.14893485338,10988.535135956801 53364.8964864267,11077.931317112612 53361.42803003546,11084.947907395399 53319.27207085339,11193.775703878811 53316.301105520106,11204.242728905258 53237.506735813455,11575.789000841178 53235.79056642682,11584.551249617216 53225.26111576008,11691.969110851263" stroke="#009edd" stroke-width="5.184612682238777px" fill="none" stroke-linejoin="round" vector-effect="non-scaling-stroke"></polygon></svg>