<svg width="292.30112597346306" height="317.401694399945" xmlns="http://www.w3.org/2000/svg"><polygon points="5,130.92854394461028 15.364008675678633,141.3300564045785 17.852337777847424,143.8612487030914 25.758018275606446,141.44999553659 26.602121955598705,141.580189613509 43.21156579570379,151.54337534017395 43.82323512888979,151.98209114780184 46.55244544008747,165.21092435647734 46.181366044445895,166.3009569363203 67.27929770678747,181.87512824859004 68.15078087116126,182.5643161892658 64.55591281782836,189.74672101065516 65.905954417889,191.78745843982324 76.99318926234264,192.1792885629693 77.77729109337088,192.70217341033276 81.76654023118317,202.517289786716 81.97450780449435,202.725899171317 78.95664782228414,205.89557859138586 76.71852060453966,207.87019763386343 67.87523840006907,199.49287728016498 67.4630897778552,199.67652738792822 38.167332693352364,239.20142474432942 37.81576846225653,239.64709689409938 16.591133866691962,257.24507868790533 13.927168284426443,262.59933180647204 40.00030179566238,287.1866744441213 41.23849528899882,288.6744464468211 55.37796010682359,288.7141024066368 56.837228373391554,288.3362565675052 76.47268778679427,312.3299649137771 77.7146678045392,312.401694399945 80.40484778676182,311.16714203951415 80.75000405334868,311.0018513938412 77.84894378681201,304.8450207415153 78.10380600893404,303.0739923225483 92.6187192889629,296.88263252878096 94.20876828453038,296.4865328553715 102.620677973493,300.2184853552608 103.51167630229611,300.16368278471055 104.61355491564609,291.57510513818124 105.27590542228427,290.3627146484214 114.59221191122197,282.6176946258056 115.45670456893276,280.45615187846124 103.91858204454184,252.30291860201396 103.75022734235972,251.07159493444487 104.9572548266733,243.70668303227285 105.1427945245523,243.4321541490499 113.93626936897635,238.6131361272419 113.63829902233556,237.7458532275632 96.25232640001923,228.60708684450947 95.82503168005496,227.39568718371447 99.54689393786248,222.38778484333307 102.24639459559694,221.17991668335162 124.04658090672456,220.03756148263346 125.95382414234336,219.42961037892383 116.84694158227649,205.04733387485612 114.7055163733894,202.71832148346584 111.34686919115484,182.9735483712284 111.57784718228504,182.0485399061581 163.36934599117376,203.63744854694232 167.85142584890127,204.31141319242306 185.34866403555498,177.46088634617627 188.43293383112177,172.7295875068521 178.53088113781996,164.83643339184346 175.48797184007708,162.4436886026524 178.83089038229082,149.1620784731349 180.14452309336048,143.38015943253413 207.75789824011736,152.4052013993496 208.0538296889281,152.2946310432162 209.65349063114263,151.15147298097145 204.96111303113867,143.71768000384327 222.48077909334097,122.06716320058331 222.5527230578009,122.00206040835474 218.52706503123045,116.40626979229273 221.34249159123283,114.13785838760668 250.5692174222786,143.73417703306768 250.98515256890096,144.1492775507504 257.96488220454194,132.9368303004303 261.65674353786744,129.55430192803033 265.9209526045015,133.00683462357847 267.4850784712471,133.72783326928038 275.40328362665605,127.71498017478734 277.04547015123535,128.0418231980875 275.65319424006157,117.85372435266618 276.0204871111782,116.30772124644136 284.86085660452954,101.26628856093157 287.30112597346306,98.16824132885085 282.14591857790947,89.53031494677998 279.3619492978323,87.72366158419754 266.8821472711861,91.12333297566511 265.3649160533678,91.39938952063676 245.37119317345787,73.83231709961547 244.61534464010037,73.6467780789826 206.51329678227194,115.01855951373 205.16558535117656,115.52869567030575 187.36192995565943,106.7875456113834 187.25153820449486,106.75097849685699 178.93254400009755,90.14798987749964 178.2599990045419,88.55228893453022 167.34810936893336,98.69893050106475 165.67446556454524,99.87179363449104 159.8880736711435,87.20186558295973 158.51414784009103,82.83121808402939 140.24999281787314,98.11338850960601 138.7359655823093,98.7573508276837 137.11300295114052,82.4762106644921 137.22543360001873,82.19880497141276 152.86057557340246,73.0237047917908 153.27709326229524,71.2343105818727 162.16668757342268,74.08654098492116 163.21264213346876,74.31891027966049 167.75734528014436,65.74650652112905 170.77840924449265,59.34865343675483 170.25382997340057,47.04082764178747 171.57241429341957,45.3292837755871 166.24419185786974,42.61808543844381 160.37333134224173,49.193062917212956 151.2492637867108,33.29457376210485 150.8242992355954,32.87123476964189 134.0878611911321,38.478068498312496 133.3500714667607,38.94065155973658 119.54877240897622,35.34211336192675 117.21685589337721,35.22122429742012 127.43988935113885,34.093517948058434 128.30642090679612,33.63270906422986 122.11283200001344,29.259660623851232 121.55504782230128,28.824269228382036 102.03289287118241,32.17934811115265 101.80249742232263,31.5610645780107 115.44563626672607,17.73577380029019 115.6364188445732,17.132617878785823 136.33851306675933,11.327157702879049 138.00371000892483,12.885496890288778 140.61932458670344,6.050672318378929 140.4573778490303,5 131.4981697422918,12.1096746645635 130.8387319467729,12.51610056462232 116.46974549337756,11.324927034787834 114.98018503119238,11.324480901123025 99.99370382225607,26.30959942645859 98.96755569789093,27.74069407978095 102.40338972455356,19.324849765049294 100.86402190232184,17.46051719773095 100.81712725339457,23.810068608261645 100.2255556267919,24.63224473403534 95.32288028451148,23.507606950064655 94.59819776006043,23.75519727630308 96.0498929778114,31.672141617746092 96.2698026667349,32.40507023851387 89.99698801781051,36.34669446060434 89.29385955561884,36.49747044686228 95.63046257791575,49.18324966420187 95.56783928896766,49.379068585229106 89.53823601780459,48.51862378261285 87.99479040014558,48.48561546514975 87.82206663116813,58.82232986937743 87.72856860456523,60.39683645765763 84.85401400888804,60.78890022973064 83.16755427559838,59.84955173212802 79.09238016000018,70.62416486738948 78.6942125512287,71.08578842540737 61.43465159111656,72.55048904230352 61.147167004528455,72.75520738470368 61.1410503112711,90.62874938343884 61.087456426699646,91.4515681824414 66.47102037339937,95.15532967139734 66.55228501337115,95.20527762488928 57.7963841422461,89.00986115226988 57.35539968009107,87.46499363548355 46.57632967119571,100.91487845487427 45.7529062400572,102.2928666510852 61.42678727128077,115.04308531747665 61.82320725347381,115.70305137615651 53.861311431159265,130.84783756069373 52.94875903998036,132.67375653062481 25.22207943117246,118.96985426481115 24.24865137785673,118.76696251169778 15.010114275617525,137.80675954942126 15.043027911218815,137.99625745980302 5,130.92854394461028" stroke="red" stroke-width="3.4920657009737877" fill="none" stroke-linejoin="round" vector-effect="non-scaling-stroke"></polygon><polygon points="5,130.92854394461028 15.364008675678633,141.3300564045785 17.852337777847424,143.8612487030914 25.758018275606446,141.44999553659 26.602121955598705,141.580189613509 43.21156579570379,151.54337534017395 43.82323512888979,151.98209114780184 46.55244544008747,165.21092435647734 46.181366044445895,166.3009569363203 67.27929770678747,181.87512824859004 68.15078087116126,182.5643161892658 64.55591281782836,189.74672101065516 65.905954417889,191.78745843982324 75.95626410667319,191.79860265087336 76.99318926234264,192.1792885629693 78.61061774229165,200.1927081819158 78.839848106727,201.47646864689887 91.25906574225519,207.2813796751434 93.67981994675938,208.9484302281635 112.02931740449276,210.27047258696984 116.49741624901071,212.36807308957214 119.95247416896746,222.05127611319767 120.0060680534225,222.09138976363465 125.92586211569142,219.18491404363886 125.57342407118995,215.92895608383697 116.84694158227649,205.04733387485612 114.7055163733894,202.71832148346584 111.34686919115484,182.9735483712284 111.57784718228504,182.0485399061581 163.36934599117376,203.63744854694232 167.85142584890127,204.31141319242306 185.34866403555498,177.46088634617627 188.43293383112177,172.7295875068521 178.53088113781996,164.83643339184346 175.48797184007708,162.4436886026524 176.4456712534884,158.5324066579342 177.4523042134242,154.58182106964523 161.880950613413,136.49498366517946 161.55938730679918,135.63220363209257 170.3816979911644,140.59213949076366 171.8680544712115,142.729193594947 180.37462727120146,130.1861332768458 181.86069248011336,127.76135356642772 175.43466922664084,122.69812419626396 172.41739178681746,121.65558837621938 179.9519928889349,103.9045221732813 187.25153820449486,106.75097849685699 178.93254400009755,90.14798987749964 178.2599990045419,88.55228893453022 167.34810936893336,98.69893050106475 165.67446556454524,99.87179363449104 159.8880736711435,87.20186558295973 158.51414784009103,82.83121808402939 137.18873344012536,100.22409731103107 135.19265251560137,100.92959487915505 116.90548707568087,93.46333605889231 114.74017763568554,94.84939820901491 109.56487253331579,99.44992038968485 106.29739320895169,102.290190954227 109.86546432005707,107.41453689913033 108.126867057872,110.71134011959657 100.15215530677233,109.55458832270233 100.00331576890312,110.10888456355315 109.56895032897592,120.78071062761592 110.0676064711297,121.6765461594332 105.84330154664349,128.42306512990035 105.228428231203,128.85424673062516 57.7963841422461,89.00986115226988 57.35539968009107,87.46499363548355 46.57632967119571,100.91487845487427 45.7529062400572,102.2928666510852 61.42678727128077,115.04308531747665 61.82320725347381,115.70305137615651 53.861311431159265,130.84783756069373 52.94875903998036,132.67375653062481 25.22207943117246,118.96985426481115 24.24865137785673,118.76696251169778 15.010114275617525,137.80675954942126 15.043027911218815,137.99625745980302 5,130.92854394461028" stroke="red" stroke-width="3.669248995651084" fill="none" stroke-linejoin="round" vector-effect="non-scaling-stroke"></polygon><polygon points="61.81738183123525,144.84527140145656 61.81738183123525,144.84527140145656" stroke="red" stroke-width="3.0425587726325087" fill="none" stroke-linejoin="round" vector-effect="non-scaling-stroke"></polygon></svg>