<svg width="2211.4736611555563" height="3555.116296752123" xmlns="http://www.w3.org/2000/svg"><polygon points="5,2917.696800238453 9.145370453305077,2919.5094125035685 114.8249375289306,2965.718083304586 121.06367345777107,2968.4656299450435 243.98037361778552,3023.003853185044 249.2057773511042,3025.296388606541 254.40380159998313,3027.5516136508086 259.57502890663454,3029.7689317929326 264.7188767288462,3031.948940214992 269.8362188799656,3034.0910423843306 274.92618154664524,3036.1958354687085 279.98905599996215,3038.262722927553 285.02513351110974,3040.292301914131 290.0341228088946,3042.2839758801274 295.01602389331674,3044.238043542602 299.97083676443435,3046.154803610465 304.89856142224744,3048.033659523062 309.7994891377748,3049.874909978709 314.6730373688624,3051.6788536671665 317.83303765329765,3052.830152483366 319.52474026667187,3053.451757631905 324.3583843555534,3055.199590436707 329.16494023107225,3056.909520332818 333.94382535107434,3058.5815475739073 338.6959135288489,3060.2156724079396 343.42062222218374,3061.811895077117 348.11795143107884,3063.3702158182277 352.7881924266694,3064.8906348622986 357.43105393776204,3066.3731524347095 362.04682723555015,3067.818067167769 366.63522104889853,3069.224782450008 371.19623537780717,3070.593596903025 375.7304527644301,3071.924510729732 380.23699939553626,3073.217524127336 384.7164578133379,3074.4726372875157 389.16882801777683,3075.6898503961856 393.593818737776,3076.8691636337317 397.99142997333547,3078.0108755834517 402.3619529955322,3079.1143895969144 406.7053878044244,3080.1800042466493 411.02144312887685,3081.2077196905157 415.3101189688896,3082.197536080668 419.5717065955396,3083.14975197037 423.80620600888506,3084.0637706871494 424.07038890663534,3084.118677424907 428.01886008889414,3084.9476493254188 432.2044259555405,3085.793927851366 436.3626123377471,3086.6023079841398 440.4937105066492,3087.3724914384657 444.5974291911116,3088.1047767339624 448.673768391076,3088.799163979129 452.7227281066589,3089.4553548726253 456.74430833774386,3090.073647916259 460.7385090843891,3090.653744797979 464.7056216177298,3091.195944007777 468.64506339555373,3091.699947222718 472.55741695995675,3092.1660529209767 476.44239103997825,3092.5942611716455 480.29998563556,3092.984273635433 484.13049201777903,3093.3360903704306 487.9333276444231,3093.6500098317047 491.7090750577627,3093.9260320656467 495.4571517155273,3094.1641571131768 499.1781401599874,3094.3637882051407 502.87174912000773,3094.525820577983 505.60707612440456,3094.618325232179 506.54526037327014,3094.6595047198352 509.28262627555523,3094.7517109559267 510.21848035551375,3094.793188838463 512.9578851555125,3094.885395058547 513.8917003377574,3094.9265745318844 516.6334353066632,3095.0190791378263 517.565211591078,3095.060258603946 520.3089854577556,3095.1527631938225 521.2384315733216,3095.1939426528406 523.9845356089063,3095.286148824729 524.9119428266422,3095.327626678394 527.6600857599988,3095.4198328342754 528.5851628088858,3095.461310680723 531.3353446400142,3095.553516820539 532.2583827910712,3095.5949946597684 535.0108947910485,3095.686902381887 535.93189404445,3095.728678615531 538.6864449421992,3095.8205863216426 539.6051140266354,3095.862064146495 542.3619950932916,3095.954270238173 543.278334008879,3095.9957480557496 546.0375452444423,3096.087655729847 546.9518452622578,3096.1294319417793 549.7130953955348,3096.221339599928 550.6250652444432,3096.263115804526 553.3886455466854,3096.3550234466675 554.2985764977639,3096.3967996439314 557.0639044266427,3096.488408868725 557.9717964800075,3096.53048346017 560.7394545777934,3096.622092669015 561.6453077333281,3096.6641672530677 564.4150047288276,3096.7557764459634 565.3185277155135,3096.7978510227986 568.0905548799783,3096.889161798521 568.9917476977571,3096.93153476913 571.7661050310708,3097.02284552902 572.6652589511359,3097.0652184922947 575.4416551822214,3097.1562308351276 576.3384789333213,3097.1989021921763 579.1172053333139,3097.2899145191186 580.0119901866419,3097.3325858687167 582.7927554844646,3097.4235981798847 583.6852101688855,3097.4662695220322 586.468305635557,3097.556983416376 587.3587214222061,3097.5999531520647 590.1438557866495,3097.6906670306926 591.0319414044498,3097.7336367588723 593.819405937742,3097.8240522207925 594.7054526577704,3097.867320342397 597.4949560888344,3097.957735788543 598.3786726399558,3098.0010039026383 601.1705062399851,3098.0911209323094 602.0521838933346,3098.1346874395967 604.8460563910776,3098.2245060529094 605.7256951466552,3098.268370953272 608.5216065422283,3098.3581895510433 609.3989151288406,3098.402352844365 612.1971566933207,3098.491574625252 613.0724263822194,3098.536036311474 615.8727068444714,3098.6252580768196 616.74593763554,3098.6697197553003 619.5482569955639,3098.7586431046366 623.1792426666943,3098.945740185154 626.7519741155556,3099.202961296425 630.2661600710708,3099.5306047682534 633.7220918044331,3099.9280737102963 637.1197693155264,3100.3959648139426 640.4589013333316,3100.9336811512476 643.7397791288677,3101.54181937431 646.9621114311158,3102.2200809167116 650.1264807822299,3102.9684655927704 653.2323046399979,3103.786973197537 656.2795830044197,3104.675603506854 659.2688984177657,3105.6343562772963 662.1996683377656,3106.6632312465226 665.0721840355545,3107.762228132633 667.6391563377692,3108.8289966175216 667.8913971200236,3108.925080307643 670.4851663644658,3110.0022910419502 670.7109014755697,3110.0882291186135 673.3311763911042,3111.1755836745724 673.5301145599806,3111.251077772933 676.1771864178008,3112.3485761202173 676.3493276443915,3112.4139246672858 679.0231964444392,3113.5218651698087 679.1688319999957,3113.577068196435 681.8692064711358,3114.6951524277683 681.9880450844066,3114.739911570505 684.7152164977742,3115.8684378941543 684.8072581688757,3115.903051578556 687.5612265244708,3117.041423175542 687.6264712532866,3117.065891432576 690.4072365511092,3118.2147050594212 690.4456843377557,3118.2290279197623 693.2532465778058,3119.38768675935 693.2648974222247,3119.3921626464 696.0844017777708,3120.5546988285496 696.0992566044442,3120.5612634529243 698.9044886755291,3121.7169348605094 698.9452666311408,3121.735435137409 701.7242843022104,3122.8791691347724 701.7912766577792,3122.909605027933 704.5440799288917,3124.041401651397 704.6372866844758,3124.0837731245556 707.36416682665,3125.2036324104993 707.483005439979,3125.2579394273926 710.1839624533313,3126.3658614121377 710.3290154666756,3126.432103936386 713.0037580800126,3127.5277902670205 713.175025493314,3127.606565041002 715.8238449777709,3128.690015754255 716.0210355200106,3128.7807259622496 718.6439318755292,3129.8522394842003 718.867045546649,3129.9548850898864 721.4637275022105,3131.014461456856 721.7130555732874,3131.1293408118654 724.2838143999688,3132.176383284852 724.5587743288488,3132.303794739535 727.1039012977853,3133.338601743628 727.4047843554872,3133.4779484858154 729.9239881955436,3134.500520058733 730.2507943821838,3134.652398825332 732.744075093302,3135.662436617713 733.0968044088222,3135.8268473706557 735.5641619911185,3136.8243514206843 735.9428144355188,3137.0012941218447 738.3842488888768,3137.9862644675886 738.7885331910802,3138.1760374641162 741.204335786635,3139.148175758659 741.6345432177768,3139.3504806267447 744.48230087111,3140.4938900311245 747.34112682665,3141.446033673419 749.3401204621769,3141.976261696429 750.2078171022004,3142.2662906009937 752.1963249777909,3142.792042307672 753.0745073777507,3143.086546653649 755.0525294933468,3143.6078220533673 755.9409063822241,3143.90680183121 757.9090252799797,3144.423600933631 758.8075966577744,3144.727056133852 760.7652297955356,3145.239378948463 761.6742869333248,3145.5473095615744 763.6214343110914,3146.0548577157315 764.5406859377399,3146.3675621143193 766.4779300977825,3146.870634000108 767.4073762133485,3147.1881121738115 769.3341346133384,3147.6861110376194 770.2737752177636,3148.0086613578605 772.1906303999713,3148.5015872103395 773.140465493314,3148.82920966635 775.0471261866624,3149.317062518385 776.0071557688643,3149.649757099396 777.9033307022182,3150.1325369618135 778.8735547733377,3150.470602037327 780.7598264888511,3150.9477121602977 781.740245048888,3151.2914460992324 783.6163222755422,3151.7628864948056 784.6066440533032,3152.1122892851126 786.4731093333103,3152.578059965337 787.4733343288535,3152.933131594851 789.3296051199432,3153.3929341926123 790.3397333333269,3153.7542714077863 792.1863921777694,3154.2078075565514 793.2064236088772,3154.5757087229285 795.0431792355375,3155.022680057271 796.0728226132924,3155.397145160765 797.8999662933056,3155.837253316364 798.9395128889009,3156.218879099586 800.7570446222089,3156.6515273347613 801.8059118933743,3157.0406121605192 803.6141229511122,3157.465800491278 804.6723108977312,3157.8629410987487 806.4712012799573,3158.2794760310207 807.5387099022046,3158.685269157868 809.3285708799958,3159.093150710105 810.4051089066779,3159.5081930917804 812.1859404799761,3159.90652615187 813.2717991821701,3160.331414521963 815.0436013510916,3160.7193039807607 816.1379069155664,3161.155231823679 817.9018447644776,3161.531782574777 819.0043059199816,3161.9796449951828 820.7600881777471,3162.343365183333 821.8707049244549,3162.8049524100497 823.6189141333452,3163.1543501847773 824.736812657793,3163.631452440808 826.4780313599622,3163.964140830678 828.9634477511281,3165.0576850628713 829.1690851555322,3165.101247774961 831.8027585422387,3166.350243389723 834.1142860800028,3168.2258216249757 834.1949681777623,3168.327566988708 835.2551950222114,3169.399323785852 836.3323155911057,3170.283104297938 837.5209929955308,3171.7293155257357 838.4446136889164,3172.5459596995497 839.3705645510927,3173.7060285595944 840.5534165332792,3174.816267721355 841.2262528000283,3175.6797528097522 842.6593066666392,3177.0919397072284 843.0866013866616,3177.6510850392515 844.762866631092,3179.371782133123 844.9504452266847,3179.6209203738836 846.8078811021987,3181.5940327189746 850.997524764447,3185.2099501085468 852.7145679644309,3186.5314161337446 857.5811256888555,3189.8925065604853 861.5939677866409,3192.265102348174 866.0836206933018,3194.568172176718 871.0500844088965,3196.801418307994 871.4459218488773,3196.95895366231 875.6192543288926,3198.7953719391953 879.9618153244373,3200.8773368676193 884.4741873777821,3203.204249736329 899.6121295644552,3211.5215855238494 906.8257499022293,3215.7119945613085 914.3775360000436,3220.3153019343736 922.2677791288588,3225.3315002453746 922.878574648872,3225.7345728730434 928.9719662933494,3229.6429641768336 930.2186066488503,3230.4216565648676 935.059241244453,3233.549843919347 938.167686542205,3235.5099891821737 946.2594892799971,3240.7722236082773 954.6227566932794,3246.365881540114 963.2577800533618,3252.2909557698295 972.1645593599533,3258.5474386645365 981.3428033421515,3265.135620502755 990.7925119999563,3272.0548961281893 1000.5139766044449,3279.305853304337 1010.507197155559,3286.8878860383993 1020.7715911110863,3294.801581236243 1031.3080322844326,3303.046630392666 1042.1159381333273,3311.6230229110224 1053.1953086577705,3320.5307477730676 1064.5464351288392,3329.7697935396573 1076.1690262755146,3339.3401483512716 1088.0630820977385,3349.241799928539 1096.5233427910716,3356.3580955411308 1100.1487943110988,3359.377191612264 1108.6678917689133,3366.5414197478094 1112.234506524459,3369.512152168667 1120.8124407466385,3376.724311596132 1124.319927466684,3379.646681648679 1132.9569897244219,3386.907367715379 1136.4050571377156,3389.780780103116 1145.100956159993,3397.0899915634654 1148.4901868088637,3399.9150441506645 1157.2449225955643,3407.2721831917297 1160.5753164800117,3410.0488772586687 1169.3888890311355,3417.45453920617 1172.6601548799663,3420.1822794778855 1181.5328554666485,3427.6364630879834 1184.7452845511143,3430.315549131483 1193.6765306310845,3437.8182531580096 1196.8301229511271,3440.4486862583435 1205.8202057955787,3447.999909455946 1208.9149613510817,3450.581690897874 1217.9635896888794,3458.1814320213743 1220.9995084799593,3460.714563088841 1230.1072648533154,3468.3628208939917 1233.0843468799721,3470.847004613839 1242.2506487466744,3478.5437778597116 1245.1688940088497,3480.979313776479 1254.3940326399752,3488.7248994694673 1257.2537324088626,3491.1114906156436 1266.5371252622572,3498.9055892595206 1269.3382795377402,3501.243535170506 1278.6805091554997,3509.086443765089 1281.422826666676,3511.3754474801826 1290.8236017777817,3519.2668665380916 1293.5073737955536,3521.507227583672 1302.9669856710825,3529.4471558638033 1305.5919209244312,3531.638577286736 1315.1100782933063,3539.6273117820965 1317.6761767822318,3541.7700930990395 1327.2531709155883,3549.807334332494 1327.6230852266308,3550.116296752123 1327.7859057777678,3549.9764286449645 1345.7698579911375,3534.529347343254 1365.7455220621778,3517.3709649016964 1385.7214774044114,3500.212501593458 1405.6971414755099,3483.0536589966505 1425.6728055466665,3465.8941386629012 1445.6487608889001,3448.7345369129325 1465.6244249599986,3431.5742570331786 1485.600089031097,3414.4138953707297 1505.5760443733307,3397.2528551855357 1525.551708444429,3380.0917328511714 1545.5276637866627,3362.929931601044 1565.4948809955386,3345.7752071513096 1570.1426941155223,3341.697965841333 1579.3532691911096,3333.4473630156135 1588.392576853279,3325.0066468389123 1597.2568305777386,3316.379689172085 1605.9416612977511,3307.569765270513 1614.4438650311204,3298.5810453737504 1622.7593639821862,3289.4171031335136 1630.885245440004,3280.0818105775397 1634.9572155733476,3275.3034407676314 1639.026855537726,3270.3174009394133 1647.1699219911243,3260.118786152918 1655.0901660444215,3249.744014787895 1662.7838011733256,3239.1975548889604 1670.247332124447,3228.4844713251805 1677.4769723733189,3217.6101274876855 1684.469517937745,3206.5795886043925 1691.2214735643938,3195.3982184557244 1694.5871112533496,3189.682755851769 1697.0734014577465,3185.2663414573763 1702.0689922844176,3176.2147311639274 1706.9084617955377,3167.0776794617996 1711.5909361777594,3157.8581670580897 1716.1143765333109,3148.5582796307863 1720.4779090488446,3139.180998085998 1724.6800773688592,3129.7293034499744 1728.719716408872,3120.2061768722488 1730.6986123377574,3115.426814887149 1740.6988233955926,3090.6767218774185 1750.7019471644307,3065.918967605103 1760.705070933327,3041.1604145619203 1770.7079034310882,3016.4013606095104 1780.7110271999845,2991.6412083218456 1790.7141509688809,2966.8802555507864 1800.7172747377772,2942.118501725374 1810.7203985066153,2917.3559462745907 1820.7235222755698,2892.5925886273035 1830.726646044408,2867.8287267026026 1840.7300610844395,2843.063762957987 1850.7331848533358,2818.2979953028844 1860.7363086222322,2793.5314231656375 1870.7394323911285,2768.764045974822 1880.7428474311018,2743.995863158547 1890.7459711999982,2719.2268741451553 1900.7493862399715,2694.4570783626987 1910.7525100088678,2669.686475239345 1920.7559250488994,2644.915064202971 1930.7590488177375,2620.142844681337 1940.762463857769,2595.3698161023203 1950.7658788978006,2570.595977893565 1960.7690026666387,2545.8213294827146 1970.7724177066702,2521.045870297181 1980.7758327466436,2496.269599764433 1990.779247786617,2471.4922186654294 2000.7826628266484,2446.714323710301 2010.78607786668,2421.93561568961 2020.7894929066533,2397.1560940303607 2030.7929079466849,2372.3757581595564 2040.7963229866582,2347.594607504143 2050.8000292977667,2322.81234278559 2060.80344433774,2298.0295608311426 2070.805403022212,2273.249248345499 2072.8547865599976,2268.0331954560825 2076.9296694044606,2257.3712568469346 2082.31993258663,2246.588776579534 2087.571259448887,2234.6013231857214 2092.56160739559,2222.5013503225637 2097.2886462577735,2210.2945287413313 2099.624640568858,2204.059592469188 2101.7503371377825,2197.9868282664684 2105.9440585955745,2185.583920308971 2109.8683542755316,2173.091476614587 2113.5208940088633,2160.515766809869 2117.054886400001,2147.2251765063265 2120.293529884424,2133.822905401583 2122.1326156799914,2125.180633387994 2124.589487502177,2116.649410497921 2125.2180505599827,2114.4347963490873 2131.649607964442,2091.4447902590036 2138.0811653689016,2068.454376604059 2141.0098963910714,2057.146259261179 2142.718784000026,2051.7389561499003 2147.239020373323,2038.9215552179958 2155.806760106643,2010.114022198948 2158.9117101510637,1997.3873504950316 2161.7399526399677,1984.5953146916581 2164.2903224888723,1971.7438882634742 2165.5165738666547,1965.1874955596868 2166.5619458844885,1958.8396427800762 2168.553075200005,1945.8879548299592 2170.263127893326,1932.89569566719 2171.690938880027,1919.8685415525688 2172.8365081599914,1906.8130657505244 2173.6986706489115,1893.735543105402 2174.2771350755356,1880.64165113552 2174.571610168903,1867.5379644175991 2174.647923199984,1860.8640875553247 2174.38694428443,1848.1799997029593 2174.2445127110695,1845.904809473548 2174.8588034844724,1828.9575317045092 2175.847668906674,1802.5651708662044 2176.843524835538,1775.9886319866637 2177.8393807644024,1749.411440481781 2178.835236693267,1722.8332967302413 2179.8310926221893,1696.25420002389 2180.826948551112,1669.6741496542236 2181.822804479976,1643.0931449128548 2182.8186604088987,1616.5111850911053 2183.8148076088983,1589.9282694801805 2184.8106635377626,1563.3443973713438 2185.806519466685,1536.7595680555096 2186.8026666666265,1510.173780823592 2187.798522595491,1483.5870349662728 2188.7946697955485,1456.9990307214903 2189.790525724471,1430.410365474585 2190.7866729244124,1403.8207394738565 2191.782528853335,1377.230152009579 2192.7786760533345,1350.6386023719679 2193.774823253334,1324.0460898509482 2194.7709704533336,1297.452613736561 2195.766826382256,1270.8581733184983 2196.7629735821974,1244.2627678863937 2197.759120782197,1217.666097579524 2198.7552679821965,1191.0687599769444 2199.751415182196,1164.470455228642 2200.747853653331,1137.8711826236686 2201.707883235533,1112.231353037234 2202.2540165688843,1099.765052561008 2203.870279964409,1084.0928640263155 2204.7336075377534,1071.0007334341644 2205.312945777783,1057.8925093778525 2205.6080034133047,1044.7747737817117 2205.6846077155205,1038.090741887805 2205.6187804444344,1031.6532113631838 2205.344985600037,1018.5341057126643 2205.035946951073,1013.1880091299536 2205.522369706654,1005.8100560966413 2206.1017079466255,992.7009583577164 2206.3970568532823,979.5817493401701 2206.4736611555563,972.8968197476934 2206.40783388447,966.4590119972127 2206.1340390400146,953.3390304979403 2205.575963591051,940.2277902009082 2204.7336075377534,927.1318754354143 2203.198900053336,910.946303495788 2202.9743300266564,903.4251555310329 2203.015399253345,901.0668311887421 2203.0794788977946,897.7217684123898 2203.1354029510985,892.0312057088013 2203.130160071072,890.1133916320978 2203.4124017778086,886.3465841311845 2203.8344536177465,877.1656197758857 2203.977759004396,867.9758597639157 2203.9165920710657,861.7654854382272 2203.6617298488854,849.0994492843165 2200.9331020800164,814.1811795476242 2200.769116444397,812.0344815082499 2200.242789546668,805.7242539344588 2199.818407537765,801.2078069534036 2199.4636393244145,797.6581454170519 2199.1854754133383,795.031881559582 2198.9326520888717,792.727382555895 2198.3122446222114,787.269471137668 2197.9836908088764,784.697048697155 2197.1238584888633,774.3456050489913 2196.1250898488797,765.8630700404174 2195.8571204266627,762.6440031050006 2195.3631246222067,756.9305281411507 2195.1898183111334,755.0000836167019 2194.7552418133128,750.3462213794701 2194.5050399288884,739.6772781474283 2193.290148124448,718.3089839805616 2191.7959273244487,702.1385052723344 2189.8682951111114,686.014066943957 2187.508999111131,669.9473475979175 2186.200318008836,661.8093705688952 2185.0238739911,655.4768754377146 2182.4892327822163,642.5985549263423 2179.676136391121,629.7789848909597 2176.5854586311034,617.0238569521462 2173.2189471289166,604.339162521821 2169.578349511139,591.7314922325313 2165.6648308621952,579.2065389165655 2161.4810126222437,566.7699957774603 2159.281915733358,560.4648115418386 2157.0283511466696,554.4284546541749 2152.308885333303,542.187310089299 2150.6911655822187,538.6079291880596 2149.240344177757,531.2368157599121 2146.4266652444494,518.41496478935 2143.3356962132966,505.65786465705605 2139.9686021688976,492.97150772763416 2136.3274220088497,480.3615873163217 2132.413612088829,467.83469549618894 2128.22892003553,455.39652638032567 2126.029240604432,449.0900662667118 2123.871795484447,443.3028319363948 2119.354471822211,431.5551268835552 2114.593936782214,419.9048599990783 2109.591937991092,408.3574266991345 2104.3508056177525,396.9176237283973 2098.8728698311024,385.59054758719867 2093.1604607999907,374.3809955503675 2087.2159086933243,363.29436414601514 2084.1861065955018,357.78228248195956 2079.093522488838,348.7443415496964 2077.48250197334,345.9088797341101 2073.9243340799585,339.8377729126951 2067.161892693315,328.6044422874111 2060.1571137421997,317.5221943434444 2052.913783751079,306.59612801333424 2045.4351067022071,295.8316419761395 2037.724577848916,285.2338355963002 2029.7856924444204,274.80780842975946 2021.622819555574,264.5586602122057 2017.4244377600262,259.4052745134104 2013.2394544355338,254.49089174857363 2004.6393836088828,244.60960307135247 1995.8269761421834,234.9192952408921 1990.9624573155306,229.79924646083964 1949.4388477155007,208.49097784725018 1865.8848167821998,162.27119891461916 1808.804125866678,130.86084278696217 1742.0675063466188,94.93120805360377 1654.1170292621828,47.42401973938104 1598.2931731910794,31.12483710248489 1586.7981587910908,26.985859135515057 1540.8667434666422,11.580666814697906 1540.0986615466536,11.471893481211737 1533.6327341510914,10.62747623823816 1528.8416156444,10.055141766264569 1523.6762137599871,9.48400544107426 1514.8655539199826,8.58744633832248 1504.3736772266566,7.707067348586861 1494.2971531377407,7.041538463963661 1491.1633672533208,6.850659510819241 1477.2449772089021,5.928326892084442 1464.6480841955636,5.357786557171494 1450.364440177742,5.014083728834521 1436.692174222204,5 1423.6382768355543,5.28706829046132 1410.5939913955517,5.860605216643307 1397.5648520532995,6.720610084710643 1380.5723867021734,8.333640798693523 1368.3212324977503,9.85287685575895 1352.936001137772,12.170679454458877 1350.410098062188,12.630343609373085 1342.7170454755542,14.064769539807457 1336.2080099555897,15.041627822676674 1331.9816661333316,15.734117651009 1330.0167512177723,15.980129669071175 1314.9909484089003,18.253264701284934 1305.3629818310728,20.126662904047407 1295.801133795525,22.316782597685233 1283.119189617748,25.442388440307695 1270.5083155910834,28.846049999119714 1257.97433713777,32.52566578629194 1241.402175999945,37.90811832464533 1231.033506986685,40.778663115925156 1219.61247544887,44.170565408305265 1217.92543317331,44.708713790460024 1209.7512007111218,47.446492433547974 1197.2789717332926,51.825657880166546 1193.4720583111048,53.19138867058791 1190.896056604397,54.149016682466026 1182.1282136177178,57.45396202849224 1174.4127331555355,60.48592875676695 1171.8376052622334,61.53912892017979 1166.2201506133424,63.90470368927345 1159.0210938311066,67.02293570392067 1154.1723036444164,69.17485839041183 1150.2439301689155,70.9600324225612 1144.7243426133064,73.53711110551376 1139.0297011199873,76.26668897736818 1134.264214471099,78.60345100343693 1129.0379369244329,81.22424678003881 1123.6202942577656,84.01042345428141 1119.3866686577676,86.242592833878 1117.045722737792,87.49050729593728 1114.4496233244427,88.8888280572719 1112.2994599821977,90.05853759380989 1108.4176898844307,92.19091553112958 1105.7540155733004,93.67162159108557 1102.6671243377496,95.40879567782395 1092.3843803022173,101.02986409066943 1085.9400069688563,104.10778547712835 1070.2177749333205,112.19786449102685 1058.774606791092,118.52167643839493 1053.1414235021803,121.71516965562478 1047.4715400533169,125.09530140162678 1036.3141088710981,131.91573647211771 1025.3069735821919,138.97967900236836 1014.4559596088366,146.2835266320617 1003.7663098310586,153.82397649710765 993.2426845866139,161.5974260502262 982.8903267555288,169.60027267306577 972.713896675501,177.82831452571554 967.7317043199437,181.9463441905682 962.7189284977503,186.27794890420046 952.9095000177622,194.94497392163612 943.2905628444278,203.8251876970171 933.866486044426,212.914687934448 924.641929955571,222.2089732286986 915.6215549155604,231.70324267505202 906.809147448861,241.3935941196978 898.20907662221,251.27492725953925 894.0238020266406,256.1893321333919 889.8242551466683,261.34423874359345 887.9586636800086,263.68668504053494 886.1792884622118,265.92068869428476 881.3444792888477,272.15776948578423 879.085089279979,275.1525793620385 876.2393705244176,278.79138528875774 870.1063660088694,286.38764751836425 864.3062843732769,294.07039394183084 856.4023515022127,304.89571062097093 846.9957509688684,318.5546477693133 844.6635431822506,322.37564101308817 840.4902107022353,328.3489534757682 831.1109896533308,343.6379863040638 824.8378837333294,355.15501368499827 823.1397731555626,358.6235934931901 820.0598724266165,364.1428567596013 815.2442871466628,373.00928990804823 812.7789684621966,377.6446261316305 811.3817409422481,380.32781830546446 808.2578582755523,386.49801407475024 805.5650568533456,391.9715400627465 804.6516306488775,393.815206844185 801.6416349866777,400.0700416978216 799.9030377244344,403.7917698385427 797.2894620444858,409.5433846329106 794.9820123022073,414.7651700381539 792.2950363022392,420.0683759266976 788.229182862211,428.40883674728684 787.3504179199808,430.25270938588073 786.4212630755501,432.0831009284011 784.0753655466251,436.71745655534323 783.1080541866249,438.62449643888976 781.0438158221659,442.7721709096222 778.7957853866392,447.3771096575656 771.0768096711254,454.50352133769775 761.6559368533199,463.58984074991895 752.4348760177381,472.8805748663144 743.4174136889051,482.37182288547046 739.2653439999558,487.3118937717518 734.733748053317,492.18515344837215 730.3999251910718,496.94968060951214 726.0425093689119,501.9657105067163 721.8269425777253,506.84995028260164 717.6629307733383,512.0285078077577 713.6366902044392,517.0707832007902 709.6113234488876,522.3555673145456 705.7586804621969,527.5298211390618 701.5340842666337,532.6693035580101 693.8261768533266,543.2634564301698 686.3498299733037,554.0242325191502 679.1088301510899,564.9465342650656 672.1066726400168,576.0249648952158 665.3462701510871,587.2544272786472 662.0805384533014,592.8132533036987 658.831409208884,598.6295251034899 652.5647112532752,610.1448623114848 646.5490889955545,621.7950431086938 640.7880376888788,633.5743725848733 635.2835962310783,645.4768567479332 630.0386773333303,657.4974000821239 625.0559024355607,669.6303086029366 620.3373104355414,681.8692899161251 618.0837458488531,687.9051790494705 615.2811352177523,696.0231039731298 609.9802922666422,712.1152876330307 604.585951288871,730.4169233472785 603.2915424710955,735.3666703299386 600.1956218311097,742.1169510493637 594.9512854755158,754.1361863218481 589.9690931199584,766.2671735819895 585.2510836622096,778.5045193129336 582.9981016177917,784.5399013471324 580.7995872710599,790.842530991591 576.6169341155328,803.2752171213506 575.0152342755464,808.5028321208083 573.1845953422016,812.917465994833 568.4668771555298,825.1540236365399 566.2136038399767,831.1890170823899 564.1738322488382,837.0225269511575 560.2876930844504,848.5107226900873 556.6328231821535,860.0753565344494 553.2106788977399,871.7113369085127 551.5580066133407,877.5469152344158 544.5147798755206,903.4009139111149 537.4733007643954,929.2477076288778 530.4318216533284,955.0941806446062 523.3900512711261,980.940632794518 516.3485721600009,1006.7849699783255 509.3068017777987,1032.6292875587242 502.26532266667346,1058.4717907996383 495.223261013336,1084.3148740877514 488.1814906311338,1110.1558451674646 481.13972024887335,1135.9962007365539 474.0982411377481,1161.8347447225824 467.0564707555459,1187.6735720103025 460.01440910220845,1213.5117856685538 452.972347448871,1239.3493863173062 445.9308683377458,1265.184280660178 438.88880668440834,1291.0203581027454 431.8473275732831,1316.852833317942 424.8055571910809,1342.6858946312568 417.76378680887865,1368.5174489143537 410.7220164266182,1394.3483941159793 403.67995477328077,1420.1787308553467 396.63789312000154,1446.0087588088354 389.5961227377411,1471.8366842834512 382.55435235553887,1497.664003236976 375.5119994311244,1523.491912391386 368.4702290489222,1549.3171230712906 361.42787612439133,1575.1426261638408 354.3861057421891,1600.9657312437776 347.3446266311221,1626.787934037624 340.30227370664943,1652.611029036343 333.260212053312,1678.4326249968726 326.21815039997455,1704.25182577339 319.1763800177723,1730.0713226519874 312.13402709329966,1755.890518293425 305.0916741688852,1781.709413284494 298.0493212444708,1807.526214745536 291.00755086221034,1833.3412223509513 283.9651979377377,1859.1565290753497 276.92313628440024,1884.9703421632294 269.8807833599858,1910.7841566735879 262.83901297778357,1936.5955822878168 255.7963687822339,1962.4079071474844 248.75430712883826,1988.218143329199 241.71224547555903,2014.0265904335538 234.66989255114459,2039.8359385627555 227.62724835553672,2065.644992948626 220.5854779733345,2091.4507662045653 213.54283377778484,2117.258039817447 206.5007721244474,2143.062033760827 199.45812792889774,2168.867827958078 192.4157750044251,2194.67124019342 185.37371335108764,2220.4722712684306 178.3310691555962,2246.275403018226 171.28871623106534,2272.0755574515206 164.2463633066509,2297.8757225815207 157.20371911104303,2323.6756002582842 150.1616574577638,2349.472204121179 143.11901326221414,2375.270015328133 136.07607779558748,2401.0678396144067 129.03401614219183,2426.862093567499 121.99166321771918,2452.656660608016 114.94872775109252,2478.4515412598266 107.90608355554286,2504.2446456134785 100.86343935999321,2530.0368702763226 93.82137770665577,2555.826424216386 86.77873351110611,2581.616891496582 79.73608931555646,2607.4064810237614 72.69344511994859,2633.1954920262215 65.65080092445714,2658.9833279742743 58.60844799998449,2684.76879529492 51.565512533299625,2710.556074515218 44.522577066672966,2736.341284961032 37.4799328710651,2762.1250244628172 30.437288675515447,2787.9087863352615 23.39318812440615,2813.695854760648 21.606822400004603,2820.5523385016713 18.195163875527214,2834.3057175203576 14.012510720000137,2853.9410318391747 9.356250737793744,2880.0404719622456 6.696362951130141,2898.3630963456235 5.404866844473872,2913.758763652586 5.103109973308165,2916.580219392781 5,2917.696800238453" stroke="red" stroke-width="3.5878957349700515px" fill="none" stroke-linejoin="round" vector-effect="non-scaling-stroke"></polygon></svg>