<svg width="2946.1170750578167" height="1138.4071449502953" xmlns="http://www.w3.org/2000/svg"><polygon points="5,933.1410333242966 31.751212657778524,934.1915854124818 277.42616149329115,973.3914137525717 311.80168675561436,983.9749531229609 518.6729156266665,1133.4071449502953 706.5389957688749,1002.0940757028293 866.2525579377543,930.6364303544979 927.1768624356482,897.7802316638408 1037.1049099377124,852.9219686779543 1373.5533354667714,725.32851800957 1545.0386195910396,706.0821311706677 1610.7153035376687,703.1051875699195 1643.5948603734141,703.847238507471 1632.537043911172,666.3914918618393 1525.6216135111172,491.00199788005557 1510.1629818311194,459.72300295729656 1518.7216921601212,427.57097191375215 1536.804676551139,381.17848307749955 1545.924957582145,353.65022242994746 1547.3556812801398,336.5883152266033 1545.9290353778051,318.5150589472032 1541.096265102271,299.4517145893187 1537.278865919914,290.6112740258686 1533.899247217807,284.5413675769232 1499.8840243200539,245.13069214043207 1482.3238715733169,233.22300741710933 1441.917577955639,220.07001560018398 1392.6409139200114,204.33434951049276 1341.83769799117,217.6117845948902 1275.3512803555932,257.5322133565787 1260.057216853369,261.61127273517195 1253.8860558222514,263.3696379234898 1242.80872419558,263.5170666988124 1234.2252558222972,263.61234181473264 1226.5756026310846,264.161266309442 1216.0208113777917,265.0691476999782 1194.3630566399079,270.70989710703725 1177.8319647288881,271.6247702733381 1159.9511224888265,265.22298638301436 1150.8893869511085,265.0691476999782 1136.244858026621,262.31753247842425 1107.1177469155518,255.1144954187912 1093.0394490311155,247.42575032135937 1080.579744711169,247.58745618106332 1051.209713493241,253.90039161330787 1041.627476480091,256.23536331555806 1032.2770912711276,256.5136135701323 1020.3836179911159,256.00460498040775 989.4433442134177,255.1386784297647 978.1414425600087,253.41585720377043 942.8731713421876,233.82875009533018 918.8462173867738,203.90604470978724 910.5097469155444,193.52357821486657 890.5253447111463,171.50922210497083 881.2206890666857,164.71079316659598 862.8545891556423,152.8134527101065 849.8231196444249,146.51265812368365 843.4364179910626,143.42475666519022 791.4931669333018,123.51477904163767 756.5406336000888,112.75049312156625 728.7449227377074,106.75792721525067 702.4678994488204,112.75428090395872 674.3264497778146,137.7177584906458 663.2861095821718,145.6068000344676 636.4877110045636,164.13330661400687 607.3303076977609,180.49783396959538 602.8257999644848,182.75154072296573 602.4218069332419,182.87333118874812 602.0192702577915,183.01231217209715 601.8424686932703,183.052520506375 601.6010049422039,183.1099193599075 601.3368220444536,183.1725627781707 576.6446048711659,193.8691362387035 531.0865991109749,187.50311540719122 525.5349717333447,184.00732269033324 517.4897723733447,179.2484613605775 515.7191352888476,177.13693952962058 514.1153965510894,175.47470198269002 483.2310468268115,161.48770662024617 440.93090844445396,167.38261474866886 410.68939406226855,187.9500686012907 392.08299548435025,207.82634373917244 378.08304952888284,216.82626931584673 348.5341778488364,227.24016648018733 321.7751008711057,253.47412953386083 308.5173137066886,289.19555544143077 293.7915201422293,305.38525145483436 274.1307201422751,334.6204825497116 265.26326243556105,361.6223373962566 260.78846435563173,373.46832026168704 250.46261219563894,394.16683788830414 244.1396989155328,411.90629409474786 225.1558129779296,443.467240704922 211.9583189332625,466.3885713556665 206.3781469865935,479.48806437215535 206.27561955561396,479.6917194733978 206.14250865776557,479.95510174153605 205.8567716977559,480.5220728297136 195.54956088890322,498.52935401455034 186.97308302216697,516.6936275678454 161.09510115568992,564.5982001959928 159.60000654228497,577.2718538792687 155.9876622222364,586.0513323987252 134.18165048887022,670.0889448907692 117.48540785792284,731.9314965266967 31.123814684455283,759.9428150402964 5,933.1410333242966" stroke="red" stroke-width="3.742926583965196px" fill="none" stroke-linejoin="round" vector-effect="non-scaling-stroke"></polygon><polygon points="2288.1303520710208,530.909189791244 2371.3689363910817,562.6228563138284 2407.952005404397,578.8844654664863 2441.944509155466,559.6397364105796 2488.480894577806,535.1020060976152 2517.3167345778784,518.8548656679341 2564.6086772622075,488.62981269834563 2730.1808665599674,393.3691061277641 2799.3056179200066,356.8365055837785 2885.1475834310986,304.310135167907 2908.541313991067,262.4576772454311 2924.0209171910537,234.77363863639766 2941.1170750578167,210.54301782540279 2926.008551253355,190.9426729424158 2901.498087253305,163.13013484777184 2860.2473986845,114.15925665508257 2813.148860017769,81.9187448794255 2764.4684279466746,44.50478192913579 2755.5144627200207,38.668327311752364 2725.3711067022523,25.672282653511502 2689.6860265245195,7.9416989628225565 2684.473729991005,5 2667.288151893299,15.849839123664424 2633.6699315200094,37.25401115970453 2624.782084835577,45.6251032188884 2591.2902761244914,78.003614813264 2568.5647214933997,105.2002729132073 2539.5701387376757,130.28527963795932 2512.8189260800136,158.59211368422257 2483.3326776890317,189.3066616829019 2458.9384308622684,215.16287630563602 2437.3593193243723,242.0769261859823 2417.52171776013,262.3559921653359 2383.345713208895,294.8319142521941 2375.1924522665795,305.1352650813642 2361.220177066629,341.5306203524233 2341.4918021688936,387.3750434696558 2325.540631040116,427.033714690886 2308.3352465066127,462.93458519584965 2303.2318853689358,487.0754511844134 2295.0923141689273,511.65530062059406 2288.1303520710208,530.909189791244" stroke="red" stroke-width="3.2639743596875723px" fill="none" stroke-linejoin="round" vector-effect="non-scaling-stroke"></polygon></svg>