<svg viewBox="0 0 79.18561171558328 67.4371715919108" width="79.18561171558328" height="67.4371715919108" xmlns="http://www.w3.org/2000/svg">
  <title>Třemošná, okres Plzeň-sever, Plzeňský kraj, Jihozápad, 33011, Česko</title>
  <desc>Geojson of Třemošná, okres Plzeň-sever, Plzeňský kraj, Jihozápad, 33011, Česko</desc>
  <metadata>
    <collboard>
      <support-module name="@collboard/map-svg-geojson-import" version="0.11.1"></support-module>
    </collboard>
  </metadata>
  <polygon points="8.052549999999997,57.6256742136535 19.167965324456986,59.16293709682179 19.6974233866855,59.23920117731143 30.845169804444254,53.96059547272273 31.105493360031346,53.90542279178737 47.51497958222865,53.37930504077633 49.244838711114085,53.16312480041927 62.15761524445372,46.80144635149156 62.3504367200145,46.708802743254296 60.00883544001374,45.203124603394485 59.86385524445325,44.916721709225044 61.18680863112206,43.20402813908697 61.19977019556211,43.193758812259716 63.19454040000676,46.42071509868367 63.87138164445753,46.59697571816616 64.69990232002567,45.390560830149866 64.95010420444999,45.03408162683593 61.768695493352084,41.71416561706394 62.08530719110388,41.209146941247695 66.10295526221273,37.710113858010686 66.10397471112776,37.487438476607736 70.03802797332867,39.09332183922345 70.21468390222401,39.102463355062014 71.09759945778171,36.35215235806356 71.13306171558327,35.77473761841941 67.60249176002219,35.659727972182395 66.314272453346,36.34978221620952 66.45408258669306,31.432419287527978 66.45080578668387,30.808447896349776 62.447866906680815,29.592202412684514 62.2499481866904,29.49207965183416 60.29442676445581,25.04540545473685 60.17158317333781,24.446873877713756 56.41440429335455,24.08348456830538 56.38374800890563,24.065083616289144 59.79300354669215,21.03753455806111 59.810334177811114,20.967877955983226 54.89207583110658,13.921602663649196 54.730493182236046,13.73089688206494 47.28931728890859,13.329046343183677 46.859255493334445,13.081092132597064 48.77050370668405,8.787105344082761 48.75178953778925,8.70975447830972 34.56346399110737,8.260891451507291 34.203088808899,8.340501389662336 35.51693997334917,17.18743457819039 35.65784237333685,17.559337496851754 33.81162043556799,18.47316469108739 31.932193591120836,19.439361685762947 31.959354622238266,23.999382006957262 31.896804151103083,24.093983268197576 26.880387440010622,20.484795121221055 26.54688201778447,20.307885708367053 14.488767742215373,28.679012823071048 14.370074764453989,28.713328258097704 16.909740400012765,33.86073790545163 17.077366924444163,34.260292861311996 14.481922871119991,38.35511116902455 14.296528808895914,38.90270395653317 14.555978551106477,43.54223774724926 14.674962800003073,43.58015501018201 8.481009804476003,45.66161436828372 8.272678142245809,45.77694148572448 10.62185247112177,50.85842777977052 10.959581324459236,51.43387773942197 8.052549999999997,57.6256742136535" stroke="#009edd" stroke-width="5.394246380825293px" fill="none" stroke-linejoin="round" vector-effect="non-scaling-stroke"></polygon>
</svg>