<svg viewBox="0 0 321.075856551018 317.5127118004741" width="1000" xmlns="http://www.w3.org/2000/svg"><polygon points="8.052550000000338,58.088093974721914 26.153593200004252,64.10672067161772 26.263402408781985,63.799684096280316 29.060770160031097,79.24836395632133 29.380294568931276,80.98630594669498 58.85197940443322,119.06337961901568 59.87434100438986,121.30538729622617 48.43029904887226,151.72167008763768 47.46997819547687,153.4162218762574 57.108430533298815,166.87437268123153 57.294261502196605,166.97126223540522 47.334828400031256,210.17431887120597 47.39133499548916,212.10766322169343 54.7977768089404,228.91545969967387 55.41323266665131,229.82010476929258 67.98216365333792,233.40530974171247 68.15838267547224,233.73868846972596 61.27156852439657,273.86386546373956 61.17282761770912,274.2953758571309 78.66045385771577,293.0215665411449 81.19014345770847,296.39450669560006 98.40630502216663,275.5281936594763 99.00603223997314,275.01065425892716 126.62435899544653,271.3387468721264 128.35247049769532,270.94551761201706 179.367149253354,309.38855525540544 179.68230459557526,309.4601618004742 182.20471241776977,277.8303057842784 182.05995067556069,275.6164770206449 197.8069407555522,280.60352823613334 201.8861926665777,282.1169172499574 225.37458633780625,255.92525234234176 225.56507764440175,255.74776875935618 244.03020973326784,252.05661815699546 244.766543102196,251.56560124058865 251.17188610658195,237.119750783291 250.93595650661882,236.3394756178384 292.4487890755772,242.72215286238475 295.9122938577566,241.70899186880683 301.1697374132709,258.8091151551123 298.61907629328925,260.50599073837634 312.5263980355594,255.1454947154632 313.0233065510183,254.98197499922367 303.5596168800039,225.07563223833108 304.40779835553985,222.01561587883748 292.66520351111103,219.42592194860458 291.70808663997013,219.35248376485083 302.19938079102576,203.1549322426215 302.31443288000446,202.47501435035497 294.70701400002145,186.48574612031348 294.66914875558723,185.83867095071014 303.80020681778115,109.69619057558134 303.64379423109494,108.9812728952163 293.24075522655767,93.20019961740013 292.96026114663255,92.99012623241993 261.81493250662606,79.40525267218595 261.18112656879384,78.66363691769197 255.82552464886248,43.57715252447065 254.49004660439823,41.63239765589947 212.53739465782564,45.903350615153386 212.30233887103532,46.12564349637955 192.7076574133025,35.76195569287643 191.81578527109377,35.771425001883244 150.6361668532263,58.09260270911159 150.04459522662364,58.19269658762619 134.93519760887284,83.75210732126266 134.69082114657067,84.09202572817571 117.0494037599783,86.10582858019166 116.58424379546341,86.78024777593214 100.09742509327043,71.08503628904123 99.25972937767074,70.16575806271408 114.23135575999186,69.21130963494193 116.10801552885823,66.56119432787068 101.87883920883905,61.04400025992777 101.74718466666673,60.91505216170458 94.68415149334032,29.49543778823113 94.67453954657685,29.23975896152092 76.57815668438707,8.145000192780344 76.19018356441666,8.05255000000011 45.34835942215432,16.88700397031039 44.492022355530935,16.98125425991725 8.052550000000338,58.088093974721914" stroke="#009edd" stroke-width="5.499081000859237px" fill="none" stroke-linejoin="round" vector-effect="non-scaling-stroke"></polygon></svg>