<svg width="674.731356728822" height="430.5044592699851" xmlns="http://www.w3.org/2000/svg"><polygon points="5,289.5002709889086 37.50352583103813,367.04053013655357 38.30597774218768,368.68470097123645 71.80594204436056,334.0410013801884 73.20520846219733,331.7804707928444 117.74609550216701,305.95954069372965 120.26559061324224,305.3892290047952 139.93804145767353,284.61224515357753 140.37815210653935,283.97966373473173 149.34755470219534,285.4450882363599 151.6110225066077,284.09637128491886 158.53220664872788,266.8415928534232 159.20970325323287,266.26845368306385 192.03887018654495,254.09184142766753 197.07931676437147,251.48893456865335 206.43902264873032,229.309596552921 206.94321294210386,228.74408039002446 284.73094968881924,168.1767362401588 285.7122420622036,167.46975564898457 348.52893496875186,176.8452400410897 349.45284693327267,176.85887020634254 363.11666602664627,167.5279135221499 364.59544945764355,167.45203566894634 411.00979228434153,179.4272324264166 413.9926997332368,180.35407071065856 414.7974818132352,196.2082999444683 415.02642090665177,196.60853646771284 401.6142600532621,213.05530358030228 401.12841983989347,213.52183139551198 401.7933917866321,249.4337470518076 401.6407657243544,252.5199274008046 418.4334190932568,254.40613203443354 420.4219269688474,255.44619453250198 439.94000412430614,273.3535648958641 446.1155342221027,274.8058910929831 447.3240180622088,287.23110357270343 445.8155249777483,291.2640021368279 464.1417207465274,308.68212270521326 465.7719651554944,310.42526564432774 482.0132423110772,314.36102125333855 483.40085788443685,315.4811638768879 512.3671873421408,380.0083518343745 514.2432645687368,383.8615996434237 520.1088822043967,387.21140505734365 520.2076231110841,388.6039648160222 529.3482931199251,387.6239994742791 531.6257419376634,385.35540135524934 535.4495490842965,392.3490348702762 536.3286052977201,393.48466209019534 554.7089774932247,370.2444274745649 556.8827337954426,371.9035538430908 558.6178358043544,381.9842335720896 560.2856541866204,381.30881357664475 558.1902498132549,413.79423157824203 558.9708563910099,415.22247469524154 591.5876866843319,421.9646359401522 595.3928524799412,425.5044592699851 597.785062115523,407.74077299266355 598.1051690665772,406.3832828938612 608.9992911643349,398.32394713780377 609.4163913954981,397.8051656804164 616.6865183288464,376.21177612413885 617.2853717332473,374.86906885768985 652.180233386578,349.0877548055141 652.6005375998793,349.30475676216884 669.6273729421664,322.8171154918382 669.731356728822,321.77147259254707 659.5520139377331,298.4486520495848 659.1576328532537,297.67806861159625 636.7291747555137,269.5410489552887 636.0650766221806,269.06010860647075 630.5684994843323,270.8458043380524 628.8683500088518,271.4543544680928 630.7645249421475,275.5356836171122 630.3194626844488,276.3049831042881 572.5149630577071,262.16424261190696 570.6642264176626,262.17922991281375 538.1277869510232,243.2585297775804 536.4186080710497,241.4221909084008 538.1889538844116,169.22039169055643 538.5626547199208,167.92820283671608 515.1965949154692,152.2204971658648 514.288120319834,150.91775624168804 516.5579960887553,126.70498411665903 516.8874237155542,125.04307737929048 523.6128736711107,117.16918413364328 524.084150328883,115.53447252308251 521.5920347020729,100.13794918899657 521.358435271075,98.5762844151468 497.1488543287851,71.43079494632548 496.51708728878293,70.24030114687048 500.170209564385,56.87532211578218 501.16723057767376,53.44768922921503 497.5665371022187,43.715462947962806 497.35682190209627,41.39508457732154 499.4359150932869,18.540034370089415 498.37219299550634,14.471610730397515 464.91388046217617,8.718034954217728 462.2659347910667,8.28062237863196 435.1145156265702,14.677579917421099 429.21161528874654,18.96424089925131 421.70497621328104,6.6241757164825685 420.4111499376595,5 377.64439523546025,9.086333841376472 373.15823758218903,10.62090582010569 369.1346184533322,14.171522823802661 340.17731839988846,37.950840915204026 332.664853902068,66.4864983203006 322.82047288888134,80.45451684785075 321.95394133322407,77.91271246771794 318.0252765866462,65.39552869315958 274.0124640710419,27.803279903833754 272.78825159103144,26.490245456807315 223.152450275491,64.37364884285489 218.2689988266211,68.9366143179941 157.46236785768997,26.53116424009204 157.34702449769247,26.462056957243476 120.48608284443617,79.20316372037632 117.08665770664811,83.91035949991783 108.09016689762939,80.46315311396029 105.65834439103492,80.75224055955186 64.39629624877125,103.5298500698409 60.622587733203545,108.61828388884896 62.731973119894974,122.70629777060822 64.00628423108719,128.78814377525123 72.76014620438218,140.90906493208604 72.80383687105495,140.89997665281408 71.03028707543854,169.48073682771064 70.9321287110215,173.50809554208536 87.98838243540376,201.69342966552358 89.51085653319024,204.2210675252718 74.61146538658068,231.74243485782063 73.96105699555483,232.46646699256962 5,289.5002709889086" stroke="red" stroke-width="3.4183693592562667" fill="none" stroke-linejoin="round" vector-effect="non-scaling-stroke"></polygon><polygon points="400.1121749333106,238.70830529922387 401.7933917866321,249.4337470518076 401.6407657243544,252.5199274008046 418.4334190932568,254.40613203443354 420.4219269688474,255.44619453250198 439.94000412430614,273.3535648958641 446.1155342221027,274.8058910929831 447.3240180622088,287.23110357270343 445.8155249777483,291.2640021368279 464.1417207465274,308.68212270521326 465.7719651554944,310.42526564432774 482.0132423110772,314.36102125333855 483.40085788443685,315.4811638768879 512.3671873421408,380.0083518343745 514.2432645687368,383.8615996434237 529.3482931199251,387.6239994742791 531.6257419376634,385.35540135524934 535.4495490842965,392.3490348702762 536.3286052977201,393.48466209019534 554.7089774932247,370.2444274745649 556.8827337954426,371.9035538430908 558.6178358043544,381.9842335720896 560.2856541866204,381.30881357664475 558.1902498132549,413.79423157824203 558.9708563910099,415.22247469524154 591.5876866843319,421.9646359401522 595.3928524799412,425.5044592699851 597.785062115523,407.74077299266355 598.1051690665772,406.3832828938612 608.9992911643349,398.32394713780377 609.4163913954981,397.8051656804164 616.6865183288464,376.21177612413885 617.2853717332473,374.86906885768985 652.180233386578,349.0877548055141 652.6005375998793,349.30475676216884 669.6273729421664,322.8171154918382 669.731356728822,321.77147259254707 659.5520139377331,298.4486520495848 659.1576328532537,297.67806861159625 636.7291747555137,269.5410489552887 636.0650766221806,269.06010860647075 630.5684994843323,270.8458043380524 628.8683500088518,271.4543544680928 630.7645249421475,275.5356836171122 630.3194626844488,276.3049831042881 572.5149630577071,262.16424261190696 570.6642264176626,262.17922991281375 528.2644733155612,238.18005885765888 526.0479001599597,236.96867545787245 470.4430799643742,185.7105734057841 468.9013819732936,183.601608194469 446.16009870218113,189.58180250274017 444.8962733510416,189.73808585881488 419.40014791104477,182.53212512901518 413.9926997332368,180.35407071065856 414.7974818132352,196.2082999444683 415.02642090665177,196.60853646771284 401.6142600532621,213.05530358030228 401.12841983989347,213.52183139551198 400.1121749333106,238.70830529922387" stroke="red" stroke-width="3.616751342490632" fill="none" stroke-linejoin="round" vector-effect="non-scaling-stroke"></polygon></svg>