<svg width="320.5736476444872" height="465.3960769623518" xmlns="http://www.w3.org/2000/svg"><polygon points="5,153.8170436770888 5.542055537807755,156.0209256929229 6.149938346701674,159.85714550118428 6.470919111045077,161.33863798255334 6.652381013263948,162.24953574198298 7.498814862221479,165.49155593535397 9.491400533355772,170.8574009401491 12.172259840066545,170.35782470169943 14.274654720094986,170.19011590693844 17.428829582291655,170.58986602560617 19.132183040026575,170.79395570774795 22.745983715634793,170.73051045712782 26.60998627555091,170.86538705206476 28.147315199952573,170.73006678401725 29.431238257791847,170.43768598791212 30.053975893417373,170.2890552377212 30.794387057772838,169.5831687299651 31.665578951127827,168.81871461647097 34.76324721775018,170.98251665977295 34.88150328886695,171.00248192768777 36.33640248887241,171.94750254577957 37.35759900440462,172.67778331949376 37.72110535111278,173.32021544571035 38.88910250668414,176.20625664503314 41.741229226696305,179.0669717824203 44.252860017702915,180.96581314253854 44.48063402669504,181.52037822199054 44.82870300440118,183.9058795175515 44.921327217831276,184.1964679309749 45.391730062197894,184.33799100480974 50.78286705771461,183.9835176806664 52.32573013333604,183.326476137212 52.56690261338372,183.2009237499442 53.42090951115824,182.89036983565893 55.20319744001608,182.45115712680854 57.01810773334,181.8464618396829 60.13179591111839,180.9675877529662 60.86725546664093,180.93387015163898 62.25166705774609,181.15791464340873 62.902657991158776,181.39127559552435 63.34772024885751,182.05497764260508 65.48768910230137,184.40010141616222 65.47749461326748,184.83709203172475 65.18593223113567,187.36540962453 64.9636923733633,189.45982314646244 65.18476714659482,191.94594301155303 65.56924501329195,192.9387860726565 66.16635079111438,193.83757581491955 66.50480782217346,194.3206848835107 67.63756117329467,195.74205751321279 68.05000106664374,196.50686222838704 68.35263175109867,196.95447582670022 69.4527627377538,198.92724766407628 70.66561564442236,201.7184657373582 71.60554751998279,202.54668594081886 73.0135520711774,204.28607135894708 73.92989098664839,204.83747275720816 74.43699399114121,205.34318160067778 74.93827157327905,205.59381757274969 78.40964067564346,210.07993165333755 79.9542513777269,213.11232113605365 80.06085660448298,216.24003919033566 80.19367623107973,218.08755007444415 81.3503138134256,220.21715872816276 82.31704263109714,223.33900997816818 82.93191594665404,224.28558135125786 82.43325980438385,225.90636473102495 82.51831096888054,227.98710672423476 83.75737827562261,230.98642794659827 84.04923192888964,233.4680893504992 84.33438634662889,234.2318765890086 84.81381859548856,235.4094876361778 85.36082574224565,238.48189192597056 85.3401454933919,238.62737211654894 85.18111146672163,238.61983198707458 85.08266183105297,241.225596729666 84.86653866665438,245.7766298641218 84.92333653336391,247.38705489726271 85.7688965689158,248.9464638379868 86.71203242673073,250.76442984247115 88.55781745770946,253.80912354943575 89.1922059378121,255.56495918647852 90.03077546670102,258.43884044804145 91.15712085331324,260.8181907525286 92.24239701335318,263.2999611290288 92.23045489774086,264.6729943973478 92.03530325333122,265.65841547807213 90.85099491558503,268.8430428917054 90.81691619555932,270.3823443511501 91.21741397341248,271.97928623552434 92.98717724450398,274.55317220068537 93.79021169780754,276.6197095636162 94.24430335999932,278.4290225706063 95.06364899559412,279.156291278312 96.36038798221853,279.8232477973215 97.84179285331629,280.6436370353913 99.17843598220497,281.7735519373091 100.38983253331389,284.0249389609089 102.13425521773752,285.2213531578891 103.98411804449279,287.4762526229024 104.9453127111774,289.7688210539636 105.75213368888944,291.16075768938754 106.46895189327188,294.4988867191132 106.76284444448538,296.41580495540984 106.79022392886691,298.6874402096146 106.82168120890856,299.73833522119094 107.10829198220745,301.49025923013687 107.37276615109295,302.3819570641499 108.92669752892107,305.37583619344514 109.58264007105026,306.279490213783 110.59684607991949,307.7067949118791 111.24696320004296,308.2552783016581 111.45085297781043,312.92730847379426 114.01840782223735,315.7388148343889 114.74949831108097,316.50098805932794 117.70036593778059,317.6595395405311 118.7099116089521,317.57042041118257 120.650942293345,317.2693659722572 122.62284771562554,315.9574023046298 124.4284373333212,315.4546064621536 125.68701980437618,315.34198713093065 126.59549440001138,315.2604045874905 129.99550207995344,315.4346542225685 134.4746692266781,315.229811126017 137.00960170663893,315.31671428104164 138.75052913778927,315.14734177384526 139.4297733688727,315.00811924948357 141.40983438224066,314.69464655709453 143.90544526220765,313.81097927939845 149.62746623996645,311.6445828587166 153.90419996448327,310.55295223213034 154.82053887995426,310.75247894693166 163.959752533352,311.17769194574794 164.98502684442792,311.52930124336854 165.75019605329726,312.4732785494998 168.69319936004467,316.41585889388807 167.53277525340673,317.23300885478966 157.95578111999203,323.0190359476255 155.3363800178049,326.232543369988 154.4902374399826,327.8383928705007 152.4894961778773,331.4619304019725 149.81300593772903,337.19349816651084 148.2512102399487,341.46503341477364 146.18813695991412,347.3656901771901 141.8886840888299,353.8575608797255 139.89347697771154,356.5368871417595 131.58496853336692,364.7174089991604 129.82190449768677,367.7383717208868 127.88378652452957,371.2180796005996 126.58996024890803,375.0616525938967 126.19994823110756,376.9676783422474 125.56002560001798,380.19458685303107 124.8458288355032,383.22686282510404 124.36930929776281,384.03933374991175 123.66821973328479,384.8203313591657 119.03992177778855,389.0865154157509 117.86609920009505,390.78365814476274 117.60715918219648,391.3066715632449 113.96947427559644,398.65443625784246 112.91915064887144,399.62153250095434 113.483925333363,400.7840811929782 112.57632455113344,403.44200889312197 111.58454641781282,404.81018434953876 111.48900949326344,404.9887955523445 108.61358108441345,406.6095859109191 108.55678321770392,407.0337284349953 108.68552504887339,407.56911303155357 109.93886463996023,409.1974188237218 110.84763050661422,409.7771176144015 112.82244864001404,410.5398535428103 114.1095756799914,411.54722822923213 115.87992149335332,412.4832449477981 116.59353571559768,412.86837567779 117.40181304886937,413.5300544127822 119.66761102213059,415.71007906878367 121.11755861330312,416.30172670062166 123.64520931558218,417.51338066213066 124.58164593786933,418.87083294958575 127.10638392891269,421.81483162997756 129.167709582136,424.10024814656936 131.34350478230044,426.75745281914715 129.65762759116478,428.4321489891736 128.71070520894136,429.3574586145114 128.9577031111112,429.79175011307234 128.57206015998963,430.35322571662255 128.70196707558353,430.5096586816944 129.22538126225118,430.9802863692166 129.64277276443318,432.6319068833254 130.3767759645125,433.1978067589225 130.80756593775004,433.897092156345 131.03563121776097,434.9282903575804 131.4579743288923,435.50216093380004 131.91352234676015,437.9394325243775 133.27608860447071,438.3644013152225 134.1845631999895,439.01005098305177 134.77205703116488,439.97342591686174 134.92992597341072,441.2589532817947 135.97122019552626,441.9861303997459 137.37660330662038,443.8282131195301 139.47841564449482,447.31470156414434 140.33562652440742,449.09381756320363 142.90376391110476,452.7632268650341 145.19723263999913,457.2948479336337 150.33962410665117,453.6959676356055 151.16159118223004,452.9267337258789 151.98617969779298,453.84440820344025 152.99193884443957,455.4209738257341 154.6947097600205,456.7285665338277 155.37948814220726,457.225281360792 155.97601137775928,457.82568004360655 159.52602367999498,455.6695543960668 166.51012238219846,450.5698304742109 170.16470101336017,448.0414156790357 171.32599893328734,448.99987705098465 180.3358882133616,456.3288897445891 181.90147043555044,457.6147652674117 183.28850346663967,458.32726647745585 183.93279516440816,456.3665533309104 185.92188558215275,451.0904871394159 187.77903018670622,449.7779868844664 189.28868835559115,448.541694924701 190.39289713779,447.7578202106524 191.92177919996902,447.15296303725336 194.26563783106394,446.42624600674026 196.159773866646,446.1116299672285 197.79176590230782,446.1967092783889 201.19759900448844,447.0634528977098 202.2811275377171,447.533602286363 202.98979015112855,447.8491025416879 203.21814670215826,448.02369097300107 205.65288191998843,449.64948374044616 208.0395574044669,451.0444035350811 208.37772316439077,451.4941613795236 208.95065343996976,452.9196440000087 209.2984311466571,454.16388741647825 209.3764918044908,456.1201890502707 209.35610282665584,458.1309743952006 213.60021418670658,457.62495653226506 213.99343018664513,457.63381850125734 216.67574584891554,457.7330725300126 217.99112618668005,457.63559089496266 219.05572209774982,457.672811160679 219.87594154663384,457.62894441833487 220.4590663111303,457.4751892021741 221.99639523553196,457.12912880058866 222.81195434671827,456.926632258459 223.20371399109717,455.5574494675384 223.12885731551796,455.4586375664221 222.39135886216536,454.35486575507093 221.73629013332538,453.4119363015052 221.63143253338058,453.21298121870495 221.12869859556668,452.3081542887958 220.3364411733346,450.56584246095736 219.99827541329432,449.5785854223068 219.4163157333387,447.6000700741424 219.2712627199944,445.8670267656562 220.24614712886978,441.33694436063524 221.2085068799788,439.2737165724393 222.36834844446275,438.0874405170325 222.96661930670962,437.0101705021225 223.95927125331946,435.2703971658484 226.3150720000267,431.3259444856667 226.42022087110672,431.4775021050009 227.79094272002112,433.6165805986384 227.91094641771633,433.78453305899166 230.7814232177334,438.3546523010591 230.84259015112184,438.4437228240422 236.8532608000096,449.8621785590076 236.91850552882534,450.0243582208641 237.88261290674563,449.6020704926923 244.49504967115354,455.88180033070967 249.5567590399878,448.87757707905257 255.00411135994364,455.08864642411936 256.5341585066635,453.8275701738312 264.75237290665973,446.91234906506725 265.2122899910901,446.6925614880165 267.58789717324544,447.201263048104 267.7935345778242,447.60450125928037 268.3789895111695,449.1882011509733 271.66627527109813,452.21554446790833 272.21095224888995,451.8557394375093 273.4185622755904,452.06931835610885 275.34386432007886,453.25551951426314 277.2120772266062,455.164860218938 278.5379433244234,456.18443875416415 280.17139171552844,456.90757896378636 283.4668330666609,457.75389814650407 285.02163825777825,457.8744208245771 288.4772787200054,459.7686565053882 290.07635711994953,460.10141997761093 292.3479805155657,460.3960769623518 294.67407160892617,460.10363544512074 296.8332643555477,459.55818667431595 299.7142269156175,458.4034791577142 302.8890820266679,456.8552931700251 305.98733283556066,454.7128943079151 308.2694419911131,454.05266793689225 310.9849625600036,452.8895126624848 312.62598399992567,451.62089101120364 313.8300987733528,449.56263329752255 314.3214731377084,447.7139515042072 314.5763353599468,446.66996234981343 314.1653518221574,443.39527852943866 312.2429624889046,441.18893853994086 308.2458490311401,437.54326693166513 308.4683801600477,435.1963922404684 310.73971228452865,432.90488617378287 311.19409521773923,432.40191270702053 313.5918390044244,429.9424224747345 314.37331939546857,428.5358476740075 314.59934577776585,428.15517576795537 314.8702279111603,427.73284633341245 315.0216888888972,427.20593051600736 315.5736476444872,424.55316287180176 313.37076423107646,424.20439202548005 311.2826416355092,419.6299921578029 312.0641220266698,418.10590983065777 313.3378505955916,416.1346473423182 313.389988124487,415.3125441541197 313.0920177778462,414.5941431276733 312.53481614228804,414.4146533032181 311.5803207111312,415.30323730799137 310.86641521775164,414.55425651260884 306.588807680062,409.3946406773757 303.7393024000339,405.85880289936904 300.20880526222754,400.29964971198933 295.3970065066824,392.2937452165643 294.1465796267148,389.85597113519907 292.7228464356158,387.31001987698255 291.612229688908,385.1700507350033 288.9575847822707,378.2841563130496 288.2492134399945,376.62282187625533 285.97147335112095,370.5744485842297 285.0536780799739,367.57746161310934 284.8480406755116,367.2928765080869 284.15073763555847,365.3255943902186 277.570049422211,353.8633238598122 277.5033483377192,353.659846240771 276.8051714844769,351.8116934635327 275.4490131911589,347.13117421331117 275.3523111823015,346.6710079514887 273.9964441600023,341.1125850015087 273.1168054045411,339.008522799355 269.24872504896484,330.3681807372486 266.2972748799948,323.73995102604385 265.820172799984,322.66833163797855 261.29556736000814,315.872272930108 253.981167217833,304.2411643161904 248.14234652440064,295.4549090852961 246.24558904883452,292.5850558828097 244.22766279114876,291.1736172097735 242.06351843557786,288.8442581126583 238.1648546133656,284.02892997534946 236.23285333334934,281.97354804788483 232.33302442671265,277.142549327109 231.84252387552988,276.0480877471855 232.28875121776946,269.44395268691005 232.83284565329086,265.06281721254345 233.95831722661387,253.61043250648072 234.09812735999003,252.28700368700083 234.93349290674087,250.6424638176686 221.2565666133305,238.5147136846208 217.23731655115262,234.85062215779908 217.110904888832,234.75570359511767 212.53241429338232,231.00993621908128 211.61491029337049,230.03012704383582 208.09839416889008,226.80590769089758 207.29652480001096,226.05407100048615 206.62834887113422,224.58010882511735 209.37503544893116,222.46340567455627 210.79585592879448,221.15398487111088 213.36049806221854,218.37277066835668 217.70014634670224,214.0372005297104 221.9113440711517,209.93177112581907 224.3335546310991,206.94192370999372 232.61118833778892,194.68623227468925 234.38328177772928,193.54611280898098 235.244570453302,192.30927617673296 243.83590314665344,185.85658556385897 250.03852145781275,181.09181045053992 252.37422449782025,178.2479805019684 253.6467879822012,177.1570226191543 255.83394275559112,175.05317567649763 256.662900337833,174.6521026265109 258.4556740266271,174.05359735363163 259.039963875548,173.84995434537996 259.02044871111866,173.49635155225405 258.79908266675193,171.6147492674063 258.5482982400572,169.74555388343288 257.92090026673395,166.85587895580102 257.19097486231476,164.63302640465554 255.978413226665,162.5086506396765 255.78005760000087,162.13816948555177 255.78792191995308,162.1088859187439 251.78498304006644,153.65198458719533 250.55203242658172,151.0780230066739 248.01447850675322,151.67215332540218 244.90108159999363,152.45219653390814 242.51440611551516,152.96689930639695 241.11455715552438,153.1887535803835 237.8968851910904,153.37377987476066 237.11394844437018,153.2020648297621 235.92294087109622,152.99396553973202 234.65998933336232,152.7122103255242 232.8564386133803,152.21436795173213 231.34182883554604,151.54258956818376 228.31377436441835,150.1817218218348 226.0546756266849,148.99522645014804 224.128208497772,148.04611431469675 223.7218852977967,147.81893025431782 222.94419143116102,147.44132498145336 222.75282631104346,146.60313659068197 220.35333489777986,134.97688315657433 217.92180366220418,127.47835549886804 217.25857934216037,125.68112061196007 215.93591722671408,121.56650714250281 221.04481251561083,124.40795945737045 223.79994595551398,125.96291025704704 226.56964295112994,127.33590852585621 230.17878328892402,128.79454343987163 230.21693980437703,128.6614162226324 230.3200497777434,128.40625549887773 230.3978191644419,128.23141476348974 230.4648115199525,127.60127695638221 230.3270402844064,126.0463376736152 230.33723477332387,120.44686816399917 230.00198172440287,115.67624617740512 229.5997363200877,112.54133678867947 228.96243512886576,108.28046925994568 228.05250417778734,104.01463777472964 227.89900430222042,103.23841801751405 231.25590385776013,102.31662577984389 233.0903293156298,101.57324214477558 236.75918023113627,99.80508858244866 239.73859242675826,97.937949233572 241.65719523548614,96.6637407388771 242.08041216002312,96.39655990060419 242.16400696884375,96.4609141186811 242.65538133331574,96.93757857207675 243.91920668445528,97.2131913487101 244.70389105775394,97.34012400964275 245.50197390222456,97.71914627670776 248.63459470216185,100.21783653704915 252.25451207114384,103.22776661266107 252.94919367111288,103.71773071074858 253.8661151288543,104.07144505984616 256.64396771555766,104.37323351786472 256.6873671110952,99.44870451383758 256.81814783997834,98.3280659361044 257.15747868444305,97.1412923966418 258.39421582221985,94.61815696116537 258.73704191995785,92.6759666147409 258.697720319964,87.37923926243093 258.9103482312057,85.90346516447607 259.3053118578391,84.78897179313935 259.6691094755661,84.12808477989165 260.49078528000973,83.0770528766443 261.5847995734075,82.15562046074774 264.61518421338405,79.98429151321761 264.42556672007777,79.59813715785276 264.34371953783557,79.45876633992884 263.98866005335003,78.43389988865238 263.60243455995806,77.84267983643804 263.06212664884515,76.8697376914788 260.1846593421651,68.43887273478322 259.2383195022121,66.47559001483023 258.69218616886064,65.46753100317437 258.52732672006823,64.91844540776219 257.28097763552796,62.52899722929578 255.375482026604,59.120781812176574 254.50079487997573,57.27638180839131 253.2891070577316,54.22543077869341 253.08900380448904,54.24673830845859 252.33111637330148,49.93813644943293 252.00634908443317,47.20315614936408 251.85517937783152,45.32447454461362 251.67663018673193,41.07119051599875 251.53856768005062,36.147027547704056 251.36118357337546,34.47379935835488 250.71980458672624,31.003442002926022 249.95172266673762,28.185651122941636 249.05955925327726,24.747160640894435 248.6287692800397,22.890930709196255 248.1930276978528,21.26954706502147 248.21778574225027,20.485489263839554 247.97515690664295,18.78683581680525 247.26707683561835,15.914723239548039 246.70900138665456,13.509205903392285 246.41918663110118,11.84690620820038 246.16053788445424,10.083363062469289 245.7111065600766,8.366869746008888 242.73693724442273,8.053850257769227 239.96957041777205,7.772798339603469 237.35133440000936,7.382077859947458 237.21327189332806,7.461110012722202 237.22463146666996,7.291057649068534 237.08656895998865,7.370089834323153 235.23903630219866,7.202701408532448 232.078453475493,6.676559244981036 229.94227114669047,6.307592980912887 227.45947619562503,5.91598190437071 226.95848988438956,5.753476424142718 225.19862983108032,5.311247791047208 223.66596124437638,5.115885462728329 221.9160044088494,5 218.8649395200191,5.423137046862394 216.59855900448747,5.653131450410001 213.20000767998863,6.162847924628295 205.681717760046,7.330573745188303 200.41174954664893,8.28916991443839 196.56056291563436,9.017771263141185 194.1109728710726,9.558115746476687 191.8311938844854,9.984796036616899 190.77883135993034,10.193029927031603 188.42070044437423,11.031291451305151 188.24710286222398,11.131189990905114 186.7170557155041,11.658209539600648 186.2061661866028,11.799399062118027 185.02622691553552,12.03959864017088 184.9883616711013,11.964120057818945 182.58654008887243,12.336628811142873 179.5715928177815,12.886732961924281 175.06300728884526,13.525633482262492 185.5473109333543,37.68439744855277 187.4988273777999,39.61286482261494 187.34940529777668,40.72714194224682 187.56436337775085,41.83519840269582 188.34555249777623,44.30921628768556 189.59801827557385,49.44361403089715 189.8310351644177,50.47838095156476 189.71423544886056,52.11641907406738 189.43840170663316,53.74689863034291 189.29043598216958,54.688425183296204 189.55432760890108,57.83880336745642 189.57559039990883,60.317081171728205 189.71714815997984,61.83297625964042 190.21551303111482,64.22110029764008 190.90902954665944,66.07298839790747 188.78508060448803,66.5883360914886 186.47588323557284,67.31852090527536 184.0900815645,67.54046110046329 178.7965203911299,67.56665002880618 176.12702065776102,67.60615535546094 173.04333340446465,67.41217969480203 171.89456014230382,67.48719547386281 171.6225129244849,67.43748087756103 168.06259740446694,67.41839402064215 166.90858126222156,67.36557224526769 166.75712028436828,66.81249642756302 167.424131128937,66.79917997831944 166.85323975107167,65.13728081656154 166.07379825774115,64.65300176118035 163.4491542755859,64.3702462221263 160.48226673773024,63.66357773670461 156.5238923378056,63.216138231684454 152.35085112892557,63.09983932325849 152.39803704887163,61.979904338077176 152.39454179548193,60.55900363216642 152.35522019548807,59.92068288009614 152.09977543109562,58.84734104992822 151.84695210668724,58.26938559918199 149.7564993421547,54.17482538707554 146.90000355558004,48.73023907857714 145.41772487107664,45.89092181297019 144.7713942754781,43.923443563631736 144.19147349335253,41.60612949350616 143.83204494218808,40.385756441159174 142.68997091555502,37.25821454450488 141.70984362671152,34.824072903138585 138.55217351112515,35.33594186371192 136.79056583112106,35.50464082794497 131.31175623112358,35.76079664065037 118.90884977777023,34.22563310165424 118.45883591112215,34.42762891307939 117.98231637338176,35.21208122652024 117.91415893333033,35.83981865120586 117.63366485340521,36.391196163895074 117.19268039113376,36.91194033017382 116.73276330670342,37.369643695652485 116.1103169422131,38.09504165733233 115.7785591466818,37.445557547267526 113.23284963553306,36.79118816892151 112.35554104892071,36.35124131781049 111.56590506667271,38.63797872164287 109.20806542225182,37.736338433925994 108.73649749334436,37.65465346007841 105.66679125337396,36.95100719179027 102.15435292443726,35.49221038230462 99.71466609777417,33.79944353166502 96.13348778663203,31.701335819088854 94.37421027559321,32.451613610144705 93.77244415995665,32.41698546038242 91.94996081781574,34.63406400219537 91.02080597332679,35.44248859293293 88.12557112891227,37.75365209300071 83.33445262222085,41.43122012796812 82.49471800890751,42.375906630884856 84.1855468088761,44.184916749363765 84.66760049771983,44.79087633918971 86.48891875555273,46.28645740740467 86.78339384892024,46.54970348835923 81.9803332266165,53.947988796571735 77.61592689773533,60.56876930396538 74.98953528888524,64.24551407189574 73.3860878222622,66.37038988352288 70.93038108444307,69.76872831623768 69.37936241785064,72.06843633728568 68.65351480885874,73.33257755986415 67.28512312890962,76.20128134672996 65.98663651547395,78.77744594973046 65.26457543112338,80.25948156195227 64.49416334216949,81.96920303115621 63.67976931552403,84.17025022924645 62.73808981338516,87.36548021109775 62.36293262219988,88.67125475709327 61.67116373335011,89.91089014825411 60.95288917340804,91.06308351573534 60.32782136881724,92.01510316785425 59.090501688886434,93.81039248092566 57.931242666672915,95.42369937041076 56.98956316441763,96.92160100920592 56.18157710228115,98.19181365065742 55.374173582182266,99.52592850761721 54.63551004440524,100.84183897165349 53.829562879982404,102.42580310627818 53.407511039986275,103.43236226018053 52.8197259377921,104.70697556843515 51.036564195528626,108.28712623601314 50.47557603556197,110.14752130571287 49.706329031148925,112.95539234473836 49.03058005333878,115.66115753527265 49.00553073780611,115.65805105003528 47.58645788440481,122.150510004838 45.77213013335131,121.83720774902031 44.520829439978115,121.83987037627958 44.026251093368046,121.81146901712054 42.53086520882789,121.9521444637794 41.553359359968454,122.27520950429607 40.7873163378099,122.74471802148037 39.71252593782265,123.2781281900825 37.58042140444741,124.48783733323216 31.703735466697253,127.42687934474088 29.37531420448795,128.21144563518465 27.822256639949046,129.04615366167855 24.519824782270007,131.84269103955012 20.808448284398764,135.5923564148252 19.11033770663198,137.31939984532073 16.43035221332684,140.4011537656188 15.705378417856991,141.3463051126455 14.105717475526035,142.6002884132322 11.36864284449257,146.17228256107774 8.036210062215105,151.2222295413958 7.274827377754264,151.724511260516 5.369331768830307,152.6327863499755 5,153.8170436770888" stroke="red" stroke-width="3.251728215212577px" fill="none" stroke-linejoin="round" vector-effect="non-scaling-stroke"></polygon></svg>