<svg viewBox="0 0 81.18220236444837 89.06344497017496" width="81.18220236444837" height="89.06344497017496" xmlns="http://www.w3.org/2000/svg">
  <title>Jevíčko, okres Svitavy, Pardubický kraj, Severovýchod, Česko</title>
  <desc>Geojson of Jevíčko, okres Svitavy, Pardubický kraj, Severovýchod, Česko</desc>
  <metadata>
    <collboard>
      <support-module name="@collboard/map-svg-geojson-import" version="0.11.1"></support-module>
    </collboard>
  </metadata>
  <polygon points="8.05255000000011,25.593436659640815 13.064961733332666,31.985313804768907 13.437133395556657,32.10230002459832 12.46348688888952,37.624440074585095 12.567252222193702,37.760647472524965 21.677193128889257,40.69729102975509 22.28369240000734,40.63487071611564 19.031504808903037,46.154013475191846 18.921404328873678,46.174930614557184 18.783196186653868,50.3638203251536 18.615424026654864,50.71600981543418 16.870637253312225,51.17963256457699 16.806120702218095,51.661692608533144 21.494930231106764,56.11259188896622 21.732607457764743,56.32284925046372 20.92513111999847,58.95493325227983 20.928262284440052,58.98011789605482 25.397453395540424,61.66401497013396 25.555467973324767,61.712695367146466 23.006627297792647,65.47579517702218 23.03189506664762,66.0674483556719 34.23833261332015,71.18082817426296 35.05614907557151,71.65821596130957 47.23805357333163,67.95523230224319 47.32572617778328,67.8992506025603 45.11126473776653,69.87420090355556 45.037209057780046,69.94108425055276 60.10852297777433,73.25446169294412 61.147341395560716,73.4763430233794 63.29386384890654,79.30765561674309 63.417945342203666,79.67134746404884 68.65084930664284,80.86760237684177 68.82459252444801,80.82804231643206 62.883608488896925,73.31864326442121 62.61330889777287,72.91455663499767 64.9501770222339,64.4515444375644 64.98454701330752,64.3353018414706 62.62401311111876,63.27246882950533 62.481654355571436,63.219517756027585 63.492729199999076,59.20306894722273 63.60647056886933,59.034871970033805 67.0140512977739,57.618893779879386 67.08745161776437,57.54097681373935 72.94986527108244,47.9669150089245 73.12965236444848,47.80689268142271 45.07092368888675,38.885498419556484 44.381994693314255,38.81733992590273 45.292799457769206,34.69303076944891 45.27364838220069,34.507661263378054 42.63320294221171,30.689224743931504 42.631164044439856,30.58269705200621 46.12263085332938,31.208811433294272 46.27489282665897,31.230634191313243 46.88576116445597,28.52994555832231 46.7975060177921,28.221823704057556 44.91298192888621,27.559676457378032 44.84751874666085,27.52120282373619 48.20070459554677,26.38689345485875 48.81514100442996,26.306119561478795 48.838661146677396,21.430440600604584 48.806621324452635,21.341333745563702 46.63869044444414,17.536718229319035 46.407348364424024,17.38459561732418 39.727409519989806,16.37722270843335 39.62000329775742,16.342566860148168 32.55966438219889,8.520810584108062 32.0795039555594,8.279309711382325 16.78063447998261,9.316878141245638 16.735341822211694,9.3126018692343 10.442575102213368,14.354544642853966 10.22659757332417,14.580153015565543 8.05255000000011,25.593436659640815" stroke="#009edd" stroke-width="5.503508540584274px" fill="none" stroke-linejoin="round" vector-effect="non-scaling-stroke"></polygon>
</svg>