<svg viewBox="0 0 246.49035439996737 417.49253414758937" width="1000" xmlns="http://www.w3.org/2000/svg">
  <title>Dubí, okres Teplice, Ústecký kraj, Severozápad, Česko</title>
  <desc>Geojson of Dubí, okres Teplice, Ústecký kraj, Severozápad, Česko</desc>
  <metadata>
    <collboard>
      <support-module name="@collboard/map-svg-geojson" version="0.11.0"></support-module>
    </collboard>
  </metadata>
  <polygon points="8.052549999999883,44.90873474928185 97.18966559108912,113.86059804095521 97.24209439100332,114.05793714556012 80.55517243545137,128.36799080213632 79.65980503985293,128.94156910668926 71.63761609767198,155.2858895623135 71.5001361332611,155.56137533343963 55.70333869322303,160.45153413134494 49.49110843553308,160.2257237293884 47.48162903995353,177.91594167557878 46.8734549599244,183.7482862438551 67.4179715109999,203.2256934429529 71.68713218658331,205.7049614423081 75.57909677326779,222.68984769096232 76.16833823102161,224.43143444215048 48.34932567991882,244.03710811163864 47.0039444176723,245.01585093388667 29.271067902074265,288.40798959843914 29.39369303986996,288.98481945400226 61.09738839985903,313.83713769869746 61.35720223104681,313.9033160314207 66.36852169768053,333.8951367957993 66.18239945764753,335.18457160818025 95.05348326217018,378.85215916552215 95.29407319994743,380.1463790961784 107.40133947550885,376.78102358149 107.98737695100817,376.41668911235274 127.30243814210507,388.459156579665 127.67264372434101,388.93970195923566 117.68670495108336,398.77135201355077 117.33368436442788,399.109922891344 156.67043046220306,409.0642205847903 157.53929218659277,409.2539399226439 192.71901698664396,394.2959187985175 193.23747956436227,393.97663521834284 207.3457783731642,376.6183825451658 208.18929951100245,376.04408412005387 185.87094189329173,326.9887633637768 185.90123408879253,326.8306802341026 212.6914770754297,337.37328454838234 213.00488479107253,337.18993531363185 209.0179658222255,310.843006478251 208.85951433770924,310.0865394289499 225.047197608837,305.4906923295707 226.33578100437398,306.3138157418939 219.79616201771523,292.8203540511672 217.56182132437925,291.4093264839389 232.9112263377533,283.7684748930401 233.61755878208305,283.6540255279756 226.30141101321306,255.37168009972766 226.142085715524,254.86463438507735 197.64615910207021,224.80751970320807 196.31650647996094,224.07235976061884 187.49128308436002,177.77016553001113 187.349142782135,177.28363118295192 199.67253222221143,166.79574399386865 200.67450484433311,166.82655630107138 198.41511483546446,150.78424583291735 198.6251213064893,149.2729455131116 221.26212951992738,145.36678761707253 224.5264048621534,144.45244301637968 235.38062281764678,129.58276068999066 235.92413471101418,129.05564063255542 223.01965940438777,112.9934998348831 221.57844994657307,112.35961894013553 238.3128490932063,75.32265133169813 238.43780439996726,74.99691419638793 234.22835430209625,56.31175308509364 234.19835337773065,56.24825638803986 211.6746496265764,48.076351472736405 208.48814367104887,47.88079252051057 185.33675067543618,22.37102203918721 184.44516980436265,21.862507759571145 136.127661537706,25.268840245647425 136.07115494213167,25.30565521759081 133.89128194653995,13.663067101944307 133.81555145767152,13.61060293133005 119.12412788437314,20.61767814818404 118.6979982488333,20.625961696124705 99.02379977770715,8.216389662389247 98.5967963288781,8.05991358307756 81.18606566216431,21.69453671584006 79.39125307554013,23.723526126275374 44.72067017769541,11.925299711153912 41.51843558214705,10.416247224296512 8.052549999999883,44.90873474928185" stroke="#009edd" stroke-width="5.106857784912768px" fill="none" stroke-linejoin="round" vector-effect="non-scaling-stroke"></polygon>
</svg>