<svg width="478.0251983643975" height="239.57184027362382" xmlns="http://www.w3.org/2000/svg"><polygon points="118.82030335988384,120.20346948946826 133.84028074657544,136.83534586860333 136.50686776882503,140.17852946405765 135.10090211546049,150.03328430099646 135.89403335098177,150.48535535874544 182.20002332434524,135.73165123641957 186.32413098658435,134.88992973661516 206.91262947546784,136.858553298458 212.9914575642906,132.80614194157533 234.2533748621354,136.69877902022563 234.96698908437975,137.16292744071689 237.83280554658268,145.8298269562074 238.15203868434764,147.48640662187245 229.65624291542917,149.69054866564693 229.5895418310538,150.34879697312135 239.89471374219283,161.8296699122293 243.6564801421482,164.9337360052159 245.9214043021202,166.06495105708018 248.0861311998451,166.94626842276193 250.16580693330616,157.84688734693918 250.4066881421022,156.94768333563115 268.40112611546647,167.8735443558544 268.7378355199471,168.4000996927498 276.60040789318737,163.28264246485196 277.0702281955164,162.5655285238172 278.9844619376818,148.21428022382315 280.13032248883974,146.93659492448205 302.8745184709551,143.99472200591117 303.1011273955228,144.0616643325775 301.01795640878845,134.03481594787445 299.61694236437324,130.40233054792043 312.51996131555643,126.34622985997703 314.6395411910489,125.81644975015661 328.84541582211386,130.5286361813196 331.7412332087988,130.24344420654234 332.6237846754957,119.387129577226 332.7801972621819,118.97828898706939 317.54322289768606,121.05819064943353 317.18466815992724,120.7073759949999 323.6910822399659,115.26208960852819 324.72101688873954,114.19845770689426 327.6293589331908,103.89752177230548 327.90664903097786,103.03469943837263 324.9051002309425,97.27695884392597 324.17808753764257,96.70738116058055 312.45442531548906,91.48514218087075 311.119821084314,91.13740514265373 297.1262830932392,95.99049681029283 295.1086481065722,96.65203027270036 296.71850353770424,92.5171903372975 296.523060622043,92.34577782964334 280.2881914310856,84.21379730990157 280.0033282843651,84.15264003613265 265.6838579198811,88.33495489903726 265.1910271999659,88.16175355459563 241.3199032888515,55.01975860836683 238.73021183989476,51.79716812330298 228.4128065421246,53.91743973857956 225.94078862213064,54.281308262376115 223.3240089599276,44.68435378768481 221.0101512533147,43.630203635198995 213.77089905762114,49.56168592115864 209.02521884441376,49.3915793960914 187.97767708438914,41.39240606711246 186.0389765688451,40.896354883443564 182.8469364620978,43.973997335648164 183.07645809766836,44.58255551790353 190.45115135994274,47.23465297813527 191.36923790210858,47.695418168848846 186.90172159986105,57.444483531988226 188.3260373332305,62.38894665060798 175.48680675541982,63.80998490226921 172.47302456886973,64.05061849567574 157.27449799096212,51.07031520572491 156.56467029324267,51.55741407844471 156.35291619540658,68.29894119594246 156.42952049768064,71.50432589137927 162.75155996438116,79.99569122691173 163.07166691555176,81.6527661368018 151.19304846215528,80.05238553677918 148.01353301329073,86.59802494040923 139.1728722488042,86.99040892766789 132.2027545599267,99.7650497276336 135.7309215287678,120.25926078914199 118.82030335988384,120.20346948946826" stroke="red" stroke-width="3.4721998968340912" fill="none" stroke-linejoin="round" vector-effect="non-scaling-stroke"></polygon><polygon points="5,94.78348326700507 50.618590151076205,120.75825754448306 55.3866982399486,120.52973680931609 44.16431359993294,131.14320354774827 43.05806591990404,131.27129398845136 53.295662933262065,140.7305894747842 54.93027640879154,142.54519250208978 66.91753898654133,130.94370365375653 70.31230378663167,130.42910913343076 101.86482943990268,144.03533368650824 102.82485902216285,144.21964814292733 104.41112149332184,150.5750554286642 107.22858695103787,151.6831383545068 107.29354040883482,152.25525148102315 103.88129934214521,166.66960208513774 114.5907555554295,169.99002143274993 115.11387847107835,170.6709667231189 110.22605795552954,177.47405685822014 109.83691975101829,178.03985601954628 100.14895132440142,185.82212431600783 98.66812899545766,186.4177971916506 64.86466019542422,192.44181117485277 63.945117297698744,192.8585467361845 62.106322773266584,201.152937445906 61.970007893280126,203.03709036827786 99.71495736879297,218.66472135845106 105.09619114664383,221.31784645607695 129.0069279287709,221.6305803009891 129.4059693510644,221.79921548534185 148.277715911041,199.53825509396847 148.84656839095987,198.6566219346132 157.15274666657206,172.330483159516 157.19614606210962,172.0386519198073 166.2098218665924,185.0345842964016 167.3501482665306,185.40225205535535 180.6673547376413,184.7655260693864 186.46161095111165,184.6432673302479 184.30620472878218,174.09708022337873 184.21154161763843,173.86861481831875 193.99708586663473,177.80514771107119 195.1473154843552,177.65521983930375 192.46354346664157,181.62113466789015 191.06136433768552,183.74506509746425 197.69273372436874,200.79154231323628 198.1610976710217,202.84613267180976 196.36715889768675,210.7189849265851 197.13553208881058,211.29674465348944 220.6309162665857,205.93222077330574 222.0692130131647,204.3104348880006 236.4810163199436,222.91675491339993 238.22543900436722,223.80230608338024 258.0208062577294,229.85518723679706 258.22353095095605,229.91184298915323 256.67746389319655,224.548664582544 257.1638866488356,223.9776314093615 273.4878847999498,224.62851988489274 274.34917347552255,224.03830375429243 274.04683406220283,230.60955515515525 274.14936149318237,230.8040576414205 295.02388821321074,234.2756304750219 296.2137307021767,234.57184027362382 323.97652792884037,225.65191432612482 325.4299707732862,225.3298177216784 324.8748080354417,213.859838068136 324.1705144888256,212.466982299753 349.1088557509938,217.03946012171218 350.43850837333594,216.78873250610195 350.1588881065836,206.1686837428715 348.987395697739,204.54913039610256 367.6931177243823,202.34107553679496 372.27655992878135,201.002133129281 376.9540827021701,215.31960570754018 376.8294186666608,217.54448356316425 387.5184859021101,222.00577110401355 388.25744071102235,222.33233380375896 386.963323164382,227.63444870861713 387.2280886044027,227.8467983182636 398.711160888779,228.52354980574455 400.71364977769554,228.45574091712479 399.106415786664,216.95915593428072 398.9907811555313,216.66738380666357 402.46564551105257,211.83122682000976 402.3325346132042,210.931350840081 421.2904974222183,205.0407977119903 421.96216860436834,204.6624549019616 420.9071846399456,196.26423725485802 421.78682339552324,194.2720507773338 430.7565172620816,194.56652964442037 432.04655701317824,194.2408181471983 441.7409334044205,178.15364037576364 444.9364687643247,177.25094953388907 436.0972643553978,166.89004271128215 435.30180295102764,165.8168428487843 443.4585591465002,154.5722498219693 443.64293375995476,153.9479300560197 439.7707756088348,155.6937003970379 435.2045183998998,154.8034128031577 435.3821937777102,148.40126882342156 435.84181959100533,146.89419867331162 448.629495182191,147.94026800361462 450.24808874656446,147.85859980038367 454.1042269866448,135.224655002472 453.6547956621507,132.88781572598964 459.43827484431677,129.11695461178897 462.4372022043681,127.81996698427247 458.0427949510049,123.63929452141747 457.31024810660165,123.61653202224988 463.62413198209833,123.01711869629798 467.05821838218253,123.2393883104669 472.2871173688909,114.9733071369119 473.0251983643975,113.81638809049036 457.70899825764354,105.04065572679974 455.2489224532619,105.31025771587156 446.9191512176767,110.96646706183674 444.7844252443174,113.78469770692755 437.8300361954607,110.67455450946 436.95622286212165,110.48619482840877 427.80273692437913,119.52906314178836 427.6474894222338,119.6102955180686 434.71372657769825,122.36548359470908 434.56080924428534,123.6308143750066 420.96747775992844,124.11953807424288 418.89595761767123,124.2556664000731 412.68372735986486,106.8435011630645 412.89111239102203,105.8449971085065 403.06449891545344,106.15209226624575 401.8816469332669,105.1973284460837 403.3464493510546,113.95743255876005 403.77141390217,118.16417620668653 387.4593578665517,119.4380114316009 385.0808379732771,119.50942454079632 380.79565738653764,117.16349179140525 376.3989199643256,117.45628841558937 373.1611502931919,108.40842509805225 373.2945524621755,104.52600068226457 362.9095722666243,103.80378541751998 360.6332885333104,103.82521087356145 343.8630630399566,110.68124975578394 341.45366840879433,111.27980395813938 341.97970403544605,121.09702124481555 341.3380337776616,121.57280706398888 319.84047815098893,121.36526459571905 318.75724088889547,121.42908950464334 327.6293589331908,103.89752177230548 327.90664903097786,103.03469943837263 325.27297564432956,98.53886277449783 324.9051002309425,97.27695884392597 312.45442531548906,91.48514218087075 311.119821084314,91.13740514265373 297.1262830932392,95.99049681029283 295.1086481065722,96.65203027270036 296.71850353770424,92.5171903372975 296.523060622043,92.34577782964334 280.2881914310856,84.21379730990157 280.0033282843651,84.15264003613265 265.6838579198811,88.33495489903726 265.1910271999659,88.16175355459563 241.3199032888515,55.01975860836683 238.73021183989476,51.79716812330298 228.4128065421246,53.91743973857956 225.94078862213064,54.281308262376115 223.3240089599276,44.68435378768481 221.0101512533147,43.630203635198995 213.77089905762114,49.56168592115864 209.02521884441376,49.3915793960914 187.97767708438914,41.39240606711246 186.0389765688451,40.896354883443564 182.8469364620978,43.973997335648164 183.07645809766836,44.58255551790353 190.45115135994274,47.23465297813527 191.36923790210858,47.695418168848846 186.90172159986105,57.444483531988226 188.3260373332305,62.38894665060798 175.48680675541982,63.80998490226921 172.47302456886973,64.05061849567574 162.08163640880957,60.01026077975985 161.16180223994888,58.77983435650822 147.9605216709897,26.501900524657685 146.5860132976668,23.59503348590806 134.90458538662642,9.31376613426255 133.68474197329488,7.573086824384518 107.53849941317458,14.066849085036665 107.16421603551134,18.569769133697264 84.17185706656892,6.034239831962623 82.38432625762653,5 79.99590314656962,12.446775592514314 77.34475349320564,15.062197036168072 66.86481891549192,12.390063873375766 65.21913713763934,12.372201911639422 57.96182613330893,24.292952990159392 57.89104725327343,25.756656704004854 42.384355839923956,21.467325375240762 40.606728248880245,23.432497851958033 41.78899768879637,51.434634904086124 41.48345429333858,52.05254830850754 37.681201208848506,52.65929829503875 36.632625208818354,52.605275737063494 37.08001763548236,57.21545063116355 37.882760817650706,57.93112184811616 22.70899228437338,83.14778342063073 22.589279857696965,83.87051283090841 5,94.78348326700507" stroke="red" stroke-width="3.4141877925159547" fill="none" stroke-linejoin="round" vector-effect="non-scaling-stroke"></polygon></svg>