<svg width="428.29910300450865" height="270.0651259808219" xmlns="http://www.w3.org/2000/svg"><polygon points="5,143.6477283554268 6.184017066727392,146.5048041062546 5.601474844501354,148.48561442183563 6.045372017892078,149.4861001377576 6.187803591135889,150.30867749935715 6.86559146665968,151.36967845755862 7.514543502242304,152.10008793050656 8.354569386690855,153.46736381028313 8.2109727289062,154.09827021945966 8.181263075675815,155.68928328948095 8.171651128912345,156.75988635566318 8.033588622347452,157.8717490216368 7.851835448876955,158.16427111480152 7.249486791086383,158.8630213457509 7.188902400084771,159.54709746717708 7.382597688934766,160.64152305858443 6.984430080046877,161.71897895087022 6.846367573365569,163.19714799610665 6.832386560039595,164.32960937562166 7.417258951230906,165.32497842452722 8.022520320024341,167.90484728937736 8.557294080033898,169.84832510410342 8.254663395578973,171.56575993011938 8.002131342305802,172.83846844400978 7.961644657771103,173.79391184082488 7.766201742226258,174.61272897204617 8.175728924572468,175.77722279611044 8.209225102327764,176.50296518258983 8.089803946670145,177.71375296200858 7.728919040062465,179.212901471823 7.062490737764165,181.07742426689947 7.194436551188119,181.62022797821555 7.740278613404371,182.41105020191753 8.308257280034013,184.13159429497318 8.759144960087724,185.01638781576185 9.225470009027049,185.36159383913036 9.743058773456141,185.6572878031875 10.633474559988827,186.6818986418075 11.201744497870095,187.73492762766546 11.689041066681966,188.4129527179175 12.390421902295202,188.73523164662765 12.990440391236916,188.99287107028067 13.697355377837084,189.6589729965781 14.376308337785304,189.88222899840912 14.983608604525216,189.80292042455403 15.954997760127299,189.9711645899224 17.026875448878855,190.41813414776698 17.806316942209378,190.92607381549897 18.508862862247042,191.81542378809536 19.169465742306784,192.28301869746065 19.698705351096578,192.57228523789672 21.735272960038856,194.38718327012612 23.46076302230358,195.47180563415168 24.190979697857983,195.97789975209162 25.235477902228013,196.19518979784334 25.967442204477265,196.56054830615176 27.61691050673835,197.6612042702036 28.47907299560029,198.72426482988521 29.367449884535745,199.386669476924 30.24796245340258,200.7916940669529 30.961285404511727,202.34019019565312 31.837428906816058,203.41422939539189 32.39579562668223,204.0628676416236 34.19148202671204,205.584294871951 34.98723470221739,206.96819301490905 35.34695452451706,207.64019865513546 36.76690119120758,210.78062842023792 37.85654641781002,212.30842572957044 38.190051840036176,213.0129598842468 38.45539982232731,213.68769701279234 38.676183324540034,214.48573596554343 38.772885333397426,215.7173962740344 38.16354616894387,217.3070390248322 38.15917710226495,218.0120152568561 37.97771520004608,220.09117754054023 37.717027555569075,220.7163890952943 37.592363520059735,222.23907418677118 37.21516743116081,223.13837924721884 36.774765511159785,225.05202562606428 36.6075758934021,227.12837007659255 36.36669468448963,227.88006601959933 36.305236480082385,228.77705586707452 36.39669560897164,229.9527165350737 36.55835107562598,231.2058308458072 37.05438577779569,232.89206939813448 37.13244643562939,233.80599694611738 37.28128597338218,234.7116705836961 37.589742080075666,235.6723404970835 38.77783694234677,237.0821708641597 39.464071680093184,238.11570451466832 41.07713109336328,240.25333892035997 41.56559274671599,241.06502946600085 42.14172700443305,241.80567724216962 43.2535088355653,243.09263838123297 43.65313280001283,243.5262068969314 44.480051484541036,244.355759455706 44.96035754668992,245.28338793857256 45.735429973341525,245.00427484634565 46.82565774221439,244.6582474418101 47.43936597334687,243.36579581390833 48.338519893353805,242.3822441130178 49.92682126222644,240.4018358940375 52.619913955568336,239.354105067614 54.173554062261246,238.24220319400774 55.46767160890158,237.39612728502834 57.296562915551476,236.51979814987862 58.194260479998775,235.969798969978 58.908165973378345,237.50841815694002 59.672170097823255,239.7400152629125 60.79560277343262,241.87396703922423 63.10013980441727,240.28862987709 65.31904312898405,239.2638148156111 66.99414328893181,238.43974265042925 69.02634183119517,237.19583689112915 74.01086435560137,233.9962070583133 76.57375886233058,231.0027846530429 77.53291463118512,230.34597703884356 80.30144654226024,228.1252833379549 81.33953678235412,227.0004898358602 81.64857543108519,226.55817945918534 82.8628846934298,224.431410189718 83.49144775117747,223.5564035671996 84.86624739563558,222.18177888548234 85.81841265782714,221.35580813285196 87.15039544890169,220.23785490047885 88.39354055118747,218.9241722486331 89.90756778675131,217.38404564320808 90.97216369782109,215.82603140169522 91.55936625786126,215.00232824828709 92.18880312889814,214.16899598710006 93.48758101335261,212.30842572957044 94.56703175115399,214.0401913190144 95.81978880008683,215.3236507756519 96.9589501156006,216.2298602371593 99.84166030224878,218.64777533552842 100.91732451564167,218.50155526673188 103.3214762667194,217.06410129903816 105.66941269335803,215.33281831577187 107.36315420444589,213.71703336195787 109.6429331911495,211.64743583992822 110.24557312007528,212.40514460764825 111.73396849783603,214.52332302328432 112.61244216898922,216.79870298079913 111.45434823108371,218.61935639573494 110.28227328008506,220.64855097886175 110.3061575111933,221.1417519345996 108.15803306666203,224.3832826258149 110.45295815111604,226.68193478527246 110.83015424013138,227.05228363425704 111.94018844456878,228.07990669622086 113.09129187557846,229.19827771483688 113.59664725337643,229.3486156728468 115.01950663118623,229.99717609171057 116.10332643555012,230.84694771649083 118.28057799115777,231.39741827506805 120.26646442676429,232.11059869569726 121.95729322673287,232.69039980997331 123.52054527995642,233.04607150243828 124.92971491557546,233.86283082852606 125.4187591111986,234.11491641699104 127.24240753788035,238.18857876292896 127.38134385785088,238.52040836255765 127.88320398225915,239.49939437868306 128.27146837336477,239.63505875779083 128.6078865067102,239.23310695477994 128.98479132447392,238.9494027805631 130.74523392005358,237.24762824649224 132.86452252441086,235.3391315212357 134.98206350230612,233.652912059566 140.33650033781305,229.01493860018672 142.8533740089042,226.6924769023899 143.84952120890375,225.25645247707143 146.99321031116415,226.89598549692892 147.55798499565572,227.00553171063075 148.93831879121717,227.10453577229055 151.53500074672047,227.0238657994778 151.9343334400328,227.16137141681975 154.41305059567094,228.10282419325085 154.4526634666836,228.40625162416836 157.9726748445537,230.32489316054853 159.03581440006383,230.68927728990093 162.8002022401197,233.23169889306882 166.77750926231965,235.88638230547076 168.61513870232739,237.1280039466801 170.80928398226388,238.6125322356238 177.0864676978672,242.910686007177 180.93328526231926,245.49879516899819 183.5649197511375,247.2820838034968 185.95771192898974,248.87378595623886 186.9288098133402,249.51128848368535 188.381670115632,250.48243358003674 194.4235067734262,254.5718277558335 195.82160810672212,255.5117862765328 196.96921628457494,256.2661332593416 199.4112332800869,257.9008482155041 202.29569109342992,259.8888869191869 202.65919744002167,259.73857020115247 203.05590869334992,258.95078056986677 203.2554294045549,258.4310853147763 203.505340017844,257.7244077514624 204.4374075733358,258.110743437137 205.6400659912033,259.12217890744796 207.3393416533945,260.2458887056564 208.4342297600815,260.55935320275603 209.70737578673288,260.7994923638762 210.18622549332213,260.9855542021687 210.64177351118997,261.1844477141858 212.07133212452754,261.6257706831675 212.72348814224824,261.827413276711 213.02087594673503,262.3810128844925 214.45946396456566,263.71092932712054 214.52208725339733,265.0651259808219 216.9466279821936,264.6357251178124 218.40065336890984,264.0986291342997 219.44049123558216,263.5995686156675 220.07400590227917,262.512538410665 221.15491299552377,261.569402379042 221.31103431119118,260.9557659875718 220.99704405339435,260.4525736809592 222.1280497778207,259.1400519882445 223.1186628267169,258.2803092969698 224.6463798044715,256.80095725914 225.6780620800564,255.95862031751312 226.55973973334767,255.25055979401805 227.6415206399979,254.34268073906424 228.42183594673406,253.79456008953275 229.42235221341252,253.0695354898926 230.13975296006538,252.6657754771877 231.08813169784844,252.10848459537374 231.9138852978358,251.38116283755517 233.083630080102,250.52001437859144 234.01598890672904,249.7615226067719 234.7115443199873,249.3916709709447 234.8531020800583,249.3100927058258 235.4085560889216,248.90907550550764 233.74161152006127,247.41774329787586 233.29334527999163,246.93743497523246 233.0757657600334,246.44245963305002 232.7070165333571,244.2728043430834 233.351890773396,244.1343929793802 234.72203008003999,243.51841550430981 236.74840320006479,242.77869023446692 243.1455906133633,240.92524107993813 244.2107690667035,240.20613152784063 245.47896348452196,239.2193571649841 246.13432348449714,239.02594336186303 252.50180124456529,235.89829897379968 254.05398499558214,235.03663049312308 255.8552055467153,235.36800659727305 256.2941511111567,235.47434017725755 258.81830656004604,235.7552989104879 259.3580319288885,235.87721563706873 260.0803842844907,236.11646555474726 261.95121863111854,237.00242127728416 264.4077991823433,238.00753891846398 265.65473080892116,238.4984086258919 267.05953137774486,239.0616928456002 267.9589765690034,239.55668508977396 269.23823928891215,240.76116148213623 269.48785863118246,240.97428160597337 269.5895122489892,241.1076534476597 269.7467986489646,241.75113705307012 269.85253006219864,241.8945914703072 270.4726462578401,242.40974328940501 270.62032071116846,242.55044735391857 270.7033329778351,242.66640210041078 271.16004608001094,243.58395485777874 271.3744216178311,243.8681112654158 271.5689907199703,244.07802011375315 271.84919352887664,244.3640091336565 272.27794460451696,244.66008070111275 272.91874104889575,244.96898465964478 273.88663495122455,245.278804803791 274.3573290667264,245.33655229624128 274.7228743111482,245.4392144671292 275.2856100978097,245.27238841477083 275.99893304891884,244.83424025721615 276.43147064896766,244.50104540487519 279.29612202674616,242.82773034001002 279.9899298133096,242.51011525362264 280.72305919998325,242.1352096881601 281.898629404488,241.80613556300523 283.59848760894965,241.31710665492574 284.60745073785074,241.07557088159956 285.9318604801083,240.72082904790295 286.20915057789534,240.6924130101106 287.16684999119025,240.7689529741765 287.611912248889,240.69516294944333 289.77081372449175,239.84772166708717 291.5487325867871,239.37977132521337 293.56986282672733,238.78944662812864 294.98631424002815,238.27932779240655 296.7263678578893,237.9809558399138 298.48739299562294,237.6340005323873 301.5218554311432,236.94283823348815 304.02678698673844,237.86591523821699 304.9801173333544,238.09003810683498 308.21322666679043,238.17849553498672 309.2778225778602,238.12074613006553 311.5957580800168,238.0923297504778 316.66300160007086,238.08087153191445 317.6413812622195,238.04191358410753 319.7947485867189,237.83154054457555 321.2056658489164,237.7105415793485 322.76163612445816,237.50062654732028 324.1745922844857,237.18025364901405 326.3920392533764,236.6041312336456 326.86914133338723,236.5042148590437 328.1350055822404,236.24479873484233 329.24970012449194,236.1439655284048 330.7348915201146,235.8240489527234 331.99522161786444,235.64346546173329 333.42274133337196,235.3762566182413 335.36755854228977,235.0329638114199 337.6854940444464,234.57691978680668 339.6335152356187,234.21345888526412 341.23754524451215,233.75603811786277 342.3009760711575,233.66207882232266 345.5419497245457,233.328408408619 346.8014060090063,233.2142820088775 347.40987136005424,233.12582254904555 348.5997138490202,233.27111604675883 349.71236949332524,234.0333323859959 353.1310185245238,236.21546544326702 354.8069924978772,237.30491955421166 355.13554631115403,236.8795885228319 356.2327645866899,236.9891296766582 357.95971100451425,236.96254647284513 358.3721508978633,237.01937952527078 359.3662592000328,237.23800330521772 360.2220137245022,237.5249180352548 360.4835751822684,237.63583385111997 360.5508588089142,237.68075015716022 361.71798215119634,238.22616169898538 361.9553681067191,238.38932656502584 362.4773259378271,238.82886276842328 363.2655055645155,239.7643064991571 364.63972266670316,241.62464042723877 364.97031537781004,242.0261294625816 365.6271317334613,242.77869023446692 365.99588096002117,243.3167558304267 366.53181980445515,243.9556496963487 366.92649216006976,244.3809668040485 367.06455466663465,244.51067002274795 367.76506168895867,245.24030646675965 368.0636145778699,245.56937536370242 368.7192658489803,246.4484176763799 368.82587107561994,246.61982592771528 369.0443244088674,246.74861118214903 369.1072389689507,247.04651272232877 370.07717176899314,247.43286749301478 370.41708515561186,247.51536308409413 371.23235299554653,247.63956472015707 371.5740140088601,247.6789792465861 374.0171960889129,246.94018483505351 375.71792810666375,246.58774417970562 376.9488398223184,246.3640884332708 379.2647364267614,246.36683830042602 379.4403729067417,246.33567313739331 382.4617281422252,245.1876003991929 384.41266204451676,244.40754909539828 384.7383031466743,244.3323853663751 386.2424271645723,244.14355929760495 387.56683690671343,243.93640041089384 388.087047111243,243.89790183486184 388.43598990223836,243.91210964351194 390.1407997155329,244.10460244241403 390.91674595559016,244.23476414266042 392.6174779734574,244.50150372006465 392.88253468449693,244.52671105141053 392.8848648533458,244.2356807741453 393.1842915555462,243.81815476279007 393.4245902221883,243.12838719243882 394.0053848178359,241.28319083206588 395.02046464011073,238.15695409214823 395.7684488533996,236.03534061234677 396.00175701337866,235.3565482342383 396.7112934399629,233.81883040477987 396.8225590045331,233.55253598227864 398.03162538667675,231.74117519822903 399.29049912898336,229.95363322703633 401.8402864356758,232.35901960072806 404.0388007822912,234.25883423927007 405.6288497778587,235.670507161587 406.3879022933543,236.3795484919683 407.68784526223317,236.50971484411275 413.8546372267883,229.76983640674734 412.3042011022335,228.36408348701661 414.46659783122595,226.02511404076358 416.63889777776785,223.4427303672419 417.80864256003406,221.91180322080618 418.5091495823581,220.8974434233387 418.63905649783555,220.39965824777028 423.29910300450865,217.8960472830804 423.1217188978335,216.53055408986984 422.664131982252,215.3163167432067 421.5016689779004,212.76130806538276 420.36804181337357,210.57527110271621 420.25124209781643,210.4033758767764 419.6019987910986,209.56819232617272 419.4117987556383,209.36375063617015 419.04770986677613,209.0208749010344 417.34464768006,207.68878834077623 416.42219207121525,207.0053229854093 414.431645297911,205.81349358678563 413.62162033782806,205.62646745383972 414.5729117867304,204.34478401090018 415.33400320005603,203.1845697334502 415.81168782222085,202.64869623986306 416.19267043552827,203.1181013227324 416.70996792893857,202.69407822110225 416.2410214400152,202.11557184770936 419.3299515733961,198.4395906519494 419.1333435733104,198.17829518270446 417.4340679112356,196.0640823279973 407.00161052448675,183.3687435016618 406.76364202669356,183.7795096480404 405.9352669867221,183.906040134083 404.8360098133562,184.030278329039 403.37674154678825,185.67333320056787 400.97113344003446,188.41753705887822 400.27004387567285,187.98706702393247 399.10816341335885,186.875359292957 397.50995882670395,185.59723216260318 396.58167779562064,184.76103586057434 396.0402048000833,184.19027501373785 393.27458560001105,181.34790939482627 392.4459192890208,180.5327853890485 391.56861070229206,179.6227586119785 389.59816163557116,177.6046402179054 388.6270637512207,176.75236693077022 388.1432624355657,173.49224158929428 386.5634079289157,172.00497358565917 383.8962383645121,172.40246575901983 383.7776910222601,172.61015169025632 383.4759341512108,172.32315077004023 381.5867497244617,170.64790137141244 380.60545735119376,169.7039059100789 378.86656881775707,168.67142047995003 378.1514982400695,168.37845413311152 377.40060131566133,167.8612919129082 375.7802601244766,166.39690919592977 375.06227683555335,165.6541690218146 374.453228942235,164.82523129455512 372.500547413365,162.83356703148456 370.8950610489119,161.28753874695394 369.63036188448314,159.70527829957427 369.37753856007475,159.42788864747854 368.9508263822645,158.90015958226286 368.63683612446766,158.48705365456408 367.9669125690125,157.39857765025226 367.42252686223947,156.3454008299741 366.3177355378866,154.083597998193 365.0294434133684,151.29631641542073 364.82555363560095,150.8093752299319 363.46939534228295,147.4842070316081 362.62791310227476,145.20855567476247 361.73749731562566,142.6137428272632 360.98135751113296,140.69661510467995 360.24327651562635,138.5579957283917 359.54014805331826,135.80582189396955 359.08838655997533,134.58379411679925 358.22797169780824,132.66384383378318 357.5711553422734,131.23544845049037 356.7392850489123,129.12424902518978 355.559345777845,125.93998567719245 354.79388529784046,124.18825397681212 353.87026460445486,122.29939437971916 353.24810951109976,121.0438140911865 352.46196878224146,119.68917326728115 351.71223694225773,118.32947953953408 350.2436480000615,115.56283178617014 348.99729891563766,112.93326833174797 348.3879597511841,111.48181264073355 346.73994780448265,107.32229477056535 345.396314168931,104.27621115552029 344.20647168008145,102.05101121641928 342.33272462221794,98.59897082083626 341.78222222218756,97.42213668435579 340.97307107562665,95.6091758388211 340.5647089778213,94.41214554064209 339.37574030226097,92.0772294254275 336.828574435669,88.1622555021313 332.64679509343114,81.25079577410361 332.52009216009174,81.41086858144263 331.34656085341703,79.9059960435261 328.8384253155673,78.51669721707003 328.9913426488638,78.28231809253339 328.67997383116744,75.86191449296894 328.77288931561634,74.77577421657043 327.43624618672766,72.17690458294237 325.66560910234693,68.19689484481933 323.6686543644173,69.56791258620797 320.23107271117624,68.91199016215978 318.91307093342766,68.86749745009001 317.3734118400607,68.73126713040983 315.95899932447355,68.63585998665076 315.0446993067162,68.66154652944533 314.0969031112036,68.7014524025144 311.11982108454686,68.89501871645916 309.0611168711912,69.00602112151682 307.2855281777447,69.0184056838043 304.58136718231253,69.17435937077971 302.07993087999057,69.08583273290424 300.0509363200981,68.81566572241718 297.1935667200014,69.49773356883088 295.8679918933194,69.70505975041306 294.74339413340203,69.79771430703113 293.89433884446044,69.89082750951638 293.75744142231997,69.87156271224376 293.0280985600548,69.93440263980301 292.2393363912124,69.728452736279 292.0703991467599,69.61240515398094 291.51378005335573,69.06060492788674 290.8671581867384,68.93492454622174 290.5004478577757,68.36156421370106 290.38510449777823,68.34459272457752 289.83023303118534,68.31477794336388 289.77838677342515,68.43908261955949 288.0339640888851,67.28410135972081 286.2566277689766,66.53230523620732 284.51162254228257,65.9419668490882 282.8327358578099,65.4548332588165 281.78852892445866,65.17135953408433 280.10876842669677,64.58698048751103 278.0722008178709,63.858568599272985 275.3942542222794,62.492101636889856 272.4623192178551,60.7857259226148 271.71928661339916,60.446742690808605 270.69401230232324,59.95592705515446 270.01010773330927,59.688500870310236 270.0185545956483,59.55822796054417 269.73369144892786,59.33208501158515 269.01454307569657,58.856862951943185 268.5129742223071,58.874293895380106 267.83722524449695,58.46420764288632 266.73097756446805,57.86192071746336 265.29297208902426,56.93211117683677 264.2071133867139,55.950004104408436 263.36009699560236,55.365141395886894 262.4670597689692,54.835781940084416 261.7458724977914,54.442201885103714 258.9109307733597,53.25870509224478 257.5573939200258,52.45227216789499 253.0123995023314,49.84625303890789 249.70443349331617,50.00267929513939 247.37513841781765,48.170053728914354 246.81706296897028,46.7259613541537 246.51821880892385,44.72219838300953 246.48472263116855,43.62443299556617 246.15383864892647,42.75236382847652 245.3094436979154,41.92157819651766 244.24426524457522,41.19630110374419 243.48841671121772,40.64259329700144 242.5528539023362,40.47652655298589 241.51651128893718,40.017319228849374 240.82561621337663,39.902173183334526 239.7773314844817,39.52599842339987 237.12734691565856,37.365733369544614 235.81196657789405,36.60786928492598 233.7352035555523,34.60080113081494 233.28548096003942,33.786499590438325 232.420697031077,32.13127888488816 231.1423081245739,30.114993733761366 230.3975278934231,28.86254774715053 229.72498289775103,27.6302806159365 229.28545479115564,27.23527466034284 228.62514318234753,26.667767743289005 227.58268387557473,25.15012672235025 226.45400831999723,24.07978884060867 224.92570880008861,22.910806817759294 224.1911230578553,21.880831150745507 223.60013397340663,21.162827390711755 223.35459242668003,20.712296017212793 223.17196544003673,20.178263721987605 222.31300693342928,18.60414538317127 222.13300138677005,18.03982735896716 221.09724131564144,16.45422345836414 220.24469077342656,15.715096829284448 218.94795178680215,14.685086849320214 217.38120448007248,13.192137161269784 214.70995712000877,10.757698604546022 213.50992014224175,9.731794304563664 211.78006101341452,8.12227094109403 210.3193363911705,6.6329464497976005 191.02029511122964,7.9089210203965195 182.87518976000138,8.411325336433947 181.21931349334773,9.790981223573908 176.84238250670023,8.798565856472123 174.07763712003361,8.406278358248528 170.82734279113356,8.754060760955326 169.58245006226934,9.122489265399054 168.66844131564721,9.759323106089141 167.44364629336633,10.291545913147274 166.72915825783275,10.30760433949763 164.75113614229485,9.821721709973644 162.790299022221,9.315191346162464 159.26737493334804,8.31635036348598 157.87014741334133,7.545537444355432 157.36129678227007,7.199129551940132 156.7962308267597,7.080754277354572 156.48544455121737,7.1816944381571375 156.10184049780946,6.954579010081943 155.3323022222612,6.637534649402369 154.16517888009548,6.043361982272472 151.52334990224335,5.140399926982354 150.50186211557593,5 149.24240583123174,5.279882116999943 146.6937836089637,6.328748594794888 143.43096462229732,7.34319859725656 141.62974407116417,8.033719279221259 139.7536668444518,9.109642453782726 134.68292807112448,12.68423828005325 132.02129265782423,14.826398085977416 130.76678798231296,15.296670204785187 129.92705336899962,15.443945457867812 123.46345614234451,15.205827475350816 121.94272967113648,14.833280124410521 121.07765447115526,14.11479413305642 119.9207256177906,12.920065009268 119.80421717336867,13.036601858388167 120.05354524450377,14.104700443102047 120.76453802676406,14.621772044396494 122.32895516452845,16.40237915283069 121.62262271996588,17.275472302164417 121.18309461337049,18.43714410526445 121.0421193955699,18.788121916295495 119.3955638044281,20.024568615772296 119.08798151114024,20.42188171116868 117.90949859563261,21.06831681384938 117.27394503122196,21.176132274442352 116.58188487112056,21.590418415667955 115.88137784891296,21.565643851587083 114.21676344890147,22.62085425358964 113.98054257780313,23.197088714397978 114.05918577779084,23.512273632979486 114.06588501331862,24.14310087315971 114.00180536892731,24.439474344137125 114.03996188449673,25.433194190845825 114.35074816003907,26.62326632940676 114.78619847120717,27.360520529386122 114.80047075566836,28.587283919623587 114.85989006236196,30.242531782132573 112.24223658663686,30.342543580394704 109.71138190221973,29.879644547530916 109.27564032003284,28.649218311416917 108.27512405335438,26.920095174224116 106.83012807113118,27.706437314045615 105.54707882669754,27.338499282952398 104.31820600898936,26.356257653736975 103.1537041066913,26.779250626335852 99.53378673782572,28.551040822814684 97.8639294578461,29.8828559415997 97.63411655114032,33.836045912641566 98.03111907560378,33.95899414474843 100.21419605333358,33.836045912641566 103.11991665780079,33.63327292917529 104.19849358231295,33.9722982403473 105.44892046228051,34.85311929503223 107.9445313422475,35.755498390470166 110.10721934225876,36.27802325057564 112.45806848001666,36.89917934144614 114.5895904712379,36.87073648715159 115.56039708445314,37.14965980040142 116.41411271120887,37.87816175544867 116.47032803553157,39.159915528201964 117.06510364450514,41.47659506968921 117.14083413337357,43.69049174740212 117.48482531565242,44.99973534309538 117.67153009783942,45.7360093522002 117.7265803378541,46.50852094171569 118.78564209782053,50.28020947094774 119.10604032012634,51.51188867579913 119.61838620447088,52.976132806099486 119.74858439108357,54.067887321521994 120.34394254221115,56.01972880796529 120.56705621338915,57.66972065222217 120.78550954675302,59.35547912074253 120.96085475559812,60.20867431140505 121.33164288010448,60.80499153007986 121.52359054225963,61.154065691982396 121.61679729784373,61.99395141011337 121.50611427566037,62.76090045343153 121.40504320000764,64.60120009054663 121.62932195561007,65.21126605180325 121.7568987023551,65.70023496932117 121.7802003910765,66.41900809510844 121.96981788449921,67.17951974942116 122.30011932447087,67.68729051545961 122.93101255118381,68.51751837477786 123.13606741337571,69.05372461688239 123.12150385777932,69.50874204363208 122.91470136889257,69.91651390312472 122.49294080014806,70.28621415892849 120.99435093335342,71.92692341649672 120.38763320900034,72.99656557122944 119.59158926224336,74.22536320792278 118.64874467568006,75.25233728223247 116.5081932800822,76.29077327577397 112.01096732448786,76.49121286411537 110.76898730674293,76.37883828947088 109.91265024011955,76.41507336276118 108.9800001422409,76.26187693531392 108.11142968898639,75.95823579112766 106.18175857781898,75.59267330350121 104.09887886221986,74.73541079019196 102.46426538669039,74.22077644366072 100.92023722676095,73.82081022247439 98.1356854045298,73.43460360431345 96.77923584007658,72.98876802745508 95.8745477689663,72.3810174309765 94.95529614225961,72.0484739280655 93.78176483570132,71.67648327891948 93.33408113778569,71.62373486132128 91.9522909866646,71.60080076259328 90.55681109335274,71.6214414514252 88.83976789331064,71.79161238920642 86.89990229334217,71.03524511976866 85.87608433782589,71.01001754234312 84.21380010677967,71.1054236376076 83.06677447108086,71.19119735079585 81.91712739563081,71.09487392724259 80.65155441779643,70.85314781335182 80.29387349344324,70.82379206205951 80.12377116456628,70.89167723112041 79.83483022230212,71.17697818140732 79.60967765341047,71.65997073211474 79.52783047116827,71.60080076259328 79.45588650670834,71.6673096420127 77.21717674669344,70.39996795641491 76.3885104355868,70.08072327595437 74.2167930311989,68.53127903066343 73.00801792007405,68.00745611212915 71.39845375996083,67.4946405008086 69.527036871179,66.73321257118369 68.19942314666696,66.36396492813947 67.3960974222282,65.9777449790854 66.24965432891622,65.3351138184662 65.03505379555281,65.15255301166326 63.6299619555939,65.40070723654935 61.83340174227487,65.85664974601241 60.85473080899101,66.02820130618056 59.631100871250965,65.77546085853828 56.27653148456011,64.39295161626069 54.23996387561783,63.37326510890853 50.53907313779928,62.30449270847021 49.34544412442483,61.68019874399761 46.89876679121517,60.686645628360566 45.48464554664679,60.24215986038325 44.180624782224186,59.90409318928141 42.96981077338569,59.514650737226475 40.05040042672772,58.97566856484627 38.010046293376945,57.93714933615411 37.60634453338571,57.796783721714746 35.55608718225267,57.59540936391568 34.13148017786443,57.47889655182371 32.283947520074435,56.926606619148515 31.16721408010926,56.41284727444872 30.58525440003723,56.007802215463016 29.69804259564262,55.24449893046403 28.271979235694744,53.41558759799227 24.895564515609294,58.92888026183937 23.681255253381096,60.88113653333858 23.434548622230068,61.21920167549979 22.548501902259886,62.729708798986394 18.405170346726663,69.36471445375355 18.267399111180566,69.54910644656047 18.14739541336894,69.75964338012272 17.086294755572453,71.54621759802103 17.05250730679836,71.63657795550535 17.909135644556955,72.56907628878253 20.2838690134231,75.10097472852794 22.475392853375524,77.53927496017423 24.38234481785912,79.89590542734368 24.072432355605997,82.74189919471974 23.912815786665305,84.5627651452669 23.57028096006252,85.48282406880753 22.899774862336926,86.28592314670095 22.681030257837847,86.6455050901277 22.601513244444504,86.93766497843899 22.71860423113685,87.8311122325249 23.213473848998547,89.8115432303166 23.310467128874734,90.30550153751392 23.526299022254534,92.11162731208606 23.93291349336505,93.13393000361975 25.835496391169727,95.5064424641896 26.922228906769305,97.66245719260769 26.967667200020514,97.7523480009404 27.679825066705234,100.32293411850696 28.76772266672924,104.49909677862888 28.316252444521524,109.5281791597954 27.893618062254973,113.74314426752971 27.498945706756786,117.43982707342366 26.644064995576628,123.19407113426132 26.185021724551916,126.256854999403 25.74199836445041,129.12654182466213 26.790574364480563,132.32589046581415 27.044562773313373,134.0046468313667 26.455030044540763,136.37258365034359 26.102592000039294,137.47629746457096 25.160329955630004,140.19681101368042 24.565554346656427,141.5494891408598 23.026769066695124,142.32349234173307 22.614911715616472,142.32807766046608 21.85294648888521,142.70223934325622 20.849808782339096,143.4221319348435 19.900556231150404,143.40012251533335 18.7305201778654,143.86461249698186 15.881888711126521,143.7036688947701 12.524989155586809,143.39278604177525 12.396247324417345,143.3492257242906 9.745097671169788,143.44826811755775 8.89487729780376,143.4528534124256 5,143.6477283554268" stroke="red" stroke-width="3.3888186965055436px" fill="none" stroke-linejoin="round" vector-effect="non-scaling-stroke"></polygon></svg>