<svg viewBox="0 0 113.00247898664317 99.66386084446209" width="113.00247898664317" height="99.66386084446209" xmlns="http://www.w3.org/2000/svg">
  <title>Potštát, okres Přerov, Olomoucký kraj, Střední Morava, 75362, Česko</title>
  <desc>Geojson of Potštát, okres Přerov, Olomoucký kraj, Střední Morava, 75362, Česko</desc>
  <metadata>
    <collboard>
      <support-module name="@collboard/map-svg-geojson-import" version="0.11.0"></support-module>
    </collboard>
  </metadata>
  <polygon points="8.052549999999883,73.80597354580061 9.945448133315494,79.54271455969831 10.44891024888011,80.04736794629537 15.748078391108265,77.45661469725712 15.901068542217672,77.47302506013477 21.721539155528717,82.4900943598692 21.74615156444588,82.5297678154526 21.928487279983074,85.31830143166701 21.9592891999705,85.62005064794323 17.802923262213426,91.33544003224927 18.09099039110106,91.61131084446208 40.564377057751244,81.92083892187622 40.62656343999652,81.87824286737998 45.697957573319854,83.91607292764058 45.9863887910974,83.90719439283532 45.15684866664333,86.48809014853725 45.18080571553537,86.6383436473185 47.229388257757364,89.36519884497795 47.277011084435344,89.50544307439816 49.88002818666382,88.11736899380742 50.03520287111269,87.84709950730723 49.62305424886972,84.31774083233142 49.792282764428364,84.0786959624453 55.568844257773435,82.15427370357031 55.90963145776868,81.92758235755139 69.49662779554592,91.11822590596387 69.54876532444132,91.16868079016388 68.42773563552282,78.60240589058196 68.43348823997758,78.5286731392913 80.66083103110532,58.05196668535757 80.72694957332669,57.982141650623475 81.13378249775951,54.62526271837817 81.10312621333969,54.452544414779936 77.01593716443267,43.33265691424424 76.95433332442872,43.132122838483724 77.32570399108909,34.982034844396935 77.37121510221141,34.66212091259479 88.5201266044237,37.37570563516749 88.85050086220826,37.421260854687375 101.42372809776089,35.813419867037396 101.59674313775713,35.81465720509698 104.17471092442383,32.81133037550137 104.33607511997207,32.65519202019607 104.93805968887273,27.25228308862245 104.94992898664304,27.09601637135313 101.02767220442865,28.195836573103975 100.75395017778601,28.135761040211605 100.61850911108877,25.84440399628477 99.87795231110749,25.586202646161496 99.11198210664543,30.137793282330335 99.06792735111185,30.219128512929842 96.88390374222172,29.820100988486615 96.69545133331076,29.77037702770724 94.89226470221865,28.124398432024122 94.79243152886147,27.944283901808035 95.49694352885808,24.81732918938326 95.51522079110828,24.55586024981278 73.86642263999192,14.379427817191413 73.77095853331366,14.358047238223321 70.49860041778402,8.23295509348793 70.51738740443352,8.143033976513493 62.36638381332841,10.043613073786787 62.311406391097535,10.069834481480598 58.24438786667406,17.166821133177677 58.21729965331133,17.23084702950257 57.6014797066523,24.265475251849807 57.59849417777832,24.365383166201013 55.28558310220933,23.94549867716671 54.467038462207256,23.13036002602132 49.486812186667066,31.857507060361627 49.5589746044202,31.9206158271478 43.872561520001454,32.17833732622205 43.76726701332473,32.23379622432515 41.89322868444242,34.11025373687846 41.525061999978334,34.666170467716825 42.86141385776091,37.293143733295096 42.992121768860216,37.411024993859996 39.42091949331325,38.09963545266476 38.521474302200204,38.21976458324173 38.52657154665894,38.268918467969 38.98517791109725,40.90347961210466 31.792310639989864,49.01849888110121 30.992698622204898,48.857121197091715 28.1729029955236,61.12991416337138 27.460963582219392,61.83936354851869 29.94863732442127,62.327203045897136 30.088520275523024,62.20836354110327 30.96488223109145,65.1947884337784 30.977698159992997,65.3029411111853 23.636719528883532,66.52520891301504 23.081338337774923,66.65044710091718 18.663775031112436,64.38779632833723 18.563577768865343,64.3574411410442 18.795065484423958,63.45149969537272 19.66691273774586,62.57039036772733 17.722022711102454,61.29282974014461 17.060982924427208,60.570893054092835 11.422775208869552,70.61036687231501 11.773756897753174,70.96840370006214 8.052549999999883,73.80597354580061" stroke="#009edd" stroke-width="5.430714706409641px" fill="none" stroke-linejoin="round" vector-effect="non-scaling-stroke"></polygon>
</svg>