<svg viewBox="0 0 207.78421025776993 187.56009489107169" width="1000" xmlns="http://www.w3.org/2000/svg"><polygon points="8.052550000000338,46.22331700017776 31.923382639979536,112.07326091800451 32.58223789334443,113.67555509738258 30.295177128842624,148.10663121924836 29.6570021244479,149.13232631979145 37.078298764397914,178.72072137814348 38.288530231082404,179.50754489107157 74.84742374227062,176.17067856199674 75.29132091554493,176.21493797240646 83.83488514667988,157.02384836631927 85.30027010662161,155.3959377326314 118.06739629337244,138.70435230070825 118.45915593775135,138.526390131075 176.48618669340067,139.98764308085765 177.58515259551496,139.66704465726025 185.61258441778045,132.09863986957453 186.2810516177924,130.38826772382117 181.69324034671445,115.21523119396397 181.9044119021637,114.7796689651218 199.0914463555455,105.49850039740659 199.73166025777027,105.11971450466763 180.09183177768864,113.29320574660187 179.56346598218806,114.00602961463255 179.52851344887313,135.72234909781355 179.18335718216986,135.95039395520098 111.22252518215828,141.3836045493731 108.27020120001544,140.79606771431963 128.39353972438403,120.76790323665 131.2153742488954,119.6960163630788 129.32939380440075,109.09581583910722 129.11967860439472,107.9590275869482 99.81547465778567,90.46552141020175 98.25804802668426,88.9864969608384 113.17375035546866,74.0315564221014 113.19617823101726,73.78600370765298 91.36890370664332,47.89453186773562 90.87665552888211,46.50916005814315 111.82749527993292,25.991036614846507 112.15138875551202,21.615712692473153 95.66165734219976,8.514720619517448 94.63405286227498,8.071788486594869 65.00479035554599,21.331179410080495 64.04039170672331,22.138250843483092 54.933800417791645,16.163436175359948 54.191932897760125,15.837288492395146 55.27691778666485,40.66831506274275 54.463980115579034,42.043882247271085 30.6779073688449,33.83150664813684 29.410586764432082,31.683748497547185 31.49870935999934,41.2440413022191 26.620500791097584,45.61315937046993 19.068423422148044,48.98555634855393 8.245662746696325,37.271186422301525 8.052550000000338,46.22331700017776" stroke="#009edd" stroke-width="5.89770387600034px" fill="none" stroke-linejoin="round" vector-effect="non-scaling-stroke"></polygon></svg>