<svg viewBox="0 0 64.02487756444249 58.96884872276793" width="64.02487756444249" height="58.96884872276793" xmlns="http://www.w3.org/2000/svg">
  <title>Blansko, okres Blansko, Jihomoravský kraj, Jihovýchod, 67801, Česko</title>
  <desc>Geojson of Blansko, okres Blansko, Jihomoravský kraj, Jihovýchod, 67801, Česko</desc>
  <metadata>
    <collboard>
      <support-module name="@collboard/map-svg-geojson-import" version="0.11.0"></support-module>
    </collboard>
  </metadata>
  <polygon points="8.05255000000011,17.595241750044465 14.02025815999491,34.05772772950115 14.184971973336133,34.45830127434567 13.613206782210682,43.066070304812115 13.453663031112,43.32249407994789 15.308987191099504,50.719592844535896 15.611545057770627,50.91629872276792 24.75126843556768,50.08208214049921 24.862242728886258,50.09314699310164 26.998133786669996,45.295374591579844 27.36448002665543,44.88839693315788 35.556261573343136,40.71550057517709 35.65420148443786,40.67101003276878 50.16095917335019,41.03632327021444 50.435700648878765,40.95617366431509 52.44255860444514,39.06407246739366 52.609675404448126,38.63647943095532 51.46272258667864,34.84322029849102 51.51551547554095,34.734329741280476 55.8122740888864,32.41403759935167 55.972327564442594,32.31934112616693 51.062370444422186,34.36271393665049 50.93027899554704,34.540919903658164 50.92154086221831,39.96999977445341 50.83525179554249,40.02701098880027 33.845043795539596,41.3853136373433 33.106962800003885,41.238429428579934 38.13779743109603,36.231388309162526 38.84325606222387,35.963416590769725 38.371760951100214,33.31336645977683 38.319332151098706,33.029169396737075 30.993281164446444,28.655792852550462 30.603924506671092,28.286036740209624 34.33285008886719,24.547301605525377 34.33845705775434,24.48591342691327 28.881638426660857,18.01304546693393 28.758576382220554,17.666702514535814 33.996286319983255,12.537171653711653 34.07725968887803,11.443340673118314 29.954826835549966,8.168092654879388 29.697925715568772,8.057359621648743 22.290610088886524,11.37220735252015 22.049510426680854,11.573975210870799 19.772862604447937,10.080271543840013 19.587395724440057,9.998734623098812 19.85864194666624,16.206491265685713 19.655407528894784,16.550383061817797 13.70888934221125,14.497289162034235 13.392059191108046,13.960349624386822 13.91408983999986,16.3504228255548 12.694537697774422,17.44270234261751 10.806518355537037,18.285801587138508 8.100828186674107,15.357209105575407 8.05255000000011,17.595241750044465" stroke="#009edd" stroke-width="6.136662846851454px" fill="none" stroke-linejoin="round" vector-effect="non-scaling-stroke"></polygon>
</svg>