<svg width="21215.56915370666" height="3356.3691807934083" xmlns="http://www.w3.org/2000/svg"><polygon points="21013.139769173344,3330.3066223569913 21026.44503352896,3339.752678788209 21027.0625282845,3339.881163645303 21056.780919751152,3331.3035281915218 21057.404239928932,3331.2725134108914 21085.54102926224,3350.8242555324105 21086.333286684472,3351.3691807934083 21102.225038506673,3340.5900442752754 21107.127131306683,3336.5405331361108 21142.376761173364,3347.009741165093 21142.991343217785,3347.2046772900503 21143.439900728874,3342.3533750006463 21143.492329528905,3336.500657931785 21150.39545486227,3330.90033570549 21152.649893262307,3327.918460795423 21183.396471751155,3317.4394883074565 21184.05474446225,3317.2268021251075 21198.58334748447,3321.826095267781 21198.816364373313,3321.923574435641 21208.62637539557,3304.594205814763 21210.56915370666,3286.416607507621 21190.872527359985,3288.152450900816 21187.284358542296,3287.7075232299976 21182.430034204503,3280.955503153382 21174.496391679975,3254.7360722757294 21190.18250609783,3202.004164500977 21194.594972160063,3192.469767170609 21182.08050887112,3180.2375084612286 21181.24397824006,3178.153656518436 21192.27121123555,3164.360722238198 21193.087935431162,3161.5761372105917 21192.479761351133,3160.5035305427155 21186.2809295645,3157.315388264542 21188.16720128001,3151.1252061895793 21186.6260858312,3148.5949859354296 21175.83449116454,3141.4431659505935 21169.84799601778,3136.876930836821 21161.800757760066,3158.7963947004173 21162.26096611563,3160.61571329413 21140.756419982295,3151.027208362124 21136.752024746733,3149.3603517907322 21099.69447509339,3149.435735306528 21098.165593031095,3148.0735068726353 21041.056648817845,3186.0952442029375 21040.214001493296,3186.4712122596684 21043.96499086218,3187.77379476279 21044.69520753785,3189.469179977663 21043.776538453298,3208.9634034851333 21044.77792853338,3210.4711063239956 21058.3176661334,3211.188824238372 21067.764462080086,3226.4359011795605 21073.64668216894,3261.939633969334 21074.062617315678,3263.136733029969 21068.246224497794,3282.569518801756 21068.004178204457,3283.3548071691766 21044.952691200073,3291.766347218072 21043.567405795562,3292.313190401299 21013.139769173344,3330.3066223569913" stroke="red" stroke-width="3.9122902110424893" fill="none" stroke-linejoin="round" vector-effect="non-scaling-stroke"></polygon><polygon points="101.36063914676197,1163.9014436954167 110.52752355567645,1161.908528640517 113.6697563022608,1163.1157343941159 139.72308337781578,1184.273869747296 141.08797980449162,1183.8953686869936 142.68676693330053,1215.2550590796163 143.5786390756257,1218.2754601811175 153.0006769777974,1218.7393421607558 156.11786040884908,1219.2009865151485 153.10669966228306,1226.3205648895819 153.15126414224505,1227.3511758836685 162.97496490669437,1249.6092264975887 159.6428233955521,1253.6618797662668 207.73692672001198,1285.3975524008274 208.67831495113205,1286.6385141885257 268.67958129779436,1280.0673741990468 270.7074107733788,1279.6944044652628 288.9130203023087,1281.9858775837347 289.22817564453,1281.7403637487441 301.52447687112726,1292.0776453616563 306.4204529777635,1293.8712815057952 301.297867946676,1286.1559933019453 301.5084569599712,1284.417299436871 312.9123035023222,1279.1336070561665 313.6655305955792,1278.8330834542285 336.5011857067002,1283.5466057545273 342.81011797336396,1283.8292350010015 356.8074424889637,1274.7254391880124 357.65504142222926,1274.1691012838273 353.1004350577714,1270.3726389000658 347.131707448978,1266.5917641319102 347.9935786667047,1256.0538091458147 348.2886363022262,1255.6700645614183 400.2645097245695,1289.4602787137846 402.22534684452694,1290.733414818067 414.53679416899104,1279.9636224900605 423.6579490134027,1271.5398937064456 425.95607807999477,1259.2981684148544 428.62645162665285,1244.231216590153 395.3912527645007,1221.7109370671096 390.6945060978178,1218.5800925268559 447.2232382578077,1219.41659914708 448.77513073780574,1219.5320099710952 450.6360618666513,1210.0632003996288 451.31676245329436,1209.9889406321454 446.47350641782396,1204.771010802011 445.7496977066621,1204.9401123213465 446.6660366222495,1202.328418794903 448.6915359289851,1202.109210493043 443.95517639117315,1191.595007923257 442.9552426666487,1189.3902811360313 437.91654371563345,1190.4206178550958 435.6842419200111,1190.4371712062857 439.74980408896226,1184.6300001735217 438.08082062227186,1181.920531073003 427.80681472003926,1186.9667562353425 424.8576947200345,1186.394984789833 421.22496142226737,1176.9225109505933 421.10117120004725,1175.7869678464485 407.45977998233866,1171.457264458295 406.08934940444306,1168.6711221290752 440.180885333335,1152.291363321594 442.13327559106983,1151.1668796808226 442.29784376895986,1143.2555070765666 443.68662442662753,1142.1439543132437 463.10159160895273,1140.4694547972758 464.4184283022769,1140.2913538845023 462.6993462044047,1130.0704466885072 462.4642904178472,1128.7507336175768 451.9389175467659,1130.5837408836232 448.3524963556556,1129.9321658329573 447.2392581689637,1121.969010860892 446.18340039113536,1118.8309276503278 436.56475448887795,1118.0911533629405 436.18115043558646,1117.6624143121298 443.1535982933128,1111.647448442527 444.86102954670787,1108.0938867968507 431.7526644621976,1102.9169518001145 430.50806300446857,1102.8851746115251 428.8702455466846,1096.299141247524 428.7703395555727,1096.013585354318 414.54436721780803,1101.147268698085 407.8789191110991,1105.5463863430778 403.0543044266524,1101.6449655377073 397.4400537600741,1100.3640204903204 399.1017554489663,1094.8342087301426 399.64788878220133,1093.0286536609638 394.34704583114944,1089.5285021835007 394.570159502211,1086.848297359771 373.69126371562015,1087.167882616981 368.6741188267479,1086.4203925620532 361.4299150223378,1074.1500023100525 361.24204515560996,1072.0139274039539 352.3110903466586,1072.1312061541248 346.8346109156264,1072.2005885913386 341.3391988623189,1080.7290900066728 339.9804191289004,1082.4546243591467 333.8777068089694,1098.0585691384622 333.5951738310978,1100.1285979120294 339.9981866667513,1121.0323344103526 339.7503149511758,1122.082235216396 339.2091332266573,1122.7007166347466 327.16070371563546,1128.3640816953266 317.21088256000075,1150.9431456797756 316.69649777782615,1151.7288984868792 302.2520721066976,1133.500142081175 301.09164800005965,1131.8569022184238 273.46312675555237,1130.4450128409662 270.5177932800725,1129.7688242571894 250.98806528002024,1136.7561551549006 249.66219918220304,1137.1727745679673 252.0887788089458,1130.1706890666974 253.0875474489294,1126.9029430007213 226.40216206223704,1116.3336759711383 224.1060718933586,1103.275004311232 203.0285292089684,1104.4986443655798 202.62133219558746,1104.425244056969 194.33612543996423,1085.9777161153615 193.80251676449552,1083.251812178758 186.97919971554074,1080.8481545502436 182.23293696006294,1078.7184113573749 178.58505756454542,1097.7743582604453 179.02662456885446,1098.9035908066435 171.96766919118818,1097.8728250629501 166.2872999822721,1095.5064765604911 162.4771825778298,1107.2869428171543 162.91146780445706,1109.110730455257 151.65704334224574,1115.2022952627158 148.67763114674017,1112.6848627842264 143.2961060977541,1127.945655527059 142.61977457778994,1129.3199699321995 135.8678189511411,1133.8849949577125 134.8099222755991,1136.4961591812316 136.5799768178258,1151.3601856742753 136.71541788452305,1151.4939783804002 107.17062400002033,1148.817661313631 105.21823374228552,1149.0709306345088 101.36063914676197,1163.9014436954167" stroke="red" stroke-width="3.1220123923231546" fill="none" stroke-linejoin="round" vector-effect="non-scaling-stroke"></polygon><polygon points="4010.430121813435,586.0630490980111 4017.9000607290072,591.9049085865263 4019.41234033776,592.5715400145855 4016.6190503822872,599.2610697774217 4016.6461385955336,599.8864083678345 4083.9335517867003,643.7063628432807 4084.291815253324,643.7678077124292 4097.116773546673,629.8400135504198 4097.170367431128,629.4080776796909 4085.1621333333896,596.5605196743854 4085.558844586718,595.4959913730854 4113.991565368953,582.1613611834473 4114.792269653408,581.7661190642975 4138.401832106756,593.2700204349821 4139.072338204482,593.3862093194621 4160.7402874311665,587.8332987845642 4160.935439075576,587.7727354858071 4164.599629653385,576.0388417785289 4163.972814222332,574.338036850444 4149.88053532457,563.4545472358586 4149.3256638578605,561.5898800375871 4165.561698133359,550.3261635166127 4165.626069048885,549.637417666323 4163.787274524453,538.7522539531346 4163.3844465778675,538.2469976556022 4149.764318151167,537.2095583423506 4149.513824995607,536.9187872739276 4156.249178168946,530.6150629527401 4156.637442560052,529.9186267175246 4152.986941724434,524.3591734055663 4152.519451591186,524.1437748494209 4146.2646957511315,530.4826863900525 4144.834263324505,530.6693597570993 4109.832213902264,529.4034778734786 4109.018984960043,529.6278459855821 4104.046695822268,540.8657024062122 4103.739696071134,541.1421094457619 4078.4136729601305,552.6117971186759 4078.186481493409,552.6777543897042 4064.193526044488,545.1840739065083 4063.1717469866853,545.1234988342039 4051.716345457826,552.9528004832682 4051.3729368178174,552.897611816763 4043.1302556444425,541.1708270403324 4042.7201459200587,540.8621127021615 4036.67510528001,546.6585108779836 4036.279559111106,547.5164258215809 4036.7735549156787,561.2856811421807 4036.60520021338,561.7110210731626 4030.057716906653,564.5990932904533 4029.6857636978384,565.0939696455607 4023.96228636452,580.2717295433977 4022.234757404425,583.9208753491403 4010.430121813435,586.0630490980111" stroke="red" stroke-width="3.320470648231632" fill="none" stroke-linejoin="round" vector-effect="non-scaling-stroke"></polygon><polygon points="5,19.38449348125141 6.284505599993281,44.65627324371599 6.29673898674082,45.02235305844806 11.941573119955137,52.76880027522566 12.247699057799764,54.293322789890226 10.720273351063952,71.4886623006314 10.666388195590116,71.81917302170768 13.178892800118774,77.94544744177256 13.333266488858499,78.30697501759278 19.350927644525655,76.2830424385611 19.817252693348564,77.44902054441627 15.2623550578719,88.36655529495329 15.327308515552431,89.06799279688857 32.117340444470756,92.42946596018737 32.463370524463244,92.37101381772663 47.355771164409816,143.61721384880366 47.48596935113892,144.1786720562377 50.678592000040226,143.6693589470815 51.54454101331066,143.48999773792457 49.67079395567998,148.81098450813442 48.6545490489807,149.04832888417877 53.66790741332807,172.28705406805966 54.40307569783181,176.39874828141183 65.0085481244605,171.23394813481718 65.76701809780207,170.89459794026334 56.385175608913414,169.93587461696006 55.71233934222255,169.83833900396712 59.26118656003382,158.28568015847122 59.28594460443128,158.20432124618674 78.48187591112219,157.24734039139003 79.08247694221791,157.2958862563828 79.71191381337121,168.07594839693047 79.68016526231077,168.41350505314767 91.21624888898805,167.48129006644012 94.4146969600115,164.40639082028065 103.27953322674148,168.4215956190601 104.70414023112971,168.94253754150122 106.31923854234628,177.47295388777275 105.73990030225832,181.92028884903993 118.18766250670888,178.24197399744298 119.00263907550834,178.07207966421265 120.70570126222447,164.86576310289092 120.89531875564717,164.80688079958782 79.89541461342014,94.11198171274737 78.63100672001019,93.58951294526923 76.38268501334824,86.72266475996003 76.20384455122985,85.29234405851457 80.56271672889125,85.34270445565926 81.44060785777401,85.29773981601465 78.16817692446057,81.78552329249214 77.53640988445841,81.53686468146043 81.39254812453873,78.12486232072115 82.22558350220788,78.07584924809635 70.83164017787203,64.53163315483835 70.70289834670257,64.48216735135065 71.30874225776643,53.34758042631438 71.2516531200381,52.97701739775948 78.14137998223305,53.21716389793437 78.2176930133719,53.214015911798924 78.90858808893245,47.5956880027079 78.74838897783775,46.12058883160353 75.84761998220347,37.99162478582002 74.83195761789102,35.777975783566944 71.38359893334564,41.460019679623656 70.75212316447869,41.56840613507666 67.40134030231275,36.32981601724168 66.50772053340916,34.87308072054293 74.4480622933479,31.82555374642834 74.58991132443771,31.682081463863142 71.17534008889925,15.15425505139865 70.41279232001398,11.673748809145764 66.32392846222501,13.508015777508263 62.610804337775335,5.251444381370675 62.563327146694064,5 61.667377208941616,14.628449371492025 61.752428373438306,15.147957984823734 56.55323903996032,17.29839568247553 55.73680611560121,17.4747117459774 29.84076544002164,11.649009939283133 22.104604728985578,9.5646376645891 5,19.38449348125141" stroke="red" stroke-width="3.8259872935116785" fill="none" stroke-linejoin="round" vector-effect="non-scaling-stroke"></polygon></svg>