<svg width="320.5660745954374" height="406.7127281355206" xmlns="http://www.w3.org/2000/svg"><polygon points="5,270.17425625160104 25.076443875557743,289.46077997703105 25.210137315560132,289.5397497403901 35.54501887992956,269.24897022743244 34.91645582218189,265.8749189240625 44.29946339549497,265.92517781606875 46.9456614399096,268.5826003291877 66.41480504884385,320.4277594079613 69.34440988441929,328.4809435332427 60.98667662218213,330.0999787374167 59.36400526214857,331.4686799782794 64.75339463108685,337.3269478138536 65.5080780799035,337.76073782675667 58.47300693334546,355.18968422996113 58.51553251547739,355.45523012720514 44.10955463105347,364.63475688372273 43.10204785771202,364.83121653826674 65.84100095997564,401.3808656698093 66.04896853328682,401.7127281355206 79.26539519999642,390.5515592957381 80.35824440885335,390.02413999743294 124.27027711994015,376.63013533037156 125.92557084443979,377.76128398859873 135.7119889066089,363.4981580786407 136.78619676444214,363.20436382311163 172.03553535987157,361.79145465715555 172.60060131549835,361.3998753641499 174.59988622216042,368.0171575708082 174.29434282658622,370.09205360960914 179.4713955555344,363.7439581612125 180.1084054755047,362.9522835529642 190.70834375103004,367.9749956234591 192.72627000883222,369.06223303847946 185.4916781510692,357.4006131591741 185.46284231112804,356.9525082434993 194.66467925335746,346.81944108352764 195.74092600890435,345.91870135767385 193.54852835542988,343.6026887627668 191.08437475550454,340.7169468271313 183.67152497777715,345.01706077787094 181.91428636445198,346.8297582999803 161.57890247099567,312.1836054689484 161.63803050667048,311.0848700067727 165.0855153776938,301.07306820119265 165.08755427552387,300.23271110781934 179.49615359993186,305.87735437543597 180.8764873954933,305.9975947793573 223.8937352532521,299.84775200509466 224.51880305772647,299.65033681859495 229.16457727993838,280.75284311256837 230.26616462215316,277.0814694039291 207.02185614220798,199.59271589753916 206.7696153599536,198.03421367658302 204.6311028621858,168.00484866893385 204.5868296532426,163.64200219966006 208.9407502221875,141.81210001639556 209.00395605328958,141.3182060038671 309.4053993243724,97.50583016325254 310.4446546488907,97.07470834732521 315.3945159110008,80.34203611325938 315.5660745954374,80.18170023581479 305.42838357330766,37.63600207178388 305.1618705065921,36.85932103602681 306.268118186621,17.154330547724385 305.79305500444025,16.597260569571517 278.360267946613,21.591522074770182 277.75034623988904,22.004822777409572 268.40403882658575,16.791785972891375 268.1337392355781,16.406329001300037 244.6578702221159,30.893294733425137 243.95445048890542,30.978197534219362 254.37816974218003,50.23186595947482 257.13126428436954,51.959860872186255 256.5487220621435,68.79306178272236 256.7392133688554,70.95208443509182 251.93236622214317,73.59839649207424 249.68229688878637,73.90470549918246 225.32620657782536,36.016154066310264 225.13950179552194,35.81311071012169 230.92531114665326,10.120768917025998 233.48762311099563,8.359647639619652 227.3208311466733,10.182767316349782 226.44701781321783,10.76051967323292 223.1638098488329,5.135680803563446 223.07205944880843,5 221.81289443548303,31.25761286856141 221.40686250664294,32.816402490774635 237.1229778487468,55.48318547732197 238.8915760355303,59.54410168755567 237.98368398216553,72.35204677854199 237.98892686213367,72.8339695079485 223.53052017779555,80.3909901813604 222.92991914658342,80.49967715580715 217.05964117322583,70.02505921479315 217.46567310218234,67.3333402244607 194.8790547910612,71.56605682970257 192.89054691558704,72.04348991747247 166.15011128888,61.03801123320591 161.73502378654666,61.21408168168273 150.84090168890543,67.65178492554696 149.90038727107458,69.19504493579734 156.4869009066606,95.91875879466534 156.88361215987243,98.10625569662079 144.92693304887507,100.55374740378466 144.43934520881157,100.60898405744229 130.25415082660038,73.77984645415563 129.90549930662382,72.56403901369777 122.18390215106774,82.73538321407977 121.19853198213968,85.02316328173038 109.01786538667511,83.32237578299828 108.85184085334186,83.38345525623299 102.12289564439561,94.18751758837607 102.08270023099612,94.53735965013038 106.76925240887795,105.97226212354144 107.31218175997492,106.61352949455613 123.35714218660723,102.65093415963929 124.37455217773095,103.9442641721107 123.55345891555771,124.25707693153527 123.34578261326533,125.20542623498477 108.78572231100406,137.40922015090473 107.07246563548688,139.70361381571274 101.95250204438344,157.58110210794257 102.06172871100716,157.90166057483293 83.8167975821998,183.8388548757648 82.2450986666372,187.54725264530862 67.22774271992967,178.7769096706761 66.07984327105805,178.6871259768959 49.69584327097982,186.53677545895334 47.775784106575884,187.94273356394842 41.69229567993898,202.07094503962435 41.730160924373195,203.24204557260964 36.87933183996938,200.87290586606832 35.01141020434443,200.3378484150744 30.739336817758158,208.7204148125602 29.376770559931174,211.02169305772986 33.91040540440008,216.0312773080077 35.80687160883099,218.43705794634297 33.67767978657503,219.98823385883588 29.091033599921502,223.12780547054717 31.073133511003107,232.30299643904436 29.107053511077538,234.40341174585046 36.12639601773117,241.9808967335266 39.01609671104234,244.19565945427166 5,270.17425625160104" stroke="red" stroke-width="3.9635544324538765" fill="none" stroke-linejoin="round" vector-effect="non-scaling-stroke"></polygon><polygon points="41.93405070214067,263.34715104999486 66.41480504884385,320.4277594079613 69.34440988441929,328.4809435332427 60.98667662218213,330.0999787374167 59.36400526214857,331.4686799782794 63.5597656177124,340.41370172798634 60.69278407108504,344.56848199496744 77.39019178657327,343.6515841098735 78.624307484366,342.968842589471 102.22484053322114,316.2487442487618 103.30108728888445,315.3160256529227 118.19319665769581,312.1032979183947 120.18898631108459,312.2962154484121 119.14943971543107,317.8427462159889 119.47216810658574,318.3357942966395 133.35181909333915,317.4228245020495 133.48755143105518,317.3609128993703 137.49922844441608,329.49166433443315 137.7054483910324,329.3539410016383 131.88031743990723,337.4983106722357 131.37321443553083,338.61575472081313 139.52210631105117,354.1297402260825 139.68958719994407,354.31544386193855 135.68723086209502,363.4434361249441 135.7119889066089,363.4981580786407 172.03553535987157,361.79145465715555 172.60060131549835,361.3998753641499 174.59988622216042,368.0171575708082 174.29434282658622,370.09205360960914 179.4713955555344,363.7439581612125 180.1084054755047,362.9522835529642 190.70834375103004,367.9749956234591 192.72627000883222,369.06223303847946 185.4916781510692,357.4006131591741 185.46284231112804,356.9525082434993 194.66467925335746,346.81944108352764 195.74092600890435,345.91870135767385 193.54852835542988,343.6026887627668 191.08437475550454,340.7169468271313 183.67152497777715,345.01706077787094 181.91428636445198,346.8297582999803 164.0756784355035,319.5722230091924 163.10137656878214,319.5305003832327 165.0855153776938,301.07306820119265 165.08755427552387,300.23271110781934 179.49615359993186,305.87735437543597 180.8764873954933,305.9975947793573 217.33110584889073,304.202506374917 218.23055103991646,304.0836109732045 223.8937352532521,299.84775200509466 224.51880305772647,299.65033681859495 229.16457727993838,280.75284311256837 230.26616462215316,277.0814694039291 207.59828167106025,201.90486281726044 207.02185614220798,199.59271589753916 204.5868296532426,163.64200219966006 204.77935985766817,161.68996170116588 195.68267178663518,164.68939855194185 195.23353173327632,165.05888179817703 196.0592853332637,187.36948800459504 196.13181183999404,188.1258845310076 177.36929194652475,189.24319189728703 176.62742442660965,189.53048576018773 169.32904419547413,201.15434915246442 169.05029774224386,201.4043710354017 141.9999496532837,194.26539352640975 140.38193863106426,193.94309265638003 133.14035626663826,183.71720076957718 130.39163079112768,181.34740123478696 117.53230250661727,177.29906539386138 116.49625116446987,177.3619143810938 113.98432910209522,157.8666416053893 113.9683091910556,157.7400345156202 105.23134094220586,154.09937597153476 102.57349205331411,153.27147576771677 69.274504817673,212.78477813629434 71.11155171552673,214.80009988264646 56.81217905774247,220.1008911728859 56.68489358224906,220.0847331553232 59.591488000005484,228.62542599078733 59.61886748438701,229.8641556543298 70.40842325321864,233.9222927505616 71.07019121770281,234.56767414632486 55.3866982399486,239.27243817027193 52.651079964474775,237.44628542725695 48.60881948436145,255.6375708336127 48.59862499544397,255.71789905574406 41.93405070214067,263.34715104999486" stroke="red" stroke-width="3.1120166908287925" fill="none" stroke-linejoin="round" vector-effect="non-scaling-stroke"></polygon><polygon points="143.35698176000733,259.27115936321206 143.35698176000733,259.27115936321206" stroke="red" stroke-width="3.319294301668496" fill="none" stroke-linejoin="round" vector-effect="non-scaling-stroke"></polygon><polygon points="122.42128810659051,257.4483143967809 122.42128810659051,257.4483143967809" stroke="red" stroke-width="3.8965274880512233" fill="none" stroke-linejoin="round" vector-effect="non-scaling-stroke"></polygon></svg>