<svg width="251.40840959991328" height="303.7690781567362" xmlns="http://www.w3.org/2000/svg"><polygon points="5,81.21385340276174 6.029934648890048,83.02059507078957 7.386966755497269,84.15762025327422 8.48535011545755,85.11801549384836 9.532761031063274,85.84704829705879 10.844937386573292,86.51122493238654 17.09590670221951,87.46425043640193 18.129336604382843,87.35616136569297 19.276070968946442,86.99693729868159 20.497953279991634,86.756381026702 22.614911715500057,87.66249025100842 26.369978879927658,89.04924394993577 28.953553635510616,89.56116768845823 30.307381759979762,90.65676319610793 36.01134392886888,96.0997021846706 33.08698197326157,95.81638206430944 33.05115562665742,95.98333860887215 34.796160853351466,97.62300138606224 36.86826353776269,99.27920911082765 38.32694926217664,100.61943565309048 41.50588216888718,103.65308171370998 43.67701703112107,105.75674026424531 42.541933511151,107.3153844026383 43.525264782248996,108.51574886933668 43.33681237336714,108.92368730297312 43.29778204439208,108.99865222990047 42.25007985776756,111.28208061726764 41.83472725329921,112.26672978803981 41.6855964444112,112.65120624471456 42.464455395471305,113.32173890341073 42.940392391057685,113.40498046658468 43.73905777768232,113.46108802140225 44.61840526224114,114.27050686033908 45.48056775110308,115.29423338157358 46.133888853364624,116.96180265536532 47.13149240880739,120.31851703563007 46.7927441066131,120.8262276086025 47.87335992883891,122.64459425664973 48.56600263109431,123.89270047727041 49.63467633770779,124.70208016398828 50.462468835525215,125.02077258209465 51.830569244455546,125.61676752869971 53.71451079112012,125.5758389160037 54.33579207106959,128.78894131310517 53.692374186590314,129.1747679078253 54.538516764412634,130.851886931865 55.32116223999765,132.3464295003796 57.40695466659963,135.5244823617395 59.666053404449485,139.29154788673623 54.275498951086774,142.34580246795667 54.70454129774589,142.94772739388281 47.30072092439514,147.58603370876517 49.31893845333252,149.38532207382377 47.87598136882298,150.73673272522865 47.24741831107531,151.45404831063934 45.16541240888182,152.24861048173625 44.49636266659945,152.56680238223635 43.56079985771794,153.07075853575952 41.75025863107294,154.28328325168695 39.735245084390044,155.89491438737605 39.49349006218836,156.53680463309865 36.51262151112314,159.48322188155726 38.051406791084446,161.58679571159882 39.41921592887957,163.17768163862638 39.71369102213066,162.8461714060395 41.36723711993545,166.1948151460383 41.98152789333835,167.8803821769543 41.966673066606745,168.6082156962948 42.237263928866014,169.76134172722232 42.96951950213406,169.55030357232317 43.06126990215853,169.74708861217368 43.105834382236935,169.8601939509972 43.17137038218789,170.04088650329504 44.26509340433404,170.02019652409945 44.68656270217616,170.54572138155345 45.037835662136786,170.81790873093996 45.21172451553866,171.4068805189454 45.11647886224091,171.96182748459978 45.23240476439241,172.54343979770783 45.73979904002044,172.95815370662604 45.83824867545627,173.72321141965222 45.731060906662606,175.43676533381222 45.13745038222987,175.65101608657278 44.53335409774445,176.27997414855054 42.9520432355348,176.96869951323606 41.11703523551114,177.15812159108464 40.887513599940576,176.86249434330966 40.62216561776586,176.82157545443624 40.48177294223569,176.59399272839073 40.16020963550545,176.10710281715728 39.77514922665432,175.96963322878582 39.49028607993387,176.028483096743 39.34668942214921,176.2946865958511 39.138139306684025,176.35307661129627 38.71812636440154,176.69376134697814 38.56783047108911,176.71399092301726 38.331900871009566,176.6197394730989 37.53323548450135,177.09145607292885 37.1851665066788,177.3953587160213 36.75495907559525,177.8578784071724 36.44329898664728,177.569608298596 35.517930666566826,178.21281332266517 34.77256789326202,178.21419260231778 34.57421226671431,178.1010916440282 34.41459569777362,178.01281768432818 34.391294008819386,177.52409193047788 33.11989560886286,177.71857089083642 32.3462795377709,178.02982881478965 31.810631964472122,178.19304364710115 31.019539626548067,178.24821483006235 30.51185407990124,178.55809271230828 30.43466723547317,178.7930295043625 29.95581752876751,178.41096973768435 29.63105024001561,178.78337457263842 29.31385599996429,178.6174016330624 29.07035335106775,178.72498521511443 28.82510307559278,177.00685979961418 28.65383566217497,175.63446453382494 28.63053397333715,175.4528571360279 28.602571946685202,175.21791670576204 28.54868679109495,174.77240274089854 25.668889315566048,175.1209060032852 24.21835918223951,175.40825985278934 22.490247679990716,175.84227838134393 20.90165503998287,175.4597536221845 19.766862791148014,175.70526838931255 19.280731306644157,175.8229682535166 18.323031893232837,175.8353819072945 17.673497315496206,175.93285205308348 17.365041208802722,176.53514301474206 17.23455175117124,177.22616637451574 17.22057073772885,177.31536017981125 17.203385742148384,177.40869180252776 16.71812807105016,177.82477563922293 16.486858808784746,177.79581071296707 16.123352462192997,177.85236127953976 16.170829653274268,178.25741002580617 16.05956408882048,178.4146478131879 16.050825955579057,180.361260517966 16.147236693301238,180.95710255781887 16.18451939546503,181.3984659705311 16.283260302152485,182.77634156413842 16.372389262192883,182.77128431247547 16.860268373275176,182.67887451074785 16.898424888844602,182.88438282173593 17.229308871086687,183.91284093505237 17.47659804439172,184.1468524002703 17.686604515532963,185.90353939926717 18.7054708620999,185.51597529556602 18.955090204370208,185.53252609004267 19.151115662185475,185.7063093552133 19.32267434662208,185.90629786014324 20.08027050655801,185.3477088130312 20.8506825955119,184.84658654400846 21.070592284435406,185.0281860328978 22.042272711056285,184.97807378415018 22.412478293292224,185.3431113663828 22.796082346583717,185.6299918538425 23.672225848888047,185.5357442999375 23.830677333287895,185.19139556970913 23.677759999991395,184.44798662338872 24.06340295111295,184.44752687687287 24.670994488871656,184.92198483133689 25.364802275551483,184.70452506508445 25.84452579554636,184.34868133830605 26.439592675538734,184.4470671302406 26.904170097783208,184.92382381367497 28.393148017814383,184.41948233329458 29.105014613247477,184.75279839371797 29.191813404439017,185.13116896623978 29.42599537782371,186.1527202227153 29.442597831017338,186.32420427538455 29.363954631029628,186.3343186120037 29.689595733303577,188.15994860802311 29.922903893282637,189.6959300454473 30.58088533335831,191.7849575834116 30.535447039990686,192.12883605749812 31.336151324328966,195.6903366218903 31.38887139549479,196.33026956417598 32.51609059551265,195.66735048941337 33.69632113771513,195.134071530425 35.91842844441999,196.80837914417498 36.25863310217392,196.99962267937372 37.024093582178466,197.38624671229627 38.421321102185175,195.9018089249148 39.59893020440359,195.7634325065883 39.77573176892474,196.647017279407 40.324777813395485,198.66058404068463 40.556047075544484,199.52622808353044 42.36920974217355,199.6632229455281 43.14369962667115,199.75194775941782 43.77401031111367,199.5538109486224 46.11058716441039,198.72402487986255 47.35431480885018,196.02685331960674 48.16288341337349,196.00018944742624 49.992939804447815,195.7514797220938 49.92682126222644,195.3368096348131 49.88487822224852,194.23530961177312 50.50208170665428,193.45423419203144 51.79823815112468,192.42766048945487 52.81826958223246,192.07228923373623 53.08245247998275,191.65945099841338 53.09759857773315,190.51333803636953 53.902089386596344,191.42085036623757 58.3591199289076,194.36495222710073 63.47675335104577,197.34625115490053 64.82096952886786,197.41291041322984 65.23428323550615,197.3628010416869 65.44137699552812,197.1959229586646 65.27622627548408,199.49910492938943 66.06032810662873,201.43863171036355 68.08670122665353,205.03307716466952 69.61558328883257,206.97807057149475 72.50674033781979,208.73962828866206 73.0438442666782,209.08807667571818 80.05211847112514,213.28044586180476 81.47439530666452,214.29634762194473 81.66896440880373,214.392421341734 81.32905102218501,215.26351842691656 77.48660252441186,218.9937967667356 76.0538399288198,220.3847626656643 74.65748622221872,222.22481382079422 73.24773404444568,224.59162146912422 72.82102186663542,226.20088874729117 72.17847779556178,227.40656727633905 71.6731224177638,228.60166706010932 71.20242830214556,229.79308302357094 70.96329472004436,232.50362175732153 71.53214719996322,233.01934190629981 71.72788138664328,233.36867036204785 71.58370218670461,233.7331664240919 68.25622101326007,236.67852940986631 67.65561998216435,237.39785742509412 67.57289898663294,238.09282253304264 67.4191078399308,238.38698698370717 66.64374414214399,239.00840806716587 64.87543722661212,241.60989997518482 64.29260373325087,244.0748535579769 65.22496255999431,244.50505700241774 67.85601450665854,249.3953435473377 67.25745237327646,251.28386532596778 65.77342606219463,255.84906519355718 64.55212629330344,259.3267882876098 64.03337244444992,259.2633652680088 63.817540551070124,260.0248998584575 64.31823559105396,260.13979621382896 61.235130879911594,275.0684485792299 71.6990455465857,283.5148765837075 72.4479035732802,284.0713733690791 73.10209848894738,284.64762864331715 76.1505419377936,287.1047381267417 89.63289912894834,297.46270710555837 99.68670407112222,298.40377294359496 104.02926506660879,298.16529033868574 107.61422990215942,298.45661587431096 111.24463303107768,298.67809653893346 112.61943267553579,298.7690781567362 115.19834709330462,298.10463576135226 116.19653319113422,297.9598918146221 116.73771491553634,298.1721829032758 117.22355512890499,297.81101222516736 124.92214186664205,295.48130897351075 127.9452447288204,295.1651658444898 128.7462402844103,295.06453297805274 129.23848846217152,295.48314701369964 130.66629944881424,294.8311013079947 131.2048597333487,295.73036326357396 133.14996821328532,295.70141416345723 131.89138574223034,293.81052405264927 132.33091384882573,293.68737437715754 132.41742136888206,294.0568231928628 133.12491889775265,293.77973664033925 133.12171491549816,293.1593923224136 135.53518734220415,292.7430713577196 137.21290894213598,292.3184782882454 138.0698285511462,292.182461284101 138.97830314666498,293.5155161303701 139.918235022109,293.8987506426638 140.20571960881352,293.5899574197829 140.18416554667056,292.51377282326575 140.65282076434232,291.5965762489941 143.82738460437395,290.8135556477355 144.76090851554181,291.2648037824547 145.20975729776546,290.6674282490276 145.96560583100654,289.8756733586197 145.9935678577749,288.796713090851 147.02321123552974,288.09777555731125 148.3554852977395,286.2550694317906 152.67387079109903,282.48919088661205 155.6125050310511,274.98986491642427 156.56350520881824,270.76009149919264 157.5305252977414,270.37359894177644 157.8322821687907,269.2251466982998 157.50285454222467,268.48294641822577 157.39887075545266,267.95720052637625 158.85027470218483,262.30810875981115 167.7672484976938,250.8922822222812 168.86184533324558,249.45968868397176 179.81888199108653,235.35983175877482 182.31478414218873,232.29402391135227 182.7085826843977,227.58629232062958 182.40362183109391,224.38799153495347 182.25711246218998,224.27399546070956 180.06121955555864,221.385461930593 179.74227768881246,220.98738919151947 179.94354602659587,206.82453119539423 190.72582001774572,201.81605359591777 191.4071031466592,201.74250005255453 193.4261944888858,201.4174850321142 193.82261447107885,201.28968549822457 201.8369390933076,200.4709392057266 204.04040504887234,199.8402128231246 211.76957525324542,194.21094414702384 212.5061998933088,193.66616841423092 213.59468003548682,192.62672330444911 217.6203380621737,190.14095345279202 218.3356999111129,189.01046347612282 241.09067292441614,176.4928447731072 241.5068993421737,176.4211216487456 243.6663833600469,175.83308308257256 244.53641016886104,175.60825790610397 244.93923811556306,175.5130864417879 245.28468565328512,176.54479804699076 246.40840959991328,177.10340989148244 245.7413987555774,175.594005177496 243.49365959106945,169.71766282327008 242.6609154844191,165.72353450092487 242.71392682672013,165.08351074665552 243.11850240000058,163.3275737540098 243.4735618843697,162.09624832030386 243.62094506667927,161.6773753699381 240.66920362657402,161.27137589402264 240.04937870218419,161.16470319835935 239.19012892444152,160.9357245611027 234.28424959990662,160.17475967330392 235.33515576890204,157.8509264123859 234.98592170665506,156.36575670272578 234.8868895288324,154.7812578668818 236.06187719106674,154.68883607222233 235.66254449775442,154.12924654973904 233.5164589510532,154.37386597733712 231.93514808884356,152.2890742176678 230.7441405155696,149.27864349912852 230.78317084442824,149.21564793679863 229.42876017768867,146.9119289634982 226.3080814932473,142.32740901364014 225.94341006223112,141.61190242436714 228.99068842665292,142.5191606975277 229.21962751995306,141.68363712524297 225.49106602661777,137.42135890794452 219.22087281779386,131.86357841850258 219.03882837330457,131.54489611223107 218.84484181331936,131.20505977183348 218.72454684437253,131.23035207542125 218.67619584000204,131.033531889203 218.00598101329524,130.10553148837062 217.29557077330537,129.7666126062395 215.66765653330367,128.34563076205086 214.889962666668,128.08120754093397 214.0819766044151,127.30265172221698 213.43156821327284,127.17250892193988 213.4484619377181,127.30587080109399 212.09201237326488,127.52430818363791 210.70206663105637,128.41369094740367 209.83728270221036,128.8229713384644 207.2496301510837,130.87396025122143 206.41979875555262,131.77620525006205 205.0811167289503,132.4508171636262 203.51029162667692,133.41559590608813 203.47563036438078,133.29879260825692 203.05008327111136,133.49699029279873 203.00551879103296,133.43996823974885 202.90357390220743,133.34339859953616 202.77512334217317,133.187047661806 202.26423381327186,132.57451877836138 202.11801571561955,131.48925312160281 203.2190205155639,126.72735556960106 203.27377948432695,126.45005399821093 203.7406870755367,125.22357660287526 205.12830264877994,123.53169776248978 205.6820090310648,123.63700944487937 206.2144526222255,123.70001247926848 206.54155007994268,123.70875012490433 209.39338552881964,123.77083338634111 210.2232169243507,123.57400639209663 210.7329413688276,123.62321315752342 214.2567392711062,123.91983314102981 214.51305784890428,123.93408928497229 214.7073356800247,123.94972505467013 219.26427221333142,125.27600210113451 225.13309383112937,126.17873039084952 226.10186154663097,126.32680874090875 227.31500572443474,126.44591516605578 228.77252636442427,126.6238848756766 232.270983680035,128.58522091369377 232.89459512883332,127.35461684665643 232.9837240888737,125.99800108675845 232.30768383992836,124.48777879262343 232.2462256355211,124.14149307936896 232.1005900799064,123.83797526382841 230.81404558219947,123.31877485878067 230.54491107549984,123.22955872007878 229.03350528003648,122.10009760700632 227.88677091547288,121.17021923791617 227.31151047104504,120.79955443798099 226.59789624880068,120.3208164521493 225.186687715468,120.08351653779391 225.10979214217514,120.05684327532072 224.97493361774832,120.01223453576677 223.91383295995183,119.66318232775666 223.16089713771362,119.19088021921925 222.26436465769075,118.8096346273087 220.9772376177134,117.4419277664274 220.3661508266814,116.30645774677396 220.32071253331378,116.24069320037961 220.61780906654894,114.46458297118079 220.999082951108,113.27712877071463 221.07190072885714,112.95382000721293 221.50735103990883,111.42465036915382 221.64861752884462,110.97302586364094 217.55625841778237,111.93882049806416 212.626203591004,113.53927065542666 210.53021667548455,115.41886462533148 209.47931050672196,116.83625252183992 208.56763192883227,117.13518129091244 208.3896652800031,117.18346974556334 207.9352823465597,116.86890476138797 207.95130225771572,116.35198703641072 207.98188572446816,115.88013756880537 208.15606584888883,112.72938917239662 208.16334762668703,112.60935537191108 208.21985422214493,112.22717834333889 208.25102023105137,112.08138981589582 208.91045802668668,107.836922888353 209.21483633772004,105.72868548636325 208.7097722310573,104.35859607270686 208.49277525325306,103.40426547348034 207.72003299556673,102.59342608420411 205.27452074666508,101.42982254119124 201.26430008886382,98.88321058696602 197.56515697774012,96.0946429001051 195.93782527989242,94.59570962633006 194.1634016711032,93.38238933053799 190.39901383104734,92.24909233441576 191.64652800001204,89.18492915615207 191.92381809779909,88.52122070727637 193.08074695116375,85.73987832979765 193.03705628437456,85.35535388835706 192.95113130670507,84.15900013456121 192.874527004431,83.29335287195863 193.5261004799977,81.29296766238986 193.46056447993033,81.01790749520296 192.86141980439425,80.98478985950351 189.4293723021401,81.26398976834025 189.32917504000943,80.75618604046758 189.4174301866442,80.28977830207441 190.46979271108285,75.27054163452704 190.4863951643929,75.08057006349554 190.32794367999304,75.07689022511477 189.87501710222568,75.04653155605774 186.59268295112997,74.82482114655431 185.9049918577075,74.78250295121688 184.49756984889973,75.02307258162182 184.27969905780628,75.0437716768356 180.11335708445404,75.52904989582021 179.94704127998557,75.53042983240448 178.53437639109325,75.66750348132337 178.0896054044133,73.87035983026726 178.64593322668225,73.1376066613011 175.62982087105047,72.94487330503762 174.5206604799023,72.98765184526565 174.0584132266231,72.98213203414343 171.84766549326014,73.00007141986862 164.5740433066385,73.32619999360759 155.00345713773277,73.1849850018043 151.65092664887197,72.68452200596221 149.5922224355163,72.21073703322327 148.95026090671308,72.00880312168738 142.33083363552578,70.50142259511631 139.12044344889,69.86433611018583 136.7398846577853,69.23276765027549 135.8238370133331,68.8528137015528 132.26799928885885,67.39187073241919 128.40603562653996,65.8007380196359 128.33933454216458,65.92263787670527 127.46260849770624,67.58460905245738 123.99531719100196,66.20093729207292 122.70236472890247,65.73449806845747 121.89466993778478,66.8122747464804 120.53618147550151,71.55939599272097 120.31423288886435,72.1127600108739 119.9504352711374,71.53685661358759 117.39686143992003,66.84355456964113 116.39896661334205,68.77921479626093 116.10157880885527,68.98391168925446 115.34456519107334,69.45862373593263 114.68454485328402,68.67433631292079 114.22375395556446,68.65455659321742 114.24326911999378,68.98759163171053 113.99889265769161,69.86019619193394 113.69538815994747,70.20794905471848 113.88238421326969,67.88360610522795 113.93248284445144,67.36841092514805 113.9275312355021,66.72211523086298 114.68425358214881,64.79471656831447 114.77454762661364,64.68615613115253 115.66787612438202,64.1318530467106 113.73587484448217,63.05728300858755 114.14598456886597,62.048948718758766 114.92280462221242,60.94308762520086 117.68521983991377,62.50021569686942 119.32303729781415,60.36853442713618 120.75783879111987,59.02207749965601 122.16293063107878,57.9221810947638 121.20377486210782,56.97224513802212 120.95153407996986,56.769376916694455 120.16393699555192,56.15065066405805 121.22503765334841,55.1882863023784 120.13510115549434,54.35104421444703 113.03391146659851,50.434824180207215 112.12543687107973,50.04011604201514 111.3789090133505,49.65828813437838 109.1069943465991,48.25471973733511 106.88983864884358,46.55947663297411 103.06574023107532,43.252219085698016 100.42828031990211,41.00441430741921 95.87017870217096,37.495565367280506 90.99313521769363,34.85986561176833 87.03767352877185,32.490054642315954 85.86676366219763,31.7428985881852 73.52415032882709,22.95073844178114 72.1464379732497,21.48672383930534 70.67406250664499,19.585606444743462 69.51859000883996,18.04841286642477 67.21754823101219,14.975373151653912 66.21703196445014,14.186746524064802 65.12622165330686,13.203029685886577 64.54542705777567,12.689544277265668 64.33309041778557,12.505499030230567 64.13939512881916,12.330655899946578 60.47520455101039,8.573334787623025 58.38329543103464,6.487593002151698 56.881501582218334,5 56.23837496887427,6.266272206441499 54.26122666662559,9.959677031787578 52.84273635549471,12.083574708318338 50.587424142169766,14.86816795100458 49.277869226643816,16.54479597264435 48.23861390224192,18.2945670200279 48.18268984882161,18.391188199748285 44.10081649781205,17.16685662046075 40.40749880881049,16.048342437075917 36.440968817682005,14.940865045646206 35.302681315573864,14.671241520904005 33.866423466592096,14.415881045744754 31.91374193772208,14.0919638996711 29.39016903110314,14.298553158412687 28.64334990212228,14.377231866295915 26.106669795466587,14.5148045088863 25.832583680050448,14.518025272060186 25.140523519949056,14.4471684715827 24.465939626679756,14.316037318261806 24.330789831117727,19.48300452088006 25.170815715566278,19.638057633535936 26.914655857835896,19.79771161219105 27.742157084401697,19.887890752521344 29.46415189327672,19.97576936823316 30.47165866661817,20.921727487351745 30.983713279943913,21.81661108980188 30.566904320032336,23.1274133217521 29.89028152881656,24.64800754049793 29.833774933358654,26.073353593121283 29.852998826652765,26.39219181740191 30.635935573256575,28.32269428507425 31.14799018658232,29.332566549186595 31.52139975107275,29.463688569085207 35.96474055107683,30.716014860372525 37.578382506617345,31.138362792145927 38.94240512000397,31.674807883100584 41.37917923554778,33.471843205275945 42.81893233768642,34.35517304937821 43.05719210661482,34.51941679324955 43.329530595452525,34.76509207574418 39.50892743107397,34.71310463297414 37.138854400021955,35.15752785443328 35.26918513770215,34.26315969286952 32.01685191108845,32.991991153219715 31.593634986667894,34.52677785442211 32.77969095110893,34.894830595119856 32.143846115563065,37.13027743098792 29.530561706633307,36.28238377778325 29.303952782182023,36.2897447788273 28.02643768885173,36.171968732145615 28.484898417722434,38.02233340468956 28.697526328847744,38.48009148379788 29.033944462193176,39.11911093571689 28.47994680888951,39.575946575030684 28.092556231073104,41.22707960056141 28.247512462199666,42.777909385506064 28.36984632886015,45.65319466171786 27.459332835511304,47.601926209637895 26.736980479909107,49.25115763256326 25.542477653361857,50.99882313318085 23.680090168840252,53.99406528077088 22.73899320885539,54.9449344042805 21.340309333289042,55.98136317182798 20.58300444437191,56.68657350621652 19.755211946670897,57.51460617990233 19.19334997329861,58.423598386812955 18.79023075546138,58.96135563624557 16.888230399927124,61.05855009279912 16.557346417801455,61.511659178708214 15.494206862174906,63.630449029267766 14.749717902275734,64.44741497735959 13.874739484395832,66.00727773690596 12.112257991102524,69.7208188950317 11.058147839969024,71.12102764524752 10.015979804447852,73.23742315289564 10.860666026710533,73.86713995365426 11.548065848881379,74.43889729661169 12.165851875557564,74.89473814680241 13.283459128811955,75.47983215469867 9.199546879972331,79.69457800698001 7.8710593421710655,80.90613545407541 6.849280284484848,80.54184099216945 5.473898097756319,80.08279229619075 5,81.21385340276174" stroke="red" stroke-width="3.6312060992312762px" fill="none" stroke-linejoin="round" vector-effect="non-scaling-stroke"></polygon></svg>