<svg viewBox="0 0 119.5602813155565 81.8310828253525" width="119.5602813155565" height="81.8310828253525" xmlns="http://www.w3.org/2000/svg">
  <title>Pardubický kraj</title>
  <desc>Geojson of Pardubický kraj</desc>
  <!-- Generated from maps/2-geojsons/world/europe/czechia/pardubicky-kraj/pardubicky-kraj.geojson -->
  <metadata>
    <collboard>
      <support-module name="@collboard/map-svg-geojson-import" version="1.1.4"></support-module>
    </collboard>
  </metadata>
  <polygon points="2.527235142496477,21.444360501417947 4.7425194233857955,23.760099980915953 4.7941399460511205,23.789237832085753 7.447015380719506,24.197400689306786 7.485747156716946,24.20270424785395 6.98784103760537,24.99526753734227 7.0159705451629755,25.023424341605104 9.610067469609033,24.943905072301103 9.623975665162845,24.947383639716833 9.199702882941176,25.679872849113423 9.19314928294026,25.68976332855801 9.52651635138592,26.328199392885843 9.557383807384587,26.386594725763832 10.18625269983005,25.28536062468175 10.246807963828736,25.31635977667157 10.585017414495645,26.72209238443739 10.625001656272628,26.746842136017047 9.674838882940652,27.536487074928125 9.683467789605324,27.54808432314149 14.771464376273627,30.383923567700375 14.812934100717952,30.43969461837824 14.736249698939913,31.983184093131975 14.764153471385193,32.02061799126078 13.71842464649509,32.71184280737489 13.68488477805205,32.76801999623404 15.066492884716547,34.304832739292586 15.098904077606688,34.3183950824021 13.875150349607987,36.09071097031684 13.846795106940966,36.1181659694672 13.992700088274262,37.18490277490765 14.013256546939203,37.19888756190904 12.359033243829447,37.65631842925487 12.34680713893887,37.654961895895944 12.898867839382559,39.288356735199166 12.902574264275438,39.303567943071364 12.788599878494109,40.571949838397096 12.783903131828822,40.590321011371095 12.200683704274537,40.77189401979832 12.193831551386223,40.784525157318974 12.44329797627271,41.99218897902739 12.467677368272973,42.02427929590177 17.911119373608212,45.40224053070398 17.969635739829222,45.44907594029192 18.095989147829652,46.39458214966272 18.123339505161688,46.42556311464269 19.163723505163045,46.659906695420624 19.193877346938656,46.662378287184225 19.223303010940267,47.71736367986287 19.243065755828695,47.73028341483133 22.639680127386068,46.925714902226 22.65650103405043,46.923277285438786 22.745047451829137,47.98194698609569 22.7952261824974,48.04348454725678 23.647368945163738,47.89322742262867 23.695749076717597,47.9221689113254 24.297602573607413,46.85029498623899 24.32391163671838,46.81292884521227 25.973540138051444,47.46680504675879 26.036221681162544,47.48907989830751 26.1898307833848,48.4831634489061 26.297076806495728,48.55174655621505 27.697639380718297,48.23283174811205 27.71042618249468,48.233362028398375 28.307466424273855,49.70267254221818 28.292109154941695,49.83722433155327 29.84492642071838,50.98264709432534 29.87396615049785,51.04475980831031 32.95809759227251,50.886014636482116 33.02166023049778,50.92633005451481 32.5332058589409,53.67690955179842 32.54443436027488,53.709832989997636 34.76538386427548,53.36350140334089 34.81450673716301,53.34226497004984 38.06762639583013,55.841961326377174 38.082896283830465,55.86019107699231 38.98815961538332,54.96589270176173 38.999395398495665,54.97002830080583 39.1213214856076,56.33510085729049 39.11523391938519,56.35427529153804 37.916427562050934,57.82614616485208 37.9053228509407,57.887640561940316 39.41762430516229,59.6497131289083 39.466528724718785,59.686935319096484 41.886372706939994,60.13545067871874 42.037506004719596,60.162481116319945 42.8344310464947,61.55045699159364 42.940970737160946,61.61587128822848 45.92758461094037,61.02419910986191 46.00260148560903,60.96068005759571 45.55765573627415,59.744513247467516 45.54441746427312,59.71204270301078 46.62690470338549,59.90706573156331 46.683498680274184,59.89688804773741 46.90155151583005,57.89216814406664 46.90853474071756,57.78290820680977 48.64019975049579,55.684470875849186 48.64496203316359,55.67675284833804 49.58750806693844,55.72107783896336 49.62278099849629,55.70559680783172 49.57774320293958,57.287308540052436 49.57461203849508,57.291521230744365 50.084642317605734,57.81781170617887 50.10707747494145,57.84233074629719 54.2556519104981,58.57361661752348 54.40469533805137,58.65161136975494 56.393152241161275,61.83575528611237 56.42142738427194,61.851421557136746 59.05904021271837,60.957111802584954 59.08140983405157,60.95282313969929 59.90017292738468,62.409379416514824 59.91264661271981,62.43386663266556 63.00951388382802,62.416052643910916 63.02850476027217,62.41776314945292 63.90441524560721,63.78455624899343 63.91085961894115,63.78851642850623 66.50524781449623,64.44385291535419 66.56120099493984,64.47682410097605 68.89609575760534,66.71326023941201 68.93687371316175,66.71707212246238 68.5740445718284,67.8716806755021 68.57302512293955,67.89051119095802 69.84827558338276,68.9502669287509 69.83394504471782,68.99085407254152 70.92978706427367,68.5626451147602 70.94012718871801,68.55097725597425 74.23614380027558,69.74826447346986 74.2762154233844,69.75099537161422 78.49446919049643,74.35233300611563 78.49690858605301,74.35750949310004 79.5271563513843,72.88953812334785 79.53205698782969,72.87873309707484 79.29219522782934,71.80752576071518 79.2966735211636,71.80053818143479 80.59067455938477,71.41679180825868 80.65160847583013,71.38933377990888 81.73697201716406,71.6227114002044 81.76583698427405,71.60756737831234 81.40192285804935,72.60854435370985 81.39897373805272,72.65133963418467 84.41143792294008,71.23442477992049 84.41277777005145,71.23106544861639 85.77495081182843,72.26020529614162 85.79255086871837,72.2719326556804 88.23370861449496,72.38983391021011 88.24676484205104,72.3856777543986 88.85916235316238,68.05104573246773 88.85924245271873,68.01733162074798 89.34507538427408,67.8049920248186 89.37129706605322,67.76222631974652 92.86376876027481,68.80782177006749 92.8790532118319,68.8315610137679 94.19856959938463,67.53383336267125 94.19813997449512,67.48995249271084 96.3023188900521,69.12923699970543 96.30612725983066,69.12986641373992 97.70315089005146,68.6182300930288 97.71799115316227,68.6233108354003 97.35558435494005,68.0529568296157 97.37177174694062,68.04811163495742 99.63665221627436,68.27050277665967 99.64541947671952,68.26490460669139 105.87746345182805,71.67744523117418 105.89526739849516,71.67850125620153 107.55039364205132,71.32745159771858 107.55681617005303,71.32360921695344 107.97095999938593,68.20812445098254 107.96477048827201,68.17726664569037 108.77324442960654,68.62431124650739 108.78182964560675,68.60557317892653 107.21723046338576,66.82309538141108 107.20850689360796,66.81871011391323 107.4705052580508,64.93215712516667 107.45820633538516,64.8723841004421 110.48922449005168,62.176362767902724 110.50911102516385,62.16555908943538 110.69546628204972,59.70710004775592 110.69861929182935,59.68298342888866 110.09051074782893,59.32997016255959 110.08469260738622,59.32601801445544 110.63836986249645,58.18889680301054 110.6413481096066,58.17311868126544 109.49943428205134,56.70567826453316 109.43343953005079,56.658375983452245 106.38895736827381,56.73760341181315 106.36129389449762,56.703425247804084 108.10241793360602,54.54752744957787 108.12962265538499,54.51295242548932 106.60425769182893,53.34539858906919 106.59736913005163,53.33125220118946 107.24451528471819,51.83205732804181 107.27247731138469,51.78892978806671 104.72117539494047,49.681421876963405 104.71671166516299,49.67747402664955 103.97105762072006,48.13487568538095 103.96271270338603,48.12099787028693 104.29535159405187,46.67926182475913 104.31015544827369,46.650358892066116 102.53898679405084,45.27037902864669 102.52628009182791,45.24890791328199 102.92094516560883,41.4986113913632 102.92372680471726,41.48525892985618 104.91095308738278,40.323786063329145 104.93257268560683,40.32128900204535 103.54624598694191,38.0909004370913 103.52865321183036,38.04371924609278 104.06003366338537,37.34865932986559 104.0642206856077,37.33920827405219 104.01026999405276,35.196595263636674 104.02649379493943,35.153268232435046 103.250249002053,34.62543343091948 103.24419784471667,34.61147597507207 103.58489766338299,33.854552843533575 103.58825456293981,33.84846680818137 102.28586491671723,31.693311634968094 102.20168756560581,31.65284256121359 102.46099167227494,29.739826749435277 102.46386797449651,29.71605286962568 100.81159618782969,26.20195911743486 100.77172117271968,26.157280415098473 102.99594019493944,25.948370899070696 103.05849794782972,25.958011658818403 103.43580326338689,26.630953428063194 103.43793682427477,26.706642139253205 104.85454115493904,25.28824980748887 104.87091059138457,25.292997128066606 104.76231743938679,24.26911161632143 104.76440730960731,24.20605863264628 107.86539606694114,22.588586131020392 107.88719042782887,22.557684803116544 107.69278152471799,21.987202990669 107.69281793360697,21.785026566407584 108.45995322249638,21.102618601848196 108.54461117094016,21.055834348228935 107.68271082605042,20.147124102426286 107.65105693805071,20.11457582148706 108.19315616649675,19.494873852946156 108.18107569716213,19.434249510368506 107.05569150516222,18.259274203792852 107.0577304029399,18.24572853663977 108.951779057161,16.413621577077546 108.95202663760847,16.406846449564735 107.52675699138473,13.748699811874946 107.5224388971632,13.74198948888498 109.05386229983105,13.099304275090805 109.05655655760766,13.095102726065495 108.96842520116171,11.65899339649023 108.962934740717,11.628597852462377 109.46370988027466,11.765455970493901 109.53109545182943,11.685231565762486 110.69805859494063,7.37519205934205 110.69974068560678,7.363801813535798 111.76810855760687,6.417793791531409 111.78403380560613,6.406640298379177 112.07401604205062,4.960767238162049 112.08751645805296,4.938442872202547 111.72024543227435,3.3476495999695604 111.69995111760782,3.286264731337548 110.75337097894209,2.547646607315807 110.72111998516175,2.527235142496471 108.88579158694175,4.63883486092073 108.84414709982794,4.686044918314844 108.12578515849583,4.37452602272661 108.07097521716187,4.4189631987463205 105.95903392649471,9.561165662115497 105.96736428027198,9.581868875518381 103.19724494160602,10.798958775002218 103.17828319227247,10.81720344955084 101.61613796916191,14.130186790961131 101.6371823069405,14.16515509168658 100.19492427316419,15.165811700402816 100.1568405753844,15.176822371750138 95.08232984116168,13.479531020215479 95.0635501362731,13.47333132892946 92.28159790871706,10.17152509602002 92.2755613149404,10.164628569542954 90.38911483671966,10.368714332105998 90.38453459849681,10.371009301840793 84.70810483138467,7.138822513836027 84.61593208827527,7.151941162408736 83.77881891494019,7.55784196108271 83.77379448827398,7.560160852403903 83.32863756738645,10.550127564444672 83.31282154605125,10.571781319571716 81.83005498249533,11.539818264936736 81.8280015211638,11.542055946354054 80.64341647583043,11.2683250156375 80.59678397093941,11.277730556391004 79.77668831227331,11.789501480347651 79.70996538249585,11.79250006268249 80.24050842960698,12.367493092175398 80.25573462693994,12.396351310286088 78.62163087583014,13.099815274076361 78.60980526871846,13.117677497278606 77.61054874960666,12.699620227368548 77.60290288294183,12.702527456875949 76.24078809538315,14.63664888122858 76.2262973576084,14.651463643330324 74.58928817716352,14.678890713234257 74.56450828738436,14.687098373239685 73.7601776776077,15.602282612881215 73.73188068916481,15.62711703043297 73.66536164916162,16.332455675360514 73.67617508916284,16.37721509757085 74.93911206338655,17.286464333528244 74.95291103227338,17.301510162178428 73.2271879531616,18.553367962415912 73.19403401894071,18.56682211070275 71.99357469805092,18.38535846928117 71.96896957094124,18.39803026420105 71.65962508738431,19.187503168798692 71.65306420560793,19.20855542159389 73.1480641558299,21.494293387167097 73.14951322960825,21.531504654012505 69.45403285271878,20.27757611244725 69.445309282941,20.270250106607097 69.51834551405028,20.847715516801514 69.50383293094039,20.885963079909388 67.00561517449661,21.264330731150228 66.96319881894144,21.26810645127535 67.23245711582987,20.199677257335686 67.22444716027513,20.12790136073582 66.61523178605113,19.841049161233066 66.56805314783107,19.792065138848383 65.71956583760604,21.265430565812682 65.70395370605385,21.321011611560067 63.3027947656081,21.73955199202447 63.27429388738511,21.749563006730575 61.709272362050086,19.420366497587935 61.67643882605172,19.365333160527925 59.67076780027402,18.460277050261908 59.623989659829945,18.44584702220582 59.072919281161575,18.95359763258585 59.055909048273875,18.983407791037287 57.511502235830825,16.886917681759048 57.062893752273354,16.50768943538988 54.49631466605044,16.297955260841814 54.39264399583027,16.28979542685975 53.565725311386466,13.350392034700604 53.54331928116427,13.308741701622608 49.779128049162516,13.328896959894161 49.626341787827386,13.326557818258705 49.60369545894193,10.799117819752253 49.61999207760656,9.531553793907921 48.594186196717615,9.520883936926664 48.35702597627516,9.519315841165195 48.35886826605112,8.377372005277545 48.35942896293983,8.243645034858316 44.71343554783072,7.866223086768702 44.64492130072014,7.922964216771476 42.896260621608064,6.731901318832939 42.8855636900522,6.729775344420165 42.84288519049571,7.530992765011439 42.836957823386015,7.533652682817598 40.814917361162784,7.646141006419026 40.75546892738477,7.665305619990801 40.72066202960542,9.355924600820988 40.719489663385154,9.405900410906003 38.35237303404994,9.351333803040148 38.191991878495735,9.348379327170376 38.167940166496386,10.220868521919881 38.16739403316152,10.247136356864765 36.877587298941044,11.15721799404401 36.87498770427466,11.157501983805384 34.749611533607656,10.223777077367238 34.701945016273946,10.19077169857465 35.02805943405239,8.030022840166755 35.05210386427626,7.954301161388691 34.51419165805256,7.689948985783673 34.3854862358303,7.626101068328541 34.66862360116194,7.05266380853264 34.67703405449557,7.030893712279618 32.63504152116349,6.168739135938637 32.63025739316346,6.164941546761662 30.05281389449648,7.810254292320867 30.022179455385608,7.82012048234447 30.030029211830527,9.746741816098627 30.029541332719795,9.80513358995941 29.040792418940523,10.902450482232787 29.043078897162754,10.922716904181113 27.476935978050292,10.305590923252574 27.477314630496963,10.30401169249945 26.33399541982782,11.836808467260386 26.33107542693889,11.84162432951544 23.36167567583017,10.185590801641053 23.32673042427324,10.164855802844802 23.178793826940648,11.017447792594437 23.16914547138423,11.034646627996523 19.763800248273597,10.313827910739754 19.755295131829747,10.219096120178989 20.034318292717046,10.912083858143712 20.013689016274125,10.982777319612621 18.835402708718732,10.946857022298907 18.808183423385902,10.97362118793663 18.393165780717222,9.452239553155783 18.393471615383,9.362265349793422 17.649390434942156,9.070765063079131 17.614132066941067,9.036775375416443 17.66961921360618,9.892225817296827 17.690394125607977,9.918699759842827 16.223749418050115,10.818407641356869 16.222693560275196,10.819941281480538 15.596387853607133,10.129941294628777 15.395323405606735,10.102479904913167 14.097761578051553,10.78766658585501 14.077430854496027,10.782747546424623 14.138175444718048,12.864364566351112 14.136165674050984,12.870951056398741 11.973972834940481,13.137458733844511 11.719387320274667,13.123979793434962 12.017284849163673,13.524154963233565 12.211074801164626,13.579451809485732 10.35162915493985,14.791651298520271 10.31773247938528,14.810779384930909 9.052188628719717,15.285145757227845 9.031668578940856,15.293454660920368 8.070473912273712,13.69079319875437 8.071566178940532,13.686875964421603 7.639443640273942,13.49688103444915 7.608663565607106,13.494076422025508 7.945897258052549,14.564175164552404 7.946967679384227,14.56661594610178 7.198437332716833,14.794341721862844 7.138100522052094,14.844029174430586 6.308087082052783,13.94116106716811 6.249323135384305,13.886832979754951 5.337426104274176,14.979205808913509 5.17106660916453,15.27150187416683 7.260419825161637,16.070269735411973 7.274211512273007,16.11522425216081 5.567042402940399,16.32459096196381 5.544876671384384,16.344905277792538 6.159378616273,18.871857068009383 6.151419633164017,18.953053153287154 3.483835007384016,19.697044631917205 3.439416162940154,19.78305992444785 5.421588891828844,20.781028268948837 5.424173922938474,20.82589852377842 2.527235142496477,21.444360501417947" stroke="#009edd" fill="none" stroke-width="5px" vector-effect="non-scaling-stroke" stroke-linejoin="round"></polygon>
</svg>