<svg viewBox="0 0 119.5602813155565 81.8310828253525" width="119.5602813155565" height="81.8310828253525" xmlns="http://www.w3.org/2000/svg">
  <title>Pardubický kraj</title>
  <desc>Geojson of Pardubický kraj</desc>
  <!-- Generated from maps/3-geojsons-aggregated/world/europe/czechia/pardubicky-kraj/pardubicky-kraj.aggregated3.waterway+boundary.geojson -->
  <metadata>
    <collboard>
      <support-module name="@collboard/map-svg-geojson-import" version="1.4.4"></support-module>
    </collboard>
  </metadata>
  <polygon points="11.392732016086303,39.983425622019055 11.698763290750868,40.25951826295531 11.740007280085775,40.32617246647023 11.64219844097279,41.19108944372746 11.666577832973054,41.22317976060185 13.256386529862722,41.99816968722334 13.257966675640274,41.99503001183511 13.901340869417254,43.04152609724733 13.91679280186254,43.061026715375554 14.967757224974413,43.32426130575222 15.049946650751009,43.345838459273 16.64659293697514,44.77842258642085 16.70071110941826,44.84802421504464 17.11001983830829,44.60114099540405 17.1685362045293,44.647976404992 17.294889612529733,45.5934826143628 17.322239969861766,45.62446357934277 18.362623969863126,45.858807160120705 18.392777811638734,45.861278751884306 18.355065484530133,46.84279597019085 18.32730734764082,46.8769857058407 20.414082814306678,46.81976573388856 20.416602309416703,46.838846647001986 21.838580592086146,46.12461536692608 21.85540149875051,46.12217775013887 21.943947916529215,47.18084745079577 21.994126647197483,47.24238501195686 22.84626940986382,47.09212788732875 22.894649541417678,47.121069376025474 23.496503038307495,46.049195450939074 23.52281210141846,46.01182930991235 23.97512700986299,46.678648407382205 23.975913441864034,46.67964140946606 25.17244060275152,46.66570551145887 25.235122145862626,46.68798036300759 25.38873124808488,47.68206391360618 25.49597727119581,47.750647020915125 25.8462089369732,47.31799154300279 25.879224517419427,47.32138766317402 26.456188897863104,47.96786442554767 26.55327684097174,47.95987715136325 26.896539845418374,47.43173221281213 26.90932664719476,47.432262493098456 27.506366888973936,48.901573006918255 27.491009619641773,49.03612479625335 28.339678974308846,49.214401658841595 28.341441164528444,49.21150298629109 28.426769036530825,49.76126455048979 28.372148421417297,49.860248462380326 29.043826885418458,50.18154755902542 29.072866615197928,50.24366027301039 32.15699805697259,50.08491510118219 32.220560695197854,50.12523051921489 31.615619724528006,51.81101704143985 31.58175217608405,51.85150010204125 31.732106323640984,52.87581001649851 31.743334824974955,52.908733454697725 33.96428432897556,52.56240186804098 34.01340720186308,52.54116543474993 35.14019677697397,53.188952240760045 35.24496699563934,53.21771493606539 35.85627224008677,54.47883061355861 35.91347060453154,54.527034987286974 37.26652686053021,55.04086179107726 37.281796748530546,55.059091541692396 38.17680005519542,54.15910248691398 38.18467893875095,54.159339129152436 38.320221950307676,55.53400132199059 38.314134384085264,55.553175756238126 37.115328026751015,57.025046629552165 37.10422331564077,57.08654102664041 38.61652476986237,58.84861359360839 38.665429189418866,58.88583578379658 41.085273171640075,59.33435114341883 41.23640646941968,59.361381581020034 42.13987120186103,60.81477175292858 42.22582530675172,60.84092824867876 45.12648507564045,60.223099574562006 45.20150195030911,60.159580522295805 44.75655620097423,58.943413712167605 44.7433179289732,58.91094316771087 46.09690575475288,58.812821055097814 46.14701894941864,58.78621575440812 46.100451980530124,57.09106860876673 46.107435205417644,56.98180867150987 47.87746790230922,55.41790555871739 47.87941213697377,55.41630577455108 47.83910021519587,54.883371340549274 47.84386249786367,54.87565331303813 48.82168146319637,54.90449727253181 48.84235443030666,54.92531891122235 48.54983813519539,55.241013912197744 48.54809779030802,55.25391398051761 48.77664366763966,56.48620900475253 48.773512503195164,56.49042169544446 49.57310267563917,57.263812213736315 49.59920056719748,57.279601909901615 51.58242187208562,57.891333074121576 51.61346409075377,57.899767548834284 51.94675105964016,57.355137293637746 51.976744702308864,57.33488801176609 53.95993688008639,57.44269937083627 55.31339363386397,57.32819829927649 53.55606035741694,55.915246750841106 53.54936840363844,55.91168699092996 54.17906741875231,54.20693781674964 54.178739738751396,54.19880189619908 52.68443883919572,52.975030580969545 52.683601434751836,52.9717281419933 53.107087784972464,52.308010122368074 53.11537444808528,52.269841321195784 54.91382792364057,51.806214519781136 54.93588442852961,51.786801466699764 57.80999483564119,53.14178424863094 57.981378757419954,53.26287611975313 58.64509823830631,52.322517804113524 58.66344103652992,52.28794504452999 58.52904854586123,50.706224418724375 58.5214026791964,50.63416030949338 59.01651259564278,49.89227659721982 59.030712062308524,49.86483842139896 58.93464356808582,48.95887269026025 58.95261499564113,48.89807635324432 59.29329296897231,48.87891239545024 59.34286003030611,48.79447287315452 58.71289158941836,47.7040412886683 58.71055413875329,47.683711091598155 59.27066120364071,45.19697846086528 59.276319144973606,45.189686939261804 58.934359578752264,44.06305244875002 58.93111190586242,44.01880863300066 56.88045405697376,44.03511081045035 56.8114664943063,43.99416335126334 57.426288837420365,43.372293220284696 57.453879493418576,43.3356087990036 57.34241003919633,42.85735643019907 57.335441377862665,42.812628573310576 56.18722153075105,42.968254188573695 56.13570295297432,42.99140230113298 55.5048898258643,41.35219425883151 55.50357182408516,41.34693072577392 53.17650497252944,39.712516334622705 53.16963097430599,39.69947782215203 55.10087494942018,38.35391434313096 55.10576830408427,38.34129073404656 52.99108906497313,37.26685466198287 52.925924435640994,37.21793250428636 52.60672770675046,36.006313497541484 52.587809648084296,35.9355249022763 53.016939376083975,35.69562150069577 53.004633171639945,35.65308497666155 52.477891212528995,35.70613685820462 52.46286162319484,35.649760736721866 53.00857261341771,35.46415412520327 53.010174604530405,35.463724446765625 52.752741914750736,33.7879132307793 52.74054493697368,33.77583327951906 53.51117547919748,33.08633814380337 53.5125007627521,33.08577253083531 53.071647372529334,32.60724293206913 53.051848218751914,32.52910173364398 53.11865852986121,31.45101899860783 53.111121889863355,31.437632564817974 50.846867653417945,30.4120977928007 50.83255896008523,30.381879156244754 50.697117893417094,29.961075718487333 50.69733634675104,29.935189683254062 51.53779185608619,28.69251536102274 51.53862197875169,28.69216439816991 51.13676979030606,27.717985542524907 51.136041612529155,27.715652920144564 50.44266345075048,27.668456734340356 50.43517050141709,27.653736151279368 50.38892393075112,26.372168256411165 50.36950342942037,26.352075531745864 49.60889989519674,26.77422236844031 49.595435888086286,26.774550804130918 48.85921174586292,26.292351905252502 48.85702721252929,26.290936108702223 48.592079728083995,27.29091782519717 48.55739662052838,27.38922314207775 47.002285594751086,27.518293597011137 46.983090828529754,27.517081947895708 47.05635279475137,28.464679106093897 47.05586491564063,28.470657042476883 46.191015450751365,28.63437975427259 46.16557291919781,28.67295197779349 44.745888396528976,28.162320567707134 44.627705143196,28.125012856065947 43.84982923208627,26.91294504727011 43.85283660630703,26.884677572700088 43.09071118052998,26.876308288262585 43.077261736973384,26.87287676467567 42.52721808897513,26.10477264648543 42.47178191475287,26.04241847036064 41.982453729863124,26.86990957092093 41.97497534408358,26.9022768108789 41.036157580530926,26.065230780360068 41.030732656085824,26.05781169300353 40.049913598304926,26.069795496261573 40.03702485163995,26.0643133059817 39.33251285164042,27.149871906596303 39.26112958408667,27.227773190995862 38.58998268986361,26.999343402173324 38.578157082751936,27.006829156594534 37.968126149419184,25.59277898729087 37.95327132275161,25.57506223900309 37.404487422305465,26.081858560814357 37.3736199663068,26.056486450381996 37.03807564630879,25.243021137260435 37.025114081862924,25.204866436364313 36.041695429418546,25.55273497605994 36.020199621418215,25.555884133860303 35.95558840719641,26.586976824236984 35.934398433861865,26.674943278890346 35.42307199830721,26.394933880817913 35.35809669519549,26.31509521059815 34.60872894408421,26.78860556811305 34.58115285163986,26.784720975409797 35.159864858752194,26.99629700295081 35.16669516630827,27.005934490570866 35.06238369964012,27.67191040383804 35.055320375196246,27.69736557901087 34.588456474752824,27.705654338139354 34.57689301163955,27.70689991560684 34.50425727830625,26.986500949296527 34.390122693418014,26.97829037052324 33.97337198764035,28.112829766521823 33.95197084275315,28.123790019312942 31.120043774308943,27.048266754827996 30.619436115639473,27.258020649243914 30.618394821418406,26.623762763075135 30.602425882751778,26.569229332024765 29.260765608975273,26.253037929881607 29.256309160973252,26.245369916021076 29.042472474753232,27.051969962938525 29.059482707640928,27.151570594542495 28.537794302306793,27.169825794246933 28.271324926308083,27.17650727264299 28.551185491639263,27.273795464430073 28.58534431119515,27.28031827487757 28.37075760186308,27.68906548380218 28.344856318306483,27.81434688552435 26.8087507325301,27.611782271339685 26.71838387030766,27.58400534121792 25.910004592086263,28.269781201091604 25.839393192973876,28.396826804062943 24.488164663194404,27.72351136243269 24.370556670306907,27.676722890466404 23.544125864973832,28.98038785812568 23.527494284529894,29.0240632673569 22.813115475640007,29.18748634308467 22.76699269519486,29.2468386339784 22.966360488972352,29.61533363244416 22.966069217863335,29.697150110242724 22.326030078308033,30.686717534183476 22.292242629420436,30.769785440968185 19.727425733420024,31.836608863012586 19.713699582308255,31.863187386595015 19.15885724275031,31.239332969683524 19.131849128973045,31.218432107037003 18.807635255197603,31.87375539700042 18.777612485418285,31.894223787148434 17.971060933418993,31.815212435054487 17.96008729430505,31.822997078529802 17.971461431197895,32.353978567659574 17.95817218675402,32.36829047879618 16.9677047734167,31.525124705541018 16.938745143196503,31.45241082373431 15.948051994752678,32.037262763064426 15.907033740530096,32.04439085304948 15.562219717419431,31.265224127490725 15.559809448973466,31.26084481879552 13.750273107640169,31.233923874856913 13.720971233862294,31.182831427718696 12.917325111195169,31.910743272074974 12.883785242752129,31.96692046093412 14.265393349416627,33.50373320399267 14.297804542306768,33.51729554710218 13.642087735193854,33.979967287586256 13.602955461417515,33.974696636376386 13.602999152084886,34.7690823724919 13.619266643641822,34.810415763430136 13.074050814308066,35.289611435016916 13.045695571641046,35.31706643416728 12.884054668528917,36.11505547221204 12.885809576973044,36.14856628627057 13.191600552974343,36.38380323960773 13.212157011639285,36.39778802660912 11.557933708529527,36.85521889395495 11.545707603638949,36.853862360596025 12.057449100529267,39.4254810770788 12.058140869420095,39.50298118076353 11.392732016086303,39.983425622019055" stroke="#009edd" fill="none" stroke-width="2.142857142857143" vector-effect="non-scaling-stroke" stroke-linejoin="round"></polygon>
  <polygon points="1.7261356071965566,20.643260966118028 3.941419888085875,22.959000445616034 3.9930404107512008,22.988138296785834 6.645915845419586,23.396301154006863 6.684647621417025,23.401604712554033 6.001835319195016,23.837623415013145 5.948365224972441,23.848682925476528 6.186741502305449,24.194168002042346 6.214871009863055,24.22232480630518 7.741219013418959,24.707901966061396 7.771037893418179,24.71398599351123 8.808967934309113,24.14280553700118 8.822876129862925,24.146284104416914 8.398603347641256,24.878773313813504 8.39204974764034,24.88866379325809 8.725416816086,25.527099857585924 8.756284272084669,25.585495190463913 9.182727024083215,25.411678026186195 9.203851461418163,25.406806896967822 9.385153164530129,24.48426108938183 9.445708428528816,24.51526024137165 9.87797660275137,25.084521042804766 9.899719991196253,25.107892478110802 9.783917879195725,25.92099284913747 9.823902120972708,25.945742600717125 8.958404577862893,26.719894302318057 8.873739347640731,26.735387539628206 9.203785925418561,27.08320364863502 9.217330032085375,27.097620006608846 11.875127948528462,28.958063226555893 11.88435396097375,28.96455005844218 13.791568069417918,29.411160619939977 13.820229146753627,29.429125254137393 14.14036522497372,29.929835887994336 14.145426060528917,29.95052663633432 13.924365850752293,30.21271960436606 13.742678213418186,30.369723747320307 14.018679436527965,31.29453258866451 14.039192204531355,31.30864359465231 15.459677722752168,31.28834274531873 15.559809448973466,31.26084481879552 15.899802935198023,32.02212402674813 15.907033740530096,32.04439085304948 16.87157802497568,31.458883371683257 16.938745143196503,31.45241082373431 17.852098529863362,32.345810013392835 17.861797857862623,32.3875351316954 17.94552373875231,31.83929048238096 17.96008729430505,31.822997078529802 18.76073332452979,31.901521784950816 18.777612485418285,31.894223787148434 19.111008680971647,31.24089459020506 19.131849128973045,31.218432107037003 19.702507489863276,31.863481571316147 19.713699582308255,31.863187386595015 22.2041039911961,30.72528655080859 22.292242629420436,30.769785440968185 22.94363406053053,29.723399491918457 22.966069217863335,29.697150110242724 22.766453843641287,29.258034330280857 22.76699269519486,29.2468386339784 23.421333246307405,29.038395246041542 23.527494284529894,29.0240632673569 24.31634383475066,27.778656020430567 24.370556670306907,27.676722890466404 25.777847607196964,28.353667182782733 25.839393192973876,28.396826804062943 26.679273441863554,27.66649776673475 26.71838387030766,27.58400534121792 28.159731681862105,27.796195754608558 28.344856318306483,27.81434688552435 28.56119793608559,27.396923518197212 28.58534431119515,27.28031827487757 28.270713256973615,27.23464711332526 28.271324926308083,27.17650727264299 28.98651201253124,27.173596866960356 29.059482707640928,27.151570594542495 29.23130353608467,26.25341170280771 29.256309160973252,26.245369916021076 30.553528744973665,26.58220867789241 30.602425882751778,26.569229332024765 30.600132122751166,27.216663917625915 30.619436115639473,27.258020649243914 31.549086120973882,26.99027214891575 31.650863528975243,26.965040169026537 33.93353338141933,28.126915046028802 33.95197084275315,28.123790019312942 34.38525846586454,27.117857202024965 34.390122693418014,26.97829037052324 34.57166469519616,27.577788634240637 34.57689301163955,27.70689991560684 35.05063819208481,27.705518456943167 35.055320375196246,27.69736557901087 35.164117416974115,27.018097405955263 35.16669516630827,27.005934490570866 34.57916492630793,26.803351139690854 34.58115285163986,26.784720975409797 35.34932943475324,26.350659750719565 35.35809669519549,26.31509521059815 35.88394299564134,26.669484348796317 35.934398433861865,26.674943278890346 36.01616551652733,25.564810513703918 36.020199621418215,25.555884133860303 36.932773857862415,25.224532907024326 37.025114081862924,25.204866436364313 37.3736199663068,26.056486450381996 37.404487422305465,26.081858560814357 37.93760821875076,25.56641907298362 37.95327132275161,25.57506223900309 38.62177493164091,27.050860133247983 38.62587457252849,27.05575244201936 39.254575984085754,27.222971632196636 39.26112958408667,27.227773190995862 40.034672837418114,26.070452452577953 40.03702485163995,26.0643133059817 41.01566665786268,26.05366606116331 41.030732656085824,26.05781169300353 41.97285634675245,26.901144300481604 41.97497534408358,26.9022768108789 42.4629491183081,26.049882886183692 42.47178191475287,26.04241847036064 43.04142810852973,26.846115336598082 43.053566832085565,26.858731616575454 43.82448136364001,26.89231071129943 43.85283660630703,26.884677572700088 44.575909857864104,28.071139843213672 44.627705143196,28.125012856065947 45.95521692274961,28.53881411104412 46.16557291919781,28.67295197779349 47.03372102941685,28.468019052420637 47.05586491564063,28.470657042476883 46.98338209963877,27.5423906374639 46.983090828529754,27.517081947895708 48.5362576196425,27.396719684852357 48.55739662052838,27.38922314207775 48.85606601786167,26.294798400822398 48.85702721252929,26.290936108702223 49.57841837342021,26.75193399660238 49.595435888086286,26.774550804130918 50.35357089963982,26.355530035907936 50.36950342942037,26.352075531745864 50.568987731640306,27.790545452603325 50.589143692529255,27.80680562450179 52.424566753862386,27.857805180330246 52.458456147641485,27.86158709995834 52.49561505964266,26.850203739323838 52.49742822230801,26.842615842630398 51.58294616008534,26.273244283980233 51.571943393860785,26.251361614627598 52.8727601760842,25.774304369949455 52.97004472719746,25.78560915154412 52.94185696541863,24.84736837341224 52.94815570319661,24.81148812064966 54.65551413875255,24.498774968694846 54.783637018750966,24.585438225207685 54.95933175297287,23.999649796156515 54.99069436986356,23.945928596497467 54.05092269341876,23.31800507001644 54.03953399297498,23.30289874853224 54.66352409430729,22.22846321332508 54.673376339640896,22.191749586252623 54.08838015830734,21.78210211429868 54.10775696897363,21.362572292193722 54.873122785862144,22.363550000514437 54.910878803641026,22.40031914140745 56.4404671983084,23.1076120560323 56.48227916630749,23.10851869567304 57.51913878586384,20.06379510105798 57.517209114753136,20.060903569877333 58.144891077418656,19.591672753084637 58.16324115741773,19.581636561832052 58.24448395208347,18.193935080727165 58.25480951297396,18.182308255737365 56.710402700530906,16.08581814645913 56.261794216973435,15.706589900089961 53.69521513075051,15.496855725541895 53.59154446053035,15.488695891559832 52.76462577608655,12.549292499400686 52.742219745864354,12.50764216632269 48.9780285138626,12.52779742459424 48.82524225252746,12.525458282958784 48.802595923642,9.998018284452332 48.81889254230664,8.730454258608 47.793086661417696,8.719784401626743 47.55592644097524,8.718216305865274 47.5577687307512,7.576272469977624 47.55832942763991,7.4425454995583955 45.70162172986202,7.423860286012126 45.533332563638766,7.423257902752443 44.482979809861355,6.7242323746515416 44.438218721862725,6.700793189135215 43.9123360125308,7.065123551468782 43.843821765420216,7.121864681471556 42.095161086308146,5.93080178353302 42.08446415475228,5.928675809120245 42.04178565519578,6.729893229711519 42.0358582880861,6.732553147517677 40.013817825862866,6.8450414711191065 39.95436939208485,6.864206084690881 39.9195624943055,8.554825065521067 39.918390128085235,8.604800875606083 37.551273498750014,8.550234267740228 37.39089234319581,8.547279791870455 37.36684063119647,9.41976898661996 37.3662944978616,9.446036821564844 36.076487763641126,10.35611845874409 36.07388816897474,10.356402448505463 33.94851199830773,9.422677542067317 33.90084548097402,9.38967216327473 34.22695989875247,7.228923304866834 34.25100432897634,7.15320162608877 33.71309212275264,6.888849450483753 33.58438670053038,6.825001533028621 33.86752406586202,6.25156427323272 33.87593451919565,6.2297941769796985 32.75558203564033,6.181137980705893 32.737108165417524,6.175271923870963 31.833941985863568,5.367639600638717 31.82915785786354,5.363842011461742 31.16755009252993,6.2837588457627085 31.144437729863057,6.331697938683277 30.514462007196926,6.181854184886101 30.370246398308154,6.1749649788620395 30.260713896974995,6.684810834921149 30.260276990307105,6.7094095455151495 29.25171435919656,7.009154757020946 29.221079920085685,7.01902094704455 29.158434785860663,7.742773064652642 29.157728453418898,7.754638168274318 29.460621281863496,7.790960680760685 29.478825726306606,7.794733843980424 29.22892967653061,8.945642280798706 29.228441797419876,9.00403405465949 28.713357964529497,9.241094349736882 28.566025754752992,9.235208871336722 28.2396928836406,10.101350946932866 28.241979361862832,10.121617368881193 26.67583644275037,9.504491387952653 26.67621509519704,9.50291215719953 25.742094078306764,10.285961173563914 25.708889171640113,10.28050849689643 25.5328958845279,11.035708931960466 25.52997589163897,11.040524794215521 23.941354124529244,10.595721025723101 23.880310981416915,10.587144905965028 22.560576140530248,9.384491266341133 22.52563088897332,9.36375626754488 22.37769429164073,10.216348257294516 22.36804593608431,10.233547092696604 18.962700712973675,9.512728375439833 18.954195596529825,9.417996584879068 18.872246469416496,9.998597661717572 18.872901829418335,10.041130600458196 19.233218757417127,10.110984322843791 19.212589480974202,10.1816777843127 18.034303173418813,10.145757486998987 18.007083888085983,10.17252165263671 17.590835624972897,9.79176741465671 17.58410726230832,9.792653554659404 17.5920662454173,8.651140017855864 17.592372080083077,8.561165814493501 16.848290899642233,8.26966552777921 16.81303253164115,8.235675840116523 16.56610744719692,8.61748224953662 16.474641036529285,8.719738949583911 16.868519678306257,9.091126281996907 16.889294590308054,9.117600224542906 16.237153136085908,9.02431593089022 16.189450209863207,9.009306213517624 15.422649882750193,10.017308106056948 15.421594024975276,10.01884174618062 14.795288318307213,9.328841759328856 14.594223870306815,9.301380369613247 13.296662042751633,9.98656705055509 13.276331319196107,9.981648011124703 13.337075909418127,12.063265031051191 13.335066138751063,12.06985152109882 12.838550839196614,11.625836094750042 12.822858608085154,11.60588191825845 12.310323397418324,12.392364008426734 12.309471429417682,12.395452659175858 11.17287329964056,12.336359198544592 10.918287784974746,12.322880258135042 11.216185313863754,12.723055427933645 11.409975265864706,12.778352274185814 10.656995752973671,12.833739393430363 10.606787895197705,12.835828605418278 9.55052961963993,13.99055176322035 9.516632944085359,14.009679849630988 8.251089093419797,14.484046221927924 8.230569043640935,14.492355125620447 7.269374376973793,12.88969366345445 7.270466643640612,12.885776429121684 6.838344104974022,12.695781499149229 6.807564030307185,12.692976886725587 7.144797722752628,13.763075629252484 7.145868144084307,13.76551641080186 6.397337797416913,13.993242186562924 6.337000986752173,14.042929639130666 5.506987546752862,13.140061531868191 5.448223600084384,13.08573344445503 4.536326568974255,14.178106273613588 4.3699670738646095,14.470402338866911 6.459320289861717,15.269170200112052 6.473111976973087,15.314124716860892 4.7659428676404785,15.52349142666389 4.743777136084463,15.543805742492617 5.3931151058630356,16.807524794341948 5.415302682751281,16.85737942840387 5.35827908097308,18.07075753270946 5.350320097864096,18.151953617987232 2.682735472084096,18.895945096617282 2.6383166276402337,18.98196038914793 4.672422995641319,19.56480747191126 4.6921347680839975,19.57298387587252 4.620489356528924,19.97992873364892 4.623074387638553,20.0247989884785 2.884899468529693,19.941113453617795 2.8374514045299293,19.94764505385428 1.7261356071965566,20.643260966118028" stroke="#009edd" fill="none" stroke-width="2.142857142857143" vector-effect="non-scaling-stroke" stroke-linejoin="round"></polygon>
  <polygon points="52.683601434751836,52.9717281419933 54.17222982941785,54.19385498013908 54.178739738751396,54.19880189619908 53.92395033430549,55.088757007169264 53.54936840363844,55.91168699092996 55.305376396530846,57.30633842414136 55.31339363386397,57.32819829927649 53.20983366941982,57.58003667975172 53.172900492528065,57.601737798778416 54.61775083919529,59.007622407957754 54.63843836986234,59.026874736945686 55.24831638586366,60.78353911250197 55.296973224975595,60.827636172445274 58.257940677418446,60.15601226728504 58.28031029875165,60.15172360439938 59.09907339208476,61.60827988121491 59.11154707741989,61.63276709736565 60.36406382763999,61.23302434503458 60.396118213418596,61.21603060777016 61.69585729252904,62.14776098295006 61.703211888084844,62.15292575504755 62.242573168083986,61.62782690035565 62.25423857608585,61.63148422203267 63.10331571030729,62.98345671369353 63.109760083641234,62.98741689320632 65.92265986674938,63.7944236890562 65.93863608719731,63.80583000830266 66.79549016008569,65.25275495635324 66.83803030586459,65.31348221512344 68.09499622230543,65.91216070411211 68.13577417786182,65.91597258716247 67.77294503652847,67.0705811402022 67.77192558763964,67.08941165565811 68.76135898853136,67.454598430025 68.76907767297416,67.44894403821563 69.04717604808285,68.149167393451 69.0328455094179,68.18975453724161 69.70066463119474,68.39737257444686 69.71109213697382,68.39875501984098 70.12868752897376,67.76154557946029 70.1390276534181,67.74987772067435 73.43504426497566,68.94716493816996 73.47511588808447,68.94989583631433 74.26869859386242,70.2717042452994 74.27265988097243,70.28580484210579 75.03971507030838,70.14367365974358 75.04968382408443,70.14712305304602 75.61335167830585,71.4685303362454 75.61443666319428,71.47272027933978 77.69336965519652,73.55123347081572 77.6958090507531,73.55640995780014 77.62049362319414,72.98829221497472 77.62791375475246,72.97103170728114 78.7260568160844,72.08843858804794 78.73095745252976,72.07763356177493 78.49109569252943,71.00642622541527 78.49557398586367,70.99943864613488 79.20843090319723,71.22061030526129 79.22846307386244,71.21679087857375 79.78957502408485,70.61569227295877 79.8505089405302,70.58823424460898 80.93587248186414,70.82161186490448 80.96473744897412,70.80646784301244 80.60082332274942,71.80744481840993 80.59787420275279,71.85024009888475 82.52403549697374,71.36981300190564 82.53971316452845,71.37411535338506 83.61033838764016,70.43332524462058 83.61167823475154,70.42996591331648 84.97385127652852,71.45910576084171 84.99145133341845,71.47083312038049 87.19006034319646,71.18287649954618 87.21216782053125,71.18065223018822 87.43260907919503,71.5887343749102 87.44566530675111,71.5845782190987 88.05806281786245,67.24994619716782 88.05814291741882,67.21623208544807 88.54397584897416,67.00389248951869 88.57019753075329,66.9611267844466 89.18898844274992,67.42440413494806 89.20162960897324,67.4515745114728 89.83191844808353,66.95286365624234 89.83590886230705,66.94345379302577 90.78925377252926,67.84477108816974 90.8086888374197,67.86374506816973 91.14066508630822,67.48774901126636 91.14189570675262,67.48599537415176 92.0626692249749,68.0067222347676 92.07795367653199,68.03046147846798 92.73696912897468,67.79001819795704 92.84830022941642,67.78220594666382 93.3974700640847,66.73273382737135 93.3970404391952,66.68885295741093 95.50121935475218,68.32813746440551 95.50502772453075,68.32876687844 96.0894195183053,67.6277009318208 96.10248302763976,67.62029312462437 96.90205135475153,67.81713055772889 96.91689161786235,67.82221130010039 96.55448481964014,67.25185729431578 96.57067221164071,67.24701209965751 97.53558058497329,67.79196282856174 97.61736223119843,67.8397016072664 98.83555268097444,67.46940324135976 98.8443199414196,67.46380507139148 104.46842285341882,70.63244340024868 104.47373855119696,70.63954379555544 106.67491074675236,70.56127041672771 106.68713685164003,70.55737188563253 106.48304318408373,69.96077405337455 106.48287570319553,69.95606608880371 106.85753773341895,69.63402721379717 106.89061884986478,69.6369937434185 106.66829889253023,68.99178067552748 106.66449780453004,68.93934309891665 107.16986046408601,67.40702491568264 107.1636709529721,67.37616711039045 107.97214489430662,67.82321171120748 107.98073011030684,67.80447364362662 106.41613092808585,66.02199584611117 106.40740735830805,66.01761057861331 106.6694057227509,64.13105758986676 106.65710680008524,64.0712845651422 108.4199887911953,62.94135712820462 108.45115480008427,62.935529313997904 108.29574709875051,62.491820920609825 108.31564819741943,62.45311553871907 109.68812495475177,61.37526323260281 109.70801148986394,61.364459554135465 109.9072554934177,59.02784298094085 109.91160999652821,59.007543597113184 109.28941121252902,58.52887062725968 109.2835930720863,58.52491847915553 109.72440277164169,56.78989739091376 109.7233032231965,56.78556103497868 108.69833474675143,55.90457872923326 108.63233999475088,55.857276448152334 105.5878578329739,55.936503876513235 105.56019435919771,55.90232571250417 107.30131839830611,53.74642791427796 107.3285231200851,53.711852890189405 105.80315815652904,52.544299053769286 105.79626959475172,52.530152665889545 106.58326957341815,51.61172011996569 106.59749088541903,51.59679341469637 106.44341574941828,51.0309577927419 106.47137777608478,50.9878302527668 105.35382877697303,50.61954666119018 105.3359301671957,50.61801312792995 103.55537530141774,48.195406582505164 103.54906928186429,48.19042038594671 103.16995808542015,47.33377615008103 103.16161316808612,47.31989833498701 103.49425205875195,45.87816228945921 103.50905591297379,45.8492593567662 101.79413171030647,44.57665638058861 101.7682231449744,44.56213940174675 101.97120998230713,41.27298093821628 101.97610333697412,41.26964882552747 101.95776053875052,42.329677622917 101.95854697075157,42.34368105789071 101.46702697075271,42.73937617665106 101.45741502408528,42.746919400865224 96.51527244630743,41.75732423541667 96.40997793964235,41.71067861229712 96.57009695119524,42.326459086414616 96.57667967830676,42.34124175244542 96.2174477351964,42.28581501829066 96.21385781875179,42.2872831338278 94.83810426141609,41.13880249367102 94.83320362497362,41.118289697253566 93.72933708630917,41.114178092220754 93.71110351474964,41.107728287975256 92.09518236275363,42.74525944074448 92.09592510408439,42.74650158781915 89.41869212275088,43.973740310181526 89.4031091183093,43.986768616080006 89.49509981697375,45.73538415048569 89.49313373697406,45.75707592390572 87.20791526230641,45.69201163130237 87.18799960008364,45.692350215923575 87.56322232719577,44.34591538288114 87.56308397341819,44.33198481678009 86.58139110230732,41.87836381504203 86.59858337963998,41.86712623266685 82.37985629697397,42.504729270762255 82.37799944364124,42.507744432855176 82.98470988630616,40.77306222423685 82.9843312338624,40.76562923500205 82.23471590230656,41.95065649280332 82.21498228452874,42.13596351764026 80.26823540452934,42.17411285434973 80.13816100808509,42.24964278538136 77.79288243030788,38.69415311482189 77.81768416541928,38.661268173205094 77.6229694276426,39.072598193945666 77.57271059741798,39.02802010619234 77.65990260452855,38.27551639855846 77.62931913786343,38.24552213419701 76.82711480719627,38.708369292821224 76.81188860986332,38.70687761292683 76.91592336897338,37.84869854203607 76.918544808972,37.83655976748741 75.07058980808543,37.59765550172633 75.03158860630829,37.58631867650583 74.78930201430812,37.09752425282968 74.79155208364136,37.08706809730538 75.96854951652823,36.64277035482991 75.97789931919434,36.62822095029005 77.99414348630708,37.04227030896327 78.00827013519483,37.044779808726524 76.81756839652844,35.335328228971406 76.8024732711976,35.319033961750755 75.39105356630644,34.638215737136846 75.3671329263063,34.617305282909726 75.57178000897584,34.53402456033108 75.63814613163886,34.486163580413624 75.47776497608466,33.60603248082516 75.45761629697408,33.57335438221525 72.05500174052905,29.25532880011778 72.05154289608363,29.253585487082088 71.21943230408543,29.555623128188376 71.15584053875246,29.58592558339187 71.05315290852923,30.14831852879906 71.054827717417,30.15919545982651 71.94064142053139,30.262474290332825 72.02645717163868,30.249673480722773 72.60937804630849,31.076367487486635 72.5970572783077,31.119324489140485 70.30329727830723,31.315320000150308 70.29115127297301,31.31271733457433 69.82915160008598,32.1410038390899 69.8281394329726,32.14417181994249 68.63868287830738,32.36417227264355 68.60243418853098,32.3835866458412 67.9537952694187,35.42534724142933 67.89296329786194,35.45323123654125 65.14085179564027,33.332543897691714 65.13569629697486,33.31825714127517 64.92065083563976,34.0978656731404 64.91992993964122,34.10278559064936 62.964940087196375,33.2303752326512 62.945672503194146,33.23431179329527 63.29807413875133,34.06557506988356 63.30855261697325,34.14145485669032 62.84248243030634,34.64014958255611 62.84507474319726,34.65204667496909 63.53283865430749,35.87411977207702 63.54641188808492,35.91632668691491 62.80313898497443,36.395233007571726 62.67513989519685,36.488592173882715 63.30247233252922,37.209590373533494 63.35201754853079,37.2534598911694 63.21927802141764,37.74485124405073 63.18509007475114,37.80314974200919 62.16823349875231,38.72620161634877 62.15850504363953,38.751503526706436 62.01187188452932,38.26151382166463 61.967234586751516,38.22966601899716 61.51355798586337,38.54595459871962 61.49640939919519,38.56046498655523 60.88104092275208,38.045311281163954 60.87064982586199,38.041446003577214 58.67434913964135,40.03600608960587 58.64020488364222,40.06213796420379 58.57373681608479,40.750537298659395 58.58015934408359,40.818744385619716 59.02866588275247,41.46662401991671 59.03047904541782,41.46809235581786 59.5633012889728,41.31784566081369 59.65543034141774,41.41769432388719 59.42983358408565,41.98118379595289 59.42775827741898,41.98343126731379 59.9626631094161,42.55841471670901 60.01681040897566,42.610970382251615 58.841196513861725,43.48499832430571 58.81535348452926,43.50203599020787 59.27184085164227,45.18564612278605 59.276319144973606,45.189686939261804 58.71391832008558,47.65308026888706 58.71055413875329,47.683711091598155 59.32426236986248,48.7667020691315 59.34286003030611,48.79447287315452 58.98987585252799,48.90321981722991 58.95261499564113,48.89807635324432 59.02738428986231,49.82957345300128 59.030712062308524,49.86483842139896 58.54146397697223,50.58447825622752 58.5214026791964,50.63416030949338 58.67005289075205,52.25138808694501 58.66344103652992,52.28794504452999 58.02201835919587,53.21260934328493 57.981378757419954,53.26287611975313 56.49322367830791,52.21007380880365 56.4570769334172,52.19239819141694 56.09228171208415,52.666407348399304 56.05973216541934,52.66734290404893 54.4604935663072,51.80206585918095 54.44290079119565,51.79400527318976 52.683601434751836,52.9717281419933" stroke="#009edd" fill="none" stroke-width="2.142857142857143" vector-effect="non-scaling-stroke" stroke-linejoin="round"></polygon>
  <polygon points="50.697117893417094,29.961075718487333 53.111121889863355,31.437632564817974 53.11865852986121,31.45101899860783 53.04051049075097,32.474231394009614 53.051848218751914,32.52910173364398 53.497660499641285,33.038294768905686 53.5125007627521,33.08577253083531 52.78280837519742,33.761479819495065 52.74054493697368,33.77583327951906 53.003133125418756,35.41949000130298 53.010174604530405,35.463724446765625 52.46286162319484,35.649760736721866 52.477891212528995,35.70613685820462 52.95669722852945,35.67802801849502 53.004633171639945,35.65308497666155 52.65853755563913,35.90413838555432 52.587809648084296,35.9355249022763 52.971005921862165,37.17731818930369 52.925924435640994,37.21793250428636 55.05884452808423,38.35434379395337 55.10576830408427,38.34129073404656 53.17045381519602,39.687659524831176 53.16963097430599,39.69947782215203 55.48644508275211,41.34333886983113 55.50357182408516,41.34693072577392 56.106859831196566,42.95828353228462 56.13570295297432,42.99140230113298 57.31638496541891,42.81769872748591 57.335441377862665,42.812628573310576 57.45509555030622,43.256672663263814 57.453879493418576,43.3356087990036 56.88045405697376,44.03511081045035 56.94352881608538,44.07378877355695 58.31512447830937,43.81730789411849 58.38119932986338,43.79805835884071 58.67466953786098,44.35294838613663 58.71769028097224,44.35894280070242 59.06838798053104,44.10825550746267 59.095490757418524,44.10148184617901 58.819431280084615,43.51654449745146 58.81535348452926,43.50203599020787 60.009943692530584,42.6177684782222 60.01681040897566,42.610970382251615 59.437457605418246,41.995447882403454 59.42775827741898,41.98343126731379 59.64637909164194,41.4279049891953 59.65543034141774,41.41769432388719 58.60298043564144,40.82116177915341 58.58015934408359,40.818744385619716 59.16338605341917,39.404769753483194 59.15873299741834,39.39991111190502 60.85794312363905,38.05070232164616 60.87064982586199,38.041446003577214 62.11830234853151,38.71581638558891 62.15850504363953,38.751503526706436 63.18509007475114,37.80314974200919 63.21927802141764,37.74485124405073 63.35139859741794,37.29466142296041 63.35201754853079,37.2534598911694 62.825545015196624,36.645404392059206 62.67513989519685,36.488592173882715 63.54433658141825,35.931940788285644 63.54641188808492,35.91632668691491 62.861342234751284,34.721562721672306 62.84507474319726,34.65204667496909 63.28828014763894,34.15818242438436 63.30855261697325,34.14145485669032 62.95299068986097,33.26088350330137 62.945672503194146,33.23431179329527 64.83317483919564,34.07469110544516 64.91992993964122,34.10278559064936 65.13329331030728,33.319580619097174 65.13569629697486,33.31825714127517 67.8671421138617,35.460750618763626 67.89296329786194,35.45323123654125 68.60196815474956,32.39521713466129 68.60243418853098,32.3835866458412 69.77075174230741,32.13037977557141 69.8281394329726,32.14417181994249 70.25745120541724,31.389767025427496 70.29115127297301,31.31271733457433 72.5745565849753,31.13088977789484 72.5970572783077,31.119324489140485 72.04202561252933,30.302064932932623 72.02645717163868,30.249673480722773 71.06334011564213,30.159908514899502 71.054827717417,30.15919545982651 71.16566365697545,29.59945240010747 71.15584053875246,29.58592558339187 72.00340306319595,29.35336096027931 72.05154289608363,29.253585487082088 75.42178995030591,33.537712522106084 75.45761629697408,33.57335438221525 75.63243721786311,34.47873332917697 75.63814613163886,34.486163580413624 75.32852494052968,34.55258301725734 75.3671329263063,34.617305282909726 76.7573990667519,35.314126449104876 76.8024732711976,35.319033961750755 77.97101656008346,36.993775694915165 78.00827013519483,37.044779808726524 75.98807924453176,36.631951570538874 75.97789931919434,36.62822095029005 74.83025473252819,37.11154112176336 74.79155208364136,37.08706809730538 75.04784153430846,37.56254856667837 75.03158860630829,37.58631867650583 76.89798835030706,37.827495227351385 76.918544808972,37.83655976748741 76.81496880186205,38.70104649669702 76.81188860986332,38.70687761292683 77.60574802319644,38.225122775785344 77.62931913786343,38.24552213419701 77.57549223652933,39.01634725396761 77.57271059741798,39.02802010619234 77.75593468986227,38.62046118827456 77.81768416541928,38.661268173205094 77.91402936719714,39.335042182759565 77.91686197875134,39.396182384038184 80.03569911297419,42.13699122677099 80.13816100808509,42.24964278538136 81.99885183830811,41.920750186380246 82.21498228452874,42.13596351764026 82.97432607119445,40.767651280189234 82.9843312338624,40.76562923500205 82.36953073608348,42.48846769367119 82.37799944364124,42.507744432855176 86.58441304008484,41.865703180384656 86.59858337963998,41.86712623266685 87.5300902383071,44.297688830779585 87.56308397341819,44.33198481678009 87.18170814408404,45.6605231696918 87.18799960008364,45.692350215923575 89.46529550052838,45.76177090618475 89.49313373697406,45.75707592390572 89.38920820453096,44.01562496108563 89.4031091183093,43.986768616080006 92.06762083386312,42.76360931200797 92.09592510408439,42.74650158781915 93.71090690675084,41.11103790826928 93.71110351474964,41.107728287975256 94.79408591475112,41.106655202467294 94.83320362497362,41.118289697253566 96.21182620275249,42.28470828478057 96.21385781875179,42.2872831338278 96.56457008186153,42.354714384176255 96.57667967830676,42.34124175244542 96.40961385075244,41.72100167316857 96.40997793964235,41.71067861229712 101.61821852275062,42.71577530302201 101.62456095119597,42.713528133179715 102.11984563030893,40.69751185606328 102.12262726941736,40.68415939455626 104.10985355208287,39.522686528029226 104.13147315030693,39.52018946674543 103.45577514497455,39.104825269086355 103.44595202675156,39.10491566734745 102.745146451642,37.28980090179138 102.72755367653045,37.24261971079286 103.25893412808546,36.54755979456567 103.26312115030778,36.538108738752264 102.96397843741761,35.75742437583285 102.93619117341768,35.701693274118945 103.20917045875285,34.39549572833675 103.22539425963951,34.35216869713513 102.44914946675308,33.82433389561956 102.44309830941675,33.81037643977215 102.78379812808308,33.05345330823365 102.7871550276399,33.04736727288145 102.16906316630667,32.63446255080525 102.15914538497346,32.62172387666105 101.48476538141732,30.89221209966817 101.40058803030588,30.85174302591367 101.65989213697503,28.938727214135355 101.6627684391966,28.91495333432576 101.09355915208471,27.393537618863405 101.07943250319404,27.36453656878038 100.4480950880843,26.943194253622273 100.42302392719613,26.94557250682737 100.01049665252977,25.40085958213494 99.97062163741975,25.356180879798554 102.19484065963952,25.147271363770773 102.25739841252981,25.15691212351848 102.63470372808698,25.82985389276327 102.63683728897486,25.905542603953286 104.05344161963913,24.487150272188952 104.06981105608466,24.491897592766687 103.96121790408688,23.468012081021513 103.9633077743074,23.40495909734636 104.5815452711966,23.39772903566372 104.60465763386347,23.38238495445002 105.92878338675256,21.98030419926981 105.93480541697245,21.945651944623748 107.06429653164123,21.78748659572047 107.08609089252896,21.75658526781662 106.89168198941807,21.18610345536908 106.89171839830706,20.983927031107665 107.65885368719647,20.301519066548277 107.74351163564025,20.254734812929016 106.88161129075053,19.346024567126364 106.84995740275082,19.31347628618714 107.39205663119684,18.693774317646234 107.37997616186222,18.633149975068587 106.2545919698623,17.458174668492934 106.25663086763998,17.444629001339848 108.1506795218611,15.612522041777623 108.15092710230857,15.605746914264813 107.52188344719653,15.171769364140705 107.50718153786329,15.157956962696694 106.72565745608482,12.947600276575026 106.72133936186329,12.94088995358506 108.25276276453116,12.298204739790885 108.25545702230775,12.294003190765574 108.1673256658618,10.857893861190309 108.16183520541709,10.827498317162458 108.66261034497475,10.96435643519398 108.72999591652952,10.884132030462565 109.89695905964072,6.574092524042129 109.89864115030687,6.562702278235879 110.96700902230697,5.616694256231489 110.98293427030622,5.605540763079256 111.2729165067507,4.159667702862129 111.28641692275306,4.137343336902626 110.91914589697444,2.54655006466964 110.89885158230791,2.4851651960376273 109.95227144364218,1.7465470720158862 109.92002044986185,1.726135607196551 108.97604718764087,2.2957846358945915 108.94134951653142,2.3211540734384415 109.00661609075215,2.7258886497820587 108.99224186141691,2.831316269748271 108.08469205164184,3.8377353256208098 108.04304756452802,3.884945383014923 107.32468562319592,3.57342648742669 107.26987568186196,3.6178636634464 106.46203525519414,4.8268884798093445 106.42829877875229,4.857795192215775 106.01806526408654,6.891634325658737 105.9766392303096,6.99427587205318 105.05722740453093,8.100715022509752 105.04047931564165,8.129216626250486 105.1579343911948,8.760066126815577 105.16626474497207,8.78076934021846 103.13894499386261,10.0980792304781 103.12754172986206,10.105622351565756 102.3961454063061,9.997859239702297 102.37718365697256,10.01610391425092 100.815038433862,13.32908725566121 100.83608277164058,13.36405555638666 99.39382473786428,14.364712165102896 99.35574104008447,14.375722836450217 94.28123030586175,12.678431484915558 94.26245060097318,12.672231793629539 92.83921985253001,11.11846393401392 92.83217837341836,11.108037282007349 92.76824436453063,10.348144020191462 92.76544816186252,10.339885579330797 91.48049837341715,9.370425560720099 91.47446177964048,9.363529034243033 89.58801530141973,9.567614796806078 89.58343506319689,9.569909766540873 86.28507371919586,8.133262296324023 86.23421050141806,8.13362595191465 86.03964868097283,7.208191446084306 86.03413637519589,7.18931220104459 85.06148019030698,6.646537111362335 84.94948644808501,6.583925401665687 83.57728639830493,6.442591705771696 83.52675814230643,6.45976838513779 82.97771937964026,6.7567424257827895 82.97269495297405,6.759061317103982 82.52753803208653,9.749028029144752 82.51172201075133,9.770681784271796 81.02895544719541,10.738718729636815 81.02690198586389,10.740956411054135 79.84231694053051,10.467225480337579 79.79568443563949,10.476631021091084 78.97558877697338,10.98840194504773 78.90886584719593,10.99140052738257 79.43940889430706,11.566393556875477 79.45463509164001,11.595251774986167 78.65915184186197,11.448744478037765 78.62533526586377,11.420101272238021 77.82053134053022,12.29871573877644 77.80870573341855,12.316577961978687 76.80944921430674,11.898520692068628 76.80180334764191,11.901427921576028 75.43968856008324,13.835549345928662 75.42519782230848,13.850364108030403 73.7881886418636,13.877791177934336 73.76340875208443,13.885998837939765 72.95907814230777,14.801183077581294 72.93078115386488,14.826017495133051 72.8642621138617,15.531356140060593 72.87507555386291,15.576115562270928 74.13801252808662,16.485364798228325 74.15181149697347,16.500410626878505 72.42608841786169,17.75226842711599 72.39293448364079,17.76572257540283 71.192475162751,17.58425893398125 71.16787003564131,17.59693072890113 71.3252001263074,18.178122592661015 71.33447711119553,18.196884320189195 70.8585255520844,18.38640363349877 70.851964670308,18.40745588629397 71.7232585085283,19.09224488536019 71.75774500808511,19.103824400979278 72.34696462052999,20.69319385186718 72.34841369430833,20.730405118712582 68.65293331741887,19.476476577147327 68.64420974764107,19.46915057130718 68.71724597875037,20.046615981501596 68.70273339564046,20.084863544609465 66.20451563919669,20.46323119585031 66.16209928364151,20.467006915975432 65.99702138141912,19.784307336673734 66.00320361075174,19.759676980653964 66.43135758052995,19.398577722035768 66.42334762497522,19.3268018254359 65.81413225075121,19.039949625933144 65.76695361253114,18.99096560354846 65.70047098141985,19.9033071274247 65.70199287297328,19.906005968053428 64.91846630230611,20.464331030512763 64.90285417075393,20.519912076260148 64.38939417430848,20.04399658623333 64.3765345547512,20.040504057244465 62.50169523030818,20.938452456724548 62.473194352085194,20.948463471430657 60.90817282675016,18.619266962288016 60.8753392907518,18.564233625228002 59.589268108529,18.527688096768173 59.585037395639304,18.53199825876108 58.821142497861366,17.64559831509286 58.79119254586294,17.664702208970624 58.032445864974946,18.58274448826887 58.01405937608397,18.591387406435746 58.16142799475238,19.53289556416166 58.16324115741773,19.581636561832052 57.53094982941875,20.054598892646386 57.517209114753136,20.060903569877333 56.49757089964005,23.0534400635679 56.48227916630749,23.10851869567304 55.00640116453178,22.44208649865795 54.910878803641026,22.40031914140745 54.138005473862364,21.37177762765095 54.10775696897363,21.362572292193722 54.669276698753315,22.175279947260055 54.673376339640896,22.191749586252623 54.03287844808547,23.26731429973042 54.03953399297498,23.30289874853224 54.97275206941886,23.915810045997564 54.987555923640684,23.92971355107038 54.8349589885318,24.449930682247572 54.839954288084485,24.45738595077309 52.96638927475033,24.832447564458192 52.94815570319661,24.81148812064966 52.97593568541816,25.698908352747452 52.97004472719746,25.78560915154412 51.60901492453013,26.24458838963073 51.571943393860785,26.251361614627598 52.48815851919535,26.83661346910121 52.49742822230801,26.842615842630398 52.458754700528885,27.859594232456942 52.458456147641485,27.86158709995834 51.17791911653076,27.72303577979073 51.136041612529155,27.715652920144564 51.49259386141676,28.682371393301942 51.53862197875169,28.69216439816991 50.697117893417094,29.961075718487333" stroke="#009edd" fill="none" stroke-width="2.142857142857143" vector-effect="non-scaling-stroke" stroke-linejoin="round"></polygon>
  <polygon points="1.7261356071965566,20.643260966118028 3.941419888085875,22.959000445616034 3.9930404107512008,22.988138296785834 6.645915845419586,23.396301154006863 6.684647621417025,23.401604712554033 6.001835319195016,23.837623415013145 5.948365224972441,23.848682925476528 6.186741502305449,24.194168002042346 6.214871009863055,24.22232480630518 7.741219013418959,24.707901966061396 7.771037893418179,24.71398599351123 8.808967934309113,24.14280553700118 8.822876129862925,24.146284104416914 8.398603347641256,24.878773313813504 8.39204974764034,24.88866379325809 8.725416816086,25.527099857585924 8.756284272084669,25.585495190463913 9.182727024083215,25.411678026186195 9.203851461418163,25.406806896967822 9.385153164530129,24.48426108938183 9.445708428528816,24.51526024137165 9.87797660275137,25.084521042804766 9.899719991196253,25.107892478110802 9.783917879195725,25.92099284913747 9.823902120972708,25.945742600717125 8.873739347640731,26.735387539628206 8.882368254305403,26.74698478784157 11.875127948528462,28.958063226555893 11.88435396097375,28.96455005844218 12.407855528976143,28.707436922077974 12.420482131639801,28.700915819996222 13.970364840973708,29.582824032400453 14.011834565418031,29.63859508307832 13.935150163639992,31.182084557832056 13.963053936085272,31.219518455960856 12.917325111195169,31.910743272074974 12.883785242752129,31.96692046093412 14.265393349416627,33.50373320399267 14.297804542306768,33.51729554710218 13.642087735193854,33.979967287586256 13.602955461417515,33.974696636376386 13.602999152084886,34.7690823724919 13.619266643641822,34.810415763430136 13.074050814308066,35.289611435016916 13.045695571641046,35.31706643416728 12.884054668528917,36.11505547221204 12.885809576973044,36.14856628627057 13.191600552974343,36.38380323960773 13.212157011639285,36.39778802660912 11.557933708529527,36.85521889395495 11.545707603638949,36.853862360596025 12.097768304082638,38.48725719989925 12.101474728975518,38.502468407771445 11.987500343194188,39.77085030309718 11.982803596528903,39.78922147607118 11.399584168974616,39.9707944844984 11.392732016086303,39.983425622019055 11.698763290750868,40.25951826295531 11.740007280085775,40.32617246647023 11.64219844097279,41.19108944372746 11.666577832973054,41.22317976060185 16.64659293697514,44.77842258642085 16.70071110941826,44.84802421504464 17.11001983830829,44.60114099540405 17.1685362045293,44.647976404992 17.294889612529733,45.5934826143628 17.322239969861766,45.62446357934277 18.362623969863126,45.858807160120705 18.392777811638734,45.861278751884306 18.422203475640345,46.91626414456295 18.441966220528776,46.92918387953141 21.838580592086146,46.12461536692608 21.85540149875051,46.12217775013887 21.943947916529215,47.18084745079577 21.994126647197483,47.24238501195686 22.84626940986382,47.09212788732875 22.894649541417678,47.121069376025474 23.496503038307495,46.049195450939074 23.52281210141846,46.01182930991235 23.97512700986299,46.678648407382205 23.975913441864034,46.67964140946606 25.17244060275152,46.66570551145887 25.235122145862626,46.68798036300759 25.38873124808488,47.68206391360618 25.49597727119581,47.750647020915125 25.8462089369732,47.31799154300279 25.879224517419427,47.32138766317402 26.456188897863104,47.96786442554767 26.55327684097174,47.95987715136325 26.896539845418374,47.43173221281213 26.90932664719476,47.432262493098456 27.506366888973936,48.901573006918255 27.491009619641773,49.03612479625335 28.339678974308846,49.214401658841595 28.341441164528444,49.21150298629109 28.426769036530825,49.76126455048979 28.372148421417297,49.860248462380326 29.043826885418458,50.18154755902542 29.072866615197928,50.24366027301039 32.15699805697259,50.08491510118219 32.220560695197854,50.12523051921489 31.615619724528006,51.81101704143985 31.58175217608405,51.85150010204125 31.732106323640984,52.87581001649851 31.743334824974955,52.908733454697725 33.96428432897556,52.56240186804098 34.01340720186308,52.54116543474993 35.14019677697397,53.188952240760045 35.24496699563934,53.21771493606539 35.85627224008677,54.47883061355861 35.91347060453154,54.527034987286974 37.26652686053021,55.04086179107726 37.281796748530546,55.059091541692396 38.18706008008339,54.16479316646183 38.198295863195746,54.16892876550592 38.320221950307676,55.53400132199059 38.314134384085264,55.553175756238126 37.115328026751015,57.025046629552165 37.10422331564077,57.08654102664041 38.61652476986237,58.84861359360839 38.665429189418866,58.88583578379658 41.085273171640075,59.33435114341883 41.23640646941968,59.361381581020034 42.033331511194774,60.74935745629373 42.13987120186103,60.81477175292858 45.12648507564045,60.223099574562006 45.20150195030911,60.159580522295805 44.75655620097423,58.943413712167605 44.7433179289732,58.91094316771087 45.82580516808557,59.1059661962634 45.882399144974265,59.09578851243751 46.100451980530124,57.09106860876673 46.107435205417644,56.98180867150987 47.87746790230922,55.41790555871739 47.87941213697377,55.41630577455108 47.83910021519587,54.883371340549274 47.84386249786367,54.87565331303813 48.78640853163852,54.91997830366345 48.82168146319637,54.90449727253181 48.54983813519539,55.241013912197744 48.54809779030802,55.25391398051761 48.77664366763966,56.48620900475253 48.773512503195164,56.49042169544446 49.283542782305815,57.01671217087897 49.30597793964153,57.04123121099729 51.58242187208562,57.891333074121576 51.61346409075377,57.899767548834284 51.94675105964016,57.355137293637746 51.976744702308864,57.33488801176609 53.45455237519818,57.77251708222357 53.60359580275144,57.850511834455034 55.592052705861356,61.034655750812455 55.62032784897201,61.05032202183684 58.257940677418446,60.15601226728504 58.28031029875165,60.15172360439938 59.09907339208476,61.60827988121491 59.11154707741989,61.63276709736565 60.36406382763999,61.23302434503458 60.396118213418596,61.21603060777016 61.69585729252904,62.14776098295006 61.703211888084844,62.15292575504755 62.208414348528095,61.61495310861101 62.227405224972244,61.616663614153005 63.10331571030729,62.98345671369353 63.109760083641234,62.98741689320632 65.7041482791963,63.64275338005427 65.76010145963993,63.67572456567614 66.79549016008569,65.25275495635324 66.83803030586459,65.31348221512344 68.09499622230543,65.91216070411211 68.13577417786182,65.91597258716247 67.77294503652847,67.0705811402022 67.77192558763964,67.08941165565811 68.76135898853136,67.454598430025 68.76907767297416,67.44894403821563 69.04717604808285,68.149167393451 69.0328455094179,68.18975453724161 69.70066463119474,68.39737257444686 69.71109213697382,68.39875501984098 70.12868752897376,67.76154557946029 70.1390276534181,67.74987772067435 73.43504426497566,68.94716493816996 73.47511588808447,68.94989583631433 73.92906191475231,69.98969592356771 73.92841383652886,69.99710052701012 75.09451772986395,70.19484131018726 75.09844260808495,70.18897626778526 75.61335167830585,71.4685303362454 75.61443666319428,71.47272027933978 77.69336965519652,73.55123347081572 77.6958090507531,73.55640995780014 77.62049362319414,72.98829221497472 77.62791375475246,72.97103170728114 78.7260568160844,72.08843858804794 78.73095745252976,72.07763356177493 78.49109569252943,71.00642622541527 78.49557398586367,70.99943864613488 79.20843090319723,71.22061030526129 79.22846307386244,71.21679087857375 79.78957502408485,70.61569227295877 79.8505089405302,70.58823424460898 80.93587248186414,70.82161186490448 80.96473744897412,70.80646784301244 80.60082332274942,71.80744481840993 80.59787420275279,71.85024009888475 82.52403549697374,71.36981300190564 82.53971316452845,71.37411535338506 83.61033838764016,70.43332524462058 83.61167823475154,70.42996591331648 84.97385127652852,71.45910576084171 84.99145133341845,71.47083312038049 87.19006034319646,71.18287649954618 87.21216782053125,71.18065223018822 87.43260907919503,71.5887343749102 87.44566530675111,71.5845782190987 88.05806281786245,67.24994619716782 88.05814291741882,67.21623208544807 88.54397584897416,67.00389248951869 88.57019753075329,66.9611267844466 89.18898844274992,67.42440413494806 89.20162960897324,67.4515745114728 89.83191844808353,66.95286365624234 89.83590886230705,66.94345379302577 90.78925377252926,67.84477108816974 90.8086888374197,67.86374506816973 91.14066508630822,67.48774901126636 91.14189570675262,67.48599537415176 92.0626692249749,68.0067222347676 92.07795367653199,68.03046147846798 92.73696912897468,67.79001819795704 92.84830022941642,67.78220594666382 93.3974700640847,66.73273382737135 93.3970404391952,66.68885295741093 95.50121935475218,68.32813746440551 95.50502772453075,68.32876687844 96.0894195183053,67.6277009318208 96.10248302763976,67.62029312462437 96.90205135475153,67.81713055772889 96.91689161786235,67.82221130010039 96.55448481964014,67.25185729431578 96.57067221164071,67.24701209965751 97.53558058497329,67.79196282856174 97.61736223119843,67.8397016072664 98.83555268097444,67.46940324135976 98.8443199414196,67.46380507139148 105.07636391652814,70.87634569587426 105.09416786319525,70.87740172090162 106.7492941067514,70.52635206241867 106.75571663475313,70.52250968165355 106.48304318408373,69.96077405337455 106.48287570319553,69.95606608880371 106.85753773341895,69.63402721379717 106.89061884986478,69.6369937434185 106.66829889253023,68.99178067552748 106.66449780453004,68.93934309891665 107.16986046408601,67.40702491568264 107.1636709529721,67.37616711039045 107.97214489430662,67.82321171120748 107.98073011030684,67.80447364362662 106.41613092808585,66.02199584611117 106.40740735830805,66.01761057861331 106.6694057227509,64.13105758986676 106.65710680008524,64.0712845651422 108.4199887911953,62.94135712820462 108.45115480008427,62.935529313997904 108.29574709875051,62.491820920609825 108.31564819741943,62.45311553871907 109.68812495475177,61.37526323260281 109.70801148986394,61.364459554135465 109.89436674674981,58.90600051245602 109.89751975652945,58.88188389358875 109.28941121252902,58.52887062725968 109.2835930720863,58.52491847915553 109.83727032719653,57.38779726771063 109.84024857430668,57.37201914596554 108.69833474675143,55.90457872923326 108.63233999475088,55.857276448152334 105.5878578329739,55.936503876513235 105.56019435919771,55.90232571250417 107.30131839830611,53.74642791427796 107.3285231200851,53.711852890189405 105.80315815652904,52.544299053769286 105.79626959475172,52.530152665889545 106.58326957341815,51.61172011996569 106.59749088541903,51.59679341469637 106.44341574941828,51.0309577927419 106.47137777608478,50.9878302527668 105.35382877697303,50.61954666119018 105.3359301671957,50.61801312792995 103.92007585964058,48.880322341663486 103.91561212986308,48.87637449134963 103.16995808542015,47.33377615008103 103.16161316808612,47.31989833498701 103.49425205875195,45.87816228945921 103.50905591297379,45.8492593567662 101.73788725875093,44.46927949334676 101.725180556528,44.44780837798207 102.11984563030893,40.69751185606328 102.12262726941736,40.68415939455626 104.10985355208287,39.522686528029226 104.13147315030693,39.52018946674543 103.45577514497455,39.104825269086355 103.44595202675156,39.10491566734745 102.745146451642,37.28980090179138 102.72755367653045,37.24261971079286 103.25893412808546,36.54755979456567 103.26312115030778,36.538108738752264 102.96397843741761,35.75742437583285 102.93619117341768,35.701693274118945 103.20917045875285,34.39549572833675 103.22539425963951,34.35216869713513 102.44914946675308,33.82433389561956 102.44309830941675,33.81037643977215 102.78379812808308,33.05345330823365 102.7871550276399,33.04736727288145 102.16906316630667,32.63446255080525 102.15914538497346,32.62172387666105 101.48476538141732,30.89221209966817 101.40058803030588,30.85174302591367 101.65989213697503,28.938727214135355 101.6627684391966,28.91495333432576 101.09355915208471,27.393537618863405 101.07943250319404,27.36453656878038 100.4480950880843,26.943194253622273 100.42302392719613,26.94557250682737 100.01049665252977,25.40085958213494 99.97062163741975,25.356180879798554 102.19484065963952,25.147271363770773 102.25739841252981,25.15691212351848 102.63470372808698,25.82985389276327 102.63683728897486,25.905542603953286 104.05344161963913,24.487150272188952 104.06981105608466,24.491897592766687 103.96121790408688,23.468012081021513 103.9633077743074,23.40495909734636 104.5815452711966,23.39772903566372 104.60465763386347,23.38238495445002 105.92878338675256,21.98030419926981 105.93480541697245,21.945651944623748 107.06429653164123,21.78748659572047 107.08609089252896,21.75658526781662 106.89168198941807,21.18610345536908 106.89171839830706,20.983927031107665 107.65885368719647,20.301519066548277 107.74351163564025,20.254734812929016 106.88161129075053,19.346024567126364 106.84995740275082,19.31347628618714 107.39205663119684,18.693774317646234 107.37997616186222,18.633149975068587 106.2545919698623,17.458174668492934 106.25663086763998,17.444629001339848 108.1506795218611,15.612522041777623 108.15092710230857,15.605746914264813 107.52188344719653,15.171769364140705 107.50718153786329,15.157956962696694 106.72565745608482,12.947600276575026 106.72133936186329,12.94088995358506 108.25276276453116,12.298204739790885 108.25545702230775,12.294003190765574 108.1673256658618,10.857893861190309 108.16183520541709,10.827498317162458 108.66261034497475,10.96435643519398 108.72999591652952,10.884132030462565 109.89695905964072,6.574092524042129 109.89864115030687,6.562702278235879 110.96700902230697,5.616694256231489 110.98293427030622,5.605540763079256 111.2729165067507,4.159667702862129 111.28641692275306,4.137343336902626 110.91914589697444,2.54655006466964 110.89885158230791,2.4851651960376273 109.95227144364218,1.7465470720158862 109.92002044986185,1.726135607196551 108.97604718764087,2.2957846358945915 108.94134951653142,2.3211540734384415 109.00661609075215,2.7258886497820587 108.99224186141691,2.831316269748271 108.08469205164184,3.8377353256208098 108.04304756452802,3.884945383014923 107.32468562319592,3.57342648742669 107.26987568186196,3.6178636634464 106.46203525519414,4.8268884798093445 106.42829877875229,4.857795192215775 106.01806526408654,6.891634325658737 105.9766392303096,6.99427587205318 105.05722740453093,8.100715022509752 105.04047931564165,8.129216626250486 105.1579343911948,8.760066126815577 105.16626474497207,8.78076934021846 103.13894499386261,10.0980792304781 103.12754172986206,10.105622351565756 102.3961454063061,9.997859239702297 102.37718365697256,10.01610391425092 100.815038433862,13.32908725566121 100.83608277164058,13.36405555638666 99.39382473786428,14.364712165102896 99.35574104008447,14.375722836450217 94.28123030586175,12.678431484915558 94.26245060097318,12.672231793629539 92.83921985253001,11.11846393401392 92.83217837341836,11.108037282007349 92.76824436453063,10.348144020191462 92.76544816186252,10.339885579330797 91.48049837341715,9.370425560720099 91.47446177964048,9.363529034243033 89.58801530141973,9.567614796806078 89.58343506319689,9.569909766540873 86.28507371919586,8.133262296324023 86.23421050141806,8.13362595191465 86.03964868097283,7.208191446084306 86.03413637519589,7.18931220104459 83.90700529608476,6.337722978536107 83.81483255297536,6.3508416271088155 82.97771937964026,6.7567424257827895 82.97269495297405,6.759061317103982 82.52753803208653,9.749028029144752 82.51172201075133,9.770681784271796 81.02895544719541,10.738718729636815 81.02690198586389,10.740956411054135 79.84231694053051,10.467225480337579 79.79568443563949,10.476631021091084 78.97558877697338,10.98840194504773 78.90886584719593,10.99140052738257 79.43940889430706,11.566393556875477 79.45463509164001,11.595251774986167 78.65915184186197,11.448744478037765 78.62533526586377,11.420101272238021 77.82053134053022,12.29871573877644 77.80870573341855,12.316577961978687 76.80944921430674,11.898520692068628 76.80180334764191,11.901427921576028 75.43968856008324,13.835549345928662 75.42519782230848,13.850364108030403 73.7881886418636,13.877791177934336 73.76340875208443,13.885998837939765 72.95907814230777,14.801183077581294 72.93078115386488,14.826017495133051 72.8642621138617,15.531356140060593 72.87507555386291,15.576115562270928 74.13801252808662,16.485364798228325 74.15181149697347,16.500410626878505 72.42608841786169,17.75226842711599 72.39293448364079,17.76572257540283 71.192475162751,17.58425893398125 71.16787003564131,17.59693072890113 71.3252001263074,18.178122592661015 71.33447711119553,18.196884320189195 70.8585255520844,18.38640363349877 70.851964670308,18.40745588629397 71.7232585085283,19.09224488536019 71.75774500808511,19.103824400979278 72.34696462052999,20.69319385186718 72.34841369430833,20.730405118712582 68.65293331741887,19.476476577147327 68.64420974764107,19.46915057130718 68.71724597875037,20.046615981501596 68.70273339564046,20.084863544609465 66.20451563919669,20.46323119585031 66.16209928364151,20.467006915975432 65.99702138141912,19.784307336673734 66.00320361075174,19.759676980653964 66.43135758052995,19.398577722035768 66.42334762497522,19.3268018254359 65.81413225075121,19.039949625933144 65.76695361253114,18.99096560354846 65.70047098141985,19.9033071274247 65.70199287297328,19.906005968053428 64.91846630230611,20.464331030512763 64.90285417075393,20.519912076260148 64.38939417430848,20.04399658623333 64.3765345547512,20.040504057244465 62.50169523030818,20.938452456724548 62.473194352085194,20.948463471430657 60.90817282675016,18.619266962288016 60.8753392907518,18.564233625228002 59.589268108529,18.527688096768173 59.585037395639304,18.53199825876108 58.8696682649741,17.65917751496199 58.822890124530026,17.644747486905903 58.27181974586165,18.15249809728593 58.25480951297396,18.182308255737365 56.710402700530906,16.08581814645913 56.261794216973435,15.706589900089961 53.69521513075051,15.496855725541895 53.59154446053035,15.488695891559832 52.76462577608655,12.549292499400686 52.742219745864354,12.50764216632269 48.9780285138626,12.52779742459424 48.82524225252746,12.525458282958784 48.802595923642,9.998018284452332 48.81889254230664,8.730454258608 47.793086661417696,8.719784401626743 47.55592644097524,8.718216305865274 47.5577687307512,7.576272469977624 47.55832942763991,7.4425454995583955 45.70162172986202,7.423860286012126 45.533332563638766,7.423257902752443 44.482979809861355,6.7242323746515416 44.438218721862725,6.700793189135215 43.9123360125308,7.065123551468782 43.843821765420216,7.121864681471556 42.095161086308146,5.93080178353302 42.08446415475228,5.928675809120245 42.04178565519578,6.729893229711519 42.0358582880861,6.732553147517677 40.013817825862866,6.8450414711191065 39.95436939208485,6.864206084690881 39.9195624943055,8.554825065521067 39.918390128085235,8.604800875606083 37.551273498750014,8.550234267740228 37.39089234319581,8.547279791870455 37.36684063119647,9.41976898661996 37.3662944978616,9.446036821564844 36.076487763641126,10.35611845874409 36.07388816897474,10.356402448505463 33.94851199830773,9.422677542067317 33.90084548097402,9.38967216327473 34.22695989875247,7.228923304866834 34.25100432897634,7.15320162608877 33.71309212275264,6.888849450483753 33.58438670053038,6.825001533028621 33.86752406586202,6.25156427323272 33.87593451919565,6.2297941769796985 32.75558203564033,6.181137980705893 32.737108165417524,6.175271923870963 31.833941985863568,5.367639600638717 31.82915785786354,5.363842011461742 31.16755009252993,6.2837588457627085 31.144437729863057,6.331697938683277 30.514462007196926,6.181854184886101 30.370246398308154,6.1749649788620395 30.260713896974995,6.684810834921149 30.260276990307105,6.7094095455151495 29.25171435919656,7.009154757020946 29.221079920085685,7.01902094704455 29.158434785860663,7.742773064652642 29.157728453418898,7.754638168274318 29.460621281863496,7.790960680760685 29.478825726306606,7.794733843980424 29.22892967653061,8.945642280798706 29.228441797419876,9.00403405465949 28.713357964529497,9.241094349736882 28.566025754752992,9.235208871336722 28.2396928836406,10.101350946932866 28.241979361862832,10.121617368881193 26.67583644275037,9.504491387952653 26.67621509519704,9.50291215719953 25.742094078306764,10.285961173563914 25.708889171640113,10.28050849689643 25.5328958845279,11.035708931960466 25.52997589163897,11.040524794215521 23.941354124529244,10.595721025723101 23.880310981416915,10.587144905965028 22.560576140530248,9.384491266341133 22.52563088897332,9.36375626754488 22.37769429164073,10.216348257294516 22.36804593608431,10.233547092696604 18.962700712973675,9.512728375439833 18.954195596529825,9.417996584879068 18.872246469416496,9.998597661717572 18.872901829418335,10.041130600458196 19.233218757417127,10.110984322843791 19.212589480974202,10.1816777843127 18.034303173418813,10.145757486998987 18.007083888085983,10.17252165263671 17.590835624972897,9.79176741465671 17.58410726230832,9.792653554659404 17.5920662454173,8.651140017855864 17.592372080083077,8.561165814493501 16.848290899642233,8.26966552777921 16.81303253164115,8.235675840116523 16.56610744719692,8.61748224953662 16.474641036529285,8.719738949583911 16.868519678306257,9.091126281996907 16.889294590308054,9.117600224542906 16.237153136085908,9.02431593089022 16.189450209863207,9.009306213517624 15.422649882750193,10.017308106056948 15.421594024975276,10.01884174618062 14.795288318307213,9.328841759328856 14.594223870306815,9.301380369613247 13.296662042751633,9.98656705055509 13.276331319196107,9.981648011124703 13.337075909418127,12.063265031051191 13.335066138751063,12.06985152109882 12.838550839196614,11.625836094750042 12.822858608085154,11.60588191825845 12.310323397418324,12.392364008426734 12.309471429417682,12.395452659175858 11.17287329964056,12.336359198544592 10.918287784974746,12.322880258135042 11.216185313863754,12.723055427933645 11.409975265864706,12.778352274185814 10.656995752973671,12.833739393430363 10.606787895197705,12.835828605418278 9.55052961963993,13.99055176322035 9.516632944085359,14.009679849630988 8.251089093419797,14.484046221927924 8.230569043640935,14.492355125620447 7.269374376973793,12.88969366345445 7.270466643640612,12.885776429121684 6.838344104974022,12.695781499149229 6.807564030307185,12.692976886725587 7.144797722752628,13.763075629252484 7.145868144084307,13.76551641080186 6.397337797416913,13.993242186562924 6.337000986752173,14.042929639130666 5.506987546752862,13.140061531868191 5.448223600084384,13.08573344445503 4.536326568974255,14.178106273613588 4.3699670738646095,14.470402338866911 6.459320289861717,15.269170200112052 6.473111976973087,15.314124716860892 4.7659428676404785,15.52349142666389 4.743777136084463,15.543805742492617 5.3931151058630356,16.807524794341948 5.415302682751281,16.85737942840387 5.35827908097308,18.07075753270946 5.350320097864096,18.151953617987232 2.682735472084096,18.895945096617282 2.6383166276402337,18.98196038914793 4.672422995641319,19.56480747191126 4.6921347680839975,19.57298387587252 4.620489356528924,19.97992873364892 4.623074387638553,20.0247989884785 2.884899468529693,19.941113453617795 2.8374514045299293,19.94764505385428 1.7261356071965566,20.643260966118028" stroke="#009edd" fill="none" stroke-width="2.5" vector-effect="non-scaling-stroke" stroke-linejoin="round"></polygon>
</svg>