<svg viewBox="0 0 297.7164959820941 414.8161934240627" width="1000" xmlns="http://www.w3.org/2000/svg"><polygon points="8.052550000000338,43.073460938968886 26.085435759952816,105.08808066548193 26.14864159105491,106.64912602012157 51.432430391061644,122.49224294824637 52.40498463097174,123.40768849824201 62.68976756439224,145.44833650298062 62.88229776881781,146.31929965885467 62.385389253242465,170.40505653442926 62.78734338653885,172.32883130989615 74.73877961768449,183.7488565431919 75.73842207107373,185.42435912005715 65.80199938661099,262.4360276006988 65.2512057154454,262.89594678357355 82.28677919109032,286.80588115726243 84.39296059541084,289.22741810404807 95.66049225777533,333.1697941073577 95.59349990214832,333.6951808134687 120.10920678216644,350.01004807788524 120.71388560880587,350.7209166622848 107.08560159101762,381.1105309517367 106.95161687988002,381.2412833379127 139.93923529770836,406.3872651639173 139.98001325326186,406.7636434240627 144.10586854219582,388.8573614592093 144.32024407989957,388.2045264055847 167.42532496885542,382.7646107243851 167.88116425774206,382.280060755416 158.92952919993695,372.2114931540342 159.05215433773265,371.5635852252377 175.15566025765293,363.28087196136005 176.23977133326844,362.9808857844688 172.6029602399576,353.1756805573601 172.82665645328962,351.99241993585713 180.42038559108187,344.92394426532667 180.58233232887142,343.87548623231817 158.6079658932067,328.7467209531238 158.33446231994458,328.919138315228 155.18232635557797,289.42973969315756 154.1407408622108,286.22199252327084 159.89771437328454,272.6336929170426 160.13976066662144,271.71842124112993 244.32497609777056,256.0101851761352 245.38345531546656,255.35695226546488 248.94890498658788,239.03952780520888 248.8338528977256,238.8086377170181 226.14237698654324,220.57931976763177 226.19480578657385,220.1328942390752 250.54594448881835,222.94499759781286 251.27674370664317,223.31037368390355 261.4502610754935,198.17405897533865 261.99726822213415,197.28156803569402 252.04424308447778,195.8524881746631 247.3559432799011,194.97493068877486 252.49542203543388,179.63249957338087 256.03786128873617,170.43358721657535 283.8921176444055,157.55862423076871 288.7301308000242,158.69810430534528 288.8460567021757,141.37790768137313 289.66394598209445,140.8833093917707 273.7372416266953,138.74456650330796 269.57002583993744,138.8555352550244 269.18613051551074,127.54956725837076 269.50652873770014,125.72006599486451 260.3338189065471,121.39515271536186 259.2278624976534,119.62539229603829 215.9041974310312,125.6412507897254 215.8884687911268,125.82515289079276 181.036132719928,106.87154915775284 180.12066761774622,105.99408629580978 163.55637079998996,84.09396920537222 163.14626107548975,83.69211578541547 164.34280279998347,65.66276811247337 164.31163679107704,65.40949304050412 175.81626313771267,36.75488674615156 175.87043956443813,36.5178913342312 189.14133392877557,26.20675527744573 189.87708475554973,26.351768924599703 171.36534928877518,8.3122366345848 170.9226171999253,8.06569296096098 150.23770797331963,18.816369461688403 148.47173122663662,20.135128502187975 116.78667721767124,63.89119569361322 114.70117606220447,65.04792990515818 111.48263028436486,41.94379815433752 111.21524340436008,41.254125495942965 99.74906484442909,35.1747614135162 99.52362100440223,35.10271068776604 35.90301983102836,29.8714924375305 33.44498292447679,29.826176415291805 8.052550000000338,43.073460938968886" stroke="#009edd" stroke-width="6.310079221997724px" fill="none" stroke-linejoin="round" vector-effect="non-scaling-stroke"></polygon></svg>