<svg viewBox="0 0 86.50794899552353 115.78287335601568" width="86.50794899552353" height="115.78287335601568" xmlns="http://www.w3.org/2000/svg">
  <title>Štíty, okres Šumperk, Olomoucký kraj, Střední Morava, Česko</title>
  <desc>Geojson of Štíty, okres Šumperk, Olomoucký kraj, Střední Morava, Česko</desc>
  <metadata>
    <collboard>
      <support-module name="@collboard/map-svg-geojson-import" version="0.11.0"></support-module>
    </collboard>
  </metadata>
  <polygon points="8.05255000000011,16.807777734742224 12.56077143998823,32.311432666370486 12.576572897763754,32.7016940050304 18.897520097765437,36.6624732370616 19.14065865774296,36.89133462456051 21.711854391098086,42.40149662574516 21.759986942204478,42.61923741471367 21.635759813310642,48.64067663360732 21.73624834663474,49.12162032747404 24.724107404421147,51.97662663579798 24.974018017768458,52.39550228001429 22.489912346652773,71.6484194001747 22.352213928861374,71.76339919589338 26.611107297772605,77.7408827893156 27.137652648852736,78.34626702601201 29.95453556444386,89.33186102683942 29.937787475537107,89.46320770336717 36.066714195541635,93.54192451947131 36.21788390220149,93.7196416655712 32.81081289775443,101.31704523793417 32.77731671997003,101.34973333447817 41.02422132442712,107.63622879097932 41.03441581331549,107.73032335601567 42.06587963554898,103.25375286480232 42.11947351997492,103.09054410139618 47.89574374221388,101.73056518109627 48.00970356443554,101.609427688854 45.771794799984264,99.09228578850855 45.80245108443319,98.93030880630943 49.82832756441326,96.85963049034001 50.099355333317135,96.7846339461172 49.19015255998943,94.33333263934003 49.24607661332243,94.03751748396428 51.14450889777049,92.27039856633166 51.18499558221788,92.00828405807954 45.6914039733017,88.22609273828095 45.62302807998617,88.269197078807 44.83499408889452,78.39684742328939 44.57459771555273,77.59491063081771 46.01384109332116,74.19783572926065 46.074352666655386,73.96901781028248 67.12065652444267,70.0419587940338 67.38527632886667,69.87865056636622 68.276638746647,65.79929445130222 68.24787572443142,65.74157192925452 62.575006746635836,61.18424244190795 62.58811394664349,61.072636059768804 68.67589862220461,61.77566189945322 68.85859842666082,61.86700592097589 71.4019777688734,55.58292724383467 71.53872955553356,55.35980450892351 69.05047327111947,55.00253454366578 67.8783983199753,54.78314517219372 69.1632680088585,50.94753739334522 70.04887782218407,48.64780930414384 77.0124419111014,45.42906855769218 78.22194520000608,45.713938576336325 78.25092667554395,41.38388942034329 78.45539899552364,41.26023984794268 74.47372290667386,40.725554125826996 73.43191895998439,40.7532963137561 73.33594512887771,37.926804314592694 73.41604468442506,37.46942899871613 71.1228672266368,36.38820067884047 70.84637812441338,35.945760574009576 60.01546185775783,37.449725197431356 60.011529697781725,37.495700722698196 51.298445679982024,32.757299789438214 51.06957940443658,32.53793407395245 46.92850519999752,27.06290480134306 46.82597776887246,26.96244144635387 47.125113199995894,22.455104528118348 47.117321697769285,22.391785760126034 49.99347828442819,15.228134186537893 50.00702239110956,15.168885333557803 53.32474598219392,12.591101319361435 53.50868368888746,12.627354731149929 48.88074982219382,8.117471658646203 48.77006679998135,8.055835740240248 43.59883949332993,10.743504865422103 43.15734530665918,11.073194625546996 35.236081804417836,22.012211423403308 34.71470651555114,22.30139497628955 33.91007007109124,16.525362038584383 33.843223351090046,16.352943873985744 30.976678711107297,14.833102853379053 30.920317751100583,14.815090171941513 15.015167457757116,13.507285609382627 14.400658231119223,13.495956603822954 8.05255000000011,16.807777734742224" stroke="#009edd" stroke-width="5.964792749648465px" fill="none" stroke-linejoin="round" vector-effect="non-scaling-stroke"></polygon>
</svg>