<svg viewBox="0 0 91.39358497776199 146.21132799424163" width="91.39358497776199" height="146.21132799424163" xmlns="http://www.w3.org/2000/svg">
  <title>Kašperské Hory, okres Klatovy, Plzeňský kraj, Jihozápad, 341 92, Česko</title>
  <desc>Geojson of Kašperské Hory, okres Klatovy, Plzeňský kraj, Jihozápad, 341 92, Česko</desc>
  <metadata>
    <collboard>
      <support-module name="@collboard/map-svg-geojson-import" version="0.11.1"></support-module>
    </collboard>
  </metadata>
  <polygon points="8.052549999999997,22.410046923737923 13.648086497770805,29.995151788978205 13.784547013295764,30.21751338114666 14.299951244443605,36.913662468221105 14.329879351112709,37.56941627203889 20.923456311087307,38.611035658111746 21.35045975997457,38.77135155945837 22.334446391097686,39.753944257586795 22.473746799987225,40.01467461813411 19.347825235548612,40.77325713755965 18.89744727998152,40.752439118419375 20.026122835529918,43.30208704666404 20.131417342206646,43.43923457078165 33.175120239967896,50.51099826631946 33.42590466663353,50.60393922690821 30.807377377735634,53.19542633479398 30.667348791095378,53.36516042987171 32.190769519983974,53.69160492954654 32.521216595552346,53.86423129465368 32.00384628444556,56.50787371209992 32.06909101331951,56.6681376089615 34.65521439107363,58.45905498603645 34.82400599995856,58.64858254952526 40.21645371552552,71.7731459400162 40.35954064888176,72.07778523716081 35.05440144884744,78.31551144565276 35.01420603553527,78.39694679261413 38.004686533305744,83.53525192887867 38.341031848867374,83.70845239035373 35.84316361774802,89.38227459195298 35.83413421331318,89.61919025582722 45.01485399998603,106.05765297300934 45.127940008860264,106.3905687627772 50.0650581599981,107.04327358619014 50.077145911090724,107.03493413540821 58.11215078220232,120.92793514645712 58.322084435530655,121.0990173692768 68.89005570664415,125.28486404014222 69.14003913777526,125.53807668766933 73.34257154665067,136.13372947574646 74.35255412440858,136.971007469219 81.86043110219873,137.8658384601655 82.08026797330933,138.0395353440905 83.18738946662745,134.94836040084886 83.34103497776198,134.8560059009393 82.45557079997491,128.47105709779828 82.40015647109942,127.90185744559096 74.36726331554348,117.63969629647147 73.90428788442625,117.45993196355232 77.08904621331715,108.10982336138079 77.14285855109449,107.85975531434053 68.39154519997066,101.81241144867784 68.30387259554811,101.73835006439879 63.41037229332835,90.95368493717217 63.19839974219906,90.6396956340974 76.8077511377702,85.67791587424983 76.83942687110505,85.63319909848326 71.03330135998078,66.23382481198462 70.54782523553115,66.14235675450584 78.50797343109264,49.59360136563885 78.51656592888287,49.135565050433456 70.29835152885755,45.01317837501813 70.26820496886614,44.94327079786274 72.28401951108356,38.465748970039954 72.31278253332823,38.36109778518551 66.24677037331969,27.063168548418275 65.9791650399635,26.733671189423717 67.77470580442571,23.24415217263561 67.78752173332725,23.05294384634874 54.087366568862876,9.767408723848007 54.13630011553289,9.068550360745235 38.18447362664267,8.062575311567002 38.046848026635075,8.052549999999997 27.006653466647208,11.552052732549441 26.968933857751495,11.578562425325458 30.15864379553352,15.99080065704004 30.247117395519695,16.286058501303728 25.625664311089736,19.94663440365514 25.377865413298082,20.280515657875753 16.003595973313736,18.8362809352908 15.912209662208284,18.77235418731982 8.052549999999997,22.410046923737923" stroke="#009edd" stroke-width="4.858751926919496px" fill="none" stroke-linejoin="round" vector-effect="non-scaling-stroke"></polygon>
</svg>