<svg viewBox="0 0 410.569779253404 276.1783807641616" width="1000" xmlns="http://www.w3.org/2000/svg">
  <title>Studénka, okres Nový Jičín, Moravskoslezský kraj, Moravskoslezsko, Česko</title>
  <desc>Geojson of Studénka, okres Nový Jičín, Moravskoslezský kraj, Moravskoslezsko, Česko</desc>
  <metadata>
    <collboard>
      <support-module name="@collboard/map-svg-geojson" version="0.11.0"></support-module>
    </collboard>
  </metadata>
  <polygon points="8.052550000000338,131.9838165371691 13.222903493420745,158.54750276366372 15.052377342224645,164.77275241280563 50.54172333339375,178.51217622738454 51.46039241783001,178.86302581031464 58.956545733359235,217.0743392136426 59.808805004555325,217.99251034370513 91.25239526233781,227.257762719855 93.90121474673651,229.4641462102079 126.253570871173,212.4582081320475 127.66011906669155,211.7458085334872 135.62813158226345,197.2581957064465 136.2179555822877,196.29760483248515 154.13112891568016,199.59998419762246 154.98775725343876,199.6265543463303 161.92991291566432,206.02851511844324 162.1757457334097,206.04427660836495 162.46818192894716,226.77775879388332 161.9960314578857,227.45228558700887 188.35461065787968,251.66227832643904 189.08540987558808,252.64603828834493 200.4441093955902,237.09761118688743 200.7831489689197,237.07464770283673 232.87947778680973,267.49689971059684 233.31696699557506,268.1258307641617 265.7383543733522,245.01536688049214 266.83178612447955,243.63355116433354 297.5952583378894,239.85951539732173 298.1550814134316,239.78972528977442 284.2830034756116,217.80743545291602 283.54230104000453,215.69279736511066 263.21827672012296,234.06550992184907 260.05565499558725,235.86343307173934 262.0013460177943,209.63471443483263 261.5929839199889,209.4622414700932 276.97151604455576,184.66074496703345 277.15792955560755,184.228387152172 262.5978692534627,171.90447907293105 263.4090592978537,170.6771396180627 286.91434669341106,166.36675898466615 288.5501252534814,165.56097412444774 288.6820710666725,155.81069706424728 289.46122128898423,155.64854160356458 302.0782120089061,163.7579690792843 304.0544864978656,163.0116296425474 308.81094374226086,149.45996879993595 309.537665164542,148.65997747283086 335.6410908711623,140.73693244290894 336.11964930673275,140.62341581201304 335.57147707566764,129.75843042424071 335.69468475561735,129.31335048515007 346.94823540453945,131.52883052916854 347.3446553867325,131.49864825557574 349.4578272978324,120.54626235840965 350.15891686231043,120.07638588906389 361.1503235111959,127.20010938947212 362.28424194674153,126.64960921018042 381.6875582844732,101.74636141953647 382.44544571566075,101.01918380996335 389.66547401782736,103.18133616544196 390.02344621331576,102.92047332463676 385.2163077955847,94.89259394337546 385.4312658755589,94.13024997452862 402.3756714934498,76.82766153632087 402.51722925340437,76.7298825452815 356.3970702490551,61.503312793654686 355.79559540455375,60.84089171802748 348.3148794577937,67.45509869509965 347.1771744978396,69.1525536802144 330.35685037342046,50.538859201747755 330.2281085423674,50.20763231014257 335.2496224979186,37.26415439704556 334.6274674045635,36.0428194473277 305.56647483559937,32.038956231997645 305.0867513156045,32.056533009199256 270.81812255117256,9.011714207335672 270.6302526844447,8.05255000000011 262.36077456895873,26.940729845176747 263.3202216089485,28.170678824979177 197.49557193785586,80.11742598910473 192.90630431121826,83.89917461595155 154.89163778673537,67.84442853133783 152.84312806229718,67.30639614424558 86.40797414221015,60.11087433135958 85.45959540442709,59.91845576247556 76.64602285341971,81.27137766438659 76.39174317345169,81.5773247838149 8.052550000000338,131.9838165371691" stroke="#009edd" stroke-width="5.699568115301299px" fill="none" stroke-linejoin="round" vector-effect="non-scaling-stroke"></polygon>
</svg>