<svg width="341.9153732266277" height="342.2315105597954" xmlns="http://www.w3.org/2000/svg"><polygon points="5,44.93602495419327 16.980563342222013,88.43226305500139 17.219988195458427,89.23589644616004 12.169929671101272,120.420931195491 11.563503217766993,125.03733202372678 16.677932657767087,143.80715043155942 18.00379875546787,148.59388833853882 12.391004444449209,184.42439725383883 12.989566577714868,186.1568362659309 73.26841429329943,238.37671004259028 73.36365994659718,238.4972178733442 94.80121372442227,283.26243979274295 95.03219171555247,283.67857386922697 111.80183466663584,301.02613254491007 112.27398513781372,301.5533710117452 109.36942961777095,330.9909301205771 109.47661738668103,331.09360776352696 125.8664428088814,335.18156155513134 127.15386111999396,335.98785339394817 135.56810097780544,328.8818052098504 135.8311187910149,328.48620314209256 160.83732622221578,327.1424843126442 161.24685340444557,327.15092980873305 196.12831658660434,337.0279388510389 196.12016099551693,337.2315105597954 214.256447999971,330.91447747242637 214.92112867545802,330.84869261435233 220.19983502221294,298.16497504350264 220.49023231992032,297.4892456746893 265.5108428800013,252.01324350771029 265.61803064879496,251.82560070196632 292.18195598211605,283.9244304926833 292.40477838215884,284.10048678546445 336.63400533329695,271.32359271188034 336.9153732266277,271.4516409704229 281.2991934578167,227.17275197186973 280.8882099199109,226.45989508228377 278.0020044799894,185.22590217815014 277.8345235910965,183.32710471801693 295.7031324444106,154.6100834858371 296.3654829511652,153.54155798780266 288.826512782136,142.50056648842292 288.3470805332763,141.87952489953022 273.13020387559664,137.3693581430707 273.1063196444884,137.38403924566228 271.295778417727,125.3140638563782 271.5675343644107,123.89703304762952 285.96419157332275,114.82381614437327 287.2804457243765,114.94839576591039 250.35921095113736,71.9233127119951 249.87249692436308,71.57887174678035 224.10840206220746,57.19686916342471 222.9372009243816,56.92895280732773 203.96700472885277,67.07572394341696 203.7701054577483,67.29957069724333 220.2359526399523,81.0334476364078 221.51434154668823,82.10632906889077 221.38210446224548,96.40038576250663 221.25918805331457,96.68916751968209 229.08739043551032,101.58282620331738 229.5449773510918,101.68650046840776 231.2885262222262,124.44738486892311 230.9046308977995,124.62935214594472 237.92397340445314,129.70035055390326 238.0937844621949,129.93525623786263 235.50001521769445,139.18268936953973 235.6730302578071,140.19967872521374 243.49657230218872,151.09442827891326 244.0281420799438,152.04063125699759 222.35465870215558,156.80361400614493 222.02668743103277,156.7537916119909 204.15137934219092,169.3487129934947 202.53249450668227,170.09911881003063 176.84791665768716,147.24596055864822 176.10867057775613,146.75705666694557 178.2011622400023,134.25605257309508 178.49243335111532,132.88935183768626 185.8193581510568,124.66894891735865 185.99674225773197,124.01760336989537 180.7264827733161,114.35530715272762 180.1940391821554,113.17535417585168 184.50339527102187,106.0590183842578 185.5880888887914,104.66099673608551 162.6149538132595,109.94557883508969 158.01316152885556,110.73356116900686 138.59819434664678,106.88038534484804 137.97603925329167,107.00763910752721 109.52234695106745,126.52909935737262 107.10334037337452,129.1282118005911 87.91993372444995,92.96345338143874 87.7282773333136,92.52515611186391 78.60187960893381,58.716687520209234 78.47954574215692,58.254290012060665 73.9191139555769,32.924196621985175 73.94969742221292,32.070062546175905 82.1888833421981,18.1141384387156 81.92557425773703,17.890241795801558 74.14834432001226,20.39048226759769 73.193266346585,21.50327379605733 42.504068266716786,5.026708924910054 39.72854584886227,5.345880327979103 14.993511822191067,27.710767110751476 13.280546417692676,29.465801143203862 5,44.93602495419327" stroke="red" stroke-width="3.337614935613554" fill="none" stroke-linejoin="round" vector-effect="non-scaling-stroke"></polygon><polygon points="27.71186488890089,197.8014093034435 73.03219342220109,238.2361916033551 73.26841429329943,238.37671004259028 94.80121372442227,283.26243979274295 95.03219171555247,283.67857386922697 110.8388923733728,300.8865430605365 111.38094791106414,301.1332696371246 139.82124174223281,277.0803556514438 141.07720277330372,275.6554062918294 173.96404138661455,228.64959912985796 174.32084849779494,228.31785413628677 188.49613966222387,231.47919468808686 189.88433777773753,230.37190795736387 189.9507475910941,221.97546996810706 190.05123612436,219.7594615065609 186.86560398212168,222.00704448157921 185.32798378670122,219.9991632735473 205.912987022195,205.44448056828696 208.22713599994313,203.48670537915314 215.85756529774517,168.8954435143387 216.82429411553312,163.79643138044048 204.15137934219092,169.3487129934947 202.53249450668227,170.09911881003063 176.84791665768716,147.24596055864822 176.10867057775613,146.75705666694557 178.2011622400023,134.25605257309508 178.49243335111532,132.88935183768626 185.8193581510568,124.66894891735865 185.99674225773197,124.01760336989537 180.7264827733161,114.35530715272762 180.1940391821554,113.17535417585168 184.50339527102187,106.0590183842578 185.5880888887914,104.66099673608551 162.6149538132595,109.94557883508969 158.01316152885556,110.73356116900686 139.26782663108315,107.07927493471652 138.59819434664678,106.88038534484804 111.81028152885847,124.53325208672322 109.52234695106745,126.52909935737262 109.23690126219299,132.91604529251345 110.86714567115996,135.64187492104247 103.56905671104323,143.98732227878645 103.00107804441359,145.87622617703164 80.07658524438739,162.75997815397568 79.44947854219936,163.18523594614817 35.6318176711211,174.25410569366068 35.196367359953,174.30036567919888 27.71186488890089,197.8014093034435" stroke="red" stroke-width="3.322638938953597" fill="none" stroke-linejoin="round" vector-effect="non-scaling-stroke"></polygon></svg>