<svg width="193.63769742229488" height="249.8274318256299" xmlns="http://www.w3.org/2000/svg"><polygon points="5,29.94752152019646 5.57671679998748,30.185396127519198 5.628271786728874,30.686401440936606 6.640438897884451,31.314148895442486 7.529398328857496,32.16047999163857 9.058280391152948,34.35275140590966 10.26414279115852,35.896144884754904 11.917980160098523,37.859696479164995 12.695091484463774,38.87085429497529 13.744832568918355,39.83746530849021 17.260474879993126,43.281871548620984 19.15111566230189,44.7645886298269 19.725502293440513,45.43637688155286 20.605432320036925,46.751477837678976 21.15010929782875,49.072170666535385 20.950879857875407,50.818413582223 20.65698730677832,53.02702559554018 20.2093036089791,54.43942342849914 19.46918371564243,56.10940205224324 18.552262257784605,57.36245149152819 16.60278471116908,58.99108348030131 15.17730389337521,60.528790988668334 14.798942720051855,61.70651417574845 14.378929777769372,64.4214515723288 14.668161991168745,67.1983385210624 14.657384959980845,67.70522672799416 14.91574243560899,68.90816318045836 14.394075875519775,71.27544908295386 12.490036622271873,74.71981289354153 11.633990826667286,77.12560092826607 11.625252693425864,81.37423058028799 11.674186240066774,81.75758563785348 12.301584213390015,83.19366895244457 13.113356800051406,84.65820699592587 15.22740252444055,86.55933701712638 16.744051200104877,87.52022539207246 18.22341717337258,88.64408749697031 19.96114062226843,89.59808023227379 21.544781653326936,90.49330538499635 22.16082005330827,91.44407634146046 22.176257422193885,94.53692228690488 22.361214577802457,97.70225756027503 23.865629866719246,99.99853120557964 25.259944675606675,102.19699982297607 25.903945102356374,103.10089491761755 26.636200675624423,104.38718298764434 29.354925226652995,106.27941724809352 29.731247502262704,106.41116608062293 30.74749240896199,107.02262650849298 31.16022357332986,107.25536662183004 31.26974151120521,107.18191809242126 31.625674808979966,107.39445970579982 32.24113066669088,108.26711757137673 32.67279445345048,109.18521777831484 32.95154090668075,110.16344925307203 32.808526791166514,110.21899393870262 32.915714560076594,110.73771634622244 32.805322808912024,111.35650923417415 32.432204515556805,112.70012833818328 32.03112419566605,113.66549078020034 31.802185102249496,114.52297505491879 31.703444195678458,115.85096726729535 30.860796871129423,115.88447681639809 30.262234737863764,116.06395938189235 29.261135928914882,115.30930533941137 28.817238755640574,115.55764373089187 28.24722119118087,116.33111729758093 29.428325546672568,117.79451252496801 30.27184668451082,119.08943459787406 30.723025635583326,119.59757807513233 32.148506453377195,120.77130690193735 32.72172800009139,120.42382507876027 33.34504817787092,120.89753860153724 33.61476522672456,121.05039361526724 33.76069205335807,121.13301790191326 33.04445639112964,121.99276763148373 32.50065322662704,122.50228133879136 30.47544519114308,125.63553469872568 27.96643584012054,129.429253369628 27.399039715644903,130.08746710140258 26.86572231107857,130.51571805449203 25.346452195663005,131.7866957859369 23.867377493414097,133.5304338487913 23.998449493432418,134.46403248840943 24.00456618668977,134.58428924682084 20.915927324444056,134.33367775857914 20.018229760113172,133.8971724389121 18.1459390578093,134.81103272375185 19.881332337739877,135.52614520670613 20.77902990230359,136.03929891786538 21.532839537831023,136.37619881296996 22.575007573352195,136.9012842498487 24.13680327113252,137.41856559517328 24.993140337755904,137.95466420898447 26.826983253471553,138.65691466035787 27.85517027566675,138.97636901191436 28.754906737827696,139.36834252736298 30.13960960006807,139.95721943397075 31.945199217880145,140.5011144488817 32.56269397342112,141.03995929821394 34.26692124444526,141.7867207636591 35.230154808959924,142.29343389510177 36.30581902223639,142.88964646472596 38.36918357340619,143.97512547677616 39.160567182232626,144.6025436265627 40.07544974226039,145.18911139655393 40.3664295822382,145.66598339378834 41.11208362667821,146.95018205337692 42.10793955554254,147.10852624842664 42.27775061340071,147.57070704642683 42.67941347556189,147.83736701705493 43.99246364447754,148.53453670995077 44.69733973336406,149.33359413594007 45.98621440003626,149.79301639494952 46.084955306723714,149.87930138548836 47.220912640099414,150.06105050817132 47.26868110219948,150.19736224971712 46.3896248890087,150.5021127682412 44.99035847117193,150.75637717894278 44.182372408919036,151.7394688889035 43.501380551140755,151.9703249768354 41.79860963555984,152.65922010596842 38.687542897765525,152.44672304205596 37.42488263116684,151.82988372805994 35.79755093343556,152.0607397193089 34.933058275608346,152.36181594937807 33.27310421341099,153.14204203122063 32.332589795580134,153.7125231998507 31.68072504887823,153.79651185282273 30.483018239960074,154.31467063433956 30.101744355633855,154.45924084319267 29.639497102238238,154.7043215474696 28.648010240052827,155.4216629092116 27.644289991236292,156.0917301030131 26.54066375119146,157.06470068288036 25.790931911207736,157.8852969907457 25.289071786799468,158.96748802490765 25.1938261333853,159.1014994296711 24.01330432004761,160.36404799844604 23.786986666731536,160.57607833191287 23.182599111110903,161.1566365128965 22.70374940452166,161.8064926728839 22.347233564476483,162.3370235117618 22.183247928856872,162.58025953324977 21.219431822304614,163.83773950167233 20.211051235557534,165.32559502881486 19.031985777779482,166.24850087845698 18.171570915612392,166.85153121268377 17.158529991167597,167.66245291137602 16.75016789336223,167.90981325355824 16.005678933346644,168.35313367750496 15.156914915540256,168.91898544301512 14.49194296891801,169.55000249214936 14.010180551209487,170.25765723676886 13.8394956800621,170.6110248209443 13.362684871186502,171.83174475398846 13.236564480001107,171.99328311532736 12.359547164523974,173.1047739055939 12.152453404502012,173.4489585806732 12.536348728928715,173.73669654806145 12.085752320010215,174.55539386696182 11.954389048973098,175.5062536735786 11.958466844516806,176.00141501351027 11.855939413420856,177.27396068203961 11.727780124521814,178.1734114458086 11.482529848930426,179.05863254505675 11.185433315578848,180.61797120288247 11.07271139556542,180.93093893537298 12.086334862280637,181.18792089854833 12.502561280038208,181.50318228214746 13.542690417845733,182.20070219406625 13.912604728946462,182.3865541588748 13.887555413413793,182.81837255111896 13.67871402669698,183.48789585370105 13.567448462359607,184.14869817486033 13.344334791181609,185.75572427094448 13.112774257780984,187.0892439861782 12.942380657768808,187.6495400747517 12.984032426727936,188.16348770668264 13.015489706769586,188.45763039926533 13.083064604434185,188.98121257848106 13.238603377831168,189.36667104036314 13.581720746704377,190.26056492095813 14.01454961777199,191.22649845125852 14.682725546648726,192.8155758997891 15.050018417881802,193.4561594017432 15.352066560066305,194.05636055767536 15.67829020449426,194.88002838916145 15.885383964516222,195.0433849785477 16.924930560053326,195.82529233582318 16.486276266747154,196.60352595569566 16.362777315545827,197.32348132983316 16.233452942222357,199.2791414941894 16.086652302299626,199.2745529175736 16.075583999976516,200.46161442482844 16.267822933383286,200.80208466976183 16.572492515668273,201.11639971582917 16.829102364485152,201.48944749089424 17.342613333370537,202.20250380667858 17.618447075597942,202.65722510567866 17.99243918224238,203.13351137313293 18.690616035601124,203.73597987741232 19.28772181342356,203.9975231831777 19.550739626633003,204.45912340283394 19.297333760070615,205.21346597227966 19.587731057778,205.36259056004928 20.372706702328287,205.43325263645966 21.006803911179304,205.65625098580495 21.186518186703324,205.81868173729163 21.30448298668489,206.03892662888393 21.330697386758402,206.30780862952815 21.206324622267857,206.5633838728536 21.17457607120741,206.8396066862624 21.208072248962708,207.18694948998746 22.27587214228697,208.96586814481998 22.92365909332875,210.1602177415043 22.916086044511758,210.59932194510475 22.320436622248963,210.82277379382867 22.211792497895658,211.3619020456681 22.145673955557868,212.02904271730222 21.722165760118514,212.4484134465456 20.5483431823086,212.87558345060097 19.904051484540105,213.66476748732384 19.291508337832056,214.46541927551152 18.775958471233025,214.86413817072753 18.68100408895407,215.73636186448857 18.297982577816583,215.8295028503053 18.31400248897262,216.24106623313855 18.521678791148588,216.38743027939927 18.70780103118159,217.06923766457476 18.62915783119388,217.634961808566 18.80741575115826,218.27455406845547 18.532164551201276,218.63793706253637 18.38652899558656,219.16649305337342 18.080985600012355,219.41241796931718 18.048945777816698,219.73175289016217 18.299147662241012,220.15386154374573 18.35885824006982,221.17380111385137 18.59362275560852,222.00424767902587 18.618380800122395,222.25016936392058 18.46691982226912,222.76174062874634 18.255456995568238,223.09621123119723 18.36730510229245,223.16457347164396 18.506241422262974,223.22651239554398 18.80129905778449,222.8594666607678 20.284451555693522,221.95469626080012 21.676144924480468,222.10702095454326 22.491412764415145,222.27723908459302 23.368138808989897,222.78330459271092 24.786337848985568,223.5444652591832 26.229586204513907,224.4051837940351 26.361240746686235,224.49556821736041 28.95734016003553,226.20506546570687 31.08798833785113,227.55714616540354 32.594733795616776,229.37030659092125 33.47699399117846,230.34478227223735 36.32970325334463,233.8678146888269 37.08759068453219,234.72895087033976 41.105093120015226,238.13675926008727 41.68326627567876,238.73591872118413 43.12476700451225,239.9245984602021 43.414873031084426,240.2824397868244 43.844789191149175,240.40217886766186 44.405486080097035,240.82057697349228 46.108839537831955,242.6753737293766 47.16527985781431,243.79613486339804 48.26191559107974,244.8274318256299 48.75998919119593,244.56639671651646 49.440689777839,244.06267605366884 50.14148807118181,243.96771219052607 51.686972586787306,243.29837633832358 52.597486080019735,242.7919001270784 53.24439921788871,242.35423766210442 53.7882023822749,241.7174693053821 53.82752398226876,241.70141244214028 53.77713408006821,240.32097650971264 54.91862556443084,239.6837433873443 55.62990961782634,239.4933529967675 57.42676110228058,239.08596287458204 59.02787840005476,238.75059948349372 59.541098097804934,237.45501837262418 60.26752824895084,236.95219868118875 61.506595555576496,236.0649209326366 62.64750449778512,234.9161339866696 63.3617012622999,234.2357592844637 64.10502513777465,233.6200710918638 65.1646694400115,232.90757727460004 65.77109589334577,232.2487592647085 65.9618784711929,232.08221929636784 66.50713799113873,231.61333748372272 67.84640256001148,230.49618346663192 68.87371576891746,229.65705248096492 70.51415466680191,228.13568913884228 71.2595174399903,227.45024630287662 72.21925575111527,226.67900581250433 72.79597255121917,226.2192882792442 73.32579470227938,225.8036146973027 73.48745016893372,225.73662969644647 73.72541866672691,225.6779031032347 73.97416419559158,225.59118958876934 74.22815260454081,225.514110880089 74.87826972443145,225.2714045282919 75.7436361956643,224.62908016418805 75.97985706664622,224.42904161498882 76.45317262224853,223.938579342328 77.05610382230952,223.5141840542201 77.49796209787019,223.21595983940642 78.62110350222792,222.51306667656172 79.74162346671801,221.82944123639027 80.71243008004967,221.1838949585799 81.25069909333251,220.73013028677087 81.98033322673291,220.0965098728775 82.20432071120013,219.89325542899314 82.69627761782613,219.42755885986844 83.14308750221971,219.07197705970611 83.42125141341239,218.86183941096533 85.19072341336869,217.22248344274703 86.52649272896815,215.7666441598558 88.26508999115322,214.36264236387797 89.25657685345504,213.6115435382817 89.45085468445905,213.48720133048482 90.4216612977907,212.6668162609567 90.83788771554828,212.2855288508581 91.19090830232017,212.02491324220318 91.49150008894503,211.8299101603916 91.654029369005,211.6867548447335 92.4401700978633,211.02053078112658 92.607942257775,210.93977620953228 92.89367921778467,210.79891446977854 93.0064011377981,210.7479839810403 93.41301560890861,210.50113153195707 94.48460202675778,212.4727314179181 95.3718138311524,214.14286478608847 95.58327665785328,215.19265629322035 97.80305379559286,217.0935551156872 98.0130602667341,216.86689801240573 98.13102506671567,216.7283342409646 98.0389833956724,215.54136213340098 99.83000945777167,216.06671394815203 102.10192412440665,216.85863924701698 102.44125496898778,217.8763002869673 102.62970737786964,217.15687223966233 103.2285607822705,216.21766632935032 103.34710812440608,215.11832681763917 103.59119331557304,213.32018806785345 104.03742065781262,211.73722628096584 105.04784014227334,210.55114441149635 104.89375772455242,209.06772995076608 104.75423886231147,207.11582914635073 107.42723384895362,207.43472340761218 108.34532039111946,207.34937909030123 109.1512675556587,207.2075973273022 110.0116824178258,207.2920240194071 110.13751153775956,206.63955166068627 112.85128448007163,207.48060743522365 114.3222035911167,207.99909627001034 115.1004800000228,208.4657351571368 114.79697550227866,209.28934803849552 114.81561685341876,209.5412490669405 118.56223715562373,208.01194376521744 118.89049969776534,207.86878591880668 119.4587696356466,207.67010836605914 121.41378133336548,207.96697752876207 123.81472910230514,208.20373842323897 124.41707776009571,208.52905481035123 125.05146624008194,208.64330544217955 128.33350912004244,209.41185731854057 129.48169984004926,209.73487770883366 129.53616753779352,211.5885649258853 129.01450097782072,213.8203098148806 128.7200258844532,215.50786804431118 131.59458048001397,215.4863033540314 134.74846407119185,215.59320913790725 136.4902653156314,215.89511445665266 138.19740529777482,215.77949119301047 140.35048135113902,215.1802680490655 142.16131384891924,214.77512619132176 143.61504796450026,214.5475490045501 144.98576981329825,214.35575997969136 146.44969841779675,214.32501866080565 148.08052536891773,213.26925817359006 150.92245760001242,212.215327846352 152.85708032001276,211.44036230037455 155.40541127114557,210.57913326565176 158.45268963556737,209.71835963241756 160.12516835553106,208.83739372645505 161.27947576891165,208.66624732885975 161.60045653337147,208.12114744295832 162.9796252445085,207.24292806664016 164.87900416005868,206.72948467673268 166.84479288884904,205.6888289146591 168.11560874676798,205.73792522074655 167.08217884448823,201.40685394307366 166.60915456002112,200.02203075413126 165.8967054222012,198.1824689230416 165.0359992888989,197.4161713948124 164.35908522678073,197.1816929851193 166.77139256894588,190.3775784764439 167.8825918578077,188.9908490483649 170.39218375110067,187.30996686127037 172.9294464000268,185.482227812754 175.6676861156011,183.56131843372714 177.11938133335207,182.7935923479381 178.83496817783453,182.06119839195162 179.8622813867405,181.87809951486997 181.69029888010118,182.14792938478058 181.75000945781358,181.49675774609204 181.68884252454154,181.03556734300219 181.66408448002767,180.74003785045352 181.72000853333157,180.4316588183865 181.80826367996633,179.75845484790625 181.5606832356425,179.27293902554084 181.94690872891806,178.55475908273365 182.19594552891795,178.28308911435306 182.00545422232244,177.85585068562068 182.26410296896938,177.62869349692483 182.04361073777545,176.91280261205975 182.37187328003347,176.22444375406485 182.54663594672456,175.78618747135624 182.62003626662772,175.45623267802875 182.93752177781425,174.87892530381214 183.0249031111598,174.58935321785975 183.04907861340325,174.08317477203673 183.34093226667028,173.80002638418227 183.26083271112293,173.5223845737055 183.27568753785454,173.06943758111447 183.7026909866836,172.7266290434054 183.89463864895515,172.2902013224666 184.41339249780867,171.6812202630099 185.4048793601105,171.17274041415658 185.43167630233802,170.8088186319219 185.64517802675255,170.78403705067467 186.42141553782858,169.84921865933575 187.0182300445158,169.31136353389593 187.39950392895844,169.13880904606776 187.7263101155404,168.51421571790706 187.78136035555508,168.41417047614232 186.8213307732949,168.96854903065832 186.40510435565375,169.05528528173454 186.08033706666902,168.9680901085958 185.6177985422546,168.67988686496392 185.03117852448486,168.149830531911 184.32047701335978,167.61701934831217 183.89784263120964,167.40591377852252 183.15714019560255,167.21958999545313 182.80208071111701,167.03188927308656 182.19944078230765,166.5275288223056 181.7689420800889,166.21086879260838 181.2446540800156,166.0213314802968 181.2443628089968,165.93918329570442 180.47919360001106,165.83730114612263 179.6840234666597,165.60370630666148 179.08604387554806,165.19296427676454 178.95934094220866,165.1080621954752 178.53321130678523,164.77441963920137 178.37505109340418,164.6459189298912 177.54638478229754,163.87537200096995 176.35159068449866,163.41276716359425 175.55409038229845,163.12272076797672 175.0196078934241,162.9643883149838 174.6167799467221,162.9047267807182 174.2675458844751,162.8785674875253 173.7712199111702,162.88866405712906 173.0008078222163,162.9093161300989 172.5901155556785,162.72665994998533 171.36706815997604,162.19521219551098 170.4265537422616,161.83815934252925 169.31127665785607,161.82255547691602 168.57261311996263,161.85743470443413 168.19978609785903,161.91204822051805 167.810939164483,162.01393222180195 167.43024782219436,162.20301411498804 167.14742357330397,162.52610512205865 166.82382136886008,162.72620101459324 166.24186168890446,162.97356701106764 166.0006892089732,162.11076787224738 165.851849671104,161.53709632402752 165.75747783121187,161.05383422935847 165.6622321777977,160.18138966546394 165.9083562666783,159.48747016803827 167.66384725342505,158.5856468542479 169.15457280003466,158.06290886830539 169.31360682670493,158.0220627388917 169.39749290666077,158.00921226956416 169.1641847466817,157.10279330983758 169.1368052623002,156.39968494465575 169.7406102756504,155.49463608127553 170.27392768010031,154.85210415982874 170.93598691560328,154.3367003867752 171.73814755561762,153.66157924686559 171.9650477510877,152.8698811357608 172.17155896895565,152.67344776378013 172.32738901337143,152.4999620668823 173.02207061334047,151.5806691305479 172.4604999112198,151.0253280167235 171.8866958222352,150.10281606775243 172.5085596444551,149.0917200864642 172.6579817244783,148.69012595230015 172.77245127107017,148.32570731453598 172.85604608000722,147.78366787557025 172.9524568177294,147.31368507619482 173.0975098310737,146.76292268151883 173.51024099555798,146.02122710365802 173.89530140452553,145.4521025319118 174.2331758934306,145.04499395441962 175.38573567999993,143.86405345634557 175.78273820446339,143.52991910016863 176.1736240356695,143.33669006754644 176.4689729422098,142.97455728182103 177.15724657778628,142.08230356813874 178.22125994670205,140.92659085988998 178.92205824004486,140.32807795557892 180.39967658673413,139.24533452186733 180.69415167998523,139.01997265825048 181.69059015111998,138.00836579478346 182.36692167120054,136.51802708569448 183.04063175118063,134.72474171203794 183.36219505779445,133.66721502284054 183.6910401423229,132.5454232384218 183.93832931562793,131.66184745606733 184.25552355556283,130.82279136619763 185.06816995562986,128.88624848081963 186.07888071110938,126.58798697136808 186.59879964450374,125.40694552811328 187.35668707557488,123.34641897014808 187.72689265781082,121.96889849135187 187.87048931559548,121.36344769014977 187.90718947560526,120.87642348598456 187.91796650667675,120.07221146253869 187.90311168006156,118.88103575271089 187.85446940443944,117.96343580225948 187.82534229336306,117.18170550465584 187.75718485342804,116.02769565302879 187.6855321599869,115.02240758144762 187.57455786678474,114.07816698850365 187.51047822227702,113.18074441590579 187.7298053689301,112.35079735633917 188.06301952002104,111.25184706016444 188.32050318235997,110.08357505197637 188.48681898671202,108.82532296248246 188.63769742229488,108.20468661549967 188.25991879112553,107.55099669995252 188.04000910220202,107.11994587630033 187.7000957155833,106.03290440840647 187.38115384895355,105.2185378309805 187.32173454225995,104.95917015324812 187.1557100089267,104.44318821845809 186.97220920899417,103.9028748528799 186.77851392002776,103.36990511923796 186.63142200896982,102.81765343877487 186.41005596448667,102.17771913472097 186.3366556444671,101.25453940453008 186.34568504896015,100.39516616298351 186.3631613155594,99.31635409989394 186.36549148452468,98.90732224454405 186.2845181155717,98.40463893674314 185.9944120888831,98.57862717297394 185.53012593777385,99.57389227801468 184.9018541511614,99.39485507440986 184.3618375111837,99.08085100504104 183.0135435378179,98.39453935145866 182.65091100451536,98.37020853033755 181.90059662226122,98.19713827117812 181.4858265600633,98.04885780613404 180.66618965333328,97.74219695467036 179.5832436622586,98.9715921721654 178.8672992711654,98.18520238611382 178.51340487110429,97.99009647907224 178.16242318227887,98.03279025736265 177.8131891200319,98.26967171230353 175.70817280001938,96.91310869972222 175.1087368533481,97.3639200947946 174.64590705779847,96.82863884279504 173.83180430228822,96.18960494123166 173.20440632896498,95.91737225203542 172.41069255117327,95.76220405643107 171.50804337789305,95.35959256719798 170.97501724446192,95.24941369367298 169.96197632001713,94.84771940740757 169.78663111117203,94.78666181047447 172.62332046218216,91.13786519644782 173.53762048005592,89.95203892863356 173.88248547562398,89.54161205975106 174.66134442668408,88.67163306334987 175.8424487822922,87.06296609668061 176.29421027563512,86.49735888146097 177.01335864898283,85.67144113848917 178.0663037155755,84.6366292348248 179.4151802310953,83.4815272144042 179.86781553784385,83.06879252172075 180.81648554676212,82.17675032909028 181.86098375113215,81.16763176396489 183.09014784009196,79.9748640654143 183.14665443554986,79.91426137357485 182.11147690669168,79.50289719807915 180.96940288005862,79.39638313197065 179.4044032000238,79.24303951353068 178.01562254223973,79.08785933372565 177.1799657244701,79.09153223864269 176.6434443377657,79.19896468095249 175.91847054217942,79.50335631030612 174.83435946668033,79.93767605198082 173.9209332622122,80.28843681246508 173.28974876448046,80.54370213847142 172.4526355911512,80.80172181961825 171.68863146670628,80.86553802766139 169.94071352900937,80.04924007295631 169.14612593781203,79.39500579459127 167.82812416006345,78.92028297879733 166.76207189331762,78.73388282558881 165.57485084456857,78.50386665132828 164.77356401784346,78.28119606943801 164.30753024003934,78.18891396722756 162.670586595661,77.95614251913503 161.31996245332994,77.67057247075718 160.68440888891928,76.81982859270647 160.24488078220747,76.03886755381245 159.56476273783483,75.21199155825889 159.26271459565032,74.52881788567174 159.04746524454094,74.05683911259985 159.0008618667489,73.62618053815095 158.9158107022522,73.1422625221312 158.00908373342827,71.01053106214385 156.6325364622753,68.63543695403496 155.70629432890564,67.32138757925713 155.242881991202,66.67216526460834 154.65189290663693,66.48850937571842 154.68335018667858,66.34801251534373 155.6305638400372,65.32825968688121 157.17837852449156,63.67396333598299 158.06529905775096,62.94621585274581 158.97959907562472,62.124340351088904 157.9438390044961,59.488807861926034 157.68460771557875,58.85150005290052 157.47634887113236,58.53789616795257 157.104978204472,58.187559224897996 156.7254519467242,57.97864242864307 156.5466114844894,57.914360296854284 155.68794424890075,58.61687112774234 155.14297599997371,58.64533883868717 153.93740487121977,58.10261505743256 153.9126468267059,58.16919292125385 153.56370403559413,58.06909653893672 153.26194716454484,57.97910158673767 152.65231672895607,57.899667235440575 152.0310354490066,57.946042207069695 151.1860579556087,58.10445168847218 150.05243079119828,58.1659788179677 149.33590385783464,58.266075155406725 148.6345230222214,58.28214566397946 147.96955107559916,58.109043265809305 147.16593408002518,57.81518211297225 146.47969934227876,57.86936279316433 145.9405565155903,58.01399759296328 145.36442225787323,58.41346463211812 144.74226716451813,57.83630339667434 143.26435754669365,58.964452438638546 142.88337493338622,59.34371489507612 142.3349114311859,59.89561863517156 141.76023352891207,60.37405650957953 140.74194972449914,61.09033387887757 140.1483392000664,61.57978871429805 139.4822021689033,62.29789867857471 139.20695096894633,62.802502652746625 138.96927374228835,63.2336419657222 138.43712142226286,64.2226419930812 137.73311914666556,65.2469914695248 137.14096497790888,65.84433511074167 136.26190876448527,66.36086844105739 135.52004124445375,66.29888450668659 134.73710449784994,66.45407387922751 134.2326229333412,65.81449092493858 133.8082409244962,65.38106105476618 133.31482766231056,65.05047836533049 132.42848967120517,64.64275901799556 131.37670968892053,64.00592556875199 131.03854392888024,64.47425316192675 130.15948771557305,66.00090223294683 129.66287047113292,66.37464264628943 128.8394470399944,66.72818027960602 128.34399488009512,66.90219404490199 127.36095488001592,67.13038602599408 126.05839047115296,67.52432654437143 124.45261283556465,67.98116808687337 123.50656426674686,68.19466656673467 123.03965667565353,68.31541937688598 122.42478336009663,68.69925675843842 122.22205866663717,68.93800693855155 121.96107975114137,69.27684808708727 121.58825272892136,70.25526039709803 121.2282416356029,70.98022846027743 120.91279502236284,71.59041185269598 120.33083534229081,72.48846644023433 119.9920870399801,72.85209484247025 119.21031537780073,73.75565367529634 118.41048490675166,74.73312744311988 117.07063779560849,77.30603395024082 116.67072256002575,78.13427927118028 115.79079253331292,79.62180723552592 115.22397895122413,80.30450568185188 114.72095374227501,81.23007053812034 113.03216384002008,81.42197783413576 110.52519338671118,81.92102782672737 109.72012003557757,82.19970565557014 109.7364312177524,82.27132625866216 108.99747640895657,82.57204071071465 108.8314518755069,82.63401997310575 108.2497834666865,82.38013443700038 108.03977699566167,81.70846113562584 108.01006734219845,80.67271201760741 107.04916394664906,78.50432576565072 106.04748259554617,76.39606231253128 105.70640412450302,75.85154667287134 105.42532750230748,75.52603034372441 104.84628053347114,74.93330470961519 103.91596060444135,73.79697487305384 103.20351146662142,72.45816404558718 103.08700302231591,71.10832579398993 103.1347714845324,70.28969528723974 102.98214542225469,69.58217197284102 102.63495025783777,69.05233145056991 101.50190563558135,69.26858367514797 100.8066414934583,69.42147524468601 99.5774774044985,69.64048189879395 98.95998264895752,69.71715713193407 99.10736583115067,69.3930089547066 100.17254428449087,67.67859676131047 101.19111936003901,66.12303369224537 102.12406072893646,64.38701574609149 102.49222741334233,63.53484208241571 103.15690808894578,62.093118203338236 103.41322666674387,61.59310407435987 104.00625464890618,61.110995690803975 104.68462506670039,60.54256556602195 105.24444814224262,59.831796228245366 106.03816192003433,58.84093946102075 106.51322510221507,58.26653431286104 106.78410723560955,57.69901501573622 107.3410176000325,57.2522532249568 107.2099456001306,56.76049277483253 106.87935288902372,56.23842653329484 106.61400490673259,55.91104398056632 106.2120507734362,55.47943088016473 105.74834716448095,55.07307094905991 105.17483434674796,54.69058683491312 106.33380209782626,52.74188173894072 105.84912696899846,52.53571469016606 104.65462414221838,52.20235730835702 103.08146887121256,51.83180655667093 102.17066410672851,51.687167614814825 101.84385792003013,51.64813804253936 101.53394545777701,51.68900430039503 101.37753287120722,52.59586589853279 101.13752547558397,53.15146023617126 99.26727367122658,54.919710053130984 98.3745277156122,55.6759526967071 97.82752056897152,55.08592754614074 97.09002211561892,54.218105523032136 96.60505571553949,53.536242914618924 96.63272647117265,52.61882437049644 96.58612309338059,51.666045729478355 96.32776561786886,51.40110364451539 95.03510442667175,50.56540897558443 94.96024775120895,50.55025624029804 94.79160177777521,50.17970265285112 94.13769813335966,48.93579506641254 93.76778382225893,48.2842215654091 93.3198088533245,47.716216845670715 91.90160981332883,46.78086547693238 91.9074352356838,46.192652746802196 91.89432803564705,45.79637738096062 91.79325696011074,45.302754094358534 91.23896803555544,44.219074827153236 91.36479715560563,43.59871191676939 91.48480085330084,42.774007611733396 91.61412522674073,41.946085811185185 91.58820209780242,39.84710843692301 91.69597240898293,38.139808791689575 92.32307911117096,37.011091714084614 93.13281280000228,35.971454489568714 92.53308558219578,35.53750549198594 91.1888694044901,34.820224918890744 89.77008782234043,34.47995205922052 88.92132380453404,34.186977156670764 88.48412586678751,34.1855995306978 87.71458759123925,34.67695220117457 86.83582264895085,34.85558387613855 85.33752405340783,35.040644298656844 84.18612935114652,34.72195453941822 83.35891939559951,34.387192023335956 82.70443320891354,33.59551563998684 82.38461752887815,32.9296602854738 81.98761500453111,32.22982113354374 81.50177479116246,31.84637811628636 80.43630506668705,31.033568510436453 79.65482467564289,30.226725665736012 78.36012458673213,28.785238540382124 76.58453589340206,27.788728592684492 76.08617102226708,27.031010576582048 75.55081472010352,26.27834138070466 74.85584184888285,25.724514780857135 74.45301390229724,24.99847626494011 74.03008824889548,23.466026421869174 74.12882915558293,21.54459356609732 74.27213454223238,20.444262460339814 74.40408035553992,19.722798578324728 74.92632945789956,18.218325080932118 74.99332181341015,17.748519395361654 74.84797752893064,17.251617254456505 74.5741826845333,16.83048949833028 73.16151779564098,16.24035816313699 72.738300871104,16.154478993965313 71.73137664003298,16.468603703542612 71.0652396089863,16.593518665758893 69.58121329778805,16.52830571657978 68.68963242671452,15.682372576440684 68.7630327467341,15.562049569445662 68.46331477339845,15.236442317371257 67.69756302225869,14.739534393651411 66.50276892445982,14.07591712923022 65.14078520890325,13.360861502646003 64.33105152007192,12.861193737131543 63.065769813372754,11.695603957341518 61.75126328889746,9.845710959576536 60.73035804450046,8.53497777460143 60.05519160896074,8.248397349379957 58.60320512007456,8.096840239828452 56.41313763556536,7.17142103536753 54.1753016889561,6.505943432915956 52.55991210672073,6.92800986598013 51.022000640048645,7.278889275621623 50.22042254230473,7.672020502097439 49.4188444444444,7.875474815955386 48.316092017805204,7.8676673176232725 46.82332757336553,7.025833633088041 45.732808533357456,6.677709414972924 45.14385834673885,6.428327209083363 43.75536896008998,5.413802520837635 43.83663360006176,5.273265904514119 43.400600746739656,5 43.157971911132336,5.302659191307612 41.888029866619036,6.465527887863573 40.75615032890346,6.600552520132624 39.03648568899371,6.155981303250883 38.126263466780074,5.873531139222905 37.559449884458445,5.875368214678019 36.648353848955594,6.1725149599369615 35.84298922668677,6.813652448239736 34.43119815120008,7.937475528102368 34.10031416895799,8.45644375361735 33.17785855999682,10.541489356837701 32.33666759112384,12.028105387289543 32.10947612451855,12.337184295756742 30.74807495123241,13.419186616782099 29.769986559986137,13.956511730095372 29.121617066673934,14.103931463323534 28.087604622356594,14.198996471473947 26.51532316452358,13.845832051243633 26.414834631141275,13.659375700284727 25.69510371563956,13.22721885878127 23.20473571564071,12.906659877626225 22.099944391171448,12.91492644767277 20.47086506674532,12.960851830546744 17.218823111150414,13.925282614829484 15.053513671155088,14.97191476658918 13.441036800039,16.16320468648337 12.845969920046628,16.849318564869463 11.909824569011107,18.06126405642135 9.647813120041974,21.185930328443646 7.893487217836082,23.253861396806315 6.885106631089002,24.749574453337118 6.470336568891071,26.31462018802995 6.2376109511824325,28.02752402232727 5.678370417794213,29.02311442856444 5.017184995580465,28.64609480102081 5,29.94752152019646" stroke="red" stroke-width="3.625976982527553px" fill="none" stroke-linejoin="round" vector-effect="non-scaling-stroke"></polygon></svg>