<svg width="16282.1545147734" height="6083.118487623287" xmlns="http://www.w3.org/2000/svg"><polygon points="190.84582371567376,3122.629284123541 204.3963383466471,3176.0863976503024 205.1743234845344,3179.5229297827464 201.5911062755622,3209.542401380022 201.55527992895804,3209.7159565621987 209.3505686755525,3231.074334187899 209.96981105778832,3232.1218549777986 231.24570936895907,3245.129128314089 232.20661276450846,3245.6694891188527 299.2901361779077,3255.5112851324957 300.8930011022603,3255.6205210582702 305.7318880711682,3277.8226039622677 306.2340394667117,3278.68426481809 334.1882018133765,3309.1777754608775 334.47277368896175,3309.418664762401 353.993472284521,3302.997256408562 355.95168796449434,3302.0583883140935 329.42824931559153,3201.0366800824413 327.4936265955912,3196.62968999648 336.486330880085,3213.4154369146563 338.05686471122317,3210.1876123085385 331.859489280032,3194.553639153135 331.93463722663,3194.04507788911 342.19087559124455,3188.660371384234 342.45214577787556,3188.430141316261 340.38091690675355,3176.1484553690534 340.344508017879,3176.058066946687 355.722457600059,3161.845934731886 355.80284842674155,3161.588693073136 349.6241143466905,3154.1105639931047 349.61595875560306,3152.9659757602494 358.8547871289775,3141.380787117814 358.970130488975,3140.5239832341904 351.41776184900664,3134.619366430794 350.5707454577787,3133.962688363623 355.74401166220196,3128.1136688997503 357.7954340977594,3126.2582682790235 378.5505396622466,3140.376459707506 379.3736718222499,3141.066401200136 390.6158628978301,3134.7587978217634 391.66181745775975,3134.120111367374 392.20183409785386,3145.1340433697333 392.2839725512313,3145.3841082474682 399.6982786845183,3139.6946118728374 400.06061994680203,3139.53044634487 434.8969361067284,3152.1762288793107 435.1395649422193,3151.4161622785614 428.38032753788866,3148.756807904225 428.08148337784223,3147.8019870148855 431.43867420451716,3135.457302776398 431.7526644621976,3134.676038555219 419.5912217600271,3129.5745890426915 417.55552796449047,3129.8799956858275 421.19816448003985,3122.4102297344944 421.1326284800889,3121.590235692798 401.5423160889186,3127.1978900972754 399.8060489955824,3127.6463343213545 395.5103826490231,3111.3443244611844 395.5660154311918,3111.026746632182 384.9468532622559,3097.6075379219255 384.1097400889266,3096.9201586405397 387.6250911289826,3080.612712006201 387.877331911237,3080.2046616148436 380.72487850673497,3061.5244072425994 380.45923925342504,3061.105972892081 385.43589745787904,3077.8094309761073 385.66367146675475,3078.243129826151 382.2683241245104,3095.0815884015174 382.23337159119546,3095.509854734759 385.37385671120137,3099.1482853443595 386.08834474673495,3100.4856903036125 374.51031808007974,3109.0839339942904 374.2566209422657,3109.9471585003193 360.9985425067134,3104.9175571375526 360.75795256893616,3104.944547525549 350.04063203558326,3117.2225799335865 349.9413085867418,3117.562189657998 345.2728152178461,3111.387507813226 344.5431810845621,3111.423943759757 321.00672768009827,3121.3653327859356 319.6558122667484,3122.2181633858127 301.97419946675655,3119.4752396310214 301.48195128899533,3118.2238648402854 295.88109909335617,3123.1816420616815 294.95631331566256,3126.5191498008207 292.30021205334924,3123.2626064632786 292.09544846229255,3122.767823541828 295.7328420978738,3119.800002157106 297.5803747556638,3119.583643796388 294.2086203733925,3112.857536007068 292.89935672900174,3110.7788916609716 274.6486001778394,3103.8527836753055 273.6308989155805,3103.084002321295 263.3324262400856,3117.2032379069715 263.14717781334184,3117.2801561888773 247.14153898670338,3113.4751428278396 246.8327916088747,3113.410818236589 190.84582371567376,3122.629284123541" stroke="red" stroke-width="3.834611871443933" fill="none" stroke-linejoin="round" vector-effect="non-scaling-stroke"></polygon><polygon points="15339.669025280047,5976.088492026669 15358.82388736005,6003.894540845242 15371.487190186745,6023.5430052171 15434.268348017824,6077.736372460786 15437.661073920084,6077.709744201857 15444.70692209783,6071.839022454922 15447.139909688965,6068.639085070114 15455.333948586718,6042.439132469706 15457.98830222222,6033.151294420008 15459.268147484516,6008.84277995833 15459.506989795598,6004.731833660044 15491.516519822297,5969.212472234503 15495.612956729019,5964.61102301901 15490.177255253308,5957.829671929241 15488.586623715586,5951.2625930454815 15490.31298759114,5942.060627960018 15490.34677504003,5928.744588244474 15498.046818133327,5917.512483572005 15499.748715235619,5914.37160236924 15487.605913884472,5905.66244085005 15488.511767040007,5899.880867529777 15491.20194702223,5894.424277400016 15485.92265813332,5894.689892313443 15483.902110435534,5896.800586768426 15459.455434808973,5875.641206854605 15457.527220053365,5873.6240395507775 15442.867836302263,5873.325527432549 15440.10629489785,5872.339368461864 15414.029083591187,5854.21102818998 15407.237223822274,5848.141113655176 15400.621000533458,5856.2594701061025 15399.884375893394,5856.905851545627 15403.269528746721,5867.765221324749 15402.145222257823,5871.177738625207 15392.980376746738,5881.933353473432 15391.493728995556,5877.595278481313 15364.920191715588,5914.801966133935 15354.448121457826,5929.7069582392 15361.012789760018,5936.332408891874 15362.984112640028,5939.319769813679 15360.78064668458,5945.5199580915505 15360.570640213438,5949.247003782017 15346.026308551198,5960.470391714363 15345.501146737835,5961.022776394268 15339.669025280047,5976.088492026669" stroke="red" stroke-width="3.0774436465538964" fill="none" stroke-linejoin="round" vector-effect="non-scaling-stroke"></polygon><polygon points="5,12.143031367915682 19.188689635600895,64.1050948088523 19.380054755602032,64.90291911945678 10.933192533324473,87.10579885425977 11.283591680112295,88.20822051644791 22.83307377784513,104.17651417152956 22.983660942292772,104.54456785880029 47.32547896890901,111.21138513390906 49.04048327123746,111.35686887381598 43.15768064011354,124.73958737717476 42.25444892444648,125.6065054947394 56.58382250671275,110.25000423612073 57.03558400005568,109.38439293188276 54.44472746667452,94.12389184522908 54.65473393781576,93.72480575600639 63.86938680894673,88.71176582411863 64.1993969778996,88.47002773359418 66.67316252447199,78.91978922043927 66.49373952008318,77.44420382543467 73.79794517345726,71.61109593743458 74.03766129782889,71.18505579093471 76.64715918235015,62.44238119479269 77.15134947560728,61.954740682733245 74.22553116444033,45.01710545679089 74.37990485341288,44.63207124755718 93.6728294400964,36.89885197923286 93.88283591112122,36.7236640638439 96.07756373332813,21.474473549576942 96.1800911645405,21.338967019459233 85.01566947554238,20.009447278513107 81.77586090669502,20.28913072880823 78.49323548458051,13.079296284588054 78.56547072005924,12.48842781415442 36.480290417792276,21.577129955519922 35.18442524445709,21.354479555855505 8.556711537879892,6.130672447034158 7.351140409009531,5 5,12.143031367915682" stroke="red" stroke-width="3.891633288105709" fill="none" stroke-linejoin="round" vector-effect="non-scaling-stroke"></polygon><polygon points="16202.952325404505,4897.063791948836 16205.92299946677,4911.229690377426 16207.552952604485,4914.577617201896 16249.036366791232,4968.295873255935 16251.851793351118,4970.899840251019 16255.478118684492,4931.109936907305 16255.338308551232,4929.927727848175 16258.784045795677,4922.361439654604 16258.9005542401,4920.380599592812 16270.554311395623,4917.489611863974 16273.161187840044,4913.643825563835 16276.886545351124,4892.258780024247 16277.1545147734,4891.455629169592 16257.691779128974,4868.97067874833 16256.363582862308,4866.855484936736 16261.227810417768,4845.99251692032 16259.183087217854,4841.917871342157 16210.033126115683,4873.159505795571 16208.459679573425,4873.126038333634 16211.617932231165,4875.907390191685 16211.631621973356,4876.2072546834825 16210.19769429334,4878.3571640406735 16205.378613760113,4881.474004502292 16202.952325404505,4897.063791948836" stroke="red" stroke-width="3.0659892444775543" fill="none" stroke-linejoin="round" vector-effect="non-scaling-stroke"></polygon></svg>