<svg width="357.7278993066866" height="555.4282996809343" xmlns="http://www.w3.org/2000/svg"><polygon points="5,381.42067822627723 5.443023359985091,381.5082071518991 13.94697471987456,384.15436146839056 13.621624888852239,392.0091679074103 14.927975822240114,394.68136193271494 29.97125489776954,395.18800587416627 30.85468017763924,395.5994558330858 34.05778858659323,402.8204569745576 41.643944675452076,413.8427834138274 60.76909710210748,426.5552343945601 61.60067612444982,427.79752431757515 69.20489102217834,444.0625708779553 72.72927146661095,452.99544974567834 65.22816654213239,457.3798915594816 64.42484081769362,457.84444510098547 65.2587500087684,471.46534749353305 65.19700053334236,472.39755066647194 96.93768732447643,491.5859819036559 97.585765546537,491.93005859060213 102.03260159993079,503.8961947496282 102.42552632885054,504.9206993315602 77.39310449769255,518.1400753714843 76.11995847104117,518.6613128266763 107.97045447106939,532.0205293541076 108.09977884439286,532.1251310214866 105.6647523555439,550.0572651193361 106.70313386665657,550.4282996809343 110.27120497764554,549.0582187469117 110.37926655996125,548.6804193352582 109.22699804441072,536.4854430728592 109.34845809778199,535.7852561288746 132.60733013332356,541.2095047541661 133.31832291558385,541.1085142379161 176.64723086217418,513.661259758228 180.0789870932931,511.7146845905809 212.9905837510014,478.41415679024067 213.6613811199786,477.5929207846639 219.84943587554153,451.85794311761856 220.38187946658581,451.77765892096795 214.62519722653087,449.7687402656884 213.87138759111986,449.32491739909165 221.5181280709803,448.67677202052437 221.90260593767744,448.1905489646597 204.45779655105434,406.2910181976622 204.06050275545567,405.55116575432476 258.26809543103445,397.42209765070584 258.4268381865695,397.3395377189154 263.3140761599643,389.4483786302153 263.25931719108485,388.94442836928647 252.097225671052,387.4736268714187 250.2199833599152,384.3298682686873 267.7614947555121,375.67437267885543 271.0030509510543,372.6324151532026 279.75487402663566,378.999181111285 279.90750008879695,379.08671100682113 294.26046663103625,373.69137491402216 294.61028323543724,373.60880601615645 307.6761227376992,354.5309446438914 308.54644081764854,353.5382239737082 302.3412010666216,345.9351878025918 301.9208968533203,343.0877603269182 332.2130924088415,347.3354226005613 333.6411946666194,347.75914641213603 335.5006694399053,343.2014776347787 336.06107505771797,342.1058179366519 327.2547842843924,316.25243084836984 326.78379889775533,314.46611994644627 352.6606156799244,291.2070910667535 352.7278993066866,290.458272849326 347.7069678932894,284.05958646838553 347.5616236088099,282.9789771689684 350.13092607993167,267.44270923070144 350.1274308266584,265.9078909654636 334.84909596433863,258.9315546237631 333.6376994132297,258.3397249755217 311.64148764440324,273.9064328740351 309.1024773687823,275.28410802572034 304.20562744885683,269.9638505340554 303.80425585771445,269.6212298165774 317.57264127989765,258.5974938448053 317.7739096177975,258.08601871610153 310.78573311993387,246.94025842414703 312.3929671110818,242.73443592188414 284.685511395568,226.31804139201995 284.5477401599055,226.12344456854044 290.1136398221133,226.78082896501292 291.22396529780235,226.92756628338248 294.3702758399304,218.574218190799 295.48205767106265,215.20046041347086 277.43373454210814,198.02924851694843 277.09469496889506,197.23947033844888 283.5457675376674,189.67931079573464 283.9139342221897,188.90395291347522 273.5618676621234,180.61688959109597 272.6184405332897,180.35722228919622 276.15621944889426,167.39649625233142 276.0866056532832,166.9024208105402 300.1933678932255,170.7506699024816 300.7298892799299,170.80396051809657 305.02934215101413,161.20060093409847 305.27167971548624,161.2028591100825 298.4314689422026,118.54671733995201 298.34758286213037,117.99200026749168 292.2102092799032,117.21638779586647 292.0007853510324,117.17979797231965 296.32732643547934,104.76916985795833 296.5344201955013,104.50715357955778 275.35172863991465,90.46713872463442 274.94919196434785,90.29546167654917 254.00534271996003,87.07920276100049 253.87951359990984,87.15148891520221 251.81847921770532,66.8553074641386 251.91110343113542,66.0438185679377 263.43087587552145,9.505075347726233 263.01290183106903,8.715970753342845 237.86164138664026,22.00201471132459 236.6671385599766,22.137591643142514 228.4017382399179,15.649237186880782 228.0245421511354,15.444057964836247 210.4873998222174,18.37936790526146 209.50581617769785,18.36987735936418 190.6282441954827,5.671157268283423 189.78414051549044,5 162.15998833766207,37.87388588732574 161.73560632881708,38.77179023716599 181.30174321774393,47.27435916062677 181.70515370659996,47.44742565636989 189.09266289777588,76.32637073192745 189.24179370666388,76.66568037297111 206.448925866629,91.53650298155844 207.06816824886482,92.11071373545565 198.62771399109624,111.5001698997803 198.77334954659455,112.82737212686334 203.47155256883707,115.8331978545757 204.00836522656027,117.23129475919995 203.89127423998434,130.8422827993054 204.0916687643621,132.4679378104629 227.07470705767628,152.36011470697122 227.29316039104015,152.88990359433228 230.65268138656393,166.9326795763336 230.7933653332293,167.8869576053694 227.29228657775093,172.7210591880139 226.3042949688388,174.7835585633875 225.94428387552034,192.51248211972415 225.81699839991052,192.7933587533189 223.2759492265759,195.63958503503818 222.49563391995616,196.37337526166812 215.49551530659664,180.27819304913282 215.2150212265551,180.06097539048642 200.51981112884823,177.795757160231 199.2256935822079,177.7858219408081 194.06495203555096,196.71249840420205 194.22952021332458,198.28528233920224 189.34402986662462,195.89923416636884 189.11683839990292,196.03334846626967 187.46999153774232,210.44089899631217 187.5331973688444,211.20037680817768 191.02000383997802,213.37087939644698 188.0764179910766,217.50412132719066 179.36653795547318,214.22336130338954 177.44036209781189,213.18846228497569 175.37991025776137,221.25079194502905 175.23427470214665,222.89022232231218 156.88827249780297,226.0435288855806 152.37677425774746,234.34331621986348 141.97227889776696,226.0819064771058 141.6649878754979,221.55104656988988 142.91046314663254,212.4461494977586 143.61737813334912,211.11413421691395 148.86142321769148,213.3550759399077 154.95452359109186,200.76296979933977 159.73661269329023,195.78950422327034 144.7454711466562,192.827226490248 143.18367544887587,192.12729219382163 135.6085876621073,181.64381429518107 135.28585927106906,181.57697853347054 126.75394588441122,188.27219451399287 125.12690545769874,188.9721411661012 123.99123939557467,196.43162681092508 125.17613027559128,198.6492381906137 117.4702617599396,208.88129715929972 113.71082552883308,211.1547720914241 130.32667733321432,215.0306874992093 130.80436195549555,215.30205318459775 129.46567992889322,228.87668001902057 127.35105166211724,230.9381976488512 121.2847482310608,222.66762894461863 120.59181425778661,222.16419683780987 101.75705912883859,226.6566665417049 100.71110456890892,226.60790455248207 106.08680419554003,221.89690326544223 102.80505258659832,217.29687411343912 87.33302243554499,227.23548858170398 87.36593607102986,228.71098119567614 74.52437532437034,219.2889677322819 72.05847409775015,220.34641349024605 64.61562339554075,228.6017192324507 62.35681592882611,234.30719750002027 68.44583850668278,238.86352685687598 68.88973567995708,239.7976258418057 66.14217528887093,248.47430705965962 66.44917504000477,249.560955945577 91.17576220433693,273.33315133553697 90.95264853327535,275.29268461314496 69.54946474661119,282.12902048474643 67.0576403910527,282.83679133688565 55.17756558221299,276.1544042332098 53.87325354665518,274.88145943696145 44.483255466562696,293.8028840762563 44.17217792000156,293.91752976126736 22.701127964421175,285.5328897833242 20.34678357327357,281.9895424124552 17.62310741317924,327.9894570922479 17.331836302182637,331.59614067862276 5,381.42067822627723" stroke="red" stroke-width="3.488620253528584" fill="none" stroke-linejoin="round" vector-effect="non-scaling-stroke"></polygon><polygon points="46.36719701322727,292.8717241777922 78.17778887110762,295.49909244081937 80.09726549335755,295.84438071545446 96.60039537772536,288.6956737251603 97.78528625774197,288.70921487378655 115.19776455115061,299.7711501501035 115.93963207106572,300.60117892862763 119.87150079989806,313.9335635921452 119.50216903106775,316.38240944454446 110.08420892432332,330.95576914865524 109.76817976881284,331.64217154087964 118.11775743996259,334.5154709686758 118.54126563551836,334.8340722846333 118.56340223993175,340.7551886802539 118.91846172441728,341.9839773506392 124.12580664886627,344.23305336688645 125.78430435550399,344.32195096014766 143.7137888710713,374.20122588728555 147.46623459551483,376.0547271898249 148.3994672355475,383.3327712051105 148.29490090662148,385.15551533480175 133.4403655109927,397.060277390352 130.98378495988436,399.0308822286315 162.4442689421121,427.6373893027194 162.78534741327167,428.0451695037773 164.97483235551044,421.9658276041737 165.3459117510356,421.69832726346795 192.54393429332413,428.16921753354836 200.5524334933143,432.3209517057985 213.39079025771935,427.10195109120104 214.4652893866878,427.3103526403429 204.45779655105434,406.2910181976622 204.06050275545567,405.55116575432476 254.65429475554265,398.5544738963945 256.5268767288653,398.32935255230404 263.3140761599643,389.4483786302153 263.25931719108485,388.94442836928647 252.097225671052,387.4736268714187 250.2199833599152,384.3298682686873 267.7614947555121,375.67437267885543 271.0030509510543,372.6324151532026 262.12714638211764,362.47119398706127 261.77004799991846,362.20181593101006 233.97258951107506,356.36069751612376 224.25753287109546,353.3712659634184 221.86823594663292,358.0203220115509 219.43379199993797,360.76061512879096 207.06525553774554,359.2282571995747 205.82910094212275,359.23953784786863 192.56723598216195,346.65087451494765 191.86235989327542,345.20596109947655 199.59939441771712,334.7790165663464 200.37417557323352,334.3358626565896 199.55191722663585,328.4687270349823 202.75881215988193,324.16699345962843 196.59435036440846,321.1477866007481 194.28136647108477,317.6740675413748 202.29423473775387,303.6757333126152 202.15325951995328,302.94817091617733 209.7644649243448,302.908452799893 217.66694143996574,301.12113009695895 222.48369180434383,288.18065808247775 222.5792287287768,287.69498051831033 223.15361535991542,269.5354617004632 223.26196821324993,269.22263349662535 211.39121407992207,274.67020405101357 207.8642121955054,278.00557773705805 217.17207182222046,264.26833201153204 218.77726691553835,264.94049850059673 220.92801279993728,201.34592443716247 222.7315635199193,196.76442800008226 219.43699598219246,184.0598230281612 219.22698951105122,183.5833972535329 210.16787541331723,178.15477955911774 209.3878513777163,177.8011763706454 200.51981112884823,177.795757160231 199.2256935822079,177.7858219408081 194.06495203555096,196.71249840420205 194.22952021332458,198.28528233920224 189.34402986662462,195.89923416636884 189.11683839990292,196.03334846626967 187.46999153774232,210.44089899631217 187.5331973688444,211.20037680817768 191.02000383997802,213.37087939644698 188.0764179910766,217.50412132719066 179.36653795547318,214.22336130338954 177.44036209781189,213.18846228497569 175.37991025776137,221.25079194502905 175.23427470214665,222.89022232231218 156.88827249780297,226.0435288855806 152.37677425774746,234.34331621986348 141.97227889776696,226.0819064771058 141.6649878754979,221.55104656988988 142.91046314663254,212.4461494977586 143.61737813334912,211.11413421691395 148.86142321769148,213.3550759399077 154.95452359109186,200.76296979933977 159.73661269329023,195.78950422327034 144.7454711466562,192.827226490248 143.18367544887587,192.12729219382163 135.6085876621073,181.64381429518107 135.28585927106906,181.57697853347054 126.75394588441122,188.27219451399287 125.12690545769874,188.9721411661012 123.99123939557467,196.43162681092508 125.17613027559128,198.6492381906137 117.4702617599396,208.88129715929972 113.71082552883308,211.1547720914241 130.32667733321432,215.0306874992093 130.80436195549555,215.30205318459775 129.46567992889322,228.87668001902057 127.35105166211724,230.9381976488512 121.2847482310608,222.66762894461863 120.59181425778661,222.16419683780987 101.75705912883859,226.6566665417049 100.71110456890892,226.60790455248207 106.08680419554003,221.89690326544223 102.80505258659832,217.29687411343912 87.33302243554499,227.23548858170398 87.36593607102986,228.71098119567614 74.52437532437034,219.2889677322819 72.05847409775015,220.34641349024605 64.61562339554075,228.6017192324507 62.35681592882611,234.30719750002027 68.44583850668278,238.86352685687598 68.88973567995708,239.7976258418057 66.14217528887093,248.47430705965962 66.44917504000477,249.560955945577 91.17576220433693,273.33315133553697 90.95264853327535,275.29268461314496 69.54946474661119,282.12902048474643 67.0576403910527,282.83679133688565 55.17756558221299,276.1544042332098 53.87325354665518,274.88145943696145 46.36719701322727,292.8717241777922" stroke="red" stroke-width="3.091846849033383" fill="none" stroke-linejoin="round" vector-effect="non-scaling-stroke"></polygon></svg>