<svg viewBox="0 0 1523.8051988444488 1558.030125736069" width="1523.8051988444488" height="1558.030125736069" xmlns="http://www.w3.org/2000/svg">
  <title>قطر</title>
  <desc>Geojson of قطر</desc>
  <metadata>
    <collboard>
      <support-module name="@collboard/map-svg-geojson-import" version="0.11.0"></support-module>
    </collboard>
  </metadata>
  <polygon points="8.052550000000338,661.6828413575349 12.209425662214926,689.7046757607532 42.805489804457466,740.5464421874422 46.82051643558225,782.9230934905281 66.00210264002817,868.0077057705566 65.85894288888812,919.7135417095051 74.53321503112238,953.4622981039065 80.05542402668652,1002.152094024008 79.72177296892187,1015.2141915236352 98.04876973335195,1066.6737732179972 114.37131152890652,1091.4748939765486 119.68584422223648,1119.589671913658 115.1120867822392,1128.8161260222769 109.3342145689021,1167.8540458066927 109.07316283556429,1187.5998836209837 122.29272066665726,1198.66619279296 137.879875724444,1206.0712773305786 166.68855469334085,1210.8065740038073 173.00338520002697,1223.9711895244036 185.89198623112316,1330.6924000960062 185.87953439111152,1330.9910687661104 214.14397328891937,1379.0447909108261 219.41896592890407,1388.529163275416 267.62207746669446,1482.3979390262612 270.8162292889101,1489.1025832027008 316.10007611555193,1521.4109333649758 318.97288308444695,1523.396304876187 332.4306278666845,1529.2252713631242 340.87282975111884,1532.6674687446575 390.44316788446304,1548.6041318471762 394.740072133347,1549.9775757360694 429.6908578400107,1544.6685077344082 436.261934106682,1543.5447812546554 440.4971616977782,1541.4121867423892 447.27839007112925,1538.0809475568312 477.8384822311127,1533.2236730050572 483.5306479200153,1532.015879265302 511.5571911377847,1523.7799462542098 516.5595540177965,1522.091641156272 536.6126962044582,1522.3634908409658 543.0272142489048,1522.9247936940155 566.4574993333445,1497.6874767398767 568.5863270666814,1495.3458656009534 570.989896275576,1486.1111263515559 575.0379821777824,1479.2800269014915 582.8811850222482,1469.9187434360865 596.7965167200091,1463.846676869558 598.8205596711268,1460.9371047980603 607.6757839911224,1427.5403230621087 611.470828115569,1423.7451814383894 641.2436144622407,1416.2004502777054 663.8708650933477,1415.359521430677 749.7902359022482,1395.1017111483743 926.7441351378002,1353.3801726642341 929.1326310666991,1340.7603684064889 929.5097543378142,1312.8118612433536 925.0528694311288,1285.214637483783 915.8938493422247,1258.808831839975 907.0685531288982,1242.951337987899 913.9931597066825,1233.1209011664832 925.8943516711079,1207.8204878832257 930.8602328444613,1189.588856171271 933.9859359555776,1185.5100985547833 946.8804352266961,1160.7505035247668 955.3160835111121,1134.1115491216115 959.0338679733468,1106.3978144416542 957.9171345333525,1078.4477591618124 951.9956656622307,1051.10841925782 941.4452434755585,1025.2096682391639 934.0251847377876,1013.3906169260372 934.0382191200115,999.183737965599 938.5765143022363,969.9070974368879 938.4000040089086,957.7975192766244 947.9465603111385,933.590292730405 954.0176697155475,898.8695959747201 954.1821650755664,880.2848298152749 952.188341502253,861.0747451884308 946.3203208800187,836.7461912745275 940.3619333955648,821.0591237321423 927.6748919733582,797.5373645263971 912.6919060177825,777.8932784901481 896.4610418044686,762.2976805394646 892.3979554399921,745.6165857482192 877.9388933955706,715.4040247277953 869.6608227822362,703.2559875360239 867.2446560977914,694.2057965013737 874.7234787822308,678.308981485934 889.7206642044548,654.3881349392395 907.864232986678,603.8741386779948 914.2587989600215,575.0701096050543 916.3157555466823,562.1073596924907 916.4528714222324,531.7984241033773 918.8429693422295,477.3704795648737 917.513607991139,460.1669293204686 913.2589380533391,440.4601578492802 920.2937179289074,420.68450145857787 925.0128196533551,392.6466153968431 924.7792930400246,364.20264665361174 919.5959779822224,336.2307802086507 909.6188501600191,309.5963710496653 895.1530160622278,285.1245334031628 873.4820084889143,259.4052508327659 850.746259368876,241.11067647272284 825.1018769333386,227.2309157681666 797.3883045244511,218.22200414758845 787.4565421777734,216.89936526964448 766.1373901066909,208.90368979291088 748.1795066577979,205.64223758471053 743.1241324355724,203.84571012762171 738.9562612889058,186.48736401835777 728.9151266400077,162.4617921549143 715.1706982666874,140.360189636187 699.2881943022439,121.62813240523246 679.9798323466748,104.5979099441829 640.5251942666728,77.71104910417489 626.285240915553,63.04299162246025 588.3791456977851,36.399901382515964 567.1664532178038,24.88781061347254 539.7457539110983,15.221366129677335 512.7920350133572,10.367572213690437 500.7993111022297,10.17387692147895 485.940843546683,8.052550000000338 456.1985678488927,9.360482383526687 427.2049317244455,16.141101609442558 399.872851653352,28.065962103872153 375.7021554044404,44.4188174018127 354.856318888902,64.87112013737351 338.01291152890917,88.75245903241012 331.24690207112144,102.1867062882302 306.03250861334527,113.38503748301446 283.5568645955718,128.42348183875583 268.03888642666425,143.10239386824105 264.357583671117,144.97320613801276 261.83706911112677,182.51424846606824 255.63299444446602,256.29105716929917 213.76277222223143,309.8725852188727 188.88334054224106,403.9050266989434 191.9174388889005,420.99187605235056 200.21058278223063,431.33245637638174 208.0991511022512,471.1107502034065 224.48315110224212,513.3430184769459 226.91045890667738,521.6525210999316 225.49451721780497,533.1049028656635 215.5832166666878,555.5567161650033 222.46041887111642,569.0253047465158 207.69464834666724,586.3072068199181 202.84010555558052,595.0591634725934 206.88557001780282,605.8297174821273 206.0764188711255,611.2145836029886 198.39013833780336,618.8425551780019 176.14022943113378,624.2266947729295 162.99261556444253,648.4514852928623 172.70162832889037,661.9071038030452 183.8265827822397,671.7733291187251 190.29928223111347,672.894438383817 187.0628960977847,683.880524583823 188.27655000001687,687.2433924101424 184.63566111113323,694.8653633065187 174.52207277334674,686.5707797715659 162.7903277778023,683.880524583823 155.3062622133366,685.2257018830933 150.85629499555944,676.2576074743047 129.82003999112203,664.5979703828125 99.47934779557545,658.0948136418083 96.84975220447086,657.4220789329775 17.154772222223983,653.6096925453676 8.052550000000338,661.6828413575349" stroke="#009edd" stroke-width="5.6414688449596655px" fill="none" stroke-linejoin="round" vector-effect="non-scaling-stroke"></polygon>
  <polygon points="1055.7442509066968,1097.8625218148009 1057.6963498933255,1124.3185050949178 1063.879598675565,1149.8896033233686 1074.1240405600183,1174.0990104078737 1088.1531136266785,1196.3006912586352 1107.2442601511211,1217.838858030671 1121.705579546695,1230.2092465528913 1128.9430841155772,1235.3801475852306 1145.316452720006,1245.0405545440226 1153.33507359113,1248.8709114476587 1179.6818563111374,1257.904229339918 1198.3496402755627,1261.3609957311492 1243.7507965422192,1260.988862737744 1268.07885200889,1255.6381936002072 1276.3157077599972,1252.3816746657758 1304.0729708355575,1226.6455276092966 1326.6615552266667,1205.7016664497569 1309.6224136800229,1191.2987737475705 1307.8067752089191,1189.322040204781 1296.627498693335,1166.4241743663952 1294.8873722577773,1159.621802327667 1294.9679815377822,1145.5634812139979 1296.6647085778022,1139.1147528655492 1307.6397312266708,1122.6376395162733 1317.8390260888918,1115.6838387067764 1325.6480045777935,1112.1729646313106 1332.416052933353,1110.4237486612765 1346.75015967113,1110.572571440258 1353.4813622311412,1112.4622476354925 1365.464983920021,1119.590154016456 1370.3530228888922,1124.6113680864873 1378.8707368089017,1139.3504542449737 1383.0900901244386,1111.8639933747982 1382.5365293777795,1084.0505255929675 1377.222870497797,1056.7417666800975 1366.4984138222426,1029.0914254651507 1351.0141502844417,1003.4895867162777 1331.0711085777803,981.2157773391591 1307.3601109600058,963.046386026479 1280.7045080444732,949.6154576186746 1246.3503912089,940.2808846577609 1218.551112275578,937.5825815398202 1192.2492581244514,939.4335675322873 1166.5768408444492,945.6113441627895 1137.802895955574,958.2483828532204 1112.0432429777939,976.2897545426313 1090.2889318666785,999.0364360465246 1073.3745271733278,1025.6085074646617 1063.6824081333543,1048.9714370160727 1057.8296064266833,1073.110920641433 1055.7442509066968,1097.8625218148009" stroke="#009edd" stroke-width="5.699928224488477px" fill="none" stroke-linejoin="round" vector-effect="non-scaling-stroke"></polygon>
  <polygon points="1184.057767848899,580.8283565940146 1186.242810906675,608.9289176461243 1191.3289142311332,631.6023337233128 1201.0541653600303,657.4488011138237 1214.3851343911156,680.3637826262784 1231.2614553866806,700.7732609837913 1251.2272890577806,718.1295492155259 1273.7444392088873,731.9672149531907 1299.2353945866707,742.2379176113391 1331.572531795573,749.0529660922111 1359.5495589244601,749.8316093318645 1388.0666755111088,745.5231835458908 1412.1491166133274,737.7009542192754 1434.7160013066677,726.1752930842849 1455.2083075111223,711.22962248361 1483.508718391131,681.4611438124775 1496.7111640444564,660.414755794809 1506.5481176444518,637.5752255784828 1513.2283477600213,610.9933534087977 1515.7526488444491,583.7857609134298 1510.838978017804,542.0047662690849 1503.6683929866776,519.2339962614424 1491.8298971288968,494.8830129538328 1474.113331795561,470.14049194912513 1452.088284186677,449.17687365515303 1426.5368172355593,432.7405656466799 1399.4790417333497,421.3692543035504 1372.8867174666739,415.3824983533341 1344.688906835574,413.88745044440293 1317.483820968897,417.1971307062122 1291.2349053422295,425.1009537716527 1266.7044892711347,437.36749216297903 1242.7256678666818,455.28586091628677 1223.0015163999997,475.950732117366 1206.3535519555808,499.9572707613479 1194.2658736622325,525.4041660386793 1186.7598899466757,552.567490331312 1184.057767848899,580.8283565940146" stroke="#009edd" stroke-width="4.991601723699567px" fill="none" stroke-linejoin="round" vector-effect="non-scaling-stroke"></polygon>
</svg>