<svg viewBox="0 0 287.7779615822212 240.56655050172344" width="287.7779615822212" height="240.56655050172344" xmlns="http://www.w3.org/2000/svg">
  <title>Andorra</title>
  <desc>Geojson of Andorra</desc>
  <metadata>
    <collboard>
      <support-module name="@collboard/map-svg-geojson-import" version="0.11.0"></support-module>
    </collboard>
  </metadata>
  <polygon points="8.052550000000338,127.30537102038943 20.747747013323533,123.12902380323067 21.938317680011096,122.65879644436791 25.32631042664434,119.43441080991033 26.31000578666135,119.10351259986783 32.340555688868335,121.25461574158544 35.10136891555885,122.66116834420973 38.07284397332842,135.39942618108034 38.29238957330381,136.14700874253322 40.04540475554677,136.9652287623685 41.82281389332638,139.06976611444406 47.33737702223152,150.86649394004053 47.97256649778137,152.3828098454469 36.01363003554434,162.32625228731922 30.090923262214346,166.60196672012535 21.192590817758173,169.81273064317793 17.291232737778046,169.16184154150687 12.110029395531456,177.7823317806251 10.827344239987724,179.6502851108744 18.815163191124157,179.75445359102014 20.94056848888431,179.59785522169113 27.138744915551797,185.57605693542428 28.042704808882263,186.46875366362656 27.725073662215436,195.93585683473066 27.380936844427197,197.43754359380546 32.55180006221781,201.16707301277347 32.731732791093236,201.6208118041759 28.623790675548662,205.84771667049063 28.347811297782755,206.38412779253122 30.003396293330297,211.29629228974954 31.814884151106526,213.39099613021972 31.90962008000497,216.31908089959325 32.241086604430166,217.76698691277852 29.17356489777012,216.8413888052819 30.077160702210676,219.19887369836943 30.491275404441694,220.0825003292921 36.324926035544195,224.4675881564399 38.34853207998822,225.37383243589284 67.07150452442147,228.1756564287134 68.12029897777393,228.25813654097874 80.33300539555057,232.43616278946138 82.45273090666888,232.51400050172379 88.34347067555791,230.07582821558026 89.73385332444013,229.22657900749618 108.18383931552671,228.7705763044578 109.30785453331919,227.94291590144712 110.36218313777499,221.3106759668517 109.60720841776492,218.0539392475548 114.67787437333754,212.96122545390244 114.77443074665644,212.64661760882154 112.5714745155492,208.164762211185 112.49625375110918,207.7519304098314 114.76467316444177,203.42240915989532 115.07174573333032,203.1457524410871 120.09828411555645,202.85774388121354 120.81837911997718,203.29656653195707 127.48433695108542,211.53097054645332 128.4030060355508,211.73189705906407 130.11087419556134,211.4269543054179 133.7040674399832,200.6008078555824 134.12459010666498,200.02822036324505 141.5311775555674,194.5385732831419 142.06150943111425,194.22969581292273 148.03613527998823,197.06511130731815 148.4711486844244,197.43497714523255 159.74770975110732,196.11916466741968 160.23325869334076,196.14571809944027 166.5898137866534,198.7602375225033 166.8695068711022,199.0360255107007 169.3204804533234,194.63501697079482 170.14186498666095,193.76524148534372 184.97513759110734,193.62427569814463 185.32597364442336,193.4089764907185 188.8405965066413,188.58088476259582 189.3092517244295,187.9490498040177 189.18735476444272,169.03276895354065 189.12130903997604,168.4555435592265 194.15760500441684,158.11148073056393 194.11435124441778,156.53564546605776 201.6730550311113,167.50955378430808 201.9566802755653,167.66756540298957 208.1739349599884,167.0522066271442 209.64390743998956,167.22276166370284 218.4923597066445,172.20528907700646 218.88484752886143,172.31608634314762 223.46297403553763,170.5886336327021 224.90061542220792,169.90427526021813 232.76231398221717,161.32634047969623 235.4718634933015,159.59057997646596 234.3913933066433,146.39437992851163 233.02496770665311,144.7819882878175 236.97911867555376,143.0029837057009 238.23842932441767,142.1032365938663 237.6510811288972,137.85615833300835 237.79322143109312,137.23635253034445 239.5213329333419,133.90393746039626 239.5466735199807,133.7327963018397 240.78697872887278,134.91526135132153 241.0258938577681,134.73325391680555 242.1509285244465,115.71891897134628 241.89999846221326,115.24626295435155 244.20650157330238,113.44821949498873 244.22740027553664,113.31023323522095 241.97106861332577,114.44060442140471 241.6999680266672,113.83025004404044 245.5373920977654,106.35388267695816 245.51350786665716,106.19057353470271 252.96371316441946,99.23262910536869 253.27530043555453,98.89400974482851 267.1358731644359,98.21103108369425 267.32061186666397,98.18018415617553 279.52305097776843,89.17795648225729 279.72541158222157,88.94548254725669 277.1484632444408,83.07460714755143 275.73208464889467,80.69095269041281 266.3503877955445,83.05354301975603 260.3810776444225,82.28098890983529 249.5338501955339,76.91556497810961 247.16239362664783,75.4071847911473 237.4908820177734,75.11383215810201 236.75549528000556,75.01542123521358 236.2949956533339,66.53319408333482 236.771660826671,62.4219775774327 238.61897503110958,62.96646242702991 242.72538797333982,54.11541515371209 244.5869744622105,51.826318308019836 242.91354911108647,47.92577289275505 242.89126687110547,45.7630064574405 240.81836319110153,47.99780772889062 239.90668461332825,48.86835393925867 238.6342667644276,48.9494908317356 233.17540923556226,46.86077551013295 231.0575041688644,48.4053768708618 227.90376621334144,48.99015818522457 219.58702936000918,43.61391898284637 217.23931138666376,41.32334342374088 205.01284240888344,38.88819612941734 204.56217318221024,38.73222941917629 190.69490121777199,44.24990548221831 190.33226868444035,44.63147444002243 183.9156389244381,39.24050526528299 182.50668774222868,37.3226722628533 171.87085030219896,35.16151298152545 170.83225033776398,33.41418150295067 165.56716091556154,36.454041222408705 164.60174281776563,37.03626388269913 151.4207055911029,35.97691737773857 150.6352930399953,35.14389640623267 146.62507238222315,37.91458529353986 145.63700795552722,38.138740808506554 141.55127526220895,33.59965534610819 139.18156631998863,30.87954728911427 132.99373001777712,30.06268973020633 132.39997385777679,29.829200888554624 126.37189975998626,21.36431103116047 126.04298185776133,17.518166153407947 122.7450647022124,16.125052465846238 120.83214167998085,15.663017253355065 117.41567718220904,11.133363982145966 116.3937524888679,10.63178676271491 114.06722448886285,11.152670564079017 113.32062381332071,11.900969214395445 107.55192663998605,8.818015378121345 106.88127490666375,8.052550000000338 94.12498377776501,13.111910626124882 91.63141179554077,12.141060463887698 86.10658135999256,17.245228439824132 84.61636553775315,18.40943746611447 79.84942253333429,17.86346973207401 75.79805983108963,18.612676802476926 71.86772027554252,18.408051516067644 70.5145475110985,17.95167627043702 66.44243174221629,10.482679126762378 66.43842676442728,10.47485740151751 55.85574630220799,12.481146879064909 55.52915856886102,12.494017652650655 54.772290586646704,21.519430799678958 54.23125449775398,23.196124843416328 49.36972120000428,28.067860822608054 49.163355617762136,27.714102043457387 48.74334267553786,29.921052475743636 47.69491231110442,32.84647367581056 49.93973876443488,34.31422918019962 50.096005715553474,35.46604141098942 49.561814497785235,37.63154449364083 54.1500626755369,50.09538960814098 53.9450806310997,50.46900677699159 49.490453075537516,54.54312727074284 48.39155999111972,57.01752657327597 45.23731231108104,56.56717548691813 44.78620617776323,56.696186767141626 40.9369128088656,60.114788366168796 39.06644255109859,61.40530939723976 29.719479777770175,59.92138100798911 28.74211956444924,59.7284676931813 29.315778017749835,63.55209483253566 29.33383682664862,64.63896239088353 27.67184386667941,68.52193128702493 27.724855208893132,68.91146105743974 19.311634799996682,75.51113375402201 18.305293111108767,75.8197157513132 18.171017128894164,78.32688722680177 17.579518319987983,80.15374496961158 21.157711102197936,86.37021393050236 21.321551102191734,87.4577670501385 28.098774497753766,90.39726841348602 29.768850231113902,91.17950993125123 30.49120258665789,94.23876903768542 30.91776912887144,94.86167650487187 28.876468364418542,97.66754946430592 28.087050835551054,98.69963644873496 17.413785057789937,104.42182478745963 16.535384204449656,104.98343667816516 8.052550000000338,127.30537102038943" stroke="#009edd" stroke-width="5.802581344989257px" fill="none" stroke-linejoin="round" vector-effect="non-scaling-stroke"></polygon>
</svg>