<svg viewBox="0 0 2529.1826347199526 1745.5287664298223" width="1000" xmlns="http://www.w3.org/2000/svg"><polygon points="8.052549999999883,1542.5888773230613 34.063060222171316,1508.2385153433784 35.56019373328991,1507.906276201225 89.02475380441274,1535.5993749327968 89.49923444443948,1535.9670363891414 82.88155479994703,1573.576130755689 82.34241197337496,1574.6843083405179 110.95426448886383,1581.5751711337139 111.18524247999403,1582.901434284729 99.77353161769088,1652.8602094054 99.63110004444707,1654.2685974578849 88.65775220443129,1657.4402416853477 87.80578420448683,1661.8703269300527 95.02115216883931,1663.2620569395726 96.66945538667596,1663.4998435823723 91.83843273772027,1682.5434736361271 91.92639661333624,1683.393148540264 101.70582416884235,1693.5997569816896 103.12402320883803,1694.1820289609382 143.44468311998162,1703.338030236518 145.88844774218842,1703.5120762398942 165.80469250665146,1676.7661353828512 166.7746253066939,1675.4844052307085 165.4184670132595,1657.9476825605157 165.71090320891335,1657.375633744326 214.59493378664,1671.2654547806374 217.28103597331892,1673.6091267643274 213.46276297778923,1669.4498096013335 211.93766744001869,1668.8490776315225 216.151777875471,1659.5180049773548 216.2784808088104,1659.1478585629734 232.29518793777197,1660.4548091126849 233.42007696882456,1660.2825235947744 226.99696642670415,1648.5757646807247 227.02609353778053,1648.5093593916167 239.7619228710896,1631.9612526549968 239.8248374310565,1630.3714379640073 256.64195757322113,1627.848262179155 257.3337264621873,1627.9406998621776 253.73944095112483,1621.7320318550114 253.8763383732653,1620.9929571129974 268.41455334213197,1632.1447783622202 270.2813098933325,1633.757913364308 272.1713681332544,1659.6373490214824 272.193796008803,1660.3049566126206 284.8882648444046,1656.0964823285826 286.5930746578156,1657.054837088835 290.10434790221143,1691.4729707765869 290.3717347822162,1691.8807447131035 297.2591314755623,1695.9813203592562 298.59402697775613,1696.3379470446157 308.4078245244232,1678.0146598653878 310.6774090222093,1678.26588922958 312.97000393781445,1695.011472278718 313.9326549599423,1695.489668028989 345.99024471999246,1682.157664515405 347.68486004436954,1682.5273235004638 359.9756271199799,1655.5854478121978 359.68814253327537,1654.6746458546036 376.36865652443475,1648.4792975311643 377.24130477323297,1647.361621555268 361.4663526665895,1639.1684475780708 360.75302971548035,1638.745319715213 378.8543641866195,1627.5664616238569 379.6367183910693,1627.4578695934974 428.5632745511607,1641.5514992306485 429.0438718843284,1641.613419640205 421.7993768088995,1658.561006967771 420.5836111911117,1661.3395649009394 428.23064294222377,1681.3712398697749 428.4179302665648,1685.4814327006238 444.6970726666982,1692.8313170969845 446.54693549322064,1693.6993444404575 449.99558544890124,1682.243798703515 451.15455319997955,1681.1191168253786 485.64571309331905,1680.8118134347965 486.3138890221958,1680.9042288062406 456.35607270219,1710.4908483744143 456.30306136000536,1710.8716735568373 477.77090733333125,1708.2830361202136 480.94867515550095,1708.322061031918 483.1305870488063,1696.3469187776568 483.89808642664093,1696.4653456193405 511.49893691551506,1725.4461506057773 510.5584224978006,1728.1893255875107 569.4933453066983,1728.629773313623 573.0258813422183,1726.8809843082922 575.9321844888395,1737.2555530511668 576.2252032266474,1737.4762164298222 589.6988222844443,1722.9586048638807 590.5755483289026,1721.7166155583468 600.9450911554518,1723.6767038160247 601.3758811288058,1723.3914380550627 589.5456136800126,1694.092759320199 589.3088102666438,1689.8651946485402 623.0744138221266,1665.883976921999 630.477069111053,1662.6550268506176 660.8930548887943,1686.7994415602657 661.0960708532725,1686.906209800603 702.9493993511201,1691.3078871632238 711.0234345510612,1691.1194763658928 712.5226069598934,1673.5395886182446 712.5336752622165,1667.7566295430074 727.5402541777362,1651.018388513919 728.2553247555402,1650.5306735473928 721.0725791555374,1635.9835266081277 721.1270468532816,1635.6294940760486 729.6609991377695,1635.3454599585161 730.6987981066118,1635.4091769647562 736.868211511151,1620.6420415793323 739.1963415022251,1619.3667146696603 754.7173051999193,1632.2067014268027 757.6780760444012,1633.067340471876 764.7580029421729,1658.1105479506436 771.4004406310628,1656.481888608519 774.5155851644008,1643.4876255086633 774.5406344799335,1642.954126832868 788.5839798310549,1642.0513489950458 789.4540066399854,1642.047310716101 770.9349893955291,1614.5085576916822 769.6656298932862,1603.337888794114 791.6734925067062,1614.6023472569427 792.5356549955682,1614.0503793823077 800.9327098577992,1593.7800800335021 803.1000581955082,1594.1121891200087 802.7234446488796,1570.714771489474 803.0860771821822,1568.1195424597022 810.1863930576724,1573.018673572085 811.3791482577576,1574.7170733276648 816.3607580710445,1566.1935233416511 816.8940754756109,1565.019321146166 804.1308666576874,1540.051673306712 803.175788684493,1536.9322008937957 802.6893659288539,1514.3830528475587 802.6389760266534,1513.3630158680967 832.1671674577296,1520.1790355783664 832.7765066221832,1521.0890493175607 837.6183063022104,1513.7307146043527 838.0068619643348,1513.5587627689597 844.7856145333276,1524.1229997621044 845.3594186221958,1524.693600431819 872.2615097155572,1499.0977146110158 875.3192738400317,1500.930484900578 886.2763104977562,1476.0161592716827 887.59460354664,1473.8953451344055 911.8638950666423,1478.8657324199808 939.6310613599849,1474.318342096441 953.156526675542,1462.0964545525853 954.2330647021076,1461.0290221728278 972.7046047554827,1485.0092969215834 973.3762759377491,1486.35230874332 996.2474661244555,1490.2636547202487 997.4894461422004,1493.352360899596 969.1001247555027,1493.7281752113263 968.163688133332,1494.5902557868753 975.7888745510495,1510.414669278172 976.2685980710444,1511.7817695876943 968.7007920621904,1518.5857167854333 968.5167087199875,1519.6156063335143 971.7804015199431,1551.2439697584846 971.7742848266857,1552.8410912336326 961.2669707644741,1557.8976681085546 961.0735667466429,1558.18763782431 967.9292148888121,1595.7817028564527 968.1529111021441,1598.2823593396238 990.2388343732814,1611.3834125970384 992.6476464621733,1611.971287920001 1026.1479020355978,1608.6055681967187 1026.2760613244968,1608.6051194306706 1030.040157893301,1620.1125260285112 1031.0596067821384,1621.2460467403066 1037.5345635821354,1610.141689084157 1038.749455386634,1609.946028359503 1070.0544005955812,1616.527043883841 1070.7930641333583,1615.9311032496985 1067.631607493247,1584.761330928282 1067.5759747110783,1584.3300194287217 1076.5657662843364,1578.8656197633604 1078.580488559884,1577.4378966900763 1089.8334566666522,1582.8094264400202 1091.073397786567,1584.1015720994687 1082.5318724532622,1598.087136824593 1082.3201183555425,1598.3074914209787 1096.2489941599556,1615.6178747673762 1097.4804884177643,1615.767309041788 1136.0407057333282,1616.2892063248796 1139.836259582174,1617.7099453466722 1129.4445801510951,1579.9333764030375 1129.274769093237,1578.042918479397 1214.6035149065788,1606.9410885197353 1215.172367386614,1607.8700393710528 1217.2325279555293,1592.8210000247705 1218.7217971466957,1590.0720928168516 1282.507257768862,1589.955852552935 1282.9249405421792,1589.8503835343067 1288.6204558488457,1599.2355812630044 1290.7513952976801,1599.3127723108987 1305.2462108710092,1583.95032098631 1305.806907759957,1582.5980326604108 1358.2389117422058,1573.924428566686 1358.7678600799768,1573.9666192433574 1374.520966853342,1580.5841713011391 1375.4783749955018,1583.279339271226 1361.0572510133275,1585.81424805089 1360.2731491821828,1585.670627939609 1358.9603902844024,1597.0787087903368 1358.847085822235,1597.4880045727837 1379.6493773066682,1601.5741886889805 1380.1142459999314,1601.4444910986126 1385.541500613304,1581.4562334373254 1385.591307973234,1581.0832623562087 1393.2412524354654,1582.4099773010016 1395.1144169510585,1582.082338700107 1406.3577731110631,1563.3482266784772 1406.9245866932683,1562.7346360164006 1386.6235727910894,1569.5522634931617 1386.2117154400107,1570.2560528538665 1388.9091772000315,1557.4115415485353 1387.6887512444296,1554.751516935335 1399.4086269421746,1558.0592611863171 1400.7079873688995,1558.020209536749 1419.879743173347,1541.4194866909888 1421.2312411288508,1541.7220474754354 1420.0906234577774,1528.396408040578 1419.854402586679,1526.5773352962929 1432.0274961333266,1522.5472183685993 1433.0064583377457,1520.0627582670782 1435.8285841332759,1503.4443455455253 1436.0053856976806,1502.1678880263712 1424.458816311067,1475.8801008818914 1424.5491103555319,1475.7435933695301 1450.335050551082,1469.1174883917915 1450.4876766132434,1469.2337927197582 1453.4953421066525,1456.9249499968496 1456.6148557066695,1451.4178551112195 1466.1563147643824,1457.9950968026892 1469.6859380888995,1459.3445610947451 1464.0128506577817,1480.3241822573832 1463.9656647377192,1480.7516570954826 1540.7627884355384,1440.7522088496257 1540.6608435465964,1439.0505256852844 1557.1199914932727,1454.9229575996064 1559.0310212533,1458.0772773946878 1573.4014640621385,1448.487537445711 1574.234499439924,1448.0972745591785 1581.089273768804,1463.3529375021822 1582.4905790843545,1464.291927028367 1624.1539988177606,1476.7180036843997 1625.7548248443995,1477.2909728893787 1618.7954841865935,1482.9640056775893 1617.7495296266638,1483.527978120815 1625.4571457687775,1495.9327599348976 1625.820360844467,1496.9914915233162 1617.4620450399593,1514.3233413065095 1615.8786952799196,1515.3299051110876 1626.1949354933818,1531.5299185024119 1626.8468002399673,1532.395890789841 1637.3998438666817,1526.5405227108636 1638.1926838310678,1526.8273913532971 1646.5009010043937,1544.248907520297 1646.841105662264,1545.2984279710577 1666.1765558310794,1517.1755593893827 1666.701717644442,1516.8289672626192 1671.1281647200008,1530.0489139081687 1671.476524968842,1530.9436232447401 1693.505941644405,1545.0066456295094 1694.5906352621746,1546.6518440638679 1701.1212248443403,1533.9469108866538 1702.58078438216,1532.7303374401886 1723.8866836176962,1563.511611174013 1724.9145793688726,1565.7567890849673 1747.4356616800428,1566.9031585476837 1748.3852055021339,1567.6679999939875 1731.544783671015,1589.7646618691283 1730.9310754398825,1590.6079641250903 1732.4523844532446,1608.7128232618338 1733.7392202222031,1611.937630978507 1718.1932072088598,1616.6401288214615 1719.3020763288728,1618.2901750299857 1741.106049164409,1623.21555870385 1741.3836305333311,1623.1850446410022 1772.1147716532937,1597.756380120852 1773.208203404421,1597.6284754273725 1783.560269964371,1614.507660183684 1784.2392229244356,1616.9731007991136 1802.9053320799499,1613.281212076697 1803.1237854133137,1613.304996170256 1806.9400195111298,1633.9046429971709 1807.179153093231,1635.3315499053929 1812.4086346222098,1631.0691988644899 1813.0838010577495,1631.0727886254676 1811.8051208799948,1611.1056297399114 1812.0614394576764,1610.580578790606 1825.97429535105,1603.3930883395728 1826.9751028888636,1602.7100490844236 1842.1873192088456,1622.7331667729081 1842.407228897769,1623.3062033947567 1853.1924155999218,1589.0474709172627 1853.462423920027,1588.2943730134061 1867.3112001687764,1594.3617194000176 1868.621046355554,1593.9385051063505 1869.5880664443607,1575.3521745090616 1869.6416603289322,1575.0855668872605 1881.918155119965,1574.7395150968582 1883.7444249866307,1575.4536109938995 1881.9373790133754,1559.4907013350526 1882.6189534133077,1558.4668343091394 1893.2765633688318,1565.5583956410187 1894.626604968776,1566.3748598175366 1900.74591974225,1550.8139389984785 1900.8592242044174,1550.764112832992 1949.3616896265662,1559.8031122423486 1949.5617928799252,1559.8533852202595 1955.9872335911273,1586.5516460784488 1957.0943550844454,1587.528257057747 1963.647663813295,1578.1079986170876 1963.8824283288336,1576.4720127485703 1976.9771036711531,1578.4679587533824 1978.7797805777295,1578.2969553208454 1978.1986947110631,1569.4602500488177 1977.646153413319,1568.9485648251498 1953.3602594400068,1563.5187929072777 1953.2731693777964,1563.2409494297822 1959.2684026577986,1555.9702126076222 1960.2828999376866,1553.7581515125707 1955.0959439910725,1542.4021343621203 1954.7924394933284,1541.739554689127 1962.415878284351,1534.2598070989839 1962.2172313866681,1533.0338080533325 1938.880589964428,1500.873912602408 1938.7999078666103,1500.642684406404 1967.1388393511074,1505.2613652939103 1968.1909106044109,1504.564102021082 1955.8611131999419,1484.866957841186 1956.6160879200102,1484.1314629505282 1980.7018786399635,1495.7280173585527 1982.75970904003,1494.2301579585542 2019.8207539466453,1552.4469740864947 2020.5480579110804,1553.634709945974 2033.9060423377446,1533.3130365602915 2035.905909786677,1529.8778727212698 2064.4880526489355,1523.7746228562678 2065.0947703732886,1523.7113223538977 2066.3044192977027,1557.9084409840648 2066.204804577726,1559.0113113191687 2082.0048060000186,1556.3463685046659 2083.2450383910686,1556.1538019028735 2101.987169306703,1571.1815683333912 2103.120213928843,1571.5285234210091 2105.473101964431,1592.2716701385575 2105.941757182219,1592.7267523478727 2118.9542940711613,1597.8443426036752 2120.018889982231,1598.6629305478195 2122.307115831041,1581.2461848198213 2122.644990319946,1581.0886482246929 2132.480050657737,1600.6802161974842 2134.178161235504,1602.1840804819144 2145.644048524416,1598.856357406395 2148.069171795483,1598.475337747113 2132.342279422191,1582.3323314849763 2133.045116613364,1581.3386421419923 2156.2722400977286,1576.1434676132408 2160.2416827999764,1574.8984027571055 2164.337245893293,1551.6888127993802 2165.4682516177195,1549.144531847654 2160.8186908709827,1538.239430883295 2164.618905057759,1536.6992150604851 2198.8254930755134,1545.7136560186987 2199.43832749324,1544.5007390187598 2212.9667055199166,1561.8732721250049 2212.7939817510555,1562.1623388626972 2259.510081448803,1543.8992158867545 2260.8583754221686,1543.7438969593272 2262.0112264799895,1571.818923958555 2262.005401057751,1572.410944883573 2276.469633164444,1581.399233084499 2276.919647031092,1581.9216609608625 2272.8179672444016,1586.2657531630025 2272.62805847996,1587.0879747969807 2292.1971080800063,1579.1896725590118 2292.653529911047,1578.4616751650242 2311.4227490399276,1596.2982621940096 2312.762887422206,1597.3331723764782 2330.1689577511056,1578.8283671260356 2331.813183173282,1577.8207482091161 2364.65633111992,1599.175444032509 2367.481660897705,1600.423063797039 2386.2089369866076,1594.2418910455667 2387.670826693276,1594.3424212050518 2408.2872872088114,1604.0469550689809 2410.3119127021414,1604.0527891490851 2415.2183745689467,1597.0935188484505 2415.6940202932815,1596.1191944119996 2411.3045646488677,1586.5888974042387 2411.139705199959,1585.9354274465945 2423.9582555287993,1573.8903169499022 2424.5900225688015,1571.7830166485287 2426.571539937729,1593.1593937307257 2427.693516257779,1594.664207164758 2441.209952168843,1593.9860774855256 2442.5666930044313,1594.755312448287 2448.4896910488383,1581.1460974804136 2449.665261253343,1578.5303457992627 2442.7094158489267,1575.5653706065855 2443.0938937155074,1574.3283815207901 2465.155350213266,1580.318467686338 2466.1305258932766,1580.3606571331397 2490.700117928885,1539.2526185476231 2490.220103137755,1535.7542507129615 2496.157082195488,1541.1582246687972 2496.2936883466095,1541.0886445245483 2504.0263538044887,1528.605160487677 2505.6941721866383,1524.3263690145463 2517.417251866638,1538.6627526610168 2519.076332115546,1539.6072555697533 2521.05231533337,1531.21746731978 2521.1300847199523,1530.244196990017 2510.905012364477,1523.9205281999089 2510.7250068178178,1523.4608138036924 2511.4144455377022,1495.2857547813105 2511.4426988354894,1494.1309289020496 2492.223757111096,1495.262406884321 2490.5600165243736,1495.3584924440142 2486.3421195643964,1476.4000859561852 2486.9138847554345,1475.1791518654568 2497.507123795432,1489.3530640455206 2497.90733030215,1490.51375218758 2510.951907013288,1487.4420685596774 2512.350590888854,1488.8299666075977 2511.496875262215,1478.3785325758286 2511.543769911142,1478.324199622824 2495.824159315532,1476.4135570557332 2493.230972613302,1475.3111693403112 2501.0393685599333,1475.3771780478778 2501.0443201688827,1473.1378103192324 2493.4622418755675,1469.5580075479588 2491.6263600621382,1468.9405619983804 2499.0351320444383,1458.7005914835968 2500.3834260176877,1458.0193468166758 2492.2962836178262,1435.2909671786251 2492.265991422209,1435.2128201346854 2476.217535742187,1435.67227045945 2472.447322480009,1435.2092271664656 2470.1957967910926,1395.6309061917486 2469.8025807910376,1392.7169126829608 2455.981475297805,1389.5737811474605 2454.9937749599117,1390.0436590426611 2445.5408623199687,1350.7523684478142 2444.7663724355875,1348.0246870169426 2455.6159300532668,1330.3530179139702 2456.078468577681,1327.5513905763287 2440.1188505866808,1320.9828157722727 2438.7676439021957,1320.8560975899813 2437.2343927733377,1308.063924481255 2437.137982035499,1306.9175489811237 2429.57192365334,1310.9956705326108 2427.758178444324,1312.7104811293316 2430.4422417332894,1276.7991141148736 2430.445736986679,1276.6436058359463 2388.362304311107,1266.1033929721812 2387.2942131466475,1265.3150252579721 2389.658460755461,1238.2944119272647 2390.1212905510106,1237.1876792714243 2369.587551031123,1227.8944107054626 2368.9971444888283,1226.2953695412502 2326.9442952798922,1223.2298711516555 2323.914201911051,1221.0346800167822 2313.7636949600196,1231.6229139867714 2312.4352074222184,1235.0578100373746 2292.8323703732817,1233.9883723207527 2289.508093182208,1235.7847010416222 2298.2843830310517,1217.6840827205228 2298.589343884472,1216.4059599860116 2275.543099759939,1213.331781276945 2275.2314396711076,1213.3169452704383 2277.7121957244594,1182.5898695597784 2277.8968616088164,1180.3609975391078 2307.4774818399233,1183.398768684921 2308.7386857510787,1183.3290748811337 2319.4163934133026,1166.4948987859311 2318.696662497801,1162.6641089245454 2272.420673448803,1147.486435647566 2271.2940367910555,1146.3590070333807 2289.7047011821774,1114.6964449010334 2289.925193413255,1114.1072343720366 2252.215196471057,1082.585758569628 2251.6944037243734,1081.4211083795885 2244.1149468710423,1085.1727983031665 2243.145014071,1085.4148115855419 2248.3855639021854,1076.078662974272 2248.314202479996,1074.755627351034 2230.62792934219,1049.629029149633 2230.6087054488958,1049.0580899691918 2250.6245649333355,1027.4688377957568 2253.7266022666367,1025.064251060459 2290.7838606488435,1020.1875024862599 2291.3780537155467,1020.291896101298 2306.605416133279,1007.286408358115 2308.2181842755303,1006.0754574272793 2286.6967444177494,960.1646315090253 2286.614023422218,959.0308368165057 2320.0988416266405,959.0740462494792 2321.5674305688367,959.1393104809464 2313.157559777704,949.035275560083 2312.3489911732972,948.6571753928798 2324.66422502217,921.9143843772832 2326.113881342207,921.0572501969069 2302.245378871077,935.0802458978502 2299.826954835538,936.980760626822 2308.1345894665933,911.7343486516398 2310.3403855911233,907.2562074815866 2296.2082025510967,907.7347746434167 2294.249404328853,909.1254497612023 2289.5372202932845,885.0041550704988 2289.2010934310742,883.7056286019866 2267.558193519922,858.4328061914781 2267.0254586577425,858.13650514742 2275.1312424088605,850.0434588841523 2276.0656401333176,847.6481804111169 2251.3306061066464,813.5629447935859 2250.3699939822322,812.5968398458568 2254.3015714399294,791.736490073126 2255.439858942154,789.5392204423912 2250.66301272004,775.5785203287156 2250.3801884710333,773.3333374893188 2243.9285333599905,774.4171906694315 2240.1580288266773,772.935562926206 2234.6366936444315,784.949567402167 2235.402154124436,788.6423785459843 2221.371624702216,795.2336978221789 2218.3671631910615,798.0826826498156 2193.7894155643658,800.9712676508713 2191.4140996533456,801.8158100911893 2183.84600237324,787.3013880988361 2183.719881982171,786.7293137574812 2172.9935320444415,789.7045344437716 2172.341958568875,790.0473241142823 2170.748996862188,841.2849613517534 2170.704432382226,842.09602312951 2132.9463757066765,841.6281205607589 2131.014083155525,841.1890387994714 2125.3957546932866,833.8384541086631 2125.83149627559,830.1058730017172 2135.5194647022067,805.4160016422171 2135.536067155517,804.755693203049 2117.542502995558,763.925752825198 2116.8169466577015,762.1890692721714 2107.5629721865766,769.0803106031159 2106.2834181955327,769.8474923097307 2066.939099048824,763.2472991014725 2066.3478186932402,763.9834167896548 2058.7176806665734,743.8456054673076 2059.4977047021744,741.8947536456177 2041.2982118666182,741.8744791127752 2040.8511107110894,741.2171326830063 2049.6023512444003,726.9037015689315 2049.8543007555195,725.1901542012707 2043.799356897805,727.5295507842453 2042.7102942133565,727.8345896735333 2043.8337268888495,693.2741764368617 2044.0093633688298,691.7757756246498 2036.7392364355978,689.5838108007807 2036.3125242577876,687.2228274034347 2046.9121712621777,684.3034467809845 2046.8419749244126,683.405271979958 2029.093078497775,687.2584293656761 2028.643355902262,687.5274718546785 2019.086750746566,716.0616723453637 2017.0268814489023,716.5645395462994 2012.9056864977824,701.6722413305903 2011.9246853955333,700.6312881416885 1965.7873413954871,689.0799802546168 1964.510117573292,688.2124696625175 1972.4918198310547,665.709169210029 1973.2610668355842,663.06037680884 1961.954504844361,650.2121291333821 1961.7392554932517,648.7720290691137 1974.8688833688861,631.3683798626076 1976.379124079925,628.4009217056224 1958.675665946655,633.2625193980999 1954.6730183376708,631.503160919157 1949.583929484455,613.9489195027633 1952.6282951377575,607.751112069214 1972.6310474221605,592.2914422484824 1975.6713352799193,591.0759379103325 2007.1612376443586,594.9474039175326 2011.9916777510439,594.2481375594867 2023.2126060355,582.6830927895859 2022.91376187557,580.3597304030333 2008.8319687377439,560.0232815448904 2005.4526413066556,557.5233666584605 1965.8243328266321,538.4677909702656 1965.3877174310396,537.3814148262387 1978.0542242399893,495.9214649467973 1978.4593823555401,494.30353445953335 1974.5618836177523,459.6633270234812 1974.787036186644,458.71234901270475 1882.6323518843633,450.1781737605703 1881.734071777762,450.06764279420133 1878.766310426617,469.42324405044894 1874.8883268532586,470.86452603826876 1871.3648202222316,461.77188495020494 1871.7959014667208,459.07640986904846 1847.5231146933288,457.71038905086573 1845.011775173341,458.350994328655 1854.538670675574,451.0610660447634 1854.958101075586,449.60386327267736 1840.400953484444,444.95879540363205 1837.7157251110543,444.7336677138006 1827.8407606309988,410.8644221470237 1827.7994001332913,409.0635643381171 1843.2495849510665,386.20297671957053 1843.5222147110394,385.6072879027121 1841.1640837954833,371.157275051322 1840.9989330755557,369.69412355530187 1872.500777555491,331.29665910659935 1873.0189488621904,330.61189603279456 1829.9667484711167,324.34285125122517 1828.7894306400335,326.180068351248 1826.2588672266352,306.03844990346226 1825.4080643111151,304.95498061096407 1798.0906206132854,295.14617883586436 1795.1010139288624,293.55520357550233 1791.7321722577103,302.5911931189254 1789.0312152444162,305.75313684435207 1753.044669466653,316.20383878934774 1752.0686199733532,316.55369165229024 1746.8199145510803,305.84658594112955 1745.323946124386,303.9952029071643 1727.2159124177192,306.477253437835 1727.061538728863,306.48763663831744 1706.9175199555243,283.2804026479495 1706.5100316711246,282.4383694554923 1701.6242500532894,288.70139331199573 1699.045918177791,289.0016274736041 1687.1078804178173,272.89043409258704 1686.3837804355203,272.36983905672207 1680.2178622844872,281.1245202956849 1679.5319188177596,281.7778339070861 1641.007819119935,276.6718221989937 1638.7085249689185,276.6853673521324 1622.2872422666765,253.30021527826432 1622.267435831112,253.23970710926335 1604.0350293599545,252.44406828218018 1603.4909349243167,251.8087291804619 1627.0611757777874,246.6293144610023 1628.1132470310909,246.16690912712477 1632.018318817812,227.22686650991784 1631.960064595543,225.62455774515513 1617.7474907288338,206.00887069912972 1617.7020524355826,205.8941512552334 1596.0518707466322,208.16368811086397 1595.7340939644268,208.1609782301599 1607.628732328863,197.9408756353438 1608.1069994932982,196.60167613576743 1600.9921200620952,185.2143093524279 1600.310545662163,184.17631349966507 1589.660217484437,187.78985477318167 1589.5544860710866,187.77269059347566 1593.7531591377697,181.2922129578434 1593.7004390666038,181.21045481481235 1585.499118391053,187.7686253928474 1584.8443409332317,188.0861625047179 1586.2252572710636,174.94660594876734 1590.5552936089002,171.4100967270566 1579.6879684532537,162.72329432451045 1578.6830831200127,161.84962590636098 1565.8249199200432,169.68902604582365 1564.713720631065,171.21043515470922 1569.2860945333737,183.68667405643612 1569.4430896622139,184.60542465499714 1530.4314021244422,206.53233385339956 1529.2019467644636,207.3498190994502 1518.7228860000391,200.49368781588385 1517.2033246132555,199.72902162242792 1507.080488417741,214.50697497963085 1498.0091409332595,218.03420536724263 1458.8681290221643,201.00361434437912 1457.8469325066321,200.35367235166598 1413.486924826611,232.9558822338364 1412.7634073865843,233.2444515708263 1354.735794088781,245.26377088568518 1352.6433024266512,245.37485709085706 1340.4774906576854,226.26765038676206 1339.0298732354781,224.46752815353796 1327.9429296621597,234.7536765391484 1325.0980847199457,236.20870043055731 1305.1203817510755,184.94284093959834 1304.2704526488446,183.15321876385826 1284.925681804401,166.94115725343693 1284.2560495199646,164.1327210115047 1411.1509305154682,75.4317846958653 1413.0127354577194,73.57483154009208 1419.705854319945,57.2036755413061 1420.2816973066433,55.25753055720236 1416.9597502844185,31.36906270552538 1416.4075002578097,30.191114426801164 1401.2046046133396,29.990419611778293 1400.8230394577618,31.508282573114798 1376.2557775910022,8.104084947822798 1376.114802373318,8.052549999999997 1323.928339937796,63.68286643506838 1322.7891786221658,64.95373427283596 1318.8692520088293,91.30223727841042 1319.548204968894,99.07684213456344 1305.4949563999903,85.87001685854159 1302.4642804888786,85.43483687568335 1291.9962880266607,113.65240681483522 1291.6281213421385,114.94422021767934 1257.864265413234,95.6525254522345 1255.2766128622238,94.90918225909229 1209.2793702665726,98.2535288826108 1209.1654832621348,98.36830490091927 1213.8400933244043,117.54183095307201 1213.4174589422541,120.60117943082116 1181.022868506588,144.6221943717461 1177.3435318311454,143.34320643961075 1161.1771113510254,188.62999455104693 1160.8654512621938,189.64628834903817 1149.2242187644365,180.2867211819172 1148.762262782176,180.09203648000369 1116.3723326843242,228.66206995989307 1116.2986410932858,230.40886873249076 1069.5172966666064,262.09313836284093 1065.9058261599635,266.5994137502054 1055.7634747999032,295.06717210854515 1055.2132636711244,296.7881578935554 1058.1513153689225,313.41131572236884 1058.8334723111252,316.7965569231088 1066.1767082932415,313.586470174581 1067.9351119911075,314.4974516327853 1060.6775097155255,317.9716057117108 1067.7192800977277,341.8923831539938 1051.7060682222723,344.063463645674 1050.7029305154933,343.97996094884695 1023.0499424977238,324.22954816747335 1020.7282204710423,323.83546965357493 964.2612377865948,382.47132052519703 962.8800301777442,383.70468304630015 963.5616045776765,392.9603208503464 964.3908534310535,395.38991721397144 982.8385092533204,390.7969465212442 984.4827346754969,391.8515603374468 1002.6528091288415,424.2181026096001 1005.9336869243775,423.34457711151447 1004.9957939466472,434.33062060763007 1006.1434021245,436.23368705306314 978.7426548888684,430.4833799512486 977.1738686844251,430.87320547292586 935.1277187110168,491.3021898190269 933.5630103022336,492.4262329457339 899.4953586044498,464.1763560047617 898.2015323288283,463.18163901122864 908.0785357065974,452.9418808932311 907.1840421244046,450.53367706124084 888.2773430311131,438.37540654370207 881.4927650399982,439.5024289313948 881.8880199377668,418.20532488471474 883.7938068177095,414.6501910944131 867.2670839732523,429.2782552195491 864.8891466222481,428.8649649380019 853.97783952891,408.79372768747965 853.6644318132671,408.14936724745314 811.0797215555572,442.6610383660078 809.9568714222182,442.4449315622693 813.5231949066288,386.6059683087875 813.8628170222287,384.93848988661887 796.5321859110622,388.7165851298265 796.0355686666221,388.3997908329835 796.2717895377205,359.95637959204726 797.8213518488697,355.97603753556143 786.0869125955282,353.1519772005628 785.5230117244423,352.62209510323703 793.1936364355274,342.18622504032794 793.8752108355761,341.17334903751146 780.7872347289008,341.1399475206632 779.148252186576,339.3132378724182 759.271620293242,300.78853966706777 757.5513731110618,299.3763830198219 736.8990862489222,312.19335639509484 735.3894280799209,310.94198414227105 719.21689090666,284.3450169114873 718.9911557954979,283.7305391678598 721.5100683644191,270.2427461864205 720.6575178222042,268.72383297436284 699.4104553510911,267.52684606551304 697.1501915288168,267.39996777786985 704.4861457332513,276.353059352237 703.8383587822095,278.9347541330277 681.1931949778004,299.22649885001704 680.3426833332992,300.4666518228838 673.3632449687934,315.6454273167543 673.0055640444402,316.3835052327264 675.4924367910494,335.6859529751597 673.8866591555775,336.8198245109885 617.0028675111021,339.9189831648033 613.6130543199611,339.18594989981614 627.0354096622682,347.7244613199506 594.5292623910132,350.9335951112804 593.8238037599726,350.89026534869447 569.1723645422385,368.6051028330472 567.3915329688239,369.9847688643273 539.1481384088761,436.3180568509048 535.2730675466369,436.63478168342374 532.5528866399322,467.1401797961222 531.9266537510334,469.0646137222426 536.8401061243853,481.37770267201233 538.5612271199711,483.157215049701 561.8410706755017,489.8813405161269 563.1104301777445,489.80375736763347 558.8083558666763,521.024690685888 558.5106767910543,522.6649732490547 566.0933376266398,548.2535012638906 566.9974431554797,551.0191251502616 540.5765319376728,571.8704331478581 542.5679525243827,578.7685758784424 473.9695280621304,598.8850748454348 471.06235110221996,599.5590794199157 463.8516434755652,609.9064794869406 462.6294698932684,611.0127819744299 453.76667252436846,638.5594417438621 453.0312129688459,639.4740279744507 455.2346789244107,663.8486629440227 455.41672336878355,669.1353798882116 483.9647875110163,692.4116395991074 485.6515385155576,694.2340488559345 476.0637673510714,698.2956595596403 473.8576799555226,701.2599163093615 473.6229154399839,712.3581730020011 473.09629727106176,714.1326522240776 434.2488866399285,727.3511231126973 431.0149034933197,726.8996463846194 402.1659562933269,683.3043228504608 400.07899878218404,681.1848310383281 385.50670509329166,722.3942901418555 385.32436937778357,722.6713999398995 391.39533314665414,739.7749284201196 391.6432048622296,742.2385193287406 381.9240704267063,771.0124501091556 380.77995750212676,778.5300177699897 329.3545864799303,814.0894589341257 324.3479273511107,818.7771354773791 305.2003470489067,815.0929400323436 301.14235792888894,819.2117583553551 309.1957128799763,860.1912410619913 308.92919981326077,861.8096190808352 272.6647813955565,881.9172154571639 270.48053933328583,883.0923828408482 261.37686075547344,905.9425059801212 260.9880138222138,906.3242815952759 211.11424400888018,876.8400596295029 210.51830331548217,876.5059609951928 193.86546007995594,891.751505953645 154.44162391997043,927.924583388936 171.9939123466388,947.2897076693258 166.77928564439162,958.7166679745784 166.28092077337305,959.3517566722945 147.20033282667964,979.2037633879587 145.44775455105218,980.4837212668277 121.85945488882817,973.1364632023975 120.90059039099242,973.1765193666575 108.57487078218355,1017.5299482649785 107.20677037325322,1020.2792968745122 95.90515999109584,1022.0337322222546 95.4493207022092,1021.9428385074494 84.99909577772587,1077.597827307974 84.38509627545818,1078.8052337893528 90.59470509328048,1082.51828190263 94.41559952891066,1083.188549205755 94.88075949330914,1098.7867543837997 94.86444831113431,1099.4943061009176 113.17491544000904,1122.3893199701338 114.3062124354542,1124.097062005581 99.22506811549056,1137.6137055044305 98.85486253325462,1138.4425588412919 76.07513147555392,1127.0991835549135 74.5992607555595,1124.159128755367 52.492948506587254,1145.4429389041975 51.10970199990652,1146.6679599273261 56.019659119985135,1172.7385064973273 56.38025275557402,1174.0978222026965 20.29088827557962,1193.1628762443793 19.356199279987322,1194.9222217965648 46.15721929781239,1190.5222577437303 46.95384578660696,1190.7520148489052 56.22500525331225,1199.9578375892957 56.725700293296086,1201.1443377109022 57.043768346636625,1225.2928722213614 57.34902047107562,1226.3681965220962 38.61125862223662,1247.409684588994 38.16823526213511,1248.221940460127 47.69891728889297,1269.7764120002753 48.519136737660574,1271.6699793782095 50.80211970661867,1312.3563756379076 50.709204222169774,1312.952692550934 33.76596368881974,1341.9720873553083 34.00101947549365,1343.5338906334723 13.754473271058941,1355.4510357433242 13.618449662207695,1355.999611388404 27.308483155538397,1400.391049357458 27.32799831996772,1401.0670828234647 12.4606469954374,1466.9521509877882 12.396567351046087,1467.5327796441047 22.298620044464315,1465.499899031805 25.14899913778163,1466.4483095621467 32.84001282658528,1479.2438167143623 32.83418740434672,1480.1275076296074 8.052549999999883,1542.5888773230613" stroke="#009edd" stroke-width="5.54631593036869px" fill="none" stroke-linejoin="round" vector-effect="non-scaling-stroke"></polygon></svg>