<svg viewBox="0 0 345.5135027733188 383.07007444226406" width="1000" xmlns="http://www.w3.org/2000/svg"><polygon points="8.052549999999883,63.89614223360661 25.116959315585973,80.48299404964894 25.675034764549764,80.99405476751383 22.09851679110534,104.28106765557425 21.393640702218818,107.30415768721252 34.93687355562679,126.8052676355943 35.20600806232642,127.25297213570559 26.599529271224583,134.08453074782267 24.718209164544078,134.8367029166326 23.030293075578356,182.48751335030067 23.03262324454363,182.58010274897208 53.0903455555449,201.7881666516547 54.20999170662935,202.4276536603935 61.92197691553838,222.7552291422395 62.811810160033474,224.3736587071104 73.42223419561151,222.576857962507 74.29051337784722,222.50867046052701 81.49248287114415,265.8404710974788 81.2376206489057,266.1560577298293 121.12020880901355,289.9673116325645 121.3945861955649,290.0955187037831 123.7672806667174,298.7046319221623 123.84475878228068,299.0088857067527 113.41841808890558,315.0055375340522 112.17527298673622,315.85007113926224 121.67624536003086,343.3780026591627 123.68339458676155,345.83950510560646 167.4192082755976,338.4743218957225 167.54620248007222,338.3881172273319 183.77845023116197,298.1119226648949 184.83081275560062,296.617277023826 202.9234090933819,323.29004092262005 202.95486637342356,323.3297610059741 250.81595280892316,322.7723250856867 253.32321453336726,323.66331914763543 263.0615728623011,332.84025624881144 263.1064286133983,334.3942311876232 251.4433507822464,336.1061634811118 247.06787615115854,341.75323337453995 251.9868626756138,356.1645152054622 254.8748157422301,360.0063703206612 265.158724862245,366.71512624467834 267.17344713779266,366.1438114518311 277.76668617779023,348.8637663474434 279.0873093956393,348.9996111542929 286.4486041867417,369.1880987994151 287.54902644453205,370.53829389971327 302.1658846133864,374.8586816492385 306.04940233773186,374.5391906818619 320.783934035549,351.18530186531245 321.27996873783513,350.3941592701955 317.2933410400069,336.29888478431496 317.67141094231147,335.6841619075054 332.5445876888475,337.26745344323683 332.7741093245345,337.3094276636035 336.2498474934614,327.3130167729465 337.4609527733187,326.0844214369787 317.162851582259,285.12473099886085 316.0312633155622,282.732518848126 321.98513609785687,280.74207363496646 323.4662496978194,279.15024615205004 316.6487580712196,260.7661908063816 316.01320450669255,259.74987581463176 292.14208059557814,244.65087826280035 290.2226039733282,243.83812787759928 275.93488216002106,251.52075582845248 275.38321467556625,252.26575092421956 245.5643346756474,220.56689821961447 245.88036383115787,218.09314569182573 224.54504621340993,220.79629918837566 223.50316944890756,220.54928671799246 208.74475351998217,203.82765399237508 208.529212897854,203.5851384486083 234.53972312002543,194.31470083367424 235.2349872622649,192.69920992429945 214.20200905783668,172.1375777255522 213.73306256891328,171.90135047058686 217.19977133346356,143.4700082324922 217.8239653244159,141.4290535701217 235.0523602756216,118.96193220196403 235.53412269333012,118.31994174930844 211.36852368896461,91.33069004360698 207.7585095378813,88.78905097567588 193.69273631121132,32.372859945847836 193.22145965343907,30.888597311429862 164.2155173244896,35.586317241169695 162.70585915560468,35.48462627953961 94.15170790217917,8.079218986422006 93.56392280010141,8.052549999999997 28.105983457855018,39.300490651373934 28.007533822302776,39.38590956896189 49.89131494225103,59.39832417228138 50.96610534223828,59.908530439402625 39.498470426747645,67.92977424662206 39.05195181337285,68.34054437574343 43.933946906683104,76.55759213006934 45.008737306670355,77.21190599769 39.00680479114044,84.29264953771019 38.79039035560663,84.52580859696138 21.778701111186365,58.40547472306173 21.121593484516325,57.864082906664066 8.052549999999883,63.89614223360661" stroke="#009edd" stroke-width="4.895819893294109px" fill="none" stroke-linejoin="round" vector-effect="non-scaling-stroke"></polygon></svg>