<svg viewBox="0 0 201.51459959110002 450.9175728348921" width="1000" xmlns="http://www.w3.org/2000/svg"><polygon points="8.05255000000011,233.074041668071 9.13491344892077,252.27499989645003 9.383950248920655,252.43249064198608 29.74816998231813,248.62340134665283 32.498934355658776,248.71301729177503 74.63858235567,265.0171915502651 75.43171359119128,264.873461697578 69.78396674674127,274.7768511920367 68.5667447733938,275.9554691968151 65.10149236451957,267.4863138865112 64.57807817785192,267.3527885720032 43.59403352006461,271.2436210970991 40.65044767116319,272.06605031531217 31.70289040901821,286.75215190547897 31.979597964534832,287.672551391217 16.23639440895181,282.5533074168852 13.0286256623001,282.77731285870686 15.848130017846188,301.68920801327477 17.019622426807246,302.3074977263823 10.072806426767556,352.15707643636415 10.099312097859865,352.3770205163528 38.84922712003004,386.1668811435011 38.9555410756509,386.3690567384838 44.33560976896092,421.98809568360593 44.52639234669164,422.35337128319225 64.55419394674368,441.99624290693464 64.7260439023155,442.30785160992673 123.86019615116652,430.5834381900859 126.41173108455382,428.5337075972129 131.68461200895376,420.5868326045238 131.73179792901624,420.51014189856505 118.23283828455146,408.88919806262857 115.6419817511703,406.88492920102 115.25633880004875,396.41952258072706 115.77188866664778,390.1912934928332 131.13673104890745,377.64518923781725 136.4352438312269,369.6942701208536 127.73410192898132,348.99269547951553 130.9782795645076,344.8429244178478 119.4153989956028,334.8628454519567 119.16024550222915,334.2109428315089 108.52215071113437,286.3866524453406 107.21812994671177,281.4301717634444 112.79393282670185,177.38765051528026 112.83704095122062,172.20816039844794 119.62482292459003,182.0549014037606 120.24144386672538,182.56657557682047 129.8114474934771,147.9915140828016 130.60749144011766,144.9387254018584 166.13441140458576,121.69700244910928 169.3509182844789,121.08087113875808 162.45128820450168,117.29926103741309 161.31649595566682,115.36736999909772 178.07827458668157,70.25655642475613 178.0007964712347,68.87881612280762 147.93404475562397,42.87196898714319 147.84782850681927,42.53359783770429 163.30034349344328,18.81169021657115 163.80628141339525,18.407554647339566 183.04153432008002,33.716670967092796 184.51944393778808,34.375232729864365 191.4406280801411,28.487629827031924 193.46204959110014,28.131473226974776 174.09892866676796,24.547671014828666 173.34890555564903,24.238582006109937 168.38069421341766,9.291658707581519 167.41483920891892,8.232865175617917 154.42909926232073,16.48812265884044 153.5147992445634,16.79811072108714 150.04430395560462,34.750474394451885 150.3084868533549,35.33220873369282 141.2377219111438,40.915448330728395 141.3489874755976,42.76850384815043 153.2252757600288,66.69297333746363 153.51712941341225,67.09213657197688 169.1275133422821,77.13358549591067 169.15227138679597,79.3148852427621 153.73703910233576,94.278385467107 153.19614864895243,94.90702210742893 155.20824948451605,117.26064113839675 153.54013983123127,119.60889630430756 121.7886760089093,132.37382380097552 120.5327149778384,133.73119424985634 113.09947622227605,164.41317860157142 112.523924506713,164.97504425360967 96.97558132452082,157.6440498959637 95.12426214232232,156.67783884958044 91.59755152892444,137.71492632191075 90.78199241785455,136.03888244162226 71.54848713786464,119.14945703818375 70.38515032010741,117.28194866973354 33.15778960890725,113.9854715937181 29.736519137841015,116.26318002845073 27.812673448912165,146.19127043223853 27.488779973449482,149.5618329940262 20.121077217838092,151.67495511999732 20.007772755670658,152.18270504431712 24.873165395670867,163.67866803360084 24.86034946676932,165.06780076816358 17.494685608987993,176.78143764931156 16.929037111207208,177.1409052154413 28.80503412450321,185.62417020780413 28.790761840042023,186.21660201546183 8.05255000000011,233.074041668071" stroke="#009edd" stroke-width="5.793118462267601px" fill="none" stroke-linejoin="round" vector-effect="non-scaling-stroke"></polygon></svg>