<svg width="451.3232105245115" height="416.86002983129583" xmlns="http://www.w3.org/2000/svg"><polygon points="5,204.45558731077472 5.041651768959127,205.74613520805724 5.377196089015342,205.78880895581096 6.0340124445501715,206.56097775726812 6.201784604461864,207.16739113954827 6.856270791264251,207.05868604918942 7.335120497853495,207.11034343356732 8.239517297944985,206.67821780859958 8.783611733466387,206.53717038279865 9.528100693481974,208.0801524160197 10.950086257769726,209.5620338160079 11.52156017778907,210.194491818198 12.37381944898516,211.19033995980863 11.054361315676942,211.98449978232384 9.780341475619934,213.28982636216097 8.647879395633936,214.51564042677637 9.435767751187086,215.20108715025708 10.454925368889235,215.57525211805478 11.537580088945106,215.91887244425016 10.508810524479486,217.84089045471046 10.279871431179345,218.60717758291867 9.838595697889104,219.58546991855837 9.724417422316037,220.7542046258459 9.681891840067692,222.15649838460376 9.625093973358162,222.83203964616405 10.013940906734206,224.47417116025463 10.812315022340044,225.39135195326526 12.045265635708347,225.973907986423 13.551719822338782,226.87985365313943 14.66321038233582,228.06382063147612 14.304364373441786,229.08069763617823 13.922216675593518,230.79958633589558 13.818232888937928,231.37494168040575 13.603857351234183,231.73829958611168 13.472785351215862,232.59257006499683 13.286663111182861,233.14097223005956 13.272973368992098,233.28424824535614 13.444823324447498,233.4913021334214 14.76107747561764,233.66736515553202 16.70123434672132,234.05272709327983 16.70822485338431,234.13986011815723 16.70997248007916,234.75877308176132 16.725701120099984,235.7244175397791 14.31514140451327,235.58698189049028 14.178535253391601,235.96964564122027 13.409579520113766,237.7576466392493 13.266565404599532,238.88406630721875 13.022480213432573,240.24672096141148 12.874223217833787,241.17326739360578 12.52994076453615,241.8801886982401 14.190768640022725,242.95359089545673 14.196011520107277,243.41843080200488 14.169797120033763,243.7516777420533 14.092027733451687,244.44332071801182 13.637062257854268,245.28047527145827 13.620459804544225,246.11493194033392 13.888720497838221,246.89549186977092 13.744250026764348,247.53233329800423 13.528126862249337,248.34881699283142 14.067852231208235,249.19044771796325 14.170379662304185,249.3328150291345 13.824932124465704,249.98941007559188 13.776872391230427,250.34330590616446 14.607577600050718,250.9037895045476 15.452263822313398,251.20603687613038 15.97101767116692,251.45349318056833 16.914736071252264,251.93717738304986 18.281088853487745,252.0961597012938 19.065481955651194,252.08268662798218 19.694918826804496,252.23313589999452 20.9205876623746,252.43927369010635 22.016349582350813,252.47115991055034 22.44044032006059,252.60993228043662 22.954533831216395,252.86187800910557 24.30224526231177,253.01816505356692 24.639245937927626,253.18523039179854 24.88041841785889,253.48657641909085 24.72546218673233,253.53507916867966 23.794268444529735,253.73852114041802 23.431635911227204,253.85349047137424 23.18114275566768,253.97789081238443 22.574133760062978,254.4759405682562 22.607338666683063,254.60707701556385 23.62737009790726,257.13592925987905 23.95563264004886,258.2676384515362 24.267292728996836,259.23722116451245 23.113859129021876,260.07611557783093 22.618698240141384,260.68552454945166 21.761196088977158,260.7632162126247 20.81747768900823,262.63095143577084 20.983502222341485,262.83573220914695 20.855051662307233,263.0441054314142 20.401833813404664,263.31714590557385 19.746473813429475,263.4276194219128 18.949264782248065,264.27637750760186 18.955090204486623,265.0698959841393 17.095906702335924,265.616869696707 16.730361457914114,264.6235141272191 15.589452515705489,263.8353829757543 13.355985635658726,264.222937280545 12.425083164474927,263.963819356577 11.37650716456119,267.85280141432304 10.789887146791443,271.44174074567854 11.723411057842895,274.0197951688897 12.882087537902407,276.5821024517063 15.093709084554575,279.8004365264205 15.042154097813182,280.82650352618657 16.83987939567305,283.399957228743 17.202511928975582,283.85258738626726 17.57504768006038,284.0241196026327 18.39584967121482,284.91770149138756 19.350345102371648,285.7214730443666 19.8216217601439,286.9585570237832 20.557663857820444,288.4075753725483 20.49474929785356,288.72009868209716 20.684075520024635,289.2984452410019 20.823885653400794,289.6617071676301 20.930199609021656,290.28989293589257 21.171954631223343,290.68368681368884 21.33361009787768,291.0887055489002 21.738768213428557,291.7528089291882 22.33878670237027,292.44205540861003 22.690059662330896,292.98357262136415 22.978709333459847,293.23412490892224 23.23182392900344,293.43214183696546 23.69698389340192,293.6858367329114 24.28243882674724,294.4024671012303 24.70303431118373,294.70555254857754 25.616460515651852,295.4913276832085 25.821806648978963,296.0126318046823 26.153855715645477,296.5595283363946 26.951356017845683,297.0071922162897 27.555161031195894,297.2833334717434 28.507908835657872,297.6223356757546 28.69344853342045,297.7732027132879 29.996012942283414,298.47949255321873 30.41078300459776,298.6097046720097 30.56632177787833,298.6222768724547 31.48353450675495,298.58231523277937 31.47916544007603,297.8122664828552 31.40634766232688,297.4764076389838 31.142456035595387,296.9793535663048 30.941770240082406,296.78807500516996 31.353627591161057,296.3350225360482 32.1004467200255,295.7014659277629 32.732796302298084,295.31217120040674 33.10824476450216,294.53896785824327 32.780273493379354,294.0248444986064 32.16190492454916,293.48288083972875 32.06025130674243,292.962917760422 31.93529600009788,292.497733857017 31.549653048976324,291.7447265472729 31.237119146739133,290.7155674729729 31.25488668459002,290.5314678273862 31.367899875622243,290.24948075343855 31.571789653389715,289.94234792271163 31.785873920074664,289.9598598938901 32.276374471141025,290.26564562728163 32.700173937832005,290.3590426532319 33.2212579556508,290.65270419674926 33.486605937825516,290.7110772395972 34.61266005341895,290.5292227087775 34.8753865956096,290.34063266572775 34.96218538680114,290.13812270079507 36.020082062343135,290.3666760622873 35.98425571562257,289.8377250912599 36.199796337867156,289.3128140801564 37.49915676447563,288.90599595662206 38.3246190934442,289.1385918415617 38.441418809001334,289.03351959970314 39.49611150228884,288.64690719987266 40.72993592894636,288.38242979953066 42.16036835568957,287.7677094483515 42.78339726221748,287.28275718842633 43.75274752010591,288.26792760030366 43.291956622269936,288.8480714604957 43.73410616896581,289.2908117947518 44.07343701343052,290.37161532678874 43.82614784000907,290.8269252324244 44.06994176004082,291.9400506953243 44.83103317336645,292.45956718025263 45.06317624892108,291.696232249029 44.99793152010534,291.1389960712986 45.60202780459076,290.6491120089777 46.506133333430625,290.09636341646546 47.39887928892858,289.6697896263795 48.96446151123382,289.22166174062295 49.49224476458039,291.30109312327113 50.45518705784343,290.8251291399356 50.84432526223827,290.5274266139022 51.07326435553841,290.46321621217066 51.417255537817255,290.5458365858067 52.08310129784513,291.29884801252047 52.299224462360144,291.68859888630686 52.51651271118317,292.30196118564345 52.71049927116837,292.5659848389914 52.72331520006992,292.97683734074235 53.10371527122334,293.7352286254172 53.64518826676067,293.7913557626307 54.792213902343065,294.3283794837771 55.0692127289949,294.7347385324538 55.245723022380844,295.7584905875847 55.660201813443564,296.7651754479157 56.09099178679753,297.6304178411374 56.62430919113103,298.1193882909138 56.701787306694314,298.3106656909222 56.895482595660724,298.91188629111275 57.39122602669522,299.6311936113052 57.68511857779231,299.70976948644966 58.15872540452983,300.5431210353854 58.7351509333821,301.79448942269664 58.08386872895062,302.28928758285474 57.63065088004805,302.41590544441715 56.829364053322934,302.6592629731167 56.69421425787732,303.02699274849147 56.63799893343821,304.05878801993094 56.79295516444836,304.381615917664 56.96451384888496,305.1013542901492 56.99422350234818,305.57189937261865 57.57006648904644,305.29442157398444 58.0311486577848,305.10898718598764 59.00108145782724,305.15747851808555 59.56469105789438,305.2073168203933 60.653753742342815,304.9904527735198 60.78715591120999,304.9729420025833 61.85990741336718,305.03625016775914 62.99906872899737,304.9136747675948 63.45024768006988,304.914572756039 64.1475507201394,305.09866032679565 64.80727978679352,305.24323631066363 65.23661340458784,305.51128532039 65.22874908451922,306.1605282976525 64.5649422223214,306.5920089088031 64.87223324447405,307.26324917085003 64.91475882672239,307.6888907607063 64.67242126225028,308.15359345194884 63.969001529039815,308.0848983335309 63.91278620448429,309.0116071376251 64.41435505787376,309.7717389065074 64.67009109340142,310.4721533250995 64.88883569778409,311.1532593034208 64.78019157343078,311.24081067659426 63.76307285344228,312.38122024101904 63.3951974400552,312.7121174967033 62.8627538488945,312.58101579430513 62.26972586673219,311.73873038508464 61.591646720073186,312.2379959009122 61.52960597339552,312.9316677747993 62.23506460455246,313.9306412137812 62.61954247124959,314.2772502603475 62.87061816896312,314.8348766184645 63.281601706752554,315.3274004913401 63.30140814231709,315.4692758957972 63.12897564447485,315.99771607265575 62.94663992896676,316.25003795081284 64.24192256003153,316.72235499240924 64.06832497788128,316.8655764037976 63.44180081784725,317.671475705225 63.02062279114034,318.10742334090173 63.561221973388456,318.7651593796909 63.748218026710674,319.18314623995684 63.86763918236829,319.79283993085846 64.03803278226405,320.1183384459 63.70977024012245,320.89728810312226 63.68122567120008,321.6546849150909 63.7863745422801,322.56427596969297 64.35843100456987,322.6271300986409 65.33943210670259,323.00156075076666 65.79352376901079,323.0630678831367 67.19570289785042,322.8749547745101 68.5844835556345,322.44305724150036 69.45276273787022,322.3757134746993 70.30007040011697,322.3779582672287 70.74163740454242,322.2971457205713 71.22864270233549,322.3487759621348 71.5569052444771,322.3999572331086 71.8440985600464,323.3104431097745 71.74827036447823,324.40230284503195 72.17964288010262,324.981902165222 72.72810638230294,326.2250499947695 73.15307093341835,326.68701971072005 74.60156216903124,329.0592570344452 74.99972977780271,330.7095720283105 75.74742272007279,332.0860222064657 75.91373852454126,333.8817693993915 76.24374869337771,334.635529902298 76.3025854579173,335.30399074195884 76.56880725338124,336.0272190803662 76.62706147565041,336.70420533278957 76.65385841787793,337.19039509876166 76.48812515567988,337.74437178252265 76.71735552011523,338.8132644922007 76.95357639121357,340.7413883142872 77.15775744011626,341.9130687826546 77.77816490677651,342.8598358989693 78.28264647128526,343.8416142676724 79.45763413340319,345.21887985337526 80.1100814222591,346.46415752358735 81.7639187911991,348.5708783050068 83.17774876451585,349.7308454812737 83.87010019563604,350.36020590981934 83.95631644444074,350.2439404602046 84.337881600135,348.0079508466879 86.01181667554192,346.0466715655057 89.81203086231835,344.50645574269583 90.11495281790849,344.5414709704928 90.86876245343592,344.85795450618025 91.86112312891055,345.4348063006764 94.6118875022512,345.69382797484286 96.2328112355899,345.85319124447415 97.62945621344261,345.8917975402437 98.63317646237556,345.85139560262905 100.743144391221,346.04846720572095 101.55025664006826,346.12388408218976 102.60378424893133,346.6365385906538 106.5773047467228,347.26052100770175 109.55700821348,348.1812285116757 111.0401607111562,349.16836990386946 112.01242368016392,350.4230520730489 112.7944866133621,351.353173184325 112.83293440006673,352.56474877428263 112.94507377780974,353.03294755215757 113.46965304901823,353.2645776421996 113.5465486223111,354.1551840819884 115.45291804452427,355.2190590100363 116.5979047822766,355.23073018318973 117.88590563565958,355.0242401053547 119.89363740454428,354.5950992348953 121.58009713783395,353.7677886807942 122.5133297778666,353.4899229601142 123.5190889245132,353.32697407808155 124.01861888007261,353.52089670090936 124.63145329779945,352.30797970097046 125.55187000893056,354.6081171188853 125.87780238233972,355.67154095968 126.88851313781925,357.92495899053756 128.07777308451477,360.30718271801015 128.81760170671623,361.56673882965697 132.72267349343747,364.0813406218658 134.18631082668435,364.4557005082024 135.15420472901314,365.0325007610372 136.03034823120106,365.7493468989851 137.07280753785744,366.32389940705616 138.95878798235208,367.4568407239858 138.46595726232044,369.0606339376536 138.15983132447582,369.68051280721556 137.98710755561478,369.9695795449079 139.22733994678129,369.27788350189803 139.80842581333127,369.29359368933365 140.48854385782033,369.2379347345559 141.228663751157,369.08801457635127 142.99464049784,368.7630375943845 145.03412081790157,368.86178755701985 147.04971690673847,368.97938972717384 149.3906628267141,367.96226352843223 152.4117267911788,365.8804168223869 153.3761254400015,365.58012294367654 154.0431362845702,365.3444660244859 154.4715960889589,363.64099562121555 154.6166491023032,363.26124784647254 154.53654954675585,362.90080106438836 154.58810453349724,362.1767635837896 155.15783082670532,360.94728590821614 156.68205255118664,361.1147179211257 159.7613707378041,360.93606391875073 160.17963605339173,360.81621303677093 160.19594723568298,360.7412500921637 160.3008048356278,360.6775091252057 160.62673720892053,360.11326609540265 160.8035387734417,360.0154099568608 160.4167307377793,359.16792010481004 159.88457841787022,358.0362826278433 161.50637596449815,357.016861242475 161.65375914680772,356.92214593698736 163.1954571378883,355.98755954543594 163.98363676446024,355.48345581814647 165.67067904002033,355.0354623972089 166.33798115560785,354.96633307042066 166.99741895124316,355.58221175987273 169.5696341333678,356.23938652989455 172.04806001787074,355.00134662823984 173.22566912008915,355.1494808496209 174.53755420446396,355.267090372392 176.00002645340282,355.9606261609588 176.9749108622782,356.0189818231156 178.18688995565753,355.2751704136608 179.19963960896712,354.76343388151145 180.37812252459116,353.9320839170832 180.9385281422874,353.04012988426257 183.24597788450774,351.45507327874657 184.70320725336205,351.7064565689652 186.05150122672785,351.55113764153793 187.13240832008887,354.18077100778464 188.2433163378155,353.6156134750927 188.9659599645529,354.52148084220244 189.5441331201,355.84705702017527 189.6661757156253,356.26272876688745 189.85754083562642,356.9360614584293 189.86482261342462,357.26778927096166 189.74336256005336,358.1812726028729 189.78297543118242,358.70287661231123 190.01861376001034,359.38248617143836 190.02676935121417,359.73485885886475 190.01395342231262,360.04862718307413 189.89511480904184,360.30269390926696 189.513549653464,361.011475676205 189.44801365339663,361.46798558253795 189.2487842134433,362.4851418978069 189.39937137789093,363.5440388051211 188.2628315022448,365.1765883695334 187.1522147556534,364.6065215767594 186.59588693338446,364.3331583135878 186.44966883561574,364.254605588736 186.47238798229955,364.39285836578347 186.6640443734359,365.6752833802602 186.40277418668848,366.74044903425965 186.61831480893306,369.7774669107748 186.45083392015658,371.0239517305163 186.4514164623106,371.91852577473037 186.4106385067571,373.39660725730937 187.2599850667175,375.25395759765524 187.30658844450954,376.9429747144459 187.21629440016113,377.60412509564776 187.219207111164,378.5588173435535 187.2043522845488,379.62616464076564 187.19852686231025,380.21818556578364 187.73854350228794,381.9888527157018 187.84427491563838,382.4852653259295 188.21681066672318,383.0225207458134 188.32807623117696,383.2850887053646 188.835470506805,384.30214385222644 189.3090773334261,385.3515100184595 189.39995392016135,385.54944379243534 189.2939312356757,385.8963885027333 189.3612148623215,386.29629433801165 189.7561784889549,387.1876643167343 189.90967836452182,387.3326350231655 190.25599971564952,387.630206173053 190.74970424897037,388.00946293585 191.8122612623265,388.76213979994645 191.99372316454537,388.38153786829207 192.68345315556508,386.42824963876046 193.00152120890561,385.63113069470273 195.04304042668082,386.7491610085126 196.10996650683228,386.6356078082463 196.71668423118535,386.72357788152294 197.23106901347637,386.947542347596 199.08675726223737,387.7684442169848 201.66275896900333,389.2064737667097 202.1127728356514,389.7289016430732 200.7306914133951,391.46134256909136 200.59699797350913,391.62022377213 199.9410554311471,392.36750246339943 198.3390643200837,393.53217498748563 198.0110930489609,394.0729938452132 197.8211842845194,394.8952154791914 199.32676465786062,395.19546922686277 202.80628935119603,395.9032406350598 206.15911111119203,395.43827502120985 206.6499029333936,395.3328048847616 207.41856739565264,395.1631549418671 207.95974912005477,394.74441523558926 209.0823079823749,393.8669891428435 209.6333929245593,393.3674605974229 210.67963875562418,392.53760338335996 211.7002527290024,391.59149949537823 213.46156913787127,390.40437570406357 213.9730412089266,390.1265563919442 214.51946581341326,389.8357209353708 215.72212423116434,388.9156370902201 217.11236124450807,387.4004076735582 217.39023388456553,386.9969132412225 217.84665571560618,386.2689158472349 218.13734428444877,386.78596479987027 218.32201016903855,387.1575929817045 218.88620231114328,388.1723860539496 219.38136320014019,389.7096023536287 219.7923467378132,390.40751743898727 220.18294129776768,391.2176347372588 220.75150250678416,392.53760338335996 220.8752927290043,394.48096337076277 220.94053745793644,395.1505882742349 221.1854964622762,397.80034398275893 222.52097450674046,396.80668934306595 223.1000214755768,396.49072956235614 224.03762318228837,396.04955200478435 225.07542215124704,395.62901875621174 225.8784566045506,395.3758905635914 227.25995548453648,395.18783946550684 228.1923143111635,395.3099156144308 229.58371640893165,394.6658734009834 231.4137728001224,394.0029791968409 232.10554168897215,395.1101954090409 232.60944071121048,395.9386964667938 233.41422279120889,398.14996213745326 233.84792547556572,399.4622594566317 234.51144106674474,401.3727959304233 234.61862883565482,401.65957692463417 235.3628265245352,402.6868691460695 236.61587484448683,404.10550287622027 237.9560132267652,405.14041305868886 238.59768348443322,404.8217725426657 239.23527594679035,403.8510380896041 239.4490689423401,403.4282758338377 241.89807644451503,397.610499745002 241.99885624903254,394.6393935761298 245.09768960007932,393.7812659962801 246.7165744357044,393.7381800041767 248.25652480009012,393.52499398123473 249.6377324089408,391.2118001081981 250.79495253344066,389.67818490206264 252.498888533446,387.2926895439159 252.72025457781274,386.0220604487113 255.36208355566487,386.6356078082463 257.0063089778414,385.6279888913268 259.32162304001395,389.3846559227677 259.36910023121163,389.9784457909409 261.77237816900015,391.0955563109601 263.75098282680847,393.35713789315196 265.0684020622866,394.6007958595874 266.10416213341523,395.26189301983686 269.3996034845477,396.25420823541936 270.1968125157291,394.86828687181696 272.57620622229297,395.92792507552076 273.6064321423182,396.61190737294964 274.40771896892693,397.86990861513186 276.11019861337263,398.21414101932896 277.9038461156888,398.5287519097328 279.79594325332437,399.0677632424049 281.4998792533297,399.6323548749788 283.95995505782776,400.73191310471157 286.34284401789773,399.2010572644067 286.970824533375,398.8186782365665 288.47902634670027,403.43231496750377 289.0047707023332,405.0075714350678 289.84945692447945,406.98268471471965 292.6747867022641,408.23030447924975 292.86236529785674,408.2231239541434 294.1422105601523,407.5059678251855 295.3935112534091,407.3924253694713 296.4228633600287,407.65541294403374 297.3726984534878,407.6998425544007 299.0775082667824,405.96887623425573 300.7365885156905,404.35054276220035 301.32961649785284,403.82366178988013 304.02649571560323,401.430241918657 304.5062192355981,404.3487475991715 306.0557815467473,404.7620834930567 307.8357393067563,405.34999748377595 308.6859596801223,404.82895317912335 310.6333983289078,402.72277267539175 311.4020627911668,402.0491317277774 312.86395249783527,402.1496618872625 314.29729763569776,403.29947230947437 315.0333397334907,405.34371444181306 315.0377088000532,406.4499758405145 314.89294705784414,407.4346111108316 314.5897338312352,408.46142750547733 316.40639175113756,408.9811168385204 317.12554012448527,409.16332196071744 318.5125731556909,409.5088829838787 320.871286613401,410.0496624535881 322.4502673067618,410.38804162619635 323.87866083567496,410.7300104985479 327.8213065956952,411.03158890421037 329.8476797156036,411.17115853197174 330.72586211562157,411.3044451997266 331.39199914666824,411.4215758409118 333.4804130133707,411.8541957511916 335.50503850670066,411.86002983129583 336.78692266670987,411.53691131528467 337.9584150755545,410.38804162619635 338.42503139562905,409.17499026400037 338.8444617956411,408.30839267460397 339.12582968897186,407.45121613447554 339.42001351120416,406.6429539308883 340.411500373506,404.90075953066116 340.88714609784074,403.9264350942103 340.7257819023216,403.2101625042269 339.7278870756272,403.5682990915375 337.8384113778593,401.8525592292426 337.68316387559753,399.09020331903594 337.6039381334558,396.66037847846746 336.4976904534269,394.39613808644935 336.3328310045181,393.74266812880524 337.6336477866862,393.1264477657387 338.31289201788604,392.8939621390309 338.83834510226734,392.7409164471319 339.8805131379049,392.39936834498076 340.9372447290225,392.3450616989285 341.30482887115795,391.99767837219406 342.41864960012026,390.16291079687653 342.4434076445177,390.2190132618416 344.5877455645241,388.17014193465 348.16193336900324,384.7577076248708 349.1513813333586,381.6975576321129 349.78314837336075,379.5902573307394 351.9228259556694,378.56420346570667 353.63433500449173,378.4111477752449 353.6288008533884,380.9533844598918 353.27345009776764,382.86497981927823 352.6457608534256,383.8946042272728 351.67874076450244,385.2428932230687 351.4046546489699,385.70698279107455 350.97095196449663,387.20965678297216 350.1976271645399,389.6337516414351 350.0225732267136,390.0587845838745 350.1731603911612,391.5174447019235 349.7968381156679,392.7252079390455 349.9666491734097,395.6896079079015 350.7315271112602,397.2474165725289 351.4200920178555,399.62921327212825 351.76466574228834,400.9666344129364 352.88664206233807,402.47144784696866 354.87835392006673,401.99213469726965 355.6741065956885,402.02265279425774 356.2522797512356,401.9432159741991 357.81058019562624,402.48805324628484 358.79012494231574,402.7137967935996 358.99547107564285,402.20710767200217 359.2884898134507,402.1810775527265 359.3927648712415,401.9620653917664 359.18159331555944,401.53481153037865 359.42742613342125,401.5177572623361 359.4510190933943,401.39613336487673 359.3181994666811,401.33195541403256 359.410532408976,401.08018019463634 359.6295682846103,401.0586379164597 359.641219128971,400.89258278452326 359.77753400895745,400.8795676472364 359.82617628457956,400.70678040670464 360.2674520178698,400.6847892936785 360.32949276454747,400.46308284660336 360.13521493342705,400.148025931092 360.24356778676156,399.9285629404476 360.3641540267272,399.1902860333212 363.86348515562713,400.7965400291141 366.4030779734021,401.7933181677363 367.75981880899053,402.5625531304977 368.7716946490109,400.85802534932736 369.81706666678656,398.35326999938115 370.72670634672977,395.48988804826513 372.3630674489541,391.8365533608012 373.6828168533975,388.9533381626243 374.8583870579023,386.3375864814734 373.6816517689731,385.79046494944487 371.7254749867134,385.98256355919875 370.0133833956206,386.51577096793335 367.6770978134591,387.26845295750536 367.90254165348597,383.3726112887962 368.2870195200667,382.1356222030008 369.7215297423536,381.0593103490537 370.3369856000645,381.24961775005795 370.37222940451466,381.83535057806876 370.62126620451454,381.9924434076529 370.720007111202,382.20384529512376 370.78175658674445,382.72359684004914 371.4691564089153,383.1158782785642 371.44789361790754,383.49020567908883 371.7869331911206,383.5709956816863 372.591132728965,383.0763808657648 372.8995888356585,383.3595951118623 372.8745395200094,383.543616850744 373.5406765511725,384.04271893622354 373.8756383289583,383.8829345792765 374.096421831171,384.2913718895288 374.4782782578841,384.6131840477465 374.6530409245752,384.44083282508655 374.7107126045739,384.70429674873594 374.9230492444476,384.647295211209 375.30694456899073,384.867671152344 375.18810595560353,385.00860391923925 375.38617031113245,385.1261974325171 375.4802508801222,385.00680859794375 375.7755997867789,385.1495365955634 375.7855030045612,385.3129106676206 376.1513395201182,385.31650130520575 376.225613653427,385.56739696039585 376.553876195685,385.5992638298776 376.85009891563095,385.92421586846467 377.0309782756958,385.8622775336262 377.1786527290242,386.06559678469785 377.58788864000235,386.02789521589875 377.4699238401372,386.2828295069048 377.70264945784584,386.3573348951759 377.798477653414,386.5494330084184 378.1098464712268,386.6104734950932 378.27295829344075,386.91163623612374 378.2167429688852,387.1535535483272 378.50044103118125,387.1674671518849 378.92482304002624,387.4075888802763 378.92831829341594,387.75542830099585 379.1881321244873,387.70785287726903 379.2554157511331,387.9107215933036 379.5452305066865,387.92373750003753 379.53183203563094,388.07544008095283 379.6763025067048,388.0561406459892 379.8799010134535,387.9084774713265 379.9879625956528,388.05075475689955 379.8848526222864,388.39949080441147 380.1737935645506,388.8411325709312 380.2375819379231,389.3361832095543 380.3604983467376,389.6328539997339 380.55623253341764,389.6983818357112 380.7146840179339,390.04576880380046 380.88332999125123,390.0013356176205 381.2354767645011,390.1436115456163 381.56665201787837,390.7724072074052 382.0714248534059,391.9321512230672 382.395900871139,392.45322616252815 383.9533275022404,391.4976967527764 384.7854890667368,390.9474463642109 386.03329450672027,389.7796183723258 386.5706897067139,389.28052934032166 389.50145962671377,387.7706883403589 390.3484760178253,388.12570836854866 391.3236516978359,388.16789781535044 391.61608789348975,387.77203481434844 391.9140582400141,387.1311122504994 392.57757383119315,386.2855224731611 392.9489444978535,385.46641037164954 394.01994837331586,384.5992702821968 396.037292088964,383.38921813393245 397.6113211733755,382.54092091927305 399.09272604447324,381.51667620660737 399.96071395569015,380.816937476513 400.5217021156568,380.18542023410555 400.4847106845118,378.93853863398544 400.6070445511723,377.42234260292025 401.0241447822191,375.8150197354262 401.1875478756847,375.28717251622584 401.72581688896753,374.0923299859278 402.6039992889855,371.1859897482209 404.33036316453945,370.5867626867257 407.1216142222984,370.4350480099092 406.8810242845211,369.6463993161451 406.92005461337976,369.05120781529695 406.7088830578141,367.91737700323574 405.319519857876,367.7508479144308 404.26715733343735,367.7337910195347 403.2849911467638,367.84376308199717 402.5361331200693,368.0515876862919 401.0084161423147,369.00228174531367 401.5787249777932,367.9663033152465 401.6952334223315,367.6956374339061 401.7840711111203,367.15206033497816 401.8394126222702,366.4284857563325 403.97326478222385,364.8614807664417 403.68548892450053,360.5540670589544 404.1017153423745,358.7360940373037 404.8322232889477,358.7351962691173 405.46719431120437,358.66023261332884 406.05963975121267,358.5516025996185 406.6462597689824,358.3998795977677 407.6686213690555,357.82440856000176 408.86691072012763,356.0706041266094 409.506542080082,353.50608317321166 410.3829768534051,352.0045249539544 411.00629703118466,352.3142642623279 411.943607466761,352.6257987195859 413.6609419378219,352.694479887723 415.2209900090238,352.9422705897596 415.87431111116894,352.98626238806173 416.14956231124233,350.3898333889665 416.52617585787084,348.7297905795858 415.89324373344425,347.0598592298338 415.41322894231416,343.5614913951722 415.68906268454157,343.51211072359 417.19755576900207,343.021445809165 418.097292231163,342.3175439967308 419.13800391124096,340.7988501844229 419.311310222256,340.6857221132377 419.4225757867098,340.65878684958443 420.16560839116573,342.6694951853715 420.6814495290164,345.5025918983738 421.05573290679604,347.07601991668344 421.35020800004713,348.9654653510079 421.4868141511688,348.895885206759 422.45383424009196,347.8405088278232 423.27259733341634,346.337116181734 423.72290247119963,343.0905789009994 424.6639994311845,340.51692773995455 425.53781276452355,338.73156015144195 425.68665230227634,338.14526327495696 426.246475377935,336.9062233719742 426.4850264178822,336.59691123187076 427.0698988089571,336.34955099166837 429.219479609048,336.41240116988774 430.88729799119756,332.13360969675705 431.86626019561663,332.83485057321377 437.5643969422672,339.0516434662859 438.21101880900096,340.5968357307138 438.03509105788544,343.20909272215795 438.7073447823059,343.30112045572605 439.8211655112682,344.2568598546786 441.6512219023425,346.0646279671928 442.0091940978309,346.1647348793922 442.61037767119706,346.46999334322754 444.2694579201052,347.414496251964 445.71328881790396,347.7601545697544 445.97018993785605,346.214114953822 445.9279556267429,340.94070911163 446.18281784898136,339.78338898113 446.24544113792945,339.0247080019908 446.3232105245115,338.0514376722276 446.2914619734511,337.1674997600494 445.89242055115756,335.33766064303927 445.6661028978415,334.3998397316318 443.1195195734035,335.1764940030407 441.333736391156,335.33766064303927 440.08884366229177,335.86695080879144 438.1265501867747,335.676155094814 437.9185826133471,334.9017472572159 438.0869373156456,334.55382400518283 437.3902168178465,334.28715729381656 437.22652245347854,334.38592278026044 436.87612330680713,333.6258763227379 437.0281668268144,333.5140913587529 436.82544213335495,333.26717657758854 436.9125321956817,333.01532321446575 436.55659889779054,333.1113956545014 436.40426410676446,332.5722222105833 436.9868063289905,332.61217765696347 436.38474894233514,331.6765897880541 436.09813816903625,331.72776888211956 435.918132622377,331.2680544859031 436.3008628622629,330.7351616896922 436.6967003023019,330.7140614427626 436.4211578312097,329.17328899214044 436.0550300445175,329.32188960403437 435.7990027378546,328.97934483969584 435.99735836451873,328.7647490267409 435.7457001245348,327.91219998832094 435.9737654045457,327.3950122266542 436.84787000890356,327.21049442276126 436.86563754675444,326.29104572802316 436.61951345787384,326.30406529211905 435.501323662349,324.5661711273133 434.93596643558703,323.9713062305236 434.29109219566453,323.9448178692837 434.90683932451066,322.2904113403056 436.3381455645431,320.4294696783181 437.42866460455116,318.85225874814205 437.80586069333367,317.7015565688489 437.89702855120413,316.9167589544086 438.0214013156947,315.47601048555225 438.12509383121505,313.97149800811894 437.99110912007745,312.5213016368216 437.9695550579345,311.70819972315803 437.8297449244419,310.82280867767986 437.2821552356472,308.57115155190695 436.6672819200903,306.5489057849627 436.6224261689931,304.66044185566716 436.6075713422615,303.0929954635212 436.63582464004867,301.9381695842603 433.4149486933602,302.1078916537808 427.0439756800188,302.3490045266226 425.22760903125163,302.48460233875085 423.01686129777227,302.582933149999 422.43490161781665,302.6228940606816 420.3208558934275,302.73738876450807 417.41688291565515,303.0696475665318 415.7531423289329,303.16573312622495 415.6500323555665,301.4932097783312 415.62556558230426,299.8251637206413 415.15283256897237,297.083074969938 414.86505671113264,294.95789892738685 414.77592775120866,294.1837963035796 414.3337782045128,292.9593256105436 413.75851776008494,291.55030026845634 412.92489984002896,289.8273975129123 411.9756472889567,286.7070995023241 411.53524536895566,284.2073266383959 412.1070105599938,282.9863925476675 412.8433439290384,282.5934829262551 414.6955369245261,283.16061967459973 415.89673898671754,283.83103359048255 417.7064064000733,285.07127147947904 418.8091588267125,286.235166839906 420.88475676451344,288.6540916408412 421.48419271118473,290.39676067163236 421.9007104000775,292.14929430221673 422.03207367123105,293.33650103013497 422.3955800178228,294.62248472694773 422.47597084450535,295.6498294119956 422.70024959999137,297.1603047277313 423.1004561067093,298.32099286979064 426.74833550222684,294.8469922806253 430.39708871115,291.4326565703377 431.89247459569015,292.53185935068177 433.3252371911658,293.41013996489346 434.70906624000054,294.40965135372244 436.1450328178471,295.2493092418881 437.54371669341344,296.63720728980843 437.48691882682033,293.8807101350976 437.56235804455355,293.37736166163813 437.46245205344167,293.3665852320846 437.29147591115907,292.8304571934277 437.0016611557221,292.5332064095419 436.78757688892074,291.85563476302195 436.8968035556609,290.93693586660083 436.84029696008656,289.88083149993327 436.923017955618,287.8489837499801 437.0386525867507,287.2311186901061 436.69000106677413,286.18577325803926 436.7368957157014,286.13144030503463 435.791138417786,285.2351691551157 434.3909981867764,283.96305055666016 432.2784088178305,281.5054563804297 432.0471395555651,281.2800370812183 431.51702613336965,283.1556802475825 430.71573930676095,285.170508168987 429.86930545791984,287.14580288366415 428.5620807111263,290.14126587240025 426.6565851023188,288.38871619303245 424.10359381348826,286.29309202637523 421.0172851200914,284.22079773794394 418.4240984178614,283.11841002252186 422.8388946489431,283.6119032124989 423.3492016356904,282.99267909594346 426.2324943644926,283.1844187300885 426.23744597344194,280.94505100144306 424.82973269349895,280.24903271137737 423.91630648903083,279.7609205022454 421.3778787556803,278.57723265653476 419.44704256008845,277.71371127828024 418.6553676801268,277.3652482301695 416.8194858666975,276.7478026805911 416.5908380445326,275.41680868779076 417.1917303467635,273.618337371503 417.41863054235,271.40357040363597 417.948161422275,270.27058181527536 418.64226048009004,269.0863936684327 420.8940774400253,267.70236285973806 424.2282578489976,266.5078321658075 425.576551822247,265.8265874988865 425.040030435659,264.7178202289506 424.2614627556177,262.809685542481 424.10708906676155,262.26450115343323 423.62328775110655,260.9248866373673 422.8275350757176,258.5020631967345 421.36477155564353,254.996893114876 420.52270677348133,255.27443456975743 419.0986823112471,253.28358331357595 418.88139406230766,249.52727874642005 417.89806279120967,245.27239117620047 417.4894094223855,243.09820786083583 417.4591172267683,243.02006081689615 416.9793937067734,243.44717449339805 416.39539512898773,243.55002298310865 414.58951424004044,243.3330979461898 412.852373333415,243.46019897726364 410.47676615114324,243.49073914339533 409.6714015289908,243.55316682264674 407.9945537422318,243.73461119952844 406.97860010678414,243.58595257508568 406.4216897422448,243.3658837316325 406.3590664534131,243.41932904243004 403.89403904008213,243.42561672528973 402.17437440005597,243.45166569476714 401.41066154674627,243.47951114166062 397.64044828456827,243.01646784867626 397.3855860623298,238.16590706800343 397.30490396451205,235.2141984863556 396.31370837334543,231.07940415106714 395.5590249245288,230.0468162514735 394.9852208356606,229.32278912549373 394.6493852445856,228.6917337558698 393.71382243558764,225.51711591565982 393.44876572454814,223.9046367876581 393.13302784005646,221.4558017916279 393.1006967467256,220.61586125765461 393.30808177788276,218.19259232387412 394.8157010489376,215.0398321833345 395.0000756622758,213.99773594364524 395.1500802845694,212.58685551187955 395.48329443566035,211.07175476208795 395.3915440356359,210.14822542108595 394.92871424008626,208.52754779544193 394.814244693378,206.34266852901783 394.77958343119826,204.8171930394601 395.1547406222671,204.80731065478176 395.72534072888084,204.8639097608393 395.3889225956518,203.43814687395934 394.99570659559686,200.52415336517151 393.30808177788276,196.9654979952611 392.86797112890054,195.38200805487577 392.6058271289803,194.88202715304215 391.9385250133928,192.88119369430933 391.81706496013794,192.92431917024078 391.6551182223484,192.62378833338153 382.02744291559793,196.33884164184565 381.17460110236425,197.38102182967123 380.1869007644709,197.85089972487185 378.69821411569137,191.2109734225087 378.2272287289379,189.14721406821627 378.3842238577781,188.22538928926224 378.21353898674715,186.70562779076863 378.2449962667888,184.49357655883068 378.16577052453067,183.5151276056422 378.02683420456015,182.79678695759503 377.61759829346556,179.2095409236499 377.5704123734031,177.90086660976522 377.14137002674397,175.24081485555507 376.70417208899744,173.43523186264792 376.7097062401008,172.3866480998695 376.1262902044691,170.6165338800056 375.8353103646077,169.25389560731128 375.2644189867424,168.23943668743595 374.981012195698,167.80993007903453 374.5120657067746,166.79052242683247 373.78097521781456,165.08236376277637 372.8328877511667,163.45641078497283 372.48365368903615,162.61759584222455 372.1125742933946,161.93018752383068 370.73398812452797,158.5596091300249 369.9594982401468,155.8319276991533 372.404427946778,155.3013041257509 376.3263934578281,153.24529413465643 376.8929157690145,151.18162660044618 377.61031651555095,150.00488259328995 378.3760682668071,149.05458642996382 378.98482488899026,147.38762670604046 379.5749401600333,145.25246193085331 379.72494478232693,143.39540881937137 380.49360924446955,140.46084640722256 380.809055857826,138.16025859618094 381.27159438224044,135.3586312585394 379.5705710933544,135.99669548560632 377.8587707733968,136.90481045335764 377.05923157336656,137.25843955902383 375.87754467560444,137.6462177063804 373.7780625066953,138.2038441755576 374.13108309335075,137.56803305982612 374.304098133347,136.59341865923489 374.3556531200884,133.70055426465115 376.24221610673703,130.62566445890116 376.05230734229553,128.8633013278013 375.80327054229565,127.02318497508531 366.868237937917,128.61166239663726 365.31197639124,128.79005645448342 363.96076970675495,128.66333827219205 363.97242055123206,127.92594484274741 363.92756480013486,127.15439769055229 363.9115448889788,126.44980246108025 363.9141663289629,125.7303760406794 363.84134855121374,124.6667350261705 363.5154161778046,123.55500670755282 363.0284108801279,122.19162644678727 362.7662668800913,121.5000469944207 362.5553865956608,120.80756661662599 362.48955932457466,120.11643216956872 362.4840251734713,119.41361181007233 362.5507262578467,118.00616682029795 362.49072440888267,117.33075179101434 362.47033543116413,116.62927063798998 362.427518577897,115.87116516346578 362.3311078400584,114.72478966333438 360.9091222756542,115.13552622369025 357.8679606044898,116.1115841959836 354.7650494578993,118.8029112148215 352.9513042488834,120.51772181154229 352.93411925341934,120.20405986969126 352.9221771379234,119.79243406129535 352.8843118933728,119.43338428065181 352.8429513956653,115.34448927687481 357.91427271126304,112.85893949156161 357.5067844267469,110.68883509701118 357.84844544006046,108.87822627206333 358.4612798579037,106.68561243673321 358.8568260266911,103.54517957812641 358.64944099565037,102.60142307297792 358.38059776008595,101.6050814379123 358.2594289778499,101.4154299685033 357.4913470578613,99.94989495084155 357.4464913067641,99.88023572869133 357.5892141511431,99.74046780331992 356.5715128890006,98.77557233005064 355.55002510233317,97.89336562459357 354.26493696006946,96.81925281899748 354.3476579556009,95.81659297615988 354.28590848017484,94.02114176796749 354.01415253349114,92.8476862332318 353.71414328890387,88.93986770795891 355.3315717689693,87.28233835392166 355.60886186675634,85.78165223787073 355.61730872897897,85.41940062039066 355.61002695118077,84.89355043251999 355.63536753784865,84.60635479708435 355.63886279123835,84.45084651815705 354.89699527120683,84.53893792675808 352.9821789866546,84.66028827847913 350.87861902231816,84.56500578572741 349.11613752902485,84.6495015831897 346.97762503114063,83.68364076392027 344.7697900090134,82.57619901548605 344.32967936003115,82.36495746183209 343.75179747561924,82.20315528311767 342.54447872005403,81.67684792540967 341.25531278236303,81.02244521200191 339.83740501338616,79.76532132958528 339.16311239113566,79.07136068749242 338.3723113244632,79.1050699664047 337.6141326222569,78.76752748672152 337.40412615123205,78.35986896522809 337.0074148977874,77.87040806259029 336.5157492622966,76.71079935680609 336.425746488967,76.4352790217963 335.64251847111154,75.72647552384296 332.5783463822445,74.12098442373099 330.5752749511739,72.71504638617625 327.25740572449286,72.16534373501781 326.19630506669637,72.15185959707014 324.57538133347407,72.47098397288937 322.4225965512451,73.02383214380825 321.57936668454204,73.3078966778121 320.9219677867368,73.57622945157345 320.3455422578845,73.6760114041972 319.1935650133528,73.51869749417529 318.3322763378965,73.25665721629048 317.2528256000951,72.70425910293125 315.3269410133362,74.58438465825748 314.2311790934764,74.2958271104144 313.55543011566624,73.91063365439186 312.48733895120677,73.12226594018284 312.25228316453286,72.49795220879605 310.28183409781195,70.5382517632097 310.4845587912714,69.94674240553286 311.5136196267558,70.23800253192894 312.14072632894386,70.83355636929628 313.9404905245174,69.55614758492447 314.0243766044732,69.6689661834389 314.13709852448665,69.45366689527873 314.84838257788215,69.0100328308763 315.0059602489928,68.0445525526302 315.20664604450576,67.65575226338115 315.7807414045092,67.56181081826799 316.96097194671165,66.35405286308378 317.3993349688826,60.13221845874796 316.71047879126854,58.67000330123119 316.4177513245959,58.38636928948108 315.71637048898265,56.85132306138985 315.3942246400984,55.71722489944659 315.1326631823322,51.87527204235084 314.8944034134038,50.422441614442505 314.6975041422993,48.78979394491762 314.8515865600202,46.10165260947542 315.31441635556985,44.99491995363496 313.82485589338467,44.90906028158497 311.4154612623388,45.514572538551874 310.8419484444894,44.33366475242656 307.54068167111836,44.44829445105279 305.98995427566115,44.220383579609916 304.3014556445414,44.357489753572736 304.1619367823005,44.361535508185625 304.5723377779359,42.31931896833703 299.055954204523,36.292803656775504 297.92116195568815,36.92711051518563 296.11062072892673,37.97544355120044 295.96236373344436,37.73718648345675 294.78067683568224,35.70165138767334 294.1902702933876,34.10261022346094 292.6069205334643,34.65105973079335 291.2967830756679,34.92977944610175 287.3215149511816,33.48537811136339 286.95363953791093,33.196766432374716 285.8232163556386,32.87129112344701 285.48359424003866,33.00795484799892 284.5955086222384,32.664497167628724 283.1484737423016,33.93987330223899 282.25660160009284,34.76929087913595 281.0749147023307,35.637815838097595 280.68140743125696,33.47953395341756 279.7697288534837,33.313649712712504 278.6020229689311,32.30620369955432 277.72325802675914,31.767188959289342 275.96572814229876,31.2623390883673 273.5094388623256,31.488465220667422 272.003275946714,31.78382246149704 269.68475790228695,32.29091889614938 267.5587700622855,32.68922254216159 265.4654045867501,32.85645591141656 263.9167160890065,32.71979209233541 263.2936871822458,32.50400694133714 260.3672863289248,31.74830768496031 258.84452096000314,31.13781227171421 258.1646941867657,31.125674274924677 256.058804053464,31.29200972733088 254.4361326934304,31.524429593933746 253.08084821340162,31.910596680245362 252.1374210844515,31.03711183386622 249.10732771561015,28.841920698992908 247.67776910227258,29.087829954107292 244.53903160896152,29.84174015483586 243.21258296899032,30.15238456922816 242.9250983822858,30.209028799901716 242.86072746675927,30.322766774508636 242.90237923560198,30.803342781960964 243.63434353785124,32.98997278383467 244.13795128895435,35.153654057416134 244.2177595734829,36.32427179359365 243.34336369787343,38.02669126400724 242.12497664010152,39.57445645041298 240.01733887998853,39.462521431967616 239.2970254223328,39.455778356757946 238.95682076457888,39.43015466898214 237.6283332267776,42.86505071958527 236.03770168905612,42.87853665999137 234.89154986676294,43.00080914841965 232.69856967125088,42.88617869251175 232.74342542234808,41.38878475816455 231.9543719822541,41.088046045275405 231.54746624000836,42.055443243531045 231.6045553778531,42.283805899496656 225.55165041785222,42.31437411101069 224.34957454237156,38.71718559379224 223.38954496011138,39.480502964928746 221.8854209423298,40.43307256186381 220.55809848895296,40.86192982038483 220.16692138672806,40.78640784835443 219.78244352003094,40.880360773880966 218.02549617784098,41.795613002963364 214.70121898676734,43.59194172383286 214.24596224015113,42.864601188281085 214.25848689791746,42.66321104578674 214.1143076978624,39.153688373568 216.79895352898166,35.22468250076054 221.56677034671884,28.44226137577789 223.47750883561093,25.491323402733542 223.78246968903113,24.21320066822227 223.64265955565497,24.14396693406161 221.42142606235575,23.496135932276957 221.1662725689821,23.763630575384013 218.607455857913,23.32350056077121 216.14534115570132,22.826723537174985 214.48655217781197,23.69304798700614 212.85019107570406,24.195217882166617 212.2629885156639,24.54768021882046 211.0973215289414,25.194159408274572 209.80407779559027,25.949881271924824 208.58831217780244,26.524875518283807 207.09001358225942,27.752184225071687 204.89732465776615,26.788769948645495 203.86389475560281,24.584095300349873 203.65330574230757,23.45252753101522 203.32562574231997,22.62036967324093 203.11940579558723,22.14067486365093 201.8034429156687,22.03502497531008 200.73622556449845,21.139021959155798 200.4245654756669,21.124185952648986 200.36048583115917,18.51842813193798 200.23553052451462,13.66109772969503 200.21921934233978,13.14091999467928 200.29990144004114,13.106750973209273 201.85412408900447,12.765510058205109 201.89402823126875,12.749774298339617 201.85761934239417,11.376262901700102 201.82732714677695,11.465732482378371 200.61214407114312,8.85221656045178 198.9498598400969,9.978014958731364 197.49874716461636,10.28419155755546 196.29987527115736,10.451891627861187 191.9532364801271,5.5354837365448475 190.5085317690391,6.415814356238116 188.0647671467159,7.768225495121442 186.9390043023741,8.23356449836865 184.42038300447166,8.242556546581909 183.63919388444629,7.71697070391383 181.42436835565604,6.691872361290734 180.06384099565912,5.159611158305779 179.13060835562646,5 178.14174293342512,5.01528670755215 176.33993984013796,5.501313528860919 173.8722909867065,6.174375718110241 171.74630314670503,6.244064737809822 169.90867370681372,6.429752146534156 167.80598755565006,6.144252070458606 164.71793123567477,5.105208494933322 162.41921962681226,5.790411302295979 161.7947343646083,6.905884516716469 161.9584287289763,8.504674592288211 162.84301909338683,9.648009158554487 163.55867221346125,11.593417649739422 162.87098112003878,12.886000982252881 162.58524416014552,13.519476428977214 162.51126129785553,14.11788199970033 163.0052571023116,17.095049056457356 165.20639288891107,15.131256300781388 166.25613397336565,13.693917891127057 170.14110805338714,11.116396274301223 171.28056064003613,10.149312051362358 173.00080782233272,9.907427928759716 173.38674204458948,11.714358813653234 172.48496668448206,14.752253062557429 171.42007950227708,17.15484375198139 171.34201884444337,19.301147807738744 172.40515840006992,18.99273590859957 170.97152199118864,20.323489686124958 170.28208327118773,20.738899007206783 169.50089415116236,20.98616608622251 169.0957360357279,20.914233873831108 168.1913392356364,20.367548287846148 167.21354211564176,20.303708270192146 166.67643818678334,20.54513133747969 166.5040056889411,20.642239982204046 165.2183350045234,21.578257212182507 164.9127916089492,21.70323903724784 163.44274631119333,21.739654591598082 162.79554190230556,22.752094493363984 161.1507339378586,23.00880031462293 160.08817692450248,23.418360117764678 158.48968106671236,23.7784664031351 158.37084245344158,23.80454149201978 158.08306659560185,24.682550860918127 156.72923847124912,26.561739836004563 156.81574599118903,26.92633659549756 156.25737927120645,27.73644954158226 156.24747605342418,28.689519760780968 155.12549973337445,29.07749008241808 154.33644629339688,29.65652214671718 152.57309098669793,30.124961563386023 151.52888405346312,30.76153405988589 150.15262805344537,30.920227339083795 150.47186119121034,31.42777532740729 150.41185934224632,31.44171152653871 150.37603299564216,31.4493539580144 150.7683751822915,32.25989973306423 150.9210012445692,33.70341004664078 149.5432888889918,34.36469733144622 148.25907456013374,34.918091207160614 144.97703168005683,36.51442915335065 143.37329294229858,37.26696517068194 142.38879658677615,37.72190205898369 141.18147783121094,38.097718775912654 141.2840052623069,38.951845280709676 140.91146951110568,39.2431466113776 140.45796039118432,39.52950263459934 139.62026467558462,39.796078627579845 139.25268053344917,39.83339024987072 138.16099640901666,39.896775039611384 137.25485198234674,39.988480660365894 136.50366378668696,40.08872744697146 135.13323320902418,40.40565084281843 132.73956721788272,40.66683133930201 130.7338743468281,40.93070873658871 129.71267783117946,41.01387275668094 127.16434688004665,41.12850419222377 126.98550641781185,41.14693512325175 127.25697109336033,42.07971802534303 127.34143971570302,43.04261553508695 127.99738225783221,44.5898957606405 128.7940087467432,46.6284949479159 129.04129792004824,47.30367841356201 127.85232924448792,47.27086328656878 126.59811584011186,47.390436191344634 124.8085461333394,47.02902014431311 124.48407011572272,46.60242257534992 124.40892216900829,46.60736733581871 124.3428036266705,46.611413048929535 124.27930652454961,47.1225208704127 123.504234097898,47.93525626999326 123.33617066673469,50.13160466297995 123.65831651561894,51.91078355663922 123.77453368902206,52.44570313789882 123.7314255645033,53.26336340274429 122.2415738311829,53.853119764477015 121.78340437344741,54.10709209891502 121.02464312897064,54.59211101359688 120.78259683563374,54.97913645795779 120.49190826679114,55.43403657095041 120.04917617782485,55.905567410402 119.41537024010904,56.55015606794041 118.57796579564456,57.42264020536095 117.70473500457592,58.15442741586594 117.55065258673858,58.40165227255784 117.26316800003406,58.82777737069409 117.17054378672037,59.04578408889938 116.86034005344845,59.90612188645173 116.83878599118907,60.42798658477841 117.73590101336595,61.467217320692725 118.229314275668,62.67275475850329 119.12031260447111,63.79018584894948 119.34167864895426,64.02751561219338 119.77363370673265,64.4716092516901 120.39520625781734,64.93592886568513 120.72434261336457,65.24202867317945 120.87143452453893,65.36878353438806 121.57601934229024,67.4611271196045 121.94476856896654,67.1882920426433 123.91492636443581,65.98547635186696 125.50526663125493,64.98851873079548 126.53316238231491,64.48149796621874 128.06874368002173,63.83288724569138 129.926179555594,63.075947566889226 131.4201090845745,62.456100122537464 132.0909064534353,62.1526933737332 133.02705180447083,61.894684934057295 133.88659285346512,61.921204979298636 134.67011214222293,62.32080323906848 136.4524000711972,63.20585010864306 137.17387861339375,63.423852470878046 139.1725809777854,63.521391601883806 140.65573347569443,63.58117362856865 140.48767004453111,64.09089340327773 140.252322986722,64.95570625236724 142.36403854226228,65.8263589834678 143.68990464007948,66.22145528713008 145.19111594674177,66.4799081151723 146.093182577868,66.59003140142886 147.23205262224656,66.95680896798149 149.33590385783464,67.09614832373336 149.32774826674722,67.2044733746443 154.36091306677554,67.41842642973643 154.41334186668973,67.87419967842288 154.15265422232915,69.84381242253585 153.87740302237216,72.13972387218382 153.8200226133922,73.50431450246833 153.59778275561985,74.96912746445742 152.8023213512497,78.49785269523272 152.72775594668929,79.39047498628497 152.86028430226725,80.61074580013519 152.83843896898907,80.93075676367152 152.78251491568517,82.28900034283288 153.11835050676018,84.22612337686587 153.31932757340837,86.14704935462214 153.20281912898645,86.74390827916795 153.34088163566776,86.703458553995 153.05368832009844,87.83784579241183 152.88300344895106,88.53492473624647 153.15097287122626,88.36818329512607 153.9272103823023,87.68998027674388 154.74859491572715,87.54391242028214 155.3955080533633,87.26166410162114 156.25883562676609,87.17671987088397 157.1128425245406,87.07649462507106 157.8308258134639,86.92188698111568 158.11947548447642,86.88053840666544 160.67508821340743,86.65357054932974 161.7615294578718,86.5587383650709 162.47980401781388,86.45042288157856 163.77596046228427,86.20592632383341 164.71035818674136,86.02794704033295 165.3788253867533,85.66704416065477 166.0123400533339,85.76457339094486 166.88091050670482,85.44142337841913 168.17881457787007,85.10119399079122 169.94770403567236,84.19780824461486 171.40813738678116,83.83330677222693 174.08025856001768,84.40275578532601 174.76066787564196,84.42927310662344 175.05077390233055,84.36050784302643 176.4983913245378,83.86252084595617 177.13423616008367,83.94521912606433 177.787848533364,83.52363735064864 179.49149326235056,83.56363821495324 182.14701198227704,83.4198148486903 183.03509760007728,83.46700690116268 182.92121059563942,82.58653636288363 183.9671651556855,82.7294613767881 184.5785432178527,82.55642321903724 185.706344960141,82.56541221763473 185.9119823644869,82.25933660875307 187.46358357346617,82.68406696425518 188.5121595733799,83.12272940896219 191.4513763556024,82.60181765805464 193.5636744534131,82.58294076379389 195.250425457838,82.52271447109524 198.1383785244543,82.455296959728 199.61512305785436,82.35641790542286 200.82943232008256,82.27371902577579 202.3618096356513,82.08180357067613 201.1512868978316,82.39956513460493 199.65793991123792,82.61575060285395 202.72618979564868,96.40578539844137 201.32867100450676,96.6570118914824 199.50356622226536,96.71184124890715 198.1002220090013,96.82419644645415 197.41660871123895,96.98239246703451 195.69140992010944,97.81471737608081 200.22096696903463,109.99272540770471 199.38997048896272,110.3270740431035 198.90791680011898,110.74500912008807 198.51673969789408,111.06857121293433 198.30760704015847,111.14451835711952 198.28809187561274,111.47077620401978 197.87652579555288,112.0486918038223 197.67147093336098,112.12149288330693 197.77487217786256,112.23923284956254 198.08624099567533,112.6994067671476 198.79082581342664,113.82961497385986 198.58052807115018,113.89477590541355 198.63208305777516,114.13205140992068 199.42201031115837,114.53829523781314 197.813028693432,114.78231080342084 197.657489920035,114.84567391697783 196.44929735118058,115.20832627778873 195.0048839112278,115.60063726373482 195.22391978674568,115.73680001916364 194.59244401787873,116.07563370326534 193.38745543116238,116.97574239136884 193.15589489787817,117.14875337312697 191.93022606230807,117.86506232223473 190.57843683566898,118.47396802570438 189.7858881423017,118.75168238999322 189.1378099201247,118.94761011161609 188.16088661341928,119.18577889516018 186.42694968893193,120.02700694202213 184.99418709345628,120.38785323966295 184.62922439118847,120.29258627980016 183.35869980452117,119.1448857827927 182.76625436451286,118.85728565620957 182.15953664004337,118.61642025975743 180.91056611563545,118.54991260368843 179.53489265788812,118.66585161269177 177.9696017067181,118.53058942954522 177.69231160904747,118.6119264998706 176.70024220447522,118.90312195167644 175.1043677867856,118.62945216300432 175.45243676449172,119.69222373119555 175.85555598232895,120.57299457141198 176.12352540460415,121.41152107203379 176.43838947557379,121.7463016564725 176.5805297777988,122.58662113931496 176.75441863120068,124.66044393589254 178.03863296005875,125.5133343769703 178.33077788446099,127.09732915612403 178.02989482681733,128.5172977229813 177.32793144893367,128.94014101533685 178.5996211200254,131.22464900708292 179.48508529784158,131.3675423034001 179.70091719122138,132.18535748962313 179.34090609790292,132.7978181828512 179.49149326235056,133.39050595491426 179.37527608894743,134.18359967018478 178.92934001784306,134.23482488794252 179.10526776895858,134.67652955866652 179.0126435556449,135.01173922320595 179.3187694933731,135.3029128856724 179.27915662224405,135.89154981827596 179.55207765335217,136.75832605705364 180.2380211200798,137.11375275126193 181.4747582578566,137.92570512287784 181.9515690667322,138.13284910353832 181.6763178667752,138.37953441299032 180.33297550224233,137.33572564076167 178.86788181343582,136.51523363712477 178.56729002669454,135.96973506285576 177.96348501346074,135.19641885953024 173.37916899565607,137.3954875342315 174.0094796800986,138.58847530494677 173.62179783114698,139.56353016686626 172.8997367467964,140.56688854447566 172.27903800888453,141.26020515186246 172.15379143122118,141.359956291446 171.1267694934504,142.11348032497335 170.8057887289906,142.21682569710538 170.5681115022162,141.36579757300206 170.43995221343357,140.43658252124442 168.7683473067591,141.1321461899206 167.98803200002294,141.56664769747294 167.5869516801322,140.97443136561196 166.84566670225468,139.54825284297112 165.31299811566714,137.42694115580525 164.59443228458986,137.06207886815537 163.26477966236416,137.39099415933015 161.67414812452625,138.64014882815536 157.33042204449885,141.39096001483267 158.40579498675652,143.60749020287767 158.7966808178462,144.699346619891 159.31659975112416,145.81141700892476 159.65796949341893,146.35464449314168 160.5772211201256,145.9107167571783 161.74783971568104,148.2287465124973 161.060731164529,148.45340403431328 160.56848298676778,148.51091632293537 159.8805006223265,148.42779308842728 159.15232284460217,148.5536012147786 158.4168632889632,148.91484986175783 157.27042019565124,149.7406871939893 156.5722433422925,150.1203556524124 156.2480585956946,150.38455059408443 155.90989283565432,150.74489760305732 155.11035363562405,151.74146517412737 154.42382762674242,151.96027809625957 153.9505120711401,152.17459772829898 153.52991658682004,152.28512726788176 153.51680938678328,151.49524421186652 153.3126283378806,151.15736390120583 152.58008149336092,152.02497838472482 152.13327160896733,152.49585212999955 150.81556110235397,153.23540942464024 150.4858422045363,153.25428023427958 149.751256462303,152.8840526250424 149.33386496000458,153.28842740948312 148.79967374226544,154.060331871151 147.75313664006535,155.2923181100632 147.3939993600361,155.41362929082243 146.89854720013682,155.06407318799756 146.55630364455283,155.16381804540288 146.09289130673278,155.4401380213676 145.9411390578607,154.9656761896331 145.94754702225327,154.13626411894802 146.0157044623047,153.32302388414973 145.9257016889751,152.65805172605906 144.960720497882,151.31147692672675 144.86926136899274,151.34202993346844 144.14982172450982,153.0422081850702 143.5565024712123,154.0738109702943 142.20733468455728,157.11287736543454 141.8883928178111,158.0186583705945 141.65042432001792,159.09022481541615 141.14186496008188,159.83245560881915 140.7483576888917,160.10292891721474 140.42825073783752,160.41293944150675 140.16872817790136,160.9094046576647 140.22232206223998,160.93052125279792 140.2709643378621,161.16145579854492 140.54097265785094,161.4206952614477 140.7891356445616,161.48269702866673 141.0751638757065,161.3995787135791 141.3364340623375,160.57737962855026 141.62508373335004,160.4219252471812 142.35034880007152,160.56300234934315 142.68938837340102,159.93893766542897 143.47582037339453,159.4312379435869 143.97593287122436,159.20659167371923 144.2715730490163,158.84266422782093 144.69915904011577,160.7593419868499 144.9502347378293,163.1486509887036 142.8262857956579,163.18728946859483 139.56463189341594,163.16841951408423 138.82334691565484,163.50942629750352 137.1153331201058,164.46190620213747 135.6144130845787,165.05405907519162 135.09828067570925,165.20816232991638 134.22796259564348,165.3811352418852 134.20757361792494,165.29936624597758 133.62124487117399,165.5091800368973 132.54383303120267,165.33755506656598 130.91912277333904,164.73956230084877 129.85452686226927,164.62364766164683 129.0249867378734,164.64296677242965 127.17861916450784,164.76517134078313 127.18357077334076,164.68250355194323 127.16900721786078,164.59040081582498 126.00887438224163,165.04282705532387 124.6885424356442,166.38123049295973 124.12551537784748,166.73031927039847 121.38873201783281,167.41366905160248 117.97299569786992,169.48302429704927 116.97247943119146,169.97587480430957 115.50476430228446,170.99886179115856 114.53483150235843,171.6233442540979 113.65723164449446,171.7208352405578 112.98235648008995,171.86100653687026 112.29670428449754,172.07845157571137 111.33958741335664,171.6745607224293 110.51558144006412,171.49754936865065 109.25641642673872,171.29358179389965 108.65931064891629,171.04019449831685 108.19589831121266,173.3076409616042 108.63018353783991,175.57461471046554 108.78688739554491,176.42595927976072 108.88067669339944,177.01313801389188 109.0729156268062,178.14930418133736 109.259329137858,179.3600402151351 106.1564179911511,180.45126930007245 105.90009941335302,180.5226999153383 102.27202645340003,181.52047984907404 101.74628209788352,181.70197557582287 97.47828650684096,183.59464359271806 94.12488220457453,184.95270031964174 93.84555320895743,185.0605178931146 93.17562965338584,184.1045335587114 92.92164124455303,183.6516974187689 92.67318698682357,184.34532699815463 91.1512954311911,185.17732020455878 90.92585159128066,184.47560692043044 89.53357568010688,185.0555762554868 87.89226296893321,185.54929022782017 87.59312753786799,185.90598552685697 86.4833846045658,185.70068364345934 84.85605290683452,185.96214027545648 84.31021084450185,185.72898566513322 83.5406725689536,186.11128721782006 82.35898567119148,186.10275170288514 81.59119502233807,185.8031099900836 80.5982518044766,184.7806413320941 79.16053760005161,183.5097366902046 78.10788380447775,182.28689394966932 76.64249884453602,181.074826338212 76.62414876453113,181.10627369233407 74.64292266673874,179.9993241133634 72.55887786671519,179.39014006091747 70.94174065790139,178.9840164189227 69.51101696002297,178.59586214623414 68.82682112010662,177.5437090289779 68.68934115569573,176.2570384038845 68.62613532447722,176.19773636339232 67.63144448003732,175.70040725602303 67.56066560000181,175.65548135520658 66.79724401782732,175.7296090866439 64.94068195554428,175.44792357366532 62.16545080894139,175.1563539772178 61.62659925338812,174.8966814985033 60.56171207118314,173.82159822271205 59.81489294231869,173.13377577619394 58.86767928896006,172.45628428074997 58.309603840112686,172.21817337721586 58.121733973384835,172.06632138288114 57.92949504009448,171.85561533487635 57.804831004468724,171.5514614712447 57.66793358232826,170.90855878416914 57.46258744900115,170.54644784517586 56.33332935126964,169.78942738624755 55.938074453384615,168.17204553890042 55.737679929006845,167.5174517709529 55.40941738674883,166.79456592182396 54.81959338672459,165.78548697108636 53.06963655119762,164.2974689293187 52.972352000069804,162.4158664350398 52.91642794676591,162.48191149532795 50.56965660455171,165.29082992044277 50.25537507561967,167.64998807257507 49.502730524516664,169.75752913742326 48.97727744001895,175.09839941957034 47.878020266769454,174.3863208515686 46.29874830227345,174.35936515056528 44.669960248982534,174.00759294850286 44.70899057784118,170.22836478980025 41.58743808011059,169.57916842098348 41.26150570670143,171.22753938869573 41.17645454232115,172.0744081781013 41.036935680080205,173.1899337969371 41.03780949348584,173.76364331209334 41.093733546789736,175.26552414888283 41.090820835670456,175.90976183267776 40.97664256009739,177.11511916387826 40.82489031122532,179.23335126624443 40.56158122676425,180.9580218407209 40.52575488004368,182.14223686268087 40.500123022357,184.18360009032767 40.14768497785553,187.05962579412153 39.63650417793542,189.18180488352664 38.94502656010445,190.57351913512684 37.64100579568185,192.0600111380918 36.68097621342167,193.85915162030142 35.99415893340483,194.8276715684333 34.15041280002333,196.54053983208723 31.313432177877985,194.37979900743812 28.79888867563568,192.72261765261646 28.045370311127044,194.09229758329457 27.470401137834415,194.55679188412614 26.501633422332816,196.66227740282193 26.54357646231074,196.66092975472566 25.840448000119068,198.18466515140608 25.33072355564218,199.31398343172623 25.07644387567416,199.77891587797785 24.059907697839662,200.70787939673755 22.487626240123063,201.48949942400213 21.30623061337974,199.49546442658175 20.70592085341923,198.72866127837915 19.576954026706517,198.94697808934143 18.009624177822843,198.82389415276702 17.155617280164734,198.7461805367493 16.395982222282328,198.6945211813436 15.672464782255702,198.45329429127742 14.990016569034196,198.10695130878594 12.923156764474697,197.9843161138706 12.445472142309882,198.0957209825283 10.711243946687318,198.86207713314798 8.282042880076915,200.1023465632461 7.947663644561544,200.2465425900882 7.532893582363613,200.4954040455632 7.952323982375674,201.0353515749448 8.035336248925887,201.35114389797673 8.083395982393995,201.67187702923547 8.21738069341518,203.49833994952496 8.177185280132107,204.4560365108191 8.35136540455278,205.26818866515532 7.528233244433068,205.284359805868 7.228806542349048,205.1743061860907 6.791899875621311,204.80820905347355 5.807403520098887,204.57058248919202 5,204.45558731077472" stroke="red" stroke-width="3.8687032743902368px" fill="none" stroke-linejoin="round" vector-effect="non-scaling-stroke"></polygon></svg>