<svg width="224.9193409421714" height="210.69998607959133" xmlns="http://www.w3.org/2000/svg"><polygon points="5,52.22188693797216 25.90773162653204,119.83460831391858 27.20388807100244,122.64841657032957 30.030091662192717,155.1641731657437 30.57302101328969,157.42048656393308 38.07878627546597,170.4803133616806 38.972988586639985,171.4640359474579 48.72678428434301,173.59489001659676 49.06844529765658,176.2872537591611 76.2175342933042,170.86708437820198 77.66777315549552,170.9760338361957 89.17443839996122,181.4149547049892 91.70558435551357,184.34553405176848 115.08038229320664,187.899307880376 118.05484287987929,188.63601985626156 147.3756492800312,179.88655294454657 148.76676010654774,180.08219986356562 177.68619491555728,204.5984079806949 178.43330531544052,205.69998607959133 185.75527850654908,201.26413719571428 188.0283582577249,200.24287605372956 187.77553493331652,192.64272702200105 187.72456248884555,191.54380629752995 194.56826851551887,187.70820720068878 195.24634766217787,187.5080279239337 196.49036657775287,192.71262926777126 196.97795441781636,192.8115817590733 199.4977408000268,187.1812042191741 201.12711139547173,186.94516457169084 197.64117873774376,182.56839840550674 197.63710094220005,182.41814693569904 202.44627825776115,164.06262866634643 202.0050025244709,158.17319114046404 214.58354545768816,138.35549085546518 219.9193409421714,134.12757800990948 215.9295092622051,126.4502010307624 210.9831432532519,123.3195115022827 209.06337535986677,100.036120300123 206.08862350217532,97.02402753772913 209.82592312875204,83.01745263015619 210.77575822221115,82.00426495383726 204.15866111998912,63.52990610542474 202.62074965320062,60.829333685163874 189.75384831998963,45.78390635357937 187.26581048883963,44.66062409436563 122.90013781329617,85.21048142021755 119.48818801774178,84.93800027196994 89.04249258653726,57.998374730872456 88.65655836439691,57.54191151086707 58.33348807110451,6.251599726558197 56.6272219021339,5 43.940908657736145,21.55460649554152 44.05188295105472,22.26280899293488 53.42906510212924,27.12113405688433 53.963547591120005,27.379151464730967 64.1746389332693,45.41780690965243 64.11871487996541,46.30353031278355 57.126460586558096,46.286270096316 56.76761457766406,46.388468726479914 47.72481166222133,61.23219617916038 46.18748273770325,70.36339451716049 40.45118947548326,57.58642239437904 40.05913855996914,57.06637119705556 5,52.22188693797216" stroke="red" stroke-width="3.481420621056106" fill="none" stroke-linejoin="round" vector-effect="non-scaling-stroke"></polygon><polygon points="5,52.22188693797216 25.90773162653204,119.83460831391858 27.20388807100244,122.64841657032957 30.030091662192717,155.1641731657437 30.57302101328969,157.42048656393308 38.07878627546597,170.4803133616806 38.972988586639985,171.4640359474579 49.06844529765658,176.2872537591611 50.24925838212948,176.3880294992705 76.2175342933042,170.86708437820198 77.66777315549552,170.9760338361957 89.17443839996122,181.4149547049892 91.70558435551357,184.34553405176848 115.08038229320664,187.899307880376 118.05484287987929,188.63601985626156 147.3756492800312,179.88655294454657 148.76676010654774,180.08219986356562 177.68619491555728,204.5984079806949 178.43330531544052,205.69998607959133 185.75527850654908,201.26413719571428 188.0283582577249,200.24287605372956 187.77553493331652,192.64272702200105 187.72456248884555,191.54380629752995 194.56826851551887,187.70820720068878 195.24634766217787,187.5080279239337 196.49036657775287,192.71262926777126 196.97795441781636,192.8115817590733 199.4977408000268,187.1812042191741 201.12711139547173,186.94516457169084 197.64117873774376,182.56839840550674 197.63710094220005,182.41814693569904 202.77395825774875,157.96889884100528 203.6736947199097,156.86889500677353 176.70548508432694,142.27186688384973 175.9327428266406,141.93634890718386 152.74231950216927,156.87661275843857 152.21162353770342,156.51478610973572 142.89007416879758,123.92295030591777 141.40138751990162,121.93418403383112 148.40267121768557,115.24898093525553 148.58558947546408,115.02784763433738 145.97317887993995,110.01709749130532 146.77446570654865,108.25433945824625 91.27071658661589,60.267505037772935 89.04249258653726,57.998374730872456 58.33348807110451,6.251599726558197 56.6272219021339,5 43.940908657736145,21.55460649554152 44.05188295105472,22.26280899293488 53.42906510212924,27.12113405688433 53.963547591120005,27.379151464730967 64.1746389332693,45.41780690965243 64.11871487996541,46.30353031278355 57.126460586558096,46.286270096316 56.76761457766406,46.388468726479914 47.72481166222133,61.23219617916038 46.18748273770325,70.36339451716049 40.45118947548326,57.58642239437904 40.05913855996914,57.06637119705556 5,52.22188693797216" stroke="red" stroke-width="3.060386987392619" fill="none" stroke-linejoin="round" vector-effect="non-scaling-stroke"></polygon></svg>