<svg width="2550.164291697787" height="2012.6311139062745" xmlns="http://www.w3.org/2000/svg"><polygon points="5,941.7355863176053 13.679879111121409,953.9489495066227 18.77741482667625,955.6073184906854 62.31283399113454,951.9309877803316 63.04450702224858,952.0948016025941 73.62376504892018,937.2988587395521 74.03562239999883,936.7925314035965 85.24169585783966,943.3557930858806 85.90550272003748,943.4638064440805 88.35625784890726,934.7249034424312 88.53538958227728,932.0100431683823 109.68079843558371,923.3125419308781 110.52635847113561,923.5947525548982 116.55974826670717,931.4816496716812 117.51628259557765,933.2972655991907 120.97745720890816,953.3053999503027 121.33950720005669,954.9894256265834 130.6196960711386,953.3072000915417 130.70008689782117,953.3558038999327 139.77755107556004,969.7832729569636 141.92014136887155,971.162523041945 156.6284586666152,962.3725237342296 157.04148110223468,962.3410225645639 158.22928469337057,973.9169472088106 158.54007096891291,974.4582880571252 172.46894677332602,972.869361117424 176.2677046045428,973.0264093517326 183.82356849778444,984.8344039320946 184.67087616003118,985.1030361622106 192.81976803555153,977.4264140899759 192.97588935121894,975.41541860078 202.35307150229346,975.618813927169 203.73515292454977,976.1453009518445 209.95670385775156,994.3429742911248 210.52555633778684,995.6955227286671 208.85773795552086,1015.2750426863786 208.93608988448977,1015.6174223743728 223.45508096006233,1026.4225783003494 224.8659982222598,1026.5750892805518 233.19635199999902,1020.4574711219175 233.77831168007106,1020.429127589683 236.57946595561225,1005.3156536448514 236.68374101328664,1004.711398940708 230.74588814226445,988.2771012433222 230.1447045688983,986.3278509638039 232.9607136710547,985.4630118331988 234.54115071997512,985.1147353807464 235.78167438227683,975.3267705786275 234.69494186667725,972.9121106480015 239.99928007111885,979.9490195926628 242.01108963554725,979.2915970202303 239.34042481787037,985.7815898084082 238.71885226666927,985.9444783680374 243.01743132446427,995.8170087062754 244.33281166222878,995.5704370960593 254.31933297787327,964.2994866681984 254.4096270223381,964.1923836154165 261.59353770664893,968.6537664158968 262.2515191467246,969.4210214938503 256.321239324403,970.5946240592166 255.5050976711791,971.4824718200834 255.7925822577672,979.2479487713426 255.93414001783822,979.3667439850396 265.08005290676374,976.0688029157463 265.86735872004647,976.2226989375777 290.30005333339795,989.0010912141297 290.3437439999543,989.0717352285283 273.2076819911599,996.9715720778331 271.5643303822726,998.3083562797401 280.2809096534038,1026.2133816503338 281.17365560890175,1028.9464189088903 275.55620096006896,1047.6327316018287 275.7778582755709,1048.703351710632 291.0506589866709,1068.7967506144196 291.2828020622255,1069.1255527135218 293.0688765156083,1079.1310658875154 293.021399324527,1079.6190731577808 356.49665621330496,1080.9881863674382 358.3605000533862,1080.9477067961125 379.03754496003967,1073.0949782278622 380.1644728889223,1073.09048033593 381.9330710755894,1060.244574052922 381.650246826699,1058.229840820306 392.6917521067662,1055.3982074127416 392.9070014577592,1055.3347820037743 395.90388991998043,1069.1925725062029 396.77624689787626,1070.871659009601 412.15274012449663,1086.3984386378434 413.2951054222649,1087.4940557953669 449.87730062229093,1097.880108279991 451.33452999114525,1098.4827567541506 432.91337983997073,1152.2314321956364 432.8376493511023,1152.5263871174539 443.49001642665826,1163.0707647057716 444.09644287999254,1164.2761509509291 440.1971965156263,1183.4490383324446 440.0337934222771,1183.68146209541 456.34206293337047,1197.0258590294397 456.9982967467513,1197.3976239813492 465.0458262756001,1216.7703352696262 465.2683574045077,1217.2409552729805 474.638840319938,1218.5040278398665 476.91162879997864,1219.4295272801537 472.12837461335585,1223.0681090883445 470.17365418665577,1224.9658111666213 478.70032469334546,1231.4251566212042 479.53685532452073,1231.949231270526 497.17972906678915,1225.3002221460338 498.53180956444703,1223.5499525749474 503.23292529780883,1231.9892334864708 503.3406956088729,1232.338466005167 529.2719800889026,1228.5090133824851 529.9145241599763,1228.7580197305651 540.5240743822651,1257.0139076568303 540.5788333511446,1258.1459728910122 531.4235997867072,1269.6581914256094 531.0213543822756,1270.5111240233527 531.206602808903,1279.8747395570972 531.8843906845432,1281.6443312155316 557.001281137811,1315.9445350902388 557.1728398222476,1316.355635886197 565.4009574400261,1319.469643213437 565.8052417422878,1319.6489073296543 559.8475824355846,1333.4104725602083 559.1788239644375,1334.2478824839927 565.516883342294,1351.1674600155093 567.8688975644764,1355.3981610757182 598.0783721244661,1377.8215798300225 598.4645976177417,1378.4787059273804 597.8759387022583,1406.0636486186995 597.5433070934378,1406.9888055335032 602.3315128888935,1418.6930507230572 602.8135665777372,1419.8732307791943 610.5412804266671,1426.067724662018 610.4978810311295,1426.2572301254258 620.2225496177562,1420.967631037347 628.4049376711482,1427.2860353641445 615.8913481956115,1439.4328470637556 624.122087253374,1447.8894148127292 645.7850848711096,1439.4261114951223 646.3798604799667,1439.5006517765578 649.0333403021796,1446.251830622903 655.2799405511469,1453.6790098110214 686.2373993244255,1458.3832238206523 690.4998607644811,1460.0373302599182 684.9071641600458,1470.581292056595 685.5613590755966,1470.993000941351 696.6666527289199,1455.0255828589434 696.4438303289935,1454.4463643886847 712.2717937778216,1459.2372184426058 714.3456440889277,1459.4006534169894 720.0769857423147,1439.8212645053864 720.1270843733801,1439.7045148265315 780.4274861511076,1467.3841240167385 780.1376713955542,1468.840163493529 806.9401477689389,1460.4445689920685 807.1708344889339,1460.291910680593 811.1361993955215,1504.8532985795755 810.4674409244908,1508.8467119133566 823.9396036267281,1507.4340323018841 826.5298776178388,1506.5429666024866 864.9164973511361,1572.081177642569 865.0708710399922,1572.4186497179326 887.6114685155917,1569.2211707137758 897.0195254044374,1508.4741280883318 899.2031849244377,1503.0006640834617 944.8782816712046,1498.4688934382284 957.4437174045015,1497.2334702791413 955.0838388622506,1493.4818173991516 986.9116157154785,1463.937272330164 987.3962908444228,1463.4290176348295 990.2848264534259,1487.148709344212 990.4919202133315,1487.4670077199116 1023.7725573688513,1507.77474613901 1032.2377696711337,1512.9630477109458 1021.7747288177488,1531.4847051445395 1017.6954769067233,1538.7532529329183 1035.1833944177488,1544.220438945631 1035.2492216889514,1544.2177460052771 1049.3452871111222,1591.354399231961 1049.167903004447,1591.4401060680393 1059.2246206577402,1606.1345193088055 1060.2315448889276,1607.5959197547054 1099.1086651734076,1590.0638566452544 1104.2656201955397,1587.7955166973406 1101.2597023289418,1622.7886131558334 1101.6296166400425,1623.5378785716603 1111.3266144711524,1638.8393825141247 1112.3233442134224,1639.7850922461366 1137.7690797511023,1651.040878518601 1138.4765772799728,1652.0672841880005 1151.0219153066864,1676.404432339128 1151.2173582222313,1677.071429751115 1148.0684262400027,1699.6539494843455 1148.3095987200504,1700.4231351703638 1158.9695388445398,1715.913467708975 1159.0837171199964,1716.024688819307 1170.1295914666262,1721.2744404995465 1171.2364216889255,1722.639552690147 1191.637050311081,1774.388263901521 1191.4028683378128,1774.685970008024 1202.2099003733601,1782.1249047638848 1203.0207991467323,1783.3564832488191 1215.9340125866001,1820.6758179872995 1216.3103348622099,1821.3455149438814 1233.8850511644268,1834.2791410273057 1234.0857369600562,1834.7453003354603 1234.9551812266,1852.1888080850476 1234.8238179555628,1852.699748673709 1224.7435073421802,1869.5798401331413 1224.6500093155773,1870.1203186484636 1230.1585285689216,1879.430591705197 1230.3490198755171,1879.9947972521768 1229.616764302249,1891.6344062091666 1230.264259982272,1892.5068814938422 1239.6554231466725,1893.3336460919236 1246.0293088711333,1893.4286454019602 1255.6377602844732,1911.1838325713761 1260.0840137955965,1920.2454866906628 1291.2602171733743,1928.9183188206516 1292.7803611021955,1930.1360812301282 1298.3284932266688,1947.202414067462 1298.7557879467495,1947.7534535640734 1332.907325724489,1939.0688206988852 1336.917255111155,1937.544662450906 1348.893158115563,1918.1400654894533 1349.7774572088383,1917.7197853357065 1369.4001006933395,1917.2685881560901 1370.1859501510626,1915.8545024103369 1379.5535203556065,1925.4822927493951 1379.8028484267415,1925.629699326586 1386.4528591644485,1949.123430321808 1386.312175217783,1951.0188942116802 1396.335396693321,1962.790474242065 1397.0257092267275,1964.4439192372374 1410.2252421688754,1959.1238226087298 1412.4869623467093,1959.028403734439 1446.149747199961,1966.5009648322593 1446.2286816712003,1966.5775661145453 1452.9439371378394,1979.9120536217815 1453.047920924495,1980.5920155389467 1441.551741440082,1995.260852749343 1440.9371593955439,1995.6339549223194 1446.995598506648,2007.5567663236288 1447.8242648177547,2007.6311139062745 1463.8738855822012,1981.191347815562 1464.4133196800249,1979.939377560222 1457.7554446222493,1969.3351944870665 1457.4024240355939,1968.979517918313 1473.2583495111903,1960.9994894354604 1474.7991736888653,1958.7376670966623 1481.259275662247,1971.6515576483798 1482.9879697067663,1970.4868838074035 1484.343836728949,1952.9416690416401 1484.6196704711765,1951.7128332944121 1489.6784671288915,1944.7607996643055 1489.5637063111644,1943.9772372893058 1479.7618508799933,1923.6354457281996 1479.284748800099,1923.0605991024058 1481.7221054577967,1919.1732881200733 1482.35358122678,1918.6141118618543 1463.6088288711617,1902.686399888189 1463.3830937599996,1902.2096305829473 1466.848054897855,1892.9980114081409 1467.4620544000063,1891.7634628641536 1463.4690187377855,1889.103446479654 1462.379956053337,1887.0523976952536 1466.455421439954,1878.9076135454234 1466.1810440532863,1877.8912308342988 1448.299619271187,1853.63826276263 1420.9708160000155,1857.6172669560765 1417.5673130666837,1834.4898092987714 1417.4339108978165,1833.6560996373883 1412.7709516800242,1835.2665907741175 1403.7992189156357,1802.9442428548937 1408.0727486577816,1803.5019205755088 1403.3174564978108,1774.0336164915934 1403.0395838577533,1773.497833287518 1445.1888438044116,1765.4411999676959 1450.2249213155592,1763.6409824242583 1467.3187490133569,1745.5236499395687 1468.0891611021943,1744.9913844460389 1479.9910812444286,1739.3323404160328 1480.854408817715,1739.047590684262 1489.9225523200585,1743.6770822358085 1490.2700387556106,1743.6048873111722 1533.7696315733483,1723.9338003622834 1533.901868657791,1723.9342488183174 1570.6696035555797,1694.9925817052135 1577.0967918933602,1689.1124701608205 1552.7226427732967,1672.702941129799 1552.6361352533568,1672.5253110432532 1568.0070943288738,1658.2597102392465 1570.2542509511113,1656.922907467233 1557.4863817956066,1644.60016307584 1556.492564764456,1642.97660818859 1550.2226628266508,1623.2099070188124 1549.7842998044798,1621.8912859375123 1561.1333873778349,1602.404920226545 1562.2821606399957,1601.4617415983812 1568.4457486222964,1612.5104074736591 1568.5028377600247,1612.5646981958998 1595.388326400076,1615.335750605096 1596.9469181156019,1614.7600960627315 1608.3868822755758,1640.654980094172 1608.6312587377615,1640.9779906914337 1622.9652926577255,1637.3831251173979 1623.3206434133463,1637.1619490110897 1629.7862795378314,1627.3191622408922 1629.9357016177382,1626.8969789594412 1638.504023893387,1632.5396314170212 1638.6458729244769,1632.518545206578 1665.6761233066209,1610.9000757280737 1665.887294862303,1610.8336700415239 1661.9000846222043,1600.9102808550233 1663.7659673599992,1599.9554293575347 1693.4799897600897,1588.9128621546552 1698.7391809421824,1586.137886085431 1712.6508717511315,1588.4847714350326 1712.7053394488757,1588.4753480451182 1714.6999640177237,1580.3957639848813 1714.7416157866828,1580.2813328594202 1737.2743489422137,1584.1679189626593 1737.4293051734567,1584.209203193197 1750.0337712356122,1577.580292218132 1750.5003875555703,1577.5789459527005 1762.3635686400812,1579.54403598106 1773.1429299199954,1581.9286865601316 1769.038337422302,1588.6341994226677 1768.7674552889075,1589.290245419019 1772.4266942578834,1603.3382233459852 1771.6029795556096,1613.090554743947 1806.9758171022404,1612.3883654705714 1810.6210750577739,1611.4425376447034 1818.897252408904,1618.6460714168497 1820.934111288865,1617.7621874456527 1818.3741294932552,1600.619518245163 1818.410247111111,1600.484008378582 1850.6335701333592,1571.7616557310103 1851.4377696710872,1563.369551253796 1840.898707057815,1549.044788658619 1840.7393817600096,1548.512495163246 1844.0170555732911,1521.5927375997417 1844.2701701689512,1521.0926961759105 1835.419023644412,1527.6488040828845 1835.3511574756121,1527.6393780790968 1843.3276168534067,1503.7638059458695 1843.6718993067043,1503.2058148332871 1824.3859652266838,1491.9379511769512 1823.0571864177473,1490.6948593677953 1826.1822341688676,1480.5568212203798 1826.0625217421912,1478.3600797584513 1818.708508728887,1477.7934937803075 1818.5625819022534,1475.576521263516 1830.6544108089292,1473.9903260794817 1832.6452488533687,1472.2083682442317 1829.6859343644464,1466.7250194038497 1828.8732879644958,1465.829298447119 1831.608906240086,1460.3529740179656 1831.9057115023024,1459.6754394179443 1844.3785230221692,1464.5905484990217 1845.4684595200233,1464.4410359805333 1847.382984533324,1453.6174956064206 1846.3687785244547,1450.7218183729565 1833.6914946844336,1439.3003808425274 1833.386825102265,1439.1176222296199 1863.4643538489472,1404.840728900279 1868.3513005510904,1397.3436283412157 1925.6425804799655,1409.1489868197823 1926.754071040079,1409.6699421152007 1929.7891160177533,1413.7423327490105 1929.8357193956617,1413.7728709020885 1925.8295765332878,1417.6898028643336 1925.0917868089164,1418.1999599140254 1940.0709862400545,1437.532510425779 1941.2925772800809,1439.071820292971 1954.2771521422546,1421.6273222760647 1955.747779982281,1420.7139031093684 1959.4821668977384,1401.995606502751 1964.695045973407,1395.8597172652371 1993.9348790044896,1373.6330845616758 1993.705357368919,1372.7212621163926 2001.9500774400076,1373.2225403438788 2004.3399569067406,1372.3107161910157 1982.1136409599567,1392.9830390083953 1981.0062281956198,1394.797079857206 1962.5853693155805,1403.2567166135414 1961.9821468445007,1403.736816811259 1965.6914844444254,1421.4957434468088 1968.1431133867009,1425.6806300544995 1976.1385053866543,1432.7075032623252 1978.0358454044908,1433.3442576132948 1977.749817173346,1431.6859083212912 1976.9968813511077,1427.6681874554488 1983.4884406044148,1426.2783361740294 1985.6217102222145,1426.7785938375164 2026.3792767999694,1455.8126889172709 2026.4209285689285,1456.4040268640965 2033.4804664889816,1443.5828160877572 2033.98232661339,1443.575182587665 2062.28950954671,1457.5085718331393 2064.50986922672,1457.2921532977489 2059.7965201067273,1472.2761628233711 2059.6622441244544,1472.4391391100944 2071.967574755661,1477.6251339563169 2072.7076946488814,1479.8815938142943 2084.1566882133484,1465.440478086006 2084.64951893338,1465.0224729797337 2106.336692053359,1475.3251013371628 2107.454590577865,1474.673653008358 2136.3422768355813,1435.4983416631585 2137.1706518755527,1434.2913028009352 2181.4837649066467,1404.3345827537123 2182.2961200355785,1403.8064290070906 2183.511594382231,1408.6150063573732 2183.857333191205,1409.3263812188525 2202.088283306686,1402.573167090537 2203.7383341511013,1404.05927828094 2209.1451997867553,1397.3386879760073 2209.6936632889556,1397.1226591685554 2208.031379057793,1392.299906588276 2208.837617493351,1391.9909018753096 2222.081423644442,1404.8146805912256 2222.5806623289827,1404.9839945450658 2226.90370816004,1419.4479535382707 2226.979147377773,1419.6450990566518 2238.9087382755242,1417.2649704717332 2239.423414328834,1417.1423706958303 2232.530192213366,1388.4058764053043 2232.440189440036,1388.2311599350069 2242.537393777864,1381.02050323016 2244.2748259555083,1380.2501966808923 2274.476436195546,1390.7557769432897 2275.4303490845487,1391.079604916682 2299.9667362134205,1386.402242922224 2300.005475271144,1386.3694552236702 2300.1656743822386,1396.29941230244 2300.1831506489543,1396.464690699242 2313.0850045155967,1398.7677962635062 2314.895837013377,1398.673480793077 2311.4145646933466,1397.825987103046 2311.010280391085,1395.6239253856475 2319.4618029510602,1391.9024222479202 2320.5287290310953,1391.870084507158 2322.4610215822468,1382.6778883197694 2322.4283992177807,1381.657856865204 2305.546034346684,1354.1075768077862 2303.9466646756046,1351.8525174899842 2305.303988053347,1324.3568966310704 2305.61186161777,1324.0361149992095 2308.502436124487,1329.2350558082107 2308.9868199821794,1329.7966346724425 2315.93276216893,1327.256040421431 2316.0274252799572,1327.3957626388292 2311.664766577771,1330.959322980023 2310.5640530488454,1332.287331909989 2307.571533653303,1354.5693669697503 2307.6793039644836,1354.8492257093312 2317.9920489244396,1366.546821767639 2318.8766392889665,1367.4910112363868 2325.608788480051,1387.4559381329454 2326.6375580444,1389.3288621316897 2338.657442986616,1390.1921085256035 2339.279015537817,1389.9881994343014 2338.4573397333734,1374.9523007660755 2339.671066453331,1370.9959758713958 2325.8531649422366,1352.8075514193624 2326.0433649778133,1350.6427719249623 2338.227235555649,1347.3845565508818 2339.02036679117,1346.836499572033 2336.664566044463,1330.8164582112222 2336.497376426705,1329.8815452715498 2348.8213484089356,1326.2074470473453 2351.6096867555752,1325.587453746586 2347.9711280355696,1317.4793074611807 2347.8010257066926,1316.8503036907641 2351.483275093371,1313.8108421792276 2352.0993134933524,1313.583947944222 2336.506697102217,1305.0862527440186 2336.0607610311126,1305.0161598787527 2343.189038933371,1295.112172113615 2342.7958229333162,1293.8419023031602 2329.090643342235,1295.0020853502792 2328.3679997154977,1294.9355839317432 2329.563667626702,1289.7218997851014 2328.8692772978684,1288.5814600554877 2320.912041813368,1286.8231581746368 2320.3353250133805,1286.592641190975 2319.9648281600093,1274.6027276564855 2319.6785086578457,1274.3834322218318 2324.4795303823194,1271.2597965815803 2325.7925805511186,1269.2285781750688 2317.524558791076,1262.7074309547897 2316.117719324422,1261.5331454564002 2316.6856979910517,1257.6471278753597 2317.833888711175,1253.7169983749045 2312.7325664712116,1249.2802940754336 2311.256695751101,1248.742328584427 2313.344818346668,1241.495620439062 2314.2381468444364,1241.1585375093855 2311.2534917689627,1235.913460316835 2310.7181354666827,1234.9983680058504 2297.391317048925,1222.326463591482 2296.2390485333744,1221.2229803426308 2311.8811810133047,1198.1550874996465 2312.8645122844027,1198.3614228054066 2312.2018705067458,1186.7092423603171 2312.246726257843,1186.5195296660531 2299.393223395571,1171.3226495796698 2298.4521264355863,1169.5481204246753 2288.4621098666685,1166.435129057616 2288.6316296533914,1165.7733204541728 2267.656905671116,1176.1107044179225 2266.822996480041,1176.0706919988152 2257.6718407111475,1152.6603756550467 2257.2375554845203,1151.1051143968361 2271.689845475601,1140.3092556190677 2272.1223830755334,1139.7548350138823 2268.0102175289067,1133.4560147995944 2268.064393955632,1133.2203900836175 2291.6794905599672,1100.2007455418352 2293.2712871822296,1098.164792430005 2301.705624746741,1103.8799845747417 2303.695006435504,1106.162781684543 2299.308754773345,1113.156285651843 2299.281666559982,1113.3109847778105 2315.459737884463,1121.6929057756788 2317.3527088356204,1122.4830086173024 2346.381079040002,1118.5324659098405 2348.9381481244927,1117.092984658375 2347.284019484534,1114.0084786085645 2345.244247893337,1111.2378275269293 2347.9618073600577,1107.7412976870546 2348.103073848877,1107.547469126759 2338.368502044468,1104.2289716466912 2334.8712098133983,1103.2386744077085 2340.5038105599815,1094.57180846337 2340.786052266718,1094.4679173254408 2337.01030485332,1090.007747847354 2337.1533189689508,1088.1848854713608 2348.992033280083,1051.434308964759 2348.9981499733403,1051.3097050020006 2371.1257250133203,1033.9949126006104 2371.9066228622105,1032.9426653187256 2379.0459690666758,1022.0379546667682 2380.9680671289098,1019.4951386620523 2379.1336416711565,1008.9568940855097 2379.1132526933216,1008.7602785466006 2394.666547484463,1005.8956106123514 2396.9958425599616,1005.5253201890737 2391.0509991822764,995.1686327639036 2391.127603484434,994.545902084501 2399.8447652978357,985.58360355068 2400.0964235378196,984.8164051109343 2403.2334134045523,938.4973871354014 2403.57565696002,935.624148477451 2410.913358791149,913.1189583030064 2410.9381168355467,912.4194739071536 2401.558313244488,882.8711934893508 2400.386820835527,879.2917818771093 2391.0402221510885,866.3840752065298 2389.561147448956,864.8483896616963 2414.3349205333507,851.0816647933098 2416.565474702278,849.7917075201985 2402.7542724267114,826.3482796809403 2402.626404408831,825.2846769298194 2417.471619128948,799.997597616748 2417.747452871059,799.6224551973282 2434.968857315602,796.8244038743433 2436.07248355553,796.6366048461059 2437.7298161777435,775.4174291904783 2438.211287324433,774.931445699418 2499.471718684421,768.7608478226466 2500.0035797334276,768.4802391253179 2506.2064893156057,743.3199320089188 2506.9710759822046,742.0162756568752 2515.3189060266595,736.1344095432432 2516.5821488355286,735.6321213904303 2524.6518149689073,712.782421952812 2524.8251212800387,712.3548683546251 2535.2202959645074,709.1673375829123 2535.8683741866844,708.7429306886625 2537.193657742231,698.5235767823178 2537.4036642133724,697.8152959596482 2542.999856071081,695.2308625135338 2543.521813902189,694.674412335502 2539.003325155587,685.2213015224552 2538.952352711116,683.6392848732648 2544.6935975822853,661.8368395812577 2545.164291697787,660.1681311866269 2540.5986170311226,649.2123816229869 2539.7786888533738,648.3304359134054 2529.125739235664,648.2781589993392 2528.523681848892,647.9221348556457 2513.049904071144,667.0961393981706 2511.960258844425,666.0682628805516 2510.317489777808,658.693186053657 2510.2557403022656,658.5093241848517 2515.9500905245077,652.3994342739461 2516.1522326755803,651.4354819303844 2502.866192213376,622.1282209267374 2502.58249415108,621.1064431085251 2496.1340430222917,590.5915323350346 2495.3537277155556,587.7678156378097 2497.216697742231,570.7228636752116 2496.27967857779,568.5187790851342 2480.5580290844664,558.5029657067498 2479.2266288356623,557.8217330711195 2446.693393351161,551.5629497887567 2446.065121564432,551.4019918261329 2433.9095042845,537.9149167148862 2433.327544604428,537.5992930529173 2411.1772504178807,539.3392755447421 2411.0575379912043,539.2887761184247 2381.2963296711678,561.4758382824948 2381.2005014755996,561.5637524612248 2369.5977167644305,553.9434906925308 2367.48541866662,550.9605966933887 2350.232265671133,554.8722553040134 2349.970995484502,554.8988557857228 2336.0852278044913,568.7559142270475 2335.779393137782,568.8979246927192 2336.930496568908,576.4081181864021 2336.5701942044543,578.3817609054968 2330.584572871099,573.6518408675911 2329.667942684493,571.1177842368488 2320.1326003200375,573.5630299149198 2320.005023573409,573.6067591701867 2316.130826524459,560.9479016246623 2315.854118968942,560.2337649539113 2310.675318613299,559.6418052006047 2310.280063715647,559.4249482561136 2305.6310855111806,572.6934019802138 2305.6031234845286,575.7738258459722 2293.605083875591,587.5153743106639 2290.3329442134127,588.8253613155102 2301.305709511158,604.1912024398916 2299.82576099562,605.9879003748065 2274.080016213353,590.6821394987637 2273.2050377955893,590.1335373406182 2267.6365166933974,578.8771974294214 2267.2945644089486,578.735193444998 2238.5915440355893,575.9419788631494 2237.777732551098,575.9149301291909 2219.136090168846,583.5943821353139 2217.899353031069,583.2238271575188 2178.0627857067157,543.495067818556 2177.6194710755954,543.1217395949643 2173.654979982297,549.0335966777056 2173.46274104889,549.5746372364229 2164.4461525334045,547.5168725067633 2162.1398678756086,551.6184058660874 2143.697746204445,547.7630478348001 2143.273072924465,548.0177894118242 2131.7157265066635,530.5625706302235 2131.67698744894,530.3907754590036 2124.885710222181,533.0465964834439 2124.551330986782,532.9117771441815 2131.381056000013,526.7361506590387 2132.255160604487,525.9461484705098 2121.2652103111614,516.5718691928778 2120.8769459200557,515.9116998804966 2125.514273280045,505.1448867181898 2126.126525155618,504.32278834853787 2123.0606054399395,496.8060593388509 2123.570912426687,495.91808693960775 2113.04874353786,494.55026866472326 2110.788770986721,497.0883697674144 2094.770898773335,487.6573805884109 2093.740964124445,489.0031434124103 2091.783913528896,481.93238407792524 2089.6748194133397,479.6146514220163 2092.6408331377897,477.20714205352124 2092.8951128177578,476.9938114506076 2088.3326421333477,475.5464953718474 2086.4061750044348,474.3851176397875 2060.9991785244783,490.04628429806326 2059.325534719974,490.1270113791106 2063.9520850488916,483.26555405557156 2064.0767490845174,483.1058988102013 2058.211713991128,476.3177369805053 2057.630045582191,475.52214032935444 2048.9766721422784,490.0354605530156 2047.934795377776,490.29477929580025 2043.1661047467496,471.7827070732601 2043.0359065600205,471.27169283211697 2025.9968378311023,446.363148760458 2025.5316778667038,445.41091785253957 2028.4740986310644,415.9131610803306 2028.6153651200002,414.2200172559824 2039.2240415289998,401.187378418399 2039.8779451734154,400.66491973999655 2019.7869377422612,387.74427260266384 2019.1339079111349,387.40857916208915 2000.6271240533097,390.8710697963834 2000.13108935114,390.66532520897454 2002.2996027733898,383.15506398055004 2002.568154737819,380.6021029409021 1949.8807059911778,363.14930204930715 1949.5795316622825,363.0432579672779 1966.1732468622504,363.5369265754125 1967.6013491200283,363.96065038698725 1969.4608238933142,359.40298160962993 1970.0212295111269,358.3073219115031 1961.2149387378013,332.45393482322106 1960.7439533511642,330.6676239212975 1985.5841362489155,308.2959796723444 1986.6207701333333,307.4085950416047 1981.6671223466983,300.26109044323675 1981.5217780622188,299.18048114381963 1984.0910805333406,283.64421320555266 1984.0875852800673,282.1093949403148 1968.8092504177475,275.1330585986143 1967.5978538666386,274.5412289503729 1945.6016420978121,290.1079368488863 1943.0626318221912,291.48561200057156 1938.1657819022657,286.1653545089066 1937.7644103111234,285.8227337914286 1951.5327957333066,274.7989978196565 1951.7340640712064,274.28752269095276 1944.7458875733428,263.14176239899825 1946.3531215644907,258.93593989673536 1918.645665848977,242.51954536687117 1918.5078946133144,242.32494854339166 1924.0737942755222,242.98233293986414 1925.1841197512113,243.1290702582337 1928.3304302933393,234.77572216565022 1929.4422121244716,231.40196438832209 1911.393888995517,214.23075249179965 1911.054849422304,213.4409743133001 1917.5059219910763,205.88081477058586 1917.8740886755986,205.10545688832644 1907.5220221155323,196.8183935659472 1906.5785949866986,196.55872626404744 1910.1163739023032,183.59800022718264 1910.046760106692,183.10392478539143 1934.1535223466344,186.95217387733283 1934.6900437333388,187.0054644929478 1938.989496604423,177.4021049089497 1939.2318341688951,177.40436308493372 1932.3916233956115,134.74822131480323 1932.3077373155393,134.1935042423429 1926.1703637333121,133.4178917707177 1925.9609398044413,133.38130194717087 1930.2874808888882,120.97067383280955 1930.4945746489102,120.708657554409 1909.3118830933236,106.66864269948564 1908.9093464177568,106.49696565140039 1887.965497173369,103.28070673585171 1887.8396680533187,103.35299289005343 1885.6338719289051,85.10088257223833 1885.7786336711142,83.05681143898983 1892.11960576009,59.99281425506342 1893.3677024712088,56.5101616816828 1896.7822737067472,31.99942818679847 1897.7894892089535,27.465558219584636 1894.9862960355822,24.12881923315581 1894.8724090311443,24.020802585291676 1871.8217958400492,38.20351868617581 1870.6272930133855,38.339095617993735 1862.3618926933268,31.850741161732003 1861.9846966045443,31.645561939687468 1844.4475542756263,34.58087188011268 1843.4659706311068,34.5713813342154 1824.5883986488916,21.872661243134644 1823.7442949688993,21.20150397485122 1796.120142791071,54.07538986217696 1795.695760782226,54.97329421201721 1815.2618976711528,63.475863135477994 1815.6653081600089,63.64892963122111 1823.0528173511848,92.52787470677868 1823.2019481600728,92.86718434782233 1840.409080320038,107.73800695640966 1841.0283227022737,108.31221771030687 1832.5878684445051,127.70167387463152 1832.7335040000034,129.02887610171456 1837.431707022246,132.03470182942692 1837.9685196799692,133.43279873405118 1837.8514286933932,147.04378677415662 1838.051823217771,148.66944178531412 1861.0348615110852,168.56161868182244 1861.253314844449,169.0914075691835 1864.6128358399728,183.13418355118483 1864.7535197866382,184.0884615802206 1858.8660568178166,210.58077031886205 1858.529347413336,211.4455186094856 1849.4556697600055,196.47969702398404 1849.175175679964,196.26247936533764 1834.4799655822571,193.99726113508223 1833.1858480356168,193.9873259156593 1828.0251064889599,212.91400237905327 1828.1896746667335,214.48678631405346 1823.3041843200335,212.10073814122006 1823.0769928533118,212.2348524411209 1821.4301459911512,226.6424029711634 1821.4933518222533,227.4018807830289 1824.980158293387,229.5723833712982 1822.0365724444855,233.70562530204188 1813.326692408882,230.42486527824076 1811.4005165512208,229.3899662598269 1809.3400647111703,237.45229591988027 1809.1944291555556,239.0917262971634 1790.8484269512119,242.24503286043182 1786.3369287111564,250.5448201947147 1775.9324333511759,242.28341045195702 1775.6251423289068,237.7525505447411 1776.8706176000414,228.64765347260982 1777.577532586758,227.31563819176517 1782.8215776711004,229.5565799147589 1788.9146780445008,216.964473774191 1793.6967671466991,211.99100819812156 1765.5191998578375,198.3375539931003 1763.8376917333808,198.28562091873027 1751.4304162133485,225.08280113415094 1747.670979982242,227.3562760662753 1764.2868317866232,231.23219147406053 1764.7645164089045,231.50355715944897 1763.4258343823021,245.0781839938718 1761.3112061155261,247.13970162370242 1755.2449026844697,238.86913291946985 1754.5519687111955,238.3657008126611 1735.7172135822475,242.85817051655613 1734.6712590223178,242.8094085273333 1740.046958648949,238.09840724029345 1736.7652070400072,233.49837808829034 1721.293176888954,243.4369925565552 1721.3260905244388,244.91248517052736 1708.4845297777792,235.4904717071331 1706.018628551159,236.54791746509727 1698.5757778489497,244.80322320730193 1696.316970382235,250.5087014748715 1702.4059929600917,255.0650308317272 1702.849890133366,255.99912981665693 1700.1023297422798,264.67581103451084 1700.4093294934137,265.7624599204282 1725.1359166577458,289.5346553103882 1724.9128029866843,291.4941885879962 1703.50961920002,298.33052445959765 1701.0177948444616,299.0382953117369 1689.137720035622,292.355908208061 1687.833408000064,291.08296341181267 1678.4434099199716,310.0043880511075 1678.1323323734105,310.1190337361186 1656.66128241783,301.73439375817543 1654.3069380266825,298.1910463873064 1651.5832618665881,344.1909610670991 1651.2919907555915,347.797644653474 1638.960154453409,397.62218220112845 1638.8334515200695,398.53446649748366 1630.9461211023154,382.6104528433643 1631.016317439964,382.51118637551554 1608.1809535999782,364.47191561746877 1606.693140764488,363.55407409381587 1602.4633016888984,366.5832974856021 1601.2708377599483,365.7484940990107 1601.9736749511212,351.23549157893285 1602.7670974577777,349.7322863531299 1595.1057934222044,333.6147131588659 1595.1774461156456,333.11375592451077 1588.2003379199887,329.76769318967126 1587.7619748977013,329.71534003398847 1585.9927941688802,336.15513536176877 1585.9747353600105,336.26209510851186 1548.8335908977315,299.9469288922264 1548.7144610133255,299.8778674562345 1551.0434648178052,281.2462806372787 1551.3629892267054,280.1240463757422 1566.2283016534057,256.9860468789702 1566.5737491911277,256.22576898755506 1567.4324164267164,242.0111551565351 1567.6045576534234,241.32938667596318 1593.2713679644512,200.9992204166483 1593.7123524267226,200.4749279844109 1598.60192056885,171.02356791315833 1598.7638673066394,170.45132865814958 1621.323106133379,139.1732591604814 1621.7967129600001,138.30009372736095 1607.1376204800326,131.71307051554322 1606.1461336178472,131.49036765674828 1602.9468117333017,118.83116619545035 1602.9721523199696,118.27821571065579 1595.607944817748,117.72707085998263 1594.8812233955832,117.19580204767408 1596.2694215112133,112.07007582485676 1596.2443721955642,111.54285918950336 1572.3682966756169,103.31368729670066 1571.7123541333713,104.11244785122108 1557.4019131733803,77.2385139168473 1555.7442892800318,76.02034330787137 1547.8619104711106,72.50631678261561 1547.3396613688674,71.54793609445915 1521.5123606756097,86.91314979130402 1520.641751324525,87.93516969610937 1515.308577280026,84.87903581326827 1514.0980545422062,85.09681613667635 1505.9916882489342,95.85814665275393 1505.6168223288842,96.57289925194345 1499.5047893333249,95.97200120578054 1497.981150151114,97.51535706670256 1492.0243646578165,114.7088504935382 1491.619789084536,115.33002633345313 1479.6473813334014,109.5559593498474 1478.7887140978128,109.22300051350612 1492.5224382578162,89.57843393250369 1493.5943159466842,88.83022387011442 1489.2453469866887,84.60793967137579 1488.233179875533,83.5375584490248 1471.4955767467618,92.63314659590833 1471.1256624355447,93.05016735754907 1471.1510030222125,101.5304709210759 1472.102003200096,101.78437796782237 1463.6166931912303,115.74429316574242 1464.0005885155406,117.41355013567954 1432.153587768902,102.54474196583033 1430.6153850310948,102.720488229068 1418.4364660622086,120.84192449395778 1417.5879933155375,121.75852778228 1404.434189937776,123.56326278240886 1403.8356278045103,124.30593287787633 1401.5686647467082,149.6496169239399 1401.6374047289137,150.02949006884592 1379.0432133688591,140.86447084357496 1378.912432639976,140.86672939744312 1363.9949826843804,167.18994275992736 1363.80478264892,167.56436552439118 1339.8037518222118,185.85474559478462 1339.8890942578437,186.05797347065527 1283.5126968888799,199.04068144550547 1282.8287923200987,199.32744118897244 1272.166522026644,214.4899472235702 1271.787869582302,215.24675795505755 1274.6790266311727,225.32256693544332 1274.9627246933524,226.20712436630856 1270.0457770666108,237.99410847731633 1270.0530588445254,238.4587116749026 1277.9214566400042,247.93387284700293 1278.4859400533605,248.96416913031135 1286.1705457777716,273.8523390260525 1285.8070394311799,274.02749604108976 1269.547120924457,264.7186992317438 1267.1578239999944,264.15618599631125 1253.0678752711974,267.92445527447853 1252.292220302159,267.93258133903146 1241.5055772444466,243.94267046247842 1241.005173475598,243.4862059041625 1229.4452056178125,246.6051356268581 1228.835866453359,246.67015048011672 1213.260435057804,239.45428662758786 1211.6106754844077,238.6871750811115 1204.6650245689088,244.82760398066603 1204.3385096533457,245.89764635416213 1189.8646656000055,241.2625642202911 1188.8813343289075,240.88330124679487 1186.4113553066272,248.31312357785646 1186.0685292088892,249.17997991852462 1171.351765048923,251.2527458971599 1170.9562188800192,251.39044801529963 1169.4025787733262,253.19591792020947 1168.0752563200658,254.75938230217434 1171.354386488907,258.8686713606003 1170.4630968888523,260.3490258337697 1158.1347558400594,256.3101942759822 1157.9926155378344,255.893485182547 1139.8542896355502,275.0572178179864 1139.317476977827,275.1524702227907 1141.2404488533502,261.0153852314688 1140.8300478578312,259.8280361080542 1131.9439488000935,247.30855919211172 1129.8805842489237,243.84875893988647 1120.8913752178196,241.95787796127843 1119.3569590044208,241.80933384795208 1119.690464426647,235.1577048394829 1119.7242518755374,233.31144906010013 1128.445782755618,208.76998082199134 1127.350894648931,208.00637406716123 1144.0293697422603,191.42086295690387 1144.145586915547,191.4673783907201 1143.656251448905,180.95238030393375 1144.1528686933452,179.2759312868584 1155.2261225244729,163.9772877546493 1155.627785386634,163.16022793023149 1166.3252994844224,89.34665174171096 1166.375106844469,89.10086295078509 1158.9328386844136,85.77636164153228 1156.9955945244292,84.05942078121006 1141.778717866633,118.42142279248219 1141.0747155911522,118.9093200317584 1123.131250062259,111.93680353078526 1122.7505587200867,111.84916001174133 1115.3878075733082,117.56398592848564 1114.883617280051,117.87118182005361 1118.4793591466732,139.14028401608812 1118.02905400889,140.15980090096127 1079.7196211200207,126.75573244132102 1079.3569885867182,126.83840083889663 1072.682219804381,129.64459039270878 1071.9348181333626,131.3887283455697 1070.1504913066747,150.161835729843 1070.1877740089549,150.658695857157 1066.749609813327,143.25671799102565 1066.6258195911068,142.90167692489922 1050.6953287111828,156.44929142441833 1050.2453148444183,156.98678821645444 1045.4358462578384,144.73424274113495 1045.3659411912085,144.17638911120594 1026.958189511206,132.32245303870877 1026.7569211733062,132.01121191796847 1023.5194427734241,115.45290599932196 1022.2063926045084,111.68968485854566 1012.9451363555854,98.56488703575451 1012.5466774755623,98.18944232724607 1008.2067379200598,67.65201427880675 1007.4401123556308,66.1572487372905 988.8174025955377,55.10343806887977 987.5069738667225,54.951603561639786 979.225262364489,71.02830312761944 978.8087446755962,71.00028809776995 977.5725900799735,69.69216294132639 975.6065100800479,66.0212372172391 981.809419662226,57.065979948674794 981.7849528889637,56.643919702852145 977.2271425422514,50.78063219343312 974.8462924800115,47.20880744664464 972.9585644089384,28.602650085813366 972.847881386755,27.67706860182807 965.0578355200123,11.537062438437715 965.1108468621969,11.136609151028097 933.6908495645039,5 932.9862647466362,5.062826879322529 919.3116686223075,22.862444963597227 918.446884693345,25.79651717946399 911.2303516444517,18.46939803636633 910.2097376710735,18.627585417125374 893.2248453688808,29.988755251048133 891.5660563911078,30.570401584962383 878.7673124978319,52.84308130160207 877.4201836088905,53.801092225709 879.6163677867735,62.90289005031809 880.7374702933012,65.37506837246474 885.8620942223351,66.20559832709841 885.9264651378617,66.89423991926014 877.4251352178399,79.38701413164381 876.603750684415,80.46916343516205 883.7477572266944,92.7601053303224 884.0026194489328,93.12381232797634 876.8877400178462,98.23281503422186 876.379471928929,99.07090054312721 878.6863391289953,112.08588778646663 877.9185484800255,113.72490434616338 868.0511570489034,124.81053149537183 867.0646217955509,125.46149361127755 822.9119991466869,146.98280753707513 821.7442932622507,147.58040332590463 824.5655452444917,141.25474860251416 825.0333266489906,140.27408406534232 815.4435165866744,135.06804126664065 815.274870613357,134.6533593746717 821.462342826766,119.55894447828177 820.9928137955721,118.28499207313871 806.1490554311313,130.23861977591878 806.0206048712134,130.25623735273257 810.2993774933275,101.88874181057326 810.0401462044101,100.87491951161064 790.3895406933734,78.3138962679659 788.587446328951,73.82075096853077 782.5059968000278,78.83080085739493 778.6073329778155,80.79267759248614 774.0594258488854,78.63153970520943 761.9230324622476,77.10296114365337 743.958012871095,84.08427133737132 743.3772182755638,84.02643731143326 706.1961696711369,69.21771146554966 705.6742118400289,68.95653678453527 689.0636029156158,53.45132834732067 686.4509010489564,51.541625763173215 672.0868662045104,52.90318305394612 670.4353590045357,54.13955828745384 667.1865210311953,58.80708280671388 666.6660195555305,62.34211603971198 668.964148622239,103.63310151163023 669.0235679289326,105.50982000556542 663.3152366933646,113.83829781512031 662.3479253334226,117.9506912746001 677.5633456355426,128.26905607269146 678.2341430044034,128.85992704925593 676.9761430755025,138.15554453455843 676.7125427200226,140.06991014850792 681.2930722133024,149.33794880862115 680.439356586663,152.8439636140247 678.4424018489663,157.14713364187628 677.1165357511491,156.82824938429985 663.549127395614,146.4954247267451 663.0394029511372,146.63364461483434 652.2818870045012,171.71233061573002 652.2987807289464,172.23714375437703 650.3557111467235,166.5106506048469 649.5366567822639,165.3647919613868 642.7188738845289,167.43338537833188 641.9577824710868,167.63075887889136 642.7742153955624,182.39397164504044 643.1752957155695,183.55012824980076 629.7415808000369,194.7545944857411 627.9706524444045,195.23825680778828 634.22249557334,208.11881544231437 634.6757134222426,210.06056499807164 621.2880193422316,209.9503824620624 619.4588367644465,210.83951781655196 599.2090865777573,242.83424102317076 599.0159738311777,243.78013126325095 606.3152278756024,241.072029808769 607.5106045156717,241.86983510991558 612.2539545600303,253.25957637670217 612.8627111822134,255.18873484164942 602.3696694044629,281.04088421032066 602.3221922133816,281.5388009295566 616.2997102934169,289.10401606274536 619.0391150932992,291.1922022278304 612.5463907555677,295.45021648943657 609.9339801600436,296.6594900460914 623.444008106715,308.0062033989234 623.5558562133228,308.17501392262056 608.3820876799291,322.253081737319 608.2332481422927,322.4543774012709 606.5715464534005,335.3531612466322 604.7930450489512,337.23104874044657 585.5857541689184,314.85330635186983 585.4208947200095,314.61950637522386 565.9191287467256,326.6129418419441 564.8405518222135,327.57155779912136 579.0283676445251,342.83618290617596 579.6374155378435,343.0388134851819 575.386022400111,344.5244644623599 574.6502715733368,345.12603289901745 589.1069306312129,350.8284403292928 589.7515136000002,351.2675321660936 600.9156440177467,368.0060658532311 601.9272285866318,368.21363674046006 575.179511182243,401.81360530946404 574.7431870577857,402.27740908350097 565.7877654755721,402.9049863584805 565.5393112178426,402.9564196426072 540.3379521422321,431.45807154255453 538.9302388622891,432.65982599335257 516.0500192710897,436.96154752216535 515.777098240098,436.96605851122877 515.0462990221567,443.3747266138671 515.9000146489125,444.65670833410695 465.40933262219187,523.684796516085 455.0756161422469,539.8821436407743 517.337146311067,580.6745541760465 519.0174893510994,581.8042621918721 504.8529752177419,604.5342259404715 506.0964115911629,611.9021146155428 506.0291279645171,615.7234386160271 493.9072981333593,624.2154813765083 486.63105450675357,622.9471721759182 483.69038136897143,629.7037409906043 482.86491904000286,631.323105066258 485.9322951111244,632.4683258030564 487.23049045330845,634.5735152200796 485.80704853334464,645.5565875676693 486.1807493689703,647.4836385000381 450.45197852444835,673.174977167917 449.72875235555694,673.205168157001 450.0450727822026,686.9975082320161 449.3058267022716,689.047652788111 439.86864270223305,684.512527036015 439.4748441600241,684.3922198863002 435.8776459378423,689.9952186030569 435.8354116267292,690.0398257370689 420.0756056178361,680.6072420608252 419.98414648894686,680.6022854993353 410.32734407112,690.8909641582286 409.967915520072,691.3302746466943 401.4124091734411,726.4159426648403 400.96676437335555,727.0980018475093 369.45589048892725,740.7518026579637 368.8034431999549,741.0919092241093 360.6242591289338,751.5268424518872 360.36997944884934,751.8025179456454 340.3567414045101,745.8637062615016 337.7087957334006,744.6952044604113 339.7905103644589,726.0911303778994 339.6824487822596,725.0905613423092 316.8616484977538,676.4243147827219 315.3825737956213,672.0020314853173 296.5184002844617,692.5900770621374 294.82902784005273,693.8863683253294 265.426374257775,702.8471038823482 263.4885475555202,703.7788407143089 219.52845511119813,682.4123241791967 218.63949567999225,682.2793992692023 223.6819811555324,691.1752769956365 223.30973667558283,693.0694849451538 208.86909752886277,697.2683141619782 208.36548977775965,697.1164746560389 202.22695111110806,708.8406975302496 201.7288775111083,709.5097459420795 204.44672824896406,713.274850930844 204.21545898669865,713.4983133035712 191.9648873244878,712.0313867841032 190.96116707555484,711.7232228374342 189.05567146663088,717.2606465168064 189.6556899555726,719.0807437792537 202.39501454227138,716.0586531902663 202.73551047116052,716.4789911878179 192.68694840895478,725.5658434673678 191.78400796442293,725.9325533302035 152.46211669337936,733.4517720047734 150.63409920001868,733.5693492512219 137.3739818666363,725.8492102336022 136.65891128883231,725.675766390108 116.95966350228991,725.4811487187981 115.18320099555422,725.7027966085006 109.88323185779154,731.8759605115047 106.61924778670073,733.415732989437 101.14509852451738,728.773858178989 100.33915136009455,728.1728939709719 79.63996984891128,749.8646740249824 78.65663857781328,751.3151306440122 97.3096405332908,756.9001997282612 98.05354695115238,757.9497209519614 98.62997248000465,763.9057711473433 98.80852167110424,765.6736819364014 92.7014402843779,772.1137110620039 91.67907868442126,773.2383770805318 67.2029846755322,768.1766588452738 65.87100188445766,768.368986460322 57.770461013307795,783.8086940110661 56.47110058669932,784.6464066085173 44.641706951195374,781.8414079463691 44.530441386741586,782.1413661678671 63.12984945776407,786.8077803736087 63.831521564512514,787.0843121715588 68.39690496004187,794.9045227563474 69.0875087644672,796.4199827451957 67.78232291562017,813.9359568826039 67.75232199113816,814.3727687593782 59.60109994665254,830.5738205780508 59.031373653328046,831.9818657941651 60.33976348454598,858.0842216417659 60.873372160014696,859.0252026880626 54.01655893342104,875.0514246569946 53.50537813338451,876.44567794248 53.92335217783693,882.5790263793897 54.17093262227718,884.9928822355578 62.24933688889723,893.5005889990134 61.50717809784692,895.7230091670644 53.236826168955304,901.80225064978 50.79917824000586,902.5377801536233 43.4172032000497,920.7528254445642 42.62552832008805,923.0811919613043 19.120240924414247,928.0754163485253 18.664984177798033,927.8467719385517 5,941.7355863176053" stroke="red" stroke-width="3.8796066696388873" fill="none" stroke-linejoin="round" vector-effect="non-scaling-stroke"></polygon></svg>