<svg viewBox="0 0 11696.534825013325 17024.618155363496" width="1000" xmlns="http://www.w3.org/2000/svg"><polygon points="8.052550000022165,15797.45400284839 11.527414355776273,15861.315211900306 13.051344809005968,15874.020275149582 27.93413350218907,15949.27341030442 31.36006431118585,15961.596926976024 63.08764390228316,16057.039087280486 67.82545979553834,16068.913637982827 114.73554605350364,16159.597158567427 121.68294459558092,16170.312649882486 168.085927848937,16231.174654812814 176.57152912882157,16240.701503794902 241.45508184004575,16301.865229428076 251.4547103556106,16309.764005864708 314.8233620177489,16352.38120929731 325.899819831131,16358.656685383263 406.8647418578621,16395.580827964033 419.0489037067164,16399.89128195928 431.3245246844599,16403.928481878975 2278.9955362400506,16989.45413281108 2352.9277172890725,17007.658121954155 2365.465773537755,17009.741687761765 2492.172784666647,17015.3101034415 2504.8436605422758,17014.33450875894 2567.714529875666,17005.299603343912 2580.1503499643877,17002.66758925884 2653.3013418933842,16981.20641370045 2665.1948151735123,16976.700731762772 2788.188410906703,16910.52928502913 2798.518632133375,16903.078565630974 2900.315264026751,16807.116196516174 2908.3785221956205,16797.22729789748 11369.342926533427,3203.27372626288 11375.625061857747,3192.0492564448214 11412.598434159998,3109.995696894446 11416.849827297963,3097.8429607636936 11439.11109577783,3010.567241699755 11441.567967600073,2995.4344723156246 11688.196246782318,971.3483724757389 11688.482275013346,953.189911998139 11685.020517857978,888.7826940325613 11683.492218337837,875.9679697873362 11665.08184521785,787.6256767239247 11661.365517111146,775.271810275357 11633.531358462293,703.1247705484566 11627.990216844482,691.4833035911724 11582.335509075667,613.7768914788321 11574.86935668462,603.2801789664954 11516.495422035456,534.7327301513578 11172.759684577817,181.52289350368665 11072.920685822144,100.81288685809704 11062.02656372462,93.98961614529253 10993.795432133367,58.215946195152355 10981.996330693364,53.14099780356628 10909.148551991093,28.23612094114651 10896.719431137783,25.02801960441866 10820.953407173394,11.573387072217884 10808.18349912006,10.30673494542134 10718.452773004537,9.320971230074065 10705.65839817794,10.30673494542134 10642.175276968977,19.43443076548283 10629.618579368806,22.093435170856537 10543.752147084568,48.32659188125399 10531.845857875654,53.14099780356628 10462.854799955618,87.40742957810289 10451.81533357338,93.98961614529253 10369.25861492462,154.94628145449678 10359.802207031287,163.47962061248836 10315.386275297846,209.11686603087583 10307.105437608901,218.80848321088706 7740.355375244631,3297.9384496604616 6824.365402480005,4396.780548005569 3361.9354106578976,8570.78572261965 3354.022157111205,8580.556021264201 3293.3098979822826,8674.229317969905 3282.769379013451,8695.501434456994 1210.1910488443682,13104.860026309587 63.8563083645422,15546.837246202136 24.726656026672572,15658.018241252954 21.84219821332954,15670.48260493626 8.052550000022165,15797.45400284839" stroke="#009edd" stroke-width="5.526569083235743px" fill="none" stroke-linejoin="round" vector-effect="non-scaling-stroke"></polygon></svg>