<svg width="213.01742080005351" height="235.63472209864995" xmlns="http://www.w3.org/2000/svg"><polygon points="5,139.51963843940757 12.021672675502487,145.5667697211029 13.402589013334364,146.57363128033467 11.978564551100135,162.85779995506164 11.712634026654996,163.5285373403458 18.48730879998766,179.21878442971501 20.105319822207093,183.24017047940288 48.157057991134934,178.00730257370742 51.69134165334981,178.16922477423213 52.52262940444052,190.559300124296 52.572728035622276,195.4910501766135 58.130180835491046,202.77233780763345 58.28542833775282,203.1105769246933 89.54027491551824,214.1481595733785 91.7816061155172,214.6320416602539 98.10772337776143,208.68062342947815 98.9072625777917,207.0363673210377 118.95749205327593,217.3797320270096 119.70343736885116,217.85143118340056 129.1146982400678,230.2500798687106 129.67510385776404,230.37273256422486 147.04680419550277,230.11389922176022 147.4277868089266,229.9515645648935 150.93789496889804,226.452772483055 150.97954673785716,226.11186385521432 147.4641956978012,217.99438378610648 147.81721628445666,216.9039732426172 155.98970112006646,213.52853639947716 157.56576910219155,212.8151107445592 138.0101179733174,204.20015430892818 135.06128924444783,204.20556610351196 128.0672873244621,189.36366659554187 127.13201578671578,186.99989204050507 136.19200369773898,165.88625087367836 136.42851584008895,165.17176757578272 134.0363062043907,144.13947235792875 135.14721422223374,142.3097753789043 110.64956615108531,136.61082072602585 107.93142414221074,135.46451576577965 113.98898944002576,129.1924384913873 115.52427946659736,127.06305822898867 101.17043911106884,119.4296008507954 101.68657152005471,117.15891163120978 79.34054314659443,112.08688360184897 75.9082043733215,111.46426397189498 76.27054563560523,107.52141630195547 76.42754076444544,105.56598290876718 61.051338808843866,100.1792013006052 54.57696455111727,97.30189533811063 6.212852906668559,101.66183154529426 5.715361848822795,101.52015641797334 15.803828053292818,110.93593824235722 16.06946730671916,113.09750878985506 5,139.51963843940757" stroke="red" stroke-width="3.964001675009963" fill="none" stroke-linejoin="round" vector-effect="non-scaling-stroke"></polygon><polygon points="126.82618112000637,72.53392995643662 148.5416075377725,84.04468229529448 149.32600064005237,84.8519328929251 140.10960014222655,97.16879025648814 140.27824611554388,97.52433856483549 158.67580330662895,98.13075464934809 159.75991438224446,97.0799030889757 166.81391815107781,107.58864247333258 169.84808931557927,107.95816045603715 188.23778218659572,91.2286114365561 189.5886975999456,91.55213311919942 188.87624846224207,72.24196798575576 188.688087324379,70.44415955658769 182.77207978675142,63.678780004614964 183.56288085330743,62.18009734735824 207.94023395562544,45.5941700451076 208.01742080005351,45.45110462687444 179.59664213331416,25.33661851560464 179.2107079111738,24.243892181955744 136.81619768892415,5.666708198317792 135.55790648888797,5 134.74671644438058,41.86812027258566 134.75720220443327,41.92904819641262 129.0960568889277,45.5716045278823 128.37224817776587,46.25849782570731 126.82618112000637,72.53392995643662" stroke="red" stroke-width="3.0432960778718243" fill="none" stroke-linejoin="round" vector-effect="non-scaling-stroke"></polygon><polygon points="5,139.51963843940757 12.021672675502487,145.5667697211029 13.402589013334364,146.57363128033467 11.978564551100135,162.85779995506164 11.712634026654996,163.5285373403458 18.48730879998766,179.21878442971501 20.105319822207093,183.24017047940288 48.157057991134934,178.00730257370742 51.69134165334981,178.16922477423213 52.52262940444052,190.559300124296 52.572728035622276,195.4910501766135 58.130180835491046,202.77233780763345 58.28542833775282,203.1105769246933 89.54027491551824,214.1481595733785 91.7816061155172,214.6320416602539 98.10772337776143,208.68062342947815 98.9072625777917,207.0363673210377 118.95749205327593,217.3797320270096 119.70343736885116,217.85143118340056 129.1146982400678,230.2500798687106 129.67510385776404,230.37273256422486 147.04680419550277,230.11389922176022 147.4277868089266,229.9515645648935 150.93789496889804,226.452772483055 150.97954673785716,226.11186385521432 147.4641956978012,217.99438378610648 147.81721628445666,216.9039732426172 155.98970112006646,213.52853639947716 157.56576910219155,212.8151107445592 138.0101179733174,204.20015430892818 135.06128924444783,204.20556610351196 128.0672873244621,189.36366659554187 127.13201578671578,186.99989204050507 136.19200369773898,165.88625087367836 136.42851584008895,165.17176757578272 134.0363062043907,144.13947235792875 135.14721422223374,142.3097753789043 110.64956615108531,136.61082072602585 107.93142414221074,135.46451576577965 113.98898944002576,129.1924384913873 115.52427946659736,127.06305822898867 101.17043911106884,119.4296008507954 101.68657152005471,117.15891163120978 79.34054314659443,112.08688360184897 75.9082043733215,111.46426397189498 76.27054563560523,107.52141630195547 76.42754076444544,105.56598290876718 61.051338808843866,100.1792013006052 54.57696455111727,97.30189533811063 6.212852906668559,101.66183154529426 5.715361848822795,101.52015641797334 15.803828053292818,110.93593824235722 16.06946730671916,113.09750878985506 5,139.51963843940757" stroke="red" stroke-width="3.38085742137993" fill="none" stroke-linejoin="round" vector-effect="non-scaling-stroke"></polygon></svg>