<svg width="431.00006001780275" height="357.65797801536974" xmlns="http://www.w3.org/2000/svg"><polygon points="5,251.2409380126046 15.446438399958424,262.57501686678734 16.428313315613195,267.0629420558107 52.906524728867225,267.0236987811513 53.18439736880828,267.0227861467283 56.41663288883865,240.32886871905066 56.47896490665153,239.0834221817786 55.74496170668863,226.70752081100363 55.82185727998149,226.54184679995524 42.66688881779555,235.68567620398244 41.89909816882573,236.34651800850406 45.94572771550156,226.58794343832415 45.5740657778224,225.59115849784575 20.84485717327334,229.79323317541275 10.178217813372612,229.13784815609688 5,251.2409380126046" stroke="red" stroke-width="3.5574610114035776" fill="none" stroke-linejoin="round" vector-effect="non-scaling-stroke"></polygon><polygon points="8.70729870221112,279.35714524640935 27.018930915510282,293.15997187123867 31.112163839978166,295.76156322518364 39.18066488893237,292.4263010410941 40.20535665785428,292.6475888353307 31.768106382223777,322.10468141001184 31.745969777810387,322.16216276341584 47.0047894755844,320.4454710133141 49.77565155562479,321.15669308172073 72.01827868446708,334.25434966385365 72.71616426669061,339.9117671115091 102.41504056891426,330.138693283312 104.09538360894658,329.11136363539845 107.54636373335961,339.8570274466183 107.94511388451792,340.7068591854768 122.77984284446575,339.7388809561962 124.52776078227907,340.7127892932622 122.00884821335785,350.13050814555027 122.0781707377173,350.74994853232056 127.51882382226177,346.6574127036147 129.83501169783995,346.30617720691953 130.1542448356049,349.8846472952864 130.44143815117422,352.65797801536974 148.76676010666415,351.2179487114772 149.79727729782462,351.29822934250114 148.95229980442673,345.645670472295 148.7571481600171,343.38132134085754 170.87627633777447,340.99834659928456 171.2161897243932,340.8500940511585 175.4480676978128,331.35670214582933 175.91876181343105,328.6798107417999 190.04977976891678,332.00630407512654 190.15318101341836,331.9894253979437 187.97126911999658,326.8892676276155 187.76271900441498,325.21868897404056 209.87136142223608,322.8012996427133 211.31198833778035,322.6448230505339 213.61681664001662,300.5289371483959 213.96342926227953,299.49416721926536 230.34422528010327,298.1053412631736 231.78077439998742,297.9415468139341 231.8958264888497,302.62766169779934 231.91563292441424,304.0132650115993 240.50143146666232,305.6274338006042 241.26922211551573,306.1785661241738 234.07307804445736,318.3017542070593 234.43308913777582,318.6516664419323 262.5416251734132,311.2130585538689 263.09533155558165,310.8302861171542 279.92264618666377,320.766182728752 280.3479020089144,321.64118041598704 308.5977045332547,307.58422094758134 309.78667320893146,307.1640310253715 325.87590684439056,307.59015196131077 326.56476302223746,307.60748876980506 324.6281014045235,300.5526619741577 324.1559509333456,299.8705721961451 327.48110193782486,296.45096601411933 327.9375237688655,295.6233173988294 341.5448362666648,302.64499890303705 342.11980544007383,303.24130666803103 359.01760768005624,287.51365384669043 341.30512014217675,245.65604975132737 377.38283377781045,221.38078692223644 380.1484529777663,219.33467655151617 382.01812223996967,223.39036525890697 382.9539763199864,223.2999962492613 404.35395612439606,213.3632830545539 426.00006001780275,204.40474323229864 425.14372295117937,197.9139409555355 416.1265518933069,198.49045256734826 415.2480782222701,198.6041114453692 405.8202148977434,149.70566334354226 405.6879778133007,149.19431079830974 388.6346367999213,144.84274312766502 387.71247246221174,142.94886391307227 394.82764316443354,108.09451338998042 394.9558024533326,107.34012311819242 392.5836905244505,85.86127444927115 392.12697742227465,85.21002102340572 367.30689223110676,85.97088212647941 366.8504703999497,86.60934574436396 372.87541333341505,99.20331825234462 372.9898828800069,100.05866069160402 367.2824254578445,113.68340406450443 367.77234346664045,115.17524224717636 380.9392540444387,121.75893435772741 382.3015290311305,123.33747472299729 381.7734545066487,131.66697285551345 381.6473341155797,135.3435028999811 363.59231175109744,154.8939971922664 361.5301122844685,156.5389525030041 345.58505784894805,158.30670626775827 345.4053435733076,158.2797700453084 361.9035218488425,145.02902543509845 361.94662997336127,144.99158635671483 359.910062364419,95.82164570037276 359.8928773688385,95.76547432644293 340.5903408356244,94.16755247762194 340.17265806219075,94.1986068013357 336.7773107199464,79.97343389922753 336.52244849782437,79.60897806991125 324.85849685338326,91.4662659659516 323.95672149339225,91.66309795505367 325.07462001778185,84.58845123660285 325.2557906488655,83.93262695672456 302.3266375111416,84.61722342629218 297.3613388800295,84.70308327116072 296.3081025421852,12.136637186980806 296.1878075733548,10.526676965004299 263.2907744711265,19.414659357862547 263.33009607112035,20.029106755857356 209.74320213333704,19.6211504250532 208.0203335111728,5 120.13277098664548,51.61209690768737 117.70997788454406,53.414964425785 132.77947136003058,84.5076150642708 132.8653963378165,84.7167843070929 110.59043811552692,89.59064451605082 107.7470495288726,89.19149629294407 110.26450574223418,95.96367244247813 110.36499427550007,97.08207269955892 106.7226490310859,104.50017638038844 106.71245454228483,104.76732201548293 116.38615068444051,114.56197790132137 115.50097777775954,123.2803972417023 145.27354567113798,128.67027163819876 148.0202322488185,129.1428609758732 137.7197206754936,154.35800295090303 137.55369614216033,154.6355878682807 142.33636778662913,157.1927308854647 143.39572081784718,157.8624864431331 125.54254933341872,164.29513891518582 125.00107633776497,164.5197532805032 126.47607324447017,176.00992843316635 123.20597248000558,179.08221103984397 128.34486869326793,194.21701809449587 128.98974293330684,195.99678917531855 125.37128192000091,198.06822529016063 122.82906766224187,199.56815543485573 131.83866567118093,248.7766317902133 132.11479068442713,251.19575931719737 124.912529919995,253.65638727787882 122.17225130670704,254.53530659351964 97.32653425785247,244.98975996335503 95.38113450666424,245.14766170096118 63.88802815997042,257.32263462326955 61.85379071999341,258.60311417042976 53.27119615999982,275.0122966169147 50.75344867550302,277.23355546116363 22.69763271114789,269.80037109187106 20.361638400005177,269.1797867755522 8.70729870221112,279.35714524640935" stroke="red" stroke-width="3.1209037476694212" fill="none" stroke-linejoin="round" vector-effect="non-scaling-stroke"></polygon><polygon points="123.20597248000558,179.08221103984397 128.34486869326793,194.21701809449587 128.98974293330684,195.99678917531855 165.68291242665146,180.41108531388454 166.80139349331148,180.09107889060397 179.42857870226726,179.85461164382286 180.12122140440624,179.7226828939747 170.36800824885722,190.33470192237291 171.69445688882843,191.93784902221523 186.75870748446323,179.54190842126263 189.7716158577241,179.71446587576065 215.16754403559025,190.30183545686305 216.14097208890598,190.9911172311986 229.69672959996387,212.68685250589624 231.2995945244329,213.08440404897556 240.3962825955823,204.16328156518284 240.594055679976,202.36805812775856 231.0051194310654,182.5447537242435 232.04000568890478,181.17069923970848 259.06850844447035,161.05966185289435 260.1872807822656,160.82819578959607 278.26822627556976,174.74448228022084 279.8556538311532,175.5529626191128 287.7662859377451,174.27610098640434 289.91324529773556,173.03712258662563 293.38461439998355,168.03822475433117 293.631903573405,166.93571259023156 288.6706827378366,153.96262645133538 288.2972731733462,151.23103908105986 291.19367310218513,142.44754017412197 291.971658239956,141.75262502231635 307.4157263644738,143.1771530273836 311.17953166225925,142.0726880595903 322.06112910225056,129.29719427548116 323.43243349331897,129.13555525476113 335.1528917333344,145.342235032178 337.0374158222694,146.75715146266157 361.9035218488425,145.02902543509845 361.94662997336127,144.99158635671483 359.910062364419,95.82164570037276 359.8928773688385,95.76547432644293 340.5903408356244,94.16755247762194 340.17265806219075,94.1986068013357 336.7773107199464,79.97343389922753 336.52244849782437,79.60897806991125 323.95672149339225,91.66309795505367 322.7001779200509,91.62199616234284 325.07462001778185,84.58845123660285 325.2557906488655,83.93262695672456 302.3266375111416,84.61722342629218 297.3613388800295,84.70308327116072 297.3753198933555,76.01188489608467 296.9322965333704,75.15553408139385 283.8317957689287,71.99088882526848 282.93613710219506,70.8997628664365 237.9825188977411,91.49092706030933 237.18967893335503,91.76493902993388 231.73970517329872,96.35458801098866 231.2177473421907,96.4582535866648 235.83585080888588,106.30443050118629 235.82827775995247,108.10410307988059 224.06937173334882,108.43563209963031 223.06419512897264,108.5717141124187 221.91338296886533,117.66481281688903 222.2731027910486,118.26025979302358 214.882972160005,117.46891771012451 213.90022343117744,116.76433314656606 210.04233756440226,104.65772384603042 209.54746794665698,104.38418483966962 205.65259064885322,113.05597961205058 203.39261809771415,114.90947935578879 167.83831864886452,104.89792642835528 167.3650030932622,104.79061161936261 150.73109248001128,115.48255872365553 148.88822016003542,116.50770488806302 150.1165104355896,127.13195196079323 150.14505500439554,129.3661419566488 137.7197206754936,154.35800295090303 137.55369614216033,154.6355878682807 142.33636778662913,157.1927308854647 143.39572081784718,157.8624864431331 125.54254933341872,164.29513891518582 125.00107633776497,164.5197532805032 123.20597248000558,179.08221103984397" stroke="red" stroke-width="3.726310868590232" fill="none" stroke-linejoin="round" vector-effect="non-scaling-stroke"></polygon></svg>