<svg width="31742.660233102273" height="15505.818386145344" xmlns="http://www.w3.org/2000/svg"><polygon points="5,15388.554217567493 18.898292337777093,15448.890809458273 20.66223018663004,15452.373329320282 91.60480455111247,15408.41931518662 93.32359537784941,15407.75662836834 106.7005124266725,15417.256159880839 106.91372288006824,15417.613431010745 136.76872049772646,15419.992796233331 137.8650649599731,15420.050596097077 139.9284295111429,15411.104177421483 140.43669760006014,15409.187137288682 141.12963157333434,15409.398322026304 149.38862392888404,15411.859246276144 152.86377955565695,15402.412276560965 154.69937009783462,15395.922594722186 197.7463276089402,15411.78779020399 200.00163982226513,15411.972119514074 204.27546083554626,15431.668966649275 204.64537514664698,15432.977354026341 194.02009628445376,15456.618897373963 193.8016429510899,15457.388369260647 188.2995316622546,15494.186966028356 188.45361408009194,15495.320272597077 191.06573340448085,15500.181913262524 191.78925084450748,15500.818386145344 220.09497742226813,15480.189619256707 224.20423025777563,15478.607154838333 231.44989041774534,15484.604806931166 233.2851896889042,15485.67628628679 240.02054286224302,15477.534275624785 241.80370460439008,15474.05397914123 231.3147406221833,15462.225832330936 230.7103530666791,15460.929906969832 256.1837593599921,15446.426664261438 256.9058204444591,15446.090828457789 271.7842400711961,15428.538816969085 273.7439121067291,15426.479028264002 285.2508686222136,15386.067083497124 285.7454469689401,15385.204044959333 306.34384867560584,15378.380184359325 307.0163936711615,15378.194005716767 325.15617592888884,15354.153770064586 326.5516558222007,15353.795939263597 326.3241730844602,15310.06694367592 325.9257142044371,15298.571390637255 336.80439893330913,15298.553175770387 340.47849272890016,15298.759914419672 339.6792448000051,15268.798972106713 339.69118691561744,15268.570344065025 357.03579903999344,15261.035048062447 357.32677887997124,15260.760411300522 348.8723436088767,15242.764797534328 348.6413656177465,15241.842430896766 367.0884388977429,15238.342867905216 370.7272888888838,15237.647321331373 373.120081066736,15217.06186875148 373.36678769777063,15214.910330060811 413.23044323560316,15205.156390120159 414.6699050666066,15205.33223916468 411.9238010310801,15188.276040853001 410.94367374223657,15185.687288649206 426.59687452437356,15186.89009182417 428.0954643910518,15188.021358575555 430.8345779199153,15175.490074675705 431.2365320533281,15174.011550504947 428.6314032354858,15165.3930804673 428.146728106658,15164.86224624858 417.1328935822239,15158.89129705925 414.6171849955572,15155.57312073186 416.05810318223666,15154.505934865447 419.85802609776147,15151.22277891339 406.4796526932623,15131.71374754241 404.5526030223118,15130.818707971426 405.68040476436727,15120.880057138973 405.8041949867038,15119.589840313303 401.2670648888452,15116.922334855597 398.7935906132916,15115.90782647871 416.9805587910814,15097.799466839584 417.00706446217373,15097.576128109824 398.51251399109606,15091.514900678361 397.3483033600496,15091.214979929675 410.2484095999971,15068.385144837259 411.10212522675283,15067.162994434533 418.58750151109416,15068.598940675438 422.0725603555329,15069.404889829864 423.8752372622257,15062.003538372286 424.26000640005805,15060.40936107136 392.60699221340474,15048.127375299286 388.3337537421612,15046.017471596773 393.0555497244932,15040.10388753441 392.7103934577899,15039.838545236911 386.1911634489661,15036.717329518928 384.7132538311416,15036.415053393983 374.2790488178143,15064.111919012677 372.83143139560707,15065.845106520108 384.1240123732714,15070.268273215566 380.6552647111239,15077.961077175802 373.1748400354991,15075.954027400876 367.91739647998475,15074.388670673245 363.5492036266951,15084.42562956916 363.49357084441,15084.570124837512 340.75811299553607,15087.014222651662 339.64021447114646,15087.06846471905 328.7635686399881,15057.354999518604 327.7723730489379,15055.29350910132 310.25212444446515,15066.179707669013 307.8252535467036,15065.651821697655 318.1551835022401,15060.688354341488 318.50995171559043,15059.02213920682 308.5033326932462,15026.790780826297 308.0675911111757,15025.281606553646 293.69307050667703,15007.18711164029 293.192084195558,15005.95458470838 278.1400669866707,15008.17841752799 276.5342893510824,15008.426471282379 275.8294132623123,14997.476269415522 275.61562026664615,14996.5391793233 268.52695523563307,14998.54331597779 267.1801176178269,14998.53145993367 268.2013141333591,15006.440665348491 267.8241180444602,15006.410570331092 263.7078747022897,14992.470656559744 261.7601447822526,14992.67449492315 260.5633117867401,14999.453493426787 260.38738403550815,15002.660972087586 232.6630345955491,15007.797216719948 227.93803463119548,15007.548250280379 232.5249720888678,15015.083234376216 232.78362083563115,15015.709732008807 162.10988970659673,15022.124161158921 156.10125795553904,15022.389069174184 168.25600142218173,15086.631337084458 168.33056682662573,15086.926706010185 146.73630919109564,15092.450668981823 142.17267342214473,15093.189070736757 146.18056391109712,15124.57474723336 146.28076117334422,15124.908802086895 153.71050467563327,15129.22412476124 154.40023466665298,15133.132860761427 149.48532593785785,15139.875572484627 149.52056974219158,15140.109348877624 164.5862766932696,15140.267022481887 166.18069475563243,15140.546824491874 183.75774122669827,15127.839621461171 185.60935168003198,15127.148733692651 190.85660074662883,15142.203299685149 195.32062179560307,15153.154857271642 187.07619299553335,15167.236181472137 186.27286727109458,15168.146562793816 201.3644973511109,15217.510577816924 204.3482786132954,15224.56452684442 144.32138040883,15262.309394527168 144.99013887997717,15268.807169920474 112.19359431113116,15251.354689529224 111.0960847644601,15250.955241352727 56.56285098672379,15290.186470475688 54.643083093338646,15291.105899405142 51.62318421329837,15292.19654927752 42.9666067911312,15293.699770038074 32.21462499559857,15286.550612334802 30.79147434665356,15286.837056775228 36.79748465772718,15305.416884774284 37.40915399114601,15306.884041022218 31.761698417831212,15310.229047340574 31.035268266685307,15310.839667080727 27.164857742143795,15329.633711924485 26.930384497740306,15331.454475020466 31.555187199963257,15372.114206632308 33.83933525334578,15373.09610844095 5,15388.554217567493" stroke="red" stroke-width="3.3616964037278905" fill="none" stroke-linejoin="round" vector-effect="non-scaling-stroke"></polygon><polygon points="139.92085646220949,15344.523090178438 148.86113194667269,15371.411349760077 148.97123242670204,15372.679130746576 142.13218673772644,15405.990212211444 141.12963157333434,15409.398322026304 149.38862392888404,15411.859246276144 152.86377955565695,15402.412276560965 154.69937009783462,15395.922594722186 197.7463276089402,15411.78779020399 200.00163982226513,15411.972119514074 204.154000782175,15427.149394695123 204.35730801778845,15428.452348105668 212.3608556089457,15411.351315979438 216.1159227732569,15409.94039225555 279.25563534221146,15408.588627703197 280.3455718399491,15408.517170555016 281.3504571733065,15398.609887259256 281.488810951123,15397.818359256955 258.4681986843934,15381.135973767261 258.27217322657816,15380.824617747043 275.33920398226473,15355.523173078254 277.3390714310808,15352.854468130681 277.837727573351,15326.934182850237 277.7142286222661,15326.497538040217 262.26142236439046,15313.978799174016 262.1131653689081,15313.499326321064 246.1334496710915,15315.504180599935 244.82039950229228,15312.241672648059 252.7595761778066,15287.775626451068 252.88773546670564,15287.604853522324 260.20300942217,15291.864117955382 271.3033514666604,15283.417003877403 271.8355037866859,15283.249415346712 269.4071765333647,15271.81939008733 269.159013546654,15271.103001023585 254.63157560897525,15262.620920545014 253.82591971557122,15261.986937300942 270.38963399105705,15260.945779766655 271.6607411199948,15260.632429539924 285.519711857778,15251.077307692205 288.3266915555578,15249.014468428504 288.17639566224534,15248.548971849668 284.3831719822483,15231.328540736402 261.9456844800152,15233.255351025204 257.80963470228016,15232.460942425125 256.9955319466535,15225.31796706788 255.68189923558384,15222.961977212399 244.15076721773949,15224.567260005919 238.75205717340577,15226.336063819763 236.82675512891728,15221.025509326195 236.69218787562568,15220.760843707132 218.85969664005097,15231.195530978963 218.59784391114954,15231.76719905046 211.47480888885912,15227.881648553244 204.60401464893948,15224.426046615583 197.3673838933464,15228.12945127103 196.412888462306,15228.691106016107 156.92118613328785,15256.569311005704 155.45754880004097,15257.427850964188 167.53044508444145,15304.11911260424 168.3486256354954,15307.81797051488 169.07622087106574,15330.586211052432 169.47730119118933,15330.900370938296 164.73336860444397,15333.033459012222 163.93499448883813,15334.520916992275 164.26325703109615,15344.070090793597 164.31277312000748,15346.798544149438 158.43696099554654,15342.219384996628 157.65227662224788,15338.689114255656 139.92085646220949,15344.523090178438" stroke="red" stroke-width="3.098332356789136" fill="none" stroke-linejoin="round" vector-effect="non-scaling-stroke"></polygon><polygon points="31700.763465102296,41.115133588493336 31701.25862599106,46.595472240878735 31729.261721884483,54.54366359789856 31737.660233102273,51.5790296610794 31724.964890453266,15.001290978922043 31720.016485546716,5 31712.00652999105,5 31705.016023324453,5.831991095095873 31706.99666688009,13.417638517275918 31709.763742435607,34.851712334610056 31700.763465102296,41.115133588493336" stroke="red" stroke-width="3.8653980010403073" fill="none" stroke-linejoin="round" vector-effect="non-scaling-stroke"></polygon><polygon points="174.05724814219866,15353.804589124455 174.05724814219866,15353.804589124455" stroke="red" stroke-width="3.708439760832068" fill="none" stroke-linejoin="round" vector-effect="non-scaling-stroke"></polygon></svg>