<svg viewBox="0 0 567.2919142933235 4252.12660911132" width="567.2919142933235" height="4252.12660911132" xmlns="http://www.w3.org/2000/svg">
  <title>Česko</title>
  <desc>Geojson of Česko</desc>
  <metadata>
    <collboard>
      <support-module name="@collboard/map-svg-geojson-import" version="0.11.0"></support-module>
    </collboard>
  </metadata>
  <polygon points="438.1252682222472,4199.790282615366 445.8100924000097,4201.14685589444 447.0623397244559,4201.254530812141 456.08191376890284,4208.698511030314 457.3021212711243,4210.052127520867 472.51360941332644,4215.823763569533 472.553367919994,4215.975357356998 476.9150071733526,4214.69604116126 478.30975888888463,4214.859681126829 480.06117208000035,4218.687815120204 480.3720311733556,4219.3303901861 497.16046111111757,4225.886823557601 497.73776045334637,4225.842039832372 508.12718253333117,4234.700089958824 508.7459151911095,4234.968539259273 510.2293589600082,4240.433459964253 510.83520287113026,4241.233972245325 515.4645202755706,4242.757670861676 515.8298470666701,4244.074059111321 532.2098420889012,4237.029178640012 532.9243301244638,4236.555553860606 538.0049721155734,4240.384886113454 538.2438872444396,4241.050977871455 539.6566249511158,4234.694492851522 539.8198095911135,4234.027588343211 538.686182426674,4231.712213374536 537.7498914399836,4230.981378743883 539.5647289155528,4228.918305058578 539.9017295911104,4228.553504879987 535.2612710666505,4223.4924297499165 535.1738169155793,4222.438480452292 538.5149878311273,4215.292284219169 538.792714835559,4214.699949932816 545.7623956177919,4210.897223649015 545.9884220000018,4210.7711837207535 546.1473832088883,4207.96527120252 545.6666402400075,4207.324154145805 553.5256445422198,4201.4967193907 559.2393642933235,4203.797460078546 557.6677381955448,4197.291031250941 557.7056762577919,4197.211352686172 545.9865287377976,4188.945106338411 545.7907945511175,4188.629304537208 545.9462605066725,4180.743104088971 545.9110895200062,4180.619006521789 535.4204507288883,4164.676057675351 535.1934777155471,4164.2803985121645 535.7669177155545,4162.0489229383165 536.0249111022346,4161.692686667615 521.8665864800056,4159.196856127957 521.7109020710992,4159.228579434108 516.4657647199998,4152.994613781593 516.4155204533378,4152.916671716819 499.0425093955488,4150.491108418901 498.8608290400076,4150.486983763745 484.9311522400018,4144.198021311422 484.4924979466665,4144.15698177812 473.969163973357,4145.746290356932 473.7350548177852,4145.7346557538185 462.99567049777363,4156.189195777413 462.7756151733407,4156.373517576787 452.54704756444664,4156.681142259527 452.26837392888376,4156.669298369576 451.42223135111965,4158.145324374949 451.2704062844638,4158.898867685093 455.1044079200143,4168.240145287673 455.24043152889465,4168.504781275777 454.1239165422227,4172.494790462682 454.09326025777375,4173.836255258888 455.6479198133526,4189.1236160279 455.80629847999774,4189.310580289712 449.28845200889157,4187.780499342589 449.1586907288944,4187.79127991289 453.6959664622042,4190.033806026848 453.19607241778397,4191.595955292265 442.43032806221856,4188.70582427593 441.55462146667526,4189.163883678841 438.1252682222472,4199.790282615366" stroke="#009edd" stroke-width="5.17638508792195px" fill="none" stroke-linejoin="round" vector-effect="non-scaling-stroke"></polygon>
  <polygon points="347.90688144890703,135.13291576388986 364.24952095113224,146.3967922314256 365.1018530400248,147.01590481006826 366.7002032622473,153.05475146217907 366.8677569688949,153.5406430763611 379.16165520888865,162.431908514896 379.3048877777834,162.65192535268545 380.4748510133428,162.25153266304517 380.7161691288708,160.66117785622885 379.5389241155423,154.68906591613597 379.3600836533366,154.44675060302654 381.115574639996,153.445328229565 381.11025894221495,153.1265505432599 377.2459651111054,143.90663635142084 377.14343768000947,143.47769900446986 391.1633357066672,143.69506555861847 391.9856668711069,143.57905351217016 404.04137816001423,138.76177837030957 404.04924247999554,138.537119344364 402.22770576889855,127.40925575762924 398.8180133244383,127.3704977389931 398.0880151022353,118.64594389039087 398.06027152887657,118.35515435018863 375.61885186666734,122.57588349391119 375.1920668711024,122.64181202438306 373.64439782221564,116.93312788586593 373.1483631200168,116.96518613135379 373.861686071126,111.69407896913583 373.8214906577847,111.47112709111354 361.1793049866752,120.60708430597845 361.1144971644459,120.70302513472382 357.3865182133519,119.25252722604603 357.2116827289061,119.20876160110458 347.90688144890703,135.13291576388986" stroke="#009edd" stroke-width="5.797889576567777px" fill="none" stroke-linejoin="round" vector-effect="non-scaling-stroke"></polygon>
  <polygon points="8.052549999999997,266.400416003387 10.450075333333757,271.2319063381798 10.455172577763392,271.2739627608895 27.46627928000055,268.3354896219895 27.64584792001517,268.3579360270302 28.182514942228977,274.694254106456 28.223074444460167,275.5338493350497 34.46654352889857,275.7400338972435 35.84199853332359,276.0331569499318 36.12809958222317,272.66520718402865 36.53566068443581,271.26965509645345 42.933576275572364,264.2362581047124 43.44694160889014,263.70180930058234 43.23125535110705,260.7518159773532 43.55230893335067,260.31178059480555 59.464376915573325,262.09718423673587 59.48476589332097,262.1048939876706 61.5756555644399,259.3685440931364 62.31817844443833,258.9859838435874 62.80372738667177,262.60205723845104 62.960868151108684,263.1926381956797 68.87614751110198,263.29853166563373 69.02833666667686,263.2659926877019 67.39008230221918,266.7697733481542 67.34340610667243,267.36779135962536 74.10075024888613,270.7378826384735 74.17742736888579,271.007340361342 78.32658434665757,269.2994296801986 78.38622210667347,269.27879748325324 81.57149016002188,262.9568147385795 81.9258942844532,262.76407365430316 97.2662698933342,261.32711067119783 98.40288258667681,261.4574978626257 99.93809979555192,269.3004499534651 99.93314818668989,269.90512854867086 110.47723522666604,271.1261416598496 110.74149094222923,271.1634370521857 110.86644624887379,274.47854393958517 110.66911007109559,274.9655058776767 90.20207163555426,272.04389562531253 89.53462388445735,272.05534478040465 88.83528194667417,274.6609284717339 88.59935234668194,275.370397356986 85.46651309333504,275.89804396780494 85.14596923554893,276.3078025234496 84.59102495111404,281.85981196726027 84.3250944266689,282.43375027660625 93.78281304002269,284.1600622154434 94.92976585779218,283.81088286801935 98.52303191999783,291.9775346479797 98.99547366222362,292.4060959187551 108.98374260444655,290.4894421955029 108.98825730666397,290.48377621598013 121.96977382220905,297.0879817559686 122.30539096001996,297.2027604649844 124.79437542224298,299.3882686178764 125.08360763555504,299.6864762120746 122.76188560887351,301.9474530062795 122.90570072000958,302.2127909915213 128.6059491822449,305.4548629882844 128.88090911109578,305.6453005353902 128.44007028445014,307.6457042068283 128.43650221333485,307.8263917121436 132.80170953777963,309.9636698440223 132.95062189334533,310.1868291530478 132.68731280888426,312.9765831904584 133.4634046844509,313.6991456084867 168.67262068443927,315.78601606933046 168.85400976890344,315.80787658836164 179.41091273778113,312.53719621510356 179.50411949333613,312.5428599006624 178.01113659557416,307.5772806941019 178.6978810577781,307.09423543689593 185.40104877335364,308.9115236873255 185.73404447112227,308.9383713387284 188.4729395466635,304.62547194968613 188.88923878223397,304.3636577313806 196.85149869335112,305.4112469185708 197.3572909777937,305.40671537687706 198.80024806221593,308.80447279378825 199.11685975999683,309.4405445904773 205.28277791111725,310.64435951697635 205.51266363554862,311.0037883253459 208.95082783111832,326.82865190933046 209.00129055113177,327.2362155478837 213.95464706668974,332.0178111544443 213.89100432888483,332.64262845712767 222.3976499466586,331.800855880712 223.195441519994,331.90854099147657 227.251683013346,337.00301510167594 227.7879859466699,337.53470703679307 229.21943782224082,345.9862816571473 229.6511744266678,346.6829357902676 228.59415156444413,350.46762486312184 228.44269058667817,350.49411245880003 246.63184329777835,344.3577018402208 246.66643174223248,344.1087578171206 257.109884613346,348.50433748290345 257.2397915288817,348.55120183186193 263.0477374844555,346.7502913806744 264.0676960977795,345.86266254123586 264.7232017333514,350.57832934418514 264.7648535022232,352.0445199332386 267.3389619466685,354.6838578733947 267.3910994755639,354.86665315625544 264.98607391110966,361.83901487712103 264.43025581335644,362.3358344634686 266.0563496088795,369.5105813106853 266.0345042755722,369.8343177672865 265.25702886222973,373.07406584194507 265.0289635822188,373.18381923261734 261.28685798223125,370.6313733966887 261.12265389334755,370.71465394837253 260.2275777688843,371.7587051768129 259.9063785511313,372.17951089326345 262.0190407377737,372.93070721427614 262.0676101955538,373.05177569333284 260.4240401333151,374.6294883723382 260.4386765066953,374.76594072276896 266.5084751911123,375.613612183202 267.1663109955622,375.4719573786348 272.85658342223144,371.38100693266426 273.5594934311299,371.3374436055234 284.5342976266762,375.90993202567154 284.8530938577675,376.02692078306393 289.1527651822322,373.9265157514816 289.39328230222566,373.779425532142 307.63857752001024,389.0796600973332 308.31636539556314,389.7819848971918 313.77070822221106,381.93215085579834 314.47077833780315,381.7260284171422 313.7099781955545,376.2794527186994 313.65856884446805,375.87112428765215 316.1929916000005,371.559446483188 316.3389184266631,371.2829045339382 311.63277826668457,368.74010117827095 310.94639789334144,368.6982330958341 311.5974616444506,367.1633496247738 311.65469641777565,367.09941406887776 306.3585866222344,368.34156099228824 305.84340084443795,368.36871884875984 301.20949592002546,365.3752758246916 300.976624666691,365.48470522733226 301.11213855111384,355.49245354084235 301.1358771466545,355.2462768188485 305.2274352622113,348.3260488306038 305.2869273866596,348.14277880792326 313.64742772444845,349.168698124318 314.0664212177868,349.1651889992569 319.0703860888967,344.0277007637702 319.62212639113534,343.1015361237438 322.3992508000007,343.46765662717337 322.939413075546,343.64358378622967 325.76226704888506,347.965054973021 326.154099511106,348.21805656322215 330.413356968878,346.6535030691663 330.58171167111834,346.47351031345136 334.5319304800138,348.4459267886774 335.11490960888443,348.7073028387018 338.33061549333036,344.6001919234037 338.58700688888314,344.44351311347384 343.6672119733481,344.06992742811383 343.9080203644477,344.0682293055212 357.59302943110345,349.6566907026496 358.0644517244433,349.9577927347051 357.2297415377758,354.9475809030042 357.17228831112845,355.3193942510039 370.2905566133337,356.69921272311296 371.0959212355734,356.94560924487416 378.1400946044665,353.43845672622376 378.27204041777406,353.4264587216527 385.67396752889147,355.23586380197196 385.8399920622247,355.24152305055 382.7772763288882,345.0737350389023 382.7177113866852,344.91694438417437 386.8450958489044,340.2521877260366 386.99160521777924,340.2680379782611 387.973698586669,335.3466527714696 388.0366859644488,335.2037609964824 391.5116959555668,333.0007798344519 391.53266747555574,332.77771396704304 383.98248336889776,331.52649001502834 383.96056521777757,331.48380069090456 402.2306184799887,316.93645644014 402.3490201866731,316.90712090901036 400.16812774222456,316.26909751458845 401.0229356355627,312.53481746699947 411.2513576088892,301.3950201582844 411.5608331644686,301.0901373659941 401.3886993333359,297.4612099596194 400.79377808891115,296.56620579919365 403.57352393776057,286.4862807152018 403.615030071123,285.796675977988 411.7110562400263,282.5773472446523 413.9567565066751,282.9299345627729 423.57008671112237,298.4710887497273 423.90082505779685,299.01267428258836 426.3573327911214,299.6780919783265 427.44384685334046,299.9532981122244 433.46645961778233,299.7915056256094 433.73115224001924,299.70619048637275 443.1498405244562,293.5026399010891 443.2000119733344,293.3554457069764 437.92203380444664,289.9712292687542 437.85846388445464,289.78243671661005 442.91340120000643,285.524118205292 443.17445293334424,284.97412533124555 440.05326452444535,283.10390399902064 439.8809048444451,282.8634066900628 439.7568233511189,280.2108390354184 439.73971117335134,279.95933482213115 442.0510930755478,278.63571666561586 442.3721466577914,278.2314161957107 440.52956560889254,274.47775046919526 440.54806132446504,274.3325451913621 442.4910580888751,272.42727097354475 442.52703007110506,272.2346767762425 440.43643167109224,270.993170341833 440.33557904887823,270.6999067898938 441.6451339644624,268.8362236396275 441.4670944977912,268.59203560873686 437.4072121155692,266.794374408251 436.98698071999354,266.32128387057276 438.0022789955616,263.475284868087 437.89967874668184,263.1387843711924 426.0474203288974,257.5767012092034 425.98275814223564,257.5842982123646 428.30753851557495,256.2023065167083 429.6796439022361,255.3617327051976 426.05848863110407,250.6435969165683 425.72622111111525,250.2263873000262 417.80619551111124,251.5695209405891 416.54732176889195,252.03797692889168 414.54250271112653,249.42722746753827 414.53281794666657,249.36156587830158 401.6334398844407,250.17059278427735 400.5244251288892,249.6113970291841 398.53234918221244,245.4330668817198 398.4976151022198,244.78649314562028 400.6737743910995,241.89184452003212 400.87263974222117,241.86723220123497 399.18020895112534,240.832030260564 399.08758473778255,240.7353937725635 399.8150343377853,234.95231760897843 399.80651465777885,234.55937643667096 397.1456074222293,231.4241396524227 396.3931085066648,230.75856773371163 397.7851659644581,228.1806050444062 397.3682841866754,227.28491479821207 383.8533774488966,221.24806577638776 383.4783658933371,221.27075853954705 382.80858797333315,218.6834956318122 382.6171500355773,218.4488408443209 380.08258164444817,219.42603293251125 379.68332176889055,219.41423229671602 376.7459982489014,215.71426635147475 375.9776978755614,215.31664716064518 374.2385908888897,206.30452778364236 374.104023635569,206.07322445511056 361.67614068446676,198.664187871305 361.35224720888766,198.43035479663342 363.0978349777939,196.2905084452865 363.1314767911168,196.29084899300472 360.50537645334373,192.07640751204565 360.4937984266795,191.81212134968484 362.46854374223733,189.75659415107623 362.36557940443856,189.41293911495416 355.32075067557855,187.3840018417028 354.8348376444552,187.2669476419029 353.42807099555614,183.69162087533152 353.4084101955592,183.6091891657485 357.7450729511107,178.34579068244022 357.9004660888819,178.06315559245525 356.48248550220853,174.54241440432781 356.50229193777307,174.38342832316232 362.8206176977907,171.13978364734032 363.0963786222343,170.72298591955735 357.55530982223684,162.6521525250206 357.4598457155586,162.35978096332803 360.2444703555735,161.27649313722907 360.3100791733374,161.20266021481768 357.98879405332957,159.9171561686304 357.8479644710966,159.66895735580295 358.4674981244385,156.5000915887282 358.6605380533216,156.298339362918 367.5526081688946,154.8101663663325 367.8497775200009,154.41096554960643 373.8846236711321,160.301208940327 374.5035747822327,160.7622731470252 387.2992603289091,162.8898878377437 387.8353448088816,163.1540874481649 391.76015021332535,168.76285806280032 391.78592770666694,168.76694670481777 397.41139231110685,162.7198498341237 399.6474806311086,161.2642255201423 407.82673752000085,159.33499469352648 407.8918366133363,159.39497181260197 408.4738691111048,150.10602214294306 408.4764177333342,149.90981320969115 413.42882761779003,149.9442378739983 414.48672429333203,149.946964579132 413.44215327112,144.4655565194622 413.4575178222218,144.06241646777892 405.33877250666376,143.04262240669743 405.07400706667215,143.08125562234602 402.22770576889855,127.40925575762924 398.8180133244383,127.3704977389931 398.0880151022353,118.64594389039087 398.06027152887657,118.35515435018863 398.6045115999947,114.9366122195712 398.5833216266834,114.71697055349762 403.813749786677,113.77518431616011 403.96812347556227,113.74789910218499 403.55779529776885,109.71874577012898 403.5485474400117,109.32342037624733 410.5406560977641,109.21654445223214 410.6454408800124,109.19846648259374 410.46470715554426,105.02923038897973 410.35329595555197,104.48252597974317 409.1069468711281,104.84832277945645 408.2395415022107,104.98272434199282 407.0731463377666,102.10700413691632 406.8646690399979,102.07664281489963 409.3192106933344,100.29507440480631 409.6790761511144,100.15486168325117 408.09871192000685,98.04787462432398 408.22483231110493,97.86148512228795 414.0747213066858,103.70089285629331 414.5407550844608,104.61852035271988 418.41786484447186,104.13685313128337 419.563579760004,103.94752808954911 414.88161510223983,86.4154437187168 414.8278027644334,85.97888619259868 411.38505104889157,88.56928847339407 411.2883490400051,88.55962047645119 406.01648756443285,83.8094685529137 405.9510972000204,83.71334878871096 402.99942857778626,77.04426928748546 402.95784962666914,76.89227867227567 405.752814391111,76.13743873776514 407.3113332889112,75.63367536692351 399.2206956355727,70.03314560087858 399.1869810044369,70.0204022437025 401.31813890668093,64.70638920319436 401.1910718844516,64.51169224006992 390.7607990311004,68.56570560872899 389.9224479555629,68.67402695146268 390.14760052445456,67.41819155960513 390.1786937155481,66.62919757726888 387.0394464977795,65.18203402023175 387.02546548445355,65.13014569722111 388.81772944887746,58.0664986616099 388.8564685066882,58.0473794111964 378.9476437599875,56.99114416893974 378.57314192888555,56.837504101487525 377.3014522577938,48.646834783917825 377.0690907289169,48.398468521532436 379.96243231109804,46.04075363379491 380.1801574666821,45.887993215328265 374.21783782222303,40.7782396339386 374.09987302221236,40.8460890019702 376.36385055114044,39.04520596871555 376.5817213422048,38.776758965504655 374.27033944000834,35.77195175462805 374.11764056000504,34.77847191038711 362.7874856088962,39.204247099572626 362.3265490755508,39.4187298909452 363.12077257780004,37.89171690498881 363.1049711199954,37.87725828997611 357.3715177511109,35.72834650014522 357.2484557066706,35.58739768331691 373.58825531556033,30.05014210940101 374.50867202666234,29.72608477417782 373.4933737511234,27.564438484048537 373.38087028446137,27.23364799319063 357.2039640444633,33.83359035396245 356.34842797334534,34.023501596085794 353.1624317422462,30.916980277011703 352.9206039022316,30.534174954089053 348.55656166221127,31.150738416115587 348.42621784000187,30.11720784470492 331.0763628355704,34.66666728728853 330.89045904888883,34.75262707398326 321.3940741955663,11.637292128485228 321.3483446310926,11.274967255121396 318.7223899288871,11.445821787979753 318.31912507556956,11.564052809749796 317.7550057511322,14.838539684780358 317.7053440266533,14.873847346657953 315.24155451555964,13.107524912040049 315.1176914755557,12.990094550761228 316.91396041776864,10.861155346959663 316.8387396533286,10.50884891469434 311.1304812355735,8.321604673713978 310.93503831999953,8.052549999999997 302.00204461333453,12.214204923038437 301.67880649778056,12.084129563030388 299.7663932000065,18.67873969463801 299.66037051554997,18.948425003552643 285.01176379554784,39.01583396942408 284.99290399111453,39.164629166385225 281.4817763822281,38.730309985424924 281.35769488890185,38.637184214450485 279.295058515541,43.49066833907966 279.12342701334967,43.76364543069906 275.1789608088799,43.27483560505027 274.84225140445744,43.217120693712445 275.90357051557623,38.88274901385705 276.02757919111866,38.4315783401031 272.95022708446015,34.32612856908929 272.79745538667305,34.206922434641115 270.7576109777798,42.028430311874786 270.76620347557,42.28149308657851 268.82211444446114,40.683637437315724 267.9011151911178,40.72450651722431 266.5365100355772,53.272932468964086 266.52507764445147,53.4381917301431 244.77600941333333,51.33109846433911 244.64238879111474,51.3329195709299 228.31613328890637,56.41869045021997 227.72623647109833,56.40150536456315 215.31561133333128,50.62780530191196 214.63221648889123,50.597529003927434 208.59380226667383,54.720185879639416 208.42209794666962,54.83365638206999 207.07052717332374,52.67756246099418 206.81399014223246,52.11371338599531 208.89490377778532,47.308352563493486 209.08728834667238,46.904604572562334 207.53612404445414,41.84845107531112 207.50568621332752,41.72789538956533 209.17226669332706,40.47860852463748 209.48822303111194,40.24249986671896 207.0357930933311,36.77361059211364 206.8602294311346,36.79672207475926 199.39742665779306,44.53270945432416 199.18356084445952,44.582682302039416 190.39241616891343,59.123851010801104 190.24175618665288,59.31401519934991 183.40453094221414,59.89224225162582 183.0533308000082,60.10527770798183 184.26953332446976,61.26068461467332 184.18652105780313,61.563614967999115 179.97306598223042,70.45128534916842 179.66817794665224,70.73357052590984 167.97939544000076,68.06630956485571 167.88626150222956,68.01374129302678 172.7304641688894,77.29204948318477 172.8010245955444,77.61570923875081 160.67533542222338,85.50945212844056 160.5492150311253,85.62774944004889 162.03775604445366,89.55450520924171 161.88949904888398,89.73000430635113 156.29672962666484,86.81434821792175 155.93599035556656,86.79842394275295 148.8556993688759,93.52942640880758 148.33359590222938,94.00743461975765 134.51576720888954,97.69977266273747 134.27015284446645,97.72479149951653 126.10684304888821,89.14003846699018 125.80530463113212,88.9515710674383 115.44420866666007,90.56097288897547 115.24126551999473,90.59361538654014 109.67631248888904,92.98943015492807 109.35671526223416,92.87433337637742 108.55768578669051,98.76522373826413 108.49943156445045,99.11638928611467 94.39535618667253,106.44417773358111 93.89706413335045,106.82951822643338 94.8075776266702,110.40353759550601 94.92823668444873,110.57453523674451 96.66144543109806,110.13726227136033 96.73135049778614,110.3163331390457 92.35587586666918,112.97674507457816 92.15773869332736,113.11726577488992 92.59559199109901,115.64543938630197 92.82147273777048,116.06948072817579 80.13741684443778,119.75270329294256 79.57803067554016,119.92208005376563 80.03190388443875,121.72210179830256 80.04559362668772,121.76472868229723 75.09107202667622,118.83271680470318 74.86606509335218,118.88444017020049 76.60364290668042,126.46530260232214 76.66663028446021,126.67512190348464 74.47452390223737,128.25533300605423 74.47277627557162,128.54936563358171 79.13886665780558,138.01222951275815 79.6239786933362,137.9773427389515 78.46107878222358,140.39118192271383 79.35244120000391,140.24470918931877 78.0483476177684,143.56030521503237 77.9590002044348,143.78948850077688 69.35142914669234,144.36409004060954 68.27969709333377,144.68985016899353 74.41670658667101,146.51382084243926 75.064493537771,147.60137953291235 74.79135405334057,152.95557314510336 74.8932261244696,153.6520896637736 77.31478132445011,155.57288851698797 77.38992927113543,155.58095418407868 76.37295618665632,157.98072099064996 76.34055227554165,158.1520233699481 78.0521341422351,162.16702387163934 78.19252681779437,162.22574840863638 67.19136258666515,164.43690255728836 66.86681375111914,164.38488177907823 62.12069663112163,157.2057640920608 61.79287099556643,157.52838015028794 59.67831554669067,162.66953120468645 59.58823995554815,163.23359696778755 60.950369306672314,174.27077504709416 60.37569140445669,175.24228831814946 62.36288855999703,177.92382469608094 62.35677186668147,178.24029949283397 54.631825093332395,178.99213266284607 54.25877961779008,178.85836821026862 57.1352274755551,182.28981063656795 57.56332319111209,182.6018317882332 56.433264097787855,187.7702448531851 56.29636667556008,187.90864225466032 51.388594088908235,189.10879067578173 51.04962733333343,189.091647506713 44.05213016001619,187.16431213236467 43.561702426675424,187.21744646901027 39.02806758223562,182.81518146496785 38.804808275548226,182.68755781003676 33.3391058755584,182.91771163981286 32.24793147555431,182.9269086892233 30.264156755561658,183.41889179421526 29.111160062231306,183.61963506423456 29.29422395554832,189.613773788638 29.146986408893667,189.8908994438167 25.947955795570692,189.96071990031453 25.609498764453406,189.93835465812992 23.104640026671063,194.58331585677627 23.107552737790343,194.61975559603127 20.568979368872192,193.68707221697662 19.402657022240987,193.289178444487 14.239949395566896,196.14849985452713 13.856709431107106,196.33001196814405 17.63420447111241,200.61824389763171 17.664059759997713,200.7606948443787 15.944176666678345,205.29032689097914 15.555621004437512,205.84929738099856 17.101178337797705,206.84714473487804 17.215138160019364,206.93328652227467 15.786963084457625,214.67516235654296 15.833275191114467,214.8188247442955 17.398857413332394,217.0385079384647 17.731925928884834,217.6317395584989 21.98055199112389,212.97580951227394 22.06516624888866,212.9330271228897 24.3501881155604,220.44246655212885 24.52822758223158,220.86126617289085 29.096086782235602,220.90120571364935 29.326045324450774,220.92299090534618 30.810799813341532,223.26144434994023 30.917769128900204,223.3948727234307 29.205386266672235,224.89489827080217 29.098562586652065,224.96036247838458 32.18275956443506,227.6151703847205 32.40995103109856,227.76356351662946 29.66107992002037,231.92033540705563 29.544717111107843,231.97750993578632 32.40361588446069,238.3927003928908 32.43310708445608,238.4404535985883 22.39481232889341,237.43354399484053 20.67390978665901,236.72993258982717 20.827045573336022,241.244434752232 20.817142355553756,242.33259595726088 17.726901502239002,246.83619959836471 17.456966000004854,247.15567602143676 19.45093520888588,251.0676074358413 19.336756933341917,251.3852446041343 12.210809199990422,255.64691467231717 12.02410441777431,255.69975538166875 11.142645217776249,258.6630618958367 11.15793695112336,258.8660221919778 13.7596433333307,261.0455866526678 13.76255604444998,261.06769592148305 11.149999813329146,260.8588480086979 10.986378266657653,261.1552258615917 11.215317360016002,265.93775214711025 10.925866693323428,266.5194540953886 8.703977839999084,264.671500082644 8.26233801778983,264.4134617577289 8.052549999999997,266.400416003387" stroke="#009edd" stroke-width="6.0043641916308665px" fill="none" stroke-linejoin="round" vector-effect="non-scaling-stroke"></polygon>
  <polygon points="213.09110104002286,170.13707875159855 216.7097805066802,172.0428722849971 216.85920258667431,172.06081579557906 218.04074384889793,179.34664093612048 218.17793254223182,180.13252371318924 214.9402356888819,183.9814933741651 214.91591455109995,184.1188785467599 225.2474464977928,186.59186583663507 225.27810278224172,186.67270352108574 219.38889218666702,190.41154218564736 219.15230722664967,190.67685690329347 219.6597743200033,198.20367196795235 219.6674201866623,198.22376357379073 217.15841083555244,201.41380779488065 217.24462708444446,202.07849029488682 231.19432877333713,199.58191621810658 231.319211262227,199.56261967756257 235.91983846220649,201.80539939019184 236.2406735911278,201.79087082482113 239.68116795554636,199.53151818013396 239.89066470223008,199.53923680158152 239.74306306668552,201.58803802672594 239.62946733335377,201.89518129775354 248.19713424889017,205.7186633707239 248.4407825333543,205.73137494760851 246.5815262133325,212.67860171425093 246.57278808000376,212.98227793425724 248.72448059556302,220.62435147596227 248.78426399111743,220.6976499071676 253.89148447110313,218.65751118148148 253.99037101332908,218.4868531730823 257.0089591733482,212.25145486427175 257.1460022311145,212.01813412698505 256.6437052000034,206.83477390044538 256.6471276355511,206.72150686359203 262.44036439999,204.49050673963905 263.0468636711081,204.22026542943024 274.8327850933489,208.05992682585895 275.38583611557954,208.13063189121715 277.90780703112944,214.69377267147468 278.0751422844547,214.6574598559597 277.3589066222263,212.07714530295164 277.36094551999815,211.8561935133108 280.7343018933385,208.63793520256115 280.9204969511262,208.5932200672611 274.6878777155431,204.23013987304114 274.6358130044606,203.8679622679407 278.03137879999815,199.2219778550858 278.12094466665405,199.14706134003757 273.17326793779614,198.24555784969527 272.81558701335564,198.17075350163907 273.0219525955687,195.22344840875996 272.8399809688923,194.68798071197637 268.898718746677,189.08983101165325 268.9132823022443,188.36300105861267 284.3063051644491,178.71665474700387 284.5850516177667,178.4719483379373 294.4509866933291,176.48927482711554 295.71102552000195,176.29929320877238 270.3142235288757,178.05815921766737 268.6906055377982,177.68399757370173 266.7240158133278,180.44943985075918 266.13339081776905,181.52133169338742 256.66795352000156,174.71809348335194 256.35774978667143,174.46462484413462 257.0675046666653,172.25864828551823 257.0594947111164,172.04026025448513 254.16105588444736,168.80204086933338 253.60975248888246,168.0630143098457 252.56561837334414,162.1855385777668 253.17255455110683,160.97729879760993 249.99296628445848,158.44907495617338 249.16029499556282,158.13600639315666 246.36256315556932,160.08561265779247 245.7884677955659,159.92737943639042 244.00843721777312,172.82363665111882 244.0079274933447,172.85225500104536 234.27903547557764,172.7499329742201 233.9529574666591,172.75118218990212 233.61937922664913,175.02675127906662 233.6217093955562,175.0528701438376 227.5607216622226,170.77306995711808 225.8702569511148,170.24235852393724 213.09110104002286,170.13707875159855" stroke="#009edd" stroke-width="5.5086028951715695px" fill="none" stroke-linejoin="round" vector-effect="non-scaling-stroke"></polygon>
</svg>