<svg viewBox="0 0 469.67017411726545 416.2591600632512" width="469.67017411726545" height="416.2591600632512" xmlns="http://www.w3.org/2000/svg">
  <title>okres Rakovník, Střední Čechy, Česko</title>
  <desc>Geojson of okres Rakovník, Střední Čechy, Česko</desc>
  <!-- Generated from maps/2-geojsons/world/europe/czechia/stredocesky-kraj/okres-rakovnik/okres-rakovnik.geojson -->
  <metadata>
    <collboard>
      <support-module name="@collboard/map-svg-geojson-import" version="0.11.1"></support-module>
    </collboard>
  </metadata>
  <polygon points="17.261356071965565,275.60922207535253 19.658881405299326,280.4407124101453 19.66397864972896,280.482768832855 36.67508535196612,277.544295693955 36.85465399198074,277.5667420989957 37.391321014194546,283.9030601784215 37.431880516425736,284.7426554070152 43.67534960086414,284.948839969209 45.05080460528916,285.24196302189733 52.44006142307262,269.9606220493187 52.76111500531624,269.52058666677107 70.78446163640547,268.5773501651019 71.5269845164039,268.1947899155529 83.3095563208517,279.946688710439 83.38623344085136,280.21614643330753 90.78029623198745,272.165620810545 91.13470035641876,271.9728797262687 106.47507596529977,270.53591674316334 107.61168865864238,270.6663039345912 109.14690586751749,278.5092560254306 109.14195425865546,279.11393462063637 120.07525232083935,283.6873500115507 119.87791614306116,284.17431194964223 99.41087770751983,281.25270169727804 98.74342995642291,281.26415085237016 93.7998310230796,291.0686180392258 93.53390049863447,291.64255634857176 102.99161911198826,293.36886828740893 104.13857192975775,293.01968893998486 107.7318379919634,301.18634071994524 108.20427973418919,301.6149019907206 118.19254867641212,299.6982482674684 118.19706337862954,299.69258228794564 131.17857989417462,306.2967878279341 131.51419703198553,306.4115665369499 141.89611888084983,322.18538926242394 142.67221075641646,322.9079516804522 177.88142675640484,324.99482214129597 178.062815840869,325.01668266032715 188.6197188097467,321.7460022870691 188.7129255653017,321.7516659726279 187.21994266753973,316.7860867660674 187.90668712974366,316.30304150886144 206.0603047653167,314.6200529905363 206.56609704975926,314.61552144884257 214.49158398308282,319.85316558894186 214.7214697075142,320.2125943973114 218.1596339030839,336.037457981296 218.21009662309734,336.44502161984923 223.1634531386553,341.2266172264098 223.0998104008504,341.8514345290932 236.46048908531156,346.21182117364145 236.99679201863546,346.7435131087586 237.8029576364097,359.67643093508735 237.65149665864374,359.70291853076554 255.84064936974391,353.5665079121863 255.87523781419804,353.3175638890861 272.2565435564211,355.9590974526399 273.2765021697451,355.0714686132014 276.5477680186341,363.8926639453602 276.5999055475295,364.07545922822095 275.26515568084506,378.71938738265084 275.2433103475378,379.043123839252 269.63284620528066,383.8382944443037 269.64748257866086,383.9747467947345 298.36157125419777,383.1353218234471 298.6020883741912,382.9882316041075 316.8473835919758,398.2884661692987 317.5251714675287,398.99079096915733 325.40179767196605,380.76825255515354 325.54772449862867,380.49171060590373 310.41830199199103,374.5840818966571 310.1854307386566,374.69351129929777 314.4362413341769,357.5348549025693 314.4957334586252,357.3515848798888 352.8760180453137,353.27873350007934 353.11682643641325,353.2770353774867 366.801835503069,358.8654967746151 367.27325779640887,359.1665988066706 366.43854760974136,364.15638697496973 366.381094383094,364.52820032296944 394.88277360085704,364.44466987393747 395.0487981341903,364.4503291225155 391.9860824008538,354.28254111086784 391.9265174586508,354.1257504561399 400.72050202753235,342.20958590641743 400.7414735475213,341.98652003900855 393.19128944086333,340.73529608699386 393.16937128974314,340.69260676287007 411.4394245519543,326.1452625121055 411.55782625863867,326.11592698097587 409.3769338141901,325.47790358655396 410.2317417075283,321.743623538965 420.46016368085475,310.6038262302499 420.76963923643416,310.2989434379596 410.5975054053015,306.6700160315849 410.0025841608767,305.77501187115917 412.78233000972614,295.6950867871673 412.82383614308856,295.0054820499535 420.9198623119919,291.7861533166178 423.1655625786407,292.13874063473844 435.56613886308696,308.886898050292 436.65265292530603,309.1621041841899 452.35864659642175,302.7114459730546 452.4088180453,302.5642517789419 447.1308398764122,299.1800353407197 447.0672699564202,298.99124278857556 452.122207271972,294.7329242772575 452.3832590053098,294.18293140321106 449.2620705964109,292.31271007098616 449.0897109164107,292.0722127620283 451.69986416084066,281.63607704551026 451.7358361430706,281.443482848208 447.21108506752716,272.6840909400525 447.1084848186474,272.3475904431579 435.25622640086294,266.7855072811689 435.1915642142012,266.7931042843301 437.5163445875405,265.4111125886738 438.88844997420165,264.5705387771631 435.26729470306964,259.8524029885338 434.9350271830808,259.4351933719917 410.84224595640626,259.37939885624286 409.7332312008548,258.8202031011496 406.99397203642366,237.38941111637172 406.57709025864096,236.49372087017758 389.29138771641374,228.63483900447676 388.8921278408561,228.62303836868153 383.44739696085526,215.51333385560787 383.31282970753455,215.28203052707607 370.8849467564323,207.8729939432705 370.56105328085323,207.63916086859894 371.6773498142029,198.96540022304174 371.57438547640413,198.62174518691967 362.6368770675217,192.90042694729703 362.6172162675248,192.817995237714 372.02942376975625,180.34858971930583 372.30518469419985,179.93179199152286 366.7641158942024,171.8609585969861 366.66865178752414,171.56858703529355 369.4532764275391,170.48529920919458 369.51888524530295,170.4114662867832 367.6763041964041,165.7088976606937 367.86934412528717,165.5071454348835 376.7614142408602,164.01897243829802 377.05858359196645,163.61977162157194 400.9689562852909,177.97166413476583 400.9947337786325,177.97575277678328 417.0355435919664,168.543800765492 417.10064268530186,168.60377788456748 417.6826751830704,159.31482821490857 417.68522380529976,159.11861928165666 422.6376336897556,159.15304394596382 423.6955303652976,159.1557706510975 422.65095934308556,153.67436259142772 422.66632389418737,153.27122253974443 414.5475785786293,152.25142847866294 414.2828131386377,152.29006169431153 407.2968211742009,127.85474996235638 407.26907760084214,127.56396042215414 412.7666013697344,118.92755184209449 412.75735351197727,118.53222644821284 419.74946216972967,118.42535052419765 419.854246951978,118.40727255455926 417.3075179919724,107.2566806962895 417.4336383830705,107.07029119425346 427.62667091643743,113.34565920324889 428.7723858319696,113.15633416151462 424.0904211742054,95.62424979068231 424.03660883639895,95.18769226456419 415.2252936363984,93.01827462487921 415.15990327198597,92.92215486067647 412.20823464975183,86.25307535945097 412.1666556986347,86.10108474424118 414.96162046307654,85.34624480973065 416.5201393608768,84.84248143888902 408.4295017075383,79.2419516728441 408.3957870764025,79.22920831566802 410.5269449786465,73.91519527515987 410.3998779564172,73.72049831203543 399.969605103066,77.7745116806945 399.1312540275285,77.88283302342819 398.026535520843,67.27530473357541 398.06527457865377,67.25618548316191 388.15644983195307,66.19995024090525 387.7819480008511,66.04631017345304 386.5102583297594,57.85564085588334 386.27789680088244,57.60727459349795 389.1712383830636,55.24955970576042 389.38896353864766,55.09679928729378 383.4791455119739,44.98075782659356 383.3264466319706,43.98727798235262 371.99629168086176,48.41305317153814 371.5353551475164,48.62753596291071 366.58032382307647,44.93715257211073 366.45726177863617,44.79620375528242 382.70217982308895,36.77324455601405 382.58967635642693,36.44245406515614 340.285168907536,43.875473359254045 340.0992651208544,43.961433145948774 330.6028802675319,20.84609820045074 330.55715070305814,20.483773327086908 326.9638118230978,24.04734575674587 326.91415009861885,24.082653418623465 320.33928730753905,17.53041074567949 320.1438443919651,17.26135607196551 311.2108506853001,21.42301099500395 310.8876125697461,21.2929356349959 288.50386458750654,52.69947441104517 288.33223308531524,52.97245150266457 284.38776688084545,52.48364167701578 284.051057476423,52.42592676567796 282.1590331564257,43.534934641054804 282.0062614586386,43.41572850660663 275.74531610754275,62.4817385409296 275.73388371641704,62.646997802108615 237.52493936087194,65.62749652218548 236.9350425430639,65.61031143652866 224.52441740529684,59.836611373877474 223.8410225608568,59.806335075892946 217.8026083386394,63.92899195160493 217.6309040186352,64.0424624540355 216.24459916529668,45.98241666407915 216.06903550310017,46.00552814672477 199.601222240879,68.33265708276662 199.45056225861845,68.52282127131542 192.6133370141797,69.10104832359133 192.26213687197378,69.31408377994734 189.181872054196,79.66009142113393 188.8769840186178,79.94237659787535 177.18820151196633,77.27511563682123 177.09506757419513,77.2225473649923 181.93927024085497,86.50085555515028 182.00983066750996,86.82451531071632 169.88414149418895,94.71825820040607 169.75802110309087,94.8365555120144 171.24656211641923,98.76331128120722 171.09830512084955,98.93881037831665 165.5055356986304,96.02315428988726 165.14479642753213,96.00723001471846 143.7245732808551,106.90857873470299 143.47895891643202,106.93359757148204 135.31564912085378,98.34884453895569 135.01411070309769,98.1603771394038 124.65301473862564,99.76977896094098 124.4500715919603,99.80242145850565 103.6041622586381,115.65298380554663 103.10587020531602,116.03832429839889 105.87025150306363,119.34606834332584 105.94015656975171,119.52513921101121 101.80439806306458,124.85424545826748 102.03027880973605,125.2782868001413 84.29987809864178,128.0415228766687 84.07487116531775,128.093246242166 87.66988485418915,149.59998799467934 88.56124727196948,149.45351526128428 78.56023521865791,153.57289611257505 77.48850316529933,153.89865624095904 83.62551265863658,155.72262691440477 84.27329960973657,156.81018560487786 87.26094021420067,171.37582994360486 87.40133288975994,171.4345544806019 76.40016865863072,173.64570862925387 76.07561982308471,173.59368785104374 71.3295027030872,166.41457016402632 71.001677067532,166.73718622225346 71.5716946319626,187.13263076804645 71.56557793864704,187.44910556479948 63.840631165297964,188.2009387348116 63.46758568975565,188.06717428223413 65.64207016975342,196.9790509251506 65.50517274752565,197.11744832662583 42.54791194752397,192.12651771177838 41.45673754751988,192.1357147611888 32.31344609863663,203.79212192874178 32.31635880975591,203.82856166799678 23.448755467532465,205.35730592649264 23.065515503072675,205.53881804010956 26.84301054307798,209.82704996959723 26.87286583196328,209.9695009163442 24.995769156423194,223.88396842850847 25.042081263080036,224.02763081626102 31.189358063089458,222.18461558423945 31.273972320854227,222.14183319485522 33.55899418752597,229.65127262409436 33.73703365419715,230.07007224485636 38.30489285420117,230.11001178561486 38.53485139641634,230.1317969773117 41.61242195642626,247.6015064648563 41.64191315642165,247.64925967055382 31.603618400858977,246.64235006680605 29.88271585862458,245.93873866179268 28.65974128085145,260.2764135078068 28.545563005307486,260.5940506760998 21.41961527195599,264.8557207442827 21.23291048973988,264.90856145363426 22.96844940529627,270.2543927246333 22.97136211641555,270.27650199344856 17.261356071965565,275.60922207535253" stroke="#009edd" stroke-width="11.829927788360699px" fill="none" stroke-linejoin="round" vector-effect="non-scaling-stroke"></polygon>
</svg>