<svg viewBox="0 0 360.2719187022442 606.0300356865184" width="1000" xmlns="http://www.w3.org/2000/svg"><polygon points="8.052550000000338,109.85186031365413 53.24180653339863,132.8040193075791 53.76114292440616,133.26056241893787 89.05737616887927,181.1333389289572 89.18757435549196,181.40892655330356 171.06300987557188,198.26262275622105 171.37933030221757,198.8627034298621 147.22538214221277,217.88313508537942 146.92216891560383,218.00866949334852 155.69991512000706,241.84620647007944 155.84001652451843,242.43891682578362 151.09783156446792,262.016937328946 154.96649446219817,266.1142923860822 125.07392287112452,344.1418979270162 123.78766964443639,347.5415669579303 162.36478068444558,374.0712949279474 162.87159241780319,374.5599391659267 152.66749158220046,394.523674572563 152.65613200885855,394.80623762848666 184.97149670226645,456.57913133604563 185.43636539552972,458.9956135185563 127.78157912006282,434.6693155077297 126.12162505774904,434.35692308899127 126.84980283547338,458.83400248861983 126.77494616001059,461.2522704257059 151.64221727112454,478.5111885755101 152.31359718225576,478.4537018564075 152.09980418670602,492.2414798920287 152.14582502222765,492.57596785968747 165.84372283562698,480.22763544016163 166.56141485329863,479.5830641513236 175.68111334215064,517.7615736170916 175.746649342218,517.9516528470919 190.8522604355603,517.8973445124935 195.467742462155,518.0213485231867 198.44395067563892,542.8587448075192 198.5333709066981,543.3248375474719 214.92610904001776,550.2161060858995 225.10341293327656,556.796749773646 232.46004738668125,575.2918970420502 232.5890804888695,579.8742666693648 254.51655227560695,580.5674050344747 254.6857807910783,579.5878713883936 280.0129689866226,595.6634302666422 281.5604923999417,597.9774856865184 310.4001189244227,593.1643133187678 311.3685953689055,593.0855933842028 350.74874086221826,552.475439062902 352.21936870224454,552.1962477715348 332.98702850667905,535.7500282826146 332.20467430222925,534.4173161186987 337.46444802659244,516.8727247331768 337.6925133067198,515.9829670790128 303.2246551022181,480.3693141266482 302.9607634754866,479.8216100681817 323.6488766844632,468.8314789057255 325.14193240003806,467.3109504740929 307.2366233867142,393.47266358076706 306.05318886225723,392.8029301067942 306.77262850674015,361.62159258352006 306.3208670133972,359.0070194427168 350.1359064444914,352.92041804220173 351.83634719110705,353.36291276445957 350.1461009332925,337.03575709285326 350.2366862488925,334.4852079417102 319.2591297687977,305.5075870189827 317.9134572355324,304.63735171777773 311.03450740440894,279.20283873377014 309.4156225689003,278.78828350021615 313.25486708453536,178.71467995059322 313.263313946758,176.6998657494329 266.6144978755401,142.22937763776974 265.28601033773884,141.9369664471957 243.3320328800255,143.17687786799036 241.60100866665744,143.0104989392927 222.77790438230295,169.43006172331627 220.753278888973,172.45713642947487 200.33022239103593,176.23570793550573 199.40339771562867,176.9283180602721 187.77148589338321,129.61952514571715 187.8565370577635,122.41751829800307 195.5714349777918,96.97305408717477 200.35148518227652,90.42249480900466 201.3610308533316,63.25320941609209 201.24393986675568,61.97837549236249 173.88164041782875,10.528901193967272 171.82439256003272,8.052549999999997 121.9066408088911,45.07602971621202 119.75443856893253,48.18647188958823 146.77129048002098,67.8522547501849 144.0447016089238,77.81463021078491 74.83635543994751,78.4649260163784 73.81370256885566,78.6857721974153 47.17055149339285,94.83414538534237 43.02896756443806,96.93723196050962 41.156676862250606,107.04609297568788 40.98453563554358,107.78018459308771 27.240616986622626,96.4048872572381 26.225245893328974,96.27157415493969 8.052550000000338,109.85186031365413" stroke="#009edd" stroke-width="5.32661989610781px" fill="none" stroke-linejoin="round" vector-effect="non-scaling-stroke"></polygon></svg>