<svg width="305.7928038400132" height="325.19346647296334" xmlns="http://www.w3.org/2000/svg"><polygon points="5,251.81964798719855 5.1098092088941485,252.51783630624413 7.358713457826525,253.17944424663438 8.34641379560344,253.4286326150177 9.310521173290908,253.72582937666448 9.815585280070081,253.89500273560407 11.358448355575092,253.75829238281585 11.52156017778907,253.469325734186 11.717876906739548,253.07931159215514 14.683308089035563,256.74349646957126 15.515469653415494,256.53317558125127 14.966714880079962,256.75355528952787 17.028623075573705,257.1600226693554 17.265426488942467,257.01325557072414 17.341448248946108,257.26975501456764 19.905799111234955,256.61867561913095 21.505751324468292,256.26204422151204 25.16819427558221,255.11716202110983 27.215830186731182,254.16156481415965 30.29077930666972,255.31925428716931 33.33252352010459,256.09332993254066 35.270058951107785,255.38783759257058 39.291347911115736,253.25625830632634 43.65517169784289,253.041361761163 47.14110435557086,253.74914787447779 51.19297678221483,253.61563800956355 51.35812750225887,253.61929581523873 51.91066880011931,253.75097677623853 52.6478759823367,254.93747349031037 54.075104426709004,256.45773434324656 54.71444451564457,256.67765690910164 55.94652131560724,257.984385551943 58.09872355568223,259.4968523843563 59.02554823108949,260.2951453097048 59.63983900449239,260.813622643298 60.105290240142494,262.17930611479096 61.54125681775622,263.59938832884654 61.47368192009162,264.1900958950282 63.36024490674026,265.34087373130023 64.8588347734185,267.34020423161564 65.91032348456793,268.17001469340175 66.04809471999761,268.2404227074003 68.8192480711732,269.07297287741676 70.44628849788569,270.1606324444292 71.64719928894192,270.99271804175805 73.7364869689336,272.89461597055197 75.26187377783936,274.368575374363 75.4162474666955,274.46184045809787 76.50268871115986,275.00451443798374 77.16911701345816,275.15309806214646 78.09215516457334,275.8480108892545 79.62394993775524,275.74423128640046 80.3113497600425,276.19958106870763 81.61886577785481,275.81920862558763 81.97712924447842,276.7193918484263 83.66155008005444,276.90546277398244 85.2690753423376,277.3717823274201 87.05311089777388,276.71161984070204 87.82934840896633,276.60281170299277 90.85012110229582,275.1174380016746 91.47315000894014,274.9811982292449 92.03355562675279,274.92130756389815 93.24407836445607,274.4732699999586 94.28333368897438,273.8752755619935 95.64910392893944,272.46257572004106 96.34611569775734,271.2935482013854 97.64897137787193,269.8831174708903 98.77415168005973,268.7666533079464 99.95263459556736,268.6747573525645 101.37665905780159,267.90209827490617 102.44911928893998,267.5784035931574 103.60866958228871,266.9291839876096 104.13324885338079,266.67772516666446 105.28493482677732,266.1834934328799 105.80660138675012,265.05237974290503 107.00372565339785,264.55037185462425 107.32383260445204,264.9211628571502 108.24104533344507,265.1899973669788 108.68377742229495,265.9887265008874 109.147189760115,266.2479585056426 109.48797696002293,266.684125940199 110.23188337788451,267.01376552536385 110.96588657784741,267.20304517121986 110.51674652448855,267.97296357131563 110.0638199467212,267.8687229981879 109.50661831116304,267.824375019758 109.0769934222335,267.9505609963089 108.52940373343881,268.2765410953434 108.27541532448959,268.47450632974505 108.02958250674419,268.69715985277435 107.55801457783673,269.1881854988169 107.17382798227482,269.56536924722604 106.25865415111184,270.23881205148064 105.45765859563835,270.600906705542 106.06000725342892,271.59163481660653 106.21933255111799,271.920809743111 106.4695344355423,272.6271625836962 106.9606175289955,273.559819115093 108.36803953780327,275.8813849360449 108.6820297956001,276.55983704526443 108.91999829339329,277.4124709467287 108.98116522678174,277.86827439512126 108.9767961599864,278.07217412255704 109.00534072890878,278.75701978377765 108.98553429346066,279.46563617826905 108.96747548447456,279.862460346194 107.92996778676752,279.9470368317561 107.29121024010237,280.0133264865726 106.7302220800193,280.12533309846185 105.89776924450416,280.3031720489962 105.91175025783014,281.02686992206145 105.12881351122633,281.06710068671964 104.51161002670415,281.11464612628333 104.7219077689806,283.3908718287712 104.89055374229793,284.78704261477105 105.00589710229542,285.61175747425295 105.01084871112835,286.50641411042307 104.92521500447765,287.051343678846 104.61530254234094,288.01959602185525 104.57044679112732,288.6696666952921 104.65083761780988,289.47516646794975 104.90074823109899,290.2084338030545 105.13609528890811,291.276787065377 105.18269866670016,292.39267801953247 105.77077504002955,292.51244966872036 106.39875555562321,292.7414784776629 107.59500600898173,293.26536382432096 107.90753991121892,293.39564925036393 108.67533056007233,293.8153049319517 109.75769400899298,294.3693588997121 110.70607274677604,294.893240307807 110.36790698673576,295.8180296125938 109.71196444449015,297.2904615760199 109.639146666741,297.4874860185664 108.56406499561854,299.6072016870603 108.90019185782876,299.81839499482885 110.08886926225387,300.4620304716518 110.94200234673917,300.8830438358709 111.99931648001075,301.39273861574475 111.99203470232897,301.50107717223 112.16592355561443,301.4773066919297 112.22767303115688,301.5253047744627 111.77940679108724,303.02878218423575 111.47881500446238,304.39785636321176 111.08152120898012,305.69515472638886 110.95248810667545,306.19021050957963 111.16191203566268,306.2569492451148 111.82368000003044,306.6116698504775 112.87516871117987,307.1190655825194 115.48845311999321,307.9473522769986 119.01720263122115,309.53992110298714 120.46219861332793,310.43859283125494 121.023769315565,310.64200478512794 122.53983544895891,311.1498481776798 123.48268003563862,311.78019399021287 124.6964067555964,312.4804744962021 124.9273847467266,312.6285753052798 125.41613767121453,312.5499539007433 126.22616263118107,312.24506713758456 127.11308316455688,312.13033452630043 127.97961471998133,312.4320217403583 127.95427413342986,312.876323963108 130.15948771568947,313.85954508546274 130.63309454231057,314.0007884782972 131.45069255121052,314.2032828904921 132.37926485331263,314.2736759374966 133.09957831120118,314.4400594122126 133.5626993777696,314.725287928537 134.180776675581,315.33551113691647 134.82768981333356,316.30957922677044 135.5590715734288,316.8713462081505 136.30181290663313,317.28227166133 136.33210510225035,317.24479017290287 136.48181845340878,316.9380816518096 138.80849208892323,317.4975615484873 140.29222712898627,317.65068692190107 143.20755968010053,317.7434762745397 144.52381383115426,317.868261893047 145.62977024004795,318.0053888633847 148.48044060450047,318.3838588510407 149.30735928891227,318.9963571879198 151.28479886229616,318.65719787508715 151.823067875579,318.5781215708703 152.32085020444356,318.51367207604926 152.8177587200189,318.49218890687916 153.23981056001503,320.19346647296334 153.79555584001355,320.00423314317595 155.21025962673593,319.7107840293902 155.9614478222793,319.6714746163925 157.53256419557147,319.27975135459565 159.46427420445252,318.71936188597465 158.53657571563963,314.01130173681304 158.3714249955956,313.25160321674775 158.222876728978,312.46036203281255 160.8003347911872,311.29932120849844 161.7131784533849,311.05888441723073 161.68055608891882,309.6765962401405 161.68929422227666,308.6956416715402 161.7539564089384,307.69502686464693 164.4021933511831,305.6841839484405 165.36542691558134,306.2546636723564 165.90253084443975,306.5554448448238 166.17166535113938,306.6235548091354 166.4335180800408,306.80960003868677 168.62562446226366,308.22893246263266 169.17903957341332,307.48018434329424 169.7484745956026,306.5005911667249 170.3254826667253,305.264094152255 171.17657685338054,303.97547847474925 171.76960483565927,303.0342676406726 172.18350108456798,302.1927055820124 170.2695586134214,301.77123764017597 171.7043601067271,299.92124880384654 173.92559360002633,297.3850881868275 175.53574030229356,298.9114508483326 176.2557624889305,299.4933766371105 177.36783559119795,300.1479841391556 178.6555451733293,297.77547966095153 179.9071371378377,298.38803629309405 180.97726720001083,298.84288132796064 182.88887950230855,299.82890894194134 183.8891044978518,298.72631309350254 185.03758648899384,297.55879876576364 186.30723726237193,296.0790544504998 185.95887701341417,295.5108336034464 185.42235562670976,294.38901590392925 184.98632277338766,293.3183922879398 184.38543047115672,291.445016794838 183.55559907562565,288.2769730408909 183.38141895108856,287.54141339450143 183.18626730667893,286.2179483224172 182.65032846224494,283.4795613999013 182.21575196448248,281.85525643237634 182.09283555555157,281.0172693975037 182.93286144011654,281.08218722150195 183.61851363559254,281.0634433447849 184.54912483564112,281.14710502605885 185.71886961790733,281.1009310967056 187.2864907378098,280.86274661141215 188.55002481781412,280.9016059023561 189.03994282672647,280.84903156594373 189.16664576006588,280.0188125260174 189.40927459555678,277.7535235672258 189.43374136893544,276.51549084694125 189.38888561783824,275.927102799993 189.43840170674957,273.01714151422493 189.4730629689293,271.76170859113336 189.5473371022381,270.59176290861797 189.90210531558841,268.7296206142055 190.44299576885533,267.106576580205 191.0561214578338,265.57633208984043 191.65351850679144,264.2449602930574 191.741482382291,263.72557676775614 192.2669354667887,262.6182249862468 193.24415004451293,260.307490022562 191.90867200004868,259.1292525904719 190.7616463644663,257.95100874628406 189.5321910044877,256.83814080269076 188.13030314678326,255.67725890193833 187.98583267559297,255.98771197744645 186.87696355558,255.34440150175942 185.70051953778602,254.82362495467532 184.91612643562257,254.53877474181354 184.28901973331813,254.19539942848496 184.94234083557967,252.67329377867281 185.44769621337764,251.39305244444404 185.94984760892112,250.4845337336301 186.7761837511789,249.45392963453196 187.7184457955882,248.08176456624642 188.1576826311648,247.2989727340755 188.65051335119642,246.1558721003821 188.97935843560845,245.5582566865487 187.85883847111836,244.3803962287493 186.84900152892806,243.43572556297295 185.57090389332734,242.31409526214702 184.50601671123877,241.6007847507717 183.83958840894047,241.28665303019807 183.17694663116708,241.0859194212244 182.12953571567778,240.99355446349364 181.53388629341498,241.57106342847692 181.2446540800156,241.96338455437217 180.47744597343262,242.95424372015987 179.8879132445436,242.14857085293625 178.19067648006603,240.94645746483002 176.70082474674564,239.94004245428368 177.30462975997943,239.1723106384743 177.78522709337994,238.53077922499506 178.25067832891364,237.57190798711963 178.00047644448932,236.98432861588662 177.36142762668896,236.0981553105521 177.28627968009096,235.79407539922977 177.6340573867783,234.9129271390848 177.70687516452745,234.44331526232418 177.7307593956357,234.05372411059216 177.9253284977749,233.60971737728687 178.38233287120238,232.99652017530752 178.8486579200253,232.17663484922377 178.79011242673732,232.12953593255952 177.57696824893355,231.43951276427833 176.21760597336106,229.93919635069324 174.57017656893004,228.76765280542895 175.47602972446475,228.6377857613843 175.96886044449639,228.28888201428344 177.4039532089373,228.72055314708268 177.8396947911242,228.70271929324372 178.4764134400757,228.9757142806193 179.40877226670273,229.4933520720224 180.66036423121113,230.05900255421875 182.01506616885308,231.04808711330406 183.04092302231584,231.78703961835708 183.48015985777602,231.1573754212004 184.21853212453425,230.41704894276336 184.8025307022035,229.69272460142383 187.82942008890677,231.27032185706776 190.11531576898415,231.9612601075787 191.63516842667013,232.4276764752576 192.03828764450736,232.59320831706282 192.23140039120335,232.6563115825411 194.04514560010284,230.09192638477543 197.48068835551385,231.74588515155483 199.57725781342015,232.95490866911132 201.42537301336415,233.95038173894864 202.5444366222946,231.61053262802307 202.64346880000085,231.38967005128507 205.46209934225772,232.49855338432826 209.00249969784636,233.91425762407016 210.29952995560598,230.96852153225336 211.69267968006898,227.53985739161726 212.26094961783383,226.38613490801072 212.7363040711498,225.29505440138746 213.116412871168,224.39511462301016 213.52827022224665,223.30493866087636 213.8169198933756,222.6528425293509 214.78656142228283,220.65584306884557 215.4148332090117,218.91582737542922 213.00019569776487,218.37850038619945 212.23793920013122,218.24131030286662 212.7470811023377,215.18789384671254 212.79368448001333,213.2521051983349 212.84378311119508,212.8016534317867 213.36457585776225,211.8810825915425 215.53949724452104,211.7095898266416 217.81985877337866,211.3332198955468 219.79409436450806,211.8554730140022 221.43773724453058,212.12711730774026 223.96713557338808,212.56979616719764 225.47125959116966,212.8597320370609 226.39109376003034,213.1135399324121 226.75285248004366,213.371006015921 228.13551644445397,213.72450690704864 230.3716047644848,213.07878427422838 231.41697678226046,212.80073880794225 232.52555463113822,212.28717691724887 234.17269276455045,211.55684682284482 235.6424467911711,210.91431893547997 236.74636430235114,210.6774291691836 239.52596451563295,210.24526473827427 241.89603754680138,210.12590488628484 244.41786282672547,209.0457180987578 245.43002993788105,208.63824573007878 247.31804928008933,208.0812283892883 249.6225863111904,207.78534092666814 251.5787630934501,207.74829780001892 253.28269909345545,207.74143796111457 254.7754635377787,208.00714223104296 255.72180337784812,207.8850372111774 255.84471978677902,207.88366524421144 255.99792839121073,207.8818359550787 257.21951943123713,207.83335978502873 258.37848718231544,208.88748537329957 259.83950307557825,209.34571971162222 261.3474136177683,209.37041494785808 262.54046008898877,208.2358031316544 265.35210012446623,205.01029014016967 267.6872206223197,202.4272840723861 268.6912321422715,201.34934554825304 271.2809235912282,203.37121904199012 272.38600618671626,204.25615433760686 274.0762524444144,205.7127453830326 275.4163908268092,206.95438432856463 276.3059328000527,207.96872717601946 277.0952775111655,208.59845882467926 278.3774529423099,209.32193911110517 279.39631928899325,207.5671979787876 280.22294670226984,206.05711225734558 280.5267424711492,206.06442947580945 282.45087943109684,206.94157924875617 283.2087668622844,206.09735695587005 284.4457952711964,206.61779340647627 285.06678528001066,206.97999448602786 285.3697072356008,206.32510522264056 285.97118208010215,205.46213010221254 286.3110954667209,204.9051045885426 287.0940322133247,203.76681071944768 287.5053070222493,203.3039912514505 288.3564012089046,201.99967651779298 289.3671119645005,200.78727874101605 289.44255118223373,200.35417988832342 289.91586673783604,199.57213013456203 290.18121472001076,198.96386726154014 291.180274631246,197.30782862799242 292.10302151110955,195.86627349921037 293.22150257776957,194.28658880287549 293.8975428267149,193.2218729846063 292.6147848534165,192.5916392467916 293.41694549343083,190.69772551313508 294.0271584711736,188.96844568732195 294.1025976889068,188.3866801012191 294.3242550045252,187.8543083363911 295.49225216009654,186.34682929416886 296.12285411555786,185.1306848792592 296.537332906737,183.92642532777973 296.96346254227683,182.3841583429603 297.2046350223245,182.2615814920282 297.4880418133689,182.26112411555368 299.1308108799858,182.6819100313587 299.6140296533704,181.4428761176532 300.4164815645199,179.83427111973288 300.6760041244561,179.1651208511903 300.7928038400132,179.02470423013438 298.39797276456375,176.26437854138203 295.86944824887905,173.45324680546764 295.5685651912354,173.11889076407533 295.35855872009415,173.1239221174037 295.3055473777931,173.11934815981658 295.13864903117064,172.93867676018272 295.07893845334183,172.76578095031437 294.70348999113776,173.1358144065598 291.91223893337883,172.13914683141047 289.1594356622081,171.3290937601123 289.96072248893324,169.32887632510392 292.01767907559406,164.63128865126055 291.4007668623235,163.09940476430347 290.3947164444253,161.11557843512855 286.6929518933175,158.17662775097415 285.03707562666386,156.98411139915697 283.2646909155883,155.89176614407916 281.72153656894807,155.08485429978464 282.8175897600595,153.1828359066276 285.3440753777977,149.3673128259834 284.86784711119253,148.22689705475932 280.59198720008135,145.0672781295143 282.0693142756354,142.71228675043676 282.91341795562766,141.35042398108635 283.19245567999315,140.9217808190151 283.2879926045425,140.76944531791378 283.0873068089131,139.73923364898656 282.5499116089195,138.61432107927976 281.8753277156502,137.62527152500115 281.59425109333824,137.14950139669236 280.9549110045191,136.93540449778084 280.407321315608,136.48982608458027 277.8735539200716,139.62395210919203 274.94191018666606,137.13806460198248 274.864140800084,136.99487587984186 273.7581843910739,137.2853704727022 272.7943682845216,137.99216277501546 272.30678044457454,138.58046839397866 271.5896709689405,139.15733572555473 269.53941361780744,141.36780757061206 269.0058049422223,141.9016660739435 268.33325994666666,142.32984983443748 267.1824477867922,141.47302400367334 266.1216384000145,140.90028001909377 264.7544118044898,140.31152324110735 263.64583395561203,139.867781642708 262.58910236449447,139.51141530869063 262.2963748978218,139.37692003138363 261.06138538673986,139.38744177378248 259.0320995555958,139.7314567216672 257.65933880896773,139.6815928866854 255.78850446233992,139.15276105015073 254.09505422227085,138.64817375922576 254.38632533338387,137.7332346008625 254.4509875200456,137.25792218145216 254.46351217781194,137.15041634032968 247.70980892446823,135.65813825535588 246.77978026669007,135.68558674957603 245.7113978312118,135.95092201413354 244.13445603556465,136.78352366329636 242.284884480061,137.2117175499443 240.11054563557263,137.5237129892921 239.09721343999263,137.62481405423023 237.85319452441763,137.98941795504652 236.20722147566266,140.12945205613505 235.38408931565937,142.1015767598292 235.6430293333251,142.83168378320988 234.80678997340146,144.57322611811105 232.37875399109907,145.63818127149716 230.16567608888727,146.8335048474837 229.55458929785527,147.30513663502643 227.59491726232227,147.8183952786494 227.05519189336337,148.19167352770455 226.8877110045869,149.86638578772545 227.07791104004718,152.41525376448408 227.28238336008508,154.86162645561853 227.29607310227584,155.81446009431966 227.294325475581,155.92104180069873 227.3394724978134,156.3853348880657 227.10004764446057,156.3560592942522 226.46129009779543,156.40271726995707 225.91690439113881,156.49969263846288 225.23736888892017,156.92098606959917 224.83483221335337,157.08657566283364 224.04840021335986,156.6552190820803 223.41721571562812,156.60810373013373 222.23145102220587,156.81852172751678 221.47764138679486,156.78055501700146 220.42411377781536,156.63829415093642 219.39767438231502,156.34004920220468 218.20317155553494,155.82864049606724 216.91109290672466,155.21110601135297 216.22864469338674,154.7596185731236 215.88698368007317,154.4380418396322 215.52172970678657,154.1471128326957 213.82857073785271,153.42161835404113 212.84261802665424,153.1489854999818 211.1314002489671,152.71899338811636 209.9200036978582,152.36173333483748 209.09803662227932,152.09962027007714 208.4269479822833,151.86815541505348 207.81382229342125,151.61564801819623 206.29047438222915,150.91530440282077 205.15422577783465,150.32657486840617 203.9343823645031,149.4537700942019 203.3899966578465,148.90986638714094 202.6606537955813,148.1610244800686 202.18588188453577,147.78866107668728 201.55411484453361,147.42681838432327 200.77263445337303,146.75024869292974 199.74473870231304,145.76306613301858 199.33958058676217,145.45748693024507 198.2015843555564,144.63132303353632 197.1428138667252,143.50506351602962 196.73503431119025,142.9913371837465 196.56289308448322,142.72784039063845 196.23579562676605,142.32801999116782 195.64480654231738,141.4661620638799 195.2882907022722,140.73056086350698 195.11032405344304,140.1047489187913 195.06605084449984,139.67884808813687 194.95129002677277,138.31376394530525 194.92565816896968,136.89880671608262 194.96585358225275,136.47976167447632 193.46376846230123,135.10871016408782 192.16440803557634,133.73673500976292 191.41962780454196,133.03404613415478 191.68701468454674,132.19273789727595 191.15660999109969,131.60029756254517 189.4660724622663,128.40612412284827 188.69012622220907,126.70699861831963 187.73038791120052,125.56005848653149 186.8353117867373,124.55447932938114 186.50937941344455,123.82248064409941 186.19364152895287,122.77983574173413 185.80828984896652,121.8808421374415 185.63789624895435,121.84652933047619 183.93949440005235,119.9167683091946 183.3190869333921,118.95325387630146 182.7310105600627,118.33149655908346 182.5961520356359,117.41372642287752 182.32381354668178,116.5563444243744 182.20730510225985,116.08235804078868 182.13681749335956,115.33431757247308 182.7449915733887,115.19111442338908 182.79945927113295,114.24587975890609 182.6375125334598,113.29835335479584 182.72547640895937,112.43866743129911 182.81023630232085,111.91617437114473 182.73479708458763,110.66026426339522 182.58013212447986,110.07051015313482 182.5183826489374,109.77265855256701 182.31507541344035,107.0352413119399 182.49857621337287,106.9432766684331 183.3115138844587,106.63077960244846 185.1290456178831,106.87327370455023 185.93004117335659,106.59646437736228 185.67255751113407,105.70701184519567 185.46954154677223,104.88847436592914 185.14186154678464,103.13746177149005 184.768160711159,101.34891611966304 186.6381212444976,101.11876962205861 186.60171235562302,99.88841968087945 184.32950641785283,99.26340472185984 182.9608234667685,98.7642150502652 183.96541752899066,97.61438148043817 184.67815793782938,96.68828744615894 185.62741048890166,95.40025975665776 186.57608049781993,94.39957362739369 187.80611840006895,93.06165773671819 188.66624199110083,92.08932995138457 188.75915747566614,92.20189141505398 190.16454058676027,91.47435896948446 192.40033763553947,89.74931943288539 193.51707107562106,88.46536861220375 193.92193792003673,87.88653583271662 194.07427271117922,87.44497460813727 193.41221347567625,86.72703531524166 192.0878037334187,85.90156233659945 190.26881564455107,85.40188425860833 188.74109866668005,85.35932920419145 186.33869454229716,86.10564297798555 184.61407829332165,86.7014109242009 184.17163747560699,86.63368930481374 183.5497736533871,86.72200195287587 183.07587555563077,86.68814114911947 181.77651512890588,86.46347000566311 179.37585863121785,86.06766385980882 178.62496170669328,86.18251635355409 178.0141661866801,86.32299322530162 177.41560405341443,86.49367021373473 176.7966529423138,86.7009533457458 176.74975829338655,86.79612964007538 176.00730823120102,87.33835917210672 175.77836913790088,87.65042652311968 175.29078129783738,87.68794778722804 174.6948406045558,87.90804190048948 173.7898612623103,87.93229342112318 171.51765532442369,87.719520553248 169.3567149512237,87.30358331056777 168.36115029337816,87.30083784740418 167.58695168001577,87.45229583780747 166.22525923559442,87.56897790310904 165.24775338673498,87.59002642589621 164.71472725342028,87.71082660363754 162.72971463110298,88.06773582583992 161.59113585785963,88.24207203963306 158.57851875561755,88.05492371012224 156.6101085867267,87.62525981804356 154.09381745778956,87.41019876347855 152.55444963555783,87.13382211589487 151.84433066670317,86.75906579964794 150.99906190228648,86.37103903986281 149.42503281787504,85.74964568042196 148.55558855109848,85.52909179090057 147.59963676449843,85.33828046440613 146.7977673956193,85.30487702548271 145.29946880007628,85.5693589078146 144.89285432896577,85.77527018403634 144.07642140449025,86.35639650706435 143.66165134229232,86.76364158280194 143.21862798230723,87.56165667733876 143.0057088000467,88.08283581840806 142.61191025783774,89.98313859489281 142.2006354489131,91.14628221746534 142.04917447117623,91.76537224126514 142.02732913778163,94.24949318700237 142.1077199644642,94.98570995999034 142.3867576889461,96.35701569286175 142.98415473790374,98.10396516392939 143.11377038236242,98.74362516740803 142.9786205868004,99.131172189489 142.43423488002736,100.05817086971365 141.95625898672733,100.1936056849081 141.1875945244683,100.2087048314279 140.4235904000234,100.17393103800714 139.2285050310893,99.91358495986788 137.0116406045854,99.549374455004 136.72998144000303,99.4423074311344 135.44984490680508,98.89965067536104 133.48259982233867,98.04402553889668 132.61490318225697,97.78504956315737 132.89743616001215,96.86307427188149 132.93093233788386,96.77293553389609 133.06229560892098,96.82418192760088 133.04394552891608,96.72351935697952 132.94112682668492,96.51990628684871 132.8994750578422,96.37211510696216 132.37926485331263,96.23439010849688 131.9758543644566,96.14059064083267 131.47457678231876,95.98685093759559 131.15417856001295,96.00469573005103 131.1183522134088,96.09025920240674 131.1072839112021,96.2929575603921 131.0557289244607,96.29890581639484 131.1672857600497,94.76608060684521 131.03854392899666,91.70268545323052 131.00796046224423,91.24191412539221 130.8206731379032,90.41142509342171 130.65930894226767,88.40954449068522 130.5934816711815,87.87143582641147 130.65785258670803,87.47242921835277 130.84921770670917,86.43967589945532 131.8640062578488,84.06665823876392 132.35567189345602,83.26451198355062 133.2865743645234,82.31273162260186 134.5340885333717,81.45246500201756 135.6674244266469,80.72809955157572 136.11860337783583,80.54552063788287 136.62250240007415,80.39360022125766 137.5111705600284,80.15794032788835 138.44323811563663,79.73558224574663 138.61071900452953,79.62209911027458 139.10791879112367,79.92228017793968 140.4198038756149,80.26318652555346 141.2994426311925,80.08472555154003 141.17740003566723,79.64269081264501 140.36271473788656,79.12698247598018 139.99076152895577,78.66709955967963 139.1606388622895,78.41542192804627 139.17782385786995,77.63888019020669 139.0648106667213,76.89528280880768 138.7554807467386,75.97459131025244 138.4569278578274,75.42958768759854 138.2151728356257,75.05343829101184 138.00167111109477,74.58851307246368 137.84875377779827,74.28191813960439 136.84619861340616,72.72468373633455 136.43463253346272,71.37244788603857 136.16578929778188,69.76988873828668 136.27821994677652,68.18791051383596 136.66706688003615,67.40629825892393 136.75037041783798,67.20723379671108 137.56447317334823,67.3619091878063 138.0395363556454,64.98593654693104 138.1892497066874,65.03993621486006 138.52537656889763,65.17585057369433 138.74208227568306,64.64729425427504 139.30947840004228,64.93605548574124 139.5069602134172,64.42076972208451 140.10960014222655,63.40346571721602 140.19202986673918,62.91151537117548 140.09824056888465,62.72709090670105 139.91240960010327,62.49324229022022 138.51139555557165,63.845076005440205 138.3077970489394,63.99105889728526 138.5684846934164,63.5865167232696 139.44724963558838,62.79024371871492 141.48702122666873,59.95017947076121 142.14704156445805,59.433051288709976 142.81783893331885,59.0403991532512 143.113187840092,58.92187115421984 142.84201443567872,58.52784517710097 144.18157027557027,57.70317989203613 145.81268849782646,55.623654806404375 146.08502698666416,54.367417930741794 146.34950115554966,53.255790947936475 146.47241756448057,52.42698671028484 146.30377159116324,51.3029931189958 146.17095196445007,50.24443844112102 145.17218332446646,49.914010887849145 144.7635299556423,49.8549732248066 144.33448760898318,49.88472088647541 142.0404363378184,50.27647432661615 141.64663779560942,50.39043050957844 140.326888391166,50.82199896359816 139.74318108451553,50.91902165755164 138.7362568533281,50.81421883997973 137.8344814934535,50.63985246757511 136.71978695120197,50.18128196714679 135.03857009788044,49.73460956721101 135.47897201776505,46.67789941083174 135.87713962676935,44.44952637166716 136.12996295117773,43.105809540254995 136.43754524446558,42.03806129854638 136.61580316454638,41.14880102564348 136.84503352898173,39.61283900705166 138.47353031113744,39.97394667181652 139.3887041423004,39.66318358457647 141.1806040178053,38.797255219193175 141.25225671124645,38.822885284083895 141.35594922676682,38.03018258855445 141.8094583466882,35.2227467977209 142.12053589336574,33.66477355919778 142.22772366227582,32.76266347942874 142.48142080008984,32.499032426276244 143.12979029340204,32.085735180648044 144.7041106489487,31.217945703770965 145.15587214229163,30.90945852152072 145.4453956267098,30.465950214420445 145.34665472002234,29.954243937740102 144.3094382933341,28.86308805004228 143.51281180453952,27.846074545232113 142.71647658676375,26.667944013373926 142.31772643560544,26.20886499446351 142.3838449778268,26.163552057463676 142.00460999109782,25.572194473585114 141.64692906674463,25.2824652842246 141.02127871999983,24.835741476505063 139.97532416007016,24.125833200174384 139.76386133336928,23.94320651644375 139.61240035563242,23.891485146887135 139.12568632897455,23.126190517214127 139.11898709344678,22.626367443590425 139.3019053512253,21.88349640124943 139.26957425789442,21.106294022058137 139.00218737777323,20.46091183263343 138.13944234664086,19.816900877689477 137.40835185779724,18.790690405410714 137.3276697600959,18.811745620158035 137.3326213689288,18.72844019345939 137.07659406226594,18.77329696563538 136.50395505782217,18.340291408647317 135.45887431118172,17.57406169245951 133.61600199108943,15.766499477205798 132.2170268445043,15.047406840487383 131.5619581155479,14.912376447988208 130.6261040356476,15.239195625996217 129.61277184006758,15.105996272701304 127.78300672001205,15.187472175457515 126.39626496005803,15.919838463654742 125.31390151125379,16.87603046692675 124.44125326233916,17.508149332017638 123.58025585778523,17.93612159183249 123.10490140446927,17.96129640430445 122.4090547200758,17.95809233735781 121.35144931566902,18.155371223809198 120.46889784897212,18.625910393428057 119.79140124446712,18.773754687746987 118.9554531556787,18.751784024992958 118.27533511118963,18.56411785655655 117.64444188447669,18.180546010669786 116.84169870230835,18.099071235163137 116.37566492450424,17.774087274388876 116.41090872895438,17.69490096764639 112.28971377783455,17.330094313598238 111.11006577778608,16.456295196549036 110.24761201778892,14.459680720581673 109.4681705244584,7.759764745307621 111.5504676977871,5.03707784897415 110.74160782224499,5 110.07838350220118,5.7809222406940535 108.67183530668262,6.365467700292356 107.95356074674055,7.218251234735362 107.75986545789056,7.963919106638059 106.76896113785915,9.287255821924191 106.70954183116555,9.255213866417762 106.20389518223237,9.896967558306642 105.73232725344133,10.393158123421017 105.11454122676514,11.09578765038168 104.78365724440664,11.798414895194583 104.59578737791162,13.77811782353092 104.24655331554823,14.651012296322733 103.87984298670199,15.055645980348345 101.83104199112859,15.989413132076152 100.66479246225208,16.38397431524936 99.24950613337569,17.14242691185791 98.05092551116832,17.404703503649216 97.14215964451432,17.726941673317924 96.43932245334145,18.144385861291084 94.97073351114523,19.177007497113664 93.9675958044827,19.984426299924962 93.54612650675699,20.485628632828593 92.89659192902036,21.98144750413485 91.60451328009367,23.407226060517132 91.02197105775122,23.81367421359755 90.46884721785318,24.060838257777505 89.86096440895926,24.06129596865503 88.42470656009391,23.700161743327044 87.96216803556308,23.87546525115613 87.7687640178483,24.254449895001017 88.61927566223312,25.912271052540746 88.838311537751,27.185150514764246 89.1062809600262,27.986589297070168 89.67717233789153,29.10063462005928 90.74351587565616,30.702579630771652 91.25702684454154,31.118167998618446 92.04753664007876,32.02074262948008 92.74775239115115,33.1329364128178 94.0045872356277,35.633749618486036 94.31857749330811,36.23240266426001 94.89209031115752,37.000397036084905 94.70596807112452,37.1926240446046 94.65616071119439,37.264937970321625 94.35236494231503,37.195827826682944 93.70545180456247,36.89787589502521 93.21582506678533,36.76423219172284 92.77221916452982,36.65667641174514 90.73623409774154,36.084112614626065 89.79047680005897,35.89646148018073 89.57056711113546,35.87174644059269 89.32939463108778,35.86945801082766 89.0465703823138,35.93628014915157 89.07715384894982,35.983421782264486 89.76251477340702,36.59763513103826 90.67972750228364,37.271345532208215 91.25993955566082,37.968853275175206 91.87976448005065,38.88421435537748 92.02540003566537,39.28285289532505 92.1532680534292,39.92909429507563 92.23802794667426,40.70989046501927 92.2502613334218,41.45178151887376 92.17307448899373,41.971698717796244 92.02743893337902,42.398707243439276 91.9782141156029,42.5039718094049 91.63305784901604,42.68932885560207 91.75306154671125,43.44265487033408 92.15152042673435,44.44266135455109 92.09676145785488,45.045866692322306 91.66247623122763,45.62710241455352 91.23896803567186,45.937856935779564 90.11582663108129,46.717716095619835 88.99239395558834,47.0431142449379 88.45266858674586,46.800553083070554 88.078093937831,46.49666475306731 87.83692145778332,46.54883838223759 87.42914190224838,46.80467204848537 86.96776846225839,47.45592525752727 86.75106275558937,48.49939082423225 86.55183331563603,48.91906393354293 85.96259185788222,49.68426733312663 85.51228672009893,50.40553313167766 85.8696763733169,51.086065344978124 86.38784768001642,51.779867334640585 86.45076224009972,51.98581076879054 86.1705594311934,53.31528533203527 86.09919800888747,53.58209456136683 84.92683178675361,54.247056783468 84.18845952011179,54.768316174217034 83.94845212448854,54.806300786614884 83.67203583999071,55.190722994622774 83.59601408010349,55.27126851363573 82.09684167115483,54.165137941541616 81.55303850676864,53.86080230725929 80.83680284454022,53.52260025055148 80.29766001785174,53.281419300008565 79.62861027568579,53.02330504369456 78.94441443565302,52.78441178740468 78.27449088008143,52.53133109596092 77.55534250673372,51.820598384947516 76.7948336355621,50.93824312952347 76.08762737782672,49.988151186087634 75.92538936890196,49.38953620061511 75.65916757343803,48.22113383183023 75.30469063122291,46.595520039787516 75.1107040712377,45.881106511631515 74.54913336900063,44.14060038654134 74.15591736894567,42.41426809551194 74.28524174226914,41.483818706299644 74.3507777423365,40.641696773527656 71.3448598756222,40.81286747532431 69.48888035560958,40.90989465784514 69.18974492454436,40.91126768372487 68.04854471120052,40.94788170326501 66.24382890667766,40.856346642714925 65.86954552889802,40.85726199345663 63.81433656893205,40.62430509040132 63.248979342286475,40.42613133881241 62.616921031149104,40.13047224050388 61.59397688892204,39.689728902536444 60.86113877338357,39.47370484098792 60.01179221342318,39.121292243828066 59.33225671108812,39.103442759253085 58.485531591111794,39.248526987968944 57.55812437343411,37.692871149629354 57.631524693453684,37.1523479236057 58.621263928944245,36.74180567183066 58.596797155682,36.01591746509075 58.885738097829744,35.51383573591011 59.938391893403605,34.231851486023515 59.67886933335103,33.80116531904787 59.34128611558117,33.397939767106436 58.69146026670933,33.47666263533756 58.177075484534726,33.555843165842816 56.773440000019036,33.86844578635646 56.24827818677295,33.94579541339772 54.983287751092575,34.20713625638746 54.228313031140715,34.77238200849388 54.022093084524386,34.35771603824105 53.185271182330325,33.390159016882535 52.905068373424,32.9548942532856 52.65311886230484,32.26560882979538 52.367090631159954,31.841784165764693 51.81221916445065,31.137391229800414 51.5046368711628,30.764826397411525 51.29899946670048,30.178516068379395 52.48010382230859,29.82013824651949 52.84710542229004,29.534991739317775 52.79496789339464,29.057610790478066 52.340293688932434,28.497842526005115 52.046109866700135,28.065771836787462 51.84309390222188,27.668943441472948 51.69367182219867,27.332073551951908 51.45861603564117,26.699983390048146 51.22297770669684,25.94247971335426 51.10006129788235,25.403757961990777 50.70742784009781,25.385449637658894 49.80070087115746,25.40192712971475 48.25172110227868,25.520015785645228 47.89782670221757,25.145152736571617 47.70267505780794,25.010586355347186 47.142560711246915,25.016994280158542 46.338943715556525,24.91355204221327 45.91077518230304,25.18680421850877 45.43687708443031,25.426185657270253 45.130459875566885,25.691198451677337 44.92161848896649,26.03585191105958 44.55141290673055,26.70776438084431 43.83109944895841,26.557179274444934 43.44982556451578,26.57548749964917 42.957577386754565,26.76131589792203 42.43328938668128,28.2346639779862 42.108522097812966,29.22558675741311 41.94541027559899,29.913966469233856 41.83356216887478,30.10711517033633 41.03140152897686,29.950124651484657 40.36788593779784,29.677793889364693 39.50281073781662,29.29103784810286 38.24248064006679,28.45207236672286 37.80936049786396,28.079960612521973 37.34478307561949,27.65338152879849 35.859591680113226,26.026697775814682 35.60705962672364,24.991362579748966 35.47482254228089,24.565235115936957 34.57916387566365,23.69650004961295 34.650525297853164,23.317514428461436 34.323427840019576,23.106508861179464 33.94098887115251,22.927085310337134 33.63457166228909,22.91793104354292 33.10125425783917,22.932577870204113 32.42317511118017,23.063941552711185 31.66033607115969,23.260758070508018 31.442174008931033,26.709595202177297 31.18148636445403,27.18835444492288 30.970897351158783,27.803965872211847 31.268576426780783,27.910152944969013 30.971479893429205,28.393028847000096 30.92749795562122,28.869953561457805 31.00293717335444,29.968432589550503 31.193137208931148,30.392718621063977 30.91672092443332,31.060040598735213 30.305342862266116,32.009757971041836 29.785132657852955,32.32785514683928 29.997469297843054,32.64229031273862 30.202815431170166,33.25742852978874 30.688946915674023,33.64829669648316 31.84587576892227,35.111528750974685 32.42346638231538,36.39488084282493 32.89852956449613,37.58714656054508 32.89590812451206,38.44392615923425 32.487546026706696,39.30161772237625 31.565964231151156,40.161594269855414 31.092066133394837,40.21788851747988 29.604835840058513,41.20738338975934 28.731605048873462,41.99824375251774 28.48810240009334,42.30488443491049 28.199161457829177,42.74791080248542 27.76662385778036,43.31221890123561 26.120068266638555,44.754790578386746 25.585294506745413,45.42939091101289 25.283537635579705,46.47286625136621 25.17926257790532,46.672865116852336 24.878088249010034,46.706274520314764 24.49215402675327,46.565771925786976 24.372150328941643,46.71863142168149 24.32263424003031,46.87881341209868 24.868476302246563,47.355239717289805 25.41257073788438,47.790933172102086 25.530244266730733,48.023882358917035 25.72918243566528,48.46826999413315 25.926955520058982,48.958422547613736 26.215896462323144,49.42477581370622 26.628918897826225,49.75383114442229 27.30029880895745,50.16068746079691 26.61843313788995,51.130000101577025 27.592152462224476,51.54326096945442 28.991127608926035,52.28969138924731 30.501368320081383,53.13725977996364 31.509748906712048,53.679116017825436 32.58774328895379,54.306550895096734 34.24827989330515,55.106058638426475 34.797325937775895,55.358221028815024 36.094064924516715,55.89595291239675 36.896225564414635,56.15314845566172 38.298404693370685,56.295017752679996 38.449574399972335,56.353138373291586 39.00211569783278,56.71421809960157 39.830199466669,58.05739278020337 40.18176369788125,58.50587855093181 41.851329706725664,60.31537190254312 42.97476238233503,59.1914192896802 43.67526940454263,59.74241307534976 44.45966250670608,60.57118929142598 45.47969393781386,61.41689471434802 46.703032604418695,62.555937540950254 46.85507612442598,62.42322494497057 48.82902044453658,62.57561560859904 48.79872824891936,65.97303004359128 48.66328718222212,65.9817248666659 48.59309084457345,67.09511695004767 48.58289635553956,68.10508171422407 48.649306168896146,68.82948942331132 48.545322382240556,69.89664784673369 48.691249208990484,70.39636173134204 49.03757056000177,70.8512284947792 49.32418133341707,71.25118097558152 51.20579271111637,73.57034165854566 52.764093155623414,75.16326299996581 53.62246912007686,76.0830427489127 52.66360462224111,77.39909891376738 51.94562133343425,77.66359045938589 52.69127537787426,78.70050402340712 53.67926698666997,80.17212568799732 53.76868721784558,80.35470491671003 54.09025052445941,81.09462968772277 54.152873813407496,81.79931759345345 54.469194240053184,82.24638139322633 55.028434773441404,82.37862424401101 55.501167786773294,82.69893531227717 57.072575431200676,84.4519436317496 58.02940103120636,85.29069200193044 58.79253134224564,87.05466118984623 58.83913472003769,87.18232532788534 59.16302819561679,88.46719891100656 59.355558400042355,89.53609077923466 59.122541511198506,90.5761504441034 58.42349084455054,90.88363742979709 56.144585671136156,91.5937842746498 55.41233009786811,91.73425763339037 56.26633699564263,92.17672523920191 56.880627768929116,92.99714106367901 57.02568078227341,94.0737891245517 57.411323733394966,94.56841399840778 57.65628273785114,95.08500065689441 57.84502641786821,95.62903965753503 56.55848192004487,95.86102223000489 56.12477923557162,95.8363140388974 55.45747712010052,96.13052435405552 52.44981162680779,96.91386308742221 51.606581760104746,96.88869745959528 48.49988408898935,97.84315904055256 47.69859726226423,97.89760806423146 46.68497379554901,97.46293060272001 46.231755946646444,96.55879868584452 45.871162311173975,96.11313713039272 45.06463260448072,95.3879056351143 44.61403619556222,94.4444147143513 44.52024689782411,93.66152460535523 44.10314666677732,92.79855770827271 43.41312540450599,92.02252515248256 43.266616035602055,91.02182340307627 42.65203399118036,90.0929557266063 42.34386915562209,89.46242160326801 41.79394929786213,88.6410772287054 41.59238968894351,88.40130814362783 40.72644067555666,87.80783275817521 39.94583409780171,87.81698428001255 38.3586978133535,87.75612665293738 37.57372216891963,87.70716599310981 36.90758513787296,87.73645087511977 35.57268963556271,87.81881458428688 34.86606592009775,87.9666116060107 34.336826311191544,88.3550930795027 33.77554687997326,88.88542178622447 32.862120675621554,89.56903599266661 32.151419164496474,90.11263129016152 32.29501582228113,90.3377562154783 32.51842076447792,90.70701549435034 32.729883591178805,91.16275470220717 32.914258204516955,91.75896629295312 33.169994240044616,92.85575339384377 33.59991039999295,93.02917062008055 34.07642993784975,93.09872049756814 34.60246556450147,92.99073515180498 35.63152639998589,92.57297777710482 36.19542727118824,92.38995129085379 36.89651683566626,92.24398755724542 37.38031815120485,92.37256376660662 37.330510791158304,92.48787048028316 36.79602830228396,93.38652863469906 36.6597134222975,93.9305719055701 37.14264092454687,94.29570699221222 37.44614542229101,94.66404439404141 37.68935680005234,95.06441042397637 37.93955868447665,95.49955026328098 38.08461169782095,95.73427833069582 38.49763413344044,97.35037187550915 39.241831822204404,97.31880051479675 40.07603228453081,97.40482102322858 41.47151217784267,97.4057361347368 41.72433550225105,97.36226832924876 42.20813681790605,97.25016710581258 42.396880497806706,97.70451986801345 42.77786311111413,98.47275363712106 43.11748522671405,99.00580286275363 43.37875541334506,99.43910457065795 43.65779313782696,100.07006717444165 43.86110037332401,100.5042818498332 44.340823893318884,101.06249121658038 45.10045895120129,102.10844357975293 44.823168853414245,102.66619126388105 44.376941511174664,102.55592296778923 43.75391260441393,102.76593598129693 42.75718286226038,102.87757680309005 41.15169649780728,103.78580020053778 39.704952889005654,104.55126713670325 38.42685525340494,105.88499415165279 37.91305301338434,106.23089250858175 37.02758883568458,107.4204858118901 35.48938609776087,110.05907192721497 34.928397937794216,111.25459203158971 33.99749546672683,112.73331269877963 32.62502599111758,116.29235792765394 35.43084060458932,117.67359393520746 35.303263857844286,118.16496228700271 35.02859520004131,118.91162043996155 34.28090225788765,120.10160154668847 33.24863744014874,120.95210690936074 32.514051697799005,121.46222552063409 30.658072177902795,122.64304255374009 27.557782471179962,122.39233106840402 25.543642737786286,122.05469360918505 24.497105635586195,122.30998051719507 23.411829475546256,122.5556595690432 21.518567253369838,123.90940561750904 20.454845155589283,124.46252213057596 19.271410631132312,125.91233033459866 19.264420124469325,126.38446521072183 18.589253688929603,127.27063031279249 17.972924017813057,127.28435509226983 17.740780942258425,127.9783703048015 17.104644835577346,129.49952308787033 16.142867626738735,130.84087360324338 15.75547704892233,131.73434018949047 15.19623651553411,133.2325925711193 15.811401102342643,133.86848891992122 16.56899726227857,134.70338596531656 18.189920995617285,136.70941309689078 19.10509482678026,137.91576527175494 19.530933191184886,138.2442285976722 19.799193884478882,138.9377511969069 19.819582862313837,139.77583095029695 19.76453262218274,140.38609003886813 19.62035342224408,142.4089905435685 19.689093404449522,143.80790072923992 19.979199431138113,144.74019752588356 21.075543893384747,146.99315529607702 22.636174506740645,149.67929074261338 23.501832248992287,150.46701010863762 24.638954666676,152.07308873801958 25.2200405333424,153.10324169893283 25.992782791145146,153.649422052491 26.885528746643104,154.4261485231109 27.688854471081868,155.5944350322825 29.223270684480667,156.8711261949502 30.778075875598006,158.23243387887487 32.05063935997896,159.1152666104026 32.643667342257686,159.59602012240794 33.324367928900756,160.29633564915275 33.98001920001116,161.17687285732245 34.253522773389705,161.93390328151872 34.41779968002811,162.71014260442462 34.33711758221034,162.73164123797324 33.4633042489877,163.71508708025794 33.043873848975636,164.8920143006253 32.69289216003381,165.79082926304545 31.82694314676337,167.16168642276898 30.98429582233075,167.8112053021905 30.546515342313796,168.86186657415237 28.92908686224837,170.45637367642485 28.0136217600666,171.507022108417 26.861644515651278,173.317857827642 26.672609564499,173.15914158709347 25.970063644461334,172.70952117291745 24.21952426666394,171.89306665939512 23.27784476452507,171.6131386887282 22.41539100452792,171.47088757128222 21.46264320006594,171.53217906103237 20.39367822231725,171.3821521003265 19.535884800134227,170.82046487287153 18.584593351115473,173.11568899371196 18.058557724463753,174.87208160711452 18.041372728999704,175.3518853399437 17.873891840106808,176.03980037092697 17.584950897842646,176.5941558397608 15.808197120088153,178.73197873367462 13.884933973429725,179.05214722512756 13.688908515614457,179.64125601190608 13.191708728903905,180.7394273506361 13.345208604470827,181.61622237437405 13.840660764486529,181.68299952324014 14.07105621334631,182.376382947783 13.827262293430977,183.4461832277011 13.742211128934287,184.1304135544342 16.18073287117295,183.79744612547802 16.564919466734864,183.03088729543379 17.059789084480144,182.97920393536333 17.294844871154055,183.0043595546158 17.46611228445545,183.1763324373169 18.580224284436554,185.7522503286018 18.929749617818743,186.41314761602553 18.977518080035225,186.5375515856431 18.74916152888909,186.77629723888822 18.800716515630484,188.54126890795305 19.983568497817032,188.40543200378306 20.691357297822833,188.5261759228306 22.534812160069123,188.98674017720623 24.418171164463274,188.61261755076703 26.48852622229606,187.95630062290002 27.197188835591078,187.6722771404311 27.657397191156633,187.51311405969318 29.168220444465987,187.24738463258836 29.19385230226908,187.4449666129658 32.179672462283634,187.36447027232498 33.25562794681173,187.2588187798974 33.965455644531175,187.2016480373568 34.310320640099235,187.3800207041204 34.71664384007454,187.69377329468261 35.15442431997508,188.23346327559557 36.20037888002116,188.9899417128181 36.92972174228635,191.32659269333817 37.29381063114852,193.17613765172428 37.34274417790584,194.29573582333978 37.33400604443159,194.70369254110847 37.07302712893579,195.76016880839597 37.31128689786419,195.74050284700934 37.12399957340676,197.72675591963343 36.73253120004665,199.00731466629077 36.383879680070095,200.2069169342867 34.8232490667142,198.91264504683204 34.34905969782267,199.65353661496192 33.83700508449692,200.2714016563259 33.3293195378501,200.33451434434392 32.92212252446916,201.02829536196077 32.66172615124378,201.71658613195177 32.65298801776953,202.1245288643986 33.400098417769186,203.4462214502273 34.14575246232562,203.36390173248947 34.68460401776247,203.17959691747092 33.89263786666561,203.9227605346823 34.68839054228738,204.0462397808442 35.227242097840644,204.97233188175596 35.80366762669291,205.88515755196568 35.28025344002526,206.4220582273556 33.37242766225245,208.50470804178622 33.787197724566795,209.3763600968523 32.4205536711961,210.14694149332354 31.752086471184157,209.84373976371717 31.74655232008081,209.44312868244015 29.385217422270216,209.42072004987858 29.02462378668133,209.36218320275657 29.155987057834864,208.7909907932044 28.334311253391206,208.5540987032 28.231492551160045,208.8358081865008 27.24379221338313,209.15410287573468 26.80047758226283,210.27499036164954 26.475710293394513,210.2438927863259 26.132301653386094,210.54800858884118 26.108708693413064,211.79099174262956 26.812128426739946,212.53869892150396 25.794135893462226,212.4394620929379 24.67012067558244,213.52557698113378 23.948059591231868,213.2525625092676 22.947252053418197,215.3067936010193 22.08538083557505,215.32782970461994 21.69536881777458,215.28941594873322 20.791554560069926,215.15679697715677 20.267849102267064,217.10400116426172 20.160370062221773,217.9445221250644 20.02405518235173,218.78549712186214 19.812009813380428,218.7576018644031 19.162475235643797,221.10216284310445 18.981887146714143,222.8654827880673 24.446133191231638,222.41139269189443 26.751835306640714,222.48455933772493 27.126701226690784,222.60757070535328 27.418263608939014,222.78774336283095 27.602346951141953,222.95328257593792 27.548753066686913,223.85917309951037 27.562734080012888,224.75820053258212 26.972910080105066,226.72681063698838 26.38162972452119,227.9870775329182 25.64384000003338,228.74158794723917 25.094793955562636,229.3863493084791 24.763618702301756,229.87837867240887 24.64390627562534,230.4184207668295 25.096250311122276,231.18298271548701 25.059258880093694,231.69970068515977 25.182175288908184,232.31061520677758 24.984984746668488,232.4670017308672 24.82536817784421,232.61881544149946 24.57108849787619,233.19954762910493 24.5489518934628,234.00708286929876 24.16680419561453,234.09716447320534 23.7223244800698,234.6083882971434 23.428431928972714,234.08481826575007 23.039002453442663,234.6934397285222 23.299107555532828,234.90195277379826 22.865404871175997,235.1575638864888 22.580250453436747,235.08120066975243 22.447430826723576,235.60842640133342 21.93828892451711,235.9093057316495 21.8040129422443,235.03318785503507 20.70883356453851,235.20786299649626 19.879002169007435,235.6161998847383 20.04706560005434,236.93905978882685 19.48928142222576,237.3291030083783 18.98858638224192,237.52801106194966 19.008392817806453,238.0337396810064 19.641033671214245,238.43612688826397 18.893340728944167,238.7045370300766 18.736636871122755,239.0488514265162 18.907613013405353,239.26650539739057 18.29011825786438,239.78640485799406 18.38682026672177,239.8993467921391 18.322740622330457,239.95238832791802 18.411287040100433,240.0598431234248 18.461385671165772,240.15495200437726 18.103996017831378,240.6785073556821 18.057392640039325,241.00818653858732 18.02302264899481,240.979379639728 18.061761706718244,240.6903959340998 17.827288462314755,240.6853661510395 17.736994417849928,240.53721612354275 17.950496142264456,239.93729892675765 17.41164458671119,239.74250838183798 17.23950336012058,240.3213924454758 17.229600142338313,241.03607892908622 16.67764138674829,241.45720786368474 16.257045902311802,241.53036807279568 15.789264497812837,242.55323665752076 15.400417564553209,242.375823945913 14.620102257817052,241.7663095788448 14.674861226696521,240.87512606894597 13.602692266809754,239.9327263807645 13.859593386761844,239.21574997412972 13.76230883563403,238.92402037396096 13.414822400081903,238.97294683905784 13.265982862212695,238.28340274083894 13.36530631117057,237.73103426618036 13.249089137883857,237.29160767665599 13.020441315602511,237.12013504025526 12.056625208933838,236.91894030710682 11.805258240085095,236.58879763516597 11.52010382222943,236.47539671207778 11.31504896003753,236.4978025443852 10.971349049010314,236.83114618313266 10.709205048973672,236.99621739715803 10.570851271157153,236.3834870493738 9.529265777789988,236.20103939430555 9.447127324412577,236.5060332576977 8.992744391201995,236.50786230503581 9.035269973333925,236.12787738419138 8.50573909340892,236.13793716207147 8.115144533338025,237.10093009652337 7.324343466665596,237.91805322043365 7.361626168945804,238.20109626936028 7.612119324505329,238.33141483471263 7.141716480022296,239.23769826674834 6.867630364489742,238.92950745474081 6.230329173384234,239.51753880199976 5.6023486577905715,241.01824608969036 6.071003875578754,241.45537885813974 5.548172231181525,242.09735885530245 5.753809635643847,242.5916455759434 6.03051719116047,242.97573438554537 6.451403946732171,243.51665830321144 7.139095040038228,244.8669045859715 7.197640533326194,245.3730733047123 7.826494862209074,245.93776781385532 7.269875768921338,246.0132127177203 6.721703537856229,246.47776984935626 6.975400675670244,246.99673751345836 6.849280284484848,247.57697389577515 7.439395555644296,247.5591415950912 7.382597688934766,248.47133047465468 6.448782506748103,248.40960352891125 6.177026560064405,248.7795077037299 6.020031431224197,249.29755538073368 5.955369244446047,249.96283102955204 5.362923804437742,249.96557443006895 5.292144924518652,250.35788034432335 5.48991800902877,251.32035279867705 5,251.81964798719855" stroke="red" stroke-width="3.096840713022546px" fill="none" stroke-linejoin="round" vector-effect="non-scaling-stroke"></polygon></svg>