<svg viewBox="0 0 66.85945520001339 72.5137805246625" width="66.85945520001339" height="72.5137805246625" xmlns="http://www.w3.org/2000/svg">
  <title>Město Touškov, okres Plzeň-sever, Plzeňský kraj, Jihozápad, 330 33, Česko</title>
  <desc>Geojson of Město Touškov, okres Plzeň-sever, Plzeňský kraj, Jihozápad, 330 33, Česko</desc>
  <metadata>
    <collboard>
      <support-module name="@collboard/map-svg-geojson-import" version="0.11.1"></support-module>
    </collboard>
  </metadata>
  <polygon points="8.052549999999997,41.68245960985189 9.807968168875618,43.19424243027572 10.153197253333587,43.44595782008366 11.424377199996911,51.60724610742875 11.82887995555177,52.612592619850716 18.84181449778373,51.30437564342685 19.72538541333745,51.34485619355803 21.335095208872758,57.49563445190836 21.3739070844382,57.58019423117332 31.329480844440354,58.97270585736953 31.52936564444792,58.56164183025942 39.08122456001695,64.36506996717765 39.22132596444101,64.39573314105621 43.56425104887569,64.33102480544005 43.65949670223165,64.29044114122337 43.66859892445029,61.30114594652662 43.75685407111416,61.0285433106543 45.79997528001661,60.18468409986929 46.193992275547885,60.0063276861398 41.305079493329345,57.85258857723204 40.567872311111955,57.853941525877985 38.81937183111552,54.143466648885465 38.58555394667894,53.552523010126265 40.85055092443474,48.27411271841959 40.909678960022234,48.09549189394568 40.311626551097675,42.837418089482185 40.58935355555843,42.37999384472607 34.464941537771324,40.95525518150646 33.78540603555268,40.66867894144491 35.29979736000644,39.10065962284682 35.68361986664934,38.56831455724716 32.09515977776721,36.659950212698845 32.224192880013675,36.09227790780244 22.065384702210963,31.847350325151297 20.446791137779314,31.128023834527653 8.355763226667136,32.21800788632356 8.231390462205695,32.18258910449333 10.753507013323201,34.5365345605893 10.819916826679787,35.07692719746376 8.052549999999997,41.68245960985189" stroke="#009edd" stroke-width="4.855091557906624px" fill="none" stroke-linejoin="round" vector-effect="non-scaling-stroke"></polygon>
  <polygon points="38.50909528000159,24.936032489109152 43.93795188444312,27.813720573823616 44.13405016001309,28.015533223231273 41.829950035556635,31.09474756412203 41.872111528885966,31.18363464120887 46.471500826657234,31.33523866233702 46.74252859556111,31.07252577224392 48.50602953776945,33.69971061833314 49.264572328894815,33.792090114009284 53.86199554664893,29.60970285913902 54.199724399986394,29.690583279799853 52.49556994668785,22.722245001153738 52.693270213326855,22.347574336839557 58.78760848890636,18.201092511276897 58.806905200013375,18.165326156718606 41.006599422231034,8.219227049579445 40.69202662222199,8.052549999999997 38.50909528000159,24.936032489109152" stroke="#009edd" stroke-width="5.9776508235144865px" fill="none" stroke-linejoin="round" vector-effect="non-scaling-stroke"></polygon>
</svg>