<svg viewBox="0 0 100.47286959997952 69.73047418327702" width="100.47286959997952" height="69.73047418327702" xmlns="http://www.w3.org/2000/svg">
  <title>Dašice, okres Pardubice, Pardubický kraj, Severovýchod, 53303, Česko</title>
  <desc>Geojson of Dašice, okres Pardubice, Pardubický kraj, Severovýchod, 53303, Česko</desc>
  <metadata>
    <collboard>
      <support-module name="@collboard/map-svg-geojson-import" version="0.11.0"></support-module>
    </collboard>
  </metadata>
  <polygon points="8.052549999999997,50.38291234107567 19.462367599982485,56.23611272245 19.995175279974887,56.519423977566134 21.24312635555509,61.40563122934657 21.64238623111271,61.677924183277014 23.982822426659936,60.00822457514698 24.4024712799943,59.57807174698212 22.888444044430457,57.140097123039254 23.5381970755476,56.445876517412785 30.51057211554837,54.39149375848467 31.08241012442852,54.484423160792744 31.874885999982894,48.5085131000302 32.18348774224398,48.438468389874856 36.05906832888252,48.777470348729935 36.135017271102356,48.78563085129247 36.11688564444887,52.69573096953502 36.08637499553845,52.96081425995328 38.049323831109746,53.22725623251574 38.05230936001283,54.126530762535936 51.738410693338324,58.950060646667794 52.271218373330726,59.107574035478706 53.3058861777896,54.43557858007955 53.521353982221285,52.908228365667696 55.80462822222728,55.38503684661521 56.620260151110074,55.71379622848292 64.6155065155541,53.213996496960704 64.83563465777081,53.21195653735015 70.91737545777107,56.14261968476751 70.99084859554534,56.16551132823918 72.85877023111209,54.381634166252866 72.89299458667631,54.34729557244975 71.59778477333714,51.51491033005698 71.58970200000442,51.10781083985751 74.09747344887694,50.740262666491276 74.80999540445157,50.61071919440985 76.56475821333117,52.85904237547186 76.78342999998824,52.937581274112404 80.30045584889706,51.37460188515945 80.42832386666089,51.08265035943589 82.97417901334813,55.533154469805254 82.99777197332116,55.822475642758604 90.66453734221398,55.93500790463406 91.26244411554183,55.97807154854638 92.22363878222643,52.47053949046642 92.21846871998389,52.342813461589344 90.3937280266615,48.536168268219285 90.42249104887708,47.55474122364069 92.08979970665644,44.37957488661743 92.4203195999795,43.46200312911935 89.13398047109479,40.080512841384575 88.96933947556647,39.97180199893012 86.25534807999031,41.321773493232854 85.38757862224122,40.71985062945862 86.828351173324,38.227184329887336 87.26700546665927,37.44871992641822 82.93747885333835,32.3922279741015 82.09796269334731,31.85721135824099 78.5476591200055,37.97767336038635 78.47098200000585,38.01383608426079 76.00282342223329,36.52717690212705 75.82689567111777,36.16803277085239 78.06451316446294,33.9600605379743 78.76560272888275,33.299442689960074 77.69663775110496,32.38746624737507 77.63809225775879,32.35073291289848 73.5966327733255,35.53544359542832 70.71144678223175,37.72555389062438 76.23722384888208,31.61141259951512 76.49681922666025,31.36402545870044 71.74356596446125,29.641921305948586 71.64686395554565,29.627068501714916 73.2686615022318,27.00985041271599 73.66966900445516,26.363888518135013 66.34092376000592,22.834263599368228 66.09254232000205,22.606567265487342 60.453533608880775,12.371835342993677 60.38879860446434,11.955823304342289 55.687828506670144,10.479794190505004 55.097494782217495,11.021939549674812 53.97493592001376,8.119924500591537 52.73521325333388,8.139093324723603 48.470130373323286,15.437047379243836 48.39571060444689,15.611244499253758 51.252788933321085,17.83175528608956 51.45194555554883,18.01909965134803 50.28358431111667,21.005408773409386 49.722232062231,23.425044963696223 45.2855904977838,24.985538717700933 45.27182793778013,25.018421769920337 48.86851643556258,27.86919348817139 49.28408749332414,28.158208185668286 44.20380959110446,35.8576341979857 43.88035302222818,36.33343435545214 44.04746982220206,41.49520765958698 43.97472486223671,42.02378171406565 39.55075359109435,42.59746522427997 39.03068902221969,42.47957778050443 33.61909023111332,36.825328216138246 33.29366758221988,36.49441416766024 28.674908755557794,39.688517980852 27.489945057786485,40.40335669127637 24.49021670222976,37.35111351243506 24.504270533339536,36.1678060377086 20.181880062220102,36.73985078206863 19.451008026669683,36.8994690117903 19.218355226657536,39.84461343847909 19.131119528879594,40.08323344359053 13.600682124444234,40.116334093305 12.735679742217712,39.912402030873295 11.678802515532539,45.355391798024016 10.935697093350996,47.557574795274945 8.052549999999997,50.38291234107567" stroke="#009edd" stroke-width="5.6860208266826024px" fill="none" stroke-linejoin="round" vector-effect="non-scaling-stroke"></polygon>
</svg>