<svg viewBox="0 0 955.4286558400047 650.5940373333717" width="955.4286558400047" height="650.5940373333717" xmlns="http://www.w3.org/2000/svg">
  <title>Liberecký kraj</title>
  <desc>Geojson of Liberecký kraj</desc>
  <metadata>
    <collboard>
      <support-module name="@collboard/map-svg-geojson-import" version="0.11.1"></support-module>
    </collboard>
  </metadata>
  <polygon points="8.052549999999997,428.7633372834896 15.064392275562227,431.5678058263509 15.387921662222311,431.74078309853917 22.028393271124173,430.6017187109171 22.58785225777649,430.7022219813441 20.26904294221424,435.0157607404469 20.1520975910895,435.2986394654797 20.236711848883374,440.47484003562545 20.155083119992582,440.6829296597059 25.05353503110348,454.26662089853903 25.032345057792213,454.672015678814 20.019277964434536,463.09919761407195 19.981922444428733,463.33291327802704 24.91751142222313,465.8198102519452 25.178635973315636,466.10505282163626 27.644027475536518,469.0145557070862 27.825999102212904,469.1786897871423 26.565013644437954,472.716977814365 25.85329268445605,472.88465853789944 34.31318928887015,479.3411753035541 34.43996503999335,479.5498036623246 37.30825730667095,490.7930828243914 37.425930835575514,490.87052751260467 35.2685585333453,494.5433433606738 35.25632514665597,494.6553148293385 39.54288927111304,496.375126112536 39.77313908443432,496.47803083415033 43.345287991112514,502.078528135891 43.752557822219046,502.21961999065365 43.613985591109326,505.72144758210175 43.60451928000077,505.7388821671991 53.59162313777017,510.1700664878224 53.839203582210416,510.2906074219861 52.59780610664859,513.1573608507531 52.596422568872754,513.3868459350995 55.64384656889126,515.8002222213906 55.61450100443437,516.0381823463902 51.90312450665044,516.5286635949521 51.8792402755422,516.5902457984118 55.538479244459836,517.1418448992551 55.81882768887556,517.1521658266499 58.43087419556798,526.2090514178342 58.43313154666214,526.2292311748095 61.13649154667621,526.1262684721803 61.1845512799988,526.2042357928947 59.243593413331496,527.3044802772417 58.91773385776435,527.5176242569357 61.27156852445444,531.680814495943 61.5645144444494,532.1232320502238 60.89662978664967,534.4411931730062 60.98932681777626,535.105873303495 63.418018159987355,535.7240024357523 63.48967085331208,535.8576696376911 64.87189791110688,542.4172735072859 64.88150985778304,542.4548699475924 62.74510907554179,544.9931422720908 62.77095938666719,545.0868996071292 65.31011529776845,546.6770817516733 66.18705979554909,547.0859093985998 65.51276717332769,548.6449733737024 65.41453599109775,549.1603726309911 67.76130733334105,547.6680278668134 68.25188070222032,547.7104343618337 69.59172781330528,551.6697936311609 69.79488941332204,552.5106344721642 73.11712770665292,554.764348857432 73.1273221955704,554.7853201302421 72.44669442665293,557.0806512280612 72.6656574844452,557.4016231079802 76.17037712888089,558.6887000486674 76.37754370665755,558.7930903617014 74.27398374223378,563.7874327427196 74.21543824888761,563.9582682810212 77.43449375109742,563.2735479381879 78.42561652445113,563.1477399437351 79.20156276445016,565.6082757516194 79.25479256001529,565.6449394659937 76.46667266666884,570.1657285361214 76.42254509332236,570.2656286740455 79.8847391555679,572.7762463878241 79.93177944000456,573.1448958329781 81.44456877333107,571.5173434191017 81.65195380443004,571.716107462569 78.82866292444635,575.9493216055632 78.82196368888947,575.9586003349757 102.50645563554247,581.1830738884962 103.0439964711037,581.5666707802809 101.3079478311189,582.5190651474475 101.24161083557522,582.5391093465075 104.6869839911011,583.9980779984396 104.94461328889122,583.9808977205901 105.52183981333621,591.9710846982268 105.50487327110716,592.1793930385973 107.82164368889755,592.4722143455945 108.38525328890648,592.4139250526857 107.89133030223422,594.8132390425524 107.91011728888373,594.9022149906739 113.14141926222476,603.1611103650428 113.2437282399984,603.4668100111519 112.40413926222357,605.1744599459705 112.04645833778306,605.6521114075802 114.19997129779188,605.3250144934352 114.26383248888999,605.3434473788 112.42918857778534,606.9275071455702 112.28719391112793,607.0897344107577 113.97212447110326,610.8673053651362 113.7093979288835,611.3299100166257 119.83555757333636,611.9137409725588 120.0417047022271,612.0376039059554 123.00873787556304,619.3394062631776 123.3835309777711,619.598772727513 126.32318466666732,611.0231100463786 126.61416450667423,610.45815853199 124.26215028443369,611.1538436793851 124.24329048000038,610.4093904041581 129.9176158133265,599.5012819561014 130.14116639112,599.3763597761642 139.73753005333822,597.9751734400995 140.01103362668766,597.7159322386794 141.14706377775985,598.7265536800039 141.0857512088911,599.1804454918672 139.1106418044434,600.3800801512623 139.18353240000545,600.6538500648528 146.43712969776936,613.0730274018786 146.64415064000752,613.3145661281085 156.45459856888158,615.0573905970448 156.96359483554954,615.1532013871836 161.4431260711059,612.8751022100403 161.69959028444248,612.560984628806 158.16574352890132,605.8357519298804 158.34210818666145,605.5136936689739 169.2434392444335,603.9014272065322 170.24482932443027,603.4840985911794 171.93864365333104,597.8224228119723 172.06432713778452,597.7689485395747 179.63424486222323,597.6892523095228 179.79553623998765,597.7627652155859 180.78673183112517,599.729828112009 180.7546191911166,600.0254710547085 178.85684226666456,601.0520791914967 178.7508195822371,601.349890373436 180.73401175998845,604.7877102969576 180.73088059554686,605.0282556229574 178.43610114666046,607.0011219776131 178.44556745776902,607.1071363185399 182.4862259466678,611.9314847558342 183.03650989331766,612.2544205943193 181.00525798221463,611.295566822904 180.90476944889053,611.2474863150344 177.51786896889791,617.754450977365 177.33575170665392,618.2973494646792 180.83202448889608,623.0553473540856 180.97999021333055,623.2890587633954 182.1287634755496,632.4839198600746 182.1928431199991,632.678111470166 187.9104950311081,640.3533283545764 188.0599171111022,640.4433735579876 190.3879014666669,634.4531529658486 190.46450576888276,634.4554415325472 194.65611551111908,635.0700326143776 194.75427387556522,635.0746096954606 202.50346896888334,642.2649546903483 202.8782620711205,642.5414873333718 205.65575056887576,638.021826216114 205.702281128884,637.9737694639841 203.9214495555567,634.7872826787132 203.9698005599854,634.6925365177519 209.49885442664493,630.1689007651364 209.66466050665588,629.9736702049629 209.75677499554115,632.8377440041002 210.05168699555327,633.0561937833625 216.3111759911186,633.4266066100024 216.33134651554394,633.4213428063156 219.208813822224,625.087641420432 219.2278192622249,625.081003427076 230.87385773333483,633.9222028746224 231.16906100445306,633.9917759419402 230.7459897155419,627.7234326342948 230.8727654666651,627.6388595039969 243.8657871911197,628.4638710366341 244.24349300444703,628.4882469662186 251.35232856000187,625.9869675410371 251.50327981331031,625.7966430901795 262.32290932443686,633.1846999726038 262.64228809776944,633.3977701139881 259.71122690666346,620.1226525642339 259.6759102844295,619.918915760885 281.36104450666573,611.682040971187 282.19225944000175,612.0576371633576 286.7832018755504,587.760770884757 286.82667408887175,587.6121143816051 303.2039020355511,590.8786838378799 305.6857503555435,591.7594545122772 307.3396605422091,589.2569334503421 307.5766824088711,588.8239163782052 310.5384727022098,576.416578110329 310.640271955555,576.471333572619 304.39855049778237,558.016403266847 304.3224559199949,557.6738919405977 304.9987146222335,545.5825041370333 305.0037390488793,545.2955033629912 341.85514157333057,552.5407747691131 342.7921607377717,552.7330763439747 360.6791924888745,566.3607935047983 360.5706211822177,566.4640232744639 376.384603617778,550.6441953408864 376.5193165066663,550.3544708982297 383.8541056266473,546.0919726023346 384.29945915553947,545.8786726664182 383.73992735110335,542.1858485011833 383.5706988355738,541.7626556834218 376.2130449333414,536.665626951966 375.92060873777484,536.216941592698 375.29954591111857,528.0129313864234 375.3903496800118,527.8986213247333 387.52390317334323,524.9698164386716 387.931755546662,524.8415113408917 395.3125655022228,519.2144769025833 395.6882324177783,518.4569445182058 404.0174211110931,518.2774791131594 404.06060205333745,518.31784454696 406.6222586577711,514.9111021729984 406.67170192886954,514.8294487273449 408.3877256799966,518.6909940322291 408.6886815555405,519.7632970878838 410.49842178668007,518.858876057471 412.20476077331807,517.8989370284614 419.91441581332003,511.67537521862664 420.2076530044211,511.3116964734288 416.885487528874,500.7007410604199 416.8927693066431,500.6218192142476 413.32142139555765,494.58430016456236 412.907161057759,494.12620170598507 410.47191611555866,493.7746804936103 410.5339568622363,493.4337119090703 415.91031184889255,491.2161015674717 416.1064101244625,491.0910434829782 416.25998281778413,488.8916948338808 416.396516151122,488.64936975762953 426.54636774221547,487.96782464908733 426.6332393511035,487.7786197757739 419.219370124432,476.85306505402673 418.8396982311166,476.6343271248986 419.08116198221217,467.4813126883307 419.0722782133158,467.30156297506596 417.37103647110746,462.5437170802977 417.0601045599975,461.95608844504 419.4255172533227,462.976370214026 419.50081083554653,462.94824614385266 418.69704820443405,460.04691128164245 418.93210399110797,459.8103114164185 416.2368995822104,459.1326496819745 415.99572710222094,458.95218335703953 416.79672265778174,457.2785934862693 416.78958651555115,457.16551121770294 413.33940738667263,454.83825995318307 413.19071348445834,454.6883186620905 408.5399876533262,445.620229218104 408.4282851821987,445.54731274172786 411.76093641776936,440.48299367287086 411.80520962665435,440.3404771035928 410.3540241333318,432.9726271159086 410.70216592887994,432.44382777767146 413.7142733066645,429.4016377659061 414.1053047733218,429.0485460804118 417.15505894221826,431.30087301124126 417.2087984622118,431.5326589821268 426.18497311112117,423.362923357148 426.0927129866683,422.87584521662916 421.0018765066703,413.9539552884887 420.7990789955435,413.3379919494107 393.967985235569,385.30645674118546 393.6808647377835,385.160690442797 393.8366947821993,381.9520077011473 394.0092000977671,381.3562576165493 398.03755238222186,377.7333299519157 398.35409126221896,377.68941000292375 405.8367004710959,360.1497280977271 406.0071668888919,359.85311352463737 401.4950861066533,355.76129900955834 401.3581886844255,354.80961086747243 370.85045250665974,353.55941631716973 370.7190892355644,353.49868296998443 369.3482217511115,350.06863310495805 368.7774031911173,349.97085525160196 369.2329512088978,337.0627361709701 369.15307010667277,336.55911431590334 364.17109620443773,323.6178585290688 364.0585199199919,323.3356592080452 352.946090124438,318.87816399409326 352.3840096977725,318.2590414639633 348.6729244711238,319.77547042925266 348.36206537776854,319.7403657252214 342.73339679110325,313.70316737169173 342.13359675554204,313.24502632205963 336.2310605066665,316.96690671545343 335.91561389331,317.7047141580331 335.87541847999785,321.7857232881722 335.9324348000006,321.96469269641216 325.84251224,348.347716971424 325.39650335111185,348.9078259883752 326.8776897688873,351.61062391068094 326.48782338665444,352.05636088836013 325.0487984622083,350.5955951639114 324.67335000000423,350.2236969133735 322.51262808001013,353.54733866838046 322.49864706665505,353.57149396331056 311.4524814488901,350.16042909291696 311.18443920888933,350.1953989519459 311.55085826665857,354.4157722315938 311.13375803555357,354.4926077989146 308.1767008977837,351.08919323984423 308.1925023555592,350.62895430006733 292.07465133333574,349.57272500759404 291.5808739822311,349.4327287851263 297.3485517066798,341.85409969292937 297.3933346399932,341.8309745978256 296.35167632887135,335.9033748075524 296.382769519994,335.797746956792 300.76938527110144,334.94730864428107 300.87730121776224,334.69796232711064 299.17882655110554,329.1220609589143 299.25026079110796,329.01722535691056 307.4654168444464,329.35773893303826 307.76586299556186,329.81321131526033 311.44155878222193,327.4523772732134 311.5818786399974,327.3537528056256 312.10958907556017,322.48536944608327 312.20942224888825,321.89356537577237 304.66302466666787,321.5002917476884 304.5642109422257,321.4798050708848 305.7660683644423,316.11732216527867 306.15935718222283,315.3287308834331 293.0051168977585,304.8811953330803 292.5650790666474,304.4339166095958 295.9170998311089,302.4672277128045 295.9334110133128,302.4542175307795 295.18513552888874,300.7526198257035 295.0230431555607,300.5984498156538 287.87306555556245,298.7798091093498 287.212098586671,298.16460069888103 282.6752597599767,304.2037709749345 282.49008415110404,304.6603771121661 280.6934511200012,303.8541181213584 280.4282487733359,303.89406869395293 274.9410651288705,284.8780459264451 274.9290501955617,284.4455735230365 268.89311177776074,272.162713380945 268.683979119996,271.8384268012958 267.30590267555783,250.73693846222136 267.13208663999796,250.56602984759206 275.45705190220144,245.1068102565257 276.1304707111045,244.72427071279503 280.43108866667137,245.09159632237402 280.9903292000014,244.90384219002567 284.35261727110594,240.70185092064617 284.54289012443735,240.42348161800305 280.28064713776223,237.95232901085524 280.1784837955562,237.56604987031437 282.05084731555655,227.2658640203224 281.8409864799829,226.50329566797132 274.71948063112325,219.03418945076533 274.53699927998935,218.84438405957894 261.64024265777664,221.65737898817292 260.95837698665093,222.046885612486 242.92607376888157,209.25707233406843 242.79427359111253,209.14877372078604 230.67739536890406,209.743317734137 230.25738242667978,209.66373802396242 211.99621293333587,199.66493726392923 211.34857161777438,199.46202842766775 209.2293558311136,199.26142593211966 208.97005172444153,199.65051795746672 199.4842254488973,217.5266826083605 199.11751511999285,217.98010377915466 189.88953659556103,221.90874829868676 189.64093670223485,222.28383986160748 171.71174345777365,221.82826412432019 171.65108624887182,221.88626347698278 173.83598367110937,231.6358386871359 173.95788063112525,232.04026014978422 168.85000479111443,235.5562239264034 168.66060575110134,235.80683666028904 169.340796613316,243.19881105641957 169.2586581599968,243.84081181349006 165.93794904000936,249.34326256761392 165.87707337778522,249.91892319691374 168.7479142666631,257.2183883347386 168.8001246133132,257.5157990604855 166.77972255112365,265.88848699132336 166.83870495111444,266.059577391781 153.6766731644235,268.8313965467603 153.27136941333413,268.79257201760606 153.03478445331677,271.6647051587713 152.3982842577749,272.4874588012824 148.70438402664843,269.4160652252392 148.58547259556474,269.3985540585343 141.61258783110645,271.1533289801516 141.31527284443257,271.21599845536525 139.73199590220577,267.61376764217107 139.55009709331318,267.32943137063535 131.2696963111008,265.76071609519545 131.18209652443295,265.7813391909365 127.13590388443083,258.89670358520357 127.15636567999138,258.8740037554742 118.65751156444423,252.87100317204727 118.43388816889603,252.509377466871 106.43919817778044,255.57470639875805 106.33885527999485,255.5238878946618 110.81525535110961,253.26224303298636 111.20097112001497,253.11220086577646 110.84911561775482,247.93157143252733 110.87554847109243,247.33502888821363 99.53607284444263,249.24991161519551 98.78488464887016,249.29382115742897 93.65509065776826,255.16423901489884 93.22502886222321,255.3415861995088 87.60757421333221,250.0602155355225 87.2717386222281,249.94208779007727 81.3970915822207,252.7395136731427 81.06242107554101,252.96411736439745 84.45514697777219,253.79418639440678 85.01693613333157,254.12365214437136 84.22205727111543,255.51271012202028 84.00360393778067,255.9827507435764 85.748463528878,256.74294259159774 86.19658413332183,256.62759508785507 84.11202960886988,258.8208838119242 83.8148602577927,259.18500211295736 90.43996731553455,258.66152366673464 90.78898292443012,259.04396417718795 87.34892546665617,261.56092878877075 87.16076432888042,262.11030369713967 86.61128137776507,264.81734503585153 86.50271007110825,265.1598777434335 88.52172859555105,268.99130262103404 88.51073311109906,269.02770768394817 85.18383448001225,270.49483427577775 85.12638125333581,270.5025528572512 92.68785211555189,274.26436562887807 92.69120173331578,274.28728935975937 84.95161858667382,283.5301717440086 84.93064706665575,283.72078575252795 92.02004027556507,290.21841954785464 92.18242391999922,290.59821762964543 85.43614807999222,298.8517729505909 85.03841737777805,299.32224138994184 73.91892425777735,296.9530467642687 73.7348409155453,297.04815738223965 74.07628347556567,298.4297756143276 74.42843024887372,298.91026508989285 70.05222744000605,304.15403452047735 69.90469862221619,304.17936327616167 69.75891743109207,310.8126695132303 69.84476959109418,311.33794355887926 65.78590665775812,322.55430924858206 65.9752328799874,323.5825261501957 63.677249448875614,325.01847521012655 63.19497730665137,325.3004355459195 63.12230516444072,330.3160907010822 62.06710274666659,333.36146020785213 72.47502054222389,339.08707134970587 72.51040998221254,339.09915223962867 62.25519106665854,344.5477027003724 61.828114799987475,344.72199475917273 60.40015817777714,335.1516636027443 60.42382395556308,334.99805226206786 56.820727493329855,338.89412191196584 56.52916511111073,339.1745139204502 57.175422888867274,341.810150498706 57.11374623110862,342.1192897508806 52.4640398488915,350.9194079750084 52.17276873777848,351.22837994824636 32.821007386671795,356.79670373908425 32.495147831104646,356.9877488056152 30.038785733318605,364.04328996763047 29.723994479987255,364.39519751862804 30.816406782228682,369.7258559224208 30.77490064889537,369.9690607474547 26.86924631999102,374.0141492823384 26.76147600889783,374.1923704267899 25.773775671120916,380.54493704383617 25.741517395544747,380.90225530326256 34.524652115541926,391.3766753786838 34.49268511110097,391.4788609887253 14.803049271118311,406.76865753065044 14.6127764177578,406.9802096458659 8.437391955557928,417.8201968669234 8.192287315563249,418.41761222953915 8.052549999999997,428.7633372834896" stroke="#009edd" stroke-width="4.917629616363154px" fill="none" stroke-linejoin="round" vector-effect="non-scaling-stroke"></polygon>
  <polygon points="559.6184536444558,409.4949847804744 562.7737207733513,411.0113771594258 562.954891404435,411.173389736992 562.7368021599901,413.93350371806423 562.9746250222157,414.18501153708326 569.1400334488786,414.27175790891465 569.2816640266461,414.1666281820869 572.1897876177751,417.0953623053863 572.2470223911292,417.09949833623955 567.8703826755587,418.9572334570764 567.7950890933349,419.0514397178265 569.0606620711111,421.91798862955307 569.0150053244503,422.644022047454 567.2853646488871,426.02580748941523 567.2820150310941,426.06256611071126 571.4696197955415,428.0542715855479 571.7385358488897,428.27171326420626 567.8677612355456,433.85333527340094 567.7176109777716,434.0635178025766 573.9446232444385,442.9440725652164 573.9280207911285,443.1423917525751 568.0538834755495,458.50468855596387 568.0323294133192,458.50928061997524 573.8904468177712,466.9929108895665 573.9738959911116,467.58828988360597 576.0559018933342,466.95250706458296 576.4065923111117,466.90693794156664 582.0172020888782,478.32464561501524 582.1914550311118,478.4099118233787 593.2585921688948,478.2778237367236 593.5117067644384,478.2273295087432 594.6788301066623,473.3678423776944 594.5684383555559,473.20429488766945 598.1791806844482,473.43291692539765 598.5067878666811,473.4665444827767 599.9913239022204,468.066585544271 600.0149168622225,468.03123290232156 604.4906615733413,476.626523236984 604.4764621066639,476.68952812348266 610.6422346222167,476.6477544000297 610.7804427644365,476.6980205797952 617.6588828711025,465.9415981089621 617.8219218755618,465.7387712428533 621.8163410755584,465.14015779630404 622.0490666933252,465.09826034577395 619.1694876711186,470.8810636212654 619.1870367555308,471.17075565653045 625.705247315556,471.29459737943375 625.9169285955501,471.3158306398325 630.1363547288707,474.5012989434251 631.2145675644348,474.57256956637843 629.1605236888932,476.6260641847109 629.0701568266737,476.7129397565511 629.1260080622229,481.8788584712381 628.921244471108,482.2133592239477 635.5070299288851,481.2818010327826 636.5116239911073,481.30234184620326 637.948464382214,476.39516039996647 637.9280754044372,475.9566470638017 640.4972322399914,477.275045427559 640.6292508711118,476.96208939913026 639.7323543022281,468.3300079101971 639.7842005599883,468.20420810845803 644.8052047911111,467.26770201061277 645.7931963999941,467.45307618298807 646.6258676888898,464.9525947098807 646.8018682577891,464.83665881639877 650.6448264799907,468.3652455758199 650.7657039910915,468.38464349919354 648.8318822666548,471.1762648402289 648.8140419111074,471.3159454141785 653.2806115822237,480.1771757225722 653.4764914044423,480.2867671306228 657.175925786643,474.3103253448569 657.2839873688714,474.20427961735527 659.3753867644479,476.25239434507216 659.6528224977734,476.44600063219673 665.2619759200094,474.8512241745409 665.3320994399907,474.7575743513951 664.4602521866688,473.5910695555574 664.0494142844178,473.05153534588294 667.0677111733308,469.48560769967276 667.0772503022232,469.3982613809128 663.2134661955712,464.12990363172844 663.1770573066675,464.03933452993056 667.0352344444615,462.33169396786957 667.1173728977807,462.2734936499835 666.043383493328,459.9214365672158 666.0728746933233,459.82328368238063 672.8092473155481,457.9561636995129 673.0117535555688,457.7623762726505 673.212730622217,460.1217597372522 672.9505138044548,460.5080541805871 675.0892447555449,461.34847898846033 675.282648773347,461.38004775708373 677.204382746662,459.96528961126 677.4524729155597,459.87861667565426 676.7870640622056,456.5860900285113 676.8037393333285,456.41330719373195 693.0402105155587,465.5096574654233 693.233468897764,465.54845535787877 696.8918340533343,455.25880516468146 696.8175599199964,455.0764889425261 703.5872102666832,457.490751255398 703.8212466044421,457.47858205525677 713.8083504622115,451.34920415658394 714.0913203466404,451.3154479985167 717.0518727377709,445.70991060743813 717.0083277066657,445.4110103397759 712.2135683111043,441.938225926169 712.0013773066527,441.6776604725817 721.8662929333292,438.71109895104723 721.989209342231,438.53286119701056 724.064079102223,428.60631673437433 724.050098088897,428.2742403150112 721.1014149955369,424.9099416702445 721.135348079995,424.65584175935487 724.6963558666827,420.4793337361841 724.7069144444318,420.379960245489 722.4068192977644,412.74638017228403 722.3976442577911,412.678015215766 731.9872358666686,413.5511268609623 732.1439397244609,413.62098437376676 734.837614960015,407.20095379827376 734.8644119022134,407.15338069448603 732.8185964355431,405.1232110942726 732.8022124355554,405.1036754973536 738.7716682222159,404.1920447434602 739.2307843111117,403.8939486010129 740.5105567555653,398.2785390752613 740.3483187466696,397.9335185884627 743.9216327377723,396.08436884001253 743.9930669777747,395.9538030699839 753.6982932177849,404.4153284770798 753.9021829955524,404.50611264381564 762.3050632799929,400.58938387888315 762.3952845066739,400.47595286713454 761.2445451644377,390.3275662452577 761.0828896977833,389.90410061332636 764.0584425511257,385.4949867003959 764.1471346044342,385.3199067662133 762.281033413317,385.0750468107942 762.2783391555491,385.0697587431712 763.7854487022338,382.6934096026305 764.0191209511028,382.4068059206836 760.2598303555347,378.54561261095637 760.2370383911253,378.5066371195933 759.6820941066613,374.6956407614996 759.5715567199874,374.3251735416777 761.9581593866529,362.7174058836315 762.0051996711187,362.2369100449939 759.9333882577845,355.6546748867911 759.8465894666803,355.5799113523751 760.4991823911038,341.78552973025194 760.4217770933243,338.2164347509022 756.9066445066488,335.25901868424967 755.8414660533377,332.1104227622052 759.015447351128,328.50834975626617 759.0246223911014,328.4890165314789 753.8867456266668,321.83970190543164 753.8568175199977,321.7937798016426 756.4241539111023,316.10926480287867 756.4486206844227,315.9992241328507 767.1207941955432,310.2222337296332 767.7008606133237,310.00155252105446 774.7400823733257,310.06740011246416 775.3843012533395,309.86076273304184 784.2909349244507,316.03617296030984 785.0727794044429,316.9662160953228 796.4836892710952,316.1749898238702 797.0287303377769,316.0739274992445 804.7210547466599,319.7399053355109 805.5303515288757,318.7876958920167 811.479272702221,324.71890512240475 811.9578311377915,324.91075446372975 816.3546413777582,322.2182412647596 817.0558037599909,322.1403238335258 837.0952562044328,324.36904013757135 837.4702677599922,324.6164777798183 845.0232917600148,321.60917024757487 848.4204595466796,319.94949734565284 849.1001406844367,316.11053095991497 846.9438606488762,315.1507753938856 849.1143401511141,303.83604249230825 848.9480971644294,303.60416732442513 854.2849849155533,291.01256069304486 854.300713555545,290.15001415083657 850.6004781777807,278.97492967315316 850.5460104800073,278.6718782039313 838.3401489333261,276.7081647132652 836.63548475557,276.40475491587836 832.783642764443,270.66176275414887 831.5034334133449,269.58714441616735 814.8122152088978,259.50855833416404 814.5754117955581,257.6564953093837 806.7782297866721,255.41349288370816 806.2234311377757,255.40830730874563 793.4458043999981,261.80439197658393 793.1621791555441,262.11744737756794 789.1338996889023,273.4234381022468 788.9597195644525,274.16967554164125 774.0105210577673,292.5769706732315 773.7253666399989,292.86370706663706 760.233761591087,291.6275053330535 759.6185241866693,291.62508702517493 756.4300521510955,287.82740358969727 756.0202336977887,287.5554968249123 758.6265275999973,283.4546170016181 758.6636646666808,283.37779522652977 757.9868962399847,271.006562313494 757.9671626222331,270.72593043040956 753.4210031199979,263.81277724513325 753.3650790666649,263.6091883927654 758.9780190133384,257.454035480441 759.0732646666653,257.36357936313266 757.6367155466647,256.55960793191457 757.6200402755709,256.42582278617897 759.168219048886,252.43147435188416 759.1254021955607,252.24305436957343 756.2351189600082,249.45724270857295 756.1814522577694,249.2985463291186 757.4976335911266,243.97520453949232 757.5908403466525,243.80692542996962 760.5829228355502,241.61648277819745 760.5935542311123,241.56772585775593 757.9276225688878,239.0460222648178 757.7434664089011,238.68649380858528 756.1834183377865,227.0089855343756 756.1534174133336,226.6566403383256 744.5799054488958,207.0173572862475 744.5919203822338,206.91274500915438 736.7175515288906,204.3767289275636 736.4726653422182,204.22966470161168 733.397861857789,200.03649262032536 733.205477288902,199.88895511293208 726.7643079377664,200.89587037114666 726.4613131644506,200.83600275527692 726.2654333422321,197.96077918225615 726.1934165599883,197.90136973266613 713.8076951022155,197.03444573716092 713.6568166666617,197.06593902906002 712.3598592266859,204.88689449473873 712.3297854844201,205.11135197053204 708.4811474755476,206.40513613250346 707.9497961511148,206.80132752008626 700.6384543555683,216.73491613276542 700.5726270844531,217.72998458751658 696.7935300533205,219.39534828533192 696.4044646666513,219.70196239199845 695.6300475999957,224.75767215371138 695.4739991021994,225.40150712698937 690.2614841155661,226.5495297085797 689.5051986755349,226.99238293295616 692.5089320088806,235.27506133307884 692.5880849333258,235.60994322153397 697.6304975911113,241.57429594179098 697.6933393333526,241.67134866893298 698.3003483288991,254.00265236557584 698.2860032266832,254.08377986634855 662.992464240007,235.07724372047937 662.2982195466535,234.58246594860225 654.3706937155581,235.43241573297541 653.6140441866661,235.6113265503152 649.0764771822211,240.3131708997605 648.5872145333338,240.53402264386364 648.719305982209,237.48662657003274 648.0204737688833,234.65428509194294 644.6760260533262,230.2046603345441 644.2385368444444,229.5397846862104 637.9488284711039,227.64737473311084 637.0292127555655,227.01613387506927 624.7100467466586,234.8861115602847 624.3490890222089,234.8827684706264 622.6550562400149,229.88772999842308 621.8902511200064,228.65584590467165 609.5072239200014,220.67979488209653 609.0167961866606,219.5138890346932 597.3245184266485,219.1169840593136 597.0269849866814,219.07616333509918 590.4824872088863,234.2623335452297 590.1845896800002,234.6904828260665 584.1506901600002,235.18468321335217 583.7029336444463,235.9581951196958 580.4045067644398,253.3279295644386 580.6355575733247,253.69415931785602 568.8242227466613,271.54535760475096 568.5038245244428,271.57795932770364 571.4133316533186,277.40067907647585 571.6206438666628,277.7798764477991 579.5182415911182,276.66542942004867 579.7042181955545,276.24878733116907 583.5327584977564,281.6287168828783 583.4491636888775,282.56960508329917 591.6884224266756,288.45551333262824 591.834057982203,288.6596992454504 593.5484797422029,296.44582568083547 593.5576547822344,296.6500964487566 591.4816199377598,299.42794078231213 590.9663613422086,299.7337539780781 585.7052040799823,297.6085696832522 585.6647173955349,297.67443242671266 583.1160223555413,312.7219580081944 583.0436414844368,313.028961967422 585.1473470844281,318.1587887544954 585.1666437955352,318.1953907986533 577.7138170577597,317.10422484097194 577.337567599992,317.10733262348344 581.1677098933211,323.97440351855016 581.1973467288841,324.03102697309055 579.0314547466475,329.20353568763653 578.9937351377808,329.3031924623426 574.9777618755539,327.2341833432072 574.7387739288748,326.9843410016981 565.6426683999958,337.32771968945576 565.1124093422037,338.1123071906402 562.4231031733285,338.46116248984595 562.3261098933359,338.5742638385343 568.2989881155441,342.4421180557763 568.6826649866777,342.7422799156991 568.1966063200158,346.40000154483255 568.2183788355393,346.4235848411697 579.0460183022147,354.60302997926897 579.0570866044505,354.625459456998 575.9567240800021,361.17630785043707 575.8555801866529,361.27165019396466 572.1438396000082,360.8903948176228 572.1120910488895,360.8861394633493 564.6307925600046,366.10203154882015 564.5806211110972,366.21380992719037 564.7625927377736,372.001589233965 564.7633937333372,372.10105191643356 566.3024702844338,371.02339559564257 566.3690257333288,371.0378840757546 563.1863063022098,380.47285228165106 563.0044803111301,380.7379673757748 562.8948895555583,387.18954255348194 562.8324847199907,387.21207343054243 565.8400773955578,393.5014985049563 565.8226739466551,393.8612595764059 561.6194861777836,400.4591737914377 561.5166674755525,400.59386595043884 561.3878528266574,406.741423439227 561.474214711117,407.1493588117953 559.6184536444558,409.4949847804744" stroke="#009edd" stroke-width="6.027031340532475px" fill="none" stroke-linejoin="round" vector-effect="non-scaling-stroke"></polygon>
  <polygon points="267.13208663999796,250.56602984759206 268.5035366666631,252.89266836980073 268.52793062222884,253.14573567215825 268.53637748445146,270.730308114689 268.5041192089044,271.1483753236896 274.5729712622193,283.5813093448303 274.9290501955617,284.4455735230365 279.26483913776576,302.27863733313984 279.6389040622231,302.8978284245311 281.672194871098,304.48745209648746 282.49008415110404,304.6603771121661 287.1269017866649,298.2549883004465 287.212098586671,298.16460069888103 294.85468845332036,300.5141684884218 295.0230431555607,300.5984498156538 295.87166153777036,302.39216007057234 295.9334110133128,302.4542175307795 292.69331117333024,303.65056546423125 292.5650790666474,304.4339166095958 305.7113093955628,315.2638105789008 306.15935718222283,315.3287308834331 304.5752792444324,321.44550713386684 304.5642109422257,321.4798050708848 311.7634133600001,321.855469636306 312.20942224888825,321.89356537577237 311.6110057511029,326.6949091115455 311.5818786399974,327.3537528056256 307.84683636442753,329.7225314208115 307.76586299556186,329.81321131526033 299.42473218666385,328.9308020014503 299.25026079110796,329.01722535691056 300.9811393688793,334.35034839229024 300.87730121776224,334.69796232711064 296.44531999110006,335.833531578646 296.382769519994,335.797746956792 297.2628451822162,341.5495609536663 297.3933346399932,341.8309745978256 291.3289972888666,349.1052259305213 291.5808739822311,349.4327287851263 307.472188897758,350.6302196462127 308.1925023555592,350.62895430006733 310.833020613332,354.3712581627258 311.13375803555357,354.4926077989146 311.31893364445534,351.66250213298895 311.18443920888933,350.1953989519459 321.47817872890266,353.2654110684887 322.49864706665505,353.57149396331056 325.57177574220225,351.11703061027924 326.48782338665444,352.05636088836013 326.19058121776436,349.72008300502034 325.39650335111185,348.9078259883752 327.9762915822281,345.2890440323606 328.61941819557217,343.70131404052495 328.18331252443716,339.4610024016945 327.9438148533296,339.3968015009666 331.42435899555096,334.8566373897263 331.750582640008,334.3332035224955 337.90892774222414,314.62864645107015 338.12526936000324,314.4380266870937 341.9707033866795,313.4342689766852 342.13359675554204,313.24502632205963 348.12016471999925,319.5999466802821 348.36206537776854,319.7403657252214 351.4453885422332,318.8146291596711 352.3840096977725,318.2590414639633 362.82644312000014,322.3413897076605 363.24747551111034,322.59378558991716 369.00670637333644,336.16387659585575 369.15307010667277,336.55911431590334 368.7709952266665,349.73963868089027 368.7774031911173,349.97085525160196 370.3790302133199,353.16234781603976 370.7190892355644,353.49868296998443 401.0966272266593,354.78396083365783 401.3581886844255,354.80961086747243 405.6945601688709,359.6480471248576 406.0071668888919,359.85311352463737 398.3492124711116,377.60145502365026 398.35409126221896,377.68941000292375 394.6223257866583,380.1055289105641 394.0092000977671,381.3562576165493 393.7846300711168,385.0256148539263 393.6808647377835,385.160690442797 406.12491323555116,396.3081458814047 406.38094054221403,396.51111901517265 426.0159630488848,422.687675644054 426.0927129866683,422.87584521662916 421.9649644355592,428.48984325933975 421.89294765334455,428.76081025560393 417.43409666667105,431.3001838542475 417.2087984622118,431.5326589821268 414.4136880622315,429.1039106418973 414.1053047733218,429.0485460804118 411.37325456887595,432.09339773255465 410.70216592887994,432.44382777767146 411.8288025866565,440.1841792890116 411.80520962665435,440.3404771035928 408.74300361777534,444.8850888302911 408.4282851821987,445.54731274172786 413.11228873779294,454.5682275572542 413.19071348445834,454.6883186620905 416.6866221777815,457.07814495758043 416.78958651555115,457.16551121770294 415.9355796177766,458.8698712260009 415.99572710222094,458.95218335703953 418.83132418664866,459.7507307919511 418.93210399110797,459.8103114164185 419.26742985778367,462.34615794243996 419.50081083554653,462.94824614385266 417.16132127110143,462.00774583884754 417.0601045599975,461.95608844504 418.91302573335236,467.17243206443504 419.0722782133158,467.30156297506596 418.89503974220827,476.3679614298669 418.8396982311166,476.6343271248986 421.18581421333477,478.2866602217616 421.4247293422301,478.50435862373683 419.8427631199953,475.9970441492694 419.69887519110455,475.79448459545506 422.5180882755445,474.2592535648507 422.66095675554936,474.03866882745183 437.4779181777627,476.0439827702719 437.5489155111205,475.99796226449666 438.06431974221016,482.90048497146176 438.14631255999086,483.22820920136996 436.4900722044473,483.1328526716459 436.441211475532,483.19814494663274 436.14564411555295,487.217082426934 436.22683593777003,487.36578597958555 442.9682329866697,490.7600397236308 443.101271066647,491.0250723583665 444.60539508442855,488.12880316717906 444.62425488889096,487.65125893580966 449.80574950221455,488.18961459934485 450.15228930666456,488.2092348769727 454.65548631997774,496.1653008272185 455.2916952444426,496.8228806787299 446.9137186399963,497.1088772323344 446.8839361688948,497.17105518352014 462.72420582222514,504.63269247039693 463.3941293777676,504.9305767657131 461.91913247112063,498.7520948204253 461.9131614133436,498.66479584197054 467.9008944622252,497.68338959784137 467.9417452355625,497.6692792435422 467.0281733955559,494.05162983851164 466.91923800000916,493.68037513149443 469.6484483111195,488.6543034703134 469.8556877066509,488.5073245339661 473.47895469333855,491.0949443817151 473.73629271999346,491.37225166818075 470.46939593778336,491.97390147076635 470.6938203288952,492.1708932843537 481.83093535109185,496.1323757357675 481.9488273333187,496.2051091862447 489.5614162755443,491.60469763840206 489.98856535999914,491.22849262797513 492.24657183109196,495.99597157158837 492.3226664089085,496.38430379913893 490.97575597331854,497.1934254620935 490.9140793155599,497.7260647932196 494.2157829955464,499.5178189703654 494.4788736266561,499.8304148465029 498.9195201688923,510.83183404699207 498.9340837244305,510.906726814537 505.74589556444664,513.5919022469532 506.0529681333352,513.7681720672042 508.62547458665324,519.9373680168135 508.8135629066743,520.5937410977565 510.46987608000165,517.721304581202 510.46550701332274,517.422688098224 512.9219419288926,518.0555833628821 513.0507565777876,518.1352824582207 514.3286357599787,521.1142241437699 514.4509696266683,521.197244108487 513.2132858577894,523.864479236079 512.9069414666516,524.4063724795485 515.7840446844417,528.1805551316863 516.3373869777785,528.1881222652371 515.4441312977648,535.3194450552617 515.4772633866593,535.3905208132999 519.513916897769,532.0336940918712 519.991310248886,531.3950009697217 523.0680069955484,532.9023550620257 523.1419170399964,533.1480355764722 532.171904026654,528.6569385171531 532.9100578400027,528.6992452861375 537.8964008088875,537.0983743746835 538.3993531999946,537.4086893989513 549.9122079555597,538.3587673146319 550.3338228888821,538.3204802313919 550.6277154400083,534.6687536071765 550.7359226577752,534.4273216999206 556.5675343911058,532.358942022234 556.8127846666681,532.1912165980973 560.7107931288843,526.4365318782582 560.8465254666586,526.2581249046559 556.7178302844474,524.6575953697682 556.4960273333487,524.072476989393 560.2496381422167,520.7141440989578 560.290124826664,520.6711430579087 555.6162429422326,511.6578278614395 555.5051230133173,511.544400689432 561.6391469777806,510.96384251537506 562.2958176977769,511.01912311609317 566.2654060355632,506.24276218499995 566.5280597599991,506.04329829218455 564.704556968885,504.73248446587945 564.4843560088844,504.6946323513764 566.9228777511231,502.46245770993823 566.7840142488782,502.01371752616956 564.6120783911098,501.6699332213682 564.326050159994,501.2282985200943 567.2283483288844,501.25777918278595 567.7838023377768,502.3073720558675 573.3001859111024,498.6698433557392 573.3504301777936,498.63600206122624 573.3748241333302,490.30385929320596 573.4935899288754,490.22652852629085 571.4868776088766,485.03100113943924 571.3172850044572,484.6713884850103 572.4653300888964,485.07793190581265 573.0000310311221,485.3024875999033 573.4906772177852,482.12018117795355 573.9400357244373,481.9512668717141 575.5478522577683,484.63753841490666 575.6235099288821,484.6694378035679 575.5640178044629,481.59312548358116 575.5898681155592,481.27204701249843 579.6557943733129,475.83212744820753 580.2009082577785,475.86322868787806 576.4284376444481,467.5080570070347 576.4065923111117,466.90693794156664 574.1335853777779,467.59276639251743 573.9738959911116,467.58828988360597 568.0807532355608,458.590445286776 568.0323294133192,458.50928061997524 573.8145706933352,443.4398117500457 573.9280207911285,443.1423917525751 567.7412767555285,434.1021086042381 567.7176109777716,434.0635178025766 571.7202585866686,428.3520045024268 571.7385358488897,428.27171326420626 567.309394515563,426.07290446843376 567.2820150310941,426.06256611071126 568.9675281333399,422.9076662577352 569.0150053244503,422.644022047454 567.8540714933257,419.2447918083851 567.7950890933349,419.0514397178265 572.2501535555417,417.1904909343791 572.2470223911292,417.09949833623955 569.2402307110966,414.54911557092396 569.2816640266461,414.1666281820869 563.49614594665,414.3205885866553 563.1633687022037,414.297494553997 563.0683415022282,411.4318045362086 562.954891404435,411.173389736992 560.0416705689055,409.9420819416189 559.6184536444558,409.4949847804744 561.4218587288993,407.38435116799496 561.474214711117,407.1493588117953 561.4194557422085,400.8453210602963 561.5166674755525,400.59386595043884 565.639318782232,394.09688453644753 565.8226739466551,393.8612595764059 562.992174106657,387.46393580822746 562.8324847199907,387.21207343054243 566.2478569511219,371.3582394738694 566.3690257333288,371.0378840757546 564.8929365600121,372.03332532366744 564.7633937333372,372.10105191643356 564.5659119199914,366.4074665690348 564.5806211110972,366.21380992719037 572.0924302488926,360.96791121207184 572.1120910488895,360.8861394633493 575.8140740533196,361.28844146979804 575.8555801866529,361.27165019396466 579.0321101066726,354.65628559579613 579.0570866044505,354.625459456998 568.2183788355393,346.4235848411697 568.1966063200158,346.40000154483255 568.7743425688892,342.93924225145724 568.6826649866777,342.7422799156991 562.2451365244411,338.9444015875413 562.3261098933359,338.5742638385343 574.6138186222303,327.05845372868475 574.6421447377721,327.03900490180945 578.7789226933452,329.22447973641806 578.9937351377808,329.3031924623426 581.188390142204,324.18328852824175 581.1973467288841,324.03102697309055 577.337567599992,317.1196486487968 577.337567599992,317.10733262348344 585.154701679981,318.21564852307324 585.1666437955352,318.1953907986533 583.0825989955407,313.153397644586 583.0436414844368,313.028961967422 585.6785527733224,297.6907829554473 585.6647173955349,297.67443242671266 590.278524613335,299.8128552261112 590.4111257866676,299.79846272237023 593.5095950488827,296.77606687435014 593.5576547822344,296.6500964487566 592.0799636177904,289.0934045999818 591.834057982203,288.6596992454504 583.9948601155553,282.86975521133695 583.4491636888775,282.56960508329917 580.0857833511033,276.85215130061965 579.7042181955545,276.24878733116907 572.9752729866665,277.5019291826827 571.6206438666628,277.7798764477991 568.5387770577578,271.6895883992763 568.5038245244428,271.57795932770364 572.3745991377579,268.61676682593657 572.5259872977691,268.48623743613257 576.0763636888656,258.2458945174801 576.110588044459,258.0718985506462 580.1523387999983,254.20074614731834 580.6355575733247,253.69415931785602 583.7319879377679,236.1675371160452 583.7029336444463,235.9581951196958 589.9844136088865,234.68541053357308 590.1845896800002,234.6904828260665 596.4169904622319,219.63127640652942 596.7091353866632,219.25501322795003 607.1911816799908,218.82777893881553 607.616874408886,218.85649195689598 620.9559262133331,228.45258520116454 621.8902511200064,228.65584590467165 623.5552296088787,234.1022089891119 624.3490890222089,234.8827684706264 636.9638952088786,227.02282103164885 637.0292127555655,227.01613387506927 643.9803978222259,229.30159418594098 644.2385368444444,229.5397846862104 647.3633661422133,233.89401176958177 648.0204737688833,234.65428509194294 648.7237478666717,239.54248803811038 648.5872145333338,240.53402264386364 653.2446395999938,235.89087351173634 653.6140441866661,235.6113265503152 661.1696168088889,234.3419921642269 661.6819626933208,234.3945598713833 698.1658538933331,254.06107800699078 698.2860032266832,254.08377986634855 697.7563267111033,241.96596371400642 697.6933393333526,241.67134866893298 692.8969779466639,236.05203023416811 692.5880849333258,235.60994322153397 689.7261278133152,227.44180432245025 689.5051986755349,226.99238293295616 694.8447078666719,225.37602598235367 695.4739991021994,225.40150712698937 696.1548453244392,220.36961173591385 696.4044646666513,219.70196239199845 699.9945995644445,218.00455059027422 700.5726270844531,217.72998458751658 707.586216986652,207.1986693728902 707.9497961511148,206.80132752008626 711.8468579822289,205.35011095026107 712.3297854844201,205.11135197053204 712.8620106222294,198.21941140012473 712.9774267999816,197.76536222146365 715.9028082044457,196.7289713849966 715.9797765955515,196.22380436555954 712.687684862212,194.99564845395048 712.3211201688752,195.01664477971622 689.3425965777784,161.93669043272507 688.4819632622308,160.878022078228 688.3195067999837,151.67581422294438 688.3313760977832,151.3703130241263 681.1972727733151,127.18830025563489 681.0879004711238,127.0935819499498 683.1212640977825,121.1211401696562 683.1259244355675,121.10519798391738 681.7444983733363,114.48127272586112 681.6343978933361,113.85990930777166 682.9189034933294,109.80781509527128 683.1502455733495,109.22857290303341 696.7020709244313,97.28286701690354 696.9615934844547,97.02513564554806 699.5076670844352,89.2861463950901 699.382566142223,88.65732477461984 694.9516043644468,82.22038045520435 694.642929804431,81.84812546856824 686.8113778044423,78.72177541341057 686.1619160444312,77.8259885947698 688.5036629599996,68.19556792011258 688.5825974311225,67.74770422944107 686.4864648800063,59.268233295886375 686.3009251822147,58.58874910229474 667.7243090755434,58.36645470478811 667.6416608977667,58.44070715012617 662.2701847022178,53.316122189142106 662.2379264266707,53.291947368437604 660.9759943377645,51.11605326318363 660.9738098044542,51.04930949003733 663.8800401333498,48.434206958314235 663.8945308711042,48.353925332754216 660.7389724711026,46.08551491954836 660.5152762577706,45.80046743294929 661.5247491111,44.48777183438483 661.5176857866533,44.449132031142426 659.4425975733099,41.320488258330215 659.4345147999771,41.215090176767035 662.9942846844566,38.07943153067731 662.8941602399933,37.952043696401006 658.9857388355664,36.46698701497348 658.4086579466599,36.56637775529066 646.2321419644355,40.08520048877813 645.8337559022253,40.145478841360955 641.7854515466676,44.15944830916828 641.7301828533306,44.17703298861284 635.6188052177673,43.55635973186122 635.4996753333322,43.596041386808565 629.995161057777,48.29087987979415 629.8903034577739,48.42749754753436 632.3787781955394,53.43155969956547 631.9970674044522,53.99891179256497 624.8200015911203,57.789664689996926 624.6036599733121,57.845528120589506 611.6661253955459,50.57758943517524 611.4813866933179,50.534211340774846 614.2262528266652,48.42263900815283 614.5178880266682,48.03372307291261 615.6788218577636,42.93174579440506 615.7624166666716,42.48864611535805 611.8237030666565,12.65731395522721 611.8601119555602,11.746301704937423 592.7999858044274,19.27147059352842 591.8504419822199,19.45561634994351 583.936678711099,41.12484796668991 583.6502863911224,41.99440633663448 588.6501734666596,42.07724272178143 589.2450947111134,42.31603292687919 590.195657982236,44.896958702949405 590.2064350133074,44.966023863416694 580.3344560622132,46.34707704888547 580.2507884355506,46.34753978483036 574.6881655733229,42.70094106540614 574.6566354755556,42.66091167310492 563.4031576444464,44.8187541593868 563.3476704977871,44.90343718072813 560.1650967022357,41.925221660006855 560.1217701244237,41.90717346885481 557.2077482933306,31.533897330787795 557.2146659822098,31.470137827134522 564.941214746657,25.328388775822305 564.9656087022228,25.301771033387695 561.500866017777,20.782234172969538 561.4692631022259,20.7580446980935 548.7734835466614,17.95997805005004 548.6664414133189,17.845621696331136 542.7100200088822,19.390569335307873 542.6710624977783,19.411055681171774 542.0888115466875,15.105278910785046 542.0294650577777,15.0291144814762 537.2455555111006,14.481375614828494 537.210821431108,14.462276419951877 536.2092128977598,10.546913711943262 536.1337736799975,10.452915566442016 531.1461928089044,8.42693769065204 530.7612780355627,8.394986338454828 528.9184785333124,8.79125122001983 528.7555851644498,8.877148743056523 527.8779853066732,20.502029108982015 527.2551020355673,21.068571913528785 515.2810922933346,20.97783287570178 514.8624628888862,20.930032785174035 510.73056372444955,16.956226515998196 510.67056187554374,16.968379985169804 512.3460989422234,15.628240872850938 512.3488660177751,15.555781197261012 510.5054111555579,10.19627200818627 510.4369624444586,10.042771485582989 501.57372816888494,8.19691068359657 501.47345808888315,8.172831302239274 498.77650605331985,9.69096885799786 498.7194897333171,9.68437036615046 497.17779174220743,16.37806544618047 497.15296087999707,16.42286013003445 484.84821279111895,23.62285918909015 484.71837869333797,24.265404756275302 477.2137056977732,22.247355295206717 476.1060744799976,22.38218748332997 463.68489076445223,46.324865718990395 463.6009318666544,46.483121244011045 478.3346625688788,60.05723377082154 478.66467273777346,60.341049048678315 480.7973598133318,56.59812898356881 480.81381663110335,56.51427403835237 491.00524717331393,50.48296730673587 491.0343014666647,50.47764625299146 494.47370356444264,55.462664076236024 494.75011984888226,56.110033534212334 497.2964847199979,66.00906037208165 497.6902104444522,67.04080513987697 502.4247495377855,72.87623117594171 502.53535974221415,73.01521447118262 494.56640059554013,77.74436349824077 494.5510360444383,77.74632897652168 497.85288535999246,92.42794798481168 497.9247565066686,93.16387119575643 496.9012298222293,103.71627356674412 497.1648301777674,104.50924380368792 488.50672358222766,116.54808049259714 487.9836734844499,117.33277421055368 480.551599813312,123.30205591291428 479.0460922577837,125.51869239102939 485.5910269422235,134.8199679507013 485.610469288869,134.84757092051564 485.9685871199832,142.41544715592295 486.1091982488939,142.6302345215588 490.73050569775626,141.5710704409646 491.689661466669,142.16913349150104 484.1569536266685,149.5145233529836 483.94359753779247,149.77673705334723 484.2605005066795,156.0769863457606 484.2582431555562,156.37772746120004 482.35602434667055,159.8909055893671 482.34044134221733,159.95128055988584 485.18688827555854,162.7174897199509 485.3492719199927,163.30908423204505 488.2320549244247,186.23981239388354 488.1281439555529,186.54834626799106 477.63575753776934,185.91281532389235 477.03690413333936,185.94466127978353 457.1765106044255,194.43797381294257 457.0570894488843,194.44835672004388 442.12507593777957,186.27061970768386 441.1138554577552,185.81266197746277 416.33214523553727,178.5466622148158 415.69768393776724,178.43310875420116 414.53245385777666,178.30639942670655 414.0279722933261,178.25827750006988 411.9446556711115,188.11648790154845 411.92528614222067,188.19021516296903 395.41531138667017,176.94385139017663 395.2330484888877,176.91557760464616 390.0181305155344,176.75620549885912 389.9370115111011,176.79394245579147 387.5870361866615,184.47811237510882 387.5416707111068,184.54745992352377 381.4664835110958,186.5814610550658 381.44216237334297,186.58930706435763 370.69076311999345,186.25850447401876 370.61627053333325,186.2491584347515 362.732945093339,181.95142366403138 362.6360974488849,181.96469379196765 358.18969830222306,184.45076564676833 358.0934331999812,184.48065088927228 359.3711667466629,187.19898463853292 359.33213641777513,187.63454680343398 356.7273716888809,196.74350683531497 356.6458885955577,197.3041569218401 349.0199011822184,206.57457030280034 348.80967625778396,206.7647650018696 343.0046430133294,223.6985099666997 342.9709283822227,223.75270231118316 342.29379586666585,236.61261670504587 342.2803973955521,236.76789224570507 338.79526573332953,241.50075706051553 338.6443872977758,241.6301992561273 336.76889261333383,242.65604358084215 335.91685179554736,242.84703288772266 334.62703049777303,238.18610089518893 334.18000215999893,238.15382475857746 326.1766002044384,242.58792351322313 325.9686326311272,242.78225566105516 316.8484972355433,243.53156895771804 316.674171475555,243.67921737101983 311.5107356711011,237.61872970152012 311.2424021599942,237.47567559779395 304.9954378222243,237.73065976249177 304.5229960799985,237.84685467735812 300.82953275554576,231.86952272512258 300.15808002665983,231.93108510002617 281.28626064889943,244.52614205270197 280.9903292000014,244.90384219002567 276.93918495110813,244.60520919126407 276.1304707111045,244.72427071279503 267.13208663999796,250.56602984759206" stroke="#009edd" stroke-width="5.615351450657904px" fill="none" stroke-linejoin="round" vector-effect="non-scaling-stroke"></polygon>
  <polygon points="541.3679883644578,541.1777225580224 555.698963937764,547.9318644926459 556.0714268711232,548.2368451901345 552.3686428711004,551.6255565829122 552.3379137688968,551.7650292261167 555.5913392622384,550.393895518129 555.6818517599964,550.5046051981114 554.7205842755571,553.8691085720855 554.7165792977681,554.2092374527781 557.7626925777655,570.6184854813107 557.8283742133423,570.8019013727096 562.0642571644636,573.5629169750389 562.5830838311009,573.9881519363332 570.4155824622209,572.8670915591572 571.0977394044527,572.5267364177923 573.0630184088728,576.5876028326381 573.10059238223,576.8857779296156 576.2945985688781,574.274656687259 576.4635358133306,574.2242521230726 583.8977211999951,576.5489991750289 584.0071663199993,576.5995161219978 587.7695880799798,578.5247379115679 587.8424058577872,578.5591019305064 589.2331525955593,583.9782634108485 589.4957335022115,584.4456795791409 595.6056547822151,586.2218470629666 595.7192505155468,586.254602763285 596.2046538222127,588.7651650509285 596.1820803110965,588.9685611867096 594.0713113866583,590.8970071290312 594.063447066677,591.0496628068429 599.4797061955684,592.5315342294414 599.6233756711077,592.9000489607349 602.422199777771,590.7099947471359 602.4806724533333,590.7042686995044 648.9723477599979,616.8613980071748 649.049170515536,616.9942923658016 660.644964720013,614.7888447536168 662.6434486311115,613.0749734527997 663.6973403288936,606.9632269521605 663.9003562933427,606.781193076087 660.8363298400142,603.0578361614096 660.1361869066674,602.4118526864402 666.0691609866695,602.8641106264911 666.327008737782,602.9308612881357 665.4421999199909,598.2804443917191 665.5723981066618,597.952157818341 673.0014862488675,594.771442053672 673.1640883466822,594.6702130481206 671.3453915288916,593.6683334033658 671.2223294844513,593.2844788356522 673.3100151733157,590.6237604057312 673.4769863377802,590.0476015350212 676.0350020533148,589.7890094509128 676.90874256887,590.2978322898923 677.9141376266849,586.0564648324141 678.0291897155763,585.7713969051035 680.6241968621977,585.7001583212475 680.9661491466464,585.6498789426912 680.0015320444433,581.1471079609107 680.2601079733355,581.0129800389766 684.5267200266604,586.1807306138578 684.5463808266865,586.1930999110261 694.3987717955675,583.1297799205129 694.6009867644531,583.0334542115377 694.6180261244368,585.689048758715 694.6594594400154,585.7799867601495 704.4253428888984,587.9761961087422 704.6317812888952,587.9103431940964 707.2375654666754,590.2918771549664 707.2537310133117,590.3006953353249 705.6764979466749,592.8642053448345 705.1659725066635,593.7416227484134 715.3256544977845,596.0996543977305 715.9515232977934,595.8722379947064 713.8497109599772,597.5035229956045 714.2940450399834,598.0193725668285 719.0547257155482,593.1357230063511 719.2735431377729,592.7564453212906 723.2164073510863,596.2351190008847 723.3415082933276,596.7303692045168 726.5554665511078,592.8251552442305 726.8578059644275,592.9063473572385 732.7931102133367,595.9254851234798 733.2075161866738,595.9395698391088 737.298637395557,606.221692665458 737.6037438844575,606.5306951427408 747.782868222224,608.6798106099666 748.0927078666642,608.8140988697194 754.4696519377827,616.2619385160285 754.71024187556,616.3630126367132 756.8404531466728,615.0674639019487 756.955213964458,614.830282860821 756.9616219288797,606.5321834794083 757.2009011466649,606.0152702415141 762.9918805599806,600.761250848496 763.0530474933399,600.5525175733708 766.298317395565,604.3186381084158 766.4872067111206,604.3811507708376 767.6392567733488,613.3256700151903 767.7071957600198,613.4640677564673 765.8609738222218,613.0248340008327 765.6872306044457,613.0900839634485 766.1347686666774,616.4865219795681 766.2428302488767,616.741781358556 771.9506517599872,619.796329932338 771.9664532177918,620.0394410524384 770.602212151112,621.8072289227491 770.5565554044512,621.988868856926 762.8014620711107,620.2305869754416 762.7917773066507,620.4801057864022 769.5903363110916,624.0583993724792 769.7983038844319,623.9800008377276 768.4768796711065,627.7527299259889 768.4229945155454,627.8290630294139 770.3051884355442,627.666325758393 770.7632850755541,627.6667835291662 771.0263757066638,631.6598851235246 770.8633367022045,632.3340130724898 772.3796941066754,632.7901403730282 772.4320500888931,633.4712344901707 783.7494619288842,630.5968949550659 783.7541222666692,630.4751343858441 789.2397039200074,632.3747511413601 789.2898753688856,632.3768109305454 791.8717024977738,628.2206833439775 791.9850797777541,628.18245986128 794.4303735733334,631.5448785827973 794.6634632800193,631.9751505556849 797.8819362399878,630.920062655299 798.2155872977816,630.8770347726456 795.1048118311224,622.4702632360638 794.8489301599981,622.234030295898 799.6023290577647,619.6527977127041 800.0580227111128,619.2286085593876 804.7434098044538,625.5046888874856 805.0128355822304,625.7648269109557 807.9513241866731,625.3476670024172 808.2647319022286,625.0602883045865 808.7095757066633,619.5258618039004 808.6109804355434,619.3564608482482 811.8767849511129,618.5119662755094 812.0366927911015,618.1755611995975 810.3935596355656,615.2317271889549 810.3149164355488,614.9956915634755 814.7233775199926,614.4865287620412 815.0372221422218,614.515489814359 817.1888418399973,609.0705392916932 817.2360277600015,608.9679632688419 808.9573746044549,606.573284452759 808.913392666676,606.5090570126847 804.5773852710914,585.579785516871 804.5496416977909,585.5032782097476 824.7681530577607,580.6201012900053 825.1411985333322,580.5450760146266 826.7684574133378,575.0315213882784 826.8626836177788,574.8181065481401 825.9653501422214,569.9343077824376 826.0927084355568,569.8702659235639 835.813590497775,572.9957408911212 836.2691385155555,573.0920844912832 835.751986657771,562.5984436842625 835.9667991022067,562.4154582711997 833.9378045422269,560.1561045363267 833.550923688868,559.8030648199272 834.596878248885,556.802993543977 834.8016418399999,556.5984449770838 849.57673303999,563.2092690267962 849.8308670844195,563.2793914717984 850.6725677777791,566.2816238141893 850.6600431199837,566.435609328684 847.8756369333493,568.6038483524824 847.7562885955336,568.577497753118 847.2043298400018,572.7636449018098 847.2394280088844,572.9887528230681 858.1700318133295,583.5276800192585 858.2856664444622,583.43868534646 860.7707915644347,590.1261638098147 860.7007408622081,590.2377083012032 872.8313816444494,591.760027105898 873.5712102666508,591.5103757157847 877.175981537766,595.255598069816 877.3358165599999,595.4060657308944 877.477592773335,593.6535610077042 877.431644755539,593.4429680448154 882.7763968266732,593.2931820123702 883.2567028888803,593.1587406787801 884.6039774133311,586.5765467194794 884.8241055555478,586.3265277978278 893.8952345866488,584.7344195737749 894.2678431555465,584.6314537629439 896.4084673688991,579.904665189162 896.4239047377847,579.6687043599884 901.0924709244351,580.2905620145682 902.4151330399978,580.3843726698176 901.9448030133277,583.6710791065195 901.793269217778,584.0099896545069 903.8612212888617,582.4883688739717 903.9420490222179,582.4047558017553 903.9079703022213,584.4322790738731 903.80587977777,584.7360230442498 907.0911994577688,587.0502394988941 907.4602399555512,587.42119668582 909.6069808622193,584.0993269915414 910.3663246488792,584.1189124649316 909.264518853313,588.7619583489502 909.2581108888913,588.8794609466493 911.1903306222299,594.6546393381211 911.3262085955427,594.8073989172769 913.6786597244569,593.9712238814461 913.6852133244462,593.9535887167801 912.0519105688796,589.7530492491421 912.2927189600083,589.6409311415989 916.2920169511123,588.5388630454324 916.8761611644364,588.5269523873355 919.4937418222322,592.6309349699657 919.6070462844579,592.7002176360472 922.8701565422303,587.334842569551 922.9212746222398,587.1727850691457 946.9425487910991,584.3553120049107 947.1033304444351,584.3468364578509 947.362998639997,582.0998533385352 947.3761058400047,581.8620694575 944.0602755110955,575.0362181090384 943.9636463199928,574.8580860965665 943.9302229599922,569.7570754757687 943.7074005599785,569.3636566299317 928.3692094844661,552.7948464900617 927.7030724533321,552.6125154843537 926.6464864977821,546.0845225919109 926.649836115546,545.9841192741076 917.0018446488899,543.1223170311639 916.6804269777564,543.1725213727257 924.653536737787,543.9184744488518 924.6849940177705,543.755713592858 913.9083269955369,533.3723914676882 913.5029504266637,532.9965919570166 919.4211424977763,525.6502067429899 919.4228173066582,525.631402677194 910.2339419288979,523.4683181242506 909.8172057866828,523.2987304677733 902.857136951097,517.5994041195734 902.6175664622057,517.3721157884208 911.7584549244272,500.42325225669606 912.2300228533346,500.0592682945787 909.9588363644503,496.94689300853474 909.8871836710965,496.85121654606314 910.7194908711023,495.3358577363613 910.9680179466737,494.8675551931444 919.3146829066751,483.1365246470157 919.7185303022048,482.6341501945351 924.5837044888827,479.770365879878 925.154523048877,479.31145315600565 915.1030482755519,472.4983378955001 915.0716638133232,472.46884152368125 910.9849116710899,460.13174717670313 910.9383082933269,460.0011067307712 898.388528382238,453.07257722931513 898.2010226044582,452.96901565828716 903.9680449688818,442.5472023325781 904.2500682222086,442.17903827410896 911.7019483288819,435.80168444771675 911.8445983555354,435.3624965770357 903.0715853066428,426.6999795953086 902.5882208977779,426.5057352675137 898.4851575733406,405.1448151578877 898.2326983377931,403.88061812592036 895.7922105155664,401.7164407563466 895.6202877422107,401.27777973420575 899.0944239200104,388.6269016890071 899.2064176622149,387.82235773860134 898.4793321511021,372.1340527890204 898.4880702844308,371.74356033275376 893.6711014666431,367.16150186508435 893.4565802933427,366.8903401654313 894.6965214133448,360.09222249181016 894.9706075288774,358.9668254357018 903.918383244432,341.1626435562864 904.258587902215,340.75570424173907 903.6258014133269,336.57671872335027 903.516938835564,335.82973449771066 898.6390215377684,328.1688665268955 898.3700326666655,327.85849642818334 879.9091968266654,315.4249601270492 879.4135990311112,314.7834669586225 876.9099781955662,308.880404342264 876.6258432266546,308.1621619236173 876.347460862227,290.99597781900206 876.5376608977746,289.5548604980793 869.5547272799955,291.92023494016735 868.5155447733483,292.33928922846803 859.2679054488905,277.34607996408135 858.8264840800035,276.43424356648006 851.6236407733301,278.57661994014757 850.5460104800073,278.6718782039313 854.300713555545,290.15001415083657 854.2849849155533,291.01256069304486 849.0070067466655,303.3740181443934 848.9480971644294,303.60416732442513 847.3017600266681,313.3089130589867 846.9438606488762,315.1507753938856 848.8505941599793,317.9583978771477 848.4204595466796,319.94949734565284 837.6284279733442,324.4370568306256 837.4702677599922,324.6164777798183 818.1987516000005,322.6187604031654 817.0558037599909,322.1403238335258 812.4862697511049,324.8114348240267 811.9578311377915,324.91075446372975 806.809250160011,319.3404006788694 805.5303515288757,318.7876958920167 804.7210547466599,319.7399053355109 803.8535037422331,320.7382511826652 797.2107019644533,316.58292056021287 797.0287303377769,316.0739274992445 785.2342892355588,316.93191528466537 785.0727794044429,316.9662160953228 776.0063835288817,310.0178993082734 775.3843012533395,309.86076273304184 771.289611973341,311.6962965487544 771.263980115538,311.84755694110186 767.7008606133237,310.00155252105446 767.1207941955432,310.2222337296332 755.0150570933253,317.67352156743414 754.5054782844451,318.29000351447735 754.4930992622172,324.2168941952475 754.1364377866627,324.2525714214787 758.4173221244488,327.869544115332 759.0246223911014,328.4890165314789 755.8697921688796,332.0935073217913 755.8414660533377,332.1104227622052 760.3845672088861,338.00668366981677 760.4217770933243,338.2164347509022 759.8605704800062,355.362981494756 759.8465894666803,355.5799113523751 761.9912186577636,361.773316055587 762.0051996711187,362.2369100449939 759.693526497787,374.13625957517775 759.5715567199874,374.3251735416777 760.3252935377601,378.43661913066876 760.2370383911253,378.5066371195933 763.9816197955294,382.30632757442777 764.0191209511028,382.4068059206836 762.3553075466549,384.9646870307404 762.2783391555491,385.0697587431712 764.0039020355395,385.21655990656996 764.1471346044342,385.3199067662133 761.1088856444472,389.8666276529327 761.0828896977833,389.90410061332636 762.388585271117,400.106582144035 762.4635147644509,400.2879349807115 753.9320382844377,404.49565523493925 753.9021829955524,404.50611264381564 744.007921804419,395.95127450439736 743.9930669777747,395.9538030699839 740.5230814133316,397.8375514717261 740.3483187466696,397.9335185884627 739.4043818933202,403.7146764189017 739.2307843111117,403.8939486010129 732.9030650577694,405.051618842808 732.8022124355554,405.1036754973536 734.4602732355485,406.48585897463613 734.8644119022134,407.15338069448603 732.1451776266691,413.3462645870238 732.1439397244609,413.62098437376676 722.446577804432,412.668363685523 722.3976442577911,412.678015215766 724.5232680088735,420.03737878509105 724.7069144444318,420.379960245489 721.135348079995,424.65584175935487 721.1014149955369,424.9099416702445 723.995848844446,428.09275181964745 724.050098088897,428.2742403150112 722.8853777333348,435.9447872546805 722.9583411466516,436.5561282783817 720.9631340355623,439.5814925144293 720.6987326844315,439.7724742084172 712.0246789955487,441.6597458336689 712.0013773066527,441.6776604725817 716.8740517244511,445.261731829705 717.0083277066657,445.4110103397759 714.4088058577687,451.0247308243777 714.0913203466404,451.3154479985167 707.9240186577732,453.18038668025815 707.3826912977744,453.4420447181981 704.8716430488927,457.2207321317471 703.8212466044421,457.47858205525677 696.858629146656,455.08693655124057 696.8175599199964,455.0764889425261 693.4626264444447,465.4508866403264 693.233468897764,465.54845535787877 676.9055385866446,456.6157098875044 676.8037393333285,456.41330719373195 677.4060879911191,459.6753078262043 677.4524729155597,459.87861667565426 675.270342568903,461.21279047091207 675.282648773347,461.38004775708373 673.4415240800078,460.73167894238554 672.9505138044548,460.5080541805871 673.1683117777935,458.16648196778965 673.0117535555688,457.7623762726505 667.2319152622146,459.49851689974435 666.8732877066719,459.3794696963521 666.2838277955376,461.09925726132474 667.1173728977807,462.2734936499835 663.4342496977839,463.8409773350065 663.1770573066675,464.03933452993056 666.9842619999905,469.2058923801885 667.0772503022232,469.3982613809128 664.1560923288995,472.97199921494007 664.0494142844178,473.05153534588294 664.9898558844358,474.32673716502154 665.3320994399907,474.7575743513951 660.0258679733448,476.35981321254053 659.6528224977734,476.44600063219673 657.4192099822172,474.40156582029135 657.2839873688714,474.20427961735527 653.6455014666495,480.100978005117 653.4764914044423,480.2867671306228 649.2454872444283,471.5024534230686 648.8140419111074,471.3159454141785 650.6855316177604,468.41884810449096 650.7657039910915,468.38464349919354 646.8518940710998,464.9509876793961 646.8018682577891,464.83665881639877 645.81722626667,467.32635607456155 645.7931963999941,467.45307618298807 639.6980571288801,468.5614053199604 639.5030511199799,468.6666586746212 640.6292508711118,476.96208939913026 640.4972322399914,477.275045427559 638.2459978222392,476.18904465635546 637.9280754044372,475.9566470638017 636.9990661955741,480.914589641812 636.8667562933184,481.139851175634 631.1713866222195,482.30068480825116 631.0207266399881,482.35978154271265 629.0991383022116,482.26580049191375 628.921244471108,482.2133592239477 629.1344549244455,476.7867322394666 629.0701568266737,476.7129397565511 631.2408547822339,474.67046609798103 631.2145675644348,474.57256956637843 619.5674368266842,470.91951332716394 619.1870367555308,471.17075565653045 622.112709431101,465.2768695251068 622.0490666933252,465.09826034577395 618.0646963466785,465.58920459356864 617.8219218755618,465.7387712428533 610.9735555111034,476.39825901593554 610.7804427644365,476.6980205797952 604.500419155556,476.695610558563 604.4764621066639,476.68952812348266 600.1514501955313,468.2970658371703 600.0149168622225,468.03123290232156 598.5749453066743,473.37243317728985 598.5067878666811,473.4665444827767 594.9178180533123,473.48789165853645 594.5684383555559,473.20429488766945 593.389008808888,477.1722188578203 593.5117067644384,478.2273295087432 578.2427653955598,476.0289486442414 578.1558937866718,476.0613121774584 578.9279078666656,478.8100759305887 578.9303836711111,478.8605696134689 577.6975786933396,478.9384904541437 576.8619946933246,478.7334172490298 575.7427854488848,484.3210679192632 575.6235099288821,484.6694378035679 574.3326691822218,483.0669865707821 573.9400357244373,481.9512668717141 571.7070057510933,484.8030019456562 571.3172850044572,484.6713884850103 573.2120764000061,488.6882657593303 573.3108173066645,488.8959401025129 573.4129078311158,498.52208866656997 573.3504301777936,498.63600206122624 568.4454974844481,501.7535566320946 567.7838023377768,502.3073720558675 564.5368576266698,501.07355345458905 564.3824839377845,501.1831024533965 566.6089603111101,501.6526120323176 566.7840142488782,502.01371752616956 564.7663064444565,504.4537546373392 564.4843560088844,504.6946323513764 566.349656204438,505.69082234329085 566.5280597599991,506.04329829218455 562.3682713866652,510.4402796631982 562.2958176977769,511.01912311609317 556.6295023199997,511.38544168344356 555.5051230133173,511.544400689432 560.1733979288907,520.3646306455555 560.290124826664,520.6711430579087 556.635036471103,522.5673990992725 556.5186736622196,522.9804225159821 560.6097220533189,525.9117431015545 560.7758922222198,526.0254840775958 558.9170728089008,529.8031077530975 558.8036955288914,530.0394010976668 551.0729233333328,534.1605530907616 550.8530864622222,534.2952559265757 550.8749317955586,538.0446748719185 550.5852626755437,538.2596105911141 543.2064188,537.7606145134848 543.0279424266552,537.8040604842752 541.3679883644578,541.1777225580224" stroke="#009edd" stroke-width="5.998176503433048px" fill="none" stroke-linejoin="round" vector-effect="non-scaling-stroke"></polygon>
</svg>