<svg viewBox="0 0 103.93235558400048 73.44889373333717" width="103.93235558400048" height="73.44889373333717" xmlns="http://www.w3.org/2000/svg">
  <title>Liberecký kraj</title>
  <desc>Geojson of Liberecký kraj</desc>
  <!-- Generated from maps/3-geojsons-aggregated/world/europe/czechia/liberecky-kraj/liberecky-kraj.aggregated3.geojson -->
  <metadata>
    <collboard>
      <support-module name="@collboard/map-svg-geojson-import" version="1.1.4"></support-module>
    </collboard>
  </metadata>
  <polygon points="2.527235142496471,44.598313870845416 3.924819469608889,44.78215201358817 3.9807653682741204,44.792202340630865 4.227333645606819,47.14864223235036 4.225214648275693,47.18918171037785 3.7239079389399254,48.03189990390365 3.720172386939345,48.05527147029916 5.153299071383486,49.65609767285187 5.165976646495807,49.67696050872892 5.248835995831001,51.17631447856384 5.247612657162069,51.18751162543031 7.081142456273489,52.7389867912787 7.105900500717514,52.75104088469507 7.9964910500506505,56.22129436970554 7.9990760811631905,56.23067010320938 9.465429517606214,58.04933493631525 9.564541794941585,58.03675413686997 9.604846434941107,59.31691230305278 9.604176511385418,59.31784017599403 11.972625706050719,59.84028753134608 12.026379789606843,59.87864722052455 13.119192589606797,62.808710679010076 13.092919935384822,62.85497114415903 14.022853930052776,63.65592076881421 14.060333240273582,63.68185741524776 14.713741723829123,61.6721083381066 14.736096781608474,61.65961612011288 15.695733147830294,61.51949748650641 15.723083505165238,61.4935733663644 16.36569311227341,63.02928288268431 16.386395206497223,63.0534367553073 17.36743999938463,63.22771920220094 17.418339626051427,63.237300281214814 17.866292749607062,63.00949036350048 17.89193917094072,62.97807860537705 17.538554495386602,62.3055553354845 17.556190961162617,62.27334950939385 19.685404628718796,61.49090537344873 19.70153376649524,61.49825666405505 19.97060273716325,62.915128618079876 20.025631131828238,62.94742220192839 19.473767039386264,63.49742524023296 19.455555313161867,63.55171508896438 20.513029645607283,65.7573129779541 20.527971853606694,65.76631749829521 20.760770289163162,65.16729543908131 20.76843071938475,65.16752429575118 21.97232703938481,65.9484756115313 22.009806349608525,65.97612887583364 23.64286152471887,64.23074428453965 23.64476206871896,64.23008048520406 24.809365915829957,65.1142004299587 24.83888624294178,65.12115773669048 24.79657911405066,64.49432340592594 24.809256689162982,64.48586609289615 26.85721299849666,64.32067689660016 26.872308123827505,64.3016444515144 27.95427107494016,65.04045013975683 27.986208952273415,65.06175715389527 27.69310283316282,63.73424539891985 27.689571170939423,63.71387171858496 29.858084593163046,62.89018423961516 29.94120608649665,62.92774385883222 30.40030033005151,60.49805723097216 30.404647551383647,60.48319158065697 32.455946196717385,60.64767348753067 32.479648383383584,60.60437178031698 32.775827412717454,59.36363795352936 32.786007338051974,59.369113499758356 32.221851604719824,56.28023055619979 32.22235404738441,56.25153047879558 35.90749429982953,56.97605761940777 36.00119621627365,56.99528777689393 37.78989939138392,58.35805949297628 37.77904226071824,58.368382469942844 40.10739070516121,56.33117740272992 40.15192605805042,56.30984740913828 39.25193473360833,54.52327328113879 39.26101511049765,54.51184227496979 43.713421723828475,52.88951766435912 43.742745442938585,52.853149789839335 42.79617986782961,51.105218937646534 42.76917175405234,51.09944819185748 44.360698950497145,50.528458040649824 44.37661691671802,50.51876260740519 43.973788970050926,49.14790549898153 43.98807581805141,49.12584702524164 45.469771960272745,49.32637841952365 45.47687169360853,49.321776368946125 45.33654455405177,50.44368838518986 45.344663736273475,50.45855874045501 46.70255509271793,50.54094160243094 46.73720907316293,50.54290363019373 47.18752877449425,51.33851022521831 47.251149666940734,51.40426821036945 46.413352006496105,51.4328678657299 46.410373759385955,51.43908566084847 47.994400724718986,52.18524938953615 48.061393080273234,52.21503781906777 48.686824973608424,50.5874104895278 48.70754891316156,50.572712595893066 50.6781217700509,50.88244990633666 50.72083667849639,50.84482940529397 51.6139321593857,52.80516354719566 51.61538851493952,52.81265282395016 53.014174335385725,53.52753847878466 53.027055800275235,53.535508388318526 53.26639327227295,55.253924648022625 53.269706481162395,55.26103222382645 54.93917054516187,54.58767399421177 55.01298592649673,54.59190467111021 57.291876536272866,56.515166591761044 57.32912282960879,56.54566466150991 56.95884442960651,56.884535800787674 56.95577151938615,56.898483065108124 57.49824940027302,58.78382869062753 57.5048175638307,58.80217027976742 60.111752262495976,59.37688005999935 60.122696774496404,59.38193175469624 61.129111281162295,60.81168085539957 61.128324849164166,60.82694642318074 66.61921491849625,63.40811994321393 66.62689719405007,63.421409379076614 67.78647661449777,63.20086461785814 67.98632500560761,63.029477487776425 67.80561312649789,62.02776375863741 67.73559883316321,61.96316541114047 68.32889624116342,62.008391205145564 68.35468101627467,62.015066271310026 69.7221333469408,59.83669093858753 69.74799093983002,59.82327814639412 73.10695123849419,61.47233244205691 73.1513846464948,61.523917399179304 74.37752679760725,61.0044956669195 74.40776073893922,61.012614878220305 77.16894533627475,63.34817399409931 77.19300433005247,63.35828140616778 78.02116819849454,61.79810522734606 78.02728489183046,61.77723189983354 78.91704531849518,63.70161313573026 78.91862546427565,63.725924247740295 78.00212634960754,63.74503884004062 78.00115787316155,63.76999072113668 78.82461771316285,64.88796865484892 78.80831381271692,64.95538144974545 81.51017376649526,64.81398640802637 81.54353887227462,64.80968361976102 81.23246132560871,63.96900646610284 81.20687315849628,63.94538317208626 82.47158688649634,64.29211103682447 82.4774924082738,64.2943198606894 83.4408643264962,62.62903407166578 83.44558291849663,62.61877646938065 82.61771760294197,62.37930858777236 82.61331940916408,62.37288584376493 82.17971866960562,60.279958694183556 82.17694431227557,60.272307963471214 84.19879544827255,59.78399027149699 84.23609999582969,59.776487743959116 84.3185151567186,58.71541092074022 84.33125098605215,58.70900673485285 85.30333919227397,59.021554231608576 85.34889399405202,59.03118859162478 85.18166796738497,57.40227949689415 85.20214432649647,57.38182464020483 86.67965344649548,58.04290704517607 86.70506685093842,58.049919289676296 86.44241312649666,58.99834463267744 86.44592294338491,59.02085542480327 87.79905929893994,60.734596523477926 87.79205422871729,60.745750972616776 89.43957829627307,61.24753994947805 89.45556179849646,61.2625867155859 91.36282687938638,59.712446661412656 91.36437061627494,59.6888505784953 92.6826782287184,60.131912841650596 92.75861260738439,60.13387138898961 92.84101320471946,61.187444076308566 92.85460100205074,61.20272003422415 96.45828000649618,59.93196547634998 96.45959072649694,59.90818708824645 94.38662879227468,56.330432401687546 94.38696375405107,56.320392069907214 93.42216460738547,56.034211845612845 93.39002284027211,56.039232279769024 94.18733381627517,56.11382758738164 94.19047954427351,56.097551501782256 93.11281284205016,55.05921928926528 93.07227518516284,55.02163933819811 93.6640943922741,54.28700081679545 93.66426187316229,54.28512041021586 92.00769383760617,53.481920554453794 91.98373678871704,53.45919172133854 94.18035059138475,49.69901673048426 94.23743244738417,49.65312545809702 91.56083298072026,47.02923786542797 91.5420824029423,47.018881708325175 92.89217497538466,45.302148587268135 92.90643997805,45.25822980020003 92.02913867316074,44.391978102027316 91.98080223227426,44.37255366924783 91.3012011940531,41.89362421813112 91.28400891671754,41.849758115917034 91.56991335760668,38.9353854213985 91.57078717093955,38.896336175771836 91.08909028916078,38.43813032900489 91.06763817183074,38.41101415903959 92.14783893271797,35.79755056667036 92.16278114071739,35.749815054393366 91.91096998338453,34.90892649634025 91.83199182160588,34.76208172890747 89.712899825163,33.26447615520137 89.66334004560758,33.200326838358706 89.35672622871917,30.821577924396664 89.37574623227393,30.677466192304383 88.67745287049603,30.91400363651319 88.5735346198313,30.95590906534326 87.64877068738552,29.456588138904593 87.60462855049683,29.36540449914446 85.55599503582908,29.392796613822977 85.38552861805347,29.36245563408429 82.45857434960763,27.28064922258618 82.39980312116369,27.263329430867273 81.06656058249628,27.90241934015485 81.03819805805088,27.93372488025325 79.1230322482732,30.979677209819602 79.09451680649636,31.008350849160163 77.6838325611634,30.884488845013948 77.60968221805216,30.830410602115265 77.05848804916296,28.082898981773 77.05866281182954,28.068128084191812 77.7813355656077,25.878752728272048 77.7816705273841,25.869715972947418 77.1606732367187,23.996774573411496 77.15678476738668,23.962102261569637 76.18117218071984,22.413254643411893 76.13062936116458,22.369644830026484 73.12093225182889,21.377353957193375 73.10161369538382,21.36856343356176 70.6562398002743,17.915649185768963 70.57017646871955,17.809782350319256 69.88541993183007,13.107971073273621 69.89863635849598,13.019629473898204 71.65641382338636,10.725578486238192 71.67498235671647,10.691930155225965 70.4031179229407,9.594157683837512 70.3381717469396,9.504579001973434 70.3706266304971,7.648803472085092 70.35207266071794,7.580855052725929 68.4944110500508,7.558625612975266 68.48614623227313,7.566050857509072 67.70235023582919,5.377287309645727 67.62055402605311,5.368678843993803 65.2838606642732,6.077616115682577 65.2719476758297,6.081584281177311 64.41454018782807,7.439230434763704 64.36365512471802,7.465207757515419 63.51803683493909,7.189894948643451 63.49091949449485,7.179531261774355 62.88859268205106,6.779739086013979 62.870118811828256,6.775401276573939 63.28986232827283,6.015154721936961 63.29822180916363,5.97084475403226 62.90435044916212,2.9877115380191754 62.90799133805249,2.896610312990197 61.00197872293921,3.6491272018492964 60.90702434071846,3.667541777490806 60.115648013606375,5.834464939165446 60.087008781608716,5.921420776159903 60.741545940720066,6.211676012791395 60.742623643827216,6.218582528838124 59.79259922427282,6.353147916248236 59.787982577163895,6.356953920546039 58.05674719227518,6.212323860569268 58.051933937161635,6.212023074111312 57.44503416827338,4.878251200934574 57.44275497182953,4.875369875575235 58.166279693608345,4.018899685668112 58.164553912274826,4.014096707047247 54.85702481005265,2.6127048998021567 54.83659942338691,2.5646739115616586 54.50977867316379,3.772183053394656 54.4474903460532,3.828837333849333 52.994812088273285,3.7310258609808447 52.97512944294122,3.728398549173835 52.164674858053154,2.5294925895866984 52.15614789627416,2.527744515257473 49.4433507122738,3.946715672017126 49.33258759049623,3.9601988908294516 48.0904692189417,6.354466714395494 48.082073329161915,6.370292266897559 49.55544639938435,7.727703519578609 49.58844741627382,7.756085047364286 50.822504859827866,6.770276873170042 50.825410289162946,6.769744767795601 51.96445509627502,9.009603260090627 51.975516116717884,9.023501589614716 51.17862020205049,9.496416492320533 51.177083746940305,9.496613040148622 51.4121031247194,12.093607499170867 51.43846316027321,12.172904522865247 49.77714012382768,14.052185733787883 49.62658936827484,14.273849381599394 50.7950307122721,15.879087186592916 50.890946289163374,15.93889349164656 49.95758257716353,17.711070701433165 49.95602427671821,17.71710819848504 50.545185634938946,20.34596138188481 50.53479453805176,20.376814769295564 47.439631202939026,21.165777523790712 47.427689087384906,21.166815814500843 43.3551946660502,19.576646363978035 43.2917485362732,19.56529101791657 42.91644570960762,20.5336289326513 42.91450875671854,20.54100165879336 41.26351128116349,19.416365281514118 41.24528499138524,19.41353790296107 39.86862849360605,20.380126248003037 39.86619637983077,20.380910848932217 37.98558988738497,19.91844952169322 37.98020865360723,19.920284260580775 35.398869403829856,25.98758450058067 35.31366532205121,26.006683431268723 33.4068298660508,26.07513703826826 33.389397290051974,26.08990187959844 31.834919778941373,24.913543829521043 31.80493341805105,24.908932415008714 30.17901438516256,25.761999908574037 30.176269154940208,25.76432830429676 29.1939282056088,23.625399087572987 29.175680070495407,23.60641854845435 27.886004408274136,23.887718041313747 27.817817841161567,23.926668703745055 22.73384807760577,21.653140688990064 22.64491572560783,21.648122735708423 21.6704026873862,23.474648403332505 21.633731654495758,23.519990520411923 18.893154488273836,23.904806554928474 18.887088767383656,23.910606490194734 18.39995239760884,28.31082884162879 18.405850637607916,28.327937881674554 17.02545858782815,28.888450658373586 16.961808568273963,28.970726022624696 13.587731298940895,27.00908045970118 13.565368959386076,26.972917889183556 12.365899960274517,27.279450782372262 12.355865670495957,27.274368931962638 12.806891704271955,26.51513728574919 12.809534989605716,26.45548303131782 9.861689300718542,26.995931509810728 9.828222250050572,27.0183918789362 10.765976874049926,27.58813250916992 10.800878434939484,27.62637656021525 10.240363590497697,28.771463570074232 10.234618267830053,28.772235428221578 10.99076535405166,29.148416705384264 10.99110031582805,29.150709078472392 10.217142001163854,30.074997316897317 10.215044849162048,30.09405871774925 10.923984170052979,30.74382209728192 10.940222534496394,30.781801905461 8.727202886497077,32.13738359454419 8.712450004718091,32.139916470112624 8.034210658940543,34.75358921260467 7.928690417163131,35.05812616328167 8.969482196718861,35.63068727746704 8.973021140717725,35.631895366459325 7.947499249162326,36.17675041253369 7.904791622495219,36.19417961841373 7.761995960274186,35.237146502770884 7.764362538052779,35.221785368703245 6.968384127385622,36.813920939997296 6.93925701627432,36.84481813732109 5.0040808811636515,37.40165051640488 4.971494925606937,37.42075502305797 4.299357709608564,39.77647384688007 4.296131882050946,39.812205672822714 5.174445354050665,40.85964768036484 5.171248653606568,40.86986624136898 3.202285069608303,42.3988458955615 3.183257784272252,42.420001107083046 2.527235142496471,44.598313870845416" stroke="#009edd" fill="none" stroke-width="5px" vector-effect="non-scaling-stroke" stroke-linejoin="round"></polygon>
  <polygon points="2.527235142496471,44.598313870845416 3.924819469608889,44.78215201358817 3.9807653682741204,44.792202340630865 4.227333645606819,47.14864223235036 4.225214648275693,47.18918171037785 3.7239079389399254,48.03189990390365 3.720172386939345,48.05527147029916 5.153299071383486,49.65609767285187 5.165976646495807,49.67696050872892 5.248835995831001,51.17631447856384 5.247612657162069,51.18751162543031 7.081142456273489,52.7389867912787 7.105900500717514,52.75104088469507 7.9964910500506505,56.22129436970554 7.9990760811631905,56.23067010320938 9.465429517606214,58.04933493631525 9.564541794941585,58.03675413686997 9.604846434941107,59.31691230305278 9.604176511385418,59.31784017599403 11.972625706050719,59.84028753134608 12.026379789606843,59.87864722052455 13.119192589606797,62.808710679010076 13.092919935384822,62.85497114415903 14.022853930052776,63.65592076881421 14.060333240273582,63.68185741524776 14.713741723829123,61.6721083381066 14.736096781608474,61.65961612011288 15.695733147830294,61.51949748650641 15.723083505165238,61.4935733663644 16.36569311227341,63.02928288268431 16.386395206497223,63.0534367553073 17.36743999938463,63.22771920220094 17.418339626051427,63.237300281214814 17.866292749607062,63.00949036350048 17.89193917094072,62.97807860537705 17.538554495386602,62.3055553354845 17.556190961162617,62.27334950939385 19.685404628718796,61.49090537344873 19.70153376649524,61.49825666405505 19.97060273716325,62.915128618079876 20.025631131828238,62.94742220192839 19.473767039386264,63.49742524023296 19.455555313161867,63.55171508896438 19.93485649005143,64.97037212850391 19.941264454496384,64.98979128951305 21.97232703938481,65.9484756115313 22.009806349608525,65.97612887583364 23.64286152471887,64.23074428453965 23.64476206871896,64.23008048520406 24.809365915829957,65.1142004299587 24.83888624294178,65.12115773669048 24.79657911405066,64.49432340592594 24.809256689162982,64.48586609289615 26.85721299849666,64.32067689660016 26.872308123827505,64.3016444515144 27.95427107494016,65.04045013975683 27.986208952273415,65.06175715389527 27.69310283316282,63.73424539891985 27.689571170939423,63.71387171858496 29.858084593163046,62.89018423961516 29.94120608649665,62.92774385883222 30.40030033005151,60.49805723097216 30.404647551383647,60.48319158065697 32.455946196717385,60.64767348753067 32.479648383383584,60.60437178031698 32.775827412717454,59.36363795352936 32.786007338051974,59.369113499758356 32.221851604719824,56.28023055619979 32.22235404738441,56.25153047879558 35.90749429982953,56.97605761940777 36.00119621627365,56.99528777689393 37.78989939138392,58.35805949297628 37.77904226071824,58.368382469942844 40.10739070516121,56.33117740272992 40.15192605805042,56.30984740913828 39.25193473360833,54.52327328113879 39.26101511049765,54.51184227496979 42.77182232116448,53.60786774824356 42.94245621982828,53.5118738453426 43.713421723828475,52.88951766435912 43.742745442938585,52.853149789839335 42.76917175405234,51.09944819185748 42.77537582872011,51.06535133340349 44.37661691671802,50.51876260740519 44.385304077606826,50.49984212007385 42.575978907829096,46.28400306430686 42.564808660716345,46.276711416669244 42.75738255582965,45.01924285408732 42.792196735384465,44.966362920263606 44.34047745360859,44.05827247821126 44.3312514411633,44.00956466415937 41.11877866605337,40.252625816615 41.090066616274825,40.23804918677615 42.30565018960607,37.73695295226917 42.32269683138566,37.707291494960195 38.80702539316245,37.07792177421343 38.79388906605291,37.0718484394949 38.139089762940245,34.08376599540334 38.12783213449566,34.05554606330097 35.9953198216068,33.09229687966563 35.93533981805068,33.04648277470242 35.34508619316312,33.418670814041796 35.313541531827475,33.49245155829976 34.409749119385204,36.88304253356455 34.37076248116192,36.92761623133247 30.929445275830048,36.67925264325586 30.88006754071958,36.665253021009086 31.639862797607027,34.63418623838788 31.64700622160727,34.62370267818751 32.93293905005249,33.97051708710478 32.9429223673853,33.911336680073696 32.18828260916326,33.872009317265295 32.17840123671905,33.86996064958494 31.240493695385346,31.797242125066806 31.22428445805254,31.781825124061836 29.791325254496595,32.1073919546323 29.764805019830064,32.11138701189175 28.611291320272546,28.938251480590953 28.590378054496075,28.905822822626035 28.452570410052257,26.79567398871859 28.43518880649627,26.77858312725566 30.157241869607066,25.79216523456107 30.176269154940208,25.76432830429676 29.927064874052128,24.448566544528695 29.906078790494764,24.37230970929359 22.92160143583006,21.68847386888938 22.85683730427391,21.66818298526323 21.6704026873862,23.474648403332505 21.633731654495758,23.519990520411923 18.893154488273836,23.904806554928474 18.887088767383656,23.910606490194734 18.39995239760884,28.31082884162879 18.405850637607916,28.327937881674554 17.02545858782815,28.888450658373586 16.961808568273963,28.970726022624696 13.587731298940895,27.00908045970118 13.565368959386076,26.972917889183556 12.365899960274517,27.279450782372262 12.355865670495957,27.274368931962638 12.806891704271955,26.51513728574919 12.809534989605716,26.45548303131782 9.861689300718542,26.995931509810728 9.828222250050572,27.0183918789362 10.765976874049926,27.58813250916992 10.800878434939484,27.62637656021525 10.240363590497697,28.771463570074232 10.234618267830053,28.772235428221578 10.99076535405166,29.148416705384264 10.99110031582805,29.150709078472392 10.217142001163854,30.074997316897317 10.215044849162048,30.09405871774925 10.923984170052979,30.74382209728192 10.940222534496394,30.781801905461 8.727202886497077,32.13738359454419 8.712450004718091,32.139916470112624 8.034210658940543,34.75358921260467 7.928690417163131,35.05812616328167 8.969482196718861,35.63068727746704 8.973021140717725,35.631895366459325 7.947499249162326,36.17675041253369 7.904791622495219,36.19417961841373 7.761995960274186,35.237146502770884 7.764362538052779,35.221785368703245 6.968384127385622,36.813920939997296 6.93925701627432,36.84481813732109 5.0040808811636515,37.40165051640488 4.971494925606937,37.42075502305797 4.299357709608564,39.77647384688007 4.296131882050946,39.812205672822714 5.174445354050665,40.85964768036484 5.171248653606568,40.86986624136898 3.202285069608303,42.3988458955615 3.183257784272252,42.420001107083046 2.527235142496471,44.598313870845416" stroke="#009edd" fill="none" stroke-width="5px" vector-effect="non-scaling-stroke" stroke-linejoin="round"></polygon>
  <polygon points="57.68382550694205,42.671478620543894 58.94095890427398,43.43151637303509 58.94668238160939,43.431929976120415 58.50875626605102,45.10731366983655 58.493741240273636,45.128331922754114 59.11644246694032,46.0163873990181 59.11478222160932,46.03621931775397 58.527368490051416,47.572448998092845 58.52521308382839,47.572908204493984 59.92370035138429,49.55444470399798 59.94112564560765,49.56297132483433 61.04783935938595,49.54976251616881 61.073150818940306,49.544713093370774 61.72111253271851,48.52863869692356 61.72347182871872,48.52510343272861 62.78620360471814,49.38675558249943 62.800024418940126,49.39178220047597 63.90361425005231,48.23599592212686 63.92688681182899,48.23180617707385 63.63892890960833,48.810086504623 63.64068381804955,48.8390557081495 65.27268313538498,49.85016024577472 65.3731425416072,49.85221432711678 66.38456691138545,48.21723961348453 66.40216696827538,48.205646024136335 67.05004130071885,49.739697714753675 67.0696292829407,49.75065685555874 68.2481777344974,49.20710255995055 68.25519008649553,49.19773757763596 68.32631849182927,47.71412379921804 68.3292676118288,47.70430851073452 69.40068654871702,47.380589145347585 69.40235407582932,47.36331086186965 71.02600119405234,48.27294588903879 71.04532703227288,48.27682567828433 71.4111635478299,47.247860658964605 71.4037361344961,47.22962903674907 73.10281518871761,46.85690055815485 73.1311121771605,46.85352494234812 73.42716741627355,46.29297120324027 73.42281291316304,46.263081176474046 72.94333697360689,45.91580273511336 72.92211787316174,45.889746189754625 73.90860943582939,45.59309003760118 73.92090107671957,45.575266262197516 73.9626620722729,42.99661815972486 73.96174456827558,42.98978166407306 74.92070372916332,43.07709282859269 74.93637411494255,43.084078579873136 76.11414341627369,41.33041702649771 76.12128684027394,41.31736044949485 77.09180946427496,42.16351299020444 77.1121984420517,42.17259140687802 77.95248647049576,41.780918530384774 77.96150859316386,41.76957542920991 77.3643955336067,33.33290662278432 77.36684221093874,33.32190255578153 79.19598837982903,32.72872015374287 79.26041026783042,32.70805641580064 82.86990741271858,34.19387065473693 82.91776325627562,34.21305558886943 85.43150576293975,34.15888415625359 85.4690069184957,34.18362792047829 86.22430931849794,33.882897167253944 86.56402609716443,33.71692987706174 87.15047863405181,30.823236211800943 87.15205149805098,30.736981557580112 86.78202796027455,29.61947310981177 86.77658119049721,29.58916796288959 82.39980312116369,27.263329430867273 82.34432325627404,27.26281087337102 81.06656058249628,27.90241934015485 81.03819805805088,27.93372488025325 79.1230322482732,30.979677209819602 79.09451680649636,31.008350849160163 77.74535630160517,30.884730675801805 77.6838325611634,30.884488845013948 77.06408045449626,28.10325786700978 77.05848804916296,28.082898981773 77.7802724260515,25.8836284203162 77.7813355656077,25.878752728272048 77.34032197627512,24.422878695934017 77.33732188382983,24.387644176329015 76.17997068738605,22.423715871121203 76.18117218071984,22.413254643411893 74.34852347671968,21.51805806072207 74.3413217984953,21.51211711576307 73.10274965271802,21.425424716212547 73.08766180916264,21.428574045402456 70.74812855405308,24.376933113354426 70.67250001004996,24.42121843579207 71.55201497538637,27.12224537905404 71.55058046516478,27.13035812913131 68.02122656649718,25.229704514544395 67.95180209716182,25.18022673735668 66.62962786071857,25.753297232472505 66.58070159582985,25.77538240688282 65.51686298960685,24.48671761580754 65.42490141805301,24.423593530003384 64.19298481716233,25.210591298524925 64.15688904471736,25.210256989559095 62.67270253449661,23.789959630706107 62.62365976116253,23.673369045965774 61.45443198516132,23.633678548427817 61.42467864116461,23.629596476006373 58.6044024171626,28.87651590297155 58.572362594940756,28.87977607526682 61.076828116716754,31.366562710580002 61.07774562071991,31.386989787372116 60.2925005504947,31.482837110821677 60.28845188204996,31.489423385167722 60.23671485093928,33.537859017946 60.23864452204998,33.541519222361785 59.493361848272436,33.43240262659365 59.455736902495666,33.4327134048448 59.62512561716122,34.64233371126011 59.62135365627455,34.65229938873072 57.96429045982932,35.56809639148105 57.95459113183006,35.579406526349885 59.62658197271794,37.18228314042335 59.62768880294152,37.18452608819626 58.185059398496925,38.33218329737847 58.18004225360619,38.343361135215495 58.30598788205225,41.07212999299209 58.30424753716198,41.10810610013705 57.68382550694205,42.671478620543894" stroke="#009edd" fill="none" stroke-width="5px" vector-effect="non-scaling-stroke" stroke-linejoin="round"></polygon>
  <polygon points="28.43518880649627,26.77858312725566 29.64846405627305,31.94984387581044 29.685870548718782,32.01176298494956 31.20744898782851,31.773396991338632 31.22428445805254,31.781825124061836 32.17950806693971,33.86653085588314 32.17840123671905,33.86996064958494 32.89832147849648,33.907527106127056 32.9429223673853,33.911336680073696 31.664453361162856,34.615060342641485 31.64700622160727,34.62370267818751 30.854879871383133,36.63250273554859 30.88006754071958,36.665253021009086 34.279157716716696,36.83368320352438 34.37076248116192,36.92761623133247 35.512872916718884,33.184844787603474 35.534507078496794,33.16578281120583 38.004624454496486,33.9561191132625 38.04672769360751,33.98135870148817 38.75988316382846,37.03821492410043 38.79388906605291,37.0718484394949 42.291436159383565,37.686784854982214 42.32269683138566,37.707291494960195 41.100443149608154,40.22454162788909 41.090066616274825,40.23804918677615 44.32357644738496,43.99074770690186 44.3312514411633,44.00956466415937 42.85930559938407,44.93131991575192 42.792196735384465,44.966362920263606 42.596280504274006,46.21048902552557 42.564808660716345,46.276711416669244 43.60511256116134,47.69705322169157 43.61519054160727,47.703011284138306 43.6114841167173,49.358776285483145 43.60594996560813,49.38541285498632 45.469771960272745,49.32637841952365 45.47687169360853,49.321776368946125 45.33654455405177,50.44368838518986 45.344663736273475,50.45855874045501 46.70255509271793,50.54094160243094 46.73720907316293,50.54290363019373 47.18752877449425,51.33851022521831 47.251149666940734,51.40426821036945 46.413352006496105,51.4328678657299 46.410373759385955,51.43908566084847 47.994400724718986,52.18524938953615 48.061393080273234,52.21503781906777 48.686824973608424,50.5874104895278 48.70754891316156,50.572712595893066 50.6781217700509,50.88244990633666 50.72083667849639,50.84482940529397 51.6139321593857,52.80516354719566 51.61538851493952,52.81265282395016 53.014174335385725,53.52753847878466 53.027055800275235,53.535508388318526 53.26639327227295,55.253924648022625 53.269706481162395,55.26103222382645 54.93917054516187,54.58767399421177 55.01298592649673,54.59190467111021 56.71320093805244,55.55785687395965 56.755362431384675,55.55402816563565 57.793059455384906,54.365633330322275 57.80663268916233,54.34779263296205 57.28360443671973,52.887762928640406 57.2724924438282,52.87642021143966 59.05199873360671,51.58896447807038 59.057023160275826,51.58558034861908 58.87066790338413,50.22508025644038 58.85370864294219,50.189118990997486 59.68755957982776,49.30519288731721 59.74207096827431,49.308303011284266 58.530055466052545,47.581024671174056 58.52521308382839,47.572908204493984 59.10343721182999,46.06596131750103 59.11478222160932,46.03621931775397 58.49610781804932,45.132191002920266 58.493741240273636,45.128331922754114 58.94699549805064,43.441029235934366 58.94668238160939,43.431929976120415 57.726147199387015,42.71618833665835 57.68382550694205,42.671478620543894 58.285912020719664,41.13166859614121 58.30424753716198,41.10810610013705 58.178571334495615,38.36272679939994 58.18004225360619,38.343361135215495 59.625191153163726,37.18760870207607 59.62768880294152,37.18452608819626 57.94649379494058,35.616420301250585 57.95459113183006,35.579406526349885 59.59987241183099,34.644428116138265 59.62135365627455,34.65229938873072 59.455736902495666,33.43394500737613 59.455736902495666,33.4327134048448 60.23745031049457,33.54354499480378 60.23864452204998,33.541519222361785 60.289835419828705,31.491058438041183 60.28845188204996,31.489423385167722 61.07293964738474,31.39958682993147 61.07774562071991,31.386989787372116 58.57585784827225,28.89093898242409 58.572362594940756,28.87977607526682 60.095178936273264,25.338733854100976 60.0922735069411,25.317799654466036 61.36367918871966,23.685107783149398 61.39289368116279,23.64748146529146 62.44109831049555,23.60475803637801 62.48366758338507,23.607629338186054 64.07750310338433,25.132201041407644 64.15688904471736,25.210256989559095 65.41836966338433,24.42426224566134 65.42490141805301,24.423593530003384 66.59435492916364,25.676228946307493 66.58070159582985,25.77538240688282 67.83894182338535,25.156179358919147 67.89017641182855,25.161436129634787 71.53856553182978,27.128087943195535 71.55058046516478,27.13035812913131 70.69459292382798,24.46616057474148 70.67250001004996,24.42121843579207 73.31226096294104,21.394877280996116 73.31995780205162,21.34436057905241 70.6562398002743,17.915649185768963 70.57017646871955,17.809782350319256 69.84170741982798,14.440810168059944 69.83077018960886,14.431338337491434 70.01387049182941,12.702761652023582 70.03700469983141,12.644837432799797 71.67274685093999,10.650594782005465 71.66023675671877,10.587712619958438 70.4031179229407,9.594157683837512 70.3381717469396,9.504579001973434 70.3706266304971,7.648803472085092 70.35207266071794,7.580855052725929 67.94899861271824,7.053592361410665 67.94577278516354,7.051174879340215 68.02140861094213,5.529923295564186 68.0113961664958,5.517184512136556 65.2838606642732,6.077616115682577 65.2719476758297,6.081584281177311 64.2039803016085,7.500946611496147 64.18234613982769,7.506532954555405 62.88859268205106,6.779739086013979 62.870118811828256,6.775401276573939 63.28986232827283,6.015154721936961 63.29822180916363,5.97084475403226 62.90435044916212,2.9877115380191754 62.90799133805249,2.896610312990197 61.00197872293921,3.6491272018492964 60.90702434071846,3.667541777490806 60.115648013606375,5.834464939165446 60.087008781608716,5.921420776159903 60.741545940720066,6.211676012791395 60.742623643827216,6.218582528838124 59.75542574871779,6.356687847385001 59.74705898605153,6.356734120979491 57.73848981272004,5.91450230849714 57.73415715493884,5.9126974893819355 57.44275497182953,4.875369875575235 57.44344674071745,4.868993925209907 58.21610161716217,4.254819020078685 58.218541012718745,4.252157245835224 57.872066744274164,3.8002035597934083 57.86890645271906,3.7977846123058043 55.992982143384694,3.6610370760272417 55.989086392274295,3.663085710613632 54.83659942338691,2.5646739115616586 54.79810794605274,2.5614787763419375 54.50977867316379,3.772183053394656 54.4474903460532,3.828837333849333 53.25008937182993,3.8197634300666325 53.208226431385086,3.8149834210138582 51.87935295938496,2.5416712108561117 51.86932595138478,2.539263272720382 50.20680142160837,4.0842660614054696 50.193818011830274,4.148520618123984 49.4433507122738,3.946715672017126 49.33258759049623,3.9601988908294516 48.0904692189417,6.354466714395494 48.082073329161915,6.370292266897559 49.55544639938435,7.727703519578609 49.58844741627382,7.756085047364286 50.822504859827866,6.770276873170042 50.825410289162946,6.769744767795601 51.96445509627502,9.009603260090627 51.975516116717884,9.023501589614716 51.17862020205049,9.496416492320533 51.177083746940305,9.496613040148622 51.4121031247194,12.093607499170867 51.43846316027321,12.172904522865247 49.77714012382768,14.052185733787883 49.62658936827484,14.273849381599394 50.7950307122721,15.879087186592916 50.890946289163374,15.93889349164656 49.95758257716353,17.711070701433165 49.95602427671821,17.71710819848504 50.545185634938946,20.34596138188481 50.53479453805176,20.376814769295564 47.439631202939026,21.165777523790712 47.427689087384906,21.166815814500843 43.3551946660502,19.576646363978035 43.2917485362732,19.56529101791657 42.91644570960762,20.5336289326513 42.91450875671854,20.54100165879336 41.26351128116349,19.416365281514118 41.24528499138524,19.41353790296107 39.86862849360605,20.380126248003037 39.86619637983077,20.380910848932217 37.99527465183038,19.917122508899595 37.98558988738497,19.91844952169322 35.60150671582942,25.87205584854801 35.58641887227405,25.885000068109186 33.4068298660508,26.07513703826826 33.389397290051974,26.08990187959844 31.80493341805105,24.908932415008714 31.737788145162455,24.915088652499072 28.43518880649627,26.77858312725566" stroke="#009edd" fill="none" stroke-width="5px" vector-effect="non-scaling-stroke" stroke-linejoin="round"></polygon>
  <polygon points="55.85877897894225,55.8397523982987 57.291876536272866,56.515166591761044 57.32912282960879,56.54566466150991 56.95884442960651,56.884535800787674 56.95577151938615,56.898483065108124 57.49824940027302,58.78382869062753 57.5048175638307,58.80217027976742 60.111752262495976,59.37688005999935 60.122696774496404,59.38193175469624 61.129111281162295,60.81168085539957 61.128324849164166,60.82694642318074 66.61921491849625,63.40811994321393 66.62689719405007,63.421409379076614 67.78647661449777,63.20086461785814 67.98632500560761,63.029477487776425 67.80561312649789,62.02776375863741 67.73559883316321,61.96316541114047 68.32889624116342,62.008391205145564 68.35468101627467,62.015066271310026 69.7221333469408,59.83669093858753 69.74799093983002,59.82327814639412 73.10695123849419,61.47233244205691 73.1513846464948,61.523917399179304 74.37752679760725,61.0044956669195 74.40776073893922,61.012614878220305 77.16894533627475,63.34817399409931 77.19300433005247,63.35828140616778 78.02116819849454,61.79810522734606 78.02728489183046,61.77723189983354 78.91704531849518,63.70161313573026 78.91862546427565,63.725924247740295 78.00212634960754,63.74503884004062 78.00115787316155,63.76999072113668 78.95994955316401,65.00099417979928 78.96518515138578,65.06910359151352 81.51017376649526,64.81398640802637 81.54353887227462,64.80968361976102 81.23246132560871,63.96900646610284 81.20687315849628,63.94538317208626 81.68221304827294,63.687259913766866 81.72778241360776,63.644840998435214 82.51711256116378,64.25674684273818 82.54845333271933,64.22800897295511 83.4408643264962,62.62903407166578 83.44558291849663,62.61877646938065 82.61771760294197,62.37930858777236 82.61331940916408,62.37288584376493 82.17971866960562,60.279958694183556 82.17694431227557,60.272307963471214 84.19879544827255,59.78399027149699 84.23609999582969,59.776487743959116 84.3185151567186,58.71541092074022 84.33125098605215,58.70900673485285 85.30333919227397,59.021554231608576 85.34889399405202,59.03118859162478 85.18166796738497,57.40227949689415 85.20214432649647,57.38182464020483 86.67965344649548,58.04290704517607 86.70506685093842,58.049919289676296 86.44241312649666,58.99834463267744 86.44592294338491,59.02085542480327 87.79905929893994,60.734596523477926 87.79205422871729,60.745750972616776 89.43957829627307,61.24753994947805 89.45556179849646,61.2625867155859 91.36282687938638,59.712446661412656 91.36437061627494,59.6888505784953 92.6826782287184,60.131912841650596 92.75861260738439,60.13387138898961 92.84101320471946,61.187444076308566 92.85460100205074,61.20272003422415 96.45828000649618,59.93196547634998 96.45959072649694,59.90818708824645 94.38662879227468,56.330432401687546 94.38696375405107,56.320392069907214 93.42216460738547,56.034211845612845 93.39002284027211,56.039232279769024 94.18733381627517,56.11382758738164 94.19047954427351,56.097551501782256 93.11281284205016,55.05921928926528 93.07227518516284,55.02163933819811 93.6640943922741,54.28700081679545 93.66426187316229,54.28512041021586 92.00769383760617,53.481920554453794 91.98373678871704,53.45919172133854 94.18035059138475,49.69901673048426 94.23743244738417,49.65312545809702 91.56083298072026,47.02923786542797 91.5420824029423,47.018881708325175 92.89217497538466,45.302148587268135 92.90643997805,45.25822980020003 92.02913867316074,44.391978102027316 91.98080223227426,44.37255366924783 91.3012011940531,41.89362421813112 91.28400891671754,41.849758115917034 91.56991335760668,38.9353854213985 91.57078717093955,38.896336175771836 91.08909028916078,38.43813032900489 91.06763817183074,38.41101415903959 92.08456028382916,35.379652014831485 92.07367402605287,35.30495359226752 89.712899825163,33.26447615520137 89.66334004560758,33.200326838358706 89.35672622871917,30.821577924396664 89.37574623227393,30.677466192304383 88.67745287049603,30.91400363651319 88.5735346198313,30.95590906534326 87.64877068738552,29.456588138904593 87.60462855049683,29.36540449914446 86.88434421982947,29.57964213651121 86.77658119049721,29.58916796288959 87.15205149805098,30.736981557580112 87.15047863405181,30.823236211800943 86.6070395584944,33.517819930211225 86.56402609716443,33.71692987706174 85.48482293983089,34.16568582555902 85.4690069184957,34.18362792047829 82.97060711760696,34.20312362489913 82.91776325627562,34.21305558886943 79.32261849538463,32.7237700733238 79.26041026783042,32.70805641580064 77.223485851829,33.48933229923987 77.17252797094098,33.55098049394419 77.76043686338508,35.52264850947813 77.7641578518289,35.543623617586675 77.96083866960817,41.732638356899955 77.96833161894156,41.75077364056761 77.11518397094024,42.17154566599038 77.1121984420517,42.17259140687802 76.12277232293836,41.317107592936196 76.12128684027394,41.31736044949485 74.93649790516338,43.05660660119884 74.93637411494255,43.084078579873136 73.96663792293967,42.98881651104875 73.96174456827558,42.98978166407306 74.01051791582995,45.316458867964506 74.01781425716163,45.37759297033463 72.92444804205134,45.88795472586335 72.92211787316174,45.889746189754625 73.40938531494157,46.24815332546696 73.42281291316304,46.263081176474046 73.16286072827334,46.824453224934224 73.1311121771605,46.85352494234812 71.40784305716207,47.23067379762051 71.4037361344961,47.22962903674907 71.06824278694094,48.267068806529096 71.04532703227288,48.27682567828433 68.44517166871792,47.67183183247089 68.40930891316366,47.65992711213167 68.22096573094005,49.154653858998614 68.25519008649553,49.19773757763596 67.08653028916142,49.73207794300816 67.0696292829407,49.75065685555874 66.40716954960645,48.21707891043607 66.40216696827538,48.205646024136335 64.83911880471842,49.95204862332157 64.82405280649527,49.95795829676772 64.84606562071986,49.18902675229456 64.84343689893994,49.1792370991343 63.678723825164894,48.813931475212854 63.64068381804955,48.8390557081495 63.93325108560657,48.24966709500714 63.92688681182899,48.23180617707385 62.81933569360681,49.36180604409001 62.800024418940126,49.39178220047597 61.7371251620496,48.55168672621349 61.72347182871872,48.52510343272861 61.060881023385264,49.43920202827849 61.073150818940306,49.544713093370774 59.546256682052444,49.32487500692059 59.53756952116365,49.328111360242296 58.8926807176058,50.20228033706208 58.85370864294219,50.189118990997486 59.06327092560805,51.57418900915346 59.057023160275826,51.58558034861908 57.384930374496435,52.860524310840816 57.2724924438282,52.87642021143966 57.61368742338655,54.70229091780621 57.602349695385605,54.72592025226314 55.85877897894225,55.8397523982987" stroke="#009edd" fill="none" stroke-width="5px" vector-effect="non-scaling-stroke" stroke-linejoin="round"></polygon>
</svg>