<svg width="151.8047579022823" height="226.52869432605803" xmlns="http://www.w3.org/2000/svg"><polygon points="47.17605688900221,185.2665528638754 71.06494833785109,195.46468425932107 73.44084679114167,195.80009911977686 76.8096884622937,200.7121859228355 78.32808476453647,200.88488865754334 78.4448844800936,211.60127944784472 79.98454357346054,212.9237490745145 87.81915392004885,214.88562476384686 90.25010261347052,215.26736363273812 88.39266673789825,204.9306382064824 87.59050609788392,204.76884602784412 92.06530417792965,201.45207983156433 92.61405895114876,201.576607182913 98.03927466680761,220.26399095199304 98.01422535115853,220.63526827126043 108.76067299570423,221.52869432605803 111.83591338677797,221.47507068881532 112.8876933689462,206.76124469313072 112.69283299567178,206.6935288886889 129.8341378844343,179.54960874648532 132.2394547200529,175.8483776767389 119.3096388267586,171.86481357860612 117.45162040891591,171.56117972906213 128.6043912533205,142.42535718431463 127.2141542400932,141.46159681974677 108.42396359122358,159.58321326813893 107.99055217776913,160.07641796354437 90.71846656012349,161.97331370483153 89.8848486400675,162.20104917621939 83.29687864892185,170.4684579942259 83.05191964458209,171.24436371825868 57.886969457846135,168.43390821648063 56.66421333339531,168.84981973964022 47.17605688900221,185.2665528638754" stroke="red" stroke-width="3.7950988221461444" fill="none" stroke-linejoin="round" vector-effect="non-scaling-stroke"></polygon><polygon points="5,88.79878020164324 8.148931982344948,121.27119851537282 8.030967182246968,124.86015375686111 21.669736960087903,125.01518583140569 32.410067911143415,184.27389343595132 33.05494215118233,187.7031852902728 49.24233415117487,184.39797611237736 49.6940956445178,184.20207998657133 63.42636344896164,190.9265339593985 66.58898517338093,191.6278286720044 76.8096884622937,200.7121859228355 78.32808476453647,200.88488865754334 77.22241962677799,210.65691305242945 77.0514434844954,210.84460506390315 84.80129393783864,213.77312480879482 87.81915392004885,214.88562476384686 87.59050609788392,204.76884602784412 87.81070705782622,203.98624283482786 92.06530417792965,201.45207983156433 92.61405895114876,201.576607182913 98.03927466680761,220.26399095199304 98.01422535115853,220.63526827126043 108.76067299570423,221.52869432605803 111.83591338677797,221.47507068881532 112.8876933689462,206.76124469313072 112.69283299567178,206.6935288886889 129.8341378844343,179.54960874648532 132.2394547200529,175.8483776767389 119.3096388267586,171.86481357860612 117.45162040891591,171.56117972906213 128.62332387559582,145.36389071063604 129.62733539566398,143.0004291398218 140.1859131733654,132.25337844301248 146.8047579022823,125.36298465798609 104.60510805330705,105.05742051947163 104.20169756445102,103.92162415786879 121.02959473780356,89.2839606917114 121.33542940451298,88.9092759474297 141.4596417422872,56.879982079786714 141.55867391999345,55.701638952072244 133.2565734400414,62.60424660547869 131.94730979565065,63.53424912597984 121.59029162675142,60.26307838503271 117.89464376901742,61.627398596319836 116.17876565339975,70.26380157604581 114.07287552009802,70.82951469469117 85.54520035570022,67.28286929853493 85.49947079119738,67.2933287814958 68.99080675560981,30.210389005136676 68.3791374223074,29.219750164833385 70.70639360009227,26.216422166035045 70.47512433782686,25.796598816057667 49.70108615118079,5.920696442655753 49.291850240086205,5 45.15376156452112,7.569661298184656 44.9705520356074,7.912644415919203 51.21132686221972,15.792009332973976 51.475218488951214,15.99760953389341 40.28516494226642,23.491422132297885 40.217590044485405,23.684734060487244 41.051499235560186,23.806179348553997 44.591317048994824,24.53939814743353 45.52396714675706,33.272789879643824 45.71707989333663,35.309060168860015 51.1655972978333,34.34846329462016 54.17209770670161,33.30826671986142 55.453690595692024,48.52183936908841 55.340677404543385,52.17202873126371 32.918918542331085,52.58952717023203 26.953103644540533,52.67184430587804 28.2186766222585,67.24785276484909 28.631407786742784,70.36975920962868 8.434377671102993,74.21466756833252 7.092200391227379,74.2460450148792 9.15498240001034,84.67674855951918 9.680144213489257,88.07032536069164 5,88.79878020164324" stroke="red" stroke-width="3.100743225483271" fill="none" stroke-linejoin="round" vector-effect="non-scaling-stroke"></polygon></svg>