<svg width="1090.7859245510772" height="995.3618180609774" xmlns="http://www.w3.org/2000/svg"><polygon points="5,436.3685144800693 11.678264035494067,452.3604189378675 11.247182791004889,452.8488338852185 42.02288839104585,471.14239216805436 42.566982826567255,471.7792627856252 41.81637717329431,477.324156365823 41.89764181326609,477.7407511518104 52.5479699911084,486.8744937441661 53.98917944880668,488.9871561261243 58.426112284418195,508.7294747654814 58.33552696881816,509.47995907726 65.53633137769066,518.8362016301835 66.25722737773322,519.4454062510049 63.87317333323881,522.7941962835612 64.0214303288376,523.6005877249409 83.81301105767488,540.5643522087485 84.46720597322565,541.3156296189409 81.26963171549141,561.2039137318498 81.04564423114061,561.5364300602232 83.89252807106823,564.2858740441734 83.85611918219365,564.468597598956 77.41844508436043,575.8413718943484 77.24018716439605,576.0764186274027 80.28863061324228,580.0207448012661 80.22542478214018,580.5458676101407 71.41680383996572,590.2031202669023 71.37835605326109,590.540554742096 82.319372799946,641.3194069764577 82.71346261329018,641.8836203406099 109.82031729770824,627.4815168672358 114.22346268442925,623.5651099755196 119.03409635554999,634.8044637123239 119.4593521776842,635.7818303366657 154.79781973327044,611.1487837561872 155.40657635545358,610.847015894833 175.8325455643935,633.3643396286061 176.8342269154964,634.137398333929 174.55503047106322,650.2798992433818 175.6341899377294,652.0274861708749 199.01772600889672,670.6331216088729 199.3521052444121,670.9519430181244 257.00805660441983,683.3414247878827 259.91872881771997,683.7098292009905 310.98612764442805,673.4686767455423 315.08693361771293,673.4073483340908 321.131100444356,674.9707665122696 321.8508313599741,675.3594773436198 322.7546456177952,689.2295081369812 323.1615513600409,690.3617443064577 338.1075458844425,704.541479930107 339.4785590043757,705.2002146899467 355.0636023465777,707.552887040365 356.06819640879985,708.2878101627575 367.25358961778693,698.5068180636154 368.5829509688774,698.4306172186043 382.664744106587,705.2768640539725 383.5161295643775,706.2002613390796 378.826955946628,722.3446555677219 377.358658275567,724.4135658490704 384.27547335100826,726.8214840634027 384.6232510576956,727.0419418295496 388.556576142204,742.3756091002142 389.0977578666061,743.6585879282211 342.1480587377446,780.2469131592079 339.98973980441224,782.0479987161234 333.1792386844754,804.5553592817741 332.06716558220796,805.5436848462559 311.9149912176654,818.2076473875204 311.9231468088692,818.7011039146455 302.3578035199316,815.5208809906617 301.8090487465961,815.7407987021143 300.7960078221513,821.6559613955906 300.36172259552404,822.3810377551708 290.816185742151,823.9938621313195 290.6102570666699,824.0321660023183 292.5442972443998,829.4969330677995 292.20380131551065,830.2364033048507 282.19135687104426,829.1247185838874 281.9918361599557,830.024611353525 284.93280056887306,839.524855817901 284.8349334754748,839.9267922709696 311.83197895111516,863.515833913465 312.7052097421838,864.1353425846319 331.4700598043855,855.5494718853151 331.39578567107674,854.1067458038451 335.3585291377967,859.6225759875379 337.3001423643436,860.8886470985017 355.3435138844652,862.7336735505378 355.4600223287707,862.7836850398453 362.25625116436277,854.7794484369224 363.9829063110519,855.9829186492134 360.8185369599378,871.5562442515511 360.825818737736,871.932441352983 372.46617742220405,887.1928832504782 372.5488984177355,887.5942816208699 367.89846385770943,892.5934541624738 367.57486165326554,892.7885173337418 369.9807610310381,898.6506926391739 369.89978766208515,899.0863064043224 365.07546424889006,899.6318359665456 364.87477845326066,900.0498791695572 370.40164778660983,911.4007081522141 370.43164871109184,911.4696275707684 368.775481173303,926.94891947211 368.85965852439404,927.1038645080989 401.543481173343,942.597363607958 403.81044423102867,944.2439816506812 421.45885212440044,977.5398491149535 422.03615146665834,979.0272432384081 438.0901412977837,990.2370873466134 438.2512142221676,990.3618180609774 479.5176314309938,928.6560113423038 479.1089780621696,927.5029375548474 557.1769176176749,884.7885321382782 561.037133653299,882.7296982103726 512.1662102754926,813.8557181915967 510.5149943466531,811.7322229087586 493.69758293323684,799.0597730589798 490.23990357329603,798.4973172119935 488.44509098667186,794.5911836944288 488.27032831998076,793.491937279643 493.95797930657864,785.9219049975509 494.7607224888634,785.2323141357047 510.9469494044315,782.8295462421374 512.0802852977067,782.1277761867386 557.7081961244112,795.4438958448591 559.5501946310978,796.383587994962 562.5237814044813,787.0622040703893 567.1986827376531,788.7140496918 572.0617452088045,801.0878470343305 572.0390260621207,801.1946584091056 605.3394696533214,820.5221516545862 607.8723632354522,821.3310506994603 602.51559623098,840.0205172569258 601.7358634666307,841.7224298483343 615.7212458666181,850.9874151295517 617.6188771554735,853.8071153650526 622.2244559644023,844.7959323797841 622.9159335822333,844.3525504257996 658.6231503643794,831.817175902077 658.9051007999806,831.5310334765818 648.9779987910297,813.1653140924755 648.9118802488083,812.6876180745894 652.5699541333597,782.9503388055018 652.4962625422049,782.0799998518778 681.345501013333,748.4906531982124 681.956587804365,747.9808097607456 695.9425527466228,752.9795682457043 697.2156987732742,752.0000207339181 695.9684758755611,756.3346993393498 695.5385597154964,757.876789214788 716.1028827021364,743.0180010566255 716.6915416177362,741.7435837334488 735.3413395910757,738.9237906709895 738.4544452265836,738.4076135827927 744.1170468977652,745.2580183142563 745.6322392177535,745.216545069823 755.0691319465404,734.1753663144773 756.8374388621887,734.3083578618825 760.433471999946,757.0550338180037 760.5962925510248,757.7451643123641 847.8689817599952,770.630505877547 850.1822569243377,770.5142139493255 854.2317991821328,768.1770936741959 854.6471517866012,766.9826059710467 849.7069024710217,755.1279760000762 849.5501986133168,755.1374422904919 855.5297032532981,721.7594601341989 855.6520371199585,721.6742504989961 850.0112807821715,710.9939291002229 849.963512319955,710.9353164157365 860.4996622221079,703.530604522326 861.1317205332452,702.8799806346651 868.0258164621191,711.7175690247677 868.3936918755062,712.1508501011413 880.4051299554994,712.690534070367 881.0476740265731,713.2072227374883 886.7140622221632,728.9494106843485 887.0431985777104,729.2510155573254 883.7905740799615,741.9162413438316 883.1966722843936,742.1411919163074 888.4477078755153,755.8474129053066 888.600916479947,756.0836184909567 885.3051838576794,767.1444256306277 884.9894459733041,767.2895673961611 891.3898373688571,787.0365136034088 891.526734791114,787.2339244828327 936.059174968861,785.0696064322256 936.2179177243961,785.0975507001858 945.0745984000387,774.5938600926311 944.8080853332067,773.5828577619395 1001.6487688532798,764.5958647711668 1001.9493606399046,764.5913572088466 1022.7222337421263,719.2856621323153 1022.9505902932724,718.9321957256179 1052.4365474132355,693.0865721896989 1053.0394786132965,692.7795065719984 1038.6579675021349,674.9617476912681 1038.3745607110905,673.9520883281948 1046.920163839939,664.8811788342427 1049.3068393244175,664.0243496321491 1038.648646826623,637.0311574061634 1037.7090062221978,636.1336271290202 1065.200921315467,642.2710369871929 1065.4549097242998,642.1781292160158 1068.0722719288897,637.6725059294258 1068.0984863288468,637.3892664478626 1063.5092187022092,618.0406152630458 1062.8369649776723,614.375734209083 1085.72446634667,600.6407920256024 1085.7859245510772,598.775057571358 1080.7081952710869,598.7385186089668 1077.9987913954537,598.6054445584305 1078.0867552710697,590.460256210994 1077.9265561598586,589.3924633890274 1068.2126646044198,582.2091993130744 1066.5165929243667,580.3956393065746 1062.8532761599636,584.5000379285193 1060.7986497421516,584.8591353059746 1045.4850710754981,579.7342726338538 1042.3338089244207,578.6786081769969 1033.1238163909875,586.2743160850368 1032.03591879108,586.405142025149 1035.279805155471,574.7568151722662 1037.2429724443937,572.6788183302851 1037.1060750221368,554.0165646786336 1037.796387555427,552.8231621176237 1025.834465564345,541.9180033340817 1025.5991185066523,541.5669572809711 1021.5967621688033,527.287748729228 1021.7004546843236,526.7886702418327 1039.045066808816,516.4648000611924 1039.7368356977822,513.7472460069694 1054.720695466618,513.3948008678271 1058.5823678576853,513.330268597696 1057.6939909688663,503.0960216501844 1057.942736497731,502.05487970879767 1013.2565051732818,443.74797633627895 1012.2510372977704,442.48038968403125 1005.1250895643607,438.24782484129537 1003.5921297066379,436.1938095726655 992.0190546488157,445.4475601442391 990.0925875200192,446.2569456070778 980.5432641422376,442.80631544458447 978.6456328532659,443.63512169755995 979.3245858133305,472.4120693136938 979.2575934577035,473.02997919754125 962.0108484266093,490.26214543549577 958.9600748087978,491.5718789183302 950.4246661688667,481.81277666427195 950.0515478755115,480.6054393964587 952.953773226589,469.76122059399495 953.1317398755345,467.8510368904099 930.0333582222229,445.45072004874237 929.143816248863,443.6680752580869 924.8394117688295,412.7116567498306 924.7730019554729,412.2755241385894 933.0646166754887,402.0974947907962 933.3969570132904,400.2747634194093 936.1054870755179,377.45840614044573 936.3300571021391,376.54219818272395 929.6264524799772,353.2834979533218 929.5513045332627,351.3266827589832 937.8204913777299,332.9137872038409 938.7350826666225,330.5082989388029 878.4789540977217,306.91495307610603 878.0027258310001,306.55268828442786 876.6925883733202,291.75758781441255 877.1711468088906,285.33249880815856 882.742871893337,273.6324153126916 885.2064429509919,269.8393195690587 889.4196795732714,232.0520421472611 890.2393164800014,229.97981941478793 887.451851946651,215.67208933189977 887.4512694043806,215.24505268700887 880.2102695821086,210.86934758292045 880.0582260621013,210.8223499642918 884.2898127643857,204.82690730353352 884.358261475456,204.41385875933338 881.0232072531944,193.15911489946302 881.0150516622234,192.9200402018614 869.4472194843693,178.42773781018332 869.332167395507,178.10593685298227 869.1574047288159,162.08760418841848 867.9352311465191,160.3035483835265 848.4104547554161,144.2265001303167 846.455151786562,145.2381591386511 843.1847597510787,162.442424797453 841.5093683198793,165.687763600552 829.7274518754566,160.0938180377707 827.2531037866138,160.47802218142897 811.9584577421192,170.80156026448822 810.9378437688574,171.9138878302183 802.6887546309736,199.7432828109013 802.3368991288589,199.79480204568245 783.3824315732345,180.26994876383105 784.2038161066594,179.57889549597166 773.0012379022082,174.40790359507082 772.0828600889072,174.23163302906323 766.2181162666529,181.02563040831592 764.6831175111001,182.9066878281883 754.5110564976931,173.46462842123583 749.5006108443486,168.07111329899635 755.6726456888719,134.89126087131444 758.8174998754403,128.91000643814914 793.4461397333071,103.90052036044654 797.9413267910713,100.21343688829802 804.6539608177263,79.3498361062957 806.869368888787,73.11202650499763 818.5158442666288,57.6603013118729 819.7021915022051,54.451794471708126 819.7252019199077,42.25768136442639 818.7841049599228,39.297236440412235 807.0432577421889,23.11402711085975 805.3157287820941,20.32790828292491 803.760632319958,7.9518639978487045 804.5831819376908,5 798.8978611199418,13.157106985046994 797.9911341510015,16.88863070635125 800.9612256711116,38.985632124939 800.5802430576878,40.67842060228577 784.2641092266422,42.00984853034606 767.2722264177864,48.1033793106908 753.9652144355932,66.79354722436983 753.6322915555211,67.4433556178119 740.8029641954927,103.38555315649137 739.5933152710786,105.35544308408862 714.156026595505,128.08316908567213 712.4681105065392,129.86206350033171 708.3702172443736,129.85392627806868 697.6362942577107,126.15462320536608 674.0305183288874,156.09489075286547 672.5129958399339,156.96908321772935 637.7323124621762,145.03248264233116 632.1262173866853,143.20895990903955 624.6673467732035,153.22594186052447 623.150698097772,154.8789709021803 626.9124644977273,161.00189474149374 627.2046094221296,161.58136232069228 624.8991985777393,166.7210187233868 624.0210161777213,167.8274912261404 569.2798148266738,219.64371605729684 566.6475977954688,223.08702947507845 551.9870489599416,226.46612335322425 546.727275235462,222.60035973286722 536.8560972799314,235.65511438215617 535.804026026628,237.05674492538674 518.3434879999841,219.67444402881665 517.7038566399133,219.09287124651019 514.8531862754608,220.72235564369475 512.9610891377088,222.32923405768815 504.99919331551064,215.13479123776779 504.63947349321097,215.35666975320783 501.2764572442975,207.06205577938817 501.2246109865373,206.83022684563184 486.34823025774676,215.3652556789457 484.8554658133071,214.88353953044862 486.14317539555486,243.0101855827961 486.4618259910494,245.30187355866656 482.85385073779617,245.41799354332034 472.3276040533092,245.75596108462196 472.7560638576979,259.4075146521209 472.99053710210137,266.1744650863111 458.0023082665866,267.714596956037 456.83780636440497,267.8835635341238 447.630143999937,230.5916377673857 446.94711324444506,230.16191914805677 448.39560447994154,238.76561950554606 447.9024824888911,241.1463640378788 441.60112327104434,250.94559481926262 440.07078485330567,251.76112329325406 428.8813138488913,246.37496444932185 427.5970995199168,245.86214061861392 420.1315296710236,229.81624582764925 419.885405582143,229.17821729404386 414.57844593771733,235.061384223809 414.4325191110838,235.962823212496 370.1770777598722,236.71740837581456 368.1475006577093,237.3310152264312 351.61291349329986,249.95295023324434 350.50724835542496,249.62944742664695 333.3339036444668,237.51401251740754 332.50611114664935,237.42725826520473 332.82330538658425,223.0088551142253 332.626697386615,222.7580643456895 295.90643968002405,193.2942439603503 294.7835895465687,192.62176138418727 292.9433386666933,200.0185038454365 290.5750132621033,201.148759331787 296.50674943998456,217.7896364790504 296.5446146844188,218.05173008795828 287.4758886399213,225.58317180385347 286.74741959106177,225.4828567141667 258.0379912533099,185.07381581497611 257.6057449243963,183.62213621439878 227.18509880884085,171.7918529821327 226.41031765332446,171.7204399651382 226.14205696003046,161.55650219880044 226.00748970662244,159.51525052182842 217.12401208875235,146.83293646993116 217.20877198211383,146.74569413380232 156.79914353776257,141.45368057501037 156.576612408855,141.47266641724855 145.77103672886733,133.93786957208067 144.9543125332566,124.53618664562237 146.2653238043422,120.34266221732832 115.70894535107072,106.61323359271046 114.65483519993722,107.08252956002252 114.56104590219911,132.0717601799406 114.37987527099904,132.88140407809988 124.89155840000603,144.5795416306937 125.29584270215128,145.1970238549402 121.07794574217405,161.09952745225746 121.04415829328354,161.25501649425132 123.87851747556124,176.2849503061734 123.86541027552448,176.38528800953645 118.69097898667678,182.80951683048625 115.56913521769457,185.5849746709573 86.19823018659372,194.19133610691642 85.75083775992971,194.28759816859383 43.85644003550988,251.05945271719247 43.64089941326529,251.25328209728468 19.015674595488235,242.00440167845227 18.862757262191735,243.0553689377848 17.387177813216113,261.4939155133907 16.869006506633013,263.3322630217299 24.379140835488215,277.16477811092045 24.752550399978645,278.13290388847236 33.77263416885398,323.943882015883 34.01351537776645,324.69274318241514 48.046666239970364,352.4209298348287 49.701086151064374,355.9687274666503 80.73573176877107,379.53916380519513 80.93845646223053,379.6525031173369 78.03652238217182,395.6928092050366 77.42485304886941,398.47368941426976 32.063746560015716,397.0184613392339 29.85882424877491,397.8113202826935 5,436.3685144800693" stroke="red" stroke-width="3.531436858742613" fill="none" stroke-linejoin="round" vector-effect="non-scaling-stroke"></polygon></svg>