<svg width="218.57283470220864" height="261.865113168722" xmlns="http://www.w3.org/2000/svg"><polygon points="5,147.30054875457427 5.101362346671522,147.40577270806534 5.696720497799106,148.11614792543696 7.397452515549958,148.73002785956487 7.8445536710787565,149.1890581959742 8.033879893366247,149.36458305153064 8.637102364446037,150.04738257144345 8.584964835550636,152.37789063580567 8.568653653259389,152.63152485288447 8.476611982216127,155.09295592590934 8.239517297712155,156.97680244233925 8.173398755607195,157.3733270650846 8.003296426613815,160.10624868009472 8.673219982185401,160.51792990480317 7.836398079991341,164.2437011632719 8.903615431045182,164.95402095117606 9.64985201775562,165.41209786658874 9.632958293310367,165.47458370955428 9.54878094221931,165.79390446230536 9.484410026692785,166.35443759069312 8.974685582215898,169.63444611016894 12.455375359975733,171.2319332563202 13.714249102165923,170.27858816547086 12.868980337749235,175.23226117523154 12.833736533299088,175.93886933423346 12.668294542236254,178.2401538604754 12.633924551075324,190.39029042044422 11.891183217754588,197.7612634631805 13.900662613334134,198.42645325738704 13.662985386676155,198.78706979576964 13.500456106616184,202.77999633777654 13.425890702172183,203.9362407247536 13.151222044485621,206.95108322805027 13.915808711084537,207.02458183380077 14.165428053354844,207.17433516547317 14.262421333231032,206.9441927325097 14.636704711127095,206.77973950636806 15.036619946709834,207.02366310136858 15.69256248883903,206.7466650994611 15.943055644398555,207.09486485208618 16.186849564430304,207.2832048535929 16.625795128871687,207.25104925519554 16.655213511083275,207.43020181375323 16.656961137778126,208.23408966854913 15.346823679981753,208.90797506598756 15.572850062162615,210.20750681328354 16.888230399927124,210.20980361039983 17.025127822184004,213.52589384303428 14.035229866625741,215.00821884948527 13.66793699550908,215.6650872269529 13.117434595478699,216.60261408460792 12.694800213328563,217.50109264091589 12.490036622155458,218.20480636233697 12.295758791035041,219.25807594147045 14.251644302275963,219.2277594881598 14.43485383107327,219.2337309111026 15.639259875519201,219.12211120844586 16.599580728798173,219.10695297276834 18.11593813332729,219.87818427971797 21.070009742164984,220.4904820980155 21.804886755533516,220.4303088710294 22.754721848876216,220.4532757535926 23.580184177844785,220.74403627490392 24.884787484421395,220.9466037999955 24.89003036438953,221.22174623364117 24.874010453233495,221.88410771545023 24.871680284384638,223.51060533721466 24.819542755489238,224.51745680195745 24.85857308434788,228.84934490569867 24.892360533354804,229.3077455367893 26.23832433775533,229.3095828119549 26.524352568900213,229.32657760608708 27.60322076443117,229.68622388126096 29.119286897708662,230.37933359475574 30.4168996977387,230.75459485017927 30.983422008925118,231.04258560371818 33.45660501322709,232.7916503790766 35.48006542213261,233.57431553071365 36.91108039114624,234.49109574925387 36.93438207998406,234.39647833176423 38.54656767996494,235.0624738354818 40.40079957328271,236.16572531376733 43.16583623108454,237.35715708794305 45.50590833777096,238.17838687979383 46.48807452444453,238.3850717379828 50.336057173321024,238.87652160582365 52.71108181332238,239.10065911791753 53.643440639949404,239.01660757820355 55.249218275537714,239.1851699227118 56.4218757689232,239.4703936445876 57.325981297763065,239.383586464799 58.243485297774896,239.16542011807906 59.35235441767145,238.67902319529094 60.86055623111315,238.20594487228664 63.70510990219191,236.51847064151661 64.85970858670771,235.9746546871611 64.9607796621276,236.00680600630585 65.51069952000398,236.01737001020228 66.09003775997553,236.0045094836969 66.87646975996904,236.2130336398841 67.9699015110964,236.74995944957482 68.95556295104325,237.25289558776421 68.90313415112905,237.57348805776564 69.82384213327896,237.8848940411699 71.14854314667173,238.35200217395322 71.9413831110578,238.6445757795591 72.86063473776449,238.9665440772078 73.53725752886385,239.19527447328437 74.73117781325709,239.55031133489683 75.54120277334005,239.81624412554083 76.10626872885041,239.8254300535773 76.82862108433619,239.85482502129162 77.66602552891709,239.71749537275173 78.1509919288801,239.63665915082674 78.3627460267162,239.6412521188031 78.73499050654937,239.67018781468505 79.47860565327574,239.5838400122011 80.05881770665292,239.77307025773916 80.80243285326287,240.00547416735208 81.17846385773737,240.11478659155546 82.05722880002577,240.16990207863273 82.30247907550074,240.24430796381785 82.96628593781497,240.30860932549695 83.6682493154658,240.36510264873505 83.62251975107938,240.60163957363693 83.43610624002758,242.01626276189927 83.30969457770698,242.90499044494936 83.1684280888876,243.83321322931442 84.02738659549505,243.93930870149052 85.23412280878983,244.1051114780712 85.17790748446714,245.1628475220059 85.14965418667998,245.57941865344765 85.73015751107596,245.6616305016214 86.95349617768079,245.8513147023623 87.35632412438281,245.921585078293 88.6556845511077,246.26926235313294 89.56328533333726,246.5448317899718 90.37185393774416,246.7841176322545 90.98294072889257,246.98482359485934 91.33130097773392,247.08724327042 91.38576867559459,246.90812362660654 91.90597888000775,247.0711684366688 92.59541759989224,247.2980531223584 93.54233998211566,247.60623011703137 93.96380927995779,247.751362498675 94.14905770670157,247.87169370317133 95.59114097780548,248.8926691240049 96.31058062217198,249.23574884940172 96.62457087996881,249.3749095464009 97.1156539733056,249.54254525044234 97.14390727109276,249.42359280539677 97.3466319644358,249.45528284547618 98.39375160890631,249.5719388947473 99.42922040889971,249.6954840119579 99.71787007991225,249.68032792338636 101.83424597326666,249.61786645592656 102.82835427555256,249.5861764397123 103.6608071110677,249.54667873197468 103.94974805333186,249.53152263286756 103.96169016894419,249.61281442461768 104.79822080000304,249.61786645592656 105.98107278218959,249.37950230721617 106.49312739551533,249.26284615398617 106.94488888885826,249.173287253303 107.86239288887009,250.3931222135434 108.02899996435735,250.6020917428541 108.69601080892608,251.50777712272247 109.28059192886576,252.25041792768752 109.64060302218422,252.7101466692402 109.95255438215099,253.1363478648127 110.37897528894246,253.74441794125596 110.74422926222906,254.2992115014349 110.93675946665462,254.670757053711 111.23531235556584,255.3155638857861 111.3532771555474,256.00537646975135 111.44473628443666,256.865113168722 111.66668487107381,256.19872567325365 111.81377678224817,255.9015832391451 112.16097194666509,255.3077564072446 112.51632270228583,254.69647588161752 112.96895800880156,253.9106724524754 113.35460096003953,253.24703144287923 113.7189811199205,252.6077296617441 114.42269212449901,251.3332538663526 114.92775623104535,250.48589552409248 116.15575523546431,249.60684384207707 116.70392746664584,249.27846154820872 117.51657386659645,248.80494717910187 119.0603107556235,247.86158955883002 120.60230001772288,246.9421104422654 121.56873756437562,246.4006171618821 123.15703893324826,245.5063924602582 124.05182378657628,245.0048534096568 124.23182933323551,244.8822241788148 125.11933240888175,244.25621694454458 125.65614506672136,243.88649061584147 126.00974819553085,243.65592803811887 126.47956849774346,243.34177464724053 127.15473493328318,243.11580438172678 128.2388460088987,242.7635291258921 128.9431395555148,242.51734946627403 129.43276629329193,242.35797554446617 130.17492508434225,241.98319375427673 131.13582847989164,241.45868187193992 131.2867069155909,241.37463125045178 131.40292408887763,240.43721199117135 131.45943068433553,239.88927224383224 130.97096903109923,238.42043779382948 130.37910613336135,237.4485580974142 129.56325575115625,236.40594127011718 128.48642645322252,234.45435112604173 127.8776698311558,233.37681226833956 128.73924977774732,230.80557888711337 129.09052273782436,229.88832369621377 130.6231913244119,229.8874050611048 132.35625443561003,229.90348117478425 133.21754311106633,229.90302185720066 133.7418311110232,229.91037093731575 134.9517713066889,229.99901919654803 135.83577912882902,230.07894039381063 136.54531555552967,230.33661715587368 136.52230513771065,230.46201054909034 136.39997127116658,230.94383283675415 136.12005973327905,231.86981049535098 135.93481130665168,232.44854451465653 135.28615054220427,233.92890232958598 134.88710912002716,234.8319018316106 135.93044223997276,235.37250552419573 136.78998328885064,235.7890955512994 137.7313715199707,234.92973420594353 138.43013091548346,232.9202575237141 139.07675278221723,231.06968519225484 141.0646781155374,231.85143796139164 142.22859747544862,230.7302511165617 142.45287623105105,230.6746739029768 142.67919388448354,230.11063327413285 142.8012364800088,229.59527890273603 142.89677340444177,228.95912229985697 142.97483406227548,227.9821474616183 143.38669141335413,227.29821651120437 143.80816071107984,226.57248485874152 143.7365080177551,226.5022081831121 143.17959765333217,226.06584922719048 142.9649308444932,226.1398006491945 142.5737537421519,225.91932428517612 141.90499527100474,225.91886495915242 141.01428821333684,225.63821659440873 140.40786176000256,225.6023891172954 139.9878488178365,225.53119347215397 138.61887459550053,225.21471706184093 138.3121661155019,225.3966106721782 137.83943310217,225.21563571679872 137.28863943112083,225.23722410778282 136.13112803560216,224.6809778555762 136.07170872890856,223.9947397938231 135.36625009775162,224.03975413792068 135.38605653331615,223.97223261831095 135.5890724977944,223.41047113004606 134.61768334219232,222.6985063906759 133.89300081774127,222.0209893771098 133.25191310222726,221.5566019109101 132.5755815822631,221.1643292271765 131.923425564426,220.91950294037815 130.96135708445217,220.64619747025426 130.32492970663588,220.45097906544106 127.80485205329023,219.59477202320704 127.61173930659425,219.54102930048248 126.22587135992944,219.272774826386 125.81605290656444,219.14875295339152 126.32169955549762,217.88602249347605 126.51772501331288,217.1230522726546 126.70588615117595,215.88189928763313 127.82786247110926,216.13959300005808 128.36758783995174,214.0794127387344 127.3458087821491,212.35178599244682 125.36603904003277,208.99571322806878 125.40273919992615,208.7458201489644 122.1189486932708,208.14772928826278 116.18633870221674,207.06133112724638 116.22362140438054,206.84221337240888 116.46974549337756,205.4507874691044 116.75402609782759,203.82966621319065 117.0045192532707,202.2673329586978 117.21248682658188,201.02471639966825 117.37880263116676,200.06507158034947 117.61851875553839,198.72229667846113 117.98086001770571,196.7069701901055 118.1739727644017,195.60489515820518 118.39213482663035,194.48811392625794 118.51912903110497,193.8343968501431 118.93535544886254,191.68396149255568 119.31808568886481,189.49904944578884 119.68887381325476,187.2153424998396 120.03927296004258,185.1636149462429 120.27840654214378,183.67832843930228 120.45083903998602,182.57205210631946 121.38057642662898,182.73560494469712 122.14836707548238,182.8587289097486 123.45355292444583,183.04663064639317 124.92651093332097,183.37281664676266 125.84488874662202,183.67419369606068 126.93016490666196,184.30772731022444 127.47804586659186,182.78062789520482 127.83077518222854,182.15352166624507 128.37807360000443,181.70742521010106 128.71012266667094,181.52595419430872 128.95741183997598,181.1464725388796 129.8035544177983,181.22962777706562 131.19874303997494,181.45933821349172 133.41065585776232,181.96470031276112 136.18210047995672,182.60650847299257 138.47877319110557,183.12473156460328 139.03364465769846,183.15413425589213 139.65084814222064,183.33192856947426 140.27708103111945,183.50604740640847 141.1465252977796,183.7702116005239 141.71537777769845,183.87128303275676 142.32267804443836,183.96270669659134 142.45578894217033,183.99119044328108 142.55365603556857,183.98751512129093 142.55540366226342,184.2273297464708 142.68734947545454,184.25443521415582 142.96405703108758,184.1478509826702 143.36076828441583,184.48598008760018 143.3156212621834,184.6725021660095 143.4047502222238,184.75703428633278 144.50721137784421,184.64769382000668 144.71780039113946,184.53605622792384 146.06318165326957,184.61002188181737 146.2245458489051,183.00620192469796 144.59080618654843,181.69961506820982 144.886737635592,180.84325427148724 145.3082069333177,179.7319097375148 145.48471722670365,179.29269965417916 145.66676167107653,178.7951415447169 146.38911402667873,176.5976943630376 146.52572017768398,176.08772537432378 144.47167630214244,175.55340522219194 145.13490062218625,171.9987412634655 145.6912284444552,168.7490922305151 144.60245703114197,168.77068627078552 141.91198577766772,168.8405223011505 141.9178112000227,168.26988775923382 142.13335182215087,166.686162248021 142.18112028436735,166.4307067398331 142.20267434662674,166.28230349096702 142.47938190214336,164.88280529523036 142.80385791999288,163.4465413079015 143.11231402656995,162.02221377333626 143.4231003022287,160.67874266993022 143.7137888710713,159.42991353437537 142.27083178667817,158.82111819687998 141.44682581326924,158.47238107520388 140.65602474671323,158.16223889257526 138.45168497774284,157.3613807951333 138.6995566933183,155.02219649235485 138.89878613338806,153.9612616841332 139.23811697773635,152.26485789968865 140.4725239466643,152.64898516837275 141.19604138669092,152.8961863265722 141.5050800355384,151.77872456243495 141.8289735111175,150.86389033152955 142.20471324434038,149.8838049559272 142.6034633954987,148.8233043733635 143.73068259551656,149.1987074718927 145.60384711110964,149.81947664619656 145.9487121065613,148.76678708160762 146.3512487822445,147.84826414339477 146.578148977831,147.33317278051982 146.96262684441172,145.99282669188688 148.3776219021529,146.5933873161557 148.51655822223984,146.2207366588409 148.77520696888678,145.5737658017897 148.9919126755558,145.07291345106205 149.0926924799569,144.82294633827405 149.41512959997635,143.80974946910283 149.67872995545622,144.04501374677056 151.518398293294,145.77824188600061 151.76306602661498,145.99512417259393 152.202885404462,145.9721493643592 153.68079502217006,146.11918809451163 153.95925020438153,146.14491986198118 154.2557641955791,146.18122002866585 154.2557641955791,146.65358113503316 155.08472177770454,147.2173804405029 157.05021923559252,147.8216135945986 157.28614883555565,147.58956988382852 158.88493596436456,147.29043990041828 160.78722759115044,147.72512020060094 162.5217470577918,147.75866314716404 163.4267264000373,147.34420061920537 166.39885681774467,145.58709121547872 167.97667242668103,146.9044651154545 169.57109048881102,147.48710297764046 170.60859818663448,147.5307548046694 173.12197660445236,147.72603918547975 174.70940416003577,148.30591788201127 175.9141014755005,148.8361700962414 177.08413752890192,149.3700969190686 176.69732949323952,150.45632606762229 176.4433410844067,151.52417037432315 176.04517347551882,153.21276880899677 175.70322119107004,154.74834807642037 175.62137400882784,156.26921324030263 175.52554581325967,157.8442852590233 175.45098040893208,159.57969989749836 175.31233535998035,161.2599649502081 175.0006752711488,162.8878384665004 174.5582344533177,164.98204775131308 180.58696391107515,165.5687718942645 180.9396932265954,165.530177716224 182.10681656887755,165.58990679850103 182.85858730669133,165.60552824800834 183.5203552711755,165.83984985545976 186.57345905771945,166.31216793006752 189.51733617775608,166.83364631567383 194.22136462223716,167.20304521999788 198.25809095113073,167.66709021123825 202.55783509323373,168.40772232791642 204.25711075554136,168.4463159912848 205.30044387548696,168.42655971209751 206.5861145600211,168.1835113845882 207.30904945766088,168.16926846845308 207.7459561243886,167.66525241121417 208.08936476439703,166.89751010172768 208.43655992881395,166.01306389976526 208.45840526220854,165.96160510007758 209.6296064000344,162.91816283547087 210.1329228800023,162.11594400327886 211.23392767994665,160.07500498363515 211.78559516440146,158.81192882015603 213.47729777777568,157.0659401382436 213.38321720890235,156.80036483245203 213.57283470220864,156.3399722648901 213.19359971559606,153.99618209857726 212.63872824888676,152.29931910597952 212.3349324800074,151.31510488694767 212.23939555545803,150.90018970431993 211.55141319113318,150.88318873307435 211.63326037337538,149.86037107388256 210.16175871994346,149.5391887871665 208.79045432887506,149.1072690784349 206.6685442844173,148.31924312695628 205.16645916446578,147.22565132396994 203.4613580799196,145.64452833373798 201.90393144881818,144.26189777540276 201.40964437334333,143.9724126883666 200.22184078220744,142.7735726935207 200.02406769769732,142.59436644933885 199.9034814577317,142.50384426437085 199.03316337766591,141.7084421121399 198.95189873769414,141.64227334345924 198.4657672533067,141.20022868772503 197.46962005330715,140.38598189945333 197.25728341331705,140.1893123498885 196.36366364441346,139.48580368532566 196.02258517337032,139.25788660458056 195.7648102400126,139.09751738520572 195.46450972440653,138.92198417760665 193.93533639109228,138.2010098976898 193.62455011554994,138.0002027382725 193.284345457796,137.72311612201156 192.89200327103026,137.4382174059865 192.22324479999952,137.02235650812509 191.6296342755668,136.84636209666496 191.3057407999877,136.66990802570945 191.05058730661403,136.50218462134944 190.78931711998302,136.34870610415237 190.5242604088271,136.18236100120703 190.11968483554665,135.90251494484255 189.52345287112985,135.47562264237786 188.91353116440587,135.06343411729904 187.2087213511113,133.6963595150155 184.40640199102927,131.37575926730642 183.26869703107513,130.35009195684688 180.62133390223607,128.21694567252416 176.3230461155763,124.99512874282664 173.7193736532936,123.58617185935145 171.9283475910779,122.68730219098506 169.19243804435246,121.2199675340089 169.0153452088125,120.9754873792408 168.9291289600078,120.67861824744614 168.94631395558827,120.40978129726136 169.5766246400308,118.76917931664502 169.81750584894326,118.27975362079451 170.1728566044476,117.8583411226864 170.71636849769857,117.41946463641943 171.1835673599271,117.2034727393766 172.09320703998674,116.89970504614757 172.6469134222716,116.62994426995283 173.0643049244536,116.28711322293384 173.347711715498,115.9318735069246 173.65354638220742,114.97230974625563 173.48402659548447,113.08901559014339 173.67626552889124,112.14414536976255 173.73044195550028,111.33852075127652 173.91394275554921,110.97270276088966 174.42279338662047,110.75532569637289 175.01086975994986,110.71396428503795 176.3046960355714,111.0595616112114 182.86994687991682,112.27558184467489 184.05891555559356,112.40196299512172 186.33665564435069,112.26639048545621 186.58918769774027,112.11978825199185 186.55219626659527,111.89184226171346 187.6668908088468,111.78797969443258 188.34205724438652,107.326897361374 195.61422307556495,106.27813668607268 195.2443087643478,105.09838972834405 196.61619569768663,101.31093098351266 196.56697088002693,98.06205554777989 197.1358233599458,95.64271689241286 197.67117966222577,94.73040224349825 195.49043285334483,93.45867055008421 193.23424682661425,85.85248304478591 192.07848305779044,83.59801435499685 186.7237549511483,78.19178977952106 185.03117852436844,75.68029911787016 184.68136191996746,75.56400866998592 183.21364679106046,76.36011435545515 180.02917973336298,73.89686559484107 176.63383239111863,70.54599314701045 174.23113699548412,68.88846416026354 172.6431268977467,65.94477895944146 167.00965233775787,62.665951762057375 165.75689528894145,57.419172962429 165.52853873779532,50.60469746374292 162.9950626132777,46.8788020699285 158.80221496883314,41.942408724629786 157.4775139555568,41.082274989632424 156.0473728000652,40.1540990358335 155.41910101333633,39.53531284787459 154.88345344003756,39.031455918448046 152.39483306661714,37.024291540903505 151.31975139549468,35.389491545036435 150.68128511996474,34.950447253359016 148.93890133337118,33.96477807004703 147.49244899547193,32.695446521334816 146.84961365326308,31.66011514904676 140.84069063107017,27.857574379944708 139.40239388449118,26.990028483618516 137.98506865778472,26.185924799065106 135.78713685332332,23.8232494595577 132.50072490656748,20.488610315776896 131.67642766213976,19.43482971895719 129.9456947200233,20.330911365512293 128.13952256005723,20.725848169531673 128.02388792892452,21.644912507443223 128.15117340441793,22.537306899146643 127.7145580088254,23.106947756488807 126.56811491551343,24.15059578738874 124.41591267555486,24.25312129064696 125.45953706663568,25.414920338022057 125.56060814217199,25.46825168345822 125.72634140437003,25.653532031050418 125.53672391106375,25.821341637754813 125.62556159996893,26.127076613076497 124.85485823999625,26.434190407511778 124.63232711108867,26.509129785001278 120.912212479976,27.694363839167636 119.5117809777148,28.751782052218914 118.55845063109882,28.88694731099531 118.60418019548524,27.891135968791787 118.77923413331155,25.108264845970552 118.91234503104351,23.460501333349384 119.16516835556831,22.095937646052334 119.23012181324884,21.608591379772406 118.73233948438428,21.69318741443567 115.43282033770811,21.45365181734087 114.97348579554819,21.432502788316924 115.09611093334388,21.029291555460077 115.24349411553703,20.851363440044224 115.40573212446179,20.733664140861947 116.41644287994131,20.06194933311781 117.15161116444506,18.871615901356563 117.45162040891591,18.66380112542538 116.43683185777627,17.93185014295159 116.75897770666052,17.32725308003137 114.56599751103204,17.043114863627125 114.69240917335264,16.782424617384095 112.86002261331305,14.80034085252555 112.21485710213892,13.959409530216362 110.42120959993917,11.917528196296189 109.35486606217455,10.723011757363565 106.81032163556665,7.098961047886405 106.22777941334061,6.615719032881316 105.4340656355489,6.349038865417242 104.08256767992862,6.5499686084804125 103.67129287100397,6.567440751183312 103.2137059555389,6.424445015203673 101.82987690670416,5 101.64317212440073,5.117707885277923 96.7099133154843,8.755585541715845 92.58580565324519,11.833388109400403 86.39425564440899,16.53276858344907 86.21425009774975,16.654148348781746 83.52640028449241,18.593456697941292 80.85136639990378,20.60125235252781 76.1543284622021,24.017266584618483 74.10581873776391,25.580431367037818 73.81658652436454,25.836053706647363 70.17715399106964,28.486968238430563 67.17706154671032,30.74890909268288 57.98716671997681,37.64630302111618 57.696478151134215,38.08028483920498 58.027362133259885,38.92617909394903 61.14745827554725,42.44166168704396 61.492614542134106,42.814491644792724 66.88782933331095,48.639933502243366 66.36820167116821,49.115266433975194 65.95255779556464,49.51842516910983 56.733827128773555,58.65434255445143 54.00403427553829,61.371047215303406 50.269064817694016,64.6324266557931 47.84831061330624,66.86135233065579 43.74517447105609,70.25043358682888 43.03942456888035,70.81719052093104 41.82453276438173,71.8601480924408 39.205714204348624,73.30943245906383 39.43290567107033,73.5944158702041 39.64728120889049,73.97546568181133 39.83078200893942,74.06233942887047 40.209434453281574,74.48705502186203 41.25713663990609,75.57504017755855 42.106774471118115,76.4308995915926 42.21862257772591,76.61291866400279 39.99797162658069,79.58403655589791 38.54248988442123,81.55541320570046 39.054544497746974,81.69927841122262 40.41914965340402,82.55649242311483 41.7450157511048,83.24915562715614 43.80051598220598,84.30538229679223 44.45296327106189,84.51956862356747 43.8462455465924,85.76653329428518 42.24745841778349,87.88768959132722 45.26298823102843,89.98814233957091 43.10612565325573,93.58965880115284 41.37247999990359,95.97592908947263 40.178559715510346,97.23569634504383 39.67786467552651,97.7132202081848 38.79181795543991,98.38193567976123 36.19775743992068,99.74693608511006 32.161031111027114,101.38032926019514 30.745453511131927,102.09774987224955 29.114626560010947,103.0550729567185 26.170166897703893,104.95086345711024 25.149261653306894,105.72434119647369 29.695712426677346,113.5812104519573 28.985593457706273,114.24022590363165 26.39095039991662,116.64832661644323 26.352502613328397,121.57979402487399 26.691542186657898,122.19834492966766 25.601023146649823,129.0670818981016 25.217127822106704,131.51315787807107 24.749637688859366,134.57128825830296 24.598176711122505,134.66594945377437 23.53241571551189,141.17679386259988 23.038711182191037,141.23239412979456 22.59190129779745,145.88622356014093 22.10431345773395,150.62725502968533 21.452448711148463,150.5358172415872 20.77058303996455,150.4131343193003 20.598150542238727,150.38051075889962 16.73502179561183,149.45234542578692 13.955712853232399,148.67442952428246 13.19811669329647,148.28983568871627 12.64353649772238,148.24572452402208 11.243687537731603,148.1450958958012 11.07271139556542,148.07663164229598 10.57143381331116,147.85331855743425 8.534574933350086,147.6566558139748 8.259032462141477,147.41450307751074 7.326091093360446,147.43058533594012 6.179939271067269,147.25505890720524 5.309912462136708,147.0152031898615 5.004951608832926,147.08550575532718 5,147.30054875457427" stroke="red" stroke-width="3.400254020401693px" fill="none" stroke-linejoin="round" vector-effect="non-scaling-stroke"></polygon></svg>