<svg width="1770.2628812800394" height="8252.981864343572" xmlns="http://www.w3.org/2000/svg"><polygon points="5,8229.062274151773 9.782671644468792,8240.146822723735 10.082098346669227,8242.572311829135 22.583454435574822,8244.199495707231 25.17751495121047,8244.610838086635 25.437620053300634,8238.165942518099 25.687821937841363,8238.149080110481 58.50446421338711,8247.5452356959 59.226525297854096,8247.981864343572 74.51359829341527,8241.976813674031 75.62683647999074,8241.494467868062 68.4245757155586,8225.82542261359 67.92591957328841,8224.37250730273 54.00199537782464,8219.325837889162 51.61211591109168,8218.795069975313 50.3086776889395,8204.340030388383 50.202655004453845,8204.260143599007 12.474890524405055,8202.865670661151 12.184201955562457,8202.88519866881 13.824349582311697,8217.769477196096 13.662985386676155,8219.170956748247 5,8229.062274151773" stroke="red" stroke-width="3.417300737450243" fill="none" stroke-linejoin="round" vector-effect="non-scaling-stroke"></polygon><polygon points="51.961058702203445,8144.894062522973 58.07687822217122,8147.549664103426 58.167172266636044,8147.9807191249565 54.50851584004704,8164.602998169372 54.8612451555673,8165.260849822138 63.57986332452856,8165.956874271797 64.10910293331835,8166.578766713443 61.0781357511878,8177.16753772978 61.317560604424216,8179.427268075 80.77039303118363,8180.587973075686 81.96576967113651,8180.712698566087 89.13220408884808,8191.8227500121575 89.53940110222902,8193.654472311202 99.879525546683,8196.737341643602 102.3049400888849,8197.241088882613 99.30222620454151,8191.161426627717 99.09134591999464,8190.311911674042 102.66378609789535,8184.316391523345 103.03137024003081,8183.199648019916 99.40387982223183,8181.030060261779 97.60469816892873,8180.424187538389 96.73146737774368,8167.174911787675 96.41281678224914,8166.705275668472 106.97984142228961,8164.036587216193 108.31473692448344,8164.108498405025 103.42400369781535,8161.596031894034 102.3754276977852,8161.380739707965 104.53520298667718,8156.279807244602 104.80637639109045,8155.007996081549 117.78425201785285,8144.961984525493 118.4270873600617,8144.266781866725 119.45061404444277,8135.883779781929 119.66149432887323,8134.774338917341 133.309584782226,8118.8593098541605 133.8530966755934,8117.214331919444 123.60122737789061,8109.613531374955 119.99558229336981,8109.184621587861 91.98782606224995,8128.546449900721 87.51652323559392,8131.002908682043 51.961058702203445,8144.894062522973" stroke="red" stroke-width="3.0901329256837187" fill="none" stroke-linejoin="round" vector-effect="non-scaling-stroke"></polygon><polygon points="1731.4969864534214,13.853362182155252 1742.0249807644868,29.976762294594664 1743.127733191126,32.12295606714906 1742.148770986707,51.06271886493778 1743.0726829511113,51.83717357675778 1748.4853740088874,53.47821594186826 1749.6819157333812,53.16124972153921 1764.7860704711638,39.804477375524584 1765.2628812800394,38.93875339702936 1751.2821592178661,7.511400318820961 1750.8088436622638,7.132618513132911 1741.011939840042,5.440533990447875 1740.5456147911027,5.411042203311808 1731.4969864534214,13.853362182155252" stroke="red" stroke-width="3.6719137214904283" fill="none" stroke-linejoin="round" vector-effect="non-scaling-stroke"></polygon></svg>