<svg viewBox="0 0 8906.34799905779 7447.170105525219" width="8906.34799905779" height="7447.170105525219" xmlns="http://www.w3.org/2000/svg">
  <title>Ísland</title>
  <desc>Geojson of Ísland</desc>
  <metadata>
    <collboard>
      <support-module name="@collboard/map-svg-geojson-import" version="0.11.0"></support-module>
    </collboard>
  </metadata>
  <polygon points="8.052550000000338,3375.6896269600475 12.13536998222844,3434.947712337038 26.143107440024323,3492.5897154419727 394.8077926666665,4608.9723363586745 952.7663690222325,6578.419853349136 971.6226053955688,6629.576237635229 998.6644338044498,6676.841716056086 1033.1226072444479,6718.926045430366 1074.0305425333281,6754.686489586609 1120.2523551555569,6783.156761879487 1170.5136611822309,6803.570883013665 1223.4357288088868,6815.380884637278 1277.5713047022218,6818.270521497332 1331.4418967022284,6812.16205037578 1383.575639066672,6797.218780205447 1484.2395176088976,6759.1919551069805 3095.188890195561,7413.427033880544 3152.610222675554,7431.7802479005695 3212.4217987111115,7439.117555525219 3272.5504233511238,7435.189784814334 4323.3819540177865,7278.926547481948 4602.389968808893,7279.388692101267 4648.7242848977985,7276.268199035483 4694.14160671112,7266.538949616508 5068.062570408911,7159.461970839133 5139.403822106666,7129.7628501698855 5284.250032951117,7048.322632732255 5326.450702248891,7020.138754101536 5363.781318568894,6985.697274491722 5412.97839277333,6932.673551691689 5611.985374462245,6692.5712973594855 6148.475376666676,6625.066243740315 6198.851589146674,6614.968573149679 6247.052224880004,6597.1185111980085 6291.900548577796,6571.942094061502 6618.928465377794,6354.6546217341165 6676.2091867289055,6306.766177417834 6793.41194868445,6184.038490235071 7467.153267511116,5855.468065185334 7514.495964186666,5827.807714805524 7878.282003937791,5575.111025678438 7923.735152097775,5537.505827301247 8178.552445751127,5287.219702492621 8267.404989466675,5188.264991849479 8288.099292186678,5159.262811043613 8307.959831351116,5185.632957699425 8338.148188755564,5215.579794224403 8399.425877928901,5258.207031658305 8434.865416560024,5274.8526439145135 8509.953798284456,5295.278787955707 8547.64639177778,5298.831199854096 8626.44156248001,5292.551757449815 8663.83858861334,5282.837047643938 8682.603511493355,5276.180131162582 8718.12205741334,5259.96640425345 8782.439014995565,5215.795281751452 8810.8923432089,5187.84355226675 8855.916885928898,5124.8549351482725 8871.634239173341,5092.553676608171 8879.835122942233,5071.151629489243 8889.277404186672,5038.555327412156 8897.652249626677,4982.295000607766 8898.29544905779,4955.247523750928 8896.488548720015,4925.355785454194 8892.20475167111,4896.544047396725 8885.7842625689,4869.351250797197 8875.99201908445,4839.724183668288 8865.80983640001,4815.880629191124 8837.104340222235,4766.48108447338 8815.339980257784,4738.621961697623 8772.706482088899,4697.479108544889 8723.51253904889,4664.395485701149 8669.267445217782,4640.4132942957585 8611.645645395569,4626.290221563198 8596.147255208889,4625.284048627545 8659.353377591127,4531.6645587624735 8695.705978337784,4465.164087248289 8707.808365822239,4435.70006669165 8724.22513382222,4384.787282089463 8732.543836755554,4331.878642173724 8745.945147760016,4160.610426168983 8746.24530264001,4110.8450573809605 8733.47903547556,3924.527671488213 8666.007466124465,3339.452508669179 8657.068501359994,3291.664517249046 8641.584674728896,3245.5308552566494 7981.998549360003,1687.2387170773654 7951.820677715565,1631.3817941115049 7912.310334035552,1581.6064900933197 7864.662385235562,1539.4757819374427 7810.335953946669,1506.3213766087065 7751.009708400023,1483.195759307382 6651.7393550489,1177.2829172706188 6560.467440666682,1165.126009422871 6437.51236553779,1164.6131639564192 6354.681487955553,1173.9286465085534 6098.743674337784,1233.750617924663 6037.919567102224,1253.9560728858996 5981.612637893348,1284.5149322052966 5931.570149288898,1324.4529362287067 5569.446612222229,1672.549041303144 5445.154675511112,1722.2714592320917 5460.358590604454,1695.271796854191 5481.193286000016,1636.819019886294 5491.824390284462,1575.5932333060555 5493.191835333353,1484.8520324376223 5482.4484460355525,1426.2565502221769 5465.45350488001,1374.324299836495 5442.7864229244515,1328.6164385514785 5420.283108151118,1290.7570771098326 5384.290882586669,1240.0455667112183 5343.499892648899,1198.1180788812708 5311.436987191111,1172.817627928358 5253.79064777778,1139.2647084650307 5190.964488560006,1116.773251816332 5125.072263991118,1106.1183509520852 5058.363679315567,1107.6597759673386 4993.037612968903,1121.3510773598027 4931.324182213335,1146.7209653991376 4875.157572862219,1182.70875508889 4827.382848311121,1227.3176492150014 4788.364534355562,1279.686531312611 4759.326843475552,1338.106240519257 4741.161429359992,1400.6834199216173 4737.430392062241,1436.4038231308732 4732.846585768908,1457.775163394348 4730.763560417785,1523.1581135302476 4740.358977448901,1587.7710890215021 4756.5765160088995,1642.792085454501 4781.583014711119,1698.4384276057463 4813.937482551126,1747.158724353365 4853.616253751134,1790.0308368491606 4884.229939795558,1817.4526597038275 4488.599812008899,1803.5356826245916 3571.9694068888857,1890.1271498772912 2085.489282302231,1356.5119454054293 2053.789446284449,1339.2602357348878 1986.737671422241,1310.3774888045664 1929.4672173777872,1295.3001237245553 1870.497196400007,1289.739912144978 1806.175796933334,1294.6464706382903 1767.7985706933323,1305.4209880710769 1563.0614124355707,1288.5225197676846 1490.9793126666846,1289.9231983866703 1420.6072655911048,1305.5452195947073 1354.7347746399973,1334.7539055334128 1196.4274693955595,1425.0818501110552 1133.2104971644367,1471.0046995938246 1081.34144742223,1529.345084933193 610.2024880622266,2197.994275852783 584.6726479911231,2240.6670729162943 362.68139010667073,2680.7367057497395 55.458743777773634,3205.247440932122 29.994658160016115,3259.1460578001934 14.050623173337954,3316.5180428080566 8.052550000000338,3375.6896269600475" stroke="#009edd" stroke-width="5.276389064320442px" fill="none" stroke-linejoin="round" vector-effect="non-scaling-stroke"></polygon>
  <polygon points="4241.712228719996,388.4531955396742 4243.038094817799,418.4477118235445 4243.373347866662,422.19562963606586 4247.431118533328,452.1678097602635 4248.11254729778,455.9129378167054 4255.993688204464,489.6051607960326 4257.0172877066725,493.34719442317873 4266.7395533066665,523.2723391926775 4268.153092008892,527.0115925916107 4296.325634871122,584.9305876574581 4297.448849093336,586.797710118808 4337.250391066678,640.9108216888053 4338.909835404462,642.7756390253708 4386.641670284451,687.5082517190531 4389.034025555571,689.3711528514177 4444.226187404456,724.7517359933772 4447.826735244445,726.6131072503122 4507.361312453351,750.8039816909077 4513.560289875568,752.6642836640603 4580.655536951112,765.6842607264334 4613.529778088901,767.543952281565 4671.74853805334,763.8244928929416 4683.471108008911,761.9646487742793 4751.419051262223,743.3620103999492 4756.242355226677,741.5013266935348 4818.750519208879,709.8580139294427 4821.676264702219,707.9959545677048 4882.917472168898,659.5555429999149 4884.848453999999,657.6914159916996 4930.840453715566,603.5983509100115 4932.136100435579,601.731920637998 4967.392138266681,538.2275011914826 4968.992163297786,534.4891735355268 4980.13117158223,504.5714407073174 4981.323853964444,500.8303343232037 4990.174199493347,467.1464640465929 4990.954223528905,463.4022649040635 4995.784663635561,433.437522118802 4996.214943884443,429.6905347277716 4998.437633733331,392.2035969377539 4998.453143920015,388.4531955396742 4997.5100808800125,362.19168300661113 4997.224489555556,358.4387944363625 4993.562993235559,328.40447978729935 4992.93093492445,324.6487888518968 4986.531927066673,294.592037051676 4985.577650088882,290.8335391915971 4975.070044755565,256.9930043658169 4973.681336915564,253.23138233990903 4944.7211969689015,193.0028604718027 4943.591429146683,191.1194266300663 4903.4249972888865,136.46570549367607 4901.745236791125,134.57991608493467 4853.34085691558,89.29736507448979 4850.941948044456,87.40960779187299 4795.513856595549,51.527237766487815 4791.8932110488895,49.63790296596562 4731.965781928891,25.069363392518426 4725.7206380355565,23.178922622704704 4658.086685039998,9.943623384497187 4624.933697448905,8.052550000000338 4565.665997395561,11.834617667038401 4553.847162337792,13.725532854739868 4485.383669217794,32.6303360986567 4480.527670071118,34.52038171787717 4417.664810693335,66.63907478952751 4414.726322088893,68.52769935236574 4355.955093644465,115.71769620991108 4354.050835937793,117.60427223252918 4310.05542687112,170.39647736702318 4308.766333751126,172.28077417304303 4272.45036034668,238.18176639534795 4270.849534320012,241.94463967080083 4259.7286576622355,272.0363663258686 4258.540926888898,275.79642556262115 4249.755462000008,309.62290799567563 4248.984540186684,313.37984588956897 4243.818118853342,347.178261606452 4243.437427511111,350.9320837924679 4241.712228719996,388.4531955396742" stroke="#009edd" stroke-width="5.788445973038803px" fill="none" stroke-linejoin="round" vector-effect="non-scaling-stroke"></polygon>
</svg>