<svg width="35570.97159623116" height="29734.260022100876" xmlns="http://www.w3.org/2000/svg"><polygon points="5,13475.548307840188 21.33127992891241,13712.58064934815 77.36222976009594,13943.14866176789 1552.0209706666647,18408.679145434697 3783.855276088929,26286.469213396544 3859.280221582274,26491.094750540913 3967.447535217798,26680.15666422434 4105.28022897779,26848.49398172146 4268.911970133311,26991.535758346436 4453.799220622226,27105.416847517947 4654.844444728922,27187.073332054657 4866.532715235546,27234.31333854911 5083.075018808886,27245.871885989327 5298.557386808912,27221.43800150312 5507.092356266687,27161.664920821786 5909.747870435589,27009.55762042792 12353.545360782242,29626.497935522173 12583.230690702214,29699.910791602277 12822.476994844445,29729.260022100876 13062.991493404494,29713.548939257336 17266.317616071145,29088.49598992779 18382.34967523557,29090.344568405068 18567.686939591193,29077.86259614193 18749.35622684448,29038.94559846603 20245.04008163564,28610.63768335653 20530.40508842666,28491.84120067954 21109.789931804466,28166.08033092902 21278.59260899556,28053.34481640614 21427.915074275574,27915.578897966887 21624.703371093317,27703.484006766754 22420.73129784898,26743.07498943794 24566.691306666704,26473.05477496126 24768.196156586695,26432.664092598716 24960.998699520016,26361.263844792033 25140.391994311183,26260.558176246006 26448.503661511175,25391.408286936465 26677.62654691562,25199.854509671335 27146.4375947378,24708.94376094028 29841.40287004446,23394.662060741335 30030.773656746664,23284.020659222093 31485.917815751163,22273.23390271375 31667.7304083911,22122.813109204988 32686.999583004508,21121.668609970482 33042.4097578667,20725.849767397915 33125.18696874671,20609.84104417445 33204.62912540446,20715.321630797698 33325.382555022254,20835.10897689761 33508.87636451557,20970.05683915125 33570.4933117156,21005.61792663322 33712.25146624009,21072.200375658053 33785.16041187564,21099.007420993352 33929.75379939558,21138.71911793691 34012.60499313782,21153.904951822828 34163.37536711112,21168.11459941638 34246.05121564452,21168.710883503314 34398.53397248004,21156.472862593306 34478.55604992004,21142.99682979926 34628.14415445336,21104.13799057575 34703.20384597342,21077.510324650328 34845.27802965336,21012.655417013797 34913.29682460445,20974.1610648465 35043.36044401786,20884.73240335111 35102.54585998226,20835.97092700581 35216.3591728356,20724.164009066997 35353.791368817794,20543.91401637462 35396.45734371559,20472.20954059309 35459.326756693365,20343.004506432684 35492.13029176893,20257.39631795697 35529.89941674669,20127.01110964862 35549.25875114667,20028.96419313876 35563.39879850671,19901.969802431064 35565.97159623116,19793.77989500371 35558.74399488006,19674.212941816775 35541.60880668444,19558.965989586897 35515.9268502756,19450.194803188788 35476.7578763378,19331.68653467315 35436.02914560004,19236.312316764495 35373.255852088914,19118.928385772568 35321.20716088894,19038.71413789352 35234.149721031135,18927.27764679049 35174.64215921785,18863.12013792596 35063.615728355595,18762.706234179554 34866.83995619556,18630.371742804593 34649.859580871125,18534.442977183033 34419.372381582274,18477.950686252792 34357.378820835555,18473.92599451018 34398.786504533375,18401.697008405346 34610.20331036451,18099.448035049892 34755.61371335114,17833.446148993156 34804.02326328895,17715.5900667666 34869.69033528888,17511.93892835785 34902.965147022216,17300.304368694895 34956.57039104006,16615.231504675932 34957.77101056004,16416.17002952384 34906.70594190224,15670.90048595285 34636.81966449786,13330.599834676716 34601.063805439975,13139.447868996183 34539.12849891558,12954.913221026596 31900.783997440012,6721.74466830946 31780.072510862257,6498.316976446018 31622.031136142206,6299.215760373278 31431.43934094225,6130.692927749769 31214.133615786675,5998.075306434825 30976.82863360009,5905.572837229527 26579.747220195597,4681.921469082474 26214.659562666726,4633.293837691483 25722.83926215116,4631.242455825675 25391.51575182221,4668.504386034212 24367.764497351134,4907.79227169865 24124.468068408896,4988.614091543597 23899.24035157339,5110.849528821185 23699.070397155592,5270.601544914825 22250.576248888916,6662.985965212574 21753.408502044447,6861.875636928366 21814.224162417813,6753.876987416763 21897.562944000063,6520.0658795451745 21940.08736113785,6275.162733224221 21945.55714133341,5912.197929750488 21902.58358414221,5677.816000888706 21834.603819520038,5470.086999345978 21743.935491697805,5287.255554205913 21653.92223260447,5135.818108439329 21509.953330346674,4932.972066844872 21346.789370595594,4765.262115525082 21218.537748764444,4664.060311713431 20987.952391111117,4529.8486338601215 20736.647754240024,4439.882807265327 20473.07885596447,4397.263203808339 20206.24451726227,4403.428903869353 19944.94025187561,4458.19410943921 19698.08652885334,4559.673661596549 19473.420091448876,4703.624820355559 19282.321193244483,4882.060396860004 19126.247937422246,5091.535925250442 19010.097173902206,5325.2147620770265 18937.435517439968,5575.523479686468 18922.51136824896,5718.4050925234915 18904.17614307563,5803.890453577391 18895.84404167114,6065.422254120989 18934.225709795603,6323.874156086007 18974.70249102224,6443.37593943486 18999.095864035597,6543.958141818002 19099.121858844475,6766.543510422984 19228.539730204502,6961.4246974134585 19387.254815004533,7132.913147396641 19509.70955918223,7242.600438815309 18103.01048519113,7182.925477141165 17927.189048035594,7186.932530498365 14260.667427555542,7533.298399509164 8314.746929208923,5398.837581621716 8187.947585137794,5329.83074293955 7919.7404856889625,5214.299755218264 7690.658669511147,5153.99029489822 7454.778585600026,5131.749448579911 7197.492987733334,5151.37568255316 7043.984082773328,5194.473752284306 6225.035449742281,5126.879879070737 5936.707050666737,5132.48259354668 5655.218862364418,5194.970678378828 5391.728898559988,5311.80542213365 4758.4996775822365,5673.11720044422 4505.631788657745,5856.808598375297 4298.155589688919,6090.170139732771 2413.599752248905,8764.766903411131 2311.480391964491,8935.458091665176 1423.5153604266816,10695.736622998957 194.6247751110932,12793.779563728487 92.76843264006311,13009.374031200772 28.992292693350464,13238.861971232225 5,13475.548307840188" stroke="red" stroke-width="3.1452501002404993px" fill="none" stroke-linejoin="round" vector-effect="non-scaling-stroke"></polygon><polygon points="16939.638714879984,1526.6025821586954 16939.775903573376,1541.6041877510143 16940.063096888945,1556.604550766584 16940.500294826692,1571.6036714296206 16941.08778865775,1586.6015499639907 16941.82528711116,1601.5981865936774 16942.713372728904,1616.5935815428966 16943.75233678223,1631.587735034991 16944.942179271195,1646.5806472941767 16946.283191466646,1661.572318544262 16947.77624718222,1676.562749008648 16949.421055146726,1691.551938911085 16951.218489173392,1706.5398884752067 16953.16913180449,1721.526597924414 16955.273274311156,1736.5120674822247 16957.531790506677,1751.4962973721558 16959.945262933383,1766.4792878173175 16962.51427413331,1781.4610390410526 16965.23998919112,1796.4415512668202 16968.122699377825,1811.4208247176139 16971.163569777797,1826.3988596162526 16974.363765475573,1841.3756561863702 16977.723869013367,1856.351214650378 16981.245045475604,1871.3255352316773 16984.92875121784,1886.2986181529122 16988.77586005337,1901.2704636368435 16992.78753706673,1916.2410719063482 16996.764552817855,1931.210443184129 17000.85895082669,1946.1785776927136 17005.119955911185,1961.1454756547464 17009.54902442667,1976.1111372928135 17014.147904000012,1991.0755628292682 17018.91834225779,2006.03875248658 17023.861795555567,2021.0007064873353 17028.979720248957,2035.9614250532468 17034.27473777783,2050.9209084070753 17039.748013226665,2065.8791567707085 17045.402168035565,2080.8361703664414 17051.238949831168,2095.7919494162197 17057.261271324533,2110.746494142106 17063.47058887116,2125.699804765929 17069.870106453367,2140.6518815097515 17076.46215424,2155.6027245952864 17083.249644942232,2170.552334244305 17090.23549127113,2185.500710678578 17097.422314666735,2200.4478541195276 17104.813901653397,2215.3937647892744 17108.58731889783,2222.8662579038646 17112.413164942234,2230.3384429087164 17116.292022328882,2237.810319831595 17120.22389105783,2245.2818886998575 17124.209644942253,2252.753149541386 17128.249575253343,2260.224102383887 17132.344555804448,2267.6947472547763 17136.494586595567,2275.16508418211 17140.700250168913,2282.635113193246 17144.962420337833,2290.104834315891 17149.281388373347,2297.5742475778097 17153.65773681784,2305.043353006593 17158.092339484487,2312.512150629831 17162.585196373344,2319.9806404752308 17167.137472568953,2327.448822570499 17171.74975061335,2334.9166969429934 17176.42232177779,2342.38426362077 17181.15605987562,2349.8515226311283 17185.95154744893,2357.318474001717 17190.809658311133,2364.785117760417 17195.73126627563,2372.251453934645 17200.716662613384,2379.7174825519905 17205.7667211378,2387.1832036400447 17210.88260693336,2394.6486172266304 17216.064611271082,2402.1137233390473 17221.314190506702,2409.5785220051766 17226.63163591118,2417.0430132524343 17232.018112568883,2424.5071971084108 17237.474203022255,2431.971073600871 17243.00136362668,2439.4346427573473 17248.600468195567,2446.897904605139 17254.27239054226,2454.360859172244 17260.018004479993,2461.8235064860783 17265.838475093304,2469.285846573941 17271.734967466677,2476.7478794637136 17277.708937955555,2484.2096051829867 17283.760969102208,2491.6710237590596 17289.89280853339,2499.132135219872 17296.105330062273,2506.592939592607 17302.40028131561,2514.053436904913 17308.77853610675,2521.513627184555 17315.24184206227,2528.973510458716 17321.79136426671,2536.43308675522 17328.429141617846,2543.8923561014817 17335.156047928904,2551.3513185251504 17341.974122097832,2558.8099740535254 17348.88511175115,2566.2683227143134 17355.890764515614,2573.7263645349303 17362.992536746722,2581.184099543025 17370.192758613324,2588.641527766129 17377.49317774229,2596.0986492315424 17384.896124302293,2603.555463966797 17392.403345920087,2611.0119719996583 17400.017464035598,2618.4681733575417 17407.740517546656,2625.9240680676885 17415.57512789336,2633.3796561577474 17423.523916515638,2640.834937655425 17431.589504853415,2648.28991258773 17439.774514346733,2655.744580982602 17448.08185770671,2663.1989428673405 17456.51503018668,2670.6529982692446 17465.07694449782,2678.1067472161376 17473.771095893346,2685.560189735377 17482.600979626703,2693.0133258541464 17491.5703822223,2700.4661556002684 17500.68309020449,2707.9186790010426 17509.943763911142,2715.3708960837685 17519.356481137802,2722.822806876211 17528.925902222283,2730.2744114056695 17538.657270044496,2737.7257096993853 17548.555244942254,2745.17670178524 17558.62623488001,2752.6273876902997 17568.875482737785,2760.077767442097 17579.309396480036,2767.527841068222 17589.93525788444,2774.9776085958583 17600.759766186704,2782.4270700524794 17611.79078570672,2789.8762254656176 17623.036763306707,2797.325074862689 17634.506437120028,2804.7736182708177 17646.209419093386,2812.2218557177694 17658.15619498666,2819.669787230843 17670.358124373364,2827.1174128373386 17682.82714936888,2834.564732564788 17695.576959715632,2842.011746440432 17708.621827697847,2849.458454491687 17721.977481955604,2856.904856746085 17735.662272568967,2864.3509532309836 17749.694549617823,2871.7967439735075 17764.09674097778,2879.2422290012473 17778.89214833785,2886.687408341677 17794.10756864003,2894.132282021921 17809.773585351126,2901.5768500695704 17825.92398592003,2909.0211125117494 17842.59750940441,2916.465069375874 17859.839302826673,2923.9087206895347 17877.700629902247,2931.352066479856 17896.24207502225,2938.795106774138 17915.535290880012,2946.2378415997955 17935.664746097813,2953.6802709844196 17956.73442446225,2961.122394954902 17978.8713201778,2968.5642135388334 18002.235049813404,2976.0057267636294 18027.03095950227,2983.44693465624 18053.53080519114,2990.8878372444306 18082.106248817872,2998.3284345552674 18113.292355413316,3005.76872661605 18147.907888071146,3013.2087134541944 18187.327063893375,3020.648395097116 18234.2173437156,3028.087771571765 18295.411947804445,3035.5268429057323 18426.908912355604,3042.9656091262586 18467.092383573356,3042.9656091262586 18598.589348124457,3035.5268429057323 18659.783952213358,3028.087771571765 18706.674232035642,3020.648395097116 18746.093407857814,3013.2087134541944 18780.708940515586,3005.76872661605 18811.895047111146,2998.3284345552674 18840.47049073782,2990.8878372444306 18866.97033642669,2983.44693465624 18891.766246115556,2976.0057267636294 18915.1299757511,2968.5642135388334 18937.26687146665,2961.122394954902 18958.336549831205,2953.6802709844196 18978.46600504889,2946.2378415997955 18997.759220906708,2938.795106774138 19016.300666026713,2931.352066479856 19034.16199310223,2923.9087206895347 19051.40378652449,2916.465069375874 19068.077601280063,2909.0211125117494 19084.227710577776,2901.5768500695704 19099.893727288872,2894.132282021921 19115.109147591167,2886.687408341677 19129.90455495112,2879.2422290012473 19144.306746311137,2871.7967439735075 19158.33902336005,2864.3509532309836 19172.023813973356,2856.904856746085 19185.37946823117,2849.458454491687 19198.424336213386,2842.011746440432 19211.17414656002,2834.564732564788 19223.643171555537,2827.1174128373386 19235.845100942242,2819.669787230843 19247.791876835516,2812.2218557177694 19259.494858808874,2804.7736182708177 19270.96453262231,2797.325074862689 19282.2105102223,2789.8762254656176 19293.241529742314,2782.4270700524794 19304.06603804446,2774.9776085958583 19314.691899448866,2767.527841068222 19325.125813191116,2760.077767442097 19335.375061048893,2752.6273876902997 19345.54071409779,2745.17670178524 19355.611704035604,2737.7257096993853 19365.510261475632,2730.2744114056695 19375.24192056898,2722.822806876211 19384.811924195616,2715.3708960837685 19394.224932693352,2707.9186790010426 19403.485897671082,2700.4661556002684 19412.5991881956,2693.0133258541464 19421.568882062274,2685.560189735377 19430.39905706671,2678.1067472161376 19439.093499733368,2670.6529982692446 19447.65599658672,2663.1989428673405 19456.089460337826,2655.744580982602 19464.39709496888,2648.28991258773 19472.58268700447,2640.834937655425 19480.648275342246,2633.3796561577474 19488.67512462224,2625.9240680676885 19496.624495786673,2618.4681733575417 19504.45968867559,2611.0119719996583 19512.183615999995,2603.555463966797 19519.798316657776,2596.0986492315424 19527.306120817782,2588.641527766129 19534.709649920056,2581.184099543025 19542.010651591176,2573.7263645349303 19549.21145600005,2566.2683227143134 19556.314102044445,2558.8099740535254 19563.320046080044,2551.3513185251504 19570.231618275575,2543.8923561014817 19577.050274986716,2536.43308675522 19583.77805511118,2528.973510458716 19590.416123733332,2521.513627184555 19596.966228480043,2514.053436904913 19603.430116977775,2506.592939592607 19609.808954311186,2499.132135219872 19616.104196835542,2491.6710237590596 19622.317300906696,2484.2096051829867 19628.449722880032,2476.7478794637136 19634.502336568898,2469.285846573941 19640.47659832891,2461.8235064860783 19646.373673244496,2454.360859172244 19652.19472640002,2446.897904605139 19657.94092288002,2439.4346427573473 19663.613136497792,2431.971073600871 19669.212532337813,2424.5071971084108 19674.74027548451,2417.0430132524343 19680.196948480036,2409.5785220051766 19685.58400768001,2402.1137233390473 19690.901744355622,2394.6486172266304 19696.15161486226,2387.1832036400447 19701.334201742313,2379.7174825519905 19706.45037880895,2372.251453934645 19711.501019875635,2364.785117760417 19716.486998755543,2357.318474001717 19721.40860672004,2349.8515226311283 19726.267300124455,2342.38426362077 19731.063078968902,2334.9166969429934 19735.797399608884,2327.448822570499 19740.470262044517,2319.9806404752308 19745.082831359992,2312.512150629831 19749.63539882668,2305.043353006593 19754.128838257806,2297.5742475778097 19758.563732195587,2290.104834315891 19762.940371911158,2282.635113193246 19767.25992248894,2275.16508418211 19771.52238392888,2267.6947472547763 19775.728338773362,2260.224102383887 19779.87866083556,2252.753149541386 19783.9739326578,2245.2818886998575 19788.01415424008,2237.810319831595 19792.000490666658,2230.3384429087164 19795.932650666684,2222.8662579038646 19799.811799324467,2215.3937647892744 19803.637936640065,2207.920963537006 19807.411645155575,2200.4478541195276 19814.80381468445,2185.500710678578 19821.991511893342,2170.552334244305 19828.977649493376,2155.6027245952864 19835.765722737822,2140.6518815097515 19842.358353066724,2125.699804765929 19848.75845319114,2110.746494142106 19854.96835328004,2095.7919494162197 19860.990966044425,2080.8361703664414 19866.828330382297,2065.8791567707085 19872.48306773341,2050.9209084070753 19877.95692572446,2035.9614250532468 19883.252234524465,2021.0007064873353 19888.37074176001,2006.03875248658 19893.31448632892,1991.0755628292682 19898.085215857776,1976.1111372928135 19902.684386702313,1961.1454756547464 19907.11403776001,1946.1785776927136 19911.375334115583,1931.210443184129 19915.47002339561,1916.2410719063482 19919.398979413323,1901.2704636368435 19923.16424106667,1886.2986181529122 19926.766390897857,1871.3255352316773 19930.20659399114,1856.351214650378 19933.486597973388,1841.3756561863702 19936.606694115617,1826.3988596162526 19939.568338773388,1811.4208247176139 19942.372114488913,1796.4415512668202 19945.01947761781,1781.4610390410526 19947.51042816002,1766.4792878173175 19949.84613120003,1751.4962973721558 19952.02746055118,1736.5120674822247 19954.054707484436,1721.526597924414 19955.92845454224,1706.5398884752067 19957.64957553777,1691.551938911085 19959.218361742212,1676.562749008648 19960.63510442665,1661.572318544262 19961.900677404483,1646.5806472941767 19963.014789404464,1631.587735034991 19963.978314240056,1616.5935815428966 19964.79125191114,1601.5981865936774 19965.453602417838,1586.6015499639907 19965.96594830224,1571.6036714296206 19966.32799829333,1556.604550766584 19966.54033493332,1541.6041877510143 19966.602375680057,1526.6025821586954 19966.5144118045,1511.5997337652952 19966.276443306706,1496.5956423470634 19965.888470186736,1481.590307679202 19965.34990990226,1466.583729537786 19964.660762453335,1451.5759076980175 19963.821027840022,1436.5668419358553 19962.83012352005,1421.5565320264432 19961.687758222222,1406.5449777454487 19960.393640675582,1391.5321788681904 19958.9471883378,1376.5181351698702 19957.348109937797,1361.5028464258066 19955.59582293342,1346.4863124112599 19953.689744782285,1331.4685329011409 19951.629292942234,1316.4495076708845 19949.41330232896,1301.4292364952853 19947.041772942233,1286.407719149196 19944.5135396978,1271.384955407586 19941.827728782257,1256.3609450454242 19938.983757653332,1241.3356878376217 19935.980169955583,1226.3091835582745 19932.816091875546,1211.2814319827012 19929.490940871183,1196.2524328852305 19926.05801955564,1181.222186040366 19922.569756728888,1166.1906912227278 19918.91750826669,1151.1579482067027 19915.100400355528,1136.123956766387 19911.11697664007,1121.0887166766333 19906.965489493392,1106.0522277111886 19902.644773831125,1091.01448964444 19898.153082026693,1075.9755022504833 19893.4886664534,1060.935265303473 19888.650070755626,1045.8937785772723 19883.635547306738,1030.8510418459773 19878.442765937827,1015.807054883393 19873.069979022257,1000.7618174632662 19867.515147662256,985.7153293596348 19861.775941688917,970.6675903460127 19855.85003093339,955.618600195914 19849.735085226654,940.568358683202 19843.428483128955,925.5168655813904 19836.92760320002,910.4641206637025 19830.229532728903,895.4101237038849 19823.33106773341,880.3548744750442 19816.229878044454,865.2983727504616 19808.92188586667,850.240618303651 19805.189537848928,842.7112712383969 19801.40417848894,835.1816109075444 19797.565516515577,827.6516372825718 19793.67296938674,820.1213503352483 19789.72595456004,812.5907500371686 19785.724472035537,805.0598363599856 19781.667356728925,797.5286092751776 19777.55460863997,789.9970687546302 19773.385353955557,782.465214769647 19769.159301404492,774.9330472920556 19764.875868444506,767.4005662934505 19760.53418126225,759.8677717453102 19756.134239857784,752.3346636193455 19751.674587875605,744.8012418872095 19747.155516586732,737.2675065202639 19742.575569635548,729.7334574902197 19737.934747022227,722.1990947688464 19733.231883662287,714.6644183275057 19728.466688284418,707.1294281376759 19723.63828707562,699.5941241712426 19718.745806222258,692.0585063995095 19713.788663182233,684.5225747941877 19708.765692871122,676.9863293269882 19703.676895288867,669.4497699690401 19698.520522808947,661.9128966921708 19693.29657543113,654.3757094680914 19688.003596799972,646.8382082681055 19682.6407131023,639.3003930636914 19677.207341795554,631.7622638266184 19671.7023177956,624.2238205283065 19666.12447601778,616.6850631401758 19660.473233919998,609.1459916341119 19654.747135146696,601.6066059811856 19648.94501461339,594.0669061532826 19643.06628977781,586.5268921217648 19637.109213013377,578.9865638581687 19631.073201777763,571.4459213339142 19624.956508444506,563.9049645206542 19618.75796792895,556.3636933898088 19612.476123875647,548.8221079129144 19606.11010247114,541.2802080615074 19599.657864817826,533.7379938068916 19593.11824583111,526.195465120778 19586.489789155545,518.6526219747029 19579.770747164497,511.1094643397373 19572.959372231096,503.5659921876504 19566.054208000016,496.02220549003687 19559.053506844502,488.4781042180839 19551.95493859559,480.93368834338617 19544.757338168914,473.3889578375383 19537.457792853413,465.843912671844 19530.05484629341,458.29855281760683 19522.546459591133,450.7528782467125 19514.929720035638,443.2068889301154 19507.20258872892,435.660584839643 19499.362735502247,428.1139659465407 19491.407538915577,420.5670322221704 19483.33408625779,413.0197836380685 19475.139464817767,405.47222016594606 19466.82105315558,397.9243417766993 19458.37564728892,390.37614844203927 19449.799751964456,382.8276401335024 19441.090163200046,375.27881682215957 19432.243385742302,367.72967847966356 19423.255341795564,360.18022507737624 19414.121953564463,352.6304565866012 19404.8735132445,345.08037297887495 19395.59041166224,337.5299742255593 19386.15322766232,329.9792602979578 19376.55759217782,322.4282311674906 19366.7982623289,314.8768868056359 19356.87028650666,307.3252271836973 19346.76725674671,299.77325227315305 19336.483930168964,292.2209620451322 19326.01360753784,284.6683564710547 19315.34929834673,277.11543552263174 19304.484012088913,269.5621991708176 19293.409884444438,262.0086473870906 19282.118177280005,254.45478014287073 19270.600443733332,246.90059740946162 19258.84678058664,239.3460991581087 19246.846410808852,231.79128536052303 19234.58797482669,224.23615598748438 19222.05953052448,216.68071101076202 19209.24738816009,209.12495040154317 19196.13669290667,201.56887413113145 19182.711424853303,194.01248217077227 19168.954107733327,186.45577449194388 19154.845226382196,178.8987510659499 19140.362644195557,171.34141186386114 19125.48247694224,163.78375685744686 19110.177636408887,156.22578601754503 19094.417830399994,148.6674993156339 19078.16868892446,141.10889672319172 19061.390307840018,133.54997821117286 19044.038413937786,125.99074375093915 19026.060287146713,118.43119331402704 19007.395343075623,110.87132687150734 18987.971055217844,103.31114439462544 18967.702081137802,95.75064585491782 18946.483563235553,88.18983122328063 18924.18763349339,80.62870047125034 18900.652927715564,73.06725357007235 18875.672352142225,65.50549049081746 18848.97211192886,57.9434112047893 18820.176467342244,50.3810156834661 18788.7459842845,42.81830389780225 18753.854909155576,35.25527581915958 18714.117082737794,27.69193141895812 18666.841742506716,20.128270668152254 18605.13654015999,12.564293537987396 18472.52458979562,5 18429.77094229334,5 18297.15899192891,12.564293537987396 18235.453789582243,20.128270668152254 18188.178449351166,27.69193141895812 18148.440622933384,35.25527581915958 18113.54954780446,42.81830389780225 18082.119356017793,50.3810156834661 18053.323420160043,57.9434112047893 18026.623179946677,65.50549049081746 18001.642604373395,73.06725357007235 17978.107898595626,80.62870047125034 17955.811968853348,88.18983122328063 17934.593450951157,95.75064585491782 17914.324476871174,103.31114439462544 17894.900480284472,110.87132687150734 17876.235244942305,118.43119331402704 17858.257118151174,125.99074375093915 17840.90522424894,133.54997821117286 17824.127134435636,141.10889672319172 17807.877701688907,148.6674993156339 17792.117895680014,156.22578601754503 17776.81305514666,163.78375685744686 17761.932887893345,171.34141186386114 17747.450305706705,178.8987510659499 17733.341424355574,186.45577449194388 17719.584107235598,194.01248217077227 17706.15883918223,201.56887413113145 17693.048435200006,209.12495040154317 17680.23600156448,216.68071101076202 17667.707557262213,224.23615598748438 17655.449412551126,231.79128536052303 17643.44904277334,239.3460991581087 17631.69508835557,246.90059740946162 17620.177354808897,254.45478014287073 17608.88564764452,262.0086473870906 17597.811520000047,269.5621991708176 17586.94623374229,277.11543552263174 17576.282215822255,284.6683564710547 17565.811601919995,292.2209620451322 17555.52827534231,299.77325227315305 17545.42553685332,307.3252271836973 17535.497269760002,314.8768868056359 17525.737939911196,322.4282311674906 17516.1423044267,329.9792602979578 17506.70512042666,337.5299742255593 17497.42201884446,345.08037297887495 17488.28833934228,352.6304565866012 17479.300004124467,360.18022507737624 17470.452644124452,367.72967847966356 17461.74247281783,375.27881682215957 17453.166577493423,382.8276401335024 17444.720589084493,390.37614844203927 17436.401886151172,397.9243417766993 17428.206973440014,405.47222016594606 17420.13322951115,413.0197836380685 17412.177741653402,420.5670322221704 17404.337597155594,428.1139659465407 17396.610174577858,435.660584839643 17388.99314375117,443.2068889301154 17381.48417450668,450.7528782467125 17374.0809366756,458.29855281760683 17366.78139136004,465.843912671844 17359.583208391152,473.3889578375383 17352.48464014224,480.93368834338617 17345.483356444456,488.4781042180839 17338.57790094224,496.02220549003687 17331.76623473782,503.5659921876504 17325.04690147558,511.1094643397373 17318.41815352894,518.6526219747029 17311.87853454228,526.195465120778 17305.426005617774,533.7379938068916 17299.05940167117,541.2802080615074 17292.77755761787,548.8221079129144 17286.578725831117,556.3636933898088 17280.461741226667,563.9049645206542 17274.425438720093,571.4459213339142 17268.468070684467,578.9865638581687 17262.58905457781,586.5268921217648 17256.786934044445,594.0669061532826 17251.060544000007,601.6066059811856 17245.40901063109,609.1459916341119 17239.83116885333,616.6850631401758 17234.32585358224,624.2238205283065 17228.892191004532,631.7622638266184 17223.52901603555,639.3003930636914 17218.23603740451,646.8382082681055 17213.01150748448,654.3757094680914 17207.8551350045,661.9128966921708 17202.76604615111,669.4497699690401 17197.74307584,676.9863293269882 17192.7856415289,684.5225747941877 17187.89286940446,692.0585063995095 17183.06417692447,699.5941241712426 17178.29869027558,707.1294281376759 17173.59582691558,714.6644183275057 17168.954713031184,722.1990947688464 17164.37476608,729.7334574902197 17159.855403519992,737.2675065202639 17155.395751537813,744.8012418872095 17150.995227591135,752.3346636193455 17146.625869653362,759.8677717453102 17142.256220444455,767.4005662934505 17137.914824533393,774.9330472920556 17133.631391573348,782.465214769647 17129.40563029342,789.9970687546302 17125.236666880082,797.5286092751776 17121.123918791127,805.0598363599856 17117.067094755592,812.5907500371686 17113.06561223109,820.1213503352483 17109.118888675584,827.6516372825718 17105.226632817823,835.1816109075444 17101.387970844517,842.7112712383969 17097.60290275555,850.240618303651 17090.190635520034,865.2983727504616 17082.98691840004,880.3548744750442 17075.98767360003,895.4101237038849 17069.190279680013,910.4641206637025 17062.59124138672,925.5168655813904 17056.187937280047,940.568358683202 17049.977745920012,955.618600195914 17043.95804586669,970.6675903460127 17038.12592440896,985.7153293596348 17032.479342648876,1000.7618174632662 17027.016261688957,1015.807054883393 17021.733768817794,1030.8510418459773 17016.630698951194,1045.8937785772723 17011.70443064894,1060.935265303473 17006.95350755559,1075.9755022504833 17002.37589077337,1091.01448964444 16997.970123946667,1106.0522277111886 16993.734459448955,1121.0887166766333 16989.667149653367,1136.123956766387 16985.767029475595,1151.1579482067027 16982.032933831157,1166.1906912227278 16978.463115093356,1181.222186040366 16975.05640817783,1196.2524328852305 16971.81164800003,1211.2814319827012 16968.727960746735,1226.3091835582745 16965.8041813334,1241.3356878376217 16963.039144675597,1256.3609450454242 16960.432268231118,1271.384955407586 16957.982386915537,1286.407719149196 16955.688626915624,1301.4292364952853 16953.550405688933,1316.4495076708845 16951.56714069337,1331.4685329011409 16949.737958115584,1346.4863124112599 16948.062275413366,1361.5028464258066 16946.539510044444,1376.5181351698702 16945.169370737858,1391.5321788681904 16943.950983680028,1406.5449777454487 16942.884348871128,1421.5565320264432 16941.96917504008,1436.5668419358553 16941.204588373366,1451.5759076980175 16940.590880142234,1466.583729537786 16940.127467804472,1481.590307679202 16939.8146426311,1496.5956423470634 16939.651530808944,1511.5997337652952 16939.638714879984,1526.6025821586954" stroke="red" stroke-width="3.916354082215042px" fill="none" stroke-linejoin="round" vector-effect="non-scaling-stroke"></polygon></svg>