<svg viewBox="0 0 12710.086347715536 26514.2365454088" width="1000" xmlns="http://www.w3.org/2000/svg"><polygon points="8.052550000000338,13867.401570673952 81.55248471999221,14106.776495826642 18.05246978658397,14241.901534386714 122.62316774225474,14314.230662825845 201.6103589244667,14408.437660954696 167.06356624895852,14419.773891572295 136.14513780442212,14473.736415591942 131.94879490658786,14490.231719258045 203.7112974488191,14627.340715060687 225.09875259557884,14767.878866132385 333.8975420000279,15033.647166987044 633.1075385155636,15548.684747166677 621.4033914578395,15722.986343319564 669.9224593334147,15888.085690660031 753.0433701243965,15901.026495692706 783.0472072799239,16037.871154553643 787.6172510133838,16053.14238417874 906.9451998133227,16357.894524727693 911.4916505866931,16373.076275181236 1113.5321480800412,16381.40522498641 1125.5791212355034,16385.70691264145 1727.9802078132998,16670.864687586414 1741.917530480052,16680.25607004579 1733.1473573244657,16844.059905699665 1738.6931592799738,16853.977642064776 1873.9361615910675,16999.08942939589 1892.527996613273,17009.846135466047 2120.357347013407,17289.526908917273 2340.039844435618,17639.575932382642 2431.583733217769,18661.712537384745 2439.727382213321,18749.742474760315 3731.4914583022255,19668.40193341519 4535.622838639982,20190.075591466077 4583.4390693245,20451.99038383345 4599.881323546615,20482.683330997977 4865.025998533332,21639.01505618907 4888.3072984444225,21727.565209791333 4905.907355333307,21837.85275483368 4916.832352168953,21876.134051917856 4979.633025164461,22145.3459178939 5360.611560702186,23896.87271456232 5369.938061680041,23910.495277756396 5920.462307013317,26414.53964174199 5941.902773502145,26506.1839954088 6048.505669999962,26475.462255569037 6084.005793022203,26461.400061419852 6254.130841057842,26356.400065267495 6259.69324546666,26350.649998377346 6300.0057497867165,26338.462521291316 6338.380718675537,26323.587356251817 6387.005809235598,26293.712232721016 6437.380856631069,26265.399751221215 6735.755778871106,26141.274983396324 6869.00590423993,26142.337380147866 6957.943207848912,26077.149908115658 7028.380718106615,26006.712427015394 7063.130818017737,25985.399739369845 7092.630756151142,25918.33736371212 7136.255886817795,25861.83741816364 7155.130837360026,25850.400005951444 7170.630829537848,25843.337262257854 7227.0995598488735,25727.21247820938 7246.474622888934,25693.712304210094 7275.662027119986,25661.712373420924 7413.287044577744,25571.27477023009 7428.537126142277,25563.274974510052 7605.53704621338,25259.712512870996 7813.880941822288,24936.649818583428 7863.724419440005,24900.056218790043 7920.912006853359,24770.86865298599 7942.161982035475,24747.1810825925 7959.912043546654,24686.931249097375 8018.287143280009,24574.118548674487 8038.474561448886,24505.30601264406 8055.474599848945,24456.49363216645 8076.787198320009,24351.93108277923 8079.474465591113,24312.80627345274 8091.724454711053,24281.931160626038 8115.912190319948,24253.55610675217 8091.224633484475,24210.930999436336 8055.09944265776,24049.681055146597 8027.224506053353,23758.243725505286 8082.5371813245365,23586.68115013201 7999.662103351067,23482.74373224719 7974.162191386662,23321.556021464326 7989.3496496622465,23261.056063830947 7941.662160808897,23223.868499801705 7927.474636257837,23171.431017683914 7881.474480951183,23061.118653441234 7819.1619783377755,22931.18115094238 7801.912029324427,22854.493512354187 7710.09958857773,22613.368802960882 7673.1620426222,22477.431307171217 7663.912145946619,22390.868786495506 7624.716375066644,22318.93184029175 7615.853577697744,22266.00642886808 7616.416022213387,22262.506377298945 7630.79112536004,22227.256453050628 7660.853508008855,22198.256474963426 7664.165843084433,22192.19394203576 7671.415872311198,22171.068974146772 7750.541125999975,22065.06877017409 7844.291102177791,21967.75650752223 8003.665916044476,21690.318838732528 8030.478586906662,21603.943885468972 8134.0409042755855,21498.943712379063 8350.540973537813,21370.88132945708 8379.541090444407,21367.319021993877 8387.29094089775,21369.25618790315 8397.66601787552,21381.194019998577 8427.228579297756,21380.94400689027 8451.353400346685,21386.818920371043 8484.35354342228,21379.756270692837 8491.103460151098,21379.81894546483 8496.041088026694,21386.19389831232 8501.478537128867,21396.94376372113 8519.728419866624,21387.631275968255 8528.165961413273,21401.818737959526 8531.916076968868,21405.88133050831 8563.853371759971,21399.943756731438 8592.228420862208,21400.00642751586 8601.415985519976,21396.88143479845 8641.978400453321,21375.693686103194 8661.478418800027,21335.318795418054 8678.9785696978,21324.006437668846 8684.478350817786,21325.50644012102 8694.540893893318,21337.568887441572 8701.416057200033,21360.25628067737 8706.228438497848,21363.131264526142 8754.166129235506,21368.50646225972 8760.353601448915,21369.63122130835 8817.853431493371,21302.443846200396 8861.54089417772,21237.381332370373 8866.103364862247,21176.693819807588 8929.603379795539,21084.25632681358 9026.165869822238,20995.318926940417 9075.22844959118,20895.193799229433 9068.290954266653,20849.94381023982 9053.540985200067,20824.13135422601 9012.228547155602,20793.881310951 9011.79105794672,20792.31873992677 9012.85361495996,20791.631466999046 9017.915906871065,20790.756504292287 9014.041127280077,20786.56900214233 9019.791110284372,20787.568874550205 9015.637001697767,20781.255968802237 9016.812571902155,20778.63853613931 9040.875352204523,20769.57583386804 9042.937842942287,20768.63835725681 9012.312724506693,20770.13859301483 9010.25023376893,20767.951032774792 9030.437651937806,20758.13856625258 9033.750278284402,20756.51336312519 9027.875339973347,20755.07586123955 9022.750133502159,20753.01345153983 9031.06271974228,20751.638389864507 9035.687813715522,20751.76364529375 9030.375319919993,20746.326141240286 9035.000122622216,20740.888543504734 9039.500261288813,20748.200881051285 9042.750264346694,20748.45105141952 9045.812688808866,20741.951018688014 9047.687600951154,20742.575941858733 9042.375107155509,20740.638367141924 9042.812596364507,20736.88844335397 9052.625228826633,20735.825951126673 9056.187765786635,20738.826041093365 9061.50025958228,20727.950836658398 9064.437728737808,20726.325821262122 9045.312576311153,20726.263360102115 9045.25024429334,20724.138643716964 9060.937815066638,20716.1383112525 9063.062637822215,20715.51333572428 9050.812648702158,20710.07589343124 9050.687693395514,20709.13858326819 9062.125327386639,20690.638579093073 9061.625214888925,20689.638399536467 9072.06262388439,20712.888493629383 9070.250335031167,20714.263380954195 9082.437700862276,20711.076008198586 9084.250280986751,20710.57595121119 9074.875137733274,20706.01362392182 9073.500338088816,20702.200822706778 9084.875348791109,20689.388525768452 9085.812659226685,20688.388342248545 9072.625068400033,20683.763567746537 9072.125247173339,20681.263401655517 9096.375314800047,20673.57605624377 9097.625159137744,20672.638637626813 9090.687663813333,20670.075911070315 9090.375129911095,20665.701104056243 9072.06262388439,20672.763581169864 9070.437622355508,20671.45098499387 9073.625293395577,20666.013469691483 9075.500205537865,20665.388394852205 9068.625333502168,20662.63853140959 9069.625267226576,20656.8884898123 9082.250122266683,20646.70114002724 9086.187816417754,20645.3884353776 9082.500324151108,20634.76335936736 9081.812633057802,20631.57586973915 9069.125154728863,20630.638326269494 9069.000199422218,20626.45110157939 9072.500113093272,20614.888483729832 9073.68762541339,20614.263307539783 9086.437727031043,20626.51358250736 9088.125351848874,20628.576132783004 9088.062728560042,20616.200972049417 9089.06266228445,20614.63855072848 9096.75018071998,20617.138558450075 9102.750074337797,20614.45110084743 9099.375115973271,20609.700960070862 9098.625092862152,20606.513560378204 9112.687662106684,20599.388486297838 9112.06259430221,20596.63839053727 9093.375222355571,20592.70100817472 9091.750220826689,20591.26344621907 9098.437805537811,20584.638628288325 9099.656483866602,20583.45098748958 9112.625330088871,20586.763598013298 9116.00028845328,20586.826086807567 9120.187601946622,20574.638477426408 9122.750205182216,20571.388574678604 9111.000328559989,20569.138516724728 9112.625330088871,20567.70084729515 9133.00032685334,20568.638577967802 9137.56279753775,20569.57596248648 9142.250223528921,20560.76340781086 9142.812668044447,20557.325878117503 9189.312644577796,20559.388537783212 9204.937592062262,20560.513431888343 9222.750276862273,20565.21692912907 9287.369355404378,20590.345009963356 9327.39583149329,20592.13484233086 9329.628133288912,20591.784292805627 9396.008819511138,20537.995213074355 9402.333771688842,20531.1848664567 9408.342985982286,20528.81776263679 9437.108920915613,20533.946865738755 9487.577757608822,20516.121705716047 9541.821467902257,20487.127996065166 9733.584172968847,20186.47793264784 9734.902757288866,20118.890669201828 10103.379936737801,19890.606550384407 10223.473054746726,19794.037144764014 10462.961987724506,19679.27633729057 10513.124698479987,19660.147739959917 11210.558810480034,19315.59818717876 11224.312632346737,19306.02117114413 11428.819031066705,19235.54487125003 11484.455599813351,19210.740736622865 11649.768266551058,19103.30347994253 11737.393102533395,19074.053437419156 11806.14327924452,18973.55324514377 11871.58082960893,18915.990800428473 11885.955641484448,18692.490897235322 11829.20583455111,18595.928357617966 11745.393154871046,18479.678249568016 11664.643190924406,18421.80322869242 11650.58062167999,18410.55324119525 11631.393137235522,18404.42831055515 11608.955649733289,18390.42850820072 11578.643356471184,18290.42855392179 11576.393287137827,18283.428229084508 11564.330585342228,18267.24099272924 11566.643277964416,18252.678397570366 11530.393131831057,18219.80341021173 11530.33079981336,18213.428376483418 11556.893268791122,18170.11604464372 11562.518296488888,18162.86593682369 11561.205828862243,18108.928557678977 11561.893228684414,18104.115902558005 11577.268265555591,18087.17826279012 11578.143243973354,18082.053421937315 11577.143310248946,17964.4283303872 11558.580602337817,17851.053431342858 11571.580614568877,17775.803392735987 11598.893106657757,17615.92830988908 11599.76808507552,17564.36573610144 11595.830682195468,17516.553288461328 11584.01818228441,17464.178480934504 11595.58077158218,17408.86580045455 11581.893068257814,17320.803560056993 11581.76811295117,17312.240948815634 11606.955782284473,17239.990871663475 11639.705723475527,17180.99090524394 11649.268154053345,17104.178462233896 11675.643335706649,17075.053491481616 11652.143291191176,16984.17841936867 11667.580660079933,16795.61579618042 11673.496667617794,16754.959264136363 11679.674236613304,16747.41881720731 11699.533974782309,16715.95981266656 11767.798311280065,16548.381719899167 11771.09812169776,16540.28134570612 11773.859080560018,16450.236081552262 11774.276763333335,16447.206753767772 11785.084669182288,16429.163084011096 11855.26440450675,16253.956196488383 12011.08512827554,15938.85539798838 12073.180633911143,15813.225404708508 11938.216669324414,15769.05552686347 11881.87959355556,15758.537443522633 11787.327165466711,15715.71957112538 11752.584056062253,15706.925895232045 11597.769091439994,15585.470979157057 11527.739360737825,15539.631105111483 11268.849732862182,15409.054693339778 11215.157981324453,15371.68761307645 11217.353874231085,15338.065657509062 11202.688373786725,15211.900147830522 11166.541920168886,15093.702036696697 11163.50862281779,15051.680682813028 11154.715147973366,15003.953332789628 11116.627954942152,14872.050408071816 11036.112172968897,14698.742810220378 10984.29038196439,14622.08771467422 10993.10278943109,14459.737164254977 11012.960488702265,14372.1879970285 11019.227477928835,14251.881335079357 10992.883462284437,14027.614792943736 10965.193482835522,13920.024968151272 10908.963303564444,13796.442655282364 10819.511906444422,13673.415370101437 10705.712283333392,13572.623084335159 10603.855067048898,13510.614821876436 10932.38150089779,11969.019789919119 11080.07401304003,11897.035646102137 11245.106476968947,11850.976273764485 11548.007461004403,11801.326297769243 11685.516261288874,11764.254920819345 11812.84775767997,11700.220937186714 11854.398164222228,11673.75832416051 11983.07649823113,11630.516537212221 12103.343213822205,11577.17746347664 12211.712087066706,11502.363687342244 12304.427759528837,11408.64735935929 12378.267898906699,11299.254798858288 12436.646202622193,11159.558003340127 12608.268966711104,10858.925370884746 12658.344587404375,10751.343369838702 12689.900317040017,10636.845127117973 12702.033797715536,10518.620555764799 12694.382396897861,10399.970288261109 12667.136605893356,10284.215196116107 12621.03654459559,10174.603189792171 12557.353902675539,10074.21650820299 12477.859317217815,9985.884907547363 12315.327707048833,9833.285775046425 12178.301251724457,9579.772348549486 12102.584161306593,9466.976142944746 12006.861114622188,9370.663903840155 11894.61192763548,9294.376578370728 11304.603844293371,8972.036326727924 11293.343011866651,8930.560805463036 11242.369402337798,8820.691224289163 11173.605535884366,8721.027669200303 11089.017492506748,8634.458428488964 10994.612447600091,8564.978266126687 10994.479045431108,8544.639020291019 11025.077075653338,8491.548522359379 11067.533626622266,8375.40479318289 11089.475661964483,8253.607156610153 11090.223354906637,8129.781663719834 11066.264849662293,7990.024037433708 11018.319585875586,7863.5883797990755 10995.53606829336,7826.507750782686 10996.99504528891,7727.9371045112275 10978.358937057877,7602.356309401082 10937.961964115595,7481.988927798382 10923.18694573336,7452.84536312594 10966.09234548451,7334.700001436497 10986.895510782233,7216.5150923653055 10987.840685537762,7096.451939744795 10966.357693466685,6967.640514416191 10928.518372151164,6855.049400589116 10872.715196328914,6750.213550763008 10784.082562302217,6634.921294196021 10685.265051333328,6545.351162129526 10571.616306657765,6475.678138664029 10447.062371582237,6428.331545402216 10299.871719564522,6403.213453291079 10180.588335244429,6403.38879978608 10030.699347653404,6431.592251934904 9879.378762551096,6497.016642514187 9821.147842017795,6477.433311087989 9697.706853857824,6458.862345960377 9606.153644399928,6461.234630325263 9570.499438959967,6399.521790337902 9445.405487244461,6228.7959030684215 9437.348637039984,6180.622919616209 9403.06719234665,6058.699323300367 9348.053943777784,5944.63247211741 9307.177247315507,5887.96343561283 9314.92913666668,5774.143834407827 9345.857759600018,5652.9203849305995 9362.123503528863,5648.425416744642 9465.101531048866,5601.557745742997 9534.016858480034,5561.647426549149 9574.737142355509,5527.873221350346 9745.204142675597,5491.770559599834 9872.656807848813,5441.525654147183 9987.529473733368,5371.615773704172 10079.759597253382,5295.738508544724 10154.081207777817,5212.735615690683 10213.61964432893,5125.118857996284 10258.374033093314,5035.376380442562 10316.869427795617,4903.790615742946 10361.222444968858,4771.526860030986 10410.206381537813,4660.615504718888 10586.924059902296,4326.002539084679 10627.658324791097,4266.684773365421 10673.279245111138,4182.833820493695 10738.574072631054,4085.4192541251323 10886.56455512005,4007.1777374763988 10947.533715368809,3960.583832056822 11036.627140293342,3869.861378640846 11111.411289342192,3762.333129030747 11175.012666622155,3641.4564635036295 11224.06359554662,3490.756380871673 11241.24160059551,3432.115650715692 11260.787057235582,3307.332515599999 11257.005193128927,3162.1622635961758 11225.62684759996,3023.524167989068 11168.022159955559,2893.576500029747 11145.535156364414,2857.8612063996625 11133.204485146656,2787.3140465553515 11100.365997537716,2683.570738395829 11088.752435795592,2660.935967455771 11091.273678533362,2636.4882355020745 11082.499427582232,2510.4962222758113 11066.96419159996,2440.5153138870155 11050.294163368853,2382.083250281379 10973.327811155563,2221.4714458258604 10872.05983632894,2068.9658451366486 10829.124726924441,2022.4182425890249 10761.959356328916,1951.2954927998726 10653.984281626625,1869.1135175511372 10516.488006000036,1796.8604301131927 9780.729023742235,1573.7264944546987 9651.071436257778,1547.621581845604 8327.381424951112,1408.2356164427256 8325.175337555564,1376.0204179459615 8296.262310711063,1256.1914696993554 8247.758971475509,1142.8669055930004 8181.013905093401,1039.2612933746204 8097.895907013306,948.3185811773656 8000.745049342258,872.6303355236087 7892.305688488857,814.3559751757784 7775.648987048866,775.161383211067 7654.084658657761,756.1687848585207 7531.065722337786,757.9224947587718 7410.086557608891,780.3725164118587 7238.609720346612,847.0860257853419 7138.5152768266635,912.9115272258423 7122.125160133328,903.9660489865128 6999.358464595607,861.1412185039735 6925.069185164502,849.383858711728 6878.8479550845,836.9009137314642 6728.515944133374,827.6454997049077 6615.734022284487,801.9070678465432 6440.182884720016,794.8275279856534 6281.59392031117,820.7187029435663 6187.305092577801,821.9356895730962 6056.728544737773,847.8599304277814 5933.016383173388,897.1315215213472 5828.244999422321,956.7386819027961 5716.56699508438,983.8029296348468 5630.587258337742,960.8919106558678 5533.0728943199865,950.7936395871002 5371.979580897816,960.9774565202315 5249.458426906589,994.397779481289 5132.629584240007,1044.514754808195 5017.854202906696,1115.6906536686365 4940.546772222246,1186.4504316701568 4850.93517599113,1190.7006988274297 4894.74409872885,1077.949854672108 4919.361459226675,961.0475820801585 4924.809102817766,841.6344722856666 4924.2763679555865,727.9168182979702 4907.447014426674,594.8966599141495 4866.840908826656,467.0914098531139 4803.776052933281,348.76031705158675 4718.62556504002,242.00622315644432 4611.978977875529,148.9678352156552 4495.996277786653,80.52304052751424 4376.073262106722,35.35456216723105 4345.095414355492,26.6525660731495 4250.135497982243,11.83852947786363 4198.549927848835,8.052550000000338 4082.5564507288873,14.372556814960262 3969.020427973337,39.01490984243719 3860.8001029955703,81.35363224833418 3736.4943309066366,158.18513203386829 3477.4972239911804,397.8536745093661 3431.3255099999733,436.02492196931416 3345.548206675543,533.5974571231418 3281.6025469421656,635.5774970508428 3235.1148037955645,746.6321246808293 3207.3123936977718,863.76875102966 3199.561960702158,941.641209315545 3205.4363164710594,1080.056386401331 3215.1397222666783,1134.7031216316173 3252.7340845777435,1257.1043207733674 3316.0747742133462,1379.7669915336664 3362.9542770044427,1444.0333063453218 3408.758989395552,1496.285600749754 3522.7858039733037,1591.5244947608226 3583.0582437243793,1627.731260637207 3668.1533901067232,1668.7580567745972 3793.9944522222286,1710.2510741746883 3867.348460115587,1723.1472983787316 3931.137415991143,1728.23539606532 3816.0200823732666,1830.3220177523108 3721.594357217873,1914.3584913347513 3641.1808114044616,2016.2844266723623 3577.7011854488883,2136.535169028015 3536.182818728943,2178.435251275172 3363.9419773422196,2194.113796093654 3159.6292739111013,2249.2576006717645 3120.314664417856,2276.174235747756 3270.568614711032,3013.6887948634467 3272.5148882755093,3050.6061772161993 3272.821014213354,3054.9134745934643 3301.927153804434,3099.383936611681 3305.2569651467275,3105.649365377998 3257.9271572178477,3127.6956440732247 3254.689387546714,3128.211461901061 3241.183728666605,3159.0506011738107 3238.5212194400156,3164.1946779288483 3242.247159493367,3185.2362133169445 3241.880449164404,3188.9248374104864 3232.1021866933224,3206.5642188152196 3230.845060577827,3211.9543224849403 3237.4516719199964,3226.1769063827014 3238.552385448922,3228.0511771845995 3237.5568207910765,3254.2149989664686 3239.378430319928,3261.271413900402 3231.872956328887,3272.531450149989 3229.2054954933483,3273.255621708209 3232.8294906577576,3302.114635596554 3233.560872417853,3306.1974266117104 3224.433018337797,3312.6358462739518 3222.5563585689306,3314.1436803461766 3220.360465662183,3327.8499614303364 3220.8422280800078,3331.1450178915766 3238.7029726133696,3322.8476038242006 3275.499252079964,3332.404860696326 3276.982695848892,3332.31640615801 3303.2300094844322,3349.536846212206 3305.099387475617,3349.910661614129 3328.204177093321,3340.934949378694 3330.1230711733006,3337.5380878380165 3348.332467226639,3364.7587711098968 3348.763548471128,3365.869235473023 3383.713751635609,3384.9870173053714 3384.3169741066886,3385.0689041572405 3375.881762728888,3417.989470373759 3374.541333075591,3421.2689040968326 3353.8858422310805,3459.493728284935 3350.2909741777476,3463.7626799641657 3236.8134969156017,3522.879095919583 3235.936479600008,3523.3803587386283 3213.1966526844553,3523.255224998902 3211.8273871911006,3523.8834394565565 3205.09931579556,3540.3503740123488 3202.8498290044736,3545.3310026039617 3188.087917822275,3555.8284779037713 3185.5060906932704,3557.3462707719664 3176.334545946658,3557.228790334695 3173.9866095200196,3555.6939020526843 3166.0325780177736,3540.259075600341 3165.693247173309,3538.5622291521067 3149.612169128821,3530.0869356934345 3148.207368559997,3530.9464804215604 3106.0438363288777,3571.04567772631 3104.402523617704,3572.9441777794054 3071.447236293323,3619.882842901665 3067.861688915502,3624.2627902063905 3027.377043368855,3617.4195695751478 3026.098071919965,3617.03993118331 3013.8274025510545,3603.8609948127196 3012.561247031066,3603.7362608635813 2989.9961827822044,3622.8791779249805 2988.953140933394,3623.4540778434384 2951.9381168623004,3620.3933857571465 2950.849636720006,3620.289749996773 2947.5710890933187,3605.409800336034 2946.560087066704,3603.81553784063 2935.755967742276,3601.0593768583276 2935.4545021422455,3600.5306155859507 2937.3384436887936,3590.3170347680934 2936.612013537764,3590.1268335053246 2905.9810696800487,3604.3886588021196 2905.7710632089074,3605.520351046849 2812.01089254229,3601.519405622421 2810.564440204391,3601.4048530762448 2696.639279244446,3660.005242625113 2693.6869552621865,3662.655383005018 2654.72682271104,3672.803417135241 2652.645981893271,3674.0053631825504 2649.3359769866584,3712.1384659107207 2649.698900791096,3713.2155574649587 2665.385015208951,3710.0191679894124 2666.93253862227,3709.796695301113 2673.146225235636,3719.713642911149 2674.8280246311115,3721.1974650906996 2693.9426912978306,3722.873571243872 2695.5481776621673,3723.073859984732 2726.3585445245044,3705.999364504045 2728.504338799954,3703.850937908668 2750.9054174133125,3713.0199873196325 2752.115648879997,3714.5787284605685 2767.987302995498,3738.1031022961033 2769.5022040444674,3739.811092986878 2752.3807055910365,3760.613645767946 2752.0291413599407,3761.7319834765294 2756.5872429777883,3795.906905787393 2757.178814604391,3798.856652088558 2789.326989680041,3852.8314687003513 2791.4250154933907,3855.2912109554527 2796.9399427111275,3878.6347938746694 2798.064249200026,3880.6935946424856 2819.7738501955537,3899.0332175529693 2820.1859988177675,3900.050011830499 2809.0833266044283,3922.8072167836726 2808.5616600444555,3925.0069913316183 2810.591237146735,3948.712313144737 2810.1100572711803,3951.606328399015 2769.3950162755573,4005.623534124381 2769.8493992088843,4006.669717284887 2715.323447208946,4027.2425255450435 2714.952076542286,4028.035181642488 2739.7098297155244,4037.8624055160108 2739.8682812000407,4041.5942273210167 2733.9927603465985,4081.688743367129 2732.872240382225,4087.606132191002 2717.1971942666933,4112.085728881917 2716.8179592800807,4113.016807886808 2714.6345910310993,4141.623561678316 2714.640416453338,4143.361026811217 2702.3403287022156,4166.08790615973 2701.784583422217,4167.414028374282 2709.28685343112,4185.936257340807 2708.7782940710676,4187.784130620574 2665.0005373422537,4185.566463480856 2659.1060838666526,4186.0393205080545 2619.10407455112,4173.1945993489135 2617.3995560088442,4172.095327438648 2601.9260695022313,4187.449540173497 2599.6404650934055,4189.286516632979 2577.636097733259,4192.480330238621 2576.2275106400266,4193.348361904536 2561.5684181599427,4210.995094066813 2559.9763302666615,4213.613523190645 2546.561256702269,4254.221438817716 2545.4864663021654,4258.338576448303 2531.1032075645417,4269.288532709332 2529.693164115517,4272.081642637182 2509.645556080017,4260.723644162623 2508.9715547289015,4260.973614336028 2454.8236726311516,4286.457790975204 2449.9891547289226,4289.204658500654 2439.300670035511,4305.742248430768 2436.873507866614,4308.6354735609275 2351.6863198133433,4348.008439964942 2350.345598888911,4348.319626520541 2332.8905950133703,4407.514948507458 2332.3365973599502,4408.815995401565 2251.9207213778063,4469.77857133028 2249.4376351556057,4472.34564090192 2177.659695244489,4486.04159839909 2174.6738750844743,4488.942749883317 2148.8145345689045,4481.269840356232 2147.2515737866997,4481.6454067238155 2117.034234906758,4517.642702790887 2116.853646817828,4518.031631770871 2094.174113022258,4523.875288179588 2093.1567030311344,4524.238473821235 2074.4402039734196,4540.676299944498 2073.218904204412,4541.357684885188 2053.447712453293,4542.996988786421 2051.734164506641,4543.911413927017 2053.1928502310548,4553.245048635559 2054.0392840800123,4554.172487546319 2046.839353484429,4559.660949528137 2045.9728219288882,4560.879385116663 2010.9474708178095,4565.34246729708 2008.9420692177737,4565.645802095569 1970.4066099467236,4589.107772896103 1969.2391953333063,4589.867313343602 1931.0797670667307,4565.1775718985955 1930.097309608922,4564.548431641633 1917.4835228711381,4566.701854019811 1916.2689223377747,4567.098325472711 1904.9766326311292,4600.217658860587 1904.1118487022832,4601.079717464607 1848.2242042578073,4626.697846542207 1847.9271077244557,4627.296411937721 1863.7049725422185,4642.52352966075 1865.3433725421564,4642.336578839146 1866.915071457719,4655.432979725279 1867.0639109955882,4657.70381056585 1851.329445573363,4685.664173657868 1851.3498345510816,4686.867209921977 1871.3988989422578,4705.050505933679 1873.0338036889225,4707.2876107747215 1891.9402115110788,4745.522830022652 1894.6912671555547,4748.577395306063 1910.3529147999143,4760.560647610611 1913.1036791733713,4762.427190145689 1966.689116755595,4757.165782723147 1969.1119098578129,4757.414948514059 1980.5614859644338,4764.635228034378 1981.0732493066243,4765.346852094961 1984.7578288621517,4785.857871088876 1985.7108679377488,4787.328085579422 2007.8034904445303,4802.774649864332 2008.9778955644942,4804.045259171959 2123.1579187466778,4809.403553468153 2131.4573977866457,4810.334129370203 2164.9218270133497,4838.3136949014515 2166.681687066659,4838.412173880068 2226.8023745688624,4812.5490324536 2229.1039988889606,4811.1799731188 2241.2459264267018,4820.6502800747185 2247.050959671127,4823.238400944429 2275.2902764355313,4821.021409671674 2283.5341226933306,4824.042929462776 2286.5738280089354,4839.126507496789 2293.143156648941,4854.391741241248 2315.2386918667253,4839.8650968583315 2318.857152880031,4839.94547264235 2334.2665597421365,4843.886392227585 2353.7391986044604,4847.227350858426 2353.8117251110743,4860.526347451181 2355.352258017847,4860.999515704265 2398.613299795521,4851.255781634514 2400.6970533245258,4850.509981425515 2431.7494664800834,4811.27085771945 2434.0123517422253,4810.881972807903 2464.3802777867313,4834.071824956547 2465.882654177818,4835.291604463338 2476.34977282663,4863.928289994343 2483.2770736622406,4875.487780870324 2578.954973324413,4893.320777705965 2583.7463831022396,4894.496500156856 2586.3121903199717,4929.302968936892 2586.5953058399973,4931.280590876508 2592.67762918221,4934.863366497077 2593.595715724492,4935.117803720328 2563.5202258755235,4968.168797748782 2561.6464788177764,4968.862897907886 2549.6641678488595,4999.203678286147 2547.9182888088762,5000.390537156061 2558.315502391175,5020.57577910144 2566.377886746639,5029.325909691084 2571.06531273781,5057.2634315507385 2565.4120317422567,5071.606654106152 2565.5556284000413,5072.5280422465075 2560.843735635608,5067.784326210887 2559.837102675556,5068.077351481632 2562.158242159967,5076.222246614321 2561.931924506651,5076.678411651032 2549.190269751103,5086.200914055844 2547.2527343199836,5085.138131364576 2552.190362195579,5091.138206880809 2553.502829822224,5092.7008751128815 2549.1279377334067,5101.763094614878 2547.716729200074,5104.263988662489 2498.218407848828,5149.709544843216 2497.828687102279,5150.221647152655 2496.277377164435,5164.086390861055 2496.74049823112,5165.5141263115 2521.127754551104,5215.200813493961 2522.8153793689344,5217.513408304985 2521.3153331466965,5226.950883404446 2519.8779102132903,5231.388216916508 2499.190379546584,5252.825847846958 2496.6903996000547,5256.263179143112 2498.4403564355816,5266.4509253621 2498.0028672267,5273.013242528403 2503.8565427467474,5293.312692657964 2505.9190334845116,5295.937676824957 2538.6689746755656,5321.0003092337065 2539.4189977866845,5321.812813185716 2517.794156684402,5329.000190543862 2516.419065768925,5329.125243360446 2513.543928631094,5346.687746008662 2509.981391671092,5350.562668707433 2485.4814134310946,5346.562700983057 2483.606501288923,5347.187564155705 2444.6376306044185,5382.73092752559 2436.793990853337,5383.937491058641 2387.981612968935,5463.125048191672 2384.634325359926,5467.8751179279425 2415.0750691822977,5475.168589755813 2417.9499150488773,5476.23098614117 2426.8249458044083,5497.355985339826 2430.3874827644104,5503.605910639024 2433.5125305155307,5512.793623837388 2435.0125767377685,5517.168310646353 2428.480530799927,5571.443895011827 2428.3386817689534,5572.6904575212175 2433.688166995511,5580.396489442479 2433.4388389244923,5583.995574845096 2410.5597844178337,5607.408912159306 2408.836624524418,5608.009728554847 2413.9056156711667,5624.418310064917 2413.1040375733064,5626.281663269539 2386.7527401511106,5652.138075714734 2384.565294106702,5655.513145070676 2367.252721804405,5703.138154071326 2365.3154776444208,5705.325836821321 2365.94025417776,5722.950845745661 2366.4403666755898,5724.950697964618 2354.5652434754666,5739.013146545716 2353.752888346651,5744.138237751533 2295.5027439199403,5791.2633561608745 2294.502810195532,5793.388294139331 2300.760187475571,5838.665631790565 2301.1976766844527,5840.540921503656 2316.9475794755635,5851.665773349036 2319.260272097752,5851.165765077902 2347.967370266655,5898.31525456455 2348.967303991063,5901.1275913950885 2384.5102438666872,5924.853338964553 2386.4305943022264,5925.222657326587 2387.1995500356206,5929.772735410406 2392.699331155607,5954.272869384651 2388.6995962578585,5974.77294890074 2385.6995038132663,5994.772871077272 2400.51704777775,6058.943015942619 2408.1993233333123,6072.272611990549 2395.699423600083,6097.272609796586 2337.5751082933057,6117.480854893023 2335.44999426671,6120.355890205108 2332.887391031116,6139.230852069952 2308.262457484474,6171.168596228155 2315.3249081156464,6195.731093241462 2293.6199674578165,6240.088887359401 2266.7507900000564,6272.754445171893 2265.1884117600057,6276.941972766574 2270.6057631554795,6362.108093954659 2274.3686946399757,6382.898450627494 2250.1521231911393,6555.903922312289 2247.4645646489007,6576.966526387994 2241.0895138400156,6584.84139183371 2246.4646309244927,6590.466470561783 2191.339534248902,6614.59155321055 2187.7769972889,6617.029097750237 2172.9020729155527,6644.216286923074 2166.1521561866175,6646.341317672202 2161.8395961154965,6710.153913470545 2167.7145344266683,6714.091507757934 2157.714614639968,6721.341458883289 2146.777093146673,6732.341552782142 2145.1520916177906,6751.716378692981 2191.2772022312056,6753.778753468105 2182.4595518844217,6784.54538079675 2179.8969486488277,6789.4826185410275 2139.896978231125,6828.920274839191 2138.7094659111244,6830.295419315553 2188.021956293356,6855.045446278564 2188.8969347111197,6858.420250596224 2180.522016453302,6882.232909320541 2178.5844810221824,6887.1702505607755 2193.4428029422197,7051.1519964416875 2196.2925994932666,7069.834860822746 2193.094733964397,7076.886821887201 2193.21036859553,7084.067200045603 2182.7196569866283,7089.449311934215 2182.0841034222176,7092.115905289749 2184.969726319985,7095.449471103297 2187.2669815734043,7103.729160215858 2171.376103564493,7156.625931205497 2170.645013075533,7159.549729847269 2173.721418551031,7203.4085006151945 2173.4371379466975,7206.656751082955 2154.2822758666953,7260.574392099261 2152.3307594222497,7273.381503408345 2156.969834408934,7295.636970998465 2164.4697742488715,7339.511806747214 2172.7823604888763,7351.699221600582 2176.3137314400883,7358.677835509508 2174.126285395563,7376.365294276249 2170.1291719377987,7389.9160514097675 2206.93855860443,7411.990227762122 2216.1887465511463,7418.927904476797 2294.1888199377354,7520.177943770868 2297.001333786735,7530.1778933567475 2305.751117964486,7528.052982633621 2325.8135808266015,7551.427925531381 2328.3450180534055,7553.427868383973 2372.0013147289646,7554.802753747303 2381.3138346933774,7559.240425509146 2431.126146302304,7601.92785028075 2437.4385738221245,7608.303040630162 2439.6886431555977,7660.677772249714 2437.376241804428,7666.740509201052 2449.813809519961,7691.678003399436 2448.6886292177733,7717.052724025831 2439.8762217511903,7777.990253931763 2440.0011770577185,7783.084129673582 2423.563291902283,7811.833662583005 2422.5531636889573,7817.318172163832 2426.756497093338,7833.496649039247 2429.966887279974,7849.819655567851 2428.212561377768,7892.657932800044 2429.5885261066505,7922.355945414551 2456.2916790310774,8077.7338220804595 2458.230962088892,8093.344619435993 2453.863060506621,8108.161438714807 2448.863100613329,8124.224030162361 2480.987974000025,8210.536487208366 2488.1142130044536,8233.597204208818 2522.3642004177455,8260.659354434676 2522.8363508889233,8261.342242966908 2522.7393576088143,8323.909627812485 2520.044226017759,8335.226637953172 2495.6767761333394,8331.034489370744 2485.176743848926,8331.284475033732 2437.0441927377615,8347.66432100474 2429.356674302231,8348.164263207385 2424.481960986719,8368.726583794843 2419.2944224978346,8379.914177479142 2391.919307120006,8405.414415208717 2388.9818379644785,8411.28911113312 2362.6069475823097,8489.539378786729 2359.0444106223076,8495.851638234839 2325.6705667110873,8519.353043734016 2319.2317275288297,8523.101782661026 2342.106704240061,8525.60174875064 2345.544285893302,8526.03919591118 2358.356719528885,8547.351788917884 2361.1692333777683,8550.539107529657 2313.856901715604,8661.664388124926 2311.169343173249,8673.101727659676 2312.2088897689027,8682.231841047273 2318.7088958844324,8694.044478507167 2322.5839667466716,8763.107164427325 2324.8340360800285,8783.794501656761 2322.896500648909,8822.60702001831 2323.505839813246,8838.732260619443 2309.851923937771,8842.357968324948 2307.7090423733243,8843.732055375505 2307.5837957955446,8867.169424536209 2307.833997679969,8877.231837559004 2325.1462787111304,8904.294629480493 2331.083840311134,8909.607018366842 2337.458891120019,8924.232001207223 2344.1464758311413,8936.66963136776 2345.6619594222648,8965.005798943435 2346.2456667289152,8967.438062610723 2362.334026551085,8986.6695671962 2372.0525784444544,9000.763293703822 2438.271317928891,9013.169443036524 2445.3963918488953,9015.794678795071 2456.3027473334005,9030.325808624308 2461.206587759989,9034.357604745754 2492.3944419822437,9047.232503821295 2502.7068956710646,9050.794949062089 2536.8520254844116,9077.95171059957 2544.5191549422234,9082.263567821858 2548.550638391149,9093.826575602092 2551.8519051644034,9098.2954933894 2584.344071422216,9122.836393117126 2591.008354444384,9127.29523310977 2627.938909893368,9123.588573073132 2630.6888004534194,9123.744786588279 2676.5622528266176,9150.954609561108 2680.9994769333643,9154.235835114996 2715.5622895200286,9156.141931552651 2724.7565534133246,9158.406407721086 2787.048667048897,9144.8442485802 2788.380941111107,9145.927675566149 2737.7044281154886,9199.439211127094 2724.193526355528,9216.17771986049 2713.881072666707,9237.11500258666 2706.8186220355346,9253.30269154875 2635.269329946699,9357.715366912751 2631.3185285955915,9361.92755357395 2618.8218328443836,9394.31836290149 2618.125112346701,9395.74862197767 2617.5684932532968,9445.302703548085 2613.0686458577184,9462.302734216246 2578.0686353333076,9524.927418777173 2564.934929662246,9544.47627354382 2440.8665435289513,9648.125873105113 2440.6789649333587,9648.500748032566 2324.282659866709,9954.632983129683 2319.632225306683,9967.090486132285 2324.9234563110876,9998.471925045633 2326.4904948889525,10000.07379891337 2307.125335066674,10152.092928925682 2299.3868441866725,10164.104161722447 2306.8244520087974,10162.85430299052 2320.2325350666433,10180.457733266441 2318.670156826709,10184.207777505777 2306.6700783200577,10185.207733770578 2303.1075413600556,10180.582818435076 2298.1699134844603,10187.895232480754 2296.232669324476,10188.332663813526 2278.357652506653,10178.70760133965 2276.7326509777704,10178.582870723832 2269.295043155529,10184.770297745803 2268.7937655733913,10188.75694670462 2247.3751444178415,10192.436881940615 2234.4188228533385,10194.507091589076 2207.168662782271,10212.882133728046 2204.231193626627,10212.819598083363 2188.231380222227,10234.81959147039 2185.606153697685,10240.319419148298 2170.2937401155723,10239.319651990467 2162.231355759992,10243.194352362341 2127.9199101421764,10269.395368683596 2114.607655280015,10280.270349429375 2133.3133773066584,10296.66784415974 2137.0972803111435,10300.765564111796 2132.7188929689364,10308.458934596776 2131.4751653244966,10310.324081938576 2143.7694276533803,10321.786075715012 2145.941727599922,10323.790013607162 2146.6128162400346,10349.488355272078 2147.219242693369,10351.924316687313 2158.3661881156513,10373.33390516186 2158.878825271131,10376.403906929634 2160.7971368089566,10439.832254440851 2161.6785231911126,10446.213313514694 2177.3378406666234,10464.451090268944 2183.0470457154806,10474.610228145997 2190.7066021244755,10500.338597287926 2192.2378143555034,10506.86031726146 2188.4209977155333,10528.199979889825 2188.883244968929,10530.102410656204 2202.7690126489397,10550.34797846809 2203.2327162577785,10551.681354842243 2194.331762373309,10565.100311713039 2194.4561351377997,10566.424393717178 2212.523973431067,10582.388496233478 2213.136516577775,10583.62129960952 2210.421578551155,10597.089887666494 2210.612652400021,10598.863415456646 2220.822287386727,10610.679207492132 2221.069285288897,10611.807926130983 2215.2659996711664,10618.469796598401 2214.7189925245257,10620.62285227373 2223.4003279910903,10630.657344341082 2226.5346964177224,10634.444538413292 2221.8376584800208,10647.097966419802 2222.053490373284,10650.422664513499 2231.3829040622586,10690.225989647712 2233.0722765066675,10709.160449031544 2228.081054746617,10734.61032154828 2221.3876446133727,10755.33221928028 2223.0126461421387,10803.616497291987 2222.777590355581,10814.932919824416 2259.6956211466822,10902.326677092853 2261.7249069778263,10905.363832832641 2268.2563703733977,10909.82628194421 2272.320767457808,10916.888999304072 2336.7729476534078,10941.264256696602 2344.7062989066835,10948.21386391871 2324.675002053358,10959.414123165458 2317.4625468000086,10964.370141966072 2261.3209139467,10952.958839650244 2261.0549834222547,10953.056658777561 2242.414506124427,11000.138954795817 2240.601925999952,11003.295223349858 2182.6331494666883,11074.388899866353 2171.2540609688513,11091.5896382235 2106.441578408914,11101.995889049642 2101.2540399200298,11107.308333248111 2094.6815072977697,11122.390729449959 2091.6916093422114,11135.558278591292 2094.1813948000563,11153.89056049029 2103.4810988355675,11171.726945747017 2128.8790659111473,11191.370789479792 2146.6914594400223,11199.808501843516 2202.2540453243782,11203.808601682693 2206.9414713155493,11204.37093429271 2218.066571404437,11215.308584999271 2218.3791053066743,11224.558598663578 2198.9414189777817,11244.558282365011 2198.0041085422054,11244.87092151351 2200.753999102257,11257.308590963636 2197.9414852533737,11262.746033296957 2173.6768540711855,11262.991030931975 2172.676920346661,11261.740903576349 2104.7393900354873,11305.928311262898 2103.329929128966,11307.118072290417 2108.3298890221413,11336.992910221896 2110.704913662259,11345.492979717186 2129.7048195111347,11365.930720166514 2128.9547964000158,11367.055471322885 2095.705033982267,11370.742911953166 2092.3297843467226,11371.49320613643 2081.2049755288535,11363.180405855332 2075.5173245422557,11363.930719352596 2062.9548015199616,11369.680463798904 2061.9548677955536,11370.18054397175 2066.829872382201,11384.430524661475 2066.51733848008,11385.680483788055 2060.70502345774,11380.868182757382 2045.2050312800347,11395.930514273387 2042.5798047554927,11398.492966028432 2022.085386835599,11401.581962890785 2015.0174020533232,11406.055624918 2011.079999173271,11442.868213001326 2009.330042337744,11448.430658152014 1995.8299176089713,11453.868102187967 1995.5800069955658,11457.305726392173 2047.9549218399698,11486.555395176612 2047.7050112266807,11496.305581554574 2002.954991528859,11496.930677718927 2000.0798543911442,11497.305664027728 2000.0175223733313,11508.617997889269 1951.242135919958,11516.13926691455 1948.867111280073,11518.01442495126 1924.179554444483,11507.95189184478 1917.8045036354815,11506.07702339677 1898.4920638843687,11508.639222698614 1895.616926746654,11509.514391002747 1899.4296655910803,11536.264489801113 1899.929486817775,11544.264321154136 1870.1170147822486,11527.38932835815 1867.7419901422472,11534.951855760512 1873.9294623555397,11543.952000387457 1875.991953093304,11548.764462276107 1868.5546365421978,11550.889475512296 1868.4920132533662,11552.451746590705 1886.1360520799426,11579.996155212088 1885.8325475821985,11585.991001889262 1870.2055612000186,11588.070478900896 1861.7053963644212,11588.533054442065 1858.5879216622343,11592.446527588916 1855.9629864089438,11605.321437458137 1845.7131560088383,11604.63397882341 1840.775528133243,11608.321623936681 1831.6505867645392,11631.883906397015 1830.7129850577112,11635.508977511643 1835.4004110488822,11651.57162124155 1834.7130112267114,11653.258876348882 1801.3251863022815,11657.81675038211 1794.150596293366,11658.821587526043 1784.3379638311235,11673.38391620454 1783.338030106599,11674.196370258207 1770.900462391066,11672.634038215074 1766.4629470134169,11673.759031257221 1761.6505657156013,11681.82159129953 1750.9006228177823,11686.696495839897 1735.2130520444844,11723.758898888169 1737.150587475604,11728.63381625052 1705.5255353156026,11723.446415029328 1691.4629660710707,11730.32133682425 1687.0880739822533,11729.821515022755 1645.3509626578089,11716.706368570602 1642.3100922577796,11716.337671172201 1647.5162720978042,11728.546506062536 1647.6083137688474,11732.094036021655 1642.9092369333157,11732.831037433563 1638.900472631074,11731.821504097235 1614.0227157600239,11758.722829917191 1607.065996542202,11760.888387968218 1607.7568916177624,11780.606710526547 1610.152596506734,11783.048480124715 1534.3306484889254,11794.101749371948 1525.5636793154772,11795.517482195959 1486.4555810399834,11837.376773208125 1452.8175542311292,11870.231737396134 1443.8175681689536,11895.187982913958 1433.0976261956166,11920.270347440477 1394.6597427465967,11926.30172311041 1392.6461855554735,11925.576862413065 1338.1659631200382,11950.226425181063 1326.636870000024,11956.57684297194 1266.3306428000578,11958.701742281475 1264.4784498044537,11958.038772513835 1261.617876222219,11979.758116241406 1256.461795013376,11986.064104898229 1240.103426871101,11991.288914393263 1229.9785517777564,11991.476446392691 1202.1659471911626,12024.538841607726 1200.5409456621637,12025.6014016505 1202.9785935911132,12039.226479505167 1203.416082799995,12041.53899022597 1212.2284902666943,12044.351478851786 1216.4160950310543,12045.101471293405 1175.4651244354682,12067.30553969337 1174.7739380888888,12069.701155948256 1133.6613120266484,12069.288765323501 1129.4110839733403,12067.78890141371 1120.3487658933518,12074.976386241535 1117.1610948532834,12076.35122831705 1083.6611305511105,12068.288856896841 1079.4738170577693,12068.91380006032 1055.723861928891,12088.788774265246 1037.9111771288808,12101.72640135754 994.4491582844421,12106.63920433136 982.4484972355203,12106.682626988426 970.2995791911162,12155.140098951328 970.3619112089291,12158.515196029482 976.1118942133398,12184.014958048741 976.1118942133398,12187.390078267119 986.9244603999905,12194.515009410192 986.5493032089216,12198.14023041368 978.2993402577486,12203.827488599498 975.6744050044581,12210.077523255291 967.424442053285,12252.265153137654 962.0962196177352,12255.483533622093 967.393276044495,12280.733955006966 967.3519155466711,12286.639075462044 956.2993419643972,12341.827569812747 949.2188325244715,12375.808045207792 827.4456627466498,12733.013930368448 829.092800880062,12759.038792653162 816.881550817845,12770.009146322125 807.8506900177817,12798.213041994 753.6958174133688,12825.139038044123 745.5708097688403,12830.82659708817 668.0874513333911,12896.14788568524 659.2581501422464,12904.139165231121 597.9455812533633,12930.639085689072 592.858240026726,12934.258832884872 393.44559049778763,12826.388901691163 385.3467972533326,12827.519374000003 262.5620429066257,13051.641903445277 258.7918296444477,13055.56175698559 249.03395615108457,13111.73044510655 244.04593837328866,13130.981165873622 197.46877499562834,13150.010421128398 195.02996198225446,13151.320834200225 172.5942221067162,13166.823022697681 159.58430665775813,13178.639785859945 159.1249721155982,13187.655147450489 142.0372611110579,13195.738138460882 141.1986915822854,13204.055862839428 154.7072631732808,13208.645495477635 169.17935960004252,13198.125005843736 163.9233723999714,13208.982794985794 171.27447270227276,13213.58571682129 170.11841766219732,13215.24510070138 125.64568806216266,13239.506642693748 115.15410263997182,13252.8664580205 101.04376493333984,13251.379953672273 88.87329282667633,13264.530705521385 84.61956952009496,13267.86788545407 52.786549786666,13277.089068234469 41.225999386610056,13290.14655962398 32.168632915570925,13319.365783510359 52.86635807107814,13368.47175971754 119.91988055999536,13482.725751979138 60.36484155557264,13621.33896708888 64.67740162669361,13751.901253995988 8.052550000000338,13867.401570673952" stroke="#009edd" stroke-width="5.4189329292759565px" fill="none" stroke-linejoin="round" vector-effect="non-scaling-stroke"></polygon></svg>