<svg viewBox="0 0 60.6404172231094 56.48557470102387" width="60.6404172231094" height="56.48557470102387" xmlns="http://www.w3.org/2000/svg">
  <title>Olomoucký kraj</title>
  <desc>Geojson of Olomoucký kraj</desc>
  <!-- Generated from maps/2-geojsons/world/europe/czechia/olomoucky-kraj/okres-prerov/okres-prerov.geojson -->
  <metadata>
    <collboard>
      <support-module name="@collboard/map-svg-geojson-import" version="1.1.4"></support-module>
    </collboard>
  </metadata>
  <polygon points="2.5272351424964654,36.74460192214738 3.3223543033846,37.832350420090194 3.3265267620530725,37.83136586639431 2.852635946051851,38.867712390236385 2.751615842940919,39.02723364461982 3.9698863922732928,40.918942981441624 4.005785556719457,41.03433823795186 3.130413922940898,41.97168958777457 3.115384333606744,41.99275207851443 3.4550792669409933,43.245590370851104 3.4526762802734083,43.37452785935294 2.9608650091626263,44.5222244223578 2.9568527496068784,44.530694689598576 4.050750534498184,44.79852943399147 4.060457144272914,44.80111061406479 3.624941297163423,45.628824769749016 3.6330095069393793,45.6668661694419 4.616988856275384,46.0217278052498 4.640108500717725,46.029045105355735 4.946991743385843,47.92883431755163 4.885154886497003,48.06999080033257 6.1078309113827345,49.01131368145562 6.1083260722747585,49.01217341642169 7.69490165983134,48.193633757230245 7.73180570960667,48.18480061428546 8.991837254495294,46.37528191780712 9.039620280274358,46.37101469344617 9.266229204716911,44.920994478612386 9.27332893805269,44.85122549359349 12.288188827829254,43.61821100999933 12.29322781805222,43.608062883459034 10.539622811830306,39.21783427557949 10.537642168273852,39.199210737680374 12.1554201736084,36.25447743719834 12.157357126494572,36.236672014437325 13.226096369162953,35.759921834376115 13.228572173605608,35.7527587386152 14.127303750495594,36.522670932311854 14.38977543049532,36.61839599734795 13.771457834049762,37.28572815998032 13.723871416272415,37.44478065100248 13.598420948718378,39.33647535659239 13.600649172716476,39.42289035556297 14.608090410052501,39.281288054355365 14.681396066938579,39.31359070142772 14.719232184273825,38.55597205572977 14.734567608273757,38.53265905657882 17.597638840274705,40.045170213556965 17.6022336420514,40.04793256346585 19.04888258783012,39.42210741447908 19.07377898605173,39.426189891758085 20.76244509805092,42.05180264412466 20.808640696274054,42.263952388276635 23.794679309608,39.07719983658736 23.812381311386527,39.051898007027745 23.471230022495547,37.92983155085658 23.376166413604917,37.86225615457934 23.744595242052856,37.45629401528114 23.769571739827917,37.428142734055115 23.045289713161583,37.059678844542766 23.044168319384156,37.05493441713025 24.802732216272673,37.60247472081665 24.805397346941575,37.6040858757011 26.01631330071814,36.56830672779598 26.033767722052108,36.54706677008635 28.49237988916266,36.39910099288664 28.619570701606975,36.34368274372519 29.389283739830535,36.72618261777807 29.399696682052856,36.723385026657894 29.33728456471854,37.492982213431794 29.34058321005123,37.4977262626444 32.31206554960791,37.098920920814095 32.333706993161286,37.08513531317713 33.669702043829425,35.51671831650002 33.669716607386185,35.51115547950304 31.70312688293907,32.61454760864709 31.69272122249513,32.61451401242358 31.713700024274114,31.71080204964656 31.792437887383677,31.631299728147685 33.51967557627341,31.40119797608914 33.526717055385056,31.391755343155644 34.68152691138366,32.79511313788226 34.6926680313858,32.80450856450753 35.41113191760651,30.394071517954405 35.383701460718115,30.339589742812503 36.56921857360849,30.223364630195835 36.71017194605065,30.117220518196525 38.70056580205255,32.92599815783161 38.74057188916177,32.96128327576863 42.697235071385336,33.01622055493336 42.74554238516121,32.986277230389355 43.34781822516216,31.041862420298102 43.35688403849472,31.03761688007199 42.95740570960898,30.73903178768506 42.9442111282724,30.705648037546606 44.59777178960776,29.301565511114138 44.60030584827455,29.301150907584642 43.58369685271737,27.37345500845532 43.602949873162835,27.29616539166437 45.1332737273855,27.051958919722352 45.19862768294097,27.004439123940944 45.607841748717874,25.717358207705374 45.606429083828516,25.686029495511146 47.3729301184967,25.543332460992502 47.398845965607144,25.53973303000076 47.73273732205253,24.008695484226163 47.73171787316078,23.95398203048372 47.27608247405133,23.53983351081825 47.27641743583063,23.53471843192802 47.67857545893912,23.34377450858429 47.68678202249558,23.32296568381699 50.77512233183061,24.833750375118512 50.87545066605071,25.032761543040223 51.86660984827304,24.744503644390903 51.879476749605786,24.739311184978405 53.160188543386,21.47330105362035 53.16765236560587,21.452507573434385 52.6143173540504,21.42551969554898 52.60462530782952,21.420144547249773 52.02608078160538,18.544997992085523 52.01261677449493,18.54115818710398 50.65295594604959,18.35752928529383 50.62777555849735,18.359718721458744 48.89541877982829,20.71795226160303 48.863262449164,20.716212689099308 47.777272674938835,18.92997531102429 47.69852753005089,18.919646730387292 49.38026138960541,17.452880478018603 49.41712903049756,17.452453748133674 47.38338675138348,14.372271559780172 47.35501694516261,14.070328137937583 43.66906113360583,10.800853010469115 43.6615827478292,10.794264387088885 42.94735685627366,11.053564582823135 42.94128385360509,11.048572751166473 42.12244066071853,9.641875404797435 42.10995969360793,9.626311253561113 42.58451315138355,8.934212837843921 42.58414906249655,8.927025864798457 40.12878456827585,5.84259485239873 40.095776269607995,5.810206991678394 39.077936653606415,7.7260389979374 39.07353117805306,7.734172520997351 36.55338070694106,6.150202451423508 36.54383429627324,6.148064393526699 36.039032333605974,2.5313677034542765 36.041144049164544,2.527235142496471 34.737108721161896,2.627766965669986 34.72127813627285,2.610572641683217 33.2853261220529,4.929865730568242 33.280083242052754,4.936438905905931 33.812439451829235,6.09667198210064 33.814507476717516,6.125716012042364 33.45287982871796,8.441574043033876 33.46595061982789,8.453362169090367 32.345969506940854,9.614109557814487 32.26600830516236,9.597971789413538 32.26322666605102,11.231738513082206 32.26450825894117,11.242553780822897 30.938940714052116,10.841542643718828 30.872836735384592,10.769348975113651 29.9747386731613,12.083740788324036 29.97199344294186,12.092857024284427 31.34135359938646,12.965236451249627 31.347222712274927,12.978217406014853 30.954800426051772,13.750613129581149 30.947030769163213,13.845803672929293 32.34253250782768,16.150469692483426 32.34353739316266,16.154827862969075 31.703410872275526,17.065586977699247 31.692138680274184,17.08129846248758 32.01826766160648,18.010958583911822 32.02302994427428,18.06493415022106 31.183644856273716,16.41952405943285 31.181351096273104,16.41613203934376 31.412816966496578,18.25880164711544 31.413450481163274,18.28206618419045 29.758302392274892,17.81708232017391 29.647925204716557,17.82148408138583 29.22772293627477,18.80497572443838 29.21553324027318,18.80635664077982 28.762817834052658,18.116955448468623 28.761994993162627,18.115001711246265 25.37483236916287,20.289832433516683 25.358746922050887,20.312269009720882 22.780924770940146,19.004565048211777 22.744632390496374,18.95724491572601 23.66388401716231,17.669441608051244 23.649553478497367,17.622997069138915 22.098425585165206,19.273614056454797 22.073368987830875,19.292024671687802 20.323069908717116,18.274992517825563 20.249837069606112,18.248819872893915 19.060118370939563,20.213150055195555 19.005119103385187,20.204642195951426 19.822971974496433,22.399310871226596 19.82699879760603,22.399467945708427 19.072410011829742,23.751297465820798 19.06440733805048,23.759283850504843 17.305588578939023,22.75620614274795 17.30356424471811,22.754702813181037 13.943642751383415,24.294446079189772 13.75683602427289,24.339678931649367 12.612679409162775,23.374331367475506 12.598108571828744,23.351772704323054 12.281941062494116,23.820022617571347 12.28134395671932,23.83612977519352 12.770504660717961,24.70212271430774 12.797410829606633,24.73830185104435 12.360365809162431,25.13027953841211 12.35695793716277,25.128361940444854 12.892299675830692,25.50427682656428 12.968474353162856,25.543040918384037 8.784677958497014,27.626345304053217 8.617044152272683,27.652674996551475 8.9804849629405,29.1822704573393 9.065324955829238,29.755660838265438 9.74854503760853,29.656185733429272 10.775297549608332,31.901757487583208 10.780147213607961,31.91466009659617 9.741758420716906,33.496220892417305 9.736661176272719,33.50600701202039 9.704512127383897,32.4893442584651 9.696771597608858,32.47966831722716 8.48798920471727,32.427133482215694 8.466697286497038,32.42632714529446 7.884985186939412,31.30544914965995 7.795703309605415,31.211591724621947 4.131956920274933,32.590447865414724 3.964519722052319,32.37809230332769 3.4809514233840675,32.76264895958285 3.4771066447194245,32.767923421753046 5.520227853607321,34.324183626938435 5.541905706049693,34.41974549596471 4.641470193164241,36.15967492740438 4.594633798496034,36.215688176898226 2.929160148717165,35.846057329495494 2.8940911069394133,35.83871527133434 2.5272351424964654,36.74460192214738" stroke="#009edd" fill="none" stroke-width="5px" vector-effect="non-scaling-stroke" stroke-linejoin="round"></polygon>
</svg>