<svg width="325.73788444441743" height="250.48172984912526" xmlns="http://www.w3.org/2000/svg"><polygon points="5,118.52461868256796 6.5984958577901125,141.1896935145487 5.800704284454696,142.61556060018484 28.811413333402015,136.28623922052793 30.248836266691796,136.91922450682614 28.030806755530648,145.91784034384182 27.95886279118713,146.19276602915488 32.92561777785886,146.6810727281263 33.24921998230275,146.71476450253977 37.95703495119233,163.48094588471577 37.99752163561061,165.46051405137405 55.56204344891012,163.20873701921664 59.07710321783088,162.82198423799127 59.36895687109791,169.19366056186846 61.97379441780504,170.6004801748204 77.71262890670914,166.43434542790055 79.73317660449538,165.52474752726266 80.52485148445703,173.7002127300948 80.32067043567076,174.243705735018 75.34692494233605,176.97462539805565 75.14361770672258,178.68817028432386 79.82696590234991,179.24243069149088 83.6455301688984,180.0311489198357 84.85372273775283,191.8597853363026 84.96207559108734,193.0814185946947 90.35088241787162,190.899091753643 92.31987512891646,190.0111538291676 108.7268855466973,199.31748083786806 110.19139669334982,199.60491479258053 108.21453966223635,205.54977288888767 107.98210531566292,206.23106120631564 113.67063011555001,206.6981264631031 113.59664725337643,208.25784775108332 106.70662912004627,217.52298324066214 105.16813511122018,219.6637302772724 109.85993016895372,223.21138754900312 110.22110634669662,223.52573415910592 137.32883484452032,211.24432602152228 142.63754211564083,208.68269360787235 149.52930787554942,225.26361371361418 150.24816497787833,225.73647623183206 169.6479860622203,228.1133471193025 170.70442638231907,228.26423017523484 179.85033927112818,236.36640798550798 179.49207580450457,237.00718708196655 194.4875864178175,235.3291232084157 195.2358619022416,235.13289172685472 204.27982990222517,245.0403414661996 204.7318826667033,245.48172984912526 207.28196124453098,243.87871794600505 209.042112568859,243.17554432112956 207.63847708445974,233.0565094082849 207.86304711119737,232.73633884516312 215.57241088012233,233.55764500319492 216.05009550228715,232.77450787089765 213.67332323559094,224.40590226999484 214.22906851558946,223.1709715235629 231.0045368890278,230.30338652984938 231.55329166224692,229.87364297790918 213.23029987560585,208.8430210587103 212.59678520902526,207.44003961409908 212.22395818668883,180.9600002336083 212.3422142578056,179.6956296102726 222.70010623999406,180.1753277424723 223.63217379560228,180.0738186747185 214.22819470218383,172.86565638554748 213.7647823644802,172.4735305905342 214.12391964450944,147.72506610618439 213.8839122490026,145.6707663128036 195.36518627556507,142.8698257789947 191.03806264896411,142.11646325187758 193.99271680007223,129.6804412548663 193.7349418667145,128.73205443512416 208.57287480891682,129.23073299962562 211.32655189337675,135.4111082201125 223.21449102228507,132.20121640199795 224.03412792889867,131.9051582319662 219.45155953790527,118.31255775870522 221.98416184901726,115.63257522531785 226.92120718222577,126.94758454838302 228.3149394489592,129.1844592706766 235.6724477155367,134.32752228388563 236.15508394665085,134.94523880368797 240.7126030223444,129.85520275542513 241.8934161067009,129.1593007343472 247.3844590933295,143.77996691700537 247.5300946489442,144.05130145093426 256.1648267378332,139.19058888294967 257.11291420448106,138.6842958952766 268.10199068451766,142.82175800279947 268.628900124575,142.9412535765441 260.0503833601251,115.47262887790566 259.19462883565575,113.66199214220978 294.39823786669876,116.8056613021763 295.44069717335515,117.35378822463099 320.654580906732,108.04308226867579 320.73788444441743,108.011631064408 288.04940145788714,78.8467840795638 285.99681393778883,77.60024828487076 254.9277983289212,75.24106776656117 254.5479808000382,74.91257795062847 246.6539511467563,52.66085265815491 245.91994794667698,51.801566740032285 220.20653425785713,40.43054178694729 219.18708536890335,39.266485149622895 206.81854890671093,18.022039458795916 206.57096846227068,17.74380652734544 206.0985267199576,8.08544375677593 205.17927509336732,5 196.97271153784823,10.587839789805003 190.74941297783516,12.097714285133407 172.3005920711439,8.45943398703821 170.0531441778876,8.452241873252206 170.0350853689015,13.318102411110885 169.8635266844649,16.079795417492278 164.88599466672167,15.671207288687583 164.15519544889685,20.382735026010778 142.24840391112957,12.401575831638183 141.3364340623375,12.048269319115207 135.97355036449153,40.41660909925122 136.32103680004366,43.830091099836864 118.3035884089768,13.619714782515075 118.03008483559825,12.408318316796795 107.65384277328849,9.902347041876055 107.61714261339512,9.852452076098416 103.84168647124898,13.06863135797903 103.72343040001579,13.24528386280872 105.96476160001475,26.36571682873182 106.75527139555197,27.725809953408316 102.39173888007645,47.17251036455855 102.45144945790526,47.39138154318789 93.3492272356525,62.33972078276565 92.70930460444652,63.02504951285664 57.14539320894983,82.64970798080321 56.109341866802424,83.20241386734415 37.974219946656376,108.58314367278945 36.88748743117321,109.13803066773107 38.506080995546654,116.33705662505236 37.666637653368525,117.88079748942982 30.87565169786103,118.86292731639696 28.993457777891308,119.43171595409513 27.37748565338552,113.88933345669648 25.947635768912733,114.00480118824635 24.448172088945284,122.34302804962499 23.2565819734009,123.14408136875136 9.590723982313648,123.91278429713566 8.7137066667201,124.0291452886886 5,118.52461868256796" stroke="red" stroke-width="3.132996586146782" fill="none" stroke-linejoin="round" vector-effect="non-scaling-stroke"></polygon><polygon points="5,118.52461868256796 6.5984958577901125,141.1896935145487 5.800704284454696,142.61556060018484 26.026278968900442,135.52791235450422 28.486063502263278,136.1640445473604 28.030806755530648,145.91784034384182 27.95886279118713,146.19276602915488 32.92561777785886,146.6810727281263 33.24921998230275,146.71476450253977 37.95703495119233,163.48094588471577 37.99752163561061,165.46051405137405 55.56204344891012,163.20873701921664 59.07710321783088,162.82198423799127 59.36895687109791,169.19366056186846 61.97379441780504,170.6004801748204 77.71262890670914,166.43434542790055 79.73317660449538,165.52474752726266 80.52485148445703,173.7002127300948 80.32067043567076,174.243705735018 75.34692494233605,176.97462539805565 75.14361770672258,178.68817028432386 79.82696590234991,179.24243069149088 83.6455301688984,180.0311489198357 84.85372273775283,191.8597853363026 84.96207559108734,193.0814185946947 90.35088241787162,190.899091753643 92.31987512891646,190.0111538291676 108.7268855466973,199.31748083786806 110.19139669334982,199.60491479258053 108.21453966223635,205.54977288888767 107.98210531566292,206.23106120631564 113.67063011555001,206.6981264631031 113.59664725337643,208.25784775108332 106.70662912004627,217.52298324066214 105.16813511122018,219.6637302772724 117.13937777781393,223.26976623921655 120.25102705776226,223.19791554135736 137.32883484452032,211.24432602152228 142.63754211564083,208.68269360787235 141.8811110400129,182.3945916769444 138.83004615118261,182.10983006458264 145.55112704006024,165.84232114907354 146.994957937859,161.80052239215001 143.13445063109975,123.67601869127247 142.9020162844099,119.27401877823286 148.78860544005875,83.7178220844362 149.40464384004008,80.68781550595304 146.22949745785445,72.66166800400242 143.74116835556924,68.50760220142547 147.2367129600607,61.08949589950498 147.00107463111635,60.49314240925014 118.3035884089768,13.619714782515075 118.03008483559825,12.408318316796795 107.65384277328849,9.902347041876055 107.61714261339512,9.852452076098416 103.84168647124898,13.06863135797903 103.72343040001579,13.24528386280872 105.96476160001475,26.36571682873182 106.75527139555197,27.725809953408316 102.39173888007645,47.17251036455855 102.45144945790526,47.39138154318789 93.3492272356525,62.33972078276565 92.70930460444652,63.02504951285664 57.14539320894983,82.64970798080321 56.109341866802424,83.20241386734415 37.974219946656376,108.58314367278945 36.88748743117321,109.13803066773107 38.506080995546654,116.33705662505236 37.666637653368525,117.88079748942982 30.87565169786103,118.86292731639696 28.993457777891308,119.43171595409513 27.37748565338552,113.88933345669648 25.947635768912733,114.00480118824635 24.448172088945284,122.34302804962499 23.2565819734009,123.14408136875136 9.590723982313648,123.91278429713566 8.7137066667201,124.0291452886886 5,118.52461868256796" stroke="red" stroke-width="3.8317303741274946" fill="none" stroke-linejoin="round" vector-effect="non-scaling-stroke"></polygon></svg>