<svg viewBox="0 0 1527.6434239110233 1412.3742557796206" width="1000" xmlns="http://www.w3.org/2000/svg"><polygon points="8.052549999999997,1265.4413802544364 23.207677182253633,1290.2178049783465 23.902067511087466,1292.8040217124867 72.13044681770373,1293.5703190999116 72.3494826932216,1293.5266088048006 74.1926462844491,1301.0929119537827 74.97733065774776,1304.3173208733565 117.72136621337961,1315.2112983300826 119.32772639112193,1314.6189910552707 111.30087711112685,1325.7783166939403 111.95652838212084,1326.8103614503993 142.44649702215213,1315.2695729015172 144.24771757328529,1313.157109690575 159.47595380442328,1322.1085315816813 160.04975789329148,1324.2259154754934 181.19866199998762,1319.7061340127616 181.78033040880803,1319.3273567571082 201.96658349337633,1366.5287488986864 203.14856166215725,1367.899239096128 261.49599063999597,1371.3975684167594 261.6209459466405,1371.3729901871188 265.85661044446863,1388.379094728712 266.06283039108496,1388.6740102066901 353.0084221422218,1365.067216943578 354.1796232799312,1364.814144699812 366.80156560891885,1366.577906451515 366.93613286221046,1366.5942923000325 365.47133044442273,1376.4638103983375 365.5144385689415,1377.8556294298974 375.9311673155531,1388.2193486776446 376.33486907554436,1389.180553912454 384.83124738661684,1384.034961549543 385.56175533330645,1383.590758226324 413.2342585155053,1398.6412807233642 414.65187501323055,1399.883232203057 405.05856969775743,1385.1372736588596 404.09358850666433,1383.887500710996 414.84848301331624,1360.5473750961605 413.9041820710769,1358.3921102369563 429.4006789955089,1359.3543578457097 429.4970897333475,1359.4531313655675 421.6601492176775,1372.7561940028459 422.81241773334443,1374.9859600868435 436.9079006132448,1369.3161466372908 438.31007974220086,1369.0881129927943 431.68948738670554,1361.5528545952761 431.51588980443887,1357.957868434583 445.20970982217807,1357.31105592216 444.84795110216476,1350.586094451231 455.257980613365,1359.265143014934 457.180661217753,1359.0166157930867 456.1626686844753,1352.7696586508314 456.0476165954966,1348.6888292655126 464.8713836355379,1348.289163324494 465.42916781336646,1348.2468296452203 468.77092127103936,1335.5381591672553 468.80733016003035,1334.63316493939 455.0974902311351,1330.2360593237458 454.824569200027,1329.7985745389956 465.83898626661505,1316.7810641378524 465.4580036533076,1316.0876916027987 522.5456850755505,1342.0073013258875 523.1649274577863,1342.1302090644963 523.2100744800188,1323.9919162061774 522.8561800799577,1321.0063547575623 533.3337844888225,1321.438394171047 534.1146823377127,1321.2362599264375 518.7093532711511,1315.033287627833 518.3869161510153,1315.0405719561745 524.5004055022506,1302.6627798319455 524.829833128933,1302.154213087611 515.5071186754864,1290.9340261828397 514.8599142665986,1288.1501753917905 522.6814174132666,1282.8646764580403 524.2554464977944,1282.7713321520491 523.1722092355845,1255.2872017036202 522.6112210755015,1252.5684716286846 512.8277157244517,1251.5114821183738 510.00471611551586,1251.6563004597915 494.207627404459,1199.5559943153999 493.2009944444068,1195.1224434382525 496.919943991095,1188.7819393556342 495.43912166215125,1184.0866856052085 542.9888392799545,1154.3284321920141 549.9120623199047,1151.4872441066905 569.4645094666408,1173.4804227623167 570.4854147110378,1174.4826688971148 587.233212328843,1228.6335251380583 587.606039351063,1231.138495236613 602.4154277244594,1230.638869871887 606.7868245600035,1229.21285897398 608.4689152266143,1249.4361973503615 608.288327137801,1251.0223779493022 626.1505280266061,1226.228271192092 626.4458769332629,1225.7974086476383 623.4947180355445,1210.7522089603367 622.6436238488892,1209.669963791362 647.3416664444154,1193.063929512958 648.629084755528,1191.7296886610343 675.3910744444944,1212.231177534653 677.3580282577092,1214.6812237201734 681.0562975555437,1198.6217356539341 681.2080498044157,1197.9047543148986 710.0237920976721,1195.5497227048977 710.3045774488488,1195.7369418199883 714.1595506043883,1183.9955765428963 714.7607341777544,1182.2066423591236 733.3511128444003,1189.205586827978 734.2447326133039,1189.7299063720052 723.0951657510374,1209.6307915164866 721.9804712089023,1210.904342318397 735.2516568443749,1225.848419902591 736.8169477955449,1226.3699182052874 728.5396053599903,1245.4563495318648 728.4399906400137,1245.798367011455 752.793459511107,1254.4970885163416 753.5108602577599,1255.046297180677 770.3734186932921,1225.3988828056968 770.507694675565,1225.2435713936352 786.9706291466497,1232.5080184850153 789.0535088622488,1233.346033105779 788.2306679732643,1249.7067095900197 787.6947291289467,1252.033829581203 773.2144771110976,1253.1536617983143 772.5867878666392,1254.4838819890642 774.5927720089454,1274.7535895192773 774.7008335910283,1275.4771473938376 789.4068207199231,1280.5652074838067 791.7996128977753,1279.0347949318598 805.2691541600285,1306.460374416994 805.632369235485,1307.073647160119 824.5035332533076,1297.3712598663183 825.2649159377685,1296.6227329500612 829.7819483288109,1317.0300949675507 829.8553486488305,1317.09383224554 865.003033626686,1304.777621601686 865.5072239199432,1304.71661246135 886.4641803643677,1336.9580092112078 886.6246707467141,1337.4969944211548 955.1290146399766,1332.0014676376954 957.0251895732723,1332.272332264321 958.1358063199801,1345.241572534876 957.6522962755768,1346.245302081435 972.135752275564,1352.0609244596922 971.7518569511373,1353.6049332925827 997.2002139288012,1340.9707766306597 997.5887695911584,1340.5060004461916 1008.3279354576731,1365.5319405657715 1008.5268736266077,1365.9306644479288 1036.5410378222364,1368.0244079790787 1036.8768734133114,1368.1677831563643 1031.64302281777,1382.9508489728682 1031.3648589066938,1383.6321747630495 1043.0419177510553,1390.9341053443272 1047.6451663910188,1395.1251860981351 1057.3424554933804,1401.8806247998505 1060.764891048871,1404.3217057796205 1069.6949720444168,1391.8311281272686 1070.2914952799688,1391.55897244349 1078.198049591017,1397.0994124279018 1080.4658864622247,1398.5998670485346 1087.146480666684,1389.8259061766216 1090.682803226729,1385.988353086846 1083.1374250933072,1379.574226889155 1090.9819386577942,1370.254677798926 1091.402825413366,1368.941552320473 1132.3066100888896,1350.9111041468345 1133.5934458577317,1351.625304416149 1140.7511421422018,1337.7100388819013 1145.1554526132309,1333.6211875508084 1123.6366341955504,1323.0855080960096 1123.6348865688556,1322.9662316089739 1145.5422606488933,1313.7002514400297 1146.0942194044833,1313.1680362772672 1154.0121332888734,1277.849981376297 1155.9205416088002,1274.0782970178184 1120.5812002399248,1261.9331465913924 1119.1003779110974,1260.9545287241704 1125.0653189955988,1254.1482537676125 1125.4672731288952,1253.9843103500675 1116.71137225777,1245.3702758069626 1116.2060168799721,1244.2708972930918 1145.4942009155416,1215.6595947273086 1150.9552429778046,1211.4691478645905 1179.2245606666906,1171.8745414660439 1179.5601049866304,1171.4185145686856 1174.0151768444116,1167.2868945473815 1174.0585762399492,1167.186211238593 1212.0554752265812,1121.848463994836 1213.799606639986,1118.5853445366733 1193.8425839199695,1085.3849513020027 1191.0064771111133,1083.440246881371 1193.0564431911112,1062.8591287068916 1194.0121037066924,1060.9639049933535 1227.614304168826,1079.4044852310103 1230.8634334133017,1080.9367617915045 1240.3154722399554,1076.0304306122484 1241.2985122400346,1076.1475640102067 1236.6807000444746,1059.7810910388139 1234.76151469336,1058.2126561166729 1261.703218657734,1040.3177476331834 1263.1904489510703,1041.1701800857913 1266.6417203466185,1016.9324413694917 1266.201900968888,1015.700606157166 1293.2440934666442,1008.4867986123786 1295.072110960005,1007.1746741032471 1263.1980220000037,1000.3868789660987 1257.233954728908,1000.8314112754083 1248.306203902211,987.6040196718891 1248.5986400977486,983.9686367971949 1239.7437070489173,985.8996423108397 1237.3436330932668,985.8166573034027 1235.9466968443953,971.820462407522 1235.8645583911343,971.3143117085342 1227.0582676176923,971.8076946566357 1223.5050513333185,971.1939297467829 1242.3916527200267,952.8786774981777 1238.8361062666877,948.5226264787266 1283.795841164399,924.7890026035961 1284.6195558666727,924.377152960667 1272.2288827999505,930.3167427122603 1271.1805980710556,930.3231278090748 1233.8288645955977,918.2827814464467 1229.8034978399296,916.6061378997761 1231.493452826609,904.6904663338569 1231.9720112621794,900.6449916629131 1225.2011230133717,899.9543934517783 1225.15306328002,895.6319467606149 1240.3480946044215,885.9298476062027 1240.421494924441,885.8491051976812 1224.7723719377314,872.2688991256068 1221.0193436711338,869.4386130337148 1265.1483733599084,821.8656645366932 1265.8115976799522,821.3144455608922 1255.079131048849,814.7394085081537 1276.1887135555512,796.270377326618 1280.8810911555552,811.285027093581 1281.223043440004,812.6015316536427 1293.2746769332803,804.9405951002623 1295.372994017765,803.7509078660873 1321.253597324459,808.4475561121722 1322.0971184621808,808.7345904875324 1324.9710905155875,798.9843356110864 1325.6413053422943,796.4232580052117 1345.0009310133532,803.8522163544326 1346.2793199199727,804.2259621246262 1371.8339908532575,777.84404324866 1372.2097305867132,773.107024311415 1377.015995191155,775.4305909037134 1382.6433530577701,775.6081320921435 1379.2383937688787,789.7516274247096 1379.3519895021814,790.6520516913511 1386.4185179288975,792.0722773980592 1387.426024702239,792.0553917357242 1384.188546302124,775.3201410422112 1383.9191205244056,774.0778044260001 1392.7790051821862,792.492593054521 1392.9849338577837,793.3633421148184 1395.8105549067036,777.6747190835663 1396.3811550133173,776.0800532072094 1433.9114376799912,792.8353254133613 1439.6908390666135,794.5010608523512 1442.0515914221537,783.797688905011 1442.3629602399665,782.6393764829622 1456.2565922399294,777.7892753390838 1458.0155784799495,778.8430987703391 1462.326973466646,766.1320672746874 1462.8474749421944,763.9978188508899 1456.9032141066632,756.4159550500112 1457.4825523466347,754.1250489607696 1489.3563500355008,763.2798558787104 1490.5907570044287,764.4250353587336 1498.0758420177513,749.1971681092177 1498.3947838844974,748.2358622493698 1491.0422272266364,722.928157333728 1488.012716399949,721.6572163034357 1502.283544488811,722.610422774836 1503.0833749599765,723.0208298256398 1517.9603382311539,692.5792087561344 1519.5908739110232,691.0081155161383 1501.2524447554965,669.1056795299296 1500.9235996710845,668.4284988081558 1441.3979790488734,646.7544015220842 1440.017645253312,646.3493301234917 1426.7018951377609,625.7243952818458 1428.2613606666923,623.4773229071648 1413.5073138044459,621.5759709048793 1411.278215991078,620.2140025240146 1391.1161384088696,595.8469322567466 1389.1369512089072,595.3385325746854 1396.8448586222726,563.5426822062359 1403.6043872977384,550.0308993957947 1440.344160168875,572.5748904071875 1441.382832951123,572.878683287046 1454.9184927555975,532.3256474672594 1451.8621849866827,530.1031936739814 1466.8102184089144,509.6056482092604 1468.5094940711056,507.23992985694304 1431.0007654665746,477.454435496918 1428.5013680621992,476.59155663612864 1427.370653608908,455.71322772975645 1427.1251120621814,454.56321574762796 1387.2600001689057,401.14811977910676 1386.788140968863,400.07874161794416 1367.6804648089233,398.8283076976436 1365.7286570933425,398.86854115015694 1373.1144186578235,391.429340115144 1375.0304000266838,390.80066996525375 1362.1099048089013,385.2216567700739 1361.923491297733,384.49786506043847 1330.2206697511497,383.06490579536285 1328.7290703911344,382.97711729977846 1325.7187834577412,375.3133187760609 1325.8801476533768,374.3869322924652 1341.6306329866416,377.52684515619285 1341.8420958133424,375.64848132004363 1312.8984855022059,340.71699784472685 1312.0310801332594,340.27339591776354 1341.701411866677,338.88404709319684 1342.3224018754913,339.24624817274844 1357.9316207199367,311.43137453791087 1358.0484204354939,311.29095791685495 1342.2926922221445,289.25036508587755 1340.520307511069,288.15801983079973 1357.7029728977718,257.7801050442281 1357.0668367910907,257.03941714313214 1371.0257135199859,252.98823494560884 1371.5115537333545,251.91400700188342 1347.3488674399919,234.82080401978556 1346.517288417766,234.54856462326234 1365.3039838132458,219.53917932496506 1364.8003760621427,217.04308114274272 1392.33831199105,209.43335023473583 1392.6758952088198,207.91274474372722 1452.328510035622,230.5614764747802 1453.778748897697,228.72576235185943 1453.1691184622246,218.2977687410089 1452.0998622132242,216.0958832788524 1423.2806246666946,201.06599805292308 1421.135995475553,200.04001988555638 1410.7233445244851,176.36657924569545 1410.119539511135,175.77069398869162 1384.8523531644382,166.0495690823077 1384.1032038666085,165.59187823555067 1380.3516319555706,151.100885407453 1380.0787109244625,150.04125640958182 1336.5893125955258,121.2201036619731 1335.3517016443434,120.55814522758692 1308.3939777689297,131.0837768215929 1306.3125544088903,131.32456073174353 1253.7497696977584,127.6180152219963 1252.8296442577625,127.9270108828564 1254.3998868177655,153.3061787071415 1254.0148264089144,153.3386766346298 1206.9736681510471,118.56676428017772 1206.2498594400017,117.69558657517291 1194.6954257333196,150.8834673537417 1194.663968453278,151.0569440921313 1173.666525324435,149.96115465436696 1169.5453303733152,149.5963480003188 1168.8060842932678,137.30333153569472 1167.9972244177256,137.26625368672057 1145.6803231555746,155.96641543004762 1145.2177846310437,156.1417189378767 1151.5741940887888,168.49865635098058 1152.1477069066382,169.26665072280548 1140.9276524354714,187.45697668134335 1140.8516306755841,187.5375222003563 1108.4785943021775,158.20873340007483 1108.355677893363,157.67001164871135 1089.6787917066608,155.33019523943176 1088.9159526666404,155.5270117572286 1090.1541461599768,169.85340024726565 1090.1515247199927,170.71017984595483 1081.6277669244223,178.98488510840207 1081.578250835511,179.14506709881925 1058.5646290755608,148.91479414641026 1058.1099548710986,148.0840187475328 1053.1196069243374,111.27769586884051 1053.2585432444243,110.52780792045041 1039.0314058222352,91.75549835115771 1038.6815892177178,90.56097072558578 1052.214336311073,63.37029106889486 1052.9576601866643,62.36151812700655 1060.9524696444637,67.4451730065989 1061.4846219643728,66.38925524414617 1043.726696133242,46.953220245289685 1043.1208522221782,45.80011814102863 1050.7536116889455,39.55274401457382 1052.2621047732896,37.4845953586987 1045.9965719021634,25.129788722238573 1044.3418607200506,22.771134360612905 1051.4619830311053,17.40155031134009 1052.3570591555685,17.473457085703103 1048.5207273510528,8.42263372921252 1047.875561839995,8.12858210496006 1018.1953268889116,8.356220235327328 1017.5958909422403,8.44736702516775 1011.9117352087993,30.332019118220614 1010.3178996888233,31.307967231586645 963.9615198132593,38.62583483951266 962.707015137748,39.42634754276469 975.9216941777628,66.74824954578753 976.1369435288722,67.61551138209279 957.9301689155178,76.8547935789461 957.1929617333004,77.98437841560326 916.5186986933473,71.07673979967467 915.9151849511323,70.6298373793029 886.4938900177145,20.819156675286195 886.072711991124,19.98697312628019 890.8999481155548,16.425539436844247 893.6815872266667,14.093354834337788 889.1065918844903,9.776090488688624 889.3827168978529,8.235301821586745 852.3280799555138,14.729990597559208 849.9032479555823,14.877011971525917 828.4540433332801,56.344957550033996 826.3117443111038,59.009134483501384 834.1454808444029,58.24761733800506 835.7952404177992,59.20420699482884 822.9449415377818,93.16474860089465 822.8727063021867,95.76666377692118 809.163740186697,65.91624270994316 809.5054012000106,65.52198849069055 786.1990519732714,63.33228472926521 784.1761741066363,62.691212933371844 778.7061026398802,45.88392203566718 778.487358035614,45.73051050989989 785.7799128443945,40.72373969897262 786.3939123466622,38.74536238206883 733.3243159021728,16.732861965872416 730.3813125955418,16.090277997987414 742.5494545333564,57.606072550675435 744.0250339822156,62.08036132567895 689.1728583377331,73.96601492664877 688.3549690578144,74.92802966465342 732.1936014488816,151.60300584600873 733.8421959377371,153.0361253183578 739.790534568812,177.37802435036383 739.9903465511521,178.26086103180523 735.9798346222157,192.820968164458 736.0316808799759,194.8217335981676 723.0969133777322,196.55614245995048 722.1377576088777,197.22793614105422 732.510795688933,201.5236138647665 733.9776370044343,201.5149191732994 743.3743343200546,228.1442056016308 743.54618427551,228.57751357262123 737.1603564355534,247.55619201865147 736.7484990844747,248.2635136761014 741.7842853243707,289.6030432182374 741.8434133600455,291.0347916019741 707.6044942488439,291.76484240344826 707.0318552444002,291.62487044811814 671.972716684431,271.22870815426677 667.2544159556052,268.7222267536922 670.691123795557,296.57186354182295 671.0636595466418,304.25811836697494 653.0252396354696,303.0117048455645 651.9655953332327,302.9151932607415 601.0930568799155,275.68257026546735 596.9246760088496,272.6976327497755 605.0892965243908,331.6760281089005 605.2194947111199,333.8246017356646 578.9078101599367,345.1012908855696 578.0977851999702,346.45904549069337 592.7006623554986,353.1768101001867 593.7323446310835,353.6052948887004 588.3318869599385,364.1589230671884 587.0747608444432,367.60992422197114 577.3390239554934,361.1642307362995 576.0821891111333,359.52945602921636 560.5874398132797,372.3119219252617 557.8698803466756,374.96489549949865 593.022516933364,387.0720469376897 593.8989517065708,388.2557945469521 585.54121844445,398.9590663909107 581.6929445244383,402.1525714971135 594.6871313333755,412.4359322441519 597.3703208089352,414.5274732120811 578.6587733599368,417.1095269598077 576.3536537866818,421.5997036128315 517.7056330222182,400.99770307602694 513.4347247199399,399.04776280208125 475.1360688621422,367.03239864457964 464.5145765244739,351.25799268249057 414.3142917954607,380.2167910813364 411.6203252888296,379.9584516435639 434.9779382310586,401.7228112049411 436.09059387548007,402.98145782142046 443.33887547555025,419.7866379930415 443.8314149244467,420.6863154176167 433.4397354933677,420.8856336908425 431.1025760978006,419.37657036583505 432.9183602044137,433.4331725210427 432.8781647910142,433.89761132965896 446.9314133599179,441.6356735779914 448.1917434577841,441.81988801804937 444.00472123557813,451.8307700966029 443.93831142222155,452.45880598933536 462.767823671085,467.7898130451572 463.60377175998985,468.30582502039715 456.0129553333169,475.46862068211294 456.10528827549535,476.793108626945 441.0489020000456,467.6353291500486 438.2215333244309,467.130741931825 421.50286281770207,485.9016003152133 421.33771209777444,487.387349547796 441.2702680444123,502.9155839958471 441.52134374224227,503.48543563156954 436.2405984977737,522.8987957495624 436.0917589600209,523.4375232090601 467.3865096800506,536.6338713383661 469.31472443554196,538.9097157499996 461.09621876441054,552.6392074092068 459.92356127114147,552.8141899895631 463.2364788888732,624.0057523885985 463.17938975114487,626.0395316173449 433.6037211288709,620.2555650660429 433.18458199999407,620.0450118863732 438.65057567109,646.6155721765022 438.6534883822093,646.7859121176657 433.58624486215524,661.6310031342214 433.1382698933372,662.7621073214464 441.94630829324126,664.6361563306195 443.7993751021346,664.9790909325015 446.8157787287852,684.4254717032668 446.7222807021823,685.7116986731776 440.922490337725,691.2916528018318 440.77598096882105,692.47784824574 446.5894610754691,698.7520658022036 448.40174992892537,699.0004374356718 433.41934651553277,732.7265702839718 432.83796937773116,735.4294555770243 407.0424172355339,746.648283218477 406.2819083644787,747.4452694298593 408.87305616887863,734.863409091347 409.2843309778033,734.1759345166279 397.1258009866357,731.3995375878653 395.07525236436743,731.319650599245 400.80135113778636,743.8839142903812 400.8671784088725,743.9633401775277 387.6245373422058,749.5792243823885 387.5001645778317,749.6006779404483 383.0967279199755,733.929429157964 382.7839027466031,733.445090960689 321.2715218754962,709.9335294803382 321.0772440443758,709.9015715233759 317.1313943022175,714.0802626915752 315.96077570666205,718.3465260113367 307.10700774213876,711.4885066650818 305.2789902488945,712.0203738695486 304.2429389066307,730.7910262418222 303.7402049689332,734.0321397580915 259.79991895994283,721.6384990844886 257.35964959112573,720.8254397982159 262.0893098932935,743.5342574525052 262.3686388887942,745.4167374793683 239.50181776888314,732.378721425986 234.88895718227252,730.3103330256195 223.8392963111179,746.9582226489215 223.49588767110947,748.731122448436 187.14437919107843,741.2427587311026 185.6903538043622,741.2724296860174 167.85320223108977,725.1372213677746 163.01810178670678,723.0285905743144 156.39051892443206,740.7730441486124 157.57220582219418,742.6140090840995 144.7102560976997,743.7492553922125 142.99874704887736,746.4889769175566 130.379717431009,784.5776522932351 128.96530491553824,787.4688320621858 103.73394491556212,810.334035810643 101.2039640444342,808.8053222704689 94.1706405244546,839.1366346557984 93.7983960443886,841.355921408081 121.90198047107663,848.9708588839053 124.84877030223254,849.8281499543004 123.0332774666382,869.5914421269913 120.84612269324828,878.7126348019005 127.37962498664967,880.3170381864543 132.18326815110743,881.4839524974591 143.13302303103376,861.9950214951309 143.3389517066313,861.6679100236283 163.71831753777917,867.8701697258289 170.2055077244073,869.981497981214 189.19259764449782,839.5011942157648 189.31667913773674,837.9516977842791 195.98416614215932,842.2570438988982 197.87335056890845,842.2324056628636 193.19495398223046,846.6654180250257 193.23078032895103,848.8084340096461 209.51807831993904,848.8782402204592 210.76151469336003,849.9454055743186 197.45858050671052,867.7848584934613 197.08080187554117,869.0978265781664 200.68615568881035,881.8653195347065 203.35361652446556,882.3237802168364 197.2648852177441,894.5650062324489 205.37620311996545,896.1437479213705 197.90073005328998,897.4483336516782 197.0676946755044,901.1631669478734 233.98805563545432,910.0704795014822 235.71092425773497,909.5920081124418 240.70884525331314,925.5178331666752 241.1355574311234,925.9748333091625 234.99119334223326,930.9018904523468 234.58778285337723,933.1617408302623 243.36057744883112,929.9477750091241 244.32206338665094,930.377401125013 243.4861152977461,967.8838556160695 243.57670061334613,970.7374808683303 255.11016279992293,976.9316063005604 255.74134729777109,977.0989510221766 206.8494523999758,1048.8145716904323 206.27710466666724,1049.0192389380895 183.3357181421958,1099.078057357961 183.27192976893969,1099.0675757127824 186.28163415994607,1114.4372250467782 186.33784948438517,1114.7243104612348 171.3636016621964,1128.0660722056414 170.23579992002453,1129.4389799309788 142.04832941326424,1121.2870705934833 141.66064756442904,1121.4766321641869 151.13831824888587,1151.814830069408 151.44590054217372,1152.6659134026627 135.75949485330023,1151.9360230818634 130.32233702214546,1151.9009409009955 129.92183924440872,1164.3406356046103 112.2230414488364,1170.9287743261443 112.83179807113595,1171.6795570557947 96.8567427111335,1174.0111582238237 95.81777865775041,1174.2908757902692 102.2770068177266,1163.537434833975 102.36963103104029,1162.1738546261108 94.79891231106706,1160.348292970018 94.07102580447793,1160.0594455210735 69.40152777775768,1167.7365520125381 67.48292496879697,1167.8946380529446 59.446755013290044,1160.2148035816276 59.20878651561327,1160.1400859358614 57.51358864884935,1188.7231752860603 57.559318213352185,1191.7415324193203 50.07539828445408,1189.0343057989153 50.069864133350734,1189.1632221179093 57.283775742143575,1225.2531360293283 58.10516027556844,1227.4452483050768 40.759674337786805,1226.3034215481962 38.91359803555645,1226.064762145375 42.223602942168895,1239.115949218372 42.20525286228042,1239.4411258124524 17.435557573313076,1243.709820445954 17.152442053287473,1243.6998012033068 33.11875927993208,1253.9328503074134 33.12807995556034,1254.174666862214 19.617760737753656,1252.6267630159632 17.700031742198576,1252.3995175975501 19.50212610662095,1263.2642237479226 19.57960422218423,1263.7824445323563 8.052549999999997,1265.4413802544364" stroke="#009edd" stroke-width="5.91692784274279px" fill="none" stroke-linejoin="round" vector-effect="non-scaling-stroke"></polygon></svg>