<svg width="408.7355875556823" height="302.7910961555317" xmlns="http://www.w3.org/2000/svg"><polygon points="5,279.04627185547724 5.355350755620748,279.41978769545676 12.10905400896445,279.68525035481434 14.383007573429495,280.5532265381771 17.431159751140513,281.9169916535029 20.513681920128874,283.218496840389 25.947927040047944,285.982002238743 26.273859413457103,286.34661340207094 26.938831360079348,286.91709527070634 28.608106097904965,285.8050322132767 29.27191296010278,285.7254401204409 31.676355982315727,286.577829925518 32.5213334755972,286.544481403369 34.522657280089334,286.2919217660092 36.253098951186985,286.18565098708495 38.195877262274735,286.64630554174073 39.3047463822877,287.162539861456 40.56012487120461,288.02648486511316 40.89217393787112,287.80638596974313 42.96544170670677,289.13764745445224 46.53176519123372,291.83927435358055 47.6712177778827,292.7796782020014 49.64079303119797,292.4977797853644 51.416090453392826,292.40796349500306 53.9070409956621,291.33905790932477 55.76826339564286,290.31461109558586 58.857776071177796,288.980688852258 61.62339527125005,288.8357354832697 63.60811662231572,289.0700618943665 65.81012622232083,290.69522209843853 67.70105827564839,293.1238249926828 69.12362638232298,291.7343401534017 69.79296739562415,290.54626810422633 72.58917006233241,288.4199944646098 75.23420302232262,286.7779209522996 75.78965703118593,286.0415850797435 76.30695452459622,285.38350504875416 77.6849581511924,284.6107031577849 80.50941411568783,283.3576734017115 82.9406540801283,282.85254654986784 86.2821162667824,282.08151442720555 88.36150072899181,282.29539384978125 90.36864995560609,282.9441453429172 93.98128554678988,285.7138792553451 96.75302144011948,287.2999353556079 98.46598684450146,288.2287977976375 100.3184711112408,289.34707363089547 102.52776248892769,290.64186545531265 104.77229767118115,292.86904970690375 106.48730197339319,294.94903899513884 107.54607246234082,297.7150653777062 107.58859804447275,297.7910961555317 108.37036970676854,296.98143372137565 109.64060302230064,295.5479548953008 110.69937351113185,294.38747049547965 112.17174897785299,291.9673295811517 113.3977090845583,288.86152473988477 113.97209571558051,286.4044175556628 115.3987416177988,283.43415377498604 116.11672490672208,282.3042869606288 117.6744428089587,280.54966926568886 118.89778147567995,279.04049124836456 123.1427666490199,273.87834858335555 128.712161564501,271.03109224687796 135.0965330490144,268.9135243771598 139.91503104008734,270.41120992816286 143.34940871119034,270.86166977731045 144.98431345785502,267.4189414685825 146.44882460450754,264.89933905325597 147.9040150756482,264.6636529236566 151.45460992015433,264.95937227248214 152.98815232003108,265.13947183219716 154.98598087124992,265.2199607237708 156.19446471123956,265.08877715619747 157.96015018678736,264.3132361001917 159.43805980449542,263.58972143242136 163.00496583117638,261.8749777577468 164.8382262045052,260.790359933977 166.50225806236267,260.5520012236666 168.48814449785277,260.2771768687526 169.58973184006754,259.18543596501695 170.84161507571116,258.46990916202776 173.34159502235707,258.23777380306274 175.07378432014957,258.13727067923173 175.7201149156317,257.92069963307586 178.88040647120215,256.5950311674969 179.76994844456203,255.68426875089062 181.37689116457477,254.81130300689256 182.72547640895937,255.02031702443492 185.3606061511673,254.78728861769196 185.42818104894832,254.77617084409576 187.28066531568766,254.25052186759422 187.72631011565682,254.09442789503373 188.65575623116456,253.55143347312696 189.34432113787625,253.1205057457555 190.087062471197,252.80787137814332 191.3867141690571,252.15502891025972 192.16091278230306,251.86596316838404 192.43645525339525,251.6747348542558 193.02394908457063,251.60936141584534 193.57328640006017,251.48439580970444 194.59069639118388,251.16108588851057 197.3181590755703,250.07463656459004 198.92306289786939,249.53207698068582 199.2921033956809,249.45647430984536 199.65444465784822,249.43601711210795 200.79069326235913,249.46136624814244 202.47890062234364,249.32394721277524 203.78204757347703,249.05311138770776 205.5468592356192,248.488757837913 206.55902634677477,248.2068028842914 206.67699114675634,248.16366463410668 206.82029653340578,248.12452889466658 208.3890827378491,247.67758046940435 214.38256839115638,246.5030579576851 219.6507889778586,246.3158275517635 221.67395811562892,244.87935146101518 225.19659093336668,242.52270992071135 226.49158229341265,242.25497890787665 226.7356674845796,242.1740369098261 228.84214016003534,241.19828323682304 230.9561858845409,238.2923440700979 233.00644323567394,234.74948374019004 237.57007900450844,235.09416571829934 240.37647616001777,231.89772007713327 240.7233800534159,231.56103874876862 243.4351140978979,228.92494407913182 245.49236195569392,228.27025194710586 246.99415580451023,227.72319113637786 248.95411911117844,226.62728637852706 251.89275335124694,224.84776386100566 253.42396558227483,224.1347944297595 254.88265130668879,223.3599990879884 258.0758564978605,222.99039139703382 263.53049059561454,221.53241423203144 262.9732889601728,217.33011258440092 263.37378673790954,215.85830957780126 263.8788508445723,215.01187384990044 267.0746774756117,213.48045298689976 271.34150798234623,212.64779681444634 273.6574045866728,213.00007480906788 275.5305691023823,213.29764252575114 276.8246866490226,212.93691389687592 278.5306615467416,212.58241182181519 279.5847716978751,212.50234853918664 281.1232657068176,212.08779818902258 287.0654876445187,211.14749547594693 290.49316608009394,211.55226203531493 292.18457742233295,211.45885443349835 292.9051821512403,211.40903702983633 293.4580147200031,211.36900517944014 295.11622115562204,211.7782193083549 295.7174047289882,211.92277846613433 297.72804920899216,212.42184043116868 300.4558031645138,212.86974980833475 302.1285731556127,213.14596755139064 304.7555473067332,212.1785367442062 307.3298013866879,209.8442310738028 307.71515306679066,209.49906487890985 310.55679402675014,207.78523556294385 312.115385742276,207.7892388132168 313.6393161956221,207.69405039661797 316.4480435200967,207.37690364691662 318.9154011022765,206.8840575835202 321.838015431189,205.08747313474305 325.03646350232884,204.1235655248165 328.9569726578193,203.02131622517481 331.15781717339996,203.4910405704286 337.6266572801396,203.7236782994587 341.6703741156962,202.20952700381167 345.8539010845125,201.9737739583943 353.7604553956771,200.1322226393968 355.50953841779847,198.6118191787973 359.90511075558607,197.09985696454532 365.6058689423371,193.86416076449677 367.047952213441,191.69825514103286 371.99606584897265,190.5732569603715 376.24308992002625,190.34950219036546 380.71992689790204,190.8263709297171 386.1267925334396,189.36951590445824 395.91495822230354,186.01137285039295 399.8631381334271,183.58648511546198 397.4030623290455,181.74166642758064 395.36474709340837,177.63425370969344 394.78744775115047,176.47492898232304 390.0356508444529,169.80580192920752 388.392299235682,166.25872833712492 388.56939207122196,159.88871199067216 390.1509942045668,154.82522314571543 390.21216113783885,150.19497226236854 390.1699268267257,145.73592262109742 396.8511035734555,140.5448560473742 398.7044616533676,137.20332323102048 401.48813966230955,134.19990503560985 401.5653265067376,134.2061343897367 401.630862506805,133.90490042231977 401.6792135111755,133.4830831864383 401.0512329955818,133.3491515958449 401.3704661334632,130.35324531130027 401.1546342400834,129.30624812748283 401.16016839118674,129.0281456183875 401.2225004089996,128.45592079358175 401.09754510223866,128.02163408900378 401.42464256007224,127.98336698184721 402.0826240001479,127.81739445205312 402.7082743467763,127.64652715955162 403.7355875556823,127.37999171786942 403.65141020459123,126.85626421152847 403.20227015123237,125.46617770171724 403.0513917156495,124.92865150584839 402.7149735823041,123.84825549105881 402.6290486045182,123.15008902642876 402.5405021867482,122.21786203805823 402.59060081781354,121.31588974402985 402.52389973343816,120.72495572490152 402.48224796447903,120.10420631291345 402.241366755683,119.00376238417812 402.06893425784074,118.2263730915729 402.00660224002786,117.26475610339548 401.8219363556709,116.74144958710531 401.2653172623832,113.96559036703547 401.0701656178571,113.71238826168701 400.9487055646023,113.13255879643839 400.58286904892884,112.86467083910247 400.5179155912483,112.37250374467112 400.31897742231376,111.9720052992343 400.2228579556104,110.88709586020559 400.13926314678974,110.04648762848228 399.62633472005837,109.79862106451765 398.9004871111829,108.37816673377529 398.38115072005894,108.24332989839604 396.9536310045514,107.48548305046279 396.73896419571247,107.05516016471665 394.3552014223533,105.10423389123753 394.04907548462506,104.86481702473247 393.7120748090092,104.64631553145591 393.41148302226793,104.43181894684676 392.36581973335706,103.75094666448422 392.0876558222808,103.55202475812985 391.8459008000791,103.4082846561214 391.75065514678136,103.33352196530905 388.7193966933992,102.6312854558928 388.1729720890289,102.2512401775457 388.043065173435,101.90857584099285 386.65748849790543,100.25042895204388 386.0498969600303,99.37328824168071 385.1032658489421,98.45742679387331 384.82539320900105,98.29499227245105 383.1884495645063,97.20868052379228 382.6228010667255,96.68265628116205 381.36480113782454,95.40497288759798 380.92614684451837,95.00533372117206 380.1603950933786,94.46372803905979 379.63319438230246,94.02002872078447 378.266259057913,93.34446475619916 376.87922602670733,91.95505727047566 376.0584240356693,91.19403921347111 374.9259619556833,90.04138113622321 374.38740167114884,89.53047130641062 374.3454586311709,89.56874508026522 374.08098446240183,89.06406478455756 373.9638934757095,88.85177828359883 373.8010729245143,88.65951863501687 373.5730076445034,88.34976662648842 373.25231815117877,87.93587317806669 373.2348418845795,87.9113955842331 372.3840389690595,86.46765779313864 372.34617372462526,86.4053507708013 371.3945910044713,84.87437269743532 371.361094826716,84.82185640069656 370.5828184179263,83.62732980272267 370.41271608893294,83.37186761223711 369.2045235200785,81.62367939087562 367.9552617245354,80.08376689080615 367.60049351118505,79.47313965298235 367.0954294045223,78.53983805212192 366.54929607117083,77.64703368587652 366.54172302235384,77.6047522330191 366.1709348978475,74.96815384499496 365.981026133406,73.35520236915909 365.89480988448486,72.25675074273022 365.8024769423064,70.31130294408649 365.7031534933485,70.0237793486449 365.5193614222808,69.57290955091594 365.04808476450853,68.5220633377321 364.8383695645025,67.99062967579812 364.80982499569654,67.93365848698886 361.50884949346073,65.93965761456639 360.193760426715,65.09309197496623 360.1512348445831,65.02187705179676 359.3840267378837,63.35010012798011 359.0790658845799,62.66375992889516 358.7371136001311,61.473119306436274 358.1228228267282,59.58855574892368 357.81873578671366,58.535436464007944 357.0969659734983,57.6612457173178 355.7402251379099,56.040155749127734 355.6420667733764,55.94356654200237 355.44196352013387,55.84030061494559 354.3182395733893,55.390292066847906 352.83363072003704,54.87084485718515 352.64372195559554,54.808528914349154 351.68951779569034,54.60511175019201 351.6315548445564,54.58419137477176 351.43407303118147,54.48092481162166 351.24998968897853,54.35317688429495 351.09008184901904,54.156436029297765 351.05396423116326,54.093674769450445 351.0032830579439,53.93699409952387 350.9890107733663,53.83372723357752 350.9805639111437,53.64766870654421 350.98231153795496,53.465616072528064 350.9960012800293,53.27288047969341 351.0324101690203,53.12910762988031 351.2785342579009,52.386650679807644 351.3050399289932,52.25845642120112 351.32892416010145,52.035896767512895 351.31727331562433,51.930848533054814 351.0691103290301,51.17458879284095 350.86347292445134,50.57233889424242 350.4856942933984,49.54276818817016 350.134712604573,48.56482736277394 347.68570510228164,48.389447439229116 344.3430778312031,48.15887159167323 343.4410112000769,48.108127067796886 342.09067832899746,47.04605040763272 341.2657985422993,46.385477098752744 339.72439182235394,45.206322119687684 338.6469799822662,44.3881655856967 338.133177742362,44.00089783343719 337.3123757512076,43.35589520668145 335.8708750223741,42.24215952499071 334.9819155911682,41.56287593016168 334.8243379200576,41.473847781075165 332.4443616712233,41.32383526873309 331.4837495466927,41.273089173133485 330.19633123569656,41.21655622846447 330.06613304896746,41.2080985425855 329.9976843378972,41.20186656329315 327.98004935123026,41.08167835697532 325.668230542331,39.22587511490565 323.35641173343174,37.358927538851276 321.75442062236834,38.272371673898306 320.41486478224397,39.03357223159401 320.07466012449004,39.23077171400655 319.18016654229723,39.48806558176875 317.0748589511495,40.11126747861272 315.1297504712129,40.65078084223205 314.21836316457484,41.03271277266322 311.5721651201602,42.07345167140011 310.4664999822853,42.50123043701751 309.8961911468068,42.71534207800869 306.4571531378897,43.98487294628285 306.42919111123774,43.997781883284915 300.77940536895767,43.98398267477751 300.7316369067412,43.99110484699486 298.7955578311812,44.37525667157024 298.74487665784545,44.39706828456838 297.04152320011053,45.297574428725056 294.5901855289703,46.60225575428922 293.1652872534469,47.362982452323195 293.11693624896,47.38167786767008 291.01425009791274,48.03957742929924 289.0539955201093,48.63960860762745 285.7905939911725,48.5884190677898 284.0432585956296,48.53811976918951 281.77629553782754,49.301510544726625 280.92403626674786,49.5498901809915 279.2454408534104,49.66250666230917 277.5546120534418,49.75865349423839 273.56944071117323,48.72373747767415 268.55316963559017,47.6064678573166 266.10445340455044,46.85241894843057 263.47514908446465,46.029372068762314 263.05076707561966,45.91319267853396 261.9459757512668,45.719560225436 260.5679721244378,45.50055503915064 260.5152520535048,45.48764619010035 258.198772906675,44.767865377129056 257.3870003200136,44.50746172177605 257.30952220456675,44.48654038918903 254.1859308090061,43.8139407443814 253.26347520004492,43.833081596472766 250.23833344015293,43.91231580381282 247.09639196447097,44.403745308634825 246.60385251557454,44.474521750351414 246.25083192891907,44.51235820364673 244.79272874677554,44.60539133765269 243.55977813340724,44.66236854868475 243.3311303112423,44.65880747343181 242.81849315564614,44.641447230707854 242.38275157345925,44.57378678454552 241.88846449786797,44.53283439925872 241.2371822934365,44.49811389262322 241.32835015119053,43.86112516745925 241.38835200003814,43.45783156494144 241.44864512002096,42.938801407057326 241.55845432903152,42.252397728327196 241.72680903121363,41.48942770983558 241.78535452461801,41.21254995622439 241.83166663115844,40.7585052998038 241.84914289787412,40.5216894808691 241.7967140978435,39.867773803998716 241.91788288007956,39.80990506685339 241.70438115566503,39.56062417884823 241.4501014755806,39.16177417244762 241.03737031121273,38.44419846194796 241.00096142233815,38.37742640997749 241.05659420450684,38.326679636898916 240.511334684561,37.84859104437055 240.09714716451708,37.47333083691774 239.9669489779044,37.31797381467186 239.4723706311779,36.842553937924094 238.93264526233543,36.23848432127852 238.41563904006034,35.68783135828562 237.86193265789188,34.92617410613457 237.62658560008276,34.588301929295994 237.3851218490163,34.20858462317847 237.05336405336857,33.70066162466537 237.00006144004874,33.43712881079409 236.7935502222972,33.091686672647484 236.54975630226545,32.6799153763568 236.2613979022717,32.287285165220965 236.0851788801374,31.720596565282904 235.84255004453007,31.106274208403192 235.52448199118953,30.026754329446703 235.40942990232725,29.72092650074046 235.33632085344288,29.531286324199755 235.11495480895974,28.80076947325142 234.99378602672368,28.41391953371931 234.82222734228708,27.532931928057224 234.78843989339657,27.223539286642335 234.745040497859,26.993831663625315 234.62095900450367,26.676870364928618 234.57464689784683,26.553112880326807 234.49542115570512,26.363469981530216 234.39755406230688,26.162697626976296 234.26706460455898,25.953466819250025 234.16948878229596,25.768275130307302 234.0596795734018,25.49137765157502 233.94841400906444,25.162839678116143 233.86831445340067,24.98076354432851 233.81209912896156,24.87481208203826 233.68772636458743,24.634862994018476 233.53655665786937,24.38912636623718 233.28198570676614,23.908781696751248 233.0460561066866,23.481857243576087 232.85731242678594,23.228996489720885 232.78041685349308,23.14040612190729 232.54040945786983,22.811419469711836 232.3114703645697,22.492226268048398 232.1337949867593,22.196181951498147 231.88184547564015,21.84003788640257 231.6450420623878,21.48389324656455 231.53232014237437,21.329415330314077 231.19968853343744,20.83570852712728 231.03657671122346,20.513396185822785 230.89822293340694,20.288133413763717 230.85773624898866,20.226252888678573 230.62559317343403,19.913288528332487 230.58568903116975,19.848291606991552 230.23907640890684,19.235716941650026 230.02994375117123,18.874225861625746 229.80712135124486,18.565711454255506 229.61022208002396,18.210006717708893 229.41128391120583,17.86676668492146 229.21176320011728,17.54088849434629 228.94699776009656,17.05607701704139 228.79349788452964,16.829029953456484 228.47746872901917,16.400756228948012 228.07143680006266,15.845156645111274 227.91356785793323,15.610094861593097 227.8084189867368,15.430682006059214 227.6898716444848,15.23390644841129 227.09626112005208,14.155199312313925 226.7321722311899,13.574663037550636 226.67741326231044,13.494527542148717 226.51080618682317,13.269257605075836 226.56148736004252,13.209601100941654 225.63174997339956,11.898489532060921 224.9659042134881,11.815682224114425 224.87910542229656,11.826812240411527 223.34294158231933,11.086887533427216 222.51019747566897,10.798396361642517 221.73832903115544,10.553979935008101 221.45113571558613,10.444905121694319 220.94548906676937,10.176892494200729 220.51877688907553,9.938708241446875 219.24883484456223,9.624838880263269 218.32317525346298,9.248195057502016 217.69140821346082,8.976174119045027 217.31333831127267,8.82524910022039 216.58952960011084,8.564357821363956 216.0116477155825,8.34264451242052 212.92825173342135,7.391233668138739 212.38211840006988,7.232293786946684 211.4517984711565,6.857426723174285 211.09207864897326,6.669102530344389 210.2744806400733,6.198068739147857 210.12738872889895,6.103238563169725 209.3208590223221,5.506208209437318 208.60607971565332,5 208.42374400014523,5.374425005575176 208.37976206233725,5.452782595762983 208.00343978672754,6.086320499365684 207.74275214225054,6.487011136719957 206.7200992711587,7.8965459750033915 206.4489258667454,8.237575477105565 205.62433735118248,9.214359410805628 204.30837447114754,10.878532836097293 203.83447637339123,11.496027915738523 203.4651446044445,12.134000469348393 203.38795776001643,12.300505214720033 203.04571420454886,12.74926604196662 200.90312391123734,12.398449123953469 198.20682723564096,11.245824638172053 192.89025564456824,9.53713346121367 191.44089059566613,8.753570810309611 189.97841834684368,9.806482479907572 189.41102222236805,10.51391164236702 188.8133339022752,10.555315544595942 187.34124970668927,11.545890456764027 185.34982912009582,12.935804252163507 184.5631058489671,13.68907866650261 183.13937265786808,15.198290944099426 183.08257479115855,16.33976499683922 182.17031367123127,16.946560227312148 179.1355599645758,18.10138087667292 178.5064143645577,18.440613858867437 178.40446947573218,19.123530118027702 178.63544746674597,21.48478360887384 179.3213909334736,24.127363135688938 180.33734456903767,26.692451338283718 180.99124821345322,28.722865339717828 181.55281891557388,30.864996409160085 179.35983872017823,31.408983989269473 176.6469395911554,31.534964555175975 176.5199453867972,31.55054518551333 176.03119246230926,31.708577231271192 173.54111573344562,32.301530264434405 170.75190357340034,33.252833716687746 169.43594069348183,33.77544790646061 168.02764487126842,33.64279127022019 166.71663360006642,32.80055331677431 165.12308935122564,31.110280664055608 164.03286158235278,29.58515127352439 163.1811848534271,28.02751408406766 162.3609654045431,27.13361501309555 161.35782769788057,25.81768927408848 160.72489557345398,24.262251369771548 160.1592470756732,22.896893721539527 157.33071331563406,23.258378211932722 150.10223815124482,24.616165651532356 148.77782840898726,24.821391157456674 147.29030684451573,25.08849565143464 145.32014904893003,25.81679892918328 144.01321557338815,26.213892368832603 142.26471509342082,25.927646833471954 140.36300600890536,25.29505623842124 139.4591917512007,24.7127685706364 139.17054208007175,24.55473151500337 138.07973176904488,23.98490682535339 136.91406478232238,23.146638611215167 135.90422784013208,22.254055307712406 134.87458446226083,21.35300994705176 133.3940534045687,21.233701293356717 133.28861326235346,21.302704440488014 132.18265685345978,22.192175333970226 129.1254752711393,24.763963648932986 127.27473863121122,26.52773813571548 125.56963754678145,28.035972275189124 123.61666474677622,29.951076449186075 123.54472078231629,29.98134760436369 123.24092501343694,30.110890295356512 123.07286158239003,30.129142008547205 122.43235640891362,30.065038423752412 121.41960675560404,30.359736694488674 120.9561944179004,30.569853650289588 120.10510023124516,30.994983743410558 120.06840007123537,31.533629072480835 119.92625976901036,31.917802582494915 118.99157077341806,31.97567338938825 118.3598037334159,32.307762495125644 118.62544298672583,33.34142002509907 119.00846449786332,35.1483058615122 119.25254968903027,37.23205999890342 119.27730773342773,39.838839437346905 119.20070343127009,42.56755610270193 118.71195050678216,43.8464356783079 118.02600704005454,45.042067868460435 117.52647708449513,46.94411570660304 116.99898510228377,48.448649307189044 116.4371231290279,50.52560102858115 116.31711943121627,51.546709859976545 116.08526762679685,52.76144041167572 115.92798122682143,54.12527795927599 115.77593770681415,56.72384588618297 115.57525191118475,58.55991731595714 115.20941539562773,61.184693994757254 114.30734876461793,64.51847590802936 113.45421568013262,66.93398976570461 112.66341461346019,69.16966292983852 111.89970176003408,70.7942171181785 111.26094421348535,72.39561526966281 110.73170460446272,73.3738955828594 109.86400796449743,74.75674393365625 108.78484849783126,76.18453577917535 108.58940558228642,78.28748543944675 108.21017059567384,82.35046095174039 107.51432391116396,89.82286496873712 107.05731953785289,98.54821206326596 100.66945280006621,127.65498153393855 99.6039830755908,127.54018000187352 98.9183308799984,127.23715706670191 98.27025265793782,126.75659120635828 97.29507697781082,126.37080285593402 96.33708629338071,125.85508242785 94.92616903118324,125.12710917764343 93.40049095114227,124.88815899938345 92.35337130678818,124.86012572131585 92.24385336902924,124.87125003838446 92.0341381689068,124.90551293169847 92.1751133868238,125.4381444969913 92.37638172449078,125.48620141705032 93.5018532978138,127.2202482856228 94.59149852453265,128.9631808217964 94.56266268459149,129.20123666123254 94.31246080005076,130.7439212713507 93.88516608008649,133.1622701709275 94.08934712898917,133.98588212020695 94.16682524455246,134.2706526897382 94.08468679117505,136.15502368519083 93.75438535120338,138.614693194977 93.65477063122671,139.24428943311796 93.34252800012473,140.98312257824 93.22398065787274,142.3544240121264 93.08417052449659,143.27499764593085 93.10135552007705,145.05384292698 93.13456042681355,146.55770794663113 93.2300973511301,147.77680994133698 93.3827234134078,148.42373213439714 93.73079239123035,149.33404722297564 94.47790279123001,151.14888218347915 96.37291264010128,155.98911066027358 96.71777763566934,157.29714205802884 96.75622542237397,157.6535125343362 96.7238943290431,159.11725040449528 96.8363249778049,160.3122583818622 97.29362062225118,161.64829277730314 97.8117919289507,162.82949527417077 94.17119431123137,163.88256200228352 89.26939278235659,165.25950479361927 85.72957496892195,166.20089272549376 82.52646656008437,167.5097533974331 82.03509219561238,167.4932925873436 81.79188081785105,167.83407559344778 81.35934321780223,168.8177165418747 80.52572529786266,170.99986229563365 79.08247694233432,173.04051608790178 78.29837511118967,175.47219270828646 77.77146567113232,175.26043415500317 77.2186331023695,175.07803691900335 76.731045262306,175.0050779823796 76.3695778134279,174.97660619567614 76.18578574236017,176.01582403079374 75.45848177780863,175.75246106949635 74.43612017785199,175.24619827856077 73.30220174230635,174.79420872521587 72.52276024897583,174.5077109306585 71.1767964445753,174.06817632447928 70.15647374233231,173.75543001428014 69.90248533338308,173.65711280389223 69.89403847116046,173.68869888072368 67.84785891557112,172.91194700310007 66.86103239119984,172.51689688977785 65.66798592009582,172.00172912608832 65.76876572461333,170.90198873810004 65.46555249788798,170.88463842112105 65.19525290676393,170.8681778626633 64.98058609780855,170.71958790149074 64.82621240906883,170.61726541485405 64.6430028800387,170.39571482490283 64.55795171565842,169.91435313841794 64.45979335124139,169.22256070672302 64.13823004451115,168.8101535119349 63.74064497789368,168.46981689729728 63.28101916448213,168.19443303032313 63.06256583123468,168.08766051777638 62.889550791238435,167.99823849869426 62.51381105789915,167.84119377075695 62.125546666793525,167.67658586229663 61.27853027556557,167.3224559999071 60.79065116448328,167.3571571924258 60.373842204455286,167.3059951759642 59.94975146674551,167.1618516917806 59.318858240148984,166.82729608181398 58.7497144889785,166.622202564904 57.73609102226328,166.22135763597907 56.67935943114571,165.6145277459873 56.17691676458344,165.258170119836 55.19562439119909,164.55613056675065 54.43890204455238,163.89946797554148 54.14034915564116,163.88523136655567 53.48324152897112,163.45012456201948 52.65049742232077,162.8188177658012 50.93170659558382,162.32898651319556 50.562957369023934,162.3570150338346 50.33314446231816,162.4624556270428 49.82982798235025,162.82816058571916 49.24961592897307,162.9625191895757 48.801640960155055,163.31487646442838 48.319296000059694,163.60227857279824 47.56053475569934,163.79269338579616 46.7513836089056,163.80470552970655 45.379205404547974,163.65700060361996 43.96333653340116,163.43410834425595 42.23697265784722,163.22144845395815 40.983341795625165,163.18452213413548 38.98929976904765,163.2356851057848 37.26206208008807,163.54800142312888 35.970857244567014,163.86387645138893 35.059178666677326,163.97509994532447 33.36718478228431,164.31544348865282 32.596481422311626,164.78213593899272 31.61897557345219,165.24037446791772 30.681665137875825,165.4521426318679 30.06242275564,165.68837956665084 29.203755520051345,165.87701302039204 28.400138524593785,166.21468429581728 27.186703075654805,166.40910085639916 26.51532316452358,166.2275860866066 25.95491754671093,165.97889281401876 25.395677013439126,165.7070649630623 23.485229795682244,164.64110505464487 22.323058062349446,164.11301699990872 21.48885760002304,163.62318861868698 20.883304960094392,163.22812188463286 19.952111217891797,162.65554080239963 15.158953813370317,163.25392581446795 14.974870471167378,163.45902246033074 15.101864675641991,166.9838966432726 14.73282417783048,171.24232160364045 15.282161493436433,173.2451587675023 15.229732693405822,173.4782732410822 16.065098240156658,175.6603729329072 17.139306097873487,178.5973872366012 17.41776128008496,179.3928033511038 18.170988373458385,182.24657975381706 18.276428515673615,183.88676159613533 18.333808924537152,184.49665523529984 18.370217813411728,185.09987442049896 18.38856789341662,185.70353680779226 18.372839253395796,186.32321210333612 18.33963434677571,186.9277608410921 18.28283648006618,187.53275277023204 18.200406755669974,188.14441571908537 18.100500764441676,188.7422868112335 17.97496291564312,189.33926659903955 17.51854108448606,191.1177407813375 16.97182520898059,192.5754739443655 16.392486969009042,193.84636741806753 15.557121422258206,195.65594340243842 15.910433280048892,195.7088781700004 16.130925511242822,196.06963494454976 16.219471929012798,196.38234964956064 15.426049422239885,198.34314527281094 14.535924906725995,200.94401949783787 14.4951469511725,204.2908151395386 14.45087374234572,205.2698455824284 14.741562311188318,208.61968928697752 15.061377991223708,212.4685440332396 15.453720177873038,216.26840496435761 16.03422350238543,219.359218686237 16.03422350238543,220.91239295963896 16.159470080048777,223.0384270886425 16.663369102287106,223.48409106204053 17.259309795568697,223.65844239166472 18.665857991203666,223.9048468421679 20.49678819568362,223.1127044800087 22.44568320014514,221.95495283906348 24.041266346815974,221.40209426690126 25.518884693505242,221.20416789292358 29.401237333426252,220.21097511739936 29.40065479115583,221.9340483165579 29.723965724464506,226.20075379509944 29.79620096005965,227.0071176206693 29.930768213351257,228.043866784079 30.157959680072963,229.04280624719104 30.211262293509208,229.453321911511 30.24097194673959,229.85449682886247 30.28408007125836,230.2485548518016 30.313789724488743,230.63994361425284 30.362723271129653,231.0491220332915 30.446026808931492,231.86614232568536 30.697976320167072,232.99048539617797 30.75535672903061,233.15415511268657 30.79089180449955,233.33961766108405 30.98429582233075,233.29425273556262 31.298286080127582,234.7819505817024 33.020280889002606,239.55096643225988 33.63602801784873,240.3563920315355 34.52819143119268,240.4671322624199 34.33303978678305,241.09021180367563 34.53430812456645,241.20895695575746 34.090119680040516,241.93210021150298 32.854838897823356,244.85889383929316 32.385309866745956,246.5515332625364 31.2208079645643,249.50272535858676 29.638040746795014,252.9973198529333 27.36641735129524,257.6040697132703 25.64296618674416,262.9022246596869 24.640411022352055,265.37337869557086 22.642291200114414,267.6288329248782 19.126940160174854,271.3010117658996 16.43646890670061,272.6372641635826 14.34368597343564,273.28382065775804 9.442175715579651,275.86558102210984 5,279.04627185547724" stroke="red" stroke-width="3.5629593744451427px" fill="none" stroke-linejoin="round" vector-effect="non-scaling-stroke"></polygon></svg>