<svg width="180.158252942143" height="205.31441029696725" xmlns="http://www.w3.org/2000/svg"><polygon points="5,71.44774117972702 5.311368817696348,72.17312059528194 9.340230826521292,74.56331743980991 12.534018559963442,76.49305971595459 16.464722204371355,78.83986553514842 17.78796686208807,80.21184642740991 17.42300415993668,81.33879279019311 15.492167964344844,82.24812995054526 14.902343964320607,82.63114730769303 14.526895502116531,83.02654790389352 14.071638755500317,85.01061676174868 13.935323875513859,85.76337297202554 12.148666879860684,86.19105412252247 10.308124728733674,86.37327169405762 9.5933454221813,86.82793041871628 9.420621653203852,87.1432719634613 9.431398684391752,89.83183895878028 9.893937208806165,90.95210244285408 10.086758684366941,92.17186967085581 10.392593351076357,92.74990785261616 11.039215217693709,93.27443086670246 12.748102826531976,94.13462823390728 14.27290709328372,94.55742839042796 15.564985742093995,95.04877776885405 18.153220835491084,96.4445401817793 20.34357959101908,97.84383183147293 20.956122737727128,98.26706716849003 21.49613937770482,98.77211810200242 22.728798719937913,100.09223266702611 23.82805589318741,101.20006143907085 24.891777991084382,101.82583851914387 25.938606364419684,102.35122455575038 26.735524124349467,102.8973947474733 28.67276828433387,105.82192528765881 29.696003697696142,108.35327367915306 30.317867519916035,109.7821195271099 31.38595868437551,111.55412324075587 31.053035804303363,112.87283505906817 29.266670079901814,114.75050441978965 28.583930595545098,115.63405600481201 27.423215217655525,116.94168820255436 27.548753066570498,117.14466457557864 28.583930595545098,119.24649831844727 28.813160959864035,119.89566154161002 28.811704604304396,120.6611233643489 28.169743075501174,123.31744554830948 28.20498687995132,123.76318452571286 28.07362360879779,124.43444450973766 27.70225294213742,126.68699775170535 27.502732231048867,127.60853041114751 27.30379406211432,128.614075595513 26.612316444399767,130.48099920072127 25.879187057726085,131.25173072511097 25.178388764266856,132.05297029664507 24.66924686206039,132.8387305754004 24.250690275453962,133.4772416612832 25.061880319961347,136.06619956233772 25.14489258651156,136.59106232202612 25.07993912883103,137.5607507417444 24.964595768833533,137.74690567154903 24.378267022198997,138.39955212490167 22.785596586531028,138.8249209341593 20.758349653333426,139.96350806753617 19.823660657624714,140.3950642264099 18.020401208777912,141.4611281469697 16.53258837328758,142.38525241008028 13.211806435487233,143.97261476551648 13.660946488846093,146.59814907092368 14.21319651545491,149.70515330857597 14.913120995508507,153.6349406503723 15.474691697745584,156.7113389975857 16.017912319861352,159.73994473100174 15.902568959863856,161.42445060866885 16.63802851550281,163.53117027162807 18.697023999877274,166.52077671914594 19.378889670944773,167.39262714830693 19.599964444409125,168.32150661956985 20.091630079899915,169.79152448836248 19.640159857692197,170.00859998579836 19.44588202657178,170.10453756165225 19.59909063100349,170.48519269528333 19.750842879875563,171.2168798809871 20.084348302101716,171.168690285529 20.278917404357344,171.1828376908088 21.565753173315898,171.40654341620393 22.533064533257857,171.68860683531966 22.616076799924485,171.74608052882832 22.53044309327379,172.43355316936504 22.697632711031474,173.62546210049186 22.84588970663026,175.16529639076907 23.786112853209488,176.72678266605362 24.934594844351523,178.05881195969414 27.933813475538045,180.64327080873773 28.248386275488883,181.162723067333 29.21511509316042,182.42973938956857 29.80581290659029,183.22858371422626 30.050771911046468,183.52212622982915 31.245857279980555,186.01677985314745 32.36870741320308,187.91283930907957 32.67250318219885,188.42608553782338 33.017368177650496,189.0082936466206 34.941213866579346,190.25139346986543 37.61886919103563,194.66407635225914 37.52391480875667,194.72242821275722 37.543721244321205,194.75293031556066 37.65673443546984,194.9293119580252 38.124807110987604,195.6445623942418 39.29396935098339,197.35576097131707 39.729419662151486,198.5864365727175 39.79961599991657,198.78491773840506 39.9050561421318,198.982072573388 40.15409294213168,199.371961215802 40.71333347540349,200.0036500901333 40.73721770651173,200.23793591943104 40.87528021319304,200.31441029696725 41.025576106621884,200.0854291341384 41.40015075553674,199.5050182940904 42.021432035486214,198.63727252290118 42.09687125321943,198.53825292212423 43.24477070220746,197.03394524840405 43.3805030399235,196.9190109485644 43.7309021865949,196.96807906078175 44.03557176887989,196.61178243154427 44.23625756439287,196.51718248595716 44.55869468441233,196.4239086683374 46.33544846216682,197.1011375806993 46.40447971550748,196.95349124469794 48.09938631101977,193.33170469559263 53.76460942218546,188.52068893355317 54.54667235550005,187.52602504449897 56.30303715541959,185.2922147322679 57.14189795544371,183.5530719542876 57.51705514662899,182.90542124869535 57.953379271086305,181.546895912732 58.03610026661772,179.93371916247997 57.88813454215415,177.1007950177882 58.07542186649516,174.81471203267574 58.088529066648334,172.31949033204 58.23008682660293,171.32342748134397 58.15610396431293,170.18676973640686 58.153773795464076,170.1509589543566 58.56242716440465,168.71321759623243 59.290604942128994,167.47220764576923 60.02722958207596,166.86341611493845 61.4550405688351,166.25948619184783 63.149655893212184,166.1684102335712 64.48659029323608,165.34341950970702 64.62086627539247,165.26030130311847 65.38079260429367,164.68156782031292 65.94731491548009,164.1607506069122 66.25810119102243,163.8751406481606 66.73520327103324,162.9855914853979 67.26619050651789,162.02397244871827 67.37978623993695,160.61403244844405 67.23793720873073,160.02246511349222 66.5773343287874,158.12616726040142 65.98051982210018,157.04470871965168 65.04612209764309,156.36028333759168 64.71669447096065,156.11887698201463 64.50173639098648,156.34967207466252 64.45338538661599,156.4553425447084 62.82051953766495,155.44727073877584 60.25471231993288,153.85601122723892 59.71090915543027,153.39706846361514 58.893602417665534,152.72103254764806 58.82544497773051,152.66001677833265 58.77010346658062,152.61403386853635 58.52601827541366,152.42789141531102 57.129373297677375,151.047956385999 56.528480995446444,150.36351250088774 56.31206655991264,150.04162859992357 56.21594709320925,149.852388945641 56.07438933325466,149.6481160535477 55.975648426567204,149.39962799608475 55.48310897767078,148.3132632378256 55.211353030987084,146.17677457421087 55.073290524305776,145.56969322561054 55.20494506659452,144.24189042812213 55.249218275537714,143.98809038719628 55.293782755499706,143.7798326453776 55.35727985773701,143.56582660932327 55.42660238221288,143.38144521031063 55.507575751049444,143.1921998738544 55.60078250663355,143.00472302618437 55.699523413321,142.82830009335885 55.758068906492554,142.73809884034563 55.85826616873965,142.5877633371856 56.06681628432125,142.30212560045766 56.08924415986985,142.31848566653207 56.36420408880804,142.3189278304344 56.478382364381105,142.33130842016544 56.499353884370066,142.25127673882525 56.75305102218408,141.99747442017542 57.1713163376553,141.57874417607673 57.34141866653226,141.67204105708515 58.45145287096966,140.6002299746615 59.27312867541332,140.0528261119034 60.203739875461906,139.51957032317296 60.294325191061944,139.46650997549295 61.266588159953244,138.94121184921823 62.79663530655671,138.30979124287842 62.86828799988143,138.5224758355762 66.84209976880811,137.30650088214315 70.44162815995514,136.22759388771374 75.09701432881411,133.9441848929273 78.29225841769949,132.1772240769351 78.40294143988285,132.11620265606325 78.50721649767365,132.05871869367547 80.88049351098016,130.7383521934389 83.2322164621437,129.69699932588264 85.07363242655993,128.7604408513289 87.3001087999437,127.34586746164132 88.33353870210703,126.68655555660371 89.32094776886515,126.01972435263451 89.67950250662398,125.85788040258922 91.34528199105989,125.42629595869221 92.26715505775064,124.56091355462559 93.55777735100128,122.3777647097013 94.43625102215447,119.68384350533597 94.51664184883703,118.70567491813563 94.8213114310056,118.74503169412492 94.9590826665517,118.78925278241513 95.05025052442215,118.85779545188416 95.33977400884032,119.21996572124772 95.7158050131984,119.44858816312626 96.49990684434306,119.56798470253125 99.13241514656693,120.53995858400594 99.33834382216446,120.92290981707629 100.10700828430708,121.77106042514788 100.65314161777496,122.17877296253573 100.70964821323287,121.7184380365652 100.93450951110572,121.14135976240505 101.03587185766082,119.9155609292211 101.05276558210608,119.71170267404523 100.9598500977736,118.56107187224552 100.72712447994854,118.02687998604961 100.37701660441235,117.22249424661277 100.25759544875473,116.88818023889326 100.110794808832,116.43225648760563 100.07147320883814,116.25581241759937 100.0554532976821,116.09351912664715 100.21361351106316,115.86710430972744 100.31060679105576,115.72824823344126 101.04839651542716,116.05548852903303 101.75560277327895,116.20141985651571 101.94696789328009,116.24696809967281 102.6480574576417,116.40660798491444 103.58449407992885,114.33128051459789 103.88304696884006,114.00447989540407 104.2681073776912,114.33216495404486 105.92223601765,115.21748707746156 106.62390812439844,115.67960436444264 107.25334499543533,116.1408362564398 107.39519402664155,116.22308843932115 107.99200853332877,115.00610679166857 108.10706062207464,115.05784633633448 109.36185656883754,115.6234427933814 109.43030527990777,115.65439799183514 109.98867199989036,115.89452174119651 111.03753927105572,116.34956216649152 111.06579256884288,116.36194420588436 111.6256156443851,116.46851815877017 111.65241258661263,116.47515139065217 111.75814399996307,116.49593551596627 111.92882887099404,116.48709120752756 112.8061374577228,116.4304876254173 114.28725105768535,116.51760407007532 114.48473287106026,116.52865945396479 115.25893148430623,116.57199655368458 115.40544085321017,116.58039864338934 115.52311438217293,116.56801661627833 116.4278024531668,116.40395469137002 116.28915740433149,116.85412970988546 116.46362879988737,117.50153108150698 116.51081471994985,117.67664752126439 116.21721343987156,119.15230758395046 118.30999637325294,120.45859241695143 120.14325674658176,121.8634812287055 120.93726179539226,122.40120150375878 122.41954047989566,123.58586188498884 122.49352334206924,124.09085516695632 122.55964188440703,124.09395056881476 122.95606186660007,124.01789211051073 124.49805112881586,124.91821032692678 124.97311431111302,125.38074960047379 126.07732309331186,126.15238323993981 126.30800981330685,126.31953332491685 126.67763285327237,126.68346019089222 127.3338666666532,127.10575610946398 128.1502995910123,127.2835181299597 129.14790314657148,127.3317172601819 130.20929507550318,127.12830801540986 131.10757518210448,126.84043939586263 132.1290629687719,126.38895805872744 133.08297585777473,126.0223775311606 133.68415943102445,125.89325613941764 134.66486926213838,126.15105665143346 135.50139989331365,126.07234572072048 136.34404721762985,125.51738864684012 136.48997404437978,125.27152674237732 136.62949290662073,125.04379469924606 137.22543359990232,124.39243554533459 137.87205546663608,123.9643858539639 140.22115697769914,122.80404865171295 140.54242901329417,122.57675627840217 140.39009422215167,122.45957237633411 139.86114588426426,122.01869502745103 144.9213988976553,119.07845848245779 147.05874631099869,117.65409465419361 148.4967517865589,116.8355566917453 150.73400519101415,115.44920916750561 153.30767672881484,113.04043737449683 155.53531818662304,110.89697552414145 156.16592014208436,110.33004033064935 156.97798399999738,110.54628957307432 157.30566399998497,110.94915825384669 159.00726983102504,111.55898771859938 162.16901774215512,109.6423751830589 163.33148074662313,109.78875295899343 164.21548856876325,110.122193211806 164.55452814209275,109.64723970281193 164.60404423100408,109.17095848661847 164.33869624882936,108.97151265956927 163.88839111104608,108.78931365418248 164.25626652431674,108.0428268458345 164.76628223992884,107.27378360246075 164.7537575821625,106.31899877486285 164.82657535991166,104.07198778528254 165.24979228433222,103.7274824148044 165.45164316438604,103.15124181192368 165.19561585772317,102.39898686105153 164.9809490487678,101.44506553793326 165.06017479102593,101.485309867654 165.13474019546993,101.11647694627754 165.11202104878612,100.65256032638717 165.592327110935,99.43858898349572 165.7633032532176,99.00474187545478 166.1908892444335,98.64032733888598 167.0402358043939,98.31350359832868 167.51209500432014,97.84692759963218 167.89832049771212,96.03899161552545 169.2687510754913,95.36101182166021 169.8495456710225,93.9466676544398 170.3120841954369,94.08332606800832 171.65134876442607,92.3461215843563 172.50273422210012,91.48414821893675 172.55545429326594,90.4302275404334 173.36052764428314,88.97427852393594 173.46159871993586,87.74962870881427 173.25304860435426,84.8487428833032 172.8819692088291,83.3653357734438 172.95333063101862,83.07917947368696 172.7325471288059,82.03450681851245 172.3824392532697,81.62495133560151 172.1931130309822,81.01902013027575 171.7940716088051,80.73861053033033 170.44694271998014,79.36928663373692 170.1437294932548,77.79296144662658 170.4973326221807,76.88404831232037 170.74578687991016,76.40681213862263 170.7731663644081,76.35417898523156 170.83549838210456,75.06930695404299 171.10929322661832,75.0295001285267 171.23046200885437,75.01623118511634 171.34842680871952,74.99455857579596 170.99831893318333,72.11164035880938 170.7361749332631,70.11684070376214 170.66510478209238,69.41578157473123 170.934239288792,68.70675863680663 172.9710981687531,65.23813090543263 175.04727864882443,62.15559791337 174.89115733327344,59.149987465003505 175.158252942143,58.409526186296716 174.95232426654547,58.02248600352323 173.66577976883855,55.60822467668913 173.47645354655106,54.96020026016049 171.75970161764417,49.15664802247193 171.32599893317092,46.669744011654984 171.06094222213142,42.66905228263931 170.31674453325104,40.27364558598492 168.36406300438102,39.50392492121318 164.36782335990574,40.12589481502073 163.14623231987935,40.31080444710096 159.63816305762157,44.40310709615005 157.59577002655715,50.07231002987828 156.63836188439745,50.01347775373142 154.90908529772423,54.24626536568394 153.0423287465237,60.74281126225833 152.64532622217666,60.879932464973535 151.2014953243779,65.23149614094291 150.3186525865458,67.23872452427167 148.99453411542345,68.9730295256013 147.32263793761376,70.37205221492331 144.66245887998957,72.56588602031115 143.54485162661877,73.12982164719142 140.13697962660808,73.85784936323762 138.12750023102853,74.43106999015436 136.48094463988673,73.97417434793897 134.71263772435486,73.5066625373438 133.44619093323126,73.10018741851673 132.19518151099328,70.65601337782573 132.50043363543227,68.14458100916818 132.79053966212086,67.62397937022615 134.69370510219596,64.21460554620717 136.1736536177341,62.34845099714585 138.09895566210616,59.919197608716786 139.63977983989753,57.45895428955555 139.85415537760127,56.132835547672585 140.17746631102636,55.08449724048842 140.44893098657485,52.50122895021923 140.484174791025,49.48885240522213 140.45796039095148,49.35659000085434 140.4326198042836,49.22830866376171 139.74755015107803,46.771927917026915 137.7797225243412,43.60243551287567 137.7386532976525,43.50953972758725 137.18057784880511,43.06850539718289 136.48793514654972,42.88005916704424 135.9359763910761,42.86015286576003 135.3694540798897,42.9818024567212 134.52855438215192,43.132205495086964 133.85484430217184,43.22775560757145 132.96151580428705,43.37329250550829 132.27207708440255,43.525022361194715 131.04378680884838,43.701081946957856 129.87025550217368,44.13857614144217 127.28143786662258,44.65392461628653 125.31681422214024,45.05381651298376 124.29998677328695,45.18077319220174 124.05561031110119,43.433011265762616 124.04658090660814,43.389659870998 123.57588679110631,43.45159043231979 122.98781041766051,43.10035544837592 122.39361735107377,42.73540667042835 122.29138119099662,42.65666612808127 121.33921592880506,41.639229638502 120.94425230205525,41.21677094179904 120.47414072882384,40.7062805108726 120.76861582207493,40.43555200641276 120.99580728879664,40.15420634759357 121.38698439102154,40.02547731867526 121.72806286206469,39.913558205240406 122.08399615995586,39.54550760006532 124.32387100439519,38.969984936353285 124.22017848887481,38.56742784252856 124.1834783287486,38.43560129473917 124.17095367098227,38.34535757248523 123.86541027540807,37.936606135452166 123.81851562659722,37.887945199909154 123.79200995550491,37.909179064037744 123.62831559102051,37.77071653859457 123.4194742043037,37.558820046368055 123.39617251546588,37.52387258870294 123.28141169762239,37.35178945749067 123.18004935106728,37.19209265324753 123.05159879103303,36.92357172869379 123.26539178658277,36.67628446110757 123.43141631991602,36.42191891599214 123.70754133327864,35.88222061924171 124.13221461325884,35.537609298247844 123.30413084442262,34.400697804347146 122.92868238210212,34.378136466722935 122.73323946655728,34.07068271492608 122.36623786657583,32.588263030396774 121.58388366212603,30.52453783538658 121.02580821327865,29.289390224032104 120.76075150212273,28.52228577248752 120.7220124443993,28.331172831822187 120.57229909324087,27.613170659169555 120.48957809770945,26.504089412628673 120.48462648887653,26.439942142460495 120.74036252440419,25.152126468834467 120.79803420428652,24.861028656945564 120.96027221321128,24.507994627696462 121.01794389321003,24.331035003007855 121.08464497770183,24.103641677938867 121.10882047982886,23.924912130343728 121.12163640884683,23.76299365342129 121.09163548436482,22.913140910794027 121.00804067542776,22.82112126168795 121.08988785766996,22.65212353738025 121.32173966208939,22.17432822729461 121.44028700434137,21.53947823634371 121.6762166043045,21.247048465302214 121.75952014210634,21.1351198728662 122.24419527105056,20.483013037359342 122.3202170310542,20.386568308633287 122.57944831997156,20.058301990968175 123.33442303992342,19.38849562499672 123.69705557322595,19.242942983284593 124.34775523550343,17.961279274197295 125.81983943108935,16.681377814442385 126.89929016877431,15.189993512642104 127.14599679992534,14.808186900510918 127.2453202487668,14.697139894589782 127.67174115544185,13.876894550048746 128.37952995544765,12.913301482622046 129.1563500087941,11.845734576229006 130.23958727100398,10.934781377553008 131.65662122657523,9.755270606954582 134.89963377767708,8.200129598844796 135.0679884798592,8.043951250438113 135.1049799110042,7.851935793238226 134.89934250654187,7.559930401213933 134.58069191104732,7.388266445836052 133.8344553243369,7.313937681610696 130.530858382117,8.15721374633722 130.04763960884884,8.28065210377099 129.23208049766254,8.293040178832598 128.39321969763841,8.217384423769545 127.57591295987368,8.461606417375151 127.54882474662736,8.46337614103686 127.32978887110949,8.477976360241883 127.22143601765856,8.485497684916481 126.48335502215195,8.197917441721074 125.81954815995414,8.049702862976119 125.36341759981588,8.032005593297072 123.64375295990612,7.9231673531467095 123.28345059545245,7.808577441144735 122.15914410667028,7.374993454082869 121.92933119996451,7.407733498956077 121.92030179547146,7.408175932010636 120.67191381321754,7.060865750012454 119.79868302214891,6.951584599271882 118.58961663988885,6.968839521403424 117.43909575103316,7.264385158254299 116.69431551988237,7.644877464044839 116.48605667543598,7.826274728751741 115.97807985765394,7.840432557743043 115.45175295986701,7.871402805671096 114.74309034657199,8.06120608758647 113.9205407287227,8.669991275295615 113.87393735104706,9.10180301143555 113.47606101329438,8.470455035276245 112.4676804265473,7.683811523602344 111.73892010655254,6.648074724187609 111.06346239987761,5 109.30622378655244,5.295105824247003 107.82044984877575,5.7764770003268495 108.95524209761061,8.3133920149412 110.01779911096673,10.723301663529128 110.78588103095535,12.504503158503212 111.28075064881705,14.020681035355665 111.31366428441834,14.485663769184612 111.3352183465613,15.091334393131547 111.22220515541267,16.65306328452425 110.77568654215429,17.536120984645095 110.1573179733241,18.20991464960389 109.17893831105903,18.78239432926057 108.69688462209888,19.004041783628054 108.31153294211254,19.171715059899725 105.38746225775685,20.491861175512895 104.19907612435054,21.00461017806083 103.73012963542715,21.166088263795245 102.86680206214078,21.48108079400845 102.23153976886533,21.613359827024397 101.81443953770213,21.61778387357481 101.43695217766799,21.614687041030265 101.43695217766799,21.62618956179358 101.3140357688535,21.641673723468557 101.20946943992749,21.654503456666134 100.84741944877896,21.62088070611935 98.31714730651584,21.48285041365307 96.81360583100468,21.69299265171867 94.30925681767985,22.047800778294913 93.27320547541603,21.927466913766693 91.1291588266613,20.539641115348786 89.32822954654694,19.34292748302687 88.73665791994426,18.67798547167331 88.12207587540615,18.131165397237055 87.51186289766338,17.6564572325442 87.27709838212468,17.89314782380825 86.69921649771277,18.401921136653982 86.0185159110697,19.108008078008424 85.68559303099755,20.305607792921364 85.36956387548707,20.673247929662466 84.7375055643497,21.26739911234472 83.06677447108086,22.909159292117693 82.6741410131799,23.039667865959927 82.61093518219423,23.052939919987693 81.82275555550586,22.116373355849646 81.71294634661172,22.059745680482592 81.49827953765634,22.054436835169327 81.03428465768229,21.965513657429256 80.05270101327915,22.884827176691033 79.25520071096253,23.205568484438118 78.78275896888226,23.424999511858914 77.98933646210935,22.595495998859406 77.1679519288009,22.46454476058716 77.30251918209251,22.778650641441345 77.3983473777771,22.905620075413026 77.86700259544887,23.52011571638286 77.94972359098028,23.63160070416052 78.03797873761505,23.744855237426236 78.29866638209205,24.087272888747975 78.38342627545353,24.19654559378978 78.47022506652866,24.3124542341684 78.98810510220937,24.991536081884988 79.07344753772486,25.10700190917123 79.15966378664598,25.219813291332684 79.50773276435211,25.686984522093553 79.68744703987613,25.926320917147677 79.73987583990674,25.88783245702507 79.8796859732829,26.070099588599987 80.27377578662708,26.474006557138637 79.94085290655494,26.95090781385079 77.5812656354392,27.637944648391567 76.89910869323649,27.755178667022847 76.79745507554617,27.775971109163947 76.57346759096254,27.81268967234064 75.55722268437967,27.983453031163663 75.47042389318813,27.998936748947017 75.00468138651922,28.082548806036357 74.4489361065207,28.19226193364011 72.14352526213042,28.664735588710755 71.14679551986046,28.849212388624437 70.61813845322467,28.9474229963962 69.78277290659025,29.102259451989084 69.01294335990679,29.19781561056152 68.26991075545084,29.209760127589107 68.0785456354497,29.19914277922362 67.71795199986082,29.180120028788224 66.30004423111677,29.100932282861322 65.89022577775177,29.081909523985814 65.87828366213944,29.1411897437647 65.6796367643401,30.12550450989511 65.57681806210894,30.7183032046305 65.30593592883088,31.863196495804004 65.12330894218758,32.75282935728319 64.8559220621828,33.87957455648575 64.80174563545734,34.22241893631872 66.5851986487396,34.730270024214406 66.86278001766186,34.912972265155986 69.91530126216821,34.827150892233476 71.77943637326825,34.52190965763293 72.6602402132703,34.256924534915015 73.6325031821616,33.892403581528924 74.28757191100158,33.71235478267772 74.86283235542942,33.65971149445977 76.48026083549485,34.032195668434724 76.37249052431434,34.08085745020071 76.26938055106439,34.13703967584297 75.26449521770701,34.77096884150524 74.87127921765205,35.04922468587756 74.56194929778576,35.30491893773433 74.2692218311131,35.57211469206959 74.02280647098087,35.829135469859466 73.85503431106918,36.052093011676334 73.14171135996003,37.20315199246397 73.27365717326757,37.28764532553032 73.39482595550362,37.091231454513036 73.41201095108408,37.096097566070966 72.4068343465915,39.026165923220105 72.291490986594,39.27300820068922 72.03662876435556,39.441993257263675 71.75205688877031,40.5687044657534 71.73865841771476,41.049556701327674 71.53797262208536,41.52333005523542 71.15815509331878,41.66532915458083 70.10637511103414,41.7250483748503 68.60953287105076,41.67638827068731 67.27755007997621,41.34594164445298 65.77779512875713,41.01151323213708 65.49089308432303,41.944018711394165 64.61358449771069,43.00215110904537 64.3866843021242,43.48299806751311 64.14376419549808,43.63915145525243 64.0476447287947,43.6471139480127 63.060526933171786,43.72939302306622 62.19923825771548,43.80105541832745 61.911462399875745,43.89395108143799 61.74252515542321,44.22306683182251 61.58116095990408,45.00604185531847 61.58698638214264,45.35638910601847 62.21758833772037,45.954897712159436 62.734012017725036,46.81970219424693 62.12379903998226,48.04280865716282 61.38455295981839,47.65442332148086 60.41986303997692,47.572145702899434 59.64391679991968,47.506235115462914 58.46339498658199,47.60664922418073 57.64346680883318,47.69998564547859 56.71722467546351,47.75881853554165 55.978561137686484,47.84817372215912 55.06134840880986,48.32458665827289 53.774512639967725,49.01023022038862 52.35281834658235,50.04488445946481 51.382594275521114,50.97558256634511 50.93694947543554,51.3966956352815 50.33518335991539,52.15620111266617 49.936433208873495,52.64985616086051 49.48175900429487,53.212073071626946 48.852030862122774,53.793751538032666 48.297741937683895,54.25068876123987 47.72947199991904,54.62225366977509 47.32081863109488,54.88942614768166 46.48166655993555,55.3308793050237 45.9733984710183,55.90060913481284 43.38428956433199,57.33067763969302 42.93660586664919,57.265212286263704 42.333965937723406,57.07102777971886 39.78330481762532,55.38617147220066 39.472227271064185,54.76512905803975 39.24066673766356,54.19981970748631 38.599870293284766,53.11033447587397 37.8894600532949,52.24599687079899 36.623887075460516,50.612858483567834 36.11445390211884,48.97439986735117 35.365887146559544,46.50430330331437 34.94878691539634,45.95047415117733 34.7979084799299,45.750086745014414 34.01380664878525,45.27499534969684 33.453401031089015,45.283842498552985 32.212877368787304,44.978615658241324 31.404891306650825,44.710546521586366 31.378968177712522,44.77513086464023 31.193428479949944,45.27057177509414 30.215340088820085,45.70496637688484 28.93491228437051,46.24331369949505 28.204113066545688,46.29374222306069 27.698757688864134,46.27604800561676 26.336773973191157,46.15174608770758 26.02424007107038,46.187576896860264 25.70384184876457,46.235793655505404 24.912458239938132,46.43795004329877 24.604875946533866,46.461837219190784 23.998740764451213,47.04220633127261 23.348623644327745,47.71546798653435 22.55112334212754,48.352454792824574 21.354581617633812,48.999613820109516 19.777348550967872,49.81397871597437 19.839098026510328,50.344796158140525 19.68676323548425,51.86115765152499 19.620062150992453,52.109755016630515 19.65093688876368,52.263248268398456 18.230116408783942,54.47451245924458 17.63679715548642,55.076092820381746 16.06247679993976,56.12531583907548 14.737484515528195,56.866669413866475 14.299995306530036,57.02900605322793 13.652499626623467,56.86357307352591 13.252293119905517,56.98831132100895 13.14481407997664,56.65921451651957 12.144589084316976,56.32259752164828 11.276892444351688,56.40354488766752 10.792799857677892,56.80872360919602 10.685029546613805,58.34184949455084 10.756973510957323,58.51435866818065 10.78930460428819,58.59486290323548 10.703670897637494,58.69261800654931 10.589783893199638,58.817797555588186 10.514053404331207,59.32736163365189 10.417642666609026,59.94441031687893 10.338125653215684,60.68044320330955 9.984231253270991,61.588980428292416 9.504507733276114,61.77210286515765 7.852709262049757,61.412050393992104 7.802028088830411,61.84154780773679 6.588592639891431,65.72069891530555 6.041002950980328,67.5987675350625 6.0322648177389055,67.73455756052863 5.98653525323607,68.44933365291217 5.190200035460293,70.14912917802576 5,71.44774117972702" stroke="red" stroke-width="3.8010903355035763px" fill="none" stroke-linejoin="round" vector-effect="non-scaling-stroke"></polygon></svg>