<svg width="2178.4869165511336" height="2025.8930709766573" xmlns="http://www.w3.org/2000/svg"><polygon points="5,619.0385671537952 25.117221831111237,640.4036835238221 26.912325688870624,640.4145507538924 25.365384817821905,646.9737308597541 24.90051612444222,648.2845470691682 38.89667555561755,655.0082990415976 39.84185031114612,656.0990214769263 33.50903381337412,662.3226906548371 33.81079068442341,662.9651500958716 38.31558968895115,661.0413881593267 40.26856248895638,660.104629024805 43.04495872010011,665.6458924175822 43.346715591149405,666.8393350734259 38.949395626666956,668.8028871669085 36.39378289785236,669.3448189973715 40.73168355564121,688.8693122050609 40.96295281779021,690.8643546330859 27.201266631134786,687.8892131966422 25.524418844492175,686.4437288808986 21.82818844448775,692.0766723822453 22.05829262221232,692.7294560700539 13.42006528005004,691.9046486161533 12.525862968876027,691.811846264929 29.04909055994358,697.3011505713803 29.681731413351372,697.3939505859162 11.534376106690615,702.9926608186797 11.819239253294654,705.1668301169411 20.4035814399831,708.6926230149111 26.14948664896656,708.6976022687159 31.18469034670852,716.5167010635487 34.5666392177809,717.6781804130296 35.13869568007067,732.4523277122062 35.26568988454528,733.9251160504646 25.24130332446657,738.0600949153304 21.660416284459643,738.3470421588863 12.166434417827986,752.0395084252232 12.129151715547778,752.2137475964846 73.27744369779248,779.1906276974478 77.88680903112981,781.9427950610989 72.39343587565236,787.7863973068306 71.80739840003662,788.3402508173021 77.34475349332206,795.9135134585667 77.40737678227015,796.1202959938091 75.0029337600572,803.8330992609845 74.98458368005231,803.9711001206888 92.91028167109471,818.1906026020297 92.93853496888187,818.3539305622107 85.94162033789326,831.7133815878769 86.12599495111499,832.1291405971278 106.52749738667626,849.6938954063808 106.94139363558497,850.6583393923356 129.18809856008738,844.7643981684814 129.43247502227314,844.7942550532171 140.48679623112548,857.4382783447509 141.9705312710721,857.6273608912597 133.43716152897105,864.6341559520806 133.10686008888297,865.0091420604731 143.56640568887815,869.5301843890338 144.55410602665506,870.5632938652998 145.57035093335435,879.3404561175848 145.47714417777024,879.4191572373384 163.68071480898652,878.3476435749908 164.16276849783026,878.8230181625695 167.1928618666716,887.3117402809439 166.91498922673054,888.0082639831235 154.69791374227498,891.3135552338208 154.6693691733526,894.1294357221341 166.7944029867649,907.8704653165187 174.37822890665848,904.6364286394091 180.81124266667757,920.8196992087178 181.77185479120817,920.6722756425152 185.08040334226098,975.1082115653553 185.12817180447746,975.7728076510248 195.55771647999063,987.3681012306479 195.67801144893747,988.0118642924936 189.3431560533354,991.0457529882551 188.98431004444137,991.3572316483478 189.62714538665023,1002.305265877978 189.69967189338058,1003.1153389146784 218.1341403023107,1011.7926960534533 218.60454314667732,1011.9500027403119 225.53388288000133,1020.0669643096044 226.19827228446957,1020.2500297951046 228.91699683549814,1014.1771458781441 226.25798286229838,1011.2394095644704 243.25248711113818,1004.5266308503342 245.7419812977314,1004.5569179250742 242.71217920002528,1012.454920276592 240.70823395554908,1020.3169277613633 230.3299529956421,1031.3611392322346 230.17091896897182,1033.734075630142 245.1343897600891,1036.506084656692 246.5688999822596,1036.9865385356243 244.99865742225666,1039.297041381069 244.88826567109209,1042.0020884543774 252.66083527111914,1055.6786728376173 252.6628741689492,1056.328561568691 245.83751822228078,1070.2107712166035 242.30964252445847,1074.3841192118707 260.60350720002316,1084.7278938713716 262.1734584888909,1086.8083387490478 252.34917518228758,1099.0628592728754 250.98194858664647,1103.8479001065134 253.3898868622491,1125.047215899045 253.4793070933083,1125.283957077947 240.83260672003962,1142.07340242184 240.34560142224655,1143.3993173838244 232.31875214225147,1142.2640455457731 230.41937322670128,1142.4424909730442 229.60556174220983,1135.8168725476717 229.08913806220517,1135.3036565657821 219.20805688889232,1143.0311339685577 218.70910947560333,1143.6274552620016 207.93003946670797,1182.3676824542345 207.088848497835,1184.752528159821 191.54574819561094,1206.6846605940373 191.54283548449166,1207.1534494285588 199.18287672894076,1208.8809140480007 203.33174243557733,1211.4014071903075 218.7344500622712,1229.883081031905 219.2333974755602,1230.0957748817164 231.70708280894905,1218.9785181444604 232.25467249786016,1218.1665361160412 266.17610609787516,1213.4756776099675 266.59233251563273,1213.4517420958146 269.22746225784067,1206.9317006929778 269.8102957512019,1206.648078764032 278.64746126218233,1220.20687231567 279.20233272889163,1220.7474362818175 298.4326340267435,1233.450530093105 299.1404228267493,1234.5528149104794 311.55527139559854,1223.410947462602 314.04855210671667,1220.5979571568896 328.76240355556365,1229.4798201490776 328.94124401779845,1229.3497649687924 325.147437795531,1251.7655281895422 325.42822314670775,1252.4107697143336 372.68608711112756,1304.9385043354123 374.02214769786224,1306.5902598414687 369.1451042133849,1315.0664265943342 368.68809983995743,1317.8691725450917 378.3023766755359,1322.4589355709613 379.9066979555646,1323.0646976415883 397.8766691555502,1348.0380564012448 398.6392169245519,1348.436585117306 387.48149447119795,1354.6536292257952 387.8219903999707,1355.9782542363391 397.8434642489301,1357.2071921664174 398.6252359112259,1357.6016423170804 396.1902094222605,1364.83114657033 396.8368312888779,1365.3736092429608 419.50733568007126,1365.7120836058748 420.44581120007206,1367.4965117780957 400.30033607117366,1399.8289630872314 399.2628283733502,1400.735930165567 365.774514915538,1407.3544197291485 365.1960504888557,1408.061017829401 369.15821141342167,1432.4968064606655 368.5299396266928,1433.6066594235017 338.83921891555656,1447.1901714054984 337.4210198755609,1447.8258134311764 324.4941166933859,1492.3107493548887 323.8070081422338,1494.9804235912743 323.4606867911061,1521.3497672327794 323.2241746488726,1523.33901998715 339.11738282674924,1527.8789221429615 339.36467200005427,1528.251418124477 346.42275356443133,1521.1044353284524 347.53249649784993,1519.8308696951135 362.0995473067742,1530.7601124213543 362.8277250844985,1530.996414337249 388.5644404622726,1531.0613522236235 389.86642232886516,1531.6647324951482 394.42539776000194,1537.9802832984715 394.4754963911837,1538.1796001038165 384.5515983644873,1555.7859524547239 382.8864014223218,1557.3460832986748 385.92814563564025,1567.5831512173754 386.91584597330075,1571.8633335339255 383.8298285511555,1574.3286949433968 384.58771598222665,1575.5902206255705 394.7041442133486,1568.5989863328869 395.67378574225586,1568.5006944595953 399.35020970669575,1589.495827142906 399.4014734221855,1589.6414474321646 409.82169742230326,1582.343181794451 411.8871008710703,1582.18132597144 413.3516120178392,1587.1798654189915 414.14212181337643,1589.3569693155005 422.6818995201029,1591.1923200378078 423.2714322489919,1591.6977037633187 419.7557899378007,1594.2935814207303 420.09162552887574,1594.6172750147525 432.42928725341335,1595.619008978305 435.1724785778206,1595.7501988199074 440.39729976886883,1624.879156941257 443.011749262223,1627.6819895895314 470.6396879644599,1619.3730052416795 470.6592031288892,1619.4712742480915 462.20505912892986,1637.6385614985484 460.6720992710907,1640.7035564372782 451.09627022221684,1640.9708399888477 448.95455374231096,1641.322409761604 447.23285020445473,1650.5554212620482 446.7205043199938,1651.1751481268439 430.7780713244574,1639.0074476349982 430.6510771200992,1638.751430069271 396.9935351466993,1643.2794711660245 394.4003484444693,1643.822595420119 378.2825702400878,1653.626094330859 375.6893835377414,1652.1410171134048 363.0013226666488,1663.3800291636144 362.5393666845048,1666.2616878671688 345.77904440893326,1672.6012934974278 345.5821451378288,1672.6981865914422 346.55295175116044,1678.0114677491947 346.63479893340264,1678.1755059276475 330.31516984896734,1691.7767270765617 327.9552913067164,1694.6634190981276 331.56676181335934,1702.9019529696088 331.13538929785136,1705.978650132718 323.9211864178069,1715.9280536395381 321.54557923565153,1718.8757045096136 287.2245216710726,1745.846532539872 285.8645768533461,1746.8696491796873 272.58640071121044,1748.5441983216442 270.07943025778513,1748.8000874031568 274.79569208889734,1769.9526999267982 275.1839564801194,1771.271657836216 282.5723394844681,1780.071714469057 284.20491406228393,1781.6523177730269 297.0371541333152,1788.5831442078925 297.03569777775556,1788.9669074764242 333.2873002666747,1788.514679328713 337.72889343998395,1788.520084451593 339.07776995562017,1806.757109398779 338.83222840901,1808.7090881494223 363.5090082132956,1807.1061608691816 366.1951104000909,1808.0118905393756 368.1087615999859,1808.987876494357 369.50365895114373,1810.4119884757674 363.8227071999572,1816.524034924456 362.00255402666517,1817.9787227643537 370.59243036445696,1820.406183414685 370.67078229330946,1820.9466162578901 343.70781553781126,1838.339284219197 338.2753180444706,1840.374740818108 318.17615502222907,1839.282711700478 317.25806848006323,1839.5240843786742 317.09932572452817,1845.266964370443 317.58603975118604,1846.6043812638964 309.71181653335225,1850.2752559279907 308.4590594845358,1850.3364966905792 309.85716081783175,1867.1068147043115 310.0753228800604,1867.3396016657935 297.446098773391,1881.0429780554841 297.4440598755609,1881.259541696927 335.4960091022076,1909.149436894164 337.6045206756098,1910.0200807056972 332.3997971911449,1917.892632346542 332.0412424533861,1918.481891890231 315.26548280892894,1920.853769303707 314.0983594667632,1921.5884203701862 278.6387231289409,1908.5709565417492 278.2248268800322,1907.9163940501749 269.77359559119213,1935.278047869855 269.6002892800607,1935.7826373366988 292.2681722311536,1967.767004697409 293.71171185781714,1969.61943612498 302.27653888007626,1994.9681783262058 302.5497511823196,1996.836579549301 347.8368748088833,1991.1980273093213 349.95092053338885,1991.7708892441005 379.6914486044552,2018.1353165949113 380.6747798756696,2020.8930709766573 393.2282734933542,2020.8494259256986 393.5556622222066,2020.6811449262896 391.4424903112231,1986.610127653752 391.29714602662716,1985.6835357593955 405.7060366222868,1980.8786056191311 407.39628288010135,1980.5077796158148 406.05148416000884,1973.1491837176145 405.9308979200432,1972.5776231980417 461.5173680355074,1954.843654083903 461.89543793781195,1954.358912324824 464.73008839110844,1949.3268963955925 465.363020515535,1948.793982031464 452.4203886933392,1921.887321814138 451.34647210664116,1920.2496610032977 460.50607473775744,1919.9885704617482 464.3182310400298,1920.0668976569432 468.5996251022443,1905.3706045372528 468.9010907022748,1905.0491711830837 487.9094434133731,1909.820202081115 489.0194776178105,1909.8706219315645 489.8729019733146,1895.3591295132064 489.8807662933832,1895.2668370520114 528.8761426488636,1896.1469904031255 532.52839111106,1895.755761550041 533.3191921778489,1882.7399127830868 533.5958997333655,1881.6021710536443 542.4062683022348,1880.7408691665041 547.492153173429,1886.57856561261 548.9790921956301,1874.3546128911548 549.7049398045056,1868.5449568851036 579.4842069332954,1865.8397648890386 579.7029515377944,1865.7992407866404 574.5355107556097,1878.2816602818784 586.5373368889559,1892.1437272630865 584.319016106776,1899.2871506285155 597.5089371022768,1901.583603441075 602.2819968000986,1901.9739214900765 608.39985521778,1913.9235295976396 610.8322602667613,1915.9708879449754 617.4301334755728,1905.2846189103439 620.8557730134344,1905.3742060287623 620.5668320711702,1893.8230177254882 621.526861653314,1890.1942934878753 627.9164760177955,1887.1359435712802 632.0781576533336,1881.6057729363092 628.1401722311275,1875.789555713185 616.0981506844983,1881.6809622227447 622.2911570488941,1870.7035032095737 627.1306265600724,1874.577036398463 662.3461777066113,1862.3114382601925 664.2044873955892,1861.9449140852666 682.5365085867234,1900.007017570897 682.6471916089067,1900.222662053944 701.2614545066608,1886.0315414377837 702.2817772089038,1885.1585510541918 708.6003214222146,1905.5745388996438 709.1831549155759,1907.8015978132025 724.6036300800042,1909.5388410952291 724.786839608918,1909.448355325323 725.6763815822778,1932.2918987041921 725.7267714844784,1932.5480231346446 716.3991054221988,1943.2599677522085 716.1573503999971,1947.8708308523055 739.7066197333625,1950.2473408693913 740.8880153599894,1950.6101164544234 730.7305179022951,1964.5810200078995 730.0055441067088,1966.79802739789 743.1008019911824,1965.7957412104006 743.7491714844946,1965.8164440699038 744.2734594844515,1971.1824692061055 744.3739480178338,1971.4511495532352 763.8011485866737,1961.2941729709855 764.1011578311445,1961.2541166094015 784.5935368533246,1973.3782575542573 784.6835396266542,1973.4435143007431 786.7865170489531,1973.4624162513064 788.96464241785,1973.5011202401365 789.3357218133751,1965.7093292541686 789.3313527466962,1965.5900626960793 835.3565573689993,1965.9699152060202 835.7885124266613,1965.758836108318 843.524964408949,1973.7571964591625 846.1787355022971,1976.632520293817 867.6559021511348,1955.5034772602958 868.1542670222698,1954.9138672858826 883.0623963022372,1967.5185724683688 884.9591537778033,1969.1261760321213 904.3117889423156,1957.4230743050575 906.0926205156138,1958.4785079467692 908.9534853688674,1938.9379830918624 906.6169085155707,1934.2526608737535 914.735216924455,1913.0447982416372 914.1882097778143,1912.1007883406128 938.3316721778829,1901.8654248473467 938.8265417956281,1901.776286486478 933.2131649422226,1891.4927173607866 932.742762097856,1890.8970821230323 963.6815795199946,1877.9201155252522 964.6247153778095,1878.2478921169532 985.551088355598,1857.238581066078 987.8352364089806,1854.9353588180384 983.3295635911636,1831.7703043141519 983.3394668089459,1831.7338269437314 1011.0236208356218,1827.650124353182 1012.8592113777995,1828.1797310193651 1008.011877546669,1822.210773537343 1007.2041827555513,1820.2953945169575 1012.7761991111329,1815.8962192901527 1013.3284491378581,1814.5351952805067 1010.3426289778436,1803.2039589391788 1010.282627128996,1802.6747422147891 990.5245425777975,1758.5723034804105 990.0547222755849,1757.960989652027 1016.5213630577782,1730.2050017138245 1023.502840320114,1722.477533962985 999.4852070399793,1682.2714632991701 999.1371380622732,1681.4602994854213 1018.7495870578568,1674.6995827139472 1029.6512822044315,1672.978049659112 1028.9359203556087,1667.0102639353718 1028.9239782399964,1666.679466639005 987.3482311111875,1676.7721643484547 986.8157875200268,1677.00425261067 982.0832145067398,1674.2678487339872 980.9711414044723,1674.677950969024 979.3892479999922,1662.8072082159924 979.3464311467251,1662.5809638092178 967.4599483733764,1663.7495902691153 963.7689608533401,1664.1371780745685 971.2185107910773,1651.2526702001924 971.9568830578355,1649.7216041638167 964.9736581689212,1651.2716000045766 962.8741760000121,1651.59430784703 962.7276666311081,1636.0564664183767 962.6883450311143,1630.3423484907253 969.4551554844948,1629.7329299262492 978.8972910933662,1573.484667978133 979.283225315623,1572.1938234271365 975.1430977422278,1573.0247801192454 973.5527574755251,1573.2831290061004 974.1454941866687,1559.578493937559 974.2031658667838,1559.1149696287466 981.8956359111471,1538.1484850489069 982.0304944355739,1537.594726518786 977.032864711131,1531.2236968550715 976.2420636444585,1531.1601118887193 974.1125805511838,1537.7746531005832 973.9296622934053,1537.9568342505372 965.9389306311496,1537.7133247585152 964.7056887467625,1538.5453144031344 961.9910419911612,1534.4489185433486 961.8870582045056,1533.9411477032118 965.0386116267182,1526.6671784029459 965.1985194666777,1526.0484514316195 944.4888521955581,1526.9702277091565 943.3744489244418,1527.3567051583086 923.8187977955677,1518.7417487226776 920.8699690666981,1518.7471605172614 913.8759671467124,1503.9052610092913 912.940695608966,1501.5414864542545 920.1415000178386,1483.5992388546001 921.3290123378392,1481.6935214565601 931.9679809422232,1475.5170786615345 932.8726690133335,1475.1900511548156 934.3837835377781,1463.2647152486024 934.919139840058,1461.2523606013274 942.6759808000643,1456.3610120083322 943.2043465955649,1456.6623543648166 942.3663596089464,1441.7499203454936 941.8123619556427,1440.140691676701 944.2578742045444,1439.2645661242423 946.8781491200207,1438.2251211604453 946.9597050311277,1423.5767225198215 947.2090331022628,1421.7805703330669 957.6050816000206,1421.0383730187896 958.9484239644371,1421.2377964961925 970.8774323200341,1407.351712452306 971.550268586725,1405.4593177569332 1000.3546513067558,1410.8160969005548 1002.4989892267622,1410.699234605825 1007.6559442488942,1436.4164570915163 1007.9527495111106,1437.7013364732848 1015.0717067377409,1426.737661854946 1015.7139595377957,1424.6126277440344 1019.4212582400069,1429.9138951204368 1020.29973191116,1430.9786448037485 1016.059115804499,1438.3613681343268 1014.2252728888998,1440.6401087385602 1028.397068799939,1445.848956153728 1030.3407209244324,1446.3307660109713 1036.2943024355918,1457.7490780648077 1037.59919701342,1458.6174606988789 1042.594787840033,1460.963655433443 1043.3250045155874,1461.0615445721778 1056.628229973372,1450.528512005054 1057.117565440014,1450.2862584640388 1079.2733937777812,1481.887927945063 1080.4285750045674,1482.5135457961005 1081.9303688532673,1482.8153031533002 1084.9295874844538,1483.5577417532913 1089.885565440054,1470.469974822132 1090.9889004089637,1470.0143810201553 1110.1021107200067,1471.1109621175565 1110.8617457777727,1471.1132175233797 1143.6012012088904,1493.165914646699 1144.1884037689306,1493.7951084923698 1156.6108253867133,1488.2139379963628 1157.0232652800623,1487.7773251457256 1165.310219662264,1458.7099376072292 1165.1168156444328,1457.9141838079086 1188.5189930667402,1443.3401893483824 1190.3341946311994,1441.9597011744045 1171.9817844622303,1418.6046700372244 1169.9111381333787,1416.4741425074753 1156.7829666134203,1383.8287228504778 1156.1782877866644,1379.7731991734472 1197.3104290134506,1377.6292060341802 1199.8357495467644,1377.3254982958315 1227.4636882488849,1360.2684496524744 1228.5049824712332,1360.047758928733 1294.1429273600224,1357.9432879246888 1301.0623638755642,1357.0785669632605 1314.7952142222784,1367.1602966586943 1317.5279197867494,1370.0887355416198 1322.3391360000242,1388.9901895732037 1322.4078759822296,1390.4486270398484 1319.0699090489652,1419.619844208879 1319.5213792710565,1421.8838912182255 1320.1228541155579,1424.0996387062478 1321.0112310044933,1426.388905020256 1329.5900390400784,1418.8708717206027 1329.8044145777822,1418.8681645864272 1326.2535284622572,1462.7617410985404 1326.259645155631,1463.8511410472565 1335.5549801244633,1473.7308259035344 1336.0122757689096,1475.2356094988645 1356.0357083021663,1479.6781790395617 1356.36484465783,1479.4765535629704 1365.2701676089782,1452.8549443499069 1368.5859979378292,1448.3044610322104 1385.70545749343,1440.5850691544474 1386.9949147022562,1440.9026744326693 1399.012760746642,1449.5292708082707 1399.0774229333038,1451.1285056525958 1396.1055837867316,1466.0624032519409 1395.7397472711746,1466.8184314641985 1379.408176071127,1483.5392484773765 1380.3312142222421,1485.2888858741499 1429.8540023467503,1503.046980626299 1432.320486115641,1502.2996470382786 1436.1387591111707,1495.5031689610914 1436.009726008866,1494.7512992560514 1424.7649134933017,1487.866181344085 1424.1174178133952,1486.7778031874332 1427.3968392533716,1474.9825575865689 1427.7137422222877,1473.4529630513862 1457.325528462301,1442.5055815274245 1459.280831431155,1439.5239754463546 1467.4014700090047,1410.662235719501 1467.7227420444833,1409.5563270925777 1467.7442961067427,1415.2229780528578 1467.845367182279,1415.2351603594143 1485.3562951111235,1396.0602715029963 1486.4182695822092,1395.4244788832148 1524.621388515574,1390.7523165377788 1525.3408281599404,1390.6656770806876 1541.0817015466746,1381.0047108723666 1541.6228832711931,1380.7529036215856 1545.5454313245136,1375.1449275160558 1545.684076373349,1374.4183666072204 1545.3162009600783,1355.272841644357 1545.5538781867363,1354.4044995360891 1555.5686528000515,1340.5547887827852 1557.115302399965,1339.3257571761496 1572.7443276800914,1340.4053916264675 1574.0142697244883,1339.5383444817853 1608.4818366577383,1302.907988104911 1609.5519667200278,1302.6759537013131 1617.9434874311555,1315.790476504888 1621.0029991822084,1317.0936700164457 1658.4444441600936,1326.5931606069207 1661.2997748622438,1326.9601319276844 1671.563003733405,1321.4487265333883 1671.8280604444444,1321.1052182851126 1676.540244480013,1299.2134655175614 1676.5999550578417,1295.3586178223486 1667.1461686044931,1277.859941150702 1666.544402488973,1276.6978276873124 1667.9157068800414,1253.2388795568259 1667.3858847288648,1252.25137852825 1653.7972135822056,1245.410090809397 1651.5433577244403,1245.2231500999187 1628.291767466697,1256.7395731130382 1625.27944163559,1255.066670320055 1632.334319217829,1238.3283578989212 1633.2358033066848,1235.469499808445 1631.616627200041,1216.8320429646992 1634.532251022174,1209.4034411769244 1660.4725649066968,1179.3987841592752 1660.8675285334466,1178.4190795148606 1652.6874706489034,1144.4284206181183 1652.5584375467151,1141.730063674564 1659.9482769066235,1129.8158746902482 1660.0039096889086,1128.325877665251 1646.5436891022837,1104.2744368984713 1646.619128320017,1102.6500682817423 1665.8007873422466,1078.14435717382 1666.787031324464,1076.9527108375914 1671.4089213155676,1057.7494520261534 1672.308657777845,1051.7286816252163 1670.629479822237,1032.8694257932366 1669.4008982755477,1030.0426794207306 1644.2240059734322,990.1180954768206 1644.0483694933355,988.6583379280055 1652.6839753956301,964.6498248373391 1654.3651922489516,961.6196383271017 1668.6310687288642,948.5028129966231 1668.6234956800472,948.3377738043782 1684.5918518044055,954.8705175170326 1689.1278168178396,956.8703625109629 1700.3586483199615,954.0968895422411 1701.9052979201078,952.7449556373758 1717.2820824178634,934.5676394881448 1717.871032604482,933.8079574871226 1734.8029135644902,897.5599123880384 1735.6149774222868,893.4342883927166 1729.6354727823054,883.369555127807 1727.9795965156518,883.1135548676248 1692.5831660089316,891.61477386771 1689.398990222253,890.4754777772469 1675.6169150577625,882.3351494041854 1673.7661784178345,880.3495470600319 1673.9639515023446,867.7457521623583 1674.5858153245645,866.5357676324784 1700.1518458311912,845.7365543277119 1702.8545504710637,844.7087557816994 1742.225375288981,847.2176252283389 1743.7650343822315,846.1346440124908 1747.347960319952,842.040166434017 1748.6851859911112,838.8567259924603 1744.2348546844441,830.2023465230595 1742.6480096711311,828.039376615081 1762.4101720177568,799.1835504083429 1764.5195574044483,797.9777101942454 1820.7546882844763,828.4365937802359 1822.0986131911632,828.6266062913928 1832.8899165866897,842.0075948757003 1833.6463476623176,842.2573100320878 1855.3483756089117,839.9053619248443 1863.4142552178819,837.042637258477 1875.1201499021845,824.7340312365559 1875.393070933409,824.0454490125994 1880.3636124444893,852.1090686320676 1880.7585760711227,852.2425153335207 1881.6789927822538,836.6983658476383 1882.149686897872,834.5960817230516 1897.0018921245355,815.3972683590837 1898.4838795377873,812.4935020277626 1900.9532760177972,795.6433836807264 1900.8443406221922,794.9248458924121 1872.572110222187,790.9420765060349 1872.221711075632,790.8796330530313 1854.940887324512,780.1341154893162 1854.4410660978174,779.7368103364133 1851.2440743822372,769.696695996623 1851.001736817765,767.2484797453508 1856.8047311644768,767.0321665257798 1856.8326931911288,766.9932482250151 1850.5432760888943,758.2070377603523 1849.4338244267274,755.4835347943008 1851.502431857749,754.1023102530162 1853.0345179022988,753.2931222174666 1849.036821902264,750.3011822114349 1848.0252373333788,747.9174668482156 1849.0682791823056,728.0556287298095 1850.0743296000874,726.0821999053005 1873.9801147733815,720.1844380375114 1874.9867477334337,720.0355208800756 1874.2361420800444,715.3153827090864 1874.102448640042,714.5363780831103 1906.1026579911122,715.8540304161725 1907.8753339734394,716.485016037419 1937.4617796266684,742.4964200225077 1939.05648896005,744.2284722602344 1957.8638646045001,772.3417342352914 1959.5616839111317,773.6997644997318 1981.1145810489543,787.0099140364327 1980.997490062262,788.3126486739493 2000.4718765511643,789.1520237638615 2001.6159894756274,788.9031527803745 2026.1570369423134,776.0420187517884 2027.1520190577721,774.5428160204901 2047.8605212444672,725.8785193078802 2049.637566293357,721.7338041306357 2060.8247071289225,678.5927663049661 2062.0317346133525,677.5180017608218 2113.9219743289286,649.6048638211796 2115.306677191169,649.345419494086 2156.902813297813,660.0842548084329 2158.447715271148,659.9402769586886 2161.8098577066557,657.8045943535981 2165.584148764494,654.613935207075 2167.0000176355243,645.2920711637707 2167.238859946723,644.4458029361558 2168.652981191175,650.9758838636917 2169.258825102239,650.869933480979 2172.8551495111315,639.6348256198689 2173.4869165511336,635.731177189562 2170.4594446222764,630.8982721096254 2168.8760948622366,628.8900016695843 2171.4378242845414,612.3182340723579 2170.6735288889613,610.1386098452494 2157.4707919644425,594.7741993269301 2153.727958186646,590.5151230553747 2155.1333412978565,585.3818382106838 2154.4907972266665,583.2771292986581 2137.5653242311673,575.7268226958695 2133.602289493312,574.4350463738083 2126.4984783645486,583.3985118153505 2123.921020302223,584.5212968898704 2112.7475692088483,580.3363001260441 2110.4462361600017,579.5699478570023 2095.2654771200614,557.5628929410013 2090.8873810489895,557.9442962200264 2079.628296248964,524.2822068733512 2078.919924906688,521.2517838337808 2077.778433422325,494.60136444919044 2076.932873386657,493.0145873298752 2058.218121955637,489.2936357494327 2051.3496578844497,486.76161239040084 2044.6626557155978,471.77866359363543 2044.3113827556372,470.6262955359998 2011.4484283733182,466.1631341977627 2010.4391739733983,466.45406495401403 2000.3480863289442,483.7904801684199 1997.8183967289515,484.75291938340524 1971.0910683022812,476.997550281696 1969.6737430755747,477.3763757760753 1965.1101073067402,482.42837672453607 1964.4433877333067,484.46699744282523 1973.8505708088633,496.8125023273169 1972.898696817807,499.17087363114115 1959.0446776888566,496.5986391521874 1958.390774044441,496.6312623620033 1942.6067925333045,509.9211892031017 1941.4743304533185,510.41458455781685 1849.5946060800925,512.3192885579192 1847.7968807822326,512.2023971173912 1790.8149307733402,504.17117068654625 1788.735837582266,503.7960164624383 1782.3304945777636,495.7961972738849 1781.7365927821957,495.0626241622376 1786.6847064178437,489.7467506406829 1786.089056995581,488.85411340458086 1769.1315441777697,480.7191650123568 1768.6282276978018,480.30500087706605 1771.9830883555114,473.8876218305086 1770.4058552888455,471.58063617005246 1746.971929315594,458.09848773287376 1746.5050217245007,457.8505979945767 1755.366945279995,450.5864423698513 1755.2166493866825,447.7453388767899 1718.4154183111386,429.2861010610359 1716.3721514666686,428.3982017050148 1715.1182293333113,420.8733473002794 1714.8129772088723,419.8272260093945 1690.9817574400222,411.0052503090701 1690.8352480711183,410.9345388924121 1657.154986951151,417.1275934340083 1650.8641134933569,418.62381770351203 1634.7766274844762,384.5906723548542 1634.601282275631,384.24296550056897 1614.572898133425,387.0110049461364 1611.634846435627,386.98924519249704 1593.578367715585,379.265755302913 1592.182596551138,378.73443513491657 1594.1195494401036,356.9360437488067 1595.4660957866581,354.23064412228996 1605.4552385422867,349.72655751759885 1609.2796282311901,350.48102345643565 1612.33214947558,339.9350392057677 1613.0207143822918,337.2208131501102 1679.5814061511774,340.47416227165377 1680.6847411199706,340.5947733047069 1697.276126151206,348.5123334088712 1697.5586591288447,348.86145753919845 1697.7203145956155,333.9832857721485 1697.8481826133793,333.65318223723443 1679.7812181332847,334.07624066073913 1677.8317405866692,334.4199466847349 1686.798230471206,332.5177673569997 1687.074355484452,332.1890219274792 1665.3912601600168,325.1460420048679 1664.8270680177957,324.95831073389854 1654.978609208949,328.9060748251504 1654.614811591222,328.619948223175 1648.0670370133594,296.48522115062224 1648.4937491911696,294.8294254789944 1631.5537126399577,290.53953637665836 1630.67611278221,290.22614757163683 1584.0325395911932,300.1233015114558 1583.8102997333044,299.54825121868635 1568.8101287822938,325.6321473456337 1568.4271072711563,326.11462396150455 1553.5149001955288,332.3382043977035 1551.5919283200055,333.02879547385965 1527.3753568710526,318.03390656906413 1524.2558432711521,318.470599466993 1530.5004046222894,303.0089607651462 1530.9955655111698,302.06340477929916 1507.4809574399842,301.6316675391863 1506.7256914488971,301.7699868112104 1504.3334818133153,286.0735899335705 1504.1549326222157,284.9433694028412 1494.5674527289812,295.588616840716 1492.8212824177463,297.419009979174 1429.278159360052,290.2442887593643 1429.091454577865,290.2465564077138 1428.764939662302,302.7958142107818 1428.669985280023,303.80667123082094 1418.4259803022724,322.0248752369662 1417.327596942312,323.43287479219725 1407.7672052622074,323.63965270406334 1405.9991896178108,325.808541645878 1398.8423671467463,342.42161420400953 1397.2686293333536,342.1613503905828 1398.3626436267514,350.7054584326106 1398.2502129777567,353.13206182821887 1368.4962864355184,351.4027922967798 1367.774516622303,351.13483136869036 1364.4779101867462,336.31621475791326 1363.3445742933545,332.9013786377036 1365.724841813324,323.0732802802813 1365.465610524523,322.4311781366123 1316.180790897808,325.3868275285349 1315.6131035023136,325.47706534923054 1301.0166343111778,333.9578932102886 1296.702909155516,334.0952850720496 1287.6883595378604,310.4870982192806 1287.9315709156217,306.65328105940716 1296.8433018311625,313.6823477682192 1298.585685617756,315.07725041004596 1302.699890062213,303.38718200981384 1302.9014496711316,300.8856489668251 1298.6282112000044,294.5827103925403 1298.827731911093,293.6203374748584 1307.105656888918,293.0924364805687 1309.9324430222623,293.2702177144238 1300.1850552888354,286.05953024397604 1299.5139666489558,284.4635227964027 1302.9597038934007,272.63075142836897 1302.9786365155596,271.7984555551666 1331.6484519821825,255.5986681394861 1332.22924657783,254.54041244502878 1329.3578959645238,251.72668829170289 1327.0586018133909,251.81015250104247 1325.1172798577463,237.88388783973642 1324.7100828444818,237.62213811423862 1337.334064071183,220.01613809616538 1338.1507882666774,218.3298178575351 1337.8120399644831,200.95365243172273 1337.5778579910984,195.91916438780027 1357.4381787022576,204.23263136582682 1359.2242531556403,204.75484968576347 1383.4236396090128,202.34474043658702 1384.6146471822867,202.7612484228448 1373.290026382194,177.46215989044867 1373.0610872888938,176.90947377163684 1383.7853983289097,161.51038445479935 1384.5220229688566,160.05368809500942 1371.989500871161,149.6613968917518 1371.2764691910706,148.8408839420299 1377.6573454221943,143.72576913255034 1378.5532953600632,142.57892492221436 1371.907944960054,134.12104587251088 1372.1864001422655,132.6913976498763 1353.2298936889274,132.35554241930367 1352.9951291733887,132.44449872005498 1343.2794899911387,101.29667808039812 1343.142883840017,100.73154252005043 1329.0430318934377,117.62641914637061 1325.8099225600017,119.5263922624872 1318.2153196089203,108.27473300567362 1318.0300711822929,107.7000834546634 1323.4081009778893,77.05127019708743 1323.7427714845398,76.73258011759026 1312.171444053296,69.41983107029228 1311.754635093268,69.37624801974744 1310.6084832712077,75.20948931667954 1308.4318142578704,75.68026397546055 1312.6427207110683,90.74360735254595 1312.396596622304,91.2919729121495 1294.3733228089986,101.40425793651957 1295.2873315556208,105.81090101221344 1288.974030222278,101.17411868594354 1288.5173171199858,100.24266503186664 1283.0798680178123,110.36860514176078 1283.6597887999378,113.95396828168305 1273.917061404558,114.008435933094 1272.5145910044666,114.03113078378374 1271.8152490666835,107.58932933834149 1271.7797139912145,105.51267921901308 1259.11145955557,106.57846846623579 1258.8769863111665,106.55622675077757 1230.5022284800652,124.17821531934896 1230.275619555614,126.69040351198055 1221.24767146667,123.26819238642929 1217.2129840356065,122.54970276384847 1216.2506242844975,129.72632268170128 1214.514065920026,128.81178428896237 1206.2448790755589,112.18103878415423 1205.8015644444386,108.2293421010836 1212.697116728872,67.76185304071987 1212.4055543467402,66.52335518429754 1196.4013718756614,68.46463387965923 1196.0040780800628,68.67301613389282 1197.7840358400717,62.989420781610534 1197.5833500444423,62.35245296388166 1190.7751790933544,60.36571883870056 1188.412096568849,60.60498142748838 1183.3433966933517,50.18387571134372 1183.1039718399988,49.847439068893436 1167.6695156622445,51.403397425601725 1167.1906659555389,50.89488585147774 1176.983491982217,42.167824750591535 1177.2089358222438,41.67836160346633 1175.2297486222815,31.324459649331402 1175.3410141866188,30.44674140412826 1157.3847327289404,24.506952332041692 1156.753256959957,23.22370773315197 1173.5427063467214,14.431961793510709 1176.0552109511336,14.013276737707201 1168.953729991219,5.255217830592301 1168.7440147910966,5 1129.6073719466804,29.828295278479345 1128.0138276978396,30.264204624749254 1123.924090026645,43.03913907491369 1122.7001688177697,45.36156745167682 1125.8403626666404,60.22361398866633 1125.430835484527,61.26011464581825 1113.9101892267354,63.221416437241714 1113.4671658667503,63.412097612803336 1106.0592676977394,83.81220201443648 1104.2000841955887,85.89087507658405 1095.2499054934597,79.25666539074155 1090.422086826642,77.73132239567349 1078.5510414222954,82.47483164648293 1076.023099448881,82.15070194902364 1081.262192924507,52.21882957575144 1082.1930953955743,49.51418012735667 1075.8888234667247,12.274499049119186 1077.9533531022025,9.780516292608809 1073.593024568865,9.266458025900647 1068.9941449955804,9.610677388322074 1070.1257332622772,18.05387176160002 1070.0141764266882,20.330703551706392 1016.2568888888927,22.349589508899953 1014.5750894933008,22.702869920700323 1011.1310998755507,36.15071154845646 1010.4506905600429,37.19322964915773 1001.8380950755673,41.358711606881116 1000.5043646577979,42.419820653798524 985.1235023644986,37.99827178486157 983.4929666845128,38.159915531869046 980.7888056889642,29.99176138569601 980.4797670400003,28.30487606691895 956.7522397866705,28.931045791192446 953.782439537812,28.54235761758173 952.7324071822222,34.26226991560543 952.6694926222553,38.86506227089558 967.9705466311425,41.42772698675981 968.4942520889454,41.6029896295513 973.15051207121,47.75071423291229 973.3019730489468,48.25787105364725 970.7813128534472,52.84810864448082 970.8809275733074,54.60472290607868 979.3595383467618,58.7825838450226 980.3463648711331,59.48630171123659 958.9868717511417,79.28935119503876 957.2925476977834,82.14071475184755 956.8142805333482,83.63016396487365 955.6771581155481,86.1332872834173 963.5685663289623,88.31816264486406 963.7048812089488,89.52929955994477 961.0630522310967,91.27154541196069 958.1407291734358,91.72639729565708 957.7183860623045,103.80413735302864 957.4483777421992,104.3824285301962 943.3939640888711,114.7923147060792 942.9363771734061,115.41097326093586 939.0971326578874,131.07928781578084 938.7181889422936,131.49502449011197 953.0487276089843,133.95675026869867 954.122644195566,134.45372139749816 955.4825890132925,140.18219615868293 956.4621337600984,141.43933610524982 963.6169173333328,134.22634022746934 963.0404918044806,131.88761352445 979.7882894222857,131.29169486212777 979.658091235673,129.92284581478452 997.2051367822569,140.57159262965433 998.4220674844692,140.67325313208858 995.3220690488815,145.94909571815515 995.5320755200228,148.06484285218176 1001.7952782223001,157.3649005141924 1003.4097939911298,159.73784236435313 994.2976685510948,166.57153436733643 992.6793662578566,169.20030899875565 994.439517582301,175.85174297570484 994.6431160889333,177.3514412730583 989.6848079644842,176.90538987878244 988.8377915733727,178.24263379262993 990.4252191289561,192.7580307747121 990.6934798222501,195.92687773366924 985.3154500267701,205.59420752251754 981.5656257423107,208.85270008380758 955.2422903466504,215.41082426294452 952.2372462933417,214.55108834814746 950.3026235734578,221.72921194607625 950.9643915378256,224.0197920111823 937.3288257422391,197.810287106724 936.415399537771,197.88469754956895 950.9512843377888,234.0710206166841 951.6223729777848,234.38993402174674 948.7839359999634,241.36417663405882 947.2518499556463,242.25510710390517 927.8700876800576,235.5934536588611 926.9633607111173,235.5285826230538 905.4809511823114,241.70666815753793 904.3630526578054,241.6771821535076 904.6406340267276,246.63848634937312 904.3237310578115,247.01680553681217 887.4524344889214,246.39307750802254 884.2102957511088,246.89704989391612 880.9364084622357,241.14189707877813 880.8365024711238,241.14416523854015 873.7696827733889,247.08757020399207 872.3692512711277,247.56205577513902 876.9392950044712,264.7226782045909 877.3351324443938,266.1605310662999 866.0818730667233,271.85651226423215 865.1244649245637,272.15858832892263 857.0349923556205,272.51735980727244 855.5856273067184,272.45612830721075 857.1576174932998,253.6531611001701 856.9304260266945,252.7300711236312 856.2599199288525,252.88475133862812 852.8444748800248,253.39006951550255 851.9170676622307,266.2467112200102 850.9305324089946,267.2427698899992 804.9685336177936,255.6426675146795 804.440167822293,255.83635538053932 816.1236346311634,266.1573560073157 816.7688001423376,266.70119757187786 795.6394112000708,286.6604677825235 795.7267925334163,287.3389582853415 811.7341789867496,289.8315763652208 817.8564064712264,291.13229804940056 826.9836780088954,300.6058346545906 830.6799084088998,304.77716211479856 821.0472814934328,309.41595808649436 819.60082915565,310.4984354067128 825.004490808933,315.9057530480786 825.4711071288912,316.66759177233325 829.333653333364,339.7264630610007 826.8692084623035,342.7548783888924 838.0744081067387,359.9764611367136 838.4338366579032,362.4047747455188 837.1298158933641,370.5763317507808 836.8994204445044,370.9557957397192 819.6812199822161,379.1587660217774 815.8445969066815,383.7977911167545 800.9286033067619,416.1353929992765 800.199551715632,418.1936712761526 806.1012869689148,456.06641800981015 806.5478055822896,459.7643719656626 818.2437970489264,479.1286616868456 818.7948819912272,480.3593769572326 809.2968223289354,495.7730890788953 807.3892878222978,497.02319359756075 790.2625464888988,498.7531198063516 789.7749586489517,498.67881210061023 737.2896520533832,480.86008939082967 732.0211401955457,478.687306284206 706.2162673778366,452.7808057634975 699.5551883378066,445.0211258834461 679.3415557689732,434.0935667801532 676.2054397156462,430.92999705293914 671.5619956622832,422.92886128480313 669.4357165511465,419.7551576765836 672.4232843378559,404.7367753412691 673.2239886221942,400.07099817472044 665.4747207111213,401.90323309012456 664.4613885155413,402.0877249649493 661.445276160026,413.77929546526866 661.0640022755833,415.0407490846701 665.9427933867555,431.82559108239366 666.1219251200091,434.77749006910017 659.1285057422938,432.8018568972475 658.504894293379,433.1345295783831 647.4406698667444,401.03788705111947 647.2644508444937,399.72739574935986 642.6571244089864,402.8982181313331 641.7952531911433,403.31570252840174 638.0579535644501,395.8171800960554 637.5278401422547,394.29949343483895 612.5667797332862,382.5755968876183 611.3119837867562,381.80220189207466 607.8208082489436,385.83008184068603 605.5462721423246,384.86403211252764 606.5354288355447,374.1052759939921 606.0900753067108,373.5381280972506 599.7284229689976,373.7661661581369 596.1093794133049,373.4551638926496 594.79749432893,380.167001906957 593.669983857777,379.859635526489 594.3317518222611,374.6066860939027 594.6806946133729,372.8073166392278 599.6462845156202,372.5334883892792 601.3802214399911,372.53031488106353 599.7319182222709,362.36125031870324 599.6189050311223,361.3221020454075 593.0562756267609,374.2054674353567 592.9447187911719,377.515385925828 559.9611781690037,365.3190780330333 558.5624942934373,365.05748146248516 567.2479075555457,362.73120766936336 567.9851147377631,363.21450884972 566.2002053689212,353.1180064678774 566.0266077866545,351.77684887847863 542.4458811733639,368.6871624822379 541.3128365511075,368.92019264691044 520.2143223466119,365.023931792879 515.7689426488942,364.44134549063165 511.12345969781745,369.83326952776406 509.8622557867784,370.72503456362756 501.2380094578257,356.5003347673337 501.01314815995283,355.792589183955 482.1256729599554,374.6184732975671 480.44299975119065,376.79184140550205 458.7272820621729,356.3602366890409 458.5111588977743,355.7708263107925 453.6390670222463,354.47321107127937 452.81040071113966,354.699908910261 447.84772352001164,368.53120441170176 447.6709219556069,369.0017984822043 432.1697646933608,358.1021617288934 430.8698217244819,357.8305819328525 428.0846873599803,341.16699466400314 431.41245980444364,339.44669865758624 427.96701383113395,333.2931511630304 427.6844808533788,332.49101429915754 422.8694781155791,337.11516350659076 422.37577358225826,337.624367110373 417.83747840009164,319.6128896243754 414.45552952890284,319.5557525854092 393.91130424896255,335.1023693065508 393.39371548453346,335.1839878158062 391.2648149332963,346.7907351940521 390.31643619562965,348.022198458144 369.19491157343145,360.737238925416 367.2661142756697,363.0027813539491 379.97514666675124,381.020190678013 380.21369770669844,381.2826747551444 377.39710606227163,394.3099196338444 377.083989617764,395.2224367627059 335.8155335111078,393.82306094287196 335.27435178670567,393.9386559819686 328.0703433955787,408.3979782740935 326.6789412978105,408.9926856305101 328.53812480007764,415.26149138523033 328.9167772445362,416.08779989992036 344.2953093688702,411.4576215216657 346.8203386311652,411.59133828338236 332.1682366577443,435.5529631157988 331.9020148621639,437.213581090502 289.7763478755951,433.1399683646159 287.5338515911717,434.5739902558853 275.3307571200421,465.71812721149763 273.3154523023404,467.5964855514467 247.96641877340153,465.59260063647525 244.88826567109209,466.6733956721728 241.33301048900466,470.34987130458467 240.95960092451423,471.63909279665677 244.51747754670214,484.98899727966636 244.64447175106034,485.3578401603154 233.8852081777295,495.2846446976182 233.7357860978227,496.15777224098565 215.6091110400157,492.3852199316607 213.70827576890588,492.67475634714356 221.23093475552741,497.6258148155175 222.3363086222671,498.37070670916 209.56902200891636,498.401970364328 208.64074097771663,498.7241216803086 205.4320984177757,504.8014102051966 205.40005859558005,507.5044872764847 192.02343281777576,510.04759638389805 187.65611377777532,512.3523624812369 195.4112071110867,517.0868654597434 195.55567758227699,517.581150700862 193.4748367643915,528.1235212355969 193.58377215999644,531.7677012054482 186.58569244446699,538.7596083324752 183.00859192898497,540.517289749172 172.9588647823548,519.367092245142 172.9376019911142,519.2357068870915 136.61289045331068,527.1055500774528 132.61810716439504,527.4503107575001 129.36198741337284,554.5202492913813 129.23674083559308,554.685586832522 133.82833863107953,577.6431850339868 133.4025002666749,578.8882906485233 108.97388344886713,560.5004057176993 106.03524920891505,559.093937694619 103.3360398223158,573.0014918071101 102.46601301338524,575.6987406833214 96.23834538669325,578.1377858606284 94.16332999116275,578.3674215770443 96.70234026678372,586.7455627865274 96.75593415112235,586.856979296077 57.81065642670728,578.8185395581531 57.48268515558448,578.6319326350349 18.510027946787886,586.9027234562673 17.285232924507,587.2795462719514 7.52269909332972,600.242397890659 7.013848462258466,600.5177516191616 5,619.0385671537952" stroke="red" stroke-width="3.613249732594499" fill="none" stroke-linejoin="round" vector-effect="non-scaling-stroke"></polygon></svg>