<svg width="553.2640216178261" height="473.59820297086844" xmlns="http://www.w3.org/2000/svg"><polygon points="5,162.5725137264235 11.86205610667821,191.79752563720103 12.221484657842666,193.60311345080845 43.21826503111515,194.43018127279356 44.58257891563699,194.9687877910328 95.68580408894923,230.80680314812344 95.90134471119381,230.95190993481083 48.286382364458404,226.07320474251173 45.982427875627764,225.83345769520383 61.88786944001913,229.41746838903055 64.31561415118631,229.68875663517974 64.47756088897586,234.13837662234437 64.24600035557523,234.5912648102967 87.19699882669374,245.48823794932105 87.99508167116437,245.71444510435686 53.51091228448786,296.1532492675469 53.024489528965205,297.0745356468251 44.72238904889673,333.9282149170758 44.678407111088745,334.06514558015624 48.079871146706864,342.445229133009 48.66066574223805,343.4397374953842 69.90452423109673,357.7830360585358 71.046889528865,358.52301053801784 71.48670890671201,350.4462090609595 71.63642225787044,350.30253270606045 99.01095509342849,340.75167188071646 99.70359779556748,340.49313299776986 119.85606343124527,319.98966642742744 119.98859178670682,319.61668634589296 158.40317354665603,316.8053510445752 158.74978616891894,316.21614175871946 166.82731662224978,318.0274597412208 167.0102348800283,318.00223382900003 177.32705763552804,332.2426995377755 177.3518156800419,332.9021330764517 195.89762986672577,337.87259446596727 197.24912782222964,338.67119091865607 191.72429738671053,341.85158475860953 191.30486698669847,342.31055577809457 190.40017891558819,351.4280700266827 190.0282257066574,351.89197528059594 198.71771676454227,376.5815754206851 199.15549724455923,377.17377455264796 197.48330979561433,386.061522761418 197.5235052088974,386.9734242168488 179.57800078229047,421.75883930386044 178.4132076088572,423.9555940873688 186.95269404444844,432.0197778454749 187.45863196451683,432.31107522104867 184.28173795563634,458.4020035574795 184.37814869335853,458.8278675720212 209.50552490667906,466.508133334748 210.6875030755764,466.8358474895358 227.12888348451816,459.64447976008523 228.53717930673156,458.34618199727265 234.97689230227843,458.5690179790836 235.55972579563968,458.86073019413743 237.54473841784056,466.94613579660654 238.0934931911761,467.9360271348851 318.91569237341173,449.1876519580255 326.3203865600517,448.84325422003167 358.75284224003553,463.02704046596773 366.78842965338845,468.59820297086844 405.11679516441654,431.9234290146269 406.5376156445127,430.6024552520248 440.3399193601217,384.448461102671 440.58080056891777,384.19087449950166 391.98862364457455,329.5918827796704 391.3312247466529,328.72208357061027 433.9281683911104,288.6152239626972 434.16176782222465,287.30014261452015 435.45792426669504,295.26529671862954 435.63676472892985,295.69733496411936 455.90253482665867,291.6373131138971 456.15448433789425,291.6391151819844 455.1775610311888,285.0592149705044 454.9014360178262,284.09778059239034 472.9081073778216,262.6288504200638 473.13005596445873,262.2359471110394 498.91570488899015,284.818631506525 499.9450569956098,286.0512810656801 524.0992964267498,325.5315890258644 524.3649356800597,325.977080893761 546.6471756800311,295.8351905749878 548.2640216178261,294.92381020239554 538.1586616890272,283.468385695538 537.993802240002,283.2314047568361 541.2569124978036,252.00984957790934 540.7690333867213,248.83175414137077 523.9120091022924,226.19893664156552 521.2862000355963,222.82803491293453 510.93325966224074,212.73079176573083 509.05951260449365,212.29633620823734 495.7667729067616,218.8951003398979 495.6744399644667,218.97576969803777 484.4147726222873,234.940055671148 484.0361201778287,235.3483295380138 477.58155235555023,232.25966923939995 477.46970424894243,232.24344622221543 478.5715828622924,218.38133948354516 478.4361417955952,218.13257063517813 430.2266951111378,169.42971681809286 429.9913480533287,169.3571430229931 433.869040355552,160.85367148788646 434.20633230230305,159.3647185486043 431.18119054229464,154.10799797670916 430.61175552010536,153.3380294944509 390.72596337785944,138.35691459558439 388.58803342224564,137.74783849768573 387.7710179556161,131.48476068407763 385.1638502400601,131.1610522470437 389.1178555734223,108.79154819191899 389.2684427378699,107.2499366136035 363.5573592177825,84.6353781397338 360.62338531552814,82.35990441020112 341.81134933338035,26.08467396622291 341.2183213511016,23.7206321246922 351.0067783112172,13.240685939381365 351.0594983822666,13.153625357022975 335.964955591131,6.578872365644202 333.3566227911506,5 335.11036615120247,10.369923894118983 301.29379015113227,18.941499780514278 300.43279274669476,19.671795857313555 290.2487896179082,37.75565635605017 289.55935089779086,39.156132365053054 261.0975030044792,66.88370976829901 260.88225365336984,67.09792531351559 246.3303489423124,95.23680735577364 245.4250783289317,96.5160688374308 259.4538601244567,106.30305075837532 259.96940999117214,106.53120553470217 274.5140329244314,106.41126649221405 275.17492707562633,106.46898152842186 279.51865315565374,124.52898141834885 279.44816554675344,125.19580443453742 288.2267855645623,129.80489804188255 288.8530184534611,130.2273445855826 296.0785809067311,148.83988074283116 297.33308558224235,149.42548382020323 280.9304442311404,196.14470318658277 280.5908221156569,196.7405459828442 289.46876558230724,221.9226595412474 288.77932686230633,222.39089545526076 251.12991431122646,221.94879785738885 249.66656824888196,221.85235646856017 209.5585362489801,234.235713864211 208.5414175289916,234.3114205780439 142.87609315558802,204.43362309841905 143.00629134231713,203.142373269191 124.08386360900477,200.69731562031666 123.54472078231629,200.89832968602423 165.42892401781864,134.01084223360522 166.3097278578207,131.9788885161979 114.65803918230813,128.87118458887562 114.13316863996442,128.63989715406206 100.1699228445068,99.60303980950266 99.50553344003856,98.9884447696968 77.94418944010977,105.18842558190227 77.3642686578678,105.3466918815393 71.19805923558306,115.13237673870753 70.83222272014245,115.26087772700703 69.61791345791426,135.6699339937186 69.06624597334303,135.78850447176956 58.17328896000981,133.35802224173676 57.570066488930024,133.39363885240164 51.17171399120707,119.81156753812684 51.086080284556374,119.20108715747483 34.65926343109459,107.57413135218667 34.65285546670202,107.14442667854019 26.13900088891387,109.59188334702048 25.71724032005295,109.552655720443 20.406202880083583,115.28116734989453 19.945411982247606,115.50119691656437 5,162.5725137264235" stroke="red" stroke-width="3.491235566377286" fill="none" stroke-linejoin="round" vector-effect="non-scaling-stroke"></polygon><polygon points="263.49029518233147,395.4627066644607 269.6783499378944,398.5936430999427 270.87693055998534,399.0029625588795 283.9101476977812,386.5253545938758 284.9706658134237,385.49726776010357 304.7179733333178,392.6388364600716 305.9730605510995,392.81670848606154 334.78909411560744,370.2095914989477 335.87670044449624,369.2904144641943 340.1633373867953,364.111696187756 340.63461404456757,363.8594900632743 337.08838826674037,355.11856674728915 336.6083734756103,351.2582714500604 338.61464888893533,352.3711928790435 339.47244231111836,352.19148640258936 338.6292124444153,340.14586164825596 338.9586400712142,339.48599952366203 335.1074534400832,328.94865511142416 334.6754983823048,327.2284172028303 329.8007850666763,326.56626389198937 329.5936913067708,326.2252766774036 332.0459027912002,322.2491553563159 333.2572993423091,318.5590050718747 327.41294449788984,315.68729354068637 327.3299322311068,315.18502168997657 342.24709091556724,314.687703851494 343.6315025067888,307.2296025463147 332.05959253339097,309.42795793979894 331.8120120889507,309.4905747063458 326.2717442844296,287.1253384689917 326.6367069866974,286.7653676365735 321.06585571565665,287.54973385849735 318.49538816011045,289.61538331292104 306.16529948450625,245.35035060474183 306.26171022222843,244.73120831907727 287.3250102044549,223.0808543447638 285.6152487823274,223.17864716605982 284.0391808000859,318.178815153311 284.07209443557076,318.5157607542933 272.52319488010835,321.3955433621304 272.4095991466893,321.4662649045349 269.0940600889735,329.70494290965144 267.2401194666745,330.30402549216524 271.7172477155691,329.8454797229497 275.77960590226576,331.4359717883053 275.64037831116,339.51482630649116 275.86116181337275,340.0873074104311 263.49029518233147,395.4627066644607" stroke="red" stroke-width="3.3727408888075896" fill="none" stroke-linejoin="round" vector-effect="non-scaling-stroke"></polygon></svg>