<svg width="5944.2929555911105" height="5233.815774828778" xmlns="http://www.w3.org/2000/svg"><polygon points="5,4322.0163447689265 6.2955739023163915,4331.21987362206 7.019965155632235,4333.030143648386 27.296221013413742,4349.754409105284 29.32026396447327,4351.037843998172 50.33197937789373,4383.5883133346215 51.28705735120457,4384.851642145659 89.17094314668793,4405.117150546401 89.8551389867207,4405.165258189663 99.02988771558739,4423.563415734679 100.28031459567137,4426.602960329852 102.83184952894226,4454.950003840262 102.93321187561378,4455.869309564936 115.76166542223655,4484.957158333156 115.99905137775932,4486.066573709133 109.76817976892926,4526.1162545598345 109.42855765344575,4528.1452975750435 122.41138488892466,4549.937680865056 123.28199424000923,4553.662234608899 118.05746432009619,4591.462558254483 118.37407601787709,4595.583115154295 128.38273393781856,4607.932859118329 128.78352298680693,4609.203262495459 126.37907996447757,4617.895784256631 126.34558378672227,4619.266494082287 133.7153254400473,4660.066998099559 133.9527113956865,4661.25577682897 130.0936604444869,4672.726913913968 127.48124984896276,4676.055332054733 105.27590542228427,4683.663031511707 104.08839310228359,4685.2679079553345 108.7196037688991,4706.1299088655505 110.02566343115177,4707.734795324504 123.38452167122159,4711.241404750384 125.0468059022678,4711.419855279964 131.8153639822267,4719.087113124551 133.18084295117296,4719.681366384379 137.15873251564335,4716.709809483145 138.583922062302,4716.590842287173 145.64899413345847,4719.622174323187 146.65853980451357,4720.275911329081 146.88427491567563,4726.2368203079095 146.83650645334274,4729.7857279718155 168.21056312893052,4764.378066712874 169.338656142354,4765.507395552471 179.8477178311441,4768.419800106785 181.56942136900034,4769.133030499332 204.71848419564776,4766.227331939619 207.46458823117428,4766.38683183922 213.5116677689366,4772.52102260734 214.69918008893728,4773.115576335462 217.54897663998418,4767.528408111888 217.84607317333575,4766.339594208286 225.44533646223135,4768.385100839543 226.63255751121324,4768.570843980182 234.29211392009165,4776.622249826207 235.24194901343435,4778.1676832768135 231.9765085867839,4788.093755886075 232.33273315557744,4789.579709504265 242.2508057600353,4800.064506244496 242.97170176007785,4800.860847022268 244.80088433786295,4796.236766007729 245.78188543999568,4794.814376803581 252.5987945245579,4793.805466397083 254.91148714674637,4793.530203029397 286.80625635560136,4802.205091654905 289.0172953599831,4802.492602612008 309.22306360898074,4828.604584864923 311.61527324444614,4831.367744164774 315.2532494222978,4831.554948576959 316.84184206230566,4831.812135963119 322.4601705245441,4819.536562035675 323.88506880006753,4817.81294632738 340.63111879117787,4805.705961951986 341.7391140977852,4805.342636421672 356.9047270399751,4803.157143746968 357.8268913779175,4803.438531320775 373.9953507556347,4820.012152983458 375.1234437689418,4820.963043475873 381.5949053156655,4818.288245449308 383.25748081784695,4816.683600877877 391.8071617423557,4818.823321530945 392.99438279122114,4819.060971151688 402.2565128534334,4830.948721240624 405.46282524452545,4833.147936055437 419.1776167822536,4835.050015948364 420.0683238400379,4835.46612339851 451.1201544533251,4867.384656054899 454.7418194490019,4871.307826140779 467.09113201790024,4877.192297868547 470.3568637156859,4880.164280590834 474.8689444978954,4891.101035349653 475.58139363559894,4892.051945007057 500.6959539200179,4918.205706646782 501.64608028449584,4919.156623656745 508.4737664000131,4919.988858504337 509.18621553783305,4920.404976002406 510.7893717334373,4929.67738141946 511.08617699565366,4931.1041991167 521.6543667201186,4946.083049885463 523.2575229156064,4947.806728488416 526.5133513956098,4947.682796230889 526.721318968921,4946.811771288631 525.5474963912275,4937.282125263126 525.5227383467136,4936.6300978019135 529.5475225601112,4935.282302604057 529.9614188089035,4934.852477935958 526.2890726400074,4932.7724655505735 526.1463497956283,4932.415542198229 527.2767729779007,4924.521246785647 527.198712320067,4923.785531554371 531.4119489422301,4923.75053915719 531.5497201778926,4923.195034899283 527.5593059556559,4911.134927977459 527.543577315635,4910.8103746803245 532.1992547556292,4901.451413602685 532.1337187556783,4900.818346908665 527.3449304178357,4900.7095795886125 527.3790091378614,4900.380361635005 532.9615112533793,4893.962221518508 533.9497941334266,4893.56097880064 538.963152497774,4896.374636006425 539.5701614933787,4895.740112223546 544.2937051022891,4881.09448370547 544.5928405334707,4880.117333042086 550.4698177422397,4877.855395051767 553.2459227022482,4875.350847902824 569.8708039112389,4851.157813125406 570.3843148801243,4850.405783812748 574.0592824888881,4851.399547281209 574.246569813462,4850.30664075911 567.1526619022479,4842.595652488526 566.3703076977981,4842.707917171996 569.5384635733208,4839.208468285971 569.733906488982,4838.732874758542 557.4911991467234,4835.302829649067 556.5655395556241,4834.54730456043 552.3205543822842,4823.832628996111 551.8186942578759,4822.499456773396 558.900368782226,4822.363865138381 559.698451626813,4820.9461309779435 554.1290567112155,4805.001763626467 554.3364417422563,4804.188509502099 556.1836831289111,4800.680350872921 557.9324748800136,4799.6527768461965 567.8208378312411,4800.422874152078 568.706593280076,4799.822775593377 567.8406442668056,4790.942028594436 566.8302247822285,4788.03835338878 547.9217780622421,4783.991640681052 546.7913548800861,4782.708637180389 550.0366976000369,4778.376754230936 551.331980231218,4777.83002059022 557.1521595733939,4780.296591850813 558.9376514845062,4780.165084107197 566.7780872534495,4776.215188598726 570.7786959644873,4775.571063871612 575.948758186656,4759.4691498700995 575.7480723911431,4756.8311383618275 573.9392787911929,4752.155794797814 573.7237381689483,4751.795390620828 566.423610311118,4755.105803492945 565.6913547378499,4755.567681125016 561.0045112889493,4749.70207290363 559.9186525866389,4748.288158342941 556.7720507733757,4750.115254476084 555.6401712355437,4749.128225887311 549.6207624534145,4737.989255367429 547.4726380089996,4734.992315158248 551.3016880356008,4730.6281238734955 551.7263613156974,4728.310587961576 547.322633386706,4719.132892199443 547.1813668978866,4717.434693022049 555.8117299200967,4708.296097534592 556.7927310223458,4707.640030024922 559.8723404799821,4696.339067269117 559.81117354671,4695.771352064214 566.565168071189,4695.525837863679 567.259849671158,4694.913218773436 568.0518158222549,4683.759837265359 568.1228859734256,4683.3387905728305 571.8234854401089,4686.310319908895 572.5938975289464,4686.210889832582 586.9687094044639,4676.1897518093465 587.5885343289701,4674.457749280729 582.4350745601114,4672.369141949457 581.4162082133116,4671.384175795363 581.3058164622635,4663.080787662417 581.0340605155798,4660.737636039616 571.7113460623659,4654.631919554318 571.499883235665,4654.675656741834 571.8231941689737,4649.7450211358955 571.5773613511119,4649.198598655756 565.8509713067906,4648.601149624446 565.1213371733902,4647.909228541423 568.177644942305,4637.053403510246 568.3404654933838,4634.407317486475 563.3154562844429,4613.328796281014 563.0521472000983,4612.6666228635 566.5159432534128,4612.0473115067 566.6598311823327,4610.963225308224 560.9025664000073,4605.558252755087 559.9850623999955,4603.375214110827 562.5258203023113,4599.931398227578 561.880363520002,4598.878514349461 556.5538887112634,4598.742056422401 556.5317521067336,4597.706959065166 563.2662314666668,4593.741226811078 564.4458794667153,4592.928603581036 566.2875867022667,4584.162081164774 567.3903391290223,4583.075379077229 577.5452151467325,4580.28150360845 578.359609173378,4579.374704578193 580.7969658311922,4569.598492272547 581.223678008886,4567.834467363893 577.2358852267498,4561.702665078687 577.2993823289871,4559.996375559946 583.8124956445536,4554.203102873638 584.0015305955894,4553.815310524777 588.5409908622969,4536.254774676519 589.2755766045302,4534.666000365745 617.327314773458,4540.913220030954 620.195752675645,4540.325410615187 644.795345635619,4515.648579653585 645.9589737245115,4514.8350990186445 664.651588551118,4506.52856814093 666.0068730311468,4505.671645682189 672.763780266745,4507.908858086332 673.7287614578381,4508.929643188021 677.3113961245399,4505.728793277871 677.8487913245335,4505.790897553787 686.844117048895,4519.836987270508 687.6410348089412,4520.506141591235 693.6292775822803,4517.5822734104 695.262143431115,4516.960062431637 704.611946097808,4519.779256315203 706.7041464889189,4520.549585601431 723.484275200055,4514.533323989948 723.9031230577966,4514.430108188768 726.5761180445552,4519.917460724828 727.0159374222858,4520.4026340522105 740.9386965334415,4520.700910714804 745.5856358400779,4520.7592248257715 743.5082902756985,4525.799316917197 743.5645056000212,4526.428527093492 748.4977644089377,4524.791939402814 749.3447808000492,4524.917898023385 759.9986042311648,4539.003714489401 761.3113631289452,4540.254558593733 769.8249264357146,4540.955206421437 770.1831899022218,4541.186423149658 769.3670482489979,4549.483118787408 768.613238613354,4550.649993457831 776.7251390578458,4553.282606365159 777.5672038401244,4553.645031792112 779.2012347733835,4559.07500287611 780.2640830578748,4559.550559444353 800.4185875911498,4543.924870046438 802.6348694756161,4542.524739680812 808.8127297422616,4544.288752411259 809.5446940445108,4545.954214464524 818.8059502934339,4542.360876061837 819.7624846223043,4541.7896860310575 813.77395057783,4525.078553585103 813.9513346845051,4524.532149761566 818.9038173867157,4518.910667960416 819.5909259378677,4518.484683615505 827.3984480712097,4519.562619455624 828.1135186490137,4519.350356165436 828.1968221866991,4515.051735600224 828.5329490490258,4514.794279206544 840.8586686578346,4514.29015456466 841.5041254400276,4514.158364906791 842.6214414222632,4504.217297983705 843.4236020622775,4503.71550734085 847.7568423822522,4506.5169053637655 848.0274332445115,4507.132991621271 848.9102759822272,4516.815152017167 849.6969992533559,4517.248425426078 854.0200450844131,4514.265954251052 854.3919982933439,4513.9254004566465 864.0645293511916,4519.4398682931205 865.2234971022699,4519.492934115813 879.986573368893,4515.282075990457 881.4802116267383,4515.335724893492 880.9809729423141,4529.586534010363 881.1959310222883,4530.439963175217 898.553650346701,4538.522912288434 899.5518364445306,4539.74284959049 900.9047907557106,4549.4067267054925 901.2208199111046,4550.103877405287 914.4885102934204,4559.430722682271 915.1109566577943,4560.372797188233 915.4965996089159,4574.0345084207365 916.3159452445107,4574.646523953765 937.7488386845216,4570.805319059407 939.3968506312231,4570.951689477079 944.1690365156392,4562.108244266012 944.3359348622616,4560.995307092206 951.8574287644587,4559.530440863571 952.5119149511447,4559.459588471334 957.847710435628,4567.440258938586 957.7550862221979,4567.963051630184 947.2856374045368,4573.6193059450015 947.3747663644608,4574.154345660936 956.0129937067395,4574.261936763069 956.5704866134329,4574.179421093664 965.7501869511325,4580.70895300433 966.2855432534125,4581.004318816587 990.8245518222684,4580.280337307253 991.6345767823514,4580.586491371505 1000.2544540445087,4574.927310533123 1000.8285494045122,4574.540390714421 1015.2383138133446,4593.749390949262 1015.7090079289628,4594.140978025156 1028.1049238755368,4592.001974226907 1028.6525135645643,4591.8072013153 1035.0202825956512,4603.940290637198 1035.134169600089,4604.131565270829 1045.4643908267608,4605.932638036669 1045.6982815288939,4605.940219047479 1047.878737066756,4611.796554584289 1048.0532084623119,4612.540078067337 1043.9471596089425,4616.533239136916 1043.8822061511455,4616.809946846217 1047.6468852623366,4622.112592011807 1047.7010616889456,4622.460736917099 1057.1472750933608,4622.296578134294 1057.6660289423307,4621.985755308298 1064.2729315556353,4605.217690476333 1066.5282437689602,4603.756888597156 1078.1438444089144,4613.482166275149 1080.3205134222517,4614.065322205424 1092.8542006044881,4610.9562274424825 1093.729761564522,4610.600794195547 1094.528426951263,4600.970286716474 1094.9967908977997,4600.810502556968 1102.2412859734613,4608.776392915519 1104.2816401066957,4609.155735347071 1107.3446471112547,4601.721097414265 1107.574751288863,4600.648094212054 1119.017045617802,4596.251116997795 1120.391553991125,4595.409335559001 1122.1327726934105,4601.487252667779 1124.323713991209,4602.381227802136 1126.9830192356603,4593.366259629023 1128.1821824000217,4593.300071802223 1136.0826200178126,4607.213245926308 1137.4588760178303,4607.47129196953 1145.830007751123,4597.597034659004 1148.6500946489396,4595.296495457063 1175.1904270222876,4582.508556329762 1181.0828416000586,4581.539068037993 1186.6021378845908,4584.597111981013 1187.6311987200752,4586.44657667994 1187.3850746311946,4596.07150583982 1188.809972906718,4597.806095137377 1205.0020252445247,4596.834853322827 1208.7314605511492,4597.301084350678 1232.7391906133853,4603.710819405736 1235.5359758222476,4604.876253497554 1262.1019400533987,4639.375837627333 1265.5980672000442,4641.706729057827 1288.4695486578858,4650.447439482319 1292.4028737422777,4652.341257994645 1314.311704177875,4654.056338216411 1319.1077742933994,4655.404901525471 1328.0098932622932,4664.741055547842 1330.4548229690408,4667.050094642211 1331.4736893156078,4677.848567804904 1332.3565320533235,4680.904651793186 1342.8833612800809,4691.906692231423 1343.9698025245452,4693.740466098534 1346.4147322311765,4693.944283604622 1348.7239296000917,4693.12930523383 1351.576347591239,4685.522752136458 1354.0891434667865,4683.553396083065 1360.9485781333642,4683.281640194473 1363.3256416711956,4684.775714667747 1378.6063067022478,4709.360968254157 1380.2362598400796,4711.058580442448 1378.8099052089965,4718.665187538136 1378.674172871164,4721.449547421187 1384.2432765156263,4726.882685667602 1387.299293013406,4729.463523984188 1388.725647644489,4742.09569152561 1389.2688682667213,4744.065079678316 1379.6248817779124,4756.0861271745525 1379.748672000016,4763.475303714629 1370.0173041777452,4766.458563057939 1368.6174552178709,4768.171365024056 1362.3117269334616,4787.153371509281 1362.6006678756094,4788.18152510724 1368.0063684267225,4793.8538707626285 1368.6008527645608,4794.407896680525 1378.9785511823138,4790.142190931831 1381.2562912711874,4790.222087212256 1389.2784802134847,4798.24263317755 1391.2005782756023,4799.562091411441 1396.3450086400844,4815.702385720098 1397.723012266797,4817.54876168957 1411.1675042134011,4826.917414153926 1412.2396731734043,4827.497980410466 1426.8061414400581,4820.307246847078 1427.423053653445,4820.570848501055 1428.7896977066994,4847.099072877434 1430.7007274667267,4856.909282621578 1423.4897285689367,4866.371934175841 1422.267263715621,4868.427704490954 1422.2119222045876,4876.153912424925 1422.239592959988,4878.184610894183 1425.0285138490144,4887.3358905314235 1426.0450500267325,4889.288154940703 1431.5841527467128,4891.004515555222 1432.7783643022412,4891.0844141159905 1431.0173391645076,4917.347519576084 1431.0173391645076,4918.5608789311955 1434.5894880711567,4921.6212524489965 1435.2952379733324,4922.86085757718 1412.845225813333,4939.408797073062 1410.6729258666746,4941.359049283434 1385.8784725334262,4950.574355650926 1384.1451181512093,4950.626553044538 1379.7839158045826,4956.742110066465 1380.050720142317,4958.771980474703 1402.7395746133989,4974.448475359008 1402.989485226688,4975.134044773993 1393.2450102044968,5005.37534335244 1393.9172639289172,5006.773322688998 1409.1950162489666,5008.864752154099 1410.7728318577865,5009.234514215612 1419.14512867562,5018.468955427408 1419.5284414577764,5020.868916871608 1429.4674855823396,5017.815454671625 1429.8117680356372,5018.316734356806 1423.6339077688754,5041.2552422959125 1422.5229997511487,5043.179889808758 1436.328376604477,5061.014133088407 1438.4674716445152,5061.727423090255 1447.4394956800388,5084.700922726421 1447.583966151229,5085.228166056913 1440.7728824889055,5103.051254657563 1439.3118665956426,5105.450108676916 1433.2895451022778,5106.580422678497 1432.6452534045093,5107.2132353760535 1433.9061660445295,5121.981717252987 1433.187891484471,5123.6267463094555 1452.078570666723,5141.480072286911 1452.7283965155948,5142.007616002578 1462.3062644622987,5165.034731053631 1462.8229794133222,5165.7737056693295 1458.989560320042,5178.324342144886 1458.3117724445183,5179.853331704158 1470.45632142236,5190.646390356822 1470.5230225067353,5191.358249339159 1462.906282951124,5204.724661672022 1462.9450220089639,5205.779477235745 1478.006359893363,5203.73050486634 1478.9008534756722,5203.968764185556 1486.6859477334656,5227.252934137359 1488.1242444800446,5228.815774828778 1490.7118970311712,5222.75164203695 1492.05057905789,5222.119391059154 1504.4007654400775,5221.335201703943 1505.3840967111755,5220.465565376799 1502.6173124267953,5205.458104032092 1503.1174249245087,5203.533656604239 1512.7118953245226,5202.7999230348505 1515.0840072534047,5200.797029508045 1525.3396630756324,5178.149367225007 1527.3951633067336,5174.56442472979 1536.8451632355573,5170.428899499937 1538.8394965333864,5170.561588511337 1539.1118350223405,5166.263342056307 1539.739524266799,5165.630518389051 1558.1172750223195,5158.941841899999 1559.1396366222762,5158.626305603422 1562.4618749156361,5167.145504277782 1562.545178453438,5168.069077335182 1571.550698666717,5174.085868876078 1572.8008342756657,5173.928974893643 1592.3340575289913,5155.003764378955 1594.2896517689805,5153.792071569245 1608.1506614044774,5152.242971787928 1608.8339834311046,5152.217308996245 1627.0672637155512,5137.0628810985945 1627.6451456000796,5136.19239153224 1659.172913208953,5124.974031821708 1661.4285166934133,5124.157786704367 1665.0900858311215,5121.721300564823 1667.2300546845654,5114.895357574569 1682.8051948088687,5105.774971847539 1685.5081907201093,5105.134285713895 1691.3272049778607,5110.536233008024 1693.6023236266337,5111.093517086934 1707.4260505600832,5108.879545500386 1712.7714579912135,5106.958943807869 1714.0180983467726,5107.884833496064 1721.0187995022861,5114.338947733631 1730.502878151252,5112.996915565687 1735.2156447289744,5113.021411584923 1740.6673661156092,5127.076614820515 1742.2434340978507,5129.3810006168205 1761.0173135645455,5140.9773164945655 1762.7562020978658,5141.347092789249 1779.1681641244795,5137.03780166409 1781.3748340622988,5136.1818931669695 1788.8494333155686,5140.3252505079145 1791.7819508622633,5141.261939254124 1793.153546524467,5139.069236457231 1793.3553974045208,5135.353688897449 1800.1653159823036,5137.087085669278 1803.6465883023338,5137.586341430666 1823.4349650489166,5119.5046975103905 1826.9675010844367,5120.568818439264 1840.1285862401128,5134.920631463407 1841.8564064712264,5136.424522061483 1863.5062968889251,5146.006919113803 1864.2283579733921,5146.376695955056 1888.2395832889015,5174.736774843535 1887.6841292800382,5175.949350003153 1901.367463537841,5177.959519447177 1903.3230577778304,5179.094231899711 1910.8515421866905,5192.830960941501 1912.3629479822703,5196.333392495988 1923.2206611911533,5198.159849290969 1927.225056426716,5200.292223537108 1951.682509084465,5194.932711065281 1953.590043591219,5192.634404940065 1985.4335490844678,5197.5596818367485 1989.9593196089845,5199.147005417966 1992.8417385244975,5189.465305525926 1993.3421422933461,5188.79048341501 1987.6061403022613,5169.09851018351 1987.051268835552,5164.695572670898 2008.8491249778308,5164.008798921481 2012.190295893466,5166.389615180087 2042.7160908801015,5152.734939206042 2048.076061866712,5149.554212171468 2072.7668226845562,5145.915641398169 2078.255244231201,5147.562140121474 2097.605549226748,5132.618866510806 2104.25381233776,5127.264418413513 2118.682800640003,5122.512174151605 2119.3340828444343,5121.466716296622 2123.470715164556,5120.865104292752 2125.1003770312527,5120.998957851087 2125.1193096534116,5132.153731123777 2125.3319375644205,5133.114330544486 2129.1778813157,5135.8450706315925 2129.8667374934303,5136.49917710945 2136.4095604623435,5132.541878580232 2136.842389333411,5132.368655742961 2138.210489742225,5134.9217979480745 2140.189968213439,5135.689636520459 2171.3449088000925,5131.823616266949 2171.7218136178562,5131.674889619346 2190.1581098666647,5144.968161356868 2191.374749297858,5145.5231180865085 2201.998863075627,5142.63576932298 2203.2370565689635,5142.791786994669 2215.911718968884,5128.688109963085 2216.339596231119,5128.184189576074 2225.228025457822,5131.341566979652 2226.0470798222814,5131.404265461373 2241.608238933375,5124.331009124522 2242.3897193245357,5124.221068294486 2268.761114453431,5081.584706334397 2269.237925262307,5081.150197629584 2297.0120820623124,5075.043460640707 2297.449571271194,5074.837579720537 2307.133170631132,5079.463779466227 2308.9862374400254,5079.637582856114 2326.2300697600003,5076.3881024779985 2330.701955128927,5077.0830238509225 2345.7874685156858,5088.542393827927 2346.5817648356315,5089.430368288886 2355.0236754489597,5087.661126790568 2358.0027963734465,5088.330096519552 2384.4155520000495,5111.075436701998 2385.290530417813,5111.821690088953 2401.816379448981,5112.385973238852 2402.4204757334664,5112.089396501891 2412.6266154666664,5121.225254946388 2413.7713109334,5122.719516040408 2415.996913493378,5131.558532893658 2416.9085920711514,5132.279419739381 2428.842260764446,5138.214493935346 2429.743162311148,5138.659508268349 2433.4632769422606,5132.7670099576935 2434.1098988089943,5132.491428156965 2455.7251279645134,5145.024444405222 2459.6007813689066,5146.263838192332 2462.2892137244344,5148.795119141811 2462.516113920021,5149.283878214774 2459.5134000356775,5155.027385831578 2459.3910661689006,5157.139902574476 2469.4119574755896,5169.063515293994 2469.987800462288,5169.9885469941655 2490.0292918045307,5159.810879171477 2491.4169073778903,5159.527129729162 2497.619525688933,5163.9049809060525 2501.8350924800616,5166.699611344491 2508.655788088916,5158.529195085517 2511.4030572089832,5158.955256567569 2514.244989440078,5166.510347455158 2515.334343395545,5166.297170421574 2520.497123840032,5158.292105454253 2520.94713770668,5157.486934025888 2525.5416482134024,5158.765993110021 2526.1102094223024,5158.813236067537 2538.856815786683,5147.032845811569 2541.0710587734357,5144.9911994957365 2556.4956117334077,5145.882396479952 2566.7000038400292,5143.526090824627 2576.8630354489433,5134.79873382533 2579.3892297956627,5133.976945555536 2594.3894007466733,5143.914531199145 2600.9665937067475,5146.530672443332 2626.4091252622893,5101.685022601392 2629.642525866744,5099.404568175436 2628.66181603563,5079.581009268528 2628.572978346725,5074.754469154403 2633.133992675692,5056.084679164109 2633.367300835671,5053.421073955251 2644.456283306703,5044.298518766183 2647.254524871125,5046.842555318028 2645.224073955673,5030.422121360898 2645.688651377801,5027.670177540625 2654.357753457851,5011.834805790684 2655.639346346725,5009.407439231058 2670.077655324596,5011.542320277658 2674.160985031165,5013.842545997002 2696.4770124801435,5011.2929931649705 2699.733423502301,5015.059729951783 2711.5435932445107,4998.659568133415 2717.4960096711293,4986.6108643007465 2735.267333973432,4982.757550793234 2740.932265813346,4982.067314142478 2764.7707673601108,4998.860778751783 2765.6908928001067,4999.608465848141 2772.78159672895,5025.956082456047 2772.113420800073,5028.9045714825625 2779.217231928953,5029.39564635104 2791.6475178668043,5041.343601090019 2794.4119719823357,5042.91014747892 2806.113788871211,5044.015653745271 2808.6478475378826,5043.14052200783 2817.8161883022403,5049.493907653494 2819.077392213396,5052.468370468938 2820.6895778133767,5050.899778434425 2821.2505659733433,5048.073748372612 2827.3628902401542,5048.606526744668 2829.0924580978462,5048.286626420566 2832.7173270755447,5040.005388441263 2832.5894590578973,5037.631658849539 2839.7229798400076,5035.760671173222 2840.019785102224,5038.409390465822 2850.9785693866434,5020.017994749593 2852.22287957347,5019.332416454912 2857.473041351186,5022.418832104537 2857.7841188978637,5022.498150456813 2888.056216746685,5014.115202164277 2890.539594240021,5013.588261334109 2895.600721066701,5003.145692871185 2897.4118448356166,5001.537464308552 2906.2894970311318,5005.256949633942 2908.6118016000837,5005.151969985571 2927.0783900445094,4995.080062344321 2931.4896910222014,4994.051848167437 2945.806248675566,4997.745663819136 2951.061944604502,4998.379039725405 2962.0230590577703,4993.922956905211 2964.2897308445536,4994.556332112872 2969.011818097788,4986.962252645637 2971.006151395617,4985.247886111261 2966.2007606044644,4973.090750876698 2967.0672921601217,4972.273083725246 2975.7952310044784,4973.065089422511 2976.528360391152,4973.11787036818 2990.2451908267103,4966.0513545232825 2992.0839853511425,4965.234272240661 2997.6227967999876,4967.344339512638 3002.8688807822764,4964.427979598055 3007.5006739911623,4956.928446346894 3008.3118640356697,4955.742193014012 3001.078437262331,4951.838465933106 3000.961928817793,4951.1794372167205 3007.2341609244468,4945.061265509343 3007.7505846044514,4944.0593105726875 3008.85624974221,4939.127981840051 3009.3062636089744,4936.80739327136 3005.18390357343,4931.95451625553 3005.1728352712234,4929.845345213776 3008.561774648959,4924.571110962657 3009.156258986797,4922.645946000237 3026.1061987555586,4905.717837034725 3028.4730678044725,4902.737959442544 3033.6006044445094,4882.801509120851 3033.9006136889802,4882.32736771123 3056.6617033956572,4863.8429009361425 3058.0784460800933,4862.261271939264 3063.872993564466,4845.568772427505 3065.2061414400814,4843.459653248545 3080.1897099378984,4829.69486031658 3081.2950838045217,4828.03334947885 3081.7008244622266,4813.0028061612975 3082.250744320103,4808.388040332473 3096.2617585778935,4784.549747348181 3097.028384142206,4782.519685794832 3116.0952823467087,4717.2291246664245 3116.306162631139,4716.438051090343 3111.617280284525,4707.472076761769 3110.46180778672,4704.887463644962 3111.9283578312024,4697.583842215128 3112.0728283022763,4696.607616711641 3125.3839180800132,4678.597936504404 3126.2117105778307,4677.306514823227 3132.372968391166,4653.20492120774 3133.0006576356245,4651.965410023229 3129.822889813455,4643.2375254710205 3128.2174034488853,4641.312512638513 3111.9117553778924,4628.865267864545 3111.2505699556787,4626.729159451788 3117.12288682675,4598.22479928378 3118.178453333443,4596.721721600159 3116.0451837156434,4554.531997469137 3115.6062381510856,4553.082004052587 3120.000645404565,4501.689976601861 3120.017247857875,4497.734553001239 3114.600770275574,4477.431219756603 3114.389598720125,4475.268666935852 3103.0839105423074,4465.432959940052 3102.328353280085,4464.694714412908 3103.311684551183,4459.474226437975 3105.373010204523,4457.9449645257555 3097.9785105068004,4436.428068289068 3097.8229717334034,4435.795666204416 3092.033958400134,4430.785727618611 3091.1840292977868,4429.65125430387 3093.2896281600697,4422.5321578576695 3093.3006964622764,4419.473665010068 3088.7784211911494,4406.974980709027 3088.5896775112487,4404.470467256964 3098.772806826746,4392.975092731998 3100.0340107379016,4391.524870953755 3103.467514595599,4379.052811881993 3104.5894909156486,4377.41862155369 3113.0841216001427,4371.565572823398 3114.2841585777933,4369.851498660166 3112.311961884494,4358.671695788042 3112.672846791218,4357.11594335211 3123.5896880356595,4343.854462775635 3127.8005944889737,4335.416820838 3131.334004337783,4315.694853876019 3131.3785688178614,4310.895869130152 3126.9285287823295,4297.053193774889 3127.1784393956186,4295.919635453727 3137.861681208946,4287.350901786587 3140.4228280888638,4281.365919552278 3138.2618877156638,4272.242688250495 3138.4506313955644,4271.372991099372 3151.9341536711436,4233.5111816737335 3152.1895984356524,4232.271810265491 3173.906189937843,4225.97116826626 3174.784081066726,4225.628599762684 3190.439612017828,4207.093794269022 3191.7340208356036,4205.670174235944 3214.428409457789,4205.038393816794 3215.8119472356047,4204.08882833377 3223.978606648976,4196.8646164530655 3224.728629760095,4195.573070256389 3227.950670791208,4169.918621014222 3228.317381120054,4168.521253617131 3222.650701653445,4154.23099254258 3222.8173087289324,4151.383792025968 3232.795091911219,4125.229061615304 3233.022865920095,4124.675135531696 3227.028506453382,4115.025172738824 3226.467518293415,4112.889939492918 3226.9507370666834,4101.209732907126 3226.8618993778946,4100.577386459801 3219.595267697936,4092.7994460813934 3219.2672964266967,4091.40210643562 3225.22291683557,4080.5394330583513 3225.1562157511944,4080.144109282526 3211.52851427556,4054.3589398320764 3210.4618794666603,4051.8272526685614 3206.228545137914,4020.5847813165747 3206.045044337865,4019.0026359960902 3209.195141404518,3989.711925961543 3209.1063037156127,3989.210785933188 3192.08412871114,3946.7901969957165 3188.8172319289297,3938.8012033469277 3187.784093297785,3917.6306224096334 3187.6562252801377,3915.5217331690947 3181.1562191644916,3899.096398417256 3180.633970062365,3897.804950106074 3155.4229990401072,3861.737852449529 3155.217361635645,3860.103296435671 3157.2341228090227,3840.6734990024706 3157.43946894235,3840.225142588606 3160.9673446400557,3838.0900572002865 3163.400332231191,3838.3130692068953 3168.863995733438,3826.972705596825 3169.3408065423137,3826.077161923982 3194.146619448904,3799.602158298134 3194.957518222276,3798.3515540313674 3191.0571067734854,3745.88394877105 3191.0093383111525,3745.248160365154 3200.2458365155617,3736.0046068103984 3201.0861536711454,3734.8709181302693 3253.278441528906,3753.360373058589 3269.0507721955655,3758.317261248245 3310.0562104890123,3781.0425307614496 3314.706353777903,3782.4659980884753 3366.272991288919,3780.673472960829 3370.9618736356497,3780.8577103421558 3402.606149688945,3791.34992632817 3406.750646329019,3793.4322227928787 3451.4674611201044,3827.99389382184 3456.3730491733877,3833.4505356922746 3481.8508245333796,3872.705749186687 3484.1174963200465,3876.9237753131893 3496.061942044529,3910.194416858256 3498.500755057903,3916.9175530176144 3507.061795555637,3928.3330921051092 3510.489473991096,3931.707501150435 3533.5840691201156,3948.236461934983 3538.9172431644984,3952.8495870718034 3596.2784281600034,4008.528191113728 3601.3340208355803,4012.482233213843 3631.000566044473,4021.708055318799 3633.1617976889247,4022.4462153097847 3669.261939200107,4044.9321742207976 3675.4564019200625,4048.41192647547 3699.8672512000194,4055.9498454178683 3704.4897237333935,4056.4238811817486 3723.3897235911572,4055.393888417282 3727.983942826744,4054.444359521847 3748.606228764518,4042.3404371525394 3753.0507346489467,4040.7320450526895 3774.3339147379156,4039.252803017036 3776.1896029866766,4038.6467045982135 3802.7506156088784,4024.1426427637925 3805.167292017839,4023.6945572835393 3836.889628728968,4032.0213173894444 3841.3894761245465,4033.2335122793447 3852.0785433601122,4030.9913310193224 3855.556320426753,4028.5383727726294 3891.2061568000354,3977.808482642751 3892.1172528355382,3975.487620006199 3896.7452595200157,3947.6198824822204 3899.4730134755373,3941.0552850312088 3898.395019093412,3913.1093681413913 3899.206209137803,3910.8949495112756 3939.4729838933563,3895.175702560111 3941.389547804487,3894.015732380678 3945.467343360069,3859.2150334399194 3945.417244729004,3858.7139097684994 3955.522895928938,3848.773366442765 3956.361756728962,3846.4263418198097 3960.2429442844586,3815.5530809892807 3960.5173216711264,3814.974419121514 3972.945277440129,3800.8682133118855 3974.279007857782,3799.770654659951 3992.472966542351,3800.073831522255 3996.661736391252,3801.7077802893473 4009.078623857815,3814.966256637359 4010.511677724542,3816.6795041258447 4028.75719139562,3827.3321474976838 4032.836443306762,3829.4028016640805 4054.4228366223397,3864.4950558013516 4057.595070293406,3866.07626525627 4113.995060622226,3872.5777712705312 4130.489452373353,3873.6021777574206 4181.778508515563,3868.2399345086887 4197.750651164446,3864.8358437011484 4304.356169102248,3839.2911154724425 4407.824697173317,3807.5468568034703 4409.107746417867,3784.9030639256816 4409.672812373377,3782.7490591295063 4417.584900835645,3776.6333708309103 4418.690565973404,3773.7339681576705 4428.805537848966,3730.8069572411478 4429.054865920101,3730.4553946414962 4441.334273422253,3723.299965375685 4442.060121031129,3722.71723541338 4450.352900835569,3706.9424547326053 4450.82854656002,3705.5160985052353 4462.156080071232,3694.789728893782 4463.193296497804,3694.152490831795 4496.17101169785,3691.064540351741 4497.803877546801,3691.199217271642 4510.448247751105,3683.5902696783887 4511.000789048965,3683.2844778465806 4526.126497849007,3696.3175264954334 4526.942930773366,3697.022686464363 4535.142795093358,3713.836954048602 4536.339919360005,3715.5134289028356 4547.220642986707,3721.949396259268 4547.630461440072,3722.4073595340597 4548.256403057836,3732.045297383447 4548.750690133427,3732.5353280371055 4560.561151146772,3727.147909168736 4561.268357404508,3727.245565364836 4573.245716764475,3738.806034795707 4574.0146724978695,3739.079472926096 4582.728339057881,3737.0864067143993 4583.753613368957,3737.191642451915 4594.463943395647,3742.013832516852 4596.54682311113,3741.4109855710994 4613.04587520007,3717.797120489995 4613.42161493341,3717.444684470538 4617.427757795667,3718.30755517527 4620.846406826749,3717.3653936581686 4632.595700906706,3708.8258986894507 4634.807613724493,3708.1137404724723 4654.418315093382,3707.875577068422 4655.198921671137,3707.929214847274 4663.069649635581,3712.6105712929275 4664.74387598224,3713.5241637366125 4669.604317013407,3729.4902009592624 4669.630531413364,3730.3396646713372 4659.327398400055,3747.400396343204 4659.028554240125,3748.409029602539 4658.036193564534,3756.8480347655714 4658.250569102354,3758.035367951612 4663.923656533356,3769.7224412678042 4663.96356067562,3770.11102952261 4655.994091804489,3781.8459458044963 4656.226234880043,3783.9623446793994 4660.750549049,3793.0351783616934 4661.436201244476,3793.82314543135 4679.8174472533865,3803.089567983523 4680.51183758222,3803.4793254834367 4688.277416675584,3802.6936886763433 4688.611504640081,3803.2554408416618 4691.535866595572,3824.1537260190817 4691.385279431124,3828.460031495779 4686.8793153422885,3838.469323378289 4686.6716390401125,3839.9009733528364 4692.992513422272,3849.0188260584837 4693.953708088957,3849.992502115667 4708.987375217839,3855.3209047667915 4710.971514026751,3855.2719293738483 4726.821031537838,3847.3338422981324 4727.391340373433,3846.93008764321 4735.03808085341,3848.2664136731764 4736.341519075562,3848.831961907912 4745.895502791158,3878.4618444094667 4746.9892258134205,3879.9069185821572 4760.6681910045445,3879.922952290857 4761.441515804501,3880.1774509844836 4776.89723477338,3902.3159837820567 4777.332102542277,3902.9343053888297 4801.398669368937,3915.888762610033 4801.772078933311,3916.2141040648567 4808.195189475664,3948.9909337544814 4809.593582079979,3950.1375096330885 4821.81211392011,3950.2170965294354 4823.130989511148,3950.445070724585 4830.39004814229,3958.4585760484915 4833.096830577822,3959.1241338411346 4852.279072142323,3957.373218573048 4853.56823808013,3957.0332973832265 4877.366835484514,3961.8583735275315 4879.910506097833,3962.2778822672553 4888.060563057894,3974.034348464571 4890.481608533417,3977.2400009016274 4903.924935395597,3984.544851712999 4906.790460586781,3985.8450740050757 4921.997434026678,3978.690941383713 4923.510878720088,3978.962646592292 4957.556976355612,3988.987473992165 4963.932609706768,3990.325596646988 4978.13003747561,4002.7713251262903 4979.454447217868,4003.1599359102547 5018.226418631151,3988.9793111537583 5021.329329777858,3987.4385757187847 5040.881485653343,3962.1493184305727 5042.367550862255,3961.248788634548 5057.409956124495,3954.5984596578637 5058.65047978668,3953.8063797466457 5069.114103182335,3956.0216967584565 5071.932733724476,3955.6916876189644 5085.508297671215,3945.322942656232 5086.092004977865,3945.0547380667413 5097.134092800086,3944.5183289421257 5097.786540088942,3944.6107429002877 5109.411461404525,3954.9051465115044 5111.181224675616,3955.243901409791 5136.523558968911,3946.356696601142 5137.34610858676,3946.217055260204 5155.703470364562,3956.7426443819422 5156.583109120023,3957.420737575274 5184.844271217822,3957.916043037665 5185.691578880069,3957.8839749952313 5195.872378026717,3974.623819826171 5196.614536817884,3975.3581811551703 5217.302358755609,3985.2448143782094 5217.618387911236,3985.4168168845354 5233.934813013417,3986.702171444311 5234.808917617891,3986.410933212028 5250.680571733392,3974.4314107667888 5251.436128995614,3973.6168791853124 5253.103073564591,3964.2375338248676 5254.985267484444,3961.8298037888017 5265.582875591121,3958.3416734429775 5269.297747342265,3956.048517290503 5275.888338773395,3944.2856906594243 5277.560234951205,3942.7779150508577 5306.563847111189,3923.1419009632664 5308.698864355683,3920.7688872090075 5327.256329386728,3896.343544200179 5328.092568746768,3895.1066115900176 5332.3439618845005,3860.2225283393636 5332.542026240146,3859.445626144996 5343.965679217828,3843.344106733799 5345.034061653423,3842.126722180983 5365.887616853346,3838.8445083257975 5368.474978133454,3837.9571245590923 5383.071156053338,3825.600821392145 5388.580840391107,3822.4608816237887 5405.5229158400325,3817.356116103241 5407.684730026755,3816.982099214336 5420.3273526044795,3827.360424761311 5424.296504035592,3829.8902203404577 5453.027486435603,3839.5706822427455 5454.729383537895,3840.880769117037 5469.017687893356,3866.652893784805 5471.385430755559,3869.6299075002316 5495.318886684487,3886.6469123013085 5499.129295360064,3888.8814326090505 5543.198031928972,3895.3459520441247 5544.0165037511615,3895.8989713940537 5551.300320426701,3905.2329700012924 5551.697322951164,3906.099378869403 5553.22125340451,3921.550465662265 5554.571003733319,3922.4346610902576 5579.293804373359,3914.2568082923535 5580.091304675676,3914.057988608489 5590.970280675683,3917.9609199266415 5592.815191893373,3917.7250764187193 5592.362265315605,3902.617710721097 5592.378576497897,3902.1515644739848 5601.878966328921,3896.7344767871546 5602.091011697892,3896.4260452574817 5602.34733027569,3886.285132939811 5603.0894890667405,3884.796619648114 5609.550173582276,3879.5702107145917 5610.112909368938,3879.3827621045057 5613.316017777892,3882.3592021870427 5614.82771484449,3882.4061372538563 5625.895434524515,3877.769771547755 5627.756074382225,3876.283302058815 5637.1510240711505,3863.224025051808 5637.9948364800075,3861.4658636822132 5639.723530524527,3849.896592098521 5640.238497848972,3849.3534907366848 5666.5801833245205,3841.592075919849 5668.098870897782,3841.2349649069365 5680.044772977824,3847.566474962281 5681.37384305778,3848.011042434373 5694.3930791822495,3845.848258582526 5698.430970595684,3844.814822037937 5726.542128071189,3820.36486896337 5727.9346952533815,3819.0620766605716 5755.372142648906,3782.5231350220274 5755.9637142756255,3781.5949514652602 5752.926630400121,3768.9347703648964 5752.778082133387,3766.786312752054 5759.669556622277,3742.990689627244 5761.2156236800365,3740.755375042325 5775.140130417887,3727.9533542227 5778.261974186753,3725.4964995167684 5797.174498702283,3721.3013681097655 5799.094849137822,3720.050787758548 5814.596588942339,3699.0492568338523 5815.76109084452,3696.844866039115 5815.987117226701,3690.7027783440426 5815.334087395575,3690.352968213614 5803.86528739566,3695.7108966226224 5802.54903324449,3695.9216574957827 5798.736294400063,3692.5107141732005 5798.401332622278,3691.5481529481476 5801.30734449788,3673.517516101594 5801.262197475648,3673.0132085987134 5795.298130204435,3657.939398174407 5795.325218417915,3657.1109377755783 5805.055129884509,3636.2589761742856 5805.33649777784,3634.8582966475515 5804.8896878934465,3583.5019260062836 5804.838715448976,3579.135535397101 5783.2004758756375,3533.7173541784286 5782.832891733386,3532.782230237033 5786.004834133433,3516.719584863982 5785.332871680148,3512.5165010482306 5772.731318328995,3483.8368830296677 5772.42664874671,3482.540025976021 5777.395442631096,3457.4695740753086 5777.5908855466405,3455.8133151327493 5772.745590613456,3444.9091891592834 5773.017637831159,3443.643533475115 5784.924509582343,3433.3396176452516 5784.989463040023,3432.1864807332167 5783.859622400021,3419.3967673025327 5783.779814115609,3418.8997773586307 5776.264436906669,3412.090583662968 5776.080644835602,3411.3443713088054 5781.798879288952,3400.5665724907303 5781.85742478224,3399.8672917599324 5777.465056426707,3393.735254614032 5777.358451200067,3393.365356373368 5777.79215388454,3381.234227327397 5777.788367360015,3379.7960299850674 5794.825688462239,3360.3276535857003 5795.309781048913,3359.2981260627275 5802.307278222288,3324.672097411705 5802.536217315588,3324.0824266134296 5823.542398577789,3305.354371803347 5824.11212487123,3304.7495465393877 5821.1994137601,3298.4103998250794 5820.940765013453,3296.9483282933943 5825.521294506732,3287.2166456647683 5825.503526968998,3286.0644219301175 5821.146693688934,3272.4895992551465 5821.182228764519,3271.4653390157036 5831.511576177785,3255.378888021456 5831.972367075621,3254.4222548094112 5827.750683591119,3234.535290415981 5827.5977662578225,3233.640746377874 5841.1919715557015,3212.788798089372 5841.700239644502,3211.598410387989 5841.339937280049,3201.28425641777 5841.616353564546,3199.9807794365333 5848.054610204534,3188.5645875365008 5848.671813688939,3187.822493809159 5870.35170503112,3175.5068455408327 5870.881527182297,3174.8670611747075 5872.404292551102,3147.2777223925805 5872.484392106766,3145.296298190602 5864.569682204514,3132.824246773729 5864.673083448899,3132.2555873413803 5900.284763306729,3082.2843724681297 5900.948570168926,3081.5119836198865 5901.492664604564,3054.5151811472606 5901.75364352006,3053.666432995349 5918.2066747733625,3054.051750646322 5919.417780053453,3052.9500103992177 5939.253633991233,3007.4845110884635 5939.2929555911105,3006.5599913416663 5936.598406542325,2987.944306907477 5936.17548088904,2987.108395362273 5912.278725120006,2965.630941655836 5911.62977308454,2964.8343812495004 5896.514841315569,2936.138478484936 5896.033078897861,2935.5092201489024 5888.851498382282,2929.389767413726 5887.170864071115,2928.3256549770012 5875.407588977832,2927.345191144501 5875.04350008897,2926.785009463434 5876.051589404466,2905.1067295178073 5876.191690808861,2904.098290755879 5871.290180551121,2889.6458715643967 5870.794145848951,2888.7076768550323 5835.343830186757,2873.895067413221 5832.626561991172,2870.5243986791465 5729.268425671151,2696.789698488079 5686.748668871238,2625.792228155071 5682.3915443200385,2607.762657775311 5673.517096106778,2600.3254500787007 5720.4833976889495,2335.737189244828 5743.268954169005,2239.8297377469717 5717.620493937866,1996.688677430735 5710.954754560022,1934.1540038099047 5715.602567680064,1931.2452416709857 5716.884160568938,1928.5882510882802 5715.535866595572,1893.7013062987244 5712.9455926045775,1885.4521061816486 5766.1247069867095,1765.8329087984748 5766.872108657844,1763.4233872708865 5604.539436657913,1546.489489048021 5490.813505137805,1391.7562599531375 5493.060953031178,1386.8434032421792 5494.41973276448,1382.1916211592034 5489.193163946737,1375.3970826234436 5486.841440995573,1376.1811683248961 5474.202022400103,1202.42156472418 5473.476466062246,1190.0274709860096 5477.93990456895,1187.836406961549 5478.659635484568,1185.9113596901298 5475.727117937873,1176.934417455108 5474.576014506747,1172.0412461032392 5468.706610346679,1164.6700285786064 5467.997073919978,1164.9832446981454 5465.617680213414,1176.503780935891 5464.45987754676,1180.8550175321288 5318.433436160092,1032.419548118487 5311.846339982352,1025.2923501783516 5300.759687680053,1019.317187256529 5299.524406897835,1016.9968162453733 5154.018466986716,988.6961613533786 5104.961130097858,885.8484604621772 4978.640344462241,851.1785367499106 4977.074179697782,849.0950893916888 4971.916059591225,818.2938775179209 4971.499833173468,816.820816121879 4962.726164764492,812.6583121770527 4961.669433173374,811.4095905966824 4948.048139662249,774.0593379900092 4947.4414219377795,772.1617924858583 4936.503900444484,759.7518628723919 4935.677855573362,757.6110465306556 4949.476824462297,732.7408547708765 4950.015967288986,731.3756085778587 4947.825025991187,718.078310324694 4948.02716814226,717.151249955059 4957.802517902339,713.8141831991961 4957.980775822303,712.544793000794 4950.813176320051,704.4419107669964 4950.308694755542,703.1716481380863 4941.639883946744,665.6812260405859 4940.810926364502,664.1347767491825 4929.32552391116,659.299357008189 4928.052377884509,658.1727340809302 4927.240022755577,600.7116913826903 4926.934479360119,599.776779287844 4914.110394880059,586.5813914763276 4910.6649489067495,582.6261591078946 4895.62370872905,548.2723012181232 4895.054856248898,546.689167067525 4874.117997511174,523.6230497939978 4873.336517120013,522.6998005417408 4873.097383537795,513.9879339075414 4872.4385282844305,512.9507728908211 4849.1243147378555,489.3315072210971 4847.086873315624,485.8911156131653 4838.928369493457,465.45739371015225 4838.383692515548,462.2159946099855 4841.573111182195,451.9866301731672 4841.120475875679,450.37846061051823 4820.872764586704,429.8650043917587 4820.168471040088,428.5394334893208 4804.072246897849,380.66228942992166 4803.378439111169,378.67481927375775 4804.4159468088765,368.17840951832477 4804.040789617808,367.33471189951524 4782.007877688971,345.9396065234905 4780.583270684467,344.64755242399406 4753.451366684516,333.604649625835 4751.520821760059,332.6869575390592 4737.721852871124,331.1930133063579 4734.59534876456,330.97975919849705 4712.1220349156065,335.84527540102135 4710.052262400044,335.53762995882425 4691.423435946694,323.0477008240996 4690.014557582326,320.0397143216105 4691.229158115573,297.5621509392513 4690.885166933294,295.49953783734236 4682.839967573411,278.1896309884032 4682.634038897813,275.61574059852865 4684.986926933401,270.5923595126951 4687.599337528925,265.62375118152704 4686.465127822361,248.17261192051228 4686.449690453475,247.57101991958916 4708.64687928895,223.32704347209074 4708.334345386713,221.79553755442612 4699.787285902305,214.82699973962735 4697.771689813351,214.13946872507222 4658.395039573312,209.63643327367026 4657.4297671112,208.53055781463627 4642.125509120058,170.3033623987576 4640.234868337866,167.41021227370948 4635.106749155559,127.34698436944745 4634.981793848914,125.90755374287255 4640.530217244523,115.43272424815223 4641.783265564474,112.34644495684188 4638.421705671237,105.51753876300063 4639.4886317511555,103.21900021797046 4656.11205660447,91.0827848573681 4658.420380160096,89.32552727276925 4676.96765070234,59.87578288442455 4679.721327786683,59.008809981984086 4680.9263163733995,48.06648881966248 4681.4578861511545,46.12483342422638 4696.44669752894,35.246618483331986 4698.554044017801,34.71087962714955 4690.386219520122,22.15525577007793 4690.143299413379,21.580480765318498 4681.607308231178,28.11975029075984 4679.98405432899,28.026236401870847 4682.136256568949,20.15505056316033 4681.66905770672,19.75827236159239 4664.941940337769,22.63214717269875 4663.53888739564,22.599519293406047 4652.38378638227,13.946143729030155 4651.033453511191,13.14938336436171 4632.487930595642,8.617027193191461 4632.253166080103,8.592556321411394 4630.745546808932,11.835821365006268 4630.440877226647,11.804650124511681 4627.972063289024,5.78102838259656 4627.611469653435,5.686932083801366 4624.245540693402,5.484464818728156 4624.16573240899,5.675279291346669 4625.119645297877,12.692884861375205 4624.854879857856,12.867094242712483 4616.690841884469,8.585855963639915 4616.368696035701,8.762687145615928 4615.88955505786,14.348165438626893 4615.501290666754,14.394485332421027 4612.842567964573,7.322401638026349 4612.431293155649,7.141200686222874 4603.953847466735,10.475648361025378 4603.319458986749,10.832515321439132 4600.6126765511,7.996807141695172 4600.3522801778745,7.7654991577146575 4595.307173262234,12.335143867996521 4594.880752355675,13.020037264213897 4593.567410915624,26.30307566258125 4593.4529413690325,26.603718391852453 4588.342298453441,25.699168349965475 4588.033842346747,25.34579665120691 4589.942833208945,19.54444329382386 4588.940569315688,19.36207681777887 4580.402539235656,30.92982853599824 4580.135152355651,31.241541602648795 4587.805194524466,33.378669982310385 4587.749561742297,33.61260050488636 4574.424199679983,36.42675894720014 4574.131763484562,36.621943881968036 4575.293352675624,48.78313892893493 4575.283158186707,49.21779016114306 4570.27999431116,54.32144785684068 4570.092706986703,54.43855904985685 4558.293314275565,56.35487127501983 4558.166320071206,56.35166673909407 4548.857877902337,50.938624702976085 4548.801662577782,50.84977171791252 4533.363419875619,53.09411099366844 4533.122829937842,53.104015919030644 4530.266625422286,49.84325681696646 4530.075842844439,49.766348013072275 4522.410169742303,53.80639168305788 4522.289874773473,53.80318714817986 4518.1593591467245,48.04376576829236 4518.01576248894,47.963652446866035 4513.153573831078,51.33715220098384 4513.006773191155,51.37094546912704 4502.540237084497,46.36575598386116 4502.320327395573,46.35992956161499 4500.266574791167,52.722967621986754 4500.127638471196,52.722384979366325 4492.580512711196,44.52693728741724 4492.520802133367,44.49285272380803 4492.960330240079,52.05409389198758 4492.7089632712305,52.27666336810216 4482.214173866669,54.32261314243078 4481.808141937829,54.214241592097096 4480.253045475576,48.408208559732884 4480.142362453393,48.442875780398026 4461.443048391258,67.74671208427753 4460.941479537869,67.84984000551049 4459.062489600037,62.369495732476935 4458.978312248946,62.21509526728187 4448.019236693392,59.54105442517903 4447.505143182236,59.42627373803407 4445.629357226775,65.09451872005593 4445.502071751165,65.02605811529793 4418.608427520026,44.977902294136584 4418.4689086577855,44.91497694305144 4407.594010453438,58.67524684115779 4407.550611057784,58.761478009982966 4413.27263203566,65.1973552890122 4413.303798044566,65.34389011887833 4409.919810275664,70.73450906551443 4409.8105836089235,70.7578148181783 4399.104331377894,65.78058140526991 4399.010542080039,65.77300703991205 4394.53370510228,57.93936872470658 4394.17806307564,57.58162594086025 4385.713433315628,58.165725526050664 4385.207786666695,58.3617848965805 4386.322772480082,62.7907468265621 4385.72129763558,62.75986673182342 4376.090127075557,56.17541726992931 4373.768113777856,56.66396332764998 4373.180328675662,52.117893256945536 4367.410830506706,52.38124771800358 4365.770100337802,43.38466749712825 4364.064707982237,43.18802581098862 4354.138188515673,53.22374898812268 4353.788371911156,55.30087036837358 4346.398241280112,49.178753119311295 4345.676762737916,49.35354584513698 4349.342992213438,58.42208844830748 4349.30396188458,59.06270446430426 4343.413586204406,61.69945599720813 4343.429023573408,62.10177115397528 4347.670513493358,67.15969865652733 4347.655658666743,67.50811952515505 4338.335274382262,69.85180373024195 4337.921086862334,69.97678081691265 4336.0377278578235,75.77962327981368 4335.929083733354,75.99257971683983 4338.679848106694,81.4085501282243 4342.0137372445315,81.33659353130497 4343.860687360051,96.6359774756711 4344.077101795585,97.54810906865168 4337.31116515561,101.04019598127343 4336.689592604525,102.38435994356405 4336.704447431141,121.78211948939133 4336.63395982224,122.07897822745144 4322.6194503111765,125.41987784637604 4321.957391075557,125.67566006351262 4321.750297315652,131.776563401334 4321.689712924417,132.1465447830269 4313.580433920026,135.42393959511537 4313.402467271197,135.62087464693468 4314.247444764478,141.02785058075096 4314.197637404548,141.31451362231746 4308.666107733385,146.81850410928018 4308.242599537829,147.28549716318958 4307.162274986738,159.20329655334353 4307.1701393066905,159.5470598618267 4311.287256462267,161.43746697704773 4311.345219413401,161.94437232986093 4305.099784248974,173.07823541853577 4305.096288995701,173.39840192708652 4311.365608391236,182.43764833768364 4311.565420373459,182.5824371689232 4311.125018453342,196.5759832963813 4310.939478755579,197.98279711033683 4324.7442730667535,250.32115513051394 4324.070271715638,251.75827593088616 4313.968989582267,246.7730730167823 4313.776168106706,246.67576952965464 4296.698069048929,249.78161582152825 4295.468322417815,249.90309956145938 4280.530192213366,262.1010081964778 4280.462617315701,262.3777701208601 4264.103084088885,266.84558282606304 4262.119236551225,266.5795999087859 4227.794975004508,286.2221551273251 4227.375253333361,287.419809448882 4215.284880782245,289.17448550171684 4214.89428622229,289.5884644149337 4187.70558435563,328.1084038786357 4186.143206115579,331.1085273886565 4185.7051343645435,353.3985645271605 4187.189451946644,356.86162326473277 4174.636832142249,383.80868117231876 4174.244198684581,384.67656110890675 4172.3174402845325,417.49729071417823 4172.098695680033,418.37216628191527 4163.299977955641,426.6702332221903 4151.9398220800795,436.24085783062037 4137.730452195625,439.5795521308901 4131.219086506753,443.8572198250331 4129.072418417782,468.8616507970728 4123.57496746676,478.74638640740886 4116.240760888904,483.09020852285903 4108.360129706794,481.2218694490148 4091.4899982223287,487.1569721187698 4067.8836397511186,503.3797642814461 4063.0529083734145,506.7822897157166 4058.6780162844807,518.28224811994 4057.51264056901,522.5777300428599 4045.530912142247,534.6466951000039 4042.107894044486,537.0948100015521 4029.4437174045015,566.9506283348892 4028.764473173418,568.9454292609589 4005.977751608938,584.8514140743064 4005.2571468800306,585.2601641729707 3993.504066275549,607.6776495485101 3992.284805404488,608.8969113873318 3967.305394915631,625.0654780680779 3966.5023604623275,625.8331631805049 3960.1631360000465,641.2308744372567 3959.3033036800334,642.2179418954765 3943.5554397867527,650.2776380374562 3943.3008688356495,650.4844912545523 3934.816432640073,671.9317046278156 3934.719730631099,672.292387759313 3916.7034473244566,661.3460411905544 3909.5105072356528,662.9029782572761 3896.741472995607,665.6672415692592 3896.781959680142,671.9194682051893 3896.8664283022517,685.0570274190977 3887.943629084504,686.2095840007532 3876.962125653401,687.627846489544 3869.320045511122,670.4263334578136 3866.779870151193,655.5238452570047 3840.30623886222,656.8823766611749 3833.357383964467,657.0941828875802 3824.0623402667698,661.7142987311818 3814.7480726755457,666.3440317406785 3825.9934677333804,741.9418515578145 3828.9332670578733,745.7960706923623 3809.021973902243,762.8567469130503 3802.988875377807,779.1130521016894 3792.371169564547,792.1887451633811 3801.497858560062,821.3125471937237 3795.5900066134054,842.5452429645229 3805.4107946667355,857.3105940506794 3815.507416462293,872.4911514247069 3765.3849011200946,890.7580339157721 3743.735884515685,888.1722840166185 3739.784791893442,891.5598350905348 3725.4041545955697,903.8889963658294 3721.5515116089955,919.0478021037998 3721.0138251377502,919.744427934871 3696.4279219200835,924.9340157664847 3695.9222752711503,925.2163373794174 3693.6139517156407,933.9345159624936 3693.3311274667503,937.5350689050974 3685.1105828979053,947.948945977143 3684.656199964462,948.6857816135744 3679.5662372978404,985.2957435449352 3677.2124754489632,986.3367589467671 3667.0707066311734,988.8097902868176 3665.71571342228,988.5586412107805 3649.531816675677,965.4617058731383 3647.3111657245317,963.0521982938517 3628.1163995022653,953.5272219728213 3625.2933998933295,951.9460398716619 3607.371197155677,963.2383742426755 3606.8486567822983,963.3013069588924 3578.9539137422107,961.7518803427229 3578.3742842312204,961.6577726447722 3572.7478001778945,954.1798566650832 3571.431254755589,953.3174465490738 3560.334990506759,953.3958209775155 3559.8491502933903,953.4584622498369 3538.1768320000265,966.271964897518 3532.5081136355875,970.2754791420884 3524.787972835591,981.200734858634 3524.408155306708,982.229221337242 3525.4972179911565,1005.8066603334155 3526.2545228800736,1007.9239516942762 3514.7938784711296,1010.7131133062067 3508.2929985423107,1012.2954742731526 3484.931890346692,1027.374101895024 3472.8211288178572,1035.191238214029 3481.224882915616,1091.1170941969613 3483.2765966223087,1094.2460165608209 3477.8688571733655,1120.9874507869827 3477.093493475695,1122.9369536208687 3443.4152712534415,1111.7722625978058 3442.5073792000767,1111.3180300187087 3430.0307811555685,1095.4805121707032 3429.415325297741,1094.4980436140904 3395.3904904534575,1084.371516632149 3394.840570595581,1084.1355147749418 3386.7114851556253,1073.5122347821016 3384.0017900089733,1069.8227459555492 3366.726209137938,1077.1641401799861 3362.0215981511865,1079.0842029289342 3353.852026026696,1106.2451370265335 3353.2269582222216,1107.1594287543558 3321.5005437155487,1133.752902414417 3320.6645956267603,1134.549778813962 3309.622216533404,1171.0223457486136 3309.2185147734126,1171.4261764107505 3290.770276408992,1180.630375475972 3283.0151830756804,1178.461749639595 3261.443935857853,1194.4629210460698 3260.612356835627,1195.2254236669978 3258.39898766228,1202.3321155176964 3257.253418382257,1203.9867803519592 3246.2008447999833,1203.3291683049174 3245.414121528971,1203.3014885791345 3218.398434702307,1212.8061305731535 3217.3818985244725,1212.9978493758244 3209.5201999645215,1211.231880495092 3208.916103680036,1211.214398541837 3154.810164622264,1231.7271718831034 3129.6396802844247,1242.2496010796167 3105.5728221867466,1269.1556764111156 3088.6196784356143,1270.5210292714182 3075.2153819022933,1272.0778115984285 3036.7457499023294,1208.6442605621414 3036.574773760047,1208.3392006058712 3024.091185208992,1202.108346824185 3022.9604707555845,1201.3927532408852 3012.5993747911416,1186.031401973567 3010.4104723911732,1182.7465563936858 3010.326003768947,1161.916349638719 3010.1704649956664,1157.1837306849193 3000.820079786703,1132.2389831991168 2999.2903239111183,1125.06914105115 3002.0445835378487,1116.246120082331 3001.9807951645926,1115.7161331621464 2988.1180379022844,1101.8779243702302 2987.161503573414,1100.2218281927053 2987.7708427378675,1077.500369641697 2987.6033618489746,1076.627455060021 2992.744296960067,1072.0965173990699 2993.549952853471,1071.362873479724 2981.5012320711976,1048.0587943720166 2981.255981795606,1047.9032087954693 2980.672565760091,998.1911763049429 2980.7203342223074,997.8864172678441 2973.7289537423057,953.6364800086012 2972.9174724267796,951.8018192998134 2973.612445297884,920.6954053416848 2973.172917191172,919.6471159158973 2974.697138915537,910.8199890612159 2975.1154042311246,908.4646919431398 2979.7032155022025,905.8162947139936 2983.9784928711597,903.730500500882 2954.999056213419,903.7299177955138 2941.292128995643,903.7296264428878 2917.7518890666543,918.2827083177399 2917.115170417819,918.4648041275796 2907.5999257600633,903.2856049579568 2907.39661852445,902.7862264972646 2909.2211407645373,893.0501016868511 2909.0414264890132,891.9703503346536 2900.946711040102,880.3349182573147 2899.717546951142,879.2854694180423 2889.078287075623,875.4131152575137 2888.8647853512084,875.2068383815931 2882.9918859377503,854.8571295270231 2882.612942222273,853.773887769552 2860.2115723378956,840.4242139569251 2858.411516871187,838.7859525582753 2860.252350293449,830.851912962622 2860.089821013389,829.3086337320274 2855.173455928918,816.1836355834967 2854.812279751175,815.6423089518212 2862.812040817924,807.8533865509089 2863.258559431182,807.3924728004495 2862.1823126756353,801.4958676846 2861.6813263645163,800.6002623868408 2849.012489386718,796.496037443867 2847.430887253373,796.5971353115747 2837.2343594667036,784.3214754172368 2835.9708253866993,783.6717697824351 2828.1924303644337,786.9392361524515 2826.694423040026,786.4156839299249 2810.5748972089496,767.2540481108008 2809.5490403557196,766.5189792907331 2802.3828972089104,769.181309756008 2800.4258466133615,770.800035122782 2794.007687680074,782.4533533629728 2793.2119350044522,784.0645066344878 2799.464069404523,789.9203088469803 2800.070204586722,791.2130202853587 2795.0536422400037,819.8115156516433 2794.8663549156627,821.3000191729516 2767.356089742272,826.0108478665352 2765.4086510933703,826.7313552420819 2755.0079422579147,851.4829980634386 2754.1221868089633,854.1039880510652 2731.026717866771,883.8477468867786 2728.652858311194,885.5547777002212 2724.974104177789,924.6790813992266 2724.2616550400853,927.9192250579363 2729.3321025422774,950.4592570291134 2728.855583004537,954.2646409085719 2673.6492216889746,934.3301746270154 2670.4152385422494,934.3301746270154 2648.0127035734477,901.0622930745594 2643.0514827378793,894.8069559661672 2621.0744948622305,876.1648022291483 2616.361728284508,873.4610603152541 2593.5764630755875,863.94844203291 2590.715598222334,863.2535698020365 2541.5769966933876,857.7487856420921 2537.708042524522,857.8979572537355 2484.3250383645063,870.5583264722954 2480.154327324475,872.4838676396757 2477.3589984711725,884.1813447860768 2474.758238720009,887.5895799443824 2453.238546488923,902.6554091584403 2451.4952888890402,903.1332275125897 2449.6238720000256,909.207933192607 2448.1177090845304,911.4190108191688 2422.230697813444,920.9485914438264 2420.5180236800807,922.4403210225282 2418.997879751143,934.6690192890819 2418.020665173419,937.0613271674374 2396.355046115583,969.3603316971567 2395.8228937955573,970.6402561898576 2382.454714880092,982.3160454152385 2381.616436622222,982.9025450042682 2288.619104995625,988.2165890034521 2287.140904106782,988.0187581349164 2274.1440958578605,999.5127701436868 2269.9104702578625,1001.4028012795607 2207.5880644266726,995.931123231072 2204.735937706777,994.9641109331278 2191.395720817847,999.2741490151966 2188.551458417787,999.7528480640613 2132.110398862278,996.4377922777785 2129.7411996445153,996.4025381336687 2125.2946548622567,1012.7147373487242 2124.0028674844652,1012.8607073343592 2114.528692053398,1011.0604110604618 2113.2939938134514,1010.8133401731029 2097.552537884563,997.4601625377545 2094.1079657245427,996.6079445134383 2064.569288533414,993.3243567347527 2060.421005368931,993.2748261414235 2047.3327379911207,1002.8243311285041 2046.4624199111713,1003.0705276580993 2038.7102392888628,997.4173331166385 2036.7942579200026,997.6547887544148 2020.0444214044837,1013.8399591554189 2019.4467330845073,1014.3760566114215 2012.1428187022684,1014.3585751720238 2011.773486933438,1014.6047721148934 2004.7908445866778,1029.0025012652623 2003.232252871152,1034.00803262298 1988.19916828454,1044.6869002684252 1987.6990557867102,1045.249513780116 1975.79975708446,1053.0620088527212 1974.9107976533705,1053.5561536926543 1955.6283588267397,1056.0510612365324 1954.8573641956318,1056.2386965017067 1950.1545008355752,1062.9693866722519 1949.2393270045286,1063.6415528423386 1942.0755140266847,1063.6415528423386 1940.9946069333237,1064.4323023797479 1934.0725489777979,1077.5612638874445 1932.9243582579074,1080.3769677913515 1934.6900437334552,1089.4974207369378 1933.9985661156243,1091.7205020561814 1929.0105483378284,1094.3386692799395 1926.19570431998,1094.7832858047914 1918.5649837511592,1115.8929897053167 1917.6964132977882,1117.8046140236547 1910.6322150400374,1125.0446666356875 1910.1690939733526,1125.9714895031648 1887.1557634845376,1120.1398790403036 1886.6413787022466,1120.4344459018903 1878.9119172267383,1129.481529991841 1878.4109309156192,1130.4485614760779 1876.6385462045437,1148.637462130282 1876.3886355912546,1149.4713434336009 1854.665636124555,1155.525581237278 1854.1381441423437,1156.0063309025718 1838.0422112712404,1186.365014641895 1836.84916480002,1188.8320007236907 1826.1091251200996,1199.8138440593611 1821.3413083023624,1201.3997460117098 1732.5426497422159,1323.5981081697391 1719.5085587911308,1341.534929528716 1485.0047308800276,1348.7819325320888 1461.7205182578182,1349.471901728306 1439.4426473245258,1422.8031209582696 1439.6561490489403,1428.1993983347202 1427.0077010489767,1437.2276838771068 1388.795552711119,1461.5279252586188 1365.6176540445304,1510.008938134648 1363.3349623467075,1513.3464016481303 1360.4376886045793,1536.3572919649305 1359.7036854045,1537.8940351164201 1342.9663735467475,1556.997002941789 1341.3862277689623,1558.0509313972434 1321.1056028445018,1599.242574097123 1311.7991995734628,1614.1736891673645 1277.6467879823176,1633.7597252342384 1265.970020408975,1654.3994797664927 1264.8288201956311,1656.1562501259614 1192.8496119467309,1697.3340013581328 1189.383485724451,1700.671569257509 1172.0583887645043,1753.4872175940545 1169.7806486756308,1759.3616746315965 1153.9433645511745,1787.4705678405007 1153.7260763023514,1787.8525844467804 1117.09174357343,1813.822196918889 1116.6961974045262,1814.1217505945824 1120.8552576000802,1900.1887195635354 1120.9219586844556,1900.9145946381614 862.0870897779241,2255.9200728659052 848.6018198756501,2275.4002442447236 813.7273472000379,2348.502679404686 804.1226823112229,2375.8446680909256 787.428769849008,2444.715815372998 784.6844134400599,2460.732183033717 776.7947528534569,2577.769670388312 777.2520484979032,2581.4306971124606 783.4267047822941,2610.261450167629 784.4557656178949,2613.3504069657065 858.0923064890085,2818.8317862710683 862.208549831179,2831.0739094072487 887.0207707022782,2917.1135795228183 891.0228357689921,2932.4451209065737 909.8893394490005,3030.9583978943992 911.3756959289312,3041.5991866575787 917.0930565689923,3125.46869647142 916.978587022284,3132.219444970833 913.662756693433,3157.277836176567 912.4047567645321,3162.3121494546067 897.0830225067912,3208.4242390568834 893.7671921778237,3216.6628068896243 753.4030611912021,3509.3173329579877 750.4539411911974,3516.142422126839 727.3736183467554,3552.762096023769 723.0575630223611,3557.6447042984655 692.8466321066953,3580.930888327188 686.4666296889773,3583.7479528236436 464.29376426676754,3621.682603958063 448.34375822229777,3624.687132800813 416.145193244447,3634.8375998255797 411.0791148089338,3637.372524021426 406.2329460623441,3642.3327711339807 404.580856320099,3644.757802416105 392.1354242844973,3691.6035395660438 387.840340480092,3705.3817126281792 363.49997880891897,3763.0304500780767 358.98440277343616,3770.6363379347604 350.5040443734033,3780.1160966301104 344.77707178669516,3784.194390683435 314.7097375289304,3795.4378516410943 310.16212167113554,3797.419868678204 295.98508288001176,3808.1552523273276 295.1846698666923,3809.7574289964978 294.15560903120786,3817.3103478617268 294.84155249781907,3819.5993436079007 307.0463945956435,3837.2778854736825 308.73518449789844,3842.536306741764 301.0415493688779,3864.88540225185 297.28852110228036,3868.078140284284 269.8924342044629,3877.4683379965136 255.81879665784072,3877.84410961275 213.78604515560437,3866.012130642426 207.9690697955666,3864.6973712833133 156.6922470399877,3863.0182113947812 152.50726371561177,3863.3490874633426 123.65132600895595,3876.9074500947027 120.45753827563021,3878.6711571180495 84.88343239121605,3908.5438073213445 71.44680476444773,3922.9841858777218 34.441101368982345,3982.28957925993 32.34860970673617,3987.250247454969 24.308653226704337,4010.2890410475666 22.32597077335231,4019.5489672917174 19.02208256011363,4052.3989520338364 19.242283520055935,4057.35970841127 31.854031360009685,4096.894968959736 34.02662257780321,4100.213838318246 89.65416192007251,4160.5997381240595 91.88384227559436,4163.346363110351 94.25566293334123,4205.769591468736 96.46378922672011,4211.261450050515 84.65041550225578,4252.779945568647 83.54212892451324,4254.444111726829 43.24797468457837,4266.330034361803 41.66491619555745,4266.726251857821 23.031429404509254,4283.373838058207 20.101824568933807,4284.684364793007 8.355734471231699,4301.576351414551 5.205928675597534,4309.330806646962 5,4322.0163447689265" stroke="red" stroke-width="3.037705909899108" fill="none" stroke-linejoin="round" vector-effect="non-scaling-stroke"></polygon></svg>