<svg viewBox="0 0 409.4775125867011 316.0684202427067" width="1000" xmlns="http://www.w3.org/2000/svg"><polygon points="8.05255000000011,93.56590125043999 14.090600133385806,113.46845822575392 13.911759671151003,114.96049575132906 27.383922373271844,105.7544242148067 28.073943635543174,105.5317028597708 53.23190331561614,114.8762387161621 53.946391351149714,114.87851593373466 71.95597542226437,110.12727717034409 71.4992623199721,101.051721310512 98.73806281781413,107.69286464129232 102.0413684888988,107.27156503391575 93.76723003559869,98.1448761785648 93.82781442671671,96.37123516060069 111.46195003551088,98.5876009521669 112.44790274670936,99.03897888123879 114.372039706657,87.55109577810049 115.49488984011236,87.77975708750432 121.43157762671012,104.55564318338998 123.79961176004849,106.49318339236902 121.38002263996873,158.89585723586038 121.42779110218521,159.56340104537207 131.34411608006462,158.3890507764661 133.9550703200291,158.06165226412827 133.90759312894784,162.4161487005547 133.7538019822457,171.5132719179162 151.02850903999183,176.15844505161635 156.57518480890553,177.15102944322985 156.88946633783758,205.36311575354898 157.1434547466704,208.02087086035294 166.4419936977572,207.8046278698382 166.71520600000053,208.94911990394007 144.78161752000574,223.50285411100026 142.79369218668558,223.8506386414881 145.09735540449742,250.93105548757717 145.58494324456092,252.4840498118208 158.24183810663067,270.947991918634 159.68537773341063,270.9752988937323 155.0087287734275,306.9255949777796 156.04769282669417,308.0158702427068 189.50891807114363,289.4904581417575 192.17317492442794,288.87337227180956 234.37865019552532,287.78937205186935 235.2419777689281,287.5955074623705 239.27753901339725,300.564940122749 239.34831789331633,300.83933764833614 247.84527874665923,285.87074211214326 250.6633267467621,285.10574285858434 260.29915764448356,301.29120545494493 260.88082605330396,302.4543170562026 306.46854146672536,257.6595553544828 307.2427400799713,256.5226023475186 309.7596137510625,251.74760781505734 311.7941424621747,249.0029966718064 303.1372737688723,236.08829360196955 302.2392849332898,235.816545397254 323.98034320897546,224.53573612005107 325.26484880896874,224.31131572227582 349.8172558488802,194.43174290189177 349.7875461955334,194.13308120400302 385.40388639117714,186.83031064543297 386.8963595644816,185.96388709176222 400.58027636443853,166.88530211113516 401.4249625867012,165.4400658254524 377.67442491555244,130.66452514715616 377.20489588447504,130.1139332755481 364.30449837339233,131.59902527635109 359.4717280977418,112.61312805998728 338.3327272088279,109.67865502378095 337.9770851821884,108.60150263258379 350.9645727555978,106.00675038182067 352.5511264977756,105.76034522927489 356.82873403558165,89.92560875413596 354.7965354933183,85.52775154435199 382.49146655118216,68.2716213537858 383.4555739288696,68.42787196904078 384.4421091822221,59.884943691991566 384.52919924443245,59.412984139031096 377.70355202674523,60.901293260023294 374.57850427562494,60.83113750370808 372.4096995822399,35.02412527017418 372.1195935555513,32.62531954886049 325.07086224898353,36.891667151918 324.82211672000244,36.787333081687166 316.48885023114394,8.259878719087055 316.4166149955488,8.05255000000011 270.01042776005465,22.873548209354112 267.16092248002656,23.91057466387406 268.43756376006763,32.34739352527663 268.4404764711869,35.00134471382603 255.9685387644929,43.87965763637453 254.9365652177728,44.10608699793352 249.11551206230774,41.85180588093476 247.1505971466902,41.290054335004015 249.4825136622892,30.446096608858852 249.39221961782437,29.450563062775245 185.32976016888983,54.424545806344895 185.59976848887868,57.57160317453213 38.801458657813555,64.49560653648928 34.18888934233814,64.19357717919752 8.05255000000011,93.56590125043999" stroke="#009edd" stroke-width="6.1444804293815745px" fill="none" stroke-linejoin="round" vector-effect="non-scaling-stroke"></polygon></svg>