<svg width="168.28633372439072" height="293.8749404917471" xmlns="http://www.w3.org/2000/svg"><polygon points="5,20.91863515827572 6.1796480000484735,23.018691890698392 6.460142080090009,23.442765412211884 7.654353635502048,24.451235132466536 9.280228977790102,25.94609211484203 9.327414897852577,27.518164808047004 9.175080106710084,28.843646779831033 9.654221084434539,29.88867186853895 10.781731555587612,30.51189101889031 12.991022933274508,31.98322308738716 14.085619768826291,32.51701882731868 14.833312711096369,32.561727548309136 15.486925084493123,32.585210913268384 16.198791680042632,32.64211290254025 17.150374399963766,32.97765369620174 18.333808924420737,33.976144179236144 19.064899413380772,34.83011862298008 19.50442751997616,35.47500033659162 20.298723840038292,36.51547774212668 20.93019960890524,37.12196901225252 21.508955306722783,37.54917629715055 22.38393372448627,38.25411164929392 23.93145713780541,39.64184768899577 24.67012067558244,40.100209591619205 27.36350463994313,42.598377947404515 29.525901368935592,44.89330785750644 30.599235413363203,46.164946947654244 32.59065599995665,48.5587332569994 33.36106808891054,49.553991527005564 34.75101383111905,51.122733329830226 35.84095032885671,52.25119088793872 37.26410097780172,53.36248332896503 38.22791708447039,54.047047495434526 40.678963484358974,55.62749746785266 42.0167716977885,56.59021167428 44.814139448921196,58.22392616508296 47.224990435526706,59.655786942108534 49.53593543113675,60.56565259891795 49.98449294222519,60.85870529623935 54.02063672884833,62.9773426829488 57.721527466666885,64.61326708068373 61.45533183997031,65.83467104105512 65.11631843552459,66.94092751311837 68.51137450663373,68.14606339065358 72.43945671105757,69.42434000078356 74.94992241787259,69.99371477542445 76.1094727111049,70.40144219133072 76.93435249780305,70.6091435723356 78.16147768893279,70.5924371642177 78.81596387550235,70.6114011949976 79.34403839998413,71.18528810847783 79.89191936003044,71.14826319174608 80.14212124445476,71.21734626288526 80.41795498668216,70.13910603430122 80.68679822224658,69.03331728943158 81.03923626663163,64.73156972235302 81.04389660444576,64.1427651005215 81.00399246218149,63.05320144101279 80.88194986665621,62.518577251408715 80.86039580439683,62.2052073967061 80.95098111999687,61.306637164612766 80.86476487107575,60.60448549053399 80.64019484445453,59.810667567304336 80.43077091558371,59.32796344900271 79.7710418489296,59.92445734440116 78.77518592006527,59.01774985570228 78.3409006933216,58.210379660653416 78.07584398216568,56.811924335488584 78.07089237333275,55.965712276345585 77.88010979560204,54.47377011511708 77.50524387555197,53.156120227242354 77.1193096532952,51.94457974733086 77.07736661331728,50.90959463297622 77.25620707555208,49.906665896298364 76.83794176008087,48.96650069189491 76.39025806228165,46.46795360726537 75.7963562667137,45.17283427255461 74.58845496887807,42.67063112609321 74.19436515553389,41.52360909158597 73.7172630756395,40.58566573006101 73.25268565339502,39.40656992496224 72.85510058666114,38.199469080078416 72.07362019561697,35.89814647688763 71.70428842667025,35.193203519505914 71.69788046216127,33.97478937840788 71.12407637329306,32.716627389832865 70.2837592177093,31.16807563690236 69.65548743109684,30.228732973220758 69.61587455996778,29.191838495025877 68.13446968887001,28.184293891536072 67.26852067559958,27.8636489592609 66.51937137776986,27.466229234822094 66.13227207108866,26.70706522819819 65.65516999107786,25.63944403937785 65.09563818667084,24.1870372905978 64.68261575105134,22.83397803333355 64.7137817600742,22.181381369300652 64.61271068442147,22.224737332726363 64.49387207115069,22.287513139483053 64.28386560000945,21.636269719630945 63.57287281786557,21.30342125793686 63.33286542224232,20.823793409916107 62.26477425778285,20.004539639805444 62.217005795566365,20.450297171541024 62.347495253314264,21.251032579981256 62.0882639643969,21.970020924403798 61.22056732443161,21.784402928955387 60.85007047106046,21.570332344213966 59.776153884478845,21.46013559011044 58.3701882311143,21.232515889161732 57.59016419551335,21.012573611398693 55.64913351112045,21.0870920670568 54.98416156438179,20.920893294736743 53.009052159963176,20.69191814842634 50.871413475601,20.325196112215053 47.95549838221632,19.783692866039928 46.315642026718706,19.448131798533723 44.98278542223852,19.130183824163396 43.115155057865195,18.64151856332319 42.053471857798286,18.266663694172166 41.0858692266047,17.913938223558944 38.34908586659003,16.890082702215295 36.96758698672056,15.545107721816748 36.71243349334691,15.40058338950621 35.086849422194064,14.590342080278788 34.30362140445504,14.060567291046027 33.89292913780082,13.704221888736356 32.520459662307985,12.329870359913912 31.879663217812777,12.040365697990637 30.414860800025053,10.661487212171778 29.33948785776738,10.208031657675747 28.866172302281484,10.245518556854222 28.122848426690325,10.21299980126787 27.68681557336822,9.72205633262638 26.63998720003292,8.907277431571856 25.32315050670877,7.297583349456545 23.92679679999128,6.195541276421864 23.24318350222893,5.440368250885513 22.758508373401128,5.338744887267239 22.515588266658597,5.200537036696915 22.263638755539432,5 20.93456867558416,5.88660717260791 19.395200853352435,7.411400492594112 18.41012195555959,7.8671201262040995 17.667671893374063,7.843634102900978 16.61385301325936,7.513022891653236 15.314201315515675,7.536057295685168 13.704637155518867,8.324193768610712 13.138697386719286,8.470077743579168 12.395664782263339,8.857144040695857 11.997205902240239,9.403190894168802 11.138829937786795,9.783480782818515 9.373727004393004,10.839436644630041 8.73584327113349,11.338055601750966 8.140776391141117,11.75899028434651 7.602798648877069,12.82577604969265 7.465318684466183,13.748482819471974 7.154823680059053,14.496852504904382 7.058412942220457,14.887972877069842 6.781705386703834,16.107396792212967 6.710635235533118,16.349474211165216 6.114403271116316,17.859290564490948 5.961485937819816,18.328085740911774 5.55458019557409,18.91475574322976 5.21437553782016,19.69020551413996 5,20.91863515827572" stroke="red" stroke-width="3.09127690794193px" fill="none" stroke-linejoin="round" vector-effect="non-scaling-stroke"></polygon><polygon points="11.919436515541747,231.9695501459646 12.677323946612887,232.61294777289731 12.883543893345632,232.5141371805803 13.03442232881207,232.48932172794593 13.255205831141211,232.38238965458004 13.41249223111663,232.36208609043388 13.540942791150883,232.2145468008821 13.527835591114126,232.0800919487956 13.574438968906179,231.8644225836615 13.669975893339142,231.65100896480726 13.912895999965258,231.6514601566014 13.958625564468093,231.41684029315365 14.12173738668207,231.2277906431118 14.385046471143141,231.0518254279741 14.437766542308964,230.74862349423347 14.886324053280987,230.6696645882912 15.077980444417335,230.43729964230442 15.35381418664474,230.61913087347057 15.453720177756622,230.3768395964289 16.820364231127314,230.58799848973285 16.709972479962744,231.18853687663795 16.208112355554476,231.86848330596695 16.071214933297597,232.2574099075864 16.958426737808622,234.22504304436734 17.9111745422706,236.15340558975004 18.514979555620812,236.79679089825368 19.221311999950558,237.72802686755313 20.2244497067295,238.53924566478236 20.897577244439162,239.05629456153838 21.19904284446966,239.32564677437767 21.88003470224794,240.08362106903223 23.00667135999538,242.99728587415302 23.259494684403762,243.66907455545152 23.42755811556708,244.0439940028591 23.84669724444393,243.97586789354682 23.918349937768653,245.05776213965146 24.41001557337586,245.2310090943356 25.381404728861526,245.34470233367756 26.368813795619644,245.4371908379253 26.428233102313243,245.8315072414116 26.719795484445058,248.44372265407583 26.99650303996168,249.78185061371187 27.441856568912044,251.62796650000382 28.185180444503203,254.29064087948063 26.6131902578054,254.6781741444138 26.096184035530314,254.9664551379974 25.413153280038387,255.51369172119303 25.77199928893242,256.70786275545834 26.0061812622007,257.12065553170396 25.870448924484663,257.3132918939227 25.730347519973293,257.44006186624756 25.519175964524038,257.27088484045817 25.199360284372233,257.5266804526909 24.992849066620693,257.5632226586458 24.825368177727796,257.73465514794225 24.743812266737223,257.99811955349287 24.6092450133292,258.0874447422102 24.223310791072436,258.05947423243197 23.92242773331236,258.58324398932746 23.493676657788455,258.44158717640676 23.431927182246,258.4826405934291 23.220173084409907,259.05648535175715 23.010457884520292,259.05152286426164 22.848219875595532,258.923851555679 22.82200547552202,258.8300153519376 22.84414207993541,258.5764769462985 22.52956927998457,258.40775193669833 22.29888255998958,258.4952724124887 22.225190968834795,258.49662582163 21.97498908441048,258.4203837601817 21.832848782185465,258.4163235313026 21.817120142281055,258.5088065035525 21.95285247999709,258.73888592323055 21.906249102205038,258.86294825497316 21.82527573336847,258.9834014332155 21.58701596444007,259.2216007813695 21.71634033776354,259.79995493625756 21.786536675528623,259.8229627531837 21.9901351822773,259.7345405415399 22.152664462220855,259.84236149897333 22.192859875503927,259.9190541977878 22.203054364421405,260.10356769821374 22.50685013330076,260.6422199110384 22.914629688952118,260.3498862115666 23.535328426631168,260.52898576215375 24.39807345776353,260.4450751597178 24.922361457836814,260.4531955420389 25.624033564468846,259.94431766920025 26.106669795583002,259.37498658773256 26.847372231073678,259.1173885985627 27.37486421340145,259.08535800420213 28.00459235557355,259.0199433955713 29.60396202665288,259.39438537327806 30.453599857748486,259.5698766336427 30.91380821331404,259.50130422989605 31.43518350215163,259.5626584868878 32.16336127999239,259.95965620392235 32.922705066623166,259.4449124344392 33.694282240001485,259.39528764243005 34.72625578660518,259.5527335347724 35.12442339560948,260.12747774930904 36.24436081771273,260.4689851733274 36.71126840892248,260.3688337780186 37.173515662318096,259.91499399679014 37.611296142218634,259.82476728776237 38.51365404448006,260.1297334142728 39.70873941341415,260.8637255865615 40.632068835548125,260.99274915549904 41.77093887992669,260.976057299471 41.97366357338615,260.12206415302353 42.59348849777598,259.0668614616734 42.97884017776232,258.73166774911806 46.06107107549906,257.27223825716646 47.859670186648145,256.5562796385493 48.78765994659625,255.91881734435447 50.45373070216738,255.8908465571585 51.493277297820896,255.76723368023522 51.77755790227093,258.2845916202641 50.774420195491984,260.81319885345874 50.39926300442312,262.1959128259332 48.99446243559942,262.36373265401926 49.124660622212104,263.5348588344059 49.70865919999778,264.8413157656905 50.48547925334424,265.9222044777707 51.05549681780394,267.5372118743253 51.58794040896464,268.80755567527376 50.48344035563059,269.67595050873933 49.72264021332376,270.3909639243502 49.34981319110375,271.16597266920144 49.779146808898076,272.520201375999 50.44877909333445,274.0801253091777 50.68237852444872,275.0315020221169 50.85888881783467,275.89265451807296 51.36307911120821,276.82237061153864 52.344954026746564,277.9834952004021 54.408318577799946,280.8628229945316 55.736514844466,282.5823721207562 56.73295331548434,283.28696835349547 55.52126549335662,283.90495421667583 55.41961187554989,285.1097960831248 56.38313671108335,286.23253492155345 56.31148401775863,286.83698011998786 58.72146119119134,288.8749404917471 61.64931839995552,287.40804397314787 63.10829539550468,286.09766222006874 63.374808462220244,284.15575674001593 64.95116771559697,281.90483890176984 66.89132458658423,280.25475254200865 69.94355455995537,277.3533129625139 71.55195363552775,276.787636020279 72.7237373155076,276.5241942651919 74.63331072009169,276.5431404293631 75.07662535121199,276.5354717440787 75.7704331377754,276.4849486341118 77.13620337785687,276.6541107868543 77.40912440884858,276.64959979779087 78.64003612450324,276.5530646100524 79.36238847998902,276.54629812331405 80.09639167995192,276.4921662219567 81.0194298310671,276.3640540020424 81.64391509327106,276.236392806808 82.13791089772712,276.12361783726374 82.96570339554455,275.89085011620773 83.26658645330463,275.818674028269 83.77398072893266,275.6409403102589 85.15256689779926,275.1217224532156 86.0112341332715,274.7256544835982 86.58358186669648,274.5488220831612 87.35078997339588,274.24342497304315 89.77474816003814,273.2180634593242 95.02403612446506,271.1610104566789 96.42184618662577,270.54930411832174 97.36265187559184,271.3157412133296 97.96674815996084,272.04022254113806 98.6500701867044,273.00017915671924 98.99027484445833,273.382265978551 99.34183907555416,273.0831827261718 100.289344000048,272.3478782689781 101.69705727999099,271.14612381818006 102.67165041773114,270.2799903867417 102.97078584891278,270.0012029581121 103.55187171557918,269.5013695908128 105.59659491560888,267.6617203289061 106.79517553781625,266.55467527656583 106.15583544888068,265.92085111449705 105.45066808885895,265.1629664294305 105.39416149328463,265.09439578064485 106.21671111113392,264.5986113048275 106.68332743109204,264.23139623657335 107.10217528883368,263.80327862728154 107.68908657773864,263.1771156399627 108.3692046222277,262.6114020036184 109.76148053328507,261.5724520133226 110.2688748089131,261.17139704845613 111.43250289780553,260.11349262541626 111.62270293326583,259.99394233658677 112.22912938671652,259.58386179228546 112.44962161779404,259.45979986991733 114.08831288886722,258.6847496110131 115.44942279113457,257.64262298616813 116.30313841777388,256.94245546712773 116.53528149332851,256.72681063762866 117.46064981329255,256.0798748724046 119.01662008895073,254.56809491675813 119.15293496882077,254.44132327841362 119.73780736001208,253.94325890537584 119.68304839113262,253.89363286393927 120.14121784886811,253.28323163313325 120.54404579557013,252.71749238466145 121.24630044447258,251.85128591273678 122.13409479113761,250.8370981385815 122.4652700443985,250.43782808393007 122.62430407106876,250.2627806434757 123.04926862230059,249.65913659054786 124.11357326223515,248.30070579610765 124.30086058669258,247.99617431982188 124.61747228447348,247.45433282171143 125.07418538664933,246.29620414908277 125.42225436435547,245.30274412123254 125.68206819554325,244.709463158797 125.97100913780741,244.14866453997092 126.58763007994276,243.10466392157832 126.89841635560151,242.64447191823274 127.14687061333098,242.59303863410605 128.43865799112245,243.24994001939194 130.03744511993136,244.41530348343076 130.50202254217584,244.40988949808525 131.08660366223194,244.3196563871461 132.43577144888695,243.97316089540254 133.2792925866088,243.6456138707581 133.80911473778542,243.4096533820266 134.3447623110842,243.15203657274833 134.61972224002238,242.95487604255322 135.13410702219699,242.66116517450428 135.53984768001828,242.3773796443711 136.10229219554458,241.9654613591265 136.5386163200019,241.50165758508956 137.52107377781067,240.29837997455616 138.0622555022128,239.6058268645429 138.4237229510909,238.91868568147765 139.53259207110386,236.46787957113702 140.09387150220573,235.37466319423402 140.54971079109237,235.20772500772728 140.02658787555993,234.94784260436427 140.22843875561375,233.49321733386023 140.3685401600087,232.10535863874247 141.48672995553352,230.15665660146624 143.68145777774043,228.13303815358086 145.8185139199486,226.61835763434647 146.5822267733747,225.678501440736 147.71934919117484,224.82076069520554 148.48335331561975,224.37406639085384 148.7760807822924,224.16290149273118 150.88255345774814,222.54125656402903 152.38463857769966,221.36224004952237 153.02514375117607,220.88575855089584 153.57069454225712,220.46477545326343 154.76024575997144,219.51361237058882 155.91164046223275,218.52409154362977 156.43155939562712,218.14777464949293 157.3400339911459,216.8992462111637 157.37090872891713,216.08478850621032 158.53016775113065,214.28936104825698 159.52398478216492,212.72359547991073 159.93409450666513,212.04088208108442 160.77557674667332,210.59016543038888 161.74783971556462,208.96119995118352 162.8604953599861,208.26493759430014 163.28633372439072,207.90168901608558 162.27474915550556,207.69411812885664 161.55822222225834,207.2018133449019 162.0865880177589,205.87154702382395 162.02017820451874,205.61117848200956 162.46873571549077,205.0223022129503 161.90541738667525,204.24886384379352 161.64880753774196,203.51784023136133 161.37355633778498,202.40821391378995 161.05170176003594,201.98764646792552 160.73246862227097,201.5043539078324 160.27488170668948,200.60184393054806 159.52748003555462,199.63209280528827 158.82114759110846,198.67813147272682 157.5678080000216,197.0815681362874 156.7700164266862,196.35864330845652 156.2404855467612,196.25936505536083 155.31628231110517,196.24672963807825 154.28401749336626,194.97415887139505 153.74691356439143,194.50438885367475 152.97242368001025,193.6821760746534 152.47289372445084,193.05400703666965 152.24220700445585,192.73495784663828 151.49305770662613,191.8545240724925 151.21314616885502,191.53908332803985 151.11061873775907,190.9555844417191 150.46603576897178,190.5164926049183 149.61610666662455,190.39961189526366 148.94851328001823,189.92080648249248 148.4784017066704,189.57422471855534 147.95032718218863,189.25562172645004 147.4240002844017,189.0520946427132 147.0511732621817,188.784034292039 146.0337632711744,188.32508171582595 145.45238613337278,188.13509221578715 144.9872261688579,187.62153307296103 143.99020515556913,187.67974853730993 142.4243316622451,187.154454948497 141.11856327112764,186.7686070490745 140.81738894223236,186.50821574236033 140.03124821337406,186.14493099186802 139.46064810664393,185.73335797322216 139.35608177783433,185.70537820033496 138.80557937780395,185.5866897693486 138.21342520893086,185.34570241434267 137.35242780449335,185.08395554794697 136.8697915733792,185.01310332497815 136.00937671109568,184.81408517464297 136.74512753786985,184.21251673798542 137.6524370488478,183.39252168528037 140.56456561782397,184.30638499022461 140.99652067560237,182.7268657608074 140.38747278228402,182.5242351818015 139.96804238227196,182.31799406546634 139.31209983990993,181.88249522616388 139.02927559113596,181.94116351410048 138.91305841773283,181.83465799503028 138.0663332977565,180.90498897089856 137.58427960891277,180.49475997377886 137.46427591110114,180.40269527450437 135.13177685334813,178.73017981747398 134.7505029689055,179.44955257885158 134.60282851557713,179.31461395404767 134.43010474659968,179.0054733120487 133.39958755555563,178.39170373388333 133.2277375999838,178.13039983873023 133.57435022224672,177.3663436510251 133.85193159116898,176.10584818775533 133.86212607997004,175.82197620463558 133.90989454218652,174.48926226620097 133.92300174222328,174.31009218015242 133.89824369782582,174.19230017950758 133.8493101510685,173.9594238534919 133.70920874667354,172.8848498390871 133.34861511108465,172.09053721651435 133.07219882670324,171.6721679866314 132.71014883555472,171.22536501172 132.65859384892974,171.16172936215298 132.15964643552434,170.81692310905783 131.37496206222568,170.27443887089612 129.14382535102777,169.26483691477915 127.49173560889903,169.0179643809679 126.7006432710914,168.89971820567735 126.65549624885898,168.61583685938967 126.36975928884931,168.50571426644456 123.96589880890679,169.3857908148202 123.58899399114307,169.09694556926843 120.11733361775987,166.862895224127 114.87328853330109,163.4039083698881 112.75341738667339,162.21193531149765 112.84953685337678,161.98897560016485 113.40382577781565,160.97346796357306 113.70470883557573,160.32218658161582 113.79150762665085,159.8374478269252 113.98782435548492,159.0250340946368 112.50962346664164,157.78790271357866 110.84005745779723,155.9288073948701 109.20340508443769,153.94828252337174 108.22881194669753,152.1672391265747 106.57206186663825,150.22278895537602 103.83323960890993,147.63241863175062 104.14693859557156,146.4602197012282 102.19454833783675,144.98559624905465 100.94819925329648,144.06344374234322 99.38873372448143,142.7959854869987 96.3076679110527,140.3626075197244 94.99112248886377,139.49505274544936 93.48641592892818,138.6347166688065 90.13592433778103,137.01424234942533 88.66180124448147,136.2532020721701 87.1617550222436,135.511568931106 85.87637560884468,134.89812853868352 83.87097400892526,133.99805173225468 82.65171313774772,133.4383230616222 81.10477226658259,132.81223776069237 77.8375842133537,131.79027491412126 76.71822933340445,131.57856911531417 75.19517269334756,131.23550597793655 75.32944867562037,132.79824448545696 75.48411363561172,134.054475913872 75.66208028444089,134.91302446264308 75.64314766228199,135.06469199439744 75.25633962661959,135.8428892213269 73.65143580443691,137.83531426585978 73.50055736885406,138.41218427795684 73.69425265782047,139.16283522860613 74.11397432885133,140.07552942231996 74.40844942221884,140.85416017862735 74.53689998213667,141.47977105382597 74.56864853331354,142.15864258853253 74.30708707554732,142.86278902593767 73.71289400896057,143.83008392504416 73.6584263110999,144.2503119657049 73.78221653332002,144.95806262799306 74.34873884439003,146.19075298175449 74.01173816889059,147.2108429982327 74.11397432885133,148.0467716201092 74.59835818666033,150.01606598350918 74.0458168889163,151.30424480786314 74.30067911115475,152.69306819856865 74.74574136885349,153.95324739842908 74.70030307560228,155.30188384791836 74.5744739555521,156.7669593913597 74.41019704891369,158.5511246888782 73.88445269339718,160.2129624868394 72.0380851199152,160.78435735340463 71.21378787548747,161.03936326899566 71.08271587558556,161.03484989254503 70.62483768886887,161.69921790243825 69.1879972978495,162.42451409558998 68.4204979200149,163.89270119712455 68.25767736881971,164.10888899629936 67.61862855113577,164.73398195108166 67.11472952889744,165.54231249919394 66.6102479645051,165.87990583496867 66.2860632177908,166.28474635322345 66.02362794661894,166.67694899387425 65.70614243554883,167.5629001231864 64.64853703114204,168.05484290752793 62.8997452800395,168.32022075698478 62.38710812444333,168.6438188208267 60.08927032887004,168.92905409482773 59.20963157340884,169.10416670510313 58.039595520007424,169.17818333313335 57.97289443563204,169.76941281621112 57.84823040000629,171.076430483663 57.907649706699885,172.33289313531714 57.945806222152896,173.50720981362974 58.00056519114878,174.3791426338139 58.02328433783259,175.2217369338032 58.05095509334933,176.257035818242 58.0238668799866,176.41454162664013 57.75968398223631,176.7457998902537 57.49812252447009,178.02975939499447 57.02102044445928,178.65436122036772 55.94768640003167,179.64180612779455 54.78959246224258,180.40043878625147 53.587225315510295,180.8088627733523 52.57884472887963,182.15236922056647 49.887208391097374,180.37697130750166 49.826332728844136,180.34267268009717 49.50913848890923,180.57418831053656 49.54758627549745,180.86572616297053 49.93031651561614,181.435261835868 49.37661013333127,182.11446051904932 48.84649671113584,182.33333805017173 48.35949141334277,182.85097125644097 47.33887744008098,182.71919378236635 46.92935025785118,182.64021751837572 46.5839027200127,182.4186325338669 46.099518862203695,182.64427915553097 45.369884728919715,182.71242438949412 45.132207502261735,182.94077846209984 44.714816000079736,183.07887389219832 44.12033166224137,182.99583612772403 43.83139071997721,182.69211620936403 43.441087431041524,182.6113347632927 42.90835256886203,182.1735800387687 42.11813404446002,182.31979924015468 42.376200248952955,182.8225398219074 42.60251790226903,183.33520766178844 42.31386823114008,183.71158451790689 41.56763164442964,184.07758105482208 41.58947697770782,184.30728756944882 41.47588124440517,184.5514350932208 41.50384327117354,184.71254523209063 41.35442119115032,185.02844712039223 41.36141169781331,185.2901940533775 41.131307519972324,185.4815398887149 41.12577336886898,185.69951147324173 41.004022044478916,185.8015022436739 40.98013781325426,185.9585498853703 41.13043370668311,186.27760897070402 41.07567473780364,186.66210388304899 40.85984284442384,186.7338581404765 40.85663886228576,186.8466792521649 41.20762055111118,187.12421893893043 41.30869162664749,187.49697900406318 41.22480554669164,187.6003227836336 40.768674986669794,187.61747152835596 40.587504355586134,187.8187435368891 40.01865187555086,187.69012803718215 39.24940487113781,188.0475435545086 39.078719999990426,187.57550222973805 38.874830222222954,187.51864058634965 38.66307612450328,187.290742581652 38.369183573289774,187.32729653513525 38.186847857781686,187.28713231434813 37.81227320898324,187.37197358097183 37.572265813243575,187.28442461387021 37.30633528891485,187.22936802892946 37.29584952886216,187.17611656477675 37.527992604416795,187.22891674534185 37.50410837342497,187.158065218071 37.36895857786294,186.86021778156282 36.887778702308424,186.4883592001279 35.68803299556021,185.77442505263025 35.221125404466875,184.8637269071187 34.96451555553358,183.51166259951424 34.67877859552391,181.93665056949249 34.4920738133369,181.2971653668792 33.21951032895595,180.8919013690902 32.955327431089245,180.82917112851283 31.111872568842955,181.83330411097268 30.39534563559573,182.54589725710684 29.087829617783427,184.9251021243981 28.873454079963267,185.85024117899593 27.153206897783093,188.1739024358685 25.947927040047944,189.57016321021365 25.594615182257257,190.34726375801256 21.67206712893676,189.69516737567028 21.811585991177708,186.94280279328814 19.865603697719052,186.5659802185255 18.29973020439502,186.5240107178688 16.323746986687183,186.62509853369556 16.274813440046273,186.62825752719073 16.007717831176706,187.8629691999522 15.689941048971377,189.7010339954286 15.446438399958424,190.7470949026174 15.421971626579762,192.63793430896476 16.813664995483123,222.92072436079616 16.551520995562896,223.56775829935214 15.982668515644036,225.93343162874226 15.562655573361553,227.1052042604424 14.93933539558202,228.36044236522866 14.305529457749799,229.33412677043816 12.821794417803176,231.06626360485097 11.919436515541747,231.9695501459646" stroke="red" stroke-width="3.8775516689717255px" fill="none" stroke-linejoin="round" vector-effect="non-scaling-stroke"></polygon></svg>