<svg width="280.3234753422439" height="310.2822213533218" xmlns="http://www.w3.org/2000/svg"><polygon points="5,94.91065355500905 15.885092693264596,93.33305685903179 17.400285013369285,93.97849968785886 15.925579377799295,100.8045119374874 14.562139306566678,102.04659884428838 29.62959388445597,123.75179606425809 31.364695893251337,126.97273098613368 33.661077333264984,153.47589801670983 34.46090780443046,156.2161428621621 66.14683562668506,156.07841596606886 67.79921663994901,156.2966325667221 83.69504625780974,166.7439461813192 84.02738659549505,167.1512937186635 85.01683455996681,179.9333957147901 85.11557546665426,181.66238994395826 77.92991715553217,187.77658041653922 76.00490638217889,189.49254717171425 77.92292664886918,203.58326659776503 78.03506602661218,203.79920073406538 138.5836307911668,213.89064393629087 139.39016049774364,214.95953281508991 140.47165013337508,228.9820155975758 139.50317368889228,233.0176499710069 145.31723633769434,233.22640308045084 145.0775202133227,234.04845033754827 105.73611377773341,255.13186238036724 104.94414762663655,255.74017965706298 95.83551743999124,274.7254483861034 95.59958784002811,275.3743814874906 119.71596202661749,303.7007702586707 121.80903623113409,304.70398087531794 123.05159879114944,305.0145507181878 128.03553877328523,305.2822213533218 124.22687772440258,299.47561700094957 124.3052296533715,299.2879298341577 136.50220743112732,301.89229840872576 137.6524370488478,301.72427555994364 158.13229141337797,293.3077753937687 158.6184228977654,293.28989993134746 155.75027626671363,270.41571532189846 155.33404984883964,268.2029387312941 163.89916814211756,265.1641894726781 164.58394652442075,264.5858435598202 164.90055822220165,254.3823023356381 164.89648042665794,254.22139465849614 199.90231637330726,257.02966369403293 200.9919615999097,257.0703370710253 200.38757404440548,252.263675161812 205.23257770657074,250.91337491956074 208.59588522661943,256.4499555143411 211.50626616890077,255.9265630855807 250.99243434669916,225.35935828700894 251.6981842488749,225.13942208734807 254.0676747377729,216.7602255475358 255.05333617771976,216.31184191798093 251.20418844441883,211.10909445624566 251.70109695999417,210.50020670541562 274.68879559100606,196.82705877063563 275.3234753422439,196.29547696985537 256.6162969599245,175.70362924120855 254.1716585244285,173.47469737677602 242.21876593772322,172.66181349550607 241.8864255999215,172.47938369686017 234.51289742218796,149.01443091180408 234.23735495109577,148.7832388600218 236.8165606399998,122.56036913982825 236.97064305772074,121.88683439657325 246.45180899545085,111.57111925864592 246.86541397334076,110.75577026122482 243.02121784887277,94.1873847990646 242.28342812438495,93.5652017952525 230.14237439993303,87.97621083440026 227.6595794488676,85.40509309788467 226.14555221330374,91.77915554208448 225.09610239998437,92.77483450638829 211.306454186677,87.82994241692359 212.8743665778311,82.04309212102089 186.35704462218564,88.35686610726407 181.02678328880575,88.04554292495595 171.06705891550519,96.8456206091796 170.99511495104525,96.85590818320634 177.88018147554249,72.87605528213317 178.7338971021818,70.60626781423343 174.2858959643636,72.39248604950262 172.3081651199609,71.65840713359648 166.10991587559693,60.94218635454308 165.74873969773762,59.76115574495634 156.66836280887946,66.28716526244534 155.0788963555824,67.64083615358686 143.49213155556936,59.080270821170416 142.9055115377996,58.778300814155955 113.4320790754864,90.22613784315763 112.73011569771916,90.98788723821053 103.24079416890163,88.12605758337304 101.83162453328259,87.12185876298463 97.93762104888447,67.85735114762792 97.70227399107534,67.55315646721283 70.4698814577423,79.25540145178093 66.60034474660642,78.0471824349952 44.92802645335905,58.26875344704604 44.287521279999055,56.86044606595533 58.12988956447225,26.158624396950472 58.26474808878265,25.41991679032799 46.73070335993543,5.471635743801016 46.57254314655438,5.039825068728533 35.6472550398903,12.756802800286096 32.42375765333418,12.507569146633614 36.6605872354703,32.37288709246786 36.75991068442818,33.73839957074961 48.00880099553615,33.68470985634485 48.404929706593975,33.89007294323528 41.87958300439641,56.76694630482234 41.312769422191195,59.50973856134806 30.428550542215817,56.502999396354426 27.449138346593827,55.48031397553859 31.60295566217974,62.900714799470734 31.22867228440009,63.55608874122845 16.51336447999347,66.28313913039165 16.395108408876695,66.0702013738337 5,94.91065355500905" stroke="red" stroke-width="3.9054921668245304" fill="none" stroke-linejoin="round" vector-effect="non-scaling-stroke"></polygon></svg>