<svg viewBox="0 0 54.64387322310941 57.5615892347385" width="54.64387322310941" height="57.5615892347385" xmlns="http://www.w3.org/2000/svg">
  <title>Ústecký kraj</title>
  <desc>Geojson of Ústecký kraj</desc>
  <!-- Generated from maps/2-geojsons/world/europe/czechia/ustecky-kraj/okres-decin/okres-decin.geojson -->
  <metadata>
    <collboard>
      <support-module name="@collboard/map-svg-geojson-import" version="1.1.4"></support-module>
    </collboard>
  </metadata>
  <polygon points="2.527235142496471,33.51121871437626 3.3140749220501733,34.488332357321454 3.3317186696074774,34.50465063090797 5.571520696274644,34.42410674522671 5.611949126494989,34.414628882493524 4.373879423385193,38.06963559148262 4.3715419727172105,38.09410246911848 6.135042914940101,37.93170523031713 6.178391338052285,37.95852050403755 8.287601962050946,41.475884196942026 8.297002737162808,41.494815078349895 9.42356657716137,40.85125433401827 9.432093538940359,40.85019610426953 11.211679928275231,42.56978683958569 11.226228920274123,42.581182167556655 12.15594446160813,42.49728623218089 12.19879772382829,42.449818216703534 12.918798065162088,44.79897195145004 12.925708472274534,44.812488968096844 13.914260778049181,44.25673463313706 13.959211192274058,44.27803525613108 13.992277745163126,45.776902720561885 14.005690779827825,45.801507019239764 16.019852358495523,46.62221038466651 16.042171007385885,46.63765317915514 17.497121179828362,48.5837578160832 17.515478541605813,48.59674848157138 21.70768538960529,48.920574644001135 21.76839357094123,48.9267422445917 23.242261802052788,50.05825705114967 23.285843242049857,50.088824377234964 24.890565019828326,49.32922898011584 25.03566900560673,49.33323704343911 24.779233919383667,46.90976772713748 24.778360106050794,46.90254077751579 27.217639153162423,44.63906399263633 27.22638456827245,44.631374222153504 26.37299662160495,43.66821560401422 26.351267796716826,43.57371365360723 27.01144105182885,41.20410485834564 27.026630840272816,41.18226300384249 28.98617908560537,40.612733295820185 28.9943929309402,40.60632611810561 29.74167809360643,39.03914553272462 29.819498452718662,38.98329334948776 29.846506566493016,39.83537316021666 29.832387199383636,39.89313777142361 30.856234282051272,39.60333058484521 31.028157055383605,39.39340334724384 30.17299235493975,38.91012312177027 29.98382633182901,38.819634144066185 30.758505542494646,35.935042504739066 30.767585919383972,35.90142445089714 32.980722075828645,34.592241027182716 32.995358449162275,34.54330988624552 32.277870321163036,33.884360227468825 32.27018076382793,33.85556669853377 33.02355349271657,32.9610823881083 33.04623623049393,32.91221705925691 32.29335138071893,32.53786766411049 32.28975418249593,32.53374340900609 32.85188558160717,31.396641802797788 32.85601434960537,31.387884540999767 31.93882346604933,30.806370477167185 31.883358164716455,30.779899859720718 34.84581838160503,30.223191581702668 34.8646709042716,30.216991012102337 34.411686072274286,31.031647795482243 34.411001585161834,31.035876912747156 35.60703358516022,30.733446319584438 35.62050487405195,30.734425869968074 37.90864334160561,32.58874089739384 37.90864334160561,32.6050879688175 40.43762660916237,32.09003344468929 40.460986552273795,32.08944586245907 40.903755050050506,27.75230975418217 40.91134266249411,27.719528419078962 43.86946293982893,27.124425411360974 43.929100699827366,27.076913963349764 45.97567347138521,20.825742237322086 45.99314973805141,20.78398248343565 47.16987774516147,19.908638624628477 47.171108365605875,19.879839490265113 46.982787028717404,16.929535723308618 46.97822135405132,16.893846106011008 42.00736672649492,18.967864086547163 42.00733031760593,18.970185506925738 40.74859492916131,18.41213801748945 40.727317574494926,18.389660596713476 40.470598498938315,17.662270089110645 40.447165738051815,17.637698581248515 43.01431280293892,13.313801575003708 43.042871935383126,13.28727938971697 43.255623636717615,10.463732775766221 43.25515760294203,10.459961719183594 40.78142846516258,7.840450323233199 40.741342278497,7.799654258138435 38.58588508382946,8.541041085177676 38.571554545161604,8.543112436524643 38.92733492560784,7.7838102559324405 38.93819205627352,7.770894292580306 38.403622186052786,7.085146262973831 38.38455849182775,7.057308468528027 35.950973794940914,6.428077924379432 35.93872584471811,6.419580874081112 36.661187426940714,3.98037123531376 36.652500266048996,3.962512323916417 35.55330134693923,3.901198592068795 35.368366036718186,3.9341487296185735 35.515909418050256,6.232989667098264 35.51044080294069,6.266515901207277 32.70762628205103,4.830187495701648 32.67876131494105,4.815562186940042 29.41530881360505,6.802409417406125 29.382934029606812,6.8022936619423495 27.690335757605325,5.866780643166385 27.65032238871773,5.852389711246179 27.49345833182725,4.572252805882999 27.497951188715348,4.51532346496806 26.009169876717905,3.742525500368902 25.989931419829198,3.728464753343542 24.18180774338235,4.466476775202136 24.16662523671676,4.462446729730982 22.716990762049505,2.569727920839614 22.716772308718472,2.5692877029445302 21.65775423938449,2.598631622161884 21.62969754960487,2.5974036524477926 20.704088930939733,4.376645416955398 20.67872649893962,4.405330932265315 19.615040810050967,4.365330982993874 19.573323505162087,4.369152647082046 20.48466712116188,5.77031550908705 20.485067618940782,5.794455110610397 20.059345762940765,7.310899076575698 20.030611867827073,7.345066743210009 18.61759017182904,7.955962265713424 18.603667412718465,7.95479338665009 19.180114786940802,8.966739063450769 19.19984112294024,8.970904578597219 18.459786765606083,10.374314064558531 18.46824819138547,10.417762721350119 20.429908152273683,11.638658105155447 20.435595220717193,11.646048213963333 23.590054072273603,10.984518013556773 23.626229944272026,11.018245915867556 23.539358335383994,12.065266999800043 23.529331327383815,12.088187204816315 21.67566741271858,12.977327771099045 21.664460756716842,12.994590169453113 22.706199167383428,13.521777676491002 22.71480622871587,13.530922474508225 22.25285752827459,14.181723897493612 22.245597595828993,14.18709913160692 22.626827789607166,14.509036947935057 22.659887060717853,14.536986403616721 28.53536422338494,16.334439016032956 28.538269652717105,16.337154444640145 28.914067640274705,17.77981206696695 28.91726434071589,17.781487093775468 27.717897286495834,18.613933919500962 27.713404429607735,18.624098013849107 27.90336416649498,20.603627882765252 27.902038882940367,20.610439926283835 25.05947313716152,20.445135748869326 25.051972906052658,20.447248700159072 25.06548788560595,21.344958492003027 25.056043419829628,21.377386197814303 21.83537136293872,22.386622421600443 21.823225357607413,22.390061941183923 19.502865023384047,21.150630587950403 19.421651355828914,21.088635357159184 16.679494043829443,21.94351772411592 16.62507003671763,21.966291949506378 16.830882203829066,23.197157098410937 16.81011457360565,23.298918291223345 15.972025642052001,25.144641526398303 15.906635277607535,25.256482838009653 6.154718278496699,29.06167027830361 6.150786118494404,29.06273082689131 5.334345912272517,30.591513347186083 5.3450719709419054,30.63038509929302 3.216899597606795,30.864485529396735 3.2042657131618455,30.869763446747495 3.4364961700512198,31.974912188394047 3.4365544242724413,32.005467029215474 2.527235142496471,33.51121871437626" stroke="#009edd" fill="none" stroke-width="5px" vector-effect="non-scaling-stroke" stroke-linejoin="round"></polygon>
</svg>