<svg width="410.8531285332283" height="535.4274977773894" xmlns="http://www.w3.org/2000/svg"><polygon points="5,201.95067879650742 5.970224071061239,202.05656230042223 7.158610204351135,202.19848170713522 8.51389468437992,202.44806389079895 9.489652906660922,202.5761915332405 10.62036735995207,202.64915307424963 10.701049457653426,204.76858633826487 10.740662328898907,206.32344729988836 10.707457422162406,207.16960737667978 10.697262933361344,207.73193278443068 10.506480355514213,209.07857174868695 10.951542613329366,209.160873500281 12.220319573301822,209.62977046216838 17.965059697744437,211.35186831164174 18.738967039971612,211.6179003129946 19.08324949326925,212.07077679544454 18.799842702108435,212.39330614043865 18.556340053328313,213.26613491558237 18.11127779551316,215.52826682804152 18.05477119993884,216.26184209203348 18.079529244452715,216.58881390775787 18.286914275493473,218.35133935546037 18.35973205335904,219.20501585619058 21.78391523542814,219.12672153610038 21.707602204405703,220.60986035916721 21.031561955576763,229.61880271090195 23.897669688798487,230.4604252036661 26.67668735992629,230.1041150155943 28.79830613336526,230.03294187539723 30.640595911070704,230.04050402261782 35.17889109335374,230.34832767839544 37.78897151991259,228.8995065263589 38.49064362666104,229.15884487656876 41.06897550215945,230.3492173415143 43.9612976355711,231.6970528564416 43.731776000000536,232.67967758933082 46.1522389332531,233.7539318567724 47.782192071084864,234.33665144693805 52.292233955464326,235.11909464577911 52.76729713776149,233.92830307100667 52.88497066660784,233.6382774041267 52.97409962664824,233.41052692011 54.291810133261606,233.82110037654638 54.98969571548514,234.04084360296838 56.7725661866134,234.41583002067637 57.63909774215426,234.48344316228759 60.20140970661305,234.33709627046483 60.7096777955303,234.31129650445655 60.825312426663004,234.01504380226834 61.16493454214651,233.03286983817816 63.46743267541751,233.48481274832739 63.54491079109721,233.54842274903785 63.999293724424206,233.91317904251628 64.27250602666754,234.2930587369483 68.05757411546074,236.56387161731254 69.09362545772456,237.26757421868388 71.1735924622044,238.24750526831485 72.36052223993465,238.87380481418222 75.37226552888751,240.6850815715734 76.08558847999666,241.06761847564485 77.39776483550668,241.89941154955886 79.15966378664598,243.33035519067198 80.80010268441401,244.8102178312838 81.77877361769788,245.76298257906456 84.69556252437178,248.5923404962523 85.81433486216702,249.8359832848655 86.62144711101428,250.7406889811391 87.88381610671058,252.19159077102086 88.80190264887642,253.04824995144736 90.9727462399751,255.17476079065818 92.43026687996462,256.2738132706145 94.37362773332279,257.5681173519115 94.76742627553176,257.8154130760813 96.30475520004984,258.67560863576364 98.96406044438481,259.97745976177976 103.20205511106178,262.2889271173626 103.67420558223967,262.1990841199877 104.21422222221736,262.512200150406 106.21933255111799,263.8696241705911 106.23156593774911,263.86161841778085 108.94067854213063,265.98802512936527 109.08747918216977,266.11611590674147 110.0422658843454,265.5975257034879 111.0215193600161,265.1803399048513 111.82542762660887,264.91303814202547 113.69567943108268,264.551891153038 114.52609336888418,264.4696100446745 115.81001642660704,264.35797454591375 115.80215210665483,264.57724262343254 115.59476707549766,267.4792996123433 119.332357973326,268.03346585162217 122.98518897767644,268.7366234199726 123.17859299550764,267.47707582847215 123.35743345774245,266.78058562229853 123.72326997329947,268.15799739945214 124.07017386658117,269.702182757901 124.64397795556579,271.63818100094795 124.8868980621919,272.63397040887503 124.89563619543333,273.5701595712453 124.84058595553506,274.00734298455063 124.74097123544198,274.4089461102267 124.49339079111814,275.33890137495473 124.4695065600099,275.44563917495543 124.44270961778238,276.46720625890885 124.44212707551196,277.19035014952533 124.86068366211839,279.1720902744564 124.89476238226052,279.7733687708387 124.62155008001719,281.1155658989446 124.75757368886843,281.7461911563878 125.05379640881438,282.40394294419093 126.15392739558592,284.77565776812844 126.55442517332267,285.9884111598949 127.07463537773583,287.14912599063246 127.37435335107148,287.3990568915615 127.7736860443838,287.51512790773995 127.997090986697,287.8886893847957 129.03867647994775,288.9769059434766 129.14644679112826,289.2988782659522 129.4755831466755,290.31148705468513 129.88656668446492,290.2612347297836 130.4070681600133,290.1971963522956 130.52153770660516,290.76464688417036 130.13676856888924,291.3547761022346 129.79015594662633,291.77635953662684 129.03925902221818,292.36915429122746 128.18233941320796,293.03443443158176 127.6656244621845,293.123375474941 127.65076963545289,293.30837273044745 127.49843484442681,295.1107537468197 128.22544753772672,295.45850975316716 128.70691868441645,295.6337216512766 129.73743587557692,295.9281129029696 129.92967480886728,295.98236623289995 130.01938631106168,296.05752041365486 130.3365805509966,296.3385701413499 130.783972977777,296.7668145293137 132.16896711103618,298.00929666217417 132.19576405338012,298.4019622534979 130.6462017421145,298.56783323921263 130.15133212436922,298.58606569911353 129.79423374217004,298.5914020285709 129.21227406221442,298.5687226274749 128.94080938654952,298.5033525758772 128.67196615110151,298.4931246069027 128.37982122658286,298.5180274870945 127.70815004443284,298.47711561096366 127.63707989326213,298.2383146174252 127.62397269334178,298.1782808074495 127.36008106661029,298.1204704565462 127.10317994654179,298.09245466568973 127.15677383111324,298.8591077249148 127.19813432893716,301.3435967710102 127.21386296884157,302.23964243318187 127.57416533329524,305.0562704830663 127.95456540444866,305.2265832788544 129.69054122664966,304.55466963228537 130.46561365330126,304.19091936643235 132.0169235910289,303.597266973753 135.38314382219687,302.30367731896695 137.02911687106825,301.72647330281325 138.2530380799435,301.2693337664823 138.80587064882275,301.0972391627729 139.23170901322737,300.8824542367365 139.6788101688726,300.4644457073882 140.4914565688232,300.0024119548034 141.01720092445612,299.8703386063571 141.97344398219138,299.5968531387625 143.53057934215758,299.56038838415407 144.75828707555775,299.2757852144423 146.24813880887814,299.3749516730313 147.0369009777205,299.35138296720106 148.19703381333966,299.1859572628746 149.4658107733121,298.79685061518103 150.9518759821076,298.3948471414624 152.4790104178246,298.1444839887554 153.43146695115138,297.9906194592477 153.90274360892363,297.8114071699092 154.49111125338823,297.79539812449366 155.0378271288937,297.8047367344843 155.75814058666583,297.8469828219968 156.56117503996938,297.945260531269 157.14954268443398,298.1391476484714 157.42566769768018,298.3245853971457 158.24210062227212,298.9596084506484 159.06319388432894,299.7244797324529 159.82690673775505,300.0010778809665 160.30342627549544,300.13537460635416 160.98791338666342,300.26077743514907 162.02920760877896,300.4866802234901 163.0506953955628,300.7165849894518 163.9414024533471,300.9349275919376 164.94017109333072,301.30135135236196 166.0120487821987,301.67622357513756 167.17975466663484,302.26943644485436 168.3515383466147,302.4353045258904 170.46325390215497,303.0076151522808 171.88145294215064,303.3704779979307 173.58305877330713,303.3704779979307 174.9977625600295,303.2530812601326 176.4538268444594,303.0485261891736 176.3719796622172,303.9681331499596 176.48441031109542,307.10846422688337 176.69412551110145,307.1315874280408 176.66470712888986,308.05517946375767 176.4430498132715,310.7770187491551 176.15527395554818,312.8980824725004 175.97060807107482,315.0604792997474 175.71487203554716,316.96050740324426 175.3854444088647,317.9947774740285 176.93005511106458,318.6937741084839 178.5445708798943,319.52705346548464 179.3965388799552,319.99215893266955 182.4627498666523,321.78231672529364 184.1538699377561,322.72852442163276 190.04628451552708,325.06912604451645 192.2605275021633,326.0362176881172 194.24641393776983,326.95750749018043 197.69593770662323,328.4314742539427 199.14297258656006,328.7462749305414 199.8187215643702,328.82808746234514 199.7138639644254,329.3572003872832 203.25921592884697,330.3038202644675 203.15901866659988,331.21531044103904 203.30698439106345,333.3486273798044 203.38446250662673,334.4921977145714 203.47038748441264,336.97228441911284 203.50679637328722,339.342968733632 203.49747569777537,340.5305243980838 203.39261809771415,341.72207514347974 203.4237841066206,342.7900192673551 203.71592903113924,343.62987677700585 203.7403958044015,343.70234712713864 204.58449948439375,343.15948582836427 205.5215186488349,342.72821914451197 206.42416782223154,342.3503043478704 206.84476330666803,342.3703116180259 207.18089016887825,342.52770207996946 207.40953799104318,343.1834944643779 207.39235299546272,343.62676455278415 207.1535106843803,346.16499108914286 206.91699854214676,348.7191938152537 207.09904298663605,350.37574188318104 207.93469980440568,354.32633214251837 207.74216959998012,354.9580821461277 207.40662528004032,355.7814439709182 206.88058965327218,356.2255779359839 206.1363919643918,357.045823001361 204.966647182242,359.0499645275995 203.92622677329928,362.85324877430685 203.70078293327242,365.99407646246254 203.94981973338872,366.71648274199106 204.87052771553863,368.1003842970822 205.2014116977807,368.76677003578516 205.48510975996032,370.0933117798995 206.04784554662183,371.26958844589535 206.80165518214926,372.76770952285733 207.05185706657358,373.4345257258974 207.34574961778708,374.296493821661 207.96237055992242,374.9446347129997 206.7093222399708,376.4734039470204 205.75832206208725,376.9232752864482 204.17730247112922,377.41982193646254 201.3342051554937,378.4422510936856 201.32837973337155,378.3577897339128 200.75836216891184,378.2039810694987 200.96399957325775,377.68165315827355 201.38313870225102,377.07797391479835 201.01642837328836,376.3040351520176 200.76622648886405,375.94529294478707 200.52010239998344,375.6225578219164 200.22154951107223,375.05532525124727 199.6098801777698,374.4534169965773 199.02413397328928,373.78393661254086 197.53369969769847,372.84239303763025 197.15009564440697,372.7792676874669 196.3016228977358,372.81127490953077 195.92064028431196,375.009537605627 194.74594389332924,380.32261932012625 194.72089457768016,380.4599789250642 194.31136739545036,380.4670913941809 193.7052322133677,380.520434905251 192.6697634132579,380.4101916347281 191.11874474666547,380.2172657789779 190.10395619552583,380.0630138790584 189.09266289777588,379.85452915146016 187.4248445155099,379.2553011631826 185.45905578660313,378.61606357980054 184.84359992889222,378.5280460207723 184.30620472878218,378.40668841975275 183.86055992892943,378.25643605954247 182.57692814222537,377.64520129200537 182.2096352711087,377.5033945842879 180.7122104888549,377.10731329763075 178.2238813865697,382.50080364057794 177.51405368885025,384.0717501855688 176.4651864176849,386.0947608174174 176.44421489769593,386.3881424955325 175.9100236799568,387.3345180110773 173.64539079112,391.5707100617001 172.2665133511182,394.0741591400583 170.55820828443393,396.7736028955551 169.4175906132441,398.4035655600019 167.10227655107155,401.5274418516201 166.88964863994624,401.348313542665 165.89087999996264,402.15861240332015 165.21192704001442,402.46886318246834 164.13975808001123,402.9449061526684 163.7439206399722,403.2813803504687 163.51585535996128,403.3618318330846 162.84418417769484,403.4649519226514 162.15532799996436,403.9703285621945 161.15597681771033,403.44895053259097 158.6257046755636,401.9843739523203 157.79354311106727,402.99424388085026 157.51101013331208,402.8271178381983 156.44495786668267,404.20768183562905 155.3844397510402,404.03877878328785 154.72558449779171,404.7246132696746 154.050418062252,404.0756707767723 152.9665982577717,404.99574621242937 152.1216207643738,406.10827675426845 151.69053952000104,406.7741033800994 151.28596394660417,407.22746882610954 150.64371114654932,407.70883523731027 150.45700636447873,408.0515248135198 150.15699711989146,408.3853243953781 149.5884359111078,408.95913847669726 149.04987562657334,409.57606473437045 148.07382613327354,410.83080208930187 147.68061013321858,411.6072867094772 147.2230232177535,412.53310882340884 146.511156622204,413.80294110195246 145.9265755022643,414.4327432033024 145.52928170666564,414.7398655245779 144.47954062221106,415.418555449869 143.34008803556208,416.48258771793917 142.02092117327265,417.90306725364644 141.74159217765555,418.247963284899 139.0420915199211,416.3950297004776 138.8746106310282,416.9012656766572 138.5320758044254,417.3772775513353 138.05730389326345,418.244407658407 137.3882541510975,418.81908503943123 137.14387768879533,419.47420654131565 137.06144796439912,420.1399928890751 137.22922012442723,420.4395516461227 137.1569848889485,421.2382248634822 136.54706318222452,422.6226738235564 136.26744291558862,423.0257846189197 135.91413105768152,423.7111157272011 135.48304981330875,424.74666388798505 135.3621723022079,425.2684361010324 136.14190506667364,425.54843260673806 136.06384440883994,426.1959787220694 136.40812686213758,427.6461729184375 136.76056490663905,428.53104003088083 137.89826986659318,430.8714097975753 138.54430919105653,432.38423722295556 138.61945713777095,433.394857058709 139.1239387021633,434.5930177705595 139.9217302754987,436.7622232126305 142.91104568890296,441.3574375020107 143.8329187554773,442.4991156703327 145.27995363553055,445.0139865531819 146.0797841065796,446.45650250744075 147.89498567103874,449.5992526568007 148.14518755557947,450.187180166482 148.61296895996202,450.9666372045176 150.03641087992582,453.19389609619975 151.3168386843754,454.98652990401024 152.82649685326032,457.1377601522254 153.46525439992547,457.66389962413814 153.82293532439508,458.1353799616336 155.258028088836,459.95907954347786 155.57405724434648,460.58963883586694 156.2008726755157,461.24241467152024 157.81946623988915,462.46530880057253 158.9935800889507,463.58688162325416 160.6040180621203,465.2154627709533 160.49362631107215,465.3398832110106 160.36430193774868,465.55761881242506 161.82677418657113,467.4456885319669 162.2162036622176,468.05400880641537 164.17325425776653,469.71321717090905 165.95525091548916,471.7803227506811 166.6234268443659,472.5237117540091 169.23729379556607,473.39684627216775 170.2963555555325,473.7318801790825 171.84824803553056,474.28641794330906 172.34690417780075,474.4446031402331 171.1567704176996,476.2286221701652 168.52921372442506,480.0974279047223 168.67805326217785,480.5119863942964 168.20415516442154,483.0273133533774 170.56694641767535,484.42514916922664 170.63306496001314,484.22875954711344 173.9771485866513,485.2857957489905 176.5179064888507,486.12911062291823 177.89387121773325,486.6267448660219 179.9065545955673,486.1979797144886 181.30698609771207,486.4063641251996 184.87214449769817,486.0517994882539 186.0348987733014,485.864741975558 186.28772209770977,485.5985957405064 186.86735160881653,485.567049170495 189.08392476441804,485.8056477641221 193.19230378663633,485.5683821242419 194.65623239113484,485.2702446015319 197.04844202660024,484.0683597488678 197.9854611910414,483.99193653534167 198.97403534222394,483.6995730677154 199.6882321066223,484.15589095512405 200.79156707553193,483.88752105564345 201.4719763911562,483.6342577720061 202.13228799996432,484.3753852995578 204.68469674664084,489.5640970210661 206.84301567997318,492.0939830127172 208.06664561771322,492.97148324374575 211.02887281775475,494.46389209036715 212.10948863998055,495.1472244831966 212.99378773325589,495.61062749801204 212.67251569777727,496.2357535153278 223.12565333326347,499.31292944331653 224.9851281066658,499.8931717922678 227.5151089776773,500.06111301481724 232.71109432878438,500.79729829670396 233.56976156437304,501.74407250457443 233.16023438225966,502.25233441381715 233.40577592886984,503.7535662173759 233.68481365335174,505.1321669681929 233.96822044439614,506.2837340620463 236.75422862218693,507.58234978618566 237.91756543994416,506.1295701423078 238.75613496883307,507.31311978405574 241.29281507548876,507.58990243828157 243.55074872879777,508.62328052090015 243.9171677866252,508.476226583065 244.97943352884613,509.34122220845893 247.7200034132693,513.7332330214558 248.0919566222001,514.9189632404014 246.62948437326122,515.3387875142507 246.6169597154949,515.4214194996748 243.45725070219487,516.1375620788895 242.3113901510369,516.4081140994094 241.08834275545087,516.4800835467177 239.16216689778958,516.3823472545482 238.68331719108392,516.0269421917619 237.58784654224291,515.6550990330288 236.96598272002302,515.5280413706787 235.87517240887973,516.029607731849 232.10204643558245,516.668892170419 229.71071061328985,516.9598792628385 229.7165360355284,516.8008359834785 228.90505472000223,516.7932836460532 228.613492337754,516.0051736130845 227.95318072882947,515.4289718838409 227.43238798214588,515.1011093195993 223.67644700442906,519.7137976760278 224.46287900442258,522.2757683970849 224.46491790225264,523.519204207114 225.69874232891016,523.6160488604801 229.82721905771177,526.4631738591706 232.25146851548925,527.7416805329267 234.09026304003783,528.3214040200692 237.0728792177979,528.3174059322337 238.8170106310863,528.7762970939511 243.09403562662192,529.1512277907459 244.26203278219327,527.0606700805947 246.63152327109128,524.2908505651867 250.76990321767516,523.2677633035346 252.61627079104073,522.6707010719692 254.40875320881605,522.4316980302101 256.9964057599427,522.523656480189 260.4817558755167,523.9816592563875 260.7983675732976,524.7199860615656 260.96031431108713,527.8065385618247 263.45679900445975,530.1276438483619 264.6472240354633,530.4274977773894 265.27112675551325,530.3550886436715 267.2616735288175,529.9015315054567 269.1106625421671,527.9189294846728 270.2684652089374,526.4058674452244 273.48089429328684,523.2491051332327 276.97906033776235,521.0589803875191 278.4074538665591,520.631170525332 281.6676514132414,517.6911214712309 283.08818062220234,513.3360630657407 283.47964899556246,512.8153872775729 284.1102509510238,511.08764116850216 285.5374793955125,508.79165938094957 285.92749141331296,506.8270832732087 286.9119877688354,506.10513492894825 287.6987110399641,504.1654146515066 289.61877020436805,504.37289356120164 291.9783574756002,501.47483539034147 294.76378311100416,499.2831619923236 295.6929379556095,497.8201090480434 296.8819066310534,498.1857621190138 297.67940693325363,498.9081806242466 298.2179672176717,498.58518076030305 301.59205176879186,499.33203392475843 304.599717262201,498.0520300210919 306.8681366755627,496.393478705897 309.51579107542057,494.1462173392065 312.3993750754744,491.0769669933943 313.32299576886,489.6245231569046 316.12298495997675,487.32032072299626 317.69439260440413,486.07623691880144 318.0398401421262,485.11340010981075 317.7672103821533,484.7415049355477 317.1494243554771,483.28768649266567 316.2295901866164,481.1806991463527 315.2637351822341,478.07527775724884 314.2550633243518,476.55121037497884 314.3922520177439,475.71541269199224 312.27121578669176,473.0920271835057 311.55206741334405,471.6523511696141 310.0686236444162,468.6863224080298 309.73395313776564,465.67848419654183 309.8921133510303,464.3018591084983 310.2725134221837,463.8268370347796 310.8605897955131,462.9287803519983 311.2663304533344,460.41855703515466 313.0914352355758,458.8108260061126 314.64449279988185,458.29402109317016 314.3666201599408,457.1355382768088 313.6594139022054,454.8896551716025 314.33836686215363,453.9631217549322 314.6013846755959,452.4802158229286 314.7845942043932,451.88962810044177 315.0776129422011,450.48003236355726 314.53992647107225,449.1619722247124 314.3657463466516,448.11054032703396 314.46536106662825,446.81735222262796 314.0351536355447,445.4970482434146 313.5437792710727,444.9184406475397 313.12376632890664,444.2082888544537 311.71692686213646,441.9702736553736 310.2095988622168,438.69809109461494 310.1935789510608,438.0488039639313 309.93900799995754,436.6235653581098 308.6454729954712,433.3917460987577 308.55750911997166,432.27490867866436 308.76984575996175,431.36916849564295 308.3215795200085,430.4829794631805 308.5886751288781,428.2528250373434 305.4758607643889,427.81328018847853 301.202331022243,428.2092705818359 297.3919223466655,428.230158944265 294.8922336710384,428.00438675197074 292.6762430577073,428.12971701310016 291.26153927110136,429.41723689215723 287.3902549332706,431.74248678341974 285.18941041768994,433.6486223511747 281.3434666666435,434.7085670505767 276.8762416355312,434.75656442611944 272.8459232710302,433.47040892753284 271.06276152888313,431.38161244877847 269.5265976887895,430.6336407379713 267.064774257713,430.6651951513486 264.92422286223155,429.3861267315224 262.46938993770164,427.2710699689924 261.76247495098505,426.10264686646406 260.3343726932071,426.0973136164248 254.0560238932958,424.1271133397822 254.03213966218755,424.53244359366363 250.98486129764933,423.7795598326484 250.8191280355677,423.71956013096496 247.82253084448166,420.58310859196354 247.09522687993012,419.21642490668455 246.15733390219975,417.89106699544936 246.08335103990976,417.81062080321135 246.23248184879776,414.8229795959778 247.25746488885488,411.23704567120876 247.02852579555474,409.7516306096222 247.02415672887582,408.6395628863247 247.96001080889255,403.21204092761036 248.1301131377695,402.29418049077503 248.27749631996267,400.8669332730351 248.3975000177743,398.19420915236697 247.9801085155923,394.8831511793542 248.08205340441782,393.4354089369299 249.19703921768814,390.0300435270183 249.57307022216264,385.6320171059342 249.87599217775278,381.1365515253274 250.49436074669939,377.96615532261785 250.45270897774026,377.3767019941006 250.07871687109582,374.7823773981072 249.9182264888659,373.84572804765776 249.7204534044722,373.0273235371569 249.19237887999043,371.64700922346674 249.01412095990963,370.9832994636381 248.14700686221477,368.9152506403625 247.7456352710724,366.3879548868863 247.0602743466152,364.10914064606186 246.50744177773595,362.723435826716 245.8832477866672,361.21502156578936 245.53401372442022,360.67664899502415 244.20814762671944,359.38472730043577 243.5443407644052,358.33598007948603 243.32646997331176,357.82338583655655 242.94373973330949,356.3869597260491 242.59508821333293,354.5126118881162 242.3480903110467,352.55511067598127 242.31983701325953,351.20934631687123 242.62246769771446,348.8592406302341 242.6169335466111,348.19857455953024 242.06060572434217,346.3250464354642 241.8709882311523,344.9534572757548 241.7635091909906,343.1243620783207 241.69739064888563,341.8616817877628 241.353690737742,340.81907589605544 241.10902300442103,339.31495817098767 241.01377735112328,339.17579452955397 241.1940741688013,338.78409064625157 242.12730680883396,338.25677875970723 243.05180131550878,337.93132087937556 245.41517511103302,336.89581030781846 246.6842433421407,336.2173237199895 247.75845119997393,335.7375799797592 248.95062385778874,335.3165250691818 249.32752867555246,335.282733932836 251.28778325335588,335.29429405904375 251.29069596447516,333.65363933111075 251.45526414224878,331.64793348661624 251.21933454216924,329.73424815182807 250.9682588443393,328.1704739177367 250.1978467555018,325.73386305454187 250.09444551111665,325.1389346406795 248.82071694219485,324.64716151333414 248.16826965333894,323.76543534360826 248.1260353421094,323.6925138083752 244.58417863107752,323.2745484469924 242.66295438213274,322.97130074282177 241.07523555553053,322.8303482225165 236.96365255105775,322.1758293469902 234.8452377599897,318.6008414773387 233.53713920002338,316.58610577962827 232.69769585772883,314.90884986077435 232.82119480893016,314.9373081798549 235.05407914659008,315.34906407329254 235.8370158933103,315.51892427226994 237.4125013332814,315.84441517852247 237.51065969769843,315.70701538724825 239.53732408885844,313.36320189922117 240.68638862215448,314.01819155341946 240.8093050310854,313.803419192438 241.4174791109981,312.9323216989869 242.50275527115446,311.4017786288168 243.90988600882702,308.8773821237264 244.60835413332097,307.432188822655 245.24186880001798,305.5792148379842 246.9376492088195,302.36548875365406 246.36937927117106,301.8394239763147 244.5206815288402,300.64587929385016 243.58657507551834,299.8983541717171 242.13721002661623,298.52025095839053 240.89435619546566,297.0242944001802 240.2139468799578,296.34079363464843 239.773836231092,295.99615191295743 237.67755804443732,294.42991527426057 237.68192711099982,294.1355220253463 238.262139164377,293.29325276822783 237.09792853333056,292.3678201712901 236.78131683543324,292.12723374337656 230.17208405327983,286.5643221545033 231.96223630208988,284.5390655710362 239.28391822217964,288.7167484063539 239.63373482658062,288.9346581591526 240.48715918220114,286.707076693885 240.99397091555875,285.89012812968576 241.35631217772607,285.4569707243936 241.81448163557798,284.81657218257897 242.19750314671546,284.10990802536253 242.50945450656582,283.3756686737761 242.55460152891465,282.7850734081585 242.02303175104316,281.4584519287455 243.53094229334965,279.40335142833646 244.38145393773448,280.9950442238478 244.73476579552516,280.72820633259835 244.79476764437277,280.5565404521767 246.53394744882826,281.15114424075 247.7537908621598,283.0963813504204 248.8148915199563,283.07859233696945 249.32519850658718,283.3556560588768 249.86492387554608,283.23558033123845 250.22610005328897,282.8064202524838 250.9236943644937,283.14040915260557 251.48788650659844,283.76079997664783 252.32674730662256,283.28005283058155 253.06016796443146,283.00654681783635 253.3444485688815,283.0283383662463 253.85737699549645,283.9066693940549 254.1160257421434,283.7843703463441 254.4734153954778,283.53087755903834 255.076637866674,284.44878690270707 255.40810439107008,284.81612746068276 256.1252138665877,285.488990602782 258.86287104000803,281.7662039170973 260.2140777243767,280.60679498536047 262.23812067555264,279.6381701983046 262.371814115555,279.4816243794048 262.42832071101293,279.511421461415 266.3430044443812,276.4209534325637 268.122088391101,273.86057754053036 268.42967068438884,273.06137127417605 269.94661063107196,271.48696649540216 270.88129962666426,270.2149815557059 271.39801457780413,269.58298911130987 272.02104348433204,269.0768601492746 273.3195300977677,268.50001403910574 274.45344853331335,268.29453726578504 276.0796151466202,267.608279037755 276.7754618311301,267.21733771974687 277.9242350932909,266.31892615242396 278.73775530664716,265.0086619378999 279.33369600004517,264.9721914717229 280.133817742113,265.07048381183995 280.88733610662166,264.804071440245 282.30291370663326,263.8402697420097 283.82305763545446,262.51575828460045 286.3227463110816,260.3968792450614 287.7103618844412,258.5866537177935 288.2113481955603,257.6299413089873 289.2447780977236,256.4063574735774 289.9045071643777,255.2379197620321 290.3798616176937,254.35191338637378 290.42355228448287,254.39283343788702 291.1919254754903,255.35489724570652 292.08904049778357,256.55046584573574 293.23985265765805,255.9486793349497 293.4239359999774,256.32095987541834 293.8888046933571,256.10791051515844 293.1673261510441,255.05333539360436 292.42662371555343,254.05924584064633 292.2236077510752,253.8097219884512 292.3893410132732,253.8128354785731 292.5559480888769,253.79548889037687 293.40383829327766,253.83018206537236 294.5750394311035,253.98363258189056 297.0939519999083,254.27363152761245 296.948898986564,253.16478380956687 297.0587081955746,252.34904551139334 297.50202282657847,251.10897519416176 296.63694762671366,250.91549157188274 295.8822641776642,250.66685374861117 296.22334264882375,249.52774200192653 296.53209002665244,247.48657782829832 296.99812380445655,246.22068182949442 297.70183480880223,244.19861364422832 301.7714747732971,244.90184711269103 301.9651700622635,244.95967139693676 302.03507512889337,244.58781650470337 302.0522601243574,243.89748136029812 302.0968246044358,242.16674117167713 302.2110028800089,241.49774929595878 302.38052266661543,241.03425772546325 302.4760595910484,240.84076527529396 302.54916863993276,240.69308816472767 303.85668465774506,240.98488380602794 304.4543729777215,241.21751938405214 305.1164322133409,241.4839602134307 305.4886766932905,241.72504663001746 306.0595680710394,242.1262636622996 306.3761797688203,242.3593428451568 306.62696419551503,242.59375620278297 306.97008156438824,243.0621373653412 307.14921329775825,243.33213441225234 307.363588835462,243.58656295819674 307.88030378660187,244.32004501030315 308.25109191110823,244.8164450651966 308.94926876435056,245.80568342388142 309.53763640881516,246.86919867643155 310.1286254932638,247.63691917597316 310.9957395910751,247.54884940490592 312.1718923377339,248.42821115005063 312.66181034664623,248.72222054278245 312.9743442488834,248.90992376266513 313.04920092446264,248.88279131660238 314.01068686216604,248.57143513916526 314.5539074843982,248.41798086161725 315.50578147545457,248.40641618706286 316.31755406211596,248.43799664301332 317.801289102179,248.66884519043379 320.65661980444565,251.23351628670935 321.58140558213927,252.49093259649817 322.710954951006,253.7630196318496 323.07096604444087,253.60601068439428 324.7344153599115,253.11318867385853 326.3133960532723,253.6015628372552 327.95762147556525,253.4498911953997 328.5011333688162,253.26530533237383 329.2336802133359,253.42631758772768 330.70722076436505,254.19090180587955 332.39426304004155,254.35102381993784 333.5989603555063,254.6668196740793 334.82725063106045,252.6999823678052 334.87501909327693,252.62703736370895 335.0480341332732,252.75335674569942 335.355033884407,253.05447695305338 339.93061176885385,252.44511953520123 345.55971726216376,251.69298335246276 345.89089251554105,252.46024229435716 346.3950828087982,253.236839064979 347.990083413315,254.99017636943609 348.3821343288291,255.24147801334038 348.9279763910454,255.32242821645923 349.7481958399294,255.37357805483043 350.26461951993406,255.44207434158307 350.80376234662253,255.5603860595147 351.22930944000836,255.67469468922354 351.6714589865878,255.81257661513519 351.8456391110085,255.86772936140187 352.5091547021875,256.1986455496517 353.6940455822041,256.90762291813735 354.9561233066488,258.29577088559745 355.17457663989626,258.60755812667776 357.7657244444126,261.52881862496724 362.20323982217815,257.73935632710345 362.0045929243788,256.982345619821 363.2809429332847,254.67438097769627 361.3480678399792,251.4390089357039 363.9156226844061,251.2077184948139 364.7649692443665,250.75447748566512 366.5513349688845,250.0050042963121 367.226210133289,248.9739741140511 366.27462741336785,247.25528324738843 368.30886485334486,246.1926594536053 369.3833639821969,247.14942141604843 369.2828754488146,245.88708188646706 373.2616388265742,244.0909711320419 374.9384866133332,242.09735115105286 374.6110978843644,237.63899662171025 378.7159816533094,237.83115742815426 379.07919672876596,237.84672600467457 381.7807362844469,238.62871195061598 384.18081023998093,240.7331211261917 387.34022798214573,240.60234675870743 387.6580047644675,241.95768142823363 390.2005102932453,241.3229392498033 391.40433379553724,242.24280328443274 392.09056853328366,242.10135442210594 395.3434843021678,241.45148914452875 395.69941759994254,241.39633279747795 396.5065298487898,241.3545207187417 397.70015886216424,241.58982476085657 399.0172868266236,241.938109867624 400.42325247998815,242.57774315401912 400.5403434665641,243.4704688503407 402.46564551105257,243.31745583331212 402.8163359288592,244.08785750478273 404.49871786660515,244.7670719914604 404.06297628441826,243.75025109853595 405.33699612435885,241.96435355074937 405.103396693361,241.05916708603036 404.9895096888067,240.61658070719568 404.85290353780147,240.0783588902559 404.59134207991883,239.08331229141913 404.26074936881196,237.79913063865388 404.6047405510908,236.92862292949576 405.0559195022797,235.7511857339996 405.5225358221214,234.54571840597782 405.72380416002125,233.74414571316447 405.8531285332283,232.64320178329945 405.3766089954879,230.89769397454802 404.6198866488412,230.27315113157965 400.4509232355049,229.46578009484801 399.92051854217425,229.13704801152926 399.32457784877624,228.68554103717906 399.1096197688021,228.50137930666097 399.02282097772695,228.36348032578826 399.39856071106624,223.81899346678983 398.56436024885625,222.97868019790621 396.58226033777464,222.61746461770963 389.3721352532739,219.49328106833855 389.11057379550766,219.38874048704747 385.376478151069,218.31085748015903 383.3166088532889,217.85087608906906 382.19375871995,217.6275578921195 381.5981092978036,217.78592699533328 380.3724404622335,217.93495399708627 375.4476285155397,218.17651098326314 369.61288561776746,218.51193221658468 367.0170774755534,218.6573998874519 364.089511537808,206.0720899751177 364.03242239996325,205.81895284022903 363.0467609600164,201.58097591181286 362.0602257065475,197.3433625306934 363.99077063112054,197.05017451255117 370.41679388436023,197.18186447478365 370.8918570666574,197.12002359016333 371.4021640532883,196.85263942193706 375.64481905766297,192.15623508032877 375.9710427020909,191.81054089288227 375.735404373263,191.64948369923513 376.3427046400029,190.95497881947085 377.00418133323546,190.18439173238585 377.7585735110333,189.40757315885276 378.79520739556756,188.54532803647453 383.68157155555673,183.8273905593087 383.7698267021915,183.71838383370778 383.7957498311298,183.3072722699726 383.8941994665656,181.40342421352398 383.84235320880543,180.11579250026261 383.810604657745,178.63149175292347 383.91633607109543,178.03216245386284 384.3727579022525,177.3683154809405 385.0630704355426,176.58433277189033 386.27883605333045,175.19834063749295 385.8451333688572,174.38453895406565 385.77260686224326,174.2795320667792 385.33686527993996,173.5662848110078 384.2626574222231,171.42964386905078 383.61224903108086,170.4307282131631 382.135795768816,168.76749024610035 379.481442133314,166.34869806282222 375.28626431990415,162.8486107964418 372.8561894400045,161.01133199757896 372.28442424885,160.64156054833438 370.4936894576531,159.22254017589148 367.98468010663055,156.99943441717187 366.59473436442204,156.0511813344201 365.48091363557614,156.2340685670497 364.5217578666052,156.39915642538108 363.6986257066019,155.94616572605446 362.3538269866258,155.17011663073208 362.17323889769614,155.08067501726327 361.80041187547613,154.92626577831106 360.82844017772004,154.499526138301 359.3473265777575,154.46748725825455 357.93786567111965,154.9663142944337 357.0384204799775,155.56615120032802 355.8209072354948,156.44276451837504 355.2136069688713,156.7764996382175 350.522685724427,158.47542606655043 347.9152267377358,159.39252051949734 346.26342826662585,159.33600874437252 341.88678855111357,157.01678861211985 341.61153735104017,156.52375095378375 341.4519207822159,155.9577352446504 341.4006570666097,155.48471943114419 341.522699662135,154.43544837355148 342.0149478400126,153.52011327177752 343.2222665955778,152.13664625724778 343.3597465599887,151.9306161723216 343.24178176000714,151.56705937645165 342.92983039992396,150.97388647659682 342.73234858666547,150.73759585269727 342.5969075199682,150.60899312817492 342.4180670577334,150.47416043345584 341.4385223110439,150.01982259488432 340.0814902044367,149.4244205642026 339.10806215100456,149.02036505762953 338.9778639643919,148.96785558725242 338.79844095988665,148.89220632828074 338.53018026659265,148.7280028477544 338.03094158216845,148.72043791483156 337.93715228443034,148.71331797761377 337.5485966221895,148.68617321527563 333.89605688885786,147.46154046221636 333.2788534044521,147.13135125336703 332.08522439107765,146.70370654389262 330.26448867551517,146.6102564971079 328.92289393767715,146.8363165423507 329.2861090133665,147.82821900496492 329.32921713776886,147.9915331598604 327.53731726226397,148.32750604127068 327.05205959116574,148.4062704705866 326.5694233599352,148.4819198960322 325.57793649774976,148.869956541399 324.5689733688487,149.06085964059457 323.917399893282,149.17833838891238 323.016207075445,149.20459310058504 322.3154087822186,149.08844935230445 321.59946439100895,149.17255345196463 321.2816876088036,149.1827883402584 320.4393315555062,149.21082303172443 318.91714872885495,149.46580506220926 318.6695682844147,149.49873465724522 318.3707241243683,149.32696671562735 317.09553919988684,148.40538047719747 316.9784482133109,148.3163811196573 316.9519425421022,148.27277142123785 316.6327094043372,147.61061494331807 315.66423295997083,146.14389567205217 314.82741105777677,144.5739256532397 314.69313507550396,144.03991970058996 314.2300140088191,141.76503986842 315.4851012266008,140.13095678784885 317.20651349332184,138.57651958061615 318.56762339547276,137.3825370465638 321.2435310933506,135.328320151777 323.0202848711051,134.00348252081312 323.7353554489091,133.41026242170483 323.4213651911123,132.18999520968646 323.83846542215906,131.3795952043729 324.4579990755301,129.62305076711345 324.87713820440695,127.94793430971913 324.87014769774396,127.04228023975156 324.79878627555445,126.62127221759874 325.54065379558597,124.32485068863025 326.6702031644527,123.98439081199467 326.94487182225566,123.79079574602656 328.8209490488516,123.4236322233919 330.399929742096,122.93051952542737 331.34393941331655,122.47211954917293 331.95793891558424,122.02796021749964 332.4332933689002,121.7640454818029 334.6318077155156,121.24333588732406 335.1307551288046,121.01324416237185 339.62477710214444,122.39601616002619 341.0525880889036,122.4018017987255 343.3847958755214,122.5090586116421 344.8120243200101,122.49748733971501 347.40666737779975,122.50060268223751 349.80266353779007,122.16548058699118 350.9068723199889,121.84593474213034 352.28341959102545,120.59311474591959 353.4610286933603,119.01984759169864 355.19933468441013,116.93608582683373 356.21994865778834,114.90704729733989 359.516846364364,117.6423951475881 361.6093380266102,118.62063204916194 364.1652420266764,120.22861622512573 368.1393450666219,119.46445803169627 371.3587646577507,121.2037263038219 373.9644760177471,126.57142766297329 376.76563029328827,127.38674075144809 380.7944923022296,128.06052888033446 381.8736517687794,127.74366179981735 382.63911224878393,124.10143786150729 383.1858281244058,122.4983774375869 383.24175217782613,122.25003999506589 383.3040841955226,121.55932219803799 383.38855281774886,120.33631914737634 383.6769112177426,119.32426564733032 383.871771591017,118.09012376703322 384.17498481774237,117.05847733293194 384.4697511821287,115.83144378161523 385.271911822143,113.9207827449427 385.60133944882546,112.46452125057112 385.70940103102475,111.79068551049568 385.8870764088351,110.4470135178417 385.9272718221182,109.75358833553037 385.98144824884366,108.53675094619393 386.02484764449764,107.94568778917892 386.1206758399494,107.13119304401334 386.1058210133342,106.56683098780923 385.64939918217715,104.76023959176382 385.525608959957,104.56484732276294 385.5133755733259,104.46559332491597 384.77500330656767,101.55026540590916 383.2254409955349,99.85980266262777 382.06501688889693,99.21886553592049 379.7109637687681,98.53252663230523 377.86721763550304,96.83803486882243 377.2995302398922,96.18996733508538 376.2978488889057,95.45910867111525 374.2030270578107,94.09842321288306 373.3778559999773,93.53625336661935 371.8425659732893,92.23965189536102 371.52741063106805,90.97375557129271 370.5834009599639,89.29834575596033 370.1695047110552,88.43971555191092 369.3548194132745,86.23815286031459 370.5868962132372,84.27025949186645 369.25170944002457,82.98695744003635 367.1900925155496,81.91909132088767 365.70082332438324,82.21688360103872 362.7371397688985,83.57274591352325 361.2889398044208,83.82157200586516 360.2980354843894,83.84115758968983 359.26081905770116,83.93685984972399 356.7893836799776,84.47368199005723 355.29021127102897,85.06480801041471 353.74268785782624,85.91766474966425 353.07713336881716,86.16826868697535 352.64896483544726,86.19942723831628 352.2732251022244,86.08503082109382 351.5243670755299,85.6924325490836 350.74492558219936,85.16763172729407 350.10471167997457,84.6365979037364 348.5178666666616,82.92508455459028 348.14096184878144,82.47728459292557 346.75130737770814,81.07111558655743 346.02458595554344,80.38605564530008 344.5900757332565,79.16505010041874 343.3446004622383,78.32685682037845 342.38573596440256,77.8701447500498 341.6380430222489,77.82162460125983 340.6919944533147,78.07134745502844 340.16537628439255,78.53785213595256 339.182627555565,79.4726390823489 338.4160019910196,79.9533851130982 337.10615580447484,80.97096075699665 336.40739640884567,81.40451955795288 336.12719359993935,81.72145317326067 335.72815217776224,82.57432283269009 335.2539628088707,83.36264566727914 334.2333488356089,84.53867031977279 333.938291199971,84.91925227735192 332.1542556444183,84.9878014724818 330.8059616710525,84.99581371468958 330.02185983990785,84.62680514727253 329.3801895821234,84.58095723635051 328.97474019543733,84.39400449121604 327.1438099910738,83.86074317188468 322.66406030219514,82.63263478199951 321.8726766932523,82.32638559408952 320.5287517865654,81.92932932823896 318.6721897243988,81.45526457746746 318.68937471997924,81.35288426291663 316.8508714666823,79.28034037689213 315.7795763199683,78.59126863954589 314.7828465778148,78.0174856869271 312.87822478218004,76.94647953595268 311.93275875551626,76.38649170694407 313.3608610132942,75.9600453323801 314.5571114666527,74.37533133354736 315.2002380799968,72.8836421133019 315.6776314310264,71.66971748205833 315.8783172266558,69.86016946990276 315.6511257599341,68.68139564967714 315.6884084622143,66.8544618494343 316.2785237332573,65.59064572385978 317.6719647288555,63.73386011936236 318.8932644977467,60.51972775510512 319.78863189334515,57.373215989093296 320.259326008847,55.38458673097193 320.88060728891287,52.858151429041754 321.5977167644305,51.41261675884016 322.74969400884584,49.18797961180098 322.65328327112366,47.03277142561274 322.5967766754329,44.70880924584344 322.40745045337826,43.50318857253296 322.1266651022015,41.97656416980317 322.0786053688498,41.53535929112695 322.85484287992585,39.681042562646326 323.5227275376674,38.236757225648034 323.7793373867171,37.84629991784459 324.06944341328926,37.226553262618836 324.483339662198,35.9278400070034 324.71693909331225,34.41273908561561 324.27304192003794,33.158977415412664 324.2243996444158,33.00804468849674 323.6450614044443,33.27206558565376 322.45987925329246,33.898946989909746 321.46810111997183,34.239100642851554 319.8046518043848,34.73196632752661 317.1112678400241,35.20123398699798 316.22784255992156,35.34637729253154 316.3306612621527,32.86779737181496 316.37697336880956,29.585984713514335 316.22696874663234,28.57707686012145 315.89958001777995,27.525866550276987 315.6024834844284,26.21195793116931 315.3569419377018,23.643780505284667 315.30800839106087,22.10188014851883 315.5771428977605,20.243392802076414 316.1885209599277,17.78690623107832 315.3866515910486,17.485019643092528 314.4076893866295,17.29934582853457 313.63494712894317,17.228994558216073 312.48442623997107,17.304243700928055 310.23348309332505,17.87684876291314 309.62618282670155,17.930725212499965 309.0392715377966,17.78957779193297 306.37501468439586,16.71471718570683 304.79865543113556,15.851351871096995 303.0932630755706,15.182118980621453 299.1829484087648,14.210547725437209 295.4773973332485,13.284389658714645 290.52345827547833,12.665019282372668 286.88868607999757,11.340335610555485 286.38973866659217,12.490027911961079 284.69861859548837,12.278969433391467 280.0988652087981,13.079120445530862 275.92524145776406,12.35511080652941 273.90585884440225,11.634215699858032 273.1150577777298,11.494845342705958 270.0185545955319,10.772611602325924 268.4920027022017,10.18173180858139 264.2042006755946,7.538560624583624 263.17717873770744,7.0719058196409605 260.3329163377639,6.664917903428432 257.65263957332354,6.596344373188913 256.49745834665373,6.684065054228995 254.75944362662267,6.60124248318607 254.08806371549144,6.661355642660055 253.95349646219984,9.703060129773803 253.8334927643882,11.414250942587387 253.8733969066525,12.141825841157697 254.6041961243609,14.398005207185633 254.6601201777812,16.648373091011308 254.57623409770895,17.66445965593448 254.4996297955513,18.28426125762053 254.04349923552945,19.404975681798533 253.229105208884,20.898807471967302 252.17645141331013,24.6852138931863 251.59565681766253,24.557428188389167 250.3574633244425,24.74843884864822 249.39510357321706,24.668739782064222 248.76916195545346,24.523144206148572 247.1351310221944,24.437656850845087 246.2517057422083,23.527125411783345 244.01445233775303,20.697552631027065 242.21585322660394,19.071478023310192 241.90069788438268,18.358174263499677 238.79633038211614,16.229380730423145 237.28463331551757,15.97736156283645 234.60639544890728,14.490175454528071 233.11450481775682,13.865465246257372 229.54992895992473,11.883122923900373 224.62569955550134,7.978497647680342 223.54479246214032,7.224637415027246 221.51987569779158,5 220.09119089774322,6.59946135233622 220.0346843021689,8.119651344662998 219.85671765333973,9.005756086378824 219.38019811548293,9.947516772721428 219.2526213688543,10.189746767398901 219.9001170488773,10.697805506410077 219.91701077332254,12.261603853432462 219.80632775102276,12.260713310854044 219.7958419910865,13.228285727789626 219.05251811549533,13.7452428364777 217.6916994843632,14.576111930713523 217.34974719991442,14.560082331532612 215.83805013331585,14.944792391499504 215.61581027554348,14.839709617663175 215.52959402662236,13.816485753864981 215.22812842670828,13.5942968291929 214.89141902211122,13.567580710921902 214.17751352884807,13.863238905963954 213.93721486220602,14.226577350054868 213.9995468800189,14.63177025236655 213.55361080891453,15.042750864464324 213.29146680887789,15.004458012059331 212.6812538310187,14.155779832508415 212.36231196438894,14.138859667698853 212.0704583110055,14.322755073313601 211.7092821332626,14.269323009997606 211.1503328710096,14.473255315446295 210.98547342221718,15.664340888499282 210.4125431466382,16.005413180566393 209.8314572799718,16.229380730423145 209.6412572443951,16.73920661158627 209.15221304877196,17.35144137503812 208.73744298657402,17.65288288530428 208.43947263993323,18.04960956290597 207.9763515732484,18.48863511090167 207.31545742216986,18.715716948208865 206.68514673772734,19.27362486178754 206.54708423104603,19.63784490938997 205.88036465772893,19.93705701699946 205.82007153774612,20.232261421973817 205.2017029687995,20.77101957431296 204.65265692444518,20.697997885290533 203.69350115559064,21.007449389551766 202.61987584002782,21.386805173708126 201.15332579554524,21.84675092471298 200.413788444479,22.11701869708486 199.93989034660626,22.43092071893625 198.95918051560875,24.043613144080155 198.9615106843412,24.175851618987508 199.3858926933026,24.67719946091529 199.2961811911082,25.246668673935346 198.6664530489361,26.34419510664884 198.6859682133654,26.683915163739584 198.74655260436703,26.930579202482477 198.8607308799401,27.1509737331653 199.08704853325617,27.359346541459672 199.6762899911264,27.68259114958346 199.9113457776839,27.808594084810466 199.96959999995306,27.835753718740307 200.06892344879452,29.012519562151283 200.29291093326174,29.951523446070496 200.13271182216704,30.58375709608663 199.69726151111536,30.876721088658087 199.38531015103217,31.47244302299805 198.94752967101522,32.394517673761584 198.69528888887726,33.505365407210775 198.41625116439536,33.87757606228115 198.34430720005184,34.137588874669746 198.0821632000152,35.149587879830506 197.48855267558247,36.11438859300688 196.9948481421452,36.74393325380515 195.20877368887886,41.144017394050024 194.83157759997994,42.236122228146996 194.33088255987968,43.72356655099429 193.84941141330637,44.540076172794215 192.79471872001886,45.117507816525176 192.5203413333511,45.36370604560943 192.36218111997005,45.9455875675194 192.8853040355025,47.54786854155827 192.72277475555893,48.47833478706889 191.99110172432847,48.52819698234089 191.19331015099306,48.847403804422356 191.12165745778475,49.309073105454445 191.13068686216138,50.76842255750671 191.79128974222112,53.403062564495485 191.78954211552627,54.264500217395835 191.66895587544423,54.863720498164184 191.1502020265907,55.786142594181 191.07709297770634,56.36131889920216 190.83096888882574,58.35795256483834 189.31985436438117,60.57359379401896 189.0632445155643,61.431442079367116 189.1343146666186,63.44761726609431 189.55112362664659,64.06818061781814 190.43367509334348,65.2229402011726 190.44765610666946,65.92051177902613 190.78931711998302,65.98105394345475 190.1662882133387,67.98338764003711 189.53830769774504,69.35358239873312 189.3431560533354,70.44777340319706 188.83867448882665,71.59671263420023 188.80954737775028,72.55111556814518 189.33674808882643,74.17011894134339 189.3615061333403,74.40293038258096 189.69180757319555,77.19442281872034 190.0328860443551,79.70232898328686 190.15755007998087,80.57256665214663 190.37221688881982,82.11272311827634 192.85850709339138,82.8827973207226 192.90569301322103,83.38356667530024 193.74863160890527,83.54069673630875 194.6847769599408,83.56695925688837 195.1059549866477,83.76993727631634 195.71179889771156,83.81934637122322 196.24715519999154,84.31877822289243 196.61357425770257,84.26402772741858 197.16087267547846,84.6365979037364 198.05857024004217,84.61656726512592 199.51521706662606,85.63412140822038 199.91775374219287,85.40354743343778 201.16410282661673,85.69465816480806 201.47139384888578,85.79970720293932 202.10752995545045,86.01470147678629 203.04891818668693,86.33429920277558 204.526245262241,86.8270485503599 205.12801137764473,87.15109630208462 205.0895635910565,88.25143072154606 206.3184364088811,88.63779280055314 207.0040886043571,88.85278430965263 207.80217144882772,89.20798721362371 208.36956757330336,91.13933735975297 209.07240476435982,91.96145800221711 209.88650751998648,92.30552815797273 212.1371593954973,92.29440041224007 212.98854485328775,92.20270776655525 213.9287679999834,92.25033453386277 214.76966769772116,92.38609301985707 215.73377507552505,92.63223852077499 216.72555320884567,92.89262722386047 217.62266823102254,93.16147267364431 218.84804579557385,93.55272233742289 219.8261341865873,93.83313975844067 221.07277454214636,94.18343848071527 222.57981127104722,94.55065064853989 223.8753851732472,94.97171984909801 225.48203662212472,95.57884146820288 226.24604074656963,95.91979026678018 226.42225976893678,96.01370687992312 226.23642879992258,96.99871615378652 226.29031395551283,97.02230647118995 228.346396728768,97.68372453039046 230.99550748441834,98.57837164500961 233.6833572977921,99.86647908121813 234.72931185772177,100.48827531561255 235.34039864887018,100.89998624630971 236.46091861336026,101.4550158745842 237.46318250661716,101.70916289690649 238.60962560004555,101.89387552277185 238.71040540444665,102.13021844043396 238.51001087995246,102.48094908322673 237.95018780441023,103.04176088195527 235.48195640882477,104.85815820365679 233.84093496890273,105.82621486968128 231.49853269325104,107.46811828395585 229.68857400887646,108.66804864647565 226.09079324442428,111.15823939413531 225.0151290310314,110.64907667192165 224.63298133329954,110.48217430023942 224.5237546666758,111.56414449901786 224.39151758211665,112.05060654168483 223.8564525510883,113.48105687601492 223.78363477322273,113.99154826346785 223.72683690662961,115.1901079704985 223.61353244434576,115.9938914879458 223.48566442669835,116.59116394462762 223.40090453333687,117.24184193497058 223.41896334220655,118.49646118131932 223.21128704003058,118.27704797172919 222.01037624885794,117.26632020773832 218.20433663995937,115.2826811936684 216.62768611544743,114.65959144290537 215.1477375999093,118.86763840646017 212.35211747547146,118.60594517597929 211.12528355547693,118.52583494130522 210.12418474664446,118.54942295781802 207.94343793776352,118.63709914818173 207.36730367993005,120.40663755591959 206.66038869321346,122.64435343828518 205.62637624889612,126.04494386637816 204.60372337768786,129.55362536408938 205.41666104877368,130.29772213596152 207.4922589865746,132.70489361236105 206.51096661330666,134.02083852369105 206.21532643551473,134.53751275426475 205.15014798217453,133.70932031533448 203.92418787546922,132.5678248377517 202.87357297772542,132.96479001635453 201.01904981327243,133.57002703135367 200.35553422220983,133.868639682536 199.62269610655494,134.14322055666707 198.34867626661435,134.88285161729436 197.36913151992485,135.41465460887412 195.06255559111014,137.74166702316143 194.02679551998153,138.67486820812337 193.74367999995593,138.71669973776443 192.92258673766628,139.28320467227604 191.6718685865635,140.02103845583042 191.1202011022251,140.41977028216934 190.84961023996584,140.5768597436836 190.10890780447517,141.09440865158103 189.38247765332926,141.7712700094562 187.8646638932405,142.84863676561508 184.6353410843294,144.25530225690454 183.25704618659802,144.6793916761526 182.38381539552938,144.86851838428993 181.81583672878332,145.21918112254934 181.08037717326079,144.3580984029686 180.17860181326978,144.39547880773898 177.73017685324885,144.94861905882135 176.30265713774133,145.32642684871098 173.7525785600301,143.96738379233284 173.846076586633,140.7962507874472 171.68397112877574,140.20927912881598 169.95032547554,139.33838653634302 170.78627356444485,137.68959988805 170.96132750215475,136.3594361777068 170.9001605688827,135.94200610095868 170.2736364088487,135.6175849525025 169.85770126222633,135.02703933324665 168.25716650660615,134.2130895414739 167.82404636440333,133.6100794223603 166.49730645329691,133.1739529960323 166.39332266664132,134.35282744467258 165.94447388441768,135.20593877584906 165.852432213258,135.77868303086143 165.67592191998847,136.42129408568144 165.01852302218322,137.73766185931163 165.00017294217832,138.34600090637105 165.09716622217093,139.03399608208565 164.42753393773455,141.5981610234012 164.6419094755547,141.95238903461723 164.50879857782274,142.60343727632426 164.5259835732868,143.01951973326504 164.08208640001249,143.52771777717862 163.96266524435487,143.83744210575242 163.57381831109524,144.07507513219025 163.26914872892667,144.09643539169338 163.09322097769473,144.301582778804 162.86690332437865,144.50940000260016 162.2799920354737,145.57429332786705 162.23688391107135,145.89424982550554 162.02105201780796,146.1883957933169 161.99163363547996,146.4184612770332 161.69045930658467,146.7175015474204 161.0284000710817,146.89639151550364 160.6264459376689,146.94756647973554 160.34566058660857,146.1358856492443 159.81933368882164,145.43055750400526 159.51815936004277,145.28815659554675 157.64499484433327,146.6681065306766 157.34527687099762,146.17816076625604 156.2527189332759,146.07581046922132 155.6637687466573,146.17860576731618 154.7663624533452,146.07848047756124 154.23421013331972,146.2021908290917 154.08566186670214,146.40778125997167 153.4509821155807,146.034425335587 153.3761254400015,145.53112809022423 152.61532529769465,144.96063415752724 152.16006855107844,144.1507260419894 152.26055708446074,143.86147242342122 152.22968234668951,143.5975837915321 152.04967680003028,143.4124610554427 152.17259320884477,143.15791703981813 151.78462008887436,143.04978024499724 151.37159765325487,142.45035433542216 151.39548188447952,142.23140994476853 151.19188337773085,142.08366685931105 151.24431217776146,141.8531518476084 150.8735240532551,141.70318345789565 150.70808206219226,141.10063881159294 150.39176163554657,141.1673905151547 149.40784782217816,140.476731912815 149.15560703992378,139.32014092156896 148.74433223099913,138.8591048856033 147.95527879102156,138.7109145267168 147.13098154659383,138.31929988611955 146.62183964438736,138.0496194001753 146.41707605321426,137.8315606805263 146.2801786310738,137.4906766177155 145.9192937243497,136.87877505389042 145.52899043553043,136.46980135387275 145.0253826844273,136.0683922629105 144.59779669332784,135.5379259143374 143.80146147555206,134.72575810353737 143.38494378665928,134.66567981801927 143.22620103112422,134.12719963985728 142.0707285333192,133.18018337956164 140.65136440878268,131.92164232488722 140.59427527105436,131.635932924808 139.67065457766876,130.9537001043791 139.49210538656916,130.7000317860511 139.24248604441527,130.4833009041613 138.3864402488107,129.89051637839293 137.92011519998778,129.7392047579051 137.2318415644113,129.54739487811457 136.67230976000428,129.23898560373345 136.21443157328758,128.6257260546554 136.00879416882526,127.99421825085301 136.8922194489278,126.97107386542484 137.45699413330294,126.50823187205242 137.9067167288158,125.9350185196381 138.83237631991506,124.90696910425322 138.88684401777573,124.35867412481457 138.65237077325583,123.97281961742556 137.76515896886121,123.70045132382074 136.63997866667341,123.21178971917834 135.56751843553502,122.65191926498665 134.51166065770667,121.80899556865916 133.4365789865842,120.91088219603989 132.27935886220075,119.86856764473487 131.33447537769098,118.90680335299112 130.50580906670075,118.19649256009143 129.45490289770532,117.32195263571339 130.00686165329535,116.30142914701719 130.56493710214272,115.25019155722111 131.23602574213874,114.05875323177315 131.94818360882346,112.86597326968331 132.08129450667184,112.72444148815703 130.24162616883405,110.49419127521105 134.63137308438309,108.52651417307789 136.65541603555903,107.90607581916265 138.3602258488536,107.38221797440201 139.358703217702,106.99855918891262 139.94066289777402,106.52588352694875 139.04383914661594,105.90009856031975 138.99490559997503,105.87027803761885 138.8300461510662,105.76968937879428 137.80972344893962,105.17194255359937 136.67260103102308,104.4900730146328 136.18676081777085,104.19142061448656 135.3773183999583,103.71829385391902 133.97572181327268,102.92781828262378 132.72704255999997,102.13867515022866 131.52001507556997,101.23558572330512 130.84892643557396,100.71705316001317 129.65995776001364,99.68265494843945 128.99032547557727,99.17836180771701 128.32447971543297,98.67495770868845 127.0321097956039,97.74692857498303 125.97858218662441,97.01963586930651 125.46507121773902,96.66889654763509 124.8414597689407,96.2117773310747 123.30063559103291,95.26281795988325 120.0777207466308,93.72987497178838 119.20769393770024,93.14633899799082 118.82671132439282,92.97408208844718 118.22902300441638,92.51873565663118 117.71056042669807,92.67452388658421 117.43210524437018,93.09248090890469 117.21248682658188,93.95732450252399 117.29404273768887,94.34011574706528 117.07675448886584,94.38106546876952 116.73975381324999,94.73447905579815 116.68324721779209,95.07809978420846 116.06429610657506,94.93700170010561 116.49042574223131,92.25968184205703 116.43945329776034,90.75832101533888 116.13944405328948,90.03545642335666 115.45583075552713,88.96317324333359 114.47046058659907,88.27858291740995 114.35832120885607,88.58927501901053 113.90568590222392,90.45475378422998 111.68299605324864,89.55517746962141 109.91468913771678,88.85723547742236 107.38558207999449,87.77292836131528 105.13289130665362,86.70731100521516 104.11839402664918,86.19942723831628 103.85887146659661,86.07034178264439 104.2011150221806,85.60073716042098 104.47141461330466,85.25398580753244 104.78394851554185,84.88453254697379 105.1023078400176,84.48481013008859 105.53338908439036,83.93151832930744 105.81650460441597,83.51665985037107 109.96653539547697,85.68709107115865 111.69027783104684,86.56398196239024 114.54822997329757,87.89043973467778 114.85464718216099,85.93324404361192 116.11148202663753,83.92350604850799 115.87788259552326,82.6459886613302 115.22135751100723,80.66337386332452 114.74949831108097,79.46996826818213 113.2270242132945,75.52113411144819 112.82273991103284,74.87656513776165 112.50671075552236,74.72521579643944 112.41670798219275,74.36553812178317 112.09951374225784,73.9243979951716 111.84086499549448,73.50061774946516 111.74008519109339,73.50863040873082 111.25948785769287,73.05546955618775 111.1744366933126,72.67976378230378 110.91404031997081,71.66348536184523 110.519076693221,70.89515262155328 109.16175331547856,68.92222570703598 107.80559502216056,67.77549834823003 106.82255502219778,66.69642958440818 106.4063286044402,66.0206734391395 105.21561230218504,64.56454100948758 103.29031025769655,62.065366225433536 103.1726367288502,61.21019143954618 103.0354480354581,60.22101584618213 102.80301368888468,58.8788105500862 102.67776711110491,58.111323654069565 102.04279608884826,54.04324239183916 101.43782599107362,53.524153745151125 99.12658972432837,52.224646023707464 97.90062961773947,51.39169271965511 96.75273016886786,53.16488670266699 96.40728263102937,54.541851262853015 96.41951601777691,55.29198837943841 97.4398387200199,58.257787426700816 97.7118859377224,58.65266039635753 98.59210723557044,61.65313766896725 98.56938808888663,62.28750634856988 96.61175495106727,62.53546610166086 95.41987356438767,62.57197002740577 94.12808618671261,62.47492299193982 92.6376519111218,62.2207307839999 92.32045767107047,62.08495374023914 91.96277674660087,61.14564141235314 91.61412522662431,60.27799817896448 91.28440632880665,60.09147001930978 89.74125198216643,60.20365403877804 88.40111360000446,60.375046180561185 87.00621624884661,60.847820697235875 86.12453859555535,61.08554309414467 85.57432746654376,61.15988693723921 85.60549347556662,61.51736027607694 85.80501418665517,64.05170944670681 85.77967359998729,65.02573226537788 85.68646684440318,66.4867584327003 85.73452657775488,68.03992280969396 85.8248206222197,69.10785608948208 85.77151800889987,69.55034131137654 85.62908643553965,70.30487895430997 85.031689386582,71.56644232443068 89.49658424884547,74.86632680322509 90.81342094216961,75.88748704676982 90.25447168003302,78.13500225485768 89.77911722660065,79.29235905094538 89.42201884440146,80.16615941084456 89.28628650656901,80.49600368033862 89.11298019555397,80.82584745681379 87.96275057771709,82.54049299249891 87.70730581332464,82.84229059435893 86.89524195552804,83.94576238346053 86.58998983108904,84.34682115435135 85.96696092444472,85.19166843337007 85.31888270215131,85.96840873156907 84.90527772449423,86.32228091225261 84.58109297777992,86.564872205141 84.02709532447625,86.8270485503599 83.15269944886677,87.07364537171088 82.47403775993735,87.21296800277196 81.57517511106562,87.30154688225593 79.24413240887225,87.21385824296158 78.30420053331181,87.18403519527055 77.35815196437761,87.16044382634573 74.50252999109216,86.81725589104462 74.30475690658204,86.77452428196557 74.09009009774309,86.82482294598594 73.94969742221292,86.88179840991506 73.73007900442462,86.96904206054751 73.33977571548894,87.17958399379859 72.29411242657807,87.9002323463792 70.31142997334246,89.1946337313857 69.89141703105997,89.43544140458107 69.3147002310725,89.66645628225524 67.61018168879673,90.29406773473602 66.50364273774903,90.76766838680487 66.2080025599571,90.91678116365802 65.8876043377677,91.11797197465785 63.20150215108879,93.17349059163826 62.916639004368335,93.41651946143247 60.923179519944824,95.44753598095849 60.63103459542617,95.75065124197863 60.54103182221297,95.85035426181275 60.60307256877422,96.19085753895342 60.624044088763185,96.36889825912658 60.5349151288392,97.32942546653794 60.322869759984314,99.09334846399724 59.88800199108664,102.10217776848003 59.6337223110022,103.562958506227 59.02147043554578,106.30467809073161 58.48640540440101,109.32765150477644 59.008654506644234,109.81678892369382 59.48837802663911,110.31705209624488 60.56957639101893,111.051422137185 62.48905301326886,112.12181772966869 64.58970026660245,113.42675868159859 65.99770481768064,114.34315018891357 66.53684764448553,114.76952240534592 66.90239288890734,115.22793837892823 68.54137543099932,116.48790980537888 70.20890254213009,117.93346335936803 70.82697983994149,118.41012010665145 71.11213425779715,118.69985213619657 71.94313073775265,119.35764479450881 73.17928533325903,120.15117690141778 73.73939967993647,120.51211512665031 75.14915185770951,121.31365400686627 76.64395519997925,122.23980385786854 77.48747633770108,122.83705941337394 78.08924245322123,123.38402303121984 78.63013290660456,123.81972375517944 79.87939470214769,125.04582281142939 80.69408000004478,125.92033213318791 81.54983452439774,126.64530440972885 82.09888056886848,127.07565821980825 83.03269575105514,127.80018166353693 83.60649983992334,128.06052888033446 84.35215388436336,128.4018725437345 85.09693411551416,128.81753673544154 87.41457834665198,130.27413537487155 90.19592618662864,132.0676120937569 93.19572735996917,133.918482589419 93.70312163548078,134.2580370932119 94.33780138660222,134.6505489880219 94.94830563548021,135.04929051565705 95.8229927822249,135.54949650273193 96.0239698488731,135.63716594059952 96.09037966222968,135.64695643406594 96.33126087114215,135.7715626762947 96.61175495106727,135.87347272934858 97.24410453322344,136.0185498414794 97.77625685324892,136.2495159675018 98.20966826670337,136.63979921891587 98.4755987910321,136.89835593022872 98.66754645330366,137.06390326964902 99.28970154665876,137.71096076542744 100.10642574215308,138.41097337566316 101.71453354659025,139.90177477849647 102.0588160000043,140.22307453816757 102.31134805327747,140.55060400569346 102.45989632001147,140.65963204944273 102.89272519107908,141.00095622998197 103.21399722667411,141.24660251056775 103.53789070225321,141.47133301687427 103.6345927111106,141.54030966106802 100.87334257771727,144.05059983226238 98.97425493330229,145.74561918748077 97.88024063990451,146.76823155314196 97.59712511987891,147.055256365682 98.49948302214034,147.6221848988207 100.34119025769178,148.74802766897483 97.92218367988244,151.80824400071288 97.21381233772263,152.6973319076933 95.93076309328899,154.26501922798343 95.40123221336398,154.94673502084333 93.97458631102927,153.98067370266654 92.94057386659551,153.31764437258244 92.45123839995358,153.02484286675462 91.93539726221934,152.74672557518352 91.43528476450592,152.48907740379218 90.9622604799224,152.28349263669224 90.33806648885366,153.23754673474468 89.66668657772243,154.43455840449315 89.38619249779731,155.04908120480832 88.99385031114798,155.6600424378994 88.40752156439703,156.6011775181396 90.79769230214879,158.53683280106634 92.81154076440725,160.16366006812314 94.52246727107558,161.8171735277283 93.87671921774745,162.64214574109064 93.29097301326692,163.37500682042446 92.78270492446609,164.02821670938283 92.09326620434877,164.8754288359778 91.69276842661202,165.3826866412419 91.39567189326044,165.85523628490046 91.0059511467116,166.63881213695277 90.79710975999478,167.2466265837429 90.6826402132865,167.53540460352087 90.47612899553496,168.11963386408752 90.31826005328912,168.48227348801447 89.92184007109609,169.34192724741297 89.61833557323553,169.91369303385727 89.32881208881736,170.387122883345 88.84326314670034,171.1795816657832 88.57179847103544,171.8612452262896 88.31373226665892,172.57939241855638 88.20421432878356,172.91844251164002 87.73701546655502,173.96317626943346 88.65830599109177,174.5865435883752 88.32596565329004,175.58366067241877 88.09964799997397,176.2991261127172 87.89168042666279,176.6119190439349 87.47225002665073,177.65307582105743 87.17194951104466,178.57365009491332 87.18593052437063,178.7316022790037 86.92932067555375,179.42659054661635 86.58620330668055,180.1602857739199 86.36075946665369,180.5865308806533 86.2867766043637,180.72623943182407 85.5309280710062,182.02098644780926 85.18955832882784,182.67592087795492 85.05149582214653,183.01540039211977 84.9830471110763,183.29080999444705 84.79401216004044,183.7054809932597 84.60235576878767,184.45651403820375 84.47477902215905,185.2289008081425 84.4540987733053,185.5697111618938 84.56856832001358,186.01062821497908 85.12693503999617,186.6468641863903 85.4412165688118,187.18254675733624 85.83035477332305,187.65949891600758 86.24075576884206,188.25835716363508 86.68407039996237,189.1063661382068 87.22466958221048,189.81066492479295 87.74691868433729,190.30763245758135 88.3431506488705,190.74008673243225 88.89918720000423,190.9669914144324 89.248129991116,191.09868500521407 90.34301809768658,191.66728007997153 91.55208447994664,192.4205105806468 92.1797737244051,192.64607881288975 93.3649558754405,193.03359293029644 93.89303039992228,193.35926442954224 94.54373006219976,193.70406638120767 94.80441770667676,193.93986611545552 95.14025329775177,194.30824708309956 95.3499684977578,194.48620868311264 95.85241116443649,194.7936370089883 96.1996063288534,195.0512358121341 96.93098808883224,195.51838313392363 98.8813394488534,196.62129179376643 96.22756835550535,201.498226444819 100.20341902214568,204.0314138099202 98.96522552892566,206.65443774755113 98.78114218672272,207.0063369940035 97.69062314659823,206.3474708168069 96.55757852445822,205.7869214070961 94.31712113774847,204.5239004973555 93.23621404438745,204.58573930815328 92.36735231999774,204.54658955946798 91.78044103109278,204.31791929737665 91.13585806218907,203.95800784102175 89.91659719101153,203.36319615051616 88.00236344884615,202.9396643366199 86.90048483549617,202.53437210258562 84.38856277335435,201.20504394418094 84.15671096881852,200.79841385263717 83.0123067733366,198.999266911007 81.88333994662389,196.8891211411683 81.28128255996853,195.89165537862573 81.39400447998196,195.6745435895864 80.89010545774363,195.42450884671416 79.75968227547128,194.85592344839824 79.02538780437317,196.08874642848969 76.69725781329907,199.8285491229617 76.59531292435713,199.97936781705357 64.61562339554075,192.4525439530844 64.48892046220135,192.6465237204684 64.02521685336251,192.31462245516013 63.654428728856146,191.92666216677753 63.63899135997053,192.3915915597463 63.74880056886468,192.97397541807732 64.06075192883145,193.5051935792435 64.74611285328865,194.33627604460344 65.44953258661553,195.1726942108362 66.60791779553983,196.20308585080784 67.65445489773992,197.39630539383506 67.42435071989894,197.82607640128117 67.19279018661473,198.1717611696804 69.8919995733304,200.4207009851234 68.77206215111073,201.45329258148558 67.73309809772763,202.46319007477723 66.07984327105805,201.27978549874388 64.81863935990259,200.34373467956902 64.38522794668097,200.74013311078306 63.70714879990555,201.03198155690916 62.754692266578786,201.1845789902727 61.69300906662829,200.62357158085797 60.48306887107901,199.87882203247864 58.793113884399645,198.8987206800375 58.54815487994347,198.77281537925592 57.99590485333465,198.63044887501746 55.799138133297674,198.2264834193047 53.65247004444245,197.777582613111 52.62806954665575,197.54668085183948 52.01086606224999,197.49462782026967 51.620271502179094,197.90393337834394 51.004815644351766,198.1659775164444 50.3689708088059,197.8990395120345 49.977502435445786,198.020941240713 49.405737244407646,198.43336009420455 48.87795399106108,199.021956540877 48.44104732433334,199.26175464334665 47.28848753776401,199.96602103416808 46.252436195500195,200.33617151516955 44.66413482662756,200.87760445440654 44.20800426660571,199.5972046131501 43.97032703994773,199.09536415094044 45.671059057698585,197.85810898942873 45.990583466598764,197.5773787877988 46.13418012438342,197.2223502243869 45.61222229327541,195.3390876596095 45.47619868442416,194.71755854855292 45.04744760890026,193.0104577782331 42.13298887107521,192.52506393182557 40.630321208853275,192.1771457795985 39.502228195546195,191.8972981722909 38.24830606218893,191.4915407570079 37.85858531552367,191.38253781560343 37.155748124350794,191.13783713866724 35.30850673769601,190.97010579076596 34.2089582933113,191.07199036481325 32.319191324408166,191.30779291025829 30.398840888869017,191.58808617456816 29.012390399933793,191.77539306227118 27.905851448886096,192.06992281140992 26.72853361768648,192.49881437176373 25.169650631025434,192.9868777168449 24.50176597328391,193.29875719273696 23.334351359982975,193.96033174096374 21.487692515482195,194.15075094759231 21.505751324351877,194.31403083738405 21.81682887102943,196.54209966538474 20.976511715445668,196.7703330819495 19.08936618664302,197.4416849806439 18.38215992890764,197.75978672486963 17.606213688850403,197.8763497667387 15.767127893283032,198.00536985578947 13.860467199934646,198.38264195952797 12.842765937675722,198.54057997197378 10.609590328880586,198.82486810954288 8.1515534222126,199.0473155361833 7.546874595456757,199.70175456587458 6.057022862136364,201.19881548016565 5,201.95067879650742" stroke="red" stroke-width="3.692016415878106px" fill="none" stroke-linejoin="round" vector-effect="non-scaling-stroke"></polygon></svg>