<svg viewBox="0 0 23476.761023199957 32140.39019590705" width="1000" xmlns="http://www.w3.org/2000/svg">
  <title>عمان</title>
  <desc>Geojson of عمان</desc>
  <metadata>
    <collboard>
      <support-module name="@collboard/map-svg-geojson" version="0.11.0"></support-module>
    </collboard>
  </metadata>
  <polygon points="8.052549999993062,24379.42648428146 2220.3434376798978,29292.31868423961 2286.302363333263,29438.79576882624 2194.204185626557,29572.7427760594 2196.6313477954536,29577.82724989354 2172.819934462168,29583.403460732283 2171.743687706621,29583.022115328902 2175.819153093238,29596.130181044602 2180.449489946681,29607.4871860673 2373.9991432799434,29634.679244711733 3237.0194255910756,31566.821804188512 3237.9028508710617,31568.71340969755 3455.6449001510337,32095.60905001944 3470.8166297865973,32132.337645907042 3650.9145093954576,32046.653361929377 3715.092603475525,32017.629228702775 3783.464710284461,32008.542944076267 3857.313296524313,31988.919613637525 3925.75443458659,31959.082351931575 3999.634186835465,31942.7468787322 4081.222429039859,31917.010909141944 4166.888175528817,31906.922514124395 4395.6597879732435,31858.867856048135 4408.8907781955495,31853.31738786798 4527.57094004433,31872.061629845848 4610.892536631058,31878.976239789772 4748.485222995485,31865.926957017247 4858.351229751104,31832.08801773502 5045.573600737698,31759.061393426993 5165.353311031096,31710.319833497953 5278.46611686211,31631.756117211567 5354.3343769866915,31554.12125611023 5406.8004596888495,31476.6749020009 5421.500912666641,31461.299273009325 5457.5509555466415,31457.771389684087 5556.588376204454,31436.55316145069 5657.52663213326,31426.089113190275 5703.547176417749,31425.445043964515 5823.121831848839,31407.396826921817 5936.778440844355,31365.855514702766 5963.574509253231,31350.429810622678 6023.162461893255,31325.163140997436 6097.285425519891,31276.50719203803 6165.159167457692,31242.261348318512 6324.860787511076,31118.037448175863 6351.436946231028,31090.167345156515 6736.795908008789,31030.65525997893 6825.881468613254,31020.42883564686 6951.057850053272,31015.684377741272 6984.378682622191,31023.513883915177 7130.090551208908,31035.039001038385 7225.534268897813,31026.806450259435 7266.011341395526,31016.83861960433 7403.337805964373,31022.537978243985 7414.84214103999,31023.382120009308 7487.147281662066,31086.20574353545 7574.539100755443,31146.18336875041 7699.849758177734,31207.33752909486 7738.876883084391,31226.40982290011 7797.050714479963,31250.39926946655 7838.12256258665,31263.264026911143 7942.214993377653,31282.23653588872 7977.173934675491,31282.655679758085 8038.3420330933,31300.203179036587 8143.562556897727,31311.18442945162 8249.083381217759,31303.63408175172 8351.7075143377,31277.778322856553 8429.554961662128,31243.96602306675 8550.023819404392,31220.22484206062 8641.118859404436,31197.55990561357 8712.180854924343,31167.580470301007 8779.497686497722,31148.54152754796 8836.665758746647,31120.754132398957 8862.627917964448,31111.207497277966 8955.469710817764,31095.996813793114 9019.175071884383,31075.919448778994 9094.04368955546,31041.380242899904 9147.781170657807,31008.89460132501 9238.450954835484,30934.199343048414 9320.677080773254,30882.35189597946 9424.491056382161,30790.520344203775 9514.75655625781,30688.493218322255 9555.45499479989,30632.911579786713 9581.021316577768,30621.952100778377 9652.846151137695,30578.45926099966 9747.400035582104,30499.067613790074 9787.578846462158,30454.008570836304 9846.690279564442,30367.206320041645 9881.512905982177,30290.52018743285 9930.620924044371,30241.40527199526 9989.91119760889,30163.824748965184 10043.763439528848,30074.12848852304 10080.7671040266,29993.389338731096 10108.687187653239,29900.309369971248 10119.21256052432,29808.99345687669 10121.671179973258,29787.659701624623 10365.95123145773,29731.678690537257 10477.357771120005,29706.147834149044 10577.755136595544,29698.553959690238 10644.390393768874,29683.611140666966 10801.702425626543,29671.318628029694 11089.517313733319,29648.828124377964 11161.969546266686,29666.738301965903 11267.758922551031,29675.423686092632 11309.781770835485,29673.72072204211 11451.562061964389,29646.01015158373 11504.394563724374,29624.897478963452 11589.970307440002,29647.256247596786 11735.71101186666,29652.930906433583 11823.701684364321,29649.64166726076 11882.235526853328,29643.222363982495 12026.295305697684,29601.47374947599 12385.612591244484,29591.196578631963 12469.283713164477,29616.96755285366 12572.386695991008,29629.80699124586 12678.419574924366,29624.540261003858 12736.279416062142,29613.086591859726 12785.886090266606,29608.005488082796 12901.804419439955,29571.815325965028 12944.264756933291,29567.04778116566 13042.51807575996,29538.72815077097 13134.696061751078,29494.290939493774 13218.209314728825,29434.980098261294 13290.709315724409,29362.456658331765 13350.155128062208,29278.752657583478 13394.869612684328,29186.216253043123 13423.588361697708,29087.445807733486 13435.494650906621,28985.2162349523 13430.244197857653,28882.4045613778 13303.578255955566,27947.489863510447 13294.78856763555,27882.61297046565 13316.797012791008,27861.86555547701 13336.234116577747,27843.54209962531 13416.739121519931,27742.916728753044 13442.176410195505,27700.096266377688 13512.98645620441,27652.248274597485 13551.965230106696,27620.125195182656 13571.622826124396,27597.804405387462 13617.874348399899,27566.082886683726 13675.938370586577,27519.757530876872 13771.322377697652,27407.372640594345 13826.036782106588,27307.20193034204 13860.151037182164,27204.11373917517 13878.622285964404,27039.052914893866 13873.354647919972,26970.166175055812 13931.317599031114,26863.085120951844 13986.562408133264,26728.229710103915 14026.226834231027,26555.567072650854 14044.366325217736,26406.087296662008 14043.814366462146,26383.05149858605 14085.066511386627,26282.477715096175 14100.921563048818,26226.771466569422 14108.085958568816,26186.78832909625 14115.250062817795,26146.80185874141 14119.004256168817,26065.619239786203 14110.920609022229,25951.648649579234 14229.202603262122,25803.282935231546 14238.99309911995,25791.595313013793 14301.182394053292,25725.45906206357 14358.268910390994,25651.61945507911 14433.430546799995,25595.03470681244 14494.253197679966,25564.003090978455 14712.020296275587,25478.73657020621 14768.92331181324,25449.62309767565 14887.587453751097,25402.64789158429 15116.993163404375,25346.654805920756 15512.857400346635,25237.975729079073 15755.456234977668,25203.208428317594 15820.374740222207,25197.124488251313 15983.935702497809,25188.161919094302 16442.278466586577,25189.31838831844 16558.112618408835,25189.610580933135 16738.393416275474,25170.4307090308 16777.254807919933,25161.75312063718 16892.388452719984,25120.74700058598 16925.40519824889,25100.866586706514 16953.81753005329,25089.618205339386 17034.37962413332,25080.292000142013 17133.67860624878,25049.734243942046 17228.225791457662,25005.692317166337 17419.215754266566,24860.7420520132 17464.9639600621,24820.877381538827 17561.81946882661,24701.02260523991 17591.279794088885,24647.813051275647 17610.361838391138,24604.9398728699 17630.19914868436,24547.383492458757 17655.96149591994,24418.159775251144 17656.658798959892,24303.541225521505 17636.32137616884,24190.73554231078 17595.63342338658,24083.619616363227 17536.568011119933,23986.12680277243 17525.635732506606,23973.853875940404 17520.10070758217,23799.99224735712 17495.67937254216,23700.627258144814 17450.234088702215,23597.08600954592 17373.297446142155,23483.08197719787 17364.30678075549,23473.910068566125 17366.33810548435,23466.33349771562 17387.77391163548,23386.377094487165 17402.823016133247,23283.338535955147 17407.060136986634,23136.91462723163 17400.288666195556,23071.093414459872 17376.88182843555,22949.571817168704 17314.2859190311,22754.77586703669 17256.58132539547,22651.83523330852 17266.31997499554,22605.534412801062 17270.200580008765,22552.222905966948 17303.01634847102,22406.766397133673 17306.209553662193,22380.708584837063 17367.377360808867,22319.58877686053 17431.7109936621,22226.127947815723 17478.05805286215,22122.423860180337 17504.857907795435,22011.939328177803 17511.200918782124,21898.366464700288 17498.269063991,21789.7156066545 17467.63491615103,21687.60915719412 17460.66421592,21673.627621034655 17485.144096453296,21627.840668029065 17534.019388897665,21495.770917326823 17559.507941288844,21330.25531648335 17582.246020577702,21226.072997546435 17588.21212674663,21147.012023043033 17607.360872133257,21070.787756540085 17617.87459415986,20955.613491356868 17622.18482406225,20908.39761482147 18259.531453466596,20865.26915492714 18271.581339333294,20864.453857470915 18683.162274159928,21125.468316869898 19013.41740205334,21334.908088349242 19114.938491475506,21386.92486998075 19224.20331465776,21419.347949032643 19337.516806284402,21431.085821111075 19451.04816870214,21421.7445690546 19560.95990502226,21391.639701783046 19663.535687137715,21341.786125526152 19785.191765928845,21254.71998295051 19830.33966196442,21211.1435715752 19894.55096095099,21172.290446973144 19984.215859795542,21109.893324422097 20061.624944097683,21032.637339390727 20163.00476703103,20911.88619133967 20202.77288564443,20878.887956381106 20274.52169844447,20794.560889742832 20331.37257645323,20695.731904244545 20439.15395586667,20549.624992450845 20655.137601448892,20256.84058270228 20720.151643617748,20213.11889620949 20797.85753318222,20138.4143617058 20861.589691191068,20051.32670685716 20909.42951483556,19954.462869571435 20939.932008133357,19850.724645409355 20952.170055137685,19743.223040258716 20947.86069904882,19670.55054914087 20945.76383832001,19635.187402091193 20920.89336322664,19529.86584264043 20755.65467935099,19028.572329756018 20752.45827017768,19008.08359770241 20536.694534284383,18371.29438160095 20514.524433662154,18304.4025557517 20538.919845573226,18275.006280130445 20603.58931401765,18197.0709624686 20649.48432045334,18160.173263344535 20729.488339084404,18087.55334103931 20909.03950281776,17871.263271115167 20973.428768453276,17814.674670822365 21204.443459724396,17637.902445299987 21277.97922079111,17573.966094734118 21584.22283209776,17442.374125301925 21693.17483010664,17384.62535737778 21768.85929815992,17333.543583261053 21806.334530586697,17304.33131203268 21891.599488026666,17214.814368986437 21937.362548648816,17149.504376871715 21969.21916134222,17093.466008980846 21989.74736671112,17050.259038576827 22011.085014497716,16992.519433379843 22032.22052013324,16916.5807477239 22112.931162479887,16767.458303433814 22176.312338800024,16643.889462970168 22205.0430299289,16602.96539411109 22273.886995937763,16487.120752356917 22326.02627245334,16374.393210116628 22341.37451238217,16310.570173608226 22369.63946100438,16258.442620414222 22419.869164115487,16120.080379709456 22427.44250427556,16082.235758435068 22531.1708461777,15983.352347138658 22599.81762164444,15894.068466087832 22651.51795259546,15793.870162335312 22667.7102962044,15746.348286743829 22736.434549786587,15679.74046067972 22793.35096379553,15607.94397158429 22847.512826906604,15516.014752243966 22888.506031813304,15422.958047047112 22914.737325537688,15325.091434105445 22923.372348897712,15240.426926010725 22972.39211181327,15083.455832776468 23054.24744962665,14962.001348831662 23134.75594982211,14867.402260805451 23171.773304062168,14807.246075741685 23211.26588020436,14771.854151061067 23277.89938975111,14687.641799884295 23332.13290555551,14587.292917217914 23367.263405537786,14479.77383531499 23382.583974711102,14363.963923345582 23400.0780089155,14310.558546199027 23415.197892293305,14243.862045172922 23425.81355920885,14140.2583829996 23422.99725883556,13974.75798523202 23425.756178799988,13945.620586892328 23451.541245182132,13870.339308675466 23468.70847319995,13762.713321421441 23467.229107226565,13653.694733858312 23445.661646533263,13535.26980312771 23411.190584346623,13388.630483007844 23372.418904204358,13284.753238482372 23328.210940044344,13196.460692970286 23303.107739333267,13120.016717088496 23225.145531191112,12983.14332850065 23166.425275191054,12913.693826962815 23098.376188044407,12853.446981242538 22971.65606971548,12777.518117856205 22839.958128097787,12734.301554334437 22704.473370764375,12719.614940414001 22596.06867117327,12727.23148883527 22533.678107902146,12702.754910258547 22415.768940684356,12670.128894255642 22243.411299582192,12647.027862273419 22198.672639457713,12641.053408587206 22156.366384382214,12621.915583957307 22102.8881345689,12569.5089436509 22078.992835155426,12541.119233709964 22052.203465982195,12519.44135075793 22035.50023284435,12488.490418813279 21975.37925407113,12410.244809907133 21912.73208095107,12350.766486973822 21858.89469385773,12275.73630041079 21806.97008415099,12220.88287044465 21729.414199208928,12159.469538095611 21716.69438978666,12131.900274520362 21662.056007137726,12053.788899496343 21586.98233460434,11846.03164485775 21547.177807102184,11762.914425659255 21478.900654675526,11656.488171157398 21428.38084553773,11591.387938987027 21363.53341044436,11523.138281016523 21291.79595721778,11466.95308854073 21176.322981573263,11405.462492081773 21151.530858408863,11387.633149669302 21135.45589705775,11346.725472809252 21074.96005236436,11247.75166491585 21004.851969733223,11169.645887953957 20987.682411546557,11088.044103602733 20951.283425875445,10993.24432301728 20922.520694924373,10939.165943660628 20873.918032239977,10857.617302447528 20815.94168265778,10788.279999089224 20780.962643653358,10756.729877332778 20758.766037360037,10668.106953462906 20713.608820648835,10566.792522721778 20651.690699119907,10474.985430776462 20574.775319351087,10395.309792979475 20527.0948210044,10356.783772944153 20419.32946150223,10294.146376339864 20372.098394479923,10248.759459614026 20327.874701679888,10113.932662928099 20313.62601019544,10077.488624774764 20237.525024453265,9925.267198125803 20199.6688094133,9873.0300789389 20130.87931110218,9790.31698486561 20049.194075617677,9720.435207267554 19929.167658693244,9640.184577452106 19677.538254533283,9459.920732390281 19610.105788328772,9401.874494721327 19570.868656950974,9371.673519369477 19464.283819262142,9315.011614313786 19355.52551654211,9239.523880011839 19272.01080720892,9179.341214478336 19179.921076364437,9133.49214663144 19147.573671848833,9123.511653385678 18126.47298448879,8572.719939973176 18013.538436577743,8526.580809403415 17893.91076980435,8502.966826232005 17771.99545972442,8502.752135807736 17716.082474693278,8508.073426479328 17527.104030177783,8549.605890532868 17260.72116169773,8596.208706456731 17174.17723280887,8617.762226729159 16814.91383241766,8734.85130989665 16665.855258764437,8753.157488156838 16575.1484831555,8785.516098396824 16530.240303244413,8763.254724569124 16437.45530825769,8699.352168329322 16347.975949111133,8658.146431754954 16316.827416488872,8647.027746604203 16223.503569946595,8625.172801292356 16149.995479635516,8616.879786341247 15955.81347671998,8555.384285984648 15860.513064417726,8530.890614654956 15462.990329768829,8390.064625670406 15379.548146942136,8349.948825703672 15264.281099973334,8250.391568336432 15196.765621502156,8187.9942435462435 15039.22465055107,8058.038955918193 14974.837132542132,8017.618676591112 14889.507804186636,7943.134535181656 14862.407940008765,7915.389305358374 14827.310936204478,7853.975816351274 14768.65971145776,7782.882344425161 14714.847664951085,7693.584524049744 14655.378259653313,7623.822902262997 14585.714365466585,7526.440789325774 14410.50022857773,7244.84472527742 14361.152785662183,7151.811799003015 14209.008485857717,6964.394765087258 14102.53229229324,6875.225930826418 14077.580552559899,6809.833577805286 14028.467582888872,6704.049954784772 13962.254960097693,6610.0862004456285 13880.90701655994,6529.909923935222 13804.288442053337,6477.550782421924 13705.716181359923,6283.805870140175 13671.68348219557,6211.132257050398 13665.13046473774,6176.02767535657 13637.958074053255,6088.969924863748 13621.392612151074,6054.032043299376 13570.744352453243,5909.636417697446 13513.690749751026,5793.55048386383 13476.626500862156,5728.942739142018 13395.00534502216,5517.042703020881 13389.2000205066,5491.0611743653135 12681.934634693287,5595.591721274221 12659.094027973333,5609.782885538269 12601.584294711094,5608.217788922455 12600.519990071043,5608.0555274734215 12615.76424621322,5642.847035392042 12646.650634835445,5697.584169468115 12646.077413288847,5708.608232085564 12646.324411191017,5709.425114533195 12658.631489448802,5713.375550960802 12675.012285466626,5729.979609115311 12644.602416382142,5793.801309187926 12612.558807635418,5838.3866008760815 12606.867370124412,5845.443857134407 12578.292217768816,5853.100181386835 12556.974667688919,5880.475557226775 12547.966817306675,5889.79216218504 12481.434670106595,5889.749137286068 12475.458369448868,5889.673362079513 12465.853122017783,5897.003261952283 12465.313396648824,5897.915115268406 12475.082920986548,5912.583785786614 12475.049133537657,5919.965915656503 12414.331340257748,5969.4970873109705 12257.922248844377,5999.381987040833 12246.611900328862,6142.851358804473 12244.507757822139,6209.205076069717 12182.722164648905,6228.882287732937 12178.762625164323,6230.347733504226 12177.102962373261,6236.811285920936 12173.105557644361,6250.461458314472 12119.83789684446,6281.288191636064 12110.461588506674,6287.675218130316 12100.897119031026,6308.950668246631 12095.563653715508,6336.479088079679 12036.819222213322,6364.274994091858 12007.130249128764,6372.2942996725615 11943.052643582196,6364.274994091858 11917.56379991988,6366.238626053877 11880.430228506651,6355.4544055403385 11855.263530693337,6349.31316721972 11835.363597111049,6332.649662904703 11816.996914657735,6315.098943113844 11813.508069288771,6288.015223701455 11806.719122231094,6283.200268711982 11812.141425235517,6261.370416994352 11810.685943493241,6257.987122370541 11773.63043273773,6219.224582893803 11761.408114373306,6193.376943208423 11769.514480666694,6152.098279351572 11764.211016275425,6126.426298204198 11647.922481519956,5969.374779881124 11595.809128133318,5913.167156591226 11601.121621928847,5858.1669599689485 11824.923566675483,5930.207819472445 11840.025391244417,5934.234069632512 11808.121883902204,5914.544832945307 11781.37183632885,5883.544833773136 11779.20186655104,5816.20890828679 11830.518302177748,5681.714415271388 11781.449314444413,5687.320830978308 11791.375251368823,5622.422315751115 11745.918899226555,5602.957270954066 11679.576952062169,5536.585895297729 11545.70030253331,5501.1306659085385 11399.95115124443,5630.7255376671965 11226.707463422179,5629.980783403589 11113.80757677331,5806.131378027523 11119.974368737749,6122.443069879402 11120.771577768814,6163.344270430709 11135.288821217691,6162.262648938835 11136.612939688814,6181.857478205551 11141.418039208831,6194.656756238517 11167.286991671048,6223.6158776754455 11168.489067546645,6225.175661111221 11167.69273232887,6318.735775133391 11167.029799279844,6333.650961715524 11155.906446817651,6385.709583865799 11155.679837893316,6401.145597749535 11159.052174817742,6451.929576561059 11159.41218591106,6467.683003882848 11171.59722157332,6506.5489957018 11176.283191208815,6519.739214524656 11182.611929911043,6571.95083294544 11182.905531191122,6574.1660216123855 11176.326008062199,6580.6849067262665 11058.010808915453,6683.7145683225535 11080.114499724441,6708.179903238517 11123.384862177743,6753.684059212188 11012.236971262231,6861.11854864136 10981.908658088854,6890.510476981435 10978.472241519921,6947.847480074124 10973.891420755506,7027.968695747637 11032.239432275499,7164.713884660829 11033.096351884393,7166.683199907857 11069.061634871032,7218.892946637323 11135.43707821329,7313.961849173618 11157.126290230983,7412.285989649332 11175.974443830986,7412.306460821448 11175.35927924441,7605.763900563557 11175.222673093289,7673.934515464323 11106.425893004372,7722.723431434453 11098.399626266648,7728.358554976905 11050.624173537683,7827.81226208873 11051.673623351118,7828.349078750674 10977.131229324354,7884.007043010759 10958.113264666608,7886.742185248731 10940.374853999907,7954.799795360159 10939.110154835595,7970.907896695688 10944.991209839907,7972.233173912711 10976.426644506602,7979.317855683825 11005.887261039898,7971.114881708374 11008.938908471115,7971.158642415161 11058.96035273766,8010.339195122448 11076.813524222205,8017.301527449366 11100.126572684472,8043.4969579108 11103.995526853338,8047.421927425574 11109.06801325336,8045.588789336936 11116.067258053314,8047.148554046376 11173.626507404464,8079.092395707179 11173.998751884414,8079.154666313756 11224.013496915548,8052.039227153204 11232.960471635422,8047.189112958877 11275.113518106606,8036.161091577815 11283.357364364405,8033.801578031125 11518.3353816444,8010.439164313691 11526.213682657777,8009.9610366814595 11514.944403368834,8037.384916171519 11516.296192595473,8038.783750838687 11548.77932944891,8029.301601566694 11549.169924008864,8030.076725262421 11538.13540923546,8043.226775540941 11537.88549862217,8063.942153048207 11542.04485008886,8092.539112992497 11570.563495848764,8138.442181728518 11544.551238000015,8176.826686667657 11583.235536808817,8250.526590872993 11586.113586657768,8255.489196690178 11632.423071884405,8305.570567576302 11644.663740328833,8320.639067676588 11665.388553697703,8363.679880665586 11700.401088879997,8433.28605223968 11695.888716826652,8440.311040710978 11709.572924897744,8508.229736951034 11567.204266124376,8523.554891340173 11541.758821857715,8525.472010483238 11410.62128585772,8561.78903618126 11374.374634977634,8570.514071298734 11330.682220684452,8593.129721818637 11299.030662853242,8606.799994519999 11245.668338942196,8642.916559762118 11237.018460755557,8648.351149668248 11212.939369271015,8649.52562644778 11198.7687384444,8653.578390561132 11175.558508684364,8670.458045856998 11172.790850586578,8673.555900853913 11154.398245004442,8663.417553212814 11134.680938408797,8652.345568767487 11079.633028577751,8638.94947410727 11023.207988933282,8541.783428415161 10955.419006888842,8555.127838721586 10936.339292755554,8547.054771251016 10911.04385311107,8536.351571308769 10877.786517644388,8534.762095938931 10876.09306740432,8535.026849439106 10804.658536133327,8570.79793881267 10721.12402036434,8607.332278534042 10632.002342142136,8639.95751293507 10590.205228968844,8655.641907828482 10462.248956044292,8724.475990400038 10450.424222746602,8730.954298982368 10428.218587048788,8753.893620536168 10424.890523333306,8755.886176655156 10264.877534462226,8832.794322546542 10211.966680773272,8853.958040921629 10175.46167241779,8879.419802864926 10159.649146337732,8897.488483717752 10157.48645833772,8904.738488407427 10159.1866078132,8911.707283160446 10193.93029975993,8950.91988925272 10199.70533207999,8963.213490651251 10201.842970764352,9013.701035139238 10204.19294608882,9020.813586533855 10219.586624311021,9043.326085689274 10243.036570195545,9060.19483907448 10274.136460542184,9112.001010529493 10300.77407746666,9200.244779756205 10294.424075973307,9333.982234343042 10306.661540435482,9448.288647429115 10294.578449662164,9486.33359442788 10295.367794373276,9493.338720941305 10385.692713555502,9576.832289551123 10404.18347750217,9609.644960143283 10411.917890586628,9666.388733077882 10405.89294765328,9707.432531211613 10409.967830497742,9796.232263935002 10413.15521026656,9899.338783687417 10409.267906017805,9913.5947313887 10394.055398426572,9945.519976530893 10311.933547546592,10046.43540147887 10303.680380613281,10059.332469141838 10272.71156226666,10133.12294351912 10268.939601377671,10139.054329475359 10231.599227475439,10175.63247256793 10197.07107615107,10205.019949990237 10064.442814604467,10421.776138650748 10048.83650847114,10447.554355515953 10018.489845217759,10590.660595163557 10007.48649645326,10617.876020893425 10000.664635759866,10630.101075746556 9959.348993733263,10685.454202721798 9915.745999671024,10652.5323758437 9633.617888737674,11207.447880186694 9610.767961342091,11250.454250579438 9581.705221146549,11300.838724420435 9563.773989004403,11333.707500601624 9447.027284791082,11497.282518199616 9434.945941644459,11518.638545006135 9422.72420582219,11547.088565931917 9418.352226444375,11569.709081514593 9416.71790423998,11596.891629896505 9419.706928382133,11626.171360671899 9410.558394053223,11649.280949005188 9402.691161342169,11667.148076204903 9416.227112417779,11720.477787939977 9415.714766533201,11744.03079552218 9381.877219013259,11790.711957467167 9376.156945662195,11813.455944068177 9385.011587440007,11892.340288197534 9387.578851013299,11913.546476834541 9378.281768417655,11940.443240415218 9386.142884435452,11965.404319569556 9378.97878018659,12020.73713526249 9382.366263208882,12048.091821374226 9370.124138408777,12071.737157307827 9367.391141573287,12100.440343539201 9374.383395866578,12153.93546174359 9372.608389715519,12182.847850416874 9375.738097804337,12196.501105817006 9379.217913768807,12211.85725753996 9395.64123536888,12235.748078831093 9402.253672133287,12260.506684565713 9399.639805182203,12316.982412990154 9394.757810088777,12341.010892090533 9380.212604613247,12367.029639300104 9380.199206142075,12367.995256465016 9383.046963795525,12397.787984041817 9390.993130977702,12425.832874708314 9404.046737093333,12448.806723799411 9404.378494888864,12449.783533949376 9395.844251333241,12474.608493802341 9395.678226799908,12475.552381564485 9408.708239955566,12554.560489744268 9408.727755119995,12555.283044505195 9407.43130740439,12560.212307921698 9387.583220079978,12637.600228850992 9366.128481306572,12826.67391079347 9361.847087244358,12827.506519311835 10071.4464284711,14016.188758393662 10148.957457662065,14146.03099326734 10244.513605999964,14316.5337727406 10281.988547155488,14379.323981852649 10614.651030782232,14926.196905080666 10688.046981715452,15049.102773830498 9903.129882764391,17560.224910182907 9875.760301537783,17668.518474803335 9864.814333182148,17683.16593738136 9787.685451688914,17930.78427965226 9756.254968631052,18031.668348846695 9723.112685253349,18157.839447333565 9390.015042586572,19225.601873176027 9301.890385377774,19494.29902230602 8748.278666266677,21282.72303137384 8746.185883333295,21289.43163358685 8.052549999993062,24379.42648428146" stroke="#009edd" stroke-width="5.061126513035984px" fill="none" stroke-linejoin="round" vector-effect="non-scaling-stroke"></polygon>
  <polygon points="11333.747557857743,1800.0923049686535 11908.566726568824,2127.423653672711 11910.62746968001,2128.596964729979 11922.821243475511,2127.529670045915 11935.328716257674,2128.2166683956457 11969.72812575099,2112.6027923383226 11972.290728986583,2112.477642709244 11977.728178088873,2115.415081680374 11998.103174853342,2127.977726684796 12009.10302836445,2126.227644282364 12017.103080702102,2126.102823351015 12025.853156150988,2112.7901924829057 12032.665696168871,2108.1651428717596 12045.66570839993,2111.165190230444 12053.415558853274,2106.2901417710527 12075.316233697667,2073.0518361684226 12076.4682109422,2069.9652351101104 12106.21485570664,2067.0994305149943 12111.996878533362,2072.213310408144 12130.522303742211,2109.459124919871 12134.484173395525,2119.6869722656265 12132.364884791052,2136.2725148463214 12138.83663760891,2159.7365289149748 12179.010496879899,2234.647835576179 12189.883064915513,2243.6316245818452 12185.96663355545,2306.027745430736 12182.866926391114,2306.6324352069933 12208.505483404355,2346.687915862567 12228.370464453212,2359.167756174138 12202.77355920893,2392.811325132585 12201.550803084363,2394.1697839607077 12198.617120453244,2413.900099338818 12198.007198746636,2418.4109641207324 12184.216094177653,2442.714095337753 12184.459305555414,2445.17700867416 12170.48790416887,2452.1898915329075 12156.14862736882,2464.3961270829604 12142.222955546662,2461.2777143215935 12137.861753200035,2463.3229709824955 12137.779323475523,2473.2919015636144 12134.172222035442,2479.264842773293 12156.053381715523,2518.095426227461 12160.64701840884,2521.345515233261 12162.286874764453,2554.075785742287 12161.995312382205,2554.863378863054 12173.958690728847,2554.1071988213516 12174.67725656004,2553.7399570959096 12182.41953396445,2590.2007385790057 12184.24784272883,2590.9196084363793 12178.17746150223,2625.0446175565885 12179.521095137665,2630.1694683559763 12129.466445964383,2683.541151641548 12128.46622096884,2684.9474602970004 12123.80937844442,2695.1799482057977 12138.35545773324,2728.298337229382 12133.155685857724,2749.9622230246023 12114.432487564365,2771.425506518077 12104.849376737693,2779.1376494971046 12098.751324755576,2794.53622519059 12098.415197893366,2806.934771108179 12078.555168453226,2839.506631448021 12066.676549999946,2852.502693658782 12066.389356684376,2870.943847900053 12079.620638177701,2902.8343688890163 12082.049839244311,2920.810445221985 12103.895172577788,2963.945060989441 12109.807102319872,2979.8469968731224 12114.682398177654,3057.78790918694 12147.363890657754,3181.4378262397076 12113.766059262183,3364.4362905227754 12114.85949101331,3374.999686471332 12120.97443671999,3387.0534575288475 12127.464248346601,3391.4013312636816 12156.484171688877,3397.729653807095 12175.90321666663,3402.2179690986814 12205.030327777698,3419.2692131822405 12215.548127599963,3430.9367797826126 12230.111683155497,3459.656682299188 12234.967172577715,3475.8104857257276 12233.58421734217,3509.4156602734874 12234.643861644407,3521.808612569439 12240.72531117333,3535.307510297833 12246.898802373296,3547.4702947640035 12325.861818053265,3555.118433645839 12396.661669573252,3579.104531452089 12434.723230746662,3565.3826839933463 12436.821839102166,3560.576821401104 12420.282591599942,3551.9113243373286 12415.03155600882,3530.778104360419 12413.714136773226,3529.6924215702747 12426.292097164405,3521.07823925672 12428.606537413289,3519.333865734603 12426.245493786613,3509.444733977347 12426.515502106602,3508.02108904082 12658.759648737701,3409.9998536673666 12877.52901122658,3319.1239596402447 13013.681944488868,3292.8109707085823 13258.617938515585,3286.6111850180605 13566.556165146612,2843.7969566603715 13621.539412790997,2747.497713584191 13661.935220648855,2627.1148997770215 13680.288795902132,2437.0752175413945 13686.51442463111,2239.605832093599 13783.986845608888,2104.335371130641 13841.022680773254,2009.013424208475 13881.101003119926,1905.2952094342036 13903.03808685331,1796.200688023906 13906.177989431046,1684.911676774238 13871.959750568814,1084.8256446266023 13873.365424951044,714.4604938619595 13863.632309502194,599.3170470611367 13833.852168559999,487.66854546483955 13784.941632311064,383.02020014231675 13688.495359457651,253.32652765329112 13597.100310213253,164.66714806386153 13490.269057164405,95.57025237524067 13335.036118497694,26.590595574612962 13249.964856346574,8.052549999993062 12527.31016137774,331.6178289061936 12236.552561235469,599.1129419008212 11765.051333431125,1045.864018223394 11677.481547688803,1153.808866116422 11643.546133075462,1206.2207215047965 11612.813244328805,1258.9440563870885 11333.747557857743,1800.0923049686535" stroke="#009edd" stroke-width="5.590668386710931px" fill="none" stroke-linejoin="round" vector-effect="non-scaling-stroke"></polygon>
  <polygon points="12264.758964364388,4694.939034345414 12268.44674790217,4741.037152148929 12278.69220923548,4748.977736845351 12287.508403226588,4742.05569675783 12340.003321768803,4772.252102224069 12345.740197573294,4784.247455703531 12374.425159137783,4781.900511638989 12372.599763084407,4763.125096618169 12422.407123084384,4767.558056206122 12426.05791519102,4781.378895050642 12447.701688915462,4788.419694421085 12455.524939688825,4772.252102224069 12473.257233662152,4769.383453680057 12476.386650479952,4758.17043931529 12529.768780826562,4722.457183786057 12583.310819013248,4712.762544942583 12646.938993235555,4677.558525898174 12661.542161662219,4670.2571035125 12669.393374462117,4608.827320584183 12683.111369982216,4544.242759552173 12675.376665626623,4532.9656136727135 12598.746731546562,4522.082514297072 12590.270159671054,4545.990910312539 12578.722425200016,4536.565108344861 12574.584336524335,4531.324372272327 12573.594597288844,4512.0681065221725 12559.783686284412,4504.617627720087 12560.984014533315,4483.562965036341 12552.67434100443,4466.879088246351 12552.820559102081,4458.984650996717 12514.006062106666,4471.404992652388 12506.723410515435,4472.759370214626 12494.687796933315,4458.9156891706225 12476.155089946551,4453.752862886089 12484.585349715519,4441.490191755962 12450.989265946642,4431.898472351459 12438.618399315485,4433.274901645462 12388.252672595525,4471.572558058862 12381.491105022229,4473.635217869276 12382.836195013224,4485.0391033453925 12373.562996648805,4496.134934787959 12369.734529164474,4498.917301589361 12389.870683617744,4532.11535225375 12389.203090231022,4543.713093456958 12406.477797288884,4561.453294884152 12412.232149359857,4571.294081199361 12409.895863777696,4597.240854707576 12402.750109608838,4610.61834726113 12385.900367102207,4607.9524203956535 12378.055562266585,4612.228975751525 12352.05408144879,4641.631120709033 12318.476347759919,4664.382692991261 12311.655069608794,4672.4072851139645 12264.758964364388,4694.939034345414" stroke="#009edd" stroke-width="5.839393705053043px" fill="none" stroke-linejoin="round" vector-effect="non-scaling-stroke"></polygon>
  <polygon points="12438.45528749327,4620.465626072109 12458.230265768914,4596.9383675805 12468.14659074656,4584.783603201766 12487.419417626661,4613.924316129036 12495.537143493275,4626.304941990209 12512.780975813366,4628.250824388786 12513.396140399942,4630.603199991543 12494.304775422177,4643.132751763187 12489.139082266687,4645.306917777896 12488.80994591114,4665.651050077024 12488.352067724307,4673.856944017665 12463.349064275477,4676.357198457437 12455.73756759995,4680.904187266569 12450.916739439912,4678.942463418207 12446.408445182227,4672.5902239255665 12448.60142537774,4650.926839327178 12448.88279327107,4636.8375871836615 12438.45528749327,4620.465626072109" stroke="#009edd" stroke-width="5.281596833112701px" fill="none" stroke-linejoin="round" vector-effect="non-scaling-stroke"></polygon>
</svg>