<svg viewBox="0 0 5881.269080799989 8047.176373976762" width="5881.269080799989" height="8047.176373976762" xmlns="http://www.w3.org/2000/svg">
  <title>عمان</title>
  <desc>Geojson of عمان</desc>
  <metadata>
    <collboard>
      <support-module name="@collboard/map-svg-geojson-import" version="0.11.0"></support-module>
    </collboard>
  </metadata>
  <polygon points="8.052550000000338,6100.896033570367 561.1252719199765,7329.1190835599045 577.6150033333179,7365.738354706562 554.5904589066413,7399.225106514852 555.1972494488655,7400.496224973387 549.2443961155441,7401.890277683073 548.9753344266574,7401.794941332228 549.9942007733116,7405.071957761153 551.1517849866723,7407.911209016827 599.5391983199879,7414.709223677935 815.294268897771,7897.74486354713 815.5151252177675,7898.2177649243895 869.9506375377605,8029.941675004862 873.7435699466514,8039.123823976763 918.7680398488665,8017.702752982346 934.8125633688833,8010.446719675696 951.9055900711173,8008.175148519069 970.3677366310803,8003.269315909383 987.4780211466496,7995.810000482896 1005.9479592088683,7991.726132183052 1026.3450197599668,7985.292139785488 1047.7614563822062,7982.770041031101 1104.954359493313,7970.756376512036 1108.2621070488894,7969.368759466997 1137.9321475110846,7974.054819961464 1158.7625466577665,7975.783472447445 1193.1607182488733,7972.521151754314 1220.6272199377781,7964.061416933757 1267.4328126844266,7945.80476085675 1297.3777402577762,7933.61937087449 1325.6559417155295,7913.978441802894 1344.623006746675,7894.569726527559 1357.7395274222145,7875.208138000227 1361.4146406666623,7871.364230752333 1370.4271513866624,7870.482259921024 1395.1865065511156,7865.177702862675 1420.421070533317,7862.561690797571 1431.9262066044394,7862.400673491131 1461.8198704622118,7857.888619230456 1490.2340227110908,7847.503291175693 1496.9330398133097,7843.646865155672 1511.8300279733157,7837.330197749361 1530.3607688799748,7825.166210509509 1547.329204364425,7816.60474957963 1587.254609377771,7785.548774543968 1593.898649057759,7778.581248789131 1690.2383895021994,7763.703227494734 1712.5097796533155,7761.146621411717 1743.80387501332,7759.96050693532 1752.13408315555,7761.917883478796 1788.5620503022292,7764.799162759598 1812.4229797244552,7762.741025064861 1822.5422478488836,7760.249067401084 1856.8738639910953,7761.673907060998 1859.7499477599995,7761.884942502329 1877.8262329155186,7777.590848383865 1899.6741876888627,7792.585254687605 1931.0018520444355,7807.873794773717 1940.7586332710998,7812.64186822503 1955.3020911199928,7818.63922986664 1965.5700531466646,7821.855419227788 1991.5931608444153,7826.598546472182 2000.3328961688749,7826.703332439523 2015.6249207733272,7831.090207259149 2041.9300517244337,7833.835519862907 2068.310257804442,7831.947932937932 2093.966291084427,7825.48399321414 2113.428152915534,7817.03091826669 2143.5453673511,7811.095623015157 2166.319127351111,7805.429388903394 2184.084626231088,7797.934530075254 2200.9138341244325,7793.174794386992 2215.205852186664,7786.227945599741 2221.696391991114,7783.841286819494 2244.906840204443,7780.0386159482805 2260.833180471098,7775.0192746947505 2279.550334888867,7766.384473224978 2292.9847051644538,7758.2630628312545 2315.652151208873,7739.589248262106 2336.2086826933155,7726.627386494867 2362.1621765955424,7703.669498550946 2384.7285515644544,7678.162717080566 2394.9031611999744,7664.26730744668 2401.294741644444,7661.527437694596 2419.250950284426,7650.6542277499175 2442.889421395528,7630.8063159475205 2452.9341241155416,7619.541555209078 2467.7119823911125,7597.840992510413 2476.4176389955464,7578.669459358214 2488.694643511095,7566.390730498817 2503.5172119022245,7546.995599741298 2516.980272382214,7524.5715346307625 2526.231188506652,7504.386747182776 2533.2112094133117,7481.116754992814 2535.842552631082,7458.287776719175 2536.4572074933167,7452.954337906158 2597.5272203644345,7438.959085134316 2625.3788552800033,7432.576371037263 2650.478196648888,7430.677902422562 2667.1370109422205,7426.942197666744 2706.465018906638,7423.869069507426 2778.4187409333317,7418.246443594493 2796.5317990666736,7422.723987991478 2822.97914313776,7424.89533402316 2833.4848552088733,7424.46959301053 2868.9299279910992,7417.541950395935 2882.1380534310956,7412.263782240865 2903.5319893600026,7417.853474399199 2939.967165466667,7419.272139108398 2961.9648335910824,7418.449829315192 2976.598294213334,7416.845003495626 3012.613238924423,7406.407849869 3102.442560311123,7403.838557157993 3123.3603407911214,7410.281300713417 3149.136086497754,7413.491160311467 3175.6443062310937,7412.174477750967 3190.1092665155375,7409.311060464934 3202.5109350666535,7408.040784520701 3231.490517359991,7398.993243991259 3242.105601733325,7397.801357791417 3266.668931439992,7390.721450192745 3289.7134279377715,7379.612147373446 3310.5917411822084,7364.784437065326 3328.7167414311043,7346.653577082943 3343.578194515554,7325.727576895872 3354.756815671084,7302.593475760783 3361.936502924429,7277.9008644333735 3364.9130752266574,7252.343471238077 3363.6004619644154,7226.640552844452 3331.9339764888937,6992.911878377614 3329.73655440889,6976.692655116414 3335.238665697754,6971.505801369254 3340.097941644439,6966.924937406329 3360.224192879985,6941.768594688263 3366.5835150488783,6931.063479094424 3384.2860265511044,6919.101481149373 3394.030720026676,6911.070711295666 3398.945119031101,6905.4905138468675 3410.5079995999768,6897.560134170933 3425.0240051466462,6885.97879521922 3448.870006924415,6857.882572648588 3462.548608026649,6832.839895085512 3471.077171795543,6807.067847293794 3475.694983991103,6765.8026412234685 3474.378074479995,6748.580956263955 3488.8688122577805,6721.810692737963 3502.680014533318,6688.096840025981 3512.596121057759,6644.931180662716 3517.130993804436,6607.561236665504 3516.9930041155385,6601.802287146515 3527.306040346659,6576.658841274046 3531.2698032622066,6562.732279142358 3533.060902142206,6552.736494774064 3534.851928204451,6542.739877185355 3535.7904765422063,6522.444222446553 3533.7695647555593,6493.951574894811 3563.3400633155325,6456.8601463078885 3565.7876872799898,6453.93824075345 3581.335011013325,6437.404178015895 3595.6066400977506,6418.94427626978 3614.3970492000008,6404.798089203112 3629.6027119199935,6397.040185244616 3684.0444865688987,6375.723555051554 3698.270240453312,6368.445186918914 3727.9362759377764,6356.701385396074 3785.287703351096,6342.703113980191 3884.2537625866607,6315.53334476977 3944.903471244419,6306.8415195794005 3961.133097555554,6305.32053456283 4002.0233381244543,6303.079892273578 4116.609029146646,6303.369009579612 4145.567567102211,6303.442057733286 4190.637766568871,6298.647089757702 4200.353114479985,6296.477692659297 4229.136525679998,6286.226162646497 4237.390712062224,6281.2560591766305 4244.493795013324,6278.443963834849 4264.634318533332,6276.112412535505 4289.459064062197,6268.472973485514 4313.095860364418,6257.462491791586 4360.843351066644,6221.224925503302 4372.280402515527,6211.258757884709 4396.494279706654,6181.295063809979 4403.859361022223,6167.992675318914 4408.629872097787,6157.2743807174775 4413.5891996710925,6142.885285614691 4420.029786479987,6110.579356312788 4420.204112239975,6081.924718880378 4415.119756542212,6053.723298077697 4404.947768346647,6026.944316590809 4390.181415279985,6002.571113193109 4387.4483456266535,5999.502881485103 4386.064589395544,5956.037474339282 4379.959255635542,5931.1962270362055 4368.597934675556,5905.310914886482 4349.363774035541,5876.80990679947 4347.116107688875,5874.516929641533 4347.623938871089,5872.622786928907 4352.982890408872,5852.633686121793 4356.745166533314,5826.874046488789 4357.804446746661,5790.268069307909 4356.111579048891,5773.81276611497 4350.25986960889,5743.432366792178 4334.610892257777,5694.733379259174 4320.184743848869,5668.998220827132 4322.619406248887,5657.423015700268 4323.589557502193,5644.095138991739 4331.793499617757,5607.73101178342 4332.59180091555,5601.216558709268 4347.883752702219,5585.936606715135 4363.967160915527,5562.571399453933 4375.55392571554,5536.645377545086 4382.253889448861,5509.024244544453 4383.839642195533,5480.631028675074 4380.606678497752,5453.468314163627 4372.9481415377595,5427.941701798532 4371.205466480002,5424.446317758666 4377.325436613326,5412.999579507268 4389.544259724418,5379.982141831708 4395.916397822213,5338.60324162084 4401.600917644428,5312.557661886611 4403.092444186659,5292.79241826076 4407.879630533316,5273.736351635023 4410.508061039967,5244.942785339219 4411.585618515564,5233.13881620537 4570.922275866651,5222.356701231787 4573.9347473333255,5222.152876867731 4676.829981039984,5287.4064917174765 4759.393763013337,5339.766434587313 4784.774035368879,5352.77062999519 4812.090241164442,5360.876399758163 4840.418614071103,5363.810867777771 4868.801454675537,5361.475554763652 4896.279388755567,5353.949337945764 4921.923334284431,5341.48594388154 4952.337353982213,5319.71940823763 4963.624327991107,5308.825305393802 4979.67715273775,5299.112024243288 5002.093377448888,5283.512743605526 5021.445648524423,5264.198747347684 5046.79060425776,5234.010960334919 5056.73263391111,5225.761401595279 5074.66983711112,5204.67963493571 5088.882556613309,5179.972388561138 5115.82790146667,5143.445660612713 5169.823812862225,5070.249558175572 5186.077323404439,5059.319136552374 5205.503795795557,5040.643002926452 5221.436835297769,5018.871089214292 5233.396791208892,4994.655129892861 5241.022414533341,4968.720573852341 5244.081926284423,4941.845172564681 5243.004587262207,4923.677049785219 5242.480372080005,4914.8362630228 5236.2627533066625,4888.505873160109 5194.95308233775,4763.182494939007 5194.1539800444225,4758.060311925605 5140.213046071098,4598.86300790024 5134.670520915541,4582.1400514379275 5140.7693738933085,4574.790982532613 5156.936741004414,4555.307153117152 5168.410492613337,4546.082728336136 5188.411497271103,4527.92774775983 5233.299288204442,4473.855230278794 5249.396604613321,4459.708080205593 5307.150277431101,4415.515023824999 5325.534217697779,4399.530936183532 5402.095120524442,4366.632943825483 5429.333120026662,4352.195751844447 5448.254237039982,4339.425308315265 5457.623045146676,4332.122240508172 5478.939284506669,4309.743004746611 5490.380049662206,4293.415506717931 5498.344202835557,4279.4059147452135 5503.476254177782,4268.604172144209 5508.810666124431,4254.169270844963 5514.094542533312,4235.184599430977 5534.272203119974,4197.9039883584555 5550.117497200008,4167.011778242544 5557.300169982227,4156.780761027774 5574.511161484443,4127.819600589231 5587.545980613337,4099.637715029159 5591.383040595545,4083.6819559020587 5598.449277751097,4070.6500676035575 5611.006703528874,4036.059507427366 5612.900038568892,4026.598352108769 5638.8321240444275,4001.8774992846666 5655.993817911112,3979.55652902196 5668.918900648867,3954.50695308383 5672.966986551102,3942.6264841859593 5690.148049946649,3925.9745276699323 5704.377153448884,3908.0254053960743 5717.917619226653,3885.0431005609935 5728.165920453328,3861.77892426178 5734.723743884424,3837.3122710263633 5736.88249972443,3816.1461440026833 5749.13744045332,3776.903370694119 5769.601274906665,3746.5397497079175 5789.728399955529,3722.889977701365 5798.982738515544,3707.8509314354233 5808.855882551092,3699.0029502652687 5825.51425993778,3677.949862471076 5839.07263888888,3652.8626418044805 5847.8552638844485,3625.9828713287498 5851.685406177778,3597.0303933363975 5856.058914728877,3583.6790490497588 5859.838885573328,3567.0049237932326 5862.492802302215,3541.104008249902 5861.788727208892,3499.728908808007 5862.478457199999,3492.444559223084 5868.924723795535,3473.6242396688685 5873.216530799989,3446.7177428553623 5872.846689306643,3419.46309596458 5867.454824133318,3389.8568632819297 5858.837058586658,3353.197033251963 5849.144138551092,3327.227722120595 5838.092147511088,3305.1545857425735 5831.816347333319,3286.043591772126 5812.32579529778,3251.8252446251645 5797.645731297765,3234.462869240706 5780.633459511104,3219.4011578106365 5748.953429928872,3200.4189419640534 5716.028944524449,3189.6148010836114 5682.157755191096,3185.9431476035024 5655.05658029332,3187.8472847088196 5639.4589394755385,3181.728140064639 5609.981647671091,3173.5716360639126 5566.89223739555,3167.7963780683567 5555.70757236443,3166.3027646468036 5545.131008595556,3161.518308489329 5531.761446142227,3148.416648412727 5525.787621288859,3141.319220927493 5519.090278995551,3135.8997501894846 5514.91447071109,3128.1620172033217 5499.884226017784,3108.6006149767854 5484.22243273777,3093.7310342434575 5470.763085964434,3074.9734876026996 5457.78193353775,3061.2601301111645 5438.392962302234,3045.906797023905 5435.213009946667,3039.0144811300925 5421.5534142844335,3019.486637374088 5402.784996151087,2967.5473237144397 5392.833864275548,2946.768018914816 5375.764576168884,2920.1614552893516 5363.134623884434,2903.886397246759 5346.922765111092,2886.823982754133 5328.988401804447,2872.7776846351844 5300.120157893318,2857.4050355204454 5293.922127102218,2852.9476999173276 5289.903386764439,2842.720780702315 5274.779425591092,2817.9773287289645 5257.252404933308,2798.4508844884913 5252.960015386641,2778.0504384006854 5243.860268968863,2754.350493254322 5236.669586231095,2740.830898415159 5224.518920559996,2720.443738111884 5210.024833164447,2703.109412272308 5201.280073413342,2695.2218818331967 5195.730921840011,2673.0661508657286 5184.441617662211,2647.7375431804467 5168.962087279979,2624.7857701941175 5149.733242337774,2604.866860744871 5137.813117751102,2595.23535573604 5110.87177787556,2579.576006584968 5099.064011119983,2568.2292774035086 5088.008087919974,2534.5225782320267 5084.445915048862,2525.411568693693 5065.420668613318,2487.3562120314527 5055.956614853327,2474.296932234727 5038.759240275547,2453.6186587164048 5018.337931404421,2436.1482143168905 4988.331327173313,2416.0855568630286 4925.423976133323,2371.0195955975723 4908.565859582195,2356.508036180334 4898.7565767377455,2348.9577923423712 4872.110367315538,2334.7923160784485 4844.92079163553,2315.9203825029617 4824.042114302232,2300.874716119586 4801.019681591111,2289.4124491578623 4792.93283046221,2286.9173258464216 4537.6576586222,2149.219397493296 4509.424021644438,2137.6846148508557 4479.51710495109,2131.7811190580032 4449.038277431107,2131.727446451936 4435.0600311733215,2133.057769119834 4387.815420044448,2143.440885133219 4321.219702924434,2155.091589114185 4299.58372070222,2160.479969182292 4209.767870604417,2189.7522399741647 4172.503227191111,2194.3287845392115 4149.826533288877,2202.418437099208 4138.599488311105,2196.853093642283 4115.403239564424,2180.8774545823326 4093.0333997777852,2170.5760204387407 4085.24626662222,2167.7963491510527 4061.915304986651,2162.332612823091 4043.538282408881,2160.259359085314 3994.9927816799973,2144.885483996164 3971.1676786044336,2138.762066163741 3871.7869949422093,2103.5555689176035 3850.926449235536,2093.52661892592 3822.1096874933355,2068.63730458411 3805.230817875541,2053.037973386563 3765.8455751377696,2020.5491514795503 3749.748695635535,2010.44408164778 3728.416363546661,1991.8230462954161 3721.6413975021933,1984.8867388395956 3712.8671465511216,1969.5333665878206 3698.204340364442,1951.7599986062924 3684.7513287377733,1929.435543512438 3669.8839774133303,1911.9951380657512 3652.4680038666484,1887.6496098314456 3608.6644696444346,1817.2505938193572 3596.327608915548,1793.9923622507558 3558.2915339644314,1747.1381037718165 3531.672485573312,1724.8458952066067 3525.434550639977,1708.4978069513236 3513.15630822222,1682.051901196195 3496.6031525244252,1658.5609626114092 3476.266166639987,1638.5168934838075 3457.1115230133364,1625.427108105483 3432.468457839983,1576.9908800350458 3423.960283048895,1558.8224767626016 3422.322028684437,1550.0463313391447 3415.5289310133157,1528.281893715939 3411.3875655377706,1519.547423324846 3398.7255006133128,1483.4485169243635 3384.4620999377585,1454.4270334659595 3375.196037715541,1438.2750972855065 3354.790748755542,1385.3000882552224 3353.339417626652,1378.8047060913304 3176.523071173324,1404.9373428185572 3170.8129194933354,1408.4851338845692 3156.4354861777756,1408.0938597306158 3156.169410017763,1408.0532943683575 3159.9804740533073,1416.7511713480126 3167.7020712088633,1430.4354548670308 3167.558765822214,1433.191470521393 3167.6205152977564,1433.3956911333007 3170.6972848622027,1434.3833002402025 3174.7924838666586,1438.5343147788299 3167.1900165955376,1454.4897397969835 3159.1791144088565,1465.6360627190224 3157.756255031105,1467.4003767836039 3150.612466942206,1469.3144578467109 3145.283079422232,1476.1583018066958 3143.0311168266708,1478.487453046262 3126.398080026651,1478.476696821519 3124.904004862219,1478.4577530198803 3122.502693004448,1480.2902279880727 3122.367761662208,1480.5181913171036 3124.810142746639,1484.1853589466555 3124.8016958844164,1486.0308914141278 3109.622247564439,1498.4136843277447 3070.5199747110964,1505.8849092602104 3067.6923875822176,1541.7522522011204 3067.166351955537,1558.3406815174312 3051.7199536622284,1563.2599844332362 3050.730068791083,1563.6263458760586 3050.3151530933173,1565.242233980236 3049.3158019110924,1568.65477707862 3035.998886711117,1576.361460409018 3033.6548096266706,1577.9582170325812 3031.2636922577585,1583.2770795616598 3029.930325928879,1590.1591845199218 3015.2442180533326,1597.1081610229667 3007.821974782193,1599.1129874181424 2991.802573395551,1597.1081610229667 2985.4303624799722,1597.5990690134713 2976.146969626665,1594.9030138850867 2969.8552951733363,1593.367704304932 2964.8803117777643,1589.201828226178 2960.288641164436,1584.814148278463 2959.416429822195,1578.043218425366 2957.7191930577756,1576.8394796779976 2959.0747688088813,1571.38201674859 2958.7108983733124,1570.5361930926374 2949.4470206844344,1560.8455582234528 2946.3914410933285,1554.3836483021078 2948.4180326666756,1544.0639823378951 2947.0921665688584,1537.6459870510516 2918.020032879991,1498.383107470283 2904.9916945333316,1484.3312016478085 2906.319817982214,1470.5811524922392 2962.270304168873,1488.5913673681134 2966.0457603111063,1489.59792990813 2958.069883475553,1484.6756207363287 2951.3823715822145,1476.925620943286 2950.839879137762,1460.0916395716995 2963.668988044439,1426.468016317849 2951.4017411111054,1427.869620244579 2953.883225342208,1411.6449914377808 2942.519137306641,1406.7787302385186 2925.9336505155443,1390.1858863244343 2892.4644881333297,1381.3220789771367 2856.0272003111095,1413.7207969168012 2812.716278355547,1413.5346083508994 2784.4913066933295,1457.5722570068829 2786.033004684439,1536.6501799698526 2786.2323069422055,1546.8754801076793 2789.861617804425,1546.6050747347108 2790.1926474222055,1551.5037820513899 2791.39392230221,1554.7036015596314 2797.861160417764,1561.9433819188635 2798.1616793866633,1562.3333277778074 2797.9625955822194,1585.7233562833499 2797.796862319963,1589.4521529288832 2795.016024204415,1602.4668084664518 2794.959371973331,1606.3258119373859 2795.8024562044375,1619.0218066402667 2795.892458977767,1622.9601634707142 2798.938717893332,1632.676661425452 2800.110210302206,1635.974216131166 2801.692394977763,1649.0271207363621 2801.7657952977825,1649.5809179030985 2800.1209145155517,1651.2106391815687 2770.5421147288653,1676.9680545806405 2776.0680374311123,1683.0843883096313 2786.885628044438,1694.460427303049 2759.09865531556,1721.319049660342 2751.5165770222156,1728.6670317453609 2750.6574728799824,1743.0012825185331 2749.5122676888786,1763.0315864369113 2764.099270568877,1797.2178836652092 2764.3135004711003,1797.7102124769663 2773.30482121776,1810.7626491593328 2789.8986820533246,1834.5298747934066 2795.3209850577477,1859.110909912335 2800.0330234577486,1859.116027705364 2799.8792323111047,1907.4803876408914 2799.8450807733243,1924.523041366083 2782.645885751095,1936.7202703586154 2780.639319066664,1938.1290512442283 2768.6954558844227,1962.9924780221845 2768.9578183377816,1963.1266821876707 2750.3222198310905,1977.0411732526918 2745.567728666654,1977.724958812185 2741.133125999979,1994.7393613400418 2740.8169512089007,1998.766386673924 2742.287214959979,1999.0977059781799 2750.1460736266527,2000.8688764209583 2757.5112277599765,1998.8181329270956 2758.2741396177807,1998.8290731037923 2770.779500684417,2008.624211280614 2775.2427935555534,2010.3647943623437 2781.07105567112,2016.913651977702 2782.0382942133365,2017.8948943563955 2783.306415813342,2017.4366098342362 2785.0562270133305,2017.8265510115962 2799.446039351118,2025.8125114267968 2799.5391004711055,2025.828079078441 2812.042786728889,2019.049219288303 2814.2795304088577,2017.8366907397212 2824.8177920266535,2015.0796853944557 2826.8787535911033,2014.4898070077834 2885.623257911102,2008.649203578425 2887.5928331644463,2008.529671670367 2884.7755133422106,2015.3856415428818 2885.1134606488704,2015.735350209674 2893.2342448622294,2013.3648128916757 2893.331893502218,2013.5585938156073 2890.573264808867,2016.8461063852374 2890.5107871555447,2022.0249507620538 2891.550625022217,2029.1741907481264 2898.680286462193,2040.6499579321317 2892.1772220000057,2050.2460841669163 2901.8482967022064,2068.67106021825 2902.567809164444,2069.9117116725465 2914.1451804711032,2082.4320543940776 2917.2053475822104,2086.199179419149 2922.386550924428,2096.9593826663986 2931.1396847200012,2114.360925559922 2930.011591706665,2116.1171726777466 2933.432643724438,2133.0968467377606 2897.840479031096,2136.928135335045 2891.4791179644308,2137.4074151208115 2858.694733964432,2146.486671545317 2849.6330712444105,2148.6679303246856 2838.709967671115,2154.3218429546614 2830.7970782133125,2157.739411130002 2817.456497235551,2166.7685524405315 2815.294027688891,2168.127199917064 2809.2742548177557,2168.420819111947 2805.731597111102,2169.434010140285 2799.929039671093,2173.6539239642516 2799.2371251466466,2174.4283877134803 2794.6389737511126,2171.8938008032055 2789.7096471022014,2169.125804691874 2775.94766964444,2165.7767810268197 2761.8414097333225,2141.4852696037924 2744.8941642222126,2144.8213721803986 2740.1242356888906,2142.803105312756 2733.8003757777697,2140.1273053271943 2725.486041911099,2139.729936484735 2725.062679351082,2139.7961248597785 2707.204046533334,2148.7388972031695 2686.320417591087,2157.8724821335127 2664.039998035536,2166.0287907337697 2653.590719742213,2169.9498894571225 2621.601651511075,2187.1584101000117 2618.6454681866526,2188.777987245594 2613.094059262199,2194.512817634044 2612.2620433333286,2195.010956663791 2572.2587961155587,2214.2379931366377 2559.03108269332,2219.5289227304092 2549.9048306044497,2225.8943632162336 2545.951699084435,2230.41153342944 2545.411027084432,2232.224034601859 2545.8360644533022,2233.9662332901135 2554.5219874399845,2243.769384813182 2555.9657455199995,2246.842785162815 2556.50015519109,2259.4646712848116 2557.087649022207,2261.242809133466 2560.9360685777574,2266.8709339223205 2566.7985550488884,2271.088122268622 2574.573527635548,2284.0396651323754 2581.232931866667,2306.1006074390534 2579.645431493329,2339.5349710857627 2582.7047976088725,2368.111574357281 2579.684024915543,2377.622811106972 2579.881361093321,2379.3740927353283 2602.4625908888775,2400.247484887783 2607.0852818755448,2408.450652535823 2609.018885146659,2422.6365957694725 2607.512649413322,2432.897545302905 2608.5313701244377,2455.0974784837526 2609.328215066642,2480.8741084218564 2608.3563890044534,2484.4380953471773 2604.553262106645,2492.4194066327254 2584.02279938665,2517.6482628697195 2581.9595076533224,2520.8725297854617 2574.2173030666672,2539.320148379782 2573.27431284442,2540.802994868842 2563.939219368862,2549.9475306419845 2555.30718153777,2557.2943999975614 2522.1501161511187,2611.483447162689 2518.248539617787,2617.9280013789903 2510.6618738044417,2653.7045612908914 2507.9110366133173,2660.5084177233584 2506.2055714399685,2663.564681436641 2495.876660933318,2677.4029631804515 2484.975912417758,2669.1725064609273 2414.4438846844205,2807.9013825466754 2408.731402835525,2818.6529751448616 2401.4657177866393,2831.249093605111 2396.982909751103,2839.466287650408 2367.7962336977725,2880.360042049906 2364.7758979111168,2885.699048751536 2361.7204639555493,2892.8115539829814 2360.6274691110957,2898.4666828786503 2360.218888559997,2905.2623199741283 2360.9661445955353,2912.5822526679767 2358.679011013308,2918.359649751299 2356.7122028355443,2922.826431551228 2360.0961906044467,2936.1588594849964 2359.9681041333024,2942.047111380547 2351.5087172533167,2953.717401866794 2350.0786489155507,2959.4033985170463 2352.292309360004,2979.1244845493857 2352.934125253327,2984.4260317086373 2350.609854604416,2991.1502226038065 2352.575133608865,2997.390492392391 2350.7841075466495,3011.2236963156247 2351.6309783022225,3018.0623678435586 2348.5704471021963,3023.973701826959 2347.887197893324,3031.1494983848024 2349.6352614666466,3044.5232779358994 2349.1915099288817,3051.7513751042206 2349.973936951086,3055.1646889542535 2350.843890942204,3059.003726884992 2354.949721342222,3064.9764322077754 2356.602830533324,3071.1660836414303 2355.949363795553,3085.2850157475405 2354.7288650221963,3091.2921355226354 2351.092563653314,3097.796822325028 2351.089214035521,3098.038226616256 2351.8011534488833,3105.4864085104564 2353.7876952444276,3112.4976311770806 2357.0510967733353,3118.241093449855 2357.134036222218,3118.485295987346 2355.0004753333124,3124.6915359505874 2354.958969199979,3124.9275078911232 2358.2164724888935,3144.679534936069 2358.221351280001,3144.860173626301 2357.8972393510994,3146.0924894804266 2352.9352175199965,3165.43946971275 2347.571532826645,3212.7078901983696 2346.5011843110915,3212.916042327961 2523.901019617777,3510.0866020984176 2543.2787769155184,3542.5471608168373 2567.167813999993,3585.172855685152 2576.536549288874,3600.8704079631643 2659.70217019556,3737.5886387701685 2678.051157928865,3768.3151059576267 2481.8218831911,4396.095640045729 2474.9794878844477,4423.169031200836 2472.242995795539,4426.830896845342 2452.9607754222307,4488.735482413067 2445.103154657765,4513.956499711676 2436.8175838133393,4545.499274333393 2353.543173146645,4812.439880794009 2331.5120088444455,4879.614168076507 2193.1090790666713,5326.720170343462 2192.585883333326,5328.3973208967145 8.052550000000338,6100.896033570367" stroke="#009edd" stroke-width="6.01459514121951px" fill="none" stroke-linejoin="round" vector-effect="non-scaling-stroke"></polygon>
  <polygon points="2839.476301964438,456.06248874216544 2983.181094142208,537.8953259181799 2983.6962799200046,538.1886536824968 2986.74472336888,537.9218300114808 2989.8715915644207,538.0935795989135 2998.4714439377494,534.1901105845827 2999.112094746648,534.158823177313 3000.4714570222204,534.8931829200956 3005.5652062133377,538.033844171201 3008.3151695911147,537.5963235705931 3010.3151826755275,537.5651183377558 3012.502701537749,534.2369606207285 3014.20583654222,533.080698217942 3017.4558395999848,533.830710057613 3019.3933022133206,532.6119479427653 3024.868470924419,524.3023715421077 3025.156465235552,523.5307212775297 3032.593126426662,522.8142701287506 3034.0386321333426,524.0927401020381 3038.669988435555,533.4041937299698 3039.6604558488834,535.9611555664087 3039.130633697765,540.1075412115824 3040.7485719022297,545.9735447287458 3050.7920367199767,564.7013713940469 3053.5101787288804,566.9473186454634 3052.5310708888646,582.5463488576861 3051.7561440977806,582.6975213017504 3058.165783351091,592.7113914656438 3063.132028613305,595.8313515435366 3056.7328023022346,604.2422437831483 3056.427113271093,604.581858490179 3055.693692613313,609.5144373347066 3055.541212186661,610.6421535301852 3052.0934360444153,616.7179363344403 3052.1542388888556,617.333664668542 3048.6613885422194,619.086885383229 3045.076569342207,622.1384442707422 3041.5951513866676,621.3588410804005 3040.504850800011,621.8701552456259 3040.4842433688827,624.3623878909057 3039.5824680088626,625.8556231933253 3045.052757928883,635.5632690568673 3046.201167102212,636.3757913083173 3046.6111311911154,644.5583589355738 3046.5382405955534,644.7552572157656 3049.5290851822137,644.56621220534 3049.708726640012,644.4744017739795 3051.6442959911146,653.5895971447535 3052.1013731822095,653.7693146090969 3050.5837778755595,662.3005668891492 3050.9196862844183,663.5817795889961 3038.4060239910978,676.924700410389 3038.155967742212,677.2762775742522 3036.9917571111073,679.8343995514515 3040.628276933312,688.1139968073476 3039.328333964433,693.5299682561526 3034.6475343910934,698.8957891295213 3032.2517566844253,700.8238248742782 3030.727243688896,704.6734687976495 3030.6432119733436,707.7731052770469 3025.6782046133085,715.9160703620073 3022.7085499999885,719.1650859146976 3022.636751671096,723.7753744750153 3025.9445720444273,731.7480047222562 3026.55187231108,736.2420238054983 3032.013205644449,747.0256777473624 3033.49118807997,751.0011617182827 3034.7100120444156,770.4863897967371 3042.8803851644407,801.398869059929 3034.480927315548,847.1484851306959 3034.7542852533297,849.7893341178351 3036.2830216799994,852.802776882214 3037.9054745866524,853.8897453159225 3045.1604554222213,855.4718259517758 3050.0152166666594,856.5939047746724 3057.2969944444267,860.8567157955622 3059.9264443999928,863.7736074456552 3063.5673332888764,870.9535830747991 3064.781205644431,874.992033931434 3064.4354668355445,883.3933275683739 3064.7003779111037,886.4915656423618 3066.2207402933345,889.8662900744603 3067.764113093326,892.9069861910029 3087.5048670133183,894.8190209114618 3105.204829893315,900.8155453630243 3114.7202201866676,897.3850834983386 3115.2448722755435,896.1836178502781 3111.1100603999876,894.0172435843342 3109.797301502207,888.7339385901068 3109.4679466933085,888.4625178925708 3112.6124367911034,886.308972314182 3113.191046853324,885.8728789336528 3112.6007859466554,883.4005959943388 3112.6682880266526,883.044684760207 3170.7293246844274,858.5393759168437 3225.421665306647,835.8204024100633 3259.459898622219,829.2421551771477 3320.6938971288982,827.6922087545172 3397.678453786655,716.988651665095 3411.4242656977513,692.9138408960498 3421.5232176622158,662.8181374442574 3426.111611475535,615.3082168853507 3427.6680186577796,565.9408705234018 3452.036123902224,532.1232552826623 3466.2950826933156,508.29276855212083 3476.3146632799835,482.36321485855296 3481.7989342133296,455.08958450597856 3482.5839098577635,427.2673316935616 3474.0293501422057,277.24582365665265 3474.380768737763,184.65453596549196 3471.9474898755507,155.86867426528624 3464.502454640002,127.95654886621196 3452.274820577768,101.79446253558126 3428.163252364415,69.37104441332485 3405.3144900533152,47.206199515967455 3378.6066767911034,29.93197559381224 3339.7984421244255,12.687061393655313 3318.5306265866457,8.052550000000338 3137.866952844437,88.94386972655047 3065.177552808869,155.81764797520736 2947.3022458577834,267.50541705585056 2925.409799422203,294.49162902910757 2916.9259457688677,307.5945928762012 2909.2427235822033,320.7754265967742 2839.476301964438,456.06248874216544" stroke="#009edd" stroke-width="5.6385629194667874px" fill="none" stroke-linejoin="round" vector-effect="non-scaling-stroke"></polygon>
  <polygon points="3072.229153591099,1179.7741710863556 3073.1510994755445,1191.2987005372343 3075.712464808872,1193.2838467113397 3077.916513306649,1191.5533366894597 3091.040242942203,1199.1024380560193 3092.4744618933255,1202.1012764258849 3099.645702284448,1201.5145404097493 3099.1893532711038,1196.8206866545443 3111.641193271098,1197.9289265515326 3112.553891297757,1201.3841362626627 3117.9648347288676,1203.1443361052734 3119.9206474222083,1199.1024380560193 3124.35372091554,1198.3852759200163 3125.13607511999,1195.5820223288247 3138.4816077066425,1186.6537084465162 3151.867117253314,1184.2300487356479 3167.774160808891,1175.4290439745455 3171.424952915557,1173.6036883781271 3173.3877561155314,1158.246242646048 3176.817254995556,1142.1001023880453 3174.883578906658,1139.2808159181805 3155.7260953866426,1136.56004107427 3153.6069524177656,1142.5371400781369 3150.720018800006,1140.1806895862173 3149.6854966310857,1138.870505568084 3149.438061822213,1134.0564391305452 3145.985334071105,1132.1938194300237 3146.2854161333307,1126.9301537590873 3144.2079977511094,1122.7591845615898 3144.2445522755224,1120.7855752491814 3134.5409280266686,1123.890660663099 3132.720265128861,1124.2292550536586 3129.7113617333307,1120.7683347926577 3125.07818498664,1119.4776282215244 3127.1857499288817,1116.4119604389925 3118.7867289866626,1114.0140305878667 3115.694012328873,1114.3581379113675 3103.1025806488833,1123.9325520147177 3101.4121887555593,1124.448216967321 3101.748461253308,1127.2991883363502 3099.4301616622033,1130.0731461969917 3098.4730447911206,1130.7687378973424 3103.507083404438,1139.0682505634395 3103.3401850577575,1141.9676858642415 3107.658861822223,1146.40273622104 3109.0974498399664,1148.8629327998424 3108.513378444426,1155.349626176896 3106.7269399022116,1158.6939993152846 3102.514504275554,1158.0275175989154 3100.5533030666484,1159.0966564378832 3094.0529328621997,1166.4471926772603 3085.658499439982,1172.1350857478174 3083.9531799022006,1174.1412337784932 3072.229153591099,1179.7741710863556" stroke="#009edd" stroke-width="5.449299238741652px" fill="none" stroke-linejoin="round" vector-effect="non-scaling-stroke"></polygon>
  <polygon points="3115.6532343733197,1161.1558190180294 3120.5969789422306,1155.2740043951271 3123.0760601866423,1152.2353133004435 3127.8942669066673,1159.520491532261 3129.923698373321,1162.6156479975543 3134.2346564533436,1163.1021185971986 3134.3884475999876,1163.6902124978878 3129.6156063555463,1166.8226004407989 3128.324183066674,1167.366141944476 3128.241898977787,1172.452175019258 3128.127429431079,1174.5036485044184 3121.8766785688713,1175.1287121143614 3119.9738043999896,1176.2654593166444 3118.76859735998,1175.7750283545538 3117.641523795559,1174.1869684813937 3118.189768844437,1168.7711223317965 3118.2601108177696,1165.2488092959175 3115.6532343733197,1161.1558190180294" stroke="#009edd" stroke-width="6.131226644750503px" fill="none" stroke-linejoin="round" vector-effect="non-scaling-stroke"></polygon>
</svg>