<svg width="207.51967857778072" height="196.00489728269167" xmlns="http://www.w3.org/2000/svg"><polygon points="5,164.97941104939673 5.217870791209862,166.10140362533275 5.615164586692117,171.50642364413943 35.744539591134526,147.8837995028589 34.902766079991125,146.89875188528094 43.66886144003365,150.93615251063602 43.81682716449723,151.52409528777935 55.46912796446122,145.8892769847298 55.76505941338837,145.63555070391158 55.42427221336402,158.257736143074 54.77444636449218,158.68556337757036 64.15832775109448,190.85612960800063 64.19065884442534,191.00489728269167 91.1108087466564,166.86431910243118 91.48800483555533,166.26646855159197 92.53891100443434,173.08738477609586 94.22799217770807,174.3856998385745 99.19562097778544,168.19025714037707 102.09609870228451,167.5453783236444 99.1717367466772,173.12311002396746 99.09804515552241,173.24927889060928 134.11640576005448,177.42999451438664 134.1102890666807,177.570631581184 134.4825335467467,173.8086718757404 134.17844650673214,171.5453147017979 156.47903658659197,176.86111439322121 156.68991687113885,176.92894596408587 157.95956764440052,167.719938976923 158.1186016710708,167.72853133705212 186.0130534400232,182.6592809256981 187.79213738662656,183.0938432754483 186.64365539560094,178.18653946812265 186.74880426668096,177.9192844972713 199.20443079120014,166.3017426840379 199.17442986671813,165.196936058579 182.54517959116492,144.5442077392945 179.8736409600824,141.73690300958697 201.96218567108735,125.20667688612593 202.51967857778072,124.567551137181 195.86588131566532,112.71466317574959 195.93549511104356,112.53553506213939 185.88081635558046,115.53138818510342 185.51002823119052,115.2265123660909 187.00250140449498,108.96108422090765 186.75608604447916,108.3481473212596 168.3480430933414,110.33034736820264 166.1276834133314,110.67865541984793 184.75126698671374,100.50647419923916 185.83217408007476,100.9326052434626 194.85109276452567,88.50253634306137 195.32761230214965,87.16525631491095 151.36198570672423,40.29782206681557 151.2830512356013,40.11908696021419 173.72112127998844,28.233552344783675 174.07967601786368,28.106847046874464 154.40402119106147,30.44862056931015 153.51651811553165,30.62510103319073 153.8045852445066,19.791198385122698 153.73875797330402,19.011024392209947 144.01059413340408,9.230555343441665 143.01095168001484,7.035636896616779 129.70190079999156,14.20230334228836 126.17402510216925,16.164542243466713 118.27533511118963,5 117.25763384893071,5.1312443925999105 82.69686015998013,34.00625813374063 81.77789980440866,34.485009813681245 90.46010908437893,44.41276145493612 89.33405496890191,45.552116255508736 81.04273152002133,39.04757823667023 80.08328448003158,38.73173555592075 63.208492657751776,39.338985691196285 61.963017386733554,40.01546578068519 39.44018744886853,74.6081768941367 37.9748024889268,76.61556660884526 9.146826808922924,95.2892418091651 9.081873351125978,95.35031305672601 5,164.97941104939673" stroke="red" stroke-width="3.8752182491964313" fill="none" stroke-linejoin="round" vector-effect="non-scaling-stroke"></polygon><polygon points="54.77444636449218,158.68556337757036 64.15832775109448,190.85612960800063 64.19065884442534,191.00489728269167 91.1108087466564,166.86431910243118 91.48800483555533,166.26646855159197 92.53891100443434,173.08738477609586 94.22799217770807,174.3856998385745 99.19562097778544,168.19025714037707 102.09609870228451,167.5453783236444 99.1717367466772,173.12311002396746 99.09804515552241,173.24927889060928 134.11640576005448,177.42999451438664 134.1102890666807,177.570631581184 134.4825335467467,173.8086718757404 134.17844650673214,171.5453147017979 156.47903658659197,176.86111439322121 156.68991687113885,176.92894596408587 157.95956764440052,167.719938976923 158.1186016710708,167.72853133705212 186.0130534400232,182.6592809256981 187.79213738662656,183.0938432754483 186.64365539560094,178.18653946812265 186.74880426668096,177.9192844972713 199.20443079120014,166.3017426840379 199.17442986671813,165.196936058579 182.54517959116492,144.5442077392945 179.8736409600824,141.73690300958697 201.96218567108735,125.20667688612593 202.51967857778072,124.567551137181 195.86588131566532,112.71466317574959 195.93549511104356,112.53553506213939 191.01738239999395,116.50798308104277 189.82229703105986,117.703955311561 185.88081635558046,115.53138818510342 185.51002823119052,115.2265123660909 187.00250140449498,108.96108422090765 186.75608604447916,108.3481473212596 168.3480430933414,110.33034736820264 166.1276834133314,110.67865541984793 162.1302786844317,100.7118495622417 161.36481820442714,100.07536625536159 131.4838974577142,84.77025596227031 131.50428643554915,84.05410322349053 87.17719239112921,79.27215132152196 86.71144988446031,79.09706745995209 67.97456184891053,90.38810534751974 67.34920277341735,90.76720770413522 57.92133944889065,104.84962432575412 57.059468231047504,106.41795027523767 59.12924074672628,115.63859219232108 58.350381795549765,119.83805285778362 69.0208076799754,118.43221053027082 69.85675576888025,118.66561355162412 73.41638001787942,130.26398169330787 74.36009841773193,132.25321944471216 56.53168497781735,144.86351544613717 55.66981376009062,145.40805612283293 54.77444636449218,158.68556337757036" stroke="red" stroke-width="3.2119632336107644" fill="none" stroke-linejoin="round" vector-effect="non-scaling-stroke"></polygon></svg>