<svg viewBox="0 0 121.3551150044507 103.01959450384244" width="121.3551150044507" height="103.01959450384244" xmlns="http://www.w3.org/2000/svg">
  <title>Postoloprty, okres Louny, Ústecký kraj, Severozápad, 43942, Česko</title>
  <desc>Geojson of Postoloprty, okres Louny, Ústecký kraj, Severozápad, 43942, Česko</desc>
  <metadata>
    <collboard>
      <support-module name="@collboard/map-svg-geojson-import" version="0.11.0"></support-module>
    </collboard>
  </metadata>
  <polygon points="8.052549999999997,69.61278450315115 10.664159599989603,72.44630421669683 10.909628328903295,73.56828551395267 20.029181182216803,73.55847469528783 20.098649342202066,73.55824653668208 20.90670822220966,66.88476717976266 20.922291226662878,66.57340554544464 20.738790426672153,63.479430202750905 20.758014319995368,63.438011699988806 17.469272204448885,65.7239690509956 17.27732454220643,65.88917950212601 18.288981928875387,63.44953585958103 18.196066444455596,63.200339624461435 12.013764293318332,64.25085829385318 9.34710445334315,64.08701203902422 8.052549999999997,69.61278450315115" stroke="#009edd" stroke-width="6.37133366743339px" fill="none" stroke-linejoin="round" vector-effect="non-scaling-stroke"></polygon>
  <polygon points="8.979374675552776,76.64183631160233 16.59771622223309,79.90912526027353 16.853889164463567,79.96444720883267 14.744576595555941,87.32872035250296 14.739042444452593,87.34309069085396 24.807119671116766,90.36613741596341 24.98159106667265,91.78049177787727 32.40631014222856,89.337223320828 32.82639590223664,89.08039090884961 33.6891409333399,91.76680686165457 33.78882847112948,91.9792647963692 37.49751071111643,91.73727023904905 37.934490195569765,91.98074732331554 37.30476205333946,94.33517703638756 37.32209268442932,94.49003713308014 43.994240026666034,94.6070371778693 44.25186932445615,94.62710733562528 44.04062495110668,93.21396761807375 43.99183704000427,92.64788033521438 50.6645669244532,89.64172553645733 50.78224045335776,88.97250268544997 59.270390355559016,87.50287491067832 59.630547084445084,87.46375576263347 60.20675416000415,81.93478428709898 60.29340731556988,81.67609180481634 66.92790786666558,83.20940845015105 67.11985552887893,83.34719153104345 65.32081951111434,86.37798855176482 65.41082228444395,86.46546661048308 72.4379562933533,84.60581463846722 72.57638288889541,84.51012152928854 76.78321154666594,86.994095682188 76.8895255022286,87.21284510399676 88.27152671109764,83.70008799032769 88.44374075555936,83.70442219245126 88.67282548445621,80.91529150352983 88.78693094221637,80.70837934970734 92.1887590666662,82.46379972575926 92.33250136001845,82.61287666700775 96.55695192001406,78.6809634616726 92.12883003554418,68.21656243783184 107.89103903109901,60.14337076363847 113.30256500445068,57.90373580807466 110.83418797332672,56.42516314183706 110.61456955556753,56.453577861342296 108.25760372443585,44.22896583588556 108.22454445332517,44.10112769957743 103.96120919998032,43.01323578191625 103.73066811555293,42.539765978268065 104.94847263111262,28.267868612317784 104.83429435556866,28.105055255851425 98.62927305777669,28.29527053161985 98.51516759998742,28.454886436090987 100.02140333335376,31.60337956308615 100.05002072000173,31.817215172901 98.62315636446112,35.223401016126104 98.74563586666011,35.596360561794086 102.24591362666217,39.71929321387836 102.21438352889493,40.63842572499527 97.70062793777436,45.526049298066596 97.18507807111712,45.937288125751024 93.19881446223701,46.379226566939565 93.1538858933269,46.372492511327096 97.27843046221062,43.05980635877461 97.28920749334031,43.050446589178705 96.78006559110474,30.757961425093185 96.77576934220963,30.74391858161073 91.95013520890609,30.34443811940548 91.84571451554768,30.35220170033392 90.9968776799866,26.79590847480688 90.93316212445609,26.704794517477808 88.01717421334581,29.669116491487898 87.79173037334806,29.718324488763415 88.07120500444546,27.94966280915071 88.11649766221637,27.785706739181137 82.3842093777854,27.956855856573043 81.14288472000737,27.978320817790177 80.8795756355463,9.836709296745198 80.8495018933387,9.434219241251071 59.238350533334255,11.707837606263297 58.807633377793195,8.052549999999997 36.83574274666137,19.70557422692184 36.23004447113601,20.156291106446247 39.99741784000764,27.929453766067695 40.01889908445412,27.98174607677322 34.45015952888173,29.2002111290127 33.739312382218145,29.100424073236013 33.48321225777147,32.927594095097106 33.480663635571204,32.99438050387073 35.899087671110124,35.44304447533034 35.67779444443988,37.62264931042557 43.12093641778449,38.970117909549685 43.80760806220462,39.088265243968294 41.232480168873394,45.392050737725754 41.19097403554008,45.461446967070174 42.38664194665728,46.10073272136617 42.65148020446179,46.26817161078327 38.188187333354676,47.87633472879645 38.05281908444124,47.9324883201258 38.145370480000224,56.31960632254015 37.509816915560464,56.69458885871393 39.76221641779523,68.99670794755332 39.83124767110678,69.60148982929934 31.134183564463115,68.04998999083875 30.647833626666056,68.08946542524029 22.7745570399926,71.13320865581738 22.26599767999835,71.45332854260744 20.12034903999995,75.55562415422867 19.490912168875752,76.1109388652909 12.476958177786969,74.25264277296776 11.89295960000129,74.09749669388805 8.979374675552776,76.64183631160233" stroke="#009edd" stroke-width="5.80000958802419px" fill="none" stroke-linejoin="round" vector-effect="non-scaling-stroke"></polygon>
</svg>