<svg viewBox="0 0 1522.1493953955498 1205.0834813172835" width="1522.1493953955498" height="1205.0834813172835" xmlns="http://www.w3.org/2000/svg">
  <title>Jihočeský kraj, Jihozápad, Česko</title>
  <desc>Geojson of Jihočeský kraj, Jihozápad, Česko</desc>
  <!-- Generated from maps/2-geojsons/world/europe/czechia/jihocesky-kraj/jihocesky-kraj.geojson -->
  <metadata>
    <collboard>
      <support-module name="@collboard/map-svg-geojson-import" version="0.11.1"></support-module>
    </collboard>
  </metadata>
  <polygon points="8.052549999999997,717.6718690970807 18.410005075543836,724.5767532235255 18.96545908446535,725.4474583411426 17.681244755549073,729.3087726952141 17.485364933330516,730.2161230325361 18.95125961778797,737.2856018073868 18.926647208899908,737.7053271575493 26.199905306660753,736.209763749495 27.90995800001076,734.527026317584 34.51489453335637,739.4247924194566 34.81759803556599,739.4943374641949 38.433656062239265,734.6309648461826 40.17363686222927,734.25836040057 44.31543924444816,737.2163867502892 44.37886352890166,737.2514379759301 49.56225140445861,745.1792104976263 49.583878284443585,745.187306610787 46.857070959994985,750.2359450911387 46.84338121777512,750.2770873173937 47.61568656890415,753.8843986018397 47.64663412445918,753.9646816121309 62.14079433779227,769.8569817971071 62.14108560889838,769.8731668011238 60.35348198223039,766.7315244528651 60.325956862252156,766.6561379218834 61.83590630224319,763.4351524392329 61.853382568900656,763.4006721461261 70.33949357333006,758.4228671258676 70.39061165333953,758.3840594203572 76.80127035556472,759.621124796649 76.81277556444513,759.6281100294506 71.33680585778313,768.6640452824428 71.05594768888079,769.6708539106836 81.67598367113499,783.2383685990131 82.36542239110679,784.2078957422415 82.33447483558086,790.6737463956594 82.36483984889458,791.3710977573134 94.83604937777966,819.163918027894 95.0760567733447,819.7900266484427 97.3557629422354,819.3399114193522 99.2740016622189,818.858891026444 104.70460589332617,822.5416973046155 105.38982118224487,823.1795071781158 104.48651664888132,825.4072987110482 104.20077968890075,826.1070920385897 106.33761737778661,833.689852679097 106.69624493332924,834.664918851158 119.63545432000649,836.7560601144284 119.67732454222971,836.7828549100446 129.08800287111774,832.9305824732652 129.11814943110915,832.9234957546938 139.75427814224497,836.8754186496441 139.7777254666795,836.8900339628086 145.7610166310984,833.3809194340207 145.77703654222535,833.3651959037885 149.73191568890581,826.9611402148508 149.74516852445197,826.9432000229205 155.07761439111312,828.1293442747625 155.11635344889476,828.1605728250648 154.64988276444603,835.5413121909729 154.64646032889834,835.5588066988927 159.22611600888888,839.3575307097123 159.26645705779777,839.4065783730836 164.30981634668535,849.3634617966669 164.3418561689101,849.4108401451737 163.48770363556798,857.3141548738128 163.4957864089007,857.3515651192353 167.44600521776704,862.4918025425646 167.45408799112886,862.4965613907622 175.27639213333134,881.727712591564 175.29190232000076,881.7543750130059 174.43869641778986,885.1688290677627 174.40621968889138,885.2055567585991 178.35250633778162,889.2897011416277 178.36852624887945,889.2961169496626 184.55272166222096,887.6707920480472 184.63719028444723,887.6367208873631 195.13962555558066,890.0010769882134 195.17283046222985,890.031828218394 191.70481097780396,895.8453846843837 191.7031361688929,895.8596526377147 196.34141016001342,899.3798537280451 196.35655625776383,899.392019424347 199.07986832888093,904.1824419160472 199.0937037066684,904.1848748447152 197.33726608890686,906.4774203257181 197.09565670224367,906.915880551234 211.3754413777857,926.5153255136607 211.4052238489163,926.550588762249 206.43876013335068,941.3512141312309 206.30229961779662,941.6540204761328 202.9930957066896,944.3744513668422 202.78294360000984,944.528498667372 209.4272745511331,951.2816267650556 209.90896415111604,952.0701047948456 222.30218584000943,955.3263252093526 223.17337773333531,955.6129244438558 241.61710139556783,955.0471270756021 242.05357115556365,955.0681194653513 254.99219799999958,959.7790527468675 255.73916276446073,960.2383031489077 279.9740114755474,980.9082578654994 280.5586654133291,981.3545230871456 301.12335248888814,1007.4271449245931 301.6431986044405,1008.1341374308755 312.1224050044326,1010.8455716575914 312.2272626044356,1010.8940263711626 313.7093956533423,1017.6802486767771 313.7688149600068,1017.8253740742726 324.30511049778545,1019.2212071971222 324.44710516447196,1019.2453757253458 329.90858413332137,1022.8801363923482 330.1118913688766,1022.9972190283075 348.275703493338,1024.3034295842294 348.3385452355502,1024.3017743567102 352.8930787822243,1028.2323592708194 353.1131341066572,1028.4657293450796 351.9961822133406,1029.9686532633418 352.3283040977909,1031.248771196791 355.17249368000887,1034.6955202329332 355.67799469334534,1035.507968587924 353.7691494666575,1037.920640666743 353.18638879110915,1038.8841798063145 358.4750711733428,1037.7188623778416 359.1824230666749,1037.9168897374834 357.7481312977685,1042.2454038771607 357.72373734223186,1042.7169893283349 364.2667059466836,1045.7443071016237 364.4242108000104,1045.8104906055883 366.52915430223914,1049.727531142656 366.8267605600191,1049.89838247549 363.9095347466715,1051.5936315888316 363.83249353778194,1052.0900639722308 370.00532937778155,1056.069193599767 370.33694153777435,1056.1572012830652 370.8424425511108,1058.9868276502598 370.82460219556344,1059.1574299493 377.45276759999217,1058.6084570102753 377.51903177778115,1058.595443925798 389.21939231112594,1062.6113797245557 389.25325257780025,1062.643138171908 389.71433474668413,1073.2867090669674 389.6802560266875,1073.514267145983 384.9405468711408,1085.6529855370677 384.9260561333282,1085.684069458111 373.5006555288925,1083.7352283019059 373.4638097333442,1083.7094343577696 363.7258154933585,1086.0308413841335 363.56081040888205,1085.9803578753122 362.9768118311255,1093.219092627965 362.59182424002904,1093.8011175498464 353.67113673777897,1100.305803981762 353.6396066400117,1100.3107628756038 359.16589343111957,1103.2918595848091 359.2441725422465,1103.3482777201348 362.6942060355574,1109.967534677016 362.6787686666718,1110.1637622301128 367.7643622666725,1112.1819681428383 367.93016834668344,1112.3311436827566 366.8513729688781,1115.1562589327873 366.8446737333212,1115.1757587029783 376.53191398224556,1112.1420851020152 376.85915707555944,1112.0632003292917 380.92042299555726,1113.7854189645072 381.00161481777434,1113.8490977249526 379.17308760001436,1122.836986672664 379.2091324000281,1122.999021492134 375.7633223377703,1124.7831357293394 375.73157378668077,1124.808800472972 376.8018494844506,1129.6217769116115 376.64339800002165,1129.822891376352 383.4218592977919,1133.5192589213616 383.49074491556496,1133.542827129429 385.2506049689033,1138.7397034789533 385.44633915555426,1139.4413932456587 396.1052598310995,1136.4098141175996 396.1922770755551,1136.3113612857483 394.15192294223345,1142.7791437417686 394.1354661244619,1142.8162519794346 394.7051924177864,1149.639012080624 394.712328560017,1149.652003869916 398.2966380355425,1144.293954554952 398.55834512887634,1144.1283481123605 416.23500632000616,1144.2665370330283 416.6459898577956,1144.1712913196893 415.70190736890765,1151.9411538134514 415.5472424088872,1152.5374271178803 430.22934530667374,1155.904776049188 430.30070672889235,1155.9262431117309 440.6777497866784,1146.5303640139678 440.7519511022325,1146.4593455499194 449.0949751733348,1150.8536211608803 449.2631842400075,1150.8760810500312 458.1413461600092,1148.5277624662917 458.4228596889076,1148.5291937938669 460.90230502223824,1152.3338625964166 461.041532613344,1152.4322870713581 464.43484105778737,1152.078442564954 464.5102802755497,1152.089672263413 464.9643719377997,1155.7554971699205 465.0280874933593,1155.8426866524892 474.67906448888937,1153.7783949346262 475.1913375555665,1153.784670162851 478.0853344977728,1150.816077894538 478.2789569688972,1150.7060902909939 487.16090541333654,1151.9826597507995 487.4984886311355,1151.997632707345 510.85384422221216,1159.764530822525 512.1186890222376,1160.2689145629479 518.3885909600136,1164.241299566616 518.754281840003,1164.535848852894 520.6381505688838,1168.4844858879583 521.1245005066518,1168.595979222438 532.1954241689015,1164.354232324818 532.2572464622277,1164.2529670941653 543.0946435111179,1164.4377760013517 543.6845403288968,1164.4977644664245 549.0023498222359,1172.159575920908 549.0035149066604,1172.3562445062485 561.1115821777854,1178.9878720772317 561.2004198666615,1179.1412702162702 575.0677646489127,1184.1987703408881 575.349569448888,1184.2682002086144 581.9212282577715,1183.5284540724601 582.1218412355589,1183.3504205877175 584.2438969155552,1194.2811486976639 584.1471949066687,1194.5389053350295 588.5828898400138,1197.010140143691 588.6050992622401,1197.0309313172834 595.4011096444516,1193.7569408425256 595.4914765066711,1193.7259172638364 599.3020308177871,1186.1087753233073 599.4384913333412,1185.9547362202206 603.0231648977857,1185.3856680652893 603.0864435466716,1185.29841483484 602.6928634577849,1178.377576584469 602.5652138933434,1178.2345204158987 606.3652096266811,1171.9488195024674 606.4003806133475,1171.9014954971858 611.8807193866593,1170.7851875793199 612.352505768889,1170.5878530901168 614.1848195111157,1176.628524619569 614.2799923466879,1177.2025243284365 616.1682301422185,1177.4866607971267 616.2978457866772,1177.5106505642393 628.4140686488896,1175.035468334368 628.543465840026,1174.9452275280414 632.524413751125,1167.7940587138796 632.5549244000064,1167.484778020625 628.3039681688894,1162.472980429818 628.292462960009,1162.4466726121677 627.1947349600156,1152.077561804202 627.2048566311202,1152.0595062055868 631.272093608895,1150.2932219709542 631.3398141422145,1150.2675689848907 633.9775653244648,1152.698494678079 634.1995867289148,1152.7689547081604 648.4339331111183,1152.2477685616827 648.4673564711189,1152.2418234443826 655.1937530577776,1156.7416550918201 655.2718865333369,1156.8368792837932 659.501507155575,1156.5121255892223 660.0967196711059,1155.9576180343497 663.0419803288893,1146.2033480084278 663.0552331644354,1146.1448813078528 667.7723688088951,1143.7097051591331 667.9557239733473,1143.7519880202376 672.3684813066862,1129.6748641520458 672.3976084177917,1129.6945791101675 671.7129756711144,1122.3530824602853 671.6679014666657,1122.1761749294305 675.0111112800147,1116.7868347355757 675.0163541600119,1116.770640480921 678.0074900177784,1116.4395936292344 678.0353792266757,1116.3032083629582 670.4991033155599,1102.5124680400254 670.4155813244648,1102.3669025379127 669.163188364451,1096.3594862016976 669.0877491466887,1096.1502056207023 679.9034464977809,1096.1781979083676 680.2858854666771,1096.2620644811027 688.0122157777729,1090.626632642939 688.1008350133267,1090.5685483393386 690.0185640089109,1095.3767753409988 690.0425938755576,1095.503183105909 693.6463456977868,1096.9943762869148 693.7597957955801,1097.067882447001 692.2280738400074,1098.1415902840304 692.1829996355588,1098.1556961301026 692.9406686133367,1100.443661065779 692.9863253599975,1100.5032778123636 699.2060558488953,1106.2067950895648 699.2524407733359,1106.2680584431869 704.9176638844434,1107.714008247283 704.9426403822214,1107.7293236767941 706.9869266755774,1113.2615537294255 707.0576327377709,1113.3666576866303 706.39047625778,1119.049687574246 706.4666436533513,1119.2294692165374 712.2824539289064,1124.782584983644 712.436390711118,1124.865527224792 721.3494323466508,1122.1483058835215 721.4229783022089,1122.1282577865127 729.2011548711231,1127.6114734071084 729.2773222666652,1127.75796411874 743.8177217689005,1127.935845178326 743.9482112266775,1127.9134861661946 748.9842159200122,1137.5230678480943 749.0268871377699,1137.5715223466173 755.0736754044552,1140.26277308011 755.2282675466628,1140.325210225266 756.5526044711074,1134.8571243809197 756.6585543377802,1134.7363125312181 765.0280840800039,1131.7544783689004 765.1182324889011,1131.7324512982082 768.8484687911183,1125.439400430921 768.9466271555644,1125.3795901218032 775.5740643822425,1124.972151331785 775.6378527555568,1124.9550782705405 785.1257179288729,1113.0972870839391 785.1418106577836,1113.0472688406367 790.4352990133408,1113.0518960808763 790.4845966489007,1113.0348193589812 795.7214327733451,1119.807035840909 795.7858765066845,1119.8472438605163 801.9753148000233,1138.9523476874815 802.0589824266859,1139.0268996074806 805.0052625333261,1140.4031739694833 805.2049288800114,1140.499307079917 816.037155866659,1132.953178399715 816.1265032799926,1132.9167243787592 821.9331385155452,1139.2244562060728 822.0315881511266,1139.2166376472228 828.8611675289063,1163.0055184315784 829.0668049333395,1163.8529676311077 850.9954418044723,1160.0807894293316 851.2196477422327,1160.0748451490722 856.5941822844394,1163.134084097233 856.7891154755558,1163.0463556743703 861.2438158489018,1158.306503657535 861.2944970222376,1158.247389179312 860.0639493955601,1154.1988336607096 860.0425409688975,1154.0155320144909 861.5394560266647,1151.1409749408845 861.5819087911292,1151.0527872145535 870.5217473688896,1142.5619994927615 871.0671525244612,1141.3722057372283 866.5944661600294,1126.9203184155117 865.9388148888899,1124.776086183941 871.7927816799853,1101.6536150479583 871.8080734133324,1101.6540558278425 869.7158730222505,1099.7645105097977 869.6545604533527,1099.720871799967 869.1889635822223,1089.8962208625812 869.1660259822162,1089.830420507023 864.7154762222268,1088.8795580959336 864.6619551555556,1088.8014118468923 868.6876859999971,1072.2397534949191 868.9614808444527,1071.1691835376764 875.3062394577788,1057.3199262954217 875.348765039998,1057.245926405601 874.9917394755536,1049.1758178275263 875.3129386933357,1048.0360856236725 882.0307427822332,1035.2360137468418 882.3022074577817,1034.9493840387945 895.9452006666758,1030.2533226194569 896.0076783200271,1030.207422542902 897.1715248622128,1023.5411369149293 897.2147786222118,1023.4762510683573 909.2249787999968,1021.0748696655425 909.5895045955618,1020.9250074871303 917.7981070488819,1013.7673483897012 917.9822632088977,1013.5344683800137 924.2968024444486,1001.0650214999401 924.3937957244412,1000.8605701429548 933.9185795111185,996.3367256093549 934.4152695733425,996.3759190517081 928.8732541422429,981.8620750130573 928.8522098044701,981.4637421159201 936.7481327200145,966.1670093489589 936.8670441511273,965.9318306973506 936.4111320444568,960.0949051876302 936.4124427644489,959.6291354466299 933.1565414666908,954.7165511328564 933.0691601333452,954.5866183379763 935.6896535022312,952.1355161458847 935.6961342844658,952.1226990629144 934.7331919911154,946.9450182573997 934.8001115289004,946.7613629289914 946.9469178578071,941.1884274092805 947.0817763822339,941.1829017144697 949.3879882222169,944.7214439653395 949.817394657795,944.8967075546458 959.0834568800125,941.1269816520577 959.4678619288967,941.0505059023341 961.9205831377836,945.9206513521273 961.9656573422322,946.0451897411764 963.4222313511196,944.8634450875176 964.091863635556,944.9935111660376 969.6788804533495,949.7542501787754 970.1146220355655,950.0991096981667 978.1257426755689,944.3225127974944 978.2044586933404,944.2763205821753 987.5841166488896,945.330333374011 987.689192702244,945.3167411788669 991.129905520014,949.1860725937946 991.2145925955625,949.3654104881058 990.1263309066777,953.5889099512784 990.2043187466694,954.394370277099 992.5296816622209,956.3103023639775 992.6405831377848,956.4011199460434 998.4968800977873,953.9331931896664 998.6624677244469,953.9626936116616 1005.096792204458,959.2645596288272 1005.8302128622378,959.8012585910689 1014.0862196889135,956.8522225937701 1014.2139420711097,956.6607557656604 1023.7413472977711,960.566857634905 1024.5332406311131,960.288238253335 1030.1711570755647,965.905981973097 1030.5114345511315,966.1017250040528 1039.2686461422195,965.7224998706439 1039.3662947822081,965.602092863213 1041.9018826222232,969.6031109383108 1041.9383643289107,969.6491716128145 1056.3267931288933,957.7758501736749 1056.4009216266636,957.7080148914025 1060.1323230133344,950.7733530359179 1060.1721543377857,950.6466153610742 1058.3494525422352,949.5240848143945 1058.142140328891,949.3692779039626 1059.6521625866658,946.3757068606861 1059.6692019466786,946.3649880147492 1040.3719811111,934.9875884407444 1040.2099615555849,934.8956305267999 1041.813044933347,931.3648618392832 1041.8256424088972,931.3426446078444 1040.055078142213,928.7568738832994 1040.0450292888922,928.7502415629639 1043.0433012888893,923.8995921803504 1043.073375031097,923.8922959888511 1041.573401626672,921.9173143068107 1041.5815572177885,921.8294251579861 1045.2780060711152,918.4207664447091 1045.371649733344,918.3282282563811 1043.641644968891,908.2227257919218 1043.694510675566,907.9307948513957 1052.0797690577815,896.913922562882 1052.0920752622255,896.8981064501055 1051.033668862226,882.5877628228551 1051.0758303555554,882.4829953905206 1053.7665928800193,878.0946441040211 1053.7850885955627,876.5825102302402 1061.2526973422277,876.4776208011241 1062.8600041511304,876.4490749094763 1062.7990556711225,872.4668895572755 1062.8079394399897,872.4385629014647 1057.8882975555675,864.9047074891492 1057.9148032266598,864.5708269386738 1054.7722063910983,864.6283736139081 1054.73135561779,864.6259389481053 1054.4582889511144,842.5414421907986 1054.4230451466642,840.7401488727261 1062.135394444434,840.6416130062204 1062.3491874400129,840.6387344276951 1062.0937426755622,823.2756376350077 1062.087480346679,822.6878880965011 1064.8549928088974,822.6471319145272 1066.055175422232,822.6209947820531 1064.851788826672,817.5067394799768 1064.8474925777768,817.47772013826 1067.95360770668,815.6605473995802 1067.9787298399965,815.6502462991554 1068.972619688902,808.5608624484227 1068.9758236711273,808.1951807021466 1066.8640352978032,795.3628856738284 1066.8595934133405,795.0796670384949 1064.8954794933447,792.3110066667792 1063.8898659822366,791.0853099811717 1063.126444400004,785.5876804635406 1063.1382408800196,785.5685077870509 1059.115786835558,782.1622046126646 1058.8529874755545,781.6052732202876 1059.0193760977777,779.5458529575914 1059.1482635644275,777.9887956856179 1062.9894741599924,774.8522696218639 1064.3141023555722,772.864539842623 1062.1388168800108,767.6891461822885 1062.9498612888924,766.6517034168716 1060.0591411466662,764.1566836753988 1059.9953527733228,763.9937080202868 1057.335829075549,752.0376354237447 1057.0098238844434,750.7985152532707 1056.969701288886,735.3630770166416 1056.7940648088766,733.9615174321294 1058.403774604441,724.7878849412297 1058.4145516355707,723.4930124120216 1060.111497128913,725.9546976633497 1060.2656523644469,726.0826162066147 1062.6581532711348,717.43885083311 1062.857164257795,716.6756536628742 1071.738894248912,710.8652229246869 1072.5430209688852,710.7111900970991 1070.818113448891,709.7657875717629 1070.5344153866822,709.282814812184 1074.724860044436,698.0051114185986 1074.7054905155742,697.6606763431115 1067.1888025866715,691.1589645591954 1067.1672485244703,691.0743717718357 1071.0303772711263,685.1438948665524 1071.1568617511143,685.0428609742445 1075.9656749777855,688.8701400541828 1076.3351523822125,689.0347804948757 1089.093555226667,679.0056951526273 1089.1602563111296,679.0045847677753 1103.8382814133433,689.0143531168939 1103.8493497155791,689.0378890082571 1116.7282659822154,684.5633360590797 1116.7968603289114,684.5768813904793 1121.7341241155586,685.99834554144 1121.770969911107,686.003785738612 1123.126472844458,694.6722262457112 1123.1239970400125,694.8582736912427 1121.1372367911167,696.7908655487914 1121.0327432800036,697.0145356603385 1121.045923297795,702.0821139367687 1121.3461509955591,702.2493788340431 1148.7931375200055,708.6100640148576 1148.8152013066933,708.6247132451168 1152.5854145689004,702.9011188481596 1152.8857150844483,702.7559430932666 1167.9672963111148,704.376051828243 1168.0937807911318,704.5594029260898 1170.7868734844446,701.0584239799424 1170.8068983733606,701.0193540104734 1173.5224917600058,704.107794313975 1173.7446588000234,704.4046866039349 1187.9050223200243,709.2274369214789 1187.9227898577878,709.2363151441601 1189.313827866666,712.3512625509098 1189.6426001333234,712.9837966100819 1188.8298080978052,718.6009364408743 1188.8342499822097,718.6243487806711 1186.0080463911067,718.9288192543096 1185.5168176622315,718.9771970615035 1184.2915129155513,722.6441338447981 1184.146459902236,722.933714849241 1191.48095775114,726.2871965055307 1192.1220454666832,726.524726152558 1192.8944964533216,728.6563454319909 1192.926026551118,728.9379074021195 1190.3762392444546,732.5626956027478 1190.2447303377626,732.7469516353809 1194.6748183022205,735.1617471358546 1194.698993804464,735.1698447154555 1197.7510053244546,743.5682822155719 1197.7629474400087,743.6700964900152 1192.68798523557,748.9586356321303 1192.4069814311292,749.1244280289317 1191.879416631134,753.3636650875629 1191.897693893326,753.853349892575 1187.3266307111257,761.3941259893251 1187.2746388177688,761.5407001194905 1189.9174872444487,762.7108400304347 1190.0039219466921,762.7335684837086 1190.8266900177764,766.4422835125075 1190.8146750844385,766.4715513498592 1197.8486539644432,764.9823087507463 1198.0493397599853,764.9780958435364 1202.9707292711314,759.8306813973537 1203.0256338755494,759.8152695897367 1212.1984893422118,764.8785381008998 1212.693140506664,764.703923587345 1226.7798124355681,749.0913804871594 1226.7289856266648,748.9100622471957 1237.4048000266844,746.1559480901702 1237.5650719555629,746.0095549999747 1247.7344387111148,748.8651484628714 1247.812280915568,748.8950909898045 1253.4839119911262,746.7359714495466 1253.5527247911155,746.7101311501534 1264.4172100533392,753.2215048735449 1264.6332604000122,753.213520825731 1264.8811321155586,749.0807342949917 1264.859359600006,748.8401963447319 1269.9206320622247,748.4427353096177 1270.0619713688861,748.0836427781975 1268.0586086666804,741.8099046012281 1267.3621794399874,741.6856825472565 1268.1498493422182,739.275608575546 1268.33101997336,738.8030979831598 1271.156204115577,738.6133161841204 1272.1098257333283,739.0827226968901 1279.0195046666554,724.6909175577235 1279.0645060533202,724.5273817912454 1275.1552836533588,717.7647432457376 1274.9455684533527,717.506870075456 1276.9027646844402,707.7011382733541 1277.1986961333382,707.7182293225993 1285.1340862844731,710.015484609619 1285.2907173244525,710.1580888564127 1287.8581993511248,713.5997890520154 1287.9768195111023,713.9098356147512 1286.8276093422387,718.19648948004 1286.0486775733366,719.192344640927 1295.8023276355593,725.254968010449 1296.7279872266586,726.2940750056947 1301.0741162933477,723.4107990205736 1301.3891988177852,723.1482922858628 1308.035350213358,728.0242125087312 1308.4073034222306,728.2772662363201 1315.9812261244583,718.7756965580407 1316.050257377799,718.6288980967435 1341.1114422311143,722.1229951671918 1341.3511583555442,721.8942118501942 1356.6025506400106,732.063060261287 1357.4102454311283,732.2540847858251 1359.9863927733454,739.7411273877002 1360.1824182311025,739.9402222763234 1367.5206297866894,742.1776889751851 1367.8741600978024,742.3538164523558 1374.3217374133305,749.9024812279164 1374.6980596889111,750.2243010592716 1383.3884973777817,755.4349268004513 1383.42570726222,755.4762869304174 1401.7248148177819,757.3754930465144 1402.1795618399988,757.4840456533199 1405.9767904977848,762.2909717532672 1406.0996340889028,762.4852180488739 1414.9685481511183,755.46275895564 1415.2729992800228,755.2438714288361 1421.5863734311201,762.7860101963666 1421.4982639199948,763.3594288091186 1439.6054238133434,772.7253118376899 1439.6826106578005,772.8087821725127 1442.454055280024,790.062822592539 1442.6376288977694,790.9734988521155 1446.9362079555644,796.213419312589 1447.0249728266858,796.302061983071 1468.801638995566,804.0087779022357 1469.1107504622264,804.1010640829987 1474.278628151114,792.8946463854151 1475.1385332888817,793.0955446787335 1474.3333871200225,786.2864257896214 1474.3283626933185,786.2069654254952 1480.3014593689072,787.8912347502115 1480.4331139111086,787.9667031786881 1484.1249752444633,782.224270251572 1484.1607287733418,782.1159878327377 1488.9613864088965,782.0204508655949 1489.0017274577763,781.9764506059943 1480.738948577789,780.2145273326383 1480.5150339111055,780.053261502129 1488.2173343555546,777.2803023903031 1488.6234391022367,777.333173683153 1490.4956569866986,771.4979619126894 1490.516774142226,771.17981311601 1487.2987380889022,766.5491553891112 1487.3040537866832,766.1673424664256 1495.5617354222409,769.9117447368113 1496.2166585155715,770.0056397724617 1496.0204874222177,765.4630215298163 1496.0365801511284,765.046167515458 1501.4636163111204,760.9828958915092 1501.5793965777916,760.76890867843 1491.778779048887,750.5656365187966 1491.740476897779,750.4267959687055 1492.1436689333418,748.1852269425941 1492.2793284533323,748.0880787717975 1496.3668815911,747.4761300932511 1496.5062548177734,747.2658612789015 1495.2129382666676,744.8551431870943 1495.0935899289102,744.718395528536 1496.6929596000186,739.9282433283585 1496.6939062311208,739.797583894098 1474.12847789334,730.8345859680045 1473.954079315568,730.7754578823439 1455.4797721866703,728.4456722401734 1455.2902275111187,728.2862523404107 1454.1505564711183,726.5219525754579 1453.3985672800113,725.7148357291077 1456.161929128902,714.8134438650956 1456.1064419822137,714.3034391080506 1459.2735784089086,711.5977607796736 1459.4527101422204,711.5766758990572 1458.8829110311121,707.4931597574683 1458.7094590844422,707.3012728020909 1444.5581249688762,703.506013723301 1444.2646693244528,703.3958012602449 1440.5291173244545,709.6892135875602 1440.5464479555444,710.2032560391887 1437.4435368088957,709.8007452249655 1436.4603511733362,709.6592498257302 1435.0880273333528,713.660821977384 1434.6673590311325,713.8040826339344 1429.2099578577977,706.1701361622323 1428.956479173335,705.2678294504946 1433.439505662223,701.8516937803576 1433.5157458755489,701.7868740642222 1432.294664560009,696.9660276286373 1432.250100080018,696.3313122066826 1441.0733573955727,693.4441419867286 1441.299602231105,693.3175910321658 1444.6423023200255,683.7582710978237 1444.9467534489008,682.4649909039505 1451.3512954577814,684.1224448125355 1451.4778527555532,684.2755524962191 1450.4779918488998,678.4184094816225 1450.4395440622243,678.1339251260575 1455.9570199022196,678.2092103556275 1456.4091454844524,678.2079889146622 1462.3134293600228,673.9679825660638 1462.7841234755538,673.5706492169771 1458.6843369510966,671.3266282909386 1458.3680893422347,671.2372298158658 1461.832031031117,669.3500553348637 1461.7913258933472,668.322093952978 1457.8719090044683,661.9424418558989 1456.3179048088855,660.7192948765074 1471.1893339289013,654.5209489268233 1471.55757343112,654.6403680753934 1473.8999757066554,647.0803491613693 1474.1495222311128,646.3677320821804 1470.6362829066707,644.9901352106314 1469.628557680007,644.6908124987455 1470.5126383200181,638.5274484296166 1468.4047821066702,635.4086701693519 1467.7440335911301,635.3227695944148 1477.8759720088924,633.8127645803103 1478.4144594755558,633.9074467083625 1479.343468684448,628.2081157800636 1479.5624317422403,627.536933426563 1476.781593626692,622.7652908373344 1475.8423171110985,622.067587923411 1476.5739901422126,618.1383010677306 1476.9854105866757,616.1422598688001 1490.1424907644464,622.9254600407218 1490.277058017767,623.053506148142 1493.263096631104,619.412301447133 1493.3581966488923,619.3217073293996 1503.303575920006,621.702337988601 1503.6935151200228,621.5962972324556 1509.3340530044584,616.8554893795296 1509.423400417792,616.8370362383208 1508.0598147111373,612.3398440741363 1508.1152290399837,611.5442874023062 1504.6064316000043,608.9478646481654 1503.7342930755472,607.9257829251798 1513.935626835569,604.6946438987139 1514.0968453955497,604.2739070191234 1500.9616833688992,594.6506769316107 1497.9580228533373,592.602739923204 1503.0941519911062,587.3472624486382 1503.8989340711337,585.7468527061934 1495.180170266663,583.7605405359715 1494.8824911910992,583.5737848080968 1493.3678085955394,584.9114268373593 1492.4942865333355,584.4841991091158 1492.6939528799917,588.2916481503704 1492.6228099111245,588.4268927366717 1486.534442693322,581.5560262843716 1485.9557598133174,580.6133051083085 1474.5037807200056,574.3338706620631 1474.407734071115,574.264784900071 1481.8020881333282,570.1510780589957 1482.0613194222165,569.9949834573996 1486.7673139466565,569.9292300041049 1487.3897603111177,570.0468296106916 1488.6331966844514,572.33757990579 1489.2502545333477,572.2441271647036 1488.9593475110955,566.8798970751883 1488.9855619111108,566.3627387764351 1487.4251497511063,564.8268123637023 1486.8825116711155,563.7709772421873 1487.2214784266612,558.9764594095828 1487.3448317422367,558.532672541383 1480.2187383733467,557.1794789109332 1480.056500364451,557.1882703253574 1476.371775173327,562.4792235615383 1476.1695602044415,562.3301174772274 1478.495651297802,556.9070556536095 1478.6807540888908,556.7648341539531 1471.492037431111,551.3148482056928 1470.653467902222,551.0307098947593 1469.344932435553,552.8381295832875 1469.0857739644484,552.8845385332312 1464.956496240025,551.1989894001523 1464.6240830844395,551.2889163327997 1463.288095315576,555.8830081586563 1463.288022497763,556.1051352674036 1466.8236896977828,560.8296872575371 1466.838253253321,560.9508670952706 1464.4679617688885,563.1349517305131 1464.3275690933292,563.2296438868431 1457.7580948177851,557.9137241127679 1457.6378726666803,557.8205807870032 1449.7684554222283,555.9400980270071 1449.5580848622262,555.8711005178408 1446.9254309244639,557.282527553885 1446.107177555568,558.078310321907 1440.6389993511325,568.5564001631643 1440.240394835571,569.2920516191294 1437.790950426664,569.5659713584824 1437.5317919555596,569.5787661140272 1427.529396364443,565.8985383442847 1427.2097263200044,565.8371193943964 1417.3389124533346,565.7903875388944 1416.3417458044491,565.2997006666043 1415.5060161688957,568.1690999855269 1415.2018563111264,568.8623664941475 1412.4939087911112,567.9562561851995 1412.2113758133269,568.3585781196376 1407.163793093357,566.23856665608 1406.4220712088932,565.9573981071077 1395.6561812177893,554.2115731401497 1395.4523642577765,553.946814255825 1387.943322195562,557.6457557928294 1387.4948375022282,557.5689706107584 1382.8875838844465,570.8157268225401 1382.7661238311043,571.0680553915805 1381.1821915289106,569.9088697818585 1381.1093009333485,569.8709307684691 1381.6649733955633,562.7122288297757 1381.5816698577905,562.6523641508608 1373.1798818399907,559.7591981594811 1373.002060826671,559.6541511247848 1369.3698372533322,555.4008022940321 1369.3288408444273,555.3398168071504 1353.2999731466766,550.755139966575 1352.8372161688817,550.5421176813612 1350.380125893345,548.4733992393664 1350.2623067289019,548.2591438241722 1350.9179579999832,544.276401535964 1350.887447351131,544.1348153312789 1345.5789585333328,534.8879595312679 1345.429099546665,534.525806037003 1341.4322045422227,536.9960397660685 1341.16285158223,537.2283734220906 1336.412875120011,534.4289493351604 1335.091014000012,534.4863953995442 1336.576642302221,529.4149910978518 1336.6930051111044,529.2217049334209 1333.8867535911045,528.2494741606857 1332.7914285777729,527.6387592822499 1332.0666732355671,528.668564286672 1331.9548251289011,528.9789828689314 1334.4363821777874,531.2309127101686 1334.379948399997,531.6674598130118 1331.7911307644458,531.5420962192653 1331.5518515466606,531.7557485672656 1324.3268716355738,516.7997554440732 1324.0878108711108,516.24203553261 1319.7291571466844,516.2873616225912 1319.683718853346,516.3038438278815 1324.6794553155555,509.8585917500819 1324.8609900355582,509.7732751757645 1323.0934841155608,507.79903950548726 1323.0157147288915,507.66504509543995 1323.6709290933281,502.5012784277129 1323.7819762044596,501.8861566799384 1327.6562460711352,496.84417212181836 1327.7172673688979,496.80885655160057 1329.6087819644376,487.9030403712601 1329.6320836533337,487.5994101705361 1327.8214696088758,486.65898161521875 1327.4284720622304,486.60237710967306 1328.3406603644612,482.4150424658361 1328.348014960014,482.2817663860693 1325.5973234044573,480.01045174209105 1325.3693309422301,480.0129034127091 1323.6294229599948,474.22654568419205 1323.4178144977845,474.12166993733956 1325.8692978044633,464.6343258894118 1325.8775262133345,464.2584454962267 1325.7895623377767,461.45932669655997 1325.7073510666737,461.1037136107258 1323.1976863555678,459.3627370526443 1322.7912903377796,458.9274007061973 1302.7869360622203,459.05270657815674 1302.1110414489008,458.55594069946494 1302.2341763110958,462.867821810774 1302.2067240089013,462.9252310181397 1298.5376546400144,464.5939734908094 1298.0872766844473,464.68783178673004 1290.2338065333383,460.65044294608344 1289.7770934311043,460.49727095384844 1281.9067295555792,460.82278879799526 1281.6065746755698,460.64955111622805 1277.8373080444358,467.7648908280604 1277.6915996711245,467.9053357186855 1271.541046071106,467.5378374977805 1271.4479121333347,467.5004967770725 1267.8848654489043,463.47501868950314 1267.4810180533455,462.9655846387974 1262.8484966666797,467.2862608694337 1262.68727810667,467.44554456591834 1262.567420044455,470.5002693290222 1262.4198184088814,470.70501877947356 1258.5147466222184,472.1580827072099 1258.4898429422242,472.1600889053731 1260.6359284888963,467.2410059353348 1260.876736880025,466.9028188720764 1259.0704919022169,464.37292653993757 1259.059496417794,464.24161330714526 1261.2144657333333,460.32403224861594 1261.655668648898,459.73742455726426 1250.895822533355,453.17394891515835 1250.3743016088915,452.90290667178454 1250.2585941600041,454.8254827284178 1249.9679055911324,454.9279424202756 1240.9788421955668,452.7926385901734 1240.940467226675,452.91227220137773 1232.4527542311184,448.5628158289834 1231.7733643644383,448.18270013175027 1224.3686701777692,450.12216591866274 1223.9326373244471,450.42901316683094 1218.4178557422197,440.5554126075946 1218.208067724459,440.1977687244722 1213.6683161866745,438.7628205733123 1213.5631673155654,438.72066485141806 1213.0590498400047,444.08589221865225 1212.9174192622372,444.6582816499937 1195.8857779466557,461.0718309460859 1195.3820973777688,461.49812071253075 1183.9528374311117,455.95141397708323 1183.7801864800053,455.77637716089487 1175.7102290755497,455.80146208909684 1175.5707830311217,455.8106041489442 1176.371924222221,453.83198175454856 1176.6519085777759,453.6383188902179 1172.3640337333268,442.1021649972314 1172.3193964355519,441.9530675415368 1173.7266728088794,440.13565197926766 1173.9262663377808,439.87792807454355 1171.344657662215,437.8501085251406 1170.6912637422279,437.8312608173652 1168.9787352444323,433.4706870099541 1168.9237578222305,433.31498567993515 1170.0032813777866,431.90852320558736 1170.0002230311288,431.33622434859683 1164.5246902311405,426.43903927473696 1164.2278121511113,426.0743876996927 1151.7038097333348,428.1522781523596 1151.2776072800111,428.1873031194624 1146.8072510844572,432.1733111927821 1146.3062647733382,433.86261520033406 1141.9943600622423,428.93531509293064 1141.6701024978024,428.5931003180227 1133.4403828888967,427.49114983414586 1133.3762304266634,427.48858427939524 1128.8796598311233,421.6625704676768 1128.7718167022463,421.5195533600996 1147.160854213325,424.8301591658452 1147.5598956355602,424.684138392338 1148.2366640622272,421.18699810386863 1148.2362271555535,421.12675641355565 1145.5151724355596,413.2223635120969 1145.463471813338,413.1408023015607 1150.1088091289052,410.2526095976424 1150.1416499466645,410.21679215611186 1149.6445957955507,401.22040902889387 1149.621512560006,401.16907342631714 1124.2492501600132,396.468203340664 1124.2075983911122,396.4346091064723 1123.7411277066635,398.7766696524992 1123.673043084454,399.03425116881374 1119.6563416444474,398.8956394281046 1119.3899013955738,398.8119365171075 1108.0382652000185,388.0640951168822 1106.665941360006,387.50908905381914 1104.7204687911212,379.19605389983155 1104.4519896444467,378.70749871349074 1100.0974865333187,378.4536180035135 1099.9821431733503,378.4257066842762 1099.8927957600167,374.14126298338635 1099.8955628355684,373.9801460303785 1095.988961875562,371.6502059429546 1095.89874064891,371.5990660740423 1075.1418874577862,384.5598278047179 1074.925254568901,384.68206565477124 1067.8213706222373,395.4176204594911 1067.7041340000064,395.6944146649399 1058.8120638844625,393.18122848799214 1058.7098277244436,393.2281069282395 1060.4448569155716,390.85790529779445 1060.327183386667,390.61334513268196 1056.5117502844437,390.71380357022974 1056.4173056266513,390.6127870297129 1057.335537804443,387.9933243412885 1057.3287657511023,387.8688613211922 1052.0694289333255,381.3604485832981 1051.896486711113,381.1955570125207 1046.1494164177925,376.23775014833484 1046.1386393866628,376.17578450573603 1039.761840951112,375.18108683150024 1039.6471529511105,375.2207232371653 1036.1778227466634,363.1646921912394 1036.1682836178002,363.0647418397199 1019.2444126133411,356.2882429912057 1018.910543102225,356.18392422144063 1022.9970767911069,349.619038817989 1023.1407462666754,349.39641276426084 1020.5233112444472,344.2685034264356 1020.5192334489035,344.1548895314842 1008.3249499288864,336.4518341079307 1008.107079137793,336.46859368094704 1004.1278060355468,330.7907168357266 1004.1017372710991,330.7750729530304 1008.0357905333582,326.4655725491972 1008.1046033333474,326.41997820778454 1008.5468985155818,322.40864573287365 1008.5064846488891,322.3699770935706 1012.2940285422443,321.31831379101607 1012.4545189244451,321.2365044955583 1011.5540542844461,317.814375239897 1011.5454617866559,317.6008972383057 1014.5654334844509,317.0987177085259 1014.9107353866635,316.8809896589006 1017.3876320977939,310.82941443418497 1017.4415900711098,310.75865602332453 1024.5473672800067,310.1597209933749 1024.569940791123,310.1487661672505 1025.350183280017,304.97907433316107 1025.3414451466592,304.90428378771287 1021.1677485777833,309.13230530365365 1020.8884195822244,309.0926212530827 1019.7956431911222,297.4792786115064 1019.8115174666815,297.3924023971118 1012.6495249333453,291.53671853863455 1012.6235289866814,291.46593529517816 1008.8643112088972,292.7898911412409 1008.7196951022266,292.7986130419373 992.7313140888942,283.046663921668 992.7050996888789,282.9122331964387 995.8059719377849,278.4977570922707 995.8750760089093,278.50849453037483 993.9872751199943,274.0108902659191 993.8203039555589,273.7862800363142 998.1421118844661,268.0738470170396 998.1735691644495,267.9776391289121 996.008332542238,267.6918112120253 995.8766780000075,267.7610588946915 996.763671351138,263.1353680568351 996.5214794222335,262.7669473232014 1002.2724818755593,261.661782185001 1002.4289672800002,261.6517127507319 1002.493920737768,254.35200624317042 1002.5110329155647,254.27804196123145 1005.7756723466806,250.5202792440174 1005.8954575911117,250.48122428733734 1002.7308697866753,242.49821124326957 1003.08316219558,241.47725273390063 1013.0613094666693,227.99517224560952 1013.06808152001,227.95654907746177 1008.8429027822345,227.22539058852237 1008.3554605777969,227.07727691173898 1002.7168887733493,231.33513393751457 1002.5614228177943,231.31341672628298 1001.4645686311193,225.30939795281267 1001.4253926666639,224.722965906352 1004.5042739466659,224.50308026429377 1005.0114497688843,224.64582689895872 1006.1618250222306,221.5026280896924 1006.2929698400036,221.07010788418813 1009.8479337511304,221.64583037897648 1010.0781107466679,221.77436503215688 1011.4795616977859,214.61560155303562 1011.6068471733375,214.29993340236945 1010.5871070133359,207.58413668839023 1010.4280729866656,207.18712082670356 1015.4827190311404,204.00853859323945 1015.6923614133335,203.8725703294691 1019.0786065333592,193.20002727365465 1019.1314722400053,193.03613865574118 1021.1175043111213,193.12082757200517 1021.3532154577912,192.9222116932575 1019.8050366844469,189.5976135196612 1019.3890287200117,188.57130187305268 1023.2451669600047,180.33300220291824 1023.2201904622267,179.89634790365346 1014.4800910488772,172.73133742335597 1014.0816321689123,172.6655558717972 1016.158904915566,172.53847510432354 1016.8995345333311,172.5873351167462 1020.0933950844698,163.8393549055687 1020.1311875111202,163.78970252970578 1025.7143449866921,161.95286930005352 1025.7800994399945,161.90287895936456 1021.9296409866726,157.38069438673085 1021.9131113511172,157.3573785690602 1022.1447447022143,149.6406438816117 1022.2123924177791,149.4401889303041 1020.4355658222117,148.9566500076686 1020.3366064622311,148.91371091752774 1020.808028755571,143.65795916840545 1020.9379356711066,143.32080339873903 1019.2666220355674,139.92087475941628 1019.122588471109,139.65916055023956 1010.610699973338,131.1219280973961 1010.5973015022242,131.09725533097628 1002.611448631105,127.84113783608302 1002.2747392266825,127.74513254082524 1005.7539726488827,120.28301065913513 1005.8370577333332,118.95567426234595 1019.0266874577861,117.71827122654179 1020.5905948711221,117.0757214976253 1021.6210392444406,119.86539615521144 1021.8542017689102,120.34975240845927 1027.0520075644376,121.14672114025564 1027.046254959983,121.24666390370805 1034.2387581422295,113.30653563264752 1034.2350444355757,113.28982001380757 1029.8274571644502,109.84775240509009 1029.7938153511273,109.840347704892 1022.510362764449,97.85037788098964 1022.2561559022357,97.4321436480601 1022.050664133341,92.76132668609318 1022.0381394755456,92.52183292760276 1024.5987766311223,88.77363053060947 1024.6179277066908,88.62256127800322 1018.7350522577832,88.88519254950336 1018.3144567733467,89.02200723057433 1019.4445886844547,92.36976394846681 1019.7772931111173,92.81351239437174 1017.1235948355821,94.90830671659899 1017.0097078311152,94.97485490851216 1011.2453069066756,92.6158798047469 1010.87400905777,92.59242421444617 1008.1376626044581,95.62035695664929 1007.5790046133403,95.60172817926616 1003.6834719555696,94.5664744274178 1003.0248351555562,94.17324121337845 1002.4715656800032,89.83649084595493 1002.4402540355583,89.7920464134437 995.3120489511417,84.36506552634057 995.0638131466764,84.39020830448828 997.6714905866899,81.62308657795768 998.1073049866606,81.03287192789833 992.1594032622303,75.57336580957747 992.1297664266673,75.52688908453968 991.5863273511128,73.93430773594412 991.4841640089068,73.70977541607101 994.0753846311196,73.96214967952221 994.0937347111245,73.64915153201548 989.7615866577904,69.01313432661811 989.5349049155553,69.05613602139749 989.0072672977764,59.65850945562818 988.9933591022342,59.21000069575496 984.2197896800132,62.94192198667554 984.0572604000114,63.31584123871983 985.4587113511003,59.936663895590414 985.5095381600037,59.835823248423935 981.6349042044673,56.501688905591095 981.5443917066801,56.27674825417455 983.4259302666538,55.18796854658979 983.8313068355561,55.01389655163041 982.8195038133487,50.9551670198922 983.0657007200131,50.236471361604 979.6818585866782,49.62323085786886 979.6204731999966,49.521809651697936 983.7847034577932,49.45307224906685 984.0094191200111,49.576058227168346 984.8419447733392,47.000370950954334 985.0434315644449,46.50155060855434 978.3559196711354,45.10873840191164 977.9808352977922,45.1435591385449 978.1643360977829,41.221594158741595 977.5030050400015,41.091175435438004 976.3655185333406,45.806946107586214 976.1182293600065,46.435280507335506 968.8000426933355,45.75471562665882 968.5569769511127,45.593643249397815 968.8157713333272,47.54961845096079 968.833830142226,47.869841804647535 963.8739928444626,53.452614494373506 963.7861746044433,53.75943879306544 965.5646031911089,56.53953454601981 966.2055452711135,56.84791377557087 965.5676615377957,59.42549647438102 965.4465655733435,59.76709878123768 961.9808034400118,58.66569883056911 961.3683331111166,58.59540073316714 960.7421002222178,54.2885157503257 960.8436082044569,54.08535349820852 957.505714088889,50.750532335172124 957.2177197777852,50.34867341438769 952.9864243466651,50.10966816457915 952.9253302311187,50.07136882414454 944.0886016266664,41.55600836408087 943.4990688977774,41.1437473612383 938.7153778044518,29.52446236565413 938.5264156711124,29.215030460974617 931.5595747822441,30.30466344697163 931.2667744977877,30.398255370637003 915.3657019999879,26.14578479759041 913.5760594755772,26.510179636366615 912.2809224800218,21.82353778734216 912.2965783022297,21.808929328900945 905.2588857155421,14.18930069059536 905.1343673155712,13.93665097340238 904.7771961155591,8.080650242328943 903.9843561511149,8.052549999999997 901.5102265155653,20.253668082462923 901.6636535733484,20.71429521729408 894.2589593866793,20.588659803273572 893.6417559022444,20.21062807180681 894.8638566666701,22.907586905821177 895.0258034044597,23.24941695662676 887.4796242755616,25.37574974165875 887.0063087199884,25.475754905964664 888.0958811288943,27.008170759923473 888.0765844177873,27.198174754077286 886.416921626667,28.20054446749384 885.7959316177654,27.813014623148433 889.4957300889142,36.60305447041867 889.2654802755638,36.87245095687797 877.7084979466814,35.17774751314539 877.3046505511226,34.60467086900428 878.9674445066554,38.969047317011814 878.9954065333364,39.255732069963074 873.5698267289041,39.99434281228571 873.2465157955663,40.23294284678525 876.6772525777993,40.817306339427546 877.0613663555774,40.89066025531031 875.5820003822224,43.56638222189906 875.9125930933293,44.13700627472247 880.4369072622281,46.451454912319264 880.4386548888939,46.58680304462143 878.3385901778016,50.79512074817433 879.4784068533405,52.946215875177245 872.6719835288892,54.346914931629385 872.2682089511142,54.22247967802798 871.8799445600085,62.0378802463307 871.9165719022054,62.38856172783528 869.8971892889018,64.37167213010946 869.9005389066657,66.08209073117871 871.8297002933465,69.00280493275898 871.9655782666592,69.23263348575676 876.6945832089183,68.95037200135232 876.9910243822447,69.16807500078687 875.068853502227,71.87564872028418 874.9666173422371,71.90225673851785 876.555501253351,72.23749420769275 876.8627194577781,72.3579591471422 873.5463794044696,75.82651732772467 873.5828611110989,75.9899706358625 876.282216133353,78.98997075312184 876.443653146685,79.25073983750883 877.8349096089147,77.96338389231062 878.4226218933542,77.6966589984728 879.3752968800032,79.03476070991712 879.4059531644522,79.07427462639282 877.5127637600305,79.97017768533954 876.9779171822371,80.27124093211717 882.217884471123,83.5423066474392 882.5473120977764,84.00004496638542 882.9291685244604,87.23643094780675 882.911328168913,87.34631251765643 879.2053401866648,86.72316100437422 879.1047060177731,88.23343818812975 882.653334782233,87.70828038069124 883.3480163822311,89.00012139394642 873.8733312266774,90.37397382013262 873.5496562044497,90.3796976656082 862.927144417779,98.2231613799155 862.8251267111115,98.2764640511956 860.3614828355563,95.1935768118343 860.2572077777946,94.94376916955628 851.7410230310994,94.66186447954499 851.195253786667,94.33046750291362 850.0164067822112,96.11962827678474 849.5020220000075,97.13240902245855 850.6980540000146,99.95900637386478 850.2301269600063,100.83212607075222 844.9745038488833,100.96913536659088 844.7079907822259,100.84200062603452 844.023867760006,105.51886143399281 844.1125598133436,105.77546515165125 836.159110853339,112.06126417386224 835.4610068177932,112.87686408090633 831.2618240266817,112.27049419249636 830.5348841511073,112.06406887109154 829.7360003111022,115.27871852624924 829.5548296800185,115.59349837974116 825.8656626044609,116.23920649510512 825.4773253955715,116.24133790263261 823.8627368088997,121.40201789388777 823.7020279733184,122.0586500433925 820.3023843822081,121.9020640675659 819.8682447911193,122.26896359833302 819.9715003999951,125.18421899576026 819.9061828533373,125.38633284104401 823.6067823199916,127.88914042071667 823.9520114044495,128.21338107795566 821.6581785866653,131.34016944838334 821.2966383200034,131.4841678910667 821.4770807733363,136.80276145070786 821.4183168266678,136.9996741972351 818.0509315111336,140.40415692874342 817.8289101066836,140.51303499231983 812.3115799022268,140.11934614224413 812.0833689866773,139.79181190997008 810.6238822666706,127.90450572514203 810.6252658044465,127.50276328504663 806.6897561866568,122.9695542953192 805.9078388889099,122.39414184343298 789.9497500711365,118.49149715508213 789.4459238666819,118.44909508719104 770.8614434400002,123.63929089456326 770.494369022235,123.67417395344057 767.6819279911357,119.16454146168655 767.6045955111109,119.05079755379813 763.8410814844607,119.68681815265847 763.5749325066641,119.78194017612952 764.8340975199895,115.69378780388035 765.2562221777695,115.20254736363825 769.9792560622224,114.35770223531983 770.456430960017,114.09822189337103 770.9528297511057,108.62248530334148 770.9759858044632,108.28500192688773 775.870141466679,106.17220557171788 775.9740524355508,105.97866033508728 775.096816666664,94.50194576864999 775.0690730933344,94.43180583601463 772.3085511377791,95.86903930627852 772.1259241511358,95.86926374832512 771.4951765599905,98.17681606781082 771.3525993511208,98.43581067532762 772.8207513866724,98.59684006803548 772.8808988711168,98.7940022414765 769.0045172889146,103.12824894258631 768.9314082400011,103.22721469283681 763.5308777511306,101.45006782626263 763.1722501955588,101.7191457897494 764.5209082577854,102.63285647636042 764.8150920800177,102.76963685936755 763.2934189777949,106.39974657633104 763.0404500177898,106.82587852162362 759.3221558311267,106.80310220074136 759.0416617511142,106.4268988422333 759.0812018044595,100.82629110542587 758.5462824088823,101.08280457168405 755.5089072622137,104.46685218043388 755.1837030666717,104.62090727120051 756.2819407911226,106.98778086505592 756.3222818400023,107.16684901255178 754.9767549422173,109.15024769682316 754.4705985688848,109.1487891767971 749.6748197244666,107.01010831636779 749.316483440001,106.72265571081482 744.3160866400063,108.24102122753504 744.2691919911082,108.24281635881164 735.9309010755456,103.53140421969113 735.3520725600025,102.5922374618309 730.7499161866505,107.39068337466563 730.5894986222335,107.47034350367142 725.6348313866544,102.88173143896677 725.5621592444437,102.75246920080792 720.9321864800073,104.98410754571489 720.555791386672,104.90904410879705 721.2831681688909,104.05057588127204 721.628688524455,103.6174656497675 718.0351311911141,101.68245341792465 717.9001270311197,101.23978663044511 717.8835973955644,94.73043299094536 717.6133706222241,94.07302464938368 705.9073303022375,98.50471111447371 705.5972722044459,98.67763512522617 702.4884628177748,94.83726951872052 702.258358639992,94.26223516424182 693.6292335200193,92.3206079816224 693.5535030311217,92.31185417467316 692.1849657155759,93.18722795067117 692.0895744266523,93.74622535405035 693.4611700888851,94.97665047413432 693.7658396711118,95.42318337146537 692.58670139555,101.01727368654213 692.4591974666761,101.86165109882825 685.3114772178011,103.95868049887179 685.034551208904,104.22718513374969 688.858722444456,107.1803127593954 689.3005807200167,107.20320112148295 686.322770515551,108.58220731004951 685.943317075558,108.68307053003048 683.1012392088957,103.52411087195617 683.0600243466685,103.40921246572509 682.5017304444406,107.57726741042973 682.4034992622397,107.80278304650676 678.8842160622368,106.31873849652004 678.7670522577897,106.20496794419125 678.1532712089025,101.28545609422838 678.1788302488927,101.01918126480416 673.6355834577768,98.00366604435078 673.2100363644491,97.17550088527025 669.0886957777908,97.82670009573451 668.9499779111135,97.88987823934406 668.6050400977907,89.30652231172246 668.6724693600041,89.0648809980263 662.0336725600133,90.65859411741951 661.3752542133512,90.60651858986932 657.5976863555621,96.44506678879372 657.5357912444521,96.54572789604538 648.2451894311304,82.25707195723191 648.0887040266895,81.69458989919042 641.6999634755554,79.35962712078583 641.5527987466845,79.16991614718393 644.7002743733534,84.03158589176712 644.4465044177847,84.27807591482235 637.1137541955464,83.27987427400478 637.0987537333345,83.29772151115287 642.885509715568,91.11301833538857 642.953084613349,91.39550242288499 640.7122631377785,98.78637161848712 640.7170691111311,98.94728776699742 647.2680476711317,101.91775544960512 647.0937219111144,102.71128923976323 643.8295922044559,102.40350451891538 643.3693838488904,102.25505359669444 642.1201220533472,105.04727744364175 641.6723655377933,105.01911467398861 639.7899531644431,98.23730061986828 639.7892249866633,98.10039671461675 627.9887400088843,95.84603399185983 627.6135828177863,95.82807861779986 626.3402911555673,99.43687841662143 626.055428008876,99.73076536393603 623.2659245777828,97.9585549309628 623.0535151200089,97.75375898683671 623.3222127200057,101.78635896984599 623.3348830133397,102.00045315802674 619.9453610933339,101.80722982370173 619.809191848915,101.908442131367 619.6562745155603,106.52552204205824 619.5540383555705,106.6216766861395 615.9788311022345,104.96525754431025 615.7643827466887,105.21064366290341 612.9957052000169,113.80127076959582 613.0005839911242,113.96360125824106 609.4371732177748,109.10121896398016 609.1425524888979,108.81456268065779 605.8265765244502,111.00264901242156 605.4141366311011,110.78219510720339 605.5711317599995,115.56152688047553 605.6697270311194,115.90524756591878 604.2280078489053,116.96836739595858 604.1935650399897,116.9699378859001 603.1975634755578,111.76677016786527 603.1797231200104,111.46329945211585 598.489821324452,112.37303343832139 598.4585824977909,112.38032560933027 595.9551072977844,108.01719033605298 595.7008276177872,107.54416926639499 587.7388589778053,113.8951689753809 587.7446844000148,113.93331156980241 582.3994226044521,112.66236360269943 582.2242958489002,112.7095941670483 585.7600358666747,111.15556384702325 585.8335818222328,111.12145815417864 585.224315475563,106.01849143960101 585.1315456266526,105.78904144082446 589.3704869244608,100.24166931665206 589.4950781422154,100.05405040804874 584.0708090578042,99.52575161151583 583.6274216089001,99.5762476807937 578.0023939111339,91.71176615439583 578.043972862222,91.31963476959902 576.2672190844384,94.45481174381678 576.0464355822256,94.80001142551885 569.287052542211,87.94981543621509 569.0742061777925,87.34429222520669 564.2282558844669,94.44358935097227 564.109053182248,94.46165740231629 561.8681588888936,90.1792504863912 561.9469477244489,89.84389824787615 559.3360663022391,91.10965141258896 559.1104768266738,91.2360231070121 556.6753775200119,87.31005948063796 556.3684505866619,86.96952668732376 558.594417235559,82.45563987861499 558.8538669777987,82.38492329038093 556.8925201333547,79.48636266576761 556.8361591733479,79.01904493975564 559.066786160001,78.37031646780781 558.8374829777819,77.45979363189656 548.2165003644546,73.96057795728086 548.0214215377706,74.2100321666436 546.0610941422416,70.34426253246022 545.957401626663,70.16136904934649 542.686135777774,72.45540869012586 542.156532080007,72.65636975822383 539.5665493600023,67.99814980303165 539.546378835577,67.88194185811847 518.7205672088963,78.00065342902201 518.3901929511118,78.32496468342254 519.8437814311252,73.1763952027901 519.8202612889069,72.97319068323816 516.7950467111147,71.13825343907922 516.5524906933493,70.99151418735676 515.0355507466662,75.30505760285416 515.0206959199928,75.44549858949142 511.5485986399941,74.85016554210563 511.0082179111265,74.644946466629 508.51348084444874,77.10707563002472 508.49090733333253,77.14120248682559 511.2054812711209,82.79530272802333 511.29242569776363,83.13720841473662 510.6571634044591,87.44912285754219 510.6503913511184,88.15273997632141 507.6376286133378,89.75815189777461 507.36237741335174,89.78138423362509 508.1201192088844,92.04463793393336 508.13344486224344,92.35393977215392 506.4902388888946,93.86810196734552 506.2694553866819,94.85107296246099 499.5240533600223,96.63819679941628 499.32096457778937,96.82492964338564 498.70164937779884,100.57953883038829 498.95170562668466,100.70106362301851 504.0764751911116,98.58112990420307 504.12992343999906,98.82070941365203 499.5931574311177,103.45903172609508 498.7966037599905,103.40786599860405 498.02786648000586,108.11412773654558 497.6578793511213,108.40965111532535 492.13079156444985,107.52711529963528 492.1105482222407,107.50905155274779 492.19443430222566,105.2407137655897 492.4670640622277,104.55470739445411 495.96777872887435,104.01870985647076 496.2683705155574,103.95688522735838 492.2706745155516,101.65036159859267 492.0907417866762,101.62870522039123 478.9609682755614,103.75155065954425 478.85050370667125,103.78655857465458 475.91951533334907,107.49951478957485 475.086625591102,107.96524348727655 473.362300613349,106.20653874235688 473.1300119022268,105.59964629312856 457.3948911200056,105.92345774239914 457.0792260533559,105.65507361376478 456.6605966489075,109.64288866424579 456.1918686133355,110.10456025231508 435.09903419556906,102.76873920414766 434.7174690399912,102.64778002940113 437.05404589334614,111.05470517419565 437.3578416622255,112.56453674621991 424.4026123644504,110.87351810471557 424.15000749333524,110.75504499754572 423.0270845422416,107.7220014327246 422.9788063555676,107.71392326479656 425.25254146668124,105.10034907785996 425.2820326666766,104.7557752473291 423.9130584444571,102.47621502806544 423.69904699555593,102.41741826578038 419.372505911109,104.11329803796946 419.29277044445155,104.2195552667323 420.09704280002154,112.1198262219765 419.9123769155773,112.26881138051215 412.146215280001,110.92635972056416 412.0861406133405,110.62355749942765 410.1896744089096,113.43465114621324 410.1636784622166,113.44856209462853 409.0202208977786,110.81102806020465 408.9677920978062,110.28833026721952 402.602061964462,109.92830650319922 402.572425128899,109.42770237744082 400.5606883822253,111.12987238955213 399.9584853600023,110.98290355881147 396.04758815112984,107.94448717324815 394.437004542218,107.70764024445782 393.0063536622398,98.92001958259027 392.6671684533427,97.68395986562939 394.93107316445787,96.47446837989958 395.3423479733534,96.34732321796002 394.57310096888216,88.36980555012235 394.52795394667885,88.04095199293045 396.19751995555237,86.11526718471544 396.46592628444307,86.08249280647544 394.9103200977912,82.04233941596578 394.439698800015,81.78461435627071 401.7711383022321,81.4751406344509 401.46064329779585,80.70296408961406 395.92044831111673,79.5961475157161 395.74284575111926,79.72512759538188 391.01857396445814,73.45100077658537 390.9570429422089,73.39430595275883 389.1805804355605,75.1621464613196 387.3065421066782,76.71663593366213 374.86708112888266,76.87817816944846 374.29742765334197,76.61088669315325 371.61831597335515,82.81741553717404 371.2285952266899,83.36967163469637 363.7673944444465,89.28912596846169 363.7386314222309,89.31045051750664 361.9524113333388,86.55626025208733 361.9004922577657,86.5267411017918 360.6047727200272,88.37597855024035 360.5929034222278,88.40931273894205 353.11357101336,86.6511030418402 353.0585207733453,86.47780437657605 353.27544493333664,91.89548558943318 353.1927239378052,92.37010063300079 356.3014605066634,98.83181869572547 356.6222956355847,99.39188069609338 355.38082534220996,101.65260578237178 355.2435638311214,101.81631874146808 353.77133399999695,100.50323503715447 353.1702960622275,100.16693602447742 352.08392763557606,109.26019755620621 352.1186617155687,109.84012332001987 349.0978162044554,112.11634840095178 348.51454580444954,112.2146248071873 347.7839650400052,109.7881781979155 344.81518424000353,108.97152260808036 349.45753602666775,118.46031256866229 349.76227842667834,118.64887808857713 346.2378979822166,118.74557235120267 346.03393538666535,118.87558211776889 345.2488869244477,122.25752256168164 343.5882775022252,122.66468739721279 341.69712699557533,117.09669871134213 341.8182957777823,116.40388552752086 335.8658793511055,113.56759030753858 335.6059198844665,113.56725375311328 335.42067145778094,116.23483150045615 335.0734762933349,116.98934465074092 332.85843231110596,116.81995589371184 332.6805384800024,117.04442392856402 334.21466342223687,120.41907400497405 334.462607955567,120.76971879640007 330.8771333955589,124.99960159169098 330.5321955822361,125.07620779530373 330.1739321155543,130.89067655098154 330.1546354044473,130.91691950102506 317.78187551111444,129.89870626349114 317.6727944800001,129.8636028597026 310.0180440444452,123.80080712220627 308.16738022221364,124.60804464005162 300.18087199112745,130.59538642301743 299.72597933334293,130.60334907168692 302.31253961777077,138.16510060127587 302.8356625333614,138.55375745741878 297.5383148355537,141.4467312037665 296.45507757334383,142.50610451700743 295.801246746683,140.07169064973243 295.65524710223656,139.85729648662493 290.6177132355584,141.64116048030667 289.9394156355771,141.80183882611857 280.1901346400042,140.17305663596892 280.03838239113213,140.18438180642954 280.1637746044504,137.6913302251411 280.09124809780735,137.54488108699263 273.5507552978012,132.31394594502456 273.3732983733422,132.253386814387 272.6687135555618,135.1148448359669 272.6359455555572,135.2175656675314 266.964969839995,136.02699012007326 266.4745421066833,135.8549687987612 273.96355928001105,128.43286769898953 273.9772490222309,128.363107611112 266.7353753866697,128.28919771061157 265.18741506667686,128.41682961589652 264.29685364446016,131.2737775157217 264.03551063998714,131.56188651966625 260.41573890668917,129.24474747085299 259.5032593333232,129.50740858470783 257.8773111733386,124.59884733631736 257.5446795644599,123.47194163478673 259.4332814489095,119.03823410966254 259.6597447377641,118.54040531960311 248.9363075111247,115.20221081923921 248.5376301777793,115.11919647097932 243.0388685066788,117.14628118457733 242.9348847200232,117.28369843841176 246.66614047112637,119.93696179959045 246.70910295999022,119.97745579836885 242.52229919110653,121.7662287365016 242.32081240000082,121.80571187320277 239.24964980444167,128.43219477253263 239.31999177777436,128.76888128466783 231.35787750222482,131.0353490680933 230.88194050666755,132.0094674167991 229.73061862221914,131.45568224782585 229.37767085334747,131.26716074776016 230.89963522667642,127.89508466308291 230.0681290222343,127.70352271694685 228.44480230223382,127.65294038184913 228.12221954667586,127.67862410107739 227.1403446311084,131.46499055019342 227.047283511121,132.2215371707058 225.14528315555765,131.13964762284706 224.99171046223603,131.10723658782774 223.9066527555766,122.65952775153676 224.04704543113587,122.40075968176063 221.2205505688977,123.1401578796864 220.44722576888273,123.21328956270702 219.95352123556188,116.82175074422378 219.9691042400151,116.57652875062888 216.4300874222314,113.51452686660161 215.8678613599983,113.38528968780122 216.7697823555569,114.44890709633876 216.7322083822288,115.12222537509626 212.5929546222393,115.60348245813623 212.3549861244461,115.72990990055371 209.24683209777106,120.32126098254923 209.1553001511271,120.26439025745606 210.69503206221964,123.12793186795136 210.75379600888812,123.20768130824547 206.9689463733299,123.11256522549195 206.46839696888458,122.92401505029522 205.7204855733504,124.58460272872583 205.38319362668665,125.3493198174325 206.6884522933466,125.5283280272921 206.7190357600117,126.53933210063371 193.92487938667875,122.53053645193688 193.8265025689103,122.48095884563338 193.80473005332863,126.8670576225046 194.09243309335545,127.008151717229 188.9418860355578,133.5181615910475 188.87088870222908,134.01506946952543 175.35838495111204,128.77291881858366 175.35044781334693,128.37768770111836 169.03197641779082,129.79507825912845 168.8301983555499,129.9352676122577 171.51448009777926,132.9187485580693 171.52897083556275,132.99298865668936 166.3865065511269,134.48651661109 166.12101293332637,134.51511282259128 164.08204233778054,138.0854850370739 164.0625271733512,138.2145519005786 169.88642022223905,141.53755465397956 169.97627736000106,141.59103950433894 169.93564504001517,147.11012667156285 169.96761204445613,147.28648522735568 165.2879047377861,146.52016786620482 165.13615248888493,146.54752451510979 165.67791675555748,149.56676263971133 165.20452838222957,150.2064655120845 162.2031980355747,149.20161519264332 161.99355565335247,149.1104680913919 162.24601488890005,152.25232111110347 162.23960692444928,152.52619472527988 164.46695711112227,153.31036478756107 164.49987074666535,153.4041953938937 162.65838196446532,158.5399712518771 162.3109683466679,158.88263813262859 170.06919284444996,163.43361634185533 170.21475558222266,164.20787948763575 170.34327896001162,161.99153892696597 170.361774675555,161.72073887993577 177.15137709334488,163.23074593515014 177.69911241779448,163.34686411607947 170.59042249777815,164.9409984348382 170.4768267644755,165.17031325124083 171.98735874667875,165.64373435747223 172.17675778666273,165.587919297344 171.2256847911118,169.88080592196604 171.3184546400222,169.9556684471678 172.57288649777877,166.40507749155915 172.73563423110284,165.6738834326021 174.60253641778365,168.38241324676312 175.61135391111713,169.44720644353185 171.64030921777123,171.55230041751167 171.78157570667793,171.8350429946073 177.55966637333734,172.45184933316307 177.63408614224284,172.5683962638792 173.66296863111313,176.11063251061535 173.53342580446736,176.62104979884282 175.93488329777722,182.32697907595832 175.99889012444294,182.429611574065 172.7525279555772,184.03473198704125 172.66288927110838,184.14934963765666 172.5741972177999,187.4784230012516 172.60616422224086,187.699129149834 176.57356802665856,189.82637723841583 176.91122406224133,190.00483916416817 175.40040080890287,190.6367891285114 174.80009104888416,190.56441940743355 174.24143305779546,197.0411316785245 174.1501923822285,197.13634374357173 179.37887291555637,201.79962861403294 179.506158391108,201.66007072479226 179.5700923999899,206.10939587935684 179.78308440000512,206.3558980681188 184.487476933347,208.8544561673258 184.88790189335816,208.86901489079867 184.41181926223328,211.67183323010215 183.3510826933267,211.2047441026731 184.3460648088727,214.30508444031113 184.64119526223624,214.68155681898463 193.41442676445115,216.61829957055272 193.48586100445357,216.84403942479514 184.35021542222933,218.54624033321272 184.1744333066814,218.55698949375767 182.02004653332517,223.11769090826385 182.22000415111654,224.34264379995113 173.818143315562,230.93694638519776 173.61090392000153,231.0821390882262 176.55448976890295,232.43206582547975 176.58310715558002,232.48882045629546 172.65546185777168,235.42945847371413 172.36746754666785,235.5633337935211 173.65663348444616,236.7120064478728 173.94987067554723,236.73887045949925 172.8164619644591,242.91220775800286 172.5744156711222,243.34623481758865 175.24034733334668,243.73190941526957 175.26168294222555,243.98406258552097 172.7637418933515,249.62726785065718 172.11398886223435,250.14237381300302 174.09820048890072,252.12385850985413 173.99523615110195,252.75755596311467 170.37903248889018,251.86234287988157 170.0001615911093,251.83503865163186 172.52650157333812,253.6236607396055 172.92233901334805,253.65689472067572 170.17572525333492,256.98041510857695 170.16538512890804,256.9964156800485 172.9649374133511,258.717512884126 173.82804653334426,258.6761140911764 173.98729901333684,269.29556067793567 173.96873048000964,269.5319352518487 182.48950274667698,276.74349997417414 182.53195551111241,276.82112513410505 179.7482046844449,277.82822894302774 179.37290185780842,277.82945928959055 182.4940902666782,279.3211782909126 182.56217488888763,279.3375078992609 179.29600628445735,280.3201834827556 179.0822132889076,280.2904328067449 179.5778110844327,282.5791746256506 179.47047767998413,282.9074241044942 188.87744230221836,284.1356301493721 189.2625755289115,284.1159468596521 193.8413573955546,291.34896941985755 194.14325990222972,291.4196409918728 192.5074085244629,292.35938534829586 192.4174057511333,292.70591482133716 193.48556973334746,296.63958126662294 193.4612485955655,296.69257985371917 191.42402562668542,296.3797309146536 191.1741150133381,296.2978845081303 184.75646580444993,305.33167293348345 184.58964027555305,305.63228549040616 186.7821835644496,306.9932382514886 187.33749193780352,306.9436033064627 189.35782118223835,302.4379275092866 189.6241886133281,302.1668127428344 188.1598231022432,307.8994034938438 188.02139650667198,308.19240043473076 189.61501357335476,309.7641162455326 189.8175926311302,309.90328806229047 182.84718367111748,311.7400994720007 182.45025396443782,311.6638649705343 177.87780724446168,321.0162223040021 177.79064436446754,321.2541627964016 177.25739977777232,326.4973097645485 177.04884966221982,326.6911969324352 179.93374438220746,327.9288179359643 179.88379138668063,328.2338886318827 175.66858868444217,330.99174033237034 175.59023675556057,331.21444088029205 179.07653350220755,335.30434986606235 179.3943831022258,335.5642398251872 178.93002413333272,340.44907110917086 178.5341866933519,341.6726410656771 168.63526516446257,339.81090914281197 167.9138594399916,339.7892347443627 164.74563074668515,342.0450022335932 163.87327376890573,342.37323210016586 164.25826136000217,344.4087051071034 164.36275487111527,344.71837639777334 162.13496777776857,347.0959280278108 162.2251890044496,347.53639440882364 154.26606025780313,350.0310007603472 153.72757279111067,349.87439303182293 152.2572362222196,358.83628480394657 152.11378520000255,359.06512700329006 143.81874804446818,355.78563467966853 143.65039334222786,356.05715542881046 145.83601894224523,363.95903975924705 147.40422260444723,364.851313034225 146.0249810755846,368.00531051688415 145.86718495112257,368.633765686776 142.8767772711359,368.3133973791188 142.7950757244322,368.7095862855564 145.5076107644487,372.4284640224429 146.56929396445742,372.38759737267503 145.6744362933456,374.99306473229774 145.66154754666024,375.76904252888164 149.03002512889327,375.6684451612597 150.06185304001667,375.3290253831725 153.512104986679,379.37713975259214 153.71978128891317,379.9381448548735 149.89670232000174,384.4095697650406 149.76599440890243,384.5090348282753 150.02799277334236,389.82641436241795 149.97658342222678,389.9469661887921 145.6035117778007,393.1986404847627 145.20359654221795,393.41115569357464 126.71858520000353,391.7392504900996 126.32092731557316,391.61736316598365 129.4252948177815,393.62143779229484 129.7566157066973,393.83841593111686 129.38400713779959,401.8136665632261 129.31235444444576,402.4527839210565 131.57385616889917,405.1232254631683 131.62475579555723,405.12277909846273 131.16469307555928,408.2100855652749 130.92126324444655,408.3309318984026 133.17992507556448,410.59616574273207 133.2812146044522,410.61346065276996 133.23344614223572,414.29804527445924 133.2399269244703,414.8330332028487 151.19045577778127,414.99090664523067 151.85535490667792,415.6823088913294 148.53617496000481,415.95409219642863 148.20558224889794,415.9330056086834 142.36028077334743,421.7913078584312 142.24078679999332,422.05993742388785 141.77875800000731,423.9217898853018 141.69669236447191,424.37179319200334 146.66373862222065,430.54017140001054 146.93833446223982,430.7120537798106 140.08996809778148,431.8810851189552 139.95452703111334,431.8632392016367 136.85139743111324,428.90441769242864 136.83326580443065,428.43292344123586 131.96452354666656,428.5017460143205 131.6572325244557,428.4482049600116 132.05671085333563,430.73135008097563 132.08008536001546,431.25535918947537 130.05065389333288,430.20343207453664 130.01948788445554,430.4825053548917 133.63387110224687,432.39593734441553 134.19930114667625,432.3049239562894 133.23177133332467,434.2790776715334 133.24589798224736,434.4309841951541 134.88080272891204,438.0524142841674 134.83281581334415,438.7441962239751 127.28102971555893,436.18401316091297 126.87223071110895,436.1466511836985 121.09865474669607,443.3416544013377 120.90685271999212,443.5965742704353 123.20956930667273,443.220661837178 123.37493848000997,443.1569873026816 123.55312358221965,446.08125637274463 123.38942921779346,446.56486538306456 119.51399426666433,447.70902926220845 119.33988695999835,447.92211475478655 119.19119305778406,450.6436491251003 119.51472244444415,451.3239002141414 122.36481026668446,451.1812945924827 122.55173350222287,451.4375161566928 120.94886857778295,452.061674927994 120.2095496800099,451.9194057052151 121.54102274665604,456.05743919208874 121.5544212177989,456.7049578439397 124.81935192002095,456.1045986070309 125.1787076533434,456.35221274512116 126.55154121778435,464.5768069918337 126.72295426668245,464.96929424527445 134.08126352888178,466.1854184810869 134.37399099555444,466.06213524849557 135.28421321779717,468.78165916594264 135.10544557334617,469.10311545638945 138.39644504001592,469.7654165065684 138.58285855112592,469.86662236109953 137.1855582133354,476.73380791929196 137.1513338578003,476.7869677319319 141.83155088889873,484.8478314643795 141.97383682669135,485.08506498992904 138.8686683288903,488.196195135875 138.69470665779193,488.4253918266983 128.20676212447108,487.36341313824926 128.1327792622102,487.3738870600715 121.74265517332935,493.4669208725751 121.46754960891087,493.666571485133 120.58834776000697,497.6712407105439 120.40382751110121,498.1411402620939 123.0404136088979,513.4692775504296 123.08716262222845,513.6928006218728 116.33622644443642,517.520506527078 116.1936492355668,518.0999292210105 123.17876738668531,518.0963656174496 123.57198338665296,518.1439174336916 119.99087789335283,523.6357093267067 119.97267344891554,524.0404702876473 114.25487590223895,519.3250156639475 114.18737382224174,519.2383774115948 105.38399576000631,524.2456890842074 104.96747807111353,524.4356521946244 98.42713090667496,523.7113168955326 97.72007028444898,523.3687993042473 98.70478509335192,529.774617354538 98.51123544001132,530.2155181721824 93.77392927112635,535.52586937126 93.56785495999031,536.0007901260757 89.60816984001542,536.4468734773469 89.208837146674,536.4272801740514 86.86701741335094,541.344201736552 86.73645513779013,541.6883887559885 76.50439227556456,550.7618177678593 76.34484852446587,550.9385566147754 74.57836205335445,546.7784770325885 74.24405563556468,546.1546105608792 58.621074231115585,542.1934225485962 58.15511327112438,542.2455174618295 60.04895803557122,538.4321065890614 59.78994520000526,538.2590012910438 46.71456656888006,538.8897476253111 46.499390035554484,539.0384717955382 54.97508809777321,544.2996652722719 55.00319576002187,544.4537177090311 47.241767280014415,560.9407409665943 47.03445506667015,561.4605094131035 50.29319625779283,567.3263983942667 50.65051309334342,568.1646495224046 52.811671920011236,580.6649188141524 53.326056702244045,580.9513517570809 39.68918018666557,585.8409499414043 39.685029573338056,585.9578482926951 44.76902118221153,596.8892526248015 44.79050242668711,597.0565027229965 53.2984587644529,603.2014804650458 53.62948838223349,603.1779079729382 53.755900044466784,605.7766034274024 53.77046360000497,606.5329951783857 50.296400240018215,612.0798108109371 50.39091771556525,612.77808462215 58.50740568000003,622.7048243413661 58.88678630223842,623.2200101041886 59.32478523557768,629.7752875917137 59.82766480890098,630.174158559537 57.37079298665742,640.2628912611468 57.01129161776737,641.26848531486 46.335404400022185,651.4245146870304 45.660165146669556,652.2791536542715 43.610563155561636,653.3315201176516 43.59993175999955,653.3628475146903 33.889462639992075,645.52577882156 33.572850942211176,645.1702391491486 23.738300328906575,659.0718023867445 23.34741449778778,659.3611612517194 23.46880173334614,666.1561602599901 23.47149599111401,666.4473701095045 22.474329342228543,667.765014410346 20.695900755563002,667.8015534918592 20.37062374223717,671.959631989295 20.17620027554915,672.5170024002797 13.987562977774019,680.5555486027366 13.299362160010446,681.8649732289265 14.377429360006886,682.3458539379423 15.364911244432392,682.9021203305525 13.716753662250653,689.1802143265155 13.610439706687998,690.0199484478286 15.768685822236534,694.5919681149895 15.784196008905951,695.5714867665444 10.573210195557863,703.685372105792 9.46645279110055,704.3024670459632 10.479202444439238,709.3903520808159 10.617556222226654,710.2401000037277 8.052549999999997,717.6718690970807" stroke="#009edd" stroke-width="5.73064901152302px" fill="none" stroke-linejoin="round" vector-effect="non-scaling-stroke"></polygon>
</svg>