<svg viewBox="0 0 64.78529979733284 56.77807848064113" width="64.78529979733284" height="56.77807848064113" xmlns="http://www.w3.org/2000/svg">
  <title>Jihočeský kraj</title>
  <desc>Geojson of Jihočeský kraj</desc>
  <!-- Generated from maps/2-geojsons/world/europe/czechia/jihocesky-kraj/okres-prachatice/okres-prachatice.geojson -->
  <metadata>
    <collboard>
      <support-module name="@collboard/map-svg-geojson-import" version="1.4.4"></support-module>
    </collboard>
  </metadata>
  <polygon points="1.7261356071965566,21.569484775745153 2.7618811147509406,22.259973188389633 2.817426515643092,22.347043700151335 2.8160065689753537,23.53085804677576 2.8135453280865477,23.572830581792005 5.352424531641373,23.523936541065996 5.358766960086723,23.52744166363009 5.8771057476424176,24.320218915799707 5.879268435640916,24.32102852711578 5.682449264086973,25.19073772622105 5.685544019642475,25.19876602725017 7.134960040975784,26.78799604574779 7.1349891680863955,26.789614546149462 7.104471237420876,26.145813109960365 7.106218864086623,26.14236508064969 8.60100764275303,25.764410345701982 8.60215816364107,25.765108868982136 8.054561192974871,26.668702394281354 8.026475376084637,26.76938325710544 9.088478974310055,28.126134725938392 9.157422846307236,28.223087440261224 10.404485544974523,31.718689668826485 10.428486284531028,31.781300530881346 11.391341196529176,32.05646759649863 11.459862725421045,32.120248583848664 11.55464234497522,33.17128313394678 11.590505100529482,33.26878975115287 14.896308421421054,33.48983973100149 14.898653153864508,33.49130126231794 15.894072176087139,32.49841188752216 15.895397459641755,32.496617868329125 16.428642046307868,32.61523229351333 16.43251595208603,32.618355148543564 16.385868883641162,33.35642908513437 16.385526640086393,33.35817853592635 17.351862241865092,34.73864404570377 17.35506622408757,34.743381880554445 17.269650970753357,35.53371335341836 17.270459248086627,35.53745437796061 18.364750248975543,38.31918077281335 18.361502576085694,38.32285354189698 20.434843162754625,38.80240556485842 20.438163653419544,38.80548068787648 20.091361704976954,39.38683633447545 20.09119422408585,39.38826312980855 22.058424744975127,42.453830417403154 22.06140299208819,42.457356742261986 21.22019017786552,44.2397430027213 21.199174967197543,44.255147732774276 21.86360806230987,44.93046054254265 21.91177702230816,45.009308345521646 25.87792107919704,45.49675647041332 25.933670369866377,45.49263547149494 29.326738515640685,48.328672444537006 29.60942441075349,48.50421408783768 29.718141352975,46.8361619876454 29.722393911196924,46.80923278981973 30.676081064973914,46.017634925349924 30.68098898319768,46.0109292629426 32.059953804531325,46.972794172798245 32.11028545253102,46.93544984903602 32.98294098319784,45.43116262017902 32.995298160084715,45.401044651806664 32.65177301164258,44.30785943374394 32.636299233862154,44.26588902568656 33.41379649253104,43.95611814304612 33.47703873253086,43.94669135961631 34.065311713864865,42.27528932716851 34.067816645418134,42.26569386587544 33.489636208086814,41.61376056343179 33.466487436530954,41.57089633112228 33.8736917316408,40.76407592665964 33.915518263196645,40.72844795819438 33.122394309418816,38.33071901208205 33.143271166309205,38.29453333175807 32.01269506675199,37.1363561396418 31.955970017864093,37.05953184926366 32.329889306753834,36.61791813200289 32.3322267574189,36.573554528942985 32.01487231830725,36.52239595951287 31.95582438230813,36.490846279640756 31.974698750309837,35.637907689948406 31.955882636529353,35.62105122896501 32.74816190408492,34.50358478682647 32.752916904974334,34.493953720042555 31.77148617786479,33.24357726895141 31.730271315640493,33.18853460003047 32.147204065863114,32.3647226430654 32.14816526053073,32.35599596320426 31.673961328085355,31.928504705903833 31.653586913865368,31.88093595686405 32.724517971642854,31.47269179172181 32.774201541419096,31.44590937302746 33.34675316453104,31.99403704898905 33.36200848897461,32.020495637324714 34.27337395030954,31.160964329072524 34.359859624975435,31.1649298456603 35.09794062052861,32.30941652310612 35.167823841864084,32.32339261118359 36.79883283742129,30.858712714836656 36.84238515030775,30.822566810039646 38.34352363919788,30.796180039745014 38.37911696897536,30.765062985720945 38.77519470764273,31.3137786627387 38.79164424364171,31.332132492606252 39.51560587208551,30.822888058775064 39.593353413419756,30.78813769935987 40.3661320800853,31.043071989690727 40.38412535297576,31.05852452515137 40.79617203030685,30.190590145108946 40.86435859741942,30.13291357217131 43.38316193964165,31.12024562013285 43.39307972097486,31.134545940770842 44.41445828097531,30.260120305100646 44.422832325419954,30.25989873172548 45.58457443386324,31.92058583889775 45.585673982308435,31.963281134625504 46.938897719198216,31.573816960597835 46.96742044275343,31.57560020275596 48.28873542942056,32.96082863777301 48.326921072086044,32.950652296901175 48.11111830586342,32.28346874782183 48.10915222586373,32.27603767240981 49.089388741417864,31.481729998074663 49.11778767475226,31.454371656623337 49.26540387386522,30.74390461840849 49.26693304719702,30.718093516333102 48.14151244630812,30.885641980547007 48.118567564532356,30.860540497194236 49.38548767119537,30.46480599982351 49.39078152364127,30.44026760205052 47.78659131564091,29.63204603952072 47.74346862764105,29.60447911618867 47.94597486764142,28.87279747409666 47.946593818754266,28.850335338629158 48.49524664719829,28.669615442793656 48.52778891208764,28.664506706556494 47.60477988808598,28.375029807046303 47.56735155030802,28.3617641079607 48.06959032719788,27.402604157661337 48.07347879652989,27.39773810848601 47.89414317342053,26.85190428065289 47.911830611642294,26.762244088683293 48.481105434750866,26.927185349988942 48.49661562141737,26.898418812831007 48.10672011208553,26.517722009682984 48.14867771564059,26.41683701295442 49.12861567831024,26.374254123255742 49.13414982941941,26.371338386198115 48.36128378141912,25.9876450266067 48.35852398764291,25.936078105312845 49.41050785964072,24.484478861432947 49.42877055830795,24.452161815118235 48.879207507642064,24.06735930434552 48.867505690754115,24.046918417592316 49.144897733421026,23.672924474910907 49.166510049863795,23.628390458687864 48.70211467208465,23.038599815838463 48.72064679653158,22.982978547447786 50.12079430941849,22.744013718307908 50.12985284097559,22.726297006520692 49.499185349418624,22.02496028167989 49.48628932097527,22.021232303146462 49.725160759197394,21.08195681370453 49.71825035208786,20.997962506955446 51.53016055297522,19.746186265773215 51.54336969786564,19.708469205606164 54.238421189420116,18.872389726186885 54.24782924630745,18.868626316688097 54.274589779643065,18.375797360891376 54.244727208973565,18.337737871366336 54.75040298497661,18.144261046177782 54.75331569608425,18.128605847913786 54.57649956808491,17.098462957468655 54.58128369608785,17.05580824561366 56.50879940097693,17.181939086021522 56.51143540452941,17.174398856961126 55.926948947641726,16.822239820214236 55.90457204453014,16.807558173463985 56.33571882497527,15.975471505306269 56.36076814053122,15.961976094730563 55.51819363386494,15.3779320087433 55.513147361863595,15.376199079101571 55.50549421342039,13.809286043826797 55.51493139741834,13.769872786735142 53.93714491564206,13.400194524869221 53.87570127475083,13.372968833976849 53.40687129430771,12.224333574211414 53.34710246230716,12.0951995541418 53.49245402853012,10.998705815531503 53.49747845519633,10.960084065360206 54.345237587641535,10.263901260872444 54.36444691741963,10.262433577388947 53.70909419919663,9.386812995440051 53.67785537252967,9.34975910033718 54.69520710942052,7.688428128969463 54.79836077341934,7.559410447704796 54.507992602752715,7.257122600755611 54.503157502306934,7.196814344251834 53.18528679652846,7.239434027141034 53.174342284530944,7.245563847436642 53.071567272975884,8.61440135128687 53.060848496087786,8.651593647744813 52.46843218319882,8.237336949840028 52.46476216719785,8.23521247638455 52.26196465608555,9.038827975513778 52.26573661697512,9.083579826918504 51.87549158230723,8.869626220409192 51.83565297608621,8.861118173458454 50.96728641253031,9.675896009496137 50.96840052452936,9.679087447745042 49.26478492275237,9.979096644303718 49.260459546752465,9.978540674955367 48.2593243289728,9.284847460699167 48.20571588097555,9.269067044410987 46.90395974941967,9.824913079534964 46.84590213519587,9.84483954050411 41.87022697075045,9.918784763067743 41.818220513865896,9.935908778630619 41.21512911475038,9.07225844352688 41.19234443208734,9.059713700820067 39.6084849476425,9.443227406744336 39.581964712975974,9.46183191468772 38.96339953608586,9.072870110215808 38.9554623983091,9.070178776271133 38.70633821697447,7.182385209710993 38.687420158308306,7.1180822084879765 36.652061324530585,6.702041484231086 36.59704749341945,6.6931184327801025 37.37257867208573,6.112098816597791 37.38338483030857,6.111553584756985 36.76688767830674,5.069995647883116 36.79713618319838,5.043151754916835 34.64600436453075,6.088164200715619 34.61145232897434,6.079351428967858 34.1345759840875,5.1438379383300346 34.102317708528794,5.142179697289612 34.41228114319856,4.443848981369593 34.428839905864514,4.38325396143373 33.30622278941919,4.0218850116234535 33.25898589697499,4.021306178976738 32.75098723386363,6.076402708005117 32.75116199653021,6.1040093508800055 32.32118758230827,6.140651086352955 32.315398568976164,6.169292224881429 32.68976204630926,6.870686668437338 32.66122475919729,6.898222584223913 30.242924513864637,6.380424235618921 30.20390874853074,6.350860677093806 29.30537377964247,7.341926842595058 29.291807827640515,7.347166573939103 29.378686718306927,7.8485335649358605 29.373072467641396,7.869968852984676 26.937805680085514,7.117114320218753 26.919237146752494,7.1106617274246675 25.80029004630815,8.205458639176868 25.73484142764246,8.199719188949166 25.886688339642205,7.053322321430096 25.91357266319865,7.029736672998479 25.253435816972708,6.5901240126699125 25.21222095475132,6.600649402945783 25.508137840086786,6.140150365826049 25.54511470764301,6.139360340014173 24.8824073938642,5.441478566809747 24.872227468529672,5.426098913545502 24.957285914752358,4.493168205923939 24.91117041608559,4.445307082574073 24.392110732531364,5.2369657357794495 24.36364626319737,5.251255282607236 19.80145228630754,4.848707700221349 19.79395205519577,4.80507899316035 18.459835703198404,5.601192952601195 18.427264311198453,5.597242436532179 17.015101864976533,5.025678669828995 16.988676293420212,5.019935911309222 16.77065986675334,4.604939007513531 16.77028849608505,4.595600745025513 17.318351500532664,3.7475783192687233 17.323732734307487,3.719670449909245 16.910819525418994,3.2939994978241884 16.903494056973795,3.28353459433165 14.672881633862927,2.476408057155277 14.660837573420213,2.472522109716738 13.834333950309157,3.1910306637237227 13.812051710307788,3.2246413097080224 12.346368197420453,1.7347994324318279 12.33961798942073,1.7261356071965566 10.763593697864053,2.1734295555903373 10.692887635641455,2.1391777964618086 10.79135911653175,2.779759601490878 10.77200415119769,2.8238496832553213 8.571319834753012,4.878479642823004 8.555365459643145,4.896153527514617 6.782988030308116,4.0216401208967 6.736391934308995,4.026849612220031 6.925776410753679,3.645508524943216 6.899875127197084,3.6281979951414542 5.592337264084563,3.6912726285681856 5.570819610752006,3.7061450455908926 6.418389416973878,4.232264393264268 6.421200183198744,4.2476696369401905 5.645057335197999,5.896371962696503 5.624326113863572,5.948348807347429 6.202047799197681,7.86878974745232 6.253486277420961,7.897433041745171 4.889798625863114,8.386392860177512 4.8893835645303625,8.398082695306584 6.250726483641848,10.122445912541663 6.283829445419906,10.120088663330899 5.950520631198379,11.010278947130793 5.959972378753083,11.080106328252079 6.853359130754325,12.779826625208443 6.903647088086655,12.819713721990775 6.657959905862299,13.82858699215176 6.622009768973294,13.929146397523073 5.554421047198776,14.944749334740118 5.486897121863513,15.030213231464224 4.309826871195765,14.35487574819308 4.278165701417675,14.319321780951942 3.2947106400872146,15.709478104711526 3.2556220569753354,15.738413991209018 3.2677607805311712,16.417913892036086 3.2680302063079583,16.447034876987527 2.319636904973959,17.85785272631074 2.2508168231976016,17.988795188929725 2.4977491894202104,19.26149467753603 2.4993002080871523,19.359446542691515 1.9782016267523432,20.170835076616278 1.867525886306612,20.2325445706334 1.7261356071965566,21.569484775745153" stroke="#009edd" fill="none" stroke-width="5px" vector-effect="non-scaling-stroke" stroke-linejoin="round"></polygon>
</svg>