<svg viewBox="0 0 582.3757101172595 502.30349695034226" width="582.3757101172595" height="502.30349695034226" xmlns="http://www.w3.org/2000/svg">
  <title>Jihočeský kraj</title>
  <desc>Geojson of Jihočeský kraj</desc>
  <!-- Generated from maps/2-geojsons/world/europe/czechia/jihocesky-kraj/okres-prachatice/okres-prachatice.geojson -->
  <metadata>
    <collboard>
      <support-module name="@collboard/map-svg-geojson-import" version="0.11.1"></support-module>
    </collboard>
  </metadata>
  <polygon points="17.261356071965565,215.6948477574515 27.618811147509405,222.5997318838963 28.17426515643092,223.47043700151335 28.160065689753537,235.30858046775757 28.135453280865477,235.72830581792005 53.524245316413726,235.23936541065996 53.58766960086723,235.27441663630088 58.771057476424176,243.20218915799705 58.792684356409154,243.21028527115777 56.82449264086972,251.9073772622105 56.85544019642475,251.98766027250167 71.34960040975784,267.87996045747786 71.34989168086395,267.8961454614946 71.04471237420876,261.45813109960363 71.06218864086622,261.4236508064969 86.0100764275303,257.6441034570198 86.0215816364107,257.65108868982134 80.5456119297487,266.68702394281354 80.26475376084636,267.6938325710544 90.88478974310055,281.2613472593839 91.57422846307236,282.23087440261224 104.04485544974523,317.1868966882648 104.28486284531027,317.81300530881344 113.91341196529174,320.56467596498624 114.59862725421044,321.2024858384866 115.54642344975218,331.7128313394678 115.90505100529481,332.6878975115287 148.96308421421054,334.89839731001484 148.98653153864507,334.9130126231794 158.94072176087138,324.9841188752216 158.95397459641754,324.9661786832912 164.28642046307868,326.15232293513327 164.32515952086032,326.1835514854356 163.8586888364116,333.5642908513437 163.8552664008639,333.58178535926345 173.51862241865092,347.3864404570377 173.55066224087568,347.43381880554443 172.69650970753355,355.3371335341835 172.70459248086627,355.37454377960603 183.64750248975542,383.1918077281334 183.61502576085695,383.22853541896984 204.34843162754623,388.0240556485842 204.38163653419542,388.0548068787648 200.91361704976953,393.86836334475447 200.91194224085848,393.88263129808547 220.58424744975127,424.5383041740315 220.61402992088188,424.5735674226198 212.20190177865516,442.397430027213 211.9917496719754,442.55147732774276 218.63608062309868,449.3046054254264 219.1177702230816,450.0930834552164 258.7792107919704,454.9675647041331 259.33670369866377,454.9263547149494 293.2673851564068,483.28672444537006 296.0942441075349,485.0421408783768 297.18141352975,468.3616198764539 297.22393911196923,468.09232789819725 306.76081064973914,460.1763492534992 306.80988983197676,460.1092926294259 320.59953804531324,469.7279417279824 321.10285452531025,469.35449849036013 329.8294098319784,454.3116262017902 329.9529816008471,454.0104465180666 326.5177301164258,443.0785943374394 326.36299233862155,442.65889025686556 334.13796492531037,439.56118143046115 334.77038732530855,439.46691359616307 340.65311713864867,422.752893271685 340.67816645418134,422.65693865875437 334.89636208086813,416.1376056343179 334.6648743653095,415.70896331122276 338.7369173164079,407.64075926659643 339.15518263196645,407.28447958194374 331.22394309418814,383.30719012082045 331.43271166309205,382.94533331758066 320.12695066751985,371.36356139641794 319.5597001786409,370.5953184926366 323.2988930675383,366.1791813200289 323.322267574189,365.73554528942987 320.14872318307243,365.2239595951287 319.5582438230813,364.90846279640755 319.74698750309835,356.37907689948406 319.5588263652935,356.21051228965007 327.4816190408492,345.0358478682647 327.52916904974336,344.93953720042555 317.7148617786479,332.4357726895141 317.30271315640493,331.8853460003047 321.47204065863116,323.647226430654 321.4816526053073,323.5599596320426 316.7396132808535,319.28504705903833 316.53586913865365,318.8093595686405 327.24517971642854,314.7269179172181 327.742015414191,314.4590937302746 333.4675316453104,319.9403704898905 333.62008488974607,320.2049563732471 342.7337395030954,311.6096432907252 343.59859624975434,311.649298456603 350.97940620528607,323.0941652310612 351.67823841864083,323.2339261118359 367.98832837421287,308.58712714836656 368.42385150307746,308.22566810039643 383.43523639197883,307.96180039745013 383.7911696897536,307.6506298572094 387.7519470764273,313.13778662738696 387.9164424364171,313.3213249260625 395.15605872085507,308.2288805877506 395.93353413419754,307.8813769935987 403.661320800853,310.43071989690725 403.8412535297575,310.5852452515137 407.96172030306843,301.90590145108945 408.64358597419414,301.3291357217131 433.8316193964165,311.20245620132846 433.93079720974856,311.3454594077084 444.14458280975305,302.60120305100645 444.2283232541995,302.5989873172548 455.84574433863236,319.2058583889775 455.85673982308435,319.63281134625504 469.3889771919821,315.7381696059783 469.6742044275343,315.7560020275596 482.8873542942056,329.6082863777301 483.2692107208604,329.5065229690117 481.1111830586342,322.83468747821826 481.09152225863727,322.760376724098 490.8938874141786,314.8172999807466 491.17787674752253,314.54371656623334 492.65403873865216,307.4390461840849 492.66933047197017,307.180935163331 481.41512446308116,308.85641980547007 481.1856756453235,308.60540497194233 493.8548767119537,304.6480599982351 493.9078152364127,304.40267602050517 477.8659131564091,296.3204603952072 477.4346862764105,296.0447911618867 479.45974867641416,288.7279747409666 479.46593818754263,288.50335338629156 484.9524664719829,286.69615442793656 485.27788912087635,286.64506706556494 476.0477988808598,283.75029807046303 475.6735155030801,283.617641079607 480.69590327197875,274.02604157661335 480.7347879652989,273.9773810848601 478.94143173420525,268.5190428065289 479.1183061164229,267.6224408868329 484.8110543475086,269.2718534998894 484.9661562141737,268.98418812831005 481.0672011208553,265.17722009682984 481.4867771564059,264.1683701295442 491.28615678310234,263.7425412325574 491.341498294194,263.71338386198113 483.61283781419115,259.87645026606697 483.5852398764291,259.36078105312845 494.1050785964071,244.84478861432945 494.2877055830795,244.52161815118234 488.7920750764206,240.67359304345518 488.67505690754115,240.46918417592315 491.4489773342102,236.72924474910906 491.6651004986379,236.28390458687863 487.02114672084645,230.3859981583846 487.2064679653158,229.82978547447783 501.2079430941849,227.44013718307906 501.2985284097558,227.2629700652069 494.9918534941862,220.24960281679887 494.86289320975266,220.21232303146462 497.2516075919739,210.81956813704528 497.1825035208785,209.97962506955446 515.3016055297521,197.46186265773213 515.4336969786564,197.0846920560616 542.3842118942011,188.72389726186884 542.4782924630745,188.68626316688096 542.7458977964307,183.75797360891374 542.4472720897356,183.37737871366335 547.5040298497661,181.4426104617778 547.5331569608425,181.28605847913786 545.7649956808491,170.98462957468655 545.8128369608785,170.55808245613662 565.0879940097693,171.8193908602152 565.114354045294,171.74398856961125 559.2694894764172,168.22239820214236 559.0457204453014,168.07558173463985 563.3571882497527,159.75471505306268 563.6076814053122,159.61976094730562 555.1819363386494,153.779320087433 555.1314736186359,153.7619907910157 555.0549421342039,138.09286043826796 555.1493139741833,137.6987278673514 539.3714491564206,134.0019452486922 538.7570127475083,133.72968833976847 534.0687129430771,122.24333574211414 533.4710246230716,120.951995541418 534.9245402853012,109.98705815531503 534.9747845519632,109.60084065360206 543.4523758764153,102.63901260872444 543.6444691741963,102.62433577388947 537.0909419919662,93.8681299544005 536.7785537252967,93.49759100337178 546.9520710942052,76.88428128969463 547.9836077341934,75.59410447704795 545.0799260275271,72.5712260075561 545.0315750230693,71.96814344251834 531.8528679652845,72.39434027141033 531.7434228453094,72.45563847436642 530.7156727297588,86.1440135128687 530.6084849608778,86.51593647744812 524.6843218319882,82.37336949840028 524.6476216719784,82.3521247638455 522.6196465608555,90.38827975513777 522.6573661697512,90.83579826918503 518.7549158230722,88.69626220409191 518.356529760862,88.61118173458453 509.672864125303,96.75896009496137 509.6840052452935,96.79087447745042 492.6478492275237,99.79096644303718 492.60459546752463,99.78540674955366 482.593243289728,92.84847460699166 482.0571588097555,92.69067044410986 469.03959749419664,98.24913079534963 468.45902135195865,98.44839540504108 418.70226970750446,99.18784763067742 418.1822051386589,99.35908778630619 412.1512911475038,90.7225844352688 411.9234443208734,90.59713700820066 396.084849476425,94.43227406744336 395.8196471297597,94.61831914687718 389.63399536085853,90.72870110215808 389.554623983091,90.70178776271132 387.0633821697447,71.82385209710992 386.87420158308305,71.18082208487976 366.52061324530587,67.02041484231086 365.9704749341945,66.93118432780102 373.7257867208573,61.120988165977906 373.8338483030857,61.115535847569845 367.6688767830674,50.699956478831155 367.9713618319838,50.43151754916835 346.46004364530745,60.88164200715619 346.1145232897434,60.79351428967857 341.34575984087496,51.438379383300344 341.0231770852879,51.42179697289612 344.1228114319856,44.438489813695924 344.28839905864515,43.83253961433729 333.0622278941919,40.218850116234535 332.5898589697499,40.21306178976738 327.50987233863634,60.764027080051164 327.5116199653021,61.040093508800055 323.21187582308266,61.40651086352955 323.1539856897616,61.692922248814284 326.8976204630926,68.70686668437338 326.61224759197285,68.98222584223913 302.42924513864637,63.80424235618921 302.0390874853074,63.50860677093806 293.0537377964247,73.41926842595058 292.91807827640514,73.47166573939103 293.78686718306926,78.4853356493586 293.73072467641396,78.69968852984675 269.3780568008551,71.17114320218752 269.19237146752494,71.10661727424667 258.00290046308146,82.05458639176868 257.3484142764246,81.99719188949166 258.86688339642205,70.53322321430096 259.1357266319865,70.29736672998479 252.53435816972706,65.90124012669912 252.1222095475132,66.00649402945783 255.08137840086783,61.40150365826048 255.45114707643006,61.39360340014173 248.82407393864196,54.414785668097466 248.72227468529672,54.26098913545502 249.57285914752356,44.93168205923939 249.11170416085588,44.453070825740724 243.92110732531364,52.369657357794495 243.6364626319737,52.51255282607235 198.0145228630754,48.48707700221348 197.93952055195768,48.050789931603504 184.59835703198405,56.011929526011954 184.2726431119845,55.972424365321785 170.15101864976532,50.25678669828994 169.88676293420212,50.199359113092214 167.7065986675334,46.04939007513531 167.7028849608505,45.95600745025513 173.18351500532663,37.47578319268723 173.23732734307487,37.19670449909245 169.10819525418992,32.939994978241884 169.03494056973796,32.8353459433165 146.72881633862926,24.764080571552768 146.60837573420213,24.725221097167378 138.34333950309156,31.910306637237227 138.12051710307787,32.24641309708022 123.46368197420452,17.34799432431828 123.39617989420731,17.261356071965565 107.63593697864053,21.734295555903373 106.92887635641455,21.391777964618086 107.91359116531748,27.797596014908777 107.72004151197689,28.23849683255321 85.71319834753012,48.78479642823004 85.55365459643144,48.96153527514616 67.82988030308115,40.216401208967 67.36391934308995,40.268496122200304 69.25776410753679,36.45508524943216 68.99875127197083,36.28197995141454 55.92337264084563,36.912726285681856 55.70819610752005,37.061450455908926 64.18389416973878,42.32264393264268 64.21200183198744,42.47669636940191 56.45057335197998,58.96371962696503 56.24326113863572,59.48348807347429 62.020477991976804,78.6878974745232 62.534862774209614,78.97433041745171 48.897986258631136,83.86392860177511 48.893835645303625,83.98082695306584 62.50726483641847,101.22445912541662 62.83829445419906,101.20088663330898 59.505206311983784,110.10278947130791 59.59972378753082,110.80106328252077 68.53359130754325,127.79826625208443 69.03647088086655,128.19713721990775 66.57959905862299,138.2858699215176 66.22009768973294,139.29146397523073 55.54421047198775,149.44749334740118 54.868971218635124,150.30213231464222 43.098268711957644,143.5487574819308 42.781657014176744,143.1932178095194 32.947106400872144,157.09478104711525 32.55622056975335,157.38413991209018 32.67760780531171,164.17913892036086 32.68030206307958,164.47034876987527 23.196369049739587,178.5785272631074 22.508168231976015,179.88795188929726 24.977491894202103,192.6149467753603 24.99300208087152,193.59446542691512 19.78201626752343,201.70835076616277 18.67525886306612,202.325445706334 17.261356071965565,215.6948477574515" stroke="#009edd" stroke-width="12.568688917020868px" fill="none" stroke-linejoin="round" vector-effect="non-scaling-stroke"></polygon>
</svg>