<svg width="286.85202602669597" height="327.72016874543624" xmlns="http://www.w3.org/2000/svg"><polygon points="5,147.2690178033081 21.811877262196504,164.62956533499528 22.422672782209702,165.45009978831513 21.062727964366786,170.25059873523423 19.74356110219378,174.456553698692 25.60801365331281,184.03096273937263 25.751901582232676,184.79925832769368 25.223535786615685,203.92477521073306 26.460564195527695,205.72156630229438 49.563023644383065,222.236978538509 50.14643967989832,223.1199733671383 85.69258353777695,224.2010652386234 87.29020558216143,224.03178756206762 91.55179320881143,233.50793113495456 91.624610986677,233.77510360023007 87.41865614219569,248.57978554425063 86.69805141328834,255.2768307653605 89.31250090664253,271.68097138864687 88.81908764445689,273.25352990295505 105.47775630222168,278.06718948931666 106.26739228435326,278.43127417209325 123.56627484445926,272.93837874848396 124.47358435555361,272.69458225759445 126.30334947549272,276.68814459157875 126.88560042658355,277.9642759943963 115.7829282132443,282.38127917976817 115.64486570667941,282.4453129422036 124.92592839105055,300.34749520308105 126.62811676447745,303.9143082369119 141.01108423108235,316.4829797593993 143.03279701329302,318.04149356338894 157.82500039110892,299.1625081524835 159.58136519114487,298.14307566109346 192.08052195550408,322.60127100959653 192.19586531550158,322.72016874543624 193.0679310222622,292.8949118219898 193.08336839114781,292.64793627121253 182.9838338844711,281.9851841989439 182.89587000885513,281.5877163360128 186.53209855989553,267.1525977097335 186.83705941331573,266.65950241149403 178.17057877324987,264.92725612729555 175.67875441769138,264.7378837625147 174.1332699022023,253.7265564215486 173.85947505768854,252.7375588430441 185.32798378670122,243.10717594838934 184.89457237324677,241.05405391362729 164.73424241773318,218.5375112956972 163.87877916439902,217.54789537441684 162.52465976891108,199.06645558209857 162.2389228089014,196.67111469584052 192.69918179546949,177.98059685126645 193.11220423108898,176.4618012367864 225.70922808884643,172.3959159758524 226.2035151644377,171.94195983564714 234.6005700265523,150.03195240179775 235.08262371551245,148.57016897090944 233.84501276444644,136.6228999804589 234.1458958222065,135.38163499900838 248.7630452621961,116.26379015675047 249.98317994666286,115.28011468012119 280.8585002666805,127.07751723943511 281.85202602669597,125.88929243455641 270.77323804434855,116.99662319087656 270.64770019555,116.80849452270195 280.1658575644251,114.58572590129916 279.6937070933636,113.22257519798586 267.2054582043784,109.18617059389362 266.4461144177476,108.71056749584386 273.41797973331995,92.20617185445735 273.7951758222189,91.17340362182586 265.5859908267157,72.30757755012019 265.0346146132797,71.054955536325 246.95920327107888,53.044507332437206 246.09762332448736,52.440119233273435 247.4293148444267,39.204970049730036 247.6643706311006,38.131195564579684 235.33515576878563,25.751953668135684 234.05531050660647,23.489324952592142 243.00199395557866,22.440658807230648 245.42653468437493,21.63881501852302 222.4746623999672,8.68983970762929 221.3637543822406,8.37384497775929 209.49125262221787,18.890725887962617 207.32244792883284,20.228368701820727 177.79658666660544,5.45064285263652 177.44443989323918,5 165.01561031106394,17.78342064790195 164.3774353065528,18.937435910047498 198.45266005326994,36.479083515005186 198.72004693327472,36.569290623941924 189.0408166400157,55.592534045747016 188.79119729774538,55.93410012498498 154.99093247996643,48.845806636149064 153.8316734577529,49.09809727844549 126.73472199111711,76.9558589226217 126.15247104002628,77.0194956875057 62.96994161780458,69.5642526341253 62.46283861331176,69.3724200341967 57.75327601772733,77.52767349785427 57.87240590224974,78.88280848867726 65.0167037154315,84.48409565590555 65.9248870400479,84.46944597264519 66.34402616880834,103.80250217294088 65.55031239101663,105.00366555195069 50.34159132442437,117.85121048329165 50.29615303105675,117.92994036938762 16.258210986619815,119.11637797340518 15.651784533285536,119.09349150699563 12.925195662188344,138.59462927019922 12.898107448825613,139.0276017729775 5,147.2690178033081" stroke="red" stroke-width="3.09527790001752" fill="none" stroke-linejoin="round" vector-effect="non-scaling-stroke"></polygon><polygon points="104.18101731548086,171.12190761999227 108.77756671991665,181.22636325319763 108.82213119999506,182.26510804210557 118.1410591288004,180.0539942018804 119.08769024000503,180.15695426764432 120.9535729776835,185.51309812109685 124.60232618660666,185.89381171454443 129.1263490844285,178.45467489003204 129.1706222932553,176.58993143826956 137.4036915199831,195.47457822895376 137.31951416889206,196.53338750830153 156.88710741337854,192.34021615656093 162.08833564445376,190.39231308578746 165.9083562665619,195.95090577582596 166.01700039103162,196.31512862961972 192.69918179546949,177.98059685126645 193.11220423108898,176.4618012367864 221.92561635549646,174.9008947261609 223.00564963545185,174.55448269558838 234.6005700265523,150.03195240179775 235.08262371551245,148.57016897090944 233.53393521776889,138.6303289385396 233.72034872882068,137.4183676733519 173.49072583112866,105.2938846666948 172.29913571546786,104.22867790044984 175.7536110932706,96.43195540149463 175.75943651550915,96.28912883618614 164.79686570668127,53.610890707641374 164.6672500622226,51.90303657349432 157.15624191996176,48.60267327056499 154.99093247996643,48.845806636149064 130.65377479116432,74.98997726634843 129.72520248882938,75.49678637983743 136.32132807106245,81.38612336834194 136.7148353421362,81.89978461706778 137.93526129773818,98.1138226701296 137.88865791994613,98.38894451456144 126.86346382228658,117.81047233333811 126.31529159110505,118.44534577598097 118.08251363551244,121.21002166980179 117.98202510213014,121.23153473768616 118.91234503104351,135.56425518303877 118.91817045339849,136.17985341494204 109.04699249775149,126.36806176579557 108.88941482664086,126.41383315686835 106.74187292438,136.21372270927532 106.67633692442905,136.30571900872746 112.52797354664654,147.75963921181392 112.89351879106835,148.4452258463716 106.69177429331467,151.3417825154611 106.41215402667876,151.93399520468665 108.80378111999016,163.15781252941815 108.98436920891982,164.97050166811096 104.18101731548086,171.12190761999227" stroke="red" stroke-width="3.360356078562827" fill="none" stroke-linejoin="round" vector-effect="non-scaling-stroke"></polygon></svg>