<svg width="212.49750186665915" height="368.68155484145973" xmlns="http://www.w3.org/2000/svg"><polygon points="5,265.75523287418764 5.84614257782232,266.73414244304877 6.685294648865238,267.73827703110874 7.081132088787854,268.15754427178763 7.983781262184493,269.54056993639097 8.313791431020945,270.1809330494143 8.610305422218516,270.75615732197184 8.480398506624624,270.81670715636574 8.535157475504093,271.14789610140724 8.953714062226936,272.0419202334597 9.084494791110046,272.23503629944753 9.108961564488709,272.5620947062271 9.028570737806149,273.4790482443641 9.833061546669342,275.36385947768576 10.056466488866135,276.1936482579913 10.825713493279181,278.7907885618042 11.240483555477113,279.0893980648252 14.692337493295781,280.5737242772593 14.940500479890034,280.99938825622667 15.077689173282124,281.17185531929135 16.749002808821388,282.04473836976103 17.686604515532963,282.6336916249711 18.20040675555356,283.2937393541797 20.135029475553893,284.6014443617896 21.047581866616383,285.604578544735 22.193733688793145,286.1829724975396 23.199784106691368,286.893005145248 24.200882915523835,287.61541968840174 25.379074559896253,288.4341532503604 25.555293582146987,288.65248167619575 26.04783303104341,288.20114703988656 27.896530773257837,286.91181088774465 29.20695950218942,285.97656722017564 30.50020323554054,285.54678493225947 31.821991537697613,285.0289351273095 32.928530488861725,284.4858565846225 36.081831537769176,282.98504459357355 38.27947207109537,282.2346346882405 40.257202915498056,282.1860139075434 41.58277774218004,282.0025391652016 42.24571079108864,281.7626457045553 42.078812444466166,282.0956526164082 42.38435584004037,282.56626481498824 42.92699392000213,283.2864004051662 45.60231907549314,282.53094600129407 46.65206015994772,284.81702457449865 47.00245930661913,285.5444915347034 47.45480334223248,286.2458113982575 47.85238840884995,286.84025732212467 48.58027491555549,287.724125667708 49.89623779559042,289.2790279923356 50.0037168355193,289.46433123992756 51.69075911107939,291.84482169453986 51.81338424887508,291.89481629955117 52.15009365323931,291.9870081555564 51.68464241770562,292.42411627050024 51.24336668441538,292.9203911484219 50.40479715552647,293.93632923299447 49.942258631112054,294.51837016362697 49.28019939549267,295.22011955524795 49.49137095117476,295.64804796740646 50.141196799930185,296.794690123701 50.695485724369064,297.79088788863737 51.310067768907174,298.924676440889 51.68085589329712,299.6282461186638 51.29113514663186,300.76982203125954 51.22123008000199,300.80743109900504 51.8328994133044,301.7733397881384 53.73169578658417,304.93475716619287 54.23996387550142,306.34139645146206 54.4514267022023,307.05090421711793 55.76214670226909,309.4862363542197 56.794411520008,309.011555125413 57.63152469333727,308.6166745838709 59.50934954662807,307.8237009100849 61.08949532441329,307.0582423589658 62.437206755625084,306.45651390077546 65.68021930661052,305.07831092656124 70.48997916444205,303.00021188281244 71.2481578666484,306.8280080401455 71.62127616000362,308.814802889945 71.90817820443772,310.02099675970385 72.2131390577415,311.3432159910444 73.08811747550499,313.91700281813974 73.84513109328691,315.86750188539736 74.68428316432983,317.45522172527853 75.35304163547698,317.7670775153674 75.23245539551135,318.5196570606204 75.03555612440687,319.49924479052424 75.26507775997743,319.68773236952256 75.36760519107338,319.76248530542944 75.89538844441995,319.8620029775775 77.21542911999859,320.0660828529508 77.26989681774285,321.1117025614367 77.23785699554719,321.17865873873234 80.16717055998743,322.7291929050116 80.62592255999334,322.85805963299936 81.06079032889102,323.0933214685647 81.78430776880123,323.2726339235669 82.07645269331988,323.4001245299005 83.11687310226262,323.7216023076908 84.67692117323168,323.94172946875915 85.068680817727,324.3764799530618 85.41616725327913,324.4764540968463 86.22619221336208,324.90936912136385 86.67970133328345,324.7080453990493 87.07029589335434,324.8190256973612 87.62225464882795,324.96440063009504 88.0151793777477,324.734185391746 88.93792625772767,324.5988994301297 89.12608739547431,324.7736246730783 89.14035968005192,324.99054059176706 89.3864837688161,324.90203158569057 89.44299036450684,325.9989903862006 89.47270001773722,326.2663503199583 89.89009151991922,326.858393180999 90.56613176886458,327.3123986137798 90.82914958219044,327.4976692435448 91.00915512884967,327.8099691286916 91.07265223108698,327.9897362587508 91.1259548444068,328.29011212446494 90.89352049771696,329.04586512735114 90.89526812441181,329.27745153172873 91.92753294215072,329.89562551042764 92.32278784003574,330.12491807958577 92.68396401777864,330.3225680788746 93.38534485327546,331.07097664655885 95.2899666489102,332.3816025625565 95.2046242132783,332.7090285096201 95.02811392000876,332.9782144558267 94.62994631100446,333.63398120051716 94.43858119111974,333.9137132621836 94.6829576533055,334.3328520999057 94.97073351114523,334.5052765934961 96.10290431999601,335.1156398524763 96.95953265775461,335.66363544919295 98.59880647109821,336.3542454937706 99.08056888880674,336.3414054865134 99.69485966220964,336.0378308070358 100.43556209781673,335.4265530059929 100.85411868442316,335.4568188643316 102.21668494213372,337.35530513885897 103.42516878223978,338.8672036533826 104.21189205325209,340.56480957753956 104.55326179554686,340.96972009557066 105.25231246219482,341.5800650938181 106.50506951112766,342.2215903972974 107.11936028441414,342.745722952066 107.50995484436862,342.978670346085 108.45833358215168,343.4651994278538 108.98553429322783,343.8705630664481 109.02252572437283,344.27271606063005 108.91533795557916,345.49797119607683 108.92203719110694,346.1050935466774 109.55817329778802,346.52237453567795 110.11624874663539,346.61408453504555 110.60762311110739,346.2334877829999 112.09922247100621,345.5961013592314 112.44554382225033,345.1875310872565 112.91274268447887,344.83994768874254 113.45305059547536,344.6079194096965 113.85063566220924,345.27694888954284 112.92963640892413,347.0556676374981 112.51661397330463,349.31859491951764 112.21456583112013,350.3081309522968 113.15886677324306,350.38516600470757 113.83665464888327,350.33610201615375 115.05708060448524,350.40671747282613 117.05578296887688,350.3723268312169 118.35077432892285,350.1476411714684 121.36310016002972,350.65157868282404 121.84224113775417,350.84279033355415 123.5566628978122,351.3288431685651 124.82864383992273,351.34168228518683 125.49856739561073,351.4696148703224 127.49377450661268,352.2248282650253 128.53972906665877,352.39861409459263 129.09518307552207,352.2702235215693 130.31502648885362,352.1111108127516 130.4525064532645,352.53021435276605 130.23434439115226,354.30658072652295 130.19385770661756,355.05307209829334 130.36570766218938,355.83211654773913 130.67620266671292,356.2585493416991 131.8150727110915,358.40629053488374 130.59144277335145,359.2114587171236 130.47376924438868,359.62963144131936 130.45075882668607,359.88090150477365 130.6496969955042,360.1225423302967 131.42942975996993,360.70532203326 132.5540275198873,361.2894757206086 133.48114346666262,362.12764638487715 133.98882901330944,362.5082151427632 134.21543793776073,362.4862063654 134.47233905771282,362.48987449519336 135.1268252443988,361.93506916763727 135.97529799106997,361.1014829479973 136.26802545774262,361.11890667525586 136.7591085510794,361.3784283413552 136.92018147557974,361.5297394162626 137.32679594657384,361.9612046571565 138.41498481784947,362.81175263551995 139.88124359108042,363.5939787104726 140.35106389329303,363.66825794428587 140.56369180441834,363.68155484145973 140.8639923200244,363.45459044957533 141.3256570311496,363.02817185630556 141.55750883556902,362.5228876598412 141.5531397688901,361.9414884109283 141.44070911989547,361.5508312546881 140.72126947552897,360.6379195830086 140.73670684441458,360.44213139428757 140.97875313775148,359.92583663132973 141.50682766223326,359.5347173084738 141.8511101155309,359.5067474352545 142.56559815106448,359.69565863953903 142.61191025772132,359.30545594601426 142.63462940440513,359.1724842443364 142.63870720006526,359.1481825107476 142.79511978663504,358.0706500648521 143.14260622218717,355.80552178644575 143.2780472888844,354.8912102446193 143.36135082668625,354.2648541671224 143.52125866664574,352.61229252198245 143.62203847116325,351.36598489678 143.89029916445725,349.85692509345245 143.98641863104422,349.0150384719018 144.01816718222108,348.39691919100005 144.68313912884332,345.3122574475128 145.13490062218625,343.0786358829937 145.26189482666086,342.2922085059108 145.2854877866339,341.399392148538 145.28053617780097,340.1245889007696 145.07955911103636,337.16362298227614 144.9059615287697,335.8846675893874 145.06499555555638,334.6648608427495 145.33995548449457,333.41478106955765 145.46665841771755,332.98784461128525 145.55870008876082,332.5292653060169 145.6583148088539,332.11516735714395 146.22367203549948,330.75730572419707 146.58659584005363,329.0376105578616 147.5288578843465,325.14600450958824 148.0828555377666,323.5945704897167 148.51772330666427,322.2540821690345 148.88880270218942,320.80764787853695 149.31842759111896,318.13625915546436 149.91029048885684,313.85738230124116 150.00815758213867,312.9172104365425 150.169230506639,311.9953794166213 150.28573895117734,311.04235793848056 150.4226363733178,309.7430682750419 150.4593365333276,308.5758564611897 150.62943886220455,306.6995903852512 150.79983246221673,305.70985461206874 150.8283770311391,304.12709349632496 150.76750136888586,301.35688965779264 150.70283918222412,297.89913009468 150.54351388441864,294.84952277492266 150.54875676438678,294.6165234835353 150.41331569780596,292.73050422256347 150.41040298668668,292.47090008761734 150.48933745769318,290.8715299231699 152.22036167106126,284.66565976676065 152.8072729599662,283.53087901190156 153.98575587547384,280.41593483055476 155.69202204444446,275.3505571440328 157.20692309329752,270.939641616249 157.38430719997268,268.49240701959934 161.47928775113542,268.80983807652956 165.41698190220632,270.28139098733664 168.60348785773385,271.4699103505118 169.50759338657372,271.8359601534321 170.20897422218695,272.08733234053943 170.68141596438363,272.26668713468825 172.1511699911207,272.78135658660904 173.236154879909,273.1593305192655 173.46480270219035,273.2396040241001 174.65901425783522,273.79601326951524 175.16291327995714,274.0304111293517 176.14158421335742,274.4914081352763 177.75668252445757,275.18267244880553 178.18747249769513,275.4863326490158 179.2811955199577,275.65146490500774 180.75182335998397,276.4491436640965 182.17876053322107,277.2417738091899 182.10769038216677,277.4431417681044 185.07865571556613,278.98206382093485 190.37250815995503,280.41685221146327 194.58545351109933,281.51862378476653 195.21896817779634,281.79612989374436 197.19291249779053,282.97495352412807 197.1250463288743,282.349764983519 197.09650175995193,281.8328248896869 197.07378261326812,280.76453926810063 197.04785948444624,279.4967172744218 197.5118543644203,278.89032510865945 197.83720419555902,278.48667431186186 198.269159253221,277.9848619287368 201.33595278218854,277.71790093550226 204.74906766216736,277.1170081458404 207.49750186665915,276.63262312300503 207.37050766218454,275.6890783457202 207.08855722658336,273.9996779606445 206.0064850487979,266.45157106406987 205.6857955554733,265.20614248141646 205.3875339376973,263.34876622084994 204.8987810133258,260.1023332552286 204.72722232888918,258.5050171153853 204.4706124799559,257.0021896531107 204.31245226657484,255.47182713414077 203.811174684437,253.44096061208984 203.53126314666588,252.09132066194434 203.13979477330577,249.37228894192958 201.89897983998526,242.7486633399967 201.72771242668387,241.75129416963318 201.3560504888883,240.20843665243592 201.02953557332512,238.25266654789448 200.8134124088101,236.39551729644882 200.52505400881637,234.36401262530126 200.21921934222337,232.21044999954756 200.1274689421989,231.55988084198907 200.07212743116543,231.0497011191328 199.92387043556664,228.97685420361813 199.77503089769743,226.89159968541935 199.6127928888891,226.06850358168595 199.46599224884994,224.87422868574504 199.32822101330385,223.83181354450062 199.25103416887578,223.19314826122718 199.20122680882923,222.8577564690495 199.06025159114506,221.69374562066514 198.98131711990573,220.8063953364035 198.8616046932293,219.97777021792717 198.87034282670356,218.53707445901819 198.83626410667785,217.74606416607276 198.84441969776526,217.34642851399258 198.84034190222155,216.55679033865454 198.78179640881717,215.66987777792383 198.74655260448344,215.2665676540928 198.71800803544465,214.95410502678715 198.6594625421567,214.45856865565293 198.42265912890434,212.49889470171183 198.14420394669287,210.06201006122865 197.76846421323717,207.45348982140422 197.0653357510455,202.79615898843622 196.79474488890264,201.4182121999911 196.15365717327222,198.15387027373072 195.28421290661208,193.67162908962928 194.7409922843799,190.61137228936423 194.3646700087702,187.81585014646407 193.8363042132696,183.8781040115864 193.68717340449803,182.36787373723928 193.2100713243708,179.2413744016667 192.79850524442736,176.99272661149735 192.27392597333528,173.31040056457277 192.0962505955249,172.12501230766065 191.89702115557157,170.65187265380519 191.67361621325836,169.0093789299135 191.47467804444022,167.6761916873511 191.1982617599424,165.8046674481593 190.6803817243781,161.8242972542066 190.64892444445286,161.57968085084576 190.08007196441758,157.68092610000167 189.19635541329626,151.5786255063722 189.21091896877624,150.78507510089548 189.16926719993353,150.4064279862214 189.15849016886204,149.95939405309036 189.1008184888633,149.60231700231088 189.16548067552503,149.20439110998996 189.5400553244399,148.12305706908228 190.26473784889095,146.03793968149694 191.35030527994968,143.17620606388664 191.62846919102594,140.7422109618783 191.58710869331844,140.02802578615956 191.67740273778327,137.55635770020308 191.57371022214647,135.89112135604955 191.5632244622102,135.52208708727267 191.6302168177208,134.4728145636036 191.82187320885714,133.2624269335065 192.01585976884235,131.63800905679818 191.93401258660015,131.02064443810377 191.91828394657932,130.8301561139524 192.12683406227734,128.34185825672466 192.2745085154893,126.79543623095378 191.93750783998985,122.99107156682294 192.95783054211643,120.55179959384259 193.43464135110844,119.28028257738333 193.77834126225207,117.89767146133818 193.89077191101387,116.67387880431488 193.9437832533149,115.95548265968682 193.71047509333584,115.53683792543598 193.75649592885748,115.0208755354397 193.7690205866238,113.85766042850446 193.60212223988492,112.6774543239735 193.46930261328816,112.00586780707818 193.41279601771384,111.61980789992958 193.37493077327963,110.64570361550432 193.27910257771146,109.57473469094839 193.1320106666535,108.34171373967547 192.9234605510719,107.37402147927787 192.65694748447277,106.7235352024436 192.12363007990643,105.74619539757259 191.89352590218186,105.32477649336215 191.5824483555043,104.76426053239265 191.31651783105917,103.48301014816388 190.3783335821936,102.51391890621744 190.1922113421606,102.32570077537093 189.39791502221487,101.56915404822212 188.92780344886705,100.89110597281251 188.70381596439984,100.34113718173467 188.39069952000864,99.87058681191411 188.29021098662633,99.69476138614118 187.90748074662406,99.02497078932356 187.48659399105236,98.39511783223134 186.48316501325462,96.91183440410532 186.04130673769396,96.29299324192107 185.71420927997679,95.83850194129627 185.24730168888345,95.19211266573984 184.00765183998737,93.35117805958726 183.55880305776373,92.72957215644419 183.16849976882804,91.67045073816553 182.91247246216517,90.99099429673515 182.3913884444628,89.68992106243968 182.00312405324075,88.58992501313332 181.71651327994186,87.75161040452076 181.61136440886185,87.34714310115669 181.45116529776715,86.53728801663965 181.2664994132938,86.1387867804151 180.64084906654898,85.31423580425326 180.00587804440875,84.52641021477757 179.41692785779014,83.1022566613974 178.60457272885833,81.80710434843786 177.9629024710739,80.59045294998214 177.4630812444957,79.43302085972391 176.6923778844066,77.37570558377774 175.9059458844131,75.20037522702478 176.7596615110524,74.20131367014255 177.27608519117348,72.61869152996223 177.77415879105683,71.65543048339896 177.8207621688489,71.57232720789034 178.1749478399288,71.14487283793278 179.05254769767635,70.01998887298396 179.60479772440158,70.16507627686951 180.5590018844232,70.25736283435253 182.41265123547055,70.3964813016355 183.1559751110617,70.2288963382598 184.14920960005838,69.65772907494102 184.54067797330208,68.79362910497002 185.38245148444548,67.87810177128995 186.18286449776497,67.05118533107452 186.78113536001183,66.69397114182357 187.02784199104644,66.5511771296151 187.8381582221482,65.41570884129032 188.76614798221271,63.923015806649346 189.15732508443762,63.300866016186774 189.46432483545505,62.839417965500616 189.6411263999762,62.66034830710851 188.8852778666187,61.726428758120164 187.68582343112212,60.35951955791097 187.1268741688691,59.57252121833153 186.5935567644192,58.4696167340735 185.49196942220442,56.70459050661884 185.07516046217643,55.82758199365344 184.93505905778147,55.43912577565061 184.8837953421753,55.03184291452635 184.87097941327374,54.33574100327678 185.02069276443217,52.7093516679015 184.9848664177116,50.53009931824636 185.16283306665719,49.35873061046004 185.11768604442477,48.673171613016166 184.37115818669554,47.41868025553413 184.3851392000215,47.00219853332965 184.2957189688459,47.00541283853818 184.179793066578,46.83459540840704 184.19377407990396,45.06029023765586 184.34465251560323,44.382064662117045 184.44892757327762,43.635417116223834 184.4742681600619,42.953972698538564 184.31232142215595,41.82434985518921 184.0047391288681,40.57532909832662 183.74958563549444,39.34650603646878 183.42510961776134,38.277020182227716 183.0994685156038,37.12027962459251 183.12451783113647,36.39289374148939 183.19908323546406,35.732550141750835 183.5395791643532,34.25067297212081 183.94095075549558,32.530452008591965 183.91910542210098,31.807642847299576 183.83055900444742,30.250426322221756 183.8745409422554,29.53312020987505 183.76764444448054,28.80708643584512 183.6511359999422,28.475984833727125 183.13937265775166,27.81745392421726 182.70246599114034,27.028959251008928 182.71790336002596,26.53804294136353 182.94509482663125,26.02829704177566 183.26957084448077,25.64254258782603 184.39708131551743,25.0928412998328 184.87971754663158,24.777807182166725 185.75789994664956,23.80239250860177 186.16771840001456,23.56496746011544 187.14668060443364,23.12961098679807 188.56691854225937,22.344773100921884 189.93239751108922,21.44649990624748 190.5539700621739,20.756259834975936 192.34033578669187,19.869920378783718 193.81970175995957,19.306886274483986 194.04165034671314,19.12226955179358 194.71303025772795,17.94430092460243 195.25945486221462,17.35784007271286 195.05876906658523,17.328907350543886 193.91145215998404,17.069890426006168 193.51037183997687,17.067134925164282 192.39480348443612,17.202613676141482 191.18661091546528,18.1688732173061 190.32765240885783,18.56428521394264 190.1330833066022,18.693792818346992 189.56918243551627,19.322041371488012 189.01780622219667,19.71285881055519 187.15308856894262,19.798278274131007 186.62064497778192,19.651320036384277 185.6737225955585,19.229733036423568 185.0702088533435,19.110788407095242 184.0388178487774,19.09287782025058 183.45860579551663,18.98265879106475 183.0406317510642,18.69792603852693 182.73625343991444,18.318128701823298 182.13011825783178,17.635226610000245 181.67020117328502,16.986766134388745 181.22543018660508,16.454494358971715 181.10455267550424,16.28640826244373 180.8788175644586,15.50246400164906 180.63822762668133,14.758012832491659 180.12063886213582,14.087499402812682 179.00128398218658,12.722584807896055 178.56699875555933,11.6065816024784 177.1700625065714,9.260200488963164 176.2679958755616,6.802650076628197 176.1937217421364,6.634097191621549 175.91351893323008,5.899260187637992 175.75681507552508,5.729328774323221 174.87222471099813,5.132271396461874 174.69687950215302,5 174.2637593599502,5.082210356660653 171.7454293332994,5.6039468619273975 170.6951057066908,6.100881339632906 169.13360127992928,6.42696526425425 166.57332821330056,6.569799053599127 164.02878378657624,6.229018602520227 162.08192767994478,6.1748243572656065 160.4726547910832,6.139919581939466 158.9568799288245,6.242337525181938 158.68745415110607,6.273568099131808 157.40032711112872,6.37047470419202 156.5573885155609,6.664409164222889 156.0887332977727,6.812754060141742 152.70212408876978,8.423874102416448 151.23324387555476,9.29143062629737 150.3818584177643,9.775497176335193 149.76174222223926,10.44740179355722 149.40114858665038,11.084400343359448 151.0526557866251,11.33332067891024 152.44609678222332,12.018998273997568 153.28903537767474,13.524450215278193 152.888537599938,14.436534050735645 152.68930815998465,15.428064925596118 152.42774670221843,17.370239809621125 152.66775409772526,18.648786638397723 154.5458702222677,19.4915028391988 155.99115747550968,19.97095407580491 159.57699612446595,21.27152907900745 160.97742762661073,21.84879449859727 163.26740110223182,22.95234533585608 163.21759374218527,23.149817424826324 162.93243932444602,24.061860589834396 162.66301354661118,24.88389015069697 161.79386055108625,26.27260783931706 160.83645240892656,27.626415292848833 159.40310727106407,26.4604330578004 159.3180561066838,26.567433659278322 157.92723655106965,28.82912924286211 156.81312455108855,28.28081374859903 154.09673016879242,27.493239223840646 154.41538076440338,33.38183911074884 151.86209820443764,32.82435084844474 147.58332558220718,31.628547445870936 145.59336135105696,30.91859344393015 143.82738460437395,30.255018543160986 142.3905442133546,29.338868528604507 141.3556579555152,28.523285093717277 140.8339913955424,28.15085266926326 140.49990343116224,28.819485515065026 138.54809571558144,27.912054722430184 137.64311637333594,27.455123299267143 137.11038151104003,27.291178824205417 137.0264954310842,27.511149113764986 135.2200319999829,30.39783656608779 134.70885119994637,31.067380892578512 133.06142179551534,32.33207006548764 131.96332970669027,33.37541009450797 130.7723221332999,34.974392377305776 129.69636664888822,36.66612294327933 129.47500060440507,38.655863995547406 129.46771882660687,40.72273229167331 129.1146982399514,40.723650691332296 125.95819320878945,38.4101895983913 123.14189283549786,36.45810141437687 119.4779935288243,34.519771968363784 118.62369535991456,34.16342237230856 118.69360042666085,34.01785155630205 113.17925575107802,32.33895833056886 111.81465059553739,31.943112347100396 110.56189354660455,33.7730903099291 108.70853546669241,33.289996003499255 107.5087897599442,37.333810999873094 108.00890225777403,37.76638359023491 107.5419946666807,41.593373399577104 106.5889555910835,44.66584515548311 104.70297514658887,48.622661486966535 102.06172871112358,52.249717678525485 100.07817244448233,54.72649505699519 98.94658417778555,56.31384003337007 98.48375438223593,58.35620367206866 99.33776127989404,62.32516623957781 99.91156536887866,64.84682458627503 100.01496661326382,69.46305435698014 100.0062284800224,69.59758195199538 99.92409002664499,72.69261176639702 99.88768113777041,75.88722736545606 99.80088234669529,82.36262968805386 101.59598620445468,87.37468913907651 100.00418958219234,90.21466678596335 96.82176142220851,92.14469170343364 93.40165603545029,94.05771317228209 90.64186225773301,97.23594486876391 90.91216184885707,97.93833556585014 90.76011832884979,98.28356205130694 90.15427441778593,99.72919196379371 88.70316174218897,101.25606779463124 86.18978332448751,103.7015256206505 86.07939157332294,103.85944422776811 86.37328412442002,104.20787469972856 86.17259832879063,105.07504638418322 85.24431729782373,105.92752462939825 84.09758293326013,106.9122085586423 83.03153066663072,108.30269397440134 82.33481016883161,109.24192071997095 82.15014428447466,109.94748572946992 81.87722325336654,110.48824902315391 81.4330348088406,111.0932779959403 81.11351039994042,111.55600007239264 80.69670143991243,111.64367844932713 80.80563683551736,111.86815329396632 79.45384760887828,112.52275549597107 79.10286591993645,113.15210819640197 79.06849592889193,113.70984811533708 80.6620401777327,119.7512496811105 82.60743992880452,126.95609204738867 82.70064668438863,127.77268076408654 82.35927694221027,129.09326205216348 80.44387811550405,135.6432625883608 80.03085568000097,136.35149531217758 78.20079928881023,138.54548732133117 77.34766620432492,137.5646195905283 77.24135224882048,137.47557475604117 77.24805148446467,137.4673128623399 76.15607608889695,136.23353318567388 75.28168021328747,137.71471054269932 74.69127367099281,138.40228182839928 69.13673358224332,140.0574010584387 68.70215708436444,140.516389169381 68.4167113956064,141.07176347915083 67.74067114666104,143.90644514281303 67.30172558221966,145.137427113601 66.77335978660267,146.34269945538836 66.42558208003175,147.01142534345854 64.5652334933402,150.784616135119 63.95676814217586,151.59652510588057 63.687342364457436,151.7383449577028 63.07800320000388,151.75211387034506 61.91728782223072,150.769929229049 59.95790705783293,149.5431100820424 59.03166492434684,148.94645028968807 57.263358008814976,147.68336196732707 57.08451754669659,147.5502599333413 57.043739591143094,147.49931396066677 56.87917141336948,147.4001758171944 56.67499036435038,147.23265061032725 56.36041756439954,146.9889356251806 55.86176142224576,146.57677670056 55.63835648004897,146.45973810972646 55.40592213324271,146.40007135266205 55.276306488900445,146.42531498265453 55.150186097831465,146.47396633389872 54.773572551086545,146.74338446743786 54.247536924434826,146.72915626096074 53.717714773258194,146.02508835634217 53.10517162666656,145.43622145539848 51.26084295101464,144.06984210957307 50.61917269323021,143.5787328760489 49.97808497783262,143.11194857861847 49.3218511644518,142.62267309916206 48.672316586598754,142.11044730059803 48.069094115518965,141.62116955197416 47.440531057771295,141.09241786797065 46.836726044421084,140.52924082236132 46.257096533314325,139.9348510678392 46.10650936886668,139.76594310149085 45.546395022189245,139.0490007525077 45.09842005325481,138.45139397925232 44.67025152000133,137.8312948801322 43.87333375995513,136.57548547629267 43.37380380439572,135.99118277797243 43.35894897778053,135.9659379281802 42.86524444445968,135.4927111979341 41.77589048887603,134.48474857548717 40.62566087115556,133.49422334542032 40.05010915559251,133.10085780220106 39.43057550210506,132.74926092242822 38.74987491546199,132.45228504412808 38.30335630220361,132.29438734741416 38.24772351991851,132.26776505005546 37.578673777752556,131.62745190720307 36.75991068442818,131.52968349674484 35.36676095996518,131.73577741818735 34.27828081778716,131.5241754159797 32.90726769773755,131.05736505956156 31.83859399112407,129.99108747125138 28.853356373263523,128.29962901043473 27.5711809421191,127.3549769721576 26.231625102227554,126.28317288635299 25.100036835530773,124.96716461889446 24.829154702136293,124.60683308762964 23.765432604355738,124.53981594671495 23.12667505769059,124.42873269470874 22.876764444401488,124.5893902721582 23.60698111995589,125.73189171077684 23.91951502219308,126.60127204179298 24.05146083550062,127.99484377040062 24.57429247989785,128.92342758062296 26.099388017784804,130.07049618591554 26.544741546618752,130.7741571047809 26.81212842662353,131.96803447476123 26.828439608914778,133.18806842784397 27.34136803552974,134.27682127419394 28.02498133329209,135.66162250679918 28.54402645328082,137.0032693244284 28.6584959999891,137.90840574586764 29.289389226702042,140.1648043638561 29.499395697726868,141.36184271599632 29.537843484431505,142.52949950046604 30.15417315554805,143.75819441711064 30.61612913769204,145.44953179277945 31.2362453333335,146.0980655142921 32.41035918216221,146.87235623190645 32.34802716434933,146.92651517048944 32.300258702249266,146.9591023218818 31.88286719995085,147.3331657500239 28.010709048830904,150.712099526776 28.96607829327695,151.389991174452 30.64554751990363,152.61679982906207 34.34935096884146,154.80970867263386 36.78816398209892,156.16133352468023 37.35468629328534,156.57393310999032 38.51132387551479,157.86129382322542 38.93191935995128,158.544670420466 39.96651434665546,159.80998994898982 40.916058168862946,161.07530206360389 42.77524167113006,162.84268789563794 45.7869849599665,164.78950332698878 48.69561827555299,166.85516453662422 49.32622023113072,167.56604848336428 49.81060408882331,167.41781399946194 51.015301404404454,168.26499794557458 52.15533653332386,169.30446883186232 53.40022926218808,170.40175916010048 53.75179349328391,171.7363063406665 54.094619591138326,173.13968302845024 53.57178794662468,174.6917391050374 53.58081735111773,176.34153219580185 51.74027519999072,177.34516928187804 52.27679658657871,178.49473415024113 52.807492551160976,180.4661892360309 52.838367288932204,180.82688647310715 52.84797923557926,181.32571232120972 52.45592832006514,181.83096161461435 53.36615054216236,183.40498226310592 53.848786773276515,184.03550510073546 54.11093077331316,184.51688556210138 53.87500117323361,185.2442315069493 53.510329742217436,186.43964333785698 54.696385706658475,186.9614006691845 55.60369521775283,187.63871965184808 56.144294400000945,188.39588266663486 57.07315797335468,189.73720190301538 58.22455267549958,191.6484412297723 58.32241976889782,192.2518662196817 58.25659249769524,192.7254274644656 58.509415822220035,193.23340334312525 58.928554951096885,194.00523071107455 59.398083982174285,195.44838447135407 57.998817564337514,195.52455702517182 57.64958350220695,195.635144841508 57.299184355535544,196.3009648959851 57.319573333254084,196.60519487864804 58.36145009775646,197.07736997585744 58.88136903103441,197.96206456061918 59.03952924441546,198.539775510435 58.02357560885139,198.97661389998393 58.82078463991638,201.2993678926141 59.348859164398164,205.00232388614677 59.451969137764536,206.23571074660867 59.72314254217781,207.55627116234973 60.09684337768704,210.0294324301649 60.420445582130924,210.9769347634283 60.48132124438416,212.1584391136421 60.94531612447463,212.92285751388408 61.23338325333316,213.3206660192227 58.43426787550561,214.45765099464916 58.38591687101871,215.19957864133175 57.244134115520865,214.8449035907979 49.94808405335061,210.09229348850204 49.668172515463084,209.8197424900136 48.912323982222006,211.97995207487838 47.27072000002954,211.49817398417508 45.00696092448197,210.7621985214064 43.845954275573604,210.44835286051966 43.813331911107525,210.56810981128365 43.234576213289984,212.02858866052702 42.05055914656259,214.96603459201287 41.83530979556963,215.51754685270134 43.30244238220621,216.24616488459287 40.40342101326678,222.77471136202803 39.66242730664089,224.4122081588721 39.429701688932255,224.89028697821777 37.90023708436638,228.43271712196292 36.91544945782516,230.79690478474367 33.44495416886639,229.6985448623891 33.489227377809584,229.7843400950078 34.13614051556215,230.23717319138814 33.70564181334339,230.1926698795287 34.633922844426706,231.23918347700965 35.635604195529595,232.11915021482855 36.40543374221306,232.82523146469612 38.04441628442146,234.06258855655324 38.92347249772865,234.6420381058706 39.27853198221419,234.91409899690188 39.50484963553026,235.18248925358057 41.626468408852816,238.7215391555801 42.13240632880479,239.6074395137839 42.24308935110457,240.16944070567843 42.24862350220792,240.4382832077681 42.197068515466526,240.5860088088084 42.07589973323047,240.77961177268298 42.06250126217492,241.438411079871 41.93346815998666,241.9242513430072 41.98327551991679,242.1852925438434 42.2028939378215,243.00878600485157 42.67329678218812,243.9689891791204 42.85534122667741,244.44014321290888 42.987578311003745,244.3350855865283 43.21622613328509,244.60942810156848 43.24884849775117,245.74441333283903 43.32865678216331,245.8366248862585 43.280888319946826,245.86827958963113 43.28729628433939,246.23024391097715 43.19088554661721,246.4009036847856 42.904274773201905,246.66056318953633 43.02777372440323,246.9211399052292 43.22117774223443,247.30145289259963 43.5817713777069,247.9583972718683 45.16220842662733,247.21658213913906 45.51056867558509,247.03124264837243 45.7869849599665,247.3886174154468 46.87255239102524,248.30980664328672 47.10003512876574,248.4460579038132 47.48276536888443,248.65800413809484 48.07899733330123,249.06905078771524 49.47010815993417,250.54761948995292 49.63380252441857,250.94352369522676 49.79225400881842,250.86599442362785 49.94167608884163,251.1811576206237 49.6276858310448,251.87800154322758 50.044786062208004,252.2858308145078 50.26294812443666,252.53080325748306 50.36343665770255,252.67209809826454 50.59820117324125,253.29232630616752 50.79189646220766,253.89145038393326 50.356737422174774,254.75481002987362 50.29935701331124,254.86903748224722 49.939054648857564,255.3080556828063 48.84125383105129,256.0957172398921 48.16433976893313,257.1035711996956 47.325478968792595,258.53162385657197 46.46914190216921,260.02434853703016 45.80416995554697,260.89043606305495 45.24347306659911,261.3055880157044 44.77044878224842,262.2147909415653 44.68394126219209,263.51528393418994 44.226063075475395,264.37218297459185 43.26224696880672,266.12587956816424 42.60863459552638,266.6043247937341 41.64044942217879,267.26442150049843 41.22189283557236,266.6965274431277 38.8095854932908,263.29371901467675 37.126329742139205,260.5518916702131 36.948363093310036,260.6073983075912 33.91768718219828,261.3601769976667 31.77888341329526,261.90102003118955 29.696003697696142,262.27396698319353 27.335833884426393,262.64324346598005 26.462311822222546,262.7932475216221 23.53882368002087,263.2028910937952 21.696242631063797,263.48409054311924 19.79686371551361,263.8386857380392 16.65696113766171,264.3822749130195 15.895578453317285,264.57769144687336 15.020308764418587,264.74374948919285 14.105717475526035,264.8887061289279 13.931246079970151,264.03960746584926 12.808687217766419,264.2116293446161 12.25614592002239,264.27401591220405 11.736226986628026,264.35566889244365 10.809693582123145,264.51530496700434 8.45360156451352,264.995129929157 5,265.75523287418764" stroke="red" stroke-width="3.2910990476450452px" fill="none" stroke-linejoin="round" vector-effect="non-scaling-stroke"></polygon></svg>