<svg width="388.83448888885323" height="434.38291800924344" xmlns="http://www.w3.org/2000/svg"><polygon points="5,183.72782283864217 44.50655715551693,209.76215503341518 46.881290524383076,211.93123625108274 66.56713983998634,244.82172726246063 67.53998535114806,247.66074575087987 44.71306837326847,263.1088374618557 43.19088554661721,263.71502618677914 49.200682382215746,277.8966128199245 49.898859235458076,279.9154198617325 19.455493973218836,287.5078505190904 19.35384035552852,287.54444651515223 22.818510222132318,302.4828727686545 22.762003626558,304.38984142860863 15.340706986607984,326.1904817663599 14.109795271069743,330.0561236278736 27.88837518217042,335.1368770595873 29.018798364326358,335.0024163122289 28.30751431104727,356.6545512902085 28.30926193774212,356.8484480481129 63.148490808787756,357.15164003608515 65.40933717333246,356.6925075087929 71.03989902220201,377.00864735175855 71.03669503994752,378.80841871298617 77.98991900437977,378.4330103219836 78.40701923554298,379.48698716115905 77.26232376880944,374.9623952222173 79.83657784888055,371.9910655178246 99.3808694044128,361.83025472139707 104.32403143111151,359.0412070789025 136.60706503107212,396.48799919796875 142.3503487999551,400.56316042732215 213.39166407100856,428.1902096316335 216.16310869331937,429.38291800924344 220.87878798216116,419.7628908663173 221.16831146657933,419.3029767581611 236.43208277318627,423.22638760105474 237.17977571557276,422.310687608493 224.14306332438719,412.1097198316711 221.5023994310759,409.93578589352546 231.5340677688364,398.2610901063308 233.70840661320835,396.039008943364 229.42759509326424,391.4128005494713 225.22600931546185,387.103360549605 214.9866646755254,391.0095229058643 213.73827669327147,391.0570749573526 200.03134947549552,385.63241587532684 197.67933525331318,382.7481098959106 211.26305479113944,370.52916365116835 215.8916440177709,367.3126704256283 225.73282104881946,375.0337285827263 226.88421575108077,375.3931386183831 232.8718759821495,362.7402657707571 233.5417995377211,361.3885092851124 220.40780259552412,355.60412173124496 217.9072401066078,354.2422598871053 224.85988152888604,354.05384850740666 228.1331862754887,355.92835151206236 241.34873912879266,343.4229737842106 245.02894961775746,341.60781613207655 236.75218972435687,280.6716099016485 236.73413091548719,280.48084714618744 289.1780770132318,310.05484352383064 291.7750502398703,310.69840765715344 310.2815428265603,311.83138691511704 310.8731144532794,312.0413327633869 307.692433919874,280.0307012726553 307.06387086224277,276.50544115010416 337.700931413332,288.1066517276922 338.7509637688054,288.56684465520084 345.2661159822019,298.83401591080474 346.84131015103776,299.4080848445301 380.3054481066065,298.8061129198177 381.6528682666831,298.81800599838607 377.8095459555043,286.18535855732625 377.6155593955191,284.4822551366524 381.38402503111865,266.5231447100523 381.41315214219503,266.424325908476 376.7813589333091,256.2768587472965 376.5579539911123,256.04672807251336 383.2333053154871,236.43851283501135 383.35563918214757,236.36072796903318 373.81155868433416,209.44914658134803 373.7870919110719,209.29813356971135 362.041875626659,205.27748778200475 361.9472125155153,205.01115053746616 375.3710242132656,204.2240351153887 375.84113578661345,202.60494799457956 374.7474127643509,193.4933527588728 374.9297484799754,192.30300502333557 379.49920967104845,187.37084083544323 379.7998014577897,186.04407542821718 372.3718055821955,161.68762881698785 373.6516508443747,160.81933971476974 363.23463082662784,151.46429913665634 361.74244892434217,149.88830253941705 348.2364987732144,112.19736997591099 348.3031998577062,112.1547926387866 328.22588216885924,83.16637948079733 328.164423964452,82.71124406106537 345.7443831466371,75.44451564154588 352.96819797332864,71.13289961934788 381.2663515021559,70.78031039511552 383.83448888885323,69.8635757220909 373.9662236443255,36.79442201508209 370.19076750217937,23.873492394399364 360.17249763547443,24.833016575605143 359.18654492439236,25.60933493351331 353.0121799110202,18.90725695405854 351.8269977599848,18.942066342337057 338.51153891545255,25.045073135232087 337.19266332441475,26.288553960097488 329.87709809769876,42.04052410152508 329.5867007999914,43.27200007234933 321.46547967998777,34.55946601385949 320.5500145776896,33.76028044387931 331.2233531733509,25.003394648607355 331.39665948436595,24.723095166904386 318.2073210310191,15.839886619651224 318.0669283554889,15.71301371260779 303.20831516443286,24.19134956371272 302.2037211022107,24.893473326636013 291.2035763199674,12.838429271418136 290.4954962488264,12.000230627832934 292.8393548800377,7.069907926721498 293.25383367110044,5.876701638102531 284.327247928828,5 283.2384765155148,5.289485991408583 278.7546490310924,23.24739484564634 278.88601230212953,25.58139668102376 250.89340216876008,45.88468433142407 249.7728822043864,46.70076959725702 225.13513272884302,30.449468188977335 226.68294741329737,29.49271690339083 215.16113607108127,29.425391497963574 214.72685084445402,29.677289165963884 209.39746332436334,41.31738935067551 208.47879423992708,42.762740498932544 211.91084174218122,54.58256593166152 212.1595872710459,55.15774126391625 208.41529713768978,62.63671308843186 208.7179278221447,63.38038314454025 236.183337244438,69.18678309564712 237.17482410662342,69.22662142122863 243.85978737776168,78.64840828842716 245.17400263110176,79.33845012862002 210.42652415996417,75.52327418333152 209.3214415643597,76.13090452656616 213.19068700436037,92.3288667993038 213.5195320888888,93.06694043515017 210.5281777777709,94.84435060474789 211.15324558212887,97.0850936685456 217.82481038209517,102.92034851375502 219.1148501333082,104.08921194443246 215.96562687994447,105.00351238751318 214.84772835543845,107.20386105705984 194.41185592883267,110.7460732247564 193.20686734223273,110.3976689906558 172.54118200892117,126.92358982691076 172.4500141510507,126.95883962447988 145.17975637328345,106.39532937813783 144.90013610664755,106.25202758185333 141.6504243199015,90.80829896900104 141.49080775107723,90.7116892093909 135.91820885334164,104.58504987019114 135.37411441770382,104.90004142461112 140.3906767644221,114.66821463039378 139.90454527991824,114.9703726847074 99.96341162663884,112.2056107497774 99.45543480885681,112.12594992184313 101.6792897421401,89.98551209969446 101.61695772444364,89.54962151619839 93.87584540434182,92.6090786747518 93.37602417776361,92.36686941160588 92.36443960876204,74.90739993815077 92.41220807109494,74.52551123540616 87.72157809778582,76.05306200066116 86.08259555546101,76.63184340525186 63.783461831044406,96.62037260760553 63.18693859549239,96.75589727627812 65.80342698656023,115.91484279051656 65.80663096893113,116.01281473221024 78.2372081776848,112.62772108387435 78.56925724435132,112.62634762423113 83.15211690659635,119.18085547123337 83.38251235545613,119.65102172526531 78.71168881771155,141.69366756564705 77.95933553774375,142.7478825027938 88.00003327988088,149.9533017547219 88.35130623995792,150.00044906063704 80.73369287105743,170.92276858276455 80.73806193773635,170.97952294361312 65.84129223099444,171.65004712867085 61.88670435547829,172.08348384086275 61.866897919913754,178.240296775999 61.76087523554452,178.44121865869965 7.137638684478588,166.3388893866795 6.558591715525836,166.02673352195416 5,183.72782283864217" stroke="red" stroke-width="3.4185323228143414" fill="none" stroke-linejoin="round" vector-effect="non-scaling-stroke"></polygon></svg>