<svg width="1425.0203983645188" height="2353.4996958315605" xmlns="http://www.w3.org/2000/svg"><polygon points="5,19.19937901617959 28.361690737772733,53.180518709647004 29.551241955487058,58.4891333685955 28.84257934219204,67.21637942141388 27.19485866674222,76.5147905088379 23.730771342176013,76.1680431892164 7.65347982221283,118.81288629653864 6.865882737794891,122.24813623068621 9.163429262232967,167.03568666789215 10.565317120053805,171.48210428713355 50.48198400007095,242.71691911842208 53.144201955525205,246.36064705834724 114.88639573333785,304.1782562821172 116.1103169422131,305.9498677534284 120.16248063999228,315.083796581137 124.95039516442921,322.6576149747707 121.61563221330289,345.61155465536285 120.36695296003018,348.95423842262244 133.45259889785666,334.45612670108676 133.73484060447663,334.3630407087039 144.85265891556628,356.25311911618337 144.9167385599576,356.45478502009064 161.72599438228644,357.65838893520413 164.05820216890424,357.8399783317582 159.0911559110973,354.85468410199974 155.62473841779865,352.68241528386716 158.15093276440166,350.33811084367335 159.12290446227416,349.50724092446035 149.79931619553827,335.0137292101863 149.55668736004736,334.49171839340124 149.06269155547488,324.33917941560503 149.0664780799998,324.32412068743724 153.819731342257,327.81406705011614 154.5243161600083,328.76320592529373 165.3983405510662,302.8812559117796 166.1640923023224,301.23101480689365 169.2081666844897,304.1399214070407 170.03013375995215,304.57164472690783 186.91191608889494,289.9304504801985 187.73475697776303,289.12079977535177 179.61790492443834,284.8675737149315 178.9013779910747,284.2966063354397 179.37993642664514,275.2394294278929 179.32430364447646,274.83640273322817 170.8142355910968,268.7931945978198 170.2258679466322,268.0277399744373 187.56523719115648,242.7707857505302 191.7534244977869,235.5000388546614 223.7862562133232,228.2062216649647 225.27290396450553,227.77480274473783 241.89924152893946,196.93594056391157 243.53589390218258,194.46301670337562 214.51946581329685,174.28224570001476 212.35270001774188,173.10547834984027 210.11573788442183,163.98246055387426 209.55737116443925,155.1650353942532 126.40383800887503,114.82580873620464 122.7076076088706,113.0631398767 143.16532536887098,91.67427831073292 143.83437511115335,90.46051677991636 127.58115583995823,80.14486812549876 122.42886115552392,74.68876446317881 132.87937735114247,65.8489726735861 133.62037105776835,64.90827588317916 118.16436081775464,49.4380476573715 114.45677084440831,46.801693618064746 114.11656618665438,40.31484673183877 111.27754666667897,37.701228102785535 122.37031566223595,33.47322196245659 123.00208270223811,32.6786053054966 113.02633841778152,24.813159671146423 113.08692280889954,24.652767957304604 79.88667647994589,8.541706199815962 76.0949091555085,5 53.958595982170664,10.563423229963519 52.90739854215644,10.77363684703596 46.15981198218651,20.24766135669779 45.3212424532976,21.295938623487018 29.619399395538494,21.06288701063022 28.84024917334318,22.164624877041206 28.389652764541097,15.634998316061683 27.492246471112594,15.135066383518279 9.351590399979614,12.464478085224982 8.099707164452411,12.036742197698914 5,19.19937901617959" stroke="red" stroke-width="3.8132579227648846" fill="none" stroke-linejoin="round" vector-effect="non-scaling-stroke"></polygon><polygon points="5.046312106656842,140.82796172669623 9.163429262232967,167.03568666789215 10.565317120053805,171.48210428713355 37.8297494755825,224.8046085415408 40.00991374219302,228.2062216649647 64.77087089780252,260.0453067118651 69.22731889784336,264.804311059881 114.88639573333785,304.1782562821172 116.1103169422131,305.9498677534284 120.16248063999228,315.083796581137 124.95039516442921,322.6576149747707 121.61563221330289,345.61155465536285 120.36695296003018,348.95423842262244 133.45259889785666,334.45612670108676 133.73484060447663,334.3630407087039 150.84497948444914,359.18638139928225 151.92093496886082,359.8976766964188 164.05820216890424,357.8399783317582 164.09606741333846,357.4809056846425 159.0911559110973,354.85468410199974 155.62473841779865,352.68241528386716 158.15093276440166,350.33811084367335 159.12290446227416,349.50724092446035 149.79931619553827,335.0137292101863 149.55668736004736,334.49171839340124 149.0664780799998,324.32412068743724 149.2191041422775,323.9020195483463 153.819731342257,327.81406705011614 154.5243161600083,328.76320592529373 165.3983405510662,302.8812559117796 166.1640923023224,301.23101480689365 169.2081666844897,304.1399214070407 170.03013375995215,304.57164472690783 186.91191608889494,289.9304504801985 187.73475697776303,289.12079977535177 179.61790492443834,284.8675737149315 178.9013779910747,284.2966063354397 179.37993642664514,275.2394294278929 179.32430364447646,274.83640273322817 170.8142355910968,268.7931945978198 170.2258679466322,268.0277399744373 187.56523719115648,242.7707857505302 191.7534244977869,235.5000388546614 223.7862562133232,228.2062216649647 225.27290396450553,227.77480274473783 241.89924152893946,196.93594056391157 243.53589390218258,194.46301670337562 214.51946581329685,174.28224570001476 212.35270001774188,173.10547834984027 210.11573788442183,163.98246055387426 209.55737116443925,155.1650353942532 126.40383800887503,114.82580873620464 122.7076076088706,113.0631398767 143.16532536887098,91.67427831073292 143.83437511115335,90.46051677991636 127.58115583995823,80.14486812549876 122.42886115552392,74.68876446317881 104.45568597340025,84.1609075346496 103.4295378489187,85.0773087790003 77.75486321770586,68.5189028470777 77.51136056892574,68.5207303033676 66.55694535106886,83.86899226624519 66.28518940450158,84.08370306529105 60.33801585773472,79.40844149130862 59.98528654221445,79.12291560292942 41.85365987557452,84.75570080778562 40.38011932442896,85.27739986113738 41.321798826684244,90.45412133052014 40.14418972446583,90.81363666214747 35.738422897760756,78.22202185296919 35.42355882667471,76.79529452207498 27.19485866674222,76.5147905088379 23.730771342176013,76.1680431892164 9.643735324498266,112.17974459496327 8.61001415119972,115.15787768305745 5.046312106656842,140.82796172669623" stroke="red" stroke-width="3.707007144422393" fill="none" stroke-linejoin="round" vector-effect="non-scaling-stroke"></polygon><polygon points="1323.983652693336,2333.2987295995117 1341.5088529066416,2348.2383830687613 1342.1228524089092,2348.4996958315605 1374.899881813326,2332.6937795821577 1375.4492191289319,2332.8090728762327 1381.2589127111714,2325.957380526059 1382.0141787022585,2325.4699680558406 1385.8770161777502,2307.8269834964303 1386.2009096533293,2307.0867599520716 1386.354118257761,2278.640738928865 1386.7205373155884,2277.6774598240154 1408.6695631644689,2280.861239348189 1409.9342623288976,2280.767173801025 1419.4728086756077,2267.9159916231292 1420.0203983645188,2267.316739746486 1407.2566070044413,2224.10475746257 1405.7446186667075,2223.5782146874117 1405.782775182277,2228.1985389447073 1403.8411619556136,2231.981938950601 1390.1231664355146,2242.2479936147574 1382.8163393422728,2251.369251039636 1375.831658097799,2247.2266028489685 1373.102739057853,2244.2888436312205 1352.7851227022475,2252.8220314012724 1351.7176140800584,2252.206003052066 1348.722473244532,2260.071315086563 1348.6685880889418,2260.209713092947 1356.2853276444366,2273.8654558614944 1354.6510054400424,2277.3310401013587 1365.274245404522,2273.261697788723 1368.7642558577936,2271.7783000722993 1370.5800399645232,2279.3557334861252 1370.2322622577194,2281.130320857512 1365.3234702221816,2289.4391231752234 1364.860057884478,2290.254474904272 1352.9791092622327,2286.359933227417 1352.6109425777104,2286.035686434363 1352.6590023111785,2297.195468374004 1352.4746276978403,2297.876939116977 1323.983652693336,2333.2987295995117" stroke="red" stroke-width="3.9897320985635876" fill="none" stroke-linejoin="round" vector-effect="non-scaling-stroke"></polygon></svg>