<svg viewBox="0 0 85.75224609776275 71.89218362732142" width="85.75224609776275" height="71.89218362732142" xmlns="http://www.w3.org/2000/svg">
  <title>Hroznětín, okres Karlovy Vary, Karlovarský kraj, Severozápad, 36233, Česko</title>
  <desc>Geojson of Hroznětín, okres Karlovy Vary, Karlovarský kraj, Severozápad, 36233, Česko</desc>
  <metadata>
    <collboard>
      <support-module name="@collboard/map-svg-geojson-import" version="0.11.1"></support-module>
    </collboard>
  </metadata>
  <polygon points="8.05255000000011,28.36161695462181 15.746913306625856,37.89161417540856 15.948545733328274,37.98133867105173 12.381202799973607,42.0988150276022 12.232727351081621,42.50419574324735 13.83930598220445,41.60473893283745 14.609790888854832,41.49609630820453 16.076340933308302,44.546443105158346 16.175882835530274,45.390108778323 23.736042977754323,46.90379516813084 23.94517563554814,46.98962911964156 22.215680595552612,54.114399312129194 22.280634053320455,54.37391805054324 28.349704559957672,63.15989488171874 28.400677004428644,63.27612910168648 60.392002586631634,62.36094881193242 60.71778932441498,62.242889316119204 63.92162591109059,52.7648134670668 64.15937595553237,52.49046993487684 76.2447240799736,47.235275334918356 76.4202149244154,47.30629025155906 76.82326132441062,44.326775534332796 77.69969609776285,44.50620308220789 74.79135405331158,41.11510439762026 74.66268503998413,40.89872898485157 74.4791842399643,35.238460998523465 74.47204809776281,34.92207142861264 69.34909897775628,30.10781957956317 69.34414736886515,30.081023764628867 76.38963145777939,27.73696584227548 76.47846914662637,27.72202794918087 72.50028831110808,24.293159447777384 72.3523954043992,23.926985576755783 74.03696187554283,18.726274138148824 74.24536635555683,18.63412274482073 69.45439348440391,15.977403707605504 68.914085573291,15.452294519410884 65.7403227288521,8.106049327448659 65.6579658222106,8.052549999999997 58.84506171555381,14.815176497948073 58.59456855996518,14.962309681293505 50.95561958218582,13.910241610173784 50.42434107553686,13.797437349297638 53.284040844424226,17.143825922837664 53.301954017755406,17.81832517474652 46.98158935996594,22.35255800095149 46.34545325331396,22.697416973991153 43.788092897775414,22.903715489526462 43.58726146666572,22.41231546691381 45.02286395553506,19.105940788380053 45.2775805422059,18.232783352308275 35.83748383110628,12.817205203456638 35.43625787553151,12.845948590569265 29.55119789331343,18.89643446761295 29.25737815997104,19.4357661915343 13.931930195547238,18.812038660522035 13.627915973316476,18.921639135871033 13.353684222187212,22.30454670673464 13.096419013316108,22.933936046385156 8.05255000000011,28.36161695462181" stroke="#009edd" stroke-width="5.264905837715713px" fill="none" stroke-linejoin="round" vector-effect="non-scaling-stroke"></polygon>
</svg>