<svg width="303.39185607119" height="447.79609308589716" xmlns="http://www.w3.org/2000/svg"><polygon points="5,303.6983661893755 11.91098965331912,311.1130444545415 12.593729137792252,311.3247074004612 11.38437148439698,320.86564300442114 11.686710897833109,321.9270808167639 23.526007751119323,338.08141716982936 24.32991601782851,339.00455066154245 23.361439573345706,345.9290600788663 22.923950364463963,346.6205925826798 40.08302279107738,352.05851742019877 41.74938481778372,354.29799667024054 36.89040014229249,359.31974807562074 36.632916479953565,359.9396422257996 78.43760270217899,385.6632410129532 80.24872647109441,386.63465277443174 113.35576604446396,385.0764953370672 117.54570097778924,384.9315077450592 139.7091023644898,400.73504044872243 141.5301293511875,402.0049457439454 126.55762915557716,420.818883125321 125.83149027556647,426.78587225603405 187.03454122669064,441.8747581568314 188.24885048891883,442.79609308589716 190.63057436444797,427.33988975617103 190.60377742222045,426.79900923679816 225.34776064008474,409.0040162507794 227.06829909340013,407.9860412636772 227.63219996448606,403.28707593958825 225.10163655108772,402.04481421702076 236.95637077337597,396.0028451200342 238.5857413689373,395.2049990950618 238.94458737783134,388.0192695148289 239.73830115562305,386.9164701147238 229.4287601778051,381.0263212742284 228.40960256010294,379.42372014408465 232.28088689781725,370.8260191761656 233.69500814226922,370.10692335577914 247.11852856888436,368.7955982130952 248.35147918225266,368.9324403901119 265.8102695822017,403.4868701067753 267.7309112889925,407.5787593293935 276.7204115911154,384.0733604595298 277.644614826655,381.93069601338357 273.77595192892477,377.8333409562474 272.6898019555956,376.8002679134952 277.9487018666696,358.3989663744578 278.5181368889753,358.255320453085 270.626146133407,336.99785195378354 269.6002892800607,333.8250731206499 276.98605084442534,333.3637224858394 277.23916543996893,333.17927259719 294.0574506666744,314.6791070571635 293.7411302400287,314.07902638352243 255.79112590220757,313.2949305647053 255.04663694219198,313.3352685109712 219.3933053156361,300.38867039012257 211.8656947199488,297.22533018060494 208.57083591108676,290.8790208037244 197.143105137744,268.38691123283934 184.5336874666391,262.0388547931798 183.29869795555715,261.29537253500894 176.8452952177031,249.7556584555423 176.439263288863,249.07696604623925 130.87048049783334,225.56307098921388 130.73067036445718,225.6682639409555 148.0907198577188,212.47884793923004 148.90336625778582,212.08797778224107 162.92923534230795,223.7607269587461 163.66265600000042,223.5965882203891 163.54673009784892,215.74861709284596 165.7070879288949,212.753635587811 176.58955918217544,210.4782383023994 181.18406968889758,209.60761368146632 195.68529322673567,194.92210038914345 196.4918229333125,194.5021758247167 237.76348302222323,199.5734136706451 240.06015573337208,199.8191954245558 251.1316619378049,192.52634278760524 253.35376924450975,191.85291384335142 266.28038115554955,193.8187763412716 266.72282197338063,193.6310338380863 267.2616735289339,178.31723063788377 266.85010744887404,177.71359947440214 245.06128071108833,171.76926241017645 242.0574017422041,171.5792332412675 241.89225102227647,166.1549416789203 242.43255893338937,164.00287551688962 267.7577082311036,142.22204315138515 270.4307032178622,139.33037753240205 283.43158926221076,137.51325788535178 285.6787458844483,136.64823828625958 292.7374099910958,125.25070572487311 294.50251292448957,123.86895362730138 291.56329614226706,119.9332255848567 288.4915510044666,116.31860768480692 298.0015527822543,102.94381807622267 298.39185607119,99.15107503137551 296.51286613335833,96.00023524963763 290.1311160889454,97.28462195454631 280.377320391126,106.00699962559156 277.3801406577695,108.58517426555045 263.94089159113355,101.50566850381438 234.59707477339543,101.57145157805644 230.609573262278,100.02622459665872 210.6845903644571,68.15744179289322 210.6021606400609,68.07395252084825 207.66498275555205,44.07172747323057 207.61342776892707,43.41236063314136 198.16663182224147,33.465344834839925 197.8922544355737,33.468975381110795 191.81138744892087,41.09707322134636 191.24515640886966,42.1934570025187 187.4691177244531,68.1488206195645 187.66339555557352,69.09442517661955 173.46771541330963,100.41321288846666 173.1493560889503,101.4067670168588 173.01041976886336,125.42444478027755 173.03576035564765,125.74651942471974 178.91856298665516,143.1092665020842 178.7001096534077,143.82276200311026 164.35180344886612,156.9791455087252 163.9708208355587,157.29618431132985 147.41380579560064,150.07175776385702 147.1370982399676,149.91255279653706 127.21065898670349,153.7715395555715 127.19871687109116,153.76156106963754 135.81509887997527,181.66823752073105 138.09021752898116,192.562168242177 130.96397852443624,206.62252377381083 130.71756316442043,207.4723013699986 130.40153400890995,225.20532388903666 130.2841517510824,225.4964185321005 125.13564359105658,228.70568850834388 124.34833777777385,228.62996878108243 107.151108835591,219.58013821713394 106.51817671116441,219.24097196641378 89.59328625781927,232.61088641360402 88.33732522674836,233.28826993645635 80.75699456001166,232.12801133084577 79.65395086223725,232.3488191306824 71.7922523021698,244.74226142518455 70.74338503112085,243.94114089559298 70.09006392897572,258.87994436419103 69.42713087995071,261.0383265541168 50.92704625776969,277.6028918159427 50.158090524491854,278.72800351161277 57.43258652440272,289.20051094377413 56.74314780451823,290.6369680601056 21.09564160008449,305.05450201092754 21.69566008890979,307.8256704127416 5,303.6983661893755" stroke="red" stroke-width="3.202387687105589" fill="none" stroke-linejoin="round" vector-effect="non-scaling-stroke"></polygon><polygon points="5,303.6983661893755 11.91098965331912,311.1130444545415 12.593729137792252,311.3247074004612 11.38437148439698,320.86564300442114 11.686710897833109,321.9270808167639 23.526007751119323,338.08141716982936 24.32991601782851,339.00455066154245 23.361439573345706,345.9290600788663 22.923950364463963,346.6205925826798 40.08302279107738,352.05851742019877 41.74938481778372,354.29799667024054 36.89040014229249,359.31974807562074 36.632916479953565,359.9396422257996 78.43760270217899,385.6632410129532 80.24872647109441,386.63465277443174 113.35576604446396,385.0764953370672 117.54570097778924,384.9315077450592 139.7091023644898,400.73504044872243 141.5301293511875,402.0049457439454 126.55762915557716,420.818883125321 125.83149027556647,426.78587225603405 187.03454122669064,441.8747581568314 188.24885048891883,442.79609308589716 190.63057436444797,427.33988975617103 190.60377742222045,426.79900923679816 225.34776064008474,409.0040162507794 227.06829909340013,407.9860412636772 227.63219996448606,403.28707593958825 225.10163655108772,402.04481421702076 236.95637077337597,396.0028451200342 238.5857413689373,395.2049990950618 238.94458737783134,388.0192695148289 239.73830115562305,386.9164701147238 229.4287601778051,381.0263212742284 228.40960256010294,379.42372014408465 232.28088689781725,370.8260191761656 233.69500814226922,370.10692335577914 247.11852856888436,368.7955982130952 248.35147918225266,368.9324403901119 265.8102695822017,403.4868701067753 267.7309112889925,407.5787593293935 276.7204115911154,384.0733604595298 277.644614826655,381.93069601338357 273.77595192892477,377.8333409562474 272.6898019555956,376.8002679134952 277.9487018666696,358.3989663744578 278.5181368889753,358.255320453085 270.626146133407,336.99785195378354 269.6002892800607,333.8250731206499 276.98605084442534,333.3637224858394 277.23916543996893,333.17927259719 294.0574506666744,314.6791070571635 293.7411302400287,314.07902638352243 255.79112590220757,313.2949305647053 255.04663694219198,313.3352685109712 219.3933053156361,300.38867039012257 211.8656947199488,297.22533018060494 208.57083591108676,290.8790208037244 197.143105137744,268.38691123283934 184.5336874666391,262.0388547931798 183.29869795555715,261.29537253500894 176.8452952177031,249.7556584555423 176.439263288863,249.07696604623925 130.87048049783334,225.56307098921388 130.73067036445718,225.6682639409555 148.0907198577188,212.47884793923004 148.90336625778582,212.08797778224107 162.92923534230795,223.7607269587461 163.66265600000042,223.5965882203891 163.54673009784892,215.74861709284596 165.7070879288949,212.753635587811 176.58955918217544,210.4782383023994 181.18406968889758,209.60761368146632 195.68529322673567,194.92210038914345 196.4918229333125,194.5021758247167 237.76348302222323,199.5734136706451 240.06015573337208,199.8191954245558 251.1316619378049,192.52634278760524 253.35376924450975,191.85291384335142 266.28038115554955,193.8187763412716 266.72282197338063,193.6310338380863 267.2616735289339,178.31723063788377 266.85010744887404,177.71359947440214 245.06128071108833,171.76926241017645 242.0574017422041,171.5792332412675 241.89225102227647,166.1549416789203 242.43255893338937,164.00287551688962 267.7577082311036,142.22204315138515 270.4307032178622,139.33037753240205 283.43158926221076,137.51325788535178 285.6787458844483,136.64823828625958 292.7374099910958,125.25070572487311 294.50251292448957,123.86895362730138 291.56329614226706,119.9332255848567 288.4915510044666,116.31860768480692 298.0015527822543,102.94381807622267 298.39185607119,99.15107503137551 296.51286613335833,96.00023524963763 290.1311160889454,97.28462195454631 280.377320391126,106.00699962559156 277.3801406577695,108.58517426555045 263.94089159113355,101.50566850381438 234.59707477339543,101.57145157805644 230.609573262278,100.02622459665872 210.6845903644571,68.15744179289322 210.6021606400609,68.07395252084825 207.66498275555205,44.07172747323057 207.61342776892707,43.41236063314136 197.65428593778051,32.0339972373331 197.2366031644633,30.958438155357726 203.33523768896703,27.172155599168036 204.45721400890034,26.64843351620948 196.2314265599707,5.140248150913976 195.52014250669163,5 187.45251527114306,10.926653739996254 186.78230044443626,11.078698560944758 191.83294151118025,18.253731720964424 191.4694351644721,20.226154943928123 178.23203697777353,42.075015146518126 177.59502705780324,42.32596658868715 177.43395413341932,54.63629978749668 177.57958968891762,55.47351147746667 181.00027761782985,54.73023101547733 183.01587370666675,54.93488297110889 183.46588757331483,60.79120527917985 183.65579633787274,62.84673432470299 167.38189681782387,79.68908979080152 166.99304988444783,80.40279319614638 164.7493885156,90.38123786670621 164.63521024002694,91.73598074412439 168.9474790400127,95.79925140942214 169.0773859556066,97.42435696377652 150.71186858671717,102.09091032808647 150.11476280889474,103.58304302196484 143.82651079108473,98.441062560305 143.55970645335037,98.44650675426237 139.79327971558087,101.977945168328 138.38935296004638,102.98374133574544 142.47210012446158,112.78241173608694 142.57841407996602,113.62665822124109 133.3462849422358,112.20854000991676 132.22955150227062,112.21579847589601 129.58684871112928,122.46133569267113 128.1421440000413,124.05584903981071 104.90773873776197,136.58836265455466 100.06885176897049,138.78379171475535 79.34928128006868,135.45752660895232 76.72988017776515,135.3636302110972 73.11316679115407,133.53286916244542 71.08184206229635,131.51974000839982 77.53174954664428,128.05001968081342 77.8154476089403,127.15003350994084 75.32100181339774,109.89942820777651 75.41683000896592,109.24389003962278 68.56992000003811,100.95172886247747 68.57953194668517,100.34289267554414 47.53228145779576,91.97689361462835 47.235476195579395,91.93696833623108 34.73499391996302,97.86034776322776 34.20488049776759,98.16204744100105 39.11920668440871,121.77226642431924 39.41805084445514,122.64188146032393 36.4700959288748,136.92811128566973 36.933508266694844,139.11537215457065 48.869798400090076,158.48632299283054 50.388485973351635,160.1789937830763 81.5888648533728,166.5585934476112 83.212992568966,166.59487671602983 111.53473905788269,151.35582548030652 111.84494279115461,151.06780671142042 126.93540778674651,153.79966074076947 127.19871687109116,153.76156106963754 135.81509887997527,181.66823752073105 138.09021752898116,192.562168242177 130.96397852443624,206.62252377381083 130.71756316442043,207.4723013699986 129.76365027553402,226.02737053169403 129.23936227557715,226.43771256512264 107.151108835591,219.58013821713394 106.51817671116441,219.24097196641378 74.26077496889047,239.26493203663267 72.18342940451112,241.18321446492337 70.09006392897572,258.87994436419103 69.42713087995071,261.0383265541168 50.92704625776969,277.6028918159427 50.158090524491854,278.72800351161277 56.74314780451823,290.6369680601056 56.255851235589944,291.08571731566917 21.09564160008449,305.05450201092754 21.69566008890979,307.8256704127416 5,303.6983661893755" stroke="red" stroke-width="3.9691441468143878" fill="none" stroke-linejoin="round" vector-effect="non-scaling-stroke"></polygon></svg>