<svg viewBox="0 0 46117.627704942206 36224.341261460984" width="1000" xmlns="http://www.w3.org/2000/svg"><polygon points="8.052550000000338,27756.452719485416 20.774398320099863,27806.130427336466 53.27967177771643,27866.430286531715 63.57494047118962,27886.39666506296 98.13251017776929,27969.990499858948 136.6545709777638,28070.14682018271 625.895083262214,29172.5937633563 638.9186884533628,29196.17925960364 708.4975314755939,29237.04730205462 720.6347986756373,29246.219160049368 724.1169448088403,29256.20839032621 726.6862472800785,29266.80961133857 721.0020915466375,29282.607565710467 715.5460010933239,29297.539981729788 723.3948837244898,29306.561236581212 731.8854366133237,29310.53942507223 747.3356214310988,29362.128316024347 751.3813771644855,29374.636370768567 818.5339318311089,29411.321756319696 830.6711990311524,29419.659890937764 834.7169547644226,29436.332857113244 838.7627104978092,29448.839568979194 875.9784203645322,29449.673941998655 888.1156875644592,29458.842974903266 893.7809106756249,29473.01797064641 891.3517096088981,29491.358297685714 875.9784203645322,29518.035088499397 869.5063762755381,29532.205871846323 867.0800879200469,29568.04867816143 870.3161099644858,29584.72107381819 946.3699097865974,29633.89870758963 956.0779759200304,29643.89944414547 1009.47962143107,29750.577021126373 1017.5711328978432,29763.075073539367 1037.7969988534242,29784.74363331587 1047.5050649867408,29794.742203120404 1147.8333992089392,29861.40167318491 1159.9677536978634,29869.734409392375 1187.4783101422727,29924.72257836259 1195.569821608813,29937.220513527194 1225.5037536977106,29968.876751797303 1236.0244662310943,29978.875686826155 1303.1312913333313,29981.392192953936 1312.0782660533223,29991.369656409457 1316.124021786709,30008.031934591156 1315.3142880977612,30024.693816733692 1263.5321099645007,30117.985250133876 1257.060065875623,30132.97741412031 1254.6308648088961,30151.30040284319 1254.6308648088961,30172.120447613444 1261.9126425867216,30201.268674842577 1270.0041540533784,30213.76168774962 1299.9409988533953,30245.408463204658 1310.4587986755432,30255.40046653131 1336.3498877422899,30271.223097276903 1336.3498877422899,30272.886881136306 1749.7917536977693,30262.061723421357 1766.7845103200307,30260.397914026777 1791.0561320088818,30272.886881136306 1801.5739318311462,30283.71187273934 1804.809953875585,30300.36722645632 1806.4294212533641,30318.68586311376 1798.3379097867073,30331.176796481916 1781.3480658755652,30335.340391854494 1769.2107986755218,30342.834202191647 1770.0205323644695,30381.965589067695 1771.6370870311293,30392.788909400784 1925.3641540533645,30443.576275754458 1941.547176986678,30450.235759401956 2041.8725984977573,30427.75750327829 2092.845042942303,30441.909896515863 2143.8174873866155,30456.89518045014 2304.826332186676,30572.60387679751 2350.9432872088873,30609.229597430705 2400.2991769866567,30614.221552330273 2414.8627325423076,30620.879435251787 2473.9266884533936,30725.74336470259 2480.3987325422713,30739.89282142496 2483.63475458671,30756.534476292873 2473.116954764446,30787.32425952333 2468.261465342228,30803.967804438696 2469.0711990311756,30844.739256962348 2470.6877536978354,30863.87656495135 2477.1627104978324,30878.020291165012 2493.342820720027,30883.010365904804 2505.480087919954,30891.331073442445 2512.7618656977793,30924.609941859293 2520.853377164436,30937.090242156148 2614.7067545866375,30968.70483267287 2631.6965984977796,30972.861706240597 2638.978376275605,30985.341166864353 2668.105487386674,30998.652951302793 2681.859309253261,31005.30725359547 2765.197799564434,31066.86111951337 2777.332154053358,31076.0121466548 2863.903753697734,31094.31085734404 2880.086776631164,31099.302422885754 2914.069377164451,31126.7479291129 2926.2037316532587,31135.06581291146 2944.8130429422963,31137.559961651656 2961.8057995644413,31138.39234070186 3004.6867325422136,31157.52182300182 3020.866842764408,31162.51295045673 3122.8117316533826,31142.551227375894 3140.611309253356,31145.045350200468 3228.645672417806,31199.16898330112 3244.981612684416,31211.979532893543 3257.874437146682,31238.664828073262 3256.6545937333503,31260.57007337993 3250.1630344800433,31262.14503644887 3249.682728417778,31263.324535149528 3255.749031848951,31268.629261849885 3255.397467617855,31269.051063785882 3236.1630885244595,31271.480985403672 3235.4287940533613,31271.63725210508 3215.2530267288457,31289.152679176914 3214.522518782156,31289.66846629858 3200.0145960089067,31289.35594065764 3198.0030777156135,31289.840295472735 3180.5148689333364,31303.85591048069 3178.185865128973,31305.458917912358 3133.409048488924,31307.465141815977 3132.2687220889857,31307.308882857644 3131.4091810399914,31288.371364263905 3130.2842920088224,31286.62133553697 3120.088929306694,31292.284216797474 3117.0075722222464,31290.22197162817 3091.3326063200147,31250.971735347965 3091.251341680043,31213.47795924169 3071.8139466222856,31197.790583472553 3069.8574785688907,31188.546793715243 3052.901422106639,31184.084283742093 3044.276301964397,31183.32171721573 3040.763863635577,31191.478173197975 3034.6326067467235,31197.62801355371 3026.151374533285,31194.671809413034 3022.276303671162,31197.35945874572 3027.707636079962,31229.852966791514 3030.2076160267243,31245.27799436971 3028.9574804177755,31284.30941117424 3017.832671600023,31286.01573959415 3016.094948151127,31291.084409320407 3022.5824296088904,31299.665623292414 3022.457474302246,31318.328050152428 2992.9575361688403,31351.94069745342 2968.457557928843,31361.190479548328 2963.957419262246,31353.965650142432 2958.888719386632,31353.29066654187 2955.7668756177663,31357.465676967666 2939.7044389244184,31359.403211269557 2920.1825752444347,31350.64699965951 2917.7137613066952,31349.456268828275 2909.160585128913,31353.906083987473 2906.84818377786,31354.75617337317 2905.770189395618,31348.621738360758 2905.145121591144,31347.373532817553 2874.060668613274,31342.00921778512 2870.5919209511267,31341.07350427864 2873.645024737787,31327.67973740489 2865.091848560005,31320.81408232401 2858.051243262227,31333.66707667467 2853.591882551067,31335.22960782083 2824.842841342186,31313.855864813988 2822.905305911183,31313.367335262854 2806.7668474578313,31319.206319447403 2806.1787710843855,31319.691851640324 2805.638754444408,31328.76094642104 2802.360789359991,31329.69847186838 2795.210083582184,31321.222982161882 2794.5515196000706,31321.16401199458 2764.1632045777296,31328.457417807163 2762.9416135378196,31329.826887615753 2571.016087920034,31239.8545438516 2556.4525323644993,31233.202408828976 2521.6601981422646,31226.550212520204 2503.0537995644627,31227.379495062254 2478.7792651644922,31210.748755198118 2462.5991549421815,31205.75796156461 2408.270102213348,31200.057876146486 2405.061459653407,31200.07524083249 2405.271757395567,31808.939172043203 2405.341953733332,32011.893752442294 2393.063128773334,32089.06755227878 2364.8130349778585,32133.567627855256 2370.225143493364,32156.90755838799 2353.2233574666097,32201.04417170849 2353.055294035563,32201.33328640819 2348.8207946222756,32241.161269551347 2348.565058586748,32242.073410978104 2359.7955988177346,32257.61043603139 2360.217359386712,32258.360521988914 2353.43423775104,32298.551940989593 2353.3273412533817,32298.80125838323 2893.405439457718,32299.209313648782 3389.4940268355203,32824.6216952166 4091.3423525244943,33403.32654241184 4117.275967173373,33405.622623198986 4156.064832311102,33423.00956917906 4517.367713022257,33491.29296254963 4958.488781395579,33499.67958319074 5131.775577342232,33215.55970412548 5155.5642715289505,33202.00510300524 5243.428532364407,33189.848841035826 5317.348771297817,33120.20358422064 5326.112827760029,33118.95746648763 5420.017468897837,33143.57425744398 5429.585142355507,33151.18267216472 5474.703328737734,33144.86034766832 5498.64202754663,33141.35143928768 5585.075855955576,33157.28816070969 5595.114806071135,33161.06304617351 5621.271243120056,33140.91189145387 5650.593214604516,33135.69761637537 5662.018323937758,33149.65114144943 5670.2688694310855,33170.69784698883 5667.932583848924,33182.01299040808 5671.5192963111695,33193.72359044207 5718.3606425866965,33209.75535360983 5732.924198142231,33216.38974650795 5756.38899885337,33233.808484134934 5766.906798675518,33244.58974805291 5786.325843653387,33286.05632973174 5791.988154053317,33300.983626092406 5783.89664258666,33351.56707068122 5791.740864880012,33362.0173993083 5893.933042942175,33408.782857254875 5926.2961760978,33423.7077491119 5980.504642586668,33528.173826934624 5984.550398320054,33534.805448714906 5992.641909786711,33688.99089216502 5995.068198142202,33740.37816577885 6036.314517644445,33772.933697876084 6044.334085146758,33816.85745231397 6087.30502089786,33870.49001746849 6109.960087920052,33893.693095365685 6097.822820720008,33936.780120739975 6095.396532364517,33955.008753709524 6109.960087920052,34021.29161656965 6113.196109964374,34037.862937778904 6104.503123653332,34071.725373659545 6102.379174711161,34072.80143625286 6097.910202053354,34071.957705482055 6092.718003226655,34071.4748488949 6073.21798487995,34050.412584875914 6069.983419191187,34048.91237632101 6060.780417164417,34063.334241266275 6058.827444364411,34063.31873242502 6049.1202520445,34059.381266213575 6048.928886924499,34059.068701762095 6050.5771901422195,34047.74829599427 6048.413337057784,34046.38110334179 6017.687438817789,34044.70730312288 6015.516595226691,34043.72157268706 6001.064013964475,34047.61706469234 5997.66808407996,34050.19575570748 5978.59652553776,34074.6553144287 5974.344549857757,34075.309658403596 5968.81156383115,34074.25596749308 5967.103550035601,34072.120546486956 5960.656846533391,34049.66277921325 5957.673647813361,34047.745015212015 5937.238066657774,34042.24043951693 5934.895373111103,34041.17715953072 5918.7516717777835,34048.504068559996 5915.351372826706,34049.3707902568 5899.384181786656,34044.49584093524 5896.40768230227,34044.933379699854 5872.0023671733,34062.989467723266 5867.324261857757,34063.43206625749 5860.657357395605,34039.47769805798 5857.0409352800125,34039.274883874314 5832.666786160065,34067.17923133532 5830.123989360036,34070.183750344004 5820.557480986674,34071.71254917947 5816.939893786657,34071.08176344659 5815.852870000039,34063.59311956985 5814.353406319955,34060.17311547711 5803.925026728983,34058.065392882185 5799.461005680008,34058.93568288293 5793.094984275616,34063.665295302664 5792.040582853348,34066.45151205748 5794.42929723554,34082.07018638801 5793.800734177792,34085.068981240416 5776.81292916448,34093.68534466377 5774.906268471132,34096.04617159584 5767.656821786637,34090.2899285178 5765.9540508711725,34089.86732715604 5751.936046106719,34095.906001425086 5749.386550071162,34096.7705825649 5744.947869608972,34105.34685326947 5742.401286284417,34107.06764313145 5720.931110142243,34110.348167839955 5718.385109359959,34112.283372694306 5716.077659617855,34122.13706643207 5715.660559386692,34124.70686154769 5705.005570871152,34118.10655367465 5702.662586053346,34117.043974022294 5689.916270959984,34121.367050737346 5687.3682312799865,34122.659853570134 5684.8662124355105,34137.86496219455 5683.811228471088,34140.436792852386 5665.808634906636,34162.97036570273 5665.39211721786,34165.5403241232 5646.402405857785,34146.76941244883 5645.331984524477,34144.632699614944 5653.791662675656,34130.47746254117 5652.509487244512,34128.55542474505 5617.866283831165,34135.30803399757 5613.613725608891,34135.53646995875 5600.406910888945,34129.1608149746 5597.004864311057,34129.38656874749 5570.908720382235,34147.669722770195 5569.424694071153,34148.95920152162 5560.5633530578125,34169.53689379737 5558.659022533313,34172.32571312858 5549.518643795607,34173.42787849283 5546.342041057862,34177.29140904333 5545.093653075492,34185.21462837528 5545.95377666664,34187.993849176186 5560.814137484391,34200.70179939389 5561.2790061777705,34201.238847069704 5559.173407315604,34216.428107715474 5559.173407315604,34216.87360081982 5532.889684791073,34238.61508437796 5532.440544737714,34239.26988684313 5530.697287137831,34255.87950105491 5530.71621975999,34256.52564201222 5541.337420826756,34264.0374759 5541.665683368898,34264.64693521653 5532.866383102235,34269.71461274367 5532.367726959965,34269.424793522776 5758.723828079972,34565.039768293005 5940.519235724445,34806.0687211754 6511.598483368849,35583.646466131584 6522.0565726132845,35593.18600426553 6532.544080240048,35594.580594528496 6538.411445502286,35582.48821143361 6538.00191831994,35581.2882804407 6531.790853146675,35583.260083741305 6530.117500613305,35583.10707864506 6506.350651759982,35563.32452612938 6505.16809104893,35562.19035464819 6510.033774960066,35547.490336152754 6511.9765532711535,35543.34947953248 6488.553113057722,35524.71417130329 6485.808174106736,35523.904137851234 6485.849534604444,35515.94576157702 6482.058641093412,35512.09053669716 6494.10299280889,35505.61639678691 6499.462381253346,35502.24310728474 6495.708187902324,35497.2100890757 6495.300117075538,35495.82277343914 6509.473660613272,35496.66617827237 6511.024388008846,35495.169900684414 6505.692087777752,35488.28716666761 6505.120905128868,35485.02246941088 6518.532774711122,35477.840446193964 6519.7298989778865,35475.03835612201 6510.643405395538,35463.88438109393 6511.65003835559,35458.90590421102 6518.804821928941,35457.95379156692 6521.253246888846,35457.436946958915 6524.653837111175,35445.65720631837 6526.558167635558,35442.28396373047 6538.800292435546,35437.16929121068 6539.507498693398,35435.04737289398 6548.457968666662,35434.99288831753 6550.253363795557,35435.80926338871 6540.840646568897,35446.799877878366 6539.425942782174,35449.54758250885 6549.355666231109,35460.40224907725 6554.823990071171,35462.116224453755 6573.785448133342,35440.461275495036 6577.349441448903,35438.42094350836 6613.177827013285,35443.480826353276 6614.211839457836,35443.42634234714 6619.1628658044865,35428.871835304744 6619.78880742225,35427.511793473415 6608.253888879997,35413.1475511913 6606.458493751103,35409.88314500524 6607.0025881867405,35393.47873779168 6606.703161484424,35389.09859493261 6632.302979440057,35371.33392493354 6637.879947404472,35369.94669024946 6640.137881057781,35351.82815526464 6641.253158142186,35350.495079462446 6674.742345413404,35359.690488347114 6677.380970408885,35360.071320479416 6677.89797663116,35374.62588072804 6679.884445608921,35375.71356902158 6695.608134000075,35363.607780381775 6695.526578088851,35361.89389302596 6683.2573650755,35311.945989256405 6683.338920986724,35308.84465150247 6666.526461182257,35288.8492963663 6663.83307721778,35286.48250514406 6670.770281271056,35268.69055094334 6668.83886253331,35265.10155918871 6656.895873164387,35248.31420320817 6652.940994017736,35244.93358051186 6629.636683688943,35251.95985169601 6627.351661822271,35253.12960044973 6616.496861324391,35240.560965714714 6614.674086711115,35239.17350500761 6619.298889413338,35231.6649750614 6619.054221680017,35227.47543908699 6611.3553436711445,35205.27660793791 6611.6000114044655,35202.69216417198 6609.50518957337,35197.2510459045 6606.252273804486,35193.65428857799 6598.405721342169,35195.04748671813 6597.208888346657,35194.69397557704 6612.3616853600615,35171.76038832913 6611.3553436711445,35160.30704837685 6593.291291902286,35148.881243105425 6589.551370835608,35146.05239066566 6568.915977697798,35146.56884015261 6567.147670782266,35145.45343989119 6570.6027287022225,35139.30515891939 6570.412237395511,35136.992728256126 6557.760002871139,35112.44820519406 6557.109011937842,35109.51586951231 6567.909344737745,35081.304730867996 6567.990900648969,35078.96502674624 6546.01391277332,35066.32901656054 6543.697142355588,35064.92725362434 6524.381789893356,35063.431064074306 6519.481153448905,35059.90102261628 6531.427929342237,35046.836367334094 6532.298247422303,35044.27911323719 6518.723266017834,35006.301211004466 6518.641710106611,35000.28888741377 6509.745707831091,34988.10145269628 6506.073070391176,34984.31994975018 6482.854685040053,34972.175168345886 6480.369851191157,34969.43654933249 6480.539953520034,34955.94499668441 6480.51927327118,34953.594497416605 6498.786049733382,34913.82383001878 6498.889159706749,34911.060877992684 6477.735886533374,34887.701721483114 6477.405876364421,34884.93897646971 6496.518212862175,34864.981261880166 6497.177941928945,34862.65164729304 6482.271560275556,34852.83763495719 6478.7256257689805,34849.14725601408 6480.148193875539,34838.034600706334 6480.766562444485,34833.70474360694 6454.314485217772,34804.51066331353 6453.015707333318,34802.69635187261 6453.139497555654,34785.85216818671 6452.5001574667185,34784.24401111851 6475.612228862221,34763.48219234517 6483.8799593511285,34758.7198532153 6482.3542812710875,34731.42241337479 6482.6429309422165,34728.98959794457 6450.974479386678,34700.47587045442 6447.531654853352,34696.228701925575 6439.346354088957,34668.91062517531 6438.707305271157,34666.33367482587 6466.231551457873,34662.478217140975 6469.653987013364,34659.28255682162 6479.5947787645055,34626.113442492 6479.516718106672,34624.61910669922 6451.915576346662,34617.28626988063 6450.452230284551,34616.58320329475 6429.119242835652,34583.70408067471 6429.155942995545,34582.95925728345 6454.827704915522,34582.42545185037 6460.296028755583,34581.11969845262 6462.9349450222,34577.74606990893 6463.479039457838,34573.91044621423 6458.636365964521,34571.81573295678 6454.520122622234,34570.894450787135 6451.617606000022,34559.08370259256 6452.24325634665,34557.505783219676 6501.755849982241,34537.51058200913 6506.21754086225,34535.63336048162 6532.796612293321,34549.15414363801 6537.911041733321,34550.26948907363 6555.866158106692,34545.916592688096 6559.674819155574,34545.80779977594 6591.885034977786,34551.76575438326 6599.284777555593,34550.786326854985 6608.643318355527,34545.45429722333 6611.06436383105,34543.359508177935 6625.782293075557,34515.77382278911 6627.523220506708,34514.76722562438 6686.339887244489,34551.16724860101 6691.943943422266,34549.77977453012 6713.7351003289,34491.34417696411 6717.620948222211,34490.39299207865 6804.136332542264,34511.09464031123 6809.84932411553,34511.012967494054 6818.09229656004,34492.35050606777 6819.071550035595,34488.433088532096 6832.21137240003,34485.984618124 6834.632709146688,34484.270922763244 6835.149715368963,34458.01833519686 6836.183436542262,34454.45458804109 6853.784949786706,34428.25645045817 6857.919834480017,34426.760247835104 6872.096873271141,34450.58527333781 6873.807508506674,34452.441235145525 6916.92699252451,34464.1665434833 6918.640831742297,34464.792242076044 6919.783197039949,34487.94631629196 6922.69445179552,34490.201622244465 6931.3454950667,34487.236278104625 6935.915830071179,34488.21548677192 6953.000337093348,34472.32801061144 6954.659999884527,34470.55973471518 7014.591943706713,34466.723885846004 7017.467954657834,34464.3206579519 7023.6845539822025,34474.295704712014 7027.158544524435,34475.28893973309 7079.138204471186,34403.81245230758 7083.104734462198,34402.058927731036 7095.523078284437,34412.775280557136 7100.984702888971,34415.762668444804 7128.983429715598,34406.990668332175 7130.172107120023,34406.95429823766 7170.983558853368,34424.201582695736 7171.561732008915,34424.412345711404 7178.614279422189,34417.96243515992 7179.186627155614,34417.7719419862 7213.170975315596,34418.006257526664 7213.82720912886,34417.89685066088 7269.628054782261,34391.31529922053 7273.596623671103,34390.81087749908 7303.372395546736,34398.01376230063 7307.343294604427,34400.00638675105 7316.784556400009,34412.47716718007 7317.780412328873,34415.7215289624 7333.664882373392,34423.44140444553 7336.148551137747,34426.434415723576 7335.455908435608,34470.62084343951 7337.442668684504,34472.615668063256 7356.780157751149,34464.60503930974 7360.747852826702,34463.85145829551 7397.386554622186,34398.653525281494 7400.111395866588,34395.15539270095 7397.619862782281,34385.17188559912 7396.621676684452,34379.6807235507 7422.894622177795,34344.53059006229 7423.695617733385,34343.228912735096 7444.516259297823,34259.628423114045 7446.24815732448,34254.39161559715 7467.854939617777,34249.484853383474 7470.246566711088,34247.340669708705 7477.586307440048,34223.87800711571 7479.81307508445,34221.36280928858 7485.467521164428,34217.795597787626 7488.2479951911155,34218.28850192882 7487.977695599991,34225.32122306983 7488.6374246666455,34225.65101543136 7501.090138480045,34219.094800589926 7502.61581655997,34219.17739844558 7500.422836364458,34236.25558441374 7501.419274835593,34240.24970407694 7515.480970266719,34258.72138421054 7517.625308186725,34260.08194217036 7558.571327173362,34258.43275359532 7561.540253608931,34257.113042418176 7588.672448880017,34217.445525328716 7590.074336737722,34215.548750097485 7601.743822533383,34184.87020708088 7602.815991493386,34183.30316281828 7648.9163440621705,34145.36720463287 7652.874718462212,34142.48077186689 7667.306910746709,34142.150944277324 7670.688277075627,34140.87278649231 7687.995315226704,34125.26632840783 7688.593003546681,34124.83450114392 7706.083833768942,34121.6360493355 7706.475884684456,34121.57640442156 7738.335118817726,34130.287495634664 7739.156212080015,34130.37785666497 7784.202454497783,34127.850129622006 7784.480035866705,34127.605289178115 7766.17102509339,34116.19373031848 7765.721011226626,34115.50601936775 7777.272532222189,34106.54544196607 7777.430983706705,34106.23051065378 7771.577308186657,34096.131168389256 7770.918161662274,34095.630730994715 7760.96804923562,34098.36553689957 7760.455994622178,34099.34940855569 7762.435181822257,34112.379700379766 7761.115723688832,34113.03938067882 7746.765961128964,34102.978002343414 7745.240283048923,34101.36993525518 7751.275711742208,34085.400026009156 7767.34280877337,34088.084167572466 7787.342939617789,34093.2716922127 7792.517662177772,34095.762252415094 7826.121610266717,34123.06991168964 7833.805050906703,34128.391402680514 7874.222704097723,34144.119171943195 7881.246415671056,34147.788710376335 7915.857870533342,34181.75549850051 7921.779412222189,34188.619768887205 7927.945621644474,34208.33702598754 7934.945740257717,34219.71204789184 8025.851745306725,34293.89923015391 8030.7663627645015,34298.405288540205 8062.101891440085,34340.36825602534 8068.35315202675,34346.8921480008 8098.746418657807,34366.66354328234 8103.570742071119,34371.99321084106 8119.023839600013,34407.82121773533 8122.242385377736,34414.289992873586 8150.461313164422,34445.93074266691 8155.765942639999,34450.73402469503 8280.755910568849,34498.321981586894 8289.697059866718,34505.22639697362 8304.485476720009,34525.440905255935 8311.74453535115,34541.03192512956 8335.851880133363,34604.83692128598 8340.101816915652,34610.7744604389 8419.351734640055,34671.46193779635 8422.945728880099,34675.61804742846 8423.975372257853,34717.66665666402 8425.811545342302,34719.69363510262 8470.357966533375,34764.03673391251 8475.34598431117,34767.86368588582 8530.733516257817,34782.490737765416 8532.295311955597,34783.13048632725 8613.945594906669,34831.3056135909 8615.717979617744,34832.521864961396 8621.10183483558,34839.305664917134 8622.883248951148,34844.74327009081 8620.445601022198,34869.96194835802 8620.070735102148,34873.9617890848 8626.633073235607,34889.274512498436 8629.624427546725,34892.47460673898 8734.851941857814,34956.83693337106 8740.607750284464,34961.75537722165 8771.98289183106,34998.380591494584 8776.599538942195,35005.14450579192 8802.536940115599,35054.08182640796 8808.261291262206,35060.869693045825 8842.336224737788,35088.922795689636 8853.680069431175,35097.5478370488 8886.305055315584,35113.954131857405 8891.773670426664,35117.36032733813 8913.930081306702,35147.86026024635 8926.233081768944,35155.88036119644 8941.492484008872,35200.42280242886 8946.054954693398,35204.61039524173 8999.749036399975,35216.24059642854 9002.576696346725,35218.81784901736 9040.930111173402,35266.28230708747 9040.952247777816,35268.412413590326 9035.233430782311,35280.959468826506 9033.351819404379,35283.09459871365 9006.327394444474,35298.44384150769 9004.914438284446,35300.360354532284 9001.662105057716,35322.81621005977 9002.389700293403,35324.83420472403 9045.023635368889,35370.71965925893 9057.857914337867,35399.19304507648 9066.937417413319,35425.9951416649 9069.148747688952,35432.78224050862 9063.57673133337,35447.81780097014 9063.429930693332,35451.9073439012 9071.336193733361,35483.62590374643 9075.112523688913,35489.51492282303 9091.954401875591,35500.05646032191 9095.092848097767,35500.89688367446 9121.811729662215,35501.58428561714 9123.374107902266,35503.928116423456 9141.832540755604,35579.358742424665 9139.989377164493,35594.71246281106 9156.169487386687,35619.51701067251 9163.451265164396,35631.920487917756 9194.530475262298,35648.334339196415 9203.04549492451,35648.79748453587 9228.93658399114,35639.834265540034 9231.717931831117,35639.27169842666 9268.311777875504,35649.24068699402 9271.999270142267,35648.928153385204 9341.749089306664,35635.30305911493 9347.581793306606,35636.053747498925 9414.571818693403,35660.33257555592 9429.030516648876,35667.021864956216 9475.467869893393,35667.084370292345 9480.030340577803,35668.33417835951 9507.952171831137,35686.06076758445 9512.905237075618,35690.209228201624 9540.28035245333,35719.959182915365 9545.722170622183,35722.06993703192 9558.257605431114,35724.944982459216 9564.592752097735,35725.39677438661 9624.15536415109,35714.084340784844 9631.03023618667,35713.834333894745 9658.175538657793,35721.16486110087 9665.405470177859,35725.89678096984 9701.598235902238,35778.33653682904 9713.358015742248,35793.394845613424 9768.03047711109,35845.70943356832 9772.155458586734,35850.959306130215 9765.28029528002,35900.89687249754 9765.03038466673,35908.70924415407 9770.71774438231,35931.39668559513 9774.90534914667,35937.14677638668 9805.467844293315,35958.396916047524 9812.716708435539,35962.49192070155 9893.905326675602,35965.64669377616 9898.03030815113,35968.89666560691 9903.030268044538,36001.271904371184 9901.342934497843,36007.27171831802 9862.342897804432,36054.334190742375 9859.530383955549,36059.20935932131 9856.255331582252,36099.22231027603 9857.34293791114,36104.27183575768 9877.405400773372,36129.20932490294 9883.405294391188,36133.334413392906 9926.957024737821,36150.981002925575 9946.092954195548,36159.3969260997 9977.393821608952,36184.8782765184 10029.138134497778,36216.28871146098 10100.08303903111,36156.55404807345 10237.461058586698,36034.41135688548 10216.5483753511,35932.38156818427 10203.350298764395,35867.9790521425 10185.135077288935,35858.50761254682 10087.127300008993,35807.56099003987 10069.831621431142,35693.00342978272 10059.296345342278,35541.76993510398 10217.783656133317,35387.80339483489 10230.199669786707,35374.501122518705 10210.451488453407,35208.600217754865 10093.876051653271,34949.043029266555 10138.449269786688,34671.794522737415 10195.899583742234,34533.17847970888 10148.061216453301,34106.91226520858 10152.277657057835,33955.44007895034 10157.3615030312,33746.41718329486 10281.877864133428,33637.39248783453 10508.101436897858,33438.79353319263 10992.196936275555,33081.364537226415 10997.31748240893,33077.745139738574 11071.801330942173,32964.70788728984 11089.461098408887,32940.10259250118 11115.69734374222,32869.91036357 11118.037707120042,32865.830826887366 11183.209618231143,32798.98146159874 11191.009858586687,32789.41570267329 11225.764327564488,32718.49921403572 11228.84597592007,32713.297551078635 11276.535212399998,32658.99941469115 11280.467954942236,32653.73727974351 11314.165109786649,32628.08492495751 11323.541126853415,32620.303885337926 11365.577373608925,32511.838988128264 11367.071594408924,32507.906032530213 11437.99610996442,32384.91597487344 11468.096066586651,32357.777713679563 11580.183015564435,31838.506515737186 11580.602445964447,31836.75362129233 11591.915415920063,31587.87774762881 11596.34564952003,31446.32471720138 11578.980065875548,31313.936987029767 11576.73436560887,31292.129451324086 11579.2596861423,30894.700662918127 11579.201431920032,30890.477441591298 11829.723714586675,30890.9926160232 11850.278716897803,30890.833870452858 12477.079875724485,30323.141197856487 12523.301397075506,30281.1188062446 12743.773239208946,30220.70215473781 12743.793628186664,30220.696158683597 13612.588360275586,30021.458035828517 13711.929285431142,29982.53153055781 13815.749960275578,30089.42129414811 13932.535112275604,30122.033165921428 14092.306054853347,30118.426024317305 14303.069830853354,30071.816371099703 14540.892401804544,30095.753381092713 14600.617834408862,30099.403518266656 14664.779034764484,30114.327113590232 14678.637714231132,30117.184659583465 14798.696753520031,30096.656846533093 14803.584282764445,30095.691310905357 14891.947199742172,30061.56687005845 14898.133798142291,30058.523177236522 15049.746236897867,29899.4410952483 15051.689015208955,29897.617457851273 15074.291653431115,29862.04957848371 15100.893444008987,29821.89931136681 15395.222901786656,29712.27446390639 15622.702726853408,29668.635121335596 15700.571145697824,29699.313459850528 15855.4641709778,29782.47571094756 15917.85939458674,29815.980813730945 15994.074849875622,29843.09780021882 16129.226101786691,29891.17170136611 16352.319383920032,29984.648852165643 16502.19002143105,30041.760139816994 17213.314166924545,30279.035652628198 17257.301638853365,30293.814249017014 17433.703579333356,30385.103799520963 17445.203545342294,30391.041483403562 17652.182835795546,30311.94540350596 17669.40657040882,30305.205479086464 17799.965933253385,30295.82871150403 17845.844045964397,30319.699054806464 18238.614401164443,30524.03135756674 18912.5787608444,31197.280419184506 19021.44920294229,31306.016302670614 19317.212297128957,31788.182717991556 19380.95348454218,31892.09639925862 19506.946298906674,32040.447535205196 19736.211033342268,32310.397712921404 20034.12021307552,32321.47623518677 20042.814655742237,32321.482213837357 20100.085546693394,32308.023551514867 20258.99316169785,32259.762035684398 20513.810236897763,31976.300828414765 20550.45068632006,31935.02590459367 20671.534999920033,31948.652275162895 20809.594593875554,32000.039006355946 21029.74807668452,32026.15358673231 21037.53462729787,32026.97508210028 21162.722950853386,31984.98404093468 21184.649840097736,31977.55513637155 21623.569190142305,31705.37330561664 21682.26031903117,31669.745746761997 21819.565520808894,31596.079623475875 21830.01050285341,31590.567829453765 21936.40892703119,31504.938155396347 21950.541401342234,31493.173948282754 22151.30875280893,31369.493092551158 22160.373109786633,31362.494934168208 22279.648629786658,31297.622557618568 22281.148676008896,31297.080732640025 22359.08117449782,31299.762911990023 22366.753255564465,31299.77189248454 22506.362411831135,31332.8642576361 22508.782874764504,31333.223460895388 22599.076919208957,31334.929673942883 22600.201225697856,31335.004507756414 22692.93029663116,31353.120049745048 22696.35273218665,31353.673805869097 22773.702688453348,31355.15846884725 22776.618312275597,31355.28119286857 22948.57021271994,31389.676025336114 22956.711240275625,31391.031910355872 22998.239510213352,31385.260252413427 23019.218020720036,31382.37575312666 23150.87547565331,31457.377385831234 23158.774748186675,31463.24034971019 23257.116613431113,31502.47819193892 23258.788509608923,31503.106650548318 23373.237667297806,31626.633117504098 23374.758102497763,31628.07533285118 23459.174295920042,31662.140108844702 23461.347178408854,31663.025741885096 23541.423432275515,31680.914700810943 23544.24584934218,31681.139095404273 23602.529198675627,31733.310462964204 23605.535116542225,31735.985050202493 23641.166311564484,31789.340124321374 23642.768302675548,31791.547836671263 23740.58005449779,31866.683868298394 23741.44804240889,31867.419695482735 23742.918961520052,31881.72630254514 23743.68791725333,31883.565831402695 23834.031477786695,31954.64588405515 23835.9917323645,31956.329708498233 23869.630632986642,31997.655473554245 23870.731637786703,31998.932473894936 23979.64373165332,32083.08699872988 23981.68262943111,32084.561209683685 24029.133606142226,32148.338197767356 24030.007419475565,32149.952809253096 24170.930208453305,32105.492893130548 24173.860395831034,32103.821370515187 24279.58307103112,32098.932369394257 24280.232605608973,32099.00413478262 24370.168386586687,32145.506639102736 24381.807580186614,32152.222229430598 24415.46978249783,32156.0763407411 24417.13294054228,32156.40523992179 24471.27441467552,32206.16002019422 24472.94339814221,32207.6130570269 24555.79546569786,32251.199845780706 24556.229459653354,32251.600453241874 24638.155576346653,32353.048817295552 24651.34695369783,32367.90498339539 24698.876573608817,32489.76515562678 24711.156563653356,32496.567289060942 24739.098201342254,32511.04701925462 24864.89528152007,32563.497450627066 25347.11208223107,32700.608449225518 25348.69077165341,32700.96399797764 25373.011909431058,32716.10902301935 25377.95769289774,32718.305011300166 25504.748007564434,32765.408158106817 25508.581135386696,32766.937780667708 25659.47413449779,32816.13200663138 25666.013170942177,32818.21418340571 25756.758685608955,32798.93665039507 25759.493721342275,32798.25551976971 25868.97670658664,32815.63610715137 25880.479002764427,32817.34188049528 26248.261209342258,32816.18279149939 26260.11303085331,32816.22760167418 26265.44329218669,32824.44275523492 26267.211307831203,32827.39122662865 26307.703817697802,32838.68911226498 26311.496167564394,32839.39111700628 26517.180175386697,32848.99507349057 26517.183088097816,32848.99507349057 26602.493483831153,32862.05506259794 26694.69535405338,32885.557692312665 26837.817239920005,32853.88960878886 26855.482832808957,32849.98085368369 27307.74822516446,32885.139502469014 27322.08458925339,32886.14913183768 27617.149797857717,32895.890492141334 27648.954855564494,32895.57924370948 27954.987586586598,32556.06239071503 28050.279843297765,32453.718191181106 28085.71355650665,32395.70793334747 28179.933352986678,32241.453657191043 28270.21458150223,32192.19457618872 28320.21243280892,32164.91470782805 28407.54716276445,32037.606291876902 28561.31500774224,31883.89784343689 28675.810768808915,31775.576173992275 28754.00249858664,31741.307270196296 28853.486146586692,31697.914639914437 29196.59827259565,31531.06592510434 29237.32904223106,31511.180799016 29427.69801503115,31505.94069286043 29623.076850942198,31498.366263628617 29998.216565786723,31461.109456625098 30554.090005075537,31242.00105679236 30774.842341288902,31231.659715476824 31002.79897716453,31220.97872640987 31238.361575564464,31219.948850007117 31387.24480400896,31218.401038812386 32527.306147297822,31184.56421820956 32666.26576898664,31182.37831322415 32804.92305126225,31182.33070886435 32893.38150516453,31182.300469615293 33276.05057823109,31284.983860415203 33484.51476880894,31400.48053272281 33531.78952649781,31426.475581312465 34057.68505176003,31541.75551183315 34127.72730711997,31555.572051041905 34234.9392515111,31614.559688315174 34237.85400152006,31616.16350603968 34495.18620276449,31806.137118004408 34580.39756632,31899.394562340603 34776.9889638667,31977.165744859987 34777.85899067563,31977.46242412555 34798.29573691564,31982.209575170273 34893.260604897725,32004.26773940542 34888.04976472,31996.175107388088 34888.23617823117,31995.06557847056 34897.75200543108,31988.27977086653 34898.01706214224,31988.05547029586 34906.45227352004,31994.65885046989 34907.5387147645,31994.778476375766 34916.972986053304,31989.56575948521 34917.73029094222,31989.802022266056 34930.75302232008,32005.963412664685 34931.181190853335,32006.65125079188 34927.12087156447,32019.546601398586 34927.13834783107,32020.13274833202 34933.99778249788,32028.08755343486 34934.61236454218,32028.338756406883 34946.1845657866,32027.318991428852 34947.02342658674,32026.714907110174 34948.436091475516,32011.364419971505 34948.59337787561,32010.981625631073 34962.00349983117,32004.213908444304 34962.702550497816,32004.082321633963 34969.99306640888,32006.32826601222 34970.351329875506,32007.078906346957 34967.10074427559,32017.34854624237 34967.44444418673,32017.791148352466 34978.12244311997,32021.915110630012 34978.76323956447,32021.634000084334 34980.36814338665,31994.051748697675 34981.03806694222,31993.72875838811 34995.80551227564,32003.663636171696 34996.29193503105,32003.678589228046 35002.60960543107,31993.498478173424 35003.139718853265,31992.927263303805 35010.85840329782,31994.027823494427 35011.117634586735,31993.648010788573 34981.69633965332,31968.04758422778 34981.03806694222,31966.770530269103 34986.63921040888,31945.93360112401 34987.44020596447,31944.704362365854 34996.600682408876,31944.07628337454 34996.874477253274,31944.67744470577 34988.36644809784,31957.792210079933 34988.223725253345,31958.58477107124 34995.34239120896,31970.299620113714 34995.82881396448,31970.31158310137 35012.110869075615,31949.373066043278 35012.626418942215,31948.993230273278 35039.277725609,31948.65526599789 35040.09619743107,31948.07803461954 35050.165439742246,31931.23045480132 35050.7217675644,31931.24540933073 35082.65673218665,31973.365129326383 35083.37325912002,31973.954303779377 35126.75809112003,31978.266926773853 35127.602777342174,31978.54805388584 35146.657733431064,32003.029626303964 35147.2868790312,32003.262894149026 35162.354333608855,31971.480964201764 35163.62427565337,31971.068241672736 35217.04631014224,31968.852097175404 35218.20265645334,31968.968736526003 35225.76696720892,31980.674448029342 35226.49514498664,31981.365300499805 35236.1595204534,31979.235917642858 35237.0595481867,31979.648635588324 35257.888345342224,32000.18255639114 35258.36020454227,32001.298058835295 35253.469762586734,32045.38148176743 35253.469762586734,32046.32047991603 35263.79241076447,32056.673303741118 35263.93513360885,32057.259421132476 35256.50189485329,32072.869110766595 35256.65918125338,32073.61669297205 35265.577902675584,32077.608769117476 35266.42258889785,32077.87191644861 35311.377372186726,32080.581132374617 35311.77350089778,32080.24920910425 35312.80168791998,32074.615461615642 35310.2967563645,32072.797342835023 35278.15790196448,32065.497909632366 35277.72973343111,32065.246719329472 35275.45490605335,32053.80849876374 35275.51316027551,32053.189484116476 35291.835993342196,32044.78040270644 35292.29620169776,32044.660784924374 35298.2468704978,32048.999907543912 35298.715816986725,32048.871319163853 35301.21201040896,32035.761167458288 35301.44502729781,32035.465109787445 35328.34682712003,32021.472510998923 35329.49152258665,32021.31700295725 35364.12365769779,32036.35328244316 35364.84601005339,32036.667282620707 35377.90369396445,32030.737142372614 35378.3609896089,32030.874705420603 35404.41519049774,32067.301094650727 35405.044336097875,32067.69283077962 35438.22885378669,32067.438650872355 35439.23956454229,32068.123441246018 35431.76846054229,32095.87037298715 35431.692730053306,32096.731560761255 35438.91625360898,32105.851716811856 35440.05803636448,32106.06701093688 35457.251770053386,32102.29038404583 35457.6712004534,32101.506948334718 35448.3680011645,32072.459435396508 35448.35052489778,32071.38291509074 35458.510061253306,32061.344287557673 35459.32853307561,32060.716308101226 35478.40679085334,32058.231298432598 35479.55148632007,32058.66191442663 35500.51718089774,32089.052600955387 35501.54828063117,32088.915048765863 35505.049359386765,32070.62037892299 35505.63772703111,32069.926619842096 35512.8029963644,32063.120569408784 35513.67389698674,32062.932176082075 35513.17873609774,32074.794880989095 35513.48457076445,32075.629180502117 35519.92748774225,32069.786073741823 35520.16633005333,32069.436203546153 35516.321551386594,32056.257638573967 35517.13419778666,32055.133248169936 35524.316943386664,32060.1511261329 35524.815016986664,32060.204953005683 35542.498086142215,32048.249309938663 35542.97577076438,32048.16557788747 35551.02941698672,32051.82585581261 35551.1721398311,32052.340207135916 35536.61732240892,32081.134337493364 35536.404694497796,32082.03740657927 35544.02434676441,32096.405625228857 35544.6971830311,32096.713619359565 35563.89194925337,32082.240746485797 35564.893921875606,32082.21383385433 35584.95085058662,32096.815287296748 35585.88000543111,32097.224949137162 35604.47766587555,32097.314656079136 35605.75052063118,32097.04852545276 35649.22855938666,32072.531203360966 35649.942173608906,32072.486348383973 35690.92693165338,32098.947320517356 35691.99880934225,32099.27026470352 35714.28396205334,32093.020671553008 35715.143211831084,32092.945915333607 35738.31674143111,32104.27588151177 35739.81678765335,32104.245979481057 35773.95376187561,32095.60125160156 35776.28393076451,32095.93914843662 35833.55365663113,32118.960622348095 35834.05464294225,32119.352331043017 35847.977402053286,32155.84013123918 35849.081319564466,32155.478341855604 35872.98302694222,32106.470687252033 35873.242258231134,32105.295540031424 35861.434127386754,32082.216824146773 35860.93314107552,32081.014725610992 35861.017609697745,32063.51230775946 35861.40500027556,32062.851436070137 35872.02765769777,32065.743119131104 35872.62767618671,32065.36334340929 35873.27138534221,32054.41256086508 35873.82771316448,32054.280983023782 35906.95106392002,32067.1814805241 35907.76371032009,32067.549293901568 35911.914323653305,32063.350827853865 35912.25802356445,32062.543427795317 35889.45732098664,32046.4281356782 35889.171875297885,32045.578850904334 35909.74144116449,32029.484121252637 35910.227863920016,32028.4703388818 35890.40686480885,32012.665321124863 35890.447642764404,32012.150942093023 35901.31205520893,31988.09434906635 35901.78391440886,31987.376586818515 35914.29400863112,31979.33760179588 35914.37847725335,31978.912920828356 35911.32013058672,31971.82489946563 35910.59195280888,31971.516853106354 35908.4744118311,31979.675551968015 35907.874393342274,31979.941725003213 35894.82253485334,31975.656028355967 35894.394366320084,31975.333029969333 35891.67971956448,31951.3260767849 35891.74962463111,31950.443783141527 35914.78334409776,31925.38919234069 35915.19694907554,31924.743151243456 35929.18378783108,31889.996668404347 35929.8274969867,31888.809211116546 35942.751196186735,31887.01755278118 35943.89297894223,31887.37050084604 35960.80417965339,31901.272930277715 35961.53527014223,31901.036639033904 35947.97659992005,31887.05344581252 35947.96203636446,31886.27576307478 35964.50041005339,31863.19914823232 35965.51694623111,31862.113347952924 35976.282326497814,31861.275814958703 35977.895968453355,31861.92191192429 35996.59557378674,31876.668322188285 35997.12277449782,31876.668322188285 36008.63089609784,31856.989425767126 36009.059064631096,31856.872768628033 36013.06112969781,31874.054071480612 36013.591243120005,31874.64332559987 36025.16926978666,31868.140566114133 36025.46927903113,31868.38883259913 36023.270182142245,31891.58193584424 36023.197364364496,31892.272872090893 36035.46570356444,31897.982792192226 36036.51136685335,31897.836231152614 36048.83213485333,31890.70854364059 36048.94573058663,31889.622784075123 36039.08329076446,31868.2632037859 36039.35417289785,31867.617112406617 36071.455162053324,31843.90576323928 36071.62409929778,31843.756200132106 36070.30464116447,31827.869433096173 36070.40367334229,31827.384837914986 36078.65247120892,31822.37135290951 36078.65247120892,31821.72522108155 36070.939612186725,31807.71060114805 36070.8405800089,31807.139241690194 36071.21049432,31769.93410607337 36071.612448453416,31767.99856161661 36099.757975919965,31736.143610436207 36100.58809858663,31734.946928577294 36099.65894374226,31727.473606050684 36099.39971245334,31726.25596779972 36081.10206125337,31713.06226354619 36080.37388347553,31713.12209947736 36081.64673823116,31733.463040351664 36081.24478409775,31733.831020978774 36047.43694623115,31733.914788900613 36046.14952792004,31733.319438105536 36026.5236804534,31714.193161816424 36025.949876364415,31713.49607393614 36017.002027831135,31685.95009889445 36017.246695564456,31683.71214847805 36032.325800986706,31665.72452242757 36032.72775512,31665.95789765977 36034.571501253384,31686.4557311268 36034.99966978664,31687.308423743263 36047.8942418756,31689.630136136577 36048.56707814229,31690.084903678886 36054.683771475546,31709.041277742275 36055.29835351997,31710.06746893088 36066.30548880887,31713.534967268904 36066.96376151997,31713.34349238008 36081.84480258669,31689.73784426428 36082.730266764505,31688.167099161335 36086.534267475574,31664.240493563964 36086.64786320888,31663.15439794687 36072.3522770755,31642.712759591144 36072.50956347559,31642.35969347498 36111.105898408896,31640.510581702314 36112.107871031134,31640.37892955265 36126.78793503109,31631.26495251243 36127.431644186705,31630.4301472136 36131.162827120024,31616.26524062702 36131.0783584978,31615.58900457385 36113.27878089771,31605.53814785395 36112.75158018663,31604.664413956954 36113.25256649787,31584.59517603708 36113.3224715645,31583.58975461367 36130.26279938661,31564.989207883686 36130.87738143115,31564.549324337655 36159.73943583106,31554.85685684075 36160.32489076441,31553.88730374709 36158.83649538665,31545.143312861182 36158.00928543122,31544.290453916736 36145.22830907556,31540.451080042665 36144.942863386685,31539.921406452457 36158.55104969777,31522.99558853978 36158.722899653345,31522.510790922883 36146.27397236447,31515.61884910325 36146.0875588533,31515.20586918635 36148.99153183119,31497.98619338902 36149.46339103112,31497.10335230161 36172.313609697834,31500.571864166443 36172.71556383113,31501.011786403862 36180.448811831164,31511.240651523723 36180.56240756447,31511.695530421654 36177.11667032002,31528.328340996086 36177.48949734224,31528.651536857913 36188.93936472,31518.099716275785 36189.0529604533,31517.468278027634 36184.07804987566,31504.60297838351 36183.979017697835,31503.663284862792 36189.03839689782,31491.602779267152 36188.825768986695,31491.162851334055 36181.39253023113,31495.541169851407 36180.63231263121,31495.259856946097 36180.94979814217,31484.64470421782 36180.448811831164,31483.926447515172 36155.20434463115,31479.760544636723 36154.190721164436,31479.365500882297 36152.68776223108,31472.18284970094 36153.217875653274,31471.56633549792 36182.449844364404,31473.65829176092 36183.180934853364,31473.35003535109 36179.86335689782,31463.030852071737 36179.99151618672,31462.575942705706 36189.15490534224,31454.76163271742 36189.65589165336,31454.76163271742 36200.89021840887,31481.759702160285 36201.51936400889,31482.038027546863 36224.90843423116,31483.390747262194 36225.47932560891,31483.300965058297 36242.97598125341,31473.09265611248 36243.87600898671,31473.167475667986 36251.283033342195,31486.71866646121 36251.96752045336,31487.23042246778 36285.061744097715,31490.052555842238 36286.03167689776,31489.8011679482 36310.80719760896,31471.296984468325 36312.13539387551,31469.650948227703 36332.96419103104,31433.209742853564 36333.23507316443,31432.605167348956 36335.72252845331,31413.237533976702 36336.080791919936,31412.519206613564 36345.17136329783,31406.311631341552 36345.745167386696,31406.356527206866 36351.04630160888,31411.190299116046 36350.97639654225,31411.761969081213 36340.75569325334,31420.91461323839 36340.545978053335,31421.48328254398 36341.56542694229,31438.647906803788 36341.542125253334,31439.42008087944 36355.304685253395,31449.898222299496 36355.36876489779,31450.36211823739 36344.769409164415,31459.11024225832 36345.02864045333,31459.37660496935 36366.15744685333,31463.003916656686 36367.32835672002,31462.827340022166 36381.696760631145,31451.134279850783 36382.45406552006,31451.325823689724 36406.396550853366,31467.669714205054 36406.92375156444,31468.37601577575 36411.15883352,31499.093484084267 36411.758852008825,31499.81471846762 36418.92120863111,31504.483272270038 36419.678513520026,31504.411448592524 36437.96160116452,31497.082403517066 36439.29271014219,31496.142700272874 36441.26461556447,31479.443312547897 36441.75103831999,31478.488622690056 36469.2586820534,31449.182924111054 36469.715977697844,31448.62325516253 36483.828063031055,31417.87372138581 36484.0261273867,31417.212265859736 36455.53690000889,31362.824190355343 36455.77865503109,31362.50092064569 36491.76520080897,31369.154859761504 36492.708919208824,31369.184791873122 36512.48040223108,31363.243243468023 36513.421207920044,31363.566512846475 36526.030334320014,31376.51512878135 36526.473066408864,31377.338253039256 36531.59069983112,31399.241994394077 36532.70626818666,31400.25365708288 36556.84973058661,31401.986649947037 36558.10802178665,31401.253346045472 36566.129628186674,31395.44375708417 36566.557796720044,31394.722418987163 36566.814115297726,31382.25902000934 36566.41507387555,31381.495764548337 36541.33954391999,31375.377719177137 36540.410389075616,31374.641395165556 36533.43444596438,31354.604713858484 36533.57716880888,31354.018032435473 36564.140246497795,31356.705987300636 36565.06940134228,31356.676054673357 36623.98189627563,31345.202787500835 36624.538224097785,31344.54126564032 36627.884929164524,31320.890713643603 36627.71307920895,31320.405780937668 36617.57684454215,31311.0393317611 36616.93313538665,31310.862718099816 36604.8249952978,31315.137355285842 36604.111381075556,31314.60751717395 36605.64637983111,31300.672934866598 36605.88813485331,31299.930547869095 36625.01008329783,31265.735017369007 36625.8256424089,31264.7950140819 36648.31177218664,31253.209522831457 36649.441904097774,31252.329377143265 36681.64775085342,31220.011720411043 36682.40505574222,31219.278232024604 36689.11594214218,31198.357033069275 36689.10429129782,31197.55765639516 36680.468102853374,31187.147715230443 36680.49722996445,31186.17766991988 36697.65018569781,31153.68938014048 36698.151172008926,31153.069600356946 36717.06340525332,31151.23421072177 36717.73624152001,31151.46775158748 36740.866080453365,31168.97112467236 36741.50978960886,31169.617837123078 36725.79862587559,31190.740464275383 36726.19766729777,31191.06381081164 36739.922362053396,31197.279221615318 36740.621412720044,31197.45286912503 36756.032567208844,31189.240493725258 36756.64714925338,31189.138699203584 36774.90110978668,31192.869159641705 36775.87395529773,31192.782335340424 36783.05087547561,31174.111873825284 36782.5207620533,31172.80648030815 36753.702398320056,31152.395926074736 36753.07325272004,31151.674345367093 36747.84202356448,31132.631539366645 36748.72748774218,31131.688368438714 36792.17057396446,31104.105312296102 36793.07060169787,31103.8418129599 36846.536326853304,31107.923047537013 36847.16197720005,31107.7541693238 36849.370394764446,31091.445257882442 36849.5072921867,31091.02305260845 36860.07169538664,31087.35494671695 36860.39791903107,31087.310031018715 36867.27482996448,31094.493512722227 36867.012685964444,31095.131309006974 36847.879086675566,31111.441334634816 36848.12375440889,31111.983299033804 36876.2139403644,31115.90878589885 36876.74114107548,31115.303944923944 36885.52005236442,31100.742694209417 36885.76180738674,31100.242641914316 36879.0567464089,31064.450571062946 36878.95771423108,31063.875631605537 36867.66513325342,31048.91506617362 36866.96316987553,31048.444923262956 36839.83126587558,31048.444923262956 36838.83220596446,31048.06461635235 36829.3105533422,31031.690266530408 36829.48240329777,31031.08834934098 36857.514335031134,31033.96916236545 36858.27163992005,31033.822426846047 36871.908953342216,31014.297351645626 36872.88179885338,31013.69541988187 36881.38691529781,31021.924771641003 36881.90246516452,31022.086482848943 36894.252360275575,31016.66314821705 36894.625187297795,31016.456515662576 36904.03033147564,30977.809192957735 36904.18179245326,30977.64148210219 36900.5700306756,30959.579392456537 36902.67300809778,30958.707872401254 36910.540240808834,30962.939676364855 36911.06161609779,30965.398483760684 36908.56250996443,30999.46752267299 36908.94990054225,30999.820902612322 36930.48648649778,31001.569831276924 36931.071941431124,31001.53988390407 36946.826795831184,30990.603019825154 36947.41225076453,30990.51617111385 36963.30691529785,31003.04024574443 36963.73799654222,31002.671893726714 36950.8142973423,30961.193648455694 36950.71235245336,30959.531473855575 36954.61538534225,30934.038324143767 36954.8163624089,30933.493230451917 36965.637084186754,30924.59197150779 36965.768156186656,30924.004939777573 36960.175750853356,30905.12382598783 36959.97768649783,30904.446924026328 36952.29978000894,30908.858755839727 36951.90073858665,30908.81382897243 36920.58035600893,30895.635159590893 36920.59491956441,30895.281728300353 36931.02825076445,30888.34485511607 36932.04478694217,30888.254998804914 36945.92385538665,30893.17910803386 36946.79766871999,30892.445286117116 36949.45697396444,30867.45595452658 36949.64047476449,30866.985692649992 36959.733018764506,30861.252666324523 36960.72042783115,30861.339530702477 36955.631921520086,30876.28304209592 36955.789207919945,30876.59155387644 36965.223479208864,30882.39035250849 36965.98078409778,30882.477214321 36971.08385396444,30878.023286418378 36971.38386320891,30878.053238951456 37012.03657218672,30909.038463280624 37012.40648649782,30908.84677534204 37014.12207334219,30885.18789662185 37013.97935049781,30884.79252702507 36991.73206303115,30856.049770385056 36991.63594356445,30855.399780150707 37005.852886497836,30821.848099542985 37006.184935564386,30821.614451394096 37055.299070319954,30824.951418996177 37055.79131849783,30825.104188235215 37065.592591386616,30835.815926432 37065.75279049783,30836.45694818141 37059.92154285333,30853.34197307218 37060.35262409782,30854.222607393604 37085.46019387557,30849.87034625784 37086.03982338668,30850.100989804225 37086.56411138675,30867.38406738077 37087.3913213423,30867.659634733893 37138.36959120897,30863.96642432295 37139.1647613422,30863.822649322945 37154.03415156445,30856.858513170067 37154.657471742226,30856.340318824135 37159.35276205335,30840.926111886598 37160.41298889774,30839.72495199993 37186.34485592004,30820.943461413466 37187.59732169784,30819.655398525036 37185.74775014222,30812.277449393267 37186.48757876442,30811.633410430368 37217.443872453274,30796.586697740626 37217.81669947561,30796.44590478568 37214.193286853355,30803.32675355274 37214.42339103108,30803.922870984155 37234.189048631095,30829.327795446414 37235.63084063118,30830.57690003232 37257.30141129785,30825.580468594475 37257.91016792003,30825.113174659986 37241.51451707559,30791.95549364513 37241.0979993867,30789.103663507878 37251.2691865867,30761.255782415654 37252.32941343109,30760.86334001305 37273.659196897854,30780.341404082516 37275.25244987556,30780.694892184838 37280.186582497765,30765.782335294964 37282.04780489786,30765.62655764495 37303.45331885326,30780.38034769558 37305.12230231995,30779.56253137518 37313.05361467551,30770.075194465666 37313.66237129781,30768.397597304283 37311.49822694224,30759.380445016868 37312.40990552001,30759.107831662142 37326.94433396447,30768.47548583118 37328.045338764416,30769.529975820595 37328.99488258662,30778.274393879547 37330.62600080888,30779.09221167516 37360.571583742254,30767.18732833283 37361.74831903107,30767.148384000146 37376.713828720014,30777.06414165019 37377.226465875494,30778.001787739544 37370.96413698662,30794.118323615316 37371.07773272004,30794.58563781783 37386.139361875576,30797.263701774908 37387.98602071996,30796.970133732626 37417.44809360893,30742.070788249985 37417.67528507554,30741.687322771322 37427.54646303118,30739.003058649454 37427.88142480885,30738.778370904358 37444.90039583107,30715.041958820977 37445.174190675585,30714.991027893877 37469.84776649773,30731.786052907322 37470.50603920894,30732.220453408692 37495.28155992003,30737.535097435844 37497.142782320014,30738.523724707746 37507.118817875606,30761.624258673604 37508.240211653385,30761.29173132722 37501.03998978667,30734.458360765042 37500.871052542214,30732.975410892017 37507.91981343108,30719.104437524133 37508.03923458674,30718.35246127975 37502.04778783114,30694.16596565352 37502.20507423112,30693.746522096422 37522.23287583117,30711.39289848224 37522.94066463106,30711.255084671575 37563.68949307557,30675.093018248008 37565.01186392,30674.931228574103 37576.94815405328,30681.387806476763 37577.66759369776,30682.238692193496 37581.943453608874,30708.22617006235 37582.01627138662,30708.549734254746 37593.18360578674,30719.338119223394 37593.13408969783,30719.943294550147 37582.674544097834,30728.367761109286 37582.2667645423,30728.268897036178 37581.80946889785,30715.476369522017 37581.64344436452,30714.886170091253 37571.73440116444,30710.844639034214 37571.48390800888,30710.99443673945 37568.09933769782,30724.35626544038 37567.837193697786,30724.62889207425 37556.728113520054,30723.35563492388 37556.48927120897,30723.592311130866 37563.310840631115,30734.769929639384 37563.4040473867,30735.411042087275 37558.75827316449,30742.124713066412 37558.98546463121,30742.59505712558 37598.02453165336,30748.20021628504 37598.877956008866,30748.520766546746 37616.41830232004,30764.71885258527 37616.995019120026,30764.943532163015 37636.09949129771,30758.79028190885 37636.55678694216,30758.976018574118 37638.75297112004,30776.3122264845 37639.00637698672,30776.59382030464 37658.591446497805,30743.131308891258 37659.15651245343,30742.376362155745 37671.35494658675,30736.660310949694 37671.631654142264,30736.44760585422 37673.15791476446,30712.165853709128 37673.45792400893,30711.090307254315 37683.3028875645,30705.67659892692 37684.52913894223,30705.353033430438 37701.248100719975,30716.584864594304 37701.44033965338,30716.818547119357 37704.658885431105,30732.96043158465 37705.02006160885,30733.628508387686 37719.86906285337,30749.790982990322 37720.38752543109,30750.282292517804 37744.64167085334,30760.23722916821 37745.85627138671,30759.671032763872 37750.64768116442,30751.58545944284 37750.55156169783,30750.920395240508 37741.97654018665,30737.933544349653 37742.04935796452,30737.42724710508 37752.05160792007,30732.44813908302 37752.01665538675,30731.58532982765 37734.42970569779,30709.5803451479 37733.98697360894,30709.109979314642 37736.928811831145,30702.94725943837 37738.00942765337,30701.224564479926 37748.151487742296,30693.195253046026 37748.93209432005,30693.033467482863 37776.41934907562,30700.334753453353 37777.150439564466,30700.062117529247 37796.24326089779,30675.305741652235 37796.57822267558,30674.919244152406 37808.138773075516,30673.50208485857 37808.54363992005,30673.466131520603 37812.81367440892,30677.66966365729 37812.75542018665,30678.014214371826 37794.69369858664,30695.247529686516 37794.405340186764,30695.91264581142 37802.48811352006,30714.874186341447 37802.53471689774,30715.269649980095 37789.90228880893,30724.32930236103 37789.494509253396,30725.365882233164 37789.867336275616,30771.41127795636 37790.43240223113,30771.965482258034 37833.07449289782,30776.165438172553 37833.42110551996,30776.003671426413 37838.50087369778,30765.851236936956 37838.57369147565,30765.30901079168 37832.63467351997,30753.433855344687 37832.92303191996,30752.48119808719 37848.07786783108,30742.298470780457 37848.6895371645,30741.50757325723 37845.578761697725,30732.975410892017 37845.52924560893,30732.615907428175 37852.50518871993,30723.864938056824 37852.81393609776,30723.577331626468 37872.614546231205,30730.234192403703 37873.430105342275,30730.09638223439 37907.81757271998,30712.408525526145 37908.682647920075,30712.333626825974 37923.5666016978,30724.74273613232 37923.89282534223,30725.47373438769 37920.19950765334,30747.03485010154 37920.27232543109,30748.54173711958 37926.49096365341,30765.881194170594 37927.24826854221,30767.190324050636 37945.78767476438,30784.523336862825 37946.83333805329,30785.3141867269 37956.739468542255,30784.85585338963 37957.170549786744,30784.709066833806 37964.66495547558,30772.690440749313 37964.510581786606,30772.02240051332 37947.488698053385,30757.66088211318 37946.78090925338,30756.672281355684 37947.43918196447,30746.222987188172 37947.83531067553,30745.61783415734 37959.73664827561,30739.380533901887 37960.35996845339,30739.332600547554 37976.787659120026,30743.592664836353 37977.54496400894,30743.344011993933 37980.35573023113,30732.502064626868 37980.95574872007,30731.944833810878 37999.08737538671,30726.0279743688 37999.38738463107,30725.695430431835 37977.82167156446,30717.921048255666 37977.43719369788,30717.240973027918 37980.05572098666,30700.023169531574 37980.1751421422,30699.50486135998 37993.876535208874,30688.431551638147 37994.01925805337,30688.036073108407 37982.81988383117,30678.12506978368 37983.116980364524,30677.654683187633 37991.2288808089,30679.02389681028 37991.47937396446,30678.877088473382 38002.78069307548,30659.504114722222 38003.51178356444,30659.366290874284 38010.071208986665,30659.417225777725 38010.49063938668,30659.662911731255 38006.54974125335,30669.262574576103 38006.68372596449,30669.891761442443 38015.48593894227,30676.438268002385 38016.289847208864,30676.066751620354 38023.14636916444,30647.231695334456 38023.92697574219,30646.54256394875 38037.41282818674,30657.622517277458 38038.240038142285,30657.55959753177 38078.73546072,30630.893109418597 38079.035469964474,30630.290854722232 38067.663371973416,30610.22499483594 38067.42540347562,30609.463315188623 38070.16335192006,30600.88162816732 38069.837128275634,30600.513068758562 38059.55817076445,30607.132126934506 38058.82708027561,30606.985303768102 38040.70127903109,30593.908931196114 38040.32845200899,30593.204765903793 38050.74721965331,30577.515182973264 38050.78217218663,30576.811001439026 38040.6371993867,30557.662989236036 38040.98381200896,30557.129594339785 38052.75116489779,30565.376194253826 38053.36574694221,30565.376194253826 38086.0929689867,30555.49944116277 38086.57356631998,30555.658261397824 38091.96499458663,30574.308903959667 38092.492195297826,30574.88723386053 38113.24526196448,30584.733752590517 38113.68799405333,30584.784692837886 38121.674647920045,30554.18392879379 38122.08242747558,30553.503697068692 38146.004523831165,30539.67117844234 38146.193850053336,30539.290600572334 38129.45449929775,30512.45784803995 38128.9156477422,30512.322992466245 38115.153087742256,30534.16626450271 38114.70744294229,30533.84262098276 38102.51774694221,30513.371868474846 38102.5934774312,30511.831518602994 38116.31234676447,30504.429401557456 38116.38516454222,30503.58729346996 38088.88043351993,30488.066552928445 38088.50760649783,30487.856770366692 38089.710556186714,30476.82811399983 38089.88823156441,30476.28566750724 38113.44915174225,30465.859225798777 38113.929749075534,30465.673412569304 38124.834939475615,30470.336710501957 38125.37670374217,30470.201846918004 38129.003029075546,30458.333751033497 38129.45741200887,30458.20787622404 38147.10261591999,30467.064013620984 38147.632729342185,30466.557523467665 38132.56818747553,30434.14140055378 38132.50702054226,30432.66082105346 38143.50833040881,30428.117160992726 38144.026792986646,30427.73052894234 38144.85109023107,30415.92765978523 38145.11614694223,30415.753822253 38182.80954143112,30408.90518895004 38184.059094497796,30407.772235783545 38166.89448792008,30400.219168321433 38165.327449342214,30399.16413025881 38164.88762996437,30389.042278898443 38165.65367298664,30387.246886529 38176.13419010674,30382.565057278814 38178.3312480978,30383.044331748126 38175.97369972451,30378.977232455596 38175.90088194676,30378.492559987557 38215.5513270312,30342.54044632314 38215.93580489778,30342.09681478 38232.616901431094,30354.09275345606 38233.08584792002,30354.287588360865 38237.65006623112,30350.258991095325 38238.10444916445,30349.815364397626 38247.195020542225,30334.486092429055 38247.13385360895,30333.967517186218 38233.94509769788,30330.27153347715 38233.45284952,30330.433401781687 38234.17811458672,30317.450846422027 38234.288797608904,30317.01019673978 38242.47934125338,30316.974225324957 38243.466750320025,30317.58274151155 38249.35625218668,30330.925001590425 38249.740730053374,30331.023921022803 38253.090347831116,30320.748216269974 38253.22433254225,30320.379511133273 38242.61915138664,30302.990199005144 38242.76478694226,30302.58251476867 38260.0109494312,30299.449933184806 38260.38960187554,30299.497896261193 38265.023725253275,30310.415406738553 38265.32664720898,30310.400418509293 38262.708119920084,30298.166919681214 38262.88288258666,30297.741246461548 38272.346280986654,30294.578666262707 38272.401622497804,30294.16198402355 38262.80715209779,30293.982121110574 38262.579960631185,30293.700335787988 38270.31903405334,30284.68314605989 38270.40058996445,30284.422341318073 38266.35483423118,30278.70859485332 38266.51212063115,30278.384834486904 38283.16700276451,30276.142490093567 38283.682552631224,30276.106516596017 38289.26621983117,30264.049295985285 38289.62739600891,30263.22189089263 38277.09108738669,30252.48652159152 38276.83768152001,30251.716062943247 38282.878644364515,30251.24539323806 38283.070883297805,30250.750740024523 38276.768358995534,30244.612814248452 38276.28426640886,30243.69364971688 38281.85628276444,30236.951274421794 38281.97861663122,30236.66646835432 38293.09934765343,30232.835066068365 38293.314888275556,30232.957983053493 38303.64918729777,30244.086378348904 38303.96084738672,30244.76690759798 38302.29768934227,30254.908814114315 38302.89770783121,30255.01973572615 38312.97277556451,30255.811175909505 38313.33395174225,30255.565349887096 38308.42020809776,30250.157155710243 38308.469724186674,30249.884346590057 38318.53022836449,30242.950162852387 38319.03704009785,30243.076076005556 38327.50633019556,30259.069261976023 38327.69361752002,30259.12382309782 38337.253135386716,30240.566802496818 38337.72208187564,30240.13210068256 38356.84694303116,30245.582342661073 38358.04115458669,30244.79988476957 38357.77609787553,30192.08840266845 38357.822701253324,30191.81856921318 38347.820451297775,30188.733466024074 38347.49714036447,30188.38567900521 38348.02725378666,30178.179852398607 38347.78549876446,30176.374928769044 38360.31889467556,30175.26258980835 38361.54223334228,30174.531023603602 38364.74912827553,30162.529031750775 38366.70938285333,30161.530605518405 38373.262982853434,30167.680049082293 38373.825136097825,30167.889926753793 38386.45173876451,30165.15551561411 38387.246908897745,30165.49132106328 38396.625838675514,30180.773297683365 38397.46761218666,30181.34895129464 38425.38594818672,30186.706704773213 38425.94518871999,30186.847618835833 38423.50142409778,30196.777491978923 38423.90046552008,30197.50903506574 38432.62112258675,30194.64581905995 38433.49784863121,30194.825707319338 38439.023844151154,30202.25865001636 38439.60580383111,30202.32400871601 39110.01578214227,30200.956871350092 39226.00576400883,30200.956871350092 39195.768909964456,30057.782493341103 39189.41919974224,30011.57066838027 38840.4181544089,28446.556863394886 38835.4374184089,28409.97594503846 38782.39694907549,28198.68758569713 38778.202645075486,28184.885996081663 38768.24117307561,28099.905254025856 38760.26034463113,27994.852248495707 38764.94980952002,27967.210313169548 38775.843349075505,27942.96628245493 38818.25242285335,27899.228548220388 38836.777265520046,27889.481922808598 38895.08974196445,27865.08465308629 39009.617542853324,27821.19138723091 39047.424533075515,27805.75735888761 39131.31061307548,27815.836150836636 39225.36205485333,27791.31583900677 39342.62780418664,27716.24497563005 39408.45507529783,27669.03174377189 39395.085731297826,27574.294241293537 39396.2216886312,27500.974733796815 39398.202332186724,27483.00479782527 39358.8807321867,27442.307258444285 39352.6475304089,27426.412864462734 39353.95825040897,27411.87277143108 39402.62965307557,27367.437707782403 39426.65951974222,27350.758734108444 39438.95116063112,27331.36964971744 39552.77991085334,27225.863762429246 39572.03293129788,27228.573885524092 39620.23830018668,27245.045171305566 39625.01514640891,27233.963986046874 39657.287985520066,27213.788522687595 39677.909980186705,27208.88007008066 39678.550776631084,27201.291470002994 39697.104746408855,27194.305062323838 39703.25056685342,27182.530388226587 39740.32937929777,27155.426755935507 39745.10622552,27138.802641380025 39738.72738818671,27082.783502934763 39694.250289519994,26927.862636841513 39688.68701129777,26912.64871249578 39684.11405485331,26756.18078619949 39681.25959796445,26729.210151153413 39701.09516063109,26685.512335431675 39701.73595707559,26665.440492184047 39853.459078853346,26316.856806291995 39861.032127742285,26288.933037926297 39892.54766196453,26231.36283192222 39892.518534853334,26222.345345403213 39913.78132596447,26187.661527002376 40162.352092186666,25895.368373947713 40207.00395352007,25844.67335038833 40430.90405663112,25510.76998151801 40432.27303085334,25501.772506854817 40442.58402818672,25495.49231460443 40574.55896863118,25301.77211828259 40595.18096329782,25280.267476479145 40642.629027297815,25204.572551308753 40652.24097396443,25183.759383441677 40960.49319085337,24735.7918152285 40980.44526196455,24700.361367101985 41166.42186640888,24448.874175107834 41186.43219174221,24437.078960140963 41201.57828952009,24401.631475623202 41221.53036063116,24371.77779653875 41333.902755297815,24221.70114947835 41414.55572596446,24107.05442633861 42024.82695796443,23469.04093002694 42071.80898818674,23427.35745714887 42103.586666408904,23387.034455870773 42106.353741964536,23377.309273833438 42142.267469964434,23341.16416162238 42153.33577218661,23320.31838928492 42177.453020186724,23294.1692622813 42314.87473040887,23160.13345659626 42621.4375748534,22819.83416250479 42654.75898996447,22790.691342188133 42674.27415440893,22761.122516539035 42980.021439742275,22425.78553037354 43080.3060832978,22307.58083603313 44009.14052952009,21296.396356094483 44164.358904631204,21135.785152374447 44616.528177520006,20635.513049283676 44679.093212186686,20567.29783573738 44686.75364240897,20336.65755093537 44693.77327618676,20296.030875947356 44691.384853075586,20227.592453543824 44700.64377915554,20125.345930078212 44730.08313289783,19200.301459020615 44731.699687564374,19158.76603401205 44959.05426605335,14843.037644861703 44961.48055440884,14801.164559993165 45397.577487386625,11292.082550766849 45402.43297680884,11249.913187123922 46088.536642586674,9986.57132709751 46109.575154942206,9945.148791148356 45173.46184365333,8876.467559172917 45169.41608792006,8869.548973945231 45136.2432210756,8859.17090600988 45119.25337716446,8853.980229587673 45065.04491067559,8821.112923913432 45050.48135512006,8814.190413153643 45014.07246623116,8786.508696921606 45001.12546534217,8776.994580817845 44893.51826605338,8671.441964369587 44883.80728720883,8659.327549475915 44870.053465342244,8631.636732351239 44862.77168756442,8617.792270336562 44835.26404383113,8519.99402309957 44829.59882071996,8505.279995479184 44822.31704294225,8410.054566029838 44820.700488275594,8391.007783824549 44829.59882071996,8310.482862727862 44832.83484276452,8291.432032389537 44855.48990978671,8225.610137683718 44862.77168756442,8210.886864418659 44899.99031014226,8162.382840150996 44908.88864258663,8149.388332395261 44954.19877663113,8109.538749340252 44965.526310142224,8099.143867038685 45022.1610649867,8072.287010392145 45033.488598497795,8070.552848308958 44062.5858656978,6584.046331477206 44035.07530925339,6539.71475665053 43837.66048827556,6406.697312531149 43796.396109964444,6381.4822184017685 43773.74104294225,4847.569478179881 43773.74104294225,4803.940216198767 43208.99839832003,1688.1314549043018 43202.44508959106,1643.7815848912287 41017.18328720888,2844.9307396409276 40976.72864258671,2868.596086536505 39180.55873254219,1263.4218036275415 39176.51297680892,1254.6234830397589 38979.09524311996,1122.6394706357096 38964.53168756443,1114.71899790506 38595.58730925338,970.363052186236 38577.78773165329,965.0797993542219 36233.05528720885,412.72793098152033 36190.174354231196,401.26830261197756 34506.46713289779,13.204889120330336 34460.68222694225,8.052549999993062 32750.23719142224,1067.9712559486798 32407.87916632006,1280.4225060975004 31855.369908364468,1650.05156558592 31560.53363885344,1858.4733112929098 29079.07562214227,3400.9689596720564 28864.423376808852,3535.284735268535 28646.392386586733,3681.6438167507586 27932.265527208896,4137.368000321352 26235.934615920043,5203.888755395688 25878.868273520005,5428.429356801469 25725.729574142235,5508.937778125779 25721.491579475558,5495.460068134154 23148.661815208943,7167.191829710995 22987.379175564485,7272.463957720349 22815.34571920892,7392.374293850298 22800.109327386694,7410.271952372714 21317.551022675565,8373.802366917109 21243.815740897764,8422.19099279921 20331.458501431138,9237.50714187327 20151.933552097857,9398.261485101044 18523.078506408936,10869.105708494753 18359.17442676446,11014.403046497406 18341.6835965422,11040.50584571567 18265.62979671997,11117.036252292019 16993.121653786722,12256.164809720853 16955.70205414223,12282.198798264115 16442.599156080025,12749.856757308153 16440.344426408854,12751.925112357741 12145.013041520004,13669.586601228424 11943.593242764451,13686.486650120554 11940.995978266677,20182.802113015583 11943.480229573302,20251.013206240925 11793.040448311112,20253.2037603051 11790.934266906675,20256.2526125772 11787.777761875514,20449.218565151416 11786.72627316448,20521.770858537784 11777.259962053366,20565.736187803763 11766.74507494222,20611.898899940978 11767.269362942294,20687.172848503018 11768.84805236452,20752.005071813386 11756.754475831149,20795.952805627865 11742.03072116452,20820.1223271543 11748.107219084493,21954.12870165627 11748.86685414226,22095.87944461257 11533.27671583111,22220.288485446275 11511.716828186742,22232.34244812213 11456.50638907552,22300.839880120446 11449.67025609778,22313.98786006056 11423.904413608929,22397.263781224756 11423.904413608929,22425.202910173306 11397.614283120005,22474.505127033073 11389.19946072004,22496.414902023185 11378.157372897818,22553.37776173922 11365.53950836449,22588.429592430446 11253.009827297858,22775.700888109306 11240.916250764487,22797.050723604014 11226.192496097858,22835.372377744323 11185.178610942188,22935.54539525605 11131.52355956447,23033.579746554402 11126.164171120014,23049.20034605058 11124.017503031158,23067.054562073812 11124.017503031158,23082.11656153007 11150.552301253403,23172.480660888512 11150.820270675562,23186.982393678656 11111.955966319983,23295.175251898443 11107.132516720078,23316.367307391454 11112.491905164417,23449.62636025381 11108.74033325338,23474.154228862637 10994.518367031102,23648.834809705644 10957.221101253388,23704.847139580204 10940.735738906638,23792.02894889601 10922.682172897716,23889.363526403875 10866.044505342237,24087.463405654562 10834.272652542197,24156.349987440655 10815.622563297722,24183.618049032666 10787.992585697772,24211.59893385871 10724.445967386688,24258.232938748522 10682.310688453355,24276.169785432256 10578.25699671996,24312.217369510472 10572.329629608874,24313.56956676641 10390.82694943119,24319.928181765514 10371.882676364483,24322.877564711118 10313.491556719971,24351.142527449207 10303.795141431132,24359.382198522013 10187.752730764427,24487.049815669627 10133.186000808935,24547.288938714104 10001.257663742268,24729.407227928255 9989.51361254228,24743.742227914074 9832.591301431159,24838.480377264408 9817.852983208933,24852.126782416744 9812.362522764459,24869.07027641553 9809.92749627561,24883.516917231347 9823.049259831176,24935.11711092564 9828.691181253387,24959.184061165113 9822.624004008925,25036.540172751964 9816.14322178669,25099.206738605193 9798.221310320056,25137.487644024397 9786.59085485337,25156.06683452599 9745.649787475566,25202.146901128028 9731.086231920031,25214.26901723366 9697.260917786603,25237.12912865987 9690.430610231102,25236.75155691788 8384.906886853372,25029.79606646867 8345.745485964442,25023.1999461558 8338.68216151998,25023.97649713306 8336.785986586685,25028.146287497977 8327.552692364414,25065.102109776315 8322.901092719963,25083.438714180753 8313.827997608903,25272.831290700444 8312.199792097766,25296.229910630413 7304.585248453404,25270.84084266858 7194.87798445332,25270.25186215251 3417.7703350310694,25472.81064028028 3335.923152808893,25477.62361936181 2494.2486738755615,26251.88543649236 2428.6165544088944,26316.856806291995 2335.9311741422644,26371.52177213764 2329.980505342224,26373.985189881438 2180.8962998310817,26396.16457192684 2156.196509608977,26400.78668818131 1725.6075133422637,26429.432217163354 1685.4354016977377,26431.58789184355 1675.6166525422377,26433.743559334864 1652.702354231129,26437.13231439711 1625.0286859645057,26450.376628893166 1564.9161540533896,26483.02347464746 1544.3844534310992,26484.563976764068 1528.6121227644398,26485.489482143166 1288.1736459644526,26411.257935554167 1280.7345817866517,26408.79465997583 1199.79325272001,26357.042595578503 1190.8657931644484,26352.11260606526 1119.746125964426,26338.55870987734 1038.2106038310812,26322.233349830465 669.813815208945,26425.117831279786 665.3515417866656,26425.42535659371 249.93485769778636,26340.407122276752 192.32550971557066,26317.372449820017 208.38124717339088,26480.71814104842 227.65553040893428,26576.134365374543 203.62857645328768,26623.35692522771 206.86459849784296,26656.007114430104 200.39255440896522,26670.238502694323 181.78324312004406,26692.84171887752 171.2654432977797,26702.889349560515 133.23708703110606,26727.163953442505 122.71928720895812,26737.20804041266 96.82819814221148,26774.04105986483 92.32835074663308,26783.010487134132 89.83448749336094,26805.939429161575 87.83811529781815,26840.370800436503 137.28284276449267,26916.32117538617 154.6321152266828,26947.09885671918 198.95571401782945,27040.115995998 209.53468077336584,27080.684499321593 8.052550000000338,27756.452719485416" stroke="#009edd" stroke-width="5.777074647966634px" fill="none" stroke-linejoin="round" vector-effect="non-scaling-stroke"></polygon></svg>