<svg viewBox="0 0 11541.485751235552 9068.164140365247" width="11541.485751235552" height="9068.164140365247" xmlns="http://www.w3.org/2000/svg">
  <title>Niger</title>
  <desc>Geojson of Niger</desc>
  <metadata>
    <collboard>
      <support-module name="@collboard/map-svg-geojson-import" version="0.11.0"></support-module>
    </collboard>
  </metadata>
  <polygon points="8.052550000000338,6945.152592371356 11.233012080025219,6957.5720193341185 19.35933044442936,6972.646984132931 21.93314761779766,6977.638578765742 30.572540044442576,6998.537037464739 40.2030552444412,7023.576117545679 162.51318331555376,7299.187853339077 165.76908461334097,7305.084227400912 183.16379536889872,7315.301238013657 186.19811216890957,7317.594202512344 187.06864870221034,7320.091510081555 187.7109743200199,7322.741815334644 186.28993538665964,7326.691303927619 184.92591277333122,7330.424407932449 186.8881334311227,7332.679721645305 189.01077165333118,7333.67426876806 192.87331785777496,7346.571491506089 193.88475679112162,7349.698505192144 210.67289545777749,7358.869851579926 213.70721225778834,7360.954385234443 214.7186511911059,7365.122626778313 215.73009012445254,7368.249304744801 225.0340175911333,7368.457897999666 228.06833439111506,7370.7501562258185 229.48464016890648,7374.293905161605 228.87733990222478,7378.878986921431 225.0340175911333,7385.548184624851 223.41600656888477,7389.090880461583 222.809434480012,7398.05158204036 223.6184399911217,7402.219680954549 242.6318899466496,7414.514089397409 245.05890648000786,7417.01427353637 258.40931785776775,7443.683667781595 260.43219572446105,7446.808180884844 265.4886622133563,7452.225320828969 267.91567874668544,7454.724963280103 292.99776230223506,7471.38983079623 296.0313509244661,7473.473014848096 302.9089900355684,7487.22005709065 304.9318679022035,7490.344540881801 312.4153509244279,7498.258600449328 315.0455290577738,7500.758334206541 331.8222353333331,7501.387460738486 334.0589790133308,7503.881826602366 335.0704179466775,7508.047396147791 334.86798452444054,7512.212866683425 321.92243999112543,7535.535725033471 320.304428968906,7539.283766030079 319.6971287022243,7543.8645132107995 319.6971287022243,7549.069524403363 321.51757314668066,7556.356581210646 323.54045101334486,7559.479834437407 331.0246622133491,7567.3915283011665 333.65411216888606,7569.88952913283 340.1268844355727,7573.845186819228 340.1268844355727,7574.261132784079 443.4873509244426,7571.554843355341 447.7355400800079,7571.138891006696 453.8034455022207,7574.261132784079 456.4328954577868,7576.967380684837 457.2419009688965,7581.131219114082 457.6467678133413,7585.710878278442 455.6238899466771,7588.833611620481 451.37642896889156,7589.8745104636255 448.3421121688807,7591.747963047914 448.54454559111764,7601.530809766926 448.9486842577826,7604.236639850198 487.38045101334137,7616.933481438617 491.4262067466698,7618.598352350491 516.5075621244396,7612.978788319575 529.250673235576,7616.516886628968 541.9937843466541,7620.263207612537 582.2459955466693,7649.19038169938 593.7752343022221,7658.346811857678 606.1142067466644,7659.59480058257 609.7550956355772,7661.259271312949 624.5210846133486,7687.47525367565 626.1390956355681,7691.012617856242 626.9481011466778,7695.17303157322 624.3186511911117,7702.870477380835 623.1047788355572,7707.031363609676 623.3072122577942,7717.224226740589 623.7113509244591,7722.00855373784 625.3300901244584,7725.544485291255 629.375117680007,7726.792003976203 632.4094344799887,7728.872180860613 634.2298789244451,7737.191897964825 636.2527567911093,7740.311973039039 659.7161011466596,7748.215620668219 663.9635621244452,7749.254839060151 665.7840065689015,7752.37470421609 673.0657843466688,7755.7026503257 676.5042398133155,7757.36622589887 697.3388623911087,7772.754692378345 700.3724510133397,7775.042449163702 722.0153509244337,7779.617126836012 726.0611066577912,7780.865018221441 734.556756791113,7787.726394778227 737.5903454133149,7789.805865727867 742.2426732355743,7790.429402912916 746.4908623911106,7790.637497675467 757.2110956355536,7795.4198682504575 761.2561231911022,7796.667650114185 786.7423454133459,7791.677219343976 791.1922398133393,7792.300750050119 813.2008306044518,7805.831658325282 817.2848156711043,7809.034295723388 820.5080217866707,7815.705619518318 820.2030609333378,7821.181930844985 818.5801711200111,7821.57567161222 818.4600946044447,7821.870546287384 819.976670462238,7823.196727962473 819.888779404464,7823.302178446473 815.0801846311151,7823.90965885092 814.8966110133406,7823.948725526272 809.8526691822117,7828.3275822942305 809.6700421955393,7828.456529074647 806.0430615022269,7828.378397664412 805.5401819289036,7828.499486368186 801.1681297333344,7832.003390120175 800.5858787822435,7832.4041419780915 789.3916746222312,7832.905697953996 789.1065930222467,7832.866633214413 788.8917077599981,7828.132253565978 788.6104855022058,7827.694746384244 786.0616448266737,7829.110466699371 785.2913055555618,7828.594905407044 778.8725640800039,7818.782346336993 778.852247920011,7809.408902310424 773.9928991555716,7805.48705836814 773.5037821422229,7803.176110928813 769.26476802666,7802.060483435525 767.1084879910995,7801.869841803935 766.2303784088945,7803.908955799496 764.6975641866811,7805.446415888429 762.5772561333215,7804.7073648532605 761.6084884177908,7805.379277186432 762.9663215199907,7813.5026541978805 763.5913165066813,7817.3589110924295 763.2787826044441,7827.116765293562 760.497580400006,7827.5433473985395 760.063149537782,7828.810514830104 761.6850199022228,7830.955818323106 761.6537810755617,7835.621425038109 754.2787965422103,7844.024586863357 748.153801982211,7846.337032387084 747.0287673155617,7844.53082503561 745.7615923466583,7844.36207913547 744.9811314044418,7845.4058317419185 740.9655222311048,7845.890215317391 736.0850563111089,7843.70116241488 735.4678528266741,7843.403479707071 733.3295587822286,7844.51593349687 732.7514584444652,7844.728455843295 732.4819598489048,7843.194847090192 732.3256928977862,7842.88279570439 724.5545796533188,7841.541716946282 723.6873927377819,7841.307788569662 724.450668684447,7837.959346851225 722.3123746400015,7836.242933081005 720.5522233155571,7839.456181668669 719.437383137767,7839.84681445521 712.2501228355468,7834.503378703499 711.765738977796,7834.3812463157155 707.7311243644581,7835.840992361853 707.5841052710966,7835.962375410083 707.4491011111022,7838.229649105262 706.629609839998,7838.4640304670975 704.8419333955462,7836.345158040473 704.6772924000179,7836.330415498647 697.0802136444327,7838.153766951793 696.7748158844552,7838.49613440394 648.7934344800087,7816.003048462902 645.1525455911251,7814.340014707246 636.4544620355664,7812.676965630053 631.8028623911159,7812.884286265566 625.7342287911233,7808.7266012995315 621.6892012355456,7807.478902891155 608.1069380533372,7806.0538815366235 607.304777413352,7806.058222708125 607.357351848892,7958.274205510803 607.3749009333333,8009.012850610576 604.3051946933338,8028.306300569697 597.2426712444649,8039.431319463816 598.5956983733413,8045.266302096999 594.3452518666527,8056.300455427125 594.303236008891,8056.372734102049 593.2446111555691,8066.329729887839 593.1806771466872,8066.557765244528 595.9883122044339,8070.44202150785 596.0937523466782,8070.629542997231 594.3979719377603,8080.6773977474 594.3712478133457,8080.73972709581 729.3907723644297,8080.841740912198 853.4129192088803,8212.194836304152 1028.8750006311238,8356.871048102963 1035.3584042933435,8357.445068299749 1045.0556205777757,8361.791804794768 1135.3813407555645,8378.86265313741 1245.661607848895,8380.959308297686 1288.9833068355583,8309.929338531372 1294.9304803822379,8306.540688251313 1316.896545591102,8303.501622758959 1335.3766053244544,8286.090308555162 1337.5676194400075,8285.778779121909 1361.0437797244595,8291.932976860997 1363.435698088877,8293.835080541183 1374.7152446844339,8292.254499417082 1380.6999193866577,8291.377272321923 1402.3083764888943,8295.361452677425 1404.818114017784,8296.30517404338 1411.3572232800143,8291.26738536347 1418.6877161511293,8289.963816593845 1421.5439934844399,8293.45219786236 1423.6066298577716,8298.713874247209 1423.0225584622312,8301.542660102023 1423.9192365777926,8304.470310110519 1435.6295731466744,8308.478250902459 1439.270462035558,8310.13684912699 1445.1366622133428,8314.491533533735 1447.7661121688798,8317.18684951323 1452.620873413347,8327.553494932938 1454.0364510133295,8331.285319023104 1452.0135731466653,8343.931180170308 1453.9746287200032,8346.543762327077 1479.522673235544,8358.23512681372 1487.6134565244502,8361.966349777977 1501.1655731466672,8388.082869233658 1502.1770120800138,8389.740774678728 1504.199889946678,8428.287135541257 1504.8064620355508,8441.133953944714 1515.1180419111115,8449.272836969023 1517.1229337866898,8460.253775578494 1527.8656677244653,8473.661916867124 1533.5294344800132,8479.462686341423 1530.4951176800023,8490.234442684996 1529.8885455911295,8494.791600927383 1533.5294344800132,8511.362316642415 1534.3384399910938,8515.505146944728 1532.1651934133333,8523.970755914888 1531.6342061777905,8524.239771563218 1530.5169630133387,8524.028838870516 1529.218913306664,8523.908124723726 1524.3439087199877,8518.64255871898 1523.535267297797,8518.267506580254 1521.2345167911044,8521.87297281657 1520.746273591103,8521.869095606256 1518.3194755111253,8520.884729053396 1518.271634231125,8520.806587940526 1518.6837100355551,8517.97648649857 1518.1427467644462,8517.634688335449 1510.4612722044476,8517.216238280722 1509.918561306673,8516.969805671768 1506.305415991119,8517.943678673088 1505.4564335199902,8518.588351426872 1500.6885438844402,8524.703241107178 1499.6255499644394,8524.866827100901 1498.2423034577878,8524.603404373272 1497.8153000089005,8524.069549121741 1496.203624133348,8518.455107303314 1495.4578244533404,8517.975666303006 1490.3489291644437,8516.599522379234 1489.763255777776,8516.333702382683 1485.7273304444461,8518.165429640001 1484.8772557066768,8518.382110064202 1480.8854579466642,8517.163372733812 1480.1413330755677,8517.272757424966 1474.0400042933252,8521.786779430819 1472.8704779644395,8521.897429064375 1471.2037518489014,8515.908837014496 1470.2996463200034,8515.85813346858 1464.2061090400166,8522.834220333832 1463.5704098400092,8523.585350086003 1461.1787827466687,8523.96754979487 1460.2743859466646,8523.80985336165 1460.00263000001,8521.937692392465 1459.627764079989,8521.08269136928 1457.020669182246,8520.555760720548 1455.9046639200023,8520.773333220735 1454.3131585689043,8521.955736325668 1454.0495582133371,8522.652290514372 1454.6467368088852,8526.556959097004 1454.4895960444483,8527.306657810106 1450.2426447911203,8529.460748665944 1449.7659796177832,8530.050955398961 1447.9536179466595,8528.611894629452 1447.5279252177934,8528.506244289012 1444.02342402668,8530.015912856274 1443.3860500177907,8530.232058141228 1442.2763799022432,8532.376125817369 1441.6397340711046,8532.806323282864 1436.272190035561,8533.62645445999 1435.63568983999,8534.110255673579 1435.058827404464,8536.57367910802 1434.9545523466732,8537.216127886924 1432.2908052177881,8535.566050918664 1431.7050590133367,8535.300406005575 1428.5184802399963,8536.381175184339 1427.8814703199969,8536.704375892536 1427.255965608878,8540.50565304864 1426.9922196177722,8541.148610713099 1422.4915712266593,8546.782003925684 1422.3874418044652,8547.424493530802 1417.6400139644466,8542.73176561221 1417.3724086311195,8542.197587403738 1419.4873281689142,8538.658778135294 1419.1667843111281,8538.178268686264 1410.5059834577914,8539.866420999395 1409.442843902223,8539.92352998969 1406.1411402222366,8538.329616243653 1405.2906285777644,8538.386054686875 1398.766592595559,8542.95684319255 1398.3955860177884,8543.279212880407 1396.1802507644534,8548.423635949344 1395.7041681333285,8549.120840782147 1393.419073448902,8549.39638212321 1392.6249227644657,8550.362264760835 1392.3128257688732,8552.343069593822 1392.5278566666602,8553.037874794049 1396.242946871098,8556.214862348475 1396.3591640444429,8556.349124267428 1395.8327643289012,8560.14643942887 1395.8327643289012,8560.257812704956 1389.2618336977685,8565.693183594492 1389.1495486844287,8565.856884210785 1388.713734284458,8570.009287763729 1388.7184674399978,8570.170823003056 1391.3737677066893,8572.048781475001 1391.4558333422247,8572.201146304134 1389.256008275559,8573.46806568592 1389.1313442399914,8573.395610880696 1445.7203695199933,8647.299354573253 1491.1692214311115,8707.556592793851 1633.9390333422125,8901.951029032898 1636.5535556533214,8904.335913566385 1639.1754325600123,8904.684561132126 1640.6422738755718,8901.661465358404 1640.5398920799853,8901.361482610177 1638.987125786669,8901.854433435328 1638.5687876533266,8901.816182161267 1632.6270754399957,8896.870544032347 1632.3314352622328,8896.58700116205 1633.5478562400167,8892.91199653819 1634.0335508177886,8891.876782383122 1628.1776907644307,8887.217955325825 1627.4914560266843,8887.01544696281 1627.5017961511112,8885.025852894258 1626.5540727733533,8884.062046674291 1629.5651607022228,8882.443511696729 1630.9050078133369,8881.600189321187 1629.9664594755814,8880.341934768927 1629.8644417688847,8879.995105859787 1633.4078276533182,8880.205957068094 1633.7955095022116,8879.831887671106 1632.4624344444383,8878.111204166904 1632.3196387822172,8877.295029852721 1635.6726061777808,8875.499524048493 1635.9718872444719,8874.799001530504 1633.7002638488848,8872.010507773484 1633.9519220888978,8870.765888552756 1635.7406179822356,8870.527860391732 1636.3527242222117,8870.39864923973 1637.202871777794,8867.453714079595 1637.6789544088897,8866.61040343262 1640.7394856088868,8865.331735302672 1640.9162871733497,8864.801255723498 1643.1539046666658,8864.787634579385 1643.6027534488894,8864.99172834718 1641.2495741422244,8867.739381969594 1640.8958981955439,8868.426308127215 1643.3783290577776,8871.139974769314 1644.745410017793,8871.568468613441 1649.4857745333356,8866.154731373761 1650.376772862226,8865.644648377092 1659.3338692533216,8866.909619088321 1659.5923723644592,8866.895998086788 1660.8301289511219,8863.257371326188 1660.9866143555628,8862.917360868356 1658.1028847199996,8859.326300297827 1657.654035937776,8858.510198751312 1657.7900595466854,8854.409096947922 1657.7152028711062,8853.314061233155 1664.1151573600146,8848.872893733387 1665.5093993511182,8848.526085062367 1666.0738827644454,8843.996451316161 1666.3527020355468,8843.663182365613 1674.7249988533513,8845.96203458678 1675.3846551022216,8846.057242619856 1675.5139066577904,8849.695882682012 1676.0105239022305,8849.967804755397 1679.941446000019,8846.941357595446 1679.921057022213,8846.512885756492 1676.8537537688753,8834.025909814103 1676.8741427466812,8833.25057537562 1672.6710277955644,8828.251736591577 1671.9976818044452,8827.660038786016 1673.7319828177642,8823.212050235838 1673.2491281333278,8822.31480229718 1670.263380791097,8818.117963302044 1669.2746610044342,8817.272807627967 1663.448583422236,8819.029375424005 1662.877327955568,8819.321812612434 1660.163627831098,8816.17965392868 1659.707934177779,8815.832788751904 1660.8641348533347,8813.955656265352 1660.8029679200044,8812.90827227175 1658.8782484177864,8807.358564484479 1658.9394153511166,8806.712453542998 1658.4157098933429,8805.352173976127 1657.6024809511218,8804.4529846445 1655.6408428355426,8804.801284179535 1655.3416345866644,8804.712906394263 1659.1298338400156,8798.979509582285 1658.8782484177864,8796.116174594215 1654.3622354755717,8793.259723276358 1653.4272552089024,8792.552510166417 1648.2684069244497,8792.681622538155 1647.8263301955667,8792.4027724728 1648.6900946755559,8790.86570222985 1648.642471848878,8790.287594564033 1645.479413217785,8784.151463798516 1645.3166654844608,8783.41837987808 1648.0167486844366,8776.365595217001 1648.0371376622425,8775.780669186563 1642.5428906933303,8772.621666640138 1641.9636980888972,8772.271225906086 1637.1348599733392,8771.897178518579 1635.9097008622266,8771.014668154072 1638.8963948355595,8767.748504333525 1639.113974355576,8767.1091908093 1635.7202290044588,8757.614715251118 1635.699840026653,8756.111634353445 1633.475839457773,8753.064775674073 1632.5576800977942,8752.119399937546 1626.7530837600134,8749.083204586474 1626.1318752977895,8748.398549833124 1626.1744008800088,8745.025661671105 1626.1692308177953,8744.438036854153 1630.7359249333458,8734.495370004697 1630.7617024266874,8733.804631998173 1625.4733841333436,8727.96484287078 1625.3908815911054,8727.27415661743 1630.168965715544,8722.284727970044 1630.3338979822365,8721.702324323262 1626.6073025688893,8719.2488212393 1625.7208189422454,8718.326226503523 1626.076460968885,8715.548062676586 1626.2310531111216,8714.465598401737 1619.6180338044433,8707.167078328384 1619.2933393333296,8706.713500468155 1619.3242868889138,8702.50245454668 1619.1644518666799,8702.10041527963 1624.9424697155555,8696.909960586294 1627.0094023377824,8695.719375803827 1626.6279828177721,8688.8950158437 1626.7001452355544,8688.286811986145 1618.7830323466696,8681.158380113608 1617.9223262133382,8680.096587981396 1615.8760010222395,8673.26706879383 1615.7162388177894,8672.62283120647 1622.5973003644685,8671.658966785246 1623.4529092533412,8670.860051705407 1625.9381071911266,8662.567773123003 1625.9185920266682,8662.194189174807 1619.0183065866659,8660.360979970159 1618.652470071138,8660.18521332369 1613.3192232089132,8651.96543266868 1613.3283982488865,8651.779226820865 1619.7463387288808,8651.645775462595 1621.113419688896,8651.319337113157 1621.7731487555502,8650.475929977234 1621.9091723644597,8649.517024053559 1620.6985039911306,8648.993345739196 1619.6694431555588,8648.763025196786 1618.9438140000057,8645.810338148141 1619.1002265866628,8645.415858304921 1631.4783749955604,8640.417058002284 1632.5937977155627,8639.947752620406 1639.2385655733306,8643.327948409504 1640.5171729333306,8643.60678476841 1645.0059520266732,8642.518560672026 1645.9581172888938,8642.491362443987 1654.0106712444467,8643.980851095817 1655.8606068888985,8643.735994213748 1658.200242088882,8642.402986805835 1658.8055034577628,8641.879289544486 1662.4849857688896,8634.98286819728 1662.9202176266772,8634.731218906098 1677.6243843111224,8643.831224650254 1679.0253983555667,8643.484356132532 1684.4731875822254,8628.875456741029 1685.444649555553,8628.637660519664 1707.0734956355664,8633.81307257781 1708.5017435288828,8633.792654373516 1710.5624866400103,8629.127039016945 1710.807300008899,8628.147684633026 1714.0922556000078,8627.535567031002 1714.6975897866723,8627.107143190813 1714.826841342241,8620.543996299217 1715.0852716355657,8619.653059510274 1719.4856499466769,8613.103525114544 1720.5193711200045,8612.729474458778 1724.0636308177855,8618.685730834455 1724.4912896266687,8619.149721286383 1735.2711606311277,8622.081048370826 1735.6996204355746,8622.237473019013 1735.9852117599876,8628.025991572991 1736.7130254488802,8628.589818061118 1738.8757862666753,8627.848482026158 1740.018370017795,8628.093284192983 1744.2894967733373,8624.121415152862 1744.704412471132,8623.679346178797 1759.6873984266786,8622.720383961503 1760.4064011644587,8622.119576987978 1761.9605509955509,8624.613338678006 1762.829048631109,8624.861647433274 1775.8239636177968,8606.992525576898 1776.8155961155499,8606.554144432761 1779.9201820711096,8609.233232639286 1781.285588222243,8609.980079611203 1788.2852699288997,8607.787079583046 1788.582439280006,8607.777987059417 1798.7853022133422,8612.089808173936 1798.929845502229,8612.142498927853 1800.6929823555474,8610.530021289982 1800.8360692889037,8610.482397996551 1809.3321563288991,8610.540976881668 1809.4962147822152,8610.513625165222 1823.4464261955654,8603.868237305134 1824.438568417776,8603.742131874773 1831.8825113866842,8605.54285307516 1832.875236151107,8606.041009187764 1835.2355516000025,8609.15870429502 1835.4845155822186,8609.969794740602 1839.4556330933483,8611.899763611385 1840.076550284437,8612.648016430896 1839.9033896089022,8623.69462335988 1840.4000796711262,8624.193329515816 1845.2344519377875,8622.190672327437 1846.2263757066758,8622.00227707388 1855.3860511555467,8605.702793820376 1856.0672614666473,8604.82826067524 1855.4443781955706,8602.332383899782 1855.1948316711132,8600.959593387677 1861.763068044449,8592.172060015575 1861.9633169333465,8591.846640683776 1867.168477324456,8570.946518278513 1867.6014518311204,8569.63731639929 1873.0031474044445,8568.41062584587 1873.6010541777723,8567.874579927178 1875.4359893600122,8562.00891427893 1875.9926812711128,8561.380114822146 1877.4062927911073,8560.488311946909 1878.1014112977791,8560.611537982208 1878.033836399998,8562.369718267459 1878.1987686666616,8562.452166357842 1881.3119471200116,8560.813112647484 1881.6933666399927,8560.833762111397 1881.1451215911147,8565.103308603437 1881.3942312088984,8566.101838519236 1884.90965506668,8570.719758552637 1885.4457395466816,8571.059898042593 1895.6822442933408,8570.647600898832 1896.424475902233,8570.317673104546 1903.2075247200046,8560.400793832181 1903.5579966844307,8559.926600024373 1906.475368133346,8552.256964270222 1906.7434103733467,8551.865203204572 1918.268498515543,8542.38121365822 1919.2580921155532,8541.659605466724 1922.8661401866775,8541.577148569333 1923.711481768907,8541.25760912308 1928.0382413066764,8537.35599460196 1928.1876633866705,8537.248037785983 1932.5603709422357,8536.448424833878 1932.6583836711143,8536.433513605392 1940.6231922044317,8538.611286408668 1940.828465520004,8538.633876666245 1952.090026124446,8538.001944905503 1952.1594214666766,8537.94073479453 1947.5821687733478,8535.087845079623 1947.4696653066567,8534.91591734194 1950.3575455555474,8532.675772991519 1950.3971584266765,8532.597040163448 1948.9337395466646,8530.072204597316 1948.7689529155687,8529.94709524868 1946.2814248089053,8530.630796724894 1946.1534111555447,8530.876764638924 1946.6482079555644,8534.134337594944 1946.3183434222083,8534.299257669707 1942.7309027822412,8531.783913085856 1942.349483262231,8531.381896313796 1943.8583404355522,8527.389419002291 1947.8751146933428,8528.060454393119 1952.8751474044475,8529.357335553177 1954.1688280444432,8529.979975603776 1962.5698150666794,8536.806890422413 1964.490675226676,8538.13726317013 1974.595088524431,8542.069205485801 1976.3510164177642,8542.986590094086 1985.0038801333358,8551.47828712513 1986.4842655555476,8553.194354721803 1988.0258179111188,8558.123668996886 1989.7758475644296,8560.967424472961 2012.5023488266816,8579.51422003848 2013.7310031911256,8580.640734635053 2021.5648853600214,8591.131476506336 2023.1277005066877,8592.762449500202 2030.726017164452,8597.705298320587 2031.93209801778,8599.037715210266 2035.7953724000035,8607.994716933834 2036.6000088444343,8609.611910718399 2043.6547407911057,8617.52209816673 2044.98089816,8618.72291867376 2076.2283901422124,8630.619907896726 2078.4636774666797,8632.346011743408 2082.1607816800024,8637.399638813986 2083.975546337788,8641.297393782392 2090.002382533341,8657.248642821498 2091.0648667289133,8658.733027609727 2110.877346160014,8673.90489694909 2111.775844720025,8674.943924357118 2112.0332555644636,8685.456076666007 2112.4922988355756,8685.962821275658 2123.628904133344,8697.048595978129 2124.875908577793,8698.005333971458 2138.7227915644544,8701.662096941356 2139.1132404888995,8701.822034081815 2159.5258112266674,8713.865815897727 2159.9689074044363,8714.169878740351 2161.314871208895,8715.865828729286 2161.760224737787,8717.225230022705 2161.15081275555,8723.529899589506 2161.0570962755373,8724.529859771203 2162.697680808902,8728.358040624611 2163.4455193866816,8729.158064184747 2189.752397964454,8745.248645842767 2191.191350071116,8746.478256805414 2199.035135457765,8755.634560373648 2200.189297235549,8757.325538947982 2206.6736475289,8769.559869101991 2208.104735315552,8771.256835761458 2216.6234686844473,8778.270111422411 2219.459429857794,8780.426371762202 2227.6156763288964,8784.527945464353 2228.9828301066664,8785.379494334535 2234.5219328266758,8793.00447756159 2237.597682942236,8795.009502799112 2241.412533502218,8806.145113107217 2242.5531511733498,8807.192011310435 2255.976671599994,8810.099561607138 2256.6835865866815,8810.743874754342 2266.271940293351,8822.60998927187 2266.277474444454,8823.142515897584 2264.847770195578,8826.279279706629 2264.377367351095,8826.813062178415 2257.6212611111187,8830.650372876924 2257.268022071112,8831.129501133073 2256.4549387644292,8836.743465014944 2256.636837573351,8837.24796368101 2267.2953213422225,8848.719327314735 2270.503891084467,8855.837673769121 2272.77376685333,8862.538197916227 2273.3265994222384,8864.234972627157 2271.933595333343,8867.993862742536 2271.896895173333,8869.016248475302 2273.8734609333405,8876.94588843661 2274.8175434222285,8878.41814320576 2279.028012968898,8881.05352758048 2279.812624524442,8881.263633418617 2286.492344915554,8881.435483904286 2286.8829394755667,8882.021441605866 2291.4975476889012,8900.879098106168 2291.0367567911235,8904.717528202767 2295.081784346672,8910.91866516813 2296.9022287910993,8914.019534479441 2304.6720313155747,8918.122997299106 2306.800786231128,8918.23878363397 2313.2735584977854,8915.99797888501 2313.9688954577796,8915.857337106667 2323.1173569688763,8918.349584248506 2324.039230035567,8918.271450846303 2341.4766848266663,8914.865177278734 2342.934860826652,8915.052849374733 2359.682367173351,8921.122556388982 2363.2970416622193,8922.794878739056 2374.9063799733485,8922.810505073088 2376.046997644451,8923.12295708988 2383.0274554577845,8927.554604396115 2384.2657217689048,8928.591719550408 2391.109500613333,8936.029208228843 2392.469955155546,8936.556896757982 2395.6038138577787,8937.275658114806 2397.187600524434,8937.388606096654 2412.078253537773,8934.560497696213 2413.796971546668,8934.497995973688 2420.5832971644486,8936.33062777522 2422.390780044465,8937.513607742461 2431.43897147556,8950.623546707262 2434.378916435562,8954.388123903358 2448.0470317777726,8967.466770892082 2449.078277146684,8968.779239032556 2447.359486320005,8981.263630624388 2447.297008666683,8983.21672353852 2448.7188485955776,8988.888583898784 2449.7657497866676,8990.326106596673 2457.406373573329,8995.638641511883 2459.218589608885,8996.66239267539 2479.5157441689007,8997.451085944042 2480.546989537783,8998.26357890173 2481.796979511135,9006.357388592798 2481.375146124461,9007.857342079507 2471.6251369511083,9019.622960185596 2470.9220084888875,9020.841752330329 2470.103245395563,9030.84499006901 2470.3751469777853,9032.107371439422 2475.3907626933433,9038.341743725738 2476.8907360977973,9039.373015848229 2487.7786686844556,9043.784663231396 2492.5626510488873,9045.888644024926 2500.387867902238,9052.258981629602 2513.323946124445,9060.111590365246 2531.0601722577776,9045.177924518364 2565.4046771466747,9014.642251721372 2560.176506337775,8989.134804546069 2556.876987191099,8973.034175535628 2552.323181822234,8970.666315636707 2527.8212375022486,8957.92966000997 2523.4973178577857,8929.290269945683 2520.8634988355698,8891.481896275996 2560.4853265333295,8852.990261208724 2563.589329946677,8849.664693129678 2558.652284613352,8808.189466938718 2529.508425413318,8743.30016981664 2540.6517299466723,8673.988043184356 2555.0143084355586,8639.334032427221 2543.0547166133256,8532.767478802147 2544.108826764459,8494.899432237587 2545.3797882578,8442.643708323718 2576.5088785333573,8415.387534458634 2633.0647717244647,8365.737795798159 2754.088646568889,8276.380546806606 2755.3687831022326,8275.475697434646 2773.9897452355435,8247.216384322463 2778.404687102222,8241.065060625297 2784.9637484355553,8223.517003392502 2785.5488392800107,8222.497119221844 2801.841817057786,8205.784777899687 2803.791877146672,8203.393338168324 2812.480494391122,8185.664216008932 2813.250906480018,8184.363800269661 2825.1732156,8170.789266172789 2826.1564012355593,8169.473732435879 2834.5806899466625,8163.06064373938 2836.924694213354,8161.1153838344835 2847.4337559022315,8133.999159532068 2847.8073111022313,8133.015920632555 2865.5384399911054,8102.268406218362 2873.063429146663,8095.483840919893 2901.085166391109,7965.666041434299 2901.190023991112,7965.2278178230845 2904.018266480016,7903.008849407204 2905.1258248800077,7867.620591800347 2900.7844289688874,7834.523659257444 2900.223003902218,7829.071775331024 2900.8543340355754,7729.714578229534 2900.839770480008,7728.658772897827 2963.470341146669,7728.787566505802 2968.609091724451,7728.7478801132165 3125.3093814311214,7586.824711964124 3136.8647617688766,7576.3191140611525 3191.9827223022367,7561.214951184455 3191.9878195466663,7561.213452170901 3409.1865025688967,7511.403921457131 3434.021733857786,7501.672295139455 3459.9769025688947,7528.394736037029 3489.173190568901,7536.547703980359 3529.115926213337,7535.645918579328 3581.8068702133387,7523.993505274928 3641.262512951136,7529.97775777318 3656.193871102216,7530.890292066666 3672.2341711911213,7534.62119089756 3675.6988410577833,7535.335577395868 3705.713600880008,7530.203624133275 3706.9354831911114,7529.962240226341 3729.026212435543,7521.431130014615 3730.572862035573,7520.670206809133 3768.475971724467,7480.899686312077 3768.961666302239,7480.44377696282 3774.612325857779,7471.55180712093 3781.262773502247,7461.514240341705 3854.845137946664,7434.108028476599 3911.715094213352,7423.198192833901 3931.1821989244563,7430.867777462634 3969.9054552444504,7451.658340236892 3985.504261146685,7460.034615932738 4004.5581249689058,7466.813862554707 4038.345937946673,7478.83233784153 4094.1192584800083,7502.201625541413 4131.586917857763,7516.4794474542505 4309.3679542311365,7575.7983256570515 4320.3648222133415,7579.492974754256 4364.465307333339,7602.315362380243 4367.340298835574,7603.7997833508925 4419.085121448887,7584.025763376492 4423.391055102205,7582.340782271618 4456.030895813346,7579.996590376009 4467.5004239910995,7585.964176201618 4565.693012791111,7637.047251891687 4734.1841027111,7805.359517296129 4761.401713235573,7832.543488167656 4835.34248678224,7953.085091997891 4851.277783635545,7979.063512314657 4882.775987226669,8016.151296301301 4940.092170835567,8083.638840730353 5014.56946576888,8086.408471296694 5016.7430764355595,8086.409965959341 5031.060799173349,8083.045300378719 5070.787702924463,8070.979921421102 5134.491971724441,8000.114619603693 5143.652084080015,7989.795888648419 5173.923162480009,7993.202481290726 5208.438060968889,8006.049164088989 5263.47643167113,8012.57780918308 5265.423069324468,8012.7831830250725 5296.720150213347,8002.285422733672 5302.201872524434,8000.428196592889 5411.9317100355765,7932.382738904162 5426.604492257793,7923.475849190501 5460.930792702224,7905.059318368971 5463.5420382133525,7903.681369863443 5490.141644257797,7882.273951349089 5493.674762835559,7879.332899570691 5543.866600702233,7848.412685637792 5546.1326899466585,7846.663146042054 5575.951569946665,7830.445051904644 5576.326581502224,7830.309595660008 5595.809706124455,7830.980140497508 5597.727726391116,7830.982385621137 5632.630015457784,7839.2554769090275 5633.235131191126,7839.345277723849 5655.80864230224,7839.771830985723 5656.089718924464,7839.7905394391055 5679.27198665779,7844.319424936264 5680.127595546663,7844.457863967276 5699.465084613337,7844.829029711815 5700.1939905689,7844.8597107171445 5743.181965679985,7853.45841883403 5745.217222568906,7853.79739008897 5755.599290053338,7852.354475603359 5760.843917680009,7851.633350781667 5793.7582814133275,7870.383758957811 5795.733099546669,7871.84949992755 5820.318565857779,7881.658960484732 5820.736539902231,7881.8160751370815 5849.348829324452,7912.6976918760265 5849.728938124441,7913.058245712797 5870.832986480011,7921.574439711178 5871.376207102214,7921.795847971276 5891.395270568879,7926.268087702738 5892.100874835545,7926.32418635107 5906.671712168907,7939.367028241053 5907.423191635557,7940.035675050625 5916.330990391121,7953.3744435803455 5916.731488168887,7953.926371667818 5941.184426124448,7972.710379574601 5941.401423102223,7972.894336370686 5941.769152880013,7976.470988136287 5941.961391813333,7976.930870350676 5964.547281946674,7994.700883513789 5965.037345591125,7995.12183962456 5973.447070746661,8005.453280888563 5973.722321946676,8005.772530973736 6000.95034541333,8026.811162182472 6001.460069857778,8027.179714920923 6013.322814035557,8043.123961941841 6013.541267368892,8043.527614813276 6048.771964613326,8032.412635782639 6049.504511457759,8031.994755128799 6075.93518025778,8030.772504848566 6076.097563902244,8030.790446195657 6098.581509146672,8042.416072275686 6101.491307546654,8044.094969857651 6109.906858124457,8045.058497685277 6110.32264763557,8045.14072248045 6123.858016168881,8057.579417548557 6124.275262035553,8057.942676756727 6144.988278924466,8068.8393739451785 6145.096777413339,8068.9395258104705 6165.5783065866635,8094.30161682389 6168.876150924458,8098.01565834885 6180.7585559022045,8128.480701406697 6183.828553413339,8130.181234765238 6190.813962835564,8133.801167313657 6222.263232880017,8146.913775156769 6342.817433057768,8181.1915248063815 6343.212105413353,8181.280411994412 6349.292389857765,8185.06666825484 6350.528835724435,8185.615665325044 6382.226414391109,8197.391452026706 6383.184696346674,8197.773857666929 6420.907946124447,8210.072414157847 6422.542705235544,8210.59295835143 6445.229083902239,8205.77357509877 6445.912842835569,8205.603292442429 6473.28358914666,8209.948439287844 6476.159163191107,8210.374882623822 6568.104714835565,8210.08511037485 6571.067670213328,8210.096312918547 6572.400235546673,8212.150101308733 6572.842239457801,8212.887219157165 6582.965366924451,8215.711690566248 6583.913454391099,8215.887191751572 6635.334456346674,8218.288180872645 6635.335184524454,8218.288180872645 6656.6627834577885,8221.553178149486 6679.713251013345,8227.428835578168 6715.493722480001,8219.511814697216 6719.9101207022395,8218.534625920925 6832.976468791116,8227.324288117255 6836.560559813348,8227.576695459422 6910.32686196443,8230.012035535336 6918.278126391124,8229.934223427372 6994.78630914665,8145.055010178759 7018.609373324442,8119.4689602952785 7027.467801626663,8104.966395836869 7051.02275074667,8066.402826797763 7073.593057875558,8054.088056547182 7086.09252070223,8047.268089457015 7107.926203191113,8015.440985469228 7146.36816443556,7977.013873359225 7174.992104702229,7949.933455998071 7194.54003714666,7941.366230049076 7219.410949146673,7930.518072478611 7305.188980648913,7888.805893776087 7315.371673057765,7883.834612254002 7362.963916257788,7882.524585715109 7411.80862523555,7880.630978407156 7505.593553946681,7871.3167766562765 7644.561913768885,7816.539676698092 7699.749997822226,7813.954341369208 7756.739156791133,7811.28409410247 7815.629806391116,7811.026625001781 7852.85061350224,7810.639672203099 8137.865949324456,7802.1804670523925 8172.60585474666,7801.63399080604 8207.270175315563,7801.622089716089 8229.384788791132,7801.614529903825 8325.052057057772,7827.285377603803 8377.168104702236,7856.1595456807045 8388.986794124452,7862.658307828118 8520.460675440008,7891.47829045829 8537.971239279992,7894.932425260478 8564.774225377776,7909.6793345787955 8565.502912880016,7910.080289009922 8629.835963191123,7957.573692001104 8651.138804080001,7980.888053085153 8700.286653466675,8000.330848714999 8700.504160168908,8000.40501853139 8705.613346728911,8001.59180629257 8729.354563724432,8007.106347351357 8728.051853680001,8005.083189347024 8728.098457057793,8004.805807117642 8730.47741385777,8003.109355216635 8730.54367803556,8003.0532800739675 8732.65248088001,8004.704125117474 8732.924091191126,8004.734031593944 8735.282659013326,8003.430852371304 8735.471985235556,8003.489918066516 8738.72766808002,8007.530265666173 8738.834710213334,8007.702225197972 8737.819630391117,8010.926062849649 8737.823999457767,8011.072599583007 8739.53885812447,8013.061300858717 8739.692503635546,8013.124101601723 8742.58555394665,8012.869160357215 8742.795269146685,8012.718139277546 8743.14843536888,8008.880517492878 8743.187756968902,8008.78481890777 8746.540287457792,8007.092889611078 8746.715050124454,8007.059992908493 8748.53767910222,8007.621479003057 8748.627244968877,8007.809139086741 8747.814598568897,8010.376549060595 8747.900523546683,8010.4871995881185 8750.570023279994,8011.518190157505 8750.730222391117,8011.4479125210855 8751.131448346663,8004.552349674421 8751.298929235556,8004.47160209703 8754.99079056891,8006.955321542926 8755.112396257762,8006.959059807014 8756.691813857768,8004.414032043358 8756.824342213316,8004.271228325953 8758.754013324455,8004.546368373609 8758.818821146684,8004.451415197145 8751.46349741333,7998.051308556947 8751.298929235556,7997.732045067278 8752.69921510222,7992.522812781004 8752.899463991118,7992.2155030914655 8755.18958310222,7992.058483343637 8755.258031813319,7992.208773676444 8753.13102452446,7995.487465019985 8753.095343813337,7995.685605267812 8754.87501030224,7998.614317528431 8754.99661599112,7998.617308275345 8759.067129768904,7993.382679010821 8759.196017235554,7993.2877200683215 8765.85884390225,7993.203228999475 8766.063461857768,7993.058921154887 8768.580772435562,7988.847026200332 8768.7198543911,7988.850764832685 8776.703595546664,7999.380694831598 8776.882727280004,7999.527988444846 8787.728935280007,8000.606144193465 8787.940106835544,8000.676425971462 8792.703845857766,8006.796819075993 8792.8611322578,8006.8551360372585 8796.627995902214,7998.909653550443 8796.945481413342,7998.806472918186 8810.300990035561,7998.252436793853 8810.590076613335,7998.281596631503 8812.48115430223,8001.2080245073375 8812.66319874666,8001.380737624953 8815.07929261335,8000.848391910717 8815.304299546675,8000.951571397083 8820.511498835556,8006.085051597787 8820.629463635567,8006.363927208826 8819.406853146684,8017.384782941859 8819.406853146684,8017.61953247901 8821.987515191118,8020.2077384352815 8822.023195902213,8020.354267783121 8820.164886213322,8024.256690191651 8820.204207813345,8024.443585743014 8822.433888168896,8025.441604779371 8822.645059724462,8025.507391612155 8833.883755546682,8026.184695593656 8833.982787724446,8026.101714776065 8834.239834479995,8024.6932779039125 8833.613601591125,8024.238748208758 8825.57888799112,8022.413889908094 8825.471845857777,8022.35109233237 8824.903139013339,8019.491537190937 8824.917702568877,8019.336783529121 8828.99841083555,8017.234513176612 8829.11346292444,8017.2046087310955 8830.60113012445,8018.28938938598 8830.718366746682,8018.257242290965 8831.342415102241,8014.979704364574 8831.400669324452,8014.905689946863 8838.126119280008,8011.407540249733 8838.412293146663,8011.368663239315 8847.070326924448,8015.127733110792 8847.250915013348,8015.206233155179 8850.515335991113,8013.723698093156 8850.629659902224,8013.758088855153 8857.143210124435,8022.864686162684 8857.300496524469,8022.962620194907 8865.596625946673,8022.899075218091 8865.849303635572,8023.070272811507 8863.981527635573,8030.007005746789 8863.962595013327,8030.222302690316 8865.768475902245,8032.502341702966 8866.05392159112,8032.556165234222 8870.352355013347,8031.61200851146 8870.45721261335,8031.4161495836815 8868.131412791125,8024.154271349129 8868.127043724446,8023.885141272687 8870.666927813327,8021.37548438942 8870.871545768903,8021.2184895253085 8875.641110213335,8020.597237108152 8875.927284080019,8020.7048911066595 8881.168707724435,8028.302562738849 8881.426482657793,8028.268174691468 8882.301752346692,8023.69450723075 8882.448844257779,8023.521067460526 8884.2401615911,8021.819554852198 8884.457886746684,8021.772456520521 8884.334096524435,8024.738132747276 8884.410555191113,8024.946707625531 8886.021284435563,8023.485930935458 8886.080995013333,8023.39846338654 8885.119800346649,8020.103822143494 8885.322961946666,8019.822724542486 8887.118648346666,8021.077194033227 8887.243166746666,8021.090650751423 8891.663934035554,8018.101739984668 8891.783355191095,8018.08080697187 8893.79676674668,8018.995876453155 8893.832447457775,8019.124464283981 8890.19374310223,8026.322996873343 8890.14058612445,8026.54876414482 8892.045499191103,8030.140818807216 8892.213708257776,8030.217817339893 8897.012399813342,8026.599599121451 8897.262892968902,8026.592870963585 8902.277125146655,8030.243234324189 8902.509413857777,8030.345649784293 8907.158828968888,8030.368076519786 8907.477042657796,8030.301543863192 8918.346552346666,8024.172213340244 8918.524955902227,8024.160999595995 8928.771145413346,8030.776242629341 8929.039114835563,8030.856978675882 8934.610403013336,8029.294580388254 8934.825215457771,8029.275891333404 8940.618597857778,8032.108382877945 8940.993609413337,8032.100907370266 8949.527852968902,8029.9397254003925 8950.110395191128,8030.024199609157 8964.427826657782,8035.779568087026 8964.553073235562,8035.877495260756 8968.033763013322,8044.999445309797 8968.309742391117,8044.908997963903 8974.285169235554,8032.65708431301 8974.349977057784,8032.363297507858 8971.397944346689,8026.593618536695 8971.27269776888,8026.29309390275 8971.293814924436,8021.9174894398675 8971.39066256889,8021.752271517536 8974.046326924443,8022.475192282778 8974.196331546678,8022.380248352325 8974.357258835553,8019.642552716272 8974.49634079112,8019.609658255948 8982.777178480006,8022.834782631027 8982.980340080023,8022.926735975394 8984.017993413327,8021.877119463468 8984.103918391113,8021.675269448831 8978.403742746661,8017.646446419552 8978.332381324471,8017.434125226086 8983.474772791124,8013.410442813161 8983.596378480004,8013.1569972204525 8978.641128702213,8009.205742781218 8978.651323191101,8009.077148023258 8981.367426302233,8003.062999766589 8981.485391102215,8002.883559204631 8984.61291465778,8000.873812948972 8984.634031813337,8000.767642707091 8983.86944514668,7998.99563736641 8983.68740070222,7998.9186257765905 8983.158015457775,8000.958300492006 8983.008010835569,8001.024843750805 8979.745046213335,7999.953419588994 8979.638004080021,7999.872669992335 8978.959342391121,7993.870931696227 8978.976818657778,7993.650358285384 8984.735248524441,7987.386710585175 8984.838649768884,7987.225200310866 8988.335359457771,7978.538579601089 8988.496286746675,7978.241715279139 8991.727211546684,7977.793800695297 8992.012657235558,7977.882037711512 8996.240457413347,7981.357645069431 8996.423230035558,7981.298572258478 8993.033562480014,7977.802773953132 8993.029921591115,7977.608353268697 8997.164515013348,7971.839199558082 8997.418649057778,7971.567749488233 9000.109994124454,7971.358366239678 9000.513404613339,7971.519890481075 9005.188305946685,7975.206493047073 9005.320106124454,7975.206493047073 9008.19713652446,7970.2867689417835 9008.304178657774,7970.25760465701 9009.304694924453,7974.552930370155 9009.437223280001,7974.70024389997 9012.331729946665,7973.074554028535 9012.406732257783,7973.136620649784 9011.856958035562,7978.934896461062 9011.838753591124,7979.107630522725 9014.90583839111,7980.535110548059 9015.167254213338,7980.498470288156 9018.247446213332,7978.71654841015 9018.275845146658,7978.445108518783 9015.810235191115,7973.105213446477 9015.877955724463,7972.943690601656 9023.903203013331,7967.015853309822 9023.945437324444,7966.9784625330285 9023.615572791117,7963.006770774045 9023.640330835573,7962.8856219787485 9025.702530302231,7961.63225072738 9025.702530302231,7961.4707177703895 9023.774315546681,7957.967062787015 9023.749557502226,7957.824222922551 9023.842036080001,7948.522939018345 9023.942524613354,7948.039052904154 9030.978906479992,7940.075315109054 9031.186437146658,7939.7761446443255 9030.954148435565,7937.907814012673 9030.889340613336,7937.603404449932 9026.314927813342,7934.30497838655 9026.132883368882,7934.319937369342 9026.45109705779,7939.405172587918 9026.350608524437,7939.497167744696 9017.898649057788,7939.518109725155 9017.57679448001,7939.369272026386 9012.67033261335,7934.587702954108 9012.526881591104,7934.413430984037 9010.289919457784,7927.526937223614 9010.351086391114,7926.967449619515 9014.120862746677,7922.470543106894 9014.22135128,7922.528886914944 9014.682287813346,7927.653345281702 9014.78932994666,7927.866518435818 9018.0129729689,7928.446946534146 9018.181182035572,7928.560638419724 9019.710355368887,7933.299731935571 9019.864000879992,7933.556279732722 9022.615784702219,7934.423154317228 9022.780352879992,7934.375285595022 9026.500613146673,7928.473873566072 9026.721979191127,7928.081187290336 9027.672979368894,7922.099535890993 9027.70137830222,7921.8280119867195 9024.127481768875,7916.717602397788 9024.166803368898,7916.629335868747 9033.815887102224,7916.167057925581 9034.066380257784,7916.134144888165 9037.736396257773,7913.855650628109 9037.897323546676,7913.646949303402 9038.830119280006,7910.105722656757 9038.80900212445,7909.936663643464 9034.359107724427,7907.423949463489 9034.227307546658,7907.205515989241 9034.352554124467,7902.188206509272 9034.370030391125,7901.936851153419 9038.605112346653,7897.2867144709235 9038.758757857788,7897.176743584416 9045.974271457766,7894.75362671019 9046.120635191102,7894.511238436775 9045.748536346662,7892.325240715298 9045.541733857805,7892.112025979186 9042.34648976889,7891.152182510668 9042.275128346671,7891.019764113116 9045.677174924444,7886.788309634947 9045.720137413336,7886.667110230723 9042.607905591118,7884.944124775815 9042.561302213326,7884.840879796589 9043.287295457798,7880.535960847257 9043.40526025778,7880.315250575404 9049.117814924459,7881.182378541613 9049.218303457783,7881.292359100968 9051.151615457791,7883.849575380933 9051.180014391117,7883.963295105415 9050.318580080006,7888.121497749024 9050.41178683556,7888.20229671448 9053.27425368,7885.564341568948 9053.302652613325,7885.406482006911 9052.058924968915,7882.19015709588 9052.034166924459,7881.9552337157 9053.299011724455,7878.94010731679 9053.245854746674,7878.830125333516 9051.387545057783,7879.924704962854 9051.197490657803,7879.854376736526 9051.276862035542,7877.200588554457 9051.151615457791,7877.021024378795 9044.840498657788,7875.979548659183 9044.58709279111,7875.880787720576 9044.21135305777,7874.085124925237 9044.343881413319,7873.930996374482 9051.651873591101,7874.453985440232 9051.834646213341,7874.376921337775 9051.005251724455,7871.797125517936 9051.03729154668,7871.683398176428 9053.32813883556,7869.729820679357 9053.45338541334,7869.729820679357 9056.261967102218,7876.479338040073 9056.419253502223,7876.548919386718 9062.26652105779,7876.887099315551 9062.409243902228,7876.864653764576 9066.783407813353,7874.312576528122 9067.008414746677,7874.3312814169985 9068.860170835549,7877.719079115304 9069.031292613341,7877.847018116947 9077.304848524429,7878.5525514605615 9077.54733172444,7878.489704487052 9083.741211902241,7873.863658617083 9084.073260968878,7873.452149556928 9089.28046025776,7864.341848213393 9089.348180791108,7864.190704337241 9089.970044613328,7859.348795994178 9090.059610479984,7859.169214153393 9092.332253324457,7857.61732033539 9092.475704346674,7857.628544301719 9093.800987902221,7858.836987279014 9093.783511635564,7858.979904770305 9091.228335813335,7861.2680658096 9091.175907013334,7861.410233135997 9091.430769235572,7865.701389200949 9091.424943813334,7865.894432719862 9094.865583813349,7868.513968074876 9094.881603724447,7868.62994205935 9092.231764791104,7870.816973064582 9092.296572613333,7870.88356374234 9097.578774213333,7871.7903916641735 9097.871501680005,7871.746247505544 9101.463602657786,7868.822982462698 9101.652928880016,7868.870868422433 9107.638550213342,7872.956841051266 9107.77035039111,7873.1334164439395 9108.82912088,7880.812783521069 9108.979125502206,7880.993092116907 9110.769714657778,7882.1602305675115 9110.959040880007,7882.142274648133 9115.52981279113,7880.310013379269 9115.862590035547,7880.075087568221 9116.355566391117,7875.900240636976 9116.477172079998,7875.661568172516 9123.35408301335,7868.3351435277655 9123.468406924461,7868.195226290634 9126.996428257764,7860.507842846455 9127.045944346675,7860.342478964936 9119.923637502223,7846.745460088838 9119.984076257773,7846.664642661424 9128.980712702243,7848.328127440378 9129.216642302206,7848.3356104682825 9134.15951305777,7846.850223367008 9134.394714480011,7846.931040711621 9137.546996080004,7850.1681946953395 9137.657679102216,7850.373975759816 9138.93708745778,7855.849911098521 9139.215979546665,7856.1028267707225 9145.251845146653,7856.536074986761 9145.566417946662,7856.35274901137 9147.571819546669,7854.900351771044 9147.678861680011,7854.720017246793 9147.742941324432,7851.604167502337 9147.643180968887,7851.413353637086 9141.374298479997,7849.883842294286 9141.142009768904,7849.699761291391 9139.398023991096,7844.690590964623 9139.43370470222,7844.54392060887 9147.074474124449,7845.215909325161 9147.306762835571,7845.208426168341 9162.034886568908,7842.340109375211 9162.173968524447,7842.174728910082 9163.010644791131,7836.262090910903 9162.967682302238,7836.140857734419 9160.433623635538,7833.799245440277 9160.272696346663,7833.755092024956 9157.24566132445,7834.823751321463 9157.06725776889,7834.69129179349 9157.451007457777,7831.2076462166515 9157.511446213328,7831.022049467276 9162.291933324457,7822.473166842254 9162.495823102225,7822.238166020477 9168.11735554666,7819.341793207866 9168.399888524444,7819.121756785818 9176.451350213356,7811.042342602763 9176.640676435556,7810.858970506153 9178.318398035546,7805.628670767321 9178.315485324456,7805.4288265987925 9176.156438213344,7802.826341307613 9176.163719991113,7802.5838299799725 9180.451958924452,7794.461757535122 9180.577205502232,7794.306812589239 9185.30526381333,7793.847965180445 9185.473472880003,7793.906350396872 9191.255932613341,7798.282193668092 9191.416859902216,7798.443871780772 9187.489068968898,7803.724528568848 9187.588829324442,7803.805365202912 9191.02000301335,7805.359217903831 9191.194765680011,7805.40262978126 9195.047554302211,7803.3495359313165 9195.201199813346,7803.324087300898 9199.76468994667,7804.256702410428 9200.007901324432,7804.234996335108 9201.802131368902,7799.567380956323 9201.669603013324,7799.24103257704 9194.465012080014,7794.138394018686 9194.30772568001,7793.957998841775 9192.99991839112,7789.197297341663 9193.221284435545,7788.961504609681 9204.082055991115,7782.065740574028 9204.307062924468,7781.999865739977 9217.673494213326,7783.020174384255 9217.829906800012,7782.9779548309525 9218.382011191112,7778.900726970613 9218.416235546676,7778.795175652114 9221.057336346661,7777.87814917924 9221.138892257768,7777.866920254681 9222.85811999112,7779.662790680559 9222.792583991111,7779.822239751746 9218.009184168892,7783.899746158706 9218.070351102222,7784.035237258453 9225.092897591101,7785.0166089747145 9225.22469776887,7784.865398730988 9227.419425591106,7781.225086052356 9227.479864346686,7781.100072978581 9225.803599102226,7772.152055265738 9225.77884105777,7772.008320401386 9222.955695813354,7768.268179043407 9222.780204968883,7768.150643315741 9215.997228968896,7768.150643315741 9215.747463991116,7768.055566588089 9213.36705083555,7763.961979132604 9213.410013324443,7763.811499835247 9220.417996257784,7764.531703091365 9220.607322480013,7764.495019211514 9224.016650835554,7759.613750411409 9224.259862213345,7759.46326747047 9226.386141324452,7761.520605410253 9226.515028791131,7761.561033212238 9229.602502568894,7760.205199554264 9229.69570932445,7760.153541415646 9232.04699536891,7750.491710739436 9232.084860613315,7750.44978302555 9231.1819201689,7745.934260614136 9231.707664524445,7745.7163806003155 9233.674472702209,7746.774331591216 9233.804816524447,7747.389033440173 9233.180039991108,7755.906293168249 9233.276887635562,7755.994638153083 9238.661034124445,7756.431870319233 9238.807397857781,7756.42438347602 9242.746111457796,7753.6901674562905 9242.892475191133,7753.6684552784645 9246.866141324463,7756.799473936109 9246.973911635556,7756.707385931681 9243.742986835576,7746.3378246139255 9243.71750061334,7745.922280963896 9244.693258835563,7739.548993535944 9244.743503102225,7739.412720112981 9247.448683546689,7737.18740537695 9247.481451546664,7737.040647444395 9246.08335021334,7732.32036899696 9246.033834124457,7732.151143506584 9244.114357502236,7733.254101459934 9244.014597146663,7733.24286974311 9236.184501502234,7729.948202397725 9236.188142391104,7729.85984457509 9238.796475191113,7728.125626279019 9239.050609235543,7728.103162201231 9242.520376346663,7729.334189508467 9242.738829679998,7729.150734029281 9243.403655991111,7722.903401131647 9243.449531191123,7722.7858356625 9245.972667191127,7721.352579081133 9246.219519457787,7721.374295175621 9244.947392880022,7725.1101730239825 9244.986714479986,7725.187300969112 9247.345282302216,7726.6370006271245 9247.534608524446,7726.658716080252 9248.81037599111,7725.545234104597 9248.885378302228,7725.552722237866 9259.04855554668,7733.299028320158 9259.141034124455,7733.251106335512 9259.569930835547,7727.336386655465 9259.534250124452,7727.23754425627 9253.972428257788,7720.051855096266 9253.948398391112,7719.889357537679 9257.50263412446,7711.501437385748 9257.585646391097,7711.443025348526 9269.864180079989,7712.277267249046 9269.987242124458,7712.315459558806 9272.437560346654,7714.993394108002 9272.477610124457,7715.153649545355 9271.019798213332,7719.374905768047 9271.127568524455,7719.595064348403 9277.404460968894,7718.506999064462 9277.54936834667,7718.564659951058 9277.680440346689,7722.885429345195 9277.887242835575,7722.954321183475 9290.631810302242,7722.031018580739 9290.830602835551,7721.995074830738 9294.547950391112,7720.254040792519 9294.703780435557,7720.124492206036 9295.877603013338,7716.270940471652 9296.142659724435,7715.970650499985 9302.62562648001,7711.275277853369 9302.93874292446,7710.953262131261 9302.476350035555,7709.108774848319 9302.661307191105,7708.947765107594 9310.400380613319,7705.1860869351585 9310.493587368903,7705.150888696422 9309.587734213339,7706.871100888187 9309.64526025777,7707.020130246041 9314.586674657774,7713.3713613616055 9314.947122657795,7713.683637508082 9320.364765324462,7712.434529648621 9320.516954480008,7712.3177061649985 9316.418041768899,7704.028285911285 9316.313912346675,7703.315328376972 9318.856709146676,7696.3533581039155 9319.121765857773,7696.255247503264 9324.454211724464,7701.124763520631 9324.85252496889,7701.213135546212 9326.086058124441,7697.484996323743 9326.551363724466,7697.44605191124 9331.902742213315,7701.134499423897 9332.319988079988,7700.930045343797 9334.302816168878,7698.5582111164185 9334.455005324453,7698.138811826073 9333.91396923556,7695.884523754219 9334.141888880004,7695.816370415538 9337.775495991118,7698.158283957797 9338.050747191104,7698.421906455151 9338.288133146656,7700.608010969889 9338.69591270222,7700.812465418792 9346.182308435564,7697.83624458321 9346.476492257767,7697.8265085000385 9350.217869680004,7700.305447912549 9350.346028968874,7700.539859434888 9348.780446746656,7704.568993403831 9348.80884568001,7704.685821954459 9352.574252968894,7705.355337943729 9353.03591767999,7705.281945933159 9360.401435902233,7691.557109562498 9360.458233768884,7691.461243192833 9362.926028257796,7690.790177162366 9363.009768702213,7690.7340052260915 9367.264511457768,7684.799902205246 9367.332960168897,7684.787169473471 9373.501354124433,7688.985925726833 9373.665922302236,7689.094525852175 9379.859802480009,7690.423186858963 9380.325108080004,7690.6703436769385 9382.819116968902,7696.445477168403 9383.099465413346,7696.362345331807 9381.299409946667,7689.654002691263 9381.257175635554,7689.283265223006 9383.01936585777,7685.815521881035 9383.049221146684,7685.627527819939 9381.551359457786,7679.580903913382 9381.59068105778,7679.476043024108 9386.597631457793,7683.887637120562 9386.774578657765,7683.853183667896 9396.961785768894,7674.812667062004 9397.29237848,7674.772219643528 9400.27645101332,7676.386364119193 9400.456310924441,7676.599085548376 9401.525275902219,7683.095955015589 9401.543480346656,7683.176846063689 9404.335313946685,7685.8739423058505 9404.322934924458,7686.025236137539 9401.708048524459,7688.131352777324 9401.606103635575,7688.1066367590465 9401.491779724463,7684.908504880506 9401.45027359113,7684.760955022815 9398.97301279111,7683.750572258556 9398.91038950222,7683.788021684864 9398.064246924456,7687.128478860097 9397.998710924447,7687.196635518565 9395.221440880014,7686.878321230972 9395.161730302243,7686.9374902827185 9396.867122657779,7689.731894909848 9396.890424346675,7689.892173021821 9395.728980791122,7691.570590766605 9395.785778657802,7691.6881767813975 9405.54554541334,7693.089466571262 9405.758901502217,7693.169604136689 9410.14398808001,7697.219125646319 9410.288167280007,7697.275295540756 9415.064285324428,7695.736982977214 9415.17860923554,7695.783417143532 9415.72765528001,7700.117469121127 9415.79100674668,7700.187867576162 9420.687274124452,7691.822239722816 9420.828540613358,7691.633503038938 9423.878149146687,7690.2044902374255 9423.947326035566,7690.151313963557 9424.328891191115,7684.080875927284 9424.403893502233,7683.811989313581 9426.865134391126,7682.458562231732 9427.171697235557,7682.3776708576115 9431.351437679994,7685.185628648578 9431.399497413346,7685.244049279841 9432.204133857776,7689.279520396165 9432.294427902212,7689.446539596924 9436.006678213344,7693.487158247583 9436.136293857773,7693.609985629453 9442.199830213336,7696.098719792055 9442.503480346677,7695.95717069097 9443.701332791105,7693.935777360712 9443.677302924458,7693.769511310129 9441.533547546664,7690.522798587415 9441.55175199113,7690.396224276272 9444.052314480017,7689.151447270757 9444.043576346688,7688.935744956914 9439.646838924447,7683.434498786977 9439.536155902235,7683.316907328663 9440.271615457787,7681.7762273595945 9440.541769413343,7681.345553619984 9443.077284435574,7679.3382257615085 9443.272436080013,7679.297779370718 9450.144249768906,7681.12310086334 9450.327022391117,7681.054941882314 9455.100227724448,7674.865847913061 9455.183968168894,7674.769223538104 9458.07410576888,7674.414933714645 9458.175322480012,7674.405945380153 9459.24283110223,7675.456828414324 9459.228267546663,7675.5429660929585 9454.71283714666,7679.851294921631 9454.640747546691,7680.017573952857 9456.661440880016,7684.757959085364 9456.673091724435,7684.856824995026 9453.514984702233,7687.12173809026 9453.41303981335,7687.380883058293 9453.506246568904,7698.892231989092 9453.647513057782,7699.030783064511 9464.308035724454,7700.08077204314 9464.394688879991,7700.040330356605 9465.664630924446,7697.502221734241 9465.682835368912,7697.366665197922 9464.198080879993,7694.397876336174 9464.270170479991,7694.159712021799 9468.05887945777,7691.614030195116 9468.211796791125,7691.416305814309 9467.434102924431,7689.283265223006 9467.421723902233,7689.193389357046 9469.165709679983,7687.005647014208 9469.24289652444,7686.933745406619 9474.193049057802,7688.597960600928 9474.396938835569,7688.5635080586 9482.993805679995,7684.141543881538 9483.21007448002,7684.1228192064955 9486.93106292445,7687.225096533082 9487.012618835557,7687.407846096925 9486.089289413336,7692.798125025387 9486.107493857773,7693.174846779897 9487.662153413352,7697.50971104265 9487.851479635552,7697.836993512661 9492.486331191096,7702.170246715708 9492.747747013324,7702.367959181727 9495.224279635564,7702.253375847409 9495.332049946686,7702.216679208454 9497.205651368895,7699.21202268733 9497.167057946652,7699.045012628332 9492.911587013346,7695.454633028297 9492.734639813345,7695.207482838923 9492.899207991119,7692.595159297045 9492.998240168883,7692.443871039337 9495.973574568903,7690.884545975474 9496.129404613348,7690.8725626368905 9500.236327280007,7691.93757870909 9500.425653502236,7691.875415498485 9501.128345057783,7689.164928656719 9501.278349680018,7689.0256209527215 9505.811256346678,7687.546406092202 9505.886258657767,7687.463270107961 9500.494830391115,7685.519674563919 9500.39871092447,7685.3496557569815 9501.053342746665,7681.045204882896 9501.08319803555,7680.915627839997 9504.508546302219,7678.147300409539 9504.544227013343,7678.048430777104 9501.744383457793,7675.570679945922 9501.818657591131,7675.45308329691 9503.846632702225,7675.795386702572 9503.909255991115,7675.758684618348 9506.73458576887,7670.9154411805575 9506.91735839111,7670.880985218573 9508.557214746666,7670.893718944433 9508.66207234667,7670.955140432816 9507.676847813338,7673.355056144028 9507.710343991122,7673.512352860613 9509.910897235568,7675.148979500598 9510.111874302216,7675.056100405091 9511.82600479111,7667.847336333616 9512.021156435549,7667.67505348719 9515.392619546685,7670.445041819366 9515.599422035571,7670.429311882945 9525.723277680001,7663.762689854651 9525.798279991119,7663.61212618056 9522.955255493354,7658.595661208987 9522.895763368906,7658.405241297158 9523.580250480016,7656.259819541832 9523.498694568909,7656.167679689643 9520.928955191113,7657.822444233629 9520.746182568902,7657.785738442028 9516.214732257773,7654.516645299031 9516.121525502247,7654.34060397595 9518.726217413328,7650.418208243318 9518.734955546657,7650.2421628597585 9516.198712346675,7645.455159809011 9516.28536550224,7645.321811084948 9519.227203724447,7647.3834610634585 9519.380849235553,7647.3834610634585 9527.562654746675,7644.914272790695 9527.682804079996,7644.953977849458 9529.030661146659,7649.616638489919 9529.162461324457,7649.761220965134 9534.350727991121,7652.222850647631 9534.461411013333,7652.2355857094735 9536.458074480011,7644.58539469845 9536.560019368895,7644.415336767175 9542.540543457792,7640.957207110587 9542.587875013334,7640.862062643086 9538.403037324439,7634.15387450999 9538.26832443555,7634.120160616563 9534.827684435564,7639.58097862568 9534.716273235572,7639.500067745692 9531.668849235553,7634.3823796187135 9531.6877818578,7633.997292150751 9535.117499191118,7632.146762889366 9535.135703635555,7631.936235867492 9528.259520879983,7628.056050732113 9528.166314124457,7628.003605091675 9528.467051546679,7625.246440999959 9528.511470391102,7625.110829376812 9534.401700435563,7622.504218949696 9534.521849768884,7622.457765642328 9537.248147368904,7623.623590125491 9537.383588435543,7623.589874229503 9538.290169768887,7620.622850258376 9538.403765502218,7620.5913815560125 9542.815066479998,7622.805415905248 9542.947594835547,7622.678793366918 9539.181459368883,7614.574762638447 9539.166167635565,7614.204617763367 9541.916495102203,7613.068702748184 9542.046110746662,7612.972044735587 9542.252185057769,7610.021327446309 9542.318449235558,7609.977868063252 9551.74179785778,7608.265709737512 9552.05418612445,7607.982471445888 9547.76303448002,7606.09420458036 9547.371274835554,7605.830445064705 9547.261319991092,7603.299982224613 9547.45283074666,7602.851134132252 9550.072960026686,7601.680676819706 9550.62222452445,7601.8004954370335 9550.032837431128,7600.783720613901 9550.014632986691,7600.662552496891 9559.9272442578,7591.674524080787 9560.023363724446,7591.563616195002 9564.193637857774,7594.562600864017 9564.310874480005,7594.611309590218 9565.451929057781,7593.604160273833 9565.565524791113,7593.4932535994085 9567.838167635557,7589.660935607266 9567.822875902239,7589.531291796557 9564.52568692447,7588.607295869289 9564.40262488,7588.647762945424 9564.58394114668,7585.402124105509 9564.611611902226,7585.291961684947 9566.659247813346,7585.282968831241 9566.906100080007,7585.435097877889 9568.37847554667,7588.770662897608 9568.474595013344,7588.795392755703 9569.31199945778,7586.226466567496 9569.345495635564,7586.13429028332 9566.694200346661,7581.786962251288 9566.730609235565,7581.68504119217 9571.0421498578,7580.9018957962035 9571.136812968885,7580.9138865653 9572.295343813319,7583.64326418464 9572.371074302246,7583.639517127325 9571.716442480021,7580.581142420306 9571.760133146665,7580.474724115389 9574.125982746664,7579.684079065679 9574.139818124451,7579.57990850589 9571.741200524448,7579.5349427776455 9571.684402657796,7579.464496446999 9573.619171013335,7577.210199014975 9573.639559991112,7577.14499782952 9572.628121057794,7575.716561213332 9572.667442657788,7575.635621121728 9576.831163191127,7575.075035023394 9576.960050657806,7575.066041649006 9578.355967457792,7572.051736496323 9578.446261502228,7571.8448852231595 9575.312184346672,7569.161042897882 9575.248832880003,7568.968428235814 9576.759073591129,7568.850760809517 9576.807133324452,7568.727097506133 9575.231502248884,7567.192616062115 9575.110479102215,7566.962824929222 9576.50348319111,7565.2772311054505 9576.534066657805,7565.206029588582 9579.314249413357,7564.248179017093 9579.36813456889,7564.278908263375 9581.951709324443,7567.061007087228 9582.02962434668,7567.231139399497 9581.613834835567,7569.766616028581 9581.763839457803,7569.794346431539 9584.282606391127,7569.992206477378 9584.372900435563,7569.930749971776 9583.144464524441,7568.578701427563 9583.156843546669,7568.510499147516 9585.671969591123,7566.776953213099 9585.798672524463,7566.808431501391 9587.91599504889,7570.806727994008 9587.962816880005,7570.820368274457 9590.35269634668,7566.181113124207 9590.46993296891,7566.072437670642 9595.25114825779,7567.43499816527 9595.549701146672,7567.239383692395 9595.483436968883,7554.061513167115 9595.495087813331,7553.994054803297 9592.994525324444,7553.222779006021 9592.913697591117,7553.135832251304 9593.046225946666,7550.584375599654 9592.985787191115,7550.133144692263 9596.11913616889,7549.8550599520895 9596.424970835571,7549.672168400903 9597.226694568883,7546.671670437696 9597.716758213333,7546.422063879603 9599.355158213359,7547.959424770575 9599.495696524456,7548.01189418845 9602.652347191128,7547.32829140353 9602.851139724437,7547.412242765822 9605.195872168879,7551.232736920843 9605.406315546665,7551.376650323662 9612.38589954668,7552.716088693305 9612.525709679998,7552.75131720896 9611.914768524446,7555.233785494733 9612.01452888002,7555.416671266437 9614.194693146688,7554.70086726499 9614.413874657803,7554.745839329837 9615.795373537789,7556.604075004092 9615.940863457778,7556.620414679004 9783.543358035568,7556.278630337525 9812.540853502207,7556.278630337525 9804.981639991114,7520.485035835278 9803.39421243556,7508.93207959507 9716.143951102225,7117.678628348724 9714.898767102226,7108.533398759617 9701.638649768873,7055.711308924285 9700.590073768872,7052.260911520418 9698.099705768902,7031.015726006466 9696.104498657784,7004.752474623929 9697.276864880005,6997.841990792389 9700.000249768877,6991.780983113735 9710.602518213338,6980.846549555099 9715.233728880012,6978.409893202152 9729.811847991114,6972.310575771575 9758.443798213331,6961.337259307729 9767.895545768879,6957.478752221905 9788.86706576887,6959.998450209161 9812.379926213333,6953.868372251694 9841.69636354666,6935.100656407514 9858.153181324458,6923.297348442975 9854.810845324457,6899.612972823386 9855.0948346578,6881.283095949206 9855.589995546681,6876.7906119563195 9845.759595546675,6866.616227111073 9844.201295102226,6862.642628615686 9844.528975102243,6859.007605357772 9856.696825768893,6847.898839445603 9862.704292435556,6843.729096027113 9865.77720265778,6838.881824929362 9894.234390213336,6812.505353107314 9899.04764532447,6813.182883881025 9911.09898754667,6817.300705326394 9912.293199102227,6814.530409011721 9920.361408880017,6809.486543171901 9925.516907546677,6808.259430020167 9925.677106657771,6806.362280000751 9930.315599102214,6804.6156780809615 9931.852054213356,6801.672009556649 9941.121757324443,6794.896101483879 9942.31596888,6790.740072845008 9940.721259546677,6776.735288233693 9929.601984879999,6738.00507171038 9928.211165324443,6734.201590623947 9927.067926213327,6695.084609049874 9926.354311991112,6688.341950288355 9931.313202657773,6677.417496357921 9931.473401768897,6672.399535546014 9969.404182213337,6585.253614073001 9971.297444435571,6578.272671981576 9979.176327991132,6563.880120480557 9979.169046213334,6561.625748850805 9984.484743991117,6552.954794250596 10046.627435546667,6479.88150598693 10057.790400880018,6467.2077500970845 10113.765426657781,6383.731907879504 10114.107670213336,6381.482539213706 10116.68541954668,6379.91249115111 10149.679154657795,6331.48244207065 10154.834653324455,6326.106281619788 10166.696669324454,6307.18255032719 10169.099655991107,6301.979258360421 10246.162710213343,6189.987366307127 10251.150727991138,6181.129754275498 10297.64487910222,6118.257956276961 10302.647460435554,6115.309152535243 10306.433984880023,6106.447281405803 10311.42200265779,6098.98386163469 10339.515101324454,6061.46469986959 10359.678343991116,6032.803019084655 10512.246151991108,5873.299645006737 10523.991659546686,5862.87877678722 10531.936079102226,5852.798026467695 10532.627847991134,5850.366730958362 10541.606279991109,5841.330452905597 10544.373355546653,5836.119009821232 10550.402667546681,5829.581728070327 10584.758095102217,5796.072776649067 10661.39880621335,5710.9979531262 10669.729159991119,5703.712248047035 10674.607951102233,5696.320041634761 10751.044772435569,5612.485795093387 10776.11593332445,5582.934621508284 11008.324544880023,5330.138501523623 11047.129138657801,5289.985700593614 11160.171456880002,5164.917674820921 11175.812715546672,5147.863871434347 11177.727823102243,5090.203800233845 11179.48273154669,5080.047131486841 11178.885625768897,5062.937525885958 11181.200357288886,5037.375895019555 11188.560195724458,4806.114777255156 11188.964334391094,4795.730921003014 11245.802979013337,3716.7988237154277 11246.40955110221,3706.3305524982934 11355.433784346656,2829.0600501917143 11356.647656702211,2818.5177092809827 11528.173573146669,2502.6822442743796 11533.433201235552,2492.326610287091 11299.404873413332,2225.1563022932314 11298.393434480015,2223.42665598631 11290.1002177689,2220.832139002472 11285.852756791115,2219.53446989692 11272.300640168898,2211.31764347836 11268.659751280014,2209.587015788413 11259.55752905779,2202.6665867304037 11256.320778835543,2200.2880577044634 11229.418979013346,2173.899903592399 11226.991234302208,2170.8712998689807 11223.552778835561,2163.9485955878117 11221.732334391105,2160.4874800841426 11214.855423457782,2136.0379182748948 11213.43911767999,2132.359411369798 11211.618673235564,2108.5530540074615 11211.214534568899,2103.7913584561393 11213.43911767999,2083.6601281819676 11214.24812319113,2078.8974205973864 11219.911889946678,2062.4419469209315 11221.732334391105,2058.7611286046667 11231.036990035565,2046.6351225377512 11233.261573146658,2043.3864955988174 11244.589106657782,2033.4240998350651 11247.420990035556,2030.8253792596734 11261.579678746675,2024.1111650980383 11264.41156212445,2023.6776245772417 11021.68587892445,1652.0509953693036 11014.808239813348,1640.9681016626346 10965.45453456889,1607.7137406327893 10955.138439991111,1601.4099671004442 10949.474673235563,1217.9317820449724 10949.474673235563,1207.024466549694 10808.289012080008,428.0722762260775 10806.650684897766,416.98480872280925 10260.33523430222,717.272097410234 10250.221573146679,723.1884341341283 9801.179095635547,321.89486340688745 9800.16765670223,319.6952832599418 9750.81322327999,286.69928015892947 9747.172334391107,284.71916197626706 9654.936239813345,248.63017554656108 9650.486345413323,247.30936233855755 9064.303234302213,109.22139524538215 9053.5830010578,106.35648815299646 8632.656195724448,9.340634780084656 8621.209969235562,8.052550000000338 8193.59871035556,273.032226487172 8108.0092040800155,326.1450390243772 7969.881889591117,418.55230389648204 7896.172822213361,470.6577403232295 7275.808318035568,856.2816524180162 7222.145256702213,889.8605963171358 7167.637509146683,926.4503666876917 6989.105794302224,1040.38141258034 6565.023066480011,1307.0116013489242 6475.756480880002,1363.1467517003694 6437.471806035559,1383.2738570314468 6436.41230736889,1379.9044295335407 5793.204866302236,1797.8373699277508 5752.884206391122,1824.1554019300893 5709.87584230223,1854.1329859625766 5706.066744346674,1858.6074005931805 5335.4271681688915,2099.4900042292793 5316.993347724441,2111.5871606998044 5088.904037857785,2315.4161979683195 5044.022800524464,2355.604783775263 4636.809039102234,2723.3158396236904 4595.833019191115,2759.6401741243535 4591.46031163555,2766.1658739289196 4572.446861679993,2785.2984755730067 4254.319825946681,3070.0806149302152 4244.964926035558,3076.589112066031 4116.6892015200065,3193.5036018270403 4116.125519102214,3194.0206905894374 3042.292672880001,3423.436062807108 2991.937723191113,3427.6610750301406 2991.2884070666696,5051.739940753898 2991.909469893326,5068.792714060233 2954.2995245777784,5069.340352576277 2953.772979226669,5070.102565644302 2952.9838529688786,5118.344053787856 2952.7209807911204,5136.482127134448 2950.3544030133417,5147.473459450943 2947.7256812355554,5159.0141374852465 2947.8567532355737,5177.832624625757 2948.25142559113,5194.040680453349 2945.2280314577874,5205.027613906968 2941.54709279113,5211.069994288577 2943.0662172711236,5494.57158791407 2943.256126035565,5530.009273653144 2889.358591457778,5561.111533861571 2883.9686195466857,5564.125024530535 2870.16600976888,5581.2493825301135 2868.456976524445,5584.536377515142 2862.0155159022324,5605.355357806191 2862.0155159022324,5612.340140043329 2855.4429832800015,5624.66569425827 2853.33927768001,5630.143138005798 2850.578755724455,5644.383852934807 2847.424289591123,5653.146810607614 2819.2918693244646,5699.964634527329 2816.268475191122,5705.302093401006 2812.5875365244647,5714.882506936083 2802.3340652355473,5739.925761314014 2788.9203023911177,5764.434349138603 2787.5804552800037,5768.339499012647 2787.04378825779,5772.803053018455 2787.04378825779,5776.56855288252 2793.677487813351,5799.15957772213 2793.7444801688907,5802.785010919666 2784.028404079996,5829.833225474613 2782.8225416800196,5835.131239347866 2784.1623887911046,5868.446002563454 2783.224495813345,5874.577969715661 2754.6690042577757,5918.248114926413 2745.3446878133473,5932.251197395053 2741.22334722666,5954.046649724005 2736.709955724429,5978.380294100971 2722.5505388355596,6027.905263913643 2714.6075756355494,6045.126909360166 2709.945053324431,6051.943924758169 2703.037558924443,6058.9391459646795 2687.150904346672,6070.597647187133 2676.617084613339,6075.081858858066 2650.60366167999,6084.09375487762 2649.1218199022187,6084.431804191605 2603.7461498577977,6086.0214579413805 2599.010081591121,6086.7588036777815 2584.412301679993,6093.825044362304 2581.9881978577832,6095.884962130505 2552.977595191107,6127.801866417409 2539.335912702234,6142.861647178528 2506.3538284355673,6188.391219482066 2503.41781563557,6191.9749694785205 2464.18723785779,6215.659506816104 2460.5026583022336,6219.071108104188 2459.130043191115,6223.306981603884 2458.5212865689027,6226.918641807839 2461.801727457794,6239.818690231412 2463.212207813347,6245.83542779128 2461.6954135022315,6265.174455687993 2460.0752179466726,6280.8410971513 2455.594740080014,6290.411323506101 2452.6871262133427,6295.0561211315 2442.4518593688917,6306.576137782009 2438.810970480008,6309.606666808417 2430.354641946651,6315.32169466497 2428.6470650577758,6315.227301729472 2102.2661342133433,6263.488429117169 2092.475783991111,6261.839399038952 2090.7099528799954,6262.033536783267 2090.2359091466715,6263.075984374496 2087.9275855911037,6272.314939944081 2086.764685679991,6276.89909104519 2084.496411902226,6324.247235175113 2084.089360524442,6330.096890157605 1832.1857246133513,6323.749623167147 1804.7589086133303,6323.602378038129 860.4819962577676,6374.242072570072 840.0202007022235,6375.4453173404545 629.6015809688906,6569.010771623092 613.1935511022239,6585.253614073001 590.0222060355663,6598.919855534412 588.5345388355563,6599.5357099703615 551.2634874577707,6605.0805554817125 545.0885399022445,6606.2360845453295 437.4412908355662,6613.397466790841 427.3982629244347,6613.936385460889 424.9435756355597,6614.475302333718 419.2150010577825,6615.322491099279 412.2965839911267,6618.6335697232935 397.26845101334766,6626.795281161867 392.13552585777506,6627.180406691019 388.1924431911102,6627.411783035794 328.0828239911134,6608.853896388544 326.2230579466632,6608.238077493959 305.98772568000277,6595.300061394628 303.75586079111235,6594.067564016317 285.97594399110676,6590.679089969337 265.59206345777056,6586.597749957618 173.4928663022365,6612.3188703199485 172.37729794666666,6612.39575164843 68.52312692444684,6591.14119306919 54.12078992889292,6585.382524955006 58.13472429334797,6626.218947762107 62.953295102233824,6650.073003843638 56.94655661332217,6661.878643806929 57.755562124460994,6670.041191107528 56.13755110224156,6673.599038173583 51.48522328001127,6679.249842219382 48.85577332444518,6681.761749890131 39.34868425777677,6687.830400860628 36.719234302239784,6690.341422603167 30.246462035553122,6699.54967746621 29.121500186658523,6701.792034283535 28.498034373340488,6707.524269790396 27.99894132445479,6716.132112609128 40.36012319112342,6735.119706346544 44.69744130667095,6742.8141266797975 55.778341004457616,6766.068411499502 58.42308269334171,6776.2105373304 8.052550000000338,6945.152592371356" stroke="#009edd" stroke-width="5.884257189807413px" fill="none" stroke-linejoin="round" vector-effect="non-scaling-stroke"></polygon>
</svg>