<svg viewBox="0 0 332.2134812977886 474.8532708351988" width="1000" xmlns="http://www.w3.org/2000/svg"><polygon points="8.05255000000011,400.7618064471535 26.44486431100063,446.60555093512085 26.47078743993893,446.8302443332868 73.69224251560058,437.066707609898 75.51530840001192,437.00626375058346 81.04887696888886,442.01612540669885 81.75287924436975,442.49182088764064 79.67291224000633,459.8145404885072 79.7838865333249,460.3667813182474 122.67064493333578,465.2713743235581 123.51882640887175,464.8137216105606 118.31119021328755,451.6756288683755 117.31067394660909,450.4931288807202 100.34442299555644,451.8740187876174 100.09159967114806,450.20246265273454 128.10925911993377,441.0997972973055 129.4479411466525,441.1385544565055 166.8107429244335,409.1785992401783 167.83077435554128,407.70283471418225 194.98306733332697,402.40190473487746 195.9372714933486,403.01520783277374 214.89203031999182,381.6814775736784 215.58991590221535,380.6712030463168 238.90995487102896,306.1396418986624 239.11122320892878,306.1479522163645 246.27794889777556,250.99684659715422 246.45620681773994,247.65660165399458 242.1634531821835,211.63472305154573 242.35423575991422,211.1686783142868 252.47561559998553,194.64075783643784 252.53299600884907,194.17744781365764 264.3507387999923,205.2841415161747 265.83156112881966,205.46659228966018 274.93582224890247,196.05793523832835 275.49360642661463,195.34750001595967 269.6967287732766,183.15610279885732 269.59420134218067,182.62024195734557 299.9443598488358,137.34626479072176 301.933741537832,134.1590418970227 322.5102979111032,132.89347304884723 324.1609312977887,132.2368898532368 314.4170388177515,105.31386571619805 312.0466745155643,101.34194443023443 304.02535938667256,105.22421524834499 301.8615063022369,100.46298229796957 297.67361026662525,69.9748205108117 296.6693074755383,68.4703812683365 248.90259288004722,52.97612425217085 245.27685008882668,51.912996639592166 244.87227451554622,33.30787436720129 245.2850056799141,31.95757783155568 234.35447469328187,25.92574907627568 234.4704005955498,25.720031514276343 177.41592407992698,8.216212946666928 175.15041737780098,8.052550000000338 166.94967924440402,25.255894988054933 166.81685961769085,25.6469901751625 128.08479234667152,46.09389759632904 127.37962498664979,46.30052014269313 101.88670352890745,72.10412711706158 100.85909904886626,73.06778510075674 108.69953481780954,85.51175727460213 108.68642761777278,86.31868413495977 85.67018441783853,101.5369607779212 85.57901655996807,102.528676244292 112.30576244436793,116.85119921665319 113.07821343103546,116.86829657978524 109.21916247995227,97.86627980063349 110.04112955553114,96.31536012536526 132.3539530221385,98.4416330323802 134.3788697867201,99.00912852676265 155.38854630219407,125.0388322334984 155.90030964450102,125.78692763156869 133.98944031107362,146.4280661208104 132.5100743376895,145.1524048343781 111.91953695109237,187.97370895799395 111.91371152885381,188.44072784498712 159.1884692178353,274.31985137853917 159.78732262223616,275.3537130373079 163.8750213956007,311.84506111828523 164.1814386043477,312.52464134511683 177.53418015104376,318.3060648276951 177.88778327996965,318.8711337368368 170.92989897772327,338.0525884608287 170.39541648884892,339.4143508628258 174.4100062133291,360.30316738968395 174.35932503999334,360.8358163074954 164.72349414215546,380.6887409725241 164.5947523111024,383.46894573441386 130.26874313780695,355.1921632024241 130.17582765324164,355.15662161212094 108.80788767114404,370.6969681519331 107.91048137771554,371.1931293061716 99.69051935114089,362.92208879840473 94.83415611551732,361.6670967755854 49.520818088880105,373.94437983466923 49.30586000890594,373.9725337011987 39.133798995498864,387.862555971813 38.6208705688839,389.2212340836777 8.05255000000011,400.7618064471535" stroke="#009edd" stroke-width="4.891962128292261px" fill="none" stroke-linejoin="round" vector-effect="non-scaling-stroke"></polygon></svg>