<svg width="3476.6108973510563" height="2213.241212874069" xmlns="http://www.w3.org/2000/svg"><polygon points="3151.567152071162,92.23092639516108 3158.245124835521,97.80939528020099 3158.459500373341,98.40549547184492 3152.0136706844205,106.43189289374277 3151.914638506598,106.67494435270783 3156.870033920044,116.66569256642833 3157.1237310577417,117.19150855846237 3155.1870694400277,123.1967165042297 3155.266295182286,124.91734376898967 3166.431881955592,137.52638613374438 3166.697812480037,138.53402420255588 3187.863027768908,142.3381502982229 3189.1559802310076,142.84588562196586 3209.994680604432,159.27341003256151 3211.6525957689155,160.17654330120422 3239.2441255821614,169.22013973991852 3239.6262732800096,169.33747255709022 3244.6174950399436,192.6263072163565 3244.75380991993,192.79674458457157 3240.676014364464,202.62830405577552 3240.7170835910365,202.96038731274894 3247.2800042666495,212.92357025446836 3247.689240177744,214.03199893585406 3242.8017109333305,229.73966657288838 3242.5783059911337,230.8161438301904 3245.7750064354623,245.97399705066346 3245.8090851556044,246.4048331620288 3276.336336497683,255.40139906451805 3276.6657641243655,256.09126031713095 3270.7383970132796,265.34276005846914 3270.3492588088848,266.4153652739478 3272.1306729244534,276.58476367162075 3273.1498305421555,277.20114535005996 3265.564256995567,277.80598258331884 3264.479563377681,278.1952013691189 3265.0321046755416,285.6770222696359 3264.285285546677,286.91111681301845 3274.083936995594,288.11011621530633 3274.9382351645036,287.57456089695916 3283.150624142145,294.380631088512 3283.702582897735,294.93509794806596 3281.181922702235,298.9026567353867 3280.142667377717,300.2363937717164 3352.439943680074,317.2672440225724 3353.3233689599438,317.68270384229254 3360.3051374932984,304.90925558964955 3358.7657696710667,303.7537450676318 3374.7597576533444,289.5390266816248 3377.0025452087866,286.6521099033416 3373.9561406577704,253.7247591787018 3373.830020266585,253.48741499357857 3384.9271583289374,236.0806911548134 3380.1275929600233,232.76773579162546 3380.348085191101,231.5194763391628 3417.1947545600124,235.73434331745375 3419.1736504888395,235.1150719941361 3427.681388373254,219.22860588919139 3428.3556809955044,218.42593875306193 3455.6105014045024,199.04140270146308 3456.658203591127,197.224373698642 3457.2611347910715,186.37591995298862 3457.7900831288425,184.70613233197946 3451.3987211377826,169.32500017399434 3451.280465066666,168.48011002410203 3454.275314631057,165.05986469076015 3454.168418133282,164.56095887965057 3446.9044078933075,157.89537380140973 3446.870329173398,157.4528111804393 3451.621834808844,156.9386428159196 3453.3703352888115,157.07307509460952 3458.6825378133217,131.7627534592757 3458.7614722844446,130.13966813473962 3467.747186062159,124.19749118061736 3468.376040391042,123.90640761394752 3470.592031004373,102.34941904619336 3470.3086242133286,101.40584133815719 3457.466480924515,92.2512590495171 3456.7208268799586,91.84830244875047 3470.733880035463,79.81101201561978 3471.6108973510563,79.06790166418068 3462.627513742191,72.8802991178236 3461.8859374932945,72.24253475287696 3453.8022903467063,77.54331585543696 3453.5678171021864,77.48647295020055 3455.216702862177,73.09519755362999 3454.557265066658,72.0673802953097 3446.8554743466666,82.09855573996902 3445.961854577763,82.2755505326204 3429.1077430044534,74.50474110798677 3428.676661759964,73.8438742973376 3418.538096924429,86.03723307425389 3418.0056533333845,86.47301096166484 3391.297257528873,86.10793728783028 3389.025051591103,85.56124985474162 3388.0466719289543,90.90329232008662 3385.7829128532903,91.56965197226964 3356.2381189687876,83.8282923361985 3355.38061681774,83.59029841260053 3329.3334064355586,72.1029657771578 3328.888926720014,71.74988359294366 3311.0316774400417,38.88297180389054 3310.925363484421,38.652323646238074 3280.69812138658,36.21224511030596 3279.387692657765,36.27418341918383 3268.2672529066913,7.617951499298215 3268.268709262251,5.040219520800747 3259.4335826488677,12.290705322055146 3258.6588014933513,12.765001722145826 3245.245184284402,5.988380986498669 3244.0999062755145,5.030049068038352 3235.426726399921,15.637569832499139 3234.865738239954,16.325427241856232 3206.9948794310912,27.493094451609068 3205.43745279999,27.61004240589682 3197.6602228621487,50.85692276415648 3196.7459228445077,51.89547187916469 3180.7443618132966,52.15106419415679 3179.971328284475,52.215771061135456 3160.50305848883,66.56819718348561 3160.265381262172,66.61764840222895 3157.976572871092,87.58625077980105 3158.2063857777975,88.87924686842598 3151.567152071162,92.23092639516108" stroke="red" stroke-width="3.0558405613511934" fill="none" stroke-linejoin="round" vector-effect="non-scaling-stroke"></polygon><polygon points="52.06475121784024,2130.6619065195555 63.107421582215466,2126.321857587318 63.11208191991318,2125.9986735802377 52.06475121784024,2130.6619065195555" stroke="red" stroke-width="3.432068182245359" fill="none" stroke-linejoin="round" vector-effect="non-scaling-stroke"></polygon><polygon points="3323.7444963555317,166.33068342955085 3329.9730377956294,179.39783061371418 3330.113430471043,179.9050165133085 3324.3474275554763,183.64328150759684 3324.090526435524,185.50569200579775 3335.777779768803,186.38238660187926 3336.899756088853,188.32283437426668 3333.036918613361,198.40909313037992 3333.325859555509,198.94856554706348 3354.7252568177646,211.01290290249744 3355.917429475463,211.66503492952324 3349.910254079965,216.5365648708539 3349.1657651199494,217.30737230443629 3352.32256142213,228.07621921936516 3352.986077013309,228.8867011446273 3353.8995032177772,222.329791675671 3354.757005368825,221.08470443828264 3361.9126627555816,218.77139079908375 3363.63815281773,217.7304146346869 3372.493959679967,221.7451188187115 3372.7901823999127,221.65182963770349 3375.2846281954553,231.2502429584274 3377.205561173265,232.10504623345332 3419.1736504888395,235.1150719941361 3421.0511840711115,234.27136389852967 3427.681388373254,219.22860588919139 3428.3556809955044,218.42593875306193 3455.6105014045024,199.04140270146308 3456.658203591127,197.224373698642 3457.2611347910715,186.37591995298862 3457.7900831288425,184.70613233197946 3451.3987211377826,169.32500017399434 3451.280465066666,168.48011002410203 3454.275314631057,165.05986469076015 3454.168418133282,164.56095887965057 3446.9044078933075,157.89537380140973 3446.870329173398,157.4528111804393 3451.621834808844,156.9386428159196 3453.3703352888115,157.07307509460952 3458.6825378133217,131.7627534592757 3458.7614722844446,130.13966813473962 3467.747186062159,124.19749118061736 3468.376040391042,123.90640761394752 3470.592031004373,102.34941904619336 3470.3086242133286,101.40584133815719 3457.466480924515,92.2512590495171 3456.7208268799586,91.84830244875047 3470.733880035463,79.81101201561978 3471.6108973510563,79.06790166418068 3462.627513742191,72.8802991178236 3461.8859374932945,72.24253475287696 3453.8022903467063,77.54331585543696 3453.5678171021864,77.48647295020055 3455.216702862177,73.09519755362999 3454.557265066658,72.0673802953097 3446.8554743466666,82.09855573996902 3445.961854577763,82.2755505326204 3429.1077430044534,74.50474110798677 3428.676661759964,73.8438742973376 3418.538096924429,86.03723307425389 3418.0056533333845,86.47301096166484 3391.297257528873,86.10793728783028 3389.025051591103,85.56124985474162 3388.0466719289543,90.90329232008662 3385.7829128532903,91.56965197226964 3342.9710111288587,77.4250086537213 3342.87867818668,77.3653928906424 3342.400411022245,96.49011339736171 3342.349438577774,96.97716271301033 3331.9676623644773,109.6765610112343 3331.7850353777176,110.06469803641085 3340.0655817955267,132.12266738945618 3340.0996605155524,132.41789800691186 3326.923137991107,150.33287895534886 3326.7911921777995,150.43174285191344 3323.7444963555317,166.33068342955085" stroke="red" stroke-width="3.6631821138178817" fill="none" stroke-linejoin="round" vector-effect="non-scaling-stroke"></polygon><polygon points="5,2107.177178893995 19.648024177760817,2119.7999475045945 21.064766862196848,2121.9959126541507 12.88762168888934,2131.161777885165 12.767326719942503,2131.9404213654343 23.32066161779221,2137.660458275932 27.880510862218216,2140.029725042288 25.065666844369844,2161.162473307457 25.028092871187255,2161.2411966022337 40.286621297709644,2177.780234115664 40.378080426715314,2177.6923636649153 40.46895701333415,2193.80226512847 40.69003178656567,2195.3531493949704 46.967798044439405,2203.939785769675 48.97698616888374,2207.925472728559 45.61863025778439,2171.6736105107702 46.062236159923486,2170.730347653851 76.64803299552295,2153.1558900041273 77.45456270221621,2152.653780897497 77.73127025773283,2146.0026705506025 78.9851923910901,2143.894375563832 85.75608064001426,2143.13774623489 88.60849863116164,2142.6786407604814 91.60975615994539,2134.6255983720766 91.66830165334977,2134.122988504998 84.57177230226807,2115.677130956552 84.15874986664858,2114.9835781467846 52.912932693376206,2102.6608569278615 51.73648867546581,2101.830832304142 52.51505635562353,2095.168544654385 52.384566897759214,2094.65851775161 39.65048519114498,2078.3223700446542 39.27328910212964,2078.1534163309843 25.571604764438234,2081.9280580798513 23.70834346662741,2082.718783153221 5,2107.177178893995" stroke="red" stroke-width="3.175165643707352" fill="none" stroke-linejoin="round" vector-effect="non-scaling-stroke"></polygon></svg>