<svg width="2101.1888065421954" height="1777.9914575460134" xmlns="http://www.w3.org/2000/svg"><polygon points="5,748.3589300892199 10.655902435653843,763.4434713709634 10.947756088920869,764.9271036707796 6.55043612443842,782.1432568086311 6.655293724499643,783.7883940537577 12.94267192890402,796.9877640731866 13.523175253416412,799.1806786837988 9.329162524431013,807.4506188475061 9.485575111117214,809.1050195592688 18.9725664712023,819.0163061193307 19.472678968915716,819.4619590943912 11.414372408995405,838.5980720646912 11.739139697747305,841.1137487194501 18.660323839983903,846.7188910130644 19.493067946634255,847.6798481573933 16.709098666673526,853.0341251093778 16.31442631117534,853.1569982870715 25.842778168967925,877.5263820608379 27.078058951185085,878.842729522672 44.59743374225218,877.8639078055858 46.11233479110524,877.075896889437 58.18493980448693,854.2943595551187 59.48575658677146,854.3200142523274 91.5765512533253,899.6633684774861 92.18064753781073,900.013909760979 117.3723946667742,887.6685785587179 118.71282432007138,887.336918118468 170.963075128966,888.6653569120681 171.38104917341843,888.847611605539 165.85505365335848,901.6347621593159 165.88272440899163,902.6818750271341 174.0916181333596,917.0223625336657 174.27162368001882,917.5362088220427 176.30178332445212,937.7570376052754 176.44858396449126,938.3464200753369 194.04980593780056,954.5439190894831 195.26353265787475,956.0581978103146 216.55923740449362,992.0653446980286 217.00459093332756,993.8469925756217 198.94053916446865,1015.9375925641507 198.4919816533802,1017.7487295331084 215.93533468444366,1040.26908151526 216.0483478755923,1041.7009227223461 203.15406705776695,1058.2370210937806 202.53569848893676,1059.1120644294424 199.8624122311594,1078.4138400687953 199.8664900267031,1079.0221778445411 212.66436010668986,1087.0832807051484 212.91980487119872,1087.5131019440596 211.03528078226373,1108.7171688951785 211.15178922668565,1109.843762988341 222.53641187550966,1118.9956642506877 222.79680824896786,1119.23706643295 259.54124145780224,1126.677697483683 261.9011200000532,1126.1198387293844 283.55421440000646,1137.7833312887233 284.0318990221713,1137.8440138095757 307.8398171021836,1129.8773788409308 309.5315197155578,1129.5249576712959 326.77651711995713,1132.3213860746473 328.648807822261,1132.8720368749928 335.4354247110896,1117.6659245567862 335.7479586133268,1117.1619879662758 355.63536753773224,1099.0145533205941 356.7652081778506,1098.0677362955175 354.9919496533694,1103.761165029835 354.7589327645255,1104.5132943853387 360.77630264894105,1109.0826607502531 361.3815640177345,1110.1885733505478 380.0214587734081,1116.2004143962404 381.4338323911652,1116.9673359666485 394.9377436444629,1117.88035574276 398.87718542222865,1118.0138693941408 418.63847395556513,1109.0012905375916 418.55021880893037,1108.692443101958 438.58675854222383,1115.8187507853145 438.66511047119275,1115.8115580607555 446.4108831289923,1109.3357623786433 446.7391456711339,1109.2516949074925 463.14673863118514,1122.2610894856043 463.22829454229213,1122.2601904214825 472.5469312000787,1105.2056287482847 473.43152156448923,1105.373766763485 471.55398798233364,1097.8344032663153 472.0753632711712,1097.0795534789795 499.15425592893735,1079.6966079939739 499.6438826667145,1079.3108342026244 503.76566015998833,1072.6388184643583 503.8900329244789,1072.4081561556668 501.93764266662765,1066.0043699052185 502.15260074671824,1065.3393402268412 509.3819497245131,1061.6126186415204 509.9930365155451,1060.9889441524283 507.15925987565424,1050.3637221682584 507.0162457600236,1049.941472600447 512.8868150044,1044.7476014309213 513.2899342222372,1044.224160310463 511.2819111822173,1059.764522524667 511.46599452442024,1060.333791749319 527.257257813355,1065.1113681280985 527.676688213367,1065.2786376201548 531.6653548089089,1079.1925840583863 531.7201137777884,1079.25328280963 527.3659019378247,1085.1400825296296 527.8287317333743,1086.0910018838476 535.7600440889364,1085.138284096669 535.9519917510916,1085.184144132305 544.1113693866646,1090.4687745292322 544.4935170845129,1090.4561858045636 544.8998402844882,1099.8665053133154 546.0885176889133,1100.9068263675435 555.332880213391,1100.7795963567332 556.9345800533192,1100.6537150014192 561.9496860444779,1115.3781959674088 561.9820171378087,1115.6721989748767 578.4499032177264,1109.8563505990896 579.5421698845457,1109.0426499864552 608.6086966044968,1127.8280238234438 608.8670540800085,1129.267833705293 617.2999352888437,1125.1749369381578 617.7149966222933,1124.9739986864151 617.7866493155016,1131.7608446140075 617.6876171377953,1131.9334573737578 603.7703921778593,1141.549661237339 603.4919369955314,1142.2077172554564 607.400504035526,1160.4477580405073 607.0142785422504,1161.7295963172219 613.6267153066583,1168.0380011041416 614.4591681422899,1170.2977645101491 648.5608985599829,1170.4824816103792 648.8978992355987,1170.4321450924035 668.1838333156193,1196.6594998815563 668.3038370134309,1197.09180249786 679.8769120711368,1201.0701149207307 682.1339719111566,1201.5347634407808 692.1924371911446,1195.1199204358272 692.6503153777448,1194.62874468253 695.4791404089192,1184.8279180204263 696.1178979555843,1184.504347100039 714.7912888888968,1183.326005627052 715.3793652622262,1183.4284703544108 744.9780443022028,1195.2587796212174 745.0074626844143,1195.1927204079693 748.3253319110954,1200.303937018034 749.5090577066876,1202.560222162283 735.5595016534207,1211.0077164142858 734.0885825422592,1212.7161386177177 730.6256603022339,1227.3027899301378 730.8959598933579,1228.2175966902869 741.5328896000283,1235.7008062675595 742.8741930667311,1236.5302114270162 763.6196866844548,1236.53560299956 764.2147535645636,1236.6762331371428 776.054924231139,1261.0497122770175 780.0520376889035,1263.3426593320328 761.0186356622726,1257.843409688794 757.4677495467477,1258.7495532017201 731.8455037155654,1285.8948336354224 731.6287980088964,1288.824024753063 715.4987864177674,1285.6814651715104 714.3712759467307,1286.586146032263 693.6718031644123,1312.706185174873 691.5839718400966,1315.461651666148 687.836477724486,1324.0920785948401 686.5120679822285,1325.3163716356503 688.1361956978217,1334.4152685796143 688.8859275378054,1337.0487584186485 672.225219982327,1361.7307990220143 670.5035164444707,1364.2153299062047 665.0421831110725,1382.620547701954 664.716542008915,1384.4151870603673 668.4290835910942,1393.5933456640341 668.4025779200019,1395.6119322821032 663.3356256711995,1402.035278118914 662.116364800022,1403.3870885239448 667.6566326044267,1407.1663667921675 688.132117902278,1397.0127199040726 691.1878431289224,1396.9238240324194 691.5210572800133,1404.8502309468458 691.4520260266727,1405.3521597287618 678.6442527289037,1412.7319066485506 677.9108320710948,1413.6832016179687 682.1030971733853,1436.4089010230964 681.6300728889182,1438.060354916146 688.0659993600566,1444.4734802224557 691.119103146717,1445.6181003513047 689.1769073778996,1449.2417936284328 690.6417097955709,1452.385600908252 664.7322706489358,1474.7958170714555 663.9181678933091,1476.5493098032312 674.3180029155919,1503.0856137853116 676.367677724571,1505.0080584438983 653.4693993245019,1516.9018005506368 652.901711928891,1516.8457100901287 649.8853083022404,1532.3539518808248 649.6053967644693,1533.040898292209 630.4368449422764,1542.6722796901013 629.1380670578219,1544.2708883596351 646.1319887645077,1563.7960358090932 646.4474353777478,1564.1334036013577 683.9034439111128,1578.6989428407978 685.1911534933606,1579.0757642153185 685.2689228800591,1591.9554886178812 685.0761014044983,1593.6456944707315 696.5114052266581,1615.066849054827 696.9596714667277,1616.1343310107477 718.0147862755693,1627.8251612095046 718.7464593066834,1628.4530558973784 733.594295466668,1647.0500335243996 734.9178313955199,1648.4644641199848 736.9229417244205,1659.9800295684254 737.3467411911115,1660.3688190267421 747.2554931200575,1667.8695853359532 747.6958950400585,1667.8041167323245 773.4495041422779,1649.4205673999386 774.5394406400155,1648.8492378920782 784.1953692444367,1630.833208949538 785.4085134222405,1629.6491903072456 827.2207726933993,1611.2095180343604 829.1486961777555,1610.165784369805 833.4603824355872,1618.3145794947632 833.6185426489683,1619.0331014047842 830.5039806577843,1625.3745607543387 830.2121270045172,1626.601209900342 843.187672462198,1648.1998757035471 844.0076006399468,1649.993689226918 894.3412875378272,1656.8669984850567 896.8680644267006,1656.9782109580701 913.7014957511565,1665.468309733842 916.0704036977841,1663.0912228013622 933.2944295823108,1693.769854402286 933.7211417600047,1694.7136546352995 953.5089359645499,1707.0185552277835 954.1695388444932,1707.5960100262892 989.481209457852,1713.422479824687 990.8763980800286,1713.5013844794012 1030.6203411911847,1706.2725244194735 1032.3493265066063,1706.0371475866996 1058.983448177809,1692.4754291464342 1059.731723662233,1692.300118453917 1087.6847209244734,1689.240005169413 1088.2515345066786,1689.3108478347422 1095.065530880005,1698.1964889769442 1095.2968001422705,1699.6164185838425 1100.94396444445,1693.1049323718762 1102.2223533510696,1691.9329071121756 1127.8355697778752,1712.9104955241783 1129.8977692445042,1713.5179723862093 1156.8994750578422,1745.4791958806454 1158.3354416355724,1747.1068092877977 1201.459585991106,1739.226824851823 1203.0155562667642,1739.0156899146386 1213.2677168356022,1743.2576253060251 1214.6996056177886,1744.537855161354 1228.3642985244514,1769.6460645785555 1230.0932838399895,1772.9914575460134 1238.5692731733434,1760.4948277160292 1241.6159689956112,1759.4428390809335 1241.249841208919,1747.9154565739445 1241.5300440178253,1746.4151535085985 1250.0016642843839,1746.4868742350955 1251.9001693866448,1746.9328869767487 1255.050557724433,1740.613317387877 1255.6767906133318,1740.0265358088072 1303.7143873422174,1744.2133158063516 1304.2637246578233,1744.3796198727796 1316.8716859733686,1737.0240185098373 1317.7216150755994,1735.193709005136 1302.3803656533128,1728.2260208697408 1301.1663476622198,1727.7472447563196 1301.9154969600495,1716.6781699173735 1301.975207537762,1716.0469410204096 1274.8453424356412,1700.463798785233 1273.845699982252,1699.4577025632607 1286.8993060977664,1680.571021884447 1287.4917515377747,1677.7627431137953 1257.7369511822471,1663.1302357545355 1257.3856782222865,1663.2230596496956 1254.3200497777434,1640.5235335766338 1253.8167332977755,1639.3803782791365 1261.3609463467728,1628.995286364574 1262.485252835555,1628.4902810260537 1287.0260090311058,1638.6166270320537 1287.7873917155666,1639.1888801245368 1300.7145861688768,1610.4905219766079 1300.907990186708,1609.419424291933 1346.4193925689906,1555.9386290908442 1347.245146168978,1554.5357154619414 1347.984392248909,1540.6797230798984 1347.8973021866987,1540.2503406883916 1340.7378582755337,1531.9335270526353 1338.454292764538,1531.1357496570563 1342.5565550933825,1526.6424767813878 1342.990549048991,1525.395525645581 1369.6934107022826,1532.693162787822 1372.2289257245138,1533.040000910929 1401.4250680889236,1528.8052179727238 1402.0326596266823,1528.3672870380105 1414.9723787377588,1535.2713280161843 1416.9011760355206,1536.552771651186 1421.5583098310744,1541.7376961701084 1421.6255934577202,1541.848967004451 1410.564281742205,1550.106630905997 1410.4576765155653,1550.3013474016916 1413.5524320711847,1562.528210186283 1413.9642894222634,1563.3348460197449 1408.7834501689067,1576.7340780469822 1409.4402665244415,1577.5393158607767 1425.122303146636,1565.2244618464028 1426.022622151184,1564.0571369916433 1444.48775424005,1592.701459525677 1446.4209206044907,1594.629399049445 1462.2815064179013,1596.3702717214474 1463.7180555377854,1596.6416510406416 1498.4623300266685,1624.2362600936322 1500.0631560533075,1625.2014389699325 1505.8556646399666,1636.6962495580665 1506.0135335823288,1639.388899270445 1527.846342257806,1626.7025707297726 1527.6241024000337,1625.2368706415873 1537.0848793600453,1630.9578893287107 1537.2625547378557,1630.9435376340407 1546.7346912712092,1622.9221389074228 1547.098197617801,1622.752603246132 1540.9989805511432,1592.6063629544806 1540.7243118933402,1592.3215215629898 1542.695343502215,1581.605385236966 1542.2965933511732,1581.0267016739817 1546.9615914666792,1577.8676905443426 1549.4810865777545,1576.9965096368105 1557.147924764431,1583.192495579715 1558.067467662273,1584.0434655046556 1584.724891022197,1561.6968966276036 1586.0163871288532,1559.3290040483698 1587.2633187555475,1552.5840938000474 1587.7144977067364,1551.6459632785409 1577.8468150044791,1544.3561351971002 1577.6472942932742,1544.1138546250877 1569.254025955568,1513.0485769360093 1568.735854648985,1511.122612852545 1568.2843844266608,1482.9599635223858 1568.093310577795,1480.7837551874109 1550.497040213435,1470.0195315843448 1550.2963544178056,1469.8871297817095 1569.3090761955827,1436.7581358540338 1569.2365496889688,1434.2524309570435 1584.0045775645413,1435.6143672666512 1586.2922208710806,1435.2543572384166 1587.6842055111192,1440.8295085987193 1588.7549181155628,1445.988866218133 1603.6248908800771,1458.4827708810335 1604.3504472178174,1458.9325112474617 1678.1492260978557,1476.3074031418073 1679.9201544533717,1475.9447670532973 1700.4463209244423,1494.9823513122974 1700.9350738489302,1495.2879624227062 1728.9399173689308,1480.6639262192766 1730.3624854756054,1479.5800769610214 1732.231280924403,1477.4500619457103 1734.8844694755971,1475.2944441504078 1732.49196856888,1468.812652535562 1732.8540185600286,1468.5007210209733 1743.6668760178145,1466.8207714375458 1746.18491477333,1467.5321596204303 1744.9164290844928,1465.1632504625013 1744.0868889599806,1463.9944954053499 1764.2798412800767,1442.1622270952212 1764.6375222044298,1441.6374897921924 1760.3750607644906,1437.9943688207422 1756.449891271186,1436.257176720188 1754.7086725689005,1427.565622940543 1754.1240914489608,1426.3921784334816 1763.101940906723,1425.1729386990191 1764.966076017823,1424.9745198093588 1767.4028501333669,1402.6135361302877 1767.2324565333547,1399.0375605555018 1780.2365465600742,1371.2165891944896 1781.2932781511918,1369.6436602744507 1772.1933860977879,1363.2431645683246 1771.196073813364,1362.7631423108396 1774.3254906311631,1348.9323022719473 1774.54889557336,1348.8285676754895 1769.9235103288665,1340.2296522121178 1768.6174506666139,1339.6579659625422 1755.6966641778126,1363.5193228277494 1754.7692569600185,1362.426811777521 1758.169264640077,1351.742099058465 1758.1165445689112,1350.631566770142 1751.2623527821852,1329.076336724509 1751.3278887822526,1327.484691910504 1775.4002810311504,1331.9613880508114 1777.4624804978957,1331.951956904959 1800.546881137765,1319.559529958642 1800.5859114666237,1319.1315109616844 1796.6872476445278,1317.8672107239254 1795.0741882311413,1317.7432505213656 1793.2892788622994,1308.9369563419605 1792.8057688177796,1308.1949603819521 1800.2864847645396,1282.5393097432097 1800.4816364089493,1282.1579357048613 1792.8311094044475,1261.7074095752323 1792.637996657868,1261.5816206270829 1797.090949404519,1240.8173683378845 1797.1095907555427,1240.6259711695602 1775.8526250666473,1202.7404184008483 1776.580802844488,1201.6888971132576 1766.3472836266737,1198.3410713780904 1763.831575040007,1196.6900576828048 1760.9156599467387,1183.163320303429 1760.1065088000614,1181.3683808435453 1764.4770318222,1179.094350300962 1764.3334351644153,1178.5433662268333 1754.4584706844762,1161.0711494714487 1753.9417557333363,1160.3106746112462 1764.3013953422196,1140.0941997187329 1765.751634204411,1138.895392003702 1766.9341949155787,1124.7267589739058 1767.3577031111345,1123.116097799968 1773.5413888000185,1115.826842600247 1774.30189767119,1114.914713360893 1820.1229212444741,1109.0183737891493 1821.0322696532821,1108.7472894032253 1822.1903635911876,1097.6433307548286 1823.633611946716,1096.0491051395657 1819.7597061689012,1088.3165416845586 1819.903011555667,1087.654726958368 1851.3666995200329,1037.2380802435218 1854.226399288862,1035.3506536615314 1919.6167637334438,1065.0349277262576 1919.7478357333457,1065.1824127129512 1926.4866841599578,1059.759126600693 1927.613903360092,1059.6543557186378 1936.8273911466822,1014.5555055323057 1936.742339982302,1013.514774298761 1925.9798724267166,1000.1193033104064 1925.3128615822643,998.0880748400232 1889.1853405867005,971.4761622081278 1888.2325927822385,970.7870037703542 1885.6580474311486,964.2479878574959 1885.2205582222668,962.4166145399213 1891.3459896888817,949.392773742904 1890.8222842311952,948.724240668409 1918.6637246578466,928.216919310973 1919.366561848903,928.1521293107071 1918.0511815111386,935.3706972518703 1918.1513787733857,935.5952051166096 1942.8855389867676,946.490083701734 1943.2598223644309,946.4091029567062 1951.3929856000468,959.8056102288538 1950.9153009777656,960.2199360440718 1957.2382142578717,960.8740383956465 1958.7842813155148,961.6864901777008 1956.9373311999952,965.2354205668671 1957.4097729423083,965.8940064683557 1972.7620906666853,964.4904603566392 1973.9830991644412,964.6865974693792 1999.895451022312,933.3519157901756 2000.4002238578396,932.0008020437672 2012.7335165155819,822.3325727235642 2013.852871395531,820.1259353286587 2048.218202168937,778.8182769211126 2048.928903680062,778.1123031260213 2091.0228221155703,749.9286714239279 2096.1888065421954,743.6991726194392 2062.9145773511846,718.9352287414949 2060.152162133367,717.8980451579555 2024.4970828799997,719.9944749863353 2022.0410848711617,720.4862661426887 2008.5799904711312,711.6901531880139 2007.4731602489483,710.9812605294865 1982.5185078044888,686.2455936362967 1982.152962560067,685.8217403086019 1984.2288517688867,671.1791531168856 1984.0453509689542,670.4642731987988 1983.4584396800492,670.3399460179498 1973.9015432534507,671.4327614993672 1976.6738616889343,662.8657706314698 1976.7667771733832,662.5743122597924 1961.4799954489572,651.3395799298305 1959.5928499200381,648.514475856442 1982.449185280013,614.2192807516549 1983.6020363378339,612.4412986290408 1986.3251299555413,599.2172720708186 1987.991783253383,596.4297968588071 2007.677923840005,587.1546296350425 2007.9892926578177,587.1798650403507 2008.826405831147,548.4432442326215 2008.8686401422601,548.4319764314569 2003.4737166222185,532.1110837450251 2003.355751822237,531.8099854110624 1967.7300909511978,566.9185022981837 1966.6957872356288,567.4164964585216 1952.8767206399934,550.5665383264422 1952.0302867911523,549.3424128959887 1913.653279004502,547.1185975469416 1911.9627414756687,546.1342342823045 1896.1245835378068,529.2794809329207 1895.116202951176,527.3092370957602 1885.6868832710898,494.612136899028 1885.2225971199805,493.76143223344116 1873.750010595657,495.01652476063464 1873.4351465244545,495.4659940034617 1873.553111324436,491.42524585087085 1871.833737955545,488.29691704257857 1845.8998320355313,483.77137817273615 1845.6406007467303,483.7339580047992 1836.5858557156753,466.98035059153335 1835.9602053689305,466.69945218082285 1823.887891626684,474.80297837010585 1823.1946663822746,475.16817778523546 1800.9001929955557,461.2329078853945 1800.4935785244452,460.6774084357312 1792.7460582400672,474.64833201421425 1790.127239680034,476.8873120229109 1785.6014691555174,474.2799756760942 1781.7840699733933,470.45705850655213 1775.815924906754,479.1713545923121 1774.4868548266822,479.6830742411548 1746.6826971021947,481.0108346170746 1745.1573102934053,481.4021729787346 1741.3180657777702,470.0237693026429 1741.1797120000701,464.5077107750112 1745.7334445511224,449.88637124409433 1746.8714407822117,446.46615239570383 1738.8300279467367,440.77859551121946 1738.694004337769,439.11283887247555 1755.9404580978444,394.87861364218406 1756.1417264355114,394.3743629484088 1762.2359918933362,389.7580245726858 1763.402532693348,388.62410885840654 1766.0464005689137,371.952523396234 1764.2463451023214,370.0620555594214 1755.7342381511116,366.7407287526876 1752.1644194133114,364.9381785019068 1745.1005124266958,377.8958204196533 1743.4504615822807,381.8069593643304 1728.4581549511058,376.98421864188276 1727.7206564978696,376.19846086692996 1718.562510222313,381.3180144416401 1717.4679133867612,381.63194968376774 1698.9995773155242,372.94624164130073 1697.6332245332887,372.8028000674676 1685.2719698488945,358.59034063870786 1683.9694054400316,358.4514006815152 1639.1288004266098,374.53401629661676 1638.3385819023242,374.7992457112414 1631.9579969422193,364.5209193803603 1630.4599896178115,363.032763875206 1611.949710506713,359.81733902334236 1610.309854151099,359.462773286039 1614.9431037155446,352.9564349920838 1615.8623553422512,349.5716911162017 1609.713330915547,334.288488964783 1609.0815638755448,333.5129542424693 1599.8605030400213,329.41010870132595 1598.4140507022385,328.6733568914933 1592.268812800059,333.8350789465476 1591.4686910577584,335.46599715575576 1585.1239324444905,332.1301586275222 1581.2718720000703,331.1967102459748 1584.3651712000137,326.53933426440926 1584.2850716444664,324.4896603533998 1579.1799628800945,325.6667701728875 1575.064302080078,326.49782664095983 1581.22002574231,315.18174231471494 1581.770528142224,312.5765370914014 1574.1794204444159,304.35915356501937 1574.7986628267681,301.91219780483516 1564.4294112711214,308.0067498230492 1562.2262365866918,305.3044481484685 1561.0774633244146,281.22185005038045 1561.0349377422826,280.09729887353024 1551.1480311467312,277.0214503589086 1549.9995491555892,274.7894474918721 1553.9818077867385,264.6372923121089 1551.7969831821974,262.34333451476414 1543.8231452445034,266.7182156847557 1542.4999005866703,268.4164258191595 1538.1640388267115,282.04540412290953 1537.5549909332767,283.44792084535584 1520.2001843200997,280.0503672379418 1519.054615040077,279.4470240632072 1512.2097439288627,258.61283744941466 1510.5928979911841,257.90834131778684 1496.6643134577898,275.6238564081723 1495.2630081422394,275.07871562743094 1481.7850200177636,263.8362375848228 1479.5661166933132,260.78588455717545 1478.5734647467034,250.6619635380339 1482.9489393777912,245.01489364460576 1493.475477333297,244.43492335779592 1494.6120172089431,243.30296135111712 1488.255607751198,235.75098179583438 1484.828803128912,232.57204931112938 1478.6550206578104,229.38720275193918 1475.9895987199852,228.7602483209921 1456.9430894933175,238.56021147337742 1456.0972381867468,238.65364120993763 1446.9842389333062,230.66999375604792 1446.3760648533935,230.43257417343557 1435.409998791176,231.64855691685807 1434.4604549689684,232.23849116946803 1418.5378284088802,206.5349279731745 1416.3364013511455,205.52600718731992 1408.3509125689743,215.5576776912785 1407.7893418667372,216.94978779775556 1405.8957883734256,234.29128746065544 1405.210427448852,238.11924063175684 1393.2211259733886,249.46729908051202 1391.2098989511142,249.89560983184492 1366.5878781155916,246.06786300067324 1366.0982513778144,245.66075757623184 1357.1932196978014,254.39575559692457 1355.1889831823064,254.7482352691004 1344.375251911115,226.01318271056516 1343.680861582281,224.75880130275618 1350.2140726044308,212.13469219155377 1349.6399772444274,209.9399447963806 1325.1510673066368,216.2248444070574 1324.666974719963,216.36522902478464 1327.511237120023,222.074879358639 1328.9268147200346,223.73281216225587 1316.3313780622557,223.81947751133703 1314.689482808928,224.0144744210411 1293.1249348267447,237.8732534397859 1292.0880096710753,238.6067006709054 1285.688492088928,232.31657722120872 1283.0347209955798,231.79750756704016 1268.8702068622224,241.5549080221681 1268.3948524089064,241.4953304353403 1247.4017783467425,230.06109776895028 1244.6580044800648,229.74829879991012 1239.5727021511411,236.56703424232546 1236.6296988445101,236.24386339460034 1231.7876078933477,228.49980667850468 1229.409670542227,227.99381778179668 1219.6963615289424,231.086605821969 1218.9804171378491,230.22133371955715 1213.382186382194,242.32625576737337 1213.1025661155581,242.22018997208215 1205.7686508089537,232.25474029232282 1205.5469934933353,232.13558002957143 1212.7320692623034,224.48345933156088 1215.9509063111618,220.1849199195858 1210.6491895467043,213.0009387449827 1208.9181653333362,210.61254558037035 1211.1522147556534,199.80644421995385 1211.1350297599565,199.50398486619815 1198.1760867555859,202.79354641935788 1197.8082113421988,202.71635266480735 1186.4704833421856,191.59700706065632 1185.294621866662,191.2895703986287 1181.088375751162,199.41053838422522 1180.5186494578375,199.3559150598012 1169.0425676800078,190.6543805062538 1168.3135160888778,190.03137796453666 1159.9822884978494,171.88542361021973 1158.4851549867308,168.31230831926223 1165.0713773510652,159.99151799204992 1165.885771377827,159.07178233365994 1164.1419312355574,153.02093587012496 1162.1653654755792,150.97189099050593 1157.449103644467,147.87164683127776 1156.2799414044712,148.1529553916771 1157.6777514667483,157.41832537634764 1156.8193755021784,158.83699401421472 1145.1300832710695,159.24516431509983 1143.4523616711376,158.97380339261144 1121.8776192000369,133.8387212633388 1120.9592413867358,132.3936991210794 1111.7247820800403,136.4790229635546 1110.8908728889655,136.66100256162463 1098.42476060451,129.4422116865171 1098.3490301156417,129.4390506473137 1082.2848457955988,113.31399458064698 1081.279377919971,112.7856098106713 1085.2843556978041,108.93333007115871 1086.8234322489006,107.66382416983834 1078.3949201067444,100.61569666583091 1077.4217833244475,98.88637316174572 1062.965998079977,93.49688406521454 1062.6013266488444,93.05155537615065 1052.3229516800493,99.3059465107508 1051.9903200711124,99.3353030657745 1032.6373936355812,87.28794462932274 1032.0956293689087,87.49390340584796 1027.65461873787,73.26467602001503 1028.706107448903,72.08259170304518 1023.4483726222534,73.88710836914834 1021.6506473245099,73.67436137248296 1011.2746965333354,51.861047850572504 1005.7425843200181,44.85403526423033 982.0281642667251,41.39584643638227 977.1487906133989,39.33355622238014 968.3704618666088,26.651285502011888 966.7410912711639,25.26925658422988 950.2866036623018,19.657017870806158 949.3781290666666,19.326748804887757 935.4457580089802,5.211006591445766 935.2843938133446,5 928.4689410844585,8.899748402473051 927.8898941156222,10.10205511469394 929.916849777801,35.50256891688332 930.1545270044589,35.855853814748116 925.5230250667082,31.699072919087484 925.2876780088991,32.00402366963681 920.6544284444535,54.12469265895197 920.8006465422222,55.02951158763608 911.3375394133618,57.147667646291666 910.1034237155691,60.15524228900904 896.2202774755424,42.67251403309638 895.1038353067124,42.15344519959763 866.3460559644736,51.91977371589746 865.8616721066646,52.20301285979804 871.9632193422876,62.216432405868545 873.9182310400065,62.724160668381955 866.5493631999707,64.2387558465125 866.4500397511292,64.24011098215124 869.6907221333822,66.14361652417574 870.7535704177571,65.92092439788394 872.698387626675,80.775301456335 872.9791729777353,83.83584788662847 837.972754488932,90.62887913302984 836.4861067377497,90.36782106559258 842.7554261332843,106.10572252760176 842.6852297956357,106.52212063473416 840.3320504889125,107.75143883051351 838.7536523378221,108.86197418998927 832.3139393422753,94.84460754640168 832.2542287645629,94.7402767026797 815.1123413332971,79.55576834670501 814.6597060266649,79.24139870755607 789.1752314311452,77.14378280576784 788.9783321600407,77.06518957018852 747.9021149866749,116.42421303736046 747.1121877334081,116.075122915674 742.8348714667372,122.81250887818169 742.4958318934077,122.64496865478577 744.7619211378042,136.62036196968984 744.4380276622251,137.74068484985037 722.7138631111011,132.74863357061986 720.1894163911929,133.48424015415367 704.6320438045077,151.22971589665394 700.5000718223164,156.38660162629094 696.9270491022617,169.39499461150263 694.9635905422037,174.3934320929693 697.848339626682,176.67386629385874 698.6123437511269,178.156519511831 696.6777210311266,190.2264050382073 696.8003461689223,191.40198121074354 705.367212088895,198.19392474065535 706.5264711111085,198.5762897587847 706.9566785421921,209.3616870303522 707.1620246756356,210.54618841398042 722.4022030222695,202.5542908340576 723.9771059199702,202.30194362142356 736.7959475200623,207.7370498770615 737.2631463821745,207.78851120028412 736.4580730311573,221.0263082284364 736.4851612444036,221.26960606779903 747.3460784355411,237.54647369578015 748.0492068977328,238.23794627853204 746.6374158222461,251.92567402590066 746.6144054045435,252.26145872625057 765.8167446755106,262.0815789955668 766.3069539555581,262.142504877178 752.9512996978592,267.53595763636986 750.8285158401122,268.11947692593094 757.1193892977899,283.89692284865305 757.6145501866704,284.96414501289837 743.5467380622867,295.90501502226107 742.2249497600133,299.3672986479942 735.2769686755491,297.42701873910846 730.7616839112015,300.5156655010069 727.3578897067346,312.19888353161514 725.8785237333504,315.0806750085321 700.7796920888359,314.7427308637416 697.855330133345,316.24655573652126 694.0530770488549,307.89259415853303 691.8886414222652,303.80821865430335 676.2354406400118,311.29558049340267 674.0311008711578,312.37575361930067 639.4545985423028,294.1492602399085 638.7270033067325,293.9430449898937 640.445794133353,304.6095780652249 642.857227662229,307.05289393966086 629.2656438044505,314.3799704791745 627.4495684267022,314.9787052682368 617.416443733382,295.9253205077257 617.0127419732744,295.9645777744008 620.3376017067349,282.0463066461962 620.1310904889833,281.5368316458189 606.9528203378431,286.4388434253633 601.0082682311768,282.0715772974072 591.8958515200065,306.05977844668087 591.7866248533828,306.42435748910066 567.6495704178233,332.7171147027984 567.1337292799726,333.2986553318333 567.8287021510769,342.6743745114072 567.7430684444262,343.79093441553414 559.5341747200582,359.2872946104035 559.3049443556229,359.55660244298633 566.6321604266996,362.46709071006626 566.8663423999678,362.809923106106 558.3871490844758,371.26959321286995 557.1527421155479,372.5650837927242 557.3513890133472,390.4535260502016 557.3898368000519,391.17608749790816 555.556576426723,391.8161071599461 553.4736967111239,392.6730720603373 548.9406444089254,380.62564130075043 547.2774863644736,378.355002853903 532.7902438400779,376.04239153518574 532.2219739021966,376.2110907501774 496.8176790755242,419.41680700337747 496.4553378133569,419.6833348941873 490.7044809955405,408.6052418004256 489.52046392892953,406.9383379674982 464.7685361778131,393.29143780411687 463.611024782178,392.6572858951404 404.59833258669823,435.91837455076165 403.6444196978118,436.6326687615365 399.26544981333427,430.8280588310445 399.05981240887195,430.76943473133724 393.9701410133857,435.61849655071273 393.4487657244317,436.47889728832524 365.45877703116275,431.62399216671474 363.0423918933375,433.02419646893395 360.8220322133275,425.4138314285665 360.1180299378466,423.9400704827858 353.7534648888977,429.5008955550147 353.0602396444883,430.30449996882817 355.07991352886893,440.54005128121935 350.7991020089248,442.34919308207463 349.41469041781966,440.62167041376233 348.839721244527,437.5467274566181 319.24482872895896,439.5313084368245 316.6236799999606,439.62149573792703 314.7470202312106,467.1909114427399 313.9722390755778,469.17837946582586 300.53706780448556,462.01114581199363 300.18637738667894,462.07787755620666 301.8346806045156,473.2492960152449 301.93021752894856,473.82369989028666 274.25625799119007,486.9385438748868 270.3715751823038,488.11703339393716 274.8093818312045,479.00634165713564 273.3815708445618,478.4450262323953 268.0320856177714,496.79681426729076 268.46316686226055,496.9708301393548 259.22929009771906,501.8630538833095 258.2584834845038,502.75925846019527 251.87848106666934,483.2984408804332 252.01712611562107,482.20423409115756 248.00049749342725,482.97518382035196 245.85266432003118,483.8362998946686 243.4732706133509,494.834392527584 243.32938268443104,495.65218309813645 237.88785578671377,486.3867164537078 237.2330783288926,486.1797808116535 218.16355868440587,488.57102517492604 216.35563889786135,488.87939641292905 227.2238378666807,467.4213107713731 227.90890752000269,467.3775754967937 227.68288113782182,449.48325264803134 227.08111502230167,447.82793348352425 213.9249814755749,445.97780300537124 213.02291484444868,445.7248348867288 184.0006613334408,470.97240552597214 181.89681009785272,473.3286486028228 144.1897258667741,475.1235423340113 142.98794126231223,475.24707881337963 146.27085795556195,480.2525018347078 147.3153561600484,481.2001919763279 135.25585834670346,494.72619508957723 132.9513213156024,496.5109951511258 136.4343412622111,499.26773650746327 136.4494873600779,500.077846697357 131.49583957332652,499.7144921364961 131.2118502400117,499.95838155481033 133.82600846223067,506.6501322174445 134.7100162844872,507.3123537491774 129.11731967993546,515.2588556990959 129.0957656177925,516.166274837451 138.69635271118023,520.472520086565 140.5167971556075,520.9399677553447 151.03896604443435,541.5869052599301 151.09925916453358,541.6928258836269 127.29891413333826,546.9694109084085 126.15567502228078,546.5277096902137 114.41278890671674,555.9875828693621 113.65752291562967,556.9367476124899 118.09678591997363,582.812294031377 118.05629923555534,582.8474440429127 122.87217578676064,585.9897421300411 123.44219335122034,587.3191103496356 118.43291278218385,614.0291373830987 119.91839544882532,615.607953137951 90.10679722670466,623.8262620585738 87.13670570671093,624.2484332959866 67.91863779560663,640.0466036198195 66.81413774227258,640.670126992045 70.56716600898653,650.4552465386223 69.08576113777235,653.7988458951586 48.634742613416165,679.067902853596 48.11569749342743,681.0876797509845 35.27996216900647,675.2409060165519 31.02711267559789,675.7120770844631 18.770715591148473,684.8704320818651 17.7134014578769,685.9329962562188 18.109821440069936,694.5328647597344 17.93593258666806,696.2836057736422 23.388819057843648,698.644629226299 25.37062769779004,700.4070477141067 22.351020089001395,707.3615485522896 22.979874417884275,709.319362129725 11.46942264889367,716.5708213043399 10.86590890667867,716.5374942360213 12.07468401780352,739.8760079758358 12.15798755560536,743.4478995382087 5,748.3589300892199" stroke="red" stroke-width="3.8867155492264525" fill="none" stroke-linejoin="round" vector-effect="non-scaling-stroke"></polygon></svg>