<svg viewBox="0 0 39584.081720942355 88499.28223096272" width="1000" xmlns="http://www.w3.org/2000/svg"><polygon points="8.052550000000338,69098.66957030704 149.37263277345482,70561.76728031653 165.46681801786326,70633.76262946808 211.51823704000708,70773.7509997329 238.02099544005614,70834.34880746584 652.2233702667072,71713.55094232337 742.023418906705,71904.14598521157 1077.624536773401,73101.21835015013 1082.9853815734168,73119.78672811526 1477.6760872088853,74401.00366451123 1660.7443496088745,74967.2128886409 2296.523357893435,76164.33784731876 2376.883018551256,76314.2720676297 2582.2081803644323,76832.938412155 2688.9471004712177,77102.56932653821 3021.465696168925,77874.98843060943 3045.718967777888,77933.04210904261 3731.189118889022,78781.23349323476 3891.9771801867537,78975.7547002332 4170.49265552892,79612.45437980627 4240.564620542318,79745.65136965804 4297.38753652454,79828.33758577958 4373.179774889002,79917.56316675208 4669.795419617883,80212.1975456725 4766.714716755647,80308.70977011733 4880.425793448907,80507.7123207771 4978.670082871198,80679.64675555975 4784.976250337881,81101.69104101378 4622.708823066765,81511.07755979788 4418.881086035726,82093.47107482408 4361.550193235606,82436.271869507 4796.247859795672,82685.05598636434 5164.244733182226,82895.42509828098 5693.667842871255,83407.8906180445 5729.98469008899,83442.52332650343 5814.554092115584,83549.55856772835 5864.30086772456,83611.969403294 5943.8956504445305,83692.18383099503 5976.2308215733865,83727.82448022565 5998.616754088995,83772.36576201368 6015.302802231141,83840.5514888542 6018.515522586742,83883.67714830415 6023.987632951212,83975.04733936672 6025.9775971822455,84008.27243211374 6012.157074231167,84220.94490655497 6006.078828684498,84408.23665785286 6063.287678888977,84581.30818753954 6103.084924613337,84634.53103849982 6125.470857128945,84718.77178136536 6169.9392176623005,84923.67178008604 6317.395217662306,85166.33228273023 6572.78347551122,85586.48431702986 6658.875934177871,85767.11176155516 6715.381655920042,85875.05951294946 6673.1100621067235,86025.3397083706 6230.620602053452,86403.05347864315 6189.357388826764,86668.84796679582 5884.412555404568,86964.0990694492 5975.838479386737,87448.35019721111 5966.858591031261,87596.53415370474 6078.512419866725,87894.83914769828 6421.241524364428,88320.2307282651 6657.804930302293,88481.69911683697 6673.322690017849,88468.38054544662 6839.875880417858,88423.31625746432 6902.416157040141,88398.07799389775 7027.330685751142,88332.32860647477 7056.561198106712,88314.3051823939 7269.056580862358,88331.9512757331 7309.109271351226,88330.33486449564 7475.028947084538,88394.9710982593 7509.441172506755,88406.595589022 7666.5790242400035,88443.394024284 7702.3645929511185,88450.48791551028 7928.109898551113,88481.75516529844 7951.590719173408,88484.71297355424 8105.687700506744,88490.7176251165 8155.732446462243,88487.82104613315 8222.684024062219,88480.10682454842 8288.997717928934,88468.04066537143 8430.922479528912,88426.58071773706 8437.691620151258,88424.06548248799 8781.464349040041,88256.708242472 8796.879872595637,88247.3273673481 8974.719818551188,88211.60823545555 9040.249993128913,88195.44672865068 9087.426301182342,88158.25379930189 9274.67634292457,88071.3789769086 9299.301276471095,88057.75368967126 9466.051366142325,88061.87874659206 9501.676444471093,88058.12897681232 9570.925859866758,88101.5034158304 9649.426045751177,88147.50365493292 9827.926012044518,88211.50364262084 9899.676281200002,88230.7539400819 10422.176167848964,88263.25368425096 10500.626546373453,88282.91526676432 10726.973326817832,88242.76940144584 10774.399254213415,88229.23671630645 11358.651237857855,87519.74136123792 11965.668971546787,86781.08413250497 11987.715573217814,86680.69358439799 11996.731870462281,86640.10087904622 12020.46318424002,86482.56804423706 12027.328444328952,86414.6994917829 12029.75473268456,86346.5017963076 12027.72166032889,86278.26823394603 12019.950547084423,86198.74754302585 12009.035162195658,86131.31207450191 11950.237719351171,85935.191393755 11922.220351173404,85872.81642591415 11890.173247173407,85812.39958327977 11882.809913484474,85799.75539403313 11871.301209342295,85804.75378976003 11865.551226337884,85796.12875621757 11789.051199173417,85649.37915096592 11758.801237929008,85599.62871027351 11741.801199528949,85515.3790598374 11733.801438462317,85485.50414896241 11688.551306266781,85354.87879106167 11665.48904223121,85297.62882080299 12258.17623725345,85080.0035872366 12496.176192311199,85059.25385272197 12565.926302746731,85049.50395858634 12734.676259866661,85004.7538092412 12803.426145306767,84978.003986684 13015.17616528899,84857.7539379274 13066.676101715631,84821.50384393145 13119.67608436451,84777.25367090965 13165.426329057875,84731.25391584056 13260.676351457812,84622.00396340407 13305.676281768923,84554.00391672712 13515.801300222265,84576.37913663147 13737.3013293779,84599.75378837399 14069.426126533399,84952.5038042209 14201.676318177815,85088.25407499247 14387.17611181338,85215.50399304464 14465.926208311204,85253.5036663283 14586.10146477339,85297.78306592346 14738.926173893364,85330.25369848261 14803.42612255118,85338.503796111 15081.676249911172,85322.75369356884 15139.676192453458,85308.25386014613 15214.676173395572,85285.753663137 15275.926118995623,85263.00402011487 15442.426298053448,85175.5037214559 15473.426282408975,85154.75396329127 15580.92629392897,85069.00379394667 15628.176293573437,85023.00367302922 15731.176166426718,84901.00367166623 15831.176238106658,84772.0040262606 16957.124622248906,84174.4093813897 17197.613197680075,84046.41388646126 17292.789528488975,84009.32938100953 17461.442783600047,83917.25034705547 17522.98196141338,83880.17799991099 17782.953370195675,83665.6473568152 17853.091162480043,83606.83961804453 18037.22314697793,83379.23213935152 18248.184404791195,82982.90026267458 18306.59562214229,82883.04908781566 18408.675078284556,82474.33175763852 18417.637490373316,82435.93848547954 18478.49917158226,82129.72628194388 18485.799881982362,82077.66994782138 18508.13513332452,82031.21707676337 18565.323594551162,81830.07639787227 18585.010026409036,81757.65316375528 18632.43974032891,81618.18216512908 18638.15011046231,81598.90294589891 18688.704580862286,81514.4995837344 18738.246010337818,81429.75299449949 18791.083463706753,81293.04188173832 18813.81863028449,81226.85966944983 18845.573880631106,81120.19485802084 18861.401552808915,81042.21006319704 18872.300626515622,80921.84235514325 18873.81785773344,80885.00315162391 18902.698262213475,80798.1346248899 18954.41257417782,80587.36997832786 18974.71475316454,80548.905602621 19042.293437466702,80464.04029612712 19256.083229040007,80002.81730898898 19293.230198924524,79909.09832816172 19767.895504808963,78528.09134197686 19900.39618960894,78144.37983120311 19918.990063528974,78076.59507701462 19931.854634693336,78026.67539665321 19954.244062462334,77868.06981716477 19959.993462924474,77799.16059598685 20122.341572293408,77455.99719922928 20155.044910106786,77332.68034868824 20179.843732506713,77170.20927835777 20186.13810121778,77074.09354194833 20163.86139536903,76880.19279019031 20142.203640631145,76781.47662549673 20071.042030391145,76536.27194237013 20044.360140257842,76450.55151070803 19999.674491475664,76355.7450298435 19958.154668400042,76283.14864815338 19843.751531546797,76102.45137717752 19430.341996684532,75430.8004747892 19482.86109072899,75235.5005522646 19492.818193662308,75164.03821853406 19498.093113484538,75092.05429694054 19498.659635795608,75019.85067030226 19481.662510106784,74852.26726019531 19378.791379084556,74279.12815220209 20207.23341144014,71998.0797785348 20223.519835617837,71950.21765858083 20243.285493217852,71879.58476842134 20258.40974566222,71807.7798405329 20284.99493378678,71616.2633044975 20349.734889840103,71131.4208974874 22020.01596930679,70383.2824364054 22082.85188610675,70348.6580444737 23997.557487528982,68889.42408841147 24054.9480909067,68842.04954086765 24786.459466551176,68128.7231843037 25042.518813040086,67853.09284052494 25500.79545858675,67280.21727513857 25844.645956862347,66863.53473742199 26620.14509570678,66316.73418661984 26649.96251935114,66295.08070733518 26816.573963973417,66142.40087549135 26865.133227262275,66084.59340464658 26986.94863135121,65893.8109848868 27019.013211617923,65825.32314569046 27042.44597250675,65766.292735505 27225.550061253343,65282.76610550159 27430.412393271203,64706.77846436549 27448.71033574231,64658.88802009061 24946.688578586654,61183.37212922468 24737.303680026766,60892.17142648206 24794.08756568013,60636.81180381068 24800.500190462313,60628.23377278625 24876.716519564485,60252.47854219293 24876.299128062303,60249.513769725076 24883.331286497858,60253.850094068825 24884.3012192979,60250.42678107318 24946.162834231138,59834.66495979772 24964.387376382343,59815.56651180526 25050.36798694227,59115.976385671034 25067.498514800078,58976.590614544606 24987.659355617805,58836.21091122992 24942.222518640083,58772.37064502467 24839.252355440032,58654.27452724529 24782.160304951227,58600.53752000051 24657.981235795633,58504.86334925398 24591.431612328954,58463.34746779382 22934.425505022264,57558.002809725906 22287.426150995634,57214.540620370506 21477.425366497926,56614.0032888788 21260.0372116179,56451.17701534441 21052.787912844542,55582.00719645366 20928.580881662296,55061.10236891403 21026.163985662257,54708.823455062724 21042.916443617876,54630.55089862345 21155.710598853395,53790.60799273863 21257.18275472892,53025.986231128365 21506.213729306684,51987.04930014486 21520.44523579567,51919.669085259695 21695.011294462347,50727.23365596621 21783.066920417805,50122.951174177666 22435.179538800126,47425.46164479395 22444.866924684473,47384.27417581875 22724.105626195647,47060.24134719916 22776.206746195654,46995.38858870944 23975.78642832893,45391.63639040143 24409.704653395667,44838.59148810871 25706.845594195627,43253.506766591425 25754.07229215114,43209.404220894125 26966.48246672887,42817.752747148945 27044.28971864013,42783.54969083061 28140.883800204472,42151.23538362849 28211.38393375124,42115.57159113613 28437.19273645347,41759.334727530804 28575.64758530676,41541.44747354378 29263.28042441779,40755.36872175484 29435.79942971559,40559.00641833953 29788.831667226717,40439.78711436564 30141.86419600898,40320.56731617954 31370.642933217903,39603.43751669492 31415.83044212449,39576.83787206674 31651.6059597068,38789.34364592776 31671.82308752891,38713.64286846979 31689.00371401778,38628.40599313527 31700.59193517347,38542.19356361803 31706.528040417914,38455.36383017615 31701.344870995592,38281.35480880909 31690.22996539562,38194.918543758075 31548.53093890669,37634.3489871622 31498.595419617814,37439.05940524812 31804.728639173416,36880.2919368633 32800.616607884505,35859.40741056073 32814.80005464014,35844.72022757432 32927.7768368623,35709.30579220128 32977.44875579558,35636.32124248598 33073.686187262276,35455.63168485652 33363.60288770669,34796.78648020697 33440.13728486232,34571.722040260065 33458.45532504013,34484.78979284174 33487.165918462306,34245.92787683263 33493.503977840046,34161.98235056104 33494.552553840076,34072.952197725215 33489.780076684525,33984.00421212372 33479.19674086231,33895.520597782306 33462.841867973424,33807.8775225275 33422.44547757341,33663.24919289173 33103.88517606221,32728.368422699597 32723.509862995685,31512.171921255038 32971.61896450676,31159.652588268364 33090.93526246222,31075.370505051425 33630.21498655118,30694.437824377877 35740.94167668452,29637.941729857324 35817.79647206222,29589.075185420894 35891.33660219561,29535.293488036114 35961.24603792895,29476.817432068317 36089.006285395684,29346.775934707344 36146.306594728936,29275.752485716686 36198.88685570678,29201.115381823533 36246.51550779559,29123.175981616572 36346.9079216623,28904.26461650562 36524.27600841781,28409.846912485984 38054.347913129,28150.765293136617 38143.76377517344,28130.120927654993 39305.68355899558,27668.159203296265 39479.26308240902,27640.42632671175 39445.940793484544,26819.938335240848 39442.68001339559,26800.982922931347 39529.20238822231,26069.35210130972 39576.029170942355,25779.2915914091 39538.73743931563,25530.831831472547 39551.37744045337,25405.048827340855 39559.98071526233,25319.871352386574 39442.40068440009,24991.354860847438 39430.004185911246,24943.321379703208 39440.53363657787,24865.03711581658 39448.087752844534,24813.3677592148 39455.30545097785,24802.64661955423 39476.40309136906,24771.315124429093 39507.53473026676,24688.53093401491 39510.90298939564,24679.577087654005 39479.90242249784,24499.267245133728 39479.70319305789,24498.34704078568 39424.30517535119,24425.765841427346 39423.14620760011,24423.57582120868 39424.29032052446,24381.068144445977 39424.19711376899,24378.76364512791 39439.70089247122,24346.65003186636 39440.36673823113,24342.556547582935 39480.62856137785,24347.025399860024 39504.073846924446,24344.58585027003 39471.614303031216,24272.567083050177 39469.364524968994,24267.379553915787 39446.86441417781,24168.255227677204 39445.30203593776,24163.379879342712 39398.86439142234,24101.25521970002 39395.11456713788,24087.317451033305 39378.96125385792,23995.857874437555 39378.64871995556,23982.545828850445 39394.77377993786,23950.98285095094 39396.14887085345,23946.295868231187 39402.77383227563,23889.04587604801 39401.961185875676,23886.608062556857 39379.14883245339,23854.795686290687 39374.58636176898,23852.233144705504 39350.33629414239,23866.92084877516 39347.83631419563,23867.170799488405 39318.898820577866,23856.858263342845 39316.273885324576,23855.045653585665 39277.83629314681,23767.17037245378 39274.96144728011,23760.670844253706 39217.08646004447,23712.23293327805 39214.83639071123,23709.85780333847 39174.77379700458,23588.429885691003 39174.21135248905,23585.545322263933 39210.7737412534,23552.108099438512 39212.58632137787,23545.6703113649 39204.586269040105,23519.108370668808 39203.023890800054,23511.045872460323 39196.64883999117,23369.10825982617 39192.398903208996,23353.67077815495 39167.52376777793,23298.35812046696 39161.39891885335,23287.357912793726 39058.14884411565,23128.92085987187 39048.21125634676,23111.232880239462 38991.39882612459,22958.48295663341 38987.52375526235,22950.73300956443 38931.27376955559,22864.35819623733 38927.211411368895,22858.54528299652 38882.21118978665,22820.295360892982 38878.961186729,22812.85774345763 38873.27382701342,22717.92052335452 38874.02385012454,22708.73304952288 38881.39883465783,22655.358364789252 38882.71130228448,22650.045631373156 38899.64871739559,22613.10815437694 38899.27385147566,22598.857898881397 38872.2738932889,22560.10829031092 38871.39891487125,22556.2953831169 38888.21137467572,22502.483251301193 38887.273772969005,22498.73317692391 38808.9614569512,22389.29521610713 38808.14881055113,22385.670248284907 38809.02378896901,22365.045798914594 38810.39887988449,22361.4829942777 38841.89868546671,22329.233135686693 38844.4612887023,22325.92026041515 38854.33625318224,22288.983389196655 38854.64878708448,22287.86757507475 38829.961230249006,22220.357851541456 38827.83640749343,22215.23277568267 38743.5204113334,22158.419969069742 38742.24610022232,22157.727222957037 38674.30536592889,22175.219518429512 38672.49220326226,22175.353585673 38646.238190391196,22131.40452616391 38645.458748897865,22130.628766151465 38571.21199504889,22140.31255248745 38568.31676020448,22139.681016872608 38433.80106185782,22025.785746610578 38426.255683724514,22020.462587065267 38272.32851344892,21965.266861203447 38266.48037208009,21960.309972813964 38260.48455625782,21933.324356224068 38260.67184358228,21930.704391032486 38282.95670502223,21886.764926290285 38281.64045087118,21880.626230295777 38258.66032528898,21826.14572601326 38256.734149431206,21823.08874392396 38211.24488365334,21800.841932707262 38204.05048720897,21794.95170314351 38171.60142907556,21727.543964767217 38167.85073097793,21719.03919840147 38166.346315689014,21691.410060818278 38167.96520052452,21682.065228640655 38188.79428895118,21620.663625512592 38188.041353128945,21615.067622022092 38160.45914399121,21566.168307539396 38157.210597289006,21560.926457642898 38091.22662232011,21496.952609609783 38089.82502573342,21494.12089669719 38106.538453360066,21399.35831665274 38105.98678587561,21395.77008300906 38082.46227458676,21316.333099907235 38080.469688915626,21306.825624290243 38026.945126995655,21196.118428974034 38026.28685428456,21191.91165671483 38059.9044921157,21075.3349354683 38061.358808773315,21058.594011517445 38066.6643120623,20957.183733717102 38067.89434996455,20944.794746784348 38056.802746053414,20832.929913096334 38058.24337296896,20825.011421243107 38138.35836589334,20649.038444029487 38143.3303637601,20641.598965684272 38153.08386818678,20575.814504828042 38153.31805016017,20567.64340564594 38137.9467998134,20526.03252135034 38136.325584808925,20524.06359410807 38095.569765857865,20497.760699674283 38091.71945304002,20492.472020793328 38065.05707807115,20395.210789145523 38062.96021734234,20387.89923503445 38021.62039981338,20301.334182559483 38019.88413272004,20296.496415457077 38019.65431981345,20230.206132716878 38020.03151590235,20216.60770168001 38033.43493862227,20182.39330175004 38034.933528488946,20171.779964356945 38039.452017235664,20076.852573079144 38040.10825104893,20073.938180588622 38056.55254416899,20039.6510094759 38060.57499821342,20034.899635055073 38104.4934388889,20004.848239225015 38123.33547579565,19995.382940412703 38147.32718594673,19949.456561534753 38163.47554761786,19934.42953694993 38234.34967327116,19923.439774653438 38238.18221855115,19918.132196987834 38226.94818306677,19829.015777659515 38226.27534680008,19810.624268002488 38259.57549912003,19762.980096196727 38260.823304560014,19759.8057605426 38258.33322783127,19733.582139979553 38258.479737200054,19731.03043109257 38271.12439867561,19685.683964449476 38272.9014437245,19683.170311874215 38308.930223813375,19719.87130666335 38311.46515629345,19719.415430010617 38404.04480514673,19643.91044426171 38406.51798815115,19642.0503561511 38460.551691973444,19622.566160855087 38462.530296631136,19619.669337694737 38467.410835369,19592.559182387573 38468.65660191127,19581.65257459556 38432.58413115561,19510.503780369618 38431.5512837956,19507.792416752578 38434.64662189349,19482.482700696477 38437.02222907564,19478.704337804375 38457.50907394672,19472.713661240035 38460.11973691555,19471.717268742243 38565.89484091555,19366.661616672965 38569.11688194678,19362.361122772418 38645.48292439999,19321.82973799776 38652.2709976445,19311.379164859274 38654.59446729787,19275.221099625196 38658.09904130674,19242.62969701612 38707.476193875635,19161.234088052675 38710.66590381342,19145.906564227334 38700.15247305783,19028.15631658581 38698.75058520013,19010.28360254041 38711.71710125343,18955.26392659117 38722.58093115569,18921.27083811062 38686.76536152009,18809.969265747844 38680.088262568905,18786.552285367594 38686.20466463126,18740.44085254855 38688.46551099557,18719.676386531937 38677.426044613334,18632.030791544443 38675.56511348449,18597.719922214543 38692.31990160896,18529.525116017117 38700.73064621338,18512.143123483256 38735.77522121787,18480.46282118975 38738.57870566226,18471.771893070632 38739.686409697846,18461.216435519018 38741.941430640036,18422.723434791696 38731.91063611568,18388.292071890522 38733.43311021335,18318.75526882641 38733.68272955562,18313.234996121697 38754.28433524454,18246.069044198754 38761.20202413339,18234.86187004301 38752.0645581068,18202.277150391572 38753.473727742305,18196.211113971105 38788.87860511125,18129.528091062646 38790.06961268452,18122.38726769868 38751.6343506756,18036.161542670423 38744.05023348446,18017.303864442074 38736.016684968934,17991.429534238618 38733.27058093341,17977.608813225845 38734.17206502226,17942.779443375446 38733.05300141345,17932.50529262444 38711.74360692452,17891.867050530534 38704.34211672014,17879.083032314287 38708.15485556445,17822.56294899402 38709.94937688005,17811.79694701379 38743.14350651563,17764.473011153954 38748.910674515624,17760.823449350806 38810.9968594756,17749.798993732984 38814.24191092453,17742.324906570866 38814.914747191106,17728.867820009502 38811.77484461349,17692.53387583446 38794.280519137836,17618.743707562535 38790.69176777788,17602.819133149605 38795.62619167122,17586.670664556354 38803.47623938669,17579.49368134202 38831.32204888014,17573.823745337984 38849.903106871156,17582.4091570827 38929.524395262335,17664.04933909382 38945.09778776006,17672.131765093567 38995.01583078234,17659.78816942891 39004.88438729788,17647.67650291606 39007.836711280026,17637.79504280511 39006.90289609784,17621.883963976376 38991.58349200895,17573.515479074995 38990.75424315557,17560.205565577402 39019.52017808901,17529.763713947876 39021.394507688914,17526.829646232218 39026.93098896891,17480.8159611538 39027.507705769014,17474.543826162844 39023.29883821341,17455.193516052357 39024.25129474674,17448.639388411742 39044.70143945781,17393.045545401314 39045.860407209,17379.096321562974 38994.83553396454,17268.075574722345 38981.65872016896,17246.207497891417 38972.96777275563,17189.01442895652 38969.23833744901,17172.86096565725 38897.557682088904,17011.6194623716 38891.10369680901,16996.129511326522 38876.244792346704,16936.41319565152 38870.987057520055,16925.565577198082 38826.788122764534,16898.24409474872 38815.63768208898,16886.68627904987 38793.99245200898,16834.762005546392 38766.239849271115,16787.439523496927 38681.17528635564,16679.599032861268 38668.64247298669,16658.096795739984 38662.53306143123,16636.93902508667 38669.84163615117,16545.163384079497 38668.75199092457,16527.716025441332 38649.407220080124,16485.662086913217 38646.99782544896,16473.797564368724 38649.83801005348,16408.934670078597 38646.006338586776,16396.773456699244 38569.807485751204,16353.499113793223 38562.49687213344,16348.287904443248 38559.97359049784,16318.009021186823 38558.82772994668,16304.66848208537 38526.611106160075,16228.575670955091 38523.24692482674,16217.921737612429 38484.93749193787,16188.684813924861 38475.19156056012,16177.944356415566 38478.82400258675,16143.813219905685 38472.782748471225,16126.525417785422 38430.4470750134,16080.358662325452 38380.31232628457,16049.000269747252 38309.08226733338,15937.84554956315 38297.34986697787,15921.823473028577 38271.51441069341,15858.644885280024 38264.50555394669,15834.534308683506 38189.37013193788,15697.440264159086 38178.51474889785,15668.855115343613 38119.66225581346,15594.392445225065 38108.86425318229,15571.569681453548 38091.67139330679,15519.570939867495 38085.57071988457,15494.450586893974 38088.08293321785,15432.906857831898 38086.82697218678,15415.143398972024 38061.70687775114,15303.89853464617 38056.50361062235,15292.055971692113 37991.55044411563,15213.107230896567 37981.09177232904,15196.361823698302 37866.129686213426,14977.864621574612 37858.4147882934,14957.601781989826 37761.009650942266,14801.47588241371 37754.69693215119,14782.77956101959 37772.01503860448,14707.68657076647 37775.3498015556,14701.823970321828 37853.26598886224,14639.323580677592 37859.60492205338,14631.51505583679 37855.197698871234,14575.83433570867 37858.43779871122,14555.372363664297 37881.2877261068,14506.21103540188 37881.98794185787,14498.628350046201 37811.786652471266,14416.31566556808 37799.34995856902,14396.82344687308 37749.88396831111,14379.084463346837 37742.03392059563,14372.355713977799 37783.07809794669,14294.080543490505 37784.676593804594,14285.514119652304 37758.00431561782,14208.1879379366 37758.631131048875,14203.244516453502 37799.45102964456,14182.835281388863 37805.95511355563,14175.208906283631 37787.11511554683,14113.979121624521 37787.919897626714,14103.702692065417 37819.61106832894,14062.019072116964 37832.64515928002,14046.694003292912 37905.039428862256,14012.691112039523 37910.02336884451,14008.789560252131 37951.69144891561,14026.16533172151 37962.88354136013,14024.993077520252 38117.65714548456,13946.047084989288 38134.08949648901,13938.994491845922 38236.74683451569,13942.253456071223 38246.67422779566,13937.162477154954 38267.44710089788,13913.740620163298 38275.45123103119,13900.411919080565 38304.47668852457,13768.268954148953 38316.73803721785,13745.460954627051 38325.733071671195,13690.157169706683 38328.16547672006,13683.032659385906 38326.66776066667,13646.034771157458 38327.4946793512,13641.303360258142 38344.44724056006,13636.06111765161 38346.67983362682,13634.653641429177 38345.553779511225,13597.014888611244 38346.42584521775,13594.84238384795 38399.22718096895,13533.312259239989 38400.911310533505,13528.015481769136 38404.05208692453,13512.667028596246 38403.35682278229,13509.635435978154 38360.46860802672,13441.274272617506 38355.21873752002,13434.423574627115 38301.12794456012,13435.127715521929 38296.909173786735,13426.54094236056 38294.09695120899,13410.588565564161 38294.20821677344,13405.247343908733 38304.408822355654,13380.278954800131 38303.47151192008,13374.601673494763 38272.30113396454,13294.93222154284 38271.17624493337,13287.988171597797 38288.09560123561,13215.69714179964 38287.918799671206,13212.808988485223 38234.839300008935,13162.092949806567 38234.3683146223,13157.613980232825 38240.72705424889,13117.064143661264 38245.99673119115,13107.48709698752 38264.35292788453,13099.029476154217 38275.165202800046,13091.142058553436 38331.234017875606,12998.79070777839 38335.58444319116,12990.776847030356 38334.7598546756,12901.627689336572 38335.34909613347,12898.986359879636 38370.908638462286,12840.530428935337 38367.34988802669,12820.82361797712 38353.085176631204,12797.753849052679 38335.34996994676,12782.823755140096 38227.44363522667,12713.210617575998 38213.935937448965,12703.917423014675 38127.1694774312,12730.24664669516 38105.89911327113,12727.482083814946 37934.67364297782,12666.19298956616 37848.34991504902,12644.823303660523 37750.30951540449,12591.834449413902 37732.76421748449,12587.935551785893 37708.50745062225,12595.45515894817 37668.892249342265,12632.367058746488 37651.55025865787,12682.253721764864 37645.56755003564,12693.206647481915 37605.46417837343,12702.397114779538 37584.3222647734,12698.823352842737 37563.4113291645,12671.76268445354 37554.81591867572,12663.089441294112 37529.992046960026,12653.381963824882 37485.32212681775,12641.823460758576 37412.54425318223,12577.165464236896 37394.04591618674,12561.41610456715 37355.78599938678,12548.7868986846 37341.37361353785,12537.717282176687 37326.201883902286,12469.179860447563 37324.3223114223,12460.823865403043 37297.6331395112,12418.539144414914 37294.62256130679,12410.86613044751 37302.32231312895,12368.82382114089 37307.900446177904,12352.910962473747 37327.0992901956,12325.458271681593 37330.03996333338,12320.51561367375 37327.06958054237,12290.565312333318 37328.09776756456,12284.281306298944 37398.1528388534,12247.586748992413 37403.82272230226,12241.162683908624 37412.29172112895,12223.363982878363 37415.30608585789,12214.751422383328 37417.45916191114,12169.104315940902 37418.750949289046,12162.645468715491 37519.94843650677,12074.797448115394 37524.685378586735,12071.524453643447 37549.33448763562,12009.734887111437 37552.74672870231,12000.381798585615 37547.45171117338,11966.449249113473 37537.98161353786,11944.761740098329 37505.772271528935,11916.31948293696 37501.3222314934,11907.82345921031 37482.98088962676,11822.957983100816 37484.24325862234,11817.436839724513 37556.42606537787,11785.12389128437 37566.31588468454,11783.22106377504 37625.42673524455,11808.033337240253 37631.56789535119,11806.14372513935 37684.76332091561,11717.318040030514 37686.457353697835,11713.352113401139 37718.95796681787,11696.33291623168 37721.93767028451,11691.72734706002 37733.35404148451,11658.7357877123 37733.931049555635,11651.612460961245 37717.625692755544,11510.382573378709 37717.3221882578,11501.823850011075 37732.16507280895,11449.025380708365 37737.55533599118,11428.509969535487 37774.53511625782,11378.792848765355 37774.82260084453,11378.03704285252 37765.46143860449,11358.583896329248 37761.2141232623,11355.55878497436 37728.456026480046,11351.36990897861 37722.32214815121,11341.82349899484 37718.56212937783,11279.619835945283 37715.90136777782,11273.640395920112 37642.42386093338,11167.160638726229 37637.9240135378,11160.568573845114 37579.561438462326,11028.879023656336 37578.17586178668,11019.534758518188 37600.03634121779,10917.537284161575 37601.13122932448,10910.38387299297 37579.03715046237,10861.539516843011 37575.12421435558,10850.480274601403 37582.45143042677,10802.771610051946 37580.773708826724,10796.053400772886 37544.97095512003,10757.398498861905 37543.91072827564,10751.264316856308 37556.710054711184,10710.627289429802 37558.0909710489,10697.724340933462 37542.415342391214,10650.775588501274 37538.98620760008,10641.276527624548 37539.8844877068,10601.476728963753 37540.78771942223,10590.923227494612 37563.646676222306,10542.231288867857 37563.615218942265,10538.056533369672 37534.38266768898,10472.162218149955 37534.10421250677,10467.185459231056 37575.81481816012,10366.17824250154 37578.93695320012,10353.474504048034 37578.322079884565,10269.823506676854 37577.67691437339,10260.979419093317 37557.0269576801,10182.239449695073 37557.07210470233,10173.613627065759 37585.12966829338,10092.212853941339 37586.5635959734,10068.028026247426 37550.79899878227,9999.887309351325 37549.87363046231,9996.886346075597 37527.19205776891,9867.289268819237 37526.336303244556,9861.07226961726 37550.39005414231,9792.951262093586 37552.1845754578,9781.256698523212 37540.132941964526,9669.337783004303 37541.17248856006,9663.214349419257 37571.28788255118,9636.49168715495 37573.24318552015,9631.505705970136 37580.53049744896,9534.798275725188 37583.9651663912,9520.358597608487 37606.555279955595,9469.432163191988 37617.52221983122,9450.340316885879 37621.176798462264,9411.363257811725 37624.303302568944,9395.776724272495 37645.02957229337,9351.384103179997 37652.21144408009,9341.980334404303 37720.147518035585,9302.309672008181 37733.52909542234,9290.77282193632 37750.17727832005,9243.919798054703 37757.89829293345,9239.330125310778 37832.14271661346,9279.124558878335 37839.921402906744,9274.248642109189 37857.06532923561,9258.433510420466 37876.367283226784,9205.519002788904 37887.86025872894,9191.905433239852 38012.23913986676,9103.196916571964 38020.786490622304,9088.358459179726 38026.888911671216,9068.950331984524 38029.12179600899,9054.522855141986 38025.04778697782,9028.17087761758 38024.87768464894,9018.169694192213 38051.328888062366,8946.700561753154 38055.718052435644,8933.205440053978 38076.7376321689,8914.598751150217 38078.86012475563,8908.759821827844 38048.64045570672,8836.876388838835 38042.41977858669,8823.328806804522 38046.51650676455,8763.830277067987 38042.52987906672,8750.12893923829 38019.01352336896,8722.413375395554 38006.942957253406,8712.826863399096 37913.41813364448,8668.844875320472 37896.817719208986,8661.33138560367 37823.52225680903,8659.657018967817 37803.30542025783,8644.962152803695 37723.64073247111,8516.317473183299 37717.142473982276,8503.068320545688 37706.07155032011,8403.815566258767 37701.1741178578,8398.075930017483 37527.00739188455,8301.430457938899 37518.52615967123,8295.919454081479 37510.15997954677,8283.36304193936 37504.70971451558,8261.874642043404 37502.120896880144,8208.57529407568 37499.04886047121,8202.046169368288 37451.546037502216,8164.556342556112 37443.63802683561,8157.749932510691 37292.534147440085,8092.645372465515 37280.56028333339,8076.585850748088 37272.05604070225,8061.519932580151 37268.92371117345,8048.002698311553 37270.83182822224,8006.803428569896 37269.63761666671,8003.493922325753 37233.49465830226,7972.888627638138 37230.01163835565,7961.847087200236 37229.791437395594,7916.225236401282 37228.59839092449,7901.956968956714 37190.13662324448,7785.208835178433 37187.82946477339,7769.235793251632 37135.46124916452,7679.63653779446 37132.02658022228,7672.994483041373 37127.254685609,7622.836161357845 37125.03432592887,7604.530169611768 37097.84038118236,7536.779841005016 37095.53001872902,7529.547943985002 37106.700848382294,7501.063757731608 37104.887103173394,7483.939030397072 37088.74019785782,7448.330510793399 37085.14824251561,7439.460900624719 37084.3251103556,7401.326914312638 37082.51398658669,7394.397712494276 37076.116507902254,7379.438798281859 37060.24252361779,7337.828702438128 37042.54081311121,7321.073369041522 37040.84532397343,7317.823204354005 37044.18358217783,7290.016011825268 37042.20322989344,7287.482109509438 36996.65337972457,7278.703951272793 36993.52978832901,7276.326410751179 36962.6399044534,7221.145021794859 36956.57738754675,7217.332521525997 36907.714911031166,7220.214215533662 36904.10868340449,7220.395053796616 36879.672493537866,7279.0929007620725 36874.3221344979,7283.823617442424 36780.51157392897,7300.961934310471 36771.83577261339,7305.024620736338 36755.868872844476,7324.645039804716 36732.39999433779,7353.4090730385215 36652.41519960014,7400.630095821369 36644.30883330675,7404.449660312122 36603.87719910229,7389.228792025795 36595.81597983113,7378.829496879451 36558.0232618934,7241.117444383766 36556.62486928897,7202.159221911774 36571.98563387557,7119.530304826942 36574.10667010674,7107.0317182241415 36560.9356817334,7054.265039863851 36560.9356817334,7043.71783825758 36578.65661613338,6971.568886491557 36580.602015884455,6962.433476985578 36615.73018569788,6921.757904764119 36617.246543102294,6913.974255464476 36560.05895568894,6850.257362490083 36558.2667645423,6844.217681999638 36568.35930854231,6803.362335347891 36571.14211273785,6792.236190537369 36563.33022153783,6748.169765832572 36564.527928346746,6740.0198760537605 36590.93514982236,6628.576643116743 36590.38115216894,6621.042630840646 36561.79930057782,6511.585532065743 36559.17436532453,6506.885534096771 36481.49585524455,6482.297353557864 36474.88458356457,6478.320577978302 36374.39197243562,6358.527993714582 36371.00914975114,6352.243637507054 36360.26648863112,6301.845990786242 36357.9543785512,6293.574321706634 36338.83767298677,6264.293865126121 36335.32232194683,6255.823701298883 36349.9219951201,6107.826538148249 36350.40492262235,6099.3426909142 36325.97834470237,6056.398193405097 36322.60746413339,6051.046448815643 36255.19917343124,6041.057990112371 36249.48792948455,6038.417369892093 36124.03309286232,5946.840820777608 36111.13589933338,5937.849484624836 36084.82217588448,5910.648819369177 36080.51951903114,5906.113660261704 36071.58128244451,5848.836675756349 36069.3481068356,5845.944736811536 35907.322143315665,5832.823931285791 35903.90815462228,5831.080413948017 35879.96071768003,5778.880658873386 35877.04596767118,5768.2606850201555 35846.152588542296,5730.352902370418 35835.76061784008,5712.937802093074 35679.78202512893,5594.124139258725 35671.67070722671,5583.050032909756 35667.06658477334,5534.097902494686 35667.54077414223,5523.491889576166 35698.69367583117,5457.537366410455 35698.75979437339,5452.382783936191 35668.492648133404,5420.0604942936625 35660.322202195624,5412.823552223941 35602.39536870234,5395.875061028433 35596.49625488892,5392.62863185149 35571.62199327115,5360.645991372323 35561.901985022334,5359.72289710943 35468.71823988445,5420.328552868363 35458.55491700452,5424.690181280283 35396.58698811566,5427.56361098183 35383.87300411563,5426.1949026806105 35371.21436162675,5419.765550325421 35365.404959315645,5411.790018440661 35333.07270089791,5344.63236173286 35328.07944024003,5340.525099075836 35239.830118995604,5311.239142810082 35236.26758203572,5308.846497613908 35232.83291309336,5300.129371978779 35232.89204112892,5296.6161327587615 35242.56457218665,5283.855532740388 35247.30966985782,5276.704104045377 35247.28695071114,5258.780360411707 35243.8796612534,5252.685341609729 35211.215353768996,5217.549272633303 35207.42271263115,5213.835714329878 35115.3222047556,5174.823271922913 35110.23544607123,5168.586036988621 35099.4432688623,5140.151888042776 35098.70547913781,5133.275890488614 35107.39933926226,5087.483042545704 35108.631707333356,5062.270285148668 35099.188697911195,5040.535858123476 35093.72386932452,5036.612604701455 35055.392008560106,5033.968262902781 35051.000805289,5035.588788645837 35040.94234000889,5045.769634674798 35038.825381573384,5050.313902769965 35034.98205926232,5085.676024278189 35031.131455173345,5089.365300884383 34908.31407846229,5134.25717370506 34901.40891423121,5132.462506386655 34853.2952957422,5039.79970985782 34849.32206651566,5036.82338963481 34800.050936631254,5036.404196798365 34793.72831462228,5034.883524962206 34679.1509976445,4973.301733905653 34667.39704322673,4970.421022052906 34593.697879066785,4982.140173172549 34590.90371529779,4980.439897374745 34513.466668969,4841.474889936944 34509.961803688995,4833.860757082846 34509.01779401789,4802.037831954978 34507.05579181339,4799.010750150686 34464.529335777836,4803.909598268539 34459.53840528892,4802.926506823424 34434.26335462227,4779.912376001157 34431.97949784014,4779.626694343839 34396.831812862285,4794.671182583523 34390.488219333325,4801.006328819989 34301.28440265786,4913.005622306286 34272.57206160899,4942.227398873452 34242.17384336898,4951.053098399978 34235.6001456623,4948.907760782895 34227.99243551118,4940.462524014496 34227.81942047118,4936.786042069638 34236.3169638668,4922.754936872661 34237.830699831226,4919.551479173853 34233.72581606228,4868.56915761219 34234.3220480267,4856.8235489414365 34249.77922335125,4812.938870647544 34250.14243842671,4806.888991013373 34233.05589250671,4764.593642460968 34231.91440102223,4755.2055796312925 34243.84544827566,4726.077950518782 34246.89709570676,4719.331337095151 34252.3223114223,4662.823350597901 34246.80738420456,4660.109172717988 34192.652511600034,4668.850298582431 34184.9090691112,4668.073715068429 34101.99292191116,4642.008574238251 34095.499615031156,4641.325586930645 34046.384897733435,4678.906672040903 34038.11687597339,4679.808661091927 33970.941019617814,4654.887957307656 33966.42223960008,4654.871280938998 33883.308901857796,4724.616563019605 33878.32204916454,4725.823935078079 33828.70518047116,4673.462881274667 33826.98930235566,4672.046325203002 33800.92840223117,4674.578490711079 33796.4093309423,4674.322814285784 33682.83689929787,4750.666530231392 33678.17772660449,4751.366562475829 33609.8306691112,4741.345999364188 33607.92459096012,4739.894261071604 33591.218153840025,4670.648020935099 33589.83374224892,4666.539595423819 33571.75337929789,4657.170222860557 33569.86128216002,4656.613556034776 33530.20675928004,4684.388408765284 33527.6674577334,4684.704413394531 33500.18952365334,4657.876178733219 33496.388726924524,4657.132105928991 33361.1061117423,4676.7803101862955 33359.03837812457,4675.036642896914 33272.897859724566,4525.457276225061 33265.152960880056,4514.657963638456 33260.73117414231,4444.02321641703 33258.80761972452,4433.729449536797 33224.26577865784,4350.664398026507 33221.24209325339,4341.44795228439 33254.08320230232,4263.576093065523 33251.79235501341,4252.560433741164 33213.34981122669,4247.145870955283 33210.315057520034,4245.265897793433 33151.14012731563,4153.599269712606 33146.9694162756,4148.338600649295 33144.18399064008,4113.40929085252 33141.64847561785,4109.013276490994 33055.80767519118,4042.287997701409 33050.31983618669,4036.1538957631856 33027.87827088891,3984.7619900480204 33024.73865958231,3980.221732609818 32967.502138622316,3925.8165838884015 32962.44567213345,3920.4663004399335 32958.38477030231,3896.6025703868654 32957.759119955685,3893.754754808353 32911.26817282671,3844.3354388337175 32906.534726000136,3839.6879185434373 32841.873995688955,3847.230306037207 32838.6478768623,3847.468019701919 32830.735205857876,3838.08925858399 32829.54099430223,3834.8033453668177 32836.46596496888,3813.045713631698 32834.644064169006,3810.4853962264897 32777.42734964446,3789.3344512068725 32773.00294146673,3788.0066490586323 32583.412827617816,3833.2477208702185 32576.51028482672,3833.3801489171747 32411.797636577838,3794.9176558565523 32410.038067795547,3795.401998841582 32401.535572791217,3773.4751906741003 32400.09174189342,3771.217561843019 32363.09215519121,3749.8600556674355 32361.750851724508,3746.7393370364152 32359.215336702277,3664.2360879227344 32359.198151706812,3660.3209400050982 32348.34772027561,3637.5142819112807 32347.308756222228,3635.71815128412 32354.67645897784,3631.8383199146774 32355.511824524474,3630.4127123605285 32355.103753697804,3607.849066033348 32356.70749243568,3603.63234432062 32394.06738150234,3579.7663378870056 32394.638564151224,3578.7829033336893 32388.128363546777,3517.4517823453934 32386.98745460457,3514.6091248626763 32352.942813324487,3462.4798826725746 32351.279655280036,3460.28148730236 32254.076077537822,3393.678908016038 32252.790989395675,3392.2378093471925 32251.56415547568,3380.487064537505 32249.974980293402,3371.852459134272 32224.30875252453,3341.8400500752905 32222.13004461336,3338.617022683058 32222.719868613385,3320.3817073614046 32221.44206224892,3314.9421136156016 32153.205105235662,3285.91001982367 32150.48812831121,3284.04394440513 32137.676859760053,3254.8163628729235 32134.728904844473,3245.631441941805 32138.22037165342,3220.9092118990084 32136.962954266673,3219.485934933735 32005.95416009785,3165.348189128592 31984.20494623119,3153.4520255075477 31970.00314939567,3120.6846447435964 31966.479934035662,3116.3002565812494 31938.60499743114,3099.2278332022543 31937.07378520011,3097.270896657923 31916.37576877347,3113.2365676281916 31913.61335355565,3113.7668098314607 31781.528021360027,3106.3112360810337 31779.95224464892,3105.885102380329 31729.478165075627,3074.063988618698 31724.306355226763,3069.560687876161 31678.98631796448,3064.5973921601835 31675.963215102303,3063.055097125907 31654.903439955648,3029.6028557410173 31651.499937022316,3023.54778831327 31575.35322171564,2987.0247242285695 31572.27769005343,2985.4296608990117 31541.038863386704,2944.1181842062797 31539.431046853402,2940.548054704006 31551.443941288955,2905.6567758412275 31551.751814853378,2901.8685603089107 31546.575635937836,2873.9989769194217 31545.455115973346,2869.8387382231012 31523.871635369003,2836.904716909019 31522.419066337847,2830.42917819132 31549.50815348453,2799.3269645035325 31549.68087725339,2796.7360731326335 31515.017284862326,2719.990499480831 31513.99346690681,2715.239870404155 31528.947034480145,2674.7050886673096 31528.143417484454,2670.099396075908 31502.53981300453,2634.476754544856 31501.771439813405,2631.5453605234798 31504.96814025785,2582.2377437434334 31505.354948293396,2573.397468821 31521.55952528897,2532.2415455800074 31522.01274313787,2529.817950832745 31494.78967128005,2467.475452772429 31491.3785952979,2456.1727621459577 31457.015885964596,2422.4461481788603 31456.135082124478,2421.1154129776696 31459.693250017917,2399.9075463445915 31457.54046523569,2397.71376302556 31377.432754088986,2378.6078940895095 31373.814875617834,2378.488863049337 31274.759104880017,2439.224624227005 31270.26187892454,2442.4477962366363 31200.399629111147,2423.381275215972 31191.72237144001,2417.3836731703195 31147.208281342268,2325.7020578929514 31146.418062817866,2324.221769536176 31110.59521140447,2279.720518021757 31107.4477357778,2277.3860452706867 31083.246310426715,2219.4514347230725 31082.35909862232,2216.5381926377595 31076.658049164434,2186.9853046611242 31076.698244577834,2185.019179019466 31084.50605798231,2179.9073123174894 31083.960798462365,2176.86620974759 31057.042687457848,2134.4874938440917 31053.872201413476,2124.0191056053445 31059.39965328898,2099.2253167406016 31059.73141108451,2097.5602998656395 31009.63947920895,2010.0183710328129 31007.72116767124,2007.6263808741642 30859.129501608993,1911.9415167293919 30856.983707333427,1911.1327328407497 30855.527934320016,1878.1783335744694 30854.31042107565,1875.8418440438982 30745.294925964532,1793.4249835457013 30742.011426729012,1791.39723948951 30734.54731323568,1764.3444677728403 30734.278761271133,1761.6505870353722 30739.539991351172,1750.954560324928 30737.82207433784,1746.7495788559027 30706.792671600102,1723.123171067884 30704.6538678312,1719.9499838123156 30695.11677784005,1682.4559408375935 30691.657350853413,1678.774976855173 30552.159460151197,1594.1613689572841 30547.61533954679,1590.6571146383358 30545.078950711155,1539.7148904915957 30543.818620613405,1537.6786128680978 30462.066684044526,1458.4963097503933 30458.09199846231,1455.8786623006745 30399.105229395653,1452.9489212768676 30396.778555760022,1451.8001327973034 30406.71439590233,1424.9805759256415 30404.217911208958,1421.2959280024807 30317.68563316446,1338.534283003275 30311.441363084457,1333.8520117645676 30296.572264133465,1328.0459222941136 30293.826742640093,1328.3177456519625 30293.17779060451,1347.8297005512577 30290.70548141338,1355.7309514797234 30274.783146124544,1373.2640432787884 30264.33554264016,1377.5805260272173 30252.950046177815,1364.765031579329 30250.81706783115,1363.383540060575 30203.839697946656,1373.7630686249759 30200.59173378672,1372.4059105385968 30197.489405182285,1334.353573978151 30194.77504969782,1331.9784217675624 30128.02590552005,1318.4056339773524 30124.632888346772,1318.1143785110035 30074.801352844435,1330.1849020785012 30072.280692648936,1331.541571537702 30049.3524133245,1373.4233756719914 30036.264145946807,1378.8041979908303 29970.29094800898,1364.1648767384177 29965.103992062366,1359.4145235136675 29965.152634337755,1342.5943633601128 29968.739638071136,1339.395005085651 30039.040250906815,1307.9274202210072 30038.972967280053,1304.7225872263953 30004.965899973387,1247.5138190029247 30002.781366640098,1242.8291645797144 29974.967305697828,1162.6999892266176 29971.439430000122,1156.4356776572822 29902.260502213474,1120.6465096723696 29891.518714906742,1118.8784078153258 29865.02906370673,1013.655003803171 29864.750317253383,1011.5551881294523 29929.658919280024,954.5573736338702 29931.40887611555,953.5569795737101 30004.830750177825,971.3451615030935 30006.721390960018,969.3445556065708 30012.499627262332,930.882041781937 30014.95271256005,923.4509312556183 30059.44961766233,853.9037965387979 30063.533821182304,844.388797431282 30066.696442906723,831.1602417197719 30069.077584240098,817.7635774318769 30064.336855635607,768.601154004311 30063.008950640076,749.344865248393 29972.552668186698,607.1321333819942 29969.408979084554,603.6824038182676 29934.07458932451,601.67605532569 29931.655874017837,600.4600509685406 29840.85880436455,529.4918302476581 29838.786992951158,526.9288101172715 29813.808747546725,472.4888647251355 29797.12124304902,448.2666922272474 29777.00256486235,356.7291757677158 29770.234006782273,342.8974981067877 29670.286946444518,237.17312828000286 29665.124457271166,230.91700282602687 29550.93074434679,195.15374302395503 29518.636933715643,180.62887899621273 29461.177590355604,138.98221985061537 29454.60884425787,134.2537692138867 29400.827672488966,146.40122110614902 29388.66826868451,147.52911035195575 29245.90872408005,125.93266276051872 29235.90880429335,123.43226437663543 29010.11340006229,17.321233693131944 29005.684914088903,8.052549999993062 27824.78211814221,103.9752004709735 27582.5488287556,123.84275563215488 28173.41587060455,944.626958071749 28300.655325324486,1095.365770072356 28366.665514693457,1892.969209497649 28385.950283688937,2095.693078193319 28037.810818302307,3078.1377719487355 27998.628154622253,3191.0140179160226 27651.44755373346,3664.2504611412587 27559.985220862298,3789.328067566239 27383.1822000623,3928.7667464053666 27225.61588852443,4053.4615960101655 27412.66029286231,4210.318845658243 27483.050325928933,4269.539276934956 27817.10304656902,4450.798477651464 28067.82572376004,4587.175478225952 27440.405322551123,5290.394998579548 27343.574863102265,5401.312797219172 27275.228679422267,5506.3934024618065 27178.700850657864,5655.211414351274 24588.252679422243,4444.303867733484 24447.804662355666,4379.767152103799 23577.302790284484,4446.919548684178 23391.692022355717,4459.382068766601 22860.443516613428,3946.689933605987 22763.883939297848,3862.651526360627 22241.60308852452,4094.978603932861 21949.005528773392,4224.107279325108 21883.2312690045,5166.00777931101 21876.37212560894,5259.774412149825 21895.652234266723,5511.5914832189155 21916.266655884545,5777.485427284642 22001.764630213358,6661.5271658548445 22023.079558853387,6892.53885559013 21349.781918746747,8537.570354028285 21290.373097840093,8683.092075825873 20744.11772191115,8254.439883233776 20605.7292828711,8146.218943718384 19695.699590853394,7632.750380485988 19489.514887991107,7518.672198848304 19405.36083856898,7653.3308139706205 19277.341942355597,7896.1295504527225 19195.25096621339,8052.283096866478 18534.8141107467,8565.967082074698 18465.1869167201,8621.123644955835 18046.353331226717,8989.028702669864 17906.73514555567,9110.695865061454 17507.382645786718,10677.57027540807 17447.800809840068,10915.806287445797 17376.799107440027,11167.574980292906 17264.38622608895,11421.454031830159 17198.03524952007,11570.903548435512 17048.84006971561,11841.293683140568 16943.642556329003,12032.071630665887 16472.60590594667,12099.274822752952 16217.01783611565,12145.357014341367 16086.179144275586,12565.334573833243 16018.452494248959,12783.176717705937 16527.641582391203,13733.523546282871 16609.611972293445,13888.37458451846 16876.877100968944,14409.689103402925 16933.790893537785,14522.67154987881 16891.72260696008,15542.156544463505 16886.11010392008,15718.113450413832 16565.796641591216,15985.719085152115 16321.92145695116,16187.104848954448 15990.966113306793,16569.27257885618 15869.74723245341,16708.91291743281 15738.277647386749,16999.953919845604 14744.392458835595,18882.016433043027 14653.960351884576,19056.49970446076 14351.221314586677,19371.825735002727 14157.8959400089,19571.71703482853 14102.946188542272,19645.761742939212 13942.845818337846,19861.50012932482 14034.208827760049,20257.042295474006 14097.299606782246,20531.247493610223 14225.433263813356,21173.471007114946 14255.978282693402,21329.052411368553 13213.602570835596,22068.529868609767 12948.02652333337,22260.110493279615 11652.353880204471,22390.45792638263 11435.185052471214,22411.18820302465 11585.699690408983,23546.43936676401 11600.638111884451,23664.291931572574 11618.182244720032,23879.46295381998 11633.584078533437,24068.23323115884 11702.317361520116,24434.542746432213 11753.217862000085,24705.81600697254 11617.395230177768,25140.36325951261 11508.481679955592,25493.645151921868 11396.821151884484,26635.965662840783 11384.163674480027,26759.425673658407 11391.117772257865,27472.744334943913 11393.61775220451,27792.39120739393 11407.671000773415,28239.748110158573 11407.701875511186,28240.732699869754 11130.171187795677,28562.41573550584 11034.711450195617,28673.228137672384 10907.285290693377,29407.367166011914 10880.884477182386,29566.400659235573 10204.313823600045,30722.97082327775 10156.533419262247,30808.176803783834 9224.636257306767,32568.495671208453 9073.51053257785,32852.68627556841 9008.39891458673,33029.460224101174 8924.340110817786,33257.66238871831 9467.75238943121,33648.959574913926 9614.41205421344,33753.759883021325 10179.641704133457,33949.12625189722 10263.093498906797,34055.68153889119 10376.998562160043,35654.908675112616 10388.975047706721,35853.52130205833 9902.859291902256,36958.855552059744 9836.79667373337,37101.38146584129 9361.51445563566,36936.67182332129 9102.376956044442,36846.584632010985 8841.132401235613,36781.74419599431 8584.895379369009,36718.54744103676 7830.203774888978,36561.76180072382 7633.572473200133,36519.608822063514 7013.587640915626,36706.18271552186 6805.126363049007,36769.00150011605 6224.791102035648,37224.70762093595 6096.996193306732,37325.54578847639 5558.145511564544,38263.4670874631 5504.727554871213,38354.68347928891 5116.959489733425,38962.63688578826 5068.830725146785,39037.96218482507 5013.165320560081,39211.90212871294 4978.208126888938,39321.21004697037 4861.147723688955,39471.19071527323 4767.9258220356205,39590.779206347856 4611.360609306699,39758.71264082994 4542.198575244496,39832.94581949778 4664.6646789957085,40336.76797919636 4726.012782960061,40586.92090056473 4392.5635760623045,41296.136054103816 4350.889670568962,41387.59550834712 4158.177712951183,41724.78703779468 4031.921298231209,41947.72151220447 4686.99323110222,43546.01445320851 4741.60947714674,43680.79815663953 4389.404158320023,44209.13726677871 4323.5582458578065,44307.01795838689 4502.999017840113,45292.28718062522 4503.1772757600775,45293.26549503175 4296.467411084544,46056.81205941862 4269.491045857874,46156.40684088701 4916.871382497811,48137.98473703806 4977.878116720101,48324.905438876565 4526.134682195705,51567.192995462654 4506.940789786728,51697.40344367907 4824.35231803565,52102.807398363104 4908.798512382295,52210.56030239895 5023.304759208906,52304.60957087224 5099.847311955622,52367.30646715677 5251.538393911185,52577.1682488574 5328.161920026738,52683.74869152854 5406.833664595593,52658.42399686048 5538.8225860533785,52654.67027145493 5764.2410854667905,52648.47670691958 6595.2483424978345,53870.523375202174 6642.509410444509,53942.56817064292 6544.532216631087,54484.46663617084 6534.654339440145,54537.300937608496 6456.665334355646,54766.844589570275 6408.018981004578,54908.96667351105 6262.590519209021,55103.54720697398 6165.331017413388,55233.80098951151 6094.128629217834,55728.342731973884 6090.687843582338,55738.47517960469 6052.88726132454,55765.397919632465 6021.48881808899,55779.6013820791 5890.021854462313,55814.92340220531 5883.6977760977825,55816.6911365322 5456.539370977764,55789.2960324726 5409.754240026792,55791.474402555235 4804.303836186744,55982.46584384024 4758.3823240800775,56017.913204475975 5057.971264311207,56715.634127790545 5075.2820889866925,56755.20320276494 5079.591445075675,56952.68050460456 5080.219716862288,56981.44010501049 5097.925505164523,57065.20032346036 5123.801156862268,57187.521584676084 5218.66349741337,57542.195873177814 5257.561880488975,57688.640992708184 5508.811175848918,58082.17480615291 5594.428862604524,58232.60039986696 5600.283703208996,58338.69948976123 5608.308222320142,58483.93149836172 5763.61805656003,58720.0682736203 5800.782211440128,58775.76177764588 5848.890587049049,58924.97676967297 5873.634650480097,59001.72691888563 5871.550896951208,59505.305103946564 5871.181565182262,59632.935873671464 5701.101372897836,59964.7235634173 5694.223296880118,59977.93287456184 5618.673687351147,60055.653116828966 5558.807279528912,60117.386504996655 5568.046399173421,60258.864141025435 5575.171473093425,60366.834572883294 5620.72394470228,60623.54033649384 5635.113902675665,60704.8017483181 5672.413207351208,60839.25720037226 5684.317457662291,60882.21779083504 5569.206240737905,61410.85139389333 5564.187639493473,61434.07026456969 5509.133612968937,61576.987299859495 5505.569619653375,61586.235412928596 5415.740735173436,61776.82919528647 5412.482576524468,61783.74063141071 5343.414040488984,61857.40463178282 5258.4109357778,61921.215596879105 5150.691014568882,62118.64394213687 5099.597692613352,62211.970464507205 4793.154560595613,62423.88961748764 4778.81120600002,62433.89467888363 4661.599050551165,62585.8929905876 4613.6234945689575,62652.96558918277 4558.33033446232,62670.669292281644 4473.265480275593,62628.926291206124 4396.565349857883,62648.017574379075 4261.6913880444845,62675.376962574344 4062.9055539467154,62590.51677217879 4062.780889911206,62589.58633288767 3897.2587992445115,62678.915912477154 3893.2555690934896,62682.075136730884 3880.1876906933976,62697.63364850366 3877.766062675604,62702.124729430216 3880.619645751176,62732.68127233218 3880.3312873511823,62735.2145677963 3870.7443900001017,62747.45226692999 3866.793588648994,62749.908186254645 3771.8220214311514,62756.78134440616 3770.431493146789,62757.65468916952 3760.543130195678,62778.295810761716 3760.2771996712327,62781.577575827745 3779.8928526489544,62828.55941586461 3780.873271208933,62829.90635929597 3770.905391244545,62848.12223679773 3770.5083887200817,62848.85132335176 3639.8887327556513,62933.647860717174 3639.229586231151,62934.78245796726 3677.9141763112057,62997.59175179023 3678.7868245601203,62998.452416095795 3742.0925616622917,63006.61723446814 3742.517526213407,63006.59057534495 3767.1613923823243,63026.89332912673 3769.3386439378155,63028.86646631142 3798.556340364601,63080.910601311625 3799.314227795672,63082.166569766676 3825.183180257889,63104.57276301735 3826.611865057821,63106.40203257857 3843.5382118667258,63164.30179556171 3843.676274373407,63164.80443024324 3889.2351539466545,63207.51954416346 3890.483541929025,63208.419220077194 3889.7874039733797,63252.980931815255 3889.955758675562,63256.57471167957 3907.4381420357167,63358.259817721235 3910.2879385867636,63361.668839131744 3909.072172968976,63383.65046283245 3908.809737697804,63385.09186924729 3899.6620771823,63390.92621623303 3899.4308079200346,63392.12811493731 3912.6134471378537,63402.611153986625 3912.726169057867,63404.07208297998 3881.6489978577956,63461.255938353745 3881.756476897841,63463.32640175262 3911.162625733392,63525.11787269203 3912.348972968968,63528.12629889618 3909.189555226687,63576.502641742845 3909.553061573395,63577.56875093441 3923.893503457868,63586.41751912059 3924.4614821244977,63587.76554259562 3920.5945668534623,63674.077246313886 3920.4032017333448,63676.189323658095 3913.003459155654,63689.77375512567 3912.4581996357083,63691.49816231421 3923.7079637601055,63704.08656165618 3924.7049847733942,63706.374433521036 3923.0022138578133,63747.859789330716 3922.5953081155676,63749.13798582202 3948.240564364569,63748.46020788615 3948.686500435673,63749.19225414001 3936.3765094666524,63775.52791018013 3930.841484542332,63783.144492033956 3906.2637369156364,63784.462860423926 3783.279461857841,63791.06091667441 3750.737488240098,63850.920872317365 3742.581605857915,63910.60193733228 3728.182618480154,63967.978104919515 3686.969212613396,64048.13353984486 3685.4047954756315,64050.15045961304 3485.0271647556,64077.48603496837 3461.937229964511,64080.67664355421 3341.263317360055,64153.23379406662 3292.0248098401134,64181.547888893256 3231.851984808898,64269.76796325666 3226.2164713511957,64277.75891542624 3217.4066853244803,64326.738387939375 3206.305469466817,64388.457708003785 3276.2539355290137,64676.63875382763 3315.559224346747,64838.90841808918 3374.684638462357,64975.35703355106 3387.1233712623143,65021.41312408293 3407.162532435592,65168.28501373934 3409.684066444497,65312.3569599193 3448.010684328947,65394.300282153854 3464.5222610756537,65551.18120829316 3464.7710066045183,65553.55545687859 3498.929534888921,65622.44576740914 3500.436862888957,65626.87574131854 3493.4233458044255,65638.29555071835 3493.796172826762,65641.57088913277 3547.739873875609,65739.94989946575 3570.7348542845357,65792.00531915503 3610.202672382329,66376.75819030203 3610.2055850934485,66380.29902300212 3525.754439137854,66473.12702200047 3524.0889509245535,66474.78243195012 3474.651213964542,66575.87573558462 3473.882549502283,66579.32816659615 3476.661858444546,66643.16887625455 3476.6073907466853,66644.43323676332 3454.58671220448,66744.32754182423 3449.6898622844383,66783.90259744148 3458.189735849017,66957.14128403817 3459.3827823200045,66980.59251568987 3434.1723938400173,67033.5249712063 3417.5859604178477,67102.21973307637 3417.465956720036,67102.66175539457 3429.0058268712382,67106.76360649362 3430.3587811823018,67108.5923607476 3467.102631848982,67185.63010381281 3467.836052506791,67187.2295450494 3456.7231858045343,67197.03065637409 3455.385086320086,67198.47460684422 3454.171359600012,67253.21658261467 3452.7004404889667,67259.1431658866 3377.436859191257,67364.86431737358 3377.114422071121,67365.27741040973 3343.2818261600114,67454.63958408256 3343.1324040801046,67454.97035925262 3287.3120432622745,67536.89919052212 3262.775947404538,67560.94918413911 3227.35825410681,67747.81308679757 3227.4275766311694,67748.31585462214 3211.144938977879,67760.39603061692 3210.9713413956124,67760.7726581083 3216.480151920092,67772.03551926118 3216.5465617334485,67772.3968564827 3208.2945598844453,67791.29176653674 3207.9936768266853,67791.79498751738 3186.669427511144,67807.1103765261 3185.292006426702,67808.0404106355 3186.1515474755797,67822.68574196644 3186.5060244179112,67823.21940936378 3206.3179941245835,67832.17451451949 3208.8884616800133,67835.61263183338 3204.581144488977,67852.64573664535 3204.6245438845144,67853.25845522861 3213.5243326845593,67876.63358599061 3213.6251124889604,67877.13319546354 3187.095265875665,67895.30364091354 3186.8013733244516,67896.29880699815 3200.752968275665,67906.70112456763 3200.958314408992,67907.57926088569 3193.3439050222296,67919.92360759465 3193.258562586714,67921.67580176328 3200.7060736267376,67992.54762728754 3200.3472276178436,67995.39154342687 3179.814944453399,68023.38566246323 3178.683938728973,68026.01848180508 3179.7045527022347,68048.20571517255 3178.900935706777,68050.42091153198 3155.2529254667243,68078.4031719791 3154.6147504623295,68079.46289449258 3161.9734238133315,68118.00588912776 3161.834778764496,68118.3756165602 3131.577827013425,68119.04959117374 3129.868065591181,68119.41988109131 3111.059816133442,68135.5691428165 3110.310666835612,68137.01743662727 3120.386608382316,68160.73270401036 3120.4291339645642,68161.63283400048 3107.1500840089066,68166.64244700698 3106.322874053476,68168.86758358098 3102.2316800267217,68219.86946042322 3092.3450647023055,68281.04969847875 3030.548694497884,68267.27977012945 3029.498370871159,68267.6165003069 2924.229496062362,68359.96408176838 2913.581789324504,68368.54897420396 2876.571716862243,68330.26808169673 2876.2778243112625,68330.33123348813 2860.9592940356597,68384.69902533412 2860.7606471378604,68384.8427682542 2805.6760371468044,68321.9831786415 2805.138641946811,68322.22564660691 2782.1113304445535,68349.24652948449 2781.656073697821,68349.9236526737 2773.4422283645035,68382.33993520596 2773.111926924532,68382.8641799241 2748.331454604493,68394.63112988506 2747.788525253396,68394.72469895179 2761.982457768965,68413.48213515393 2762.178191955645,68413.82650343442 2758.6817735378645,68443.1164345805 2758.577789751209,68443.49850688988 2745.7851625511903,68433.81009401186 2745.5154455023367,68433.7469757369 2726.415342391214,68446.44798975103 2726.1552372890073,68446.36627942065 2684.7131836000844,68409.33670492235 2649.9389081867193,68376.06749146662 2618.353468897847,68368.23045822183 2599.8455199555974,68364.36312530443 2525.661680666708,68381.3855807179 2520.899106728939,68377.18873308154 2522.201962408937,68222.39525497294 2543.7554420889137,68128.55103037899 2532.171881271155,68020.00225099627 2539.867264026754,67903.8033596426 2524.6972820178853,67860.46849329196 2515.2531075111838,67833.65898366735 2537.7829279555954,67812.75779183515 2546.4890214667903,67801.52046698783 2449.147089946644,67593.61871912904 2399.6895465511843,67526.87002785454 2327.2641109600445,67314.70184327065 2266.320582568973,67193.99923294163 2183.3141413244666,67100.15430096924 2074.3513662845144,67149.89277431238 2035.1465660000467,67187.53241648324 1981.488893182228,67198.29879255258 1945.572252471211,67207.25547781165 1804.230033093343,67265.38309084738 1640.3678964889623,67302.74871660522 1535.5566085956307,67662.56357469337 1534.4678371823175,67666.30455244714 1462.3290123644765,67797.82675305972 1412.8752554934254,67851.23998109726 1386.9923220178825,67879.1954838965 1144.5851437778692,67974.93758064052 1052.4121093955837,68024.59929381809 954.1395666756216,68077.6855835621 315.0342423022739,68299.25356873692 141.5380224267501,68359.75435941256 8.052550000000338,69098.66957030704" stroke="#009edd" stroke-width="5.299425488554242px" fill="none" stroke-linejoin="round" vector-effect="non-scaling-stroke"></polygon><polygon points="20647.625136951196,77091.94160637385 20672.592896595575,77304.46868448504 20690.077901395598,77373.6655987942 20802.895940862225,77664.18000375244 20948.37275366227,78477.09124301162 20876.54238495112,79034.0604516544 20874.548634195562,79050.54522727695 20871.421838817863,79262.4188806494 20879.594906195627,79332.62545205138 20909.550683617803,79470.6145282384 20931.197952595634,79537.8100907268 20957.167684862252,79603.42543856674 20987.34482832891,79667.17999045618 21059.78104095124,79788.04709473599 21101.722624595604,79844.64776017531 21147.246842906672,79898.37440748527 21196.15271881791,79949.003433454 21361.019449484513,80080.23987802814 21421.24412077349,80116.49323570574 21483.685365217832,80148.73327170729 21548.07666975118,80176.83184099171 21884.535581040058,80290.63532455926 21953.084780684534,80305.73506267308 22022.462646640117,80316.33417909229 22092.379364151137,80322.38829047533 22302.40768059562,80313.12133990283 22371.524858906727,80300.9354278722 22723.84930761785,80201.16498476194 22777.275711173403,80184.04236392994 22906.546199351178,80129.168405359 22968.249071528997,80095.5202096613 23084.483721128992,80016.49767780202 23138.523250373408,79971.4562149643 23436.445537306696,79668.11157313673 23480.84981819566,79613.3537370851 23631.862238462294,79400.88034132021 24500.46618797337,78194.78157384458 25367.318141751202,77045.06779428161 25405.296981928965,76984.5404457761 25494.599248240098,76789.7964421905 25515.717860151177,76721.40846252945 25532.342158817897,76651.75649063723 25544.392044684595,76581.14467396875 25562.018315973437,76419.75793768567 25564.778109751154,76348.08900356371 25562.854264062342,76276.36704274322 25556.249691617886,76204.89806025961 25529.1075931289,76063.94796229605 25508.677837395553,75995.07561556998 25483.779982817803,75927.66832499698 25454.515974284477,75862.01790244252 25383.39630708457,75737.12131190105 25349.930712773443,75689.22503798109 26440.363827795583,74179.48879662724 26479.2339575734,74118.2937754482 26570.92464699559,73921.21305520934 26592.735027795636,73851.94535970749 26630.537648951147,73637.52045655271 26633.732893040033,73564.8535148678 26632.17750530676,73492.1048237212 26625.874398462336,73419.58745217122 26614.841048773356,73347.61493024326 26599.124059617847,73276.49299645922 26524.587782284572,73071.28625368324 26490.95325072899,73006.59116923591 26453.14480415124,72944.22363502145 26411.32118530674,72884.45856044584 26234.77157037342,72670.80434076607 26185.389466195695,72617.00211948648 26132.576188329003,72566.55105225588 26076.55455917339,72519.67448813494 25955.86783064015,72437.44448504466 25914.347133751122,72414.79427513081 26007.82040237342,72351.96796406989 26064.68817410674,72305.99600964083 26168.90206495123,72203.38695725656 26215.805451973436,72147.1755968371 26360.248252329045,71953.62451235871 26399.53489979564,71891.71903599854 26496.595172151203,71681.46002479977 26518.628375351174,71611.39288720975 26548.790955262353,71467.61008541947 26556.781978195628,71394.50790153627 26558.38688201781,71247.43289172105 26551.98183028456,71174.08737788725 26524.870315262327,71029.36603289607 26504.270165928967,70958.61196911099 26415.35237748453,70756.4183818856 26377.083722551215,70693.35368782454 26288.546042906797,70575.38252064036 26238.6498452178,70520.99393501037 26079.563389751223,70374.63946746124 26022.90096415123,70327.25537618573 25900.839435973416,70244.14227191414 25835.963165040106,70208.7812120537 25572.73709286235,70094.98494465751 25502.135888240045,70073.08507106928 25285.013663884463,70028.87550620487 25212.123068328925,70016.49950866433 25022.249256417832,70002.73071012195 24948.34358104002,70004.93613101062 24765.13696486233,70031.70387625202 24717.083056951153,70043.39701938696 24509.786863528985,70121.31575055965 24444.613496062208,70156.18708736481 24264.80892646229,70285.3501527787 24210.971830640083,70335.95345743102 24063.30465908451,70516.94596366535 24024.485501751165,70579.7470011109 23933.82882477341,70781.3768655608 23912.628656951223,70852.01963640246 23896.099021395647,70923.88053666937 23884.305454106747,70996.64117894528 23876.16442655118,71086.51852486006 23873.958047884495,71160.13856730211 23876.562011617796,71233.71985041091 23896.113584951127,71379.50337607876 23912.963618728892,71451.08511605454 23934.43903775115,71521.38428126261 23960.44080984008,71590.10557064143 24031.282313129028,71733.57974890489 24032.97605464,71737.65807552935 24058.91229072898,71825.03358673744 24084.829594195682,71893.66797915191 24149.746643084545,72025.06072276752 24188.46239917339,72087.26710294207 24231.129247884593,72146.79405430678 24277.563688417875,72203.39248527013 24380.925611262304,72306.86345249336 24424.124029751263,72342.38388034518 23396.97393268461,72629.58735104316 23336.65605464005,72648.55607196424 23202.275214817935,72705.23896682073 23138.181006817824,72740.08378788989 22929.489624773363,72879.60021459559 22870.424795048988,72868.88157060856 22748.508611155652,72975.28405473402 22635.97019195566,73099.34848420348 22457.78479846227,73603.65975806033 22317.11192009782,73850.91915095036 22096.72483785786,74150.74592361724 21460.555235013344,74770.47051442458 21210.486170195603,74915.88109398526 20939.89822068459,75326.53123421044 20907.104006284477,75390.70615131196 20833.358530017875,75597.76632093001 20818.31437712894,75668.17035751263 20806.27031668448,75754.85953870698 20753.904139973434,76286.57943253595 20659.76240415124,76907.27035290506 20654.24136024013,76949.17954336145 20647.625136951196,77091.94160637385" stroke="#009edd" stroke-width="6.286439613874134px" fill="none" stroke-linejoin="round" vector-effect="non-scaling-stroke"></polygon></svg>